<svg xmlns="http://www.w3.org/2000/svg" xmlns:xlink="http://www.w3.org/1999/xlink" viewBox="0 0 480.39 405.93"><defs><symbol id="a" viewBox="0 0 10.25 10.25"><circle cx="5.13" cy="5.13" r="5" transform="rotate(-45 5.12 5.12)" fill="#f0af21" stroke="#fff" stroke-miterlimit="10" stroke-width=".25"/><circle cx="5.13" cy="5.13" r="4" transform="rotate(-45 5.132 5.124)" fill="#f5ca6b" stroke="#e5be69" stroke-miterlimit="10" stroke-width=".976"/><path d="M2.3 8A4 4 0 0 0 8 2.3" fill="#f0af21" stroke="#e4a61f" stroke-miterlimit="10" stroke-width=".984" fill-rule="evenodd" opacity=".4"/></symbol><symbol id="b" viewBox="0 0 10.25 10.25"><circle cx="5.12" cy="5.12" r="5" transform="rotate(-45 5.12 5.12)" fill="#bbbec0" stroke="#fff" stroke-miterlimit="10" stroke-width=".25"/><circle cx="5.12" cy="5.12" r="4" transform="rotate(-45 5.12 5.12)" fill="#d9e0e5" stroke="#cccecf" stroke-miterlimit="10" stroke-width=".976"/><path d="M2.3 8A4 4 0 0 0 8 2.3" fill="#a6a8a9" stroke="#5e5f60" stroke-miterlimit="10" stroke-width=".984" fill-rule="evenodd" opacity=".4"/></symbol></defs><g style="isolation:isolate"><path d="M6.15 380.77q-.31-1.55-2.31-1.55a2.53 2.53 0 0 0-1.63.46 1.38 1.38 0 0 0-.57 1.11 1.29 1.29 0 0 0 .35 1 3 3 0 0 0 1.14.59l2.2.75a4.54 4.54 0 0 1 1.79 1.06 2.57 2.57 0 0 1 .72 1.87 2.53 2.53 0 0 1-1 2 4.33 4.33 0 0 1-2.78.83 4.47 4.47 0 0 1-2.86-.88 3.06 3.06 0 0 1-1.15-2.47h1.24a1.88 1.88 0 0 0 .73 1.59 3 3 0 0 0 1.88.55 2.93 2.93 0 0 0 1.82-.51 1.49 1.49 0 0 0 .66-1.17 1.47 1.47 0 0 0-.41-1.1 3.13 3.13 0 0 0-1.22-.67l-1.86-.69a5.6 5.6 0 0 1-2-1 2.26 2.26 0 0 1-.67-1.77 2.43 2.43 0 0 1 .94-1.95 4 4 0 0 1 2.68-.82 4 4 0 0 1 2.59.75 2.9 2.9 0 0 1 1 2zm4.53-2.57H12v10.55h-1.32zm6.02 9.39h4.7v1.16h-6V378.2h1.32zm5.77-9.39l3 8.87 3-8.87h1.39l-3.74 10.55h-1.28l-3.77-10.55zm9.37 0h6.49v1.14h-5.12v3.54h4.86V384h-4.86v3.59h5.17v1.16h-6.54zm16.83 3.02a3.12 3.12 0 0 1-.7 2.11 3.37 3.37 0 0 1-2.05 1l3 4.38h-1.69l-2.73-4.31h-1.85v4.31h-1.32V378.2H45a3.93 3.93 0 0 1 2.72.86 2.79 2.79 0 0 1 .95 2.16zm-3.77 2.3a2.53 2.53 0 0 0 1.8-.58 2 2 0 0 0 .61-1.53 2 2 0 0 0-.59-1.51 2.41 2.41 0 0 0-1.72-.56h-2.35v4.18zm376.06-263.79h3.94a3.76 3.76 0 0 1 2.56.79 2.52 2.52 0 0 1 .9 2 2.59 2.59 0 0 1-.49 1.58 2.48 2.48 0 0 1-1.5.91 2.6 2.6 0 0 1 1.59.86 2.32 2.32 0 0 1 .59 1.56 2.6 2.6 0 0 1-1.91 2.57 5.16 5.16 0 0 1-1.73.25h-4zm1.32 4.71h2.56a2.35 2.35 0 0 0 1.55-.48 1.79 1.79 0 0 0 0-2.62 2.38 2.38 0 0 0-1.57-.47h-2.58zm2.6 4.68a2.49 2.49 0 0 0 1.73-.49 1.69 1.69 0 0 0 .52-1.29 1.59 1.59 0 0 0-.57-1.28 2.54 2.54 0 0 0-1.68-.48h-2.6v3.54zm13.85-6.38a3.12 3.12 0 0 1-.7 2.11 3.37 3.37 0 0 1-2.05 1l3 4.38h-1.71l-2.71-4.23h-1.84v4.31h-1.32v-10.58h3.67a3.93 3.93 0 0 1 2.72.86 2.79 2.79 0 0 1 .94 2.15zm-3.77 2.3a2.53 2.53 0 0 0 1.8-.58 2 2 0 0 0 .61-1.53 2 2 0 0 0-.6-1.51 2.41 2.41 0 0 0-1.72-.56h-2.35V125zm10.43-5.5a4.26 4.26 0 0 1 3.31 1.4 7.18 7.18 0 0 1 0 8.13 4.27 4.27 0 0 1-3.32 1.38 4.22 4.22 0 0 1-3.31-1.4 7.21 7.21 0 0 1 0-8.12 4.22 4.22 0 0 1 3.32-1.39zm0 1.19a2.79 2.79 0 0 0-2.33 1.11 5.13 5.13 0 0 0-.86 3.19 5 5 0 0 0 .86 3.15 3.08 3.08 0 0 0 4.67 0 4.94 4.94 0 0 0 .86-3.15 5.09 5.09 0 0 0-.86-3.19 2.81 2.81 0 0 0-2.34-1.11zm8.65-1l5.23 8.47v-8.47h1.32v10.55h-1.48l-5.27-8.59v8.58h-1.34v-10.54zm9.48 9.35l6.09-8.1-6.09-.05v-1.21h7.75v1.19l-6.09 8.1 6.09.05v1.21h-7.75zm10.38-9.35h6.49v1.14h-5.16v3.54h4.86v1.12h-4.86v3.59h5.16v1.16h-6.49z" fill="#fff"/><use width="10.25" height="10.25" transform="matrix(3.97 0 0 3.97 355.5 340.84)" xlink:href="#a"/><path d="M369.38 357a4 4 0 0 0 2.06-.9h1.13v11.1h-1.37v-9.45a3.74 3.74 0 0 1-1.81.62zm7.46 8.92h6.43v1.29h-7.82v-1.64a3.13 3.13 0 0 1 1.48-2.87 6.2 6.2 0 0 1 1.06-.53l2.18-.88a2.29 2.29 0 0 0 1.69-2.2 1.8 1.8 0 0 0-.58-1.38 2.31 2.31 0 0 0-1.63-.54 3 3 0 0 0-1.71.44 1.75 1.75 0 0 0-.77 1.32h-1.53a2.79 2.79 0 0 1 1.16-2.22 4.59 4.59 0 0 1 2.76-.77 4 4 0 0 1 2.74.92 2.87 2.87 0 0 1 1.06 2.26 3.13 3.13 0 0 1-.7 2.14 4.8 4.8 0 0 1-1.91 1.27l-2.24.9a3.55 3.55 0 0 0-1.26.8 1.65 1.65 0 0 0-.41 1.17z" fill="#343d42"/><circle cx="449" cy="86.19" r="19.51" transform="rotate(-45 448.43 87.585)" fill="#caa280" stroke="#fff" stroke-miterlimit="10" stroke-width=".246"/><circle cx="449" cy="86.19" r="15.61" transform="rotate(-45 448.43 87.585)" fill="#caa280" stroke="#d7b89e" stroke-miterlimit="10" stroke-width=".959"/><path d="M436.84 97.23a15.61 15.61 0 1 0 22-22.08l-.09-.09" fill="#bd8b60" stroke="#c2926a" stroke-miterlimit="10" stroke-width=".967" fill-rule="evenodd" opacity=".4"/><path d="M446.52 84.84q-2.08-.95-2.08-2.58a2.4 2.4 0 0 1 1-2 4.51 4.51 0 0 1 2.74-.77 4.59 4.59 0 0 1 2.81.82 2.51 2.51 0 0 1 1.1 2.1 2.34 2.34 0 0 1-.58 1.55 2.62 2.62 0 0 1-1.69.85l.28.1a5.16 5.16 0 0 1 1.77 1 2.13 2.13 0 0 1 .62 1.61 2.35 2.35 0 0 1-1.13 2 5.31 5.31 0 0 1-3 .77 5.18 5.18 0 0 1-3.09-.85 2.54 2.54 0 0 1-1.18-2.13 2.23 2.23 0 0 1 .68-1.68 3.15 3.15 0 0 1 1.75-.79zm1.25.48a3 3 0 0 0-1.68.66 1.7 1.7 0 0 0-.63 1.34 1.49 1.49 0 0 0 .8 1.3 3.9 3.9 0 0 0 2.09.5 4.14 4.14 0 0 0 2.05-.43 1.24 1.24 0 0 0 .76-1.05 1.3 1.3 0 0 0-.4-1 3.12 3.12 0 0 0-1.1-.62zm-2-2.9a1 1 0 0 0 .37.78 3.51 3.51 0 0 0 1 .59l1.22.47a2.83 2.83 0 0 0 1.65-.53 1.54 1.54 0 0 0 .65-1.29 1.51 1.51 0 0 0-.68-1.28 3 3 0 0 0-1.77-.49 3.11 3.11 0 0 0-1.78.47 1.47 1.47 0 0 0-.59 1.28zm-79.72 321.52a2.69 2.69 0 0 1-2.73 2 4.24 4.24 0 0 1-3.33-1.48 5.8 5.8 0 0 1-1.3-4 5.5 5.5 0 0 1 1.42-4 4.69 4.69 0 0 1 3.53-1.48 4.51 4.51 0 0 1 2.17.5 4.29 4.29 0 0 1 1.6 1.61l-1.27.44a3.2 3.2 0 0 0-2.55-1.36 3.14 3.14 0 0 0-2.47 1.19 4.6 4.6 0 0 0-1 3.09 5 5 0 0 0 .87 3.06 2.79 2.79 0 0 0 2.35 1.16 2.51 2.51 0 0 0 1.94-.81 3.41 3.41 0 0 0 .74-2.38l-2.65-.1v-.87h3.94v5.21h-1.07zm8.01-8.94a4.25 4.25 0 0 1 3.31 1.4 7.18 7.18 0 0 1 0 8.13 4.27 4.27 0 0 1-3.32 1.38 4.22 4.22 0 0 1-3.31-1.4 7.22 7.22 0 0 1 0-8.12 4.22 4.22 0 0 1 3.32-1.39zm0 1.19a2.79 2.79 0 0 0-2.33 1.11 5.13 5.13 0 0 0-.85 3.19 5 5 0 0 0 .85 3.15 3.08 3.08 0 0 0 4.67 0 4.94 4.94 0 0 0 .86-3.15 5.09 5.09 0 0 0-.86-3.19 2.81 2.81 0 0 0-2.34-1.09zm8.44 8.4h4.69v1.16h-6V395.2h1.33zm9.61-9.39a5.28 5.28 0 1 1 0 10.55h-3.1V395.2zm-1.78 9.39h1.78a3.56 3.56 0 0 0 2.8-1.17 4.28 4.28 0 0 0 1-3 4.2 4.2 0 0 0-1-2.94 3.59 3.59 0 0 0-2.79-1.15h-1.78z" fill="#fff"/><path d="M319.66 133.94a106.2 106.2 0 0 0-92-53.12" fill="none" stroke="#a35c20" stroke-linecap="square" stroke-miterlimit="10" stroke-width="20"/><path d="M325.49 287.75a140.73 140.73 0 0 0 42.15-100.68c0-77.75-62.68-140.77-140-140.77" fill="none" stroke="#f0af21" stroke-linecap="square" stroke-miterlimit="10" stroke-width="19.945"/><path d="M98.75 308.37A177.07 177.07 0 1 0 227.75 10" fill="none" stroke="#d9e0e5" stroke-linecap="square" stroke-miterlimit="10" stroke-width="20"/><path fill="#343d42" stroke="#fff" stroke-miterlimit="10" d="M316.6 153.69l106-54.86M44.33 328.92l47.21-41.17m263.53 57.43l-54.14-54.14"/><circle cx="228.6" cy="186.19" r="71" fill="#fff" opacity=".9"/><path fill="#89a1b0" d="M224.23 224.49v-58.16l-21.73 7.35v50.81l10.42-6.16 11.31 6.16"/><path fill="#db792d" d="M239.3 220.1v-40.66l17.6 5.96v34.7l-8.44-4.98-9.16 4.98"/><path style="mix-blend-mode:multiply" fill="#ecae22" d="M217.73 146.64v21.88l6.5-2.19v42.39l7.64-4.16 7.43 4.39v-29.51l5.59 1.9v-25.51l-27.16-9.19"/><path fill="#9d7f30" d="M224.23 166.33l-6.5 2.19v43.73l6.5-3.53v-42.39"/><path fill="#cf5228" d="M239.3 179.44v29.51l5.59 3.3v-30.91l-5.59-1.9"/><use width="10.25" height="10.25" transform="matrix(3.9 0 0 3.9 3.85 328.19)" xlink:href="#b"/><path d="M16.57 352.26H23v1.29h-7.82v-1.64a3.13 3.13 0 0 1 1.48-2.91 6.23 6.23 0 0 1 1.06-.53l2.18-.88a2.29 2.29 0 0 0 1.69-2.2 1.8 1.8 0 0 0-.58-1.38 2.31 2.31 0 0 0-1.63-.54 3 3 0 0 0-1.71.44 1.75 1.75 0 0 0-.77 1.32h-1.53a2.8 2.8 0 0 1 1.16-2.22 4.59 4.59 0 0 1 2.75-.77 4 4 0 0 1 2.74.92 2.88 2.88 0 0 1 1.06 2.26 3.13 3.13 0 0 1-.7 2.14 4.83 4.83 0 0 1-1.91 1.27l-2.24.9a3.55 3.55 0 0 0-1.26.8 1.66 1.66 0 0 0-.41 1.17zm10.21 0h6.43v1.29h-7.82v-1.64a3.13 3.13 0 0 1 1.45-2.91 6.24 6.24 0 0 1 1.06-.53l2.18-.88a2.29 2.29 0 0 0 1.69-2.2 1.8 1.8 0 0 0-.58-1.38 2.31 2.31 0 0 0-1.63-.54 3 3 0 0 0-1.71.44 1.75 1.75 0 0 0-.77 1.32h-1.5a2.79 2.79 0 0 1 1.16-2.22 4.59 4.59 0 0 1 2.75-.77 4 4 0 0 1 2.74.92 2.87 2.87 0 0 1 1.06 2.26 3.13 3.13 0 0 1-.7 2.14 4.81 4.81 0 0 1-1.91 1.27l-2.24.9a3.55 3.55 0 0 0-1.26.8 1.66 1.66 0 0 0-.41 1.17z" fill="#343d42"/></g></svg>