<svg xmlns="http://www.w3.org/2000/svg" width="371" height="442" viewBox="0 0 371 442">
  <g fill="none" fill-rule="evenodd" transform="translate(0 1)">
    <path fill="#F7F7F7" d="M56.68,347.8 C56.68,359.08 48.76,366.52 33.28,368.56 L33.28,378.52 C33.28,380.8 31.36,382.84 28.96,382.84 C26.44,382.84 24.52,380.8 24.52,378.52 L24.52,368.68 C19.36,368.2 13.96,366.52 9.04,364.36 C4.84,362.56 0.4,359.8 0.4,355.96 C0.4,353.2 2.2,351.64 4.36,351.64 C7.48,351.64 9.64,353.8 12.28,355.12 C17.32,357.76 22.24,359.2 29.2,359.2 C40.24,359.2 46,354.88 46,348.52 C46,341.8 40.48,338.8 26.68,334.12 C7.12,327.52 1.36,321.52 1.36,310.48 C1.36,298.84 10.72,292.72 25,291.4 L25,281.56 C25,279.28 26.8,277.24 29.32,277.24 C31.84,277.24 33.76,279.28 33.76,281.56 L33.76,291.52 C37.96,291.76 42.16,292.96 46,294.28 C50.44,295.96 54.52,297.88 54.52,301.36 C54.52,303.76 53.2,305.68 50.2,305.68 C49.12,305.68 48.04,305.32 47.2,304.96 C41.2,302.32 36.16,300.52 29.32,300.52 C19.12,300.52 12.16,303.64 12.16,310.48 C12.16,317.44 16.72,319.6 30.88,324.64 C46.84,330.28 56.68,334.96 56.68,347.8 Z M102.2,365.32 C102.2,368.44 99.92,370.96 96.56,370.96 C93.2,370.96 90.92,368.44 90.92,365.32 L90.92,301.36 L76.76,305.68 C76.28,305.8 75.8,305.92 75.32,305.92 C72.56,305.92 69.68,304 69.68,300.76 C69.68,298 71.24,296.56 73.76,295.84 L94.04,289.6 C95.12,289.24 95.72,289.12 96.68,289.12 C99.92,289.12 102.2,291.16 102.2,294.88 L102.2,365.32 Z M183.84,347.08 C183.84,361.6 170.88,371.44 152.4,371.44 C140.16,371.44 130.32,367.84 122.64,361.12 C121.56,360.28 120.6,358.72 120.6,357.04 C120.6,353.92 123.12,352.12 125.76,352.12 C126.96,352.12 128.04,352.6 129,353.32 C135.36,358.24 141.24,361.84 152.4,361.84 C164.04,361.84 172.56,356.32 172.56,346.6 C172.56,336.4 163.44,332.32 151.32,332.32 L144.6,332.32 C141.72,332.32 139.44,330.16 139.44,327.28 C139.44,324.4 141.72,322.36 144.6,322.36 L149.76,322.36 C161.28,322.36 167.16,317.08 167.16,309.64 C167.16,301.36 160.92,298.24 152.16,298.24 C146.52,298.24 142.08,299.44 137.76,301.72 C136.08,302.56 134.52,303.4 132.48,303.4 C129.48,303.4 127.92,301.36 127.92,298.96 C127.92,295.12 132.48,292.96 135.48,291.76 C140.88,289.48 147.48,288.64 153.12,288.64 C168.48,288.64 178.44,296.08 178.44,308.8 C178.44,315.76 174.84,322.48 166.32,326.08 C176.88,328.96 183.84,335.56 183.84,347.08 Z M198.64,363.76 C198.64,359.8 201.88,356.56 205.84,356.56 C209.8,356.56 213.04,359.8 213.04,363.76 C213.04,367.72 209.8,370.96 205.84,370.96 C201.88,370.96 198.64,367.72 198.64,363.76 Z M291.44,344.2 C291.44,346.84 289.4,348.88 286.64,348.88 L275.6,348.88 L275.6,365.44 C275.6,368.56 273.2,370.96 270.08,370.96 C266.84,370.96 264.44,368.56 264.44,365.44 L264.44,348.88 L224.36,348.88 C221.6,348.88 219.44,346.96 219.44,344.2 C219.44,342.64 220.04,341.68 221,340.48 L265.28,291.52 C266.84,289.72 268.4,289.12 270.2,289.12 C273.44,289.12 275.6,291.28 275.6,294.64 L275.6,339.52 L286.64,339.52 C289.4,339.52 291.44,341.56 291.44,344.2 Z M264.44,339.52 L264.44,306.04 L234.32,339.52 L264.44,339.52 Z M370.2,330.04 C370.2,351.64 357.96,371.44 336,371.44 C314.04,371.44 301.8,351.64 301.8,330.04 C301.8,308.44 314.04,288.64 336,288.64 C357.96,288.64 370.2,308.44 370.2,330.04 Z M358.92,330.04 C358.92,312.4 349.92,298.72 336,298.72 C322.08,298.72 313.08,312.4 313.08,330.04 C313.08,347.68 322.08,361.36 336,361.36 C349.92,361.36 358.92,347.68 358.92,330.04 Z"/>
    <path fill="#BBB" d="M5.014,248 L5.014,238.614 L8.498,238.614 C10.37,238.614 11.579,239.238 11.683,240.915 C11.683,241.89 11.28,242.644 10.253,243.047 C11.475,243.541 11.891,244.1 11.891,245.53 C11.891,246.986 10.864,248 8.472,248 L5.014,248 Z M6.808,243.814 L6.808,246.544 L8.602,246.544 C9.642,246.544 10.097,246.076 10.097,245.179 C10.097,244.282 9.642,243.814 8.602,243.814 L6.808,243.814 Z M6.808,240.07 L6.808,242.358 L8.602,242.358 C9.46,242.358 9.889,241.864 9.889,241.214 C9.889,240.564 9.46,240.07 8.602,240.07 L6.808,240.07 Z M17.479,248 L15.685,248 L15.685,238.614 L19.429,238.614 C21.561,238.614 22.419,239.849 22.432,241.396 C22.445,242.553 21.86,243.489 20.716,243.814 L22.783,248 L20.794,248 L19.026,244.178 L17.479,244.178 L17.479,248 Z M17.479,240.07 L17.479,242.722 L18.805,242.722 C20.209,242.722 20.638,242.28 20.638,241.396 C20.638,240.512 20.105,240.07 19.117,240.07 L17.479,240.07 Z M27.11,238.614 L28.722,242.332 L30.334,238.614 L32.206,238.614 L29.619,244.256 L29.619,248 L27.825,248 L27.825,244.256 L25.238,238.614 L27.11,238.614 Z M37.625,240.408 L36.52,244.49 L38.704,244.49 L37.651,240.408 L37.625,240.408 Z M33.79,248 L36.494,238.601 L38.73,238.601 L41.395,248 L39.614,248 L39.094,245.972 L36.13,245.972 L35.571,248 L33.79,248 Z M46.307,248 L44.617,248 L44.617,238.614 L46.489,238.614 L50.181,245.01 L50.207,245.01 L50.207,238.614 L51.897,238.614 L51.897,248 L50.168,248 L46.333,241.318 L46.307,241.318 L46.307,248 Z M55.21,238.601 L61.918,238.601 L61.918,240.109 L59.461,240.109 L59.461,248 L57.667,248 L57.667,240.109 L55.21,240.109 L55.21,238.601 Z"/>
    <path fill="#F7F7F7" d="M3.21875,131.171875 C3.21875,129.921869 3.68749531,128.671881 4.625,127.421875 C5.4843793,126.249994 6.49999414,125.664062 7.671875,125.664062 C8.29687812,125.664062 9.15624453,126.132808 10.25,127.070312 C11.4218809,128.085943 12.554682,129.179682 13.6484375,130.351562 C14.8203184,131.445318 16.6562375,132.499995 19.15625,133.515625 C21.6562625,134.531255 24.4687344,135.117187 27.59375,135.273438 L27.59375,103.398438 C26.4999945,103.007811 24.3125164,102.187506 21.03125,100.9375 C19.5468676,100.390622 17.6328242,99.4531316 15.2890625,98.125 C12.9453008,96.718743 11.1484437,95.3515691 9.8984375,94.0234375 C8.80468203,92.5390551 7.78906719,90.6250117 6.8515625,88.28125 C5.83593242,85.9374883 5.328125,83.2812648 5.328125,80.3125 C5.328125,76.718732 5.99218086,73.5547012 7.3203125,70.8203125 C8.57031875,68.0077984 10.2890516,65.8203203 12.4765625,64.2578125 C14.6640734,62.6171793 17.0078,61.4062539 19.5078125,60.625 C22.007825,59.7656207 24.7031105,59.2187512 27.59375,58.984375 L27.59375,55.3515625 C27.59375,54.7265594 27.8671848,54.1406277 28.4140625,53.59375 C29.0390656,53.1249977 29.7812457,52.890625 30.640625,52.890625 C31.5000043,52.890625 32.2421844,53.1249977 32.8671875,53.59375 C33.4921906,54.1406277 33.8046875,54.7265594 33.8046875,55.3515625 L33.8046875,58.75 C38.5703363,58.9843762 42.9452926,59.8046805 46.9296875,61.2109375 C50.835957,62.6171945 52.7890625,64.4140516 52.7890625,66.6015625 C52.7890625,67.7734434 52.3984414,68.9843688 51.6171875,70.234375 C50.7578082,71.4843812 49.7031312,72.109375 48.453125,72.109375 C48.062498,72.109375 46.3828273,71.4453191 43.4140625,70.1171875 C40.4452977,68.7109305 37.2422047,67.9296883 33.8046875,67.7734375 L33.8046875,95.078125 C36.9297031,96.1718805 39.5078023,97.2656195 41.5390625,98.359375 C43.5703227,99.4531305 45.7187387,100.976553 47.984375,102.929688 C50.2500113,104.726571 51.9687441,107.10936 53.140625,110.078125 C54.3125059,112.968764 54.8984375,116.367168 54.8984375,120.273438 C54.8984375,127.304723 53.0234562,132.851542 49.2734375,136.914062 C45.4452934,141.054708 40.2890949,143.554683 33.8046875,144.414062 L33.8046875,148.75 C33.8046875,149.375003 33.4921906,149.960935 32.8671875,150.507812 C32.2421844,150.976565 31.5000043,151.210938 30.640625,151.210938 C29.7812457,151.210938 29.0390656,150.976565 28.4140625,150.507812 C27.8671848,149.960935 27.59375,149.375003 27.59375,148.75 L27.59375,144.765625 C20.7187156,144.6875 14.9375234,143.125015 10.25,140.078125 C5.56247656,137.031235 3.21875,134.062514 3.21875,131.171875 Z M14.9375,79.375 C14.9375,83.1250187 16.0312391,85.9374906 18.21875,87.8125 C20.3281355,89.6875094 23.6093527,91.4453043 28.0625,93.0859375 L28.0625,67.890625 C19.3124563,68.7500043 14.9375,72.578091 14.9375,79.375 Z M33.3359375,135.039062 C41.3047273,133.789056 45.2890625,129.179727 45.2890625,121.210938 C45.2890625,117.070292 44.2734477,113.828137 42.2421875,111.484375 C40.132802,109.218739 37.1640816,107.265633 33.3359375,105.625 L33.3359375,135.039062 Z M61.7578125,75.9765625 C61.7578125,74.3359293 62.4999926,72.9296934 63.984375,71.7578125 C66.4062621,68.867173 70.0781004,64.5312789 75,58.75 C76.0156301,57.6562445 77.0312449,57.109375 78.046875,57.109375 C79.2187559,57.109375 80.2734328,57.460934 81.2109375,58.1640625 C82.0703168,58.7890656 82.5,59.648432 82.5,60.7421875 L82.5,141.367188 C82.5,142.539068 82.0312547,143.437497 81.09375,144.0625 C80.0781199,144.687503 78.8671945,145 77.4609375,145 C76.1328059,145 74.9609426,144.687503 73.9453125,144.0625 C72.9296824,143.437497 72.421875,142.539068 72.421875,141.367188 L72.421875,72.2265625 C71.7187465,73.3984434 70.2343863,75.6249836 67.96875,78.90625 C67.1874961,79.7656293 66.3671918,80.1953125 65.5078125,80.1953125 C64.4921824,80.1953125 63.5937539,79.7656293 62.8125,78.90625 C62.1093715,78.1249961 61.7578125,77.1484434 61.7578125,75.9765625 Z M94.6328125,125.3125 C94.6328125,123.515616 94.9453094,122.265629 95.5703125,121.5625 C96.273441,120.937497 97.5234285,120.625 99.3203125,120.625 C101.195322,120.625 102.523434,120.937497 103.304688,121.5625 C104.085941,122.265629 104.476562,123.281243 104.476562,124.609375 C104.476562,127.656265 105.765612,130.429675 108.34375,132.929688 C110.921888,135.351575 114.867161,136.5625 120.179688,136.5625 C130.882866,136.5625 136.234375,131.054743 136.234375,120.039062 L136.234375,117.8125 C136.234375,108.046826 130.882866,103.164062 120.179688,103.164062 C117.835926,103.164062 116.664062,101.757827 116.664062,98.9453125 C116.664062,96.1327984 117.835926,94.7265625 120.179688,94.7265625 C124.789086,94.7265625 128.265613,93.6718855 130.609375,91.5625 C132.953137,89.5312398 134.125,85.7812773 134.125,80.3125 C134.125,70.9374531 129.632857,66.25 120.648438,66.25 C115.492162,66.25 111.859386,67.3828012 109.75,69.6484375 C107.640614,71.9921992 106.585938,74.7265469 106.585938,77.8515625 C106.585938,80.742202 104.984391,82.1875 101.78125,82.1875 C99.5937391,82.1875 98.1875031,81.835941 97.5625,81.1328125 C96.8593715,80.429684 96.5078125,79.0625102 96.5078125,77.03125 C96.5078125,75.0781152 96.8984336,73.0468855 97.6796875,70.9375 C98.382816,68.8281145 99.5937414,66.7187605 101.3125,64.609375 C102.953133,62.4218641 105.49217,60.6640691 108.929688,59.3359375 C112.367205,57.9296805 116.35154,57.2265625 120.882812,57.2265625 C136.117264,57.2265625 143.734375,64.3358664 143.734375,78.5546875 C143.734375,83.5547125 142.875009,87.8124824 141.15625,91.328125 C139.359366,94.8437676 137.015639,97.3046805 134.125,98.7109375 C142.250041,101.992204 146.3125,108.359328 146.3125,117.8125 L146.3125,120.039062 C146.3125,128.867232 143.929711,135.351542 139.164062,139.492188 C134.320288,143.632833 127.992227,145.703125 120.179688,145.703125 C111.898396,145.703125 105.570334,143.593771 101.195312,139.375 C96.8202906,135.234354 94.6328125,130.546901 94.6328125,125.3125 Z M156.570312,139.492188 C156.570312,137.695304 157.156244,136.171881 158.328125,134.921875 C159.578131,133.749994 161.062491,133.164062 162.78125,133.164062 C164.500009,133.164062 165.945307,133.749994 167.117188,134.921875 C168.289068,136.171881 168.875,137.695304 168.875,139.492188 C168.875,141.132821 168.289068,142.578119 167.117188,143.828125 C165.945307,145.078131 164.500009,145.703125 162.78125,145.703125 C161.062491,145.703125 159.578131,145.078131 158.328125,143.828125 C157.156244,142.578119 156.570312,141.132821 156.570312,139.492188 Z M174.796875,120.859375 C174.796875,119.999996 174.992186,119.257816 175.382813,118.632812 C182.023471,105.585872 191.906184,86.0938797 205.03125,60.15625 C206.04688,58.2031152 207.570302,57.2265625 209.601563,57.2265625 C210.695318,57.2265625 211.789057,57.6171836 212.882813,58.3984375 C213.976568,59.1796914 214.523438,60.117182 214.523438,61.2109375 C214.523438,61.7578152 214.367189,62.3437469 214.054688,62.96875 C208.195283,74.5313078 199.445371,91.9530086 187.804688,115.234375 L208.546875,115.234375 L208.546875,95.078125 C208.546875,93.9843695 209.054682,93.1250031 210.070313,92.5 C211.007817,91.8749969 212.17968,91.5625 213.585938,91.5625 C214.914069,91.5625 216.085932,91.8749969 217.101563,92.5 C218.117193,93.1250031 218.625,93.9843695 218.625,95.078125 L218.625,115.234375 L224.953125,115.234375 C226.04688,115.234375 226.945309,115.70312 227.648438,116.640625 C228.273441,117.656255 228.585938,118.789056 228.585938,120.039062 C228.585938,121.210943 228.234379,122.304682 227.53125,123.320312 C226.749996,124.335943 225.89063,124.84375 224.953125,124.84375 L218.625,124.84375 L218.625,141.367188 C218.625,142.539068 218.117193,143.437497 217.101563,144.0625 C216.085932,144.687503 214.914069,145 213.585938,145 C212.17968,145 211.007817,144.687503 210.070313,144.0625 C209.054682,143.437497 208.546875,142.539068 208.546875,141.367188 L208.546875,124.84375 L178.546875,124.84375 C177.45312,124.84375 176.554691,124.492191 175.851563,123.789062 C175.148434,123.085934 174.796875,122.109381 174.796875,120.859375 Z M236.96875,119.570312 L236.96875,83.4765625 C236.96875,74.4140172 239.312477,67.7734586 244,63.5546875 C248.687523,59.3359164 254.937461,57.2265625 262.75,57.2265625 C270.640664,57.2265625 276.929664,59.3359164 281.617188,63.5546875 C286.382836,67.7734586 288.765625,74.4140172 288.765625,83.4765625 L288.765625,119.570312 C288.765625,128.632858 286.382836,135.234354 281.617188,139.375 C276.929664,143.593771 270.640664,145.703125 262.75,145.703125 C254.937461,145.703125 248.687523,143.593771 244,139.375 C239.312477,135.234354 236.96875,128.632858 236.96875,119.570312 Z M247.046875,119.570312 C247.046875,130.898494 252.281198,136.5625 262.75,136.5625 C267.82815,136.5625 271.734361,135.156264 274.46875,132.34375 C277.281264,129.531236 278.6875,125.273466 278.6875,119.570312 L278.6875,83.4765625 C278.6875,77.773409 277.281264,73.5156391 274.46875,70.703125 C271.734361,67.8124855 267.82815,66.3671875 262.75,66.3671875 C252.281198,66.3671875 247.046875,72.0702555 247.046875,83.4765625 L247.046875,119.570312 Z"/>
    <path fill="#BBB" d="M5.014,14 L5.014,4.614 L8.121,4.614 C10.604,4.614 12.32,5.992 12.333,9.307 C12.32,12.622 10.604,14 8.121,14 L5.014,14 Z M6.808,6.122 L6.808,12.492 L8.004,12.492 C10.058,12.492 10.539,10.984 10.539,9.307 C10.539,7.63 10.058,6.122 8.004,6.122 L6.808,6.122 Z M21.145,9.307 C21.145,7.11 20.469,5.992 19,5.992 C17.531,5.992 16.855,7.11 16.855,9.307 C16.829,11.504 17.518,12.622 19,12.622 C20.469,12.622 21.145,11.504 21.145,9.307 Z M22.939,9.307 C22.939,12.375 21.561,14.13 19,14.13 C16.439,14.13 15.061,12.375 15.061,9.307 C15.061,6.239 16.439,4.484 19,4.484 C21.561,4.484 22.939,6.239 22.939,9.307 Z M32.427,6.603 L30.789,7.11 C30.516,6.382 29.957,5.888 29.112,5.888 C28.332,5.888 27.773,6.2 27.773,6.928 C27.773,8.54 32.609,8.202 32.609,11.244 C32.609,13.168 31.4,14.13 29.32,14.13 C27.786,14.13 26.343,13.272 25.81,11.907 L27.292,11.257 C27.721,12.141 28.28,12.726 29.333,12.726 C30.23,12.726 30.919,12.388 30.919,11.478 C30.919,9.632 26.083,9.996 26.083,7.11 C26.083,5.433 27.487,4.484 29.112,4.484 C30.62,4.484 31.868,5.238 32.427,6.603 Z M38.34,14 L36.546,14 L36.546,4.614 L38.34,4.614 L38.34,14 Z M48.699,6.603 L47.061,7.11 C46.788,6.382 46.229,5.888 45.384,5.888 C44.604,5.888 44.045,6.2 44.045,6.928 C44.045,8.54 48.881,8.202 48.881,11.244 C48.881,13.168 47.672,14.13 45.592,14.13 C44.058,14.13 42.615,13.272 42.082,11.907 L43.564,11.257 C43.993,12.141 44.552,12.726 45.605,12.726 C46.502,12.726 47.191,12.388 47.191,11.478 C47.191,9.632 42.355,9.996 42.355,7.11 C42.355,5.433 43.759,4.484 45.384,4.484 C46.892,4.484 48.14,5.238 48.699,6.603 Z M60.135,14 L58.575,14 L58.575,4.614 L61.097,4.614 L62.904,11.166 L62.93,11.166 L64.75,4.614 L67.298,4.614 L67.298,14 L65.738,14 L65.738,6.616 L65.712,6.616 L63.606,14 L62.241,14 L60.161,6.616 L60.135,6.616 L60.135,14 Z M76.825,9.307 C76.825,7.11 76.149,5.992 74.68,5.992 C73.211,5.992 72.535,7.11 72.535,9.307 C72.509,11.504 73.198,12.622 74.68,12.622 C76.149,12.622 76.825,11.504 76.825,9.307 Z M78.619,9.307 C78.619,12.375 77.241,14.13 74.68,14.13 C72.119,14.13 70.741,12.375 70.741,9.307 C70.741,6.239 72.119,4.484 74.68,4.484 C77.241,4.484 78.619,6.239 78.619,9.307 Z M82.036,14 L82.036,4.614 L85.143,4.614 C87.626,4.614 89.342,5.992 89.355,9.307 C89.342,12.622 87.626,14 85.143,14 L82.036,14 Z M83.83,6.122 L83.83,12.492 L85.026,12.492 C87.08,12.492 87.561,10.984 87.561,9.307 C87.561,7.63 87.08,6.122 85.026,6.122 L83.83,6.122 Z M94.748,14 L92.954,14 L92.954,4.614 L94.748,4.614 L94.748,14 Z M100.83,14 L99.036,14 L99.036,4.614 L105.016,4.614 L105.016,6.122 L100.83,6.122 L100.83,8.358 L103.963,8.358 L103.963,9.866 L100.83,9.866 L100.83,14 Z M110.305,14 L108.511,14 L108.511,4.614 L110.305,4.614 L110.305,14 Z M121.028,14 L114.671,14 L114.671,4.614 L120.885,4.614 L120.885,6.122 L116.465,6.122 L116.465,8.358 L119.676,8.358 L119.676,9.866 L116.465,9.866 L116.465,12.492 L121.028,12.492 L121.028,14 Z M124.536,14 L124.536,4.614 L127.643,4.614 C130.126,4.614 131.842,5.992 131.855,9.307 C131.842,12.622 130.126,14 127.643,14 L124.536,14 Z M126.33,6.122 L126.33,12.492 L127.526,12.492 C129.58,12.492 130.061,10.984 130.061,9.307 C130.061,7.63 129.58,6.122 127.526,6.122 L126.33,6.122 Z"/>
    <path stroke="#666" stroke-dasharray="8 8 8 8" stroke-linecap="square" stroke-width="2" d="M296,0 L296,443"/>
  </g>
</svg>
