<svg id="Layer_1" xmlns="http://www.w3.org/2000/svg" viewBox="0 0 1440 440" enable-background="new 0 0 1440 440"><style>.st1{fill:#fff}.st3{fill:#15a6d5}</style><defs><filter id="Adobe_OpacityMaskFilter" filterUnits="userSpaceOnUse" x="929" y="84" width="97" height="97"><feColorMatrix values="1 0 0 0 0 0 1 0 0 0 0 0 1 0 0 0 0 0 1 0"/></filter></defs><mask maskUnits="userSpaceOnUse" x="929" y="84" width="97" height="97" id="editor-b"><g filter="url(#Adobe_OpacityMaskFilter)"><path id="editor-a" class="st1" d="M0 0h1440v440H0z"/></g></mask><g mask="url(#editor-b)"><path class="st1" d="M4 0h89c2.2 0 4 1.8 4 4v89c0 2.2-1.8 4-4 4H4c-2.2 0-4-1.8-4-4V4c0-2.2 1.8-4 4-4z" transform="translate(929 84)"/><path class="st3" d="M38.3 0H23.2c-.9 0-1.7.7-1.7 1.7v36.7c0 .9.7 1.7 1.7 1.7h15.1c.9 0 1.7-.7 1.7-1.7V1.7c0-1-.7-1.7-1.7-1.7zm-1.6 36.7H24.9v-3h4.7c.9 0 1.7-.7 1.7-1.7s-.7-1.7-1.7-1.7h-4.7v-3h4.7c.9 0 1.7-.7 1.7-1.7 0-.9-.7-1.7-1.7-1.7h-4.7v-3h4.7c.9 0 1.7-.7 1.7-1.7 0-.9-.7-1.7-1.7-1.7h-4.7v-3h4.7c.9 0 1.7-.7 1.7-1.7 0-.9-.7-1.7-1.7-1.7h-4.7v-3h4.7c.9 0 1.7-.7 1.7-1.7 0-.9-.7-1.7-1.7-1.7h-4.7V3.3h11.8v33.4zM12.3 9.1L7.7.9C7.1-.2 5.4-.2 4.8.9L.2 9.1c-.1.3-.2.5-.2.8v24.8C0 37.6 2.8 40 6.2 40s6.2-2.4 6.2-5.3V9.9c.1-.3 0-.5-.1-.8zm-6.1-4l2.3 4.1H4l2.2-4.1zm3 29.6c0 1.1-1.3 2-2.9 2s-2.9-.9-2.9-2v-3h5.8v3zm0-6.4H3.3V12.5h5.8v15.8z" transform="translate(958 113)"/></g></svg>