<svg id="Layer_1" xmlns="http://www.w3.org/2000/svg" viewBox="0 0 1440 440" enable-background="new 0 0 1440 440"><style>.st1{fill:#fff}</style><defs><filter id="Adobe_OpacityMaskFilter" filterUnits="userSpaceOnUse" x="665" y="210" width="97" height="97"><feColorMatrix values="1 0 0 0 0 0 1 0 0 0 0 0 1 0 0 0 0 0 1 0"/></filter></defs><mask maskUnits="userSpaceOnUse" x="665" y="210" width="97" height="97" id="piggy-b"><g filter="url(#Adobe_OpacityMaskFilter)"><path id="piggy-a" class="st1" d="M0 0h1440v440H0z"/></g></mask><g mask="url(#piggy-b)"><path class="st1" d="M4 0h89c2.2 0 4 1.8 4 4v89c0 2.2-1.8 4-4 4H4c-2.2 0-4-1.8-4-4V4c0-2.2 1.8-4 4-4z" transform="translate(665 210)"/><g transform="translate(694 239)"><path id="piggy-c" d="M19.9 31.8c-5.6 0-10.6-3.2-12.6-8.1-.2-.6-.8-1-1.4-1H3.1v-3.9h1.8c.8 0 1.4-.6 1.5-1.4.5-3.5 2.5-6.7 5.5-8.8.5-.3.8-1 .7-1.6-.2-1.3-.6-2.5-1.3-3.6 1.4.1 2.6 1 3.3 2.4.3.7 1 1 1.7.8 1.2-.3 2.4-.5 3.6-.5 7.5 0 13.6 5.8 13.6 12.9 0 7.1-6.1 12.8-13.6 12.8m20-16.5c0-.9-.7-1.7-1.5-1.7s-1.5.7-1.5 1.7c0 .5-.2.9-.4 1.3-1.3-7.8-8.3-13.9-16.6-13.9-1.1 0-2.1.1-3.2.3-1.3-1.9-3.4-3-5.6-3-1.3 0-2.5.4-3.6 1.1a1.75 1.75 0 0 0 0 2.8c.8.6 1.5 1.5 1.8 2.5-2.9 2.3-4.9 5.5-5.7 9.1h-2c-.8 0-1.5.7-1.5 1.7v7.3c0 .9.7 1.7 1.5 1.7H5c1.5 2.9 3.8 5.3 6.6 6.9v5.1c0 .9.7 1.7 1.5 1.7s1.5-.7 1.5-1.7v-3.8c1.7.6 3.5.9 5.3.9 2.2 0 4.4-.4 6.4-1.2v4.1c0 .9.7 1.7 1.5 1.7s1.5-.7 1.5-1.7v-5.7c4-2.7 6.7-7 7.2-12 1.9-.8 3.4-2.8 3.4-5.2M17.8 9.1c-.9.1-1.6.9-1.6 1.8.1.9.8 1.6 1.8 1.5 2.8-.2 5.5.6 7.8 2.4.3.2.7.3 1 .3.5 0 1-.2 1.3-.7.6-.7.4-1.8-.3-2.3-2.8-2.1-6.4-3.2-10-3m-5.5 5.1c-1.4 0-2.5 1.1-2.5 2.5s1.1 2.5 2.5 2.5 2.5-1.1 2.5-2.5-1.1-2.5-2.5-2.5" fill="#15a6d5"/></g></g></svg>