<svg id="Layer_1" xmlns="http://www.w3.org/2000/svg" viewBox="0 0 1440 440" enable-background="new 0 0 1440 440"><style>.st1{fill:#fff}</style><defs><filter id="Adobe_OpacityMaskFilter" filterUnits="userSpaceOnUse" x="333" y="296" width="97" height="97"><feColorMatrix values="1 0 0 0 0 0 1 0 0 0 0 0 1 0 0 0 0 0 1 0"/></filter></defs><mask maskUnits="userSpaceOnUse" x="333" y="296" width="97" height="97" id="ticket-b"><g filter="url(#Adobe_OpacityMaskFilter)"><path id="ticket-a" class="st1" d="M0 0h1440v440H0z"/></g></mask><g mask="url(#ticket-b)"><path class="st1" d="M4 0h89c2.2 0 4 1.8 4 4v89c0 2.2-1.8 4-4 4H4c-2.2 0-4-1.8-4-4V4c0-2.2 1.8-4 4-4z" transform="translate(333 296)"/><g transform="translate(362 325)"><path id="ticket-c" d="M36.6 35l-1.9-1.5c-.6-.5-1.4-.5-2 0l-3.6 2.7-3.6-2.7c-.6-.5-1.4-.5-2 0L20 36.2l-3.6-2.7c-.3-.2-.7-.3-1-.3-.4 0-.7.1-1 .3l-3.6 2.7-3.6-2.7c-.6-.5-1.4-.5-2 0L3.3 35V3.3h33.3V35zm1.7-35H1.7C.7 0 0 .7 0 1.7v36.7c0 .6.4 1.2.9 1.5.6.3 1.2.2 1.8-.2L6.3 37l3.6 2.7c.6.5 1.4.5 2 0l3.6-2.7 3.6 2.7c.6.5 1.4.5 2 0l3.6-2.7 3.6 2.7c.6.5 1.4.5 2 0l3.6-2.7 3.6 2.7c.3.2.7.3 1 .3.3 0 .5-.1.7-.2.6-.3.9-.9.9-1.5V1.7C40 .7 39.2 0 38.3 0zM9.1 11h9.1c.9 0 1.7-.7 1.7-1.7 0-.9-.7-1.7-1.7-1.7H9.1c-.9 0-1.7.7-1.7 1.7.1.9.8 1.7 1.7 1.7m0 9H15c.9 0 1.7-.7 1.7-1.7 0-.9-.7-1.7-1.7-1.7H9.1c-.9 0-1.7.7-1.7 1.7.1 1 .8 1.7 1.7 1.7m0 9.3h2.5c.9 0 1.7-.7 1.7-1.7s-.8-1.6-1.7-1.6H9.1c-.9 0-1.7.7-1.7 1.7s.8 1.6 1.7 1.6M25 26.4v1.1c0 .9.7 1.7 1.7 1.7s1.7-.7 1.7-1.7v-1.1c-.5.2-1.1.3-1.7.3-.6 0-1.2-.1-1.7-.3m3.3-14.5v-1.1c0-.9-.7-1.7-1.7-1.7s-1.6.8-1.6 1.7v1.1c.5-.2 1.1-.3 1.7-.3.5.1 1.1.2 1.6.3m-1.7 8.9c.9 0 1.7.6 1.7 1.2s-.8 1.2-1.7 1.2c-.9 0-1.5-.5-1.7-1-.2-.9-1.1-1.4-2-1.2-.9.2-1.5 1.1-1.2 2 .4 1.6 1.6 2.8 3.2 3.3.5.2 1.1.3 1.7.3.6 0 1.1-.1 1.7-.3 1.9-.6 3.4-2.3 3.4-4.3 0-2.5-2.3-4.6-5-4.6-.9 0-1.7-.6-1.7-1.2 0-.7.8-1.3 1.7-1.3.8 0 1.4.4 1.6.8.4.8 1.4 1.2 2.2.8.8-.4 1.2-1.4.8-2.2-.6-1.2-1.6-2-2.9-2.5-.5-.2-1.1-.3-1.7-.3-.6 0-1.1.1-1.7.3-1.9.6-3.4 2.3-3.4 4.3 0 2.7 2.3 4.7 5 4.7" fill="#fd9724"/></g></g></svg>