<svg id="Layer_1" xmlns="http://www.w3.org/2000/svg" viewBox="0 0 1440 440" enable-background="new 0 0 1440 440"><style>.st1{fill:#fff}</style><defs><filter id="Adobe_OpacityMaskFilter" filterUnits="userSpaceOnUse" x="-16" y="181" width="172" height="172"><feColorMatrix values="1 0 0 0 0 0 1 0 0 0 0 0 1 0 0 0 0 0 1 0"/></filter></defs><mask maskUnits="userSpaceOnUse" x="-16" y="181" width="172" height="172" id="plug-b"><g filter="url(#Adobe_OpacityMaskFilter)"><path id="plug-a" class="st1" d="M0 0h1440v440H0z"/></g></mask><g mask="url(#plug-b)"><path class="st1" d="M4 0h164c2.2 0 4 1.8 4 4v164c0 2.2-1.8 4-4 4H4c-2.2 0-4-1.8-4-4V4c0-2.2 1.8-4 4-4z" transform="translate(-16 181)"/><g transform="translate(35.423 232.423)"><path id="plug-c" d="M49.5 38c-5.2 5-14.2 4.6-20-1-2.9-2.8-4.6-6.6-4.6-10.4 0-3.3 1.3-6.3 3.5-8.5l9.6-9 20.8 20-9.3 8.9zm-25.1 6.1l-2-1.9 2.1-2c.3.4.7.7 1 1.1.3.3.6.6 1 .8l-2.1 2zM67.3 13c-1.1-1.2-3-1.2-4.2-.1L56.8 19l-8.3-8 6.1-5.9c1.2-1.1 1.2-3 .1-4.2-1.1-1.2-3-1.2-4.2-.1l-6.3 6.1L40 2.8c-.1-.1-.3-.2-.4-.3-.2-.1-.3-.3-.5-.3-.2-.1-.4-.1-.5-.1-.2 0-.4-.1-.6-.1-.2 0-.4.1-.6.1-.2 0-.4 0-.5.1-.2.1-.3.2-.5.3-.1.1-.3.1-.4.3L24.4 13.9c-3.5 3.3-5.4 7.9-5.4 12.8 0 2.9.7 5.9 2 8.5L16 40c-.6.6-.9 1.3-.9 2.1s.3 1.6.9 2.1l.9.9-11.3 11C3.9 57.7 3 59.9 3 62.3c0 2.3.9 4.5 2.6 6.2 3.4 3.3 9 3.3 12.5 0l9.4-9c.6-.6 1.6-.6 2.2 0 .3.2.3.5.3.7 0 .2-.1.6-.4.9l-5 4.8c-1.2 1.1-1.2 3-.1 4.2.6.6 1.4.9 2.1.9.7 0 1.5-.3 2-.8l5-4.8c1.4-1.4 2.2-3.2 2.2-5.1 0-2-.8-3.8-2.2-5.1-2.9-2.7-7.5-2.8-10.4 0l-9.4 9c-1.2 1.1-3.1 1.1-4.3 0-.5-.5-.8-1.2-.8-1.9s.3-1.4.8-1.9L21 49.3l1.1 1c.6.6 1.3.8 2 .8s1.5-.3 2-.8l5.1-4.9c2.9 1.3 5.9 2 8.9 2 4.8 0 9.6-1.7 13.1-5.1l11.5-11.1v-.1c.1-.1.2-.3.3-.4.1-.2.2-.3.3-.5.1-.2.1-.4.1-.6 0-.2.1-.4.1-.6 0-.2-.1-.4-.1-.6 0-.2 0-.4-.1-.6-.1-.2-.2-.3-.3-.5-.1-.1-.2-.3-.3-.4h-.1L60.5 23l6.1-5.9c1.8-1.1 1.8-3 .7-4.1zM51.5 27.7L39.4 16.1c-1.2-1.1-3.1-1.1-4.2.1-1.1 1.2-1.1 3.1.1 4.2L47.4 32c.6.6 1.3.8 2.1.8s1.6-.3 2.1-.9c1.1-1.2 1.1-3.1-.1-4.2" fill="#15a6d5"/></g></g></svg>