<svg data-name="Layer 1" xmlns="http://www.w3.org/2000/svg" viewBox="0 0 1440 440"><defs><mask id="a" x="0" y="0" width="1440" height="468" maskUnits="userSpaceOnUse"><path fill="#fff" d="M0 0h1440v440H0z"/></mask></defs><g mask="url(#a)"><rect x="993" y="296" width="172" height="172" rx="4" ry="4" fill="#fff"/><path d="M1109.84 402.14a1.44 1.44 0 0 1-1.44 1.44h-57a1.44 1.44 0 0 1-1.44-1.44V386.3a6.52 6.52 0 0 1 6.51-6.51h46.84a6.51 6.51 0 0 1 6.5 6.5zm-11.83 7h2.63a1.36 1.36 0 0 1-2.63 0zm-39 0h2.63a1.36 1.36 0 0 1-2.63 0zm-5.56-45a1.38 1.38 0 0 1 1.36-.85l-1 2.38a1.55 1.55 0 0 1-.36-.46 1.39 1.39 0 0 1 .04-1.09zm10.19-7.57a1 1 0 0 1 .9-.6h30.67a1 1 0 0 1 .9.6l7.34 17.62h-47.16zm42.3 9.11l-1-2.4a1.37 1.37 0 0 1 1 2.4zm4.26 10.22l-2.1-5a6.93 6.93 0 0 0-5.32-12.76l-1.53-3.67a6.53 6.53 0 0 0-6-4h-30.67a6.53 6.53 0 0 0-6 4l-1.53 3.67a6.93 6.93 0 0 0-5.32 12.77l-2.1 5a2.86 2.86 0 0 0-.18.69 12 12 0 0 0-5 9.73v15.84a7 7 0 0 0 7 7h2a6.93 6.93 0 0 0 13.84 0h25.13a6.93 6.93 0 0 0 13.84 0h2.15a7 7 0 0 0 7-7v-15.88a12 12 0 0 0-5-9.73 2.81 2.81 0 0 0-.17-.68zm-55.45 14.79a5.57 5.57 0 1 0 5.57-5.57 5.57 5.57 0 0 0-5.53 5.55zm39 0a5.57 5.57 0 1 0 5.57-5.57 5.57 5.57 0 0 0-5.56 5.55zm-19.44 1.31a2.78 2.78 0 1 0 0 5.57h11.22a2.78 2.78 0 1 0 0-5.57z" fill="#5aae46"/></g></svg>