<svg id="Layer_1" xmlns="http://www.w3.org/2000/svg" viewBox="0 0 1440 440" enable-background="new 0 0 1440 440"><style>.st1{fill:#fff}</style><defs><filter id="Adobe_OpacityMaskFilter" filterUnits="userSpaceOnUse" x="535" y="50" width="172" height="172"><feColorMatrix values="1 0 0 0 0 0 1 0 0 0 0 0 1 0 0 0 0 0 1 0"/></filter></defs><mask maskUnits="userSpaceOnUse" x="535" y="50" width="172" height="172" id="hat-b"><g filter="url(#Adobe_OpacityMaskFilter)"><path id="hat-a" class="st1" d="M0 0h1440v440H0z"/></g></mask><g mask="url(#hat-b)"><path class="st1" d="M4 0h164c2.2 0 4 1.8 4 4v164c0 2.2-1.8 4-4 4H4c-2.2 0-4-1.8-4-4V4c0-2.2 1.8-4 4-4z" transform="translate(535 50)"/><g transform="translate(586.423 101.423)"><path id="hat-c" d="M35.5 62H18.4c-.4 0-.8-.3-.9-.8L15.1 45H56l-2.5 16.2c-.1.4-.4.8-.9.8H35.5zM9.9 9.4c.1-.1.3-.3.7-.3h10.7v30.3h-7.1L9.7 10.1c-.1-.3.1-.6.2-.7zm25.6-.3H44v30.3H27V9.1h8.5zm25.6.3c.1.1.3.4.2.8l-4.5 29.1h-7.1V9.1h10.6c.5 0 .7.2.8.3zM68.2 62h-9.1L67 11.1c.3-1.9-.3-3.9-1.5-5.4s-3.1-2.3-5.1-2.3H10.5c-1.9 0-3.7.8-5 2.3C4.3 7.2 3.8 9.1 4.1 11L12 62H2.8C1.3 62 0 63.3 0 64.9c0 1.6 1.3 2.8 2.8 2.8h65.4c1.6 0 2.8-1.3 2.8-2.8.1-1.6-1.2-2.9-2.8-2.9zM29.3 51.5l-1.4-2.9c-.1-.2-.5-.2-.6 0l-1.4 2.9-3.2.5c-.1 0-.2.1-.3.2 0 .1 0 .3.1.4l2.3 2.2-.6 3.2c0 .1 0 .3.1.3.1.1.3.1.4 0l2.8-1.5 2.8 1.5h.2c.1 0 .1 0 .2-.1s.2-.2.1-.3l-.5-3.1 2.3-2.2c.1-.1.1-.2.1-.4 0-.1-.2-.2-.3-.2l-3.1-.5zm15.9 0l-1.4-2.9c-.1-.2-.5-.2-.6 0l-1.4 2.9-3.2.5c-.1 0-.2.1-.3.2 0 .1 0 .3.1.4l2.3 2.2-.5 3.2c0 .1 0 .3.1.3.1.1.3.1.4 0l2.8-1.5 2.8 1.5h.2c.1 0 .1 0 .2-.1s.2-.2.1-.3l-.5-3.1 2.3-2.2c.1-.1.1-.2.1-.4 0-.1-.2-.2-.3-.2l-3.2-.5z" fill="#fd9724"/></g></g></svg>