<svg xmlns="http://www.w3.org/2000/svg" width="688.137" height="223.755" viewBox="0 0 688.137 223.755"><path fill="#2F3E5A" d="M102.384 81.361h155.874v134.972H102.384z"/><g fill="#FAFBFB"><path d="M126.406 105.595h25.415v25.415h-25.415zM167.898 105.595h25.415v25.415h-25.415zM209.392 105.595h25.415v25.415h-25.415z"/></g><path fill="#FFF" d="M125.835 153.458h67.782v65.414h-67.782z"/><path fill="#2F3E5A" d="M135.608 164.501h48.234v7.242h-48.234zM135.608 181.846h48.234v7.243h-48.234zM135.608 199.19h48.234v7.243h-48.234z"/><g><path fill="#2B384F" d="M268.126 66.296l-28.55-27.915H121.509L92.958 66.296l.174.033h-.174v19.066h175.168V66.329h-.161z"/><path fill="#2F3E5A" d="M92.958 66.329h175.169v19.065H92.958z"/></g><path opacity=".2" fill="#2B384F" d="M102.384 85.422l155.873 85.556V85.422z"/><g><g fill="#2B384F"><path d="M416.27 0h30.409v53.423H416.27zM465.422 0h30.409v53.423h-30.409zM546.154 53.423h-30.409V23.342l30.409 5.835zM595.307 53.423h-30.41V23.342l30.41 5.835z"/></g><path fill="#2F3E5A" d="M390.477 70.129h228.799v145.316H390.477z"/><g fill="#FAFBFB"><path d="M416.27 99.124h30.409v30.409H416.27zM465.916 99.124h30.409v30.409h-30.409zM515.563 99.124h30.409v30.409h-30.409z"/></g><g fill="#FAFBFB"><path d="M416.27 154.403h30.409v30.408H416.27zM465.916 154.403h30.409v30.408h-30.409zM515.563 154.403h30.409v30.408h-30.409z"/></g><path fill="#FAFBFB" d="M565.208 99.124h30.409v30.409h-30.409zM565.208 154.403h30.409v30.408h-30.409z"/><path fill="#2F3E5A" d="M380.099 52.144h252.876v22.811H380.099z"/><path opacity=".2" fill="#2B384F" d="M416.27 74.988L619.276 177.18V74.988z"/></g><path fill="none" stroke="#D0D8DC" stroke-width="8.782" stroke-miterlimit="10" d="M0 219.363h688.137"/><g><path fill="#56ACE0" d="M348.393 125.081h-27.479v7.852h27.479v11.777l15.703-15.702-15.703-15.703v11.776zm-54.959 27.481l15.703 15.703v-11.777h27.48v-7.852h-27.48V136.86l-15.703 15.702z"/></g></svg>