<svg xmlns="http://www.w3.org/2000/svg" width="975" height="701" viewBox="0 0 975 701"><g opacity=".15"><path fill="#78909C" d="M550.623 247.801a4.998 4.998 0 0 1-4.497-2.808L450.959 49.975c-2.386-4.981-5.195-13.083-6.41-18.476l-6.814-30.366c-1.026-4.584-3.616-12.057-5.655-16.319l-44.124-92.167a5 5 0 1 1 9.02-4.318L441.1-19.503c2.385 4.984 5.193 13.088 6.394 18.449l6.812 30.36c1.039 4.611 3.629 12.085 5.656 16.316l95.15 194.985a5 5 0 0 1-4.489 7.194z"/><path fill="#78909C" d="M570.66 238.206a4.998 4.998 0 0 1-4.497-2.808L471.001 40.381c-2.054-4.289-6.252-10.991-9.183-14.668L436.676-5.88a5.001 5.001 0 0 1 7.825-6.227l25.139 31.59c3.427 4.3 7.98 11.569 10.364 16.545l95.145 194.983a5 5 0 0 1-4.489 7.195zM914.272 983.797a4.998 4.998 0 0 1-4.496-2.807L732.182 617.52c-2.4-5.014-5.209-13.116-6.411-18.484l-6.811-30.361c-1.04-4.608-3.631-12.084-5.657-16.317l-95.15-194.983a5.001 5.001 0 0 1 8.989-4.386l95.166 195.017c2.385 4.984 5.193 13.085 6.41 18.476l6.812 30.367c1.028 4.59 3.618 12.062 5.655 16.318L918.76 976.601a4.998 4.998 0 0 1-4.488 7.196z"/><path fill="#78909C" d="M732.681 611.974a4.988 4.988 0 0 1-3.915-1.886l-25.143-31.59c-3.432-4.311-7.983-11.579-10.362-16.546l-95.146-194.984a5 5 0 0 1 8.988-4.386L702.264 557.6c2.05 4.28 6.248 10.983 9.184 14.67l25.143 31.59a5.001 5.001 0 0 1-3.91 8.114z"/><path fill="#78909C" d="M583.862 368.94c-39.107 0-70.924-31.815-70.924-70.921 0-39.107 31.816-70.922 70.924-70.922s70.923 31.815 70.923 70.922c0 39.106-31.816 70.921-70.923 70.921zm0-128.844c-31.939 0-57.924 25.984-57.924 57.922 0 31.938 25.984 57.921 57.924 57.921 31.938 0 57.923-25.983 57.923-57.921s-25.985-57.922-57.923-57.922z"/><path fill="#78909C" d="M524.846 277.676a5.48 5.48 0 0 1-2.242-.481L43.21 62.772a5.5 5.5 0 1 1 4.491-10.041l479.393 214.423a5.499 5.499 0 0 1 2.775 7.266 5.498 5.498 0 0 1-5.023 3.256zM1105.964 536.838a5.486 5.486 0 0 1-2.243-.48L640.104 328.99a5.5 5.5 0 0 1 4.492-10.041l463.618 207.368a5.499 5.499 0 0 1 2.774 7.266 5.503 5.503 0 0 1-5.024 3.255zM619.363 249.768a5.499 5.499 0 0 1-4.384-8.816l261.818-346.554a5.5 5.5 0 0 1 8.777 6.631l-261.82 346.554a5.488 5.488 0 0 1-4.391 2.185zM113.359 953.154a5.5 5.5 0 0 1-4.446-8.734l433.612-596.833a5.5 5.5 0 0 1 8.9 6.466L117.813 950.887a5.495 5.495 0 0 1-4.454 2.267z"/><path fill="#78909C" d="M455.687 951.154a3.5 3.5 0 0 1-3.5-3.5V56.88a3.5 3.5 0 1 1 7 0v890.774a3.5 3.5 0 0 1-3.5 3.5zM583.862 951.154a3.5 3.5 0 0 1-3.5-3.5V362.44a3.5 3.5 0 1 1 7 0v585.214a3.5 3.5 0 0 1-3.5 3.5zM583.862 237.096a3.5 3.5 0 0 1-3.5-3.5v-342.992a3.5 3.5 0 1 1 7 0v342.992a3.5 3.5 0 0 1-3.5 3.5zM1338.484 301.519H648.285a3.5 3.5 0 1 1 0-7h690.199a3.5 3.5 0 1 1 0 7z"/><path fill="#78909C" d="M729.709 951.154a3.5 3.5 0 0 1-3.5-3.5V-102.287a3.5 3.5 0 1 1 7 0V947.654a3.5 3.5 0 0 1-3.5 3.5zM983.911 951.154a3.5 3.5 0 0 1-3.5-3.5V-102.287a3.5 3.5 0 1 1 7 0V947.654a3.5 3.5 0 0 1-3.5 3.5zM1307.757 951.154a3.5 3.5 0 0 1-3.5-3.5V-102.287a3.5 3.5 0 1 1 7 0V947.654a3.5 3.5 0 0 1-3.5 3.5zM1145.833 954.154a6.5 6.5 0 0 1-6.5-6.5V-102.287a6.5 6.5 0 1 1 13 0V947.654a6.5 6.5 0 0 1-6.5 6.5z"/><path fill="#78909C" d="M1048.334 552.242H4.037a3.5 3.5 0 1 1 0-7h1044.297a3.5 3.5 0 1 1 0 7zM330.169 301.519a3.502 3.502 0 0 1-3.5-3.5v-400.306a3.5 3.5 0 1 1 7 0v396.805h185.769a3.5 3.5 0 1 1 0 7H330.176l-.007.001zM149.923 258.5H64.408a3.5 3.5 0 1 1 0-7h82.016v-353.787a3.5 3.5 0 1 1 7 0V255a3.501 3.501 0 0 1-3.501 3.5zM782.672 712.961a3.5 3.5 0 0 1-1.435-6.693l323.298-145.05a3.501 3.501 0 0 1 2.865 6.387l-323.298 145.05a3.51 3.51 0 0 1-1.43.306z"/><path fill="#78909C" d="M392.466 443.949a3.5 3.5 0 0 1-3.5-3.5v-142.43a3.5 3.5 0 1 1 7 0V440.45a3.5 3.5 0 0 1-3.5 3.499z"/><path fill="#78909C" d="M330.169 951.154a3.5 3.5 0 0 1-3.5-3.5V440.443a3.501 3.501 0 0 1 3.586-3.499l.239.006 127.592-.001a3.5 3.5 0 1 1 0 7H333.669v503.705a3.5 3.5 0 0 1-3.5 3.5zM296.418 255.669H190.483a3.5 3.5 0 0 1-3.5-3.5v-105.44a3.5 3.5 0 1 1 7 0V248.67h102.436a3.5 3.5 0 1 1-.001 6.999z"/><path fill="#78909C" d="M149.923 951.154a3.5 3.5 0 0 1-3.5-3.5V485.881a3.5 3.5 0 0 1 3.5-3.5h180.246a3.5 3.5 0 1 1 0 7H153.423v458.273a3.5 3.5 0 0 1-3.5 3.5zM1338.484-5.494H76.796a3.5 3.5 0 1 1 0-7h1261.688a3.5 3.5 0 1 1 0 7zM983.915 514.131c-.16 0-.323-.012-.487-.035l-177.592-24.754a3.5 3.5 0 0 1 .967-6.933l177.592 24.756a3.5 3.5 0 0 1-.48 6.966zM845.5 684.774a3.498 3.498 0 0 1-3.117-1.903l-30.475-59.405a3.498 3.498 0 0 1-.386-1.598v-73.126a3.5 3.5 0 1 1 7 0v72.281l30.089 58.652a3.5 3.5 0 0 1-3.111 5.099zM729.709 632.334H583.862a3.5 3.5 0 1 1 0-7H729.71a3.5 3.5 0 0 1-.001 7zM583.862 480.154H458.085a3.5 3.5 0 1 1 0-7h125.776a3.5 3.5 0 1 1 .001 7zM1338.484 148.237H149.923a3.5 3.5 0 1 1 0-7h1188.561a3.5 3.5 0 1 1 0 7zM1338.484 65.601H583.862a3.5 3.5 0 1 1 0-7h754.622a3.5 3.5 0 1 1 0 7z"/><path fill="#78909C" d="M251.777 760.637H-96.261a3.5 3.5 0 1 1 0-7h347.057l77.554-47.166a3.494 3.494 0 0 1 1.819-.51h1008.315a3.5 3.5 0 1 1 0 7H331.15l-77.554 47.166a3.499 3.499 0 0 1-1.819.51zM583.862 815.148H458.085a3.5 3.5 0 1 1 0-7h125.776a3.5 3.5 0 1 1 .001 7zM732.678 841.265H585.397a3.5 3.5 0 1 1 0-7h147.281a3.5 3.5 0 1 1 0 7z"/><path fill="#78909C" d="M524.849 921.359a3.5 3.5 0 0 1-3.5-3.5V811.648a3.5 3.5 0 1 1 7 0v106.211a3.5 3.5 0 0 1-3.5 3.5z"/><path fill="#78909C" d="M1338.484 921.359H45.456a3.5 3.5 0 1 1 0-7h1293.028a3.5 3.5 0 1 1 0 7zM983.911 225.844H729.709a3.5 3.5 0 1 1 0-7H983.91a3.5 3.5 0 1 1 .001 7zM944.318 192.611H729.709a3.5 3.5 0 1 1 0-7h211.108v-40.874a3.5 3.5 0 1 1 7 0v44.374a3.5 3.5 0 0 1-3.499 3.5zM330.169 92.591h-58.37a3.5 3.5 0 0 1-3.5-3.5V43.158l-44.637-15.175a3.5 3.5 0 0 1 2.252-6.628l47.011 15.982a3.5 3.5 0 0 1 2.374 3.314v44.94h54.87a3.5 3.5 0 1 1 0 7z"/><path fill="#78909C" d="M149.922 107.977a3.5 3.5 0 0 1-2.621-5.818L247.31-10.94l43.96-92.844a3.5 3.5 0 0 1 6.327 2.995L253.423-7.496a3.506 3.506 0 0 1-.541.821l-100.337 113.47a3.491 3.491 0 0 1-2.623 1.182zM294.43 701.924a3.484 3.484 0 0 1-2.043-.661l-84.398-60.827h-58.064a3.5 3.5 0 1 1 0-7h59.194c.734 0 1.451.23 2.046.66l85.315 61.488a3.5 3.5 0 0 1-2.05 6.34z"/><path fill="#78909C" d="M209.114 640.436a3.501 3.501 0 0 1-3.004-5.291l13.059-21.928a3.502 3.502 0 0 1 3.007-1.709h42.64v-19.237a3.5 3.5 0 1 1 7 0v22.737a3.5 3.5 0 0 1-3.5 3.5h-44.151l-12.041 20.219a3.497 3.497 0 0 1-3.01 1.709z"/><path fill="#78909C" d="M251.775 671.181a3.5 3.5 0 0 1-2.684-5.745l24.336-29.113-8.34-19.965a3.5 3.5 0 1 1 6.459-2.698l9.16 21.927a3.5 3.5 0 0 1-.544 3.594l-25.7 30.746a3.494 3.494 0 0 1-2.687 1.254zM1145.833 815.148H832.598c-1.934 0-3.5-1.566-3.5-3.5s1.566-3.5 3.5-3.5h313.234c1.934 0 3.5 1.566 3.5 3.5s-1.566 3.5-3.499 3.5zM1084.895 525.413a3.5 3.5 0 0 1-3.5-3.5v-65.282l-34.09-21.95H983.91a3.5 3.5 0 1 1 0-7h64.424c.672 0 1.329.193 1.895.557l36.561 23.541a3.498 3.498 0 0 1 1.605 2.943v67.19a3.5 3.5 0 0 1-3.5 3.501z"/><g><path fill="#78909C" d="M1031.999 501.754a3.5 3.5 0 0 1-3.216-4.881l26.068-60.803a3.5 3.5 0 0 1 6.434 2.759l-26.068 60.803a3.502 3.502 0 0 1-3.218 2.122z"/></g><g><path fill="#78909C" d="M1307.757 400.766H983.911a3.5 3.5 0 1 1 0-7h323.847a3.5 3.5 0 1 1-.001 7z"/></g></g><path opacity=".6" fill="#78909C" d="M428.547 197.792c-7.228 0-46.619-.227-43.44 12.696 1.214 4.936 12.423 8.808 16.647 9.268l8.954 3.832 8.951-3.832c12.779-1.391 35.308-5.67 35.308-10.742 0-6.198-9.276-11.222-26.42-11.222z"/><path fill="#34B2FF" d="M408.924 95.681c-30.723 0-55.642 24.912-55.642 55.64 0 25.147 16.699 46.374 39.591 53.265l16.043 19 16.043-19c22.905-6.895 39.601-28.118 39.601-53.265.002-30.729-24.913-55.64-55.636-55.64z"/><g fill-rule="evenodd" clip-rule="evenodd" fill="#2E3D5A"><path d="M437.6 148.071l-17.178-.157.076-8.495 11.001.101 6.101 8.551zm-9.956 10.783a4.42 4.42 0 0 0-1.328 3.127 4.413 4.413 0 0 0 1.271 3.147 4.413 4.413 0 0 0 3.125 1.33 4.426 4.426 0 0 0 3.15-1.271 4.444 4.444 0 0 0 .059-6.277 4.43 4.43 0 0 0-3.128-1.327 4.446 4.446 0 0 0-3.149 1.271zm14.998 5.354l2.473.022.076-8.438-2.47-.022.077-8.402-8.896-12.472-18.01-.163-.267 29.227 6.264.056a9.084 9.084 0 0 0 2.383 4.369 9.054 9.054 0 0 0 6.396 2.718 9.054 9.054 0 0 0 6.449-2.6 9.069 9.069 0 0 0 2.46-4.323l1.174.009 1.891.019zM386.101 158.474a4.438 4.438 0 0 0-.055 6.277 4.412 4.412 0 0 0 3.126 1.328 4.422 4.422 0 0 0 3.148-1.271 4.416 4.416 0 0 0 1.327-3.125 4.429 4.429 0 0 0-4.396-4.476 4.433 4.433 0 0 0-3.15 1.267zm26.892 5.464l-14.958-.138a9.08 9.08 0 0 1-2.461 4.324 9.056 9.056 0 0 1-6.446 2.6 9.062 9.062 0 0 1-6.399-2.718 9.065 9.065 0 0 1-2.38-4.367l-2.876-.027v-.049l-2.334-.021.066-7.313 2.336.021.223-24.458 35.521.325-.292 31.821z"/></g><g><path opacity=".6" fill="#78909C" d="M750.249 524.709c-7.228 0-46.619-.227-43.44 12.696 1.214 4.937 12.423 8.808 16.647 9.269l8.955 3.83 8.95-3.83c12.78-1.393 35.308-5.672 35.308-10.743-.001-6.197-9.277-11.222-26.42-11.222z"/><path fill="#34B2FF" d="M730.625 422.599c-30.723 0-55.641 24.911-55.641 55.64 0 25.147 16.698 46.375 39.59 53.266l16.043 19 16.044-19c22.905-6.895 39.601-28.118 39.601-53.266 0-30.729-24.914-55.64-55.637-55.64z"/><g fill-rule="evenodd" clip-rule="evenodd" fill="#2E3D5A"><path d="M759.301 474.988l-17.178-.156.076-8.494 11.001.101 6.101 8.549zm-9.956 10.784a4.427 4.427 0 0 0-1.328 3.128 4.413 4.413 0 0 0 1.271 3.147 4.418 4.418 0 0 0 3.124 1.329 4.414 4.414 0 0 0 3.15-1.271 4.417 4.417 0 0 0 1.329-3.127 4.432 4.432 0 0 0-1.271-3.149 4.422 4.422 0 0 0-3.127-1.328 4.446 4.446 0 0 0-3.148 1.271zm14.998 5.354l2.474.022.076-8.438-2.471-.022.077-8.401-8.896-12.472-18.01-.163-.268 29.227 6.264.057a9.097 9.097 0 0 0 2.383 4.368 9.062 9.062 0 0 0 6.396 2.718 9.057 9.057 0 0 0 6.449-2.601 9.043 9.043 0 0 0 2.46-4.323l1.174.01 1.892.018zM707.801 485.393a4.432 4.432 0 0 0-1.326 3.126 4.432 4.432 0 0 0 1.271 3.15 4.412 4.412 0 0 0 3.126 1.328 4.422 4.422 0 0 0 3.148-1.271 4.419 4.419 0 0 0 1.327-3.126 4.426 4.426 0 0 0-1.269-3.151 4.44 4.44 0 0 0-6.277-.056zm26.893 5.462l-14.957-.138a9.086 9.086 0 0 1-2.461 4.323 9.054 9.054 0 0 1-6.447 2.601 9.056 9.056 0 0 1-6.398-2.718 9.056 9.056 0 0 1-2.38-4.367l-2.876-.026v-.048l-2.335-.022.066-7.313 2.336.021.223-24.459 35.521.325-.292 31.821z"/></g></g></svg>