<svg xmlns="http://www.w3.org/2000/svg" width="980" height="356" viewBox="0 0 980 356"><path fill="#34B2FF" d="M656.9 254.9H958v69.7H656.9z"/><g fill="#FFF"><path d="M667.6 299.6h2.4c.4 0 .8 0 1.1.1.3.1.6.2.9.4.2.2.4.4.6.7.1.3.2.6.2 1s-.1.7-.2 1-.3.5-.6.7c-.2.2-.5.3-.9.4-.3.1-.7.1-1.1.1h-1.1v2.6h-1.3v-7zm2.3 3.5c1 0 1.6-.4 1.6-1.3 0-.4-.1-.8-.4-.9-.3-.2-.6-.3-1.2-.3h-1v2.5h1zM677.3 306.9c-.5 0-.9-.1-1.3-.3-.4-.2-.7-.4-1-.7-.3-.3-.5-.7-.6-1.2-.2-.5-.2-1-.2-1.5 0-.6.1-1.1.2-1.5.2-.5.4-.8.6-1.1.3-.3.6-.5 1-.7s.8-.2 1.3-.2.9.1 1.3.2.7.4 1 .7c.3.3.5.7.6 1.1.2.5.2 1 .2 1.5 0 .6-.1 1.1-.2 1.5-.2.5-.4.8-.6 1.2-.3.3-.6.6-1 .7-.4.2-.8.3-1.3.3zm0-1.1c.3 0 .5-.1.8-.2.2-.1.4-.3.6-.5.2-.2.3-.5.4-.8.1-.3.1-.7.1-1.1 0-.8-.2-1.4-.5-1.9s-.8-.7-1.3-.7c-.6 0-1 .2-1.3.7s-.5 1.1-.5 1.9c0 .4 0 .8.1 1.1.1.3.2.6.4.8.2.2.3.4.6.5.1.1.3.2.6.2zM685.2 306.9c-.5 0-.9-.1-1.3-.3-.4-.2-.7-.4-1-.7-.3-.3-.5-.7-.6-1.2-.1-.5-.2-1-.2-1.5 0-.6.1-1.1.2-1.5.2-.5.4-.8.6-1.1.3-.3.6-.5 1-.7s.8-.2 1.3-.2.9.1 1.3.2c.4.2.7.4 1 .7.3.3.5.7.6 1.1.2.5.2 1 .2 1.5 0 .6-.1 1.1-.2 1.5-.2.5-.4.8-.6 1.2-.3.3-.6.6-1 .7-.5.2-.9.3-1.3.3zm0-1.1c.3 0 .5-.1.8-.2.2-.1.4-.3.6-.5.2-.2.3-.5.4-.8.1-.3.1-.7.1-1.1 0-.8-.2-1.4-.5-1.9s-.8-.7-1.3-.7c-.6 0-1 .2-1.3.7-.3.5-.5 1.1-.5 1.9 0 .4 0 .8.1 1.1.1.3.2.6.4.8.2.2.4.4.6.5s.3.2.6.2zM690.3 299.6h1.3v6h2.9v1.1h-4.2v-7.1zM699.2 305c.3.2.5.4.9.6.3.1.6.2 1 .2s.7-.1.9-.2.3-.4.3-.7c0-.1 0-.3-.1-.4-.1-.1-.1-.2-.2-.3-.1-.1-.2-.1-.3-.2-.1-.1-.3-.1-.4-.2l-1-.4c-.2-.1-.3-.2-.5-.3-.2-.1-.3-.2-.5-.4-.1-.2-.2-.3-.3-.5-.1-.2-.1-.4-.1-.7 0-.3.1-.5.2-.8s.3-.5.5-.6.5-.3.8-.4c.3-.1.6-.2 1-.2s.8.1 1.2.2c.4.2.7.4 1 .7l-.6.8c-.2-.2-.5-.3-.7-.4-.2-.1-.5-.2-.8-.2-.3 0-.6.1-.8.2-.2.1-.3.4-.3.6 0 .1 0 .3.1.4.1.1.1.2.2.3.1.1.2.1.4.2s.3.1.4.2l1 .4.6.3c.2.1.3.2.4.4s.2.3.3.5c.1.2.1.4.1.7 0 .3-.1.6-.2.8-.1.3-.3.5-.5.7-.2.2-.5.3-.8.5-.3.1-.7.2-1.1.2-.5 0-.9-.1-1.4-.3-.4-.2-.8-.4-1.2-.8l.5-.9zM705.4 299.6h4.3v1.1h-3v1.8h2.5v1.1h-2.5v2.1h3.1v1.1h-4.4v-7.2zM715.7 306.7l-1.5-2.8h-1.1v2.8h-1.3v-7.1h2.4c.4 0 .7 0 1 .1.3.1.6.2.8.4.2.2.4.4.5.6.1.3.2.6.2 1 0 .5-.1 1-.4 1.3-.3.3-.6.6-1 .7l1.7 3h-1.3zm-2.6-3.7h1c.5 0 .9-.1 1.1-.3.3-.2.4-.5.4-.9s-.1-.7-.4-.9c-.3-.2-.6-.2-1.1-.2h-1v2.3zM717.7 299.6h1.3l1 3.6c.1.4.2.8.3 1.1s.2.7.3 1.2l.3-1.2c.1-.4.2-.7.3-1.1l1-3.6h1.3l-2.2 7.1h-1.5l-2.1-7.1zM725 299.6h1.3v7.1H725v-7.1zM728.2 303.2c0-.6.1-1.1.3-1.6s.4-.8.7-1.2c.3-.3.6-.6 1-.7s.8-.2 1.3-.2c.4 0 .8.1 1.2.3l.9.6-.7.8c-.2-.2-.4-.3-.6-.4-.2-.1-.4-.2-.7-.2-.3 0-.6.1-.8.2-.2.1-.5.3-.6.5-.2.2-.3.5-.4.8-.1.3-.1.7-.1 1.1 0 .8.2 1.4.5 1.9s.8.7 1.4.7c.3 0 .6-.1.8-.2.2-.1.5-.3.7-.5l.7.8c-.3.3-.6.6-1 .8-.4.2-.8.3-1.2.3-.5 0-.9-.1-1.3-.2-.4-.2-.7-.4-1-.7-.3-.3-.5-.7-.7-1.1s-.4-1.2-.4-1.8zM735.4 299.6h4.3v1.1h-3v1.8h2.5v1.1h-2.5v2.1h3.1v1.1h-4.4v-7.2zM744.8 306.3c-.2-.8-.4-1.7-.4-2.6 0-1 .1-1.8.4-2.6.2-.8.6-1.6 1.1-2.3l.8.3c-.4.7-.7 1.4-.9 2.2-.2.8-.3 1.6-.3 2.4 0 .8.1 1.6.3 2.4.2.8.5 1.5.9 2.2l-.8.3c-.5-.7-.8-1.5-1.1-2.3zM748.6 299.6h2.4c.4 0 .7 0 1.1.1.3.1.6.2.8.4s.4.4.6.7c.1.3.2.6.2 1s-.1.7-.2 1c-.1.3-.3.5-.6.7s-.5.3-.9.4c-.3.1-.7.1-1.1.1h-1.1v2.6h-1.3l.1-7zm2.3 3.5c1 0 1.6-.4 1.6-1.3 0-.4-.1-.8-.4-.9s-.7-.3-1.2-.3h-1v2.5h1zM755.7 305c.3.2.5.4.9.6.3.1.7.2 1 .2.4 0 .7-.1.9-.2s.3-.4.3-.7c0-.1 0-.3-.1-.4-.1-.1-.1-.2-.2-.3-.1-.1-.2-.1-.3-.2-.1-.1-.3-.1-.4-.2l-1-.4c-.2-.1-.3-.2-.5-.3-.2-.1-.3-.2-.5-.4-.1-.2-.2-.3-.3-.5-.1-.2-.1-.4-.1-.7 0-.3.1-.5.2-.8.1-.2.3-.5.5-.6s.5-.3.8-.4.6-.2 1-.2.8.1 1.2.2c.4.2.7.4 1 .7l-.6.8c-.2-.2-.5-.3-.7-.4-.2-.1-.5-.2-.8-.2-.3 0-.6.1-.8.2s-.3.4-.3.6c0 .1 0 .3.1.4.1.1.1.2.2.3.1.1.2.1.4.2.1.1.3.1.4.2l1 .4.6.3c.2.1.3.2.5.4s.2.3.3.5c.1.2.1.4.1.7 0 .3-.1.6-.2.8-.1.3-.3.5-.5.7-.2.2-.5.3-.8.5-.3.1-.7.2-1.1.2-.5 0-.9-.1-1.4-.3-.4-.2-.8-.4-1.2-.8l.4-.9zM762.3 306.1c.2-.8.3-1.6.3-2.4 0-.8-.1-1.6-.3-2.4-.2-.8-.5-1.5-.9-2.2l.8-.3c.5.7.8 1.5 1.1 2.3.2.8.4 1.7.4 2.6 0 1-.1 1.8-.4 2.6-.2.8-.6 1.6-1.1 2.3l-.8-.3c.5-.7.8-1.4.9-2.2z"/></g><path fill="none" d="M666.7 276h192v20.6h-192z"/><path fill="#FFF" d="M671.9 285.9h-3.2l-.8 2.6h-1.1l2.9-8.7h1.2l2.9 8.7h-1.2l-.7-2.6zm-.3-.9l-.4-1.3c-.2-.5-.3-1-.4-1.4-.1-.5-.3-1-.4-1.5h-.1c-.1.5-.3 1-.4 1.5-.1.5-.3 1-.4 1.4l-.5 1.3h2.6zM675 282.1h.9l.1.9c.3-.3.6-.6.9-.8.3-.2.7-.3 1.1-.3.5 0 .9.1 1.2.3.3.2.5.5.6.9.3-.4.7-.7 1-.9.3-.2.7-.3 1.1-.3.7 0 1.2.2 1.5.6.3.4.5 1.1.5 1.9v4.1h-1.1v-3.9c0-.6-.1-1-.3-1.3-.2-.3-.5-.4-.9-.4-.5 0-1 .3-1.6 1v4.7h-1.1v-3.9c0-.6-.1-1-.3-1.3-.2-.3-.5-.4-.9-.4-.5 0-1 .3-1.6 1v4.7H675v-6.6zM685.5 285.4c0-.5.1-1 .2-1.4.2-.4.4-.8.6-1.1.3-.3.6-.5.9-.7.3-.2.7-.2 1.1-.2.4 0 .8.1 1.1.2.3.1.6.3.8.6.2.3.4.6.5 1 .1.4.2.8.2 1.2v.6h-4.3c0 .7.3 1.2.6 1.7.4.4.9.6 1.5.6.3 0 .6 0 .9-.1.3-.1.5-.2.7-.4l.4.7c-.3.2-.6.3-.9.5-.3.1-.7.2-1.2.2-.4 0-.8-.1-1.2-.2-.4-.2-.7-.4-1-.7-.3-.3-.5-.6-.7-1.1-.1-.4-.2-.9-.2-1.4zm4.5-.5c0-.7-.1-1.2-.4-1.5-.3-.3-.7-.5-1.2-.5-.2 0-.4 0-.7.1-.2.1-.4.2-.6.4-.2.2-.3.4-.4.6-.1.3-.2.5-.2.9h3.5zM692.5 282.1h.9l.1 1.2c.2-.4.5-.7.8-1 .3-.2.7-.4 1-.4.3 0 .5 0 .7.1l-.2 1c-.1 0-.2-.1-.3-.1h-.3c-.3 0-.6.1-.9.3s-.6.6-.8 1.2v4.1h-1.1v-6.4h.1zM697.7 280.8c-.2 0-.4-.1-.5-.2-.1-.1-.2-.3-.2-.5s.1-.4.2-.5c.1-.1.3-.2.5-.2s.4.1.5.2c.1.1.2.3.2.5s-.1.4-.2.5c-.1.2-.3.2-.5.2zm-.6 1.3h1.1v6.4h-1.1v-6.4zM699.9 285.4c0-.5.1-1 .3-1.4s.4-.8.7-1.1c.3-.3.6-.5 1-.7s.8-.2 1.2-.2c.4 0 .8.1 1.1.2.3.2.6.3.8.5l-.5.7c-.2-.2-.4-.3-.6-.4s-.4-.2-.7-.2c-.3 0-.6.1-.8.2s-.5.3-.6.5c-.2.2-.3.5-.4.8-.1.3-.2.6-.2 1s0 .7.1 1c.1.3.2.6.4.8.2.2.4.4.6.5.2.1.5.2.8.2.3 0 .6-.1.8-.2.3-.1.5-.3.7-.5l.5.7c-.3.3-.6.5-1 .6-.4.2-.7.2-1.1.2-.4 0-.8-.1-1.2-.2-.4-.1-.7-.4-1-.7-.3-.3-.5-.6-.6-1.1-.2-.2-.3-.7-.3-1.2zM706 286.9c0-.7.3-1.2.9-1.6.6-.4 1.6-.6 3-.8 0-.2 0-.4-.1-.6 0-.2-.1-.4-.2-.5-.1-.1-.2-.3-.4-.4-.2-.1-.4-.1-.6-.1-.4 0-.7.1-1.1.2-.3.1-.6.3-.9.5l-.4-.8c.3-.2.7-.4 1.1-.6.4-.2.9-.3 1.4-.3.8 0 1.4.2 1.7.7.4.5.5 1.1.5 1.9v3.9h-.9l-.1-.8c-.3.3-.6.5-1 .7-.4.2-.7.3-1.1.3-.5 0-1-.2-1.4-.5-.2-.2-.4-.6-.4-1.2zm1.1-.1c0 .4.1.6.3.8.2.2.5.2.8.2.3 0 .6-.1.9-.2.3-.1.6-.4.9-.6v-1.8c-.5.1-1 .2-1.4.3-.4.1-.7.2-.9.3-.2.1-.4.3-.5.5s-.1.3-.1.5zM713.1 282.1h.9l.1.9c.3-.3.6-.6 1-.8.3-.2.7-.3 1.2-.3.7 0 1.2.2 1.5.6s.5 1.1.5 1.9v4.1h-1.1v-3.9c0-.6-.1-1-.3-1.3-.2-.3-.5-.4-.9-.4-.3 0-.6.1-.9.3-.3.2-.5.4-.9.7v4.7h-1.1v-6.5zM723.1 279.9h2.7c.5 0 .9 0 1.3.1s.7.2 1 .4c.3.2.5.5.6.8.2.3.2.7.2 1.2s-.1.9-.2 1.2c-.2.3-.4.6-.7.8-.3.2-.6.4-1 .5-.4.1-.8.2-1.3.2h-1.6v3.4H723v-8.6zm2.5 4.3c.8 0 1.3-.1 1.7-.4s.5-.7.5-1.4c0-.6-.2-1.1-.6-1.3-.4-.2-.9-.4-1.7-.4h-1.4v3.5h1.5zM730.6 282.1h.9l.1 1.2c.2-.4.5-.7.8-1 .3-.2.7-.4 1-.4.3 0 .5 0 .7.1l-.2 1c-.1 0-.2-.1-.3-.1h-.3c-.3 0-.6.1-.9.3-.3.2-.6.6-.8 1.2v4.1h-1.1v-6.4zM734.6 285.4c0-.5.1-1 .2-1.4.2-.4.4-.8.7-1.1.3-.3.6-.5.9-.7.4-.1.7-.2 1.1-.2.4 0 .8.1 1.1.2.4.1.7.4.9.7.3.3.5.6.7 1.1.2.4.2.9.2 1.4 0 .5-.1 1-.2 1.4-.2.4-.4.8-.7 1.1-.3.3-.6.5-.9.7-.4.1-.7.2-1.1.2-.4 0-.8-.1-1.1-.2-.4-.2-.7-.4-.9-.7s-.5-.6-.7-1.1c-.1-.4-.2-.9-.2-1.4zm1.1 0c0 .4 0 .7.1 1 .1.3.2.6.4.8.2.2.4.4.6.5.2.1.5.2.8.2.3 0 .5-.1.8-.2.2-.1.4-.3.6-.5.2-.2.3-.5.4-.8.1-.3.1-.6.1-1s0-.7-.1-1-.2-.6-.4-.8c-.2-.2-.4-.4-.6-.5-.2-.1-.5-.2-.8-.2-.3 0-.5.1-.8.2-.2.1-.4.3-.6.5-.2.2-.3.5-.4.8 0 .3-.1.6-.1 1zM743.4 289.1v2.2h-1.1v-9.1h.9l.1.7c.3-.2.6-.5 1-.6.3-.2.7-.3 1.1-.3.4 0 .8.1 1.1.2.3.2.6.4.8.7.2.3.4.6.5 1 .1.4.2.9.2 1.4 0 .5-.1 1-.2 1.5-.2.4-.4.8-.6 1.1-.3.3-.6.5-.9.7-.3.2-.7.2-1.1.2-.3 0-.6-.1-.9-.2-.3-.1-.6-.3-.9-.5v1zm0-2c.3.2.6.4.8.5.3.1.5.2.7.2.3 0 .5-.1.7-.2.2-.1.4-.3.6-.5s.3-.5.4-.8c.1-.3.1-.7.1-1.1 0-.4 0-.7-.1-1-.1-.3-.2-.5-.3-.7-.1-.2-.3-.4-.5-.5-.2-.1-.5-.2-.8-.2-.3 0-.5.1-.8.2-.3.1-.6.4-.9.6v3.5h.1zM749.1 285.4c0-.5.1-1 .2-1.4.2-.4.4-.8.6-1.1.3-.3.6-.5.9-.7.3-.2.7-.2 1.1-.2.4 0 .8.1 1.1.2.3.1.6.3.8.6.2.3.4.6.5 1 .1.4.2.8.2 1.2v.6h-4.3c0 .7.3 1.2.6 1.7.4.4.9.6 1.5.6.3 0 .6 0 .9-.1.3-.1.5-.2.7-.4l.4.7c-.3.2-.6.3-.9.5-.3.1-.7.2-1.2.2-.4 0-.8-.1-1.2-.2s-.7-.4-1-.7c-.3-.3-.5-.6-.7-1.1-.1-.4-.2-.9-.2-1.4zm4.5-.5c0-.7-.1-1.2-.4-1.5-.3-.3-.7-.5-1.2-.5-.2 0-.4 0-.7.1-.2.1-.4.2-.6.4-.2.2-.3.4-.4.6s-.2.5-.2.9h3.5zM756.2 282.1h.9l.1 1.2c.2-.4.5-.7.8-1 .3-.2.7-.4 1-.4.3 0 .5 0 .7.1l-.2 1c-.1 0-.2-.1-.3-.1h-.3c-.3 0-.6.1-.9.3-.3.2-.6.6-.8 1.2v4.1h-1.1v-6.4zM761 283h-1v-.8l1-.1.1-1.8h.9v1.8h1.7v.9H762v3.6c0 .4.1.7.2.9.1.2.4.3.8.3.1 0 .2 0 .4-.1.1 0 .3-.1.4-.1l.2.8c-.2.1-.4.1-.6.2-.2 0-.4.1-.6.1-.3 0-.6-.1-.9-.2-.2-.1-.4-.3-.6-.4-.1-.2-.2-.4-.3-.7-.1-.3-.1-.6-.1-.9V283h.1zM765.1 290.4h.3c.4 0 .7-.1.9-.4.2-.3.4-.6.6-1l.1-.5-2.6-6.4h1.1l1.3 3.6.3.9.3.9h.1l.3-.9.3-.9 1.2-3.6h1.1l-2.4 7c-.1.3-.2.6-.4.9-.1.3-.3.5-.5.7-.2.2-.4.4-.7.5-.2.1-.5.2-.9.2h-.4c-.1 0-.2-.1-.3-.1l.2-.9h.1zM774.2 279.9h1.3l1.7 4.7.6 1.8h.1l.6-1.8 1.7-4.7h1.3v8.7h-1v-4.8-1.3c0-.5.1-.9.1-1.3h-.1l-.7 1.9-1.7 4.5h-.6l-1.7-4.5-.7-1.9h-.1c0 .4.1.8.1 1.3s.1.9.1 1.3v4.8h-1v-8.7zM783.4 286.9c0-.7.3-1.2.9-1.6.6-.4 1.6-.6 3-.8 0-.2 0-.4-.1-.6 0-.2-.1-.4-.2-.5-.1-.1-.2-.3-.4-.4-.2-.1-.4-.1-.6-.1-.4 0-.7.1-1.1.2-.3.1-.6.3-.9.5l-.4-.8c.3-.2.7-.4 1.1-.6.4-.2.9-.3 1.4-.3.8 0 1.4.2 1.7.7.4.5.5 1.1.5 1.9v3.9h-.9l-.1-.8c-.3.3-.6.5-1 .7-.4.2-.7.3-1.1.3-.5 0-1-.2-1.4-.5-.2-.2-.4-.6-.4-1.2zm1.1-.1c0 .4.1.6.3.8.2.2.5.2.8.2.3 0 .6-.1.9-.2.3-.1.6-.4.9-.6v-1.8c-.5.1-1 .2-1.4.3-.4.1-.7.2-.9.3s-.4.3-.5.5c-.1.1-.1.3-.1.5zM790.5 282.1h.9l.1.9c.3-.3.6-.6 1-.8.3-.2.7-.3 1.2-.3.7 0 1.2.2 1.5.6.3.4.5 1.1.5 1.9v4.1h-1.1v-3.9c0-.6-.1-1-.3-1.3-.2-.3-.5-.4-.9-.4-.3 0-.6.1-.9.3-.3.2-.5.4-.9.7v4.7h-1.1v-6.5zM797.4 286.9c0-.7.3-1.2.9-1.6.6-.4 1.6-.6 3-.8 0-.2 0-.4-.1-.6 0-.2-.1-.4-.2-.5-.1-.1-.2-.3-.4-.4-.2-.1-.4-.1-.6-.1-.4 0-.7.1-1.1.2-.3.1-.6.3-.9.5l-.4-.8c.3-.2.7-.4 1.1-.6.4-.2.9-.3 1.4-.3.8 0 1.4.2 1.7.7.4.5.5 1.1.5 1.9v3.9h-.9l-.1-.8c-.3.3-.6.5-1 .7-.4.2-.7.3-1.1.3-.5 0-1-.2-1.4-.5-.2-.2-.4-.6-.4-1.2zm1.1-.1c0 .4.1.6.3.8.2.2.5.2.8.2.3 0 .6-.1.9-.2.3-.1.6-.4.9-.6v-1.8c-.5.1-1 .2-1.4.3-.4.1-.7.2-.9.3-.2.1-.4.3-.5.5s-.1.3-.1.5zM804.1 289.8c0-.3.1-.5.3-.8.2-.2.4-.5.7-.7v-.1c-.2-.1-.3-.2-.4-.4-.1-.2-.2-.4-.2-.6 0-.3.1-.5.2-.7.1-.2.3-.4.5-.5-.2-.2-.4-.4-.6-.7-.2-.3-.3-.6-.3-1s.1-.7.2-1c.1-.3.3-.5.5-.7.2-.2.5-.4.8-.5.3-.1.6-.2.9-.2h.5c.2 0 .3.1.4.1h2.2v.8h-1.3c.2.2.3.3.4.6.1.2.2.5.2.8 0 .3-.1.7-.2.9-.1.3-.3.5-.5.7-.2.2-.5.3-.7.4-.3.1-.6.2-.9.2-.2 0-.3 0-.5-.1-.2 0-.3-.1-.5-.2l-.3.3c-.1.1-.1.3-.1.4 0 .2.1.4.2.5.2.1.5.2.9.2h1.2c.8 0 1.3.1 1.7.4.4.2.6.6.6 1.2 0 .3-.1.6-.2.9s-.4.5-.6.7-.6.4-1 .5-.9.2-1.4.2c-.4 0-.8 0-1.1-.1-.3-.1-.6-.2-.8-.3-.2-.1-.4-.3-.5-.5-.3-.2-.3-.4-.3-.7zm.9-.1c0 .3.2.6.5.8.3.2.8.3 1.4.3.3 0 .6 0 .8-.1.3-.1.5-.2.6-.3.2-.1.3-.3.4-.4.1-.2.1-.3.1-.5 0-.3-.1-.5-.3-.6-.2-.1-.5-.2-1-.2H806c-.1 0-.3 0-.4-.1-.2.2-.4.3-.5.5 0 .2-.1.4-.1.6zm1.7-3.9c.2 0 .4 0 .5-.1.2-.1.3-.2.4-.3.1-.1.2-.3.3-.5.1-.2.1-.4.1-.6 0-.5-.1-.8-.4-1.1-.3-.3-.6-.4-1-.4s-.7.1-1 .4-.4.6-.4 1.1c0 .2 0 .5.1.6.1.2.2.4.3.5.1.1.3.2.4.3.4.1.5.1.7.1zM810.6 285.4c0-.5.1-1 .2-1.4.2-.4.4-.8.6-1.1.3-.3.6-.5.9-.7.3-.2.7-.2 1.1-.2.4 0 .8.1 1.1.2.3.1.6.3.8.6.2.3.4.6.5 1 .1.4.2.8.2 1.2v.6h-4.3c0 .7.3 1.2.6 1.7.4.4.9.6 1.5.6.3 0 .6 0 .9-.1.3-.1.5-.2.7-.4l.4.7c-.3.2-.6.3-.9.5-.3.1-.7.2-1.2.2-.4 0-.8-.1-1.2-.2-.4-.2-.7-.4-1-.7-.3-.3-.5-.6-.7-1.1-.2-.4-.2-.9-.2-1.4zm4.5-.5c0-.7-.1-1.2-.4-1.5-.3-.3-.7-.5-1.2-.5-.2 0-.4 0-.7.1-.2.1-.4.2-.6.4-.2.2-.3.4-.4.6-.1.3-.2.5-.2.9h3.5zM817.6 282.1h.9l.1.9c.3-.3.6-.6.9-.8.3-.2.7-.3 1.1-.3.5 0 .9.1 1.2.3.3.2.5.5.6.9.3-.4.7-.7 1-.9.3-.2.7-.3 1.1-.3.7 0 1.2.2 1.5.6.3.4.5 1.1.5 1.9v4.1h-1.1v-3.9c0-.6-.1-1-.3-1.3-.2-.3-.5-.4-.9-.4-.5 0-1 .3-1.6 1v4.7h-1.1v-3.9c0-.6-.1-1-.3-1.3-.2-.3-.5-.4-.9-.4-.5 0-1 .3-1.6 1v4.7h-1.1v-6.6zM828.1 285.4c0-.5.1-1 .2-1.4.2-.4.4-.8.6-1.1.3-.3.6-.5.9-.7.3-.2.7-.2 1.1-.2.4 0 .8.1 1.1.2.3.1.6.3.8.6.2.3.4.6.5 1 .1.4.2.8.2 1.2v.6h-4.3c0 .7.3 1.2.6 1.7.4.4.9.6 1.5.6.3 0 .6 0 .9-.1.3-.1.5-.2.7-.4l.4.7c-.3.2-.6.3-.9.5-.3.1-.7.2-1.2.2-.4 0-.8-.1-1.2-.2s-.7-.4-1-.7c-.3-.3-.5-.6-.7-1.1-.1-.4-.2-.9-.2-1.4zm4.5-.5c0-.7-.1-1.2-.4-1.5-.3-.3-.7-.5-1.2-.5-.2 0-.4 0-.7.1-.2.1-.4.2-.6.4-.2.2-.3.4-.4.6-.1.3-.2.5-.2.9h3.5zM835.1 282.1h.9l.1.9c.3-.3.6-.6 1-.8.3-.2.7-.3 1.2-.3.7 0 1.2.2 1.5.6s.5 1.1.5 1.9v4.1h-1.1v-3.9c0-.6-.1-1-.3-1.3-.2-.3-.5-.4-.9-.4-.3 0-.6.1-.9.3-.3.2-.5.4-.9.7v4.7h-1.1v-6.5zM842.6 283h-1v-.8l1-.1.1-1.8h.9v1.8h1.7v.9h-1.7v3.6c0 .4.1.7.2.9.1.2.4.3.8.3.1 0 .2 0 .4-.1.1 0 .3-.1.4-.1l.2.8c-.2.1-.4.1-.6.2-.2 0-.4.1-.6.1-.3 0-.6-.1-.9-.2s-.4-.3-.6-.4c-.1-.2-.2-.4-.3-.7-.1-.3-.1-.6-.1-.9V283h.1z"/><path fill="#2E3D5A" d="M666.7 266.8h90.7v3.2h-90.7z"/><path fill="#039BE5" d="M757.4 266.8h90.7v3.2h-90.7z"/><g><path fill="#2E3D5A" d="M947.9 262.7H937c-.9 0-1.6.7-1.6 1.6v10.9c0 .9.7 1.6 1.6 1.6h10.9c.9 0 1.6-.7 1.6-1.6v-10.9c0-.9-.7-1.6-1.6-1.6zm-7.8 11h-1.6v-1.6h1.6v1.6zm0-3.2h-1.6V269h1.6v1.5zm0-3.1h-1.6v-1.6h1.6v1.6zm6.3 6.3h-5.5v-1.6h5.5v1.6zm0-3.2h-5.5V269h5.5v1.5zm0-3.1h-5.5v-1.6h5.5v1.6z"/></g></svg>