<svg xmlns="http://www.w3.org/2000/svg" width="980" height="356" viewBox="0 0 980 356"><path fill="#34B2FF" d="M457.3 154.5h200.8v69.7H457.3z"/><g fill="#FFF"><path d="M468.2 204.6c.3.2.5.4.9.6.3.1.7.2 1 .2.4 0 .7-.1.9-.2.2-.2.3-.4.3-.7 0-.1 0-.3-.1-.4s-.1-.2-.2-.3c-.1-.1-.2-.1-.3-.2-.1-.1-.3-.1-.4-.2l-1-.4c-.2-.1-.3-.2-.5-.3-.2-.1-.3-.2-.5-.4-.1-.2-.2-.3-.3-.5-.1-.2-.1-.4-.1-.7 0-.3.1-.5.2-.8.1-.2.3-.5.5-.6.2-.2.5-.3.8-.4.3-.1.6-.2 1-.2s.8.1 1.2.2c.4.2.7.4 1 .7l-.6.8c-.2-.2-.5-.3-.7-.4-.2-.1-.5-.2-.8-.2-.3 0-.6.1-.8.2s-.3.4-.3.6c0 .1 0 .3.1.4.1.1.1.2.2.3.1.1.2.1.4.2.1.1.3.1.4.2l1 .4.6.3c.2.1.3.2.5.4.1.2.2.3.3.5.1.2.1.4.1.7 0 .3-.1.6-.2.8s-.3.5-.5.7-.5.3-.8.5c-.3.1-.7.2-1.1.2-.5 0-.9-.1-1.4-.3-.4-.2-.8-.4-1.2-.8l.4-.9zM474 202.8c0-.6.1-1.1.3-1.6.2-.5.4-.8.7-1.2.3-.3.6-.6 1-.7.4-.2.8-.2 1.3-.2.4 0 .8.1 1.2.3l.9.6-.7.8c-.2-.2-.4-.3-.6-.4-.2-.1-.4-.2-.7-.2-.3 0-.6.1-.8.2-.2.1-.5.3-.6.5-.2.2-.3.5-.4.8-.1.3-.1.7-.1 1.1 0 .8.2 1.4.5 1.9.4.5.8.7 1.4.7.3 0 .6-.1.8-.2.2-.1.5-.3.7-.5l.7.8c-.3.3-.6.6-1 .8-.4.2-.8.3-1.2.3-.5 0-.9-.1-1.3-.2-.4-.2-.7-.4-1-.7s-.5-.7-.7-1.1c-.3-.7-.4-1.2-.4-1.8zM481.2 199.2h1.3v2.8h2.9v-2.8h1.3v7.1h-1.3v-3.1h-2.9v3.1h-1.3v-7.1zM488.9 199.2h4.3v1.1h-3v1.8h2.5v1.1h-2.5v2.1h3.1v1.1h-4.4v-7.2zM495.3 199.2h1.9c1.1 0 1.9.3 2.5.9.6.6.9 1.5.9 2.6 0 .6-.1 1.1-.2 1.5-.2.4-.4.8-.7 1.1-.3.3-.6.5-1.1.7-.4.2-.9.2-1.4.2h-2v-7zm1.8 6.1c.7 0 1.3-.2 1.7-.6s.6-1.1.6-1.9c0-.9-.2-1.5-.6-1.9s-.9-.6-1.7-.6h-.6v5h.6zM502.5 199.2h1.3v4.1c0 .4 0 .7.1 1 .1.3.2.5.3.6.1.2.3.3.4.3.2.1.4.1.6.1.2 0 .4 0 .6-.1.2-.1.3-.2.5-.3l.3-.6c.1-.3.1-.6.1-1v-4.1h1.2v4c0 .6-.1 1.1-.2 1.5-.1.4-.3.7-.5 1-.2.3-.5.4-.8.6s-.7.2-1.1.2-.8-.1-1.1-.2c-.3-.1-.6-.3-.8-.6-.2-.3-.4-.6-.5-1-.1-.4-.2-.9-.2-1.5l-.2-4zM510.2 199.2h1.3v6h2.9v1.1h-4.2v-7.1zM516.2 199.2h4.3v1.1h-3v1.8h2.5v1.1h-2.5v2.1h3.1v1.1h-4.4v-7.2zM522.6 199.2h1.9c1.1 0 1.9.3 2.5.9.6.6.9 1.5.9 2.6 0 .6-.1 1.1-.2 1.5-.2.4-.4.8-.7 1.1-.3.3-.6.5-1.1.7-.4.2-.9.2-1.4.2h-2v-7h.1zm1.8 6.1c.7 0 1.3-.2 1.7-.6.4-.4.6-1.1.6-1.9 0-.9-.2-1.5-.6-1.9-.4-.4-.9-.6-1.7-.6h-.6v5h.6zM532.9 204.6c.3.2.5.4.9.6.3.1.7.2 1 .2.4 0 .7-.1.9-.2.2-.2.3-.4.3-.7 0-.1 0-.3-.1-.4-.1-.1-.1-.2-.2-.3-.1-.1-.2-.1-.3-.2-.1-.1-.3-.1-.4-.2l-1-.4c-.2-.1-.3-.2-.5-.3-.2-.1-.3-.2-.5-.4-.1-.2-.2-.3-.3-.5-.1-.2-.1-.4-.1-.7 0-.3.1-.5.2-.8.1-.2.3-.5.5-.6.2-.2.5-.3.8-.4.3-.1.6-.2 1-.2s.8.1 1.2.2c.4.2.7.4 1 .7l-.6.8c-.2-.2-.5-.3-.7-.4s-.5-.2-.8-.2c-.3 0-.6.1-.8.2-.2.1-.3.4-.3.6 0 .1 0 .3.1.4s.1.2.2.3c.1.1.2.1.4.2.1.1.3.1.4.2l1 .4.6.3c.2.1.3.2.4.4.1.2.2.3.3.5.1.2.1.4.1.7 0 .3-.1.6-.2.8s-.3.5-.5.7-.5.3-.8.5c-.3.1-.7.2-1.1.2-.5 0-.9-.1-1.4-.3-.4-.2-.8-.4-1.2-.8l.5-.9zM539.1 199.2h4.3v1.1h-3v1.8h2.5v1.1h-2.5v2.1h3.1v1.1h-4.4v-7.2zM549.3 206.3l-1.5-2.8h-1.1v2.8h-1.3v-7.1h2.4c.4 0 .7 0 1 .1.3.1.6.2.8.4.2.2.4.4.5.6.1.3.2.6.2 1 0 .5-.1 1-.4 1.3-.3.3-.6.6-1 .7l1.7 3h-1.3zm-2.6-3.7h1c.5 0 .9-.1 1.1-.3.3-.2.4-.5.4-.9s-.1-.7-.4-.9c-.3-.2-.6-.2-1.1-.2h-1v2.3zM551.4 199.2h1.3l1 3.6c.1.4.2.8.3 1.1.1.4.2.7.3 1.2l.3-1.2c.1-.4.2-.7.3-1.1l1-3.6h1.3l-2.2 7.1h-1.5l-2.1-7.1zM558.7 199.2h1.3v7.1h-1.3v-7.1zM561.9 202.8c0-.6.1-1.1.3-1.6.2-.5.4-.8.7-1.2.3-.3.6-.6 1-.7.4-.2.8-.2 1.3-.2.4 0 .8.1 1.2.3l.9.6-.7.8c-.2-.2-.4-.3-.6-.4-.2-.1-.4-.2-.7-.2-.3 0-.6.1-.8.2-.2.1-.5.3-.6.5-.2.2-.3.5-.4.8-.1.3-.1.7-.1 1.1 0 .8.2 1.4.5 1.9s.8.7 1.4.7c.3 0 .6-.1.8-.2.2-.1.5-.3.7-.5l.7.8c-.3.3-.6.6-1 .8-.4.2-.8.3-1.2.3-.5 0-.9-.1-1.3-.2-.4-.2-.7-.4-1-.7s-.5-.7-.7-1.1-.4-1.2-.4-1.8zM569 199.2h4.3v1.1h-3v1.8h2.5v1.1h-2.5v2.1h3.1v1.1H569v-7.2z"/></g><path fill="none" d="M467 175.6h192v20.6H467z"/><path fill="#FFF" d="M468.2 179.5h1.1v3.6h4v-3.6h1.1v8.7h-1.1v-4.1h-4v4.1h-1.1v-8.7zM476.3 185c0-.5.1-1 .2-1.4.2-.4.4-.8.6-1.1.3-.3.6-.5.9-.7.3-.2.7-.2 1.1-.2.4 0 .8.1 1.1.2.3.1.6.3.8.6s.4.6.5 1c.1.4.2.8.2 1.2v.6h-4.3c0 .7.3 1.2.6 1.7.4.4.9.6 1.5.6.3 0 .6 0 .9-.1.3-.1.5-.2.7-.4l.4.7c-.3.2-.6.3-.9.5-.3.1-.7.2-1.2.2-.4 0-.8-.1-1.2-.2-.4-.2-.7-.4-1-.7-.3-.3-.5-.6-.7-1.1-.1-.4-.2-.9-.2-1.4zm4.5-.5c0-.7-.1-1.2-.4-1.5-.3-.3-.7-.5-1.2-.5-.2 0-.4 0-.7.1s-.4.2-.6.4c-.2.2-.3.4-.4.6-.1.3-.2.5-.2.9h3.5zM483.3 181.7h.9l.1.9c.3-.3.6-.6 1-.8.3-.2.7-.3 1.2-.3.7 0 1.2.2 1.5.6.3.4.5 1.1.5 1.9v4.1h-1.1v-3.9c0-.6-.1-1-.3-1.3-.2-.3-.5-.4-.9-.4-.3 0-.6.1-.9.3-.3.2-.5.4-.9.7v4.7h-1.1v-6.5zM490.6 181.7h.9l.1 1.2c.2-.4.5-.7.8-1 .3-.2.7-.4 1-.4.3 0 .5 0 .7.1l-.2 1c-.1 0-.2-.1-.3-.1h-.3c-.3 0-.6.1-.9.3-.3.2-.6.6-.8 1.2v4.1h-1.1v-6.4zM495.2 190h.3c.4 0 .7-.1.9-.4.2-.3.4-.6.5-1l.1-.5-2.6-6.4h1.1l1.3 3.6.3.9.3.9h.1l.3-.9.3-.9 1.2-3.6h1.1l-2.4 7c-.1.3-.2.6-.4.9-.1.3-.3.5-.5.7-.2.2-.4.4-.7.5-.2.1-.5.2-.9.2h-.4c-.1 0-.2-.1-.3-.1l.2-.9h.2zM509.2 188.2l-2.1-3.7h-1.6v3.7h-1.1v-8.7h2.7c.4 0 .9 0 1.2.1.4.1.7.2 1 .4.3.2.5.4.6.8s.2.7.2 1.1c0 .7-.2 1.2-.5 1.6-.4.4-.8.7-1.4.8l2.2 3.8h-1.2zm-3.7-4.6h1.5c.7 0 1.2-.1 1.6-.4.4-.3.5-.7.5-1.3 0-.6-.2-1-.5-1.2-.4-.2-.9-.3-1.6-.3h-1.5v3.2zM511.4 185c0-.5.1-1 .2-1.4.2-.4.4-.8.7-1.1.3-.3.6-.5.9-.7.4-.2.7-.2 1.1-.2.4 0 .8.1 1.1.2.4.1.7.4.9.7.3.3.5.6.7 1.1.2.4.2.9.2 1.4 0 .5-.1 1-.2 1.4-.2.4-.4.8-.7 1.1-.3.3-.6.5-.9.7-.4.2-.7.2-1.1.2-.4 0-.8-.1-1.1-.2-.4-.1-.7-.4-.9-.7s-.5-.6-.7-1.1-.2-.9-.2-1.4zm1.1 0c0 .4 0 .7.1 1 .1.3.2.6.4.8.2.2.4.4.6.5.2.1.5.2.8.2.3 0 .5-.1.8-.2.2-.1.4-.3.6-.5.2-.2.3-.5.4-.8.1-.3.1-.6.1-1s0-.7-.1-1c-.1-.3-.2-.6-.4-.8-.2-.2-.4-.4-.6-.5-.2-.1-.5-.2-.8-.2-.3 0-.5.1-.8.2s-.4.3-.6.5c-.2.2-.3.5-.4.8-.1.3-.1.6-.1 1zM519 178.8h1.1v3.8c.3-.3.6-.5 1-.6.3-.2.7-.3 1.1-.3.4 0 .8.1 1.1.2.3.2.6.4.8.7.2.3.4.6.5 1 .1.4.2.9.2 1.3 0 .5-.1 1-.2 1.5-.1.4-.4.8-.6 1.1-.3.3-.6.5-.9.7-.3.2-.7.2-1.1.2-.3 0-.6-.1-.9-.2-.3-.1-.6-.3-.9-.6l-.1.6H519v-9.4zm1.1 7.9c.3.2.6.4.8.5.3.1.5.2.7.2.3 0 .5-.1.7-.2s.4-.3.6-.5c.2-.2.3-.5.4-.8.1-.3.1-.7.1-1.1 0-.4 0-.7-.1-1-.1-.3-.2-.5-.3-.7-.1-.2-.3-.4-.5-.5-.2-.1-.5-.2-.8-.2-.5 0-1.1.3-1.7.9v3.4zM526.9 180.4c-.2 0-.4-.1-.5-.2s-.2-.3-.2-.5.1-.4.2-.5c.1-.1.3-.2.5-.2s.4.1.5.2.2.3.2.5-.1.4-.2.5c-.1.2-.3.2-.5.2zm-.5 1.3h1.1v6.4h-1.1v-6.4zM529.6 181.7h.9l.1.9c.3-.3.6-.6 1-.8.3-.2.7-.3 1.2-.3.7 0 1.2.2 1.5.6.3.4.5 1.1.5 1.9v4.1h-1.1v-3.9c0-.6-.1-1-.3-1.3-.2-.3-.5-.4-.9-.4-.3 0-.6.1-.9.3-.3.2-.5.4-.9.7v4.7h-1.1v-6.5zM536.7 186.7l.9.6c.3.1.6.2 1 .2s.7-.1 1-.3c.2-.2.3-.4.3-.7 0-.2 0-.3-.1-.4l-.3-.3c-.1-.1-.3-.2-.5-.2-.2-.1-.4-.1-.5-.2-.2-.1-.5-.2-.7-.3-.2-.1-.4-.2-.6-.4s-.3-.3-.4-.5c-.1-.2-.2-.4-.2-.7 0-.3.1-.5.2-.7.1-.2.2-.4.4-.6.2-.2.4-.3.7-.4.3-.1.6-.1.9-.1.4 0 .8.1 1.1.2.3.1.6.3.9.5l-.5.7c-.2-.2-.5-.3-.7-.4-.2-.1-.5-.2-.8-.2-.4 0-.7.1-.9.3-.2.2-.3.4-.3.6 0 .2 0 .3.1.4l.3.3c.1.1.3.2.5.2.2.1.4.1.5.2.2.1.5.2.7.3.2.1.4.2.6.4.2.1.3.3.5.5.1.2.2.5.2.8 0 .3-.1.5-.2.7-.1.2-.3.4-.5.6-.2.2-.4.3-.7.4-.3.1-.6.2-1 .2-.5 0-.9-.1-1.3-.3s-.8-.4-1.1-.6l.5-.8zM541.9 185c0-.5.1-1 .2-1.4.2-.4.4-.8.7-1.1.3-.3.6-.5.9-.7.4-.2.7-.2 1.1-.2.4 0 .8.1 1.1.2.4.1.7.4.9.7.3.3.5.6.7 1.1.2.4.2.9.2 1.4 0 .5-.1 1-.2 1.4-.2.4-.4.8-.7 1.1-.3.3-.6.5-.9.7-.4.2-.7.2-1.1.2-.4 0-.8-.1-1.1-.2-.4-.1-.7-.4-.9-.7s-.5-.6-.7-1.1-.2-.9-.2-1.4zm1.2 0c0 .4 0 .7.1 1 .1.3.2.6.4.8.2.2.4.4.6.5.2.1.5.2.8.2.3 0 .5-.1.8-.2.2-.1.4-.3.6-.5.2-.2.3-.5.4-.8.1-.3.1-.6.1-1s0-.7-.1-1c-.1-.3-.2-.6-.4-.8-.2-.2-.4-.4-.6-.5-.2-.1-.5-.2-.8-.2s-.5.1-.8.2c-.2.1-.4.3-.6.5-.2.2-.3.5-.4.8-.1.3-.1.6-.1 1zM549.6 181.7h.9l.1.9c.3-.3.6-.6 1-.8.3-.2.7-.3 1.2-.3.7 0 1.2.2 1.5.6.3.4.5 1.1.5 1.9v4.1h-1.1v-3.9c0-.6-.1-1-.3-1.3-.2-.3-.5-.4-.9-.4-.3 0-.6.1-.9.3-.3.2-.5.4-.9.7v4.7h-1.1v-6.5z"/><path fill="#2E3D5A" d="M467 166.4h90.7v3.2H467z"/><path fill="#039BE5" d="M557.7 166.4H603v3.2h-45.3z"/><g><path fill="#2E3D5A" d="M648 162.3h-10.9c-.9 0-1.6.7-1.6 1.6v10.9c0 .9.7 1.6 1.6 1.6H648c.9 0 1.6-.7 1.6-1.6v-10.9c0-.9-.7-1.6-1.6-1.6zm-7.8 11h-1.6v-1.6h1.6v1.6zm0-3.2h-1.6v-1.6h1.6v1.6zm0-3.1h-1.6v-1.6h1.6v1.6zm6.3 6.3H641v-1.6h5.5v1.6zm0-3.2H641v-1.6h5.5v1.6zm0-3.1H641v-1.6h5.5v1.6z"/></g></svg>