<svg xmlns="http://www.w3.org/2000/svg" width="980" height="356" viewBox="0 0 980 356"><g fill="none" stroke="#B0BEC5" stroke-width="2" stroke-miterlimit="10" opacity=".25"><path d="M255.482 28.073v328.333M355.842 28.073v328.333M456.203 28.073v328.333M556.558 28.073v328.333M656.919 28.073v328.333M757.279 28.073v328.333M857.638 28.073v328.333M958 28.073v328.333"/></g><path opacity=".2" fill="#78909C" d="M0 242.661h959.589v95.467H0zM0 47.487h959.589v95.465H0z"/><g fill="#B0BEC5"><path d="M248.501 10.95c.119-.763.289-1.491.511-2.184.222-.692.506-1.366.853-2.021.346-.654.768-1.328 1.266-2.021h-4.887V3.149h6.932v1.137a14.633 14.633 0 0 0-1.469 2.135 10.897 10.897 0 0 0-.885 2.078 12.579 12.579 0 0 0-.462 2.265 38.24 38.24 0 0 0-.203 2.711h-1.899c.042-.92.123-1.762.243-2.525zM265.092 10.601h-3.571l-.828 2.874h-1.916l3.458-10.617h2.208l3.458 10.617h-1.98l-.829-2.874zm-.422-1.477l-.374-1.299a45.012 45.012 0 0 1-.495-1.737c-.157-.596-.311-1.186-.463-1.77h-.064c-.152.595-.303 1.188-.455 1.777-.152.59-.314 1.167-.487 1.729l-.374 1.299 2.712.001zM270.028 2.857h2.078l1.916 5.228.698 2.013h.065l.682-2.013 1.883-5.228h2.078v10.617h-1.77V8.62c0-.249.008-.52.024-.812s.035-.587.057-.885c.021-.298.049-.59.081-.877.033-.286.06-.555.081-.804h-.065l-.86 2.419-1.834 4.822h-.876l-1.834-4.822-.844-2.419h-.065c.021.249.046.518.073.804l.081.877c.027.298.049.593.065.885.017.292.024.562.024.812v4.854h-1.737l-.001-10.617z"/></g><g fill="#B0BEC5"><path d="M341.689 10.828c0-.324.051-.619.154-.885a2.75 2.75 0 0 1 .414-.723c.173-.216.371-.411.593-.584.222-.173.457-.325.706-.455v-.064c-.4-.281-.739-.617-1.015-1.007s-.414-.86-.414-1.412c0-.422.078-.801.235-1.137.157-.335.374-.622.649-.86a2.93 2.93 0 0 1 .99-.552c.384-.13.798-.195 1.242-.195.465 0 .885.068 1.258.203.373.136.692.325.958.568.266.243.468.536.609.877.141.341.211.722.211 1.145 0 .26-.041.506-.122.738a3.026 3.026 0 0 1-.316.649c-.129.2-.279.385-.447.552a4.348 4.348 0 0 1-.495.431v.064c.238.13.465.279.682.447.216.168.406.359.568.576.163.217.292.46.39.73.098.271.146.579.146.925 0 .401-.084.771-.252 1.112a2.746 2.746 0 0 1-.706.894c-.303.254-.671.451-1.104.592s-.909.211-1.429.211c-.509 0-.977-.07-1.404-.211-.428-.141-.795-.335-1.104-.584s-.552-.547-.73-.893a2.478 2.478 0 0 1-.267-1.152zm1.64-.194c0 .52.184.934.552 1.241.368.309.817.463 1.348.463.498 0 .906-.135 1.226-.405.319-.271.479-.649.479-1.137 0-.281-.065-.522-.195-.723a1.956 1.956 0 0 0-.528-.535 4.29 4.29 0 0 0-.787-.431c-.303-.13-.628-.265-.974-.406-.325.238-.593.52-.804.845a1.944 1.944 0 0 0-.317 1.088zm2.548-2.988c.282-.281.496-.568.642-.86.146-.293.219-.601.219-.926 0-.454-.133-.83-.398-1.128-.265-.298-.641-.446-1.128-.446-.4 0-.736.121-1.006.365-.271.243-.406.592-.406 1.047 0 .26.054.487.162.682.108.195.257.365.446.512.189.146.409.281.658.405.249.125.519.241.811.349zM360.586 10.601h-3.571l-.828 2.874h-1.916l3.458-10.617h2.208l3.458 10.617h-1.98l-.829-2.874zm-.422-1.477l-.374-1.299a45.012 45.012 0 0 1-.495-1.737c-.157-.596-.311-1.186-.463-1.77h-.064c-.152.595-.303 1.188-.455 1.777-.152.59-.314 1.167-.487 1.729l-.374 1.299 2.712.001zM365.521 2.857h2.078l1.916 5.228.698 2.013h.065l.682-2.013 1.883-5.228h2.078v10.617h-1.77V8.62c0-.249.008-.52.024-.812.016-.292.035-.587.057-.885.021-.298.049-.59.081-.877.033-.286.06-.555.081-.804h-.065l-.86 2.419-1.834 4.822h-.876l-1.834-4.822-.844-2.419h-.065c.021.249.046.518.073.804l.081.877c.027.298.049.593.065.885.017.292.024.562.024.812v4.854h-1.737l-.001-10.617z"/></g><g fill="#B0BEC5"><path d="M438.287 11.364c.195.228.44.414.739.56.297.146.603.22.917.22.324 0 .63-.065.917-.195.286-.13.539-.343.755-.641.216-.298.392-.69.527-1.178.136-.486.214-1.088.235-1.802-.303.379-.66.674-1.072.885-.411.211-.806.316-1.185.316-.444 0-.85-.064-1.217-.194a2.484 2.484 0 0 1-.95-.593 2.677 2.677 0 0 1-.617-.998c-.146-.4-.219-.871-.219-1.413 0-.52.086-.987.26-1.404.173-.416.406-.771.698-1.062s.636-.517 1.031-.674a3.513 3.513 0 0 1 2.687.066c.455.2.853.506 1.193.917.34.411.61.934.812 1.566.2.634.3 1.383.3 2.249 0 1.007-.11 1.867-.333 2.581-.222.715-.52 1.302-.893 1.762s-.807.798-1.299 1.015a3.766 3.766 0 0 1-1.534.324c-.617 0-1.153-.113-1.607-.341a4.154 4.154 0 0 1-1.151-.827l1.006-1.139zm2.192-3.182c.293 0 .604-.092.935-.275.33-.185.636-.492.917-.926-.097-.909-.322-1.569-.674-1.98-.353-.411-.776-.617-1.274-.617-.422 0-.785.168-1.087.504-.303.335-.455.817-.455 1.444 0 .617.144 1.08.43 1.389.285.306.688.461 1.208.461zM456.08 10.601h-3.571l-.828 2.874h-1.916l3.458-10.617h2.208l3.458 10.617h-1.979l-.83-2.874zm-.422-1.477l-.374-1.299a45.012 45.012 0 0 1-.495-1.737c-.157-.596-.312-1.186-.463-1.77h-.064c-.151.595-.303 1.188-.455 1.777-.151.59-.313 1.167-.486 1.729l-.374 1.299 2.711.001zM461.015 2.857h2.078l1.916 5.228.698 2.013h.065l.682-2.013 1.883-5.228h2.078v10.617h-1.771V8.62c0-.249.009-.52.024-.812s.035-.587.057-.885c.021-.298.05-.59.081-.877.033-.286.061-.555.081-.804h-.064l-.86 2.419-1.834 4.822h-.876l-1.834-4.822-.844-2.419h-.065c.021.249.046.518.073.804l.081.877c.027.298.049.593.064.885.018.292.024.562.024.812v4.854h-1.737V2.857z"/></g><g fill="#B0BEC5"><path d="M533.212 11.948h2.306V5.162h-1.898V3.993c.52-.097.966-.213 1.34-.349a6.141 6.141 0 0 0 1.047-.495h1.396v8.799h2.028v1.526h-6.219v-1.526zM545.308 13.669c-1.083 0-1.938-.462-2.565-1.388-.627-.926-.941-2.265-.941-4.018 0-1.754.314-3.077.941-3.97.629-.894 1.482-1.34 2.565-1.34 1.082 0 1.938.449 2.564 1.348.627.898.94 2.219.94 3.962 0 1.753-.313 3.092-.94 4.018-.627.926-1.482 1.388-2.564 1.388zm0-1.461c.248 0 .479-.067.689-.203.211-.135.393-.359.544-.673s.271-.72.356-1.218c.087-.498.131-1.115.131-1.851 0-.726-.044-1.334-.131-1.827-.087-.492-.205-.89-.356-1.193-.151-.303-.333-.517-.544-.641a1.328 1.328 0 0 0-.689-.187c-.25 0-.479.062-.689.187-.212.124-.394.338-.544.641-.152.304-.271.701-.357 1.193-.086.493-.13 1.102-.13 1.827 0 .735.044 1.353.13 1.851.087.498.205.903.357 1.218.15.313.332.538.544.673.21.136.439.203.689.203zM560.714 10.601h-3.572l-.827 2.874H554.4l3.458-10.617h2.207l3.459 10.617h-1.98l-.83-2.874zm-.422-1.477l-.374-1.299a43.29 43.29 0 0 1-.495-1.737l-.463-1.77h-.064l-.454 1.777c-.151.59-.314 1.167-.486 1.729l-.374 1.299 2.71.001zM565.65 2.857h2.078l1.914 5.228.698 2.013h.064l.682-2.013 1.884-5.228h2.078v10.617h-1.77V8.62c0-.249.008-.52.023-.812.017-.292.035-.587.058-.885.021-.298.049-.59.081-.877.031-.286.06-.555.08-.804h-.063l-.861 2.419-1.834 4.822h-.877l-1.834-4.822-.844-2.419h-.065c.021.249.047.518.073.804.026.287.054.579.08.877.027.298.049.593.065.885.016.292.023.562.023.812v4.854h-1.736V2.857h.003z"/></g><g fill="#B0BEC5"><path d="M637.846 11.948h2.307V5.162h-1.899V3.993c.521-.097.966-.213 1.339-.349s.724-.301 1.047-.495h1.396v8.799h2.029v1.526h-6.219v-1.526zM646.986 11.948h2.307V5.162h-1.9V3.993c.521-.097.968-.213 1.341-.349s.723-.301 1.047-.495h1.396v8.799h2.029v1.526h-6.219v-1.526zM665.347 10.601h-3.569l-.828 2.874h-1.916l3.458-10.617h2.208l3.457 10.617h-1.98l-.83-2.874zm-.422-1.477l-.373-1.299a43.29 43.29 0 0 1-.495-1.737c-.156-.596-.312-1.186-.463-1.77h-.063c-.151.595-.305 1.188-.454 1.777-.152.59-.314 1.167-.488 1.729l-.373 1.299 2.709.001zM670.283 2.857h2.078l1.916 5.228.697 2.013h.065l.682-2.013 1.884-5.228h2.077v10.617h-1.77V8.62c0-.249.008-.52.024-.812a34.505 34.505 0 0 1 .138-1.762c.033-.286.06-.555.081-.804h-.065l-.858 2.419-1.836 4.822h-.875l-1.836-4.822-.845-2.419h-.063l.071.804c.027.287.056.579.082.877.027.298.05.593.064.885.017.292.023.562.023.812v4.854h-1.736l.002-10.617z"/></g><g fill="#B0BEC5"><path d="M742.479 11.948h2.307V5.162h-1.899V3.993c.521-.097.966-.213 1.339-.349s.724-.301 1.048-.495h1.396v8.799h2.029v1.526h-6.219v-1.526zM751.035 12.387c.715-.692 1.361-1.331 1.939-1.916.579-.584 1.071-1.125 1.479-1.623s.717-.963.934-1.396c.217-.433.324-.844.324-1.233 0-.552-.146-.987-.438-1.307-.292-.32-.715-.479-1.268-.479-.4 0-.766.113-1.096.341s-.636.498-.917.812l-1.039-1.039c.476-.508.966-.9 1.47-1.177.503-.275 1.111-.414 1.826-.414.498 0 .947.076 1.348.228.401.152.74.365 1.022.642.281.275.501.608.657.998.156.39.235.823.235 1.299 0 .455-.101.917-.301 1.388-.201.472-.471.947-.812 1.429s-.738.978-1.193 1.486A83.72 83.72 0 0 1 753.761 12c.271-.021.563-.046.877-.073.313-.026.596-.04.846-.04h2.531v1.591h-6.98v-1.091zM765.045 2.857h3.571c.584 0 1.123.054 1.614.162.492.108.919.292 1.275.552.356.26.638.599.844 1.015.205.417.31.934.31 1.551 0 .584-.104 1.093-.31 1.525a2.975 2.975 0 0 1-.853 1.08c-.363.287-.79.498-1.282.633a5.987 5.987 0 0 1-1.6.203h-1.688v3.896h-1.884V2.857h.003zm3.425 5.211c1.56 0 2.338-.644 2.338-1.932 0-.671-.193-1.134-.584-1.389-.39-.254-.975-.381-1.754-.381h-1.541v3.701l1.541.001zM775.468 2.857h2.078l1.915 5.228.698 2.013h.063l.683-2.013 1.884-5.228h2.078v10.617h-1.771V8.62c0-.249.009-.52.024-.812s.035-.587.057-.885c.022-.298.049-.59.081-.877.032-.286.061-.555.081-.804h-.063l-.861 2.419-1.834 4.822h-.877l-1.834-4.822-.844-2.419h-.065c.021.249.046.518.073.804.025.287.054.579.08.877.026.298.049.593.064.885.017.292.024.562.024.812v4.854h-1.736l.002-10.617z"/></g><g fill="#B0BEC5"><path d="M847.666 11.948h2.305V5.162h-1.897V3.993a8.53 8.53 0 0 0 1.339-.349 6.141 6.141 0 0 0 1.047-.495h1.396v8.799h2.028v1.526h-6.218v-1.526zM861.091 2.857h3.571a7.55 7.55 0 0 1 1.616.162 3.35 3.35 0 0 1 1.272.552c.357.26.64.599.846 1.015.205.417.308.934.308 1.551 0 .584-.103 1.093-.308 1.525a2.967 2.967 0 0 1-.854 1.08c-.364.287-.79.498-1.282.633a5.992 5.992 0 0 1-1.6.203h-1.688v3.896h-1.883l.002-10.617zm3.426 5.211c1.56 0 2.339-.644 2.339-1.932 0-.671-.195-1.134-.586-1.389-.39-.254-.974-.381-1.753-.381h-1.543v3.701l1.543.001zM871.514 2.857h2.078l1.915 5.228.699 2.013h.063l.683-2.013 1.883-5.228h2.078v10.617h-1.771V8.62c0-.249.009-.52.025-.812.016-.292.034-.587.057-.885.021-.298.05-.59.08-.877.033-.286.062-.555.082-.804h-.064l-.86 2.419-1.834 4.822h-.877l-1.834-4.822-.845-2.419h-.065c.021.249.047.518.073.804l.081.877a22.732 22.732 0 0 1 .088 1.697v4.854h-1.737l.002-10.617z"/></g><g fill="#B0BEC5"><path d="M943.126 12.387c.715-.692 1.361-1.331 1.941-1.916.577-.584 1.069-1.125 1.477-1.623s.717-.963.934-1.396c.218-.433.324-.844.324-1.233 0-.552-.146-.987-.438-1.307-.293-.319-.716-.479-1.268-.479-.399 0-.766.113-1.096.341a5.145 5.145 0 0 0-.917.812l-1.039-1.039c.476-.508.966-.9 1.469-1.177.504-.275 1.112-.414 1.826-.414.498 0 .947.076 1.348.228.401.152.741.365 1.023.642.281.275.5.608.657.998.157.39.234.823.234 1.299 0 .455-.1.917-.301 1.388-.2.472-.471.947-.812 1.429-.342.482-.739.978-1.193 1.486A94.962 94.962 0 0 1 945.851 12c.271-.021.562-.046.877-.073.312-.026.596-.04.845-.04h2.533v1.591h-6.982l.002-1.091zM957.138 2.857h3.57a7.55 7.55 0 0 1 1.616.162c.492.108.917.292 1.273.552.357.26.64.599.845 1.015.206.417.309.934.309 1.551 0 .584-.103 1.093-.309 1.525a2.965 2.965 0 0 1-.853 1.08 3.562 3.562 0 0 1-1.283.633 5.976 5.976 0 0 1-1.6.203h-1.688v3.896h-1.884V2.857h.004zm3.424 5.211c1.56 0 2.339-.644 2.339-1.932 0-.671-.194-1.134-.585-1.389-.39-.254-.975-.381-1.754-.381h-1.541v3.701l1.541.001zM967.56 2.857h2.078l1.916 5.228.698 2.013h.065L973 8.085l1.883-5.228h2.078v10.617h-1.77V8.62c0-.249.008-.52.023-.812a34.505 34.505 0 0 1 .138-1.762c.033-.286.061-.555.081-.804h-.064l-.859 2.419-1.835 4.822h-.876l-1.835-4.822-.845-2.419h-.064c.021.249.046.518.072.804l.082.877c.027.298.049.593.064.885.017.292.023.562.023.812v4.854h-1.737V2.857h.001z"/></g><g fill="#ECEFF1"><path d="M18.861 70.898h1.235l2.622 7.354.988 2.774h.076l.95-2.774 2.622-7.354h1.235V83.42h-.855v-8.227c0-.52.013-1.08.038-1.682.025-.602.051-1.169.076-1.701h-.076l-.988 2.756-2.679 7.485h-.779l-2.698-7.485-.988-2.756h-.076c.025.532.051 1.1.076 1.701s.038 1.162.038 1.682v8.227h-.817V70.898zM32.617 72.096a.75.75 0 0 1-.542-.209.702.702 0 0 1-.219-.532c0-.24.073-.427.219-.561a.773.773 0 0 1 .542-.199c.215 0 .396.066.542.199.146.134.218.32.218.561a.703.703 0 0 1-.218.532.755.755 0 0 1-.542.209zM32.18 74.3h.836v9.12h-.836V74.3zM36.018 81.14c0-1 .475-1.767 1.425-2.299.95-.532 2.438-.912 4.465-1.14a5.183 5.183 0 0 0-.066-1.036 2.718 2.718 0 0 0-.323-.931 1.85 1.85 0 0 0-.665-.665c-.285-.171-.649-.257-1.092-.257-.621 0-1.185.121-1.691.361-.507.241-.912.475-1.216.703l-.38-.627c.165-.114.364-.24.599-.38s.494-.267.779-.38c.285-.114.599-.212.94-.295a4.55 4.55 0 0 1 1.064-.123c.544 0 1 .092 1.368.275.367.184.665.434.893.75.228.317.39.688.484 1.111.095.425.143.884.143 1.378v5.833h-.703l-.095-1.178h-.038a10.21 10.21 0 0 1-1.511.979 3.618 3.618 0 0 1-1.719.427c-.368 0-.709-.051-1.026-.151a2.544 2.544 0 0 1-.846-.456 2.063 2.063 0 0 1-.58-.779c-.14-.316-.209-.69-.209-1.12zm.874-.038c0 .659.19 1.128.57 1.406.38.279.829.418 1.349.418a3.21 3.21 0 0 0 1.52-.38c.481-.253 1.007-.62 1.577-1.102v-3.098c-.938.114-1.726.254-2.366.418-.64.165-1.156.361-1.548.589-.393.229-.674.488-.845.779a1.877 1.877 0 0 0-.257.97zM46.012 74.3h.722l.076 1.406h.057a5.923 5.923 0 0 1 1.358-1.169c.5-.31 1.004-.465 1.511-.465.734 0 1.298.168 1.691.503.393.336.671.789.836 1.358.532-.569 1.048-1.022 1.548-1.358.5-.335 1.017-.503 1.549-.503 1.824 0 2.736 1.165 2.736 3.496v5.852h-.855v-5.738c0-.975-.165-1.693-.494-2.156-.33-.462-.842-.693-1.539-.693-.823 0-1.735.57-2.736 1.71v6.878h-.836v-5.738c0-.975-.165-1.693-.494-2.156-.33-.462-.849-.693-1.558-.693-.823 0-1.735.57-2.736 1.71v6.878h-.836V74.3zM61.876 72.096a.75.75 0 0 1-.542-.209.702.702 0 0 1-.219-.532c0-.24.073-.427.219-.561a.773.773 0 0 1 .542-.199c.215 0 .396.066.542.199.146.134.218.32.218.561a.703.703 0 0 1-.218.532.755.755 0 0 1-.542.209zm-.437 2.204h.836v9.12h-.836V74.3zM68.868 77.131c0-.988.13-1.881.39-2.679.259-.798.624-1.479 1.092-2.043a4.693 4.693 0 0 1 1.691-1.292c.659-.297 1.387-.446 2.185-.446.722 0 1.362.152 1.919.456.558.304 1 .652 1.33 1.045l-.532.57a3.908 3.908 0 0 0-1.178-.922 3.322 3.322 0 0 0-1.539-.352c-.684 0-1.301.133-1.853.399a3.987 3.987 0 0 0-1.406 1.13c-.387.488-.681 1.08-.883 1.777-.203.696-.304 1.481-.304 2.355s.101 1.662.304 2.365c.202.703.494 1.302.874 1.796s.839.877 1.378 1.149c.538.272 1.143.408 1.814.408.646 0 1.219-.126 1.719-.38.5-.253.979-.64 1.435-1.159l.532.552a5.629 5.629 0 0 1-1.615 1.311c-.596.316-1.298.475-2.109.475a4.933 4.933 0 0 1-2.128-.455 4.754 4.754 0 0 1-1.663-1.302c-.463-.564-.82-1.248-1.074-2.052-.252-.803-.379-1.705-.379-2.706zM79.527 78.879c0-.747.111-1.418.333-2.014.222-.596.52-1.099.893-1.511a3.993 3.993 0 0 1 1.273-.95 3.44 3.44 0 0 1 1.473-.332c1.089 0 1.944.367 2.565 1.102.621.735.931 1.773.931 3.116v.342c0 .114-.013.229-.038.342h-6.574c.013.57.102 1.1.266 1.587s.396.905.694 1.254c.297.349.655.621 1.073.817.418.196.887.294 1.406.294.494 0 .94-.072 1.339-.219.399-.146.77-.345 1.111-.598l.342.646c-.368.216-.77.418-1.207.608-.437.189-.991.284-1.663.284-.583 0-1.13-.107-1.644-.322a3.824 3.824 0 0 1-1.339-.94 4.552 4.552 0 0 1-.903-1.501c-.22-.59-.331-1.258-.331-2.005zm6.669-.551c0-1.178-.241-2.062-.722-2.65-.481-.589-1.134-.884-1.957-.884-.393 0-.767.082-1.121.247s-.674.398-.959.703c-.285.304-.52.674-.703 1.111a4.972 4.972 0 0 0-.352 1.473h5.814zM89.464 74.3h.722l.076 1.406h.057c.468-.469.95-.858 1.444-1.169.494-.31 1.058-.465 1.691-.465.95 0 1.646.284 2.09.854.443.57.665 1.451.665 2.642v5.852h-.836v-5.738c0-.975-.162-1.693-.485-2.156-.323-.462-.858-.693-1.605-.693-.544 0-1.039.143-1.482.428-.443.284-.944.712-1.501 1.282v6.878h-.836V74.3zM99.781 75.021h-1.425v-.646L99.8 74.3l.114-2.641h.722V74.3h2.641v.722h-2.641v5.947c0 .292.022.555.066.789.044.234.124.437.238.607.114.171.269.304.465.399.196.095.453.143.77.143.177 0 .371-.028.58-.086a3.62 3.62 0 0 0 .561-.199l.228.684a6.25 6.25 0 0 1-.798.247 3.045 3.045 0 0 1-.684.095c-.443 0-.811-.066-1.102-.199a1.76 1.76 0 0 1-.703-.561 2.18 2.18 0 0 1-.371-.874 5.594 5.594 0 0 1-.104-1.121v-5.872h-.001zM104.549 78.879c0-.747.111-1.418.333-2.014.222-.596.52-1.099.893-1.511a3.993 3.993 0 0 1 1.273-.95 3.44 3.44 0 0 1 1.473-.332c1.089 0 1.944.367 2.565 1.102.621.735.931 1.773.931 3.116v.342c0 .114-.013.229-.038.342h-6.574c.013.57.102 1.1.266 1.587s.396.905.694 1.254c.297.349.655.621 1.073.817.418.196.887.294 1.406.294.494 0 .94-.072 1.339-.219.399-.146.77-.345 1.111-.598l.342.646c-.368.216-.77.418-1.207.608-.437.189-.991.284-1.663.284-.583 0-1.13-.107-1.644-.322a3.824 3.824 0 0 1-1.339-.94 4.552 4.552 0 0 1-.903-1.501c-.22-.59-.331-1.258-.331-2.005zm6.67-.551c0-1.178-.241-2.062-.722-2.65-.481-.589-1.134-.884-1.957-.884-.393 0-.767.082-1.121.247s-.674.398-.959.703c-.285.304-.52.674-.703 1.111a4.972 4.972 0 0 0-.352 1.473h5.814zM114.486 74.3h.722l.076 1.691h.057c.304-.57.674-1.032 1.111-1.388a2.28 2.28 0 0 1 1.473-.531c.177 0 .335.013.475.038.139.025.285.075.437.151l-.19.76a1.934 1.934 0 0 0-.399-.123 2.754 2.754 0 0 0-.437-.028c-.406 0-.833.174-1.283.522-.45.349-.852.953-1.207 1.814v6.213h-.836l.001-9.119z"/></g><g fill="#ECEFF1"><path d="M21.38 119.713c-.912 0-1.633-.39-2.162-1.17-.529-.78-.793-1.908-.793-3.387 0-1.478.265-2.593.793-3.346.529-.752 1.25-1.128 2.162-1.128s1.633.378 2.162 1.135c.529.758.793 1.87.793 3.339 0 1.479-.265 2.606-.793 3.387-.529.78-1.25 1.17-2.162 1.17zm0-1.232c.209 0 .404-.057.582-.171.178-.114.331-.303.458-.568.127-.264.228-.606.301-1.025.073-.42.109-.939.109-1.561 0-.61-.037-1.124-.109-1.539-.073-.415-.173-.75-.301-1.006-.128-.255-.281-.436-.458-.54-.178-.105-.372-.157-.582-.157s-.404.052-.582.157c-.178.104-.331.285-.458.54-.128.256-.228.591-.301 1.006a9.09 9.09 0 0 0-.11 1.539c0 .621.037 1.141.11 1.561.073.419.173.762.301 1.025.128.266.281.454.458.568.177.114.372.171.582.171zM26.443 113.966c0-.31.098-.565.294-.766a.981.981 0 0 1 .732-.302c.292 0 .534.101.725.302.192.2.288.456.288.766 0 .311-.096.566-.288.767a.957.957 0 0 1-.725.301.98.98 0 0 1-.732-.301 1.054 1.054 0 0 1-.294-.767zm0 4.68c0-.31.098-.565.294-.766a.981.981 0 0 1 .732-.302c.292 0 .534.101.725.302.192.2.288.456.288.766 0 .311-.096.566-.288.767a.961.961 0 0 1-.725.301.984.984 0 0 1-.732-.301 1.054 1.054 0 0 1-.294-.767zM33.531 119.713c-.912 0-1.633-.39-2.162-1.17-.529-.78-.793-1.908-.793-3.387 0-1.478.265-2.593.793-3.346.529-.752 1.25-1.128 2.162-1.128.912 0 1.633.378 2.162 1.135.529.758.793 1.87.793 3.339 0 1.479-.265 2.606-.793 3.387-.529.78-1.25 1.17-2.162 1.17zm0-1.232c.209 0 .404-.057.582-.171.178-.114.331-.303.458-.568.127-.264.228-.606.301-1.025.073-.42.109-.939.109-1.561 0-.61-.037-1.124-.109-1.539-.073-.415-.173-.75-.301-1.006-.128-.255-.281-.436-.458-.54a1.125 1.125 0 0 0-.582-.157c-.21 0-.404.052-.582.157-.178.104-.331.285-.458.54-.128.256-.228.591-.301 1.006a9.09 9.09 0 0 0-.11 1.539c0 .621.037 1.141.11 1.561.073.419.173.762.301 1.025.128.266.281.454.458.568.177.114.372.171.582.171zM41.234 119.713c-.912 0-1.633-.39-2.162-1.17-.529-.78-.793-1.908-.793-3.387 0-1.478.265-2.593.793-3.346.529-.752 1.25-1.128 2.162-1.128s1.633.378 2.162 1.135c.529.758.793 1.87.793 3.339 0 1.479-.265 2.606-.793 3.387-.529.78-1.25 1.17-2.162 1.17zm0-1.232c.209 0 .404-.057.582-.171.178-.114.331-.303.458-.568.127-.264.228-.606.301-1.025.073-.42.109-.939.109-1.561 0-.61-.037-1.124-.109-1.539-.073-.415-.173-.75-.301-1.006-.128-.255-.281-.436-.458-.54-.178-.105-.372-.157-.582-.157s-.404.052-.582.157c-.178.104-.331.285-.458.54-.128.256-.228.591-.301 1.006a9.09 9.09 0 0 0-.11 1.539c0 .621.037 1.141.11 1.561.073.419.173.762.301 1.025.128.266.281.454.458.568.177.114.372.171.582.171z"/></g><g fill="#ECEFF1"><path d="M113.921 119.713c-.912 0-1.633-.39-2.162-1.17-.529-.78-.793-1.908-.793-3.387 0-1.478.265-2.593.793-3.346.529-.752 1.25-1.128 2.162-1.128s1.633.378 2.162 1.135c.529.758.793 1.87.793 3.339 0 1.479-.265 2.606-.793 3.387-.529.78-1.25 1.17-2.162 1.17zm0-1.232c.209 0 .404-.057.582-.171.178-.114.331-.303.458-.568.127-.264.228-.606.301-1.025.073-.42.109-.939.109-1.561 0-.61-.037-1.124-.109-1.539-.073-.415-.173-.75-.301-1.006-.128-.255-.281-.436-.458-.54-.178-.105-.372-.157-.582-.157s-.404.052-.582.157c-.178.104-.331.285-.458.54-.128.256-.228.591-.301 1.006a9.09 9.09 0 0 0-.11 1.539c0 .621.037 1.141.11 1.561.073.419.173.762.301 1.025.128.266.281.454.458.568.177.114.372.171.582.171zM120.667 116.101a1.877 1.877 0 0 1-1.539-.746c-.397-.497-.595-1.197-.595-2.1s.198-1.599.595-2.087c.396-.488.91-.732 1.539-.732s1.143.244 1.54.732.595 1.184.595 2.087c0 .902-.198 1.603-.595 2.1-.397.498-.911.746-1.54.746zm0-.917c.292 0 .531-.152.719-.458.187-.306.28-.796.28-1.471s-.094-1.161-.28-1.458c-.188-.296-.427-.444-.719-.444s-.531.148-.718.444c-.187.297-.28.783-.28 1.458 0 .675.093 1.165.28 1.471s.426.458.718.458zm.274 4.529l4.885-9.277h.958l-4.872 9.277h-.971zm6.143 0a1.878 1.878 0 0 1-1.539-.745c-.397-.498-.595-1.198-.595-2.101s.198-1.599.595-2.087c.396-.488.91-.732 1.539-.732s1.143.244 1.54.732c.396.488.595 1.184.595 2.087 0 .902-.199 1.603-.595 2.101-.397.497-.91.745-1.54.745zm0-.917c.292 0 .531-.152.718-.458.187-.306.281-.796.281-1.471s-.094-1.161-.281-1.457c-.187-.297-.426-.445-.718-.445s-.531.148-.718.445c-.187.296-.281.782-.281 1.457s.094 1.165.281 1.471c.187.306.426.458.718.458z"/></g><path fill="#ECEFF1" d="M89.408 105.025c-5.336 0-9.699 4.364-9.699 9.699s4.363 9.699 9.699 9.699c5.334 0 9.697-4.364 9.697-9.699s-4.363-9.699-9.697-9.699zm0 17.458c-4.268 0-7.76-3.491-7.76-7.759 0-4.269 3.492-7.761 7.76-7.761 4.266 0 7.758 3.492 7.758 7.761 0 4.268-3.492 7.759-7.758 7.759z" opacity=".9"/><path opacity=".9" fill="#ECEFF1" d="M89.893 109.876h-1.455v5.818l5.042 3.104.778-1.261-4.365-2.62z"/><g><g fill="#ECEFF1"><path d="M18.861 168.754h3.382c1.267 0 2.273.244 3.021.732.747.487 1.121 1.257 1.121 2.308 0 .659-.187 1.232-.561 1.72-.374.488-.928.827-1.663 1.017v.076c.924.14 1.653.459 2.185.959.532.501.798 1.188.798 2.062 0 .608-.111 1.142-.333 1.597a3.107 3.107 0 0 1-.94 1.141c-.406.304-.893.531-1.463.685-.57.151-1.21.228-1.919.228H18.86l.001-12.525zm3.04 5.511c1.292 0 2.217-.206 2.774-.618.557-.411.836-1.035.836-1.871 0-.811-.298-1.396-.893-1.758-.596-.36-1.47-.541-2.622-.541h-2.261v4.788h2.166zm.361 6.29c1.254 0 2.239-.234 2.955-.703.715-.47 1.073-1.211 1.073-2.225 0-.898-.349-1.567-1.045-2.004-.697-.438-1.691-.655-2.983-.655h-2.527v5.587h2.527zM30.185 169.951a.75.75 0 0 1-.542-.209.702.702 0 0 1-.219-.532c0-.24.073-.427.219-.561a.773.773 0 0 1 .542-.199c.215 0 .396.066.542.199.146.134.218.32.218.561a.703.703 0 0 1-.218.532.753.753 0 0 1-.542.209zm-.437 2.204h.836v9.121h-.836v-9.121zM34.099 167.614h.836v12.56c0 .202.038.352.114.446a.352.352 0 0 0 .285.144h.124c.045 0 .117-.014.219-.039l.152.685c-.089.024-.178.048-.266.065a1.557 1.557 0 0 1-.342.028c-.748 0-1.121-.479-1.121-1.442l-.001-12.447zM38.602 167.614h.836v12.56c0 .202.038.352.114.446a.352.352 0 0 0 .285.144h.124c.045 0 .117-.014.219-.039l.152.685c-.089.024-.178.048-.266.065a1.557 1.557 0 0 1-.342.028c-.748 0-1.121-.479-1.121-1.442l-.001-12.447zM42.344 184.609c.126.031.26.048.399.048.57 0 1.045-.228 1.425-.685.38-.455.684-1.033.912-1.729l.247-.799-3.743-9.291h.912l2.204 5.738c.139.38.294.798.465 1.253.171.457.345.888.522 1.293h.076c.139-.405.282-.836.427-1.293.145-.455.282-.874.409-1.253l1.957-5.738h.855l-3.61 10.26c-.126.38-.282.751-.465 1.112-.184.359-.399.684-.646.969s-.532.513-.855.684a2.29 2.29 0 0 1-1.092.258c-.342 0-.653-.063-.931-.19l.19-.74c.102.037.216.072.342.103zM54.865 179.225c.304.531.649.911 1.036 1.14.386.229.846.342 1.377.342.76 0 1.324-.229 1.691-.692.367-.463.551-1.207.551-2.232v-9.025h.874v9.12c0 .507-.057.979-.171 1.416a3.27 3.27 0 0 1-.541 1.149 2.595 2.595 0 0 1-.96.779c-.393.188-.874.283-1.444.283-.697 0-1.305-.158-1.824-.475-.52-.316-.938-.772-1.254-1.368l.665-.437zM63.187 176.734c0-.76.111-1.44.333-2.043.222-.601.52-1.104.893-1.51a3.842 3.842 0 0 1 2.86-1.254c.544 0 1.067.107 1.567.322.5.216.937.526 1.311.932.374.405.671.909.893 1.51.221.603.332 1.283.332 2.043 0 .76-.111 1.435-.332 2.023a4.53 4.53 0 0 1-.893 1.491 3.828 3.828 0 0 1-1.311.932c-.5.215-1.023.322-1.567.322a3.861 3.861 0 0 1-2.86-1.254c-.374-.405-.671-.902-.893-1.491s-.333-1.263-.333-2.023zm.874 0c0 .596.083 1.14.247 1.634.164.493.39.919.675 1.272a3.03 3.03 0 0 0 1.016.826c.392.196.817.295 1.273.295s.883-.099 1.282-.295a2.997 2.997 0 0 0 1.026-.826c.285-.354.51-.779.675-1.272a5.13 5.13 0 0 0 .247-1.634c0-.608-.083-1.159-.247-1.653a4.189 4.189 0 0 0-.675-1.282 2.958 2.958 0 0 0-1.026-.836 2.872 2.872 0 0 0-1.282-.295 2.81 2.81 0 0 0-1.273.295 2.99 2.99 0 0 0-1.016.836c-.285.361-.51.788-.675 1.282s-.247 1.045-.247 1.653zM74.112 172.155h.722l.076 1.406h.057c.468-.469.95-.858 1.444-1.169.494-.31 1.058-.465 1.691-.465.95 0 1.646.284 2.09.854.443.57.665 1.451.665 2.642v5.853h-.836v-5.738c0-.975-.162-1.693-.485-2.156-.323-.462-.858-.693-1.605-.693-.544 0-1.039.143-1.482.428-.443.284-.944.712-1.501 1.282v6.877h-.836v-9.121zM83.459 176.734c0-.747.111-1.418.333-2.014.222-.596.52-1.099.893-1.511a3.993 3.993 0 0 1 1.273-.95 3.44 3.44 0 0 1 1.473-.332c1.089 0 1.944.367 2.565 1.102.621.735.931 1.773.931 3.116v.342c0 .114-.013.229-.038.342h-6.574c.013.57.102 1.1.266 1.587.164.486.396.904.694 1.254.297.35.655.621 1.073.816.418.197.887.295 1.406.295.494 0 .94-.072 1.339-.219.399-.146.77-.346 1.111-.599l.342.646c-.368.217-.77.418-1.207.608-.437.189-.991.284-1.663.284-.583 0-1.13-.107-1.644-.322a3.835 3.835 0 0 1-1.339-.939 4.546 4.546 0 0 1-.903-1.502c-.22-.589-.331-1.257-.331-2.004zm6.67-.55c0-1.178-.241-2.062-.722-2.65-.481-.589-1.134-.884-1.957-.884-.393 0-.767.082-1.121.247s-.674.398-.959.703c-.285.304-.52.674-.703 1.111a4.972 4.972 0 0 0-.352 1.473h5.814zM92.75 179.622c.393.33.811.604 1.254.827.443.222.994.332 1.653.332.722 0 1.264-.182 1.625-.541.361-.361.542-.782.542-1.264a1.39 1.39 0 0 0-.199-.742 1.886 1.886 0 0 0-.522-.551 4.108 4.108 0 0 0-.712-.399c-.26-.113-.523-.222-.789-.323a41.124 41.124 0 0 1-1.036-.398 4.539 4.539 0 0 1-.94-.504 2.45 2.45 0 0 1-.675-.703c-.171-.271-.256-.604-.256-.997 0-.329.063-.643.19-.94.127-.297.316-.558.57-.779.253-.222.561-.396.921-.522a3.834 3.834 0 0 1 1.264-.189c.481 0 .953.089 1.415.266.462.178.858.405 1.188.684l-.456.59a5.357 5.357 0 0 0-.969-.58c-.342-.158-.748-.237-1.216-.237-.355 0-.659.048-.912.143a2.043 2.043 0 0 0-.637.37c-.171.152-.297.33-.38.532a1.593 1.593 0 0 0-.124.608c0 .266.06.49.181.674.12.185.282.346.484.484.203.14.434.264.693.371.259.107.522.212.789.313l1.064.418c.355.14.675.311.959.513.285.203.516.453.694.751.177.298.266.668.266 1.111 0 .342-.066.668-.199.979s-.333.583-.599.816a3.022 3.022 0 0 1-.969.561c-.38.141-.817.209-1.311.209a4.68 4.68 0 0 1-1.881-.37 5.808 5.808 0 0 1-1.463-.884l.493-.629z"/></g><g fill="#ECEFF1"><path d="M18.397 216.484c.602-.582 1.147-1.121 1.635-1.613.488-.493.903-.949 1.245-1.368.342-.42.604-.812.787-1.177s.274-.712.274-1.04c0-.466-.124-.832-.37-1.103-.247-.27-.602-.402-1.067-.402-.337 0-.646.096-.923.287a4.28 4.28 0 0 0-.773.684l-.875-.875a5.01 5.01 0 0 1 1.238-.992c.424-.232.937-.349 1.539-.349.42 0 .798.063 1.136.19.338.129.625.309.862.541.237.231.422.514.554.842a2.976 2.976 0 0 1-.055 2.265 6.554 6.554 0 0 1-.684 1.204 14.56 14.56 0 0 1-1.006 1.252c-.383.429-.789.871-1.218 1.327l.739-.062c.265-.022.501-.034.711-.034h2.135v1.342h-5.884v-.919zM26.443 211.818c0-.31.098-.564.294-.766a.981.981 0 0 1 .732-.302c.292 0 .534.101.725.302.192.2.288.456.288.766 0 .312-.096.566-.288.768a.957.957 0 0 1-.725.301.98.98 0 0 1-.732-.301c-.196-.2-.294-.456-.294-.768zm0 4.681c0-.31.098-.565.294-.767.196-.2.44-.301.732-.301s.534.101.725.301c.192.201.288.457.288.767 0 .312-.096.565-.288.767a.961.961 0 0 1-.725.301.984.984 0 0 1-.732-.301 1.052 1.052 0 0 1-.294-.767zM31.109 215.322c.264.265.565.49.903.678a2.35 2.35 0 0 0 1.163.279c.474 0 .86-.115 1.156-.348.296-.233.445-.556.445-.966 0-.228-.041-.434-.123-.616a1.102 1.102 0 0 0-.417-.465c-.196-.128-.458-.226-.787-.294a6.288 6.288 0 0 0-1.231-.103v-1.149c.429 0 .787-.034 1.074-.103s.52-.166.698-.288c.178-.123.305-.271.383-.444s.117-.359.117-.561c0-.365-.114-.65-.342-.855s-.543-.308-.944-.308a1.93 1.93 0 0 0-.937.226c-.278.15-.55.35-.814.596l-.807-.973a5.14 5.14 0 0 1 1.197-.793 3.264 3.264 0 0 1 1.416-.301c.42 0 .803.05 1.149.15.346.1.643.248.89.443.246.196.438.438.575.727.137.287.205.612.205.978 0 .493-.135.903-.403 1.231-.27.328-.641.584-1.115.767v.055c.52.138.951.388 1.293.753s.513.836.513 1.409c0 .401-.08.757-.24 1.067a2.33 2.33 0 0 1-.657.787 3.053 3.053 0 0 1-.971.492 4.03 4.03 0 0 1-1.184.17c-.712 0-1.305-.117-1.779-.354a3.857 3.857 0 0 1-1.177-.876l.751-1.011zM41.234 217.566c-.912 0-1.633-.391-2.162-1.17-.529-.78-.793-1.908-.793-3.388 0-1.478.265-2.593.793-3.346.529-.752 1.25-1.128 2.162-1.128s1.633.378 2.162 1.135c.529.758.793 1.87.793 3.339 0 1.479-.265 2.606-.793 3.388-.529.781-1.25 1.17-2.162 1.17zm0-1.231c.209 0 .404-.058.582-.171.178-.114.331-.303.458-.568.127-.264.228-.605.301-1.025.073-.42.109-.938.109-1.561 0-.609-.037-1.123-.109-1.539-.073-.414-.173-.75-.301-1.006-.128-.255-.281-.436-.458-.54-.178-.104-.372-.157-.582-.157s-.404.053-.582.157c-.178.104-.331.285-.458.54-.128.256-.228.592-.301 1.006-.073.415-.11.93-.11 1.539 0 .621.037 1.141.11 1.561.073.42.173.763.301 1.025.128.266.281.454.458.568.177.113.372.171.582.171z"/></g><g fill="#ECEFF1"><path d="M110.938 216.484c.602-.582 1.147-1.121 1.635-1.613.488-.493.903-.949 1.245-1.368.342-.42.604-.812.787-1.177s.274-.712.274-1.04c0-.466-.124-.832-.37-1.103-.247-.27-.602-.402-1.067-.402-.337 0-.646.096-.923.287a4.28 4.28 0 0 0-.773.684l-.875-.875a5.01 5.01 0 0 1 1.238-.992c.424-.232.937-.349 1.539-.349.42 0 .798.063 1.136.19.338.129.625.309.862.541.237.231.422.514.554.842a2.976 2.976 0 0 1-.055 2.265 6.554 6.554 0 0 1-.684 1.204 14.56 14.56 0 0 1-1.006 1.252c-.383.429-.789.871-1.218 1.327l.739-.062c.265-.022.501-.034.711-.034h2.135v1.342h-5.884v-.919zM119.203 215.322c.264.265.565.49.903.678a2.35 2.35 0 0 0 1.163.279c.474 0 .86-.115 1.156-.348.296-.233.445-.556.445-.966 0-.228-.041-.434-.123-.616a1.102 1.102 0 0 0-.417-.465c-.196-.128-.458-.226-.787-.294a6.288 6.288 0 0 0-1.231-.103v-1.149c.429 0 .787-.034 1.074-.103.287-.068.52-.166.698-.288.178-.123.305-.271.383-.444.078-.173.117-.359.117-.561 0-.365-.114-.65-.342-.855s-.543-.308-.944-.308a1.93 1.93 0 0 0-.937.226c-.278.15-.55.35-.814.596l-.807-.973a5.14 5.14 0 0 1 1.197-.793 3.264 3.264 0 0 1 1.416-.301c.42 0 .803.05 1.149.15.346.1.643.248.89.443.246.196.438.438.575.727.137.287.205.612.205.978 0 .493-.135.903-.403 1.231-.27.328-.641.584-1.115.767v.055c.52.138.951.388 1.293.753.342.365.513.836.513 1.409 0 .401-.08.757-.24 1.067a2.33 2.33 0 0 1-.657.787 3.053 3.053 0 0 1-.971.492 4.03 4.03 0 0 1-1.184.17c-.712 0-1.305-.117-1.779-.354a3.857 3.857 0 0 1-1.177-.876l.751-1.011zM128.37 213.954a1.877 1.877 0 0 1-1.539-.746c-.397-.497-.595-1.197-.595-2.101 0-.902.198-1.599.595-2.086.396-.488.91-.732 1.539-.732s1.143.244 1.54.732c.397.487.595 1.184.595 2.086s-.198 1.604-.595 2.101c-.397.498-.91.746-1.54.746zm0-.917c.292 0 .531-.152.719-.458.187-.306.28-.796.28-1.472 0-.674-.094-1.16-.28-1.457-.188-.297-.427-.444-.719-.444s-.531.147-.718.444-.28.783-.28 1.457c0 .676.093 1.166.28 1.472s.426.458.718.458zm.274 4.529l4.885-9.277h.958l-4.872 9.277h-.971zm6.144 0a1.877 1.877 0 0 1-1.539-.746c-.397-.497-.595-1.197-.595-2.1 0-.904.198-1.6.595-2.088.396-.488.91-.732 1.539-.732s1.143.244 1.54.732c.396.488.595 1.184.595 2.088 0 .901-.199 1.603-.595 2.1-.398.498-.911.746-1.54.746zm0-.918c.292 0 .531-.151.718-.457.187-.307.281-.797.281-1.471 0-.676-.094-1.162-.281-1.457-.187-.298-.426-.445-.718-.445s-.531.147-.718.445c-.187.295-.281.781-.281 1.457 0 .674.094 1.164.281 1.471.187.306.426.457.718.457z"/></g><path fill="#ECEFF1" d="M89.406 202.88c-5.334 0-9.699 4.363-9.699 9.699 0 5.335 4.365 9.698 9.699 9.698 5.336 0 9.699-4.363 9.699-9.698 0-5.336-4.363-9.699-9.699-9.699zm0 17.459c-4.268 0-7.76-3.493-7.76-7.76 0-4.269 3.492-7.761 7.76-7.761s7.76 3.492 7.76 7.761c0 4.267-3.492 7.76-7.76 7.76z" opacity=".9"/><path opacity=".9" fill="#ECEFF1" d="M89.893 207.729h-1.455v5.819l5.042 3.104.776-1.261-4.363-2.62z"/></g><g><g fill="#ECEFF1"><path d="M18.861 267.502h6.821v.762h-5.947v4.978h5.035V274h-5.035v6.023h-.874v-12.521zM26.727 277.743c0-1 .475-1.767 1.425-2.3.95-.531 2.438-.911 4.465-1.139a5.193 5.193 0 0 0-.066-1.037c-.057-.348-.165-.658-.323-.931s-.38-.494-.665-.665-.649-.257-1.092-.257c-.621 0-1.185.121-1.691.36-.507.242-.912.476-1.216.703l-.38-.627c.165-.113.364-.24.599-.379.235-.141.494-.268.779-.381s.599-.212.94-.295a4.55 4.55 0 0 1 1.064-.123c.544 0 1 .092 1.368.275.367.184.665.434.893.75s.39.688.484 1.111c.095.424.143.883.143 1.377v5.834h-.704l-.095-1.179h-.038a10.21 10.21 0 0 1-1.511.979 3.618 3.618 0 0 1-1.719.427 3.42 3.42 0 0 1-1.026-.151 2.56 2.56 0 0 1-.846-.455 2.079 2.079 0 0 1-.58-.779c-.138-.313-.208-.687-.208-1.118zm.874-.038c0 .658.19 1.128.57 1.406.38.279.829.418 1.349.418.532 0 1.039-.127 1.52-.381.481-.252 1.007-.619 1.577-1.102v-3.098c-.938.113-1.726.254-2.366.418-.64.165-1.156.361-1.548.589-.393.229-.674.487-.845.778a1.901 1.901 0 0 0-.257.972zM36.721 266.361h.836v3.953l-.038 1.785a8.363 8.363 0 0 1 1.501-1.007 3.527 3.527 0 0 1 1.653-.418c1.216 0 2.128.421 2.736 1.263.608.844.912 1.975.912 3.393 0 .773-.108 1.463-.323 2.07a4.692 4.692 0 0 1-.883 1.55 3.832 3.832 0 0 1-1.292.969 3.653 3.653 0 0 1-1.53.332c-.443 0-.902-.099-1.377-.294s-.928-.459-1.358-.789h-.038l-.095.855h-.703l-.001-13.662zm.836 11.971c.506.432.994.734 1.463.912.469.178.88.267 1.235.267.456 0 .88-.102 1.273-.305a2.958 2.958 0 0 0 1.007-.854 4.24 4.24 0 0 0 .655-1.319c.159-.515.238-1.08.238-1.701 0-.558-.054-1.076-.162-1.558s-.275-.896-.503-1.244-.526-.621-.893-.817c-.368-.196-.811-.295-1.33-.295-.456 0-.931.131-1.425.39-.494.26-1.014.631-1.558 1.111v5.413zM47.494 268.699a.75.75 0 0 1-.542-.209.702.702 0 0 1-.219-.532c0-.24.073-.427.219-.562a.773.773 0 0 1 .542-.199c.215 0 .396.066.542.199.146.135.218.32.218.562a.703.703 0 0 1-.218.532.754.754 0 0 1-.542.209zm-.437 2.203h.836v9.121h-.836v-9.121zM50.647 275.482c0-.76.111-1.44.333-2.043.222-.602.52-1.104.893-1.51a3.844 3.844 0 0 1 2.86-1.255c.544 0 1.067.107 1.567.322.5.216.937.526 1.311.933.374.404.671.908.893 1.51.221.603.332 1.283.332 2.043s-.111 1.435-.332 2.022a4.53 4.53 0 0 1-.893 1.491 3.828 3.828 0 0 1-1.311.932c-.5.215-1.023.322-1.567.322a3.861 3.861 0 0 1-2.86-1.254c-.374-.405-.671-.902-.893-1.491s-.333-1.262-.333-2.022zm.874 0c0 .596.083 1.14.247 1.634.164.493.39.919.675 1.272a3.03 3.03 0 0 0 1.016.826c.392.196.817.295 1.273.295s.883-.099 1.282-.295a2.997 2.997 0 0 0 1.026-.826c.285-.354.51-.779.675-1.272a5.13 5.13 0 0 0 .247-1.634c0-.608-.083-1.159-.247-1.653-.165-.494-.39-.921-.675-1.282s-.627-.641-1.026-.836-.827-.295-1.282-.295c-.456 0-.881.1-1.273.295a2.99 2.99 0 0 0-1.016.836c-.285.361-.51.788-.675 1.282s-.247 1.045-.247 1.653zM65.448 267.502h6.821v.762h-5.947v4.978h5.035V274h-5.035v6.023h-.874v-12.521zM73.447 275.482c0-.748.111-1.418.333-2.015.222-.596.52-1.099.893-1.511a3.993 3.993 0 0 1 1.273-.95 3.44 3.44 0 0 1 1.473-.332c1.089 0 1.944.367 2.565 1.103.621.734.931 1.772.931 3.115v.342c0 .115-.013.229-.038.343h-6.574c.013.569.102 1.1.266 1.587.164.486.396.904.694 1.254.297.35.655.621 1.073.816.418.197.887.295 1.406.295.494 0 .94-.072 1.339-.219s.77-.346 1.111-.599l.342.646c-.368.217-.77.418-1.207.608-.437.188-.991.284-1.663.284-.583 0-1.13-.107-1.644-.322a3.835 3.835 0 0 1-1.339-.939 4.546 4.546 0 0 1-.903-1.502c-.22-.59-.331-1.257-.331-2.004zm6.669-.55c0-1.178-.241-2.062-.722-2.649-.481-.589-1.134-.884-1.957-.884-.393 0-.767.082-1.121.246-.354.166-.674.398-.959.703s-.52.674-.703 1.111a4.98 4.98 0 0 0-.352 1.473h5.814zM83.384 270.902h.722l.076 1.691h.057a4.486 4.486 0 0 1 1.111-1.388 2.28 2.28 0 0 1 1.473-.531c.177 0 .335.013.475.038.139.025.285.075.437.151l-.19.76c-.152-.062-.285-.104-.399-.123s-.26-.028-.437-.028c-.406 0-.833.174-1.283.522-.45.349-.852.953-1.207 1.813v6.213h-.836l.001-9.118zM89.407 270.902h.722l.076 1.691h.057a4.486 4.486 0 0 1 1.111-1.388 2.28 2.28 0 0 1 1.473-.531c.177 0 .335.013.475.038.139.025.285.075.437.151l-.19.76a1.934 1.934 0 0 0-.399-.123 2.754 2.754 0 0 0-.437-.028c-.406 0-.833.174-1.283.522-.45.349-.852.953-1.207 1.813v6.213h-.836v-9.119h.001zM94.479 275.482c0-.748.111-1.418.333-2.015.222-.596.52-1.099.893-1.511.374-.411.798-.729 1.273-.95s.966-.332 1.473-.332c1.089 0 1.944.367 2.565 1.103.621.734.931 1.772.931 3.115v.342c0 .115-.013.229-.038.343h-6.574c.013.569.102 1.1.266 1.587.164.486.396.904.694 1.254.297.35.655.621 1.073.816.418.197.887.295 1.406.295.494 0 .94-.072 1.339-.219.399-.146.77-.346 1.111-.599l.342.646c-.368.217-.77.418-1.207.608-.437.188-.991.284-1.663.284-.583 0-1.13-.107-1.644-.322a3.835 3.835 0 0 1-1.339-.939 4.546 4.546 0 0 1-.903-1.502c-.22-.59-.331-1.257-.331-2.004zm6.67-.55c0-1.178-.241-2.062-.722-2.649-.481-.589-1.134-.884-1.957-.884-.393 0-.767.082-1.121.246a3.11 3.11 0 0 0-.959.703 3.7 3.7 0 0 0-.703 1.111 4.98 4.98 0 0 0-.352 1.473h5.814zM104.417 270.902h.722l.076 1.691h.057a4.486 4.486 0 0 1 1.111-1.388 2.28 2.28 0 0 1 1.473-.531c.177 0 .335.013.475.038.139.025.285.075.437.151l-.19.76a1.934 1.934 0 0 0-.399-.123 2.754 2.754 0 0 0-.437-.028c-.406 0-.833.174-1.283.522s-.852.953-1.207 1.813v6.213h-.836l.001-9.118zM109.489 277.743c0-1 .475-1.767 1.425-2.3.95-.531 2.438-.911 4.465-1.139a5.193 5.193 0 0 0-.066-1.037 2.718 2.718 0 0 0-.323-.931 1.859 1.859 0 0 0-.665-.665c-.285-.171-.649-.257-1.092-.257-.621 0-1.185.121-1.691.36-.507.242-.912.476-1.216.703l-.38-.627c.165-.113.364-.24.599-.379.235-.141.494-.268.779-.381.285-.113.599-.212.94-.295a4.55 4.55 0 0 1 1.064-.123c.544 0 1 .092 1.368.275.367.184.665.434.893.75s.39.688.484 1.111c.095.424.143.883.143 1.377v5.834h-.703l-.095-1.179h-.038a10.21 10.21 0 0 1-1.511.979 3.618 3.618 0 0 1-1.719.427 3.42 3.42 0 0 1-1.026-.151 2.56 2.56 0 0 1-.846-.455 2.079 2.079 0 0 1-.58-.779c-.139-.313-.209-.687-.209-1.118zm.874-.038c0 .658.19 1.128.57 1.406.38.279.829.418 1.349.418.532 0 1.039-.127 1.52-.381.481-.252 1.007-.619 1.577-1.102v-3.098c-.938.113-1.726.254-2.366.418-.64.165-1.156.361-1.548.589-.393.229-.674.487-.845.778a1.892 1.892 0 0 0-.257.972z"/></g><g fill="#ECEFF1"><path d="M21.38 316.316c-.912 0-1.633-.391-2.162-1.17-.529-.78-.793-1.908-.793-3.388 0-1.478.265-2.593.793-3.346.529-.752 1.25-1.128 2.162-1.128s1.633.378 2.162 1.135c.529.758.793 1.87.793 3.339 0 1.479-.265 2.606-.793 3.388-.529.781-1.25 1.17-2.162 1.17zm0-1.231c.209 0 .404-.057.582-.171.178-.114.331-.303.458-.568.127-.264.228-.605.301-1.024.073-.42.109-.939.109-1.562 0-.609-.037-1.124-.109-1.539-.073-.415-.173-.75-.301-1.006-.128-.255-.281-.436-.458-.54-.178-.104-.372-.157-.582-.157s-.404.053-.582.157c-.178.104-.331.285-.458.54-.128.256-.228.591-.301 1.006-.073.415-.11.93-.11 1.539 0 .621.037 1.142.11 1.562.073.419.173.762.301 1.024.128.267.281.454.458.568.177.114.372.171.582.171zM26.443 310.569c0-.311.098-.565.294-.767a.981.981 0 0 1 .732-.302c.292 0 .534.101.725.302.192.2.288.456.288.767s-.096.565-.288.767a.957.957 0 0 1-.725.301.98.98 0 0 1-.732-.301 1.05 1.05 0 0 1-.294-.767zm0 4.68c0-.31.098-.565.294-.766a.982.982 0 0 1 .732-.303c.292 0 .534.102.725.303.192.199.288.456.288.766 0 .311-.096.566-.288.767a.962.962 0 0 1-.725.302.985.985 0 0 1-.732-.302 1.052 1.052 0 0 1-.294-.767zM33.531 316.316c-.912 0-1.633-.391-2.162-1.17-.529-.78-.793-1.908-.793-3.388 0-1.478.265-2.593.793-3.346.529-.752 1.25-1.128 2.162-1.128.912 0 1.633.378 2.162 1.135.529.758.793 1.87.793 3.339 0 1.479-.265 2.606-.793 3.388-.529.781-1.25 1.17-2.162 1.17zm0-1.231c.209 0 .404-.057.582-.171.178-.114.331-.303.458-.568.127-.264.228-.605.301-1.024.073-.42.109-.939.109-1.562 0-.609-.037-1.124-.109-1.539-.073-.415-.173-.75-.301-1.006-.128-.255-.281-.436-.458-.54a1.134 1.134 0 0 0-.582-.157c-.21 0-.404.053-.582.157-.178.104-.331.285-.458.54-.128.256-.228.591-.301 1.006-.073.415-.11.93-.11 1.539 0 .621.037 1.142.11 1.562.073.419.173.762.301 1.024.128.267.281.454.458.568.177.114.372.171.582.171zM41.234 316.316c-.912 0-1.633-.391-2.162-1.17-.529-.78-.793-1.908-.793-3.388 0-1.478.265-2.593.793-3.346.529-.752 1.25-1.128 2.162-1.128s1.633.378 2.162 1.135c.529.758.793 1.87.793 3.339 0 1.479-.265 2.606-.793 3.388-.529.781-1.25 1.17-2.162 1.17zm0-1.231c.209 0 .404-.057.582-.171.178-.114.331-.303.458-.568.127-.264.228-.605.301-1.024.073-.42.109-.939.109-1.562 0-.609-.037-1.124-.109-1.539-.073-.415-.173-.75-.301-1.006-.128-.255-.281-.436-.458-.54-.178-.104-.372-.157-.582-.157s-.404.053-.582.157c-.178.104-.331.285-.458.54-.128.256-.228.591-.301 1.006-.073.415-.11.93-.11 1.539 0 .621.037 1.142.11 1.562.073.419.173.762.301 1.024.128.267.281.454.458.568.177.114.372.171.582.171z"/></g><g fill="#ECEFF1"><path d="M113.921 316.316c-.912 0-1.633-.391-2.162-1.17-.529-.78-.793-1.908-.793-3.388 0-1.478.265-2.593.793-3.346.529-.752 1.25-1.128 2.162-1.128s1.633.378 2.162 1.135c.529.758.793 1.87.793 3.339 0 1.479-.265 2.606-.793 3.388-.529.781-1.25 1.17-2.162 1.17zm0-1.231c.209 0 .404-.057.582-.171.178-.114.331-.303.458-.568.127-.264.228-.605.301-1.024.073-.42.109-.939.109-1.562 0-.609-.037-1.124-.109-1.539-.073-.415-.173-.75-.301-1.006-.128-.255-.281-.436-.458-.54-.178-.104-.372-.157-.582-.157s-.404.053-.582.157c-.178.104-.331.285-.458.54-.128.256-.228.591-.301 1.006-.073.415-.11.93-.11 1.539 0 .621.037 1.142.11 1.562.073.419.173.762.301 1.024.128.267.281.454.458.568.177.114.372.171.582.171zM120.667 312.704a1.877 1.877 0 0 1-1.539-.746c-.397-.497-.595-1.197-.595-2.1s.198-1.6.595-2.087c.396-.488.91-.732 1.539-.732s1.143.244 1.54.732c.397.487.595 1.184.595 2.087 0 .901-.198 1.603-.595 2.1-.397.498-.911.746-1.54.746zm0-.917c.292 0 .531-.152.719-.458.187-.306.28-.796.28-1.471 0-.676-.094-1.161-.28-1.458-.188-.297-.427-.444-.719-.444s-.531.147-.718.444-.28.782-.28 1.458c0 .675.093 1.165.28 1.471s.426.458.718.458zm.274 4.529l4.885-9.277h.958l-4.872 9.277h-.971zm6.143 0a1.878 1.878 0 0 1-1.539-.745c-.397-.498-.595-1.198-.595-2.102 0-.902.198-1.599.595-2.087.396-.488.91-.731 1.539-.731s1.143.243 1.54.731c.396.488.595 1.185.595 2.087s-.199 1.604-.595 2.102c-.397.497-.91.745-1.54.745zm0-.917c.292 0 .531-.152.718-.458.187-.307.281-.797.281-1.472s-.094-1.161-.281-1.457c-.187-.297-.426-.444-.718-.444s-.531.147-.718.444c-.187.296-.281.782-.281 1.457s.094 1.165.281 1.472c.187.306.426.458.718.458z"/></g><path fill="#ECEFF1" d="M89.408 301.63c-5.334 0-9.699 4.362-9.699 9.697 0 5.336 4.365 9.699 9.699 9.699s9.699-4.363 9.699-9.699c0-5.335-4.365-9.697-9.699-9.697zm0 17.458c-4.268 0-7.76-3.493-7.76-7.761 0-4.269 3.492-7.761 7.76-7.761 4.266 0 7.76 3.492 7.76 7.761 0 4.268-3.494 7.761-7.76 7.761z" opacity=".9"/><path opacity=".9" fill="#ECEFF1" d="M89.893 306.478h-1.455v5.819l5.042 3.104.778-1.261-4.365-2.619z"/></g></svg>