<svg xmlns="http://www.w3.org/2000/svg" width="980" height="356" viewBox="0 0 980 356"><path fill="#34B2FF" d="M255.5 60.1h301.1v69.7H255.5z"/><g fill="#FFF"><path d="M265.8 108.4c0-.6.1-1.1.3-1.6.2-.5.4-.8.7-1.2.3-.3.6-.6 1-.7s.8-.2 1.3-.2c.4 0 .8.1 1.2.3l.9.6-.7.8c-.2-.2-.4-.3-.6-.4-.2-.1-.4-.2-.7-.2-.3 0-.6.1-.8.2-.2.1-.5.3-.6.5-.2.2-.3.5-.4.8-.1.3-.1.7-.1 1.1 0 .8.2 1.4.5 1.9s.8.7 1.4.7c.3 0 .6-.1.8-.2s.5-.3.7-.5l.7.8c-.3.3-.6.6-1 .8-.4.2-.8.3-1.2.3-.5 0-.9-.1-1.3-.2-.4-.2-.7-.4-1-.7-.3-.3-.5-.7-.7-1.1-.3-.7-.4-1.2-.4-1.8zM275.3 112c-.5 0-.9-.1-1.3-.3-.4-.2-.7-.4-1-.7-.3-.3-.5-.7-.6-1.2-.2-.5-.2-1-.2-1.5 0-.6.1-1.1.2-1.5s.4-.8.6-1.1c.3-.3.6-.5 1-.7.4-.2.8-.2 1.3-.2s.9.1 1.3.2c.4.2.7.4 1 .7.3.3.5.7.6 1.1.2.5.2 1 .2 1.5 0 .6-.1 1.1-.2 1.5-.2.5-.4.8-.6 1.2-.3.3-.6.6-1 .7-.4.3-.8.3-1.3.3zm0-1c.3 0 .5-.1.8-.2s.4-.3.6-.5c.2-.2.3-.5.4-.8.1-.3.1-.7.1-1.1 0-.8-.2-1.4-.5-1.9s-.8-.7-1.3-.7-1 .2-1.3.7c-.3.5-.5 1.1-.5 1.9 0 .4 0 .8.1 1.1.1.3.2.6.4.8.2.2.4.4.6.5.1.1.4.2.6.2zM280.4 104.8h1.4l1.3 3.5.5 1.3.5-1.3 1.3-3.5h1.4v7.1h-1.2v-3.2-.5-.6c0-.2 0-.4.1-.6 0-.2 0-.4.1-.5l-.6 1.6-1.2 3.2h-.6L282 108l-.6-1.6v.5c0 .2 0 .4.1.6V111.8h-1.2v-7h.1zM289.1 104.8h2.4c.4 0 .8 0 1.1.1.3.1.6.2.9.4.2.2.4.4.6.7.1.3.2.6.2 1s-.1.7-.2 1c-.1.3-.3.5-.6.7-.2.2-.5.3-.9.4-.3.1-.7.1-1.1.1h-1.1v2.6h-1.3v-7zm2.2 3.5c1 0 1.6-.4 1.6-1.3 0-.4-.1-.8-.4-.9-.3-.2-.6-.3-1.2-.3h-1v2.5h1zM298.8 112c-.5 0-.9-.1-1.3-.3-.4-.2-.7-.4-1-.7-.3-.3-.5-.7-.6-1.2-.2-.5-.2-1-.2-1.5 0-.6.1-1.1.2-1.5.2-.5.4-.8.6-1.1.3-.3.6-.5 1-.7.4-.2.8-.2 1.3-.2s.9.1 1.3.2c.4.2.7.4 1 .7.3.3.5.7.6 1.1.2.5.2 1 .2 1.5 0 .6-.1 1.1-.2 1.5-.2.5-.4.8-.6 1.2-.3.3-.6.6-1 .7-.5.3-.9.3-1.3.3zm0-1c.3 0 .5-.1.8-.2s.4-.3.6-.5c.2-.2.3-.5.4-.8.1-.3.1-.7.1-1.1 0-.8-.2-1.4-.5-1.9s-.8-.7-1.3-.7c-.6 0-1 .2-1.3.7-.3.5-.5 1.1-.5 1.9 0 .4 0 .8.1 1.1.1.3.2.6.4.8.2.2.4.4.6.5 0 .1.3.2.6.2zM303.9 104.8h1.3l2.2 4 .7 1.5c0-.4-.1-.8-.1-1.2 0-.4-.1-.8-.1-1.2v-3.1h1.2v7.1h-1.3l-2.2-4-.7-1.5c0 .4.1.8.1 1.2 0 .4.1.8.1 1.2v3.1h-1.2v-7.1zM311.5 104.8h4.3v1.1h-3v1.8h2.5v1.1h-2.5v2.1h3.1v1.1h-4.4v-7.2zM317.9 104.8h1.3l2.2 4 .7 1.5c0-.4-.1-.8-.1-1.2 0-.4-.1-.8-.1-1.2v-3.1h1.2v7.1h-1.3l-2.2-4-.7-1.5c0 .4.1.8.1 1.2 0 .4.1.8.1 1.2v3.1h-1.2v-7.1zM327 105.9h-2v-1.1h5.4v1.1h-2v6H327v-6zM334.7 104.8h4.3v1.1h-3v2h2.6v1.1H336v3h-1.3v-7.2zM343.7 110h-2.4l-.6 1.9h-1.3l2.3-7.1h1.5l2.3 7.1h-1.3l-.5-1.9zm-.3-1l-.2-.9-.3-1.2-.3-1.2-.3 1.2-.3 1.2-.2.9h1.6zM347 104.8h1.3v7.1H347v-7.1zM350.6 104.8h1.3v6h2.9v1.1h-4.2v-7.1zM356.2 104.8h1.3v4.1c0 .4 0 .7.1 1 .1.3.2.5.3.6.1.2.3.3.4.3.2.1.4.1.6.1.2 0 .4 0 .6-.1.2-.1.3-.2.5-.3l.3-.6c.1-.3.1-.6.1-1v-4.1h1.2v4c0 .6-.1 1.1-.2 1.5-.1.4-.3.7-.5 1-.2.3-.5.4-.8.6-.3.1-.7.2-1.1.2-.4 0-.8-.1-1.1-.2-.3-.1-.6-.3-.8-.6-.2-.3-.4-.6-.5-1-.1-.4-.2-.9-.2-1.5l-.2-4zM367.7 111.9l-1.5-2.8h-1.1v2.8h-1.3v-7.1h2.4c.4 0 .7 0 1 .1.3.1.6.2.8.4.2.2.4.4.5.6.1.3.2.6.2 1 0 .5-.1 1-.4 1.3-.3.3-.6.6-1 .7l1.7 3h-1.3zm-2.6-3.8h1c.5 0 .9-.1 1.1-.3.3-.2.4-.5.4-.9s-.1-.7-.4-.9c-.3-.2-.6-.2-1.1-.2h-1v2.3zM370.9 104.8h4.3v1.1h-3v1.8h2.5v1.1h-2.5v2.1h3.1v1.1h-4.4v-7.2zM380.3 111.5c-.2-.8-.4-1.7-.4-2.6 0-1 .1-1.8.4-2.6.2-.8.6-1.6 1.1-2.3l.8.3c-.4.7-.7 1.4-.9 2.2-.2.8-.3 1.6-.3 2.4 0 .8.1 1.6.3 2.4.2.8.5 1.5.9 2.2l-.8.3c-.5-.7-.8-1.5-1.1-2.3zM384.1 104.8h2.4c.4 0 .8 0 1.1.1.3.1.6.2.9.4.2.2.4.4.6.7.1.3.2.6.2 1s-.1.7-.2 1-.3.5-.6.7c-.2.2-.5.3-.9.4-.3.1-.7.1-1.1.1h-1.1v2.6h-1.3v-7zm2.2 3.5c1 0 1.6-.4 1.6-1.3 0-.4-.1-.8-.4-.9-.3-.2-.6-.3-1.2-.3h-1v2.5h1zM391.2 110.2c.3.2.5.4.9.6.3.1.6.2 1 .2s.7-.1.9-.2c.2-.2.3-.4.3-.7 0-.1 0-.3-.1-.4-.1-.1-.1-.2-.2-.3-.1-.1-.2-.1-.3-.2-.1-.1-.3-.1-.4-.2l-1-.4c-.2-.1-.3-.2-.5-.3s-.3-.2-.5-.4c-.1-.2-.2-.3-.3-.5-.1-.2-.1-.4-.1-.7 0-.3.1-.5.2-.8.1-.2.3-.5.5-.6.2-.2.5-.3.8-.4.3-.1.6-.2 1-.2s.8.1 1.2.2c.4.2.7.4 1 .7l-.6.8c-.2-.2-.5-.3-.7-.4-.2-.1-.5-.2-.8-.2-.3 0-.6.1-.8.2-.2.1-.3.4-.3.6 0 .1 0 .3.1.4.1.1.1.2.2.3.1.1.2.1.4.2.1.1.3.1.4.2l1 .4.6.3c.2.1.3.2.5.4.1.2.2.3.3.5.1.2.1.4.1.7 0 .3-.1.6-.2.8-.1.3-.3.5-.5.7-.2.2-.5.3-.8.5-.3.1-.7.2-1.1.2-.5 0-.9-.1-1.4-.3-.4-.2-.8-.4-1.2-.8l.4-.9zM397.8 111.3c.2-.8.3-1.6.3-2.4 0-.8-.1-1.6-.3-2.4-.2-.8-.5-1.5-.9-2.2l.8-.3c.5.7.8 1.5 1.1 2.3.2.8.4 1.7.4 2.6 0 1-.1 1.8-.4 2.6-.2.8-.6 1.6-1.1 2.3l-.8-.3c.4-.7.7-1.4.9-2.2z"/></g><path fill="none" d="M265.3 81.2h192v20.6h-192z"/><path fill="#FFF" d="M270.4 91.1h-3.2l-.8 2.6h-1.1l2.9-8.7h1.2l2.9 8.7h-1.2l-.7-2.6zm-.2-.9l-.4-1.3c-.2-.5-.3-1-.5-1.4-.1-.5-.3-1-.4-1.5h-.1c-.1.5-.3 1-.4 1.5-.1.5-.3 1-.5 1.4l-.4 1.3h2.7zM273.6 87.3h.9l.1.9c.3-.3.6-.6.9-.8.3-.2.7-.3 1.1-.3.5 0 .9.1 1.2.3.3.2.5.5.6.9.3-.4.7-.7 1-.9.3-.2.7-.3 1.1-.3.7 0 1.2.2 1.5.6.3.4.5 1.1.5 1.9v4.1h-1.1v-3.9c0-.6-.1-1-.3-1.3-.2-.3-.5-.4-.9-.4-.5 0-1 .3-1.6 1v4.7h-1.1v-3.9c0-.6-.1-1-.3-1.3-.2-.3-.5-.4-.9-.4-.5 0-1 .3-1.6 1v4.7h-1.1v-6.6zM284.1 90.6c0-.5.1-1 .2-1.4s.4-.8.6-1.1c.3-.3.6-.5.9-.7.3-.2.7-.2 1.1-.2.4 0 .8.1 1.1.2.3.1.6.3.8.6.2.3.4.6.5 1 .1.4.2.8.2 1.2v.6h-4.3c0 .7.3 1.2.6 1.7.4.4.9.6 1.5.6.3 0 .6 0 .9-.1.3-.1.5-.2.7-.4l.4.7c-.3.2-.6.3-.9.5-.3.1-.7.2-1.2.2-.4 0-.8-.1-1.2-.2-.4-.2-.7-.4-1-.7-.3-.3-.5-.6-.7-1.1-.2-.4-.2-.9-.2-1.4zm4.5-.5c0-.7-.1-1.2-.4-1.5s-.7-.6-1.2-.6c-.2 0-.4 0-.7.1-.2.1-.4.2-.6.4-.2.2-.3.4-.4.6-.1.3-.2.5-.2.9h3.5zM291.1 87.3h.9l.1 1.2c.2-.4.5-.7.8-1 .3-.2.7-.4 1-.4.3 0 .5 0 .7.1l-.2 1c-.1 0-.2-.1-.3-.1h-.3c-.3 0-.6.1-.9.3-.3.2-.6.6-.8 1.2v4.1H291l.1-6.4zM296.3 86c-.2 0-.4-.1-.5-.2-.1-.1-.2-.3-.2-.5s.1-.4.2-.5.3-.2.5-.2.4.1.5.2c.1.1.2.3.2.5s-.1.4-.2.5-.3.2-.5.2zm-.6 1.3h1.1v6.4h-1.1v-6.4zM298.5 90.6c0-.5.1-1 .3-1.4.2-.4.4-.8.7-1.1.3-.3.6-.5 1-.7.4-.1.8-.2 1.2-.2.4 0 .8.1 1.1.2.3.2.6.3.8.5l-.5.7c-.2-.2-.4-.3-.6-.4-.2-.1-.4-.2-.7-.2-.3 0-.6.1-.8.2-.2.1-.5.3-.6.5-.2.2-.3.5-.4.8-.1.3-.2.6-.2 1s0 .7.1 1c.1.3.2.6.4.8.2.2.4.4.6.5.2.1.5.2.8.2.3 0 .6-.1.8-.2s.5-.3.7-.5l.5.7c-.3.3-.6.5-1 .6-.4.1-.7.2-1.1.2-.4 0-.8-.1-1.2-.2-.4-.1-.7-.4-1-.7-.3-.3-.5-.6-.6-1.1-.2-.2-.3-.7-.3-1.2zM304.5 92.1c0-.7.3-1.2.9-1.6.6-.4 1.6-.6 3-.8 0-.2 0-.4-.1-.6 0-.2-.1-.4-.2-.5-.1-.1-.2-.3-.4-.4-.2-.1-.4-.1-.6-.1-.4 0-.7.1-1.1.2-.3.1-.6.3-.9.5l-.4-.8c.3-.2.7-.4 1.1-.6.4-.2.9-.3 1.4-.3.8 0 1.4.2 1.7.7s.5 1.1.5 1.9v3.9h-.9l-.1-.8c-.3.3-.6.5-1 .7-.4.2-.7.3-1.1.3-.5 0-1-.2-1.4-.5-.2-.2-.4-.6-.4-1.2zm1.1-.1c0 .4.1.6.3.8.2.2.5.2.8.2.3 0 .6-.1.9-.2.3-.1.6-.4.9-.6v-1.8c-.5.1-1 .2-1.4.3-.4.1-.7.2-.9.3s-.4.3-.5.5c0 .1-.1.3-.1.5zM311.6 87.3h.9l.1.9c.3-.3.6-.6 1-.8.3-.2.7-.3 1.2-.3.7 0 1.2.2 1.5.6.3.4.5 1.1.5 1.9v4.1h-1.1v-3.9c0-.6-.1-1-.3-1.3-.2-.3-.5-.4-.9-.4-.3 0-.6.1-.9.3-.3.2-.5.4-.9.7v4.7h-1.1v-6.5zM321.7 85.1h2.7c.5 0 .9 0 1.3.1s.7.2 1 .4c.3.2.5.5.6.8.2.3.2.7.2 1.2s-.1.9-.2 1.2c-.2.3-.4.6-.7.8-.3.2-.6.4-1 .5-.4.1-.8.2-1.3.2h-1.6v3.4h-1.1l.1-8.6zm2.5 4.3c.8 0 1.3-.1 1.7-.4.4-.3.5-.7.5-1.4 0-.6-.2-1.1-.6-1.3-.4-.2-.9-.4-1.7-.4h-1.4v3.5h1.5zM329.2 87.3h.9l.1 1.2c.2-.4.5-.7.8-1 .3-.2.7-.4 1-.4.3 0 .5 0 .7.1l-.2 1c-.1 0-.2-.1-.3-.1h-.3c-.3 0-.6.1-.9.3-.3.2-.6.6-.8 1.2v4.1h-1.1l.1-6.4zM333.2 90.6c0-.5.1-1 .2-1.4.2-.4.4-.8.7-1.1.3-.3.6-.5.9-.7.4-.1.7-.2 1.1-.2.4 0 .8.1 1.1.2.4.1.7.4.9.7.3.3.5.6.7 1.1.2.4.2.9.2 1.4 0 .5-.1 1-.2 1.4-.2.4-.4.8-.7 1.1-.3.3-.6.5-.9.7-.4.1-.7.2-1.1.2-.4 0-.8-.1-1.1-.2-.4-.1-.7-.4-.9-.7-.3-.3-.5-.6-.7-1.1-.1-.4-.2-.9-.2-1.4zm1.1 0c0 .4 0 .7.1 1 .1.3.2.6.4.8.2.2.4.4.6.5.2.1.5.2.8.2.3 0 .5-.1.8-.2.2-.1.4-.3.6-.5.2-.2.3-.5.4-.8.1-.3.1-.6.1-1s0-.7-.1-1c-.1-.3-.2-.6-.4-.8-.2-.2-.4-.4-.6-.5s-.5-.2-.8-.2c-.3 0-.5.1-.8.2s-.4.3-.6.5c-.2.2-.3.5-.4.8-.1.3-.1.6-.1 1zM341.9 94.3v2.2h-1.1v-9.1h.9l.1.7c.3-.2.6-.5 1-.6.3-.2.7-.3 1.1-.3.4 0 .8.1 1.1.2.3.2.6.4.8.7.2.3.4.6.5 1 .1.4.2.9.2 1.4 0 .5-.1 1-.2 1.5-.1.4-.4.8-.6 1.1-.3.3-.6.5-.9.7-.3.2-.7.2-1.1.2-.3 0-.6-.1-.9-.2-.3-.1-.6-.3-.9-.5v1zm0-2c.3.2.6.4.8.5.3.1.5.2.7.2.3 0 .5-.1.7-.2s.4-.3.6-.5c.2-.2.3-.5.4-.8.1-.3.1-.7.1-1.1 0-.4 0-.7-.1-1-.1-.3-.2-.5-.3-.7-.1-.2-.3-.4-.5-.5-.2-.1-.5-.2-.8-.2-.3 0-.5.1-.8.2-.3.1-.6.4-.9.6l.1 3.5zM347.7 90.6c0-.5.1-1 .2-1.4.2-.4.4-.8.6-1.1.3-.3.6-.5.9-.7.3-.2.7-.2 1.1-.2.4 0 .8.1 1.1.2.3.1.6.3.8.6.2.3.4.6.5 1 .1.4.2.8.2 1.2v.6h-4.3c0 .7.3 1.2.6 1.7.4.4.9.6 1.5.6.3 0 .6 0 .9-.1.3-.1.5-.2.7-.4l.4.7c-.3.2-.6.3-.9.5-.3.1-.7.2-1.2.2-.4 0-.8-.1-1.2-.2-.4-.2-.7-.4-1-.7-.3-.3-.5-.6-.7-1.1-.1-.4-.2-.9-.2-1.4zm4.5-.5c0-.7-.1-1.2-.4-1.5-.3-.3-.7-.5-1.2-.5-.2 0-.4 0-.7.1-.2.1-.4.2-.6.4-.2.2-.3.4-.4.6-.1.3-.2.5-.2.9h3.5zM354.7 87.3h.9l.1 1.2c.2-.4.5-.7.8-1 .3-.2.7-.4 1-.4.3 0 .5 0 .7.1l-.2 1c-.1 0-.2-.1-.3-.1h-.3c-.3 0-.6.1-.9.3-.3.2-.6.6-.8 1.2v4.1h-1.1l.1-6.4zM359.5 88.2h-1v-.8l1-.1.1-1.8h.9v1.8h1.7v.9h-1.7v3.6c0 .4.1.7.2.9.1.2.4.3.8.3.1 0 .2 0 .4-.1.1 0 .3-.1.4-.1l.2.8c-.2.1-.4.1-.6.2-.2 0-.4.1-.6.1-.3 0-.6-.1-.9-.2s-.4-.3-.6-.4c-.1-.2-.2-.4-.3-.7-.1-.3-.1-.6-.1-.9l.1-3.5zM363.6 95.6h.3c.4 0 .7-.1.9-.4.2-.3.4-.6.6-1l.1-.5-2.6-6.4h1.1l1.3 3.6.3.9.3.9h.1l.3-.9.3-.9 1.2-3.6h1.1l-2.4 7c-.1.3-.2.6-.4.9-.1.3-.3.5-.5.7-.2.2-.4.4-.7.5-.2.1-.5.2-.9.2h-.4c-.1 0-.2-.1-.3-.1l.2-.9h.1zM372.8 85.1h1.3l1.7 4.7.6 1.8h.1l.6-1.8 1.7-4.7h1.3v8.7h-1V89v-1.3c0-.5.1-.9.1-1.3h-.1l-.7 1.9-1.7 4.5h-.6l-1.7-4.5-.7-1.9h-.1c0 .4.1.8.1 1.3s.1.9.1 1.3v4.8h-1v-8.7zM382 92.1c0-.7.3-1.2.9-1.6.6-.4 1.6-.6 3-.8 0-.2 0-.4-.1-.6 0-.2-.1-.4-.2-.5-.1-.1-.2-.3-.4-.4-.2-.1-.4-.1-.6-.1-.4 0-.7.1-1.1.2-.3.1-.6.3-.9.5l-.4-.8c.3-.2.7-.4 1.1-.6.4-.2.9-.3 1.4-.3.8 0 1.4.2 1.7.7s.5 1.1.5 1.9v3.9h-.9V93c-.3.3-.6.5-1 .7-.4.2-.7.3-1.1.3-.5 0-1-.2-1.4-.5-.3-.4-.5-.8-.5-1.4zm1.1-.1c0 .4.1.6.3.8.2.2.5.2.8.2.3 0 .6-.1.9-.2.3-.1.6-.4.9-.6v-1.8c-.5.1-1 .2-1.4.3-.4.1-.7.2-.9.3s-.4.3-.5.5c-.1.1-.1.3-.1.5zM389.1 87.3h.9l.1.9c.3-.3.6-.6 1-.8.3-.2.7-.3 1.2-.3.7 0 1.2.2 1.5.6.3.4.5 1.1.5 1.9v4.1h-1.1v-3.9c0-.6-.1-1-.3-1.3-.2-.3-.5-.4-.9-.4-.3 0-.6.1-.9.3-.3.2-.5.4-.9.7v4.7h-1.1v-6.5zM396 92.1c0-.7.3-1.2.9-1.6.6-.4 1.6-.6 3-.8 0-.2 0-.4-.1-.6 0-.2-.1-.4-.2-.5-.1-.1-.2-.3-.4-.4-.2-.1-.4-.1-.6-.1-.4 0-.7.1-1.1.2-.3.1-.6.3-.9.5l-.4-.8c.3-.2.7-.4 1.1-.6.4-.2.9-.3 1.4-.3.8 0 1.4.2 1.7.7.4.5.5 1.1.5 1.9v3.9h-.9l-.1-.8c-.3.3-.6.5-1 .7-.4.2-.7.3-1.1.3-.5 0-1-.2-1.4-.5-.2-.2-.4-.6-.4-1.2zm1.1-.1c0 .4.1.6.3.8.2.2.5.2.8.2.3 0 .6-.1.9-.2.3-.1.6-.4.9-.6v-1.8c-.5.1-1 .2-1.4.3-.4.1-.7.2-.9.3s-.4.3-.5.5c-.1.1-.1.3-.1.5zM402.6 95c0-.3.1-.5.3-.8.2-.2.4-.5.7-.7v-.1c-.2-.1-.3-.2-.4-.4-.1-.2-.2-.4-.2-.6 0-.3.1-.5.2-.7.2-.2.3-.4.5-.5v-.1c-.2-.2-.4-.4-.6-.7-.2-.3-.3-.6-.3-1s.1-.7.2-1c.1-.3.3-.5.5-.7.2-.2.5-.4.8-.5.3-.1.6-.2.9-.2h.5c.2 0 .3.1.4.1h2.2v.8H407c.1.1.3.3.4.6.1.2.2.5.2.8 0 .3-.1.7-.2.9-.1.3-.3.5-.5.7-.2.2-.5.3-.7.4-.3.1-.6.2-.9.2-.2 0-.3 0-.5-.1-.2 0-.3-.1-.5-.2l-.3.3c-.1.1-.1.3-.1.4 0 .2.1.4.2.5.2.1.5.2.9.2h1.2c.8 0 1.3.1 1.7.4.4.2.6.6.6 1.2 0 .3-.1.6-.2.9-.1.3-.4.5-.6.7-.3.2-.6.4-1 .5-.4.1-.9.2-1.4.2-.4 0-.8 0-1.1-.1-.3-.1-.6-.2-.8-.3-.2-.1-.4-.3-.5-.5-.2-.1-.3-.3-.3-.6zm1-.1c0 .3.2.6.5.8.3.2.8.3 1.4.3.3 0 .6 0 .8-.1.3-.1.5-.2.6-.3l.4-.4c.1-.2.1-.3.1-.5 0-.3-.1-.5-.3-.6-.2-.1-.5-.2-1-.2h-1.5c-.1 0-.3 0-.4-.1-.2.2-.4.3-.5.5-.1.2-.1.4-.1.6zm1.7-3.9c.2 0 .4 0 .5-.1.2-.1.3-.2.4-.3.1-.1.2-.3.3-.5.1-.2.1-.4.1-.6 0-.5-.1-.8-.4-1.1-.3-.3-.6-.4-1-.4s-.7.1-1 .4c-.3.3-.4.6-.4 1.1 0 .2 0 .5.1.6.1.2.2.4.3.5.1.1.3.2.4.3.3.1.5.1.7.1zM409.1 90.6c0-.5.1-1 .2-1.4s.4-.8.6-1.1c.3-.3.6-.5.9-.7.3-.2.7-.2 1.1-.2.4 0 .8.1 1.1.2.3.1.6.3.8.6.2.3.4.6.5 1 .1.4.2.8.2 1.2v.6h-4.3c0 .7.3 1.2.6 1.7.4.4.9.6 1.5.6.3 0 .6 0 .9-.1.3-.1.5-.2.7-.4l.4.7c-.3.2-.6.3-.9.5-.3.1-.7.2-1.2.2-.4 0-.8-.1-1.2-.2-.4-.2-.7-.4-1-.7-.3-.3-.5-.6-.7-1.1-.1-.4-.2-.9-.2-1.4zm4.5-.5c0-.7-.1-1.2-.4-1.5s-.7-.6-1.2-.6c-.2 0-.4 0-.7.1-.2.1-.4.2-.6.4-.2.2-.3.4-.4.6-.1.3-.2.5-.2.9h3.5zM416.2 87.3h.9l.1.9c.3-.3.6-.6.9-.8.3-.2.7-.3 1.1-.3.5 0 .9.1 1.2.3.3.2.5.5.6.9.3-.4.7-.7 1-.9.3-.2.7-.3 1.1-.3.7 0 1.2.2 1.5.6.3.4.5 1.1.5 1.9v4.1H424v-3.9c0-.6-.1-1-.3-1.3s-.5-.4-.9-.4c-.5 0-1 .3-1.6 1v4.7h-1.1v-3.9c0-.6-.1-1-.3-1.3-.2-.3-.5-.4-.9-.4-.5 0-1 .3-1.6 1v4.7h-1.1v-6.6zM426.7 90.6c0-.5.1-1 .2-1.4s.4-.8.6-1.1c.3-.3.6-.5.9-.7.3-.2.7-.2 1.1-.2.4 0 .8.1 1.1.2.3.1.6.3.8.6.2.3.4.6.5 1 .1.4.2.8.2 1.2v.6h-4.3c0 .7.3 1.2.6 1.7.4.4.9.6 1.5.6.3 0 .6 0 .9-.1.3-.1.5-.2.7-.4l.4.7c-.3.2-.6.3-.9.5-.3.1-.7.2-1.2.2-.4 0-.8-.1-1.2-.2-.4-.2-.7-.4-1-.7-.3-.3-.5-.6-.7-1.1-.2-.4-.2-.9-.2-1.4zm4.5-.5c0-.7-.1-1.2-.4-1.5s-.7-.5-1.2-.5c-.2 0-.4 0-.7.1-.2.1-.4.2-.6.4-.2.2-.3.4-.4.6-.1.3-.2.5-.2.9h3.5zM433.7 87.3h.9l.1.9c.3-.3.6-.6 1-.8.3-.2.7-.3 1.2-.3.7 0 1.2.2 1.5.6s.5 1.1.5 1.9v4.1h-1.1v-3.9c0-.6-.1-1-.3-1.3-.2-.3-.5-.4-.9-.4-.3 0-.6.1-.9.3-.3.2-.5.4-.9.7v4.7h-1.1v-6.5zM441.1 88.2h-1v-.8l1-.1.1-1.8h.9v1.8h1.7v.9h-1.7v3.6c0 .4.1.7.2.9.1.2.4.3.8.3.1 0 .2 0 .4-.1.1 0 .3-.1.4-.1l.2.8c-.2.1-.4.1-.6.2-.2 0-.4.1-.6.1-.3 0-.6-.1-.9-.2-.2-.1-.4-.3-.6-.4-.1-.2-.2-.4-.3-.7-.1-.3-.1-.6-.1-.9l.1-3.5z"/><path fill="#2E3D5A" d="M265.3 72H356v3.2h-90.7z"/><path fill="#039BE5" d="M356 72h90.7v3.2H356z"/><g><path fill="#2E3D5A" d="M546.5 67.9h-10.9c-.9 0-1.6.7-1.6 1.6v10.9c0 .9.7 1.6 1.6 1.6h10.9c.9 0 1.6-.7 1.6-1.6V69.5c0-.9-.7-1.6-1.6-1.6zm-7.8 11h-1.6v-1.6h1.6v1.6zm0-3.2h-1.6v-1.6h1.6v1.6zm0-3.1h-1.6V71h1.6v1.6zm6.2 6.3h-5.5v-1.6h5.5v1.6zm0-3.2h-5.5v-1.6h5.5v1.6zm0-3.1h-5.5V71h5.5v1.6z"/></g></svg>