<svg xmlns="http://www.w3.org/2000/svg" width="570" height="553" viewBox="0 0 570 553"><path fill="#FBC02D" d="M199.014 136.658L.397 164.572 0 378.936l125.594 68.324 198.614-27.916.398-214.365z"/><path fill="#F6BE1A" d="M324.606 204.979l-.398 214.365-198.614 27.916.397-214.364z"/><g fill="#424242"><path d="M259.007 345.749l-.134 12.126-67.193 9.444.133-12.129zM245.29 294.61l-39.893 5.605 19.986-24.252z"/><path d="M235.406 291.471l-.127 43.889-19.998 2.707.129-43.883z"/></g><path fill="#F9CE1D" d="M125.594 447.26L0 378.936l.397-214.364 125.594 68.324z"/><path fill="#FAD53E" d="M125.991 232.896L.397 164.572l198.617-27.914 125.592 68.321z"/><path fill="#F6BE1A" d="M71.814 255.523l-29.422-16.004.093-52.279 29.422 16.004z"/><path fill="#FBC02D" d="M71.907 203.244L42.485 187.24l198.917-27.281 29.423 16.008zM443.908 242.496L245.29 270.407l-.396 214.366 125.595 68.322 198.615-27.913.397-214.363z"/><path fill="#F6BE1A" d="M569.501 310.819l-.397 214.363-198.615 27.913.397-214.365z"/><g fill="#424242"><path d="M503.901 451.581l-.133 12.132-67.194 9.442.134-12.129zM490.185 400.446l-39.893 5.605 19.986-24.248z"/><path d="M480.302 397.312l-.129 43.887-19.997 2.709.128-43.887z"/></g><path fill="#F9CE1D" d="M370.489 553.095l-125.595-68.322.396-214.366 125.596 68.323z"/><path fill="#FAD53E" d="M370.886 338.73L245.29 270.407l198.618-27.911 125.593 68.323z"/><path fill="#F6BE1A" d="M316.706 361.358l-29.42-16.003.093-52.277 29.422 16.005z"/><path fill="#FBC02D" d="M316.801 309.083l-29.422-16.005 198.917-27.275 29.424 16.003z"/><path fill="#2E3D5A" d="M145.993 0c-44.541 0-80.667 36.115-80.667 80.665 0 36.454 24.209 67.229 57.396 77.222l23.259 27.545 23.259-27.545c33.207-9.996 57.412-40.768 57.412-77.222C226.652 36.115 190.531 0 145.993 0zM401.552 103.227c-44.541 0-80.666 36.117-80.666 80.666 0 36.455 24.209 67.233 57.396 77.223l23.259 27.545 23.259-27.545c33.207-9.996 57.412-40.768 57.412-77.223 0-44.549-36.12-80.666-80.66-80.666z"/><path fill="#232E47" d="M414.683 140.942h-41.309v80.787h59.547V159.18z"/><path fill="none" stroke="#EEE" stroke-width="7" stroke-miterlimit="10" d="M387.229 204.02h18.32M413.669 141.956v18.239h18.238"/><path fill="none" stroke="#EEE" stroke-width="7" stroke-miterlimit="10" d="M414.683 140.942h-41.309v80.787h59.547V159.18z"/><path fill="#039BE5" d="M403.51 201.39v6.161h6.162l17.837-18-6.161-6.161-17.838 18zm28.702-16.539c.648-.649.648-1.623 0-2.272l-3.729-3.729c-.649-.648-1.622-.648-2.271 0l-2.919 2.92 6.162 6.162 2.757-3.081z"/><path fill="#EEE" fill-opacity=".9" d="M146.988 36.785c-23.521 0-42.764 19.242-42.764 42.766 0 23.521 19.243 42.767 42.764 42.767 23.523 0 42.767-19.246 42.767-42.767 0-23.524-19.244-42.766-42.767-42.766z"/><path fill="#232E47" d="M146.988 113.762c-18.816 0-34.212-15.397-34.212-34.211 0-18.819 15.396-34.214 34.212-34.214 18.817 0 34.214 15.395 34.214 34.214 0 18.813-15.396 34.211-34.214 34.211z"/><path fill="#EEE" fill-opacity=".9" d="M149.129 57.059h-6.416v26.767l22.237 13.686 3.424-5.559-19.245-11.551z"/><path fill="#039BE5" d="M149.129 80.402l17.954 10.775a23.266 23.266 0 0 0 2.062-9.562c0-11.779-8.697-21.499-20.017-23.162v21.949z"/></svg>