<svg xmlns="http://www.w3.org/2000/svg" xmlns:xlink="http://www.w3.org/1999/xlink" width="679" height="584" viewBox="0 0 679 584"><path opacity=".75" fill="#ECEFF0" d="M0 0h679.259v583.813H0z"/><defs><path id="a" d="M0 .008h677.345v583.805H0z"/></defs><clipPath id="b"><use xlink:href="#a" overflow="visible"/></clipPath><g opacity=".15" clip-path="url(#b)" fill="none" stroke="#78909C" stroke-linecap="round" stroke-linejoin="round" stroke-miterlimit="10"><g stroke-width="8"><path d="M133.354-25.169l26.581 55.525c1.326 2.767 2.96 7.48 3.63 10.473l4.104 18.291c.675 2.994 2.305 7.705 3.63 10.473l57.332 117.485M162.345 35.387l15.146 19.03c1.912 2.4 4.559 6.627 5.884 9.394l57.328 117.487"/></g><g stroke-width="8"><path d="M447.71 630.474L340.721 411.502c-1.325-2.766-2.961-7.479-3.63-10.472l-4.104-18.292c-.675-2.991-2.305-7.704-3.629-10.471l-57.333-117.486M338.312 406.473l-15.145-19.032c-1.912-2.399-4.559-6.625-5.885-9.394L259.954 260.56"/></g><circle stroke-width="10" cx="248.659" cy="220.344" r="38.812"/><path stroke-width="10" d="M-75.7 75.596l288.808 129.178M283.895 235.979L563.2 360.906M270.05 187.961L427.78-20.818M-34.789 611.712l261.225-359.557"/><path stroke-width="7" d="M172.888-20.818v632.53M248.659 259.156v352.556M248.659-25.1v206.633M287.471 220.344h415.806M-42.135 220.344h251.983M336.524-20.818v632.53M489.667-20.818v632.53M684.766-20.818v632.53"/><path stroke-width="10" d="M587.216-20.818v632.53"/><path stroke-width="7" d="M-161.076 371.391h689.553M95.824-20.818v632.53M-12.765-20.818v632.53M368.431 468.213L563.2 380.832M133.354 220.344v66.085M-42.135 286.429h218.172M38.632 220.344v34.438M68.702 254.784h-42.04M95.824 333.52H-12.765M-56.819 35.387h760.096M489.667 348.429l-106.99-14.911M387.922 371.391v44.055l18.358 35.786M336.524 419.642h-87.865M172.888 327.962h75.771M-12.765 128.001h716.042M248.659 78.216h454.618M703.277 468.213H95.824l-47.227 28.725h-209.673M172.888 529.778h75.771M249.584 545.512h88.728M213.108 529.778v63.984M-75.7 593.762h778.977M336.524 174.753h153.143M465.814 128.001v26.732h-129.29M95.824 94.477H60.66V65.295l-28.321-9.628M-12.765 103.746l60.448-68.359 26.612-56.205M-12.765 424.524h35.663l51.397 37.042M22.898 424.524l7.868-13.213h27.796v-13.696M48.597 443.043l15.484-18.519-5.519-13.213M398.509 529.778h188.707M489.667 300.567h38.81l22.027 14.183v40.478M534.342 304.345l-15.704 36.628M489.667 280.135h195.099"/></g><g><path fill="#34B2FF" d="M160.725 125.679v26.284l-10.893 12.035 10.893 12.035v265.409h314.366V125.679z"/><g fill="#FFF"><path d="M189.68 163.542c.424.449.925.81 1.501 1.083s1.174.41 1.792.41c.788 0 1.401-.179 1.838-.537.437-.357.655-.828.655-1.41 0-.303-.052-.561-.154-.773a1.704 1.704 0 0 0-.419-.546 3.06 3.06 0 0 0-.627-.409 50.55 50.55 0 0 0-.783-.382l-1.71-.746a8.053 8.053 0 0 1-.855-.437c-.292-.17-.552-.376-.783-.619s-.418-.531-.564-.864-.218-.719-.218-1.156c0-.449.094-.867.282-1.255s.449-.725.783-1.01a3.649 3.649 0 0 1 1.183-.665 4.579 4.579 0 0 1 1.501-.236c.715 0 1.376.136 1.983.409a4.986 4.986 0 0 1 1.546 1.064l-.819.983c-.364-.352-.767-.628-1.21-.828s-.943-.3-1.501-.3c-.667 0-1.204.155-1.61.464-.407.309-.61.737-.61 1.283 0 .291.058.537.173.737s.27.376.464.528c.194.152.407.285.637.4.23.115.467.221.709.318l1.692.728c.339.146.661.312.964.5s.564.406.783.655c.218.249.391.54.519.874.127.334.191.719.191 1.155 0 .473-.094.916-.282 1.329s-.458.773-.81 1.083c-.352.31-.776.552-1.274.728s-1.062.264-1.692.264a5.723 5.723 0 0 1-4.186-1.765l.911-1.057zM199.579 160.175c0-.958.133-1.82.4-2.584.267-.765.637-1.413 1.11-1.947.473-.534 1.034-.943 1.683-1.228s1.356-.428 2.12-.428c.728 0 1.365.148 1.911.446s.995.64 1.346 1.028l-.855.965c-.315-.34-.664-.61-1.046-.81s-.828-.3-1.337-.3c-.57 0-1.086.112-1.547.337s-.855.546-1.183.964-.583.925-.764 1.52c-.182.594-.273 1.262-.273 2.001 0 .752.088 1.428.264 2.029s.421 1.113.737 1.538c.315.425.701.752 1.156.983s.967.346 1.538.346c.582 0 1.089-.115 1.52-.346.43-.23.84-.558 1.228-.983l.855.928a5.295 5.295 0 0 1-1.602 1.274c-.594.303-1.273.455-2.038.455a5.15 5.15 0 0 1-2.083-.418 4.71 4.71 0 0 1-1.656-1.21c-.467-.528-.831-1.177-1.092-1.947-.262-.772-.392-1.642-.392-2.613zM211.57 154.207h1.51v5.004h5.55v-5.004h1.529v11.937h-1.529v-5.623h-5.55v5.623h-1.51v-11.937zM224.344 154.207h6.878v1.274h-5.368v3.749h4.531v1.292h-4.531v4.331h5.55v1.292h-7.06v-11.938zM234.844 154.207h2.984c1.844 0 3.245.51 4.203 1.528.958 1.019 1.438 2.481 1.438 4.386 0 .946-.121 1.792-.364 2.538-.243.746-.601 1.377-1.074 1.893s-1.055.91-1.747 1.183-1.486.409-2.384.409h-3.057v-11.937zm2.875 10.699c1.395 0 2.441-.418 3.139-1.256.697-.837 1.046-2.013 1.046-3.53s-.349-2.675-1.046-3.476c-.698-.801-1.744-1.201-3.139-1.201h-1.365v9.462h1.365zM246.889 154.207h1.51v7.042c0 .716.073 1.316.219 1.802.146.485.342.873.591 1.165.249.291.542.5.882.627.339.127.704.191 1.092.191.4 0 .771-.064 1.11-.191.34-.127.637-.336.892-.627.255-.292.455-.679.601-1.165s.218-1.086.218-1.802v-7.042h1.456v7.006c0 .958-.109 1.765-.328 2.42-.218.655-.519 1.186-.901 1.592a3.267 3.267 0 0 1-1.355.874c-.522.176-1.086.264-1.692.264s-1.174-.088-1.701-.264a3.256 3.256 0 0 1-1.365-.874c-.382-.406-.683-.937-.901-1.592-.218-.655-.328-1.461-.328-2.42v-7.006zM259.59 154.207h1.51v10.645h5.223v1.292h-6.733v-11.937zM269.344 154.207h6.878v1.274h-5.368v3.749h4.532v1.292h-4.532v4.331h5.549v1.292h-7.06v-11.938zM279.843 154.207h2.984c1.844 0 3.245.51 4.203 1.528.959 1.019 1.438 2.481 1.438 4.386 0 .946-.121 1.792-.363 2.538-.242.746-.601 1.377-1.074 1.893-.473.516-1.055.91-1.746 1.183s-1.486.409-2.384.409h-3.058v-11.937zm2.875 10.699c1.396 0 2.441-.418 3.14-1.256.697-.837 1.046-2.013 1.046-3.53s-.349-2.675-1.046-3.476c-.698-.801-1.744-1.201-3.14-1.201h-1.364v9.462h1.364zM295.31 154.207h1.564l1.256 6.496c.109.655.225 1.298.346 1.929s.236 1.273.346 1.929h.073c.134-.655.272-1.301.419-1.938.145-.637.284-1.277.418-1.92l1.656-6.496h1.383l1.656 6.496c.145.631.291 1.268.436 1.911.146.643.291 1.292.438 1.947h.072c.109-.655.219-1.301.328-1.938s.225-1.277.346-1.92l1.256-6.496h1.455l-2.475 11.937h-1.82l-1.801-7.188a50.653 50.653 0 0 1-.301-1.356c-.09-.442-.185-.895-.281-1.355h-.073a64.42 64.42 0 0 1-.3 1.355c-.104.443-.203.895-.301 1.356l-1.765 7.188h-1.802l-2.529-11.937zM316.036 166.362a4.828 4.828 0 0 1-2.065-.437 4.595 4.595 0 0 1-1.61-1.247c-.449-.54-.798-1.195-1.047-1.965-.248-.77-.373-1.634-.373-2.593s.125-1.817.373-2.575c.249-.758.598-1.401 1.047-1.929a4.505 4.505 0 0 1 1.61-1.21c.624-.279 1.313-.418 2.065-.418s1.439.143 2.064.428 1.165.691 1.62 1.219c.455.527.807 1.17 1.056 1.929.248.758.373 1.61.373 2.557 0 .958-.125 1.823-.373 2.593-.249.771-.601 1.426-1.056 1.965-.455.54-.995.956-1.62 1.247s-1.312.436-2.064.436zm0-1.328c.533 0 1.016-.115 1.446-.346s.801-.561 1.11-.992c.309-.431.549-.946.719-1.547s.254-1.277.254-2.029c0-.74-.084-1.407-.254-2.002-.17-.594-.41-1.098-.719-1.51-.31-.412-.68-.73-1.11-.955s-.913-.337-1.446-.337c-.534 0-1.017.112-1.447.337-.43.225-.801.543-1.109.955-.31.413-.549.916-.719 1.51a7.282 7.282 0 0 0-.255 2.002c0 .752.085 1.428.255 2.029s.409 1.116.719 1.547c.309.431.68.761 1.109.992.431.23.913.346 1.447.346zM331.175 166.144l-2.875-5.041h-2.165v5.041h-1.511v-11.937h3.73c.607 0 1.168.058 1.684.173.516.116.958.307 1.328.573.37.267.658.613.864 1.037.206.425.31.946.31 1.565 0 .935-.242 1.68-.729 2.238-.484.558-1.134.94-1.946 1.146l3.021 5.204h-1.711zm-5.04-6.278h2.001c.935 0 1.65-.191 2.148-.573.496-.382.746-.961.746-1.738 0-.789-.25-1.34-.746-1.656-.498-.315-1.214-.473-2.148-.473h-2.001v4.44zM336.106 154.207h1.51v5.987h.055l4.969-5.987h1.71l-3.73 4.549 4.312 7.388h-1.692l-3.566-6.205-2.057 2.42v3.785h-1.51v-11.937zM356.541 166.362c-.753 0-1.44-.146-2.065-.437s-1.162-.707-1.61-1.247c-.449-.54-.798-1.195-1.046-1.965-.25-.77-.373-1.634-.373-2.593s.123-1.817.373-2.575c.248-.758.597-1.401 1.046-1.929a4.496 4.496 0 0 1 1.61-1.21 5.004 5.004 0 0 1 2.065-.418c.752 0 1.44.143 2.065.428s1.164.691 1.619 1.219c.455.527.807 1.17 1.055 1.929.249.758.373 1.61.373 2.557 0 .958-.124 1.823-.373 2.593-.248.771-.6 1.426-1.055 1.965-.455.54-.994.956-1.619 1.247s-1.313.436-2.065.436zm0-1.328c.533 0 1.016-.115 1.446-.346s.801-.561 1.109-.992c.311-.431.549-.946.72-1.547a7.492 7.492 0 0 0 .255-2.029 7.32 7.32 0 0 0-.255-2.002c-.171-.594-.409-1.098-.72-1.51-.309-.412-.679-.73-1.109-.955s-.913-.337-1.446-.337c-.534 0-1.017.112-1.446.337a3.26 3.26 0 0 0-1.11.955c-.31.413-.55.916-.719 1.51-.171.595-.255 1.262-.255 2.002 0 .752.084 1.428.255 2.029.169.601.409 1.116.719 1.547s.679.761 1.11.992c.429.23.912.346 1.446.346zM371.681 166.144l-2.875-5.041h-2.166v5.041h-1.51v-11.937h3.73a7.74 7.74 0 0 1 1.683.173c.516.116.958.307 1.328.573.37.267.658.613.864 1.037.207.425.31.946.31 1.565 0 .935-.243 1.68-.728 2.238-.486.558-1.135.94-1.947 1.146l3.021 5.204h-1.71zm-5.041-6.278h2.002c.934 0 1.649-.191 2.146-.573.498-.382.746-.961.746-1.738 0-.789-.248-1.34-.746-1.656-.497-.315-1.213-.473-2.146-.473h-2.002v4.44zM376.611 154.207h2.984c1.844 0 3.245.51 4.203 1.528.958 1.019 1.438 2.481 1.438 4.386 0 .946-.121 1.792-.364 2.538-.242.746-.6 1.377-1.073 1.893s-1.056.91-1.747 1.183-1.486.409-2.383.409h-3.058v-11.937zm2.875 10.699c1.396 0 2.441-.418 3.14-1.256.697-.837 1.045-2.013 1.045-3.53s-.348-2.675-1.045-3.476c-.698-.801-1.744-1.201-3.14-1.201h-1.364v9.462h1.364zM388.712 154.207h6.879v1.274h-5.369v3.749h4.531v1.292h-4.531v4.331h5.551v1.292h-7.061v-11.938zM405.762 166.144l-2.875-5.041h-2.165v5.041h-1.511v-11.937h3.73c.606 0 1.167.058 1.683.173a3.59 3.59 0 0 1 1.328.573c.371.267.658.613.865 1.037.206.425.309.946.309 1.565 0 .935-.242 1.68-.728 2.238s-1.134.94-1.946 1.146l3.02 5.204h-1.71zm-5.04-6.278h2.001c.935 0 1.649-.191 2.147-.573.497-.382.746-.961.746-1.738 0-.789-.249-1.34-.746-1.656-.498-.315-1.213-.473-2.147-.473h-2.001v4.44z"/></g><g fill="#FFF"><path d="M254.124 197.599h7.747v1.435h-6.045v4.549h5.123v1.435h-5.123v6.025h-1.701v-13.444zM263.099 208.46c0-1.093.488-1.93 1.465-2.51.977-.581 2.531-.987 4.662-1.22 0-.314-.031-.622-.092-.922s-.171-.567-.328-.799a1.78 1.78 0 0 0-.625-.563c-.26-.144-.594-.215-1.004-.215-.587 0-1.13.109-1.629.328a8.001 8.001 0 0 0-1.342.737l-.676-1.168a10.87 10.87 0 0 1 1.701-.871c.669-.28 1.407-.42 2.213-.42 1.216 0 2.097.373 2.644 1.117.546.745.82 1.739.82 2.982v6.107h-1.394l-.144-1.188h-.041c-.479.396-.994.734-1.547 1.014s-1.137.42-1.752.42c-.847 0-1.547-.246-2.101-.738-.553-.493-.83-1.19-.83-2.091zm1.66-.123c0 .574.167.984.502 1.229.334.246.748.369 1.24.369.478 0 .933-.113 1.363-.338.431-.226.884-.557 1.363-.994v-2.767c-.833.109-1.537.239-2.111.389-.574.15-1.035.328-1.383.533-.348.205-.598.441-.748.707a1.742 1.742 0 0 0-.226.872zM274.288 196.451h1.681v3.976l-.041 1.803a6.85 6.85 0 0 1 1.476-.994 3.619 3.619 0 0 1 1.639-.4c.643 0 1.21.12 1.701.359.492.239.905.581 1.24 1.024.334.444.588.977.758 1.599a7.8 7.8 0 0 1 .257 2.08c0 .847-.116 1.605-.349 2.274-.232.669-.547 1.237-.942 1.701a3.991 3.991 0 0 1-1.373 1.055 3.877 3.877 0 0 1-1.64.359c-.465 0-.946-.106-1.445-.318a4.974 4.974 0 0 1-1.403-.912h-.062l-.143.984h-1.354v-14.59zm1.681 12.378c.437.383.871.653 1.302.81.43.157.809.236 1.137.236.41 0 .789-.092 1.138-.277s.648-.444.901-.779c.253-.334.451-.748.595-1.24s.215-1.045.215-1.66a7.2 7.2 0 0 0-.144-1.496 3.345 3.345 0 0 0-.461-1.158 2.206 2.206 0 0 0-.82-.748c-.334-.178-.734-.267-1.198-.267-.806 0-1.694.451-2.664 1.353v5.226zM286.728 199.033a1.19 1.19 0 0 1-.83-.308 1.008 1.008 0 0 1-.338-.779c0-.328.113-.591.338-.789.226-.198.502-.297.83-.297s.604.099.83.297c.226.198.338.461.338.789 0 .314-.112.574-.338.779a1.185 1.185 0 0 1-.83.308zm-.861 2.05h1.681v9.959h-1.681v-9.959zM290.375 206.083c0-.833.126-1.574.379-2.223s.591-1.199 1.015-1.65a4.24 4.24 0 0 1 1.465-1.024 4.491 4.491 0 0 1 1.752-.349c.615 0 1.199.116 1.752.349a4.258 4.258 0 0 1 1.466 1.024 5.092 5.092 0 0 1 1.015 1.65c.252.649.379 1.39.379 2.223 0 .82-.127 1.554-.379 2.203-.254.649-.592 1.196-1.015 1.64a4.312 4.312 0 0 1-1.466 1.014 4.484 4.484 0 0 1-1.752.349 4.473 4.473 0 0 1-1.752-.349 4.308 4.308 0 0 1-1.465-1.014c-.424-.444-.762-.991-1.015-1.64s-.379-1.384-.379-2.203zm1.741 0c0 .574.068 1.093.205 1.558.137.465.332.864.584 1.199.253.335.557.594.912.779s.744.277 1.168.277.812-.092 1.168-.277.66-.444.912-.779c.253-.334.447-.734.584-1.199.137-.464.205-.984.205-1.558s-.068-1.096-.205-1.567a3.818 3.818 0 0 0-.584-1.22 2.65 2.65 0 0 0-.912-.789c-.355-.185-.744-.277-1.168-.277s-.812.092-1.168.277a2.637 2.637 0 0 0-.912.789 3.84 3.84 0 0 0-.584 1.22 5.63 5.63 0 0 0-.205 1.567zM306.933 197.599h7.747v1.435h-6.046v4.549h5.123v1.435h-5.123v6.025h-1.701v-13.444zM316.073 206.083c0-.819.126-1.554.379-2.203a5.157 5.157 0 0 1 1.004-1.65 4.364 4.364 0 0 1 1.424-1.035 4.018 4.018 0 0 1 1.66-.359c.629 0 1.192.109 1.691.328.498.219.915.533 1.25.942.334.41.591.902.769 1.476a6.52 6.52 0 0 1 .267 1.926c0 .369-.021.676-.062.922h-6.721c.068 1.079.399 1.933.994 2.562.594.628 1.369.943 2.325.943a3.92 3.92 0 0 0 1.321-.215 5.896 5.896 0 0 0 1.158-.563l.595 1.106c-.438.273-.923.512-1.455.717s-1.142.308-1.823.308c-.67 0-1.295-.12-1.876-.359s-1.086-.581-1.517-1.024a4.75 4.75 0 0 1-1.014-1.629c-.246-.643-.369-1.374-.369-2.193zm6.967-.759c0-1.024-.215-1.806-.645-2.346-.431-.54-1.035-.81-1.814-.81-.355 0-.693.072-1.014.215-.321.144-.611.348-.871.615s-.475.594-.646.983c-.171.39-.284.837-.339 1.342h5.329zM327.181 201.083h1.393l.144 1.803h.062c.342-.628.755-1.127 1.24-1.496a2.563 2.563 0 0 1 1.588-.553c.396 0 .751.068 1.065.205l-.327 1.476c-.164-.055-.314-.096-.451-.123s-.308-.041-.513-.041c-.423 0-.864.171-1.321.512-.459.342-.857.936-1.199 1.783v6.394h-1.68v-9.96zM334.495 201.083h1.394l.144 1.803h.062c.341-.628.755-1.127 1.239-1.496a2.57 2.57 0 0 1 1.589-.553c.396 0 .751.068 1.065.205l-.328 1.476a3.689 3.689 0 0 0-.45-.123 2.712 2.712 0 0 0-.513-.041c-.424 0-.864.171-1.322.512-.457.342-.857.936-1.198 1.783v6.394h-1.681v-9.96zM340.868 206.083c0-.819.127-1.554.379-2.203.253-.649.588-1.199 1.005-1.65s.892-.796 1.424-1.035a4.018 4.018 0 0 1 1.66-.359c.628 0 1.192.109 1.69.328a3.3 3.3 0 0 1 1.25.942c.335.41.592.902.77 1.476.177.574.266 1.216.266 1.926 0 .369-.021.676-.062.922h-6.722c.068 1.079.4 1.933.994 2.562s1.369.943 2.326.943c.478 0 .918-.072 1.321-.215s.789-.331 1.158-.563l.595 1.106a8.566 8.566 0 0 1-1.455.717c-.533.205-1.142.308-1.824.308-.67 0-1.295-.12-1.875-.359-.581-.239-1.086-.581-1.517-1.024s-.769-.987-1.015-1.629c-.245-.643-.368-1.374-.368-2.193zm6.968-.759c0-1.024-.215-1.806-.646-2.346-.43-.54-1.035-.81-1.813-.81-.355 0-.693.072-1.015.215-.32.144-.611.348-.871.615s-.475.594-.645.983c-.172.39-.284.837-.339 1.342h5.329zM351.976 201.083h1.394l.144 1.803h.062c.341-.628.755-1.127 1.239-1.496a2.57 2.57 0 0 1 1.589-.553c.396 0 .751.068 1.065.205l-.328 1.476a3.689 3.689 0 0 0-.45-.123 2.712 2.712 0 0 0-.513-.041c-.424 0-.864.171-1.322.512-.457.342-.857.936-1.198 1.783v6.394h-1.681v-9.96zM358.287 208.46c0-1.093.488-1.93 1.466-2.51.977-.581 2.53-.987 4.662-1.22 0-.314-.031-.622-.093-.922s-.171-.567-.327-.799a1.789 1.789 0 0 0-.625-.563c-.26-.144-.595-.215-1.005-.215-.587 0-1.13.109-1.629.328a8.051 8.051 0 0 0-1.343.737l-.676-1.168a10.87 10.87 0 0 1 1.701-.871c.669-.28 1.406-.42 2.213-.42 1.216 0 2.097.373 2.644 1.117.546.745.819 1.739.819 2.982v6.107h-1.393l-.145-1.188h-.041c-.479.396-.994.734-1.547 1.014s-1.137.42-1.752.42c-.848 0-1.547-.246-2.101-.738-.552-.493-.828-1.19-.828-2.091zm1.66-.123c0 .574.167.984.502 1.229.335.246.748.369 1.239.369.479 0 .934-.113 1.363-.338.431-.226.885-.557 1.363-.994v-2.767a17.45 17.45 0 0 0-2.111.389c-.574.15-1.035.328-1.383.533-.349.205-.598.441-.748.707-.15.267-.225.558-.225.872z"/></g><g fill="#FFF"><path d="M253.86 232.399c.348.328.746.594 1.192.798.447.203.895.306 1.341.306.557 0 .979-.114 1.267-.343s.432-.531.432-.909c0-.199-.037-.368-.112-.507a1.13 1.13 0 0 0-.313-.365 2.74 2.74 0 0 0-.477-.291 10.242 10.242 0 0 0-.604-.268l-1.341-.582a4.672 4.672 0 0 1-.708-.372 3.082 3.082 0 0 1-.633-.537 2.476 2.476 0 0 1-.455-.73 2.497 2.497 0 0 1-.171-.954c0-.388.082-.748.246-1.081.164-.333.39-.624.678-.872.288-.248.633-.442 1.036-.581s.842-.209 1.319-.209a4.17 4.17 0 0 1 1.64.335c.526.224.979.524 1.356.902l-.879 1.103c-.318-.258-.646-.462-.984-.611s-.715-.224-1.133-.224c-.467 0-.84.102-1.118.306a.986.986 0 0 0-.417.842c0 .188.042.35.127.484.084.134.199.253.343.357s.311.199.499.283c.189.084.382.167.582.246l1.326.552c.288.119.552.259.79.417.238.159.445.343.619.552s.311.45.41.723c.099.273.149.589.149.946 0 .397-.08.771-.238 1.118-.159.348-.39.653-.693.917a3.41 3.41 0 0 1-1.103.626c-.432.153-.922.23-1.468.23a5.005 5.005 0 0 1-1.9-.372 4.972 4.972 0 0 1-1.617-1.059l1.012-1.176zM261.878 229.985c0-.795.117-1.508.35-2.139s.554-1.165.961-1.602c.407-.438.884-.77 1.431-.999a4.521 4.521 0 0 1 1.759-.343c.596 0 1.13.125 1.602.373.472.249.862.537 1.17.865l-.969 1.073c-.249-.249-.514-.445-.797-.589s-.614-.216-.991-.216c-.407 0-.777.082-1.11.246s-.621.397-.864.701a3.282 3.282 0 0 0-.566 1.11 5.026 5.026 0 0 0-.201 1.475c0 1.113.241 1.985.723 2.616s1.135.946 1.96.946c.437 0 .817-.085 1.14-.254s.624-.407.902-.715l.969 1.058c-.397.457-.85.808-1.356 1.051s-1.068.365-1.684.365a4.573 4.573 0 0 1-1.744-.328 3.88 3.88 0 0 1-1.401-.969c-.397-.427-.71-.953-.939-1.579-.231-.625-.345-1.341-.345-2.146zM271.715 225.082h1.729v3.92h3.949v-3.92h1.729v9.747h-1.729v-4.322h-3.949v4.322h-1.729v-9.747zM282.341 225.082h5.873v1.46h-4.144v2.489h3.503v1.461h-3.503v2.876h4.292v1.461h-6.021v-9.747zM291.104 225.082h2.608c1.49 0 2.653.402 3.487 1.207.835.805 1.252 2.012 1.252 3.622 0 .805-.106 1.515-.32 2.131s-.521 1.131-.924 1.543-.89.723-1.461.932c-.571.208-1.22.312-1.945.312h-2.697v-9.747zm2.49 8.346c.993 0 1.756-.285 2.288-.856.531-.571.797-1.458.797-2.66 0-1.192-.268-2.062-.805-2.608s-1.297-.82-2.28-.82h-.761v6.945h.761zM301.12 225.082h1.729v5.604c0 .527.047.972.142 1.334.094.363.229.653.402.872s.38.375.618.47c.239.095.507.142.806.142.297 0 .57-.047.818-.142.249-.095.463-.251.642-.47s.317-.509.417-.872c.1-.362.149-.807.149-1.334v-5.604h1.654v5.47c0 .805-.085 1.488-.253 2.049-.17.562-.416 1.021-.738 1.379s-.711.618-1.162.782c-.453.164-.961.246-1.527.246s-1.076-.082-1.528-.246-.84-.425-1.163-.782c-.322-.357-.57-.817-.744-1.379-.174-.561-.262-1.244-.262-2.049v-5.47zM311.672 225.082h1.729v8.286h4.054v1.461h-5.783v-9.747zM319.899 225.082h5.872v1.46h-4.144v2.489h3.502v1.461h-3.502v2.876h4.293v1.461h-6.021v-9.747zM328.663 225.082h2.607c1.49 0 2.653.402 3.488 1.207.834.805 1.252 2.012 1.252 3.622 0 .805-.107 1.515-.32 2.131-.215.616-.521 1.131-.924 1.543s-.891.723-1.461.932c-.572.208-1.221.312-1.945.312h-2.697v-9.747zm2.488 8.346c.994 0 1.756-.285 2.288-.856s.798-1.458.798-2.66c0-1.192-.269-2.062-.805-2.608-.537-.546-1.297-.82-2.281-.82h-.76v6.945h.76z"/></g><g fill-rule="evenodd" clip-rule="evenodd" fill="#2F3E5A"><path d="M232.532 207.344l-12.193-.111.054-6.03 7.809.072 4.33 6.069zm-7.066 7.654a3.138 3.138 0 0 0-.943 2.22c-.01.869.337 1.659.902 2.234a3.129 3.129 0 0 0 2.218.943 3.136 3.136 0 0 0 2.236-.902 3.156 3.156 0 0 0 .042-4.455 3.136 3.136 0 0 0-2.221-.941 3.143 3.143 0 0 0-2.234.901zm10.646 3.8l1.755.018.054-5.99-1.753-.016.054-5.964-6.314-8.853-12.785-.116-.189 20.746 4.447.041a6.45 6.45 0 0 0 1.691 3.1 6.426 6.426 0 0 0 4.541 1.93 6.426 6.426 0 0 0 4.578-1.845 6.435 6.435 0 0 0 1.746-3.069l.834.006 1.341.012zM195.976 214.729a3.15 3.15 0 0 0-.94 2.22 3.147 3.147 0 0 0 5.355 2.275 3.13 3.13 0 0 0 .941-2.218 3.142 3.142 0 0 0-3.12-3.178 3.143 3.143 0 0 0-2.236.901zm19.089 3.877l-10.617-.098a6.442 6.442 0 0 1-1.747 3.069 6.422 6.422 0 0 1-4.576 1.846 6.437 6.437 0 0 1-6.231-5.029l-2.042-.021v-.033l-1.657-.016.047-5.191 1.657.014.159-17.361 25.214.23-.207 22.59z"/></g><g fill="#2F3E5A" fill-opacity=".9"><path d="M209.501 265.796c-10.64 0-19.344 8.704-19.344 19.345 0 10.64 8.705 19.345 19.344 19.345 10.64 0 19.345-8.705 19.345-19.345 0-10.641-8.704-19.345-19.345-19.345zm0 34.821c-8.512 0-15.476-6.966-15.476-15.476 0-8.513 6.964-15.477 15.476-15.477s15.476 6.964 15.476 15.477c.001 8.51-6.964 15.476-15.476 15.476z"/><path d="M210.469 275.468h-2.902v11.607l10.059 6.19 1.549-2.515-8.706-5.223z"/></g><g fill="#FAFBFB"><path d="M253.383 277.002h2.116v-6.229h-1.744V269.7c.477-.089.887-.196 1.229-.32s.663-.275.961-.454h1.282v8.077h1.863v1.401h-5.708v-1.402zM261.818 276.168c.288.268.611.504.969.708.358.203.775.306 1.252.306.537 0 .977-.159 1.319-.478.343-.317.514-.765.514-1.341 0-.566-.159-1.004-.477-1.312-.318-.309-.74-.463-1.267-.463-.308 0-.566.043-.775.127a4.623 4.623 0 0 0-.745.41l-.82-.521.283-4.68h5.067v1.445h-3.577l-.194 2.295a3.35 3.35 0 0 1 .588-.23c.194-.055.415-.082.664-.082.407 0 .792.06 1.155.179s.678.301.947.544c.268.243.481.552.641.924.159.373.238.812.238 1.319 0 .517-.092.979-.275 1.386a3.066 3.066 0 0 1-1.804 1.662 3.707 3.707 0 0 1-1.259.216c-.765 0-1.408-.132-1.93-.395a5.057 5.057 0 0 1-1.304-.917l.79-1.102zM272.877 278.582c-.993 0-1.779-.425-2.355-1.274s-.864-2.079-.864-3.688.288-2.824.864-3.644c.576-.82 1.362-1.23 2.355-1.23s1.778.413 2.354 1.237c.576.825.865 2.037.865 3.637 0 1.609-.289 2.839-.865 3.688s-1.361 1.274-2.354 1.274zm0-1.341c.229 0 .439-.062.634-.187.193-.124.359-.33.499-.619.139-.288.248-.66.327-1.117.08-.457.119-1.023.119-1.699 0-.666-.039-1.225-.119-1.677-.079-.452-.188-.817-.327-1.096-.14-.277-.306-.474-.499-.589-.194-.113-.405-.171-.634-.171s-.439.058-.634.171c-.193.115-.359.312-.499.589-.14.278-.249.644-.327 1.096-.08.452-.12 1.011-.12 1.677 0 .676.04 1.242.12 1.699.078.457.188.829.327 1.117.14.289.306.495.499.619.195.125.405.187.634.187zM282.489 268.656h1.908l1.759 4.799.642 1.849h.059l.627-1.849 1.729-4.799h1.907v9.747h-1.624v-4.456c0-.229.008-.478.021-.745.016-.269.033-.539.053-.812s.045-.542.074-.805c.03-.264.055-.51.074-.738h-.059l-.791 2.221-1.684 4.427h-.805l-1.684-4.427-.775-2.221h-.06c.02.229.042.475.067.738l.074.805c.024.273.045.544.06.812s.022.517.022.745v4.456h-1.596v-9.747zM294.339 268.656h1.729v9.747h-1.729v-9.747zM299.286 268.656h1.773l3.041 5.484.998 2.072h.061c-.041-.507-.088-1.051-.143-1.633a17.95 17.95 0 0 1-.082-1.691v-4.232h1.654v9.747h-1.773l-3.04-5.484-.999-2.072h-.059c.039.517.086 1.059.141 1.625s.082 1.123.082 1.669v4.263h-1.654v-9.748zM309.764 268.656h1.729v5.604c0 .527.047.972.141 1.334.095.363.229.653.402.872s.381.375.619.47.506.142.805.142c.298 0 .571-.047.819-.142.249-.095.462-.251.642-.47.178-.219.317-.509.417-.872.099-.362.149-.807.149-1.334v-5.604h1.654v5.47c0 .805-.085 1.488-.254 2.049-.169.562-.415 1.021-.738 1.379-.322.357-.71.618-1.162.782s-.961.246-1.527.246-1.076-.082-1.527-.246c-.453-.164-.84-.425-1.163-.782s-.571-.817-.745-1.379c-.174-.561-.261-1.244-.261-2.049v-5.47zM322.283 270.116h-2.817v-1.46h7.363v1.46h-2.817v8.287h-1.729v-8.287zM329.198 268.656h5.873v1.46h-4.145v2.489h3.503v1.461h-3.503v2.876h4.293v1.461h-6.021v-9.747zM338.305 275.974c.349.328.745.594 1.192.798.447.203.895.306 1.342.306.557 0 .979-.114 1.267-.343s.433-.531.433-.909c0-.199-.037-.368-.112-.507a1.13 1.13 0 0 0-.313-.365 2.703 2.703 0 0 0-.477-.291 10.242 10.242 0 0 0-.604-.268l-1.342-.582a4.617 4.617 0 0 1-.707-.372 3.087 3.087 0 0 1-.634-.537 2.46 2.46 0 0 1-.454-.729 2.482 2.482 0 0 1-.172-.954c0-.388.082-.748.246-1.081.164-.332.39-.623.678-.871a3.146 3.146 0 0 1 1.036-.582 4.014 4.014 0 0 1 1.319-.208c.566 0 1.112.111 1.639.335.527.224.979.524 1.356.901l-.879 1.104c-.318-.259-.646-.462-.983-.611s-.716-.224-1.133-.224c-.467 0-.84.103-1.118.306a.986.986 0 0 0-.417.842c0 .189.042.351.127.484.084.135.198.254.342.358.145.104.311.198.5.283.188.084.382.166.581.245l1.326.552c.288.119.552.259.79.417.238.159.445.343.619.552s.311.45.409.723c.099.273.149.589.149.946 0 .397-.08.771-.238 1.118-.16.348-.391.653-.693.917a3.404 3.404 0 0 1-1.104.626c-.432.153-.922.23-1.468.23a5 5 0 0 1-1.899-.372 4.972 4.972 0 0 1-1.617-1.059l1.013-1.178z"/></g><g fill="#FAFBFB"><path d="M253.458 300.678h2.176v-7.005h-1.729v-.79c.437-.079.817-.176 1.14-.29s.613-.251.872-.41h.939v8.495h1.967v1.014h-5.366v-1.014zM261.029 300.961c.715-.715 1.351-1.361 1.908-1.938a19.123 19.123 0 0 0 1.401-1.602c.377-.492.666-.944.864-1.356s.298-.812.298-1.2c0-.546-.149-.993-.447-1.341-.298-.348-.75-.522-1.356-.522-.397 0-.766.112-1.103.336a4.596 4.596 0 0 0-.924.812l-.7-.701c.397-.437.82-.787 1.267-1.051.447-.263.984-.395 1.61-.395.884 0 1.58.256 2.086.768s.76 1.189.76 2.034c0 .447-.097.896-.291 1.349a7.623 7.623 0 0 1-.805 1.401c-.343.481-.75.983-1.222 1.505a71.464 71.464 0 0 1-1.557 1.662l.805-.06c.278-.02.542-.03.79-.03h2.757v1.059h-6.141v-.73zM272.714 291.109h.894l-3.979 12.966h-.895l3.98-12.966zM275.143 300.961c.716-.715 1.351-1.361 1.907-1.938s1.023-1.11 1.401-1.602c.378-.492.665-.944.864-1.356s.299-.812.299-1.2c0-.546-.149-.993-.447-1.341-.299-.348-.75-.522-1.356-.522-.397 0-.766.112-1.103.336a4.629 4.629 0 0 0-.925.812l-.7-.701c.396-.437.82-.787 1.267-1.051.447-.263.983-.395 1.61-.395.884 0 1.579.256 2.086.768s.76 1.189.76 2.034c0 .447-.097.896-.29 1.349a7.574 7.574 0 0 1-.806 1.401c-.342.481-.75.983-1.222 1.505s-.991 1.076-1.558 1.662l.805-.06c.278-.02.542-.03.791-.03h2.757v1.059h-6.141v-.73zM286.409 301.87c-.963 0-1.713-.427-2.25-1.281s-.805-2.082-.805-3.682.268-2.816.805-3.651 1.287-1.252 2.25-1.252c.955 0 1.699.417 2.236 1.252s.805 2.052.805 3.651-.268 2.827-.805 3.682-1.281 1.281-2.236 1.281zm0-.983c.279 0 .529-.077.754-.231.223-.153.416-.393.58-.715.164-.323.291-.735.381-1.237s.134-1.101.134-1.796-.044-1.292-.134-1.788c-.09-.497-.217-.902-.381-1.215-.164-.313-.357-.544-.58-.693a1.333 1.333 0 0 0-.754-.224c-.277 0-.531.074-.76.224s-.424.38-.588.693c-.164.312-.291.718-.381 1.215-.09.496-.134 1.093-.134 1.788 0 1.392.171 2.402.515 3.033.342.63.792.946 1.348.946zM294.979 291.109h.895l-3.979 12.966H291l3.979-12.966zM297.409 300.961c.715-.715 1.352-1.361 1.908-1.938a18.914 18.914 0 0 0 1.4-1.602c.377-.492.666-.944.864-1.356s.298-.812.298-1.2c0-.546-.148-.993-.447-1.341-.297-.348-.75-.522-1.355-.522-.397 0-.766.112-1.104.336s-.646.494-.924.812l-.7-.701a5.476 5.476 0 0 1 1.267-1.051c.447-.263.984-.395 1.609-.395.885 0 1.58.256 2.087.768s.761 1.189.761 2.034c0 .447-.098.896-.291 1.349s-.463.919-.805 1.401c-.344.481-.75.983-1.223 1.505-.472.521-.99 1.076-1.557 1.662l.805-.06a11 11 0 0 1 .789-.03h2.758v1.059h-6.141v-.73zM308.677 301.87c-.965 0-1.715-.427-2.251-1.281s-.805-2.082-.805-3.682.269-2.816.805-3.651 1.286-1.252 2.251-1.252c.953 0 1.699.417 2.235 1.252s.805 2.052.805 3.651-.269 2.827-.805 3.682-1.282 1.281-2.235 1.281zm0-.983c.277 0 .529-.077.752-.231.225-.153.418-.393.582-.715.164-.323.29-.735.38-1.237.089-.502.134-1.101.134-1.796s-.045-1.292-.134-1.788c-.09-.497-.216-.902-.38-1.215-.164-.313-.357-.544-.582-.693a1.327 1.327 0 0 0-.752-.224c-.279 0-.531.074-.76.224-.229.149-.426.38-.59.693-.164.312-.29.718-.379 1.215-.09.496-.135 1.093-.135 1.788 0 1.392.172 2.402.514 3.033.344.63.793.946 1.35.946zM314.295 300.678h2.177v-7.005h-1.729v-.79a7.417 7.417 0 0 0 1.14-.29c.323-.114.613-.251.873-.41h.938v8.495h1.968v1.014h-5.366v-1.014zM328.26 299.068h-1.296v2.623h-1.163v-2.623h-4.277v-.805l4.069-6.081h1.371v5.902h1.296v.984zm-2.459-.983v-2.758c0-.258.007-.563.022-.916.015-.353.032-.658.053-.917h-.061c-.119.229-.243.452-.372.671-.13.219-.264.442-.403.671l-2.221 3.249h2.982zM334.355 300.678h2.177v-7.005h-1.729v-.79a7.417 7.417 0 0 0 1.14-.29c.323-.114.613-.251.873-.41h.938v8.495h1.968v1.014h-5.366v-1.014zM345.042 301.87c-.965 0-1.715-.427-2.251-1.281s-.805-2.082-.805-3.682.269-2.816.805-3.651 1.286-1.252 2.251-1.252c.953 0 1.699.417 2.235 1.252s.805 2.052.805 3.651-.269 2.827-.805 3.682-1.282 1.281-2.235 1.281zm0-.983c.277 0 .529-.077.752-.231.225-.153.418-.393.582-.715.164-.323.29-.735.38-1.237.089-.502.134-1.101.134-1.796s-.045-1.292-.134-1.788c-.09-.497-.216-.902-.38-1.215-.164-.313-.357-.544-.582-.693a1.327 1.327 0 0 0-.752-.224c-.279 0-.531.074-.76.224-.229.149-.426.38-.59.693-.164.312-.29.718-.379 1.215-.09.496-.135 1.093-.135 1.788 0 1.392.172 2.402.514 3.033.344.63.793.946 1.35.946zM350.452 295.565c0-.288.086-.519.26-.692s.386-.261.634-.261c.239 0 .444.087.618.261s.262.404.262.692c0 .269-.088.49-.262.664s-.379.261-.618.261c-.248 0-.46-.087-.634-.261s-.26-.395-.26-.664zm0 5.381c0-.288.086-.52.26-.693s.386-.261.634-.261c.239 0 .444.087.618.261s.262.405.262.693c0 .269-.088.489-.262.663s-.379.261-.618.261c-.248 0-.46-.087-.634-.261s-.26-.394-.26-.663zM357.649 301.87c-.963 0-1.713-.427-2.25-1.281s-.805-2.082-.805-3.682.268-2.816.805-3.651 1.287-1.252 2.25-1.252c.955 0 1.699.417 2.236 1.252s.805 2.052.805 3.651-.268 2.827-.805 3.682-1.281 1.281-2.236 1.281zm0-.983c.279 0 .529-.077.754-.231.223-.153.416-.393.58-.715.164-.323.291-.735.381-1.237s.134-1.101.134-1.796-.044-1.292-.134-1.788c-.09-.497-.217-.902-.381-1.215-.164-.313-.357-.544-.58-.693a1.333 1.333 0 0 0-.754-.224c-.277 0-.531.074-.76.224s-.424.38-.588.693c-.164.312-.291.718-.381 1.215-.09.496-.134 1.093-.134 1.788 0 1.392.171 2.402.515 3.033.343.63.792.946 1.348.946zM365.802 301.87c-.963 0-1.713-.427-2.25-1.281s-.805-2.082-.805-3.682.268-2.816.805-3.651 1.287-1.252 2.25-1.252c.955 0 1.699.417 2.236 1.252s.805 2.052.805 3.651-.268 2.827-.805 3.682-1.281 1.281-2.236 1.281zm0-.983c.279 0 .529-.077.754-.231.223-.153.416-.393.58-.715.164-.323.291-.735.381-1.237s.134-1.101.134-1.796-.044-1.292-.134-1.788c-.09-.497-.217-.902-.381-1.215-.164-.313-.357-.544-.58-.693a1.333 1.333 0 0 0-.754-.224c-.277 0-.531.074-.76.224s-.424.38-.588.693c-.164.312-.291.718-.381 1.215-.09.496-.134 1.093-.134 1.788 0 1.392.171 2.402.515 3.033.342.63.791.946 1.348.946zM379.812 298.711h-3.562l-.938 2.98h-1.268l3.309-9.777h1.401l3.309 9.777h-1.326l-.925-2.98zm-.313-.999l-.462-1.49a52.422 52.422 0 0 1-.507-1.632 150.51 150.51 0 0 1-.477-1.662h-.061a55.301 55.301 0 0 1-.969 3.294l-.461 1.49h2.937zM384.194 291.914h1.46l1.894 5.246.715 1.998h.06l.686-1.998 1.878-5.246h1.461v9.777h-1.178v-5.38c0-.438.018-.919.053-1.446a54.59 54.59 0 0 1 .111-1.445h-.06l-.79 2.176-1.878 5.112h-.7l-1.893-5.112-.775-2.176h-.06c.03.438.064.919.104 1.445.039.527.059 1.009.059 1.446v5.38h-1.146v-9.777z"/></g><g fill="#FAFBFB"><path d="M253.458 324.9h2.176v-7.006h-1.729v-.789a7.41 7.41 0 0 0 1.14-.291c.323-.113.613-.25.872-.41h.939v8.496h1.967v1.014h-5.366V324.9zM261.029 325.183c.715-.715 1.351-1.361 1.908-1.938a19.283 19.283 0 0 0 1.401-1.602c.377-.492.666-.945.864-1.357s.298-.812.298-1.199c0-.547-.149-.994-.447-1.342-.298-.348-.75-.521-1.356-.521-.397 0-.766.111-1.103.336a4.566 4.566 0 0 0-.924.812l-.7-.701c.397-.438.82-.787 1.267-1.051.447-.264.984-.395 1.61-.395.884 0 1.58.256 2.086.768s.76 1.189.76 2.033c0 .447-.097.896-.291 1.35-.194.451-.462.918-.805 1.4s-.75.984-1.222 1.506a71.464 71.464 0 0 1-1.557 1.662c.258-.02.526-.041.805-.061.278-.02.542-.029.79-.029h2.757v1.059h-6.141v-.73zM272.714 315.332h.894l-3.979 12.967h-.895l3.98-12.967zM275.143 325.183c.716-.715 1.351-1.361 1.907-1.938s1.023-1.111 1.401-1.602c.378-.492.665-.945.864-1.357s.299-.812.299-1.199c0-.547-.149-.994-.447-1.342-.299-.348-.75-.521-1.356-.521-.397 0-.766.111-1.103.336a4.598 4.598 0 0 0-.925.812l-.7-.701c.396-.438.82-.787 1.267-1.051.447-.264.983-.395 1.61-.395.884 0 1.579.256 2.086.768s.76 1.189.76 2.033c0 .447-.097.896-.29 1.35a7.6 7.6 0 0 1-.806 1.4c-.342.482-.75.984-1.222 1.506s-.991 1.076-1.558 1.662c.259-.02.527-.041.805-.061.278-.02.542-.029.791-.029h2.757v1.059h-6.141v-.73zM286.409 326.091c-.963 0-1.713-.426-2.25-1.281-.537-.854-.805-2.082-.805-3.682s.268-2.816.805-3.65c.537-.836 1.287-1.252 2.25-1.252.955 0 1.699.416 2.236 1.252.537.834.805 2.051.805 3.65s-.268 2.828-.805 3.682c-.537.856-1.281 1.281-2.236 1.281zm0-.982c.279 0 .529-.078.754-.232.223-.152.416-.393.58-.715s.291-.734.381-1.236.134-1.102.134-1.797-.044-1.291-.134-1.787c-.09-.498-.217-.902-.381-1.215-.164-.314-.357-.545-.58-.693a1.326 1.326 0 0 0-.754-.225c-.277 0-.531.074-.76.225-.229.148-.424.379-.588.693-.164.312-.291.717-.381 1.215-.09.496-.134 1.092-.134 1.787 0 1.393.171 2.402.515 3.033.342.63.792.947 1.348.947zM294.979 315.332h.895l-3.979 12.967H291l3.979-12.967zM297.409 325.183c.715-.715 1.352-1.361 1.908-1.938a19.071 19.071 0 0 0 1.4-1.602c.377-.492.666-.945.864-1.357s.298-.812.298-1.199c0-.547-.148-.994-.447-1.342-.297-.348-.75-.521-1.355-.521-.397 0-.766.111-1.104.336a4.566 4.566 0 0 0-.924.812l-.7-.701c.397-.438.819-.787 1.267-1.051s.984-.395 1.609-.395c.885 0 1.58.256 2.087.768s.761 1.189.761 2.033c0 .447-.098.896-.291 1.35a7.65 7.65 0 0 1-.805 1.4c-.344.482-.75.984-1.223 1.506-.472.521-.99 1.076-1.557 1.662.258-.02.525-.041.805-.061.277-.02.541-.029.789-.029h2.758v1.059h-6.141v-.73zM308.677 326.091c-.965 0-1.715-.426-2.251-1.281-.536-.854-.805-2.082-.805-3.682s.269-2.816.805-3.65c.536-.836 1.286-1.252 2.251-1.252.953 0 1.699.416 2.235 1.252.536.834.805 2.051.805 3.65s-.269 2.828-.805 3.682c-.536.856-1.282 1.281-2.235 1.281zm0-.982c.277 0 .529-.078.752-.232.225-.152.418-.393.582-.715s.29-.734.38-1.236c.089-.502.134-1.102.134-1.797s-.045-1.291-.134-1.787c-.09-.498-.216-.902-.38-1.215-.164-.314-.357-.545-.582-.693a1.32 1.32 0 0 0-.752-.225c-.279 0-.531.074-.76.225-.229.148-.426.379-.59.693-.164.312-.29.717-.379 1.215-.09.496-.135 1.092-.135 1.787 0 1.393.172 2.402.514 3.033.344.63.793.947 1.35.947zM314.295 324.9h2.177v-7.006h-1.729v-.789a7.41 7.41 0 0 0 1.14-.291c.323-.113.613-.25.873-.41h.938v8.496h1.968v1.014h-5.366V324.9zM328.26 323.291h-1.296v2.623h-1.163v-2.623h-4.277v-.805l4.069-6.082h1.371v5.902h1.296v.985zm-2.459-.985v-2.758c0-.258.007-.562.022-.916.015-.352.032-.658.053-.916h-.061a14.4 14.4 0 0 1-.372.67c-.13.219-.264.443-.403.672l-2.221 3.248h2.982zM334.355 324.9h2.177v-7.006h-1.729v-.789a7.41 7.41 0 0 0 1.14-.291c.323-.113.613-.25.873-.41h.938v8.496h1.968v1.014h-5.366V324.9zM341.927 325.183c.715-.715 1.352-1.361 1.908-1.938a19.071 19.071 0 0 0 1.4-1.602c.377-.492.666-.945.864-1.357s.298-.812.298-1.199c0-.547-.148-.994-.447-1.342-.297-.348-.75-.521-1.355-.521-.397 0-.766.111-1.104.336a4.566 4.566 0 0 0-.924.812l-.7-.701c.397-.438.819-.787 1.267-1.051s.984-.395 1.609-.395c.885 0 1.58.256 2.087.768s.761 1.189.761 2.033c0 .447-.098.896-.291 1.35a7.65 7.65 0 0 1-.805 1.4c-.344.482-.75.984-1.223 1.506-.472.521-.99 1.076-1.557 1.662.258-.02.525-.041.805-.061.277-.02.541-.029.789-.029h2.758v1.059h-6.141v-.73zM350.452 319.787c0-.287.086-.518.26-.691s.386-.262.634-.262c.239 0 .444.088.618.262s.262.404.262.691c0 .27-.088.49-.262.664s-.379.262-.618.262c-.248 0-.46-.088-.634-.262s-.26-.395-.26-.664zm0 5.38c0-.287.086-.52.26-.693s.386-.26.634-.26c.239 0 .444.086.618.26s.262.406.262.693c0 .27-.088.49-.262.664s-.379.26-.618.26c-.248 0-.46-.086-.634-.26s-.26-.394-.26-.664zM354.952 323.945c.289.299.623.562 1.006.791s.857.342 1.424.342c.576 0 1.049-.156 1.416-.469s.551-.738.551-1.273c0-.279-.052-.535-.156-.768a1.466 1.466 0 0 0-.514-.604c-.238-.17-.552-.299-.939-.389-.387-.09-.864-.135-1.431-.135v-.938c.507 0 .932-.045 1.274-.135s.621-.213.834-.373c.215-.158.365-.348.455-.566s.135-.451.135-.699c0-.467-.147-.836-.439-1.104-.294-.268-.693-.402-1.201-.402-.396 0-.762.09-1.095.268-.333.18-.644.412-.932.701l-.655-.775a5.084 5.084 0 0 1 1.215-.857c.441-.223.945-.334 1.512-.334.418 0 .801.055 1.148.164s.648.266.901.469.449.455.589.752c.139.299.209.641.209 1.029 0 .576-.16 1.049-.478 1.416s-.735.65-1.252.85v.059c.288.07.557.172.805.307.249.133.468.303.656.506.188.205.335.439.439.709.104.268.156.566.156.895 0 .416-.081.795-.245 1.131a2.515 2.515 0 0 1-.672.857 3.032 3.032 0 0 1-.99.537 3.927 3.927 0 0 1-1.223.186c-.377 0-.723-.037-1.035-.111a4.132 4.132 0 0 1-.857-.299 3.8 3.8 0 0 1-.693-.424 4.06 4.06 0 0 1-.543-.506l.625-.808zM365.802 326.091c-.963 0-1.713-.426-2.25-1.281-.537-.854-.805-2.082-.805-3.682s.268-2.816.805-3.65c.537-.836 1.287-1.252 2.25-1.252.955 0 1.699.416 2.236 1.252.537.834.805 2.051.805 3.65s-.268 2.828-.805 3.682c-.537.856-1.281 1.281-2.236 1.281zm0-.982c.279 0 .529-.078.754-.232.223-.152.416-.393.58-.715s.291-.734.381-1.236.134-1.102.134-1.797-.044-1.291-.134-1.787c-.09-.498-.217-.902-.381-1.215-.164-.314-.357-.545-.58-.693a1.326 1.326 0 0 0-.754-.225c-.277 0-.531.074-.76.225-.229.148-.424.379-.588.693-.164.312-.291.717-.381 1.215-.09.496-.134 1.092-.134 1.787 0 1.393.171 2.402.515 3.033.342.63.791.947 1.348.947zM375.341 316.136h2.996c.536 0 1.027.049 1.475.148s.828.262 1.141.484c.312.225.557.52.73.887.174.369.261.82.261 1.357 0 .516-.087.963-.261 1.34-.174.379-.42.691-.738.939s-.697.436-1.14.559a5.389 5.389 0 0 1-1.468.188h-1.759v3.875h-1.237v-9.777zm2.847 4.889c.854 0 1.487-.162 1.9-.484.412-.322.618-.832.618-1.527 0-.705-.209-1.195-.625-1.469-.418-.273-1.049-.41-1.894-.41h-1.609v3.891h1.61zM384.671 316.136h1.461l1.893 5.246.715 1.998h.061l.686-1.998 1.877-5.246h1.461v9.777h-1.178v-5.381c0-.438.018-.918.053-1.445s.072-1.008.111-1.445h-.059l-.791 2.176-1.877 5.111h-.701l-1.893-5.111-.775-2.176h-.059c.029.438.064.918.104 1.445s.06 1.008.06 1.445v5.381h-1.147v-9.777z"/></g><g><g fill="#FAFBFB"><path d="M253.383 367.306h2.116v-6.23h-1.744v-1.072c.477-.09.887-.197 1.229-.32.343-.125.663-.275.961-.455h1.282v8.078h1.863v1.4h-5.708v-1.401zM261.237 367.708c.656-.637 1.25-1.223 1.781-1.758.532-.537.984-1.033 1.356-1.492.373-.455.658-.883.857-1.281.199-.396.298-.775.298-1.133 0-.506-.134-.906-.403-1.199-.268-.293-.656-.439-1.162-.439-.368 0-.703.104-1.006.312s-.583.457-.842.746l-.954-.955a5.493 5.493 0 0 1 1.349-1.08c.462-.254 1.021-.381 1.677-.381.457 0 .869.07 1.237.209.368.141.681.336.939.59.258.252.459.559.604.916s.216.756.216 1.191c0 .418-.092.844-.276 1.275a7.08 7.08 0 0 1-.745 1.311c-.313.443-.678.898-1.096 1.365-.417.467-.859.949-1.326 1.445l.805-.066c.288-.025.546-.039.775-.039h2.325v1.461h-6.409v-.998zM272.713 358.125h1.163l-3.473 12.967h-1.163l3.473-12.967zM276.036 367.306h2.117v-6.23h-1.744v-1.072c.477-.09.887-.197 1.229-.32a5.52 5.52 0 0 0 .962-.455h1.281v8.078h1.863v1.4h-5.709v-1.401zM284.502 366.441c.288.289.616.535.983.738s.791.307 1.268.307c.516 0 .936-.127 1.26-.381.322-.254.484-.604.484-1.051a1.6 1.6 0 0 0-.135-.67 1.194 1.194 0 0 0-.455-.508c-.213-.139-.499-.246-.856-.32a6.78 6.78 0 0 0-1.341-.111v-1.252c.467 0 .856-.037 1.17-.111.312-.076.566-.18.76-.314a1.17 1.17 0 0 0 .417-.484 1.47 1.47 0 0 0 .127-.611c0-.396-.124-.707-.372-.93-.249-.225-.592-.336-1.029-.336-.377 0-.718.082-1.021.246a4.313 4.313 0 0 0-.888.648l-.879-1.059a5.645 5.645 0 0 1 1.305-.865 3.559 3.559 0 0 1 1.543-.328c.456 0 .873.055 1.251.164s.7.271.97.484c.268.215.477.479.625.791.149.312.224.668.224 1.064 0 .537-.146.984-.439 1.342-.294.357-.698.637-1.215.836v.059a2.887 2.887 0 0 1 1.409.82c.372.396.559.908.559 1.535 0 .438-.088.824-.262 1.162s-.412.623-.715.857a3.32 3.32 0 0 1-1.059.535 4.32 4.32 0 0 1-1.289.188c-.775 0-1.421-.129-1.938-.389a4.233 4.233 0 0 1-1.281-.953l.819-1.103zM295.366 358.125h1.163l-3.473 12.967h-1.163l3.473-12.967zM298.153 367.708c.656-.637 1.25-1.223 1.781-1.758.531-.537.984-1.033 1.356-1.492.372-.455.658-.883.856-1.281.199-.396.299-.775.299-1.133 0-.506-.135-.906-.402-1.199-.269-.293-.656-.439-1.162-.439-.368 0-.703.104-1.007.312s-.583.457-.842.746l-.954-.955c.438-.467.887-.826 1.35-1.08.461-.254 1.02-.381 1.676-.381.457 0 .869.07 1.237.209.368.141.681.336.938.59.259.252.46.559.604.916.145.357.217.756.217 1.191 0 .418-.092.844-.275 1.275a7.145 7.145 0 0 1-.746 1.311c-.312.443-.678.898-1.096 1.365-.416.467-.859.949-1.326 1.445l.805-.066c.289-.025.547-.039.775-.039h2.325v1.461h-6.409v-.998zM309.794 368.886c-.994 0-1.779-.426-2.355-1.275s-.864-2.078-.864-3.688.288-2.824.864-3.645 1.361-1.23 2.355-1.23c.993 0 1.777.414 2.354 1.238.576.824.864 2.037.864 3.637 0 1.609-.288 2.838-.864 3.688-.577.849-1.361 1.275-2.354 1.275zm0-1.342c.229 0 .439-.062.633-.186.193-.125.36-.33.5-.619.139-.289.248-.66.327-1.117s.119-1.023.119-1.699c0-.666-.04-1.225-.119-1.678-.079-.451-.188-.816-.327-1.096-.14-.277-.307-.473-.5-.588-.193-.113-.404-.172-.633-.172s-.439.059-.634.172c-.194.115-.36.311-.499.588-.14.279-.249.645-.328 1.096-.08.453-.119 1.012-.119 1.678 0 .676.039 1.242.119 1.699.079.457.188.828.328 1.117.139.289.305.494.499.619.194.124.405.186.634.186zM315.472 367.306h2.116v-6.23h-1.743v-1.072c.477-.09.887-.197 1.229-.32.344-.125.664-.275.962-.455h1.282v8.078h1.862v1.4h-5.708v-1.401zM330.018 366.263h-1.192v2.443h-1.609v-2.443h-4.188v-1.162l3.756-5.873h2.042v5.709h1.192v1.326zm-2.802-1.326v-2.146a29.552 29.552 0 0 1 .074-1.966h-.06c-.119.248-.243.49-.372.729l-.402.746-1.729 2.639h2.489zM336.054 367.306h2.116v-6.23h-1.743v-1.072c.477-.09.887-.197 1.229-.32.344-.125.664-.275.962-.455h1.282v8.078h1.862v1.4h-5.708v-1.401zM347.157 368.886c-.994 0-1.779-.426-2.355-1.275s-.864-2.078-.864-3.688.288-2.824.864-3.645 1.361-1.23 2.355-1.23c.993 0 1.777.414 2.354 1.238.576.824.864 2.037.864 3.637 0 1.609-.288 2.838-.864 3.688-.576.849-1.361 1.275-2.354 1.275zm0-1.342c.229 0 .439-.062.633-.186.193-.125.36-.33.5-.619.139-.289.248-.66.327-1.117s.119-1.023.119-1.699c0-.666-.04-1.225-.119-1.678-.079-.451-.188-.816-.327-1.096-.14-.277-.307-.473-.5-.588-.193-.113-.404-.172-.633-.172s-.439.059-.634.172c-.194.115-.36.311-.499.588-.14.279-.249.645-.328 1.096-.08.453-.119 1.012-.119 1.678 0 .676.039 1.242.119 1.699.079.457.188.828.328 1.117.139.289.305.494.499.619.195.124.406.186.634.186zM352.671 362.626c0-.338.106-.617.32-.834.214-.219.479-.328.797-.328.318 0 .582.109.791.328.208.217.312.496.312.834s-.104.615-.312.834a1.047 1.047 0 0 1-.791.328c-.317 0-.583-.109-.797-.328s-.32-.496-.32-.834zm0 5.098c0-.338.106-.617.32-.836s.479-.328.797-.328c.318 0 .582.109.791.328.208.219.312.498.312.836s-.104.615-.312.834a1.047 1.047 0 0 1-.791.328c-.317 0-.583-.109-.797-.328s-.32-.496-.32-.834zM360.392 368.886c-.994 0-1.779-.426-2.355-1.275s-.864-2.078-.864-3.688.288-2.824.864-3.645 1.361-1.23 2.355-1.23c.993 0 1.777.414 2.354 1.238.576.824.864 2.037.864 3.637 0 1.609-.288 2.838-.864 3.688-.577.849-1.361 1.275-2.354 1.275zm0-1.342c.229 0 .439-.062.633-.186.193-.125.36-.33.5-.619.139-.289.248-.66.327-1.117s.119-1.023.119-1.699c0-.666-.04-1.225-.119-1.678-.079-.451-.188-.816-.327-1.096-.14-.277-.307-.473-.5-.588-.193-.113-.404-.172-.633-.172s-.439.059-.634.172c-.194.115-.36.311-.499.588-.14.279-.249.645-.328 1.096-.08.453-.119 1.012-.119 1.678 0 .676.039 1.242.119 1.699.079.457.188.828.328 1.117.139.289.305.494.499.619.194.124.405.186.634.186zM368.782 368.886c-.994 0-1.779-.426-2.355-1.275s-.864-2.078-.864-3.688.288-2.824.864-3.645 1.361-1.23 2.355-1.23c.993 0 1.777.414 2.354 1.238.576.824.864 2.037.864 3.637 0 1.609-.288 2.838-.864 3.688-.576.849-1.361 1.275-2.354 1.275zm0-1.342c.229 0 .439-.062.633-.186.193-.125.36-.33.5-.619.139-.289.248-.66.327-1.117s.119-1.023.119-1.699c0-.666-.04-1.225-.119-1.678-.079-.451-.188-.816-.327-1.096-.14-.277-.307-.473-.5-.588-.193-.113-.404-.172-.633-.172s-.439.059-.634.172c-.194.115-.36.311-.499.588-.14.279-.249.645-.328 1.096-.08.453-.119 1.012-.119 1.678 0 .676.039 1.242.119 1.699.079.457.188.828.328 1.117.139.289.305.494.499.619.195.124.406.186.634.186zM382.925 366.07h-3.279l-.76 2.637h-1.758l3.174-9.746h2.027l3.174 9.746h-1.818l-.76-2.637zm-.387-1.358l-.344-1.191c-.158-.518-.311-1.049-.454-1.596s-.286-1.088-.425-1.625h-.06l-.417 1.633a38.51 38.51 0 0 1-.447 1.588l-.343 1.191h2.49zM387.456 358.96h1.908l1.758 4.799.642 1.848h.06l.626-1.848 1.729-4.799h1.906v9.746h-1.624v-4.455c0-.229.008-.479.022-.746.016-.268.032-.539.053-.812.02-.273.045-.541.074-.805s.055-.51.074-.738h-.06l-.79 2.221-1.684 4.428h-.805l-1.685-4.428-.774-2.221h-.061l.067.738.075.805c.023.273.044.545.059.812.016.268.022.518.022.746v4.455h-1.595v-9.746z"/></g><g fill="#FAFBFB"><path d="M253.622 382.218h1.282l3.532 6.141 1.058 2.027h.06c-.03-.498-.062-1.012-.097-1.543a23.94 23.94 0 0 1-.052-1.572v-5.053h1.178v9.777H259.3l-3.547-6.156-1.058-2.012h-.06c.04.496.077 1.002.112 1.514s.052 1.025.052 1.541v5.113h-1.177v-9.777zM267.616 392.173c-.616 0-1.18-.119-1.692-.357s-.951-.578-1.319-1.021c-.368-.441-.653-.979-.857-1.609s-.306-1.338-.306-2.123.102-1.488.306-2.109.489-1.146.857-1.58c.368-.432.807-.762 1.319-.99s1.076-.344 1.692-.344a4 4 0 0 1 1.691.352c.512.232.954.566 1.327.998s.661.959.865 1.58c.203.621.305 1.318.305 2.094 0 .785-.102 1.492-.305 2.123-.204.631-.492 1.168-.865 1.609-.373.443-.815.783-1.327 1.021s-1.075.356-1.691.356zm0-1.088a2.47 2.47 0 0 0 1.185-.283c.353-.188.656-.459.909-.812.253-.352.45-.773.589-1.266s.208-1.047.208-1.662c0-.605-.069-1.152-.208-1.639-.139-.488-.335-.9-.589-1.238s-.557-.598-.909-.781a2.501 2.501 0 0 0-1.185-.277c-.438 0-.833.092-1.185.277-.353.184-.656.443-.909.781s-.45.75-.588 1.238a5.924 5.924 0 0 0-.209 1.639c0 .615.069 1.17.209 1.662.139.492.335.914.588 1.266.253.354.557.625.909.812.353.19.748.283 1.185.283zM276.38 383.261h-2.951v-1.043h7.154v1.043h-2.951v8.734h-1.252v-8.734zM291.313 389.015h-3.562l-.938 2.98h-1.267l3.309-9.777h1.4l3.309 9.777h-1.326l-.925-2.98zm-.312-1l-.463-1.49a54.257 54.257 0 0 1-.506-1.631c-.16-.543-.318-1.096-.478-1.662h-.06a59.188 59.188 0 0 1-.969 3.293l-.462 1.49h2.938zM301.062 391.996l-2.355-4.129h-1.773v4.129h-1.237v-9.777h3.056c.496 0 .956.047 1.379.141.422.096.784.252 1.088.471.303.219.539.502.707.85.17.348.254.775.254 1.281 0 .766-.199 1.377-.596 1.834-.398.457-.93.77-1.596.938l2.475 4.264h-1.402zm-4.129-5.143h1.639c.766 0 1.352-.156 1.76-.469.406-.314.61-.787.61-1.424 0-.646-.204-1.098-.61-1.355-.408-.26-.994-.389-1.76-.389h-1.639v3.637zM310.466 391.996l-2.355-4.129h-1.773v4.129H305.1v-9.777h3.056c.496 0 .956.047 1.379.141.422.096.784.252 1.088.471.303.219.539.502.707.85.17.348.254.775.254 1.281 0 .766-.199 1.377-.596 1.834-.398.457-.93.77-1.596.938l2.475 4.264h-1.401zm-4.129-5.143h1.639c.766 0 1.352-.156 1.76-.469.406-.314.61-.787.61-1.424 0-.646-.204-1.098-.61-1.355-.408-.26-.994-.389-1.76-.389h-1.639v3.637zM314.504 382.218h1.237v9.777h-1.237v-9.777zM317.827 382.218h1.326l1.565 5.275c.179.586.335 1.129.47 1.625.134.496.295 1.033.484 1.609h.059c.18-.576.338-1.113.478-1.609s.293-1.039.462-1.625l1.564-5.275h1.268l-3.1 9.777h-1.446l-3.13-9.777zM327.589 382.218h5.635v1.043h-4.396v3.07h3.711v1.059h-3.711v3.547h4.545v1.059h-5.783v-9.778zM336.188 382.218h2.444c1.511 0 2.657.418 3.442 1.252s1.178 2.031 1.178 3.592c0 .775-.1 1.469-.298 2.078a4.159 4.159 0 0 1-.88 1.551 3.8 3.8 0 0 1-1.43.969c-.566.225-1.218.336-1.953.336h-2.504v-9.778zm2.356 8.764c1.143 0 1.999-.344 2.57-1.029s.857-1.648.857-2.891-.286-2.191-.857-2.848c-.571-.654-1.428-.982-2.57-.982h-1.118v7.75h1.118zM351.436 388.21l-2.937-5.992h1.326l1.268 2.758c.158.357.312.709.462 1.057.149.35.308.707.478 1.074h.059c.169-.367.338-.725.507-1.074.169-.348.328-.699.478-1.057l1.252-2.758h1.297l-2.937 5.992v3.785h-1.252v-3.785zM357.694 382.218h5.635v1.043h-4.396v3.07h3.711v1.059h-3.711v3.547h4.545v1.059h-5.783v-9.778zM368.321 383.261h-2.951v-1.043h7.154v1.043h-2.951v8.734h-1.252v-8.734z"/></g><path fill="#2F3E5A" fill-opacity=".9" d="M209.501 348.274c-12.002 0-21.822 9.821-21.822 21.823s9.82 21.822 21.822 21.822c12.003 0 21.823-9.82 21.823-21.822s-9.82-21.823-21.823-21.823z"/><g fill="#34B2FF"><path d="M198.383 365.636h5.796v1.441h-4.09v2.457h3.457v1.441h-3.457v2.84h4.237v1.441h-5.943v-9.62zM208.976 367.078h-2.781v-1.441h7.268v1.441h-2.78v8.18h-1.707v-8.18zM219.685 372.654h-3.236l-.75 2.604h-1.736l3.133-9.621h2.001l3.133 9.621h-1.794l-.751-2.604zm-.382-1.338l-.338-1.178a39.903 39.903 0 0 1-.449-1.574c-.143-.539-.282-1.074-.419-1.604h-.059l-.412 1.611a36.2 36.2 0 0 1-.441 1.566l-.338 1.178h2.456z"/></g></g><g><path fill="#FFF" d="M447.272 165.153l-4.158-4.159-4.158 4.159-2.08-2.08 4.16-4.158-4.16-4.159 2.08-2.08 4.158 4.159 4.158-4.159 2.081 2.08-4.16 4.159 4.16 4.158z"/></g></g><g><path fill="#2F3E5A" d="M119.919 156.661c-3.58 0-6.509 2.929-6.509 6.509s2.929 6.509 6.509 6.509c3.581 0 6.51-2.929 6.51-6.509s-2.929-6.509-6.51-6.509zm14.484 4.881c-.814-6.835-6.184-12.205-12.856-12.856v-3.417h-3.254v3.417a14.238 14.238 0 0 0-12.856 12.856h-3.417v3.255h3.417c.813 6.835 6.184 12.205 12.856 12.856v3.417h3.254v-3.417c6.835-.814 12.206-6.184 12.856-12.856h3.417v-3.255h-3.417zm-14.484 13.02c-6.347 0-11.392-5.045-11.392-11.392s5.045-11.392 11.392-11.392 11.392 5.045 11.392 11.392-5.045 11.392-11.392 11.392z"/></g></svg>