<svg xmlns="http://www.w3.org/2000/svg" viewBox="0 0 164.06 56.31"><title>andPizza-logo</title><g data-name="Layer 2"><path d="M93.21 38.07l10.71-12.15v-6.39H81.9v7.78h10.5l-10.5 12.1v6.5h22.02v-7.84H93.21zm26.39 0l10.7-12.15v-6.39h-22.02v7.78h10.51l-10.51 12.1v6.5h22.02v-7.84h-10.7zM69.07 19.49h8.19v26.42h-8.19zM28.48 36.85l.54-1a17 17 0 0 0 1.9-7.75h-8.53l-9.85-14.34c-2.38-3.59.09-6.6 2.85-6.6a3.81 3.81 0 0 1 3.86 3.75 3.61 3.61 0 0 1-.09.79c0 .16-.07.32-.11.49a4.67 4.67 0 0 1-1.61 2.26l4.12 5.89C31.1 13.39 26.77 0 15.1 0 7.69 0-.51 8.22 6.1 19l1.12 1.7-1.41 1.12C1.9 24.94 0 28.56 0 32.87a12.76 12.76 0 0 0 4.17 9.66 14 14 0 0 0 10.13 4 13.63 13.63 0 0 0 7.84-2.59l1.4-.95 1.94 2.84h9zm-14.81 1.78a5.86 5.86 0 0 1-4.18-1.8 5.6 5.6 0 0 1-1.57-4 5.73 5.73 0 0 1 2.54-4.69L12 27.09l6.65 9.18a5.83 5.83 0 0 1-4.94 2.37m37.61-19.55a13.81 13.81 0 0 0-13.79 13.79v23.43h8.28V45.52a13.79 13.79 0 1 0 5.51-26.43m0 19.31a5.52 5.52 0 0 1-5.51-5.4v-.25a5.51 5.51 0 1 1 5.51 5.64m102.8 7.54h6.66V32.71A13.79 13.79 0 1 0 147 46.5a14.53 14.53 0 0 0 7.13-2zm-1.62-13.09a5.51 5.51 0 1 1 0-.25zm9.5-13.25a2 2 0 1 1-2 2 2 2 0 0 1 2-2m0 3.71a1.7 1.7 0 1 0-1.69-1.7 1.69 1.69 0 0 0 1.69 1.7m0-1.59h-.37v.9h-.27v-2h.8c.45 0 .65.2.65.56a.54.54 0 0 1-.5.56l.61.9h-.33zm-.37-.24h.37c.27 0 .48 0 .48-.32s-.24-.32-.48-.32h-.44z" data-name="Layer 1"/></g></svg>