<svg xmlns="http://www.w3.org/2000/svg" viewBox="0 0 515.57 517.96"><title>menu-item1</title><path d="M0 0h238.5v238.5H0z" style="isolation:isolate" opacity=".05"/><path d="M53.68 125.14h4v11.41h7v3.66h-11zm21.33 15.37a7.69 7.69 0 0 1-3.08-.61 7.58 7.58 0 0 1-2.45-1.67 7.74 7.74 0 0 1-1.61-2.48 7.86 7.86 0 0 1-.59-3 8 8 0 0 1 .59-3 7.72 7.72 0 0 1 14.91 2.85 7.92 7.92 0 0 1-.59 3 7.624 7.624 0 0 1-7.18 4.79zm0-3.77a3.45 3.45 0 0 0 2.66-1.19 4.11 4.11 0 0 0 .74-1.28 4.584 4.584 0 0 0 0-3.1 4 4 0 0 0-.76-1.29 3.76 3.76 0 0 0-1.17-.89 3.624 3.624 0 0 0-3-.01 3.62 3.62 0 0 0-1.16.87 3.83 3.83 0 0 0-.74 1.28 4.62 4.62 0 0 0-.26 1.55 4.49 4.49 0 0 0 .27 1.55 4.13 4.13 0 0 0 .75 1.29 3.65 3.65 0 0 0 1.17.89 3.36 3.36 0 0 0 1.53.33zm12.17-11.6h6.81a8.08 8.08 0 0 1 2.82.43 4.68 4.68 0 0 1 3.14 4.71 4.89 4.89 0 0 1-.8 2.88 5.09 5.09 0 0 1-2.16 1.84l3.43 5.25h-4.6l-2.9-4.56h-1.75v4.56h-4zm6.62 7.23a2.33 2.33 0 0 0 1.58-.48 1.64 1.64 0 0 0 .55-1.3 1.59 1.59 0 0 0-.58-1.35 2.55 2.55 0 0 0-1.58-.44h-2.6v3.62zm13.16-7.23h4v15.06h-4zm15.62 0h4v11.41h7v3.66h-11zm19.78-.14h3.84l6.13 15.18h-4.28l-1-2.69h-5.55l-1 2.69h-4.19zm3.5 9.26l-1.6-4.28-1.68 4.3zm9.59-9.12h3.73l5.93 8v-8h3.93v15.06h-3.46l-6.16-8.27v8.27h-3.93zm18.21 0h11.55v3.55h-7.63V131h6.91v3.29h-6.91v2.39h7.73v3.55h-11.65zm-82.08 38.52c0 6.45 28.11 10.11 28.11 10.11s27.3-5.07 27.3-10.11z"/><path d="M48.33 165.81v-19.9h70.07v4.3H52.64v11.3l65.76-.05c4 0 6.4-2.1 6.4-5.62v-2.15h57.64V158H128.9c-.92 4.73-4.91 7.77-10.5 7.77z"/><path d="M190.17 165.81l-69.78-.05v-4.3l65.47.05v-11.3h-65.47c-.69 0-6.7.16-6.7 5.62V158h-57.8v-4.3h53.69c1.07-5.33 6.09-7.78 10.8-7.78h69.77z"/><circle cx="119.25" cy="155.98" r="3.04"/><path d="M85.01 116.62l-4.25-.69c1.69-10.45 9.37-18.59 22.21-23.55a71.24 71.24 0 0 1 18.61-4.31l3.91-.28-1.87 3.45a10 10 0 0 0-.87 2.73c-.62 3.87 1.44 6.42 6.32 7.81 2.41.68 5.06 1.33 7.86 2 11.47 2.78 22.3 5.41 22.3 11.86h-4.3c0-3.06-11.9-5.95-19-7.67-2.84-.69-5.53-1.34-8-2-9.87-2.8-9.86-9.77-9.4-12.64a2.278 2.278 0 0 1 .1-.52c-8.52 1.24-30.79 6.28-33.62 23.81z"/><path d="M99.69 117.47a14 14 0 0 1-.71-11.11c2.38-7 9.7-13.07 21.76-17.91l1.6 4c-10.61 4.26-17.27 9.51-19.25 15.18a9.68 9.68 0 0 0 .31 7.65z"/><path d="M129.95 118.28c-10.28-4-15.94-9-16.82-15-1.18-8 6.75-14.26 7.09-14.52l2.64 3.4c-.06 0-6.29 5-5.47 10.51.64 4.29 5.51 8.3 14.1 11.6z"/><path d="M48.61 114.12h141.27v4.3H48.61z"/><circle cx="162.42" cy="102.8" r="4.44"/><circle cx="119.25" cy="76.66" r="7.31"/><circle cx="73.61" cy="102.8" r="4.44"/><path d="M183.33 116.11v-.14l4-1.1h.53zm-1.29-3.9h-.09a35.652 35.652 0 0 0-1.62-3.77v-.07l3.87-1.87v.06c.66 1.35 1.26 2.74 1.78 4.12v.07zm-3.63-7.39v-.06c-.7-1.16-1.46-2.32-2.25-3.46v-.06l3.52-2.5v.06c.88 1.25 1.69 2.51 2.44 3.76v.06zm-4.76-6.74v-.06c-.86-1-1.78-2.05-2.73-3l-.07.07v-.2l3.11-3V92c1 1 2 2.12 3 3.29l.06.06zm-5.75-6h-.06c-1-.9-2.08-1.81-3.19-2.67h-.06l2.65-3.41h.06c1.16.9 2.31 1.87 3.42 2.86zM161.36 87h-.22l.07-.06c-1.16-.79-2.32-1.52-3.46-2.2h-.06l2.2-3.7h.06c1.23.73 2.5 1.54 3.75 2.38h.07zm-7.18-4.3h-.07a70.47 70.47 0 0 0-3.73-1.78l-.2.17 1.94-4.13c1.32.57 2.66 1.22 4 1.88h.06zm-7.6-3.35h-.07c-1.28-.47-2.61-.93-4-1.35h-.07l1.28-4.1h.07c1.39.44 2.81.92 4.19 1.43h.07zm-8-2.5h-.07c-1.33-.34-2.71-.65-4.09-.92h-.07l.85-4.28.07.07c1.43.29 2.87.6 4.3 1h.01zm-84.09 39.26l-4.51-1.25h.6l4 1.14zm1.36-3.9h-.09l-4-1.51v-.14c.52-1.36 1.11-2.73 1.75-4.06v-.06l3.87 1.87v.07c-.6 1.23-1.15 2.5-1.62 3.77zm3.54-7.39l-3.69-2.2v-.06c.75-1.25 1.56-2.51 2.44-3.76v-.06l3.49 2.51v.11h-.06c-.79 1.12-1.54 2.27-2.21 3.42zm4.78-6.74l-3.31-2.76v-.06c.93-1.12 1.94-2.24 3-3.31l.06-.06 3.06 3c-.95 1-1.88 2-2.77 3.07zm5.76-6l-2.89-3.2h.06c1.09-1 2.24-1.94 3.42-2.86l.06-.02 2.66 3.39h-.06c-1.12.88-2.18 1.77-3.2 2.67zM76.48 87l-2.42-3.56h.06c1.23-.83 2.5-1.64 3.76-2.38h.06l2.2 3.7h-.07c-1.19.7-2.37 1.45-3.52 2.22zm7.28-4.06l-2.07-4h.06c1.28-.66 2.63-1.31 4-1.91h.06l1.77 3.84h-.06c-1.29.57-2.55 1.16-3.73 1.78zm7.58-3.6h-.07l-1.48-4h.07c1.35-.5 2.76-1 4.18-1.43h.07l1.28 4.1h-.07c-1.32.4-2.63.86-3.9 1.33zm7.94-2.47l-1-4.18h.07q2.13-.54 4.26-.95h.13v.06l.8 4.15h-.07c-1.41.29-2.78.59-4.09.92zm17.93-1.54c-2.77-8.38 3.69-13.95 4-14.18l2.77 3.29-1.4-1.65 1.4 1.64c-.18.16-4.51 4-2.67 9.55z"/><path d="M113.24 68.06a9.38 9.38 0 0 0 5.34 2.54 9.38 9.38 0 0 0-2.16-5.54c-2.08-2.23-5.65-2.27-5.65-2.27a10.34 10.34 0 0 0 2.47 5.27z"/><path fill="none" d="M0 0h515.57v517.96H0z"/></svg>