<svg xmlns="http://www.w3.org/2000/svg" viewBox="0 0 515.99 517.96"><title>menu-item3</title><path style="isolation:isolate" opacity=".05" d="M0 279.46h238.5v238.5H0z"/><path d="M62.23 433.48h116.99v4.3H62.23zm0-30.14h116.99v4.3H62.23zm25.36 9.37h11.55v3.55h-7.62v2.28h6.91v3.29h-6.91v2.39h7.73v3.55H87.59zm15.87 0h4v11.41h7v3.66h-11zm11.54 0h4.46l3.27 9.53 3.27-9.53h4.38l-5.84 15.18h-3.7zm18.56 0h4v15.07h-4zM147.81 428a10.69 10.69 0 0 1-3.67-.63 8.82 8.82 0 0 1-3.07-1.88l2.22-2.78a7.14 7.14 0 0 0 4.67 1.81 2.29 2.29 0 0 0 1.22-.27.85.85 0 0 0 .42-.76.84.84 0 0 0-.1-.42 1.08 1.08 0 0 0-.38-.35 3.911 3.911 0 0 0-.74-.33 12 12 0 0 0-1.2-.33q-1.15-.28-2.14-.61a6.441 6.441 0 0 1-1.72-.86 3.84 3.84 0 0 1-1.15-1.31 4.05 4.05 0 0 1-.42-1.94 4.8 4.8 0 0 1 .38-1.93 4.23 4.23 0 0 1 1.11-1.52 5.13 5.13 0 0 1 1.76-1 7.089 7.089 0 0 1 2.32-.35 9.93 9.93 0 0 1 3.3.51 8.2 8.2 0 0 1 2.62 1.51l-2 3a8 8 0 0 0-2-1.11 5.88 5.88 0 0 0-2-.38 1.74 1.74 0 0 0-1.08.28.84.84 0 0 0-.36.69.88.88 0 0 0 .11.45 1.05 1.05 0 0 0 .39.35 4.2 4.2 0 0 0 .76.32 11.89 11.89 0 0 0 1.22.33 16.893 16.893 0 0 1 2.23.66 6.561 6.561 0 0 1 1.7.91 3.6 3.6 0 0 1 1.07 1.3 4.13 4.13 0 0 1 .37 1.82 4.81 4.81 0 0 1-.42 2.06 4.4 4.4 0 0 1-1.18 1.54 5.31 5.31 0 0 1-1.83 1 8 8 0 0 1-2.41.22z"/><path d="M166.75 387.06H77.03" fill="#fff"/><path d="M77.03 384.91h89.71v4.3H77.03zm30.38-10.9l4.81 8.34h-9.63zm-14.35 0l4.81 8.34h-9.63zm7.17 4.17l-4.81-8.34h9.63zm43.05 0l-4.81-8.34h9.62zm-7.16-4.17l4.81 8.34h-9.63zm14.35 0l4.81 8.34h-9.63z"/><circle cx="116.66" cy="368.63" r="4.06"/><circle cx="126.43" cy="368.63" r="4.2"/><circle cx="121.33" cy="360.14" r="4.42"/><path d="M155.05 386.74v18.75" fill="#fff"/><path d="M152.9 386.74h4.3v18.76h-4.3z"/><path d="M138.18 387.06v18.08" fill="#fff"/><path d="M136.03 387.06h4.3v18.07h-4.3z"/><path d="M121.32 387.06v18.31" fill="#fff"/><path d="M119.17 387.06h4.3v18.31h-4.3z"/><path d="M104.46 387.06v18.43" fill="#fff"/><path d="M102.3 387.06h4.3v18.43h-4.3z"/><path d="M87.59 387.06v18.31" fill="#fff"/><path d="M85.44 387.06h4.3v18.31h-4.3z"/><path d="M87.59 396.16h67.46" fill="#fff"/><path d="M87.59 394h67.45v4.3H87.59zm68.06 58.72H86.91v-16.99h4.31v12.68h60.13v-12.07h4.3v16.38z"/><path d="M95.64 435.61h51.56v8.87H95.64zm-7.94-28.5c-.32-.23-31.48-22.94-16.69-48.06 3.24-5.51 7.78-8.91 13.48-10.09 13.8-2.88 29.49 8.38 30.15 8.86l-2.53 3.48c-.15-.11-14.83-10.62-26.76-8.13-4.52.94-8 3.58-10.64 8.06-12.8 21.77 15.21 42.17 15.5 42.38zm67.94.13l-2.53-3.48a65.3 65.3 0 0 0 13.41-13.88c7.23-10.49 7.82-20.07 1.76-28.47a18.22 18.22 0 0 0-12.17-7.8c-12-1.91-25.2 7.61-25.33 7.7l-2.54-3.47c.6-.44 14.77-10.66 28.54-8.48a22.38 22.38 0 0 1 15 9.54c17.13 23.75-15.78 48.1-16.14 48.34z"/><path d="M156.22 406.84l-2.35-3.61c.08-.05 8.45-5.65 10.34-15.09q1.785-9-4.76-18.72c-10.74-15.95-26.38-9.52-27-9.24l-1.7-4c.19-.09 19.54-8.17 32.31 10.79 5 7.47 6.85 14.88 5.41 22-2.32 11.28-11.84 17.6-12.25 17.87zm-68.66 0c-.4-.26-9.92-6.59-12.2-17.8-1.45-7.14.37-14.55 5.4-22 12.8-19 32.17-10.28 32.36-10.19l-1.81 3.91c-.66-.3-16.26-7.22-27 8.69-4.37 6.48-6 12.8-4.75 18.76 1.92 9.47 10.25 15 10.33 15zm28.28-59.73h11v4.3h-11z"/><path d="M119.18 349.41h4.3v10.22h-4.3z"/><circle cx="121.33" cy="376.79" r="4.06"/><path d="M153.64 440.89h17.16v4.3h-17.16zm-81.04 0H89v4.3H72.6z"/><path fill="none" d="M.42 0h515.57v517.96H.42z"/></svg>