<svg xmlns="http://www.w3.org/2000/svg" viewBox="0 0 515.83 517.96"><title>menu-item2</title><path style="isolation:isolate" opacity=".05" d="M277.33 0h238.5v238.5h-238.5z"/><path d="M399.41 173.28A49.31 49.31 0 0 1 353.85 143l4-1.67a45.12 45.12 0 0 0 83 .45l3.95 1.71a49.4 49.4 0 0 1-45.39 29.79zm40.83-65.69a39.384 39.384 0 0 0-2-3.73l3.71-2.19c.78 1.32 1.51 2.69 2.16 4.08z"/><path d="M357.17 110.77l-1.79-1.19-2.06-.61 2 .58-1.94-.76a47.96 47.96 0 0 1 1.88-4.2l.12-.25 1.79 1.19 2.06.6-2-.58h.06l1.81.91c-.62 1.24-1.2 2.53-1.71 3.84zm-1.83-1.22zm1.84-4l.11.05zm81.15-1.55l-.26-.53 2.09-.7zm-77.21-1l-3.61-2.35c.81-1.3 1.7-2.57 2.62-3.78l1.71 1.31-.14-.11 1.93 1.29-.09.12c-.84 1.1-1.63 2.24-2.36 3.42l-2.1-1.32 2.07 1.37zm79-.16l1.8-1.18zm-4.08-2.33l1.54-1.33-1.61 1.16c-.82-1.13-1.7-2.23-2.62-3.29l1.51-1.33-1.57 1.28 1.58-1.26 1.62-1.62.11.12c1 1.15 2 2.37 2.87 3.6l.06.08-1.8 1.2zm1.68-1.35l-.3.22zm-71.67-2.7l-1.47-1.79.08.06-.11-.1-1.3-1.56 1.3 1.56-1.49-1.37a43.507 43.507 0 0 1 3.27-3.24l.07-.07 1.38 1.66 1.51 1.52-1.41-1.41 1.32 1.49c-1 .94-2 1.93-3 3zm1.77-4.76l.25.27zm-3.14 3.1l-1.67-1.36zm65.88-.6l-.11-.1a35.788 35.788 0 0 0-3.18-2.75l-.37-.34 1.68-1.44 1.21-1.78-1.21 1.75 1.29-1.65c1.2.94 2.37 2 3.48 3l-1.37 1.45 1.41-1.41-1.41 1.41zm-58.18-3.58l-1.17-1.75-1.72-1.37.41-.38c1.23-.92 2.52-1.78 3.82-2.58l1.11 1.83v-.09l1.26 1.89-.09.05c-1.19.72-2.36 1.51-3.48 2.35l-1.26-1.69zm51.63-1.67l.91-1.82-1.11 1.7c-1.16-.75-2.37-1.45-3.6-2.1l-.21-.12 1.26-1.89v.09l.05-.1 1.07-1.71-1.12 1.68.93-1.79c1.36.71 2.69 1.49 4 2.31l-1.18 1.8zm1-1.93l-.55.85zm-45.33-.83l-1.92-3.85 1.16 2.3-1.13-2.32c1.38-.67 2.8-1.29 4.23-1.82l.38 1-.38-1 1.51 4a34.951 34.951 0 0 0-3.84 1.65zm37-1.14l.51-2-.05.1-.75 1.85a41.892 41.892 0 0 0-4-1.4l.56-1.88-.62 1.86.62-1.87.57-2.27h.11c1.47.44 2.93 1 4.34 1.53l.17.06-1 1.93zm.52-2.08l-.06.16zm-4.15-1.47zm8.13 3.3l1-1.92zm-33.7-1.55l-.57-2.25.06.18-.54-2.09.35 1.4-.38-1.4c1.48-.4 3-.74 4.5-1l.35 2.13.51 2.09-.48-1.92.33 1.95c-1.37.24-2.76.55-4.1.91zm3.79-3l.36 2.08zm17.17 2.36h-.08a47.74 47.74 0 0 0-4.15-.64l.21-2.06-.34 2 .34-2v-2.3h.24c1.52.16 3.06.4 4.55.7l-.38 1.94.48-1.92-.48 1.92zm-12.81-.79v-2.17l-.34-2.12.34 2v-.09l-.16-2c1.31-.1 2.64-.15 3.94-.15h.66v4.37h-.6a31.125 31.125 0 0 0-3.61.14zm-8.67-.64l-.67-2zM372.87 149c0 6.26 12.63 15.31 27.94 15.31 14.15.02 25.77-10.41 25.77-15.31m24.5-41.22l-1.62-4c5.84-2.38 10.36-8.8 11.59-16.42-2.48 3.58-6.19 6.38-12.22 7.25a15.44 15.44 0 0 1-5.44-.84l1.19-4.11a12.93 12.93 0 0 0 3.59.7c8.63-1.26 11-7.23 13-14.32l4.21.32a55.92 55.92 0 0 1-.08 11.33c-1.33 9.23-6.93 17.12-14.22 20.09zm-103.87.06c-7.18-2.92-12.71-10.83-14.09-20.15a55.841 55.841 0 0 1-.08-11.33l4.21-.32c2 7.09 4.38 13.06 13 14.32a12.76 12.76 0 0 0 3.59-.7l1.24 4.12a15.41 15.41 0 0 1-5.44.84c-6-.88-9.74-3.67-12.22-7.25 1.24 7.71 5.69 14.16 11.41 16.48z"/><path d="M468.32 142.44H328.59" fill="#fff"/><path d="M328.59 140.29h139.73v4.3H328.59zm19.83-19.55h3.65l3 5.06 3-5.06h3.65v13.06h-3.44v-7.5l-3.18 5.11h-.07l-3.16-5.07v7.46h-3.4zm20.75-.09h3.33l5.31 13.15h-3.71l-.91-2.33h-4.81l-.89 2.33h-3.63zm3 8l-1.36-3.65-1.41 3.71zm5.61-7.91h3.87l2.83 8.26 2.83-8.27h3.79l-5.06 13.15h-3.21zm15.5 0h10v3.08h-6.6v2h6v2.85h-6v2.07h6.7v3.08h-10.1zm13.23 0h5.9a7 7 0 0 1 2.44.37 4.06 4.06 0 0 1 2.73 4.09 4.24 4.24 0 0 1-.7 2.5 4.44 4.44 0 0 1-1.87 1.51l3 4.55h-4l-2.51-4h-1.51v4h-3.46zm5.74 6.27a2 2 0 0 0 1.37-.42 1.42 1.42 0 0 0 .48-1.13 1.37 1.37 0 0 0-.5-1.17 2.2 2.2 0 0 0-1.37-.38h-2.26V127zm8.33-6.27h3.48v13.06h-3.48zm12.86 13.32a6.33 6.33 0 0 1-2.51-.5 6.16 6.16 0 0 1-2-1.41 6.82 6.82 0 0 1-1.37-2.15 7.364 7.364 0 0 1-.01-5.36 6.82 6.82 0 0 1 1.37-2.17 6.24 6.24 0 0 1 2.08-1.44 6.52 6.52 0 0 1 2.63-.52 7.23 7.23 0 0 1 1.75.2 5.72 5.72 0 0 1 2.61 1.43 7.151 7.151 0 0 1 .93 1.1l-2.6 2.11a4.6 4.6 0 0 0-1.18-1.12 2.82 2.82 0 0 0-1.55-.41 2.68 2.68 0 0 0-1.2.27 2.88 2.88 0 0 0-.93.74 3.49 3.49 0 0 0-.62 1.1 4 4 0 0 0-.22 1.34 4.16 4.16 0 0 0 .22 1.37 3.46 3.46 0 0 0 .62 1.11 2.88 2.88 0 0 0 .93.74 2.66 2.66 0 0 0 1.2.27 3.29 3.29 0 0 0 .88-.11 2.63 2.63 0 0 0 .73-.33 4 4 0 0 0 .62-.5 7.536 7.536 0 0 0 .58-.64l2.6 1.94a9.54 9.54 0 0 1-1 1.17 5.57 5.57 0 0 1-1.19.93 6.08 6.08 0 0 1-1.5.62 7.12 7.12 0 0 1-1.87.22zm8.04-13.32h3.46V126l4.29-5.3h4.1l-4.75 5.66 4.88 7.44h-4.15l-3.11-4.8-1.27 1.47v3.38h-3.45zm-41.62-33.81a39.83 39.83 0 0 0-37.15 25.47h74.32a39.83 39.83 0 0 0-37.17-25.47zm-13.28 19.22l-2.38-1.52-2.38 1.52.71-2.73-2.18-1.8 2.82-.17 1-2.63 1 2.63 2.82.17-2.18 1.8zm15.94-4.24l-2.79-1.78-2.79 1.78.83-3.2-2.55-2.1 3.3-.2 1.21-3.07 1.21 3.07 3.3.2-2.55 2.1zm14.7 4.24l-2.38-1.52-2.38 1.52.71-2.73-2.18-1.8 2.82-.17 1-2.63 1 2.63 2.82.17-2.18 1.8z"/><path d="M450.7 107c-8.46-20.68-28.74-34-51.66-34a56 56 0 0 0-50.93 32.88l-3.93-1.88a60.32 60.32 0 0 1 54.86-35.41c24.68 0 46.52 14.41 55.65 36.72z"/><path d="M438.54 150.36h14.15" fill="#fff"/><path d="M438.55 148.21h14.15v4.3h-14.15z"/><path d="M345.27 150.36h14.15" fill="#fff"/><path d="M345.27 148.21h14.15v4.3h-14.15z"/><path d="M352.44 157.53h14.15" fill="#fff"/><path d="M352.45 155.38h14.15v4.3h-14.15z"/><path d="M432.8 157.53h14.15" fill="#fff"/><path d="M432.81 155.38h14.15v4.3h-14.15zm-119.56-45.23h167.72v4.3H313.25z"/><path fill="none" d="M0 0h515.57v517.96H0z"/></svg>