<svg xmlns="http://www.w3.org/2000/svg" viewBox="0 0 515.83 517.96"><title>menu-item2</title><rect x="277.33" width="238.5" height="238.5" style="opacity:0.05000000074505806;isolation:isolate"/><path d="M399.41,173.28A49.31,49.31,0,0,1,353.85,143l4-1.67a45.12,45.12,0,0,0,83,.45l3.95,1.71a49.4,49.4,0,0,1-45.39,29.79Zm40.83-65.69a39.384,39.384,0,0,0-2-3.73l3.71-2.19c.78,1.32,1.51,2.69,2.16,4.08Z"/><path d="M357.17,110.77l-1.79-1.19-2.06-.61,2,.58-1.94-.76c.56-1.43,1.19-2.84,1.88-4.2l.12-.25,1.79,1.19,2.06.6-2-.58h.06l1.81.91c-.62,1.24-1.2,2.53-1.71,3.84Zm-1.83-1.22h0Zm1.84-4,.11.05ZM438.33,104l-.26-.53,2.09-.7Zm-77.21-1-3.61-2.35c.81-1.3,1.7-2.57,2.62-3.78l1.71,1.31-.14-.11,1.93,1.29-.09.12c-.84,1.1-1.63,2.24-2.36,3.42l-2.1-1.32,2.07,1.37Zm79-.16,1.8-1.18Zm-4.08-2.33,1.54-1.33-1.61,1.16c-.82-1.13-1.7-2.23-2.62-3.29l1.51-1.33L433.29,97l1.58-1.26,1.62-1.62.11.12c1,1.15,2,2.37,2.87,3.6l.06.08-1.8,1.2Zm1.68-1.35-.3.22Zm-71.67-2.7-1.47-1.79.08.06-.11-.1-1.3-1.56,1.3,1.56-1.49-1.37a43.507,43.507,0,0,1,3.27-3.24l.07-.07,1.38,1.66,1.51,1.52-1.41-1.41,1.32,1.49c-1,.94-2,1.93-3,3Zm1.77-4.76.25.27Zm-3.14,3.1-1.67-1.36Zm65.88-.6-.11-.1a35.788,35.788,0,0,0-3.18-2.75l-.37-.34,1.68-1.44,1.21-1.78-1.21,1.75,1.29-1.65c1.2.94,2.37,2,3.48,3l-1.37,1.45,1.41-1.41-1.41,1.41Zm-58.18-3.58-1.17-1.75-1.72-1.37.41-.38c1.23-.92,2.52-1.78,3.82-2.58l1.11,1.83v-.09l1.26,1.89-.09.05c-1.19.72-2.36,1.51-3.48,2.35l-1.26-1.69Zm51.63-1.67.91-1.82-1.11,1.7c-1.16-.75-2.37-1.45-3.6-2.1l-.21-.12,1.26-1.89v.09l.05-.1L422.38,83l-1.12,1.68.93-1.79c1.36.71,2.69,1.49,4,2.31L425.01,87Zm1-1.93-.55.85Zm-45.33-.83-1.92-3.85,1.16,2.3-1.13-2.32c1.38-.67,2.8-1.29,4.23-1.82l.38,1-.38-1,1.51,4a34.951,34.951,0,0,0-3.84,1.65Zm37-1.14.51-2-.05.1L416.39,85a41.892,41.892,0,0,0-4-1.4l.56-1.88-.62,1.86.62-1.87.57-2.27h.11c1.47.44,2.93,1,4.34,1.53l.17.06-1,1.93Zm.52-2.08-.06.16Zm-4.15-1.47v0Zm8.13,3.3,1-1.92Zm-33.7-1.55L386.91,81l.06.18-.54-2.09.35,1.4-.38-1.4c1.48-.4,3-.74,4.5-1l.35,2.13.51,2.09-.48-1.92.33,1.95c-1.37.24-2.76.55-4.1.91Zm3.79-3,.36,2.08Zm17.17,2.36h-.08c-1.36-.27-2.76-.49-4.15-.64l.21-2.06-.34,2,.34-2v-2.3h.24c1.52.16,3.06.4,4.55.7l-.38,1.94.48-1.92-.48,1.92Zm-12.81-.79V79.65l-.34-2.12.34,2v-.09l-.16-2c1.31-.1,2.64-.15,3.94-.15h.66v4.37h-.6a31.125,31.125,0,0,0-3.61.14Zm-8.67-.64-.67-2ZM372.87,149c0,6.26,12.63,15.31,27.94,15.31,14.15.02,25.77-10.41,25.77-15.31m24.5-41.22-1.62-4c5.84-2.38,10.36-8.8,11.59-16.42-2.48,3.58-6.19,6.38-12.22,7.25a15.44,15.44,0,0,1-5.44-.84l1.19-4.11a12.93,12.93,0,0,0,3.59.7c8.63-1.26,11-7.23,13-14.32l4.21.32a55.92,55.92,0,0,1-.08,11.33C463.97,96.92,458.37,104.81,451.08,107.78Zm-103.87.06c-7.18-2.92-12.71-10.83-14.09-20.15a55.841,55.841,0,0,1-.08-11.33l4.21-.32c2,7.09,4.38,13.06,13,14.32a12.76,12.76,0,0,0,3.59-.7l1.24,4.12a15.41,15.41,0,0,1-5.44.84c-6-.88-9.74-3.67-12.22-7.25,1.24,7.71,5.69,14.16,11.41,16.48Z"/><path d="M468.32,142.44H328.59" style="fill:#fff"/><path d="M328.59,140.29H468.32v4.3H328.59Zm19.83-19.55h3.65l3,5.06,3-5.06h3.65V133.8h-3.44v-7.5l-3.18,5.11h-.07l-3.16-5.07v7.46h-3.4Zm20.75-.09h3.33l5.31,13.15H374.1l-.91-2.33h-4.81l-.89,2.33h-3.63Zm3,8L370.81,125l-1.41,3.71Zm5.61-7.91h3.87l2.83,8.26,2.83-8.27h3.79l-5.06,13.15h-3.21Zm15.5,0h10v3.08h-6.6v2h6v2.85h-6v2.07h6.7v3.08h-10.1Zm13.23,0h5.9a7,7,0,0,1,2.44.37,4.06,4.06,0,0,1,2.73,4.09,4.24,4.24,0,0,1-.7,2.5,4.44,4.44,0,0,1-1.87,1.51l3,4.55h-4l-2.51-4h-1.51v4h-3.46Zm5.74,6.27a2,2,0,0,0,1.37-.42,1.42,1.42,0,0,0,.48-1.13,1.37,1.37,0,0,0-.5-1.17,2.2,2.2,0,0,0-1.37-.38h-2.26V127Zm8.33-6.27h3.48V133.8h-3.48Zm12.86,13.32a6.33,6.33,0,0,1-2.51-.5,6.16,6.16,0,0,1-2-1.41,6.82,6.82,0,0,1-1.37-2.15,7.364,7.364,0,0,1-.01-5.36,6.82,6.82,0,0,1,1.37-2.17,6.24,6.24,0,0,1,2.08-1.44,6.52,6.52,0,0,1,2.63-.52,7.23,7.23,0,0,1,1.75.2,5.72,5.72,0,0,1,2.61,1.43,7.151,7.151,0,0,1,.93,1.1l-2.6,2.11a4.6,4.6,0,0,0-1.18-1.12,2.82,2.82,0,0,0-1.55-.41,2.68,2.68,0,0,0-1.2.27,2.88,2.88,0,0,0-.93.74,3.49,3.49,0,0,0-.62,1.1,4,4,0,0,0-.22,1.34,4.16,4.16,0,0,0,.22,1.37,3.46,3.46,0,0,0,.62,1.11,2.88,2.88,0,0,0,.93.74,2.66,2.66,0,0,0,1.2.27,3.29,3.29,0,0,0,.88-.11,2.63,2.63,0,0,0,.73-.33,4,4,0,0,0,.62-.5,7.536,7.536,0,0,0,.58-.64l2.6,1.94a9.54,9.54,0,0,1-1,1.17,5.57,5.57,0,0,1-1.19.93,6.08,6.08,0,0,1-1.5.62,7.12,7.12,0,0,1-1.87.22Zm8.04-13.32h3.46V126l4.29-5.3h4.1l-4.75,5.66,4.88,7.44h-4.15L446.2,129l-1.27,1.47v3.38h-3.45ZM399.86,86.93a39.83,39.83,0,0,0-37.15,25.47h74.32a39.83,39.83,0,0,0-37.17-25.47Zm-13.28,19.22-2.38-1.52-2.38,1.52.71-2.73-2.18-1.8,2.82-.17,1-2.63,1,2.63,2.82.17-2.18,1.8Zm15.94-4.24-2.79-1.78-2.79,1.78.83-3.2-2.55-2.1,3.3-.2,1.21-3.07,1.21,3.07,3.3.2-2.55,2.1Zm14.7,4.24-2.38-1.52-2.38,1.52.71-2.73-2.18-1.8,2.82-.17,1-2.63,1,2.63,2.82.17-2.18,1.8Z"/><path d="M450.7,107c-8.46-20.68-28.74-34-51.66-34a56,56,0,0,0-50.93,32.88L344.18,104a60.32,60.32,0,0,1,54.86-35.41c24.68,0,46.52,14.41,55.65,36.72Z"/><path d="M438.54,150.36h14.15" style="fill:#fff"/><path d="M438.55,148.21H452.7v4.3H438.55Z"/><path d="M345.27,150.36h14.15" style="fill:#fff"/><path d="M345.27,148.21h14.15v4.3H345.27Z"/><path d="M352.44,157.53h14.15" style="fill:#fff"/><path d="M352.45,155.38H366.6v4.3H352.45Z"/><path d="M432.8,157.53h14.15" style="fill:#fff"/><path d="M432.81,155.38h14.15v4.3H432.81ZM313.25,110.15H480.97v4.3H313.25Z"/><rect width="515.57" height="517.96" style="fill:none"/></svg>