<svg xmlns="http://www.w3.org/2000/svg" viewBox="0 0 524.265 213.308"><title>home-approach_1</title><polygon points="309.226 182.444 295.322 194.985 258.823 209.094 301.16 201.353 309.226 182.444" style="fill:#424242"/><polygon points="299.539 173.175 284.025 179.547 271.568 188.72 288.945 180.947 299.539 173.175" style="fill:#424242"/><polygon points="25.222 187.508 47.104 188.968 26.954 181.195 25.222 187.508" style="fill:#424242"/><polygon points="524.012 213.308 471.297 162.001 427.071 85.132 353.12 0.245 313.556 52.261 242.379 113.854 213.43 178.451 166.57 181.193 84.568 126.865 33.271 158.171 25.222 187.506 0 210.898 0 213.308 524.012 213.308" style="fill:#262628"/><polygon points="115.679 188.72 143.152 213.308 156.056 213.308 107.378 161.911 104.795 156.354 109.079 142.858 84.568 126.619 84.568 139.538 67.799 153.483 60.778 170.217 84.568 160.894 115.679 188.72" style="fill:#424242"/><polygon points="128.375 213.308 81.356 198.911 57.048 204.174 51.829 213.308 128.375 213.308" style="fill:#424242"/><path d="M59.574,152.569H253.121a43.244,43.244,0,0,1-25.4-8.248h0a71.987,71.987,0,0,0-65.786-9.788l-22.6,7.8h0a42.3,42.3,0,0,0-31.891-.381l-7.554,2.97a110.16,110.16,0,0,1-40.313,7.641Z" style="fill:#fff"/><polygon points="256.85 213.308 236.915 178.658 214.551 119.765 161.463 167.904 125.957 197.811 102.265 213.308 256.85 213.308" style="fill:#262628"/><polygon points="199.053 206.276 205.72 213.308 256.85 213.308 236.915 178.658 214.551 119.765 204.893 176.247 189.075 186.907 205.158 189.643 199.053 206.276" style="fill:#424242"/><path d="M182.726,172.482h105.7a23.616,23.616,0,0,1-13.873-4.5h0a39.314,39.314,0,0,0-35.927-5.345l-12.343,4.262h0a23.1,23.1,0,0,0-17.416-.208l-4.125,1.622a60.163,60.163,0,0,1-22.016,4.173Z" style="fill:#fff"/><polygon points="160.41 213.308 205.158 189.643 189.075 186.907 158.81 213.308 160.41 213.308" style="fill:#424242"/><polyline points="212.22 133.399 206.693 144.593 194.301 153.312 206.911 147.754 210.317 144.526" style="fill:#424242"/><polygon points="368.42 49.835 386.78 84.807 376.288 96.173 371.842 109.725 364.937 126.619 336.508 142.329 340.442 146.008 363.516 142.329 375.414 133.57 386.78 114.533 397.272 117.156 413.35 151.544 409.072 160.894 416.506 156.111 423.938 169.177 423.938 184.477 409.072 203.88 407.173 213.308 524.265 213.308 471.297 161.756 427.071 84.887 353.12 0 356.617 11.803 348.311 25.355 356.617 20.109 363.516 27.103 364.937 38.23 348.311 47.649 333.448 64.92 349.192 53.769 368.42 49.835" style="fill:#424242"/><polygon points="326.231 84.557 313.556 100.67 276.088 124.81 316.645 101.603 326.231 84.557" style="fill:#424242"/><path d="M157.694,67.342H482.1a72.48,72.48,0,0,1-42.577-13.824h0a120.659,120.659,0,0,0-110.264-16.4L291.375,50.194h0a70.892,70.892,0,0,0-53.452-.638l-12.661,4.979a184.643,184.643,0,0,1-67.568,12.807Z" style="fill:#fff"/><path d="M232.7,73.343H338.4a23.616,23.616,0,0,1-13.873-4.5h0A39.314,39.314,0,0,0,288.6,63.494l-12.343,4.262h0a23.1,23.1,0,0,0-17.416-.208l-4.125,1.622A60.163,60.163,0,0,1,232.7,73.343Z" style="fill:#fff"/><path d="M344.821,106.177H515.7a38.179,38.179,0,0,1-22.428-7.282h0a63.557,63.557,0,0,0-58.082-8.641l-19.954,6.891h0a37.343,37.343,0,0,0-28.156-.336l-6.669,2.622a97.257,97.257,0,0,1-35.591,6.746Z" style="fill:#fff"/></svg>