<svg xmlns="http://www.w3.org/2000/svg" xmlns:xlink="http://www.w3.org/1999/xlink" viewBox="0 0 192.242 221.99"><defs><linearGradient id="a" x1="-1574.041" y1="4839.582" x2="-1572.771" y2="4839.582" gradientTransform="matrix(0, -146.311, -146.311, 0, 708165.936, -230095.58)" gradientUnits="userSpaceOnUse"><stop offset="0"/><stop offset="0.145" stop-color="#040404"/><stop offset="0.273" stop-color="#0e0e0e"/><stop offset="0.395" stop-color="#202020"/><stop offset="0.513" stop-color="#3a3a3a"/><stop offset="0.628" stop-color="#5b5b5b"/><stop offset="0.741" stop-color="#838383"/><stop offset="0.853" stop-color="#b3b3b3"/><stop offset="0.961" stop-color="#e9e9e9"/><stop offset="1" stop-color="#fff"/></linearGradient><clipPath id="b" transform="translate(0 0)"><polygon points="96.126 110.982 96.136 110.99 96.136 110.98 96.126 110.982" style="fill:none"/></clipPath><linearGradient id="c" x1="-1538.317" y1="4790.805" x2="-1537.047" y2="4790.805" gradientTransform="matrix(62.5, 0, 0, -62.5, 96159.426, 299536.303)" gradientUnits="userSpaceOnUse"><stop offset="0" stop-color="#3d3e41"/><stop offset="0.257" stop-color="#3d3e41"/><stop offset="0.811" stop-color="#67686b"/><stop offset="1" stop-color="#67686b"/></linearGradient><clipPath id="d" transform="translate(0 0)"><polygon points="0 55.489 96.126 110.982 96.136 110.98 96.136 0 0 55.489" style="fill:none"/></clipPath><linearGradient id="e" x1="-1570.135" y1="4840.506" x2="-1568.865" y2="4840.506" gradientTransform="matrix(0, -174.785, -174.785, 0, 846096.575, -274325.386)" gradientUnits="userSpaceOnUse"><stop offset="0" stop-color="#67686b"/><stop offset="0.189" stop-color="#67686b"/><stop offset="0.743" stop-color="#3d3e41"/><stop offset="1" stop-color="#3d3e41"/></linearGradient><clipPath id="f" transform="translate(0 0)"><polygon points="96.136 110.98 96.136 110.99 192.242 166.48 192.242 55.489 96.136 110.98" style="fill:none"/></clipPath><linearGradient id="g" x1="-1545.641" y1="4822.619" x2="-1544.371" y2="4822.619" gradientTransform="matrix(151.359, 0, 0, -151.359, 233947.322, 730059.52)" gradientUnits="userSpaceOnUse"><stop offset="0" stop-color="#3d3e41"/><stop offset="0.585" stop-color="#3d3e41"/><stop offset="0.806" stop-color="#3f4043"/><stop offset="0.886" stop-color="#46474a"/><stop offset="0.944" stop-color="#515255"/><stop offset="0.99" stop-color="#626366"/><stop offset="1" stop-color="#67686b"/></linearGradient><linearGradient id="h" x1="-1561.749" y1="4827.511" x2="-1560.479" y2="4827.511" gradientTransform="matrix(119.375, -119.375, -119.375, -119.375, 762723.045, 390020.696)" xlink:href="#c"/><clipPath id="i" transform="translate(0 0)"><polygon points="96.136 221.99 192.242 166.48 96.136 110.99 96.136 221.99" style="fill:none"/></clipPath><linearGradient id="j" x1="-1570.402" y1="4840.389" x2="-1569.132" y2="4840.389" gradientTransform="matrix(0, -174.813, -174.813, 0, 846304.746, -274192.971)" xlink:href="#e"/><clipPath id="k" transform="translate(0 0)"><polygon points="0 166.48 96.126 110.982 0 55.489 0 166.48" style="fill:none"/></clipPath><linearGradient id="l" x1="-1545.642" y1="4822.623" x2="-1544.372" y2="4822.623" gradientTransform="matrix(151.387, 0, 0, -151.387, 233989.704, 730192.001)" gradientUnits="userSpaceOnUse"><stop offset="0" stop-color="#67686b"/><stop offset="0.014" stop-color="#626366"/><stop offset="0.076" stop-color="#515255"/><stop offset="0.154" stop-color="#46474a"/><stop offset="0.263" stop-color="#3f4043"/><stop offset="0.562" stop-color="#3d3e41"/><stop offset="1" stop-color="#3d3e41"/></linearGradient><linearGradient id="m" x1="-1561.747" y1="4827.452" x2="-1560.477" y2="4827.452" gradientTransform="matrix(119.397, -119.397, -119.397, -119.397, 762887.657, 390118.94)" gradientUnits="userSpaceOnUse"><stop offset="0" stop-color="#3d3e41"/><stop offset="0.811" stop-color="#67686b"/><stop offset="1" stop-color="#67686b"/></linearGradient><clipPath id="n" transform="translate(0 0)"><polygon points="15.666 64.539 15.666 157.438 96.136 203.899 176.578 157.438 176.578 64.539 96.136 18.092 15.666 64.539" style="fill:none"/></clipPath><linearGradient id="o" x1="-1574.041" y1="4839.562" x2="-1572.771" y2="4839.562" gradientTransform="matrix(0, -146.313, -146.313, 0, 708184.543, -230098.016)" gradientUnits="userSpaceOnUse"><stop offset="0" stop-color="#3d3e41"/><stop offset="0.257" stop-color="#3d3e41"/><stop offset="0.96" stop-color="#636568"/><stop offset="1" stop-color="#636568"/></linearGradient><clipPath id="p" transform="translate(0 0)"><rect x="15.666" y="18.094" width="132.992" height="106.889" style="fill:none"/></clipPath><clipPath id="q" transform="translate(0 0)"><polygon points="96.135 18.092 15.666 64.536 15.666 124.987 148.658 48.417 96.135 18.092" style="fill:none"/></clipPath><mask id="r" x="15.666" y="18.093" width="132.992" height="106.896" maskUnits="userSpaceOnUse"><g transform="translate(0 0)"><rect x="15.666" y="18.094" width="132.992" height="106.894" style="fill:url(#a)"/></g></mask><linearGradient id="s" x1="-1574.041" y1="4839.582" x2="-1572.771" y2="4839.582" gradientTransform="matrix(0, -146.311, -146.311, 0, 708166.01, -230095.604)" gradientUnits="userSpaceOnUse"><stop offset="0" stop-color="#f4f4f4"/><stop offset="0.353" stop-color="#f0f1f1"/><stop offset="0.668" stop-color="#e6e6e7"/><stop offset="0.968" stop-color="#d3d5d6"/><stop offset="1" stop-color="#d1d3d4"/></linearGradient></defs><title>work-temp</title><g style="isolation:isolate"><g style="mix-blend-mode:multiply"><g style="clip-path:url(#b)"><rect x="96.126" y="110.98" width="0.01" height="0.011" style="fill:url(#c)"/></g><g style="clip-path:url(#d)"><rect y="0.001" width="96.136" height="110.982" style="fill:url(#e)"/></g><g style="clip-path:url(#f)"><rect x="96.136" y="55.489" width="96.106" height="110.991" style="fill:url(#g)"/></g><polygon points="96.136 110.98 96.137 110.98 96.136 110.979 96.136 110.98" style="fill:none"/><polygon points="96.136 0 96.136 0.001 96.137 0 96.136 0" style="fill:none"/><polygon points="96.137 0 96.136 0.001 96.136 110.979 96.137 110.98 192.242 55.489 96.137 0" style="fill:url(#h)"/><g style="clip-path:url(#i)"><rect x="96.136" y="110.991" width="96.106" height="110.999" style="fill:url(#j)"/></g><g style="clip-path:url(#k)"><rect y="55.489" width="96.126" height="110.991" style="fill:url(#l)"/></g><polygon points="96.136 221.99 96.136 221.99 96.136 221.99 96.136 221.99" style="fill:none"/><polygon points="96.136 110.99 96.126 110.982 0 166.48 96.136 221.99 96.136 221.99 96.136 110.99" style="fill:url(#m)"/><g style="clip-path:url(#n)"><rect x="15.666" y="18.093" width="160.912" height="185.807" style="fill:url(#o)"/></g><g style="opacity:0.199996992945671"><g style="clip-path:url(#p)"><g style="clip-path:url(#q)"><g style="mask:url(#r)"><rect x="15.666" y="18.093" width="132.992" height="106.895" style="fill:url(#s)"/></g></g></g></g><path d="M155.786,88.831l-43.474,0a35.614,35.614,0,1,0,5.854,34.083Zm-51.233,35.348A23.873,23.873,0,1,1,97.6,91.157a23.817,23.817,0,0,1,6.955,33.022" transform="translate(0 0)" style="fill:#fff;fill-rule:evenodd"/><path d="M73.964,119.206l19.369-16.058a12.143,12.143,0,0,0-2.27-1.921,13.916,13.916,0,0,0-18.291,2.682,11.177,11.177,0,0,0,1.192,15.3" transform="translate(0 0)" style="fill:#fff;fill-rule:evenodd"/></g></g></svg>