<svg xmlns="http://www.w3.org/2000/svg" viewBox="0 0 1360 695"><path fill="none" d="M0 0h1360v695H0z"/><path d="M166.09 256.24a1.94 1.94 0 0 1 .75 1.52l-.93.06a1.44 1.44 0 0 0-1.63-1.34c-1 0-1.62.53-1.62 1.29a.93.93 0 0 0 .41.86 5.17 5.17 0 0 0 1.41.47 5.41 5.41 0 0 1 1.88.7 1.5 1.5 0 0 1 .7 1.4 1.89 1.89 0 0 1-.75 1.62 3.15 3.15 0 0 1-1.91.54 3.26 3.26 0 0 1-2-.58 2 2 0 0 1-.84-1.6h.92a1.36 1.36 0 0 0 .59 1 2.21 2.21 0 0 0 1.33.39c1 0 1.73-.42 1.73-1.29a1 1 0 0 0-.33-.78 1.28 1.28 0 0 0-.43-.25 4 4 0 0 0-.53-.18c-.15 0-.38-.11-.69-.18s-.72-.18-1-.26a4.49 4.49 0 0 1-.74-.36 1.57 1.57 0 0 1-.72-1.46 2 2 0 0 1 .65-1.51 2.66 2.66 0 0 1 1.88-.61 2.87 2.87 0 0 1 1.87.55zM171.39 262.5v.77a4.1 4.1 0 0 1-.69.06 1.42 1.42 0 0 1-1.57-1.6v-2.82h-1v-.75h1v-1.76h.87v1.76h1.37v.75H170v2.65q0 1 .9 1a3.73 3.73 0 0 0 .49-.06zM175.34 258.93a1.38 1.38 0 0 0-1.48 1.4v2.93H173v-5.1h.84v.77a1.52 1.52 0 0 1 1.5-.83zM181.35 261h-3.94a1.54 1.54 0 0 0 1.6 1.57 1.35 1.35 0 0 0 1.43-.91h.86a2 2 0 0 1-.78 1.16 2.7 2.7 0 0 1-3.32-.26 2.65 2.65 0 0 1-.7-1.94 2.62 2.62 0 0 1 .7-1.93 2.45 2.45 0 0 1 1.81-.71 2.2 2.2 0 0 1 1.71.68 2.56 2.56 0 0 1 .63 1.82zm-3.94-.7h3.08a1.4 1.4 0 0 0-1.49-1.52 1.49 1.49 0 0 0-1.59 1.56zM187.08 258.64a2.09 2.09 0 0 1 .56 1.52v3.1h-.87v-3a1.28 1.28 0 0 0-1.29-1.4 1.32 1.32 0 0 0-1 .41 1.43 1.43 0 0 0-.38 1v3h-.86v-5.1h.82v.76a1.75 1.75 0 0 1 1.59-.85 1.89 1.89 0 0 1 1.43.56zM193.77 259v-.84h.81v5.39a2.23 2.23 0 0 1-.67 1.72 2.46 2.46 0 0 1-1.77.63 2.27 2.27 0 0 1-2.47-1.81h.86a1.64 1.64 0 0 0 3.19-.45v-1.14a2 2 0 0 1-1.76.86 2.37 2.37 0 0 1-1.77-.72 2.67 2.67 0 0 1-.69-1.93 2.63 2.63 0 0 1 .69-1.92 2.38 2.38 0 0 1 1.77-.72 2 2 0 0 1 1.81.93zm-3.4 1.72a1.69 1.69 0 0 0 1.71 1.89 1.57 1.57 0 0 0 1.64-1.74v-.3a1.57 1.57 0 0 0-1.64-1.75 1.69 1.69 0 0 0-1.71 1.9zM199.24 262.5v.77a4.1 4.1 0 0 1-.69.06 1.42 1.42 0 0 1-1.57-1.6v-2.82h-1v-.75h1v-1.76h.87v1.76h1.37v.75h-1.37v2.65q0 1 .9 1a3.73 3.73 0 0 0 .49-.06zM201.71 255.49v3.37a1.76 1.76 0 0 1 1.55-.79 1.89 1.89 0 0 1 1.42.57 2.09 2.09 0 0 1 .56 1.52v3.1h-.87v-3a1.28 1.28 0 0 0-1.29-1.4 1.32 1.32 0 0 0-1 .41 1.43 1.43 0 0 0-.38 1v3h-.86v-7.77zM208.09 258.67a.59.59 0 0 1-.6.58.58.58 0 0 1-.58-.58.59.59 0 0 1 .58-.6.6.6 0 0 1 .6.6zm0 4.1a.6.6 0 0 1-.6.59.59.59 0 0 1 0-1.19.6.6 0 0 1 .6.6z" fill="#666"/><path d="M220.47 263.26h-1.3l-1.59-4.74-1.58 4.74h-1.31l-2.61-7.48h1.68l1.6 4.86 1.59-4.86h1.27l1.6 4.86 1.59-4.86h1.68zM228.39 261.14h-3.55a1 1 0 0 0 1.08 1c.52 0 .84-.19.95-.57l1.47.07a1.84 1.84 0 0 1-.81 1.21 2.65 2.65 0 0 1-1.57.47 2.77 2.77 0 0 1-1.94-4.65 2.56 2.56 0 0 1 1.9-.73 2.4 2.4 0 0 1 1.8.69 2.54 2.54 0 0 1 .67 1.88zm-3.55-1h2.08a1 1 0 0 0-1-1 1 1 0 0 0-1.08 1.03zM234.22 260.07v3.19h-1.41v-.42a1.76 1.76 0 0 1-1.32.53c-1.07 0-1.72-.54-1.72-1.53s.69-1.51 2.07-1.57l.92-.05V260c0-.53-.22-.8-.67-.8a.66.66 0 0 0-.72.68l-1.46-.06a1.7 1.7 0 0 1 .6-1.28 2.2 2.2 0 0 1 1.56-.57 1.89 1.89 0 0 1 2.15 2.1zm-1.46 1.11l-.78.05q-.75 0-.75.54c0 .31.2.47.6.47a.83.83 0 0 0 .93-.84zM237.58 259.93l1.67-1.84H241l-1.95 2.21 2.09 3h-1.77l-1.37-1.91-.46.5v1.37h-1.46v-7.77h1.46zM160 242h50v2h-50z" fill="#f24938"/><path fill="#f2f2f2" d="M216 242h50v2h-50z"/><path d="M435.5 196a3.21 3.21 0 0 1 3.5 3.52v25c0 2.21-1.29 4.48-3.5 4.48h-270a4.9 4.9 0 0 1-4.5-4.48v-25c0-2.21 2.29-3.52 4.5-3.52H435m.5-1h-270c-2.76 0-5.5 1.75-5.5 4.52v25a5.88 5.88 0 0 0 5.5 5.48h270c2.76 0 4.5-2.72 4.5-5.48v-25a4.2 4.2 0 0 0-4.5-4.52z" fill="#2daabb"/><path d="M161.9 173.78h2.93a2.37 2.37 0 0 1 1.66.59 2.51 2.51 0 0 1 0 3.35 2.37 2.37 0 0 1-1.66.59h-2v2.95h-.92zm.91.81v2.91h1.91a1.45 1.45 0 1 0 0-2.91zM175.73 181.26h-1l-.78-1.9h-3.47l-.79 1.9h-1l3.13-7.48h.78zm-4.91-2.7h2.79l-1.39-3.37zM182.88 174.24a1.94 1.94 0 0 1 .75 1.52l-.93.06a1.44 1.44 0 0 0-1.63-1.34c-1 0-1.62.53-1.62 1.29a.93.93 0 0 0 .41.86 5.16 5.16 0 0 0 1.41.47 5.41 5.41 0 0 1 1.88.7 1.5 1.5 0 0 1 .7 1.4 1.89 1.89 0 0 1-.75 1.62 3.15 3.15 0 0 1-1.91.54 3.26 3.26 0 0 1-2-.58 2 2 0 0 1-.84-1.6h.92a1.35 1.35 0 0 0 .59 1 2.2 2.2 0 0 0 1.33.39c1 0 1.73-.42 1.73-1.29a1 1 0 0 0-.33-.78 1.28 1.28 0 0 0-.43-.25 4 4 0 0 0-.53-.18c-.15 0-.38-.11-.69-.18s-.72-.18-1-.26a4.5 4.5 0 0 1-.74-.36 1.57 1.57 0 0 1-.72-1.46 2 2 0 0 1 .65-1.51 2.66 2.66 0 0 1 1.88-.61 2.87 2.87 0 0 1 1.87.55zM191.44 174.24a1.94 1.94 0 0 1 .75 1.52l-.93.06a1.44 1.44 0 0 0-1.63-1.34c-1 0-1.62.53-1.62 1.29a.93.93 0 0 0 .41.86 5.16 5.16 0 0 0 1.41.47 5.41 5.41 0 0 1 1.88.7 1.5 1.5 0 0 1 .7 1.4 1.89 1.89 0 0 1-.75 1.62 3.15 3.15 0 0 1-1.91.54 3.26 3.26 0 0 1-2-.58 2 2 0 0 1-.84-1.6h.92a1.35 1.35 0 0 0 .59 1 2.2 2.2 0 0 0 1.33.39c1 0 1.73-.42 1.73-1.29a1 1 0 0 0-.33-.78 1.28 1.28 0 0 0-.43-.25 4 4 0 0 0-.53-.18c-.15 0-.38-.11-.69-.18s-.72-.18-1-.26a4.5 4.5 0 0 1-.74-.36 1.57 1.57 0 0 1-.72-1.46 2 2 0 0 1 .65-1.51 2.66 2.66 0 0 1 1.88-.61 2.87 2.87 0 0 1 1.87.55zM203.27 181.26h-.77l-2-5.8-2 5.8h-.77l-2.62-7.48h1l2 5.87 2-5.87h.75l2 5.87 2-5.87h1zM212.25 173.68a3.66 3.66 0 0 1 2.69 1 3.71 3.71 0 0 1 1.07 2.79 3.75 3.75 0 0 1-1.07 2.8 4 4 0 0 1-5.39 0 3.75 3.75 0 0 1-1.07-2.8 3.63 3.63 0 0 1 3.77-3.84zm-2 1.63a3.45 3.45 0 0 0 0 4.42 2.77 2.77 0 0 0 2 .81 2.73 2.73 0 0 0 2-.81 3.45 3.45 0 0 0 0-4.42 3 3 0 0 0-4.07 0zM224 181.26l-1.68-3h-1.92v3h-.92v-7.48h2.89a2.35 2.35 0 0 1 1.65.58 2.12 2.12 0 0 1 .65 1.66 2.05 2.05 0 0 1-1.37 2.09l1.76 3.15zm-3.64-3.81h1.87a1.43 1.43 0 1 0 0-2.86h-1.87zM228.34 173.78h2.92a3.49 3.49 0 0 1 2.59 1 4.2 4.2 0 0 1 0 5.48 3.55 3.55 0 0 1-2.6 1h-2.9zm.91.78v5.92h2a2.58 2.58 0 0 0 1.95-.77 3.58 3.58 0 0 0 0-4.37 2.53 2.53 0 0 0-1.94-.78zM178.81 211.93l2.62-.88.24.71-2.62.84 1.63 2.2-.62.46-1.6-2.26-1.61 2.27-.59-.48 1.63-2.2-2.62-.84.22-.71 2.62.88v-2.75h.73zM186.62 211.93l2.62-.88.24.71-2.62.84 1.63 2.2-.62.46-1.61-2.26-1.61 2.27-.59-.48 1.63-2.2-2.62-.84.22-.71 2.62.88v-2.75h.73z" fill="#666"/><path fill="none" stroke="#000" stroke-miterlimit="10" d="M191.5 203v22"/></svg>