<svg xmlns="http://www.w3.org/2000/svg" xmlns:xlink="http://www.w3.org/1999/xlink" viewBox="0 0 1360 696.1"><defs><style>.cls-1,.cls-4,.cls-8{fill:none;}.cls-2{fill:#2e3192;}.cls-3{fill:#232577;}.cls-4{stroke:#cacaca;stroke-width:4px;}.cls-4,.cls-8{stroke-miterlimit:10;}.cls-5{fill:#f48e29;}.cls-6{fill:#cacaca;}.cls-7{clip-path:url(#clip-path);}.cls-8{stroke:#ff8900;stroke-width:13px;}.cls-9{fill:#f29714;}.cls-10{opacity:0.2;}.cls-11{fill:#8283be;}</style><clipPath id="clip-path"><rect class="cls-1" x="768.91" y="395.18" width="153.54" height="120.44"/></clipPath></defs><title>header_1</title><g id="Layer_2" data-name="Layer 2"><g id="Layer_1-2" data-name="Layer 1"><rect class="cls-2" width="1360" height="696.1"/><rect class="cls-3" width="1360" height="696.1"/><line class="cls-4" x1="847.97" y1="465" x2="1164.63" y2="153.12"/><line class="cls-4" x1="847.62" y1="465.34" x2="1148.06" y2="466.23"/><line class="cls-4" x1="847.97" y1="465" x2="764.51" y2="305.05"/><path id="_Compound_Path_" data-name="&lt;Compound Path&gt;" class="cls-5" d="M759.55,255a13.7,13.7,0,0,0-13.71,13.71c0,10.28,13.71,25.45,13.71,25.45s13.71-15.17,13.71-25.45A13.7,13.7,0,0,0,759.55,255Zm0,18.6a4.89,4.89,0,1,1,4.89-4.89A4.9,4.9,0,0,1,759.55,273.55Z"/><path id="_Compound_Path_2" data-name="&lt;Compound Path&gt;" class="cls-5" d="M1164.63,101.1a13.7,13.7,0,0,0-13.71,13.71c0,10.28,13.71,25.45,13.71,25.45s13.71-15.17,13.71-25.45A13.7,13.7,0,0,0,1164.63,101.1Zm0,18.6a4.89,4.89,0,1,1,4.89-4.89A4.9,4.9,0,0,1,1164.63,119.7Z"/><path id="_Compound_Path_3" data-name="&lt;Compound Path&gt;" class="cls-5" d="M1147.15,413.23a13.7,13.7,0,0,0-13.71,13.71c0,10.28,13.71,25.45,13.71,25.45s13.71-15.17,13.71-25.45A13.7,13.7,0,0,0,1147.15,413.23Zm0,18.6a4.89,4.89,0,1,1,4.89-4.89A4.9,4.9,0,0,1,1147.15,431.83Z"/><circle class="cls-3" cx="847.97" cy="465" r="97.06" transform="translate(176.45 1160.95) rotate(-74.76)"/><path class="cls-4" d="M702,422.7a155.25,155.25,0,0,1,299.58,81.6"/><path class="cls-4" d="M729.14,249c118.46-67.74,269.41-26.62,337.16,91.84S1092.92,610.26,974.46,678"/><path class="cls-6" d="M1100.39,696.93"/><path class="cls-6" d="M1101.17,696.1A341,341,0,0,0,941.41,134.55l-1.05,3.86c179.26,48.83,285.37,234.39,236.54,413.65a337.59,337.59,0,0,1-79.42,142.13l-1.82,1.92Z"/><rect class="cls-1" width="1360" height="696.1"/><g class="cls-7"><path class="cls-4" d="M910.79,496.2A62.78,62.78,0,0,0,916,470.85a65.13,65.13,0,0,0-130.27,0,63,63,0,0,0,5.19,25.39"/><path class="cls-8" d="M895,423a65.17,65.17,0,0,0-109.26,47.82,63,63,0,0,0,5.19,25.39"/><path class="cls-9" d="M820.33,483.52V461.89c0-8.42,6.51-13.41,14.93-13.41s13.61,4.21,13.61,11V461h-4.93v-.92c0-4.73-3.55-7.43-8.81-7.43-6.11,0-9.47,4-9.47,9.07v10.65a14.64,14.64,0,0,1,11.83-6c6.64,0,11.9,4.21,11.9,10.59v7.63c0,8-6.25,12.49-14.66,12.49S820.33,491.54,820.33,483.52Zm23.93,1.25v-6.38c0-5.92-4.73-7.82-8.81-7.82-4.27,0-9.8,3.48-9.8,9.14v4.14c0,4.6,3.29,8.94,9.47,8.94S844.27,489.18,844.27,484.77Z"/><path class="cls-9" d="M855.51,485v-2.56a11.12,11.12,0,0,1,7.56-10.26,9.68,9.68,0,0,1-7-9.27v-2.3c0-8.09,6.84-12.16,14-12.16s14.07,3.55,14.07,11.44c0,0,.07,2.17,0,3.29a9.73,9.73,0,0,1-7.17,8.94,10.63,10.63,0,0,1,7.76,10.19v2.43c0,7.76-6.31,12.3-14.73,12.3S855.51,492.66,855.51,485Zm24-.59v-2c0-5.79-5-8.09-9.34-8.09-4.67,0-9.4,2.43-9.4,8v2.37c0,5,4.27,8.28,9.34,8.28C875.5,493,879.51,490,879.51,484.44Zm-.33-22V460c0-5.26-4.67-7.5-9.21-7.5-4.34,0-8.81,2.76-8.81,7.76v2.24c0,5.52,5,7.89,9.07,7.89C874.58,470.37,879.18,467.41,879.18,462.42Z"/></g><g id="_Group_" data-name="&lt;Group&gt;" class="cls-10"><path id="_Path_" data-name="&lt;Path&gt;" class="cls-11" d="M1350.88,545l-.44-7.08-19.92-.89s-14.61-4-23,3.54v4h-12.4L1295,576l-1.92-.28-.55,5.49h-3.57s-1.1,2.2-.82,3.29h-3.57l.28,28h-1.93v-3.3l-2.47-.55V605.4h-16.75V584.53h-8.24v-3.84h-5.77V584h-6v-1.65l-13.18-.82V568.33s-3.29-3-6.32-2.75c0,0-6-5.77-10.16-5.22a12.75,12.75,0,0,0-10.16,5.77s-5.49.82-7.69,3V556h-1.92v-9.06l-5.22-5.77-1.37-5.49-2.2-3.57h-2.74l-1.65,3.29-1.37,6-4.53,4.53h-9.47l-5.76,10-4.12,2.47V593h-21.42V582.88H1114l-1.1-28.28-3.29-.55v-5.22l-4.39-13.46H1050v41.19h-11.53v9.34h-7.41V556.52h-12.64v2.74H988.77v27.46h-4.12v2.75h-5.22v6.87h-4.94V582.88h-11l.27-1.65h-4.94v-6.87h-5.22V551H906.39v50.25H900.9l-1.37-4.94-1.37-.28-1.92-23.34-2.75-.55-.82-7.14-1.1-1.37L889.92,556l-1.1,7.69-1.65,1.92-1.1,7.14-2.47.28-.83,8.51-8,.82v4.12H831.43V617.2l-5.49-.28v-2.75h-2.47v-4.94l-6.86-12.36h-11l-3.84,7.69H774.87v33.77h-8.52l-1.64,4.12H760V623.24h-4.12V595.78L750.71,584l-5.77-12.36,1.65-8h-16.2v2.75h-3.57V562h-8l-9.61,10.43v49.7h-9.88V604l-2.75-1.65H684.53l-2.47,3h-3.3V593l-4.12-9.88H670l-7.14-11.53h-11l-5.77,5.49v-5.22h-1.37l-.55-3.29-12.08-8.24h-3l-11.53,9.34v3.85h-2.2v5.77l-2.2,3.3v47.23l-2.2-.27v3.57H599.69v-3.57h-8.51l-1.1-18.12-4.39-3.84-.82-3.85L581,599.63H562.34l-1.65,3.84-1.37,4.12-5.22,4.12V629l-2.75.82-.82,7.42h-4.94l-8.51-.82V632H528v-3.84h-6.86l-.82-12.63-4.12-.28-4.67-8.78H486.83v8.24h-1.92v16.75l-3.84,2.2v5.77l-2.25.28v-15.1H463.49V610.88l-2.47-2.2s-.55-5.76-3-8l-2.2-26.08L453.06,601a11.68,11.68,0,0,0-3,7.69l-2.47,2.47v32.67l-1.37-.55-.55-5.77-3-5.22-3,4.67-.82,5.49H427.25v6.87H419v-6.59l-10.71-2.2V629H390.73l-4.39,4.94v8.24l-2.2,2.47-3.29.27v-3.84l-8-5.22-7.14,3.57-.55,4.39-3.84-.82v-6.32h-11l-1.1-3h-4.94l-2.47-14.83-2.75,14.83H324l-.27,2.75h-6.59v8.78h-7.41V651h-4.12V630.66H279.25v11H267.44v7.14h-7.69l-4.39,7.42-2.2-2.75h-5.22l-.55,1.38h-2.75l-.55-11.53L240.26,637l-2.2-.27-3.84,7.69-1.1,1.37v-7.69H215v19.22h-7.41v2.47H204v3h-5.49l-3,6V671h-6.87V660.31H187v-6h-7.41V660h-3v-2.74l-3.57-3-4.39,4.12v-8H164.2v16.75h-4.12v3h-4.67v-7.69h-8.79V652.07h-6v7.42h-8.51v5.76h-8v-6.59h-3.57v-2.47h-4.12v2.74h-4.94V671h-3.84v-2.75H99.12V665.8H94.46v4.39H87.87v-3.3L83.75,665l-3.84,2.47-2.33-2.33-1.24-4-1.1-2.74H70.84l-.55,2.19-1.37,4.12H60.68v12.35H56.56v1.1H53.82L52.72,671l-1.92-.55V657.56H46.68v3.57H41.46v17.3H37.07V674H35.15V669.1H20.87v-5.22H12.36v1.92H5.22v3.57H0V696.1H1359.69V545Z"/></g></g></g></svg>