<svg xmlns="http://www.w3.org/2000/svg" viewBox="0 0 398.41 408.309"><path fill="#e6e6e6" d="M298.84 72.582v49.95h33.87l15.91 15.92 15.92-15.92h33.87v-49.95h-99.57m-148.05 0H51.22v49.95H86.5l14.08 14.08 14.09-14.08h36.12v-49.95m24.24 0v49.95h34.33l15.92 15.92 15.91-15.92h33.41v-49.95h-99.57"/><path fill="none" stroke="#e6e6e6" stroke-width="3.83" stroke-miterlimit="10" d="M101.01 155.712v2.87"/><path fill="none" stroke="#e6e6e6" stroke-width="3.83" stroke-miterlimit="10" d="M101.01 164.232v189.18" stroke-dasharray="5.65 5.65"/><path fill="none" stroke="#e6e6e6" stroke-width="3.83" stroke-miterlimit="10" d="M101.01 356.232v2.87m123.52-203.39v2.87"/><path fill="none" stroke="#e6e6e6" stroke-width="3.83" stroke-miterlimit="10" d="M224.53 164.232v189.18" stroke-dasharray="5.65 5.65"/><path fill="none" stroke="#e6e6e6" stroke-width="3.83" stroke-miterlimit="10" d="M224.53 356.232v2.87m124.09-203.39v2.87"/><path fill="none" stroke="#e6e6e6" stroke-width="3.83" stroke-miterlimit="10" d="M348.62 164.232v189.18" stroke-dasharray="5.65 5.65"/><path fill="none" stroke="#e6e6e6" stroke-width="3.83" stroke-miterlimit="10" d="M348.62 356.232v2.87"/><path fill="#7d7d7d" d="M3.43.132h1.18L8 9.342H6.67L5.82 6.9H2.14l-.87 2.44H0zm2 5.71L4 1.652l-1.5 4.18zm5.13-5.7h3.38a2.74 2.74 0 0 1 3 2.79 2.62 2.62 0 0 1-2.1 2.66l2.54 3.76H16l-2.42-3.63h-1.75v3.62h-1.27zm3.16 4.52c1.27 0 2-.57 2-1.74S14.89 1.2 13.67 1.2h-1.84v3.46zM20 .132h6.1v1.12h-4.8v2.76h4.1v1.15h-4.1v3.06h4.84v1.12H20zm11.85 0H33l3.4 9.22h-1.31l-.85-2.44h-3.68l-.88 2.44h-1.27zm2 5.71l-1.43-4.19-1.5 4.18zm9.56-5.7h3.45a2.74 2.74 0 0 1 3 2.8 2.79 2.79 0 0 1-3.07 2.83h-2.11v3.57h-1.27zM46.56 4.7c1.27 0 2.07-.58 2.07-1.76s-.81-1.73-1.94-1.73h-2V4.7zM52.62.132h6.07v1.12h-4.8v2.76H58v1.15h-4.1v3.06h4.84v1.12h-6.12zm9.1.01h3.38a2.74 2.74 0 0 1 3 2.79 2.62 2.62 0 0 1-2.1 2.66l2.54 3.76h-1.35l-2.45-3.63H63v3.62h-1.28zm3.16 4.52c1.27 0 2-.57 2-1.74S66.05 1.2 64.83 1.2H63v3.46zM71.2.142h1.55l2.71 5.68 2.67-5.68h1.56v9.2h-1.23v-7l-2.49 5.2h-1L72.45 2.4v6.94H71.2zm11.8 0h1.27v9.2H83zm6.73 1.08h-2.88V.142h7v1.08H91v8.12h-1.27zm13.91-1.09h1.17l3.4 9.22h-1.33L106 6.9h-3.68l-.88 2.44h-1.24zm2 5.71l-1.44-4.19-1.48 4.18zm4.63.55v-3.08A3.28 3.28 0 0 1 113.518 0q.156 0 .312.012c1.81 0 3.36 1 3.36 2.85v.4H116v-.25a1.94 1.94 0 0 0-1.994-1.884q-.093 0-.186.014a2.1 2.1 0 0 0-2.27 2.14v3a2.11 2.11 0 0 0 2.34 2.09A1.89 1.89 0 0 0 116 6.5v-.16h1.2v.32c0 1.85-1.51 2.85-3.32 2.85-1.98.002-3.61-1.098-3.61-3.118zm11.9-5.17h-2.88V.142h7v1.08h-2.87v8.12h-1.27zm6.76-1.08h1.27v9.2h-1.27zm3.65 0h1.3l2.39 7.46 2.4-7.46H140L136.89 9.4h-1.25zm9.8 0h1.27v9.2h-1.27zm6.76 1.08h-2.88V.142h7v1.08h-2.87v8.12h-1.27zm8.96 4.34l-3-5.42h1.39l2.26 4.2 2.25-4.2h1.38l-3 5.43v3.77h-1.28z"/><path fill="#3a3a3a" d="M1.16 23.342h2.13l4.82 9.4 4.71-9.4H15v15.34h-1.68v-12.31l-4.5 8.76H7.4l-4.5-8.74h-.06v12.29H1.16zm17.13 11.44v-2.77a4.17 4.17 0 0 1 4.5-4.32c2.67 0 4.54 1.57 4.54 4.3v2.62a4.17 4.17 0 0 1-4.48 4.35c-2.65-.01-4.56-1.45-4.56-4.18zm7.4-.11v-2.86a2.62 2.62 0 0 0-2.9-2.8 2.65 2.65 0 0 0-2.88 2.88v2.84a2.66 2.66 0 0 0 2.95 2.84 2.58 2.58 0 0 0 2.83-2.9zm4.69-6.8H32v2.14a4.21 4.21 0 0 1 3.87-2.34 4.6 4.6 0 0 1 .8.06v1.51a5.57 5.57 0 0 0-1-.06 3.44 3.44 0 0 0-3.67 3.6v5.9h-1.62zm8.2 6.7v-2.28a4.36 4.36 0 0 1 4.63-4.63 4 4 0 0 1 4.28 4.24v1.7h-7.26v1.12a2.78 2.78 0 0 0 3.1 2.86 3.44 3.44 0 0 0 2.73-1.38l1.23.73a4.57 4.57 0 0 1-4.07 2c-2.64.02-4.64-1.4-4.64-4.36zm7.31-2.09v-.62a2.63 2.63 0 0 0-2.77-2.85 2.83 2.83 0 0 0-2.885 2.774v.696zm10.57-9.14H62c3 0 4.95 1.81 4.95 4.6 0 2.56-1.81 4.67-5.14 4.67H58.2v6.07h-1.74zm4.93 7.79c2.35 0 3.81-1.05 3.81-3.18s-1.44-3.14-3.44-3.14H58.2v6.33zm7.61 3.44v-2.28a4.36 4.36 0 0 1 4.63-4.63 4 4 0 0 1 4.28 4.24v1.7h-7.3v1.12a2.78 2.78 0 0 0 3.1 2.86 3.44 3.44 0 0 0 2.73-1.38l1.23.73a4.57 4.57 0 0 1-4.07 2c-2.6.02-4.6-1.4-4.6-4.36zm7.31-2.09v-.62a2.63 2.63 0 0 0-2.81-2.85 2.83 2.83 0 0 0-2.885 2.774v.696zm4.59-4.61h1.57v2.14a4.21 4.21 0 0 1 3.87-2.34 4.6 4.6 0 0 1 .8.06v1.51a5.57 5.57 0 0 0-1-.06 3.44 3.44 0 0 0-3.68 3.57v5.9H80.9zm8.69 0h1.55v1.87a3.93 3.93 0 0 1 3.57-2.11 3 3 0 0 1 3.06 2.15 4.14 4.14 0 0 1 3.7-2.15 3.22 3.22 0 0 1 3.53 3.38v7.62h-1.6v-6.82c0-1.83-.82-2.78-2.35-2.78a3 3 0 0 0-2.95 3.048v6.592h-1.58v-6.9c0-1.74-.8-2.73-2.35-2.73a3 3 0 0 0-3 3v6.642h-1.58zm19.02-4.53h1.59v2.34h-1.59zm0 4.54h1.59v10.8h-1.59zm6 8.54v-7.23h-1.87V27.9h1.87v-3.38h1.59v3.38h3v1.29h-3v6.82c0 1.08.56 1.4 1.53 1.4a7.48 7.48 0 0 0 1.57-.19v1.38a7.41 7.41 0 0 1-2 .28c-1.42-.008-2.69-.608-2.69-2.458zm17.75-13.13H134l5.66 15.38h-1.83l-1.57-4.45H130l-1.61 4.45h-1.74zm3.38 9.47l-2.6-7.38-2.65 7.38zm6.05 1.83v-2.41a4.2 4.2 0 0 1 4.48-4.52c2.47 0 4.26 1.4 4.26 3.74v.28H149v-.37a2.4 2.4 0 0 0-2.72-2.3 2.74 2.74 0 0 0-2.84 3v2.6a2.65 2.65 0 0 0 2.86 2.95 2.36 2.36 0 0 0 2.67-2.3v-.25h1.55v.24c0 2.32-1.72 3.74-4.22 3.74-2.69-.04-4.51-1.61-4.51-4.4zm12.32 1.83v-7.23h-1.87V27.9h1.87v-3.38h1.59v3.38h3v1.29h-3v6.82c0 1.08.56 1.4 1.53 1.4a7.48 7.48 0 0 0 1.57-.19v1.38a7.41 7.41 0 0 1-2 .28c-1.42-.008-2.69-.608-2.69-2.458zm7.3-13.08H163v2.34h-1.59zm0 4.54H163v10.8h-1.59zm4.09-.01h1.72l3 8.8 3.06-8.8h1.64L171 38.722h-1.59zm11.92-4.53H179v2.34h-1.59zm0 4.54H179v10.8h-1.59zm6 8.54v-7.23h-1.87V27.9h1.87v-3.38H185v3.38h3v1.29h-3v6.82c0 1.08.56 1.4 1.53 1.4a7.48 7.48 0 0 0 1.57-.19v1.38a7.41 7.41 0 0 1-2 .28c-1.41-.008-2.68-.608-2.68-2.458zm6.73 6.47v-1.38a5.82 5.82 0 0 0 1.33.17 1.88 1.88 0 0 0 1.81-1.36l.73-1.91-4.02-10.54h1.74l3.12 8.54 3-8.54h1.64L194.85 40.5a3.37 3.37 0 0 1-3.39 2.51 6.46 6.46 0 0 1-1.31-.118zm18.31-6.47v-7.23h-1.87V27.9h1.87v-3.38h1.59v3.38h3v1.29h-3v6.82c0 1.08.56 1.4 1.53 1.4a7.48 7.48 0 0 0 1.57-.19v1.38a7.41 7.41 0 0 1-2 .28c-1.42-.008-2.69-.608-2.69-2.458zm7.29-13.11h1.59v6.43h.06a3.9 3.9 0 0 1 3.49-2.11 3.25 3.25 0 0 1 3.46 3.57v7.47h-1.61v-6.86c0-1.92-.9-2.78-2.35-2.78a3.06 3.06 0 0 0-3.067 3.053q0 .11.007.217v6.37h-1.59zm11.58 12.46c0-2.35 2.13-3.25 4-3.25h3.08v-1.51c0-1.55-1-2.11-2.58-2.11-1.27 0-2.56.45-2.56 1.68v.37h-1.47v-.32c0-2.19 2.07-3 4.09-3 2.17 0 4.13.75 4.13 3.18v5.2c0 .6.09 2.19.15 2.63h-1.57c0-.32-.09-1.25-.11-1.53a3.69 3.69 0 0 1-3.53 1.76c-2.06.04-3.63-1.1-3.63-3.1zm7.08-1v-1h-2.8c-1.38 0-2.69.37-2.69 2 0 1.31 1.12 2 2.43 2 2.15-.13 3.06-1.33 3.06-3.03zm5.12-6.9h1.55v1.87a4 4 0 0 1 3.55-2.11 3.25 3.25 0 0 1 3.46 3.57v7.47h-1.61v-6.86c0-1.92-.9-2.78-2.35-2.78a3.06 3.06 0 0 0-3.067 3.053q0 .11.007.217v6.37h-1.59zm17.66 5.94V28.5c0-3.27 2.47-5.42 5.83-5.42 3.06 0 5.46 1.76 5.46 4.6v.75h-1.66v-.54c0-2.07-1.61-3.27-3.87-3.27a3.77 3.77 0 0 0-3.994 3.532q-.01.16-.006.318v5.14c0 2.32 1.74 3.79 4.15 3.79 2.24 0 3.77-1.23 3.77-3.29v-.32h1.66v.56c0 2.9-2.37 4.6-5.42 4.6-3.31.002-5.92-1.778-5.92-5.138zm14.53-10.47h1.59v2.34h-1.59zm0 4.54h1.59v10.8h-1.59zm6 8.54v-7.23h-1.87V27.9h1.87v-3.38h1.59v3.38h3v1.29h-3v6.82c0 1.08.56 1.4 1.53 1.4a7.48 7.48 0 0 0 1.57-.19v1.38a7.41 7.41 0 0 1-2 .28c-1.41-.008-2.69-.608-2.69-2.458zm6.73 6.47v-1.38a5.82 5.82 0 0 0 1.33.17 1.88 1.88 0 0 0 1.81-1.36l.73-1.91-4.07-10.54H286l3.12 8.54 3-8.54h1.64L289.11 40.5a3.37 3.37 0 0 1-3.34 2.51 6.46 6.46 0 0 1-1.32-.118zm17.71-19.55h2.13l4.82 9.4 4.71-9.4H316v15.34h-1.68v-12.31l-4.5 8.76h-1.42l-4.5-8.74h-.06v12.29h-1.68zm17.13 11.23v-2.28a4.36 4.36 0 0 1 4.63-4.63 4 4 0 0 1 4.28 4.24v1.7h-7.25v1.12a2.78 2.78 0 0 0 3.1 2.86 3.44 3.44 0 0 0 2.73-1.38l1.23.73a4.57 4.57 0 0 1-4.07 2c-2.65.02-4.65-1.4-4.65-4.36zm7.31-2.09v-.62a2.63 2.63 0 0 0-2.77-2.85 2.83 2.83 0 0 0-2.885 2.774v.696zm4.2 2.618v-3.31a3.87 3.87 0 0 1 4.13-4.15 3.32 3.32 0 0 1 3.12 2h.06v-6.3h1.59v15.34h-1.55v-1.9a3.89 3.89 0 0 1-3.38 2.17 3.66 3.66 0 0 1-3.97-3.85zm7.31-.8v-2.29a2.92 2.92 0 0 0-2.786-3.048h-.214a2.56 2.56 0 0 0-2.73 2.65v3.4a2.53 2.53 0 0 0 2.528 2.532q.126 0 .252-.012a3.05 3.05 0 0 0 2.953-3.144v-.076zm5.29-10.958h1.6v2.34h-1.6zm0 4.54h1.6v10.8h-1.6zm4.67 7.89c0-2.35 2.13-3.25 4-3.25h3.08v-1.51c0-1.55-1-2.11-2.58-2.11-1.27 0-2.56.45-2.56 1.68v.37h-1.46v-.32c0-2.19 2.07-3 4.09-3 2.17 0 4.13.75 4.13 3.18v5.2c0 .6.09 2.19.15 2.63h-1.57c0-.32-.09-1.25-.11-1.53a3.69 3.69 0 0 1-3.53 1.76c-2.07.04-3.64-1.1-3.64-3.1zm7.08-1v-1h-2.8c-1.38 0-2.69.37-2.69 2 0 1.31 1.12 2 2.43 2 2.16-.13 3.06-1.33 3.06-3.03zm5.12-6.9h1.55v1.87a4 4 0 0 1 3.55-2.11 3.25 3.25 0 0 1 3.46 3.57v7.47h-1.61v-6.86c0-1.92-.9-2.78-2.35-2.78a3.06 3.06 0 0 0-3.067 3.053q0 .11.007.217v6.37h-1.59z"/><path fill="#7d7d7d" d="M90.1 390.012l3.06-3.53a4.74 4.74 0 0 0 1.43-3.33 1.73 1.73 0 0 0-3.44-.06v.33h-1.28v-.41c0-1.69 1.31-2.58 3.13-2.58 2 0 3 1.16 3 2.75 0 2-1.26 3.33-2.6 4.82l-1.54 1.69h4.29v1.15H90.1zm8.9-3.74h3.92v1.13H99zm6.77 2.41v-.42h1.32v.32c0 1 .9 1.39 1.91 1.39a1.8 1.8 0 0 0 1.86-1.94 1.78 1.78 0 0 0-1.92-1.84h-1.21v-1.13h1.15a1.59 1.59 0 0 0 1.76-1.76 1.61 1.61 0 0 0-1.71-1.71c-1 0-1.78.52-1.78 1.55v.17h-1.29v-.36c0-1.42 1.16-2.48 3.1-2.48 2.18 0 3 1.39 3 2.63a2.33 2.33 0 0 1-1.61 2.42v.06a2.51 2.51 0 0 1 2 2.45c0 2-1.55 3-3.37 3-2.19.05-3.21-1.07-3.21-2.35zM60.72 403.9l-3.36-6h1.55l2.51 4.66 2.48-4.66h1.53l-3.36 6v4.19h-1.35zm7.46-6.038h6.74v1.25h-5.33v3.11h4.56v1.23h-4.56v3.4H75v1.25h-6.82zm13.12 0h1.31l3.77 10.24H84.9l-.9-2.71h-4.13l-1 2.71h-1.38zm2.25 6.34l-1.62-4.65-1.65 4.65zm5.67-6.32H93c2 0 3.39 1.1 3.39 3.1a2.91 2.91 0 0 1-2.34 3l2.83 4.17H95.3l-2.73-4h-2v4h-1.35zm3.51 5c1.41 0 2.25-.63 2.25-1.94s-.91-1.93-2.27-1.93h-2.08v3.84zm6.35 2.91l1.28-.49a2.7 2.7 0 0 0 2.71 1.74c1.25 0 2.29-.57 2.29-1.68s-.66-1.39-1.52-1.65l-1.86-.5c-1.41-.39-2.32-1.09-2.32-2.67 0-1.76 1.48-2.85 3.37-2.85a3.49 3.49 0 0 1 3.53 2l-1.22.49a2.4 2.4 0 0 0-2.34-1.32c-1 0-2 .47-2 1.55 0 .77.56 1.26 1.64 1.56l1.88.52a2.61 2.61 0 0 1 2.19 2.74c0 1.79-1.52 3-3.73 3a3.674 3.674 0 0 1-3.9-2.44zm18.73-7.93h1.31l3.77 10.24h-1.48l-.95-2.71h-4.09l-1 2.71H114zm2.25 6.34l-1.62-4.65-1.65 4.65zm5.12.62v-3.46a3.64 3.64 0 0 1 3.6-3.682q.172 0 .343.012c2 0 3.74 1.06 3.74 3.08v.43h-1.33v-.27c0-1.36-1.1-2-2.42-2a2.34 2.34 0 0 0-2.513 2.153q-.01.114-.007.227v3.38a2.35 2.35 0 0 0 2.367 2.333q.117 0 .233-.013a2.11 2.11 0 0 0 2.38-2.07v-.85h-2.75v-1.26h4.09v2.27c0 2.05-1.66 3.17-3.71 3.17s-4.023-1.2-4.023-3.45zm10.89 0v-3.41a3.72 3.72 0 0 1 3.72-3.72q.14 0 .28.01c2.19 0 4 1.35 4 3.6v3.27a3.72 3.72 0 0 1-3.7 3.736q-.118 0-.237-.006c-2.233-.01-4.063-1.23-4.063-3.48zm6.55-.17v-3.41a2.59 2.59 0 0 0-5.15.13v3.34a2.59 2.59 0 0 0 5.15-.06zM1.7 271.622v-3.41a3.65 3.65 0 0 1 4-3.67c2 0 3.73 1.15 3.73 3.17v.44H8.05v-.29a2.15 2.15 0 0 0-2.42-2.08 2.34 2.34 0 0 0-2.514 2.153q-.01.113-.006.227v3.34a2.35 2.35 0 0 0 2.367 2.333q.117 0 .233-.013a2.1 2.1 0 0 0 2.35-2.08v-.19h1.33v.36c0 2.05-1.68 3.17-3.69 3.17-2.2.01-4-1.2-4-3.46zm10.96-6.94h1.41v10.23h-1.41zm7.51 1.21h-3.2v-1.21h7.79v1.21h-3.18v9h-1.41zm9.96 4.82l-3.36-6h1.55l2.51 4.66 2.48-4.66h1.53l-3.36 6v4.19h-1.35zm-28.18 11.18h1.73l3 6.31 2.94-6.31h1.77v10.23h-1.36v-7.75l-2.77 5.78H6.11L3.39 284.4v7.72H1.95zm13.09-.01h6.74v1.25h-5.34v3.11H21v1.23h-4.56v3.4h5.38v1.25h-6.78zm10.11.01h3.86a3.49 3.49 0 0 1 3.8 3.53v3.1a3.57 3.57 0 0 1-3.533 3.607q-.13 0-.257-.008h-3.87zm3.8 9a2.24 2.24 0 0 0 2.44-2.28v-3.23a2.26 2.26 0 0 0-2.5-2.25h-2.34v7.75zm7.24-9h1.41v10.23h-1.41zm8.06-.01h1.31l3.77 10.24h-1.48l-.95-2.71h-4.08l-1 2.71h-1.43zm2.25 6.34l-1.62-4.65-1.65 4.65zm5.67-6.34h1.39l5 7.82v-7.82h1.35v10.24h-1.35l-5-7.89v7.89h-1.39z"/><path fill="none" stroke="#f48e2a" stroke-width="28.73" stroke-miterlimit="10" d="M101.01 245.422v113.68"/><path fill="#7d7d7d" d="M213.67 389.782h2.41v-8l-2.24.33-.1-1 3.14-.63h.53v9.25h2.25v1h-6zm8.59-3.6h3.92v1.13h-3.92zm7 3.73l3.06-3.53a4.74 4.74 0 0 0 1.43-3.33 1.73 1.73 0 0 0-3.44-.06v.33H229v-.37c0-1.69 1.31-2.58 3.13-2.58 2 0 3 1.16 3 2.75 0 2-1.26 3.33-2.6 4.82l-1.53 1.69h4.29v1.15h-6.07zm-45.03 13.9l-3.36-6h1.55l2.51 4.66 2.48-4.66h1.53l-3.36 6v4.2h-1.36zm7.46-6.04h6.74v1.24h-5.33v3.11h4.56v1.23h-4.56v3.4h5.38v1.26h-6.78zm13.12 0h1.31l3.77 10.24h-1.48l-.95-2.71h-4.09l-1 2.71H201zm2.25 6.34l-1.62-4.65-1.65 4.65zm5.67-6.33h3.76c2 0 3.39 1.1 3.39 3.1a2.91 2.91 0 0 1-2.34 3l2.83 4.17h-1.55l-2.73-4h-2v4h-1.41zm3.51 5c1.41 0 2.25-.63 2.25-1.94s-.92-1.91-2.28-1.91h-2.08v3.84zm6.35 2.918l1.28-.49a2.7 2.7 0 0 0 2.71 1.74c1.25 0 2.29-.57 2.29-1.68s-.66-1.39-1.52-1.65l-1.86-.5c-1.41-.39-2.32-1.09-2.32-2.67 0-1.76 1.48-2.85 3.37-2.85a3.49 3.49 0 0 1 3.53 2l-1.22.49a2.4 2.4 0 0 0-2.34-1.32c-1 0-2 .47-2 1.55 0 .77.56 1.26 1.64 1.56l1.88.52a2.61 2.61 0 0 1 2.19 2.74c0 1.79-1.52 3-3.73 3a3.674 3.674 0 0 1-3.9-2.44zm18.73-7.928h1.31l3.77 10.24h-1.48l-.95-2.71h-4.09l-1 2.71h-1.38zm2.25 6.34l-1.62-4.65-1.65 4.65zm5.12.61v-3.46a3.64 3.64 0 0 1 3.6-3.682q.172 0 .343.012c2 0 3.74 1.06 3.74 3.08v.43H255v-.27c0-1.36-1.1-2-2.42-2a2.34 2.34 0 0 0-2.514 2.153q-.01.113-.007.227v3.38a2.35 2.35 0 0 0 2.366 2.333q.117 0 .233-.013a2.11 2.11 0 0 0 2.38-2.07v-.83h-2.75v-1.26h4.09v2.26c0 2.05-1.66 3.17-3.71 3.17s-3.98-1.17-3.98-3.46zm10.89 0v-3.41a3.72 3.72 0 0 1 3.72-3.72q.14 0 .28.01c2.19 0 4 1.35 4 3.6v3.27a3.72 3.72 0 0 1-3.7 3.736q-.118 0-.237-.006c-2.233-.01-4.063-1.19-4.063-3.48zm6.56-.17v-3.41a2.59 2.59 0 0 0-5.15.13v3.34a2.59 2.59 0 0 0 5.15-.06zm74.11-17.96v-.73l6.45-2.94.4.8-5.57 2.5 5.55 2.55-.4.8zm9.61 3.19h2.41v-8l-2.24.33-.1-1 3.14-.63h.53v9.25h2.25v1h-6zm-37.06 14.03l-3.36-6H311l2.51 4.66 2.48-4.66h1.53l-3.36 6v4.2h-1.36zm7.46-6.04H327v1.24h-5.34v3.11h4.56v1.23h-4.56v3.4H327v1.26h-6.78zm13.12 0h1.31l3.77 10.24H337l-.95-2.71h-4.09l-.96 2.71h-1.41zm2.25 6.34l-1.63-4.65-1.65 4.65zm5.67-6.33h3.76c2 0 3.39 1.1 3.39 3.1a2.91 2.91 0 0 1-2.34 3l2.83 4.17h-1.55l-2.73-4h-2v4h-1.36zm3.51 5c1.41 0 2.25-.63 2.25-1.94s-.92-1.91-2.28-1.91h-2.08v3.84zm14.96-5.01h1.31l3.77 10.24h-1.48l-.95-2.71h-4.09l-1 2.71H356zm2.23 6.34l-1.62-4.65-1.65 4.65zm5.15.61v-3.46a3.64 3.64 0 0 1 3.6-3.682q.172 0 .343.012c2 0 3.74 1.06 3.74 3.08v.43H373.5v-.27c0-1.36-1.1-2-2.42-2a2.34 2.34 0 0 0-2.513 2.153q-.01.114-.007.227v3.38a2.35 2.35 0 0 0 2.367 2.333q.117 0 .233-.013a2.11 2.11 0 0 0 2.38-2.07v-.83h-2.75v-1.26h4.09v2.26c0 2.05-1.66 3.17-3.71 3.17s-4.02-1.17-4.02-3.46zm10.85 0v-3.41a3.72 3.72 0 0 1 3.72-3.72q.14 0 .28.01c2.19 0 4 1.35 4 3.6v3.27a3.72 3.72 0 0 1-3.7 3.736q-.118 0-.237-.006c-2.193-.01-4.063-1.19-4.063-3.48zm6.55-.17v-3.41a2.59 2.59 0 0 0-5.15.13v3.34a2.59 2.59 0 0 0 5.15-.06z"/><path fill="none" stroke="#f48e2a" stroke-width="28.73" stroke-miterlimit="10" d="M224.82 192.302v53.12m123.8-76.18v76.18"/><path fill="#3a3a3a" d="M74.1 99.842h7.83v2.27H74.1zm14.12 4.3v-1.13a4.71 4.71 0 0 1 3.07-4.36 4.18 4.18 0 0 1-2.81-4v-1c0-3.56 3-5.39 6.28-5.39s6.31 1.58 6.31 5v1.58a4.1 4.1 0 0 1-2.9 3.73 4.53 4.53 0 0 1 3.16 4.3v1.14c0 3.44-2.84 5.42-6.6 5.42s-6.51-1.84-6.51-5.29zm10.33-.26v-.87c0-2.35-2-3.21-3.76-3.21s-3.79.87-3.79 3.11v1.1a3.483 3.483 0 0 0 3.76 3.33c2.04 0 3.79-1.22 3.79-3.45zm-.11-9.44v-1.05c0-2.15-1.86-3-3.73-3a3.29 3.29 0 0 0-3.553 3q0 .048-.007.1v1c0 2.21 2 3.16 3.67 3.16a3.39 3.39 0 0 0 3.607-3.158v-.042zm9.4 1.24v-3.87c0-2.47 1.84-3.53 3.87-3.53s4 1 4 3.56v3.93c0 2.32-2 3.41-4 3.41s-3.87-1.12-3.87-3.5zm5.94.11v-4.15a1.83 1.83 0 0 0-2-1.86 1.8 1.8 0 0 0-2 1.86V95.8c0 1.09.6 1.84 2 1.84a1.82 1.82 0 0 0 2-1.84zm9.67-7.29h1.81l-13.42 20.57H110zm-4.19 17.44v-3.87c0-2.47 1.84-3.59 3.9-3.59s4 1 4 3.56v3.97c0 2.32-2 3.41-4 3.41s-3.9-1.06-3.9-3.47zm5.94 0v-4.1a1.85 1.85 0 0 0-2-1.89 1.8 1.8 0 0 0-2 1.89v4.17c0 1.12.63 1.84 2 1.84a1.81 1.81 0 0 0 2-1.84zm75.44-5.71h-6.48v-1.78h6.48v-6.51h1.81v6.51h6.45v1.78h-6.45v6.48h-1.81zm22.63 2.72h-8.66v-2.12l7.89-12.88h3l-8.06 12.82h5.82V96.9l2.64-1.66v5.54h2.7v2.18h-2.7v5.48h-2.64zm11.59-7.94v-3.85c0-2.47 1.84-3.53 3.87-3.53s4 1 4 3.56v3.93c0 2.32-2 3.41-4 3.41s-3.87-1.11-3.87-3.52zm5.94.11v-4.11a1.83 1.83 0 0 0-2-1.86 1.8 1.8 0 0 0-2 1.86v4.16c0 1.09.6 1.84 2 1.84a1.82 1.82 0 0 0 2-1.86zm9.67-7.29h1.81L238.85 108.4H237zm-4.19 17.44V101.4c0-2.47 1.84-3.59 3.9-3.59s4 1 4 3.56v3.93c0 2.32-2 3.41-4 3.41s-3.9-1-3.9-3.41zm5.94 0v-4.1a1.85 1.85 0 0 0-2-1.89 1.8 1.8 0 0 0-2 1.89v4.13c0 1.12.63 1.84 2 1.84a1.81 1.81 0 0 0 2-1.81zm73.86-6.36h-6.48v-1.78h6.48v-6.51h1.81v6.51h6.45v1.78h-6.45v6.48h-1.81zm14.14 2.61v-9.26c0-3.73 3-6 6.68-6s6.1 1.92 6.1 4.93v.69h-2.6v-.4c0-1.92-1.43-3-3.56-3a3.49 3.49 0 0 0-3.79 3.67V96.4a6.34 6.34 0 0 1 5-2.38c3 0 5.22 1.81 5.22 4.59v3.33c0 3.59-2.87 5.54-6.6 5.54s-6.45-2.398-6.45-5.958zm10.33.49v-2.67c0-2.35-1.92-3.1-3.56-3.1a3.93 3.93 0 0 0-3.93 3.76v1.63a3.54 3.54 0 0 0 3.45 3.628q.17 0 .34-.008c2.46 0 3.7-1.46 3.7-3.24zm9.35-8.29v-3.87c0-2.47 1.84-3.53 3.87-3.53s4 1 4 3.56v3.93c0 2.32-2 3.41-4 3.41s-3.87-1.122-3.87-3.5zm5.94.11v-4.16a1.83 1.83 0 0 0-2-1.86 1.8 1.8 0 0 0-2 1.86v4.16c0 1.09.6 1.84 2 1.84a1.82 1.82 0 0 0 2-1.84zm9.67-7.29h1.81l-13.42 20.57h-1.84zm-4.19 17.47v-3.87c0-2.47 1.84-3.58 3.9-3.58s4 1 4 3.56v3.89c0 2.32-2 3.41-4 3.41s-3.9-1.022-3.9-3.41zm5.94 0v-4.1a1.85 1.85 0 0 0-2-1.89 1.8 1.8 0 0 0-2 1.89v4.1c0 1.12.63 1.84 2 1.84a1.81 1.81 0 0 0 1.99-1.84z"/><path fill="none" stroke="#e6e6e6" stroke-width="5.75" stroke-miterlimit="10" d="M1.7 245.422h396.71"/></svg>