<svg xmlns="http://www.w3.org/2000/svg" viewBox="0 0 1360 695"><path fill="none" d="M0 0h1360v695H0z"/><path d="M613.66 401.87h7a5.7 5.7 0 0 1 4 1.42 6 6 0 0 1 0 8 5.7 5.7 0 0 1-4 1.42h-4.82v7.08h-2.21zm2.18 1.94v7h4.58a3.49 3.49 0 1 0 0-7zM635.26 409.43a3.32 3.32 0 0 0-3.55 3.36v7h-2.06v-12.21h2v1.85a3.64 3.64 0 0 1 3.6-2zM639.34 404.51a1.35 1.35 0 0 1-1.37-1.34 1.37 1.37 0 1 1 1.37 1.34zm1 15.31h-2.06v-12.24h2.06zM662.12 408.75a5.11 5.11 0 0 1 1.27 3.6v7.46h-2.06v-7.18c0-2-1.15-3.36-3-3.36a3 3 0 0 0-3.07 3v7.58h-2.09v-7.18c0-2-1.18-3.36-2.9-3.36a3 3 0 0 0-2.3 1 3.42 3.42 0 0 0-.89 2.4v7.15H645v-12.28h2v1.85a3.82 3.82 0 0 1 3.72-2.06 4.28 4.28 0 0 1 4 2.42 4.44 4.44 0 0 1 4.1-2.42 4.18 4.18 0 0 1 3.3 1.38zM676.88 412.12v7.7h-2.09v-1.44a4.52 4.52 0 0 1-3.65 1.68c-2.42 0-4-1.3-4-3.48s1.49-3.48 4.49-3.65l3.17-.19v-.58c0-2-.86-3-2.57-3a2.45 2.45 0 0 0-2.66 2.54l-2.09-.1a4.08 4.08 0 0 1 1.3-3 4.65 4.65 0 0 1 3.43-1.3c2.99.06 4.67 1.77 4.67 4.82zm-2.06 2.28l-2.93.19q-2.66.18-2.66 1.94c0 1.18.74 1.75 2.23 1.75a3.05 3.05 0 0 0 3.36-3.38zM687.05 409.43a3.32 3.32 0 0 0-3.55 3.36v7h-2.06v-12.21h2v1.85a3.64 3.64 0 0 1 3.6-2zM692.76 425.94h-2.28l2.9-6.79-4.87-11.57h2.3l3.7 9.24 3.67-9.24h2.3zM719.74 403a4.66 4.66 0 0 1 1.8 3.65l-2.23.14c-.12-2-1.63-3.22-3.91-3.22-2.5 0-3.89 1.27-3.89 3.1a2.24 2.24 0 0 0 1 2.06 12.42 12.42 0 0 0 3.38 1.13 13 13 0 0 1 4.51 1.68 3.61 3.61 0 0 1 1.68 3.36 4.54 4.54 0 0 1-1.8 3.89 7.57 7.57 0 0 1-4.58 1.3 7.84 7.84 0 0 1-4.8-1.39 4.78 4.78 0 0 1-2-3.84l2.21-.12a3.25 3.25 0 0 0 1.42 2.5 5.29 5.29 0 0 0 3.19.94c2.52 0 4.15-1 4.15-3.1a2.4 2.4 0 0 0-.79-1.87 3.06 3.06 0 0 0-1-.6 8.92 8.92 0 0 0-1.27-.43q-.54-.18-1.66-.43c-1-.22-1.73-.43-2.3-.62a10.87 10.87 0 0 1-1.78-.86 3.78 3.78 0 0 1-1.73-3.5 4.74 4.74 0 0 1 1.56-3.62 6.38 6.38 0 0 1 4.51-1.46 6.9 6.9 0 0 1 4.33 1.31zM727.9 413l5.38-5.38h2.57l-5.16 5.33 5.74 6.91h-2.64l-4.56-5.4-1.32 1.3v4.1h-2.06v-18.69h2.06zM740.26 404.51a1.35 1.35 0 0 1-1.37-1.34 1.37 1.37 0 1 1 1.37 1.34zm1 15.31h-2.06v-12.24h2.06zM748 419.82h-2.06v-18.65H748zM754.75 419.82h-2.06v-18.65h2.06zM767.69 411.06l-2.06.12a2.14 2.14 0 0 0-2.5-2c-1.51 0-2.33.65-2.33 1.78a1.22 1.22 0 0 0 .63 1.15 4.33 4.33 0 0 0 .74.29l.46.12a10.88 10.88 0 0 1 1.08.24c2.9.7 4.25 1.51 4.25 3.53 0 2.4-1.78 3.79-4.63 3.79s-4.54-1.34-4.85-3.72l2.06-.14c.19 1.37 1.13 2.06 2.83 2.06 1.54 0 2.52-.65 2.52-1.82a1.32 1.32 0 0 0-.62-1.25 8.79 8.79 0 0 0-2.4-.82l-1.37-.39c-.31-.1-.7-.24-1.1-.41-1.15-.48-1.56-1.22-1.68-2.66 0-2.18 1.68-3.6 4.49-3.58a4.09 4.09 0 0 1 4.48 3.71zM590.17 459.08h-.81v-9.31l-2.16 1.71-.43-.63 2.79-2.24h.62zM594 458.59a.62.62 0 0 1-.63.62.62.62 0 0 1 0-1.23.62.62 0 0 1 .63.61zM593.24 494.39a4.43 4.43 0 0 1-.53 2.18 10.43 10.43 0 0 1-1.61 2.06l-2.63 2.7h4.93v.74h-6.05v-.66l3.14-3.25a9.68 9.68 0 0 0 1.48-1.88 3.87 3.87 0 0 0 .45-1.88 2 2 0 0 0-2.06-2.2c-1.41 0-2.19.9-2.23 2.42h-.83a2.85 2.85 0 0 1 3.05-3.12 2.67 2.67 0 0 1 2.89 2.89zM596.43 501.59a.62.62 0 0 1-.63.62.62.62 0 0 1 0-1.23.62.62 0 0 1 .63.61zM593.22 537.25a2.37 2.37 0 0 1-1.64 2.4 2.4 2.4 0 0 1 1.93 2.55 2.88 2.88 0 0 1-3.15 3 3 3 0 0 1-3.22-3h.83a2.28 2.28 0 0 0 2.4 2.31 2.13 2.13 0 0 0 2.33-2.27c0-1.41-1-2.16-2.42-2.16h-1v-.74h1a2 2 0 0 0 2.13-2 1.88 1.88 0 0 0-2.06-2 2.09 2.09 0 0 0-2.19 2.19h-.83a2.8 2.8 0 0 1 3-2.89 2.65 2.65 0 0 1 2.89 2.61zM596.68 544.59a.62.62 0 0 1-.63.62.62.62 0 0 1 0-1.23.62.62 0 0 1 .63.61z" fill="#666"/><rect x="612" y="437.34" width="57.61" height="29.44" rx="2" ry="2" fill="none" stroke="#ccc"/><path d="M632.72 448.35h2.34a1.9 1.9 0 0 1 1.33.47 2 2 0 0 1 0 2.68 1.89 1.89 0 0 1-1.33.47h-1.61v2.36h-.74zm.73.65v2.33H635a1.16 1.16 0 1 0 0-2.33zM642.89 454.34h-.73v-2.77H639v2.77h-.74v-6h.74v2.55h3.12v-2.55h.73zM644.74 448.35h2.34a1.9 1.9 0 0 1 1.33.47 2 2 0 0 1 0 2.68 1.89 1.89 0 0 1-1.33.47h-1.61v2.36h-.74zm.73.65v2.33H647a1.16 1.16 0 1 0 0-2.33z" fill="#666"/><path d="M632.72 448.35h2.34a1.9 1.9 0 0 1 1.33.47 2 2 0 0 1 0 2.68 1.89 1.89 0 0 1-1.33.47h-1.61v2.36h-.74zm.73.65v2.33H635a1.16 1.16 0 1 0 0-2.33zM642.89 454.34h-.73v-2.77H639v2.77h-.74v-6h.74v2.55h3.12v-2.55h.73zM644.74 448.35h2.34a1.9 1.9 0 0 1 1.33.47 2 2 0 0 1 0 2.68 1.89 1.89 0 0 1-1.33.47h-1.61v2.36h-.74zm.73.65v2.33H647a1.16 1.16 0 1 0 0-2.33z" fill="#666"/><rect x="612" y="480.34" width="80.66" height="29.44" rx="2" ry="2" fill="none" stroke="#ccc"/><path d="M636.42 492h-3v2h2.47v.65h-2.47v2.73h-.74v-6h3.7zM640.93 497.34h-.66v-.61a1.27 1.27 0 0 1-1.22.69A1.4 1.4 0 0 1 638 497a1.76 1.76 0 0 1-.4-1.19v-2.52h.69v2.42c0 .67.35 1.09 1 1.09a1 1 0 0 0 1-1.13v-2.38h.69zM643.41 497.34h-.69v-6.21h.69zM645.9 497.34h-.69v-6.21h.69zM653.37 491.72a1.55 1.55 0 0 1 .6 1.22h-.74a1.15 1.15 0 0 0-1.3-1.07c-.83 0-1.3.42-1.3 1a.75.75 0 0 0 .33.69 4.13 4.13 0 0 0 1.13.38 4.32 4.32 0 0 1 1.5.56 1.2 1.2 0 0 1 .56 1.12 1.51 1.51 0 0 1-.6 1.29 2.52 2.52 0 0 1-1.53.43 2.62 2.62 0 0 1-1.6-.46 1.6 1.6 0 0 1-.67-1.28h.74a1.08 1.08 0 0 0 .47.83 1.76 1.76 0 0 0 1.06.31c.84 0 1.38-.34 1.38-1a.8.8 0 0 0-.26-.62 1 1 0 0 0-.34-.2 2.92 2.92 0 0 0-.42-.14l-.55-.14a7.74 7.74 0 0 1-.77-.21 3.58 3.58 0 0 1-.59-.29 1.26 1.26 0 0 1-.58-1.17 1.58 1.58 0 0 1 .52-1.21 2.12 2.12 0 0 1 1.5-.49 2.3 2.3 0 0 1 1.46.45zM657.61 496.73v.62a3.19 3.19 0 0 1-.55 0 1.14 1.14 0 0 1-1.26-1.28v-2.25h-.76v-.6h.76v-1.41h.7v1.41h1.1v.6h-1.1v2.12q0 .79.72.79a2.85 2.85 0 0 0 .39 0zM661.88 494.77v2.57h-.7v-.48a1.5 1.5 0 0 1-1.21.56c-.81 0-1.34-.43-1.34-1.16s.5-1.16 1.5-1.21l1.06-.06v-.19c0-.66-.29-1-.86-1a.82.82 0 0 0-.89.85h-.7a1.36 1.36 0 0 1 .43-1 1.55 1.55 0 0 1 1.14-.43 1.42 1.42 0 0 1 1.57 1.55zm-.69.76l-1 .06q-.89.06-.89.65c0 .39.25.58.74.58a1 1 0 0 0 1.12-1.13zM666.61 493.6a1.59 1.59 0 0 1 .6 1.11l-.67.06a1.1 1.1 0 0 0-1.16-1c-.78 0-1.3.57-1.3 1.52s.54 1.52 1.3 1.52a1.09 1.09 0 0 0 1.17-.93l.67.06a1.73 1.73 0 0 1-1.84 1.46 2 2 0 0 1-1.45-.57 2.42 2.42 0 0 1 0-3.09 2 2 0 0 1 1.45-.57 1.86 1.86 0 0 1 1.23.43zM669.35 495l1.79-1.79h.86l-1.72 1.79 1.91 2.3h-.88l-1.52-1.8-.44.43v1.37h-.69v-6.21h.69z" fill="#666"/><path d="M636.42 492h-3v2h2.47v.65h-2.47v2.73h-.74v-6h3.7zM640.93 497.34h-.66v-.61a1.27 1.27 0 0 1-1.22.69A1.4 1.4 0 0 1 638 497a1.76 1.76 0 0 1-.4-1.19v-2.52h.69v2.42c0 .67.35 1.09 1 1.09a1 1 0 0 0 1-1.13v-2.38h.69zM643.41 497.34h-.69v-6.21h.69zM645.9 497.34h-.69v-6.21h.69zM653.37 491.72a1.55 1.55 0 0 1 .6 1.22h-.74a1.15 1.15 0 0 0-1.3-1.07c-.83 0-1.3.42-1.3 1a.75.75 0 0 0 .33.69 4.13 4.13 0 0 0 1.13.38 4.32 4.32 0 0 1 1.5.56 1.2 1.2 0 0 1 .56 1.12 1.51 1.51 0 0 1-.6 1.29 2.52 2.52 0 0 1-1.53.43 2.62 2.62 0 0 1-1.6-.46 1.6 1.6 0 0 1-.67-1.28h.74a1.08 1.08 0 0 0 .47.83 1.76 1.76 0 0 0 1.06.31c.84 0 1.38-.34 1.38-1a.8.8 0 0 0-.26-.62 1 1 0 0 0-.34-.2 2.92 2.92 0 0 0-.42-.14l-.55-.14a7.74 7.74 0 0 1-.77-.21 3.58 3.58 0 0 1-.59-.29 1.26 1.26 0 0 1-.58-1.17 1.58 1.58 0 0 1 .52-1.21 2.12 2.12 0 0 1 1.5-.49 2.3 2.3 0 0 1 1.46.45zM657.61 496.73v.62a3.19 3.19 0 0 1-.55 0 1.14 1.14 0 0 1-1.26-1.28v-2.25h-.76v-.6h.76v-1.41h.7v1.41h1.1v.6h-1.1v2.12q0 .79.72.79a2.85 2.85 0 0 0 .39 0zM661.88 494.77v2.57h-.7v-.48a1.5 1.5 0 0 1-1.21.56c-.81 0-1.34-.43-1.34-1.16s.5-1.16 1.5-1.21l1.06-.06v-.19c0-.66-.29-1-.86-1a.82.82 0 0 0-.89.85h-.7a1.36 1.36 0 0 1 .43-1 1.55 1.55 0 0 1 1.14-.43 1.42 1.42 0 0 1 1.57 1.55zm-.69.76l-1 .06q-.89.06-.89.65c0 .39.25.58.74.58a1 1 0 0 0 1.12-1.13zM666.61 493.6a1.59 1.59 0 0 1 .6 1.11l-.67.06a1.1 1.1 0 0 0-1.16-1c-.78 0-1.3.57-1.3 1.52s.54 1.52 1.3 1.52a1.09 1.09 0 0 0 1.17-.93l.67.06a1.73 1.73 0 0 1-1.84 1.46 2 2 0 0 1-1.45-.57 2.42 2.42 0 0 1 0-3.09 2 2 0 0 1 1.45-.57 1.86 1.86 0 0 1 1.23.43zM669.35 495l1.79-1.79h.86l-1.72 1.79 1.91 2.3h-.88l-1.52-1.8-.44.43v1.37h-.69v-6.21h.69z" fill="#666"/><rect x="612" y="522.34" width="81.16" height="29.44" rx="2" ry="2" fill="none" stroke="#ccc"/><path d="M637.75 539.34h-.8l-.62-1.52h-2.77l-.63 1.52h-.8l2.5-6h.62zm-3.93-2.16h2.23l-1.11-2.69zM642 535.64a1.67 1.67 0 0 1 .45 1.22v2.48h-.7v-2.39a1 1 0 0 0-1-1.12 1.06 1.06 0 0 0-.79.33 1.15 1.15 0 0 0-.3.8v2.38H639v-4.08h.66v.61a1.4 1.4 0 0 1 1.27-.68 1.51 1.51 0 0 1 1.07.45zM647.39 535.93v-.67h.61v4.31a1.78 1.78 0 0 1-.54 1.38 2 2 0 0 1-1.42.5 1.81 1.81 0 0 1-2-1.45h.69a1.31 1.31 0 0 0 2.55-.36v-.89a1.56 1.56 0 0 1-1.41.69 1.9 1.9 0 0 1-1.42-.58 2.13 2.13 0 0 1-.55-1.54 2.1 2.1 0 0 1 .55-1.54 1.9 1.9 0 0 1 1.42-.58 1.61 1.61 0 0 1 1.52.73zm-2.72 1.38a1.35 1.35 0 0 0 1.37 1.51 1.25 1.25 0 0 0 1.31-1.39v-.24a1.26 1.26 0 0 0-1.31-1.4 1.36 1.36 0 0 0-1.37 1.51zM653.13 539.34h-.66v-.61a1.27 1.27 0 0 1-1.22.69 1.4 1.4 0 0 1-1.09-.45 1.76 1.76 0 0 1-.4-1.19v-2.52h.69v2.42c0 .67.35 1.09 1 1.09a1 1 0 0 0 1-1.13v-2.38h.69zM655.62 539.34h-.69v-6.21h.69zM660.39 536.77v2.57h-.7v-.48a1.51 1.51 0 0 1-1.22.56c-.81 0-1.33-.43-1.33-1.16s.5-1.16 1.5-1.21l1.06-.06v-.19c0-.66-.29-1-.86-1a.82.82 0 0 0-.89.85h-.7a1.36 1.36 0 0 1 .43-1 1.55 1.55 0 0 1 1.14-.43 1.42 1.42 0 0 1 1.57 1.55zm-.69.76l-1 .06q-.89.06-.89.65c0 .39.25.58.74.58a1 1 0 0 0 1.12-1.13zM664 535.87a1.11 1.11 0 0 0-1.18 1.12v2.34h-.69v-4.08h.67v.62a1.21 1.21 0 0 1 1.2-.66zM665.53 538.94a.48.48 0 0 1-.48.47.48.48 0 0 1 0-1 .48.48 0 0 1 .48.53zM667.67 535.26v4.68a1.32 1.32 0 0 1-1.38 1.48h-.32v-.6h.24c.48 0 .78-.31.78-.86v-4.69zm.11-1.47a.45.45 0 0 1-.46.45.45.45 0 1 1 0-.9.46.46 0 0 1 .46.45zM672.21 536.42h-.69a.71.71 0 0 0-.83-.67c-.5 0-.78.22-.78.59a.41.41 0 0 0 .21.38 1.47 1.47 0 0 0 .25.1h.15l.36.08c1 .23 1.42.5 1.42 1.18s-.59 1.26-1.54 1.26a1.44 1.44 0 0 1-1.61-1.24h.69c.06.46.38.69.94.69s.84-.22.84-.61a.44.44 0 0 0-.21-.42 2.89 2.89 0 0 0-.8-.27l-.46-.11-.37-.14a.88.88 0 0 1-.56-.89c0-.73.56-1.2 1.5-1.19a1.36 1.36 0 0 1 1.49 1.26z" fill="#666"/><path d="M637.75 539.34h-.8l-.62-1.52h-2.77l-.63 1.52h-.8l2.5-6h.62zm-3.93-2.16h2.23l-1.11-2.69zM642 535.64a1.67 1.67 0 0 1 .45 1.22v2.48h-.7v-2.39a1 1 0 0 0-1-1.12 1.06 1.06 0 0 0-.79.33 1.15 1.15 0 0 0-.3.8v2.38H639v-4.08h.66v.61a1.4 1.4 0 0 1 1.27-.68 1.51 1.51 0 0 1 1.07.45zM647.39 535.93v-.67h.61v4.31a1.78 1.78 0 0 1-.54 1.38 2 2 0 0 1-1.42.5 1.81 1.81 0 0 1-2-1.45h.69a1.31 1.31 0 0 0 2.55-.36v-.89a1.56 1.56 0 0 1-1.41.69 1.9 1.9 0 0 1-1.42-.58 2.13 2.13 0 0 1-.55-1.54 2.1 2.1 0 0 1 .55-1.54 1.9 1.9 0 0 1 1.42-.58 1.61 1.61 0 0 1 1.52.73zm-2.72 1.38a1.35 1.35 0 0 0 1.37 1.51 1.25 1.25 0 0 0 1.31-1.39v-.24a1.26 1.26 0 0 0-1.31-1.4 1.36 1.36 0 0 0-1.37 1.51zM653.13 539.34h-.66v-.61a1.27 1.27 0 0 1-1.22.69 1.4 1.4 0 0 1-1.09-.45 1.76 1.76 0 0 1-.4-1.19v-2.52h.69v2.42c0 .67.35 1.09 1 1.09a1 1 0 0 0 1-1.13v-2.38h.69zM655.62 539.34h-.69v-6.21h.69zM660.39 536.77v2.57h-.7v-.48a1.51 1.51 0 0 1-1.22.56c-.81 0-1.33-.43-1.33-1.16s.5-1.16 1.5-1.21l1.06-.06v-.19c0-.66-.29-1-.86-1a.82.82 0 0 0-.89.85h-.7a1.36 1.36 0 0 1 .43-1 1.55 1.55 0 0 1 1.14-.43 1.42 1.42 0 0 1 1.57 1.55zm-.69.76l-1 .06q-.89.06-.89.65c0 .39.25.58.74.58a1 1 0 0 0 1.12-1.13zM664 535.87a1.11 1.11 0 0 0-1.18 1.12v2.34h-.69v-4.08h.67v.62a1.21 1.21 0 0 1 1.2-.66zM665.53 538.94a.48.48 0 0 1-.48.47.48.48 0 0 1 0-1 .48.48 0 0 1 .48.53zM667.67 535.26v4.68a1.32 1.32 0 0 1-1.38 1.48h-.32v-.6h.24c.48 0 .78-.31.78-.86v-4.69zm.11-1.47a.45.45 0 0 1-.46.45.45.45 0 1 1 0-.9.46.46 0 0 1 .46.45zM672.21 536.42h-.69a.71.71 0 0 0-.83-.67c-.5 0-.78.22-.78.59a.41.41 0 0 0 .21.38 1.47 1.47 0 0 0 .25.1h.15l.36.08c1 .23 1.42.5 1.42 1.18s-.59 1.26-1.54 1.26a1.44 1.44 0 0 1-1.61-1.24h.69c.06.46.38.69.94.69s.84-.22.84-.61a.44.44 0 0 0-.21-.42 2.89 2.89 0 0 0-.8-.27l-.46-.11-.37-.14a.88.88 0 0 1-.56-.89c0-.73.56-1.2 1.5-1.19a1.36 1.36 0 0 1 1.49 1.26z" fill="#666"/></svg>