<svg xmlns="http://www.w3.org/2000/svg" viewBox="0 0 1360 406.16"><title>icon-check</title><rect x="608" y="123.16" width="138" height="51" rx="2" ry="2" fill="none" stroke="#f24938" stroke-linecap="square" stroke-linejoin="round" stroke-width="2"/><circle cx="624.84" cy="136.23" r="6.24" fill="none" stroke="#f24938" stroke-linecap="square" stroke-linejoin="round" stroke-width="2"/><path fill="none" stroke="#f24938" stroke-linecap="square" stroke-linejoin="round" stroke-width="2" d="M637 134.16h50m23 0h23m-96 5h23m-23 14h20m-20 10h20m-20-5h15m22-5h20m-20 10h20m-20-5h14m22-5h21m-21 10h21m-21-5h15"/><rect x="608" y="229.16" width="138" height="51" rx="2" ry="2" fill="none" stroke="#f24938" stroke-linecap="square" stroke-linejoin="round" stroke-width="2"/><circle cx="624.84" cy="242.25" r="6.24" fill="none" stroke="#f24938" stroke-linecap="square" stroke-linejoin="round" stroke-width="2"/><path fill="none" stroke="#f24938" stroke-linecap="square" stroke-linejoin="round" stroke-width="2" d="M637 240.16h50m23 0h23m-96 5h23m-23 14h20m-20 5h15m22-5h20"/><path fill="#fff" d="M603 160.16h149v83H603z"/><path fill="none" stroke="#f24938" stroke-linecap="square" stroke-linejoin="round" stroke-width="2" d="M674 264.16h14m22-5h21m-21 5h15"/><rect x="586" y="168.16" width="181" height="67" rx="2" ry="2" fill="#fff" stroke="#f24938" stroke-linecap="square" stroke-linejoin="round" stroke-width="2"/><circle cx="605.56" cy="186.71" r="10.04" fill="none" stroke="#f24938" stroke-linecap="square" stroke-linejoin="round" stroke-width="2"/><path fill="none" stroke="#f24938" stroke-linecap="square" stroke-linejoin="round" stroke-width="2" d="M625 183.16h66m42 0h17m-125 6h30m-30 18h26m-26 14h26m-26-7h19m29-7h26m-26 14h26m-26-7h19m29-7h26m-26 14h26m-26-7h19"/><path d="M601.67 188.83a4.1 4.1 0 0 0 7.78 0m-6.45-4.67v1m5-1v1m-9.28 29.42l3.92 3.92 11.3-11.3" fill="none" stroke="#f24938" stroke-linecap="round" stroke-linejoin="round" stroke-width="2"/><path d="M723.5 190.26v1.4h-1v-1.41a3.52 3.52 0 0 1-2.17-.77 2.5 2.5 0 0 1-.95-1.82l.76-.05a2 2 0 0 0 .85 1.46 3.2 3.2 0 0 0 1.9.54c1.52 0 2.53-.65 2.53-1.92a1.6 1.6 0 0 0-.47-1.16 2.08 2.08 0 0 0-.62-.34 4.93 4.93 0 0 0-.73-.24l-1-.24-1-.25a5.11 5.11 0 0 1-.81-.3 2 2 0 0 1-1.24-2 2.39 2.39 0 0 1 .74-1.79 3 3 0 0 1 2.15-.78v-.91h1v.92a3 3 0 0 1 2.56 2.47l-.85.05a2.15 2.15 0 0 0-2.42-1.87c-1.53 0-2.4.78-2.4 1.89a1.64 1.64 0 0 0 .43 1.16 2.17 2.17 0 0 0 .56.34c.27.1.48.18.67.23l.85.2a7.8 7.8 0 0 1 2.52.91 2 2 0 0 1 1 1.67c.02 1.65-1.86 2.55-2.86 2.61z" fill="#fff" stroke="#f24938" stroke-linecap="square" stroke-linejoin="round"/><path fill="none" d="M0 0h1360v406.16H0z"/></svg>