<svg xmlns="http://www.w3.org/2000/svg" viewBox="0 0 1360 406.16"><title>icon-podium</title><polygon points="1110.44 280.15 1180.17 280.15 1171.92 247.16 1116.31 247.16 1110.44 280.15" style="fill:#fff;stroke:#f24938;stroke-linecap:square;stroke-linejoin:round;stroke-width:2px"/><polygon points="979 280.15 1054.43 280.15 1046.33 229.16 988.01 229.16 979 280.15" style="fill:#fff;stroke:#f24938;stroke-linecap:square;stroke-linejoin:round;stroke-width:2px"/><path d="M1138,267.38a5.3,5.3,0,0,0,2.59.74c2,0,2.66-1,2.64-1.94,0-1.64-1.49-2-3-2H1140v-1h.19a2.66,2.66,0,0,0,2.61-2.4,1.91,1.91,0,0,0-2.05-2,4.3,4.3,0,0,0-2.34.67l-.41-1.2a5.55,5.55,0,0,1,3.06-.93c2.3,0,3.73,1.35,3.73,2.78a3.16,3.16,0,0,1-1.78,2.74v0a3.18,3.18,0,0,1,2.23,3c0,1.87-1.65,3.51-4.45,3.51a6.35,6.35,0,0,1-3.13-.79Z" style="fill:none;stroke:#f24938;stroke-linecap:square;stroke-linejoin:round;stroke-width:2px"/><path d="M1015,257.16V256l1.2-1.21c3-2.84,4.32-4.35,4.33-6.12a2.09,2.09,0,0,0-2.33-2.28,4,4,0,0,0-2.49,1l-.51-1.11a5.13,5.13,0,0,1,3.31-1.19,3.29,3.29,0,0,1,3.58,3.4c0,2.16-1.63,3.9-4.1,6.28l-1,.86v.58h6v1Z" style="fill:none;stroke:#f24938;stroke-linecap:square;stroke-linejoin:round;stroke-width:2px"/><rect x="1060" y="142.16" width="41" height="35" transform="translate(920.84 1240.16) rotate(-90)" style="fill:#fff;stroke:#f24938;stroke-linecap:square;stroke-linejoin:round;stroke-width:2px"/><line x1="1076" y1="148.16" x2="1087" y2="148.16" style="fill:none;stroke:#f24938;stroke-linecap:round;stroke-linejoin:round;stroke-width:2px"/><line x1="1076" y1="153.16" x2="1090" y2="153.16" style="fill:none;stroke:#f24938;stroke-linecap:round;stroke-linejoin:round;stroke-width:2px"/><line x1="1076" y1="158.16" x2="1085" y2="158.16" style="fill:none;stroke:#f24938;stroke-linecap:round;stroke-linejoin:round;stroke-width:2px"/><line x1="1076" y1="166.16" x2="1090" y2="166.16" style="fill:none;stroke:#f24938;stroke-linecap:round;stroke-linejoin:round;stroke-width:2px"/><line x1="1076" y1="170.16" x2="1085" y2="170.16" style="fill:none;stroke:#f24938;stroke-linecap:round;stroke-linejoin:round;stroke-width:2px"/><line x1="1071.19" y1="147.75" x2="1071.19" y2="147.75" style="fill:none;stroke:#f24938;stroke-linecap:round;stroke-linejoin:round;stroke-width:2px"/><line x1="1071.19" y1="152.54" x2="1071.19" y2="152.54" style="fill:none;stroke:#f24938;stroke-linecap:round;stroke-linejoin:round;stroke-width:2px"/><line x1="1071.19" y1="157.34" x2="1071.19" y2="157.34" style="fill:none;stroke:#f24938;stroke-linecap:round;stroke-linejoin:round;stroke-width:2px"/><line x1="1071.19" y1="165.34" x2="1071.19" y2="165.34" style="fill:none;stroke:#f24938;stroke-linecap:round;stroke-linejoin:round;stroke-width:2px"/><line x1="1071.19" y1="170.13" x2="1071.19" y2="170.13" style="fill:none;stroke:#f24938;stroke-linecap:round;stroke-linejoin:round;stroke-width:2px"/><line x1="1102.47" y1="131.96" x2="1111.46" y2="122.98" style="fill:none;stroke:#f24938;stroke-linecap:round;stroke-linejoin:round;stroke-width:2px"/><line x1="1102.47" y1="182.8" x2="1111.46" y2="191.79" style="fill:none;stroke:#f24938;stroke-linecap:round;stroke-linejoin:round;stroke-width:2px"/><line x1="1080" y1="130.16" x2="1080" y2="121.16" style="fill:none;stroke:#f24938;stroke-linecap:round;stroke-linejoin:round;stroke-width:2px"/><line x1="1080" y1="194.16" x2="1080" y2="189.16" style="fill:none;stroke:#f24938;stroke-linecap:round;stroke-linejoin:round;stroke-width:2px"/><line x1="1107" y1="160.16" x2="1112" y2="160.16" style="fill:none;stroke:#f24938;stroke-linecap:round;stroke-linejoin:round;stroke-width:2px"/><line x1="1052" y1="159.16" x2="1048" y2="159.16" style="fill:none;stroke:#f24938;stroke-linecap:round;stroke-linejoin:round;stroke-width:2px"/><line x1="1056.97" y1="131.96" x2="1047.99" y2="122.98" style="fill:none;stroke:#f24938;stroke-linecap:round;stroke-linejoin:round;stroke-width:2px"/><line x1="1056.97" y1="182.8" x2="1047.99" y2="191.79" style="fill:none;stroke:#f24938;stroke-linecap:round;stroke-linejoin:round;stroke-width:2px"/><rect x="1002.5" y="187.66" width="33" height="28" transform="translate(817.34 1220.66) rotate(-90)" style="fill:#fff;stroke:#f24938;stroke-linecap:square;stroke-linejoin:round;stroke-width:2px"/><line x1="1016" y1="193.16" x2="1024" y2="193.16" style="fill:none;stroke:#f24938;stroke-linecap:round;stroke-linejoin:round;stroke-width:2px"/><line x1="1016" y1="197.16" x2="1026" y2="197.16" style="fill:none;stroke:#f24938;stroke-linecap:round;stroke-linejoin:round;stroke-width:2px"/><line x1="1016" y1="200.16" x2="1023" y2="200.16" style="fill:none;stroke:#f24938;stroke-linecap:round;stroke-linejoin:round;stroke-width:2px"/><line x1="1016" y1="207.16" x2="1026" y2="207.16" style="fill:none;stroke:#f24938;stroke-linecap:round;stroke-linejoin:round;stroke-width:2px"/><line x1="1016" y1="211.16" x2="1023" y2="211.16" style="fill:none;stroke:#f24938;stroke-linecap:round;stroke-linejoin:round;stroke-width:2px"/><line x1="1011.65" y1="192.38" x2="1011.65" y2="192.38" style="fill:none;stroke:#f24938;stroke-linecap:round;stroke-linejoin:round;stroke-width:2px"/><line x1="1011.65" y1="196.19" x2="1011.65" y2="196.19" style="fill:none;stroke:#f24938;stroke-linecap:round;stroke-linejoin:round;stroke-width:2px"/><line x1="1011.65" y1="200.01" x2="1011.65" y2="200.01" style="fill:none;stroke:#f24938;stroke-linecap:round;stroke-linejoin:round;stroke-width:2px"/><line x1="1011.65" y1="206.38" x2="1011.65" y2="206.38" style="fill:none;stroke:#f24938;stroke-linecap:round;stroke-linejoin:round;stroke-width:2px"/><line x1="1011.65" y1="210.19" x2="1011.65" y2="210.19" style="fill:none;stroke:#f24938;stroke-linecap:round;stroke-linejoin:round;stroke-width:2px"/><rect x="1126.5" y="210.66" width="31" height="26" transform="translate(918.34 1365.66) rotate(-90)" style="fill:#fff;stroke:#f24938;stroke-linecap:square;stroke-linejoin:round;stroke-width:2px"/><line x1="1139" y1="215.16" x2="1146" y2="215.16" style="fill:none;stroke:#f24938;stroke-linecap:round;stroke-linejoin:round;stroke-width:2px"/><line x1="1139" y1="219.16" x2="1149" y2="219.16" style="fill:none;stroke:#f24938;stroke-linecap:round;stroke-linejoin:round;stroke-width:2px"/><line x1="1139" y1="222.16" x2="1145" y2="222.16" style="fill:none;stroke:#f24938;stroke-linecap:round;stroke-linejoin:round;stroke-width:2px"/><line x1="1139" y1="228.16" x2="1149" y2="228.16" style="fill:none;stroke:#f24938;stroke-linecap:round;stroke-linejoin:round;stroke-width:2px"/><line x1="1139" y1="232.16" x2="1145" y2="232.16" style="fill:none;stroke:#f24938;stroke-linecap:round;stroke-linejoin:round;stroke-width:2px"/><line x1="1134.71" y1="214.72" x2="1134.71" y2="214.72" style="fill:none;stroke:#f24938;stroke-linecap:round;stroke-linejoin:round;stroke-width:2px"/><line x1="1134.71" y1="218.3" x2="1134.71" y2="218.3" style="fill:none;stroke:#f24938;stroke-linecap:round;stroke-linejoin:round;stroke-width:2px"/><line x1="1134.71" y1="221.88" x2="1134.71" y2="221.88" style="fill:none;stroke:#f24938;stroke-linecap:round;stroke-linejoin:round;stroke-width:2px"/><line x1="1134.71" y1="227.86" x2="1134.71" y2="227.86" style="fill:none;stroke:#f24938;stroke-linecap:round;stroke-linejoin:round;stroke-width:2px"/><line x1="1134.71" y1="231.44" x2="1134.71" y2="231.44" style="fill:none;stroke:#f24938;stroke-linecap:round;stroke-linejoin:round;stroke-width:2px"/><polygon points="1036.2 280.15 1123.44 280.15 1107.89 205.16 1051.4 205.16 1036.2 280.15" style="fill:#fff;stroke:#f24938;stroke-linecap:square;stroke-linejoin:round;stroke-width:2px"/><path d="M1081,229.16h-.79l-2,.87-.31-.85,2.55-1H1082v11h-1Z" style="fill:none;stroke:#f24938;stroke-linecap:square;stroke-linejoin:round;stroke-width:2px"/><circle cx="1079.97" cy="233.07" r="15.6" style="fill:none;stroke:#f24938;stroke-linecap:square;stroke-linejoin:round;stroke-width:2px"/><rect width="1360" height="406.16" style="fill:none"/></svg>