<svg xmlns="http://www.w3.org/2000/svg" viewBox="0 0 1360 406.16"><title>icon-podium</title><path fill="#fff" stroke="#f24938" stroke-linecap="square" stroke-linejoin="round" stroke-width="2" d="M1110.44 280.15h69.73l-8.25-32.99h-55.61l-5.87 32.99zm-131.44 0h75.43l-8.1-50.99h-58.32L979 280.15z"/><path d="M1138 267.38a5.3 5.3 0 0 0 2.59.74c2 0 2.66-1 2.64-1.94 0-1.64-1.49-2-3-2h-.23v-1h.19a2.66 2.66 0 0 0 2.61-2.4 1.91 1.91 0 0 0-2.05-2 4.3 4.3 0 0 0-2.34.67l-.41-1.2a5.55 5.55 0 0 1 3.06-.93c2.3 0 3.73 1.35 3.73 2.78a3.16 3.16 0 0 1-1.78 2.74 3.18 3.18 0 0 1 2.23 3c0 1.87-1.65 3.51-4.45 3.51a6.35 6.35 0 0 1-3.13-.79zm-123-10.22V256l1.2-1.21c3-2.84 4.32-4.35 4.33-6.12a2.09 2.09 0 0 0-2.33-2.28 4 4 0 0 0-2.49 1l-.51-1.11a5.13 5.13 0 0 1 3.31-1.19 3.29 3.29 0 0 1 3.58 3.4c0 2.16-1.63 3.9-4.1 6.28l-1 .86v.58h6v1z" fill="none" stroke="#f24938" stroke-linecap="square" stroke-linejoin="round" stroke-width="2"/><path fill="#fff" stroke="#f24938" stroke-linecap="square" stroke-linejoin="round" stroke-width="2" d="M1063 180.16v-41h35v41z"/><path fill="none" stroke="#f24938" stroke-linecap="round" stroke-linejoin="round" stroke-width="2" d="M1076 148.16h11m-11 5h14m-14 5h9m-9 8h14m-14 4h9m17.47-38.2l8.99-8.98m-8.99 59.82l8.99 8.99M1080 130.16v-9m0 73v-5m27-29h5m-60-1h-4m8.97-27.2l-8.98-8.98m8.98 59.82l-8.98 8.99"/><path fill="#fff" stroke="#f24938" stroke-linecap="square" stroke-linejoin="round" stroke-width="2" d="M1005 218.16v-33h28v33z"/><path fill="none" stroke="#f24938" stroke-linecap="round" stroke-linejoin="round" stroke-width="2" d="M1016 193.16h8m-8 4h10m-10 3h7m-7 7h10m-10 4h7m-11.35-.97"/><path fill="#fff" stroke="#f24938" stroke-linecap="square" stroke-linejoin="round" stroke-width="2" d="M1129 239.16v-31h26v31z"/><path fill="none" stroke="#f24938" stroke-linecap="round" stroke-linejoin="round" stroke-width="2" d="M1139 215.16h7m-7 4h10m-10 3h6m-6 6h10m-10 4h6m-10.29-.72"/><path fill="#fff" stroke="#f24938" stroke-linecap="square" stroke-linejoin="round" stroke-width="2" d="M1036.2 280.15h87.24l-15.55-74.99h-56.49l-15.2 74.99z"/><path d="M1081 229.16h-.79l-2 .87-.31-.85 2.55-1h1.55v11h-1z" fill="none" stroke="#f24938" stroke-linecap="square" stroke-linejoin="round" stroke-width="2"/><circle cx="1079.97" cy="233.07" r="15.6" fill="none" stroke="#f24938" stroke-linecap="square" stroke-linejoin="round" stroke-width="2"/><path fill="none" d="M0 0h1360v406.16H0z"/></svg>