<svg xmlns="http://www.w3.org/2000/svg" viewBox="0 0 1360 406.16"><title>icon-burner</title><rect x="334" y="129.16" width="6" height="146" transform="translate(674 404.31) rotate(180)" style="fill:#fff;stroke:#f24938;stroke-linecap:square;stroke-linejoin:round;stroke-width:2px"/><path d="M265,174.05v-17.9h-1c-1.61,0-2.92-.89-2.92-2.5s1.31-2.5,2.92-2.5h23.7c1.61,0,2.92.89,2.92,2.5s-1.31,2.5-2.92,2.5H287v17.9c12,4.58,22,16.82,22,31.21a33.06,33.06,0,1,1-44-31.21Z" style="fill:#fff;stroke:#f24938;stroke-linecap:square;stroke-linejoin:round;stroke-width:2px"/><path d="M302.67,202.75a27.45,27.45,0,0,1,.09,4.06,27,27,0,0,1-53.93-1.4c0-.41,0-.9.07-1.42.18-2.28,2.52-4.22,4.55-3.51s3,3.26,12,5,13.7-.06,24.94-3.7S302.67,202.75,302.67,202.75Z" style="fill:#fff;stroke:#f24938;stroke-linecap:square;stroke-linejoin:round;stroke-width:2px"/><circle cx="294.88" cy="208.01" r="2.51" style="fill:none;stroke:#f24938;stroke-linecap:square;stroke-linejoin:round;stroke-width:2px"/><circle cx="264.32" cy="135.26" r="2.51" transform="translate(-26.63 76.02) rotate(-15.59)" style="fill:#fff;stroke:#f24938;stroke-linecap:square;stroke-linejoin:round;stroke-width:2px"/><circle cx="280.98" cy="119.67" r="2.51" transform="translate(-21.83 79.93) rotate(-15.59)" style="fill:#fff;stroke:#f24938;stroke-linecap:square;stroke-linejoin:round;stroke-width:2px"/><circle cx="280.33" cy="136" r="4.47" transform="matrix(0.96, -0.27, 0.27, 0.96, -26.24, 80.35)" style="fill:#fff;stroke:#f24938;stroke-linecap:square;stroke-linejoin:round;stroke-width:2px"/><circle cx="295.66" cy="123.63" r="2.51" transform="translate(-19.69 180.67) rotate(-32.94)" style="fill:#fff;stroke:#f24938;stroke-linecap:square;stroke-linejoin:round;stroke-width:2px"/><circle cx="305.71" cy="111.14" r="4.47" transform="translate(-11.28 184.12) rotate(-32.94)" style="fill:#fff;stroke:#f24938;stroke-linecap:square;stroke-linejoin:round;stroke-width:2px"/><circle cx="287.76" cy="217.81" r="4.47" style="fill:none;stroke:#f24938;stroke-linecap:square;stroke-linejoin:round;stroke-width:2px"/><circle cx="261.83" cy="188.54" r="2.51" style="fill:none;stroke:#f24938;stroke-linecap:square;stroke-linejoin:round;stroke-width:2px"/><path d="M267,265.16h17a0,0,0,0,1,0,0v.56a4.44,4.44,0,0,1-4.44,4.44h-8.12a4.44,4.44,0,0,1-4.44-4.44v-.56A0,0,0,0,1,267,265.16Z" transform="translate(551 535.31) rotate(180)" style="fill:#fff;stroke:#f24938;stroke-linecap:square;stroke-linejoin:round;stroke-width:2px"/><rect x="249" y="270.16" width="54" height="5" transform="translate(552 545.31) rotate(180)" style="fill:#fff;stroke:#f24938;stroke-linecap:square;stroke-linejoin:round;stroke-width:2px"/><rect x="320" y="270.16" width="34" height="5" transform="translate(674 545.31) rotate(180)" style="fill:#f1f1f2;stroke:#f24938;stroke-linecap:square;stroke-linejoin:round;stroke-width:2px"/><path d="M274.89,261s5.41,1.43,5.88-3-3.48-1.72-4.9-10.85C271,249.35,267.85,259.87,274.89,261Z" style="fill:#fff;stroke:#f24938;stroke-linecap:square;stroke-linejoin:round;stroke-width:2px"/><rect x="261" y="162.16" width="30" height="5" transform="translate(552 329.31) rotate(180)" style="fill:#fff;stroke:#f24938;stroke-linecap:square;stroke-linejoin:round;stroke-width:2px"/><rect x="291" y="162.16" width="63" height="5" transform="translate(645 329.31) rotate(180)" style="fill:#fff;stroke:#f24938;stroke-linecap:square;stroke-linejoin:round;stroke-width:2px"/><circle cx="337.03" cy="164.72" r="8" style="fill:#fff;stroke:#f24938;stroke-linecap:square;stroke-linejoin:round;stroke-width:2px"/><circle cx="337.03" cy="164.72" r="1.27" style="fill:#fff;stroke:#f24938;stroke-linecap:square;stroke-linejoin:round;stroke-width:2px"/><path d="M180.1,211.16h47.57c.51,0,1-.15,1.36.13a2.1,2.1,0,0,1,.81,2.4l-.84,2.68v56.58a2.39,2.39,0,0,1-2.49,2.21H185.86c-1.27,0-2.86-.94-2.86-2.21v-56l-4.08-2.62a1.72,1.72,0,0,1-.57-2.65c.36-.48,1-.5,1.71-.5Z" style="fill:#fff;stroke:#f24938;stroke-linecap:square;stroke-linejoin:round;stroke-width:2px"/><rect x="193.34" y="235.58" width="9.58" height="9.58" rx="2" ry="2" transform="translate(249.53 547.61) rotate(-150)" style="fill:none;stroke:#f24938;stroke-linecap:square;stroke-linejoin:round;stroke-width:2px"/><rect x="203.88" y="227.6" width="9.58" height="9.58" rx="2" ry="2" transform="matrix(-0.62, -0.79, 0.79, -0.62, 154.81, 540.05)" style="fill:none;stroke:#f24938;stroke-linecap:square;stroke-linejoin:round;stroke-width:2px"/><rect x="202.76" y="244.99" width="9.58" height="9.58" rx="2" ry="2" transform="translate(-71.74 415.49) rotate(-80.96)" style="fill:none;stroke:#f24938;stroke-linecap:square;stroke-linejoin:round;stroke-width:2px"/><rect x="214" y="250.16" width="10" height="10" rx="2" ry="2" style="fill:none;stroke:#f24938;stroke-linecap:square;stroke-linejoin:round;stroke-width:2px"/><rect x="215.35" y="262.97" width="9.58" height="9.58" rx="2" ry="2" transform="translate(-78.89 443.08) rotate(-80.96)" style="fill:none;stroke:#f24938;stroke-linecap:square;stroke-linejoin:round;stroke-width:2px"/><rect x="202.76" y="259.1" width="9.58" height="9.58" rx="2" ry="2" transform="translate(-122.72 324.16) rotate(-62.16)" style="fill:none;stroke:#f24938;stroke-linecap:square;stroke-linejoin:round;stroke-width:2px"/><rect x="188.94" y="261" width="9.58" height="9.58" rx="2" ry="2" transform="translate(27.82 549.78) rotate(-113.62)" style="fill:none;stroke:#f24938;stroke-linecap:square;stroke-linejoin:round;stroke-width:2px"/><rect x="213.71" y="236.72" width="9.58" height="9.58" rx="2" ry="2" transform="translate(84.76 538.47) rotate(-113.62)" style="fill:none;stroke:#f24938;stroke-linecap:square;stroke-linejoin:round;stroke-width:2px"/><rect x="187.41" y="247.87" width="9.58" height="9.58" rx="2" ry="2" transform="translate(-73.3 426.7) rotate(-85.99)" style="fill:none;stroke:#f24938;stroke-linecap:square;stroke-linejoin:round;stroke-width:2px"/><rect width="1360" height="406.16" style="fill:none"/></svg>