<svg xmlns="http://www.w3.org/2000/svg" viewBox="0 0 1360 406.16"><title>icon-burner</title><path fill="#fff" stroke="#f24938" stroke-linecap="square" stroke-linejoin="round" stroke-width="2" d="M340 275.15h-6v-146h6zm-75-101.1v-17.9h-1c-1.61 0-2.92-.89-2.92-2.5s1.31-2.5 2.92-2.5h23.7c1.61 0 2.92.89 2.92 2.5s-1.31 2.5-2.92 2.5h-.7v17.9c12 4.58 22 16.82 22 31.21a33.06 33.06 0 1 1-44-31.21z"/><path d="M302.67 202.75a27.45 27.45 0 0 1 .09 4.06 27 27 0 0 1-53.93-1.4c0-.41 0-.9.07-1.42.18-2.28 2.52-4.22 4.55-3.51s3 3.26 12 5 13.7-.06 24.94-3.7 12.28.97 12.28.97z" fill="#fff" stroke="#f24938" stroke-linecap="square" stroke-linejoin="round" stroke-width="2"/><circle cx="294.88" cy="208.01" r="2.51" fill="none" stroke="#f24938" stroke-linecap="square" stroke-linejoin="round" stroke-width="2"/><circle cx="264.32" cy="135.26" r="2.51" transform="rotate(-15.59 264.345 135.275)" fill="#fff" stroke="#f24938" stroke-linecap="square" stroke-linejoin="round" stroke-width="2"/><circle cx="280.98" cy="119.67" r="2.51" transform="rotate(-15.59 281.026 119.698)" fill="#fff" stroke="#f24938" stroke-linecap="square" stroke-linejoin="round" stroke-width="2"/><circle cx="280.33" cy="136" r="4.47" transform="matrix(.96 -.27 .27 .96 -26.24 80.35)" fill="#fff" stroke="#f24938" stroke-linecap="square" stroke-linejoin="round" stroke-width="2"/><circle cx="295.66" cy="123.63" r="2.51" transform="rotate(-32.94 295.708 123.635)" fill="#fff" stroke="#f24938" stroke-linecap="square" stroke-linejoin="round" stroke-width="2"/><circle cx="305.71" cy="111.14" r="4.47" transform="rotate(-32.94 305.748 111.137)" fill="#fff" stroke="#f24938" stroke-linecap="square" stroke-linejoin="round" stroke-width="2"/><circle cx="287.76" cy="217.81" r="4.47" fill="none" stroke="#f24938" stroke-linecap="square" stroke-linejoin="round" stroke-width="2"/><circle cx="261.83" cy="188.54" r="2.51" fill="none" stroke="#f24938" stroke-linecap="square" stroke-linejoin="round" stroke-width="2"/><path d="M284 270.15h-17v-.56a4.44 4.44 0 0 1 4.44-4.44h8.12a4.44 4.44 0 0 1 4.44 4.44v.56zm19 5h-54v-5h54z" fill="#fff" stroke="#f24938" stroke-linecap="square" stroke-linejoin="round" stroke-width="2"/><path fill="#f1f1f2" stroke="#f24938" stroke-linecap="square" stroke-linejoin="round" stroke-width="2" d="M354 275.15h-34v-5h34z"/><path d="M274.89 261s5.41 1.43 5.88-3-3.48-1.72-4.9-10.85c-4.87 2.2-8.02 12.72-.98 13.85zM291 167.15h-30v-5h30zm63 0h-63v-5h63z" fill="#fff" stroke="#f24938" stroke-linecap="square" stroke-linejoin="round" stroke-width="2"/><circle cx="337.03" cy="164.72" r="8" fill="#fff" stroke="#f24938" stroke-linecap="square" stroke-linejoin="round" stroke-width="2"/><circle cx="337.03" cy="164.72" r="1.27" fill="#fff" stroke="#f24938" stroke-linecap="square" stroke-linejoin="round" stroke-width="2"/><path d="M180.1 211.16h47.57c.51 0 1-.15 1.36.13a2.1 2.1 0 0 1 .81 2.4l-.84 2.68v56.58a2.39 2.39 0 0 1-2.49 2.21h-40.65c-1.27 0-2.86-.94-2.86-2.21v-56l-4.08-2.62a1.72 1.72 0 0 1-.57-2.65c.36-.48 1-.5 1.71-.5z" fill="#fff" stroke="#f24938" stroke-linecap="square" stroke-linejoin="round" stroke-width="2"/><rect x="193.34" y="235.58" width="9.58" height="9.58" rx="2" ry="2" transform="rotate(-150 198.13 240.374)" fill="none" stroke="#f24938" stroke-linecap="square" stroke-linejoin="round" stroke-width="2"/><rect x="203.88" y="227.6" width="9.58" height="9.58" rx="2" ry="2" transform="matrix(-.62 -.79 .79 -.62 154.81 540.05)" fill="none" stroke="#f24938" stroke-linecap="square" stroke-linejoin="round" stroke-width="2"/><rect x="202.76" y="244.99" width="9.58" height="9.58" rx="2" ry="2" transform="rotate(-80.96 207.54 249.773)" fill="none" stroke="#f24938" stroke-linecap="square" stroke-linejoin="round" stroke-width="2"/><rect x="214" y="250.16" width="10" height="10" rx="2" ry="2" fill="none" stroke="#f24938" stroke-linecap="square" stroke-linejoin="round" stroke-width="2"/><rect x="215.35" y="262.97" width="9.58" height="9.58" rx="2" ry="2" transform="rotate(-80.96 220.128 267.757)" fill="none" stroke="#f24938" stroke-linecap="square" stroke-linejoin="round" stroke-width="2"/><rect x="202.76" y="259.1" width="9.58" height="9.58" rx="2" ry="2" transform="rotate(-62.16 207.535 263.878)" fill="none" stroke="#f24938" stroke-linecap="square" stroke-linejoin="round" stroke-width="2"/><rect x="188.94" y="261" width="9.58" height="9.58" rx="2" ry="2" transform="rotate(-113.62 193.724 265.791)" fill="none" stroke="#f24938" stroke-linecap="square" stroke-linejoin="round" stroke-width="2"/><rect x="213.71" y="236.72" width="9.58" height="9.58" rx="2" ry="2" transform="rotate(-113.62 218.495 241.513)" fill="none" stroke="#f24938" stroke-linecap="square" stroke-linejoin="round" stroke-width="2"/><rect x="187.41" y="247.87" width="9.58" height="9.58" rx="2" ry="2" transform="rotate(-85.99 192.18 252.66)" fill="none" stroke="#f24938" stroke-linecap="square" stroke-linejoin="round" stroke-width="2"/><path fill="none" d="M0 0h1360v406.16H0z"/></svg>