<svg xmlns="http://www.w3.org/2000/svg" viewBox="0 0 343.61 358.14"><defs><style>.cls-1{fill:#fff;}.cls-2{fill:#244161;}.cls-3,.cls-5,.cls-8{fill:none;stroke-miterlimit:10;}.cls-3{stroke:#fff;}.cls-4{fill:#23c37d;}.cls-5{stroke:#e6e7e7;stroke-width:3px;}.cls-6{fill:#757d80;}.cls-7{fill:#23c67d;}.cls-8{stroke:#23cc7d;}.cls-9{fill:#23cc7d;}</style></defs><title>getting-started</title><g id="Layer_2" data-name="Layer 2"><g id="Layer_1-2" data-name="Layer 1"><path class="cls-1" d="M0 0h343.61v358.14H0z"/><path id="_Rectangle_" data-name="&lt;Rectangle&gt;" class="cls-2" d="M49.52 202.94h247.82v38.72H49.52z"/><path id="_Path_" data-name="&lt;Path&gt;" class="cls-3" d="M267.46 218.32l5.05 5.05 5.06-5.05"/><path class="cls-2" d="M47.3 59.46v-3.61c0-2.8 2.2-4.28 4.75-4.28 2.23 0 4.59 1.07 4.59 3.71v.39h-2.4v-.18c0-1.37-1.17-1.8-2.15-1.8a2.06 2.06 0 0 0-2.28 2v3.64a2.1 2.1 0 0 0 2.31 2c1.15 0 2.1-.54 2.1-1.89v-.29h-2.66v-2h5.08v2.54c0 2.63-2.28 3.82-4.52 3.82-2.55.05-4.82-1.3-4.82-4.05zM61.72 51.76H70v2.13h-5.76v2.52h5v2.13h-5v2.68h5.82v2.13h-8.34zM77.89 53.86h-3.3v-2.1h9.14v2.1h-3.3v9.5h-2.54zM94.82 61.07l1.9-1.2a3.18 3.18 0 0 0 2.86 1.61c1 0 2-.37 2-1.32 0-.78-.63-1.11-1.45-1.33l-2-.5c-1.54-.39-2.77-1.2-2.77-3.16 0-2.18 1.89-3.59 4.29-3.59 2 0 3.3.57 4.2 2.07l-1.82 1.19a2.71 2.71 0 0 0-2.46-1.2c-.89 0-1.72.36-1.72 1.27 0 .75.75 1 1.63 1.29l1.92.49a3.14 3.14 0 0 1 2.72 3.22c0 2.33-2.1 3.66-4.57 3.66-2.02-.03-3.89-.75-4.73-2.5zM111.54 53.86h-3.3v-2.1h9.14v2.1h-3.3v9.5h-2.54zM124 51.75h2.55l4.16 11.61h-2.63l-.75-2.36H123l-.8 2.33h-2.44zm2.68 7.25l-1.46-4.44L123.7 59zM135.25 51.76h4.83c2.41 0 4 1.38 4 3.66a3.52 3.52 0 0 1-2.25 3.38l2.78 4.55h-2.78l-2.5-4.21h-1.59v4.21h-2.52zm4.5 5.38c1.16 0 1.89-.6 1.89-1.66s-.78-1.67-1.9-1.67h-2v3.33zM151.74 53.86h-3.3v-2.1h9.14v2.1h-3.3v9.5h-2.54zM162.34 51.76h8.29v2.13h-5.77v2.52h5v2.13h-5v2.68h5.82v2.13h-8.34zM175.87 51.76h4.67c2.55 0 4.65 1.51 4.65 4.16v3.18c0 2.81-2.26 4.26-4.62 4.26h-4.7zm4.57 9.47a2.06 2.06 0 0 0 2.23-2v-3.32a2.1 2.1 0 0 0-2.31-2h-2v7.34zM46.79 84.3l1.9-1.2a3.18 3.18 0 0 0 2.86 1.61c1 0 2-.37 2-1.32 0-.78-.63-1.11-1.45-1.33l-2-.5c-1.55-.39-2.77-1.2-2.77-3.16 0-2.18 1.89-3.59 4.29-3.59 2 0 3.3.57 4.2 2.07L54 78.07a2.71 2.71 0 0 0-2.46-1.2c-.89 0-1.72.36-1.72 1.27 0 .75.75 1 1.63 1.29l1.92.49a3.14 3.14 0 0 1 2.72 3.22c0 2.33-2.1 3.66-4.57 3.66-2.01-.03-3.88-.74-4.73-2.5zM61.09 75h8.3v2.13h-5.78v2.52h5v2.13h-5v2.68h5.82v2.13h-8.34zM74.62 75h2.52v9.47h5.58v2.13h-8.1zM87.46 75H90v9.47h5.58v2.13h-8.1zM100.31 75h2.52v11.6h-2.52zM108.27 75h2.46l4.72 7.22V75h2.39v11.6h-2.41l-4.78-7.37v7.37h-2.37zM123 82.69v-3.61c0-2.8 2.2-4.28 4.75-4.28 2.23 0 4.59 1.07 4.59 3.71v.39h-2.39v-.18c0-1.37-1.17-1.8-2.15-1.8a2.06 2.06 0 0 0-2.28 2v3.64a2.1 2.1 0 0 0 2.31 2c1.15 0 2.1-.54 2.1-1.89v-.29h-2.67v-2h5.08V83c0 2.63-2.28 3.82-4.52 3.82-2.56-.03-4.82-1.38-4.82-4.13zM147.28 82l-3.85-7h2.76l2.44 4.72L151 75h2.6l-3.87 7v4.59h-2.49zM157.31 82.66v-3.52c0-2.85 2.36-4.34 4.75-4.34 2.55 0 4.85 1.51 4.85 4.29v3.35c0 2.89-2.41 4.34-4.77 4.34-2.55.01-4.83-1.32-4.83-4.12zm7.08-.1V79a2.1 2.1 0 0 0-2.31-2 2 2 0 0 0-2.24 2v3.55a2.09 2.09 0 0 0 2.31 2.07 2.07 2.07 0 0 0 2.24-2.06zM172 82.54V75h2.54v7.32a2 2 0 0 0 2.18 2.29c1.4 0 2.15-.78 2.15-2.29V75h2.51v7.4c0 2.83-2 4.39-4.7 4.39s-4.68-1.4-4.68-4.25zM186.68 75h4.83c2.41 0 4 1.38 4 3.66A3.52 3.52 0 0 1 193.3 82l2.78 4.55h-2.78l-2.51-4.21h-1.59v4.21h-2.52zm4.51 5.38c1.16 0 1.89-.6 1.89-1.66S192.3 77 191.17 77h-2v3.33zM207.86 75h2.52v4.59h4.21V75h2.54v11.6h-2.54v-4.8h-4.21v4.8h-2.52zM222.25 82.66v-3.52c0-2.85 2.36-4.34 4.75-4.34 2.55 0 4.85 1.51 4.85 4.29v3.35c0 2.89-2.41 4.34-4.77 4.34-2.55.01-4.83-1.32-4.83-4.12zm7.08-.1V79a2.1 2.1 0 0 0-2.31-2 2 2 0 0 0-2.25 2v3.55a2.09 2.09 0 0 0 2.31 2.07 2.07 2.07 0 0 0 2.25-2.06zM237 75h3.12l2.67 6.62 2.6-6.62h3.11v11.6h-2.39V79l-2.41 6.12h-1.87l-2.42-6.08v7.53H237zM253.93 75h8.3v2.13h-5.77v2.52h5v2.13h-5v2.68h5.82v2.13h-8.34z"/><rect class="cls-4" x="50.77" y="269.99" width="247.82" height="38.72" rx="2.77" ry="2.77"/><path class="cls-3" d="M267.48 289.35h9"/><path class="cls-1" d="M273.17 293.44l-.68-.74 3.61-3.35-3.61-3.36.68-.73 4.4 4.09-4.4 4.09zM67.46 291l1-.63a1.66 1.66 0 0 0 1.5.84c.54 0 1.07-.2 1.07-.69s-.33-.58-.76-.7l-1-.26a1.61 1.61 0 0 1-1.45-1.65 2 2 0 0 1 2.18-1.84 2.27 2.27 0 0 1 2.2 1.08l-1 .62a1.42 1.42 0 0 0-1.29-.63c-.47 0-.9.19-.9.67s.39.54.85.67l1 .26a1.64 1.64 0 0 1 1.42 1.69c0 1.22-1.1 1.92-2.39 1.92a2.6 2.6 0 0 1-2.43-1.35zM74.94 286.17h1.32v6.07h-1.32zM79 290.2v-1.89a2.25 2.25 0 0 1 2.49-2.24c1.17 0 2.4.56 2.4 1.94v.2h-1.3v-.09c0-.71-.61-.95-1.12-.95a1.08 1.08 0 0 0-1.19 1.07v1.91a1.1 1.1 0 0 0 1.21 1.07c.61 0 1.1-.28 1.1-1v-.15h-1.4V289h2.66v1.33a2.11 2.11 0 0 1-2.37 2A2.23 2.23 0 0 1 79 290.2zM86.51 286.17h1.29l2.47 3.78v-3.78h1.25v6.07h-1.24l-2.5-3.86v3.86h-1.27zM98.06 290.12v-4h1.33V290a1.06 1.06 0 0 0 1.14 1.2c.73 0 1.12-.41 1.12-1.2v-3.83H103V290a2.23 2.23 0 0 1-2.46 2.3c-1.54.04-2.48-.69-2.48-2.18zM105.77 286.17h2.61a1.94 1.94 0 1 1 0 3.88h-1.33v2.19h-1.32zm2.41 2.82c.61 0 1-.31 1-.87s-.41-.88-1-.88h-1.08V289zM116.71 286.17H121v1.12h-3v1.38h2.45v1.11H118v2.47h-1.33zM123.2 290.18v-1.84a2.53 2.53 0 0 1 5 0v1.75a2.31 2.31 0 0 1-2.5 2.27c-1.31-.02-2.5-.72-2.5-2.18zm3.71-.05v-1.87a1.1 1.1 0 0 0-1.21-1.06 1.07 1.07 0 0 0-1.18 1.09v1.86a1.1 1.1 0 0 0 1.21 1.08 1.08 1.08 0 0 0 1.18-1.1zM130.92 286.17h2.53a1.89 1.89 0 0 1 2.11 1.92 1.85 1.85 0 0 1-1.18 1.77l1.46 2.38h-1.46l-1.31-2.24h-.83v2.21h-1.32zm2.36 2.82c.6 0 1-.31 1-.87s-.41-.88-1-.88h-1V289zM142 286.17h4.24v1.12h-2.91v1.38h2.45v1.11h-2.45v2.47H142zM148.78 286.17h2.53a1.89 1.89 0 0 1 2.11 1.92 1.85 1.85 0 0 1-1.17 1.77l1.46 2.38h-1.46l-1.31-2.24h-.83v2.21h-1.32zm2.36 2.82c.61 0 1-.31 1-.87s-.41-.88-1-.88h-1V289zM156.14 286.17h4.34v1.12h-3v1.32h2.61v1.12h-2.61v1.41h3v1.12h-4.37zM163.23 286.17h4.34v1.12h-3v1.32h2.61v1.12h-2.61v1.41h3v1.12h-4.37zM93 224.27l1-.63a1.66 1.66 0 0 0 1.5.84c.54 0 1.07-.2 1.07-.69s-.33-.58-.76-.7l-1-.26a1.62 1.62 0 0 1-1.45-1.65 2 2 0 0 1 2.25-1.88 2.27 2.27 0 0 1 2.2 1.08l-1 .62a1.42 1.42 0 0 0-1.29-.63c-.47 0-.9.19-.9.67s.39.54.85.67l1 .26a1.64 1.64 0 0 1 1.42 1.69c0 1.22-1.1 1.92-2.39 1.92a2.6 2.6 0 0 1-2.5-1.31zM100.5 219.4h4.34v1.12h-3v1.32h2.61v1.12h-2.61v1.41h3v1.12h-4.34zM109 220.49h-1.73v-1.1H112v1.1h-1.7v5H109zM115.9 220.49h-1.73v-1.1H119v1.1h-1.73v5h-1.37zM121.46 219.4h1.32v6.07h-1.32zM125.62 219.4h1.29l2.47 3.78v-3.78h1.25v6.07h-1.26l-2.5-3.86v3.86h-1.24zM133.33 223.42v-1.89a2.25 2.25 0 0 1 2.49-2.24c1.17 0 2.4.56 2.4 1.94v.2H137v-.09c0-.71-.61-.95-1.12-.95a1.08 1.08 0 0 0-1.19 1.07v1.91a1.1 1.1 0 0 0 1.21 1.07c.6 0 1.1-.28 1.1-1v-.15h-1.4v-1.07h2.66v1.33a2.11 2.11 0 0 1-2.37 2 2.23 2.23 0 0 1-2.56-2.13zM146.34 219.39h1.34l2.18 6.08h-1.38l-.41-1.22h-2.24l-.42 1.22h-1.28zm1.39 3.79l-.77-2.33-.77 2.33zM155.95 219.4h1.32v5h2.92v1.12h-4.24zM162.68 219.4H164v6.07h-1.32zM166.42 224.27l1-.63a1.66 1.66 0 0 0 1.5.84c.54 0 1.07-.2 1.07-.69s-.33-.58-.76-.7l-1-.26a1.62 1.62 0 0 1-1.45-1.65 2 2 0 0 1 2.25-1.88 2.27 2.27 0 0 1 2.2 1.08l-1 .62a1.42 1.42 0 0 0-1.29-.63c-.47 0-.9.19-.9.67s.39.54.85.67l1 .26a1.64 1.64 0 0 1 1.42 1.69c0 1.22-1.1 1.92-2.39 1.92a2.6 2.6 0 0 1-2.5-1.31zM175.18 220.49h-1.73v-1.1h4.79v1.1h-1.73v5h-1.33zM180.74 219.4h1.32v6.07h-1.32zM184.9 219.4h1.29l2.47 3.78v-3.78h1.25v6.07h-1.26l-2.5-3.86v3.86h-1.25zM192.61 223.42v-1.89a2.25 2.25 0 0 1 2.49-2.24c1.17 0 2.4.56 2.4 1.94v.2h-1.25v-.09c0-.71-.61-.95-1.12-.95a1.08 1.08 0 0 0-1.19 1.07v1.91a1.1 1.1 0 0 0 1.21 1.07c.6 0 1.1-.28 1.1-1v-.15h-1.4v-1.07h2.66v1.33a2.11 2.11 0 0 1-2.37 2 2.23 2.23 0 0 1-2.53-2.13zM203.9 219.4h2.61a1.94 1.94 0 1 1 0 3.88h-1.33v2.19h-1.28zm2.41 2.82c.61 0 1-.31 1-.87s-.41-.88-1-.88h-1.08v1.75zM211.1 219.4h2.53a1.89 1.89 0 0 1 2.11 1.92 1.85 1.85 0 0 1-1.17 1.77l1.46 2.38h-1.46l-1.31-2.21h-.83v2.21h-1.33zm2.36 2.82c.61 0 1-.31 1-.87s-.41-.88-1-.88h-1v1.75zM218.46 219.4h1.32v6.07h-1.32zM222.48 223.42v-1.89a2.25 2.25 0 0 1 2.49-2.24 2.13 2.13 0 0 1 2.39 2v.24h-1.26v-.12a1 1 0 0 0-1.13-1 1.07 1.07 0 0 0-1.17 1.07v1.89a1.09 1.09 0 0 0 1.21 1.06 1 1 0 0 0 1.1-1v-.11h1.25v.24a2.1 2.1 0 0 1-2.36 2 2.23 2.23 0 0 1-2.52-2.14zM230 219.4h4.34v1.12h-3v1.32h2.61v1.12h-2.61v1.41h3v1.12H230z"/><path id="_Rectangle_2" data-name="&lt;Rectangle&gt;" class="cls-5" d="M50.77 133.05h247.82v38.72H50.77z"/><path class="cls-6" d="M54 116.13l1.83-3.53h1.38l-2.58 4.74v3h-1.31v-3l-2.57-4.78h1.38zM63.58 117.4a3.2 3.2 0 0 1-.74 2.24 2.63 2.63 0 0 1-2 .8 2.81 2.81 0 0 1-1.45-.37 2.45 2.45 0 0 1-1-1.06 3.62 3.62 0 0 1-.39-1.61 3.17 3.17 0 0 1 .73-2.22 2.65 2.65 0 0 1 2.06-.8 2.58 2.58 0 0 1 2 .82 3.16 3.16 0 0 1 .79 2.2zm-4.26 0q0 2 1.5 2t1.48-2q0-2-1.49-2a1.27 1.27 0 0 0-1.13.52 2.64 2.64 0 0 0-.36 1.48zM69.46 120.34l-.17-.77h-.06a1.77 1.77 0 0 1-.74.64 2.47 2.47 0 0 1-1.09.23 2.14 2.14 0 0 1-1.59-.53 2.19 2.19 0 0 1-.52-1.6v-3.83h1.25v3.61a1.56 1.56 0 0 0 .28 1 1 1 0 0 0 .86.34 1.37 1.37 0 0 0 1.15-.47 2.58 2.58 0 0 0 .37-1.57v-2.92h1.25v5.86zM75.51 114.38a3 3 0 0 1 .62.05l-.13 1.16a2.36 2.36 0 0 0-.55-.06 1.59 1.59 0 0 0-1.21.49 1.76 1.76 0 0 0-.46 1.27v3.06h-1.24v-5.86h1l.16 1h.06a2.32 2.32 0 0 1 .76-.83 1.81 1.81 0 0 1 .99-.28zM83.24 120.44a2.83 2.83 0 0 1-2.14-.8 3 3 0 0 1-.77-2.19 3.32 3.32 0 0 1 .67-2.25 2.47 2.47 0 0 1 2-.82 2.41 2.41 0 0 1 1.83.7 2.69 2.69 0 0 1 .67 1.94v.67h-3.9a1.92 1.92 0 0 0 .46 1.31 1.6 1.6 0 0 0 1.22.46 4.51 4.51 0 0 0 1-.1 5 5 0 0 0 1-.33v1a3.82 3.82 0 0 1-.92.31 5.59 5.59 0 0 1-1.12.1zm-.24-5.12a1.25 1.25 0 0 0-1 .38 1.8 1.8 0 0 0-.43 1.1h2.66a1.62 1.62 0 0 0-.35-1.1 1.2 1.2 0 0 0-.88-.38zM92.19 120.34h-1.25v-3.61a1.64 1.64 0 0 0-.25-1 .94.94 0 0 0-.79-.33 1.21 1.21 0 0 0-1.06.47 2.75 2.75 0 0 0-.34 1.56v2.92h-1.25v-5.86h1l.17.77h.06a1.63 1.63 0 0 1 .71-.65 2.28 2.28 0 0 1 1-.23 1.78 1.78 0 0 1 1.79.92h.08a1.8 1.8 0 0 1 .73-.68 2.32 2.32 0 0 1 1.08-.24 2 2 0 0 1 1.53.53 2.34 2.34 0 0 1 .48 1.61v3.82h-1.24v-3.61a1.62 1.62 0 0 0-.26-1 1 1 0 0 0-.8-.33 1.23 1.23 0 0 0-1.06.45 2.33 2.33 0 0 0-.34 1.39zM101.61 120.34l-.25-.82a2.4 2.4 0 0 1-.85.73 2.71 2.71 0 0 1-1.1.19A1.86 1.86 0 0 1 98 120a1.74 1.74 0 0 1-.48-1.32 1.55 1.55 0 0 1 .67-1.37 3.88 3.88 0 0 1 2-.5h1v-.31a1.19 1.19 0 0 0-.26-.84 1.07 1.07 0 0 0-.81-.28 2.82 2.82 0 0 0-.86.13 6.56 6.56 0 0 0-.79.31l-.4-.89a4.3 4.3 0 0 1 1-.38 4.76 4.76 0 0 1 1.07-.13 2.53 2.53 0 0 1 1.69.49 1.9 1.9 0 0 1 .57 1.53v3.94zm-1.85-.85a1.54 1.54 0 0 0 1.09-.38 1.37 1.37 0 0 0 .41-1.06v-.51h-.75a2.57 2.57 0 0 0-1.28.29.89.89 0 0 0-.4.8.78.78 0 0 0 .23.61 1 1 0 0 0 .69.25zM104.48 112.93a.69.69 0 0 1 .18-.51.71.71 0 0 1 .52-.18.7.7 0 0 1 .51.18.69.69 0 0 1 .18.51.67.67 0 0 1-.18.5.69.69 0 0 1-.51.18.7.7 0 0 1-.52-.18.67.67 0 0 1-.18-.5zm1.32 7.41h-1.24v-5.86h1.24zM109.15 120.34h-1.24v-8.24h1.24z"/><path class="cls-7" d="M113.92 112.1l-.22 2 2-.57.15 1.15-1.91.15 1.25 1.65-1.05.57-.88-1.79-.79 1.79-1.09-.57 1.22-1.65-1.9-.15.19-1.15 2 .57-.22-2z"/><path class="cls-6" d="M51.77 193.92v-7.74H53v7.74zM62.08 193.92l-.25-.82a2.4 2.4 0 0 1-.85.73 2.71 2.71 0 0 1-1.1.19 1.86 1.86 0 0 1-1.35-.47 1.74 1.74 0 0 1-.48-1.32 1.55 1.55 0 0 1 .67-1.37 3.88 3.88 0 0 1 2-.5h1V190a1.19 1.19 0 0 0-.26-.84 1.07 1.07 0 0 0-.81-.28 2.82 2.82 0 0 0-.86.13 6.56 6.56 0 0 0-.79.31l-.4-.89a4.3 4.3 0 0 1 1-.38 4.76 4.76 0 0 1 1.07-.13 2.53 2.53 0 0 1 1.69.49A1.9 1.9 0 0 1 63 190v3.94zm-1.85-.85a1.54 1.54 0 0 0 1.09-.38 1.37 1.37 0 0 0 .41-1.06v-.51h-.75a2.57 2.57 0 0 0-1.28.29.89.89 0 0 0-.4.8.78.78 0 0 0 .23.61 1 1 0 0 0 .7.26zM70 193.92h-1.28v-3.61a1.63 1.63 0 0 0-.25-1 .94.94 0 0 0-.79-.33 1.21 1.21 0 0 0-1.06.47 2.74 2.74 0 0 0-.34 1.56v2.92H65v-5.86h1l.18.77h.06a1.63 1.63 0 0 1 .71-.65 2.28 2.28 0 0 1 1-.23 1.78 1.78 0 0 1 1.79.92h.08a1.8 1.8 0 0 1 .73-.68 2.32 2.32 0 0 1 1.08-.24 2 2 0 0 1 1.53.53 2.35 2.35 0 0 1 .48 1.61v3.82h-1.22v-3.61a1.62 1.62 0 0 0-.26-1 .94.94 0 0 0-.8-.33 1.23 1.23 0 0 0-1.06.45 2.33 2.33 0 0 0-.34 1.39zM75.54 188.74a.7.7 0 0 1 .78-.8.77.77 0 0 1 .59.21.83.83 0 0 1 .2.59.84.84 0 0 1-.2.6.89.89 0 0 1-1.17 0 .85.85 0 0 1-.2-.6zm0 4.52a.82.82 0 0 1 .2-.59.78.78 0 0 1 .58-.21.77.77 0 0 1 .59.21.82.82 0 0 1 .2.58.84.84 0 0 1-.2.6.89.89 0 0 1-1.17 0 .85.85 0 0 1-.2-.59z"/><path class="cls-2" d="M65.31 153.46V147H66v6.51a.7.7 0 0 0 .78.75 4.68 4.68 0 0 0 .59-.05v.49a3 3 0 0 1-.8.11c-.99-.02-1.26-.68-1.26-1.35zM68.75 147h.63v1.11h-.63zm0 2.33h.63v5.4h-.63zM70.92 154.27l3.14-4.42H71v-.52h3.83v.49l-3.15 4.39h3.2v.52h-4zM76.08 154.27l3.14-4.42h-3v-.52H80v.49l-3.15 4.39h3.2v.52h-4zM81 156.89v-.55a2.83 2.83 0 0 0 .68.09 1 1 0 0 0 1-.75l.4-1.05-2-5.28h.69l1.66 4.48 1.6-4.48h.64l-2.36 6.4a1.57 1.57 0 0 1-1.6 1.25 3.09 3.09 0 0 1-.71-.11zM87.64 149.86h-1v-.51h1v-1a1.33 1.33 0 0 1 1.42-1.52 2.5 2.5 0 0 1 .58.07v.56a1.73 1.73 0 0 0-.55-.07c-.45 0-.82.25-.82.9v1.05h1.32v.51h-1.33v4.88h-.63zM90.64 152.81v-1.45a2 2 0 0 1 2.18-2.14 2 2 0 0 1 2.18 2.12v1.4a2 2 0 0 1-2.16 2.14 2 2 0 0 1-2.2-2.07zm3.73-.05v-1.46a1.55 1.55 0 1 0-3.09 0v1.45a1.42 1.42 0 0 0 1.57 1.55 1.38 1.38 0 0 0 1.52-1.55zM96.29 154.08l.43-.37a2.25 2.25 0 0 0 1.67.65c.69 0 1.39-.38 1.39-1.07s-.41-.87-1.16-1l-.59-.13c-1-.18-1.52-.62-1.52-1.38s.68-1.56 1.87-1.56a2.42 2.42 0 0 1 1.79.6l-.42.36a2.14 2.14 0 0 0-1.43-.46c-.71 0-1.19.4-1.19 1s.43.78 1.22 1l.8.17c.76.17 1.29.58 1.29 1.37a1.84 1.84 0 0 1-2 1.71 2.69 2.69 0 0 1-2.15-.89zM102.39 153.66v-3.8h-1v-.52h1v-1.7h.61v1.7h1.6v.52H103v3.62c0 .59.29.77.84.77a3.4 3.4 0 0 0 .82-.12v.55a3.76 3.76 0 0 1-1 .14c-.66.02-1.27-.24-1.27-1.16zM105.83 152.7v-1.17a2.13 2.13 0 0 1 2.25-2.31 2 2 0 0 1 2.07 2.13v.79h-3.66v.64a1.48 1.48 0 0 0 1.64 1.56 1.79 1.79 0 0 0 1.44-.69l.48.3a2.25 2.25 0 0 1-2 .93 2 2 0 0 1-2.22-2.18zm3.69-1v-.37a1.42 1.42 0 0 0-1.5-1.56 1.53 1.53 0 0 0-1.53 1.64v.29zM111.78 149.34h.62v1.15a2.09 2.09 0 0 1 2-1.23 2.06 2.06 0 0 1 .38 0v.6a2.86 2.86 0 0 0-.5 0 1.79 1.79 0 0 0-1.88 1.88v3h-.64zM118.85 156.17A4.08 4.08 0 0 1 116 152a4.69 4.69 0 0 1 4.94-4.85 3.9 3.9 0 0 1 4.15 3.76 3.19 3.19 0 0 1-3.15 3.41h-.43l.19-1a2.28 2.28 0 0 1-1.88 1.17c-.94 0-1.51-.5-1.51-1.33a2.4 2.4 0 0 1 0-.39c0-.15.27-1.53.29-1.68a2.15 2.15 0 0 1 2.16-1.93 1.35 1.35 0 0 1 1.43 1.08l.18-1h.52L122 154a2.82 2.82 0 0 0 2.52-3.08 3.54 3.54 0 0 0-3.72-3.32 4.25 4.25 0 0 0-4.44 4.42 3.74 3.74 0 0 0 2.71 3.83 5.9 5.9 0 0 0 1.58.22 8.22 8.22 0 0 0 2.16-.3l.09.35a7.06 7.06 0 0 1-2.33.36 5.9 5.9 0 0 1-1.72-.31zm3-4l.14-.87a1.87 1.87 0 0 0 0-.34 1.22 1.22 0 0 0-1.29-1.33 1.57 1.57 0 0 0-1.61 1.39l-.29 1.7a3.14 3.14 0 0 0 0 .36c0 .6.43.94 1.19.94a2.17 2.17 0 0 0 1.84-1.87zM126.59 156l.57-.26a1.61 1.61 0 0 0 1.36.67 1.52 1.52 0 0 0 1.62-1.65v-1.19a1.86 1.86 0 0 1-1.75 1.07 1.75 1.75 0 0 1-1.9-1.85v-1.61a1.9 1.9 0 0 1 2-2 1.79 1.79 0 0 1 1.7 1.11v-1h.62v5.4a2.12 2.12 0 0 1-2.28 2.24 2.16 2.16 0 0 1-1.94-.93zm3.55-3.63v-1a1.57 1.57 0 0 0-1.57-1.62 1.36 1.36 0 0 0-1.44 1.42v1.65a1.31 1.31 0 0 0 1.45 1.33 1.58 1.58 0 0 0 1.56-1.74zM132.44 152.81v-1.45a2 2 0 0 1 2.18-2.14 2 2 0 0 1 2.18 2.13v1.4a2 2 0 0 1-2.16 2.14 2 2 0 0 1-2.2-2.08zm3.73-.05v-1.46a1.55 1.55 0 1 0-3.09 0v1.45a1.42 1.42 0 0 0 1.57 1.55 1.38 1.38 0 0 0 1.51-1.55zM138.23 152.81v-1.45a2 2 0 0 1 2.18-2.14 2 2 0 0 1 2.18 2.13v1.4a2 2 0 0 1-2.16 2.14 2 2 0 0 1-2.2-2.08zm3.73-.05v-1.46a1.55 1.55 0 1 0-3.09 0v1.45a1.42 1.42 0 0 0 1.57 1.55 1.38 1.38 0 0 0 1.56-1.55zM144.13 156l.57-.26a1.61 1.61 0 0 0 1.36.67 1.52 1.52 0 0 0 1.62-1.65v-1.19a1.86 1.86 0 0 1-1.75 1.07 1.75 1.75 0 0 1-1.9-1.85v-1.61a1.9 1.9 0 0 1 2-2 1.79 1.79 0 0 1 1.7 1.11v-1h.62v5.4A2.12 2.12 0 0 1 146 157a2.16 2.16 0 0 1-1.87-1zm3.55-3.63v-1a1.57 1.57 0 0 0-1.57-1.62 1.36 1.36 0 0 0-1.44 1.42v1.65a1.31 1.31 0 0 0 1.45 1.33 1.58 1.58 0 0 0 1.56-1.74zM150.24 153.46V147h.64v6.51a.7.7 0 0 0 .78.75 4.71 4.71 0 0 0 .59-.05v.49a3 3 0 0 1-.8.11c-.94-.02-1.21-.68-1.21-1.35zM153.41 152.7v-1.17a2.13 2.13 0 0 1 2.25-2.31 2 2 0 0 1 2.07 2.13v.79h-3.66v.64a1.48 1.48 0 0 0 1.64 1.56 1.79 1.79 0 0 0 1.44-.69l.48.3a2.25 2.25 0 0 1-2 .93 2 2 0 0 1-2.22-2.18zm3.69-1v-.37a1.42 1.42 0 0 0-1.5-1.56 1.53 1.53 0 0 0-1.54 1.64v.29zM159.35 153.59h.7v1.15h-.7zM161.7 152.71v-1.26a2 2 0 0 1 2.15-2.24 1.81 1.81 0 0 1 2.05 1.79v.16h-.62V151a1.26 1.26 0 0 0-1.43-1.2 1.47 1.47 0 0 0-1.5 1.66v1.31a1.41 1.41 0 0 0 1.51 1.62 1.24 1.24 0 0 0 1.42-1.2v-.18h.62v.14a1.8 1.8 0 0 1-2 1.79 2 2 0 0 1-2.2-2.23zM167.18 152.81v-1.45a2 2 0 0 1 2.18-2.14 2 2 0 0 1 2.18 2.13v1.4a2 2 0 0 1-2.16 2.14 2 2 0 0 1-2.2-2.08zm3.73-.05v-1.46a1.4 1.4 0 0 0-1.54-1.53 1.42 1.42 0 0 0-1.54 1.57v1.45a1.42 1.42 0 0 0 1.57 1.55 1.38 1.38 0 0 0 1.51-1.59zM173.22 149.34h.6v1a2 2 0 0 1 1.87-1.16 1.48 1.48 0 0 1 1.52 1.18 2.1 2.1 0 0 1 1.91-1.18 1.56 1.56 0 0 1 1.67 1.65v3.88h-.63v-3.51c0-1-.46-1.43-1.24-1.43a1.67 1.67 0 0 0-1.62 1.65v3.32h-.63v-3.57c0-.93-.45-1.4-1.23-1.4a1.66 1.66 0 0 0-1.63 1.68v3.29h-.64z"/><path class="cls-8" d="M65.21 216.67V215l8-3.39L81.2 215v14.21H65.21v-3.61"/><path class="cls-8" d="M69.79 222.48l-7.71 4.08a1.51 1.51 0 0 1-2-.63l-1.46-2.75a1.51 1.51 0 0 1 .63-2l7.71-4.08a1.51 1.51 0 0 1 1.16-.11l2 .63a1.61 1.61 0 0 1 1.06 2l-.61 2a1.51 1.51 0 0 1-.78.86z"/><path class="cls-9" d="M65.06 223.13a1 1 0 0 1-1.16-.13l.18-.2a.79.79 0 0 0 1 .08c.36-.2.53-.52.38-.81a.55.55 0 0 0-.68-.24l-.57.12a.67.67 0 0 1-.84-.34.77.77 0 0 1 .35-1l-.23-.43.2-.11.23.43a.91.91 0 0 1 1 .07l-.16.2a.75.75 0 0 0-.81 0 .55.55 0 0 0-.31.73c.11.2.26.28.64.2l.55-.12a.72.72 0 0 1 .89.36.84.84 0 0 1-.4 1.12l.24.45-.2.11z"/></g></g></svg>