<svg xmlns="http://www.w3.org/2000/svg" viewBox="0 0 1039.49 459.18"><defs><style>.cls-1,.cls-3,.cls-4{fill:none;}.cls-2,.cls-5{fill:#f4f4f4;}.cls-3{stroke:#757d82;}.cls-3,.cls-4,.cls-5{stroke-miterlimit:10;}.cls-4,.cls-5{stroke:#23cc7d;}</style></defs><title>icon-couch</title><g id="Layer_2" data-name="Layer 2"><g id="Layer_1-2" data-name="Layer 1"><rect class="cls-1" width="1039.49" height="459.18"/><rect class="cls-2" x="287.19" y="279.18" width="180" height="180"/><path class="cls-3" d="M316,359V347.16a9.85,9.85,0,0,1,9.85-9.85H430.74a9.85,9.85,0,0,1,9.85,9.85V359"/><path class="cls-3" d="M326,404.29v6.1a6.1,6.1,0,0,1-6.1,6.1h0a6.1,6.1,0,0,1-6.1-6.1v-6.1"/><path class="cls-3" d="M440.59,404.29v6.1a6.1,6.1,0,0,1-6.1,6.1h0a6.1,6.1,0,0,1-6.1-6.1v-6.1"/><path class="cls-3" d="M448.89,404.74H307.6V366.41a7.61,7.61,0,0,1,7.61-7.61h.42a7.61,7.61,0,0,1,7.6,7.18v3.63a12.16,12.16,0,0,0,12.16,12.16H421.5a12.16,12.16,0,0,0,12.16-12.16v-3.2a7.61,7.61,0,0,1,7.61-7.61h0a7.61,7.61,0,0,1,7.61,7.61Z"/><path class="cls-3" d="M378.31,341.6c-.06,3.57,0,38.25,0,38.25"/><circle class="cls-4" cx="344.64" cy="365.4" r="14.91"/><circle class="cls-5" cx="358.38" cy="369.67" r="10.65"/></g></g></svg>