<svg xmlns="http://www.w3.org/2000/svg" viewBox="0 0 1039.49 459.18"><defs><style>.cls-1,.cls-3,.cls-4{fill:none;}.cls-2{fill:#f4f4f4;}.cls-3{stroke:#757d82;}.cls-3,.cls-4{stroke-miterlimit:10;}.cls-4{stroke:#23cc7d;}</style></defs><title>icon-shake</title><g id="Layer_2" data-name="Layer 2"><g id="Layer_1-2" data-name="Layer 1"><rect class="cls-1" width="1039.49" height="459.18"/><rect class="cls-2" x="573.34" y="279.18" width="180" height="180"/><path class="cls-3" d="M713.52,378.85l-13.62,4.57-26.78-18.2-.94-7-22.08,7C637,364.29,643.53,353,643.53,353s18.32-9.86,22.55-12.68,10.33,0,10.33,0l17.85,10.8,14.09-4.23"/><path class="cls-3" d="M653.85,347.38c-5.7,3.19-20.66,3.76-20.66,3.76l-9.86-3.76"/><line class="cls-3" x1="623.87" y1="387.75" x2="609.71" y2="377.75"/><ellipse class="cls-3" cx="629.64" cy="391.39" rx="6.31" ry="8.99"/><ellipse class="cls-3" cx="643.06" cy="396.73" rx="6.31" ry="8.99"/><ellipse class="cls-3" cx="656.47" cy="403.6" rx="6.31" ry="8.99"/><path class="cls-3" d="M662.79,400.87l11.27,9s5.64,2.82,8.46-2.35"/><path class="cls-3" d="M670.3,388.65l15,12.74s5.64,2.82,8.46-2.35"/><path class="cls-3" d="M678.19,378.22,698,395.76s3.05,2.88,8.46-2.35c0,0,3.52-3.76-2.32-11.42"/><polyline class="cls-4" points="599.47 360.91 611.18 341.06 623.68 347.24 609.06 370.98"/><polyline class="cls-4" points="707.97 345.98 713.52 370.98 725.7 368.35 720.07 342.43"/></g></g></svg>