<svg xmlns="http://www.w3.org/2000/svg" viewBox="0 0 680 350"><title>branding-bottom</title><path d="M0,0H680V350H0Z" style="fill:none"/><path d="M184.59,192.74l8.13-13.4-13.83-5.7,2.14-6.56,14.54,2.44L196.85,153h7l1.28,16.38,14.68-2.86,2.14,6.84-13.83,5.84,8,13.47-5.56,4.17L200.44,184.6l-10.12,12.27Zm93.06,0,8.13-13.4-13.83-5.7,2.14-6.56,14.54,2.44L289.91,153h7l1.28,16.38,14.68-2.86,2.14,6.84-13.83,5.84,8,13.47-5.56,4.17L293.5,184.6l-10.12,12.27Zm93.05,0,8.13-13.4L365,173.64l2.14-6.56,14.54,2.44L383,153h7l1.28,16.38,14.68-2.86,2.14,6.84-13.83,5.84,8,13.47-5.56,4.17L386.59,184.6l-10.12,12.27Zm93.06,0,8.13-13.4-13.83-5.7,2.14-6.56,14.54,2.44L476,153h7l1.28,16.38L499,166.52l2.14,6.84-13.83,5.84,8,13.47-5.56,4.17L479.63,184.6l-10.12,12.27Z" style="fill:#f6f5de"/></svg>