<svg xmlns="http://www.w3.org/2000/svg" viewBox="0 0 460.96 177.47"><title>logo</title><g id="Layer_2" data-name="Layer 2"><g id="Layer_1-2" data-name="Layer 1"><polygon points="271.55 177.47 216.97 177.47 298.63 0 353.48 0 271.55 177.47" style="fill:#b22e2e"/><polygon points="378.8 177.47 324.45 177.47 406.26 0 460.96 0 378.8 177.47" style="fill:#b22e2e"/><polygon points="163.6 177.47 0 177.47 82.12 0 245.72 0 163.6 177.47" style="fill:#326b92"/><path d="M123.51,69.79,131.24,57l-13.15-5.42,2-6.24,13.83,3.39,1.22-14.64h6.64L143,48.63l14-3.25,2,6.24L145.88,57l7.59,12.74-5.29,3.93-9.63-11.66-9.63,11.66Z" style="fill:#f6f5de"/><path d="M92.11,139.41l7.73-12.74-13.15-5.42,2-6.24,13.83,3.39,1.22-14.64h6.64l1.22,14.51,14-3.25,2,6.24-13.15,5.42,7.59,12.74-5.29,3.93-9.63-11.66-9.63,11.66Z" style="fill:#f6f5de"/></g></g></svg>