<svg xmlns="http://www.w3.org/2000/svg" width="64" height="24" viewBox="0 0 64 24"><path d="M58.354 9.363c0 .662-.263.796-.688.796-.425 0-.688-.134-.688-.796V6.659h-.988v2.67c0 1.473 1.05 1.692 1.675 1.692s1.675-.22 1.675-1.692v-2.67h-.986v2.704zm4.055-.602l1.092-2.102h-1.082l-.551 1.137-.551-1.137h-1.082l1.093 2.102-1.161 2.203h1.082l.619-1.264.619 1.264h1.082zm-26.803-2.02l2.559 6.438 2.572-6.438h2.826l-4.525 10.6h-1.802l-4.456-10.6h2.826zM53.3 9.074h-4.619v1.771h3.61v2.334h-3.61v1.827H53.3v2.334h-7.205V6.74H53.3v2.334zm-23.192 8.267h2.827l-4.456-10.6h-1.801l-4.527 10.6h2.826l.729-1.823h3.678l.724 1.823zm-3.656-4.049l1.098-2.75 1.093 2.75h-2.191zM6.396 11.948c.711-.378 1.537-1.227 1.537-2.392 0-1.59-1.469-2.815-3.256-2.815H0v10.6h4.905c1.8 0 3.299-1.227 3.299-2.923.001-1.394-1.006-2.136-1.808-2.47zM2.362 8.921h2.042c.577 0 1.061.424 1.061 1.029 0 .606-.484 1.09-1.061 1.09H2.362V8.921zm2.24 6.254h-2.24v-2.166H4.45c.591 0 1.241.455 1.241 1.061.001.62-.5 1.105-1.089 1.105zm15.426 2.166l-2.729-3.997c1.376-.554 2.123-1.726 2.123-3.182 0-1.886-1.333-3.421-3.234-3.421h-5.16v10.6h2.425v-3.852h1.201l2.586 3.852h2.788zm-6.575-8.335h2.53c.649 0 1.204.537 1.204 1.204 0 .664-.554 1.268-1.204 1.268h-2.53V9.006z" fill="#CDCCCC"/></svg>