<svg xmlns="http://www.w3.org/2000/svg" width="20" height="24" viewBox="0 0 20 24"><path fill="#FFF" d="M20.093 5.785l-7.685-.004.292 1.488 5.298.001-1.528 4.117.808 4.115H9.387l-.55-2.81H7.293l.842 4.294h10.978l-1.098-5.599z"/><path fill="#DCDDDE" d="M14.248 7.27l-1.547-.001-.289-1.487 1.543.002.293 1.486zm-5.411 5.422H7.293l.292 1.485h1.544l-.292-1.485z"/><path fill="#FFF" d="M2.128 2.971h8.184l1.615 8.236H3.746l.291 1.485h9.725L11.566 1.486H1.835z"/><path fill="#DCDDDE" d="M5.263 11.207l.29 1.485H4.037l-.292-1.485h1.518zM2.128 2.971h1.516l-.291-1.485H1.835l.293 1.485z"/><path fill="#FFF" d="M1.545 0H0l4.769 24.277h1.543z"/></svg>