<svg xmlns="http://www.w3.org/2000/svg" width="37" height="37" viewBox="0 0 37 37"><path fill="#979797" d="M18.1 0C8.104 0 0 8.104 0 18.104 0 28.1 8.104 36.202 18.1 36.202c9.994 0 18.1-8.103 18.1-18.099C36.199 8.104 28.094 0 18.1 0zm2.972 27.237c-.477.091-.645-.2-.645-.452 0-.307.01-1.318.01-2.572 0-.877-.301-1.449-.637-1.739 2.09-.232 4.287-1.026 4.287-4.632 0-1.023-.365-1.862-.969-2.516.098-.238.422-1.193-.092-2.485 0 0-.791-.252-2.58.962a8.93 8.93 0 0 0-4.698 0c-1.793-1.214-2.58-.962-2.58-.962-.512 1.292-.189 2.247-.094 2.485-.602.653-.965 1.492-.965 2.516 0 3.597 2.191 4.402 4.275 4.639-.268.235-.512.649-.594 1.255-.537.24-1.896.655-2.732-.779 0 0-.494-.901-1.441-.968 0 0-.914-.011-.061.57 0 0 .611.289 1.041 1.373 0 0 .551 1.825 3.162 1.258.002.783.014 1.375.014 1.596 0 .25-.174.54-.643.453a9.385 9.385 0 0 1-6.418-8.904 9.385 9.385 0 1 1 18.77 0c.002 4.144-2.687 7.659-6.41 8.902z"/></svg>