<svg xmlns="http://www.w3.org/2000/svg" width="37" height="37" viewBox="0 0 37 37"><g fill="#434343"><path d="M18.853 18.428c.056-.02.117-.037.183-.055l.194-.053-.083-.184c-.15-.338-.322-.704-.533-1.12l-.064-.128-.139.039c-3.325.981-6.498 1.057-7.39 1.057l-.352-.003-.009.167c-.002.049-.006.1-.006.15 0 1.838.662 3.615 1.868 5.005l.153.177.123-.198c.378-.606 2.446-3.687 6.055-4.854zM17.779 15.773l.217-.047-.11-.12c-1.158-2.046-2.365-3.685-2.708-4.151l-.084-.082-.129.105c-2.072 1.009-3.612 2.732-4.123 4.973l-.047.064h.25c.771.001 3.544.089 6.734-.742zM19.739 19.578l-.06-.158-.159.057c-4.089 1.447-5.638 4.15-5.907 4.678l-.066.129.115.088a7.609 7.609 0 0 0 4.637 1.572 7.553 7.553 0 0 0 2.91-.577l.128-.053-.024-.136c-.106-.625-.536-2.875-1.574-5.6zM19.235 15.324l.076.133.138-.054c2.434-.933 3.566-2.275 3.854-2.665l.1-.129-.122-.104a7.653 7.653 0 0 0-4.982-1.85c-.56 0-1.115.062-1.658.183l-.258.059.158.213c.445.601 1.6 2.216 2.694 4.214zM22.627 18.972c-.505 0-1 .034-1.472.104l-.206.031.071.198a32.885 32.885 0 0 1 1.403 5.137l.051.266.221-.156a7.696 7.696 0 0 0 3.135-4.958l.024-.152-.146-.043a11.31 11.31 0 0 0-3.081-.427zM24.143 13.369l-.135.171c-.316.405-1.547 1.806-4.019 2.837l-.17.07.083.164c.16.338.314.675.457 1.007.044.106.09.212.13.317l.049.123.133-.016a14.17 14.17 0 0 1 1.662-.095c1.57 0 2.901.229 3.399.326l.211.042-.005-.215a7.705 7.705 0 0 0-1.659-4.562l-.136-.169z"/><path d="M18.299 0C8.193 0 0 8.193 0 18.299c0 10.104 8.193 18.297 18.299 18.297 10.104 0 18.295-8.192 18.295-18.297C36.594 8.193 28.403 0 18.299 0zm0 27.252c-4.938 0-8.96-4.015-8.96-8.953s4.022-8.955 8.96-8.955c4.938 0 8.953 4.018 8.953 8.955 0 4.938-4.015 8.953-8.953 8.953z"/></g></svg>