<svg xmlns="http://www.w3.org/2000/svg" width="37" height="37" viewBox="0 0 37 37"><path fill="#FFF" d="M18.852 18.428c.057-.02.12-.037.184-.055l.192-.053-.082-.184a22.84 22.84 0 0 0-.534-1.12l-.064-.128-.14.04c-3.323.98-6.497 1.056-7.39 1.056l-.35-.003-.01.168c-.002.05-.006.1-.006.15 0 1.838.662 3.615 1.87 5.006l.15.176.124-.197c.378-.606 2.446-3.688 6.054-4.854l.002-.002zm-1.072-2.655l.216-.047-.11-.12c-1.16-2.046-2.366-3.685-2.708-4.15l-.084-.083-.13.105c-2.07 1.01-3.612 2.732-4.122 4.973l-.047.065h.25c.77 0 3.545.09 6.735-.743zm1.96 3.805l-.06-.158-.16.057c-4.087 1.447-5.637 4.15-5.906 4.678l-.066.131.115.087a7.608 7.608 0 0 0 4.637 1.571 7.541 7.541 0 0 0 2.91-.576l.13-.053-.025-.137c-.108-.625-.538-2.875-1.575-5.6zm-.504-4.254l.074.133.14-.054c2.433-.933 3.565-2.275 3.854-2.665l.1-.13-.123-.103a7.65 7.65 0 0 0-4.98-1.85c-.56 0-1.116.062-1.66.183l-.257.06.158.212c.446.6 1.6 2.216 2.696 4.214h-.002zm3.391 3.648c-.504 0-1 .034-1.47.104l-.208.029.07.201c.859 2.379 1.27 4.385 1.402 5.135l.051.267.221-.156a7.697 7.697 0 0 0 3.136-4.958l.024-.152-.146-.043a11.35 11.35 0 0 0-3.083-.427h.003zm1.516-5.602l-.135.17c-.316.405-1.547 1.806-4.018 2.837l-.17.07.082.164c.16.34.313.676.457 1.008.043.106.09.212.129.317l.051.123.132-.016a14.157 14.157 0 0 1 1.662-.095c1.569 0 2.899.229 3.397.326l.211.042-.004-.215a7.72 7.72 0 0 0-1.66-4.562l-.137-.17.003.001zM18.3 0C8.192 0 0 8.193 0 18.3c0 10.103 8.193 18.296 18.3 18.296 10.107 0 18.293-8.191 18.293-18.296C36.594 8.192 28.404 0 18.3 0zm0 27.252c-4.94 0-8.96-4.016-8.96-8.953 0-4.94 4.02-8.956 8.96-8.956 4.938 0 8.952 4.018 8.952 8.955S23.238 27.25 18.3 27.25v.002z"/></svg>