<svg xmlns="http://www.w3.org/2000/svg" width="37" height="37" viewBox="0 0 37 37"><path fill="#434343" d="M18.09 0C8.098 0 0 8.098 0 18.086c0 9.989 8.098 18.087 18.09 18.087 9.99 0 18.085-8.098 18.085-18.087C36.175 8.098 28.08 0 18.09 0zm-4.428 25.582H9.999V13.797h3.663v11.785zm-1.858-13.231c-1.155 0-1.903-.818-1.903-1.831 0-1.036.773-1.831 1.953-1.831 1.182 0 1.905.795 1.93 1.831-.001 1.012-.749 1.831-1.98 1.831zm15.233 13.231h-3.663V19.05c0-1.518-.531-2.554-1.856-2.554-1.014 0-1.613.699-1.878 1.374-.098.241-.122.579-.122.915v6.797h-3.662v-8.025c0-1.471-.049-2.698-.101-3.76h3.183l.17 1.64h.072c.482-.772 1.662-1.904 3.639-1.904 2.41 0 4.219 1.613 4.219 5.084v6.965z"/></svg>