<svg xmlns="http://www.w3.org/2000/svg" width="37" height="37" viewBox="0 0 37 37"><path fill="#434343" d="M18.294 0C8.19 0 0 8.193 0 18.299s8.19 18.297 18.294 18.297c10.108 0 18.299-8.191 18.299-18.297S28.402 0 18.294 0zm7.442 14.991c.009.154.014.31.014.467 0 4.762-3.625 10.253-10.255 10.253-2.036 0-3.93-.598-5.523-1.619a7.249 7.249 0 0 0 5.336-1.492 3.608 3.608 0 0 1-3.369-2.502c.221.04.445.064.676.064.333 0 .535-.045.837-.127-1.65-.33-3.001-1.788-3.001-3.533v-.047c1.059.271 1.156.434 1.744.451-.967-.646-1.549-1.749-1.549-3 0-.66.206-1.277.522-1.811a10.253 10.253 0 0 0 7.438 3.766 3.658 3.658 0 0 1-.087-.822 3.61 3.61 0 0 1 6.241-2.465 7.272 7.272 0 0 0 2.291-.875 3.63 3.63 0 0 1-1.587 1.995 7.181 7.181 0 0 0 2.07-.569 7.284 7.284 0 0 1-1.798 1.866z"/></svg>