<svg xmlns="http://www.w3.org/2000/svg" width="37" height="37" viewBox="0 0 37 37"><path fill="#FFF" d="M18.09 0C8.098 0 0 8.098 0 18.086c0 9.99 8.098 18.087 18.09 18.087 9.99 0 18.086-8.098 18.086-18.087C36.176 8.098 28.08 0 18.09 0zm-4.428 25.582H9.998V13.797h3.664v11.785zm-1.857-13.23c-1.156 0-1.904-.82-1.904-1.832 0-1.036.774-1.83 1.954-1.83 1.182 0 1.906.794 1.93 1.83 0 1.012-.75 1.83-1.98 1.83v.002zm15.232 13.23h-3.664V19.05c0-1.518-.53-2.554-1.855-2.554-1.014 0-1.613.7-1.877 1.374-.1.24-.121.58-.121.915v6.797h-3.663v-8.025c0-1.47-.05-2.698-.1-3.76h3.182l.17 1.64h.072c.481-.772 1.661-1.904 3.639-1.904 2.41 0 4.219 1.613 4.219 5.084v6.965h-.002z"/></svg>