<svg xmlns="http://www.w3.org/2000/svg" width="37" height="37" viewBox="0 0 37 37"><path fill="#979797" d="M18.295 0C8.191 0 0 8.193 0 18.299s8.191 18.297 18.295 18.297c10.109 0 18.299-8.191 18.299-18.297S28.404 0 18.295 0zm7.443 14.991c.008.154.012.31.012.467 0 4.762-3.625 10.253-10.254 10.253a10.2 10.2 0 0 1-5.523-1.619 7.247 7.247 0 0 0 5.336-1.492 3.608 3.608 0 0 1-3.369-2.502c.221.04.445.064.676.064.334 0 .535-.045.838-.127-1.65-.33-3.002-1.788-3.002-3.533v-.047c1.059.271 1.156.434 1.744.451-.967-.646-1.549-1.749-1.549-3 0-.66.207-1.277.521-1.811a10.256 10.256 0 0 0 7.439 3.766 3.658 3.658 0 0 1-.086-.822 3.609 3.609 0 0 1 6.24-2.465 7.272 7.272 0 0 0 2.291-.875 3.633 3.633 0 0 1-1.586 1.995 7.19 7.19 0 0 0 2.07-.569 7.318 7.318 0 0 1-1.798 1.866z"/></svg>