<svg xmlns="http://www.w3.org/2000/svg" width="37" height="37" viewBox="0 0 37 37"><path fill="#434343" d="M18.099 0C8.104 0 0 8.104 0 18.104 0 28.1 8.104 36.202 18.099 36.202c9.994 0 18.1-8.103 18.1-18.099C36.198 8.104 28.093 0 18.099 0zm2.973 27.237c-.477.091-.645-.2-.645-.452 0-.307.01-1.318.01-2.572 0-.877-.301-1.449-.637-1.739 2.09-.232 4.287-1.026 4.287-4.632 0-1.023-.365-1.862-.968-2.516.097-.238.421-1.193-.094-2.485 0 0-.79-.252-2.58.962a8.93 8.93 0 0 0-4.697 0c-1.793-1.214-2.58-.962-2.58-.962-.512 1.292-.189 2.247-.094 2.485-.602.653-.966 1.492-.966 2.516 0 3.597 2.192 4.402 4.276 4.639-.267.235-.512.649-.594 1.255-.537.24-1.896.655-2.732-.779 0 0-.494-.901-1.44-.968 0 0-.915-.011-.062.57 0 0 .611.289 1.04 1.373 0 0 .552 1.825 3.162 1.258.003.783.015 1.375.015 1.596 0 .25-.174.54-.644.453a9.386 9.386 0 1 1 5.943-.002z"/></svg>