<svg xmlns="http://www.w3.org/2000/svg" width="37" height="37" viewBox="0 0 37 37"><path fill="#FFF" d="M18.295 0C8.19 0 0 8.193 0 18.3c0 10.107 8.19 18.296 18.295 18.296 10.109 0 18.301-8.189 18.301-18.297C36.596 8.192 28.404 0 18.295 0zm7.443 14.99c.008.155.012.31.012.468 0 4.762-3.625 10.253-10.254 10.253-2.037 0-3.93-.597-5.523-1.618a7.248 7.248 0 0 0 5.336-1.491 3.608 3.608 0 0 1-3.37-2.502c.22.039.445.063.676.063.334 0 .535-.045.838-.127-1.65-.33-3.002-1.788-3.002-3.533v-.047c1.06.27 1.156.434 1.744.45-.967-.646-1.55-1.748-1.55-3 0-.66.208-1.276.522-1.81a10.257 10.257 0 0 0 7.44 3.766 3.584 3.584 0 0 1-.087-.82 3.61 3.61 0 0 1 6.242-2.465 7.289 7.289 0 0 0 2.291-.876 3.634 3.634 0 0 1-1.586 1.994c.73-.09 1.424-.28 2.07-.57a7.293 7.293 0 0 1-1.799 1.867v-.002z"/></svg>