<svg xmlns="http://www.w3.org/2000/svg" width="37" height="37" viewBox="0 0 37 37"><path fill="#FFF" d="M18.1 0C8.104 0 0 8.104 0 18.104 0 28.1 8.104 36.202 18.1 36.202c9.994 0 18.1-8.103 18.1-18.1C36.2 8.105 28.094 0 18.1 0zm2.972 27.236c-.477.091-.646-.199-.646-.451 0-.307.011-1.318.011-2.572 0-.877-.301-1.449-.638-1.74 2.091-.229 4.287-1.024 4.287-4.63 0-1.024-.364-1.863-.97-2.517.1-.238.423-1.193-.09-2.485 0 0-.793-.25-2.58.963a8.909 8.909 0 0 0-4.7 0c-1.792-1.214-2.58-.962-2.58-.962-.51 1.293-.188 2.248-.093 2.486-.602.653-.965 1.492-.965 2.516 0 3.598 2.19 4.402 4.274 4.641-.268.233-.512.647-.594 1.254-.537.24-1.896.654-2.732-.78 0 0-.494-.899-1.44-.967 0 0-.915-.013-.062.569 0 0 .61.289 1.04 1.373 0 0 .552 1.824 3.163 1.258 0 .783.013 1.375.013 1.596 0 .25-.174.54-.643.453a9.389 9.389 0 0 1-6.417-8.906c0-5.184 4.2-9.386 9.385-9.386 5.18 0 9.385 4.2 9.385 9.385.002 4.145-2.688 7.66-6.41 8.902h.002z"/></svg>