<svg xmlns="http://www.w3.org/2000/svg" width="96.7" height="16.3" viewBox="0 0 96.7 16.3"><g fill="#E6E6E6"><path d="M88.8 4.1c0 1-.4 1.2-1.1 1.2-.6 0-1-.2-1-1.2V0h-1.5v4.1c0 2.2 1.6 2.6 2.5 2.6 1 0 2.5-.3 2.5-2.6V0h-1.5v4.1zM94.9 3.2L96.6 0H95l-.9 1.7-.8-1.7h-1.7l1.7 3.2-1.8 3.3h1.7l.9-1.9 1 1.9h1.6z"/></g><path fill="#E6E6E6" d="M54.2.1l3.9 9.8L62 .1h4.3l-6.9 16.1h-2.7L49.9.1h4.3zM81.1 3.7h-7v2.7h5.5V10h-5.5v2.8h7v3.6h-11V.1h11v3.6zM45.8 16.3h4.3L43.3.1h-2.7l-6.9 16.1H38l1.1-2.8h5.6l1.1 2.9zm-5.6-6.2l1.7-4.2 1.7 4.2h-3.4zM9.7 8c1.1-.6 2.3-1.9 2.3-3.6C12 2 9.8.1 7 .1H0v16.1h7.5c2.7 0 5-1.9 5-4.4 0-2.1-1.6-3.2-2.8-3.8zM3.6 3.4h3.1c.9 0 1.6.6 1.6 1.6 0 .9-.7 1.7-1.6 1.7H3.6V3.4zM7 13H3.6V9.7h3.2c.9 0 1.9.7 1.9 1.6 0 .9-.8 1.7-1.7 1.7zM30.5 16.3l-4.2-6.1c2.1-.8 3.2-2.6 3.2-4.8 0-2.9-2-5.2-4.9-5.2h-7.8v16.1h3.7v-5.9h1.8l3.9 5.9h4.3zm-10-12.7h3.8c1 0 1.8.8 1.8 1.8s-.8 1.9-1.8 1.9h-3.8V3.6z"/></svg>