<svg xmlns="http://www.w3.org/2000/svg" width="370" height="202" viewBox="0 0 370 202">
  <g fill="none" fill-rule="evenodd" transform="translate(2 1)">
    <rect width="370" height="202"/>
    <path fill="#F7F7F7" d="M0.21875,131.171875 C0.21875,129.921869 0.687495313,128.671881 1.625,127.421875 C2.4843793,126.249994 3.49999414,125.664062 4.671875,125.664062 C5.29687812,125.664062 6.15624453,126.132808 7.25,127.070312 C8.42188086,128.085943 9.55468203,129.179682 10.6484375,130.351562 C11.8203184,131.445318 13.6562375,132.499995 16.15625,133.515625 C18.6562625,134.531255 21.4687344,135.117187 24.59375,135.273438 L24.59375,103.398438 C23.4999945,103.007811 21.3125164,102.187506 18.03125,100.9375 C16.5468676,100.390622 14.6328242,99.4531316 12.2890625,98.125 C9.94530078,96.718743 8.14844375,95.3515691 6.8984375,94.0234375 C5.80468203,92.5390551 4.78906719,90.6250117 3.8515625,88.28125 C2.83593242,85.9374883 2.328125,83.2812648 2.328125,80.3125 C2.328125,76.718732 2.99218086,73.5547012 4.3203125,70.8203125 C5.57031875,68.0077984 7.28905156,65.8203203 9.4765625,64.2578125 C11.6640734,62.6171793 14.0078,61.4062539 16.5078125,60.625 C19.007825,59.7656207 21.7031105,59.2187512 24.59375,58.984375 L24.59375,55.3515625 C24.59375,54.7265594 24.8671848,54.1406277 25.4140625,53.59375 C26.0390656,53.1249977 26.7812457,52.890625 27.640625,52.890625 C28.5000043,52.890625 29.2421844,53.1249977 29.8671875,53.59375 C30.4921906,54.1406277 30.8046875,54.7265594 30.8046875,55.3515625 L30.8046875,58.75 C35.5703363,58.9843762 39.9452926,59.8046805 43.9296875,61.2109375 C47.835957,62.6171945 49.7890625,64.4140516 49.7890625,66.6015625 C49.7890625,67.7734434 49.3984414,68.9843688 48.6171875,70.234375 C47.7578082,71.4843812 46.7031312,72.109375 45.453125,72.109375 C45.062498,72.109375 43.3828273,71.4453191 40.4140625,70.1171875 C37.4452977,68.7109305 34.2422047,67.9296883 30.8046875,67.7734375 L30.8046875,95.078125 C33.9297031,96.1718805 36.5078023,97.2656195 38.5390625,98.359375 C40.5703227,99.4531305 42.7187387,100.976553 44.984375,102.929688 C47.2500113,104.726571 48.9687441,107.10936 50.140625,110.078125 C51.3125059,112.968764 51.8984375,116.367168 51.8984375,120.273438 C51.8984375,127.304723 50.0234562,132.851542 46.2734375,136.914062 C42.4452934,141.054708 37.2890949,143.554683 30.8046875,144.414062 L30.8046875,148.75 C30.8046875,149.375003 30.4921906,149.960935 29.8671875,150.507812 C29.2421844,150.976565 28.5000043,151.210938 27.640625,151.210938 C26.7812457,151.210938 26.0390656,150.976565 25.4140625,150.507812 C24.8671848,149.960935 24.59375,149.375003 24.59375,148.75 L24.59375,144.765625 C17.7187156,144.6875 11.9375234,143.125015 7.25,140.078125 C2.56247656,137.031235 0.21875,134.062514 0.21875,131.171875 Z M11.9375,79.375 C11.9375,83.1250187 13.0312391,85.9374906 15.21875,87.8125 C17.3281355,89.6875094 20.6093527,91.4453043 25.0625,93.0859375 L25.0625,67.890625 C16.3124563,68.7500043 11.9375,72.578091 11.9375,79.375 Z M30.3359375,135.039062 C38.3047273,133.789056 42.2890625,129.179727 42.2890625,121.210938 C42.2890625,117.070292 41.2734477,113.828137 39.2421875,111.484375 C37.132802,109.218739 34.1640816,107.265633 30.3359375,105.625 L30.3359375,135.039062 Z M58.7578125,75.9765625 C58.7578125,74.3359293 59.4999926,72.9296934 60.984375,71.7578125 C63.4062621,68.867173 67.0781004,64.5312789 72,58.75 C73.0156301,57.6562445 74.0312449,57.109375 75.046875,57.109375 C76.2187559,57.109375 77.2734328,57.460934 78.2109375,58.1640625 C79.0703168,58.7890656 79.5,59.648432 79.5,60.7421875 L79.5,141.367188 C79.5,142.539068 79.0312547,143.437497 78.09375,144.0625 C77.0781199,144.687503 75.8671945,145 74.4609375,145 C73.1328059,145 71.9609426,144.687503 70.9453125,144.0625 C69.9296824,143.437497 69.421875,142.539068 69.421875,141.367188 L69.421875,72.2265625 C68.7187465,73.3984434 67.2343863,75.6249836 64.96875,78.90625 C64.1874961,79.7656293 63.3671918,80.1953125 62.5078125,80.1953125 C61.4921824,80.1953125 60.5937539,79.7656293 59.8125,78.90625 C59.1093715,78.1249961 58.7578125,77.1484434 58.7578125,75.9765625 Z M91.6328125,125.3125 C91.6328125,123.515616 91.9453094,122.265629 92.5703125,121.5625 C93.273441,120.937497 94.5234285,120.625 96.3203125,120.625 C98.1953219,120.625 99.5234336,120.937497 100.304688,121.5625 C101.085941,122.265629 101.476562,123.281243 101.476562,124.609375 C101.476562,127.656265 102.765612,130.429675 105.34375,132.929688 C107.921888,135.351575 111.867161,136.5625 117.179688,136.5625 C127.882866,136.5625 133.234375,131.054743 133.234375,120.039062 L133.234375,117.8125 C133.234375,108.046826 127.882866,103.164062 117.179688,103.164062 C114.835926,103.164062 113.664062,101.757827 113.664062,98.9453125 C113.664062,96.1327984 114.835926,94.7265625 117.179688,94.7265625 C121.789086,94.7265625 125.265613,93.6718855 127.609375,91.5625 C129.953137,89.5312398 131.125,85.7812773 131.125,80.3125 C131.125,70.9374531 126.632857,66.25 117.648438,66.25 C112.492162,66.25 108.859386,67.3828012 106.75,69.6484375 C104.640614,71.9921992 103.585938,74.7265469 103.585938,77.8515625 C103.585938,80.742202 101.984391,82.1875 98.78125,82.1875 C96.5937391,82.1875 95.1875031,81.835941 94.5625,81.1328125 C93.8593715,80.429684 93.5078125,79.0625102 93.5078125,77.03125 C93.5078125,75.0781152 93.8984336,73.0468855 94.6796875,70.9375 C95.382816,68.8281145 96.5937414,66.7187605 98.3125,64.609375 C99.9531332,62.4218641 102.49217,60.6640691 105.929688,59.3359375 C109.367205,57.9296805 113.35154,57.2265625 117.882812,57.2265625 C133.117264,57.2265625 140.734375,64.3358664 140.734375,78.5546875 C140.734375,83.5547125 139.875009,87.8124824 138.15625,91.328125 C136.359366,94.8437676 134.015639,97.3046805 131.125,98.7109375 C139.250041,101.992204 143.3125,108.359328 143.3125,117.8125 L143.3125,120.039062 C143.3125,128.867232 140.929711,135.351542 136.164062,139.492188 C131.320288,143.632833 124.992227,145.703125 117.179688,145.703125 C108.898396,145.703125 102.570334,143.593771 98.1953125,139.375 C93.8202906,135.234354 91.6328125,130.546901 91.6328125,125.3125 Z M153.570312,139.492188 C153.570312,137.695304 154.156244,136.171881 155.328125,134.921875 C156.578131,133.749994 158.062491,133.164062 159.78125,133.164062 C161.500009,133.164062 162.945307,133.749994 164.117188,134.921875 C165.289068,136.171881 165.875,137.695304 165.875,139.492188 C165.875,141.132821 165.289068,142.578119 164.117188,143.828125 C162.945307,145.078131 161.500009,145.703125 159.78125,145.703125 C158.062491,145.703125 156.578131,145.078131 155.328125,143.828125 C154.156244,142.578119 153.570312,141.132821 153.570312,139.492188 Z M171.796875,120.859375 C171.796875,119.999996 171.992186,119.257816 172.382812,118.632812 C179.023471,105.585872 188.906184,86.0938797 202.03125,60.15625 C203.04688,58.2031152 204.570302,57.2265625 206.601562,57.2265625 C207.695318,57.2265625 208.789057,57.6171836 209.882812,58.3984375 C210.976568,59.1796914 211.523438,60.117182 211.523438,61.2109375 C211.523438,61.7578152 211.367189,62.3437469 211.054688,62.96875 C205.195283,74.5313078 196.445371,91.9530086 184.804688,115.234375 L205.546875,115.234375 L205.546875,95.078125 C205.546875,93.9843695 206.054682,93.1250031 207.070312,92.5 C208.007817,91.8749969 209.17968,91.5625 210.585938,91.5625 C211.914069,91.5625 213.085932,91.8749969 214.101562,92.5 C215.117193,93.1250031 215.625,93.9843695 215.625,95.078125 L215.625,115.234375 L221.953125,115.234375 C223.04688,115.234375 223.945309,115.70312 224.648438,116.640625 C225.273441,117.656255 225.585938,118.789056 225.585938,120.039062 C225.585938,121.210943 225.234379,122.304682 224.53125,123.320312 C223.749996,124.335943 222.89063,124.84375 221.953125,124.84375 L215.625,124.84375 L215.625,141.367188 C215.625,142.539068 215.117193,143.437497 214.101562,144.0625 C213.085932,144.687503 211.914069,145 210.585938,145 C209.17968,145 208.007817,144.687503 207.070312,144.0625 C206.054682,143.437497 205.546875,142.539068 205.546875,141.367188 L205.546875,124.84375 L175.546875,124.84375 C174.45312,124.84375 173.554691,124.492191 172.851562,123.789062 C172.148434,123.085934 171.796875,122.109381 171.796875,120.859375 Z M233.96875,119.570312 L233.96875,83.4765625 C233.96875,74.4140172 236.312477,67.7734586 241,63.5546875 C245.687523,59.3359164 251.937461,57.2265625 259.75,57.2265625 C267.640664,57.2265625 273.929664,59.3359164 278.617188,63.5546875 C283.382836,67.7734586 285.765625,74.4140172 285.765625,83.4765625 L285.765625,119.570312 C285.765625,128.632858 283.382836,135.234354 278.617188,139.375 C273.929664,143.593771 267.640664,145.703125 259.75,145.703125 C251.937461,145.703125 245.687523,143.593771 241,139.375 C236.312477,135.234354 233.96875,128.632858 233.96875,119.570312 Z M244.046875,119.570312 C244.046875,130.898494 249.281198,136.5625 259.75,136.5625 C264.82815,136.5625 268.734361,135.156264 271.46875,132.34375 C274.281264,129.531236 275.6875,125.273466 275.6875,119.570312 L275.6875,83.4765625 C275.6875,77.773409 274.281264,73.5156391 271.46875,70.703125 C268.734361,67.8124855 264.82815,66.3671875 259.75,66.3671875 C249.281198,66.3671875 244.046875,72.0702555 244.046875,83.4765625 L244.046875,119.570312 Z"/>
    <path fill="#BBB" d="M2.014,14 L2.014,4.614 L5.121,4.614 C7.604,4.614 9.32,5.992 9.333,9.307 C9.32,12.622 7.604,14 5.121,14 L2.014,14 Z M3.808,6.122 L3.808,12.492 L5.004,12.492 C7.058,12.492 7.539,10.984 7.539,9.307 C7.539,7.63 7.058,6.122 5.004,6.122 L3.808,6.122 Z M18.145,9.307 C18.145,7.11 17.469,5.992 16,5.992 C14.531,5.992 13.855,7.11 13.855,9.307 C13.829,11.504 14.518,12.622 16,12.622 C17.469,12.622 18.145,11.504 18.145,9.307 Z M19.939,9.307 C19.939,12.375 18.561,14.13 16,14.13 C13.439,14.13 12.061,12.375 12.061,9.307 C12.061,6.239 13.439,4.484 16,4.484 C18.561,4.484 19.939,6.239 19.939,9.307 Z M29.427,6.603 L27.789,7.11 C27.516,6.382 26.957,5.888 26.112,5.888 C25.332,5.888 24.773,6.2 24.773,6.928 C24.773,8.54 29.609,8.202 29.609,11.244 C29.609,13.168 28.4,14.13 26.32,14.13 C24.786,14.13 23.343,13.272 22.81,11.907 L24.292,11.257 C24.721,12.141 25.28,12.726 26.333,12.726 C27.23,12.726 27.919,12.388 27.919,11.478 C27.919,9.632 23.083,9.996 23.083,7.11 C23.083,5.433 24.487,4.484 26.112,4.484 C27.62,4.484 28.868,5.238 29.427,6.603 Z M35.34,14 L33.546,14 L33.546,4.614 L35.34,4.614 L35.34,14 Z M45.699,6.603 L44.061,7.11 C43.788,6.382 43.229,5.888 42.384,5.888 C41.604,5.888 41.045,6.2 41.045,6.928 C41.045,8.54 45.881,8.202 45.881,11.244 C45.881,13.168 44.672,14.13 42.592,14.13 C41.058,14.13 39.615,13.272 39.082,11.907 L40.564,11.257 C40.993,12.141 41.552,12.726 42.605,12.726 C43.502,12.726 44.191,12.388 44.191,11.478 C44.191,9.632 39.355,9.996 39.355,7.11 C39.355,5.433 40.759,4.484 42.384,4.484 C43.892,4.484 45.14,5.238 45.699,6.603 Z M57.135,14 L55.575,14 L55.575,4.614 L58.097,4.614 L59.904,11.166 L59.93,11.166 L61.75,4.614 L64.298,4.614 L64.298,14 L62.738,14 L62.738,6.616 L62.712,6.616 L60.606,14 L59.241,14 L57.161,6.616 L57.135,6.616 L57.135,14 Z M73.825,9.307 C73.825,7.11 73.149,5.992 71.68,5.992 C70.211,5.992 69.535,7.11 69.535,9.307 C69.509,11.504 70.198,12.622 71.68,12.622 C73.149,12.622 73.825,11.504 73.825,9.307 Z M75.619,9.307 C75.619,12.375 74.241,14.13 71.68,14.13 C69.119,14.13 67.741,12.375 67.741,9.307 C67.741,6.239 69.119,4.484 71.68,4.484 C74.241,4.484 75.619,6.239 75.619,9.307 Z M79.036,14 L79.036,4.614 L82.143,4.614 C84.626,4.614 86.342,5.992 86.355,9.307 C86.342,12.622 84.626,14 82.143,14 L79.036,14 Z M80.83,6.122 L80.83,12.492 L82.026,12.492 C84.08,12.492 84.561,10.984 84.561,9.307 C84.561,7.63 84.08,6.122 82.026,6.122 L80.83,6.122 Z M91.748,14 L89.954,14 L89.954,4.614 L91.748,4.614 L91.748,14 Z M97.83,14 L96.036,14 L96.036,4.614 L102.016,4.614 L102.016,6.122 L97.83,6.122 L97.83,8.358 L100.963,8.358 L100.963,9.866 L97.83,9.866 L97.83,14 Z M107.305,14 L105.511,14 L105.511,4.614 L107.305,4.614 L107.305,14 Z M118.028,14 L111.671,14 L111.671,4.614 L117.885,4.614 L117.885,6.122 L113.465,6.122 L113.465,8.358 L116.676,8.358 L116.676,9.866 L113.465,9.866 L113.465,12.492 L118.028,12.492 L118.028,14 Z M121.536,14 L121.536,4.614 L124.643,4.614 C127.126,4.614 128.842,5.992 128.855,9.307 C128.842,12.622 127.126,14 124.643,14 L121.536,14 Z M123.33,6.122 L123.33,12.492 L124.526,12.492 C126.58,12.492 127.061,10.984 127.061,9.307 C127.061,7.63 126.58,6.122 124.526,6.122 L123.33,6.122 Z"/>
    <path stroke="#666" stroke-dasharray="8 8 8 8" stroke-linecap="square" stroke-width="2" d="M293,0 L293,201.002488"/>
  </g>
</svg>
