<svg xmlns="http://www.w3.org/2000/svg" width="370" height="202" viewBox="0 0 370 202">
  <g fill="none" fill-rule="evenodd" transform="translate(0 1)">
    <path fill="#F7F7F7" d="M56.28,117.56 C56.28,128.84 48.36,136.28 32.88,138.32 L32.88,148.28 C32.88,150.56 30.96,152.6 28.56,152.6 C26.04,152.6 24.12,150.56 24.12,148.28 L24.12,138.44 C18.96,137.96 13.56,136.28 8.64,134.12 C4.44,132.32 0,129.56 0,125.72 C0,122.96 1.8,121.4 3.96,121.4 C7.08,121.4 9.24,123.56 11.88,124.88 C16.92,127.52 21.84,128.96 28.8,128.96 C39.84,128.96 45.6,124.64 45.6,118.28 C45.6,111.56 40.08,108.56 26.28,103.88 C6.72,97.28 0.96,91.28 0.96,80.24 C0.96,68.6 10.32,62.48 24.6,61.16 L24.6,51.32 C24.6,49.04 26.4,47 28.92,47 C31.44,47 33.36,49.04 33.36,51.32 L33.36,61.28 C37.56,61.52 41.76,62.72 45.6,64.04 C50.04,65.72 54.12,67.64 54.12,71.12 C54.12,73.52 52.8,75.44 49.8,75.44 C48.72,75.44 47.64,75.08 46.8,74.72 C40.8,72.08 35.76,70.28 28.92,70.28 C18.72,70.28 11.76,73.4 11.76,80.24 C11.76,87.2 16.32,89.36 30.48,94.4 C46.44,100.04 56.28,104.72 56.28,117.56 Z M101.8,135.08 C101.8,138.2 99.52,140.72 96.16,140.72 C92.8,140.72 90.52,138.2 90.52,135.08 L90.52,71.12 L76.36,75.44 C75.88,75.56 75.4,75.68 74.92,75.68 C72.16,75.68 69.28,73.76 69.28,70.52 C69.28,67.76 70.84,66.32 73.36,65.6 L93.64,59.36 C94.72,59 95.32,58.88 96.28,58.88 C99.52,58.88 101.8,60.92 101.8,64.64 L101.8,135.08 Z M183.44,116.84 C183.44,131.36 170.48,141.2 152,141.2 C139.76,141.2 129.92,137.6 122.24,130.88 C121.16,130.04 120.2,128.48 120.2,126.8 C120.2,123.68 122.72,121.88 125.36,121.88 C126.56,121.88 127.64,122.36 128.6,123.08 C134.96,128 140.84,131.6 152,131.6 C163.64,131.6 172.16,126.08 172.16,116.36 C172.16,106.16 163.04,102.08 150.92,102.08 L144.2,102.08 C141.32,102.08 139.04,99.92 139.04,97.04 C139.04,94.16 141.32,92.12 144.2,92.12 L149.36,92.12 C160.88,92.12 166.76,86.84 166.76,79.4 C166.76,71.12 160.52,68 151.76,68 C146.12,68 141.68,69.2 137.36,71.48 C135.68,72.32 134.12,73.16 132.08,73.16 C129.08,73.16 127.52,71.12 127.52,68.72 C127.52,64.88 132.08,62.72 135.08,61.52 C140.48,59.24 147.08,58.4 152.72,58.4 C168.08,58.4 178.04,65.84 178.04,78.56 C178.04,85.52 174.44,92.24 165.92,95.84 C176.48,98.72 183.44,105.32 183.44,116.84 Z M198.24,133.52 C198.24,129.56 201.48,126.32 205.44,126.32 C209.4,126.32 212.64,129.56 212.64,133.52 C212.64,137.48 209.4,140.72 205.44,140.72 C201.48,140.72 198.24,137.48 198.24,133.52 Z M291.04,113.96 C291.04,116.6 289,118.64 286.24,118.64 L275.2,118.64 L275.2,135.2 C275.2,138.32 272.8,140.72 269.68,140.72 C266.44,140.72 264.04,138.32 264.04,135.2 L264.04,118.64 L223.96,118.64 C221.2,118.64 219.04,116.72 219.04,113.96 C219.04,112.4 219.64,111.44 220.6,110.24 L264.88,61.28 C266.44,59.48 268,58.88 269.8,58.88 C273.04,58.88 275.2,61.04 275.2,64.4 L275.2,109.28 L286.24,109.28 C289,109.28 291.04,111.32 291.04,113.96 Z M264.04,109.28 L264.04,75.8 L233.92,109.28 L264.04,109.28 Z M369.8,99.8 C369.8,121.4 357.56,141.2 335.6,141.2 C313.64,141.2 301.4,121.4 301.4,99.8 C301.4,78.2 313.64,58.4 335.6,58.4 C357.56,58.4 369.8,78.2 369.8,99.8 Z M358.52,99.8 C358.52,82.16 349.52,68.48 335.6,68.48 C321.68,68.48 312.68,82.16 312.68,99.8 C312.68,117.44 321.68,131.12 335.6,131.12 C349.52,131.12 358.52,117.44 358.52,99.8 Z"/>
    <path fill="#BBB" d="M4,14.399 L4,5.013 L7.484,5.013 C9.356,5.013 10.565,5.637 10.669,7.314 C10.669,8.289 10.266,9.043 9.239,9.446 C10.461,9.94 10.877,10.499 10.877,11.929 C10.877,13.385 9.85,14.399 7.458,14.399 L4,14.399 Z M5.794,10.213 L5.794,12.943 L7.588,12.943 C8.628,12.943 9.083,12.475 9.083,11.578 C9.083,10.681 8.628,10.213 7.588,10.213 L5.794,10.213 Z M5.794,6.469 L5.794,8.757 L7.588,8.757 C8.446,8.757 8.875,8.263 8.875,7.613 C8.875,6.963 8.446,6.469 7.588,6.469 L5.794,6.469 Z M16.465,14.399 L14.671,14.399 L14.671,5.013 L18.415,5.013 C20.547,5.013 21.405,6.248 21.418,7.795 C21.431,8.952 20.846,9.888 19.702,10.213 L21.769,14.399 L19.78,14.399 L18.012,10.577 L16.465,10.577 L16.465,14.399 Z M16.465,6.469 L16.465,9.121 L17.791,9.121 C19.195,9.121 19.624,8.679 19.624,7.795 C19.624,6.911 19.091,6.469 18.103,6.469 L16.465,6.469 Z M26.096,5.013 L27.708,8.731 L29.32,5.013 L31.192,5.013 L28.605,10.655 L28.605,14.399 L26.811,14.399 L26.811,10.655 L24.224,5.013 L26.096,5.013 Z M36.611,6.807 L35.506,10.889 L37.69,10.889 L36.637,6.807 L36.611,6.807 Z M32.776,14.399 L35.48,5 L37.716,5 L40.381,14.399 L38.6,14.399 L38.08,12.371 L35.116,12.371 L34.557,14.399 L32.776,14.399 Z M45.293,14.399 L43.603,14.399 L43.603,5.013 L45.475,5.013 L49.167,11.409 L49.193,11.409 L49.193,5.013 L50.883,5.013 L50.883,14.399 L49.154,14.399 L45.319,7.717 L45.293,7.717 L45.293,14.399 Z M54.196,5 L60.904,5 L60.904,6.508 L58.447,6.508 L58.447,14.399 L56.653,14.399 L56.653,6.508 L54.196,6.508 L54.196,5 Z"/>
    <path stroke="#666" stroke-dasharray="8 8 8 8" stroke-linecap="square" stroke-width="2" d="M295,0 L295,206"/>
  </g>
</svg>
