<svg id="Layer_1" xmlns="http://www.w3.org/2000/svg" viewBox="0 0 1440 440" enable-background="new 0 0 1440 440"><style>.st1{fill:#fff}</style><defs><filter id="Adobe_OpacityMaskFilter" filterUnits="userSpaceOnUse" x="1301" y="55" width="172" height="172"><feColorMatrix values="1 0 0 0 0 0 1 0 0 0 0 0 1 0 0 0 0 0 1 0"/></filter></defs><mask maskUnits="userSpaceOnUse" x="1301" y="55" width="172" height="172" id="road-b"><g filter="url(#Adobe_OpacityMaskFilter)"><path id="road-a" class="st1" d="M0 0h1440v440H0z"/></g></mask><g mask="url(#road-b)"><path class="st1" d="M4 0h164c2.2 0 4 1.8 4 4v164c0 2.2-1.8 4-4 4H4c-2.2 0-4-1.8-4-4V4c0-2.2 1.8-4 4-4z" transform="translate(1301 55)"/><g transform="translate(1352.423 106.423)"><path id="road-c" d="M70.9 67.3c.4 1.6-.5 3.2-2.1 3.6-.2.1-.5.1-.8.1-1.3 0-2.5-.9-2.9-2.2L47.4 3.7C47 2.1 47.9.5 49.5.1c1.6-.4 3.2.5 3.6 2.1l17.8 65.1zM35.5 0c1.6 0 3 1.3 3 3v5.9c0 1.6-1.3 3-3 3-1.6 0-3-1.3-3-3V3c0-1.7 1.4-3 3-3zm0 53.3c1.6 0 3 1.3 3 3V68c0 1.6-1.3 3-3 3-1.6 0-3-1.3-3-3V56.2c0-1.6 1.4-2.9 3-2.9zm0-26.7c1.6 0 3 1.3 3 3v8.9c0 1.6-1.3 3-3 3-1.6 0-3-1.3-3-3v-8.9c0-1.6 1.4-3 3-3zM21.5.1c1.6.4 2.5 2.1 2.1 3.6L5.8 68.8C5.5 70.1 4.3 71 3 71c-.3 0-.5 0-.8-.1-1.6-.4-2.5-2.1-2.1-3.6L17.9 2.2c.4-1.6 2-2.5 3.6-2.1z" fill="#fd9724"/></g></g></svg>