<svg id="Layer_1" xmlns="http://www.w3.org/2000/svg" viewBox="0 0 1440 440" enable-background="new 0 0 1440 440"><style>.st1{fill:#fff}</style><defs><filter id="Adobe_OpacityMaskFilter" filterUnits="userSpaceOnUse" x="1124" y="-42" width="97" height="97"><feColorMatrix values="1 0 0 0 0 0 1 0 0 0 0 0 1 0 0 0 0 0 1 0"/></filter></defs><mask maskUnits="userSpaceOnUse" x="1124" y="-42" width="97" height="97" id="stack-b"><g filter="url(#Adobe_OpacityMaskFilter)"><path id="stack-a" class="st1" d="M0 0h1440v440H0z"/></g></mask><g mask="url(#stack-b)"><path class="st1" d="M4 0h89c2.2 0 4 1.8 4 4v89c0 2.2-1.8 4-4 4H4c-2.2 0-4-1.8-4-4V4c0-2.2 1.8-4 4-4z" transform="translate(1124 -42)"/><g transform="translate(1124 -42)"><path id="stack-c" d="M68 46.2c.8-.5 1.1-1.6.6-2.4-.5-.8-1.6-1.1-2.4-.6l-4.3 2.6v-4.6-.1l6.1-3.7c.5-.3.8-.9.8-1.4 0-.6-.3-1.2-.8-1.5l-10.4-6.9c-.6-.4-1.3-.4-1.9 0l-26 15.6c-.4.3-.7.8-.7 1.4 0 .6.3 1.2.8 1.5L40.2 53c.3.2.6.3 1 .3.3 0 .6-.1.9-.2l7.8-4.7V53l-8.6 5.2-9.5-6.3c-.8-.5-1.9-.3-2.4.5s-.3 1.9.5 2.4l10.4 6.9c.3.2.6.3 1 .3.3 0 .6-.1.9-.2l7.8-4.7v4.6l-8.6 5.2-9.5-6.3c-.8-.5-1.9-.3-2.4.5s-.3 1.9.5 2.4l10.4 6.9c.3.2.6.3 1 .3.3 0 .6-.1.9-.2l26-15.6c.8-.5 1.1-1.6.6-2.4-.5-.8-1.6-1.1-2.4-.6l-4.3 2.6v-4.6l5.8-3.7zM53.3 59.6V46.4v-.1l5.2-3.1v13.3l-5.2 3.1zM41.2 49.5L34 44.7l6.3-3.8 7.2 4.8-6.3 3.8zm15.5-18.4l7.2 4.8-4.5 2.7-7.2-4.8 4.5-2.7zm-5.9 12.7L43.5 39l5.4-3.2 7.2 4.8-5.3 3.2z" fill="#5aae46"/></g></g></svg>