<svg id="Layer_1" xmlns="http://www.w3.org/2000/svg" viewBox="0 0 1440 440" enable-background="new 0 0 1440 440"><style>.st1{fill:#fff}</style><defs><filter id="Adobe_OpacityMaskFilter" filterUnits="userSpaceOnUse" x="221" y="-13" width="97" height="97"><feColorMatrix values="1 0 0 0 0 0 1 0 0 0 0 0 1 0 0 0 0 0 1 0"/></filter></defs><mask maskUnits="userSpaceOnUse" x="221" y="-13" width="97" height="97" id="tag-b"><g filter="url(#Adobe_OpacityMaskFilter)"><path id="tag-a" class="st1" d="M0 0h1440v440H0z"/></g></mask><g mask="url(#tag-b)"><path class="st1" d="M4 0h89c2.2 0 4 1.8 4 4v89c0 2.2-1.8 4-4 4H4c-2.2 0-4-1.8-4-4V4c0-2.2 1.8-4 4-4z" transform="translate(221 -13)"/><g transform="translate(250 16)"><path id="tag-c" d="M36.7 14.6L17.4 34.3 9 26 28.3 6.7h8.4v7.9zm2.8-10.8c-.3-.3-.7-.5-1.2-.5H27.6c-.4 0-.9.2-1.2.5l-21 21c-.2.3-.4.7-.4 1.2 0 .4.2.9.5 1.2l10.7 10.7c.3.3.7.5 1.2.5.4 0 .9-.2 1.2-.5l21-21.4c.3-.3.5-.7.5-1.2V5c-.1-.4-.3-.9-.6-1.2zm-8.9 11.5c1.4 0 2.6-1.1 2.6-2.6 0-1.4-1.1-2.6-2.6-2.6-1.4 0-2.6 1.1-2.6 2.6.1 1.4 1.2 2.6 2.6 2.6m7.7 15.5h-2.5v-2.5c0-.9-.7-1.7-1.7-1.7-.9 0-1.7.7-1.7 1.7v2.5H30c-.9 0-1.7.7-1.7 1.7 0 .9.7 1.7 1.7 1.7h2.5v2.5c0 .9.7 1.7 1.7 1.7.9 0 1.7-.7 1.7-1.7v-2.5h2.5c.9 0 1.7-.7 1.7-1.7-.1-.9-.8-1.7-1.8-1.7M1.7 5H20c.9 0 1.7-.7 1.7-1.7s-.8-1.6-1.7-1.6H1.7c-1 0-1.7.7-1.7 1.6S.7 5 1.7 5m11.6 5c0-.9-.7-1.7-1.7-1.7h-10C.7 8.3 0 9.1 0 10s.7 1.7 1.7 1.7h10c.9 0 1.6-.8 1.6-1.7" fill="#5aae46"/></g></g></svg>