<svg xmlns="http://www.w3.org/2000/svg" xmlns:xlink="http://www.w3.org/1999/xlink" width="572" height="457" viewBox="0 0 572 457">
  <defs>
    <linearGradient id="number-gauge-c" x1="99.985%" x2="0%" y1="50%" y2="50%">
      <stop offset="0%" stop-color="#FD9724"/>
      <stop offset="100%" stop-color="#FD9724" stop-opacity=".184"/>
    </linearGradient>
    <path id="number-gauge-b" d="M471.656934,238 C469.392123,237.911083 467.576509,236.095469 467.487591,233.830657 C465.055474,109.271533 363.080292,8.51240876 238,8.51240876 C112.919708,8.51240876 10.7708029,109.271533 8.51240876,233.830657 C8.4234913,236.095469 6.60787739,237.911083 4.34306569,238 C3.19121306,238 2.0865373,237.542428 1.27205449,236.727946 C0.457571679,235.913463 -8.04334398e-15,234.808787 0,233.656934 C2.25839416,104.407299 108.229197,0 238,0 C367.770803,0 473.567883,104.407299 476,233.656934 C476,236.055543 474.055543,238 471.656934,238 Z"/>
    <filter id="number-gauge-a" width="131.9%" height="163.9%" x="-16%" y="-31.1%" filterUnits="objectBoundingBox">
      <feOffset dy="2" in="SourceAlpha" result="shadowOffsetOuter1"/>
      <feGaussianBlur in="shadowOffsetOuter1" result="shadowBlurOuter1" stdDeviation="25"/>
      <feColorMatrix in="shadowBlurOuter1" values="0 0 0 0 0   0 0 0 0 0   0 0 0 0 0  0 0 0 0.8 0"/>
    </filter>
    <path id="number-gauge-e" d="M50.7143396,188.942898 L35.0982603,184.95814 C34.2926272,184.707994 33.8316491,183.864142 34.0571883,183.052387 L34.0571883,182.705886 C34.3077122,181.901468 35.1528388,181.441185 35.9658203,181.666384 L51.5818996,185.997642 C52.3875327,186.247788 52.8485108,187.09164 52.6229716,187.903396 C52.3724477,188.707814 51.5273211,189.168097 50.7143396,188.942898 Z M422.377028,187.730146 C422.151489,186.91839 422.612467,186.074538 423.4181,185.824392 L439.03418,181.493134 C439.847161,181.267935 440.692288,181.728218 440.942812,182.532636 L440.942812,182.879136 C441.168351,183.690892 440.707373,184.534744 439.90174,184.78489 L424.28566,188.769648 C423.53027,188.894763 422.795456,188.45454 422.55054,187.730146 L422.377028,187.730146 Z M69.6271469,142.338559 L55.5726754,134.369044 C54.8741544,133.923747 54.6456654,133.011169 55.0521395,132.29004 L55.0521395,131.943539 C55.498109,131.246071 56.4120651,131.017927 57.1342834,131.423788 L71.0152428,139.566554 C71.7137638,140.011851 71.9422529,140.924428 71.5357788,141.645558 C71.1574227,142.3145 70.3474625,142.608587 69.6271469,142.338559 Z M403.290709,141.645558 C402.884235,140.924428 403.112724,140.011851 403.811245,139.566554 L417.692205,131.423788 C418.414423,131.017927 419.328379,131.246071 419.774349,131.943539 L419.947861,131.943539 C420.354335,132.664668 420.125846,133.577246 419.427325,134.022543 L405.372853,141.992058 C404.693863,142.433326 403.789668,142.282854 403.290709,141.645558 Z M139.725992,71.1326729 L131.570928,57.2726464 C131.164454,56.5515172 131.392943,55.6389395 132.091464,55.1936425 L132.438488,55.1936425 C133.160707,54.7877814 134.074663,55.0159258 134.520632,55.7133934 L142.502184,69.7466703 C142.908658,70.4677994 142.680169,71.3803772 141.981648,71.8256742 C141.597519,72.065141 141.128199,72.1263176 140.695375,71.9933419 C140.262552,71.8603662 139.908854,71.5463352 139.725992,71.1326729 Z M333.191864,71.6524239 C332.493343,71.2071269 332.264854,70.2945491 332.671328,69.5734199 L340.65288,55.5401431 C341.098849,54.8426755 342.012805,54.614531 342.735024,55.0203921 L343.082048,55.0203921 C343.780569,55.4656891 344.009058,56.3782669 343.602584,57.0993961 L335.44752,70.9594226 C335.264658,71.3730849 334.91096,71.6871159 334.478137,71.8200916 C334.045313,71.9530673 333.575993,71.8918906 333.191864,71.6524239 Z M186.053694,51.5553855 L181.715894,35.9628557 C181.490355,35.1511002 181.951333,34.3072481 182.756966,34.0571021 L183.10399,34.0571021 C183.916972,33.8319029 184.762098,34.2921859 185.012622,35.0966041 L189.003398,50.6891339 C189.228937,51.5008893 188.767959,52.3447415 187.962326,52.5948875 C187.149345,52.8200866 186.304218,52.3598037 186.053694,51.5553855 Z M287.037674,52.5948875 C286.232041,52.3447415 285.771063,51.5008893 285.996602,50.6891339 L289.987378,35.0966041 C290.237902,34.2921859 291.083028,33.8319029 291.89601,34.0571021 L292.243034,34.0571021 C293.048667,34.3072481 293.509645,35.1511002 293.284106,35.9628557 L288.946306,51.5553855 C288.695782,52.3598037 287.850655,52.8200866 287.037674,52.5948875 Z"/>
    <filter id="number-gauge-d" width="107.9%" height="120.6%" x="-3.9%" y="-9%" filterUnits="objectBoundingBox">
      <feOffset dy="2" in="SourceAlpha" result="shadowOffsetOuter1"/>
      <feGaussianBlur in="shadowOffsetOuter1" result="shadowBlurOuter1" stdDeviation="5"/>
      <feColorMatrix in="shadowBlurOuter1" values="0 0 0 0 0   0 0 0 0 0   0 0 0 0 0  0 0 0 1 0"/>
    </filter>
    <rect id="number-gauge-g" width="3" height="38" x="235" y="24" rx=".9"/>
    <filter id="number-gauge-f" width="1166.7%" height="184.2%" x="-533.3%" y="-36.8%" filterUnits="objectBoundingBox">
      <feOffset dy="2" in="SourceAlpha" result="shadowOffsetOuter1"/>
      <feGaussianBlur in="shadowOffsetOuter1" result="shadowBlurOuter1" stdDeviation="5"/>
      <feColorMatrix in="shadowBlurOuter1" values="0 0 0 0 0   0 0 0 0 0   0 0 0 0 0  0 0 0 1 0"/>
    </filter>
    <rect id="number-gauge-i" width="3" height="38" x="98" y="83" rx=".9"/>
    <filter id="number-gauge-h" width="1166.7%" height="184.2%" x="-533.3%" y="-36.8%" filterUnits="objectBoundingBox">
      <feOffset dy="2" in="SourceAlpha" result="shadowOffsetOuter1"/>
      <feGaussianBlur in="shadowOffsetOuter1" result="shadowBlurOuter1" stdDeviation="5"/>
      <feColorMatrix in="shadowBlurOuter1" values="0 0 0 0 0   0 0 0 0 0   0 0 0 0 0  0 0 0 1 0"/>
    </filter>
    <rect id="number-gauge-k" width="38" height="3" x="353" y="98" rx=".9"/>
    <filter id="number-gauge-j" width="184.2%" height="1166.7%" x="-42.1%" y="-466.7%" filterUnits="objectBoundingBox">
      <feOffset dy="2" in="SourceAlpha" result="shadowOffsetOuter1"/>
      <feGaussianBlur in="shadowOffsetOuter1" result="shadowBlurOuter1" stdDeviation="5"/>
      <feColorMatrix in="shadowBlurOuter1" values="0 0 0 0 0   0 0 0 0 0   0 0 0 0 0  0 0 0 1 0"/>
    </filter>
    <path id="number-gauge-m" d="M263.771115,230 L407.270166,110.330122 C408.085717,109.707517 408.241278,108.542778 407.617622,107.728603 C406.993965,106.914428 405.827257,106.759129 405.011707,107.381733 L253,214.390885"/>
    <filter id="number-gauge-l" width="120.6%" height="126%" x="-10.3%" y="-11.4%" filterUnits="objectBoundingBox">
      <feOffset dy="2" in="SourceAlpha" result="shadowOffsetOuter1"/>
      <feGaussianBlur in="shadowOffsetOuter1" result="shadowBlurOuter1" stdDeviation="5"/>
      <feColorMatrix in="shadowBlurOuter1" values="0 0 0 0 0   0 0 0 0 0   0 0 0 0 0  0 0 0 1 0"/>
    </filter>
  </defs>
  <g fill="none" fill-rule="evenodd" transform="translate(48 47)">
    <path fill="#FFF" fill-rule="nonzero" d="M461.045455,321.471698 C462.965899,321.471698 464.522727,323.02603 464.522727,324.943396 L464.522727,403.056604 C464.522727,404.97397 462.965899,406.528302 461.045455,406.528302 L15.9545455,406.528302 C14.0341008,406.528302 12.4772727,404.97397 12.4772727,403.056604 L12.4772727,324.943396 C12.4772727,323.02603 14.0341008,321.471698 15.9545455,321.471698 L461.045455,321.471698 Z M461.045455,318 L15.9545455,318 C12.1136561,318 9,321.108664 9,324.943396 L9,403.056604 C9,406.891336 12.1136561,410 15.9545455,410 L461.045455,410 C464.886344,410 468,406.891336 468,403.056604 L468,324.943396 C468,321.108664 464.886344,318 461.045455,318 Z"/>
    <path fill="#000" fill-opacity=".619" d="M461.045455,321.471698 C462.965899,321.471698 464.522727,323.02603 464.522727,324.943396 L464.522727,403.056604 C464.522727,404.97397 462.965899,406.528302 461.045455,406.528302 L15.9545455,406.528302 C14.0341008,406.528302 12.4772727,404.97397 12.4772727,403.056604 L12.4772727,324.943396 C12.4772727,323.02603 14.0341008,321.471698 15.9545455,321.471698 L461.045455,321.471698 Z"/>
    <rect width="3" height="92" x="84" y="318" fill="#F7F7F7" fill-rule="nonzero"/>
    <rect width="3" height="92" x="160" y="318" fill="#F7F7F7" fill-rule="nonzero"/>
    <rect width="3" height="92" x="236" y="318" fill="#F7F7F7" fill-rule="nonzero"/>
    <rect width="3" height="92" x="388" y="318" fill="#F7F7F7" fill-rule="nonzero"/>
    <rect width="3" height="92" x="312" y="318" fill="#F7F7F7" fill-rule="nonzero"/>
    <path fill="#FFF" fill-rule="nonzero" d="M42.0177022 354.723404C42.0436327 353.954526 42.4132143 353.243408 43.0151201 352.804255L47.835973 346.697872C48.1650805 346.27806 48.6483953 346.024436 49.1658634 346 49.6502958 346.024771 50.1152515 346.207763 50.4957539 346.523404 50.8477974 346.816015 51.0353583 347.275329 50.9944628 347.744681L50.9944628 385.255319C50.9987541 385.75844 50.7447028 386.225045 50.3295176 386.476596L48.6671545 387 47.1710277 386.651064C46.7558425 386.399513 46.5017912 385.932908 46.5060825 385.429787L46.5060825 352.978723 44.6774831 356.119149C44.3825101 356.465747 43.9564017 356.657408 43.513829 356.642553 43.0712562 356.657408 42.6451479 356.465747 42.3501749 356.119149 42.0710972 355.716748 41.9518877 355.216298 42.0177022 354.723404zM110.057982 376.942474C109.893725 376.322715 110.084507 375.662531 110.553577 375.227514 111.022646 374.792497 111.692889 374.654162 112.294664 374.868164 112.966131 374.816984 113.63461 375.000151 114.187242 375.386741 114.556502 375.746935 114.745875 376.254296 114.703399 376.769615 114.720894 378.223528 115.345125 379.603276 116.423924 380.572517 117.969028 381.839694 119.941272 382.45891 121.929604 382.301108 126.861776 382.301108 129.327862 379.76584 129.327862 374.695305L129.327862 373.658149C129.327862 369.163811 126.861776 366.916641 121.929604 366.916641 120.897289 366.916641 120.381132 366.282824 120.381132 365.01519 120.381132 363.747556 120.897289 363.113739 121.929604 363.113739 123.651329 363.277284 125.37123 362.783579 126.747074 361.730866 127.961784 360.295594 128.523292 358.415128 128.295547 356.545091 128.295547 352.281231 126.230917 350.149301 122.101657 350.149301 120.29759 349.969386 118.497832 350.53055 117.112134 351.705034 116.19173 352.752514 115.699989 354.111142 115.735714 355.507935 115.735714 356.890809 114.990154 357.582246 113.499032 357.582246 112.813786 357.821346 112.052801 357.645903 111.539868 357.130566 111.026936 356.615229 110.852312 355.850676 111.090297 355.162217 111.100919 354.217156 111.275591 353.281204 111.606454 352.39647 111.995541 351.319123 112.578775 350.322975 113.326979 349.457864 114.230127 348.348032 115.42097 347.510534 116.768029 347.037836 118.518369 346.33468 120.388721 345.982345 122.273709 346.000681 129.270511 346.000681 132.768911 349.285005 132.768911 355.853654 132.817951 357.879288 132.406029 359.889435 131.564544 361.730866 130.893392 363.220178 129.741565 364.438312 128.295547 365.18805 131.951585 366.502453 134.277966 370.114626 133.973279 374.003868L133.973279 375.041023C133.973279 379.074404 132.883613 382.07063 130.704281 384.0297 128.241298 386.064937 125.115434 387.111777 121.929604 386.968306 118.731996 387.20119 115.573935 386.143567 113.154927 384.0297 111.068578 382.289674 109.920883 379.663224 110.057982 376.942474zM186.073968 375.356862C186.085287 374.982925 186.206503 374.620524 186.422584 374.314606L200.018601 347.389674C200.370443 346.548155 201.195509 346 202.110296 346 202.676022 346 203.226487 346.182858 203.679067 346.521128 204.142348 346.828333 204.407656 347.357127 204.376299 347.910802 204.387261 348.209927 204.327555 348.507434 204.201991 348.779348L192.000437 372.924933 201.76168 372.924933 201.76168 363.544633C201.757181 363.043701 202.023568 362.579125 202.458912 362.328669L204.027683 361.98125 205.596455 362.502378C206.031799 362.752834 206.298186 363.21741 206.293686 363.718343L206.293686 373.098642 209.256921 373.098642C209.750814 373.125605 210.20302 373.383121 210.477076 373.793479 210.796717 374.254597 210.978088 374.796841 211 375.356862 211 375.920645 210.816512 376.469219 210.477076 376.920245 210.20302 377.330602 209.750814 377.588119 209.256921 377.615082L206.293686 377.615082 206.293686 385.258289C206.298186 385.759221 206.031799 386.223797 205.596455 386.474253L204.027683 386.995381C203.482631 387.025794 202.939741 386.905566 202.458912 386.647963 202.023568 386.397506 201.757181 385.932931 201.76168 385.431998L201.76168 377.788791 187.817047 377.788791C187.357276 377.782265 186.918717 377.594957 186.596892 377.267664 186.079101 376.777487 185.877588 376.041143 186.073968 375.356862zM263.057982 376.942474C262.893725 376.322715 263.084507 375.662531 263.553577 375.227514 264.022646 374.792497 264.692889 374.654162 265.294664 374.868164 265.966131 374.816984 266.63461 375.000151 267.187242 375.386741 267.556502 375.746935 267.745875 376.254296 267.703399 376.769615 267.720894 378.223528 268.345125 379.603276 269.423924 380.572517 270.969028 381.839694 272.941272 382.45891 274.929604 382.301108 279.861776 382.301108 282.327862 379.76584 282.327862 374.695305L282.327862 373.658149C282.327862 369.163811 279.861776 366.916641 274.929604 366.916641 273.897289 366.916641 273.381132 366.282824 273.381132 365.01519 273.381132 363.747556 273.897289 363.113739 274.929604 363.113739 276.651329 363.277284 278.37123 362.783579 279.747074 361.730866 280.961784 360.295594 281.523292 358.415128 281.295547 356.545091 281.295547 352.281231 279.230917 350.149301 275.101657 350.149301 273.29759 349.969386 271.497832 350.53055 270.112134 351.705034 269.19173 352.752514 268.699989 354.111142 268.735714 355.507935 268.735714 356.890809 267.990154 357.582246 266.499032 357.582246 265.813786 357.821346 265.052801 357.645903 264.539868 357.130566 264.026936 356.615229 263.852312 355.850676 264.090297 355.162217 264.100919 354.217156 264.275591 353.281204 264.606454 352.39647 264.995541 351.319123 265.578775 350.322975 266.326979 349.457864 267.230127 348.348032 268.42097 347.510534 269.768029 347.037836 271.518369 346.33468 273.388721 345.982345 275.273709 346.000681 282.270511 346.000681 285.768911 349.285005 285.768911 355.853654 285.817951 357.879288 285.406029 359.889435 284.564544 361.730866 283.893392 363.220178 282.741565 364.438312 281.295547 365.18805 284.951585 366.502453 287.277966 370.114626 286.973279 374.003868L286.973279 375.041023C286.973279 379.074404 285.883613 382.07063 283.704281 384.0297 281.241298 386.064937 278.115434 387.111777 274.929604 386.968306 271.731996 387.20119 268.573935 386.143567 266.154927 384.0297 264.068578 382.289674 262.920883 379.663224 263.057982 376.942474zM415.030206 353.234404L415.030206 339.765596C414.786603 336.893281 416.028321 334.095079 418.325142 332.340484 423.680941 329.219839 430.31111 329.219839 435.666909 332.340484 437.96373 334.095079 439.205448 336.893281 438.961845 339.765596L438.961845 353.234404C439.239209 356.112249 437.990568 358.926052 435.666909 360.659516 430.31111 363.780161 423.680941 363.780161 418.325142 360.659516 416.028321 358.904921 414.786603 356.106719 415.030206 353.234404zM419.712483 353.234404C419.712483 357.378653 422.140331 359.450777 426.996025 359.450777 428.914453 359.566253 430.813907 359.017154 432.371973 357.896684 433.700191 356.721698 434.405004 354.99909 434.279568 353.234404L434.279568 339.765596C434.405004 338.00091 433.700191 336.278302 432.371973 335.103316 430.820447 333.969568 428.916072 333.419046 426.996025 333.549223 422.140331 333.549223 419.712483 335.678906 419.712483 339.938273L419.712483 353.234404zM341 389.772127L341 384.883895C341.051378 383.184145 341.743845 381.564941 342.941174 380.344822 344.328413 378.789135 345.932793 377.437083 347.705874 376.329489L353.176456 372.663315C354.945349 371.550099 356.548974 370.198684 357.941156 368.647981 359.138485 367.427862 359.830952 365.808659 359.88233 364.108908 359.878436 362.536136 359.24374 361.029186 358.117627 359.918995 356.724414 358.669932 354.875302 358.039138 352.999986 358.173198 351.35448 358.108616 349.735935 358.601294 348.411756 359.569836 347.23866 360.574433 346.589598 362.051283 346.647052 363.585169 346.593188 364.025388 346.33121 364.414145 345.941171 364.632648 345.428677 364.997518 344.807349 365.18192 344.176467 365.156387 342.764704 365.156387 342.058822 364.341681 342.058822 362.712271 342.000019 360.226136 343.18956 357.872543 345.235289 356.427401 350.09227 353.066361 356.591068 353.207662 361.294093 356.77656 363.42825 358.477795 364.662502 361.04838 364.64703 363.759749 364.637803 365.486311 364.149457 367.177209 363.235267 368.647981 362.34901 370.211303 361.147739 371.577965 359.70586 372.663315L355.2941 375.980329 350.705871 378.773605C349.464423 379.548708 348.33627 380.488553 347.352934 381.56688 346.510187 382.336946 346.003801 383.401489 345.941171 384.534735L345.941171 387.153431 363.235267 387.153431C363.710006 387.110483 364.174591 387.307458 364.47056 387.67717 364.814257 388.062695 365.00268 388.559773 364.999971 389.073808 365.00268 389.587843 364.814257 390.084921 364.47056 390.470446 364.174591 390.840158 363.710006 391.037133 363.235267 390.994185L343.117645 390.994185 341.705882 390.470446C341.381759 390.346282 341.125509 390.092777 341 389.772127z"/>
    <g fill-rule="nonzero" opacity=".815">
      <use fill="#000" filter="url(#number-gauge-a)" xlink:href="#number-gauge-b"/>
      <use fill="url(#number-gauge-c)" fill-rule="evenodd" xlink:href="#number-gauge-b"/>
    </g>
    <g fill-rule="nonzero">
      <use fill="#000" filter="url(#number-gauge-d)" xlink:href="#number-gauge-e"/>
      <use fill="#FFF" fill-rule="evenodd" xlink:href="#number-gauge-e"/>
    </g>
    <g fill-rule="nonzero">
      <use fill="#000" filter="url(#number-gauge-f)" xlink:href="#number-gauge-g"/>
      <use fill="#FFF" fill-rule="evenodd" xlink:href="#number-gauge-g"/>
    </g>
    <g fill-rule="nonzero" transform="rotate(-45 99.5 102)">
      <use fill="#000" filter="url(#number-gauge-h)" xlink:href="#number-gauge-i"/>
      <use fill="#FFF" fill-rule="evenodd" xlink:href="#number-gauge-i"/>
    </g>
    <g fill-rule="nonzero" transform="rotate(-45 372 99.5)">
      <use fill="#000" filter="url(#number-gauge-j)" xlink:href="#number-gauge-k"/>
      <use fill="#FFF" fill-rule="evenodd" xlink:href="#number-gauge-k"/>
    </g>
    <use fill="#000" filter="url(#number-gauge-l)" xlink:href="#number-gauge-m"/>
    <use fill="#FFF" xlink:href="#number-gauge-m"/>
    <path fill="#5AAE46" fill-rule="nonzero" d="M236.5,265 C220.759885,265 208,252.240115 208,236.5 C208,220.759885 220.759885,208 236.5,208 C252.240115,208 265,220.759885 265,236.5 C265,252.240115 252.240115,265 236.5,265 Z"/>
    <path fill="#FFF" fill-rule="nonzero" d="M226.135749,249.931034 L228.801219,246.655172 C229.003582,246.479556 229.309648,246.479556 229.512011,246.655172 C231.338395,248.104783 233.56225,249.003834 235.909139,249.241379 L235.909139,239.241379 C230.222803,238.37931 226.846541,234.931034 226.846541,229.931034 C226.641164,224.819763 230.650884,220.471577 235.909139,220.103448 L235.909139,217.517241 C235.909139,217.231577 236.147813,217 236.442233,217 L238.219213,217 C238.513633,217 238.752307,217.231577 238.752307,217.517241 L238.752307,220.103448 C241.482444,220.330574 244.109948,221.21989 246.393321,222.689655 C246.631779,222.837371 246.709779,223.140095 246.571019,223.37931 L244.260945,226.655172 C244.108702,226.886539 243.7967,226.96222 243.550153,226.827586 C242.091283,225.936508 240.457445,225.349377 238.752307,225.103448 L238.752307,234.586207 C244.794039,235.62069 247.992603,238.896552 247.992603,243.896552 C248.197819,249.102898 244.108705,253.528204 238.752307,253.896552 L238.752307,256.482759 C238.752307,256.61994 238.696142,256.751502 238.596167,256.848504 C238.496193,256.945505 238.360598,257 238.219213,257 L236.264535,257 C236.12315,257 235.987555,256.945505 235.887581,256.848504 C235.787606,256.751502 235.731441,256.61994 235.731441,256.482759 L235.731441,254.068966 C232.234983,253.945434 228.871604,252.736781 226.135749,250.62069 C225.95475,250.424344 225.95475,250.12738 226.135749,249.931034 Z M235.909139,225.103448 C233.66735,225.452874 232.057917,227.38625 232.177481,229.586207 C232.067323,231.749049 233.694453,233.628506 235.909139,233.896552 L235.909139,225.103448 Z M242.661663,244.068966 C242.661663,242.172414 241.773173,240.62069 238.930005,239.758621 L238.930005,249.068966 C241.154925,248.495441 242.64641,246.469455 242.483965,244.241379 L242.661663,244.068966 Z"/>
  </g>
</svg>
