<svg id="Layer_1" data-name="Layer 1" xmlns="http://www.w3.org/2000/svg" viewBox="0 0 1440 932"><title>icons-bg</title><g style="opacity:0.30000001192092896"><path d="M66.16,471.53a6.1,6.1,0,1,1,6.1-6.1,6.1,6.1,0,0,1-6.1,6.1m0-17.25a11.16,11.16,0,1,0,11.16,11.16,11.17,11.17,0,0,0-11.16-11.16m0-13.27a6.1,6.1,0,1,1,6.1-6.1,6.1,6.1,0,0,1-6.1,6.1m0-17.25A11.16,11.16,0,1,0,77.31,434.9a11.17,11.17,0,0,0-11.16-11.16m0,78.31a6.1,6.1,0,1,1,6.1-6.1,6.1,6.1,0,0,1-6.1,6.1m0-17.25A11.16,11.16,0,1,0,77.31,496,11.17,11.17,0,0,0,66.16,484.8m33.79-49.9a6.1,6.1,0,1,1-6.1-6.1,6.1,6.1,0,0,1,6.1,6.1m-6.1-11.16A11.16,11.16,0,1,0,105,434.9a11.17,11.17,0,0,0-11.16-11.16m6.1,41.68a6.1,6.1,0,1,1-6.1-6.1,6.1,6.1,0,0,1,6.1,6.1m-6.1-11.16A11.16,11.16,0,1,0,105,465.43a11.17,11.17,0,0,0-11.16-11.16M99.95,496a6.1,6.1,0,1,1-6.1-6.1,6.1,6.1,0,0,1,6.1,6.1m-6.1-11.16A11.16,11.16,0,1,0,105,496,11.17,11.17,0,0,0,93.85,484.8m33.79-49.9a6.1,6.1,0,1,1-6.1-6.1,6.1,6.1,0,0,1,6.1,6.1m-6.1-11.16A11.16,11.16,0,1,0,132.7,434.9a11.17,11.17,0,0,0-11.16-11.16m6.1,72.21a6.1,6.1,0,1,1-6.1-6.1,6.1,6.1,0,0,1,6.1,6.1m-6.1-11.16A11.16,11.16,0,1,1,110.39,496,11.17,11.17,0,0,1,121.55,484.8Zm27.69-30.53a11.16,11.16,0,1,1-11.16,11.16A11.17,11.17,0,0,1,149.24,454.27Z" style="fill:rgba(0, 0, 0, 0.4)"/><path d="M314.83,446.76c0,3.2-1.81,3.73-2.85,3.77H295.28a2.5,2.5,0,0,0-2.5,2.5v37.58h-20V469a2.5,2.5,0,0,0-2.5-2.5H253.85c-.48,0-2.85-.18-2.85-3.77V449.24c0-.89.25-3.79,2.85-3.79s2.84,2.9,2.85,3.77v5.86c0,1.4,0,2.85,1.1,4a4,4,0,0,0,3,1.1h9.56a2.5,2.5,0,0,0,2.5-2.5V433.13c0-.12.74-12.13,10-12.13s10,12,10,12.13v8.54a2.5,2.5,0,0,0,2.5,2.5h9.78a4,4,0,0,0,3-1.1c1.13-1.14,1.12-2.59,1.1-4v-5.84c0-.89.25-3.79,2.85-3.79s2.84,2.9,2.85,3.77ZM296.75,511H268.86l-2.69-15.39h33.27ZM312,424.45c-5.76,0-7.85,5.24-7.85,8.77v5.95h-6.35v-6c0-3.4-2.67-17.13-15-17.13s-15,13.73-15,17.13v22h-6.13v-5.95c0-3.52-2.09-8.77-7.85-8.77s-7.85,5.25-7.85,8.77v13.54c0,6.43,4.69,8.77,7.85,8.77h14v19.08H263.2a2.5,2.5,0,0,0-2.46,2.93l3.56,20.39a2.5,2.5,0,0,0,2.46,2.07h32.09a2.5,2.5,0,0,0,2.46-2.07l3.57-20.39a2.5,2.5,0,0,0-2.46-2.93h-4.63V477.12a2.47,2.47,0,0,0,.22-1V455.53h14c3.15,0,7.85-2.34,7.85-8.77V433.22c0-3.53-2.09-8.77-7.85-8.77Z" style="fill:rgba(0, 0, 0, 0.4)"/><path d="M485.78,485.51c-13.51,12.53-20.44,16.57-22.67,17.68-2.27-1.13-9.2-5.17-22.68-17.68-16.36-15.17-13-29.64-12.79-30.34,0-.13,3-12.87,16.18-14,12.93-1.13,16.51,8.37,16.66,8.8,0,0,0,.09.06.14s.08.18.12.26l.14.23.16.21.18.2.2.18.22.16.23.14.26.12.15.07.1,0,.28.06.25,0h.54l.27,0,.27-.06.1,0,.16-.07.24-.11.25-.15.2-.15.21-.19.17-.19.17-.23.13-.22a2.62,2.62,0,0,0,.12-.27s0-.09.07-.14,3.57-9.91,16.65-8.78,16.07,13.5,16.2,14.1,3.55,15.08-12.81,30.25M504,454c.17.62,4.48,18.06-14.44,35.6-17.86,16.56-24.89,19.06-25.64,19.3a2.8,2.8,0,0,1-.83.13h0a2.8,2.8,0,0,1-.82-.12h0c-.89-.29-8-2.93-25.6-19.28-18.91-17.54-14.6-35-14.41-35.71,1.25-5.72,7.32-17,21.11-18.24,10-.86,16.38,3.53,19.76,7.86,3.38-4.33,9.72-8.72,19.76-7.86C496.65,436.82,502.72,448.15,504,454Zm-84-16.07a2.27,2.27,0,0,1,.62,3.08,2.13,2.13,0,0,1-1.8,1,2.09,2.09,0,0,1-1.18-.36l-6.7-4.55a2.27,2.27,0,0,1-.62-3.08,2.1,2.1,0,0,1,3-.64Zm8.79-6-4.47-7.35a2.36,2.36,0,0,1,.72-3.2,2.23,2.23,0,0,1,3.12.74l4.47,7.35a2.36,2.36,0,0,1-.72,3.2,2.21,2.21,0,0,1-1.2.35A2.25,2.25,0,0,1,428.81,431.91Zm-14,20.06a2.29,2.29,0,0,1,2,2.55,2.26,2.26,0,0,1-2.22,2l-.26,0-8.29-1a2.29,2.29,0,0,1-2-2.55,2.25,2.25,0,0,1,2.48-2Z" style="fill:rgba(0, 0, 0, 0.4)"/><path d="M481.95,448.12a2.21,2.21,0,1,0-1.47,4.16c.32.11,7.8,2.84,8.07,10.59a2.22,2.22,0,0,0,2.22,2.13h.08a2.21,2.21,0,0,0,2.15-2.28c-.38-10.81-10.61-14.45-11-14.6" style="fill:rgba(0, 0, 0, 0.4)"/><path d="M596,450a2.3,2.3,0,0,1,2.62,1.89l.39,2.51A2.25,2.25,0,0,1,597,457l-.35,0a2.29,2.29,0,0,1-2.28-1.91l-.39-2.51A2.25,2.25,0,0,1,596,450ZM601,478a2.38,2.38,0,0,1,2.72,1.93l.22,1.42a2.31,2.31,0,0,1-2,2.6l-.36,0a2.36,2.36,0,0,1-2.36-2l-.22-1.42A2.31,2.31,0,0,1,601,478ZM599,464a2.31,2.31,0,0,1,2.62,1.89l.39,2.51A2.25,2.25,0,0,1,600,471l-.35,0a2.29,2.29,0,0,1-2.28-1.91l-.39-2.51A2.25,2.25,0,0,1,599,464Zm16.54,28a2.4,2.4,0,0,1-2.5-2.29v-1.43a2.51,2.51,0,0,1,5,0v1.43A2.4,2.4,0,0,1,615.5,492Zm0-14a2.38,2.38,0,0,1-2.5-2.23v-2.53a2.52,2.52,0,0,1,5,0v2.53A2.38,2.38,0,0,1,615.5,478Zm0-14a2.38,2.38,0,0,1-2.5-2.23v-2.53a2.52,2.52,0,0,1,5,0v2.53A2.38,2.38,0,0,1,615.5,464Zm0-14a2.4,2.4,0,0,1-2.5-2.29v-1.43a2.51,2.51,0,0,1,5,0v1.43A2.4,2.4,0,0,1,615.5,450Zm-13.06,43.27a2.25,2.25,0,0,1,.66,4.45L588.2,500l-.33,0a2.22,2.22,0,0,1-1.32-.44,2.25,2.25,0,0,1-.88-1.48l-3-20.46a2.25,2.25,0,0,1,1.4-2.43c.53-.21,5.29-2.29,4.49-7.3a6,6,0,0,0-6.15-5.2h0a2.23,2.23,0,0,1-2.2-1.92L577,439.84a2.27,2.27,0,0,1,.41-1.67,2.23,2.23,0,0,1,1.46-.89L593.8,435a8.63,8.63,0,0,1,2.84,4l.21,1.39a2.24,2.24,0,0,1-1.87,2.55l-.33,0a2.23,2.23,0,0,1-2.2-1.92l-.18-1.23-10.5,1.59,2.52,17a10.27,10.27,0,0,1,8.64,8.81c.93,5.82-2.68,9.62-5.64,11.39l2.47,16.62ZM688,460.79c-.53.08-5.32.92-5.37,6s5,6.35,5.58,6.49a2.25,2.25,0,0,1,1.74,2.17V496a2.24,2.24,0,0,1-2.25,2.23H615.47a2.23,2.23,0,1,1,0-4.46h70V477.09c-3.22-1.3-7.38-4.48-7.32-10.33a10.25,10.25,0,0,1,7.32-9.92v-17h-70a2.23,2.23,0,1,1,0-4.46H687.7a2.24,2.24,0,0,1,2.25,2.23v21A2.24,2.24,0,0,1,688,460.79Zm-32.34,8.64a2.22,2.22,0,0,0-.65,2l1.27,7.37-6.7-3.37a2.26,2.26,0,0,0-2,0l-6.71,3.37,1.27-7.37a2.22,2.22,0,0,0-.65-2l-5.38-5.21,7.5-1a2.25,2.25,0,0,0,1.7-1.23l3.28-6.66,3.37,6.78a2.24,2.24,0,0,0,1.69,1.22l7.29,1Zm12.24-7.37a2.24,2.24,0,0,0-1.82-1.52L655.44,459l-4.87-9.79a2.24,2.24,0,0,0-2-1.24h0a2.24,2.24,0,0,0-2,1.25l-4.76,9.67-10.85,1.51a2.23,2.23,0,0,0-1.25,3.81l7.81,7.57-1.82,10.58a2.23,2.23,0,0,0,.88,2.17,2.25,2.25,0,0,0,2.35.2l9.67-4.86,9.67,4.86a2.24,2.24,0,0,0,3.22-2.37l-1.82-10.58,7.7-7.45a2.22,2.22,0,0,0,.57-2.29Z" style="fill:rgba(0, 0, 0, 0.4);stroke:rgba(0, 0, 0, 0.4);stroke-width:2px"/><path d="M791,433.15l-3.51-5.63a2.62,2.62,0,0,1,4.44-2.77l3.51,5.63a2.62,2.62,0,1,1-4.44,2.77Zm-18.71,22.15a2.62,2.62,0,1,1,.6-5.2l6.59.76a2.62,2.62,0,0,1-.3,5.21l-.31,0Zm13.46-13.84a2.62,2.62,0,0,1-4,2.72l-5.55-3.64a2.62,2.62,0,0,1,2.87-4.38l5.55,3.64A2.6,2.6,0,0,1,785.77,441.47Zm26.61,3.77c.37.13,9.09,3.27,9.41,12.56a2.62,2.62,0,0,1-2.52,2.7h-.09a2.61,2.61,0,0,1-2.61-2.53c-.2-5.7-5.68-7.72-5.91-7.81a2.62,2.62,0,0,1,1.73-4.94Zm30.31,19a2.62,2.62,0,1,1,0,5.23H836a2.62,2.62,0,1,1,0-5.23Zm-2.91-23.71-5.55,3.64a2.62,2.62,0,0,1-2.87-4.38l5.55-3.64a2.62,2.62,0,1,1,2.87,4.38ZM821.37,434a2.62,2.62,0,0,1-.83-3.6l3.51-5.63a2.62,2.62,0,1,1,4.44,2.77L825,433.15a2.61,2.61,0,0,1-3.6.84Zm-12.94-2.12a2.61,2.61,0,0,1-2.58-2.66l.12-6.64a2.62,2.62,0,0,1,5.23.1l-.12,6.64a2.63,2.63,0,0,1-2.61,2.57ZM846,452.41a2.62,2.62,0,0,1-2.3,2.9l-6.59.76-.3,0a2.62,2.62,0,0,1-.3-5.21l6.59-.76a2.61,2.61,0,0,1,2.9,2.3Zm-66,11.85a2.62,2.62,0,1,1,0,5.23h-6.64a2.62,2.62,0,1,1,0-5.23Zm41.6,6-.29.44c-.2.29-.4.59-.59.87l-.36.58c-.14.22-.28.45-.4.66s-.27.49-.4.73l-.25.45c-.16.3-.3.58-.44.87l-.12.23a15.76,15.76,0,0,0-1.86,7.17c0,.1,0,.19,0,.26V485H799v-2.39c.11-1.3,0-6.14-5.7-13.68-4.84-6.39-1.66-17.6-1.62-17.73.11-.4,2.81-9.83,16.22-10q1.26,0,2.4.13c11.37,1.17,13.75,9.53,13.86,9.92,0,.11,3.22,11.24-1.64,17.66q-.53.7-1,1.38m3.52-27.53c-2.71-2.92-7.67-6.41-16-6.77v0h-1.41l-.83,0v0c-16.42.74-20.08,13.68-20.1,13.77-.17.56-4,13.76,2.49,22.31,4.8,6.34,4.66,10,4.65,10.08V485a5.24,5.24,0,0,0,5.24,5.24h17.79a5.24,5.24,0,0,0,5.24-5.24v-2.8s-.18-3.73,4.65-10.11c6.45-8.52,2.73-21.51,2.51-22.24a18.21,18.21,0,0,0-4.16-7.08m-11,56.55v.9c-.09.89-.79,4.82-5.77,5.61-5.07-.81-5.7-4.88-5.77-5.62v-.89Zm0-5.24H802.51a5.24,5.24,0,0,0-5.24,5.24v.89c0,.16,0,.31,0,.49a11.67,11.67,0,0,0,10.66,10.38l.34,0,.31,0a11.67,11.67,0,0,0,10.66-10.39,4.52,4.52,0,0,0,0-.48v-.89a5.24,5.24,0,0,0-5.24-5.24Z" style="fill:rgba(0, 0, 0, 0.4)"/><path d="M970.52,456c-5.92-.42-12.63-.9-16.77,3.34a39.51,39.51,0,0,0-4.31,5.51,25.62,25.62,0,0,1-4.85,5.75c-.94.76-2.72,1.95-4,1.33s-2.52-3-2.55-7.14c-.08-11.61,8.9-27.77,29.15-37.69a48.33,48.33,0,0,1,21.34-4.82c11.14,0,21.07,3.55,26.49,7.62,3,2.29,3.93,4.22,3.77,5.18s-1.71,2.05-4.09,2.78a18.85,18.85,0,0,1-8,.7,42.14,42.14,0,0,0-6.69,0c-5,.39-8.79,5.31-12.49,10.06-2.32,3-4.72,6.07-6.67,6.91-2.48,1.07-6.46.79-10.3.52m60,44.19h-30.33L984,459.42c2.61-1.63,4.95-4.62,7.4-7.77,2.89-3.71,6.16-7.92,8.93-8.14a37.61,37.61,0,0,1,6,.05,23.73,23.73,0,0,0,9.77-.91c5.57-1.7,7.19-4.58,7.56-6.7.58-3.28-1.44-6.85-5.69-10-9.18-6.9-29.89-12.5-49.18-5l-1.33-3.36a2.5,2.5,0,1,0-4.65,1.85l1.42,3.57c-10.25,5.16-18.57,12.24-24.09,20.52-4.65,7-7.19,14.56-7.15,21.33,0,5.77,2,10,5.41,11.62a6.88,6.88,0,0,0,3,.65,10.14,10.14,0,0,0,6.36-2.61,29.84,29.84,0,0,0,5.83-6.81,35.17,35.17,0,0,1,3.77-4.85c2.53-2.58,7.77-2.21,12.84-1.85a44.09,44.09,0,0,0,9.13,0l15.58,39.3c-11.83.69-22.58,4.67-29.93,11.18a2.5,2.5,0,1,0,3.32,3.74c7-6.2,18.1-9.92,29.79-10a2.47,2.47,0,0,0,.5.08,2.54,2.54,0,0,0,.6-.08h31.39a2.5,2.5,0,0,0,0-5" style="fill:rgba(0, 0, 0, 0.4)"/><path d="M1192.52,441.85c-1.71.42-3.49-.05-5.4-1.44l11.55-11.55h4.24c-2,4.87-5.82,11.87-10.39,13Zm-38.9,25a13.05,13.05,0,1,0,3.54,3.54l5.46-5.46a20.76,20.76,0,1,1-3.54-3.54Zm.76,10.82a8.07,8.07,0,1,1-4.41-7.17l-2.23,2.23a5.25,5.25,0,1,0,3.54,3.53l2.23-2.23a8,8,0,0,1,.88,3.63Zm25.3,0a33.41,33.41,0,1,1-11.62-25.26l-5.42,5.42a25.73,25.73,0,1,0,3.54,3.53l5.42-5.42a33.2,33.2,0,0,1,8.08,21.73Zm2.45-46.18c1.12-4.57,8.12-8.38,13-10.39v4.24l-11.55,11.55c-1.39-1.9-1.87-3.68-1.44-5.4Zm26.36-6.6a2.5,2.5,0,0,0-2-1h-6.36V417.5a2.5,2.5,0,0,0-3.25-2.38,53.56,53.56,0,0,0-8.63,3.72c-6.25,3.39-9.94,7.24-11,11.45-.84,3.41.08,6.82,2.74,10.15l-8.41,8.41a38.41,38.41,0,1,0,3.53,3.53l8.42-8.42a12.36,12.36,0,0,0,7.7,3,10.16,10.16,0,0,0,2.45-.3c4.21-1,8.06-4.73,11.45-11a53.57,53.57,0,0,0,3.72-8.63,2.5,2.5,0,0,0-.37-2.23Z" style="fill:rgba(0, 0, 0, 0.4)"/><path d="M1294.73,445.45h35.07v29.77h-35.07Zm6.46-4.71h20.92V419.9h-20.92Zm70.43,1.13c-2.55-2.68-6.15-4-10.69-4s-8.26,1.36-10.86,4a15,15,0,0,0-3.87,10l0,25.87c0,.12.71,11.88-5.49,18.47-2.74,2.92-6.53,4.4-11.26,4.4s-8.31-1.41-10.9-4.31c-4.34-4.86-4.72-12.66-4.63-16.36h18.29a2.36,2.36,0,0,0,2.36-2.36V443.09a2.36,2.36,0,0,0-2.36-2.36h-5.33V417.55a2.36,2.36,0,0,0-2.36-2.36h-25.65a2.36,2.36,0,0,0-2.36,2.36v23.19h-4.1a2.36,2.36,0,0,0-2.36,2.36v34.48a2.36,2.36,0,0,0,2.36,2.36h16.78c-.11,4.42.42,13.43,5.82,19.48,3.49,3.92,8.36,5.9,14.45,5.9s11-2,14.71-5.89c7.59-8.07,6.8-21.44,6.76-21.85l0-25.77a10.31,10.31,0,0,1,2.57-6.7c1.68-1.71,4.18-2.57,7.44-2.57s5.62.86,7.24,2.54c2.64,2.75,2.48,7,2.47,7.12v63.45a2.36,2.36,0,0,0,4.73,0V452.33c0-.25.3-6.22-3.74-10.46Z" style="fill:rgba(0, 0, 0, 0.4);stroke:rgba(0, 0, 0, 0.4);stroke-width:2px"/><path d="M1321.65,452h-18.3a2.5,2.5,0,0,0,0,5h18.3a2.5,2.5,0,0,0,0-5m0,11h-18.3a2.5,2.5,0,0,0,0,5h18.3a2.5,2.5,0,0,0,0-5" style="fill:rgba(0, 0, 0, 0.4);stroke:rgba(0, 0, 0, 0.4);stroke-width:2px"/><path d="M66.16,727.53a6.1,6.1,0,1,1,6.1-6.1,6.1,6.1,0,0,1-6.1,6.1m0-17.25a11.16,11.16,0,1,0,11.16,11.16,11.17,11.17,0,0,0-11.16-11.16m0-13.27a6.1,6.1,0,1,1,6.1-6.1,6.1,6.1,0,0,1-6.1,6.1m0-17.25A11.16,11.16,0,1,0,77.31,690.9a11.17,11.17,0,0,0-11.16-11.16m0,78.31a6.1,6.1,0,1,1,6.1-6.1,6.1,6.1,0,0,1-6.1,6.1m0-17.25A11.16,11.16,0,1,0,77.31,752,11.17,11.17,0,0,0,66.16,740.8m33.79-49.9a6.1,6.1,0,1,1-6.1-6.1,6.1,6.1,0,0,1,6.1,6.1m-6.1-11.16A11.16,11.16,0,1,0,105,690.9a11.17,11.17,0,0,0-11.16-11.16m6.1,41.68a6.1,6.1,0,1,1-6.1-6.1,6.1,6.1,0,0,1,6.1,6.1m-6.1-11.16A11.16,11.16,0,1,0,105,721.43a11.17,11.17,0,0,0-11.16-11.16M99.95,752a6.1,6.1,0,1,1-6.1-6.1,6.1,6.1,0,0,1,6.1,6.1m-6.1-11.16A11.16,11.16,0,1,0,105,752,11.17,11.17,0,0,0,93.85,740.8m33.79-49.9a6.1,6.1,0,1,1-6.1-6.1,6.1,6.1,0,0,1,6.1,6.1m-6.1-11.16A11.16,11.16,0,1,0,132.7,690.9a11.17,11.17,0,0,0-11.16-11.16m6.1,72.21a6.1,6.1,0,1,1-6.1-6.1,6.1,6.1,0,0,1,6.1,6.1m-6.1-11.16A11.16,11.16,0,1,1,110.39,752,11.17,11.17,0,0,1,121.55,740.8Zm27.69-30.53a11.16,11.16,0,1,1-11.16,11.16A11.17,11.17,0,0,1,149.24,710.27Z" style="fill:rgba(0, 0, 0, 0.4)"/><path d="M314.83,702.76c0,3.2-1.81,3.73-2.85,3.77H295.28a2.5,2.5,0,0,0-2.5,2.5v37.58h-20V725a2.5,2.5,0,0,0-2.5-2.5H253.85c-.48,0-2.85-.18-2.85-3.77V705.24c0-.89.25-3.79,2.85-3.79s2.84,2.9,2.85,3.77v5.86c0,1.4,0,2.85,1.1,4a4,4,0,0,0,3,1.1h9.56a2.5,2.5,0,0,0,2.5-2.5V689.13c0-.12.74-12.13,10-12.13s10,12,10,12.13v8.54a2.5,2.5,0,0,0,2.5,2.5h9.78a4,4,0,0,0,3-1.1c1.13-1.14,1.12-2.59,1.1-4v-5.84c0-.89.25-3.79,2.85-3.79s2.84,2.9,2.85,3.77ZM296.75,767H268.86l-2.69-15.39h33.27ZM312,680.45c-5.76,0-7.85,5.24-7.85,8.77v5.95h-6.35v-6c0-3.4-2.67-17.13-15-17.13s-15,13.73-15,17.13v22h-6.13v-5.95c0-3.52-2.09-8.77-7.85-8.77s-7.85,5.25-7.85,8.77v13.54c0,6.43,4.69,8.77,7.85,8.77h14v19.08H263.2a2.5,2.5,0,0,0-2.46,2.93l3.56,20.39a2.5,2.5,0,0,0,2.46,2.07h32.09a2.5,2.5,0,0,0,2.46-2.07l3.57-20.39a2.5,2.5,0,0,0-2.46-2.93h-4.63V733.12a2.47,2.47,0,0,0,.22-1V711.53h14c3.15,0,7.85-2.34,7.85-8.77V689.22c0-3.53-2.09-8.77-7.85-8.77Z" style="fill:rgba(0, 0, 0, 0.4)"/><path d="M485.78,741.51c-13.51,12.53-20.44,16.57-22.67,17.68-2.27-1.13-9.2-5.17-22.68-17.68-16.36-15.17-13-29.64-12.79-30.34,0-.13,3-12.87,16.18-14,12.93-1.13,16.51,8.37,16.66,8.8,0,0,0,.09.06.14s.08.18.12.26l.14.23.16.21.18.2.2.18.22.16.23.14.26.12.15.07.1,0,.28.06.25,0h.54l.27,0,.27-.06.1,0,.16-.07.24-.11.25-.15.2-.15.21-.19.17-.19.17-.23.13-.22a2.62,2.62,0,0,0,.12-.27s0-.09.07-.14,3.57-9.91,16.65-8.78,16.07,13.5,16.2,14.1,3.55,15.08-12.81,30.25M504,710c.17.62,4.48,18.06-14.44,35.6-17.86,16.56-24.89,19.06-25.64,19.3a2.8,2.8,0,0,1-.83.13h0a2.8,2.8,0,0,1-.82-.12h0c-.89-.29-8-2.93-25.6-19.28-18.91-17.54-14.6-35-14.41-35.71,1.25-5.72,7.32-17,21.11-18.24,10-.86,16.38,3.53,19.76,7.86,3.38-4.33,9.72-8.72,19.76-7.86C496.65,692.82,502.72,704.15,504,710Zm-84-16.07a2.27,2.27,0,0,1,.62,3.08,2.13,2.13,0,0,1-1.8,1,2.09,2.09,0,0,1-1.18-.36l-6.7-4.55a2.27,2.27,0,0,1-.62-3.08,2.1,2.1,0,0,1,3-.64Zm8.79-6-4.47-7.35a2.36,2.36,0,0,1,.72-3.2,2.23,2.23,0,0,1,3.12.74l4.47,7.35a2.36,2.36,0,0,1-.72,3.2,2.21,2.21,0,0,1-1.2.35A2.25,2.25,0,0,1,428.81,687.91Zm-14,20.06a2.29,2.29,0,0,1,2,2.55,2.26,2.26,0,0,1-2.22,2l-.26,0-8.29-1a2.29,2.29,0,0,1-2-2.55,2.25,2.25,0,0,1,2.48-2Z" style="fill:rgba(0, 0, 0, 0.4)"/><path d="M481.95,704.12a2.21,2.21,0,1,0-1.47,4.16c.32.11,7.8,2.84,8.07,10.59a2.22,2.22,0,0,0,2.22,2.13h.08a2.21,2.21,0,0,0,2.15-2.28c-.38-10.81-10.61-14.45-11-14.6" style="fill:rgba(0, 0, 0, 0.4)"/><path d="M596,706a2.3,2.3,0,0,1,2.62,1.89l.39,2.51A2.25,2.25,0,0,1,597,713l-.35,0a2.29,2.29,0,0,1-2.28-1.91l-.39-2.51A2.25,2.25,0,0,1,596,706ZM601,734a2.38,2.38,0,0,1,2.72,1.93l.22,1.42a2.31,2.31,0,0,1-2,2.6l-.36,0a2.36,2.36,0,0,1-2.36-2l-.22-1.42A2.31,2.31,0,0,1,601,734ZM599,720a2.31,2.31,0,0,1,2.62,1.89l.39,2.51A2.25,2.25,0,0,1,600,727l-.35,0a2.29,2.29,0,0,1-2.28-1.91l-.39-2.51A2.25,2.25,0,0,1,599,720Zm16.54,28a2.4,2.4,0,0,1-2.5-2.29v-1.43a2.51,2.51,0,0,1,5,0v1.43A2.4,2.4,0,0,1,615.5,748Zm0-14a2.38,2.38,0,0,1-2.5-2.23v-2.53a2.52,2.52,0,0,1,5,0v2.53A2.38,2.38,0,0,1,615.5,734Zm0-14a2.38,2.38,0,0,1-2.5-2.23v-2.53a2.52,2.52,0,0,1,5,0v2.53A2.38,2.38,0,0,1,615.5,720Zm0-14a2.4,2.4,0,0,1-2.5-2.29v-1.43a2.51,2.51,0,0,1,5,0v1.43A2.4,2.4,0,0,1,615.5,706Zm-13.06,43.27a2.25,2.25,0,0,1,.66,4.45L588.2,756l-.33,0a2.22,2.22,0,0,1-1.32-.44,2.25,2.25,0,0,1-.88-1.48l-3-20.46a2.25,2.25,0,0,1,1.4-2.43c.53-.21,5.29-2.29,4.49-7.3a6,6,0,0,0-6.15-5.2h0a2.23,2.23,0,0,1-2.2-1.92L577,695.84a2.27,2.27,0,0,1,.41-1.67,2.23,2.23,0,0,1,1.46-.89L593.8,691a8.63,8.63,0,0,1,2.84,4l.21,1.39a2.24,2.24,0,0,1-1.87,2.55l-.33,0a2.23,2.23,0,0,1-2.2-1.92l-.18-1.23-10.5,1.59,2.52,17a10.27,10.27,0,0,1,8.64,8.81c.93,5.82-2.68,9.62-5.64,11.39l2.47,16.62ZM688,716.79c-.53.08-5.32.92-5.37,6s5,6.35,5.58,6.49a2.25,2.25,0,0,1,1.74,2.17V752a2.24,2.24,0,0,1-2.25,2.23H615.47a2.23,2.23,0,1,1,0-4.46h70V733.09c-3.22-1.3-7.38-4.48-7.32-10.33a10.25,10.25,0,0,1,7.32-9.92v-17h-70a2.23,2.23,0,1,1,0-4.46H687.7a2.24,2.24,0,0,1,2.25,2.23v21A2.24,2.24,0,0,1,688,716.79Zm-32.34,8.64a2.22,2.22,0,0,0-.65,2l1.27,7.37-6.7-3.37a2.26,2.26,0,0,0-2,0l-6.71,3.37,1.27-7.37a2.22,2.22,0,0,0-.65-2l-5.38-5.21,7.5-1a2.25,2.25,0,0,0,1.7-1.23l3.28-6.66,3.37,6.78a2.24,2.24,0,0,0,1.69,1.22l7.29,1Zm12.24-7.37a2.24,2.24,0,0,0-1.82-1.52L655.44,715l-4.87-9.79a2.24,2.24,0,0,0-2-1.24h0a2.24,2.24,0,0,0-2,1.25l-4.76,9.67-10.85,1.51a2.23,2.23,0,0,0-1.25,3.81l7.81,7.57-1.82,10.58a2.23,2.23,0,0,0,.88,2.17,2.25,2.25,0,0,0,2.35.2l9.67-4.86,9.67,4.86a2.24,2.24,0,0,0,3.22-2.37l-1.82-10.58,7.7-7.45a2.22,2.22,0,0,0,.57-2.29Z" style="fill:rgba(0, 0, 0, 0.4);stroke:rgba(0, 0, 0, 0.4);stroke-width:2px"/><path d="M791,689.15l-3.51-5.63a2.62,2.62,0,0,1,4.44-2.77l3.51,5.63a2.62,2.62,0,1,1-4.44,2.77Zm-18.71,22.15a2.62,2.62,0,1,1,.6-5.2l6.59.76a2.62,2.62,0,0,1-.3,5.21l-.31,0Zm13.46-13.84a2.62,2.62,0,0,1-4,2.72l-5.55-3.64a2.62,2.62,0,0,1,2.87-4.38l5.55,3.64A2.6,2.6,0,0,1,785.77,697.47Zm26.61,3.77c.37.13,9.09,3.27,9.41,12.56a2.62,2.62,0,0,1-2.52,2.7h-.09a2.61,2.61,0,0,1-2.61-2.53c-.2-5.7-5.68-7.72-5.91-7.81a2.62,2.62,0,0,1,1.73-4.94Zm30.31,19a2.62,2.62,0,1,1,0,5.23H836a2.62,2.62,0,1,1,0-5.23Zm-2.91-23.71-5.55,3.64a2.62,2.62,0,0,1-2.87-4.38l5.55-3.64a2.62,2.62,0,1,1,2.87,4.38ZM821.37,690a2.62,2.62,0,0,1-.83-3.6l3.51-5.63a2.62,2.62,0,1,1,4.44,2.77L825,689.15a2.61,2.61,0,0,1-3.6.84Zm-12.94-2.12a2.61,2.61,0,0,1-2.58-2.66l.12-6.64a2.62,2.62,0,0,1,5.23.1l-.12,6.64a2.63,2.63,0,0,1-2.61,2.57ZM846,708.41a2.62,2.62,0,0,1-2.3,2.9l-6.59.76-.3,0a2.62,2.62,0,0,1-.3-5.21l6.59-.76a2.61,2.61,0,0,1,2.9,2.3Zm-66,11.85a2.62,2.62,0,1,1,0,5.23h-6.64a2.62,2.62,0,1,1,0-5.23Zm41.6,6-.29.44c-.2.29-.4.59-.59.87l-.36.58c-.14.22-.28.45-.4.66s-.27.49-.4.73l-.25.45c-.16.3-.3.58-.44.87l-.12.23a15.76,15.76,0,0,0-1.86,7.17c0,.1,0,.19,0,.26V741H799v-2.39c.11-1.3,0-6.14-5.7-13.68-4.84-6.39-1.66-17.6-1.62-17.73.11-.4,2.81-9.83,16.22-10q1.26,0,2.4.13c11.37,1.17,13.75,9.53,13.86,9.92,0,.11,3.22,11.24-1.64,17.66q-.53.7-1,1.38m3.52-27.53c-2.71-2.92-7.67-6.41-16-6.77v0h-1.41l-.83,0v0c-16.42.74-20.08,13.68-20.1,13.77-.17.56-4,13.76,2.49,22.31,4.8,6.34,4.66,10,4.65,10.08V741a5.24,5.24,0,0,0,5.24,5.24h17.79a5.24,5.24,0,0,0,5.24-5.24v-2.8s-.18-3.73,4.65-10.11c6.45-8.52,2.73-21.51,2.51-22.24a18.21,18.21,0,0,0-4.16-7.08m-11,56.55v.9c-.09.89-.79,4.82-5.77,5.61-5.07-.81-5.7-4.88-5.77-5.62v-.89Zm0-5.24H802.51a5.24,5.24,0,0,0-5.24,5.24v.89c0,.16,0,.31,0,.49a11.67,11.67,0,0,0,10.66,10.38l.34,0,.31,0a11.67,11.67,0,0,0,10.66-10.39,4.52,4.52,0,0,0,0-.48v-.89a5.24,5.24,0,0,0-5.24-5.24Z" style="fill:rgba(0, 0, 0, 0.4)"/><path d="M970.52,712c-5.92-.42-12.63-.9-16.77,3.34a39.51,39.51,0,0,0-4.31,5.51,25.62,25.62,0,0,1-4.85,5.75c-.94.76-2.72,1.95-4,1.33s-2.52-3-2.55-7.14c-.08-11.61,8.9-27.77,29.15-37.69a48.33,48.33,0,0,1,21.34-4.82c11.14,0,21.07,3.55,26.49,7.62,3,2.29,3.93,4.22,3.77,5.18s-1.71,2.05-4.09,2.78a18.85,18.85,0,0,1-8,.7,42.14,42.14,0,0,0-6.69,0c-5,.39-8.79,5.31-12.49,10.06-2.32,3-4.72,6.07-6.67,6.91-2.48,1.07-6.46.79-10.3.52m60,44.19h-30.33L984,715.42c2.61-1.63,4.95-4.62,7.4-7.77,2.89-3.71,6.16-7.92,8.93-8.14a37.61,37.61,0,0,1,6,.05,23.73,23.73,0,0,0,9.77-.91c5.57-1.7,7.19-4.58,7.56-6.7.58-3.28-1.44-6.85-5.69-10-9.18-6.9-29.89-12.5-49.18-5l-1.33-3.36a2.5,2.5,0,1,0-4.65,1.85l1.42,3.57c-10.25,5.16-18.57,12.24-24.09,20.52-4.65,7-7.19,14.56-7.15,21.33,0,5.77,2,10,5.41,11.62a6.88,6.88,0,0,0,3,.65,10.14,10.14,0,0,0,6.36-2.61,29.84,29.84,0,0,0,5.83-6.81,35.17,35.17,0,0,1,3.77-4.85c2.53-2.58,7.77-2.21,12.84-1.85a44.09,44.09,0,0,0,9.13,0l15.58,39.3c-11.83.69-22.58,4.67-29.93,11.18a2.5,2.5,0,1,0,3.32,3.74c7-6.2,18.1-9.92,29.79-10a2.47,2.47,0,0,0,.5.08,2.54,2.54,0,0,0,.6-.08h31.39a2.5,2.5,0,0,0,0-5" style="fill:rgba(0, 0, 0, 0.4)"/><path d="M1192.52,697.85c-1.71.42-3.49-.05-5.4-1.44l11.55-11.55h4.24c-2,4.87-5.82,11.87-10.39,13Zm-38.9,25a13.05,13.05,0,1,0,3.54,3.54l5.46-5.46a20.76,20.76,0,1,1-3.54-3.54Zm.76,10.82a8.07,8.07,0,1,1-4.41-7.17l-2.23,2.23a5.25,5.25,0,1,0,3.54,3.53l2.23-2.23a8,8,0,0,1,.88,3.63Zm25.3,0a33.41,33.41,0,1,1-11.62-25.26l-5.42,5.42a25.73,25.73,0,1,0,3.54,3.53l5.42-5.42a33.2,33.2,0,0,1,8.08,21.73Zm2.45-46.18c1.12-4.57,8.12-8.38,13-10.39v4.24l-11.55,11.55c-1.39-1.9-1.87-3.68-1.44-5.4Zm26.36-6.6a2.5,2.5,0,0,0-2-1h-6.36V673.5a2.5,2.5,0,0,0-3.25-2.38,53.56,53.56,0,0,0-8.63,3.72c-6.25,3.39-9.94,7.24-11,11.45-.84,3.41.08,6.82,2.74,10.15l-8.41,8.41a38.41,38.41,0,1,0,3.53,3.53l8.42-8.42a12.36,12.36,0,0,0,7.7,3,10.16,10.16,0,0,0,2.45-.3c4.21-1,8.06-4.73,11.45-11a53.57,53.57,0,0,0,3.72-8.63,2.5,2.5,0,0,0-.37-2.23Z" style="fill:rgba(0, 0, 0, 0.4)"/><path d="M1294.73,701.45h35.07v29.77h-35.07Zm6.46-4.71h20.92V675.9h-20.92Zm70.43,1.13c-2.55-2.68-6.15-4-10.69-4s-8.26,1.36-10.86,4a15,15,0,0,0-3.87,10l0,25.87c0,.12.71,11.88-5.49,18.47-2.74,2.92-6.53,4.4-11.26,4.4s-8.31-1.41-10.9-4.31c-4.34-4.86-4.72-12.66-4.63-16.36h18.29a2.36,2.36,0,0,0,2.36-2.36V699.09a2.36,2.36,0,0,0-2.36-2.36h-5.33V673.55a2.36,2.36,0,0,0-2.36-2.36h-25.65a2.36,2.36,0,0,0-2.36,2.36v23.19h-4.1a2.36,2.36,0,0,0-2.36,2.36v34.48a2.36,2.36,0,0,0,2.36,2.36h16.78c-.11,4.42.42,13.43,5.82,19.48,3.49,3.92,8.36,5.9,14.45,5.9s11-2,14.71-5.89c7.59-8.07,6.8-21.44,6.76-21.85l0-25.77a10.31,10.31,0,0,1,2.57-6.7c1.68-1.71,4.18-2.57,7.44-2.57s5.62.86,7.24,2.54c2.64,2.75,2.48,7,2.47,7.12v63.45a2.36,2.36,0,0,0,4.73,0V708.33c0-.25.3-6.22-3.74-10.46Z" style="fill:rgba(0, 0, 0, 0.4);stroke:rgba(0, 0, 0, 0.4);stroke-width:2px"/><path d="M1321.65,708h-18.3a2.5,2.5,0,0,0,0,5h18.3a2.5,2.5,0,0,0,0-5m0,11h-18.3a2.5,2.5,0,0,0,0,5h18.3a2.5,2.5,0,0,0,0-5" style="fill:rgba(0, 0, 0, 0.4);stroke:rgba(0, 0, 0, 0.4);stroke-width:2px"/><path d="M66.16,215.53a6.1,6.1,0,1,1,6.1-6.1,6.1,6.1,0,0,1-6.1,6.1m0-17.25a11.16,11.16,0,1,0,11.16,11.16,11.17,11.17,0,0,0-11.16-11.16m0-13.27a6.1,6.1,0,1,1,6.1-6.1,6.1,6.1,0,0,1-6.1,6.1m0-17.25A11.16,11.16,0,1,0,77.31,178.9a11.17,11.17,0,0,0-11.16-11.16m0,78.31a6.1,6.1,0,1,1,6.1-6.1,6.1,6.1,0,0,1-6.1,6.1m0-17.25A11.16,11.16,0,1,0,77.31,240,11.17,11.17,0,0,0,66.16,228.8m33.79-49.9a6.1,6.1,0,1,1-6.1-6.1,6.1,6.1,0,0,1,6.1,6.1m-6.1-11.16A11.16,11.16,0,1,0,105,178.9a11.17,11.17,0,0,0-11.16-11.16m6.1,41.68a6.1,6.1,0,1,1-6.1-6.1,6.1,6.1,0,0,1,6.1,6.1m-6.1-11.16A11.16,11.16,0,1,0,105,209.43a11.17,11.17,0,0,0-11.16-11.16M99.95,240a6.1,6.1,0,1,1-6.1-6.1,6.1,6.1,0,0,1,6.1,6.1m-6.1-11.16A11.16,11.16,0,1,0,105,240,11.17,11.17,0,0,0,93.85,228.8m33.79-49.9a6.1,6.1,0,1,1-6.1-6.1,6.1,6.1,0,0,1,6.1,6.1m-6.1-11.16A11.16,11.16,0,1,0,132.7,178.9a11.17,11.17,0,0,0-11.16-11.16m6.1,72.21a6.1,6.1,0,1,1-6.1-6.1,6.1,6.1,0,0,1,6.1,6.1m-6.1-11.16A11.16,11.16,0,1,1,110.39,240,11.17,11.17,0,0,1,121.55,228.8Zm27.69-30.53a11.16,11.16,0,1,1-11.16,11.16A11.17,11.17,0,0,1,149.24,198.27Z" style="fill:rgba(0, 0, 0, 0.4)"/><path d="M314.83,190.76c0,3.2-1.81,3.73-2.85,3.77H295.28a2.5,2.5,0,0,0-2.5,2.5v37.58h-20V213a2.5,2.5,0,0,0-2.5-2.5H253.85c-.48,0-2.85-.18-2.85-3.77V193.24c0-.89.25-3.79,2.85-3.79s2.84,2.9,2.85,3.77v5.86c0,1.4,0,2.85,1.1,4a4,4,0,0,0,3,1.1h9.56a2.5,2.5,0,0,0,2.5-2.5V177.13c0-.12.74-12.13,10-12.13s10,12,10,12.13v8.54a2.5,2.5,0,0,0,2.5,2.5h9.78a4,4,0,0,0,3-1.1c1.13-1.14,1.12-2.59,1.1-4v-5.84c0-.89.25-3.79,2.85-3.79s2.84,2.9,2.85,3.77ZM296.75,255H268.86l-2.69-15.39h33.27ZM312,168.45c-5.76,0-7.85,5.24-7.85,8.77v5.95h-6.35v-6c0-3.4-2.67-17.13-15-17.13s-15,13.73-15,17.13v22h-6.13v-5.95c0-3.52-2.09-8.77-7.85-8.77s-7.85,5.25-7.85,8.77v13.54c0,6.43,4.69,8.77,7.85,8.77h14v19.08H263.2a2.5,2.5,0,0,0-2.46,2.93l3.56,20.39a2.5,2.5,0,0,0,2.46,2.07h32.09a2.5,2.5,0,0,0,2.46-2.07l3.57-20.39a2.5,2.5,0,0,0-2.46-2.93h-4.63V221.12a2.47,2.47,0,0,0,.22-1V199.53h14c3.15,0,7.85-2.34,7.85-8.77V177.22c0-3.53-2.09-8.77-7.85-8.77Z" style="fill:rgba(0, 0, 0, 0.4)"/><path d="M485.78,229.51c-13.51,12.53-20.44,16.57-22.67,17.68-2.27-1.13-9.2-5.17-22.68-17.68-16.36-15.17-13-29.64-12.79-30.34,0-.13,3-12.87,16.18-14,12.93-1.13,16.51,8.37,16.66,8.8,0,0,0,.09.06.14s.08.18.12.26l.14.23.16.21.18.2.2.18.22.16.23.14.26.12.15.07.1,0,.28.06.25,0h.54l.27,0,.27-.06.1,0,.16-.07.24-.11.25-.15.2-.15.21-.19.17-.19.17-.23.13-.22a2.62,2.62,0,0,0,.12-.27s0-.09.07-.14,3.57-9.91,16.65-8.78,16.07,13.5,16.2,14.1,3.55,15.08-12.81,30.25M504,198c.17.62,4.48,18.06-14.44,35.6-17.86,16.56-24.89,19.06-25.64,19.3a2.8,2.8,0,0,1-.83.13h0a2.8,2.8,0,0,1-.82-.12h0c-.89-.29-8-2.93-25.6-19.28-18.91-17.54-14.6-35-14.41-35.71,1.25-5.72,7.32-17,21.11-18.24,10-.86,16.38,3.53,19.76,7.86,3.38-4.33,9.72-8.72,19.76-7.86C496.65,180.82,502.72,192.15,504,198Zm-84-16.07a2.27,2.27,0,0,1,.62,3.08,2.13,2.13,0,0,1-1.8,1,2.09,2.09,0,0,1-1.18-.36l-6.7-4.55a2.27,2.27,0,0,1-.62-3.08,2.1,2.1,0,0,1,3-.64Zm8.79-6-4.47-7.35a2.36,2.36,0,0,1,.72-3.2,2.23,2.23,0,0,1,3.12.74l4.47,7.35a2.36,2.36,0,0,1-.72,3.2,2.21,2.21,0,0,1-1.2.35A2.25,2.25,0,0,1,428.81,175.91Zm-14,20.06a2.29,2.29,0,0,1,2,2.55,2.26,2.26,0,0,1-2.22,2l-.26,0-8.29-1a2.29,2.29,0,0,1-2-2.55,2.25,2.25,0,0,1,2.48-2Z" style="fill:rgba(0, 0, 0, 0.4)"/><path d="M481.95,192.12a2.21,2.21,0,1,0-1.47,4.16c.32.11,7.8,2.84,8.07,10.59a2.22,2.22,0,0,0,2.22,2.13h.08a2.21,2.21,0,0,0,2.15-2.28c-.38-10.81-10.61-14.45-11-14.6" style="fill:rgba(0, 0, 0, 0.4)"/><path d="M596,194a2.3,2.3,0,0,1,2.62,1.89l.39,2.51A2.25,2.25,0,0,1,597,201l-.35,0a2.29,2.29,0,0,1-2.28-1.91l-.39-2.51A2.25,2.25,0,0,1,596,194ZM601,222a2.38,2.38,0,0,1,2.72,1.93l.22,1.42a2.31,2.31,0,0,1-2,2.6l-.36,0a2.36,2.36,0,0,1-2.36-2l-.22-1.42A2.31,2.31,0,0,1,601,222ZM599,208a2.31,2.31,0,0,1,2.62,1.89l.39,2.51A2.25,2.25,0,0,1,600,215l-.35,0a2.29,2.29,0,0,1-2.28-1.91l-.39-2.51A2.25,2.25,0,0,1,599,208Zm16.54,28a2.4,2.4,0,0,1-2.5-2.29v-1.43a2.51,2.51,0,0,1,5,0v1.43A2.4,2.4,0,0,1,615.5,236Zm0-14a2.38,2.38,0,0,1-2.5-2.23v-2.53a2.52,2.52,0,0,1,5,0v2.53A2.38,2.38,0,0,1,615.5,222Zm0-14a2.38,2.38,0,0,1-2.5-2.23v-2.53a2.52,2.52,0,0,1,5,0v2.53A2.38,2.38,0,0,1,615.5,208Zm0-14a2.4,2.4,0,0,1-2.5-2.29v-1.43a2.51,2.51,0,0,1,5,0v1.43A2.4,2.4,0,0,1,615.5,194Zm-13.06,43.27a2.25,2.25,0,0,1,.66,4.45L588.2,244l-.33,0a2.22,2.22,0,0,1-1.32-.44,2.25,2.25,0,0,1-.88-1.48l-3-20.46a2.25,2.25,0,0,1,1.4-2.43c.53-.21,5.29-2.29,4.49-7.3a6,6,0,0,0-6.15-5.2h0a2.23,2.23,0,0,1-2.2-1.92L577,183.84a2.27,2.27,0,0,1,.41-1.67,2.23,2.23,0,0,1,1.46-.89L593.8,179a2.23,2.23,0,0,1,2.42,3,2.21,2.21,0,0,1,.42,1l.21,1.39a2.24,2.24,0,0,1-1.87,2.55l-.33,0a2.23,2.23,0,0,1-2.2-1.92l-.18-1.23-10.5,1.59,2.52,17a10.27,10.27,0,0,1,8.64,8.81c.93,5.82-2.68,9.62-5.64,11.39l2.47,16.62ZM688,204.79c-.53.08-5.32.92-5.37,6s5,6.35,5.58,6.49a2.25,2.25,0,0,1,1.74,2.17V240a2.24,2.24,0,0,1-2.25,2.23H615.47a2.23,2.23,0,1,1,0-4.46h70V221.09c-3.22-1.3-7.38-4.48-7.32-10.33a10.25,10.25,0,0,1,7.32-9.92v-17h-70a2.23,2.23,0,1,1,0-4.46H687.7a2.24,2.24,0,0,1,2.25,2.23v21A2.24,2.24,0,0,1,688,204.79Zm-32.34,8.64a2.22,2.22,0,0,0-.65,2l1.27,7.37-6.7-3.37a2.26,2.26,0,0,0-2,0l-6.71,3.37,1.27-7.37a2.22,2.22,0,0,0-.65-2l-5.38-5.21,7.5-1a2.25,2.25,0,0,0,1.7-1.23l3.28-6.66,3.37,6.78a2.24,2.24,0,0,0,1.69,1.22l7.29,1Zm12.24-7.37a2.24,2.24,0,0,0-1.82-1.52L655.44,203l-4.87-9.79a2.24,2.24,0,0,0-2-1.24h0a2.24,2.24,0,0,0-2,1.25l-4.76,9.67-10.85,1.51a2.23,2.23,0,0,0-1.25,3.81l7.81,7.57-1.82,10.58a2.23,2.23,0,0,0,.88,2.17,2.25,2.25,0,0,0,2.35.2l9.67-4.86,9.67,4.86a2.24,2.24,0,0,0,3.22-2.37l-1.82-10.58,7.7-7.45a2.22,2.22,0,0,0,.57-2.29Z" style="fill:rgba(0, 0, 0, 0.4);stroke:rgba(0, 0, 0, 0.4);stroke-width:2px"/><path d="M791,177.15l-3.51-5.63a2.62,2.62,0,0,1,4.44-2.77l3.51,5.63a2.62,2.62,0,1,1-4.44,2.77Zm-18.71,22.15a2.62,2.62,0,1,1,.6-5.2l6.59.76a2.62,2.62,0,0,1-.3,5.21l-.31,0Zm13.46-13.84a2.62,2.62,0,0,1-4,2.72l-5.55-3.64a2.62,2.62,0,0,1,2.87-4.38l5.55,3.64A2.6,2.6,0,0,1,785.77,185.47Zm26.61,3.77c.37.13,9.09,3.27,9.41,12.56a2.62,2.62,0,0,1-2.52,2.7h-.09a2.61,2.61,0,0,1-2.61-2.53c-.2-5.7-5.68-7.72-5.91-7.81a2.62,2.62,0,0,1,1.73-4.94Zm30.31,19a2.62,2.62,0,1,1,0,5.23H836a2.62,2.62,0,1,1,0-5.23Zm-2.91-23.71-5.55,3.64a2.62,2.62,0,0,1-2.87-4.38l5.55-3.64a2.62,2.62,0,1,1,2.87,4.38ZM821.37,178a2.62,2.62,0,0,1-.83-3.6l3.51-5.63a2.62,2.62,0,1,1,4.44,2.77L825,177.15a2.61,2.61,0,0,1-3.6.84Zm-12.94-2.12a2.61,2.61,0,0,1-2.58-2.66l.12-6.64a2.62,2.62,0,0,1,5.23.1l-.12,6.64a2.63,2.63,0,0,1-2.61,2.57ZM846,196.41a2.62,2.62,0,0,1-2.3,2.9l-6.59.76-.3,0a2.62,2.62,0,0,1-.3-5.21l6.59-.76a2.61,2.61,0,0,1,2.9,2.3Zm-66,11.85a2.62,2.62,0,1,1,0,5.23h-6.64a2.62,2.62,0,1,1,0-5.23Zm41.6,6-.29.44c-.2.29-.4.59-.59.87l-.36.58c-.14.22-.28.45-.4.66s-.27.49-.4.73l-.25.45c-.16.3-.3.58-.44.87l-.12.23a15.76,15.76,0,0,0-1.86,7.17c0,.1,0,.19,0,.26V229H799v-2.39c.11-1.3,0-6.14-5.7-13.68-4.84-6.39-1.66-17.6-1.62-17.73.11-.4,2.81-9.83,16.22-10q1.26,0,2.4.13c11.37,1.17,13.75,9.53,13.86,9.92,0,.11,3.22,11.24-1.64,17.66q-.53.7-1,1.38m3.52-27.53c-2.71-2.92-7.67-6.41-16-6.77v0h-1.41l-.83,0v0c-16.42.74-20.08,13.68-20.1,13.77-.17.56-4,13.76,2.49,22.31,4.8,6.34,4.66,10,4.65,10.08V229a5.24,5.24,0,0,0,5.24,5.24h17.79a5.24,5.24,0,0,0,5.24-5.24v-2.8s-.18-3.73,4.65-10.11c6.45-8.52,2.73-21.51,2.51-22.24a18.21,18.21,0,0,0-4.16-7.08m-11,56.55v.9c-.09.89-.79,4.82-5.77,5.61-5.07-.81-5.7-4.88-5.77-5.62v-.89Zm0-5.24H802.51a5.24,5.24,0,0,0-5.24,5.24v.89c0,.16,0,.31,0,.49a11.67,11.67,0,0,0,10.66,10.38l.34,0,.31,0a11.67,11.67,0,0,0,10.66-10.39,4.52,4.52,0,0,0,0-.48v-.89a5.24,5.24,0,0,0-5.24-5.24Z" style="fill:rgba(0, 0, 0, 0.4)"/><path d="M970.52,200c-5.92-.42-12.63-.9-16.77,3.34a39.51,39.51,0,0,0-4.31,5.51,25.62,25.62,0,0,1-4.85,5.75c-.94.76-2.72,1.95-4,1.33s-2.52-3-2.55-7.14c-.08-11.61,8.9-27.77,29.15-37.69a48.33,48.33,0,0,1,21.34-4.82c11.14,0,21.07,3.55,26.49,7.62,3,2.29,3.93,4.22,3.77,5.18s-1.71,2.05-4.09,2.78a18.85,18.85,0,0,1-8,.7,42.14,42.14,0,0,0-6.69,0c-5,.39-8.79,5.31-12.49,10.06-2.32,3-4.72,6.07-6.67,6.91-2.48,1.07-6.46.79-10.3.52m60,44.19h-30.33L984,203.42c2.61-1.63,4.95-4.62,7.4-7.77,2.89-3.71,6.16-7.92,8.93-8.14a37.61,37.61,0,0,1,6,.05,23.73,23.73,0,0,0,9.77-.91c5.57-1.7,7.19-4.58,7.56-6.7.58-3.28-1.44-6.85-5.69-10-9.18-6.9-29.89-12.5-49.18-5l-1.33-3.36a2.5,2.5,0,1,0-4.65,1.85l1.42,3.57c-10.25,5.16-18.57,12.24-24.09,20.52-4.65,7-7.19,14.56-7.15,21.33,0,5.77,2,10,5.41,11.62a6.88,6.88,0,0,0,3,.65,10.14,10.14,0,0,0,6.36-2.61,29.84,29.84,0,0,0,5.83-6.81,35.17,35.17,0,0,1,3.77-4.85c2.53-2.58,7.77-2.21,12.84-1.85a44.09,44.09,0,0,0,9.13,0l15.58,39.3c-11.83.69-22.58,4.67-29.93,11.18a2.5,2.5,0,1,0,3.32,3.74c7-6.2,18.1-9.92,29.79-10a2.47,2.47,0,0,0,.5.08,2.54,2.54,0,0,0,.6-.08h31.39a2.5,2.5,0,0,0,0-5" style="fill:rgba(0, 0, 0, 0.4)"/><path d="M1192.52,185.85c-1.71.42-3.49-.05-5.4-1.44l11.55-11.55h4.24c-2,4.87-5.82,11.87-10.39,13Zm-38.9,25a13.05,13.05,0,1,0,3.54,3.54l5.46-5.46a20.76,20.76,0,1,1-3.54-3.54Zm.76,10.82a8.07,8.07,0,1,1-4.41-7.17l-2.23,2.23a5.25,5.25,0,1,0,3.54,3.53l2.23-2.23a8,8,0,0,1,.88,3.63Zm25.3,0a33.41,33.41,0,1,1-11.62-25.26l-5.42,5.42a25.73,25.73,0,1,0,3.54,3.53l5.42-5.42a33.2,33.2,0,0,1,8.08,21.73Zm2.45-46.18c1.12-4.57,8.12-8.38,13-10.39v4.24l-11.55,11.55c-1.39-1.9-1.87-3.68-1.44-5.4Zm26.36-6.6a2.5,2.5,0,0,0-2-1h-6.36V161.5a2.5,2.5,0,0,0-3.25-2.39,53.56,53.56,0,0,0-8.63,3.72c-6.25,3.39-9.94,7.24-11,11.45-.84,3.41.08,6.82,2.74,10.15l-8.41,8.41a38.41,38.41,0,1,0,3.53,3.53l8.42-8.42a12.36,12.36,0,0,0,7.7,3,10.16,10.16,0,0,0,2.45-.3c4.21-1,8.06-4.73,11.45-11a53.57,53.57,0,0,0,3.72-8.63,2.5,2.5,0,0,0-.37-2.23Z" style="fill:rgba(0, 0, 0, 0.4)"/><path d="M1294.73,189.45h35.07v29.77h-35.07Zm6.46-4.71h20.92V163.9h-20.92Zm70.43,1.13c-2.55-2.68-6.15-4-10.69-4s-8.26,1.36-10.86,4a15,15,0,0,0-3.87,10l0,25.87c0,.12.71,11.88-5.49,18.47-2.74,2.92-6.53,4.4-11.26,4.4s-8.31-1.41-10.9-4.31c-4.34-4.86-4.72-12.66-4.63-16.36h18.29a2.36,2.36,0,0,0,2.36-2.36V187.09a2.36,2.36,0,0,0-2.36-2.36h-5.33V161.55a2.36,2.36,0,0,0-2.36-2.36h-25.65a2.36,2.36,0,0,0-2.36,2.36v23.19h-4.1a2.36,2.36,0,0,0-2.36,2.36v34.48a2.36,2.36,0,0,0,2.36,2.36h16.78c-.11,4.42.42,13.43,5.82,19.48,3.49,3.92,8.36,5.9,14.45,5.9s11-2,14.71-5.89c7.59-8.07,6.8-21.44,6.76-21.85l0-25.77a10.31,10.31,0,0,1,2.57-6.7c1.68-1.71,4.18-2.57,7.44-2.57s5.62.86,7.24,2.54c2.64,2.75,2.48,7,2.47,7.12v63.45a2.36,2.36,0,0,0,4.73,0V196.33c0-.25.3-6.22-3.74-10.46Z" style="fill:rgba(0, 0, 0, 0.4);stroke:rgba(0, 0, 0, 0.4);stroke-width:2px"/><path d="M1321.65,196h-18.3a2.5,2.5,0,0,0,0,5h18.3a2.5,2.5,0,0,0,0-5m0,11h-18.3a2.5,2.5,0,0,0,0,5h18.3a2.5,2.5,0,0,0,0-5" style="fill:rgba(0, 0, 0, 0.4);stroke:rgba(0, 0, 0, 0.4);stroke-width:2px"/><path d="M766.16,343.53a6.1,6.1,0,1,1,6.1-6.1,6.1,6.1,0,0,1-6.1,6.1m0-17.25a11.16,11.16,0,1,0,11.16,11.16,11.17,11.17,0,0,0-11.16-11.16m0-13.27a6.1,6.1,0,1,1,6.1-6.1,6.1,6.1,0,0,1-6.1,6.1m0-17.25a11.16,11.16,0,1,0,11.16,11.16,11.17,11.17,0,0,0-11.16-11.16m0,78.31a6.1,6.1,0,1,1,6.1-6.1,6.1,6.1,0,0,1-6.1,6.1m0-17.25A11.16,11.16,0,1,0,777.31,368a11.17,11.17,0,0,0-11.16-11.16m33.79-49.9a6.1,6.1,0,1,1-6.1-6.1,6.1,6.1,0,0,1,6.1,6.1m-6.1-11.16A11.16,11.16,0,1,0,805,306.9a11.17,11.17,0,0,0-11.16-11.16m6.1,41.68a6.1,6.1,0,1,1-6.1-6.1,6.1,6.1,0,0,1,6.1,6.1m-6.1-11.16A11.16,11.16,0,1,0,805,337.43a11.17,11.17,0,0,0-11.16-11.16m6.1,41.68a6.1,6.1,0,1,1-6.1-6.1,6.1,6.1,0,0,1,6.1,6.1m-6.1-11.16A11.16,11.16,0,1,0,805,368a11.17,11.17,0,0,0-11.16-11.16m33.79-49.9a6.1,6.1,0,1,1-6.1-6.1,6.1,6.1,0,0,1,6.1,6.1m-6.1-11.16A11.16,11.16,0,1,0,832.7,306.9a11.17,11.17,0,0,0-11.16-11.16m6.1,72.21a6.1,6.1,0,1,1-6.1-6.1,6.1,6.1,0,0,1,6.1,6.1m-6.1-11.16A11.16,11.16,0,1,1,810.39,368,11.17,11.17,0,0,1,821.55,356.8Zm27.69-30.53a11.16,11.16,0,1,1-11.16,11.16A11.17,11.17,0,0,1,849.24,326.27Z" style="fill:rgba(0, 0, 0, 0.4)"/><path d="M1364.83,318.76c0,3.2-1.81,3.73-2.85,3.77h-16.69a2.5,2.5,0,0,0-2.5,2.5v37.58h-20V341a2.5,2.5,0,0,0-2.5-2.5h-16.48c-.47,0-2.85-.18-2.85-3.77V321.24c0-.89.25-3.79,2.85-3.79s2.84,2.9,2.85,3.77v5.86c0,1.4,0,2.85,1.1,4a4,4,0,0,0,3,1.1h9.56a2.5,2.5,0,0,0,2.5-2.5V305.13c0-.12.74-12.13,10-12.13s10,12,10,12.13v8.54a2.5,2.5,0,0,0,2.5,2.5h9.78a4,4,0,0,0,3-1.1c1.13-1.14,1.12-2.59,1.1-4v-5.84c0-.89.25-3.79,2.85-3.79s2.84,2.9,2.85,3.77ZM1346.75,383h-27.89l-2.69-15.39h33.27ZM1362,296.45c-5.76,0-7.85,5.24-7.85,8.77v5.95h-6.35v-6c0-3.4-2.67-17.13-15-17.13s-15,13.73-15,17.13v22h-6.13v-5.95c0-3.52-2.09-8.77-7.85-8.77s-7.85,5.25-7.85,8.77v13.54c0,6.43,4.69,8.77,7.85,8.77h14v19.08h-4.63a2.5,2.5,0,0,0-2.46,2.93l3.56,20.39a2.5,2.5,0,0,0,2.46,2.07h32.09a2.5,2.5,0,0,0,2.46-2.07l3.57-20.39a2.5,2.5,0,0,0-2.46-2.93h-4.63V349.12a2.47,2.47,0,0,0,.22-1V327.53h14c3.15,0,7.85-2.34,7.85-8.77V305.22c0-3.53-2.09-8.77-7.85-8.77Z" style="fill:rgba(0, 0, 0, 0.4)"/><path d="M1010.78,357.51c-13.51,12.53-20.44,16.57-22.67,17.68-2.27-1.13-9.2-5.17-22.68-17.68-16.36-15.17-13-29.64-12.79-30.34,0-.13,3-12.87,16.18-14,12.93-1.13,16.51,8.37,16.66,8.8,0,0,0,.09.06.14s.08.18.12.26l.14.23.16.21.18.2.2.18.22.16.23.14.26.12.15.07.1,0,.28.06.25,0h.54l.27,0,.27-.06.1,0,.16-.07.24-.11.25-.15.2-.15.21-.19.17-.19.17-.23.13-.22a2.62,2.62,0,0,0,.12-.27s0-.09.07-.14,3.57-9.91,16.65-8.78,16.07,13.5,16.2,14.1,3.55,15.08-12.81,30.25M1029,326c.17.62,4.48,18.06-14.44,35.6-17.86,16.56-24.89,19.06-25.64,19.3a2.8,2.8,0,0,1-.83.13h0a2.8,2.8,0,0,1-.82-.12h0c-.89-.29-8-2.93-25.6-19.28-18.91-17.54-14.6-35-14.41-35.71,1.25-5.72,7.32-17,21.11-18.24,10-.86,16.38,3.53,19.76,7.86,3.38-4.33,9.72-8.72,19.76-7.86C1021.65,308.82,1027.72,320.15,1029,326Zm-84-16.07a2.27,2.27,0,0,1,.62,3.08,2.13,2.13,0,0,1-1.8,1,2.09,2.09,0,0,1-1.18-.36l-6.7-4.55a2.27,2.27,0,0,1-.62-3.08,2.1,2.1,0,0,1,3-.64Zm8.79-6-4.47-7.35a2.36,2.36,0,0,1,.72-3.2,2.23,2.23,0,0,1,3.12.74l4.47,7.35a2.36,2.36,0,0,1-.72,3.2,2.21,2.21,0,0,1-1.2.35A2.25,2.25,0,0,1,953.81,303.91Zm-14,20.06a2.29,2.29,0,0,1,2,2.55,2.26,2.26,0,0,1-2.22,2l-.26,0-8.29-1a2.29,2.29,0,0,1-2-2.55,2.25,2.25,0,0,1,2.48-2Z" style="fill:rgba(0, 0, 0, 0.4)"/><path d="M1006.95,320.12a2.21,2.21,0,1,0-1.47,4.16c.32.11,7.8,2.84,8.07,10.59a2.22,2.22,0,0,0,2.22,2.13h.08a2.21,2.21,0,0,0,2.15-2.28c-.38-10.81-10.61-14.45-11-14.6" style="fill:rgba(0, 0, 0, 0.4)"/><path d="M1121,322a2.3,2.3,0,0,1,2.62,1.89l.39,2.51A2.25,2.25,0,0,1,1122,329l-.35,0a2.29,2.29,0,0,1-2.28-1.91l-.39-2.51A2.25,2.25,0,0,1,1121,322Zm5.07,28a2.38,2.38,0,0,1,2.72,1.93l.22,1.42a2.31,2.31,0,0,1-2,2.6l-.36,0a2.36,2.36,0,0,1-2.36-2l-.22-1.42A2.31,2.31,0,0,1,1126,350ZM1124,336a2.31,2.31,0,0,1,2.62,1.89l.39,2.51A2.25,2.25,0,0,1,1125,343l-.35,0a2.29,2.29,0,0,1-2.28-1.91l-.39-2.51A2.25,2.25,0,0,1,1124,336Zm16.54,28a2.4,2.4,0,0,1-2.5-2.29v-1.43a2.51,2.51,0,0,1,5,0v1.43A2.4,2.4,0,0,1,1140.5,364Zm0-14a2.38,2.38,0,0,1-2.5-2.23v-2.53a2.52,2.52,0,0,1,5,0v2.53A2.38,2.38,0,0,1,1140.5,350Zm0-14a2.38,2.38,0,0,1-2.5-2.23v-2.53a2.52,2.52,0,0,1,5,0v2.53A2.38,2.38,0,0,1,1140.5,336Zm0-14a2.4,2.4,0,0,1-2.5-2.29v-1.43a2.51,2.51,0,0,1,5,0v1.43A2.4,2.4,0,0,1,1140.5,322Zm-13.06,43.27a2.25,2.25,0,0,1,.66,4.45L1113.2,372l-.33,0a2.22,2.22,0,0,1-1.32-.44,2.25,2.25,0,0,1-.88-1.48l-3-20.46a2.25,2.25,0,0,1,1.4-2.43c.53-.21,5.29-2.29,4.49-7.3a6,6,0,0,0-6.15-5.2h0a2.23,2.23,0,0,1-2.2-1.92L1102,311.84a2.27,2.27,0,0,1,.41-1.67,2.23,2.23,0,0,1,1.46-.89l14.9-2.26a8.63,8.63,0,0,1,2.84,4l.21,1.39a2.24,2.24,0,0,1-1.87,2.55l-.33,0a2.23,2.23,0,0,1-2.2-1.92l-.18-1.23-10.5,1.59,2.52,17a10.27,10.27,0,0,1,8.64,8.81c.93,5.82-2.68,9.62-5.64,11.39l2.47,16.62ZM1213,332.79c-.53.08-5.32.92-5.37,6s5,6.35,5.58,6.49a2.25,2.25,0,0,1,1.74,2.17V368a2.24,2.24,0,0,1-2.25,2.23h-72.22a2.23,2.23,0,1,1,0-4.46h70V349.09c-3.22-1.3-7.38-4.48-7.32-10.33a10.25,10.25,0,0,1,7.32-9.92v-17h-70a2.23,2.23,0,1,1,0-4.46h72.22a2.24,2.24,0,0,1,2.25,2.23v21A2.24,2.24,0,0,1,1213,332.79Zm-32.34,8.64a2.22,2.22,0,0,0-.65,2l1.27,7.37-6.7-3.37a2.26,2.26,0,0,0-2,0l-6.71,3.37,1.27-7.37a2.22,2.22,0,0,0-.65-2l-5.38-5.21,7.5-1a2.25,2.25,0,0,0,1.7-1.23l3.28-6.66,3.37,6.78a2.24,2.24,0,0,0,1.69,1.22l7.29,1Zm12.24-7.37a2.24,2.24,0,0,0-1.82-1.52L1180.44,331l-4.87-9.79a2.24,2.24,0,0,0-2-1.24h0a2.24,2.24,0,0,0-2,1.25l-4.76,9.67-10.85,1.51a2.23,2.23,0,0,0-1.25,3.81l7.81,7.57-1.82,10.58a2.23,2.23,0,0,0,.88,2.17,2.25,2.25,0,0,0,2.35.2l9.67-4.86,9.67,4.86a2.24,2.24,0,0,0,3.22-2.37l-1.82-10.58,7.7-7.45a2.22,2.22,0,0,0,.57-2.29Z" style="fill:rgba(0, 0, 0, 0.4);stroke:rgba(0, 0, 0, 0.4);stroke-width:2px"/><path d="M266,305.15l-3.51-5.63a2.62,2.62,0,0,1,4.44-2.77l3.51,5.63a2.62,2.62,0,1,1-4.44,2.77Zm-18.71,22.15a2.62,2.62,0,1,1,.6-5.2l6.59.76a2.62,2.62,0,0,1-.3,5.21l-.31,0Zm13.46-13.84a2.62,2.62,0,0,1-4,2.72l-5.55-3.64a2.62,2.62,0,0,1,2.87-4.38l5.55,3.64A2.6,2.6,0,0,1,260.77,313.47Zm26.61,3.77c.37.13,9.09,3.27,9.41,12.56a2.62,2.62,0,0,1-2.52,2.7h-.09a2.61,2.61,0,0,1-2.61-2.53c-.2-5.7-5.68-7.72-5.91-7.81a2.62,2.62,0,0,1,1.73-4.94Zm30.31,19a2.62,2.62,0,1,1,0,5.23H311a2.62,2.62,0,1,1,0-5.23Zm-2.91-23.71-5.55,3.64a2.62,2.62,0,0,1-2.87-4.38l5.55-3.64a2.62,2.62,0,1,1,2.87,4.38ZM296.37,306a2.62,2.62,0,0,1-.83-3.6l3.51-5.63a2.62,2.62,0,1,1,4.44,2.77L300,305.15a2.61,2.61,0,0,1-3.6.84Zm-12.94-2.12a2.61,2.61,0,0,1-2.58-2.66l.12-6.64a2.62,2.62,0,0,1,5.23.1l-.12,6.64a2.63,2.63,0,0,1-2.61,2.57ZM321,324.41a2.62,2.62,0,0,1-2.3,2.9l-6.59.76-.3,0a2.62,2.62,0,0,1-.3-5.21l6.59-.76a2.61,2.61,0,0,1,2.9,2.3Zm-66,11.85a2.62,2.62,0,1,1,0,5.23h-6.64a2.62,2.62,0,1,1,0-5.23Zm41.6,6-.29.44c-.2.29-.4.59-.59.87l-.36.58c-.14.22-.28.45-.4.66s-.27.49-.4.73l-.25.45c-.16.3-.3.58-.44.87l-.12.23a15.76,15.76,0,0,0-1.86,7.17c0,.1,0,.19,0,.26V357H274v-2.39c.11-1.3,0-6.14-5.7-13.68-4.84-6.39-1.66-17.6-1.62-17.73.11-.4,2.81-9.83,16.22-10q1.26,0,2.4.13c11.37,1.17,13.75,9.53,13.86,9.92,0,.11,3.22,11.24-1.64,17.66q-.53.7-1,1.38m3.52-27.53c-2.71-2.92-7.67-6.41-16-6.77v0h-1.41l-.83,0v0c-16.42.74-20.08,13.68-20.1,13.77-.17.56-4,13.76,2.49,22.31,4.8,6.34,4.66,10,4.65,10.08V357a5.24,5.24,0,0,0,5.24,5.24h17.79a5.24,5.24,0,0,0,5.24-5.24v-2.8s-.18-3.73,4.65-10.11c6.45-8.52,2.73-21.51,2.51-22.24a18.21,18.21,0,0,0-4.16-7.08m-11,56.55v.9c-.09.89-.79,4.82-5.77,5.61-5.07-.81-5.7-4.88-5.77-5.62v-.89Zm0-5.24H277.51a5.24,5.24,0,0,0-5.24,5.24v.89c0,.16,0,.31,0,.49a11.67,11.67,0,0,0,10.66,10.38l.34,0,.31,0a11.67,11.67,0,0,0,10.66-10.39,4.52,4.52,0,0,0,0-.48v-.89a5.24,5.24,0,0,0-5.24-5.24Z" style="fill:rgba(0, 0, 0, 0.4)"/><path d="M620.52,328c-5.92-.42-12.63-.9-16.77,3.34a39.51,39.51,0,0,0-4.31,5.51,25.62,25.62,0,0,1-4.85,5.75c-.94.76-2.72,1.95-4,1.33s-2.52-3-2.55-7.14c-.08-11.61,8.9-27.77,29.15-37.69a48.33,48.33,0,0,1,21.34-4.82c11.14,0,21.07,3.55,26.49,7.62,3,2.29,3.93,4.22,3.77,5.18s-1.71,2.05-4.09,2.78a18.85,18.85,0,0,1-8,.7,42.14,42.14,0,0,0-6.69,0c-5,.39-8.79,5.31-12.49,10.06-2.32,3-4.72,6.07-6.67,6.91-2.48,1.07-6.46.79-10.3.52m60,44.19H650.21L634,331.42c2.61-1.63,4.95-4.62,7.4-7.77,2.89-3.71,6.16-7.92,8.93-8.14a37.61,37.61,0,0,1,6,.05,23.73,23.73,0,0,0,9.77-.91c5.57-1.7,7.19-4.58,7.56-6.7.58-3.28-1.44-6.85-5.69-10-9.18-6.9-29.89-12.5-49.18-5l-1.33-3.36a2.5,2.5,0,1,0-4.65,1.85l1.42,3.57c-10.25,5.16-18.57,12.24-24.09,20.52-4.65,7-7.19,14.56-7.15,21.33,0,5.77,2,10,5.41,11.62a6.88,6.88,0,0,0,3,.65,10.14,10.14,0,0,0,6.36-2.61,29.84,29.84,0,0,0,5.83-6.81,35.17,35.17,0,0,1,3.77-4.85c2.53-2.58,7.77-2.21,12.84-1.85a44.09,44.09,0,0,0,9.13,0l15.58,39.3c-11.83.69-22.58,4.67-29.93,11.18a2.5,2.5,0,1,0,3.32,3.74c7-6.2,18.1-9.92,29.79-10a2.47,2.47,0,0,0,.5.08,2.54,2.54,0,0,0,.6-.08h31.39a2.5,2.5,0,0,0,0-5" style="fill:rgba(0, 0, 0, 0.4)"/><path d="M142.52,313.85c-1.71.42-3.49-.05-5.4-1.44l11.55-11.55h4.24c-2,4.87-5.82,11.87-10.39,13Zm-38.9,25a13.05,13.05,0,1,0,3.54,3.54l5.46-5.46a20.76,20.76,0,1,1-3.54-3.54Zm.76,10.82a8.07,8.07,0,1,1-4.41-7.17l-2.23,2.23a5.25,5.25,0,1,0,3.53,3.53l2.23-2.23a8,8,0,0,1,.88,3.63Zm25.3,0a33.41,33.41,0,1,1-11.62-25.26l-5.42,5.42a25.73,25.73,0,1,0,3.54,3.53l5.42-5.42a33.2,33.2,0,0,1,8.08,21.73Zm2.45-46.18c1.12-4.57,8.12-8.38,13-10.39v4.24l-11.55,11.55c-1.39-1.9-1.87-3.68-1.44-5.4Zm26.36-6.6a2.5,2.5,0,0,0-2-1h-6.36V289.5a2.5,2.5,0,0,0-3.25-2.38,53.56,53.56,0,0,0-8.63,3.72c-6.25,3.39-9.94,7.24-11,11.45-.84,3.41.08,6.82,2.74,10.15l-8.41,8.41a38.41,38.41,0,1,0,3.53,3.53l8.42-8.42a12.36,12.36,0,0,0,7.7,3,10.16,10.16,0,0,0,2.45-.3c4.21-1,8.06-4.73,11.45-11a53.57,53.57,0,0,0,3.72-8.63,2.5,2.5,0,0,0-.37-2.23Z" style="fill:rgba(0, 0, 0, 0.4)"/><path d="M419.73,317.45H454.8v29.77H419.73Zm6.46-4.71h20.92V291.9H426.19Zm70.43,1.13c-2.55-2.68-6.15-4-10.69-4s-8.26,1.36-10.86,4a15,15,0,0,0-3.87,10l0,25.87c0,.12.71,11.88-5.49,18.47-2.74,2.92-6.53,4.4-11.26,4.4s-8.31-1.41-10.9-4.31c-4.34-4.86-4.72-12.66-4.63-16.36h18.29a2.36,2.36,0,0,0,2.36-2.36V315.09a2.36,2.36,0,0,0-2.36-2.36h-5.33V289.55a2.36,2.36,0,0,0-2.36-2.36H423.83a2.36,2.36,0,0,0-2.36,2.36v23.19h-4.1a2.36,2.36,0,0,0-2.36,2.36v34.48a2.36,2.36,0,0,0,2.36,2.36h16.78c-.11,4.42.42,13.43,5.82,19.48,3.49,3.92,8.36,5.9,14.45,5.9s11-2,14.71-5.89c7.59-8.07,6.8-21.44,6.76-21.85l0-25.77a10.31,10.31,0,0,1,2.57-6.7c1.68-1.71,4.18-2.57,7.44-2.57s5.62.86,7.24,2.54c2.64,2.75,2.48,7,2.47,7.12v63.45a2.36,2.36,0,0,0,4.73,0V324.33c0-.25.3-6.22-3.74-10.46Z" style="fill:rgba(0, 0, 0, 0.4);stroke:rgba(0, 0, 0, 0.4);stroke-width:2px"/><path d="M446.65,324h-18.3a2.5,2.5,0,0,0,0,5h18.3a2.5,2.5,0,0,0,0-5m0,11h-18.3a2.5,2.5,0,0,0,0,5h18.3a2.5,2.5,0,0,0,0-5" style="fill:rgba(0, 0, 0, 0.4);stroke:rgba(0, 0, 0, 0.4);stroke-width:2px"/><path d="M766.16,87.53a6.1,6.1,0,1,1,6.1-6.1,6.1,6.1,0,0,1-6.1,6.1m0-17.25a11.16,11.16,0,1,0,11.16,11.16,11.17,11.17,0,0,0-11.16-11.16m0-13.27a6.1,6.1,0,1,1,6.1-6.1,6.1,6.1,0,0,1-6.1,6.1m0-17.25A11.16,11.16,0,1,0,777.31,50.9a11.17,11.17,0,0,0-11.16-11.16m0,78.31a6.1,6.1,0,1,1,6.1-6.1,6.1,6.1,0,0,1-6.1,6.1m0-17.25A11.16,11.16,0,1,0,777.31,112a11.17,11.17,0,0,0-11.16-11.16m33.79-49.9a6.1,6.1,0,1,1-6.1-6.1,6.1,6.1,0,0,1,6.1,6.1m-6.1-11.16A11.16,11.16,0,1,0,805,50.9a11.17,11.17,0,0,0-11.16-11.16m6.1,41.68a6.1,6.1,0,1,1-6.1-6.1,6.1,6.1,0,0,1,6.1,6.1m-6.1-11.16A11.16,11.16,0,1,0,805,81.43a11.17,11.17,0,0,0-11.16-11.16m6.1,41.68a6.1,6.1,0,1,1-6.1-6.1,6.1,6.1,0,0,1,6.1,6.1m-6.1-11.16A11.16,11.16,0,1,0,805,112a11.17,11.17,0,0,0-11.16-11.16m33.79-49.9a6.1,6.1,0,1,1-6.1-6.1,6.1,6.1,0,0,1,6.1,6.1m-6.1-11.16A11.16,11.16,0,1,0,832.7,50.9a11.17,11.17,0,0,0-11.16-11.16m6.1,72.21a6.1,6.1,0,1,1-6.1-6.1,6.1,6.1,0,0,1,6.1,6.1m-6.1-11.16A11.16,11.16,0,1,1,810.39,112,11.17,11.17,0,0,1,821.55,100.8Zm27.69-30.53a11.16,11.16,0,1,1-11.16,11.16A11.17,11.17,0,0,1,849.24,70.27Z" style="fill:rgba(0, 0, 0, 0.4)"/><path d="M1364.83,62.76c0,3.2-1.81,3.73-2.85,3.77h-16.69a2.5,2.5,0,0,0-2.5,2.5v37.58h-20V85a2.5,2.5,0,0,0-2.5-2.5h-16.48c-.47,0-2.85-.18-2.85-3.77V65.24c0-.89.25-3.79,2.85-3.79s2.84,2.9,2.85,3.77v5.86c0,1.4,0,2.85,1.1,4a4,4,0,0,0,3,1.1h9.56a2.5,2.5,0,0,0,2.5-2.5V49.13c0-.12.74-12.13,10-12.13s10,12,10,12.13v8.54a2.5,2.5,0,0,0,2.5,2.5h9.78a4,4,0,0,0,3-1.1c1.13-1.14,1.12-2.59,1.1-4V49.24c0-.89.25-3.79,2.85-3.79s2.84,2.9,2.85,3.77ZM1346.75,127h-27.89l-2.69-15.39h33.27ZM1362,40.45c-5.76,0-7.85,5.24-7.85,8.77v5.95h-6.35v-6c0-3.4-2.67-17.13-15-17.13s-15,13.73-15,17.13v22h-6.13V65.22c0-3.52-2.09-8.77-7.85-8.77s-7.85,5.25-7.85,8.77V78.76c0,6.43,4.69,8.77,7.85,8.77h14v19.08h-4.63a2.5,2.5,0,0,0-2.46,2.93l3.56,20.39a2.5,2.5,0,0,0,2.46,2.07h32.09a2.5,2.5,0,0,0,2.46-2.07l3.57-20.39a2.5,2.5,0,0,0-2.46-2.93h-4.63V93.12a2.47,2.47,0,0,0,.22-1V71.53h14c3.15,0,7.85-2.34,7.85-8.77V49.22c0-3.53-2.09-8.77-7.85-8.77Z" style="fill:rgba(0, 0, 0, 0.4)"/><path d="M1010.78,101.51c-13.51,12.53-20.44,16.57-22.67,17.68-2.27-1.13-9.2-5.17-22.68-17.68-16.36-15.17-13-29.64-12.79-30.34,0-.13,3-12.87,16.18-14,12.93-1.13,16.51,8.37,16.66,8.8,0,0,0,.09.06.14s.08.18.12.26l.14.23.16.21.18.2.2.18.22.16.23.14.26.12.15.07.1,0,.28.06.25,0h.54l.27,0,.27-.06.1,0,.16-.07.24-.11.25-.15.2-.15.21-.19.17-.19.17-.23.13-.22a2.62,2.62,0,0,0,.12-.27s0-.09.07-.14,3.57-9.91,16.65-8.78,16.07,13.5,16.2,14.1,3.55,15.08-12.81,30.25M1029,70c.17.62,4.48,18.06-14.44,35.6-17.86,16.56-24.89,19.06-25.64,19.3a2.8,2.8,0,0,1-.83.13h0a2.8,2.8,0,0,1-.82-.12h0c-.89-.29-8-2.93-25.6-19.28C942.72,88,947,70.6,947.23,69.87c1.25-5.72,7.32-17,21.11-18.24,10-.86,16.38,3.53,19.76,7.86,3.38-4.33,9.72-8.72,19.76-7.86C1021.65,52.82,1027.72,64.15,1029,70ZM945,53.91a2.27,2.27,0,0,1,.62,3.08,2.13,2.13,0,0,1-1.8,1,2.09,2.09,0,0,1-1.18-.36L936,53.09a2.27,2.27,0,0,1-.62-3.08,2.1,2.1,0,0,1,3-.64Zm8.79-6-4.47-7.35a2.36,2.36,0,0,1,.72-3.2,2.23,2.23,0,0,1,3.12.74l4.47,7.35a2.36,2.36,0,0,1-.72,3.2,2.21,2.21,0,0,1-1.2.35A2.25,2.25,0,0,1,953.81,47.91ZM939.79,68a2.29,2.29,0,0,1,2,2.55,2.26,2.26,0,0,1-2.22,2l-.26,0-8.29-1A2.29,2.29,0,0,1,929,69a2.25,2.25,0,0,1,2.48-2Z" style="fill:rgba(0, 0, 0, 0.4)"/><path d="M1006.95,64.12a2.21,2.21,0,1,0-1.47,4.16c.32.11,7.8,2.84,8.07,10.59a2.22,2.22,0,0,0,2.22,2.13h.08a2.21,2.21,0,0,0,2.15-2.28c-.38-10.81-10.61-14.45-11-14.6" style="fill:rgba(0, 0, 0, 0.4)"/><path d="M1121,66a2.3,2.3,0,0,1,2.62,1.89l.39,2.51A2.25,2.25,0,0,1,1122,73l-.35,0a2.29,2.29,0,0,1-2.28-1.91l-.39-2.51A2.25,2.25,0,0,1,1121,66ZM1126,94a2.38,2.38,0,0,1,2.72,1.93l.22,1.42a2.31,2.31,0,0,1-2,2.6l-.36,0a2.36,2.36,0,0,1-2.36-2l-.22-1.42A2.31,2.31,0,0,1,1126,94ZM1124,80a2.31,2.31,0,0,1,2.62,1.89l.39,2.51A2.25,2.25,0,0,1,1125,87l-.35,0a2.29,2.29,0,0,1-2.28-1.91l-.39-2.51A2.25,2.25,0,0,1,1124,80Zm16.54,28a2.4,2.4,0,0,1-2.5-2.29v-1.43a2.51,2.51,0,0,1,5,0v1.43A2.4,2.4,0,0,1,1140.5,108Zm0-14a2.38,2.38,0,0,1-2.5-2.23V89.23a2.52,2.52,0,0,1,5,0v2.53A2.38,2.38,0,0,1,1140.5,94Zm0-14a2.38,2.38,0,0,1-2.5-2.23V75.23a2.52,2.52,0,0,1,5,0v2.53A2.38,2.38,0,0,1,1140.5,80Zm0-14a2.4,2.4,0,0,1-2.5-2.29V62.29a2.51,2.51,0,0,1,5,0v1.43A2.4,2.4,0,0,1,1140.5,66Zm-13.06,43.27a2.25,2.25,0,0,1,.66,4.45L1113.2,116l-.33,0a2.22,2.22,0,0,1-1.32-.44,2.25,2.25,0,0,1-.88-1.48l-3-20.46a2.25,2.25,0,0,1,1.4-2.43c.53-.21,5.29-2.29,4.49-7.3a6,6,0,0,0-6.15-5.2h0a2.23,2.23,0,0,1-2.2-1.92L1102,55.84a2.27,2.27,0,0,1,.41-1.67,2.23,2.23,0,0,1,1.46-.89L1118.8,51a2.23,2.23,0,0,1,2.42,3,2.21,2.21,0,0,1,.42,1l.21,1.39a2.24,2.24,0,0,1-1.87,2.55l-.33,0a2.23,2.23,0,0,1-2.2-1.92l-.18-1.23-10.5,1.59,2.52,17a10.27,10.27,0,0,1,8.64,8.81c.93,5.82-2.68,9.62-5.64,11.39l2.47,16.62ZM1213,76.79c-.53.08-5.32.92-5.37,6s5,6.35,5.58,6.49a2.25,2.25,0,0,1,1.74,2.17V112a2.24,2.24,0,0,1-2.25,2.23h-72.22a2.23,2.23,0,1,1,0-4.46h70V93.09c-3.22-1.3-7.38-4.48-7.32-10.33a10.25,10.25,0,0,1,7.32-9.92v-17h-70a2.23,2.23,0,1,1,0-4.46h72.22a2.24,2.24,0,0,1,2.25,2.23v21A2.24,2.24,0,0,1,1213,76.79Zm-32.34,8.64a2.22,2.22,0,0,0-.65,2l1.27,7.37-6.7-3.37a2.26,2.26,0,0,0-2,0l-6.71,3.37,1.27-7.37a2.22,2.22,0,0,0-.65-2l-5.38-5.21,7.5-1a2.25,2.25,0,0,0,1.7-1.23l3.28-6.66,3.37,6.78a2.24,2.24,0,0,0,1.69,1.22l7.29,1Zm12.24-7.37a2.24,2.24,0,0,0-1.82-1.52L1180.44,75l-4.87-9.79a2.24,2.24,0,0,0-2-1.24h0a2.24,2.24,0,0,0-2,1.25l-4.76,9.67-10.85,1.51a2.23,2.23,0,0,0-1.25,3.81l7.81,7.57-1.82,10.58a2.23,2.23,0,0,0,.88,2.17,2.25,2.25,0,0,0,2.35.2l9.67-4.86,9.67,4.86a2.24,2.24,0,0,0,3.22-2.37l-1.82-10.58,7.7-7.45a2.22,2.22,0,0,0,.57-2.29Z" style="fill:rgba(0, 0, 0, 0.4);stroke:rgba(0, 0, 0, 0.4);stroke-width:2px"/><path d="M266,49.15l-3.51-5.63a2.62,2.62,0,0,1,4.44-2.77l3.51,5.63A2.62,2.62,0,1,1,266,49.15ZM247.32,71.31a2.62,2.62,0,1,1,.6-5.2l6.59.76a2.62,2.62,0,0,1-.3,5.21l-.31,0Zm13.46-13.84a2.62,2.62,0,0,1-4,2.72l-5.55-3.64a2.62,2.62,0,0,1,2.87-4.38l5.55,3.64A2.6,2.6,0,0,1,260.77,57.47Zm26.61,3.77c.37.13,9.09,3.27,9.41,12.56a2.62,2.62,0,0,1-2.52,2.7h-.09A2.61,2.61,0,0,1,291.56,74c-.2-5.7-5.68-7.72-5.91-7.81a2.62,2.62,0,0,1,1.73-4.94Zm30.31,19a2.62,2.62,0,1,1,0,5.23H311a2.62,2.62,0,1,1,0-5.23Zm-2.91-23.71-5.55,3.64a2.62,2.62,0,0,1-2.87-4.38l5.55-3.64a2.62,2.62,0,1,1,2.87,4.38ZM296.37,50a2.62,2.62,0,0,1-.83-3.6l3.51-5.63a2.62,2.62,0,1,1,4.44,2.77L300,49.15a2.61,2.61,0,0,1-3.6.84Zm-12.94-2.12a2.61,2.61,0,0,1-2.58-2.66l.12-6.64a2.62,2.62,0,0,1,5.23.1l-.12,6.64a2.63,2.63,0,0,1-2.61,2.57ZM321,68.41a2.62,2.62,0,0,1-2.3,2.9l-6.59.76-.3,0a2.62,2.62,0,0,1-.3-5.21l6.59-.76a2.61,2.61,0,0,1,2.9,2.3ZM255,80.26a2.62,2.62,0,1,1,0,5.23h-6.64a2.62,2.62,0,1,1,0-5.23Zm41.6,6-.29.44c-.2.29-.4.59-.59.87l-.36.58c-.14.22-.28.45-.4.66s-.27.49-.4.73l-.25.45c-.16.3-.3.58-.44.87l-.12.23a15.76,15.76,0,0,0-1.86,7.17c0,.1,0,.19,0,.26V101H274V98.61c.11-1.3,0-6.14-5.7-13.68-4.84-6.39-1.66-17.6-1.62-17.73.11-.4,2.81-9.83,16.22-10q1.26,0,2.4.13c11.37,1.17,13.75,9.53,13.86,9.92,0,.11,3.22,11.24-1.64,17.66q-.53.7-1,1.38m3.52-27.53c-2.71-2.92-7.67-6.41-16-6.77v0h-1.41l-.83,0v0c-16.42.74-20.08,13.68-20.1,13.77-.17.56-4,13.76,2.49,22.31,4.8,6.34,4.66,10,4.65,10.08V101a5.24,5.24,0,0,0,5.24,5.24h17.79a5.24,5.24,0,0,0,5.24-5.24V98.2s-.18-3.73,4.65-10.11c6.45-8.52,2.73-21.51,2.51-22.24a18.21,18.21,0,0,0-4.16-7.08m-11,56.55v.9c-.09.89-.79,4.82-5.77,5.61-5.07-.81-5.7-4.88-5.77-5.62v-.89Zm0-5.24H277.51a5.24,5.24,0,0,0-5.24,5.24v.89c0,.16,0,.31,0,.49a11.67,11.67,0,0,0,10.66,10.38l.34,0,.31,0a11.67,11.67,0,0,0,10.66-10.39,4.52,4.52,0,0,0,0-.48v-.89a5.24,5.24,0,0,0-5.24-5.24Z" style="fill:rgba(0, 0, 0, 0.4)"/><path d="M620.52,72c-5.92-.42-12.63-.9-16.77,3.34a39.51,39.51,0,0,0-4.31,5.51,25.62,25.62,0,0,1-4.85,5.75c-.94.76-2.72,1.95-4,1.33s-2.52-3-2.55-7.14c-.08-11.61,8.9-27.77,29.15-37.69a48.33,48.33,0,0,1,21.34-4.82c11.14,0,21.07,3.55,26.49,7.62,3,2.29,3.93,4.22,3.77,5.18s-1.71,2.05-4.09,2.78a18.85,18.85,0,0,1-8,.7,42.14,42.14,0,0,0-6.69,0c-5,.39-8.79,5.31-12.49,10.06-2.32,3-4.72,6.07-6.67,6.91-2.48,1.07-6.46.79-10.3.52m60,44.19H650.21L634,75.42c2.61-1.63,4.95-4.62,7.4-7.77,2.89-3.71,6.16-7.92,8.93-8.14a37.61,37.61,0,0,1,6,.05,23.73,23.73,0,0,0,9.77-.91c5.57-1.7,7.19-4.58,7.56-6.7.58-3.28-1.44-6.85-5.69-10-9.18-6.9-29.89-12.5-49.18-5l-1.33-3.36a2.5,2.5,0,1,0-4.65,1.85L614.23,39C604,44.15,595.66,51.23,590.15,59.51c-4.65,7-7.19,14.56-7.15,21.33,0,5.77,2,10,5.41,11.62a6.88,6.88,0,0,0,3,.65,10.14,10.14,0,0,0,6.36-2.61,29.84,29.84,0,0,0,5.83-6.81,35.17,35.17,0,0,1,3.77-4.85c2.53-2.58,7.77-2.21,12.84-1.85a44.09,44.09,0,0,0,9.13,0l15.58,39.3c-11.83.69-22.58,4.67-29.93,11.18a2.5,2.5,0,1,0,3.32,3.74c7-6.2,18.1-9.92,29.79-10a2.47,2.47,0,0,0,.5.08,2.54,2.54,0,0,0,.6-.08h31.39a2.5,2.5,0,0,0,0-5" style="fill:rgba(0, 0, 0, 0.4)"/><path d="M142.52,57.85c-1.71.42-3.49-.05-5.4-1.44l11.55-11.55h4.24c-2,4.87-5.82,11.87-10.39,13Zm-38.9,25a13.05,13.05,0,1,0,3.54,3.54l5.46-5.46a20.76,20.76,0,1,1-3.54-3.54Zm.76,10.82A8.07,8.07,0,1,1,100,86.49l-2.23,2.23a5.25,5.25,0,1,0,3.53,3.53L103.51,90a8,8,0,0,1,.88,3.63Zm25.3,0a33.41,33.41,0,1,1-11.62-25.26l-5.42,5.42a25.73,25.73,0,1,0,3.54,3.53l5.42-5.42a33.2,33.2,0,0,1,8.08,21.73Zm2.45-46.18c1.12-4.57,8.12-8.38,13-10.39v4.24L133.59,52.87c-1.39-1.9-1.87-3.68-1.44-5.4Zm26.36-6.6a2.5,2.5,0,0,0-2-1h-6.36V33.5a2.5,2.5,0,0,0-3.25-2.38,53.56,53.56,0,0,0-8.63,3.72c-6.25,3.39-9.94,7.24-11,11.45-.84,3.41.08,6.82,2.74,10.15l-8.41,8.41a38.41,38.41,0,1,0,3.53,3.53L133.57,60a12.36,12.36,0,0,0,7.7,3,10.16,10.16,0,0,0,2.45-.3c4.21-1,8.06-4.73,11.45-11a53.57,53.57,0,0,0,3.72-8.63,2.5,2.5,0,0,0-.37-2.23Z" style="fill:rgba(0, 0, 0, 0.4)"/><path d="M419.73,61.45H454.8V91.22H419.73Zm6.46-4.71h20.92V35.9H426.19Zm70.43,1.13c-2.55-2.68-6.15-4-10.69-4s-8.26,1.36-10.86,4a15,15,0,0,0-3.87,10l0,25.87c0,.12.71,11.88-5.49,18.47-2.74,2.92-6.53,4.4-11.26,4.4s-8.31-1.41-10.9-4.31c-4.34-4.86-4.72-12.66-4.63-16.36h18.29a2.36,2.36,0,0,0,2.36-2.36V59.09a2.36,2.36,0,0,0-2.36-2.36h-5.33V33.55a2.36,2.36,0,0,0-2.36-2.36H423.83a2.36,2.36,0,0,0-2.36,2.36V56.74h-4.1A2.36,2.36,0,0,0,415,59.09V93.57a2.36,2.36,0,0,0,2.36,2.36h16.78c-.11,4.42.42,13.43,5.82,19.48,3.49,3.92,8.36,5.9,14.45,5.9s11-2,14.71-5.89c7.59-8.07,6.8-21.44,6.76-21.85l0-25.77a10.31,10.31,0,0,1,2.57-6.7c1.68-1.71,4.18-2.57,7.44-2.57s5.62.86,7.24,2.54c2.64,2.75,2.48,7,2.47,7.12v63.45a2.36,2.36,0,0,0,4.73,0V68.33c0-.25.3-6.22-3.74-10.46Z" style="fill:rgba(0, 0, 0, 0.4);stroke:rgba(0, 0, 0, 0.4);stroke-width:2px"/><path d="M446.65,68h-18.3a2.5,2.5,0,0,0,0,5h18.3a2.5,2.5,0,0,0,0-5m0,11h-18.3a2.5,2.5,0,0,0,0,5h18.3a2.5,2.5,0,0,0,0-5" style="fill:rgba(0, 0, 0, 0.4);stroke:rgba(0, 0, 0, 0.4);stroke-width:2px"/><path d="M766.16,599.53a6.1,6.1,0,1,1,6.1-6.1,6.1,6.1,0,0,1-6.1,6.1m0-17.25a11.16,11.16,0,1,0,11.16,11.16,11.17,11.17,0,0,0-11.16-11.16m0-13.27a6.1,6.1,0,1,1,6.1-6.1,6.1,6.1,0,0,1-6.1,6.1m0-17.25a11.16,11.16,0,1,0,11.16,11.16,11.17,11.17,0,0,0-11.16-11.16m0,78.31a6.1,6.1,0,1,1,6.1-6.1,6.1,6.1,0,0,1-6.1,6.1m0-17.25A11.16,11.16,0,1,0,777.31,624a11.17,11.17,0,0,0-11.16-11.16m33.79-49.9a6.1,6.1,0,1,1-6.1-6.1,6.1,6.1,0,0,1,6.1,6.1m-6.1-11.16A11.16,11.16,0,1,0,805,562.9a11.17,11.17,0,0,0-11.16-11.16m6.1,41.68a6.1,6.1,0,1,1-6.1-6.1,6.1,6.1,0,0,1,6.1,6.1m-6.1-11.16A11.16,11.16,0,1,0,805,593.43a11.17,11.17,0,0,0-11.16-11.16m6.1,41.68a6.1,6.1,0,1,1-6.1-6.1,6.1,6.1,0,0,1,6.1,6.1m-6.1-11.16A11.16,11.16,0,1,0,805,624a11.17,11.17,0,0,0-11.16-11.16m33.79-49.9a6.1,6.1,0,1,1-6.1-6.1,6.1,6.1,0,0,1,6.1,6.1m-6.1-11.16A11.16,11.16,0,1,0,832.7,562.9a11.17,11.17,0,0,0-11.16-11.16m6.1,72.21a6.1,6.1,0,1,1-6.1-6.1,6.1,6.1,0,0,1,6.1,6.1m-6.1-11.16A11.16,11.16,0,1,1,810.39,624,11.17,11.17,0,0,1,821.55,612.8Zm27.69-30.53a11.16,11.16,0,1,1-11.16,11.16A11.17,11.17,0,0,1,849.24,582.27Z" style="fill:rgba(0, 0, 0, 0.4)"/><path d="M1364.83,574.76c0,3.2-1.81,3.73-2.85,3.77h-16.69a2.5,2.5,0,0,0-2.5,2.5v37.58h-20V597a2.5,2.5,0,0,0-2.5-2.5h-16.48c-.47,0-2.85-.18-2.85-3.77V577.24c0-.89.25-3.79,2.85-3.79s2.84,2.9,2.85,3.77v5.86c0,1.4,0,2.85,1.1,4a4,4,0,0,0,3,1.1h9.56a2.5,2.5,0,0,0,2.5-2.5V561.13c0-.12.74-12.13,10-12.13s10,12,10,12.13v8.54a2.5,2.5,0,0,0,2.5,2.5h9.78a4,4,0,0,0,3-1.1c1.13-1.14,1.12-2.59,1.1-4v-5.84c0-.89.25-3.79,2.85-3.79s2.84,2.9,2.85,3.77ZM1346.75,639h-27.89l-2.69-15.39h33.27ZM1362,552.45c-5.76,0-7.85,5.24-7.85,8.77v5.95h-6.35v-6c0-3.4-2.67-17.13-15-17.13s-15,13.73-15,17.13v22h-6.13v-5.95c0-3.52-2.09-8.77-7.85-8.77s-7.85,5.25-7.85,8.77v13.54c0,6.43,4.69,8.77,7.85,8.77h14v19.08h-4.63a2.5,2.5,0,0,0-2.46,2.93l3.56,20.39a2.5,2.5,0,0,0,2.46,2.07h32.09a2.5,2.5,0,0,0,2.46-2.07l3.57-20.39a2.5,2.5,0,0,0-2.46-2.93h-4.63V605.12a2.47,2.47,0,0,0,.22-1V583.53h14c3.15,0,7.85-2.34,7.85-8.77V561.22c0-3.53-2.09-8.77-7.85-8.77Z" style="fill:rgba(0, 0, 0, 0.4)"/><path d="M1010.78,613.51c-13.51,12.53-20.44,16.57-22.67,17.68-2.27-1.13-9.2-5.17-22.68-17.68-16.36-15.17-13-29.64-12.79-30.34,0-.13,3-12.87,16.18-14,12.93-1.13,16.51,8.37,16.66,8.8,0,0,0,.09.06.14s.08.18.12.26l.14.23.16.21.18.2.2.18.22.16.23.14.26.12.15.07.1,0,.28.06.25,0h.54l.27,0,.27-.06.1,0,.16-.07.24-.11.25-.15.2-.15.21-.19.17-.19.17-.23.13-.22a2.62,2.62,0,0,0,.12-.27s0-.09.07-.14,3.57-9.91,16.65-8.78,16.07,13.5,16.2,14.1,3.55,15.08-12.81,30.25M1029,582c.17.62,4.48,18.06-14.44,35.6-17.86,16.56-24.89,19.06-25.64,19.3a2.8,2.8,0,0,1-.83.13h0a2.8,2.8,0,0,1-.82-.12h0c-.89-.29-8-2.93-25.6-19.28-18.91-17.54-14.6-35-14.41-35.71,1.25-5.72,7.32-17,21.11-18.24,10-.86,16.38,3.53,19.76,7.86,3.38-4.33,9.72-8.72,19.76-7.86C1021.65,564.82,1027.72,576.15,1029,582Zm-84-16.07a2.27,2.27,0,0,1,.62,3.08,2.13,2.13,0,0,1-1.8,1,2.09,2.09,0,0,1-1.18-.36l-6.7-4.55a2.27,2.27,0,0,1-.62-3.08,2.1,2.1,0,0,1,3-.64Zm8.79-6-4.47-7.35a2.36,2.36,0,0,1,.72-3.2,2.23,2.23,0,0,1,3.12.74l4.47,7.35a2.36,2.36,0,0,1-.72,3.2,2.21,2.21,0,0,1-1.2.35A2.25,2.25,0,0,1,953.81,559.91Zm-14,20.06a2.29,2.29,0,0,1,2,2.55,2.26,2.26,0,0,1-2.22,2l-.26,0-8.29-1a2.29,2.29,0,0,1-2-2.55,2.25,2.25,0,0,1,2.48-2Z" style="fill:rgba(0, 0, 0, 0.4)"/><path d="M1006.95,576.12a2.21,2.21,0,1,0-1.47,4.16c.32.11,7.8,2.84,8.07,10.59a2.22,2.22,0,0,0,2.22,2.13h.08a2.21,2.21,0,0,0,2.15-2.28c-.38-10.81-10.61-14.45-11-14.6" style="fill:rgba(0, 0, 0, 0.4)"/><path d="M1121,578a2.3,2.3,0,0,1,2.62,1.89l.39,2.51A2.25,2.25,0,0,1,1122,585l-.35,0a2.29,2.29,0,0,1-2.28-1.91l-.39-2.51A2.25,2.25,0,0,1,1121,578Zm5.07,28a2.38,2.38,0,0,1,2.72,1.93l.22,1.42a2.31,2.31,0,0,1-2,2.6l-.36,0a2.36,2.36,0,0,1-2.36-2l-.22-1.42A2.31,2.31,0,0,1,1126,606ZM1124,592a2.31,2.31,0,0,1,2.62,1.89l.39,2.51A2.25,2.25,0,0,1,1125,599l-.35,0a2.29,2.29,0,0,1-2.28-1.91l-.39-2.51A2.25,2.25,0,0,1,1124,592Zm16.54,28a2.4,2.4,0,0,1-2.5-2.29v-1.43a2.51,2.51,0,0,1,5,0v1.43A2.4,2.4,0,0,1,1140.5,620Zm0-14a2.38,2.38,0,0,1-2.5-2.23v-2.53a2.52,2.52,0,0,1,5,0v2.53A2.38,2.38,0,0,1,1140.5,606Zm0-14a2.38,2.38,0,0,1-2.5-2.23v-2.53a2.52,2.52,0,0,1,5,0v2.53A2.38,2.38,0,0,1,1140.5,592Zm0-14a2.4,2.4,0,0,1-2.5-2.29v-1.43a2.51,2.51,0,0,1,5,0v1.43A2.4,2.4,0,0,1,1140.5,578Zm-13.06,43.27a2.25,2.25,0,0,1,.66,4.45L1113.2,628l-.33,0a2.22,2.22,0,0,1-1.32-.44,2.25,2.25,0,0,1-.88-1.48l-3-20.46a2.25,2.25,0,0,1,1.4-2.43c.53-.21,5.29-2.29,4.49-7.3a6,6,0,0,0-6.15-5.2h0a2.23,2.23,0,0,1-2.2-1.92L1102,567.84a2.27,2.27,0,0,1,.41-1.67,2.23,2.23,0,0,1,1.46-.89l14.9-2.26a8.63,8.63,0,0,1,2.84,4l.21,1.39a2.24,2.24,0,0,1-1.87,2.55l-.33,0a2.23,2.23,0,0,1-2.2-1.92l-.18-1.23-10.5,1.59,2.52,17a10.27,10.27,0,0,1,8.64,8.81c.93,5.82-2.68,9.62-5.64,11.39l2.47,16.62ZM1213,588.79c-.53.08-5.32.92-5.37,6s5,6.35,5.58,6.49a2.25,2.25,0,0,1,1.74,2.17V624a2.24,2.24,0,0,1-2.25,2.23h-72.22a2.23,2.23,0,1,1,0-4.46h70V605.09c-3.22-1.3-7.38-4.48-7.32-10.33a10.25,10.25,0,0,1,7.32-9.92v-17h-70a2.23,2.23,0,1,1,0-4.46h72.22a2.24,2.24,0,0,1,2.25,2.23v21A2.24,2.24,0,0,1,1213,588.79Zm-32.34,8.64a2.22,2.22,0,0,0-.65,2l1.27,7.37-6.7-3.37a2.26,2.26,0,0,0-2,0l-6.71,3.37,1.27-7.37a2.22,2.22,0,0,0-.65-2l-5.38-5.21,7.5-1a2.25,2.25,0,0,0,1.7-1.23l3.28-6.66,3.37,6.78a2.24,2.24,0,0,0,1.69,1.22l7.29,1Zm12.24-7.37a2.24,2.24,0,0,0-1.82-1.52L1180.44,587l-4.87-9.79a2.24,2.24,0,0,0-2-1.24h0a2.24,2.24,0,0,0-2,1.25l-4.76,9.67-10.85,1.51a2.23,2.23,0,0,0-1.25,3.81l7.81,7.57-1.82,10.58a2.23,2.23,0,0,0,.88,2.17,2.25,2.25,0,0,0,2.35.2l9.67-4.86,9.67,4.86a2.24,2.24,0,0,0,3.22-2.37l-1.82-10.58,7.7-7.45a2.22,2.22,0,0,0,.57-2.29Z" style="fill:rgba(0, 0, 0, 0.4);stroke:rgba(0, 0, 0, 0.4);stroke-width:2px"/><path d="M266,561.15l-3.51-5.63a2.62,2.62,0,0,1,4.44-2.77l3.51,5.63a2.62,2.62,0,1,1-4.44,2.77Zm-18.71,22.15a2.62,2.62,0,1,1,.6-5.2l6.59.76a2.62,2.62,0,0,1-.3,5.21l-.31,0Zm13.46-13.84a2.62,2.62,0,0,1-4,2.72l-5.55-3.64a2.62,2.62,0,0,1,2.87-4.38l5.55,3.64A2.6,2.6,0,0,1,260.77,569.47Zm26.61,3.77c.37.13,9.09,3.27,9.41,12.56a2.62,2.62,0,0,1-2.52,2.7h-.09a2.61,2.61,0,0,1-2.61-2.53c-.2-5.7-5.68-7.72-5.91-7.81a2.62,2.62,0,0,1,1.73-4.94Zm30.31,19a2.62,2.62,0,1,1,0,5.23H311a2.62,2.62,0,1,1,0-5.23Zm-2.91-23.71-5.55,3.64a2.62,2.62,0,0,1-2.87-4.38l5.55-3.64a2.62,2.62,0,1,1,2.87,4.38ZM296.37,562a2.62,2.62,0,0,1-.83-3.6l3.51-5.63a2.62,2.62,0,1,1,4.44,2.77L300,561.15a2.61,2.61,0,0,1-3.6.84Zm-12.94-2.12a2.61,2.61,0,0,1-2.58-2.66l.12-6.64a2.62,2.62,0,0,1,5.23.1l-.12,6.64a2.63,2.63,0,0,1-2.61,2.57ZM321,580.41a2.62,2.62,0,0,1-2.3,2.9l-6.59.76-.3,0a2.62,2.62,0,0,1-.3-5.21l6.59-.76a2.61,2.61,0,0,1,2.9,2.3Zm-66,11.85a2.62,2.62,0,1,1,0,5.23h-6.64a2.62,2.62,0,1,1,0-5.23Zm41.6,6-.29.44c-.2.29-.4.59-.59.87l-.36.58c-.14.22-.28.45-.4.66s-.27.49-.4.73l-.25.45c-.16.3-.3.58-.44.87l-.12.23a15.76,15.76,0,0,0-1.86,7.17c0,.1,0,.19,0,.26V613H274v-2.39c.11-1.3,0-6.14-5.7-13.68-4.84-6.39-1.66-17.6-1.62-17.73.11-.4,2.81-9.83,16.22-10q1.26,0,2.4.13c11.37,1.17,13.75,9.53,13.86,9.92,0,.11,3.22,11.24-1.64,17.66q-.53.7-1,1.38m3.52-27.53c-2.71-2.92-7.67-6.41-16-6.77v0h-1.41l-.83,0v0c-16.42.74-20.08,13.68-20.1,13.77-.17.56-4,13.76,2.49,22.31,4.8,6.34,4.66,10,4.65,10.08V613a5.24,5.24,0,0,0,5.24,5.24h17.79a5.24,5.24,0,0,0,5.24-5.24v-2.8s-.18-3.73,4.65-10.11c6.45-8.52,2.73-21.51,2.51-22.24a18.21,18.21,0,0,0-4.16-7.08m-11,56.55v.9c-.09.89-.79,4.82-5.77,5.61-5.07-.81-5.7-4.88-5.77-5.62v-.89Zm0-5.24H277.51a5.24,5.24,0,0,0-5.24,5.24v.89c0,.16,0,.31,0,.49a11.67,11.67,0,0,0,10.66,10.38l.34,0,.31,0a11.67,11.67,0,0,0,10.66-10.39,4.52,4.52,0,0,0,0-.48v-.89a5.24,5.24,0,0,0-5.24-5.24Z" style="fill:rgba(0, 0, 0, 0.4)"/><path d="M620.52,584c-5.92-.42-12.63-.9-16.77,3.34a39.51,39.51,0,0,0-4.31,5.51,25.62,25.62,0,0,1-4.85,5.75c-.94.76-2.72,1.95-4,1.33s-2.52-3-2.55-7.14c-.08-11.61,8.9-27.77,29.15-37.69a48.33,48.33,0,0,1,21.34-4.82c11.14,0,21.07,3.55,26.49,7.62,3,2.29,3.93,4.22,3.77,5.18s-1.71,2.05-4.09,2.78a18.85,18.85,0,0,1-8,.7,42.14,42.14,0,0,0-6.69,0c-5,.39-8.79,5.31-12.49,10.06-2.32,3-4.72,6.07-6.67,6.91-2.48,1.07-6.46.79-10.3.52m60,44.19H650.21L634,587.42c2.61-1.63,4.95-4.62,7.4-7.77,2.89-3.71,6.16-7.92,8.93-8.14a37.61,37.61,0,0,1,6,.05,23.73,23.73,0,0,0,9.77-.91c5.57-1.7,7.19-4.58,7.56-6.7.58-3.28-1.44-6.85-5.69-10-9.18-6.9-29.89-12.5-49.18-5l-1.33-3.36a2.5,2.5,0,1,0-4.65,1.85l1.42,3.57c-10.25,5.16-18.57,12.24-24.09,20.52-4.65,7-7.19,14.56-7.15,21.33,0,5.77,2,10,5.41,11.62a6.88,6.88,0,0,0,3,.65,10.14,10.14,0,0,0,6.36-2.61,29.84,29.84,0,0,0,5.83-6.81,35.17,35.17,0,0,1,3.77-4.85c2.53-2.58,7.77-2.21,12.84-1.85a44.09,44.09,0,0,0,9.13,0l15.58,39.3c-11.83.69-22.58,4.67-29.93,11.18a2.5,2.5,0,1,0,3.32,3.74c7-6.2,18.1-9.92,29.79-10a2.47,2.47,0,0,0,.5.08,2.54,2.54,0,0,0,.6-.08h31.39a2.5,2.5,0,0,0,0-5" style="fill:rgba(0, 0, 0, 0.4)"/><path d="M142.52,569.85c-1.71.42-3.49-.05-5.4-1.44l11.55-11.55h4.24c-2,4.87-5.82,11.87-10.39,13Zm-38.9,25a13.05,13.05,0,1,0,3.54,3.54l5.46-5.46a20.76,20.76,0,1,1-3.54-3.54Zm.76,10.82a8.07,8.07,0,1,1-4.41-7.17l-2.23,2.23a5.25,5.25,0,1,0,3.53,3.53l2.23-2.23a8,8,0,0,1,.88,3.63Zm25.3,0a33.41,33.41,0,1,1-11.62-25.26l-5.42,5.42a25.73,25.73,0,1,0,3.54,3.53l5.42-5.42a33.2,33.2,0,0,1,8.08,21.73Zm2.45-46.18c1.12-4.57,8.12-8.38,13-10.39v4.24l-11.55,11.55c-1.39-1.9-1.87-3.68-1.44-5.4Zm26.36-6.6a2.5,2.5,0,0,0-2-1h-6.36V545.5a2.5,2.5,0,0,0-3.25-2.38,53.56,53.56,0,0,0-8.63,3.72c-6.25,3.39-9.94,7.24-11,11.45-.84,3.41.08,6.82,2.74,10.15l-8.41,8.41a38.41,38.41,0,1,0,3.53,3.53l8.42-8.42a12.36,12.36,0,0,0,7.7,3,10.16,10.16,0,0,0,2.45-.3c4.21-1,8.06-4.73,11.45-11a53.57,53.57,0,0,0,3.72-8.63,2.5,2.5,0,0,0-.37-2.23Z" style="fill:rgba(0, 0, 0, 0.4)"/><path d="M419.73,573.45H454.8v29.77H419.73Zm6.46-4.71h20.92V547.9H426.19Zm70.43,1.13c-2.55-2.68-6.15-4-10.69-4s-8.26,1.36-10.86,4a15,15,0,0,0-3.87,10l0,25.87c0,.12.71,11.88-5.49,18.47-2.74,2.92-6.53,4.4-11.26,4.4s-8.31-1.41-10.9-4.31c-4.34-4.86-4.72-12.66-4.63-16.36h18.29a2.36,2.36,0,0,0,2.36-2.36V571.09a2.36,2.36,0,0,0-2.36-2.36h-5.33V545.55a2.36,2.36,0,0,0-2.36-2.36H423.83a2.36,2.36,0,0,0-2.36,2.36v23.19h-4.1a2.36,2.36,0,0,0-2.36,2.36v34.48a2.36,2.36,0,0,0,2.36,2.36h16.78c-.11,4.42.42,13.43,5.82,19.48,3.49,3.92,8.36,5.9,14.45,5.9s11-2,14.71-5.89c7.59-8.07,6.8-21.44,6.76-21.85l0-25.77a10.31,10.31,0,0,1,2.57-6.7c1.68-1.71,4.18-2.57,7.44-2.57s5.62.86,7.24,2.54c2.64,2.75,2.48,7,2.47,7.12v63.45a2.36,2.36,0,0,0,4.73,0V580.33c0-.25.3-6.22-3.74-10.46Z" style="fill:rgba(0, 0, 0, 0.4);stroke:rgba(0, 0, 0, 0.4);stroke-width:2px"/><path d="M446.65,580h-18.3a2.5,2.5,0,0,0,0,5h18.3a2.5,2.5,0,0,0,0-5m0,11h-18.3a2.5,2.5,0,0,0,0,5h18.3a2.5,2.5,0,0,0,0-5" style="fill:rgba(0, 0, 0, 0.4);stroke:rgba(0, 0, 0, 0.4);stroke-width:2px"/><path d="M766.16,855.53a6.1,6.1,0,1,1,6.1-6.1,6.1,6.1,0,0,1-6.1,6.1m0-17.25a11.16,11.16,0,1,0,11.16,11.16,11.17,11.17,0,0,0-11.16-11.16m0-13.27a6.1,6.1,0,1,1,6.1-6.1,6.1,6.1,0,0,1-6.1,6.1m0-17.25a11.16,11.16,0,1,0,11.16,11.16,11.17,11.17,0,0,0-11.16-11.16m0,78.31a6.1,6.1,0,1,1,6.1-6.1,6.1,6.1,0,0,1-6.1,6.1m0-17.25A11.16,11.16,0,1,0,777.31,880a11.17,11.17,0,0,0-11.16-11.16m33.79-49.9a6.1,6.1,0,1,1-6.1-6.1,6.1,6.1,0,0,1,6.1,6.1m-6.1-11.16A11.16,11.16,0,1,0,805,818.9a11.17,11.17,0,0,0-11.16-11.16m6.1,41.68a6.1,6.1,0,1,1-6.1-6.1,6.1,6.1,0,0,1,6.1,6.1m-6.1-11.16A11.16,11.16,0,1,0,805,849.43a11.17,11.17,0,0,0-11.16-11.16m6.1,41.68a6.1,6.1,0,1,1-6.1-6.1,6.1,6.1,0,0,1,6.1,6.1m-6.1-11.16A11.16,11.16,0,1,0,805,880a11.17,11.17,0,0,0-11.16-11.16m33.79-49.9a6.1,6.1,0,1,1-6.1-6.1,6.1,6.1,0,0,1,6.1,6.1m-6.1-11.16A11.16,11.16,0,1,0,832.7,818.9a11.17,11.17,0,0,0-11.16-11.16m6.1,72.21a6.1,6.1,0,1,1-6.1-6.1,6.1,6.1,0,0,1,6.1,6.1m-6.1-11.16A11.16,11.16,0,1,1,810.39,880,11.17,11.17,0,0,1,821.55,868.8Zm27.69-30.53a11.16,11.16,0,1,1-11.16,11.16A11.17,11.17,0,0,1,849.24,838.27Z" style="fill:rgba(0, 0, 0, 0.4)"/><path d="M1364.83,830.76c0,3.2-1.81,3.73-2.85,3.77h-16.69a2.5,2.5,0,0,0-2.5,2.5v37.58h-20V853a2.5,2.5,0,0,0-2.5-2.5h-16.48c-.47,0-2.85-.18-2.85-3.77V833.24c0-.89.25-3.79,2.85-3.79s2.84,2.9,2.85,3.77v5.86c0,1.4,0,2.85,1.1,4a4,4,0,0,0,3,1.1h9.56a2.5,2.5,0,0,0,2.5-2.5V817.13c0-.12.74-12.13,10-12.13s10,12,10,12.13v8.54a2.5,2.5,0,0,0,2.5,2.5h9.78a4,4,0,0,0,3-1.1c1.13-1.14,1.12-2.59,1.1-4v-5.84c0-.89.25-3.79,2.85-3.79s2.84,2.9,2.85,3.77ZM1346.75,895h-27.89l-2.69-15.39h33.27ZM1362,808.45c-5.76,0-7.85,5.24-7.85,8.77v5.95h-6.35v-6c0-3.4-2.67-17.13-15-17.13s-15,13.73-15,17.13v22h-6.13v-5.95c0-3.52-2.09-8.77-7.85-8.77s-7.85,5.25-7.85,8.77v13.54c0,6.43,4.69,8.77,7.85,8.77h14v19.08h-4.63a2.5,2.5,0,0,0-2.46,2.93l3.56,20.39a2.5,2.5,0,0,0,2.46,2.07h32.09a2.5,2.5,0,0,0,2.46-2.07l3.57-20.39a2.5,2.5,0,0,0-2.46-2.93h-4.63V861.12a2.47,2.47,0,0,0,.22-1V839.53h14c3.15,0,7.85-2.34,7.85-8.77V817.22c0-3.53-2.09-8.77-7.85-8.77Z" style="fill:rgba(0, 0, 0, 0.4)"/><path d="M1010.78,869.51c-13.51,12.53-20.44,16.57-22.67,17.68-2.27-1.13-9.2-5.17-22.68-17.68-16.36-15.17-13-29.64-12.79-30.34,0-.13,3-12.87,16.18-14,12.93-1.13,16.51,8.37,16.66,8.8,0,0,0,.09.06.14s.08.18.12.26l.14.23.16.21.18.2.2.18.22.16.23.14.26.12.15.07.1,0,.28.06.25,0h.54l.27,0,.27-.06.1,0,.16-.07.24-.11.25-.15.2-.15.21-.19.17-.19.17-.23.13-.22a2.62,2.62,0,0,0,.12-.27s0-.09.07-.14,3.57-9.91,16.65-8.78,16.07,13.5,16.2,14.1,3.55,15.08-12.81,30.25M1029,838c.17.62,4.48,18.06-14.44,35.6-17.86,16.56-24.89,19.06-25.64,19.3a2.8,2.8,0,0,1-.83.13h0a2.8,2.8,0,0,1-.82-.12h0c-.89-.29-8-2.93-25.6-19.28-18.91-17.54-14.6-35-14.41-35.71,1.25-5.72,7.32-17,21.11-18.24,10-.86,16.38,3.53,19.76,7.86,3.38-4.33,9.72-8.72,19.76-7.86C1021.65,820.82,1027.72,832.15,1029,838Zm-84-16.07a2.27,2.27,0,0,1,.62,3.08,2.13,2.13,0,0,1-1.8,1,2.09,2.09,0,0,1-1.18-.36l-6.7-4.55a2.27,2.27,0,0,1-.62-3.08,2.1,2.1,0,0,1,3-.64Zm8.79-6-4.47-7.35a2.36,2.36,0,0,1,.72-3.2,2.23,2.23,0,0,1,3.12.74l4.47,7.35a2.36,2.36,0,0,1-.72,3.2,2.21,2.21,0,0,1-1.2.35A2.25,2.25,0,0,1,953.81,815.91Zm-14,20.06a2.29,2.29,0,0,1,2,2.55,2.26,2.26,0,0,1-2.22,2l-.26,0-8.29-1a2.29,2.29,0,0,1-2-2.55,2.25,2.25,0,0,1,2.48-2Z" style="fill:rgba(0, 0, 0, 0.4)"/><path d="M1006.95,832.12a2.21,2.21,0,1,0-1.47,4.16c.32.11,7.8,2.84,8.07,10.59a2.22,2.22,0,0,0,2.22,2.13h.08a2.21,2.21,0,0,0,2.15-2.28c-.38-10.81-10.61-14.45-11-14.6" style="fill:rgba(0, 0, 0, 0.4)"/><path d="M1121,834a2.3,2.3,0,0,1,2.62,1.89l.39,2.51A2.25,2.25,0,0,1,1122,841l-.35,0a2.29,2.29,0,0,1-2.28-1.91l-.39-2.51A2.25,2.25,0,0,1,1121,834Zm5.07,28a2.38,2.38,0,0,1,2.72,1.93l.22,1.42a2.31,2.31,0,0,1-2,2.6l-.36,0a2.36,2.36,0,0,1-2.36-2l-.22-1.42A2.31,2.31,0,0,1,1126,862ZM1124,848a2.31,2.31,0,0,1,2.62,1.89l.39,2.51A2.25,2.25,0,0,1,1125,855l-.35,0a2.29,2.29,0,0,1-2.28-1.91l-.39-2.51A2.25,2.25,0,0,1,1124,848Zm16.54,28a2.4,2.4,0,0,1-2.5-2.29v-1.43a2.51,2.51,0,0,1,5,0v1.43A2.4,2.4,0,0,1,1140.5,876Zm0-14a2.38,2.38,0,0,1-2.5-2.23v-2.53a2.52,2.52,0,0,1,5,0v2.53A2.38,2.38,0,0,1,1140.5,862Zm0-14a2.38,2.38,0,0,1-2.5-2.23v-2.53a2.52,2.52,0,0,1,5,0v2.53A2.38,2.38,0,0,1,1140.5,848Zm0-14a2.4,2.4,0,0,1-2.5-2.29v-1.43a2.51,2.51,0,0,1,5,0v1.43A2.4,2.4,0,0,1,1140.5,834Zm-13.06,43.27a2.25,2.25,0,0,1,.66,4.45L1113.2,884l-.33,0a2.22,2.22,0,0,1-1.32-.44,2.25,2.25,0,0,1-.88-1.48l-3-20.46a2.25,2.25,0,0,1,1.4-2.43c.53-.21,5.29-2.29,4.49-7.3a6,6,0,0,0-6.15-5.2h0a2.23,2.23,0,0,1-2.2-1.92L1102,823.84a2.27,2.27,0,0,1,.41-1.67,2.23,2.23,0,0,1,1.46-.89l14.9-2.26a8.63,8.63,0,0,1,2.84,4l.21,1.39a2.24,2.24,0,0,1-1.87,2.55l-.33,0a2.23,2.23,0,0,1-2.2-1.92l-.18-1.23-10.5,1.59,2.52,17a10.27,10.27,0,0,1,8.64,8.81c.93,5.82-2.68,9.62-5.64,11.39l2.47,16.62ZM1213,844.79c-.53.08-5.32.92-5.37,6s5,6.35,5.58,6.49a2.25,2.25,0,0,1,1.74,2.17V880a2.24,2.24,0,0,1-2.25,2.23h-72.22a2.23,2.23,0,1,1,0-4.46h70V861.09c-3.22-1.3-7.38-4.48-7.32-10.33a10.25,10.25,0,0,1,7.32-9.92v-17h-70a2.23,2.23,0,1,1,0-4.46h72.22a2.24,2.24,0,0,1,2.25,2.23v21A2.24,2.24,0,0,1,1213,844.79Zm-32.34,8.64a2.22,2.22,0,0,0-.65,2l1.27,7.37-6.7-3.37a2.26,2.26,0,0,0-2,0l-6.71,3.37,1.27-7.37a2.22,2.22,0,0,0-.65-2l-5.38-5.21,7.5-1a2.25,2.25,0,0,0,1.7-1.23l3.28-6.66,3.37,6.78a2.24,2.24,0,0,0,1.69,1.22l7.29,1Zm12.24-7.37a2.24,2.24,0,0,0-1.82-1.52L1180.44,843l-4.87-9.79a2.24,2.24,0,0,0-2-1.24h0a2.24,2.24,0,0,0-2,1.25l-4.76,9.67-10.85,1.51a2.23,2.23,0,0,0-1.25,3.81l7.81,7.57-1.82,10.58a2.23,2.23,0,0,0,.88,2.17,2.25,2.25,0,0,0,2.35.2l9.67-4.86,9.67,4.86a2.24,2.24,0,0,0,3.22-2.37l-1.82-10.58,7.7-7.45a2.22,2.22,0,0,0,.57-2.29Z" style="fill:rgba(0, 0, 0, 0.4);stroke:rgba(0, 0, 0, 0.4);stroke-width:2px"/><path d="M266,817.15l-3.51-5.63a2.62,2.62,0,0,1,4.44-2.77l3.51,5.63a2.62,2.62,0,1,1-4.44,2.77Zm-18.71,22.15a2.62,2.62,0,1,1,.6-5.2l6.59.76a2.62,2.62,0,0,1-.3,5.21l-.31,0Zm13.46-13.84a2.62,2.62,0,0,1-4,2.72l-5.55-3.64a2.62,2.62,0,0,1,2.87-4.38l5.55,3.64A2.6,2.6,0,0,1,260.77,825.47Zm26.61,3.77c.37.13,9.09,3.27,9.41,12.56a2.62,2.62,0,0,1-2.52,2.7h-.09a2.61,2.61,0,0,1-2.61-2.53c-.2-5.7-5.68-7.72-5.91-7.81a2.62,2.62,0,0,1,1.73-4.94Zm30.31,19a2.62,2.62,0,1,1,0,5.23H311a2.62,2.62,0,1,1,0-5.23Zm-2.91-23.71-5.55,3.64a2.62,2.62,0,0,1-2.87-4.38l5.55-3.64a2.62,2.62,0,1,1,2.87,4.38ZM296.37,818a2.62,2.62,0,0,1-.83-3.6l3.51-5.63a2.62,2.62,0,1,1,4.44,2.77L300,817.15a2.61,2.61,0,0,1-3.6.84Zm-12.94-2.12a2.61,2.61,0,0,1-2.58-2.66l.12-6.64a2.62,2.62,0,0,1,5.23.1l-.12,6.64a2.63,2.63,0,0,1-2.61,2.57ZM321,836.41a2.62,2.62,0,0,1-2.3,2.9l-6.59.76-.3,0a2.62,2.62,0,0,1-.3-5.21l6.59-.76a2.61,2.61,0,0,1,2.9,2.3Zm-66,11.85a2.62,2.62,0,1,1,0,5.23h-6.64a2.62,2.62,0,1,1,0-5.23Zm41.6,6-.29.44c-.2.29-.4.59-.59.87l-.36.58c-.14.22-.28.45-.4.66s-.27.49-.4.73l-.25.45c-.16.3-.3.58-.44.87l-.12.23a15.76,15.76,0,0,0-1.86,7.17c0,.1,0,.19,0,.26V869H274v-2.39c.11-1.3,0-6.14-5.7-13.68-4.84-6.39-1.66-17.6-1.62-17.73.11-.4,2.81-9.83,16.22-10q1.26,0,2.4.13c11.37,1.17,13.75,9.53,13.86,9.92,0,.11,3.22,11.24-1.64,17.66q-.53.7-1,1.38m3.52-27.53c-2.71-2.92-7.67-6.41-16-6.77v0h-1.41l-.83,0v0c-16.42.74-20.08,13.68-20.1,13.77-.17.56-4,13.76,2.49,22.31,4.8,6.34,4.66,10,4.65,10.08V869a5.24,5.24,0,0,0,5.24,5.24h17.79a5.24,5.24,0,0,0,5.24-5.24v-2.8s-.18-3.73,4.65-10.11c6.45-8.52,2.73-21.51,2.51-22.24a18.21,18.21,0,0,0-4.16-7.08m-11,56.55v.9c-.09.89-.79,4.82-5.77,5.61-5.07-.81-5.7-4.88-5.77-5.62v-.89Zm0-5.24H277.51a5.24,5.24,0,0,0-5.24,5.24v.89c0,.16,0,.31,0,.49a11.67,11.67,0,0,0,10.66,10.38l.34,0,.31,0a11.67,11.67,0,0,0,10.66-10.39,4.52,4.52,0,0,0,0-.48v-.89a5.24,5.24,0,0,0-5.24-5.24Z" style="fill:rgba(0, 0, 0, 0.4)"/><path d="M620.52,840c-5.92-.42-12.63-.9-16.77,3.34a39.51,39.51,0,0,0-4.31,5.51,25.62,25.62,0,0,1-4.85,5.75c-.94.76-2.72,1.95-4,1.33s-2.52-3-2.55-7.14c-.08-11.61,8.9-27.77,29.15-37.69a48.33,48.33,0,0,1,21.34-4.82c11.14,0,21.07,3.55,26.49,7.62,3,2.29,3.93,4.22,3.77,5.18s-1.71,2.05-4.09,2.78a18.85,18.85,0,0,1-8,.7,42.14,42.14,0,0,0-6.69,0c-5,.39-8.79,5.31-12.49,10.06-2.32,3-4.72,6.07-6.67,6.91-2.48,1.07-6.46.79-10.3.52m60,44.19H650.21L634,843.42c2.61-1.63,4.95-4.62,7.4-7.77,2.89-3.71,6.16-7.92,8.93-8.14a37.61,37.61,0,0,1,6,.05,23.73,23.73,0,0,0,9.77-.91c5.57-1.7,7.19-4.58,7.56-6.7.58-3.28-1.44-6.85-5.69-10-9.18-6.9-29.89-12.5-49.18-5l-1.33-3.36a2.5,2.5,0,1,0-4.65,1.85l1.42,3.57c-10.25,5.16-18.57,12.24-24.09,20.52-4.65,7-7.19,14.56-7.15,21.33,0,5.77,2,10,5.41,11.62a6.88,6.88,0,0,0,3,.65,10.14,10.14,0,0,0,6.36-2.61,29.84,29.84,0,0,0,5.83-6.81,35.17,35.17,0,0,1,3.77-4.85c2.53-2.58,7.77-2.21,12.84-1.85a44.09,44.09,0,0,0,9.13,0l15.58,39.3c-11.83.69-22.58,4.67-29.93,11.18a2.5,2.5,0,1,0,3.32,3.74c7-6.2,18.1-9.92,29.79-10a2.47,2.47,0,0,0,.5.08,2.54,2.54,0,0,0,.6-.08h31.39a2.5,2.5,0,0,0,0-5" style="fill:rgba(0, 0, 0, 0.4)"/><path d="M142.52,825.85c-1.71.42-3.49-.05-5.4-1.44l11.55-11.55h4.24c-2,4.87-5.82,11.87-10.39,13Zm-38.9,25a13.05,13.05,0,1,0,3.54,3.54l5.46-5.46a20.76,20.76,0,1,1-3.54-3.54Zm.76,10.82a8.07,8.07,0,1,1-4.41-7.17l-2.23,2.23a5.25,5.25,0,1,0,3.53,3.53l2.23-2.23a8,8,0,0,1,.88,3.63Zm25.3,0a33.41,33.41,0,1,1-11.62-25.26l-5.42,5.42a25.73,25.73,0,1,0,3.54,3.53l5.42-5.42a33.2,33.2,0,0,1,8.08,21.73Zm2.45-46.18c1.12-4.57,8.12-8.38,13-10.39v4.24l-11.55,11.55c-1.39-1.9-1.87-3.68-1.44-5.4Zm26.36-6.6a2.5,2.5,0,0,0-2-1h-6.36V801.5a2.5,2.5,0,0,0-3.25-2.38,53.56,53.56,0,0,0-8.63,3.72c-6.25,3.39-9.94,7.24-11,11.45-.84,3.41.08,6.82,2.74,10.15l-8.41,8.41a38.41,38.41,0,1,0,3.53,3.53l8.42-8.42a12.36,12.36,0,0,0,7.7,3,10.16,10.16,0,0,0,2.45-.3c4.21-1,8.06-4.73,11.45-11a53.57,53.57,0,0,0,3.72-8.63,2.5,2.5,0,0,0-.37-2.23Z" style="fill:rgba(0, 0, 0, 0.4)"/><path d="M419.73,829.45H454.8v29.77H419.73Zm6.46-4.71h20.92V803.9H426.19Zm70.43,1.13c-2.55-2.68-6.15-4-10.69-4s-8.26,1.36-10.86,4a15,15,0,0,0-3.87,10l0,25.87c0,.12.71,11.88-5.49,18.47-2.74,2.92-6.53,4.4-11.26,4.4s-8.31-1.41-10.9-4.31c-4.34-4.86-4.72-12.66-4.63-16.36h18.29a2.36,2.36,0,0,0,2.36-2.36V827.09a2.36,2.36,0,0,0-2.36-2.36h-5.33V801.55a2.36,2.36,0,0,0-2.36-2.36H423.83a2.36,2.36,0,0,0-2.36,2.36v23.19h-4.1a2.36,2.36,0,0,0-2.36,2.36v34.48a2.36,2.36,0,0,0,2.36,2.36h16.78c-.11,4.42.42,13.43,5.82,19.48,3.49,3.92,8.36,5.9,14.45,5.9s11-2,14.71-5.89c7.59-8.07,6.8-21.44,6.76-21.85l0-25.77a10.31,10.31,0,0,1,2.57-6.7c1.68-1.71,4.18-2.57,7.44-2.57s5.62.86,7.24,2.54c2.64,2.75,2.48,7,2.47,7.12v63.45a2.36,2.36,0,0,0,4.73,0V836.33c0-.25.3-6.22-3.74-10.46Z" style="fill:rgba(0, 0, 0, 0.4);stroke:rgba(0, 0, 0, 0.4);stroke-width:2px"/><path d="M446.65,836h-18.3a2.5,2.5,0,0,0,0,5h18.3a2.5,2.5,0,0,0,0-5m0,11h-18.3a2.5,2.5,0,0,0,0,5h18.3a2.5,2.5,0,0,0,0-5" style="fill:rgba(0, 0, 0, 0.4);stroke:rgba(0, 0, 0, 0.4);stroke-width:2px"/></g></svg>