<svg xmlns="http://www.w3.org/2000/svg" width="56.36" height="14.13" viewBox="0 0 56.36 14.13"><title>intro-tagline3</title><g id="Layer_2" data-name="Layer 2"><g id="Layer_1-2" data-name="Layer 1"><path d="M3.42,1.26H6l3.19,9.31h.07l3.22-9.31h2.63l3.42,12.6H16.17L13.61,4.65h-.07l-3.13,9.22H8.16L5,4.65H4.93L2.41,13.86H0Z" style="fill:#efefef"/><path d="M19.75,9.54A4.38,4.38,0,0,1,24.41,5c2.72,0,4.54,1.76,4.54,4.7v.77H22a2.61,2.61,0,0,0,2.63,1.94,2.19,2.19,0,0,0,1.84-.79h2.34a4.3,4.3,0,0,1-4.23,2.56A4.44,4.44,0,0,1,19.75,9.54Zm7-.67a2.12,2.12,0,0,0-2.25-2.16,2.47,2.47,0,0,0-2.56,2.16Z" style="fill:#efefef"/><path d="M37.84,6.1h0V0h2.2V13.86h-2.2V13h0a3.86,3.86,0,0,1-2.77,1.15,4.39,4.39,0,0,1-4.5-4.59A4.39,4.39,0,0,1,35.07,5,3.87,3.87,0,0,1,37.84,6.1Zm0,3.44a2.56,2.56,0,0,0-2.52-2.79,2.59,2.59,0,0,0-2.59,2.79,2.59,2.59,0,0,0,2.59,2.79A2.56,2.56,0,0,0,37.87,9.54Z" style="fill:#efefef"/><path d="M42.55,0h2.27V2.14H42.55Zm0,5.22h2.2v8.64h-2.2Z" style="fill:#efefef"/><path d="M46.85,9.54A4.39,4.39,0,0,1,51.35,5,3.87,3.87,0,0,1,54.13,6.1h0V5.22h2.2v8.64h-2.2V13h0a3.87,3.87,0,0,1-2.77,1.15A4.39,4.39,0,0,1,46.85,9.54Zm7.31,0a2.56,2.56,0,0,0-2.52-2.79,2.59,2.59,0,0,0-2.59,2.79,2.59,2.59,0,0,0,2.59,2.79A2.56,2.56,0,0,0,54.16,9.54Z" style="fill:#efefef"/></g></g></svg>