<svg xmlns="http://www.w3.org/2000/svg" viewBox="0 0 115.67 13.13" height="14"><g id="Layer_2" data-name="Layer 2"><g id="Layer_1-2" data-name="Layer 1"><path d="M0,8.88H2.27c.2,1.26,1.35,2.34,3.51,2.34,1.53,0,2.52-.67,2.5-1.69C8.23,6.39.56,9.13.47,3.82.43,1.53,2.34,0,5.26,0s5.1,1.57,5.33,3.89H8.3a2.58,2.58,0,0,0-2.86-2c-1.55,0-2.57.72-2.56,1.82.05,3.22,7.65.56,7.74,5.64,0,2.29-1.94,3.82-5,3.82C2.38,13.13.25,11.47,0,8.88Z" style="fill:#efefef"/><path d="M23.55,2.27H19v10.6H16.74V2.27h-4.5v-2H23.55Z" style="fill:#efefef"/><path d="M33.93,12.87,30.39,8.12H27.72v4.75H25.43V.27h5.47c2.93,0,4.88,1.57,4.88,3.92a3.74,3.74,0,0,1-2.9,3.58l3.83,5.1ZM27.72,6.12h2.77c1.91,0,3-.72,3-1.93s-1.06-1.93-2.86-1.93h-3Z" style="fill:#efefef"/><path d="M40.81,2.27V5.65h6.37v2H40.81v3.22h7.13v2H38.52V.27h9.42v2Z" style="fill:#efefef"/><path d="M54.81.27H57l5.67,12.6H60.19L58.93,10h-6.1l-1.26,2.92H49.1ZM58.07,8,55.91,2.9h-.05L53.69,8Z" style="fill:#efefef"/><path d="M66.76.27h2.63l3.19,9.31h.07L75.87.27H78.5l3.42,12.6H79.51L77,3.66h-.07l-3.13,9.22H71.5L68.35,3.66h-.07l-2.52,9.22H63.34Z" style="fill:#efefef"/><path d="M83.63.27h2.29v12.6H83.63Z" style="fill:#efefef"/><path d="M100.08.27v12.6h-1.8L90.9,4.32v8.55H88.61V.27h1.73L97.8,9V.27Z" style="fill:#efefef"/><path d="M102.42,6.55c0-3.93,2.7-6.55,6.75-6.55,3.4,0,5.73,2,6.37,4.47h-2.41a4,4,0,0,0-4-2.39,4.21,4.21,0,0,0-4.41,4.48A4.2,4.2,0,0,0,109.17,11a3.74,3.74,0,0,0,4-2.88H108.9v-2h6.77c.05,4.37-2.41,7-6.5,7S102.42,10.5,102.42,6.55Z" style="fill:#efefef"/></g></g></svg>