<svg xmlns="http://www.w3.org/2000/svg" width="256.47" height="49" viewBox="0 0 256.47 49"><g data-name="Layer 1"><path fill="none" d="M0 0h256v49H0z"/><path d="M.39 22.21c0-8.74 6-14.5 14.9-14.5S29.9 13.25 29.9 22.44v2.41H8.56a7.18 7.18 0 0 0 7.22 5.43c2.13 0 4.31-.78 5.32-2.24h8.34c-1.51 5.15-7.11 8.62-13.83 8.62C6.49 36.66.39 30.89.39 22.21zm21.5-2.35a6 6 0 0 0-6.38-5.94 6.8 6.8 0 0 0-7 5.94zM31.19 8.6h9l7.56 17h.11l7.67-17h8.85L51.74 35.76h-8zM65.63 22.21c0-8.74 6-14.5 14.9-14.5s14.62 5.54 14.62 14.73v2.41H73.8a7.18 7.18 0 0 0 7.2 5.43c2.13 0 4.31-.78 5.32-2.24h8.34c-1.51 5.15-7.11 8.62-13.83 8.62-9.1 0-15.2-5.77-15.2-14.45zm21.5-2.35a6 6 0 0 0-6.38-5.94 6.8 6.8 0 0 0-7 5.94zM99.79 8.6h8.29v3.25h.11a8.32 8.32 0 0 1 7.34-4.14 10.34 10.34 0 0 1 2.91.34v7.62a12.69 12.69 0 0 0-2.8-.34c-4.65 0-7.45 2.91-7.45 7.9v12.53h-8.4zM154.78 8.6l-18 40.15h-9l5.77-12.43L119.67 8.6h9l9 18.26h.11l8.09-18.26zM171.35 8.6h8.29v3.25h.11a8.31 8.31 0 0 1 7.34-4.14A10.34 10.34 0 0 1 190 8v7.62a12.69 12.69 0 0 0-2.8-.34c-4.65 0-7.45 2.91-7.45 7.9v12.58h-8.4zM193.19 23.95V8.6h8.4v14.56c0 3.81 2.41 6.33 6 6.33s6-2.52 6-6.33V8.6h8.4v15.35c0 7.62-5.77 12.71-14.45 12.71s-14.35-5.1-14.35-12.71zM227.52 8.6h8.29v2.63h.11a11.6 11.6 0 0 1 8.4-3.53c7.11 0 12.15 5.1 12.15 12.38v15.68H248V21.2c0-3.81-2.3-6.33-5.88-6.33-3.75 0-6.22 2.35-6.22 6v14.89h-8.4z" fill="#ffbdb9"/></g></svg>