<svg xmlns="http://www.w3.org/2000/svg" width="398" height="49.02" viewBox="0 0 398 49.02"><g data-name="Layer 1"><path fill="none" d="M0 .02h398v49H0z"/><path d="M.39 22.23c0-8.74 6-14.5 14.9-14.5S29.9 13.27 29.9 22.46v2.41H8.56a7.18 7.18 0 0 0 7.22 5.43c2.13 0 4.31-.78 5.32-2.24h8.34c-1.51 5.15-7.11 8.62-13.83 8.62C6.49 36.68.39 30.91.39 22.23zm21.5-2.35a6 6 0 0 0-6.38-5.94 6.8 6.8 0 0 0-7 5.94zM31.19 8.62h9l7.56 17h.11l7.67-17h8.85L51.74 35.78h-8zM65.63 22.23c0-8.74 6-14.5 14.9-14.5s14.62 5.54 14.62 14.73v2.41H73.8A7.18 7.18 0 0 0 81 30.3c2.13 0 4.31-.78 5.32-2.24h8.34c-1.51 5.15-7.11 8.62-13.83 8.62-9.1 0-15.2-5.77-15.2-14.45zm21.5-2.35a6 6 0 0 0-6.38-5.94 6.8 6.8 0 0 0-7 5.94zM99.79 8.62h8.29v3.25h.11a8.32 8.32 0 0 1 7.34-4.14 10.34 10.34 0 0 1 2.91.34v7.62a12.69 12.69 0 0 0-2.8-.34c-4.65 0-7.45 2.91-7.45 7.9v12.53h-8.4zM154.78 8.62l-18 40.15h-9l5.77-12.43-13.88-27.72h9l9 18.26h.11l8.12-18.26zM171.35 8.62h8.29v2.63h.11a11.7 11.7 0 0 1 16.8.06 13.69 13.69 0 0 1 9.35-3.58c7.34 0 12.6 5.1 12.6 12.38v15.67H210V21.22c0-3.81-2.24-6.33-5.77-6.33-3.08 0-5.1 2.35-5.1 6v14.89h-8.46V21.22c0-3.81-2.07-6.33-5.32-6.33-3.42 0-5.66 2.35-5.66 6v14.89h-8.4zM222.54 22.23c0-8.74 6.16-14.5 15.4-14.5s15.4 5.77 15.4 14.5-6.16 14.45-15.4 14.45-15.4-5.77-15.4-14.45zm22.79 0c0-4.54-3-7.56-7.39-7.56s-7.39 3-7.39 7.56 3 7.5 7.39 7.5 7.39-2.96 7.39-7.5zM257.93 8.62h8.29v2.63h.11a11.7 11.7 0 0 1 16.8.06 13.69 13.69 0 0 1 9.35-3.58c7.34 0 12.6 5.1 12.6 12.38v15.67h-8.46V21.22c0-3.81-2.24-6.33-5.77-6.33-3.08 0-5.1 2.35-5.1 6v14.89h-8.45V21.22c0-3.81-2.07-6.33-5.32-6.33-3.42 0-5.66 2.35-5.66 6v14.89h-8.4zM309.17 22.23c0-8.74 6-14.5 14.9-14.5s14.62 5.54 14.62 14.73v2.41h-21.35a7.18 7.18 0 0 0 7.22 5.43c2.13 0 4.31-.78 5.32-2.24h8.34c-1.51 5.15-7.11 8.62-13.83 8.62-9.12 0-15.22-5.77-15.22-14.45zm21.5-2.35a6 6 0 0 0-6.38-5.94 6.8 6.8 0 0 0-7 5.94zM343.33 8.62h8.29v2.63h.11a11.6 11.6 0 0 1 8.4-3.53c7.11 0 12.15 5.1 12.15 12.38v15.68h-8.46V21.22c0-3.81-2.3-6.33-5.88-6.33-3.75 0-6.22 2.35-6.22 6v14.89h-8.4zM380.68 25.76V15.4h-6.22V8.62h6.22V0h8.4v8.62h8.85v6.78h-8.85v9.41c0 3 1.79 4.59 5 4.59 1.18 0 2.46-.17 3.81-.28V36a20.37 20.37 0 0 1-5.32.67c-7.13.01-11.89-4.36-11.89-10.91z" fill="#6fe0d3"/></g></svg>