<svg xmlns="http://www.w3.org/2000/svg" viewBox="0 0 176 36"><path d="M0 25.256h7.379c.664 2.755 3.361 5.058 8.091 5.058 3.453 0 5.724-1.4 5.677-3.523-.095-6.908-19.681-.813-19.87-13.995C1.23 6.926 6.482 3 14.43 3c7.948 0 13.72 3.926 14.382 9.933h-7.474c-.57-2.438-2.604-4.336-6.434-4.336-3.361 0-5.632 1.445-5.584 3.748.095 7.133 19.538 1.175 19.68 13.859C29.094 32.117 23.653 36 15.422 36 6.575 36 .804 31.893 0 25.256m34 1.111V6h6.864v6.818H48v5.357h-7.136v7.439c0 2.346 1.408 3.63 4.09 3.63.955 0 1.956-.132 3.046-.265v5.49c-1.272.355-2.865.531-4.32.531-5.816 0-9.68-3.453-9.68-8.633m20-13.665h7.113v2.547h.094C62.554 13.141 64.908 12 67.502 12c.818 0 1.682.042 2.498.263v5.972a11.834 11.834 0 0 0-2.401-.263c-3.988 0-6.392 2.284-6.392 6.192V34H54V12.702zm36.216 8.952c-.143-2.759-2.229-4.716-5.407-4.716-3.132 0-5.505 1.913-5.932 4.716h11.34zM72 23.523C72 16.582 77.075 12 84.618 12 92.113 12 97 16.403 97 23.701v1.912H78.926c.759 2.668 3.13 4.316 6.12 4.316 1.801 0 3.652-.623 4.506-1.78h7.068C95.34 32.24 90.595 35 84.902 35 77.171 35 72 30.418 72 23.523zm32.298 2.844v-8.192H99v-5.357h5.298V6h7.16v6.818H119v5.357h-7.541v7.439c0 2.346 1.527 3.63 4.296 3.63 1.002 0 2.1-.132 3.245-.221v5.447c-1.336.354-3.007.53-4.535.53-6.109 0-10.167-3.453-10.167-8.633M122 23.521C122 16.58 127.19 12 134.971 12c6.556 0 11.369 3.514 12.029 8.941h-6.699c-.47-1.913-2.218-3.558-5.33-3.558-3.726 0-6.18 2.446-6.18 6.138 0 3.692 2.454 6.096 6.18 6.096 3.112 0 4.86-1.647 5.33-3.56H147C146.34 31.53 141.527 35 134.971 35 127.19 35 122 30.417 122 23.521M152 0h6.963v15.143h.093c1.95-1.993 4.549-2.855 7.057-2.855 5.802 0 9.887 4.17 9.887 10.019V35h-7.009V23.213c0-3.083-1.904-5.122-4.873-5.122-3.112 0-5.155 1.905-5.155 4.896V35H152V0z" fill="#F2F2F2" fill-rule="evenodd"/></svg>