<svg id="Layer_1" data-name="Layer 1" xmlns="http://www.w3.org/2000/svg" viewBox="0 0 1773 962"><title>support-stats-numbers1</title><rect x="705" y="719" width="8" height="110" style="fill:#1cccb6"/><circle cx="709" cy="833" r="10" style="fill:#fff"/><g style="isolation:isolate"><g style="isolation:isolate"><path d="M704.87,675.19a5.09,5.09,0,0,1-1.89-.34,4,4,0,0,1-1.4-.9,5.24,5.24,0,0,1-.93-1.32,6.14,6.14,0,0,1-.54-1.56,8.81,8.81,0,0,1,0-3.34,6.15,6.15,0,0,1,.54-1.56,5.26,5.26,0,0,1,.93-1.32,4,4,0,0,1,1.4-.9,5.07,5.07,0,0,1,1.89-.34,4.93,4.93,0,0,1,2.28.5,3.89,3.89,0,0,1,1.54,1.36,6.64,6.64,0,0,1,.82,1.85,8.09,8.09,0,0,1,0,4.16,6.62,6.62,0,0,1-.82,1.85,3.9,3.9,0,0,1-1.54,1.36A4.93,4.93,0,0,1,704.87,675.19Zm0-1.84a2.52,2.52,0,0,0,1.36-.37,2.59,2.59,0,0,0,.92-1,5.13,5.13,0,0,0,.49-1.26,5.76,5.76,0,0,0,.16-1.35,6,6,0,0,0-.16-1.4,5,5,0,0,0-.49-1.26,2.51,2.51,0,0,0-.91-.94,2.6,2.6,0,0,0-1.37-.35,2.4,2.4,0,0,0-1.71.65,3.44,3.44,0,0,0-1,1.5,6.06,6.06,0,0,0-.26,1.81,6,6,0,0,0,.16,1.39,5,5,0,0,0,.49,1.26,2.49,2.49,0,0,0,.91.94A2.6,2.6,0,0,0,704.87,673.35Z" style="fill:#9febe2"/><path d="M711.94,675v-8.18h1.87v.85a1.72,1.72,0,0,1,1.68-1,2.27,2.27,0,0,1,1.52.56l-.27,1.71a2.34,2.34,0,0,0-1.39-.43,1.48,1.48,0,0,0-1.09.45,2.08,2.08,0,0,0-.45,1.5V675Z" style="fill:#9febe2"/><path d="M721.19,678.2l-1-1.5a5.39,5.39,0,0,0,2.33-.52,1.38,1.38,0,0,0,.65-1.26v-.46a2.39,2.39,0,0,1-1.86.74,3,3,0,0,1-2.44-1.11,5.77,5.77,0,0,1,0-6.3,3,3,0,0,1,2.46-1.14,2.49,2.49,0,0,1,1.84.69v-.5H725v7.36a4.16,4.16,0,0,1-.87,2.94A4.52,4.52,0,0,1,721.19,678.2Zm.45-4.8a1.73,1.73,0,0,0,1.54-.8v-3.39a1.78,1.78,0,0,0-1.54-.8,1.58,1.58,0,0,0-1.35.64,3.79,3.79,0,0,0,0,3.68A1.56,1.56,0,0,0,721.64,673.4Z" style="fill:#9febe2"/><path d="M732.1,675v-.66a2.88,2.88,0,0,1-2.18.85,3.15,3.15,0,0,1-2.14-.71,2.51,2.51,0,0,1-.82-2,2.35,2.35,0,0,1,.94-2,3.72,3.72,0,0,1,2.26-.69,3.91,3.91,0,0,1,1.94.43v-.43a1.46,1.46,0,0,0-.39-1.14,1.77,1.77,0,0,0-1.21-.35,4.17,4.17,0,0,0-2.43.77l-.58-1.52a5.58,5.58,0,0,1,3.2-.9,5.45,5.45,0,0,1,1.13.1,3.44,3.44,0,0,1,1,.41,2,2,0,0,1,.81,1,4.07,4.07,0,0,1,.29,1.63V675Zm-1.82-1.46a2.43,2.43,0,0,0,1.82-.78V671.7a3.75,3.75,0,0,0-1.63-.34,2.4,2.4,0,0,0-1.22.27.9.9,0,0,0-.46.83.93.93,0,0,0,.38.78A1.81,1.81,0,0,0,730.28,673.54Z" style="fill:#9febe2"/><path d="M741.22,675v-4.69q0-1.9-1.52-1.9T738,670.28V675h-1.87v-8.18H738v.77a2.67,2.67,0,0,1,2.16-1,2.84,2.84,0,0,1,2.09.8,3.46,3.46,0,0,1,.81,2.54v5Z" style="fill:#9febe2"/><path d="M747.16,665.38a1.05,1.05,0,0,1-.78.33,1.12,1.12,0,0,1-1.12-1.12,1.05,1.05,0,0,1,.33-.78,1.09,1.09,0,0,1,.79-.32,1.09,1.09,0,0,1,1.1,1.1A1.09,1.09,0,0,1,747.16,665.38ZM745.43,675v-8.18h1.87V675Z" style="fill:#9febe2"/><path d="M749.4,675v-1.5l4.29-5h-4v-1.66H756v1.44l-4.27,5.07H756V675Z" style="fill:#9febe2"/><path d="M762.82,675v-.66a2.88,2.88,0,0,1-2.18.85,3.15,3.15,0,0,1-2.14-.71,2.51,2.51,0,0,1-.82-2,2.35,2.35,0,0,1,.94-2,3.72,3.72,0,0,1,2.26-.69,3.91,3.91,0,0,1,1.94.43v-.43a1.46,1.46,0,0,0-.39-1.14,1.77,1.77,0,0,0-1.21-.35,4.17,4.17,0,0,0-2.43.77l-.58-1.52a5.58,5.58,0,0,1,3.2-.9,5.45,5.45,0,0,1,1.13.1,3.44,3.44,0,0,1,1,.41,2,2,0,0,1,.81,1,4.07,4.07,0,0,1,.29,1.63V675ZM761,673.54a2.43,2.43,0,0,0,1.82-.78V671.7a3.75,3.75,0,0,0-1.63-.34,2.4,2.4,0,0,0-1.22.27.9.9,0,0,0-.46.83.93.93,0,0,0,.38.78A1.81,1.81,0,0,0,761,673.54Z" style="fill:#9febe2"/><path d="M769.29,675.19q-1.9,0-1.9-2.1v-4.64h-1.22v-1.63h1.22v-2.48l1.87-.9v3.38h1.89v1.63h-1.89v4.27q0,.79.69.78a2.6,2.6,0,0,0,1.28-.37l-.22,1.68A3.66,3.66,0,0,1,769.29,675.19Z" style="fill:#9febe2"/><path d="M774.81,665.38a1.05,1.05,0,0,1-.78.33,1.12,1.12,0,0,1-1.12-1.12,1.05,1.05,0,0,1,.33-.78,1.09,1.09,0,0,1,.79-.32,1.09,1.09,0,0,1,1.1,1.1A1.09,1.09,0,0,1,774.81,665.38ZM773.08,675v-8.18H775V675Z" style="fill:#9febe2"/><path d="M780.71,675.19a3.47,3.47,0,0,1-2.74-1.14,5.39,5.39,0,0,1,0-6.28,3.85,3.85,0,0,1,5.48,0,5.38,5.38,0,0,1,0,6.28A3.49,3.49,0,0,1,780.71,675.19Zm0-1.79a1.65,1.65,0,0,0,1.38-.66,2.93,2.93,0,0,0,.5-1.82,3,3,0,0,0-.5-1.84,1.64,1.64,0,0,0-1.38-.67,1.62,1.62,0,0,0-1.36.68,3,3,0,0,0-.51,1.83,2.94,2.94,0,0,0,.5,1.82A1.63,1.63,0,0,0,780.71,673.4Z" style="fill:#9febe2"/><path d="M791.53,675v-4.69q0-1.9-1.52-1.9t-1.66,1.87V675h-1.87v-8.18h1.87v.77a2.67,2.67,0,0,1,2.16-1,2.84,2.84,0,0,1,2.09.8,3.46,3.46,0,0,1,.81,2.54v5Z" style="fill:#9febe2"/><path d="M798.34,675.19a4.56,4.56,0,0,1-1.86-.38,3.06,3.06,0,0,1-1.32-1l1.28-1.09a2.64,2.64,0,0,0,1.9.86q1.33,0,1.33-.8a.68.68,0,0,0-.23-.5,1.79,1.79,0,0,0-.5-.34l-.86-.36A5.64,5.64,0,0,1,796,670.5a2.07,2.07,0,0,1-.65-1.59,2,2,0,0,1,.82-1.67,3.45,3.45,0,0,1,2.09-.6,3.64,3.64,0,0,1,2.93,1.26l-1.3,1.06a2.3,2.3,0,0,0-1.63-.69q-1.1,0-1.1.67a.68.68,0,0,0,.41.58,6.25,6.25,0,0,0,1.19.5,5.79,5.79,0,0,1,2,1.06,2.16,2.16,0,0,1,.68,1.7,2.11,2.11,0,0,1-.85,1.8A3.74,3.74,0,0,1,798.34,675.19Z" style="fill:#9febe2"/><path d="M809,675l-2.24-8.18h1.84l1.06,4.53q.08.37.19,1,.08-.43.21-1l1.2-4.53H813l1.18,4.53q.13.53.21,1,.11-.59.19-1l1.07-4.53h1.84L815.22,675h-1.66l-1.2-4.42q-.24-.94-.26-1.12-.06.32-.26,1.12l-1.2,4.42Z" style="fill:#9febe2"/><path d="M822.47,675.19a3.5,3.5,0,0,1-2.76-1.14,4.57,4.57,0,0,1-1-3.14,4.52,4.52,0,0,1,1-3.13,3.87,3.87,0,0,1,5.32-.17,3.83,3.83,0,0,1,1,2.86,9.15,9.15,0,0,1-.06,1.15h-5.42a2,2,0,0,0,.6,1.39,1.84,1.84,0,0,0,1.32.53,2.05,2.05,0,0,0,1.73-.85l1.18,1.22A3.6,3.6,0,0,1,822.47,675.19Zm-1.9-5.12h3.62a2,2,0,0,0-.54-1.34,1.63,1.63,0,0,0-1.17-.46,2,2,0,0,0-1.32.44A1.85,1.85,0,0,0,820.57,670.07Z" style="fill:#9febe2"/><path d="M827.37,667.62a4.16,4.16,0,0,0,.61-.71,2.32,2.32,0,0,0,.4-.86,1.34,1.34,0,0,1-.7-.41,1.1,1.1,0,0,1-.29-.78,1.19,1.19,0,0,1,.38-.91,1.26,1.26,0,0,1,.89-.35,1.24,1.24,0,0,1,.94.39,1.52,1.52,0,0,1,.38,1.1,3.22,3.22,0,0,1-.53,1.74,4,4,0,0,1-1.31,1.32Z" style="fill:#9febe2"/><path d="M831.72,675v-8.18h1.87v.85a1.72,1.72,0,0,1,1.68-1,2.27,2.27,0,0,1,1.52.56l-.27,1.71a2.34,2.34,0,0,0-1.39-.43,1.48,1.48,0,0,0-1.09.45,2.08,2.08,0,0,0-.45,1.5V675Z" style="fill:#9febe2"/><path d="M841.49,675.19a3.5,3.5,0,0,1-2.76-1.14,4.57,4.57,0,0,1-1-3.14,4.52,4.52,0,0,1,1-3.13,3.87,3.87,0,0,1,5.32-.17,3.83,3.83,0,0,1,1,2.86,9.15,9.15,0,0,1-.06,1.15h-5.42a2,2,0,0,0,.6,1.39,1.84,1.84,0,0,0,1.32.53,2.05,2.05,0,0,0,1.73-.85l1.18,1.22A3.6,3.6,0,0,1,841.49,675.19Zm-1.9-5.12h3.62a2,2,0,0,0-.54-1.34,1.63,1.63,0,0,0-1.17-.46,2,2,0,0,0-1.32.44A1.85,1.85,0,0,0,839.59,670.07Z" style="fill:#9febe2"/></g><g style="isolation:isolate"><path d="M700.2,696V685.31l1.87-.86v4.14a2.67,2.67,0,0,1,2.16-1,2.84,2.84,0,0,1,2.09.8,3.46,3.46,0,0,1,.81,2.54v5h-1.87v-4.72q0-1.87-1.52-1.87t-1.66,1.84V696Z" style="fill:#9febe2"/><path d="M712.82,696.19a3.5,3.5,0,0,1-2.76-1.14,4.57,4.57,0,0,1-1-3.14,4.52,4.52,0,0,1,1-3.13,3.87,3.87,0,0,1,5.32-.17,3.83,3.83,0,0,1,1,2.86,9.15,9.15,0,0,1-.06,1.15H710.9a2,2,0,0,0,.6,1.39,1.84,1.84,0,0,0,1.32.53,2.05,2.05,0,0,0,1.73-.85l1.18,1.22A3.6,3.6,0,0,1,712.82,696.19Zm-1.9-5.12h3.62a2,2,0,0,0-.54-1.34,1.63,1.63,0,0,0-1.17-.46,2,2,0,0,0-1.32.44A1.85,1.85,0,0,0,710.92,691.07Z" style="fill:#9febe2"/><path d="M718.39,696V685.33l1.87-.88V696Z" style="fill:#9febe2"/><path d="M726.47,696.19a2.24,2.24,0,0,1-1.86-.85v3l-1.87.86V687.82h1.87v.62a2.29,2.29,0,0,1,1.87-.82,3,3,0,0,1,2.46,1.13,4.93,4.93,0,0,1,.9,3.16,4.83,4.83,0,0,1-.93,3.13A3,3,0,0,1,726.47,696.19Zm-.27-1.79a1.53,1.53,0,0,0,1.31-.64,3.1,3.1,0,0,0,.46-1.84,3.21,3.21,0,0,0-.46-1.82,1.49,1.49,0,0,0-1.31-.69,1.8,1.8,0,0,0-1.58.8v3.39A1.82,1.82,0,0,0,726.2,694.4Z" style="fill:#9febe2"/><path d="M733.59,686.38a1.05,1.05,0,0,1-.78.33,1.12,1.12,0,0,1-1.12-1.12,1.05,1.05,0,0,1,.33-.78,1.09,1.09,0,0,1,.79-.32,1.09,1.09,0,0,1,1.1,1.1A1.09,1.09,0,0,1,733.59,686.38ZM731.86,696v-8.18h1.87V696Z" style="fill:#9febe2"/><path d="M741.21,696v-4.69q0-1.9-1.52-1.9T738,691.28V696h-1.87v-8.18H738v.77a2.67,2.67,0,0,1,2.16-1,2.84,2.84,0,0,1,2.09.8,3.46,3.46,0,0,1,.81,2.54v5Z" style="fill:#9febe2"/><path d="M748.25,699.2l-1-1.5a5.39,5.39,0,0,0,2.33-.52,1.38,1.38,0,0,0,.65-1.26v-.46a2.39,2.39,0,0,1-1.86.74,3,3,0,0,1-2.44-1.11,5.77,5.77,0,0,1,0-6.3,3,3,0,0,1,2.46-1.14,2.49,2.49,0,0,1,1.84.69v-.5h1.87v7.36a4.16,4.16,0,0,1-.87,2.94A4.52,4.52,0,0,1,748.25,699.2Zm.45-4.8a1.73,1.73,0,0,0,1.54-.8v-3.39a1.78,1.78,0,0,0-1.54-.8,1.58,1.58,0,0,0-1.35.64,3.79,3.79,0,0,0,0,3.68A1.56,1.56,0,0,0,748.7,694.4Z" style="fill:#9febe2"/><path d="M761.27,699.2l-1-1.5a5.39,5.39,0,0,0,2.33-.52,1.38,1.38,0,0,0,.65-1.26v-.46a2.39,2.39,0,0,1-1.86.74,3,3,0,0,1-2.44-1.11,5.77,5.77,0,0,1,0-6.3,3,3,0,0,1,2.46-1.14,2.49,2.49,0,0,1,1.84.69v-.5h1.87v7.36a4.16,4.16,0,0,1-.87,2.94A4.52,4.52,0,0,1,761.27,699.2Zm.45-4.8a1.73,1.73,0,0,0,1.54-.8v-3.39a1.78,1.78,0,0,0-1.54-.8,1.58,1.58,0,0,0-1.35.64,3.79,3.79,0,0,0,0,3.68A1.56,1.56,0,0,0,761.72,694.4Z" style="fill:#9febe2"/><path d="M770.87,696.19a3.47,3.47,0,0,1-2.74-1.14,5.39,5.39,0,0,1,0-6.28,3.85,3.85,0,0,1,5.48,0,5.38,5.38,0,0,1,0,6.28A3.49,3.49,0,0,1,770.87,696.19Zm0-1.79a1.65,1.65,0,0,0,1.38-.66,2.93,2.93,0,0,0,.5-1.82,3,3,0,0,0-.5-1.84,1.64,1.64,0,0,0-1.38-.67,1.62,1.62,0,0,0-1.36.68,3,3,0,0,0-.51,1.83,2.94,2.94,0,0,0,.5,1.82A1.63,1.63,0,0,0,770.87,694.4Z" style="fill:#9febe2"/><path d="M780.63,696V685.33l1.87-.88V696Z" style="fill:#9febe2"/><path d="M786.73,686.38a1.05,1.05,0,0,1-.78.33,1.12,1.12,0,0,1-1.12-1.12,1.05,1.05,0,0,1,.33-.78,1.09,1.09,0,0,1,.79-.32,1.09,1.09,0,0,1,1.1,1.1A1.09,1.09,0,0,1,786.73,686.38ZM785,696v-8.18h1.87V696Z" style="fill:#9febe2"/><path d="M791.48,696l-3-8.18h1.9l1.81,5.1.22.74a5.05,5.05,0,0,1,.22-.74l1.78-5.1h1.9l-3,8.18Z" style="fill:#9febe2"/><path d="M801.22,696.19a3.5,3.5,0,0,1-2.76-1.14,4.57,4.57,0,0,1-1-3.14,4.52,4.52,0,0,1,1-3.13,3.87,3.87,0,0,1,5.32-.17,3.83,3.83,0,0,1,1,2.86,9.15,9.15,0,0,1-.06,1.15H799.3a2,2,0,0,0,.6,1.39,1.84,1.84,0,0,0,1.32.53,2.05,2.05,0,0,0,1.73-.85l1.18,1.22A3.6,3.6,0,0,1,801.22,696.19Zm-1.9-5.12h3.62a2,2,0,0,0-.54-1.34,1.63,1.63,0,0,0-1.17-.46,2,2,0,0,0-1.32.44A1.85,1.85,0,0,0,799.32,691.07Z" style="fill:#9febe2"/><path d="M808.28,695.83a1.33,1.33,0,0,1-1.82,0,1.26,1.26,0,0,1,0-1.78,1.26,1.26,0,0,1,.91-.36,1.24,1.24,0,0,1,.91.37,1.24,1.24,0,0,1,0,1.77Z" style="fill:#9febe2"/></g></g><g style="isolation:isolate"><g style="isolation:isolate"><path d="M701.24,631.46c0-5,2.88-9,7.68-11.26a10.23,10.23,0,0,1-5.7-9.66c0-7.49,6.72-12.48,16.77-12.48s16.83,5.06,16.83,12.61a10.17,10.17,0,0,1-5.7,9.54c4.86,2.3,7.74,6.27,7.74,11.26,0,8.19-7.55,13.7-18.88,13.7S701.24,639.65,701.24,631.46Zm25.66-1.09c0-3.65-2.82-6.08-6.91-6.08s-6.78,2.43-6.78,6.08,2.75,6,6.78,6S726.9,634,726.9,630.37Zm-.64-18.94c0-3.2-2.5-5.31-6.27-5.31s-6.14,2.11-6.14,5.31c0,3.39,2.43,5.63,6.14,5.63S726.26,614.82,726.26,611.43Z" style="fill:#fff"/><path d="M768.57,636.51H745.27v-7.23l16.64-30.08h18V627H786v9.47h-6.08V644H768.57Zm0-9.47V607.2L757.43,627Z" style="fill:#fff"/><path d="M830,628.64c0,9.86-7.55,16.51-18.94,16.51s-18.81-6.59-18.81-16.45c0-3.71,1.41-6.66,3.71-10l13.18-19.46h13.44L813,613.09C823.29,613.73,830,619.81,830,628.64Zm-11.26.19c0-4.1-3.2-7.1-7.68-7.1s-7.81,3-7.81,7.17,3.26,7.1,7.81,7.1S818.74,633,818.74,628.83Z" style="fill:#fff"/></g></g></svg>