<svg id="Layer_1" data-name="Layer 1" xmlns="http://www.w3.org/2000/svg" viewBox="0 0 1773 962"><title>support-stats-numbers2</title><rect x="998" y="186" width="8" height="124" style="fill:#1cccb6"/><circle cx="1002" cy="186" r="10" style="fill:#fff"/><g style="isolation:isolate"><g style="isolation:isolate"><path d="M1038,352.43c0,3.78-1.41,6.72-3.71,10.11L1021.1,382h-13.5l9.54-13.82c-9.54-.38-16.89-6.46-16.89-15.61,0-9.86,7.55-16.51,18.94-16.51S1038,342.64,1038,352.43Zm-11.07-.13c0-4.1-3.2-7.1-7.74-7.1s-7.74,3-7.74,7.17,3.26,7.1,7.74,7.1S1026.93,356.47,1026.93,352.31Z" style="fill:#fff"/><path d="M1081.64,367.41c0,9.34-7.55,15.74-18.5,15.74-10.11,0-17.53-5.57-18.56-14.08h11.26c1,3.07,3.52,5.12,7.55,5.12,4.61,0,7.36-2.69,7.36-6.21s-2.94-6-7.49-6a10.3,10.3,0,0,0-6.46,2.24l-9-3.71,4-23.29h26.94v9.54h-18.17l-1.22,7.23a23.25,23.25,0,0,1,5.89-.77C1074.22,353.2,1081.64,358.77,1081.64,367.41Z" style="fill:#fff"/><path d="M1090.16,349c0-7.74,5.63-13,14-13s14.08,5.25,14.08,13-5.63,13-14.08,13S1090.16,356.85,1090.16,349Zm20.54,0c0-3.65-2.56-6.08-6.53-6.08s-6.46,2.43-6.46,6.08,2.56,6.08,6.46,6.08S1110.7,352.69,1110.7,349Zm24.19-11.84h7.74L1111.72,382H1104Zm-6.59,33c0-7.81,5.63-13,14.08-13s14.08,5.18,14.08,13-5.63,13-14.08,13S1128.3,377.9,1128.3,370.16Zm20.61,0c0-3.65-2.62-6.08-6.53-6.08s-6.53,2.43-6.53,6.08,2.62,6.08,6.53,6.08S1148.91,373.81,1148.91,370.16Z" style="fill:#fff"/></g></g><g style="isolation:isolate"><g style="isolation:isolate"><path d="M1003.87,413.19a5.09,5.09,0,0,1-1.89-.34,3.94,3.94,0,0,1-1.4-.9,5.21,5.21,0,0,1-.93-1.32,6.12,6.12,0,0,1-.54-1.56,8.81,8.81,0,0,1,0-3.34,6.14,6.14,0,0,1,.54-1.56,5.23,5.23,0,0,1,.93-1.32,3.94,3.94,0,0,1,1.4-.9,5.07,5.07,0,0,1,1.89-.34,4.94,4.94,0,0,1,2.28.5,3.88,3.88,0,0,1,1.54,1.36,6.61,6.61,0,0,1,.82,1.85,8.08,8.08,0,0,1,0,4.16,6.59,6.59,0,0,1-.82,1.85,3.89,3.89,0,0,1-1.54,1.36A4.94,4.94,0,0,1,1003.87,413.19Zm0-1.84a2.53,2.53,0,0,0,1.36-.37,2.59,2.59,0,0,0,.92-1,5.15,5.15,0,0,0,.49-1.26,5.81,5.81,0,0,0,.16-1.35,6,6,0,0,0-.16-1.4,5,5,0,0,0-.49-1.26,2.51,2.51,0,0,0-.91-.94,2.6,2.6,0,0,0-1.37-.35,2.4,2.4,0,0,0-1.71.65,3.44,3.44,0,0,0-1,1.5,6.23,6.23,0,0,0-.1,3.2,5,5,0,0,0,.49,1.26,2.49,2.49,0,0,0,.91.94A2.6,2.6,0,0,0,1003.87,411.35Z" style="fill:#9febe2"/><path d="M1013.36,406.46V413h-1.87v-6.54h-1.18v-1.63h1.18v-1.28a1.71,1.71,0,0,1,1.94-1.94,3.75,3.75,0,0,1,1.73.38v1.54a3.1,3.1,0,0,0-1.17-.27.56.56,0,0,0-.62.64v.93h1.79v1.63Z" style="fill:#9febe2"/><path d="M1023.68,413.19a3.34,3.34,0,0,1-2.66-1.14,5.5,5.5,0,0,1,0-6.28,3.33,3.33,0,0,1,2.66-1.14,3.07,3.07,0,0,1,3.25,2.26l-1.78.59a1.43,1.43,0,0,0-1.41-1.06,1.54,1.54,0,0,0-1.33.67,3.69,3.69,0,0,0,0,3.62,1.48,1.48,0,0,0,1.27.66,1.45,1.45,0,0,0,1.49-1.18l1.79.54A3.1,3.1,0,0,1,1023.68,413.19Z" style="fill:#9febe2"/><path d="M1033.49,413v-.66a2.88,2.88,0,0,1-2.18.85,3.15,3.15,0,0,1-2.14-.71,2.51,2.51,0,0,1-.82-2,2.35,2.35,0,0,1,.94-2,3.72,3.72,0,0,1,2.26-.69,3.91,3.91,0,0,1,1.94.43v-.43a1.46,1.46,0,0,0-.39-1.14,1.77,1.77,0,0,0-1.21-.35,4.16,4.16,0,0,0-2.43.77l-.58-1.52a5.59,5.59,0,0,1,3.2-.9,5.45,5.45,0,0,1,1.13.1,3.44,3.44,0,0,1,1,.41,2,2,0,0,1,.81,1,4.06,4.06,0,0,1,.29,1.63V413Zm-1.82-1.46a2.43,2.43,0,0,0,1.82-.78V409.7a3.76,3.76,0,0,0-1.63-.34,2.4,2.4,0,0,0-1.22.27.9.9,0,0,0-.46.83.93.93,0,0,0,.38.78A1.81,1.81,0,0,0,1031.66,411.54Z" style="fill:#9febe2"/><path d="M1037.63,413V402.33l1.87-.88V413Z" style="fill:#9febe2"/><path d="M1042.06,413V402.33l1.87-.88V413Z" style="fill:#9febe2"/><path d="M1049,413.19a4.55,4.55,0,0,1-1.86-.38,3.06,3.06,0,0,1-1.32-1l1.28-1.09a2.64,2.64,0,0,0,1.9.86q1.33,0,1.33-.8a.68.68,0,0,0-.23-.5,1.77,1.77,0,0,0-.5-.34l-.86-.36a5.64,5.64,0,0,1-2.06-1.06,2.06,2.06,0,0,1-.65-1.59,2,2,0,0,1,.82-1.67,3.45,3.45,0,0,1,2.09-.6,3.64,3.64,0,0,1,2.93,1.26l-1.3,1.06a2.3,2.3,0,0,0-1.63-.69q-1.1,0-1.1.67a.68.68,0,0,0,.41.58,6.29,6.29,0,0,0,1.19.5,5.79,5.79,0,0,1,2,1.06,2.15,2.15,0,0,1,.68,1.7,2.11,2.11,0,0,1-.85,1.8A3.74,3.74,0,0,1,1049,413.19Z" style="fill:#9febe2"/><path d="M1062.75,413v-.66a2.88,2.88,0,0,1-2.18.85,3.15,3.15,0,0,1-2.14-.71,2.51,2.51,0,0,1-.82-2,2.35,2.35,0,0,1,.94-2,3.72,3.72,0,0,1,2.26-.69,3.91,3.91,0,0,1,1.94.43v-.43a1.46,1.46,0,0,0-.39-1.14,1.77,1.77,0,0,0-1.21-.35,4.17,4.17,0,0,0-2.43.77l-.58-1.52a5.59,5.59,0,0,1,3.2-.9,5.45,5.45,0,0,1,1.13.1,3.41,3.41,0,0,1,1,.41,2,2,0,0,1,.81,1,4.08,4.08,0,0,1,.29,1.63V413Zm-1.82-1.46a2.43,2.43,0,0,0,1.82-.78V409.7a3.76,3.76,0,0,0-1.63-.34,2.4,2.4,0,0,0-1.22.27.9.9,0,0,0-.46.83.92.92,0,0,0,.38.78A1.81,1.81,0,0,0,1060.93,411.54Z" style="fill:#9febe2"/><path d="M1071.87,413v-4.69q0-1.9-1.52-1.9t-1.66,1.87V413h-1.87v-8.18h1.87v.77a2.67,2.67,0,0,1,2.16-1,2.84,2.84,0,0,1,2.09.8,3.46,3.46,0,0,1,.81,2.54v5Z" style="fill:#9febe2"/><path d="M1078.69,413.19a4.57,4.57,0,0,1-1.87-.38,3.06,3.06,0,0,1-1.32-1l1.28-1.09a2.64,2.64,0,0,0,1.9.86q1.33,0,1.33-.8a.68.68,0,0,0-.23-.5,1.8,1.8,0,0,0-.5-.34l-.86-.36a5.64,5.64,0,0,1-2.06-1.06,2.07,2.07,0,0,1-.65-1.59,2,2,0,0,1,.82-1.67,3.45,3.45,0,0,1,2.09-.6,3.64,3.64,0,0,1,2.93,1.26l-1.29,1.06a2.3,2.3,0,0,0-1.63-.69q-1.1,0-1.1.67a.68.68,0,0,0,.41.58,6.22,6.22,0,0,0,1.19.5,5.8,5.8,0,0,1,2,1.06,2.16,2.16,0,0,1,.68,1.7,2.11,2.11,0,0,1-.85,1.8A3.74,3.74,0,0,1,1078.69,413.19Z" style="fill:#9febe2"/><path d="M1085.34,413l-2.24-8.18h1.84l1.06,4.53c.05.25.12.57.19,1q.08-.43.21-1l1.2-4.53h1.71l1.18,4.53q.13.53.21,1c.07-.39.14-.71.19-1l1.07-4.53h1.84l-2.24,8.18h-1.66l-1.2-4.42q-.24-.94-.26-1.12-.06.32-.26,1.12L1087,413Z" style="fill:#9febe2"/><path d="M1098.81,413.19a3.51,3.51,0,0,1-2.76-1.14,4.56,4.56,0,0,1-1-3.14,4.52,4.52,0,0,1,1-3.13,3.87,3.87,0,0,1,5.32-.17,3.83,3.83,0,0,1,1,2.86,9,9,0,0,1-.06,1.15h-5.42a2,2,0,0,0,.6,1.39,1.84,1.84,0,0,0,1.32.53,2.05,2.05,0,0,0,1.73-.85l1.18,1.22A3.6,3.6,0,0,1,1098.81,413.19Zm-1.9-5.12h3.62a2,2,0,0,0-.54-1.34,1.63,1.63,0,0,0-1.17-.46,2,2,0,0,0-1.32.44A1.86,1.86,0,0,0,1096.91,408.07Z" style="fill:#9febe2"/><path d="M1104.3,413v-8.18h1.87v.85a1.72,1.72,0,0,1,1.68-1,2.27,2.27,0,0,1,1.52.56l-.27,1.71a2.34,2.34,0,0,0-1.39-.43,1.48,1.48,0,0,0-1.09.45,2.08,2.08,0,0,0-.45,1.5V413Z" style="fill:#9febe2"/><path d="M1114.08,413.19a3.51,3.51,0,0,1-2.76-1.14,4.56,4.56,0,0,1-1-3.14,4.52,4.52,0,0,1,1-3.13,3.87,3.87,0,0,1,5.32-.17,3.83,3.83,0,0,1,1,2.86,9,9,0,0,1-.06,1.15h-5.42a2,2,0,0,0,.6,1.39,1.84,1.84,0,0,0,1.32.53,2.05,2.05,0,0,0,1.73-.85l1.18,1.22A3.6,3.6,0,0,1,1114.08,413.19Zm-1.9-5.12h3.62a2,2,0,0,0-.54-1.34,1.63,1.63,0,0,0-1.17-.46,2,2,0,0,0-1.32.44A1.86,1.86,0,0,0,1112.17,408.07Z" style="fill:#9febe2"/><path d="M1122.56,413.19a3,3,0,0,1-2.48-1.14,4.91,4.91,0,0,1-.91-3.15,4.77,4.77,0,0,1,.94-3.12,3,3,0,0,1,2.45-1.15,2.29,2.29,0,0,1,1.84.77v-3.1l1.87-.85V413h-1.87v-.59A2.19,2.19,0,0,1,1122.56,413.19Zm.29-1.79a1.73,1.73,0,0,0,1.55-.78v-3.42a1.75,1.75,0,0,0-1.55-.78,1.56,1.56,0,0,0-1.34.65,3.77,3.77,0,0,0,0,3.66A1.54,1.54,0,0,0,1122.85,411.4Z" style="fill:#9febe2"/></g><g style="isolation:isolate"><path d="M1000.8,434l-2.24-8.18h1.84l1.06,4.53c.05.25.12.57.19,1q.08-.43.21-1l1.2-4.53h1.71l1.18,4.53q.13.53.21,1c.07-.39.14-.71.19-1l1.07-4.53h1.84L1007,434h-1.66l-1.2-4.42q-.24-.94-.26-1.12-.06.32-.26,1.12l-1.2,4.42Z" style="fill:#9febe2"/><path d="M1012.77,424.38a1.05,1.05,0,0,1-.78.33,1.12,1.12,0,0,1-1.12-1.12,1.05,1.05,0,0,1,.33-.78,1.09,1.09,0,0,1,.79-.32,1.09,1.09,0,0,1,1.1,1.1A1.09,1.09,0,0,1,1012.77,424.38ZM1011,434v-8.18h1.87V434Z" style="fill:#9febe2"/><path d="M1017.73,434.19q-1.9,0-1.9-2.1v-4.64h-1.22v-1.63h1.22v-2.48l1.87-.9v3.38h1.89v1.63h-1.89v4.27c0,.52.23.78.69.78a2.6,2.6,0,0,0,1.28-.37l-.22,1.68A3.65,3.65,0,0,1,1017.73,434.19Z" style="fill:#9febe2"/><path d="M1021.5,434V423.31l1.87-.86v4.14a2.67,2.67,0,0,1,2.16-1,2.84,2.84,0,0,1,2.09.8,3.46,3.46,0,0,1,.81,2.54v5h-1.87v-4.72q0-1.87-1.52-1.87t-1.66,1.84V434Z" style="fill:#9febe2"/><path d="M1032.5,424.38a1.05,1.05,0,0,1-.78.33,1.12,1.12,0,0,1-1.12-1.12,1.05,1.05,0,0,1,.33-.78,1.09,1.09,0,0,1,.79-.32,1.09,1.09,0,0,1,1.1,1.1A1.09,1.09,0,0,1,1032.5,424.38Zm-1.73,9.62v-8.18h1.87V434Z" style="fill:#9febe2"/><path d="M1040.11,434v-4.69q0-1.9-1.52-1.9t-1.66,1.87V434h-1.87v-8.18h1.87v.77a2.67,2.67,0,0,1,2.16-1,2.84,2.84,0,0,1,2.09.8A3.46,3.46,0,0,1,1042,429v5Z" style="fill:#9febe2"/><path d="M1049.33,434v-8.5h-1.78V424q1.78,0,2.19-1.23h1.5V434Z" style="fill:#9febe2"/><path d="M1057.92,434.19a5.23,5.23,0,0,1-3.46-1.06l1.09-1.5a4.19,4.19,0,0,0,2.37.74,2.47,2.47,0,0,0,1.7-.58,2,2,0,0,0,.65-1.54,1.68,1.68,0,0,0-1.82-1.84,2.32,2.32,0,0,0-1.76.77l-1.9-.8.34-5.58h6.38v1.84h-4.61l-.18,2.43a3.66,3.66,0,0,1,1.89-.48,3.37,3.37,0,0,1,2.66,1.06,3.77,3.77,0,0,1,.94,2.59,3.68,3.68,0,0,1-1.2,2.87A4.45,4.45,0,0,1,1057.92,434.19Z" style="fill:#9febe2"/><path d="M1070.94,434.19a4.56,4.56,0,0,1-1.86-.38,3.06,3.06,0,0,1-1.32-1l1.28-1.09a2.64,2.64,0,0,0,1.9.86q1.33,0,1.33-.8a.68.68,0,0,0-.23-.5,1.79,1.79,0,0,0-.5-.34l-.86-.36a5.64,5.64,0,0,1-2.06-1.06,2.07,2.07,0,0,1-.65-1.59,2,2,0,0,1,.82-1.67,3.46,3.46,0,0,1,2.09-.6,3.64,3.64,0,0,1,2.93,1.26l-1.3,1.06a2.3,2.3,0,0,0-1.63-.69q-1.1,0-1.1.67a.68.68,0,0,0,.41.58,6.25,6.25,0,0,0,1.19.5,5.79,5.79,0,0,1,2,1.06,2.15,2.15,0,0,1,.68,1.7,2.11,2.11,0,0,1-.85,1.8A3.74,3.74,0,0,1,1070.94,434.19Z" style="fill:#9febe2"/><path d="M1079.41,434.19a3.51,3.51,0,0,1-2.76-1.14,4.57,4.57,0,0,1-1-3.14,4.52,4.52,0,0,1,1-3.13,3.87,3.87,0,0,1,5.32-.17,3.82,3.82,0,0,1,1,2.86,9.25,9.25,0,0,1-.06,1.15h-5.42a2,2,0,0,0,.6,1.39,1.84,1.84,0,0,0,1.32.53,2,2,0,0,0,1.73-.85l1.18,1.22A3.6,3.6,0,0,1,1079.41,434.19Zm-1.9-5.12h3.62a2,2,0,0,0-.54-1.34,1.63,1.63,0,0,0-1.17-.46,2,2,0,0,0-1.32.44A1.85,1.85,0,0,0,1077.5,429.07Z" style="fill:#9febe2"/><path d="M1088.14,434.19a3.34,3.34,0,0,1-2.66-1.14,5.5,5.5,0,0,1,0-6.28,3.33,3.33,0,0,1,2.66-1.14,3.07,3.07,0,0,1,3.25,2.26l-1.78.59a1.43,1.43,0,0,0-1.41-1.06,1.54,1.54,0,0,0-1.33.67,3.69,3.69,0,0,0,0,3.62,1.48,1.48,0,0,0,1.27.66,1.45,1.45,0,0,0,1.49-1.18l1.79.54A3.1,3.1,0,0,1,1088.14,434.19Z" style="fill:#9febe2"/><path d="M1096.72,434.19a3.47,3.47,0,0,1-2.74-1.14,5.39,5.39,0,0,1,0-6.28,3.85,3.85,0,0,1,5.48,0,5.38,5.38,0,0,1,0,6.28A3.49,3.49,0,0,1,1096.72,434.19Zm0-1.79a1.65,1.65,0,0,0,1.38-.66,2.93,2.93,0,0,0,.5-1.82,3,3,0,0,0-.5-1.84,1.64,1.64,0,0,0-1.38-.67,1.62,1.62,0,0,0-1.36.68,3,3,0,0,0-.51,1.83,2.94,2.94,0,0,0,.5,1.82A1.63,1.63,0,0,0,1096.72,432.4Z" style="fill:#9febe2"/><path d="M1107.53,434v-4.69q0-1.9-1.52-1.9t-1.66,1.87V434h-1.87v-8.18h1.87v.77a2.67,2.67,0,0,1,2.16-1,2.84,2.84,0,0,1,2.09.8,3.46,3.46,0,0,1,.81,2.54v5Z" style="fill:#9febe2"/><path d="M1114.72,434.19a3,3,0,0,1-2.48-1.14,4.91,4.91,0,0,1-.91-3.15,4.77,4.77,0,0,1,.94-3.12,3,3,0,0,1,2.45-1.15,2.29,2.29,0,0,1,1.84.77v-3.1l1.87-.85V434h-1.87v-.59A2.19,2.19,0,0,1,1114.72,434.19Zm.29-1.79a1.73,1.73,0,0,0,1.55-.78v-3.42a1.75,1.75,0,0,0-1.55-.78,1.56,1.56,0,0,0-1.34.65,3.77,3.77,0,0,0,0,3.66A1.54,1.54,0,0,0,1115,432.4Z" style="fill:#9febe2"/><path d="M1123.45,434.19a4.56,4.56,0,0,1-1.86-.38,3.06,3.06,0,0,1-1.32-1l1.28-1.09a2.64,2.64,0,0,0,1.9.86q1.33,0,1.33-.8a.68.68,0,0,0-.23-.5,1.79,1.79,0,0,0-.5-.34l-.86-.36a5.64,5.64,0,0,1-2.05-1.06,2.06,2.06,0,0,1-.65-1.59,2,2,0,0,1,.82-1.67,3.45,3.45,0,0,1,2.09-.6,3.64,3.64,0,0,1,2.93,1.26L1125,428a2.3,2.3,0,0,0-1.63-.69q-1.1,0-1.1.67a.68.68,0,0,0,.41.58,6.26,6.26,0,0,0,1.19.5,5.8,5.8,0,0,1,2,1.06,2.16,2.16,0,0,1,.68,1.7,2.11,2.11,0,0,1-.85,1.8A3.74,3.74,0,0,1,1123.45,434.19Z" style="fill:#9febe2"/><path d="M1130.16,433.83a1.33,1.33,0,0,1-1.82,0,1.26,1.26,0,0,1,0-1.78,1.25,1.25,0,0,1,.91-.36,1.24,1.24,0,0,1,.91.37,1.25,1.25,0,0,1,0,1.77Z" style="fill:#9febe2"/></g></g></svg>