<svg id="Layer_1" data-name="Layer 1" xmlns="http://www.w3.org/2000/svg" viewBox="0 0 1773 962"><title>support-stats-numbers3</title><g style="isolation:isolate"><g style="isolation:isolate"><path d="M1406.07,324.74h-10.75V315.2h22.33V360h-11.58Z" style="fill:#fff"/><path d="M1427.06,354.75l18-20.54a9.27,9.27,0,0,0,2.69-6c0-2.43-1.79-4-4.8-4s-4.86,1.79-5.5,4.67h-11.26c1-9.28,7.17-14.85,17.41-14.85,10,0,16.57,5.44,16.57,13.5,0,4.29-1.79,7.68-5.18,11.58l-10.11,11.58h15.68V360h-33.47Z" style="fill:#fff"/><path d="M1479.35,348.48v9.22c0,7.74-4.54,12-12.22,12.61l-.7-4.48c3.58-.9,5.57-2.37,5.82-5.82h-5.31V348.48Z" style="fill:#fff"/><path d="M1523.89,332.67v9.86c0,11.13-7.94,18.62-19.78,18.62s-19.77-7.49-19.77-18.62v-9.86c0-11.13,7.87-18.62,19.77-18.62S1523.89,321.54,1523.89,332.67Zm-11.2,0c0-5.31-3.46-8.9-8.58-8.9s-8.64,3.58-8.64,8.9v9.86c0,5.31,3.46,8.9,8.64,8.9s8.58-3.58,8.58-8.9Z" style="fill:#fff"/><path d="M1568.5,344.64c0,9.86-7.55,16.51-18.94,16.51s-18.81-6.59-18.81-16.45c0-3.71,1.41-6.66,3.71-10l13.18-19.46h13.44l-9.54,13.89C1561.78,329.73,1568.5,335.81,1568.5,344.64Zm-11.26.19c0-4.1-3.2-7.1-7.68-7.1s-7.81,3-7.81,7.17,3.26,7.1,7.81,7.1S1557.24,349,1557.24,344.83Z" style="fill:#fff"/><path d="M1607.67,315.2v6.21L1589.17,360h-13.05l17-34.75h-19.71v-10Z" style="fill:#fff"/></g></g><g style="isolation:isolate"><g style="isolation:isolate"><path d="M1396.36,391V379.8h7.3v1.81h-5.38v2.7h3.31v1.81h-3.31v3.07H1404V391Z" style="fill:#9febe2"/><path d="M1408,391l-3-8.18h1.9l1.81,5.1.22.74a5.05,5.05,0,0,1,.22-.74l1.78-5.1h1.9l-3,8.18Z" style="fill:#9febe2"/><path d="M1417.7,391.19a3.51,3.51,0,0,1-2.76-1.14,4.57,4.57,0,0,1-1-3.14,4.52,4.52,0,0,1,1-3.13,3.87,3.87,0,0,1,5.32-.17,3.82,3.82,0,0,1,1,2.86,9.25,9.25,0,0,1-.06,1.15h-5.42a2,2,0,0,0,.6,1.39,1.84,1.84,0,0,0,1.32.53,2,2,0,0,0,1.73-.85l1.18,1.22A3.6,3.6,0,0,1,1417.7,391.19Zm-1.9-5.12h3.62a2,2,0,0,0-.54-1.34,1.63,1.63,0,0,0-1.17-.46,2,2,0,0,0-1.32.44A1.85,1.85,0,0,0,1415.8,386.07Z" style="fill:#9febe2"/><path d="M1428.25,391v-4.69q0-1.9-1.52-1.9t-1.66,1.87V391h-1.87v-8.18h1.87v.77a2.67,2.67,0,0,1,2.16-1,2.84,2.84,0,0,1,2.09.8,3.46,3.46,0,0,1,.81,2.54v5Z" style="fill:#9febe2"/><path d="M1434.84,391.19q-1.9,0-1.9-2.1v-4.64h-1.22v-1.63h1.22v-2.48l1.87-.9v3.38h1.89v1.63h-1.89v4.27c0,.52.23.78.69.78a2.6,2.6,0,0,0,1.28-.37l-.22,1.68A3.65,3.65,0,0,1,1434.84,391.19Z" style="fill:#9febe2"/><path d="M1441.19,391.19a4.56,4.56,0,0,1-1.86-.38,3.06,3.06,0,0,1-1.32-1l1.28-1.09a2.64,2.64,0,0,0,1.9.86q1.33,0,1.33-.8a.68.68,0,0,0-.23-.5,1.79,1.79,0,0,0-.5-.34l-.86-.36a5.64,5.64,0,0,1-2.06-1.06,2.07,2.07,0,0,1-.65-1.59,2,2,0,0,1,.82-1.67,3.46,3.46,0,0,1,2.09-.6,3.64,3.64,0,0,1,2.93,1.26l-1.3,1.06a2.3,2.3,0,0,0-1.63-.69q-1.1,0-1.1.67a.68.68,0,0,0,.41.58,6.25,6.25,0,0,0,1.19.5,5.79,5.79,0,0,1,2,1.06,2.15,2.15,0,0,1,.68,1.7,2.11,2.11,0,0,1-.85,1.8A3.74,3.74,0,0,1,1441.19,391.19Z" style="fill:#9febe2"/><path d="M1452.65,391.19q-1.9,0-1.9-2.1v-4.64h-1.21v-1.63h1.21v-2.48l1.87-.9v3.38h1.89v1.63h-1.89v4.27q0,.79.69.78a2.6,2.6,0,0,0,1.28-.37l-.22,1.68A3.67,3.67,0,0,1,1452.65,391.19Z" style="fill:#9febe2"/><path d="M1456.42,391V380.31l1.87-.86v4.14a2.67,2.67,0,0,1,2.16-1,2.84,2.84,0,0,1,2.09.8,3.46,3.46,0,0,1,.81,2.54v5h-1.87v-4.72q0-1.87-1.52-1.87t-1.66,1.84V391Z" style="fill:#9febe2"/><path d="M1470.33,391v-.66a2.88,2.88,0,0,1-2.18.85,3.15,3.15,0,0,1-2.14-.71,2.51,2.51,0,0,1-.82-2,2.34,2.34,0,0,1,.94-2,3.71,3.71,0,0,1,2.26-.69,3.9,3.9,0,0,1,1.94.43v-.43a1.46,1.46,0,0,0-.39-1.14,1.77,1.77,0,0,0-1.21-.35,4.17,4.17,0,0,0-2.43.77l-.58-1.52a5.58,5.58,0,0,1,3.2-.9,5.45,5.45,0,0,1,1.13.1,3.44,3.44,0,0,1,1,.41,2,2,0,0,1,.81,1,4.08,4.08,0,0,1,.29,1.63V391Zm-1.82-1.46a2.43,2.43,0,0,0,1.82-.78V387.7a3.75,3.75,0,0,0-1.63-.34,2.4,2.4,0,0,0-1.22.27.9.9,0,0,0-.46.83.93.93,0,0,0,.38.78A1.81,1.81,0,0,0,1468.5,389.54Z" style="fill:#9febe2"/><path d="M1476.79,391.19q-1.9,0-1.9-2.1v-4.64h-1.22v-1.63h1.22v-2.48l1.87-.9v3.38h1.89v1.63h-1.89v4.27c0,.52.23.78.69.78a2.6,2.6,0,0,0,1.28-.37l-.22,1.68A3.65,3.65,0,0,1,1476.79,391.19Z" style="fill:#9febe2"/><path d="M1484.49,391V380.31l1.87-.86v4.14a2.67,2.67,0,0,1,2.16-1,2.84,2.84,0,0,1,2.09.8,3.46,3.46,0,0,1,.81,2.54v5h-1.87v-4.72q0-1.87-1.52-1.87t-1.66,1.84V391Z" style="fill:#9febe2"/><path d="M1498.39,391v-.66a2.88,2.88,0,0,1-2.18.85,3.15,3.15,0,0,1-2.14-.71,2.51,2.51,0,0,1-.82-2,2.35,2.35,0,0,1,.94-2,3.72,3.72,0,0,1,2.26-.69,3.91,3.91,0,0,1,1.94.43v-.43a1.46,1.46,0,0,0-.39-1.14,1.77,1.77,0,0,0-1.21-.35,4.16,4.16,0,0,0-2.43.77l-.58-1.52a5.59,5.59,0,0,1,3.2-.9,5.45,5.45,0,0,1,1.13.1,3.44,3.44,0,0,1,1,.41,2,2,0,0,1,.81,1,4.06,4.06,0,0,1,.29,1.63V391Zm-1.82-1.46a2.43,2.43,0,0,0,1.82-.78V387.7a3.76,3.76,0,0,0-1.63-.34,2.4,2.4,0,0,0-1.22.27.9.9,0,0,0-.46.83.93.93,0,0,0,.38.78A1.81,1.81,0,0,0,1496.57,389.54Z" style="fill:#9febe2"/><path d="M1504.49,391l-3-8.18h1.9l1.81,5.1.22.74a5,5,0,0,1,.22-.74l1.78-5.1h1.9l-3,8.18Z" style="fill:#9febe2"/><path d="M1514.23,391.19a3.5,3.5,0,0,1-2.76-1.14,4.57,4.57,0,0,1-1-3.14,4.51,4.51,0,0,1,1-3.13,3.87,3.87,0,0,1,5.32-.17,3.83,3.83,0,0,1,1,2.86,9,9,0,0,1-.06,1.15h-5.42a2,2,0,0,0,.6,1.39,1.84,1.84,0,0,0,1.32.53,2.05,2.05,0,0,0,1.73-.85l1.18,1.22A3.6,3.6,0,0,1,1514.23,391.19Zm-1.9-5.12h3.62a2,2,0,0,0-.54-1.34,1.63,1.63,0,0,0-1.17-.46,2,2,0,0,0-1.32.44A1.86,1.86,0,0,0,1512.33,386.07Z" style="fill:#9febe2"/><path d="M1527.32,391.19a2.19,2.19,0,0,1-1.81-.82V391h-1.87V380.3l1.87-.85v4a2.31,2.31,0,0,1,1.84-.8,3,3,0,0,1,2.46,1.15,4.81,4.81,0,0,1,.94,3.12,4.9,4.9,0,0,1-.91,3.17A3.06,3.06,0,0,1,1527.32,391.19Zm-.22-1.79a1.5,1.5,0,0,0,1.32-.66,3.2,3.2,0,0,0,.46-1.83,3.14,3.14,0,0,0-.46-1.86,1.53,1.53,0,0,0-1.31-.64,1.77,1.77,0,0,0-1.58.8v3.41A1.76,1.76,0,0,0,1527.09,389.4Z" style="fill:#9febe2"/><path d="M1536.12,391.19a3.51,3.51,0,0,1-2.76-1.14,4.57,4.57,0,0,1-1-3.14,4.52,4.52,0,0,1,1-3.13,3.87,3.87,0,0,1,5.32-.17,3.82,3.82,0,0,1,1,2.86,9.25,9.25,0,0,1-.06,1.15h-5.42a2,2,0,0,0,.6,1.39,1.84,1.84,0,0,0,1.32.53,2,2,0,0,0,1.73-.85l1.18,1.22A3.6,3.6,0,0,1,1536.12,391.19Zm-1.9-5.12h3.62a2,2,0,0,0-.54-1.34,1.63,1.63,0,0,0-1.17-.46,2,2,0,0,0-1.32.44A1.85,1.85,0,0,0,1534.21,386.07Z" style="fill:#9febe2"/><path d="M1545,391.19a3.51,3.51,0,0,1-2.76-1.14,4.57,4.57,0,0,1-1-3.14,4.52,4.52,0,0,1,1-3.13,3.87,3.87,0,0,1,5.32-.17,3.82,3.82,0,0,1,1,2.86,9.25,9.25,0,0,1-.06,1.15h-5.42a2,2,0,0,0,.6,1.39,1.84,1.84,0,0,0,1.32.53,2,2,0,0,0,1.73-.85l1.18,1.22A3.6,3.6,0,0,1,1545,391.19Zm-1.9-5.12h3.62a2,2,0,0,0-.54-1.34,1.63,1.63,0,0,0-1.17-.46,2,2,0,0,0-1.32.44A1.85,1.85,0,0,0,1543.08,386.07Z" style="fill:#9febe2"/><path d="M1555.53,391v-4.69q0-1.9-1.52-1.9t-1.66,1.87V391h-1.87v-8.18h1.87v.77a2.67,2.67,0,0,1,2.16-1,2.84,2.84,0,0,1,2.09.8,3.46,3.46,0,0,1,.81,2.54v5Z" style="fill:#9febe2"/></g><g style="isolation:isolate"><path d="M1398.82,412.19a4.56,4.56,0,0,1-1.86-.38,3.06,3.06,0,0,1-1.32-1l1.28-1.09a2.64,2.64,0,0,0,1.9.86q1.33,0,1.33-.8a.68.68,0,0,0-.23-.5,1.79,1.79,0,0,0-.5-.34l-.86-.36a5.64,5.64,0,0,1-2.06-1.06,2.07,2.07,0,0,1-.65-1.59,2,2,0,0,1,.82-1.67,3.46,3.46,0,0,1,2.09-.6,3.64,3.64,0,0,1,2.93,1.26l-1.3,1.06a2.3,2.3,0,0,0-1.63-.69q-1.1,0-1.1.67a.68.68,0,0,0,.41.58,6.25,6.25,0,0,0,1.19.5,5.79,5.79,0,0,1,2,1.06,2.15,2.15,0,0,1,.68,1.7,2.11,2.11,0,0,1-.85,1.8A3.74,3.74,0,0,1,1398.82,412.19Z" style="fill:#9febe2"/><path d="M1406.28,412.19q-1.9,0-1.9-2.1v-4.64h-1.21v-1.63h1.21v-2.48l1.87-.9v3.38h1.89v1.63h-1.89v4.27q0,.79.69.78a2.6,2.6,0,0,0,1.28-.37l-.22,1.68A3.67,3.67,0,0,1,1406.28,412.19Z" style="fill:#9febe2"/><path d="M1410.06,412v-8.18h1.87v.85a1.72,1.72,0,0,1,1.68-1,2.27,2.27,0,0,1,1.52.56l-.27,1.71a2.34,2.34,0,0,0-1.39-.43,1.48,1.48,0,0,0-1.09.45,2.08,2.08,0,0,0-.45,1.5V412Z" style="fill:#9febe2"/><path d="M1419.83,412.19a3.5,3.5,0,0,1-2.76-1.14,4.57,4.57,0,0,1-1-3.14,4.51,4.51,0,0,1,1-3.13,3.87,3.87,0,0,1,5.32-.17,3.83,3.83,0,0,1,1,2.86,9,9,0,0,1-.06,1.15h-5.42a2,2,0,0,0,.6,1.39,1.84,1.84,0,0,0,1.32.53,2.05,2.05,0,0,0,1.73-.85l1.18,1.22A3.6,3.6,0,0,1,1419.83,412.19Zm-1.9-5.12h3.62a2,2,0,0,0-.54-1.34,1.63,1.63,0,0,0-1.17-.46,2,2,0,0,0-1.32.44A1.86,1.86,0,0,0,1417.93,407.07Z" style="fill:#9febe2"/><path d="M1430,412v-.66a2.88,2.88,0,0,1-2.18.85,3.15,3.15,0,0,1-2.14-.71,2.51,2.51,0,0,1-.82-2,2.34,2.34,0,0,1,.94-2,3.71,3.71,0,0,1,2.26-.69,3.9,3.9,0,0,1,1.94.43v-.43a1.46,1.46,0,0,0-.39-1.14,1.77,1.77,0,0,0-1.21-.35,4.17,4.17,0,0,0-2.43.77l-.58-1.52a5.58,5.58,0,0,1,3.2-.9,5.45,5.45,0,0,1,1.13.1,3.44,3.44,0,0,1,1,.41,2,2,0,0,1,.81,1,4.08,4.08,0,0,1,.29,1.63V412Zm-1.82-1.46a2.43,2.43,0,0,0,1.82-.78V408.7a3.75,3.75,0,0,0-1.63-.34,2.4,2.4,0,0,0-1.22.27.9.9,0,0,0-.46.83.93.93,0,0,0,.38.78A1.81,1.81,0,0,0,1428.15,410.54Z" style="fill:#9febe2"/><path d="M1443.64,412v-4.69q0-1.9-1.39-1.9a1.39,1.39,0,0,0-1.13.49,2.21,2.21,0,0,0-.41,1.45V412h-1.87v-4.69q0-1.9-1.39-1.9a1.39,1.39,0,0,0-1.13.49,2.21,2.21,0,0,0-.41,1.45V412H1434v-8.18h1.87v.75a2.35,2.35,0,0,1,2-.94,2.25,2.25,0,0,1,2.14,1.15,2.77,2.77,0,0,1,2.46-1.15,3.06,3.06,0,0,1,2.18.76,3.15,3.15,0,0,1,.81,2.39V412Z" style="fill:#9febe2"/><path d="M1451.21,412.19a3.51,3.51,0,0,1-2.76-1.14,4.56,4.56,0,0,1-1-3.14,4.52,4.52,0,0,1,1-3.13,3.87,3.87,0,0,1,5.32-.17,3.83,3.83,0,0,1,1,2.86,9,9,0,0,1-.06,1.15h-5.42a2,2,0,0,0,.6,1.39,1.84,1.84,0,0,0,1.32.53,2.05,2.05,0,0,0,1.73-.85l1.18,1.22A3.6,3.6,0,0,1,1451.21,412.19Zm-1.9-5.12h3.62a2,2,0,0,0-.54-1.34,1.63,1.63,0,0,0-1.17-.46,2,2,0,0,0-1.32.44A1.86,1.86,0,0,0,1449.3,407.07Z" style="fill:#9febe2"/><path d="M1459.69,412.19a3,3,0,0,1-2.48-1.14,4.91,4.91,0,0,1-.91-3.15,4.77,4.77,0,0,1,.94-3.12,3,3,0,0,1,2.45-1.15,2.29,2.29,0,0,1,1.84.77v-3.1l1.87-.85V412h-1.87v-.59A2.19,2.19,0,0,1,1459.69,412.19Zm.29-1.79a1.73,1.73,0,0,0,1.55-.78v-3.42a1.75,1.75,0,0,0-1.55-.78,1.56,1.56,0,0,0-1.34.65,3.77,3.77,0,0,0,0,3.66A1.54,1.54,0,0,0,1460,410.4Z" style="fill:#9febe2"/><path d="M1472.12,412.19q-1.9,0-1.9-2.1v-4.64H1469v-1.63h1.22v-2.48l1.87-.9v3.38H1474v1.63h-1.89v4.27c0,.52.23.78.69.78a2.6,2.6,0,0,0,1.28-.37l-.22,1.68A3.65,3.65,0,0,1,1472.12,412.19Z" style="fill:#9febe2"/><path d="M1475.89,412V401.31l1.87-.86v4.14a2.67,2.67,0,0,1,2.16-1,2.84,2.84,0,0,1,2.09.8,3.46,3.46,0,0,1,.81,2.54v5H1481v-4.72q0-1.87-1.52-1.87t-1.66,1.84V412Z" style="fill:#9febe2"/><path d="M1486.89,402.38a1.05,1.05,0,0,1-.78.33,1.12,1.12,0,0,1-1.12-1.12,1.05,1.05,0,0,1,.33-.78,1.09,1.09,0,0,1,.79-.32,1.09,1.09,0,0,1,1.1,1.1A1.09,1.09,0,0,1,1486.89,402.38Zm-1.73,9.62v-8.18H1487V412Z" style="fill:#9febe2"/><path d="M1492.07,412.19a4.56,4.56,0,0,1-1.86-.38,3.06,3.06,0,0,1-1.32-1l1.28-1.09a2.64,2.64,0,0,0,1.9.86q1.33,0,1.33-.8a.68.68,0,0,0-.23-.5,1.79,1.79,0,0,0-.5-.34l-.86-.36a5.64,5.64,0,0,1-2.06-1.06,2.07,2.07,0,0,1-.65-1.59,2,2,0,0,1,.82-1.67,3.46,3.46,0,0,1,2.09-.6,3.64,3.64,0,0,1,2.93,1.26l-1.3,1.06a2.3,2.3,0,0,0-1.63-.69q-1.1,0-1.1.67a.68.68,0,0,0,.41.58,6.25,6.25,0,0,0,1.19.5,5.79,5.79,0,0,1,2,1.06,2.15,2.15,0,0,1,.68,1.7,2.11,2.11,0,0,1-.85,1.8A3.74,3.74,0,0,1,1492.07,412.19Z" style="fill:#9febe2"/><path d="M1502.13,415.1l1.26-3.23-3.07-8h1.89l1.9,5a5.28,5.28,0,0,1,.24.74,5.83,5.83,0,0,1,.22-.74l1.92-5h1.89l-4.32,11.28Z" style="fill:#9febe2"/><path d="M1513.29,412.19a3.51,3.51,0,0,1-2.76-1.14,4.57,4.57,0,0,1-1-3.14,4.52,4.52,0,0,1,1-3.13,3.87,3.87,0,0,1,5.32-.17,3.82,3.82,0,0,1,1,2.86,9.25,9.25,0,0,1-.06,1.15h-5.42a2,2,0,0,0,.6,1.39,1.84,1.84,0,0,0,1.32.53,2,2,0,0,0,1.73-.85l1.18,1.22A3.6,3.6,0,0,1,1513.29,412.19Zm-1.9-5.12H1515a2,2,0,0,0-.54-1.34,1.63,1.63,0,0,0-1.17-.46,2,2,0,0,0-1.32.44A1.85,1.85,0,0,0,1511.38,407.07Z" style="fill:#9febe2"/><path d="M1523.43,412v-.66a2.88,2.88,0,0,1-2.18.85,3.15,3.15,0,0,1-2.14-.71,2.51,2.51,0,0,1-.82-2,2.34,2.34,0,0,1,.94-2,3.72,3.72,0,0,1,2.26-.69,3.91,3.91,0,0,1,1.94.43v-.43a1.46,1.46,0,0,0-.39-1.14,1.77,1.77,0,0,0-1.21-.35,4.16,4.16,0,0,0-2.43.77l-.58-1.52a5.58,5.58,0,0,1,3.2-.9,5.46,5.46,0,0,1,1.13.1,3.46,3.46,0,0,1,1,.41,2,2,0,0,1,.81,1,4.06,4.06,0,0,1,.29,1.63V412Zm-1.82-1.46a2.43,2.43,0,0,0,1.82-.78V408.7a3.75,3.75,0,0,0-1.63-.34,2.39,2.39,0,0,0-1.22.27.9.9,0,0,0-.46.83.93.93,0,0,0,.38.78A1.81,1.81,0,0,0,1521.61,410.54Z" style="fill:#9febe2"/><path d="M1527.49,412v-8.18h1.87v.85a1.72,1.72,0,0,1,1.68-1,2.27,2.27,0,0,1,1.52.56l-.27,1.71a2.34,2.34,0,0,0-1.39-.43,1.48,1.48,0,0,0-1.09.45,2.08,2.08,0,0,0-.45,1.5V412Z" style="fill:#9febe2"/><path d="M1535.59,411.83a1.33,1.33,0,0,1-1.82,0,1.26,1.26,0,0,1,0-1.78,1.25,1.25,0,0,1,.91-.36,1.24,1.24,0,0,1,.91.37,1.25,1.25,0,0,1,0,1.77Z" style="fill:#9febe2"/></g></g><rect x="1395" y="437" width="8" height="215" style="fill:#1cccb6"/><circle cx="1399" cy="656" r="10" style="fill:#fff"/></svg>