<svg xmlns="http://www.w3.org/2000/svg" viewBox="0 0 1360 800"><g data-name="Layer 1"><path fill="#02c386" d="M394.24 277.33v14.82h-2.71v-14.82l-13-19.6h3.18l11.23 16.94 11.23-16.94h3.13zm24.02-8.88A11.43 11.43 0 0 1 430 280.51a12 12 0 0 1-20.2 8.79 11.91 11.91 0 0 1-3.31-8.79 11.73 11.73 0 0 1 3.31-8.74 11.56 11.56 0 0 1 8.46-3.32zm-6.58 4.92a9.82 9.82 0 0 0-2.58 7.13 10 10 0 0 0 2.58 7.18 9 9 0 0 0 6.58 2.62 8.78 8.78 0 0 0 6.54-2.62 9.85 9.85 0 0 0 2.62-7.18 9.67 9.67 0 0 0-2.62-7.13 9.51 9.51 0 0 0-13.12 0zm44.5 18.78h-2.44v-4a7.78 7.78 0 0 1-7.41 4.37c-5.15 0-8.51-3.73-8.51-9.25v-14.4h2.53V283c0 4.37 2.44 7.13 6.44 7.13a6.15 6.15 0 0 0 4.92-2.12 7.65 7.65 0 0 0 1.89-5.15v-14h2.58zm54.03-21.07a9.42 9.42 0 0 1 2.44 6.72v14.36h-2.58v-14c0-4.42-2.53-7.32-6.54-7.32a6.38 6.38 0 0 0-5 2.16 7.57 7.57 0 0 0-1.89 5.15v14H494v-14c0-4.37-2.58-7.32-6.44-7.32a6.54 6.54 0 0 0-5.06 2.16 7.57 7.57 0 0 0-1.89 5.15v14H478v-23.27h2.44v4a8 8 0 0 1 7.5-4.42 8.19 8.19 0 0 1 7.87 5.06 8.55 8.55 0 0 1 8.1-5.06 8.1 8.1 0 0 1 6.3 2.63zm27.94 6.21v14.86h-2.62v-3.5a8.58 8.58 0 0 1-7.73 3.91c-4.46 0-7.41-2.3-7.41-6.4s2.85-6.44 8.51-6.76l6.63-.41v-1.66c0-4.19-1.93-6.53-5.8-6.53a5.71 5.71 0 0 0-6.08 5.8l-2.62-.09a7.76 7.76 0 0 1 2.35-5.61 8.42 8.42 0 0 1 6.3-2.44c5.48-.01 8.47 3.26 8.47 8.83zm-2.58 3.91l-6.4.37q-6.21.34-6.21 4.56c0 2.81 1.75 4.19 5.2 4.19 4.28 0 7.41-2.48 7.41-8.05zm33 10.95h-2.48v-4.46c-1.43 2.95-4.6 4.88-8.88 4.88a10.85 10.85 0 0 1-8.1-3.22c-2.12-2.16-3.17-5.06-3.17-8.79s1.06-6.67 3.17-8.84a10.89 10.89 0 0 1 8.1-3.27c4.23 0 7.36 1.93 8.79 4.74v-16.8h2.58zm-20.06-11.64c0 6.12 3.73 9.8 8.93 9.8 5 0 8.51-3.18 8.51-9v-1.56c0-5.84-3.41-9-8.51-9s-8.93 3.64-8.93 9.76zm49.74.97h-19a9 9 0 0 0 2.49 6.49 8.26 8.26 0 0 0 6 2.35c4 0 6.81-1.84 7.69-5.11l2.58.18c-1.1 4.37-4.88 7.18-10.17 7.18a10.88 10.88 0 0 1-8.14-3.22q-3.18-3.24-3.18-8.84a12.26 12.26 0 0 1 3.13-8.84 10.71 10.71 0 0 1 8.1-3.22 9.79 9.79 0 0 1 7.69 3.13 11.7 11.7 0 0 1 2.81 8.24zm-19-2.16h16.48c0-5.15-2.85-8.56-8-8.56-4.85-.01-8.3 3.17-8.48 8.55zM621 261.37a1.89 1.89 0 1 1-2.67-2.67c1.56-1.94 4.59 1.1 2.67 2.67zm0 30.79h-2.58v-23.29H621zm19.64-2.35v2.35a17 17 0 0 1-2.95.23c-4 0-6.49-2.25-6.49-7v-14.22h-4.42v-2.26h4.42v-8.24h2.62v8.24h6.67v2.26h-6.67l-.09 13.76c0 3.45 1.47 5.15 4.42 5.15a19.94 19.94 0 0 0 2.49-.27zm9.8.73a2 2 0 1 1-2.07-2 2 2 0 0 1 2.07 2zm-.74-7.09H647l-.14-25.73h3zM460 319.71h-4.11v9.87h-1.36v-9.87h-4.11v-1.2H460zm3.14-1.63v5a2.6 2.6 0 0 1 2.29-1.17 2.8 2.8 0 0 1 2.1.84 3.1 3.1 0 0 1 .83 2.25v4.59h-1.29v-4.43a1.89 1.89 0 0 0-1.91-2.07 2 2 0 0 0-1.47.61 2.12 2.12 0 0 0-.56 1.48v4.41h-1.27v-11.5zm13.45 6.75v4.75h-1.29v-.89a2.79 2.79 0 0 1-2.25 1c-1.5 0-2.47-.8-2.47-2.15s.92-2.15 2.77-2.25l2-.12v-.36c0-1.23-.53-1.83-1.58-1.83a1.51 1.51 0 0 0-1.64 1.57l-1.29-.06a2.51 2.51 0 0 1 .8-1.83 2.86 2.86 0 0 1 2.12-.8 2.63 2.63 0 0 1 2.83 2.97zm-1.27 1.41l-1.81.12q-1.64.11-1.64 1.2c0 .73.46 1.08 1.38 1.08a1.88 1.88 0 0 0 2.07-2.09zm7.68 2.21v1.14a5.92 5.92 0 0 1-1 .09 2.11 2.11 0 0 1-2.32-2.37v-4.17h-1.41V322h1.41v-2.6H481v2.6h2v1.11h-2v3.92q0 1.46 1.33 1.47a5.39 5.39 0 0 0 .67-.05zm13.63 1.13h-1l-2-5.4-2 5.4h-1l-2.97-7.58h1.39l2 5.48 2-5.48h.9l2.06 5.48 2-5.48h1.38zm10.04-4.75v4.75h-1.29v-.89a2.79 2.79 0 0 1-2.25 1c-1.49 0-2.47-.8-2.47-2.15s.92-2.15 2.77-2.25l2-.12v-.36c0-1.23-.53-1.83-1.58-1.83a1.51 1.51 0 0 0-1.64 1.57l-1.29-.06a2.51 2.51 0 0 1 .8-1.83 2.87 2.87 0 0 1 2.12-.8 2.63 2.63 0 0 1 2.83 2.97zm-1.27 1.41l-1.81.12q-1.64.11-1.64 1.2c0 .73.46 1.08 1.38 1.08a1.88 1.88 0 0 0 2.07-2.09zm9.17-2.06l-1.27.07a1.32 1.32 0 0 0-1.54-1.24c-.93 0-1.44.4-1.44 1.1a.75.75 0 0 0 .38.71 2.69 2.69 0 0 0 .46.18l.28.07a6.82 6.82 0 0 1 .67.15c1.79.43 2.62.93 2.62 2.18 0 1.48-1.1 2.34-2.86 2.34s-2.8-.83-3-2.29l1.27-.09c.12.84.7 1.27 1.75 1.27s1.55-.4 1.55-1.12a.82.82 0 0 0-.38-.77 5.43 5.43 0 0 0-1.48-.5l-.84-.21c-.19-.06-.43-.15-.68-.25a1.63 1.63 0 0 1-1-1.64c0-1.35 1-2.22 2.77-2.21a2.53 2.53 0 0 1 2.74 2.25zm11.92.65v4.75h-1.29v-.89a2.79 2.79 0 0 1-2.25 1c-1.5 0-2.47-.8-2.47-2.15s.92-2.15 2.77-2.25l2-.12v-.36c0-1.23-.53-1.83-1.58-1.83a1.51 1.51 0 0 0-1.64 1.57l-1.29-.06a2.51 2.51 0 0 1 .8-1.83 2.86 2.86 0 0 1 2.12-.8 2.63 2.63 0 0 1 2.83 2.97zm-1.27 1.41l-1.81.12q-1.64.11-1.64 1.2c0 .73.46 1.08 1.38 1.08a1.88 1.88 0 0 0 2.07-2.09zm9.17-8.16v5.09a2.92 2.92 0 0 1 2.61-1.27 3.45 3.45 0 0 1 2.6 1.07 4.45 4.45 0 0 1 0 5.71 3.5 3.5 0 0 1-2.6 1.05 2.93 2.93 0 0 1-2.68-1.38v1.23h-1.21v-11.5zm0 7.5v.42a2.32 2.32 0 0 0 2.41 2.59 2.82 2.82 0 0 0 0-5.61 2.31 2.31 0 0 0-2.39 2.6zm9.29-5.45a.83.83 0 0 1-.84-.83.84.84 0 1 1 .84.83zm.62 9.44H543V322h1.27zm8.7-6.3V322h1.2v8a3.3 3.3 0 0 1-1 2.55 3.64 3.64 0 0 1-2.62.93c-2.06 0-3.34-1.07-3.66-2.68h1.27a2.43 2.43 0 0 0 4.72-.67v-1.64a2.89 2.89 0 0 1-2.6 1.27 3.52 3.52 0 0 1-2.62-1.07 4 4 0 0 1-1-2.86 3.89 3.89 0 0 1 1-2.84 3.52 3.52 0 0 1 2.62-1.07 3 3 0 0 1 2.69 1.35zm-5 2.55a2.5 2.5 0 0 0 2.53 2.8 2.32 2.32 0 0 0 2.43-2.58v-.44a2.33 2.33 0 0 0-2.46-2.6 2.51 2.51 0 0 0-2.5 2.82zm14.1 3.76h-1.27v-11.5h1.27zm3.54-9.45a.83.83 0 0 1-.84-.83.84.84 0 1 1 .84.83zm.62 9.44H565V322h1.27zm6.49-11.57v1.11h-.43a1.47 1.47 0 0 0-1.54 1.61V322h1.94v1.11h-1.94v6.44h-1.27v-6.44H568V322h1.46v-1.26a2.52 2.52 0 0 1 2.68-2.75zm5.56 10.45v1.14a5.91 5.91 0 0 1-1 .09 2.11 2.11 0 0 1-2.32-2.37v-4.17h-1.41V322H575v-2.6h1.29v2.6h2v1.11h-2v3.92q0 1.46 1.33 1.47a5.39 5.39 0 0 0 .69-.05zm3.07.4a.89.89 0 0 1-.89.87.88.88 0 0 1 0-1.76.89.89 0 0 1 .89.89z"/><path fill="none" d="M0 0h1360v800H0z"/></g></svg>