<?xml version="1.0" encoding="utf-8"?>
<!-- Generator: Adobe Illustrator 16.0.0, SVG Export Plug-In . SVG Version: 6.00 Build 0)  -->
<!DOCTYPE svg PUBLIC "-//W3C//DTD SVG 1.1//EN" "http://www.w3.org/Graphics/SVG/1.1/DTD/svg11.dtd">
<svg version="1.1" id="Layer_1" xmlns="http://www.w3.org/2000/svg" xmlns:xlink="http://www.w3.org/1999/xlink" x="0px" y="0px"
	 width="734.569px" height="492.982px" viewBox="0 0 734.569 492.982" enable-background="new 0 0 734.569 492.982"
	 xml:space="preserve">
<g>
	<g>
		<path fill="#BDBDBD" d="M615.427,170.143c14.132,0.831,28.254,1.725,42.358,2.683c3.564-3.629,7.119-7.215,10.654-10.761
			c-1.63-1.732-3.266-3.472-4.896-5.217c-0.211-4.435-0.445-8.869-0.689-13.302c-1.881-2.021-3.758-4.05-5.639-6.082
			c-18.437-1.825-36.891-3.492-55.348-4.992c-1.814,1.933-3.639,3.874-5.462,5.826c0.444,10.275,0.837,20.555,1.161,30.833
			C603.527,169.458,609.477,169.795,615.427,170.143z"/>
	</g>
	<g>
		<path fill="#A6273C" d="M655.848,129.439c3.789,0.398,7.578,0.807,11.365,1.22c-0.475-7.593-0.993-15.189-1.555-22.783
			c-0.313-4.253-0.646-8.504-0.985-12.753c-1.013-12.659-2.154-25.319-3.413-37.984c-3.054-0.535-6.117-1.066-9.174-1.591
			c-2.224,2.21-4.457,4.439-6.705,6.688c-4.803,6.123-9.658,12.365-14.574,18.714c0.222,2.887,0.436,5.771,0.646,8.659
			c-2.933,3.008-5.879,6.049-8.841,9.121c-6.772-0.783-13.552-1.537-20.327-2.265c-2.036,2.159-4.077,4.33-6.13,6.517
			c0.24,4.271,0.477,8.544,0.695,12.818c-0.637,0.675-1.27,1.352-1.906,2.03c18.427,1.631,36.834,3.45,55.238,5.446
			C652.069,125.335,653.959,127.391,655.848,129.439z"/>
	</g>
	<g>
		<path fill="#33393D" d="M558.863,210.426c7.713,0.171,15.427,0.353,23.125,0.543c2.354,2.593,4.703,5.174,7.05,7.748
			c1.66-1.811,3.327-3.614,4.988-5.41c-0.058-3.839-0.128-7.679-0.198-11.52c2.804,0.09,5.611,0.182,8.417,0.276
			c2.561-2.754,5.126-5.493,7.677-8.216c-0.143-5.765-0.296-11.529-0.476-17.295c-0.315-10.199-0.688-20.396-1.128-30.594
			c-3.926,4.159-7.866,8.36-11.828,12.606c-8.06-0.497-16.123-0.966-24.188-1.411c-0.059-1.948-0.124-3.895-0.193-5.844
			c-4.861-0.284-9.732-0.56-14.602-0.827C558.143,170.459,558.589,190.44,558.863,210.426z"/>
	</g>
	<g>
		<path fill="#BDBDBD" d="M475.066,269.493c-0.006,4.01-0.02,8.021-0.037,12.029c7.201-0.064,14.396-0.132,21.588-0.208
			c11.475-0.12,22.938-0.257,34.393-0.407c9.219-0.125,18.434-0.261,27.646-0.4c0.029-4.162,0.056-8.322,0.068-12.484
			c2.82-3.139,5.635-6.264,8.446-9.376c3.849-0.015,7.695-0.029,11.538-0.047c0.002-2.927,0-5.853-0.005-8.782
			c-8.077-0.008-16.152-0.019-24.233-0.023c-26.426-0.025-52.899-0.045-79.393-0.059
			C475.086,256.322,475.081,262.905,475.066,269.493z"/>
	</g>
	<g>
		<path fill="#33393D" d="M461.104,55.543c5.296,6.294,10.612,12.592,15.949,18.883c0.149,0.182,0.307,0.361,0.458,0.541
			c0-0.039,0-0.078-0.003-0.12c3.556-4.101,7.095-8.177,10.614-12.228c-0.07-1.861-0.137-3.717-0.206-5.576
			c2.83-3.258,5.644-6.499,8.445-9.718c6.683,0.503,13.363,1.045,20.05,1.627c-3.374-3.975-6.742-7.954-10.104-11.935
			c-3.327-0.288-6.659-0.563-9.986-0.829c-1.839,2.12-3.69,4.249-5.537,6.385c-6.132-0.451-12.269-0.871-18.394-1.253
			c-1.996-2.374-3.982-4.748-5.97-7.122c-0.122-3.577-0.248-7.151-0.376-10.725c-3.611,4.229-7.24,8.488-10.889,12.774
			c-2.846,3.335-5.701,6.687-8.562,10.054c2.479,2.963,4.969,5.928,7.462,8.894C456.402,55.308,458.75,55.422,461.104,55.543z"/>
	</g>
	<g>
		<path fill="#33393D" d="M534.665,126.584c-0.08-2.367-0.162-4.737-0.249-7.105c2.551-2.848,5.1-5.68,7.634-8.496
			c-0.257-6.431-0.534-12.864-0.823-19.291c-2.385-2.753-4.762-5.51-7.143-8.27c-2.953,3.295-5.914,6.617-8.885,9.957
			c-0.17-4.21-0.346-8.419-0.529-12.627c1.562-1.762,3.122-3.519,4.687-5.266c-0.153-3.285-0.31-6.567-0.469-9.85
			c-2.308-2.69-4.607-5.385-6.905-8.081c-5.36-0.463-10.721-0.9-16.072-1.314c-4.676,5.334-9.384,10.721-14.128,16.161
			c0.319,8.81,0.606,17.624,0.877,26.44c3.167,3.699,6.337,7.394,9.511,11.077c0.151,4.984,0.294,9.967,0.43,14.953
			c5.836,0.279,11.674,0.574,17.508,0.888C524.955,126.021,529.813,126.296,534.665,126.584z"/>
	</g>
	<g>
		<path fill="#A6273C" d="M435.139,87.95c3.817,4.515,7.648,9.03,11.49,13.544c0.107,5.894,0.207,11.788,0.305,17.688
			c5.243,6.143,10.497,12.28,15.762,18.409c2.285,0.067,4.57,0.139,6.852,0.212c7.213,0.229,14.429,0.482,21.644,0.762
			c-0.183-8.03-0.378-16.055-0.593-24.081c-0.188-6.946-0.385-13.889-0.603-20.834c-0.153-0.18-0.309-0.36-0.46-0.541
			c-5.365-6.274-10.707-12.557-16.038-18.844c-2.359-0.123-4.722-0.246-7.087-0.362c-2.506-2.964-5.014-5.927-7.51-8.893
			c-0.03,0.033-0.059,0.068-0.088,0.101c-5.268-0.252-10.54-0.479-15.812-0.684c-2.689,3.152-5.398,6.318-8.112,9.495
			C434.975,78.597,435.059,83.272,435.139,87.95z"/>
	</g>
	<g>
		<path fill="#33393D" d="M471.916,271.389c0.004-1.917,0.008-3.832,0.01-5.746c-22.028,0.087-44.072,0.147-66.119,0.177
			c-0.012,18.965-0.05,37.924-0.114,56.873c4.169,4.836,8.329,9.658,12.478,14.463c14.365-0.161,28.727-0.398,43.079-0.709
			c0.06-5.275,0.114-10.554,0.161-15.83c0.044-5.018,0.085-10.04,0.121-15.06c4.706-5.437,9.416-10.858,14.12-16.263
			c1.726-1.984,3.457-3.971,5.185-5.953c0.02-4,0.035-8.004,0.044-12.006C477.89,271.353,474.899,271.37,471.916,271.389z"/>
	</g>
	<g>
		<path fill="#BDBDBD" d="M533.881,219.132c6.866-7.682,13.702-15.286,20.495-22.794c-0.351-20.029-0.873-40.053-1.574-60.067
			c-5.841-0.354-11.683-0.69-17.523-1.013c-3.571,3.977-7.153,7.983-10.753,12.02c-1.797-0.084-3.598-0.164-5.398-0.245
			c0.615,23.953,1.027,47.927,1.232,71.903C524.867,218.999,529.376,219.066,533.881,219.132z"/>
	</g>
	<g>
		<path fill="#33393D" d="M512.58,153.836c-3.181-3.648-6.356-7.309-9.539-10.973c-0.045-1.874-0.089-3.746-0.137-5.619
			c-9.465-0.404-18.929-0.772-28.396-1.094c0.123,6.316,0.238,12.63,0.342,18.944c-2.219,2.542-4.441,5.088-6.67,7.641
			c0.062,4.288,0.12,8.574,0.171,12.862c0.05,0,0.11,0.005,0.169,0.004c0.082,6.706,0.153,13.415,0.216,20.126
			c2.985,3.437,5.97,6.869,8.953,10.296c1.504,0.021,3.009,0.04,4.514,0.062c0.041,4.469,0.072,8.937,0.1,13.406
			c4.236,4.851,8.472,9.685,12.699,14.497c0.016,3.254,0.024,6.51,0.034,9.764c7.186-5.94,14.352-11.834,21.502-17.668
			c0.003-0.034,0-0.071,0-0.107c-0.164-24.02-0.528-48.033-1.086-72.028C514.496,153.913,513.539,153.872,512.58,153.836z"/>
	</g>
	<g>
		<path fill="#33393D" d="M524.277,239.473"/>
	</g>
	<g>
		<path fill="#33393D" d="M585.387,226.328"/>
	</g>
	<g>
		<polyline fill="#33393D" points="597.41,222.722 597.41,222.722 597.41,222.722 		"/>
	</g>
	<g>
		<path fill="#33393D" d="M187.579,171.477c0.317-12.711,0.707-25.418,1.164-38.124c-14.033,0.869-28.052,1.838-42.071,2.897
			c-1.587,36.18-2.458,72.381-2.607,108.583c21.848-0.097,43.73-0.176,65.638-0.247c0.072-24.679,0.38-49.354,0.917-74.017
			C202.942,170.852,195.253,171.154,187.579,171.477z"/>
	</g>
	<g>
		<path fill="#A6273C" d="M133.484,121.87c-16.531,1.504-33.055,3.156-49.572,4.946c-0.316,5.046-0.612,10.091-0.889,15.14
			c-4.279,4.268-8.561,8.503-12.826,12.701c-0.382,7.333-0.714,14.664-1.008,21.995c9.91,8.984,19.919,18.271,30.029,27.825
			c-0.08,3.566-0.155,7.133-0.22,10.699c8.341,7.916,16.742,16.007,25.194,24.256c3.109-3.333,6.223-6.688,9.338-10.062
			c4.944-0.077,9.883-0.15,14.833-0.22c0.352-36.301,1.413-72.596,3.185-108.866C145.525,120.795,139.504,121.322,133.484,121.87z"
			/>
	</g>
	<g>
		<path fill="#A6273C" d="M377.242,121.546c17.902,0.043,35.805,0.266,53.703,0.66c-0.074-5.917-0.154-11.829-0.234-17.742
			c-3.826-4.5-7.637-9-11.439-13.497c-0.061-4.688-0.121-9.376-0.184-14.064c2.729-3.212,5.453-6.409,8.164-9.599
			c-0.357-0.01-0.715-0.021-1.075-0.033c-0.067-4.076-0.139-8.152-0.21-12.227c6.959-8.209,13.857-16.341,20.674-24.382
			c-6.676-0.219-13.349-0.392-20.03-0.527c-2.185-2.623-4.362-5.246-6.535-7.867c-4.802-0.16-9.604-0.295-14.403-0.408
			c-3.561-4.292-7.104-8.575-10.632-12.845c-5.995-0.105-11.989-0.172-17.989-0.2c0.042,17.787,0.072,35.61,0.105,53.458
			C377.189,82.002,377.216,101.763,377.242,121.546z"/>
	</g>
	<g>
		<path fill="#33393D" d="M396.264,272.224c-21.418,0.031-42.834,0.024-64.251-0.023c0.013,15.827,0.055,31.651,0.114,47.467
			c5.223,6.076,10.438,12.15,15.642,18.22c16.127,0.088,32.251,0.082,48.372-0.019c0.061-18.959,0.1-37.932,0.113-56.904
			C396.257,278.052,396.26,275.138,396.264,272.224z"/>
	</g>
	<g>
		<path fill="#33393D" d="M687.291,102.57c-0.591-7.093-1.223-14.187-1.896-21.28c1.45-1.38,2.894-2.75,4.336-4.11
			c-0.359-3.646-0.732-7.291-1.111-10.937c-6.586-1.223-13.174-2.417-19.75-3.573c1.245,12.584,2.373,25.162,3.379,37.737
			C677.263,101.111,682.277,101.834,687.291,102.57z"/>
	</g>
	<g>
		<path fill="#A6273C" d="M410.294,238.307c0,3.599,0.003,7.191,0.008,10.788c0,2.908,0,5.818,0,8.729
			c22.048-0.018,44.09-0.046,66.114-0.086c0,1.914-0.002,3.828-0.004,5.739c2.99-0.011,5.978-0.021,8.968-0.032
			c0.011-6.564,0.005-13.129-0.007-19.695c-0.006-3.266-0.017-6.53-0.029-9.792c-4.229-4.829-8.461-9.674-12.697-14.536
			c-0.024-4.482-0.057-8.961-0.094-13.442c-1.502-0.021-3.008-0.042-4.514-0.061c-2.979-3.43-5.969-6.868-8.947-10.31
			c-0.056-6.729-0.121-13.454-0.195-20.177c-19.238-0.363-38.481-0.608-57.729-0.734c2.992,3.485,5.986,6.972,8.983,10.457
			C410.225,202.866,410.274,220.585,410.294,238.307z"/>
	</g>
	<g>
		<path fill="#BDBDBD" d="M298.744,188.735c0.061-7.764,0.129-15.524,0.209-23.283c-5.066,0.087-10.13,0.184-15.197,0.289
			c-22.725,0.472-45.443,1.13-68.139,1.966c-0.543,24.715-0.859,49.444-0.942,74.178c21.958-0.093,43.938-0.166,65.934-0.222
			c5.965-0.012,11.923-0.026,17.891-0.038C298.527,223.992,298.605,206.361,298.744,188.735z"/>
	</g>
	<g>
		<path fill="#A6273C" d="M397.896,265.558c0.007-17.744-0.004-35.488-0.032-53.224c-29.896-0.089-59.798-0.035-89.683,0.166
			c-0.08,17.664-0.104,35.331-0.088,52.996c-5.97-0.014-11.929-0.03-17.895-0.05c0.002,3.521,0.012,7.04,0.021,10.56
			c14.47,0.077,28.947,0.133,43.425,0.17c0.001,0.055,0,0.106,0.001,0.162c21.417,0.053,42.829,0.06,64.248,0.021
			C397.893,272.759,397.895,269.155,397.896,265.558z"/>
	</g>
	<g>
		<path fill="#BDBDBD" d="M377.276,156.854c-0.009-10.832-0.022-21.657-0.034-32.479c-0.022-19.786-0.051-39.548-0.082-59.281
			c-29.358-0.107-58.714,0.48-88.083,1.75c-0.117,4.641-0.227,9.281-0.337,13.925c-0.476,20.429-0.865,40.887-1.176,61.363
			c25.396-0.648,50.81-1.001,76.212-1.049C368.271,146.327,372.761,151.586,377.276,156.854z"/>
	</g>
	<g>
		<path fill="#33393D" d="M319.494,205.778c29.872-0.191,59.759-0.217,89.635-0.068c-2.998-3.479-5.995-6.961-8.99-10.444
			c-0.015-6.488-0.036-12.976-0.06-19.461c-1.835-2.136-3.663-4.273-5.497-6.408c-4.525-5.283-9.046-10.562-13.557-15.831
			c-25.465-0.075-50.925,0.114-76.385,0.571c-0.101,9.476-0.187,18.955-0.261,28.439c5.077-0.065,10.155-0.122,15.232-0.172
			C319.562,190.193,319.526,197.985,319.494,205.778z"/>
	</g>
	<g>
		<path fill="#A6273C" d="M429.543,378.724c0.049-4.434,0.095-8.867,0.139-13.302c1.69-1.981,3.383-3.96,5.083-5.938
			c0.054-4.934,0.095-9.867,0.141-14.801c-14.347,0.242-28.699,0.4-43.045,0.482c-0.018,6.879-0.04,13.756-0.065,20.631
			c3.502,4.085,6.996,8.16,10.48,12.227c-0.061,10.842-0.131,21.678-0.215,32.505c3.767-0.052,7.538-0.114,11.302-0.188
			c2.392,2.795,4.772,5.581,7.149,8.361c14.048-0.336,28.092-0.808,42.139-1.422c0.117-5.13,0.232-10.265,0.343-15.396
			c-2.315-2.668-4.634-5.343-6.96-8.025c0.139-0.129,0.287-0.257,0.432-0.385c0.094-5.151,0.182-10.301,0.27-15.453
			C447.67,378.298,438.607,378.532,429.543,378.724z"/>
	</g>
	<g>
		<path fill="#A6273C" d="M678.238,188.152c-0.191-5.5-0.412-11.004-0.647-16.507c-0.724-0.76-1.44-1.52-2.167-2.284
			c-0.004,0.01-0.014,0.016-0.023,0.024c-14.088-1.073-28.188-2.08-42.305-3.017c0.104,2.681,0.201,5.362,0.3,8.045
			c7.213,0.434,14.421,0.882,21.626,1.352c0.422,0.024,0.847,0.052,1.27,0.08c0.904,0.059,1.812,0.12,2.715,0.177
			c3.621,3.855,7.233,7.68,10.833,11.474c-0.082-2.454-0.173-4.908-0.264-7.365c1.378,1.456,2.759,2.909,4.133,4.355
			c0.091,2.45,0.171,4.901,0.251,7.354c1.875,1.962,3.746,3.917,5.611,5.86c0.043,1.464,0.085,2.928,0.127,4.394
			c2.356,2.125,4.709,4.241,7.057,6.343c-0.217-6.605-0.461-13.21-0.741-19.817C683.422,188.463,680.832,188.306,678.238,188.152z"
			/>
	</g>
	<g>
		<path fill="#33393D" d="M667.989,185.398c-0.417-0.025-0.847-0.053-1.269-0.077c-3.639,3.682-7.287,7.407-10.956,11.173
			c0.083,2.929,0.155,5.861,0.229,8.792c-1.488-0.059-2.98-0.117-4.469-0.174c-7.709,7.97-15.495,16.116-23.328,24.421
			c-3.4-0.056-6.801-0.112-10.205-0.168c-5.892,6.291-11.813,12.667-17.77,19.122c8.068,0.015,16.125,0.033,24.184,0.052
			c23.49,0.053,46.932,0.114,70.315,0.183c-0.019-4.459-0.05-8.919-0.102-13.376c-4.144-3.338-8.294-6.716-12.45-10.126
			c-0.152-9.452-0.373-18.904-0.666-28.359c-3.588-3.734-7.186-7.502-10.795-11.299C669.8,185.504,668.896,185.45,667.989,185.398z"
			/>
	</g>
	<g>
		<path fill="#A6273C" d="M599.482,253.299c-3.84,0.001-7.682,0.005-11.522,0.013c-2.807,3.062-5.611,6.143-8.427,9.238
			c-0.01,4.112-0.021,8.227-0.052,12.338c1.269-0.018,2.534-0.036,3.805-0.055c12.104-0.17,24.198-0.354,36.281-0.557
			c6.813-0.113,13.628-0.229,20.438-0.35c1.938,2.025,3.876,4.045,5.807,6.053c0.005-0.076,0.005-0.15,0.005-0.223
			c1.195-0.031,2.392-0.059,3.587-0.084c6.873-7.277,13.711-14.438,20.51-21.471c0.002-4.4-0.006-8.8-0.032-13.199
			c-23.419-0.139-46.897-0.265-70.421-0.372C599.471,247.519,599.48,250.408,599.482,253.299z"/>
	</g>
	<g>
		<path fill="#33393D" d="M583.098,297.62c-4.662-5.049-9.34-10.145-14.031-15.289c0.023-2.426,0.035-4.857,0.051-7.287
			c-1.27,0.018-2.538,0.035-3.807,0.051c-9.208,0.121-18.43,0.233-27.65,0.34c-0.021,4.594-0.055,9.194-0.096,13.793
			c3.004,3.34,5.994,6.662,8.982,9.969c-0.109,9.139-0.254,18.273-0.433,27.404c-0.155,8.01-0.347,16.018-0.552,24.023
			c19.559-0.971,39.107-2.104,58.636-3.379c0.361-10.394,0.659-20.787,0.897-31.182c0.018-0.024,0.041-0.052,0.066-0.075
			c-5.717-6.087-11.473-12.257-17.256-18.505C586.307,297.531,584.697,297.575,583.098,297.62z"/>
	</g>
	<g>
		<path fill="#33393D" d="M388.579,53.523c-0.099-17.832-0.208-35.637-0.334-53.406c-25.274-0.333-50.551,0.044-75.842,1.135
			c-0.44,17.695-0.838,35.422-1.186,53.175C337.012,53.558,362.79,53.255,388.579,53.523z"/>
	</g>
	<g>
		<path fill="#BDBDBD" d="M629.624,279.84c-12.074,0.261-24.159,0.503-36.257,0.729c-0.022,2.395-0.043,4.789-0.073,7.18
			c4.674,5.04,9.329,10.029,13.964,14.963c1.6-0.056,3.2-0.113,4.801-0.17c5.752,6.104,11.475,12.121,17.16,18.046
			c5.338-5.798,10.668-11.538,15.971-17.214c3.52-3.766,7.032-7.505,10.537-11.214c0.043-2.269,0.074-4.538,0.107-6.804
			c-1.922-1.979-3.857-3.97-5.786-5.972C643.244,279.544,636.438,279.692,629.624,279.84z"/>
	</g>
	<g>
		<path fill="#BDBDBD" d="M733.075,67.862c-2.587-2.755-5.18-5.528-7.767-8.313c-0.213-1.744-0.439-3.491-0.657-5.236
			c-2.722-2.93-5.433-5.874-8.158-8.831c-4.24-0.98-8.478-1.943-12.71-2.895c0.49,3.912,0.971,7.821,1.433,11.729
			c0.467,3.911,0.925,7.817,1.364,11.726c-0.003,0.002-0.005,0.004-0.01,0.005c0.946,8.439,1.83,16.872,2.646,25.299
			c2.019,2.16,4.041,4.307,6.05,6.448c6.499-5.927,12.931-11.665,19.303-17.192C734.09,76.355,733.591,72.109,733.075,67.862z"/>
	</g>
	<g>
		<path fill="#33393D" d="M683.598,120.025c0.539,7.475,1.039,14.95,1.492,22.421c0.084,0.009,0.17,0.02,0.26,0.029
			c4.1-2.843,8.182-5.64,12.252-8.384c4.271,0.511,8.545,1.028,12.814,1.555c-0.285-4.069-0.59-8.137-0.904-12.208
			C700.875,122.262,692.234,121.123,683.598,120.025z"/>
	</g>
	<g>
		<path fill="#A6273C" d="M701.569,64.996c-2.511,1.971-5.036,3.969-7.565,5.994c-0.058-0.012-0.118-0.022-0.176-0.034
			c0.374,3.628,0.742,7.253,1.097,10.881c-1.447,1.354-2.894,2.719-4.351,4.093c0.665,7.061,1.287,14.121,1.869,21.179
			c6.633,0.961,13.259,1.948,19.889,2.961c-0.229-2.653-0.469-5.311-0.709-7.965c-2.341-2.486-4.686-4.986-7.029-7.496
			C703.672,84.745,702.66,74.874,701.569,64.996z"/>
	</g>
	<g>
		<path fill="#BDBDBD" d="M673.01,103.274c0.402,5.141,0.787,10.282,1.152,15.423c10.526,1.303,21.046,2.667,31.568,4.09
			c2.536,0.343,5.069,0.687,7.605,1.037c2.301,2.42,4.602,4.825,6.898,7.219c0.031-0.033,0.07-0.065,0.105-0.097
			c1.752,0.234,3.499,0.468,5.25,0.704c2.284-2.092,4.559-4.162,6.826-6.207c-0.092-1.162-0.189-2.325-0.291-3.485
			c-1.32-0.197-2.646-0.394-3.966-0.591c-1.374,1.243-2.749,2.495-4.129,3.756c-2.608-2.722-5.224-5.459-7.843-8.212
			c-0.203-2.464-0.42-4.929-0.633-7.394c-8.074-1.253-16.14-2.466-24.219-3.641C685.232,104.987,679.118,104.119,673.01,103.274z"/>
	</g>
	<g>
		<path fill="#A6273C" d="M712.434,128.637c0.224,2.958,0.438,5.914,0.646,8.868c1.1,0.136,2.206,0.271,3.312,0.407
			c1.572-1.469,3.139-2.926,4.712-4.372c-1.374-1.431-2.743-2.861-4.118-4.298C715.473,129.041,713.951,128.838,712.434,128.637z"/>
	</g>
	<g>
		<path fill="#BDBDBD" d="M532.709,357.325c-0.138,5.248-0.282,10.495-0.442,15.741c2.673-0.147,5.338-0.302,8.007-0.461
			c4.58-0.271,9.159-0.55,13.732-0.842c3.67,4.026,7.319,8.015,10.955,11.971c3.8-0.284,7.607-0.576,11.412-0.876
			c3.087-3.496,6.166-6.98,9.256-10.453c4.818,5.172,9.611,10.273,14.374,15.307c-0.241,4.877-0.495,9.75-0.765,14.626
			c3.385,3.57,6.749,7.112,10.1,10.608c-0.256,4.119-0.52,8.236-0.799,12.354c3.668,3.835,7.316,7.621,10.945,11.356
			c2.504,2.578,4.998,5.136,7.479,7.669c4.226-0.635,8.449-1.285,12.677-1.949c0.556-6.529,1.081-13.061,1.576-19.59
			c0.565-7.432,1.093-14.864,1.581-22.299c-4.4-4.439-8.833-8.953-13.293-13.534c0.202-3.657,0.401-7.312,0.592-10.97
			c-3.863-3.973-7.744-7.996-11.645-12.068c0.169-3.963,0.338-7.926,0.491-11.889c-19.508,1.436-39.026,2.717-58.564,3.83
			C551.156,356.383,541.934,356.873,532.709,357.325z"/>
	</g>
	<g>
		<path fill="#33393D" d="M103.829,242.867c-8.449-8.138-16.851-16.108-25.183-23.892c0.061-3.508,0.133-7.012,0.215-10.519
			c-10.103-9.389-20.108-18.496-30.012-27.288c0.296-7.192,0.628-14.384,1.011-21.578c4.268-4.135,8.547-8.311,12.827-12.522
			c0.283-4.958,0.585-9.913,0.905-14.87c-14.479,1.627-28.953,3.356-43.416,5.181c-1.036,0.13-2.074,0.262-3.107,0.394
			c-5.027,6.483-10.024,12.883-14.997,19.196c-0.871,13.6-1.56,27.188-2.072,40.774c8.989,10.405,18.119,21.192,27.377,32.322
			c-0.052,3.272-0.09,6.543-0.122,9.815c9.355,9.236,18.803,18.76,28.331,28.537c0.039,5.719,0.104,11.433,0.19,17.15
			c10.994,0.357,21.994,0.699,33.008,1.022c0.979,1.036,1.965,2.076,2.948,3.121c4.041-3.796,8.1-7.634,12.166-11.507
			C103.784,266.423,103.761,254.646,103.829,242.867z"/>
	</g>
	<g>
		<path fill="#BDBDBD" d="M69.931,133.089c16.522-1.796,33.055-3.461,49.596-4.986c1.048-19.723,2.344-39.444,3.885-59.162
			C93.28,73.059,63.11,77.876,32.903,83.325c-1.646,16.122-3.062,32.231-4.248,48.329c-1.761,2.29-3.515,4.572-5.264,6.842
			c1.034-0.129,2.07-0.257,3.11-0.382C40.967,136.34,55.442,134.662,69.931,133.089z"/>
	</g>
	<g>
		<path fill="#A6273C" d="M116.703,13.514c-16.952,3.191-33.956,6.679-51,10.446c-9.115,2.017-18.248,4.116-27.388,6.287
			c-0.673,5.021-1.32,10.038-1.944,15.054c-4.191,4.581-8.381,9.127-12.56,13.641c-0.762,6.267-1.483,12.532-2.171,18.792
			c30.185-5.875,60.321-11.094,90.401-15.592C113.423,45.931,114.975,29.72,116.703,13.514z"/>
	</g>
	<g>
		<path fill="#33393D" d="M128.385,117.174c6.013-0.582,12.028-1.144,18.045-1.686c13.964-1.253,27.938-2.4,41.905-3.431
			c0.688-16.102,1.495-32.194,2.413-48.275c-6.261,0.624-12.522,1.278-18.788,1.964c-3.531-3.852-7.043-7.667-10.526-11.438
			c0.59-8.325,1.212-16.644,1.873-24.963c-3.999-4.331-7.96-8.604-11.89-12.819c0.326-3.617,0.654-7.237,0.995-10.854
			c-5.188,0.856-10.376,1.741-15.566,2.654c-1.64,16.44-3.116,32.889-4.427,49.341C130.833,77.496,129.494,97.332,128.385,117.174z"
			/>
	</g>
	<g>
		<path fill="#BDBDBD" d="M211.175,78.789c29.748-2.386,59.481-4.12,89.207-5.181c0.097-4.653,0.196-9.305,0.305-13.954
			c0.397-17.726,0.849-35.426,1.357-53.094c-43.367,2.147-86.812,6.338-130.462,12.467c-0.293,3.662-0.579,7.328-0.859,10.994
			c4.01,4.378,8.048,8.816,12.121,13.306c-0.56,8.419-1.093,16.843-1.586,25.269c3.55,3.903,7.119,7.845,10.71,11.825
			c6.288-0.564,12.581-1.097,18.862-1.603"/>
	</g>
	<g>
		<path fill="#A6273C" d="M205.304,69.862c-0.821,16.204-1.532,32.42-2.139,48.647c-0.478,12.788-0.886,25.583-1.231,38.378
			c7.672-0.351,15.337-0.677,23.012-0.979c22.667-0.897,45.348-1.586,68.041-2.068c0.12-9.453,0.258-18.905,0.408-28.352
			c0.334-20.489,0.737-40.958,1.229-61.394c-29.642,1.21-59.298,3.135-88.976,5.738"/>
	</g>
	<g>
		<path fill="#A6273C" d="M540.687,363.839c0.237-8.021,0.445-16.045,0.624-24.068c0.21-9.153,0.385-18.306,0.523-27.46
			c-2.976-3.298-5.963-6.612-8.947-9.944c0.055-4.607,0.102-9.215,0.141-13.822c-11.451,0.195-22.911,0.37-34.373,0.523
			c-0.203,30.957-0.695,61.903-1.471,92.809c5.146-0.242,10.291-0.496,15.434-0.768c0.148-5.293,0.288-10.582,0.416-15.874
			C522.257,364.81,531.471,364.345,540.687,363.839z"/>
	</g>
	<g>
		<path fill="#BDBDBD" d="M470.983,300.854c-1.733,1.995-3.464,3.992-5.192,5.989c-4.712,5.435-9.424,10.882-14.134,16.341
			c-0.042,5.031-0.091,10.062-0.142,15.092c-0.057,5.286-0.114,10.574-0.181,15.858c-0.058,4.919-0.126,9.833-0.193,14.749
			c-1.7,1.984-3.396,3.969-5.097,5.955c-0.061,4.418-0.129,8.84-0.197,13.258c9.047-0.262,18.096-0.572,27.146-0.933
			c-0.112,5.13-0.223,10.259-0.348,15.386c3.242-2.881,6.496-5.76,9.748-8.64c2.851-0.125,5.701-0.263,8.556-0.401
			c0.808-30.96,1.344-61.963,1.61-92.98C485.368,300.646,478.179,300.757,470.983,300.854z"/>
	</g>
	<g>
		<path fill="#BDBDBD" d="M129.513,250.153c-4.943,0.007-9.882,0.014-14.822,0.018c-3.096,3.286-6.175,6.552-9.251,9.792
			c0.022,11.792,0.132,23.585,0.333,35.378c-4.036,3.826-8.063,7.611-12.073,11.358c6.751,7.218,13.53,14.534,20.33,21.947
			c13.412,0.782,26.835,1.506,40.272,2.173c4.97,5.535,9.956,11.109,14.94,16.718c9.024,0.507,18.047,0.974,27.079,1.415
			c-0.858-32.933-1.262-65.893-1.206-98.848C173.213,250.114,151.341,250.136,129.513,250.153z"/>
	</g>
	<g>
		<path fill="#BDBDBD" d="M399.398,381.208c0.039-6.865,0.073-13.734,0.11-20.604c-4.142-4.823-8.286-9.662-12.45-14.508
			c0,0.131,0,0.264,0,0.395c0-0.131,0-0.264,0-0.395c-16.087,0.076-32.175,0.042-48.265-0.104
			c-5.209-6.08-10.422-12.166-15.65-18.25c-0.092-15.797-0.195-38.848-0.195-38.9c-14.476-0.069-28.944-0.168-43.408-0.299
			c0.122,27.676,0.413,46.676,0.865,74.31c-16.26-0.489-32.516-1.108-48.771-1.858c6.581,7.591,13.153,15.213,19.719,22.859
			c0.21,8.002,0.434,15.995,0.676,23.99c5.534,6.484,11.054,12.979,16.561,19.475c3.254,0.175,6.497,0.341,9.749,0.5
			c3.394-3.939,6.807-7.895,10.237-11.872c4.036,0.162,8.076,0.31,12.114,0.448c4.576,5.405,9.135,10.809,13.683,16.203
			c0.093,5.484,0.188,6.65,0.292,12.127c5.098,6.08,10.171,12.149,15.212,18.201c0.078,5.186,0.157,7.13,0.24,12.311
			c6.096,7.341,12.144,10.34,18.14,17.617c3.176,0.054,6.356,0.098,9.532,0.128c-0.1-16.058-0.182-24.593-0.26-40.702
			c8.446-10.067,16.988-15.902,25.591-26.109c8.787-0.057,17.576-0.174,26.361-0.354c0.111-10.809,0.22-21.624,0.314-32.453
			C406.338,389.325,402.875,385.273,399.398,381.208z"/>
	</g>
	<g>
		<path fill="#A6273C" d="M270.815,268.583c-0.008-3.504-0.01-7.004-0.012-10.507c-21.998-0.041-43.974-0.093-65.926-0.158
			c0.018,33.11,0.471,66.225,1.354,99.308c3.549,0.176,7.096,0.346,10.649,0.512c-0.069-2.76-0.136-5.523-0.199-8.283
			c1.338,0.057,2.678,0.113,4.021,0.167c0.639,0.028,1.275,0.054,1.914,0.083c16.291,0.67,32.594,1.234,48.905,1.687
			C271.106,323.809,270.868,296.195,270.815,268.583z"/>
	</g>
	<g>
		<path fill="#BDBDBD" d="M463.803,155.247c-0.096-6.339-0.191-12.672-0.305-19.004c-0.027,0-0.057,0-0.082-0.003
			c-5.267-6.13-10.52-12.269-15.762-18.412c-17.883-0.524-35.768-0.866-53.651-1.025c0.054,10.81,0.102,21.627,0.141,32.45
			c1.821,2.135,3.653,4.273,5.485,6.413c0.027,6.482,0.055,12.967,0.076,19.453c19.189,0.121,38.381,0.356,57.564,0.71
			c-0.051-4.301-0.097-8.601-0.149-12.898C459.35,160.361,461.575,157.801,463.803,155.247z"/>
	</g>
	<g>
		<path fill="#A6273C" d="M499.951,246.821c7.186-5.97,14.361-11.896,21.513-17.761c4.511,0.044,9.021,0.089,13.525,0.136
			c6.894-7.713,13.75-15.346,20.568-22.884c7.712,0.184,15.423,0.381,23.127,0.587c6.227,6.885,12.44,13.7,18.624,20.441
			c-5.982,6.476-11.993,13.032-18.035,19.661C552.879,246.929,526.429,246.87,499.951,246.821z"/>
	</g>
	<g>
		<path fill="#BDBDBD" d="M597.334,217.019c3.868,4.22,7.718,8.41,11.566,12.567c3.322,0.051,6.637,0.103,9.953,0.155
			c7.797-8.325,15.55-16.499,23.234-24.503c1.528,0.059,3.066,0.114,4.596,0.174c-0.062-2.91-0.14-5.818-0.218-8.729
			c3.677-3.803,7.333-7.567,10.976-11.287c-7.212-0.411-14.426-0.809-21.643-1.189c-0.082-2.68-0.17-5.358-0.264-8.034
			c-5.949-0.352-11.906-0.695-17.856-1.027c0.185,5.731,0.352,11.463,0.497,17.193c-2.551,2.697-5.104,5.415-7.662,8.147
			c-2.806-0.1-5.609-0.198-8.412-0.295c0.081,3.816,0.15,7.638,0.213,11.456C600.658,213.431,598.996,215.221,597.334,217.019z"/>
	</g>
	<g>
		<path fill="#33393D" d="M683.852,133.419c-3.785-0.432-7.576-0.853-11.364-1.272c0.279,4.394,0.544,8.786,0.79,13.181
			c1.637,1.752,3.281,3.5,4.92,5.238c-3.495,3.449-7.002,6.942-10.527,10.48c1.504,1.603,3.008,3.201,4.514,4.795
			c2.852,0.224,5.703,0.449,8.559,0.677c1.402-1.387,2.803-2.772,4.201-4.148c-0.324-6.546-0.688-13.092-1.076-19.641
			c-0.18-2.912-0.361-5.821-0.547-8.732c0.266-0.183,0.529-0.365,0.793-0.548C684.029,133.439,683.937,133.429,683.852,133.419z"/>
	</g>
	<g>
		<path fill="#BDBDBD" d="M691.355,193.174c-0.116-2.815-0.235-5.63-0.363-8.442c-1.914-1.99-3.824-3.983-5.746-5.987
			c0.015,0,0.032,0.002,0.045,0.003c-0.777-0.812-1.553-1.627-2.329-2.44c0.229,5.476,0.435,10.952,0.618,16.426
			C686.17,192.877,688.761,193.026,691.355,193.174z"/>
	</g>
</g>
<g>
</g>
<g>
</g>
<g>
</g>
<g>
</g>
<g>
</g>
<g>
</g>
<g>
</g>
<g>
</g>
<g>
</g>
<g>
</g>
<g>
</g>
<g>
</g>
<g>
</g>
<g>
</g>
<g>
</g>
</svg>
