<?xml version="1.0" encoding="utf-8"?>
<!-- Generator: Adobe Illustrator 16.0.0, SVG Export Plug-In . SVG Version: 6.00 Build 0)  -->
<!DOCTYPE svg PUBLIC "-//W3C//DTD SVG 1.1//EN" "http://www.w3.org/Graphics/SVG/1.1/DTD/svg11.dtd">
<svg version="1.1" id="Layer_1" xmlns="http://www.w3.org/2000/svg" xmlns:xlink="http://www.w3.org/1999/xlink" x="0px" y="0px"
	 width="535.23px" height="325.729px" viewBox="0 0 535.23 325.729" enable-background="new 0 0 535.23 325.729"
	 xml:space="preserve">
<g>
	<g>
		<path fill="none" stroke="#CFCFCE" stroke-width="10.2098" stroke-miterlimit="10" d="M162.722,3.853"/>
		<g>
			<path fill="none" stroke="#CFCFCE" stroke-width="7.1395" stroke-miterlimit="10" d="M278.104,53.39
				c27.123,28.541,43.772,67.132,43.771,109.617c0,87.896-71.256,159.15-159.152,159.152
				C74.825,322.157,3.571,250.903,3.569,163.005C3.571,75.108,74.827,3.854,162.722,3.853"/>
			<polygon fill="#CFCFCE" points="277.642,69.844 271.791,48.003 293.63,53.856 			"/>
		</g>
	</g>
	<line fill="none" stroke="#CFCFCE" stroke-width="7.1395" stroke-miterlimit="10" x1="162.724" y1="3.569" x2="535.23" y2="3.57"/>
	<g>
		<polyline fill="none" stroke="#CFCFCE" stroke-width="7.1395" stroke-miterlimit="10" points="255.904,242.438 83.008,242.438 
			83.008,87.1 		"/>
		<g>
			
				<rect x="108.875" y="166.419" fill="none" stroke="#CFCFCE" stroke-width="7.1395" stroke-miterlimit="10" width="25.406" height="76.02"/>
			
				<rect x="155" y="133.387" fill="none" stroke="#CFCFCE" stroke-width="7.1395" stroke-miterlimit="10" width="25.404" height="109.052"/>
			
				<rect x="201.123" y="180.286" fill="none" stroke="#CFCFCE" stroke-width="7.1395" stroke-miterlimit="10" width="25.404" height="62.152"/>
		</g>
		
			<line fill="none" stroke="#CFCFCE" stroke-width="7.1395" stroke-miterlimit="10" x1="134.281" y1="187.911" x2="108.875" y2="213.317"/>
		
			<line fill="none" stroke="#CFCFCE" stroke-width="7.1395" stroke-miterlimit="10" x1="180.305" y1="174.593" x2="154.898" y2="199.999"/>
		
			<line fill="none" stroke="#CFCFCE" stroke-width="7.1395" stroke-miterlimit="10" x1="226.43" y1="194.825" x2="201.023" y2="220.231"/>
	</g>
</g>
<g>
</g>
<g>
</g>
<g>
</g>
<g>
</g>
<g>
</g>
<g>
</g>
</svg>
