<?xml version="1.0" encoding="utf-8"?>
<!-- Generator: Adobe Illustrator 16.0.0, SVG Export Plug-In . SVG Version: 6.00 Build 0)  -->
<!DOCTYPE svg PUBLIC "-//W3C//DTD SVG 1.1//EN" "http://www.w3.org/Graphics/SVG/1.1/DTD/svg11.dtd">
<svg version="1.1" id="Layer_1" xmlns="http://www.w3.org/2000/svg" xmlns:xlink="http://www.w3.org/1999/xlink" x="0px" y="0px"
	 width="519.205px" height="455.771px" viewBox="0 0 519.205 455.771" enable-background="new 0 0 519.205 455.771"
	 xml:space="preserve">
<g>
	<path fill="none" stroke="#798082" stroke-width="7.2114" stroke-miterlimit="10" d="M192.761,170.211"/>
	<path fill="none" stroke="#798082" stroke-width="7.2114" stroke-miterlimit="10" d="M194.144,160.244
		c1.012-39.759,16.685-79.212,47.026-109.554c62.78-62.779,164.565-62.78,227.345-0.001s62.779,164.565-0.001,227.345
		c-62.777,62.777-164.562,62.777-227.342-0.002L2.55,39.41"/>
	<polygon fill="#798082" points="206.225,148.821 194.807,168.6 183.387,148.822 	"/>
</g>
<line fill="none" stroke="#798082" stroke-width="7.2114" stroke-miterlimit="10" x1="192.761" y1="318.052" x2="192.761" y2="455.771"/>
<g>
	<path fill="none" stroke="#798082" stroke-width="6.09" stroke-miterlimit="10" d="M417.742,170.209
		c0-9.268,5.706-16.585,14.298-21.613c-1.548-5.175-3.598-10.129-6.121-14.796c-9.636,2.523-17.434-1.254-23.988-7.808
		c-6.555-6.553-8.562-14.356-6.041-23.988c-4.664-2.524-9.619-4.576-14.795-6.123c-5.03,8.595-14.113,14.299-23.383,14.299
		s-18.354-5.704-23.385-14.299c-5.175,1.545-10.129,3.599-14.794,6.119c2.519,9.636,0.515,17.436-6.04,23.992
		c-6.556,6.557-14.356,10.331-23.99,7.812c-2.523,4.663-4.574,9.617-6.123,14.792c8.594,5.028,14.299,12.346,14.299,21.613
		c0,9.27-5.705,18.355-14.299,23.383c1.549,5.177,3.6,10.131,6.123,14.799c9.636-2.523,17.435-0.517,23.99,6.038
		c6.554,6.556,8.559,14.355,6.04,23.992c4.665,2.521,9.619,4.575,14.796,6.119c5.029-8.592,14.113-14.3,23.383-14.3
		s18.353,5.708,23.383,14.3c5.176-1.547,10.131-3.599,14.797-6.124c-2.52-9.632-0.516-17.432,6.039-23.987
		c6.555-6.555,14.355-10.331,23.988-7.81c2.523-4.666,4.573-9.621,6.121-14.797C423.448,186.795,417.742,179.479,417.742,170.209z
		 M357.712,202.535c-17.854,0-32.325-14.474-32.325-32.326s14.472-32.325,32.325-32.325c17.853,0,32.322,14.473,32.322,32.325
		S375.564,202.535,357.712,202.535z"/>
</g>
<g>
</g>
<g>
</g>
<g>
</g>
<g>
</g>
<g>
</g>
<g>
</g>
</svg>
