<?xml version="1.0" encoding="utf-8"?>
<!-- Generator: Adobe Illustrator 16.0.0, SVG Export Plug-In . SVG Version: 6.00 Build 0)  -->
<!DOCTYPE svg PUBLIC "-//W3C//DTD SVG 1.1//EN" "http://www.w3.org/Graphics/SVG/1.1/DTD/svg11.dtd">
<svg version="1.1" id="Layer_1" xmlns="http://www.w3.org/2000/svg" xmlns:xlink="http://www.w3.org/1999/xlink" x="0px" y="0px"
	 width="440.255px" height="417.176px" viewBox="0 0 440.255 417.176" enable-background="new 0 0 440.255 417.176"
	 xml:space="preserve">
<g>
	<polygon fill="none" stroke="#97A8B5" stroke-width="5.5" stroke-miterlimit="10" points="351.823,359.57 284.712,359.57 
		290.22,334.632 346.314,334.632 	"/>
	
		<line fill="none" stroke="#97A8B5" stroke-width="5.5" stroke-miterlimit="10" x1="283.193" y1="244.552" x2="353.342" y2="244.552"/>
	<path fill="none" stroke="#97A8B5" stroke-width="5.5" stroke-miterlimit="10" d="M345.634,247.313v60.907
		c0,7.405-6.004,13.409-13.411,13.409h-27.912c-7.406,0-13.41-6.004-13.41-13.409v-60.907l3.7-15.321h47.333L345.634,247.313z"/>
	<path fill="none" stroke="#97A8B5" stroke-width="5.5" stroke-miterlimit="10" d="M306.522,231.489v-8.352
		c0-3.227,2.616-5.848,5.846-5.848h12.169c3.229,0,5.848,2.621,5.848,5.848v8.352"/>
	<g>
		
			<line fill="none" stroke="#97A8B5" stroke-width="5.5" stroke-miterlimit="10" x1="305.304" y1="332.63" x2="305.304" y2="321.629"/>
		
			<line fill="none" stroke="#97A8B5" stroke-width="5.5" stroke-miterlimit="10" x1="331.231" y1="321.629" x2="331.231" y2="332.63"/>
	</g>
	<path fill="none" stroke="#97A8B5" stroke-width="5.5" stroke-miterlimit="10" d="M192.295,291.821"/>
	<path fill="none" stroke="#97A8B5" stroke-width="5.5" stroke-miterlimit="10" d="M230.456,202.936
		c21.986-20.896,51.717-33.721,84.443-33.721c67.713,0,122.605,54.893,122.605,122.605s-54.893,122.605-122.605,122.605
		c-67.712,0-122.604-54.893-122.604-122.605V0"/>
	<polygon fill="#97A8B5" points="243.132,203.292 226.308,207.799 230.815,190.975 	"/>
	
		<line fill="none" stroke="#97A8B5" stroke-width="5.5" stroke-miterlimit="10" x1="164.817" y1="244.696" x2="1.944" y2="407.569"/>
	<path fill="none" stroke="#97A8B5" stroke-width="5.5" stroke-linejoin="round" stroke-miterlimit="10" d="M316.785,321.264
		c3.218-5.666,1.243-9.683-0.675-12.014s-4.485-4.297-5.702-7.158c-1.367-3.062-1.337-5.704-0.373-8.816
		c1.737-5.617,7.625-11.156,12.79-13.877c-3.117,2.807-4.279,7.525-3.311,11.52c1.453,5.675,7.225,10.607,6.354,16.855
		C325.343,312.187,321.032,317.698,316.785,321.264z"/>
</g>
<g>
</g>
<g>
</g>
<g>
</g>
<g>
</g>
<g>
</g>
<g>
</g>
</svg>
