<?xml version="1.0" encoding="utf-8"?>
<!-- Generator: Adobe Illustrator 16.0.0, SVG Export Plug-In . SVG Version: 6.00 Build 0)  -->
<!DOCTYPE svg PUBLIC "-//W3C//DTD SVG 1.1//EN" "http://www.w3.org/Graphics/SVG/1.1/DTD/svg11.dtd">
<svg version="1.1" id="Layer_1" xmlns="http://www.w3.org/2000/svg" xmlns:xlink="http://www.w3.org/1999/xlink" x="0px" y="0px"
	 width="1358.857px" height="434.69px" viewBox="0 0 1358.857 434.69" enable-background="new 0 0 1358.857 434.69"
	 xml:space="preserve">
<g>
	<path fill="none" stroke="#D0D1D1" stroke-width="7.8652" stroke-miterlimit="10" d="M220.279,222.641"/>
	<g>
		<path fill="none" stroke="#D0D1D1" stroke-width="5.5" stroke-miterlimit="10" d="M310.115,186.773
			c30.322,0.771,60.413,12.725,83.555,35.867c47.88,47.879,47.88,125.51,0,173.39c-47.881,47.88-125.51,47.88-173.391,0
			c-47.879-47.88-47.879-125.51,0-173.39"/>
		<polygon fill="#D0D1D1" points="318.826,195.988 303.742,187.278 318.826,178.57 		"/>
	</g>
</g>
<line fill="none" stroke="#D0D1D1" stroke-width="5.5" stroke-miterlimit="10" x1="195.92" y1="178.57" x2="0" y2="178.57"/>
<path fill="none" stroke="#D0D1D1" stroke-width="5.5" stroke-miterlimit="10" d="M1358.857,2.75H459.862
	c-11,0-26.364,6.364-34.142,14.143L220.126,222.486"/>
<g>
	<g>
		
			<line fill="none" stroke="#D0D1D1" stroke-width="5.5" stroke-miterlimit="10" x1="305.623" y1="234.005" x2="305.623" y2="262.961"/>
		<circle fill="none" stroke="#D0D1D1" stroke-width="5.5" stroke-miterlimit="10" cx="305.624" cy="278.019" r="15.057"/>
		
			<line fill="none" stroke="#D0D1D1" stroke-width="5.5" stroke-miterlimit="10" x1="294.27" y1="287.902" x2="264.064" y2="374.849"/>
		
			<line fill="none" stroke="#D0D1D1" stroke-width="5.5" stroke-miterlimit="10" x1="314.359" y1="287.902" x2="344.562" y2="374.849"/>
	</g>
	<path fill="none" stroke="#D0D1D1" stroke-width="5.5" stroke-miterlimit="10" d="M283.504,315.384
		c17.238,17.24,45.139,17.24,62.378,0"/>
</g>
<g>
</g>
<g>
</g>
<g>
</g>
<g>
</g>
<g>
</g>
<g>
</g>
</svg>
