<svg version="1.1" id="Layer_1" xmlns="http://www.w3.org/2000/svg" xmlns:xlink="http://www.w3.org/1999/xlink" x="0px" y="0px" width="20px" height="24px" viewBox="0 0 20 24" enable-background="new 0 0 20 24" xml:space="preserve"><g><polygon fill="#FFFFFF" points="20.093,5.785 12.408,5.781 12.7,7.269 17.998,7.27 16.47,11.387 17.278,15.502 9.387,15.502 
8.837,12.692 7.293,12.692 8.135,16.986 19.113,16.986 18.015,11.387"/><path fill="#DCDDDE" d="M14.248,7.27l-1.547-0.001l-0.289-1.487l1.543,0.002L14.248,7.27z M8.837,12.692H7.293l0.292,1.485h1.544
L8.837,12.692z"/><polygon fill="#FFFFFF" points="2.128,2.971 10.312,2.971 11.927,11.207 3.746,11.207 4.037,12.692 13.762,12.692 11.566,1.486 
1.835,1.486"/><path fill="#DCDDDE" d="M5.263,11.207l0.29,1.485H4.037l-0.292-1.485H5.263z M2.128,2.971h1.516L3.353,1.486H1.835L2.128,2.971z"/><polygon fill="#FFFFFF" points="1.545,0 0,0 4.769,24.277 6.312,24.277"/></g></svg>