<?xml version="1.0" encoding="utf-8"?>
<!-- Generator: Adobe Illustrator 16.0.0, SVG Export Plug-In . SVG Version: 6.00 Build 0)  -->
<!DOCTYPE svg PUBLIC "-//W3C//DTD SVG 1.1//EN" "http://www.w3.org/Graphics/SVG/1.1/DTD/svg11.dtd">
<svg version="1.1" id="Layer_1" xmlns="http://www.w3.org/2000/svg" xmlns:xlink="http://www.w3.org/1999/xlink" x="0px" y="0px"
	 width="419px" height="135.312px" viewBox="0 0 419 135.312" enable-background="new 0 0 419 135.312" xml:space="preserve">
<g>
	<g opacity="0.75">
		<g>
			<path fill="#393A3A" d="M367.069,105.312h-47.323H268v30h8.35c0-12,8.836-19.735,19.736-19.735
				c10.898,0,19.738,7.735,19.738,19.735h3.922h3.925c0-12,8.837-19.735,19.736-19.735c10.9,0,19.737,7.735,19.737,19.735h3.925
				h3.922c0-12,8.837-19.735,19.737-19.735c10.899,0,19.737,7.735,19.737,19.735H419v-30H367.069z"/>
		</g>
		<g>
			<path fill="#393A3A" d="M99.691,105.312H52.368H0v30h8.971c0-12,8.836-19.735,19.737-19.735c10.9,0,19.738,7.735,19.738,19.735
				h3.922h3.925c0-12,8.835-19.735,19.736-19.735s19.738,7.735,19.738,19.735h3.924h3.921c0-12,8.837-19.735,19.739-19.735
				c10.898,0,19.737,7.735,19.737,19.735H147v-30H99.691z"/>
		</g>
		<g>
			<g>
				<polygon fill="#313032" points="156.029,0.156 146.501,17.083 144.995,135.312 156,135.312 156,135.312 156,0.402 				"/>
			</g>
			<polygon fill="#393A3A" points="165.641,17.083 156,0.402 156,135.312 167.411,135.312 			"/>
		</g>
		<g>
			<path fill="#313032" d="M175.374,74.45c0-18.399,18.936-33.315,42.292-33.315c23.359,0,42.295,14.916,42.295,33.315
				c0,18.394-18.936,34.591-42.295,34.591C194.31,109.041,175.374,92.843,175.374,74.45z"/>
			<rect x="175.06" y="66.632" fill="#313032" width="85.049" height="31.671"/>
			<rect x="165.535" y="74.903" fill="#313032" width="104.174" height="46.082"/>
			<path fill="#393A3A" d="M173.841,82.45c-1.696,0-3.067,1.575-3.067,3.523v35.012h6.139V85.973
				C176.912,84.025,175.54,82.45,173.841,82.45z"/>
			<path fill="#393A3A" d="M184.517,82.45c-1.696,0-3.068,1.575-3.068,3.523v35.012h6.138V85.973
				C187.586,84.025,186.213,82.45,184.517,82.45z"/>
			<path fill="#393A3A" d="M195.443,82.45c-1.694,0-3.068,1.575-3.068,3.523v35.012h6.142V85.973
				C198.516,84.025,197.14,82.45,195.443,82.45z"/>
			<path fill="#393A3A" d="M207.707,82.45c-1.693,0-3.068,1.575-3.068,3.523v35.012h6.139V85.973
				C210.778,84.025,209.404,82.45,207.707,82.45z"/>
			<path fill="#393A3A" d="M218.636,82.45c-1.695,0-3.066,1.575-3.066,3.523v35.012h6.138V85.973
				C221.707,84.025,220.332,82.45,218.636,82.45z"/>
			<path fill="#393A3A" d="M229.311,82.45c-1.696,0-3.07,1.575-3.07,3.523v35.012h6.139V85.973
				C232.379,84.025,231.007,82.45,229.311,82.45z"/>
			<path fill="#393A3A" d="M240.235,82.45c-1.695,0-3.066,1.575-3.066,3.523v35.012h6.138V85.973
				C243.307,84.025,241.933,82.45,240.235,82.45z"/>
			<path fill="#393A3A" d="M250.852,82.45c-1.7,0-3.075,1.575-3.075,3.523v35.012h6.143V85.973
				C253.919,84.025,252.546,82.45,250.852,82.45z"/>
			<path fill="#393A3A" d="M261.777,82.45c-1.696,0-3.069,1.575-3.069,3.523v35.012h6.139V85.973
				C264.847,84.025,263.472,82.45,261.777,82.45z"/>
			<rect x="164.109" y="72.437" fill="#393A3A" width="107.114" height="4.619"/>
			<rect x="164.064" y="120.985" fill="#313032" width="107.114" height="4.619"/>
			<rect x="161.736" y="125.604" fill="#393A3A" width="111.771" height="4.62"/>
			<rect x="159.657" y="130.224" fill="#313032" width="115.93" height="4.62"/>
			<polygon fill="#393A3A" points="261.665,67.506 173.668,67.506 173.668,64.164 217.667,57.365 261.665,64.164 			"/>
		</g>
	</g>
</g>
<g>
</g>
<g>
</g>
<g>
</g>
<g>
</g>
<g>
</g>
<g>
</g>
</svg>
