<?xml version="1.0" encoding="utf-8"?>
<!-- Generator: Adobe Illustrator 16.0.0, SVG Export Plug-In . SVG Version: 6.00 Build 0)  -->
<!DOCTYPE svg PUBLIC "-//W3C//DTD SVG 1.1//EN" "http://www.w3.org/Graphics/SVG/1.1/DTD/svg11.dtd">
<svg version="1.1" id="Layer_1" xmlns="http://www.w3.org/2000/svg" xmlns:xlink="http://www.w3.org/1999/xlink" x="0px" y="0px"
	 width="484.851px" height="596.015px" viewBox="0 0 484.851 596.015" enable-background="new 0 0 484.851 596.015"
	 xml:space="preserve">
<g opacity="0.4">
	<g opacity="0.6">
		<path fill="#90A4AE" d="M1.272,185.635c-1.842-2.234-1.662-5.722,0.404-7.752L181.075,1.513c2.064-2.03,5.43-2.016,7.478,0.032
			L483.316,296.31c2.048,2.048,2.048,5.398,0,7.447L192.238,594.834c-2.048,2.049-3.54,1.361-3.313-1.525l4.444-56.895
			c0.227-2.887-1.012-5.485-2.749-5.775c-1.736-0.289-3.849-2.793-4.691-5.562l-4.305-14.146c-0.844-2.771,0.438-6.351,2.848-7.958
			l0.715-0.477c2.41-1.606,4.512-5.286,4.674-8.178l0.469-8.439c0.16-2.892-1.92-6.107-4.623-7.147l-3.861-1.485
			c-2.702-1.039-5.701-4.123-6.666-6.854l-2.812-7.973c-0.964-2.73,0.613-4.857,3.508-4.725l12.646,0.574
			c2.894,0.132,5.588-2.107,5.987-4.976l4.863-34.85c0.399-2.868-0.218-7.388-1.371-10.043l-6.332-14.562
			c-1.154-2.656-2.219-7.195-2.361-10.088l-0.529-10.543c-0.145-2.893-2.576-5.762-5.406-6.377l-13.93-3.027
			c-2.83-0.615-6.078-3.297-7.219-5.958l-5.329-12.435c-1.142-2.662-4.265-5.741-6.942-6.844l-8.164-3.361
			c-2.678-1.104-5.659-4.238-6.626-6.968l-14.386-40.619c-0.967-2.729-4.07-5.477-6.897-6.105L76.77,273.27
			c-2.826-0.627-6.887-2.74-9.025-4.694l-29.082-26.59c-2.139-1.955-4.222-5.898-4.631-8.765l-0.617-4.318
			c-0.409-2.866-2.252-7.04-4.096-9.273L1.272,185.635z"/>
	</g>
</g>
<g>
	<g>
		<path fill="#BDBDBD" d="M243.167,241.706c-9.285,0-59.882-0.292-55.798,16.308c1.56,6.341,15.955,11.315,21.383,11.905
			l11.501,4.922l11.499-4.922c16.418-1.786,45.353-7.285,45.353-13.799C277.104,248.159,265.189,241.706,243.167,241.706z"/>
		<g>
			<path fill="#434343" d="M220.467,120.348c-37.108,0-67.208,30.088-67.208,67.204c0,30.375,20.172,56.014,47.821,64.337
				l19.378,22.951l19.379-22.951c27.666-8.328,47.832-33.962,47.832-64.337C287.669,150.437,257.576,120.348,220.467,120.348z"/>
			<g>
				<polygon fill="#FFFFFF" points="247.025,171.279 228.354,171.27 229.06,174.883 241.934,174.885 238.222,184.888 
					240.182,194.886 221.012,194.886 219.679,188.061 215.925,188.061 217.97,198.493 244.644,198.493 241.977,184.888 				"/>
				<path fill="#D5D6D6" d="M232.823,174.885l-3.759-0.002l-0.702-3.613l3.748,0.004L232.823,174.885z M219.679,188.061h-3.754
					l0.706,3.608h3.755L219.679,188.061z"/>
				<polygon fill="#FFFFFF" points="203.378,164.441 223.26,164.441 227.187,184.452 207.308,184.452 208.012,188.061 
					231.642,188.061 226.308,160.835 202.668,160.835 				"/>
				<path fill="#D5D6D6" d="M210.994,184.452l0.703,3.609h-3.685l-0.704-3.609H210.994z M203.378,164.441h3.683l-0.707-3.606h-3.686
					L203.378,164.441z"/>
				<polygon fill="#FFFFFF" points="201.96,157.224 198.207,157.224 209.794,216.207 213.543,216.207 				"/>
			</g>
		</g>
	</g>
</g>
<g>
</g>
<g>
</g>
<g>
</g>
<g>
</g>
<g>
</g>
<g>
</g>
</svg>
