<?xml version="1.0" encoding="utf-8"?>
<!-- Generator: Adobe Illustrator 16.0.0, SVG Export Plug-In . SVG Version: 6.00 Build 0)  -->
<!DOCTYPE svg PUBLIC "-//W3C//DTD SVG 1.1//EN" "http://www.w3.org/Graphics/SVG/1.1/DTD/svg11.dtd">
<svg version="1.1" id="Layer_1" xmlns="http://www.w3.org/2000/svg" xmlns:xlink="http://www.w3.org/1999/xlink" x="0px" y="0px"
	 width="684.891px" height="522.132px" viewBox="0 0 684.891 522.132" enable-background="new 0 0 684.891 522.132"
	 xml:space="preserve">
<g>
	<defs>
		<rect id="SVGID_1_" width="684.891" height="522.132"/>
	</defs>
	<clipPath id="SVGID_2_">
		<use xlink:href="#SVGID_1_"  overflow="visible"/>
	</clipPath>
	<g clip-path="url(#SVGID_2_)">
		<g>
			<g opacity="0.97">
				<rect x="-854.277" y="-68.913" opacity="0.75" fill="#ECEFF0" width="1627.888" height="840.294"/>
				<g>
					<defs>
						<rect id="SVGID_3_" x="-854.277" y="-68.913" width="1627.888" height="840.294"/>
					</defs>
					<clipPath id="SVGID_4_">
						<use xlink:href="#SVGID_3_"  overflow="visible"/>
					</clipPath>
					<g opacity="0.1" clip-path="url(#SVGID_4_)">
						<g>

								<path fill="none" stroke="#90A4AE" stroke-width="17" stroke-linecap="round" stroke-linejoin="round" stroke-miterlimit="10" d="
								M33.656-272.324l60.062,125.461c2.991,6.251,6.688,16.9,8.2,23.661l9.274,41.331c1.522,6.761,5.206,17.408,8.203,23.659
								L248.935,207.25"/>

								<path fill="none" stroke="#90A4AE" stroke-width="17" stroke-linecap="round" stroke-linejoin="round" stroke-miterlimit="10" d="
								M99.16-135.497l34.22,43.001c4.32,5.421,10.301,14.972,13.296,21.224l129.535,265.459"/>
						</g>
						<g>

								<path fill="none" stroke="#90A4AE" stroke-width="17" stroke-linecap="round" stroke-linejoin="round" stroke-miterlimit="10" d="
								M743.94,1209.102L502.199,714.338c-2.993-6.251-6.687-16.901-8.201-23.66l-9.271-41.33
								c-1.524-6.76-5.211-17.411-8.203-23.661L346.981,360.225"/>

								<path fill="none" stroke="#90A4AE" stroke-width="17" stroke-linecap="round" stroke-linejoin="round" stroke-miterlimit="10" d="
								M496.759,702.971l-34.226-42.999c-4.315-5.426-10.296-14.973-13.293-21.226L319.708,373.286"/>
						</g>

							<circle fill="none" stroke="#90A4AE" stroke-width="17" stroke-linecap="round" stroke-linejoin="round" stroke-miterlimit="10" cx="294.187" cy="282.414" r="87.694"/>

							<line fill="none" stroke="#90A4AE" stroke-width="17" stroke-linecap="round" stroke-linejoin="round" stroke-miterlimit="10" x1="-438.703" y1="-44.642" x2="213.856" y2="247.235"/>

							<line fill="none" stroke="#90A4AE" stroke-width="17" stroke-linecap="round" stroke-linejoin="round" stroke-miterlimit="10" x1="373.803" y1="317.74" x2="1004.888" y2="600.012"/>

							<line fill="none" stroke="#90A4AE" stroke-width="17" stroke-linecap="round" stroke-linejoin="round" stroke-miterlimit="10" x1="342.516" y1="209.249" x2="698.912" y2="-262.489"/>

							<line fill="none" stroke="#90A4AE" stroke-width="17" stroke-linecap="round" stroke-linejoin="round" stroke-miterlimit="10" x1="-346.266" y1="1166.712" x2="243.977" y2="354.29"/>

							<line fill="none" stroke="#90A4AE" stroke-width="17" stroke-linecap="round" stroke-linejoin="round" stroke-miterlimit="10" x1="119.711" y1="-45.828" x2="119.711" y2="1166.712"/>

							<line fill="none" stroke="#90A4AE" stroke-width="17" stroke-linecap="round" stroke-linejoin="round" stroke-miterlimit="10" x1="294.188" y1="370.107" x2="294.188" y2="1166.712"/>

							<line fill="none" stroke="#90A4AE" stroke-width="17" stroke-linecap="round" stroke-linejoin="round" stroke-miterlimit="10" x1="294.188" y1="-272.166" x2="294.188" y2="194.722"/>

							<line fill="none" stroke="#90A4AE" stroke-width="17" stroke-linecap="round" stroke-linejoin="round" stroke-miterlimit="10" x1="381.881" y1="282.414" x2="1321.394" y2="282.414"/>

							<line fill="none" stroke="#90A4AE" stroke-width="17" stroke-linecap="round" stroke-linejoin="round" stroke-miterlimit="10" x1="492.717" y1="-262.489" x2="492.717" y2="1166.712"/>

							<line fill="none" stroke="#90A4AE" stroke-width="17" stroke-linecap="round" stroke-linejoin="round" stroke-miterlimit="10" x1="838.741" y1="-262.489" x2="838.741" y2="1166.712"/>

							<line fill="none" stroke="#90A4AE" stroke-width="17" stroke-linecap="round" stroke-linejoin="round" stroke-miterlimit="10" x1="1279.566" y1="-262.489" x2="1279.566" y2="1166.712"/>

							<line fill="none" stroke="#90A4AE" stroke-width="17" stroke-linecap="round" stroke-linejoin="round" stroke-miterlimit="10" x1="1059.155" y1="-262.489" x2="1059.155" y2="1166.712"/>

							<line fill="none" stroke="#90A4AE" stroke-width="17" stroke-linecap="round" stroke-linejoin="round" stroke-miterlimit="10" x1="-495.083" y1="623.704" x2="926.437" y2="623.704"/>

							<polyline fill="none" stroke="#90A4AE" stroke-width="17" stroke-linecap="round" stroke-linejoin="round" stroke-miterlimit="10" points="
							-51.146,-262.489 -51.146,282.416 -50.819,282.414 206.492,282.414 						"/>

							<polyline fill="none" stroke="#90A4AE" stroke-width="17" stroke-linecap="round" stroke-linejoin="round" stroke-miterlimit="10" points="
							-296.499,-262.489 -296.499,223.857 -412.906,223.857 						"/>

							<line fill="none" stroke="#90A4AE" stroke-width="17" stroke-linecap="round" stroke-linejoin="round" stroke-miterlimit="10" x1="564.809" y1="842.478" x2="1004.888" y2="645.034"/>

							<line fill="none" stroke="#90A4AE" stroke-width="17" stroke-linecap="round" stroke-linejoin="round" stroke-miterlimit="10" x1="33.656" y1="282.414" x2="33.656" y2="476.294"/>

							<polyline fill="none" stroke="#90A4AE" stroke-width="17" stroke-linecap="round" stroke-linejoin="round" stroke-miterlimit="10" points="
							122.977,476.294 -50.819,476.294 -51.146,476.287 -51.146,1166.712 						"/>

							<polyline fill="none" stroke="#90A4AE" stroke-width="17" stroke-linecap="round" stroke-linejoin="round" stroke-miterlimit="10" points="
							-241.289,76.476 -241.289,220.003 -97.087,220.003 						"/>

							<polyline fill="none" stroke="#90A4AE" stroke-width="17" stroke-linecap="round" stroke-linejoin="round" stroke-miterlimit="10" points="
							-51.146,538.137 -296.499,538.137 -296.499,1166.712 						"/>

							<line fill="none" stroke="#90A4AE" stroke-width="17" stroke-linecap="round" stroke-linejoin="round" stroke-miterlimit="10" x1="-396.042" y1="-135.497" x2="1321.394" y2="-135.497"/>

							<line fill="none" stroke="#90A4AE" stroke-width="17" stroke-linecap="round" stroke-linejoin="round" stroke-miterlimit="10" x1="838.741" y1="571.825" x2="596.998" y2="538.129"/>

							<polyline fill="none" stroke="#90A4AE" stroke-width="17" stroke-linecap="round" stroke-linejoin="round" stroke-miterlimit="10" points="
							608.847,623.704 608.847,723.246 650.328,804.111 						"/>

							<line fill="none" stroke="#90A4AE" stroke-width="17" stroke-linecap="round" stroke-linejoin="round" stroke-miterlimit="10" x1="492.717" y1="732.727" x2="294.188" y2="732.727"/>

							<line fill="none" stroke="#90A4AE" stroke-width="17" stroke-linecap="round" stroke-linejoin="round" stroke-miterlimit="10" x1="122.977" y1="525.578" x2="294.188" y2="525.578"/>

							<line fill="none" stroke="#90A4AE" stroke-width="17" stroke-linecap="round" stroke-linejoin="round" stroke-miterlimit="10" x1="-296.499" y1="73.764" x2="1321.394" y2="73.764"/>

							<line fill="none" stroke="#90A4AE" stroke-width="17" stroke-linecap="round" stroke-linejoin="round" stroke-miterlimit="10" x1="294.188" y1="-38.722" x2="1321.394" y2="-38.722"/>

							<polyline fill="none" stroke="#90A4AE" stroke-width="17" stroke-linecap="round" stroke-linejoin="round" stroke-miterlimit="10" points="
							1321.394,842.478 122.982,842.478 -51.146,842.478 -157.854,907.377 -631.612,907.377 						"/>

							<line fill="none" stroke="#90A4AE" stroke-width="17" stroke-linecap="round" stroke-linejoin="round" stroke-miterlimit="10" x1="122.977" y1="981.578" x2="294.188" y2="981.578"/>

							<line fill="none" stroke="#90A4AE" stroke-width="17" stroke-linecap="round" stroke-linejoin="round" stroke-miterlimit="10" x1="296.276" y1="1017.127" x2="496.759" y2="1017.127"/>

							<line fill="none" stroke="#90A4AE" stroke-width="17" stroke-linecap="round" stroke-linejoin="round" stroke-miterlimit="10" x1="213.856" y1="981.578" x2="213.856" y2="1126.157"/>

							<line fill="none" stroke="#90A4AE" stroke-width="17" stroke-linecap="round" stroke-linejoin="round" stroke-miterlimit="10" x1="-438.703" y1="1126.157" x2="1321.394" y2="1126.157"/>

							<line fill="none" stroke="#90A4AE" stroke-width="17" stroke-linecap="round" stroke-linejoin="round" stroke-miterlimit="10" x1="492.717" y1="179.406" x2="838.741" y2="179.406"/>

							<polyline fill="none" stroke="#90A4AE" stroke-width="17" stroke-linecap="round" stroke-linejoin="round" stroke-miterlimit="10" points="
							784.849,73.764 784.849,134.167 492.717,134.167 						"/>

							<polyline fill="none" stroke="#90A4AE" stroke-width="17" stroke-linecap="round" stroke-linejoin="round" stroke-miterlimit="10" points="
							-51.146,-1.981 -130.599,-1.981 -130.599,-67.919 -194.591,-89.673 						"/>

							<polyline fill="none" stroke="#90A4AE" stroke-width="17" stroke-linecap="round" stroke-linejoin="round" stroke-miterlimit="10" points="
							-296.499,18.962 -159.919,-135.497 -99.792,-262.489 						"/>

							<polyline fill="none" stroke="#90A4AE" stroke-width="17" stroke-linecap="round" stroke-linejoin="round" stroke-miterlimit="10" points="
							-296.499,743.757 -215.922,743.757 -99.792,827.455 						"/>

							<polyline fill="none" stroke="#90A4AE" stroke-width="17" stroke-linecap="round" stroke-linejoin="round" stroke-miterlimit="10" points="
							-215.922,743.757 -198.147,713.907 -135.339,713.907 -135.339,682.957 						"/>

							<polyline fill="none" stroke="#90A4AE" stroke-width="17" stroke-linecap="round" stroke-linejoin="round" stroke-miterlimit="10" points="
							-157.854,785.606 -122.871,743.757 -135.339,713.907 						"/>

							<line fill="none" stroke="#90A4AE" stroke-width="17" stroke-linecap="round" stroke-linejoin="round" stroke-miterlimit="10" x1="632.772" y1="981.578" x2="1059.155" y2="981.578"/>

							<polyline fill="none" stroke="#90A4AE" stroke-width="17" stroke-linecap="round" stroke-linejoin="round" stroke-miterlimit="10" points="
							838.741,463.679 926.437,463.679 976.202,495.724 976.202,587.185 						"/>

							<line fill="none" stroke="#90A4AE" stroke-width="17" stroke-linecap="round" stroke-linejoin="round" stroke-miterlimit="10" x1="939.685" y1="472.21" x2="904.202" y2="554.978"/>

							<line fill="none" stroke="#90A4AE" stroke-width="17" stroke-linecap="round" stroke-linejoin="round" stroke-miterlimit="10" x1="838.741" y1="417.513" x2="1279.566" y2="417.513"/>
					</g>
				</g>
			</g>
			<g>
				<g>
					<path opacity="0.6" fill="#78909C" d="M190.767,199.836c-8.662,0-55.875-0.271-52.066,15.217
						c1.454,5.916,14.888,10.558,19.951,11.107l10.732,4.594l10.729-4.594c15.318-1.667,42.32-6.795,42.32-12.876
						C222.433,205.859,211.315,199.836,190.767,199.836z"/>
					<g>
						<path fill="#56AADE" d="M167.247,77.45c-36.823,0-66.689,29.858-66.689,66.688c0,30.141,20.014,55.583,47.451,63.842
							l19.228,22.774l19.23-22.774c27.453-8.264,47.463-33.701,47.463-63.842C233.931,107.308,204.071,77.45,167.247,77.45z"/>
					</g>
				</g>
				<g>
					<path fill-rule="evenodd" clip-rule="evenodd" fill="#2F3E5A" d="M201.616,140.244l-20.588-0.188l0.092-10.182l13.186,0.12
						L201.616,140.244L201.616,140.244z M189.685,153.167c-0.973,0.955-1.58,2.278-1.594,3.749c-0.014,1.466,0.57,2.804,1.523,3.772
						c0.955,0.974,2.277,1.58,3.746,1.594c1.473,0.012,2.805-0.57,3.775-1.524c0.975-0.953,1.58-2.278,1.594-3.748
						c0.014-1.465-0.572-2.801-1.523-3.773c-0.953-0.972-2.279-1.58-3.748-1.591C191.991,151.634,190.655,152.216,189.685,153.167
						L189.685,153.167z M207.661,159.585l2.963,0.028l0.09-10.114l-2.961-0.026l0.096-10.07l-10.664-14.95l-21.586-0.194
						l-0.32,35.03l7.506,0.067c0.457,2.012,1.463,3.814,2.857,5.235c1.957,1.99,4.664,3.23,7.668,3.259
						c3.008,0.027,5.74-1.166,7.729-3.118c1.424-1.398,2.463-3.181,2.947-5.182l1.408,0.011L207.661,159.585z"/>
					<path fill-rule="evenodd" clip-rule="evenodd" fill="#2F3E5A" d="M139.89,152.711c-0.969,0.958-1.575,2.28-1.591,3.75
						c-0.009,1.468,0.57,2.804,1.525,3.773c0.954,0.974,2.276,1.58,3.748,1.592c1.467,0.016,2.801-0.569,3.773-1.521
						c0.97-0.955,1.579-2.277,1.59-3.747c0.015-1.467-0.569-2.805-1.521-3.776c-0.953-0.97-2.276-1.576-3.747-1.589
						C142.199,151.177,140.865,151.763,139.89,152.711L139.89,152.711z M172.124,159.261l-17.928-0.166
						c-0.488,2-1.529,3.785-2.95,5.183c-1.988,1.952-4.72,3.144-7.728,3.116c-3.007-0.029-5.716-1.27-7.671-3.257
						c-1.396-1.422-2.398-3.226-2.85-5.235l-3.448-0.032v-0.059l-2.797-0.025l0.077-8.766l2.8,0.025l0.268-29.315l42.574,0.388
						L172.124,159.261z"/>
				</g>
			</g>
			<g>
				<g>
					<path opacity="0.6" fill="#78909C" d="M503.432,426.057c-8.662,0-55.876-0.271-52.067,15.218
						c1.456,5.917,14.892,10.558,19.955,11.107l10.734,4.593l10.727-4.593c15.316-1.667,42.319-6.796,42.319-12.876
						C535.1,432.081,523.979,426.057,503.432,426.057z"/>
					<g>
						<path fill="#56AADE" d="M479.913,303.671c-36.824,0-66.69,29.859-66.69,66.689c0,30.139,20.015,55.583,47.454,63.842
							l19.227,22.772l19.229-22.772c27.452-8.266,47.464-33.704,47.464-63.842C546.597,333.53,516.736,303.671,479.913,303.671z"/>
					</g>
				</g>
				<g>
					<path fill-rule="evenodd" clip-rule="evenodd" fill="#2F3E5A" d="M514.283,366.464l-20.59-0.187l0.091-10.182l13.188,0.12
						L514.283,366.464L514.283,366.464z M502.35,379.389c-0.971,0.956-1.578,2.281-1.591,3.751
						c-0.017,1.465,0.567,2.801,1.522,3.771c0.952,0.974,2.277,1.58,3.745,1.594c1.473,0.013,2.806-0.568,3.776-1.523
						c0.974-0.953,1.577-2.278,1.593-3.748c0.013-1.465-0.572-2.803-1.524-3.775c-0.952-0.97-2.28-1.579-3.748-1.59
						C504.657,377.855,503.32,378.436,502.35,379.389L502.35,379.389z M520.327,385.806l2.962,0.028l0.093-10.112l-2.962-0.028
						l0.093-10.07l-10.662-14.948l-21.585-0.194l-0.321,35.029l7.508,0.069c0.454,2.01,1.459,3.812,2.855,5.233
						c1.955,1.99,4.664,3.231,7.665,3.258c3.011,0.03,5.743-1.165,7.73-3.118c1.424-1.395,2.464-3.181,2.95-5.18l1.406,0.01
						L520.327,385.806z"/>
					<path fill-rule="evenodd" clip-rule="evenodd" fill="#2F3E5A" d="M452.556,378.934c-0.968,0.956-1.573,2.278-1.588,3.747
						c-0.011,1.47,0.568,2.806,1.522,3.776c0.954,0.975,2.275,1.58,3.748,1.592c1.467,0.014,2.803-0.57,3.773-1.523
						c0.969-0.955,1.578-2.276,1.59-3.747c0.014-1.469-0.568-2.804-1.521-3.776c-0.953-0.969-2.279-1.575-3.747-1.59
						C454.863,377.399,453.531,377.984,452.556,378.934L452.556,378.934z M484.788,385.483l-17.927-0.167
						c-0.488,2.001-1.528,3.785-2.949,5.184c-1.99,1.951-4.719,3.143-7.729,3.115c-3.006-0.028-5.716-1.269-7.668-3.257
						c-1.398-1.421-2.399-3.222-2.852-5.233l-3.446-0.033v-0.056l-2.8-0.028l0.079-8.765l2.799,0.024l0.268-29.315l42.573,0.391
						L484.788,385.483z"/>
				</g>
			</g>
		</g>
	</g>
</g>
<g>
</g>
<g>
</g>
<g>
</g>
<g>
</g>
<g>
</g>
<g>
</g>
</svg>
