<svg xmlns="http://www.w3.org/2000/svg" viewBox="0 0 1360 800"><g data-name="Layer 1"><path fill="#34495e" stroke="#02c386" stroke-width="1.5" d="M547.23 560.92h-114a10.39 10.39 0 0 1-10.09-7.92l-3.39-13.57h127.48zm-49.09-5.46h26.8m-26.8-4.69h26.8m-26.8-4.69h26.8" stroke-linecap="round" stroke-linejoin="round"/><path fill="#34495e" stroke="#02c386" stroke-width="1.5" d="M512.04 527.3h46.56v12.17h-46.56zm-92.29 4.98h19.24v7.19h-19.24zm14.35-39.02h4.9v39h-19.25v-24.65a14.36 14.36 0 0 1 14.35-14.35z" stroke-linecap="round" stroke-linejoin="round"/><path fill="#34495e" stroke="#02c386" stroke-width="1.5" d="M498.14 527.32l-12.45-34.06h-46.7v46.22h73.05V527.3l-13.9.02z" stroke-linecap="round" stroke-linejoin="round"/><circle cx="438.99" cy="560.92" r="11" fill="#34495e" stroke="#02c386" stroke-width="1.5" stroke-linecap="round" stroke-linejoin="round"/><circle cx="438.99" cy="560.92" r="3.13" fill="#34495e" stroke="#02c386" stroke-width="1.5" stroke-linecap="round" stroke-linejoin="round"/><circle cx="544.38" cy="552.1" r="19.82" fill="#34495e" stroke="#02c386" stroke-width="1.5" stroke-linecap="round" stroke-linejoin="round"/><circle cx="544.38" cy="552.1" r="9.49" fill="#34495e" stroke="#02c386" stroke-width="1.5" stroke-linecap="round" stroke-linejoin="round"/><path fill="#34495e" stroke="#02c386" stroke-width="1.5" d="M471.34 501.86h17.5m-13.48 4.02h14.95m-8.25 4.02h9.72" stroke-linecap="round" stroke-linejoin="round"/><path fill="none" stroke="#02c386" stroke-width="1.5" d="M439 512.15l59.14 15.15h20.13" stroke-linecap="round" stroke-linejoin="round"/><path fill="#34495e" stroke="#02c386" stroke-width="1.5" d="M458 483h25.75a2.53 2.53 0 0 1 2.53 2.53v4.74h-30.81v-4.74A2.53 2.53 0 0 1 458 483z" stroke-linecap="round" stroke-linejoin="round"/><path fill="#34495e" stroke="#02c386" stroke-width="1.5" d="M453.81 455.545l4.67 25.322a2.53 2.53 0 0 1-2.03 2.947l-2.596.48a2.1 2.1 0 0 1-2.446-1.685l-5.208-28.237 4.662-.86a2.53 2.53 0 0 1 2.947 2.03z" stroke-linecap="round" stroke-linejoin="round"/><path fill="none" stroke="#02c386" stroke-width="1.5" d="M452.79 430.84h37a27.65 27.65 0 0 1 26.86 21.09l18.4 75.37m-96.06-24.77v-63.65" stroke-linecap="round" stroke-linejoin="round"/><path fill="none" stroke="#02c386" stroke-width="1.5" d="M508.86 438.88h-70.35a8 8 0 0 1-8-8h15.41" stroke-linecap="round" stroke-linejoin="round"/><path fill="none" stroke="#02c386" stroke-width="1.5" d="M445.35 433.17h8.12v2.06h-8.12z" stroke-linecap="round" stroke-linejoin="round"/><path fill="#34495e" stroke="#02c386" stroke-width="1.5" d="M453.47 433.17h-8.12l3.07-8.67h2.37l2.68 8.67z" stroke-linecap="round" stroke-linejoin="round"/><path fill="none" stroke="#02c386" stroke-width="1.5" d="M521.26 457.25v-8.12h2.06v8.12z" stroke-linecap="round" stroke-linejoin="round"/><path fill="#34495e" stroke="#02c386" stroke-width="1.5" d="M521.26 449.13v8.12l-8.67-3.07v-2.37l8.67-2.68zm12.04 70.86l-21.26 7.31m16.01-5.58l-9.41 3.34-10.79-31.97 9.42-3.34 10.78 31.97zm-13.06-31.19l-4.8 1.7-3.92-12.18 4.81-1.71 3.91 12.19zm-18.05-10.62l21.43-7.59m30.92-51.36h9.32v106.35h-9.32zm0 106.34h-7.72v-37.56h7.72z" stroke-linecap="round" stroke-linejoin="round"/><path fill="#34495e" stroke="#02c386" stroke-width="1.5" d="M567.72 471h-9.12v-45.12l9.12 6.37V471z" stroke-linecap="round" stroke-linejoin="round"/><path fill="#34495e" stroke="#02c386" stroke-width="1.5" d="M636.78 467.18V471h-14.47l-5.86 1.34H582.8l-5.5-1.34h-18.7v-3.82h78.18zM514 526.78l-1.96-5.27m.69-3.55l-2.1 5.69m72.47-66.33v-8.25h41.61v8.25zm0-8.25v-8.25h41.61v8.25zm.01-8.25v-8.25h41.61v8.25zm0-8.25v-8.25h41.61v8.25zm0-8.25v-8.25h41.61v8.25z" stroke-linecap="round" stroke-linejoin="round"/><path fill="#34495e" stroke="#02c386" stroke-width="1.5" d="M584.422 463.283l-6.965-6.965 45.947-45.948 6.965 6.965z" stroke-linecap="round" stroke-linejoin="round"/><path fill="#34495e" stroke="#02c386" stroke-width="1.5" d="M571.03 467.18v-9.85h65.76v9.85zm53.69-51.16h9.85v41.31h-9.85zm-53.69 0v-9.85h65.76v9.85zm2.27 0h9.85v41.31h-9.85z" stroke-linecap="round" stroke-linejoin="round"/><path fill="none" d="M0 0h1360v800H0z"/></g></svg>