<svg xmlns="http://www.w3.org/2000/svg" viewBox="0 0 724 475"><defs><style>.cls-1{fill:#fff}.cls-2{fill:#2c2c3e}.cls-3{fill:#78909c}.cls-4{fill:#546e7a}.cls-5{fill:none}</style></defs><g id="Layer_2" data-name="Layer 2"><g id="Layer_1-2" data-name="Layer 1"><g id="_Group_" data-name="&lt;Group&gt;"><rect class="cls-1" width="220" height="475" rx="1.32" ry="1.32" id="_Group_2" data-name="&lt;Group&gt;"/><path id="_Rectangle_" data-name="&lt;Rectangle&gt;" class="cls-2" d="M.69 0h218.62a.69.69 0 0 1 .69.69V165H0V.69A.69.69 0 0 1 .69 0z"/><path class="cls-3" d="M27.41 193.32H25.5v1.77h2.13v.53h-2.77v-4.92h2.66v.53h-2v1.55h1.91zm1.77-2.55a9.06 9.06 0 0 1 1.35-.1 2.82 2.82 0 0 1 2 .61 2.27 2.27 0 0 1 .69 1.77 2.6 2.6 0 0 1-.71 1.91 3 3 0 0 1-2.17.71 10.2 10.2 0 0 1-1.15-.06zm.63 4.35a4 4 0 0 0 .64 0 1.89 1.89 0 0 0 2.09-2.09 1.75 1.75 0 0 0-2-1.9 3.59 3.59 0 0 0-.74.07zm5.59-4.42v2.91c0 1.1.49 1.57 1.15 1.57s1.2-.48 1.2-1.57v-2.91h.64v2.87c0 1.51-.79 2.13-1.86 2.13s-1.77-.58-1.77-2.1v-2.9zm8.25 4.76a3.15 3.15 0 0 1-1.3.23 2.3 2.3 0 0 1-2.43-2.49 2.45 2.45 0 0 1 2.57-2.58 2.64 2.64 0 0 1 1.17.22l-.15.52a2.3 2.3 0 0 0-1-.2 1.83 1.83 0 0 0-1.92 2 1.79 1.79 0 0 0 1.89 2 2.54 2.54 0 0 0 1-.2zm2.35-1.39l-.51 1.55h-.66l1.67-4.92h.77l1.68 4.92h-.68l-.53-1.55zm1.61-.5l-.48-1.41c-.11-.32-.18-.61-.26-.9-.07.29-.15.59-.25.89l-.48 1.42zm3.16-2.33h-1.5v-.54h3.64v.54h-1.5v4.38h-.64zm4.05-.54v4.92h-.63v-4.92zm6.04 2.41a2.3 2.3 0 0 1-2.28 2.59 2.25 2.25 0 0 1-2.21-2.49 2.33 2.33 0 0 1 2.28-2.58 2.24 2.24 0 0 1 2.21 2.48zm-3.81.08c0 1.05.57 2 1.57 2s1.58-.93 1.58-2-.51-2-1.57-2-1.63.92-1.63 2zm5.36 2.43v-4.92h.69l1.58 2.49a13.89 13.89 0 0 1 .88 1.6c-.06-.66-.07-1.25-.07-2v-2.09h.6v4.92h-.64l-1.56-2.49a15.5 15.5 0 0 1-.92-1.64c0 .62.05 1.21.05 2v2.1z"/><path class="cls-4" d="M25.17 212.21A9.54 9.54 0 0 1 27 212a3.16 3.16 0 0 1 2.1.56 1.6 1.6 0 0 1 .63 1.35 1.81 1.81 0 0 1-1.29 1.68 2 2 0 0 1 1.56 1.98 2.06 2.06 0 0 1-.65 1.53 3.84 3.84 0 0 1-2.64.71 11.61 11.61 0 0 1-1.53-.09zm1 3.13h.9c1 0 1.66-.54 1.66-1.28 0-.9-.68-1.25-1.68-1.25a4.26 4.26 0 0 0-.87.07zm0 3.66a5.32 5.32 0 0 0 .83 0c1 0 2-.37 2-1.48s-.9-1.47-2-1.47h-.82zm5.01.16a.67.67 0 0 1 .68-.71.72.72 0 1 1-.68.71zm2.82-.61a3.5 3.5 0 0 0 1.77.5c1 0 1.6-.53 1.6-1.3s-.41-1.12-1.44-1.52c-1.25-.44-2-1.09-2-2.17a2.2 2.2 0 0 1 2.4-2.06 3.48 3.48 0 0 1 1.69.37l-.27.81a3 3 0 0 0-1.45-.36c-1 0-1.44.62-1.44 1.15 0 .71.46 1.07 1.52 1.47 1.29.5 1.95 1.12 1.95 2.25s-.87 2.2-2.68 2.2a4 4 0 0 1-2-.49zm5.69.61a.67.67 0 0 1 .68-.71.72.72 0 1 1-.68.71zm10.93.34a4.89 4.89 0 0 1-2 .36 3.57 3.57 0 0 1-3.79-3.86 3.8 3.8 0 0 1 4-4 4.09 4.09 0 0 1 1.81.34l-.24.8a3.59 3.59 0 0 0-1.54-.32 2.84 2.84 0 0 0-3 3.15 2.78 2.78 0 0 0 2.95 3.03 4 4 0 0 0 1.61-.32zM57 217a2.68 2.68 0 0 1-2.73 2.91 2.61 2.61 0 0 1-2.68-2.91 2.68 2.68 0 0 1 2.72-2.91A2.6 2.6 0 0 1 57 217zm-4.4 0c0 1.2.69 2.11 1.67 2.11s1.67-.9 1.67-2.13c0-.93-.46-2.11-1.64-2.11S52.6 216 52.6 217zm5.9-1.25v-1.49h.87v.88a1.89 1.89 0 0 1 1.72-1 1.62 1.62 0 0 1 1.55 1.1 2.26 2.26 0 0 1 .61-.71 1.87 1.87 0 0 1 1.21-.39c.73 0 1.8.48 1.8 2.38v3.23h-1v-3.11c0-1.05-.39-1.69-1.19-1.69a1.29 1.29 0 0 0-1.18.91 1.64 1.64 0 0 0-.08.5v3.39h-1v-3.29c0-.87-.39-1.51-1.15-1.51a1.49 1.49 0 0 0-1.31 1.49v3.31h-1zm9.74.3v-1.79h.9v.94a2.16 2.16 0 0 1 1.95-1.07c1.33 0 2.32 1.12 2.32 2.79 0 2-1.2 2.95-2.49 2.95a1.93 1.93 0 0 1-1.69-.86v3h-1zm1 1.46a2.23 2.23 0 0 0 0 .41 1.54 1.54 0 0 0 1.5 1.17c1.05 0 1.67-.86 1.67-2.12 0-1.1-.58-2-1.63-2a1.59 1.59 0 0 0-1.51 1.24 1.63 1.63 0 0 0-.07.41zm10.33.74v1.5h-.88l-.06-.9a2.06 2.06 0 0 1-1.81 1c-.86 0-1.89-.48-1.89-2.4v-3.21h1v3c0 1 .32 1.75 1.22 1.75a1.44 1.44 0 0 0 1.32-.91 1.46 1.46 0 0 0 .09-.51v-3.37h1zm3.15-5.57v1.58h1.43v.74h-1.43v3c0 .68.19 1.07.75 1.07A2.21 2.21 0 0 0 84 219v.75a2.45 2.45 0 0 1-.88.14 1.38 1.38 0 0 1-1.08-.42 2 2 0 0 1-.39-1.43v-3h-.85v-.76h.85v-1.31zm3.28 4.51a1.76 1.76 0 0 0 1.88 1.9 3.61 3.61 0 0 0 1.52-.28l.17.71a4.45 4.45 0 0 1-1.83.34 2.55 2.55 0 0 1-2.7-2.77 2.66 2.66 0 0 1 2.57-3 2.32 2.32 0 0 1 2.27 2.58 3.78 3.78 0 0 1 0 .46zm2.92-.71a1.42 1.42 0 0 0-1.38-1.62 1.65 1.65 0 0 0-1.53 1.62zm2.53-.48v-1.71h.87v1.08a1.65 1.65 0 0 1 1.52-1.2 1.09 1.09 0 0 1 .28 0v.94a1.48 1.48 0 0 0-.34 0 1.4 1.4 0 0 0-1.34 1.28 2.77 2.77 0 0 0 0 .46v2.92h-1zm6.55 2.55a3.5 3.5 0 0 0 1.77.5c1 0 1.6-.53 1.6-1.3s-.41-1.12-1.44-1.52c-1.25-.44-2-1.09-2-2.17a2.2 2.2 0 0 1 2.47-2.07 3.48 3.48 0 0 1 1.69.37l-.27.81a3 3 0 0 0-1.45-.36c-1 0-1.44.62-1.44 1.15 0 .71.46 1.07 1.52 1.47 1.29.5 1.95 1.12 1.95 2.25s-.87 2.2-2.68 2.2a4 4 0 0 1-2-.49zm10 .99a3.67 3.67 0 0 1-1.58.32 2.61 2.61 0 0 1-2.73-2.8 2.79 2.79 0 0 1 2.95-2.91 3.34 3.34 0 0 1 1.38.28l-.23.77a2.32 2.32 0 0 0-1.16-.26 2.07 2.07 0 0 0 0 4.13 2.84 2.84 0 0 0 1.22-.27zm2.56-6.82a.62.62 0 0 1-1.24 0 .61.61 0 0 1 .62-.62.59.59 0 0 1 .62.62zm-1.11 7v-5.49h1v5.49zm3.49-2.53a1.76 1.76 0 0 0 1.88 1.9 3.61 3.61 0 0 0 1.52-.28l.17.71a4.45 4.45 0 0 1-1.83.34 2.55 2.55 0 0 1-2.7-2.77 2.66 2.66 0 0 1 2.57-3 2.32 2.32 0 0 1 2.27 2.58 3.78 3.78 0 0 1 0 .46zm2.92-.71a1.42 1.42 0 0 0-1.38-1.62 1.65 1.65 0 0 0-1.53 1.62zm2.49-.73v-1.49h.88l.06.91a2 2 0 0 1 1.81-1c.76 0 1.94.45 1.94 2.34v3.28h-1v-3.16c0-.88-.33-1.62-1.27-1.62a1.42 1.42 0 0 0-1.34 1 1.43 1.43 0 0 0-.07.46v3.3h-1zm10.49 3.79a3.67 3.67 0 0 1-1.58.32 2.61 2.61 0 0 1-2.73-2.8 2.79 2.79 0 0 1 2.95-2.91 3.34 3.34 0 0 1 1.38.28l-.23.77a2.32 2.32 0 0 0-1.16-.26 2.07 2.07 0 0 0 0 4.13 2.84 2.84 0 0 0 1.22-.27zm1.94-2.35a1.76 1.76 0 0 0 1.88 1.9 3.61 3.61 0 0 0 1.52-.28l.17.71a4.45 4.45 0 0 1-1.83.34 2.55 2.55 0 0 1-2.7-2.77 2.66 2.66 0 0 1 2.57-3 2.32 2.32 0 0 1 2.27 2.58 3.78 3.78 0 0 1 0 .46zm2.92-.71a1.42 1.42 0 0 0-1.38-1.62 1.65 1.65 0 0 0-1.53 1.62zm1.71 4.66a16.33 16.33 0 0 0 .68-2.71l1.11-.11a13.83 13.83 0 0 1-1.08 2.76zm-109.25 4.58v4.52c0 1.71.76 2.44 1.78 2.44s1.86-.75 1.86-2.44v-4.52h1v4.46c0 2.35-1.24 3.31-2.89 3.31s-2.74-.9-2.74-3.27v-4.5zm6.6 3.64v-1.49h.88l.06.91a2 2 0 0 1 1.81-1c.76 0 1.94.45 1.94 2.34v3.28h-1v-3.2c0-.88-.33-1.62-1.27-1.62a1.42 1.42 0 0 0-1.34 1 1.43 1.43 0 0 0-.07.46v3.3h-1zm7.69-3.03a.62.62 0 0 1-1.24 0 .61.61 0 0 1 .62-.62.59.59 0 0 1 .62.62zm-1.11 7v-5.49h1v5.49zm3.32-5.46l1.08 3.13a14 14 0 0 1 .44 1.41c.13-.45.28-.91.46-1.41l1.07-3.08h1l-2.15 5.49h-1l-2.09-5.49zm5.8 2.93a1.76 1.76 0 0 0 1.88 1.9 3.61 3.61 0 0 0 1.52-.28l.17.71a4.45 4.45 0 0 1-1.83.34 2.55 2.55 0 0 1-2.7-2.77 2.66 2.66 0 0 1 2.57-3 2.32 2.32 0 0 1 2.27 2.58 3.78 3.78 0 0 1 0 .46zm2.92-.71a1.42 1.42 0 0 0-1.38-1.63 1.65 1.65 0 0 0-1.53 1.62zm2.49-.51v-1.71h.87v1.08a1.65 1.65 0 0 1 1.52-1.2 1.09 1.09 0 0 1 .28 0v.94a1.48 1.48 0 0 0-.34 0 1.4 1.4 0 0 0-1.3 1.31 2.77 2.77 0 0 0 0 .46v2.92h-1zm3.86 2.76a2.61 2.61 0 0 0 1.32.4c.73 0 1.07-.36 1.07-.82s-.28-.74-1-1c-1-.35-1.45-.9-1.45-1.55a1.69 1.69 0 0 1 1.89-1.61 2.74 2.74 0 0 1 1.35.34l-.25.73a2.14 2.14 0 0 0-1.12-.32c-.59 0-.92.34-.92.75s.33.66 1 .93c1 .36 1.44.84 1.44 1.65s-.75 1.64-2.05 1.64a3.13 3.13 0 0 1-1.54-.37zm6.02-6.01a.62.62 0 0 1-1.24 0 .61.61 0 0 1 .62-.62.59.59 0 0 1 .62.62zm-1.11 7v-5.49h1v5.49zm4.14-7.03v1.58h1.43v.76h-1.43v3c0 .68.19 1.07.75 1.07a2.21 2.21 0 0 0 .58-.07v.75a2.45 2.45 0 0 1-.88.14 1.38 1.38 0 0 1-1.08-.42 2 2 0 0 1-.39-1.43v-3H65v-.76h.85v-1.31zm3.3 1.57l1.2 3.24c.13.36.26.79.35 1.12.1-.33.22-.75.35-1.15l1.09-3.22h1.05l-1.5 3.91c-.71 1.88-1.2 2.85-1.88 3.44a2.7 2.7 0 0 1-1.22.65l-.22-.86a2.63 2.63 0 0 0 .87-.49 3 3 0 0 0 .84-1.11.71.71 0 0 0 .08-.24.87.87 0 0 0-.07-.26l-2-5.06zm12.92 2.7a2.68 2.68 0 0 1-2.73 2.91 2.61 2.61 0 0 1-2.63-2.82 2.68 2.68 0 0 1 2.72-2.91 2.6 2.6 0 0 1 2.64 2.82zm-4.35.06c0 1.2.69 2.11 1.67 2.11s1.67-.9 1.67-2.13c0-.93-.46-2.11-1.64-2.11s-1.71 1.08-1.71 2.13zm6 2.73v-4.73h-.77v-.76h.77v-.26a2.59 2.59 0 0 1 .63-1.92 1.91 1.91 0 0 1 1.34-.51 2.32 2.32 0 0 1 .85.16l-.14.77a1.49 1.49 0 0 0-.63-.12c-.85 0-1.07.75-1.07 1.59v.29H87v.76h-1.37v4.73zm7.48 0l-2.49-7.64h1.06l1.19 3.76c.33 1 .61 2 .82 2.86.22-.88.53-1.85.87-2.85l1.29-3.77H96l-2.73 7.64zm5.87-7.03a.62.62 0 0 1-1.24 0 .61.61 0 0 1 .62-.62.59.59 0 0 1 .62.62zm-1.11 7v-5.49h1v5.49zm2.9-3.75v-1.71h.87v1.08a1.65 1.65 0 0 1 1.52-1.2 1.09 1.09 0 0 1 .28 0v.94a1.48 1.48 0 0 0-.34 0 1.4 1.4 0 0 0-1.34 1.28 2.77 2.77 0 0 0 0 .46v2.92h-1zm8.63-1.71v4.7a3.15 3.15 0 0 1-.78 2.51 2.91 2.91 0 0 1-2 .66 3.54 3.54 0 0 1-1.83-.45l.25-.76a3.09 3.09 0 0 0 1.61.43c1 0 1.77-.53 1.77-1.92v-.61a2 2 0 0 1-1.75.92 2.45 2.45 0 0 1-2.34-2.68 2.63 2.63 0 0 1 2.47-2.91 1.83 1.83 0 0 1 1.71 1v-.83zm-1 2.17a1.42 1.42 0 0 0-.06-.45 1.44 1.44 0 0 0-1.39-1.05c-1 0-1.63.8-1.63 2.07 0 1.08.54 2 1.62 2a1.46 1.46 0 0 0 1.38-1 1.74 1.74 0 0 0 .08-.53zm3.94-3.71a.62.62 0 0 1-1.24 0 .61.61 0 0 1 .62-.62.59.59 0 0 1 .62.62zm-1.11 7v-5.49h1v5.49zm2.94-3.97v-1.49h.81l.06.91a2 2 0 0 1 1.81-1c.76 0 1.94.45 1.94 2.34v3.28h-1v-3.2c0-.88-.33-1.62-1.27-1.62a1.42 1.42 0 0 0-1.34 1 1.43 1.43 0 0 0-.07.46v3.3h-1zm7.69-3.03a.62.62 0 0 1-1.24 0 .61.61 0 0 1 .62-.62.59.59 0 0 1 .62.62zm-1.11 7v-5.49h1v5.49zm5.97.03l-.08-.69a2 2 0 0 1-1.68.82 1.56 1.56 0 0 1-1.68-1.58c0-1.33 1.18-2.05 3.3-2v-.11a1.13 1.13 0 0 0-1.25-1.27 2.73 2.73 0 0 0-1.43.41l-.23-.66a3.41 3.41 0 0 1 1.8-.49c1.68 0 2.09 1.15 2.09 2.24V232a7.74 7.74 0 0 0 .09 1.31zm-.15-2.8c-1.09 0-2.32.17-2.32 1.24a.88.88 0 0 0 .94 1 1.37 1.37 0 0 0 1.33-.92 1 1 0 0 0 .06-.32zM31.61 254.4c-.06-1.07-.12-2.35-.11-3.3-.26.9-.58 1.85-1 2.9l-1.35 3.71h-.75l-1.24-3.64c-.36-1.08-.67-2.06-.88-3 0 1-.08 2.23-.15 3.38l-.2 3.28H25l.53-7.64h1.26l1.3 3.7c.32.94.58 1.78.77 2.57.19-.77.46-1.61.8-2.57l1.36-3.7h1.26l.48 7.64h-1zm2.69 2.77a.67.67 0 0 1 .68-.71.72.72 0 1 1-.68.71zm5.59-6.95a9.54 9.54 0 0 1 1.8-.16 3.16 3.16 0 0 1 2.1.56 1.6 1.6 0 0 1 .63 1.35 1.81 1.81 0 0 1-1.29 1.68 2 2 0 0 1 1.58 1.92 2.06 2.06 0 0 1-.65 1.53 3.84 3.84 0 0 1-2.64.71 11.63 11.63 0 0 1-1.53-.09zm1 3.13h.9c1 0 1.66-.54 1.66-1.28 0-.9-.68-1.25-1.68-1.25a4.3 4.3 0 0 0-.87.07zm0 3.66a5.38 5.38 0 0 0 .83 0c1 0 2-.37 2-1.49s-.9-1.47-2-1.47h-.82zm9.99-.75v1.5H50l-.06-.9a2.07 2.07 0 0 1-1.81 1c-.86 0-1.89-.48-1.89-2.4v-3.21h1v3c0 1 .32 1.75 1.22 1.75a1.4 1.4 0 0 0 1.41-1.42v-3.37h1zm1.81.48a2.62 2.62 0 0 0 1.32.4c.73 0 1.07-.36 1.07-.82s-.28-.74-1-1c-1-.35-1.45-.9-1.45-1.55a1.69 1.69 0 0 1 1.89-1.61 2.75 2.75 0 0 1 1.35.34l-.25.73a2.14 2.14 0 0 0-1.12-.32c-.59 0-.92.34-.92.75s.33.66 1 .93c1 .36 1.44.84 1.44 1.65s-.75 1.64-2.05 1.64a3.13 3.13 0 0 1-1.54-.37zm6.02-6.01a.62.62 0 0 1-1.24 0 .61.61 0 0 1 .62-.62.59.59 0 0 1 .62.62zm-1.11 7v-5.49h1v5.49zm2.94-3.97v-1.49h.88l.06.91a2 2 0 0 1 1.81-1c.76 0 1.94.45 1.94 2.34v3.28h-1v-3.2c0-.88-.33-1.62-1.27-1.62a1.42 1.42 0 0 0-1.34 1 1.43 1.43 0 0 0-.07.46v3.3h-1zm7.14 1.44a1.76 1.76 0 0 0 1.88 1.9 3.6 3.6 0 0 0 1.52-.28l.17.71a4.46 4.46 0 0 1-1.83.34 2.55 2.55 0 0 1-2.7-2.77 2.66 2.66 0 0 1 2.57-3 2.32 2.32 0 0 1 2.27 2.58 3.77 3.77 0 0 1 0 .46zm2.92-.71a1.42 1.42 0 0 0-1.38-1.62 1.65 1.65 0 0 0-1.53 1.62zm2.4 2.25a2.62 2.62 0 0 0 1.32.4c.73 0 1.07-.36 1.07-.82s-.28-.74-1-1c-1-.35-1.45-.9-1.45-1.55a1.69 1.69 0 0 1 1.89-1.61 2.75 2.75 0 0 1 1.35.34l-.25.73a2.14 2.14 0 0 0-1.12-.32c-.59 0-.92.34-.92.75s.33.66 1 .93c1 .36 1.44.84 1.44 1.65s-.75 1.64-2.05 1.64a3.13 3.13 0 0 1-1.54-.37zm4.73 0a2.62 2.62 0 0 0 1.32.4c.73 0 1.07-.36 1.07-.82s-.28-.74-1-1c-1-.35-1.45-.9-1.45-1.55a1.69 1.69 0 0 1 1.89-1.61 2.75 2.75 0 0 1 1.35.34l-.25.73a2.14 2.14 0 0 0-1.12-.32c-.59 0-.92.34-.92.75s.33.66 1 .93c1 .36 1.44.84 1.44 1.65s-.75 1.64-2.05 1.64a3.13 3.13 0 0 1-1.54-.37zm8.87-1.38l-.79 2.4h-1l2.6-7.64h1.19l2.61 7.64h-1.09l-.82-2.4zm2.51-.77l-.75-2.2c-.17-.5-.28-1-.4-1.39-.11.45-.24.92-.39 1.38l-.75 2.21zm8.05-4.88v8.05h-.9v-1a2 2 0 0 1-1.87 1.08A2.5 2.5 0 0 1 92 255.1c0-1.83 1.12-2.95 2.46-2.95a1.83 1.83 0 0 1 1.66.84v-3.28zm-1 4.8a1.76 1.76 0 0 0 0-.42 1.47 1.47 0 0 0-1.44-1.16c-1 0-1.64.91-1.64 2.12s.54 2 1.62 2a1.5 1.5 0 0 0 1.46-1.19 1.72 1.72 0 0 0 0-.43zm2.94-.75v-1.49h.87v.88a1.89 1.89 0 0 1 1.72-1 1.62 1.62 0 0 1 1.55 1.1 2.26 2.26 0 0 1 .61-.71 1.87 1.87 0 0 1 1.21-.39c.73 0 1.8.48 1.8 2.38v3.23h-1v-3.11c0-1.05-.39-1.69-1.19-1.69a1.29 1.29 0 0 0-1.18.91 1.64 1.64 0 0 0-.08.5v3.39h-1v-3.29c0-.87-.39-1.51-1.15-1.51a1.49 1.49 0 0 0-1.31 1.49v3.31h-1zm10.9-3.03a.62.62 0 0 1-1.24 0 .61.61 0 0 1 .62-.62.59.59 0 0 1 .62.62zm-1.11 7v-5.49h1v5.49zm2.89-3.97v-1.49h.88l.06.91a2 2 0 0 1 1.81-1c.76 0 1.94.45 1.94 2.34v3.28h-1v-3.2c0-.88-.33-1.62-1.27-1.62a1.42 1.42 0 0 0-1.34 1 1.43 1.43 0 0 0-.07.46v3.3h-1zm7.69-3.03a.62.62 0 0 1-1.24 0 .61.61 0 0 1 .62-.62.59.59 0 0 1 .62.62zm-1.11 7v-5.49h1v5.49zm2.8-.99a2.62 2.62 0 0 0 1.32.4c.73 0 1.07-.36 1.07-.82s-.28-.74-1-1c-1-.35-1.45-.9-1.45-1.55a1.69 1.69 0 0 1 1.89-1.61 2.75 2.75 0 0 1 1.35.34l-.25.73a2.14 2.14 0 0 0-1.12-.32c-.59 0-.92.34-.92.75s.33.66 1 .93c1 .36 1.44.84 1.44 1.65s-.75 1.64-2.05 1.64a3.13 3.13 0 0 1-1.54-.37zm6.11-6.04v1.58h1.43v.72h-1.43v3c0 .68.19 1.07.75 1.07a2.21 2.21 0 0 0 .58-.07v.75a2.45 2.45 0 0 1-.88.14 1.38 1.38 0 0 1-1.08-.42 2 2 0 0 1-.39-1.43v-3h-.85v-.76h.85V251zm2.84 3.3v-1.71h.87v1.08a1.65 1.65 0 0 1 1.52-1.2 1.08 1.08 0 0 1 .28 0v.94a1.46 1.46 0 0 0-.34 0 1.4 1.4 0 0 0-1.34 1.28 2.77 2.77 0 0 0 0 .46v2.92h-1zm6.98 3.76l-.08-.69a2 2 0 0 1-1.68.82 1.56 1.56 0 0 1-1.68-1.58c0-1.33 1.18-2.05 3.3-2v-.11a1.13 1.13 0 0 0-1.25-1.27 2.73 2.73 0 0 0-1.43.41l-.23-.66a3.41 3.41 0 0 1 1.8-.49c1.68 0 2.09 1.15 2.09 2.25v2.05a7.74 7.74 0 0 0 .09 1.32zm-.15-2.8c-1.09 0-2.32.17-2.32 1.24a.88.88 0 0 0 .94 1 1.37 1.37 0 0 0 1.33-.92 1 1 0 0 0 .06-.32zm4.06-4.26v1.58h1.43v.72H141v3c0 .68.19 1.07.75 1.07a2.21 2.21 0 0 0 .58-.07v.75a2.45 2.45 0 0 1-.88.14 1.38 1.38 0 0 1-1.08-.42A2 2 0 0 1 140 256v-3h-.85v-.76h.85V251zm3.9.03a.62.62 0 0 1-1.24 0 .61.61 0 0 1 .62-.62.59.59 0 0 1 .62.62zm-1.11 7v-5.49h1v5.49zm7.91-2.73a2.68 2.68 0 0 1-2.73 2.91 2.61 2.61 0 0 1-2.63-2.82 2.68 2.68 0 0 1 2.72-2.91 2.6 2.6 0 0 1 2.64 2.82zm-4.35.06c0 1.2.69 2.11 1.67 2.11s1.67-.9 1.67-2.13c0-.93-.46-2.11-1.64-2.11s-1.71 1.07-1.71 2.07zm5.89-1.3v-1.49h.88l.06.91a2 2 0 0 1 1.81-1c.76 0 1.94.45 1.94 2.34v3.28h-1v-3.2c0-.88-.33-1.62-1.27-1.62a1.42 1.42 0 0 0-1.34 1 1.43 1.43 0 0 0-.07.46v3.3h-1zm-127.08 9.97v3.2h3.7v-3.2h1v7.64h-1v-3.58h-3.7v3.58h-1v-7.64zm9.69 7.64l-.08-.69a2 2 0 0 1-1.68.82 1.56 1.56 0 0 1-1.68-1.58c0-1.33 1.18-2.05 3.3-2v-.11a1.13 1.13 0 0 0-1.25-1.27 2.74 2.74 0 0 0-1.43.41l-.23-.66a3.41 3.41 0 0 1 1.8-.49c1.68 0 2.09 1.14 2.09 2.24v2.05a7.74 7.74 0 0 0 .09 1.31zm-.15-2.8c-1.09 0-2.32.17-2.32 1.24a.88.88 0 0 0 .94 1 1.37 1.37 0 0 0 1.33-.92 1.06 1.06 0 0 0 .06-.32zm2.87-.97v-1.71h.87v1.08a1.65 1.65 0 0 1 1.52-1.2 1.09 1.09 0 0 1 .28 0v.94a1.51 1.51 0 0 0-.34 0 1.4 1.4 0 0 0-1.3 1.29 2.78 2.78 0 0 0 0 .46v2.92h-1zm4.66-1.71l1.08 3.11a14 14 0 0 1 .44 1.41c.13-.45.28-.91.46-1.41l1.07-3.08h1l-2.15 5.49h-1l-2.09-5.49zm8.35 5.48l-.08-.69a2 2 0 0 1-1.68.82 1.56 1.56 0 0 1-1.68-1.58c0-1.33 1.18-2.05 3.3-2v-.11a1.13 1.13 0 0 0-1.25-1.27 2.74 2.74 0 0 0-1.43.41l-.23-.66a3.41 3.41 0 0 1 1.8-.49c1.68 0 2.09 1.14 2.09 2.24v2.05a7.74 7.74 0 0 0 .09 1.31zm-.15-2.8c-1.09 0-2.32.17-2.32 1.24a.88.88 0 0 0 .94 1 1.37 1.37 0 0 0 1.33-.92 1.06 1.06 0 0 0 .06-.32zm2.86-.97v-1.71h.87v1.08a1.65 1.65 0 0 1 1.52-1.2 1.09 1.09 0 0 1 .28 0v.94a1.51 1.51 0 0 0-.34 0 1.4 1.4 0 0 0-1.3 1.29 2.78 2.78 0 0 0 0 .46v2.92h-1zm8.62-4.28v8.1h-.9v-1a2 2 0 0 1-1.87 1.08 2.5 2.5 0 0 1-2.35-2.79c0-1.83 1.12-2.95 2.46-2.95a1.83 1.83 0 0 1 1.66.84v-3.28zm-1 4.79a1.75 1.75 0 0 0 0-.42 1.47 1.47 0 0 0-1.44-1.16c-1 0-1.64.91-1.64 2.12s.54 2 1.62 2a1.5 1.5 0 0 0 1.46-1.19 1.73 1.73 0 0 0 0-.43zm5.66-4.28a9.54 9.54 0 0 1 1.8-.16 3.16 3.16 0 0 1 2.1.56 1.6 1.6 0 0 1 .63 1.35 1.81 1.81 0 0 1-1.29 1.68 2 2 0 0 1 1.58 1.92 2.06 2.06 0 0 1-.65 1.53 3.84 3.84 0 0 1-2.64.71 11.59 11.59 0 0 1-1.53-.09zm1 3.13h.9c1 0 1.66-.54 1.66-1.28 0-.9-.68-1.25-1.68-1.25a4.21 4.21 0 0 0-.87.07zm0 3.66a5.26 5.26 0 0 0 .83 0c1 0 2-.37 2-1.48s-.9-1.47-2-1.47h-.82zm9.99-.74v1.5h-.88l-.06-.9a2.06 2.06 0 0 1-1.81 1c-.86 0-1.89-.48-1.89-2.4v-3.21h1v3c0 1 .32 1.75 1.22 1.75a1.44 1.44 0 0 0 1.32-.91 1.46 1.46 0 0 0 .09-.51v-3.37h1zm1.81.47a2.61 2.61 0 0 0 1.32.4c.73 0 1.07-.36 1.07-.82s-.28-.74-1-1c-1-.35-1.45-.9-1.45-1.55a1.69 1.69 0 0 1 1.89-1.61 2.74 2.74 0 0 1 1.35.34l-.25.73a2.14 2.14 0 0 0-1.12-.32c-.59 0-.92.34-.92.75s.33.66 1 .93c1 .36 1.44.84 1.44 1.66s-.75 1.64-2.05 1.64a3.13 3.13 0 0 1-1.54-.37zm6.02-6.01a.62.62 0 0 1-1.24 0 .61.61 0 0 1 .62-.62.59.59 0 0 1 .62.62zm-1.11 7v-5.49h1v5.49zm2.94-3.97v-1.49h.88l.06.91a2 2 0 0 1 1.81-1c.76 0 1.94.45 1.94 2.33v3.28h-1v-3.16c0-.88-.33-1.62-1.27-1.62a1.42 1.42 0 0 0-1.34 1 1.43 1.43 0 0 0-.07.46v3.3h-1zm7.14 1.44a1.76 1.76 0 0 0 1.88 1.9 3.61 3.61 0 0 0 1.52-.28l.17.71a4.44 4.44 0 0 1-1.83.34 2.55 2.55 0 0 1-2.7-2.77 2.66 2.66 0 0 1 2.57-3 2.32 2.32 0 0 1 2.27 2.58 3.79 3.79 0 0 1 0 .46zm2.92-.71a1.42 1.42 0 0 0-1.38-1.62 1.65 1.65 0 0 0-1.53 1.62zm2.35 2.25a2.61 2.61 0 0 0 1.32.4c.73 0 1.07-.36 1.07-.82s-.28-.74-1-1c-1-.35-1.45-.9-1.45-1.55a1.69 1.69 0 0 1 1.89-1.61 2.74 2.74 0 0 1 1.35.34l-.25.73a2.14 2.14 0 0 0-1.12-.32c-.59 0-.92.34-.92.75s.33.66 1 .93c1 .36 1.44.84 1.44 1.66s-.75 1.64-2.05 1.64a3.13 3.13 0 0 1-1.54-.37zm4.78 0a2.61 2.61 0 0 0 1.32.4c.73 0 1.07-.36 1.07-.82s-.28-.74-1-1c-1-.35-1.45-.9-1.45-1.55a1.69 1.69 0 0 1 1.89-1.61 2.74 2.74 0 0 1 1.35.34l-.25.73a2.14 2.14 0 0 0-1.12-.32c-.59 0-.92.34-.92.75s.33.66 1 .93c1 .36 1.44.84 1.44 1.66s-.75 1.64-2.05 1.64a3.13 3.13 0 0 1-1.54-.37zm7.49-.18a3.5 3.5 0 0 0 1.77.5c1 0 1.6-.53 1.6-1.3s-.41-1.12-1.44-1.52c-1.25-.44-2-1.09-2-2.17a2.2 2.2 0 0 1 2.47-2.07 3.48 3.48 0 0 1 1.7.39l-.27.8a3 3 0 0 0-1.45-.36c-1 0-1.44.62-1.44 1.14 0 .71.46 1.07 1.52 1.47 1.29.5 1.95 1.12 1.95 2.25s-.87 2.2-2.68 2.2a4 4 0 0 1-2-.49zm9.96 1a3.66 3.66 0 0 1-1.58.32 2.61 2.61 0 0 1-2.73-2.8 2.79 2.79 0 0 1 2.95-2.91 3.34 3.34 0 0 1 1.38.28l-.23.77a2.32 2.32 0 0 0-1.16-.26 2.07 2.07 0 0 0 0 4.13 2.83 2.83 0 0 0 1.22-.27zm1.46-7.85h1v3.42a1.85 1.85 0 0 1 .71-.7 2.06 2.06 0 0 1 1-.28c.74 0 1.92.45 1.92 2.35v3.26h-1v-3.15c0-.88-.33-1.63-1.27-1.63a1.43 1.43 0 0 0-1.34 1 1.2 1.2 0 0 0-.07.48v3.31h-1zm11.54 5.26a2.68 2.68 0 0 1-2.73 2.91 2.61 2.61 0 0 1-2.63-2.82 2.68 2.68 0 0 1 2.72-2.91 2.6 2.6 0 0 1 2.64 2.82zm-4.35.06c0 1.2.69 2.11 1.67 2.11s1.67-.9 1.67-2.13c0-.93-.46-2.11-1.64-2.11s-1.7 1.09-1.7 2.13zm10.86-.06a2.68 2.68 0 0 1-2.73 2.91 2.61 2.61 0 0 1-2.63-2.82 2.68 2.68 0 0 1 2.72-2.91 2.6 2.6 0 0 1 2.64 2.82zm-4.35.06c0 1.2.69 2.11 1.67 2.11s1.67-.9 1.67-2.13c0-.93-.46-2.11-1.64-2.11s-1.72 1.09-1.72 2.13zm5.9-5.32h1v8h-1z"/><path class="cls-3" d="M29.07 306.14a2.3 2.3 0 0 1-2.28 2.59 2.25 2.25 0 0 1-2.21-2.49 2.34 2.34 0 0 1 2.28-2.58 2.24 2.24 0 0 1 2.21 2.48zm-3.81.08c0 1.05.57 2 1.57 2s1.58-.93 1.58-2-.51-2-1.57-2-1.59.92-1.59 2zm5.36-2.42a6.55 6.55 0 0 1 1.22-.1 2 2 0 0 1 1.42.4 1.22 1.22 0 0 1 .39.93 1.29 1.29 0 0 1-.93 1.25 1.22 1.22 0 0 1 .72 1 7.83 7.83 0 0 0 .38 1.35h-.66a6.39 6.39 0 0 1-.33-1.17c-.15-.68-.41-.93-1-1h-.6v2.13h-.63zm.63 2.24h.65c.68 0 1.11-.37 1.11-.93s-.46-.91-1.13-.92a2.6 2.6 0 0 0-.63.06zm7.75 2.39a4.56 4.56 0 0 1-1.51.27 2.31 2.31 0 0 1-2.49-2.48 2.47 2.47 0 0 1 2.66-2.54 3 3 0 0 1 1.23.23l-.15.52a2.54 2.54 0 0 0-1.09-.21 1.84 1.84 0 0 0-2 2 1.8 1.8 0 0 0 1.9 2 2.06 2.06 0 0 0 .85-.13v-1.47h-1v-.51H39zm2.53-1.32l-.53 1.54h-.66l1.66-4.91h.77l1.68 4.92h-.65l-.52-1.55zm1.61-.5l-.48-1.42c-.11-.32-.18-.61-.26-.9-.07.29-.15.59-.25.89l-.48 1.42zm2.78 2.04v-4.92h.69l1.58 2.49a13.85 13.85 0 0 1 .88 1.6c-.06-.66-.07-1.25-.07-2v-2.06h.6v4.92H49l-1.56-2.49a15.45 15.45 0 0 1-.92-1.64c0 .62.05 1.21.05 2v2.1zm6.17-4.91v4.92h-.63v-4.92zm1.5 4.54l2.73-4h-2.5v-.53h3.32v.39l-2.71 4h2.75v.53h-3.59zm5.89-1.17l-.48 1.54h-.66l1.66-4.91h.77l1.68 4.92h-.68l-.52-1.55zm1.61-.5l-.48-1.42c-.11-.32-.18-.61-.26-.9-.07.29-.15.59-.25.89l-.48 1.42zm3.16-2.33h-1.5v-.54h3.65v.54h-1.5v4.38h-.64zm4.06-.54v4.92h-.63v-4.92zm6.03 2.4a2.3 2.3 0 0 1-2.28 2.59 2.25 2.25 0 0 1-2.21-2.49 2.34 2.34 0 0 1 2.28-2.58 2.24 2.24 0 0 1 2.21 2.48zm-3.81.08c0 1.05.57 2 1.57 2s1.58-.93 1.58-2-.51-2-1.57-2-1.58.92-1.58 2zm5.37 2.43v-4.92h.69l1.58 2.49a13.85 13.85 0 0 1 .88 1.6c-.06-.66-.07-1.25-.07-2v-2.06h.6v4.92h-.64l-1.56-2.49a15.45 15.45 0 0 1-.92-1.64c0 .62.05 1.21.05 2v2.1zm5.44-.77a2.25 2.25 0 0 0 1.14.32c.65 0 1-.34 1-.84s-.26-.72-.93-1-1.3-.7-1.3-1.39a1.42 1.42 0 0 1 1.59-1.33 2.23 2.23 0 0 1 1.09.24l-.18.52a2 2 0 0 0-.93-.23c-.67 0-.93.4-.93.74s.3.69 1 .95c.83.32 1.25.72 1.25 1.44s-.56 1.42-1.72 1.42a2.54 2.54 0 0 1-1.25-.31z"/><path class="cls-4" d="M25.17 324.06h4.12v.83h-3.13v2.54H29v.82h-2.84v3.46h-1zm6.59.61a.62.62 0 0 1-1.24 0 .61.61 0 0 1 .62-.62.59.59 0 0 1 .62.62zm-1.11 7v-5.49h1v5.49zm2.94-8.02h1v8h-1zm2.96 4.05v-1.49h.87v.88a1.89 1.89 0 0 1 1.72-1 1.62 1.62 0 0 1 1.55 1.1 2.26 2.26 0 0 1 .61-.71 1.87 1.87 0 0 1 1.21-.39c.73 0 1.8.48 1.8 2.38v3.23h-1v-3.1c0-1.05-.39-1.69-1.19-1.69a1.29 1.29 0 0 0-1.18.91 1.64 1.64 0 0 0-.08.5v3.39H40v-3.29c0-.87-.39-1.51-1.15-1.51a1.49 1.49 0 0 0-1.31 1.49v3.31h-1zm12.33 2.8a3.49 3.49 0 0 0 1.77.5c1 0 1.6-.53 1.6-1.3s-.41-1.12-1.44-1.52c-1.25-.44-2-1.09-2-2.17a2.2 2.2 0 0 1 2.47-2.08 3.48 3.48 0 0 1 1.69.37l-.27.81a3 3 0 0 0-1.45-.36c-1 0-1.44.62-1.44 1.15 0 .71.46 1.07 1.52 1.47 1.29.5 1.95 1.12 1.95 2.25s-.87 2.2-2.68 2.2a4 4 0 0 1-2-.49zm11.01-1.59a2.68 2.68 0 0 1-2.73 2.91 2.61 2.61 0 0 1-2.63-2.82 2.68 2.68 0 0 1 2.72-2.91 2.6 2.6 0 0 1 2.64 2.82zm-4.35.06c0 1.2.69 2.11 1.67 2.11s1.67-.9 1.67-2.13c0-.93-.46-2.11-1.64-2.11s-1.7 1.09-1.7 2.16zm9.81 2.53a3.68 3.68 0 0 1-1.58.32A2.61 2.61 0 0 1 61 329a2.79 2.79 0 0 1 3-2.9 3.34 3.34 0 0 1 1.38.28l-.23.77a2.32 2.32 0 0 0-1.15-.25 2.07 2.07 0 0 0 0 4.1 2.84 2.84 0 0 0 1.22-.27zm2.56-6.83a.62.62 0 0 1-1.24 0 .61.61 0 0 1 .62-.62.59.59 0 0 1 .62.62zm-1.11 7v-5.49h1v5.49zm3.5-2.53a1.76 1.76 0 0 0 1.88 1.9 3.6 3.6 0 0 0 1.52-.28l.17.71a4.46 4.46 0 0 1-1.83.34 2.55 2.55 0 0 1-2.7-2.77 2.66 2.66 0 0 1 2.57-3 2.32 2.32 0 0 1 2.27 2.58 3.77 3.77 0 0 1 0 .46zm2.92-.71a1.42 1.42 0 0 0-1.38-1.62 1.65 1.65 0 0 0-1.53 1.62zm3.69-3.79v1.58h1.43v.78h-1.43v3c0 .68.19 1.07.75 1.07a2.21 2.21 0 0 0 .58-.07v.75a2.45 2.45 0 0 1-.88.14 1.38 1.38 0 0 1-1.08-.42 2 2 0 0 1-.39-1.43v-3h-.85v-.76h.85v-1.38zm3.3 1.58l1.2 3.24c.13.36.26.79.35 1.12.1-.33.22-.75.35-1.14l1.09-3.22h1.05l-1.5 3.91c-.71 1.88-1.2 2.85-1.88 3.44a2.7 2.7 0 0 1-1.22.65l-.25-.84a2.62 2.62 0 0 0 .87-.49 3 3 0 0 0 .84-1.11.71.71 0 0 0 .08-.24.86.86 0 0 0-.07-.26l-2-5.06zM25 349.95a3.5 3.5 0 0 0 1.77.5c1 0 1.6-.53 1.6-1.3S28 348 27 347.62c-1.25-.44-2-1.09-2-2.17a2.2 2.2 0 0 1 2.47-2.07 3.48 3.48 0 0 1 1.69.37l-.27.8a3 3 0 0 0-1.45-.36c-1 0-1.44.62-1.44 1.14 0 .71.46 1.07 1.52 1.47 1.29.5 1.95 1.12 1.95 2.25s-.87 2.2-2.68 2.2a4 4 0 0 1-2-.49zm7.18-5.86v1.58h1.43v.76h-1.43v3c0 .68.19 1.07.75 1.07a2.22 2.22 0 0 0 .58-.07v.75a2.45 2.45 0 0 1-.88.14 1.38 1.38 0 0 1-1.08-.42 2 2 0 0 1-.39-1.43v-3h-.85v-.76h.85v-1.31zm7.43 5.56v1.5h-.88l-.06-.9a2.06 2.06 0 0 1-1.81 1c-.86 0-1.89-.48-1.89-2.4v-3.21h1v3c0 1 .32 1.75 1.22 1.75a1.44 1.44 0 0 0 1.32-.91 1.46 1.46 0 0 0 .09-.51v-3.37h1zm6.68-6.55v8.05h-.9v-1a2 2 0 0 1-1.87 1.08 2.5 2.5 0 0 1-2.35-2.79c0-1.83 1.12-2.95 2.46-2.95a1.83 1.83 0 0 1 1.66.84v-3.23zm-1 4.79a1.75 1.75 0 0 0 0-.42 1.47 1.47 0 0 0-1.44-1.16c-1 0-1.64.91-1.64 2.12s.54 2 1.62 2a1.5 1.5 0 0 0 1.46-1.19 1.73 1.73 0 0 0 0-.43zm3.5.7a1.76 1.76 0 0 0 1.88 1.9 3.61 3.61 0 0 0 1.52-.28l.17.71a4.44 4.44 0 0 1-1.83.34 2.55 2.55 0 0 1-2.7-2.77 2.66 2.66 0 0 1 2.57-3 2.32 2.32 0 0 1 2.27 2.58 3.79 3.79 0 0 1 0 .46zm2.92-.71a1.42 1.42 0 0 0-1.38-1.62 1.65 1.65 0 0 0-1.53 1.62zm2.49-.73v-1.49h.8l.06.91a2 2 0 0 1 1.81-1c.76 0 1.94.45 1.94 2.33v3.28h-1V348c0-.88-.33-1.62-1.27-1.62a1.42 1.42 0 0 0-1.34 1 1.43 1.43 0 0 0-.07.46v3.3h-1zm7.74-3.06v1.58h1.43v.76h-1.43v3c0 .68.19 1.07.75 1.07a2.22 2.22 0 0 0 .58-.07v.75a2.45 2.45 0 0 1-.88.14 1.38 1.38 0 0 1-1.08-.42 2 2 0 0 1-.39-1.43v-3h-.85v-.76H61v-1.31zm10.9 6.81a4.89 4.89 0 0 1-2 .36A3.57 3.57 0 0 1 67 347.4a3.8 3.8 0 0 1 4-4 4.1 4.1 0 0 1 1.81.34l-.24.8a3.6 3.6 0 0 0-1.54-.32 2.84 2.84 0 0 0-3 3.15 2.78 2.78 0 0 0 2.97 3.07 4 4 0 0 0 1.61-.32zm6.32-2.54a2.68 2.68 0 0 1-2.73 2.91 2.61 2.61 0 0 1-2.63-2.82 2.68 2.68 0 0 1 2.72-2.91 2.6 2.6 0 0 1 2.64 2.82zm-4.35.06c0 1.2.69 2.11 1.67 2.11s1.67-.9 1.67-2.13c0-.93-.46-2.11-1.64-2.11s-1.7 1.08-1.7 2.13zm10.49 1.23v1.5h-.88l-.06-.9a2.06 2.06 0 0 1-1.81 1c-.86 0-1.89-.48-1.89-2.4v-3.21h1v3c0 1 .32 1.75 1.22 1.75a1.44 1.44 0 0 0 1.32-.91 1.46 1.46 0 0 0 .09-.51v-3.37h1zm1.94-2.5v-1.49h.88l.06.91a2 2 0 0 1 1.81-1c.76 0 1.94.45 1.94 2.33v3.28h-1V348c0-.88-.33-1.62-1.27-1.62a1.42 1.42 0 0 0-1.34 1 1.43 1.43 0 0 0-.07.46v3.3h-1zm10.5 3.79a3.66 3.66 0 0 1-1.58.32 2.61 2.61 0 0 1-2.73-2.8 2.79 2.79 0 0 1 2.95-2.91 3.34 3.34 0 0 1 1.38.28l-.23.77a2.32 2.32 0 0 0-1.16-.26 2.07 2.07 0 0 0 0 4.13 2.83 2.83 0 0 0 1.22-.27zm2.56-6.82a.62.62 0 0 1-1.24 0 .61.61 0 0 1 .62-.62.59.59 0 0 1 .62.62zm-1.11 7v-5.49h1v5.49zm2.94-8.02h1v8h-1zm-76.96 19.96a14.1 14.1 0 0 1 2.1-.16 4.38 4.38 0 0 1 3.1 1 3.52 3.52 0 0 1 1.08 2.74 4 4 0 0 1-1.1 3 4.7 4.7 0 0 1-3.38 1.1 16 16 0 0 1-1.79-.09zm1 6.76a6.27 6.27 0 0 0 1 .06 2.94 2.94 0 0 0 3.25-3.24c0-1.8-1-2.95-3.1-2.95a5.53 5.53 0 0 0-1.16.1zm7.41-1.82a1.76 1.76 0 0 0 1.88 1.9 3.6 3.6 0 0 0 1.52-.28l.17.71a4.46 4.46 0 0 1-1.83.34 2.55 2.55 0 0 1-2.7-2.77 2.66 2.66 0 0 1 2.57-3 2.32 2.32 0 0 1 2.27 2.58 3.77 3.77 0 0 1 0 .46zm2.92-.71a1.42 1.42 0 0 0-1.38-1.62 1.65 1.65 0 0 0-1.53 1.62zm2.5-4.74h1v8h-1zm4.15.98v1.58h1.43v.76h-1.43v3c0 .68.19 1.07.75 1.07a2.21 2.21 0 0 0 .58-.07v.75a2.45 2.45 0 0 1-.88.14 1.38 1.38 0 0 1-1.08-.42 2 2 0 0 1-.39-1.43v-3h-.85v-.76h.85v-1.32zM49 370.6l-.08-.69a2 2 0 0 1-1.68.82 1.56 1.56 0 0 1-1.68-1.58c0-1.33 1.18-2.05 3.3-2V367a1.13 1.13 0 0 0-1.25-1.27 2.73 2.73 0 0 0-1.43.41l-.23-.66a3.41 3.41 0 0 1 1.8-.49c1.68 0 2.09 1.15 2.09 2.25v2.05a7.74 7.74 0 0 0 .09 1.32zm-.15-2.8c-1.09 0-2.32.17-2.32 1.24a.88.88 0 0 0 .94 1 1.37 1.37 0 0 0 1.33-.92 1 1 0 0 0 .06-.32zm9.57-.8h-3v2.75h3.31v.83h-4.3V363h4.13v.83h-3.11v2.41h3zm1.87-.1v-1.79h.9v.94a2.16 2.16 0 0 1 1.97-1.05c1.33 0 2.32 1.12 2.32 2.79 0 2-1.2 2.95-2.49 2.95a1.93 1.93 0 0 1-1.69-.86v3h-1zm1 1.46a2.23 2.23 0 0 0 0 .41 1.54 1.54 0 0 0 1.5 1.17c1.05 0 1.67-.86 1.67-2.12 0-1.1-.58-2-1.63-2a1.59 1.59 0 0 0-1.48 1.18 1.64 1.64 0 0 0-.07.41zm5.6 1.22a2.62 2.62 0 0 0 1.32.4c.73 0 1.07-.36 1.07-.82s-.28-.74-1-1c-1-.35-1.45-.9-1.45-1.55A1.69 1.69 0 0 1 68.7 365a2.75 2.75 0 0 1 1.35.34l-.25.73a2.14 2.14 0 0 0-1.12-.32c-.59 0-.92.34-.92.75s.33.66 1 .93c1 .36 1.44.84 1.44 1.65s-.75 1.64-2.05 1.64a3.13 3.13 0 0 1-1.54-.37zm6.03-6.01a.62.62 0 0 1-1.24 0 .61.61 0 0 1 .62-.62.59.59 0 0 1 .62.62zm-1.11 7v-5.49h1v5.49zm2.93-8.02h1v8h-1zm7.93 5.26a2.68 2.68 0 0 1-2.73 2.91 2.61 2.61 0 0 1-2.63-2.82A2.68 2.68 0 0 1 80 365a2.6 2.6 0 0 1 2.67 2.81zm-4.35.06c0 1.2.69 2.11 1.67 2.11s1.67-.9 1.67-2.13c0-.93-.46-2.11-1.64-2.11s-1.7 1.08-1.7 2.12zm5.9-1.28v-1.49h.88l.06.91a2 2 0 0 1 1.81-1c.76 0 1.94.45 1.94 2.34v3.28h-1v-3.16c0-.88-.33-1.62-1.27-1.62a1.42 1.42 0 0 0-1.34 1 1.43 1.43 0 0 0-.07.46v3.3h-1z"/><path class="cls-3" d="M27.93 403.11v2.06h2.38v-2.06h.64V408h-.64v-2.3h-2.38v2.3h-.63v-4.92zm9.07 2.4a2.3 2.3 0 0 1-2.28 2.59 2.25 2.25 0 0 1-2.21-2.49 2.34 2.34 0 0 1 2.26-2.61 2.24 2.24 0 0 1 2.23 2.51zm-3.81.08c0 1.05.57 2 1.57 2s1.58-.93 1.58-2-.51-2-1.57-2-1.6.92-1.6 2zm9.49.27c0-.69-.08-1.51-.07-2.12-.17.58-.37 1.19-.62 1.87l-.9 2.39h-.48l-.79-2.34c-.23-.69-.43-1.33-.57-1.91 0 .61-.05 1.44-.09 2.17L39 408h-.6l.34-4.92h.81l.84 2.38c.2.61.37 1.15.5 1.66.12-.5.3-1 .52-1.66l.88-2.38h.81l.31 4.92h-.61zm4.99-.14h-1.91v1.77h2.13v.51h-2.77v-4.92h2.66v.53h-2v1.55h1.91zm2.82-2.07H49v-.54h3.64v.54h-1.5V408h-.64zm7.43 1.86a2.3 2.3 0 0 1-2.28 2.59 2.25 2.25 0 0 1-2.21-2.49 2.34 2.34 0 0 1 2.28-2.61 2.24 2.24 0 0 1 2.21 2.51zm-3.81.08c0 1.05.57 2 1.57 2s1.58-.93 1.58-2-.51-2-1.57-2-1.59.92-1.59 2zm6.16 2.41L59 403.11h.67l.58 2.49c.15.61.28 1.23.36 1.7.08-.49.23-1.07.4-1.71l.66-2.48h.66l.6 2.5c.14.58.27 1.17.34 1.68.1-.54.24-1.09.39-1.7l.65-2.48H65L63.63 408H63l-.62-2.56a14.91 14.91 0 0 1-.32-1.6 15.41 15.41 0 0 1-.38 1.6l-.7 2.56zm6.1 0v-4.92h.69l1.58 2.49a13.85 13.85 0 0 1 .88 1.6c-.06-.66-.07-1.25-.07-2v-2.06h.6V408h-.64l-1.56-2.49a15.45 15.45 0 0 1-.92-1.64c0 .62.05 1.21.05 2V408z"/><path class="cls-4" d="M27.6 423.36a14.1 14.1 0 0 1 2.1-.16 4.38 4.38 0 0 1 3.1 1 3.52 3.52 0 0 1 1.08 2.74 4 4 0 0 1-1.1 3 4.7 4.7 0 0 1-3.38 1.1 16 16 0 0 1-1.79-.09zm1 6.76a6.27 6.27 0 0 0 1 .06 2.94 2.94 0 0 0 3.25-3.24c0-1.8-1-2.95-3.1-2.95a5.53 5.53 0 0 0-1.16.1zm7.4-1.79a1.76 1.76 0 0 0 1.88 1.9 3.6 3.6 0 0 0 1.52-.28l.17.71a4.46 4.46 0 0 1-1.83.34 2.55 2.55 0 0 1-2.7-2.77 2.66 2.66 0 0 1 2.57-3 2.32 2.32 0 0 1 2.27 2.58 3.77 3.77 0 0 1 0 .46zm2.92-.71a1.42 1.42 0 0 0-1.37-1.62 1.65 1.65 0 0 0-1.55 1.62zm2.5-.73v-1.49h.88l.06.91a2 2 0 0 1 1.81-1c.76 0 1.94.45 1.94 2.34v3.28h-1v-3.16c0-.88-.33-1.62-1.27-1.62a1.42 1.42 0 0 0-1.34 1 1.43 1.43 0 0 0-.07.46v3.3h-1zm6.81-1.48l1.08 3.08a14 14 0 0 1 .44 1.41c.13-.45.28-.91.46-1.41l1.07-3.08h1l-2.15 5.49h-1l-2.09-5.49zm5.77 2.92a1.76 1.76 0 0 0 1.88 1.9 3.6 3.6 0 0 0 1.52-.28l.17.71a4.46 4.46 0 0 1-1.83.34 2.55 2.55 0 0 1-2.7-2.77 2.66 2.66 0 0 1 2.57-3 2.32 2.32 0 0 1 2.27 2.58 3.77 3.77 0 0 1 0 .46zm2.92-.71a1.42 1.42 0 0 0-1.35-1.62 1.65 1.65 0 0 0-1.57 1.62zm2.52-.5v-1.71h.87v1.08a1.65 1.65 0 0 1 1.52-1.2 1.09 1.09 0 0 1 .28 0v.94a1.46 1.46 0 0 0-.34 0 1.4 1.4 0 0 0-1.34 1.28 2.77 2.77 0 0 0 0 .46v2.92h-1zm2.75 5.17a16.32 16.32 0 0 0 .68-2.71l1.11-.11a13.83 13.83 0 0 1-1.08 2.75zm11.34-1.65a4.89 4.89 0 0 1-2 .36 3.57 3.57 0 0 1-3.78-3.87 3.8 3.8 0 0 1 4-4 4.08 4.08 0 0 1 1.81.34l-.24.8a3.59 3.59 0 0 0-1.54-.32 2.84 2.84 0 0 0-3 3.15 2.78 2.78 0 0 0 2.94 3.07 3.94 3.94 0 0 0 1.61-.32zm6.33-2.53a2.68 2.68 0 0 1-2.73 2.89 2.61 2.61 0 0 1-2.63-2.82 2.68 2.68 0 0 1 2.72-2.91 2.6 2.6 0 0 1 2.64 2.84zm-4.35.06c0 1.2.69 2.11 1.67 2.11s1.67-.9 1.67-2.13c0-.93-.46-2.11-1.64-2.11s-1.7 1.08-1.7 2.12zm5.9-5.33h1v8h-1zm7.92 5.27A2.68 2.68 0 0 1 86.6 431a2.61 2.61 0 0 1-2.6-2.8 2.68 2.68 0 0 1 2.72-2.91 2.6 2.6 0 0 1 2.61 2.82zm-4.35.06c0 1.2.69 2.11 1.67 2.11s1.67-.9 1.67-2.13c0-.93-.46-2.11-1.64-2.11S85 427.12 85 428.16zm5.9-1.05v-1.71h.87v1.08a1.65 1.65 0 0 1 1.52-1.2 1.08 1.08 0 0 1 .28 0v.94a1.46 1.46 0 0 0-.34 0 1.4 1.4 0 0 0-1.34 1.28 2.77 2.77 0 0 0 0 .46v2.92h-1zm6.97 3.77l-.08-.69a2 2 0 0 1-1.68.82 1.56 1.56 0 0 1-1.68-1.58c0-1.33 1.18-2.05 3.3-2v-.11a1.13 1.13 0 0 0-1.27-1.33 2.73 2.73 0 0 0-1.43.41l-.23-.66a3.41 3.41 0 0 1 1.8-.49c1.68 0 2.09 1.15 2.09 2.25v2.05a7.74 7.74 0 0 0 .09 1.32zm-.15-2.8c-1.09 0-2.32.17-2.32 1.24a.88.88 0 0 0 .94 1 1.37 1.37 0 0 0 1.33-.92 1 1 0 0 0 .06-.32zm7.6-5.25v8.05h-.9v-1a2 2 0 0 1-1.87 1.08 2.5 2.5 0 0 1-2.35-2.79c0-1.83 1.12-2.95 2.46-2.95a1.83 1.83 0 0 1 1.66.84v-3.28zm-1 4.8a1.76 1.76 0 0 0 0-.42 1.47 1.47 0 0 0-1.44-1.16c-1 0-1.64.91-1.64 2.12s.54 2 1.62 2a1.5 1.5 0 0 0 1.46-1.19 1.72 1.72 0 0 0 0-.43zm7.91.47a2.68 2.68 0 0 1-2.73 2.91 2.61 2.61 0 0 1-2.63-2.82 2.68 2.68 0 0 1 2.72-2.91 2.6 2.6 0 0 1 2.64 2.82zm-4.35.06c0 1.2.69 2.11 1.67 2.11s1.67-.9 1.67-2.13c0-.93-.46-2.11-1.64-2.11s-1.7 1.08-1.7 2.12z"/><path class="cls-3" d="M27.93 463.58v4.92h-.63v-4.92zm1.84 4.92v-4.92h.69l1.54 2.49a13.85 13.85 0 0 1 .88 1.6c-.06-.66-.07-1.25-.07-2v-2.06h.6v4.92h-.64L31.25 466a15.53 15.53 0 0 1-.92-1.64c0 .62.05 1.21.05 2v2.1zm6.46-4.38h-1.5v-.54h3.64v.54h-1.5v4.38h-.64zm5.96 2.07h-1.91V468h2.13v.53h-2.76v-4.92h2.65v.53h-2v1.55h1.91zm1.81-2.54a6.54 6.54 0 0 1 1.22-.1 2 2 0 0 1 1.42.4 1.22 1.22 0 0 1 .39.93 1.29 1.29 0 0 1-.93 1.25 1.22 1.22 0 0 1 .72 1 7.83 7.83 0 0 0 .38 1.35h-.66a6.39 6.39 0 0 1-.33-1.17c-.15-.68-.41-.93-1-1h-.6v2.13H44zm.63 2.24h.65c.68 0 1.11-.37 1.11-.93s-.46-.91-1.13-.92a2.6 2.6 0 0 0-.63.06zm6.53.3h-1.91V468h2.13v.53h-2.76v-4.92h2.66v.53h-2v1.55h1.91zm1.69 1.53A2.25 2.25 0 0 0 54 468c.65 0 1-.34 1-.84s-.26-.72-.93-1-1.3-.7-1.3-1.39a1.42 1.42 0 0 1 1.59-1.33 2.23 2.23 0 0 1 1.09.24l-.18.52a2 2 0 0 0-.93-.23c-.67 0-.93.4-.93.74s.3.69 1 .95c.83.32 1.25.72 1.25 1.44s-.56 1.42-1.72 1.42a2.54 2.54 0 0 1-1.25-.31zm5.34-3.6H56.7v-.54h3.64v.54h-1.5v4.38h-.64zm3.29 3.6a2.25 2.25 0 0 0 1.14.32c.65 0 1-.34 1-.84s-.26-.72-.93-1-1.3-.7-1.3-1.39A1.42 1.42 0 0 1 63 463.5a2.23 2.23 0 0 1 1.09.24l-.18.52A2 2 0 0 0 63 464c-.67 0-.93.4-.93.74s.3.69 1 .95c.83.32 1.25.72 1.25 1.44s-.56 1.42-1.72 1.42a2.54 2.54 0 0 1-1.25-.31z"/><path class="cls-1" d="M26.69 62.78v4.12h4.76v-4.12h1.28v9.83h-1.29V68h-4.75v4.61h-1.27v-9.83zm9.77.79a.8.8 0 0 1-1.59 0 .78.78 0 0 1 .8-.8.76.76 0 0 1 .79.8zm-1.43 9v-7.01h1.28v7.06zm2.58 1.84a21 21 0 0 0 .88-3.49l1.43-.15a17.77 17.77 0 0 1-1.39 3.54zm8.26-11.63v9.83H44.6v-9.83zm3.71-.16a16.84 16.84 0 0 1-1.37 3.46l-.82.1a20.63 20.63 0 0 0 .86-3.43zm.84 4.85c0-.73 0-1.33-.06-1.91h1.12l.06 1.14a2.43 2.43 0 0 1 2.22-1.3 2.09 2.09 0 0 1 2 1.42 2.9 2.9 0 0 1 .79-.92 2.41 2.41 0 0 1 1.56-.5c.93 0 2.32.61 2.32 3.06v4.16h-1.19v-4c0-1.36-.5-2.17-1.53-2.17a1.66 1.66 0 0 0-1.52 1.17 2.12 2.12 0 0 0-.1.64v4.36h-1.25v-4.23c0-1.12-.5-1.94-1.47-1.94a1.91 1.91 0 0 0-1.69 1.91v4.26h-1.26zm15.3-4.55a13.21 13.21 0 0 1 2.44-.2 4 4 0 0 1 2.84.8 2.45 2.45 0 0 1 .77 1.87 2.58 2.58 0 0 1-1.85 2.51 2.45 2.45 0 0 1 1.44 2 15.6 15.6 0 0 0 .76 2.7h-1.31a12.7 12.7 0 0 1-.66-2.35c-.29-1.36-.82-1.87-2-1.91H67v4.26h-1.28zM67 67.39h1.3c1.36 0 2.22-.74 2.22-1.87s-.92-1.82-2.26-1.84a5.2 5.2 0 0 0-1.25.12zM80 69a3.45 3.45 0 0 1-3.52 3.75 3.36 3.36 0 0 1-3.38-3.63 3.45 3.45 0 0 1 3.5-3.75A3.34 3.34 0 0 1 80 69zm-5.6.07c0 1.55.89 2.71 2.14 2.71s2.14-1.15 2.14-2.74c0-1.2-.6-2.71-2.11-2.71s-2.21 1.43-2.21 2.77zm7.12 3.55c0-.48.06-1.2.06-1.82v-8.54h1.27v4.43a2.63 2.63 0 0 1 2.41-1.3c1.75 0 3 1.46 3 3.6 0 2.52-1.59 3.78-3.17 3.78a2.52 2.52 0 0 1-2.36-1.33l-.06 1.17zm1.33-2.83a2.43 2.43 0 0 0 .06.47 2 2 0 0 0 1.93 1.5c1.34 0 2.16-1.1 2.16-2.76 0-1.42-.73-2.63-2.1-2.63a2 2 0 0 0-2 1.58 2.55 2.55 0 0 0-.07.52zm6.38 2.07a.86.86 0 0 1 .88-.92.92.92 0 1 1-.88.92zM97 62.78v9.83h-1.31v-9.83zm10.25 9.57a4.72 4.72 0 0 1-2 .41 3.35 3.35 0 0 1-3.52-3.6 3.59 3.59 0 0 1 3.79-3.75 4.28 4.28 0 0 1 1.78.36l-.29 1a3 3 0 0 0-1.49-.34 2.66 2.66 0 0 0 0 5.31 3.64 3.64 0 0 0 1.58-.35zm5.41.27l-.1-.89a2.63 2.63 0 0 1-2.16 1.05 2 2 0 0 1-2.16-2c0-1.71 1.52-2.64 4.24-2.63V68a1.46 1.46 0 0 0-1.6-1.63 3.52 3.52 0 0 0-1.84.52l-.29-.85a4.39 4.39 0 0 1 2.25-.64c2.16 0 2.68 1.47 2.68 2.89v2.64a10 10 0 0 0 .12 1.69zm-.19-3.6c-1.4 0-3 .22-3 1.59a1.14 1.14 0 0 0 1.21 1.23 1.76 1.76 0 0 0 1.71-1.18 1.35 1.35 0 0 0 .07-.41zm3.32-1.55c0-.73 0-1.33-.06-1.91h1.14l.07 1.17a2.6 2.6 0 0 1 2.33-1.33c1 0 2.49.58 2.49 3v4.22h-1.28v-4.07c0-1.14-.42-2.09-1.63-2.09a1.82 1.82 0 0 0-1.72 1.31 1.85 1.85 0 0 0-.09.6v4.25h-1.28zM127 62.26h1.28v4.41a2.38 2.38 0 0 1 .92-.9 2.64 2.64 0 0 1 1.31-.36c.95 0 2.47.58 2.47 3v4.2h-1.28v-4.05c0-1.14-.42-2.1-1.63-2.1a1.84 1.84 0 0 0-1.72 1.28 1.56 1.56 0 0 0-.09.61v4.26H127zm8.78 7.06a2.26 2.26 0 0 0 2.42 2.45 4.64 4.64 0 0 0 2-.36l.22.92a5.71 5.71 0 0 1-2.35.44 3.28 3.28 0 0 1-3.47-3.56c0-2.13 1.25-3.81 3.31-3.81 2.3 0 2.92 2 2.92 3.33a4.82 4.82 0 0 1 0 .6zm3.76-.92a1.83 1.83 0 0 0-1.78-2.09 2.13 2.13 0 0 0-2 2.09zm2.83-6.14h1.28v10.36h-1.28zm3.45 5.6c0-.9 0-1.63-.06-2.31h1.15l.06 1.21a2.78 2.78 0 0 1 2.51-1.37c1.71 0 3 1.44 3 3.59 0 2.54-1.55 3.79-3.21 3.79a2.48 2.48 0 0 1-2.17-1.11v3.84h-1.27zm1.27 1.88a2.88 2.88 0 0 0 .06.52 2 2 0 0 0 1.93 1.5c1.36 0 2.14-1.11 2.14-2.73 0-1.42-.74-2.63-2.1-2.63a2 2 0 0 0-1.95 1.6 2.09 2.09 0 0 0-.09.52zm10.58-4.18l1.55 4.17c.16.47.34 1 .45 1.44.13-.42.28-1 .45-1.47l1.4-4.14h1.36l-1.93 5c-.92 2.42-1.55 3.66-2.42 4.42a3.47 3.47 0 0 1-1.58.83l-.32-1.08a3.41 3.41 0 0 0 1.12-.63 3.89 3.89 0 0 0 1.08-1.43.93.93 0 0 0 .1-.31 1.11 1.11 0 0 0-.09-.34l-2.61-6.51zM170.32 69a3.45 3.45 0 0 1-3.52 3.75 3.36 3.36 0 0 1-3.38-3.63 3.45 3.45 0 0 1 3.5-3.75 3.34 3.34 0 0 1 3.4 3.63zm-5.6.07c0 1.55.89 2.71 2.14 2.71s2.14-1.12 2.14-2.71c0-1.2-.6-2.71-2.11-2.71s-2.17 1.4-2.17 2.74zm13.12 1.62c0 .73 0 1.37.06 1.93h-1.14l-.07-1.15a2.66 2.66 0 0 1-2.33 1.31c-1.11 0-2.44-.61-2.44-3.09v-4.13h1.28v3.91c0 1.34.41 2.25 1.58 2.25a1.81 1.81 0 0 0 1.81-1.82v-4.34h1.28zM25.37 87.31c0-.9 0-1.63-.06-2.3h1.15l.06 1.21a2.77 2.77 0 0 1 2.51-1.37c1.71 0 3 1.44 3 3.59 0 2.54-1.55 3.79-3.21 3.79a2.48 2.48 0 0 1-2.17-1.11V95h-1.28zm1.27 1.88a2.93 2.93 0 0 0 .06.52 2 2 0 0 0 1.93 1.5c1.36 0 2.14-1.11 2.14-2.73 0-1.42-.74-2.63-2.1-2.63a2 2 0 0 0-1.94 1.59 2.1 2.1 0 0 0-.09.53zm7.03-1.98c0-.83 0-1.55-.06-2.2h1.12v1.39h.06a2.12 2.12 0 0 1 2-1.55 1.4 1.4 0 0 1 .36 0v1.25a1.92 1.92 0 0 0-.44 0A1.8 1.8 0 0 0 35 87.7a3.66 3.66 0 0 0-.06.6v3.76h-1.27zM39 88.77a2.26 2.26 0 0 0 2.42 2.45 4.64 4.64 0 0 0 2-.36l.22.92a5.72 5.72 0 0 1-2.35.44 3.28 3.28 0 0 1-3.47-3.56c0-2.13 1.25-3.81 3.31-3.81 2.3 0 2.92 2 2.92 3.33a4.82 4.82 0 0 1 0 .6zm3.76-.92A1.83 1.83 0 0 0 41 85.76a2.13 2.13 0 0 0-2 2.09zm2.84-.54c0-.9 0-1.63-.06-2.3h1.16l.06 1.21a2.77 2.77 0 0 1 2.51-1.37c1.71 0 3 1.44 3 3.59 0 2.54-1.55 3.79-3.21 3.79a2.48 2.48 0 0 1-2.17-1.11V95H45.6zm1.27 1.88a2.88 2.88 0 0 0 .06.52 2 2 0 0 0 1.93 1.5c1.36 0 2.14-1.11 2.14-2.73 0-1.42-.74-2.63-2.1-2.63a2 2 0 0 0-1.9 1.6 2.1 2.1 0 0 0-.09.53zm10.25 2.87V86h-1v-1h1v-.34a3.33 3.33 0 0 1 .82-2.46 2.46 2.46 0 0 1 1.72-.66 3 3 0 0 1 1.09.2l-.18 1a1.92 1.92 0 0 0-.82-.16c-1.09 0-1.37 1-1.37 2V85h1.72v1h-1.71v6.08zm10.33-3.59a3.45 3.45 0 0 1-3.52 3.75 3.36 3.36 0 0 1-3.38-3.63 3.45 3.45 0 0 1 3.5-3.75 3.34 3.34 0 0 1 3.4 3.63zm-5.6.07c0 1.55.89 2.71 2.14 2.71s2.14-1.15 2.14-2.74c0-1.2-.6-2.71-2.12-2.71s-2.16 1.41-2.16 2.75zm7.22-1.33c0-.83 0-1.55-.06-2.2h1.12v1.39h.06a2.12 2.12 0 0 1 2-1.55 1.4 1.4 0 0 1 .36 0v1.25a1.92 1.92 0 0 0-.44 0 1.8 1.8 0 0 0-1.71 1.6 3.6 3.6 0 0 0-.06.6v3.76h-1.27zm11.77 4.85l-.1-.89a2.63 2.63 0 0 1-2.16 1.05 2 2 0 0 1-2.16-2c0-1.71 1.52-2.64 4.24-2.63v-.15A1.46 1.46 0 0 0 79 85.79a3.52 3.52 0 0 0-1.84.52l-.29-.85a4.38 4.38 0 0 1 2.32-.63c2.16 0 2.68 1.47 2.68 2.89v2.64a10 10 0 0 0 .13 1.7zm-.19-3.6c-1.4 0-3 .22-3 1.59a1.14 1.14 0 0 0 1.21 1.23 1.76 1.76 0 0 0 1.71-1.18 1.35 1.35 0 0 0 .07-.41zM84 86.91c0-.73 0-1.33-.06-1.91H85l.07 1.17a2.6 2.6 0 0 1 2.33-1.33c1 0 2.49.58 2.49 3v4.22h-1.2V88c0-1.14-.42-2.09-1.63-2.09a1.82 1.82 0 0 0-1.72 1.31 1.85 1.85 0 0 0-.09.6v4.25H84zM96.58 83A.8.8 0 0 1 95 83a.78.78 0 0 1 .8-.8.76.76 0 0 1 .78.8zm-1.43 9v-7h1.28v7.06zm3.41-5.09c0-.73 0-1.33-.06-1.91h1.14l.07 1.17a2.6 2.6 0 0 1 2.33-1.33c1 0 2.49.58 2.49 3v4.22h-1.28V88c0-1.14-.42-2.09-1.63-2.09a1.82 1.82 0 0 0-1.72 1.31 1.85 1.85 0 0 0-.09.6v4.25h-1.25zm9.58-3.91v2H110v1h-1.84v3.81c0 .88.25 1.37 1 1.37a2.87 2.87 0 0 0 .74-.09l.06 1a3.14 3.14 0 0 1-1.14.18 1.78 1.78 0 0 1-1.39-.54 2.61 2.61 0 0 1-.5-1.84V86h-1.09v-1h1.09v-1.69zm3.91 5.77a2.26 2.26 0 0 0 2.42 2.45 4.64 4.64 0 0 0 2-.36l.22.92a5.72 5.72 0 0 1-2.35.44 3.28 3.28 0 0 1-3.47-3.56c0-2.13 1.25-3.81 3.31-3.81 2.3 0 2.92 2 2.92 3.33a4.82 4.82 0 0 1 0 .6zm3.76-.92a1.83 1.83 0 0 0-1.81-2.09 2.13 2.13 0 0 0-2 2.09zm2.83-.64c0-.83 0-1.55-.06-2.2h1.12v1.39h.06a2.12 2.12 0 0 1 2-1.55 1.4 1.4 0 0 1 .36 0v1.25a1.92 1.92 0 0 0-.44 0 1.8 1.8 0 0 0-1.68 1.6 3.66 3.66 0 0 0-.06.6v3.76h-1.27zm5.63-2.21l1.39 4a18.16 18.16 0 0 1 .57 1.81c.16-.58.36-1.17.6-1.81l1.37-4h1.34l-2.77 7.06h-1.23L122.9 85zm7.95-2a.8.8 0 0 1-1.59 0 .78.78 0 0 1 .8-.8.76.76 0 0 1 .79.8zm-1.43 9v-7h1.28v7.06zm4.13-3.23a2.26 2.26 0 0 0 2.42 2.45 4.64 4.64 0 0 0 2-.36l.22.92a5.72 5.72 0 0 1-2.35.44 3.28 3.28 0 0 1-3.47-3.56c0-2.13 1.25-3.81 3.31-3.81 2.3 0 2.92 2 2.92 3.33a4.82 4.82 0 0 1 0 .6zm3.76-.92a1.83 1.83 0 0 0-1.78-2.09 2.13 2.13 0 0 0-2 2.09zM142 85l.93 3.59c.2.79.39 1.52.52 2.25.16-.71.39-1.47.63-2.23l1.15-3.6h1.08l1.09 3.53c.26.85.47 1.59.63 2.31a21.23 21.23 0 0 1 .54-2.29l1-3.54H151l-2.28 7.06h-1.17l-1.08-3.37a23.57 23.57 0 0 1-.63-2.32 20.86 20.86 0 0 1-.64 2.33l-1.2 3.34h-1.17L140.71 85zm17.25 7.06l-.1-.89a2.63 2.63 0 0 1-2.16 1.05 2 2 0 0 1-2.16-2c0-1.71 1.52-2.64 4.24-2.63v-.15a1.46 1.46 0 0 0-1.6-1.63 3.52 3.52 0 0 0-1.84.52l-.29-.85a4.38 4.38 0 0 1 2.32-.63c2.16 0 2.68 1.47 2.68 2.89v2.64a10 10 0 0 0 .12 1.69zm-.19-3.6c-1.4 0-3 .22-3 1.59a1.14 1.14 0 0 0 1.21 1.23 1.76 1.76 0 0 0 1.73-1.19 1.35 1.35 0 0 0 .07-.41zm3.31-1.55c0-.73 0-1.33-.06-1.91h1.14l.07 1.17a2.6 2.6 0 0 1 2.33-1.33c1 0 2.49.58 2.49 3v4.22h-1.24V88c0-1.14-.42-2.09-1.63-2.09a1.82 1.82 0 0 0-1.72 1.31 1.85 1.85 0 0 0-.09.6v4.25h-1.28zm14.19-5.2v8.53c0 .63 0 1.34.06 1.82h-1.15l-.06-1.23a2.61 2.61 0 0 1-2.41 1.39c-1.71 0-3-1.44-3-3.59 0-2.35 1.44-3.79 3.17-3.79a2.36 2.36 0 0 1 2.13 1.08v-4.21zm-1.28 6.17a2.25 2.25 0 0 0-.06-.54 1.89 1.89 0 0 0-1.85-1.49c-1.33 0-2.12 1.17-2.12 2.73s.7 2.61 2.09 2.61a1.93 1.93 0 0 0 1.88-1.53 2.22 2.22 0 0 0 .06-.55zM25.37 106.75c0-.9 0-1.63-.06-2.31h1.15l.06 1.21a2.78 2.78 0 0 1 2.51-1.37c1.71 0 3 1.44 3 3.59 0 2.54-1.55 3.79-3.21 3.79a2.48 2.48 0 0 1-2.17-1.11v3.84h-1.28zm1.27 1.88a2.92 2.92 0 0 0 .06.52 2 2 0 0 0 1.93 1.5c1.36 0 2.14-1.11 2.14-2.73 0-1.42-.74-2.63-2.1-2.63a2 2 0 0 0-1.94 1.59 2.09 2.09 0 0 0-.09.52zm7.03-1.98c0-.83 0-1.55-.06-2.2h1.12v1.39h.06a2.12 2.12 0 0 1 2-1.55 1.38 1.38 0 0 1 .36 0v1.21a1.92 1.92 0 0 0-.44 0 1.8 1.8 0 0 0-1.71 1.65 3.66 3.66 0 0 0-.06.6v3.76h-1.27zm5.33 1.56a2.26 2.26 0 0 0 2.42 2.45 4.64 4.64 0 0 0 2-.36l.22.92a5.71 5.71 0 0 1-2.35.44 3.28 3.28 0 0 1-3.47-3.56c0-2.13 1.25-3.81 3.31-3.81 2.3 0 2.92 2 2.92 3.33a4.82 4.82 0 0 1 0 .6zm3.76-.92a1.83 1.83 0 0 0-1.76-2.08 2.13 2.13 0 0 0-2 2.09zm2.67 2.91a3.36 3.36 0 0 0 1.69.51c.93 0 1.37-.47 1.37-1.05s-.36-.95-1.31-1.3c-1.27-.45-1.87-1.15-1.87-2a2.18 2.18 0 0 1 2.44-2.07 3.53 3.53 0 0 1 1.74.44l-.32.93a2.75 2.75 0 0 0-1.44-.41c-.76 0-1.18.44-1.18 1s.42.85 1.34 1.2c1.23.47 1.85 1.08 1.85 2.13 0 1.24-1 2.12-2.64 2.12a4 4 0 0 1-2-.48zm6.66-1.99a2.26 2.26 0 0 0 2.42 2.45 4.64 4.64 0 0 0 2-.36l.22.92a5.71 5.71 0 0 1-2.35.44 3.28 3.28 0 0 1-3.47-3.56c0-2.13 1.25-3.81 3.31-3.81 2.3 0 2.92 2 2.92 3.33a4.82 4.82 0 0 1 0 .6zm3.76-.92a1.83 1.83 0 0 0-1.78-2.09 2.13 2.13 0 0 0-2 2.09zm2.84-.93c0-.73 0-1.33-.06-1.91h1.14l.07 1.17a2.6 2.6 0 0 1 2.33-1.33c1 0 2.49.58 2.49 3v4.22h-1.25v-4.07c0-1.14-.42-2.09-1.63-2.09a1.82 1.82 0 0 0-1.72 1.31 1.85 1.85 0 0 0-.09.6v4.25h-1.28zm9.58-3.94v2h1.84v1h-1.84v3.81c0 .88.25 1.37 1 1.37a2.84 2.84 0 0 0 .74-.09l.06 1a3.14 3.14 0 0 1-1.14.18 1.78 1.78 0 0 1-1.39-.54 2.61 2.61 0 0 1-.5-1.84v-3.85h-1.12v-1H67v-1.69zm6.84 2.03l1.55 4.17c.16.47.34 1 .45 1.44.13-.42.28-1 .45-1.47l1.4-4.14h1.36l-1.93 5c-.92 2.42-1.55 3.66-2.42 4.42a3.47 3.47 0 0 1-1.58.83l-.32-1.08a3.41 3.41 0 0 0 1.12-.63 3.89 3.89 0 0 0 1.08-1.43.93.93 0 0 0 .1-.31 1.11 1.11 0 0 0-.09-.34l-2.61-6.51zm12.64 3.47a3.45 3.45 0 0 1-3.52 3.75 3.36 3.36 0 0 1-3.37-3.67 3.45 3.45 0 0 1 3.5-3.75 3.34 3.34 0 0 1 3.39 3.67zm-5.6.07c0 1.55.89 2.71 2.14 2.71s2.14-1.15 2.14-2.74c0-1.2-.6-2.71-2.12-2.71s-2.16 1.4-2.16 2.75zm13.13 1.59c0 .73 0 1.37.06 1.93H94.2l-.07-1.15a2.66 2.66 0 0 1-2.33 1.31c-1.11 0-2.44-.61-2.44-3.09v-4.13h1.28v3.91c0 1.34.41 2.25 1.58 2.25a1.81 1.81 0 0 0 1.78-1.83v-4.33h1.28zm2.13-2.93c0-.83 0-1.55-.06-2.2h1.12v1.39h.06a2.12 2.12 0 0 1 2-1.55 1.38 1.38 0 0 1 .36 0v1.21a1.92 1.92 0 0 0-.44 0 1.8 1.8 0 0 0-1.72 1.65 3.6 3.6 0 0 0-.06.6v3.76h-1.26zm7.8 4.86c0-.48.06-1.2.06-1.82v-8.53h1.27v4.43a2.63 2.63 0 0 1 2.41-1.3c1.75 0 3 1.46 3 3.6 0 2.52-1.59 3.78-3.17 3.78a2.52 2.52 0 0 1-2.36-1.33l-.06 1.17zm1.33-2.83a2.39 2.39 0 0 0 .06.47 2 2 0 0 0 1.93 1.5c1.34 0 2.14-1.09 2.14-2.71 0-1.42-.73-2.63-2.1-2.63a2 2 0 0 0-2 1.58 2.55 2.55 0 0 0-.07.52zm7.74-.47a2.26 2.26 0 0 0 2.42 2.45 4.64 4.64 0 0 0 2-.36l.22.92a5.71 5.71 0 0 1-2.35.44 3.28 3.28 0 0 1-3.47-3.56c0-2.13 1.25-3.81 3.31-3.81 2.3 0 2.92 2 2.92 3.33a4.82 4.82 0 0 1 0 .6zm3.76-.92a1.83 1.83 0 0 0-1.78-2.09 2.13 2.13 0 0 0-2 2.09zm2.66 2.91a3.36 3.36 0 0 0 1.69.51c.93 0 1.37-.47 1.37-1.05s-.36-.95-1.31-1.3c-1.27-.45-1.87-1.15-1.87-2a2.18 2.18 0 0 1 2.44-2.07 3.53 3.53 0 0 1 1.74.44l-.32.93a2.75 2.75 0 0 0-1.44-.41c-.76 0-1.18.44-1.18 1s.42.85 1.34 1.2c1.23.47 1.85 1.08 1.85 2.13 0 1.24-1 2.12-2.64 2.12a4 4 0 0 1-2-.48zm7.5-7.78v2h1.8v1h-1.8v3.81c0 .88.25 1.37 1 1.37a2.85 2.85 0 0 0 .74-.09l.06 1a3.14 3.14 0 0 1-1.14.18 1.78 1.78 0 0 1-1.39-.54 2.61 2.61 0 0 1-.5-1.84v-3.85h-1.09v-1h1.09v-1.69zm6.2 7.78a3.36 3.36 0 0 0 1.69.51c.93 0 1.37-.47 1.37-1.05s-.36-.95-1.31-1.3c-1.27-.45-1.87-1.15-1.87-2a2.18 2.18 0 0 1 2.44-2.07 3.53 3.53 0 0 1 1.74.44l-.32.93a2.75 2.75 0 0 0-1.44-.41c-.76 0-1.18.44-1.18 1s.42.85 1.34 1.2c1.23.47 1.85 1.08 1.85 2.13 0 1.24-1 2.12-2.64 2.12a4 4 0 0 1-2-.48zm6.66-1.99a2.26 2.26 0 0 0 2.42 2.45 4.64 4.64 0 0 0 2-.36l.22.92a5.71 5.71 0 0 1-2.35.44 3.28 3.28 0 0 1-3.47-3.56c0-2.13 1.25-3.81 3.31-3.81 2.3 0 2.92 2 2.92 3.33a4.82 4.82 0 0 1 0 .6zm3.76-.92a1.83 1.83 0 0 0-1.78-2.09 2.13 2.13 0 0 0-2 2.09zm2.83-6.14h1.28v10.36h-1.28zm3.58 10.36v-6.08h-1v-1h1v-.34a3.33 3.33 0 0 1 .82-2.47 2.46 2.46 0 0 1 1.72-.66 3 3 0 0 1 1.09.2l-.18 1a1.92 1.92 0 0 0-.82-.16c-1.09 0-1.37 1-1.37 2v.38h1.71v1h-1.7v6.08zm3.88-.74a.86.86 0 0 1 .86-.9.91.91 0 0 1 0 1.81.86.86 0 0 1-.86-.91zm.36-2.09l-.2-7h1.4l-.2 7zM24.78 50a2.25 2.25 0 0 0 1.14.32c.65 0 1-.34 1-.84s-.26-.72-.93-1-1.3-.7-1.3-1.39a1.42 1.42 0 0 1 1.59-1.33 2.23 2.23 0 0 1 1.09.24l-.18.52a2 2 0 0 0-.93-.23c-.67 0-.93.4-.93.74s.3.69 1 .95c.83.32 1.25.72 1.25 1.44s-.56 1.42-1.72 1.42a2.54 2.54 0 0 1-1.25-.31zm5.04-4.11v2.91c0 1.1.49 1.57 1.15 1.57s1.2-.48 1.2-1.57v-2.91h.64v2.87c0 1.51-.79 2.13-1.86 2.13s-1.77-.58-1.77-2.1v-2.9zm8.96 2.76c0-.69-.08-1.51-.07-2.12-.17.58-.37 1.19-.62 1.87l-.87 2.38h-.48l-.79-2.34c-.23-.69-.43-1.33-.57-1.91 0 .61-.05 1.44-.09 2.17l-.13 2.11h-.66l.34-4.92h.81l.84 2.38c.2.61.37 1.15.5 1.66.12-.5.3-1 .52-1.66l.88-2.38h.81l.31 4.92h-.61zm6.59 0c0-.69-.08-1.51-.07-2.12-.17.58-.37 1.19-.62 1.87l-.87 2.38h-.48l-.79-2.34c-.23-.69-.43-1.33-.57-1.91 0 .61-.05 1.44-.09 2.17l-.13 2.11h-.65l.34-4.92h.81l.84 2.38c.2.61.37 1.15.5 1.66.12-.5.3-1 .52-1.66l.89-2.38h.81l.31 4.92h-.62zm3.17.61L48 50.81h-.66L49 45.89h.77l1.68 4.92h-.68l-.53-1.55zm1.61-.5l-.48-1.41c-.11-.32-.18-.61-.26-.9-.07.29-.15.59-.25.89l-.48 1.42zM52.94 46a6.59 6.59 0 0 1 1.22-.1 2 2 0 0 1 1.42.4 1.22 1.22 0 0 1 .39.93 1.29 1.29 0 0 1-.97 1.22 1.23 1.23 0 0 1 .72 1 7.84 7.84 0 0 0 .38 1.35h-.66a6.39 6.39 0 0 1-.33-1.17c-.15-.68-.41-.93-1-1h-.6v2.13h-.63zm.63 2.24h.65c.68 0 1.11-.37 1.11-.93s-.46-.91-1.13-.92a2.6 2.6 0 0 0-.63.06zm5.04 2.57v-2.09l-1.55-2.83h.72l.69 1.36c.19.37.34.67.49 1 .14-.32.31-.64.5-1l.71-1.36h.72l-1.65 2.82v2.09z"/></g><path class="cls-5" d="M0 0h724v475H0z"/></g></g></svg>