<svg xmlns="http://www.w3.org/2000/svg" xmlns:xlink="http://www.w3.org/1999/xlink" viewBox="0 0 724 475"><defs><style>.cls-1{fill:url(#linear-gradient)}.cls-2{fill:#fff}.cls-3{fill:#78909c}.cls-4{fill:#ff1744}.cls-5{fill:#607d8b}.cls-6,.cls-7{fill:none}.cls-6{stroke:#e4e4e4;stroke-miterlimit:10;stroke-width:.81px}</style><linearGradient id="linear-gradient" x1="-4572.1" y1="16673.81" x2="-4518.55" y2="16661.78" gradientTransform="matrix(.76 0 0 -1.32 3442.63 22060.65)" gradientUnits="userSpaceOnUse"><stop offset="0"/><stop offset="1" stop-opacity="0"/></linearGradient><symbol id="web_cursor" data-name="web cursor" viewBox="0 0 12.98 21"><g id="_Group_5" data-name="&lt;Group&gt;"><g id="layer1"><g id="g1317"><path id="path6080" class="cls-1" d="M1 0v17h1v-1h1v-1h1v-1h2v2h1v2h1v2h1v1h2v-1h1v-2h-1v-2h-1v-2H9v-2h4v-1h-1v-1h-1V9h-1V8H9V7H8V6H7V5H6V4H5V3H4V2H3V1H2V0z"/><path id="rect1430" d="M0 0v17h1v-1h1v-1H1V2h1V1H1V0zm2 2v1h1V2zm1 1v1h1V3zm1 1v1h1V4zm1 1v1h1V5zm1 1v1h1V6zm1 1v1h1V7zm1 1v1h1V8zm1 1v1h1V9zm1 1v1H7v3h1v-2h4v-1h-1v-1zm-2 4v2h1v-2zm1 2v2h1v-2zm1 2v2h1v-2zm0 2H8v1h2zm-2 0v-2H7v2zm-1-2v-2H6v2zm-1-2v-2H5v2zm-1-2v-2H4v1H3v1h2zm-2 0H2v1h1z"/><path id="rect3779" class="cls-2" d="M1 2v13h1v-1h1v-1h1v-1h1v2h1v2h1v2h1v2h2v-2H9v-2H8v-2H7v-3h3v-1H9V9H8V8H7V7H6V6H5V5H4V4H3V3H2V2z"/></g></g></g></symbol></defs><g id="Layer_2" data-name="Layer 2"><g id="Layer_1-2" data-name="Layer 1"><rect class="cls-2" x="504" width="220" height="475" rx="1.32" ry="1.32" id="_Group_" data-name="&lt;Group&gt;"/><path class="cls-3" d="M528.86 340.33h2.65v.53h-2v1.63h1.86v.51h-1.87v2.22h-.63zm6.83 2.61h-1.91v1.77h2.13v.53h-2.77v-4.92h2.66v.53h-2v1.55h1.91zm2.57.76l-.51 1.55h-.66l1.67-4.92h.77l1.68 4.92h-.68l-.53-1.55zm1.61-.5l-.48-1.42c-.11-.32-.18-.61-.25-.9-.07.29-.15.59-.25.89l-.48 1.42zm3.13-2.33h-1.5v-.54h3.64v.54h-1.5v4.38H543zm4.08-.54v2.91c0 1.1.49 1.57 1.14 1.57s1.2-.48 1.2-1.57v-2.91h.64v2.87c0 1.51-.79 2.13-1.86 2.13s-1.77-.58-1.77-2.1v-2.9zm4.81.07a6.53 6.53 0 0 1 1.22-.1 2 2 0 0 1 1.42.4 1.23 1.23 0 0 1 .39.93 1.29 1.29 0 0 1-.93 1.25 1.22 1.22 0 0 1 .72 1 7.81 7.81 0 0 0 .38 1.35h-.66a6.39 6.39 0 0 1-.33-1.17c-.15-.68-.41-.93-1-1h-.6v2.13h-.63zm.63 2.24h.65c.68 0 1.11-.37 1.11-.93s-.46-.91-1.13-.92a2.59 2.59 0 0 0-.63.06zm6.57.3h-1.91v1.77h2.13v.53h-2.76v-4.92h2.65v.53h-2v1.55h1.91zm1.77-2.54a9.05 9.05 0 0 1 1.35-.1 2.82 2.82 0 0 1 2 .61 2.27 2.27 0 0 1 .69 1.77 2.6 2.6 0 0 1-.71 1.91 3 3 0 0 1-2.17.71 10.08 10.08 0 0 1-1.15-.06zm.63 4.35a4 4 0 0 0 .64 0 1.89 1.89 0 0 0 2.09-2.09 1.75 1.75 0 0 0-2-1.9 3.54 3.54 0 0 0-.74.07zm7.23-4.35a6.53 6.53 0 0 1 1.22-.1 2 2 0 0 1 1.42.4 1.23 1.23 0 0 1 .39.93 1.29 1.29 0 0 1-.93 1.25 1.22 1.22 0 0 1 .72 1 7.81 7.81 0 0 0 .38 1.35h-.66a6.39 6.39 0 0 1-.33-1.17c-.15-.68-.41-.93-1-1h-.6v2.13h-.63zm.63 2.24h.65c.68 0 1.11-.37 1.11-.93s-.46-.91-1.13-.92a2.59 2.59 0 0 0-.63.06zm6.57.3H574v1.77h2.13v.53h-2.75v-4.92H576v.53h-2v1.55h1.91zm2.92 2.3l-1.6-4.92h.69l.77 2.42c.21.66.39 1.26.53 1.84.14-.57.34-1.19.56-1.83l.83-2.43h.68l-1.76 4.92zm4.35-4.91v4.92h-.63v-4.92zm4.38 2.61h-1.91v1.77h2.13v.53H585v-4.92h2.65v.53h-2v1.55h1.91zm2.64 2.3l-1.21-4.91h.67l.58 2.49c.15.61.28 1.23.36 1.7.08-.49.23-1.07.4-1.71l.66-2.48h.66l.6 2.5c.14.58.27 1.17.34 1.68.1-.54.24-1.09.39-1.7l.65-2.48h.69l-1.39 4.92h-.66l-.62-2.56a14.79 14.79 0 0 1-.32-1.6 15.16 15.16 0 0 1-.38 1.6l-.7 2.56zm-60.55-138.78l-.51 1.54h-.66l1.67-4.92h.77l1.68 4.92h-.68l-.53-1.55zm1.61-.5l-.48-1.41c-.11-.32-.18-.61-.25-.9-.07.29-.15.59-.25.89l-.5 1.46zm3.48 2.04l-1.6-4.92h.69l.77 2.42c.21.66.39 1.26.53 1.84.14-.57.34-1.19.56-1.83l.83-2.43h.68l-1.76 4.92zm4.1-1.54l-.51 1.54h-.66l1.67-4.92h.77l1.67 4.92h-.68l-.53-1.55zm1.61-.5l-.46-1.41c-.11-.32-.18-.61-.26-.9-.07.29-.15.59-.25.89L539 206zm3.42-2.87V208h-.63v-4.92zm1.84 0h.63v4.38h2.1v.53h-2.73zm4.96 3.37l-.51 1.54h-.66l1.67-4.92h.82l1.63 4.92H553l-.53-1.55zm1.61-.5l-.48-1.41c-.11-.32-.18-.61-.25-.9-.07.29-.15.59-.25.89l-.5 1.46zm2.79-2.8a6.13 6.13 0 0 1 1.16-.1 2 2 0 0 1 1.35.36 1 1 0 0 1 .41.87 1.17 1.17 0 0 1-.83 1.08 1.27 1.27 0 0 1 1 1.23 1.33 1.33 0 0 1-.42 1 2.47 2.47 0 0 1-1.7.46 7.41 7.41 0 0 1-1-.06zm.63 2h.58c.67 0 1.07-.35 1.07-.82s-.44-.8-1.08-.8a2.71 2.71 0 0 0-.56 0zm0 2.36a3.38 3.38 0 0 0 .53 0c.66 0 1.26-.24 1.26-1s-.58-.95-1.27-.95h-.53zm4.05-4.43h.63v4.38h2.1v.53h-2.73zm6.72 2.61h-1.91v1.77h2.13v.53h-2.77v-4.92h2.65v.53h-2v1.55h1.91zm4.68-2.07h-1.5v-.54h3.64v.54h-1.5V208h-.64zm4.05-.54V208h-.63v-4.92zm5.98 2.76c0-.69-.08-1.51-.07-2.12-.17.58-.37 1.19-.62 1.87l-.89 2.4h-.48l-.79-2.34c-.23-.69-.43-1.33-.57-1.91 0 .61-.05 1.44-.09 2.17l-.15 2.08h-.61l.34-4.92h.81l.84 2.38c.2.61.37 1.15.5 1.66.12-.5.3-1 .52-1.66l.88-2.38h.81l.31 4.92h-.62zm5-.15h-1.91v1.77h2.13v.53h-2.76v-4.92h2.65v.53h-2v1.55h1.91zm1.68 1.54a2.25 2.25 0 0 0 1.14.32c.65 0 1-.34 1-.84s-.26-.72-.93-1-1.3-.7-1.3-1.39a1.42 1.42 0 0 1 1.62-1.33 2.23 2.23 0 0 1 1.09.24l-.17.52a2 2 0 0 0-.93-.23c-.67 0-.93.4-.93.74s.3.69 1 .95c.83.32 1.25.72 1.25 1.44s-.56 1.42-1.72 1.42a2.54 2.54 0 0 1-1.25-.31z"/><g id="_Group_2" data-name="&lt;Group&gt;"><rect class="cls-4" x="516.15" y="12.15" width="198.52" height="28.36" rx="1.32" ry="1.32" id="_Group_3" data-name="&lt;Group&gt;"/><path class="cls-2" d="M532.94 22.87a9.2 9.2 0 0 1 1.69-.14 2.8 2.8 0 0 1 2 .56 1.7 1.7 0 0 1 .54 1.3 1.8 1.8 0 0 1-1.29 1.75 1.7 1.7 0 0 1 1 1.38 11 11 0 0 0 .53 1.88h-.91a8.87 8.87 0 0 1-.5-1.6c-.2-.94-.57-1.3-1.37-1.33h-.83v3h-.88zm.88 3.13h.9c.94 0 1.54-.52 1.54-1.3s-.64-1.27-1.57-1.28a3.63 3.63 0 0 0-.87.08zm9.18.41h-2.7v2.47h3v.74h-3.88v-6.84h3.69v.74h-2.81v2.16h2.7zm8.07 4.21c-.92-.24-1.83-.52-2.62-.79a1.31 1.31 0 0 0-.42-.1 3.15 3.15 0 0 1-3-3.46c0-2.19 1.34-3.6 3.19-3.6s3.06 1.44 3.06 3.46a3.18 3.18 0 0 1-1.95 3.28c.68.17 1.42.33 2 .44zm-.73-4.45c0-1.37-.71-2.78-2.16-2.78S546 24.77 546 26.25s.76 2.75 2.14 2.75 2.2-1.27 2.2-2.83zm3.98-3.39v4c0 1.53.68 2.18 1.59 2.18s1.66-.67 1.66-2.18v-4h.89v4c0 2.1-1.11 3-2.59 3s-2.46-.8-2.46-2.92v-4zm10.25 3.63h-2.66v2.47h3v.74H561v-6.84h3.69v.74h-2.78v2.16h2.66zm2.34 2.13a3.13 3.13 0 0 0 1.59.46c.9 0 1.43-.48 1.43-1.17s-.37-1-1.29-1.36c-1.12-.4-1.81-1-1.81-1.94a2 2 0 0 1 2.17-1.86 3.1 3.1 0 0 1 1.51.33l-.24.72a2.73 2.73 0 0 0-1.27-.32c-.93 0-1.29.56-1.29 1 0 .64.42 1 1.36 1.32 1.16.45 1.75 1 1.75 2s-.78 2-2.4 2a3.53 3.53 0 0 1-1.75-.44zm7.45-5.01h-2.08v-.75h5.06v.75h-2.09v6.09h-.89zm9.03 3.94l-.71 2.15h-.91l2.32-6.84h1.07l2.33 6.84h-.94l-.73-2.15zm2.24-.69l-.67-2c-.15-.45-.25-.85-.36-1.25-.1.41-.21.82-.34 1.24l-.67 2zm12.82-.17c-.05-1-.11-2.1-.1-3-.23.8-.52 1.65-.86 2.6l-1.21 3.32h-.67l-1.11-3.26c-.32-1-.6-1.85-.79-2.66 0 .85-.07 2-.13 3l-.18 2.93h-.9l.5-6.76h1.13l1.17 3.31c.28.84.52 1.59.69 2.3.17-.69.42-1.44.72-2.3l1.22-3.31h1.13l.43 6.84h-.86zm6.95-.2h-2.65v2.47h3v.74h-3.89v-6.84h3.69v.74h-2.8v2.16h2.66zm6.02 0h-2.66v2.47h3v.74h-3.85v-6.84h3.69v.74h-2.81v2.16h2.66zm3.93-2.88h-2.08v-.75h5.06v.75h-2.09v6.09h-.89zm5.65-.75v6.84h-.88v-6.84zm2.55 6.84v-6.84h1l2.19 3.46a19.22 19.22 0 0 1 1.23 2.22c-.08-.91-.1-1.75-.1-2.81v-2.87h.83v6.84h-.89l-2.17-3.47a21.74 21.74 0 0 1-1.28-2.28c.05.86.07 1.68.07 2.82v2.92zm12.9-.31a6.37 6.37 0 0 1-2.1.38 3.21 3.21 0 0 1-3.51-3.45 3.43 3.43 0 0 1 3.7-3.53 4.23 4.23 0 0 1 1.7.31l-.21.72a3.54 3.54 0 0 0-1.51-.29 2.56 2.56 0 0 0-2.75 2.75 2.51 2.51 0 0 0 2.64 2.8 2.88 2.88 0 0 0 1.18-.18v-2h-1.39V26h2.25z"/><g id="_Group_4" data-name="&lt;Group&gt;"><path id="_Compound_Path_" data-name="&lt;Compound Path&gt;" class="cls-2" d="M691.53 25.56a1.35 1.35 0 1 0-1.35-1.35 1.35 1.35 0 0 0 1.35 1.35zm-4.06-.56a1.62 1.62 0 1 0-1.62-1.62 1.61 1.61 0 0 0 1.62 1.62zm4.05 1.62c-1 0-3 .5-3 1.49v1.22h5.94v-1.2c.04-.99-1.95-1.49-2.93-1.49zm-4.05-.54c-1.26 0-3.78.63-3.78 1.89v1.35h3.78v-1.19a2.13 2.13 0 0 1 1.28-1.87 6.64 6.64 0 0 0-1.28-.16z"/></g></g><path class="cls-3" d="M535.61 104.54c-.06-1.07-.12-2.35-.11-3.3-.26.9-.58 1.85-1 2.9l-1.35 3.71h-.75l-1.24-3.64c-.36-1.08-.67-2.06-.88-3 0 1-.08 2.23-.15 3.38l-.2 3.28H529l.53-7.64h1.26l1.3 3.7c.32.94.58 1.78.77 2.57.19-.77.46-1.61.8-2.57l1.36-3.7h1.26l.48 7.64h-1zm7.96.57a2.68 2.68 0 0 1-2.73 2.89 2.61 2.61 0 0 1-2.63-2.82 2.68 2.68 0 0 1 2.72-2.91 2.6 2.6 0 0 1 2.64 2.84zm-4.35.06c0 1.2.69 2.11 1.67 2.11s1.67-.9 1.67-2.13c0-.93-.46-2.11-1.64-2.11s-1.7 1.08-1.7 2.13zm9.78 2.53a3.67 3.67 0 0 1-1.58.32 2.61 2.61 0 0 1-2.73-2.8 2.79 2.79 0 0 1 2.95-2.91 3.34 3.34 0 0 1 1.38.28l-.23.77a2.31 2.31 0 0 0-1.16-.26 2.07 2.07 0 0 0 0 4.13 2.83 2.83 0 0 0 1.22-.27zm2.47-2.77c.14-.19.33-.43.49-.62l1.61-1.89h1.2l-2.12 2.26 2.42 3.23h-1.19l-1.88-2.64-.51.57v2.06h-1v-8h1zm8.33-4.67v7.64h-1v-7.64zm2.09 3.64v-1.49h.88l.06.91a2 2 0 0 1 1.81-1c.76 0 1.94.45 1.94 2.34v3.28h-1v-3.16c0-.88-.33-1.62-1.27-1.62a1.42 1.42 0 0 0-1.34 1 1.45 1.45 0 0 0-.07.46v3.3h-1zm7.73-3.06v1.58h1.43v.76h-1.43v3c0 .68.19 1.07.75 1.07a2.21 2.21 0 0 0 .58-.07v.75a2.45 2.45 0 0 1-.88.14 1.38 1.38 0 0 1-1.08-.42 2 2 0 0 1-.39-1.43v-3h-.8v-.76h.85v-1.36zm3.33 4.5a1.76 1.76 0 0 0 1.88 1.9 3.61 3.61 0 0 0 1.52-.28l.17.71a4.45 4.45 0 0 1-1.83.34 2.55 2.55 0 0 1-2.7-2.77 2.66 2.66 0 0 1 2.57-3 2.32 2.32 0 0 1 2.27 2.58 3.68 3.68 0 0 1 0 .46zm2.92-.71a1.42 1.42 0 0 0-1.38-1.63 1.65 1.65 0 0 0-1.49 1.62zm2.49-.51v-1.71h.87v1.08a1.65 1.65 0 0 1 1.52-1.2 1.09 1.09 0 0 1 .28 0v.94a1.48 1.48 0 0 0-.34 0 1.4 1.4 0 0 0-1.34 1.28 2.83 2.83 0 0 0 0 .46v2.92h-1zm4.64-1.71l1.08 3.08a14 14 0 0 1 .44 1.41c.12-.45.28-.91.46-1.41l1.07-3.08h1L585 107.9h-1l-2-5.49zm6.49-1.54a.62.62 0 0 1-1.24 0 .61.61 0 0 1 .62-.62.59.59 0 0 1 .62.62zm-1.11 7v-5.49h1v5.49zm3.49-2.53a1.76 1.76 0 0 0 1.88 1.9 3.61 3.61 0 0 0 1.52-.28l.17.71a4.45 4.45 0 0 1-1.83.34 2.55 2.55 0 0 1-2.7-2.77 2.66 2.66 0 0 1 2.57-3 2.32 2.32 0 0 1 2.27 2.58 3.92 3.92 0 0 1 0 .46zm2.93-.71a1.42 1.42 0 0 0-1.39-1.63 1.65 1.65 0 0 0-1.53 1.62zm2.88-2.22l.73 2.79c.16.61.31 1.18.41 1.75.12-.56.31-1.15.49-1.73l.9-2.8h.84l.85 2.74c.2.66.36 1.24.49 1.79a16.71 16.71 0 0 1 .42-1.78l.78-2.75h1l-1.77 5.49h-.91l-.84-2.62a18.55 18.55 0 0 1-.49-1.8 16.08 16.08 0 0 1-.5 1.81l-.88 2.61h-.91l-1.66-5.49zm-68.51 18.19a10.27 10.27 0 0 1 1.89-.16 3.13 3.13 0 0 1 2.21.62 1.91 1.91 0 0 1 .6 1.45 2 2 0 0 1-1.44 2 1.91 1.91 0 0 1 1.13 1.49 12.08 12.08 0 0 0 .59 2.1h-1a9.89 9.89 0 0 1-.51-1.83c-.23-1.05-.63-1.45-1.53-1.49h-.93v3.31h-1zm1 3.48h1c1.05 0 1.72-.58 1.72-1.45s-.71-1.42-1.76-1.43a4.06 4.06 0 0 0-1 .09zm5.95 1.5a1.76 1.76 0 0 0 1.88 1.9 3.61 3.61 0 0 0 1.52-.28l.17.71a4.45 4.45 0 0 1-1.83.34 2.55 2.55 0 0 1-2.7-2.77 2.66 2.66 0 0 1 2.57-3 2.32 2.32 0 0 1 2.27 2.63 3.88 3.88 0 0 1 0 .46zm2.92-.71a1.42 1.42 0 0 0-1.38-1.62 1.65 1.65 0 0 0-1.53 1.62zm2.36 2.25a2.61 2.61 0 0 0 1.32.4c.73 0 1.07-.36 1.07-.82s-.28-.74-1-1c-1-.35-1.45-.9-1.45-1.55a1.69 1.69 0 0 1 1.89-1.61 2.74 2.74 0 0 1 1.35.34l-.25.73a2.13 2.13 0 0 0-1.12-.32c-.59 0-.92.34-.92.75s.33.66 1 .93c1 .36 1.44.84 1.44 1.65s-.75 1.64-2.05 1.64a3.13 3.13 0 0 1-1.54-.37zm9.5-.48v1.5h-.88l-.06-.9a2.06 2.06 0 0 1-1.81 1c-.86 0-1.89-.48-1.89-2.4v-3.21h1v3c0 1 .32 1.75 1.22 1.75a1.44 1.44 0 0 0 1.32-.91 1.46 1.46 0 0 0 .09-.51v-3.37h1zm1.95-2.5v-1.49h.87v.88a1.89 1.89 0 0 1 1.72-1 1.62 1.62 0 0 1 1.55 1.1 2.26 2.26 0 0 1 .61-.71 1.87 1.87 0 0 1 1.21-.39c.73 0 1.8.48 1.8 2.38v3.23h-1V125c0-1.05-.38-1.69-1.19-1.69a1.29 1.29 0 0 0-1.18.91 1.66 1.66 0 0 0-.08.5v3.39h-1v-3.29c0-.87-.38-1.51-1.14-1.51a1.49 1.49 0 0 0-1.32 1.49v3.31h-1zm10.3 1.44a1.76 1.76 0 0 0 1.88 1.9 3.61 3.61 0 0 0 1.52-.28l.17.71a4.45 4.45 0 0 1-1.83.34 2.55 2.55 0 0 1-2.7-2.77 2.66 2.66 0 0 1 2.57-3 2.32 2.32 0 0 1 2.24 2.63 3.68 3.68 0 0 1 0 .46zm2.92-.71a1.42 1.42 0 0 0-1.38-1.62 1.65 1.65 0 0 0-1.53 1.62zm5.21-4.27a10.27 10.27 0 0 1 1.89-.16 3.13 3.13 0 0 1 2.21.62 1.91 1.91 0 0 1 .6 1.45 2 2 0 0 1-1.44 2 1.91 1.91 0 0 1 1.13 1.49 12.2 12.2 0 0 0 .59 2.1h-1a9.89 9.89 0 0 1-.51-1.83c-.23-1.05-.63-1.45-1.53-1.49h-.93v3.31h-1zm1 3.48h1c1.05 0 1.72-.58 1.72-1.45s-.71-1.42-1.76-1.43a4.06 4.06 0 0 0-1 .09zm5.95 1.5a1.76 1.76 0 0 0 1.88 1.9 3.61 3.61 0 0 0 1.52-.28l.17.71a4.45 4.45 0 0 1-1.83.34 2.55 2.55 0 0 1-2.7-2.77 2.66 2.66 0 0 1 2.57-3 2.32 2.32 0 0 1 2.27 2.58 3.92 3.92 0 0 1 0 .46zm2.93-.71a1.42 1.42 0 0 0-1.38-1.62 1.65 1.65 0 0 0-1.53 1.62zm2.84-2.22l1.08 3.08a14 14 0 0 1 .44 1.41c.12-.45.28-.91.46-1.41l1.07-3.08h1l-2.05 5.49h-1l-2-5.49zm6.49-1.54a.62.62 0 0 1-1.24 0 .61.61 0 0 1 .62-.62.59.59 0 0 1 .62.62zm-1.11 7v-5.49h1v5.49zm3.5-2.53a1.76 1.76 0 0 0 1.88 1.9 3.61 3.61 0 0 0 1.52-.28l.17.71a4.45 4.45 0 0 1-1.83.34 2.55 2.55 0 0 1-2.7-2.77 2.66 2.66 0 0 1 2.57-3 2.32 2.32 0 0 1 2.27 2.58 3.92 3.92 0 0 1 0 .46zm2.93-.71a1.42 1.42 0 0 0-1.38-1.62 1.65 1.65 0 0 0-1.53 1.62zm2.88-2.22l.73 2.79c.16.61.31 1.18.41 1.75.12-.56.31-1.15.49-1.73l.9-2.8h.84l.85 2.74c.2.66.36 1.24.49 1.79a16.71 16.71 0 0 1 .42-1.78l.78-2.75h1l-1.77 5.49H603l-.84-2.62a18.55 18.55 0 0 1-.49-1.8 16.08 16.08 0 0 1-.5 1.81l-.88 2.61h-.91l-1.66-5.49z"/><path class="cls-4" d="M529.17 140.82a11.46 11.46 0 0 1 1.89-.15 3.14 3.14 0 0 1 2.14.64 2.05 2.05 0 0 1 .67 1.6 2.25 2.25 0 0 1-.59 1.63 3.16 3.16 0 0 1-2.33.84 3.4 3.4 0 0 1-.79-.07v3.06h-1zm1 3.68a3.31 3.31 0 0 0 .82.08c1.19 0 1.92-.58 1.92-1.63s-.71-1.5-1.8-1.5a4.14 4.14 0 0 0-.93.08zm9.97 1.08a2.68 2.68 0 0 1-2.73 2.91 2.61 2.61 0 0 1-2.63-2.82 2.68 2.68 0 0 1 2.72-2.91 2.6 2.6 0 0 1 2.64 2.82zm-4.35.06c0 1.2.69 2.11 1.67 2.11s1.67-.9 1.67-2.13c0-.93-.46-2.11-1.64-2.11s-1.71 1.08-1.71 2.13zm5.89-1.05v-1.71h.87v1.08a1.65 1.65 0 0 1 1.52-1.2 1.09 1.09 0 0 1 .28 0v.94a1.48 1.48 0 0 0-.34 0 1.4 1.4 0 0 0-1.3 1.3 2.83 2.83 0 0 0 0 .46v2.92h-1zm5.47-3.28v1.58h1.43v.76h-1.43v3c0 .68.19 1.07.75 1.07a2.21 2.21 0 0 0 .58-.07v.75a2.45 2.45 0 0 1-.88.14 1.38 1.38 0 0 1-1.08-.42 2 2 0 0 1-.39-1.43v-3h-.85v-.76h.85v-1.31zm2.94 7.06v-4.73h-.77v-.76h.77v-.26a2.59 2.59 0 0 1 .63-1.92 1.91 1.91 0 0 1 1.34-.51 2.32 2.32 0 0 1 .85.16l-.14.77a1.49 1.49 0 0 0-.63-.12c-.85 0-1.07.75-1.07 1.59v.29h1.33v.76h-1.33v4.73zm8.31-2.79a2.68 2.68 0 0 1-2.73 2.91 2.61 2.61 0 0 1-2.67-2.82 2.68 2.68 0 0 1 2.72-2.91 2.6 2.6 0 0 1 2.68 2.82zm-4.35.06c0 1.2.69 2.11 1.67 2.11s1.67-.9 1.67-2.13c0-.93-.46-2.11-1.64-2.11s-1.75 1.08-1.75 2.13zm5.9-5.32h1v8h-1zm4.05 1.02a.62.62 0 0 1-1.24 0 .61.61 0 0 1 .62-.62.59.59 0 0 1 .62.62zm-1.11 7v-5.49h1v5.49zm7.92-2.76a2.68 2.68 0 0 1-2.73 2.91 2.61 2.61 0 0 1-2.63-2.82 2.68 2.68 0 0 1 2.72-2.91 2.6 2.6 0 0 1 2.64 2.82zm-4.35.06c0 1.2.69 2.11 1.67 2.11s1.67-.9 1.67-2.13c0-.93-.46-2.11-1.64-2.11s-1.7 1.08-1.7 2.13zm9.61-4.91v7.64h-1v-7.64zm2.08 3.64v-1.49h.85l.06.91a2 2 0 0 1 1.81-1c.76 0 1.94.45 1.94 2.34v3.28h-1v-3.16c0-.88-.33-1.62-1.27-1.62a1.46 1.46 0 0 0-1.41 1.48v3.3h-1zm7.74-3.06v1.58h1.43v.76h-1.43v3c0 .68.19 1.07.75 1.07a2.21 2.21 0 0 0 .58-.07v.75a2.45 2.45 0 0 1-.88.14 1.38 1.38 0 0 1-1.08-.42 2 2 0 0 1-.38-1.43v-3h-.85v-.76h.85v-1.31zm3.32 4.5a1.76 1.76 0 0 0 1.88 1.9 3.61 3.61 0 0 0 1.52-.28l.17.71a4.45 4.45 0 0 1-1.83.34 2.55 2.55 0 0 1-2.7-2.77 2.66 2.66 0 0 1 2.57-3 2.32 2.32 0 0 1 2.27 2.58 3.92 3.92 0 0 1 0 .46zm2.93-.71a1.42 1.42 0 0 0-1.38-1.62 1.65 1.65 0 0 0-1.53 1.62zm2.48-.51v-1.71h.87v1.08a1.65 1.65 0 0 1 1.52-1.2 1.09 1.09 0 0 1 .28 0v.94a1.48 1.48 0 0 0-.34 0 1.4 1.4 0 0 0-1.29 1.3 2.82 2.82 0 0 0 0 .46v2.92h-1zm4.67-1.71l1.07 3.12a14 14 0 0 1 .44 1.41c.12-.45.28-.91.46-1.41l1.07-3.08h1l-2.15 5.49h-1l-2.09-5.49zm6.46-1.54a.62.62 0 0 1-1.24 0 .61.61 0 0 1 .62-.62.59.59 0 0 1 .62.62zm-1.11 7v-5.49h1v5.49zm3.49-2.53a1.76 1.76 0 0 0 1.88 1.9 3.61 3.61 0 0 0 1.52-.28l.17.71a4.45 4.45 0 0 1-1.83.34 2.55 2.55 0 0 1-2.7-2.77 2.66 2.66 0 0 1 2.57-3 2.32 2.32 0 0 1 2.27 2.58 3.92 3.92 0 0 1 0 .46zm2.93-.71a1.42 1.42 0 0 0-1.38-1.62 1.65 1.65 0 0 0-1.53 1.62zm2.88-2.22l.73 2.79c.16.61.31 1.18.41 1.75.12-.56.31-1.15.49-1.73l.9-2.8h.84l.85 2.74c.2.66.36 1.24.49 1.79a16.71 16.71 0 0 1 .42-1.78l.78-2.75h1l-1.77 5.49h-.91l-.84-2.62a18.55 18.55 0 0 1-.49-1.8 16.08 16.08 0 0 1-.5 1.81l-.88 2.61h-.91l-1.66-5.49zm10.11 3.32v-.29a2.6 2.6 0 0 1 .7-2 2.49 2.49 0 0 0 .79-1.55c0-.58-.36-1-1.08-1a2 2 0 0 0-1.14.35l-.27-.71a3 3 0 0 1 1.62-.45 1.68 1.68 0 0 1 1.89 1.67 3.07 3.07 0 0 1-1 2 2.24 2.24 0 0 0-.65 1.67v.29zm-.25 1.59a.67.67 0 0 1 .68-.71.71.71 0 1 1-.68.71z"/><path class="cls-3" d="M529.8 84.13h-1.5v-.54h3.64v.54h-1.5v4.37h-.64zm4.72 4.37v-2.08L533 83.59h.72l.69 1.36c.19.37.33.67.49 1 .14-.32.31-.64.5-1l.71-1.36h.72l-1.65 2.82v2.09zm3.48-4.86a7.32 7.32 0 0 1 1.22-.1 2 2 0 0 1 1.38.41 1.32 1.32 0 0 1 .43 1 1.45 1.45 0 0 1-.34 1.05 2 2 0 0 1-1.5.54 2.17 2.17 0 0 1-.51 0v2H538zm.68 2.36a2.12 2.12 0 0 0 .52.05c.77 0 1.23-.37 1.23-1.05s-.46-1-1.16-1a2.65 2.65 0 0 0-.6.05zm6.52.2h-1.91V88h2.13v.53h-2.77v-4.94h2.66v.53h-2v1.55h1.89zm1.68 1.53A2.25 2.25 0 0 0 548 88c.65 0 1-.34 1-.84s-.26-.72-.93-1-1.3-.7-1.3-1.39a1.42 1.42 0 0 1 1.59-1.33 2.23 2.23 0 0 1 1.09.24l-.17.52a2 2 0 0 0-.93-.23c-.67 0-.93.4-.93.74s.3.69 1 .95c.83.32 1.25.72 1.25 1.44s-.56 1.41-1.72 1.41a2.54 2.54 0 0 1-1.25-.31zM557.77 86a2.3 2.3 0 0 1-2.28 2.59 2.25 2.25 0 0 1-2.21-2.49 2.33 2.33 0 0 1 2.28-2.58 2.24 2.24 0 0 1 2.21 2.48zm-3.77.07c0 1.05.57 2 1.57 2s1.58-.93 1.58-2-.51-2-1.57-2-1.58.93-1.58 2zm5.32-2.48H562v.53h-2v1.63h1.86v.52H560v2.23h-.63zM570 86.34c0-.69-.08-1.51-.07-2.12-.17.58-.37 1.19-.62 1.87l-.87 2.38H568l-.79-2.34c-.23-.69-.43-1.33-.57-1.91 0 .61-.05 1.44-.09 2.17l-.13 2.11h-.61l.34-4.92h.81l.78 2.42c.2.61.37 1.15.5 1.66.12-.5.3-1 .52-1.66l.88-2.38h.81l.31 4.92h-.62zm5-.14h-1.89V88h2.13v.53h-2.77v-4.94h2.65v.53h-2v1.55H575zm4.33 0h-1.91V88h2.13v.53h-2.76v-4.94h2.65v.53h-2v1.55h1.91zm2.83-2.07h-1.5v-.54h3.64v.54h-1.5v4.37h-.64zm4.05-.54v4.91h-.63v-4.91zM588 88.5v-4.91h.69l1.58 2.49a13.82 13.82 0 0 1 .88 1.6c-.06-.66-.07-1.25-.07-2v-2.09h.6v4.91h-.58l-1.56-2.5a15.58 15.58 0 0 1-.92-1.64c0 .62.05 1.21.05 2v2.1zm9.32-.22a4.58 4.58 0 0 1-1.51.27 2.31 2.31 0 0 1-2.52-2.48 2.46 2.46 0 0 1 2.66-2.54 3 3 0 0 1 1.23.23l-.15.52a2.55 2.55 0 0 0-1.09-.21 1.84 1.84 0 0 0-2 2 1.8 1.8 0 0 0 1.9 2 2.06 2.06 0 0 0 .85-.13v-1.51h-1v-.51h1.62zm1.61-.55a2.25 2.25 0 0 0 1.14.32c.65 0 1-.34 1-.84s-.26-.72-.93-1-1.3-.7-1.3-1.39a1.42 1.42 0 0 1 1.59-1.33 2.23 2.23 0 0 1 1.09.24l-.17.52a2 2 0 0 0-.93-.23c-.67 0-.93.4-.93.74s.3.69 1 .95c.83.32 1.25.72 1.25 1.44s-.56 1.41-1.72 1.41a2.54 2.54 0 0 1-1.25-.31zM529 226.21a3.5 3.5 0 0 0 1.77.5c1 0 1.6-.53 1.6-1.3s-.37-1.13-1.37-1.53c-1.25-.44-2-1.09-2-2.17a2.2 2.2 0 0 1 2.47-2.07 3.48 3.48 0 0 1 1.69.37l-.27.81a3 3 0 0 0-1.45-.36c-1 0-1.44.62-1.44 1.15 0 .71.46 1.07 1.52 1.47 1.29.5 2 1.12 2 2.25s-.87 2.2-2.68 2.2a4 4 0 0 1-2-.49zm10.6-.3v1.5h-.88l-.06-.9a2.06 2.06 0 0 1-1.81 1c-.86 0-1.89-.48-1.89-2.4v-3.21h1v3c0 1 .32 1.75 1.22 1.75a1.44 1.44 0 0 0 1.32-.91 1.46 1.46 0 0 0 .09-.51v-3.37h1zm1.95-2.5v-1.49h.88l.06.91a2 2 0 0 1 1.81-1c.76 0 1.94.45 1.94 2.34v3.28h-1v-3.16c0-.88-.33-1.62-1.27-1.62a1.46 1.46 0 0 0-1.41 1.48v3.3h-1zm11.31-4.05v8.06H552v-1a2 2 0 0 1-1.87 1.08 2.5 2.5 0 0 1-2.35-2.79c0-1.83 1.12-2.95 2.46-2.95a1.84 1.84 0 0 1 1.66.84v-3.28zm-1 4.8a1.76 1.76 0 0 0 0-.42 1.47 1.47 0 0 0-1.44-1.16c-1 0-1.64.91-1.64 2.12s.54 2 1.62 2a1.5 1.5 0 0 0 1.46-1.19 1.72 1.72 0 0 0 0-.43zm5.99 3.25l-.08-.69a2 2 0 0 1-1.68.82 1.56 1.56 0 0 1-1.71-1.54c0-1.33 1.18-2.05 3.3-2v-.11a1.13 1.13 0 0 0-1.25-1.27 2.73 2.73 0 0 0-1.43.41l-.23-.66a3.4 3.4 0 0 1 1.8-.49c1.68 0 2.09 1.15 2.09 2.24v2.05a7.69 7.69 0 0 0 .09 1.31zm-.15-2.8c-1.09 0-2.32.17-2.32 1.24a.88.88 0 0 0 .94 1 1.36 1.36 0 0 0 1.33-.92 1 1 0 0 0 .06-.32zm3.13-2.69l1.2 3.24c.13.36.26.79.35 1.12.1-.33.22-.75.35-1.15l1.09-3.22h1.08l-1.5 3.91c-.71 1.88-1.2 2.85-1.88 3.44a2.71 2.71 0 0 1-1.22.65l-.25-.84a2.64 2.64 0 0 0 .87-.49 3 3 0 0 0 .84-1.11.72.72 0 0 0 .08-.24.86.86 0 0 0-.07-.26l-2-5.06zm5.06 4.47a2.61 2.61 0 0 0 1.32.4c.73 0 1.07-.36 1.07-.82s-.28-.74-1-1c-1-.35-1.45-.9-1.45-1.55a1.69 1.69 0 0 1 1.89-1.61 2.74 2.74 0 0 1 1.35.34l-.25.73a2.14 2.14 0 0 0-1.12-.32c-.59 0-.92.34-.92.75s.33.66 1 .93c1 .36 1.44.84 1.44 1.65s-.75 1.64-2.05 1.64a3.13 3.13 0 0 1-1.54-.37zm-35.27 14.45h-2.32V240h5.7v.84h-2.38v6.8h-1zm8.52 5.31v1.5h-.84l-.06-.9a2.07 2.07 0 0 1-1.81 1c-.86 0-1.89-.48-1.89-2.4v-3.21h1v3c0 1 .32 1.75 1.22 1.75a1.4 1.4 0 0 0 1.41-1.42v-3.37h1zm2.5-1.07a1.76 1.76 0 0 0 1.88 1.9 3.6 3.6 0 0 0 1.48-.28l.17.71a4.45 4.45 0 0 1-1.83.34 2.55 2.55 0 0 1-2.7-2.77 2.66 2.66 0 0 1 2.57-3 2.32 2.32 0 0 1 2.27 2.58 3.67 3.67 0 0 1 0 .46zm2.92-.71a1.42 1.42 0 0 0-1.38-1.62 1.65 1.65 0 0 0-1.53 1.62zm2.35 2.26a2.62 2.62 0 0 0 1.32.4c.73 0 1.07-.36 1.07-.82s-.28-.74-1-1c-1-.35-1.45-.9-1.45-1.55a1.69 1.69 0 0 1 1.87-1.66 2.74 2.74 0 0 1 1.35.34l-.25.73a2.14 2.14 0 0 0-1.12-.32c-.59 0-.92.34-.92.75s.33.66 1 .93c1 .36 1.44.84 1.44 1.65s-.75 1.64-2.05 1.64a3.13 3.13 0 0 1-1.54-.37zm9.65-7.03v8.05h-.9v-1a2 2 0 0 1-1.87 1.08 2.5 2.5 0 0 1-2.36-2.73c0-1.83 1.12-2.95 2.46-2.95a1.84 1.84 0 0 1 1.66.84v-3.29zm-1 4.8a1.76 1.76 0 0 0 0-.42 1.47 1.47 0 0 0-1.44-1.16c-1 0-1.64.91-1.64 2.12s.54 2 1.62 2a1.5 1.5 0 0 0 1.46-1.19 1.72 1.72 0 0 0 0-.43zm5.98 3.25l-.08-.69a2 2 0 0 1-1.68.82 1.56 1.56 0 0 1-1.68-1.58c0-1.33 1.18-2.05 3.3-2v-.2a1.13 1.13 0 0 0-1.25-1.27 2.73 2.73 0 0 0-1.43.41l-.23-.66a3.41 3.41 0 0 1 1.8-.49c1.68 0 2.09 1.15 2.09 2.25v2.05a7.79 7.79 0 0 0 .09 1.32zm-.15-2.8c-1.09 0-2.32.17-2.32 1.24a.88.88 0 0 0 .94 1 1.37 1.37 0 0 0 1.33-.92 1.06 1.06 0 0 0 .06-.32zm3.14-2.69l1.2 3.24c.13.36.26.79.35 1.12.1-.33.22-.75.35-1.14l1.09-3.22h1.08l-1.5 3.91c-.71 1.88-1.2 2.85-1.88 3.44a2.7 2.7 0 0 1-1.22.65l-.25-.84a2.62 2.62 0 0 0 .87-.49 3 3 0 0 0 .84-1.11.7.7 0 0 0 .08-.24.87.87 0 0 0-.07-.26l-2-5.06zm5.06 4.47a2.62 2.62 0 0 0 1.32.4c.73 0 1.07-.36 1.07-.82s-.28-.74-1-1c-1-.35-1.45-.9-1.45-1.55a1.69 1.69 0 0 1 1.86-1.66 2.75 2.75 0 0 1 1.35.34l-.25.73a2.13 2.13 0 0 0-1.12-.32c-.59 0-.92.34-.92.75s.33.66 1 .93c1 .36 1.44.84 1.44 1.65s-.75 1.64-2.05 1.64a3.13 3.13 0 0 1-1.54-.37zm9.91-2.42v.74h-2.8v-.74zm4.18-4.21h4.12v.83h-3.14v2.54h2.89v.82h-2.89v3.46h-1zm5.48 3.87v-1.71h.84v1.08a1.65 1.65 0 0 1 1.52-1.2 1.09 1.09 0 0 1 .28 0v.96a1.45 1.45 0 0 0-.34 0 1.4 1.4 0 0 0-1.34 1.28 2.82 2.82 0 0 0 0 .46v2.92h-1zm5.15-3.25a.62.62 0 0 1-1.24 0 .61.61 0 0 1 .62-.62.59.59 0 0 1 .62.62zm-1.11 7v-5.49h1v5.49zm7.67-8.02v8.05H600v-1a2 2 0 0 1-1.87 1.08 2.5 2.5 0 0 1-2.39-2.73c0-1.83 1.12-2.95 2.46-2.95a1.83 1.83 0 0 1 1.66.84v-3.29zm-1 4.8a1.76 1.76 0 0 0 0-.42 1.47 1.47 0 0 0-1.44-1.16c-1 0-1.64.91-1.64 2.12s.54 2 1.62 2a1.5 1.5 0 0 0 1.46-1.19 1.72 1.72 0 0 0 0-.43zm5.98 3.25l-.08-.69a2 2 0 0 1-1.68.82 1.56 1.56 0 0 1-1.68-1.58c0-1.33 1.18-2.05 3.3-2v-.2a1.13 1.13 0 0 0-1.25-1.27 2.73 2.73 0 0 0-1.43.41l-.23-.66a3.4 3.4 0 0 1 1.8-.49c1.68 0 2.09 1.15 2.09 2.25v2.05a7.69 7.69 0 0 0 .09 1.32zm-.15-2.8c-1.09 0-2.32.17-2.32 1.24a.88.88 0 0 0 .94 1 1.37 1.37 0 0 0 1.33-.92 1 1 0 0 0 .06-.32zm3.14-2.69l1.2 3.24c.12.36.26.79.35 1.12.1-.33.21-.75.35-1.14l1.09-3.22h1.05l-1.5 3.91c-.71 1.88-1.2 2.85-1.88 3.44a2.69 2.69 0 0 1-1.22.65l-.25-.84a2.63 2.63 0 0 0 .87-.49 3 3 0 0 0 .84-1.11.72.72 0 0 0 .08-.24.87.87 0 0 0-.07-.26l-2-5.06zm5.06 4.47a2.62 2.62 0 0 0 1.32.4c.73 0 1.07-.36 1.07-.82s-.28-.74-1-1c-1-.35-1.45-.9-1.45-1.55a1.69 1.69 0 0 1 1.86-1.66 2.75 2.75 0 0 1 1.35.34l-.25.73a2.14 2.14 0 0 0-1.12-.32c-.59 0-.92.34-.92.75s.33.66 1 .93c1 .36 1.44.84 1.44 1.65s-.75 1.64-2.05 1.64a3.13 3.13 0 0 1-1.54-.37z"/><path class="cls-5" d="M527.27 313.66V313l.89-.87c2.15-2 3.13-3.14 3.14-4.41a1.5 1.5 0 0 0-1.67-1.72 2.87 2.87 0 0 0-1.79.71l-.36-.8a3.7 3.7 0 0 1 2.39-.86 2.37 2.37 0 0 1 2.58 2.45c0 1.56-1.13 2.81-2.91 4.53l-.67.62h3.79v.95zm9.13-7.36l-1.47.79-.22-.87 1.84-1h1v8.43h-1.15zm7.33-1.3a11.71 11.71 0 0 1 2.17-.18 3.58 3.58 0 0 1 2.53.71 2.18 2.18 0 0 1 .69 1.66 2.3 2.3 0 0 1-1.65 2.23 2.18 2.18 0 0 1 1.28 1.76 14 14 0 0 0 .67 2.4h-1.17a11.32 11.32 0 0 1-.58-2.09c-.26-1.21-.73-1.66-1.75-1.7h-1.07v3.79h-1.12zm1.13 4H546c1.21 0 2-.66 2-1.66s-.82-1.62-2-1.63a4.65 4.65 0 0 0-1.12.1zm6.49 1.73a2 2 0 0 0 2.15 2.18 4.13 4.13 0 0 0 1.74-.32l.19.82a5.08 5.08 0 0 1-2.09.39 2.92 2.92 0 0 1-3.09-3.17c0-1.89 1.12-3.38 2.94-3.38 2 0 2.59 1.8 2.59 3a4.34 4.34 0 0 1 0 .53zm3.35-.82a1.63 1.63 0 0 0-1.58-1.85 1.89 1.89 0 0 0-1.75 1.85zm2.95-2.52l1.23 3.53a16.06 16.06 0 0 1 .51 1.61c.14-.52.32-1 .53-1.61l1.22-3.53h1.19l-2.46 6.28h-1.05l-2.39-6.28zm7.07-1.77a.71.71 0 0 1-1.41 0 .7.7 0 0 1 .71-.71.68.68 0 0 1 .7.71zm-1.27 8v-6.28h1.14v6.28zm3.66-2.89a2 2 0 0 0 2.15 2.18 4.13 4.13 0 0 0 1.74-.32l.19.82a5.08 5.08 0 0 1-2.09.39 2.92 2.92 0 0 1-3.1-3.17c0-1.89 1.12-3.38 2.94-3.38 2 0 2.59 1.8 2.59 3a4.34 4.34 0 0 1 0 .53zm3.35-.82a1.63 1.63 0 0 0-1.58-1.85 1.89 1.89 0 0 0-1.75 1.85zm2.97-2.52l.83 3.19c.18.7.35 1.35.47 2 .14-.64.35-1.31.56-2l1-3.2h1l1 3.14c.23.75.42 1.41.56 2a18.93 18.93 0 0 1 .48-2l.89-3.15h1.13l-2 6.28h-1l-1-3a20.76 20.76 0 0 1-.56-2.06 18.7 18.7 0 0 1-.57 2.08l-1 3h-1l-1.89-6.28zm8.85 5.11a3 3 0 0 0 1.5.45c.83 0 1.22-.42 1.22-.93s-.32-.84-1.17-1.15c-1.13-.4-1.66-1-1.66-1.78a1.94 1.94 0 0 1 2.17-1.84 3.12 3.12 0 0 1 1.54.39l-.29.83a2.44 2.44 0 0 0-1.28-.36c-.67 0-1 .39-1 .86s.38.75 1.19 1.06c1.09.42 1.65 1 1.65 1.89 0 1.1-.86 1.88-2.35 1.88a3.58 3.58 0 0 1-1.76-.43zm-58.58 50.92a13.22 13.22 0 0 1 1.07-2.7l.63-.07a16 16 0 0 0-.67 2.65zm1.69 0a13.27 13.27 0 0 1 1.05-2.7l.64-.07a15.79 15.79 0 0 0-.67 2.65zm3.09-2.54a10.23 10.23 0 0 1 1.89-.16 3.13 3.13 0 0 1 2.21.62 1.91 1.91 0 0 1 .6 1.45 2 2 0 0 1-1.44 2 1.91 1.91 0 0 1 1.12 1.54 12.09 12.09 0 0 0 .59 2.1h-1a9.91 9.91 0 0 1-.51-1.83c-.23-1.05-.63-1.45-1.53-1.49h-.93v3.31h-1zm1 3.48h1c1.05 0 1.72-.58 1.72-1.45s-.71-1.42-1.76-1.43a4 4 0 0 0-1 .09zm10.36 1.27a2.68 2.68 0 0 1-2.73 2.91 2.61 2.61 0 0 1-2.63-2.82 2.68 2.68 0 0 1 2.72-2.91 2.6 2.6 0 0 1 2.64 2.82zm-4.35.06c0 1.2.69 2.11 1.67 2.11s1.67-.9 1.67-2.13c0-.93-.46-2.11-1.64-2.11s-1.7 1.09-1.7 2.13zm5.85 2.73v-8.05h1v3.45a2 2 0 0 1 1.87-1c1.36 0 2.32 1.13 2.31 2.8 0 2-1.24 2.94-2.46 2.94a2 2 0 0 1-1.84-1v.91zm1-2.2a1.81 1.81 0 0 0 0 .36 1.54 1.54 0 0 0 1.5 1.17c1 0 1.67-.85 1.67-2.11 0-1.1-.57-2-1.63-2a1.59 1.59 0 0 0-1.52 1.22 2 2 0 0 0-.06.41zm6.34-.36a1.76 1.76 0 0 0 1.88 1.9 3.6 3.6 0 0 0 1.52-.28l.17.71a4.45 4.45 0 0 1-1.83.34 2.55 2.55 0 0 1-2.7-2.77 2.66 2.66 0 0 1 2.57-3 2.32 2.32 0 0 1 2.27 2.58 3.67 3.67 0 0 1 0 .46zm2.92-.71a1.42 1.42 0 0 0-1.38-1.62 1.65 1.65 0 0 0-1.53 1.62zm2.49-.5v-1.71h.87L555 364a1.65 1.65 0 0 1 1.52-1.2 1.09 1.09 0 0 1 .28 0v.94a1.46 1.46 0 0 0-.34 0 1.4 1.4 0 0 0-1.34 1.26 2.71 2.71 0 0 0 0 .46v2.92h-1zm5.47-3.29v1.58H561v.76h-1.44v3c0 .68.19 1.07.75 1.07a2.21 2.21 0 0 0 .58-.07v.75a2.45 2.45 0 0 1-.88.14 1.38 1.38 0 0 1-1.08-.42 2 2 0 0 1-.39-1.43v-3h-.85v-.76h.85v-1.32zm5.92 1.58l.73 2.79c.16.61.31 1.18.41 1.75.13-.56.31-1.15.49-1.74l.9-2.8h.84l.85 2.74c.2.66.36 1.24.49 1.79a16.49 16.49 0 0 1 .42-1.78l.78-2.75h1l-1.77 5.49h-.91l-.84-2.62a18.29 18.29 0 0 1-.49-1.8 16.51 16.51 0 0 1-.5 1.81l-.88 2.6h-.91l-1.66-5.49zm11.23 5.48l-.08-.69a2 2 0 0 1-1.68.82 1.56 1.56 0 0 1-1.71-1.55c0-1.33 1.18-2.05 3.3-2v-.11a1.13 1.13 0 0 0-1.25-1.27 2.73 2.73 0 0 0-1.43.41l-.23-.66a3.41 3.41 0 0 1 1.8-.49c1.68 0 2.09 1.15 2.09 2.25v2.05a7.69 7.69 0 0 0 .09 1.32zm-.15-2.8c-1.09 0-2.32.17-2.32 1.24a.88.88 0 0 0 .94 1 1.37 1.37 0 0 0 1.33-.92 1 1 0 0 0 .06-.32zm2.73 1.78a2.62 2.62 0 0 0 1.32.4c.73 0 1.07-.36 1.07-.82s-.28-.74-1-1c-1-.35-1.45-.9-1.45-1.55a1.69 1.69 0 0 1 1.89-1.61 2.75 2.75 0 0 1 1.35.34l-.25.73a2.14 2.14 0 0 0-1.12-.32c-.59 0-.92.34-.92.75s.33.66 1 .93c1 .36 1.44.84 1.44 1.65s-.75 1.64-2.05 1.64a3.13 3.13 0 0 1-1.54-.37zm7.6-2.75v-1.71h.87v1.08a1.65 1.65 0 0 1 1.52-1.2 1.09 1.09 0 0 1 .28 0v.94a1.45 1.45 0 0 0-.34 0 1.4 1.4 0 0 0-1.3 1.24 2.82 2.82 0 0 0 0 .46v2.92h-1zm4.43 1.21a1.76 1.76 0 0 0 1.88 1.9 3.6 3.6 0 0 0 1.52-.28l.17.71a4.45 4.45 0 0 1-1.83.34 2.55 2.55 0 0 1-2.7-2.77 2.66 2.66 0 0 1 2.57-3 2.32 2.32 0 0 1 2.27 2.58 3.91 3.91 0 0 1 0 .46zm2.93-.71a1.42 1.42 0 0 0-1.38-1.62 1.65 1.65 0 0 0-1.53 1.62zm5.52 3.27l-.08-.69a2 2 0 0 1-1.68.82 1.56 1.56 0 0 1-1.71-1.55c0-1.33 1.18-2.05 3.3-2v-.11a1.13 1.13 0 0 0-1.25-1.27 2.73 2.73 0 0 0-1.43.41l-.23-.66a3.4 3.4 0 0 1 1.8-.49c1.68 0 2.09 1.15 2.09 2.25v2.05a7.69 7.69 0 0 0 .09 1.32zm-.15-2.8c-1.09 0-2.32.17-2.32 1.24a.88.88 0 0 0 .94 1 1.37 1.37 0 0 0 1.33-.92 1 1 0 0 0 .06-.32zm2.87-5.25h1v8h-1zm2.96 0h1v8h-1zm3.32 2.57l1.2 3.24c.12.36.26.79.35 1.12.1-.33.21-.75.35-1.14l1.09-3.22h1.05l-1.5 3.91c-.71 1.88-1.2 2.85-1.88 3.44a2.69 2.69 0 0 1-1.22.65l-.25-.84a2.63 2.63 0 0 0 .87-.49 3 3 0 0 0 .84-1.11.72.72 0 0 0 .08-.24.87.87 0 0 0-.07-.26l-2-5.06zm7.95 1.79v-1.79h.9v.94a2.16 2.16 0 0 1 2-1.07c1.33 0 2.32 1.12 2.32 2.79 0 2-1.2 2.95-2.49 2.95a1.92 1.92 0 0 1-1.69-.86v3h-1zm1 1.46a2.27 2.27 0 0 0 0 .41 1.54 1.54 0 0 0 1.5 1.17c1.05 0 1.67-.86 1.67-2.12 0-1.1-.58-2-1.63-2a1.59 1.59 0 0 0-1.51 1.24 1.62 1.62 0 0 0-.07.41zm8.78 2.23l-.08-.69a2 2 0 0 1-1.68.82A1.56 1.56 0 0 1 623 367c0-1.33 1.18-2.05 3.3-2v-.11a1.13 1.13 0 0 0-1.25-1.27 2.73 2.73 0 0 0-1.43.41l-.23-.66a3.4 3.4 0 0 1 1.8-.49c1.68 0 2.09 1.15 2.09 2.25v2.05a7.69 7.69 0 0 0 .09 1.32zm-.15-2.8c-1.09 0-2.32.17-2.32 1.24a.88.88 0 0 0 .94 1 1.37 1.37 0 0 0 1.33-.92 1 1 0 0 0 .06-.32zm4.02-4.26v1.58h1.43v.76h-1.43v3c0 .68.19 1.07.75 1.07a2.2 2.2 0 0 0 .58-.07v.75a2.45 2.45 0 0 1-.88.14 1.38 1.38 0 0 1-1.08-.42 2 2 0 0 1-.38-1.43v-3h-.85v-.76h.85v-1.32zm3.94.03a.62.62 0 0 1-1.24 0 .61.61 0 0 1 .62-.62.59.59 0 0 1 .62.62zm-1.11 7v-5.49h1v5.49zm3.5-2.53a1.76 1.76 0 0 0 1.88 1.9 3.6 3.6 0 0 0 1.52-.28l.17.71a4.45 4.45 0 0 1-1.83.34 2.55 2.55 0 0 1-2.7-2.77 2.66 2.66 0 0 1 2.57-3 2.32 2.32 0 0 1 2.27 2.58 3.91 3.91 0 0 1 0 .46zm2.93-.71a1.42 1.42 0 0 0-1.38-1.62 1.65 1.65 0 0 0-1.53 1.62zm2.48-.73v-1.49h.88l.06.91a2 2 0 0 1 1.81-1c.76 0 1.94.45 1.94 2.34v3.28h-1v-3.16c0-.88-.33-1.62-1.27-1.62a1.46 1.46 0 0 0-1.41 1.48v3.3h-1zm7.73-3.06v1.58h1.43v.76h-1.43v3c0 .68.19 1.07.75 1.07a2.2 2.2 0 0 0 .58-.07v.75a2.45 2.45 0 0 1-.88.14 1.38 1.38 0 0 1-1.08-.42 2 2 0 0 1-.38-1.43v-3H648v-.76h.85v-1.32zm8.57 7.06l-.08-.69a2 2 0 0 1-1.68.82 1.56 1.56 0 0 1-1.68-1.58c0-1.33 1.18-2.05 3.3-2v-.11a1.13 1.13 0 0 0-1.25-1.27 2.73 2.73 0 0 0-1.43.41l-.23-.66a3.4 3.4 0 0 1 1.8-.49c1.68 0 2.09 1.15 2.09 2.25v2.05a7.69 7.69 0 0 0 .09 1.32zm-.15-2.8c-1.09 0-2.32.17-2.32 1.24a.88.88 0 0 0 .94 1 1.37 1.37 0 0 0 1.33-.92 1 1 0 0 0 .06-.32zm2.86-1.2v-1.49h.88l.06.91a2 2 0 0 1 1.81-1c.76 0 1.94.45 1.94 2.34v3.28h-1v-3.16c0-.88-.33-1.62-1.27-1.62a1.46 1.46 0 0 0-1.41 1.48v3.3h-1zm11.32-4.05v8.05h-.9v-1a2 2 0 0 1-1.87 1.08 2.5 2.5 0 0 1-2.35-2.79c0-1.83 1.12-2.95 2.46-2.95a1.83 1.83 0 0 1 1.66.84v-3.28zm-1 4.8a1.76 1.76 0 0 0 0-.42 1.47 1.47 0 0 0-1.44-1.16c-1 0-1.64.91-1.64 2.12s.54 2 1.62 2a1.5 1.5 0 0 0 1.46-1.19 1.72 1.72 0 0 0 0-.43zm-142.3 12.22h1v3.42a1.84 1.84 0 0 1 .71-.7 2.06 2.06 0 0 1 1-.28c.74 0 1.92.45 1.92 2.35v3.26h-1v-3.15c0-.88-.33-1.63-1.27-1.63a1.43 1.43 0 0 0-1.34 1 1.21 1.21 0 0 0-.07.48v3.31h-1zm7.13 5.49a1.76 1.76 0 0 0 1.88 1.9 3.62 3.62 0 0 0 1.52-.28l.17.71a4.44 4.44 0 0 1-1.83.34 2.55 2.55 0 0 1-2.7-2.77 2.66 2.66 0 0 1 2.57-3 2.32 2.32 0 0 1 2.27 2.58 3.69 3.69 0 0 1 0 .46zm2.92-.71a1.42 1.42 0 0 0-1.38-1.62 1.65 1.65 0 0 0-1.53 1.62zm2.49-4.78h1v8h-1zm2.96 4.35v-1.79h.9v.94a2.16 2.16 0 0 1 2-1.07c1.33 0 2.32 1.12 2.32 2.79 0 2-1.2 2.95-2.49 2.95a1.93 1.93 0 0 1-1.69-.86v3h-1zm1 1.46a2.27 2.27 0 0 0 0 .41 1.54 1.54 0 0 0 1.5 1.17c1.05 0 1.67-.86 1.67-2.12 0-1.1-.58-2-1.63-2a1.59 1.59 0 0 0-1.51 1.24 1.64 1.64 0 0 0-.07.41zm6.3-.32a1.76 1.76 0 0 0 1.88 1.9 3.61 3.61 0 0 0 1.52-.28l.17.71a4.44 4.44 0 0 1-1.83.34 2.55 2.55 0 0 1-2.7-2.77 2.66 2.66 0 0 1 2.57-3 2.32 2.32 0 0 1 2.27 2.58 3.89 3.89 0 0 1 0 .46zm2.92-.71a1.42 1.42 0 0 0-1.38-1.62 1.65 1.65 0 0 0-1.53 1.62zm7.23-4.78v8.03h-.9v-1a2 2 0 0 1-1.87 1.08 2.5 2.5 0 0 1-2.32-2.73c0-1.83 1.12-2.95 2.46-2.95a1.84 1.84 0 0 1 1.66.84v-3.28zm-1 4.79a1.75 1.75 0 0 0 0-.42 1.47 1.47 0 0 0-1.44-1.16c-1 0-1.64.91-1.64 2.12s.54 2 1.62 2a1.5 1.5 0 0 0 1.37-1.15 1.73 1.73 0 0 0 0-.43zm5.63-.74v-1.49h.87v.88a1.89 1.89 0 0 1 1.72-1 1.62 1.62 0 0 1 1.55 1.1 2.26 2.26 0 0 1 .61-.71 1.87 1.87 0 0 1 1.21-.38c.73 0 1.8.48 1.8 2.38v3.23h-1v-3.11c0-1.05-.38-1.69-1.19-1.69a1.29 1.29 0 0 0-1.18.91 1.66 1.66 0 0 0-.08.5v3.39h-1v-3.29c0-.87-.38-1.51-1.14-1.51a1.49 1.49 0 0 0-1.32 1.49v3.31h-1zm10.28 1.44a1.76 1.76 0 0 0 1.88 1.9 3.62 3.62 0 0 0 1.52-.28l.17.71a4.44 4.44 0 0 1-1.83.34 2.55 2.55 0 0 1-2.7-2.77 2.66 2.66 0 0 1 2.57-3 2.32 2.32 0 0 1 2.27 2.58 3.93 3.93 0 0 1 0 .46zm2.93-.71a1.42 1.42 0 0 0-1.38-1.62 1.65 1.65 0 0 0-1.55 1.61zm9.78 1.77v1.5h-.88l-.06-.9a2.06 2.06 0 0 1-1.81 1c-.86 0-1.89-.48-1.89-2.4V380h1v3c0 1 .32 1.75 1.22 1.75a1.44 1.44 0 0 0 1.32-.91 1.46 1.46 0 0 0 .09-.51V380h1zm1.94-2.5v-1.49h.88l.06.91a2 2 0 0 1 1.81-1c.76 0 1.94.45 1.94 2.33v3.28h-1v-3.16c0-.88-.33-1.62-1.27-1.62a1.46 1.46 0 0 0-1.41 1.49v3.3h-1zm11.35-4.05v8.03h-.9v-1a2 2 0 0 1-1.87 1.08 2.5 2.5 0 0 1-2.35-2.79c0-1.83 1.12-2.95 2.46-2.95a1.83 1.83 0 0 1 1.66.84v-3.28zm-1 4.79a1.75 1.75 0 0 0 0-.42 1.47 1.47 0 0 0-1.44-1.16c-1 0-1.64.91-1.64 2.12s.54 2 1.62 2a1.5 1.5 0 0 0 1.46-1.19 1.73 1.73 0 0 0 0-.43zm3.47.7a1.76 1.76 0 0 0 1.88 1.9 3.61 3.61 0 0 0 1.52-.28l.17.71a4.44 4.44 0 0 1-1.83.34 2.55 2.55 0 0 1-2.7-2.77 2.66 2.66 0 0 1 2.57-3 2.32 2.32 0 0 1 2.27 2.58 3.93 3.93 0 0 1 0 .46zm2.93-.71a1.42 1.42 0 0 0-1.38-1.62 1.65 1.65 0 0 0-1.53 1.62zm2.48-.51v-1.71h.87v1.08a1.65 1.65 0 0 1 1.52-1.2 1.09 1.09 0 0 1 .28 0v.94a1.51 1.51 0 0 0-.34 0 1.4 1.4 0 0 0-1.34 1.28 2.83 2.83 0 0 0 0 .46v2.92h-1zm3.86 2.76a2.61 2.61 0 0 0 1.32.4c.73 0 1.07-.36 1.07-.82s-.28-.74-1-1c-1-.35-1.45-.9-1.45-1.55a1.69 1.69 0 0 1 1.89-1.61 2.74 2.74 0 0 1 1.35.34l-.25.73a2.14 2.14 0 0 0-1.12-.32c-.59 0-.92.34-.92.75s.33.66 1 .93c1 .36 1.44.84 1.44 1.66s-.75 1.64-2.05 1.64a3.13 3.13 0 0 1-1.54-.37zm6.11-6.04V380h1.43v.76h-1.43v3c0 .68.19 1.07.75 1.07a2.21 2.21 0 0 0 .58-.07v.75a2.45 2.45 0 0 1-.88.14 1.38 1.38 0 0 1-1.08-.42 2 2 0 0 1-.38-1.43v-3H619v-.8h.85v-1.31zm5.88 7.06l-.08-.69a2 2 0 0 1-1.68.82 1.56 1.56 0 0 1-1.68-1.58c0-1.33 1.18-2.05 3.3-2v-.11a1.13 1.13 0 0 0-1.25-1.27 2.74 2.74 0 0 0-1.43.41l-.23-.66a3.4 3.4 0 0 1 1.8-.49c1.68 0 2.09 1.14 2.09 2.24v2.05a7.69 7.69 0 0 0 .09 1.31zm-.15-2.8c-1.09 0-2.32.17-2.32 1.24a.88.88 0 0 0 .94 1 1.37 1.37 0 0 0 1.33-.92 1 1 0 0 0 .06-.32zm2.86-1.2v-1.49h.88l.06.91a2 2 0 0 1 1.81-1c.76 0 1.94.45 1.94 2.33v3.28h-1v-3.16c0-.88-.33-1.62-1.27-1.62a1.46 1.46 0 0 0-1.41 1.49v3.3h-1zm11.32-4.05v8.03h-.9v-1a2 2 0 0 1-1.87 1.08 2.5 2.5 0 0 1-2.35-2.79c0-1.83 1.12-2.95 2.46-2.95a1.83 1.83 0 0 1 1.66.84v-3.28zm-1 4.79a1.75 1.75 0 0 0 0-.42 1.47 1.47 0 0 0-1.44-1.16c-1 0-1.64.91-1.64 2.12s.54 2 1.62 2a1.5 1.5 0 0 0 1.46-1.19 1.73 1.73 0 0 0 0-.43zm6.83-3.8V380H648v.76h-1.43v3c0 .68.19 1.07.75 1.07a2.21 2.21 0 0 0 .58-.07v.75a2.45 2.45 0 0 1-.88.14 1.38 1.38 0 0 1-1.08-.42 2 2 0 0 1-.38-1.43v-3h-.85v-.8h.85v-1.31zm2.84-.99h1v3.42a1.85 1.85 0 0 1 .71-.7 2.05 2.05 0 0 1 1-.28c.74 0 1.92.45 1.92 2.35v3.26h-1v-3.15c0-.88-.33-1.63-1.27-1.63a1.43 1.43 0 0 0-1.34 1 1.21 1.21 0 0 0-.07.48v3.31h-1zm7.13 5.49a1.76 1.76 0 0 0 1.88 1.9 3.61 3.61 0 0 0 1.52-.28l.17.71a4.44 4.44 0 0 1-1.83.34 2.55 2.55 0 0 1-2.7-2.77 2.66 2.66 0 0 1 2.57-3 2.32 2.32 0 0 1 2.27 2.58 3.93 3.93 0 0 1 0 .46zm2.93-.71a1.42 1.42 0 0 0-1.38-1.62 1.65 1.65 0 0 0-1.53 1.62zm-130.35 16.28v-1.49h.86l.06.91a2 2 0 0 1 1.81-1c.76 0 1.94.45 1.94 2.34v3.28h-1v-3.16c0-.88-.33-1.62-1.27-1.62a1.42 1.42 0 0 0-1.34 1 1.45 1.45 0 0 0-.07.46v3.3h-1zm11.17 2.55v1.5h-.88l-.06-.9a2.07 2.07 0 0 1-1.81 1c-.86 0-1.89-.48-1.89-2.4V397h1v3c0 1 .32 1.75 1.22 1.75a1.4 1.4 0 0 0 1.41-1.42V397h1zm4.98 1.45l-.08-.69a2 2 0 0 1-1.68.82 1.56 1.56 0 0 1-1.71-1.58c0-1.33 1.18-2.05 3.3-2v-.11a1.13 1.13 0 0 0-1.25-1.27 2.73 2.73 0 0 0-1.43.41l-.23-.66a3.41 3.41 0 0 1 1.8-.49c1.68 0 2.09 1.15 2.09 2.25v2.05a7.79 7.79 0 0 0 .09 1.32zm-.15-2.8c-1.09 0-2.32.17-2.32 1.24a.88.88 0 0 0 .94 1 1.37 1.37 0 0 0 1.33-.92 1.06 1.06 0 0 0 .06-.32zm2.86-1.2v-1.49h.88l.06.91a2 2 0 0 1 1.81-1c.76 0 1.94.45 1.94 2.34v3.28h-1v-3.16c0-.88-.33-1.62-1.27-1.62a1.46 1.46 0 0 0-1.42 1.44v3.3h-1zm10.49 3.8a3.68 3.68 0 0 1-1.58.32 2.61 2.61 0 0 1-2.73-2.8 2.79 2.79 0 0 1 2.95-2.91 3.34 3.34 0 0 1 1.38.28l-.23.77a2.32 2.32 0 0 0-1.16-.26 2.07 2.07 0 0 0 0 4.13 2.85 2.85 0 0 0 1.22-.27zm1.94-2.36a1.76 1.76 0 0 0 1.88 1.9 3.6 3.6 0 0 0 1.52-.28l.17.71a4.46 4.46 0 0 1-1.83.34 2.55 2.55 0 0 1-2.7-2.77 2.66 2.66 0 0 1 2.57-3 2.33 2.33 0 0 1 2.27 2.58 3.87 3.87 0 0 1 0 .46zm2.92-.71a1.42 1.42 0 0 0-1.35-1.62 1.65 1.65 0 0 0-1.53 1.62zm2.36 2.25a2.62 2.62 0 0 0 1.32.4c.73 0 1.07-.36 1.07-.82s-.28-.74-1-1c-1-.35-1.45-.9-1.45-1.55a1.69 1.69 0 0 1 1.89-1.61 2.75 2.75 0 0 1 1.35.34l-.25.73a2.13 2.13 0 0 0-1.12-.32c-.59 0-.92.34-.92.75s.33.66 1 .93c1 .36 1.44.84 1.44 1.65s-.75 1.64-2.05 1.64a3.13 3.13 0 0 1-1.54-.37zm12.57-1.76a2.68 2.68 0 0 1-2.73 2.91 2.61 2.61 0 0 1-2.63-2.82 2.68 2.68 0 0 1 2.72-2.91 2.6 2.6 0 0 1 2.64 2.82zm-4.35.06c0 1.2.69 2.11 1.67 2.11s1.67-.9 1.67-2.13c0-.93-.46-2.11-1.64-2.11s-1.71 1.08-1.71 2.12zm5.99 2.72v-4.73h-.77V397h.77v-.26a2.59 2.59 0 0 1 .63-1.92 1.91 1.91 0 0 1 1.34-.51 2.32 2.32 0 0 1 .85.16l-.14.77a1.5 1.5 0 0 0-.63-.12c-.85 0-1.07.75-1.07 1.59v.29h1.33v.76h-1.32v4.73zm6.14 0v-8.05h1v3.45a2 2 0 0 1 1.87-1c1.36 0 2.32 1.13 2.31 2.8 0 2-1.24 2.94-2.46 2.94a2 2 0 0 1-1.84-1v.91zm1-2.2a1.89 1.89 0 0 0 0 .36 1.54 1.54 0 0 0 1.5 1.17c1 0 1.67-.85 1.67-2.11 0-1.1-.57-2-1.63-2a1.59 1.59 0 0 0-1.52 1.22 1.91 1.91 0 0 0-.06.41zm5.78-1.57v-1.71h.87v1.08a1.65 1.65 0 0 1 1.52-1.2 1.09 1.09 0 0 1 .28 0v.94a1.45 1.45 0 0 0-.34 0 1.4 1.4 0 0 0-1.34 1.28 2.82 2.82 0 0 0 0 .46v2.92h-1zm4.44 1.21a1.76 1.76 0 0 0 1.88 1.9 3.6 3.6 0 0 0 1.52-.28l.17.71a4.45 4.45 0 0 1-1.83.34 2.55 2.55 0 0 1-2.7-2.77 2.66 2.66 0 0 1 2.57-3 2.32 2.32 0 0 1 2.27 2.58 3.91 3.91 0 0 1 0 .46zm2.93-.71a1.42 1.42 0 0 0-1.38-1.62 1.65 1.65 0 0 0-1.53 1.62zm5.52 3.27l-.08-.69a2 2 0 0 1-1.68.82 1.56 1.56 0 0 1-1.71-1.58c0-1.33 1.18-2.05 3.3-2v-.11a1.13 1.13 0 0 0-1.25-1.27 2.73 2.73 0 0 0-1.43.41l-.23-.66a3.4 3.4 0 0 1 1.8-.49c1.68 0 2.09 1.15 2.09 2.25v2.05a7.69 7.69 0 0 0 .09 1.32zm-.15-2.8c-1.09 0-2.32.17-2.32 1.24a.88.88 0 0 0 .94 1 1.37 1.37 0 0 0 1.33-.92 1 1 0 0 0 .06-.32zm3.85-.17c.14-.19.33-.43.49-.62l1.61-1.89h1.2l-2.12 2.26 2.42 3.23h-1.21l-1.89-2.63-.51.57v2.06h-1v-8h1zm5.92-4.05a.62.62 0 0 1-1.24 0 .61.61 0 0 1 .62-.62.59.59 0 0 1 .62.62zm-1.11 7V397h1v5.49zm2.94-3.98v-1.49h.82l.06.91a2 2 0 0 1 1.81-1c.76 0 1.94.45 1.94 2.34v3.28h-1v-3.16c0-.88-.33-1.62-1.27-1.62a1.46 1.46 0 0 0-1.41 1.48v3.3h-1zm11.3-1.45v4.7a3.16 3.16 0 0 1-.78 2.51 2.91 2.91 0 0 1-2 .66 3.54 3.54 0 0 1-1.83-.45l.25-.76a3.1 3.1 0 0 0 1.61.43c1 0 1.77-.53 1.77-1.92v-.61a2 2 0 0 1-1.75.92 2.45 2.45 0 0 1-2.34-2.68 2.63 2.63 0 0 1 2.47-2.91 1.83 1.83 0 0 1 1.71 1v-.83zm-1 2.17a1.4 1.4 0 0 0-.06-.45 1.44 1.44 0 0 0-1.39-1.05c-1 0-1.63.8-1.63 2.08 0 1.08.54 2 1.62 2a1.46 1.46 0 0 0 1.38-1 1.74 1.74 0 0 0 .08-.53zm6.7-3.74a.62.62 0 0 1-1.24 0 .61.61 0 0 1 .62-.62.59.59 0 0 1 .62.62zm-1.11 7V397h1v5.49zm2.93-3.98v-1.49h.88l.06.91a2 2 0 0 1 1.81-1c.76 0 1.94.45 1.94 2.34v3.28h-1v-3.16c0-.88-.33-1.62-1.27-1.62a1.46 1.46 0 0 0-1.41 1.48v3.3h-1zm7.74-3.06V397h1.43v.76h-1.43v3c0 .68.19 1.07.75 1.07a2.2 2.2 0 0 0 .58-.07v.75a2.45 2.45 0 0 1-.88.14 1.38 1.38 0 0 1-1.08-.42 2 2 0 0 1-.38-1.43v-3h-.85v-.8h.85v-1.32zm7.74 4.28a2.68 2.68 0 0 1-2.73 2.91 2.61 2.61 0 0 1-2.63-2.82 2.68 2.68 0 0 1 2.72-2.91 2.6 2.6 0 0 1 2.64 2.82zm-4.35.06c0 1.2.69 2.11 1.67 2.11s1.67-.9 1.67-2.13c0-.93-.46-2.11-1.64-2.11s-1.71 1.08-1.71 2.12zm9.78-4.34V397h1.43v.76h-1.43v3c0 .68.19 1.07.75 1.07a2.2 2.2 0 0 0 .58-.07v.75a2.45 2.45 0 0 1-.88.14 1.38 1.38 0 0 1-1.08-.42 2 2 0 0 1-.38-1.43v-3h-.85v-.8h.85v-1.32zm2.84-.99h1v3.42a1.85 1.85 0 0 1 .71-.7 2.05 2.05 0 0 1 1-.28c.74 0 1.92.45 1.92 2.35v3.27h-1v-3.16c0-.88-.33-1.63-1.27-1.63a1.43 1.43 0 0 0-1.34 1 1.21 1.21 0 0 0-.07.48v3.31h-1zm7.13 5.49a1.76 1.76 0 0 0 1.88 1.9 3.6 3.6 0 0 0 1.52-.28l.17.71a4.45 4.45 0 0 1-1.83.34 2.55 2.55 0 0 1-2.7-2.77 2.66 2.66 0 0 1 2.57-3 2.32 2.32 0 0 1 2.27 2.58 3.91 3.91 0 0 1 0 .46zm2.93-.71a1.42 1.42 0 0 0-1.38-1.62 1.65 1.65 0 0 0-1.53 1.62zm-140.57 20.29v-4.73h-.77V414h.77v-.29a2.2 2.2 0 0 1 2.39-2.39 2.75 2.75 0 0 1 1.39.36l-.28.76a2.1 2.1 0 0 0-1.16-.32c-1.05 0-1.36.74-1.36 1.61v.27h3.19v5.49h-1v-4.73h-2.2v4.73zm6.11-4v-1.49h.88l.06.91a2 2 0 0 1 1.81-1c.76 0 1.94.45 1.94 2.34v3.28H539v-3.16c0-.88-.33-1.62-1.27-1.62a1.46 1.46 0 0 0-1.41 1.48v3.3h-1zm9.65 4l-.08-.69a2 2 0 0 1-1.68.82 1.56 1.56 0 0 1-1.74-1.6c0-1.33 1.18-2.05 3.3-2v-.11a1.13 1.13 0 0 0-1.25-1.27 2.73 2.73 0 0 0-1.43.41l-.23-.66a3.4 3.4 0 0 1 1.8-.49c1.68 0 2.09 1.15 2.09 2.25v2.05a7.69 7.69 0 0 0 .09 1.32zm-.15-2.8c-1.09 0-2.32.17-2.32 1.24a.88.88 0 0 0 .94 1 1.37 1.37 0 0 0 1.33-.92 1 1 0 0 0 .06-.32zm2.83-1.2v-1.49h.88l.06.91a2 2 0 0 1 1.81-1c.76 0 1.94.45 1.94 2.34v3.28h-1v-3.16c0-.88-.33-1.62-1.27-1.62a1.42 1.42 0 0 0-1.34 1 1.45 1.45 0 0 0-.07.46v3.3h-1zm10.49 3.8a3.68 3.68 0 0 1-1.58.32 2.61 2.61 0 0 1-2.73-2.8 2.79 2.79 0 0 1 2.95-2.91 3.34 3.34 0 0 1 1.38.28l-.23.77a2.31 2.31 0 0 0-1.16-.26 2.07 2.07 0 0 0 0 4.13 2.84 2.84 0 0 0 1.22-.27zm1.95-2.36a1.76 1.76 0 0 0 1.88 1.9 3.6 3.6 0 0 0 1.52-.28l.17.71a4.45 4.45 0 0 1-1.83.34 2.55 2.55 0 0 1-2.7-2.77 2.66 2.66 0 0 1 2.57-3 2.32 2.32 0 0 1 2.27 2.63 3.67 3.67 0 0 1 0 .46zm2.92-.71a1.42 1.42 0 0 0-1.38-1.62 1.65 1.65 0 0 0-1.53 1.62zm6.29-3.76a.62.62 0 0 1-1.24 0 .61.61 0 0 1 .62-.62.59.59 0 0 1 .62.62zm-1.11 7V414h1v5.49zm2.93-3.97v-1.49h.85l.06.91a2 2 0 0 1 1.81-1c.76 0 1.94.45 1.94 2.34v3.28h-1v-3.16c0-.88-.33-1.62-1.27-1.62a1.42 1.42 0 0 0-1.34 1 1.45 1.45 0 0 0-.07.46v3.3h-1zm11.32-4.05v8.05h-.9v-1a2 2 0 0 1-1.87 1.08 2.5 2.5 0 0 1-2.35-2.79c0-1.83 1.12-2.95 2.46-2.95a1.83 1.83 0 0 1 1.66.84v-3.28zm-1 4.8a1.76 1.76 0 0 0 0-.42 1.47 1.47 0 0 0-1.47-1.16c-1 0-1.64.91-1.64 2.12s.54 2 1.62 2a1.5 1.5 0 0 0 1.46-1.19 1.72 1.72 0 0 0 0-.43zM589 418v1.5h-.88l-.06-.9a2.07 2.07 0 0 1-1.81 1c-.86 0-1.89-.48-1.89-2.4V414h1v3c0 1 .32 1.75 1.22 1.75a1.4 1.4 0 0 0 1.42-1.4V414h1zm1.81.45a2.62 2.62 0 0 0 1.32.4c.73 0 1.07-.36 1.07-.82s-.28-.74-1-1c-1-.35-1.45-.9-1.45-1.55a1.69 1.69 0 0 1 1.89-1.61 2.75 2.75 0 0 1 1.35.34l-.25.73a2.14 2.14 0 0 0-1.12-.32c-.59 0-.92.34-.92.75s.33.66 1 .93c1 .36 1.44.84 1.44 1.65s-.75 1.64-2.05 1.64a3.13 3.13 0 0 1-1.54-.37zm6.12-6.04V414h1.43v.76h-1.43v3c0 .68.19 1.07.75 1.07a2.2 2.2 0 0 0 .58-.07v.75a2.45 2.45 0 0 1-.88.14 1.38 1.38 0 0 1-1.08-.42 2 2 0 0 1-.38-1.43v-3h-.82v-.8h.9v-1.32zm2.83 3.28v-1.71h.87v1.08a1.65 1.65 0 0 1 1.52-1.2 1.09 1.09 0 0 1 .28 0v.94a1.45 1.45 0 0 0-.34 0 1.4 1.4 0 0 0-1.34 1.28 2.82 2.82 0 0 0 0 .46v2.92h-1zm4.64-1.69l1.2 3.24c.12.36.26.79.35 1.12.1-.33.21-.75.35-1.14l1.09-3.22h1.05l-1.5 3.91c-.71 1.88-1.2 2.85-1.88 3.44a2.69 2.69 0 0 1-1.22.65l-.25-.84a2.63 2.63 0 0 0 .87-.49 3 3 0 0 0 .84-1.11.72.72 0 0 0 .08-.24.87.87 0 0 0-.07-.26l-2-5.06zm4.6 4.88a.67.67 0 0 1 .68-.71.72.72 0 1 1-.68.71zm6.56-7.05v7.64h-1v-7.64zm3.18-.13a13.07 13.07 0 0 1-1.07 2.69l-.63.08a16.11 16.11 0 0 0 .67-2.66zm5.26-.28v8.05h-.9v-1a2 2 0 0 1-1.87 1.08 2.5 2.5 0 0 1-2.35-2.79c0-1.83 1.12-2.95 2.46-2.95a1.83 1.83 0 0 1 1.66.84v-3.28zm-1 4.8a1.76 1.76 0 0 0 0-.42 1.47 1.47 0 0 0-1.44-1.16c-1 0-1.64.91-1.64 2.12s.54 2 1.62 2a1.5 1.5 0 0 0 1.46-1.19 1.72 1.72 0 0 0 0-.43zm10.35-4.8v8.05h-.9v-1a2 2 0 0 1-1.87 1.08 2.5 2.5 0 0 1-2.35-2.79c0-1.83 1.12-2.95 2.46-2.95a1.83 1.83 0 0 1 1.66.84v-3.28zm-1 4.8a1.76 1.76 0 0 0 0-.42 1.47 1.47 0 0 0-1.44-1.16c-1 0-1.64.91-1.64 2.12s.54 2 1.62 2a1.5 1.5 0 0 0 1.46-1.19 1.72 1.72 0 0 0 0-.43zm3.5.69a1.76 1.76 0 0 0 1.88 1.9 3.6 3.6 0 0 0 1.52-.28l.17.71a4.45 4.45 0 0 1-1.83.34 2.55 2.55 0 0 1-2.7-2.77 2.66 2.66 0 0 1 2.57-3 2.32 2.32 0 0 1 2.27 2.58 3.91 3.91 0 0 1 0 .46zm2.93-.71a1.42 1.42 0 0 0-1.38-1.62 1.65 1.65 0 0 0-1.53 1.62zm2.58 3.27v-4.73h-.77V414h.77v-.29a2.2 2.2 0 0 1 2.39-2.39 2.75 2.75 0 0 1 1.39.36l-.28.76a2.1 2.1 0 0 0-1.16-.32c-1.05 0-1.36.74-1.36 1.61v.27h3.19v5.49h-1v-4.73h-2.2v4.73zm6.11-4v-1.49h.88l.06.91a2 2 0 0 1 1.81-1c.76 0 1.94.45 1.94 2.34v3.28h-1v-3.16c0-.88-.33-1.62-1.27-1.62a1.46 1.46 0 0 0-1.41 1.48v3.3h-1zm7.69-3.03a.62.62 0 0 1-1.24 0 .61.61 0 0 1 .62-.62.59.59 0 0 1 .62.62zm-1.11 7V414h1v5.49zm4.14-7.03V414h1.43v.76h-1.43v3c0 .68.19 1.07.75 1.07a2.2 2.2 0 0 0 .58-.07v.75a2.45 2.45 0 0 1-.88.14 1.38 1.38 0 0 1-1.08-.42 2 2 0 0 1-.38-1.43v-3h-.85v-.8h.85v-1.32zm3.33 4.5a1.76 1.76 0 0 0 1.88 1.9 3.6 3.6 0 0 0 1.52-.28l.17.71a4.45 4.45 0 0 1-1.83.34 2.55 2.55 0 0 1-2.7-2.77 2.66 2.66 0 0 1 2.57-3 2.32 2.32 0 0 1 2.27 2.58 3.91 3.91 0 0 1 0 .46zm2.93-.71a1.42 1.42 0 0 0-1.38-1.62 1.65 1.65 0 0 0-1.53 1.62zm2.48-4.78h1v8h-1zm3.32 2.58l1.2 3.24c.12.36.26.79.35 1.12.1-.33.21-.75.35-1.14l1.09-3.22h1.05l-1.5 3.91c-.71 1.88-1.2 2.85-1.88 3.44a2.69 2.69 0 0 1-1.22.65l-.25-.84a2.63 2.63 0 0 0 .87-.49 3 3 0 0 0 .84-1.11.72.72 0 0 0 .08-.24.87.87 0 0 0-.07-.26l-2-5.06zm-141.11 18.71V431h.86v1.08a1.65 1.65 0 0 1 1.52-1.2 1.09 1.09 0 0 1 .28 0v.94a1.51 1.51 0 0 0-.34 0 1.4 1.4 0 0 0-1.34 1.28 2.83 2.83 0 0 0 0 .46v2.92h-1zm4.43 1.21a1.76 1.76 0 0 0 1.88 1.9 3.61 3.61 0 0 0 1.52-.28l.17.71a4.44 4.44 0 0 1-1.83.34 2.55 2.55 0 0 1-2.7-2.77 2.66 2.66 0 0 1 2.57-3 2.32 2.32 0 0 1 2.27 2.58 3.89 3.89 0 0 1 0 .46zm2.92-.71a1.42 1.42 0 0 0-1.38-1.62 1.65 1.65 0 0 0-1.53 1.62zm6.4 3.07a3.66 3.66 0 0 1-1.58.32 2.61 2.61 0 0 1-2.73-2.8 2.79 2.79 0 0 1 2.95-2.91 3.34 3.34 0 0 1 1.38.28l-.23.77a2.32 2.32 0 0 0-1.16-.26 2.07 2.07 0 0 0 0 4.13 2.83 2.83 0 0 0 1.22-.27zm6.36-2.58a2.68 2.68 0 0 1-2.73 2.91 2.61 2.61 0 0 1-2.63-2.82 2.68 2.68 0 0 1 2.72-2.91 2.6 2.6 0 0 1 2.64 2.82zm-4.35.06c0 1.2.69 2.11 1.67 2.11s1.67-.9 1.67-2.13c0-.93-.46-2.11-1.64-2.11s-1.71 1.08-1.71 2.12zm5.89-1.28v-1.49h.87v.88a1.89 1.89 0 0 1 1.72-1A1.62 1.62 0 0 1 555 432a2.26 2.26 0 0 1 .61-.71 1.87 1.87 0 0 1 1.21-.38c.73 0 1.8.48 1.8 2.38v3.23h-1v-3.11c0-1.05-.39-1.69-1.19-1.69a1.29 1.29 0 0 0-1.18.91 1.63 1.63 0 0 0-.08.5v3.39h-1v-3.32c0-.87-.39-1.51-1.15-1.51a1.49 1.49 0 0 0-1.31 1.49v3.31h-1zm9.75 0v-1.49h.87v.88a1.89 1.89 0 0 1 1.72-1 1.62 1.62 0 0 1 1.55 1.1 2.26 2.26 0 0 1 .61-.71 1.87 1.87 0 0 1 1.21-.38c.73 0 1.8.48 1.8 2.38v3.23h-1v-3.11c0-1.05-.38-1.69-1.19-1.69a1.29 1.29 0 0 0-1.18.91 1.66 1.66 0 0 0-.08.5v3.39H564v-3.29c0-.87-.38-1.51-1.14-1.51a1.49 1.49 0 0 0-1.32 1.49v3.31h-1zm10.3 1.44a1.76 1.76 0 0 0 1.88 1.9 3.62 3.62 0 0 0 1.52-.28l.17.71a4.44 4.44 0 0 1-1.83.34 2.55 2.55 0 0 1-2.7-2.77 2.66 2.66 0 0 1 2.57-3 2.32 2.32 0 0 1 2.27 2.58 3.69 3.69 0 0 1 0 .46zm2.92-.71a1.42 1.42 0 0 0-1.38-1.62 1.65 1.65 0 0 0-1.53 1.62zm2.49-.73v-1.49h.88l.06.91a2 2 0 0 1 1.81-1c.76 0 1.94.45 1.94 2.33v3.28h-1v-3.16c0-.88-.33-1.62-1.27-1.62a1.46 1.46 0 0 0-1.41 1.49v3.3h-1zm11.32-4.04v8.05h-.9v-1a2 2 0 0 1-1.87 1.08 2.5 2.5 0 0 1-2.35-2.79c0-1.83 1.12-2.95 2.46-2.95a1.83 1.83 0 0 1 1.66.84v-3.28zm-1 4.79a1.75 1.75 0 0 0 0-.42 1.47 1.47 0 0 0-1.44-1.16c-1 0-1.64.91-1.64 2.12s.54 2 1.62 2a1.5 1.5 0 0 0 1.46-1.19 1.73 1.73 0 0 0 0-.43zm5.63-4.79h1v3.42a1.85 1.85 0 0 1 .71-.7 2.05 2.05 0 0 1 1-.28c.74 0 1.92.45 1.92 2.35v3.26h-1v-3.15c0-.88-.33-1.63-1.27-1.63a1.43 1.43 0 0 0-1.34 1 1.21 1.21 0 0 0-.07.48v3.31h-1zm7.69 1.02a.62.62 0 0 1-1.24 0 .61.61 0 0 1 .62-.62.59.59 0 0 1 .62.62zm-1.11 7V431h1v5.49zm2.93-3.98v-1.49h.87v.88a1.89 1.89 0 0 1 1.72-1 1.62 1.62 0 0 1 1.55 1.1 2.25 2.25 0 0 1 .61-.71 1.88 1.88 0 0 1 1.21-.38c.73 0 1.8.48 1.8 2.38v3.23h-1v-3.11c0-1.05-.39-1.69-1.19-1.69a1.29 1.29 0 0 0-1.18.91 1.63 1.63 0 0 0-.08.5v3.39h-1v-3.29c0-.87-.39-1.51-1.14-1.51a1.49 1.49 0 0 0-1.32 1.49v3.31h-1zm9.51 3.42a.67.67 0 0 1 .68-.71.72.72 0 1 1-.68.71zm2.84-7.18a13.9 13.9 0 0 1-1.05 2.69l-.63.08a17.27 17.27 0 0 0 .67-2.67zm1.68 0a13.84 13.84 0 0 1-1.05 2.69l-.63.08a16.13 16.13 0 0 0 .67-2.67z"/><path id="_Path_" data-name="&lt;Path&gt;" class="cls-6" d="M504 182.72h220"/><path id="_Path_2" data-name="&lt;Path&gt;" class="cls-6" d="M504 280.42h220"/><path id="_Path_3" data-name="&lt;Path&gt;" class="cls-6" d="M504 57.13h220"/><use id="web_cursor-3" data-name="web cursor" width="12.98" height="21" transform="matrix(.77 0 0 .77 571.7 144.67)" xlink:href="#web_cursor"/><path class="cls-7" d="M0 0h724v475H0z"/></g></g></svg>