<svg width="1036" height="146" viewBox="0 0 1036 146" xmlns="http://www.w3.org/2000/svg" xmlns:xlink="http://www.w3.org/1999/xlink"><defs><radialGradient cx="2.689%" cy="73.917%" fx="2.689%" fy="73.917%" r="83.611%" gradientTransform="matrix(.49468 -.81578 1.62248 .86687 -1.186 .12)" id="a"><stop stop-color="#48429F" offset="0%"/><stop stop-color="#48429F" stop-opacity=".1" offset="100%"/></radialGradient><path d="M10.333 10.333A5.165 5.165 0 0 0 15.5 5.167 5.165 5.165 0 0 0 10.333 0a5.165 5.165 0 0 0-5.166 5.167 5.165 5.165 0 0 0 5.166 5.166zM0 18.083c0 1.427 1.726 2.584 3.875 2.584h12.917c2.14 0 3.875-1.738 3.875-2.584 0-3.435-6.885-5.166-10.334-5.166C6.885 12.917 0 14.647 0 18.083z" id="b"/></defs><g fill="none" fill-rule="evenodd"><path d="M972 115.083c-23.794 0-43.083-19.289-43.083-43.083 0-23.794 19.289-43.083 43.083-43.083 23.794 0 43.083 19.289 43.083 43.083 0 23.794-19.289 43.083-43.083 43.083z" fill="#FFF"/><path d="M11.956 66.427a1.6 1.6 0 1 1 2.79-1.569c6.555 11.658 18.927 18.9 32.287 18.9 20.41 0 37.014-16.604 37.014-37.014 0-20.41-16.604-37.015-37.014-37.015a1.6 1.6 0 0 1 0-3.201c22.175 0 40.215 18.04 40.215 40.216 0 22.175-18.04 40.215-40.215 40.215-14.515 0-27.956-7.867-35.077-20.532z" fill="url(#a)" transform="translate(925 25)"/><g transform="translate(938.056 38.056)"><rect fill="#524EA7" width="67.889" height="67.889" rx="33.944"/><g transform="translate(23.444 22.139)"><mask id="c" fill="#fff"><use xlink:href="#b"/></mask><use fill="#37474F" xlink:href="#b"/><g mask="url(#c)" fill="#FFF"><path d="M-5.167-5.167h31v31h-31z"/></g></g></g></g></svg>