<svg width="693" height="324" viewBox="0 0 693 324" xmlns="http://www.w3.org/2000/svg" xmlns:xlink="http://www.w3.org/1999/xlink"><defs><circle id="a" cx="20.833" cy="20.833" r="20.833"/><path d="M29.252 31.248a3.784 3.784 0 0 0-1.672 3.135v2.275l-8.733-.143v-2.14a3.8 3.8 0 0 0-1.68-3.133c-3.016-2.058-4.706-5.43-4.527-9.02.266-5.258 4.69-9.565 10.067-9.808.17-.008.34-.011.508-.011 2.74 0 5.32 1.006 7.309 2.862 2.115 1.971 3.278 4.63 3.278 7.486 0 3.383-1.702 6.559-4.55 8.497M22.557 9.221c-7.042.319-12.83 5.96-13.184 12.84-.236 4.699 1.978 9.111 5.923 11.801.18.12.285.31.285.52v2.133c0 1.734 1.439 3.166 3.213 3.196l8.732.143h.054c.864 0 1.678-.325 2.294-.918a3.137 3.137 0 0 0 .976-2.278V34.37a.6.6 0 0 1 .269-.5c3.727-2.535 5.95-6.693 5.95-11.12 0-3.737-1.523-7.217-4.287-9.799-2.764-2.582-6.408-3.9-10.225-3.73m5.661 32.983l-9.938-.09c-.938-.01-1.712.732-1.721 1.655-.004.92.758 1.67 1.696 1.676l9.938.094c.217 0 .424-.036.613-.11a1.666 1.666 0 0 0 1.105-1.545c.01-.923-.752-1.677-1.693-1.68m-2.96 4.675l-4.019-.09c-.938-.007-1.712.735-1.718 1.658-.003.917.756 1.67 1.694 1.676l4.018.09c.217.004.424-.035.613-.105a1.67 1.67 0 0 0 1.105-1.55c.007-.922-.752-1.673-1.693-1.679m-1.26-39.768c.656 0 1.185-.534 1.185-1.185V1.185a1.184 1.184 0 1 0-2.369 0v4.742a1.19 1.19 0 0 0 1.184 1.185m15.991.143l-3.35 3.354a1.181 1.181 0 0 0 0 1.675 1.183 1.183 0 0 0 1.675 0l3.354-3.354c.46-.46.46-1.215 0-1.675a1.194 1.194 0 0 0-1.679 0M9.94 12.632c.3 0 .607-.117.837-.347a1.181 1.181 0 0 0 0-1.675L7.423 7.256a1.186 1.186 0 0 0-1.679 1.675l3.359 3.354c.225.23.533.347.837.347m-3.537 7.984H1.66a1.185 1.185 0 0 0 0 2.369h4.743a1.184 1.184 0 1 0 0-2.369m37.5 0H39.16a1.185 1.185 0 0 0 0 2.369h4.743a1.184 1.184 0 1 0 0-2.369" id="c"/></defs><g fill="none" fill-rule="evenodd"><path d="M1415 323H-25v950h1440zM695-1H-25v324h720z"/><g transform="translate(483.167 140.167)"><mask id="b" fill="#fff"><use xlink:href="#a"/></mask><g opacity=".3" mask="url(#b)" fill="#9895D3" fill-opacity=".4"><rect width="104" height="104" rx="4" transform="translate(-33.333 -33.333)"/></g></g><g transform="translate(481.083 136)"><mask id="d" fill="#fff"><use xlink:href="#c"/></mask><use fill="#000" xlink:href="#c"/><g mask="url(#d)" fill="#7876AC"><path d="M-15.513-8.443h76v75h-76z"/></g></g></g></svg>