<svg width="693" height="324" viewBox="0 0 693 324" xmlns="http://www.w3.org/2000/svg" xmlns:xlink="http://www.w3.org/1999/xlink"><defs><circle id="a" cx="20.833" cy="20.833" r="20.833"/><path d="M22.396 42.188c-10.914 0-19.792-8.878-19.792-19.792 0-10.914 8.878-19.792 19.792-19.792 10.914 0 19.791 8.878 19.791 19.792 0 10.914-8.877 19.791-19.791 19.791m0-42.187C10.046 0 0 10.046 0 22.396c0 12.35 10.046 22.396 22.396 22.396 12.35 0 22.396-10.046 22.396-22.396C44.792 10.046 34.746 0 22.396 0m10.89 23.359l-4.444 1.383a27.946 27.946 0 0 1-10.847 1.119l-4.728-.434c-.935-.085-1.645.773-1.358 1.663 1.763 5.458 7.283 9.198 13.14 8.594 5.854-.607 10.044-5.348 10.066-10.992.005-.919-.95-1.606-1.829-1.333m-7.223-4.69a.428.428 0 0 0 .457.556l1.58-.146a9.356 9.356 0 0 1 3.633.376l1.488.462c.294.092.615-.138.613-.445-.008-1.888-1.412-3.477-3.372-3.68-1.96-.202-3.808 1.05-4.399 2.877m-8.876.419l1.584.146c.314.03.55-.26.453-.556-.588-1.827-2.437-3.08-4.397-2.877-1.96.203-3.364 1.792-3.369 3.68a.476.476 0 0 0 .61.445l1.486-.462a9.366 9.366 0 0 1 3.633-.376m9.302-6.113a.976.976 0 0 0 .737-.079c1.694-.919 3.848-.591 5.498.836a.975.975 0 0 0 1.384-.1.978.978 0 0 0-.1-1.382c-2.269-1.968-5.3-2.391-7.715-1.079a.981.981 0 0 0 .196 1.804m-8.954-.079a.983.983 0 0 0 1.331-.394.982.982 0 0 0-.396-1.33c-2.416-1.313-5.443-.89-7.714 1.078a.98.98 0 1 0 1.283 1.482c1.648-1.427 3.804-1.755 5.496-.836" id="c"/></defs><g fill="none" fill-rule="evenodd"><path d="M1415 323H-25v950h1440zM695-1H-25v324h720z"/><g transform="translate(404.167 140.167)"><mask id="b" fill="#fff"><use xlink:href="#a"/></mask><g opacity=".3" mask="url(#b)" fill="#9895D3" fill-opacity=".4"><rect width="104" height="104" rx="4" transform="translate(-33.333 -33.333)"/></g></g><g transform="translate(402.083 138.083)"><mask id="d" fill="#fff"><use xlink:href="#c"/></mask><use fill="#000" xlink:href="#c"/><g mask="url(#d)" fill="#7876AC"><path d="M-2.083-2.083h51v51h-51z"/></g></g></g></svg>