<svg width="693px" height="324px" viewBox="0 0 693 324" xmlns="http://www.w3.org/2000/svg" xmlns:xlink="http://www.w3.org/1999/xlink"><!--Generator: Sketch 45.2 (43514) - http://www.bohemiancoding.com/sketch--><defs><rect id="path-1" width="1400" height="950.848633"/><circle id="path-3" cx="20.8333333" cy="20.8333333" r="20.8333333"/><path d="M22.3958333,42.1875 C11.4815315,42.1875 2.60416667,33.3101351 2.60416667,22.3958333 C2.60416667,11.4815315 11.4815315,2.60416667 22.3958333,2.60416667 C33.3101351,2.60416667 42.1875,11.4815315 42.1875,22.3958333 C42.1875,33.3101351 33.3101351,42.1875 22.3958333,42.1875 M22.3958333,0 C10.0458333,0 0,10.0458333 0,22.3958333 C0,34.7458333 10.0458333,44.7916667 22.3958333,44.7916667 C34.7458333,44.7916667 44.7916667,34.7458333 44.7916667,22.3958333 C44.7916667,10.0458333 34.7458333,0 22.3958333,0 M26.9204826,12.1726449 C26.5364246,12.4461957 26.4476565,12.9788043 26.7212072,13.3628623 C26.8607,13.5567029 27.0635985,13.6744565 27.2809898,13.7088768 C27.4929464,13.7432971 27.7212072,13.6961957 27.9114246,13.5621377 C29.2737435,12.5893116 31.168671,12.645471 32.7429464,13.7016304 C33.1342507,13.9679348 33.6650478,13.8610507 33.9259174,13.4697464 C34.1904101,13.078442 34.0853377,12.5494565 33.6940333,12.2867754 C31.5255551,10.828442 28.8661348,10.7849638 26.9204826,12.1726449 M12.7070652,13.7021739 C14.2813406,12.6460145 16.1762681,12.5898551 17.538587,13.5626812 C17.7269928,13.6967391 17.9552536,13.7438406 18.1690217,13.7094203 C18.386413,13.675 18.5893116,13.5554348 18.7288043,13.3634058 C19.0023551,12.9793478 18.913587,12.4467391 18.529529,12.1731884 C16.5838768,10.7855072 13.9244565,10.8289855 11.7559783,12.2873188 C11.3646739,12.55 11.2596014,13.0789855 11.5240942,13.4702899 C11.7849638,13.8615942 12.3157609,13.9666667 12.7070652,13.7021739 M15.625,16.4637681 C13.9,16.4637681 12.5,17.8616848 12.5,19.5887681 C12.5,21.3137681 13.9,22.7137681 15.625,22.7137681 C17.35,22.7137681 18.75,21.3137681 18.75,19.5887681 C18.75,17.8616848 17.35,16.4637681 15.625,16.4637681 M30.2083333,16.4637681 C28.4833333,16.4637681 27.0833333,17.8637681 27.0833333,19.5887681 C27.0833333,21.3158514 28.4833333,22.7137681 30.2083333,22.7137681 C31.9333333,22.7137681 33.3333333,21.3158514 33.3333333,19.5887681 C33.3333333,17.8637681 31.9333333,16.4637681 30.2083333,16.4637681 M22.7581522,24.9105072 C20.2563406,24.9105072 18.2291667,26.9376812 18.2291667,29.4394928 L18.2291667,31.7021739 C18.2291667,34.2021739 20.2563406,36.2311594 22.7581522,36.2311594 C25.2599638,36.2311594 27.2871377,34.2021739 27.2871377,31.7021739 L27.2871377,29.4394928 C27.2871377,26.9376812 25.2599638,24.9105072 22.7581522,24.9105072" id="path-5"/></defs><g id="Design" fill="none" fill-rule="evenodd"><g id="responsum---case-study" transform="translate(-25.000000, -2832.000000)"><g id="Section-4" transform="translate(0.000000, 3155.000000)"><rect id="Rectangle-Copy-15" transform="translate(720.000000, 475.000000) scale(-1, 1) translate(-720.000000, -475.000000) " width="1440" height="950"/><g id="Group" transform="translate(20.000000, 0.000000)"><mask id="mask-2" fill="white"><use xlink:href="#path-1"/></mask></g></g><rect id="Rectangle-Copy-5" transform="translate(360.000000, 2993.000000) scale(-1, 1) translate(-360.000000, -2993.000000) " y="2831" width="720" height="324"/><g id="section3-reaction3-asset" transform="translate(346.000000, 2968.000000)"><g id="Group-2" transform="translate(4.166667, 4.166667)"><mask id="mask-4" fill="white"><use xlink:href="#path-3"/></mask><g id="color/interactive/secondary-inactive" opacity="0.3" mask="url(#mask-4)" fill="#9895D3" fill-opacity="0.4"><g transform="translate(-33.333333, -33.333333)" id="color-swatch-copy-3"><rect width="104" height="104" rx="4"/></g></g></g><g id="icon-color" transform="translate(2.083333, 2.083333)"><mask id="mask-6" fill="white"><use xlink:href="#path-5"/></mask><use id="Mask" fill="#000000" xlink:href="#path-5"/><g id="color/interactive/secondary-text" mask="url(#mask-6)" fill="#7876AC"><g transform="translate(-2.083333, -2.083333)" id="color-swatch-copy-3"><rect width="51" height="51"/></g></g></g></g></g></g></svg>