<svg width="1036" height="146" viewBox="0 0 1036 146" xmlns="http://www.w3.org/2000/svg" xmlns:xlink="http://www.w3.org/1999/xlink"><defs><rect id="a" width="99" height="34" rx="17"/><rect id="b" width="99" height="34" rx="17"/><rect id="c" width="99" height="34" rx="17"/><rect id="d" width="99" height="34" rx="17"/><rect id="e" width="99" height="34" rx="17"/><rect id="f" width="99" height="34" rx="17"/></defs><g fill="none" fill-rule="evenodd"><path d="M84 61h703.994" stroke="#FFF" stroke-width="2" stroke-linecap="square"/><g transform="translate(19 44)"><use fill="#FFF" xlink:href="#a"/><circle fill="#524EA7" cx="20" cy="17" r="9"/><path d="M13.744 43.2h.98V53H13.45v-7.504h-2.058v-1.092c.765 0 1.32-.086 1.666-.259.345-.173.574-.488.686-.945zm3.71 8.26c.243 0 .443.084.602.252.159.168.238.387.238.658 0 .41-.093.838-.28 1.281a4.226 4.226 0 0 1-.742 1.183l-.392-.154c.261-.439.425-.966.49-1.582a.787.787 0 0 1-.756-.812c0-.233.082-.43.245-.588a.822.822 0 0 1 .595-.238zm8.862-3.374c0 1.568-.29 2.81-.868 3.724-.579.915-1.386 1.372-2.422 1.372-1.045 0-1.857-.457-2.436-1.372-.57-.905-.854-2.147-.854-3.724 0-1.568.285-2.805.854-3.71.57-.905 1.381-1.358 2.436-1.358 1.036 0 1.843.457 2.422 1.372.579.915.868 2.147.868 3.696zm-3.29-3.878c-.644 0-1.139.34-1.484 1.022-.345.681-.518 1.633-.518 2.856 0 1.232.173 2.191.518 2.877.345.686.84 1.029 1.484 1.029.635 0 1.125-.343 1.47-1.029.345-.686.518-1.645.518-2.877 0-1.223-.173-2.175-.518-2.856-.345-.681-.835-1.022-1.47-1.022zm11.368 3.878c0 1.568-.29 2.81-.868 3.724-.579.915-1.386 1.372-2.422 1.372-1.045 0-1.857-.457-2.436-1.372-.57-.905-.854-2.147-.854-3.724 0-1.568.285-2.805.854-3.71.57-.905 1.381-1.358 2.436-1.358 1.036 0 1.843.457 2.422 1.372.579.915.868 2.147.868 3.696zm-3.29-3.878c-.644 0-1.139.34-1.484 1.022-.345.681-.518 1.633-.518 2.856 0 1.232.173 2.191.518 2.877.345.686.84 1.029 1.484 1.029.635 0 1.125-.343 1.47-1.029.345-.686.518-1.645.518-2.877 0-1.223-.173-2.175-.518-2.856-.345-.681-.835-1.022-1.47-1.022zm11.368 3.878c0 1.568-.29 2.81-.868 3.724-.579.915-1.386 1.372-2.422 1.372-1.045 0-1.857-.457-2.436-1.372-.57-.905-.854-2.147-.854-3.724 0-1.568.285-2.805.854-3.71.57-.905 1.381-1.358 2.436-1.358 1.036 0 1.843.457 2.422 1.372.579.915.868 2.147.868 3.696zm-3.29-3.878c-.644 0-1.139.34-1.484 1.022-.345.681-.518 1.633-.518 2.856 0 1.232.173 2.191.518 2.877.345.686.84 1.029 1.484 1.029.635 0 1.125-.343 1.47-1.029.345-.686.518-1.645.518-2.877 0-1.223-.173-2.175-.518-2.856-.345-.681-.835-1.022-1.47-1.022zM51.25 45.79c.99 0 1.783.35 2.38 1.05.607.69.91 1.568.91 2.632 0 1.055-.308 1.932-.924 2.632-.607.7-1.4 1.05-2.38 1.05-.532 0-1.001-.1-1.407-.301a2.223 2.223 0 0 1-.931-.819v3.976H47.68V45.944h1.092l.056 1.036c.541-.793 1.349-1.19 2.422-1.19zm-.182 1.134c-.607 0-1.125.229-1.554.686-.43.457-.644 1.055-.644 1.792v.07c0 .765.215 1.377.644 1.834.439.467.952.7 1.54.7.653 0 1.19-.233 1.61-.7.42-.476.63-1.087.63-1.834 0-.756-.203-1.37-.609-1.841-.406-.471-.945-.707-1.617-.707zm8.498-1.134c1.045 0 1.9.345 2.562 1.036.672.681 1.008 1.563 1.008 2.646s-.336 1.965-1.008 2.646c-.663.69-1.517 1.036-2.562 1.036-1.055 0-1.918-.345-2.59-1.036-.663-.69-.994-1.573-.994-2.646s.331-1.955.994-2.646c.672-.69 1.535-1.036 2.59-1.036zm.014 1.12c-.71 0-1.279.243-1.708.728-.43.467-.644 1.078-.644 1.834 0 .737.215 1.349.644 1.834.43.485.999.728 1.708.728.69 0 1.246-.243 1.666-.728.43-.485.644-1.097.644-1.834 0-.756-.215-1.367-.644-1.834-.42-.485-.975-.728-1.666-.728zm6.888-3.136a.771.771 0 0 1-.245.574.822.822 0 0 1-.595.238.799.799 0 0 1-.588-.238.782.782 0 0 1-.238-.574.8.8 0 0 1 .238-.588.799.799 0 0 1 .588-.238c.233 0 .432.08.595.238a.787.787 0 0 1 .245.588zm-1.442 2.17h1.204V53h-1.204v-7.056zm6.79-.154c.728 0 1.293.238 1.694.714s.602 1.12.602 1.932V53h-1.218v-4.368c0-.532-.121-.943-.364-1.232-.243-.29-.579-.434-1.008-.434-.485 0-.88.203-1.183.609-.303.406-.455.954-.455 1.645V53H68.68v-7.056h1.078l.07.966c.392-.747 1.055-1.12 1.988-1.12zm4.984-1.61h1.218l-.014 1.764h1.806v1.12h-1.82l-.028 3.78c0 .42.072.716.217.889.145.173.408.259.791.259.308 0 .588-.042.84-.126v1.078c-.261.103-.611.154-1.05.154-.681 0-1.188-.163-1.519-.49-.331-.327-.492-.84-.483-1.54l.028-4.004H75.47v-1.12h1.316l.014-1.764zm6.79 1.61c.672 0 1.223.205 1.652.616.43.401.653.938.672 1.61h-1.232c-.01-.737-.383-1.106-1.12-1.106-.345 0-.611.086-.798.259-.187.173-.28.404-.28.693 0 .28.091.49.273.63.182.14.534.27 1.057.392.84.196 1.435.455 1.785.777.35.322.525.768.525 1.337 0 .663-.229 1.188-.686 1.575-.457.387-1.055.581-1.792.581-.793 0-1.416-.205-1.869-.616-.453-.41-.688-.97-.707-1.68h1.232c.01.784.467 1.176 1.372 1.176.383 0 .681-.086.896-.259a.844.844 0 0 0 .322-.693c0-.299-.103-.53-.308-.693-.205-.163-.593-.31-1.162-.441-.765-.177-1.318-.42-1.659-.728-.34-.308-.511-.737-.511-1.288 0-.597.205-1.101.616-1.512.42-.42.994-.63 1.722-.63z" fill="#7B8A9D"/><path d="M39.98 12.2h1.932v8.008h4.074V22H39.98v-9.8zm10.598 2.548c1.008 0 1.808.32 2.401.959.593.64.889 1.552.889 2.737v.56h-4.942c.028.476.196.861.504 1.155.308.294.71.441 1.204.441.737 0 1.213-.275 1.428-.826h1.764c-.467 1.587-1.55 2.38-3.248 2.38-1.055 0-1.909-.336-2.562-1.008-.644-.681-.966-1.577-.966-2.688 0-1.092.327-1.979.98-2.66.663-.7 1.512-1.05 2.548-1.05zm-1.638 2.996h3.094c-.01-.448-.15-.807-.42-1.078-.27-.27-.63-.406-1.078-.406-.439 0-.803.135-1.092.406-.29.27-.457.63-.504 1.078zm10.794-2.842h1.974L59.132 22h-1.848l-2.562-7.098h1.96l1.386 4.354.14.616.14-.616 1.386-4.354zm6.216-.154c1.008 0 1.808.32 2.401.959.593.64.889 1.552.889 2.737v.56h-4.942c.028.476.196.861.504 1.155.308.294.71.441 1.204.441.737 0 1.213-.275 1.428-.826h1.764c-.467 1.587-1.55 2.38-3.248 2.38-1.055 0-1.909-.336-2.562-1.008-.644-.681-.966-1.577-.966-2.688 0-1.092.327-1.979.98-2.66.663-.7 1.512-1.05 2.548-1.05zm-1.638 2.996h3.094c-.01-.448-.15-.807-.42-1.078-.27-.27-.63-.406-1.078-.406-.439 0-.803.135-1.092.406-.29.27-.457.63-.504 1.078zm6.734-5.964h1.82V22h-1.82V11.78zm9.128.42h1.414V22h-1.932v-6.79h-2.058v-1.624c.793 0 1.39-.105 1.792-.315.401-.21.663-.567.784-1.071z" fill="#3E4E62"/></g><g transform="translate(162 44)"><use fill="#FFF" xlink:href="#b"/><circle fill="#777FE7" cx="20" cy="17" r="9"/><path d="M14.458 43.018c.868 0 1.54.24 2.016.721.476.48.714 1.146.714 1.995 0 .896-.397 1.853-1.19 2.87l-2.506 3.206h3.85V53h-5.6v-.938l3.15-3.976c.373-.485.635-.891.784-1.218.15-.327.224-.69.224-1.092 0-1.045-.485-1.568-1.456-1.568-.476 0-.85.154-1.12.462-.27.308-.406.76-.406 1.358h-1.274c0-.924.254-1.657.763-2.198.509-.541 1.192-.812 2.051-.812zm5.026 8.442c.243 0 .443.084.602.252.159.168.238.387.238.658 0 .41-.093.838-.28 1.281a4.226 4.226 0 0 1-.742 1.183l-.392-.154c.261-.439.425-.966.49-1.582a.787.787 0 0 1-.756-.812c0-.233.082-.43.245-.588a.822.822 0 0 1 .595-.238zm8.862-3.374c0 1.568-.29 2.81-.868 3.724-.579.915-1.386 1.372-2.422 1.372-1.045 0-1.857-.457-2.436-1.372-.57-.905-.854-2.147-.854-3.724 0-1.568.285-2.805.854-3.71.57-.905 1.381-1.358 2.436-1.358 1.036 0 1.843.457 2.422 1.372.579.915.868 2.147.868 3.696zm-3.29-3.878c-.644 0-1.139.34-1.484 1.022-.345.681-.518 1.633-.518 2.856 0 1.232.173 2.191.518 2.877.345.686.84 1.029 1.484 1.029.635 0 1.125-.343 1.47-1.029.345-.686.518-1.645.518-2.877 0-1.223-.173-2.175-.518-2.856-.345-.681-.835-1.022-1.47-1.022zm11.368 3.878c0 1.568-.29 2.81-.868 3.724-.579.915-1.386 1.372-2.422 1.372-1.045 0-1.857-.457-2.436-1.372-.57-.905-.854-2.147-.854-3.724 0-1.568.285-2.805.854-3.71.57-.905 1.381-1.358 2.436-1.358 1.036 0 1.843.457 2.422 1.372.579.915.868 2.147.868 3.696zm-3.29-3.878c-.644 0-1.139.34-1.484 1.022-.345.681-.518 1.633-.518 2.856 0 1.232.173 2.191.518 2.877.345.686.84 1.029 1.484 1.029.635 0 1.125-.343 1.47-1.029.345-.686.518-1.645.518-2.877 0-1.223-.173-2.175-.518-2.856-.345-.681-.835-1.022-1.47-1.022zm11.368 3.878c0 1.568-.29 2.81-.868 3.724-.579.915-1.386 1.372-2.422 1.372-1.045 0-1.857-.457-2.436-1.372-.57-.905-.854-2.147-.854-3.724 0-1.568.285-2.805.854-3.71.57-.905 1.381-1.358 2.436-1.358 1.036 0 1.843.457 2.422 1.372.579.915.868 2.147.868 3.696zm-3.29-3.878c-.644 0-1.139.34-1.484 1.022-.345.681-.518 1.633-.518 2.856 0 1.232.173 2.191.518 2.877.345.686.84 1.029 1.484 1.029.635 0 1.125-.343 1.47-1.029.345-.686.518-1.645.518-2.877 0-1.223-.173-2.175-.518-2.856-.345-.681-.835-1.022-1.47-1.022zM53.28 45.79c.99 0 1.783.35 2.38 1.05.607.69.91 1.568.91 2.632 0 1.055-.308 1.932-.924 2.632-.607.7-1.4 1.05-2.38 1.05-.532 0-1.001-.1-1.407-.301a2.223 2.223 0 0 1-.931-.819v3.976H49.71V45.944h1.092l.056 1.036c.541-.793 1.349-1.19 2.422-1.19zm-.182 1.134c-.607 0-1.125.229-1.554.686-.43.457-.644 1.055-.644 1.792v.07c0 .765.215 1.377.644 1.834.439.467.952.7 1.54.7.653 0 1.19-.233 1.61-.7.42-.476.63-1.087.63-1.834 0-.756-.203-1.37-.609-1.841-.406-.471-.945-.707-1.617-.707zm8.498-1.134c1.045 0 1.9.345 2.562 1.036.672.681 1.008 1.563 1.008 2.646s-.336 1.965-1.008 2.646c-.663.69-1.517 1.036-2.562 1.036-1.055 0-1.918-.345-2.59-1.036-.663-.69-.994-1.573-.994-2.646s.331-1.955.994-2.646c.672-.69 1.535-1.036 2.59-1.036zm.014 1.12c-.71 0-1.279.243-1.708.728-.43.467-.644 1.078-.644 1.834 0 .737.215 1.349.644 1.834.43.485.999.728 1.708.728.69 0 1.246-.243 1.666-.728.43-.485.644-1.097.644-1.834 0-.756-.215-1.367-.644-1.834-.42-.485-.975-.728-1.666-.728zm6.888-3.136a.771.771 0 0 1-.245.574.822.822 0 0 1-.595.238.799.799 0 0 1-.588-.238.782.782 0 0 1-.238-.574.8.8 0 0 1 .238-.588.799.799 0 0 1 .588-.238c.233 0 .432.08.595.238a.787.787 0 0 1 .245.588zm-1.442 2.17h1.204V53h-1.204v-7.056zm6.79-.154c.728 0 1.293.238 1.694.714s.602 1.12.602 1.932V53h-1.218v-4.368c0-.532-.121-.943-.364-1.232-.243-.29-.579-.434-1.008-.434-.485 0-.88.203-1.183.609-.303.406-.455.954-.455 1.645V53H70.71v-7.056h1.078l.07.966c.392-.747 1.055-1.12 1.988-1.12zm4.984-1.61h1.218l-.014 1.764h1.806v1.12h-1.82l-.028 3.78c0 .42.072.716.217.889.145.173.408.259.791.259.308 0 .588-.042.84-.126v1.078c-.261.103-.611.154-1.05.154-.681 0-1.188-.163-1.519-.49-.331-.327-.492-.84-.483-1.54l.028-4.004H77.5v-1.12h1.316l.014-1.764zm6.79 1.61c.672 0 1.223.205 1.652.616.43.401.653.938.672 1.61h-1.232c-.01-.737-.383-1.106-1.12-1.106-.345 0-.611.086-.798.259-.187.173-.28.404-.28.693 0 .28.091.49.273.63.182.14.534.27 1.057.392.84.196 1.435.455 1.785.777.35.322.525.768.525 1.337 0 .663-.229 1.188-.686 1.575-.457.387-1.055.581-1.792.581-.793 0-1.416-.205-1.869-.616-.453-.41-.688-.97-.707-1.68h1.232c.01.784.467 1.176 1.372 1.176.383 0 .681-.086.896-.259a.844.844 0 0 0 .322-.693c0-.299-.103-.53-.308-.693-.205-.163-.593-.31-1.162-.441-.765-.177-1.318-.42-1.659-.728-.34-.308-.511-.737-.511-1.288 0-.597.205-1.101.616-1.512.42-.42.994-.63 1.722-.63z" fill="#7B8A9D"/><path d="M39.98 12.2h1.932v8.008h4.074V22H39.98v-9.8zm10.598 2.548c1.008 0 1.808.32 2.401.959.593.64.889 1.552.889 2.737v.56h-4.942c.028.476.196.861.504 1.155.308.294.71.441 1.204.441.737 0 1.213-.275 1.428-.826h1.764c-.467 1.587-1.55 2.38-3.248 2.38-1.055 0-1.909-.336-2.562-1.008-.644-.681-.966-1.577-.966-2.688 0-1.092.327-1.979.98-2.66.663-.7 1.512-1.05 2.548-1.05zm-1.638 2.996h3.094c-.01-.448-.15-.807-.42-1.078-.27-.27-.63-.406-1.078-.406-.439 0-.803.135-1.092.406-.29.27-.457.63-.504 1.078zm10.794-2.842h1.974L59.132 22h-1.848l-2.562-7.098h1.96l1.386 4.354.14.616.14-.616 1.386-4.354zm6.216-.154c1.008 0 1.808.32 2.401.959.593.64.889 1.552.889 2.737v.56h-4.942c.028.476.196.861.504 1.155.308.294.71.441 1.204.441.737 0 1.213-.275 1.428-.826h1.764c-.467 1.587-1.55 2.38-3.248 2.38-1.055 0-1.909-.336-2.562-1.008-.644-.681-.966-1.577-.966-2.688 0-1.092.327-1.979.98-2.66.663-.7 1.512-1.05 2.548-1.05zm-1.638 2.996h3.094c-.01-.448-.15-.807-.42-1.078-.27-.27-.63-.406-1.078-.406-.439 0-.803.135-1.092.406-.29.27-.457.63-.504 1.078zm6.734-5.964h1.82V22h-1.82V11.78zm9.702.238c.933 0 1.654.254 2.163.763.509.509.763 1.202.763 2.079 0 .513-.098.99-.294 1.428-.196.439-.504.91-.924 1.414l-2.044 2.506h3.29V22h-5.964v-1.4l3.01-3.584c.364-.43.618-.789.763-1.078.145-.29.217-.616.217-.98 0-.765-.336-1.148-1.008-1.148-.756 0-1.125.457-1.106 1.372h-1.932c-.01-.952.266-1.717.826-2.296.56-.579 1.307-.868 2.24-.868z" fill="#3E4E62"/></g><g transform="translate(305 44)"><use fill="#FFF" xlink:href="#c"/><circle fill="#9E83F1" cx="20" cy="17" r="9"/><path d="M17.412 45.776c0 .55-.128 1.01-.385 1.379a1.976 1.976 0 0 1-.987.763 2.12 2.12 0 0 1 1.225.833c.322.434.483.964.483 1.589 0 .84-.28 1.526-.84 2.058-.57.523-1.302.784-2.198.784-.961 0-1.717-.264-2.268-.791-.55-.527-.826-1.262-.826-2.205h1.26c.01.597.177 1.048.504 1.351.327.303.78.455 1.358.455.513 0 .929-.154 1.246-.462.317-.308.476-.719.476-1.232 0-.588-.2-1.036-.602-1.344-.401-.308-.97-.462-1.708-.462h-.322v-1.12h.308c.69 0 1.195-.126 1.512-.378.317-.252.476-.649.476-1.19 0-.504-.126-.896-.378-1.176-.252-.28-.616-.42-1.092-.42-.467 0-.842.152-1.127.455-.285.303-.427.74-.427 1.309h-1.274c0-.905.254-1.624.763-2.156s1.192-.798 2.051-.798c.859 0 1.535.261 2.03.784.495.523.742 1.18.742 1.974zm2.702 5.684c.243 0 .443.084.602.252.159.168.238.387.238.658 0 .41-.093.838-.28 1.281a4.226 4.226 0 0 1-.742 1.183l-.392-.154c.261-.439.425-.966.49-1.582a.787.787 0 0 1-.756-.812c0-.233.082-.43.245-.588a.822.822 0 0 1 .595-.238zm8.862-3.374c0 1.568-.29 2.81-.868 3.724-.579.915-1.386 1.372-2.422 1.372-1.045 0-1.857-.457-2.436-1.372-.57-.905-.854-2.147-.854-3.724 0-1.568.285-2.805.854-3.71.57-.905 1.381-1.358 2.436-1.358 1.036 0 1.843.457 2.422 1.372.579.915.868 2.147.868 3.696zm-3.29-3.878c-.644 0-1.139.34-1.484 1.022-.345.681-.518 1.633-.518 2.856 0 1.232.173 2.191.518 2.877.345.686.84 1.029 1.484 1.029.635 0 1.125-.343 1.47-1.029.345-.686.518-1.645.518-2.877 0-1.223-.173-2.175-.518-2.856-.345-.681-.835-1.022-1.47-1.022zm11.368 3.878c0 1.568-.29 2.81-.868 3.724-.579.915-1.386 1.372-2.422 1.372-1.045 0-1.857-.457-2.436-1.372-.57-.905-.854-2.147-.854-3.724 0-1.568.285-2.805.854-3.71.57-.905 1.381-1.358 2.436-1.358 1.036 0 1.843.457 2.422 1.372.579.915.868 2.147.868 3.696zm-3.29-3.878c-.644 0-1.139.34-1.484 1.022-.345.681-.518 1.633-.518 2.856 0 1.232.173 2.191.518 2.877.345.686.84 1.029 1.484 1.029.635 0 1.125-.343 1.47-1.029.345-.686.518-1.645.518-2.877 0-1.223-.173-2.175-.518-2.856-.345-.681-.835-1.022-1.47-1.022zm11.368 3.878c0 1.568-.29 2.81-.868 3.724-.579.915-1.386 1.372-2.422 1.372-1.045 0-1.857-.457-2.436-1.372-.57-.905-.854-2.147-.854-3.724 0-1.568.285-2.805.854-3.71.57-.905 1.381-1.358 2.436-1.358 1.036 0 1.843.457 2.422 1.372.579.915.868 2.147.868 3.696zm-3.29-3.878c-.644 0-1.139.34-1.484 1.022-.345.681-.518 1.633-.518 2.856 0 1.232.173 2.191.518 2.877.345.686.84 1.029 1.484 1.029.635 0 1.125-.343 1.47-1.029.345-.686.518-1.645.518-2.877 0-1.223-.173-2.175-.518-2.856-.345-.681-.835-1.022-1.47-1.022zM53.91 45.79c.99 0 1.783.35 2.38 1.05.607.69.91 1.568.91 2.632 0 1.055-.308 1.932-.924 2.632-.607.7-1.4 1.05-2.38 1.05-.532 0-1.001-.1-1.407-.301a2.223 2.223 0 0 1-.931-.819v3.976H50.34V45.944h1.092l.056 1.036c.541-.793 1.349-1.19 2.422-1.19zm-.182 1.134c-.607 0-1.125.229-1.554.686-.43.457-.644 1.055-.644 1.792v.07c0 .765.215 1.377.644 1.834.439.467.952.7 1.54.7.653 0 1.19-.233 1.61-.7.42-.476.63-1.087.63-1.834 0-.756-.203-1.37-.609-1.841-.406-.471-.945-.707-1.617-.707zm8.498-1.134c1.045 0 1.9.345 2.562 1.036.672.681 1.008 1.563 1.008 2.646s-.336 1.965-1.008 2.646c-.663.69-1.517 1.036-2.562 1.036-1.055 0-1.918-.345-2.59-1.036-.663-.69-.994-1.573-.994-2.646s.331-1.955.994-2.646c.672-.69 1.535-1.036 2.59-1.036zm.014 1.12c-.71 0-1.279.243-1.708.728-.43.467-.644 1.078-.644 1.834 0 .737.215 1.349.644 1.834.43.485.999.728 1.708.728.69 0 1.246-.243 1.666-.728.43-.485.644-1.097.644-1.834 0-.756-.215-1.367-.644-1.834-.42-.485-.975-.728-1.666-.728zm6.888-3.136a.771.771 0 0 1-.245.574.822.822 0 0 1-.595.238.799.799 0 0 1-.588-.238.782.782 0 0 1-.238-.574.8.8 0 0 1 .238-.588.799.799 0 0 1 .588-.238c.233 0 .432.08.595.238a.787.787 0 0 1 .245.588zm-1.442 2.17h1.204V53h-1.204v-7.056zm6.79-.154c.728 0 1.293.238 1.694.714s.602 1.12.602 1.932V53h-1.218v-4.368c0-.532-.121-.943-.364-1.232-.243-.29-.579-.434-1.008-.434-.485 0-.88.203-1.183.609-.303.406-.455.954-.455 1.645V53H71.34v-7.056h1.078l.07.966c.392-.747 1.055-1.12 1.988-1.12zm4.984-1.61h1.218l-.014 1.764h1.806v1.12h-1.82l-.028 3.78c0 .42.072.716.217.889.145.173.408.259.791.259.308 0 .588-.042.84-.126v1.078c-.261.103-.611.154-1.05.154-.681 0-1.188-.163-1.519-.49-.331-.327-.492-.84-.483-1.54l.028-4.004H78.13v-1.12h1.316l.014-1.764zm6.79 1.61c.672 0 1.223.205 1.652.616.43.401.653.938.672 1.61h-1.232c-.01-.737-.383-1.106-1.12-1.106-.345 0-.611.086-.798.259-.187.173-.28.404-.28.693 0 .28.091.49.273.63.182.14.534.27 1.057.392.84.196 1.435.455 1.785.777.35.322.525.768.525 1.337 0 .663-.229 1.188-.686 1.575-.457.387-1.055.581-1.792.581-.793 0-1.416-.205-1.869-.616-.453-.41-.688-.97-.707-1.68h1.232c.01.784.467 1.176 1.372 1.176.383 0 .681-.086.896-.259a.844.844 0 0 0 .322-.693c0-.299-.103-.53-.308-.693-.205-.163-.593-.31-1.162-.441-.765-.177-1.318-.42-1.659-.728-.34-.308-.511-.737-.511-1.288 0-.597.205-1.101.616-1.512.42-.42.994-.63 1.722-.63z" fill="#7B8A9D"/><path d="M39.98 12.2h1.932v8.008h4.074V22H39.98v-9.8zm10.598 2.548c1.008 0 1.808.32 2.401.959.593.64.889 1.552.889 2.737v.56h-4.942c.028.476.196.861.504 1.155.308.294.71.441 1.204.441.737 0 1.213-.275 1.428-.826h1.764c-.467 1.587-1.55 2.38-3.248 2.38-1.055 0-1.909-.336-2.562-1.008-.644-.681-.966-1.577-.966-2.688 0-1.092.327-1.979.98-2.66.663-.7 1.512-1.05 2.548-1.05zm-1.638 2.996h3.094c-.01-.448-.15-.807-.42-1.078-.27-.27-.63-.406-1.078-.406-.439 0-.803.135-1.092.406-.29.27-.457.63-.504 1.078zm10.794-2.842h1.974L59.132 22h-1.848l-2.562-7.098h1.96l1.386 4.354.14.616.14-.616 1.386-4.354zm6.216-.154c1.008 0 1.808.32 2.401.959.593.64.889 1.552.889 2.737v.56h-4.942c.028.476.196.861.504 1.155.308.294.71.441 1.204.441.737 0 1.213-.275 1.428-.826h1.764c-.467 1.587-1.55 2.38-3.248 2.38-1.055 0-1.909-.336-2.562-1.008-.644-.681-.966-1.577-.966-2.688 0-1.092.327-1.979.98-2.66.663-.7 1.512-1.05 2.548-1.05zm-1.638 2.996h3.094c-.01-.448-.15-.807-.42-1.078-.27-.27-.63-.406-1.078-.406-.439 0-.803.135-1.092.406-.29.27-.457.63-.504 1.078zm6.734-5.964h1.82V22h-1.82V11.78zm9.842.238c.933 0 1.666.27 2.198.812.541.532.812 1.213.812 2.044 0 .504-.114.931-.343 1.281-.229.35-.52.6-.875.749.467.14.842.404 1.127.791.285.387.427.884.427 1.491 0 .924-.296 1.654-.889 2.191-.593.537-1.384.805-2.373.805-1.017 0-1.818-.28-2.401-.84-.583-.56-.875-1.34-.875-2.338h1.918c.01.448.14.791.392 1.029.252.238.597.357 1.036.357.373 0 .677-.117.91-.35.233-.233.35-.546.35-.938 0-.896-.56-1.344-1.68-1.344h-.588v-1.652h.56c.915 0 1.372-.383 1.372-1.148 0-.364-.091-.646-.273-.847-.182-.2-.441-.301-.777-.301s-.607.114-.812.343c-.205.229-.308.553-.308.973h-1.932c0-.961.273-1.72.819-2.275.546-.555 1.281-.833 2.205-.833z" fill="#3E4E62"/></g><g transform="translate(448 44)"><use fill="#FFF" xlink:href="#d"/><circle fill="#9D52C1" cx="20" cy="17" r="9"/><path d="M15.27 43.2h1.512v6.636h1.372v1.162h-1.372V53h-1.274v-2.002h-4.102v-1.05L15.27 43.2zm.252 6.65v-4.83l-.308.602-2.408 4.228h2.716zm4.718 1.61c.243 0 .443.084.602.252.159.168.238.387.238.658 0 .41-.093.838-.28 1.281a4.226 4.226 0 0 1-.742 1.183l-.392-.154c.261-.439.425-.966.49-1.582a.787.787 0 0 1-.756-.812c0-.233.082-.43.245-.588a.822.822 0 0 1 .595-.238zm8.862-3.374c0 1.568-.29 2.81-.868 3.724-.579.915-1.386 1.372-2.422 1.372-1.045 0-1.857-.457-2.436-1.372-.57-.905-.854-2.147-.854-3.724 0-1.568.285-2.805.854-3.71.57-.905 1.381-1.358 2.436-1.358 1.036 0 1.843.457 2.422 1.372.579.915.868 2.147.868 3.696zm-3.29-3.878c-.644 0-1.139.34-1.484 1.022-.345.681-.518 1.633-.518 2.856 0 1.232.173 2.191.518 2.877.345.686.84 1.029 1.484 1.029.635 0 1.125-.343 1.47-1.029.345-.686.518-1.645.518-2.877 0-1.223-.173-2.175-.518-2.856-.345-.681-.835-1.022-1.47-1.022zm11.368 3.878c0 1.568-.29 2.81-.868 3.724-.579.915-1.386 1.372-2.422 1.372-1.045 0-1.857-.457-2.436-1.372-.57-.905-.854-2.147-.854-3.724 0-1.568.285-2.805.854-3.71.57-.905 1.381-1.358 2.436-1.358 1.036 0 1.843.457 2.422 1.372.579.915.868 2.147.868 3.696zm-3.29-3.878c-.644 0-1.139.34-1.484 1.022-.345.681-.518 1.633-.518 2.856 0 1.232.173 2.191.518 2.877.345.686.84 1.029 1.484 1.029.635 0 1.125-.343 1.47-1.029.345-.686.518-1.645.518-2.877 0-1.223-.173-2.175-.518-2.856-.345-.681-.835-1.022-1.47-1.022zm11.368 3.878c0 1.568-.29 2.81-.868 3.724-.579.915-1.386 1.372-2.422 1.372-1.045 0-1.857-.457-2.436-1.372-.57-.905-.854-2.147-.854-3.724 0-1.568.285-2.805.854-3.71.57-.905 1.381-1.358 2.436-1.358 1.036 0 1.843.457 2.422 1.372.579.915.868 2.147.868 3.696zm-3.29-3.878c-.644 0-1.139.34-1.484 1.022-.345.681-.518 1.633-.518 2.856 0 1.232.173 2.191.518 2.877.345.686.84 1.029 1.484 1.029.635 0 1.125-.343 1.47-1.029.345-.686.518-1.645.518-2.877 0-1.223-.173-2.175-.518-2.856-.345-.681-.835-1.022-1.47-1.022zm12.068 1.582c.99 0 1.783.35 2.38 1.05.607.69.91 1.568.91 2.632 0 1.055-.308 1.932-.924 2.632-.607.7-1.4 1.05-2.38 1.05-.532 0-1.001-.1-1.407-.301a2.223 2.223 0 0 1-.931-.819v3.976h-1.218V45.944h1.092l.056 1.036c.541-.793 1.349-1.19 2.422-1.19zm-.182 1.134c-.607 0-1.125.229-1.554.686-.43.457-.644 1.055-.644 1.792v.07c0 .765.215 1.377.644 1.834.439.467.952.7 1.54.7.653 0 1.19-.233 1.61-.7.42-.476.63-1.087.63-1.834 0-.756-.203-1.37-.609-1.841-.406-.471-.945-.707-1.617-.707zm8.498-1.134c1.045 0 1.9.345 2.562 1.036.672.681 1.008 1.563 1.008 2.646s-.336 1.965-1.008 2.646c-.663.69-1.517 1.036-2.562 1.036-1.055 0-1.918-.345-2.59-1.036-.663-.69-.994-1.573-.994-2.646s.331-1.955.994-2.646c.672-.69 1.535-1.036 2.59-1.036zm.014 1.12c-.71 0-1.279.243-1.708.728-.43.467-.644 1.078-.644 1.834 0 .737.215 1.349.644 1.834.43.485.999.728 1.708.728.69 0 1.246-.243 1.666-.728.43-.485.644-1.097.644-1.834 0-.756-.215-1.367-.644-1.834-.42-.485-.975-.728-1.666-.728zm6.888-3.136a.771.771 0 0 1-.245.574.822.822 0 0 1-.595.238.799.799 0 0 1-.588-.238.782.782 0 0 1-.238-.574.8.8 0 0 1 .238-.588.799.799 0 0 1 .588-.238c.233 0 .432.08.595.238a.787.787 0 0 1 .245.588zm-1.442 2.17h1.204V53h-1.204v-7.056zm6.79-.154c.728 0 1.293.238 1.694.714s.602 1.12.602 1.932V53H75.68v-4.368c0-.532-.121-.943-.364-1.232-.243-.29-.579-.434-1.008-.434-.485 0-.88.203-1.183.609-.303.406-.455.954-.455 1.645V53h-1.204v-7.056h1.078l.07.966c.392-.747 1.055-1.12 1.988-1.12zm4.984-1.61h1.218l-.014 1.764h1.806v1.12h-1.82l-.028 3.78c0 .42.072.716.217.889.145.173.408.259.791.259.308 0 .588-.042.84-.126v1.078c-.261.103-.611.154-1.05.154-.681 0-1.188-.163-1.519-.49-.331-.327-.492-.84-.483-1.54l.028-4.004h-1.316v-1.12h1.316l.014-1.764zm6.79 1.61c.672 0 1.223.205 1.652.616.43.401.653.938.672 1.61h-1.232c-.01-.737-.383-1.106-1.12-1.106-.345 0-.611.086-.798.259-.187.173-.28.404-.28.693 0 .28.091.49.273.63.182.14.534.27 1.057.392.84.196 1.435.455 1.785.777.35.322.525.768.525 1.337 0 .663-.229 1.188-.686 1.575-.457.387-1.055.581-1.792.581-.793 0-1.416-.205-1.869-.616-.453-.41-.688-.97-.707-1.68h1.232c.01.784.467 1.176 1.372 1.176.383 0 .681-.086.896-.259a.844.844 0 0 0 .322-.693c0-.299-.103-.53-.308-.693-.205-.163-.593-.31-1.162-.441-.765-.177-1.318-.42-1.659-.728-.34-.308-.511-.737-.511-1.288 0-.597.205-1.101.616-1.512.42-.42.994-.63 1.722-.63z" fill="#7B8A9D"/><path d="M39.98 12.2h1.932v8.008h4.074V22H39.98v-9.8zm10.598 2.548c1.008 0 1.808.32 2.401.959.593.64.889 1.552.889 2.737v.56h-4.942c.028.476.196.861.504 1.155.308.294.71.441 1.204.441.737 0 1.213-.275 1.428-.826h1.764c-.467 1.587-1.55 2.38-3.248 2.38-1.055 0-1.909-.336-2.562-1.008-.644-.681-.966-1.577-.966-2.688 0-1.092.327-1.979.98-2.66.663-.7 1.512-1.05 2.548-1.05zm-1.638 2.996h3.094c-.01-.448-.15-.807-.42-1.078-.27-.27-.63-.406-1.078-.406-.439 0-.803.135-1.092.406-.29.27-.457.63-.504 1.078zm10.794-2.842h1.974L59.132 22h-1.848l-2.562-7.098h1.96l1.386 4.354.14.616.14-.616 1.386-4.354zm6.216-.154c1.008 0 1.808.32 2.401.959.593.64.889 1.552.889 2.737v.56h-4.942c.028.476.196.861.504 1.155.308.294.71.441 1.204.441.737 0 1.213-.275 1.428-.826h1.764c-.467 1.587-1.55 2.38-3.248 2.38-1.055 0-1.909-.336-2.562-1.008-.644-.681-.966-1.577-.966-2.688 0-1.092.327-1.979.98-2.66.663-.7 1.512-1.05 2.548-1.05zm-1.638 2.996h3.094c-.01-.448-.15-.807-.42-1.078-.27-.27-.63-.406-1.078-.406-.439 0-.803.135-1.092.406-.29.27-.457.63-.504 1.078zm6.734-5.964h1.82V22h-1.82V11.78zm10.08.42h2.394v6.328h1.246v1.722H83.52V22h-1.932v-1.75h-4.102v-1.554l3.64-6.496zm.49 6.342v-3.948l-.252.546-1.89 3.402h2.142z" fill="#3E4E62"/></g><g transform="translate(591 44)"><use fill="#FFF" xlink:href="#e"/><circle fill="#D348B4" cx="20" cy="17" r="9"/><path d="M12.148 43.2h5.278v1.19h-3.99v2.842c.41-.243.943-.364 1.596-.364.877 0 1.582.275 2.114.826.532.55.798 1.293.798 2.226 0 .97-.28 1.755-.84 2.352-.55.607-1.297.91-2.24.91-.933 0-1.666-.247-2.198-.742s-.798-1.2-.798-2.114h1.274c.01.55.166.966.469 1.246.303.28.726.42 1.267.42.55 0 .985-.184 1.302-.553.317-.369.476-.861.476-1.477 0-.588-.159-1.052-.476-1.393-.317-.34-.76-.511-1.33-.511-.588 0-1.11.15-1.568.448h-1.134V43.2zm7.98 8.26c.243 0 .443.084.602.252.159.168.238.387.238.658 0 .41-.093.838-.28 1.281a4.226 4.226 0 0 1-.742 1.183l-.392-.154c.261-.439.425-.966.49-1.582a.787.787 0 0 1-.756-.812c0-.233.082-.43.245-.588a.822.822 0 0 1 .595-.238zm8.862-3.374c0 1.568-.29 2.81-.868 3.724-.579.915-1.386 1.372-2.422 1.372-1.045 0-1.857-.457-2.436-1.372-.57-.905-.854-2.147-.854-3.724 0-1.568.285-2.805.854-3.71.57-.905 1.381-1.358 2.436-1.358 1.036 0 1.843.457 2.422 1.372.579.915.868 2.147.868 3.696zm-3.29-3.878c-.644 0-1.139.34-1.484 1.022-.345.681-.518 1.633-.518 2.856 0 1.232.173 2.191.518 2.877.345.686.84 1.029 1.484 1.029.635 0 1.125-.343 1.47-1.029.345-.686.518-1.645.518-2.877 0-1.223-.173-2.175-.518-2.856-.345-.681-.835-1.022-1.47-1.022zm11.368 3.878c0 1.568-.29 2.81-.868 3.724-.579.915-1.386 1.372-2.422 1.372-1.045 0-1.857-.457-2.436-1.372-.57-.905-.854-2.147-.854-3.724 0-1.568.285-2.805.854-3.71.57-.905 1.381-1.358 2.436-1.358 1.036 0 1.843.457 2.422 1.372.579.915.868 2.147.868 3.696zm-3.29-3.878c-.644 0-1.139.34-1.484 1.022-.345.681-.518 1.633-.518 2.856 0 1.232.173 2.191.518 2.877.345.686.84 1.029 1.484 1.029.635 0 1.125-.343 1.47-1.029.345-.686.518-1.645.518-2.877 0-1.223-.173-2.175-.518-2.856-.345-.681-.835-1.022-1.47-1.022zm11.368 3.878c0 1.568-.29 2.81-.868 3.724-.579.915-1.386 1.372-2.422 1.372-1.045 0-1.857-.457-2.436-1.372-.57-.905-.854-2.147-.854-3.724 0-1.568.285-2.805.854-3.71.57-.905 1.381-1.358 2.436-1.358 1.036 0 1.843.457 2.422 1.372.579.915.868 2.147.868 3.696zm-3.29-3.878c-.644 0-1.139.34-1.484 1.022-.345.681-.518 1.633-.518 2.856 0 1.232.173 2.191.518 2.877.345.686.84 1.029 1.484 1.029.635 0 1.125-.343 1.47-1.029.345-.686.518-1.645.518-2.877 0-1.223-.173-2.175-.518-2.856-.345-.681-.835-1.022-1.47-1.022zm12.068 1.582c.99 0 1.783.35 2.38 1.05.607.69.91 1.568.91 2.632 0 1.055-.308 1.932-.924 2.632-.607.7-1.4 1.05-2.38 1.05-.532 0-1.001-.1-1.407-.301a2.223 2.223 0 0 1-.931-.819v3.976h-1.218V45.944h1.092l.056 1.036c.541-.793 1.349-1.19 2.422-1.19zm-.182 1.134c-.607 0-1.125.229-1.554.686-.43.457-.644 1.055-.644 1.792v.07c0 .765.215 1.377.644 1.834.439.467.952.7 1.54.7.653 0 1.19-.233 1.61-.7.42-.476.63-1.087.63-1.834 0-.756-.203-1.37-.609-1.841-.406-.471-.945-.707-1.617-.707zm8.498-1.134c1.045 0 1.9.345 2.562 1.036.672.681 1.008 1.563 1.008 2.646s-.336 1.965-1.008 2.646c-.663.69-1.517 1.036-2.562 1.036-1.055 0-1.918-.345-2.59-1.036-.663-.69-.994-1.573-.994-2.646s.331-1.955.994-2.646c.672-.69 1.535-1.036 2.59-1.036zm.014 1.12c-.71 0-1.279.243-1.708.728-.43.467-.644 1.078-.644 1.834 0 .737.215 1.349.644 1.834.43.485.999.728 1.708.728.69 0 1.246-.243 1.666-.728.43-.485.644-1.097.644-1.834 0-.756-.215-1.367-.644-1.834-.42-.485-.975-.728-1.666-.728zm6.888-3.136a.771.771 0 0 1-.245.574.822.822 0 0 1-.595.238.799.799 0 0 1-.588-.238.782.782 0 0 1-.238-.574.8.8 0 0 1 .238-.588.799.799 0 0 1 .588-.238c.233 0 .432.08.595.238a.787.787 0 0 1 .245.588zm-1.442 2.17h1.204V53H67.7v-7.056zm6.79-.154c.728 0 1.293.238 1.694.714s.602 1.12.602 1.932V53h-1.218v-4.368c0-.532-.121-.943-.364-1.232-.243-.29-.579-.434-1.008-.434-.485 0-.88.203-1.183.609-.303.406-.455.954-.455 1.645V53h-1.204v-7.056h1.078l.07.966c.392-.747 1.055-1.12 1.988-1.12zm4.984-1.61h1.218l-.014 1.764h1.806v1.12h-1.82l-.028 3.78c0 .42.072.716.217.889.145.173.408.259.791.259.308 0 .588-.042.84-.126v1.078c-.261.103-.611.154-1.05.154-.681 0-1.188-.163-1.519-.49-.331-.327-.492-.84-.483-1.54l.028-4.004h-1.316v-1.12h1.316l.014-1.764zm6.79 1.61c.672 0 1.223.205 1.652.616.43.401.653.938.672 1.61h-1.232c-.01-.737-.383-1.106-1.12-1.106-.345 0-.611.086-.798.259-.187.173-.28.404-.28.693 0 .28.091.49.273.63.182.14.534.27 1.057.392.84.196 1.435.455 1.785.777.35.322.525.768.525 1.337 0 .663-.229 1.188-.686 1.575-.457.387-1.055.581-1.792.581-.793 0-1.416-.205-1.869-.616-.453-.41-.688-.97-.707-1.68h1.232c.01.784.467 1.176 1.372 1.176.383 0 .681-.086.896-.259a.844.844 0 0 0 .322-.693c0-.299-.103-.53-.308-.693-.205-.163-.593-.31-1.162-.441-.765-.177-1.318-.42-1.659-.728-.34-.308-.511-.737-.511-1.288 0-.597.205-1.101.616-1.512.42-.42.994-.63 1.722-.63z" fill="#7B8A9D"/><path d="M39.98 12.2h1.932v8.008h4.074V22H39.98v-9.8zm10.598 2.548c1.008 0 1.808.32 2.401.959.593.64.889 1.552.889 2.737v.56h-4.942c.028.476.196.861.504 1.155.308.294.71.441 1.204.441.737 0 1.213-.275 1.428-.826h1.764c-.467 1.587-1.55 2.38-3.248 2.38-1.055 0-1.909-.336-2.562-1.008-.644-.681-.966-1.577-.966-2.688 0-1.092.327-1.979.98-2.66.663-.7 1.512-1.05 2.548-1.05zm-1.638 2.996h3.094c-.01-.448-.15-.807-.42-1.078-.27-.27-.63-.406-1.078-.406-.439 0-.803.135-1.092.406-.29.27-.457.63-.504 1.078zm10.794-2.842h1.974L59.132 22h-1.848l-2.562-7.098h1.96l1.386 4.354.14.616.14-.616 1.386-4.354zm6.216-.154c1.008 0 1.808.32 2.401.959.593.64.889 1.552.889 2.737v.56h-4.942c.028.476.196.861.504 1.155.308.294.71.441 1.204.441.737 0 1.213-.275 1.428-.826h1.764c-.467 1.587-1.55 2.38-3.248 2.38-1.055 0-1.909-.336-2.562-1.008-.644-.681-.966-1.577-.966-2.688 0-1.092.327-1.979.98-2.66.663-.7 1.512-1.05 2.548-1.05zm-1.638 2.996h3.094c-.01-.448-.15-.807-.42-1.078-.27-.27-.63-.406-1.078-.406-.439 0-.803.135-1.092.406-.29.27-.457.63-.504 1.078zm6.734-5.964h1.82V22h-1.82V11.78zm7.028.42h5.698v1.792H80.02v1.974a3.05 3.05 0 0 1 1.33-.28c.887 0 1.596.264 2.128.791s.798 1.29.798 2.289c0 1.045-.292 1.876-.875 2.492-.583.616-1.379.924-2.387.924s-1.797-.264-2.366-.791c-.57-.527-.854-1.276-.854-2.247h1.932c.01.401.128.71.357.924.229.215.544.322.945.322.42 0 .744-.135.973-.406.229-.27.343-.644.343-1.12 0-.476-.119-.845-.357-1.106-.238-.261-.572-.392-1.001-.392-.448 0-.845.117-1.19.35h-1.722V12.2z" fill="#3E4E62"/></g><g transform="translate(734 44)"><use fill="#FFF" xlink:href="#f"/><circle fill="#DC226D" cx="20" cy="17" r="9"/><path d="M15.046 43.018c.784 0 1.437.247 1.96.742.523.495.803 1.148.84 1.96h-1.288c-.103-1.008-.62-1.512-1.554-1.512-.663 0-1.16.301-1.491.903-.331.602-.506 1.542-.525 2.821.177-.28.455-.513.833-.7.378-.187.782-.28 1.211-.28.924 0 1.661.29 2.212.868.541.57.812 1.302.812 2.198 0 .924-.28 1.685-.84 2.282-.56.588-1.302.882-2.226.882-.97 0-1.74-.327-2.31-.98-.653-.737-.98-2.02-.98-3.85 0-1.783.273-3.117.819-4.004.546-.887 1.388-1.33 2.527-1.33zm-.084 5.124c-.513 0-.952.182-1.316.546-.364.355-.546.798-.546 1.33 0 .523.173.985.518 1.386.345.401.793.602 1.344.602.532 0 .964-.184 1.295-.553.331-.369.497-.838.497-1.407 0-.541-.168-.994-.504-1.358-.336-.364-.765-.546-1.288-.546zm5.348 3.318c.243 0 .443.084.602.252.159.168.238.387.238.658 0 .41-.093.838-.28 1.281a4.226 4.226 0 0 1-.742 1.183l-.392-.154c.261-.439.425-.966.49-1.582a.787.787 0 0 1-.756-.812c0-.233.082-.43.245-.588a.822.822 0 0 1 .595-.238zm8.862-3.374c0 1.568-.29 2.81-.868 3.724-.579.915-1.386 1.372-2.422 1.372-1.045 0-1.857-.457-2.436-1.372-.57-.905-.854-2.147-.854-3.724 0-1.568.285-2.805.854-3.71.57-.905 1.381-1.358 2.436-1.358 1.036 0 1.843.457 2.422 1.372.579.915.868 2.147.868 3.696zm-3.29-3.878c-.644 0-1.139.34-1.484 1.022-.345.681-.518 1.633-.518 2.856 0 1.232.173 2.191.518 2.877.345.686.84 1.029 1.484 1.029.635 0 1.125-.343 1.47-1.029.345-.686.518-1.645.518-2.877 0-1.223-.173-2.175-.518-2.856-.345-.681-.835-1.022-1.47-1.022zm11.368 3.878c0 1.568-.29 2.81-.868 3.724-.579.915-1.386 1.372-2.422 1.372-1.045 0-1.857-.457-2.436-1.372-.57-.905-.854-2.147-.854-3.724 0-1.568.285-2.805.854-3.71.57-.905 1.381-1.358 2.436-1.358 1.036 0 1.843.457 2.422 1.372.579.915.868 2.147.868 3.696zm-3.29-3.878c-.644 0-1.139.34-1.484 1.022-.345.681-.518 1.633-.518 2.856 0 1.232.173 2.191.518 2.877.345.686.84 1.029 1.484 1.029.635 0 1.125-.343 1.47-1.029.345-.686.518-1.645.518-2.877 0-1.223-.173-2.175-.518-2.856-.345-.681-.835-1.022-1.47-1.022zm11.368 3.878c0 1.568-.29 2.81-.868 3.724-.579.915-1.386 1.372-2.422 1.372-1.045 0-1.857-.457-2.436-1.372-.57-.905-.854-2.147-.854-3.724 0-1.568.285-2.805.854-3.71.57-.905 1.381-1.358 2.436-1.358 1.036 0 1.843.457 2.422 1.372.579.915.868 2.147.868 3.696zm-3.29-3.878c-.644 0-1.139.34-1.484 1.022-.345.681-.518 1.633-.518 2.856 0 1.232.173 2.191.518 2.877.345.686.84 1.029 1.484 1.029.635 0 1.125-.343 1.47-1.029.345-.686.518-1.645.518-2.877 0-1.223-.173-2.175-.518-2.856-.345-.681-.835-1.022-1.47-1.022zm12.068 1.582c.99 0 1.783.35 2.38 1.05.607.69.91 1.568.91 2.632 0 1.055-.308 1.932-.924 2.632-.607.7-1.4 1.05-2.38 1.05-.532 0-1.001-.1-1.407-.301a2.223 2.223 0 0 1-.931-.819v3.976h-1.218V45.944h1.092l.056 1.036c.541-.793 1.349-1.19 2.422-1.19zm-.182 1.134c-.607 0-1.125.229-1.554.686-.43.457-.644 1.055-.644 1.792v.07c0 .765.215 1.377.644 1.834.439.467.952.7 1.54.7.653 0 1.19-.233 1.61-.7.42-.476.63-1.087.63-1.834 0-.756-.203-1.37-.609-1.841-.406-.471-.945-.707-1.617-.707zm8.498-1.134c1.045 0 1.9.345 2.562 1.036.672.681 1.008 1.563 1.008 2.646s-.336 1.965-1.008 2.646c-.663.69-1.517 1.036-2.562 1.036-1.055 0-1.918-.345-2.59-1.036-.663-.69-.994-1.573-.994-2.646s.331-1.955.994-2.646c.672-.69 1.535-1.036 2.59-1.036zm.014 1.12c-.71 0-1.279.243-1.708.728-.43.467-.644 1.078-.644 1.834 0 .737.215 1.349.644 1.834.43.485.999.728 1.708.728.69 0 1.246-.243 1.666-.728.43-.485.644-1.097.644-1.834 0-.756-.215-1.367-.644-1.834-.42-.485-.975-.728-1.666-.728zm6.888-3.136a.771.771 0 0 1-.245.574.822.822 0 0 1-.595.238.799.799 0 0 1-.588-.238.782.782 0 0 1-.238-.574.8.8 0 0 1 .238-.588.799.799 0 0 1 .588-.238c.233 0 .432.08.595.238a.787.787 0 0 1 .245.588zm-1.442 2.17h1.204V53h-1.204v-7.056zm6.79-.154c.728 0 1.293.238 1.694.714s.602 1.12.602 1.932V53H75.75v-4.368c0-.532-.121-.943-.364-1.232-.243-.29-.579-.434-1.008-.434-.485 0-.88.203-1.183.609-.303.406-.455.954-.455 1.645V53h-1.204v-7.056h1.078l.07.966c.392-.747 1.055-1.12 1.988-1.12zm4.984-1.61h1.218l-.014 1.764h1.806v1.12h-1.82l-.028 3.78c0 .42.072.716.217.889.145.173.408.259.791.259.308 0 .588-.042.84-.126v1.078c-.261.103-.611.154-1.05.154-.681 0-1.188-.163-1.519-.49-.331-.327-.492-.84-.483-1.54l.028-4.004h-1.316v-1.12h1.316l.014-1.764zm6.79 1.61c.672 0 1.223.205 1.652.616.43.401.653.938.672 1.61h-1.232c-.01-.737-.383-1.106-1.12-1.106-.345 0-.611.086-.798.259-.187.173-.28.404-.28.693 0 .28.091.49.273.63.182.14.534.27 1.057.392.84.196 1.435.455 1.785.777.35.322.525.768.525 1.337 0 .663-.229 1.188-.686 1.575-.457.387-1.055.581-1.792.581-.793 0-1.416-.205-1.869-.616-.453-.41-.688-.97-.707-1.68h1.232c.01.784.467 1.176 1.372 1.176.383 0 .681-.086.896-.259a.844.844 0 0 0 .322-.693c0-.299-.103-.53-.308-.693-.205-.163-.593-.31-1.162-.441-.765-.177-1.318-.42-1.659-.728-.34-.308-.511-.737-.511-1.288 0-.597.205-1.101.616-1.512.42-.42.994-.63 1.722-.63z" fill="#7B8A9D"/><path d="M39.98 12.2h1.932v8.008h4.074V22H39.98v-9.8zm10.598 2.548c1.008 0 1.808.32 2.401.959.593.64.889 1.552.889 2.737v.56h-4.942c.028.476.196.861.504 1.155.308.294.71.441 1.204.441.737 0 1.213-.275 1.428-.826h1.764c-.467 1.587-1.55 2.38-3.248 2.38-1.055 0-1.909-.336-2.562-1.008-.644-.681-.966-1.577-.966-2.688 0-1.092.327-1.979.98-2.66.663-.7 1.512-1.05 2.548-1.05zm-1.638 2.996h3.094c-.01-.448-.15-.807-.42-1.078-.27-.27-.63-.406-1.078-.406-.439 0-.803.135-1.092.406-.29.27-.457.63-.504 1.078zm10.794-2.842h1.974L59.132 22h-1.848l-2.562-7.098h1.96l1.386 4.354.14.616.14-.616 1.386-4.354zm6.216-.154c1.008 0 1.808.32 2.401.959.593.64.889 1.552.889 2.737v.56h-4.942c.028.476.196.861.504 1.155.308.294.71.441 1.204.441.737 0 1.213-.275 1.428-.826h1.764c-.467 1.587-1.55 2.38-3.248 2.38-1.055 0-1.909-.336-2.562-1.008-.644-.681-.966-1.577-.966-2.688 0-1.092.327-1.979.98-2.66.663-.7 1.512-1.05 2.548-1.05zm-1.638 2.996h3.094c-.01-.448-.15-.807-.42-1.078-.27-.27-.63-.406-1.078-.406-.439 0-.803.135-1.092.406-.29.27-.457.63-.504 1.078zm6.734-5.964h1.82V22h-1.82V11.78zm10.234.238c.85 0 1.563.275 2.142.826.57.541.868 1.255.896 2.142h-1.96c-.056-.784-.443-1.176-1.162-1.176-1.008 0-1.517.91-1.526 2.73.41-.476 1.013-.714 1.806-.714.915 0 1.643.285 2.184.854.55.579.826 1.32.826 2.226 0 .98-.303 1.773-.91 2.38-.597.597-1.377.896-2.338.896-1.064 0-1.89-.336-2.478-1.008-.69-.83-1.036-2.123-1.036-3.878 0-1.773.292-3.096.875-3.969.583-.873 1.477-1.309 2.681-1.309zm-.112 5.446c-.392 0-.723.135-.994.406-.27.27-.41.602-.42.994v.056c0 .42.133.775.399 1.064.266.29.604.434 1.015.434.401 0 .728-.14.98-.42.252-.28.378-.64.378-1.078 0-.401-.128-.744-.385-1.029a1.254 1.254 0 0 0-.973-.427z" fill="#3E4E62"/></g></g></svg>