<svg width="694" height="324" viewBox="0 0 694 324" xmlns="http://www.w3.org/2000/svg" xmlns:xlink="http://www.w3.org/1999/xlink"><defs><ellipse id="a" cx="24" cy="20.526" rx="20" ry="20.526"/><filter x="-25%" y="-19.5%" width="150%" height="148.7%" filterUnits="objectBoundingBox" id="b"><feOffset dy="2" in="SourceAlpha" result="shadowOffsetOuter1"/><feGaussianBlur stdDeviation="3" in="shadowOffsetOuter1" result="shadowBlurOuter1"/><feColorMatrix values="0 0 0 0 0.619607843 0 0 0 0 0.670588235 0 0 0 0 0.737254902 0 0 0 0.7 0" in="shadowBlurOuter1"/></filter></defs><g fill="none" fill-rule="evenodd"><path d="M696 0H-24v324h720z"/><g transform="translate(483 84.21)"><path d="M8.938 59.998l-.156-.468-.156.468-1.32 3.387h2.964l-1.332-3.387zM8.23 58.09h1.128l3.372 8.622h-1.2l-.888-2.279H6.934l-.876 2.279h-1.2L8.23 58.09zm5.664-.369h1.032v8.99h-1.032v-8.99zm9.9 2.783h1.104l-1.92 6.208h-1.044l-1.464-4.434-1.476 4.434h-1.008l-1.92-6.208h1.104l1.26 4.336.12.566.132-.566 1.356-4.336h.888l1.356 4.336.132.566.12-.566 1.26-4.336zm4.272-.135c.68 0 1.21.193 1.59.579.38.386.57.936.57 1.65v4.114h-.936l-.048-.85a1.819 1.819 0 0 1-.732.72c-.32.177-.688.265-1.104.265-.536 0-.964-.158-1.284-.474-.32-.316-.48-.741-.48-1.275 0-.977.564-1.576 1.692-1.798l1.848-.357v-.308c0-.854-.372-1.28-1.116-1.28-.368 0-.666.1-.894.3-.228.202-.342.48-.342.832h-1.02a2.13 2.13 0 0 1 .648-1.515c.416-.402.952-.603 1.608-.603zm1.116 3.732v-.234l-1.656.37c-.28.073-.49.174-.63.3-.14.128-.21.31-.21.549 0 .246.08.437.24.573.16.135.388.203.684.203.528 0 .936-.206 1.224-.616.232-.328.348-.71.348-1.145zm6.564-3.597h1.116l-3.3 8.855H32.47l1.008-2.734-2.268-6.12h1.104l1.596 4.458.12.468.12-.468 1.596-4.459zm3.948-.135c.576 0 1.048.18 1.416.542.368.353.56.825.576 1.416H40.63c-.008-.649-.328-.973-.96-.973-.296 0-.524.076-.684.228-.16.152-.24.355-.24.61 0 .246.078.43.234.554.156.123.458.238.906.345.72.172 1.23.4 1.53.683.3.283.45.676.45 1.176 0 .583-.196 1.045-.588 1.386-.392.34-.904.511-1.536.511-.68 0-1.214-.18-1.602-.542-.388-.361-.59-.854-.606-1.478h1.056c.008.69.4 1.035 1.176 1.035.328 0 .584-.076.768-.228a.75.75 0 0 0 .276-.61c0-.262-.088-.466-.264-.61-.176-.143-.508-.272-.996-.387-.656-.156-1.13-.37-1.422-.64-.292-.272-.438-.65-.438-1.134 0-.525.176-.969.528-1.33.36-.37.852-.554 1.476-.554z" fill="#3E4E62"/><mask id="c" fill="#fff"><use xlink:href="#a"/></mask><use fill="#000" filter="url(#b)" xlink:href="#a"/><use fill="#FFF" xlink:href="#a"/><g mask="url(#c)" fill="#B10695"><path d="M-1-5.132h50v51H-1z"/></g><path d="M21.417 14.574h5.278v1.221h-3.99v2.917c.41-.25.943-.374 1.596-.374.877 0 1.582.283 2.114.848.532.565.798 1.327.798 2.285 0 .996-.28 1.8-.84 2.413-.55.623-1.297.934-2.24.934-.933 0-1.666-.253-2.198-.761s-.798-1.231-.798-2.17h1.274c.01.565.166.992.469 1.279.303.287.726.431 1.267.431.55 0 .985-.19 1.302-.568.317-.378.476-.883.476-1.515 0-.604-.159-1.08-.476-1.43-.317-.35-.76-.524-1.33-.524a2.75 2.75 0 0 0-1.568.46h-1.134v-5.446z" fill="#FFF" mask="url(#c)"/></g></g></svg>