<svg width="693px" height="324px" viewBox="0 0 693 324" xmlns="http://www.w3.org/2000/svg" xmlns:xlink="http://www.w3.org/1999/xlink"><!--Generator: Sketch 45.2 (43514) - http://www.bohemiancoding.com/sketch--><defs><rect id="path-1" width="1400" height="950.848633"/><circle id="path-3" cx="20.8333333" cy="20.8333333" r="20.8333333"/><path d="M29.2520928,31.2483085 C28.2020575,31.9617828 27.5798144,33.1284887 27.5798144,34.3829168 L27.5798144,36.657847 L18.8474697,36.5145673 L18.8474697,34.3741445 C18.8474697,33.1314127 18.2192435,31.9588587 17.1662167,31.2424604 C14.1507307,29.1839117 12.460503,25.8124534 12.6399962,22.2216895 C12.9062445,16.9642029 17.3307521,12.6570407 22.7065737,12.4143424 C22.8770923,12.4055702 23.0476108,12.4026461 23.2151378,12.4026461 C25.9554008,12.4026461 28.5341199,13.4085279 30.523503,15.2653154 C32.6385313,17.2361419 33.8022456,19.8941259 33.8022456,22.750947 C33.8022456,26.1341016 32.1000517,29.3096469 29.2520928,31.2483085 M22.5569961,9.22125271 C15.5148791,9.53997687 9.72622311,15.1805172 9.3732198,22.0608654 C9.13688707,26.7598536 11.3506367,31.1722826 15.2964957,33.8624314 C15.4759889,33.9823185 15.5806933,34.1723834 15.5806933,34.3829168 L15.5806933,36.5145673 C15.5806933,38.2485437 17.0196305,39.6813404 18.7936218,39.7105811 L27.5259664,39.8538608 L27.5798144,39.8538608 C28.4443733,39.8538608 29.2580759,39.5292885 29.8743359,38.9357013 C30.5025621,38.3304178 30.8495823,37.5233731 30.8495823,36.657847 L30.8495823,34.3712205 C30.8495823,34.1723834 30.9483036,33.9852426 31.1188222,33.8712037 C34.8462978,31.3360308 37.0690221,27.1779963 37.0690221,22.750947 C37.0690221,19.0139794 35.5463213,15.5343303 32.7821259,12.9523722 C30.0179305,10.3704141 26.3742183,9.05165637 22.5569961,9.22125271 M28.2179887,42.205032 L18.2799282,42.1142479 C17.3418496,42.1051695 16.5678574,42.8465726 16.5585695,43.7695439 C16.5554735,44.6894889 17.3170819,45.4399704 18.2551605,45.4460227 L28.193221,45.5398329 C28.4099388,45.5398329 28.6173687,45.5035193 28.8062228,45.430892 C29.4470884,45.1948535 29.9052918,44.5926526 29.9114837,43.884537 C29.9207717,42.9615658 29.1591633,42.2080581 28.2179887,42.205032 M25.2579327,46.8801081 L21.239365,46.7893241 C20.3012864,46.7832718 19.5272941,47.5246749 19.5211022,48.4476461 C19.5180062,49.3645651 20.2765186,50.1180727 21.2145972,50.124125 L25.233165,50.214909 C25.4498828,50.2179352 25.6573127,50.1785954 25.8461669,50.1089943 C26.4870324,49.8729558 26.9452358,49.2707549 26.9514278,48.5596131 C26.9576197,47.6366419 26.1991073,46.8861604 25.2579327,46.8801081 M23.9984617,7.11179313 C24.6536665,7.11179313 25.1830373,6.57808322 25.1830373,5.92721746 L25.1830373,1.18457567 C25.1830373,0.529370813 24.6536665,0 23.9984617,0 C23.3475959,0 22.813886,0.529370813 22.813886,1.18457567 L22.813886,5.92721746 C22.813886,6.57808322 23.3475959,7.11179313 23.9984617,7.11179313 M39.9891074,7.2552885 L36.6393183,10.6094167 C36.1750341,11.0693618 36.1750341,11.8243661 36.6393183,12.2843112 C36.8692909,12.5142838 37.1730282,12.6314396 37.4767656,12.6314396 C37.7761638,12.6314396 38.0842403,12.5142838 38.3142128,12.2843112 L41.668341,8.93018304 C42.1282862,8.47023791 42.1282862,7.71523363 41.668341,7.2552885 C41.2040568,6.79534337 40.4533916,6.79534337 39.9891074,7.2552885 M9.9400194,12.6323074 C10.2394176,12.6323074 10.5474941,12.5151516 10.7774667,12.285179 C11.2417509,11.8208948 11.2417509,11.0702296 10.7774667,10.6102845 L7.42333849,7.25615632 C6.95905425,6.79187208 6.21272818,6.79187208 5.74410484,7.25615632 C5.28415971,7.72044056 5.28415971,8.47110573 5.74410484,8.93105086 L9.10257213,12.285179 C9.32820559,12.5151516 9.63628205,12.6323074 9.9400194,12.6323074 M6.40303901,20.6158737 L1.66039722,20.6158737 C1.00953146,20.6158737 0.48016065,21.1495836 0.48016065,21.8004493 C0.48016065,22.4556542 1.00953146,22.985025 1.66039722,22.985025 L6.40303901,22.985025 C7.05824387,22.985025 7.58761468,22.4556542 7.58761468,21.8004493 C7.58761468,21.1495836 7.05824387,20.6158737 6.40303901,20.6158737 M43.903039,20.6158737 L39.1603972,20.6158737 C38.5095315,20.6158737 37.9801606,21.1495836 37.9801606,21.8004493 C37.9801606,22.4556542 38.5095315,22.985025 39.1603972,22.985025 L43.903039,22.985025 C44.5582439,22.985025 45.0876147,22.4556542 45.0876147,21.8004493 C45.0876147,21.1495836 44.5582439,20.6158737 43.903039,20.6158737" id="path-5"/></defs><g id="Design" fill="none" fill-rule="evenodd"><g id="responsum---case-study" transform="translate(-25.000000, -2832.000000)"><g id="Section-4" transform="translate(0.000000, 3155.000000)"><rect id="Rectangle-Copy-15" transform="translate(720.000000, 475.000000) scale(-1, 1) translate(-720.000000, -475.000000) " width="1440" height="950"/><g id="Group" transform="translate(20.000000, 0.000000)"><mask id="mask-2" fill="white"><use xlink:href="#path-1"/></mask></g></g><rect id="Rectangle-Copy-5" transform="translate(360.000000, 2993.000000) scale(-1, 1) translate(-360.000000, -2993.000000) " y="2831" width="720" height="324"/><g id="section3-reaction5-asset" transform="translate(504.000000, 2968.000000)"><g id="Group-2" transform="translate(4.166667, 4.166667)"><mask id="mask-4" fill="white"><use xlink:href="#path-3"/></mask><g id="color/interactive/secondary-inactive" opacity="0.3" mask="url(#mask-4)" fill="#9895D3" fill-opacity="0.4"><g transform="translate(-33.333333, -33.333333)" id="color-swatch-copy-3"><rect width="104" height="104" rx="4"/></g></g></g><g id="icon-color" transform="translate(2.083333, 0.000000)"><mask id="mask-6" fill="white"><use xlink:href="#path-5"/></mask><use id="Mask" fill="#000000" xlink:href="#path-5"/><g id="color/interactive/secondary-text" mask="url(#mask-6)" fill="#7876AC"><g transform="translate(-15.512821, -8.442982)" id="color-swatch-copy-3"><rect width="76" height="75"/></g></g></g></g></g></g></svg>