<svg width="1036px" height="146px" viewBox="0 0 1036 146" xmlns="http://www.w3.org/2000/svg" xmlns:xlink="http://www.w3.org/1999/xlink"><!--Generator: Sketch 45.2 (43514) - http://www.bohemiancoding.com/sketch--><defs><rect id="path-1" width="99" height="34" rx="17"/><rect id="path-3" width="99" height="34" rx="17"/><rect id="path-5" width="99" height="34" rx="17"/><rect id="path-7" width="99" height="34" rx="17"/><rect id="path-9" width="99" height="34" rx="17"/><rect id="path-11" width="99" height="34" rx="17"/></defs><g id="Design" fill="none" fill-rule="evenodd"><g id="responsum---case-study" transform="translate(-201.000000, -2235.000000)"><g id="Group-4" transform="translate(220.000000, 2260.000000)"><g id="section2-levels-asset" transform="translate(0.000000, 19.000000)"><path d="M65,17 C65,17 65.4493978,17 66.0061592,17 L768.993841,17" id="Line" stroke="#FFFFFF" stroke-width="2" stroke-linecap="square"/><g id="Stacked-Group"><g id="Group-2-Copy-2"><mask id="mask-2" fill="white"><use xlink:href="#path-1"/></mask><use id="Rectangle-13" fill="#FFFFFF" xlink:href="#path-1"/><circle id="Mask-Copy-2" fill="#524EA7" cx="20" cy="17" r="9"/><path d="M13.744,43.2 L14.724,43.2 L14.724,53 L13.45,53 L13.45,45.496 L11.392,45.496 L11.392,44.404 C12.1573372,44.404 12.7126649,44.3176675 13.058,44.145 C13.4033351,43.9723325 13.6319994,43.6573356 13.744,43.2 Z M17.454,51.46 C17.6966679,51.46 17.8973325,51.5439992 18.056,51.712 C18.2146675,51.8800008 18.294,52.099332 18.294,52.37 C18.294,52.7806687 18.2006676,53.2076644 18.014,53.651 C17.8273324,54.0943355 17.5800015,54.4886649 17.272,54.834 L16.88,54.68 C17.1413346,54.2413311 17.3046663,53.7140031 17.37,53.098 C17.1459989,53.0793332 16.9640007,52.9953341 16.824,52.846 C16.6839993,52.6966659 16.614,52.5100011 16.614,52.286 C16.614,52.0526655 16.6956659,51.8566675 16.859,51.698 C17.0223342,51.5393325 17.2206655,51.46 17.454,51.46 Z M26.316,48.086 C26.316,49.6540078 26.0266696,50.8953288 25.448,51.81 C24.8693304,52.7246712 24.0620052,53.182 23.026,53.182 C21.9806614,53.182 21.1686696,52.7246712 20.59,51.81 C20.0206638,50.9046621 19.736,49.6633412 19.736,48.086 C19.736,46.5179922 20.0206638,45.2813379 20.59,44.376 C21.1593362,43.4706621 21.9713281,43.018 23.026,43.018 C24.0620052,43.018 24.8693304,43.4753288 25.448,44.39 C26.0266696,45.3046712 26.316,46.5366589 26.316,48.086 Z M23.026,44.208 C22.3819968,44.208 21.8873351,44.5486633 21.542,45.23 C21.1966649,45.9113367 21.024,46.8633272 21.024,48.086 C21.024,49.3180062 21.1966649,50.2769966 21.542,50.963 C21.8873351,51.6490034 22.3819968,51.992 23.026,51.992 C23.6606698,51.992 24.1506649,51.6490034 24.496,50.963 C24.8413351,50.2769966 25.014,49.3180062 25.014,48.086 C25.014,46.8633272 24.8413351,45.9113367 24.496,45.23 C24.1506649,44.5486633 23.6606698,44.208 23.026,44.208 Z M34.394,48.086 C34.394,49.6540078 34.1046696,50.8953288 33.526,51.81 C32.9473304,52.7246712 32.1400052,53.182 31.104,53.182 C30.0586614,53.182 29.2466696,52.7246712 28.668,51.81 C28.0986638,50.9046621 27.814,49.6633412 27.814,48.086 C27.814,46.5179922 28.0986638,45.2813379 28.668,44.376 C29.2373362,43.4706621 30.0493281,43.018 31.104,43.018 C32.1400052,43.018 32.9473304,43.4753288 33.526,44.39 C34.1046696,45.3046712 34.394,46.5366589 34.394,48.086 Z M31.104,44.208 C30.4599968,44.208 29.9653351,44.5486633 29.62,45.23 C29.2746649,45.9113367 29.102,46.8633272 29.102,48.086 C29.102,49.3180062 29.2746649,50.2769966 29.62,50.963 C29.9653351,51.6490034 30.4599968,51.992 31.104,51.992 C31.7386698,51.992 32.2286649,51.6490034 32.574,50.963 C32.9193351,50.2769966 33.092,49.3180062 33.092,48.086 C33.092,46.8633272 32.9193351,45.9113367 32.574,45.23 C32.2286649,44.5486633 31.7386698,44.208 31.104,44.208 Z M42.472,48.086 C42.472,49.6540078 42.1826696,50.8953288 41.604,51.81 C41.0253304,52.7246712 40.2180052,53.182 39.182,53.182 C38.1366614,53.182 37.3246696,52.7246712 36.746,51.81 C36.1766638,50.9046621 35.892,49.6633412 35.892,48.086 C35.892,46.5179922 36.1766638,45.2813379 36.746,44.376 C37.3153362,43.4706621 38.1273281,43.018 39.182,43.018 C40.2180052,43.018 41.0253304,43.4753288 41.604,44.39 C42.1826696,45.3046712 42.472,46.5366589 42.472,48.086 Z M39.182,44.208 C38.5379968,44.208 38.0433351,44.5486633 37.698,45.23 C37.3526649,45.9113367 37.18,46.8633272 37.18,48.086 C37.18,49.3180062 37.3526649,50.2769966 37.698,50.963 C38.0433351,51.6490034 38.5379968,51.992 39.182,51.992 C39.8166698,51.992 40.3066649,51.6490034 40.652,50.963 C40.9973351,50.2769966 41.17,49.3180062 41.17,48.086 C41.17,46.8633272 40.9973351,45.9113367 40.652,45.23 C40.3066649,44.5486633 39.8166698,44.208 39.182,44.208 Z M51.25,45.79 C52.2393383,45.79 53.0326637,46.1399965 53.63,46.84 C54.2366697,47.5306701 54.54,48.4079947 54.54,49.472 C54.54,50.5266719 54.2320031,51.4039965 53.616,52.104 C53.0093303,52.8040035 52.2160049,53.154 51.236,53.154 C50.7039973,53.154 50.235002,53.0536677 49.829,52.853 C49.422998,52.6523323 49.1126677,52.3793351 48.898,52.034 L48.898,56.01 L47.68,56.01 L47.68,45.944 L48.772,45.944 L48.828,46.98 C49.369336,46.1866627 50.1766613,45.79 51.25,45.79 Z M51.068,46.924 C50.4613303,46.924 49.9433355,47.1526644 49.514,47.61 C49.0846645,48.0673356 48.87,48.664663 48.87,49.402 L48.87,49.472 C48.87,50.2373372 49.0846645,50.8486644 49.514,51.306 C49.9526689,51.772669 50.4659971,52.006 51.054,52.006 C51.7073366,52.006 52.2439979,51.772669 52.664,51.306 C53.0840021,50.8299976 53.294,50.2186704 53.294,49.472 C53.294,48.7159962 53.091002,48.1023357 52.685,47.631 C52.278998,47.1596643 51.7400034,46.924 51.068,46.924 Z M59.566,45.79 C60.6113386,45.79 61.46533,46.1353299 62.128,46.826 C62.8000034,47.5073367 63.136,48.3893279 63.136,49.472 C63.136,50.5546721 62.8000034,51.4366633 62.128,52.118 C61.46533,52.8086701 60.6113386,53.154 59.566,53.154 C58.5113281,53.154 57.6480034,52.8086701 56.976,52.118 C56.31333,51.4273299 55.982,50.5453387 55.982,49.472 C55.982,48.3986613 56.31333,47.5166701 56.976,46.826 C57.6480034,46.1353299 58.5113281,45.79 59.566,45.79 Z M59.58,46.91 C58.8706631,46.91 58.3013355,47.1526642 57.872,47.638 C57.4426645,48.104669 57.228,48.7159962 57.228,49.472 C57.228,50.209337 57.4426645,50.8206642 57.872,51.306 C58.3013355,51.7913358 58.8706631,52.034 59.58,52.034 C60.2706701,52.034 60.8259979,51.7913358 61.246,51.306 C61.6753355,50.8206642 61.89,50.209337 61.89,49.472 C61.89,48.7159962 61.6753355,48.104669 61.246,47.638 C60.8259979,47.1526642 60.2706701,46.91 59.58,46.91 Z M66.468,43.774 C66.468,43.9980011 66.3863342,44.1893325 66.223,44.348 C66.0596659,44.5066675 65.8613345,44.586 65.628,44.586 C65.3946655,44.586 65.1986675,44.5066675 65.04,44.348 C64.8813325,44.1893325 64.802,43.9980011 64.802,43.774 C64.802,43.5406655 64.8813325,43.3446675 65.04,43.186 C65.1986675,43.0273325 65.3946655,42.948 65.628,42.948 C65.8613345,42.948 66.0596659,43.0273325 66.223,43.186 C66.3863342,43.3446675 66.468,43.5406655 66.468,43.774 Z M65.026,45.944 L66.23,45.944 L66.23,53 L65.026,53 L65.026,45.944 Z M71.816,45.79 C72.5440037,45.79 73.1086647,46.0279976 73.51,46.504 C73.9113354,46.9800024 74.112,47.6239959 74.112,48.436 L74.112,53 L72.894,53 L72.894,48.632 C72.894,48.0999973 72.7726679,47.6893348 72.53,47.4 C72.2873321,47.1106652 71.9513355,46.966 71.522,46.966 C71.0366643,46.966 70.6423349,47.168998 70.339,47.575 C70.0356652,47.981002 69.884,48.5293299 69.884,49.22 L69.884,53 L68.68,53 L68.68,45.944 L69.758,45.944 L69.828,46.91 C70.220002,46.1633296 70.882662,45.79 71.816,45.79 Z M76.8,44.18 L78.018,44.18 L78.004,45.944 L79.81,45.944 L79.81,47.064 L77.99,47.064 L77.962,50.844 C77.962,51.2640021 78.0343326,51.5603325 78.179,51.733 C78.3236674,51.9056675 78.5873314,51.992 78.97,51.992 C79.2780016,51.992 79.5579988,51.9500004 79.81,51.866 L79.81,52.944 C79.5486654,53.0466672 79.1986689,53.098 78.76,53.098 C78.0786633,53.098 77.572335,52.9346683 77.241,52.608 C76.909665,52.2813317 76.7486666,51.7680035 76.758,51.068 L76.786,47.064 L75.47,47.064 L75.47,45.944 L76.786,45.944 L76.8,44.18 Z M83.59,45.79 C84.2620034,45.79 84.8126645,45.9953313 85.242,46.406 C85.6713355,46.8073353 85.8953333,47.3439966 85.914,48.016 L84.682,48.016 C84.6726666,47.278663 84.299337,46.91 83.562,46.91 C83.216665,46.91 82.9506676,46.9963325 82.764,47.169 C82.5773324,47.3416675 82.484,47.5726652 82.484,47.862 C82.484,48.1420014 82.5749991,48.3519993 82.757,48.492 C82.9390009,48.6320007 83.2913307,48.7626661 83.814,48.884 C84.6540042,49.080001 85.2489983,49.3389984 85.599,49.661 C85.9490018,49.9830016 86.124,50.4286638 86.124,50.998 C86.124,51.66067 85.8953356,52.1856647 85.438,52.573 C84.9806644,52.9603353 84.383337,53.154 83.646,53.154 C82.8526627,53.154 82.2296689,52.9486687 81.777,52.538 C81.3243311,52.1273313 81.0886668,51.5673369 81.07,50.858 L82.302,50.858 C82.3113334,51.6420039 82.7686622,52.034 83.674,52.034 C84.0566686,52.034 84.3553323,51.9476675 84.57,51.775 C84.7846678,51.6023325 84.892,51.3713348 84.892,51.082 C84.892,50.7833318 84.7893344,50.5523342 84.584,50.389 C84.3786657,50.2256658 83.9913362,50.0786673 83.422,49.948 C82.6566629,49.7706658 82.1036684,49.5280015 81.763,49.22 C81.4223316,48.9119985 81.252,48.4826694 81.252,47.932 C81.252,47.3346637 81.4573313,46.8306687 81.868,46.42 C82.2880021,45.9999979 82.8619964,45.79 83.59,45.79 Z" id="1,000-points" fill="#7B8A9D"/><path d="M39.98,12.2 L41.912,12.2 L41.912,20.208 L45.986,20.208 L45.986,22 L39.98,22 L39.98,12.2 Z M50.578,14.748 C51.586005,14.748 52.3863304,15.0676635 52.979,15.707 C53.5716696,16.3463365 53.868,17.2586607 53.868,18.444 L53.868,19.004 L48.926,19.004 C48.9540001,19.4800024 49.1219985,19.8649985 49.43,20.159 C49.7380015,20.4530015 50.1393309,20.6 50.634,20.6 C51.371337,20.6 51.8473323,20.3246694 52.062,19.774 L53.826,19.774 C53.359331,21.3606746 52.2766752,22.154 50.578,22.154 C49.5233281,22.154 48.6693366,21.8180034 48.016,21.146 C47.3719968,20.4646633 47.05,19.5686722 47.05,18.458 C47.05,17.3659945 47.3766634,16.4793367 48.03,15.798 C48.69267,15.0979965 49.5419948,14.748 50.578,14.748 Z M48.94,17.744 L52.034,17.744 C52.0246666,17.2959978 51.884668,16.936668 51.614,16.666 C51.343332,16.395332 50.9840022,16.26 50.536,16.26 C50.0973311,16.26 49.7333348,16.395332 49.444,16.666 C49.1546652,16.936668 48.9866669,17.2959978 48.94,17.744 Z M59.734,14.902 L61.708,14.902 L59.132,22 L57.284,22 L54.722,14.902 L56.682,14.902 L58.068,19.256 L58.208,19.872 L58.348,19.256 L59.734,14.902 Z M65.95,14.748 C66.958005,14.748 67.7583304,15.0676635 68.351,15.707 C68.9436696,16.3463365 69.24,17.2586607 69.24,18.444 L69.24,19.004 L64.298,19.004 C64.3260001,19.4800024 64.4939985,19.8649985 64.802,20.159 C65.1100015,20.4530015 65.5113309,20.6 66.006,20.6 C66.743337,20.6 67.2193323,20.3246694 67.434,19.774 L69.198,19.774 C68.731331,21.3606746 67.6486752,22.154 65.95,22.154 C64.8953281,22.154 64.0413366,21.8180034 63.388,21.146 C62.7439968,20.4646633 62.422,19.5686722 62.422,18.458 C62.422,17.3659945 62.7486634,16.4793367 63.402,15.798 C64.06467,15.0979965 64.9139948,14.748 65.95,14.748 Z M64.312,17.744 L67.406,17.744 C67.3966666,17.2959978 67.256668,16.936668 66.986,16.666 C66.715332,16.395332 66.3560022,16.26 65.908,16.26 C65.4693311,16.26 65.1053348,16.395332 64.816,16.666 C64.5266652,16.936668 64.3586669,17.2959978 64.312,17.744 Z M71.046,11.78 L72.866,11.78 L72.866,22 L71.046,22 L71.046,11.78 Z M80.174,12.2 L81.588,12.2 L81.588,22 L79.656,22 L79.656,15.21 L77.598,15.21 L77.598,13.586 C78.3913373,13.586 78.9886647,13.481001 79.39,13.271 C79.7913353,13.0609989 80.0526661,12.7040025 80.174,12.2 Z" id="Level-1" fill="#3E4E62"/></g><g id="Group-2-Copy-3" transform="translate(143.000000, 0.000000)"><mask id="mask-4" fill="white"><use xlink:href="#path-3"/></mask><use id="Rectangle-13" fill="#FFFFFF" xlink:href="#path-3"/><circle id="Mask-Copy-2" fill="#777FE7" cx="20" cy="17" r="9"/><path d="M14.458,43.018 C15.3260043,43.018 15.9979976,43.2583309 16.474,43.739 C16.9500024,44.2196691 17.188,44.8846624 17.188,45.734 C17.188,46.6300045 16.7913373,47.5866616 15.998,48.604 L13.492,51.81 L17.342,51.81 L17.342,53 L11.742,53 L11.742,52.062 L14.892,48.086 C15.2653352,47.6006642 15.5266659,47.1946683 15.676,46.868 C15.8253341,46.5413317 15.9,46.1773353 15.9,45.776 C15.9,44.7306614 15.4146715,44.208 14.444,44.208 C13.9679976,44.208 13.594668,44.3619985 13.324,44.67 C13.053332,44.9780015 12.918,45.4306637 12.918,46.028 L11.644,46.028 C11.644,45.1039954 11.8983308,44.371336 12.407,43.83 C12.9156692,43.288664 13.599329,43.018 14.458,43.018 Z M19.484,51.46 C19.7266679,51.46 19.9273325,51.5439992 20.086,51.712 C20.2446675,51.8800008 20.324,52.099332 20.324,52.37 C20.324,52.7806687 20.2306676,53.2076644 20.044,53.651 C19.8573324,54.0943355 19.6100015,54.4886649 19.302,54.834 L18.91,54.68 C19.1713346,54.2413311 19.3346663,53.7140031 19.4,53.098 C19.1759989,53.0793332 18.9940007,52.9953341 18.854,52.846 C18.7139993,52.6966659 18.644,52.5100011 18.644,52.286 C18.644,52.0526655 18.7256659,51.8566675 18.889,51.698 C19.0523342,51.5393325 19.2506655,51.46 19.484,51.46 Z M28.346,48.086 C28.346,49.6540078 28.0566696,50.8953288 27.478,51.81 C26.8993304,52.7246712 26.0920052,53.182 25.056,53.182 C24.0106614,53.182 23.1986696,52.7246712 22.62,51.81 C22.0506638,50.9046621 21.766,49.6633412 21.766,48.086 C21.766,46.5179922 22.0506638,45.2813379 22.62,44.376 C23.1893362,43.4706621 24.0013281,43.018 25.056,43.018 C26.0920052,43.018 26.8993304,43.4753288 27.478,44.39 C28.0566696,45.3046712 28.346,46.5366589 28.346,48.086 Z M25.056,44.208 C24.4119968,44.208 23.9173351,44.5486633 23.572,45.23 C23.2266649,45.9113367 23.054,46.8633272 23.054,48.086 C23.054,49.3180062 23.2266649,50.2769966 23.572,50.963 C23.9173351,51.6490034 24.4119968,51.992 25.056,51.992 C25.6906698,51.992 26.1806649,51.6490034 26.526,50.963 C26.8713351,50.2769966 27.044,49.3180062 27.044,48.086 C27.044,46.8633272 26.8713351,45.9113367 26.526,45.23 C26.1806649,44.5486633 25.6906698,44.208 25.056,44.208 Z M36.424,48.086 C36.424,49.6540078 36.1346696,50.8953288 35.556,51.81 C34.9773304,52.7246712 34.1700052,53.182 33.134,53.182 C32.0886614,53.182 31.2766696,52.7246712 30.698,51.81 C30.1286638,50.9046621 29.844,49.6633412 29.844,48.086 C29.844,46.5179922 30.1286638,45.2813379 30.698,44.376 C31.2673362,43.4706621 32.0793281,43.018 33.134,43.018 C34.1700052,43.018 34.9773304,43.4753288 35.556,44.39 C36.1346696,45.3046712 36.424,46.5366589 36.424,48.086 Z M33.134,44.208 C32.4899968,44.208 31.9953351,44.5486633 31.65,45.23 C31.3046649,45.9113367 31.132,46.8633272 31.132,48.086 C31.132,49.3180062 31.3046649,50.2769966 31.65,50.963 C31.9953351,51.6490034 32.4899968,51.992 33.134,51.992 C33.7686698,51.992 34.2586649,51.6490034 34.604,50.963 C34.9493351,50.2769966 35.122,49.3180062 35.122,48.086 C35.122,46.8633272 34.9493351,45.9113367 34.604,45.23 C34.2586649,44.5486633 33.7686698,44.208 33.134,44.208 Z M44.502,48.086 C44.502,49.6540078 44.2126696,50.8953288 43.634,51.81 C43.0553304,52.7246712 42.2480052,53.182 41.212,53.182 C40.1666614,53.182 39.3546696,52.7246712 38.776,51.81 C38.2066638,50.9046621 37.922,49.6633412 37.922,48.086 C37.922,46.5179922 38.2066638,45.2813379 38.776,44.376 C39.3453362,43.4706621 40.1573281,43.018 41.212,43.018 C42.2480052,43.018 43.0553304,43.4753288 43.634,44.39 C44.2126696,45.3046712 44.502,46.5366589 44.502,48.086 Z M41.212,44.208 C40.5679968,44.208 40.0733351,44.5486633 39.728,45.23 C39.3826649,45.9113367 39.21,46.8633272 39.21,48.086 C39.21,49.3180062 39.3826649,50.2769966 39.728,50.963 C40.0733351,51.6490034 40.5679968,51.992 41.212,51.992 C41.8466698,51.992 42.3366649,51.6490034 42.682,50.963 C43.0273351,50.2769966 43.2,49.3180062 43.2,48.086 C43.2,46.8633272 43.0273351,45.9113367 42.682,45.23 C42.3366649,44.5486633 41.8466698,44.208 41.212,44.208 Z M53.28,45.79 C54.2693383,45.79 55.0626637,46.1399965 55.66,46.84 C56.2666697,47.5306701 56.57,48.4079947 56.57,49.472 C56.57,50.5266719 56.2620031,51.4039965 55.646,52.104 C55.0393303,52.8040035 54.2460049,53.154 53.266,53.154 C52.7339973,53.154 52.265002,53.0536677 51.859,52.853 C51.452998,52.6523323 51.1426677,52.3793351 50.928,52.034 L50.928,56.01 L49.71,56.01 L49.71,45.944 L50.802,45.944 L50.858,46.98 C51.399336,46.1866627 52.2066613,45.79 53.28,45.79 Z M53.098,46.924 C52.4913303,46.924 51.9733355,47.1526644 51.544,47.61 C51.1146645,48.0673356 50.9,48.664663 50.9,49.402 L50.9,49.472 C50.9,50.2373372 51.1146645,50.8486644 51.544,51.306 C51.9826689,51.772669 52.4959971,52.006 53.084,52.006 C53.7373366,52.006 54.2739979,51.772669 54.694,51.306 C55.1140021,50.8299976 55.324,50.2186704 55.324,49.472 C55.324,48.7159962 55.121002,48.1023357 54.715,47.631 C54.308998,47.1596643 53.7700034,46.924 53.098,46.924 Z M61.596,45.79 C62.6413386,45.79 63.49533,46.1353299 64.158,46.826 C64.8300034,47.5073367 65.166,48.3893279 65.166,49.472 C65.166,50.5546721 64.8300034,51.4366633 64.158,52.118 C63.49533,52.8086701 62.6413386,53.154 61.596,53.154 C60.5413281,53.154 59.6780034,52.8086701 59.006,52.118 C58.34333,51.4273299 58.012,50.5453387 58.012,49.472 C58.012,48.3986613 58.34333,47.5166701 59.006,46.826 C59.6780034,46.1353299 60.5413281,45.79 61.596,45.79 Z M61.61,46.91 C60.9006631,46.91 60.3313355,47.1526642 59.902,47.638 C59.4726645,48.104669 59.258,48.7159962 59.258,49.472 C59.258,50.209337 59.4726645,50.8206642 59.902,51.306 C60.3313355,51.7913358 60.9006631,52.034 61.61,52.034 C62.3006701,52.034 62.8559979,51.7913358 63.276,51.306 C63.7053355,50.8206642 63.92,50.209337 63.92,49.472 C63.92,48.7159962 63.7053355,48.104669 63.276,47.638 C62.8559979,47.1526642 62.3006701,46.91 61.61,46.91 Z M68.498,43.774 C68.498,43.9980011 68.4163342,44.1893325 68.253,44.348 C68.0896659,44.5066675 67.8913345,44.586 67.658,44.586 C67.4246655,44.586 67.2286675,44.5066675 67.07,44.348 C66.9113325,44.1893325 66.832,43.9980011 66.832,43.774 C66.832,43.5406655 66.9113325,43.3446675 67.07,43.186 C67.2286675,43.0273325 67.4246655,42.948 67.658,42.948 C67.8913345,42.948 68.0896659,43.0273325 68.253,43.186 C68.4163342,43.3446675 68.498,43.5406655 68.498,43.774 Z M67.056,45.944 L68.26,45.944 L68.26,53 L67.056,53 L67.056,45.944 Z M73.846,45.79 C74.5740037,45.79 75.1386647,46.0279976 75.54,46.504 C75.9413354,46.9800024 76.142,47.6239959 76.142,48.436 L76.142,53 L74.924,53 L74.924,48.632 C74.924,48.0999973 74.8026679,47.6893348 74.56,47.4 C74.3173321,47.1106652 73.9813355,46.966 73.552,46.966 C73.0666643,46.966 72.6723349,47.168998 72.369,47.575 C72.0656652,47.981002 71.914,48.5293299 71.914,49.22 L71.914,53 L70.71,53 L70.71,45.944 L71.788,45.944 L71.858,46.91 C72.250002,46.1633296 72.912662,45.79 73.846,45.79 Z M78.83,44.18 L80.048,44.18 L80.034,45.944 L81.84,45.944 L81.84,47.064 L80.02,47.064 L79.992,50.844 C79.992,51.2640021 80.0643326,51.5603325 80.209,51.733 C80.3536674,51.9056675 80.6173314,51.992 81,51.992 C81.3080016,51.992 81.5879988,51.9500004 81.84,51.866 L81.84,52.944 C81.5786654,53.0466672 81.2286689,53.098 80.79,53.098 C80.1086633,53.098 79.602335,52.9346683 79.271,52.608 C78.939665,52.2813317 78.7786666,51.7680035 78.788,51.068 L78.816,47.064 L77.5,47.064 L77.5,45.944 L78.816,45.944 L78.83,44.18 Z M85.62,45.79 C86.2920034,45.79 86.8426645,45.9953313 87.272,46.406 C87.7013355,46.8073353 87.9253333,47.3439966 87.944,48.016 L86.712,48.016 C86.7026666,47.278663 86.329337,46.91 85.592,46.91 C85.246665,46.91 84.9806676,46.9963325 84.794,47.169 C84.6073324,47.3416675 84.514,47.5726652 84.514,47.862 C84.514,48.1420014 84.6049991,48.3519993 84.787,48.492 C84.9690009,48.6320007 85.3213307,48.7626661 85.844,48.884 C86.6840042,49.080001 87.2789983,49.3389984 87.629,49.661 C87.9790018,49.9830016 88.154,50.4286638 88.154,50.998 C88.154,51.66067 87.9253356,52.1856647 87.468,52.573 C87.0106644,52.9603353 86.413337,53.154 85.676,53.154 C84.8826627,53.154 84.2596689,52.9486687 83.807,52.538 C83.3543311,52.1273313 83.1186668,51.5673369 83.1,50.858 L84.332,50.858 C84.3413334,51.6420039 84.7986622,52.034 85.704,52.034 C86.0866686,52.034 86.3853323,51.9476675 86.6,51.775 C86.8146678,51.6023325 86.922,51.3713348 86.922,51.082 C86.922,50.7833318 86.8193344,50.5523342 86.614,50.389 C86.4086657,50.2256658 86.0213362,50.0786673 85.452,49.948 C84.6866629,49.7706658 84.1336684,49.5280015 83.793,49.22 C83.4523316,48.9119985 83.282,48.4826694 83.282,47.932 C83.282,47.3346637 83.4873313,46.8306687 83.898,46.42 C84.3180021,45.9999979 84.8919964,45.79 85.62,45.79 Z" id="2,000-points" fill="#7B8A9D"/><path d="M39.98,12.2 L41.912,12.2 L41.912,20.208 L45.986,20.208 L45.986,22 L39.98,22 L39.98,12.2 Z M50.578,14.748 C51.586005,14.748 52.3863304,15.0676635 52.979,15.707 C53.5716696,16.3463365 53.868,17.2586607 53.868,18.444 L53.868,19.004 L48.926,19.004 C48.9540001,19.4800024 49.1219985,19.8649985 49.43,20.159 C49.7380015,20.4530015 50.1393309,20.6 50.634,20.6 C51.371337,20.6 51.8473323,20.3246694 52.062,19.774 L53.826,19.774 C53.359331,21.3606746 52.2766752,22.154 50.578,22.154 C49.5233281,22.154 48.6693366,21.8180034 48.016,21.146 C47.3719968,20.4646633 47.05,19.5686722 47.05,18.458 C47.05,17.3659945 47.3766634,16.4793367 48.03,15.798 C48.69267,15.0979965 49.5419948,14.748 50.578,14.748 Z M48.94,17.744 L52.034,17.744 C52.0246666,17.2959978 51.884668,16.936668 51.614,16.666 C51.343332,16.395332 50.9840022,16.26 50.536,16.26 C50.0973311,16.26 49.7333348,16.395332 49.444,16.666 C49.1546652,16.936668 48.9866669,17.2959978 48.94,17.744 Z M59.734,14.902 L61.708,14.902 L59.132,22 L57.284,22 L54.722,14.902 L56.682,14.902 L58.068,19.256 L58.208,19.872 L58.348,19.256 L59.734,14.902 Z M65.95,14.748 C66.958005,14.748 67.7583304,15.0676635 68.351,15.707 C68.9436696,16.3463365 69.24,17.2586607 69.24,18.444 L69.24,19.004 L64.298,19.004 C64.3260001,19.4800024 64.4939985,19.8649985 64.802,20.159 C65.1100015,20.4530015 65.5113309,20.6 66.006,20.6 C66.743337,20.6 67.2193323,20.3246694 67.434,19.774 L69.198,19.774 C68.731331,21.3606746 67.6486752,22.154 65.95,22.154 C64.8953281,22.154 64.0413366,21.8180034 63.388,21.146 C62.7439968,20.4646633 62.422,19.5686722 62.422,18.458 C62.422,17.3659945 62.7486634,16.4793367 63.402,15.798 C64.06467,15.0979965 64.9139948,14.748 65.95,14.748 Z M64.312,17.744 L67.406,17.744 C67.3966666,17.2959978 67.256668,16.936668 66.986,16.666 C66.715332,16.395332 66.3560022,16.26 65.908,16.26 C65.4693311,16.26 65.1053348,16.395332 64.816,16.666 C64.5266652,16.936668 64.3586669,17.2959978 64.312,17.744 Z M71.046,11.78 L72.866,11.78 L72.866,22 L71.046,22 L71.046,11.78 Z M80.748,12.018 C81.681338,12.018 82.4023308,12.2723308 82.911,12.781 C83.4196692,13.2896692 83.674,13.9826623 83.674,14.86 C83.674,15.3733359 83.576001,15.8493311 83.38,16.288 C83.183999,16.7266689 82.8760021,17.1979975 82.456,17.702 L80.412,20.208 L83.702,20.208 L83.702,22 L77.738,22 L77.738,20.6 L80.748,17.016 C81.1120018,16.5866645 81.3663326,16.2273348 81.511,15.938 C81.6556674,15.6486652 81.728,15.3220018 81.728,14.958 C81.728,14.1926628 81.3920034,13.81 80.72,13.81 C79.9639962,13.81 79.5953332,14.2673288 79.614,15.182 L77.682,15.182 C77.6726666,14.2299952 77.9479972,13.4646696 78.508,12.886 C79.0680028,12.3073304 79.814662,12.018 80.748,12.018 Z" id="Level-2" fill="#3E4E62"/></g><g id="Group-2-Copy-4" transform="translate(286.000000, 0.000000)"><mask id="mask-6" fill="white"><use xlink:href="#path-5"/></mask><use id="Rectangle-13" fill="#FFFFFF" xlink:href="#path-5"/><circle id="Mask-Copy-2" fill="#9E83F1" cx="20" cy="17" r="9"/><path d="M17.412,45.776 C17.412,46.3266694 17.283668,46.7863315 17.027,47.155 C16.7703321,47.5236685 16.4413353,47.7779993 16.04,47.918 C16.5346691,48.0393339 16.9429984,48.3169978 17.265,48.751 C17.5870016,49.1850022 17.748,49.7146635 17.748,50.34 C17.748,51.1800042 17.4680028,51.8659973 16.908,52.398 C16.3386638,52.9206693 15.6060045,53.182 14.71,53.182 C13.7486619,53.182 12.9926694,52.918336 12.442,52.391 C11.8913306,51.863664 11.616,51.1286714 11.616,50.186 L12.876,50.186 C12.8853334,50.7833363 13.0533317,51.2336652 13.38,51.537 C13.7066683,51.8403348 14.1593304,51.992 14.738,51.992 C15.2513359,51.992 15.6666651,51.8380015 15.984,51.53 C16.3013349,51.2219985 16.46,50.8113359 16.46,50.298 C16.46,49.7099971 16.2593353,49.2620015 15.858,48.954 C15.4566647,48.6459985 14.887337,48.492 14.15,48.492 L13.828,48.492 L13.828,47.372 L14.136,47.372 C14.8266701,47.372 15.3306651,47.2460013 15.648,46.994 C15.9653349,46.7419987 16.124,46.345336 16.124,45.804 C16.124,45.2999975 15.9980013,44.9080014 15.746,44.628 C15.4939987,44.3479986 15.1300024,44.208 14.654,44.208 C14.187331,44.208 13.8116681,44.3596651 13.527,44.663 C13.2423319,44.9663348 13.1,45.4026638 13.1,45.972 L11.826,45.972 C11.826,45.0666621 12.0803308,44.3480027 12.589,43.816 C13.0976692,43.2839973 13.781329,43.018 14.64,43.018 C15.498671,43.018 16.1753309,43.2793307 16.67,43.802 C17.1646691,44.3246693 17.412,44.9826627 17.412,45.776 Z M20.114,51.46 C20.3566679,51.46 20.5573325,51.5439992 20.716,51.712 C20.8746675,51.8800008 20.954,52.099332 20.954,52.37 C20.954,52.7806687 20.8606676,53.2076644 20.674,53.651 C20.4873324,54.0943355 20.2400015,54.4886649 19.932,54.834 L19.54,54.68 C19.8013346,54.2413311 19.9646663,53.7140031 20.03,53.098 C19.8059989,53.0793332 19.6240007,52.9953341 19.484,52.846 C19.3439993,52.6966659 19.274,52.5100011 19.274,52.286 C19.274,52.0526655 19.3556659,51.8566675 19.519,51.698 C19.6823342,51.5393325 19.8806655,51.46 20.114,51.46 Z M28.976,48.086 C28.976,49.6540078 28.6866696,50.8953288 28.108,51.81 C27.5293304,52.7246712 26.7220052,53.182 25.686,53.182 C24.6406614,53.182 23.8286696,52.7246712 23.25,51.81 C22.6806638,50.9046621 22.396,49.6633412 22.396,48.086 C22.396,46.5179922 22.6806638,45.2813379 23.25,44.376 C23.8193362,43.4706621 24.6313281,43.018 25.686,43.018 C26.7220052,43.018 27.5293304,43.4753288 28.108,44.39 C28.6866696,45.3046712 28.976,46.5366589 28.976,48.086 Z M25.686,44.208 C25.0419968,44.208 24.5473351,44.5486633 24.202,45.23 C23.8566649,45.9113367 23.684,46.8633272 23.684,48.086 C23.684,49.3180062 23.8566649,50.2769966 24.202,50.963 C24.5473351,51.6490034 25.0419968,51.992 25.686,51.992 C26.3206698,51.992 26.8106649,51.6490034 27.156,50.963 C27.5013351,50.2769966 27.674,49.3180062 27.674,48.086 C27.674,46.8633272 27.5013351,45.9113367 27.156,45.23 C26.8106649,44.5486633 26.3206698,44.208 25.686,44.208 Z M37.054,48.086 C37.054,49.6540078 36.7646696,50.8953288 36.186,51.81 C35.6073304,52.7246712 34.8000052,53.182 33.764,53.182 C32.7186614,53.182 31.9066696,52.7246712 31.328,51.81 C30.7586638,50.9046621 30.474,49.6633412 30.474,48.086 C30.474,46.5179922 30.7586638,45.2813379 31.328,44.376 C31.8973362,43.4706621 32.7093281,43.018 33.764,43.018 C34.8000052,43.018 35.6073304,43.4753288 36.186,44.39 C36.7646696,45.3046712 37.054,46.5366589 37.054,48.086 Z M33.764,44.208 C33.1199968,44.208 32.6253351,44.5486633 32.28,45.23 C31.9346649,45.9113367 31.762,46.8633272 31.762,48.086 C31.762,49.3180062 31.9346649,50.2769966 32.28,50.963 C32.6253351,51.6490034 33.1199968,51.992 33.764,51.992 C34.3986698,51.992 34.8886649,51.6490034 35.234,50.963 C35.5793351,50.2769966 35.752,49.3180062 35.752,48.086 C35.752,46.8633272 35.5793351,45.9113367 35.234,45.23 C34.8886649,44.5486633 34.3986698,44.208 33.764,44.208 Z M45.132,48.086 C45.132,49.6540078 44.8426696,50.8953288 44.264,51.81 C43.6853304,52.7246712 42.8780052,53.182 41.842,53.182 C40.7966614,53.182 39.9846696,52.7246712 39.406,51.81 C38.8366638,50.9046621 38.552,49.6633412 38.552,48.086 C38.552,46.5179922 38.8366638,45.2813379 39.406,44.376 C39.9753362,43.4706621 40.7873281,43.018 41.842,43.018 C42.8780052,43.018 43.6853304,43.4753288 44.264,44.39 C44.8426696,45.3046712 45.132,46.5366589 45.132,48.086 Z M41.842,44.208 C41.1979968,44.208 40.7033351,44.5486633 40.358,45.23 C40.0126649,45.9113367 39.84,46.8633272 39.84,48.086 C39.84,49.3180062 40.0126649,50.2769966 40.358,50.963 C40.7033351,51.6490034 41.1979968,51.992 41.842,51.992 C42.4766698,51.992 42.9666649,51.6490034 43.312,50.963 C43.6573351,50.2769966 43.83,49.3180062 43.83,48.086 C43.83,46.8633272 43.6573351,45.9113367 43.312,45.23 C42.9666649,44.5486633 42.4766698,44.208 41.842,44.208 Z M53.91,45.79 C54.8993383,45.79 55.6926637,46.1399965 56.29,46.84 C56.8966697,47.5306701 57.2,48.4079947 57.2,49.472 C57.2,50.5266719 56.8920031,51.4039965 56.276,52.104 C55.6693303,52.8040035 54.8760049,53.154 53.896,53.154 C53.3639973,53.154 52.895002,53.0536677 52.489,52.853 C52.082998,52.6523323 51.7726677,52.3793351 51.558,52.034 L51.558,56.01 L50.34,56.01 L50.34,45.944 L51.432,45.944 L51.488,46.98 C52.029336,46.1866627 52.8366613,45.79 53.91,45.79 Z M53.728,46.924 C53.1213303,46.924 52.6033355,47.1526644 52.174,47.61 C51.7446645,48.0673356 51.53,48.664663 51.53,49.402 L51.53,49.472 C51.53,50.2373372 51.7446645,50.8486644 52.174,51.306 C52.6126689,51.772669 53.1259971,52.006 53.714,52.006 C54.3673366,52.006 54.9039979,51.772669 55.324,51.306 C55.7440021,50.8299976 55.954,50.2186704 55.954,49.472 C55.954,48.7159962 55.751002,48.1023357 55.345,47.631 C54.938998,47.1596643 54.4000034,46.924 53.728,46.924 Z M62.226,45.79 C63.2713386,45.79 64.12533,46.1353299 64.788,46.826 C65.4600034,47.5073367 65.796,48.3893279 65.796,49.472 C65.796,50.5546721 65.4600034,51.4366633 64.788,52.118 C64.12533,52.8086701 63.2713386,53.154 62.226,53.154 C61.1713281,53.154 60.3080034,52.8086701 59.636,52.118 C58.97333,51.4273299 58.642,50.5453387 58.642,49.472 C58.642,48.3986613 58.97333,47.5166701 59.636,46.826 C60.3080034,46.1353299 61.1713281,45.79 62.226,45.79 Z M62.24,46.91 C61.5306631,46.91 60.9613355,47.1526642 60.532,47.638 C60.1026645,48.104669 59.888,48.7159962 59.888,49.472 C59.888,50.209337 60.1026645,50.8206642 60.532,51.306 C60.9613355,51.7913358 61.5306631,52.034 62.24,52.034 C62.9306701,52.034 63.4859979,51.7913358 63.906,51.306 C64.3353355,50.8206642 64.55,50.209337 64.55,49.472 C64.55,48.7159962 64.3353355,48.104669 63.906,47.638 C63.4859979,47.1526642 62.9306701,46.91 62.24,46.91 Z M69.128,43.774 C69.128,43.9980011 69.0463342,44.1893325 68.883,44.348 C68.7196659,44.5066675 68.5213345,44.586 68.288,44.586 C68.0546655,44.586 67.8586675,44.5066675 67.7,44.348 C67.5413325,44.1893325 67.462,43.9980011 67.462,43.774 C67.462,43.5406655 67.5413325,43.3446675 67.7,43.186 C67.8586675,43.0273325 68.0546655,42.948 68.288,42.948 C68.5213345,42.948 68.7196659,43.0273325 68.883,43.186 C69.0463342,43.3446675 69.128,43.5406655 69.128,43.774 Z M67.686,45.944 L68.89,45.944 L68.89,53 L67.686,53 L67.686,45.944 Z M74.476,45.79 C75.2040037,45.79 75.7686647,46.0279976 76.17,46.504 C76.5713354,46.9800024 76.772,47.6239959 76.772,48.436 L76.772,53 L75.554,53 L75.554,48.632 C75.554,48.0999973 75.4326679,47.6893348 75.19,47.4 C74.9473321,47.1106652 74.6113355,46.966 74.182,46.966 C73.6966643,46.966 73.3023349,47.168998 72.999,47.575 C72.6956652,47.981002 72.544,48.5293299 72.544,49.22 L72.544,53 L71.34,53 L71.34,45.944 L72.418,45.944 L72.488,46.91 C72.880002,46.1633296 73.542662,45.79 74.476,45.79 Z M79.46,44.18 L80.678,44.18 L80.664,45.944 L82.47,45.944 L82.47,47.064 L80.65,47.064 L80.622,50.844 C80.622,51.2640021 80.6943326,51.5603325 80.839,51.733 C80.9836674,51.9056675 81.2473314,51.992 81.63,51.992 C81.9380016,51.992 82.2179988,51.9500004 82.47,51.866 L82.47,52.944 C82.2086654,53.0466672 81.8586689,53.098 81.42,53.098 C80.7386633,53.098 80.232335,52.9346683 79.901,52.608 C79.569665,52.2813317 79.4086666,51.7680035 79.418,51.068 L79.446,47.064 L78.13,47.064 L78.13,45.944 L79.446,45.944 L79.46,44.18 Z M86.25,45.79 C86.9220034,45.79 87.4726645,45.9953313 87.902,46.406 C88.3313355,46.8073353 88.5553333,47.3439966 88.574,48.016 L87.342,48.016 C87.3326666,47.278663 86.959337,46.91 86.222,46.91 C85.876665,46.91 85.6106676,46.9963325 85.424,47.169 C85.2373324,47.3416675 85.144,47.5726652 85.144,47.862 C85.144,48.1420014 85.2349991,48.3519993 85.417,48.492 C85.5990009,48.6320007 85.9513307,48.7626661 86.474,48.884 C87.3140042,49.080001 87.9089983,49.3389984 88.259,49.661 C88.6090018,49.9830016 88.784,50.4286638 88.784,50.998 C88.784,51.66067 88.5553356,52.1856647 88.098,52.573 C87.6406644,52.9603353 87.043337,53.154 86.306,53.154 C85.5126627,53.154 84.8896689,52.9486687 84.437,52.538 C83.9843311,52.1273313 83.7486668,51.5673369 83.73,50.858 L84.962,50.858 C84.9713334,51.6420039 85.4286622,52.034 86.334,52.034 C86.7166686,52.034 87.0153323,51.9476675 87.23,51.775 C87.4446678,51.6023325 87.552,51.3713348 87.552,51.082 C87.552,50.7833318 87.4493344,50.5523342 87.244,50.389 C87.0386657,50.2256658 86.6513362,50.0786673 86.082,49.948 C85.3166629,49.7706658 84.7636684,49.5280015 84.423,49.22 C84.0823316,48.9119985 83.912,48.4826694 83.912,47.932 C83.912,47.3346637 84.1173313,46.8306687 84.528,46.42 C84.9480021,45.9999979 85.5219964,45.79 86.25,45.79 Z" id="3,000-points" fill="#7B8A9D"/><path d="M39.98,12.2 L41.912,12.2 L41.912,20.208 L45.986,20.208 L45.986,22 L39.98,22 L39.98,12.2 Z M50.578,14.748 C51.586005,14.748 52.3863304,15.0676635 52.979,15.707 C53.5716696,16.3463365 53.868,17.2586607 53.868,18.444 L53.868,19.004 L48.926,19.004 C48.9540001,19.4800024 49.1219985,19.8649985 49.43,20.159 C49.7380015,20.4530015 50.1393309,20.6 50.634,20.6 C51.371337,20.6 51.8473323,20.3246694 52.062,19.774 L53.826,19.774 C53.359331,21.3606746 52.2766752,22.154 50.578,22.154 C49.5233281,22.154 48.6693366,21.8180034 48.016,21.146 C47.3719968,20.4646633 47.05,19.5686722 47.05,18.458 C47.05,17.3659945 47.3766634,16.4793367 48.03,15.798 C48.69267,15.0979965 49.5419948,14.748 50.578,14.748 Z M48.94,17.744 L52.034,17.744 C52.0246666,17.2959978 51.884668,16.936668 51.614,16.666 C51.343332,16.395332 50.9840022,16.26 50.536,16.26 C50.0973311,16.26 49.7333348,16.395332 49.444,16.666 C49.1546652,16.936668 48.9866669,17.2959978 48.94,17.744 Z M59.734,14.902 L61.708,14.902 L59.132,22 L57.284,22 L54.722,14.902 L56.682,14.902 L58.068,19.256 L58.208,19.872 L58.348,19.256 L59.734,14.902 Z M65.95,14.748 C66.958005,14.748 67.7583304,15.0676635 68.351,15.707 C68.9436696,16.3463365 69.24,17.2586607 69.24,18.444 L69.24,19.004 L64.298,19.004 C64.3260001,19.4800024 64.4939985,19.8649985 64.802,20.159 C65.1100015,20.4530015 65.5113309,20.6 66.006,20.6 C66.743337,20.6 67.2193323,20.3246694 67.434,19.774 L69.198,19.774 C68.731331,21.3606746 67.6486752,22.154 65.95,22.154 C64.8953281,22.154 64.0413366,21.8180034 63.388,21.146 C62.7439968,20.4646633 62.422,19.5686722 62.422,18.458 C62.422,17.3659945 62.7486634,16.4793367 63.402,15.798 C64.06467,15.0979965 64.9139948,14.748 65.95,14.748 Z M64.312,17.744 L67.406,17.744 C67.3966666,17.2959978 67.256668,16.936668 66.986,16.666 C66.715332,16.395332 66.3560022,16.26 65.908,16.26 C65.4693311,16.26 65.1053348,16.395332 64.816,16.666 C64.5266652,16.936668 64.3586669,17.2959978 64.312,17.744 Z M71.046,11.78 L72.866,11.78 L72.866,22 L71.046,22 L71.046,11.78 Z M80.888,12.018 C81.821338,12.018 82.5539973,12.288664 83.086,12.83 C83.627336,13.3620027 83.898,14.0433292 83.898,14.874 C83.898,15.3780025 83.7836678,15.8049982 83.555,16.155 C83.3263322,16.5050017 83.0346684,16.7546659 82.68,16.904 C83.146669,17.0440007 83.5223319,17.3076647 83.807,17.695 C84.0916681,18.0823353 84.234,18.5793303 84.234,19.186 C84.234,20.1100046 83.9376696,20.8403306 83.345,21.377 C82.7523304,21.9136693 81.9613383,22.182 80.972,22.182 C79.9546616,22.182 79.1543363,21.9020028 78.571,21.342 C77.9876638,20.7819972 77.696,20.0026717 77.696,19.004 L79.614,19.004 C79.6233334,19.4520022 79.7539987,19.7949988 80.006,20.033 C80.2580013,20.2710012 80.6033311,20.39 81.042,20.39 C81.4153352,20.39 81.7186655,20.2733345 81.952,20.04 C82.1853345,19.8066655 82.302,19.494002 82.302,19.102 C82.302,18.2059955 81.7420056,17.758 80.622,17.758 L80.034,17.758 L80.034,16.106 L80.594,16.106 C81.5086712,16.106 81.966,15.7233372 81.966,14.958 C81.966,14.5939982 81.8750009,14.3116677 81.693,14.111 C81.5109991,13.9103323 81.2520017,13.81 80.916,13.81 C80.5799983,13.81 80.3093344,13.9243322 80.104,14.153 C79.8986656,14.3816678 79.796,14.7059979 79.796,15.126 L77.864,15.126 C77.864,14.1646619 78.1369973,13.4063361 78.683,12.851 C79.2290027,12.2956639 79.9639954,12.018 80.888,12.018 Z" id="Level-3" fill="#3E4E62"/></g><g id="Group-2-Copy-5" transform="translate(429.000000, 0.000000)"><mask id="mask-8" fill="white"><use xlink:href="#path-7"/></mask><use id="Rectangle-13" fill="#FFFFFF" xlink:href="#path-7"/><circle id="Mask-Copy-2" fill="#9D52C1" cx="20" cy="17" r="9"/><path d="M15.27,43.2 L16.782,43.2 L16.782,49.836 L18.154,49.836 L18.154,50.998 L16.782,50.998 L16.782,53 L15.508,53 L15.508,50.998 L11.406,50.998 L11.406,49.948 L15.27,43.2 Z M15.522,49.85 L15.522,45.02 L15.214,45.622 L12.806,49.85 L15.522,49.85 Z M20.24,51.46 C20.4826679,51.46 20.6833325,51.5439992 20.842,51.712 C21.0006675,51.8800008 21.08,52.099332 21.08,52.37 C21.08,52.7806687 20.9866676,53.2076644 20.8,53.651 C20.6133324,54.0943355 20.3660015,54.4886649 20.058,54.834 L19.666,54.68 C19.9273346,54.2413311 20.0906663,53.7140031 20.156,53.098 C19.9319989,53.0793332 19.7500007,52.9953341 19.61,52.846 C19.4699993,52.6966659 19.4,52.5100011 19.4,52.286 C19.4,52.0526655 19.4816659,51.8566675 19.645,51.698 C19.8083342,51.5393325 20.0066655,51.46 20.24,51.46 Z M29.102,48.086 C29.102,49.6540078 28.8126696,50.8953288 28.234,51.81 C27.6553304,52.7246712 26.8480052,53.182 25.812,53.182 C24.7666614,53.182 23.9546696,52.7246712 23.376,51.81 C22.8066638,50.9046621 22.522,49.6633412 22.522,48.086 C22.522,46.5179922 22.8066638,45.2813379 23.376,44.376 C23.9453362,43.4706621 24.7573281,43.018 25.812,43.018 C26.8480052,43.018 27.6553304,43.4753288 28.234,44.39 C28.8126696,45.3046712 29.102,46.5366589 29.102,48.086 Z M25.812,44.208 C25.1679968,44.208 24.6733351,44.5486633 24.328,45.23 C23.9826649,45.9113367 23.81,46.8633272 23.81,48.086 C23.81,49.3180062 23.9826649,50.2769966 24.328,50.963 C24.6733351,51.6490034 25.1679968,51.992 25.812,51.992 C26.4466698,51.992 26.9366649,51.6490034 27.282,50.963 C27.6273351,50.2769966 27.8,49.3180062 27.8,48.086 C27.8,46.8633272 27.6273351,45.9113367 27.282,45.23 C26.9366649,44.5486633 26.4466698,44.208 25.812,44.208 Z M37.18,48.086 C37.18,49.6540078 36.8906696,50.8953288 36.312,51.81 C35.7333304,52.7246712 34.9260052,53.182 33.89,53.182 C32.8446614,53.182 32.0326696,52.7246712 31.454,51.81 C30.8846638,50.9046621 30.6,49.6633412 30.6,48.086 C30.6,46.5179922 30.8846638,45.2813379 31.454,44.376 C32.0233362,43.4706621 32.8353281,43.018 33.89,43.018 C34.9260052,43.018 35.7333304,43.4753288 36.312,44.39 C36.8906696,45.3046712 37.18,46.5366589 37.18,48.086 Z M33.89,44.208 C33.2459968,44.208 32.7513351,44.5486633 32.406,45.23 C32.0606649,45.9113367 31.888,46.8633272 31.888,48.086 C31.888,49.3180062 32.0606649,50.2769966 32.406,50.963 C32.7513351,51.6490034 33.2459968,51.992 33.89,51.992 C34.5246698,51.992 35.0146649,51.6490034 35.36,50.963 C35.7053351,50.2769966 35.878,49.3180062 35.878,48.086 C35.878,46.8633272 35.7053351,45.9113367 35.36,45.23 C35.0146649,44.5486633 34.5246698,44.208 33.89,44.208 Z M45.258,48.086 C45.258,49.6540078 44.9686696,50.8953288 44.39,51.81 C43.8113304,52.7246712 43.0040052,53.182 41.968,53.182 C40.9226614,53.182 40.1106696,52.7246712 39.532,51.81 C38.9626638,50.9046621 38.678,49.6633412 38.678,48.086 C38.678,46.5179922 38.9626638,45.2813379 39.532,44.376 C40.1013362,43.4706621 40.9133281,43.018 41.968,43.018 C43.0040052,43.018 43.8113304,43.4753288 44.39,44.39 C44.9686696,45.3046712 45.258,46.5366589 45.258,48.086 Z M41.968,44.208 C41.3239968,44.208 40.8293351,44.5486633 40.484,45.23 C40.1386649,45.9113367 39.966,46.8633272 39.966,48.086 C39.966,49.3180062 40.1386649,50.2769966 40.484,50.963 C40.8293351,51.6490034 41.3239968,51.992 41.968,51.992 C42.6026698,51.992 43.0926649,51.6490034 43.438,50.963 C43.7833351,50.2769966 43.956,49.3180062 43.956,48.086 C43.956,46.8633272 43.7833351,45.9113367 43.438,45.23 C43.0926649,44.5486633 42.6026698,44.208 41.968,44.208 Z M54.036,45.79 C55.0253383,45.79 55.8186637,46.1399965 56.416,46.84 C57.0226697,47.5306701 57.326,48.4079947 57.326,49.472 C57.326,50.5266719 57.0180031,51.4039965 56.402,52.104 C55.7953303,52.8040035 55.0020049,53.154 54.022,53.154 C53.4899973,53.154 53.021002,53.0536677 52.615,52.853 C52.208998,52.6523323 51.8986677,52.3793351 51.684,52.034 L51.684,56.01 L50.466,56.01 L50.466,45.944 L51.558,45.944 L51.614,46.98 C52.155336,46.1866627 52.9626613,45.79 54.036,45.79 Z M53.854,46.924 C53.2473303,46.924 52.7293355,47.1526644 52.3,47.61 C51.8706645,48.0673356 51.656,48.664663 51.656,49.402 L51.656,49.472 C51.656,50.2373372 51.8706645,50.8486644 52.3,51.306 C52.7386689,51.772669 53.2519971,52.006 53.84,52.006 C54.4933366,52.006 55.0299979,51.772669 55.45,51.306 C55.8700021,50.8299976 56.08,50.2186704 56.08,49.472 C56.08,48.7159962 55.877002,48.1023357 55.471,47.631 C55.064998,47.1596643 54.5260034,46.924 53.854,46.924 Z M62.352,45.79 C63.3973386,45.79 64.25133,46.1353299 64.914,46.826 C65.5860034,47.5073367 65.922,48.3893279 65.922,49.472 C65.922,50.5546721 65.5860034,51.4366633 64.914,52.118 C64.25133,52.8086701 63.3973386,53.154 62.352,53.154 C61.2973281,53.154 60.4340034,52.8086701 59.762,52.118 C59.09933,51.4273299 58.768,50.5453387 58.768,49.472 C58.768,48.3986613 59.09933,47.5166701 59.762,46.826 C60.4340034,46.1353299 61.2973281,45.79 62.352,45.79 Z M62.366,46.91 C61.6566631,46.91 61.0873355,47.1526642 60.658,47.638 C60.2286645,48.104669 60.014,48.7159962 60.014,49.472 C60.014,50.209337 60.2286645,50.8206642 60.658,51.306 C61.0873355,51.7913358 61.6566631,52.034 62.366,52.034 C63.0566701,52.034 63.6119979,51.7913358 64.032,51.306 C64.4613355,50.8206642 64.676,50.209337 64.676,49.472 C64.676,48.7159962 64.4613355,48.104669 64.032,47.638 C63.6119979,47.1526642 63.0566701,46.91 62.366,46.91 Z M69.254,43.774 C69.254,43.9980011 69.1723342,44.1893325 69.009,44.348 C68.8456659,44.5066675 68.6473345,44.586 68.414,44.586 C68.1806655,44.586 67.9846675,44.5066675 67.826,44.348 C67.6673325,44.1893325 67.588,43.9980011 67.588,43.774 C67.588,43.5406655 67.6673325,43.3446675 67.826,43.186 C67.9846675,43.0273325 68.1806655,42.948 68.414,42.948 C68.6473345,42.948 68.8456659,43.0273325 69.009,43.186 C69.1723342,43.3446675 69.254,43.5406655 69.254,43.774 Z M67.812,45.944 L69.016,45.944 L69.016,53 L67.812,53 L67.812,45.944 Z M74.602,45.79 C75.3300037,45.79 75.8946647,46.0279976 76.296,46.504 C76.6973354,46.9800024 76.898,47.6239959 76.898,48.436 L76.898,53 L75.68,53 L75.68,48.632 C75.68,48.0999973 75.5586679,47.6893348 75.316,47.4 C75.0733321,47.1106652 74.7373355,46.966 74.308,46.966 C73.8226643,46.966 73.4283349,47.168998 73.125,47.575 C72.8216652,47.981002 72.67,48.5293299 72.67,49.22 L72.67,53 L71.466,53 L71.466,45.944 L72.544,45.944 L72.614,46.91 C73.006002,46.1633296 73.668662,45.79 74.602,45.79 Z M79.586,44.18 L80.804,44.18 L80.79,45.944 L82.596,45.944 L82.596,47.064 L80.776,47.064 L80.748,50.844 C80.748,51.2640021 80.8203326,51.5603325 80.965,51.733 C81.1096674,51.9056675 81.3733314,51.992 81.756,51.992 C82.0640016,51.992 82.3439988,51.9500004 82.596,51.866 L82.596,52.944 C82.3346654,53.0466672 81.9846689,53.098 81.546,53.098 C80.8646633,53.098 80.358335,52.9346683 80.027,52.608 C79.695665,52.2813317 79.5346666,51.7680035 79.544,51.068 L79.572,47.064 L78.256,47.064 L78.256,45.944 L79.572,45.944 L79.586,44.18 Z M86.376,45.79 C87.0480034,45.79 87.5986645,45.9953313 88.028,46.406 C88.4573355,46.8073353 88.6813333,47.3439966 88.7,48.016 L87.468,48.016 C87.4586666,47.278663 87.085337,46.91 86.348,46.91 C86.002665,46.91 85.7366676,46.9963325 85.55,47.169 C85.3633324,47.3416675 85.27,47.5726652 85.27,47.862 C85.27,48.1420014 85.3609991,48.3519993 85.543,48.492 C85.7250009,48.6320007 86.0773307,48.7626661 86.6,48.884 C87.4400042,49.080001 88.0349983,49.3389984 88.385,49.661 C88.7350018,49.9830016 88.91,50.4286638 88.91,50.998 C88.91,51.66067 88.6813356,52.1856647 88.224,52.573 C87.7666644,52.9603353 87.169337,53.154 86.432,53.154 C85.6386627,53.154 85.0156689,52.9486687 84.563,52.538 C84.1103311,52.1273313 83.8746668,51.5673369 83.856,50.858 L85.088,50.858 C85.0973334,51.6420039 85.5546622,52.034 86.46,52.034 C86.8426686,52.034 87.1413323,51.9476675 87.356,51.775 C87.5706678,51.6023325 87.678,51.3713348 87.678,51.082 C87.678,50.7833318 87.5753344,50.5523342 87.37,50.389 C87.1646657,50.2256658 86.7773362,50.0786673 86.208,49.948 C85.4426629,49.7706658 84.8896684,49.5280015 84.549,49.22 C84.2083316,48.9119985 84.038,48.4826694 84.038,47.932 C84.038,47.3346637 84.2433313,46.8306687 84.654,46.42 C85.0740021,45.9999979 85.6479964,45.79 86.376,45.79 Z" id="4,000-points" fill="#7B8A9D"/><path d="M39.98,12.2 L41.912,12.2 L41.912,20.208 L45.986,20.208 L45.986,22 L39.98,22 L39.98,12.2 Z M50.578,14.748 C51.586005,14.748 52.3863304,15.0676635 52.979,15.707 C53.5716696,16.3463365 53.868,17.2586607 53.868,18.444 L53.868,19.004 L48.926,19.004 C48.9540001,19.4800024 49.1219985,19.8649985 49.43,20.159 C49.7380015,20.4530015 50.1393309,20.6 50.634,20.6 C51.371337,20.6 51.8473323,20.3246694 52.062,19.774 L53.826,19.774 C53.359331,21.3606746 52.2766752,22.154 50.578,22.154 C49.5233281,22.154 48.6693366,21.8180034 48.016,21.146 C47.3719968,20.4646633 47.05,19.5686722 47.05,18.458 C47.05,17.3659945 47.3766634,16.4793367 48.03,15.798 C48.69267,15.0979965 49.5419948,14.748 50.578,14.748 Z M48.94,17.744 L52.034,17.744 C52.0246666,17.2959978 51.884668,16.936668 51.614,16.666 C51.343332,16.395332 50.9840022,16.26 50.536,16.26 C50.0973311,16.26 49.7333348,16.395332 49.444,16.666 C49.1546652,16.936668 48.9866669,17.2959978 48.94,17.744 Z M59.734,14.902 L61.708,14.902 L59.132,22 L57.284,22 L54.722,14.902 L56.682,14.902 L58.068,19.256 L58.208,19.872 L58.348,19.256 L59.734,14.902 Z M65.95,14.748 C66.958005,14.748 67.7583304,15.0676635 68.351,15.707 C68.9436696,16.3463365 69.24,17.2586607 69.24,18.444 L69.24,19.004 L64.298,19.004 C64.3260001,19.4800024 64.4939985,19.8649985 64.802,20.159 C65.1100015,20.4530015 65.5113309,20.6 66.006,20.6 C66.743337,20.6 67.2193323,20.3246694 67.434,19.774 L69.198,19.774 C68.731331,21.3606746 67.6486752,22.154 65.95,22.154 C64.8953281,22.154 64.0413366,21.8180034 63.388,21.146 C62.7439968,20.4646633 62.422,19.5686722 62.422,18.458 C62.422,17.3659945 62.7486634,16.4793367 63.402,15.798 C64.06467,15.0979965 64.9139948,14.748 65.95,14.748 Z M64.312,17.744 L67.406,17.744 C67.3966666,17.2959978 67.256668,16.936668 66.986,16.666 C66.715332,16.395332 66.3560022,16.26 65.908,16.26 C65.4693311,16.26 65.1053348,16.395332 64.816,16.666 C64.5266652,16.936668 64.3586669,17.2959978 64.312,17.744 Z M71.046,11.78 L72.866,11.78 L72.866,22 L71.046,22 L71.046,11.78 Z M81.126,12.2 L83.52,12.2 L83.52,18.528 L84.766,18.528 L84.766,20.25 L83.52,20.25 L83.52,22 L81.588,22 L81.588,20.25 L77.486,20.25 L77.486,18.696 L81.126,12.2 Z M81.616,18.542 L81.616,14.594 L81.364,15.14 L79.474,18.542 L81.616,18.542 Z" id="Level-4" fill="#3E4E62"/></g><g id="Group-2-Copy-6" transform="translate(572.000000, 0.000000)"><mask id="mask-10" fill="white"><use xlink:href="#path-9"/></mask><use id="Rectangle-13" fill="#FFFFFF" xlink:href="#path-9"/><circle id="Mask-Copy-2" fill="#D348B4" cx="20" cy="17" r="9"/><path d="M12.148,43.2 L17.426,43.2 L17.426,44.39 L13.436,44.39 L13.436,47.232 C13.8466687,46.9893321 14.3786634,46.868 15.032,46.868 C15.9093377,46.868 16.6139973,47.1433306 17.146,47.694 C17.6780027,48.2446694 17.944,48.986662 17.944,49.92 C17.944,50.8906715 17.6640028,51.6746637 17.104,52.272 C16.5533306,52.8786697 15.8066714,53.182 14.864,53.182 C13.930662,53.182 13.1980027,52.9346691 12.666,52.44 C12.1339973,51.9453309 11.868,51.2406712 11.868,50.326 L13.142,50.326 C13.1513334,50.8766694 13.3076652,51.2919986 13.611,51.572 C13.9143348,51.8520014 14.336664,51.992 14.878,51.992 C15.4286694,51.992 15.8626651,51.8076685 16.18,51.439 C16.4973349,51.0703315 16.656,50.5780031 16.656,49.962 C16.656,49.3739971 16.4973349,48.9096684 16.18,48.569 C15.8626651,48.2283316 15.4193362,48.058 14.85,48.058 C14.2619971,48.058 13.7393356,48.2073318 13.282,48.506 L12.148,48.506 L12.148,43.2 Z M20.128,51.46 C20.3706679,51.46 20.5713325,51.5439992 20.73,51.712 C20.8886675,51.8800008 20.968,52.099332 20.968,52.37 C20.968,52.7806687 20.8746676,53.2076644 20.688,53.651 C20.5013324,54.0943355 20.2540015,54.4886649 19.946,54.834 L19.554,54.68 C19.8153346,54.2413311 19.9786663,53.7140031 20.044,53.098 C19.8199989,53.0793332 19.6380007,52.9953341 19.498,52.846 C19.3579993,52.6966659 19.288,52.5100011 19.288,52.286 C19.288,52.0526655 19.3696659,51.8566675 19.533,51.698 C19.6963342,51.5393325 19.8946655,51.46 20.128,51.46 Z M28.99,48.086 C28.99,49.6540078 28.7006696,50.8953288 28.122,51.81 C27.5433304,52.7246712 26.7360052,53.182 25.7,53.182 C24.6546614,53.182 23.8426696,52.7246712 23.264,51.81 C22.6946638,50.9046621 22.41,49.6633412 22.41,48.086 C22.41,46.5179922 22.6946638,45.2813379 23.264,44.376 C23.8333362,43.4706621 24.6453281,43.018 25.7,43.018 C26.7360052,43.018 27.5433304,43.4753288 28.122,44.39 C28.7006696,45.3046712 28.99,46.5366589 28.99,48.086 Z M25.7,44.208 C25.0559968,44.208 24.5613351,44.5486633 24.216,45.23 C23.8706649,45.9113367 23.698,46.8633272 23.698,48.086 C23.698,49.3180062 23.8706649,50.2769966 24.216,50.963 C24.5613351,51.6490034 25.0559968,51.992 25.7,51.992 C26.3346698,51.992 26.8246649,51.6490034 27.17,50.963 C27.5153351,50.2769966 27.688,49.3180062 27.688,48.086 C27.688,46.8633272 27.5153351,45.9113367 27.17,45.23 C26.8246649,44.5486633 26.3346698,44.208 25.7,44.208 Z M37.068,48.086 C37.068,49.6540078 36.7786696,50.8953288 36.2,51.81 C35.6213304,52.7246712 34.8140052,53.182 33.778,53.182 C32.7326614,53.182 31.9206696,52.7246712 31.342,51.81 C30.7726638,50.9046621 30.488,49.6633412 30.488,48.086 C30.488,46.5179922 30.7726638,45.2813379 31.342,44.376 C31.9113362,43.4706621 32.7233281,43.018 33.778,43.018 C34.8140052,43.018 35.6213304,43.4753288 36.2,44.39 C36.7786696,45.3046712 37.068,46.5366589 37.068,48.086 Z M33.778,44.208 C33.1339968,44.208 32.6393351,44.5486633 32.294,45.23 C31.9486649,45.9113367 31.776,46.8633272 31.776,48.086 C31.776,49.3180062 31.9486649,50.2769966 32.294,50.963 C32.6393351,51.6490034 33.1339968,51.992 33.778,51.992 C34.4126698,51.992 34.9026649,51.6490034 35.248,50.963 C35.5933351,50.2769966 35.766,49.3180062 35.766,48.086 C35.766,46.8633272 35.5933351,45.9113367 35.248,45.23 C34.9026649,44.5486633 34.4126698,44.208 33.778,44.208 Z M45.146,48.086 C45.146,49.6540078 44.8566696,50.8953288 44.278,51.81 C43.6993304,52.7246712 42.8920052,53.182 41.856,53.182 C40.8106614,53.182 39.9986696,52.7246712 39.42,51.81 C38.8506638,50.9046621 38.566,49.6633412 38.566,48.086 C38.566,46.5179922 38.8506638,45.2813379 39.42,44.376 C39.9893362,43.4706621 40.8013281,43.018 41.856,43.018 C42.8920052,43.018 43.6993304,43.4753288 44.278,44.39 C44.8566696,45.3046712 45.146,46.5366589 45.146,48.086 Z M41.856,44.208 C41.2119968,44.208 40.7173351,44.5486633 40.372,45.23 C40.0266649,45.9113367 39.854,46.8633272 39.854,48.086 C39.854,49.3180062 40.0266649,50.2769966 40.372,50.963 C40.7173351,51.6490034 41.2119968,51.992 41.856,51.992 C42.4906698,51.992 42.9806649,51.6490034 43.326,50.963 C43.6713351,50.2769966 43.844,49.3180062 43.844,48.086 C43.844,46.8633272 43.6713351,45.9113367 43.326,45.23 C42.9806649,44.5486633 42.4906698,44.208 41.856,44.208 Z M53.924,45.79 C54.9133383,45.79 55.7066637,46.1399965 56.304,46.84 C56.9106697,47.5306701 57.214,48.4079947 57.214,49.472 C57.214,50.5266719 56.9060031,51.4039965 56.29,52.104 C55.6833303,52.8040035 54.8900049,53.154 53.91,53.154 C53.3779973,53.154 52.909002,53.0536677 52.503,52.853 C52.096998,52.6523323 51.7866677,52.3793351 51.572,52.034 L51.572,56.01 L50.354,56.01 L50.354,45.944 L51.446,45.944 L51.502,46.98 C52.043336,46.1866627 52.8506613,45.79 53.924,45.79 Z M53.742,46.924 C53.1353303,46.924 52.6173355,47.1526644 52.188,47.61 C51.7586645,48.0673356 51.544,48.664663 51.544,49.402 L51.544,49.472 C51.544,50.2373372 51.7586645,50.8486644 52.188,51.306 C52.6266689,51.772669 53.1399971,52.006 53.728,52.006 C54.3813366,52.006 54.9179979,51.772669 55.338,51.306 C55.7580021,50.8299976 55.968,50.2186704 55.968,49.472 C55.968,48.7159962 55.765002,48.1023357 55.359,47.631 C54.952998,47.1596643 54.4140034,46.924 53.742,46.924 Z M62.24,45.79 C63.2853386,45.79 64.13933,46.1353299 64.802,46.826 C65.4740034,47.5073367 65.81,48.3893279 65.81,49.472 C65.81,50.5546721 65.4740034,51.4366633 64.802,52.118 C64.13933,52.8086701 63.2853386,53.154 62.24,53.154 C61.1853281,53.154 60.3220034,52.8086701 59.65,52.118 C58.98733,51.4273299 58.656,50.5453387 58.656,49.472 C58.656,48.3986613 58.98733,47.5166701 59.65,46.826 C60.3220034,46.1353299 61.1853281,45.79 62.24,45.79 Z M62.254,46.91 C61.5446631,46.91 60.9753355,47.1526642 60.546,47.638 C60.1166645,48.104669 59.902,48.7159962 59.902,49.472 C59.902,50.209337 60.1166645,50.8206642 60.546,51.306 C60.9753355,51.7913358 61.5446631,52.034 62.254,52.034 C62.9446701,52.034 63.4999979,51.7913358 63.92,51.306 C64.3493355,50.8206642 64.564,50.209337 64.564,49.472 C64.564,48.7159962 64.3493355,48.104669 63.92,47.638 C63.4999979,47.1526642 62.9446701,46.91 62.254,46.91 Z M69.142,43.774 C69.142,43.9980011 69.0603342,44.1893325 68.897,44.348 C68.7336659,44.5066675 68.5353345,44.586 68.302,44.586 C68.0686655,44.586 67.8726675,44.5066675 67.714,44.348 C67.5553325,44.1893325 67.476,43.9980011 67.476,43.774 C67.476,43.5406655 67.5553325,43.3446675 67.714,43.186 C67.8726675,43.0273325 68.0686655,42.948 68.302,42.948 C68.5353345,42.948 68.7336659,43.0273325 68.897,43.186 C69.0603342,43.3446675 69.142,43.5406655 69.142,43.774 Z M67.7,45.944 L68.904,45.944 L68.904,53 L67.7,53 L67.7,45.944 Z M74.49,45.79 C75.2180037,45.79 75.7826647,46.0279976 76.184,46.504 C76.5853354,46.9800024 76.786,47.6239959 76.786,48.436 L76.786,53 L75.568,53 L75.568,48.632 C75.568,48.0999973 75.4466679,47.6893348 75.204,47.4 C74.9613321,47.1106652 74.6253355,46.966 74.196,46.966 C73.7106643,46.966 73.3163349,47.168998 73.013,47.575 C72.7096652,47.981002 72.558,48.5293299 72.558,49.22 L72.558,53 L71.354,53 L71.354,45.944 L72.432,45.944 L72.502,46.91 C72.894002,46.1633296 73.556662,45.79 74.49,45.79 Z M79.474,44.18 L80.692,44.18 L80.678,45.944 L82.484,45.944 L82.484,47.064 L80.664,47.064 L80.636,50.844 C80.636,51.2640021 80.7083326,51.5603325 80.853,51.733 C80.9976674,51.9056675 81.2613314,51.992 81.644,51.992 C81.9520016,51.992 82.2319988,51.9500004 82.484,51.866 L82.484,52.944 C82.2226654,53.0466672 81.8726689,53.098 81.434,53.098 C80.7526633,53.098 80.246335,52.9346683 79.915,52.608 C79.583665,52.2813317 79.4226666,51.7680035 79.432,51.068 L79.46,47.064 L78.144,47.064 L78.144,45.944 L79.46,45.944 L79.474,44.18 Z M86.264,45.79 C86.9360034,45.79 87.4866645,45.9953313 87.916,46.406 C88.3453355,46.8073353 88.5693333,47.3439966 88.588,48.016 L87.356,48.016 C87.3466666,47.278663 86.973337,46.91 86.236,46.91 C85.890665,46.91 85.6246676,46.9963325 85.438,47.169 C85.2513324,47.3416675 85.158,47.5726652 85.158,47.862 C85.158,48.1420014 85.2489991,48.3519993 85.431,48.492 C85.6130009,48.6320007 85.9653307,48.7626661 86.488,48.884 C87.3280042,49.080001 87.9229983,49.3389984 88.273,49.661 C88.6230018,49.9830016 88.798,50.4286638 88.798,50.998 C88.798,51.66067 88.5693356,52.1856647 88.112,52.573 C87.6546644,52.9603353 87.057337,53.154 86.32,53.154 C85.5266627,53.154 84.9036689,52.9486687 84.451,52.538 C83.9983311,52.1273313 83.7626668,51.5673369 83.744,50.858 L84.976,50.858 C84.9853334,51.6420039 85.4426622,52.034 86.348,52.034 C86.7306686,52.034 87.0293323,51.9476675 87.244,51.775 C87.4586678,51.6023325 87.566,51.3713348 87.566,51.082 C87.566,50.7833318 87.4633344,50.5523342 87.258,50.389 C87.0526657,50.2256658 86.6653362,50.0786673 86.096,49.948 C85.3306629,49.7706658 84.7776684,49.5280015 84.437,49.22 C84.0963316,48.9119985 83.926,48.4826694 83.926,47.932 C83.926,47.3346637 84.1313313,46.8306687 84.542,46.42 C84.9620021,45.9999979 85.5359964,45.79 86.264,45.79 Z" id="5,000-points" fill="#7B8A9D"/><path d="M39.98,12.2 L41.912,12.2 L41.912,20.208 L45.986,20.208 L45.986,22 L39.98,22 L39.98,12.2 Z M50.578,14.748 C51.586005,14.748 52.3863304,15.0676635 52.979,15.707 C53.5716696,16.3463365 53.868,17.2586607 53.868,18.444 L53.868,19.004 L48.926,19.004 C48.9540001,19.4800024 49.1219985,19.8649985 49.43,20.159 C49.7380015,20.4530015 50.1393309,20.6 50.634,20.6 C51.371337,20.6 51.8473323,20.3246694 52.062,19.774 L53.826,19.774 C53.359331,21.3606746 52.2766752,22.154 50.578,22.154 C49.5233281,22.154 48.6693366,21.8180034 48.016,21.146 C47.3719968,20.4646633 47.05,19.5686722 47.05,18.458 C47.05,17.3659945 47.3766634,16.4793367 48.03,15.798 C48.69267,15.0979965 49.5419948,14.748 50.578,14.748 Z M48.94,17.744 L52.034,17.744 C52.0246666,17.2959978 51.884668,16.936668 51.614,16.666 C51.343332,16.395332 50.9840022,16.26 50.536,16.26 C50.0973311,16.26 49.7333348,16.395332 49.444,16.666 C49.1546652,16.936668 48.9866669,17.2959978 48.94,17.744 Z M59.734,14.902 L61.708,14.902 L59.132,22 L57.284,22 L54.722,14.902 L56.682,14.902 L58.068,19.256 L58.208,19.872 L58.348,19.256 L59.734,14.902 Z M65.95,14.748 C66.958005,14.748 67.7583304,15.0676635 68.351,15.707 C68.9436696,16.3463365 69.24,17.2586607 69.24,18.444 L69.24,19.004 L64.298,19.004 C64.3260001,19.4800024 64.4939985,19.8649985 64.802,20.159 C65.1100015,20.4530015 65.5113309,20.6 66.006,20.6 C66.743337,20.6 67.2193323,20.3246694 67.434,19.774 L69.198,19.774 C68.731331,21.3606746 67.6486752,22.154 65.95,22.154 C64.8953281,22.154 64.0413366,21.8180034 63.388,21.146 C62.7439968,20.4646633 62.422,19.5686722 62.422,18.458 C62.422,17.3659945 62.7486634,16.4793367 63.402,15.798 C64.06467,15.0979965 64.9139948,14.748 65.95,14.748 Z M64.312,17.744 L67.406,17.744 C67.3966666,17.2959978 67.256668,16.936668 66.986,16.666 C66.715332,16.395332 66.3560022,16.26 65.908,16.26 C65.4693311,16.26 65.1053348,16.395332 64.816,16.666 C64.5266652,16.936668 64.3586669,17.2959978 64.312,17.744 Z M71.046,11.78 L72.866,11.78 L72.866,22 L71.046,22 L71.046,11.78 Z M78.074,12.2 L83.772,12.2 L83.772,13.992 L80.02,13.992 L80.02,15.966 C80.412002,15.7793324 80.8553309,15.686 81.35,15.686 C82.2366711,15.686 82.9459973,15.949664 83.478,16.477 C84.0100027,17.004336 84.276,17.7673283 84.276,18.766 C84.276,19.8113386 83.9843363,20.6419969 83.401,21.258 C82.8176638,21.8740031 82.022005,22.182 81.014,22.182 C80.005995,22.182 79.2173362,21.918336 78.648,21.391 C78.0786638,20.863664 77.794,20.1146715 77.794,19.144 L79.726,19.144 C79.7353334,19.5453353 79.8543322,19.8533323 80.083,20.068 C80.3116678,20.2826677 80.6266647,20.39 81.028,20.39 C81.4480021,20.39 81.7723322,20.254668 82.001,19.984 C82.2296678,19.713332 82.344,19.3400024 82.344,18.864 C82.344,18.3879976 82.2250012,18.0193346 81.987,17.758 C81.7489988,17.4966654 81.4153355,17.366 80.986,17.366 C80.5379978,17.366 80.1413351,17.4826655 79.796,17.716 L78.074,17.716 L78.074,12.2 Z" id="Level-5" fill="#3E4E62"/></g><g id="Group-2-Copy-7" transform="translate(715.000000, 0.000000)"><mask id="mask-12" fill="white"><use xlink:href="#path-11"/></mask><use id="Rectangle-13" fill="#FFFFFF" xlink:href="#path-11"/><circle id="Mask-Copy-2" fill="#DC226D" cx="20" cy="17" r="9"/><path d="M15.046,43.018 C15.8300039,43.018 16.4833307,43.2653309 17.006,43.76 C17.5286693,44.2546691 17.8086665,44.9079959 17.846,45.72 L16.558,45.72 C16.4553328,44.711995 15.937338,44.208 15.004,44.208 C14.34133,44.208 13.844335,44.508997 13.513,45.111 C13.181665,45.713003 13.0066668,46.6533269 12.988,47.932 C13.1653342,47.6519986 13.4429981,47.4186676 13.821,47.232 C14.1990019,47.0453324 14.6026645,46.952 15.032,46.952 C15.9560046,46.952 16.6933306,47.2413304 17.244,47.82 C17.785336,48.3893362 18.056,49.1219955 18.056,50.018 C18.056,50.9420046 17.7760028,51.7026637 17.216,52.3 C16.6559972,52.8880029 15.9140046,53.182 14.99,53.182 C14.0193285,53.182 13.2493362,52.8553366 12.68,52.202 C12.0266634,51.464663 11.7,50.1813425 11.7,48.352 C11.7,46.5693244 11.9729973,45.2346711 12.519,44.348 C13.0650027,43.4613289 13.9073276,43.018 15.046,43.018 Z M14.962,48.142 C14.4486641,48.142 14.0100018,48.3239982 13.646,48.688 C13.2819982,49.0426684 13.1,49.4859973 13.1,50.018 C13.1,50.5406693 13.2726649,51.0026647 13.618,51.404 C13.9633351,51.8053353 14.4113306,52.006 14.962,52.006 C15.4940027,52.006 15.925665,51.8216685 16.257,51.453 C16.588335,51.0843315 16.754,50.6153362 16.754,50.046 C16.754,49.504664 16.5860017,49.0520018 16.25,48.688 C15.9139983,48.3239982 15.4846693,48.142 14.962,48.142 Z M20.31,51.46 C20.5526679,51.46 20.7533325,51.5439992 20.912,51.712 C21.0706675,51.8800008 21.15,52.099332 21.15,52.37 C21.15,52.7806687 21.0566676,53.2076644 20.87,53.651 C20.6833324,54.0943355 20.4360015,54.4886649 20.128,54.834 L19.736,54.68 C19.9973346,54.2413311 20.1606663,53.7140031 20.226,53.098 C20.0019989,53.0793332 19.8200007,52.9953341 19.68,52.846 C19.5399993,52.6966659 19.47,52.5100011 19.47,52.286 C19.47,52.0526655 19.5516659,51.8566675 19.715,51.698 C19.8783342,51.5393325 20.0766655,51.46 20.31,51.46 Z M29.172,48.086 C29.172,49.6540078 28.8826696,50.8953288 28.304,51.81 C27.7253304,52.7246712 26.9180052,53.182 25.882,53.182 C24.8366614,53.182 24.0246696,52.7246712 23.446,51.81 C22.8766638,50.9046621 22.592,49.6633412 22.592,48.086 C22.592,46.5179922 22.8766638,45.2813379 23.446,44.376 C24.0153362,43.4706621 24.8273281,43.018 25.882,43.018 C26.9180052,43.018 27.7253304,43.4753288 28.304,44.39 C28.8826696,45.3046712 29.172,46.5366589 29.172,48.086 Z M25.882,44.208 C25.2379968,44.208 24.7433351,44.5486633 24.398,45.23 C24.0526649,45.9113367 23.88,46.8633272 23.88,48.086 C23.88,49.3180062 24.0526649,50.2769966 24.398,50.963 C24.7433351,51.6490034 25.2379968,51.992 25.882,51.992 C26.5166698,51.992 27.0066649,51.6490034 27.352,50.963 C27.6973351,50.2769966 27.87,49.3180062 27.87,48.086 C27.87,46.8633272 27.6973351,45.9113367 27.352,45.23 C27.0066649,44.5486633 26.5166698,44.208 25.882,44.208 Z M37.25,48.086 C37.25,49.6540078 36.9606696,50.8953288 36.382,51.81 C35.8033304,52.7246712 34.9960052,53.182 33.96,53.182 C32.9146614,53.182 32.1026696,52.7246712 31.524,51.81 C30.9546638,50.9046621 30.67,49.6633412 30.67,48.086 C30.67,46.5179922 30.9546638,45.2813379 31.524,44.376 C32.0933362,43.4706621 32.9053281,43.018 33.96,43.018 C34.9960052,43.018 35.8033304,43.4753288 36.382,44.39 C36.9606696,45.3046712 37.25,46.5366589 37.25,48.086 Z M33.96,44.208 C33.3159968,44.208 32.8213351,44.5486633 32.476,45.23 C32.1306649,45.9113367 31.958,46.8633272 31.958,48.086 C31.958,49.3180062 32.1306649,50.2769966 32.476,50.963 C32.8213351,51.6490034 33.3159968,51.992 33.96,51.992 C34.5946698,51.992 35.0846649,51.6490034 35.43,50.963 C35.7753351,50.2769966 35.948,49.3180062 35.948,48.086 C35.948,46.8633272 35.7753351,45.9113367 35.43,45.23 C35.0846649,44.5486633 34.5946698,44.208 33.96,44.208 Z M45.328,48.086 C45.328,49.6540078 45.0386696,50.8953288 44.46,51.81 C43.8813304,52.7246712 43.0740052,53.182 42.038,53.182 C40.9926614,53.182 40.1806696,52.7246712 39.602,51.81 C39.0326638,50.9046621 38.748,49.6633412 38.748,48.086 C38.748,46.5179922 39.0326638,45.2813379 39.602,44.376 C40.1713362,43.4706621 40.9833281,43.018 42.038,43.018 C43.0740052,43.018 43.8813304,43.4753288 44.46,44.39 C45.0386696,45.3046712 45.328,46.5366589 45.328,48.086 Z M42.038,44.208 C41.3939968,44.208 40.8993351,44.5486633 40.554,45.23 C40.2086649,45.9113367 40.036,46.8633272 40.036,48.086 C40.036,49.3180062 40.2086649,50.2769966 40.554,50.963 C40.8993351,51.6490034 41.3939968,51.992 42.038,51.992 C42.6726698,51.992 43.1626649,51.6490034 43.508,50.963 C43.8533351,50.2769966 44.026,49.3180062 44.026,48.086 C44.026,46.8633272 43.8533351,45.9113367 43.508,45.23 C43.1626649,44.5486633 42.6726698,44.208 42.038,44.208 Z M54.106,45.79 C55.0953383,45.79 55.8886637,46.1399965 56.486,46.84 C57.0926697,47.5306701 57.396,48.4079947 57.396,49.472 C57.396,50.5266719 57.0880031,51.4039965 56.472,52.104 C55.8653303,52.8040035 55.0720049,53.154 54.092,53.154 C53.5599973,53.154 53.091002,53.0536677 52.685,52.853 C52.278998,52.6523323 51.9686677,52.3793351 51.754,52.034 L51.754,56.01 L50.536,56.01 L50.536,45.944 L51.628,45.944 L51.684,46.98 C52.225336,46.1866627 53.0326613,45.79 54.106,45.79 Z M53.924,46.924 C53.3173303,46.924 52.7993355,47.1526644 52.37,47.61 C51.9406645,48.0673356 51.726,48.664663 51.726,49.402 L51.726,49.472 C51.726,50.2373372 51.9406645,50.8486644 52.37,51.306 C52.8086689,51.772669 53.3219971,52.006 53.91,52.006 C54.5633366,52.006 55.0999979,51.772669 55.52,51.306 C55.9400021,50.8299976 56.15,50.2186704 56.15,49.472 C56.15,48.7159962 55.947002,48.1023357 55.541,47.631 C55.134998,47.1596643 54.5960034,46.924 53.924,46.924 Z M62.422,45.79 C63.4673386,45.79 64.32133,46.1353299 64.984,46.826 C65.6560034,47.5073367 65.992,48.3893279 65.992,49.472 C65.992,50.5546721 65.6560034,51.4366633 64.984,52.118 C64.32133,52.8086701 63.4673386,53.154 62.422,53.154 C61.3673281,53.154 60.5040034,52.8086701 59.832,52.118 C59.16933,51.4273299 58.838,50.5453387 58.838,49.472 C58.838,48.3986613 59.16933,47.5166701 59.832,46.826 C60.5040034,46.1353299 61.3673281,45.79 62.422,45.79 Z M62.436,46.91 C61.7266631,46.91 61.1573355,47.1526642 60.728,47.638 C60.2986645,48.104669 60.084,48.7159962 60.084,49.472 C60.084,50.209337 60.2986645,50.8206642 60.728,51.306 C61.1573355,51.7913358 61.7266631,52.034 62.436,52.034 C63.1266701,52.034 63.6819979,51.7913358 64.102,51.306 C64.5313355,50.8206642 64.746,50.209337 64.746,49.472 C64.746,48.7159962 64.5313355,48.104669 64.102,47.638 C63.6819979,47.1526642 63.1266701,46.91 62.436,46.91 Z M69.324,43.774 C69.324,43.9980011 69.2423342,44.1893325 69.079,44.348 C68.9156659,44.5066675 68.7173345,44.586 68.484,44.586 C68.2506655,44.586 68.0546675,44.5066675 67.896,44.348 C67.7373325,44.1893325 67.658,43.9980011 67.658,43.774 C67.658,43.5406655 67.7373325,43.3446675 67.896,43.186 C68.0546675,43.0273325 68.2506655,42.948 68.484,42.948 C68.7173345,42.948 68.9156659,43.0273325 69.079,43.186 C69.2423342,43.3446675 69.324,43.5406655 69.324,43.774 Z M67.882,45.944 L69.086,45.944 L69.086,53 L67.882,53 L67.882,45.944 Z M74.672,45.79 C75.4000037,45.79 75.9646647,46.0279976 76.366,46.504 C76.7673354,46.9800024 76.968,47.6239959 76.968,48.436 L76.968,53 L75.75,53 L75.75,48.632 C75.75,48.0999973 75.6286679,47.6893348 75.386,47.4 C75.1433321,47.1106652 74.8073355,46.966 74.378,46.966 C73.8926643,46.966 73.4983349,47.168998 73.195,47.575 C72.8916652,47.981002 72.74,48.5293299 72.74,49.22 L72.74,53 L71.536,53 L71.536,45.944 L72.614,45.944 L72.684,46.91 C73.076002,46.1633296 73.738662,45.79 74.672,45.79 Z M79.656,44.18 L80.874,44.18 L80.86,45.944 L82.666,45.944 L82.666,47.064 L80.846,47.064 L80.818,50.844 C80.818,51.2640021 80.8903326,51.5603325 81.035,51.733 C81.1796674,51.9056675 81.4433314,51.992 81.826,51.992 C82.1340016,51.992 82.4139988,51.9500004 82.666,51.866 L82.666,52.944 C82.4046654,53.0466672 82.0546689,53.098 81.616,53.098 C80.9346633,53.098 80.428335,52.9346683 80.097,52.608 C79.765665,52.2813317 79.6046666,51.7680035 79.614,51.068 L79.642,47.064 L78.326,47.064 L78.326,45.944 L79.642,45.944 L79.656,44.18 Z M86.446,45.79 C87.1180034,45.79 87.6686645,45.9953313 88.098,46.406 C88.5273355,46.8073353 88.7513333,47.3439966 88.77,48.016 L87.538,48.016 C87.5286666,47.278663 87.155337,46.91 86.418,46.91 C86.072665,46.91 85.8066676,46.9963325 85.62,47.169 C85.4333324,47.3416675 85.34,47.5726652 85.34,47.862 C85.34,48.1420014 85.4309991,48.3519993 85.613,48.492 C85.7950009,48.6320007 86.1473307,48.7626661 86.67,48.884 C87.5100042,49.080001 88.1049983,49.3389984 88.455,49.661 C88.8050018,49.9830016 88.98,50.4286638 88.98,50.998 C88.98,51.66067 88.7513356,52.1856647 88.294,52.573 C87.8366644,52.9603353 87.239337,53.154 86.502,53.154 C85.7086627,53.154 85.0856689,52.9486687 84.633,52.538 C84.1803311,52.1273313 83.9446668,51.5673369 83.926,50.858 L85.158,50.858 C85.1673334,51.6420039 85.6246622,52.034 86.53,52.034 C86.9126686,52.034 87.2113323,51.9476675 87.426,51.775 C87.6406678,51.6023325 87.748,51.3713348 87.748,51.082 C87.748,50.7833318 87.6453344,50.5523342 87.44,50.389 C87.2346657,50.2256658 86.8473362,50.0786673 86.278,49.948 C85.5126629,49.7706658 84.9596684,49.5280015 84.619,49.22 C84.2783316,48.9119985 84.108,48.4826694 84.108,47.932 C84.108,47.3346637 84.3133313,46.8306687 84.724,46.42 C85.1440021,45.9999979 85.7179964,45.79 86.446,45.79 Z" id="6,000-points" fill="#7B8A9D"/><path d="M39.98,12.2 L41.912,12.2 L41.912,20.208 L45.986,20.208 L45.986,22 L39.98,22 L39.98,12.2 Z M50.578,14.748 C51.586005,14.748 52.3863304,15.0676635 52.979,15.707 C53.5716696,16.3463365 53.868,17.2586607 53.868,18.444 L53.868,19.004 L48.926,19.004 C48.9540001,19.4800024 49.1219985,19.8649985 49.43,20.159 C49.7380015,20.4530015 50.1393309,20.6 50.634,20.6 C51.371337,20.6 51.8473323,20.3246694 52.062,19.774 L53.826,19.774 C53.359331,21.3606746 52.2766752,22.154 50.578,22.154 C49.5233281,22.154 48.6693366,21.8180034 48.016,21.146 C47.3719968,20.4646633 47.05,19.5686722 47.05,18.458 C47.05,17.3659945 47.3766634,16.4793367 48.03,15.798 C48.69267,15.0979965 49.5419948,14.748 50.578,14.748 Z M48.94,17.744 L52.034,17.744 C52.0246666,17.2959978 51.884668,16.936668 51.614,16.666 C51.343332,16.395332 50.9840022,16.26 50.536,16.26 C50.0973311,16.26 49.7333348,16.395332 49.444,16.666 C49.1546652,16.936668 48.9866669,17.2959978 48.94,17.744 Z M59.734,14.902 L61.708,14.902 L59.132,22 L57.284,22 L54.722,14.902 L56.682,14.902 L58.068,19.256 L58.208,19.872 L58.348,19.256 L59.734,14.902 Z M65.95,14.748 C66.958005,14.748 67.7583304,15.0676635 68.351,15.707 C68.9436696,16.3463365 69.24,17.2586607 69.24,18.444 L69.24,19.004 L64.298,19.004 C64.3260001,19.4800024 64.4939985,19.8649985 64.802,20.159 C65.1100015,20.4530015 65.5113309,20.6 66.006,20.6 C66.743337,20.6 67.2193323,20.3246694 67.434,19.774 L69.198,19.774 C68.731331,21.3606746 67.6486752,22.154 65.95,22.154 C64.8953281,22.154 64.0413366,21.8180034 63.388,21.146 C62.7439968,20.4646633 62.422,19.5686722 62.422,18.458 C62.422,17.3659945 62.7486634,16.4793367 63.402,15.798 C64.06467,15.0979965 64.9139948,14.748 65.95,14.748 Z M64.312,17.744 L67.406,17.744 C67.3966666,17.2959978 67.256668,16.936668 66.986,16.666 C66.715332,16.395332 66.3560022,16.26 65.908,16.26 C65.4693311,16.26 65.1053348,16.395332 64.816,16.666 C64.5266652,16.936668 64.3586669,17.2959978 64.312,17.744 Z M71.046,11.78 L72.866,11.78 L72.866,22 L71.046,22 L71.046,11.78 Z M81.28,12.018 C82.1293376,12.018 82.8433304,12.2933306 83.422,12.844 C83.9913362,13.385336 84.2899999,14.0993289 84.318,14.986 L82.358,14.986 C82.3019997,14.2019961 81.9146703,13.81 81.196,13.81 C80.187995,13.81 79.6793334,14.7199909 79.67,16.54 C80.0806687,16.0639976 80.6826627,15.826 81.476,15.826 C82.3906712,15.826 83.118664,16.1106638 83.66,16.68 C84.2106694,17.2586696 84.486,18.0006621 84.486,18.906 C84.486,19.8860049 84.1826697,20.6793303 83.576,21.286 C82.9786637,21.8833363 82.1993381,22.182 81.238,22.182 C80.1739947,22.182 79.3480029,21.8460034 78.76,21.174 C78.0693299,20.3433292 77.724,19.0506754 77.724,17.296 C77.724,15.5226578 78.0156638,14.199671 78.599,13.327 C79.1823363,12.454329 80.075994,12.018 81.28,12.018 Z M81.168,17.464 C80.775998,17.464 80.444668,17.599332 80.174,17.87 C79.903332,18.140668 79.7633334,18.471998 79.754,18.864 L79.754,18.92 C79.754,19.3400021 79.8869987,19.6946652 80.153,19.984 C80.4190013,20.2733348 80.7573313,20.418 81.168,20.418 C81.5693353,20.418 81.8959987,20.2780014 82.148,19.998 C82.4000013,19.7179986 82.526,19.3586689 82.526,18.92 C82.526,18.5186647 82.397668,18.1756681 82.141,17.891 C81.8843321,17.6063319 81.560002,17.464 81.168,17.464 Z" id="Level-6" fill="#3E4E62"/></g></g></g></g></g></g></svg>