<svg width="693" height="324" viewBox="0 0 693 324" xmlns="http://www.w3.org/2000/svg" xmlns:xlink="http://www.w3.org/1999/xlink"><defs><circle id="a" cx="20.833" cy="20.833" r="20.833"/><path d="M22.396 42.188c-10.914 0-19.792-8.878-19.792-19.792 0-10.914 8.878-19.792 19.792-19.792 10.914 0 19.791 8.878 19.791 19.792 0 10.914-8.877 19.791-19.791 19.791m0-42.187C10.046 0 0 10.046 0 22.396c0 12.35 10.046 22.396 22.396 22.396 12.35 0 22.396-10.046 22.396-22.396C44.792 10.046 34.746 0 22.396 0m4.524 12.173a.853.853 0 1 0 .991 1.39c1.363-.974 3.258-.918 4.832.139a.848.848 0 0 0 1.183-.232.85.85 0 0 0-.232-1.183c-2.168-1.459-4.828-1.502-6.774-.114m-14.213 1.53c1.574-1.057 3.47-1.113 4.832-.14a.854.854 0 0 0 .99-1.39c-1.945-1.387-4.605-1.344-6.773.114a.85.85 0 0 0-.232 1.183.85.85 0 0 0 1.183.232m2.918 2.762a3.125 3.125 0 1 0 0 6.25 3.125 3.125 0 0 0 0-6.25m14.583 0a3.126 3.126 0 0 0 0 6.25 3.125 3.125 0 1 0 0-6.25m-7.45 8.447a4.528 4.528 0 0 0-4.529 4.528v2.263a4.53 4.53 0 0 0 9.058 0V29.44a4.528 4.528 0 0 0-4.529-4.528" id="c"/></defs><g fill="none" fill-rule="evenodd"><path d="M1415 323H-25v950h1440zM695-1H-25v324h720z"/><g transform="translate(325.167 140.167)"><mask id="b" fill="#fff"><use xlink:href="#a"/></mask><g opacity=".3" mask="url(#b)" fill="#9895D3" fill-opacity=".4"><rect width="104" height="104" rx="4" transform="translate(-33.333 -33.333)"/></g></g><g transform="translate(323.083 138.083)"><mask id="d" fill="#fff"><use xlink:href="#c"/></mask><use fill="#000" xlink:href="#c"/><g mask="url(#d)" fill="#7876AC"><path d="M-2.083-2.083h51v51h-51z"/></g></g></g></svg>