<svg width="694" height="324" viewBox="0 0 694 324" xmlns="http://www.w3.org/2000/svg" xmlns:xlink="http://www.w3.org/1999/xlink"><defs><ellipse id="a" cx="31" cy="20.526" rx="20" ry="20.526"/><filter x="-25%" y="-19.5%" width="150%" height="148.7%" filterUnits="objectBoundingBox" id="b"><feOffset dy="2" in="SourceAlpha" result="shadowOffsetOuter1"/><feGaussianBlur stdDeviation="3" in="shadowOffsetOuter1" result="shadowBlurOuter1"/><feColorMatrix values="0 0 0 0 0.619607843 0 0 0 0 0.670588235 0 0 0 0 0.737254902 0 0 0 0.7 0" in="shadowBlurOuter1"/></filter></defs><g fill="none" fill-rule="evenodd"><path d="M696 0H-24v324h720z"/><g transform="translate(316 84.21)"><path d="M3.964 57.93c.808 0 1.444.221 1.908.664.464.444.712 1.08.744 1.91H4.948c-.008-.337-.106-.6-.294-.789a.98.98 0 0 0-.726-.283c-.296 0-.528.08-.696.24-.168.16-.252.388-.252.684 0 .295.104.525.312.69.176.139.564.32 1.164.541.88.304 1.504.66 1.872 1.065.368.407.552.943.552 1.608 0 .813-.264 1.453-.792 1.92-.52.46-1.188.69-2.004.69-.92 0-1.638-.25-2.154-.75-.516-.501-.786-1.183-.81-2.045h1.668c.032.87.472 1.305 1.32 1.305.336 0 .604-.088.804-.264.2-.177.3-.413.3-.709a.895.895 0 0 0-.336-.714c-.224-.189-.608-.373-1.152-.554-.84-.28-1.452-.62-1.836-1.022-.384-.403-.576-.94-.576-1.614 0-.755.236-1.375.708-1.86.472-.476 1.12-.714 1.944-.714zm6.888 2.4c.92 0 1.684.305 2.292.912.608.6.912 1.38.912 2.34 0 .97-.304 1.753-.912 2.353-.608.607-1.372.911-2.292.911-.912 0-1.672-.304-2.28-.911-.6-.6-.9-1.384-.9-2.353 0-.952.3-1.732.9-2.34.608-.607 1.368-.911 2.28-.911zm.012 1.454a1.46 1.46 0 0 0-1.14.517c-.296.329-.444.756-.444 1.281 0 .526.148.957.444 1.293.304.337.684.505 1.14.505.456 0 .832-.17 1.128-.51.296-.341.444-.77.444-1.288 0-.525-.144-.956-.432-1.293-.288-.336-.668-.505-1.14-.505zm10.98-1.453c.624 0 1.104.205 1.44.616.336.41.504.98.504 1.712v4.052h-1.56v-3.708c0-.747-.284-1.12-.852-1.12a.919.919 0 0 0-.762.382c-.196.254-.298.611-.306 1.071v3.375h-1.56v-3.708c0-.747-.284-1.12-.852-1.12a.916.916 0 0 0-.774.4c-.196.267-.294.642-.294 1.127v3.3H15.28v-6.244h1.332l.12.813c.328-.632.868-.948 1.62-.948.856 0 1.436.365 1.74 1.096.152-.328.382-.593.69-.794a1.898 1.898 0 0 1 1.062-.302zm6.096 0c.864 0 1.55.281 2.058.844.508.562.762 1.365.762 2.407v.493h-4.236c.024.419.168.757.432 1.016s.608.388 1.032.388c.632 0 1.04-.242 1.224-.727h1.512c-.4 1.396-1.328 2.094-2.784 2.094-.904 0-1.636-.296-2.196-.887-.552-.6-.828-1.387-.828-2.364 0-.961.28-1.741.84-2.34.568-.616 1.296-.924 2.184-.924zm-1.404 2.636h2.652c-.008-.395-.128-.71-.36-.949-.232-.238-.54-.357-.924-.357-.376 0-.688.12-.936.357-.248.238-.392.554-.432.949zm5.88-4.015h1.572l-.012 1.514h1.392v1.454h-1.404l-.024 2.524c0 .329.058.56.174.696.116.136.322.203.618.203.232 0 .444-.028.636-.086v1.404c-.24.09-.568.136-.984.136-.688 0-1.196-.158-1.524-.474-.328-.317-.488-.815-.48-1.497l.024-2.906h-.996v-1.454h.996l.012-1.514zm4.2 1.514h1.56v6.245h-1.56v-6.245zm.78-2.783c.256 0 .478.092.666.277a.906.906 0 0 1 .282.671.91.91 0 0 1-.276.678.923.923 0 0 1-.672.27.923.923 0 0 1-.672-.27.91.91 0 0 1-.276-.678c0-.262.092-.486.276-.67a.913.913 0 0 1 .672-.278zm9.012 2.648c.624 0 1.104.205 1.44.616.336.41.504.98.504 1.712v4.052h-1.56v-3.708c0-.747-.284-1.12-.852-1.12a.919.919 0 0 0-.762.382c-.196.254-.298.611-.306 1.071v3.375h-1.56v-3.708c0-.747-.284-1.12-.852-1.12a.916.916 0 0 0-.774.4c-.196.267-.294.642-.294 1.127v3.3h-1.548v-6.244h1.332l.12.813c.328-.632.868-.948 1.62-.948.856 0 1.436.365 1.74 1.096.152-.328.382-.593.69-.794a1.898 1.898 0 0 1 1.062-.302zm6.096 0c.864 0 1.55.281 2.058.844.508.562.762 1.365.762 2.407v.493h-4.236c.024.419.168.757.432 1.016s.608.388 1.032.388c.632 0 1.04-.242 1.224-.727h1.512c-.4 1.396-1.328 2.094-2.784 2.094-.904 0-1.636-.296-2.196-.887-.552-.6-.828-1.387-.828-2.364 0-.961.28-1.741.84-2.34.568-.616 1.296-.924 2.184-.924zM51.1 62.967h2.652c-.008-.395-.128-.71-.36-.949-.232-.238-.54-.357-.924-.357-.376 0-.688.12-.936.357-.248.238-.392.554-.432.949zm7.452-2.636c.64 0 1.166.18 1.578.542.412.361.63.837.654 1.428h-1.548c-.008-.476-.24-.714-.696-.714-.216 0-.382.056-.498.166a.592.592 0 0 0-.174.45.51.51 0 0 0 .228.45c.152.102.432.19.84.264.704.123 1.21.337 1.518.64.308.304.462.723.462 1.257 0 .649-.216 1.15-.648 1.502-.432.353-1 .53-1.704.53-.728 0-1.302-.18-1.722-.542-.42-.361-.638-.858-.654-1.49h1.536c.016.509.308.763.876.763.504 0 .756-.197.756-.59a.563.563 0 0 0-.234-.481c-.156-.115-.446-.213-.87-.296-.664-.115-1.154-.324-1.47-.628-.316-.303-.474-.71-.474-1.219 0-.583.196-1.063.588-1.44.4-.395.952-.592 1.656-.592z" fill="#3E4E62"/><mask id="c" fill="#fff"><use xlink:href="#a"/></mask><use fill="#000" filter="url(#b)" xlink:href="#a"/><use fill="#FFF" xlink:href="#a"/><g mask="url(#c)" fill="#9CBE31"><path d="M6-5.132h50v51H6z"/></g><path d="M33.688 17.217c0 .566-.128 1.037-.385 1.416-.257.378-.586.64-.987.783.495.124.903.41 1.225.855.322.445.483.989.483 1.63 0 .863-.28 1.567-.84 2.113-.57.536-1.302.804-2.198.804-.961 0-1.717-.27-2.268-.811-.55-.542-.826-1.296-.826-2.263h1.26c.01.613.177 1.075.504 1.386.327.311.78.467 1.358.467.513 0 .929-.158 1.246-.474.317-.316.476-.738.476-1.265 0-.603-.2-1.063-.602-1.379-.401-.316-.97-.474-1.708-.474h-.322v-1.15h.308c.69 0 1.195-.129 1.512-.387.317-.26.476-.666.476-1.222 0-.517-.126-.92-.378-1.207-.252-.287-.616-.43-1.092-.43-.467 0-.842.155-1.127.466-.285.312-.427.76-.427 1.344h-1.274c0-.93.254-1.667.763-2.213s1.192-.82 2.051-.82c.859 0 1.535.27 2.03.806.495.536.742 1.211.742 2.025z" fill="#FFF" mask="url(#c)"/></g></g></svg>