<svg width="694" height="324" viewBox="0 0 694 324" xmlns="http://www.w3.org/2000/svg" xmlns:xlink="http://www.w3.org/1999/xlink"><defs><ellipse id="a" cx="20" cy="20.526" rx="20" ry="20.526"/><filter x="-25%" y="-19.5%" width="150%" height="148.7%" filterUnits="objectBoundingBox" id="b"><feOffset dy="2" in="SourceAlpha" result="shadowOffsetOuter1"/><feGaussianBlur stdDeviation="3" in="shadowOffsetOuter1" result="shadowBlurOuter1"/><feColorMatrix values="0 0 0 0 0.619607843 0 0 0 0 0.670588235 0 0 0 0 0.737254902 0 0 0 0.7 0" in="shadowBlurOuter1"/></filter></defs><g fill="none" fill-rule="evenodd"><path d="M696 0H-24v324h720z"/><g transform="translate(247 84.21)"><path d="M3.838 58.09H6.13c.84 0 1.508.236 2.004.708s.744 1.102.744 1.89c0 .567-.14 1.053-.42 1.46-.28.406-.672.7-1.176.88l1.956 3.683H7.99l-1.836-3.498H4.93v3.498H3.838v-8.622zm2.292 1.046h-1.2v3.067h1.2c.504 0 .904-.136 1.2-.406.296-.271.444-.64.444-1.109 0-.484-.148-.864-.444-1.14-.296-.274-.696-.412-1.2-.412zm6.324 1.232c.68 0 1.21.193 1.59.579.38.386.57.936.57 1.65v4.114h-.936l-.048-.85a1.819 1.819 0 0 1-.732.72c-.32.177-.688.265-1.104.265-.536 0-.964-.158-1.284-.474-.32-.316-.48-.741-.48-1.275 0-.977.564-1.576 1.692-1.798l1.848-.357v-.308c0-.854-.372-1.28-1.116-1.28-.368 0-.666.1-.894.3-.228.202-.342.48-.342.832h-1.02a2.13 2.13 0 0 1 .648-1.515c.416-.402.952-.603 1.608-.603zM13.57 64.1v-.234l-1.656.37c-.28.073-.49.174-.63.3-.14.128-.21.31-.21.549 0 .246.08.437.24.573.16.135.388.203.684.203.528 0 .936-.206 1.224-.616.232-.328.348-.71.348-1.145zm5.628-3.658V61.5c-.496 0-.904.152-1.224.456-.352.328-.536.817-.552 1.465v3.289H16.39v-6.208h.924l.072 1.084c.12-.336.338-.612.654-.825.316-.213.702-.32 1.158-.32zm3.624-.074c.84 0 1.508.275 2.004.825.496.55.744 1.326.744 2.328v.505h-4.596c.04.566.23 1.014.57 1.342.34.329.774.493 1.302.493.84 0 1.384-.337 1.632-1.01h1.032c-.192.632-.518 1.123-.978 1.472-.46.349-1.03.523-1.71.523-.864 0-1.564-.296-2.1-.887-.544-.6-.816-1.38-.816-2.34 0-.952.268-1.728.804-2.327.544-.616 1.248-.924 2.112-.924zm0 .985c-.504 0-.92.158-1.248.474-.328.316-.524.733-.588 1.25h3.54c-.008-.525-.168-.944-.48-1.256-.312-.312-.72-.468-1.224-.468zm4.248-3.633h1.032v8.99H27.07v-8.99zm6.708 2.783h1.116l-3.3 8.855h-1.092l1.008-2.734-2.268-6.12h1.104l1.596 4.458.12.468.12-.468 1.596-4.459z" fill="#3E4E62"/><mask id="c" fill="#fff"><use xlink:href="#a"/></mask><use fill="#000" filter="url(#b)" xlink:href="#a"/><use fill="#FFF" xlink:href="#a"/><g mask="url(#c)" fill="#4592B9"><path d="M-5-5.132h50v51H-5z"/></g><path d="M20.049 14.387c.868 0 1.54.247 2.016.74s.714 1.176.714 2.047c0 .92-.397 1.902-1.19 2.946l-2.506 3.29h3.85v1.222h-5.6v-.963l3.15-4.08c.373-.499.635-.916.784-1.25.15-.336.224-.71.224-1.122 0-1.072-.485-1.609-1.456-1.609-.476 0-.85.158-1.12.474-.27.316-.406.781-.406 1.394h-1.274c0-.948.254-1.7.763-2.256.509-.555 1.192-.833 2.051-.833z" fill="#FFF" mask="url(#c)"/></g></g></svg>