<svg width="694" height="324" viewBox="0 0 694 324" xmlns="http://www.w3.org/2000/svg" xmlns:xlink="http://www.w3.org/1999/xlink"><defs><ellipse id="a" cx="20" cy="20.526" rx="20" ry="20.526"/><filter x="-25%" y="-19.5%" width="150%" height="148.7%" filterUnits="objectBoundingBox" id="b"><feOffset dy="2" in="SourceAlpha" result="shadowOffsetOuter1"/><feGaussianBlur stdDeviation="3" in="shadowOffsetOuter1" result="shadowBlurOuter1"/><feColorMatrix values="0 0 0 0 0.619607843 0 0 0 0 0.670588235 0 0 0 0 0.737254902 0 0 0 0.7 0" in="shadowBlurOuter1"/></filter></defs><g fill="none" fill-rule="evenodd"><path d="M696 0H-24v324h720z"/><g transform="translate(407 84.21)"><path d="M8.404 57.93c1.248 0 2.272.422 3.072 1.268.808.854 1.212 1.917 1.212 3.19 0 1.289-.404 2.36-1.212 3.214-.8.846-1.824 1.269-3.072 1.269-1.256 0-2.284-.423-3.084-1.269-.808-.854-1.212-1.925-1.212-3.214 0-1.273.404-2.336 1.212-3.19.8-.846 1.828-1.269 3.084-1.269zm0 1.046c-.936 0-1.696.325-2.28.973-.584.632-.876 1.445-.876 2.439 0 .993.292 1.814.876 2.463.584.648 1.344.973 2.28.973.92 0 1.672-.325 2.256-.973.592-.657.888-1.478.888-2.463 0-.977-.296-1.79-.888-2.439-.584-.648-1.336-.973-2.256-.973zm7.836-1.367c.32 0 .592.05.816.148v.96a1.798 1.798 0 0 0-.732-.147c-.568 0-.852.336-.852 1.01v.923h1.5v.973h-1.5v5.235h-1.044v-5.235h-1.092v-.973h1.092v-.948c0-.616.158-1.094.474-1.435.316-.34.762-.51 1.338-.51zm2.16 1.343h1.044l-.012 1.551h1.548v.986h-1.56l-.024 3.325c0 .37.062.63.186.782.124.152.35.228.678.228.264 0 .504-.037.72-.111v.948c-.224.09-.524.136-.9.136-.584 0-1.018-.144-1.302-.431-.284-.288-.422-.74-.414-1.355l.024-3.522H17.26v-.986h1.128l.012-1.551zm6.288 1.416c.84 0 1.508.275 2.004.825.496.55.744 1.326.744 2.328v.505H22.84c.04.566.23 1.014.57 1.342.34.329.774.493 1.302.493.84 0 1.384-.337 1.632-1.01h1.032c-.192.632-.518 1.123-.978 1.472-.46.349-1.03.523-1.71.523-.864 0-1.564-.296-2.1-.887-.544-.6-.816-1.38-.816-2.34 0-.952.268-1.728.804-2.327.544-.616 1.248-.924 2.112-.924zm0 .985c-.504 0-.92.158-1.248.474-.328.316-.524.733-.588 1.25h3.54c-.008-.525-.168-.944-.48-1.256-.312-.312-.72-.468-1.224-.468zm6.9-.985c.624 0 1.108.21 1.452.628.344.419.516.985.516 1.7v4.015h-1.044v-3.843c0-.468-.104-.83-.312-1.084-.208-.254-.496-.382-.864-.382-.416 0-.754.179-1.014.536-.26.357-.39.84-.39 1.447v3.326H28.9v-6.208h.924l.06.85c.336-.657.904-.985 1.704-.985z" fill="#3E4E62"/><mask id="c" fill="#fff"><use xlink:href="#a"/></mask><use fill="#000" filter="url(#b)" xlink:href="#a"/><use fill="#FFF" xlink:href="#a"/><g mask="url(#c)" fill="#E14793"><path d="M-5-5.132h50v51H-5z"/></g><path d="M20.483 14.574h1.512v6.81h1.372v1.193h-1.372v2.055h-1.274v-2.055h-4.102v-1.078l3.864-6.925zm.252 6.825v-4.957l-.308.617-2.408 4.34h2.716z" fill="#FFF" mask="url(#c)"/></g></g></svg>