<svg width="693" height="324" viewBox="0 0 693 324" xmlns="http://www.w3.org/2000/svg" xmlns:xlink="http://www.w3.org/1999/xlink"><defs><circle id="a" cx="20.833" cy="20.833" r="20.833"/><path d="M22.917 0C10.279 0 0 10.28 0 22.917c0 12.637 10.28 22.916 22.917 22.916 12.637 0 22.916-10.28 22.916-22.916C45.833 10.279 35.553 0 22.917 0m0 43.169c-11.168 0-20.252-9.084-20.252-20.252S11.749 2.665 22.917 2.665s20.252 9.084 20.252 20.252-9.084 20.252-20.252 20.252m-3.876-21.48a3.125 3.125 0 1 0-6.25 0 3.125 3.125 0 0 0 6.25 0m12.33-3.123a3.123 3.123 0 0 0-3.125 3.125 3.123 3.123 0 0 0 3.125 3.125 3.123 3.123 0 0 0 3.125-3.125 3.123 3.123 0 0 0-3.125-3.125m-4.223-5.659a1.557 1.557 0 0 1 2.03-.865l8.161 3.297a1.556 1.556 0 0 1 .86 2.033 1.557 1.557 0 0 1-2.03.865l-8.162-3.298a1.556 1.556 0 0 1-.86-2.032zM8.918 15.29c-.323-.8.057-1.709.86-2.033l8.161-3.297a1.556 1.556 0 0 1 2.03.865c.324.8-.056 1.708-.859 2.032l-8.161 3.298a1.556 1.556 0 0 1-2.03-.865zm6.373 19.213a1.56 1.56 0 0 1 1.273-1.811l13.325-2.35c.853-.15 1.665.41 1.816 1.267a1.56 1.56 0 0 1-1.273 1.81l-13.325 2.35a1.561 1.561 0 0 1-1.816-1.266z" id="c"/></defs><g fill="none" fill-rule="evenodd"><path d="M1415 323H-25v950h1440zM695-1H-25v324h720z"/><g transform="translate(246.167 140.167)"><mask id="b" fill="#fff"><use xlink:href="#a"/></mask><g opacity=".3" mask="url(#b)" fill="#9895D3" fill-opacity=".4"><rect width="104" height="104" rx="4" transform="translate(-33.333 -33.333)"/></g></g><g transform="translate(244.083 138.083)"><mask id="d" fill="#fff"><use xlink:href="#c"/></mask><g mask="url(#d)" fill="#7876AC"><path d="M-2.708-2.708h51v51h-51z"/></g></g></g></svg>