<svg width="720" height="648" viewBox="0 0 720 648" xmlns="http://www.w3.org/2000/svg" xmlns:xlink="http://www.w3.org/1999/xlink"><defs><path id="a" d="M0 0h713v648H0z"/><rect id="d" width="616" height="170" rx="4"/><filter x="-1.6%" y="-4.7%" width="103.2%" height="111.8%" filterUnits="objectBoundingBox" id="c"><feOffset dy="2" in="SourceAlpha" result="shadowOffsetOuter1"/><feGaussianBlur stdDeviation="3" in="shadowOffsetOuter1" result="shadowBlurOuter1"/><feColorMatrix values="0 0 0 0 0.243137255 0 0 0 0 0.305882353 0 0 0 0 0.384313725 0 0 0 0.6 0" in="shadowBlurOuter1"/></filter><path d="M7.852 15.02l.015.01v-.02c.494-.354 6.915-5.041 7.788-10.558a3.85 3.85 0 0 0-3.192-4.41c-2.079-.33-4.25 1.327-4.611 3.407C7.49 1.369 5.319-.287 3.24.042a3.85 3.85 0 0 0-3.192 4.41C.922 9.97 7.342 14.656 7.837 15.01v.022l.015-.01z" id="e"/></defs><g transform="translate(3)" fill="none" fill-rule="evenodd"><mask id="b" fill="#fff"><use xlink:href="#a"/></mask><g mask="url(#b)"><g transform="translate(48 245)"><use fill="#000" filter="url(#c)" xlink:href="#d"/><use fill="#FFF" xlink:href="#d"/></g><path d="M158.468 269.6h1.092v8.4h-1.092v-3.828h-4.44V278h-1.092v-8.4h1.092v3.54h4.44v-3.54zm5.364 2.22c.84 0 1.508.268 2.004.804s.744 1.292.744 2.268v.492h-4.596c.04.552.23.988.57 1.308.34.32.774.48 1.302.48.84 0 1.384-.328 1.632-.984h1.032c-.192.616-.518 1.094-.978 1.434-.46.34-1.03.51-1.71.51-.864 0-1.564-.288-2.1-.864-.544-.584-.816-1.344-.816-2.28 0-.928.268-1.684.804-2.268.544-.6 1.248-.9 2.112-.9zm0 .96c-.504 0-.92.154-1.248.462-.328.308-.524.714-.588 1.218h3.54c-.008-.512-.168-.92-.48-1.224-.312-.304-.72-.456-1.224-.456zm4.248-3.54h1.032V278h-1.032v-8.76zm6.036 2.58c.848 0 1.528.3 2.04.9.52.592.78 1.344.78 2.256 0 .904-.264 1.656-.792 2.256-.52.6-1.2.9-2.04.9-.456 0-.858-.086-1.206-.258a1.906 1.906 0 0 1-.798-.702v3.408h-1.044v-8.628h.936l.048.888c.464-.68 1.156-1.02 2.076-1.02zm-.156.972c-.52 0-.964.196-1.332.588-.368.392-.552.904-.552 1.536v.06c0 .656.184 1.18.552 1.572.376.4.816.6 1.32.6.56 0 1.02-.2 1.38-.6.36-.408.54-.932.54-1.572 0-.648-.174-1.174-.522-1.578-.348-.404-.81-.606-1.386-.606zm10.272-.84h1.032V278h-.924l-.06-.828c-.304.64-.86.96-1.668.96-.624 0-1.104-.202-1.44-.606-.336-.404-.504-.958-.504-1.662v-3.912h1.032v3.744c0 .472.1.83.3 1.074.2.244.484.366.852.366.408 0 .74-.164.996-.492.256-.328.384-.772.384-1.332v-3.36zm4.572-.132c.576 0 1.048.176 1.416.528.368.344.56.804.576 1.38h-1.056c-.008-.632-.328-.948-.96-.948-.296 0-.524.074-.684.222-.16.148-.24.346-.24.594 0 .24.078.42.234.54.156.12.458.232.906.336.72.168 1.23.39 1.53.666.3.276.45.658.45 1.146 0 .568-.196 1.018-.588 1.35-.392.332-.904.498-1.536.498-.68 0-1.214-.176-1.602-.528-.388-.352-.59-.832-.606-1.44h1.056c.008.672.4 1.008 1.176 1.008.328 0 .584-.074.768-.222a.723.723 0 0 0 .276-.594c0-.256-.088-.454-.264-.594-.176-.14-.508-.266-.996-.378-.656-.152-1.13-.36-1.422-.624-.292-.264-.438-.632-.438-1.104 0-.512.176-.944.528-1.296.36-.36.852-.54 1.476-.54zm9.528.132h1.032V278h-.924l-.06-.828c-.304.64-.86.96-1.668.96-.624 0-1.104-.202-1.44-.606-.336-.404-.504-.958-.504-1.662v-3.912h1.032v3.744c0 .472.1.83.3 1.074.2.244.484.366.852.366.408 0 .74-.164.996-.492.256-.328.384-.772.384-1.332v-3.36zm5.544-.132c.624 0 1.108.204 1.452.612.344.408.516.96.516 1.656V278H204.8v-3.744c0-.456-.104-.808-.312-1.056-.208-.248-.496-.372-.864-.372-.416 0-.754.174-1.014.522-.26.348-.39.818-.39 1.41V278h-1.032v-6.048h.924l.06.828c.336-.64.904-.96 1.704-.96zm8.052-2.58h1.032V278h-.924l-.06-.888c-.464.68-1.156 1.02-2.076 1.02-.84 0-1.52-.296-2.04-.888-.52-.608-.78-1.364-.78-2.268 0-.896.26-1.648.78-2.256.528-.6 1.212-.9 2.052-.9.92 0 1.592.32 2.016.96v-3.54zm-1.86 3.564c-.56 0-1.02.204-1.38.612-.36.4-.54.92-.54 1.56 0 .648.174 1.174.522 1.578.348.404.81.606 1.386.606.512 0 .952-.196 1.32-.588.376-.4.564-.912.564-1.536v-.06c0-.648-.188-1.172-.564-1.572-.376-.4-.812-.6-1.308-.6zm7.14-.984c.84 0 1.508.268 2.004.804s.744 1.292.744 2.268v.492h-4.596c.04.552.23.988.57 1.308.34.32.774.48 1.302.48.84 0 1.384-.328 1.632-.984h1.032c-.192.616-.518 1.094-.978 1.434-.46.34-1.03.51-1.71.51-.864 0-1.564-.288-2.1-.864-.544-.584-.816-1.344-.816-2.28 0-.928.268-1.684.804-2.268.544-.6 1.248-.9 2.112-.9zm0 .96c-.504 0-.92.154-1.248.462-.328.308-.524.714-.588 1.218h3.54c-.008-.512-.168-.92-.48-1.224-.312-.304-.72-.456-1.224-.456zm7.092-.888v1.032c-.496 0-.904.148-1.224.444-.352.32-.536.796-.552 1.428V278h-1.032v-6.048h.924l.072 1.056c.12-.328.338-.596.654-.804.316-.208.702-.312 1.158-.312zm2.916-.072c.576 0 1.048.176 1.416.528.368.344.56.804.576 1.38h-1.056c-.008-.632-.328-.948-.96-.948-.296 0-.524.074-.684.222-.16.148-.24.346-.24.594 0 .24.078.42.234.54.156.12.458.232.906.336.72.168 1.23.39 1.53.666.3.276.45.658.45 1.146 0 .568-.196 1.018-.588 1.35-.392.332-.904.498-1.536.498-.68 0-1.214-.176-1.602-.528-.388-.352-.59-.832-.606-1.44h1.056c.008.672.4 1.008 1.176 1.008.328 0 .584-.074.768-.222a.723.723 0 0 0 .276-.594c0-.256-.088-.454-.264-.594-.176-.14-.508-.266-.996-.378-.656-.152-1.13-.36-1.422-.624-.292-.264-.438-.632-.438-1.104 0-.512.176-.944.528-1.296.36-.36.852-.54 1.476-.54zm3.912-1.38h1.044l-.012 1.512h1.548v.96h-1.56l-.024 3.24c0 .36.062.614.186.762.124.148.35.222.678.222.264 0 .504-.036.72-.108v.924c-.224.088-.524.132-.9.132-.584 0-1.018-.14-1.302-.42-.284-.28-.422-.72-.414-1.32l.024-3.432h-1.128v-.96h1.128l.012-1.512zm5.928 1.38c.68 0 1.21.188 1.59.564.38.376.57.912.57 1.608V278h-.936l-.048-.828c-.168.296-.412.53-.732.702-.32.172-.688.258-1.104.258-.536 0-.964-.154-1.284-.462-.32-.308-.48-.722-.48-1.242 0-.952.564-1.536 1.692-1.752l1.848-.348v-.3c0-.832-.372-1.248-1.116-1.248-.368 0-.666.098-.894.294-.228.196-.342.466-.342.81h-1.02a2.05 2.05 0 0 1 .648-1.476c.416-.392.952-.588 1.608-.588zm1.116 3.636v-.228l-1.656.36c-.28.072-.49.17-.63.294-.14.124-.21.302-.21.534 0 .24.08.426.24.558.16.132.388.198.684.198.528 0 .936-.2 1.224-.6.232-.32.348-.692.348-1.116zm5.436-3.636c.624 0 1.108.204 1.452.612.344.408.516.96.516 1.656V278h-1.044v-3.744c0-.456-.104-.808-.312-1.056-.208-.248-.496-.372-.864-.372-.416 0-.754.174-1.014.522-.26.348-.39.818-.39 1.41V278h-1.032v-6.048h.924l.06.828c.336-.64.904-.96 1.704-.96zm8.052-2.58h1.032V278h-.924l-.06-.888c-.464.68-1.156 1.02-2.076 1.02-.84 0-1.52-.296-2.04-.888-.52-.608-.78-1.364-.78-2.268 0-.896.26-1.648.78-2.256.528-.6 1.212-.9 2.052-.9.92 0 1.592.32 2.016.96v-3.54zm-1.86 3.564c-.56 0-1.02.204-1.38.612-.36.4-.54.92-.54 1.56 0 .648.174 1.174.522 1.578.348.404.81.606 1.386.606.512 0 .952-.196 1.32-.588.376-.4.564-.912.564-1.536v-.06c0-.648-.188-1.172-.564-1.572-.376-.4-.812-.6-1.308-.6zm11.004-.852h1.116l-3.3 8.628h-1.092l1.008-2.664-2.268-5.964h1.104l1.596 4.344.12.456.12-.456 1.596-4.344zm4.812-.132c.896 0 1.628.296 2.196.888.576.584.864 1.34.864 2.268 0 .928-.288 1.684-.864 2.268-.568.592-1.3.888-2.196.888-.904 0-1.644-.296-2.22-.888-.568-.592-.852-1.348-.852-2.268 0-.92.284-1.676.852-2.268.576-.592 1.316-.888 2.22-.888zm.012.96c-.608 0-1.096.208-1.464.624-.368.4-.552.924-.552 1.572 0 .632.184 1.156.552 1.572.368.416.856.624 1.464.624.592 0 1.068-.208 1.428-.624.368-.416.552-.94.552-1.572 0-.648-.184-1.172-.552-1.572-.36-.416-.836-.624-1.428-.624zm7.872-.828h1.032V278h-.924l-.06-.828c-.304.64-.86.96-1.668.96-.624 0-1.104-.202-1.44-.606-.336-.404-.504-.958-.504-1.662v-3.912h1.032v3.744c0 .472.1.83.3 1.074.2.244.484.366.852.366.408 0 .74-.164.996-.492.256-.328.384-.772.384-1.332v-3.36zm5.328-2.712h1.032v3.54c.424-.64 1.096-.96 2.016-.96.848 0 1.528.3 2.04.9.528.6.792 1.352.792 2.256 0 .904-.26 1.66-.78 2.268-.52.592-1.2.888-2.04.888-.92 0-1.612-.34-2.076-1.02l-.06.888h-.924v-8.76zm2.892 3.564c-.504 0-.944.2-1.32.6-.368.392-.552.916-.552 1.572v.06c0 .632.184 1.144.552 1.536.368.392.812.588 1.332.588.576 0 1.038-.202 1.386-.606.348-.404.522-.93.522-1.578 0-.64-.18-1.16-.54-1.56-.36-.408-.82-.612-1.38-.612zm6.744-.984c.84 0 1.508.268 2.004.804s.744 1.292.744 2.268v.492h-4.596c.04.552.23.988.57 1.308.34.32.774.48 1.302.48.84 0 1.384-.328 1.632-.984h1.032c-.192.616-.518 1.094-.978 1.434-.46.34-1.03.51-1.71.51-.864 0-1.564-.288-2.1-.864-.544-.584-.816-1.344-.816-2.28 0-.928.268-1.684.804-2.268.544-.6 1.248-.9 2.112-.9zm0 .96c-.504 0-.92.154-1.248.462-.328.308-.524.714-.588 1.218h3.54c-.008-.512-.168-.92-.48-1.224-.312-.304-.72-.456-1.224-.456zm4.548-2.34h1.044l-.012 1.512h1.548v.96h-1.56l-.024 3.24c0 .36.062.614.186.762.124.148.35.222.678.222.264 0 .504-.036.72-.108v.924c-.224.088-.524.132-.9.132-.584 0-1.018-.14-1.302-.42-.284-.28-.422-.72-.414-1.32l.024-3.432h-1.128v-.96H293l.012-1.512zm4.2 0h1.044l-.012 1.512h1.548v.96h-1.56l-.024 3.24c0 .36.062.614.186.762.124.148.35.222.678.222.264 0 .504-.036.72-.108v.924c-.224.088-.524.132-.9.132-.584 0-1.018-.14-1.302-.42-.284-.28-.422-.72-.414-1.32l.024-3.432h-1.128v-.96h1.128l.012-1.512zm6.288 1.38c.84 0 1.508.268 2.004.804s.744 1.292.744 2.268v.492h-4.596c.04.552.23.988.57 1.308.34.32.774.48 1.302.48.84 0 1.384-.328 1.632-.984h1.032c-.192.616-.518 1.094-.978 1.434-.46.34-1.03.51-1.71.51-.864 0-1.564-.288-2.1-.864-.544-.584-.816-1.344-.816-2.28 0-.928.268-1.684.804-2.268.544-.6 1.248-.9 2.112-.9zm0 .96c-.504 0-.92.154-1.248.462-.328.308-.524.714-.588 1.218h3.54c-.008-.512-.168-.92-.48-1.224-.312-.304-.72-.456-1.224-.456zm7.092-.888v1.032c-.496 0-.904.148-1.224.444-.352.32-.536.796-.552 1.428V278h-1.032v-6.048h.924l.072 1.056c.12-.328.338-.596.654-.804.316-.208.702-.312 1.158-.312zm2.256 5.496a.708.708 0 0 1-.222.528.738.738 0 0 1-.534.216.733.733 0 0 1-.54-.216.718.718 0 0 1-.216-.528c0-.216.072-.394.216-.534a.744.744 0 0 1 .54-.21c.216 0 .396.07.54.21.144.14.216.318.216.534z" fill="#7B8A9D"/><path d="M153.092 322.2h1.274v9.8h-1.274v-9.8zm5.95-.546c.373 0 .69.056.952.168v1.092a2.145 2.145 0 0 0-.854-.168c-.663 0-.994.383-.994 1.148v1.05h1.75v1.106h-1.75V332h-1.218v-5.95h-1.274v-1.106h1.274v-1.078c0-.7.184-1.244.553-1.631.369-.387.889-.581 1.561-.581zm9.464 3.29h1.302l-3.85 10.066h-1.274l1.176-3.108-2.646-6.958h1.288l1.862 5.068.14.532.14-.532 1.862-5.068zm5.614-.154c1.045 0 1.9.345 2.562 1.036.672.681 1.008 1.563 1.008 2.646s-.336 1.965-1.008 2.646c-.663.69-1.517 1.036-2.562 1.036-1.055 0-1.918-.345-2.59-1.036-.663-.69-.994-1.573-.994-2.646s.331-1.955.994-2.646c.672-.69 1.535-1.036 2.59-1.036zm.014 1.12c-.71 0-1.279.243-1.708.728-.43.467-.644 1.078-.644 1.834 0 .737.215 1.349.644 1.834.43.485.999.728 1.708.728.69 0 1.246-.243 1.666-.728.43-.485.644-1.097.644-1.834 0-.756-.215-1.367-.644-1.834-.42-.485-.975-.728-1.666-.728zm9.184-.966h1.204V332h-1.078l-.07-.966c-.355.747-1.003 1.12-1.946 1.12-.728 0-1.288-.236-1.68-.707-.392-.471-.588-1.118-.588-1.939v-4.564h1.204v4.368c0 .55.117.968.35 1.253.233.285.565.427.994.427.476 0 .863-.191 1.162-.574.299-.383.448-.9.448-1.554v-3.92zm3.556-3.08a.81.81 0 0 1 .616.252c.159.168.238.387.238.658 0 .877-.34 1.703-1.022 2.478l-.392-.154c.252-.467.415-.994.49-1.582a.839.839 0 0 1-.553-.252.773.773 0 0 1-.217-.56.81.81 0 0 1 .245-.595.81.81 0 0 1 .595-.245zm5.726 3.01v1.204c-.579 0-1.055.173-1.428.518-.41.373-.625.929-.644 1.666V332h-1.204v-7.056h1.078l.084 1.232c.14-.383.394-.695.763-.938s.819-.364 1.351-.364zm4.228-.084c.98 0 1.76.313 2.338.938.579.625.868 1.507.868 2.646v.574h-5.362c.047.644.268 1.153.665 1.526s.903.56 1.519.56c.98 0 1.615-.383 1.904-1.148h1.204c-.224.719-.604 1.276-1.141 1.673s-1.202.595-1.995.595c-1.008 0-1.825-.336-2.45-1.008-.635-.681-.952-1.568-.952-2.66 0-1.083.313-1.965.938-2.646.635-.7 1.456-1.05 2.464-1.05zm0 1.12c-.588 0-1.073.18-1.456.539-.383.36-.611.833-.686 1.421h4.13c-.01-.597-.196-1.073-.56-1.428-.364-.355-.84-.532-1.428-.532zm10.206-1.12c.793 0 1.412.22 1.855.658.443.439.665 1.064.665 1.876V332h-1.092l-.056-.966c-.196.345-.48.618-.854.819-.373.2-.803.301-1.288.301-.625 0-1.125-.18-1.498-.539-.373-.36-.56-.842-.56-1.449 0-1.11.658-1.792 1.974-2.044l2.156-.406v-.35c0-.97-.434-1.456-1.302-1.456-.43 0-.777.114-1.043.343-.266.229-.399.544-.399.945h-1.19c.019-.681.27-1.255.756-1.722.485-.457 1.11-.686 1.876-.686zm1.302 4.242v-.266l-1.932.42c-.327.084-.572.198-.735.343-.163.145-.245.352-.245.623 0 .28.093.497.28.651.187.154.453.231.798.231.616 0 1.092-.233 1.428-.7a2.16 2.16 0 0 0 .406-1.302zm8.946-4.242c.803 0 1.484.205 2.044.616.56.41.924.99 1.092 1.736h-1.204a1.73 1.73 0 0 0-.721-.91c-.34-.215-.74-.322-1.197-.322-.635 0-1.162.243-1.582.728-.41.495-.616 1.11-.616 1.848 0 .719.21 1.325.63 1.82.42.485.952.728 1.596.728.448 0 .845-.112 1.19-.336.345-.224.579-.523.7-.896h1.218c-.187.747-.56 1.325-1.12 1.736-.56.41-1.237.616-2.03.616-.999 0-1.82-.345-2.464-1.036-.644-.681-.966-1.559-.966-2.632 0-1.064.322-1.946.966-2.646.663-.7 1.484-1.05 2.464-1.05zm7.168 0c.793 0 1.412.22 1.855.658.443.439.665 1.064.665 1.876V332h-1.092l-.056-.966c-.196.345-.48.618-.854.819-.373.2-.803.301-1.288.301-.625 0-1.125-.18-1.498-.539-.373-.36-.56-.842-.56-1.449 0-1.11.658-1.792 1.974-2.044l2.156-.406v-.35c0-.97-.434-1.456-1.302-1.456-.43 0-.777.114-1.043.343-.266.229-.399.544-.399.945h-1.19c.019-.681.27-1.255.756-1.722.485-.457 1.11-.686 1.876-.686zm1.302 4.242v-.266l-1.932.42c-.327.084-.572.198-.735.343-.163.145-.245.352-.245.623 0 .28.093.497.28.651.187.154.453.231.798.231.616 0 1.092-.233 1.428-.7a2.16 2.16 0 0 0 .406-1.302zm6.566-4.158v1.204c-.579 0-1.055.173-1.428.518-.41.373-.625.929-.644 1.666V332h-1.204v-7.056h1.078l.084 1.232c.14-.383.394-.695.763-.938s.819-.364 1.351-.364zm4.228-.084c.98 0 1.76.313 2.338.938.579.625.868 1.507.868 2.646v.574h-5.362c.047.644.268 1.153.665 1.526s.903.56 1.519.56c.98 0 1.615-.383 1.904-1.148h1.204c-.224.719-.604 1.276-1.141 1.673s-1.202.595-1.995.595c-1.008 0-1.825-.336-2.45-1.008-.635-.681-.952-1.568-.952-2.66 0-1.083.313-1.965.938-2.646.635-.7 1.456-1.05 2.464-1.05zm0 1.12c-.588 0-1.073.18-1.456.539-.383.36-.611.833-.686 1.421h4.13c-.01-.597-.196-1.073-.56-1.428-.364-.355-.84-.532-1.428-.532zm5.306-2.73h1.218l-.014 1.764h1.806v1.12h-1.82l-.028 3.78c0 .42.072.716.217.889.145.173.408.259.791.259.308 0 .588-.042.84-.126v1.078c-.261.103-.611.154-1.05.154-.681 0-1.188-.163-1.519-.49-.331-.327-.492-.84-.483-1.54l.028-4.004h-1.316v-1.12h1.316l.014-1.764zm6.916 1.61c.793 0 1.412.22 1.855.658.443.439.665 1.064.665 1.876V332h-1.092l-.056-.966c-.196.345-.48.618-.854.819-.373.2-.803.301-1.288.301-.625 0-1.125-.18-1.498-.539-.373-.36-.56-.842-.56-1.449 0-1.11.658-1.792 1.974-2.044l2.156-.406v-.35c0-.97-.434-1.456-1.302-1.456-.43 0-.777.114-1.043.343-.266.229-.399.544-.399.945h-1.19c.019-.681.27-1.255.756-1.722.485-.457 1.11-.686 1.876-.686zm1.302 4.242v-.266l-1.932.42c-.327.084-.572.198-.735.343-.163.145-.245.352-.245.623 0 .28.093.497.28.651.187.154.453.231.798.231.616 0 1.092-.233 1.428-.7a2.16 2.16 0 0 0 .406-1.302zm3.29-7.252h1.204v6.468l2.646-3.304h1.47l-2.282 2.926 2.646 4.13h-1.386l-2.1-3.206-.994 1.204V332h-1.204v-10.22zm9.744 3.01c.98 0 1.76.313 2.338.938.579.625.868 1.507.868 2.646v.574h-5.362c.047.644.268 1.153.665 1.526s.903.56 1.519.56c.98 0 1.615-.383 1.904-1.148h1.204c-.224.719-.604 1.276-1.141 1.673s-1.202.595-1.995.595c-1.008 0-1.825-.336-2.45-1.008-.635-.681-.952-1.568-.952-2.66 0-1.083.313-1.965.938-2.646.635-.7 1.456-1.05 2.464-1.05zm0 1.12c-.588 0-1.073.18-1.456.539-.383.36-.611.833-.686 1.421h4.13c-.01-.597-.196-1.073-.56-1.428-.364-.355-.84-.532-1.428-.532zm8.274-1.036v1.204c-.579 0-1.055.173-1.428.518-.41.373-.625.929-.644 1.666V332h-1.204v-7.056h1.078l.084 1.232c.14-.383.394-.695.763-.938s.819-.364 1.351-.364zm1.722 5.586c.243 0 .443.084.602.252.159.168.238.387.238.658 0 .41-.093.838-.28 1.281a4.226 4.226 0 0 1-.742 1.183l-.392-.154c.261-.439.425-.966.49-1.582a.787.787 0 0 1-.756-.812c0-.233.082-.43.245-.588a.822.822 0 0 1 .595-.238zm7.742-5.67c.793 0 1.412.22 1.855.658.443.439.665 1.064.665 1.876V332h-1.092l-.056-.966c-.196.345-.48.618-.854.819-.373.2-.803.301-1.288.301-.625 0-1.125-.18-1.498-.539-.373-.36-.56-.842-.56-1.449 0-1.11.658-1.792 1.974-2.044l2.156-.406v-.35c0-.97-.434-1.456-1.302-1.456-.43 0-.777.114-1.043.343-.266.229-.399.544-.399.945h-1.19c.019-.681.27-1.255.756-1.722.485-.457 1.11-.686 1.876-.686zm1.302 4.242v-.266l-1.932.42c-.327.084-.572.198-.735.343-.163.145-.245.352-.245.623 0 .28.093.497.28.651.187.154.453.231.798.231.616 0 1.092-.233 1.428-.7a2.16 2.16 0 0 0 .406-1.302zm6.342-4.242c.728 0 1.293.238 1.694.714s.602 1.12.602 1.932V332h-1.218v-4.368c0-.532-.121-.943-.364-1.232-.243-.29-.579-.434-1.008-.434-.485 0-.88.203-1.183.609-.303.406-.455.954-.455 1.645V332h-1.204v-7.056h1.078l.07.966c.392-.747 1.055-1.12 1.988-1.12zm6.314 0c.672 0 1.223.205 1.652.616.43.401.653.938.672 1.61h-1.232c-.01-.737-.383-1.106-1.12-1.106-.345 0-.611.086-.798.259-.187.173-.28.404-.28.693 0 .28.091.49.273.63.182.14.534.27 1.057.392.84.196 1.435.455 1.785.777.35.322.525.768.525 1.337 0 .663-.229 1.188-.686 1.575-.457.387-1.055.581-1.792.581-.793 0-1.416-.205-1.869-.616-.453-.41-.688-.97-.707-1.68h1.232c.01.784.467 1.176 1.372 1.176.383 0 .681-.086.896-.259a.844.844 0 0 0 .322-.693c0-.299-.103-.53-.308-.693-.205-.163-.593-.31-1.162-.441-.765-.177-1.318-.42-1.659-.728-.34-.308-.511-.737-.511-1.288 0-.597.205-1.101.616-1.512.42-.42.994-.63 1.722-.63zm12.348.154h1.288l-2.24 7.056h-1.218l-1.708-5.04-1.722 5.04h-1.176l-2.24-7.056h1.288l1.47 4.928.14.644.154-.644 1.582-4.928h1.036l1.582 4.928.154.644.14-.644 1.47-4.928zm5.404-.154c.98 0 1.76.313 2.338.938.579.625.868 1.507.868 2.646v.574h-5.362c.047.644.268 1.153.665 1.526s.903.56 1.519.56c.98 0 1.615-.383 1.904-1.148h1.204c-.224.719-.604 1.276-1.141 1.673s-1.202.595-1.995.595c-1.008 0-1.825-.336-2.45-1.008-.635-.681-.952-1.568-.952-2.66 0-1.083.313-1.965.938-2.646.635-.7 1.456-1.05 2.464-1.05zm0 1.12c-.588 0-1.073.18-1.456.539-.383.36-.611.833-.686 1.421h4.13c-.01-.597-.196-1.073-.56-1.428-.364-.355-.84-.532-1.428-.532zm8.274-1.036v1.204c-.579 0-1.055.173-1.428.518-.41.373-.625.929-.644 1.666V332h-1.204v-7.056h1.078l.084 1.232c.14-.383.394-.695.763-.938s.819-.364 1.351-.364zm6.804-3.22c.373 0 .69.056.952.168v1.092a2.145 2.145 0 0 0-.854-.168c-.663 0-.994.383-.994 1.148v1.05h1.75v1.106h-1.75V332h-1.218v-5.95h-1.274v-1.106h1.274v-1.078c0-.7.184-1.244.553-1.631.369-.387.889-.581 1.561-.581zm5.138 3.136c1.045 0 1.9.345 2.562 1.036.672.681 1.008 1.563 1.008 2.646s-.336 1.965-1.008 2.646c-.663.69-1.517 1.036-2.562 1.036-1.055 0-1.918-.345-2.59-1.036-.663-.69-.994-1.573-.994-2.646s.331-1.955.994-2.646c.672-.69 1.535-1.036 2.59-1.036zm.014 1.12c-.71 0-1.279.243-1.708.728-.43.467-.644 1.078-.644 1.834 0 .737.215 1.349.644 1.834.43.485.999.728 1.708.728.69 0 1.246-.243 1.666-.728.43-.485.644-1.097.644-1.834 0-.756-.215-1.367-.644-1.834-.42-.485-.975-.728-1.666-.728zm8.484-1.036v1.204c-.579 0-1.055.173-1.428.518-.41.373-.625.929-.644 1.666V332h-1.204v-7.056h1.078l.084 1.232c.14-.383.394-.695.763-.938s.819-.364 1.351-.364zm8.736.07h1.302l-3.85 10.066h-1.274l1.176-3.108-2.646-6.958h1.288l1.862 5.068.14.532.14-.532 1.862-5.068zm5.614-.154c1.045 0 1.9.345 2.562 1.036.672.681 1.008 1.563 1.008 2.646s-.336 1.965-1.008 2.646c-.663.69-1.517 1.036-2.562 1.036-1.055 0-1.918-.345-2.59-1.036-.663-.69-.994-1.573-.994-2.646s.331-1.955.994-2.646c.672-.69 1.535-1.036 2.59-1.036zm.014 1.12c-.71 0-1.279.243-1.708.728-.43.467-.644 1.078-.644 1.834 0 .737.215 1.349.644 1.834.43.485.999.728 1.708.728.69 0 1.246-.243 1.666-.728.43-.485.644-1.097.644-1.834 0-.756-.215-1.367-.644-1.834-.42-.485-.975-.728-1.666-.728zm9.184-.966h1.204V332h-1.078l-.07-.966c-.355.747-1.003 1.12-1.946 1.12-.728 0-1.288-.236-1.68-.707-.392-.471-.588-1.118-.588-1.939v-4.564h1.204v4.368c0 .55.117.968.35 1.253.233.285.565.427.994.427.476 0 .863-.191 1.162-.574.299-.383.448-.9.448-1.554v-3.92zm6.692-.07v1.204c-.579 0-1.055.173-1.428.518-.41.373-.625.929-.644 1.666V332h-1.204v-7.056h1.078l.084 1.232c.14-.383.394-.695.763-.938s.819-.364 1.351-.364zm4.326-3.094h1.204V332h-1.204v-10.22zm6.384 3.01c1.045 0 1.9.345 2.562 1.036.672.681 1.008 1.563 1.008 2.646s-.336 1.965-1.008 2.646c-.663.69-1.517 1.036-2.562 1.036-1.055 0-1.918-.345-2.59-1.036-.663-.69-.994-1.573-.994-2.646s.331-1.955.994-2.646c.672-.69 1.535-1.036 2.59-1.036zm.014 1.12c-.71 0-1.279.243-1.708.728-.43.467-.644 1.078-.644 1.834 0 .737.215 1.349.644 1.834.43.485.999.728 1.708.728.69 0 1.246-.243 1.666-.728.43-.485.644-1.097.644-1.834 0-.756-.215-1.367-.644-1.834-.42-.485-.975-.728-1.666-.728zm9.576-.966h1.302L390.406 332h-1.204l-2.688-7.056h1.288l1.862 5.068.14.532.14-.532 1.862-5.068zm5.404-.154c.98 0 1.76.313 2.338.938.579.625.868 1.507.868 2.646v.574h-5.362c.047.644.268 1.153.665 1.526s.903.56 1.519.56c.98 0 1.615-.383 1.904-1.148h1.204c-.224.719-.604 1.276-1.141 1.673s-1.202.595-1.995.595c-1.008 0-1.825-.336-2.45-1.008-.635-.681-.952-1.568-.952-2.66 0-1.083.313-1.965.938-2.646.635-.7 1.456-1.05 2.464-1.05zm0 1.12c-.588 0-1.073.18-1.456.539-.383.36-.611.833-.686 1.421h4.13c-.01-.597-.196-1.073-.56-1.428-.364-.355-.84-.532-1.428-.532zm9.996-4.13h1.204V332h-1.078l-.07-1.036c-.541.793-1.349 1.19-2.422 1.19-.98 0-1.773-.345-2.38-1.036-.607-.71-.91-1.591-.91-2.646 0-1.045.303-1.923.91-2.632.616-.7 1.414-1.05 2.394-1.05 1.073 0 1.857.373 2.352 1.12v-4.13zm-2.17 4.158c-.653 0-1.19.238-1.61.714-.42.467-.63 1.073-.63 1.82 0 .756.203 1.37.609 1.841.406.471.945.707 1.617.707.597 0 1.11-.229 1.54-.686.439-.467.658-1.064.658-1.792v-.07c0-.756-.22-1.367-.658-1.834-.439-.467-.947-.7-1.526-.7zm11.396-1.148c1.045 0 1.9.345 2.562 1.036.672.681 1.008 1.563 1.008 2.646s-.336 1.965-1.008 2.646c-.663.69-1.517 1.036-2.562 1.036-1.055 0-1.918-.345-2.59-1.036-.663-.69-.994-1.573-.994-2.646s.331-1.955.994-2.646c.672-.69 1.535-1.036 2.59-1.036zm.014 1.12c-.71 0-1.279.243-1.708.728-.43.467-.644 1.078-.644 1.834 0 .737.215 1.349.644 1.834.43.485.999.728 1.708.728.69 0 1.246-.243 1.666-.728.43-.485.644-1.097.644-1.834 0-.756-.215-1.367-.644-1.834-.42-.485-.975-.728-1.666-.728zm8.26-1.12c.728 0 1.293.238 1.694.714s.602 1.12.602 1.932V332h-1.218v-4.368c0-.532-.121-.943-.364-1.232-.243-.29-.579-.434-1.008-.434-.485 0-.88.203-1.183.609-.303.406-.455.954-.455 1.645V332h-1.204v-7.056h1.078l.07.966c.392-.747 1.055-1.12 1.988-1.12zm7.14 0c.98 0 1.76.313 2.338.938.579.625.868 1.507.868 2.646v.574h-5.362c.047.644.268 1.153.665 1.526s.903.56 1.519.56c.98 0 1.615-.383 1.904-1.148h1.204c-.224.719-.604 1.276-1.141 1.673s-1.202.595-1.995.595c-1.008 0-1.825-.336-2.45-1.008-.635-.681-.952-1.568-.952-2.66 0-1.083.313-1.965.938-2.646.635-.7 1.456-1.05 2.464-1.05zm0 1.12c-.588 0-1.073.18-1.456.539-.383.36-.611.833-.686 1.421h4.13c-.01-.597-.196-1.073-.56-1.428-.364-.355-.84-.532-1.428-.532zm10.808-1.12c1.045 0 1.9.345 2.562 1.036.672.681 1.008 1.563 1.008 2.646s-.336 1.965-1.008 2.646c-.663.69-1.517 1.036-2.562 1.036-1.055 0-1.918-.345-2.59-1.036-.663-.69-.994-1.573-.994-2.646s.331-1.955.994-2.646c.672-.69 1.535-1.036 2.59-1.036zm.014 1.12c-.71 0-1.279.243-1.708.728-.43.467-.644 1.078-.644 1.834 0 .737.215 1.349.644 1.834.43.485.999.728 1.708.728.69 0 1.246-.243 1.666-.728.43-.485.644-1.097.644-1.834 0-.756-.215-1.367-.644-1.834-.42-.485-.975-.728-1.666-.728zm8.484-1.036v1.204c-.579 0-1.055.173-1.428.518-.41.373-.625.929-.644 1.666V332h-1.204v-7.056h1.078l.084 1.232c.14-.383.394-.695.763-.938s.819-.364 1.351-.364zm6.804-3.22c.373 0 .69.056.952.168v1.092a2.145 2.145 0 0 0-.854-.168c-.663 0-.994.383-.994 1.148v1.05h1.75v1.106h-1.75V332h-1.218v-5.95h-1.274v-1.106h1.274v-1.078c0-.7.184-1.244.553-1.631.369-.387.889-.581 1.561-.581zm5.488 3.22v1.204c-.579 0-1.055.173-1.428.518-.41.373-.625.929-.644 1.666V332h-1.204v-7.056h1.078l.084 1.232c.14-.383.394-.695.763-.938s.819-.364 1.351-.364zm2.884-2.1a.771.771 0 0 1-.245.574.822.822 0 0 1-.595.238.799.799 0 0 1-.588-.238.782.782 0 0 1-.238-.574.8.8 0 0 1 .238-.588.799.799 0 0 1 .588-.238c.233 0 .432.08.595.238a.787.787 0 0 1 .245.588zm-1.442 2.17h1.204V332h-1.204v-7.056zm6.202-.154c.98 0 1.76.313 2.338.938.579.625.868 1.507.868 2.646v.574h-5.362c.047.644.268 1.153.665 1.526s.903.56 1.519.56c.98 0 1.615-.383 1.904-1.148h1.204c-.224.719-.604 1.276-1.141 1.673s-1.202.595-1.995.595c-1.008 0-1.825-.336-2.45-1.008-.635-.681-.952-1.568-.952-2.66 0-1.083.313-1.965.938-2.646.635-.7 1.456-1.05 2.464-1.05zm0 1.12c-.588 0-1.073.18-1.456.539-.383.36-.611.833-.686 1.421h4.13c-.01-.597-.196-1.073-.56-1.428-.364-.355-.84-.532-1.428-.532zm8.05-1.12c.728 0 1.293.238 1.694.714s.602 1.12.602 1.932V332h-1.218v-4.368c0-.532-.121-.943-.364-1.232-.243-.29-.579-.434-1.008-.434-.485 0-.88.203-1.183.609-.303.406-.455.954-.455 1.645V332h-1.204v-7.056h1.078l.07.966c.392-.747 1.055-1.12 1.988-1.12zm9.394-3.01h1.204V332h-1.078l-.07-1.036c-.541.793-1.349 1.19-2.422 1.19-.98 0-1.773-.345-2.38-1.036-.607-.71-.91-1.591-.91-2.646 0-1.045.303-1.923.91-2.632.616-.7 1.414-1.05 2.394-1.05 1.073 0 1.857.373 2.352 1.12v-4.13zm-2.17 4.158c-.653 0-1.19.238-1.61.714-.42.467-.63 1.073-.63 1.82 0 .756.203 1.37.609 1.841.406.471.945.707 1.617.707.597 0 1.11-.229 1.54-.686.439-.467.658-1.064.658-1.792v-.07c0-.756-.22-1.367-.658-1.834-.439-.467-.947-.7-1.526-.7zm6.734 5.348a.827.827 0 0 1-.259.616.861.861 0 0 1-.623.252.855.855 0 0 1-.63-.252.838.838 0 0 1-.252-.616c0-.252.084-.46.252-.623a.868.868 0 0 1 .63-.245c.252 0 .462.082.63.245a.832.832 0 0 1 .252.623z" fill="#3E4E62"/><rect width="60" height="40" rx="4" fill="#FC9267" transform="translate(152 351)"/><path d="M176.64 364.8h2.56l-4.24 7.04V376h-2.224v-4.16l-4.24-7.04h2.56l2.4 3.904.384.752.4-.752 2.4-3.904zm7.264 2.912c1.152 0 2.067.365 2.744 1.096.677.73 1.016 1.773 1.016 3.128v.64h-5.648c.032.544.224.984.576 1.32.352.336.81.504 1.376.504.843 0 1.387-.315 1.632-.944h2.016c-.533 1.813-1.77 2.72-3.712 2.72-1.205 0-2.181-.384-2.928-1.152-.736-.779-1.104-1.803-1.104-3.072 0-1.248.373-2.261 1.12-3.04.757-.8 1.728-1.2 2.912-1.2zm-1.872 3.424h3.536c-.01-.512-.17-.923-.48-1.232-.31-.31-.72-.464-1.232-.464-.501 0-.917.155-1.248.464-.33.31-.523.72-.576 1.232zm9.936-3.424c.853 0 1.555.235 2.104.704.55.47.84 1.088.872 1.856h-2.064c-.01-.619-.32-.928-.928-.928-.288 0-.51.072-.664.216-.155.144-.232.339-.232.584 0 .256.101.45.304.584.203.133.576.248 1.12.344.939.16 1.613.437 2.024.832.41.395.616.939.616 1.632 0 .843-.288 1.493-.864 1.952-.576.459-1.333.688-2.272.688-.97 0-1.736-.235-2.296-.704-.56-.47-.85-1.115-.872-1.936h2.048c.021.661.41.992 1.168.992.672 0 1.008-.256 1.008-.768a.725.725 0 0 0-.312-.624c-.208-.15-.595-.277-1.16-.384-.885-.15-1.539-.421-1.96-.816-.421-.395-.632-.923-.632-1.584 0-.757.261-1.381.784-1.872.533-.512 1.27-.768 2.208-.768z" fill="#FAFBFC"/><rect width="60" height="40" rx="4" fill="#FC9267" transform="translate(220 351)"/><path d="M247.736 364.8h2.208V376h-2.208l-4.608-6.768-.432-.736V376h-2.192v-11.2h2.176l4.592 6.784.464.768V364.8zm8.096 2.912c1.227 0 2.245.395 3.056 1.184.81.779 1.216 1.792 1.216 3.04 0 1.259-.405 2.277-1.216 3.056-.81.79-1.83 1.184-3.056 1.184-1.216 0-2.23-.395-3.04-1.184-.8-.779-1.2-1.797-1.2-3.056 0-1.237.4-2.25 1.2-3.04.81-.79 1.824-1.184 3.04-1.184zm.016 1.888c-.608 0-1.115.224-1.52.672-.395.427-.592.981-.592 1.664 0 .683.197 1.243.592 1.68.405.437.912.656 1.52.656s1.11-.221 1.504-.664c.395-.443.592-1 .592-1.672 0-.683-.192-1.243-.576-1.68-.384-.437-.89-.656-1.52-.656z" fill="#FAFBFC"/><path d="M162.16 296h2.76v14h-2.76v-5.96h-6V310h-2.74v-14h2.74v5.46h6V296zm9.32 3.64c1.253 0 2.237.317 2.95.95.713.633 1.07 1.55 1.07 2.75V310h-2.22l-.16-1.24c-.64.973-1.607 1.46-2.9 1.46-.92 0-1.663-.267-2.23-.8s-.85-1.24-.85-2.12c0-.893.267-1.58.8-2.06s1.313-.807 2.34-.98l2.62-.48v-.38c0-1.027-.473-1.54-1.42-1.54-.44 0-.803.123-1.09.37-.287.247-.43.57-.43.97h-2.52c.067-1.067.467-1.927 1.2-2.58.733-.653 1.68-.98 2.84-.98zm1.42 6.18v-.3l-2.02.42c-.76.173-1.14.553-1.14 1.14 0 .307.103.55.31.73.207.18.497.27.87.27.707 0 1.247-.307 1.62-.92.24-.373.36-.82.36-1.34zm11.1-5.96h2.82L183.14 310h-2.64l-3.66-10.14h2.8l1.98 6.22.2.88.2-.88 1.98-6.22zm8.68-.22c1.44 0 2.583.457 3.43 1.37s1.27 2.217 1.27 3.91v.8h-7.06c.04.68.28 1.23.72 1.65.44.42 1.013.63 1.72.63 1.053 0 1.733-.393 2.04-1.18h2.52c-.667 2.267-2.213 3.4-4.64 3.4-1.507 0-2.727-.48-3.66-1.44-.92-.973-1.38-2.253-1.38-3.84 0-1.56.467-2.827 1.4-3.8.947-1 2.16-1.5 3.64-1.5zm-2.34 4.28h4.42c-.013-.64-.213-1.153-.6-1.54s-.9-.58-1.54-.58c-.627 0-1.147.193-1.56.58-.413.387-.653.9-.72 1.54zm19.1-4.06h2.82l-5.22 14.44h-2.7l1.54-4.42-3.6-10.02h2.8l1.98 6.22.2.88.2-.88 1.98-6.22zm9.04-.22c1.533 0 2.807.493 3.82 1.48 1.013.973 1.52 2.24 1.52 3.8 0 1.573-.507 2.847-1.52 3.82-1.013.987-2.287 1.48-3.82 1.48-1.52 0-2.787-.493-3.8-1.48-1-.973-1.5-2.247-1.5-3.82 0-1.547.5-2.813 1.5-3.8 1.013-.987 2.28-1.48 3.8-1.48zm.02 2.36c-.76 0-1.393.28-1.9.84-.493.533-.74 1.227-.74 2.08s.247 1.553.74 2.1c.507.547 1.14.82 1.9.82s1.387-.277 1.88-.83c.493-.553.74-1.25.74-2.09 0-.853-.24-1.553-.72-2.1-.48-.547-1.113-.82-1.9-.82zm13-2.14h2.58V310h-2.22l-.2-1.32c-.547 1.027-1.44 1.54-2.68 1.54-1.053 0-1.86-.333-2.42-1-.56-.667-.84-1.593-.84-2.78v-6.58h2.6v6c0 1.227.48 1.84 1.44 1.84.52 0 .94-.207 1.26-.62.32-.413.48-1.007.48-1.78v-5.44zm13.64-.22c1.267 0 2.317.33 3.15.99.833.66 1.343 1.597 1.53 2.81h-2.52a1.973 1.973 0 0 0-.78-1.06c-.373-.253-.813-.38-1.32-.38-.72 0-1.307.28-1.76.84-.467.547-.7 1.247-.7 2.1 0 .84.237 1.533.71 2.08.473.547 1.077.82 1.81.82.507 0 .947-.133 1.32-.4.373-.267.62-.607.74-1.02h2.54c-.24 1.213-.78 2.15-1.62 2.81-.84.66-1.873.99-3.1.99-1.507 0-2.727-.487-3.66-1.46-.947-.987-1.42-2.26-1.42-3.82 0-1.52.473-2.787 1.42-3.8.96-1 2.18-1.5 3.66-1.5zm11.36 0c1.533 0 2.807.493 3.82 1.48 1.013.973 1.52 2.24 1.52 3.8 0 1.573-.507 2.847-1.52 3.82-1.013.987-2.287 1.48-3.82 1.48-1.52 0-2.787-.493-3.8-1.48-1-.973-1.5-2.247-1.5-3.82 0-1.547.5-2.813 1.5-3.8 1.013-.987 2.28-1.48 3.8-1.48zm.02 2.36c-.76 0-1.393.28-1.9.84-.493.533-.74 1.227-.74 2.08s.247 1.553.74 2.1c.507.547 1.14.82 1.9.82s1.387-.277 1.88-.83c.493-.553.74-1.25.74-2.09 0-.853-.24-1.553-.72-2.1-.48-.547-1.113-.82-1.9-.82zm12.52-2.36c1.053 0 1.863.333 2.43 1 .567.667.85 1.593.85 2.78V310h-2.62v-6.02c0-1.213-.48-1.82-1.44-1.82-.547 0-.983.217-1.31.65-.327.433-.49 1.043-.49 1.83V310h-2.58v-10.14h2.22l.2 1.32c.547-1.027 1.46-1.54 2.74-1.54zm9.1 0c1.067 0 1.943.293 2.63.88.687.587 1.05 1.36 1.09 2.32h-2.58c-.013-.773-.4-1.16-1.16-1.16-.36 0-.637.09-.83.27-.193.18-.29.423-.29.73 0 .32.127.563.38.73.253.167.72.31 1.4.43 1.173.2 2.017.547 2.53 1.04.513.493.77 1.173.77 2.04 0 1.053-.36 1.867-1.08 2.44-.72.573-1.667.86-2.84.86-1.213 0-2.17-.293-2.87-.88-.7-.587-1.063-1.393-1.09-2.42h2.56c.027.827.513 1.24 1.46 1.24.84 0 1.26-.32 1.26-.96a.906.906 0 0 0-.39-.78c-.26-.187-.743-.347-1.45-.48-1.107-.187-1.923-.527-2.45-1.02-.527-.493-.79-1.153-.79-1.98 0-.947.327-1.727.98-2.34.667-.64 1.587-.96 2.76-.96zm6 .22h2.6V310h-2.6v-10.14zm1.3-4.52c.427 0 .797.15 1.11.45.313.3.47.663.47 1.09 0 .44-.153.807-.46 1.1a1.56 1.56 0 0 1-1.12.44 1.56 1.56 0 0 1-1.12-.44 1.46 1.46 0 0 1-.46-1.1c0-.427.153-.79.46-1.09.307-.3.68-.45 1.12-.45zm11.12.06h2.6V310h-2.24l-.2-1.36c-.72 1.053-1.793 1.58-3.22 1.58-1.347 0-2.467-.507-3.36-1.52-.893-1.013-1.34-2.273-1.34-3.78 0-1.493.447-2.747 1.34-3.76s2.02-1.52 3.38-1.52c1.36 0 2.373.44 3.04 1.32v-5.56zm-2.52 6.68c-.733 0-1.343.267-1.83.8-.487.533-.73 1.213-.73 2.04 0 .84.243 1.527.73 2.06.487.533 1.097.8 1.83.8a2.45 2.45 0 0 0 1.8-.74c.507-.507.76-1.193.76-2.06v-.12c-.013-.84-.273-1.513-.78-2.02-.507-.507-1.1-.76-1.78-.76zm12.18-2.44c1.44 0 2.583.457 3.43 1.37s1.27 2.217 1.27 3.91v.8h-7.06c.04.68.28 1.23.72 1.65.44.42 1.013.63 1.72.63 1.053 0 1.733-.393 2.04-1.18h2.52c-.667 2.267-2.213 3.4-4.64 3.4-1.507 0-2.727-.48-3.66-1.44-.92-.973-1.38-2.253-1.38-3.84 0-1.56.467-2.827 1.4-3.8.947-1 2.16-1.5 3.64-1.5zm-2.34 4.28h4.42c-.013-.64-.213-1.153-.6-1.54s-.9-.58-1.54-.58c-.627 0-1.147.193-1.56.58-.413.387-.653.9-.72 1.54zm14.68-4.16v2.6c-.827 0-1.5.2-2.02.6-.507.4-.78 1.027-.82 1.88V310h-2.6v-10.14h2.24l.24 1.62c.427-1.147 1.413-1.72 2.96-1.72zm6.22-.12c1.44 0 2.583.457 3.43 1.37s1.27 2.217 1.27 3.91v.8h-7.06c.04.68.28 1.23.72 1.65.44.42 1.013.63 1.72.63 1.053 0 1.733-.393 2.04-1.18h2.52c-.667 2.267-2.213 3.4-4.64 3.4-1.507 0-2.727-.48-3.66-1.44-.92-.973-1.38-2.253-1.38-3.84 0-1.56.467-2.827 1.4-3.8.947-1 2.16-1.5 3.64-1.5zm-2.34 4.28h4.42c-.013-.64-.213-1.153-.6-1.54s-.9-.58-1.54-.58c-.627 0-1.147.193-1.56.58-.413.387-.653.9-.72 1.54zm16.24-8.52h2.6V310h-2.24l-.2-1.36c-.72 1.053-1.793 1.58-3.22 1.58-1.347 0-2.467-.507-3.36-1.52-.893-1.013-1.34-2.273-1.34-3.78 0-1.493.447-2.747 1.34-3.76s2.02-1.52 3.38-1.52c1.36 0 2.373.44 3.04 1.32v-5.56zm-2.52 6.68c-.733 0-1.343.267-1.83.8-.487.533-.73 1.213-.73 2.04 0 .84.243 1.527.73 2.06.487.533 1.097.8 1.83.8a2.45 2.45 0 0 0 1.8-.74c.507-.507.76-1.193.76-2.06v-.12c-.013-.84-.273-1.513-.78-2.02-.507-.507-1.1-.76-1.78-.76zm15.56-2.44c1.253 0 2.237.317 2.95.95.713.633 1.07 1.55 1.07 2.75V310h-2.22l-.16-1.24c-.64.973-1.607 1.46-2.9 1.46-.92 0-1.663-.267-2.23-.8s-.85-1.24-.85-2.12c0-.893.267-1.58.8-2.06s1.313-.807 2.34-.98l2.62-.48v-.38c0-1.027-.473-1.54-1.42-1.54-.44 0-.803.123-1.09.37-.287.247-.43.57-.43.97h-2.52c.067-1.067.467-1.927 1.2-2.58.733-.653 1.68-.98 2.84-.98zm1.42 6.18v-.3l-2.02.42c-.76.173-1.14.553-1.14 1.14 0 .307.103.55.31.73.207.18.497.27.87.27.707 0 1.247-.307 1.62-.92.24-.373.36-.82.36-1.34zm9.1-10.42h2.6V310h-2.6v-14.6zm11.02 4.46h2.58V310h-2.22l-.2-1.32c-.547 1.027-1.44 1.54-2.68 1.54-1.053 0-1.86-.333-2.42-1-.56-.667-.84-1.593-.84-2.78v-6.58h2.6v6c0 1.227.48 1.84 1.44 1.84.52 0 .94-.207 1.26-.62.32-.413.48-1.007.48-1.78v-5.44zm10.5-.22c1.053 0 1.863.333 2.43 1 .567.667.85 1.593.85 2.78V310h-2.62v-6.02c0-1.213-.48-1.82-1.44-1.82-.547 0-.983.217-1.31.65-.327.433-.49 1.043-.49 1.83V310h-2.58v-10.14h2.22l.2 1.32c.547-1.027 1.46-1.54 2.74-1.54zm11.1.22h3.84v2.2h-1.5c.133.387.2.78.2 1.18 0 1.027-.373 1.873-1.12 2.54-.733.653-1.693.98-2.88.98-.653 0-1.213-.087-1.68-.26-.16.2-.24.447-.24.74 0 .56.34.84 1.02.84h2.38c1.053 0 1.87.25 2.45.75.58.5.87 1.223.87 2.17 0 1.107-.4 1.97-1.2 2.59-.8.62-1.893.93-3.28.93-1.507 0-2.65-.27-3.43-.81-.78-.54-1.17-1.31-1.17-2.31 0-.747.34-1.34 1.02-1.78-.787-.547-1.18-1.273-1.18-2.18 0-.853.347-1.567 1.04-2.14-.467-.613-.7-1.3-.7-2.06 0-1.067.387-1.927 1.16-2.58.773-.68 1.753-1.02 2.94-1.02.493 0 .98.073 1.46.22zm-.64 10.18h-1.52c-.32.04-.573.163-.76.37-.187.207-.28.47-.28.79 0 .44.183.78.55 1.02.367.24.877.36 1.53.36 1.28 0 1.92-.473 1.92-1.42 0-.747-.48-1.12-1.44-1.12zm-2.36-6.8c0 .467.14.85.42 1.15.28.3.647.45 1.1.45.453 0 .817-.15 1.09-.45.273-.3.41-.683.41-1.15 0-.493-.137-.89-.41-1.19-.273-.3-.637-.45-1.09-.45-.453 0-.82.15-1.1.45-.28.3-.42.697-.42 1.19zm12.8-5.84h2.62l-.02 2.46h2.32v2.36h-2.34l-.04 4.1c0 .533.097.91.29 1.13.193.22.537.33 1.03.33.387 0 .74-.047 1.06-.14v2.28c-.4.147-.947.22-1.64.22-1.147 0-1.993-.257-2.54-.77-.547-.513-.813-1.323-.8-2.43l.04-4.72h-1.66v-2.36h1.66l.02-2.46zm12.46 2.36v2.6c-.827 0-1.5.2-2.02.6-.507.4-.78 1.027-.82 1.88V310h-2.6v-10.14h2.24l.24 1.62c.427-1.147 1.413-1.72 2.96-1.72zm5.66-.12c1.253 0 2.237.317 2.95.95.713.633 1.07 1.55 1.07 2.75V310h-2.22l-.16-1.24c-.64.973-1.607 1.46-2.9 1.46-.92 0-1.663-.267-2.23-.8s-.85-1.24-.85-2.12c0-.893.267-1.58.8-2.06s1.313-.807 2.34-.98l2.62-.48v-.38c0-1.027-.473-1.54-1.42-1.54-.44 0-.803.123-1.09.37-.287.247-.43.57-.43.97h-2.52c.067-1.067.467-1.927 1.2-2.58.733-.653 1.68-.98 2.84-.98zm1.42 6.18v-.3l-2.02.42c-.76.173-1.14.553-1.14 1.14 0 .307.103.55.31.73.207.18.497.27.87.27.707 0 1.247-.307 1.62-.92.24-.373.36-.82.36-1.34zm10.3-6.18c1.053 0 1.863.333 2.43 1 .567.667.85 1.593.85 2.78V310h-2.62v-6.02c0-1.213-.48-1.82-1.44-1.82-.547 0-.983.217-1.31.65-.327.433-.49 1.043-.49 1.83V310h-2.58v-10.14h2.22l.2 1.32c.547-1.027 1.46-1.54 2.74-1.54zm9.1 0c1.067 0 1.943.293 2.63.88.687.587 1.05 1.36 1.09 2.32h-2.58c-.013-.773-.4-1.16-1.16-1.16-.36 0-.637.09-.83.27-.193.18-.29.423-.29.73 0 .32.127.563.38.73.253.167.72.31 1.4.43 1.173.2 2.017.547 2.53 1.04.513.493.77 1.173.77 2.04 0 1.053-.36 1.867-1.08 2.44-.72.573-1.667.86-2.84.86-1.213 0-2.17-.293-2.87-.88-.7-.587-1.063-1.393-1.09-2.42h2.56c.027.827.513 1.24 1.46 1.24.84 0 1.26-.32 1.26-.96a.906.906 0 0 0-.39-.78c-.26-.187-.743-.347-1.45-.48-1.107-.187-1.923-.527-2.45-1.02-.527-.493-.79-1.153-.79-1.98 0-.947.327-1.727.98-2.34.667-.64 1.587-.96 2.76-.96zm11.68 0c1.36 0 2.487.507 3.38 1.52.893 1.013 1.34 2.267 1.34 3.76 0 1.493-.453 2.753-1.36 3.78-.893 1.013-2.013 1.52-3.36 1.52-1.413 0-2.427-.447-3.04-1.34v5.42h-2.6v-14.44h2.24l.18 1.36c.72-1.053 1.793-1.58 3.22-1.58zm-.54 2.44c-.693 0-1.293.253-1.8.76-.507.507-.76 1.187-.76 2.04v.12c.027.853.287 1.527.78 2.02.507.507 1.1.76 1.78.76.733 0 1.343-.267 1.83-.8.487-.533.73-1.22.73-2.06 0-.84-.243-1.523-.73-2.05-.487-.527-1.097-.79-1.83-.79zm7.32-6.68h2.6V310h-2.6v-14.6zm9.14 4.24c1.253 0 2.237.317 2.95.95.713.633 1.07 1.55 1.07 2.75V310H473l-.16-1.24c-.64.973-1.607 1.46-2.9 1.46-.92 0-1.663-.267-2.23-.8s-.85-1.24-.85-2.12c0-.893.267-1.58.8-2.06s1.313-.807 2.34-.98l2.62-.48v-.38c0-1.027-.473-1.54-1.42-1.54-.44 0-.803.123-1.09.37-.287.247-.43.57-.43.97h-2.52c.067-1.067.467-1.927 1.2-2.58.733-.653 1.68-.98 2.84-.98zm1.42 6.18v-.3l-2.02.42c-.76.173-1.14.553-1.14 1.14 0 .307.103.55.31.73.207.18.497.27.87.27.707 0 1.247-.307 1.62-.92.24-.373.36-.82.36-1.34zm10.3-6.18c1.053 0 1.863.333 2.43 1 .567.667.85 1.593.85 2.78V310h-2.62v-6.02c0-1.213-.48-1.82-1.44-1.82-.547 0-.983.217-1.31.65-.327.433-.49 1.043-.49 1.83V310h-2.58v-10.14h2.22l.2 1.32c.547-1.027 1.46-1.54 2.74-1.54zm6.48-2.24h2.62l-.02 2.46h2.32v2.36h-2.34l-.04 4.1c0 .533.097.91.29 1.13.193.22.537.33 1.03.33.387 0 .74-.047 1.06-.14v2.28c-.4.147-.947.22-1.64.22-1.147 0-1.993-.257-2.54-.77-.547-.513-.813-1.323-.8-2.43l.04-4.72h-1.66v-2.36h1.66l.02-2.46zm14.18 2.16c0 1.28-.367 2.3-1.1 3.06-.12.133-.393.397-.82.79-.427.393-.723.72-.89.98-.167.26-.25.55-.25.87v.48h-2.62v-.6c0-.52.11-.987.33-1.4.22-.413.487-.76.8-1.04.313-.28.627-.557.94-.83a3.91 3.91 0 0 0 .8-.97c.22-.373.33-.787.33-1.24 0-.587-.153-1.043-.46-1.37-.307-.327-.727-.49-1.26-.49-.56 0-1.007.173-1.34.52-.333.347-.5.833-.5 1.46h-2.46c.013-1.253.427-2.24 1.24-2.96.813-.733 1.82-1.1 3.02-1.1s2.207.347 3.02 1.04c.813.68 1.22 1.613 1.22 2.8zm-4.36 7.52c.44 0 .817.15 1.13.45.313.3.47.67.47 1.11 0 .44-.157.813-.47 1.12-.313.307-.69.46-1.13.46-.467 0-.853-.15-1.16-.45-.307-.3-.46-.677-.46-1.13 0-.453.153-.827.46-1.12.307-.293.693-.44 1.16-.44z" fill="#3E4E62"/><path d="M48 248.993A4 4 0 0 1 52 245h68v170H52a4 4 0 0 1-4-3.993V248.993z" fill="#DE4971"/><g transform="translate(62 308)"><circle fill="#EB688E" cx="22" cy="22" r="18"/><g transform="translate(14 15)"><mask id="f" fill="#fff"><use xlink:href="#e"/></mask><use fill="#FAFBFC" xlink:href="#e"/><g mask="url(#f)" fill="#FFF"><path d="M-21.333-19.2h53v53h-53z"/></g></g></g></g></g></svg>