<svg width="694" height="324" viewBox="0 0 694 324" xmlns="http://www.w3.org/2000/svg" xmlns:xlink="http://www.w3.org/1999/xlink"><defs><ellipse id="a" cx="20" cy="20.526" rx="20" ry="20.526"/><filter x="-25%" y="-19.5%" width="150%" height="148.7%" filterUnits="objectBoundingBox" id="b"><feOffset dy="2" in="SourceAlpha" result="shadowOffsetOuter1"/><feGaussianBlur stdDeviation="3" in="shadowOffsetOuter1" result="shadowBlurOuter1"/><feColorMatrix values="0 0 0 0 0.619607843 0 0 0 0 0.670588235 0 0 0 0 0.737254902 0 0 0 0.7 0" in="shadowBlurOuter1"/></filter></defs><g fill="none" fill-rule="evenodd"><path d="M696 0H-24v324h720z"/><g transform="translate(167 84.21)"><path d="M8.062 58.09h1.092v8.62h-1.08l-4.176-6.182-.324-.53v6.713H2.482v-8.622H3.55l4.152 6.158.36.567v-6.725zm5.352 2.278c.84 0 1.508.275 2.004.825.496.55.744 1.326.744 2.328v.505h-4.596c.04.566.23 1.014.57 1.342.34.329.774.493 1.302.493.84 0 1.384-.337 1.632-1.01h1.032c-.192.632-.518 1.123-.978 1.472-.46.349-1.03.523-1.71.523-.864 0-1.564-.296-2.1-.887-.544-.6-.816-1.38-.816-2.34 0-.952.268-1.728.804-2.327.544-.616 1.248-.924 2.112-.924zm0 .985c-.504 0-.92.158-1.248.474-.328.316-.524.733-.588 1.25h3.54c-.008-.525-.168-.944-.48-1.256-.312-.312-.72-.468-1.224-.468zm8.028-.85h1.116l-2.316 6.208H19.21l-2.304-6.208h1.104l1.596 4.459.12.468.12-.468 1.596-4.459zm4.632-.135c.84 0 1.508.275 2.004.825.496.55.744 1.326.744 2.328v.505h-4.596c.04.566.23 1.014.57 1.342.34.329.774.493 1.302.493.84 0 1.384-.337 1.632-1.01h1.032c-.192.632-.518 1.123-.978 1.472-.46.349-1.03.523-1.71.523-.864 0-1.564-.296-2.1-.887-.544-.6-.816-1.38-.816-2.34 0-.952.268-1.728.804-2.327.544-.616 1.248-.924 2.112-.924zm0 .985c-.504 0-.92.158-1.248.474-.328.316-.524.733-.588 1.25h3.54c-.008-.525-.168-.944-.48-1.256-.312-.312-.72-.468-1.224-.468zm7.092-.911V61.5c-.496 0-.904.152-1.224.456-.352.328-.536.817-.552 1.465v3.289h-1.032v-6.208h.924l.072 1.084c.12-.336.338-.612.654-.825.316-.213.702-.32 1.158-.32z" fill="#3E4E62"/><mask id="c" fill="#fff"><use xlink:href="#a"/></mask><use fill="#000" filter="url(#b)" xlink:href="#a"/><use fill="#FFF" xlink:href="#a"/><g mask="url(#c)" fill="#0D66A1"><path d="M-5-5.132h50v51H-5z"/></g><path d="M20.35 14.574h.98v10.058h-1.274V16.93h-2.058v-1.12c.765 0 1.32-.09 1.666-.266.345-.178.574-.5.686-.97z" fill="#FFF" mask="url(#c)"/></g></g></svg>