<svg width="1036px" height="146px" viewBox="0 0 1036 146" xmlns="http://www.w3.org/2000/svg" xmlns:xlink="http://www.w3.org/1999/xlink"><!--Generator: Sketch 45.2 (43514) - http://www.bohemiancoding.com/sketch--><defs><radialGradient cx="2.68859917%" cy="73.9173551%" fx="2.68859917%" fy="73.9173551%" r="83.6107331%" gradientTransform="translate(0.026886,0.739174),scale(1.000000,0.938669),rotate(-60.351524),scale(1.000000,1.866903),translate(-0.026886,-0.739174)" id="radialGradient-1"><stop stop-color="#48429F" offset="0%"/><stop stop-color="#48429F" stop-opacity="0.1" offset="100%"/></radialGradient><path d="M10.3333333,10.3333333 C13.1879167,10.3333333 15.5,8.02125 15.5,5.16666667 C15.5,2.31208333 13.1879167,0 10.3333333,0 C7.47875,0 5.16666667,2.31208333 5.16666667,5.16666667 C5.16666667,8.02125 7.47875,10.3333333 10.3333333,10.3333333 L10.3333333,10.3333333 Z M0,18.0833333 L0,18.0833333 C0,19.5100689 1.72648179,20.6666667 3.87511345,20.6666667 L16.7915532,20.6666667 C18.9317193,20.6666667 20.6666667,18.9292133 20.6666667,18.0833333 L20.6666667,18.0833333 C20.6666667,14.6475 13.7820833,12.9166667 10.3333333,12.9166667 C6.88458333,12.9166667 0,14.6475 0,18.0833333 Z" id="path-2"/></defs><g id="Design" fill="none" fill-rule="evenodd"><g id="responsum---case-study" transform="translate(-201.000000, -2235.000000)"><g id="Group-4" transform="translate(220.000000, 2260.000000)"><g id="section2-icon-asset" transform="translate(906.000000, 0.000000)"><g id="profile-progress-empty"><path d="M47,90.0833333 C23.2056369,90.0833333 3.91666667,70.7940974 3.91666667,47 C3.91666667,23.2059026 23.2056369,3.91666667 47,3.91666667 C70.7943631,3.91666667 90.0833333,23.2059026 90.0833333,47 C90.0833333,70.7940974 70.7943631,90.0833333 47,90.0833333 Z" id="Fill-1" fill="#FFFFFF"/><path d="M11.9558688,66.4271259 C11.5223646,65.6566888 11.7958057,64.6808374 12.5665096,64.2476 C13.3369467,63.813829 14.3130648,64.0878036 14.7460355,64.8582407 C21.3014199,76.5161701 33.6729639,83.7579584 47.0328976,83.7579584 C67.4428107,83.7579584 84.0472235,67.1535456 84.0472235,46.7436325 C84.0472235,26.3337194 67.4428107,9.72903985 47.0328976,9.72903985 C46.1490825,9.72903985 45.4322666,9.01222391 45.4322666,8.12840881 C45.4322666,7.24459371 46.1490825,6.52777778 47.0328976,6.52777778 C69.2077732,6.52777778 87.2484856,24.5684902 87.2484856,46.7436325 C87.2484856,68.9185081 69.2077732,86.9592205 47.0328976,86.9592205 C32.5181087,86.9592205 19.0770763,79.0918522 11.9558688,66.4271259 Z" id="Fill-5" fill="url(#radialGradient-1)"/><g id="icon/profile-picture" transform="translate(13.055556, 13.055556)"><rect id="Rectangle" fill="#524EA7" width="67.8888889" height="67.8888889" rx="33.9444444"/><g id="icon/person" transform="translate(18.277778, 16.972222)"><g id="ic_person" transform="translate(5.166667, 5.166667)"><g id="icon-color"><mask id="mask-3" fill="white"><use xlink:href="#path-2"/></mask><use id="Mask" fill="#37474F" xlink:href="#path-2"/><g id="color/ui/white" mask="url(#mask-3)" fill="#FFFFFF"><g transform="translate(-5.166667, -5.166667)" id="color-swatch-copy-2"><rect width="31" height="31"/></g></g></g></g></g></g></g></g></g></g></g></svg>