<?xml version="1.0" encoding="utf-8"?>
<!-- Generator: Adobe Illustrator 16.0.0, SVG Export Plug-In . SVG Version: 6.00 Build 0)  -->
<!DOCTYPE svg PUBLIC "-//W3C//DTD SVG 1.1//EN" "http://www.w3.org/Graphics/SVG/1.1/DTD/svg11.dtd">
<svg version="1.1" id="Layer_1" xmlns="http://www.w3.org/2000/svg" xmlns:xlink="http://www.w3.org/1999/xlink" x="0px" y="0px"
	 width="1365.725px" height="214.043px" viewBox="0 0 1365.725 214.043" enable-background="new 0 0 1365.725 214.043"
	 xml:space="preserve">
<rect fill="#AA243B" width="1365.725" height="214.043"/>
<g>
	<g>
		<path fill="#F0F1F1" d="M103.123,108.84c0-0.175,0.029-0.263,0.145-0.408l6.955-8.264c0.757-0.872,1.165-1.717,1.165-2.734
			c0-1.311-0.786-2.271-2.154-2.271c-1.339,0-2.153,0.814-2.328,2.329c0,0.174-0.116,0.262-0.319,0.231l-3.201-0.524
			c-0.174-0.028-0.262-0.174-0.233-0.348c0.204-2.735,2.416-5.123,6.227-5.123c3.783,0,6.082,2.445,6.082,5.646
			c0,1.891-0.756,3.376-2.008,4.802l-5.208,6.14v0.058h6.926c0.174,0,0.291,0.117,0.291,0.292v2.881c0,0.175-0.117,0.29-0.291,0.29
			h-11.756c-0.175,0-0.291-0.115-0.291-0.29V108.84z"/>
		<path fill="#F0F1F1" d="M126.375,101.942c0-4.393,0.146-5.295,0.437-6.167c0.814-2.533,2.851-4.047,5.964-4.047
			c3.114,0,5.15,1.514,5.965,4.047c0.291,0.872,0.437,1.774,0.437,6.167c0,4.395-0.146,5.297-0.437,6.169
			c-0.815,2.532-2.852,4.045-5.965,4.045c-3.113,0-5.15-1.513-5.964-4.045C126.521,107.239,126.375,106.337,126.375,101.942z
			 M132.776,108.724c1.019,0,1.717-0.438,2.008-1.34c0.174-0.522,0.232-1.104,0.232-5.441c0-4.335-0.058-4.917-0.232-5.44
			c-0.291-0.901-0.989-1.339-2.008-1.339c-1.047,0-1.716,0.438-2.007,1.339c-0.174,0.523-0.232,1.105-0.232,5.44
			c0,4.337,0.058,4.919,0.232,5.441C131.06,108.286,131.729,108.724,132.776,108.724z"/>
		<path fill="#F0F1F1" d="M155.185,96.647h-0.058l-3.143,2.153c-0.174,0.115-0.32,0.058-0.32-0.175v-3.607
			c0-0.175,0.058-0.292,0.204-0.407l3.317-2.387c0.146-0.116,0.32-0.175,0.524-0.175h3.259c0.175,0,0.292,0.116,0.292,0.291v19.205
			c0,0.175-0.116,0.29-0.292,0.29h-3.492c-0.174,0-0.291-0.115-0.291-0.29V96.647z"/>
		<path fill="#F0F1F1" d="M172.792,108.665v-2.97c0-0.115,0-0.23,0.058-0.348l5.936-13.065c0.087-0.174,0.204-0.232,0.407-0.232
			h3.695c0.204,0,0.262,0.116,0.204,0.291l-5.937,13.007v0.087h3.638c0.116,0,0.174-0.058,0.174-0.174v-4.278
			c0-0.174,0.116-0.291,0.292-0.291h3.375c0.174,0,0.291,0.117,0.291,0.291v4.278c0,0.116,0.059,0.174,0.174,0.174h1.31
			c0.175,0,0.291,0.116,0.291,0.291v2.939c0,0.175-0.116,0.291-0.291,0.291h-1.31c-0.116,0-0.174,0.058-0.174,0.174v2.416
			c0,0.175-0.117,0.29-0.291,0.29h-3.375c-0.175,0-0.292-0.115-0.292-0.29v-2.416c0-0.116-0.058-0.174-0.174-0.174h-7.711
			C172.908,108.956,172.792,108.84,172.792,108.665z"/>
		<path fill="#F0F1F1" d="M211.089,92.341c0-0.175,0.116-0.291,0.291-0.291h3.492c0.204,0,0.378,0.088,0.495,0.291l6.983,12.454
			h0.146V92.341c0-0.175,0.116-0.291,0.29-0.291h3.288c0.175,0,0.292,0.116,0.292,0.291v19.205c0,0.175-0.117,0.29-0.292,0.29
			h-3.462c-0.233,0-0.378-0.086-0.495-0.29l-7.013-12.426h-0.146v12.426c0,0.175-0.116,0.29-0.291,0.29h-3.288
			c-0.175,0-0.291-0.115-0.291-0.29V92.341z"/>
		<path fill="#F0F1F1" d="M242.75,92.341c0.059-0.175,0.175-0.291,0.378-0.291h3.667c0.204,0,0.32,0.116,0.378,0.291l6.692,19.205
			c0.058,0.175,0,0.29-0.204,0.29h-3.782c-0.204,0-0.32-0.086-0.378-0.29l-1.134-3.463h-6.926l-1.106,3.463
			c-0.058,0.204-0.174,0.29-0.378,0.29h-3.812c-0.203,0-0.261-0.115-0.203-0.29L242.75,92.341z M247.203,104.446l-2.24-6.927h-0.087
			l-2.241,6.927H247.203z"/>
		<path fill="#F0F1F1" d="M265.944,111.836c-0.174,0-0.29-0.115-0.29-0.29V96.037c0-0.117-0.059-0.176-0.175-0.176h-5.004
			c-0.175,0-0.292-0.116-0.292-0.29v-3.23c0-0.175,0.117-0.291,0.292-0.291h14.636c0.175,0,0.291,0.116,0.291,0.291v3.23
			c0,0.174-0.116,0.29-0.291,0.29h-5.005c-0.116,0-0.175,0.059-0.175,0.176v15.509c0,0.175-0.116,0.29-0.291,0.29H265.944z"/>
		<path fill="#F0F1F1" d="M285.065,92.341c0-0.175,0.116-0.291,0.291-0.291h3.696c0.174,0,0.29,0.116,0.29,0.291v19.205
			c0,0.175-0.116,0.29-0.29,0.29h-3.696c-0.175,0-0.291-0.115-0.291-0.29V92.341z"/>
		<path fill="#F0F1F1" d="M300.431,107.355c-0.437-1.367-0.553-2.473-0.553-5.413c0-2.938,0.116-4.044,0.553-5.411
			c1.018-3.202,3.753-4.803,7.216-4.803c3.462,0,6.198,1.601,7.216,4.803c0.437,1.367,0.553,2.473,0.553,5.411
			c0,2.94-0.116,4.046-0.553,5.413c-1.018,3.201-3.753,4.801-7.216,4.801C304.184,112.156,301.449,110.557,300.431,107.355z
			 M310.76,106.191c0.233-0.698,0.321-1.658,0.321-4.249c0-2.589-0.087-3.549-0.321-4.247c-0.436-1.368-1.484-2.184-3.113-2.184
			c-1.63,0-2.677,0.815-3.114,2.184c-0.233,0.698-0.32,1.658-0.32,4.247c0,2.591,0.087,3.551,0.32,4.249
			c0.437,1.367,1.484,2.182,3.114,2.182C309.276,108.373,310.324,107.559,310.76,106.191z"/>
		<path fill="#F0F1F1" d="M325.952,92.341c0-0.175,0.116-0.291,0.291-0.291h3.492c0.204,0,0.378,0.088,0.494,0.291l6.984,12.454
			h0.146V92.341c0-0.175,0.116-0.291,0.291-0.291h3.289c0.174,0,0.291,0.116,0.291,0.291v19.205c0,0.175-0.117,0.29-0.291,0.29
			h-3.463c-0.233,0-0.378-0.086-0.495-0.29l-7.013-12.426h-0.146v12.426c0,0.175-0.116,0.29-0.29,0.29h-3.289
			c-0.175,0-0.291-0.115-0.291-0.29V92.341z"/>
		<path fill="#F0F1F1" d="M357.614,92.341c0.059-0.175,0.174-0.291,0.378-0.291h3.667c0.204,0,0.32,0.116,0.378,0.291l6.692,19.205
			c0.059,0.175,0,0.29-0.204,0.29h-3.782c-0.204,0-0.32-0.086-0.378-0.29l-1.135-3.463h-6.925l-1.106,3.463
			c-0.058,0.204-0.174,0.29-0.378,0.29h-3.812c-0.204,0-0.262-0.115-0.204-0.29L357.614,92.341z M362.065,104.446l-2.24-6.927
			h-0.087l-2.241,6.927H362.065z"/>
		<path fill="#F0F1F1" d="M378.305,92.341c0-0.175,0.116-0.291,0.292-0.291h3.695c0.175,0,0.291,0.116,0.291,0.291v15.509
			c0,0.117,0.058,0.176,0.175,0.176h8.729c0.174,0,0.291,0.115,0.291,0.29v3.23c0,0.175-0.117,0.29-0.291,0.29h-12.89
			c-0.175,0-0.292-0.115-0.292-0.29V92.341z"/>
		<path fill="#F0F1F1" d="M415.729,92.341c0-0.175,0.116-0.291,0.291-0.291h12.687c0.174,0,0.291,0.116,0.291,0.291v3.112
			c0,0.176-0.117,0.292-0.291,0.292h-8.525c-0.117,0-0.175,0.058-0.175,0.175v4.16c0,0.117,0.058,0.176,0.175,0.176h7.1
			c0.174,0,0.291,0.116,0.291,0.291v3.084c0,0.174-0.117,0.291-0.291,0.291h-7.1c-0.117,0-0.175,0.059-0.175,0.175v7.449
			c0,0.175-0.116,0.29-0.291,0.29h-3.695c-0.175,0-0.291-0.115-0.291-0.29V92.341z"/>
		<path fill="#F0F1F1" d="M439.243,107.355c-0.437-1.367-0.553-2.473-0.553-5.413c0-2.938,0.116-4.044,0.553-5.411
			c1.018-3.202,3.753-4.803,7.216-4.803c3.462,0,6.198,1.601,7.216,4.803c0.437,1.367,0.553,2.473,0.553,5.411
			c0,2.94-0.116,4.046-0.553,5.413c-1.019,3.201-3.754,4.801-7.216,4.801C442.997,112.156,440.261,110.557,439.243,107.355z
			 M449.573,106.191c0.233-0.698,0.32-1.658,0.32-4.249c0-2.589-0.087-3.549-0.32-4.247c-0.437-1.368-1.484-2.184-3.113-2.184
			s-2.677,0.815-3.114,2.184c-0.233,0.698-0.32,1.658-0.32,4.247c0,2.591,0.087,3.551,0.32,4.249
			c0.437,1.367,1.484,2.182,3.114,2.182S449.136,107.559,449.573,106.191z"/>
		<path fill="#F0F1F1" d="M475.705,111.836c-0.262,0-0.349-0.086-0.436-0.29l-3.405-7.245h-2.647c-0.117,0-0.175,0.058-0.175,0.173
			v7.072c0,0.175-0.116,0.29-0.291,0.29h-3.696c-0.174,0-0.291-0.115-0.291-0.29V92.341c0-0.175,0.117-0.291,0.291-0.291h7.886
			c4.044,0,6.721,2.531,6.721,6.14c0,2.531-1.338,4.539-3.521,5.499l3.899,7.8c0.087,0.174,0,0.348-0.204,0.348H475.705z
			 M475.385,98.189c0-1.484-1.047-2.444-2.677-2.444h-3.491c-0.117,0-0.175,0.058-0.175,0.175v4.568
			c0,0.116,0.058,0.174,0.175,0.174h3.491C474.338,100.662,475.385,99.702,475.385,98.189z"/>
		<path fill="#F0F1F1" d="M490.112,104.562V92.341c0-0.175,0.117-0.291,0.291-0.291h3.696c0.174,0,0.292,0.116,0.292,0.291v12.337
			c0,2.357,1.309,3.695,3.316,3.695c1.979,0,3.289-1.338,3.289-3.695V92.341c0-0.175,0.117-0.291,0.291-0.291h3.696
			c0.174,0,0.29,0.116,0.29,0.291v12.221c0,4.918-3.142,7.595-7.565,7.595C493.254,112.156,490.112,109.479,490.112,104.562z"/>
		<path fill="#F0F1F1" d="M516.245,92.341c0-0.175,0.116-0.291,0.292-0.291h3.462c0.234,0,0.378,0.088,0.466,0.291l5.005,11.29
			h0.116l4.917-11.29c0.087-0.203,0.232-0.291,0.466-0.291h3.404c0.174,0,0.291,0.116,0.291,0.291v19.205
			c0,0.175-0.117,0.29-0.291,0.29h-3.288c-0.175,0-0.292-0.115-0.292-0.29v-11.145h-0.116l-3.667,8.352
			c-0.116,0.261-0.29,0.377-0.553,0.377h-2.008c-0.262,0-0.436-0.116-0.552-0.377l-3.666-8.352h-0.117v11.145
			c0,0.175-0.117,0.29-0.291,0.29h-3.288c-0.175,0-0.292-0.115-0.292-0.29V92.341z"/>
		<path fill="#F0F1F1" d="M566.951,98.978c3.782,0,6.102,2.925,5.547,6.557c-0.604,3.63-3.857,6.555-7.614,6.555
			c-3.807,0-6.102-2.925-5.496-6.555C559.942,101.902,563.169,98.978,566.951,98.978z M565.085,111.585
			c1.588,0,2.597-2.27,3.126-6.051c0.529-3.783,0.151-6.053-1.438-6.053c-1.588,0-2.571,2.27-3.101,6.053
			C563.145,109.315,563.497,111.585,565.085,111.585z"/>
		<path fill="#F0F1F1" d="M578,102.382c0.278-2.017-1.033-1.437-1.84,0.378l-0.378-0.127c1.059-2.395,2.95-3.655,4.462-3.655
			c1.765,0,2.143,1.009,1.992,2.018l-0.378,2.647h0.051c1.211-2.521,3.429-4.665,5.27-4.665c1.689,0,3.252,1.009,2.875,3.782
			l-0.832,5.925c-0.328,2.018,1.033,1.438,1.84-0.377l0.378,0.126c-1.058,2.395-2.95,3.655-4.462,3.655
			c-1.765,0-2.143-1.009-1.992-2.018l1.084-7.563c0.151-1.135-0.303-1.513-0.807-1.513c-1.512,0-3.454,2.722-3.857,5.799
			l-0.68,5.042h-4.06L578,102.382z"/>
		<path fill="#F0F1F1" d="M606.305,101.942c0-3.055,0.116-4.073,0.553-5.353c1.047-3.23,3.579-4.861,7.041-4.861
			c3.346,0,5.791,1.631,6.897,4.395c0.086,0.146,0.029,0.291-0.146,0.35l-3.172,1.426c-0.174,0.087-0.32,0.029-0.407-0.145
			c-0.553-1.281-1.484-2.242-3.143-2.242c-1.542,0-2.532,0.815-2.968,2.184c-0.234,0.727-0.321,1.425-0.321,4.247
			c0,2.823,0.087,3.522,0.321,4.249c0.436,1.367,1.425,2.182,2.968,2.182c1.658,0,2.589-0.96,3.143-2.24
			c0.087-0.174,0.233-0.232,0.407-0.145l3.172,1.425c0.174,0.058,0.232,0.203,0.146,0.351c-1.106,2.764-3.551,4.393-6.897,4.393
			c-3.462,0-5.994-1.629-7.041-4.859C606.421,106.018,606.305,104.999,606.305,101.942z"/>
		<path fill="#F0F1F1" d="M630.837,92.341c0-0.175,0.116-0.291,0.292-0.291h3.695c0.174,0,0.291,0.116,0.291,0.291v7.419
			c0,0.117,0.058,0.175,0.175,0.175h6.46c0.116,0,0.174-0.058,0.174-0.175v-7.419c0-0.175,0.117-0.291,0.291-0.291h3.696
			c0.175,0,0.291,0.116,0.291,0.291v19.205c0,0.175-0.116,0.29-0.291,0.29h-3.696c-0.174,0-0.291-0.115-0.291-0.29v-7.624
			c0-0.117-0.058-0.175-0.174-0.175h-6.46c-0.117,0-0.175,0.058-0.175,0.175v7.624c0,0.175-0.116,0.29-0.291,0.29h-3.695
			c-0.175,0-0.292-0.115-0.292-0.29V92.341z"/>
		<path fill="#F0F1F1" d="M662.586,92.341c0.058-0.175,0.175-0.291,0.378-0.291h3.667c0.204,0,0.32,0.116,0.378,0.291l6.692,19.205
			c0.058,0.175,0,0.29-0.203,0.29h-3.783c-0.204,0-0.32-0.086-0.378-0.29l-1.134-3.463h-6.926l-1.106,3.463
			c-0.058,0.204-0.174,0.29-0.378,0.29h-3.812c-0.203,0-0.261-0.115-0.203-0.29L662.586,92.341z M667.038,104.446l-2.241-6.927
			h-0.087l-2.24,6.927H667.038z"/>
		<path fill="#F0F1F1" d="M694.219,111.836c-0.262,0-0.35-0.086-0.437-0.29l-3.405-7.245h-2.647c-0.116,0-0.175,0.058-0.175,0.173
			v7.072c0,0.175-0.115,0.29-0.291,0.29h-3.695c-0.175,0-0.292-0.115-0.292-0.29V92.341c0-0.175,0.116-0.291,0.292-0.291h7.885
			c4.045,0,6.722,2.531,6.722,6.14c0,2.531-1.339,4.539-3.521,5.499l3.9,7.8c0.087,0.174,0,0.348-0.204,0.348H694.219z
			 M693.898,98.189c0-1.484-1.047-2.444-2.678-2.444h-3.491c-0.116,0-0.175,0.058-0.175,0.175v4.568
			c0,0.116,0.059,0.174,0.175,0.174h3.491C692.852,100.662,693.898,99.702,693.898,98.189z"/>
		<path fill="#F0F1F1" d="M714.037,92.341c0.059-0.175,0.175-0.291,0.379-0.291h3.666c0.203,0,0.32,0.116,0.379,0.291l6.691,19.205
			c0.059,0.175,0,0.29-0.203,0.29h-3.783c-0.203,0-0.319-0.086-0.378-0.29l-1.135-3.463h-6.925l-1.106,3.463
			c-0.058,0.204-0.175,0.29-0.378,0.29h-3.812c-0.203,0-0.262-0.115-0.203-0.29L714.037,92.341z M718.489,104.446l-2.241-6.927
			h-0.086l-2.241,6.927H718.489z"/>
		<path fill="#F0F1F1" d="M733.361,101.942c0-3.055,0.116-4.073,0.553-5.353c1.047-3.23,3.579-4.861,7.041-4.861
			c3.347,0,5.791,1.631,6.896,4.395c0.088,0.146,0.029,0.291-0.145,0.35l-3.172,1.426c-0.174,0.087-0.32,0.029-0.408-0.145
			c-0.553-1.281-1.483-2.242-3.143-2.242c-1.541,0-2.531,0.815-2.967,2.184c-0.233,0.727-0.32,1.425-0.32,4.247
			c0,2.823,0.087,3.522,0.32,4.249c0.436,1.367,1.426,2.182,2.967,2.182c1.659,0,2.59-0.96,3.143-2.24
			c0.088-0.174,0.234-0.232,0.408-0.145l3.172,1.425c0.174,0.058,0.232,0.203,0.145,0.351c-1.105,2.764-3.55,4.393-6.896,4.393
			c-3.462,0-5.994-1.629-7.041-4.859C733.478,106.018,733.361,104.999,733.361,101.942z"/>
		<path fill="#F0F1F1" d="M761.909,111.836c-0.175,0-0.291-0.115-0.291-0.29V96.037c0-0.117-0.058-0.176-0.175-0.176h-5.004
			c-0.176,0-0.291-0.116-0.291-0.29v-3.23c0-0.175,0.115-0.291,0.291-0.291h14.636c0.175,0,0.291,0.116,0.291,0.291v3.23
			c0,0.174-0.116,0.29-0.291,0.29h-5.005c-0.117,0-0.174,0.059-0.174,0.176v15.509c0,0.175-0.117,0.29-0.291,0.29H761.909z"/>
		<path fill="#F0F1F1" d="M781.029,92.341c0-0.175,0.116-0.291,0.291-0.291h12.688c0.174,0,0.291,0.116,0.291,0.291v3.112
			c0,0.176-0.117,0.292-0.291,0.292h-8.526c-0.116,0-0.175,0.058-0.175,0.175v3.928c0,0.116,0.059,0.174,0.175,0.174h7.1
			c0.175,0,0.292,0.117,0.292,0.293v3.084c0,0.174-0.117,0.29-0.292,0.29h-7.1c-0.116,0-0.175,0.059-0.175,0.175v4.104
			c0,0.116,0.059,0.174,0.175,0.174h8.526c0.174,0,0.291,0.117,0.291,0.291v3.114c0,0.175-0.117,0.29-0.291,0.29H781.32
			c-0.175,0-0.291-0.115-0.291-0.29V92.341z"/>
		<path fill="#F0F1F1" d="M815.688,111.836c-0.262,0-0.349-0.086-0.436-0.29l-3.406-7.245h-2.646c-0.117,0-0.176,0.058-0.176,0.173
			v7.072c0,0.175-0.115,0.29-0.29,0.29h-3.696c-0.174,0-0.291-0.115-0.291-0.29V92.341c0-0.175,0.117-0.291,0.291-0.291h7.887
			c4.044,0,6.721,2.531,6.721,6.14c0,2.531-1.338,4.539-3.52,5.499l3.898,7.8c0.087,0.174,0,0.348-0.204,0.348H815.688z
			 M815.367,98.189c0-1.484-1.047-2.444-2.677-2.444h-3.491c-0.117,0-0.176,0.058-0.176,0.175v4.568
			c0,0.116,0.059,0.174,0.176,0.174h3.491C814.32,100.662,815.367,99.702,815.367,98.189z"/>
		<path fill="#F0F1F1" d="M844.324,92.341c0-0.175,0.116-0.291,0.291-0.291h12.688c0.174,0,0.291,0.116,0.291,0.291v3.112
			c0,0.176-0.117,0.292-0.291,0.292h-8.526c-0.116,0-0.175,0.058-0.175,0.175v3.928c0,0.116,0.059,0.174,0.175,0.174h7.1
			c0.175,0,0.29,0.117,0.29,0.293v3.084c0,0.174-0.115,0.29-0.29,0.29h-7.1c-0.116,0-0.175,0.059-0.175,0.175v4.104
			c0,0.116,0.059,0.174,0.175,0.174h8.526c0.174,0,0.291,0.117,0.291,0.291v3.114c0,0.175-0.117,0.29-0.291,0.29h-12.688
			c-0.175,0-0.291-0.115-0.291-0.29V92.341z"/>
		<path fill="#F0F1F1" d="M868.041,92.341c0-0.175,0.116-0.291,0.291-0.291h7.361c3.463,0,5.879,1.483,6.839,4.452
			c0.349,1.105,0.524,2.211,0.524,5.44c0,3.23-0.176,4.337-0.524,5.441c-0.96,2.968-3.376,4.452-6.839,4.452h-7.361
			c-0.175,0-0.291-0.115-0.291-0.29V92.341z M872.494,108.025h2.24c1.979,0,3.171-0.582,3.666-2.183
			c0.204-0.582,0.32-1.339,0.32-3.9c0-2.56-0.116-3.316-0.32-3.899c-0.495-1.6-1.688-2.182-3.666-2.182h-2.24
			c-0.117,0-0.176,0.059-0.176,0.176v11.812C872.318,107.967,872.377,108.025,872.494,108.025z"/>
		<path fill="#F0F1F1" d="M893.563,104.562V92.341c0-0.175,0.116-0.291,0.29-0.291h3.695c0.176,0,0.291,0.116,0.291,0.291v12.337
			c0,2.357,1.311,3.695,3.318,3.695c1.979,0,3.288-1.338,3.288-3.695V92.341c0-0.175,0.116-0.291,0.29-0.291h3.696
			c0.175,0,0.29,0.116,0.29,0.291v12.221c0,4.918-3.142,7.595-7.564,7.595C896.706,112.156,893.563,109.479,893.563,104.562z"/>
		<path fill="#F0F1F1" d="M919.172,101.942c0-3.055,0.117-4.073,0.553-5.353c1.049-3.23,3.58-4.861,7.042-4.861
			c3.347,0,5.791,1.631,6.897,4.395c0.086,0.146,0.028,0.291-0.146,0.35l-3.172,1.426c-0.174,0.087-0.32,0.029-0.406-0.145
			c-0.554-1.281-1.484-2.242-3.144-2.242c-1.542,0-2.531,0.815-2.968,2.184c-0.232,0.727-0.32,1.425-0.32,4.247
			c0,2.823,0.088,3.522,0.32,4.249c0.437,1.367,1.426,2.182,2.968,2.182c1.659,0,2.59-0.96,3.144-2.24
			c0.086-0.174,0.232-0.232,0.406-0.145l3.172,1.425c0.175,0.058,0.232,0.203,0.146,0.351c-1.106,2.764-3.551,4.393-6.897,4.393
			c-3.462,0-5.993-1.629-7.042-4.859C919.289,106.018,919.172,104.999,919.172,101.942z"/>
		<path fill="#F0F1F1" d="M949.029,92.341c0.059-0.175,0.175-0.291,0.379-0.291h3.666c0.203,0,0.32,0.116,0.379,0.291l6.691,19.205
			c0.059,0.175,0,0.29-0.203,0.29h-3.782c-0.204,0-0.321-0.086-0.378-0.29l-1.136-3.463h-6.925l-1.106,3.463
			c-0.058,0.204-0.175,0.29-0.378,0.29h-3.812c-0.203,0-0.262-0.115-0.203-0.29L949.029,92.341z M953.481,104.446l-2.24-6.927
			h-0.087l-2.241,6.927H953.481z"/>
		<path fill="#F0F1F1" d="M972.223,111.836c-0.174,0-0.29-0.115-0.29-0.29V96.037c0-0.117-0.058-0.176-0.175-0.176h-5.004
			c-0.176,0-0.292-0.116-0.292-0.29v-3.23c0-0.175,0.116-0.291,0.292-0.291h14.635c0.176,0,0.292,0.116,0.292,0.291v3.23
			c0,0.174-0.116,0.29-0.292,0.29h-5.004c-0.117,0-0.174,0.059-0.174,0.176v15.509c0,0.175-0.117,0.29-0.292,0.29H972.223z"/>
		<path fill="#F0F1F1" d="M991.344,92.341c0-0.175,0.116-0.291,0.291-0.291h3.695c0.175,0,0.291,0.116,0.291,0.291v19.205
			c0,0.175-0.116,0.29-0.291,0.29h-3.695c-0.175,0-0.291-0.115-0.291-0.29V92.341z"/>
		<path fill="#F0F1F1" d="M1006.709,107.355c-0.437-1.367-0.553-2.473-0.553-5.413c0-2.938,0.116-4.044,0.553-5.411
			c1.019-3.202,3.754-4.803,7.217-4.803c3.462,0,6.197,1.601,7.217,4.803c0.436,1.367,0.552,2.473,0.552,5.411
			c0,2.94-0.116,4.046-0.552,5.413c-1.02,3.201-3.755,4.801-7.217,4.801C1010.463,112.156,1007.728,110.557,1006.709,107.355z
			 M1017.039,106.191c0.232-0.698,0.32-1.658,0.32-4.249c0-2.589-0.088-3.549-0.32-4.247c-0.437-1.368-1.484-2.184-3.113-2.184
			c-1.63,0-2.678,0.815-3.113,2.184c-0.233,0.698-0.32,1.658-0.32,4.247c0,2.591,0.087,3.551,0.32,4.249
			c0.436,1.367,1.483,2.182,3.113,2.182C1015.555,108.373,1016.603,107.559,1017.039,106.191z"/>
		<path fill="#F0F1F1" d="M1032.23,92.341c0-0.175,0.117-0.291,0.291-0.291h3.492c0.203,0,0.378,0.088,0.494,0.291l6.984,12.454
			h0.146V92.341c0-0.175,0.116-0.291,0.29-0.291h3.289c0.174,0,0.291,0.116,0.291,0.291v19.205c0,0.175-0.117,0.29-0.291,0.29
			h-3.463c-0.233,0-0.379-0.086-0.494-0.29l-7.014-12.426h-0.146v12.426c0,0.175-0.116,0.29-0.29,0.29h-3.289
			c-0.174,0-0.291-0.115-0.291-0.29V92.341z"/>
	</g>
</g>
<g>
	<rect x="1150.991" fill="#681E2D" width="214.733" height="214.043"/>
</g>
<g>
	<path fill="#F0F1F1" d="M1299.078,80.699c-7.805,6.869-18.373,14.591-26.454,14.591s-18.646-7.722-26.453-14.591
		c-0.858-0.756-2.534-0.783-1.277,0.861c3.617,4.708,7.845,10.666,11.896,17.429c-5.035,4.345-11.816,9.214-16.935,9.214
		c-5.356,0-12.55-5.338-17.638-9.82c-0.766-0.666-2.036-0.678-2.39,0.059c-0.228,0.459-0.104,0.998,0.362,1.609
		c6.992,9.111,15.841,22.982,18.263,37.326c0.218,1.335,0.483,2.452,1.402,2.452c0.92,0,1.183-1.117,1.413-2.452
		c2.275-13.561,10.292-26.645,17.073-35.736c5.966,10.4,11.3,22.477,13.368,34.779c0.296,1.75,0.607,2.624,0.915,2.619
		c0.313,0.005,0.618-0.869,0.918-2.619c3.634-21.602,17.327-42.508,26.814-54.859C1301.616,79.916,1299.936,79.943,1299.078,80.699
		 M1239.854,102.748c4.011,0,7.259-3.25,7.259-7.254c0-4.014-3.248-7.262-7.259-7.262c-4.006,0-7.258,3.248-7.258,7.262
		C1232.597,99.498,1235.849,102.748,1239.854,102.748 M1263.575,79.26c0-5,4.053-9.049,9.049-9.049c4.999,0,9.054,4.049,9.054,9.049
		c0,5.004-4.055,9.049-9.054,9.049C1267.628,88.309,1263.575,84.264,1263.575,79.26"/>
</g>
<g>
</g>
<g>
</g>
<g>
</g>
<g>
</g>
<g>
</g>
<g>
</g>
<g>
</g>
<g>
</g>
<g>
</g>
<g>
</g>
<g>
</g>
<g>
</g>
<g>
</g>
<g>
</g>
<g>
</g>
</svg>
