<?xml version="1.0" encoding="utf-8"?>
<!-- Generator: Adobe Illustrator 16.0.0, SVG Export Plug-In . SVG Version: 6.00 Build 0)  -->
<!DOCTYPE svg PUBLIC "-//W3C//DTD SVG 1.1//EN" "http://www.w3.org/Graphics/SVG/1.1/DTD/svg11.dtd">
<svg version="1.1" id="Layer_1" xmlns="http://www.w3.org/2000/svg" xmlns:xlink="http://www.w3.org/1999/xlink" x="0px" y="0px"
	 width="680px" height="612px" viewBox="0 0 680 612" enable-background="new 0 0 680 612" xml:space="preserve">
<g>
	<g>
		<rect fill="#F0F1F1" width="680" height="612"/>
		<g>
			<g>
				<g>
					<path fill="#454547" d="M120.67,450.415c-0.144-0.138-0.212-0.381-0.038-0.589l2.627-3.01c0.14-0.171,0.347-0.171,0.521-0.032
						c1.553,1.245,3.663,2.42,6.153,2.42c2.453,0,3.837-1.141,3.837-2.8c0-1.385-0.83-2.248-3.629-2.63l-1.246-0.17
						c-4.772-0.66-7.434-2.907-7.434-7.057c0-4.32,3.249-7.191,8.332-7.191c3.113,0,6.016,0.935,7.987,2.459
						c0.208,0.137,0.242,0.272,0.071,0.517l-2.111,3.147c-0.14,0.173-0.311,0.208-0.484,0.102c-1.796-1.176-3.527-1.798-5.463-1.798
						c-2.076,0-3.147,1.073-3.147,2.558c0,1.351,0.971,2.212,3.669,2.595l1.241,0.174c4.842,0.654,7.399,2.868,7.399,7.12
						c0,4.253-3.146,7.401-9.23,7.401C126.058,453.631,122.501,452.177,120.67,450.415z"/>
					<path fill="#454547" d="M146.948,441.492c0-3.628,0.138-4.839,0.658-6.358c1.243-3.841,4.251-5.777,8.365-5.777
						c3.976,0,6.881,1.937,8.193,5.222c0.104,0.173,0.036,0.346-0.173,0.418l-3.767,1.691c-0.209,0.105-0.382,0.034-0.486-0.174
						c-0.656-1.518-1.766-2.662-3.733-2.662c-1.832,0-3.009,0.969-3.527,2.595c-0.276,0.864-0.381,1.696-0.381,5.046
						c0,3.356,0.104,4.187,0.381,5.048c0.519,1.626,1.695,2.595,3.527,2.595c1.968,0,3.077-1.14,3.733-2.663
						c0.104-0.206,0.277-0.276,0.486-0.171l3.767,1.694c0.209,0.068,0.277,0.241,0.173,0.415c-1.312,3.281-4.218,5.221-8.193,5.221
						c-4.114,0-7.122-1.939-8.365-5.774C147.086,446.334,146.948,445.123,146.948,441.492z"/>
					<path fill="#454547" d="M172.639,430.082c0-0.206,0.142-0.346,0.345-0.346h4.393c0.21,0,0.346,0.14,0.346,0.346v8.819
						c0,0.136,0.069,0.208,0.209,0.208h7.675c0.138,0,0.206-0.072,0.206-0.208v-8.819c0-0.206,0.14-0.346,0.347-0.346h4.392
						c0.205,0,0.348,0.14,0.348,0.346v22.822c0,0.205-0.143,0.345-0.348,0.345h-4.392c-0.207,0-0.347-0.14-0.347-0.345v-9.06
						c0-0.14-0.068-0.207-0.206-0.207h-7.675c-0.14,0-0.209,0.067-0.209,0.207v9.06c0,0.205-0.136,0.345-0.346,0.345h-4.393
						c-0.203,0-0.345-0.14-0.345-0.345V430.082z"/>
					<path fill="#454547" d="M200.615,447.924c-0.519-1.623-0.656-2.938-0.656-6.432c0-3.488,0.138-4.805,0.656-6.43
						c1.213-3.802,4.462-5.706,8.572-5.706c4.119,0,7.366,1.904,8.577,5.706c0.517,1.625,0.659,2.941,0.659,6.43
						c0,3.494-0.143,4.809-0.659,6.432c-1.211,3.807-4.458,5.707-8.577,5.707C205.077,453.631,201.828,451.73,200.615,447.924z
						 M212.888,446.54c0.279-0.83,0.382-1.967,0.382-5.048c0-3.074-0.103-4.215-0.382-5.046c-0.52-1.626-1.76-2.595-3.7-2.595
						c-1.937,0-3.181,0.969-3.698,2.595c-0.275,0.831-0.38,1.972-0.38,5.046c0,3.081,0.104,4.218,0.38,5.048
						c0.518,1.626,1.762,2.595,3.698,2.595C211.128,449.135,212.368,448.166,212.888,446.54z"/>
					<path fill="#454547" d="M227.518,447.924c-0.518-1.623-0.657-2.938-0.657-6.432c0-3.488,0.14-4.805,0.657-6.43
						c1.212-3.802,4.461-5.706,8.574-5.706c4.114,0,7.365,1.904,8.576,5.706c0.519,1.625,0.658,2.941,0.658,6.43
						c0,3.494-0.14,4.809-0.658,6.432c-1.211,3.807-4.462,5.707-8.576,5.707C231.979,453.631,228.729,451.73,227.518,447.924z
						 M239.791,446.54c0.277-0.83,0.382-1.967,0.382-5.048c0-3.074-0.104-4.215-0.382-5.046c-0.517-1.626-1.764-2.595-3.699-2.595
						c-1.937,0-3.18,0.969-3.699,2.595c-0.276,0.831-0.38,1.972-0.38,5.046c0,3.081,0.104,4.218,0.38,5.048
						c0.52,1.626,1.763,2.595,3.699,2.595C238.027,449.135,239.274,448.166,239.791,446.54z"/>
					<path fill="#454547" d="M254.386,430.082c0-0.206,0.137-0.346,0.348-0.346h4.387c0.21,0,0.346,0.14,0.346,0.346v18.43
						c0,0.138,0.071,0.209,0.211,0.209h10.37c0.21,0,0.347,0.137,0.347,0.344v3.84c0,0.205-0.137,0.345-0.347,0.345h-15.313
						c-0.211,0-0.348-0.14-0.348-0.345V430.082z"/>
					<path fill="#454547" d="M325.104,441.492c0-3.628,0.138-4.839,0.658-6.358c1.241-3.841,4.248-5.777,8.364-5.777
						c3.978,0,6.882,1.937,8.192,5.222c0.105,0.173,0.037,0.346-0.171,0.418l-3.769,1.691c-0.208,0.105-0.38,0.034-0.483-0.174
						c-0.655-1.518-1.762-2.662-3.735-2.662c-1.831,0-3.007,0.969-3.523,2.595c-0.279,0.864-0.383,1.696-0.383,5.046
						c0,3.356,0.104,4.187,0.383,5.048c0.517,1.626,1.692,2.595,3.523,2.595c1.974,0,3.08-1.14,3.735-2.663
						c0.104-0.206,0.275-0.276,0.483-0.171l3.769,1.694c0.208,0.068,0.276,0.241,0.171,0.415c-1.311,3.281-4.215,5.221-8.192,5.221
						c-4.116,0-7.123-1.939-8.364-5.774C325.242,446.334,325.104,445.123,325.104,441.492z"/>
					<path fill="#454547" d="M350.794,430.082c0-0.206,0.137-0.346,0.348-0.346h4.394c0.206,0,0.346,0.14,0.346,0.346v8.819
						c0,0.136,0.064,0.208,0.205,0.208h7.676c0.14,0,0.208-0.072,0.208-0.208v-8.819c0-0.206,0.14-0.346,0.344-0.346h4.392
						c0.211,0,0.348,0.14,0.348,0.346v22.822c0,0.205-0.137,0.345-0.348,0.345h-4.392c-0.204,0-0.344-0.14-0.344-0.345v-9.06
						c0-0.14-0.068-0.207-0.208-0.207h-7.676c-0.141,0-0.205,0.067-0.205,0.207v9.06c0,0.205-0.14,0.345-0.346,0.345h-4.394
						c-0.211,0-0.348-0.14-0.348-0.345V430.082z"/>
					<path fill="#454547" d="M385.066,430.082c0.067-0.206,0.207-0.346,0.448-0.346h4.358c0.24,0,0.379,0.14,0.447,0.346
						l7.952,22.822c0.068,0.205,0,0.345-0.244,0.345h-4.491c-0.244,0-0.381-0.105-0.452-0.345l-1.348-4.116h-8.227l-1.316,4.116
						c-0.068,0.239-0.204,0.345-0.448,0.345h-4.531c-0.241,0-0.309-0.14-0.241-0.345L385.066,430.082z M390.353,444.468
						l-2.659-8.229h-0.104l-2.66,8.229H390.353z"/>
					<path fill="#454547" d="M419.193,453.249c-0.308,0-0.416-0.105-0.516-0.345l-4.048-8.61h-3.146
						c-0.14,0-0.205,0.069-0.205,0.208v8.402c0,0.205-0.14,0.345-0.349,0.345h-4.39c-0.208,0-0.345-0.14-0.345-0.345v-22.822
						c0-0.206,0.137-0.346,0.345-0.346h9.37c4.805,0,7.987,3.009,7.987,7.295c0,3.01-1.591,5.398-4.187,6.537l4.632,9.268
						c0.105,0.207,0,0.413-0.237,0.413H419.193z M418.814,437.031c0-1.759-1.245-2.901-3.181-2.901h-4.15
						c-0.14,0-0.205,0.067-0.205,0.206v5.428c0,0.139,0.065,0.21,0.205,0.21h4.15C417.569,439.974,418.814,438.83,418.814,437.031z"
						/>
					<path fill="#454547" d="M439.287,430.082c0.068-0.206,0.204-0.346,0.445-0.346h4.358c0.239,0,0.38,0.14,0.452,0.346
						l7.947,22.822c0.071,0.205,0,0.345-0.241,0.345h-4.495c-0.24,0-0.377-0.105-0.448-0.345l-1.347-4.116h-8.232l-1.312,4.116
						c-0.07,0.239-0.206,0.345-0.447,0.345h-4.53c-0.241,0-0.308-0.14-0.241-0.345L439.287,430.082z M444.574,444.468l-2.66-8.229
						h-0.106l-2.66,8.229H444.574z"/>
					<path fill="#454547" d="M458.788,441.492c0-3.628,0.14-4.839,0.656-6.358c1.247-3.841,4.252-5.777,8.368-5.777
						c3.975,0,6.88,1.937,8.195,5.222c0.103,0.173,0.035,0.346-0.175,0.418l-3.767,1.691c-0.207,0.105-0.383,0.034-0.483-0.174
						c-0.659-1.518-1.769-2.662-3.735-2.662c-1.833,0-3.008,0.969-3.524,2.595c-0.279,0.864-0.384,1.696-0.384,5.046
						c0,3.356,0.104,4.187,0.384,5.048c0.517,1.626,1.691,2.595,3.524,2.595c1.967,0,3.076-1.14,3.735-2.663
						c0.101-0.206,0.276-0.276,0.483-0.171l3.767,1.694c0.21,0.068,0.277,0.241,0.175,0.415c-1.315,3.281-4.221,5.221-8.195,5.221
						c-4.116,0-7.121-1.939-8.368-5.774C458.928,446.334,458.788,445.123,458.788,441.492z"/>
					<path fill="#454547" d="M489.252,453.249c-0.203,0-0.343-0.14-0.343-0.345v-18.43c0-0.139-0.073-0.206-0.208-0.206h-5.945
						c-0.211,0-0.347-0.139-0.347-0.347v-3.84c0-0.206,0.136-0.346,0.347-0.346h17.388c0.208,0,0.348,0.14,0.348,0.346v3.84
						c0,0.208-0.14,0.347-0.348,0.347h-5.948c-0.136,0-0.207,0.067-0.207,0.206v18.43c0,0.205-0.136,0.345-0.344,0.345H489.252z"/>
					<path fill="#454547" d="M508.517,430.082c0-0.206,0.138-0.346,0.346-0.346h15.073c0.207,0,0.348,0.14,0.348,0.346v3.701
						c0,0.207-0.141,0.347-0.348,0.347h-10.127c-0.141,0-0.211,0.067-0.211,0.206v4.669c0,0.139,0.07,0.206,0.211,0.206h8.432
						c0.206,0,0.346,0.14,0.346,0.346v3.663c0,0.211-0.14,0.349-0.346,0.349h-8.432c-0.141,0-0.211,0.069-0.211,0.206v4.875
						c0,0.139,0.07,0.208,0.211,0.208h10.127c0.207,0,0.348,0.139,0.348,0.347v3.7c0,0.205-0.141,0.345-0.348,0.345h-15.073
						c-0.208,0-0.346-0.14-0.346-0.345V430.082z"/>
					<path fill="#454547" d="M546.241,453.249c-0.311,0-0.419-0.105-0.519-0.345l-4.048-8.61h-3.142
						c-0.142,0-0.211,0.069-0.211,0.208v8.402c0,0.205-0.139,0.345-0.345,0.345h-4.39c-0.209,0-0.349-0.14-0.349-0.345v-22.822
						c0-0.206,0.14-0.346,0.349-0.346h9.37c4.801,0,7.984,3.009,7.984,7.295c0,3.01-1.589,5.398-4.182,6.537l4.632,9.268
						c0.101,0.207,0,0.413-0.244,0.413H546.241z M545.859,437.031c0-1.759-1.241-2.901-3.178-2.901h-4.148
						c-0.142,0-0.211,0.067-0.211,0.206v5.428c0,0.139,0.069,0.21,0.211,0.21h4.148C544.618,439.974,545.859,438.83,545.859,437.031
						z"/>
				</g>
				<g>
					<g>
						<path fill="#454547" d="M292.528,435.966c-3.989,0-7.396,3.088-7.982,6.915c-0.637,3.833,1.782,6.919,5.803,6.919
							c3.962,0,7.394-3.086,8.035-6.919C298.967,439.054,296.52,435.966,292.528,435.966z M293.859,442.881
							c-0.559,3.992-1.623,6.387-3.297,6.387c-1.68,0-2.05-2.395-1.491-6.387c0.559-3.989,1.592-6.385,3.271-6.385
							C294.021,436.496,294.418,438.892,293.859,442.881z"/>
					</g>
					<g>
						<path fill="#454547" d="M311.364,429.05c-1.971,0-6.306,3.562-7.662,7.179l-2.077,0.134v0.778h1.942l-1.758,12.396
							c-0.531,3.987,2.132,8.378-1.755,4.653c-1.86-1.754-3.831,2.526-0.509,2.526c4.606,0,6.229-4.815,6.683-8.245l1.597-11.33
							h3.395l0.163-0.912h-3.426c0.187-6.515-0.797-5.346,2.686-3.989C312.613,433.012,314.29,429.05,311.364,429.05z"/>
					</g>
				</g>
			</g>
			<g>
				<g>
					<g>
						<path fill="#454547" d="M395.164,308.099c-14.104-10.185-35.674-16.032-59.182-16.032c-23.519,0-45.09,5.848-59.188,16.032
							c-0.028,0.023-0.047,0.056-0.053,0.093c-0.006,0.033,0.003,0.07,0.024,0.1l3.381,4.569c0.024,0.037,0.068,0.056,0.107,0.056
							c0.029,0,0.057-0.011,0.079-0.026c12.934-9.308,33.735-14.864,55.649-14.864c21.902,0,42.704,5.557,55.641,14.864
							c0.059,0.043,0.144,0.031,0.189-0.029l3.381-4.569c0.022-0.029,0.029-0.066,0.026-0.1
							C395.213,308.154,395.193,308.122,395.164,308.099z"/>
					</g>
					<g>
						<path fill="#454547" d="M289.271,268.09c0.016,0.034,0.042,0.058,0.076,0.07c0.031,0.011,0.071,0.011,0.104-0.004l7.705-3.47
							v24.964c0,0.045,0.02,0.084,0.055,0.109c0.036,0.027,0.085,0.033,0.124,0.02c1.939-0.643,3.621-1.151,5.283-1.601
							c0.06-0.017,0.102-0.071,0.102-0.131v-25.869l33.263-14.979l33.255,14.979v25.869c0,0.06,0.042,0.114,0.101,0.131
							c1.666,0.449,3.346,0.96,5.288,1.601c0.013,0.005,0.026,0.007,0.042,0.007c0.026,0,0.056-0.007,0.079-0.025
							c0.034-0.024,0.056-0.064,0.056-0.11v-24.964l7.71,3.47c0.032,0.015,0.071,0.015,0.103,0.004
							c0.035-0.013,0.062-0.036,0.076-0.07l2.172-4.825c0.029-0.068,0-0.147-0.068-0.179l-23.688-10.67V232.23l5.129,2.311
							c0.032,0.012,0.07,0.014,0.104,0.005c0.033-0.015,0.062-0.038,0.075-0.074l2.174-4.823c0.029-0.068,0-0.148-0.068-0.18
							l-29.76-13.404v-16.758h7.993c0.052,0,0.098-0.031,0.121-0.076c0.021-0.044,0.02-0.1-0.014-0.139l-2.488-3.35l2.488-3.123
							c0.033-0.042,0.035-0.098,0.014-0.145c-0.023-0.046-0.069-0.076-0.121-0.076h-13.422c-0.075,0-0.136,0.059-0.136,0.136v23.53
							l-29.758,13.404c-0.068,0.031-0.1,0.111-0.067,0.18l2.171,4.823c0.015,0.036,0.042,0.06,0.078,0.074
							c0.031,0.009,0.068,0.007,0.103-0.005l5.128-2.311v20.186l-23.683,10.67c-0.07,0.029-0.1,0.11-0.067,0.179L289.271,268.09z
							 M316.422,249.904v-20.181l19.561-8.81l19.555,8.81v20.181l-19.5-8.779c-0.034-0.016-0.076-0.016-0.111,0L316.422,249.904z"/>
					</g>
				</g>
				<path fill="#454547" d="M335.98,146.773c-62.128,0-112.674,50.545-112.674,112.672c0,62.128,50.546,112.672,112.674,112.672
					c62.13,0,112.674-50.544,112.674-112.672C448.654,197.318,398.11,146.773,335.98,146.773z M335.98,366.4
					c-58.976,0-106.957-47.98-106.957-106.955c0-58.973,47.981-106.956,106.957-106.956s106.957,47.983,106.957,106.956
					C442.938,318.42,394.956,366.4,335.98,366.4z"/>
			</g>
		</g>
	</g>
</g>
<g>
</g>
<g>
</g>
<g>
</g>
<g>
</g>
<g>
</g>
<g>
</g>
<g>
</g>
<g>
</g>
<g>
</g>
<g>
</g>
<g>
</g>
<g>
</g>
<g>
</g>
<g>
</g>
<g>
</g>
</svg>
