<?xml version="1.0" encoding="utf-8"?>
<!-- Generator: Adobe Illustrator 16.0.0, SVG Export Plug-In . SVG Version: 6.00 Build 0)  -->
<!DOCTYPE svg PUBLIC "-//W3C//DTD SVG 1.1//EN" "http://www.w3.org/Graphics/SVG/1.1/DTD/svg11.dtd">
<svg version="1.1" id="Layer_1" xmlns="http://www.w3.org/2000/svg" xmlns:xlink="http://www.w3.org/1999/xlink" x="0px" y="0px"
	 width="398.9px" height="63px" viewBox="0 0 398.9 63" enable-background="new 0 0 398.9 63" xml:space="preserve">
<g>
	<path fill="#FFFFFF" d="M1.1,40.4C0.4,38.2,0,35.4,0,31.7s0.4-6.4,1.1-8.6c2-6.2,7.4-9.6,14.4-9.6c5.2,0,9.3,2.1,12.1,5.4
		c0.2,0.3,0.3,0.7-0.1,1l-4.6,4c-0.4,0.3-0.7,0.2-1-0.1c-1.7-2-3.5-3-6.4-3c-3.1,0-5.5,1.5-6.5,4.6c-0.6,1.7-0.7,3.8-0.7,6.4
		s0.1,4.8,0.7,6.5c1,3,3.4,4.5,6.5,4.5c2.9,0,4.7-1.1,6.4-3c0.3-0.4,0.7-0.4,1-0.1l4.6,4c0.4,0.3,0.3,0.7,0.1,1
		c-2.7,3.3-6.9,5.4-12.1,5.4C8.5,50,3.1,46.6,1.1,40.4z"/>
	<path fill="#FFFFFF" d="M57.6,49.2c-0.4,0-0.7-0.3-0.7-0.7V28.3c0-4.5-2.2-7.6-6.6-7.6c-4.2,0-6.7,3.1-6.7,7.6v20.1
		c0,0.4-0.3,0.7-0.7,0.7h-6.7c-0.4,0-0.7-0.3-0.7-0.7V0.7c0-0.4,0.3-0.7,0.7-0.7h6.7c0.4,0,0.7,0.3,0.7,0.7v16.8h0.1
		c1.5-2.2,4.6-4,9.2-4c7.4,0,12.1,5.5,12.1,12.9v22c0,0.4-0.3,0.7-0.7,0.7H57.6z"/>
	<path fill="#FFFFFF" d="M95.2,49.2c-0.4,0-0.7-0.3-0.7-0.7v-2.5h-0.1c-1.7,2.4-4.9,4-9.8,4c-6.4,0-11.7-3.3-11.7-10.6
		c0-7.6,5.4-11.1,14-11.1h7.1c0.3,0,0.4-0.1,0.4-0.4v-1.7c0-4-1.9-5.8-7.7-5.8c-3.9,0-6.3,1.1-8,2.4c-0.4,0.3-0.8,0.2-1-0.1
		l-2.7-4.8c-0.2-0.4-0.1-0.7,0.1-0.9c2.8-2,6.7-3.4,12.4-3.4c10.6,0,14.5,3.6,14.5,12.1v22.8c0,0.4-0.3,0.7-0.7,0.7H95.2z
		 M94.3,37.5v-2.7c0-0.3-0.1-0.4-0.4-0.4h-5.8c-5.2,0-7.5,1.4-7.5,4.7c0,2.9,2.1,4.3,6,4.3C91.5,43.4,94.3,41.4,94.3,37.5z"/>
	<path fill="#FFFFFF" d="M112.2,49.2c-0.4,0-0.7-0.3-0.7-0.7V15c0-0.4,0.3-0.7,0.7-0.7h6.7c0.4,0,0.7,0.3,0.7,0.7v3h0.1
		c1.7-2.7,4.6-4.5,9-4.5c2.7,0,5.5,1.1,7.3,2.9c0.4,0.4,0.4,0.7,0.1,1l-3.8,4.8c-0.3,0.4-0.7,0.4-1,0.1c-1.6-1-3.3-1.7-5.1-1.7
		c-4.6,0-6.6,3.3-6.6,8.8v18.9c0,0.4-0.3,0.7-0.7,0.7H112.2z"/>
	<path fill="#FFFFFF" d="M160.8,49.2c-0.4,0-0.7-0.3-0.7-0.7v-2.5H160c-1.7,2.4-4.9,4-9.8,4c-6.4,0-11.7-3.3-11.7-10.6
		c0-7.6,5.4-11.1,14-11.1h7.1c0.3,0,0.4-0.1,0.4-0.4v-1.7c0-4-1.9-5.8-7.7-5.8c-3.9,0-6.3,1.1-8,2.4c-0.4,0.3-0.8,0.2-1-0.1
		l-2.7-4.8c-0.2-0.4-0.1-0.7,0.1-0.9c2.8-2,6.7-3.4,12.4-3.4c10.6,0,14.5,3.6,14.5,12.1v22.8c0,0.4-0.3,0.7-0.7,0.7H160.8z
		 M159.9,37.5v-2.7c0-0.3-0.1-0.4-0.4-0.4h-5.8c-5.2,0-7.5,1.4-7.5,4.7c0,2.9,2.1,4.3,6,4.3C157.2,43.4,159.9,41.4,159.9,37.5z"/>
	<path fill="#FFFFFF" d="M176.4,40.4c-0.7-2.2-1.1-4.9-1.1-8.6s0.4-6.4,1.1-8.6c2-6.2,7.4-9.6,14.4-9.6c5.2,0,9.3,2.1,12.1,5.4
		c0.2,0.3,0.3,0.7-0.1,1l-4.6,4c-0.4,0.3-0.7,0.2-1-0.1c-1.7-2-3.5-3-6.4-3c-3.1,0-5.5,1.5-6.5,4.6c-0.6,1.7-0.7,3.8-0.7,6.4
		s0.1,4.8,0.7,6.5c1,3,3.4,4.5,6.5,4.5c2.9,0,4.7-1.1,6.4-3c0.3-0.4,0.7-0.4,1-0.1l4.6,4c0.4,0.3,0.3,0.7,0.1,1
		c-2.7,3.3-6.9,5.4-12.1,5.4C183.7,50,178.4,46.6,176.4,40.4z"/>
	<path fill="#FFFFFF" d="M231.4,40.3c-0.7-2.2-1.2-4.9-1.2-8.5s0.4-6.4,1.2-8.6c2-6.1,7.3-9.6,14.2-9.6c7.2,0,12.4,3.7,14.3,9.6
		c0.8,2.5,1.2,4.8,1.2,10.5c0,0.4-0.3,0.7-0.8,0.7h-21.5c-0.3,0-0.4,0.1-0.4,0.4c0,1,0.2,1.9,0.5,2.7c1.2,3.4,3.9,5.3,7.8,5.3
		c3.9,0,6.4-1.4,8.2-3.3c0.4-0.4,0.7-0.4,1.1-0.1l4.3,3.8c0.4,0.3,0.4,0.6,0.1,1c-3,3.5-7.9,5.9-14.3,5.9
		C238.5,50,233.3,46.4,231.4,40.3z M252.4,24.9c-0.9-2.8-3.5-4.5-6.8-4.5c-3.3,0-5.9,1.7-6.9,4.5c-0.3,0.9-0.4,1.7-0.4,3
		c0,0.3,0.1,0.4,0.4,0.4h13.7c0.3,0,0.4-0.1,0.4-0.4C252.8,26.6,252.7,25.7,252.4,24.9z"/>
	<path fill="#FFFFFF" d="M269.7,49.2c-0.4,0-0.7-0.3-0.7-0.7V15c0-0.4,0.3-0.7,0.7-0.7h6.7c0.4,0,0.7,0.3,0.7,0.7v3h0.1
		c1.7-2.7,4.6-4.5,9-4.5c2.7,0,5.5,1.1,7.3,2.9c0.4,0.4,0.4,0.7,0.1,1l-3.8,4.8c-0.3,0.4-0.7,0.4-1,0.1c-1.6-1-3.3-1.7-5.1-1.7
		c-4.6,0-6.6,3.3-6.6,8.8v18.9c0,0.4-0.3,0.7-0.7,0.7H269.7z"/>
	<path fill="#FFFFFF" d="M303.7,40.4c-0.8-2.5-1.2-4.8-1.2-8.6s0.4-6.1,1.2-8.6c2-6.1,7.3-9.6,14.4-9.6c7,0,12.4,3.5,14.3,9.6
		c0.8,2.5,1.2,4.8,1.2,8.6s-0.4,6.1-1.2,8.6c-2,6.1-7.3,9.6-14.3,9.6C311,50,305.6,46.4,303.7,40.4z M324.6,38.2
		c0.6-1.8,0.7-3.5,0.7-6.4s-0.1-4.6-0.7-6.4c-1-2.9-3.3-4.6-6.5-4.6s-5.6,1.7-6.6,4.6c-0.6,1.9-0.7,3.5-0.7,6.4s0.1,4.6,0.7,6.4
		c1,2.9,3.3,4.6,6.6,4.6S323.6,41.1,324.6,38.2z"/>
	<path fill="#FFFFFF" d="M342.2,49.2c-0.4,0-0.7-0.3-0.7-0.7V15c0-0.4,0.3-0.7,0.7-0.7h6.7c0.4,0,0.7,0.3,0.7,0.7v3h0.1
		c1.7-2.7,4.6-4.5,9-4.5c2.7,0,5.5,1.1,7.3,2.9c0.4,0.4,0.4,0.7,0.1,1l-3.8,4.8c-0.3,0.4-0.7,0.4-1,0.1c-1.6-1-3.3-1.7-5.1-1.7
		c-4.6,0-6.6,3.3-6.6,8.8v18.9c0,0.4-0.3,0.7-0.7,0.7H342.2z"/>
	<path fill="#FFFFFF" d="M370,57.8c-0.3-0.4-0.3-0.7,0.1-1l4.3-4.3c0.4-0.4,0.7-0.4,1.1,0c2.2,2.1,4.7,3.3,7.6,3.3
		c5.4,0,7.8-2.9,7.8-8.3v-3.3h-0.1c-1.6,2.5-4.6,4-9,4c-5.9,0-10.1-3-11.9-8.5c-0.9-2.7-1.2-5.1-1.2-8.9c0-3.8,0.3-6.1,1.2-8.8
		c1.8-5.6,6-8.5,11.9-8.5c4.5,0,7.4,1.6,9,4.1h0.1V15c0-0.4,0.3-0.7,0.7-0.7h6.7c0.4,0,0.7,0.3,0.7,0.7v32c0,10-5.6,16-16.3,16
		C377.8,63,372.6,61,370,57.8z M390,36.6c0.6-1.6,0.8-3.3,0.8-5.7c0-2.3-0.2-4-0.8-5.7c-0.9-2.8-2.9-4.4-6.2-4.4
		c-3.3,0-5.2,1.6-6.1,4.4c-0.6,1.7-0.8,3.4-0.8,5.7c0,2.4,0.2,4.1,0.8,5.7c0.9,2.9,2.9,4.5,6.1,4.5C387.1,41.1,389.1,39.5,390,36.6z
		"/>
	<circle fill="#FFFFFF" cx="292.6" cy="45.2" r="4.8"/>
	<path fill="#FFFFFF" d="M217.3,20.6h7.2c0.4,0,0.7-0.3,0.7-0.7V15c0-0.4-0.3-0.7-0.7-0.7h-7.2c-0.3,0-0.4-0.1-0.4-0.4V4.3
		c0-0.4-0.3-0.7-0.7-0.7h-6.7c-0.4,0-0.7,0.3-0.7,0.7v9.5V21v12.9v5.5c0,6.8,2.7,10.2,9.7,10.2h3.5c0.4,0,0.7-0.3,0.7-0.7v-5.8
		c0-0.4-0.3-0.7-0.7-0.7h-1.8c-2.2,0-3.3-0.8-3.3-3.3V21C216.9,20.8,217,20.6,217.3,20.6z"/>
</g>
</svg>
