<?xml version="1.0" encoding="utf-8"?>
<!-- Generator: Adobe Illustrator 16.0.0, SVG Export Plug-In . SVG Version: 6.00 Build 0)  -->
<!DOCTYPE svg PUBLIC "-//W3C//DTD SVG 1.1//EN" "http://www.w3.org/Graphics/SVG/1.1/DTD/svg11.dtd">
<svg version="1.1" id="Layer_1" xmlns="http://www.w3.org/2000/svg" xmlns:xlink="http://www.w3.org/1999/xlink" x="0px" y="0px"
	 width="680px" height="306px" viewBox="0 0 680 306" enable-background="new 0 0 680 306" xml:space="preserve">
<g>
	<rect x="340" fill="#AA243B" width="340" height="306"/>
	<g>
		<g>
			<g>
				<g>
					<g>
						<path fill="#681E2D" d="M535.584,179.392c-6.098-4.402-15.422-6.929-25.584-6.929c-10.165,0-19.49,2.526-25.584,6.929
							c-0.013,0.01-0.021,0.024-0.023,0.039c-0.002,0.016,0.002,0.03,0.011,0.043l1.462,1.977c0.011,0.015,0.029,0.023,0.046,0.023
							c0.013,0,0.024-0.005,0.034-0.011c5.592-4.024,14.582-6.425,24.055-6.425c9.469,0,18.461,2.4,24.053,6.425
							c0.025,0.018,0.062,0.013,0.082-0.013l1.462-1.977c0.009-0.013,0.012-0.027,0.011-0.043
							C535.605,179.416,535.597,179.401,535.584,179.392z"/>
					</g>
				</g>
				<g>
					<g>
						<path fill="#681E2D" d="M489.809,162.097c0.008,0.016,0.02,0.026,0.033,0.03c0.015,0.006,0.031,0.006,0.046-0.002l3.33-1.499
							v10.791c0,0.019,0.009,0.035,0.023,0.047c0.015,0.013,0.036,0.015,0.054,0.009c0.838-0.278,1.565-0.498,2.284-0.692
							c0.026-0.007,0.043-0.03,0.043-0.057v-11.182L510,153.066l14.376,6.476v11.182c0,0.026,0.019,0.05,0.043,0.057
							c0.721,0.194,1.446,0.415,2.286,0.692c0.006,0.001,0.012,0.002,0.012,0.002c0.018,0,0.03-0.002,0.041-0.01
							c0.016-0.011,0.023-0.029,0.023-0.048v-10.791l3.334,1.499c0.014,0.008,0.029,0.008,0.043,0.002
							c0.016-0.004,0.027-0.015,0.033-0.03l0.939-2.086c0.013-0.029,0-0.063-0.029-0.077l-10.24-4.612v-8.725l2.217,0.997
							c0.014,0.006,0.031,0.008,0.045,0.003c0.014-0.006,0.027-0.016,0.033-0.031l0.939-2.085c0.013-0.03,0-0.064-0.03-0.078
							l-12.863-5.794v-7.244h3.454c0.023,0,0.043-0.014,0.053-0.033s0.009-0.043-0.005-0.06l-1.076-1.449l1.076-1.348
							c0.014-0.019,0.015-0.043,0.005-0.064c-0.01-0.019-0.029-0.033-0.053-0.033h-5.801c-0.033,0-0.059,0.026-0.059,0.06v10.172
							l-12.863,5.794c-0.029,0.014-0.043,0.048-0.029,0.078l0.938,2.085c0.007,0.016,0.02,0.025,0.034,0.031
							c0.014,0.005,0.03,0.003,0.044-0.003l2.217-0.997v8.725l-10.236,4.612c-0.031,0.014-0.044,0.048-0.029,0.077L489.809,162.097z
							 M501.545,154.236v-8.724l8.455-3.809l8.454,3.809v8.724l-8.43-3.795c-0.015-0.007-0.032-0.007-0.048,0L501.545,154.236z"/>
					</g>
				</g>
			</g>
			<g>
				<path fill="#681E2D" d="M510,108.487c-26.856,0-48.705,21.849-48.705,48.705s21.849,48.705,48.705,48.705
					s48.705-21.849,48.705-48.705S536.856,108.487,510,108.487z M510,203.426c-25.494,0-46.234-20.74-46.234-46.233
					S484.506,110.96,510,110.96s46.234,20.739,46.234,46.232S535.494,203.426,510,203.426z"/>
			</g>
		</g>
		<g>
			<g>
				<path fill="#681E2D" d="M510,239.77c-45.534,0-82.577-37.044-82.577-82.577S464.466,74.615,510,74.615
					s82.577,37.044,82.577,82.577S555.534,239.77,510,239.77z M510,76.928c-44.258,0-80.266,36.007-80.266,80.265
					s36.008,80.266,80.266,80.266s80.266-36.008,80.266-80.266S554.258,76.928,510,76.928z"/>
			</g>
		</g>
		<g>
			<g>
				<path fill="#681E2D" d="M448.957,162.628c-0.047,0.064-0.133,0.08-0.197,0.02l-1.35-1.062c-0.062-0.049-0.065-0.121-0.018-0.173
					c0.426-0.522,0.791-1.327,0.76-2.166c-0.029-0.778-0.365-1.174-0.834-1.156c-0.358,0.014-0.583,0.256-0.664,1.087l-0.045,0.447
					c-0.193,1.824-0.972,2.843-2.538,2.9c-1.569,0.058-2.663-1.126-2.733-3.026c-0.043-1.161,0.275-2.261,0.815-3.035
					c0.048-0.063,0.108-0.078,0.184-0.031l1.381,0.877c0.063,0.047,0.078,0.107,0.043,0.171c-0.373,0.606-0.585,1.246-0.56,1.911
					c0.023,0.618,0.33,0.915,0.736,0.901c0.371-0.015,0.597-0.294,0.665-1.101l0.046-0.447c0.191-1.849,0.971-2.816,2.563-2.876
					c1.555-0.058,2.735,1.087,2.817,3.333C450.082,160.572,449.552,161.977,448.957,162.628z"/>
				<path fill="#681E2D" d="M445.961,149.754c-1.232-0.197-1.674-0.331-2.205-0.603c-1.284-0.654-1.81-1.839-1.57-3.339
					c0.234-1.464,1.096-2.402,2.365-2.677c0.09-0.022,0.139-0.002,0.161,0.09l0.449,1.733c0.023,0.093-0.009,0.138-0.101,0.159
					c-0.524,0.154-0.863,0.4-0.954,0.962c-0.083,0.525,0.12,0.895,0.561,1.114c0.243,0.127,0.493,0.205,1.641,0.388
					c1.146,0.183,1.407,0.187,1.678,0.142c0.487-0.072,0.796-0.36,0.88-0.885c0.089-0.562-0.156-0.9-0.609-1.211
					c-0.078-0.05-0.095-0.103-0.045-0.182l0.966-1.512c0.051-0.078,0.101-0.083,0.181-0.033c1.121,0.654,1.65,1.814,1.417,3.278
					c-0.239,1.501-1.106,2.463-2.53,2.687C447.654,149.96,447.193,149.949,445.961,149.754z"/>
				<path fill="#681E2D" d="M444.756,135.938c-0.069-0.025-0.099-0.089-0.072-0.158l0.681-1.803c0.026-0.069,0.091-0.099,0.16-0.072
					l2.784,1.052c0.047,0.018,0.077,0.004,0.096-0.043l0.807-2.138c0.018-0.046,0.004-0.077-0.043-0.095l-2.785-1.053
					c-0.068-0.025-0.098-0.09-0.071-0.158l0.681-1.804c0.026-0.069,0.09-0.098,0.16-0.071l7.625,2.88
					c0.07,0.026,0.099,0.09,0.072,0.159l-0.681,1.803c-0.026,0.07-0.091,0.098-0.159,0.072l-2.9-1.096
					c-0.046-0.017-0.078-0.004-0.096,0.043l-0.807,2.137c-0.018,0.048-0.004,0.08,0.043,0.097l2.9,1.095
					c0.069,0.027,0.098,0.09,0.071,0.159l-0.681,1.804c-0.026,0.069-0.09,0.097-0.159,0.071L444.756,135.938z"/>
				<path fill="#681E2D" d="M455.959,126.198c-0.648-0.179-1.09-0.403-2.059-1.021c-0.968-0.617-1.358-0.924-1.793-1.438
					c-0.916-1.113-0.842-2.515-0.043-3.764c0.797-1.25,2.039-1.907,3.433-1.545c0.655,0.168,1.091,0.403,2.06,1.021
					c0.968,0.618,1.363,0.915,1.793,1.438c0.915,1.112,0.84,2.516,0.043,3.764C458.595,125.903,457.354,126.562,455.959,126.198z
					 M457.713,122.307c-0.188-0.236-0.496-0.463-1.34-1.001c-0.844-0.54-1.18-0.725-1.471-0.795
					c-0.477-0.127-0.912,0.049-1.204,0.508c-0.292,0.458-0.269,0.927,0.046,1.305c0.187,0.236,0.496,0.463,1.34,1.001
					s1.179,0.724,1.471,0.793c0.477,0.128,0.911-0.049,1.203-0.505C458.051,123.153,458.027,122.684,457.713,122.307z"/>
				<path fill="#681E2D" d="M463.305,115.901c-0.596-0.307-0.985-0.615-1.809-1.416c-0.823-0.8-1.143-1.18-1.465-1.77
					c-0.674-1.273-0.315-2.633,0.718-3.695c1.032-1.062,2.382-1.455,3.674-0.819c0.606,0.299,0.987,0.615,1.81,1.417
					c0.823,0.801,1.152,1.172,1.466,1.771c0.672,1.274,0.315,2.633-0.719,3.693C465.947,116.146,464.599,116.539,463.305,115.901z
					 M465.809,112.445c-0.135-0.27-0.393-0.554-1.109-1.252c-0.717-0.697-1.008-0.946-1.28-1.074c-0.44-0.22-0.901-0.137-1.28,0.253
					c-0.379,0.391-0.451,0.854-0.219,1.287c0.135,0.27,0.393,0.555,1.109,1.251c0.717,0.698,1.008,0.947,1.281,1.074
					c0.439,0.222,0.9,0.137,1.28-0.254C465.969,113.343,466.042,112.878,465.809,112.445z"/>
				<path fill="#681E2D" d="M468.951,102.095c-0.042-0.062-0.029-0.131,0.032-0.174l1.585-1.093c0.062-0.042,0.13-0.028,0.173,0.032
					l3.561,5.166c0.028,0.041,0.062,0.048,0.103,0.02l2.93-2.02c0.061-0.042,0.129-0.029,0.172,0.031l0.953,1.384
					c0.042,0.06,0.029,0.129-0.031,0.172l-4.679,3.224c-0.062,0.042-0.13,0.03-0.172-0.031L468.951,102.095z"/>
				<path fill="#681E2D" d="M488.571,94.759c1.544-0.553,2.918,0.302,3.224,1.862c0.283,1.571-0.615,3.241-2.147,3.79
					c-1.554,0.557-2.917-0.3-3.202-1.87C486.141,96.979,487.029,95.313,488.571,94.759z M489.656,100.177
					c0.646-0.234,0.727-1.308,0.389-2.928c-0.338-1.619-0.822-2.49-1.471-2.259c-0.648,0.234-0.719,1.303-0.379,2.924
					C488.531,99.534,489.008,100.407,489.656,100.177z"/>
				<path fill="#681E2D" d="M493.602,93.592l-0.529,0.133l-0.02-0.165l0.528-0.189c0.176-1.577,1.545-3.433,2.329-3.631
					c1.166-0.294,0.896,1.454,0.035,1.344c-1.525-0.189-1.25-0.756-0.67,1.859l1.061-0.266l0.021,0.219l-1.061,0.267l0.52,4.83
					c0.166,1.413,0.003,3.493-1.83,3.956c-1.324,0.335-0.971-1.569-0.053-1.058c1.922,1.094,0.421-0.389,0.231-2.03L493.602,93.592z
					"/>
				<path fill="#681E2D" d="M506.818,92.614c-0.02-1.248,0.035-1.705,0.211-2.275c0.422-1.379,1.496-2.102,3.016-2.126
					c1.482-0.024,2.557,0.662,3.047,1.864c0.037,0.087,0.026,0.137-0.061,0.175l-1.631,0.743c-0.086,0.039-0.135,0.015-0.174-0.071
					c-0.243-0.49-0.544-0.782-1.111-0.771c-0.531,0.008-0.861,0.272-1.001,0.745c-0.083,0.26-0.116,0.521-0.097,1.683
					c0.02,1.16,0.061,1.418,0.15,1.677c0.156,0.467,0.494,0.721,1.025,0.712c0.568-0.009,0.859-0.31,1.088-0.809
					c0.033-0.087,0.082-0.112,0.17-0.076l1.654,0.688c0.088,0.036,0.101,0.085,0.064,0.172c-0.448,1.219-1.5,1.94-2.981,1.964
					c-1.519,0.026-2.618-0.659-3.085-2.024C506.908,94.318,506.84,93.863,506.818,92.614z"/>
				<path fill="#681E2D" d="M520.327,89.179c0.015-0.071,0.072-0.11,0.146-0.096l1.889,0.384c0.072,0.013,0.111,0.072,0.097,0.144
					l-0.591,2.918c-0.01,0.048,0.01,0.077,0.059,0.088l2.238,0.452c0.049,0.011,0.078-0.009,0.089-0.058l0.589-2.917
					c0.016-0.072,0.073-0.111,0.146-0.097l1.889,0.382c0.072,0.015,0.11,0.073,0.096,0.146l-1.617,7.989
					c-0.014,0.074-0.072,0.112-0.145,0.097l-1.889-0.382c-0.073-0.015-0.111-0.073-0.098-0.146l0.615-3.039
					c0.01-0.047-0.01-0.077-0.057-0.087l-2.24-0.453c-0.049-0.01-0.078,0.01-0.087,0.058l-0.616,3.039
					c-0.014,0.073-0.072,0.111-0.146,0.096l-1.888-0.381c-0.073-0.015-0.111-0.074-0.096-0.146L520.327,89.179z"/>
				<path fill="#681E2D" d="M536.413,93.763c0.051-0.059,0.116-0.083,0.196-0.049l1.844,0.807c0.079,0.036,0.105,0.102,0.098,0.179
					l-0.67,8.609c-0.007,0.078-0.061,0.107-0.129,0.078l-1.866-0.818c-0.079-0.035-0.104-0.101-0.097-0.178l0.156-1.347l-2.5-1.096
					l-0.883,1.029c-0.052,0.059-0.117,0.083-0.197,0.049l-1.855-0.813c-0.066-0.03-0.081-0.09-0.028-0.147L536.413,93.763z
					 M536.173,99.174l0.337-2.711l-0.033-0.016l-1.799,2.072L536.173,99.174z"/>
				<path fill="#681E2D" d="M546.068,108.755c-0.091-0.064-0.1-0.116-0.08-0.208l0.637-3.071l-0.652-0.467
					c-0.041-0.029-0.075-0.023-0.104,0.017l-1.627,2.27c-0.043,0.061-0.111,0.071-0.172,0.028l-1.566-1.123
					c-0.061-0.043-0.071-0.112-0.028-0.173l4.751-6.627c0.043-0.06,0.111-0.071,0.172-0.028l2.78,1.994
					c1.567,1.123,1.806,2.678,0.884,3.963c-0.611,0.854-1.51,1.258-2.492,1.102l-0.609,3.5c-0.013,0.082-0.086,0.121-0.156,0.07
					L546.068,108.755z M549.281,104.083c0.316-0.443,0.217-0.939-0.285-1.3l-0.943-0.676c-0.04-0.029-0.074-0.024-0.104,0.018
					l-0.95,1.323c-0.028,0.041-0.022,0.075,0.017,0.104l0.944,0.677C548.461,104.588,548.965,104.524,549.281,104.083z"/>
				<path fill="#681E2D" d="M559.725,109.888c0.07-0.032,0.141-0.028,0.199,0.034l1.36,1.486c0.058,0.063,0.054,0.134,0.017,0.202
					l-4.096,7.602c-0.038,0.068-0.099,0.075-0.148,0.02l-1.377-1.504c-0.059-0.062-0.055-0.133-0.017-0.2l0.688-1.169l-1.842-2.013
					l-1.226,0.585c-0.07,0.03-0.14,0.028-0.199-0.037l-1.368-1.493c-0.051-0.055-0.039-0.116,0.033-0.148L559.725,109.888z
					 M557.314,114.74l1.406-2.343l-0.024-0.027l-2.482,1.167L557.314,114.74z"/>
				<path fill="#681E2D" d="M563.469,120.961c1.066-0.646,1.489-0.831,2.071-0.968c1.402-0.33,2.569,0.233,3.356,1.531
					c0.77,1.269,0.719,2.542-0.072,3.571c-0.055,0.076-0.104,0.091-0.18,0.037l-1.465-1.033c-0.078-0.055-0.082-0.11-0.027-0.187
					c0.301-0.458,0.4-0.865,0.105-1.351c-0.275-0.453-0.67-0.604-1.148-0.487c-0.267,0.06-0.508,0.163-1.5,0.766
					c-0.993,0.603-1.195,0.769-1.372,0.977c-0.325,0.371-0.374,0.791-0.099,1.245c0.295,0.485,0.701,0.585,1.247,0.529
					c0.093-0.013,0.14,0.017,0.153,0.109l0.238,1.776c0.014,0.094-0.021,0.13-0.115,0.143c-1.278,0.227-2.432-0.316-3.201-1.584
					c-0.788-1.3-0.75-2.594,0.191-3.685C562.043,121.898,562.402,121.608,563.469,120.961z"/>
				<path fill="#681E2D" d="M566.152,135.27l-0.012-0.034c-0.01-0.023-0.003-0.04,0.012-0.071c0.008-0.016,0.016-0.032,0.039-0.041
					l0.034-0.013l5.888-2.164c0.035-0.013,0.051-0.045,0.049-0.083l-0.005-0.012l-0.712-1.937l-0.013-0.034
					c-0.009-0.024-0.001-0.039,0.007-0.056l0.008-0.016c0,0,0.012-0.004,0.007-0.016c0.019-0.021,0.042-0.029,0.065-0.038
					l1.576-0.579c0.059-0.021,0.117-0.003,0.146,0.038l0.012,0.036l2.225,6.049c0.014,0.036,0.012,0.062-0.004,0.094
					c0,0-0.008,0.017-0.02,0.021c-0.008,0.016-0.027,0.035-0.049,0.043l-1.578,0.581c-0.033,0.014-0.072,0.014-0.104-0.001
					c-0.017-0.007-0.035-0.026-0.044-0.05l-0.008-0.022l-0.713-1.937c-0.01-0.022-0.014-0.034-0.028-0.041
					c-0.004-0.013-0.017-0.009-0.032-0.015l-0.034,0.013l-5.889,2.165l-0.034,0.013c-0.039,0.001-0.056-0.007-0.092-0.032
					c-0.016-0.008-0.023-0.03-0.033-0.055L566.152,135.27z"/>
				<path fill="#681E2D" d="M577.112,143.202c0.074-0.01,0.13,0.03,0.144,0.103l0.876,5.427c0.013,0.072-0.028,0.128-0.103,0.142
					l-1.572,0.254c-0.073,0.011-0.129-0.029-0.142-0.102l-0.538-3.328c-0.008-0.05-0.036-0.07-0.085-0.062l-1.257,0.204
					c-0.048,0.007-0.068,0.035-0.061,0.084l0.441,2.731c0.012,0.072-0.029,0.13-0.102,0.142l-1.537,0.248
					c-0.072,0.012-0.129-0.028-0.141-0.103l-0.441-2.73c-0.009-0.049-0.037-0.069-0.086-0.062l-1.328,0.216
					c-0.05,0.008-0.07,0.036-0.062,0.085l0.538,3.328c0.012,0.073-0.029,0.131-0.103,0.143l-1.572,0.253
					c-0.073,0.012-0.13-0.028-0.142-0.101l-0.877-5.426c-0.014-0.073,0.027-0.131,0.102-0.143L577.112,143.202z"/>
				<path fill="#681E2D" d="M570.074,160.372c0.003-0.111,0.043-0.148,0.13-0.183l2.909-1.17l0.029-0.802
					c0-0.05-0.023-0.075-0.072-0.077l-2.791-0.099c-0.073-0.001-0.121-0.054-0.118-0.129l0.067-1.924
					c0.002-0.075,0.054-0.122,0.127-0.12l8.148,0.288c0.073,0.002,0.121,0.053,0.119,0.127l-0.121,3.419
					c-0.066,1.927-1.229,2.985-2.81,2.93c-1.05-0.037-1.884-0.561-2.297-1.465l-3.251,1.431c-0.076,0.034-0.148-0.005-0.145-0.093
					L570.074,160.372z M575.744,160.459c0.543,0.021,0.902-0.339,0.924-0.955l0.041-1.161c0.002-0.05-0.021-0.075-0.07-0.076
					l-1.631-0.059c-0.05-0.001-0.074,0.022-0.076,0.072l-0.041,1.16C574.868,160.058,575.201,160.44,575.744,160.459z"/>
			</g>
			<g>
				<path fill="#681E2D" d="M497.336,221.562c-0.103,0.078-0.199,0.146-0.29,0.205c-0.091,0.058-0.19,0.123-0.299,0.191
					c-0.107,0.069-0.231,0.144-0.374,0.224s-0.311,0.174-0.504,0.281l2.307,0.501l-0.316,1.46l-4.801-1.041l0.295-1.36l0.301-0.104
					c0.225-0.08,0.416-0.149,0.576-0.212c0.159-0.062,0.303-0.125,0.432-0.19c0.127-0.064,0.25-0.131,0.363-0.2
					c0.114-0.067,0.238-0.14,0.369-0.219c0.141-0.09,0.277-0.182,0.408-0.274c0.13-0.094,0.256-0.193,0.381-0.303
					c0.537-0.438,0.846-0.85,0.93-1.23c0.043-0.197,0.02-0.369-0.069-0.519c-0.089-0.147-0.233-0.243-0.43-0.285
					c-0.252-0.056-0.46-0.011-0.622,0.133c-0.164,0.142-0.297,0.401-0.4,0.779l-1.654-0.359c0.052-0.204,0.102-0.376,0.15-0.519
					c0.048-0.143,0.102-0.268,0.157-0.378c0.055-0.108,0.116-0.209,0.183-0.301c0.066-0.094,0.149-0.187,0.247-0.279
					c0.29-0.286,0.64-0.481,1.048-0.585c0.407-0.104,0.839-0.106,1.295-0.008c0.327,0.069,0.621,0.187,0.883,0.347
					c0.261,0.16,0.475,0.353,0.644,0.579c0.169,0.225,0.285,0.471,0.349,0.737c0.062,0.267,0.063,0.544,0.002,0.831
					c-0.085,0.388-0.254,0.752-0.506,1.092C498.137,220.897,497.786,221.232,497.336,221.562z"/>
				<path fill="#681E2D" d="M503.124,223.83c-0.065-0.165-0.114-0.353-0.146-0.569c-0.031-0.215-0.039-0.412-0.027-0.594
					l0.134-2.022c0.058-0.855,0.419-1.505,1.084-1.949c0.255-0.172,0.532-0.299,0.833-0.386c0.298-0.084,0.59-0.116,0.875-0.098
					c0.243,0.018,0.482,0.07,0.717,0.163c0.236,0.093,0.454,0.212,0.658,0.359c0.202,0.146,0.381,0.317,0.535,0.512
					c0.156,0.196,0.271,0.4,0.348,0.615c0.051,0.156,0.092,0.337,0.121,0.54c0.027,0.207,0.035,0.401,0.021,0.59l-0.133,2.022
					c-0.025,0.37-0.115,0.707-0.268,1.014c-0.154,0.31-0.352,0.57-0.598,0.788c-0.244,0.218-0.527,0.383-0.85,0.494
					c-0.321,0.111-0.663,0.153-1.025,0.131c-0.243-0.018-0.482-0.07-0.717-0.159c-0.234-0.09-0.454-0.203-0.658-0.347
					c-0.203-0.144-0.385-0.31-0.543-0.497C503.328,224.249,503.208,224.046,503.124,223.83z M505.479,223.873
					c0.549,0.037,0.846-0.289,0.893-0.977l0.137-2.035c0.045-0.687-0.207-1.05-0.756-1.086c-0.266-0.017-0.474,0.06-0.629,0.23
					c-0.154,0.171-0.242,0.42-0.264,0.746l-0.137,2.034c-0.021,0.333,0.033,0.595,0.164,0.781
					C505.017,223.753,505.213,223.855,505.479,223.873z"/>
				<path fill="#681E2D" d="M515.604,218.242l0.502,6.954l-1.772,0.127l-0.395-5.453l-1.134,0.084l-0.109-1.502L515.604,218.242z"/>
				<path fill="#681E2D" d="M521.454,221.479l-0.251-3.987l3.769-0.815l0.318,1.472l-2.433,0.526l0.051,0.971
					c0.127-0.105,0.255-0.188,0.383-0.253c0.129-0.062,0.292-0.115,0.49-0.158c0.327-0.071,0.641-0.078,0.941-0.021
					c0.301,0.056,0.574,0.163,0.824,0.322c0.248,0.16,0.46,0.366,0.637,0.62c0.176,0.253,0.298,0.543,0.369,0.87
					c0.076,0.354,0.081,0.694,0.012,1.021c-0.068,0.327-0.195,0.627-0.383,0.899c-0.187,0.271-0.428,0.505-0.721,0.698
					c-0.292,0.196-0.627,0.334-1.002,0.415c-0.333,0.072-0.654,0.094-0.964,0.064c-0.309-0.03-0.595-0.105-0.854-0.228
					c-0.263-0.122-0.496-0.286-0.701-0.494c-0.205-0.21-0.369-0.459-0.487-0.746l1.746-0.377c0.273,0.24,0.573,0.326,0.9,0.255
					c0.122-0.027,0.234-0.076,0.337-0.149c0.103-0.071,0.186-0.155,0.249-0.255c0.064-0.102,0.11-0.211,0.138-0.329
					c0.027-0.12,0.027-0.241,0.002-0.364c-0.057-0.259-0.191-0.455-0.405-0.587s-0.456-0.169-0.729-0.109
					c-0.205,0.043-0.372,0.132-0.504,0.264c-0.132,0.131-0.218,0.305-0.256,0.521L521.454,221.479z"/>
			</g>
		</g>
		<g>
			<g>
				<g>
					<g>
						<g>
							<g>
								<path fill="#681E2D" d="M535.982,214.11c-0.184,0.117-0.285,0.041-0.23-0.168l1.008-3.871
									c0.057-0.21,0.25-0.479,0.434-0.597l3.375-2.148c0.184-0.118,0.286-0.042,0.23,0.169l-1.034,3.852
									c-0.055,0.209-0.248,0.477-0.433,0.596L535.982,214.11z"/>
							</g>
						</g>
						<g>
							<g>
								<path fill="#681E2D" d="M536.562,215.763c-0.194-0.099-0.181-0.227,0.029-0.283l3.858-1.062
									c0.209-0.057,0.537-0.021,0.73,0.078l3.548,1.847c0.192,0.1,0.179,0.229-0.03,0.284l-3.853,1.031
									c-0.209,0.058-0.539,0.021-0.734-0.077L536.562,215.763z"/>
							</g>
						</g>
					</g>
				</g>
				<g>
					<g>
						<g>
							<g>
								<path fill="#681E2D" d="M543.823,210.647c-0.161,0.146-0.274,0.09-0.257-0.127l0.322-3.988
									c0.018-0.216,0.162-0.514,0.322-0.662l2.949-2.701c0.161-0.148,0.275-0.091,0.257,0.126l-0.35,3.973
									c-0.017,0.217-0.16,0.514-0.323,0.662L543.823,210.647z"/>
							</g>
						</g>
						<g>
							<g>
								<path fill="#681E2D" d="M544.681,212.173c-0.208-0.064-0.218-0.191-0.021-0.285l3.615-1.714
									c0.195-0.093,0.525-0.115,0.732-0.052l3.814,1.204c0.207,0.064,0.217,0.194,0.02,0.284l-3.615,1.686
									c-0.196,0.093-0.525,0.116-0.736,0.051L544.681,212.173z"/>
							</g>
						</g>
					</g>
				</g>
				<g>
					<g>
						<g>
							<g>
								<path fill="#681E2D" d="M550.5,205.745c-0.131,0.173-0.254,0.136-0.275-0.08l-0.375-3.984
									c-0.02-0.215,0.07-0.533,0.203-0.707l2.436-3.173c0.133-0.172,0.256-0.138,0.275,0.079l0.346,3.974
									c0.02,0.217-0.07,0.533-0.203,0.708L550.5,205.745z"/>
							</g>
						</g>
						<g>
							<g>
								<path fill="#681E2D" d="M551.609,207.101c-0.215-0.027-0.248-0.152-0.069-0.276l3.263-2.318
									c0.176-0.125,0.497-0.204,0.713-0.176l3.966,0.521c0.215,0.029,0.247,0.154,0.067,0.276l-3.268,2.288
									c-0.177,0.125-0.498,0.206-0.715,0.178L551.609,207.101z"/>
							</g>
						</g>
					</g>
				</g>
				<g>
					<g>
						<g>
							<g>
								<path fill="#681E2D" d="M557.095,199.92c-0.101,0.192-0.228,0.179-0.285-0.03l-1.062-3.859
									c-0.057-0.207-0.023-0.538,0.076-0.73l1.849-3.549c0.101-0.193,0.228-0.181,0.284,0.03l1.031,3.853
									c0.057,0.211,0.023,0.537-0.078,0.732L557.095,199.92z"/>
							</g>
						</g>
						<g>
							<g>
								<path fill="#681E2D" d="M558.424,201.062c-0.219,0.01-0.271-0.106-0.119-0.261l2.811-2.848
									c0.152-0.153,0.455-0.29,0.672-0.299l3.997-0.175c0.216-0.009,0.269,0.108,0.114,0.261l-2.82,2.82
									c-0.152,0.154-0.456,0.287-0.675,0.299L558.424,201.062z"/>
							</g>
						</g>
					</g>
				</g>
				<g>
					<g>
						<g>
							<g>
								<path fill="#681E2D" d="M561.701,193.641c-0.066,0.208-0.193,0.217-0.285,0.021l-1.716-3.615
									c-0.092-0.196-0.116-0.525-0.052-0.733l1.203-3.816c0.066-0.209,0.193-0.215,0.287-0.018l1.684,3.615
									c0.092,0.195,0.116,0.524,0.049,0.732L561.701,193.641z"/>
							</g>
						</g>
						<g>
							<g>
								<path fill="#681E2D" d="M563.207,194.535c-0.212,0.049-0.283-0.058-0.16-0.237l2.273-3.293
									c0.123-0.177,0.396-0.362,0.609-0.409l3.904-0.866c0.213-0.047,0.285,0.061,0.159,0.236l-2.288,3.268
									c-0.124,0.179-0.398,0.362-0.611,0.412L563.207,194.535z"/>
							</g>
						</g>
					</g>
				</g>
				<g>
					<g>
						<g>
							<g>
								<path fill="#681E2D" d="M565.303,186.104c-0.049,0.212-0.174,0.229-0.283,0.042l-1.997-3.468
									c-0.108-0.188-0.158-0.515-0.11-0.727l0.896-3.899c0.049-0.213,0.177-0.23,0.283-0.041l1.967,3.469
									c0.107,0.188,0.157,0.515,0.109,0.729L565.303,186.104z"/>
							</g>
						</g>
						<g>
							<g>
								<path fill="#681E2D" d="M566.875,186.875c-0.208,0.065-0.287-0.035-0.178-0.223l2.004-3.464
									c0.109-0.187,0.366-0.394,0.574-0.457l3.824-1.173c0.207-0.063,0.289,0.037,0.178,0.224l-2.021,3.439
									c-0.11,0.186-0.369,0.392-0.577,0.457L566.875,186.875z"/>
							</g>
						</g>
						<g>
							<g>
								<path fill="#681E2D" d="M568.616,180.07c-0.152,0.155-0.269,0.106-0.264-0.109l0.078-4.002
									c0.007-0.216,0.132-0.522,0.282-0.679l2.779-2.877c0.152-0.157,0.271-0.105,0.266,0.11l-0.107,3.988
									c-0.006,0.217-0.131,0.521-0.283,0.679L568.616,180.07z"/>
							</g>
						</g>
					</g>
				</g>
			</g>
			<g>
				<g>
					<g>
						<g>
							<g>
								<path fill="#681E2D" d="M482.742,214.11c0.184,0.117,0.285,0.041,0.23-0.168l-1.008-3.871
									c-0.056-0.21-0.25-0.479-0.433-0.597l-3.375-2.148c-0.184-0.118-0.286-0.042-0.231,0.169l1.035,3.852
									c0.055,0.209,0.247,0.477,0.433,0.596L482.742,214.11z"/>
							</g>
						</g>
						<g>
							<g>
								<path fill="#681E2D" d="M482.163,215.763c0.194-0.099,0.181-0.227-0.028-0.283l-3.859-1.062
									c-0.207-0.057-0.536-0.021-0.729,0.078l-3.548,1.847c-0.193,0.1-0.18,0.229,0.03,0.284l3.853,1.031
									c0.209,0.058,0.539,0.021,0.734-0.077L482.163,215.763z"/>
							</g>
						</g>
					</g>
				</g>
				<g>
					<g>
						<g>
							<g>
								<path fill="#681E2D" d="M474.902,210.647c0.16,0.146,0.273,0.09,0.257-0.127l-0.323-3.988
									c-0.018-0.216-0.16-0.514-0.322-0.662l-2.949-2.701c-0.161-0.148-0.274-0.091-0.256,0.126l0.349,3.973
									c0.017,0.217,0.161,0.514,0.323,0.662L474.902,210.647z"/>
							</g>
						</g>
						<g>
							<g>
								<path fill="#681E2D" d="M474.045,212.173c0.209-0.064,0.217-0.191,0.02-0.285l-3.615-1.714
									c-0.195-0.093-0.524-0.115-0.732-0.052l-3.814,1.204c-0.207,0.064-0.217,0.194-0.02,0.284l3.615,1.686
									c0.196,0.093,0.526,0.116,0.736,0.051L474.045,212.173z"/>
							</g>
						</g>
					</g>
				</g>
				<g>
					<g>
						<g>
							<g>
								<path fill="#681E2D" d="M468.225,205.745c0.133,0.173,0.255,0.136,0.275-0.08l0.375-3.984
									c0.021-0.215-0.07-0.533-0.203-0.707l-2.436-3.173c-0.133-0.172-0.254-0.138-0.275,0.079l-0.346,3.974
									c-0.02,0.217,0.07,0.533,0.205,0.708L468.225,205.745z"/>
							</g>
						</g>
						<g>
							<g>
								<path fill="#681E2D" d="M467.115,207.101c0.217-0.027,0.248-0.152,0.07-0.276l-3.264-2.318
									c-0.176-0.125-0.496-0.204-0.712-0.176l-3.967,0.521c-0.214,0.029-0.245,0.154-0.067,0.276l3.268,2.288
									c0.178,0.125,0.499,0.206,0.715,0.178L467.115,207.101z"/>
							</g>
						</g>
					</g>
				</g>
				<g>
					<g>
						<g>
							<g>
								<path fill="#681E2D" d="M461.631,199.92c0.101,0.192,0.227,0.179,0.285-0.03l1.062-3.859
									c0.057-0.207,0.022-0.538-0.077-0.73l-1.848-3.549c-0.101-0.193-0.228-0.181-0.285,0.03l-1.03,3.853
									c-0.057,0.211-0.023,0.537,0.077,0.732L461.631,199.92z"/>
							</g>
						</g>
						<g>
							<g>
								<path fill="#681E2D" d="M460.303,201.062c0.218,0.01,0.271-0.106,0.117-0.261l-2.81-2.848
									c-0.153-0.153-0.456-0.29-0.671-0.299l-3.998-0.175c-0.216-0.009-0.27,0.108-0.114,0.261l2.82,2.82
									c0.152,0.154,0.455,0.287,0.675,0.299L460.303,201.062z"/>
							</g>
						</g>
					</g>
				</g>
				<g>
					<g>
						<g>
							<g>
								<path fill="#681E2D" d="M457.024,193.641c0.065,0.208,0.192,0.217,0.285,0.021l1.715-3.615
									c0.093-0.196,0.117-0.525,0.052-0.733l-1.203-3.816c-0.065-0.209-0.193-0.215-0.286-0.018l-1.683,3.615
									c-0.094,0.195-0.117,0.524-0.051,0.732L457.024,193.641z"/>
							</g>
						</g>
						<g>
							<g>
								<path fill="#681E2D" d="M455.518,194.535c0.214,0.049,0.285-0.058,0.16-0.237l-2.273-3.293
									c-0.123-0.177-0.396-0.362-0.609-0.409l-3.904-0.866c-0.213-0.047-0.283,0.061-0.158,0.236l2.287,3.268
									c0.125,0.179,0.398,0.362,0.613,0.412L455.518,194.535z"/>
							</g>
						</g>
					</g>
				</g>
				<g>
					<g>
						<g>
							<g>
								<path fill="#681E2D" d="M453.422,186.104c0.049,0.212,0.176,0.229,0.283,0.042l1.998-3.468
									c0.107-0.188,0.158-0.515,0.109-0.727l-0.896-3.899c-0.049-0.213-0.176-0.23-0.283-0.041l-1.966,3.469
									c-0.108,0.188-0.157,0.515-0.109,0.729L453.422,186.104z"/>
							</g>
						</g>
						<g>
							<g>
								<path fill="#681E2D" d="M451.851,186.875c0.207,0.065,0.286-0.035,0.177-0.223l-2.003-3.464
									c-0.108-0.187-0.366-0.394-0.575-0.457l-3.824-1.173c-0.207-0.063-0.289,0.037-0.177,0.224l2.021,3.439
									c0.11,0.186,0.37,0.392,0.578,0.457L451.851,186.875z"/>
							</g>
						</g>
						<g>
							<g>
								<path fill="#681E2D" d="M450.109,180.07c0.152,0.155,0.269,0.106,0.264-0.109l-0.078-4.002
									c-0.006-0.216-0.133-0.522-0.283-0.679l-2.779-2.877c-0.152-0.157-0.27-0.105-0.266,0.11l0.107,3.988
									c0.006,0.217,0.131,0.521,0.283,0.679L450.109,180.07z"/>
							</g>
						</g>
					</g>
				</g>
			</g>
		</g>
	</g>
	<g>
		<rect fill="#2B3233" width="340" height="306"/>
		<g>
			<g>
				<g>
					<path fill="#616161" d="M116.674,123.21c-0.098-0.004-0.207-0.067-0.213-0.201l-0.067-1.982
						c-0.011-0.111,0.067-0.181,0.175-0.189c0.986-0.076,2.151-0.367,3.051-1.212c0.893-0.835,1.003-1.719,0.439-2.317
						c-0.469-0.503-1.064-0.531-2.208,0.278l-0.507,0.361c-1.957,1.382-3.68,1.472-5.094-0.031c-1.463-1.565-1.263-3.712,0.58-5.438
						c1.126-1.056,2.499-1.703,3.73-1.82c0.117-0.022,0.178,0.018,0.198,0.163l0.306,1.856c0.007,0.109-0.041,0.181-0.141,0.202
						c-1.052,0.185-1.887,0.547-2.59,1.204c-0.752,0.704-0.777,1.455-0.271,1.995c0.457,0.488,1.102,0.475,2.208-0.305l0.51-0.362
						c1.979-1.404,3.656-1.471,5.099,0.071c1.444,1.541,1.371,3.749-0.831,5.815C119.72,122.543,117.938,123.226,116.674,123.21z"/>
					<path fill="#616161" d="M125.939,109.455c-0.957-1.531-1.215-2.077-1.396-2.854c-0.483-1.947,0.276-3.555,2.011-4.636
						c1.678-1.046,3.412-0.995,4.832,0.045c0.086,0.047,0.102,0.135,0.035,0.222l-1.145,1.704c-0.059,0.099-0.151,0.115-0.253,0.056
						c-0.673-0.47-1.44-0.661-2.271-0.142c-0.773,0.481-1.016,1.199-0.807,2.022c0.109,0.436,0.281,0.813,1.168,2.228
						c0.883,1.416,1.141,1.738,1.484,2.029c0.646,0.551,1.398,0.648,2.172,0.167c0.833-0.518,1.002-1.29,0.876-2.106
						c-0.011-0.114,0.042-0.189,0.159-0.2l2.031-0.276c0.107-0.024,0.184,0.029,0.184,0.132c0.31,1.729-0.403,3.312-2.084,4.357
						c-1.736,1.081-3.512,1.056-5.047-0.235C127.27,111.461,126.896,110.988,125.939,109.455z"/>
					<path fill="#616161" d="M137.885,96.357c-0.039-0.097,0.002-0.186,0.1-0.222l2.045-0.754c0.098-0.035,0.186,0.006,0.225,0.103
						l1.51,4.107c0.028,0.063,0.07,0.083,0.135,0.06l3.574-1.317c0.065-0.024,0.084-0.068,0.061-0.133l-1.515-4.106
						c-0.038-0.097,0.005-0.185,0.103-0.22l2.045-0.755c0.098-0.035,0.183,0.005,0.221,0.102l3.918,10.628
						c0.036,0.097,0,0.185-0.1,0.223l-2.047,0.752c-0.093,0.035-0.182-0.004-0.219-0.103l-1.559-4.218
						c-0.021-0.063-0.062-0.084-0.131-0.062l-3.574,1.319c-0.062,0.023-0.086,0.067-0.061,0.132l1.557,4.22
						c0.035,0.097-0.008,0.186-0.105,0.22l-2.04,0.755c-0.098,0.036-0.183-0.005-0.222-0.101L137.885,96.357z"/>
					<path fill="#616161" d="M156.543,99.764c-0.369-0.763-0.527-1.401-0.777-3.119c-0.249-1.717-0.273-2.374-0.131-3.209
						c0.326-1.957,1.788-3.122,3.812-3.413c2.023-0.293,3.76,0.414,4.621,2.198c0.367,0.762,0.53,1.398,0.779,3.117
						c0.247,1.717,0.27,2.373,0.137,3.209c-0.328,1.957-1.791,3.121-3.818,3.414C159.143,102.251,157.408,101.546,156.543,99.764z
						 M162.483,98.213c0.075-0.428,0.048-0.997-0.167-2.51c-0.223-1.514-0.351-2.068-0.548-2.457
						c-0.371-0.763-1.054-1.148-2.005-1.014c-0.952,0.139-1.493,0.701-1.635,1.537c-0.08,0.432-0.044,0.996,0.17,2.511
						c0.22,1.513,0.352,2.067,0.545,2.455c0.369,0.763,1.05,1.152,2.002,1.015C161.801,99.613,162.344,99.048,162.483,98.213z"/>
					<path fill="#616161" d="M172.369,98.237c-0.21-0.82-0.237-1.476-0.134-3.208c0.104-1.732,0.214-2.381,0.52-3.169
						c0.718-1.849,2.384-2.695,4.426-2.571c2.04,0.124,3.591,1.164,4.077,3.084c0.209,0.824,0.239,1.481,0.137,3.212
						c-0.105,1.731-0.213,2.381-0.52,3.171c-0.717,1.85-2.388,2.693-4.426,2.568C174.408,101.201,172.855,100.161,172.369,98.237z
						 M178.496,97.924c0.16-0.404,0.248-0.967,0.342-2.492c0.094-1.527,0.075-2.098-0.037-2.515
						c-0.207-0.823-0.796-1.341-1.757-1.398c-0.958-0.059-1.604,0.383-1.91,1.175c-0.165,0.402-0.25,0.964-0.341,2.491
						c-0.096,1.527-0.08,2.094,0.033,2.514c0.209,0.823,0.797,1.34,1.759,1.398C177.546,99.154,178.189,98.712,178.496,97.924z"/>
					<path fill="#616161" d="M190.363,91.398c0.025-0.102,0.113-0.148,0.209-0.124l2.112,0.554c0.097,0.028,0.149,0.111,0.124,0.211
						l-2.328,8.854c-0.017,0.066,0.005,0.107,0.074,0.125l4.982,1.311c0.098,0.025,0.149,0.109,0.123,0.207l-0.484,1.844
						c-0.027,0.104-0.109,0.149-0.209,0.125l-7.361-1.935c-0.102-0.025-0.146-0.11-0.121-0.209L190.363,91.398z"/>
					<path fill="#616161" d="M210.236,108.39c0.223-0.818,0.518-1.402,1.462-2.859c0.942-1.455,1.358-1.965,2.017-2.503
						c1.528-1.26,3.4-1.175,5.115-0.06c1.717,1.11,2.554,2.783,2.033,4.695c-0.222,0.817-0.522,1.402-1.467,2.861
						c-0.944,1.456-1.357,1.965-2.011,2.501c-1.536,1.261-3.401,1.173-5.118,0.061C210.553,111.975,209.712,110.305,210.236,108.39z
						 M215.724,111.132c0.342-0.271,0.692-0.719,1.526-2.002c0.831-1.282,1.098-1.786,1.207-2.208
						c0.219-0.817-0.037-1.557-0.848-2.082c-0.806-0.523-1.584-0.455-2.24,0.083c-0.339,0.271-0.689,0.719-1.52,2.001
						c-0.836,1.282-1.1,1.787-1.211,2.207c-0.223,0.817,0.034,1.56,0.844,2.082C214.289,111.738,215.071,111.668,215.724,111.132z"
						/>
					<path fill="#616161" d="M229.251,111.287c0.07-0.074,0.169-0.075,0.242-0.006l5.364,5.218c0.074,0.073,0.074,0.17,0.003,0.243
						l-1.282,1.316c-0.07,0.072-0.167,0.073-0.24,0.004l-3.605-3.506c-0.051-0.049-0.098-0.049-0.145,0.001l-1.713,1.761
						c-0.045,0.049-0.045,0.096,0,0.145l3.007,2.921c0.07,0.069,0.07,0.167,0,0.241l-1.267,1.305
						c-0.07,0.075-0.168,0.075-0.245,0.002l-2.999-2.92c-0.052-0.048-0.099-0.048-0.146,0.004l-3.062,3.149
						c-0.072,0.072-0.171,0.074-0.246,0.004l-1.559-1.521c-0.075-0.07-0.075-0.168-0.006-0.242L229.251,111.287z"/>
				</g>
				<g>
					<path fill="#616161" d="M105.756,211.196c0-1.802,0.066-2.402,0.327-3.158c0.616-1.906,2.11-2.87,4.155-2.87
						c1.975,0,3.418,0.964,4.072,2.594c0.052,0.088,0.016,0.173-0.088,0.205l-1.873,0.844c-0.101,0.053-0.187,0.02-0.238-0.087
						c-0.327-0.757-0.879-1.32-1.855-1.32c-0.912,0-1.496,0.481-1.752,1.286c-0.134,0.43-0.188,0.843-0.188,2.507
						c0,1.67,0.055,2.079,0.188,2.511c0.256,0.807,0.84,1.287,1.752,1.287c0.977,0,1.528-0.569,1.855-1.324
						c0.052-0.101,0.138-0.137,0.238-0.085l1.873,0.84c0.104,0.036,0.14,0.121,0.088,0.206c-0.654,1.633-2.098,2.598-4.072,2.598
						c-2.045,0-3.539-0.965-4.155-2.871C105.822,213.603,105.756,213.002,105.756,211.196z"/>
					<path fill="#616161" d="M121.093,205.528c0-0.1,0.067-0.172,0.171-0.172h2.18c0.104,0,0.173,0.072,0.173,0.172v4.381
						c0,0.069,0.036,0.104,0.103,0.104h3.812c0.073,0,0.104-0.034,0.104-0.104v-4.381c0-0.1,0.07-0.172,0.172-0.172h2.184
						c0.102,0,0.172,0.072,0.172,0.172v11.337c0,0.103-0.07,0.173-0.172,0.173h-2.184c-0.102,0-0.172-0.07-0.172-0.173v-4.497
						c0-0.071-0.03-0.104-0.104-0.104h-3.812c-0.066,0-0.103,0.033-0.103,0.104v4.497c0,0.103-0.069,0.173-0.173,0.173h-2.18
						c-0.104,0-0.171-0.07-0.171-0.173V205.528z"/>
					<path fill="#616161" d="M140.686,205.528c0.034-0.1,0.102-0.172,0.224-0.172h2.163c0.122,0,0.188,0.072,0.224,0.172
						l3.95,11.337c0.038,0.103,0,0.173-0.119,0.173h-2.232c-0.119,0-0.189-0.052-0.227-0.173L144,214.821h-4.086l-0.651,2.044
						c-0.032,0.121-0.107,0.173-0.224,0.173h-2.25c-0.121,0-0.154-0.07-0.121-0.173L140.686,205.528z M143.312,212.673l-1.322-4.084
						h-0.047l-1.326,4.084H143.312z"/>
					<path fill="#616161" d="M160.215,217.038c-0.156,0-0.209-0.052-0.261-0.173l-2.007-4.274h-1.566
						c-0.067,0-0.102,0.034-0.102,0.1v4.175c0,0.103-0.07,0.173-0.17,0.173h-2.182c-0.103,0-0.173-0.07-0.173-0.173v-11.337
						c0-0.1,0.07-0.172,0.173-0.172h4.654c2.388,0,3.965,1.498,3.965,3.628c0,1.49-0.786,2.677-2.076,3.244l2.303,4.604
						c0.051,0.102,0,0.206-0.121,0.206H160.215z M160.02,208.984c0-0.877-0.613-1.444-1.574-1.444h-2.064
						c-0.067,0-0.102,0.036-0.102,0.102v2.7c0,0.067,0.034,0.1,0.102,0.1h2.064C159.406,210.441,160.02,209.876,160.02,208.984z"/>
					<path fill="#616161" d="M172.768,205.528c0.035-0.1,0.1-0.172,0.225-0.172h2.162c0.121,0,0.189,0.072,0.225,0.172l3.949,11.337
						c0.035,0.103,0,0.173-0.118,0.173h-2.234c-0.119,0-0.188-0.052-0.222-0.173l-0.67-2.044h-4.091l-0.652,2.044
						c-0.03,0.121-0.104,0.173-0.222,0.173h-2.247c-0.126,0-0.157-0.07-0.126-0.173L172.768,205.528z M175.396,212.673l-1.324-4.084
						h-0.049l-1.323,4.084H175.396z"/>
					<path fill="#616161" d="M185.029,211.196c0-1.802,0.07-2.402,0.33-3.158c0.613-1.906,2.111-2.87,4.154-2.87
						c1.977,0,3.414,0.964,4.072,2.594c0.05,0.088,0.014,0.173-0.086,0.205l-1.875,0.844c-0.104,0.053-0.188,0.02-0.238-0.087
						c-0.327-0.757-0.879-1.32-1.856-1.32c-0.909,0-1.495,0.481-1.747,1.286c-0.141,0.43-0.195,0.843-0.195,2.507
						c0,1.67,0.055,2.079,0.195,2.511c0.252,0.807,0.838,1.287,1.747,1.287c0.978,0,1.529-0.569,1.856-1.324
						c0.051-0.101,0.135-0.137,0.238-0.085l1.875,0.84c0.1,0.036,0.136,0.121,0.086,0.206c-0.658,1.633-2.096,2.598-4.072,2.598
						c-2.043,0-3.541-0.965-4.154-2.871C185.1,213.603,185.029,213.002,185.029,211.196z"/>
					<path fill="#616161" d="M202.735,217.038c-0.104,0-0.175-0.07-0.175-0.173v-9.154c0-0.069-0.031-0.102-0.1-0.102h-2.953
						c-0.105,0-0.174-0.069-0.174-0.172v-1.909c0-0.1,0.068-0.172,0.174-0.172h8.639c0.102,0,0.172,0.072,0.172,0.172v1.909
						c0,0.103-0.07,0.172-0.172,0.172h-2.958c-0.068,0-0.101,0.032-0.101,0.102v9.154c0,0.103-0.069,0.173-0.172,0.173H202.735z"/>
					<path fill="#616161" d="M214.879,205.528c0-0.1,0.064-0.172,0.166-0.172h7.492c0.102,0,0.17,0.072,0.17,0.172v1.84
						c0,0.104-0.068,0.172-0.17,0.172h-5.031c-0.07,0-0.106,0.036-0.106,0.102v2.318c0,0.07,0.036,0.106,0.106,0.106h4.186
						c0.104,0,0.175,0.068,0.175,0.17v1.82c0,0.104-0.07,0.172-0.175,0.172h-4.186c-0.07,0-0.106,0.035-0.106,0.105v2.42
						c0,0.067,0.036,0.1,0.106,0.1h5.031c0.102,0,0.17,0.072,0.17,0.175v1.837c0,0.103-0.068,0.173-0.17,0.173h-7.492
						c-0.102,0-0.166-0.07-0.166-0.173V205.528z"/>
					<path fill="#616161" d="M236.188,217.038c-0.157,0-0.206-0.052-0.255-0.173l-2.012-4.274h-1.562
						c-0.068,0-0.104,0.034-0.104,0.1v4.175c0,0.103-0.067,0.173-0.173,0.173h-2.179c-0.103,0-0.171-0.07-0.171-0.173v-11.337
						c0-0.1,0.068-0.172,0.171-0.172h4.654c2.386,0,3.968,1.498,3.968,3.628c0,1.49-0.791,2.677-2.079,3.244l2.298,4.604
						c0.057,0.102,0,0.206-0.117,0.206H236.188z M236,208.984c0-0.877-0.621-1.444-1.582-1.444h-2.059
						c-0.068,0-0.104,0.036-0.104,0.102v2.7c0,0.067,0.036,0.1,0.104,0.1h2.059C235.379,210.441,236,209.876,236,208.984z"/>
				</g>
				<g>
					<path fill="#616161" d="M95.229,167.913c0-0.151,0.025-0.227,0.126-0.327l6.046-7.532c0.68-0.832,1.108-1.638,1.108-2.62
						c0-1.285-0.831-2.268-2.267-2.268c-1.36,0-2.142,0.831-2.318,2.142c-0.025,0.151-0.126,0.227-0.277,0.201l-2.217-0.453
						c-0.151-0.025-0.227-0.151-0.201-0.303c0.227-2.016,1.839-4.106,5.089-4.106c3.199,0,5.038,2.116,5.038,4.787
						c0,1.536-0.604,2.796-1.612,4.005l-4.988,6.047v0.05h6.348c0.151,0,0.252,0.101,0.252,0.252v2.016
						c0,0.151-0.101,0.252-0.252,0.252h-9.623c-0.151,0-0.252-0.101-0.252-0.252V167.913z"/>
					<path fill="#616161" d="M111.449,161.489c0-3.98,0.126-4.786,0.353-5.492c0.68-2.141,2.318-3.351,4.862-3.351
						s4.182,1.21,4.887,3.351c0.227,0.706,0.353,1.512,0.353,5.492s-0.126,4.786-0.353,5.492c-0.706,2.142-2.343,3.351-4.887,3.351
						s-4.182-1.209-4.862-3.351C111.575,166.275,111.449,165.469,111.449,161.489z M116.664,167.812c1.058,0,1.789-0.453,2.116-1.36
						c0.176-0.529,0.227-1.108,0.227-4.963s-0.05-4.434-0.227-4.963c-0.328-0.907-1.058-1.36-2.116-1.36s-1.764,0.453-2.091,1.36
						c-0.176,0.529-0.227,1.108-0.227,4.963s0.05,4.434,0.227,4.963C114.9,167.359,115.606,167.812,116.664,167.812z"/>
				</g>
				<g>
					<g>
						<path fill="#616161" d="M203.361,184.205c-7.43-5.369-18.797-8.449-31.186-8.449c-12.391,0-23.756,3.08-31.186,8.449
							c-0.015,0.01-0.023,0.025-0.028,0.047c-0.003,0.018,0.003,0.036,0.014,0.053l1.782,2.405c0.013,0.021,0.036,0.032,0.057,0.032
							c0.014,0,0.029-0.005,0.041-0.015c6.814-4.905,17.775-7.832,29.32-7.832c11.543,0,22.504,2.927,29.322,7.832
							c0.028,0.023,0.074,0.017,0.099-0.018l1.783-2.405c0.01-0.017,0.013-0.035,0.01-0.053
							C203.388,184.23,203.38,184.215,203.361,184.205z"/>
					</g>
					<g>
						<path fill="#616161" d="M147.566,163.122c0.007,0.016,0.021,0.028,0.039,0.036c0.016,0.007,0.036,0.007,0.055-0.001
							l4.059-1.829v13.153c0,0.023,0.014,0.046,0.031,0.06c0.018,0.013,0.043,0.017,0.064,0.009
							c1.021-0.338,1.906-0.606,2.786-0.842c0.028-0.01,0.051-0.039,0.051-0.071v-13.631l17.524-7.892l17.524,7.892v13.631
							c0,0.032,0.022,0.062,0.055,0.071c0.876,0.235,1.761,0.504,2.784,0.842c0.008,0.003,0.016,0.004,0.016,0.004
							c0.021,0,0.037-0.004,0.049-0.013c0.02-0.014,0.029-0.033,0.029-0.06v-13.153l4.062,1.829
							c0.018,0.008,0.039,0.008,0.057,0.001c0.015-0.008,0.031-0.021,0.037-0.036l1.146-2.544c0.015-0.036,0-0.075-0.036-0.094
							l-12.482-5.62v-10.638l2.704,1.217c0.019,0.009,0.036,0.009,0.054,0.003c0.02-0.007,0.031-0.02,0.041-0.04l1.145-2.541
							c0.016-0.037,0-0.078-0.037-0.095l-15.68-7.062v-8.831h4.211c0.027,0,0.052-0.014,0.064-0.038
							c0.011-0.025,0.011-0.054-0.008-0.075l-1.311-1.765l1.311-1.645c0.019-0.021,0.019-0.051,0.008-0.077
							c-0.013-0.022-0.037-0.039-0.064-0.039h-7.072c-0.039,0-0.072,0.031-0.072,0.071v12.398l-15.68,7.062
							c-0.035,0.017-0.051,0.058-0.033,0.095l1.144,2.541c0.007,0.021,0.022,0.033,0.04,0.04c0.017,0.006,0.037,0.006,0.053-0.003
							l2.704-1.217v10.638l-12.479,5.62c-0.037,0.016-0.053,0.058-0.037,0.094L147.566,163.122z M161.87,153.539v-10.633
							l10.306-4.642l10.307,4.642v10.633l-10.275-4.627c-0.018-0.007-0.041-0.007-0.059,0L161.87,153.539z"/>
					</g>
				</g>
				<g>
					<g>
						<path fill="#616161" d="M225.733,157.042h-0.051l-2.62,1.839c-0.151,0.101-0.277,0.051-0.277-0.151v-2.569
							c0-0.151,0.05-0.252,0.176-0.353l2.746-1.99c0.126-0.101,0.252-0.151,0.454-0.151h2.141c0.151,0,0.252,0.101,0.252,0.252
							v16.627c0,0.151-0.101,0.252-0.252,0.252h-2.317c-0.151,0-0.252-0.101-0.252-0.252V157.042z"/>
						<path fill="#616161" d="M238.099,167.245l2.141-0.529c0.151-0.025,0.252,0.051,0.302,0.201
							c0.328,0.958,1.109,1.638,2.368,1.638c0.982,0,1.814-0.504,2.116-1.411c0.176-0.453,0.227-1.007,0.227-1.889
							c0-0.933-0.075-1.462-0.227-1.89c-0.328-1.008-1.159-1.411-2.141-1.411c-1.134,0-1.814,0.604-2.091,1.185
							c-0.075,0.176-0.126,0.252-0.302,0.252h-2.116c-0.151,0-0.252-0.101-0.252-0.252v-9.221c0-0.151,0.101-0.252,0.252-0.252h9.12
							c0.151,0,0.252,0.101,0.252,0.252v2.016c0,0.151-0.101,0.252-0.252,0.252h-6.625c-0.101,0-0.151,0.05-0.151,0.151v3.854h0.075
							c0.403-0.328,1.285-0.756,2.52-0.756c2.191,0,3.804,1.032,4.409,2.896c0.227,0.73,0.378,1.537,0.378,2.923
							c0,1.134-0.126,2.015-0.353,2.695c-0.655,1.99-2.569,3.124-4.837,3.124c-2.645,0-4.635-1.411-5.013-3.527
							C237.872,167.42,237.947,167.294,238.099,167.245z"/>
					</g>
				</g>
			</g>
		</g>
	</g>
</g>
<g>
</g>
<g>
</g>
<g>
</g>
<g>
</g>
<g>
</g>
<g>
</g>
<g>
</g>
<g>
</g>
<g>
</g>
<g>
</g>
<g>
</g>
<g>
</g>
<g>
</g>
<g>
</g>
<g>
</g>
</svg>
