<svg xmlns="http://www.w3.org/2000/svg" xmlns:xlink="http://www.w3.org/1999/xlink" viewBox="0 0 398.41 454.69"><defs><style>.cls-1,.cls-2,.cls-3,.cls-4,.cls-7,.cls-9{fill:none;}.cls-1{stroke:#2e3192;stroke-linecap:round;stroke-linejoin:round;stroke-width:2px;}.cls-2,.cls-3,.cls-4,.cls-9{stroke:#e6e6e6;}.cls-2,.cls-3,.cls-4,.cls-7,.cls-9{stroke-miterlimit:10;}.cls-2,.cls-3{stroke-width:3.83px;}.cls-3{stroke-dasharray:5.65 5.65;}.cls-4{stroke-width:1.92px;}.cls-5{fill:#7d7d7d;}.cls-6{fill:#3a3a3a;}.cls-7{stroke:#f48e2a;stroke-width:28.73px;}.cls-8{fill:#e6e6e6;}.cls-9{stroke-width:5.75px;}</style><symbol id="New_Symbol_6" data-name="New Symbol 6" viewBox="0 0 14 2"><line class="cls-1" x1="1" y1="1" x2="13" y2="1"/></symbol></defs><title>permit-activity</title><g id="Layer_2" data-name="Layer 2"><g id="Layer_1-2" data-name="Layer 1"><line class="cls-2" x1="101.01" y1="155.7" x2="101.01" y2="158.57"/><line class="cls-3" x1="101.01" y1="164.22" x2="101.01" y2="353.4"/><line class="cls-2" x1="101.01" y1="356.22" x2="101.01" y2="359.09"/><line class="cls-2" x1="224.53" y1="155.7" x2="224.53" y2="158.57"/><line class="cls-3" x1="224.53" y1="164.22" x2="224.53" y2="353.4"/><line class="cls-2" x1="224.53" y1="356.22" x2="224.53" y2="359.09"/><line class="cls-2" x1="348.62" y1="155.7" x2="348.62" y2="158.57"/><line class="cls-3" x1="348.62" y1="164.22" x2="348.62" y2="353.4"/><line class="cls-2" x1="348.62" y1="356.22" x2="348.62" y2="359.09"/><line class="cls-4" x1="1.95" y1="453.73" x2="386.47" y2="453.73"/><path class="cls-5" d="M3.43.12H4.61L8,9.33H6.67L5.82,6.89H2.14L1.27,9.33H0Zm2,5.71L4,1.64H4L2.5,5.82Z"/><path class="cls-5" d="M10.56.13h3.38a2.74,2.74,0,0,1,3,2.79,2.62,2.62,0,0,1-2.1,2.66l2.54,3.76H16L13.58,5.71H11.83V9.33H10.56Zm3.16,4.52c1.27,0,2-.57,2-1.74s-.83-1.72-2.05-1.72H11.83V4.65Z"/><path class="cls-5" d="M20,.12H26.1V1.24H21.3V4h4.1V5.15H21.3V8.21h4.84V9.33H20Z"/><path class="cls-5" d="M31.85.12H33l3.4,9.22H35.09l-.85-2.44H30.56l-.88,2.44H28.41Zm2,5.71L32.42,1.64h0L30.92,5.82Z"/><path class="cls-5" d="M43.41.13h3.45a2.74,2.74,0,0,1,3,2.8,2.79,2.79,0,0,1-3.07,2.83H44.68V9.33H43.41Zm3.15,4.56c1.27,0,2.07-.58,2.07-1.76S47.82,1.2,46.69,1.2h-2V4.69Z"/><path class="cls-5" d="M52.62.12h6.07V1.24h-4.8V4H58V5.15h-4.1V8.21h4.84V9.33H52.62Z"/><path class="cls-5" d="M61.72.13H65.1a2.74,2.74,0,0,1,3,2.79A2.62,2.62,0,0,1,66,5.58l2.54,3.76H67.19L64.74,5.71H63V9.33H61.72Zm3.16,4.52c1.27,0,2-.57,2-1.74s-.83-1.72-2.05-1.72H63V4.65Z"/><path class="cls-5" d="M71.2.13h1.55l2.71,5.68h0L78.13.13h1.56v9.2H78.46v-7h0l-2.49,5.2h-1L72.45,2.39h0V9.33H71.2Z"/><path class="cls-5" d="M83,.13h1.27v9.2H83Z"/><path class="cls-5" d="M89.73,1.21H86.85V.13h7V1.21H91V9.33H89.73Z"/><path class="cls-5" d="M103.64.12h1.17l3.4,9.22h-1.33L106,6.89h-3.68l-.88,2.44H100.2Zm2,5.71L104.2,1.64h0l-1.48,4.18Z"/><path class="cls-5" d="M110.27,6.38V3.3A3.28,3.28,0,0,1,113.83,0c1.81,0,3.36,1,3.36,2.85v.4H116V3a1.94,1.94,0,0,0-2.18-1.87,2.1,2.1,0,0,0-2.27,2.14v3a2.11,2.11,0,0,0,2.34,2.09A1.89,1.89,0,0,0,116,6.49V6.33h1.2v.32c0,1.85-1.51,2.85-3.32,2.85C111.9,9.5,110.27,8.4,110.27,6.38Z"/><path class="cls-5" d="M122.17,1.21h-2.88V.13h7V1.21h-2.87V9.33h-1.27Z"/><path class="cls-5" d="M128.93.13h1.27v9.2h-1.27Z"/><path class="cls-5" d="M132.58.13h1.3l2.39,7.46h0l2.4-7.46H140l-3.11,9.26h-1.25Z"/><path class="cls-5" d="M142.38.13h1.27v9.2h-1.27Z"/><path class="cls-5" d="M149.14,1.21h-2.88V.13h7V1.21h-2.87V9.33h-1.27Z"/><path class="cls-5" d="M158.1,5.55l-3-5.42h1.39l2.26,4.2L161,.13h1.38l-3,5.43V9.33H158.1Z"/><path class="cls-6" d="M1.16,23.33H3.29l4.82,9.4h0l4.71-9.4H15V38.67H13.32V26.36h0l-4.5,8.76H7.4L2.9,26.38H2.84V38.67H1.16Z"/><path class="cls-6" d="M18.29,34.77V32a4.17,4.17,0,0,1,4.5-4.32c2.67,0,4.54,1.57,4.54,4.3V34.6a4.17,4.17,0,0,1-4.48,4.35C20.2,38.94,18.29,37.5,18.29,34.77Zm7.4-.11V31.8a2.62,2.62,0,0,0-2.9-2.8,2.65,2.65,0,0,0-2.88,2.88v2.84a2.66,2.66,0,0,0,2.95,2.84A2.58,2.58,0,0,0,25.69,34.66Z"/><path class="cls-6" d="M30.38,27.86H32V30h0a4.21,4.21,0,0,1,3.87-2.34,4.6,4.6,0,0,1,.8.06v1.51a5.57,5.57,0,0,0-1-.06A3.44,3.44,0,0,0,32,32.77v5.9H30.38Z"/><path class="cls-6" d="M38.58,34.56V32.28a4.36,4.36,0,0,1,4.63-4.63,4,4,0,0,1,4.28,4.24v1.7H40.23v1.12a2.78,2.78,0,0,0,3.1,2.86,3.44,3.44,0,0,0,2.73-1.38l1.23.73a4.57,4.57,0,0,1-4.07,2C40.58,38.94,38.58,37.52,38.58,34.56Zm7.31-2.09v-.62A2.63,2.63,0,0,0,43.12,29a2.83,2.83,0,0,0-2.88,3v.47Z"/><path class="cls-6" d="M56.46,23.33H62c3,0,4.95,1.81,4.95,4.6,0,2.56-1.81,4.67-5.14,4.67H58.2v6.07H56.46Zm4.93,7.79c2.35,0,3.81-1.05,3.81-3.18s-1.44-3.14-3.44-3.14H58.2v6.33Z"/><path class="cls-6" d="M69,34.56V32.28a4.36,4.36,0,0,1,4.63-4.63,4,4,0,0,1,4.28,4.24v1.7H70.61v1.12a2.78,2.78,0,0,0,3.1,2.86,3.44,3.44,0,0,0,2.73-1.38l1.23.73a4.57,4.57,0,0,1-4.07,2C71,38.94,69,37.52,69,34.56Zm7.31-2.09v-.62A2.63,2.63,0,0,0,73.5,29a2.83,2.83,0,0,0-2.88,3v.47Z"/><path class="cls-6" d="M80.9,27.86h1.57V30h0a4.21,4.21,0,0,1,3.87-2.34,4.6,4.6,0,0,1,.8.06v1.51a5.57,5.57,0,0,0-1-.06,3.44,3.44,0,0,0-3.68,3.57v5.9H80.9Z"/><path class="cls-6" d="M89.59,27.86h1.55v1.87h0a3.93,3.93,0,0,1,3.57-2.11,3,3,0,0,1,3.06,2.15h0a4.14,4.14,0,0,1,3.7-2.15A3.22,3.22,0,0,1,105,31v7.62H103.4V31.8c0-1.83-.82-2.78-2.35-2.78a3,3,0,0,0-2.95,3.1v6.54H96.52V31.76c0-1.74-.8-2.73-2.35-2.73a3,3,0,0,0-3,3.12v6.52H89.59Z"/><path class="cls-6" d="M108.61,23.33h1.59v2.34h-1.59Zm0,4.54h1.59v10.8h-1.59Z"/><path class="cls-6" d="M114.61,36.41V29.18h-1.87V27.89h1.87V24.51h1.59v3.38h3v1.29h-3V36c0,1.08.56,1.4,1.53,1.4a7.48,7.48,0,0,0,1.57-.19v1.38a7.41,7.41,0,0,1-2,.28C115.88,38.86,114.61,38.26,114.61,36.41Z"/><path class="cls-6" d="M132.36,23.28H134l5.66,15.38h-1.83l-1.57-4.45H130l-1.61,4.45h-1.74Zm3.38,9.47-2.6-7.38h0l-2.65,7.38Z"/><path class="cls-6" d="M141.79,34.58V32.17a4.2,4.2,0,0,1,4.48-4.52c2.47,0,4.26,1.4,4.26,3.74v.28H149v-.37A2.4,2.4,0,0,0,146.28,29a2.74,2.74,0,0,0-2.84,3v2.6a2.65,2.65,0,0,0,2.86,2.95,2.36,2.36,0,0,0,2.67-2.3V35h1.55v.24c0,2.32-1.72,3.74-4.22,3.74C143.61,38.94,141.79,37.37,141.79,34.58Z"/><path class="cls-6" d="M154.11,36.41V29.18h-1.87V27.89h1.87V24.51h1.59v3.38h3v1.29h-3V36c0,1.08.56,1.4,1.53,1.4a7.48,7.48,0,0,0,1.57-.19v1.38a7.41,7.41,0,0,1-2,.28C155.38,38.86,154.11,38.26,154.11,36.41Z"/><path class="cls-6" d="M161.41,23.33H163v2.34h-1.59Zm0,4.54H163v10.8h-1.59Z"/><path class="cls-6" d="M165.5,27.86h1.72l3,8.8h0l3.06-8.8h1.64L171,38.71h-1.59Z"/><path class="cls-6" d="M177.42,23.33H179v2.34h-1.59Zm0,4.54H179v10.8h-1.59Z"/><path class="cls-6" d="M183.42,36.41V29.18h-1.87V27.89h1.87V24.51H185v3.38h3v1.29h-3V36c0,1.08.56,1.4,1.53,1.4a7.48,7.48,0,0,0,1.57-.19v1.38a7.41,7.41,0,0,1-2,.28C184.69,38.86,183.42,38.26,183.42,36.41Z"/><path class="cls-6" d="M190.15,42.88V41.5a5.82,5.82,0,0,0,1.33.17,1.88,1.88,0,0,0,1.81-1.36l.73-1.91L190,27.86h1.74l3.12,8.54h0l3-8.54h1.64l-4.65,12.63A3.37,3.37,0,0,1,191.46,43,6.46,6.46,0,0,1,190.15,42.88Z"/><path class="cls-6" d="M208.46,36.41V29.18h-1.87V27.89h1.87V24.51h1.59v3.38h3v1.29h-3V36c0,1.08.56,1.4,1.53,1.4a7.48,7.48,0,0,0,1.57-.19v1.38a7.41,7.41,0,0,1-2,.28C209.73,38.86,208.46,38.26,208.46,36.41Z"/><path class="cls-6" d="M215.75,23.3h1.59v6.43h.06a3.9,3.9,0,0,1,3.49-2.11,3.25,3.25,0,0,1,3.46,3.57v7.47h-1.61V31.8c0-1.92-.9-2.78-2.35-2.78a3.06,3.06,0,0,0-3.06,3.27v6.37h-1.59Z"/><path class="cls-6" d="M227.33,35.76c0-2.35,2.13-3.25,4-3.25h3.08V31c0-1.55-1-2.11-2.58-2.11-1.27,0-2.56.45-2.56,1.68v.37H227.8v-.32c0-2.19,2.07-3,4.09-3,2.17,0,4.13.75,4.13,3.18V36c0,.6.09,2.19.15,2.63H234.6c0-.32-.09-1.25-.11-1.53h0a3.69,3.69,0,0,1-3.53,1.76C228.9,38.9,227.33,37.76,227.33,35.76Zm7.08-1v-1h-2.8c-1.38,0-2.69.37-2.69,2,0,1.31,1.12,2,2.43,2C233.5,37.63,234.41,36.43,234.41,34.73Z"/><path class="cls-6" d="M239.53,27.86h1.55v1.87h0a4,4,0,0,1,3.55-2.11,3.25,3.25,0,0,1,3.46,3.57v7.47h-1.61V31.8c0-1.92-.9-2.78-2.35-2.78a3.06,3.06,0,0,0-3.06,3.27v6.37h-1.59Z"/><path class="cls-6" d="M257.19,33.8V28.49c0-3.27,2.47-5.42,5.83-5.42,3.06,0,5.46,1.76,5.46,4.6v.75h-1.66v-.54c0-2.07-1.61-3.27-3.87-3.27a3.77,3.77,0,0,0-4,3.85v5.14c0,2.32,1.74,3.79,4.15,3.79,2.24,0,3.77-1.23,3.77-3.29v-.32h1.66v.56c0,2.9-2.37,4.6-5.42,4.6C259.8,38.94,257.19,37.16,257.19,33.8Z"/><path class="cls-6" d="M271.72,23.33h1.59v2.34h-1.59Zm0,4.54h1.59v10.8h-1.59Z"/><path class="cls-6" d="M277.72,36.41V29.18h-1.87V27.89h1.87V24.51h1.59v3.38h3v1.29h-3V36c0,1.08.56,1.4,1.53,1.4a7.48,7.48,0,0,0,1.57-.19v1.38a7.41,7.41,0,0,1-2,.28C279,38.86,277.72,38.26,277.72,36.41Z"/><path class="cls-6" d="M284.45,42.88V41.5a5.82,5.82,0,0,0,1.33.17,1.88,1.88,0,0,0,1.81-1.36l.73-1.91-4.07-10.54H286l3.12,8.54h0l3-8.54h1.64l-4.65,12.63A3.37,3.37,0,0,1,285.77,43,6.46,6.46,0,0,1,284.45,42.88Z"/><path class="cls-6" d="M302.16,23.33h2.13l4.82,9.4h0l4.71-9.4H316V38.67h-1.68V26.36h0l-4.5,8.76H308.4l-4.5-8.74h-.06V38.67h-1.68Z"/><path class="cls-6" d="M319.29,34.56V32.28a4.36,4.36,0,0,1,4.63-4.63,4,4,0,0,1,4.28,4.24v1.7h-7.25v1.12a2.78,2.78,0,0,0,3.1,2.86,3.44,3.44,0,0,0,2.73-1.38l1.23.73a4.57,4.57,0,0,1-4.07,2C321.29,38.94,319.29,37.52,319.29,34.56Zm7.31-2.09v-.62A2.63,2.63,0,0,0,323.83,29a2.83,2.83,0,0,0-2.88,3v.47Z"/><path class="cls-6" d="M330.8,35.09V31.78a3.87,3.87,0,0,1,4.13-4.15,3.32,3.32,0,0,1,3.12,2h.06V23.33h1.59V38.67h-1.55V36.77h0a3.89,3.89,0,0,1-3.38,2.17A3.66,3.66,0,0,1,330.8,35.09Zm7.31-.8V32a2.92,2.92,0,0,0-3-3.05,2.56,2.56,0,0,0-2.73,2.65V35a2.53,2.53,0,0,0,2.78,2.52A3.05,3.05,0,0,0,338.11,34.3Z"/><path class="cls-6" d="M343.4,23.33H345v2.34H343.4Zm0,4.54H345v10.8H343.4Z"/><path class="cls-6" d="M348.07,35.76c0-2.35,2.13-3.25,4-3.25h3.08V31c0-1.55-1-2.11-2.58-2.11-1.27,0-2.56.45-2.56,1.68v.37h-1.46v-.32c0-2.19,2.07-3,4.09-3,2.17,0,4.13.75,4.13,3.18V36c0,.6.09,2.19.15,2.63h-1.57c0-.32-.09-1.25-.11-1.53h0a3.69,3.69,0,0,1-3.53,1.76C349.64,38.9,348.07,37.76,348.07,35.76Zm7.08-1v-1h-2.8c-1.38,0-2.69.37-2.69,2,0,1.31,1.12,2,2.43,2C354.25,37.63,355.15,36.43,355.15,34.73Z"/><path class="cls-6" d="M360.27,27.86h1.55v1.87h0a4,4,0,0,1,3.55-2.11,3.25,3.25,0,0,1,3.46,3.57v7.47h-1.61V31.8c0-1.92-.9-2.78-2.35-2.78a3.06,3.06,0,0,0-3.06,3.27v6.37h-1.59Z"/><path class="cls-5" d="M90.1,390l3.06-3.53a4.74,4.74,0,0,0,1.43-3.33,1.73,1.73,0,0,0-3.44-.06v.33H89.87V383c0-1.69,1.31-2.58,3.13-2.58,2,0,3,1.16,3,2.75,0,2-1.26,3.33-2.6,4.82l-1.54,1.69h4.29v1.15H90.1Z"/><path class="cls-5" d="M99,386.26h3.92v1.13H99Z"/><path class="cls-5" d="M105.77,388.67v-.42h1.32v.32c0,1,.9,1.39,1.91,1.39a1.8,1.8,0,0,0,1.86-1.94,1.78,1.78,0,0,0-1.92-1.84h-1.21v-1.13h1.15a1.59,1.59,0,0,0,1.76-1.76,1.61,1.61,0,0,0-1.71-1.71c-1,0-1.78.52-1.78,1.55v.17h-1.29v-.36c0-1.42,1.16-2.48,3.1-2.48,2.18,0,3,1.39,3,2.63a2.33,2.33,0,0,1-1.61,2.42v.06a2.51,2.51,0,0,1,2,2.45c0,2-1.55,3-3.37,3C106.79,391.07,105.77,389.95,105.77,388.67Z"/><path class="cls-5" d="M60.72,403.89l-3.36-6h1.55l2.51,4.66,2.48-4.66h1.53l-3.36,6v4.19H60.72Z"/><path class="cls-5" d="M68.18,397.85h6.74v1.25H69.59v3.11h4.56v1.23H69.59v3.4H75v1.25H68.18Z"/><path class="cls-5" d="M81.3,397.85h1.31l3.77,10.24H84.9L84,405.38H79.87l-1,2.71H77.49Zm2.25,6.34-1.62-4.65h0l-1.65,4.65Z"/><path class="cls-5" d="M89.22,397.87H93c2,0,3.39,1.1,3.39,3.1a2.91,2.91,0,0,1-2.34,3l2.83,4.17H95.3l-2.73-4h-2v4H89.22Zm3.51,5c1.41,0,2.25-.63,2.25-1.94S94.07,399,92.71,399H90.63v3.84Z"/><path class="cls-5" d="M99.08,405.78l1.28-.49a2.7,2.7,0,0,0,2.71,1.74c1.25,0,2.29-.57,2.29-1.68s-.66-1.39-1.52-1.65l-1.86-.5c-1.41-.39-2.32-1.09-2.32-2.67,0-1.76,1.48-2.85,3.37-2.85,1.62,0,3,.63,3.53,2l-1.22.49a2.4,2.4,0,0,0-2.34-1.32c-1,0-2,.47-2,1.55,0,.77.56,1.26,1.64,1.56l1.88.52a2.61,2.61,0,0,1,2.19,2.74c0,1.79-1.52,3-3.73,3C101.14,408.26,99.56,407.43,99.08,405.78Z"/><path class="cls-5" d="M117.81,397.85h1.31l3.77,10.24h-1.48l-.95-2.71h-4.09l-1,2.71H114Zm2.25,6.34-1.62-4.65h0l-1.65,4.65Z"/><path class="cls-5" d="M125.18,404.81v-3.46a3.64,3.64,0,0,1,3.94-3.67c2,0,3.74,1.06,3.74,3.08v.43h-1.33v-.27c0-1.36-1.1-2-2.42-2a2.34,2.34,0,0,0-2.52,2.38v3.38a2.35,2.35,0,0,0,2.6,2.32,2.11,2.11,0,0,0,2.38-2.07v-.85h-2.75v-1.26h4.09v2.27c0,2.05-1.66,3.17-3.71,3.17S125.18,407.06,125.18,404.81Z"/><path class="cls-5" d="M136.07,404.81v-3.41a3.72,3.72,0,0,1,4-3.71c2.19,0,4,1.35,4,3.6v3.27a3.72,3.72,0,0,1-3.94,3.73C137.9,408.28,136.07,407.06,136.07,404.81Zm6.55-.17v-3.41a2.59,2.59,0,0,0-5.15.13v3.34a2.59,2.59,0,0,0,5.15-.06Z"/><path class="cls-5" d="M.31,262.61V259.2a3.65,3.65,0,0,1,4-3.67c2,0,3.73,1.15,3.73,3.17v.44H6.66v-.29a2.15,2.15,0,0,0-2.42-2.08,2.34,2.34,0,0,0-2.52,2.38v3.34a2.35,2.35,0,0,0,2.6,2.32,2.1,2.1,0,0,0,2.35-2.08v-.19H8v.36c0,2.05-1.68,3.17-3.69,3.17C2.11,266.08.31,264.87.31,262.61Z"/><path class="cls-5" d="M11.27,255.67h1.41V265.9H11.27Z"/><path class="cls-5" d="M18.78,256.88h-3.2v-1.21h7.79v1.21H20.19v9H18.78Z"/><path class="cls-5" d="M28.74,261.7l-3.36-6h1.55l2.51,4.66,2.48-4.66h1.53l-3.36,6v4.19H28.74Z"/><path class="cls-5" d="M.56,272.88H2.29l3,6.31h0l2.94-6.31H10v10.23H8.64v-7.75h0l-2.77,5.78H4.72L2,275.39h0v7.72H.56Z"/><path class="cls-5" d="M13.65,272.87h6.74v1.25H15.05v3.11h4.56v1.23H15.05v3.4h5.38v1.25H13.65Z"/><path class="cls-5" d="M23.76,272.88h3.86a3.49,3.49,0,0,1,3.8,3.53v3.1a3.57,3.57,0,0,1-3.79,3.6H23.76Zm3.8,9A2.24,2.24,0,0,0,30,279.6v-3.23a2.26,2.26,0,0,0-2.5-2.25H25.16v7.75Z"/><path class="cls-5" d="M34.8,272.88h1.41v10.23H34.8Z"/><path class="cls-5" d="M42.86,272.87h1.31l3.77,10.24H46.46l-.95-2.71H41.43l-1,2.71H39Zm2.25,6.34-1.62-4.65h0l-1.65,4.65Z"/><path class="cls-5" d="M50.78,272.87h1.39l5,7.82h0v-7.82h1.35v10.24H57.17l-5-7.89h0v7.89H50.78Z"/><line class="cls-7" x1="101.01" y1="245.41" x2="101.01" y2="359.09"/><path class="cls-5" d="M213.67,389.77h2.41v-8l-2.24.33-.1-1,3.14-.63h.53v9.25h2.25v1h-6Z"/><path class="cls-5" d="M222.26,386.17h3.92v1.13h-3.92Z"/><path class="cls-5" d="M229.26,389.9l3.06-3.53a4.74,4.74,0,0,0,1.43-3.33,1.73,1.73,0,0,0-3.44-.06v.33H229v-.37c0-1.69,1.31-2.58,3.13-2.58,2,0,3,1.16,3,2.75,0,2-1.26,3.33-2.6,4.82L231,389.62h4.29v1.15h-6.07Z"/><path class="cls-5" d="M184.23,403.8l-3.36-6h1.55l2.51,4.66,2.48-4.66h1.53l-3.36,6V408h-1.36Z"/><path class="cls-5" d="M191.69,397.76h6.74V399H193.1v3.11h4.56v1.23H193.1v3.4h5.38V408h-6.78Z"/><path class="cls-5" d="M204.81,397.76h1.31L209.89,408h-1.48l-.95-2.71h-4.09l-1,2.71H201Zm2.25,6.34-1.62-4.65h0l-1.65,4.65Z"/><path class="cls-5" d="M212.73,397.77h3.76c2,0,3.39,1.1,3.39,3.1a2.91,2.91,0,0,1-2.34,3l2.83,4.17h-1.55l-2.73-4h-2v4h-1.41Zm3.51,5c1.41,0,2.25-.63,2.25-1.94s-.92-1.91-2.28-1.91h-2.08v3.84Z"/><path class="cls-5" d="M222.59,405.69l1.28-.49a2.7,2.7,0,0,0,2.71,1.74c1.25,0,2.29-.57,2.29-1.68s-.66-1.39-1.52-1.65l-1.86-.5c-1.41-.39-2.32-1.09-2.32-2.67,0-1.76,1.48-2.85,3.37-2.85,1.62,0,3,.63,3.53,2l-1.22.49a2.4,2.4,0,0,0-2.34-1.32c-1,0-2,.47-2,1.55,0,.77.56,1.26,1.64,1.56l1.88.52a2.61,2.61,0,0,1,2.19,2.74c0,1.79-1.52,3-3.73,3C224.65,408.17,223.07,407.34,222.59,405.69Z"/><path class="cls-5" d="M241.32,397.76h1.31L246.4,408h-1.48l-.95-2.71h-4.09l-1,2.71H237.5Zm2.25,6.34-1.62-4.65h0l-1.65,4.65Z"/><path class="cls-5" d="M248.69,404.71v-3.46a3.64,3.64,0,0,1,3.94-3.67c2,0,3.74,1.06,3.74,3.08v.43H255v-.27c0-1.36-1.1-2-2.42-2a2.34,2.34,0,0,0-2.52,2.38v3.38a2.35,2.35,0,0,0,2.6,2.32,2.11,2.11,0,0,0,2.38-2.07V404h-2.75v-1.26h4.09V405c0,2.05-1.66,3.17-3.71,3.17S248.69,407,248.69,404.71Z"/><path class="cls-5" d="M259.58,404.71V401.3a3.72,3.72,0,0,1,4-3.71c2.19,0,4,1.35,4,3.6v3.27a3.72,3.72,0,0,1-3.94,3.73C261.41,408.18,259.58,407,259.58,404.71Zm6.56-.17v-3.41a2.59,2.59,0,0,0-5.15.13v3.34a2.59,2.59,0,0,0,5.15-.06Z"/><path class="cls-5" d="M340.25,386.58v-.73l6.45-2.94.4.8-5.57,2.5,5.55,2.55-.4.8Z"/><path class="cls-5" d="M349.86,389.77h2.41v-8l-2.24.33-.1-1,3.14-.63h.53v9.25h2.25v1h-6Z"/><path class="cls-5" d="M312.8,403.8l-3.36-6H311l2.51,4.66,2.48-4.66h1.53l-3.36,6V408H312.8Z"/><path class="cls-5" d="M320.26,397.76H327V399h-5.34v3.11h4.56v1.23h-4.56v3.4H327V408h-6.78Z"/><path class="cls-5" d="M333.38,397.76h1.31L338.46,408H337l-.95-2.71h-4.09L331,408h-1.41Zm2.25,6.34L334,399.45h0l-1.65,4.65Z"/><path class="cls-5" d="M341.3,397.77h3.76c2,0,3.39,1.1,3.39,3.1a2.91,2.91,0,0,1-2.34,3l2.83,4.17h-1.55l-2.73-4h-2v4H341.3Zm3.51,5c1.41,0,2.25-.63,2.25-1.94s-.92-1.91-2.28-1.91H342.7v3.84Z"/><path class="cls-5" d="M359.77,397.76h1.31L364.85,408h-1.48l-.95-2.71h-4.09l-1,2.71H356ZM362,404.1l-1.62-4.65h0l-1.65,4.65Z"/><path class="cls-5" d="M367.15,404.71v-3.46a3.64,3.64,0,0,1,3.94-3.67c2,0,3.74,1.06,3.74,3.08v.43H373.5v-.27c0-1.36-1.1-2-2.42-2a2.34,2.34,0,0,0-2.52,2.38v3.38a2.35,2.35,0,0,0,2.6,2.32,2.11,2.11,0,0,0,2.38-2.07V404h-2.75v-1.26h4.09V405c0,2.05-1.66,3.17-3.71,3.17S367.15,407,367.15,404.71Z"/><path class="cls-5" d="M378,404.71V401.3a3.72,3.72,0,0,1,4-3.71c2.19,0,4,1.35,4,3.6v3.27a3.72,3.72,0,0,1-3.94,3.73C379.87,408.18,378,407,378,404.71Zm6.55-.17v-3.41a2.59,2.59,0,0,0-5.15.13v3.34a2.59,2.59,0,0,0,5.15-.06Z"/><line class="cls-7" x1="224.82" y1="192.29" x2="224.82" y2="245.41"/><line class="cls-7" x1="348.62" y1="169.23" x2="348.62" y2="245.41"/><use width="14" height="2" transform="translate(364.6 -0.18) scale(1.43 1.43)" xlink:href="#New_Symbol_6"/><rect class="cls-8" x="51.22" y="72.57" width="99.57" height="49.95"/><path class="cls-6" d="M74.1,99.83h7.83v2.27H74.1Z"/><path class="cls-6" d="M88.22,104.13V103a4.71,4.71,0,0,1,3.07-4.36,4.18,4.18,0,0,1-2.81-4v-1c0-3.56,3-5.39,6.28-5.39s6.31,1.58,6.31,5c0,0,0,1.23,0,1.58a4.1,4.1,0,0,1-2.9,3.73,4.53,4.53,0,0,1,3.16,4.3V104c0,3.44-2.84,5.42-6.6,5.42S88.22,107.58,88.22,104.13Zm10.33-.26V103c0-2.35-2-3.21-3.76-3.21S91,100.66,91,102.9V104c0,2,1.72,3.33,3.76,3.33S98.55,106.11,98.55,103.88Zm-.11-9.44V93.38c0-2.15-1.86-3-3.73-3a3.29,3.29,0,0,0-3.56,3.1v1c0,2.21,2,3.16,3.67,3.16A3.39,3.39,0,0,0,98.43,94.44Z"/><path class="cls-6" d="M107.84,95.67V91.8c0-2.47,1.84-3.53,3.87-3.53s4,1,4,3.56v3.93c0,2.32-2,3.41-4,3.41S107.84,98.05,107.84,95.67Zm5.94.11V91.63a1.83,1.83,0,0,0-2-1.86,1.8,1.8,0,0,0-2,1.86v4.16c0,1.09.6,1.84,2,1.84A1.82,1.82,0,0,0,113.78,95.79Zm9.67-7.29h1.81l-13.42,20.57H110Zm-4.19,17.44v-3.87c0-2.47,1.84-3.59,3.9-3.59s4,1,4,3.56V106c0,2.32-2,3.41-4,3.41S119.26,108.35,119.26,105.94Zm5.94,0v-4.1a1.85,1.85,0,0,0-2-1.89,1.8,1.8,0,0,0-2,1.89V106c0,1.12.63,1.84,2,1.84A1.81,1.81,0,0,0,125.2,106Z"/><polygon class="cls-8" points="116.5 120.69 100.58 136.6 84.67 120.69 116.5 120.69"/><rect class="cls-8" x="175.03" y="72.57" width="99.57" height="49.95"/><path class="cls-6" d="M200.64,100.22h-6.48V98.44h6.48V91.93h1.81v6.51h6.45v1.78h-6.45v6.48h-1.81Z"/><path class="cls-6" d="M223.27,102.94h-8.66v-2.12l7.89-12.88h3l-8.06,12.82h5.82V96.89l2.64-1.66v5.54h2.7v2.18h-2.7v5.48h-2.64Z"/><path class="cls-6" d="M234.86,95V91.15c0-2.47,1.84-3.53,3.87-3.53s4,1,4,3.56v3.93c0,2.32-2,3.41-4,3.41S234.86,97.41,234.86,95Zm5.94.11V91a1.83,1.83,0,0,0-2-1.86,1.8,1.8,0,0,0-2,1.86v4.16c0,1.09.6,1.84,2,1.84A1.82,1.82,0,0,0,240.8,95.14Zm9.67-7.29h1.81l-13.43,20.57H237Zm-4.19,17.44v-3.87c0-2.47,1.84-3.59,3.9-3.59s4,1,4,3.56v3.93c0,2.32-2,3.41-4,3.41S246.28,107.7,246.28,105.29Zm5.94,0v-4.1a1.85,1.85,0,0,0-2-1.89,1.8,1.8,0,0,0-2,1.89v4.13c0,1.12.63,1.84,2,1.84A1.81,1.81,0,0,0,252.22,105.32Z"/><polygon class="cls-8" points="241.19 122.52 225.28 138.44 209.36 122.52 241.19 122.52"/><rect class="cls-8" x="298.84" y="72.57" width="99.57" height="49.95"/><path class="cls-6" d="M326.08,98.9h-6.48V97.12h6.48V90.61h1.81v6.51h6.45V98.9h-6.45v6.48h-1.81Z"/><path class="cls-6" d="M340.22,101.51V92.25c0-3.73,3-6,6.68-6S353,88.17,353,91.18v.69H350.4v-.4c0-1.92-1.43-3-3.56-3a3.49,3.49,0,0,0-3.79,3.67v4.25a6.34,6.34,0,0,1,5-2.38c3,0,5.22,1.81,5.22,4.59v3.33c0,3.59-2.87,5.54-6.6,5.54S340.22,105.07,340.22,101.51Zm10.33.49V99.33c0-2.35-1.92-3.1-3.56-3.1a3.93,3.93,0,0,0-3.93,3.76v1.63a3.54,3.54,0,0,0,3.79,3.62C349.31,105.24,350.55,103.78,350.55,102Z"/><path class="cls-6" d="M359.9,93.71V89.84c0-2.47,1.84-3.53,3.87-3.53s4,1,4,3.56v3.93c0,2.32-2,3.41-4,3.41S359.9,96.09,359.9,93.71Zm5.94.11V89.66a1.83,1.83,0,0,0-2-1.86,1.8,1.8,0,0,0-2,1.86v4.16c0,1.09.6,1.84,2,1.84A1.82,1.82,0,0,0,365.84,93.82Zm9.67-7.29h1.81l-13.42,20.57h-1.84ZM371.32,104v-3.87c0-2.47,1.84-3.58,3.9-3.58s4,1,4,3.56V104c0,2.32-2,3.41-4,3.41S371.32,106.39,371.32,104Zm5.94,0v-4.1a1.85,1.85,0,0,0-2-1.89,1.8,1.8,0,0,0-2,1.89V104c0,1.12.63,1.84,2,1.84A1.81,1.81,0,0,0,377.25,104Z"/><polygon class="cls-8" points="364.54 122.52 348.62 138.44 332.71 122.52 364.54 122.52"/><line class="cls-9" x1="1.7" y1="245.41" x2="398.41" y2="245.41"/></g></g></svg>