<svg xmlns="http://www.w3.org/2000/svg" xmlns:xlink="http://www.w3.org/1999/xlink" width="600" height="340" viewBox="0 0 600 340">
  <defs>
    <rect id="brand-a" width="600" height="340"/>
  </defs>
  <g fill="none" fill-rule="evenodd">
    <mask id="brand-b" fill="#fff">
      <use xlink:href="#brand-a"/>
    </mask>
    <use fill="#211F1C" xlink:href="#brand-a"/>
    <g mask="url(#brand-b)">
      <g transform="translate(122.68 134.604)">
        <polygon fill="#FFF" points="1.031 56.833 280.412 56.833 280.412 54.839 1.031 54.839"/>
        <path fill="#FFF" d="M1.03092784 12.4278535L4.9662238 12.4278535C5.31930263 13.8429034 6.75733237 15.0248078 9.279324 15.0248078 11.1208724 15.0248078 12.3314284 14.3063393 12.305714 13.2167414 12.2562631 9.66912484 1.81323975 12.7999345 1.71137107 6.02825009 1.68664566 3.0144889 4.48655088.997067449 8.72448584.997067449 12.9624208.997067449 16.0402396 3.0144889 16.3923294 6.09866952L12.4075826 6.09866952C12.1049436 4.84634564 11.0199927 3.87284463 8.976685 3.87284463 7.18557644 3.87284463 5.97502045 4.61415185 5.99974586 5.79700792 6.05018569 9.4607214 16.4180438 6.40033112 16.4941981 12.9150798 16.5446379 15.9526314 13.642864 17.9472141 9.25459859 17.9472141 4.53699071 17.9472141 1.4591719 15.8365345 1.03092784 12.4278535zM19.5876289 14.1943422L19.5876289 2.99120235 23.6310184 2.99120235 23.6310184 6.74257491 27.8350515 6.74257491 27.8350515 9.68929656 23.6310184 9.68929656 23.6310184 13.7805217C23.6310184 15.0709619 24.4615354 15.7776553 26.0406728 15.7776553 26.6034504 15.7776553 27.193527 15.7046869 27.8350515 15.630719L27.8350515 18.6514086C27.0853813 18.846324 26.1488185 18.9442815 25.2910025 18.9442815 21.8628886 18.9442815 19.5876289 17.0441059 19.5876289 14.1943422M30.9278351 6.36564713L34.5936799 6.36564713 34.5936799 7.75061278 34.6432053 7.75061278C35.3365598 6.60382594 36.5504157 5.98240469 37.8875994 5.98240469 38.3090501 5.98240469 38.754778 6.00690868 39.1752577 6.12648817L39.1752577 9.37375723C38.7295298 9.2796619 38.3333273 9.23163408 37.9371247 9.23163408 35.8813383 9.23163408 34.6432053 10.4725163 34.6432053 12.5984826L34.6432053 17.9472141 30.9278351 17.9472141 30.9278351 6.36564713zM51.0024699 11.4221128C50.9266845 9.86746954 49.8078516 8.7655351 48.1036757 8.7655351 46.4254265 8.7655351 45.1530284 9.84380521 44.9246748 11.4221128L51.0024699 11.4221128zM41.2371134 12.4756897C41.2371134 8.56490278 43.95841 5.98240469 48.0009665 5.98240469 52.0205879 5.98240469 54.6391753 8.46407217 54.6391753 12.5754914L54.6391753 13.6537615 44.9496042 13.6537615C45.3564525 15.1579895 46.6278535 16.0850137 48.2313144 16.0850137 49.196582 16.0850137 50.1897705 15.7341644 50.6474748 15.082881L54.4357511 15.082881C53.7496932 17.3896383 51.2058941 18.9442815 48.1545318 18.9442815 44.0082689 18.9442815 41.2371134 16.3617834 41.2371134 12.4756897L41.2371134 12.4756897zM58.4012997 14.1943422L58.4012997 9.68929656 55.6701031 9.68929656 55.6701031 6.74257491 58.4012997 6.74257491 58.4012997 2.99120235 62.0924188 2.99120235 62.0924188 6.74257491 65.9793814 6.74257491 65.9793814 9.68929656 62.0924188 9.68929656 62.0924188 13.7805217C62.0924188 15.0709619 62.8796518 15.7776553 64.3065115 15.7776553 64.8236154 15.7776553 65.3889567 15.7046869 65.9793814 15.6557082L65.9793814 18.6514086C65.2915174 18.846324 64.429999 18.9442815 63.642766 18.9442815 60.4928696 18.9442815 58.4012997 17.0441059 58.4012997 14.1943422M69.0721649 12.4767186C69.0721649 8.56490278 71.8540991 5.98240469 76.0260088 5.98240469 79.5406049 5.98240469 82.1192972 7.9640347 82.4742268 11.021877L78.8832912 11.021877C78.6304782 9.94360693 77.6945745 9.01658272 76.0260088 9.01658272 74.0282906 9.01658272 72.7136632 10.3963158 72.7136632 12.4767186 72.7136632 14.5560926 74.0282906 15.9111324 76.0260088 15.9111324 77.6945745 15.9111324 78.6304782 14.9830793 78.8832912 13.9058381L82.4742268 13.9058381C82.1192972 16.9883736 79.5406049 18.9442815 76.0260088 18.9442815 71.8540991 18.9442815 69.0721649 16.3617834 69.0721649 12.4767186M84.5360825 0L88.4244793 0 88.4244793 8.19609586 88.476311 8.19609586C89.5647776 7.11644302 91.0170826 6.65013774 92.4165396 6.65013774 95.6555152 6.65013774 97.9381443 8.90814301 97.9381443 12.0725732L97.9381443 18.9442815 94.0233235 18.9442815 94.0233235 12.564057C94.0233235 10.8952279 92.961281 9.79140377 91.301649 9.79140377 89.5647776 9.79140377 88.4244793 10.8217068 88.4244793 12.4421932L88.4244793 18.9442815 84.5360825 18.9442815 84.5360825 0z"/>
        <path fill="#0ACDB6" d="M280.412371,35.3954098 C280.412371,33.4685676 278.79768,31.9061584 276.804124,31.9061584 C274.811569,31.9061584 273.195876,33.4685676 273.195876,35.3954098 C273.195876,37.322252 274.811569,38.8856305 276.804124,38.8856305 C278.79768,38.8856305 280.412371,37.322252 280.412371,35.3954098"/>
        <polygon fill="#0ACDB6" points="290.722 37.589 290.722 38.886 285.567 38.886 285.567 31.906 287.113 31.906 287.113 37.589"/>
        <polygon fill="#0ACDB6" points="292.784 38.886 294.845 38.886 294.845 31.906 292.784 31.906"/>
        <polygon fill="#0ACDB6" points="295.876 31.906 297.679 31.906 299.973 36.911 300.015 36.911 302.319 31.906 304.124 31.906 300.819 38.886 299.181 38.886"/>
        <polygon fill="#0ACDB6" points="306.664 33.202 306.664 34.788 309.858 34.788 309.858 36.074 306.664 36.074 306.664 37.589 310.309 37.589 310.309 38.886 305.155 38.886 305.155 31.906 310.309 31.906 310.309 33.202"/>
        <path fill="#FFF" d="M285.56701,45.5870316 L287.141252,45.5870316 C287.28362,46.1696237 287.857189,46.656248 288.86708,46.656248 C289.602477,46.656248 290.086938,46.3605898 290.076696,45.9117709 C290.057235,44.4499593 285.880425,45.7392229 285.84048,42.9513115 C285.830237,41.7105165 286.950745,40.8797654 288.644822,40.8797654 C290.338898,40.8797654 291.570023,41.7105165 291.711367,42.9803926 L290.117665,42.9803926 C289.995781,42.4637178 289.562532,42.0633675 288.746221,42.0633675 C288.02926,42.0633675 287.545823,42.3696888 287.554017,42.8563131 C287.575526,44.3646546 291.722633,43.1035028 291.752336,45.7867221 C291.771796,47.0381802 290.612368,47.8592375 288.856837,47.8592375 C286.969181,47.8592375 285.739081,46.990681 285.56701,45.5870316"/>
        <polygon fill="#FFF" points="297.938 42.207 295.612 42.207 295.612 47.859 294.078 47.859 294.078 42.207 291.753 42.207 291.753 40.88 297.938 40.88"/>
        <path fill="#FFF" d="M301.74269,44.1108713 L303.220482,44.1108713 C304.263165,44.1108713 304.885393,43.7515221 304.885393,43.1532816 C304.885393,42.5449186 304.298109,42.1865817 303.309533,42.1865817 L301.74269,42.1865817 L301.74269,44.1108713 Z M305.130001,47.8592375 L303.197938,45.4166754 L301.74269,45.4166754 L301.74269,47.8592375 L300,47.8592375 L300,40.8797654 L303.463963,40.8797654 C305.384754,40.8797654 306.617938,41.7675097 306.617938,43.1532816 C306.617938,44.0805037 306.029527,44.7880673 305.018406,45.1464043 L307.216495,47.8592375 L305.130001,47.8592375 Z"/>
        <polygon fill="#FFF" points="309.757 42.176 309.757 43.761 312.951 43.761 312.951 45.048 309.757 45.048 309.757 46.564 313.402 46.564 313.402 47.859 308.247 47.859 308.247 40.88 313.402 40.88 313.402 42.176"/>
        <path fill="#FFF" d="M320.05986,45.1467977 L319.095444,42.6651176 L319.067889,42.6651176 L318.094921,45.1467977 L320.05986,45.1467977 Z M318.384721,40.8797654 L319.779562,40.8797654 L322.680412,47.8592375 L321.117393,47.8592375 L320.555846,46.4331824 L317.608437,46.4331824 L317.036439,47.8592375 L315.463918,47.8592375 L318.384721,40.8797654 Z"/>
        <polygon fill="#FFF" points="325.6 40.88 327.282 40.88 328.836 45.646 328.875 45.646 330.459 40.88 332.131 40.88 334.021 47.859 332.387 47.859 331.128 43.253 331.089 43.253 329.584 47.859 328.138 47.859 326.633 43.262 326.594 43.262 325.344 47.859 323.711 47.859"/>
        <polygon fill="#FFF" points="336.082 47.859 338.144 47.859 338.144 40.88 336.082 40.88"/>
        <polygon fill="#FFF" points="347.423 40.88 347.423 47.859 346.028 47.859 341.944 43.582 341.944 47.859 340.206 47.859 340.206 40.88 341.568 40.88 345.685 45.256 345.685 40.88"/>
        <path fill="#FFF" d="M348.453608,44.365624 C348.453608,42.2746905 349.914739,40.8797654 352.100545,40.8797654 C354.073268,40.8797654 355.253564,41.9683692 355.610991,43.3536005 L354.025153,43.3536005 C353.724678,42.5897361 352.979384,42.2068345 352.119201,42.2068345 C350.843658,42.2068345 349.991331,43.0763604 349.991331,44.365624 C349.991331,45.6733056 350.851513,46.5428315 352.119201,46.5428315 C353.067758,46.5428315 353.773775,46.0552379 353.976056,45.2816797 L352.013152,45.2816797 L352.013152,44.1068019 L355.669907,44.1068019 C355.688564,46.494363 354.372761,47.8592375 352.100545,47.8592375 C349.914739,47.8592375 348.453608,46.4565575 348.453608,44.365624"/>
        <polygon fill="#FFF" points="287.456 49.853 289.139 49.853 290.693 54.619 290.732 54.619 292.316 49.853 293.988 49.853 295.876 56.833 294.244 56.833 292.983 52.227 292.945 52.227 291.44 56.833 289.994 56.833 288.489 52.236 288.45 52.236 287.2 56.833 285.567 56.833"/>
        <polygon fill="#FFF" points="299.448 51.15 299.448 52.736 302.641 52.736 302.641 54.022 299.448 54.022 299.448 55.537 303.093 55.537 303.093 56.833 297.938 56.833 297.938 49.853 303.093 49.853 303.093 51.15"/>
        <path fill="#FFF" d="M310.64488,53.3431085 C310.64488,52.0470593 309.59927,51.1901352 308.024038,51.1901352 L306.848381,51.1901352 L306.848381,55.4970512 L308.024038,55.4970512 C309.59927,55.4970512 310.64488,54.6391577 310.64488,53.3431085 M312.371134,53.3431085 C312.371134,55.4573069 310.720391,56.8328446 308.141498,56.8328446 L305.154639,56.8328446 L305.154639,49.8533724 L308.141498,49.8533724 C310.720391,49.8533724 312.371134,51.2289101 312.371134,53.3431085"/>
        <polygon fill="#FFF" points="313.402 56.833 315.464 56.833 315.464 49.853 313.402 49.853"/>
        <path fill="#FFF" d="M321.746987,54.1211369 L320.644557,51.6372631 L320.613357,51.6372631 L319.500527,54.1211369 L321.746987,54.1211369 Z M319.832295,49.8533724 L321.425618,49.8533724 L324.742268,56.8328446 L322.9555,56.8328446 L322.313802,55.4076711 L318.945152,55.4076711 L318.292014,56.8328446 L316.494845,56.8328446 L319.832295,49.8533724 Z"/>
        <path fill="#FAFBFC" fill-opacity=".2" d="M6.31702444,42.1641623 C2.53145465,42.1641623 0,39.9239085 0,36.5526529 C0,33.1596473 2.48500594,30.9193936 6.17767831,30.9193936 C9.84712633,30.9193936 12.2392348,33.0726471 12.2392348,36.6396531 L12.2392348,37.5749046 L3.39075576,37.5749046 C3.76234544,38.8799068 4.92356316,39.6846581 6.3866975,39.6846581 C7.26922297,39.6846581 8.1749728,39.3801576 8.59301118,38.8146567 L12.05344,38.8146567 C11.4263824,40.81566 9.10394698,42.1641623 6.31702444,42.1641623 Z M3.36753141,35.6391514 L8.91815214,35.6391514 C8.84847908,34.2906492 7.82660748,33.3336476 6.27057573,33.3336476 C4.73776833,33.3336476 3.5765506,34.2688991 3.36753141,35.6391514 Z M19.17019,41.8161617 L22.4680484,41.8161617 L27.6935281,31.2673941 L24.0240801,31.2673941 L20.8423436,37.8794051 L20.7958948,37.8794051 L17.660607,31.2673941 L13.9447103,31.2673941 L19.17019,41.8161617 Z M35.716028,42.1641623 C31.9304582,42.1641623 29.3990036,39.9239085 29.3990036,36.5526529 C29.3990036,33.1596473 31.8840095,30.9193936 35.5766819,30.9193936 C39.2461299,30.9193936 41.6382384,33.0726471 41.6382384,36.6396531 L41.6382384,37.5749046 L32.7897593,37.5749046 C33.161349,38.8799068 34.3225667,39.6846581 35.7857011,39.6846581 C36.6682265,39.6846581 37.5739764,39.3801576 37.9920147,38.8146567 L41.4524436,38.8146567 C40.825386,40.81566 38.5029505,42.1641623 35.716028,42.1641623 Z M32.766535,35.6391514 L38.3171557,35.6391514 C38.2474826,34.2906492 37.225611,33.3336476 35.6695793,33.3336476 C34.1367719,33.3336476 32.9755542,34.2688991 32.766535,35.6391514 Z M44.7371751,41.8161617 L48.2208283,41.8161617 L48.2208283,36.9441536 C48.2208283,35.0084004 49.382046,33.8773985 51.3096674,33.8773985 C51.6812571,33.8773985 52.0528468,33.9208986 52.4708852,34.0078987 L52.4708852,31.0498938 C52.0760711,30.9411436 51.6580327,30.9193936 51.2632187,30.9193936 C50.0091036,30.9193936 48.8711102,31.4848945 48.2208283,32.5288962 L48.1743796,32.5288962 L48.1743796,31.2673941 L44.7371751,31.2673941 L44.7371751,41.8161617 Z M65.0221341,31.2673941 L61.6546027,38.3579059 L61.608154,38.3579059 L57.8690329,31.2673941 L54.1531362,31.2673941 L59.8895518,42.0336621 L57.4974433,46.8621701 L61.2365644,46.8621701 L68.7148065,31.2673941 L65.0221341,31.2673941 Z M77.931846,41.8161617 L81.4154992,41.8161617 L81.4154992,36.0524021 C81.4154992,34.6168997 82.4373708,33.7033982 83.9934025,33.7033982 C85.4797612,33.7033982 86.4319597,34.6821498 86.4319597,36.1611523 L86.4319597,41.8161617 L89.9388373,41.8161617 L89.9388373,35.7261516 C89.9388373,32.8986469 87.8486454,30.9193936 84.8991523,30.9193936 C83.6450372,30.9193936 82.2748003,31.3978944 81.4154992,32.2896458 L81.3690504,32.2896458 L81.3690504,31.2673941 L77.931846,31.2673941 L77.931846,41.8161617 Z M99.1922279,42.1641623 C95.3602094,42.1641623 92.8055304,39.9239085 92.8055304,36.5526529 C92.8055304,33.1596473 95.3602094,30.9193936 99.1922279,30.9193936 C103.024246,30.9193936 105.578925,33.1596473 105.578925,36.5526529 C105.578925,39.9239085 103.024246,42.1641623 99.1922279,42.1641623 Z M99.1922279,39.4671578 C101.026952,39.4671578 102.257843,38.3144059 102.257843,36.5526529 C102.257843,34.7909 101.026952,33.616398 99.1922279,33.616398 C97.3575039,33.616398 96.1266131,34.7909 96.1266131,36.5526529 C96.1266131,38.3144059 97.3575039,39.4671578 99.1922279,39.4671578 Z M114.832316,42.1641623 C115.575495,42.1641623 116.388348,42.0771621 117.03863,41.9031618 L117.03863,39.2279074 C116.481245,39.2714075 115.947085,39.3366576 115.459374,39.3366576 C114.112361,39.3366576 113.369182,38.7059065 113.369182,37.5531546 L113.369182,33.8991485 L117.03863,33.8991485 L117.03863,31.2673941 L113.369182,31.2673941 L113.369182,27.9178886 L109.885529,27.9178886 L109.885529,31.2673941 L107.307625,31.2673941 L107.307625,33.8991485 L109.885529,33.8991485 L109.885529,37.9229052 C109.885529,40.4676594 111.859599,42.1641623 114.832316,42.1641623 Z M126.036552,42.1641623 C122.250983,42.1641623 119.719528,39.9239085 119.719528,36.5526529 C119.719528,33.1596473 122.204534,30.9193936 125.897206,30.9193936 C129.566654,30.9193936 131.958763,33.0726471 131.958763,36.6396531 L131.958763,37.5749046 L123.110284,37.5749046 C123.481873,38.8799068 124.643091,39.6846581 126.106226,39.6846581 C126.988751,39.6846581 127.894501,39.3801576 128.312539,38.8146567 L131.772968,38.8146567 C131.14591,40.81566 128.823475,42.1641623 126.036552,42.1641623 Z M123.087059,35.6391514 L128.63768,35.6391514 C128.568007,34.2906492 127.546136,33.3336476 125.990104,33.3336476 C124.457296,33.3336476 123.296079,34.2688991 123.087059,35.6391514 Z"/>
      </g>
    </g>
  </g>
</svg>
