<svg xmlns="http://www.w3.org/2000/svg" width="680" height="306" viewBox="0 0 680 306"><path fill="#FFF" d="M680 0v306H0V0"/><path fill="#B0BEC5" d="M122.458 180.356c-6.855 0-13.3-2.671-18.147-7.519-10.004-10.007-10.004-26.288 0-36.292 4.848-4.847 11.292-7.518 18.147-7.518 6.854 0 13.3 2.671 18.146 7.518 10.006 10.004 10.006 26.285 0 36.292-4.846 4.849-11.292 7.519-18.146 7.519zm0-42.861c-4.594 0-8.912 1.79-12.16 5.037-6.704 6.704-6.704 17.615 0 24.32 3.248 3.25 7.566 5.037 12.16 5.037s8.912-1.787 12.16-5.037c6.704-6.705 6.704-17.616 0-24.32a17.093 17.093 0 0 0-12.16-5.037z"/><path fill-rule="evenodd" clip-rule="evenodd" fill="#B0BEC5" d="M127.231 159.465a6.752 6.752 0 0 1-9.546 0 6.745 6.745 0 0 1 0-9.545 6.745 6.745 0 0 1 9.546 0 6.747 6.747 0 0 1 0 9.545z"/><path fill="#B0BEC5" d="M220.922 156.363l50.769-30.945-19.604 58.089-10.053-24.128zm166.84-29.338a20.419 20.419 0 0 0-14.874-6.448A20.273 20.273 0 0 0 359 126.049a20.275 20.275 0 0 0-5.865 9.991 20.306 20.306 0 0 0 4.891 18.773 20.329 20.329 0 0 0 3.341 2.873l11.907 24.673 8.845-23.305a20.291 20.291 0 0 0 4.669-3.267 20.268 20.268 0 0 0 5.866-9.992 20.294 20.294 0 0 0-4.892-18.77zm-4.405 16.483a10.73 10.73 0 0 1-3.104 5.286 10.739 10.739 0 0 1-7.356 2.897c-3.024 0-5.821-1.212-7.878-3.413a10.767 10.767 0 0 1-2.59-9.951 10.72 10.72 0 0 1 3.106-5.286 10.738 10.738 0 0 1 7.355-2.896c2.98 0 5.852 1.244 7.88 3.412a10.755 10.755 0 0 1 2.587 9.951zm-199.75 3.207h2.791v3.539h3.559v2.713h-3.559v3.539h-2.791v-3.539h-3.558v-2.713h3.558v-3.539zm128.141 0h2.792v3.539h3.558v2.713h-3.558v3.539h-2.792v-3.539h-3.559v-2.713h3.559v-3.539z"/><g fill-rule="evenodd" clip-rule="evenodd" fill="#B0BEC5"><path d="M583.193 135.422l-37.935.003a30.57 30.57 0 0 0-7.16-6.493 30.634 30.634 0 0 0-16.774-4.996c-10.438 0-20.074 5.216-25.771 13.949-9.259 14.197-5.242 33.281 8.952 42.541a30.618 30.618 0 0 0 16.773 4.998c10.439 0 20.073-5.215 25.772-13.949a30.683 30.683 0 0 0 3.259-6.627l32.884-29.426zm-44.636 30.514a20.559 20.559 0 0 1-17.277 9.348 20.51 20.51 0 0 1-11.232-3.35c-9.514-6.207-12.202-18.994-5.999-28.507a20.556 20.556 0 0 1 17.276-9.349c3.99 0 7.874 1.158 11.232 3.35 9.512 6.205 12.204 18.996 6 28.508z"/><path d="M514.068 161.457l15.473-13.635a10.231 10.231 0 0 0-1.763-1.685c-4.57-3.412-11.039-2.471-14.451 2.1-3.034 4.071-2.613 9.638.741 13.22z"/></g><path fill="#B0BEC5" d="M438.233 150.566h10.789v2.742h-10.789v-2.742zm0 5.485h10.789v2.744h-10.789v-2.744z"/></svg>