<?xml version="1.0" encoding="utf-8"?>
<!-- Generator: Adobe Illustrator 16.0.0, SVG Export Plug-In . SVG Version: 6.00 Build 0)  -->
<!DOCTYPE svg PUBLIC "-//W3C//DTD SVG 1.1//EN" "http://www.w3.org/Graphics/SVG/1.1/DTD/svg11.dtd">
<svg version="1.1" id="Layer_1" xmlns="http://www.w3.org/2000/svg" xmlns:xlink="http://www.w3.org/1999/xlink" x="0px" y="0px"
	 width="678px" height="570px" viewBox="0 0 678 570" enable-background="new 0 0 678 570"
	 xml:space="preserve">
<rect fill="transparent" width="677.987" height="569.64"/>
<g>
	<path fill-rule="evenodd" clip-rule="evenodd" fill="#3F454A" d="M455.561,215.979l-86.944,0.008
		c-4.538-5.661-10.019-10.71-16.41-14.882c-11.486-7.491-24.78-11.451-38.443-11.451c-23.926,0-46.01,11.954-59.065,31.972
		c-21.222,32.539-12.017,76.276,20.519,97.499c11.485,7.496,24.778,11.453,38.441,11.453c23.927,0,46.008-11.949,59.067-31.969
		c3.165-4.85,5.636-9.949,7.472-15.188L455.561,215.979z M353.257,285.912c-8.753,13.413-23.557,21.425-39.6,21.425
		c-9.142,0-18.044-2.654-25.741-7.679c-21.806-14.223-27.969-43.529-13.751-65.335c8.752-13.417,23.557-21.427,39.598-21.427
		c9.145,0,18.045,2.656,25.742,7.678C361.307,234.798,367.476,264.111,353.257,285.912z"/>
	<g>
		<path fill-rule="evenodd" clip-rule="evenodd" fill="#3F454A" d="M297.132,275.65l35.463-31.252
			c-1.172-1.412-2.506-2.719-4.042-3.862c-10.474-7.82-25.299-5.663-33.12,4.812C288.479,254.68,289.442,267.439,297.132,275.65z"/>
	</g>
</g>
<g>
</g>
<g>
</g>
<g>
</g>
<g>
</g>
<g>
</g>
<g>
</g>
<g>
</g>
<g>
</g>
<g>
</g>
<g>
</g>
<g>
</g>
<g>
</g>
<g>
</g>
<g>
</g>
<g>
</g>
</svg>
