<?xml version="1.0" encoding="utf-8"?>
<!-- Generator: Adobe Illustrator 16.0.0, SVG Export Plug-In . SVG Version: 6.00 Build 0)  -->
<!DOCTYPE svg PUBLIC "-//W3C//DTD SVG 1.1//EN" "http://www.w3.org/Graphics/SVG/1.1/DTD/svg11.dtd">
<svg version="1.1" id="Layer_1" xmlns="http://www.w3.org/2000/svg" xmlns:xlink="http://www.w3.org/1999/xlink" x="0px" y="0px"
	 width="860px" height="273px" viewBox="0 0 860 273" enable-background="new 0 0 860 273" xml:space="preserve">
<g>
	<g>
		<g>
			<defs>
				<path id="SVGID_1_" d="M849.7,55.9H149.2h-2.8H3.7c-2,0-3.7,1.7-3.7,3.7v209.8c0,2,1.6,3.7,3.7,3.7h142.7h2.8h700.6
					c2.2,0,4-1.8,4-4V59.9C853.8,57.7,852,55.9,849.7,55.9z"/>
			</defs>
			<use xlink:href="#SVGID_1_"  overflow="visible" fill="#FFFFFF"/>
			<clipPath id="SVGID_2_">
				<use xlink:href="#SVGID_1_"  overflow="visible"/>
			</clipPath>
		</g>
		<g>
			<path fill="#FFFFFF" d="M10.4,23.1h-2v-6.9L1.2,5.7h2.4l5.8,8.7l5.9-8.7h2.3l-7.2,10.5V23.1z"/>
			<path fill="#FFFFFF" d="M23.6,23.4c-3.8,0-6.6-3-6.6-6.7s2.8-6.7,6.7-6.7c3.8,0,6.7,3,6.7,6.7S27.4,23.4,23.6,23.4z M23.6,11.7
				c-2.8,0-4.7,2.2-4.7,5s2,5,4.7,5c2.8,0,4.7-2.2,4.7-5C28.3,13.9,26.3,11.7,23.6,11.7z"/>
			<path fill="#FFFFFF" d="M42.8,10.3h1.9v12.8h-1.9v-2.2c-0.9,1.4-2.2,2.5-4.4,2.5c-3.1,0-4.9-2.1-4.9-5.1v-8h1.9v7.5
				c0,2.4,1.3,3.9,3.5,3.9c2.2,0,3.8-1.6,3.8-4V10.3z"/>
			<path fill="#FFFFFF" d="M50.9,23.1H49V10.3h1.9v3.3c0.9-2.1,2.8-3.7,5.2-3.6v2.1H56c-2.8,0-5.1,2-5.1,5.9V23.1z"/>
			<path fill="#FFFFFF" d="M73,16.9h-4.2v6.1h-2V5.7h6.5c3.9,0,6.5,2.1,6.5,5.5C79.8,15,76.7,16.9,73,16.9z M73.1,7.5h-4.4v7.6H73
				c2.9,0,4.8-1.5,4.8-3.8C77.8,8.8,75.9,7.5,73.1,7.5z"/>
			<path fill="#FFFFFF" d="M84.9,23.1H83V10.3h1.9v3.3c0.9-2.1,2.8-3.7,5.2-3.6v2.1H90c-2.8,0-5.1,2-5.1,5.9V23.1z"/>
			<path fill="#FFFFFF" d="M98.4,23.4c-3.8,0-6.6-3-6.6-6.7s2.8-6.7,6.7-6.7c3.8,0,6.7,3,6.7,6.7S102.2,23.4,98.4,23.4z M98.4,11.7
				c-2.8,0-4.7,2.2-4.7,5s2,5,4.7,5c2.8,0,4.7-2.2,4.7-5C103.1,13.9,101.1,11.7,98.4,11.7z"/>
			<path fill="#FFFFFF" d="M114.2,27.1c-2.1,0-4.1-0.6-5.8-1.8l0.9-1.5c1.5,1.1,3.1,1.6,4.9,1.6c2.8,0,4.7-1.6,4.7-4.6v-1.5
				c-1.1,1.5-2.7,2.7-5,2.7c-3.1,0-6-2.3-6-6c0-3.8,3-6.1,6-6.1c2.4,0,4,1.2,5,2.6v-2.3h1.9v10.6C120.7,25,118.1,27.1,114.2,27.1z
				 M114.2,11.7c-2.4,0-4.4,1.7-4.4,4.3c0,2.6,2.1,4.4,4.4,4.4c2.4,0,4.7-1.7,4.7-4.4C118.9,13.4,116.6,11.7,114.2,11.7z"/>
			<path fill="#FFFFFF" d="M126.9,23.1H125V10.3h1.9v3.3c0.9-2.1,2.8-3.7,5.2-3.6v2.1H132c-2.8,0-5.1,2-5.1,5.9V23.1z"/>
			<path fill="#FFFFFF" d="M140.1,21.7c1.8,0,3-0.7,4-1.8l1.2,1.1c-1.3,1.4-2.8,2.4-5.3,2.4c-3.5,0-6.4-2.7-6.4-6.7
				c0-3.7,2.6-6.7,6.1-6.7c3.8,0,6,3,6,6.8c0,0.2,0,0.4,0,0.6h-10.2C135.9,20.1,137.9,21.7,140.1,21.7z M143.9,16
				c-0.2-2.3-1.5-4.4-4.1-4.4c-2.2,0-3.9,1.9-4.2,4.4H143.9z"/>
			<path fill="#FFFFFF" d="M153.4,23.3c-1.8,0-3.9-0.7-5.3-1.9l1-1.4c1.4,1,2.9,1.6,4.4,1.6c1.5,0,2.7-0.8,2.7-2v0
				c0-1.3-1.5-1.8-3.2-2.3c-2-0.6-4.2-1.3-4.2-3.6v0c0-2.2,1.8-3.7,4.4-3.7c1.6,0,3.3,0.5,4.6,1.4l-0.9,1.4
				c-1.2-0.8-2.6-1.2-3.8-1.2c-1.5,0-2.5,0.8-2.5,1.9v0c0,1.2,1.6,1.7,3.3,2.2c2,0.6,4.1,1.4,4.1,3.7v0
				C157.9,21.9,155.9,23.3,153.4,23.3z"/>
			<path fill="#FFFFFF" d="M165.5,23.3c-1.8,0-3.9-0.7-5.3-1.9l1-1.4c1.4,1,2.9,1.6,4.4,1.6c1.5,0,2.7-0.8,2.7-2v0
				c0-1.3-1.5-1.8-3.2-2.3c-2-0.6-4.2-1.3-4.2-3.6v0c0-2.2,1.8-3.7,4.4-3.7c1.6,0,3.3,0.5,4.6,1.4l-0.9,1.4
				c-1.2-0.8-2.6-1.2-3.8-1.2c-1.5,0-2.5,0.8-2.5,1.9v0c0,1.2,1.6,1.7,3.3,2.2c2,0.6,4.1,1.4,4.1,3.7v0
				C170,21.9,168,23.3,165.5,23.3z"/>
		</g>
		<g>
			<g>
				<path fill="#FFFFFF" d="M674.4,9.7h1.8l-4,9.7h-1.5l-4-9.7h1.9l2.9,7.4L674.4,9.7z"/>
				<path fill="#FFFFFF" d="M681.1,9.7v9.6h-1.7V9.7H681.1z"/>
				<path fill="#FFFFFF" d="M692.2,11.2h-5.5v2.5h4.8v1.5h-4.8v2.6h5.5v1.5H685V9.7h7.1V11.2z"/>
				<path fill="#FFFFFF" d="M701.4,9.6h1.4l2.4,7.2l2.3-7.1h1.8l-3.4,9.7h-1.5l-2.4-6.9l-2.4,6.9h-1.5l-3.4-9.7h1.8l2.3,7.1
					L701.4,9.6z"/>
			</g>
		</g>
		<path fill="none" stroke="#FFFFFF" stroke-width="2.1097" stroke-miterlimit="10" d="M758.5,14.6c0,7.5-6.1,13.6-13.6,13.6
			c-7.5,0-13.6-6.1-13.6-13.6c0-7.5,6.1-13.6,13.6-13.6C752.4,1.1,758.5,7.1,758.5,14.6z"/>
		<path fill="#FFFFFF" d="M738.8,9.5l3.1,5.1c0.1,0.2,0.3,0.2,0.5,0.1l1.5-1.4c0.2-0.2,0.4-0.1,0.5,0.1l2.1,3.2
			c0.1,0.2,0.4,0.2,0.5,0.1l1-0.9c0.2-0.2,0.4-0.1,0.6,0l3.1,3.9c0.1,0.2,0.1,0.3-0.2,0.3h-13V9.6C738.6,9.3,738.7,9.3,738.8,9.5z"
			/>
		<path opacity="0.5" fill="none" stroke="#FFFFFF" stroke-width="2.1097" stroke-miterlimit="10" d="M808.7,14.6
			c0,7.5-6.1,13.6-13.6,13.6c-7.5,0-13.6-6.1-13.6-13.6c0-7.5,6.1-13.6,13.6-13.6C802.6,1.1,808.7,7.1,808.7,14.6z"/>
		<path opacity="0.5" fill="#FFFFFF" d="M801.6,14.4c-0.1,0-0.5,0-0.7,0c-0.4,0-0.7,0.2-0.7,0.5c0,0.3,0.3,0.5,0.7,0.5
			c0.1,0,0.5,0,0.7,0c0.4,0,0.7-0.2,0.7-0.5C802.3,14.6,802,14.4,801.6,14.4z M795.5,11.2c-2.1,0-3.8,1.7-3.8,3.8
			c0,2.1,1.7,3.8,3.8,3.8c2.1,0,3.8-1.7,3.8-3.8C799.2,12.8,797.5,11.2,795.5,11.2z M790.7,14.9c0-0.3-0.3-0.5-0.7-0.5
			c-0.1,0-0.6,0-0.7,0c-0.4,0-0.7,0.2-0.7,0.5c0,0.3,0.3,0.5,0.7,0.5c0.1,0,0.6,0,0.7,0C790.4,15.5,790.7,15.2,790.7,14.9z
			 M795.5,10.1c0.3,0,0.6-0.3,0.6-0.7c0-0.1,0-0.6,0-0.7c0-0.4-0.2-0.7-0.6-0.7c-0.3,0-0.5,0.3-0.5,0.7c0,0.1,0,0.6,0,0.7
			C794.9,9.8,795.2,10.1,795.5,10.1z M795.5,19.7c-0.3,0-0.5,0.3-0.5,0.7c0,0.1,0,0.6,0,0.7c0,0.4,0.2,0.7,0.5,0.7
			c0.3,0,0.6-0.3,0.6-0.7c0-0.1,0-0.6,0-0.7C796,20,795.8,19.7,795.5,19.7z M800.5,10.7c0.3-0.3,0.3-0.7,0.1-0.9
			c-0.2-0.2-0.6-0.2-0.9,0.1c-0.1,0.1-0.4,0.4-0.5,0.5c-0.3,0.3-0.3,0.7-0.1,0.9c0.2,0.2,0.6,0.2,0.9-0.1
			C800.1,11.1,800.4,10.7,800.5,10.7z M790.9,18.7c-0.1,0.1-0.4,0.4-0.5,0.5c-0.3,0.3-0.3,0.7-0.1,0.9c0.2,0.2,0.6,0.2,0.9-0.1
			c0.1-0.1,0.4-0.4,0.5-0.5c0.3-0.3,0.3-0.7,0.1-0.9C791.6,18.4,791.2,18.4,790.9,18.7z M791.2,9.9c-0.3-0.3-0.7-0.3-0.9-0.1
			c-0.2,0.2-0.2,0.6,0.1,0.9c0.1,0.1,0.4,0.4,0.5,0.5c0.3,0.3,0.7,0.3,0.9,0.1c0.2-0.2,0.2-0.6-0.1-0.9
			C791.6,10.3,791.3,10,791.2,9.9z M799.2,19.5c0.1,0.1,0.4,0.4,0.5,0.5c0.3,0.3,0.7,0.3,0.9,0.1c0.2-0.2,0.2-0.6-0.1-0.9
			c-0.1-0.1-0.4-0.4-0.5-0.5c-0.3-0.3-0.7-0.3-0.9-0.1C798.9,18.8,799,19.2,799.2,19.5z"/>
		<path opacity="0.5" fill="none" stroke="#FFFFFF" stroke-width="2.1097" stroke-miterlimit="10" d="M859,14.6
			c0,7.5-6.1,13.6-13.6,13.6c-7.5,0-13.6-6.1-13.6-13.6c0-7.5,6.1-13.6,13.6-13.6C852.9,1.1,859,7.1,859,14.6z"/>
		<polygon opacity="0.5" fill="#FFFFFF" points="847.2,9.5 852.4,12.5 847.2,15.5 		"/>
		<polygon opacity="0.5" fill="#FFFFFF" points="840.3,7.8 845.5,10.8 840.3,13.8 		"/>
		<polygon opacity="0.5" fill="#FFFFFF" points="843,15.5 848.2,18.5 843,21.5 		"/>
	</g>
	<g>
		<g>
			<g>
				<path fill="#C0C2C3" d="M183.6,233.4h-3.2v-8.7h3.2c2.7,0,4.6,1.9,4.6,4.3S186.3,233.4,183.6,233.4z M183.6,226.1h-1.7v5.9h1.7
					c1.8,0,3-1.2,3-2.9S185.4,226.1,183.6,226.1z"/>
				<path fill="#C0C2C3" d="M197.1,226.1h-4.9v2.3h4.3v1.4h-4.3v2.3h5v1.4h-6.5v-8.7h6.4V226.1z"/>
				<path fill="#C0C2C3" d="M203.7,233.6c-2.5,0-4.4-2-4.4-4.5c0-2.5,1.8-4.5,4.5-4.5c1.6,0,2.6,0.6,3.4,1.4l-1,1.1
					c-0.7-0.6-1.4-1.1-2.4-1.1c-1.7,0-2.9,1.4-2.9,3.1s1.2,3.1,2.9,3.1c1.1,0,1.7-0.4,2.5-1.1l1,1
					C206.3,233,205.3,233.6,203.7,233.6z"/>
			</g>
			<g>
				<path fill="#C0C2C3" d="M262.4,233.6c-1.2,0-2-0.4-2.8-1l0.8-1.2c0.7,0.6,1.2,0.8,2,0.8c1.3,0,2-1.1,2.1-2.7
					c-0.4,0.5-1.1,0.9-2,0.9c-1.8,0-3.1-1.1-3.1-2.8c0-1.7,1.3-3,3.2-3c1.1,0,1.8,0.3,2.4,0.9c0.6,0.6,1.1,1.6,1.1,3.3
					C266.1,231.6,264.7,233.6,262.4,233.6z M262.7,225.9c-1.1,0-1.7,0.7-1.7,1.6c0,0.9,0.7,1.6,1.8,1.6c1.1,0,1.8-0.7,1.8-1.6
					C264.5,226.6,263.8,225.9,262.7,225.9z"/>
			</g>
			<g>
				<path fill="#C0C2C3" d="M323.3,224.7h1.1v8.7h-1.5v-7.2l-1.6,0.4l-0.3-1.2L323.3,224.7z"/>
				<path fill="#C0C2C3" d="M328,227.3l-1.1-0.8c0.8-1.2,1.6-1.8,3.2-1.8c1.7,0,2.9,1.1,2.9,2.6c0,1.4-0.7,2.1-2.3,3.4l-1.8,1.5h4.1
					v1.3h-6.3v-1.2l3-2.5c1.2-1,1.6-1.6,1.6-2.3c0-0.9-0.6-1.3-1.4-1.3S328.7,226.4,328,227.3z"/>
			</g>
			<g>
				<path fill="#C0C2C3" d="M389.6,224.7h1.1v8.7h-1.5v-7.2l-1.6,0.4l-0.3-1.2L389.6,224.7z"/>
				<path fill="#C0C2C3" d="M393.9,224.7h5.2v1.4h-3.9l-0.1,2c0.4-0.1,0.8-0.2,1.4-0.2c1.7,0,3,0.9,3,2.7c0,1.8-1.3,2.9-3.2,2.9
					c-1.3,0-2.4-0.5-3.2-1.3l0.9-1.1c0.7,0.6,1.4,1,2.2,1c1,0,1.7-0.6,1.7-1.5c0-0.9-0.7-1.4-1.8-1.4c-0.6,0-1.2,0.2-1.6,0.4
					l-0.9-0.6L393.9,224.7z"/>
			</g>
			<g>
				<path fill="#C0C2C3" d="M455.9,224.7h1.1v8.7h-1.5v-7.2l-1.6,0.4l-0.3-1.2L455.9,224.7z"/>
				<path fill="#C0C2C3" d="M462.7,233.5c-1.9,0-3.3-1-3.3-2.5c0-1.1,0.6-1.7,1.6-2.1c-0.7-0.4-1.3-1-1.3-1.9c0-1.3,1.3-2.4,3-2.4
					s3,1,3,2.4c0,1-0.5,1.6-1.3,1.9c0.9,0.4,1.6,1.1,1.6,2.1C466,232.6,464.6,233.5,462.7,233.5z M462.7,229.6c-1,0-1.8,0.5-1.8,1.3
					c0,0.7,0.7,1.3,1.8,1.3c1.1,0,1.8-0.6,1.8-1.3C464.5,230.1,463.7,229.6,462.7,229.6z M462.7,225.9c-0.9,0-1.5,0.5-1.5,1.2
					c0,0.8,0.7,1.3,1.5,1.3c0.9,0,1.5-0.5,1.5-1.3C464.3,226.4,463.7,225.9,462.7,225.9z"/>
			</g>
			<g>
				<path fill="#C0C2C3" d="M521.6,227.3l-1.1-0.8c0.8-1.2,1.6-1.8,3.2-1.8c1.7,0,2.9,1.1,2.9,2.6c0,1.4-0.7,2.1-2.3,3.4l-1.8,1.5
					h4.1v1.3h-6.3v-1.2l3-2.5c1.2-1,1.6-1.6,1.6-2.3c0-0.9-0.6-1.3-1.4-1.3S522.2,226.4,521.6,227.3z"/>
				<path fill="#C0C2C3" d="M530.6,224.7h1.1v8.7h-1.5v-7.2l-1.6,0.4l-0.3-1.2L530.6,224.7z"/>
			</g>
		</g>
		<polyline fill="none" stroke="#E3E3E3" stroke-width="3.5929" points="524.4,123.9 467.5,155.6 410.1,152 350.3,169 293.3,169 
			233.8,185.3 179.3,177.8 		"/>
		<circle fill="#8CC63F" cx="524.4" cy="123.7" r="5.2"/>
	</g>
	<g>
		<path fill="#8795A2" d="M611,180h-1.2v-4l-4.2-6.2h1.4l3.4,5.1l3.5-5.1h1.3l-4.2,6.1V180z"/>
		<path fill="#8795A2" d="M618.7,180.1c-2.3,0-3.9-1.8-3.9-3.9s1.7-3.9,3.9-3.9c2.3,0,3.9,1.8,3.9,3.9
			C622.7,178.3,621,180.1,618.7,180.1z M618.7,173.3c-1.6,0-2.8,1.3-2.8,2.9c0,1.6,1.2,2.9,2.8,2.9c1.6,0,2.8-1.3,2.8-2.9
			C621.5,174.6,620.3,173.3,618.7,173.3z"/>
		<path fill="#8795A2" d="M630,172.4h1.1v7.5H630v-1.3c-0.5,0.8-1.3,1.5-2.6,1.5c-1.8,0-2.9-1.2-2.9-3v-4.7h1.1v4.4
			c0,1.4,0.8,2.3,2.1,2.3c1.3,0,2.3-0.9,2.3-2.4V172.4z"/>
		<path fill="#8795A2" d="M634.1,171.3h-0.5v-1.5h1.3v1.3c0,1.2-0.5,1.7-1.6,2l-0.2-0.5C633.9,172.3,634.2,171.9,634.1,171.3z"/>
		<path fill="#8795A2" d="M642.8,172.4h1.2l-3.3,7.6h-1l-3.3-7.6h1.2l2.5,6.2L642.8,172.4z"/>
		<path fill="#8795A2" d="M648.6,179.2c1,0,1.8-0.4,2.4-1.1l0.7,0.6c-0.8,0.8-1.7,1.4-3.1,1.4c-2.1,0-3.8-1.6-3.8-3.9
			c0-2.2,1.5-3.9,3.6-3.9c2.2,0,3.5,1.8,3.5,4c0,0.1,0,0.2,0,0.3h-6C646.1,178.3,647.3,179.2,648.6,179.2z M650.8,175.8
			c-0.1-1.4-0.9-2.6-2.4-2.6c-1.3,0-2.3,1.1-2.4,2.6H650.8z"/>
		<path fill="#8795A2" d="M659.4,180h-1.1v-7.5h1.1v2c0.6-1.3,1.6-2.2,3.1-2.1v1.2h-0.1c-1.6,0-3,1.2-3,3.4V180z"/>
		<path fill="#8795A2" d="M669.5,172.4h1.1v7.5h-1.1v-1.3c-0.5,0.8-1.3,1.5-2.6,1.5c-1.8,0-2.9-1.2-2.9-3v-4.7h1.1v4.4
			c0,1.4,0.8,2.3,2.1,2.3c1.3,0,2.3-0.9,2.3-2.4V172.4z"/>
		<path fill="#8795A2" d="M674.3,180h-1.1v-7.5h1.1v1.3c0.5-0.8,1.3-1.5,2.6-1.5c1.8,0,2.9,1.2,2.9,3v4.7h-1.1v-4.4
			c0-1.4-0.8-2.3-2.1-2.3c-1.3,0-2.3,0.9-2.3,2.4V180z"/>
		<path fill="#8795A2" d="M690.4,172.5v1H688v6.5h-1.1v-6.5h-1v-1h1v-0.7c0-1.6,0.8-2.5,2.3-2.5c0.5,0,0.9,0.1,1.2,0.2v1
			c-0.4-0.1-0.7-0.2-1.1-0.2c-0.9,0-1.3,0.5-1.3,1.6v0.6H690.4z"/>
		<path fill="#8795A2" d="M692,173.9l-0.3-0.9c0.8-0.4,1.6-0.6,2.7-0.6c2.1,0,3.2,1,3.2,3v4.6h-1.1v-1.1c-0.5,0.7-1.4,1.3-2.7,1.3
			c-1.4,0-2.8-0.8-2.8-2.4c0-1.6,1.3-2.4,3.2-2.4c1,0,1.6,0.1,2.3,0.3v-0.3c0-1.4-0.8-2.1-2.2-2.1
			C693.4,173.3,692.7,173.6,692,173.9z M692.2,177.7c0,1,0.9,1.5,1.9,1.5c1.4,0,2.5-0.8,2.5-2v-0.7c-0.6-0.2-1.3-0.3-2.2-0.3
			C692.9,176.2,692.2,176.8,692.2,177.7z"/>
		<path fill="#8795A2" d="M701.1,180H700v-7.5h1.1v2c0.6-1.3,1.6-2.2,3.1-2.1v1.2h-0.1c-1.6,0-3,1.2-3,3.4V180z"/>
		<path fill="#8795A2" d="M707.4,177.8c0,0.9,0.5,1.3,1.3,1.3c0.4,0,0.7-0.1,1.1-0.3v1c-0.4,0.2-0.8,0.3-1.4,0.3
			c-1.2,0-2.1-0.6-2.1-2.1v-4.5h-1v-1h1v-2.3h1.1v2.3h2.4v1h-2.4V177.8z"/>
		<path fill="#8795A2" d="M712.9,180h-1.1v-10.6h1.1v4.4c0.5-0.8,1.3-1.5,2.6-1.5c1.8,0,2.9,1.2,2.9,3v4.7h-1.1v-4.4
			c0-1.4-0.8-2.3-2.1-2.3c-1.3,0-2.3,0.9-2.3,2.4V180z"/>
		<path fill="#8795A2" d="M724.1,179.2c1,0,1.8-0.4,2.4-1.1l0.7,0.6c-0.8,0.8-1.7,1.4-3.1,1.4c-2.1,0-3.8-1.6-3.8-3.9
			c0-2.2,1.5-3.9,3.6-3.9c2.2,0,3.5,1.8,3.5,4c0,0.1,0,0.2,0,0.3h-6C721.6,178.3,722.7,179.2,724.1,179.2z M726.3,175.8
			c-0.1-1.4-0.9-2.6-2.4-2.6c-1.3,0-2.3,1.1-2.4,2.6H726.3z"/>
		<path fill="#8795A2" d="M730.5,180h-1.1v-7.5h1.1v2c0.6-1.3,1.6-2.2,3.1-2.1v1.2h-0.1c-1.6,0-3,1.2-3,3.4V180z"/>
		<path fill="#8795A2" d="M741.1,177.8c0,0.9,0.5,1.3,1.3,1.3c0.4,0,0.7-0.1,1.1-0.3v1c-0.4,0.2-0.8,0.3-1.4,0.3
			c-1.2,0-2.1-0.6-2.1-2.1v-4.5h-1v-1h1v-2.3h1.1v2.3h2.4v1h-2.4V177.8z"/>
		<path fill="#8795A2" d="M746.6,180h-1.1v-10.6h1.1v4.4c0.5-0.8,1.3-1.5,2.6-1.5c1.8,0,2.9,1.2,2.9,3v4.7H751v-4.4
			c0-1.4-0.8-2.3-2.1-2.3c-1.3,0-2.3,0.9-2.3,2.4V180z"/>
		<path fill="#8795A2" d="M754.9,173.9l-0.3-0.9c0.8-0.4,1.6-0.6,2.7-0.6c2.1,0,3.2,1,3.2,3v4.6h-1.1v-1.1c-0.5,0.7-1.4,1.3-2.7,1.3
			c-1.4,0-2.8-0.8-2.8-2.4c0-1.6,1.3-2.4,3.2-2.4c1,0,1.6,0.1,2.3,0.3v-0.3c0-1.4-0.8-2.1-2.2-2.1
			C756.3,173.3,755.6,173.6,754.9,173.9z M755,177.7c0,1,0.9,1.5,1.9,1.5c1.4,0,2.5-0.8,2.5-2v-0.7c-0.6-0.2-1.3-0.3-2.2-0.3
			C755.8,176.2,755,176.8,755,177.7z"/>
		<path fill="#8795A2" d="M764,180h-1.1v-7.5h1.1v1.3c0.5-0.8,1.3-1.5,2.6-1.5c1.8,0,2.9,1.2,2.9,3v4.7h-1.1v-4.4
			c0-1.4-0.8-2.3-2.1-2.3c-1.3,0-2.3,0.9-2.3,2.4V180z"/>
		<path fill="#8795A2" d="M608.1,190.4h0.8v10.3h-1.1v-9.1l-1.9,0.6l-0.3-0.9L608.1,190.4z"/>
		<path fill="#8795A2" d="M612.2,190.4h5.9v1.1h-4.9l-0.2,3.3c0.6-0.3,1.2-0.5,2-0.5c2,0,3.5,1.2,3.5,3.1c0,2-1.5,3.4-3.6,3.4
			c-1.5,0-2.7-0.7-3.6-1.6l0.8-0.8c0.9,0.9,1.9,1.4,2.9,1.4c1.5,0,2.5-1,2.5-2.3c0-1.3-1-2.2-2.5-2.2c-0.9,0-1.5,0.3-2.1,0.6
			l-0.8-0.5L612.2,190.4z"/>
		<path fill="#8795A2" d="M628.9,193.1v1h-2.4v6.5h-1.1v-6.5h-1v-1h1v-0.7c0-1.6,0.8-2.5,2.3-2.5c0.5,0,0.9,0.1,1.2,0.2v1
			c-0.4-0.1-0.7-0.2-1.1-0.2c-0.9,0-1.3,0.5-1.3,1.6v0.6H628.9z"/>
		<path fill="#8795A2" d="M633.6,200.8c-2.3,0-3.9-1.8-3.9-3.9s1.7-3.9,3.9-3.9c2.3,0,3.9,1.8,3.9,3.9
			C637.5,199,635.8,200.8,633.6,200.8z M633.6,193.9c-1.6,0-2.8,1.3-2.8,2.9c0,1.6,1.2,2.9,2.8,2.9c1.6,0,2.8-1.3,2.8-2.9
			C636.4,195.2,635.2,193.9,633.6,193.9z"/>
		<path fill="#8795A2" d="M643,200.8c-2.3,0-3.9-1.8-3.9-3.9s1.7-3.9,3.9-3.9c2.3,0,3.9,1.8,3.9,3.9
			C646.9,199,645.2,200.8,643,200.8z M643,193.9c-1.6,0-2.8,1.3-2.8,2.9c0,1.6,1.2,2.9,2.8,2.9c1.6,0,2.8-1.3,2.8-2.9
			C645.8,195.2,644.6,193.9,643,193.9z"/>
		<path fill="#8795A2" d="M650.5,198.5c0,0.9,0.5,1.3,1.3,1.3c0.4,0,0.7-0.1,1.1-0.3v1c-0.4,0.2-0.8,0.3-1.4,0.3
			c-1.2,0-2.1-0.6-2.1-2.1v-4.5h-1v-1h1v-2.3h1.1v2.3h2.4v1h-2.4V198.5z"/>
		<path fill="#8795A2" d="M658.8,200.8c-1.4,0-2.3-0.8-2.9-1.6v1.4h-1.1V190h1.1v4.6c0.6-0.9,1.5-1.7,2.9-1.7c1.8,0,3.6,1.4,3.6,3.9
			C662.4,199.3,660.6,200.8,658.8,200.8z M658.6,193.9c-1.4,0-2.7,1.2-2.7,2.9c0,1.8,1.3,2.9,2.7,2.9c1.5,0,2.6-1.1,2.6-2.9
			C661.3,195.1,660,193.9,658.6,193.9z"/>
		<path fill="#8795A2" d="M664.9,194.5l-0.3-0.9c0.8-0.4,1.6-0.6,2.7-0.6c2.1,0,3.2,1,3.2,3v4.6h-1.1v-1.1c-0.5,0.7-1.4,1.3-2.7,1.3
			c-1.4,0-2.8-0.8-2.8-2.4c0-1.6,1.3-2.4,3.2-2.4c1,0,1.6,0.1,2.3,0.3V196c0-1.4-0.8-2.1-2.2-2.1C666.3,194,665.6,194.2,664.9,194.5
			z M665,198.4c0,1,0.9,1.5,1.9,1.5c1.4,0,2.5-0.8,2.5-2v-0.7c-0.6-0.2-1.3-0.3-2.2-0.3C665.8,196.8,665,197.4,665,198.4z"/>
		<path fill="#8795A2" d="M673,200.6V190h1.1v10.6H673z"/>
		<path fill="#8795A2" d="M676.8,200.6V190h1.1v10.6H676.8z"/>
		<path fill="#8795A2" d="M688.8,193.1v1h-2.4v6.5h-1.1v-6.5h-1v-1h1v-0.7c0-1.6,0.8-2.5,2.3-2.5c0.5,0,0.9,0.1,1.2,0.2v1
			c-0.4-0.1-0.7-0.2-1.1-0.2c-0.9,0-1.3,0.5-1.3,1.6v0.6H688.8z"/>
		<path fill="#8795A2" d="M690.3,191.5v-1.2h1.3v1.2H690.3z M690.4,200.6v-7.5h1.1v7.5H690.4z"/>
		<path fill="#8795A2" d="M697.4,199.8c1,0,1.8-0.4,2.4-1.1l0.7,0.6c-0.8,0.8-1.7,1.4-3.1,1.4c-2.1,0-3.8-1.6-3.8-3.9
			c0-2.2,1.5-3.9,3.6-3.9c2.2,0,3.5,1.8,3.5,4c0,0.1,0,0.2,0,0.3h-6C694.9,198.9,696.1,199.8,697.4,199.8z M699.6,196.4
			c-0.1-1.4-0.9-2.6-2.4-2.6c-1.3,0-2.3,1.1-2.4,2.6H699.6z"/>
		<path fill="#8795A2" d="M702.8,200.6V190h1.1v10.6H702.8z"/>
		<path fill="#8795A2" d="M712.6,200.6v-1.5c-0.6,0.9-1.5,1.7-2.9,1.7c-1.8,0-3.6-1.4-3.6-3.9c0-2.5,1.8-3.9,3.6-3.9
			c1.4,0,2.3,0.8,2.9,1.6V190h1.1v10.6H712.6z M709.9,193.9c-1.5,0-2.6,1.1-2.6,2.9c0,1.8,1.2,2.9,2.6,2.9c1.4,0,2.7-1.2,2.7-2.9
			C712.6,195.1,711.3,193.9,709.9,193.9z"/>
		<path fill="#8795A2" d="M718.7,200.8c-1.1,0-2.3-0.4-3.1-1.1l0.6-0.8c0.8,0.6,1.7,1,2.6,1c0.9,0,1.6-0.5,1.6-1.2v0
			c0-0.8-0.9-1-1.9-1.3c-1.2-0.3-2.5-0.7-2.5-2.1v0c0-1.3,1.1-2.2,2.6-2.2c0.9,0,1.9,0.3,2.7,0.8l-0.5,0.8c-0.7-0.5-1.5-0.7-2.2-0.7
			c-0.9,0-1.5,0.5-1.5,1.1v0c0,0.7,0.9,1,1.9,1.3c1.2,0.3,2.4,0.8,2.4,2.2v0C721.4,199.9,720.2,200.8,718.7,200.8z"/>
		<path fill="#8795A2" d="M723.5,200.6v-1.5h1.3v1.5H723.5z M724.8,190.4v0.8l-0.3,6.5h-0.6l-0.3-6.5v-0.8H724.8z"/>
	</g>
	<g>
		<path fill="#8795A2" d="M605.8,146.3l1.4-0.3c0.3-0.1,0.5,0,0.6,0.3c0.6,2,2.2,4.3,5.9,4.3c3.6,0,5.9-2.5,5.9-6
			c0-3.6-2.4-6.1-6.1-6.1h-1.3c-0.3,0-0.4-0.2-0.4-0.4v-1.4c0-0.3,0.2-0.4,0.4-0.4h1.3c3.3,0,5.5-2.3,5.5-5.5c0-3.2-2-5.4-5.4-5.4
			c-3.3,0-4.9,2-5.4,4.1c0,0.3-0.3,0.4-0.5,0.3l-1.4-0.4c-0.3,0-0.4-0.3-0.3-0.5c0.6-3,3.1-5.8,7.7-5.8c4.7,0,7.7,3.1,7.7,7.5
			c0,3.4-2,5.4-3.9,6.5v0.1c1.9,0.8,4.4,3.1,4.4,7.3c0,4.9-3.3,8.3-8.2,8.3s-7.5-2.9-8.1-5.9C605.5,146.6,605.6,146.4,605.8,146.3z"
			/>
		<path fill="#8795A2" d="M628.2,138c0-6.9,0.3-8.6,0.6-9.7c1.1-3.3,3.8-5.2,7.4-5.2s6.3,1.8,7.4,5.2c0.3,1,0.6,2.8,0.6,9.7
			c0,6.9-0.3,8.6-0.6,9.7c-1.1,3.3-3.8,5.2-7.4,5.2s-6.3-1.8-7.4-5.2C628.5,146.6,628.2,144.9,628.2,138z M636.2,150.7
			c2.5,0,4.4-1.1,5.2-3.5c0.3-0.9,0.6-2.5,0.6-9.1c0-6.6-0.3-8.2-0.6-9.1c-0.8-2.4-2.6-3.5-5.2-3.5c-2.5,0-4.4,1.1-5.2,3.5
			c-0.3,0.9-0.6,2.5-0.6,9.1c0,6.6,0.3,8.2,0.6,9.1C631.9,149.6,633.7,150.7,636.2,150.7z"/>
		<path fill="#8795A2" d="M688.4,152.4c-0.3,0-0.4-0.2-0.4-0.4V140c0-4-1.8-6.1-5.3-6.1c-3.1,0-5.5,2.1-5.5,5.6V152
			c0,0.3-0.2,0.4-0.4,0.4h-1.4c-0.3,0-0.4-0.2-0.4-0.4V140c0-4-1.8-6.1-5.3-6.1c-3.1,0-5.5,2.1-5.5,5.6V152c0,0.3-0.2,0.4-0.4,0.4
			h-1.4c-0.3,0-0.4-0.2-0.4-0.4v-19.4c0-0.3,0.2-0.4,0.4-0.4h1.4c0.3,0,0.4,0.2,0.4,0.4v2.4h0c1-2,3.1-3.3,6-3.3
			c3.1,0,5.2,1.3,6.3,3.8h0c1.2-2.3,3.3-3.8,6.6-3.8c4.6,0,7.2,2.8,7.2,7.7V152c0,0.3-0.2,0.4-0.4,0.4H688.4z"/>
		<path fill="#8795A2" d="M698,126.8c-0.3,0-0.4-0.2-0.4-0.4V124c0-0.3,0.2-0.4,0.4-0.4h1.9c0.3,0,0.4,0.2,0.4,0.4v2.4
			c0,0.3-0.2,0.4-0.4,0.4H698z M698.2,152.4c-0.3,0-0.4-0.2-0.4-0.4v-19.4c0-0.3,0.2-0.4,0.4-0.4h1.4c0.3,0,0.4,0.2,0.4,0.4V152
			c0,0.3-0.2,0.4-0.4,0.4H698.2z"/>
	</g>
	<g>
		<g>
			<path fill="#8795A2" d="M63.7,159.6h-2.5v3.6H60V153h3.8c2.3,0,3.8,1.2,3.8,3.2C67.7,158.5,65.8,159.6,63.7,159.6z M63.8,154.1
				h-2.6v4.5h2.5c1.7,0,2.8-0.9,2.8-2.3C66.5,154.8,65.4,154.1,63.8,154.1z"/>
			<path fill="#8795A2" d="M69.9,157.1l-0.3-0.9c0.8-0.4,1.6-0.6,2.7-0.6c2.1,0,3.2,1,3.2,3v4.6h-1.1v-1.1c-0.5,0.7-1.4,1.3-2.7,1.3
				c-1.4,0-2.8-0.8-2.8-2.4c0-1.6,1.3-2.4,3.2-2.4c1,0,1.6,0.1,2.3,0.3v-0.3c0-1.4-0.8-2.1-2.2-2.1
				C71.3,156.6,70.6,156.8,69.9,157.1z M70,161c0,1,0.9,1.5,1.9,1.5c1.4,0,2.5-0.8,2.5-2v-0.7c-0.6-0.2-1.3-0.3-2.2-0.3
				C70.8,159.4,70,160,70,161z"/>
			<path fill="#8795A2" d="M80.3,163.4c-1.1,0-2.3-0.4-3.1-1.1l0.6-0.8c0.8,0.6,1.7,1,2.6,1c0.9,0,1.6-0.5,1.6-1.2v0
				c0-0.8-0.9-1-1.9-1.3c-1.2-0.3-2.5-0.7-2.5-2.1v0c0-1.3,1.1-2.2,2.6-2.2c0.9,0,1.9,0.3,2.7,0.8l-0.5,0.8
				c-0.7-0.5-1.5-0.7-2.2-0.7c-0.9,0-1.5,0.5-1.5,1.1v0c0,0.7,0.9,1,1.9,1.3c1.2,0.3,2.4,0.8,2.4,2.2v0
				C83,162.5,81.8,163.4,80.3,163.4z"/>
			<path fill="#8795A2" d="M86.5,161.1c0,0.9,0.5,1.3,1.3,1.3c0.4,0,0.7-0.1,1.1-0.3v1c-0.4,0.2-0.8,0.3-1.4,0.3
				c-1.2,0-2.1-0.6-2.1-2.1v-4.5h-1v-1h1v-2.3h1.1v2.3h2.4v1h-2.4V161.1z"/>
			<path fill="#8795A2" d="M95.7,155.7l-0.8-0.6c0.9-1.4,1.9-2.2,3.7-2.2c1.8,0,3.2,1.2,3.2,2.9c0,1.5-0.8,2.4-2.6,4l-2.7,2.4h5.4v1
				h-7.1v-0.9l3.7-3.3c1.6-1.4,2.1-2.2,2.1-3.2c0-1.2-0.9-2-2.1-2C97.2,153.9,96.5,154.5,95.7,155.7z"/>
			<path fill="#8795A2" d="M114.6,153h0.9l2.8,8.5l2.9-8.5h1.2l-3.6,10.3h-1l-2.8-8.3l-2.8,8.3h-1l-3.6-10.3h1.3l2.9,8.5L114.6,153z
				"/>
			<path fill="#8795A2" d="M126.7,162.4c1,0,1.8-0.4,2.4-1.1l0.7,0.6c-0.8,0.8-1.7,1.4-3.1,1.4c-2.1,0-3.8-1.6-3.8-3.9
				c0-2.2,1.5-3.9,3.6-3.9c2.2,0,3.5,1.8,3.5,4c0,0.1,0,0.2,0,0.3h-6C124.3,161.5,125.4,162.4,126.7,162.4z M128.9,159
				c-0.1-1.4-0.9-2.6-2.4-2.6c-1.3,0-2.3,1.1-2.4,2.6H128.9z"/>
			<path fill="#8795A2" d="M135.4,162.4c1,0,1.8-0.4,2.4-1.1l0.7,0.6c-0.8,0.8-1.7,1.4-3.1,1.4c-2.1,0-3.8-1.6-3.8-3.9
				c0-2.2,1.5-3.9,3.6-3.9c2.2,0,3.5,1.8,3.5,4c0,0.1,0,0.2,0,0.3h-6C132.9,161.5,134,162.4,135.4,162.4z M137.6,159
				c-0.1-1.4-0.9-2.6-2.4-2.6c-1.3,0-2.3,1.1-2.4,2.6H137.6z"/>
			<path fill="#8795A2" d="M147.3,163.2H146l-2.7-3.5l-1.5,1.5v2h-1.1v-10.6h1.1v7.3l4.1-4.2h1.4l-3.2,3.2L147.3,163.2z"/>
			<path fill="#8795A2" d="M151.4,163.4c-1.1,0-2.3-0.4-3.1-1.1l0.6-0.8c0.8,0.6,1.7,1,2.6,1c0.9,0,1.6-0.5,1.6-1.2v0
				c0-0.8-0.9-1-1.9-1.3c-1.2-0.3-2.5-0.7-2.5-2.1v0c0-1.3,1.1-2.2,2.6-2.2c0.9,0,1.9,0.3,2.7,0.8l-0.5,0.8
				c-0.7-0.5-1.5-0.7-2.2-0.7c-0.9,0-1.5,0.5-1.5,1.1v0c0,0.7,0.9,1,1.9,1.3c1.2,0.3,2.4,0.8,2.4,2.2v0
				C154.1,162.5,152.9,163.4,151.4,163.4z"/>
		</g>
	</g>
	<polyline fill="none" stroke="#8795A2" stroke-width="1.2655" points="45.8,156 37.9,162.2 30.1,156 	"/>
	<g>
		<path opacity="0.9" fill="#8CC63F" d="M291.3,97.6c-15.1,0-27.4,12.3-27.4,27.4c0,12.4,8.2,22.8,19.5,26.2l7.9,9.3l7.9-9.3
			c11.3-3.4,19.5-13.8,19.5-26.2C318.7,109.8,306.4,97.6,291.3,97.6z"/>
	</g>
	<g>
		<path fill="#FFFFFF" d="M284,116.6L284,116.6l-3.4,2.3c-0.1,0.1-0.3,0.1-0.3-0.2v-1.1c0-0.2,0.1-0.3,0.2-0.4l3.4-2.4
			c0.1-0.1,0.2-0.2,0.4-0.2h0.9c0.2,0,0.3,0.1,0.3,0.3v17.7c0,0.2-0.1,0.3-0.3,0.3h-0.9c-0.2,0-0.3-0.1-0.3-0.3V116.6z"/>
		<path fill="#FFFFFF" d="M293.5,129l0.9-0.2c0.2-0.1,0.3,0,0.3,0.2c0.4,1.3,1.4,2.7,3.8,2.7c2.3,0,3.7-1.6,3.7-3.8
			c0-2.3-1.5-3.9-3.8-3.9h-0.8c-0.2,0-0.3-0.1-0.3-0.3v-0.9c0-0.2,0.1-0.3,0.3-0.3h0.8c2.1,0,3.5-1.4,3.5-3.5c0-2-1.3-3.4-3.4-3.4
			c-2.1,0-3.1,1.3-3.4,2.6c0,0.2-0.2,0.2-0.3,0.2l-0.9-0.2c-0.2,0-0.2-0.2-0.2-0.3c0.3-1.9,2-3.7,4.9-3.7c3,0,4.9,2,4.9,4.8
			c0,2.1-1.3,3.4-2.4,4.1v0.1c1.2,0.5,2.8,2,2.8,4.6c0,3.1-2.1,5.2-5.2,5.2s-4.7-1.9-5.1-3.8C293.3,129.2,293.3,129.1,293.5,129z"/>
	</g>
</g>
<g>
</g>
<g>
</g>
<g>
</g>
<g>
</g>
<g>
</g>
<g>
</g>
<g>
</g>
<g>
</g>
<g>
</g>
<g>
</g>
<g>
</g>
<g>
</g>
<g>
</g>
<g>
</g>
<g>
</g>
</svg>
