<svg xmlns="http://www.w3.org/2000/svg" width="857" height="656" viewBox="0 0 857 656" xmlns:xlink="http://www.w3.org/1999/xlink"><defs><path id="path-1" d="M21.1894389 22.1478896c5.0726671-.0000013 8.8771674-.0000024 11.4135009-.0000031.6606233-e-7 1.6515583-e-7 2.9728049-e-7V.90710533H.23776164C4.9329752 10.0566893 12.2719933 17.5075155 21.1894389 22.1478896z"/><path id="path-3" d="M.41829268.0105238H57.097561v49.7794159H.41829268V.0105238z"/><path id="path-5" d="M99.9268908 153.714156V0H.00005863v153.714156H99.9268908z"/><path id="path-7" d="M99.4141665 149.831702V.08012403H.00224865V149.831702z"/></defs><g id="Designs" fill="none" fill-rule="evenodd"><g id="1-Case-Study"><g id="langur-icons"><g id="Group-9"><path id="+" fill="#F6F1DF" d="M353.912 609.048V606.6h-3.072v-3.072h-2.448v3.072h-3.072v2.448h3.072v3.072h2.448v-3.072z"/><path id="+-copy-3" fill="#F6F1DF" d="M516.912 609.048V606.6h-3.072v-3.072h-2.448v3.072h-3.072v2.448h3.072v3.072h2.448v-3.072z"/><path id="Movement" fill="#F6F1DF" d="M190.42 615l-2.184-2.184v-12.624l2.184-2.184h-6.264l-3.912 6.96-3.912-6.96h-6.792l2.184 2.184v12.624L169.54 615h6.72l-2.184-2.184V602.76l4.824 8.712 4.824-8.688v10.032L181.54 615h8.88zm15-6.096c0 3.768-3.312 6.408-7.056 6.408s-7.056-2.64-7.056-6.408c0-3.768 3.312-6.408 7.056-6.408s7.056 2.64 7.056 6.408zm-5.112 0c0-2.088-.024-4.656-1.944-4.656s-1.944 2.568-1.944 4.656c0 2.088.024 4.656 1.944 4.656s1.944-2.568 1.944-4.656zm20.736-6.096l-2.064 2.064L214.66 615h-2.784l-4.32-10.128-2.064-2.064h8.76l-2.04 2.04 2.352 5.544 2.28-5.544-2.04-2.04h6.24zm12.384 6.36h-7.32v.744c0 2.712 1.248 3.432 2.568 3.432 1.368 0 2.448-.648 3.456-1.632l1.224 1.224c-1.656 1.632-3.624 2.376-5.784 2.376-3.744 0-6.576-2.856-6.576-6.408 0-3.576 2.784-6.408 6.696-6.408 3.528 0 6.72 2.976 5.736 6.672zm-5.736-4.8c-1.032 0-1.584.936-1.584 2.928h2.736c.576-.888.264-2.928-1.152-2.928zM256.996 615l-2.064-2.064v-7.344c0-1.728-.744-3.096-2.472-3.096-1.488 0-2.64 1.008-3.456 1.824l-1.032 1.032c-.072-1.464-.72-2.856-2.472-2.856-1.056 0-2.112.48-3.456 1.824l-1.032 1.032v-2.856l-6.408 2.136 2.016 2.016v6.288L234.556 615h8.52l-2.064-2.064v-5.616l.936-.936c.264-.264.672-.624 1.056-.624.48 0 .576.36.576.792V615h6.456l-2.064-2.064v-5.616l.936-.936c.288-.288.648-.624 1.056-.624.432 0 .576.312.576.792V615h6.456zm13.104-5.832h-7.32v.744c0 2.712 1.248 3.432 2.568 3.432 1.368 0 2.448-.648 3.456-1.632l1.224 1.224c-1.656 1.632-3.624 2.376-5.784 2.376-3.744 0-6.576-2.856-6.576-6.408 0-3.576 2.784-6.408 6.696-6.408 3.528 0 6.72 2.976 5.736 6.672zm-5.736-4.8c-1.032 0-1.584.936-1.584 2.928h2.736c.576-.888.264-2.928-1.152-2.928zM287.5 615h-6.576v-8.664c0-.48-.288-.912-.768-.912-.384 0-.816.336-1.224.744l-1.128 1.128v5.64l2.064 2.064h-8.64l2.064-2.064v-6.288l-2.016-2.016 6.528-2.136v2.832l1.032-1.032c1.128-1.128 2.28-1.8 3.672-1.8 1.368 0 2.928.984 2.928 2.832v7.608L287.5 615zm9.864-10.32h-3.48v8.328c1.08.192 1.752-.168 2.544-.888l1.08 1.08c-.984 1.392-2.328 2.04-3.744 2.04-2.736 0-4.392-1.416-4.392-4.08v-5.4h-2.184l6.696-6.696v3.744h3.48v1.872z"/><path id="Form" fill="#F6F1DF" d="M413.84 602.784v-4.776h-13.296l2.184 2.184v12.624L400.544 615h8.88l-2.184-2.184v-5.856h2.616l2.184 2.184v-6.48l-2.184 2.184h-2.616v-4.728h3.936l2.664 2.664zm15.144 6.12c0 3.768-3.312 6.408-7.056 6.408s-7.056-2.64-7.056-6.408c0-3.768 3.312-6.408 7.056-6.408s7.056 2.64 7.056 6.408zm-5.112 0c0-2.088-.024-4.656-1.944-4.656s-1.944 2.568-1.944 4.656c0 2.088.024 4.656 1.944 4.656s1.944-2.568 1.944-4.656zm12.576-1.896l1.848-1.872 3.432 3.432v-5.976s-.96-.096-1.224-.096c-1.68 0-2.664.672-3.264 1.32l-.792.864v-2.184l-6.528 2.136 2.016 2.016v6.288L429.872 615h8.64l-2.064-2.064v-5.928zM464.672 615l-2.064-2.064v-7.344c0-1.728-.744-3.096-2.472-3.096-1.488 0-2.64 1.008-3.456 1.824l-1.032 1.032c-.072-1.464-.72-2.856-2.472-2.856-1.056 0-2.112.48-3.456 1.824l-1.032 1.032v-2.856l-6.408 2.136 2.016 2.016v6.288L442.232 615h8.52l-2.064-2.064v-5.616l.936-.936c.264-.264.672-.624 1.056-.624.48 0 .576.36.576.792V615h6.456l-2.064-2.064v-5.616l.936-.936c.288-.288.648-.624 1.056-.624.432 0 .576.312.576.792V615h6.456z"/><path id="Symbolism" fill="#F6F1DF" d="M577.98 609.528c0 3.36-1.944 5.856-6.288 5.856-.696 0-1.488-.072-2.208-.192l-3.504-.624 1.944-3.84 1.728 2.16c.552.552 1.248.768 1.944.768 1.248 0 2.304-.816 2.304-2.232 0-.936-.552-1.416-1.248-1.92l-3.192-2.256c-1.56-1.104-2.712-2.664-2.712-4.56 0-2.304 1.488-5.064 5.616-5.064.792 0 1.608.096 2.328.216l3.384.624-1.944 3.624-1.632-1.992c-.408-.384-.864-.672-1.584-.672-.864 0-1.92.432-1.92 1.92 0 .648.384 1.2.936 1.584l3.528 2.448c.816.552 2.52 1.896 2.52 4.152zm15.432-6.72l-2.064 2.064-5.592 12.888 2.04 2.04h-6.984l2.688-2.064 1.176-2.712-4.656-10.152-2.064-2.064h8.76l-2.04 2.04 2.256 5.016 2.16-5.016-2.04-2.04h6.36zM615.156 615H608.7v-8.448c0-.48-.144-.792-.576-.792-.408 0-.768.336-1.056.624l-.936.936v5.616l2.064 2.064h-6.456v-8.448c0-.432-.096-.792-.576-.792-.384 0-.792.36-1.056.624l-.936.936v5.616l2.064 2.064h-8.52l2.064-2.064v-6.288l-2.016-2.016 6.408-2.136v2.856l1.032-1.032c1.344-1.344 2.4-1.824 3.456-1.824 1.752 0 2.4 1.392 2.472 2.856l1.032-1.032c.816-.816 1.968-1.824 3.456-1.824 1.728 0 2.472 1.368 2.472 3.096v7.344l2.064 2.064zm14.568-6.096c0 3.84-2.352 6.408-5.184 6.408-1.968 0-3.096-.816-3.768-1.56l-4.032 1.824v-14.784l-2.016-2.016 6.528-2.016v7.272c.624-.864 1.776-1.536 3.288-1.536 2.832 0 5.184 2.568 5.184 6.408zm-5.064 0c0-2.784-.36-4.32-1.608-4.32-.672 0-1.416.624-1.8 1.464v5.712c.384.84 1.128 1.464 1.8 1.464 1.248 0 1.608-1.536 1.608-4.32zm20.712 0c0 3.768-3.312 6.408-7.056 6.408s-7.056-2.64-7.056-6.408c0-3.768 3.312-6.408 7.056-6.408s7.056 2.64 7.056 6.408zm-5.112 0c0-2.088-.024-4.656-1.944-4.656s-1.944 2.568-1.944 4.656c0 2.088.024 4.656 1.944 4.656s1.944-2.568 1.944-4.656zM654.78 615l-2.064-2.064V596.76l-6.528 2.016 2.016 2.016v12.144L646.14 615h8.64zm6.696-15.576c0-1.248-1.008-2.256-2.256-2.256-1.248 0-2.256 1.008-2.256 2.256 0 1.248 1.008 2.256 2.256 2.256 1.248 0 2.256-1.008 2.256-2.256zM663.66 615l-2.064-2.064v-10.44l-6.528 2.136 2.016 2.016v6.288L655.02 615h8.64zm10.44-3.768c0-1.656-.816-2.712-2.208-3.48l-3.12-1.824c-.36-.216-.672-.456-.672-.816 0-.504.36-.84 1.152-.84.456 0 1.152.288 1.752.888l1.44 1.44 1.704-3-3.24-.864c-.6-.144-1.248-.24-1.872-.24-2.232 0-4.656 1.104-4.656 3.936 0 1.392.912 2.616 2.136 3.288l3.216 1.8c.36.216.648.504.648.864 0 .624-.384 1.128-1.224 1.128-.672 0-1.296-.48-1.728-.912l-1.704-1.704-1.944 3.312 3.48.864c.552.144 1.296.24 1.92.24 3.504 0 4.92-1.92 4.92-4.08zM697.14 615l-2.064-2.064v-7.344c0-1.728-.744-3.096-2.472-3.096-1.488 0-2.64 1.008-3.456 1.824l-1.032 1.032c-.072-1.464-.72-2.856-2.472-2.856-1.056 0-2.112.48-3.456 1.824l-1.032 1.032v-2.856l-6.408 2.136 2.016 2.016v6.288L674.7 615h8.52l-2.064-2.064v-5.616l.936-.936c.264-.264.672-.624 1.056-.624.48 0 .576.36.576.792V615h6.456l-2.064-2.064v-5.616l.936-.936c.288-.288.648-.624 1.056-.624.432 0 .576.312.576.792V615h6.456z"/><g id="Stacked-Group-3"><g id="Stacked-Group"><g id="langur-5" fill="#F6F1DF"><path id="Fill-46" d="M250.1142817 128.3798039l-10.5907806 10.5061391-18.81278277 8.3537165-3.75254525 5.0652931-1.31419684 4.843885-3.4903846 1.0547245 2.43071266-6.6282285 7.8028846-10.0838756 11.6699661-4.3562268 9.4496606-14.8913265z"/><path id="Fill-48" d="M242.2797511 123.7634927l7.8699095-3.5135683 18.9324095-1.6395407 12.5506222-5.1521747 6.5938914 5.3866617-11.0616516 12.8827724-9.1459276.7025268-19.8580316-2.0561988z"/><path id="Fill-50" d="M254.0233597 125.9776666l-6.9400452 15.2921031-13.4075226 10.1847704.3656674 4.4262927 2.9253393 4.8280034-.9128959 2.3542123-1.7791289-3.4836736-2.7904412-4.1002529.9120475-8.0472953 10.667138-7.7707687 4.5653281-15.2911688z"/><path id="Fill-52" d="M279.5445701 124.1411943l4.2548077 6.3246098 17.8676471 1.6395406 6.3817873 2.5765545 1.3761312 1.5965669 2.0268666.9799876-1.9131788-4.2160952-7.8716063-3.7471211-14.2924208-2.8166467-1.4838801-7.1850183z"/><path id="Fill-54" d="M280.9390271 124.7616039l1.9250566 5.6921488 13.2505656 3.6611737 3.8356901 3.5612131.5658936 1.8861724-1.3846154-.0943553-1.0070701-1.1864483-4.2293552-2.3439359-14.6394231-1.9609092-3.0483597-6.0004386"/><path id="Fill-56" d="M281.243948 114.19007l2.3042986-3.04366-.3453054-1.9440935 3.5701357-2.5784229h1.6128394l3.9154412 4.6075296 1.8436086.9725138-1.6128394.8024874.3453054 2.3037649-.2307692 2.9278178-.9213801 1.1472114-4.0308258.5100793"/><path id="Fill-58" d="M250.072879 120.5174825c-4.1733598 2.3971859-25.298077-.2970792-25.0774887-22.523832.222285-22.2258185 9.6710973-28.26923073 19.7171945-28.26923073 10.0452489 0 17.8243779 12.72302223 12.5014141 22.49300293-1.3303168 2.198199.5837104 8.5629798 3.8229638.8015532 4.3286199-10.3725469-3.5574095-26.1214792-16.3727376-26.1214792-12.815328 0-22.0011312 10.5248233-22.0011312 31.0064696 0 20.4816462 17.3017534 28.5765862 21.5166855 31.2633776"/></g><g id="langur-3"><path id="Fill-11" fill="#F6F1DF" d="M763.0913344 118.2427577c.3702983 0 4.3940893.0350433 4.3940893.0350433l.6681279-3.3844432-2.5929723-2.7057102 1.8523755-2.9630017s-11.8557338-2.8237508-13.0912401.9120475c-1.2337386 3.7367204-3.8240596 16.0940881 3.5836751 27.0451136 2.4701287 3.4785068 6.6680218 3.2202931 5.5562429 9.1472187-1.110895 5.9260033-1.9221931 12.0890099-1.9221931 12.0890099l-3.4016191.6566004-.9730274.601269h7.5314621l5.3087882-20.7161126 4.8156462 2.5895141s-2.5929723 1.8748156-.4940258 6.8989155c2.0989466 5.0250221 3.0869981 5.5755705 3.0869981 10.4705637-1.8523756.2582136-3.5279978.1208071-3.5279978.1208071l-.246571.6363122h8.3427602l-1.3583498-7.4466973s4.3216205-4.1092859 5.8028139-9.2624927"/><path id="Fill-13" fill="#F6F1DF" d="M784.6011619 143.9871201s4.2871535 6.6001254 7.9901371 9.0485441c3.7038674 2.4474966 5.1673855 5.3339563 5.1673855 5.3339563l-5.4634474.6805775-.4003465.6261681h8.1819146s1.2602517-2.4152199-3.454645-7.9732688c-4.714013-5.5571267 1.0393099-11.444398-5.1338024-18.2723047-6.1722285-6.8288289-19.8953619-9.8822054-29.1554722-10.2686037"/><path id="Fill-15" fill="#F6F1DF" d="M758.25218 132.8595871l-6.5239678 13.0333342c-.7087811 1.4174085-.9756787 3.0303216-.7644584 4.6137246l.0353506.2683578c.1493567 1.1140075 1.3689551 1.6765444 2.2589084 1.0411543.4100679-.2932569.6478012-.7838628.6310096-1.3021345l-.0494909-1.5455932 8.6838942-11.8012861"/><path id="Fill-17" fill="#F6F1DF" d="M764.6966087 160.3124016c-1.7092053 0-5.9035634.1853605-7.5314621 0-14.2224618-1.6202906-25.40476528-10.5434167-30.9344952-24.4768099-7.330847-18.4668872-3.22574944-41.6729171 9.7187853-55.1793356 13.5711256-14.16117446 28.8655968-16.3144919 39.294047-15.6191594 12.5079539.82812807 24.688914 6.23217096 32.5685803 14.4544314 7.1213942 7.4300979 11.8707579 17.6442923 13.0249576 28.0217146 1.1815964 10.626414-1.5801754 20.3121926-7.5818368 26.5747959l-.0282806.0295101c-.1254949.1217293-12.712104 11.969125-24.4494132-.2803463l1.4343538-1.4976391c10.2605345 10.7066446 20.9965357.8336612 21.6275453.2342366 5.5491728-5.8024296 8.0953054-14.8463629 6.9861779-24.8161764-1.1020574-9.9126378-5.6366658-19.6694251-12.4399039-26.7693784-7.5402998-7.86813886-19.2254666-13.04163385-31.2553026-13.8393296-10.0077771-.66305577-24.6783088 1.40173126-37.7147554 15.0040576-12.38864532 12.92636-16.27810374 35.1631665-9.2477375 52.8738565 2.7264211 6.8684832 6.9411058 12.5768493 12.3108739 16.50723 5.9981264 4.3914765 13.413815 6.6185693 21.5285633 6.6185693l2.6893029 2.1597727z"/><path id="Fill-19" fill="#211F1C" d="M762.5890012 156.3075079l-5.5438702 2.4668626s4.6468468.7949291 4.7290371.7949291c.0813065 0 .8148331-3.2617917.8148331-3.2617917"/><path id="Fill-21" fill="#F6F1DF" d="M761.2314468 158.7440303l2.6194853-4.947558 2.4118-15.188496 2.9950863-5.3819102 7.48639 3.2544142 2.2041148 10.0684881 7.0285987-4.2098048 5.4899604 5.7729196 7.8186864 10.0242229.2492223 2.6042691z"/><path id="Fill-23" fill="#7B2D3B" d="M759.4724854 160.5352953c2.9243849-.2176372 5.3635817-3.0413879 6.5672723-5.6373573.4710478-1.0190218.7989254-2.1016747 1.1771776-3.1612729.5682622-1.5926249 1.2505303-3.1400625 1.7746041-4.750209.5364466-1.6433455.9332579-2.3054791 1.7206943-3.8436947.3181561-.6234015.6955246-1.1822496.9332579-1.828706.0874929-.2379254.5638433-1.7742966.9889352-1.1582726.4162543.6049577.7573883 1.3242671 1.2558329 1.8600605.4772342.5127385.9191177.7995401 1.0525665 1.5751032.1025169.5957358.0539098 1.2136042.1776371 1.8056512.2138716 1.0273215.6522201.8797708 1.3283018 1.6599449 1.2814621 1.481962 2.5169683 3.3392559 3.9999293 4.5952809 1.4140271 1.1960825 2.8192166-.4481851 3.5430218-1.6571784.5505868-.9203472.9624222-1.9283026 1.5598487-2.8163732.2032664-.3024788.4666289-.6123352.8192519-.6529116.3411341-.0396543.6672441.1991934.8484163.5035166.5567732.9415576.9659573 1.8277838 1.6349689 2.6955661.8051117 1.0448431 1.8877263 1.8997147 2.851916 2.7988516 2.070666 1.9273804 4.141332 3.8556831 6.211998 5.7830636.4507212.4195972 1.0401938.8687045 1.6022696.6409232.6239394-.2526805.7140837-1.1176963.7025947-1.8148731 0 1.5437487.7821338 3.1142411.7821338 4.6893444l-38.3369274 1.4672068s-6.6591841-2.4954505-3.1957013-2.7536642"/><path id="Fill-25" fill="#F6F1DF" d="M794.8240479 92.6956522c-.3322964-.3467441-.690222-.6483007-1.0640554-.9166585.693757 2.9473244-.0539098 6.1869836-2.2597922 8.4896961-2.2058823 2.3017902-5.3114395 3.0810421-8.1350749 2.3580439.2562924.3891649.5452842.7626525.8775806 1.1093965 2.9226173 3.0487655 7.6596083 3.0487655 10.5813419 0 2.9217336-3.0487655 2.9217336-7.9917125 0-11.040478"/><g id="Group-30" transform="translate(729.17 137.722)"><mask id="mask-2" fill="#fff"><use xlink:href="#path-1"/></mask><path id="Fill-28" fill="#F6F1DF" d="M-6.2674102 1.79578374c.3499717.04703177 1.73836962 1.188705 2.16522906 1.5751033.42774322.38547608 1.05079893 2.5498598 1.926612 2.66790034.87581306.11804053 1.3185803 1.82040626 1.87093467 1.67562217.55235435-.1438619 3.30793976-2.7278428 4.10863263-2.9482466.79892534-.2204038.57356476-.79861795 1.15243213-1.15827268.57886735-.35965473 1.10647623 1.13521788 1.92484445 1.2449587.81748444.11066298.8961397-1.958735 1.6323176-2.62547955.73617787-.66674454.30313206-1.49118385.99158652-1.2892239.68757073.20288217 3.08611423 7.20416094 3.49176333 8.2434709.405649 1.04023218.6036128 1.83331698 1.1462457.8124508.5426329-1.0217883 1.6058046-2.41060888 2.8289381-5.09141992 1.2240172-2.68173322 1.8903775-1.8250172 2.4789663-1.3076677.5894726.5173495 1.6022695 2.40599792 2.3534715 3.05429863.7512019.6483007 1.4096083 3.47481807 2.1917421 2.92334743.78125-.55147058 1.3247666-.14939504 1.6482253.11342957.3243425.26190242 1.1541997 2.67343347 1.6853437 3.18248327.5302601.509972 1.8205599 1.121385 2.5452488 1.9854786.7238052.8640935 2.7891686 3.0736646 5.2619486 3.0340104.7547369-.0119885.4604425.5090498-.3128536 1.2385033-3.1320701 2.9537798-7.6048147 3.787441-11.5773472 2.2990237L-4.8710584 10.8941263l-1.3963518-9.09834256z" mask="url(#mask-2)"/></g></g><g id="Page-1"><g id="Group-3" fill="#F6F1DF"><path id="Fill-1" d="M566.7276423 101.2974426c.5577236 0 6.500813.9244762 6.500813.9244762l1.1138211-5.73304766-3.9-3.8832857 2.7861789-4.2532381s-16.53008132-2.7742381-18.3878049 2.58885714c-1.85691056 5.36309523-7.05691056 21.82233332 4.08617887 37.54166662 3.71463413 4.9931429 10.03008133 4.6231905 8.35853663 13.1296667-1.6723578 8.5072857-2.7861789 16.4592381-2.7861789 16.4592381l-6.68617887 3.6987143 11.32926827-.185381 7.9861789-30.1434285 7.2439024 3.5133333s-3.900813 2.5888571-.7430894 9.8017143c3.1569106 7.2120476 4.6430894 7.9519524 4.6430894 14.9794286-2.7861788.3699523-4.0861788.5545238-4.0861788.5545238l-.3715448 3.1441904 11.3292683.5545239-2.0430894-13.4996191s6.500813-6.103 8.7292683-13.5004286"/></g><path id="Fill-4" fill="#F6F1DF" d="M599.0844715 138.2509095s4.3447155 9.7175238 9.9162602 13.2308572c5.5723577 3.5141428 5.2739837 8.0531428 5.2739837 8.0531428h-8.4642276l-.6365854 3.8322857 16.900813-.4282381s-1.5130081-6.4073809-6.5276422-10.2906666c-5.0146342-3.8840953 3.1845528-19.5281429-6.101626-29.3290476-9.2861789-9.8017143-30.8308944-15.912-44.7609757-16.4665239"/><path id="Fill-6" fill="#F6F1DF" d="M565.1044715 125.5467286l-13.05934955 16.7207143v7.3189047l3.30406504-1.0483333 1.39593495-4.3625238 13.81382115-11.7235238"/><g id="Group-10" transform="translate(594.276 79.8)"><mask id="mask-4" fill="#fff"><use xlink:href="#path-3"/></mask><path id="Fill-8" fill="#F6F1DF" d="M.41829268 37.6578333S33.55 46.9276905 41.6272358 45.2916429c8.0780488-1.6360477 19.304065-17.1764762 5.4764227-34.8977619-13.8276422-17.7220953-29.2983739-5.31695243-29.8455284 0-.5479675 5.3161428-4.3813008 3.9529047-4.9292683 1.7720476C11.7817073 9.98507143 21.7760163-1.46645238 31.2223577.16959524c9.4463415 1.63604762 22.3154472 5.99857143 24.7804878 19.76614286 2.4642277 13.7683809 1.9162602 28.0823809-13.9650406 29.581619-15.8813008 1.5000477-32.4463415-3.6800952-32.4463415-3.6800952" mask="url(#mask-4)"/></g></g><g id="langur-2" fill="#F6F1DF"><path id="Fill-5" d="M431.3858642 150.0783297l-4.1824403 10.1916191-5.4441445-9.521444c-.2284844-.4010427-.7324941-.5055085-1.0886609-.2266378-.7526545.5922684-2.3461651 1.6404682-5.6003876 3.1729294-.6955333.3275624-.5426504 1.4005508.2116841 1.5076726 4.6242888.6577809 5.678509 2.8294315 5.678509 2.8294315l4.476446 5.7535904h12.0357511c.6459724 0 1.1701424-.5515444 1.1701424-1.2323432v-.4931143c0-.6799134-.52417-1.2314578-1.1701424-1.2314578h-7.2476592l2.0941602-3.3544166s3.1584607.4577021 8.3674007-1.6316152c.7736548-.3098564.7711348-1.4580956-.0033601-1.7670667-3.7414318-1.4926225-6.6084069-3.4031084-7.9742731-4.3999607-.4628489-.3373008-1.0995811-.1416486-1.3230254.4028133"/><path id="Fill-7" d="M408.0738206 137.680179c6.8049707 0 27.7734533.1009247 36.350858.1443046 2.2042023.0106236 4.1479996-1.5129845 4.7754916-3.7404092.051241-.1823726.0134403-.3797954-.1008019-.5276412l-1.0063393-1.2978556c-.3057659-.3930749-.0109202-.9809168.469569-.9366516l2.8879755.2673618c.0151202.0017706.0302405.0026559.0453608.0026559l11.9324291.0327563c.4611689.0008853.7131737.5665945.4191681.9410781l-1.4087071 1.7998229c-.1646431.2089318-.1671632.5108204-.0075601.7232934l2.3663254 3.1463702c.7190538.955243.6854532 2.3150698-.0789615 3.2295888l-.4267282.5108204c-.3343264.4001574-.779535.6781428-1.2734644.7941177l-8.2951593 1.9520952c-1.1105013.2611646-1.8950764 1.3075939-1.8774361 2.5062955 0 0 3.6103894 14.0931536 21.9378612 14.0931536h5.2417007c.6459724 0 1.1693024.5515444 1.1693024 1.2323431 0 .6799135-.52333 1.2314578-1.1693024 1.2314578h-11.6963846c-3.542348 0-7.0359751-.8543183-10.2162761-2.499213-7.5601452-3.9121582-21.7236571-11.2902814-25.8170557-13.7638206-5.6701089-3.4261263-9.5526634-1.185422-10.9554904 0-1.4028269 1.185422-9.0990547 9.3638599-26.5050289 9.3638599h-7.86423096c-1.16258232 0-2.1042404.9924257-2.1042404 2.2176864 0 1.2243754.94165808 2.2176864 2.1042404 2.2176864h3.27270284c.6459724 0 1.16930245.5515444 1.16930245 1.2323431 0 .6799135-.52333005 1.2314578-1.16930245 1.2314578h-3.50622732c-2.5830496 0-4.6763698-2.2061774-4.6763698-4.9284871 0-2.7214243 2.0933202-4.9276018 4.6763698-4.9276018h7.94823264s8.9831324-.8640567 10.2490367-13.208735c.1747234-1.7086366 1.509509-3.023313 3.1391403-3.0401338"/><path id="Fill-9" d="M411.8538932 138.0999016s-13.0824112-15.9390124 3.3894651-33.2989376c16.4718762-17.35992524 28.336264-8.15719064 33.9181712-2.2743459 5.5827472 5.8828448 5.8565924 1.3500886 3.6607903-2.89317328-2.1966422-4.24326186-21.5262533-15.05724966-39.1875924 3.55715128-17.6613391 18.6135156-8.6236056 29.632894-8.6236056 37.4120598"/></g><g id="langur-4" fill="#F6F1DF"><path id="Fill-31" d="M87.7602548 98.7212287s12.8184635-19.5098316 18.5397403-24.8511113c5.7225064-5.3425272 8.9280444-12.5428367 14.4218473-13.9364852 5.4925733-1.3936485 18.0823333 8.8260248 15.1067283 15.5622006-2.9756049 6.7349281-8.2407043 21.5996806-13.2758705 25.3164925-5.0363959 3.7155643-19.9131911 9.754292-22.8900256 10.4504924-2.975605.6974481-25.8644009 13.4723517-11.9024198-12.541589"/><path id="Fill-33" d="M121.1788806 61.7919134s1.8308577-4.1809455 1.6021542-6.9669949c0 0 2.8280543-8.08116517 6.1676176-10.9857433 3.579333-1.45353673 10.6187291 1.93638542 11.9307003 5.8104039 1.3132013 3.8740185 1.7902813 14.6489054-.5963505 16.1011945-2.3854024 1.452289-7.3972064-1.4522891-10.1416487-1.5733132-2.7432126-.1210241-9.4247983-2.3007053-9.4247983-2.3007053"/><path id="Fill-35" d="M126.8765493 48.88138808s-1.2627877-3.68686785-2.844039-1.60325726c-1.5800216 2.08485828-2.2108007 5.93142798.3160044 6.41178138"/><path id="Fill-37" d="M94.0162798 108.5143233s22.9084694 13.6258151 23.3818611 16.8323296c.4733917 3.2065145-.6320087 10.4205483-10.4269133 17.7942841-9.7949046 7.373736-8.3722703 9.296397-6.0040822 10.098649 2.3706472.801005 10.2695259 3.206515 11.5335432 3.847818 1.2640173.640055 3.0014263 2.563963 3.0014263 3.366216 0 .801005-5.0560693 1.281358-6.318857 1.281358-1.2640173 0-11.2163092-3.205267-12.6377139-3.366216-1.4238639-.159702-8.0574956-6.572731-8.2161126-7.854089 0 0 7.425487-6.572731 10.110909-10.260847 2.6854219-3.6868677 7.4254869-10.0974013.789396-10.7399519-6.6348613-.6413029-20.6952095-13.1442141-14.8497443-23.244111 5.8454653-10.0986492 9.6362877 2.2445602 9.6362877 2.2445602"/><path id="Fill-39" d="M130.2002508 80.7658704s.116811 14.8235793 3.7391797 23.3626397c3.6223686 8.5365651 2.2206374 20.6327356-6.6606827 27.154312-1.0512985-7.9451691 4.6748967-2.2520462 3.9728015-12.4505091-.7008656-10.1984629-2.3374484-15.2976943-8.298495-24.6664559"/><path id="Fill-41" d="M102.5609384 110.0349847s22.320726 13.0743446 23.3056266 15.8217161c.9861303 2.7473716-1.3943537 12.989503-4.6773559 18.1511182-3.2830021 5.16411-10.9962128 10.492913-1.8874188 13.407472 9.108794 2.91456 7.7144403 5.745525 5.4175683 5.99506-2.2993311.249534-14.5263623-3.746756-16.8232343-5.495991-2.2981015-1.747987-2.4628664-2.996906-.2459177-6.244594 2.2144894-3.247687 11.5704308-16.9870404 10.0100826-19.1517496-1.557889-2.1659569-26.259099-8.4105503-26.8333169-16.1548443-.5754476-7.744294 11.7339661-6.3281874 11.7339661-6.3281874"/><g id="Group-45"><path id="Fill-43" d="M93.1253197 104.0024955s-32.4427012 9.9264706-43.2102105-15.404994c-10.76627977-25.3327123-2.13948457-37.4313781 10.2252607-43.00721988 12.3647452-5.57584176 28.2596399 4.53777948 26.5603482 18.57283068-.5459375 3.2327156 4.9724572 9.3887244 5.1040232-1.2114885.1746016-14.1673044-17.3544167-27.65462805-33.1288117-20.5416556-15.77316548 7.11297246-21.84979346 24.1486725-11.67617552 47.3790591 10.17484752 23.2316343 35.49085182 22.8111691 42.01136142 23.5185986"/></g></g></g><g id="logo-color"><g id="Langur" fill-rule="nonzero"><path id="Shape" fill="#DECEC2" d="M766.2035979 446.190242l-5.0817429-1.335818c-.0454853-.013429-.076979-.057589-.076979-.107936 0-.050348.0314937-.094507.076979-.107937.1065036-.034085.0958533-.264567-.0136933-.282421-.4321003-.07304-.7607399-.162311-.9357101-.212627-2.7812653-.740137-4.9661104-2.3811-5.9018206-4.598265 0 0-1.7573092-4.544703-1.8090396-4.483025 0 0-3.1951078 3.014112-3.0962116 3.117991.038037.040577-.0395584.107125 0 .150949l2.8649467 3.557853c1.0254774 1.272517 2.5104418 2.272351 4.2601437 2.848555h.0152148l8.8245835 2.347014c.2259283.060777.4655004.009807.6522898-.138777.1867895-.148584.3009422-.378989.3108069-.62733v-.021101c-.0016768-.054178-.0394858-.099298-.0897673-.107125z"/><path id="Shape" fill="#7B2D3B" d="M750.2493597 371.1701849c1.0513426 1.6847863 1.7207937 3.1585684 2.0889919 4.473286.0471658-.1087482.0973747-.2272351.152148-.36033.117636-.3158942.1973846-.6463795.2373508-.9836035v-.0535626c.2038783-1.56143-.0091289-3.7331487-.0821599-4.3710302-.0136933-.1217331-.0228222-.1882805-.0228222-.1882805-1.0108854.0309602-2.0088609.2506993-2.948628.6492432.1993138.2596973.3910203.5404951.5751194.8342776z"/><path id="Shape" fill="#F6F1DF" d="M797.1504991 376.2651213c.3286397-.0633012 1.4088904 1.5987615 2.1818022 4.0869863.1125895-.1915268.2327864-.3781842.3621122-.5583492 4.5187953-6.2489663 17.6948113-24.7118212 20.6540897-37.935283 2.082906-6.3625839 2.3628583-11.8227196 1.9155432-15.581838-.3254153-11.0630386-4.6038343-21.5746322-11.958832-29.3815032-15.7001511-16.7180137-41.335566-16.90304802-57.2365525-.4106464-16.3513445 16.9566106-16.4913206 44.8448543-.4214499 61.9881223.8790335-.9377246.9217039-2.4434605.0973747-3.4361199-13.0847272-15.7230484-11.9086232-39.7580335 2.0159609-54.9909032 14.4236295-15.77985714 38.3062995-15.74414876 52.9155495-.1623108 3.2361878 3.452351 11.8675432 16.0979864 10.1193628 31.8713511-1.5595169 14.1210407-13.0847271 31.3827955-17.2627109 36.2553661-3.080633 3.5753042-7.7859705 4.9953156-12.1657533 3.6714706l-.0502089-.014608.2890812.0649243c.0699881.0162311-.1734487-.0925171-.7607399-.2142502-.1856206-.0389546-.4092781-.0779092-.6648868-.1168638l.304296.0389546c-3.0140517-.6622281-9.5853234-2.0305083-15.8477346-2.8469317-4.1292965-.5388719-8.1277457-.8391469-10.8892317-.5437412l-.2829953.0324622c-2.6558008.3140746-5.2752705.9122226-7.8188852 1.7854189.073031.6492432.2860382 2.8096002.0821599 4.3710302v.0535625c-.0399662.337224-.1197148.6677093-.2373508.9836036-.0532518.1330948-.1034607.2515817-.152148.36033-.3681982-1.3163407-1.0376493-2.7901229-2.0889919-4.473286-.1825776-.2937826-.3742841-.5729572-.570555-.8423931-1.5169064-2.1012762-3.611071-3.6447367-5.9900664-4.4148541-.9893852-1.1473468-2.1145952-2.1523832-3.3472558-2.9897652-.5964201-.3944153-1.2384846-.7417604-1.9338009-.84077.1424116.1181646.2062158.314729.1627983.5015404-.0477229.1827306-.1371056.3500168-.260173.4869325-.2599633.3112913-.5417425.6010401-.8428999.8667397-.9128879.8472624-1.8653344 1.7091328-2.9501495 2.2723514-2.00378906.7498759-3.7276258 1.9006596-4.86873572 3.2721859l.4321003.0551857c-3.02064478.4122695-5.1968682 2.0754143-6.52867027 4.9894344 5.18520352-2.3794765.86724355 13.147176.91288795 14.296336.05477328-.402531 3.2620529.340853 6.90751876 1.439697 2.2639621.683329 4.695287 1.502998 6.6443027 2.272352-1.4470733.16822-2.90862.132201-4.346868-.107126-.1825776-.030839-.3621123-.064924-.5401254-.100632.7485681 3.785088 3.4917964 9.626654 11.0079071 16.748852.5269101.501512.8558719 1.197581.9204953 1.94773l1.5458236 20.569649c-1.2034906 2.415185-2.8908118 5.760411-4.8306987 9.529268l-.4990454.973865c-.2835422.45718-.616497.877203-.9920049 1.251416-.949723.997662-2.0748423 1.785341-3.3107402 2.317799-1.6386339.691444-13.12885013 2.697606-11.2163499 4.483024.21757163.204512 2.35068646-1.486767 5.4438551-1.41535h5.9352931c1.0650359 0 2.8908118-.042201 2.9562355-.107125.6968377-.743383 1.6903641-1.108583 2.2822198-1.985061 1.3784608-2.033755 3.6180792-5.507206 5.8744339-8.883271 1.2171839-1.824373 2.5119633-3.768857 3.8219575-5.752295 6.2806691-9.513037 12.9432296-19.925275 13.6050733-22.260928h.0502089l.3758055-1.593892h-.8124703c-.6253282-1.460797-1.8531625-3.929545-3.3244336-6.77323l-.1430191-.277552c-4.1079957-7.930506-4.5644397-12.801454-4.5903048-12.949156-.2221361-1.51923-.079117-2.718707.260173-3.664979.2313798.060079.4661859.103996.7029237.131472-.1323687.910564-.0775954 2.066217.304296 3.53513 1.0650359 4.075624 5.754237 13.030312 5.754237 13.030312l.1354117-.017855-.1384547.012985s2.3354717-.259697 2.7386639-.486932l.4092781-.152572c2.0676912-.551857 6.5910509-2.051609 9.8896193-3.246217-.7774762 3.22187-1.2963008 6.112626-1.5579954 7.695156-.1370753.825133-.048331 1.674927.2556086 2.447647 1.6218976 4.125941 8.4137839 19.230585 13.8530745 25.847997.152148.418762-5.9839804 13.9847-11.6393212 14.823846-3.2301018.486933-5.8729124 1.230316-5.9429005 1.298487 0 0-2.3613368.62652-1.2597854 1.356918l4.9950186-1.095598c.084029-.024203.1705401.028845.1932279.118487.0226878.089642-.027039.181932-.111068.206135l-.0654237.024347c.0014455.118304.0497347.230435.1329301.308673.0831955.078238.1935325.115282.3037347.101973l-.4305788.051939v.011362c.6968377-.087648 1.4180192-.181788 2.1498511-.280798 7.5784914-.973864 18.5118459-13.763956 18.0584449-16.029815.152148-.113618.1369332-.282421-.0867243-.522641l-7.158563-13.591908c.1414977.097387.2845168.191527.4351433.275929 5.3251796 2.993011 10.6914393 6.210011 13.2566544 6.989103.7034027.214095 1.148345.95215 1.0391707 1.723741l-1.5108295 10.874825c-.2245139 1.594358-.7047105 3.135565-1.4195408 4.556064l-1.9398868 3.854882c-.0902928.346241.019496.716704.2799523.944649l2.4632759-4.575542.0517304-.087648c.0518263-.078314.148515-.106276.230322-.066607.0818071.039669.1256354.135768.1044035.228918l-.0182577.060055c-.0297204.092455.0020211.194704.0775954.249959.0505935.036352.1136447.047038.1723079.029202.0586631-.017836.1069605-.062375.1319881-.121719l5.4195114-18.535895s1.255221-1.623108-.9022375-2.949188l-6.2913194-6.550864-8.6724355-7.860713-4.6998514 7.54583-.190185-.36033c-.3290261-.340788-.5145638-.809263-.5142602-1.298487l.1764917-.352214 5.713157-11.454274.7272674-1.460797c1.0650359-1.94773 1.965752-3.747757 2.7295349-5.40495 2.197017-4.765446 2.6793262-9.050451 2.5560863-12.163573-.011287-.289635-.0041704-.5797533.0213007-.8683625l-.0289081-.1736726c-.643586-3.7802188-1.6508057-6.7537529-1.2232699-6.8397776zm-42.3793012 38.1430407c-.0289081.056809-1.1593677 2.434662-2.5530432 5.367619l.3940633-4.664813c.4202823-1.593969.4081481-3.282417-.0349941-4.869324-.0486873-.176919-.0958532-.342476-.1354117-.495048-.1430191-.543742-.304296-1.074498-.491438-1.580908.187142 0 .3605907 0 .5127387-.012985.8489858-.056808-.9950478-2.13114-1.7877389-2.978403l-.1688842-.357084c1.0273286-.186414 2.0169949-.55975 2.9258058-1.103713l1.8257759 3.186161c1.0954655 2.56938.7774762 5.034881-.4868736 7.51986v-.011362z"/><path id="Shape" fill="#7B2D3B" d="M745.1295798 388.18685c.0562947-.238596.2769093-.379807.4412292-.550233.3125207-.356534.4808702-.830011.4686158-1.317964-.0148286-.482743-.0890006-.961321-.2206146-1.423466l-.3575478-1.4883899c.0395585.1395873 1.5214799-1.9477298 2.1741948-2.9215947.6527149-.9738648.6953163-2.6829977.6466289-3.8954595-.0486873-1.2124617-.4670943-1.8406046-.4670943-1.8406046s-1.6888427-.1623108-2.0190038-.0925171c-.6055109.0832711-1.1989108.2468464-1.7664382.4869324-.2456715.1407123-.5041344.254375-.7713903.3392296-.2723449.0633012-.7044452.0551857-.6709726.1850343-.2921242.1915268-.608592-.2369738-.947882-.2824208-.132155-.0034243-.2641523.0118579-.3925418.045447-.4107996.0633013-.8185562-.0973864-1.2171839-.2093809-.8124703-.2272351-3.2088012-.2467124-3.5100542.1038789-.7698688.8992019-1.2795646 3.0839054-.9509249 4.247674.1658413.5908113.5279535 1.0923517.8931087 1.5695455.6085919.7888306 1.7451374 1.9152676 2.4054597 2.6521587.0930068.0820068.1546961.1974627.1734487.3246221-.0050828.094109-.0340039.184985-.0836814.262943l-1.7420945 3.356588c-.0982453.103047-.1441259.250158-.1233342.395455.0207916.145298.1057258.271105.2283163.33819l1.3145587 1.10209.2221361.035708c.9985597.528255 2.0835756.845187 3.1951077.933287.5666608.063681 1.1395407.004609 1.6842783-.173672.1039889-.037397.2056285-.081852.304296-.133095.5431683-.28729.9889619-.842393 1.0650359-1.473782.009991-.075262.0145688-.151229.0136933-.227235-.0113814-.116297-.0077981-.233708.0106504-.348969zM730.03802063 377.3785735c-.68466595-1.4007423-.4229714-2.1587338-.28299526-3.0043731.15502508.2469293.38080584.4336969.643586.5323794.1401584-.234335.29897947-.4553537.47470173-.660605l.4397077-.3668224.1278043-.1071252c-1.00113377-1.261155-2.56977955-1.7610723-3.6637236-1.9607146-.41007532-.0776811-.82513946-.1216344-1.2415276-.1314717 0 0-.34689742 2.7057212-.1049821 4.5609338v.0535626c.03996622.3372239.11971478.6677092.23735085.9836035.4092781 1.0144426.59185568 1.2433008 1.249135 1.9688301l.03195108.0340853c.90223758.9949653 2.32786425.9446489 3.30617583.4479778l-.88093687-1.5094905c-.1495896-.2614441-.26285043-.5446475-.33624707-.84077z"/></g></g><g id="Page-1" transform="translate(383 297)"><mask id="mask-6" fill="#fff"><use xlink:href="#path-5"/></mask><path id="Fill-1" fill="#F6F1DF" d="M22.5486134 85.8786245c.5852942 1.9042289-.4861344 3.9221744-2.3928571 4.506703l-2.1197479-6.8964305c1.9067227-.5849482 3.9273109.485079 4.512605 2.3897275zm58.9063026 4.4362071c2.8777311-2.9969155 5.9-6.5997602 8.6352941-10.6725776 14.5558819-19.5391172 12.9584029-47.2943652-4.7970588-65.026605-19.5130252-19.48792366-51.1512605-19.48792366-70.6647059.0004197C-.57995798 29.8045809-3.9257563 52.345649 4.57214286 70.779491c.16386554.6411771.74117647 1.1174441 1.4340336 1.1174441.82016808 0 1.48529413-.6642561 1.48529413-1.4833514 0-.3096785-.09579833-.5966976-.25840337-.8346213-7.702521-17.2828283-4.37857143-38.5776294 9.68739497-52.6251989 18.1063025-18.08220165 48.3344538-17.96722617 66.4407563.1153951 5.9369748 5.9287902 9.9621849 13.168049 12.0781512 20.8957439.0033614.0113297.0058824.0222397.0092437.0335694.294958 1.0805177.5521009 2.1702671.7726891 3.2679891.0092437.0503543.0205883.1011281.029832.1519019.0117647.0591663.0218487.1191717.0336134.1783379 4.3844541 24.811624-19.4777311 47.1747739-27.289916 45.7178583l.0138656.0260164c-4.9394958-.6038311-17.7512605-3.1169265-24.8231093-2.187891-2.522689.3314986-6.1319327 2.0779509-8.2848739 2.7707411.0357143.2257548.0512605.4506703.0294118.6571226-.1403362 1.3113079-.5025211 2.0842453-1.629832 2.6746485-.0689075.0356676-.1411765.0709156-.2155462.1053243-.0130252.0067139-.0260504.0125885-.0390756.0180436-.0668068.0310517-.1357143.0608447-.2071429.0906376-.0348739.014267-.0714286.0293733-.1079832.0432207-.0558823.0222398-.1113445.0444796-.170168.0662997-.1025211.0377657-.2075631.0751117-.3189076.1116185 0 0-1.360084.497248-2.1638656.7624469-.0571428.0188828-.1294117.0314714-.2079832.0411226-.0134453.0016785-.0260504.003357-.0399159.0046158-.0768908.0071335-.1626051.008812-.2542017.0058747-.0222689-.0004196-.044958-.0020981-.0680672-.003357-.0928572-.0050354-.1903362-.0151062-.2928572-.0314713-.0260504-.0041962-.0533613-.0100709-.0798319-.0151063-.0882353-.0159455-.1794118-.0373461-.2722689-.0625232-.0340336-.0092316-.0676471-.017624-.102521-.0281144-.0978992-.0293733-.197479-.0662997-.297479-.1065831-.0436975-.0172044-.0869748-.0348284-.1302521-.0545504-.1012605-.0453188-.2021008-.0969319-.302521-.154-.0462185-.0260164-.0915967-.0553897-.1369748-.0839237-.0865546-.0549701-.1718487-.1149755-.2554622-.1795968-.052521-.0402833-.1033613-.0843433-.1542017-.1284032-.0710084-.0625232-.1394958-.1292425-.2067227-.1993188-.0285714-.0302126-.0571428-.0591663-.0848739-.0906376 1.1327731-2.2630028 1.4331933-4.9464633.6310924-7.5560709-.344958-1.1228992-.8684874-2.1413133-1.5268907-3.0380381.0285714-.0104905.0542016-.0222398.0844538-.031891 1.0163865-.3352752 1.8063025-.5954387 2.3680672-.7804905l.6407563-3.4933243-4.702521 1.537902 1.044958-2.2562889-8.1563026-1.3079509c-5.6483193 3.9901526-6.7033613 10.6394278-5.6962185 14.4466267 1.0071429 3.8067793 4.7142858 7.9207193 4.7142858 7.9207193l6.6298319.0537112-4.1201681 2.830327s4.0302521 5.2003321 6.5142857 7.8699451v19.631434l-14.397479 23.945951s-6.34957978-1.466567-9.69453777 2.574779H13.2267647s14.8117647-17.174147 17.9155462-22.409308c1.4428572-2.434207 3.3483194-8.125074 4.9752101-13.519689l2.25 6.387013-2.694958 17.099455s-4.4336134 2.469036-5.4529412 7.805324c4.329832-3.268408 6.9672269-5.229705 6.9672269-5.229705s5.5668068-14.464671 6.1352942-19.396447c.2193277-1.900452.2369747-5.730311.1764705-9.720883-2.3941176.008392-4.470168-.313035-6.2441176-.811962.2936975-1.023869.5680672-1.998643.8176471-2.895787 2.9668067.765384 6.7743697 1.031002 11.5306722.091477 9.6151261-1.899613 19.1756303-6.966088 24.3546219-10.044409-.2205883.309678-.4626051.641597-.7327731 1.003308-.7214286.964283-1.3684874 1.995706-1.9294118 3.087133-4.4521008 2.583172-10.8701681 5.86333-17.6747899 7.873722-1.8340336 3.276382-3.5159664 7.208627-3.6537815 10.783777-.284874 7.399133 9.5865546 17.950441 11.2747899 19.698992-2.0134454.576136-8.3260504 2.662479-10.5626051 6.707602 5.9558824-1.809815 13.5634454-4.126529 13.5647059-4.126529l.0243698-2.659542-8.2642857-17.991984 13.2189075-14.032043c-.8046218 4.779875-.0810924 10.233237 2.8647059 16.013902 4.9962185 9.805226 21.2176471 22.920823 21.992437 23.543956-.7760504-.164071-9.7554622-1.937798-14.2042017 2.742627h16.9096639v-2.787946l-15.3512605-23.483951.0210084-37.1274274z" mask="url(#mask-6)"/></g><g id="Page-1"><path id="Fill-1" fill="#F6F1DF" d="M274.2410714 444.166122l.0258929-10.006858-7.4910714-13.474822 19.5910714-22.3927644-13.1754464-2.1899849-5.0611608 3.4918218s-10.8133928 18.3828185-10.8133928 21.0909275c0 2.708559 13.9995536 15.135429 13.9995536 15.135429v6.235492l2.9245535 2.110759z"/><path id="Fill-3" fill="#F6F1DF" d="M264.0166071 447.390554C270.3451786 445.449502 274.33 444.27866 274.33 444.27866l-1.5066964-2.745022h-.8598215s-5.5888392.65317-7.946875 5.856916"/><path id="Fill-5" fill="#F6F1DF" d="M255.2259821 419.919275c.5611608-4.913849-.2147321-22.7776433-.2147321-22.7776433l-13.5714286-2.9971057 8.8964286 25.497456-3.1433036 17.011659s-4.3901785 4.094124-3.3241071 8.628495c3.1669643-4.427235 5.5772321-7.797066 5.5772321-7.797066s5.21875-12.651496 5.7799107-17.565795"/><path id="Fill-7" fill="#F6F1DF" d="M263.0376339 403.646585l3.134375-5.5499128 6.5236607-3.3477734 10.9959822 1.3527039 2.98125 1.8181601-12.6424107 2.106707z"/><path id="Fill-13" fill="#F6F1DF" d="M250.9661607 407.897721c-6.6955357 0-13.6544643-5.761033-13.9473214-6.0059153l-.0397322-.036012-5.4325892-5.3392417 4.3075892-3.0358188-6.5665178.0621209-3.2446429-3.6327191 5.1790179-7.7520513 4.1633928-.5766435c1.1955358-1.015991 8.6758929-7.1011329 16.2558036-7.1011329h.05625l30.1401786 5.1533293.0566964.0202568c5.8571429 2.1319154 9.7977679 7.7826616 9.8049107 14.0618187l.0004465.3938822-.3397322.1944652c-.5991071.342565-14.7232143 8.4151235-18.9066964 9.8448035-4.4723214 1.528713-15.0660714 3.748858-21.4870536 3.748858"/><g id="Group-19" fill="#F6F1DF"><path id="Fill-17" d="M300.4079469 365.9053351c14.3964285-14.5164713 14.3964285-38.0521692 0-52.5681904-14.3959822-14.5160211-37.7370536-14.5160211-52.1330358 0-14.39642853 14.5164713-14.39642853 38.0517191-.0004464 52.5681904l1.4575893-1.4697432c-13.3580357-13.46942-12.58526786-35.2913928.7727679-48.7608127 13.3580357-13.46941996 34.1366071-13.27945622 47.4941964.1895136 13.3584821 13.4694199 14.8589286 35.3503625 1.5008928 48.8197824"/></g><path id="Fill-20" fill="#F6F1DF" d="M250.0327679 365.1692027c0 .5725922-.4602679 1.0366979-1.028125 1.0366979-.5678572 0-1.028125-.4641057-1.028125-1.0366979 0-.5725921.4602678-1.037148 1.028125-1.037148.5678571 0 1.028125.4645559 1.028125 1.037148"/><path id="Fill-22" fill="#F6F1DF" d="M212.02464286 386.4762027c-.12098215-2.2764139 4.6174107-6.8364441 4.6174107-6.8364441l-1.51696427-3.2446888 2.7785714-1.4832477 8.2433036-5.0452931c6.7482143 2.0819486 6.9107143 6.8377946 10.5633928 12.1518278l-3.728125 10.5934048-3.2669642.2552357-13.4870536.0594199-4.17991073-6.2111843-.0236607-.2390302z"/><path id="Fill-26" fill="#7B2D3B" d="M226.1130804 378.4565816c1.6102678 0 2.915625 1.3162417 2.915625 2.9399365 0 1.6236949-1.3053572 2.9399366-2.915625 2.9399366v-5.8798731z"/><path id="Fill-28" fill="#F6F1DF" d="M212.00004464 450.986946h8.92857143s13.22008933-19.821502 16.51785713-25.438487c3.2977679-5.616535 11.4196429-26.007027 11.4196429-26.007027l-14.2433036-3.2370362-.6334821 26.3887552-14.10133933 25.531668s-6.58526786.06122-7.88794643 2.762127"/><g id="Group-32" fill="#F6F1DF"><path id="Fill-30" d="M306.4758933 327.44267303c10.6245536 28.56838667-19.8651786 52.84593357-28.10535716 54.08114807l8.86919643 6.9620362c10.19017853-9.6602417 32.70669643-33.4345196 21.76294643-61.40780662"/></g><path id="Fill-33" fill="#F6F1DF" d="M295.4821875 450.986946h13.334375v-9.292919l-17.828125-18.241471.0263393-42.0562629-11.1977679 12.8167009-5.1508928 3.5579939s.4004464 4.3484591 1.2540178 3.7105952c.853125-.6383142 4.6607143-2.2953203 4.6607143-2.2953203s-2.8178571 2.5726133-3.1491071 6.3169702c-.33125 3.744806 2.9 19.286722 6.6584821 23.352486 3.7584822 4.066215 21.8852679 14.478659 21.8852679 14.478659l.0397321 4.886389s-6.7647321-1.735332-10.5330357 2.766179"/></g><path id="Fill-1" fill="#F6F1DF" d="M72.3948629 375.7060469c-1.0202531-1.0002947-2.1274129-2.4724071.4530459-2.2710089.3044304.0236939.5414952.2817514.5414952.5866816v1.2619578c0 .5186904-.6242879.7855043-.9945411.4223695m69.344303 29.0744781c-.0992484-.990508-1.5355222-2.468802-2.5244066-2.369905-.9883703.098896-1.9124605 1.616336-1.8137263 2.606844 2.5120649 25.209281-9.4095727 40.507301-34.5775312 43.02349-33.845767 3.383592-54.34545032-13.423111-57.72349616-47.324448-3.69121832-37.0443858 14.92120236-62.1465295 48.57310066-65.5105485 19.1816849-1.9176608 36.8659015 11.3112627 38.6174046 28.886987 1.0310522 10.3526899-7.3150711 19.8590954-18.1881722 21.1071455-.8731804.100442-2.1263845.130317-3.4119857.160707-.0118276.000515-.0231409 0-.0354826-.000515-.8778086-.050994-1.8584652-.002576-2.9280854.108683-.6397152.042752-1.1992089.104562-1.6147152.197277-6.9211629.960633-16.7863527 3.378442-26.4617877-1.670935-.0714794-.0376012-.1362737-.0901398-.188212-.1529802l-2.2235759-2.7067707c-.339913-.4141282.0035997-1.0301697.5332674-.9549673 1.1436708.1617366 2.6539952.3935248 3.4562104.5171452.3111155.0484179.6032041-.1591612.662856-.4687272l.7723892-3.9975733c.0370253-.1916116-.023655-.3888891-.1614715-.5269318l-2.7568433-2.7618848c-.1830696-.1833702-.2247231-.4661518-.1013054-.6943344l.8968354-1.6611485c.2000396-.3718913-.0411392-.8277413-.4617879-.8643124-2.8674051-.249301-11.8357594-.710817-13.1481011 3.0992654-1.4625 4.2484196-3.2448576 13.066157 4.1926027 25.07742.1244463.200883.1193038.458425-.0179984.650552l-9.9484967 13.962404c-.0709652.099412-.109019.218911-.109019.340986v4.831496c0 .48521.5553798.761295.9410601.467182l1.3987342-1.066226c.1460443-.110743.2314082-.283811.2314082-.467182v-2.855115c0-.181825.0843355-.353863.2278086-.465121l12.1592166-9.402359c.2041535-.157616.4875-.163797.6973101-.014422 2.2410601 1.597278 4.0501582 3.146138 3.1579509 7.71391-1.2208069 6.251585-2.1562104 12.719505-2.3829904 14.329145-.0329114.231788-.1995254.419794-.4247627.481604l-3.8053797 1.046137c-.0884494.024209-.1702136.069537-.2386076.130832l-.0030854.00309c-.3969937.36056-.1424447 1.022444.3939082 1.022444h5.0292721c.2602057 0 .4895569-.171523.5625791-.421855l7.5763053-25.843866c.0755933-.258572.3178006-.432156.5862341-.421339l10.0873417.421339c.3625395.015453.6258307.350773.5497231.706697-.2648339 1.231568-.8176424 4.053202-1.1992089 7.71288-.5018987 4.820164.9024921 9.749526.9857991 15.480359.0041139.299265-.2190665.555777-.515269.593893-1.8394383.235909-4.2131724.493966-5.1382911.592863-.239636.025754-.4365902.195217-.500356.428035l-.0020569.007726c-.1028481.373952.1779272.743268.5651503.743268h8.1152293c.3512263 0 .6237737-.308021.5821202-.657248l-.9734572-8.114647c-.0107991-.090655-.0010285-.18131.0298259-.267329.4412184-1.231052 3.9200554-10.972852 5.7204114-16.898387l.3548259.192641c.1830696.098897.299288.283812.3064873.491906.0452532 1.355188.1912975 4.020752.6571994 7.40692.6577136 4.775351 9.3900315 9.657325 11.3446597 15.319138.1213607.353348-.109019.73039-.4787579.778808-1.6810522.218911-3.7611551.45276-4.7001582.556292-.2895174.031935-.5085839.271964-.5178402.563502l-.0010285.021119c-.0113133.33223.2545491.607285.58572.607285h7.9167325c.4530458 0 .7353639-.492936.5060126-.883886l-4.6585047-7.965271c-.023655-.040692-.0421677-.081899-.055538-.127226-.2704905-.90758-3.2093749-10.915678-3.0201344-16.958653.0015427-.047388.0082278-.092715.0200554-.139073.9148338-3.529876 2.636511-7.863285 2.4549841-11.403463-.0154272-.298749.1820412-.560927.4756725-.619132 11.8599286-2.341575 20.3844934-15.0919851 19.2197387-26.7771994-1.9448576-19.5206846-21.3738922-33.6376144-42.496835-31.5257666-17.9171675 1.7909499-32.2572781 8.89603-41.3593349 21.6639526-8.72511858 12.2389304-11.30454893 28.455861-9.44711225 47.0967804 1.78030062 17.867778 7.9496439 30.792286 18.59802195 39.522459 10.6488923 8.730172 24.0649127 11.804714 41.9034014 10.02149 13.5384096-1.353643 22.7392007-6.093453 29.3729031-14.21016 6.6321597-8.116707 10.6473499-17.963583 9.2964398-31.523191"/><g id="Page-1"><g id="Group-3" transform="translate(553 299.51)"><mask id="mask-8" fill="#fff"><use xlink:href="#path-7"/></mask><path id="Fill-1" fill="#F6F1DF" d="M51.0034913 1.05669457c.6734127 1.12703876 1.8876857 1.8228217 3.2049234 1.8351938l8.1519617.08248062c9.4839931 0 17.1714302 7.7272558 17.1714302 17.2596589v.9084651h10.2426179c5.3239837 0 9.6402154 4.3378915 9.6402154 9.6891163V149.831702H.00224865V29.9237333c0-5.3518139 4.31623173-9.6897054 9.6402154-9.6897054H19.885082c0-9.5324031 7.6874371-17.2596589 17.1714302-17.2596589l10.0337298-.08778295c.9828984-.0088372 1.8936032-.51668217 2.4143441-1.3467907l.9160305-1.45990698.5828747.9768062z" mask="url(#mask-8)"/></g><path id="Fill-4" fill="#999" d="M595.2607255 413.118772c-.0378721.003535-.0769276.007659-.114208.010016.0005918.001178.0011835.002356.0017753.003534.0372803-.004713.0745606-.008248.1124327-.01355"/><path id="Fill-6" fill="#999" d="M592.2562874 387.5857767c-.0810699.0082481-.1603646.0164962-.2384757.0259225.0769276-.0094263.154447-.0176744.2337416-.0253333 0 0 .0029588-.0005892.0047341-.0005892"/><path id="Fill-8" fill="#999" d="M601.252796 388.0051907c5.1790047.6309767 10.60832 1.6849612 13.099 2.1969302-.0787029-.0100155-.1627316-.020031-.2509025-.0294573.2112551.0294573.3958815.0595038.5497367.0895504-3.9173915-.9821086-16.1908989-3.3115969-22.3942245-2.6764962 2.3101959-.2309457 5.6086159.0023566 8.9963903.4194729"/><path id="Fill-10" fill="#7B2D3B" d="M596.758033 447.864617l-4.2008403-1.030419c-.0858039-.021209-.0893544-.141395-.0041422-.166728.0881709-.027101.0787029-.203845-.0124268-.218574-.3562341-.056558-.6343571-.129612-.7734185-.163783-2.2983609-.570884-4.1043849-1.836961-4.8778035-3.547256 0 0-1.7604592-4.116961-1.803657-4.072775 0 0-2.3303154 2.939845-2.2492455 3.019969.0313628.031225-.0325463.082481-.0029588.116651l2.3681875 2.743659c.8467957.98152 2.074679 1.748 3.5197349 2.198109.0041423.001178.0088763.002356.0130185.002946l7.2939227 1.810449c.3935145.097209.7811114-.188527.7953134-.591504 0-.004713.0005917-.008248.0005917-.010604v-.005892c0-.040062-.0278123-.074232-.0662761-.084248"/><path id="Fill-12" fill="#7B2D3B" d="M633.7545417 427.612679l-6.7483283-4.758543-7.7921771-6.679162-4.1221374 7.714294c-.0005917.094264.0562164.256279.1396533.446574.3911474.882542 1.0864548 1.594822 1.9427185 2.044341 4.3967098 2.308868 9.4549973 3.868341 11.5752411 4.469271.5816912.164962.9491686.734667.8592224 1.330295l-.9402923 6.240837c-.185218 1.23014-.5816912 2.41845-1.1722587 3.514853l-1.6024617 2.972837c-.0781111.301054.0337298.564403.2313747.729364l2.0368069-3.529581.0431978-.067752c.0408308-.064217.123676-.088961.1935026-.057147.0716018.032403.1076986.113705.0828451.187938l-.0153855.045953c-.0242618.071287.0017752.150233.0645008.192651.0011835.000589.002367.001179.0035505.002357.0881709.059504.2088881.025922.252086-.071287l5.7145393-12.452806s1.0367477-1.254295-.746198-2.275287"/><path id="Fill-14" fill="#7B2D3B" d="M633.2404284 332.7232031c-13.1682348-13.1108837-34.5186105-13.1108837-47.6868453 0-13.1682349 13.1102946-13.1682349 34.3667287 0 47.4770233l1.3332149-1.3273489c-12.2190662-12.1653023-11.5119237-31.8734573.7065507-44.0387597 12.2190662-12.1647131 31.2249246-11.9932713 43.443399.1714419 5.068939 5.0466356 8.2259306 11.3941085 9.3490739 18.0155349-.0579916.6038759-.0656843 1.3626976-.0082845 2.288248-.2313746 16.6534264-11.8243683 28.9984186-20.0627256 37.2423566-1.4533404-.9891783-3.9972779-1.8169302-5.2772353-2.1751318.0958636.0206202.1775253.0377055.2384756.0506667.0585834.0123721-.1432037-.0712868-.6254808-.1649612-.1538552-.0300465-.3384815-.0606822-.5497366-.0895504.0881709.0094263.1721995.0194418.2509024.0288682-2.4906799-.5113798-7.9199953-1.5653643-13.099-2.1963411-3.4132197-.4153488-6.7175572-.6474729-9.0011243-.4188837-4.928694.5785426-8.4644062 1.8245891-11.1272856 3.3616744l.6538848-3.384062-.3852299-.187938-9.294041-4.5323101c-.5201492-.0335814-3.3919167 3.3121861-3.7528848 3.6874729-.1005977.1048682-.1988284.2091473-.2958755.3140155-.1562223.1702636-.2479437.2727752-.3378898.3752868-.1242677.1419845-.2035624.2350698-.2816735.3281551-.1319605.1578914-.2142139.2598139-.2952837.3611473-.1301853.1649612-.2077046.2645271-.2822653.3635038-.0911296.1213644-.166282.2244651-.2408426.3281551-.1207172.1702635-.1917273.272186-.2603705.3735193.6550684.5213954 1.646843 1.3214574 2.1226108 2.6364342l-.4692585.2704186c-.5976685.5249302-.903012 1.0769612-1.045624 1.8569922-.0846204.5926822-.0514823 1.0156899.0443813 1.423969l.3520919 1.4987907c-.753299.1926512-1.7391562-.1025116-2.1906622-1.1659225-.3449908-.8130232-.43257-1.0516279-.5432274-2.0154729-.0295876-.2580465-.0254453-.5649922.0017752-.8978604-1.5273093 5.0531163 1.0746198 9.5011781 4.3890171 11.7051781 1.2574709.836 2.6173147 1.349737 3.8925381 1.451659 1.4965382.120775 2.8220604.051256 3.9848511-.177922l.5260667.494883-.5260667-.416527c-.4651162.14552-.7876205.238605-1.1255103.317551-.116575.026511-.2361087.051845-.3562341.076-1.1627907.229767-2.4983727.394139-3.9848512.178511-1.2219658-.177922-1.5385526-.46307-2.3131546-.792992.494112 2.900372 2.9066808 8.062481 9.4041067 13.808434.437304.385892.7071424.924961.7609918 1.504093l1.2870584 13.209861 4.5209776-8.489613.4402627-1.56124c.3473578-1.231907.3367063-2.536868-.030771-3.762295-.0402391-.133736-.0781112-.260403-.1106575-.376465-.3378898-1.197736-.8462039-2.322418-1.2450441-3.107163l-4.3215575-8.506108c.2905498.215628.5864253.423008.8894018.619783.7710515.500775 1.5799751.941457 2.4196698 1.317922 0 0 1.5265203 2.493272 4.5795609 7.479814.9130718 1.982481.6491508 3.884248-.3946979 5.801923-.0627256.113705-6.4619208 12.690232-6.4619208 12.690232-1.005385 1.88645-2.51435 4.696682-4.2866442 7.901644-.1349192.243907-.2722055.493116-.4130422.74586-.0704184.127845-.3503166.508434-.8195751.965613-.6071365.592093-1.5326351 1.314976-2.7362566 1.788062-1.3539263.533178-10.85093793 2.081457-9.2709628 3.457116.1804841.157891 1.9427185-1.14707 4.5002663-1.09169.010257.000393 1.6466458-.001375 4.9091662-.005302.8775667 0 2.3936328-.032993 2.4427481-.081892.5757737-.573829 1.3977159-.856031 1.8882774-1.531194 1.1391207-1.568899 2.9901178-4.247752 4.8547252-6.852372 1.0071601-1.407473 2.0764542-2.907442 3.1593585-4.437457 5.5452985-7.838605 11.4515652-16.469023 11.2870584-17.45231-.1023729-.613303-1.4089591-3.110109-3.1084679-6.174264-3.5173679-6.330977-3.8949051-10.089147-3.9126576-10.202852-.568081-3.620311 1.7397479-4.8975819 2.8457305-5.2958455.0887627.0465427-1.6113379.5761861-.8704657 5.2958455.0177525.114294.4284277 3.927844 3.8292207 10.051441.0372803-.001767 2.2735073-.235659 2.3066453-.420062.0858039-.021209.1692408-.041829.252086-.063628 2.3172968-.573829 4.5351796-1.340899 6.7648973-2.208124 1.0894136-7.797953 4.5357713-10.865054 6.9305876-11.9437825-.8177999.7829765-1.6314575 1.7886515-2.3462927 3.0694575-1.3036274 2.33538-2.3267649 5.470232-3.0729629 8.307566-.6799219 2.586356-1.1302444 4.92586-1.3539262 6.190759-.1136162.643349-.0378721 1.304962.2153973 1.90707 1.3645778 3.237365 6.1660453 14.191969 10.6828807 19.189116.2337416.257458-3.3250489 5.989272-7.4749986 8.226853-2.3699627 1.27845-4.2120835 2.582822-4.2469968 2.655287 0 0-1.6580863 1.134109-.6077283 1.343845l3.5700337-2.232279c.1757501.422418.3840464.501953.5550625.415349-.1076987.05479-.2142139.108992-.3183621.162015.5189656-.256279 1.0509498-.531411 1.5912184-.814201 5.6914611-2.938078 14.0724304-7.559349 12.8954376-8.730574l-7.5525179-13.390729c-.2722054-.262759-.4254689-.623907-.4254689-1.00155l4.8671519-9.107628.601219-1.125271c.8781585-1.504682 1.6249482-2.890946 2.2563465-4.168217 2.2942186-4.643659 2.3249897-8.695814 1.9468608-11.0824499.2432096-.5532093.4266524-.8030078.5165986-.6062326.0976389.2144496 14.8724777-18.0508837 17.8134801-30.3133953 1.7219954-4.9075969 1.95337-9.1194109 1.5835256-12.0215504-.2680632-8.2227287-3.5522812-16.3665117-9.8562045-22.6426977z"/><path id="Fill-16" fill="#F6F1DF" d="M573.3162317 401.017039c.1875851.133736.5083141.338759.9331913.529054.0609504.027101.123676.054202.1887686.080713.0863957.035349.1763418.06893.2698385.101334.2804899.097798.591751.180279.9284573.232124.1118409.017085.2272323.030635.344399.040651.1177585.010015.2378839.015318.3603764.016496.0615421.000589.1230842 0 .1858098-.001768.437304-.012961.903012-.087193 1.3876561-.24862.180484-.059504.3509083-.126077.5124563-.197953.2414344-.108403.4615658-.228589.6633529-.358202.2011953-.129023.3828629-.266294.5479614-.408279.0514824-.044186.1005977-.08955.149713-.134915.1923191-.180279.3586011-.367038.5012131-.550852.1071069-.137861.2006036-.273954.2834487-.405923.0591751-.096031.1130245-.189116.1609563-.278666.0645009-.119597.1177585-.232714.1633233-.335814.1579975-.3617368.2094798-.606233.2094798-.606233s-.0029587-.0159069-.0088762-.0459534c-.0005918-.0029458-.0011835-.0064807-.0017753-.0094264-.0059175-.0312248-.014202-.0748217-.0254453-.1302015-.0005917-.0053024-.0017752-.011783-.0029587-.0176745-.004734-.0259224-.0106516-.0542015-.0165691-.084248-.0011835-.0070698-.002367-.0147287-.0041422-.0212093-.0100598-.0547907-.0218948-.1154729-.0337298-.1820465-.0088763-.0424186-.0171608-.0883721-.0260371-.1366822-.0112432-.0571473-.0224865-.1178295-.0349133-.1820465-.004734-.0288682-.0106515-.0589148-.016569-.0895504-.0112433-.0612713-.0230783-.1243101-.0355051-.1908837-.011835-.0653954-.0248535-.1331473-.0372803-.2032558-.0325463-.1755659-.0668678-.3640931-.1029647-.5620466-.014202-.0789457-.0289958-.160248-.0431978-.2421395-.0224865-.1231318-.044973-.2492093-.0674596-.3776434-.0479318-.2727752-.0970472-.556155-.1461625-.8430698-.0325463-.1914728-.0650926-.3847132-.0970471-.5773643-.0473401-.2904496-.0934967-.5791318-.1361028-.8613333-.014202-.0936745-.0289958-.1873489-.0420143-.279845-.0242618-.1608372-.0467483-.3193178-.0686431-.4736744-.0639091-.4618915-.1147997-.883721-.144979-1.2307287-.0035505-.0483101-.0076928-.0948527-.0106515-.1396279-.0035505-.0453644-.0065093-.0883721-.0088763-.1302016-.0017752-.028279-.0035505-.0553798-.004734-.0818914-.002367-.0530233-.0041422-.1031008-.0041422-.1496435-.0005918-.0235658-.0005918-.0459534-.0005918-.0677519 0-.0217984 0-.0430077.0005918-.0630387 0-.0212094.0005917-.0412404.0017752-.0600931.0035505-.0577364.0088763-.1066356.0171608-.1449302.004734-.0235659.0100597-.0435969.0171608-.0595039.0065092-.0164961.0136102-.0288682.0224865-.0371163l.6982662-2.4826666s-.0491154-.0011783-.1408368-.0011783c-.0372803 0-.0804781.0005891-.1307769.0011783-.149713.0017674-.3574176.0070697-.6100953.0212093-.0846204.004124-.1739748.0094263-.268655.015907-.1414284.0100155-.2929167.0217984-.453873.0371162-.0538493.0047132-.1082904.0100155-.1633232.015907-.1674656.0164961-.3426239.0371163-.5248832.0612713-.0609503.0076589-.1224924.015907-.185218.0247442-.1864016.0259225-.3804959.0565582-.5793243.0913178-.1325522.0229768-.2674714.0483101-.4041659.0754109-.1366945.0276899-.2757559.0565581-.4160009.0883721-.0840287.0188527-.1686491.0394729-.2538612.060093-.1272265.0306357-.2556364.0636279-.3846381.0989768-.2869993.0777674-.577549.1655503-.867507.2657054-.144979.0494884-.289958.1025116-.4343452.1578915-.1443873.0559689-.2887745.1148837-.4319782.1767441-.2142139.0930853-.4266525.1938295-.6361324.3022326-.1390614.071876-.2775312.147876-.4130422.2268217-.1361027.0789457-.2698384.1620155-.4017989.2492093-.1313687.0860155-.2603704.1767442-.3864134.2710078-.0976389.0730542-.1929108.1490542-.287591.2274108-.0810698.0671628-.161548.1366822-.2402509.207969-.1769335.1602481-.3461743.3305116-.5053553.5107907-.0136103.0147287-.0260371.0300465-.0396473.0447752-.1485295.1714419-.2893663.3517209-.4201432.5414264-.0645009.0936744-.126043.1902945-.1852181.2886821-.0893544.1461085-.1716078.2981085-.2491272.4554109-.0562163.1137054-.1100656.2291783-.1597727.3493643l1.2793656 3.8371163 1.2787739 3.8382946s.0668679.056558.1893603.143163"/><path id="Fill-18" fill="#F6F1DF" d="M564.6138825 393.5123628c.1124327.9738605.2000118 1.2148217.5325759 1.9983876.0053257.0123721.0106515.0247442.016569.0371163.45624 1.0740155 1.4521569 1.372124 2.2119652 1.1777054l-.3556423-1.5135194c-.0970472-.4124031-.1295935-.8395349-.0727854-1.2595969.0082845-.0595039.0177525-.1190077.028404-.1785116.1432038-.7882791.4520978-1.3456124 1.0550921-1.8752558l.3668856-.2115039.1071069-.0612713c-.4793183-1.3285272-1.4817445-2.1356589-2.2048642-2.5686822-.4799101-.2875039-.8373277-.4106357-.8373277-.4106357s-.6964909 2.251721-.8414699 3.9113489c-.0017752.0164961-.0029587.0329922-.0041422.0488992-.0278123.3352248-.0319546.6457054-.002367.9055194"/></g></g><g id="flow-line-2" fill="#5E232D"><path id="Rectangle-4" d="M46 210h766v6H46z"/><path id="Rectangle-4-Copy" d="M805.05025253 198.80761184l14.14213563 14.14213563-4.2426407 4.2426407-14.14213562-14.14213564z"/><path id="Rectangle-4-Copy" d="M805.05025253 227.19238816l14.14213563-14.14213563-4.2426407-4.2426407-14.14213562 14.14213564z"/></g><g id="flow-line-2-copy" fill="#5E232D"><path id="Rectangle-4" d="M46 502h766v6H46z"/><path id="Rectangle-4-Copy" d="M805.05025253 490.80761184l14.14213563 14.14213563-4.2426407 4.2426407-14.14213562-14.14213564z"/><path id="Rectangle-4-Copy" d="M805.05025253 519.19238816l14.14213563-14.14213563-4.2426407-4.2426407-14.14213562 14.14213564z"/></g></g></g></g></g></svg>