<svg xmlns="http://www.w3.org/2000/svg" width="358" height="356" viewBox="0 0 358 356" xmlns:xlink="http://www.w3.org/1999/xlink"><defs><circle id="path-1" cx="32" cy="32" r="26"/><path id="path-2" d="M10.6968 12H.0008V1.3024h10.696z"/></defs><g id="Designs" fill="none" fill-rule="evenodd"><g id="1-Case-Study"><g id="POI/adventure/mountain" transform="translate(150 145)"><circle id="Oval" cx="32" cy="32" r="32" fill="#FFF8F1" fill-rule="nonzero"/><g id="Oval-6"><use fill="#327871" xlink:href="#path-1"/><circle cx="32" cy="32" r="24.5" stroke="#327871" stroke-width="3"/></g><circle id="Oval-9" cx="32" cy="32" r="20" fill="#A4D8D3"/><path id="Page-1" fill="#180F5C" d="M32 14.0008l-16 27.712h32z"/><g id="Page-1"><g id="Group-3" transform="translate(26 36.697)"><mask id="mask-3" fill="#fff"><use xlink:href="#path-2"/></mask><path id="Fill-1" fill="#327871" d="M10.6968 6.6504c0 2.956-2.394 5.35-5.348 5.35-2.954 0-5.348-2.394-5.348-5.35 0-2.954 2.394-5.348 5.348-5.348 2.954 0 5.348 2.394 5.348 5.348" mask="url(#mask-3)"/></g><path id="Fill-4" fill="#FD7016" d="M35.6968 30.3476c0 2.402-1.946 4.35-4.348 4.35s-4.348-1.948-4.348-4.35c0-2.4 1.946-4.348 4.348-4.348s4.348 1.948 4.348 4.348"/></g></g></g></g></svg>