<svg xmlns="http://www.w3.org/2000/svg" width="354" height="406" viewBox="0 0 354 406"><g id="Designs" fill="none" fill-rule="evenodd"><g id="1-Case-Study"><g id="feature-2---a-good-omen"><g id="logo"><g id="Langur" fill-rule="nonzero"><path id="Shape" fill="#E2D4CA" d="M167.6062964 307.590124l-8.8930501-2.335681c-.0795992-.023483-.1347133-.100695-.1347133-.188728s.0551141-.165246.1347133-.188728c.1863813-.059598.1677432-.462595-.0239633-.493813-.7561755-.127711-1.3312949-.283801-1.6374927-.37178-4.8672142-1.294132-8.6906932-4.163359-10.328186-8.04008 0 0-3.0752912-7.946427-3.1658193-7.838582 0 0-5.5914386 5.270183-5.4183703 5.451816.0665648.07095-.0692273.187308 0 .263935l5.0136567 6.220916c1.7945855 2.225 4.3932732 3.973214 7.4552515 4.980707h.0266259l15.443021 4.103761c.3953747.106269.8146258.017148 1.1415073-.242651.3268815-.2598.5266487-.662663.5439121-1.096889V307.777433c-.0029346-.094731-.0691002-.173624-.1570928-.187309z"/><path id="Shape" d="M139.6863794 176.417329c1.8398496 2.945854 3.0113891 5.522767 3.6557358 7.821554.0825403-.190146.1704058-.397321.266259-.630038.2058631-.552342.3454231-1.130196.415364-1.719834v-.093654c.3567871-2.730165-.0159755-6.527421-.1437798-7.642759-.0239633-.212851-.0399389-.329209-.0399389-.329209-1.7690495.054134-3.5155065.438348-5.160099 1.135203.3487992.454082.6842855.945058 1.0064589 1.458737z"/><path id="Shape" fill="#E2D4CA" d="M221.763373 185.325841c.57512-.110683 2.465559 2.795439 3.818154 7.146108.197032-.334886.407377-.661257.633697-.976276 7.907891-10.926336 30.965919-43.208693 36.144657-66.329956 3.645085-11.1249965 4.135002-20.6720602 3.3522-27.24489-.569477-19.343756-8.05671-37.7233089-20.927956-51.3736463-27.475264-29.23149694-72.3372403-29.55503-100.1639666-.7180164-28.6148529 29.6486843-28.8598112 78.4113617-.7375374 108.3864177 1.5383086-1.639615 1.6129818-4.272398.1704057-6.008066-22.8982725-27.4917974-20.8400906-69.5170407 3.5279316-96.151759 25.2413515-27.59112753 67.0360237-27.52869133 92.6022117-.283801 5.663329 6.036446 20.768201 28.1473773 17.708885 55.7271528-2.729155 24.6906822-22.898273 54.8729122-30.209744 63.3926162-5.391108 6.25143-13.625449 8.734324-21.290069 6.419577l-.087865-.025542.505892.113521c.122479.02838-.303535-.161767-1.331295-.374618-.324836-.068112-.716237-.136224-1.163552-.204336l.532518.068112c-5.27459-1.157908-16.7743156-3.55035-27.7335354-4.977869-7.2262688-.942219-14.2235548-1.46725-19.0561554-.950733l-.4952417.05676c-4.6476515.549161-9.2317233 1.595024-13.6830491 3.121811.1278043 1.135204.5005669 4.912594.1437798 7.642759v.093654c-.0699409.589638-.2095009 1.167492-.415364 1.719834-.0931906.232717-.1810561.439892-.266259.630038-.6443467-2.301625-1.8158862-4.878538-3.6557358-7.821554-.3195108-.513679-.6549971-1.001817-.9984712-1.472927-2.6545862-3.674087-6.3193742-6.372833-10.4826161-7.719385-1.7314241-2.00614-3.7005417-3.763449-5.8576977-5.227614-1.0437352-.689636-2.1673481-1.29697-3.3841516-1.470088.2492204.206611.3608777.550304.2848971.876944-.0835151.319506-.2399349.612006-.4553029.851403-.4549357.544294-.9480493 1.050921-1.4750748 1.515497-1.5975538 1.481441-3.2643351 2.988424-5.1627616 3.973214-3.5066308 1.31116-6.5233451 3.323309-8.5202875 5.721426l.7561755.096493c-5.28612832.720854-9.0945193 3.628868-11.42517293 8.724041 9.07410613-4.160522 1.5176762 22.987876 1.5975539 24.997187.09585323-.703827 5.7085926.595982 12.08815783 2.517314 3.9619337 1.194802 8.2167522 2.627997 11.6275298 3.973213-2.5323784.294133-5.090085.231154-7.6070192-.187308-.3195107-.053923-.6336963-.113521-.9452194-.175957 1.3099942 6.618238 6.1106437 16.832234 19.2638375 29.285419.9220927.876894 1.4977758 2.093974 1.6108668 3.405611l2.7051913 35.966094c-2.1061086 4.222958-5.0589207 10.072095-8.4537227 16.661953l-.8733295 1.702806c-.4961989.799379-1.0788697 1.533791-1.7360086 2.188105-1.6620152 1.744414-3.6309741 3.121673-5.7937954 4.052677-2.8676093 1.208992-22.97548768 4.716772-19.62861226 7.838582.38075035.357589 4.1137013-2.599616 9.52674646-2.474744h10.3867629c1.8638129 0 5.0589207-.073788 5.173412-.187309 1.2194662-1.299808 2.9581373-1.93836 3.9938848-3.470885 2.4123063-3.556026 6.3316386-9.629366 10.2802593-15.532426 2.1300719-3.189922 4.3959358-6.589858 6.6884256-10.057905 10.9911709-16.633573 22.6506517-34.839404 23.8088783-38.923299h.0878655l.6576597-2.786925h-1.421823c-1.0943244-2.554209-3.2430344-6.870821-5.8177588-11.843014l-.2502834-.485299c-7.1889926-13.866514-7.9877695-22.38338-8.0330336-22.641639-.3887381-2.656377-.1384546-4.753666.4553029-6.408226.4049146.105048.8158254.181837 1.2301165.229879-.2316453 1.592124-.1357921 3.612786.532518 6.181185 1.8638129 7.126241 10.0699147 22.783539 10.0699147 22.783539l.2369705-.031218-.2422957.022704s4.0870754-.454081 4.7926617-.851403l.7162367-.266772c3.6184596-.964924 11.5343391-3.587244 17.3068339-5.676019-1.3605834 5.633448-2.2685266 10.687943-2.726492 13.455002-.2398818 1.442748-.0845792 2.928616.4473151 4.279719 2.8383207 7.214219 14.7241222 33.624735 24.2428802 45.195299.266259.732207-10.471966 24.452289-20.368812 25.91954-5.6526782.851403-10.2775968 2.151211-10.4000759 2.270408 0 0-4.1323394 1.095472-2.2046244 2.372576l8.7412824-1.915657c.1470508-.042319.2984452.050436.338149.207175.0397037.156739-.0473183.318108-.1943691.360427l-.1144914.04257c.0025295.206856.0870357.402917.2326277.539717.145592.1368.3386817.20157.5315356.1783l-.7535129.090816v.019866c1.2194661-.153252 2.4815337-.317857 3.7622394-.490975 13.2623596-1.702806 32.3957306-24.06632 31.6022786-28.028181.266259-.198661.239633-.493814-.151768-.913839l-12.527485-23.765491c.247621.17028.497905.334885.761501.482461 9.319064 5.23329 18.710019 10.858224 23.199145 12.220469 1.230955.374345 2.009604 1.664837 1.818549 3.013966l-2.643952 19.014663c-.392899 2.78774-1.233243 5.482546-2.484196 7.966292l-3.394802 6.740273c-.158012.605404.034118 1.253159.489917 1.651721l4.310732-8.000348.090529-.153253c.090696-.136933.259901-.185823.403063-.116462.143162.069361.219862.23739.182706.400263l-.031951.105006c-.05201.161658.003537.34044.135792.437054.088539.063562.198878.082246.301539.051061.10266-.031186.187181-.109065.230979-.212828l9.484145-32.410067s2.196637-2.83801-1.578916-5.156663l-11.009808-11.454206-15.176762-13.74448-8.22474 13.193906-.332824-.630038c-.575796-.595868-.900487-1.414999-.899956-2.270408l.308861-.615848 9.998025-20.027832 1.272718-2.554209c1.863812-3.405611 3.440066-6.552963 4.776686-9.450571 3.844779-8.332396 4.68882-15.82474 4.473151-21.268042-.019752-.506429-.007299-1.013701.037276-1.518335l-.050589-.303667c-1.126276-6.609724-2.88891-11.808958-2.140723-11.959372zm-74.1637766 66.693221c-.0505892.09933-2.0288935 4.257014-4.4678258 9.385297l.6896108-8.156439c.7354942-2.78706.7142593-5.739315-.0612396-8.514028-.0852028-.309343-.1677431-.59882-.2369704-.865593-.2502835-.950733-.532518-1.878762-.8600166-2.764221.3274986 0 .6310338 0 .8972928-.022704 1.4857251-.099331-1.7413337-3.726307-3.128543-5.207748l-.2955475-.624362c1.7978251-.325946 3.5297411-.978725 5.1201602-1.929846l3.1951078 5.571012c1.9170647 4.492569 1.3605834 8.803506-.8520287 13.148498v-.019866z"/><path id="Shape" fill="#000" d="M130.7267646 206.17102c.0985159-.417187.4845914-.664094.7721511-.962085.5469113-.623401.8415229-1.451276.8200776-2.304464-.02595-.844078-.1557509-1.680873-.3860755-2.488934l-.6257086-2.602455c.0692273.244069 2.6625898-3.405611 3.8048409-5.108417 1.142251-1.702805 1.2168035-4.691229 1.1316007-6.811222-.0852029-2.119993-.8174151-3.218303-.8174151-3.218303s-2.9554747-.283801-3.5332567-.161766c-1.0596441.145599-2.0980939.431611-3.0912668.851402-.4299252.246036-.8822352.444776-1.3499331.593144-.4766035.110683-1.2327791.096493-1.1742021.323533-.5112172.334886-1.0650359-.414349-1.6587934-.493813-.2312713-.005988-.4622665.020733-.6869482.079464-.7188993.110682-1.4324733-.170281-2.1300719-.366103-1.4218229-.397322-5.6154019-.431378-6.1425947.181632-1.3472705 1.572258-2.2392381 5.392218-1.6641187 7.427071.2902223 1.033035.9239187 1.90998 1.5629403 2.744355 1.0650359 1.379273 3.0539905 3.348851 4.2095545 4.637308.162762.143389.2707182.345264.3035352.567601-.008895.164552-.0595068.323448-.1464424.459758l-3.0486654 5.869003c-.1719292.180179-.2522203.437402-.2158349.691456.0363853.254054.1850202.474028.3995536.591325l2.3004776 1.927008.3887382.062436c1.7474795.923656 3.6462573 1.477812 5.5914386 1.631856.9916563.111346 1.9941961.008058 2.9474869-.303667.1819806-.065388.3598499-.143119.532518-.232717.9505446-.502328 1.7306834-1.472927 1.8638129-2.576913.0174842-.131595.0254954-.264423.0239633-.397321-.0199175-.203345-.0136467-.408638.0186381-.610172zM104.3165361 187.272715c-1.1981654-2.449202-.7402-3.774552-.4952417-5.253155.2712939.431757.6664102.75832 1.1262755.930867.2452772-.409735.5232141-.796187.830728-1.15507l.7694885-.64139.2236575-.187309c-1.7519841-2.205133-4.4971142-3.07924-6.41151628-3.428315-.7176318-.135826-1.44399405-.212678-2.1726733-.229879 0 0-.60707048 4.730962-.1837187 7.974807v.093654c.0699409.589637.2095009 1.167492.41536402 1.719834.71623666 1.773756 1.03574744 2.173915 2.18598625 3.442505l.05591437.059598c1.57891573 1.7397 4.07376243 1.651722 5.78580773.783291l-1.5416395-2.639349c-.2617818-.457136-.4599883-.952318-.5884324-1.470089z"/></g></g></g></g></g></svg>