<svg xmlns="http://www.w3.org/2000/svg" width="406" height="310" viewBox="0 0 406 310"><g id="Designs" fill="none" fill-rule="evenodd"><g id="1-Case-Study"><g id="Group-5"><path id="Tour" fill="#F6F1DF" d="M42.61 27.82v-3.98H30.85v3.98l2.22-2.22h1.78v10.58L33.03 38h7.4l-1.82-1.82V25.6h1.78l2.22 2.22zm12.52 5.1c0 3.14-2.76 5.34-5.88 5.34s-5.88-2.2-5.88-5.34c0-3.14 2.76-5.34 5.88-5.34s5.88 2.2 5.88 5.34zm-4.26 0c0-1.74-.02-3.88-1.62-3.88s-1.62 2.14-1.62 3.88c0 1.74.02 3.88 1.62 3.88s1.62-2.14 1.62-3.88zM69.05 38l-1.72-1.72v-8.7l-5.44 1.78 1.68 1.68v3.26l-.78.78c-.42.42-.72.62-1.02.62-.38 0-.64-.32-.64-.76v-7.36l-5.44 1.78 1.68 1.68v4.8c0 1 .58 2.42 2.38 2.42 1.08 0 2.04-.56 2.96-1.46l.86-.86V38h5.48zm5.5-6.66l1.54-1.56 2.86 2.86v-4.98s-.8-.08-1.02-.08c-1.4 0-2.22.56-2.72 1.1l-.66.72v-1.82l-5.44 1.78 1.68 1.68v5.24L69.07 38h7.2l-1.72-1.72v-4.94z"/><g id="Group-4" transform="translate(23 62)"><circle id="Oval" cx="32" cy="32" r="32" fill="#327871" stroke="#FFF8F1" stroke-width="6"/><circle id="Oval" cx="32.3764706" cy="32.3764706" r="22.5882353" fill="#FFF8F1"/></g></g></g></g></svg>