<svg xmlns="http://www.w3.org/2000/svg" width="358" height="356" viewBox="0 0 358 356"><g id="Designs" fill="none" fill-rule="evenodd"><g id="1-Case-Study"><g id="POI/multi"><g id="POI-Multi"><g id="a"><g id="b" transform="translate(221 216)"><image id="Bitmap" width="156" height="156" opacity=".25"/><circle id="Oval" cx="78" cy="78" r="30" fill="#FFF8F1" fill-rule="nonzero"/><circle id="Oval" cx="78" cy="78" r="20" fill="#317870" fill-rule="nonzero"/><circle id="Oval" cx="78" cy="78" r="16" fill="#FC6F15" fill-rule="nonzero"/><path id="Shape" fill="#527CEF" fill-rule="nonzero" d="M78 66c6.627417 0 12 5.372583 12 12s-5.372583 12-12 12-12-5.372583-12-12 5.372583-12 12-12zm0-8c-11.045695 0-20 8.954305-20 20s8.954305 20 20 20 20-8.954305 20-20c0-5.3043298-2.1071368-10.3914081-5.8578644-14.1421356C88.3914081 60.1071368 83.3043298 58 78 58z"/><path id="Shape" fill="#317770" fill-rule="nonzero" stroke="#317770" d="M65.5 78c0 6.9035594 5.5964406 12.5 12.5 12.5S90.5 84.9035594 90.5 78"/><path id="Shape" fill="#170F5C" fill-rule="nonzero" d="M78 69.38l-9.68 16.78h19.36z"/></g><path id="Shape" fill="#317870" fill-rule="nonzero" d="M299 270c-11.025079-.0052257-20.6356068 7.5017103-23.3 18.2L299 294v-24z"/><path id="Shape" fill="#170F5C" fill-rule="nonzero" d="M276.3 286.22c-3.6217473 10.4304317.3401962 21.9861002 9.6 28L299 294l-22.7-7.78z"/><path id="Shape" fill="#527CEF" fill-rule="nonzero" d="M284.24 312.92c8.6804087 6.777537 20.8595913 6.777537 29.54 0L299 294l-14.76 18.92z"/><path id="Shape" fill="#DD3746" fill-rule="nonzero" d="M312.06 314.12c9.267259-6.0080633 13.237882-17.5649705 9.62-28L299 294l13.06 20.12z"/><path id="Shape" fill="#FC6F15" fill-rule="nonzero" d="M322.26 288.18c-2.6685483-10.6758822-12.2556603-18.1691623-23.26-18.18v24l23.26-5.82z"/></g></g></g></g></g></svg>