<svg xmlns="http://www.w3.org/2000/svg" width="358" height="356" viewBox="0 0 358 356" xmlns:xlink="http://www.w3.org/1999/xlink"><defs><circle id="path-1" cx="32" cy="32" r="26"/><path id="path-2" d="M0 11.9994V.1794h11.8214v11.82H0z"/></defs><g id="Designs" fill="none" fill-rule="evenodd"><g id="1-Case-Study"><g id="POI/cultural/Lake" transform="translate(33 262)"><image id="Bitmap" width="156" height="156" x="-46" y="-46" opacity=".25"/><g id="POI-Night" fill="#FFF8F1"><circle id="Oval" cx="32" cy="32" r="32" fill-rule="nonzero"/></g><g id="Oval-6"><use fill="#DD3747" xlink:href="#path-1"/><circle cx="32" cy="32" r="24.5" stroke="#DD3747" stroke-width="3"/></g><circle id="Oval-9" cx="32" cy="32" r="20" fill="#125CB8" transform="rotate(-180 32 32)"/><g id="Page-1" fill="#A4D8D3"><path id="Fill-1" d="M16 42.2376h11.82l-5.908-10.238z"/><path id="Fill-2" d="M36.178 42.2376H48l-5.91-10.238z"/><path id="Fill-3" d="M32.0884 16.0008l-5.91 10.236h11.822z"/></g><g id="Page-1"><g id="Group-3" transform="translate(26 27.82)"><mask id="mask-3" fill="#fff"><use xlink:href="#path-2"/></mask><path id="Fill-1" fill="#180F5C" d="M11.8214 6.0894c0 3.264-2.646 5.91-5.912 5.91-3.262 0-5.91-2.646-5.91-5.91 0-3.264 2.648-5.91 5.91-5.91 3.266 0 5.912 2.646 5.912 5.91" mask="url(#mask-3)"/></g><path id="Fill-4" fill="#FD7016" d="M26 33.91076c0-3.264 2.646-5.91 5.91-5.91 3.264 0 5.912 2.646 5.912 5.91"/></g></g></g></g></svg>