<svg xmlns="http://www.w3.org/2000/svg" viewBox="0 0 688.14 223.75"><g data-name="Layer 1" style="isolation:isolate"><path fill="#2e3d5a" d="M102.38 81.36h155.87v134.97H102.38z"/><path fill="#fafafa" d="M126.41 105.59h25.41V131h-25.41zM167.9 105.59h25.41V131H167.9zM209.39 105.59h25.41V131h-25.41z"/><path fill="#fff" d="M125.84 153.46h67.78v65.41h-67.78z"/><path fill="#2e3d5a" d="M135.61 164.5h48.23v7.24h-48.23zM135.61 181.85h48.23v7.24h-48.23zM135.61 199.19h48.23v7.24h-48.23z"/><path fill="#2a374f" d="M268.13 66.3l-28.55-27.92H121.51L92.96 66.3l.17.03h-.17v19.06h175.17V66.33h-.17l.17-.03"/><path fill="#2e3d5a" d="M92.96 66.33h175.17V85.4H92.96z"/><path style="mix-blend-mode:multiply" fill="#2a374f" opacity=".2" d="M102.38 85.42l155.88 85.56V85.42H102.38"/><path fill="#2a374f" d="M416.27 0h30.41v53.42h-30.41zM465.42 0h30.41v53.42h-30.41zM546.15 53.42h-30.4V23.34l30.4 5.84v24.24M595.31 53.42H564.9V23.34l30.41 5.84v24.24"/><path fill="#2e3d5a" d="M390.48 70.13h228.8v145.32h-228.8z"/><path fill="#fafafa" d="M416.27 99.12h30.41v30.41h-30.41zM465.92 99.12h30.41v30.41h-30.41zM515.56 99.12h30.41v30.41h-30.41zM416.27 154.4h30.41v30.41h-30.41zM465.92 154.4h30.41v30.41h-30.41zM515.56 154.4h30.41v30.41h-30.41zM565.21 99.12h30.41v30.41h-30.41zM565.21 154.4h30.41v30.41h-30.41z"/><path fill="#2e3d5a" d="M380.1 52.14h252.88v22.81H380.1z"/><path style="mix-blend-mode:multiply" fill="#2a374f" opacity=".2" d="M416.27 74.99l203.01 102.19V74.99H416.27"/><path fill="none" stroke="#cfd8dc" stroke-miterlimit="10" stroke-width="8.782" d="M0 219.36h688.14"/><path d="M348.39 125.08h-27.48v7.85h27.48v11.78L364.1 129l-15.7-15.7zm-55 27.48l15.7 15.7v-11.77h27.48v-7.85h-27.43v-11.78z" fill="#34b2ff"/></g></svg>