<svg xmlns="http://www.w3.org/2000/svg" viewBox="0 0 1358.2 701.08"><g data-name="Layer 1" style="isolation:isolate"><path fill="#eceff1" opacity=".75" d="M0 0h1358.2v701.08H0z"/><path fill="none" d="M0 0h1358.2v701.08H0z"/><g opacity=".15" fill="#78909c"><path d="M1116.11 611a5 5 0 0 1-3.92-1.89l-25.14-31.59a102.64 102.64 0 0 1-10.36-16.52l-95.14-195a5 5 0 1 1 9-4.39l95.16 195a93.92 93.92 0 0 0 9.18 14.67l25.11 31.58a5 5 0 0 1-3.91 8.11z"/><path d="M967.29 368.94a70.92 70.92 0 1 1 70.93-70.94 71 71 0 0 1-70.93 70.94zm0-128.84a57.92 57.92 0 1 0 57.93 57.9 58 58 0 0 0-57.93-57.9z"/><path d="M908.28 277.68a5.48 5.48 0 0 1-2.24-.48L426.64 62.77a5.5 5.5 0 1 1 4.49-10l479.4 214.38a5.5 5.5 0 0 1-2.25 10.52zM775.9 443.95a3.5 3.5 0 0 1-3.5-3.5V298a3.5 3.5 0 0 1 7 0v142.45a3.5 3.5 0 0 1-3.5 3.5zm-96.05-188.28H573.91a3.5 3.5 0 0 1-3.5-3.5V146.73a3.5 3.5 0 0 1 7 0v101.94h102.44a3.5 3.5 0 0 1 0 7zm549.08 429.1a3.5 3.5 0 0 1-3.12-1.9l-30.47-59.41a3.5 3.5 0 0 1-.39-1.6v-73.12a3.5 3.5 0 0 1 7 0V621l30.05 58.68a3.5 3.5 0 0 1-3.11 5.1zm-115.79-52.44H967.29a3.5 3.5 0 1 1 0-7h145.85a3.5 3.5 0 0 1 0 7zM967.29 480.15H841.52a3.5 3.5 0 0 1 0-7h125.77a3.5 3.5 0 0 1 0 7zm360.46-287.54h-214.61a3.5 3.5 0 0 1 0-7h211.11v-40.87a3.5 3.5 0 0 1 7 0v44.37a3.5 3.5 0 0 1-3.5 3.5zM713.6 92.59h-58.37a3.5 3.5 0 0 1-3.5-3.5V43.16L607.09 28a3.5 3.5 0 0 1 2.25-6.63l47 16a3.5 3.5 0 0 1 2.37 3.31v44.91h54.89a3.5 3.5 0 0 1 0 7zM592.55 640.44a3.5 3.5 0 0 1-3-5.29l13.06-21.93a3.5 3.5 0 0 1 3-1.71h42.64v-19.24a3.5 3.5 0 1 1 7 0V615a3.5 3.5 0 0 1-3.5 3.5H607.6l-12 20.22a3.5 3.5 0 0 1-3.05 1.72z"/><path d="M635.21 671.18a3.5 3.5 0 0 1-2.68-5.74l24.34-29.11-8.34-20a3.5 3.5 0 1 1 6.46-2.7l9.16 21.93a3.5 3.5 0 0 1-.54 3.59l-25.7 30.75a3.49 3.49 0 0 1-2.7 1.28zM529.85 0v251.5h-82a3.5 3.5 0 0 0 0 7h85.52a3.5 3.5 0 0 0 3.5-3.5V0z"/><path d="M621.07 0l-90.34 102.16a3.5 3.5 0 0 0 5.24 4.64L630.41 0zm281.8 294.52H717.1V0h-7v298a3.5 3.5 0 0 0 3.5 3.5h189.27a3.5 3.5 0 0 0 0-7zM958.58 231L863.44 36a102.36 102.36 0 0 0-10.36-16.55L837.57 0h-12.78l20.46 25.71a93.72 93.72 0 0 1 9.18 14.67l95.16 195a5 5 0 1 0 9-4.39z"/><path d="M938.54 240.61l-95.15-195a94.1 94.1 0 0 1-5.66-16.32L831.16 0h-10.27c.1.39.19.77.27 1.13L828 31.5a102.91 102.91 0 0 0 6.39 18.5l95.17 195a5 5 0 1 0 9-4.39zM963.79 0v233.6a3.5 3.5 0 1 0 7 0V0zm216.66 0l-182 241a5.5 5.5 0 1 0 8.78 6.63L1194.23 0z"/><path d="M1358.2 58.6H967.29a3.5 3.5 0 0 0 0 7h390.9zm0 82.64H533.35a3.5 3.5 0 0 0 0 7h824.85zm0 77.6h-245.06a3.5 3.5 0 0 0 0 7h245.06zm0 75.68h-326.48a3.5 3.5 0 0 0 0 7h326.48zm0 172.11L1028 318.95a5.5 5.5 0 0 0-4.49 10l334.69 149.73zm0 39.19l-168-23.41a3.5 3.5 0 1 0-1 6.93l168.93 23.55zm0 39.42H387.47a3.5 3.5 0 0 0 0 7h970.73z"/><path d="M1102.39 567.67l6.81 30.33a102.51 102.51 0 0 0 6.41 18.48l41.32 84.56h11.13l-43.45-88.92a93.8 93.8 0 0 1-5.66-16.32l-6.81-30.37a103 103 0 0 0-6.41-18.48l-95.17-195a5 5 0 1 0-9 4.39l95.15 195a94.38 94.38 0 0 1 5.68 16.33zm90.93 133.41l164.87-73.97v-7.67l-181.97 81.64h17.1"/><path d="M1109.64 0h7v701.08h-7zM970.79 701.08V362.44a3.5 3.5 0 0 0-7 0v338.64zm-128.17 0V56.88a3.5 3.5 0 0 0-7 0v644.2z"/><path d="M841.52 436.95H713.69a3.5 3.5 0 0 0-3.59 3.5v260.63h7V443.95h124.42a3.5 3.5 0 0 0 0-7z"/><path d="M933.64 346.37a5.5 5.5 0 0 0-7.68 1.22l-252.54 347.6a5.49 5.49 0 0 0-.35 5.89h9.66l252.13-347a5.5 5.5 0 0 0-1.22-7.71z"/><path d="M680.14 701.08a3.49 3.49 0 0 0-.23-5.5L594.6 634.1a3.5 3.5 0 0 0-2-.66h-59.25a3.5 3.5 0 0 0 0 7h58.06l84.15 60.65z"/><path d="M713.6 482.38H533.35a3.5 3.5 0 0 0-3.5 3.5v215.2h7v-211.7H713.6a3.5 3.5 0 0 0 0-7z"/></g><path d="M1132.78 524.71c-7.23 0-46.62-.23-43.44 12.7 1.21 4.94 12.42 8.81 16.65 9.27l9 3.83 9-3.83c12.78-1.39 35.31-5.67 35.31-10.74-.1-6.21-9.38-11.23-26.52-11.23z" style="mix-blend-mode:multiply" fill="#78909c" opacity=".6"/><path d="M1113.15 422.6a55.63 55.63 0 0 0-16.05 108.9l16 19 16-19a55.63 55.63 0 0 0-16-108.91z" fill="#3498db"/><path d="M1141.83 475l-17.18-.16.08-8.49 11 .1 6.1 8.55zm-10 10.78a4.44 4.44 0 1 0 3.15-1.27 4.43 4.43 0 0 0-3.15 1.27zm15 5.35h2.47l.08-8.44h-2.47l.08-8.4-8.9-12.47-18-.16-.27 29.23 6.26.06a9.09 9.09 0 0 0 17.69.16h1.23zm-56.5-5.74a4.45 4.45 0 1 0 3.15-1.27 4.44 4.44 0 0 0-3.15 1.27zm26.89 5.46l-15-.14a9.08 9.08 0 0 1-17.69-.16h-5.21l.07-7.31h2.34l.22-24.46 35.52.33z" fill="#2e3d5a" fill-rule="evenodd"/><path d="M811.08 197.79c-7.23 0-46.62-.23-43.44 12.7 1.21 4.94 12.42 8.81 16.65 9.27l9 3.83 9-3.83c12.71-1.4 35.21-5.68 35.21-10.76 0-6.18-9.28-11.21-26.42-11.21z" style="mix-blend-mode:multiply" fill="#78909c" opacity=".6"/><path d="M791.45 95.68a55.63 55.63 0 0 0-16.05 108.91l16 19 16-19a55.63 55.63 0 0 0-16-108.91z" fill="#3498db"/><path d="M820.13 148.07l-17.13-.16.08-8.49 11 .1 6.1 8.55zm-10 10.78a4.44 4.44 0 1 0 3.15-1.27 4.42 4.42 0 0 0-3.15 1.27zm15 5.35h2.47l.08-8.44h-2.47l.08-8.4-8.9-12.47-18-.16-.24 29.27 6.26.06a9.09 9.09 0 0 0 17.69.16h1.17zm-56.5-5.73a4.45 4.45 0 1 0 3.15-1.27 4.44 4.44 0 0 0-3.15 1.27zm26.89 5.46l-15-.14a9.08 9.08 0 0 1-17.69-.16h-5.21l.07-7.31h2.34l.22-24.46 35.52.32z" fill="#2e3d5a" fill-rule="evenodd"/></g></svg>