<svg xmlns="http://www.w3.org/2000/svg" viewBox="0 0 976.54 356.1"><title>schedule-event3</title><g data-name="Layer 2"><g data-name="Layer 1"><path fill="#3498db" d="M656.92 254.58H958v69.69H656.92z"/><path d="M667.39 311.7a.08.08 0 0 1-.08-.08v-5.28a.08.08 0 0 1 .08-.08h2a1.69 1.69 0 1 1 0 3.38h-1.09v1.93a.08.08 0 0 1-.08.08zm2.89-3.75a.82.82 0 0 0-.9-.84h-1.08v1.58h1.07a.82.82 0 0 0 .9-.74zm3.4 2.52a7.81 7.81 0 0 1 0-3 2.07 2.07 0 0 1 3.85 0 7.86 7.86 0 0 1 0 3 2.07 2.07 0 0 1-3.85 0zm2.93-.25a4.31 4.31 0 0 0 .1-1.25 4.27 4.27 0 0 0-.1-1.25 1.07 1.07 0 0 0-2 0 4.32 4.32 0 0 0-.1 1.25 4.37 4.37 0 0 0 .1 1.25 1.07 1.07 0 0 0 2 0zm3.68.25a7.91 7.91 0 0 1 0-3 2.07 2.07 0 0 1 3.85 0 7.86 7.86 0 0 1 0 3 2.07 2.07 0 0 1-3.85 0zm2.94-.25a4.37 4.37 0 0 0 .1-1.25 4.32 4.32 0 0 0-.1-1.25 1.07 1.07 0 0 0-2 0 4.28 4.28 0 0 0-.1 1.25 4.33 4.33 0 0 0 .1 1.25 1.08 1.08 0 0 0 2 0zm3.69-3.88a.08.08 0 0 1 .08-.08h.78a.08.08 0 0 1 .08.08v4.46h2.5a.08.08 0 0 1 .08.08v.69a.08.08 0 0 1-.08.08H687a.08.08 0 0 1-.08-.08zm9.16 4.72a.09.09 0 0 1 0-.12l.5-.58a.07.07 0 0 1 .11 0 2.43 2.43 0 0 0 1.48.58c.65 0 1-.33 1-.78s-.24-.65-1-.75h-.29c-1-.14-1.64-.65-1.64-1.55a1.64 1.64 0 0 1 1.84-1.64 3 3 0 0 1 1.76.54.07.07 0 0 1 0 .11l-.38.59a.08.08 0 0 1-.11 0 2.3 2.3 0 0 0-1.3-.42c-.55 0-.86.3-.86.73s.26.63 1 .74h.29c1 .14 1.62.64 1.62 1.57s-.7 1.69-2 1.69a3.06 3.06 0 0 1-2.02-.71zm6.59-4.72a.08.08 0 0 1 .08-.08h3.41a.08.08 0 0 1 .08.08v.66a.08.08 0 0 1-.08.08h-2.5v1.33h2.1a.08.08 0 0 1 .08.08v.69a.08.08 0 0 1-.08.08h-2.1v1.38h2.5a.08.08 0 0 1 .08.08v.69a.08.08 0 0 1-.08.08h-3.41a.08.08 0 0 1-.08-.08zm9.25 5.36a.12.12 0 0 1-.12-.08l-1-2.12h-.94v2.07a.08.08 0 0 1-.08.08H709a.08.08 0 0 1-.08-.08v-5.28a.08.08 0 0 1 .08-.08h2a1.62 1.62 0 0 1 1.74 1.62 1.55 1.55 0 0 1-1 1.5l1.14 2.21a.06.06 0 0 1-.06.1zm-.1-3.81a.76.76 0 0 0-.83-.78h-1.16v1.45H711a.76.76 0 0 0 .81-.68zm4.78 3.81a.1.1 0 0 1-.1-.08l-1.72-5.28s0-.08.06-.08h.78a.1.1 0 0 1 .1.08l1.21 3.85 1.17-3.85a.1.1 0 0 1 .1-.08h.8s.08 0 .06.08l-1.73 5.28a.1.1 0 0 1-.1.08zm4.8-5.36a.08.08 0 0 1 .08-.08h.78a.08.08 0 0 1 .08.08v5.28a.08.08 0 0 1-.08.08h-.78a.08.08 0 0 1-.08-.08zM725 309a4.22 4.22 0 0 1 .14-1.47 1.83 1.83 0 0 1 1.89-1.34 1.91 1.91 0 0 1 1.84 1.17.07.07 0 0 1 0 .1l-.68.33a.07.07 0 0 1-.1 0 1.07 1.07 0 0 0-1-.7 1 1 0 0 0-1 .72 8.07 8.07 0 0 0 0 2.48 1 1 0 0 0 1 .72 1.07 1.07 0 0 0 1-.7.07.07 0 0 1 .1 0l.68.33a.07.07 0 0 1 0 .1 1.91 1.91 0 0 1-1.84 1.17 1.83 1.83 0 0 1-1.89-1.33A4.23 4.23 0 0 1 725 309zm6.34-2.66a.08.08 0 0 1 .08-.08h3.41a.08.08 0 0 1 .08.08v.66a.08.08 0 0 1-.08.08h-2.5v1.33h2.1a.08.08 0 0 1 .08.08v.69a.08.08 0 0 1-.08.08h-2.1v1.38h2.5a.08.08 0 0 1 .08.08v.69a.08.08 0 0 1-.08.08h-3.41a.08.08 0 0 1-.08-.08zm9.46 2.73a5.58 5.58 0 0 1 1-3.21.16.16 0 0 1 .14-.08h.39s.07 0 0 .08a7.31 7.31 0 0 0 0 6.43v.08H742a.16.16 0 0 1-.14-.08 5.56 5.56 0 0 1-1.06-3.22zm4.2 2.63a.08.08 0 0 1-.08-.08v-5.28a.08.08 0 0 1 .08-.08h2a1.69 1.69 0 1 1 0 3.38h-1.13v1.93a.08.08 0 0 1-.08.08zm2.89-3.75a.82.82 0 0 0-.9-.84h-1.07v1.58H747a.82.82 0 0 0 .9-.74zm3.11 3.11a.09.09 0 0 1 0-.12l.5-.58a.07.07 0 0 1 .11 0 2.43 2.43 0 0 0 1.48.58c.65 0 1-.33 1-.78s-.24-.65-1-.75h-.29c-1-.14-1.64-.65-1.64-1.55a1.64 1.64 0 0 1 1.84-1.64 3 3 0 0 1 1.76.54.07.07 0 0 1 0 .11l-.38.59a.08.08 0 0 1-.11 0A2.3 2.3 0 0 0 753 307c-.55 0-.86.3-.86.73s.26.63 1 .74h.29c1 .14 1.62.64 1.62 1.57s-.7 1.69-2 1.69a3.06 3.06 0 0 1-2.05-.67zm7.09-1.99a7.4 7.4 0 0 0-.74-3.21v-.08h.39a.16.16 0 0 1 .14.08 5.56 5.56 0 0 1 0 6.43.16.16 0 0 1-.14.08h-.39s-.07 0 0-.08a7.43 7.43 0 0 0 .74-3.22zm-86.54-27.87a.23.23 0 0 1 .22-.18h.65c.13 0 .18.07.22.18l4.25 11.88a.12.12 0 0 1-.13.18h-.7a.2.2 0 0 1-.23-.18l-1.08-3h-5.33l-1.08 3c-.05.14-.12.18-.23.18h-.7a.12.12 0 0 1-.13-.18zm2.85 7.89l-2.29-6.41h-.05l-2.3 6.41zm16 4.18a.17.17 0 0 1-.18-.18V288c0-1.71-.77-2.57-2.27-2.57a2.24 2.24 0 0 0-2.32 2.39v5.26a.17.17 0 0 1-.18.18h-.61a.17.17 0 0 1-.18-.18V288c0-1.71-.76-2.57-2.25-2.57a2.25 2.25 0 0 0-2.34 2.39v5.26a.17.17 0 0 1-.18.18h-.61a.17.17 0 0 1-.18-.18v-8.23a.17.17 0 0 1 .18-.18h.61a.17.17 0 0 1 .18.18v1a2.7 2.7 0 0 1 2.54-1.39 2.62 2.62 0 0 1 2.67 1.6 2.93 2.93 0 0 1 2.83-1.6c1.95 0 3.06 1.19 3.06 3.28v5.31a.17.17 0 0 1-.18.18zm3.67-2.09a7.11 7.11 0 0 1-.25-2.21 7.33 7.33 0 0 1 .25-2.23 3.4 3.4 0 0 1 6.39 0 6.8 6.8 0 0 1 .25 2.29.18.18 0 0 1-.2.18h-5.6c-.07 0-.11.05-.11.13a4.66 4.66 0 0 0 .18 1.51 2.37 2.37 0 0 0 2.43 1.67 2.94 2.94 0 0 0 2.4-1.1.16.16 0 0 1 .25 0l.41.38a.16.16 0 0 1 0 .25 3.79 3.79 0 0 1-3.13 1.44 3.18 3.18 0 0 1-3.27-2.31zm5.54-2.81a.1.1 0 0 0 .11-.11 4 4 0 0 0-.16-1.24 2.44 2.44 0 0 0-4.59 0 4 4 0 0 0-.16 1.24.1.1 0 0 0 .11.11zm4 4.9a.17.17 0 0 1-.18-.18v-8.23a.17.17 0 0 1 .18-.18h.61a.17.17 0 0 1 .18.18V286a2.3 2.3 0 0 1 2.3-1.46 2.68 2.68 0 0 1 1.73.59.14.14 0 0 1 0 .23l-.36.5a.2.2 0 0 1-.27 0 2.47 2.47 0 0 0-1.37-.43c-1.51 0-2.09 1.31-2.09 2.9v4.75a.17.17 0 0 1-.18.18zm7.04-10.88a.17.17 0 0 1-.18-.18v-1a.17.17 0 0 1 .18-.18h.79a.17.17 0 0 1 .18.18v1a.17.17 0 0 1-.18.18zm.09 10.88a.17.17 0 0 1-.18-.18v-8.23a.17.17 0 0 1 .18-.18h.61a.17.17 0 0 1 .18.18v8.23a.17.17 0 0 1-.18.18zm3.8-6.54a3.41 3.41 0 0 1 6.1-.61.16.16 0 0 1-.05.23l-.5.32a.16.16 0 0 1-.23-.07 2.24 2.24 0 0 0-2.11-1.17 2.2 2.2 0 0 0-2.25 1.62 5.86 5.86 0 0 0-.23 1.93 5.73 5.73 0 0 0 .23 1.91 2.2 2.2 0 0 0 2.25 1.62 2.24 2.24 0 0 0 2.11-1.17.16.16 0 0 1 .23-.07l.5.32a.16.16 0 0 1 .05.23 3.41 3.41 0 0 1-6.1-.61 7.54 7.54 0 0 1-.27-2.23 7.68 7.68 0 0 1 .27-2.25zm9.23-.73a.18.18 0 0 1-.27 0l-.31-.45a.18.18 0 0 1 .05-.25 4.13 4.13 0 0 1 2.74-.83c2.23 0 3.13.74 3.13 2.84v5.74a.17.17 0 0 1-.18.18h-.58a.17.17 0 0 1-.18-.18v-.9a2.77 2.77 0 0 1-2.67 1.26c-1.73 0-2.88-.86-2.88-2.54s1.17-2.54 3.26-2.54h2.18a.1.1 0 0 0 .11-.11v-.88c0-1.4-.49-2-2.23-2a3.13 3.13 0 0 0-2.17.66zm4.39 4.57v-1.31a.1.1 0 0 0-.11-.11H726c-1.71 0-2.43.56-2.43 1.69s.76 1.66 2.12 1.66 2.47-.71 2.47-1.88zm9.9 2.7a.17.17 0 0 1-.18-.18V288c0-1.71-.76-2.57-2.25-2.57a2.25 2.25 0 0 0-2.34 2.39v5.26a.17.17 0 0 1-.18.18h-.61a.17.17 0 0 1-.18-.18v-8.23a.17.17 0 0 1 .18-.18h.61a.17.17 0 0 1 .18.18v1a2.7 2.7 0 0 1 2.54-1.39c1.91 0 3 1.19 3 3.28v5.31a.17.17 0 0 1-.18.18zm8.64 0a.17.17 0 0 1-.18-.18V281.2a.17.17 0 0 1 .18-.18h4.09c2.34 0 3.76 1.33 3.76 3.47s-1.42 3.46-3.76 3.46h-3.13a.1.1 0 0 0-.11.11v5a.17.17 0 0 1-.18.18zm6.82-8.77c0-1.57-1-2.5-2.77-2.5h-3.1a.1.1 0 0 0-.11.11v4.77a.1.1 0 0 0 .11.11h3.1c1.8.01 2.77-.92 2.77-2.49zm3.67 8.77a.17.17 0 0 1-.18-.18v-8.23a.17.17 0 0 1 .18-.18h.61a.17.17 0 0 1 .18.18V286a2.3 2.3 0 0 1 2.3-1.46 2.68 2.68 0 0 1 1.73.59.14.14 0 0 1 0 .23l-.36.5a.2.2 0 0 1-.27 0 2.47 2.47 0 0 0-1.37-.43c-1.51 0-2.09 1.31-2.09 2.9v4.75a.17.17 0 0 1-.18.18zm6.34-2.06a8.87 8.87 0 0 1 0-4.48 3.43 3.43 0 0 1 6.43 0 8.87 8.87 0 0 1 0 4.48 3.43 3.43 0 0 1-6.43 0zm5.49-.31a5.84 5.84 0 0 0 .23-1.95A5.78 5.78 0 0 0 769 287a2.42 2.42 0 0 0-4.56 0 5.78 5.78 0 0 0-.23 1.93 5.85 5.85 0 0 0 .23 1.95 2.42 2.42 0 0 0 4.56 0zm4.14 5.61a.17.17 0 0 1-.18-.18v-11.47a.17.17 0 0 1 .18-.18h.61a.17.17 0 0 1 .18.18v1a2.65 2.65 0 0 1 2.61-1.4 2.77 2.77 0 0 1 2.92 2.05 9.72 9.72 0 0 1 0 4.84 2.77 2.77 0 0 1-2.92 2.05A2.65 2.65 0 0 1 774 292v4.29a.17.17 0 0 1-.18.18zm5.42-5.51a8.87 8.87 0 0 0 0-4.05 2.35 2.35 0 0 0-4.39 0 6.39 6.39 0 0 0-.23 2 6.26 6.26 0 0 0 .23 2 2.35 2.35 0 0 0 4.39 0zm3.63.18A7.1 7.1 0 0 1 782 289a7.32 7.32 0 0 1 .25-2.23 3.4 3.4 0 0 1 6.39 0 6.8 6.8 0 0 1 .25 2.29.18.18 0 0 1-.2.18h-5.6c-.07 0-.11.05-.11.13a4.63 4.63 0 0 0 .18 1.51 2.37 2.37 0 0 0 2.43 1.67 2.93 2.93 0 0 0 2.39-1.1.16.16 0 0 1 .25 0l.41.38a.16.16 0 0 1 0 .25 3.79 3.79 0 0 1-3.13 1.44 3.17 3.17 0 0 1-3.3-2.34zm5.54-2.81a.1.1 0 0 0 .11-.11 4 4 0 0 0-.16-1.24 2.44 2.44 0 0 0-4.59 0 4 4 0 0 0-.16 1.24.1.1 0 0 0 .11.11zm4 4.9a.17.17 0 0 1-.18-.18v-8.23a.17.17 0 0 1 .18-.18h.61a.17.17 0 0 1 .18.18V286a2.3 2.3 0 0 1 2.3-1.46 2.68 2.68 0 0 1 1.73.59.14.14 0 0 1 0 .23l-.36.5a.2.2 0 0 1-.27 0 2.47 2.47 0 0 0-1.37-.43c-1.51 0-2.09 1.31-2.09 2.9v4.75a.17.17 0 0 1-.18.18zm9.42.05c-1.62 0-2.23-.63-2.23-2.32v-5.35a.1.1 0 0 0-.11-.11h-.9a.17.17 0 0 1-.18-.18v-.5a.17.17 0 0 1 .18-.18h.9a.1.1 0 0 0 .11-.11v-2.47a.17.17 0 0 1 .18-.18h.61a.17.17 0 0 1 .18.18v2.47a.1.1 0 0 0 .11.11h1.62a.17.17 0 0 1 .18.18v.5a.17.17 0 0 1-.18.18H800a.1.1 0 0 0-.11.11v5.29c0 1.15.4 1.44 1.39 1.44h.34a.17.17 0 0 1 .18.18v.58a.17.17 0 0 1-.18.18zm2.95 3.19a.17.17 0 0 1-.18-.18v-.58a.17.17 0 0 1 .18-.18h.32c.74 0 1.13-.31 1.62-1.6l.34-.88-3.17-8.23c0-.11 0-.18.13-.18h.64c.13 0 .18.05.23.18l2.61 6.9 2.54-6.9a.21.21 0 0 1 .22-.18h.68a.12.12 0 0 1 .13.18L807 294.1c-.74 2-1.35 2.41-2.47 2.41zm13.05-15.31a.17.17 0 0 1 .18-.18h.65a.27.27 0 0 1 .27.18l4 8.77h.07l3.89-8.77a.26.26 0 0 1 .25-.18h.7a.17.17 0 0 1 .18.18v11.88a.17.17 0 0 1-.18.18h-.67a.17.17 0 0 1-.18-.18v-9.58h-.05l-3.53 7.76a.3.3 0 0 1-.32.2h-.36a.29.29 0 0 1-.31-.2l-3.53-7.76h-.05v9.58a.17.17 0 0 1-.18.18h-.67a.17.17 0 0 1-.18-.18zm14.24 4.8a.18.18 0 0 1-.27 0l-.31-.45a.18.18 0 0 1 .05-.25 4.14 4.14 0 0 1 2.74-.83c2.23 0 3.13.74 3.13 2.84v5.74a.17.17 0 0 1-.18.18H836a.17.17 0 0 1-.18-.18v-.9a2.77 2.77 0 0 1-2.66 1.26c-1.73 0-2.88-.86-2.88-2.54s1.17-2.54 3.26-2.54h2.18a.1.1 0 0 0 .11-.11v-.88c0-1.4-.49-2-2.23-2a3.13 3.13 0 0 0-2.19.66zm4.39 4.57v-1.31a.1.1 0 0 0-.11-.11h-2.05c-1.71 0-2.43.56-2.43 1.69s.76 1.66 2.12 1.66 2.47-.71 2.47-1.88zm9.9 2.7a.17.17 0 0 1-.18-.18V288c0-1.71-.76-2.57-2.25-2.57a2.25 2.25 0 0 0-2.34 2.39v5.26a.17.17 0 0 1-.18.18h-.61a.17.17 0 0 1-.18-.18v-8.23a.17.17 0 0 1 .18-.18h.61a.17.17 0 0 1 .18.18v1a2.7 2.7 0 0 1 2.54-1.39c1.91 0 3 1.19 3 3.28v5.31a.17.17 0 0 1-.18.18zm4.68-7.27a.18.18 0 0 1-.27 0l-.31-.45a.18.18 0 0 1 .05-.25 4.13 4.13 0 0 1 2.74-.83c2.23 0 3.13.74 3.13 2.84v5.74a.17.17 0 0 1-.18.18H855a.17.17 0 0 1-.18-.18v-.9a2.77 2.77 0 0 1-2.67 1.26c-1.73 0-2.88-.86-2.88-2.54s1.17-2.54 3.26-2.54h2.18a.1.1 0 0 0 .11-.11v-.88c0-1.4-.49-2-2.23-2a3.13 3.13 0 0 0-2.21.66zm4.39 4.57v-1.31a.1.1 0 0 0-.11-.11h-2.05c-1.71 0-2.43.56-2.43 1.69s.76 1.66 2.12 1.66 2.47-.71 2.47-1.88zm3.96 4.88a.18.18 0 0 1 0-.25l.45-.4a.16.16 0 0 1 .25 0 2.72 2.72 0 0 0 2.13.92c1.53 0 2.45-.76 2.45-2.61v-1.21a2.5 2.5 0 0 1-2.54 1.4 2.81 2.81 0 0 1-2.86-2.05 9.65 9.65 0 0 1 0-4.68 2.82 2.82 0 0 1 2.86-2.07 2.5 2.5 0 0 1 2.54 1.4v-1a.17.17 0 0 1 .18-.18h.61a.17.17 0 0 1 .18.18v8.25c0 2.39-1.3 3.58-3.44 3.58a3.52 3.52 0 0 1-2.81-1.28zm5.1-4.57a9 9 0 0 0 0-3.93 2.07 2.07 0 0 0-2.14-1.51 2.05 2.05 0 0 0-2.11 1.49 5.86 5.86 0 0 0-.25 2 5.75 5.75 0 0 0 .25 2 2 2 0 0 0 2.11 1.51 2.09 2.09 0 0 0 2.14-1.57zm4.17.3a7.11 7.11 0 0 1-.25-2.21 7.33 7.33 0 0 1 .25-2.23 3.4 3.4 0 0 1 6.39 0 6.83 6.83 0 0 1 .25 2.29.18.18 0 0 1-.2.18h-5.6c-.07 0-.11.05-.11.13a4.66 4.66 0 0 0 .18 1.51 2.37 2.37 0 0 0 2.43 1.67 2.93 2.93 0 0 0 2.39-1.1.16.16 0 0 1 .25 0l.41.38a.16.16 0 0 1 0 .25 3.79 3.79 0 0 1-3.13 1.44 3.17 3.17 0 0 1-3.26-2.31zm5.55-2.81a.1.1 0 0 0 .11-.11 4 4 0 0 0-.16-1.24 2.44 2.44 0 0 0-4.59 0 4 4 0 0 0-.16 1.24.1.1 0 0 0 .11.11zm15.12 4.9a.17.17 0 0 1-.18-.18V288c0-1.71-.77-2.57-2.27-2.57a2.24 2.24 0 0 0-2.32 2.39v5.26a.17.17 0 0 1-.18.18h-.61a.17.17 0 0 1-.18-.18V288c0-1.71-.76-2.57-2.25-2.57a2.25 2.25 0 0 0-2.34 2.39v5.26a.17.17 0 0 1-.18.18h-.61a.17.17 0 0 1-.18-.18v-8.23a.17.17 0 0 1 .18-.18h.61a.17.17 0 0 1 .18.18v1a2.7 2.7 0 0 1 2.54-1.39 2.62 2.62 0 0 1 2.67 1.6 2.93 2.93 0 0 1 2.83-1.6c1.94 0 3.06 1.19 3.06 3.28v5.31a.17.17 0 0 1-.18.18zm3.66-2.09a7.11 7.11 0 0 1-.25-2.21 7.33 7.33 0 0 1 .25-2.23 3.4 3.4 0 0 1 6.39 0A6.83 6.83 0 0 1 899 289a.18.18 0 0 1-.2.18h-5.6c-.07 0-.11.05-.11.13a4.69 4.69 0 0 0 .18 1.51 2.37 2.37 0 0 0 2.43 1.67 2.93 2.93 0 0 0 2.39-1.1.16.16 0 0 1 .25 0l.41.38a.16.16 0 0 1 0 .25 3.79 3.79 0 0 1-3.13 1.44 3.18 3.18 0 0 1-3.29-2.28zm5.55-2.81a.1.1 0 0 0 .11-.11 4 4 0 0 0-.16-1.24 2.44 2.44 0 0 0-4.59 0 4 4 0 0 0-.16 1.24.1.1 0 0 0 .11.11zm9.56 4.9a.17.17 0 0 1-.18-.18V288c0-1.71-.76-2.57-2.25-2.57a2.25 2.25 0 0 0-2.34 2.39v5.26a.17.17 0 0 1-.18.18h-.61a.17.17 0 0 1-.18-.18v-8.23a.17.17 0 0 1 .18-.18h.61a.17.17 0 0 1 .18.18v1a2.7 2.7 0 0 1 2.54-1.39c1.91 0 3 1.19 3 3.28v5.31a.17.17 0 0 1-.18.18zm6.46.05c-1.62 0-2.23-.63-2.23-2.32v-5.35a.1.1 0 0 0-.11-.11h-.9a.17.17 0 0 1-.18-.18v-.5a.17.17 0 0 1 .18-.18h.9a.09.09 0 0 0 .11-.11v-2.47a.17.17 0 0 1 .18-.18h.61a.17.17 0 0 1 .18.18v2.47a.1.1 0 0 0 .11.11h1.62a.17.17 0 0 1 .18.18v.5a.17.17 0 0 1-.18.18h-1.62a.1.1 0 0 0-.11.11v5.29c0 1.15.4 1.44 1.39 1.44h.34a.17.17 0 0 1 .18.18v.58a.17.17 0 0 1-.18.18z" fill="#fff"/><path fill="#2e3d5a" d="M666.71 266.49h90.69v3.21h-90.69z"/><path fill="#28aadd" d="M757.4 266.49h90.69v3.21H757.4z"/><path d="M947.95 262.42H937a1.57 1.57 0 0 0-1.56 1.56v10.95a1.57 1.57 0 0 0 1.56 1.56h10.95a1.57 1.57 0 0 0 1.56-1.56V264a1.57 1.57 0 0 0-1.56-1.58zm-7.82 10.95h-1.56v-1.57h1.56zm0-3.13h-1.56v-1.56h1.56zm0-3.13h-1.56v-1.56h1.56zm6.26 6.26h-5.47v-1.57h5.47zm0-3.13h-5.47v-1.56h5.47zm0-3.13h-5.47v-1.56h5.47z" fill="#2e3d5a"/><path fill="none" d="M0 0h976.54v356.1H0z"/></g></g></svg>