<svg xmlns="http://www.w3.org/2000/svg" viewBox="0 0 976.54 356.1"><title>schedule-event2</title><g data-name="Layer 2"><g data-name="Layer 1"><path fill="#3498db" d="M457.25 154.18h200.84v69.69H457.25z"/><path d="M467.35 210.38a.09.09 0 0 1 0-.12l.5-.58a.07.07 0 0 1 .11 0 2.44 2.44 0 0 0 1.48.58c.65 0 1-.33 1-.78s-.24-.65-1-.75h-.29c-1-.14-1.64-.65-1.64-1.55a1.64 1.64 0 0 1 1.84-1.64 3 3 0 0 1 1.76.54.07.07 0 0 1 0 .11l-.38.59a.08.08 0 0 1-.11 0 2.3 2.3 0 0 0-1.3-.42c-.55 0-.86.3-.86.73s.26.63 1 .74h.29c1 .14 1.62.64 1.62 1.57s-.7 1.69-2 1.69a3.06 3.06 0 0 1-2.02-.71zm6.43-2.08a4.21 4.21 0 0 1 .14-1.47 1.83 1.83 0 0 1 1.89-1.34 1.91 1.91 0 0 1 1.84 1.17.07.07 0 0 1 0 .1l-.68.33a.07.07 0 0 1-.1 0 1.07 1.07 0 0 0-1-.7 1 1 0 0 0-1 .72 8.07 8.07 0 0 0 0 2.48 1 1 0 0 0 1 .72 1.07 1.07 0 0 0 1-.7.07.07 0 0 1 .1 0l.68.33a.07.07 0 0 1 0 .1 1.91 1.91 0 0 1-1.84 1.17 1.83 1.83 0 0 1-1.89-1.33 4.22 4.22 0 0 1-.14-1.58zm6.36-2.64a.08.08 0 0 1 .08-.08h.78a.08.08 0 0 1 .08.08v2.14h2.07v-2.14a.08.08 0 0 1 .08-.08h.78a.08.08 0 0 1 .08.08v5.28a.08.08 0 0 1-.08.08h-.78a.08.08 0 0 1-.08-.08v-2.19h-2.07v2.19a.08.08 0 0 1-.08.08h-.78a.08.08 0 0 1-.08-.08zm6.86 0a.08.08 0 0 1 .08-.08h3.41a.08.08 0 0 1 .08.08v.69a.07.07 0 0 1-.08.08H488v1.33h2.1a.08.08 0 0 1 .08.08v.69a.08.08 0 0 1-.08.08H488v1.38h2.49a.08.08 0 0 1 .08.08v.69a.08.08 0 0 1-.08.08h-3.41a.08.08 0 0 1-.08-.08zm6.15 0a.08.08 0 0 1 .08-.08h1.94a1.72 1.72 0 0 1 1.81 1.21 8.48 8.48 0 0 1 0 3 1.72 1.72 0 0 1-1.81 1.21h-1.94a.08.08 0 0 1-.08-.08zm1 4.51h.85a1 1 0 0 0 1.13-.69 7.33 7.33 0 0 0 0-2.37 1 1 0 0 0-1.13-.69h-.81v3.65l-.04.1zm8.63-1.08v-3.43a.08.08 0 0 1 .08-.08h.78a.08.08 0 0 1 .08.08v3.45a2 2 0 0 1-4 0v-3.45a.08.08 0 0 1 .08-.08h.78a.08.08 0 0 1 .08.08v3.43a1.06 1.06 0 1 0 2.12 0zm3.72-3.43a.08.08 0 0 1 .08-.08h.78a.08.08 0 0 1 .08.08v4.46H510a.08.08 0 0 1 .08.08v.69a.08.08 0 0 1-.08.08h-3.41a.08.08 0 0 1-.08-.08zm5.96 0a.08.08 0 0 1 .08-.08h3.41a.08.08 0 0 1 .08.08v.69a.07.07 0 0 1-.08.08h-2.49v1.33h2.1a.08.08 0 0 1 .08.08v.69a.08.08 0 0 1-.08.08h-2.1v1.38h2.49a.08.08 0 0 1 .08.08v.69a.08.08 0 0 1-.08.08h-3.41a.08.08 0 0 1-.08-.08zm6.16 0a.08.08 0 0 1 .08-.08h1.94a1.72 1.72 0 0 1 1.81 1.21 8.48 8.48 0 0 1 0 3 1.72 1.72 0 0 1-1.81 1.21h-1.94a.08.08 0 0 1-.08-.08zm1 4.51h.81a1 1 0 0 0 1.13-.69 7.33 7.33 0 0 0 0-2.37 1 1 0 0 0-1.13-.69h-.81v3.65l-.01.1zm8.8.21a.09.09 0 0 1 0-.12l.5-.58a.07.07 0 0 1 .11 0 2.44 2.44 0 0 0 1.48.58c.65 0 1-.33 1-.78s-.24-.65-1-.75h-.29c-1-.14-1.64-.65-1.64-1.55a1.64 1.64 0 0 1 1.84-1.64 3 3 0 0 1 1.76.54.07.07 0 0 1 0 .11l-.38.59a.08.08 0 0 1-.11 0 2.3 2.3 0 0 0-1.3-.42c-.55 0-.86.3-.86.73s.26.63 1 .74h.29c1 .14 1.62.64 1.62 1.57s-.7 1.69-2 1.69a3.06 3.06 0 0 1-2.02-.71zm6.58-4.72a.08.08 0 0 1 .08-.08h3.41a.08.08 0 0 1 .08.08v.69a.07.07 0 0 1-.08.08H536v1.33h2.1a.08.08 0 0 1 .08.08v.69a.08.08 0 0 1-.08.08H536v1.38h2.49a.08.08 0 0 1 .08.08v.69a.08.08 0 0 1-.08.08h-3.41a.08.08 0 0 1-.08-.08zm9.25 5.34a.11.11 0 0 1-.12-.08l-1-2.12h-.94v2.07a.08.08 0 0 1-.08.08h-.78a.08.08 0 0 1-.08-.08v-5.28a.08.08 0 0 1 .08-.08h2.1a1.62 1.62 0 0 1 1.74 1.62 1.55 1.55 0 0 1-1 1.5l1.14 2.21a.06.06 0 0 1-.06.1zm-.1-3.81a.76.76 0 0 0-.83-.78h-1.16v1.45h1.16a.76.76 0 0 0 .82-.66zm4.79 3.81a.1.1 0 0 1-.1-.08l-1.72-5.28s0-.08.06-.08h.82a.1.1 0 0 1 .1.08l1.22 3.85 1.17-3.85a.1.1 0 0 1 .1-.08h.78s.08 0 .06.08l-1.73 5.28a.1.1 0 0 1-.1.08zm4.79-5.34a.08.08 0 0 1 .08-.08h.78a.08.08 0 0 1 .08.08v5.28a.08.08 0 0 1-.08.08h-.78a.08.08 0 0 1-.08-.08zm3.58 2.64a4.21 4.21 0 0 1 .14-1.47 1.83 1.83 0 0 1 1.89-1.34 1.91 1.91 0 0 1 1.84 1.17.07.07 0 0 1 0 .1l-.68.33a.07.07 0 0 1-.1 0 1.07 1.07 0 0 0-1-.7 1 1 0 0 0-1 .72 8.07 8.07 0 0 0 0 2.48 1 1 0 0 0 1 .72 1.07 1.07 0 0 0 1-.7.07.07 0 0 1 .1 0l.68.33a.07.07 0 0 1 0 .1 1.91 1.91 0 0 1-1.84 1.17 1.83 1.83 0 0 1-1.89-1.33 4.22 4.22 0 0 1-.14-1.58zm6.36-2.64a.08.08 0 0 1 .08-.08h3.41a.08.08 0 0 1 .08.08v.69a.07.07 0 0 1-.08.08h-2.49v1.33h2.1a.08.08 0 0 1 .08.08v.69a.08.08 0 0 1-.08.08h-2.1v1.38h2.49a.08.08 0 0 1 .08.08v.69a.08.08 0 0 1-.08.08h-3.41a.08.08 0 0 1-.08-.08zm-94.93-24.85a.17.17 0 0 1 .18-.18h.67a.17.17 0 0 1 .18.18v5.26a.1.1 0 0 0 .11.11h6a.1.1 0 0 0 .11-.11v-5.26a.17.17 0 0 1 .18-.18h.67a.17.17 0 0 1 .18.18v11.88a.17.17 0 0 1-.18.18h-.67a.17.17 0 0 1-.18-.18v-5.44a.1.1 0 0 0-.11-.11h-6a.1.1 0 0 0-.11.11v5.44a.17.17 0 0 1-.18.18h-.67a.17.17 0 0 1-.18-.18zm11.34 9.97a7.11 7.11 0 0 1-.25-2.21 7.33 7.33 0 0 1 .25-2.23 3.4 3.4 0 0 1 6.39 0 6.81 6.81 0 0 1 .25 2.29.18.18 0 0 1-.2.18h-5.6c-.07 0-.11.05-.11.13a4.66 4.66 0 0 0 .18 1.51 2.37 2.37 0 0 0 2.43 1.67 2.93 2.93 0 0 0 2.4-1.1.16.16 0 0 1 .25 0l.41.38a.16.16 0 0 1 0 .25 3.79 3.79 0 0 1-3.13 1.44 3.17 3.17 0 0 1-3.27-2.31zm5.55-2.81a.1.1 0 0 0 .11-.11 4 4 0 0 0-.16-1.24 2.44 2.44 0 0 0-4.59 0 4 4 0 0 0-.16 1.24.1.1 0 0 0 .11.11zm9.55 4.9a.17.17 0 0 1-.18-.18v-5.08c0-1.71-.76-2.57-2.25-2.57a2.25 2.25 0 0 0-2.34 2.39v5.26a.17.17 0 0 1-.18.18h-.61a.17.17 0 0 1-.18-.18v-8.23a.17.17 0 0 1 .18-.18h.61a.17.17 0 0 1 .18.18v1a2.7 2.7 0 0 1 2.59-1.36c1.91 0 3 1.19 3 3.28v5.31a.17.17 0 0 1-.18.18zm4.17 0a.17.17 0 0 1-.18-.18v-8.23a.17.17 0 0 1 .18-.18h.65a.17.17 0 0 1 .18.18v1.1a2.3 2.3 0 0 1 2.3-1.46 2.68 2.68 0 0 1 1.73.59.14.14 0 0 1 0 .23l-.36.5a.2.2 0 0 1-.27 0 2.47 2.47 0 0 0-1.37-.43c-1.51 0-2.09 1.31-2.09 2.9v4.75a.17.17 0 0 1-.18.18zm6.77 3.24a.17.17 0 0 1-.18-.18v-.58a.17.17 0 0 1 .18-.18h.32c.74 0 1.13-.31 1.62-1.6l.34-.88-3.17-8.23c0-.11 0-.18.13-.18h.64c.13 0 .18.05.23.18l2.61 6.9 2.54-6.9a.21.21 0 0 1 .22-.18h.68a.12.12 0 0 1 .13.18L509 193.7c-.74 2-1.35 2.41-2.47 2.41zm20.31-3.24c-.11 0-.16 0-.22-.16l-2.57-5.31h-3.34a.1.1 0 0 0-.11.11v5.19a.17.17 0 0 1-.18.18h-.67a.17.17 0 0 1-.18-.18v-11.89a.17.17 0 0 1 .18-.18h4.11c2.3 0 3.73 1.3 3.73 3.38a3.12 3.12 0 0 1-2.5 3.24l2.66 5.42c.07.11 0 .2-.09.2zm-.27-8.86c0-1.53-1-2.41-2.72-2.41h-3.14a.1.1 0 0 0-.11.11v4.61a.09.09 0 0 0 .11.11h3.13c1.75-.01 2.73-.87 2.73-2.43zm3.61 6.81a8.87 8.87 0 0 1 0-4.48 3.43 3.43 0 0 1 6.43 0 8.87 8.87 0 0 1 0 4.48 3.43 3.43 0 0 1-6.43 0zm5.49-.31a5.84 5.84 0 0 0 .23-1.95 5.78 5.78 0 0 0-.23-1.93 2.42 2.42 0 0 0-4.56 0 5.78 5.78 0 0 0-.23 1.93 5.84 5.84 0 0 0 .23 1.95 2.42 2.42 0 0 0 4.56 0zm4.95 1.13v1a.17.17 0 0 1-.18.18h-.61a.17.17 0 0 1-.18-.18v-11.83a.17.17 0 0 1 .18-.18h.58a.17.17 0 0 1 .18.18v4.7a2.65 2.65 0 0 1 2.61-1.4 2.77 2.77 0 0 1 2.92 2.05 9.73 9.73 0 0 1 0 4.84 2.77 2.77 0 0 1-2.92 2.05 2.65 2.65 0 0 1-2.58-1.41zm4.61-1a8.89 8.89 0 0 0 0-4.05 2.35 2.35 0 0 0-4.39 0 6.39 6.39 0 0 0-.23 2 6.26 6.26 0 0 0 .23 2 2.35 2.35 0 0 0 4.39 0zm4.05-8.64a.17.17 0 0 1-.18-.18v-1a.17.17 0 0 1 .18-.18h.79a.17.17 0 0 1 .18.18v1a.17.17 0 0 1-.18.18zm.09 10.88a.17.17 0 0 1-.18-.18v-8.23a.17.17 0 0 1 .18-.18h.61a.17.17 0 0 1 .18.18v8.23a.17.17 0 0 1-.18.18zm9.85-.01a.17.17 0 0 1-.18-.18v-5.08c0-1.71-.76-2.57-2.25-2.57a2.25 2.25 0 0 0-2.34 2.39v5.26a.17.17 0 0 1-.18.18h-.61a.17.17 0 0 1-.18-.18v-8.23a.17.17 0 0 1 .18-.18h.61a.17.17 0 0 1 .18.18v1a2.7 2.7 0 0 1 2.54-1.39c1.91 0 3 1.19 3 3.28v5.31a.17.17 0 0 1-.18.18zm3.33-1.03a.17.17 0 0 1 0-.25l.4-.45a.19.19 0 0 1 .25 0 4.43 4.43 0 0 0 2.79 1c1.49 0 2.23-.67 2.23-1.66s-.38-1.33-2-1.51l-.86-.09c-1.6-.16-2.5-.94-2.5-2.29 0-1.57 1.13-2.5 3-2.5a5.29 5.29 0 0 1 2.86.83.18.18 0 0 1 0 .25l-.32.43a.18.18 0 0 1-.25.05 5.07 5.07 0 0 0-2.38-.67c-1.31 0-2 .58-2 1.53s.52 1.3 2 1.44l.86.09c1.67.16 2.48 1 2.48 2.3 0 1.64-1.15 2.68-3.29 2.68a5.19 5.19 0 0 1-3.27-1.18zm9.03-1.02a8.87 8.87 0 0 1 0-4.48 3.43 3.43 0 0 1 6.43 0 8.87 8.87 0 0 1 0 4.48 3.43 3.43 0 0 1-6.43 0zm5.49-.31a5.84 5.84 0 0 0 .23-1.95 5.78 5.78 0 0 0-.23-1.93 2.42 2.42 0 0 0-4.56 0 5.78 5.78 0 0 0-.23 1.93 5.84 5.84 0 0 0 .23 1.95 2.42 2.42 0 0 0 4.56 0zm9.71 2.36a.17.17 0 0 1-.18-.18v-5.08c0-1.71-.76-2.57-2.25-2.57a2.25 2.25 0 0 0-2.34 2.39v5.26a.17.17 0 0 1-.18.18h-.61a.17.17 0 0 1-.18-.18v-8.23a.17.17 0 0 1 .18-.18h.61a.17.17 0 0 1 .18.18v1a2.7 2.7 0 0 1 2.54-1.39c1.91 0 3 1.19 3 3.28v5.31a.17.17 0 0 1-.18.18z" fill="#fff"/><path fill="#2e3d5a" d="M467.04 166.09h90.69v3.21h-90.69z"/><path fill="#28aadd" d="M557.73 166.09h45.34v3.21h-45.34z"/><path d="M648 162h-10.9a1.57 1.57 0 0 0-1.56 1.56v10.95a1.57 1.57 0 0 0 1.56 1.56H648a1.57 1.57 0 0 0 1.56-1.56v-10.93A1.57 1.57 0 0 0 648 162zm-7.77 11h-1.56v-1.6h1.56zm0-3.13h-1.56v-1.56h1.56zm0-3.13h-1.56v-1.56h1.56zm6.26 6.25H641v-1.59h5.47zm0-3.13H641v-1.56h5.47zm0-3.13H641v-1.56h5.47z" fill="#2e3d5a"/><path fill="none" d="M0 0h976.54v356.1H0z"/></g></g></svg>