<svg xmlns="http://www.w3.org/2000/svg" viewBox="0 0 976.54 356.1"><title>schedule</title><g data-name="Layer 2"><g data-name="Layer 1" style="isolation:isolate"><g opacity=".5"><path d="M255.48 27.76V356.1M355.84 27.76V356.1M456.2 27.76V356.1M556.56 27.76V356.1M656.92 27.76V356.1M757.28 27.76V356.1M857.64 27.76V356.1M958 27.76V356.1" opacity=".25" fill="none" stroke="#b0bec5" stroke-miterlimit="10" stroke-width="2"/></g><path style="mix-blend-mode:multiply" fill="#78909c" opacity=".2" d="M0 242.35h959.59v95.47H0zM0 47.18h959.59v95.46H0z"/><path d="M252.93 5.67h-3a.06.06 0 0 0-.07.07v1.08a.11.11 0 0 1-.12.12h-.41a.11.11 0 0 1-.12-.12V5.13a.11.11 0 0 1 .12-.12h4.13a.11.11 0 0 1 .12.12v.44a.36.36 0 0 1 0 .12l-2.93 7.36c0 .08-.06.11-.16.11h-.44c-.07 0-.1 0-.06-.13zm10.76-.54a.15.15 0 0 1 .14-.12h.43c.08 0 .12 0 .14.12l2.84 7.87a.08.08 0 0 1-.08.12h-.47a.14.14 0 0 1-.16-.12l-.72-2h-3.55l-.72 2c0 .1-.08.12-.16.12h-.47a.08.08 0 0 1-.08-.12zm1.9 5.25l-1.52-4.27-1.54 4.27zm4.65-5.25a.11.11 0 0 1 .12-.12h.46a.18.18 0 0 1 .18.12l2.65 5.87 2.59-5.84a.18.18 0 0 1 .17-.12h.47a.11.11 0 0 1 .12.12V13a.11.11 0 0 1-.12.12h-.44a.11.11 0 0 1-.12-.12V6.66L274 11.83a.2.2 0 0 1-.22.13h-.24a.19.19 0 0 1-.2-.13L271 6.66V13a.11.11 0 0 1-.12.12h-.44a.11.11 0 0 1-.12-.12zm75.48 3.75A2 2 0 0 1 344.63 7 2.18 2.18 0 0 1 349 7a2 2 0 0 1-1.09 1.82 2.16 2.16 0 0 1 1.3 2.18 2.4 2.4 0 0 1-4.8 0 2.16 2.16 0 0 1 1.31-2.12zm1.09 3.78a1.66 1.66 0 0 0 1.75-1.73 1.75 1.75 0 1 0-3.5 0 1.66 1.66 0 0 0 1.75 1.73zM348.35 7a1.54 1.54 0 0 0-3.07 0 1.54 1.54 0 0 0 3.07 0zm10.83-1.87a.15.15 0 0 1 .14-.12h.43c.08 0 .12 0 .14.12l2.84 7.87a.08.08 0 0 1-.08.12h-.47A.14.14 0 0 1 362 13l-.72-2h-3.55l-.73 2c0 .1-.08.12-.16.12h-.47a.08.08 0 0 1-.08-.12zm1.9 5.25l-1.52-4.27-1.56 4.27zm4.66-5.25a.11.11 0 0 1 .12-.12h.46a.18.18 0 0 1 .18.12l2.64 5.87 2.59-5.84a.18.18 0 0 1 .17-.12h.47a.11.11 0 0 1 .12.12V13a.11.11 0 0 1-.12.12H372a.11.11 0 0 1-.12-.12V6.66l-2.35 5.17a.2.2 0 0 1-.22.13H369a.19.19 0 0 1-.2-.13l-2.35-5.17V13a.11.11 0 0 1-.12.12h-.44a.11.11 0 0 1-.12-.12zm77.55 4.39a1.73 1.73 0 0 1-1.06.29 2.25 2.25 0 0 1-2.29-2.42 2.38 2.38 0 1 1 4.76 0 4 4 0 0 1-.53 1.83l-2 3.9a.15.15 0 0 1-.16.08h-.44c-.08 0-.1-.06-.07-.11zm.71-2.18a1.74 1.74 0 1 0-3.47 0 1.74 1.74 0 1 0 3.47 0zm10.68-2.21a.15.15 0 0 1 .14-.12h.43c.08 0 .12 0 .14.12l2.84 7.87a.08.08 0 0 1-.08.12h-.47a.14.14 0 0 1-.16-.12l-.72-2h-3.55l-.72 2c0 .1-.08.12-.16.12h-.47a.08.08 0 0 1-.08-.12zm1.9 5.25L455 6.11l-1.54 4.27zm4.65-5.25a.11.11 0 0 1 .12-.12h.46a.18.18 0 0 1 .18.12l2.65 5.87 2.59-5.84a.18.18 0 0 1 .17-.12h.47a.11.11 0 0 1 .12.12V13a.11.11 0 0 1-.12.12h-.44a.11.11 0 0 1-.12-.12V6.66L465 11.83a.2.2 0 0 1-.22.13h-.24a.19.19 0 0 1-.2-.13L462 6.66V13a.11.11 0 0 1-.12.12h-.44a.11.11 0 0 1-.12-.12zm77.09.75l-1.48 1c-.06 0-.13 0-.13-.07v-.5a.2.2 0 0 1 .08-.18l1.51-1.09a.26.26 0 0 1 .18-.07h.38a.11.11 0 0 1 .12.12V13a.11.11 0 0 1-.12.12h-.41a.11.11 0 0 1-.12-.12zM544 9.09a9.77 9.77 0 0 1 .18-2.73 2.24 2.24 0 0 1 4.2 0 9.75 9.75 0 0 1 .18 2.73 9.74 9.74 0 0 1-.18 2.73 2.24 2.24 0 0 1-4.2 0 9.76 9.76 0 0 1-.18-2.73zm2.28 3.59a1.4 1.4 0 0 0 1.46-1 9.39 9.39 0 0 0 .17-2.59 9.38 9.38 0 0 0-.17-2.59 1.57 1.57 0 0 0-2.93 0 9.38 9.38 0 0 0-.17 2.59 9.39 9.39 0 0 0 .17 2.59 1.4 1.4 0 0 0 1.5.99zm12.4-7.55a.15.15 0 0 1 .14-.12h.43c.08 0 .12 0 .14.12l2.84 7.87a.08.08 0 0 1-.08.12h-.47a.14.14 0 0 1-.16-.12l-.72-2h-3.55l-.72 2c0 .1-.08.12-.16.12h-.47a.08.08 0 0 1-.08-.12zm1.9 5.25l-1.52-4.27-1.54 4.27zm4.66-5.25a.11.11 0 0 1 .12-.12h.46a.18.18 0 0 1 .18.12l2.64 5.87 2.59-5.84a.18.18 0 0 1 .17-.12h.47a.11.11 0 0 1 .12.12V13a.11.11 0 0 1-.12.12h-.44a.11.11 0 0 1-.12-.12V6.66L569 11.83a.2.2 0 0 1-.22.13h-.24a.19.19 0 0 1-.2-.13L566 6.66V13a.11.11 0 0 1-.12.12h-.44a.11.11 0 0 1-.12-.12zm77.76.75l-1.48 1c-.06 0-.13 0-.13-.07v-.5a.2.2 0 0 1 .08-.18l1.51-1.09a.26.26 0 0 1 .12-.04h.38a.11.11 0 0 1 .12.12V13a.11.11 0 0 1-.12.12h-.41A.11.11 0 0 1 643 13zm7.84 0l-1.48 1c-.06 0-.13 0-.13-.07v-.5a.2.2 0 0 1 .08-.18l1.51-1.09A.26.26 0 0 1 651 5h.38a.11.11 0 0 1 .12.12V13a.11.11 0 0 1-.12.12H651a.11.11 0 0 1-.12-.12zm12.48-.75a.15.15 0 0 1 .14-.12h.43c.08 0 .12 0 .14.12l2.84 7.87a.08.08 0 0 1-.08.12h-.47a.14.14 0 0 1-.16-.12l-.72-2h-3.55l-.72 2c0 .1-.08.12-.16.12h-.47a.08.08 0 0 1-.08-.12zm1.9 5.25l-1.52-4.27-1.54 4.27zm4.65-5.25A.11.11 0 0 1 670 5h.46a.18.18 0 0 1 .18.12l2.64 5.88 2.59-5.84a.18.18 0 0 1 .17-.12h.47a.11.11 0 0 1 .12.12V13a.11.11 0 0 1-.12.12h-.44A.11.11 0 0 1 676 13V6.66l-2.35 5.17a.2.2 0 0 1-.22.13h-.24a.19.19 0 0 1-.2-.13l-2.35-5.17V13a.11.11 0 0 1-.12.12H670a.11.11 0 0 1-.12-.12zm73.06.75l-1.48 1c-.06 0-.13 0-.13-.07v-.5a.2.2 0 0 1 .08-.18l1.51-1.09a.26.26 0 0 1 .18-.07h.38a.11.11 0 0 1 .12.12V13a.11.11 0 0 1-.12.12H743a.11.11 0 0 1-.12-.12zm5.8 6.85a.22.22 0 0 1 0-.16l3-3.95a2.66 2.66 0 0 0 .67-1.6 1.48 1.48 0 0 0-1.56-1.52 1.5 1.5 0 0 0-1.56 1.4.11.11 0 0 1-.14.1l-.37-.1a.1.1 0 0 1-.1-.13 2.11 2.11 0 0 1 2.18-1.89A2.07 2.07 0 0 1 753.1 7a3.22 3.22 0 0 1-.83 2l-2.69 3.5H753a.11.11 0 0 1 .12.12V13a.11.11 0 0 1-.12.12h-4.14a.11.11 0 0 1-.12-.12zm12.58.43a.11.11 0 0 1-.12-.12V5.13a.11.11 0 0 1 .12-.12H764a2.24 2.24 0 0 1 2.51 2.31A2.23 2.23 0 0 1 764 9.63h-2.09a.06.06 0 0 0-.07.07V13a.11.11 0 0 1-.12.12zm4.55-5.84c0-1-.65-1.67-1.85-1.67h-2.06a.06.06 0 0 0-.07.07v3.19a.06.06 0 0 0 .07.07H764c1.21.02 1.86-.61 1.86-1.66zm3.85-2.19a.11.11 0 0 1 .12-.12h.46a.18.18 0 0 1 .18.12l2.65 5.87 2.59-5.84a.18.18 0 0 1 .17-.12h.47a.11.11 0 0 1 .12.12V13a.11.11 0 0 1-.12.12h-.44a.11.11 0 0 1-.12-.12V6.66l-2.35 5.17a.2.2 0 0 1-.22.13H773a.2.2 0 0 1-.2-.13l-2.35-5.17V13a.11.11 0 0 1-.12.12h-.44a.11.11 0 0 1-.12-.12zm77.78.75l-1.48 1c-.06 0-.13 0-.13-.07v-.5a.2.2 0 0 1 .08-.18l1.51-1.09a.26.26 0 0 1 .18-.07h.35a.11.11 0 0 1 .12.12V13a.11.11 0 0 1-.12.12h-.41a.11.11 0 0 1-.12-.12zM858 13.16a.11.11 0 0 1-.12-.12V5.13A.11.11 0 0 1 858 5h2.72a2.24 2.24 0 0 1 2.51 2.31 2.23 2.23 0 0 1-2.51 2.3h-2.09a.06.06 0 0 0-.07.07V13a.11.11 0 0 1-.12.12zm4.55-5.84c0-1-.65-1.67-1.85-1.67h-2.06a.06.06 0 0 0-.07.07v3.19a.06.06 0 0 0 .07.07h2.06c1.19.02 1.83-.61 1.83-1.66zm3.84-2.19a.11.11 0 0 1 .12-.12h.49a.18.18 0 0 1 .18.12l2.61 5.87 2.59-5.84a.17.17 0 0 1 .22-.16h.47a.11.11 0 0 1 .12.12V13a.11.11 0 0 1-.12.12h-.44a.11.11 0 0 1-.12-.12V6.66l-2.35 5.17a.2.2 0 0 1-.22.13h-.24a.19.19 0 0 1-.2-.13l-2.35-5.17V13a.11.11 0 0 1-.12.12h-.44a.11.11 0 0 1-.12-.12zm80.06 7.6a.22.22 0 0 1 0-.16l3-3.95a2.66 2.66 0 0 0 .67-1.6 1.48 1.48 0 0 0-1.56-1.52A1.5 1.5 0 0 0 947 6.9a.11.11 0 0 1-.14.1l-.37-.1a.11.11 0 0 1-.1-.13 2.11 2.11 0 0 1 2.18-1.89A2.07 2.07 0 0 1 950.82 7a3.22 3.22 0 0 1-.82 2l-2.69 3.5h3.39a.11.11 0 0 1 .12.12V13a.11.11 0 0 1-.12.12h-4.14a.11.11 0 0 1-.12-.12zm12.55.43a.11.11 0 0 1-.12-.12V5.13A.11.11 0 0 1 959 5h2.72a2.24 2.24 0 0 1 2.51 2.31 2.23 2.23 0 0 1-2.51 2.3h-2.09a.06.06 0 0 0-.07.07V13a.11.11 0 0 1-.12.12zm4.55-5.84c0-1-.65-1.67-1.85-1.67h-2.06a.06.06 0 0 0-.07.07v3.19a.06.06 0 0 0 .07.07h2.06c1.23.02 1.88-.61 1.88-1.66zm3.88-2.19a.11.11 0 0 1 .12-.12h.45a.18.18 0 0 1 .18.12l2.66 5.87 2.59-5.84a.17.17 0 0 1 .17-.12h.47a.11.11 0 0 1 .12.12V13a.11.11 0 0 1-.12.12h-.44a.11.11 0 0 1-.12-.12V6.66l-2.35 5.17a.2.2 0 0 1-.22.13h-.24a.19.19 0 0 1-.2-.13l-2.35-5.17V13a.11.11 0 0 1-.12.12h-.44a.11.11 0 0 1-.12-.12zM18.71 71a.17.17 0 0 1 .18-.18h.68a.27.27 0 0 1 .27.18l4 8.77h.07L27.79 71a.26.26 0 0 1 .25-.18h.7a.17.17 0 0 1 .18.18v11.93a.17.17 0 0 1-.18.18h-.67a.17.17 0 0 1-.18-.18v-9.58h-.05l-3.53 7.76a.3.3 0 0 1-.32.2h-.36a.29.29 0 0 1-.31-.2l-3.53-7.76h-.05v9.58a.17.17 0 0 1-.18.18h-.67a.17.17 0 0 1-.18-.18zm13.64 1.24a.17.17 0 0 1-.18-.18V71a.17.17 0 0 1 .18-.18h.79a.17.17 0 0 1 .18.18v1a.17.17 0 0 1-.18.18zm.09 10.88a.17.17 0 0 1-.18-.18V74.7a.17.17 0 0 1 .18-.18h.61a.17.17 0 0 1 .18.18v8.23a.17.17 0 0 1-.18.18zm4.79-7.23a.18.18 0 0 1-.27 0l-.31-.45a.18.18 0 0 1 .05-.25 4.14 4.14 0 0 1 2.74-.83c2.23 0 3.13.74 3.13 2.84v5.74a.17.17 0 0 1-.18.18h-.58a.17.17 0 0 1-.18-.18V82A2.77 2.77 0 0 1 39 83.29c-1.73 0-2.88-.86-2.88-2.54s1.17-2.54 3.26-2.54h2.18a.1.1 0 0 0 .11-.11v-.88c0-1.4-.49-2-2.23-2a3.12 3.12 0 0 0-2.21.67zm4.39 4.57v-1.31a.1.1 0 0 0-.11-.11h-2.05C37.75 79 37 79.6 37 80.73s.76 1.66 2.12 1.66 2.51-.76 2.51-1.93zm15.47 2.65a.17.17 0 0 1-.18-.18v-5.08c0-1.71-.77-2.57-2.27-2.57a2.24 2.24 0 0 0-2.32 2.39v5.26a.17.17 0 0 1-.18.18h-.61a.17.17 0 0 1-.18-.18v-5.08c0-1.71-.76-2.57-2.25-2.57a2.25 2.25 0 0 0-2.34 2.39v5.26a.17.17 0 0 1-.18.18H46a.17.17 0 0 1-.18-.18V74.7a.17.17 0 0 1 .18-.18h.61a.17.17 0 0 1 .18.18v1a2.7 2.7 0 0 1 2.54-1.39A2.62 2.62 0 0 1 52 75.94a2.93 2.93 0 0 1 2.83-1.6c1.94 0 3.06 1.19 3.06 3.28v5.31a.17.17 0 0 1-.18.18zm4.08-10.87a.17.17 0 0 1-.18-.18V71a.17.17 0 0 1 .18-.18H62a.17.17 0 0 1 .18.18v1a.17.17 0 0 1-.18.18zm.09 10.88a.17.17 0 0 1-.18-.18V74.7a.17.17 0 0 1 .18-.18h.61a.17.17 0 0 1 .18.18v8.23a.17.17 0 0 1-.18.18zM69.31 77a11.52 11.52 0 0 1 .32-3.56 3.74 3.74 0 0 1 3.87-2.74 3.84 3.84 0 0 1 3.69 2.3.17.17 0 0 1-.05.23l-.59.29a.16.16 0 0 1-.23-.07 3 3 0 0 0-2.81-1.75 2.78 2.78 0 0 0-2.88 2 11.1 11.1 0 0 0-.28 3.3 11.1 11.1 0 0 0 .27 3.29 2.78 2.78 0 0 0 2.88 2 3 3 0 0 0 2.81-1.75.16.16 0 0 1 .23-.07l.59.29a.17.17 0 0 1 .05.23 3.84 3.84 0 0 1-3.69 2.27 3.74 3.74 0 0 1-3.87-2.74 11.53 11.53 0 0 1-.31-3.52zm10.17 4a7.11 7.11 0 0 1-.25-2.21 7.33 7.33 0 0 1 .25-2.23 3.4 3.4 0 0 1 6.39 0 6.81 6.81 0 0 1 .25 2.29.18.18 0 0 1-.2.18h-5.6c-.07 0-.11.05-.11.13a4.66 4.66 0 0 0 .18 1.51 2.37 2.37 0 0 0 2.43 1.67 2.93 2.93 0 0 0 2.4-1.1.16.16 0 0 1 .25 0l.41.38a.16.16 0 0 1 0 .25 3.79 3.79 0 0 1-3.13 1.44A3.17 3.17 0 0 1 79.48 81zM85 78.21a.1.1 0 0 0 .11-.11 4 4 0 0 0-.11-1.24 2.44 2.44 0 0 0-4.59 0 4 4 0 0 0-.16 1.24.1.1 0 0 0 .11.11zm9.58 4.9a.17.17 0 0 1-.18-.18v-5.08c0-1.71-.76-2.57-2.25-2.57a2.25 2.25 0 0 0-2.34 2.39v5.26a.17.17 0 0 1-.18.18H89a.17.17 0 0 1-.18-.18V74.7a.17.17 0 0 1 .18-.18h.61a.17.17 0 0 1 .18.18v1a2.7 2.7 0 0 1 2.54-1.39c1.91 0 3 1.19 3 3.28v5.31a.17.17 0 0 1-.18.18zm6.42.05c-1.62 0-2.23-.63-2.23-2.32v-5.35a.1.1 0 0 0-.11-.11h-.9a.17.17 0 0 1-.18-.18v-.5a.17.17 0 0 1 .18-.18h.9a.1.1 0 0 0 .11-.11v-2.46a.17.17 0 0 1 .18-.18h.61a.17.17 0 0 1 .18.18v2.47a.1.1 0 0 0 .11.11h1.62a.17.17 0 0 1 .18.18v.5a.17.17 0 0 1-.18.18h-1.58a.1.1 0 0 0-.11.11v5.29c0 1.15.4 1.44 1.39 1.44h.34a.17.17 0 0 1 .18.18V83a.17.17 0 0 1-.18.18zm2.85-2.16a7.11 7.11 0 0 1-.25-2.21 7.32 7.32 0 0 1 .25-2.23 3.4 3.4 0 0 1 6.39 0 6.81 6.81 0 0 1 .25 2.29.18.18 0 0 1-.2.18h-5.6c-.07 0-.11.05-.11.13a4.66 4.66 0 0 0 .18 1.51 2.37 2.37 0 0 0 2.43 1.67 2.93 2.93 0 0 0 2.39-1.1.16.16 0 0 1 .25 0l.41.38a.16.16 0 0 1 0 .25 3.79 3.79 0 0 1-3.13 1.44 3.18 3.18 0 0 1-3.26-2.31zm5.55-2.81a.1.1 0 0 0 .11-.11 4 4 0 0 0-.16-1.24 2.44 2.44 0 0 0-4.59 0 4 4 0 0 0-.16 1.24.1.1 0 0 0 .11.11zm3.99 4.92a.17.17 0 0 1-.18-.18V74.7a.17.17 0 0 1 .18-.18h.61a.17.17 0 0 1 .18.18v1.1a2.3 2.3 0 0 1 2.3-1.46 2.68 2.68 0 0 1 1.73.59.14.14 0 0 1 0 .23l-.36.5a.19.19 0 0 1-.27 0 2.47 2.47 0 0 0-1.37-.43c-1.51 0-2.09 1.31-2.09 2.9v4.75a.17.17 0 0 1-.18.18z" fill="#fff"/><path d="M18.68 115.16a8.91 8.91 0 0 1 .17-2.61 2.21 2.21 0 0 1 2.31-1.55 2.23 2.23 0 0 1 2.33 1.59 8.91 8.91 0 0 1 .17 2.61 8.91 8.91 0 0 1-.17 2.62 2.23 2.23 0 0 1-2.33 1.59 2.21 2.21 0 0 1-2.31-1.59 8.91 8.91 0 0 1-.17-2.66zm2.48 3a1 1 0 0 0 1-.65 9 9 0 0 0 .11-2.36 9 9 0 0 0-.11-2.36 1 1 0 0 0-1-.65 1 1 0 0 0-1 .65 9 9 0 0 0-.11 2.36 9 9 0 0 0 .11 2.36 1 1 0 0 0 1 .66zm6.54-3.36v-1.22a.11.11 0 0 1 .12-.12H29a.11.11 0 0 1 .12.12v1.22a.11.11 0 0 1-.12.12h-1.2a.11.11 0 0 1-.1-.12zm0 3.09a.11.11 0 0 1 .12-.12H29a.11.11 0 0 1 .12.12v1.22a.11.11 0 0 1-.12.12h-1.2a.11.11 0 0 1-.12-.12zm5.49-2.73a8.91 8.91 0 0 1 .17-2.61 2.21 2.21 0 0 1 2.31-1.55 2.23 2.23 0 0 1 2.33 1.55 8.91 8.91 0 0 1 .17 2.61 8.91 8.91 0 0 1-.17 2.62 2.23 2.23 0 0 1-2.33 1.59 2.21 2.21 0 0 1-2.31-1.59 8.91 8.91 0 0 1-.17-2.62zm2.48 3a1 1 0 0 0 1-.65 9 9 0 0 0 .11-2.36 9 9 0 0 0-.11-2.36 1 1 0 0 0-1-.65 1 1 0 0 0-1 .65 9 9 0 0 0-.11 2.36 9 9 0 0 0 .11 2.36 1 1 0 0 0 1 .66zm6.51-3a8.89 8.89 0 0 1 .17-2.61 2.21 2.21 0 0 1 2.31-1.55 2.23 2.23 0 0 1 2.34 1.55 8.91 8.91 0 0 1 .17 2.61 8.91 8.91 0 0 1-.17 2.62 2.23 2.23 0 0 1-2.33 1.59 2.21 2.21 0 0 1-2.31-1.59 8.89 8.89 0 0 1-.18-2.62zm2.48 3a1 1 0 0 0 1-.65 9 9 0 0 0 .11-2.36 9 9 0 0 0-.11-2.36 1 1 0 0 0-1-.65 1 1 0 0 0-1 .65 9 9 0 0 0-.11 2.36 9 9 0 0 0 .11 2.36 1 1 0 0 0 1 .66z" fill="#aeaeae"/><path d="M98.37 113.12a14.63 14.63 0 0 1 .27-4.1 3.36 3.36 0 0 1 6.3 0 14.63 14.63 0 0 1 .27 4.1 14.64 14.64 0 0 1-.27 4.11 3.36 3.36 0 0 1-6.3 0 14.64 14.64 0 0 1-.27-4.11zm3.42 5.38A2.1 2.1 0 0 0 104 117a14.08 14.08 0 0 0 .25-3.89 14.06 14.06 0 0 0-.25-3.89 2.36 2.36 0 0 0-4.39 0 14.1 14.1 0 0 0-.25 3.89 14.11 14.11 0 0 0 .24 3.89 2.1 2.1 0 0 0 2.19 1.5zm6.7-6.5a12.48 12.48 0 0 1 0-3.78 2.1 2.1 0 0 1 3.91 0 12.48 12.48 0 0 1 0 3.78 2.1 2.1 0 0 1-3.91 0zm3.11-.18a11.67 11.67 0 0 0 0-3.42 1.26 1.26 0 0 0-2.32 0 11.63 11.63 0 0 0 0 3.42 1.26 1.26 0 0 0 2.32 0zm5.2-4.79c.07-.13.13-.18.25-.18h.49c.11 0 .16.07.11.18l-7.09 12.24c-.07.13-.13.18-.25.18h-.49c-.11 0-.16-.07-.11-.18zm-1.94 9.17a5.94 5.94 0 0 1 .14-1.89 2.09 2.09 0 0 1 3.89 0 6 6 0 0 1 .14 1.89 5.77 5.77 0 0 1-.14 1.89 2.08 2.08 0 0 1-3.89 0 5.76 5.76 0 0 1-.14-1.93zm2.09 2.49a1.13 1.13 0 0 0 1.17-.77 5.19 5.19 0 0 0 .13-1.71 5 5 0 0 0-.13-1.69 1.27 1.27 0 0 0-2.34 0 5 5 0 0 0-.13 1.69 5.21 5.21 0 0 0 .13 1.71 1.13 1.13 0 0 0 1.17.73z" fill="#fff"/><path d="M82 108.6a5.82 5.82 0 1 0 5.82 5.82A5.84 5.84 0 0 0 82 108.6zm0 10.47a4.66 4.66 0 1 1 4.65-4.66 4.67 4.67 0 0 1-4.65 4.66z" fill="#eceff1" opacity=".9"/><path fill="#eceff1" opacity=".9" d="M82.28 111.51h-.87V115l3.03 1.86.46-.76-2.62-1.57v-3.02z"/><path d="M18.71 168.9a.17.17 0 0 1 .18-.18H23c2.32 0 3.56 1.24 3.56 3.17a2.63 2.63 0 0 1-1.89 2.75 2.84 2.84 0 0 1 2.09 2.92c0 2.11-1.35 3.37-3.76 3.37h-4.11a.17.17 0 0 1-.18-.18zm4.29 5.35a2.24 2.24 0 0 0 2.53-2.25c0-1.4-.9-2.29-2.56-2.29h-3.13a.1.1 0 0 0-.11.11v4.34a.1.1 0 0 0 .11.11zM19.84 180h3.22c1.75 0 2.66-.94 2.66-2.38s-.92-2.4-2.66-2.4h-3.22a.1.1 0 0 0-.11.11v4.56a.09.09 0 0 0 .11.11zm9.74-9.91a.17.17 0 0 1-.18-.18v-1a.17.17 0 0 1 .18-.18h.79a.17.17 0 0 1 .18.18v1a.17.17 0 0 1-.18.18zm.09 10.91a.17.17 0 0 1-.18-.18v-8.23a.17.17 0 0 1 .18-.18h.61a.17.17 0 0 1 .18.18v8.23a.17.17 0 0 1-.18.18zm5.87 0c-1.3 0-1.78-.59-1.78-2v-10.1a.17.17 0 0 1 .18-.18h.61a.17.17 0 0 1 .18.18V179c0 .85.27 1.12.92 1.12H36a.17.17 0 0 1 .18.18v.58a.17.17 0 0 1-.18.12zm4.7 0c-1.3 0-1.78-.59-1.78-2v-10.1a.17.17 0 0 1 .18-.18h.61a.17.17 0 0 1 .18.18V179c0 .85.27 1.12.92 1.12h.31a.17.17 0 0 1 .18.18v.58a.17.17 0 0 1-.18.18zm2.76 3.21a.17.17 0 0 1-.18-.18v-.58a.17.17 0 0 1 .18-.18h.32c.74 0 1.13-.31 1.62-1.6l.34-.88-3.17-8.23c0-.11 0-.18.13-.18h.68c.13 0 .18.05.23.18l2.61 6.9 2.54-6.9a.21.21 0 0 1 .22-.18h.68a.12.12 0 0 1 .13.18l-3.51 9.24c-.74 2-1.35 2.41-2.47 2.41zm12-4.32l.49-.45a.19.19 0 0 1 .27 0 3.16 3.16 0 0 0 1.93.74c1.55 0 2.54-.85 2.54-2.88v-8.4a.17.17 0 0 1 .18-.18h.67a.17.17 0 0 1 .18.18v8.39c0 2.63-1.4 3.85-3.58 3.85a4 4 0 0 1-2.65-1 .17.17 0 0 1-.03-.25zm9.23-.98a8.87 8.87 0 0 1 0-4.48 3.43 3.43 0 0 1 6.43 0 8.87 8.87 0 0 1 0 4.48 3.43 3.43 0 0 1-6.43 0zm5.49-.31a5.84 5.84 0 0 0 .23-1.95 5.78 5.78 0 0 0-.23-1.93 2.42 2.42 0 0 0-4.56 0 5.78 5.78 0 0 0-.23 1.93 5.84 5.84 0 0 0 .23 1.95 2.42 2.42 0 0 0 4.56 0zm9.71 2.4a.17.17 0 0 1-.18-.18v-5.08c0-1.71-.76-2.57-2.25-2.57a2.25 2.25 0 0 0-2.34 2.39v5.26a.17.17 0 0 1-.18.18h-.61a.17.17 0 0 1-.18-.18v-8.23a.17.17 0 0 1 .18-.18h.61a.17.17 0 0 1 .18.18v1a2.7 2.7 0 0 1 2.54-1.39c1.91 0 3 1.19 3 3.28v5.31a.17.17 0 0 1-.2.21zm3.67-2.12a7.11 7.11 0 0 1-.25-2.21 7.33 7.33 0 0 1 .25-2.23 3.4 3.4 0 0 1 6.39 0 6.81 6.81 0 0 1 .25 2.29.18.18 0 0 1-.2.18h-5.6c-.07 0-.11.05-.11.13a4.66 4.66 0 0 0 .18 1.51 2.37 2.37 0 0 0 2.43 1.67 2.93 2.93 0 0 0 2.4-1.1.16.16 0 0 1 .25 0l.41.38a.16.16 0 0 1 0 .25 3.79 3.79 0 0 1-3.13 1.44 3.17 3.17 0 0 1-3.27-2.31zm5.55-2.81a.1.1 0 0 0 .11-.11 4 4 0 0 0-.16-1.24 2.44 2.44 0 0 0-4.59 0 4 4 0 0 0-.16 1.24.1.1 0 0 0 .11.11zm3.14 3.87a.17.17 0 0 1 0-.25l.4-.45a.19.19 0 0 1 .25 0 4.43 4.43 0 0 0 2.79 1c1.49 0 2.23-.67 2.23-1.66s-.38-1.33-2-1.51l-.86-.09c-1.6-.16-2.5-.94-2.5-2.29 0-1.57 1.13-2.5 3-2.5a5.29 5.29 0 0 1 2.9.81.18.18 0 0 1 0 .25l-.32.43a.18.18 0 0 1-.25.05 5.07 5.07 0 0 0-2.38-.67c-1.31 0-2 .58-2 1.53s.52 1.3 2 1.44l.86.09c1.67.16 2.48 1 2.48 2.3 0 1.64-1.15 2.68-3.29 2.68a5.19 5.19 0 0 1-3.31-1.16z" fill="#fff"/><path d="M18.74 216.07a.19.19 0 0 1 .06-.16l2.88-3.59a1.93 1.93 0 0 0 .53-1.25 1 1 0 0 0-1.08-1.07 1.05 1.05 0 0 0-1.1 1 .11.11 0 0 1-.13.1l-1.06-.22a.12.12 0 0 1-.1-.14 2.24 2.24 0 0 1 2.42-2 2.22 2.22 0 0 1 2.4 2.28 2.9 2.9 0 0 1-.77 1.91l-2.37 2.88h3a.11.11 0 0 1 .12.12v1a.11.11 0 0 1-.12.12h-4.56a.11.11 0 0 1-.12-.12zm8.96-3.42v-1.22a.11.11 0 0 1 .12-.12H29a.11.11 0 0 1 .12.12v1.22a.11.11 0 0 1-.12.12h-1.2a.11.11 0 0 1-.1-.12zm0 3.09a.11.11 0 0 1 .12-.12H29a.11.11 0 0 1 .12.12V217a.11.11 0 0 1-.12.12h-1.2a.11.11 0 0 1-.12-.12zm5.51-.42l1-.24a.12.12 0 0 1 .14.08 1.23 1.23 0 0 0 1.23.86 1.14 1.14 0 0 0 1.2-1.21 1.24 1.24 0 0 0-1.33-1.33h-.35a.11.11 0 0 1-.12-.12v-.95a.11.11 0 0 1 .12-.12h.32a1.11 1.11 0 0 0 1.19-1.19 1 1 0 0 0-1.09-1.1 1.06 1.06 0 0 0-1.09.84.11.11 0 0 1-.14.08l-1-.24a.12.12 0 0 1-.1-.14 2.26 2.26 0 0 1 2.4-1.74 2.18 2.18 0 0 1 2.4 2.25 2 2 0 0 1-.91 1.69 2.13 2.13 0 0 1 1.08 2 2.41 2.41 0 0 1-2.55 2.47 2.37 2.37 0 0 1-2.52-1.75.13.13 0 0 1 .12-.14zm8.97-2.32a8.89 8.89 0 0 1 .17-2.61 2.21 2.21 0 0 1 2.31-1.59 2.23 2.23 0 0 1 2.34 1.6 20.44 20.44 0 0 1 0 5.23 2.23 2.23 0 0 1-2.33 1.59 2.21 2.21 0 0 1-2.31-1.59 8.89 8.89 0 0 1-.18-2.63zm2.48 3a1 1 0 0 0 1-.65 25.92 25.92 0 0 0 0-4.73 1 1 0 0 0-1-.65 1 1 0 0 0-1 .65 25.92 25.92 0 0 0 0 4.73 1 1 0 0 0 1 .65z" fill="#aeaeae"/><path d="M98.5 217.44a.33.33 0 0 1 .07-.23l4.52-5.92a4 4 0 0 0 1-2.4 2.22 2.22 0 0 0-2.34-2.29 2.25 2.25 0 0 0-2.34 2.11.17.17 0 0 1-.22.14l-.56-.14a.16.16 0 0 1-.14-.2 3.17 3.17 0 0 1 3.28-2.84 3.11 3.11 0 0 1 3.29 3.22 4.83 4.83 0 0 1-1.24 3l-4 5.26h5.1a.17.17 0 0 1 .18.18v.58a.17.17 0 0 1-.18.18h-6.24a.17.17 0 0 1-.18-.18zm9.7-1.92l.58-.14a.17.17 0 0 1 .23.13 2.43 2.43 0 0 0 2.52 1.84 2.39 2.39 0 0 0 2.5-2.54 2.48 2.48 0 0 0-2.57-2.61h-.56a.17.17 0 0 1-.18-.18v-.58a.17.17 0 0 1 .18-.18h.54a2.23 2.23 0 0 0 2.32-2.36 2.15 2.15 0 0 0-2.3-2.29 2.19 2.19 0 0 0-2.3 1.76.16.16 0 0 1-.2.14l-.59-.16a.17.17 0 0 1-.14-.22 3.1 3.1 0 0 1 3.26-2.47 3.18 3.18 0 0 1 1.64 6 3.26 3.26 0 0 1 1.89 3.1 3.34 3.34 0 0 1-3.48 3.51 3.3 3.3 0 0 1-3.46-2.52.17.17 0 0 1 .12-.23zm10.04-4.7a12.48 12.48 0 0 1 0-3.78 2.1 2.1 0 0 1 3.91 0 12.48 12.48 0 0 1 0 3.78 2.1 2.1 0 0 1-3.91 0zm3.11-.18a11.67 11.67 0 0 0 0-3.42 1.26 1.26 0 0 0-2.32 0 11.63 11.63 0 0 0 0 3.42 1.26 1.26 0 0 0 2.32 0zm5.2-4.79c.07-.13.13-.18.25-.18h.49c.11 0 .16.07.11.18l-7.09 12.24c-.07.13-.13.18-.25.18h-.49c-.11 0-.16-.07-.11-.18zm-1.93 9.15a5.94 5.94 0 0 1 .14-1.89 2.09 2.09 0 0 1 3.89 0 6 6 0 0 1 .14 1.89 5.77 5.77 0 0 1-.14 1.89 2.08 2.08 0 0 1-3.89 0 5.76 5.76 0 0 1-.14-1.89zm2.09 2.49a1.13 1.13 0 0 0 1.17-.77A5.19 5.19 0 0 0 128 215a5 5 0 0 0-.13-1.69 1.27 1.27 0 0 0-2.34 0 5 5 0 0 0-.13 1.69 5.21 5.21 0 0 0 .13 1.71 1.13 1.13 0 0 0 1.18.79z" fill="#fff"/><g data-name="schedule" fill="#fff"><path d="M82 206.45a5.82 5.82 0 1 0 5.82 5.82 5.84 5.84 0 0 0-5.82-5.82zm0 10.48a4.66 4.66 0 1 1 4.66-4.66 4.67 4.67 0 0 1-4.66 4.65z"/><path d="M82.28 209.36h-.87v3.49l3.03 1.86.46-.75-2.62-1.58v-3.02z"/></g><path d="M18.71 267.65a.17.17 0 0 1 .18-.18h7a.17.17 0 0 1 .18.18v.61a.17.17 0 0 1-.18.18h-6a.1.1 0 0 0-.11.11V273a.1.1 0 0 0 .11.11H25a.17.17 0 0 1 .18.18v.61a.17.17 0 0 1-.18.18h-5.2a.1.1 0 0 0-.11.11v5.31a.17.17 0 0 1-.18.18h-.67a.17.17 0 0 1-.18-.18zm9.7 4.84a.18.18 0 0 1-.27 0l-.31-.45a.18.18 0 0 1 .05-.25 4.14 4.14 0 0 1 2.74-.83c2.23 0 3.13.74 3.13 2.84v5.74a.17.17 0 0 1-.18.18H33a.17.17 0 0 1-.18-.18v-.9a2.77 2.77 0 0 1-2.66 1.26c-1.73 0-2.88-.86-2.88-2.54s1.17-2.54 3.26-2.54h2.16a.1.1 0 0 0 .11-.11v-.88c0-1.4-.49-2-2.23-2a3.12 3.12 0 0 0-2.17.66zm4.39 4.57v-1.31a.1.1 0 0 0-.11-.11h-2.04c-1.71 0-2.43.56-2.43 1.69S29 279 30.34 279s2.47-.76 2.47-1.93zm5.2 1.43v1a.17.17 0 0 1-.18.18h-.61a.17.17 0 0 1-.18-.18v-11.84a.17.17 0 0 1 .18-.18h.61a.17.17 0 0 1 .18.18v4.7a2.65 2.65 0 0 1 2.61-1.4 2.77 2.77 0 0 1 2.87 2.05 9.73 9.73 0 0 1 0 4.84 2.77 2.77 0 0 1-2.92 2.05 2.65 2.65 0 0 1-2.56-1.4zm4.61-1a8.89 8.89 0 0 0 0-4.05 2.35 2.35 0 0 0-4.39 0 6.39 6.39 0 0 0-.23 2 6.26 6.26 0 0 0 .23 2 2.35 2.35 0 0 0 4.39 0zm4-8.65a.17.17 0 0 1-.18-.18v-1a.17.17 0 0 1 .18-.18h.79a.17.17 0 0 1 .18.18v1a.17.17 0 0 1-.18.18zm.09 10.88a.17.17 0 0 1-.18-.18v-8.23a.17.17 0 0 1 .18-.18h.61a.17.17 0 0 1 .18.18v8.23a.17.17 0 0 1-.18.18zm3.82-2.06a8.87 8.87 0 0 1 0-4.48 3.43 3.43 0 0 1 6.43 0 8.87 8.87 0 0 1 0 4.48 3.43 3.43 0 0 1-6.43 0zm5.49-.31a5.84 5.84 0 0 0 .23-1.95 5.78 5.78 0 0 0-.23-1.93 2.42 2.42 0 0 0-4.56 0 5.78 5.78 0 0 0-.23 1.93 5.84 5.84 0 0 0 .23 1.95 2.42 2.42 0 0 0 4.56 0zm8.42-9.7a.17.17 0 0 1 .18-.18h7a.17.17 0 0 1 .18.18v.61a.17.17 0 0 1-.18.18h-6a.1.1 0 0 0-.11.11V273a.1.1 0 0 0 .11.11h5.2a.17.17 0 0 1 .18.18v.61a.17.17 0 0 1-.18.18h-5.2a.1.1 0 0 0-.11.11v5.31a.17.17 0 0 1-.18.18h-.67a.17.17 0 0 1-.18-.18zm9.02 9.97a7.11 7.11 0 0 1-.25-2.21 7.32 7.32 0 0 1 .25-2.23 3.4 3.4 0 0 1 6.39 0 6.81 6.81 0 0 1 .25 2.29.18.18 0 0 1-.2.18h-5.6c-.07 0-.11.05-.11.13a4.66 4.66 0 0 0 .18 1.51A2.37 2.37 0 0 0 76.8 279a2.93 2.93 0 0 0 2.39-1.1.16.16 0 0 1 .25 0l.41.38a.16.16 0 0 1 0 .25 3.79 3.79 0 0 1-3.13 1.44 3.18 3.18 0 0 1-3.27-2.35zm5.55-2.8a.1.1 0 0 0 .11-.11 4 4 0 0 0-.16-1.24 2.44 2.44 0 0 0-4.59 0 4 4 0 0 0-.16 1.24.1.1 0 0 0 .11.11zm4 4.89a.17.17 0 0 1-.18-.18v-8.23a.17.17 0 0 1 .18-.18h.61a.17.17 0 0 1 .18.18v1.1a2.3 2.3 0 0 1 2.3-1.46 2.68 2.68 0 0 1 1.73.59.14.14 0 0 1 0 .23l-.36.5a.19.19 0 0 1-.27 0 2.47 2.47 0 0 0-1.37-.43c-1.51 0-2.09 1.31-2.09 2.9v4.75a.17.17 0 0 1-.18.18zm7.12 0a.17.17 0 0 1-.18-.18v-8.23a.17.17 0 0 1 .18-.18h.61a.17.17 0 0 1 .18.18v1.1a2.3 2.3 0 0 1 2.3-1.46 2.68 2.68 0 0 1 1.73.59.14.14 0 0 1 0 .23l-.36.5a.19.19 0 0 1-.27 0 2.47 2.47 0 0 0-1.37-.43c-1.51 0-2.09 1.31-2.09 2.9v4.75a.17.17 0 0 1-.18.18zm6.3-2.09a7.11 7.11 0 0 1-.25-2.21 7.32 7.32 0 0 1 .25-2.23 3.4 3.4 0 0 1 6.39 0 6.81 6.81 0 0 1 .25 2.29.18.18 0 0 1-.2.18h-5.6c-.07 0-.11.05-.11.13a4.66 4.66 0 0 0 .18 1.51 2.37 2.37 0 0 0 2.43 1.71 2.93 2.93 0 0 0 2.39-1.1.16.16 0 0 1 .25 0l.41.38a.16.16 0 0 1 0 .25 3.79 3.79 0 0 1-3.13 1.44 3.18 3.18 0 0 1-3.26-2.35zm5.55-2.81a.1.1 0 0 0 .11-.11 4 4 0 0 0-.16-1.24 2.44 2.44 0 0 0-4.59 0 4 4 0 0 0-.16 1.24.1.1 0 0 0 .11.11zm4.03 4.9a.17.17 0 0 1-.18-.18v-8.23a.17.17 0 0 1 .18-.18h.61a.17.17 0 0 1 .18.18v1.1a2.3 2.3 0 0 1 2.3-1.46 2.68 2.68 0 0 1 1.73.59.14.14 0 0 1 0 .23l-.36.5a.19.19 0 0 1-.27 0 2.47 2.47 0 0 0-1.37-.43c-1.51 0-2.09 1.31-2.09 2.9v4.75a.17.17 0 0 1-.18.18zm7.16-7.22a.18.18 0 0 1-.27 0l-.31-.45a.18.18 0 0 1 .05-.25 4.14 4.14 0 0 1 2.74-.83c2.23 0 3.13.74 3.13 2.84v5.74a.17.17 0 0 1-.18.18h-.58a.17.17 0 0 1-.18-.18v-.9a2.77 2.77 0 0 1-2.66 1.26c-1.73 0-2.88-.86-2.88-2.54s1.17-2.54 3.26-2.54h2.18a.1.1 0 0 0 .11-.11v-.88c0-1.4-.49-2-2.23-2a3.12 3.12 0 0 0-2.18.66zm4.39 4.57v-1.31a.1.1 0 0 0-.11-.11h-2.05c-1.71 0-2.43.56-2.43 1.69s.76 1.66 2.12 1.66 2.47-.75 2.47-1.92z" fill="#fff"/><path d="M18.68 311.76a8.91 8.91 0 0 1 .17-2.61 2.21 2.21 0 0 1 2.31-1.59 2.23 2.23 0 0 1 2.33 1.59 20.44 20.44 0 0 1 0 5.23 2.23 2.23 0 0 1-2.33 1.62 2.21 2.21 0 0 1-2.31-1.59 8.91 8.91 0 0 1-.17-2.65zm2.48 3a1 1 0 0 0 1-.65 25.92 25.92 0 0 0 0-4.73 1 1 0 0 0-1-.65 1 1 0 0 0-1 .65 25.92 25.92 0 0 0 0 4.73 1 1 0 0 0 1 .67zm6.54-3.36v-1.22a.11.11 0 0 1 .12-.12H29a.11.11 0 0 1 .12.12v1.22a.11.11 0 0 1-.12.12h-1.2a.11.11 0 0 1-.1-.12zm0 3.09a.11.11 0 0 1 .12-.12H29a.11.11 0 0 1 .12.12v1.22a.11.11 0 0 1-.12.12h-1.2a.11.11 0 0 1-.12-.12zm5.49-2.73a8.91 8.91 0 0 1 .17-2.61 2.21 2.21 0 0 1 2.31-1.59 2.23 2.23 0 0 1 2.33 1.59 20.44 20.44 0 0 1 0 5.23 2.23 2.23 0 0 1-2.33 1.62 2.21 2.21 0 0 1-2.31-1.59 8.91 8.91 0 0 1-.17-2.65zm2.48 3a1 1 0 0 0 1-.65 25.92 25.92 0 0 0 0-4.73 1 1 0 0 0-1-.65 1 1 0 0 0-1 .65 25.92 25.92 0 0 0 0 4.73 1 1 0 0 0 1 .67zm6.51-3a8.89 8.89 0 0 1 .17-2.61 2.21 2.21 0 0 1 2.31-1.59 2.23 2.23 0 0 1 2.34 1.59 20.44 20.44 0 0 1 0 5.23 2.23 2.23 0 0 1-2.34 1.62 2.21 2.21 0 0 1-2.31-1.59 8.89 8.89 0 0 1-.17-2.65zm2.48 3a1 1 0 0 0 1-.65 25.92 25.92 0 0 0 0-4.73 1 1 0 0 0-1-.65 1 1 0 0 0-1 .65 25.92 25.92 0 0 0 0 4.73 1 1 0 0 0 1 .67z" fill="#aeaeae"/><path d="M98.37 310.72a14.63 14.63 0 0 1 .27-4.1 3.36 3.36 0 0 1 6.3 0 31.34 31.34 0 0 1 0 8.21 3.36 3.36 0 0 1-6.3 0 14.64 14.64 0 0 1-.27-4.11zm3.42 5.38a2.1 2.1 0 0 0 2.2-1.49 30.08 30.08 0 0 0 0-7.78 2.36 2.36 0 0 0-4.39 0 30.14 30.14 0 0 0 0 7.78 2.1 2.1 0 0 0 2.19 1.49zm6.7-6.53a12.48 12.48 0 0 1 0-3.78 2.1 2.1 0 0 1 3.91 0 12.48 12.48 0 0 1 0 3.78 2.1 2.1 0 0 1-3.91 0zm3.11-.18a11.67 11.67 0 0 0 0-3.42 1.26 1.26 0 0 0-2.32 0 11.63 11.63 0 0 0 0 3.42 1.26 1.26 0 0 0 2.32 0zm5.2-4.79c.07-.13.13-.18.25-.18h.49c.11 0 .16.07.11.18l-7.09 12.24c-.07.13-.13.18-.25.18h-.49c-.11 0-.16-.07-.11-.18zm-1.94 9.17a5.94 5.94 0 0 1 .14-1.89 2.09 2.09 0 0 1 3.89 0 6 6 0 0 1 .14 1.89 5.77 5.77 0 0 1-.14 1.89 2.08 2.08 0 0 1-3.89 0 5.76 5.76 0 0 1-.14-1.9zm2.09 2.49a1.13 1.13 0 0 0 1.17-.77 5.19 5.19 0 0 0 .13-1.71 5 5 0 0 0-.13-1.69 1.27 1.27 0 0 0-2.34 0 5 5 0 0 0-.13 1.69 5.21 5.21 0 0 0 .13 1.71 1.13 1.13 0 0 0 1.17.76z" fill="#fff"/><g data-name="schedule" fill="#eceff1"><path d="M82 305.2a5.82 5.82 0 1 0 5.81 5.8 5.84 5.84 0 0 0-5.81-5.8zm0 10.47a4.66 4.66 0 1 1 4.65-4.67 4.67 4.67 0 0 1-4.65 4.67z" opacity=".9"/><path opacity=".9" d="M82.28 308.11h-.87v3.49l3.03 1.86.46-.76-2.62-1.57v-3.02z"/></g><path fill="none" d="M0 0h976.54v356.1H0z"/></g></g></svg>