<svg xmlns="http://www.w3.org/2000/svg" viewBox="0 0 677.34 583.8"><title>tracking-bg</title><path d="M92.32 474.427V583.8h7V471.7h70.07v112.1h7v-50.53h33.22v50.53h7v-50.53h28.55v50.53h7V549h80.86v34.8h7v-35.264a3.47 3.47 0 0 0 0-6.073V471.7h25.67l54.77 112.1h8.9l-24.688-50.53h81.498v50.53h7v-50.53h89.05v50.53h10V471.7h85.12v-7h-85.12V283.63h85.12v-7h-85.12v-52.8h85.12v-7h-85.12v-85.34h85.12v-7h-85.12V81.71h85.12v-7h-85.12V38.88h85.12v-7h-85.12V0h-10v31.88h-89.05V0h-7v31.88h-91.945L418.31 0h-12.533l-24.085 31.88H340.02V0h-7v31.88h-80.86V0h-7v31.88h-68.77V0h-7v31.88h-4.478a63.247 63.247 0 0 0-1.374-3.267L149.839 0h-8.869l15.263 31.88H99.32V0h-7v31.88H53.21L68.308 0h-7.745l-15.1 31.88H0v7h39.913L0 84.016v10.567l31.425-35.537L57.16 67.8v26.67a3.5 3.5 0 0 0 3.5 3.5h31.66v26.52H45.882L0 103.969v10.955l21.388 9.566H0v7h37.039l55.281 24.724v60.616H0v7h35.13v27.44h-8.47a3.5 3.5 0 1 0 0 7H68.7a3.5 3.5 0 0 0 0-7H42.13v-27.44h50.19v59.09H0v7h92.32v40.09H0v7h92.32v30.87H0v7h92.32v53.359L72.295 455.8l-18.6-13.409 13.071-15.638a3.5 3.5 0 0 0 .544-3.595L62.06 410.6v-12.99a3.5 3.5 0 0 0-7 0v10.19H30.77a3.5 3.5 0 0 0-3.007 1.709l-6.852 11.5H0v7h21.77l46.411 33.454-23.225 31.967H0v7h39.87L0 555.309v17.012l54.329-74.779zM493.17 38.88h89.05v35.83h-89.05zm0 42.83h89.05v42.78h-89.05zm0 49.78h89.05v85.34h-89.05zm0 92.34h89.05v52.8h-89.05zm0 80.23h34.281l2.508 1.615-12.547 29.267L493.17 324.1zm42.757 5.459l11.073 7.13v31.528L523.8 337.8zM493.17 416.074l71.462-32.06a3.5 3.5 0 1 0-2.865-6.387L493.17 408.4v-33.52h35.31a3.5 3.5 0 0 0 0-7h-35.31v-32.825l67.988 30.41a5 5 0 0 0 4.083-9.129L554 351.308V314.74a3.5 3.5 0 0 0-1.6-2.942l-22.02-14.18a3.5 3.5 0 0 0-1.9-.558h-35.31v-13.43h89.05V464.7h-89.05zm0 55.626h89.05v54.57h-89.05zm-7 54.57h-84.914l-26.662-54.57H486.17zm0-61.57H384.782l22.843-10.248c.057-.023.113-.049.169-.076l78.376-35.162zm0-53.158l-78.293 35.125-16.457-32.073V374.88h94.75zM388.936 38.88h97.234v35.83h-124.3zm-48.916 0h36.38l-27.066 35.83h-9.314zm0 42.83h4.026l-4.026 5.329zm0 21.918l16.559-21.918H486.17v42.78H340.02zm0 27.862h122.29v19.73H340.02zm0 26.73h125.79a3.5 3.5 0 0 0 3.5-3.5v-23.23h16.86v39.75H340.02zm0 20.02h146.15v38.59H340.02zm0 45.59h146.15v97.139L340.02 255.6zm0 42.724l146.15 65.37V344.4l-103.007-14.357a3.5 3.5 0 0 0-.966 6.934l103.973 14.49v16.413H340.02zm0 108.326h44.4v40.56a3.5 3.5 0 0 0 .386 1.6l16.675 32.5-30.935 13.879-26.217-53.66a55.178 55.178 0 0 1-3.335-9.639l-.973-4.344zm0 44.28l22.25 45.54h-22.25zm-94.86-94.71h-65.075l47.678-65.624a43.49 43.49 0 0 0 17.4 5.161zM333.02 542h-80.86v-70.3h80.86zm0-77.3h-80.86v-41.57h80.86zm0-48.57h-80.86v-41.25h59.116l2.431 4.987a63.64 63.64 0 0 0 6.326 10.087l12.988 16.288zm-16.257-48.25l-52.054-106.8a43.634 43.634 0 0 0 4.827-2.243L322.78 367.88zm9.377 7a55.7 55.7 0 0 1 2.96 8.72l1.522 6.795-4.282-5.37a55.338 55.338 0 0 1-5.461-8.712l-.7-1.437zm-18.277-7h-55.7V263.987a43.67 43.67 0 0 0 4.755-.638zm25.157 0h-1.338L276.24 254.336a44.131 44.131 0 0 0 10.146-11.772l46.634 20.859zm0-115.412l-42.554-19.034a43.533 43.533 0 0 0 1.851-9.6h40.7zm0-35.638h-40.7a43.74 43.74 0 0 0-15.279-29.836l41.932-55.5h14.047zm0-92.34h-8.761l8.761-11.6zm-80.86-85.61h80.86v35.83h-80.86zm0 42.83h80.86V96.3l-21.293 28.19H252.16zm0 49.78h54.278l-37.711 49.916a43.467 43.467 0 0 0-16.568-4.734zm-3.5 55.03a33.789 33.789 0 0 1 31.44 46.225 4.5 4.5 0 0 0-1.143 2.572 33.806 33.806 0 1 1-30.3-48.8zm-13.667-7.806a43.517 43.517 0 0 0-5.015 2l-24.02-49.224h6zM220.86 131.49h24.3v45.182q-1.084.086-2.152.225zm-44.47-92.61h68.77v85.61h-27.714l-30.493-62.518a63.682 63.682 0 0 0-6.326-10.086l-4.238-5.315zm0 20.846a55.15 55.15 0 0 1 3.4 5.8l28.761 58.967h-6L176.39 70.9zm0 29.415l17.25 35.349h-17.25zm0 42.349h20.666l26.016 53.31a44.134 44.134 0 0 0-12.236 13.463l-34.446-15.404zm0 62.324l30.405 13.6A43.538 43.538 0 0 0 205 216.83h-28.61zm0 96.07a3.48 3.48 0 0 0 0-6.93V223.83H205a43.726 43.726 0 0 0 14.586 29.235l-43.2 59.458zm0 41.565h68.77v36.43h-68.77zm0 43.43h68.77V464.7h-68.77zm0 96.82h68.77v54.57h-68.77zm-7-103.82h-20.858l20.858-28.709zm0-84.959h-32.54v-59.09h32.54zM99.32 38.88h59.56a56 56 0 0 1 .777 2.8l4.118 18.368a63.758 63.758 0 0 0 3.874 11.173l.046.1 1.695 3.479v49.69H99.32zm0 92.61h70.07v48.239L99.32 148.39zm0 27.855l70.07 31.339v26.146H99.32zm0 64.485h30.53v59.09H99.32zm0 66.09h70.07v32.238l-33.218 45.722H99.32zm0 84.959h31.766L99.32 418.6zm0 60.736l44.126-60.736h25.944V464.7H99.32zM64.16 90.97V65.29a3.5 3.5 0 0 0-2.373-3.313l-25.335-8.616L49.257 38.88H92.32v52.09zm-2.627 40.52H92.32v13.769zM27.548 423.546l5.21-8.746H56.23l3.8 9.1L48 438.289zm64.771 21.7v20.982L65 482.856z" fill="#78909c" opacity=".15"/><path fill="none" d="M0 0h677.34v583.8H0z"/></svg>