<svg xmlns="http://www.w3.org/2000/svg" viewBox="0 0 677.34 583.8"><title>tracking-bg</title><path d="M92.32,474.427V583.8h7V471.7h70.07V583.8h7V533.27h33.22V583.8h7V533.27h28.55V583.8h7V549h80.86v34.8h7V548.536a3.47,3.47,0,0,0,0-6.073V471.7h25.67l54.77,112.1h8.9l-24.688-50.53H486.17V583.8h7V533.27h89.05V583.8h10V471.7h85.12v-7H592.22V283.63h85.12v-7H592.22v-52.8h85.12v-7H592.22V131.49h85.12v-7H592.22V81.71h85.12v-7H592.22V38.88h85.12v-7H592.22V0h-10V31.88H493.17V0h-7V31.88H394.225L418.31,0H405.777L381.692,31.88H340.02V0h-7V31.88H252.16V0h-7V31.88H176.39V0h-7V31.88h-4.478c-.429-1.1-.882-2.188-1.374-3.267L149.839,0H140.97l15.263,31.88H99.32V0h-7V31.88H53.21L68.308,0H60.563l-15.1,31.88H0v7H39.913L0,84.016V94.583L31.425,59.046,57.16,67.8V94.47a3.5,3.5,0,0,0,3.5,3.5H92.32v26.52H45.882L0,103.969v10.955l21.388,9.566H0v7H37.039L92.32,156.214V216.83H0v7H35.13v27.44H26.66a3.5,3.5,0,1,0,0,7H68.7a3.5,3.5,0,0,0,0-7H42.13V223.83H92.32v59.09H0v7H92.32V330.01H0v7H92.32v30.87H0v7H92.32v53.359L72.295,455.8l-18.6-13.409,13.071-15.638a3.5,3.5,0,0,0,.544-3.595L62.06,410.6V397.61a3.5,3.5,0,0,0-7,0V407.8H30.77a3.5,3.5,0,0,0-3.007,1.709l-6.852,11.5H0v7H21.77l46.411,33.454L44.956,493.43H0v7H39.87L0,555.309v17.012l54.329-74.779ZM493.17,38.88h89.05V74.71H493.17Zm0,42.83h89.05v42.78H493.17Zm0,49.78h89.05v85.34H493.17Zm0,92.34h89.05v52.8H493.17Zm0,80.23h34.281l2.508,1.615-12.547,29.267L493.17,324.1Zm42.757,5.459L547,316.649v31.528L523.8,337.8ZM493.17,416.074l71.462-32.06a3.5,3.5,0,1,0-2.865-6.387L493.17,408.4V374.88h35.31a3.5,3.5,0,0,0,0-7H493.17V335.055l67.988,30.41a5,5,0,0,0,4.083-9.129L554,351.308V314.74a3.5,3.5,0,0,0-1.6-2.942l-22.02-14.18a3.5,3.5,0,0,0-1.9-.558H493.17V283.63h89.05V464.7H493.17Zm0,55.626h89.05v54.57H493.17Zm-7,54.57H401.256L374.594,471.7H486.17Zm0-61.57H384.782l22.843-10.248c.057-.023.113-.049.169-.076l78.376-35.162Zm0-53.158-78.293,35.125L391.42,414.594V374.88h94.75ZM388.936,38.88H486.17V74.71h-124.3Zm-48.916,0H376.4L349.334,74.71H340.02Zm0,42.83h4.026l-4.026,5.329Zm0,21.918L356.579,81.71H486.17v42.78H340.02Zm0,27.862H462.31v19.73H340.02Zm0,26.73H465.81a3.5,3.5,0,0,0,3.5-3.5V131.49h16.86v39.75H340.02Zm0,20.02H486.17v38.59H340.02Zm0,45.59H486.17v97.139L340.02,255.6Zm0,42.724,146.15,65.37V344.4L383.163,330.043a3.5,3.5,0,0,0-.966,6.934l103.973,14.49V367.88H340.02Zm0,108.326h44.4V415.44a3.5,3.5,0,0,0,.386,1.6l16.675,32.5-30.935,13.879-26.217-53.66a55.178,55.178,0,0,1-3.335-9.639l-.973-4.344Zm0,44.28,22.25,45.54H340.02Zm-94.86-94.71H180.085l47.678-65.624a43.49,43.49,0,0,0,17.4,5.161ZM333.02,542H252.16V471.7h80.86Zm0-77.3H252.16V423.13h80.86Zm0-48.57H252.16V374.88h59.116l2.431,4.987a63.64,63.64,0,0,0,6.326,10.087l12.988,16.288Zm-16.257-48.25-52.054-106.8a43.634,43.634,0,0,0,4.827-2.243L322.78,367.88Zm9.377,7A55.7,55.7,0,0,1,329.1,383.6l1.522,6.795-4.282-5.37a55.338,55.338,0,0,1-5.461-8.712l-.7-1.437Zm-18.277-7h-55.7V263.987a43.67,43.67,0,0,0,4.755-.638Zm25.157,0h-1.338L276.24,254.336a44.131,44.131,0,0,0,10.146-11.772l46.634,20.859Zm0-115.412-42.554-19.034a43.533,43.533,0,0,0,1.851-9.6h40.7Zm0-35.638h-40.7a43.74,43.74,0,0,0-15.279-29.836l41.932-55.5H333.02Zm0-92.34h-8.761l8.761-11.6ZM252.16,38.88h80.86V74.71H252.16Zm0,42.83h80.86V96.3L311.727,124.49H252.16Zm0,49.78h54.278l-37.711,49.916a43.467,43.467,0,0,0-16.568-4.734Zm-3.5,55.03A33.789,33.789,0,0,1,280.1,232.745a4.5,4.5,0,0,0-1.143,2.572,33.806,33.806,0,1,1-30.3-48.8Zm-13.667-7.806a43.517,43.517,0,0,0-5.015,2L205.958,131.49h6ZM220.86,131.49h24.3v45.182q-1.084.086-2.152.225ZM176.39,38.88h68.77v85.61H217.446L186.953,61.972a63.682,63.682,0,0,0-6.326-10.086l-4.238-5.315Zm0,20.846a55.15,55.15,0,0,1,3.4,5.8l28.761,58.967h-6L176.39,70.9Zm0,29.415,17.25,35.349H176.39Zm0,42.349h20.666L223.072,184.8a44.134,44.134,0,0,0-12.236,13.463L176.39,182.859Zm0,62.324,30.405,13.6A43.538,43.538,0,0,0,205,216.83H176.39Zm0,96.07a3.48,3.48,0,0,0,0-6.93V223.83H205a43.726,43.726,0,0,0,14.586,29.235l-43.2,59.458Zm0,41.565h68.77v36.43H176.39Zm0,43.43h68.77V464.7H176.39Zm0,96.82h68.77v54.57H176.39Zm-7-103.82H148.532l20.858-28.709Zm0-84.959H136.85V223.83h32.54ZM99.32,38.88h59.56c.283.934.547,1.869.777,2.8l4.118,18.368a63.758,63.758,0,0,0,3.874,11.173c.015.033.03.065.046.1L169.39,74.8V124.49H99.32Zm0,92.61h70.07v48.239L99.32,148.39Zm0,27.855,70.07,31.339V216.83H99.32Zm0,64.485h30.53v59.09H99.32Zm0,66.09h70.07v32.238L136.172,367.88H99.32Zm0,84.959h31.766L99.32,418.6Zm0,60.736,44.126-60.736H169.39V464.7H99.32ZM64.16,90.97V65.29a3.5,3.5,0,0,0-2.373-3.313L36.452,53.361,49.257,38.88H92.32V90.97Zm-2.627,40.52H92.32v13.769ZM27.548,423.546l5.21-8.746H56.23l3.8,9.1L48,438.289Zm64.771,21.7v20.982L65,482.856Z" style="fill:#78909c;opacity:0.15"/><rect width="677.34" height="583.8" style="fill:none"/></svg>