<svg xmlns="http://www.w3.org/2000/svg" xmlns:xlink="http://www.w3.org/1999/xlink" width="677.3" height="583.8" viewBox="0 0 677.3 583.8"><defs><path id="a" d="M0 0h677.3v583.8H0z"/></defs><clipPath id="b"><use xlink:href="#a" overflow="visible"/></clipPath><g clip-path="url(#b)"><path fill="#006064" d="M0 0h677.3v583.8H0z"/><path fill="#282828" d="M352.1 855.7c-7.8 0-12.4-.1-12.4-.1s-4.6.1-12.4.1c-14.6 0-44-.3-75.9-2.5l-2.4-.2c-10.7-.7-21.7-1.5-32.6-2.6-12.7-1.3-23.4-2.9-29.8-3.8l-1.5-.2c-17.5-2.6-33.2-7-33.2-31.9V142.9c0-24.9 15.7-29.3 33.2-31.9l1.6-.2c6.4-1 17.1-2.5 29.7-3.8 11.6-1.2 23.2-2 34.5-2.7 32.2-2.2 61.5-2.6 76.1-2.6 7.9 0 12.5.1 12.6.1 0 0 4.6-.1 12.5-.1 14.6 0 43.9.3 75.7 2.5 11.7.8 23.3 1.6 34.9 2.8 12.6 1.3 23.4 2.9 29.8 3.8l1.5.2c17.5 2.6 33.2 7 33.2 31.9v671.5c0 24.9-15.7 29.3-33.2 31.9l-1.5.2c-6.4 1-17.2 2.6-29.9 3.8-10.9 1.1-21.9 1.9-32.6 2.6l-2.3.2c-31.7 2.3-61 2.6-75.6 2.6"/><path fill="#333" d="M348.1 137c0 5-4.1 9-9.1 9s-9.1-4.1-9.1-9c0-5 4.1-9.1 9.1-9.1 5.1 0 9.1 4.1 9.1 9.1"/><defs><path id="c" d="M330 137c0 5 4.1 9 9.1 9s9.1-4.1 9.1-9c0-5-4.1-9.1-9.1-9.1S330 132 330 137"/></defs><clipPath id="d"><use xlink:href="#c" overflow="visible"/></clipPath><path clip-path="url(#d)" fill="#333" d="M330 127.9V146v-18.1zM330 127.9h1.1V146H330zM331.1 127.9h1.1V146h-1.1zM332.2 127.9h1.1V146h-1.1zM333.3 127.9h1.1V146h-1.1zM334.4 127.9h.2V146h-.2zM334.6 127.9h.2V146h-.2zM334.9 127.9h.2V146h-.2zM335.1 127.9h.2V146h-.2zM335.3 127.9h.2V146h-.2zM335.6 127.9h.2V146h-.2zM335.8 127.9h.2V146h-.2zM336 127.9h.2V146h-.2zM336.3 127.9h.2V146h-.2zM336.5 127.9h.2V146h-.2zM336.8 127.9h.2V146h-.2zM337 127.9h.2V146h-.2zM337.2 127.9h.2V146h-.2zM337.5 127.9h.2V146h-.2zM337.7 127.9h.2V146h-.2zM338 127.9h.2V146h-.2zM338.2 127.9h.2V146h-.2zM338.4 127.9h.2V146h-.2zM338.7 127.9h.3V146h-.3zM338.9 127.9h.2V146h-.2zM339.1 127.9h.2V146h-.2zM339.4 127.9h.2V146h-.2zM339.6 127.9h.2V146h-.2zM339.9 127.9h.2V146h-.2zM340.1 127.9h.2V146h-.2zM340.3 127.9h.4V146h-.4zM340.7 127.9h.4V146h-.4zM341.1 127.9h.4V146h-.4zM341.5 127.9h.4V146h-.4zM341.9 127.9h.4V146h-.4zM342.2 127.9h.4V146h-.4zM342.6 127.9h.4V146h-.4zM343 127.9h.4V146h-.4zM343.4 127.9h.4V146h-.4zM343.8 127.9h.4V146h-.4zM344.1 127.9h.4V146h-.4zM344.5 127.9h.4V146h-.4zM344.9 127.9h.4V146h-.4zM345.3 127.9h.1V146h-.1zM345.4 127.9h.1V146h-.1zM345.5 127.9h.1V146h-.1zM345.6 127.9h.1V146h-.1zM345.7 127.9h.1V146h-.1zM345.8 127.9h.1V146h-.1zM345.9 127.9h.1V146h-.1zM346 127.9h.1V146h-.1zM346.1 127.9h.1V146h-.1zM346.2 127.9h.1V146h-.1zM346.3 127.9h.1V146h-.1zM346.4 127.9h.1V146h-.1zM346.5 127.9h.1V146h-.1zM346.6 127.9h.1V146h-.1zM346.7 127.9h.1V146h-.1zM346.8 127.9h.1V146h-.1zM346.9 127.9h.1V146h-.1zM347 127.9h.1V146h-.1zM347.1 127.9h.1V146h-.1zM347.2 127.9h.1V146h-.1zM347.3 127.9h.1V146h-.1zM347.4 127.9h.1V146h-.1zM347.5 127.9h.1V146h-.1zM347.6 127.9h.1V146h-.1zM347.7 127.9h.1V146h-.1zM347.8 127.9h.1V146h-.1zM347.9 127.9h.1V146h-.1zM348 127.9h.1V146h-.1zM348.1 146v-18.1V146z"/><path fill="#333" d="M532.6 195.6h-3.9v-52.7c0-25.9-16.9-30.6-34.3-33.2l-1.5-.2c-6.4-1-17.2-2.6-29.9-3.8-11.3-1.1-22.7-1.9-33.7-2.7l-1.3-.1c-31.9-2.2-61.2-2.5-75.8-2.5-7.4 0-12 .1-12.6.1-.6 0-5.2-.1-12.6-.1-14.6 0-43.9.3-75.8 2.5l-1.3.1c-11 .8-22.4 1.5-33.6 2.7-12.7 1.3-23.5 2.9-29.9 3.8l-1.5.2c-17.4 2.6-34.3 7.3-34.3 33.2v103.6h-3.9V365.6h3.9v448.9c0 25.9 16.9 30.6 34.3 33.2l1.5.2c6.4 1 17.2 2.6 29.9 3.8 11.3 1.1 22.6 1.9 33.6 2.7l1.3.1c31.9 2.2 61.2 2.5 75.8 2.5 7.4 0 12-.1 12.6-.1.6 0 5.2.1 12.6.1 14.6 0 43.9-.3 75.8-2.5l1.3-.1c11-.8 22.4-1.5 33.6-2.7 12.7-1.3 23.4-2.9 29.9-3.8l1.5-.2c17.4-2.6 34.3-7.3 34.3-33.2V244.3h3.9v-48.7zm-10.1 618.8c0 21.1-12.6 24.7-29.1 27.1l-1.5.2c-6.4 1-17 2.5-29.6 3.8-10.8 1.1-21.8 1.8-32.4 2.6l-2.3.2c-31.8 2.2-61 2.5-75.6 2.5-7.8 0-12.3-.1-12.5-.1 0 0-4.6.1-12.4.1-14.6 0-43.8-.3-75.5-2.5l-2.3-.2c-10.6-.7-21.6-1.5-32.5-2.6-12.6-1.3-23.2-2.9-29.6-3.8l-1.5-.2c-16.5-2.5-29-6-29-27.1V142.9c0-21.1 12.6-24.7 29-27.1l1.6-.2c6.4-.9 17-2.5 29.5-3.8 11.5-1.1 23.1-1.9 34.8-2.7 31.7-2.2 60.8-2.5 75.4-2.5 7.9 0 12.5.1 12.6.1 0 0 4.6-.1 12.5-.1 14.5 0 43.7.3 75.8 2.6 11.3.8 22.9 1.6 34.4 2.7 12.5 1.3 23.1 2.9 29.5 3.8l1.6.2c16.5 2.5 29.1 6 29.1 27.1v671.4z"/><path fill="#fff" d="M166.3 163.3h343.3v608.4H166.3z"/><path fill="none" d="M165.8 162.5h343v517.7h-343z"/><path opacity=".5" fill="#CFD8DC" d="M165.8 352.7h343.9v47.6H165.8z"/><path opacity=".75" fill="#ECEFF1" d="M334 452.1c0 1.4-1.1 2.5-2.5 2.5H180.7c-1.4 0-2.5-1.1-2.5-2.5v-27c0-1.4 1.1-2.5 2.5-2.5h150.8c1.4 0 2.5 1.1 2.5 2.5v27zM499.2 452.1c0 1.4-1.1 2.5-2.5 2.5H345.9c-1.4 0-2.5-1.1-2.5-2.5v-27c0-1.4 1.1-2.5 2.5-2.5h150.8c1.4 0 2.5 1.1 2.5 2.5v27zM334 498.3c0 1.4-1.1 2.5-2.5 2.5H180.7c-1.4 0-2.5-1.1-2.5-2.5v-27c0-1.4 1.1-2.5 2.5-2.5h150.8c1.4 0 2.5 1.1 2.5 2.5v27zM499.2 498.3c0 1.4-1.1 2.5-2.5 2.5H345.9c-1.4 0-2.5-1.1-2.5-2.5v-27c0-1.4 1.1-2.5 2.5-2.5h150.8c1.4 0 2.5 1.1 2.5 2.5v27zM334 543.9c0 1.4-1.1 2.5-2.5 2.5H180.7c-1.4 0-2.5-1.1-2.5-2.5v-27c0-1.4 1.1-2.5 2.5-2.5h150.8c1.4 0 2.5 1.1 2.5 2.5v27z"/><path fill="#CFD8DC" d="M166.1 163.4h343.5v54.9H166.1z"/><path opacity=".75" fill="#ECEFF1" d="M166.3 259.3h343.3v46.1H166.3z"/><g fill="#546E7A"><path d="M464.9 180.9h23.5v4h-23.5zM464.9 188.9h23.5v4h-23.5zM464.9 196.9h23.5v4h-23.5z"/></g><g fill="#546E7A"><path d="M189 236.7c0-.1 0-.2.1-.3.1-.1.2-.1.3-.1h5.4c.1 0 .2 0 .3.1.1.1.1.2.1.3 0 .1 0 .2-.1.3-.1.1-.2.1-.3.1h-2.2v6.7c0 .1 0 .3-.1.3-.1.1-.2.1-.4.1-.1 0-.3 0-.3-.1-.1-.1-.1-.2-.1-.3v-6.7h-2.2c-.1 0-.2 0-.3-.1-.1-.1-.2-.2-.2-.3zM195.2 238.9c0-.1 0-.2.1-.3.1-.1.2-.1.3-.1.2 0 .3.1.4.3l1.9 4.6 1.8-4.6c0-.1.1-.2.2-.2s.2-.1.3-.1c.1 0 .2 0 .3.1.1.1.1.2.1.3v.2l-2.7 6.5c-.3.8-.9 1.2-1.7 1.2h-.4c-.1 0-.1-.1-.2-.1 0-.1-.1-.1-.1-.2s0-.2.1-.3c.1-.1.2-.1.3-.1H196.2c.2 0 .3 0 .4-.1.1-.1.3-.3.4-.5l.4-.9-2.2-5.3v-.4zM201.9 246.2v-7.3c0-.1 0-.2.1-.3.1-.1.2-.1.3-.1.1 0 .2 0 .3.1.1.1.1.2.1.3v.5c.2-.3.5-.6.8-.7s.7-.3 1.1-.3c.8 0 1.4.3 1.9.8s.7 1.3.7 2.2c0 .9-.2 1.7-.7 2.2s-1.1.8-1.9.8c-.4 0-.8-.1-1.1-.3-.3-.2-.6-.4-.9-.8v2.7c0 .1 0 .2-.1.3-.1.1-.2.1-.3.1-.1 0-.2 0-.3-.1.1.1 0 0 0-.1zm.9-3.5c.2.3.4.5.7.7.3.2.7.3 1 .3.6 0 1-.2 1.4-.6.3-.4.5-1 .5-1.6s-.2-1.2-.5-1.6c-.3-.4-.8-.6-1.4-.6-.3 0-.7.1-1 .3-.3.2-.6.4-.7.7v2.4zM208.6 241.4c0-.6.1-1.1.4-1.5.2-.5.6-.8 1-1.1.4-.3.9-.4 1.5-.4.7 0 1.3.2 1.8.6.5.4.8 1 .9 1.6.1.3.1.5.1.6 0 .1 0 .2-.1.3-.1.1-.2.1-.3.1h-4.2c0 .6.2 1 .6 1.4.4.4.9.6 1.5.6s1.1-.2 1.6-.5c.1 0 .1-.1.2-.1s.2 0 .2.1c.1.1.1.2.1.3 0 .1-.1.3-.2.4l-.6.3c-.2.1-.5.1-.7.2-.2 0-.5.1-.6.1-.9 0-1.6-.3-2.1-.9-.9-.5-1.1-1.2-1.1-2.1zm.9-.4h3.8c0-.2 0-.5-.1-.7l-.3-.6c-.1-.2-.3-.4-.6-.5-.3-.1-.5-.2-.9-.2-.3 0-.6.1-.8.2-.2.1-.4.3-.6.5-.2.2-.3.4-.4.6 0 .3-.1.5-.1.7z"/></g><g fill="#546E7A"><path d="M338.1 243.2v-6.5c0-.2.1-.4.3-.6.2-.2.4-.2.6-.2.2 0 .4.1.6.2.2.2.2.4.2.6v2.4h3.8v-2.4c0-.2.1-.4.3-.6.2-.2.4-.2.6-.2.2 0 .4.1.6.2.2.2.2.4.2.6v6.5c0 .2-.1.4-.2.6-.2.2-.4.2-.6.2-.2 0-.4-.1-.6-.2-.2-.2-.3-.4-.3-.6v-2.6h-3.8v2.6c0 .2-.1.4-.3.6-.2.2-.4.2-.6.2-.2 0-.4-.1-.6-.2-.1-.2-.2-.4-.2-.6zM347.1 237.3c-.2-.2-.3-.4-.3-.6s.1-.5.3-.6c.2-.2.4-.3.6-.3.3 0 .5.1.6.3.2.2.3.4.3.6s-.1.5-.3.6c-.2.2-.4.3-.6.3l-.6-.3zm-.1 6v-4.4c0-.2.1-.4.2-.5.1-.1.3-.2.6-.2.2 0 .4.1.5.2.1.1.2.3.2.5v4.4c0 .2-.1.4-.2.5-.1.1-.3.2-.5.2s-.4-.1-.5-.2c-.2-.1-.3-.3-.3-.5zM349.8 243c0-.2.1-.3.2-.4.1-.1.3-.2.4-.2.1 0 .2 0 .3.1.5.3 1.1.5 1.6.5.3 0 .6-.1.7-.2.2-.1.2-.3.2-.5 0-.1-.1-.2-.2-.3-.1-.1-.3-.1-.5-.2-.2 0-.4-.1-.6-.1-.2 0-.5-.1-.7-.2-.3-.1-.5-.2-.7-.3-.2-.1-.4-.3-.5-.5-.1-.2-.2-.5-.2-.8 0-.5.2-1 .6-1.3s1-.5 1.7-.5c.4 0 .8.1 1.3.2s.7.3.9.5c.1.1.1.2.1.3 0 .2-.1.3-.2.4-.1.1-.3.2-.4.2-.1 0-.2 0-.3-.1-.4-.2-.8-.3-1.3-.3-.3 0-.5.1-.7.2-.2.1-.3.2-.3.4 0 .1.1.2.2.3s.3.1.5.2.4.1.6.1c.2 0 .5.1.7.2.3.1.5.2.7.3s.4.3.5.5.2.5.2.8c0 .5-.2 1-.7 1.3-.4.4-1.1.5-1.8.5-.4 0-.9-.1-1.4-.2-.5-.1-.8-.3-1-.6.1-.1.1-.2.1-.3zM355.2 238.8c0-.2.1-.3.2-.5.1-.1.3-.2.5-.2h.4v-.9c0-.2.1-.4.2-.5.1-.1.3-.2.6-.2.2 0 .4.1.5.2.1.1.2.3.2.5v.9h.6c.2 0 .3.1.5.2.1.1.2.3.2.5s-.1.3-.2.5c-.1.1-.3.2-.5.2h-.6v2.6c0 .2.1.4.2.5.1.1.2.2.4.2h.1c.2 0 .4.1.5.2s.2.3.2.5-.1.4-.3.5c-.2.1-.5.2-1 .2s-.9-.1-1.2-.4c-.3-.3-.4-.7-.4-1.2v-3h-.4c-.2 0-.3-.1-.5-.2s-.2-.4-.2-.6zM359.8 241c0-.6.1-1.1.4-1.5.2-.5.6-.8 1.1-1.1.5-.3 1-.4 1.6-.4.6 0 1.2.1 1.6.4.5.3.8.6 1.1 1.1.2.5.4 1 .4 1.5 0 .4-.1.8-.2 1.2s-.3.7-.6 1-.6.5-1 .7c-.4.2-.8.2-1.3.2-.6 0-1.2-.1-1.6-.4-.5-.3-.8-.7-1.1-1.1s-.4-1-.4-1.6zm1.6 0c0 .5.1.9.4 1.2.3.3.6.5 1.1.5s.8-.2 1.1-.5c.3-.3.4-.7.4-1.2s-.1-.9-.4-1.2-.6-.5-1.1-.5-.8.2-1.1.5-.4.8-.4 1.2zM367.2 243.3v-4.4c0-.2.1-.4.2-.5.1-.1.3-.2.6-.2.2 0 .4.1.5.2.1.1.2.3.2.5v.1c.2-.3.4-.5.6-.6.2-.2.4-.2.7-.2.2 0 .4.1.5.2.1.1.2.3.2.4 0 .2-.1.4-.2.5-.1.1-.3.2-.5.2-.5.1-.9.3-1.2.6v3.1c0 .2-.1.4-.2.5-.1.1-.3.2-.5.2s-.4-.1-.5-.2c-.4 0-.4-.2-.4-.4zM371.7 237.3c-.2-.2-.3-.4-.3-.6s.1-.5.3-.6c.2-.2.4-.3.6-.3.3 0 .5.1.6.3.2.2.3.4.3.6s-.1.5-.3.6c-.2.2-.4.3-.6.3l-.6-.3zm-.1 6v-4.4c0-.2.1-.4.2-.5.1-.1.3-.2.6-.2.2 0 .4.1.5.2.1.1.2.3.2.5v4.4c0 .2-.1.4-.2.5-.1.1-.3.2-.5.2s-.4-.1-.5-.2c-.2-.1-.3-.3-.3-.5zM374.4 241c0-.9.3-1.6.9-2.2.6-.6 1.3-.9 2.2-.9.5 0 .9.1 1.2.2s.6.3.8.6c0 .1.1.2.1.3 0 .2-.1.3-.2.5-.1.1-.3.2-.5.2-.1 0-.3 0-.4-.1-.3-.2-.5-.2-.9-.2-.5 0-.8.2-1.1.5s-.4.7-.4 1.2.1.9.4 1.2c.3.3.7.5 1.1.5.3 0 .6-.1.9-.3.1-.1.3-.1.4-.1.2 0 .4.1.5.2.1.1.2.3.2.5s-.1.4-.2.5c-.5.4-1.1.6-1.8.6-.9 0-1.6-.3-2.2-.9-.7-.6-1-1.4-1-2.3zM380.7 243.1c0-.3.1-.5.3-.7.2-.2.4-.3.6-.3.3 0 .5.1.7.3.2.2.3.5.3.9s-.1.7-.2 1.1-.4.7-.7.9c-.1.1-.2.1-.3.1-.1 0-.2 0-.3-.1-.1-.1-.1-.2-.1-.3 0-.1 0-.2.1-.3.1-.1.3-.3.4-.5.1-.2.2-.3.2-.5h-.2c-.2 0-.4-.1-.5-.2-.3.1-.3-.1-.3-.4zM387.3 243.2v-6.3c0-.3.1-.5.3-.7.2-.2.4-.3.7-.3h.3c.7 0 1.2.3 1.4.8l1.6 4.1 1.6-4.1c.1-.2.3-.4.5-.6.2-.1.4-.2.7-.2h.7l.6.3c.2.2.2.4.2.6v6.3c0 .2-.1.4-.3.6-.2.2-.4.2-.6.2-.2 0-.4-.1-.6-.2-.2-.2-.2-.4-.2-.6v-4.8l-2.2 5.4c0 .1-.1.2-.2.2s-.2.1-.3.1c-.1 0-.2 0-.3-.1l-.2-.2-2.2-5.4v4.8c0 .2-.1.4-.3.6-.2.2-.4.2-.6.2-.2 0-.4-.1-.6-.2.1-.1 0-.3 0-.5zM397.3 242.2c0-.3 0-.5.1-.7.1-.2.2-.4.3-.5.1-.1.3-.3.5-.4.2-.1.4-.2.5-.2.2 0 .4-.1.6-.1.4 0 .7.1 1.1.2.3.1.6.3.8.5v-.8c0-.3-.1-.5-.3-.7-.2-.2-.5-.3-.9-.3-.5 0-.9.1-1.3.4-.1.1-.2.1-.3.1-.1 0-.3-.1-.4-.2-.1-.1-.2-.2-.2-.4 0-.1 0-.2.1-.3.2-.3.5-.5 1-.6.5-.1.9-.2 1.4-.2.3 0 .7 0 1 .1.3.1.6.2.8.4.2.2.4.4.6.7.1.3.2.6.2 1v3.1c0 .2-.1.4-.2.5-.1.1-.3.2-.5.2H401.9s-.1 0-.2-.1c-.1 0-.1-.1-.2-.2s-.1-.2-.1-.3c-.2.2-.5.4-.8.5-.3.1-.7.2-1.1.2-.2 0-.5 0-.7-.1-.2-.1-.4-.2-.6-.4-.2-.2-.4-.4-.5-.6-.4-.2-.4-.5-.4-.8zm1.5 0c0 .3.1.5.3.6s.5.2.8.2c.3 0 .5 0 .7-.1.2-.1.4-.2.5-.4v-.7c-.1-.2-.3-.3-.5-.4-.2-.1-.5-.1-.7-.1-.3 0-.6.1-.8.2-.2.2-.3.4-.3.7zM404.3 243.3v-4.4c0-.2.1-.4.2-.5.1-.1.3-.2.6-.2.2 0 .4.1.5.2.1.1.2.3.2.5v.1c.2-.3.5-.5.8-.6.4-.2.7-.3 1.2-.3.6 0 1.1.2 1.4.5.3.3.5.8.5 1.4v3.4c0 .2-.1.4-.2.5-.1.1-.3.2-.5.2s-.4-.1-.5-.2c-.1-.1-.2-.3-.2-.5v-2.8c0-.4-.1-.7-.3-.8-.2-.2-.5-.3-.8-.3-.3 0-.5.1-.8.2-.2.1-.4.3-.6.5v3.2c0 .2-.1.4-.2.5-.1.1-.3.2-.5.2s-.4-.1-.5-.2c-.3-.2-.3-.4-.3-.6zM411 243c0-.2.1-.3.2-.4.1-.1.3-.2.4-.2.1 0 .2 0 .3.1.5.3 1.1.5 1.6.5.3 0 .6-.1.7-.2.2-.1.2-.3.2-.5 0-.1-.1-.2-.2-.3-.1-.1-.3-.1-.5-.2-.2 0-.4-.1-.6-.1-.2 0-.5-.1-.7-.2-.3-.1-.5-.2-.7-.3-.2-.1-.4-.3-.5-.5-.1-.2-.2-.5-.2-.8 0-.5.2-1 .6-1.3s1-.5 1.7-.5c.4 0 .8.1 1.3.2s.7.3.9.5c.1.1.1.2.1.3 0 .2-.1.3-.2.4-.1.1-.3.2-.4.2-.1 0-.2 0-.3-.1-.4-.2-.8-.3-1.3-.3-.3 0-.5.1-.7.2-.2.1-.3.2-.3.4 0 .1.1.2.2.3s.3.1.5.2.4.1.6.1c.2 0 .5.1.7.2.3.1.5.2.7.3s.4.3.5.5.2.5.2.8c0 .5-.2 1-.7 1.3-.4.4-1.1.5-1.8.5-.4 0-.9-.1-1.4-.2-.5-.1-.8-.3-1-.6.1-.1.1-.2.1-.3zM417.3 237.3c-.2-.2-.3-.4-.3-.6s.1-.5.3-.6c.2-.2.4-.3.6-.3.3 0 .5.1.6.3.2.2.3.4.3.6s-.1.5-.3.6c-.2.2-.4.3-.6.3l-.6-.3zm-.1 6v-4.4c0-.2.1-.4.2-.5.1-.1.3-.2.6-.2.2 0 .4.1.5.2.1.1.2.3.2.5v4.4c0 .2-.1.4-.2.5-.1.1-.3.2-.5.2s-.4-.1-.5-.2c-.2-.1-.3-.3-.3-.5zM420 241c0-.6.1-1.1.4-1.5.2-.5.6-.8 1.1-1.1.5-.3 1-.4 1.6-.4.6 0 1.2.1 1.6.4.5.3.8.6 1.1 1.1.2.5.4 1 .4 1.5 0 .4-.1.8-.2 1.2s-.3.7-.6 1-.6.5-1 .7c-.4.2-.8.2-1.3.2-.6 0-1.2-.1-1.6-.4-.5-.3-.8-.7-1.1-1.1s-.4-1-.4-1.6zm1.5 0c0 .5.1.9.4 1.2.3.3.6.5 1.1.5s.8-.2 1.1-.5c.3-.3.4-.7.4-1.2s-.1-.9-.4-1.2-.6-.5-1.1-.5-.8.2-1.1.5-.4.8-.4 1.2zM427.3 243.3v-4.4c0-.2.1-.4.2-.5.1-.1.3-.2.6-.2.2 0 .4.1.5.2.1.1.2.3.2.5v.1c.2-.3.5-.5.8-.6.4-.2.7-.3 1.2-.3.6 0 1.1.2 1.4.5.3.3.5.8.5 1.4v3.4c0 .2-.1.4-.2.5-.1.1-.3.2-.5.2s-.4-.1-.5-.2c-.1-.1-.2-.3-.2-.5v-2.8c0-.4-.1-.7-.3-.8-.2-.2-.5-.3-.8-.3-.3 0-.5.1-.8.2-.2.1-.4.3-.6.5v3.2c0 .2-.1.4-.2.5-.1.1-.3.2-.5.2s-.4-.1-.5-.2c-.2-.2-.3-.4-.3-.6zM434.2 243.1c0-.3.1-.5.3-.7.2-.2.4-.3.6-.3.3 0 .5.1.7.3.2.2.3.5.3.9s-.1.7-.2 1.1-.4.7-.7.9c-.1.1-.2.1-.3.1-.1 0-.2 0-.3-.1-.1-.1-.1-.2-.1-.3 0-.1 0-.2.1-.3.1-.1.3-.3.4-.5.1-.2.2-.3.2-.5h-.2c-.2 0-.4-.1-.5-.2-.2.1-.3-.1-.3-.4zM440.8 243.2v-6.3c0-.3.1-.5.3-.7.2-.2.4-.3.7-.3h.3c.7 0 1.2.3 1.4.8l1.6 4.1 1.6-4.1c.1-.2.3-.4.5-.6.2-.1.4-.2.7-.2h.7l.6.3c.2.2.2.4.2.6v6.3c0 .2-.1.4-.3.6-.2.2-.4.2-.6.2-.2 0-.4-.1-.6-.2-.2-.2-.2-.4-.2-.6v-4.8l-2.2 5.4c0 .1-.1.2-.2.2s-.2.1-.3.1c-.1 0-.2 0-.3-.1l-.2-.2-2.2-5.4v4.8c0 .2-.1.4-.3.6-.2.2-.4.2-.6.2-.2 0-.4-.1-.6-.2.1-.1 0-.3 0-.5zM451.2 242.3v-3.4c0-.2.1-.4.2-.5.1-.1.3-.2.6-.2.2 0 .4.1.5.2.1.1.2.3.2.5v2.8c0 .4.1.7.3.8.2.2.4.2.8.2.3 0 .5-.1.8-.2.2-.1.4-.3.6-.5v-3.3c0-.2.1-.4.2-.5.1-.1.3-.2.6-.2.2 0 .4.1.5.2.1.1.2.3.2.5v4.4c0 .2-.1.4-.2.5-.1.1-.3.2-.5.2s-.4-.1-.5-.2c-.1-.1-.2-.3-.2-.5-.2.3-.5.5-.9.6-.3.2-.7.2-1.2.2-.6 0-1.1-.2-1.4-.5s-.6-.5-.6-1.1zM457.9 243c0-.2.1-.3.2-.4.1-.1.3-.2.4-.2.1 0 .2 0 .3.1.5.3 1.1.5 1.6.5.3 0 .6-.1.7-.2.2-.1.2-.3.2-.5 0-.1-.1-.2-.2-.3-.1-.1-.3-.1-.5-.2-.2 0-.4-.1-.6-.1-.2 0-.5-.1-.7-.2-.3-.1-.5-.2-.7-.3-.2-.1-.4-.3-.5-.5-.1-.2-.2-.5-.2-.8 0-.5.2-1 .6-1.3s1-.5 1.7-.5c.4 0 .8.1 1.3.2s.7.3.9.5c.1.1.1.2.1.3 0 .2-.1.3-.2.4-.1.1-.3.2-.4.2-.1 0-.2 0-.3-.1-.4-.2-.8-.3-1.3-.3-.3 0-.5.1-.7.2-.2.1-.3.2-.3.4 0 .1.1.2.2.3s.3.1.5.2.4.1.6.1c.2 0 .5.1.7.2.3.1.5.2.7.3s.4.3.5.5.2.5.2.8c0 .5-.2 1-.7 1.3-.4.4-1.1.5-1.8.5-.4 0-.9-.1-1.4-.2-.5-.1-.8-.3-1-.6.1-.1.1-.2.1-.3zM463.7 241c0-.6.1-1.1.4-1.5.3-.5.6-.8 1.1-1.1.5-.3 1-.4 1.6-.4.6 0 1.2.2 1.7.5s.8.8 1 1.4c.1.4.2.7.2.9 0 .2-.1.4-.2.5-.1.1-.3.2-.5.2h-3.6c.1.4.2.7.5 1 .3.3.7.4 1.2.4.4 0 .8-.1 1.1-.3.1-.1.2-.1.3-.1.2 0 .3.1.5.2.1.1.2.3.2.4 0 .2-.1.3-.2.4l-.6.3c-.2.1-.5.1-.7.2-.2 0-.5.1-.7.1-.9 0-1.6-.3-2.2-.8-.8-.6-1.1-1.3-1.1-2.3zm1.6-.5h2.9c0-.1 0-.3-.1-.4-.1-.1-.1-.3-.2-.4-.1-.1-.3-.2-.4-.3-.2-.1-.4-.1-.6-.1-.2 0-.4 0-.6.1-.2.1-.3.2-.4.3-.1.1-.2.3-.3.4-.2.1-.3.3-.3.4zM470.9 242.3v-3.4c0-.2.1-.4.2-.5.1-.1.3-.2.6-.2.2 0 .4.1.5.2.1.1.2.3.2.5v2.8c0 .4.1.7.3.8.2.2.4.2.8.2.3 0 .5-.1.8-.2.2-.1.4-.3.6-.5v-3.3c0-.2.1-.4.2-.5.1-.1.3-.2.6-.2.2 0 .4.1.5.2.1.1.2.3.2.5v4.4c0 .2-.1.4-.2.5-.1.1-.3.2-.5.2s-.4-.1-.5-.2c-.1-.1-.2-.3-.2-.5-.2.3-.5.5-.9.6-.3.2-.7.2-1.2.2-.6 0-1.1-.2-1.4-.5s-.6-.5-.6-1.1zM477.9 243.3v-4.4c0-.2.1-.4.2-.5.1-.1.3-.2.6-.2.2 0 .4.1.5.2.1.1.2.3.2.5v.1c.1-.2.4-.4.8-.6.4-.2.7-.3 1.1-.3.4 0 .8.1 1 .3.3.2.5.4.6.8.2-.3.5-.5.8-.7.4-.2.8-.3 1.2-.3.5 0 1 .1 1.3.4.3.3.4.7.4 1.3v3.5c0 .2-.1.4-.2.5-.1.1-.3.2-.6.2-.2 0-.4-.1-.5-.2-.1-.1-.2-.3-.2-.5v-3c0-.3-.1-.5-.2-.7-.1-.2-.4-.2-.7-.2-.2 0-.5.1-.7.2-.2.1-.4.3-.5.5v3.2c0 .2-.1.4-.2.5-.1.1-.3.2-.6.2-.2 0-.4-.1-.5-.2-.1-.1-.2-.3-.2-.5v-3c0-.6-.3-.9-.9-.9-.2 0-.5.1-.7.2-.2.1-.4.3-.5.5v3.2c0 .2-.1.4-.2.5-.1.1-.3.2-.5.2s-.4-.1-.5-.2c-.2-.2-.3-.4-.3-.6z"/></g><g fill="#546E7A"><path d="M189.8 379.5v-8.1c0-.4.1-.7.4-.9.3-.3.6-.4.9-.4h5.4c.3 0 .5.1.7.3.2.2.3.4.3.7 0 .3-.1.5-.3.7-.2.2-.4.3-.7.3h-4.4v2.3h4.3c.3 0 .5.1.7.3s.3.4.3.7c0 .3-.1.5-.3.7s-.4.3-.7.3h-4.3v2.4h4.4c.3 0 .5.1.7.3.2.2.3.4.3.7 0 .3-.1.5-.3.7-.2.2-.4.3-.7.3h-5.4c-.3 0-.7-.1-.9-.4-.3-.2-.4-.5-.4-.9zM198.5 374c0-.3.1-.5.3-.7.2-.2.4-.3.7-.3.2 0 .4.1.6.2s.3.3.4.5l1.8 4.8 1.8-4.8c.1-.2.2-.3.4-.5s.4-.2.6-.2c.3 0 .6.1.7.3.2.2.3.4.3.7 0 .1 0 .2-.1.4l-2.3 5.6c-.1.3-.3.5-.6.7-.3.2-.5.3-.8.3-.3 0-.6-.1-.9-.3-.3-.2-.4-.4-.6-.7l-2.3-5.6c.1-.2 0-.3 0-.4zM207.1 376.9c0-.7.2-1.4.5-2 .3-.6.8-1.1 1.4-1.5.6-.4 1.3-.5 2.1-.5.9 0 1.6.2 2.3.7.6.5 1.1 1.1 1.4 1.9.2.5.2.9.2 1.2 0 .3-.1.5-.3.6-.2.2-.4.3-.7.3h-4.8c.1.5.3.9.7 1.3.4.3.9.5 1.5.5.5 0 1-.1 1.5-.4.1-.1.3-.1.4-.1.2 0 .4.1.6.2.2.2.3.4.3.6 0 .2-.1.4-.3.6-.2.2-.5.3-.8.4-.3.1-.6.2-1 .2-.3 0-.6.1-.9.1-1.2 0-2.2-.4-3-1.1-.7-.8-1.1-1.8-1.1-3zm2.1-.7h3.8c0-.2-.1-.4-.1-.6-.1-.2-.2-.4-.3-.5s-.3-.3-.6-.4c-.3-.1-.5-.2-.9-.2-.3 0-.6.1-.8.2-.2.1-.4.2-.6.4s-.3.4-.3.5c-.1.2-.2.4-.2.6zM216.6 379.9V374c0-.3.1-.5.3-.7.2-.2.4-.3.7-.3.3 0 .5.1.7.3.2.2.3.4.3.7v.1c.3-.3.7-.6 1.1-.9.5-.2 1-.3 1.6-.3.8 0 1.5.2 1.9.7.4.4.6 1 .6 1.8v4.6c0 .3-.1.5-.3.7-.2.2-.4.3-.7.3-.3 0-.5-.1-.7-.3-.2-.2-.3-.4-.3-.7v-3.8c0-.5-.1-.9-.4-1.1-.2-.2-.6-.3-1.1-.3-.4 0-.7.1-1 .3-.3.2-.6.4-.7.6v4.3c0 .3-.1.5-.3.7s-.4.3-.7.3c-.3 0-.5-.1-.7-.3-.2-.3-.3-.5-.3-.8zM225 373.9c0-.2.1-.4.3-.6s.4-.3.6-.3h.5v-1.2c0-.3.1-.5.3-.7s.4-.3.7-.3c.3 0 .5.1.7.3s.3.4.3.7v1.2h.8c.2 0 .4.1.6.3.2.2.3.4.3.6 0 .2-.1.4-.3.6s-.4.3-.6.3h-.8v3.5c0 .3.1.5.2.6.1.1.3.2.5.2h.2c.3 0 .5.1.7.2.2.2.2.4.2.6 0 .3-.1.5-.4.7-.2.2-.7.2-1.3.2-.7 0-1.3-.2-1.6-.5s-.6-.9-.6-1.6v-4h-.5c-.2 0-.5-.1-.6-.3-.1 0-.2-.2-.2-.5zM235.1 371.1c0-.3.1-.5.3-.7.2-.2.4-.3.7-.3h6.8c.3 0 .5.1.7.3s.3.4.3.7c0 .3-.1.5-.3.7-.2.2-.4.3-.7.3h-2.2v7.7c0 .3-.1.6-.3.8-.2.2-.5.3-.8.3-.3 0-.6-.1-.8-.3-.2-.2-.3-.5-.3-.8v-7.7h-2.2c-.3 0-.5-.1-.7-.3-.4-.2-.5-.4-.5-.7zM244.2 374c0-.3.1-.5.3-.7.2-.2.4-.3.7-.3.2 0 .4.1.6.2s.3.3.4.5l1.8 4.8 1.8-4.8c.1-.2.2-.4.4-.5.2-.1.4-.2.6-.2.3 0 .5.1.7.3.2.2.3.4.3.7 0 .1 0 .3-.1.4l-3.1 7.7c-.5 1.2-1.4 1.9-2.7 1.9-.4 0-.7-.1-.9-.2-.2-.2-.4-.4-.4-.7 0-.2.1-.5.3-.6.2-.2.4-.3.7-.3h.3c.4-.1.6-.3.8-.5l.3-.7-2.6-6.6c-.2-.2-.2-.3-.2-.4zM253.2 382.9V374c0-.3.1-.5.3-.7.2-.2.4-.3.7-.3.3 0 .5.1.7.3.2.2.3.4.3.7v.1c.6-.8 1.4-1.2 2.4-1.2s1.8.4 2.5 1.1.9 1.7.9 3-.3 2.3-.9 3c-.6.7-1.5 1.1-2.5 1.1s-1.8-.4-2.4-1.2v3c0 .3-.1.5-.3.7s-.4.3-.7.3c-.3 0-.5-.1-.7-.3-.2-.2-.3-.5-.3-.7zm2.1-4.6c.2.2.4.5.8.6.3.2.7.3 1 .3.6 0 1.1-.2 1.4-.6.4-.4.5-1 .5-1.6 0-.7-.2-1.2-.5-1.6s-.8-.6-1.4-.6c-.3 0-.7.1-1 .3-.3.2-.6.4-.8.6v2.6zM262.2 376.9c0-.7.2-1.4.5-2 .3-.6.8-1.1 1.4-1.5.6-.4 1.3-.5 2.1-.5.9 0 1.6.2 2.3.7.6.5 1.1 1.1 1.4 1.9.2.5.2.9.2 1.2 0 .3-.1.5-.3.6-.2.2-.4.3-.7.3h-4.8c.1.5.3.9.7 1.3.4.3.9.5 1.5.5.5 0 1-.1 1.5-.4.1-.1.3-.1.4-.1.2 0 .4.1.6.2.2.2.3.4.3.6 0 .2-.1.4-.3.6-.2.2-.5.3-.8.4-.3.1-.6.2-1 .2-.3 0-.6.1-.9.1-1.2 0-2.2-.4-3-1.1-.7-.8-1.1-1.8-1.1-3zm2.1-.7h3.8c0-.2-.1-.4-.1-.6-.1-.2-.2-.4-.3-.5s-.3-.3-.6-.4c-.3-.1-.5-.2-.9-.2-.3 0-.6.1-.8.2-.2.1-.4.2-.6.4s-.3.4-.3.5c-.1.2-.2.4-.2.6zM271.3 379.5c0-.2.1-.4.3-.6s.4-.2.6-.2c.2 0 .3 0 .4.1.7.4 1.4.6 2.1.6.4 0 .8-.1 1-.2.2-.2.3-.4.3-.6 0-.2-.1-.3-.2-.4l-.6-.3c-.3-.1-.5-.1-.9-.2-.3-.1-.6-.1-1-.2s-.7-.2-.9-.4c-.3-.2-.5-.4-.7-.7s-.3-.7-.3-1.1c0-.7.3-1.3.9-1.7.6-.5 1.3-.7 2.3-.7.6 0 1.1.1 1.7.3.6.2.9.4 1.1.7.1.1.1.3.1.4 0 .2-.1.4-.2.5-.2.2-.3.2-.6.2-.1 0-.3 0-.4-.1-.5-.3-1.1-.5-1.8-.5-.4 0-.7.1-.9.2s-.3.3-.3.5c0 .1.1.3.3.4.2.1.4.2.7.2.2.1.5.1.8.2.3 0 .6.1 1 .3.4.1.7.3.9.4s.5.4.6.7.2.7.2 1.1c0 .7-.3 1.3-.9 1.8s-1.4.7-2.5.7c-.6 0-1.2-.1-1.8-.3-.6-.2-1.1-.4-1.3-.8v-.3z"/></g><g fill="#546E7A"><path d="M381.7 279.3c0-.2.1-.4.2-.5.1-.1.3-.2.5-.2h5.1c.2 0 .4.1.5.2.1.1.2.3.2.5s-.1.4-.2.5c-.1.1-.3.2-.5.2h-1.7v5.7c0 .2-.1.4-.3.6-.2.2-.4.2-.6.2-.2 0-.4-.1-.6-.2-.2-.2-.2-.4-.2-.6V280h-1.7c-.2 0-.4-.1-.5-.2-.2-.1-.2-.3-.2-.5zM388.5 285.9v-4.4c0-.2.1-.4.2-.5.1-.1.3-.2.6-.2.2 0 .4.1.5.2.1.1.2.3.2.5v.1c.2-.3.4-.5.6-.6.2-.2.4-.2.7-.2.2 0 .4.1.5.2.1.1.2.3.2.4 0 .2-.1.4-.2.5-.1.1-.3.2-.5.2-.5.1-.9.3-1.2.6v3.1c0 .2-.1.4-.2.5-.1.1-.3.2-.5.2s-.4-.1-.5-.2c-.3 0-.4-.2-.4-.4zM392.6 284.8c0-.3 0-.5.1-.7.1-.2.2-.4.3-.5.1-.1.3-.3.5-.4.2-.1.4-.2.5-.2.2 0 .4-.1.6-.1.4 0 .7.1 1.1.2.3.1.6.3.8.5v-.8c0-.3-.1-.5-.3-.7-.2-.2-.5-.3-.9-.3-.5 0-.9.1-1.3.4-.1.1-.2.1-.3.1-.1 0-.3-.1-.4-.2-.1-.1-.2-.2-.2-.4 0-.1 0-.2.1-.3.2-.3.5-.5 1-.6.5-.1.9-.2 1.4-.2.3 0 .7 0 1 .1.3.1.6.2.8.4.2.2.4.4.6.7.1.3.2.6.2 1v3.1c0 .2-.1.4-.2.5-.1.1-.3.2-.5.2H397.2s-.1 0-.2-.1c-.1 0-.1-.1-.2-.2s-.1-.2-.1-.3c-.2.2-.5.4-.8.5-.3.1-.7.2-1.1.2-.2 0-.5 0-.7-.1-.2-.1-.4-.2-.6-.4-.2-.2-.4-.4-.5-.6-.4-.2-.4-.4-.4-.8zm1.5.1c0 .3.1.5.3.6s.5.2.8.2c.3 0 .5 0 .7-.1.2-.1.4-.2.5-.4v-.7c-.1-.2-.3-.3-.5-.4-.2-.1-.5-.1-.7-.1-.3 0-.6.1-.8.2-.2.2-.3.4-.3.7zM399.2 283.7c0-.9.2-1.7.7-2.2.5-.6 1.1-.8 1.9-.8.3 0 .7.1 1 .2.3.2.6.4.8.7v-2.3c0-.2.1-.4.2-.5.1-.1.3-.2.6-.2.2 0 .4.1.5.2.1.1.2.3.2.5v6.6c0 .2-.1.4-.2.5-.1.1-.3.2-.6.2-.2 0-.4-.1-.5-.2-.1-.1-.2-.3-.2-.5v-.1c-.5.6-1.1.9-1.8.9-.8 0-1.4-.3-1.9-.8s-.7-1.2-.7-2.2zm1.6 0c0 .5.1.9.4 1.2.3.3.6.5 1.1.5.3 0 .5-.1.8-.2.2-.1.4-.3.6-.5v-2.1c-.1-.2-.3-.3-.6-.5-.2-.1-.5-.2-.8-.2-.4 0-.8.2-1.1.5s-.4.8-.4 1.3zM406.8 279.9c-.2-.2-.3-.4-.3-.6s.1-.5.3-.6c.2-.2.4-.3.6-.3.3 0 .5.1.6.3.2.2.3.4.3.6s-.1.5-.3.6c-.2.2-.4.3-.6.3-.2 0-.4-.1-.6-.3zm-.1 6v-4.4c0-.2.1-.4.2-.5.1-.1.3-.2.6-.2.2 0 .4.1.5.2.1.1.2.3.2.5v4.4c0 .2-.1.4-.2.5-.1.1-.3.2-.5.2s-.4-.1-.5-.2c-.2-.1-.3-.3-.3-.5zM409.1 281.5c0-.2.1-.3.2-.5.1-.1.3-.2.5-.2h.4v-.9c0-.2.1-.4.2-.5.1-.1.3-.2.6-.2.2 0 .4.1.5.2.1.1.2.3.2.5v.9h.6c.2 0 .3.1.5.2.1.1.2.3.2.5s-.1.3-.2.5c-.1.1-.3.2-.5.2h-.6v2.6c0 .2.1.4.2.5.1.1.2.2.4.2h.1c.2 0 .4.1.5.2s.2.3.2.5-.1.4-.3.5c-.2.1-.5.2-1 .2s-.9-.1-1.2-.4c-.3-.3-.4-.7-.4-1.2v-3h-.4c-.2 0-.3-.1-.5-.2s-.2-.4-.2-.6zM414.2 279.9c-.2-.2-.3-.4-.3-.6s.1-.5.3-.6c.2-.2.4-.3.6-.3.3 0 .5.1.6.3.2.2.3.4.3.6s-.1.5-.3.6c-.2.2-.4.3-.6.3-.2 0-.5-.1-.6-.3zm-.1 6v-4.4c0-.2.1-.4.2-.5.1-.1.3-.2.6-.2.2 0 .4.1.5.2.1.1.2.3.2.5v4.4c0 .2-.1.4-.2.5-.1.1-.3.2-.5.2s-.4-.1-.5-.2c-.3-.1-.3-.3-.3-.5zM416.8 283.7c0-.6.1-1.1.4-1.5.2-.5.6-.8 1.1-1.1.5-.3 1-.4 1.6-.4.6 0 1.2.1 1.6.4.5.3.8.6 1.1 1.1.2.5.4 1 .4 1.5 0 .4-.1.8-.2 1.2s-.3.7-.6 1-.6.5-1 .7c-.4.2-.8.2-1.3.2-.6 0-1.2-.1-1.6-.4-.5-.3-.8-.7-1.1-1.1s-.4-1-.4-1.6zm1.6 0c0 .5.1.9.4 1.2.3.3.6.5 1.1.5s.8-.2 1.1-.5c.3-.3.4-.7.4-1.2s-.1-.9-.4-1.2-.6-.5-1.1-.5-.8.2-1.1.5-.4.7-.4 1.2zM424.2 285.9v-4.4c0-.2.1-.4.2-.5.1-.1.3-.2.6-.2.2 0 .4.1.5.2.1.1.2.3.2.5v.1c.2-.3.5-.5.8-.6.4-.2.7-.3 1.2-.3.6 0 1.1.2 1.4.5.3.3.5.8.5 1.4v3.4c0 .2-.1.4-.2.5-.1.1-.3.2-.5.2s-.4-.1-.5-.2c-.1-.1-.2-.3-.2-.5v-2.8c0-.4-.1-.7-.3-.8-.2-.2-.5-.3-.8-.3-.3 0-.5.1-.8.2-.2.1-.4.3-.6.5v3.2c0 .2-.1.4-.2.5-.1.1-.3.2-.5.2s-.4-.1-.5-.2c-.2-.2-.3-.4-.3-.6zM430.9 284.8c0-.3 0-.5.1-.7.1-.2.2-.4.3-.5.1-.1.3-.3.5-.4.2-.1.4-.2.5-.2.2 0 .4-.1.6-.1.4 0 .7.1 1.1.2.3.1.6.3.8.5v-.8c0-.3-.1-.5-.3-.7-.2-.2-.5-.3-.9-.3-.5 0-.9.1-1.3.4-.1.1-.2.1-.3.1-.1 0-.3-.1-.4-.2-.1-.1-.2-.2-.2-.4 0-.1 0-.2.1-.3.2-.3.5-.5 1-.6.5-.1.9-.2 1.4-.2.3 0 .7 0 1 .1.3.1.6.2.8.4.2.2.4.4.6.7.1.3.2.6.2 1v3.1c0 .2-.1.4-.2.5-.1.1-.3.2-.5.2H435.5s-.1 0-.2-.1c-.1 0-.1-.1-.2-.2s-.1-.2-.1-.3c-.2.2-.5.4-.8.5-.3.1-.7.2-1.1.2-.2 0-.5 0-.7-.1-.2-.1-.4-.2-.6-.4-.2-.2-.4-.4-.5-.6-.3-.2-.4-.4-.4-.8zm1.5.1c0 .3.1.5.3.6s.5.2.8.2c.3 0 .5 0 .7-.1.2-.1.4-.2.5-.4v-.7c-.1-.2-.3-.3-.5-.4-.2-.1-.5-.1-.7-.1-.3 0-.6.1-.8.2-.2.2-.3.4-.3.7zM437.9 285.9v-6.7c0-.2.1-.4.2-.5.1-.1.3-.2.6-.2.2 0 .4.1.5.2.1.1.2.3.2.5v6.7c0 .2-.1.4-.2.5-.1.1-.3.2-.5.2s-.4-.1-.5-.2c-.2-.1-.3-.3-.3-.5zM440.9 285.8c0-.3.1-.5.3-.7.2-.2.4-.3.6-.3.3 0 .5.1.7.3.2.2.3.5.3.9s-.1.7-.2 1.1-.4.7-.7.9c-.1.1-.2.1-.3.1-.1 0-.2 0-.3-.1-.1-.1-.1-.2-.1-.3 0-.1 0-.2.1-.3.1-.1.3-.3.4-.5.1-.2.2-.3.2-.5h-.2c-.2 0-.4-.1-.5-.2-.3 0-.3-.2-.3-.4zM447.1 282.6c0-.8.2-1.5.6-2.2s.9-1.1 1.5-1.5c.6-.3 1.4-.5 2.1-.5 1.2 0 2.1.4 2.8 1.2.1.1.2.3.2.5s-.1.4-.2.5c-.2.2-.3.2-.6.2-.2 0-.4-.1-.6-.2-.5-.5-1-.7-1.7-.7s-1.3.2-1.8.7c-.5.5-.7 1.1-.7 1.9s.2 1.4.7 1.9c.5.5 1.1.7 1.8.7.3 0 .7-.1 1-.2.3-.1.6-.3.7-.4v-1h-1.5c-.2 0-.4-.1-.5-.2-.1-.1-.2-.3-.2-.5s.1-.4.2-.5c.1-.1.3-.2.5-.2h2.2c.3 0 .5.1.7.3.2.2.3.4.3.7v1.4c0 .3-.1.5-.2.8-.1.2-.3.5-.5.6-.2.2-.5.3-.8.5l-.9.3c-.3.1-.6.1-1 .1-.6 0-1.1-.1-1.7-.3-.5-.2-1-.5-1.4-.8s-.7-.8-.9-1.3c0-.6-.1-1.2-.1-1.8zM455.8 284.8c0-.3 0-.5.1-.7.1-.2.2-.4.3-.5.1-.1.3-.3.5-.4.2-.1.4-.2.5-.2.2 0 .4-.1.6-.1.4 0 .7.1 1.1.2.3.1.6.3.8.5v-.8c0-.3-.1-.5-.3-.7-.2-.2-.5-.3-.9-.3-.5 0-.9.1-1.3.4-.1.1-.2.1-.3.1-.1 0-.3-.1-.4-.2-.1-.1-.2-.2-.2-.4 0-.1 0-.2.1-.3.2-.3.5-.5 1-.6.5-.1.9-.2 1.4-.2.3 0 .7 0 1 .1.3.1.6.2.8.4.2.2.4.4.6.7.1.3.2.6.2 1v3.1c0 .2-.1.4-.2.5-.1.1-.3.2-.5.2H460.4s-.1 0-.2-.1c-.1 0-.1-.1-.2-.2s-.1-.2-.1-.3c-.2.2-.5.4-.8.5-.3.1-.7.2-1.1.2-.2 0-.5 0-.7-.1-.2-.1-.4-.2-.6-.4-.2-.2-.4-.4-.5-.6-.3-.2-.4-.4-.4-.8zm1.6.1c0 .3.1.5.3.6s.5.2.8.2c.3 0 .5 0 .7-.1.2-.1.4-.2.5-.4v-.7c-.1-.2-.3-.3-.5-.4-.2-.1-.5-.1-.7-.1-.3 0-.6.1-.8.2-.2.2-.3.4-.3.7zM462.9 285.9v-4.4c0-.2.1-.4.2-.5.1-.1.3-.2.6-.2.2 0 .4.1.5.2.1.1.2.3.2.5v.1c.2-.3.4-.5.6-.6.2-.2.4-.2.7-.2.2 0 .4.1.5.2.1.1.2.3.2.4 0 .2-.1.4-.2.5-.1.1-.3.2-.5.2-.5.1-.9.3-1.2.6v3.1c0 .2-.1.4-.2.5-.1.1-.3.2-.5.2s-.4-.1-.5-.2c-.4 0-.4-.2-.4-.4zM466.9 283.7c0-.9.2-1.7.7-2.2.5-.6 1.1-.8 1.9-.8.3 0 .7.1 1 .2.3.2.6.4.8.7v-2.3c0-.2.1-.4.2-.5.1-.1.3-.2.6-.2.2 0 .4.1.5.2.1.1.2.3.2.5v6.6c0 .2-.1.4-.2.5-.1.1-.3.2-.6.2-.2 0-.4-.1-.5-.2-.1-.1-.2-.3-.2-.5v-.1c-.5.6-1.1.9-1.8.9-.8 0-1.4-.3-1.9-.8s-.7-1.2-.7-2.2zm1.6 0c0 .5.1.9.4 1.2.3.3.6.5 1.1.5.3 0 .5-.1.8-.2.2-.1.4-.3.6-.5v-2.1c-.1-.2-.3-.3-.6-.5-.2-.1-.5-.2-.8-.2-.4 0-.8.2-1.1.5s-.4.8-.4 1.3zM474.1 283.7c0-.6.1-1.1.4-1.5.3-.5.6-.8 1.1-1.1.5-.3 1-.4 1.6-.4.6 0 1.2.2 1.7.5s.8.8 1 1.4c.1.4.2.7.2.9 0 .2-.1.4-.2.5-.1.1-.3.2-.5.2h-3.6c.1.4.2.7.5 1 .3.3.7.4 1.2.4.4 0 .8-.1 1.1-.3.1-.1.2-.1.3-.1.2 0 .3.1.5.2.1.1.2.3.2.4 0 .2-.1.3-.2.4l-.6.3c-.2.1-.5.1-.7.2-.2 0-.5.1-.7.1-.9 0-1.6-.3-2.2-.8-.8-.6-1.1-1.4-1.1-2.3zm1.5-.5h2.9c0-.1 0-.3-.1-.4-.1-.1-.1-.3-.2-.4-.1-.1-.3-.2-.4-.3-.2-.1-.4-.1-.6-.1-.2 0-.4 0-.6.1-.2.1-.3.2-.4.3-.1.1-.2.3-.3.4-.2.1-.2.2-.3.4zM481.2 285.9v-4.4c0-.2.1-.4.2-.5.1-.1.3-.2.6-.2.2 0 .4.1.5.2.1.1.2.3.2.5v.1c.2-.3.5-.5.8-.6.4-.2.7-.3 1.2-.3.6 0 1.1.2 1.4.5.3.3.5.8.5 1.4v3.4c0 .2-.1.4-.2.5-.1.1-.3.2-.5.2s-.4-.1-.5-.2c-.1-.1-.2-.3-.2-.5v-2.8c0-.4-.1-.7-.3-.8-.2-.2-.5-.3-.8-.3-.3 0-.5.1-.8.2-.2.1-.4.3-.6.5v3.2c0 .2-.1.4-.2.5-.1.1-.3.2-.5.2s-.4-.1-.5-.2c-.2-.2-.3-.4-.3-.6z"/></g><g fill="#546E7A"><path d="M189.3 285.7c0-.1 0-.2.1-.3.1-.1.2-.2.3-.2.1 0 .2 0 .3.1.7.6 1.4.9 2.2.9.3 0 .6 0 .9-.1.3-.1.5-.2.6-.3s.2-.3.3-.4.1-.3.1-.5-.1-.4-.2-.6c-.1-.2-.3-.3-.4-.4s-.4-.2-.6-.3c-.2-.1-.5-.1-.8-.2-.3-.1-.5-.2-.8-.2s-.5-.2-.7-.3-.4-.2-.6-.4c-.2-.2-.3-.3-.4-.6s-.2-.5-.2-.8c0-.7.3-1.2.8-1.6.5-.4 1.2-.6 2-.6 1 0 1.9.3 2.6.9.1.1.2.2.2.4 0 .1 0 .2-.1.3-.1.1-.2.1-.3.1-.1 0-.2 0-.3-.1-.6-.5-1.3-.7-2.1-.7-.5 0-.9.1-1.2.4-.3.2-.5.5-.5.9 0 .2.1.4.2.5l.4.4s.4.2.6.2c.2.1.5.1.8.2.3.1.5.2.8.2s.5.2.7.3.4.3.6.4c.2.2.3.4.4.6.1.3.2.5.2.9 0 .2 0 .5-.1.7l-.3.6c-.2.2-.3.4-.6.5-.2.1-.5.3-.8.4s-.7.1-1.1.1c-1.1 0-2-.3-2.8-1-.2-.1-.2-.2-.2-.4zM195.7 281.5c0-.1 0-.2.1-.3.1-.1.2-.1.3-.1h.7v-1.2c0-.1 0-.2.1-.3.1-.1.2-.1.3-.1.1 0 .2 0 .3.1.1.1.1.2.1.3v1.2h.9c.1 0 .2 0 .3.1.1.1.1.2.1.3 0 .1 0 .2-.1.3-.1.1-.2.1-.3.1h-.9v3.6c0 .2 0 .4.2.5s.2.2.4.2h.4c.1 0 .2 0 .3.1.1.1.1.2.1.3 0 .1 0 .2-.1.2-.1.1-.1.1-.3.2-.1 0-.2.1-.3.1h-.4c-.4 0-.7-.1-1-.4-.2-.2-.3-.6-.3-1V282h-.7c-.1 0-.2 0-.3-.1s.1-.2.1-.4zM199.5 281.5c0-.1 0-.2.1-.3.1-.1.2-.1.3-.1.2 0 .3.1.4.3l1.9 4.6 1.8-4.6c0-.1.1-.2.2-.2s.2-.1.3-.1c.1 0 .2 0 .3.1.1.1.1.2.1.3v.2l-2.7 6.5c-.3.8-.9 1.2-1.7 1.2h-.4c-.1 0-.1-.1-.2-.1 0-.1-.1-.1-.1-.2s0-.2.1-.3c.1-.1.2-.1.3-.1H200.5c.2 0 .3 0 .4-.1.1-.1.3-.3.4-.5l.4-.9-2.2-5.3v-.4zM206.2 286.6v-7.3c0-.1 0-.2.1-.3.1-.1.2-.1.3-.1.1 0 .2 0 .3.1.1.1.1.2.1.3v7.3c0 .1 0 .2-.1.3-.1.1-.2.1-.3.1-.1 0-.2 0-.3-.1 0-.1-.1-.2-.1-.3zM208.7 284c0-.6.1-1.1.4-1.5.2-.5.6-.8 1-1.1.4-.3.9-.4 1.5-.4.7 0 1.3.2 1.8.6.5.4.8 1 .9 1.6.1.3.1.5.1.6 0 .1 0 .2-.1.3-.1.1-.2.1-.3.1h-4.2c0 .6.2 1 .6 1.4.4.4.9.6 1.5.6s1.1-.2 1.6-.5c.1 0 .1-.1.2-.1s.2 0 .2.1c.1.1.1.2.1.3 0 .1-.1.3-.2.4l-.6.3c-.2.1-.5.1-.7.2-.2 0-.5.1-.6.1-.9 0-1.6-.3-2.1-.9-.8-.4-1.1-1.1-1.1-2.1zm.9-.3h3.8c0-.2 0-.5-.1-.7l-.3-.6c-.1-.2-.3-.4-.6-.5-.3-.1-.5-.2-.9-.2-.3 0-.6.1-.8.2-.2.1-.4.3-.6.5-.2.2-.3.4-.4.6 0 .2-.1.5-.1.7z"/></g><g fill="#546E7A"><path d="M189.7 441.1v-6.6c0-.2.1-.4.2-.5s.3-.2.5-.2h2.8c.7 0 1.2.2 1.6.6s.6.9.6 1.5c0 .5-.1.9-.4 1.2-.3.3-.6.5-1 .6.4.1.8.3 1.1.7.3.4.5.8.5 1.3 0 .7-.2 1.2-.6 1.6-.4.4-1 .6-1.7.6h-2.9c-.2 0-.4-.1-.5-.2-.2-.3-.2-.4-.2-.6zm1-3.9h2.4c.4 0 .8-.1 1-.4.2-.2.4-.5.4-.9s-.1-.7-.4-.9c-.2-.2-.6-.4-1-.4h-2.4v2.6zm0 3.7h2.5c.5 0 .8-.1 1.1-.4s.4-.6.4-1-.1-.7-.4-1c-.3-.3-.6-.4-1.1-.4h-2.5v2.8zM197.3 441.4v-5.1c0-.1 0-.2.1-.3.1-.1.2-.1.3-.1.1 0 .2 0 .3.1.1.1.1.2.1.3v.6c.5-.7 1.1-1 1.6-1 .1 0 .2 0 .3.1.1.1.1.2.1.3 0 .1 0 .2-.1.3-.1.1-.2.1-.3.2-.7 0-1.2.3-1.5.9v3.7c0 .1 0 .2-.1.3s-.2.1-.3.1c-.1 0-.2-.1-.3-.1-.2 0-.2-.1-.2-.3zM201.4 435c-.1-.1-.2-.3-.2-.4 0-.2.1-.3.2-.4.1-.1.3-.2.4-.2.2 0 .3.1.4.2.1.1.2.3.2.4 0 .2-.1.3-.2.4-.1.1-.3.2-.4.2-.1 0-.3-.1-.4-.2zm0 6.4v-5.1c0-.1 0-.2.1-.3.1-.1.2-.1.3-.1.1 0 .2 0 .3.1.1.1.1.2.1.3v5.1c0 .1 0 .2-.1.3s-.2.1-.3.1c-.1 0-.2 0-.3-.1-.1 0-.1-.1-.1-.3zM203.8 438.9c0-.9.2-1.7.7-2.2s1.1-.8 1.9-.8c.4 0 .8.1 1.1.3.3.2.6.4.9.8v-2.7c0-.1 0-.2.1-.3.1-.1.2-.1.3-.1.1 0 .2 0 .3.1s.1.2.1.3v7.3c0 .1 0 .2-.1.3-.1.1-.2.1-.3.1-.1 0-.2 0-.3-.1-.1-.1-.1-.2-.1-.3v-.5c-.2.3-.5.5-.9.7-.3.2-.7.3-1.1.3-.8 0-1.4-.3-1.9-.8s-.7-1.5-.7-2.4zm1.5-1.6c-.3.4-.5 1-.5 1.6 0 .7.2 1.2.5 1.6.3.4.8.6 1.4.6.4 0 .7-.1 1-.3.3-.2.6-.4.7-.6v-2.6c-.2-.3-.4-.5-.7-.7s-.7-.3-1-.3c-.6 0-1.1.3-1.4.7zM210.9 440c0-.3.1-.6.2-.8.1-.3.3-.5.5-.6.2-.2.4-.3.7-.3s.5-.1.7-.1c.8 0 1.5.3 1.9.8v-1c0-.4-.1-.7-.4-.9-.3-.2-.6-.3-1.1-.3-.6 0-1.1.2-1.5.6-.1.1-.2.1-.3.1-.1 0-.2 0-.3-.1-.1-.1-.1-.2-.1-.3 0-.1 0-.2.1-.3.6-.5 1.3-.8 2.2-.8.3 0 .6 0 .9.1.3.1.5.2.7.3.2.2.4.4.5.6.1.3.2.6.2.9v3.6c0 .1 0 .2-.1.3-.1.1-.2.1-.3.1-.1 0-.2 0-.3-.1-.1-.1-.1-.2-.1-.3v-.3c-.5.5-1.1.8-1.9.8-.3 0-.7-.1-1-.2-.3-.1-.6-.4-.8-.7-.3-.3-.4-.7-.4-1.1zm.9 0c0 .4.1.7.4.9.3.2.6.4 1 .4.3 0 .6-.1.9-.2s.5-.3.7-.5v-1.1c-.2-.2-.4-.4-.7-.5-.3-.1-.6-.2-.9-.2-.4 0-.8.1-1 .4-.3.2-.4.5-.4.8zM217.6 441.4v-7.3c0-.1 0-.2.1-.3.1-.1.2-.1.3-.1.1 0 .2 0 .3.1s.1.2.1.3v7.3c0 .1 0 .2-.1.3s-.2.1-.3.1c-.1 0-.2 0-.3-.1 0 0-.1-.1-.1-.3zM223.3 440.6c0-.1 0-.2.1-.3.1-.1.2-.2.3-.2.1 0 .2 0 .3.1.7.6 1.4.9 2.2.9.3 0 .6 0 .9-.1.3-.1.5-.2.6-.3.1-.1.2-.3.3-.4s.1-.3.1-.5-.1-.4-.2-.6c-.1-.2-.3-.3-.4-.4s-.4-.2-.6-.3c-.2-.1-.5-.1-.8-.2-.3-.1-.5-.2-.8-.2-.3-.1-.5-.2-.7-.3s-.4-.2-.6-.4c-.2-.2-.3-.3-.4-.6s-.2-.5-.2-.8c0-.7.3-1.2.8-1.6.5-.4 1.2-.6 2-.6 1 0 1.9.3 2.6.9.1.1.2.2.2.4 0 .1 0 .2-.1.3-.1.1-.2.1-.3.1-.1 0-.2 0-.3-.1-.6-.5-1.3-.7-2.1-.7-.5 0-.9.1-1.2.4-.3.2-.5.5-.5.9 0 .2.1.4.2.5l.4.4s.4.2.6.2c.2.1.5.1.8.2.3.1.5.2.8.2.3.1.5.2.7.3s.4.3.6.4c.2.2.3.4.4.6.1.3.2.5.2.9 0 .2 0 .5-.1.7l-.3.6c-.2.2-.3.4-.6.5-.2.1-.5.3-.8.4s-.7.1-1.1.1c-1.1 0-2-.3-2.8-1-.1-.1-.2-.3-.2-.4zM230.8 441.4v-7.3c0-.1 0-.2.1-.3.1-.1.2-.1.3-.1.1 0 .2 0 .3.1s.1.2.1.3v2.7c.2-.3.5-.5.9-.7.4-.2.8-.3 1.2-.3 1.2 0 1.8.6 1.8 1.9v3.7c0 .1 0 .2-.1.3-.1.1-.2.1-.3.1-.1 0-.2 0-.3-.1-.1-.1-.1-.2-.1-.3V438c0-.5-.1-.8-.3-1-.2-.2-.5-.3-1-.3-.3 0-.7.1-1 .3-.3.2-.6.4-.7.6v3.9c0 .1 0 .2-.1.3s-.2.1-.3.1c-.1 0-.2 0-.3-.1-.1-.1-.2-.2-.2-.4zM237.6 440.4c-.2-.5-.3-1-.3-1.5s.1-1.1.3-1.5c.2-.5.6-.8 1-1.1.4-.3.9-.4 1.5-.4s1.1.1 1.5.4c.4.3.8.6 1 1.1s.3 1 .3 1.5-.1 1.1-.3 1.5c-.2.5-.6.8-1 1.1-.4.3-.9.4-1.5.4s-1.1-.1-1.5-.4-.8-.6-1-1.1zm.6-1.5c0 .6.2 1.2.5 1.6.3.4.8.7 1.4.7.4 0 .7-.1 1-.3.3-.2.5-.5.7-.8s.2-.7.2-1.1c0-.4-.1-.8-.2-1.1s-.4-.6-.7-.8c-.3-.2-.6-.3-1-.3s-.7.1-1 .3c-.3.2-.5.5-.7.8-.2.2-.2.6-.2 1zM243.9 436.3c0-.1 0-.2.1-.3.1-.1.2-.1.3-.1.1 0 .2 0 .3.1l.2.2 1.3 4.4 1.5-4.4c.1-.2.2-.3.5-.3.1 0 .2 0 .3.1l.2.2 1.5 4.4 1.4-4.4c0-.1.1-.2.2-.2.1-.1.2-.1.3-.1.1 0 .2 0 .3.1s.1.2.1.3v.1l-1.6 5c0 .1-.1.2-.2.3-.1.1-.2.1-.3.1-.1 0-.2 0-.3-.1s-.2-.2-.2-.3l-1.4-4.3-1.4 4.3c0 .1-.1.2-.2.3s-.2.1-.4.1c-.1 0-.2 0-.3-.1-.1-.1-.2-.2-.2-.3l-1.6-5c-.4 0-.4 0-.4-.1zM253.2 438.9c0-.6.1-1.1.4-1.5.2-.5.6-.8 1-1.1.4-.3.9-.4 1.5-.4.7 0 1.3.2 1.8.6.5.4.8 1 .9 1.6.1.3.1.5.1.6 0 .1 0 .2-.1.3-.1.1-.2.1-.3.1h-4.2c0 .6.2 1 .6 1.4.4.4.9.6 1.5.6s1.1-.2 1.6-.5c.1 0 .1-.1.2-.1s.2 0 .2.1c.1.1.1.2.1.3 0 .1-.1.3-.2.4l-.6.3c-.2.1-.5.1-.7.2-.2 0-.5.1-.6.1-.9 0-1.6-.3-2.1-.9-.9-.5-1.1-1.2-1.1-2.1zm.9-.4h3.8c0-.2 0-.5-.1-.7l-.3-.6c-.1-.2-.3-.4-.6-.5s-.5-.2-.9-.2c-.3 0-.6.1-.8.2-.2.1-.4.3-.6.5-.2.2-.3.4-.4.6 0 .3-.1.5-.1.7zM260.4 441.4v-5.1c0-.1 0-.2.1-.3.1-.1.2-.1.3-.1.1 0 .2 0 .3.1.1.1.1.2.1.3v.6c.5-.7 1.1-1 1.6-1 .1 0 .2 0 .3.1.1.1.1.2.1.3 0 .1 0 .2-.1.3-.1.1-.2.1-.3.2-.7 0-1.2.3-1.5.9v3.7c0 .1 0 .2-.1.3s-.2.1-.3.1c-.1 0-.2-.1-.3-.1-.2 0-.2-.1-.2-.3z"/></g><g fill="#546E7A"><path d="M189.7 487.6v-6.9c0-.2.1-.4.2-.5.1-.1.3-.2.5-.2h2.5c.7 0 1.3.2 1.8.7.5.4.7 1 .7 1.8 0 .7-.2 1.2-.6 1.7-.4.4-.9.6-1.5.7l1.7 2.6c0 .1.1.2.1.3 0 .1 0 .2-.1.3s-.2.1-.3.1c-.2 0-.3-.1-.4-.2l-2-3h-1.6v2.8c0 .1 0 .3-.1.3-.1.1-.2.1-.4.1-.1 0-.3 0-.3-.1-.2-.3-.2-.4-.2-.5zm1-3.7h2.1c.5 0 .9-.1 1.2-.4s.4-.7.4-1.1-.1-.8-.4-1.1-.7-.4-1.2-.4h-2.1v3zM196.3 485.1c0-.6.1-1.1.4-1.5s.6-.8 1-1.1c.4-.3.9-.4 1.5-.4.7 0 1.3.2 1.8.6.5.4.8 1 .9 1.6.1.3.1.5.1.6 0 .1 0 .2-.1.3-.1.1-.2.1-.3.1h-4.2c0 .6.2 1 .6 1.4.4.4.9.6 1.5.6s1.1-.2 1.6-.5c.1 0 .1-.1.2-.1s.2 0 .2.1c.1.1.1.2.1.3 0 .1-.1.3-.2.4l-.6.3c-.2.1-.5.1-.7.2-.2 0-.5.1-.6.1-.9 0-1.6-.3-2.1-.9-.8-.5-1.1-1.2-1.1-2.1zm1-.4h3.8c0-.2 0-.5-.1-.7l-.3-.6c-.1-.2-.3-.4-.6-.5-.3-.1-.5-.2-.9-.2-.3 0-.6.1-.8.2-.2.1-.4.3-.6.5-.2.2-.3.4-.4.6-.1.3-.1.5-.1.7zM203.2 485.1c0-.6.1-1.1.4-1.5.2-.5.6-.8 1-1.1.4-.3.9-.4 1.5-.4.8 0 1.4.3 1.9.8.1.1.1.2.1.3 0 .1 0 .2-.1.3-.1.1-.2.1-.3.1-.1 0-.2 0-.3-.1-.3-.3-.7-.5-1.2-.5-.6 0-1.1.2-1.5.6-.4.4-.5 1-.5 1.6 0 .7.2 1.2.5 1.6s.9.6 1.5.6c.5 0 .9-.2 1.2-.5.1-.1.2-.1.3-.1.1 0 .2 0 .3.1.1.1.1.2.1.3 0 .1 0 .2-.1.3-.5.5-1.1.8-1.9.8-.6 0-1.1-.1-1.5-.4s-.8-.6-1-1.1c-.3-.6-.4-1.1-.4-1.7zM209.3 485.1c0-.6.1-1.1.4-1.5s.6-.8 1-1.1c.4-.3.9-.4 1.5-.4.7 0 1.3.2 1.8.6.5.4.8 1 .9 1.6.1.3.1.5.1.6 0 .1 0 .2-.1.3-.1.1-.2.1-.3.1h-4.2c0 .6.2 1 .6 1.4.4.4.9.6 1.5.6s1.1-.2 1.6-.5c.1 0 .1-.1.2-.1s.2 0 .2.1c.1.1.1.2.1.3 0 .1-.1.3-.2.4l-.6.3c-.2.1-.5.1-.7.2-.2 0-.5.1-.6.1-.9 0-1.6-.3-2.1-.9-.8-.5-1.1-1.2-1.1-2.1zm.9-.4h3.8c0-.2 0-.5-.1-.7l-.3-.6c-.1-.2-.3-.4-.6-.5-.3-.1-.5-.2-.9-.2-.3 0-.6.1-.8.2-.2.1-.4.3-.6.5-.2.2-.3.4-.4.6 0 .3-.1.5-.1.7zM216.5 489.9v-7.3c0-.1 0-.2.1-.3.1-.1.2-.1.3-.1.1 0 .2 0 .3.1.1.1.1.2.1.3v.5c.2-.3.5-.6.8-.7.3-.2.7-.3 1.1-.3.8 0 1.4.3 1.9.8s.7 1.3.7 2.2c0 .9-.2 1.7-.7 2.2s-1.1.8-1.9.8c-.4 0-.8-.1-1.1-.3-.3-.2-.6-.4-.9-.8v2.7c0 .1 0 .2-.1.3s-.2.1-.3.1c-.1 0-.2 0-.3-.1.1.1 0 0 0-.1zm.9-3.5c.2.3.4.5.7.7.3.2.7.3 1 .3.6 0 1-.2 1.4-.6.3-.4.5-1 .5-1.6 0-.7-.2-1.2-.5-1.6-.3-.4-.8-.6-1.4-.6-.3 0-.7.1-1 .3-.3.2-.6.4-.7.7v2.4zM222.6 482.6c0-.1 0-.2.1-.3.1-.1.2-.1.3-.1h.7V481c0-.1 0-.2.1-.3.1-.1.2-.1.3-.1.1 0 .2 0 .3.1.1.1.1.2.1.3v1.2h.9c.1 0 .2 0 .3.1.1.1.1.2.1.3 0 .1 0 .2-.1.3-.1.1-.2.1-.3.1h-.9v3.6c0 .2 0 .4.2.5s.2.2.4.2h.4c.1 0 .2 0 .3.1.1.1.1.2.1.3 0 .1 0 .2-.1.2-.1.1-.1.1-.3.2s-.2.1-.3.1h-.4c-.4 0-.7-.1-1-.4-.2-.2-.3-.6-.3-1V483h-.5c-.1 0-.2 0-.3-.1 0-.1-.1-.2-.1-.3zM227.2 481.2c-.1-.1-.2-.3-.2-.4 0-.2.1-.3.2-.4.1-.1.3-.2.4-.2.2 0 .3.1.4.2.1.1.2.3.2.4 0 .2-.1.3-.2.4-.1.1-.3.2-.4.2-.2 0-.3-.1-.4-.2zm-.1 6.4v-5.1c0-.1 0-.2.1-.3.1-.1.2-.1.3-.1.1 0 .2 0 .3.1.1.1.1.2.1.3v5.1c0 .1 0 .2-.1.3s-.2.1-.3.1c-.1 0-.2 0-.3-.1 0 0-.1-.1-.1-.3zM230 486.6c-.2-.5-.3-1-.3-1.5s.1-1.1.3-1.5c.2-.5.6-.8 1-1.1.4-.3.9-.4 1.5-.4s1.1.1 1.5.4c.4.3.8.6 1 1.1.2.5.3 1 .3 1.5s-.1 1.1-.3 1.5c-.2.5-.6.8-1 1.1-.4.3-.9.4-1.5.4s-1.1-.1-1.5-.4-.8-.6-1-1.1zm.5-1.5c0 .6.2 1.2.5 1.6s.8.7 1.4.7c.4 0 .7-.1 1-.3.3-.2.5-.5.7-.8s.2-.7.2-1.1c0-.4-.1-.8-.2-1.1-.1-.3-.4-.6-.7-.8-.3-.2-.6-.3-1-.3s-.7.1-1 .3c-.3.2-.5.5-.7.8-.1.2-.2.6-.2 1zM236.9 487.6v-5.1c0-.1 0-.2.1-.3.1-.1.2-.1.3-.1.1 0 .2 0 .3.1.1.1.1.2.1.3v.5c.2-.3.5-.5.9-.7.4-.2.8-.3 1.2-.3 1.2 0 1.9.6 1.9 1.9v3.7c0 .1 0 .2-.1.3s-.2.1-.3.1c-.1 0-.2 0-.3-.1-.1-.1-.1-.2-.1-.3v-3.4c0-.5-.1-.8-.3-1-.2-.2-.5-.3-1-.3-.3 0-.7.1-1 .3-.3.2-.6.4-.7.6v3.9c0 .1 0 .2-.1.3s-.2.1-.3.1c-.1 0-.2 0-.3-.1-.2-.1-.3-.2-.3-.4z"/></g><g fill="#546E7A"><path d="M351.4 441.1v-6.6c0-.2.1-.4.2-.5s.3-.2.5-.2h4.2c.1 0 .2 0 .3.1.1.1.1.2.1.3 0 .1 0 .2-.1.3-.1.1-.2.1-.3.1h-3.9v2.6h3.8c.1 0 .2 0 .3.1.1.1.1.2.1.3 0 .1 0 .2-.1.3-.1.1-.2.1-.3.1h-3.8v2.8h3.9c.1 0 .2 0 .3.1.1.1.1.2.1.3 0 .1 0 .2-.1.3-.1.1-.2.1-.3.1h-4.2c-.2 0-.4-.1-.5-.2-.1 0-.2-.1-.2-.3zM358.4 441.4v-5.1c0-.1 0-.2.1-.3.1-.1.2-.1.3-.1.1 0 .2 0 .3.1.1.1.1.2.1.3v.5c.2-.3.5-.5.9-.7.4-.2.8-.3 1.2-.3 1.2 0 1.9.6 1.9 1.9v3.7c0 .1 0 .2-.1.3s-.2.1-.3.1c-.1 0-.2 0-.3-.1-.1-.1-.1-.2-.1-.3V438c0-.5-.1-.8-.3-1-.2-.2-.5-.3-1-.3-.3 0-.7.1-1 .3-.3.2-.6.4-.7.6v3.9c0 .1 0 .2-.1.3s-.2.1-.3.1c-.1 0-.2 0-.3-.1-.3-.1-.3-.2-.3-.4zM364.7 438.9c0-.9.2-1.7.7-2.2s1.1-.8 1.9-.8c.4 0 .7.1 1.1.3s.6.4.9.8v-.5c0-.1 0-.2.1-.3.1-.1.2-.1.3-.1.1 0 .2 0 .3.1.1.1.1.2.1.3v5.3c0 .4-.1.7-.2 1-.1.3-.2.5-.4.7s-.4.3-.6.5-.5.2-.8.3c-.3.1-.5.1-.8.1-.5 0-.9-.1-1.2-.2s-.7-.3-1-.5c-.1-.1-.1-.2-.1-.3 0-.1 0-.2.1-.3.1-.1.2-.1.3-.1.1 0 .2 0 .3.1.2.2.5.3.7.4.3.1.6.1.9.1.3 0 .5 0 .7-.1l.6-.3c.2-.1.3-.3.4-.5.1-.2.2-.5.2-.8v-.8c-.2.3-.5.6-.8.8-.3.2-.7.3-1.1.3-.8 0-1.4-.3-1.9-.8-.4-.9-.7-1.6-.7-2.5zm1 0c0 .6.2 1.2.5 1.6.3.4.8.6 1.4.6.3 0 .7-.1 1-.3s.6-.4.7-.7v-2.5c-.2-.3-.4-.5-.7-.7s-.7-.3-1-.3c-.6 0-1 .2-1.4.6-.3.5-.5 1-.5 1.7zM371.8 440c0-.3.1-.6.2-.8.1-.3.3-.5.5-.6.2-.2.4-.3.7-.3s.5-.1.7-.1c.8 0 1.5.3 1.9.8v-1c0-.4-.1-.7-.4-.9-.3-.2-.6-.3-1.1-.3-.6 0-1.1.2-1.5.6-.1.1-.2.1-.3.1-.1 0-.2 0-.3-.1-.1-.1-.1-.2-.1-.3 0-.1 0-.2.1-.3.6-.5 1.3-.8 2.2-.8.3 0 .6 0 .9.1.3.1.5.2.7.3.2.2.4.4.5.6.1.3.2.6.2.9v3.6c0 .1 0 .2-.1.3-.1.1-.2.1-.3.1-.1 0-.2 0-.3-.1-.1-.1-.1-.2-.1-.3v-.3c-.5.5-1.1.8-1.9.8-.3 0-.7-.1-1-.2-.3-.1-.6-.4-.8-.7-.3-.3-.4-.7-.4-1.1zm.9 0c0 .4.1.7.4.9.3.2.6.4 1 .4.3 0 .6-.1.9-.2s.5-.3.7-.5v-1.1c-.2-.2-.4-.4-.7-.5-.3-.1-.6-.2-.9-.2-.4 0-.8.1-1 .4-.3.2-.4.5-.4.8zM378.2 438.9c0-.9.2-1.7.7-2.2s1.1-.8 1.9-.8c.4 0 .7.1 1.1.3s.6.4.9.8v-.5c0-.1 0-.2.1-.3.1-.1.2-.1.3-.1.1 0 .2 0 .3.1.1.1.1.2.1.3v5.3c0 .4-.1.7-.2 1-.1.3-.2.5-.4.7s-.4.3-.6.5-.5.2-.8.3c-.3.1-.5.1-.8.1-.5 0-.9-.1-1.2-.2s-.7-.3-1-.5c-.1-.1-.1-.2-.1-.3 0-.1 0-.2.1-.3.1-.1.2-.1.3-.1.1 0 .2 0 .3.1.2.2.5.3.7.4.3.1.6.1.9.1.3 0 .5 0 .7-.1l.6-.3c.2-.1.3-.3.4-.5.1-.2.2-.5.2-.8v-.8c-.2.3-.5.6-.8.8-.3.2-.7.3-1.1.3-.8 0-1.4-.3-1.9-.8-.5-.9-.7-1.6-.7-2.5zm.9 0c0 .6.2 1.2.5 1.6.3.4.8.6 1.4.6.3 0 .7-.1 1-.3s.6-.4.7-.7v-2.5c-.2-.3-.4-.5-.7-.7s-.7-.3-1-.3c-.6 0-1 .2-1.4.6-.3.5-.5 1-.5 1.7zM385.2 438.9c0-.6.1-1.1.4-1.5.2-.5.6-.8 1-1.1.4-.3.9-.4 1.5-.4.7 0 1.3.2 1.8.6.5.4.8 1 .9 1.6.1.3.1.5.1.6 0 .1 0 .2-.1.3-.1.1-.2.1-.3.1h-4.2c0 .6.2 1 .6 1.4.4.4.9.6 1.5.6s1.1-.2 1.6-.5c.1 0 .1-.1.2-.1s.2 0 .2.1c.1.1.1.2.1.3 0 .1-.1.3-.2.4l-.6.3c-.2.1-.5.1-.7.2-.2 0-.5.1-.6.1-.9 0-1.6-.3-2.1-.9-.8-.5-1.1-1.2-1.1-2.1zm1-.4h3.8c0-.2 0-.5-.1-.7l-.3-.6c-.1-.2-.3-.4-.6-.5s-.5-.2-.9-.2c-.3 0-.6.1-.8.2-.2.1-.4.3-.6.5-.2.2-.3.4-.4.6-.1.3-.1.5-.1.7zM392.4 441.4v-5.1c0-.1 0-.2.1-.3.1-.1.2-.1.3-.1.1 0 .2 0 .3.1.1.1.1.2.1.3v.5c.1-.2.4-.4.8-.7.4-.2.7-.3 1.1-.3.4 0 .8.1 1 .3.3.2.4.5.5.8.2-.3.4-.5.8-.8.4-.2.7-.3 1.1-.3.5 0 .9.1 1.2.4.3.3.4.7.4 1.3v3.8c0 .1 0 .2-.1.3s-.2.1-.3.1c-.1 0-.2 0-.3-.1-.1-.1-.1-.2-.1-.3v-3.6c0-.4-.1-.7-.3-.9-.2-.2-.4-.3-.8-.3-.3 0-.6.1-.9.3-.3.2-.5.4-.7.6v3.9c0 .1 0 .2-.1.3s-.2.1-.3.1c-.1 0-.2 0-.3-.1-.1-.1-.1-.2-.1-.3v-3.6c0-.8-.4-1.2-1.1-1.2-.3 0-.6.1-.9.3-.3.2-.5.4-.7.6v3.9c0 .1 0 .2-.1.3s-.2.1-.3.1c-.1 0-.2 0-.3-.1.1.1 0 0 0-.2zM401.9 438.9c0-.6.1-1.1.4-1.5.2-.5.6-.8 1-1.1.4-.3.9-.4 1.5-.4.7 0 1.3.2 1.8.6.5.4.8 1 .9 1.6.1.3.1.5.1.6 0 .1 0 .2-.1.3-.1.1-.2.1-.3.1H403c0 .6.2 1 .6 1.4.4.4.9.6 1.5.6s1.1-.2 1.6-.5c.1 0 .1-.1.2-.1s.2 0 .2.1c.1.1.1.2.1.3 0 .1-.1.3-.2.4l-.6.3c-.2.1-.5.1-.7.2-.2 0-.5.1-.6.1-.9 0-1.6-.3-2.1-.9-.8-.5-1.1-1.2-1.1-2.1zm1-.4h3.8c0-.2 0-.5-.1-.7l-.3-.6c-.1-.2-.3-.4-.6-.5s-.5-.2-.9-.2c-.3 0-.6.1-.8.2-.2.1-.4.3-.6.5-.2.2-.3.4-.4.6-.1.3-.1.5-.1.7zM409.1 441.4v-5.1c0-.1 0-.2.1-.3.1-.1.2-.1.3-.1.1 0 .2 0 .3.1.1.1.1.2.1.3v.5c.2-.3.5-.5.9-.7.4-.2.8-.3 1.2-.3 1.2 0 1.9.6 1.9 1.9v3.7c0 .1 0 .2-.1.3s-.2.1-.3.1c-.1 0-.2 0-.3-.1-.1-.1-.1-.2-.1-.3V438c0-.5-.1-.8-.3-1-.2-.2-.5-.3-1-.3-.3 0-.7.1-1 .3-.3.2-.6.4-.7.6v3.9c0 .1 0 .2-.1.3s-.2.1-.3.1c-.1 0-.2 0-.3-.1-.2-.1-.3-.2-.3-.4zM415 436.4c0-.1 0-.2.1-.3.1-.1.2-.1.3-.1h.7v-1.2c0-.1 0-.2.1-.3.1-.1.2-.1.3-.1.1 0 .2 0 .3.1.1.1.1.2.1.3v1.2h.9c.1 0 .2 0 .3.1.1.1.1.2.1.3 0 .1 0 .2-.1.3-.1.1-.2.1-.3.1h-.8v3.6c0 .2 0 .4.2.5s.2.2.4.2h.4c.1 0 .2 0 .3.1.1.1.1.2.1.3 0 .1 0 .2-.1.2-.1.1-.1.1-.3.2-.1 0-.2.1-.3.1h-.4c-.4 0-.7-.1-1-.4-.2-.2-.3-.6-.3-1v-3.8h-.7c-.1 0-.2 0-.3-.1s0-.2 0-.3zM422.8 441.4v-6.9c0-.2.1-.4.2-.5s.3-.2.5-.2h2.5c.8 0 1.4.2 1.8.7.5.5.7 1 .7 1.7s-.2 1.3-.7 1.7c-.5.5-1.1.7-1.8.7h-2.2v2.8c0 .1 0 .3-.1.3-.1.1-.2.1-.4.1-.1 0-.3 0-.3-.1-.2-.1-.2-.2-.2-.3zm1-3.7h2.1c.5 0 .9-.1 1.2-.4.3-.3.4-.6.4-1.1 0-.5-.1-.8-.4-1.1s-.7-.4-1.2-.4h-2.1v3zM429.3 440c0-.3.1-.6.2-.8.1-.3.3-.5.5-.6.2-.2.4-.3.7-.3s.5-.1.7-.1c.8 0 1.5.3 1.9.8v-1c0-.4-.1-.7-.4-.9-.3-.2-.6-.3-1.1-.3-.6 0-1.1.2-1.5.6-.1.1-.2.1-.3.1-.1 0-.2 0-.3-.1-.1-.1-.1-.2-.1-.3 0-.1 0-.2.1-.3.6-.5 1.3-.8 2.2-.8.3 0 .6 0 .9.1.3.1.5.2.7.3.2.2.4.4.5.6.1.3.2.6.2.9v3.6c0 .1 0 .2-.1.3-.1.1-.2.1-.3.1-.1 0-.2 0-.3-.1-.1-.1-.1-.2-.1-.3v-.3c-.5.5-1.1.8-1.9.8-.3 0-.7-.1-1-.2-.3-.1-.6-.4-.8-.7-.3-.3-.4-.7-.4-1.1zm1 0c0 .4.1.7.4.9.3.2.6.4 1 .4.3 0 .6-.1.9-.2s.5-.3.7-.5v-1.1c-.2-.2-.4-.4-.7-.5-.3-.1-.6-.2-.9-.2-.4 0-.8.1-1 .4-.3.2-.4.5-.4.8zM436.1 441.4v-5.1c0-.1 0-.2.1-.3.1-.1.2-.1.3-.1.1 0 .2 0 .3.1.1.1.1.2.1.3v.6c.5-.7 1.1-1 1.6-1 .1 0 .2 0 .3.1.1.1.1.2.1.3 0 .1 0 .2-.1.3-.1.1-.2.1-.3.2-.7 0-1.2.3-1.5.9v3.7c0 .1 0 .2-.1.3s-.2.1-.3.1c-.1 0-.2-.1-.3-.1-.2 0-.2-.1-.2-.3zM439.3 436.4c0-.1 0-.2.1-.3.1-.1.2-.1.3-.1h.7v-1.2c0-.1 0-.2.1-.3.1-.1.2-.1.3-.1.1 0 .2 0 .3.1.1.1.1.2.1.3v1.2h.9c.1 0 .2 0 .3.1.1.1.1.2.1.3 0 .1 0 .2-.1.3-.1.1-.2.1-.3.1h-.9v3.6c0 .2 0 .4.2.5s.2.2.4.2h.4c.1 0 .2 0 .3.1.1.1.1.2.1.3 0 .1 0 .2-.1.2-.1.1-.1.1-.3.2-.1 0-.2.1-.3.1h-.4c-.4 0-.7-.1-1-.4-.2-.2-.3-.6-.3-1v-3.8h-.7c-.1 0-.2 0-.3-.1s.1-.2.1-.3zM443.1 436.4c0-.1 0-.2.1-.3s.2-.1.3-.1c.2 0 .3.1.4.3l1.9 4.6 1.8-4.6c0-.1.1-.2.2-.2s.2-.1.3-.1c.1 0 .2 0 .3.1.1.1.1.2.1.3v.2l-2.7 6.5c-.3.8-.9 1.2-1.7 1.2h-.4c-.1 0-.1-.1-.2-.1 0-.1-.1-.1-.1-.2s0-.2.1-.3c.1-.1.2-.1.3-.1H444.1c.2 0 .3 0 .4-.1.1-.1.3-.3.4-.5l.4-.9-2.2-5.3v-.4z"/></g><g fill="#546E7A"><path d="M351.4 487.6v-6.9c0-.2.1-.4.2-.5.1-.1.3-.2.5-.2h2.5c.7 0 1.3.2 1.8.7.5.4.7 1 .7 1.8 0 .7-.2 1.2-.6 1.7-.4.4-.9.6-1.5.7l1.7 2.6c0 .1.1.2.1.3 0 .1 0 .2-.1.3s-.2.1-.3.1c-.2 0-.3-.1-.4-.2l-2-3h-1.6v2.8c0 .1 0 .3-.1.3-.1.1-.2.1-.4.1-.1 0-.3 0-.3-.1-.1-.3-.2-.4-.2-.5zm1-3.7h2.1c.5 0 .9-.1 1.2-.4s.4-.7.4-1.1-.1-.8-.4-1.1-.7-.4-1.2-.4h-2.1v3zM358.1 485.1c0-.6.1-1.1.4-1.5s.6-.8 1-1.1c.4-.3.9-.4 1.5-.4.7 0 1.3.2 1.8.6.5.4.8 1 .9 1.6.1.3.1.5.1.6 0 .1 0 .2-.1.3-.1.1-.2.1-.3.1h-4.2c0 .6.2 1 .6 1.4.4.4.9.6 1.5.6s1.1-.2 1.6-.5c.1 0 .1-.1.2-.1s.2 0 .2.1c.1.1.1.2.1.3 0 .1-.1.3-.2.4l-.6.3c-.2.1-.5.1-.7.2-.2 0-.5.1-.6.1-.9 0-1.6-.3-2.1-.9-.8-.5-1.1-1.2-1.1-2.1zm1-.4h3.8c0-.2 0-.5-.1-.7l-.3-.6c-.1-.2-.3-.4-.6-.5-.3-.1-.5-.2-.9-.2-.3 0-.6.1-.8.2-.2.1-.4.3-.6.5-.2.2-.3.4-.4.6-.1.3-.1.5-.1.7zM365.3 487.6v-7.3c0-.1 0-.2.1-.3.1-.1.2-.1.3-.1.1 0 .2 0 .3.1s.1.2.1.3v2.7c.2-.3.5-.5.9-.7.4-.2.8-.3 1.2-.3 1.2 0 1.8.6 1.8 1.9v3.7c0 .1 0 .2-.1.3-.1.1-.2.1-.3.1-.1 0-.2 0-.3-.1-.1-.1-.1-.2-.1-.3v-3.5c0-.5-.1-.8-.3-1-.2-.2-.5-.3-1-.3-.3 0-.7.1-1 .3-.3.2-.6.4-.7.6v3.9c0 .1 0 .2-.1.3s-.2.1-.3.1c-.1 0-.2 0-.3-.1-.1 0-.2-.1-.2-.3zM371.8 485.1c0-.6.1-1.1.4-1.5s.6-.8 1-1.1c.4-.3.9-.4 1.5-.4.7 0 1.3.2 1.8.6.5.4.8 1 .9 1.6.1.3.1.5.1.6 0 .1 0 .2-.1.3-.1.1-.2.1-.3.1h-4.2c0 .6.2 1 .6 1.4.4.4.9.6 1.5.6s1.1-.2 1.6-.5c.1 0 .1-.1.2-.1s.2 0 .2.1c.1.1.1.2.1.3 0 .1-.1.3-.2.4l-.6.3c-.2.1-.5.1-.7.2-.2 0-.5.1-.6.1-.9 0-1.6-.3-2.1-.9-.9-.5-1.1-1.2-1.1-2.1zm.9-.4h3.8c0-.2 0-.5-.1-.7l-.3-.6c-.1-.2-.3-.4-.6-.5-.3-.1-.5-.2-.9-.2-.3 0-.6.1-.8.2-.2.1-.4.3-.6.5-.2.2-.3.4-.4.6 0 .3-.1.5-.1.7zM378.6 486.2c0-.3.1-.6.2-.8.1-.3.3-.5.5-.6.2-.2.4-.3.7-.3.2-.1.5-.1.7-.1.8 0 1.5.3 1.9.8v-1c0-.4-.1-.7-.4-.9-.3-.2-.6-.3-1.1-.3-.6 0-1.1.2-1.5.6-.1.1-.2.1-.3.1-.1 0-.2 0-.3-.1-.1-.1-.1-.2-.1-.3 0-.1 0-.2.1-.3.6-.5 1.3-.8 2.2-.8.3 0 .6 0 .9.1.3.1.5.2.7.3.2.2.4.4.5.6.1.3.2.6.2.9v3.6c0 .1 0 .2-.1.3-.1.1-.2.1-.3.1-.1 0-.2 0-.3-.1s-.1-.2-.1-.3v-.3c-.5.5-1.1.8-1.9.8-.3 0-.7-.1-1-.2-.3-.1-.6-.4-.8-.7-.3-.3-.4-.7-.4-1.1zm1 0c0 .4.1.7.4.9.3.2.6.4 1 .4.3 0 .6-.1.9-.2.3-.1.5-.3.7-.5v-1.1c-.2-.2-.4-.4-.7-.5s-.6-.2-.9-.2c-.4 0-.8.1-1 .4-.3.2-.4.5-.4.8zM385.4 487.6v-5.1c0-.1 0-.2.1-.3.1-.1.2-.1.3-.1.1 0 .2 0 .3.1.1.1.1.2.1.3v.6c.5-.7 1.1-1 1.6-1 .1 0 .2 0 .3.1.1.1.1.2.1.3 0 .1 0 .2-.1.3-.1.1-.2.1-.3.2-.7 0-1.2.3-1.5.9v3.7c0 .1 0 .2-.1.3s-.2.1-.3.1c-.1 0-.2-.1-.3-.1-.1 0-.2-.1-.2-.3zM389 487.1c0-.1 0-.2.1-.3.1-.1.2-.1.3-.1.1 0 .2 0 .3.1.5.4 1.1.6 1.7.6.4 0 .8-.1 1-.3.2-.2.4-.4.4-.7 0-.2-.1-.3-.2-.5-.1-.1-.3-.2-.5-.3s-.4-.1-.7-.2c-.2-.1-.5-.1-.8-.2s-.5-.2-.7-.3c-.2-.1-.4-.3-.5-.5-.1-.2-.2-.5-.2-.7 0-.5.2-.9.6-1.2.4-.3.9-.5 1.6-.5.8 0 1.4.2 2 .7.1.1.1.2.1.3 0 .1 0 .2-.1.3s-.2.1-.3.1c-.1 0-.2 0-.2-.1-.4-.3-.9-.5-1.5-.5-.4 0-.7.1-.9.3-.2.2-.4.4-.4.7 0 .2.1.3.2.4.1.1.3.2.5.3.2.1.4.1.7.2s.5.1.8.2.5.2.7.3c.2.1.4.3.5.5.1.2.2.5.2.8 0 .5-.2.9-.6 1.3-.4.3-1 .5-1.7.5-.9 0-1.6-.2-2.2-.7-.1-.3-.2-.4-.2-.5zM394.9 486.2c0-.3.1-.6.2-.8.1-.3.3-.5.5-.6.2-.2.4-.3.7-.3.2-.1.5-.1.7-.1.8 0 1.5.3 1.9.8v-1c0-.4-.1-.7-.4-.9-.3-.2-.6-.3-1.1-.3-.6 0-1.1.2-1.5.6-.1.1-.2.1-.3.1-.1 0-.2 0-.3-.1-.1-.1-.1-.2-.1-.3 0-.1 0-.2.1-.3.6-.5 1.3-.8 2.2-.8.3 0 .6 0 .9.1.3.1.5.2.7.3.2.2.4.4.5.6.1.3.2.6.2.9v3.6c0 .1 0 .2-.1.3-.1.1-.2.1-.3.1-.1 0-.2 0-.3-.1s-.1-.2-.1-.3v-.3c-.5.5-1.1.8-1.9.8-.3 0-.7-.1-1-.2-.3-.1-.6-.4-.8-.7-.3-.3-.4-.7-.4-1.1zm.9 0c0 .4.1.7.4.9.3.2.6.4 1 .4.3 0 .6-.1.9-.2.3-.1.5-.3.7-.5v-1.1c-.2-.2-.4-.4-.7-.5s-.6-.2-.9-.2c-.4 0-.8.1-1 .4-.3.2-.4.5-.4.8zM401.6 487.6v-7.3c0-.1 0-.2.1-.3.1-.1.2-.1.3-.1.1 0 .2 0 .3.1s.1.2.1.3v7.3c0 .1 0 .2-.1.3s-.2.1-.3.1c-.1 0-.2 0-.3-.1 0 0-.1-.1-.1-.3zM407.7 487.3v-6.6c0-.2.1-.4.2-.5.1-.1.3-.2.5-.2h2c.8 0 1.5.2 2.2.5s1.1.8 1.4 1.4c.3.6.5 1.3.5 2 0 .6-.1 1.1-.3 1.6-.2.5-.5.9-.8 1.3s-.8.6-1.3.8c-.5.2-1.1.3-1.7.3h-2c-.2 0-.4-.1-.5-.2-.1 0-.2-.2-.2-.4zm1-.2h1.7c.6 0 1.2-.1 1.7-.4.5-.3.8-.7 1.1-1.1.2-.5.4-1 .4-1.6 0-.6-.1-1.1-.3-1.6-.2-.5-.6-.8-1.1-1.1-.5-.3-1-.4-1.7-.4h-1.7v6.2zM416.2 481.2c-.1-.1-.2-.3-.2-.4 0-.2.1-.3.2-.4.1-.1.3-.2.4-.2.2 0 .3.1.4.2.1.1.2.3.2.4 0 .2-.1.3-.2.4-.1.1-.3.2-.4.2-.1 0-.3-.1-.4-.2zm0 6.4v-5.1c0-.1 0-.2.1-.3.1-.1.2-.1.3-.1.1 0 .2 0 .3.1.1.1.1.2.1.3v5.1c0 .1 0 .2-.1.3s-.2.1-.3.1c-.1 0-.2 0-.3-.1-.1 0-.1-.1-.1-.3zM419 487.6v-5.1c0-.1 0-.2.1-.3.1-.1.2-.1.3-.1.1 0 .2 0 .3.1.1.1.1.2.1.3v.5c.2-.3.5-.5.9-.7.4-.2.8-.3 1.2-.3 1.2 0 1.9.6 1.9 1.9v3.7c0 .1 0 .2-.1.3s-.2.1-.3.1c-.1 0-.2 0-.3-.1-.1-.1-.1-.2-.1-.3v-3.4c0-.5-.1-.8-.3-1-.2-.2-.5-.3-1-.3-.3 0-.7.1-1 .3-.3.2-.6.4-.7.6v3.9c0 .1 0 .2-.1.3s-.2.1-.3.1c-.1 0-.2 0-.3-.1-.3-.1-.3-.2-.3-.4zM425.7 487.6v-5.1c0-.1 0-.2.1-.3.1-.1.2-.1.3-.1.1 0 .2 0 .3.1.1.1.1.2.1.3v.5c.2-.3.5-.5.9-.7.4-.2.8-.3 1.2-.3 1.2 0 1.9.6 1.9 1.9v3.7c0 .1 0 .2-.1.3s-.2.1-.3.1c-.1 0-.2 0-.3-.1-.1-.1-.1-.2-.1-.3v-3.4c0-.5-.1-.8-.3-1-.2-.2-.5-.3-1-.3-.3 0-.7.1-1 .3-.3.2-.6.4-.7.6v3.9c0 .1 0 .2-.1.3s-.2.1-.3.1c-.1 0-.2 0-.3-.1-.2-.1-.3-.2-.3-.4zM432.1 485.1c0-.6.1-1.1.4-1.5s.6-.8 1-1.1c.4-.3.9-.4 1.5-.4.7 0 1.3.2 1.8.6.5.4.8 1 .9 1.6.1.3.1.5.1.6 0 .1 0 .2-.1.3-.1.1-.2.1-.3.1h-4.2c0 .6.2 1 .6 1.4.4.4.9.6 1.5.6s1.1-.2 1.6-.5c.1 0 .1-.1.2-.1s.2 0 .2.1c.1.1.1.2.1.3 0 .1-.1.3-.2.4l-.6.3c-.2.1-.5.1-.7.2-.2 0-.5.1-.6.1-.9 0-1.6-.3-2.1-.9-.8-.5-1.1-1.2-1.1-2.1zm1-.4h3.8c0-.2 0-.5-.1-.7l-.3-.6c-.1-.2-.3-.4-.6-.5-.3-.1-.5-.2-.9-.2-.3 0-.6.1-.8.2-.2.1-.4.3-.6.5-.2.2-.3.4-.4.6-.1.3-.1.5-.1.7zM439.3 487.6v-5.1c0-.1 0-.2.1-.3.1-.1.2-.1.3-.1.1 0 .2 0 .3.1.1.1.1.2.1.3v.6c.5-.7 1.1-1 1.6-1 .1 0 .2 0 .3.1.1.1.1.2.1.3 0 .1 0 .2-.1.3-.1.1-.2.1-.3.2-.7 0-1.2.3-1.5.9v3.7c0 .1 0 .2-.1.3s-.2.1-.3.1c-.1 0-.2-.1-.3-.1-.1 0-.2-.1-.2-.3z"/></g><g fill="#546E7A"><path d="M189.7 531.3c-.2-.5-.3-1.1-.3-1.7 0-.6.1-1.2.3-1.7.2-.5.5-1 .9-1.3.4-.4.8-.6 1.3-.8.5-.2 1-.3 1.6-.3 1.1 0 2 .4 2.7 1.1.1.1.1.2.1.3 0 .1 0 .2-.1.3-.1.1-.2.1-.3.1-.1 0-.3-.1-.3-.2-.2-.3-.5-.5-.9-.7-.4-.2-.7-.3-1.1-.3-.6 0-1.1.1-1.6.4-.5.3-.8.7-1.1 1.2-.3.5-.4 1.1-.4 1.7 0 .6.1 1.2.4 1.7.3.5.6.9 1.1 1.2.5.3 1 .4 1.6.4.4 0 .8-.1 1.1-.2.4-.2.7-.4.9-.7.1-.1.2-.2.3-.2.1 0 .2 0 .3.1.1.1.1.2.1.3 0 .1 0 .2-.1.3-.7.8-1.6 1.1-2.7 1.1-.6 0-1.1-.1-1.6-.3-.5-.2-.9-.5-1.3-.8-.4-.1-.7-.5-.9-1zM197.5 530.7c0-.6.1-1.1.4-1.5s.6-.8 1-1.1c.4-.3.9-.4 1.5-.4.7 0 1.3.2 1.8.6.5.4.8 1 .9 1.6.1.3.1.5.1.6 0 .1 0 .2-.1.3-.1.1-.2.1-.3.1h-4.2c0 .6.2 1 .6 1.4.4.4.9.6 1.5.6s1.1-.2 1.6-.5c.1 0 .1-.1.2-.1s.2 0 .2.1c.1.1.1.2.1.3 0 .1-.1.3-.2.4l-.6.3c-.2.1-.5.1-.7.2-.2 0-.5.1-.6.1-.9 0-1.6-.3-2.1-.9-.8-.5-1.1-1.2-1.1-2.1zm1-.4h3.8c0-.2 0-.5-.1-.7l-.3-.6c-.1-.2-.3-.4-.6-.5-.3-.1-.5-.2-.9-.2-.3 0-.6.1-.8.2-.2.1-.4.3-.6.5-.2.2-.3.4-.4.6-.1.3-.1.5-.1.7zM204.7 533.2v-5.1c0-.1 0-.2.1-.3.1-.1.2-.1.3-.1.1 0 .2 0 .3.1.1.1.1.2.1.3v.6c.5-.7 1.1-1 1.6-1 .1 0 .2 0 .3.1.1.1.1.2.1.3 0 .1 0 .2-.1.3-.1.1-.2.1-.3.2-.7 0-1.2.3-1.5.9v3.7c0 .1 0 .2-.1.3s-.2.1-.3.1c-.1 0-.2-.1-.3-.1-.1 0-.2-.1-.2-.3zM208.5 530.7c0-.6.1-1.1.4-1.5s.6-.8 1-1.1c.4-.3.9-.4 1.5-.4.7 0 1.3.2 1.8.6.5.4.8 1 .9 1.6.1.3.1.5.1.6 0 .1 0 .2-.1.3-.1.1-.2.1-.3.1h-4.2c0 .6.2 1 .6 1.4.4.4.9.6 1.5.6s1.1-.2 1.6-.5c.1 0 .1-.1.2-.1s.2 0 .2.1c.1.1.1.2.1.3 0 .1-.1.3-.2.4l-.6.3c-.2.1-.5.1-.7.2-.2 0-.5.1-.6.1-.9 0-1.6-.3-2.1-.9-.8-.5-1.1-1.2-1.1-2.1zm.9-.4h3.8c0-.2 0-.5-.1-.7l-.3-.6c-.1-.2-.3-.4-.6-.5-.3-.1-.5-.2-.9-.2-.3 0-.6.1-.8.2-.2.1-.4.3-.6.5-.2.2-.3.4-.4.6 0 .3-.1.5-.1.7zM215.7 533.2v-5.1c0-.1 0-.2.1-.3.1-.1.2-.1.3-.1.1 0 .2 0 .3.1.1.1.1.2.1.3v.5c.1-.2.4-.4.8-.7.4-.2.7-.3 1.1-.3.4 0 .8.1 1 .3.3.2.4.5.5.8.2-.3.4-.5.8-.8.4-.2.7-.3 1.1-.3.5 0 .9.1 1.2.4.3.3.4.7.4 1.3v3.8c0 .1 0 .2-.1.3s-.2.1-.3.1c-.1 0-.2 0-.3-.1-.1-.1-.1-.2-.1-.3v-3.6c0-.4-.1-.7-.3-.9-.2-.2-.4-.3-.8-.3-.3 0-.6.1-.9.3-.3.2-.5.4-.7.6v3.9c0 .1 0 .2-.1.3s-.2.1-.3.1c-.1 0-.2 0-.3-.1-.1-.1-.1-.2-.1-.3v-3.6c0-.8-.4-1.2-1.1-1.2-.3 0-.6.1-.9.3-.3.2-.5.4-.7.6v3.9c0 .1 0 .2-.1.3s-.2.1-.3.1c-.1 0-.2 0-.3-.1v-.2zM225.5 532.2c-.2-.5-.3-1-.3-1.5s.1-1.1.3-1.5c.2-.5.6-.8 1-1.1.4-.3.9-.4 1.5-.4s1.1.1 1.5.4c.4.3.8.6 1 1.1.2.5.3 1 .3 1.5s-.1 1.1-.3 1.5c-.2.5-.6.8-1 1.1-.4.3-.9.4-1.5.4s-1.1-.1-1.5-.4-.7-.6-1-1.1zm.6-1.5c0 .6.2 1.2.5 1.6s.8.7 1.4.7c.4 0 .7-.1 1-.3.3-.2.5-.5.7-.8s.2-.7.2-1.1c0-.4-.1-.8-.2-1.1-.1-.3-.4-.6-.7-.8-.3-.2-.6-.3-1-.3s-.7.1-1 .3c-.3.2-.5.5-.7.8-.1.2-.2.6-.2 1zM232.5 533.2v-5.1c0-.1 0-.2.1-.3.1-.1.2-.1.3-.1.1 0 .2 0 .3.1.1.1.1.2.1.3v.5c.2-.3.5-.5.9-.7.4-.2.8-.3 1.2-.3 1.2 0 1.9.6 1.9 1.9v3.7c0 .1 0 .2-.1.3s-.2.1-.3.1c-.1 0-.2 0-.3-.1-.1-.1-.1-.2-.1-.3v-3.4c0-.5-.1-.8-.3-1-.2-.2-.5-.3-1-.3-.3 0-.7.1-1 .3-.3.2-.6.4-.7.6v3.9c0 .1 0 .2-.1.3s-.2.1-.3.1c-.1 0-.2 0-.3-.1-.2-.1-.3-.2-.3-.4zM238.6 528.2c0-.1 0-.2.1-.3.1-.1.2-.1.3-.1.2 0 .3.1.4.3l1.9 4.6 1.8-4.6c0-.1.1-.2.2-.2s.2-.1.3-.1c.1 0 .2 0 .3.1.1.1.1.2.1.3v.2l-2.7 6.5c-.3.8-.9 1.2-1.7 1.2h-.4s-.1-.1-.2-.1c0-.1-.1-.1-.1-.2s0-.2.1-.3c.1-.1.2-.1.3-.1H239.6c.2 0 .3 0 .4-.1.1-.1.3-.3.4-.5l.4-.9-2.2-5.3v-.4z"/></g><g fill="#546E7A"><path d="M289.2 328.8v-6.5c0-.2.1-.4.3-.6.2-.2.4-.2.6-.2.2 0 .4.1.6.2.2.2.2.4.2.6v6.5c0 .2-.1.4-.3.6-.2.2-.4.2-.6.2-.2 0-.4-.1-.6-.2-.1-.2-.2-.4-.2-.6zM292.6 328.9v-4.4c0-.2.1-.4.2-.5.1-.1.3-.2.6-.2.2 0 .4.1.5.2.1.1.2.3.2.5v.1c.2-.3.5-.5.8-.6.4-.2.7-.3 1.2-.3.6 0 1.1.2 1.4.5.3.3.5.8.5 1.4v3.4c0 .2-.1.4-.2.5-.1.1-.3.2-.5.2s-.4-.1-.5-.2c-.1-.1-.2-.3-.2-.5v-3c0-.4-.1-.7-.3-.8-.2-.2-.5-.3-.8-.3-.3 0-.5.1-.8.2-.2.1-.4.3-.6.5v3.2c0 .2-.1.4-.2.5-.1.1-.3.2-.5.2s-.4-.1-.5-.2c-.2-.1-.3-.2-.3-.4zM299.3 326.6c0-.9.2-1.7.7-2.2.5-.6 1.1-.8 1.9-.8.3 0 .7.1 1 .2.3.2.6.4.8.7v-2.3c0-.2.1-.4.2-.5.1-.1.3-.2.6-.2.2 0 .4.1.5.2.1.1.2.3.2.5v6.6c0 .2-.1.4-.2.5-.1.1-.3.2-.6.2-.2 0-.4-.1-.5-.2-.1-.1-.2-.3-.2-.5v-.1c-.5.6-1.1.9-1.8.9-.8 0-1.4-.3-1.9-.8s-.7-1.2-.7-2.2zm1.6 0c0 .5.1.9.4 1.2.3.3.6.5 1.1.5.3 0 .5-.1.8-.2.2-.1.4-.3.6-.5v-2.1c-.1-.2-.3-.3-.6-.5-.2-.1-.5-.2-.8-.2-.4 0-.8.2-1.1.5s-.4.8-.4 1.3zM306.4 326.6c0-.6.1-1.1.4-1.5.2-.5.6-.8 1.1-1.1.5-.3 1-.4 1.6-.4.6 0 1.2.1 1.6.4.5.3.8.6 1.1 1.1.2.5.4 1 .4 1.5 0 .4-.1.8-.2 1.2s-.3.7-.6 1-.6.5-1 .7c-.4.2-.8.2-1.3.2-.6 0-1.2-.1-1.6-.4-.5-.3-.8-.7-1.1-1.1s-.4-1-.4-1.6zm1.6 0c0 .5.1.9.4 1.2.3.3.6.5 1.1.5s.8-.2 1.1-.5c.3-.3.4-.7.4-1.2s-.1-.9-.4-1.2-.6-.5-1.1-.5-.8.2-1.1.5-.4.8-.4 1.2zM313.5 326.6c0-.6.1-1.1.4-1.5.2-.5.6-.8 1.1-1.1.5-.3 1-.4 1.6-.4.6 0 1.2.1 1.6.4.5.3.8.6 1.1 1.1.2.5.4 1 .4 1.5 0 .4-.1.8-.2 1.2s-.3.7-.6 1-.6.5-1 .7c-.4.2-.8.2-1.3.2-.6 0-1.2-.1-1.6-.4-.5-.3-.8-.7-1.1-1.1s-.4-1-.4-1.6zm1.5 0c0 .5.1.9.4 1.2.3.3.6.5 1.1.5s.8-.2 1.1-.5c.3-.3.4-.7.4-1.2s-.1-.9-.4-1.2-.6-.5-1.1-.5-.8.2-1.1.5-.4.8-.4 1.2zM320.8 328.9v-4.4c0-.2.1-.4.2-.5.1-.1.3-.2.6-.2.2 0 .4.1.5.2.1.1.2.3.2.5v.1c.2-.3.4-.5.6-.6.2-.2.4-.2.7-.2.2 0 .4.1.5.2.1.1.2.3.2.4 0 .2-.1.4-.2.5-.1.1-.3.2-.5.2-.5.1-.9.3-1.2.6v3.1c0 .2-.1.4-.2.5-.1.1-.3.2-.5.2s-.4-.1-.5-.2c-.3-.1-.4-.2-.4-.4zM324 328.7c0-.3.1-.5.3-.7.2-.2.4-.3.6-.3.3 0 .5.1.7.3.2.2.3.5.3.9s-.1.7-.2 1.1-.4.7-.7.9c-.1.1-.2.1-.3.1-.1 0-.2 0-.3-.1-.1-.1-.1-.2-.1-.3 0-.1 0-.2.1-.3.1-.1.3-.3.4-.5.1-.2.2-.3.2-.5h-.2c-.2 0-.4-.1-.5-.2-.2.1-.3-.2-.3-.4zM330.6 327.2c-.2-.5-.3-1.1-.3-1.7 0-.6.1-1.2.3-1.7.2-.5.5-1 .9-1.3s.8-.6 1.3-.9c.5-.2 1.1-.3 1.7-.3.8 0 1.5.2 2.2.5.6.4 1.1.8 1.5 1.5.4.6.5 1.4.5 2.1 0 .8-.2 1.5-.5 2.1s-.9 1.1-1.5 1.5c-.6.4-1.4.5-2.2.5-.6 0-1.2-.1-1.7-.3-.5-.2-1-.5-1.3-.9s-.7-.6-.9-1.1zm1.4-1.7c0 .8.2 1.4.7 1.9.4.5 1 .7 1.8.7s1.3-.2 1.8-.7c.5-.5.7-1.1.7-1.9 0-.8-.2-1.4-.7-1.9-.5-.5-1-.7-1.8-.7s-1.3.2-1.8.7c-.5.6-.7 1.2-.7 1.9zM339.9 327.9v-3.4c0-.2.1-.4.2-.5.1-.1.3-.2.6-.2.2 0 .4.1.5.2.1.1.2.3.2.5v2.8c0 .4.1.7.3.8.2.2.4.2.8.2.3 0 .5-.1.8-.2.2-.1.4-.3.6-.5v-3.3c0-.2.1-.4.2-.5.1-.1.3-.2.6-.2.2 0 .4.1.5.2.1.1.2.3.2.5v4.4c0 .2-.1.4-.2.5-.1.1-.3.2-.5.2s-.4-.1-.5-.2c-.1-.1-.2-.3-.2-.5-.2.3-.5.5-.9.6-.3.2-.7.2-1.2.2-.6 0-1.1-.2-1.4-.5s-.6-.6-.6-1.1zM346.2 324.4c0-.2.1-.3.2-.5.1-.1.3-.2.5-.2h.4v-.9c0-.2.1-.4.2-.5.1-.1.3-.2.6-.2.2 0 .4.1.5.2.1.1.2.3.2.5v.9h.6c.2 0 .3.1.5.2.1.1.2.3.2.5s-.1.3-.2.5c-.1.1-.3.2-.5.2h-.6v2.6c0 .2.1.4.2.5.1.1.2.2.4.2h.1c.2 0 .4.1.5.2s.2.3.2.5-.1.4-.3.5c-.2.1-.5.2-1 .2s-.9-.1-1.2-.4c-.3-.3-.4-.7-.4-1.2v-3h-.4c-.2 0-.3-.1-.5-.2s-.2-.4-.2-.6zM350.8 326.6c0-.9.2-1.7.7-2.2.5-.6 1.1-.8 1.9-.8.3 0 .7.1 1 .2.3.2.6.4.8.7v-2.3c0-.2.1-.4.2-.5.1-.1.3-.2.6-.2.2 0 .4.1.5.2.1.1.2.3.2.5v6.6c0 .2-.1.4-.2.5-.1.1-.3.2-.6.2-.2 0-.4-.1-.5-.2-.1-.1-.2-.3-.2-.5v-.1c-.5.6-1.1.9-1.8.9-.8 0-1.4-.3-1.9-.8s-.7-1.2-.7-2.2zm1.6 0c0 .5.1.9.4 1.2.3.3.6.5 1.1.5.3 0 .5-.1.8-.2.2-.1.4-.3.6-.5v-2.1c-.1-.2-.3-.3-.6-.5-.2-.1-.5-.2-.8-.2-.4 0-.8.2-1.1.5s-.4.8-.4 1.3zM357.9 326.6c0-.6.1-1.1.4-1.5.2-.5.6-.8 1.1-1.1.5-.3 1-.4 1.6-.4.6 0 1.2.1 1.6.4.5.3.8.6 1.1 1.1.2.5.4 1 .4 1.5 0 .4-.1.8-.2 1.2s-.3.7-.6 1-.6.5-1 .7c-.4.2-.8.2-1.3.2-.6 0-1.2-.1-1.6-.4-.5-.3-.8-.7-1.1-1.1s-.4-1-.4-1.6zm1.6 0c0 .5.1.9.4 1.2.3.3.6.5 1.1.5s.8-.2 1.1-.5c.3-.3.4-.7.4-1.2s-.1-.9-.4-1.2-.6-.5-1.1-.5-.8.2-1.1.5-.4.8-.4 1.2zM364.9 326.6c0-.6.1-1.1.4-1.5.2-.5.6-.8 1.1-1.1.5-.3 1-.4 1.6-.4.6 0 1.2.1 1.6.4.5.3.8.6 1.1 1.1.2.5.4 1 .4 1.5 0 .4-.1.8-.2 1.2s-.3.7-.6 1-.6.5-1 .7c-.4.2-.8.2-1.3.2-.6 0-1.2-.1-1.6-.4-.5-.3-.8-.7-1.1-1.1s-.4-1-.4-1.6zm1.6 0c0 .5.1.9.4 1.2.3.3.6.5 1.1.5s.8-.2 1.1-.5c.3-.3.4-.7.4-1.2s-.1-.9-.4-1.2-.6-.5-1.1-.5-.8.2-1.1.5-.4.8-.4 1.2zM372.3 328.9v-4.4c0-.2.1-.4.2-.5.1-.1.3-.2.6-.2.2 0 .4.1.5.2.1.1.2.3.2.5v.1c.2-.3.4-.5.6-.6.2-.2.4-.2.7-.2.2 0 .4.1.5.2.1.1.2.3.2.4 0 .2-.1.4-.2.5-.1.1-.3.2-.5.2-.5.1-.9.3-1.2.6v3.1c0 .2-.1.4-.2.5-.1.1-.3.2-.5.2s-.4-.1-.5-.2c-.3-.1-.4-.2-.4-.4zM379.7 326.6c0-.8.1-1.7.4-2.6.3-.9.7-1.7 1.1-2.3.1-.1.3-.2.5-.2s.4.1.5.2c.1.1.2.3.2.5 0 .1 0 .2-.1.3-.3.7-.5 1.3-.7 2s-.2 1.4-.2 2.2.1 1.5.2 2.2c.2.7.4 1.3.7 2 0 .1.1.2.1.3 0 .2-.1.3-.2.5-.1.1-.3.2-.5.2s-.4-.1-.5-.2c-.5-.7-.9-1.4-1.1-2.3-.3-1.1-.4-1.9-.4-2.8zM383.6 327.2c-.2-.5-.3-1.1-.3-1.7 0-.6.1-1.2.3-1.7.2-.5.5-1 .9-1.3s.8-.6 1.4-.8c.5-.2 1.1-.3 1.7-.3 1.2 0 2.2.4 2.9 1.3.1.1.2.3.2.5s-.1.4-.2.5c-.2.1-.4.2-.6.2-.2 0-.5-.1-.6-.3-.5-.5-1-.8-1.6-.8-.7 0-1.3.2-1.8.7-.5.5-.7 1.1-.7 1.9 0 .8.2 1.4.7 1.9.5.5 1.1.7 1.8.7.3 0 .6-.1.9-.2.3-.1.5-.3.8-.6.2-.2.4-.3.7-.3.2 0 .4.1.6.2.2.1.2.3.2.5s-.1.3-.2.5c-.7.9-1.7 1.3-2.9 1.3-.6 0-1.2-.1-1.7-.3-.5-.2-1-.5-1.4-.8s-.9-.5-1.1-1.1zM391.6 326.6c0-.6.1-1.1.4-1.5.2-.5.6-.8 1.1-1.1.5-.3 1-.4 1.6-.4.6 0 1.2.1 1.6.4.5.3.8.6 1.1 1.1.2.5.4 1 .4 1.5 0 .4-.1.8-.2 1.2s-.3.7-.6 1-.6.5-1 .7c-.4.2-.8.2-1.3.2-.6 0-1.2-.1-1.6-.4-.5-.3-.8-.7-1.1-1.1s-.4-1-.4-1.6zm1.6 0c0 .5.1.9.4 1.2.3.3.6.5 1.1.5s.8-.2 1.1-.5c.3-.3.4-.7.4-1.2s-.1-.9-.4-1.2-.6-.5-1.1-.5-.8.2-1.1.5-.4.8-.4 1.2zM398.5 324.4c0-.2.1-.4.2-.5.1-.2.3-.2.6-.2.2 0 .3 0 .4.1l.3.3 1.4 3.6 1.4-3.6c.1-.1.1-.3.3-.3s.3-.1.4-.1c.2 0 .4.1.6.2.1.2.2.3.2.5 0 .1 0 .2-.1.3l-1.7 4.2c-.1.2-.2.4-.4.5-.2.1-.4.2-.6.2-.2 0-.5-.1-.6-.2-.2-.1-.3-.3-.4-.5l-1.7-4.2c-.3-.1-.3-.2-.3-.3zM404.9 326.6c0-.6.1-1.1.4-1.5.3-.5.6-.8 1.1-1.1.5-.3 1-.4 1.6-.4.6 0 1.2.2 1.7.5s.8.8 1 1.4c.1.4.2.7.2.9 0 .2-.1.4-.2.5-.1.1-.3.2-.5.2h-3.6c.1.4.2.7.5 1 .3.3.7.4 1.2.4.4 0 .8-.1 1.1-.3.1-.1.2-.1.3-.1.2 0 .3.1.5.2.1.1.2.3.2.4 0 .2-.1.3-.2.4l-.6.3c-.2.1-.5.1-.7.2-.2 0-.5.1-.7.1-.9 0-1.6-.3-2.2-.8-.8-.6-1.1-1.4-1.1-2.3zm1.6-.5h2.9c0-.1 0-.3-.1-.4-.1-.1-.1-.3-.2-.4-.1-.1-.3-.2-.4-.3-.2-.1-.4-.1-.6-.1-.2 0-.4 0-.6.1-.2.1-.3.2-.4.3-.1.1-.2.3-.3.4-.3.1-.3.2-.3.4zM412 328.9v-4.4c0-.2.1-.4.2-.5.1-.1.3-.2.6-.2.2 0 .4.1.5.2.1.1.2.3.2.5v.1c.2-.3.4-.5.6-.6.2-.2.4-.2.7-.2.2 0 .4.1.5.2.1.1.2.3.2.4 0 .2-.1.4-.2.5-.1.1-.3.2-.5.2-.5.1-.9.3-1.2.6v3.1c0 .2-.1.4-.2.5-.1.1-.3.2-.5.2s-.4-.1-.5-.2c-.3-.1-.4-.2-.4-.4zM416.1 326.6c0-.6.1-1.1.4-1.5.3-.5.6-.8 1.1-1.1.5-.3 1-.4 1.6-.4.6 0 1.2.2 1.7.5s.8.8 1 1.4c.1.4.2.7.2.9 0 .2-.1.4-.2.5-.1.1-.3.2-.5.2h-3.6c.1.4.2.7.5 1 .3.3.7.4 1.2.4.4 0 .8-.1 1.1-.3.1-.1.2-.1.3-.1.2 0 .3.1.5.2.1.1.2.3.2.4 0 .2-.1.3-.2.4l-.6.3c-.2.1-.5.1-.7.2-.2 0-.5.1-.7.1-.9 0-1.6-.3-2.2-.8-.8-.6-1.1-1.4-1.1-2.3zm1.6-.5h2.9c0-.1 0-.3-.1-.4-.1-.1-.1-.3-.2-.4-.1-.1-.3-.2-.4-.3-.2-.1-.4-.1-.6-.1-.2 0-.4 0-.6.1-.2.1-.3.2-.4.3-.1.1-.2.3-.3.4-.3.1-.3.2-.3.4zM422.9 326.6c0-.9.2-1.7.7-2.2.5-.6 1.1-.8 1.9-.8.3 0 .7.1 1 .2.3.2.6.4.8.7v-2.3c0-.2.1-.4.2-.5.1-.1.3-.2.6-.2.2 0 .4.1.5.2.1.1.2.3.2.5v6.6c0 .2-.1.4-.2.5-.1.1-.3.2-.6.2-.2 0-.4-.1-.5-.2-.1-.1-.2-.3-.2-.5v-.1c-.5.6-1.1.9-1.8.9-.8 0-1.4-.3-1.9-.8s-.7-1.2-.7-2.2zm1.5 0c0 .5.1.9.4 1.2.3.3.6.5 1.1.5.3 0 .5-.1.8-.2.2-.1.4-.3.6-.5v-2.1c-.1-.2-.3-.3-.6-.5-.2-.1-.5-.2-.8-.2-.4 0-.8.2-1.1.5s-.4.8-.4 1.3zM433.1 328.7c0-.1 0-.2.1-.3l2.3-6c.1-.3.3-.5.5-.6.2-.2.5-.2.8-.2h.1c.3 0 .5.1.8.2.3.2.5.4.6.7l2.3 6c0 .1.1.2.1.3 0 .2-.1.4-.3.6-.2.2-.4.3-.7.3-.2 0-.3-.1-.5-.2s-.3-.2-.3-.4l-.3-.9h-3.4l-.3.9c-.1.2-.2.3-.3.4-.2.1-.3.2-.5.2-.3 0-.5-.1-.6-.3-.3-.2-.4-.5-.4-.7zm2.6-2h2.5l-1.3-3.5-1.2 3.5zM441.2 324.4c0-.2.1-.4.2-.5.1-.2.3-.2.6-.2.2 0 .3 0 .4.1l.3.3 1.4 3.6 1.4-3.6c.1-.1.1-.3.3-.3s.3-.1.4-.1c.2 0 .4.1.6.2.1.2.2.3.2.5 0 .1 0 .2-.1.3l-1.7 4.2c-.1.2-.2.4-.4.5-.2.1-.4.2-.6.2-.2 0-.5-.1-.6-.2-.2-.1-.3-.3-.4-.5l-1.7-4.2c-.3-.1-.3-.2-.3-.3zM447.6 327.8c0-.3 0-.5.1-.7.1-.2.2-.4.3-.5.1-.1.3-.3.5-.4.2-.1.4-.2.5-.2.2 0 .4-.1.6-.1.4 0 .7.1 1.1.2.3.1.6.3.8.5v-.8c0-.3-.1-.5-.3-.7-.2-.2-.5-.3-.9-.3-.5 0-.9.1-1.3.4-.1.1-.2.1-.3.1-.1 0-.3-.1-.4-.2-.1-.1-.2-.2-.2-.4 0-.1 0-.2.1-.3.2-.3.5-.5 1-.6.5-.1.9-.2 1.4-.2.3 0 .7 0 1 .1.3.1.6.2.8.4.2.2.4.4.6.7.1.3.2.6.2 1v3.1c0 .2-.1.4-.2.5-.1.1-.3.2-.5.2H452.2s-.1 0-.2-.1c-.1 0-.1-.1-.2-.2s-.1-.2-.1-.3c-.2.2-.5.4-.8.5-.3.1-.7.2-1.1.2-.2 0-.5 0-.7-.1-.2-.1-.4-.2-.6-.4-.2-.2-.4-.4-.5-.6-.4-.2-.4-.5-.4-.8zm1.5 0c0 .3.1.5.3.6s.5.2.8.2c.3 0 .5 0 .7-.1.2-.1.4-.2.5-.4v-.7c-.1-.2-.3-.3-.5-.4-.2-.1-.5-.1-.7-.1-.3 0-.6.1-.8.2-.2.2-.3.4-.3.7zM454.7 322.8c-.2-.2-.3-.4-.3-.6s.1-.5.3-.6c.2-.2.4-.3.6-.3.3 0 .5.1.6.3.2.2.3.4.3.6s-.1.5-.3.6c-.2.2-.4.3-.6.3-.2 0-.4-.1-.6-.3zm-.1 6.1v-4.4c0-.2.1-.4.2-.5.1-.1.3-.2.6-.2.2 0 .4.1.5.2.1.1.2.3.2.5v4.4c0 .2-.1.4-.2.5-.1.1-.3.2-.5.2s-.4-.1-.5-.2c-.2-.2-.3-.3-.3-.5zM457.7 328.9v-6.7c0-.2.1-.4.2-.5.1-.1.3-.2.6-.2.2 0 .4.1.5.2.1.1.2.3.2.5v6.7c0 .2-.1.4-.2.5-.1.1-.3.2-.5.2s-.4-.1-.5-.2c-.2-.2-.3-.3-.3-.5zM460.5 327.8c0-.3 0-.5.1-.7.1-.2.2-.4.3-.5.1-.1.3-.3.5-.4.2-.1.4-.2.5-.2.2 0 .4-.1.6-.1.4 0 .7.1 1.1.2.3.1.6.3.8.5v-.8c0-.3-.1-.5-.3-.7-.2-.2-.5-.3-.9-.3-.5 0-.9.1-1.3.4-.1.1-.2.1-.3.1-.1 0-.3-.1-.4-.2-.1-.1-.2-.2-.2-.4 0-.1 0-.2.1-.3.2-.3.5-.5 1-.6.5-.1.9-.2 1.4-.2.3 0 .7 0 1 .1.3.1.6.2.8.4.2.2.4.4.6.7.1.3.2.6.2 1v3.1c0 .2-.1.4-.2.5-.1.1-.3.2-.5.2H464.8s-.1 0-.2-.1c-.1 0-.1-.1-.2-.2s-.1-.2-.1-.3c-.2.2-.5.4-.8.5-.3.1-.7.2-1.1.2-.2 0-.5 0-.7-.1-.2-.1-.4-.2-.6-.4-.2-.2-.4-.4-.5-.6 0-.2-.1-.5-.1-.8zm1.5 0c0 .3.1.5.3.6s.5.2.8.2c.3 0 .5 0 .7-.1.2-.1.4-.2.5-.4v-.7c-.1-.2-.3-.3-.5-.4-.2-.1-.5-.1-.7-.1-.3 0-.6.1-.8.2-.2.2-.3.4-.3.7zM467.5 328.9v-6.7c0-.2.1-.4.2-.5.1-.1.3-.2.6-.2.2 0 .4.1.5.2.1.1.2.3.2.5v2.3c.2-.3.5-.5.8-.7.3-.2.6-.2 1-.2.8 0 1.4.3 1.9.8s.7 1.3.7 2.2c0 .9-.2 1.7-.7 2.2s-1.1.8-1.9.8c-.7 0-1.3-.3-1.8-.9v.1c0 .2-.1.4-.2.5-.1.1-.3.2-.5.2s-.4-.1-.5-.2c-.2-.1-.3-.2-.3-.4zm1.6-1.2c.1.2.3.3.6.5.3.1.5.2.7.2.4 0 .8-.2 1.1-.5.3-.3.4-.7.4-1.2s-.1-.9-.4-1.2-.6-.5-1.1-.5c-.2 0-.5.1-.7.2-.2.1-.4.3-.6.5v2zM474.7 328.9v-6.7c0-.2.1-.4.2-.5.1-.1.3-.2.6-.2.2 0 .4.1.5.2.1.1.2.3.2.5v6.7c0 .2-.1.4-.2.5-.1.1-.3.2-.5.2s-.4-.1-.5-.2c-.2-.2-.3-.3-.3-.5zM477.5 326.6c0-.6.1-1.1.4-1.5.3-.5.6-.8 1.1-1.1.5-.3 1-.4 1.6-.4.6 0 1.2.2 1.7.5s.8.8 1 1.4c.1.4.2.7.2.9 0 .2-.1.4-.2.5-.1.1-.3.2-.5.2h-3.6c.1.4.2.7.5 1 .3.3.7.4 1.2.4.4 0 .8-.1 1.1-.3.1-.1.2-.1.3-.1.2 0 .3.1.5.2.1.1.2.3.2.4 0 .2-.1.3-.2.4l-.6.3c-.2.1-.5.1-.7.2-.2 0-.5.1-.7.1-.9 0-1.6-.3-2.2-.8-.8-.6-1.1-1.4-1.1-2.3zm1.5-.5h2.9c0-.1 0-.3-.1-.4-.1-.1-.1-.3-.2-.4-.1-.1-.3-.2-.4-.3-.2-.1-.4-.1-.6-.1-.2 0-.4 0-.6.1-.2.1-.3.2-.4.3-.1.1-.2.3-.3.4-.2.1-.2.2-.3.4zM484.3 331.1c0-.1 0-.2.1-.3.3-.7.5-1.3.7-2 .2-.7.2-1.4.2-2.1s-.1-1.5-.2-2.2c-.2-.7-.4-1.3-.7-2 0-.1-.1-.2-.1-.3 0-.2.1-.3.2-.5.1-.1.3-.2.5-.2s.4.1.5.2c.5.7.9 1.4 1.2 2.3.3.9.4 1.7.4 2.6 0 .9-.1 1.7-.4 2.6s-.7 1.7-1.2 2.3c-.1.2-.3.2-.5.2s-.3-.1-.5-.2-.2-.3-.2-.4z"/></g><g fill="#546E7A"><path d="M189.3 328.9c0-.1 0-.2.1-.3.1-.1.2-.2.3-.2.1 0 .2 0 .3.1.7.6 1.4.9 2.2.9.3 0 .6 0 .9-.1.3-.1.5-.2.6-.3.1-.1.2-.3.3-.4.1-.2.1-.3.1-.5s-.1-.4-.2-.6c-.1-.2-.3-.3-.4-.4l-.6-.3c-.2-.1-.5-.1-.8-.2-.3-.1-.5-.2-.8-.2-.3-.1-.5-.2-.7-.3s-.4-.2-.6-.4c-.2-.2-.3-.3-.4-.6s-.2-.5-.2-.8c0-.7.3-1.2.8-1.6.5-.4 1.2-.6 2-.6 1 0 1.9.3 2.6.9.1.1.2.2.2.4 0 .1 0 .2-.1.3-.1.1-.2.1-.3.1-.1 0-.2 0-.3-.1-.6-.5-1.3-.7-2.1-.7-.5 0-.9.1-1.2.4-.3.2-.5.5-.5.9 0 .2.1.4.2.5l.4.4c.2.1.4.2.6.2.2.1.5.1.8.2.3.1.5.2.8.2.3.1.5.2.7.3s.4.3.6.4c.2.2.3.4.4.6.1.3.2.5.2.9 0 .2 0 .5-.1.7l-.3.6c-.2.2-.3.4-.6.5-.2.1-.5.3-.8.4s-.7.1-1.1.1c-1.1 0-2-.3-2.8-1-.2-.1-.2-.2-.2-.4zM196.4 327.2c0-.6.1-1.1.4-1.5s.6-.8 1-1.1c.4-.3.9-.4 1.5-.4.7 0 1.3.2 1.8.6.5.4.8 1 .9 1.6.1.3.1.5.1.6 0 .1 0 .2-.1.3-.1.1-.2.1-.3.1h-4.2c0 .6.2 1 .6 1.4.4.4.9.6 1.5.6s1.1-.2 1.6-.5c.1 0 .1-.1.2-.1s.2 0 .2.1c.1.1.1.2.1.3 0 .1-.1.3-.2.4l-.6.3c-.2.1-.5.1-.7.2-.2 0-.5.1-.6.1-.9 0-1.6-.3-2.1-.9-.8-.4-1.1-1.2-1.1-2.1zm1-.3h3.8c0-.2 0-.5-.1-.7l-.3-.6c-.1-.2-.3-.4-.6-.5-.3-.1-.5-.2-.9-.2-.3 0-.6.1-.8.2-.2.1-.4.3-.6.5-.2.2-.3.4-.4.6-.1.2-.1.4-.1.7zM202.8 324.7c0-.1 0-.2.1-.3.1-.1.2-.1.3-.1h.7v-1.2c0-.1 0-.2.1-.3.1-.1.2-.1.3-.1.1 0 .2 0 .3.1.1.1.1.2.1.3v1.2h.9c.1 0 .2 0 .3.1.1.1.1.2.1.3 0 .1 0 .2-.1.3-.1.1-.2.1-.3.1h-.9v3.6c0 .2 0 .4.2.5s.2.2.4.2h.4c.1 0 .2 0 .3.1.1.1.1.2.1.3 0 .1 0 .2-.1.2-.1.1-.1.1-.3.2s-.2.1-.3.1h-.4c-.4 0-.7-.1-1-.4-.2-.2-.3-.6-.3-1v-3.8h-.7c-.1 0-.2 0-.3-.1.1-.1.1-.2.1-.3zM206.4 324.7c0-.1 0-.2.1-.3.1-.1.2-.1.3-.1h.7v-1.2c0-.1 0-.2.1-.3.1-.1.2-.1.3-.1.1 0 .2 0 .3.1.1.1.1.2.1.3v1.2h.9c.1 0 .2 0 .3.1.1.1.1.2.1.3 0 .1 0 .2-.1.3-.1.1-.2.1-.3.1h-.9v3.6c0 .2 0 .4.2.5s.2.2.4.2h.4c.1 0 .2 0 .3.1.1.1.1.2.1.3 0 .1 0 .2-.1.2-.1.1-.1.1-.3.2s-.2.1-.3.1h-.4c-.4 0-.7-.1-1-.4-.2-.2-.3-.6-.3-1v-3.8h-.7c-.1 0-.2 0-.3-.1.2-.1.1-.2.1-.3zM211 323.3c-.1-.1-.2-.3-.2-.4 0-.2.1-.3.2-.4.1-.1.3-.2.4-.2.2 0 .3.1.4.2.1.1.2.3.2.4 0 .2-.1.3-.2.4-.1.1-.3.2-.4.2-.2 0-.3 0-.4-.2zm0 6.5v-5.1c0-.1 0-.2.1-.3.1-.1.2-.1.3-.1.1 0 .2 0 .3.1.1.1.1.2.1.3v5.1c0 .1 0 .2-.1.3s-.2.1-.3.1c-.1 0-.2 0-.3-.1-.1-.1-.1-.2-.1-.3zM213.8 329.8v-5.1c0-.1 0-.2.1-.3.1-.1.2-.1.3-.1.1 0 .2 0 .3.1.1.1.1.2.1.3v.5c.2-.3.5-.5.9-.7.4-.2.8-.3 1.2-.3 1.2 0 1.9.6 1.9 1.9v3.7c0 .1 0 .2-.1.3s-.2.1-.3.1c-.1 0-.2 0-.3-.1-.1-.1-.1-.2-.1-.3v-3.4c0-.5-.1-.8-.3-1-.2-.2-.5-.3-1-.3-.3 0-.7.1-1 .3-.3.2-.6.4-.7.6v3.9c0 .1 0 .2-.1.3s-.2.1-.3.1c-.1 0-.2 0-.3-.1-.3-.2-.3-.3-.3-.4zM220.2 327.2c0-.9.2-1.7.7-2.2.5-.5 1.1-.8 1.9-.8.4 0 .7.1 1.1.3.3.2.6.4.9.8v-.5c0-.1 0-.2.1-.3.1-.1.2-.1.3-.1.1 0 .2 0 .3.1.1.1.1.2.1.3v5.3c0 .4-.1.7-.2 1-.1.3-.2.5-.4.7-.2.2-.4.3-.6.5-.2.1-.5.2-.8.3-.3.1-.5.1-.8.1-.5 0-.9-.1-1.2-.2s-.7-.3-1-.5c-.1-.1-.1-.2-.1-.3 0-.1 0-.2.1-.3.1-.1.2-.1.3-.1.1 0 .2 0 .3.1.2.2.5.3.7.4s.6.1.9.1c.3 0 .5 0 .7-.1l.6-.3c.2-.1.3-.3.4-.5.1-.2.2-.5.2-.8v-.8c-.2.3-.5.6-.8.8-.3.2-.7.3-1.1.3-.8 0-1.4-.3-1.9-.8-.5-.8-.7-1.6-.7-2.5zm.9 0c0 .6.2 1.2.5 1.6.3.4.8.6 1.4.6.3 0 .7-.1 1-.3s.6-.4.7-.7v-2.5c-.2-.3-.4-.5-.7-.7s-.7-.3-1-.3c-.6 0-1 .2-1.4.6s-.5 1.1-.5 1.7z"/></g><path fill="#546E7A" d="M324 481.6l-2.3-2.4-6.4 6.4-2.4-2.3-2.3 2.4 4.7 4.7 2.4-2.4h-.1zM325 435.4l-2.3-2.4-6.4 6.4-2.4-2.3-2.3 2.3 4.7 4.8 2.4-2.4h-.1zM486.8 481.6l-2.4-2.4-6.4 6.4-2.3-2.3-2.4 2.4 4.7 4.7 2.4-2.4h-.1zM486.8 435.4l-2.4-2.4-6.4 6.4-2.3-2.3-2.4 2.3 4.7 4.8 2.4-2.4h-.1zM321.8 527.3l-2.4-2.4-3.1 3.1-3.1-3.1-2.4 2.4 3.1 3.1-3.1 3.1 2.4 2.4 3.1-3.1 3.1 3.1 2.4-2.4-3.1-3.1zM480.3 369.5c-3.6 0-6.4 2.9-6.4 6.4 0 3.6 2.9 6.4 6.4 6.4 3.6 0 6.4-2.9 6.4-6.4.1-3.5-2.8-6.4-6.4-6.4zm4 8.4c-.2.2-.4.3-.7.3-.3 0-.5-.1-.7-.3l-2.5-2.5-2.5 2.5c-.4.4-1 .4-1.4 0-.4-.4-.4-1 0-1.4l3.9-3.9 3.9 3.9c.3.4.3 1 0 1.4z"/><g fill="#546E7A"><path d="M202 184.7h2.8l3.5 10.9 3.6-10.9h2.2l3.6 10.9 3.5-10.9h2.7l-5.1 14.8h-2.2L213 189l-3.6 10.6h-2.2l-5.2-14.9zM226.6 184.7h10.9v2.3h-8.3v3.8h7.4v2.3h-7.4v3.9h8.4v2.3h-11v-14.6zM240.6 184.7h5.5c4.6 0 7.8 3.2 7.8 7.3s-3.2 7.4-7.8 7.4h-5.5v-14.7zm2.6 2.4v10h2.9c3.1 0 5.1-2.1 5.1-5s-2-5-5.1-5h-2.9zM257.1 184.7h5.5c4.6 0 7.8 3.2 7.8 7.3s-3.2 7.4-7.8 7.4h-5.5v-14.7zm2.6 2.4v10h2.9c3.1 0 5.1-2.1 5.1-5s-2-5-5.1-5h-2.9zM273.6 184.7h2.6v14.7h-2.6v-14.7zM280.2 184.7h2.4l7.9 10.2v-10.2h2.5v14.7h-2.2l-8.1-10.5v10.5h-2.5v-14.7zM296.1 192.1c0-4.2 3.2-7.6 7.6-7.6 2.6 0 4.1.7 5.6 2l-1.6 2c-1.1-1-2.2-1.6-4.1-1.6-2.7 0-4.8 2.4-4.8 5.2 0 3 2 5.3 5 5.3 1.4 0 2.6-.4 3.5-1.1v-2.8h-3.8v-2.2h6.3v6.2c-1.4 1.2-3.5 2.3-6.1 2.3-4.6-.1-7.6-3.4-7.6-7.7zM312.3 184.7h1.8l4.2 12.2 4-12.3h1.4l4 12.3 4.2-12.2h1.7l-5.3 14.8H327l-4-11.9-4.1 11.9h-1.4l-5.2-14.8zM336.8 184.7h1.7v14.7h-1.7v-14.7zM342.8 184.7h6.3c1.8 0 3.3.5 4.2 1.5.7.7 1.1 1.7 1.1 2.9 0 2.4-1.7 3.9-4 4.3l4.5 6h-2l-4.3-5.7h-4.2v5.7h-1.7v-14.7h.1zm6.1 7.5c2.2 0 3.8-1.1 3.8-3 0-1.8-1.4-2.9-3.8-2.9h-4.5v6h4.5v-.1zM357.9 184.7h10.6v1.5h-9v5h8v1.5h-8v5.1h9.1v1.5h-10.7v-14.6zM195.9 184.1l-.4.4c-1.1 1.1-4 3.8-5.6 10.3v-5.7h-1v5.7c-1.6-6.5-4.5-9.3-5.6-10.3l-.4-.4-.8.6c.1.1.2.3.4.5 1.4 1.3 5.6 5.4 6.3 16.6v.1H189.7v-.1c.6-11.2 4.9-15.3 6.3-16.6.2-.2.3-.3.4-.5l-.5-.6zM189.4 177.9c-1.4 0-2.6 1.2-2.6 2.6 0 1.4 1.2 2.6 2.6 2.6 1.4 0 2.6-1.2 2.6-2.6 0-1.5-1.2-2.6-2.6-2.6zm0 5.9c-1.2 0-2.1.9-2.1 2.1 0 1.2.9 2.1 2.1 2.1 1.2 0 2.1-.9 2.1-2.1 0-1.1-.9-2.1-2.1-2.1zm-6.6-3c-1.4 0-2.6 1.2-2.6 2.6 0 1.4 1.1 2.6 2.6 2.6 1.4 0 2.6-1.2 2.6-2.6 0-1.5-1.2-2.6-2.6-2.6zm13.2 0c-1.4 0-2.6 1.2-2.6 2.6 0 1.4 1.2 2.6 2.6 2.6s2.6-1.2 2.6-2.6c0-1.5-1.1-2.6-2.6-2.6z"/></g></g></svg>