<svg xmlns="http://www.w3.org/2000/svg" viewBox="0 0 624.1 554.33"><defs><style>.cls-1,.cls-2,.cls-3,.cls-4{fill:none}.cls-1{stroke:#fff}.cls-1,.cls-2,.cls-3{stroke-miterlimit:10;stroke-width:2px}.cls-2{stroke:#ff3d2e}.cls-3{stroke:#f44336}</style></defs><title>city-blimp</title><g id="Layer_2" data-name="Layer 2"><g id="Layer_1-2" data-name="Layer 1"><path class="cls-1" d="M406.68 42c0-12.28 17.38-17.4 39.41-17.83 2 0 4.09-.07 6.12-.16l80.32-5.27C556 18.75 575 29.17 575 42m0 0c0 13.45-19 24.35-42.47 24.35l-80.32-5.51c-2-.09-4.08-.13-6.12-.17-22-.45-39.41-5.81-39.41-18.66"/><path class="cls-1" d="M406.68 42.32c0-5.26 17.38-7.45 39.41-7.64 2 0 4.09 0 6.12-.07l80.32-2.26c23.46 0 42.47 4.46 42.47 10"/><path class="cls-1" d="M575 42.32c0 5.76-19 10.43-42.47 10.43l-80.32-2.36c-2 0-4.08-.06-6.12-.07-22-.19-39.41-2.49-39.41-8M423 18V1h14.65l22.07 11.17 3.63-.38M423 67v20h14.65l23.23-14.95 3.75.63M406 43h-14"/><path class="cls-2" d="M519.56 78.59l-3.26 7.8C515 89.1 512.21 92 509.19 92h-18.81c-3.35 0-6.34-3.29-7.47-6.45l-4.13-11"/><path class="cls-3" d="M390.37 24.66a5.14 5.14 0 0 0-5.14 5.14c0 2.84 2.3 13.61 5.14 13.61s5.14-10.77 5.14-13.61a5.14 5.14 0 0 0-5.14-5.14z"/><path class="cls-3" d="M395.51 57c0-2.84-2.3-13.61-5.14-13.61s-5.14 10.79-5.14 13.61a5.14 5.14 0 1 0 10.28 0z"/><path class="cls-1" d="M532.53 79.7l-80.32-8.52c-2-.14-4.08-.2-6.12-.26-22-.69-39.41-9-39.41-28.84 0-19.86 17.38-28.15 39.41-28.84 2-.06 4.09-.12 6.12-.26l80.32-8.52C556 4.45 575 21.3 575 42.07c0 20.78-19 37.63-42.47 37.63zM575 35.12c3.25 0 5.88 3.12 5.88 7s-2.63 7-5.88 7"/><path class="cls-4" d="M0 1h624.1v553.33H0z"/></g></g></svg>