<svg xmlns="http://www.w3.org/2000/svg" viewBox="0 0 625.1 553.33"><defs><style>.cls-1,.cls-2,.cls-3{fill:none}.cls-1,.cls-2{stroke:#ff3d2e;stroke-miterlimit:10;stroke-width:2px}.cls-2{stroke:#0091ea}</style></defs><title>city-right</title><g id="Layer_2" data-name="Layer 2"><g id="Layer_1-2" data-name="Layer 1"><path class="cls-1" d="M554.99 308.52h-17.64v-54.39h17.64z"/><path class="cls-2" d="M624.1 553.33v-326.9H401.58v326.9"/><path class="cls-2" d="M414.92 553.33V242.92h-13.34v310.41m222.52 0V242.92h-13.34v310.41m13.34-310.41H401.58v-16.49H624.1zm-26.14 0v310.41M428.44 242.92v310.41m158.74-244.81h-17.64v-54.39h17.64zm-64.38 0h-17.64v-54.39h17.64zm-32.19 0h-17.64v-54.39h17.64zm-32.18 0h-17.64v-54.39h17.64zm128.75 66.29h-17.64v-54.39h17.64zm-32.19 0h-17.64v-54.39h17.64zm-32.19 0h-17.64v-54.39h17.64zm-32.19 0h-17.64v-54.39h17.64zm-32.18 0h-17.64v-54.39h17.64zm128.75 27.67h-146.4v-15.74h146.4zm0-176.05h-146.4v-16.07h146.4zm0 280.99h-17.64v-54.39h17.64zm-32.19 0h-17.64v-54.39h17.64zm-32.19 0h-17.64v-54.39h17.64z"/><path class="cls-1" d="M490.61 507.42h-17.64v-54.39h17.64z"/><path class="cls-2" d="M458.43 507.42h-17.64v-54.39h17.64zm111.12-94.94v30.59m17.63 0v-30.59m-49.82 0v30.59m17.64 0v-30.59m-49.83 0v30.59m17.64 0v-30.59m-49.83 0v30.59m17.64 0v-30.59m-49.83 0v30.59m17.64 0v-30.59m128.75 140.85v-33.99h-17.63v33.99"/><path class="cls-1" d="M555 553.33v-33.99h-17.64v33.99"/><path class="cls-2" d="M522.81 553.33v-33.99h-17.64v33.99m-14.55 0v-33.99h-17.64v33.99m-14.55 0v-33.99h-17.64v33.99"/><path class="cls-3" d="M0 0h624.1v553.33H0z"/></g></g></svg>