<svg xmlns="http://www.w3.org/2000/svg" viewBox="0 0 624.1 553.43"><defs><style>.cls-1,.cls-4{fill:none}.cls-1,.cls-2{stroke:#0091ea}.cls-1,.cls-2,.cls-3{stroke-miterlimit:10;stroke-width:2px}.cls-2,.cls-3{fill:#104f79}.cls-3{stroke:#ff3d2e}</style></defs><title>city-middle</title><g id="Layer_2" data-name="Layer 2"><g id="Layer_1-2" data-name="Layer 1"><path class="cls-1" d="M227.72 86.66v194.56L341 382.92V188.36"/><path class="cls-1" d="M227.72 105.89v194.57L341 402.16V207.6M239.05 96.83v194.56M250.38 107v194.56m11.33-184.39v194.56m11.32-184.39V321.9m11.33-184.39v194.56m11.33-184.39v194.56m11.33-184.39v194.56m11.33-184.39v194.56m11.33-184.39v194.56"/><path class="cls-1" d="M364.14 553.33V171.86L205.04 30.92v522.41"/><path class="cls-1" d="M353.07 553.33V179.86L216.1 60.26v493.07m22.95-241.6v241.7m11.33-231.53v231.53m11.33-221.36v221.36m11.32-211.19v211.19m11.33-201.02v201.02m11.33-190.85v190.85m11.33-180.68v180.68m11.33-170.51v170.51m11.33-160.34v160.24"/><path class="cls-2" d="M295.7 505.99h-22.66v-57.64h22.66zm-33.99 0h-22.66v-57.64h22.66z"/><path class="cls-3" d="M329.68 505.99h-22.66v-57.64h22.66z"/><path class="cls-2" d="M295.7 431.63h-22.66v-27.56h22.66z"/><path class="cls-3" d="M261.71 431.63h-22.66v-27.56h22.66z"/><path class="cls-2" d="M261.71 387.9h-22.66v-27.56h22.66zm67.97 43.73h-22.66v-27.56h22.66zm-33.98 118.4h-22.66v-27.56h22.66zm-33.99 0h-22.66v-27.56h22.66zm67.97 0h-22.66v-27.56h22.66zm0-242.58h-22.66v-27.56h22.66z"/><path class="cls-3" d="M295.7 261.02h-22.66v-27.56h22.66z"/><path class="cls-2" d="M261.71 261.02h-22.66v-27.56h22.66zm67.97 0h-22.66v-27.56h22.66zm-33.98-44.29h-22.66v-27.56h22.66zm-33.99 0h-22.66v-27.56h22.66zm0-43.73h-22.66v-27.56h22.66zm67.97 43.73h-22.66v-27.56h22.66z"/><path class="cls-1" d="M341.01 393.09v160.34M227.72 291.39v261.94"/><path class="cls-4" d="M0 0h624.1v553.33H0z"/></g></g></svg>