<svg xmlns="http://www.w3.org/2000/svg" viewBox="0 0 624.96 553.33"><defs><style>.cls-1,.cls-2,.cls-3{fill:none}.cls-1,.cls-2{stroke:#ff3d2e;stroke-miterlimit:10;stroke-width:2px}.cls-2{stroke:#0091ea}</style></defs><title>city-left</title><g id="Layer_2" data-name="Layer 2"><g id="Layer_1-2" data-name="Layer 1"><path class="cls-1" d="M68.49 223.35H55.9v-36.06h12.59zm67.32 69.85h-12.59v-36.06h12.59zm-89.76 24.72H33.46V303.5h12.59zm44.88 184.82H78.34v-36.06h12.59z"/><path class="cls-2" d="M168.84 553.33V168.02H1v385.31"/><path class="cls-2" d="M155.15 168.03H14.69v-54.15h140.46zm-9.99-54.16a60.24 60.24 0 1 0-120.48 0"/><path class="cls-2" d="M132.83 113.87c0-33.27-21.45-60.24-47.91-60.24S37 80.61 37 113.87"/><path class="cls-2" d="M117.59 113.87c0-33.27-14.63-60.24-32.67-60.24s-32.67 27-32.67 60.24"/><path class="cls-2" d="M99.39 113.87c0-33.27-6.48-60.24-14.47-60.24s-14.47 27-14.47 60.24m78.21 54.15H20.72v-30.86h127.94zM25.44 137.86v-14.49m117.99 14.49v-14.49M135 137.86v-14.49m-8.43 14.49v-14.49m-8.43 14.49v-14.49m-8.42 14.49v-14.49m-8.43 14.49v-14.49m-8.43 14.49v-14.49m-8.43 14.49v-14.49M76 137.86v-14.49m-8.42 14.49v-14.49m-8.43 14.49v-14.49m-8.43 14.49v-14.49m-8.43 14.49v-14.49m-8.43 14.49v-14.49"/><path class="cls-2" d="M72.84 54.36c0-3.33 5.41-6 12.08-6S97 51 97 54.36"/><path class="cls-2" d="M89.67 48.8l-4.38-21.74a.79.79 0 0 0-1.56 0L80.17 48.8m63.26 110.41h-23.95v-11.12h23.95zm-31.35 0H88.13v-11.12h23.95zm-31.34 0H56.79v-11.12h23.95zm-31.36 0H25.43v-11.12h23.95zm108.87 64.14h-12.59v-36.06h12.59zm-22.44 0h-12.59v-36.06h12.59zm-22.44 0h-12.59v-36.06h12.59zm-22.44 0H78.34v-36.06h12.59zm-44.88 0H33.46v-36.06h12.59zm-22.44 0H11.02v-36.06h12.59zm134.64 24.73h-12.59v-14.42h12.59zm-22.44 0h-12.59v-14.42h12.59zm-22.44 0h-12.59v-14.42h12.59zm-22.44 0H78.34v-14.42h12.59zm-22.44 0H55.9v-14.42h12.59zm-22.44 0H33.46v-14.42h12.59zm-22.44 0H11.02v-14.42h12.59zm134.64 45.12h-12.59v-36.06h12.59zm-44.88 0h-12.59v-36.06h12.59zm-22.44 0H78.34v-36.06h12.59zm-22.44 0H55.9v-36.06h12.59zm-22.44 0H33.46v-36.06h12.59zm-22.44 0H11.02v-36.06h12.59zm134.64 24.72h-12.59V303.5h12.59zm-22.44 0h-12.59V303.5h12.59zm-22.44 0h-12.59V303.5h12.59zm-22.44 0H78.34V303.5h12.59zm-22.44 0H55.9V303.5h12.59zm-44.88 0H11.02V303.5h12.59zm134.64 45.13h-12.59v-36.06h12.59zm-22.44 0h-12.59v-36.06h12.59zm-22.44 0h-12.59v-36.06h12.59zm-22.44 0H78.34v-36.06h12.59zm-22.44 0H55.9v-36.06h12.59zm-22.44 0H33.46v-36.06h12.59zm-22.44 0H11.02v-36.06h12.59zm134.64 24.72h-12.59v-14.42h12.59zm-22.44 0h-12.59v-14.42h12.59zm-22.44 0h-12.59v-14.42h12.59zm-22.44 0H78.34v-14.42h12.59zm-22.44 0H55.9v-14.42h12.59zm-22.44 0H33.46v-14.42h12.59zm-22.44 0H11.02v-14.42h12.59zm134.64 45.12h-12.59v-36.06h12.59zm-22.44 0h-12.59v-36.06h12.59zm-22.44 0h-12.59v-36.06h12.59zm-22.44 0H78.34v-36.06h12.59zm-22.44 0H55.9v-36.06h12.59zm-22.44 0H33.46v-36.06h12.59zm-22.44 0H11.02v-36.06h12.59zm134.64 24.72h-12.59v-14.42h12.59zm-22.44 0h-12.59v-14.42h12.59zm-22.44 0h-12.59v-14.42h12.59zm-22.44 0H78.34v-14.42h12.59zm-22.44 0H55.9v-14.42h12.59zm-22.44 0H33.46v-14.42h12.59zm-22.44 0H11.02v-14.42h12.59zm134.64 45.13h-12.59v-36.06h12.59zm-22.44 0h-12.59v-36.06h12.59zm-22.44 0h-12.59v-36.06h12.59zm-44.88 0H55.9v-36.06h12.59zm-22.44 0H33.46v-36.06h12.59zm-22.44 0H11.02v-36.06h12.59zm134.64 24.72h-12.59v-14.42h12.59zm-22.44 0h-12.59v-14.42h12.59zm-22.44 0h-12.59v-14.42h12.59zm-22.44 0H78.34v-14.42h12.59zm-22.44 0H55.9v-14.42h12.59zm-22.44 0H33.46v-14.42h12.59zm-22.44 0H11.02v-14.42h12.59zm134.65 25.87v-16.8h-12.59v16.8m-9.85 0v-16.8h-12.59v16.8m-9.85 0v-16.8h-12.59v16.8m-9.85 0v-16.8h-12.6v16.8m-9.84 0v-16.8H55.91v16.8m-9.85 0v-16.8H33.47v16.8m-9.85 0v-16.8H11.03v16.8M168.86 180H.86m14-57h140"/><path class="cls-3" d="M.86 0h624.1v553.33H.86z"/></g></g></svg>