<svg xmlns="http://www.w3.org/2000/svg" viewBox="0 0 774.33 137.35"><defs><style>.cls-1,.cls-2,.cls-3{fill:none;}.cls-1{stroke:#08537e;}.cls-1,.cls-2{stroke-miterlimit:10;stroke-width:2px;}.cls-2{stroke:#ff3d2e;stroke-linecap:square;}</style></defs><title>icon-speed-3</title><g id="Layer_2" data-name="Layer 2"><g id="Layer_1-2" data-name="Layer 1"><path class="cls-1" d="M370.34,80.79a28,28,0,0,0-1.82,9.63,26.47,26.47,0,1,0,52.94.31,27.81,27.81,0,0,0-1.69-9.61"/><path class="cls-1" d="M462.77,113.12a77.39,77.39,0,0,0,4.84-26.6,73.23,73.23,0,0,0-73-73.27c-40.34,0-73,33-73,73.38a76.74,76.74,0,0,0,4.84,26.48"/><circle class="cls-2" cx="394.56" cy="92.31" r="12.47" transform="translate(128.33 397.79) rotate(-62.09)"/><path class="cls-1" d="M393.33,31.75v0ZM411,27.08l-1.85,6.66-1.85,6.66,1.85-6.66Zm15.26,6.57-3.57,5.92-3.57,5.92,3.57-5.92Zm7.92,15.17-5,4.75,5-4.75,5-4.75Zm8.59,12C439.42,62.59,430.94,67,430.94,67s8.47-4.44,11.85-6.22l6.11-3.23Zm5.07,13.84-6.76,1.48,6.76-1.48,6.76-1.48ZM456,89.72,449,89.34,442.14,89l6.91.38Zm-9.7,14.09-6.55-2.22,6.55,2.22L452.8,106ZM380,33.75l1.85,6.66L380,33.75l-1.85-6.66Zm-17.11-.09,3.57,5.92L370,45.5l-3.57-5.92ZM349.9,44.07l5,4.75,5,4.75-5-4.75Zm-9.68,13.5,6.11,3.23c3.38,1.79,11.49,6.22,11.49,6.22s-8.11-4.44-11.49-6.22Zm-5.71,15.6,6.76,1.48L348,76.12l-6.76-1.48Zm5.58,16.18L347,89l-6.91.38-6.91.38Zm2.8,14.48,6.55-2.22-6.55,2.22L336.33,106Z"/><path class="cls-2" d="M437.75,71.39,405.59,87.11l32.16-15.72,17.58-8.59Z"/><rect class="cls-3" width="774.33" height="137.35"/></g></g></svg>