<svg xmlns="http://www.w3.org/2000/svg" viewBox="0 0 774.33 137.35"><defs><style>.cls-1{fill:#ff3d2e}.cls-2,.cls-3{fill:none}.cls-2{stroke:#08537e;stroke-miterlimit:10;stroke-width:2px}</style></defs><title>icon-paper</title><g id="Layer_2" data-name="Layer 2"><g id="Layer_1-2" data-name="Layer 1"><path class="cls-1" d="M712.85 39.48a.36.36 0 0 0-.34.22l-1 2.43-2.63.22a.36.36 0 0 0-.21.64l2 1.74-.67 2.57a.37.37 0 0 0 .36.45.36.36 0 0 0 .19-.05l2.27-1.38 2.27 1.38a.36.36 0 0 0 .19.05.37.37 0 0 0 .36-.45l-.6-2.58 2-1.74a.36.36 0 0 0-.21-.64l-2.63-.22-1-2.43a.36.36 0 0 0-.34-.22zm10.2 0a.36.36 0 0 0-.34.22l-1 2.43-2.63.22a.36.36 0 0 0-.21.64l2 1.74-.6 2.58a.37.37 0 0 0 .36.45.36.36 0 0 0 .19-.05l2.27-1.38 2.27 1.38a.36.36 0 0 0 .19.05.37.37 0 0 0 .36-.45l-.6-2.58 2-1.74a.37.37 0 0 0-.21-.64l-2.63-.22-1-2.43a.36.36 0 0 0-.34-.22zm10.21 0a.36.36 0 0 0-.34.22l-1 2.43-2.63.22a.37.37 0 0 0-.29.65l2 1.74-.6 2.58a.37.37 0 0 0 .36.45.36.36 0 0 0 .19-.05l2.27-1.38 2.27 1.38a.36.36 0 0 0 .19.05.37.37 0 0 0 .36-.45l-.6-2.58 2-1.74a.36.36 0 0 0-.21-.64l-2.63-.22-1-2.43a.36.36 0 0 0-.34-.22zm10.2 0a.36.36 0 0 0-.34.22l-1 2.43-2.63.22a.36.36 0 0 0-.21.64l2 1.74-.6 2.58a.37.37 0 0 0 .36.45.36.36 0 0 0 .19-.05l2.27-1.38 2.27 1.38a.36.36 0 0 0 .19.05.37.37 0 0 0 .36-.45l-.6-2.58 2-1.74a.36.36 0 0 0-.21-.64l-2.63-.22-1-2.43a.36.36 0 0 0-.34-.22zm10.21 0a.36.36 0 0 0-.34.22l-1 2.43-2.63.22a.36.36 0 0 0-.21.64l2 1.74-.6 2.58a.37.37 0 0 0 .36.45.36.36 0 0 0 .19-.05l2.27-1.38 2.27 1.38a.36.36 0 0 0 .19.05.37.37 0 0 0 .36-.45l-.6-2.58 2-1.74a.36.36 0 0 0-.21-.64l-2.72-.22-1-2.43a.36.36 0 0 0-.34-.22z"/><path class="cls-2" d="M773.33 136.33h-107v-121h90v16h17v105zm-91-70h74m-74 12h32m-32 10h32m-32 12h74m-74 11h74m-74 11h54m20.24-107.08l17.06 16.07"/><circle class="cls-2" cx="691.79" cy="43.61" r="8.31"/><circle class="cls-2" cx="691.79" cy="41.59" r="2.92"/><path class="cls-2" d="M686.35 49.66a5.9 5.9 0 0 1 10.83-.1m25.15 24.77h34v16h-34z"/><path class="cls-3" d="M0 0h774.33v137.35H0z"/></g></g></svg>