<svg xmlns="http://www.w3.org/2000/svg" viewBox="0 0 774.33 137.35"><defs><style>.cls-1,.cls-2,.cls-3{fill:none}.cls-1,.cls-2{stroke:#08537e;stroke-miterlimit:10;stroke-width:2px}.cls-2{stroke:#ff3d2e;stroke-linecap:square}</style></defs><title>icon-speed-3</title><g id="Layer_2" data-name="Layer 2"><g id="Layer_1-2" data-name="Layer 1"><path class="cls-1" d="M370.34 80.79a28 28 0 0 0-1.82 9.63 26.47 26.47 0 1 0 52.94.31 27.81 27.81 0 0 0-1.69-9.61"/><path class="cls-1" d="M462.77 113.12a77.39 77.39 0 0 0 4.84-26.6 73.23 73.23 0 0 0-73-73.27c-40.34 0-73 33-73 73.38a76.74 76.74 0 0 0 4.84 26.48"/><circle class="cls-2" cx="394.56" cy="92.31" r="12.47" transform="rotate(-62.09 394.594 92.296)"/><path class="cls-1" d="M393.33 31.75zM411 27.08l-1.85 6.66-1.85 6.66 1.85-6.66zm15.26 6.57l-3.57 5.92-3.57 5.92 3.57-5.92zm7.92 15.17l-5 4.75 5-4.75 5-4.75zm8.59 12c-3.35 1.77-11.83 6.18-11.83 6.18s8.47-4.44 11.85-6.22l6.11-3.23zm5.07 13.84l-6.76 1.48 6.76-1.48 6.76-1.48zM456 89.72l-7-.38-6.86-.34 6.91.38zm-9.7 14.09l-6.55-2.22 6.55 2.22 6.5 2.19zM380 33.75l1.85 6.66-1.85-6.66-1.85-6.66zm-17.11-.09l3.57 5.92L370 45.5l-3.57-5.92zM349.9 44.07l5 4.75 5 4.75-5-4.75zm-9.68 13.5l6.11 3.23c3.38 1.79 11.49 6.22 11.49 6.22s-8.11-4.44-11.49-6.22zm-5.71 15.6l6.76 1.48 6.73 1.47-6.76-1.48zm5.58 16.18L347 89l-6.91.38-6.91.38zm2.8 14.48l6.55-2.22-6.55 2.22-6.56 2.17z"/><path class="cls-2" d="M437.75 71.39l-32.16 15.72 32.16-15.72 17.58-8.59z"/><path class="cls-3" d="M0 0h774.33v137.35H0z"/></g></g></svg>