<svg xmlns="http://www.w3.org/2000/svg" viewBox="0 0 774.33 137.35"><defs><style>.cls-1,.cls-2,.cls-3{fill:none}.cls-1,.cls-2{stroke:#08537e;stroke-miterlimit:10;stroke-width:2px}.cls-2{stroke:#ff3d2e}</style></defs><title>icon-person</title><g id="Layer_2" data-name="Layer 2"><g id="Layer_1-2" data-name="Layer 1"><circle class="cls-1" cx="58.52" cy="47.77" r="22.29"/><path class="cls-1" d="M99.92 78.42a28.18 28.18 0 0 1 12 2.66A57.4 57.4 0 1 0 73 115.37a28.31 28.31 0 0 1 9.71-31.1"/><path class="cls-1" d="M72 102.08a28.27 28.27 0 0 1 10.69-17.81 42.15 42.15 0 0 0-62.8 18.28"/><path class="cls-2" d="M119.14 100.94a20.06 20.06 0 1 1-8.92-11.45M92.5 102.67l7.58 7.58 19.53-19.53" id="_Group_" data-name="&lt;Group&gt;"/><path class="cls-1" d="M45.83 56.32A14.53 14.53 0 0 0 58.52 63a14.53 14.53 0 0 0 12.69-6.67"/><path class="cls-3" d="M0 0h774.33v137.35H0z"/></g></g></svg>