<svg xmlns="http://www.w3.org/2000/svg" viewBox="0 0 624.1 553.43"><defs><style>.cls-1,.cls-4{fill:none;}.cls-1,.cls-2{stroke:#0091ea;}.cls-1,.cls-2,.cls-3{stroke-miterlimit:10;stroke-width:2px;}.cls-2,.cls-3{fill:#104f79;}.cls-3{stroke:#ff3d2e;}</style></defs><title>city-middle</title><g id="Layer_2" data-name="Layer 2"><g id="Layer_1-2" data-name="Layer 1"><path class="cls-1" d="M227.72 86.66v194.56L341 382.92V188.36"/><path class="cls-1" d="M227.72 105.89v194.57L341 402.16V207.6M239.05 96.83v194.56M250.38 107v194.56M261.71 117.17v194.56M273.03 127.34V321.9M284.36 137.51v194.56M295.69 147.68v194.56M307.02 157.85v194.56M318.35 168.02v194.56M329.68 178.19v194.56"/><path class="cls-1" d="M364.14 553.33V171.86L205.04 30.92v522.41"/><path class="cls-1" d="M353.07 553.33V179.86L216.1 60.26v493.07M239.05 311.73v241.7M250.38 321.9v231.53M261.71 332.07v221.36M273.03 342.24v211.19M284.36 352.41v201.02M295.69 362.58v190.85M307.02 372.75v180.68M318.35 382.92v170.51M329.68 393.09v160.24"/><path class="cls-2" d="M295.7 505.99h-22.66v-57.64h22.66zM261.71 505.99h-22.66v-57.64h22.66z"/><path class="cls-3" d="M329.68 505.99h-22.66v-57.64h22.66z"/><path class="cls-2" d="M295.7 431.63h-22.66v-27.56h22.66z"/><path class="cls-3" d="M261.71 431.63h-22.66v-27.56h22.66z"/><path class="cls-2" d="M261.71 387.9h-22.66v-27.56h22.66zM329.68 431.63h-22.66v-27.56h22.66zM295.7 550.03h-22.66v-27.56h22.66zM261.71 550.03h-22.66v-27.56h22.66zM329.68 550.03h-22.66v-27.56h22.66zM329.68 307.45h-22.66v-27.56h22.66z"/><path class="cls-3" d="M295.7 261.02h-22.66v-27.56h22.66z"/><path class="cls-2" d="M261.71 261.02h-22.66v-27.56h22.66zM329.68 261.02h-22.66v-27.56h22.66zM295.7 216.73h-22.66v-27.56h22.66zM261.71 216.73h-22.66v-27.56h22.66zM261.71 173h-22.66v-27.56h22.66zM329.68 216.73h-22.66v-27.56h22.66z"/><path class="cls-1" d="M341.01 393.09v160.34M227.72 291.39v261.94"/><path class="cls-4" d="M0 0h624.1v553.33H0z"/></g></g></svg>