<svg xmlns="http://www.w3.org/2000/svg" viewBox="0 0 678 585"><defs><style>.cls-1{fill:#ff1744;}.cls-2{fill:#e4e4e4;}.cls-3{fill:#fff;}.cls-4{fill:#607d8b;}.cls-5{fill:#fafafa;}.cls-6{fill:#f0f0f0;}.cls-7{fill:#2c2c3e;}</style></defs><g id="Layer_2" data-name="Layer 2"><g id="Layer_1-2" data-name="Layer 1"><path class="cls-1" d="M0 0h678v585H0z"/><path class="cls-2" d="M531.2 59v526H148.22V59z"/><path class="cls-3" d="M172.07 260.49h333.91v53.66H172.07z"/><path class="cls-4" d="M199.95 287.53l-4-7.13h2.49l2.65 5 2.64-5h2.37l-4 7.16v4.74h-2.15zm8.33.87v-3.8a4.49 4.49 0 0 1 4.76-4.39c2.59 0 4.84 1.69 4.84 4.34v3.57a4.49 4.49 0 0 1-4.76 4.39c-2.59 0-4.84-1.45-4.84-4.11zm7.4-.17v-3.81a2.38 2.38 0 0 0-2.64-2.25 2.32 2.32 0 0 0-2.55 2.3v3.81a2.38 2.38 0 0 0 2.64 2.25 2.32 2.32 0 0 0 2.54-2.3zm5.89-.03v-7.8h2.22v7.53a2.25 2.25 0 0 0 2.44 2.55c1.62 0 2.44-.85 2.44-2.55v-7.53h2.22v7.6c0 2.84-1.89 4.46-4.66 4.46s-4.66-1.4-4.66-4.26zm13.3-7.79h4.71c2.24 0 4 1.3 4 3.74a3.56 3.56 0 0 1-2.35 3.46l3 4.71h-2.43l-2.8-4.47h-1.92v4.46h-2.22zm4.44 5.58c1.29 0 2.14-.62 2.14-1.85 0-1.4-.94-1.85-2.17-1.85h-2.19V286zm17.35-5.6h2l4.39 11.92h-2.35l-.87-2.54h-4.54l-.9 2.54h-2.19zm2.57 7.48l-1.62-4.77-1.64 4.77zm4.48-7.46h2.4l2.69 8.76 2.69-8.76h2.2l-3.94 12h-2.17zm14.87-.02h2l4.42 11.92h-2.35l-.87-2.54h-4.54l-.9 2.54h-2.19zm2.57 7.48l-1.62-4.77-1.64 4.77zm6.91-7.46h2.22v11.9h-2.22zm6.3 0h2.22v9.95h5.79v2h-8zm15.08-.02h2l4.39 11.92h-2.35l-.87-2.54h-4.51l-.9 2.54H305zm2.57 7.48l-1.62-4.77-1.64 4.77zm6.91-7.46H324c2.3 0 3.67 1 3.67 3.07A2.61 2.61 0 0 1 326 286a2.79 2.79 0 0 1 2.05 2.87c0 2.24-1.79 3.42-3.76 3.42h-5.39zm4.84 4.89c1.12 0 1.77-.57 1.77-1.54s-.75-1.47-1.87-1.47h-2.52v3zm.17 5.13c1.19 0 1.94-.58 1.94-1.67s-.68-1.59-1.92-1.59h-2.8v3.26zm7.71-10.02h2.22v11.9h-2.22zm6.29 0h2.22v9.95h5.79v2h-8zm11.32 0h2.22v11.9h-2.22zm8.97 1.9h-3.42v-1.9h9v1.9h-3.42v10h-2.2zm11.78 5.22l-4-7.13h2.49l2.65 5 2.64-5h2.37l-4 7.16v4.74H370z"/><path class="cls-5" d="M172.07 397.63h333.91v119.25H172.07z"/><path class="cls-1" d="M172.11 474.87h333.91v41.74H172.11z"/><path class="cls-4" d="M196.74 459.57h3v-10.18l-2.77.52-.08-.72 3.41-.77h.47v11.15h2.8v.78h-6.83zm9.03.12l3.14-3.52c1.29-1.47 2.24-2.87 2.24-4.87a2.1 2.1 0 0 0-2.35-2.22c-1.34 0-2.32.72-2.32 2v.43h-1V451c0-1.85 1.42-2.82 3.41-2.82 2.22 0 3.31 1.3 3.31 3.09 0 2.34-1.32 4-3 6l-2 2.2h5.38v.87h-6.74zm9.13-7.3h1.1v1.77h-1.1zm0 6.19h1.1v1.77h-1.1zm3.71-1.38v-5.56c0-2.22 1.8-3.41 3.86-3.41s3.79 1.19 3.79 3.41v5.54c0 2.19-1.77 3.39-3.79 3.39s-3.86-1.13-3.86-3.37zm6.59-.1v-5.49a2.54 2.54 0 0 0-2.75-2.54 2.59 2.59 0 0 0-2.79 2.6v5.48a2.57 2.57 0 0 0 2.8 2.57 2.51 2.51 0 0 0 2.74-2.62zm3.48.1v-5.56c0-2.22 1.8-3.41 3.86-3.41s3.79 1.19 3.79 3.41v5.54c0 2.19-1.77 3.39-3.79 3.39s-3.86-1.13-3.86-3.37zm6.59-.1v-5.49a2.54 2.54 0 0 0-2.75-2.54 2.59 2.59 0 0 0-2.79 2.6v5.48a2.57 2.57 0 0 0 2.8 2.57 2.51 2.51 0 0 0 2.74-2.62zm7.63-3.55h2.33a2 2 0 0 1 2.16 2 2 2 0 0 1-2.29 2.05h-1.6v2.74h-.6zm2 3.55c1.13 0 1.84-.51 1.84-1.54a1.48 1.48 0 0 0-1.62-1.5h-1.62v3zm3.92-3.55h.74l2.26 4.15 2.21-4.15h.76v6.8h-.59v-5.76l-2.15 3.93h-.48l-2.15-3.92v5.75h-.58zm18.92 1.58h7.48v.72h-7.48zm-71.01-33.32h1.74l2 4.78 1.92-4.78h1.74v7.65h-1.37v-5.1l-1.76 4.21h-1.13l-1.74-4.19v5.07h-1.37zm9.81 5.13v-2.44a3.1 3.1 0 0 1 6.17 0v2.3a2.89 2.89 0 0 1-3.06 2.82c-1.65-.04-3.11-.97-3.11-2.68zm4.75-.11v-2.45a1.53 1.53 0 0 0-1.69-1.45 1.49 1.49 0 0 0-1.64 1.48v2.45a1.53 1.53 0 0 0 1.7 1.45 1.49 1.49 0 0 0 1.63-1.47zm3.84-5.02h1.38l3.33 5.21v-5.21h1.37v7.65h-1.39l-3.31-5.22v5.22h-1.37zm8.72 0h3a2.81 2.81 0 0 1 3 2.79v2a2.84 2.84 0 0 1-3 2.82h-3zm2.94 6.39a1.49 1.49 0 0 0 1.64-1.48v-2.21a1.53 1.53 0 0 0-1.69-1.45h-1.46v5.14zm7.45-6.41h1.31l2.82 7.66h-1.51l-.56-1.63h-2.92l-.58 1.63h-1.4zm1.65 4.81l-1-3.07-1.05 3.07zm5.43-.21l-2.56-4.58h1.6l1.71 3.21 1.7-3.21h1.52l-2.57 4.6v3h-1.38zm47.53 32.08h3v-10.18l-2.77.52-.08-.72 3.41-.77h.47v11.15h2.8v.78h-6.83zm9.04-7.18H299v1.77h-1.08zm0 6.19H299v1.77h-1.08zm3.71-1.38v-5.56c0-2.22 1.8-3.41 3.86-3.41s3.79 1.19 3.79 3.41v5.54c0 2.19-1.77 3.39-3.79 3.39s-3.86-1.13-3.86-3.37zm6.59-.1v-5.49a2.54 2.54 0 0 0-2.75-2.54 2.59 2.59 0 0 0-2.79 2.6V456a2.57 2.57 0 0 0 2.8 2.57 2.51 2.51 0 0 0 2.74-2.57zm3.48.1v-5.56c0-2.22 1.8-3.41 3.86-3.41s3.79 1.19 3.79 3.41v5.54c0 2.19-1.77 3.39-3.79 3.39s-3.86-1.13-3.86-3.37zm6.59-.1v-5.49a2.54 2.54 0 0 0-2.75-2.54 2.59 2.59 0 0 0-2.79 2.6V456a2.57 2.57 0 0 0 2.8 2.57 2.51 2.51 0 0 0 2.74-2.57zm7.64-3.55h2.33a2 2 0 0 1 2.16 2 2 2 0 0 1-2.29 2.05h-1.6v2.74h-.6zm2 3.55c1.13 0 1.84-.51 1.84-1.54a1.48 1.48 0 0 0-1.62-1.5h-1.62v3zm3.92-3.55h.74l2.26 4.15 2.21-4.15h.76v6.8h-.59v-5.76l-2.2 3.93h-.48l-2.15-3.92v5.75h-.58z"/><path class="cls-1" d="M478 433.18a7.16 7.16 0 1 1 7.16-7.16 7.16 7.16 0 0 1-7.16 7.16zm0-13.12a6 6 0 1 0 6 6 6 6 0 0 0-6-6z"/><path class="cls-1" d="M474.25 425.43h7.5v1.19h-7.5z"/><path class="cls-1" d="M477.4 422.28h1.19v7.5h-1.19z"/><path class="cls-6" d="M395.08 473.95h1.19v44.12h-1.19zm54.85 0h1.19v44.12h-1.19z"/><path class="cls-3" d="M473.39 501.59a1.57 1.57 0 0 0 1.53 1.59h6.13a1.57 1.57 0 0 0 1.53-1.59V492h-9.2zm10-11.93h-2.68l-.77-.8h-3.83l-.77.8h-2.68v1.59h10.73zm-59.66.12a9 9 0 0 0-8.35 6 8.82 8.82 0 0 0 16.7 0 9 9 0 0 0-8.35-6zm0 9.94a4 4 0 1 1 3.79-4 3.89 3.89 0 0 1-3.79 4zm0-6.36a2.39 2.39 0 1 0 2.28 2.39 2.33 2.33 0 0 0-2.28-2.39z"/><path class="cls-1" d="M415.047 489.962l.69-.968 16.7 11.927-.693.97z"/><path class="cls-3" d="M412.703 492.115l.69-.964 16.62 11.905-.69.964zM205.29 499.77v-.58h1v.4c0 1.25 1.24 1.87 2.5 1.87s2.65-.63 2.65-3v-.33a2.34 2.34 0 0 0-2.5-2.59 3.74 3.74 0 0 0-2.39.92l-1-.13.37-6.13h5.91v.94h-5.07l-.27 4.44a4.5 4.5 0 0 1 2.77-.9 3.08 3.08 0 0 1 3.21 3.24v.55c0 2.64-1.59 3.87-3.72 3.87-2.36-.03-3.46-1.34-3.46-2.57zm9.61-5.64h1.1v1.77h-1.1zm0 6.19h1.1v1.77h-1.1zm3.71-1.38v-5.56c0-2.22 1.8-3.41 3.86-3.41s3.79 1.19 3.79 3.41v5.54c0 2.19-1.77 3.39-3.79 3.39s-3.86-1.14-3.86-3.37zm6.59-.1v-5.49a2.54 2.54 0 0 0-2.75-2.54 2.59 2.59 0 0 0-2.79 2.6v5.48a2.57 2.57 0 0 0 2.8 2.57 2.51 2.51 0 0 0 2.74-2.62zm3.48.1v-5.56c0-2.22 1.8-3.41 3.86-3.41s3.79 1.19 3.79 3.41v5.54c0 2.19-1.77 3.39-3.79 3.39s-3.86-1.14-3.86-3.37zm6.59-.1v-5.49a2.54 2.54 0 0 0-2.75-2.54 2.59 2.59 0 0 0-2.79 2.6v5.48a2.57 2.57 0 0 0 2.8 2.57 2.51 2.51 0 0 0 2.74-2.62zm7.63-3.55h2.33a2 2 0 0 1 2.16 2 2 2 0 0 1-2.29 2.05h-1.6v2.74h-.6zm2 3.55c1.13 0 1.84-.51 1.84-1.54a1.48 1.48 0 0 0-1.62-1.5h-1.62v3zm3.92-3.55h.74l2.26 4.15 2.21-4.15h.76v6.8h-.59v-5.76l-2.15 3.93h-.48l-2.15-3.92v5.75h-.58zm18.92 1.58h7.48v.72h-7.48zm26.75-6.87h-5.88v-.94h7.18v.73c-3 3.21-4.19 6.84-4.42 11.17h-1.13a18.38 18.38 0 0 1 4.25-10.96zm3.4 3H299v1.77h-1.08zm0 6.19H299V501h-1.08zm3.71-1.35v-5.56c0-2.22 1.8-3.41 3.86-3.41s3.79 1.19 3.79 3.41v5.54c0 2.19-1.77 3.39-3.79 3.39s-3.86-1.13-3.86-3.37zm6.59-.1v-5.49a2.54 2.54 0 0 0-2.75-2.54 2.59 2.59 0 0 0-2.79 2.6v5.48a2.57 2.57 0 0 0 2.8 2.57 2.51 2.51 0 0 0 2.74-2.62zm3.48.1v-5.56c0-2.22 1.8-3.41 3.86-3.41s3.79 1.19 3.79 3.41v5.54c0 2.19-1.77 3.39-3.79 3.39s-3.86-1.13-3.86-3.37zm6.59-.1v-5.49a2.54 2.54 0 0 0-2.75-2.54 2.59 2.59 0 0 0-2.79 2.6v5.48a2.57 2.57 0 0 0 2.8 2.57 2.51 2.51 0 0 0 2.74-2.62zm7.64-3.54h2.33a2 2 0 0 1 2.16 2 2 2 0 0 1-2.29 2.05h-1.6V501h-.6zm2 3.55c1.13 0 1.84-.51 1.84-1.54a1.48 1.48 0 0 0-1.62-1.5h-1.62v3zm3.92-3.55h.74l2.26 4.15 2.18-4.15h.76v6.8h-.59v-5.76l-2.17 3.93h-.48l-2.15-3.92V501h-.58z"/><path class="cls-2" d="M172.07 314.15h332.72v1.19H172.07z"/><path class="cls-7" d="M170.88 81.61h333.91V242.6H170.88z"/><path class="cls-3" d="M293.48 144.75l-6.56-11.82h2l5.44 10 5.41-10h2l-6.56 11.85v8.56h-1.75zm8.3 3.49v-3.84c0-3.72 2.52-5.64 5.78-5.64 3.52 0 5.78 2 5.78 5.61v3.69c0 3.69-2.43 5.64-5.72 5.64-3.5.01-5.84-1.85-5.84-5.46zm9.88-.14v-3.86a3.72 3.72 0 0 0-4.09-4c-2.69 0-4.09 1.6-4.09 4.15v3.84c0 2.43 1.35 4.09 4.15 4.09s4.02-1.5 4.02-4.22zm5.14 1.09v-10.1h1.69v9.33c0 2.66 1.32 3.78 3.29 3.78a4.43 4.43 0 0 0 4.38-4.58v-8.53h1.66v14.26h-1.6v-2.72h-.06a5.34 5.34 0 0 1-4.92 3.06 4.16 4.16 0 0 1-4.44-4.5zm15.2-10.11h1.63v3h.06a5.53 5.53 0 0 1 5.3-3.23 5.46 5.46 0 0 1 1 .09v1.57a7.56 7.56 0 0 0-1.32-.09 4.72 4.72 0 0 0-5 5v7.93H332zm-37.32 28.14h1.72l7.5 20.47H302l-2.29-6.44h-8.53l-2.35 6.44H287zm4.52 12.51l-3.69-10.36-3.78 10.36zm7.35 11.39l1.52-.69a4.26 4.26 0 0 0 3.61 1.77 4 4 0 0 0 4.29-4.35v-3.15a4.94 4.94 0 0 1-4.64 2.83c-3.15 0-5-1.95-5-4.9v-4.24a5 5 0 0 1 5.18-5.32A4.74 4.74 0 0 1 316 176v-2.58h1.63v14.26c0 3.32-2.12 5.9-6 5.9a5.74 5.74 0 0 1-5.08-2.46zm9.42-9.59v-2.72a4.14 4.14 0 0 0-4.15-4.27 3.59 3.59 0 0 0-3.81 3.75v4.35c0 2 1.35 3.52 3.84 3.52 2 .01 4.15-1.43 4.15-4.63zm5.18.77v-3.09c0-3.92 2.55-6.1 6-6.1 3.18 0 5.5 1.95 5.5 5.61v2.09h-9.7v1.69c0 2.52 1.6 4.12 4.35 4.12a4.75 4.75 0 0 0 3.81-1.83l1.26.8a6 6 0 0 1-5.18 2.46c-3.55 0-6.04-1.83-6.04-5.75zm9.79-2.69v-1c0-2.23-1.23-4.12-4-4.12a4 4 0 0 0-4.06 4.32v.77zm5.18-6.18h1.6v2.72h.06a5.39 5.39 0 0 1 4.92-3.06 4.16 4.16 0 0 1 4.44 4.49v10.1h-1.69v-9.33c0-2.66-1.32-3.78-3.26-3.78a4.43 4.43 0 0 0-4.41 4.58v8.53h-1.66zm14.48 9.76v-4.69c0-3.84 2.6-5.41 5.3-5.41a4.48 4.48 0 0 1 4.32 2.92h.06v-8.7H362v20.38h-1.63v-2.81h-.06a5.16 5.16 0 0 1-4.64 3.18c-3.06-.01-5.07-1.89-5.07-4.87zm9.7-1.37V179a4.23 4.23 0 0 0-4.21-4.49 3.62 3.62 0 0 0-3.81 3.75v4.81a3.5 3.5 0 0 0 3.84 3.52 4.49 4.49 0 0 0 4.19-4.78zm5.21 2.11c0-3.21 2.95-4.27 5.3-4.27H375v-2.2c0-2.23-1.49-3-3.63-3-1.78 0-3.66.63-3.66 2.49v.46h-1.55V177c0-2.83 2.63-3.89 5.3-3.89s5.24 1 5.24 4.09v6.93c0 .83.11 2.95.2 3.58h-1.66c-.06-.49-.11-1.83-.11-2.26H375a4.92 4.92 0 0 1-4.84 2.58c-2.53-.03-4.65-1.46-4.65-4.1zm9.47-1.4v-1.6h-3.83c-1.95 0-4 .49-4 2.92 0 1.92 1.66 2.83 3.46 2.83 2.92 0 4.39-1.68 4.39-4.15z"/><path class="cls-1" d="M199.5 175.82h20.27v10.73H199.5zm0-19.08h39.35v9.54H199.5zm0-20.28h59.63V146H199.5z"/><path class="cls-3" d="M172.07 314.15h333.91v83.48H172.07z"/><path class="cls-4" d="M196.65 370.13h3V360l-2.77.52-.08-.72 3.41-.77h.47v11.15h2.8v.78h-6.83zm8.67 0h3V360l-2.77.52-.08-.72 3.41-.77h.47v11.15h2.8v.78h-6.83zm9.05-7.13h1.08v1.77h-1.08zm0 6.19h1.08v1.77h-1.08zm3.7-1.43v-5.56c0-2.22 1.8-3.41 3.86-3.41s3.79 1.19 3.79 3.41v5.54c0 2.19-1.77 3.39-3.79 3.39s-3.86-1.13-3.86-3.37zm6.59-.1v-5.49a2.54 2.54 0 0 0-2.75-2.54 2.59 2.59 0 0 0-2.79 2.6v5.48a2.57 2.57 0 0 0 2.8 2.57 2.51 2.51 0 0 0 2.75-2.62zm3.48.1v-5.56c0-2.22 1.8-3.41 3.86-3.41s3.79 1.19 3.79 3.41v5.54c0 2.19-1.77 3.39-3.79 3.39s-3.86-1.13-3.86-3.37zm6.59-.1v-5.49a2.54 2.54 0 0 0-2.75-2.54 2.59 2.59 0 0 0-2.79 2.6v5.48a2.57 2.57 0 0 0 2.8 2.57 2.51 2.51 0 0 0 2.75-2.62zm9.71-3.56h.56l2.5 6.82h-.63l-.76-2.15h-2.84l-.78 2.15h-.6zm1.51 4.17l-1.23-3.45-1.26 3.45zm2.87-4.15h.74l2.26 4.15 2.21-4.15h.76v6.8h-.59v-5.76l-2.15 3.93h-.48l-2.15-3.92v5.75h-.58zm18.92 1.57h7.48v.72h-7.48zm-71.55-26.6l1.29-.5a1.87 1.87 0 0 0 1.84 1.16c.77 0 1.5-.3 1.5-1s-.46-.83-1.05-1l-1.29-.31c-1-.26-1.83-.72-1.83-2.07s1.25-2.27 2.74-2.27a2.59 2.59 0 0 1 2.69 1.57l-1.17.52a1.66 1.66 0 0 0-1.64-.88c-.62 0-1.22.28-1.22 1s.51.78 1.12.94l1.31.32a2 2 0 0 1 1.75 2.12c0 1.41-1.25 2.34-2.94 2.34a3 3 0 0 1-3.1-1.94zm8.27-.87v-5h1.43V338a1.45 1.45 0 0 0 1.57 1.64c1 0 1.57-.55 1.57-1.64v-4.84h1.43v4.9a2.72 2.72 0 0 1-3 2.86c-1.79.08-3-.87-3-2.7zm8.54-5.01h1.38l3.33 5.21v-5.21h1.37v7.65h-1.39l-3.31-5.22v5.22H213zm8.73 0h3a2.81 2.81 0 0 1 3 2.79v2a2.84 2.84 0 0 1-3 2.82h-3zm2.94 6.39a1.49 1.49 0 0 0 1.64-1.48v-2.21a1.53 1.53 0 0 0-1.69-1.45h-1.46v5.14zm7.45-6.4h1.31l2.82 7.66h-1.51l-.56-1.63h-2.92l-.58 1.63h-1.41zm1.65 4.81l-1-3.07-1.11 3.06zm5.43-.22l-2.56-4.58h1.6l1.71 3.21 1.7-3.21h1.52l-2.57 4.6v3h-1.4zm49.56 31.36l3.14-3.52c1.29-1.47 2.24-2.87 2.24-4.87a2.1 2.1 0 0 0-2.35-2.22c-1.34 0-2.32.72-2.32 2v.43h-1v-.43c0-1.85 1.42-2.82 3.41-2.82 2.22 0 3.31 1.3 3.31 3.09 0 2.34-1.32 4-3 6l-2 2.2h5.38v.87h-6.74zm9.13-7.3H299v1.77h-1.08zm0 6.19H299v1.77h-1.08zm3.71-1.38v-5.56c0-2.22 1.8-3.41 3.86-3.41s3.79 1.19 3.79 3.41v5.54c0 2.19-1.77 3.39-3.79 3.39s-3.86-1.13-3.86-3.37zm6.59-.1v-5.49a2.54 2.54 0 0 0-2.75-2.54 2.59 2.59 0 0 0-2.79 2.6v5.48a2.57 2.57 0 0 0 2.8 2.57 2.51 2.51 0 0 0 2.74-2.62zm3.48.1v-5.56c0-2.22 1.8-3.41 3.86-3.41s3.79 1.19 3.79 3.41v5.54c0 2.19-1.77 3.39-3.79 3.39s-3.86-1.13-3.86-3.37zm6.59-.1v-5.49a2.54 2.54 0 0 0-2.75-2.54 2.59 2.59 0 0 0-2.79 2.6v5.48a2.57 2.57 0 0 0 2.8 2.57 2.51 2.51 0 0 0 2.74-2.62zm7.64-3.56h2.33a2 2 0 0 1 2.16 2 2 2 0 0 1-2.29 2.05h-1.6v2.74h-.6zm2 3.55c1.13 0 1.84-.51 1.84-1.54a1.48 1.48 0 0 0-1.62-1.5h-1.62v3zm3.91-3.55h.74l2.26 4.15L337 363h.76v6.8h-.59v-5.76L335 368h-.48l-2.15-3.92v5.75h-.58z"/><path class="cls-3" d="M172.07 516.6h333.91V585H172.07z"/><path class="cls-4" d="M196.74 578.54h3v-10.18l-2.77.52-.08-.72 3.41-.77h.47v11.15h2.8v.78h-6.83zm9.03.12l3.14-3.52c1.29-1.47 2.24-2.87 2.24-4.87a2.1 2.1 0 0 0-2.35-2.22c-1.34 0-2.32.72-2.32 2v.43h-1V570c0-1.85 1.42-2.82 3.41-2.82 2.22 0 3.31 1.3 3.31 3.09 0 2.34-1.32 4-3 6l-2 2.2h5.38v.87h-6.74zm9.13-7.29h1.1v1.77h-1.1zm0 6.19h1.1v1.77h-1.1zm3.71-1.39v-5.56c0-2.22 1.8-3.41 3.86-3.41s3.79 1.19 3.79 3.41v5.54c0 2.19-1.77 3.39-3.79 3.39s-3.86-1.13-3.86-3.37zm6.59-.1v-5.49a2.54 2.54 0 0 0-2.75-2.54 2.59 2.59 0 0 0-2.79 2.6v5.48a2.57 2.57 0 0 0 2.8 2.57 2.51 2.51 0 0 0 2.74-2.62zm3.48.1v-5.56c0-2.22 1.8-3.41 3.86-3.41s3.79 1.19 3.79 3.41v5.54c0 2.19-1.77 3.39-3.79 3.39s-3.86-1.13-3.86-3.37zm6.59-.1v-5.49a2.54 2.54 0 0 0-2.75-2.54 2.59 2.59 0 0 0-2.79 2.6v5.48a2.57 2.57 0 0 0 2.8 2.57 2.51 2.51 0 0 0 2.74-2.62zm7.63-3.54h2.33a2 2 0 0 1 2.16 2 2 2 0 0 1-2.29 2.05h-1.6v2.74h-.6zm2 3.55c1.13 0 1.84-.51 1.84-1.54a1.48 1.48 0 0 0-1.62-1.5h-1.62v3zm3.92-3.55h.74l2.26 4.15 2.21-4.15h.76v6.8h-.59v-5.76l-2.15 3.93h-.48l-2.15-3.92v5.75h-.58zm18.92 1.57h7.48v.72h-7.48zm-69.3-32.1h-2.2v-1.22h5.81V542h-2.2v6.43h-1.42zm5.7 3.79v-5h1.43v4.84a1.45 1.45 0 0 0 1.57 1.64c1 0 1.57-.55 1.57-1.64v-4.84h1.43v4.9a2.72 2.72 0 0 1-3 2.86c-1.79-.01-3-.93-3-2.76zm8.55-5.01H218V542h-3.88v1.87h3.44v1.26h-3.44v2H218v1.25h-5.35zm7.03 5.87l1.29-.5a1.87 1.87 0 0 0 1.84 1.16c.77 0 1.5-.3 1.5-1s-.46-.83-1.05-1L222 545c-1-.26-1.83-.72-1.83-2.07s1.25-2.27 2.74-2.27a2.59 2.59 0 0 1 2.69 1.57l-1.17.52a1.66 1.66 0 0 0-1.64-.88c-.62 0-1.22.28-1.22 1s.51.78 1.12.94l1.31.32a2 2 0 0 1 1.75 2.12c0 1.41-1.25 2.34-2.94 2.34a3 3 0 0 1-3.09-1.94zm8.28-5.87h3a2.81 2.81 0 0 1 3 2.79v2a2.84 2.84 0 0 1-3 2.82h-3zm2.94 6.39a1.49 1.49 0 0 0 1.64-1.48v-2.21a1.53 1.53 0 0 0-1.69-1.45h-1.46v5.14zm7.5-6.4h1.31l2.82 7.66h-1.51l-.56-1.63h-2.92l-.58 1.63h-1.41zm1.65 4.81l-1-3.07-1.09 3.06zm5.42-.22l-2.56-4.58h1.6l1.71 3.21 1.7-3.21h1.52l-2.57 4.6v3h-1.38zm43.34 32.08h3v-10.18l-2.77.52-.08-.72 3.41-.77h.47v11.15h2.8v.78h-6.83zm9.04-7.17H299V572h-1.08zm0 6.19H299v1.77h-1.08zm3.71-1.39v-5.56c0-2.22 1.8-3.41 3.86-3.41s3.79 1.19 3.79 3.41v5.54c0 2.19-1.77 3.39-3.79 3.39s-3.86-1.13-3.86-3.37zm6.59-.1v-5.49a2.54 2.54 0 0 0-2.75-2.54 2.59 2.59 0 0 0-2.79 2.6V575a2.57 2.57 0 0 0 2.8 2.57 2.51 2.51 0 0 0 2.74-2.57zm3.48.1v-5.56c0-2.22 1.8-3.41 3.86-3.41s3.79 1.19 3.79 3.41v5.54c0 2.19-1.77 3.39-3.79 3.39s-3.86-1.13-3.86-3.37zm6.59-.1v-5.49a2.54 2.54 0 0 0-2.75-2.54 2.59 2.59 0 0 0-2.79 2.6V575a2.57 2.57 0 0 0 2.8 2.57 2.51 2.51 0 0 0 2.74-2.57zm7.64-3.54h2.33a2 2 0 0 1 2.16 2 2 2 0 0 1-2.29 2.05h-1.6v2.74h-.6zm2 3.55c1.13 0 1.84-.51 1.84-1.54a1.48 1.48 0 0 0-1.62-1.5h-1.62v3zm3.92-3.55h.74l2.26 4.15 2.21-4.15h.76v6.8h-.59v-5.76l-2.2 3.93h-.48l-2.15-3.92v5.75h-.58z"/><path class="cls-2" d="M172.07 314.15h332.72v1.19H172.07z"/></g></g></svg>
