<svg xmlns="http://www.w3.org/2000/svg" viewBox="0 0 681.6 302"><title>state-card1</title><path fill="#fff" d="M0 0h211.5v302H0z"/><path fill="#a6273c" d="M176.4 0h35.1v35.1h-35.1z"/><path d="M187.9 21h2.1v-6.8h-1.7v-.8a4.717 4.717 0 0 0 1.9-.7h.9V21h1.9v1h-5.2v-1zm7-3.2a2.33 2.33 0 0 0 1.5.7c.7 0 1-.3 1-.8s-.4-.6-.9-.9l-.8-.3a1.644 1.644 0 0 1-1.2-1.6 1.834 1.834 0 0 1 2-1.7 2.666 2.666 0 0 1 1.8.7l-.5.7a2.106 2.106 0 0 0-1.3-.5c-.6 0-.9.3-.9.7 0 .5.4.6.9.8l.8.3a1.621 1.621 0 0 1 1.2 1.6c0 1-.8 1.7-2.1 1.7a2.723 2.723 0 0 1-2.1-.9zm5.7-3.5h-1.7v-.9h4.4v.9h-1.7v5h-1z" fill="#ededed"/><path fill="#bdbdbd" d="M125.4 53.3V48l-3.7-3.6v.1-.1h-14.2l-4.6-4.6V27.7H90.2v21.2H75.8l5.7 5.7v6.2l4.7 4.8h3l3.1-3.2H96l4 4v4.2l4.5 4.6v3.9l5.5 5.5h2.9V72.3l7.7-7.7h7.9v-8.2l-3.1-3.1z"/><path d="M81.4 103.2h-4.2v-1.5h10.1v1.5h-4.2v12.3h-1.8v-12.3zm10.7 1.8c2.6 0 4.1 1.9 4.1 4.8a2.22 2.22 0 0 1-.1.9h-6.9c.1 2.2 1.4 3.6 3.4 3.6a4.147 4.147 0 0 0 2.5-.8l.6 1.1a5.988 5.988 0 0 1-3.4 1.1c-2.7 0-4.9-2-4.9-5.3.1-3.3 2.4-5.4 4.7-5.4zm2.5 4.6c0-2.1-.9-3.2-2.5-3.2-1.4 0-2.7 1.2-2.9 3.2zm5.8.6l-3.1-4.9h1.9l1.4 2.2c.3.5.7 1.1 1 1.7h.1c.3-.6.6-1.2.9-1.7l1.2-2.2h1.8l-3.1 5.1 3.3 5.1H104l-1.5-2.4c-.4-.6-.7-1.2-1.1-1.8h-.1a16.179 16.179 0 0 0-1 1.8l-1.4 2.4h-1.8zm13.1-1.2c0-1.3-.4-2.6-2.1-2.6a4.979 4.979 0 0 0-3 1.1l-.7-1.2a7.588 7.588 0 0 1 4-1.3c2.5 0 3.5 1.7 3.5 4.2v6.3h-1.4l-.1-1.2a5.556 5.556 0 0 1-3.4 1.5 2.808 2.808 0 0 1-3-2.9c-.1-2.3 1.8-3.4 6.2-3.9zm-2.8 5.4a4.174 4.174 0 0 0 2.8-1.4v-2.8c-3.4.4-4.6 1.3-4.6 2.6 0 1.1.8 1.6 1.8 1.6zm7.5-1.2a4.714 4.714 0 0 0 3 1.2c1.3 0 2-.7 2-1.6 0-1.1-1.2-1.5-2.3-1.9-1.4-.5-3-1.2-3-2.9 0-1.6 1.3-2.9 3.5-2.9a4.831 4.831 0 0 1 3.2 1.2l-.8 1.1a3.877 3.877 0 0 0-2.3-.9c-1.3 0-1.9.7-1.9 1.5 0 1 1.1 1.3 2.3 1.8 1.5.5 3.1 1.2 3.1 3.1 0 1.7-1.3 3-3.7 3a6.314 6.314 0 0 1-3.8-1.4z" fill="#184d5b"/><path d="M21.3 176.1h1.4v3.2H26v-3.2h1.4v8H26v-3.6h-3.3v3.6h-1.4zm7.9.2a.906.906 0 1 1 .9.8.817.817 0 0 1-.9-.8zm.1 1.8h1.4v6h-1.4zM33 184a1.29 1.29 0 0 1-.5-1.1 1.23 1.23 0 0 1 .7-1.1 2.078 2.078 0 0 1-.8-1.6 2.208 2.208 0 0 1 2.4-2.2c.3 0 .6.1.9.1h2.2v1h-1.1a1.493 1.493 0 0 1 .3 1 2.1 2.1 0 0 1-2.3 2.1 1.077 1.077 0 0 1-.8-.2.713.713 0 0 0-.3.6c0 .3.2.6 1 .6h1.1c1.5 0 2.2.4 2.2 1.5 0 1.2-1.3 2.1-3.2 2.1-1.4 0-2.5-.5-2.5-1.6-.2-.4.1-.9.7-1.2zm1.9 1.9c1 0 1.6-.5 1.6-1s-.4-.6-1.1-.6h-.8a1.949 1.949 0 0 1-.8-.1 1.02 1.02 0 0 0-.5.8c0 .6.6.9 1.6.9zm.9-5.7a1.063 1.063 0 0 0-1-1.2 1.133 1.133 0 0 0-1.1 1.2 1.079 1.079 0 0 0 1.1 1.2 1.126 1.126 0 0 0 1-1.2zm3.1-4.7h1.4v3.4a2.647 2.647 0 0 1 1.9-.9c1.3 0 1.9.9 1.9 2.4v3.8h-1.4v-3.6c0-1-.3-1.4-.9-1.4a2.053 2.053 0 0 0-1.4.8v4.2H39v-8.7zm9.8 6.7a3.577 3.577 0 0 0 2.1.9c.9 0 1.4-.4 1.4-1 0-.7-.5-.9-1.2-1.2l-1.1-.5a2.279 2.279 0 0 1-1.6-2.1A2.44 2.44 0 0 1 51 176a3.946 3.946 0 0 1 2.5 1l-.7.9a2.837 2.837 0 0 0-1.7-.7c-.8 0-1.3.4-1.3.9 0 .6.6.9 1.3 1.1l1.1.5a2.281 2.281 0 0 1 1.6 2.2c0 1.3-1.1 2.4-2.9 2.4a4 4 0 0 1-2.9-1.2zm8.9-4.2a2.481 2.481 0 0 1 1.8.7l-.7.9a1.284 1.284 0 0 0-1-.4c-1 0-1.6.8-1.6 2s.7 2 1.6 2a1.656 1.656 0 0 0 1.2-.5l.6.9a3.176 3.176 0 0 1-2 .8 3.211 3.211 0 0 1 .1-6.4zm3.1-2.5h1.4v3.4a2.647 2.647 0 0 1 1.9-.9c1.3 0 1.9.9 1.9 2.4v3.8h-1.4v-3.6c0-1-.3-1.4-.9-1.4a2.053 2.053 0 0 0-1.4.8v4.2h-1.4v-8.7zM70 178a3.216 3.216 0 1 1-2.9 3.2c.1-2.1 1.4-3.2 2.9-3.2zm0 5.2c.9 0 1.4-.8 1.4-2s-.5-2-1.4-2-1.4.8-1.4 2 .5 2 1.4 2zm6.8-5.2a3.216 3.216 0 1 1-2.9 3.2 2.923 2.923 0 0 1 2.9-3.2zm0 5.2c.9 0 1.4-.8 1.4-2s-.5-2-1.4-2-1.4.8-1.4 2 .5 2 1.4 2zm4.3-7.7h1.4v7.2c0 .3.2.5.3.5h.2l.2 1.1a1.719 1.719 0 0 1-.8.1c-1 0-1.4-.7-1.4-1.7v-7.2zm5.7 2.5c1.6 0 2.5 1.2 2.5 2.9a1.483 1.483 0 0 1-.1.7h-3.8a1.706 1.706 0 0 0 1.8 1.7 3.255 3.255 0 0 0 1.4-.4l.5.9a3.771 3.771 0 0 1-2.1.7 2.944 2.944 0 0 1-3-3.2 3 3 0 0 1 2.8-3.3zm1.2 2.6q0-1.5-1.2-1.5c-.7 0-1.3.5-1.5 1.5zm2.6-2.5h1.2l.1 1.1a2 2 0 0 1 1.7-1.2 1.483 1.483 0 0 1 .7.1l-.2 1.2a1.268 1.268 0 0 0-.6-.1 1.511 1.511 0 0 0-1.4 1.2v3.7h-1.4v-6zm4.5 4.5a2.837 2.837 0 0 0 1.7.7c.7 0 1-.3 1-.7 0-.5-.7-.7-1.3-1-.8-.3-1.7-.8-1.7-1.8 0-1.1.8-1.8 2.2-1.8a3.221 3.221 0 0 1 2 .7l-.7.9a2.106 2.106 0 0 0-1.3-.5c-.6 0-.9.3-.9.7 0 .5.6.7 1.3.9.8.3 1.7.7 1.7 1.8 0 1-.8 1.9-2.3 1.9a4.539 4.539 0 0 1-2.3-.8z" fill="#90a4ae"/><path d="M160.8 182.5h1.6v-5.1h-1.3v-.6a5.271 5.271 0 0 0 1.5-.5h.7v6.2h1.4v.7h-3.9zm8.5-5.3h-3.4v-.8h4.4v.6a9.594 9.594 0 0 0-2.1 6.3h-.9a9.516 9.516 0 0 1 2-6.1zm2.8 4.8a.708.708 0 0 1 0 1.4c-.4 0-.6-.3-.6-.7a.563.563 0 0 1 .6-.7zm1.8-2.2c0-2.3.8-3.6 2.2-3.6s2.2 1.2 2.2 3.6c0 2.3-.8 3.6-2.2 3.6s-2.2-1.3-2.2-3.6zm3.6 0c0-2-.5-2.8-1.3-2.8s-1.4.8-1.4 2.8.5 2.9 1.4 2.9c.7 0 1.3-.9 1.3-2.9zm1.7-1.5c0-1.4.6-2.2 1.6-2.2s1.6.8 1.6 2.2-.6 2.2-1.6 2.2-1.6-.8-1.6-2.2zm2.5 0c0-1.1-.4-1.7-.9-1.7-.6 0-.9.5-.9 1.7 0 1.1.4 1.7.9 1.7s.9-.6.9-1.7zm-.7 5.1l3.9-7.3h.6l-3.9 7.3zm3.1-2.2c0-1.4.6-2.2 1.6-2.2s1.6.8 1.6 2.2-.6 2.2-1.6 2.2-1.6-.8-1.6-2.2zm2.5 0c0-1.1-.4-1.7-.9-1.7s-.9.6-.9 1.7.4 1.7.9 1.7.9-.6.9-1.7z" fill="#546e7a"/><path d="M26.8 150.4h-3.7l-.9 3h-2l3.6-11h2.3l3.6 11h-2.1zm-.5-1.6l-.4-1.3c-.4-1.2-.7-2.4-1-3.6h-.1c-.3 1.2-.6 2.5-1 3.6l-.4 1.3zm7.6-3.9a3.6 3.6 0 0 1 2.2.9l-.1-1.3v-3h1.9v11.9h-1.6l-.1-.9h-.1a3.356 3.356 0 0 1-2.3 1.1c-2.1 0-3.4-1.6-3.4-4.3 0-2.8 1.7-4.4 3.5-4.4zm.4 7a2.235 2.235 0 0 0 1.7-.9v-3.9a2.51 2.51 0 0 0-1.7-.7c-1.1 0-1.9 1-1.9 2.7 0 1.9.7 2.8 1.9 2.8zm6-6.8h1.9v4.9c0 1.4.4 1.9 1.3 1.9a2.132 2.132 0 0 0 1.8-1.1v-5.7h1.9v8.3h-1.6l-.2-1.2h-.1a3.189 3.189 0 0 1-2.7 1.4c-1.8 0-2.5-1.2-2.5-3.3v-5.2zm9.4-3.6h1.9v9.9c0 .5.2.6.4.6h.3l.3 1.4a2.509 2.509 0 0 1-1 .2c-1.4 0-1.9-.9-1.9-2.3zm4.9 5.1h-1.2v-1.4l1.3-.1.2-2.3h1.6v2.3h2.1v1.5h-2.1v3.9c0 1 .4 1.4 1.2 1.4a2.92 2.92 0 0 0 .9-.2l.3 1.4a4.31 4.31 0 0 1-1.7.3c-1.9 0-2.6-1.2-2.6-3zm5.9 4.5a3.337 3.337 0 0 0 2.3.9c.9 0 1.3-.4 1.3-1 0-.7-.9-1-1.8-1.3-1.1-.4-2.3-1-2.3-2.4s1.2-2.5 3-2.5a4.4 4.4 0 0 1 2.7 1l-.9 1.2a3.4 3.4 0 0 0-1.8-.7c-.8 0-1.2.4-1.2.9 0 .7.8.9 1.7 1.2 1.1.4 2.4 1 2.4 2.5 0 1.4-1.1 2.6-3.2 2.6a5.54 5.54 0 0 1-3.1-1.1z" fill="#455a64"/><path d="M146.7 151.1a3.516 3.516 0 0 0 2.7 1.3 2 2 0 0 0 2.2-2c0-1.3-.9-2.1-3.4-2.1v-1.1c2.3 0 3-.9 3-2a1.688 1.688 0 0 0-1.9-1.7 3.568 3.568 0 0 0-2.3 1.1l-.7-.9a4.216 4.216 0 0 1 3.1-1.3c1.9 0 3.2 1 3.2 2.7a2.761 2.761 0 0 1-2 2.6v.1a2.7 2.7 0 0 1 2.3 2.7 3.218 3.218 0 0 1-3.5 3.1 4.437 4.437 0 0 1-3.5-1.5zm8.4 0a3.516 3.516 0 0 0 2.7 1.3 2 2 0 0 0 2.2-2c0-1.3-.9-2.1-3.4-2.1v-1.1c2.3 0 3-.9 3-2a1.688 1.688 0 0 0-1.9-1.7 3.568 3.568 0 0 0-2.3 1.1l-.7-.9a4.216 4.216 0 0 1 3.1-1.3c1.9 0 3.2 1 3.2 2.7a2.761 2.761 0 0 1-2 2.6v.1a2.7 2.7 0 0 1 2.3 2.7 3.218 3.218 0 0 1-3.5 3.1 4.437 4.437 0 0 1-3.5-1.5zm9.3.3a1.029 1.029 0 0 1 1 1.1 1 1 0 0 1-1 1 .945.945 0 0 1-1-1 1.1 1.1 0 0 1 1-1.1zm2.9-3.5c0-3.6 1.3-5.5 3.5-5.5 2.1 0 3.4 1.9 3.4 5.5s-1.3 5.6-3.4 5.6c-2.2 0-3.5-2-3.5-5.6zm5.5 0c0-3.1-.8-4.4-2.1-4.4s-2.1 1.3-2.1 4.4.8 4.5 2.1 4.5 2.1-1.3 2.1-4.5zm2.7-2.3c0-2.2 1-3.5 2.5-3.5s2.5 1.2 2.5 3.5c0 2.2-1 3.5-2.5 3.5s-2.5-1.3-2.5-3.5zm3.9 0c0-1.8-.6-2.6-1.4-2.6-.9 0-1.5.8-1.5 2.6s.6 2.6 1.5 2.6c.8 0 1.4-.9 1.4-2.6zm-1.1 7.9l6.1-11.4h.9l-6.1 11.4zm4.9-3.5c0-2.2 1-3.5 2.5-3.5s2.5 1.3 2.5 3.5-1 3.5-2.5 3.5-2.5-1.2-2.5-3.5zm3.9 0c0-1.8-.6-2.6-1.4-2.6-.9 0-1.5.9-1.5 2.6s.6 2.6 1.5 2.6c.8.1 1.4-.8 1.4-2.6z" fill="#546e7a"/><path fill="none" stroke="#e1e1e1" stroke-miterlimit="10" stroke-width=".5" d="M20.3 167.3h171"/><path d="M21.2 209.8h1.7v-5.1h-1.4v-.9a4.238 4.238 0 0 0 1.8-.6h1.1v6.7h1.5v1.2h-4.7zm5.9-2.8c0-2.6 1-4 2.7-4s2.7 1.4 2.7 4-1 4.1-2.7 4.1-2.7-1.5-2.7-4.1zm3.9 0c0-2.2-.5-2.9-1.3-2.9s-1.3.7-1.3 2.9.6 3 1.3 3c.8 0 1.3-.8 1.3-3zm2.4.3h2.9v1h-2.9zm4.4 2.5h1.7v-5.1h-1.4v-.9a4.238 4.238 0 0 0 1.8-.6H41v6.7h1.5v1.2h-4.7zm9.6-5.5h-3.7v-1.2H49v.9c-1.8 2.3-2.2 3.9-2.3 7h-1.4a10.715 10.715 0 0 1 2.1-6.7zm6.9 3.6l-2.4-5.1h1.5l.9 2.1c.2.6.5 1.2.7 1.8a13.356 13.356 0 0 0 .7-1.8l.9-2.1h1.5l-2.4 5.1v3h-1.4zm4.2-3h1.2l.1 1.1a2 2 0 0 1 1.7-1.2 1.483 1.483 0 0 1 .7.1l-.2 1.2a1.268 1.268 0 0 0-.6-.1 1.511 1.511 0 0 0-1.4 1.2v3.7h-1.4v-6zm3.9 2.4h2.9v1h-2.9zm6.8-2.6a3.216 3.216 0 1 1-2.9 3.2 3.042 3.042 0 0 1 2.9-3.2zm0 5.2c.9 0 1.4-.8 1.4-2s-.5-2-1.4-2-1.4.8-1.4 2 .6 2 1.4 2zm4.3-7.7h1.4v7.2c0 .3.2.5.3.5h.2l.2 1.1a1.719 1.719 0 0 1-.8.1c-1 0-1.4-.7-1.4-1.7v-7.2zm5.5 2.5a2.36 2.36 0 0 1 1.6.7v-3.2H82v8.7h-1.2l-.1-.7a2.716 2.716 0 0 1-1.7.8c-1.5 0-2.5-1.2-2.5-3.2 0-1.9 1.2-3.1 2.5-3.1zm.3 5.2a1.574 1.574 0 0 0 1.3-.7v-2.8a1.584 1.584 0 0 0-1.2-.5c-.8 0-1.4.7-1.4 2-.1 1.3.4 2 1.3 2zm4.5-.6a2.837 2.837 0 0 0 1.7.7c.7 0 1-.3 1-.7 0-.5-.7-.7-1.3-1-.8-.3-1.7-.8-1.7-1.8 0-1.1.8-1.8 2.2-1.8a3.221 3.221 0 0 1 2 .7l-.7.9a2.106 2.106 0 0 0-1.3-.5c-.6 0-.9.3-.9.7 0 .5.6.7 1.3.9.8.3 1.7.7 1.7 1.8 0 1-.8 1.9-2.3 1.9a4.539 4.539 0 0 1-2.3-.8z" fill="#90a4ae"/><path d="M160.8 209.3h1.6v-5.1h-1.3v-.6a5.271 5.271 0 0 0 1.5-.5h.7v6.2h1.4v.7h-3.9zm6.3-2.9a2.145 2.145 0 0 1-1-1.6 1.791 1.791 0 0 1 2-1.8 1.76 1.76 0 0 1 1.9 1.8 2.333 2.333 0 0 1-1 1.7 2.026 2.026 0 0 1 1.2 1.8 1.974 1.974 0 0 1-2.2 1.8 2.077 2.077 0 0 1-2.3-1.9 2.6 2.6 0 0 1 1.4-1.8zm1 3.1a1.272 1.272 0 0 0 1.4-1.2c0-.9-.9-1.2-1.9-1.6a1.882 1.882 0 0 0-1 1.5 1.378 1.378 0 0 0 1.5 1.3zm1.2-4.6a1.1 1.1 0 0 0-1.2-1.2 1.049 1.049 0 0 0-1.1 1.1c0 .8.8 1.2 1.6 1.5a2.334 2.334 0 0 0 .7-1.4zm2.8 3.9a.708.708 0 0 1 0 1.4c-.4 0-.6-.3-.6-.7a.563.563 0 0 1 .6-.7zm5.6-4.5a1.606 1.606 0 0 0-1.1-.5c-1 0-1.8.7-1.8 2.9a2.2 2.2 0 0 1 1.6-.9 1.87 1.87 0 0 1 2 2.1 2.058 2.058 0 0 1-2 2.2c-1.4 0-2.4-1.1-2.4-3.3 0-2.8 1.3-3.8 2.6-3.8a2.413 2.413 0 0 1 1.7.7zm-.2 3.6c0-.9-.4-1.5-1.3-1.5a1.889 1.889 0 0 0-1.4.9c.1 1.3.6 2.1 1.5 2.1.7 0 1.2-.6 1.2-1.5zm1.7-2.9c0-1.4.6-2.2 1.6-2.2s1.6.8 1.6 2.2-.6 2.2-1.6 2.2c-1 .1-1.6-.8-1.6-2.2zm2.5 0c0-1.1-.4-1.7-.9-1.7-.6 0-.9.5-.9 1.7 0 1.1.4 1.7.9 1.7s.9-.6.9-1.7zm-.7 5.1l3.9-7.3h.6l-3.9 7.3zm3.1-2.2c0-1.4.6-2.2 1.6-2.2s1.6.8 1.6 2.2-.6 2.2-1.6 2.2-1.6-.8-1.6-2.2zm2.5 0c0-1.1-.4-1.7-.9-1.7s-.9.6-.9 1.7.4 1.7.9 1.7.9-.6.9-1.7z" fill="#546e7a"/><path fill="none" stroke="#e1e1e1" stroke-miterlimit="10" stroke-width=".5" d="M20.3 193.3h171"/><path d="M21.3 228.9h1.4v6.8H26v1.2h-4.8v-8zm8.4 1.9a3.216 3.216 0 1 1-2.9 3.2 2.923 2.923 0 0 1 2.9-3.2zm0 5.2c.9 0 1.4-.8 1.4-2s-.5-2-1.4-2-1.4.8-1.4 2c-.1 1.2.5 2 1.4 2zm3.6-5.1h1.4l.7 3.1c.1.6.2 1.1.3 1.7a8.469 8.469 0 0 1 .4-1.7l.8-3.1h1.3l.8 3.1c.1.6.3 1.1.4 1.7.1-.6.2-1.2.3-1.7l.7-3.1h1.3l-1.5 6h-1.7l-.7-2.8a14.905 14.905 0 0 0-.4-1.8 11.627 11.627 0 0 1-.4 1.8l-.7 2.8h-1.6zm12.4-2h1.4v8h-1.4zm3.3 2h1.2l.1.8a2.975 2.975 0 0 1 2-1c1.3 0 1.9.9 1.9 2.4v3.8h-1.4v-3.6c0-1-.3-1.4-.9-1.4a2.053 2.053 0 0 0-1.4.8v4.2H49zm9.6-.1a2.481 2.481 0 0 1 1.8.7l-.7.9a1.284 1.284 0 0 0-1-.4c-1 0-1.6.8-1.6 2s.7 2 1.6 2a1.656 1.656 0 0 0 1.2-.5l.6.9a3.176 3.176 0 0 1-2 .8 2.924 2.924 0 0 1-2.9-3.2 2.844 2.844 0 0 1 3-3.2zm5.2 0a3.216 3.216 0 1 1-2.9 3.2 2.923 2.923 0 0 1 2.9-3.2zm0 5.2c.9 0 1.4-.8 1.4-2s-.5-2-1.4-2-1.4.8-1.4 2 .5 2 1.4 2zm4.3-5.1h1.2l.1.8a2.744 2.744 0 0 1 1.8-1 1.665 1.665 0 0 1 1.7 1.1 2.915 2.915 0 0 1 1.9-1.1c1.3 0 1.9.9 1.9 2.4v3.8h-1.4v-3.6c0-1-.3-1.4-.9-1.4a1.721 1.721 0 0 0-1.3.8v4.2h-1.4v-3.6c0-1-.3-1.4-.9-1.4a1.721 1.721 0 0 0-1.3.8v4.2h-1.4v-6zm12.7-.1c1.6 0 2.5 1.2 2.5 2.9a1.483 1.483 0 0 1-.1.7h-3.8a1.706 1.706 0 0 0 1.8 1.7 3.255 3.255 0 0 0 1.4-.4l.5.9a3.771 3.771 0 0 1-2.1.7 2.944 2.944 0 0 1-3-3.2 3 3 0 0 1 2.8-3.3zm1.3 2.6q0-1.5-1.2-1.5c-.7 0-1.3.5-1.5 1.5zm4.7 2.7c2.2-2.1 3.5-3.5 3.5-4.7A1.288 1.288 0 0 0 89 230a2.016 2.016 0 0 0-1.5.9l-.8-.8a3.034 3.034 0 0 1 2.5-1.2 2.285 2.285 0 0 1 2.5 2.4c0 1.4-1.3 2.8-2.8 4.5.4 0 .9-.1 1.3-.1H92v1.2h-5.3v-.8zm6.3-2.7H96v1h-2.9zm9.4 1.6h-1v2h-1.3v-2h-3.5v-1l3.1-4.8h1.7v4.7h1zm-2.3-1.1v-1.8a8.083 8.083 0 0 1 .1-1.6l-.6 1.2-1.4 2.2h1.9zm3.6 1.5a2.837 2.837 0 0 0 1.7.7c.7 0 1-.3 1-.7 0-.5-.7-.7-1.3-1-.8-.3-1.7-.8-1.7-1.8 0-1.1.8-1.8 2.2-1.8a3.221 3.221 0 0 1 2 .7l-.7.9a2.106 2.106 0 0 0-1.3-.5c-.6 0-.9.3-.9.7 0 .5.6.7 1.3.9.8.3 1.7.7 1.7 1.8 0 1-.8 1.9-2.3 1.9a4.539 4.539 0 0 1-2.3-.8z" fill="#90a4ae"/><path d="M160.8 235.3h1.6v-5.1h-1.3v-.6a5.271 5.271 0 0 0 1.5-.5h.7v6.2h1.4v.7h-3.9zm9.6-1.1h-.9v1.9h-.8v-1.9h-3.1v-.6l2.9-4.4h1v4.3h.9v.7zm-1.8-.7v-2a5.283 5.283 0 0 1 .1-1.3 8.8 8.8 0 0 0-.6 1l-1.6 2.4h2.1zm3.5 1.3a.708.708 0 0 1 0 1.4c-.4 0-.6-.3-.6-.7a.563.563 0 0 1 .6-.7zm2.2.5h1.6v-5.1h-1.3v-.6a5.271 5.271 0 0 0 1.5-.5h.7v6.2h1.4v.7h-3.9zm4.9-4.2c0-1.4.6-2.2 1.6-2.2s1.6.8 1.6 2.2-.6 2.2-1.6 2.2-1.6-.8-1.6-2.2zm2.5 0c0-1.1-.4-1.7-.9-1.7-.6 0-.9.5-.9 1.7 0 1.1.4 1.7.9 1.7s.9-.6.9-1.7zm-.7 5.1l3.9-7.3h.6l-3.9 7.3zm3.1-2.2c0-1.4.6-2.2 1.6-2.2s1.6.8 1.6 2.2-.6 2.2-1.6 2.2-1.6-.8-1.6-2.2zm2.5 0c0-1.1-.4-1.7-.9-1.7s-.9.6-.9 1.7.4 1.7.9 1.7.9-.6.9-1.7z" fill="#546e7a"/><path fill="none" stroke="#e1e1e1" stroke-miterlimit="10" stroke-width=".5" d="M20.3 219.2h171m-171 25.9h171"/><path d="M22.5 262.8h4.4v.8h-3.5v2.6h2.9v.8h-2.9v3.4h-1v-7.6zm5.4 2h1v3.5c0 1.1.3 1.5 1.1 1.5.6 0 1-.3 1.5-1v-4h1v5.7h-.8l-.1-.9a2.417 2.417 0 0 1-1.9 1c-1.2 0-1.7-.8-1.7-2.2v-3.6zm6.4-2.6h1v7.3c0 .3.1.4.3.4h.2l.1.7a.749.749 0 0 1-.5.1c-.7 0-1-.5-1-1.3v-7.2zm3 0h1v7.3c0 .3.1.4.3.4h.2l.1.7a.749.749 0 0 1-.5.1c-.7 0-1-.5-1-1.3v-7.2zm5.2 7a2.609 2.609 0 0 0 1.7.7c.7 0 1.1-.4 1.1-.9 0-.6-.7-.8-1.3-1.1-.8-.3-1.7-.7-1.7-1.6s.7-1.6 2-1.6a3.51 3.51 0 0 1 1.8.6l-.5.6a2.106 2.106 0 0 0-1.3-.5c-.7 0-1 .4-1 .8 0 .5.6.7 1.3 1 .8.3 1.7.6 1.7 1.7 0 .9-.7 1.7-2.1 1.7a3.037 3.037 0 0 1-2.1-.8zm5.2-3.6h-.8v-.7l.9-.1.1-1.6h.8v1.6h1.5v.8h-1.5v3.2c0 .7.2 1.1.9 1.1a1.072 1.072 0 0 0 .6-.2l.2.7a3.6 3.6 0 0 1-1.1.2c-1.2 0-1.6-.8-1.6-1.9zm6.8 1.3c0-.7-.2-1.4-1.2-1.4a2.886 2.886 0 0 0-1.7.6l-.4-.7a4.4 4.4 0 0 1 2.2-.7c1.4 0 2 .9 2 2.3v3.5h-.8l-.1-.7a3.551 3.551 0 0 1-1.9.8 1.55 1.55 0 0 1-1.7-1.6c.1-1.2 1.2-1.8 3.6-2.1zm-1.5 3a2.449 2.449 0 0 0 1.6-.8v-1.6c-1.9.2-2.6.7-2.6 1.4a.9.9 0 0 0 1 1zm4.5-4.3h-.8v-.7l.9-.1.1-1.6h.8v1.6H60v.8h-1.5v3.2c0 .7.2 1.1.9 1.1a1.072 1.072 0 0 0 .6-.2l.2.7a3.6 3.6 0 0 1-1.1.2c-1.2 0-1.6-.8-1.6-1.9zm5.8-.9c1.5 0 2.3 1 2.3 2.7v.5h-3.8a1.923 1.923 0 0 0 1.9 2 3.255 3.255 0 0 0 1.4-.4l.3.6a3.568 3.568 0 0 1-1.9.6 2.714 2.714 0 0 1-2.7-3 2.63 2.63 0 0 1 2.5-3zm1.4 2.5c0-1.2-.5-1.8-1.4-1.8a1.763 1.763 0 0 0-1.6 1.8zm4.6-5h1v3.3a2.5 2.5 0 0 1 1.8-.8c1.5 0 2.3 1.1 2.3 2.9 0 1.9-1.2 3.1-2.5 3.1a2.83 2.83 0 0 1-1.6-.7l-.1.6h-.8v-8.4zm2.4 7.6c.9 0 1.6-.9 1.6-2.3 0-1.3-.4-2.1-1.5-2.1a2.244 2.244 0 0 0-1.5.8v3a1.885 1.885 0 0 0 1.4.6zm4.1-5h.8l.1 1a2.072 2.072 0 0 1 1.6-1.2 1.268 1.268 0 0 1 .6.1l-.2.8a1.083 1.083 0 0 0-.6-.1c-.5 0-1.1.4-1.4 1.3v3.7h-1v-5.6zm3.9-1.8c0-.4.3-.6.7-.6s.7.2.7.6-.3.6-.7.6-.7-.2-.7-.6zm.2 1.8h1v5.7h-1zm5-.1c1.5 0 2.3 1 2.3 2.7v.5h-3.8a1.923 1.923 0 0 0 1.9 2 3.255 3.255 0 0 0 1.4-.4l.3.6a3.568 3.568 0 0 1-1.9.6 2.714 2.714 0 0 1-2.7-3 2.63 2.63 0 0 1 2.5-3zm1.4 2.5c0-1.2-.5-1.8-1.4-1.8a1.763 1.763 0 0 0-1.6 1.8zm4.8-4.3a1.268 1.268 0 0 0-.6-.1c-.5 0-.8.4-.8 1.1v.9h1.2v.8h-1.2v4.9h-1v-4.9H88v-.7l.8-.1v-.9c0-1.2.5-1.9 1.7-1.9a2 2 0 0 1 .9.2zM21.4 272v-.6H91v.6z" fill="#90a4ae"/><path fill="none" d="M0 0h681.6v302H0z"/></svg>