<svg xmlns="http://www.w3.org/2000/svg" viewBox="0 0 402.53 273.57"><defs><style>.cls-1{fill:#2096f3;}.cls-2{fill:#a4a6a9;}</style></defs><title>icons</title><g id="Layer_2" data-name="Layer 2"><g id="Layer_1-2" data-name="Layer 1"><rect class="cls-1" x="3.96" y="82.75" width="152.24" height="21.91" rx="1" ry="1"/><path class="cls-1" d="M6.08 16a1 1 0 0 0 0 1.41L20.4 31.73a1 1 0 0 1 0 1.41L6.08 47.45a1 1 0 0 0 0 1.41L20.4 63.18a1 1 0 0 0 1.41 0l30-30a1 1 0 0 0 0-1.41l-30-30a1 1 0 0 0-1.41 0zM55 1.41c-.55 0-.68.32-.29.7L75.23 22.6a2.79 2.79 0 0 0 1.69.7h78.28a1 1 0 0 0 1-1V2.4a1 1 0 0 0-1-1zM76.92 42.08a2.78 2.78 0 0 0-1.69.7l-20.49 20.5c-.38.38-.26.7.29.7H155.2a1 1 0 0 0 1-1v-19.9a1 1 0 0 0-1-1z"/><path class="cls-2" d="M185.92.39a.37.37 0 0 1 .38-.39h16.46a.37.37 0 0 1 .38.39v3.32a.36.36 0 0 1-.38.38h-12.05a.21.21 0 0 0-.23.24V11a.21.21 0 0 0 .23.23h10.16a.36.36 0 0 1 .38.39V15a.36.36 0 0 1-.38.38h-10.16a.2.2 0 0 0-.23.23v10.27a.37.37 0 0 1-.39.39h-3.78a.37.37 0 0 1-.38-.39zM205.19 21.52a14.33 14.33 0 0 1-.66-4.56 14.82 14.82 0 0 1 .62-4.6c1-3.24 3.9-5.14 7.61-5.14s6.61 2 7.65 5.14A16.75 16.75 0 0 1 221 18a.38.38 0 0 1-.43.39h-11.44a.21.21 0 0 0-.23.23 4.08 4.08 0 0 0 .27 1.43 4.07 4.07 0 0 0 4.17 2.82 5.61 5.61 0 0 0 4.36-1.78c.2-.2.38-.23.58-.08l2.28 2a.34.34 0 0 1 0 .54 9.81 9.81 0 0 1-7.56 3.14c-4 0-6.76-1.92-7.81-5.17zm11.24-8.23a4 4 0 0 0-7.3 0 4.71 4.71 0 0 0-.23 1.58.21.21 0 0 0 .23.23h7.3a.21.21 0 0 0 .23-.23 4.71 4.71 0 0 0-.23-1.58zM236.56 26.27a.37.37 0 0 1-.38-.39v-1.39c-.89 1.28-2.43 2.2-4.95 2.2a6.25 6.25 0 0 1-6.45-4.48 15.48 15.48 0 0 1-.66-5.25 15.51 15.51 0 0 1 .66-5.26 6.25 6.25 0 0 1 6.45-4.48c2.52 0 4.06.93 4.95 2.2v-9a.37.37 0 0 1 .38-.39h3.55a.37.37 0 0 1 .39.39v25.5a.37.37 0 0 1-.39.39zm-.77-5.83a11 11 0 0 0 .39-3.48 11 11 0 0 0-.39-3.47 3.69 3.69 0 0 0-6.91 0 10.88 10.88 0 0 0-.39 3.47 10.89 10.89 0 0 0 .39 3.48 3.69 3.69 0 0 0 6.91 0zM245.2 21.52a14.48 14.48 0 0 1-.66-4.56 14.88 14.88 0 0 1 .62-4.6c1-3.24 3.9-5.14 7.61-5.14s6.61 2 7.65 5.14A16.76 16.76 0 0 1 261 18a.38.38 0 0 1-.42.39h-11.44a.21.21 0 0 0-.23.23 4.14 4.14 0 0 0 .27 1.43 4.07 4.07 0 0 0 4.18 2.82 5.61 5.61 0 0 0 4.36-1.78c.19-.2.38-.23.58-.08l2.28 2a.35.35 0 0 1 0 .54 9.82 9.82 0 0 1-7.58 3.14c-4 0-6.75-1.92-7.8-5.17zm11.24-8.23a4 4 0 0 0-7.3 0 4.77 4.77 0 0 0-.23 1.58.21.21 0 0 0 .23.23h7.3a.21.21 0 0 0 .23-.23 4.7 4.7 0 0 0-.23-1.58zM265.48 26.27a.37.37 0 0 1-.38-.39V8a.36.36 0 0 1 .38-.39H269a.37.37 0 0 1 .39.39v1.62a5.34 5.34 0 0 1 4.83-2.4 5.63 5.63 0 0 1 3.9 1.54c.19.2.23.35.08.54l-2 2.59a.36.36 0 0 1-.54.08 5 5 0 0 0-2.74-.89c-2.44 0-3.51 1.74-3.51 4.71v10.09a.37.37 0 0 1-.39.39zM291.24 26.27a.37.37 0 0 1-.39-.39v-1.35c-.89 1.28-2.63 2.16-5.26 2.16-3.4 0-6.26-1.77-6.26-5.68s2.86-5.91 7.45-5.91h3.79a.21.21 0 0 0 .23-.23V14c0-2.13-1-3.09-4.13-3.09a6.54 6.54 0 0 0-4.25 1.28.35.35 0 0 1-.54-.08l-1.43-2.55a.36.36 0 0 1 .08-.5 10.88 10.88 0 0 1 6.61-1.82c5.68 0 7.76 1.93 7.76 6.49v12.15a.36.36 0 0 1-.38.39zm-.46-6.27v-1.41a.21.21 0 0 0-.23-.23h-3.09c-2.78 0-4 .77-4 2.51 0 1.55 1.12 2.32 3.21 2.32 2.64-.01 4.11-1.05 4.11-3.19zM304.79 26.5c-3.63 0-5.1-1.74-5.1-5.34V.39a.37.37 0 0 1 .39-.39h3.56a.36.36 0 0 1 .38.39v20.55c0 1.28.5 1.7 1.62 1.7h.85a.37.37 0 0 1 .39.38v3.09a.37.37 0 0 1-.39.39zM186.62 57.68c-.54-1.62-.7-3.09-.7-7.22s.15-5.6.7-7.23c1.35-4.17 4.75-6.33 9.27-6.33s8 2.16 9.31 6.33c.54 1.62.69 3.09.69 7.23s-.16 5.6-.69 7.22c-1.35 4.17-4.75 6.34-9.31 6.34s-7.89-2.16-9.27-6.34zm14.18-1.2c.31-1 .46-2.32.46-6s-.15-5.06-.46-6a5.19 5.19 0 0 0-9.77 0c-.31 1-.46 2.28-.46 6s.15 5.06.46 6a5.19 5.19 0 0 0 9.77 0zM209.83 58.89a14.64 14.64 0 0 1-.58-4.6 14.6 14.6 0 0 1 .58-4.6c1.08-3.32 3.94-5.14 7.68-5.14a8.11 8.11 0 0 1 6.45 2.9.38.38 0 0 1 0 .54l-2.43 2.12A.35.35 0 0 1 221 50a4.22 4.22 0 0 0-3.44-1.62 3.42 3.42 0 0 0-3.56 2.47 10.94 10.94 0 0 0-.38 3.44 11.16 11.16 0 0 0 .38 3.48 3.43 3.43 0 0 0 3.48 2.4 4.23 4.23 0 0 0 3.52-1.63.35.35 0 0 1 .54 0l2.43 2.13c.19.16.15.35 0 .54a8.2 8.2 0 0 1-6.46 2.79c-3.74 0-6.6-1.79-7.68-5.11zM227.59 58.89a14.72 14.72 0 0 1-.58-4.6 14.68 14.68 0 0 1 .58-4.6c1.09-3.32 3.94-5.14 7.69-5.14a8.11 8.11 0 0 1 6.45 2.9.38.38 0 0 1 0 .54l-2.43 2.12a.35.35 0 0 1-.54-.08 4.22 4.22 0 0 0-3.44-1.62 3.42 3.42 0 0 0-3.48 2.43 10.85 10.85 0 0 0-.39 3.44 11.08 11.08 0 0 0 .39 3.48 3.42 3.42 0 0 0 3.48 2.4 4.22 4.22 0 0 0 3.44-1.62.35.35 0 0 1 .54 0l2.43 2.13c.19.16.15.35 0 .54a8.19 8.19 0 0 1-6.45 2.79c-3.75 0-6.6-1.79-7.69-5.11zM257.22 63.59a.37.37 0 0 1-.38-.39v-1.34A5.7 5.7 0 0 1 252 64c-4 0-6.42-2.93-6.42-6.91V45.36a.37.37 0 0 1 .39-.39h3.56a.36.36 0 0 1 .38.39V56.1c0 2.39 1.12 4.05 3.48 4.05 2.2 0 3.48-1.67 3.48-4V45.36a.36.36 0 0 1 .38-.39h3.56a.36.36 0 0 1 .38.39v17.85a.36.36 0 0 1-.38.39zM266.6 70.55a.36.36 0 0 1-.38-.38V45.36a.36.36 0 0 1 .38-.39h3.56a.37.37 0 0 1 .39.39v1.39c.88-1.28 2.43-2.2 4.94-2.2A6.24 6.24 0 0 1 282 49a15.45 15.45 0 0 1 .65 5.26 15.43 15.43 0 0 1-.65 5.25c-1 3-3.28 4.48-6.45 4.48-2.51 0-4.06-.92-4.94-2.2v8.34a.37.37 0 0 1-.39.38zm11.24-12.79a11 11 0 0 0 .38-3.48 11 11 0 0 0-.38-3.47 3.69 3.69 0 0 0-6.92 0 11 11 0 0 0-.38 3.47 11 11 0 0 0 .38 3.48 3.69 3.69 0 0 0 6.92 0zM297.77 63.59a.37.37 0 0 1-.39-.39v-1.34c-.89 1.28-2.63 2.16-5.26 2.16-3.4 0-6.26-1.77-6.26-5.68 0-4.06 2.86-5.91 7.46-5.91h3.79a.2.2 0 0 0 .23-.23v-.89c0-2.13-1-3.09-4.13-3.09a6.52 6.52 0 0 0-4.25 1.28.35.35 0 0 1-.54-.08L287 46.87a.36.36 0 0 1 .08-.5 10.88 10.88 0 0 1 6.6-1.82c5.68 0 7.76 1.93 7.76 6.49v12.17a.36.36 0 0 1-.38.39zm-.46-6.26v-1.42a.21.21 0 0 0-.23-.23H294c-2.78 0-4 .77-4 2.51 0 1.55 1.12 2.32 3.21 2.32 2.63 0 4.09-1.05 4.09-3.17zM311.75 63.83c-3.75 0-5.18-1.82-5.18-5.45v-9.81a.2.2 0 0 0-.23-.23h-1.24a.37.37 0 0 1-.39-.39v-2.59a.37.37 0 0 1 .39-.39h1.24a.21.21 0 0 0 .23-.23v-5.1a.36.36 0 0 1 .38-.39h3.55a.36.36 0 0 1 .39.39v5.1a.21.21 0 0 0 .23.23h2.47a.36.36 0 0 1 .38.39v2.59a.36.36 0 0 1-.38.39h-2.47a.2.2 0 0 0-.23.23v9.66c0 1.31.54 1.74 1.74 1.74h1a.36.36 0 0 1 .38.38v3.09a.37.37 0 0 1-.38.39zM318.5 41.46a.36.36 0 0 1-.38-.38v-3.37a.37.37 0 0 1 .38-.39h3.56a.37.37 0 0 1 .38.39v3.36a.37.37 0 0 1-.38.38zm0 22.13a.37.37 0 0 1-.38-.39V45.36a.36.36 0 0 1 .38-.39h3.56a.37.37 0 0 1 .38.39v17.85a.37.37 0 0 1-.38.39zM327.11 58.89a13.7 13.7 0 0 1-.62-4.6 13.68 13.68 0 0 1 .62-4.6c1-3.24 3.9-5.14 7.68-5.14s6.61 1.89 7.65 5.14a13.74 13.74 0 0 1 .62 4.6 13.76 13.76 0 0 1-.62 4.6c-1 3.24-3.9 5.13-7.65 5.13s-6.63-1.89-7.68-5.13zm11.16-1.16a10.5 10.5 0 0 0 .38-3.44 10.66 10.66 0 0 0-.38-3.44 3.45 3.45 0 0 0-3.48-2.43 3.48 3.48 0 0 0-3.51 2.43 10.64 10.64 0 0 0-.39 3.44 10.48 10.48 0 0 0 .39 3.44 3.48 3.48 0 0 0 3.51 2.43 3.44 3.44 0 0 0 3.49-2.44zM358.9 63.59a.37.37 0 0 1-.38-.39V52.47c0-2.4-1.2-4.06-3.52-4.06s-3.55 1.66-3.55 4.06v10.74a.37.37 0 0 1-.39.39h-3.56a.36.36 0 0 1-.38-.39V45.36a.36.36 0 0 1 .38-.39h3.55a.37.37 0 0 1 .39.39v1.35a5.75 5.75 0 0 1 4.91-2.16c4 0 6.45 2.94 6.45 6.92v11.74a.36.36 0 0 1-.38.39zM378.79 63.59a.37.37 0 0 1-.38-.39v-1.34c-.89 1.28-2.63 2.16-5.26 2.16-3.4 0-6.26-1.77-6.26-5.68 0-4.06 2.86-5.91 7.46-5.91h3.79a.21.21 0 0 0 .23-.23v-.89c0-2.13-1-3.09-4.13-3.09a6.54 6.54 0 0 0-4.25 1.28.35.35 0 0 1-.54-.08L368 46.87a.36.36 0 0 1 .07-.5 10.88 10.88 0 0 1 6.61-1.82c5.68 0 7.76 1.93 7.76 6.49v12.17a.37.37 0 0 1-.38.39zm-.46-6.26v-1.42a.21.21 0 0 0-.23-.23H375c-2.78 0-4 .77-4 2.51 0 1.55 1.12 2.32 3.21 2.32 2.65 0 4.12-1.05 4.12-3.17zM392.35 63.83c-3.63 0-5.1-1.74-5.1-5.34V37.71a.37.37 0 0 1 .38-.39h3.55a.37.37 0 0 1 .38.39v20.55c0 1.28.5 1.7 1.62 1.7h.82a.36.36 0 0 1 .38.38v3.09a.37.37 0 0 1-.38.39zM185.92 79.34a.37.37 0 0 1 .38-.39h3.78a.37.37 0 0 1 .39.39v10.35a.2.2 0 0 0 .23.23h10a.21.21 0 0 0 .23-.23V79.34a.36.36 0 0 1 .38-.39h3.79a.36.36 0 0 1 .38.39v25.5a.36.36 0 0 1-.38.38h-3.79a.36.36 0 0 1-.38-.38V94.25a.21.21 0 0 0-.23-.23h-10a.2.2 0 0 0-.23.23v10.59a.37.37 0 0 1-.39.38h-3.78a.37.37 0 0 1-.38-.38zM210.29 100.47a14.47 14.47 0 0 1-.66-4.56 14.79 14.79 0 0 1 .62-4.6c1-3.24 3.9-5.14 7.6-5.14s6.61 2 7.65 5.14a16.76 16.76 0 0 1 .62 5.6.38.38 0 0 1-.42.39h-11.47a.21.21 0 0 0-.23.23 4.16 4.16 0 0 0 .27 1.43 4.07 4.07 0 0 0 4.17 2.82 5.62 5.62 0 0 0 4.37-1.78c.19-.2.38-.23.58-.08l2.28 2a.35.35 0 0 1 0 .54 9.82 9.82 0 0 1-7.65 3.17c-3.9.02-6.69-1.91-7.73-5.16zm11.24-8.23a4 4 0 0 0-7.3 0 4.64 4.64 0 0 0-.23 1.58.21.21 0 0 0 .23.23h7.3a.21.21 0 0 0 .23-.23 4.77 4.77 0 0 0-.23-1.58zM241.27 105.22a.37.37 0 0 1-.39-.38v-1.35c-.89 1.28-2.63 2.16-5.26 2.16-3.4 0-6.26-1.77-6.26-5.68 0-4.05 2.86-5.91 7.46-5.91h3.78a.21.21 0 0 0 .23-.23v-.89c0-2.13-1-3.09-4.14-3.09a6.53 6.53 0 0 0-4.25 1.28.35.35 0 0 1-.54-.08l-1.43-2.55a.36.36 0 0 1 .08-.5 10.88 10.88 0 0 1 6.61-1.82c5.68 0 7.76 1.93 7.76 6.49v12.17a.36.36 0 0 1-.38.38zM240.8 99v-1.46a.21.21 0 0 0-.23-.23h-3.09c-2.78 0-4 .77-4 2.51 0 1.55 1.12 2.32 3.2 2.32 2.65-.01 4.12-1.05 4.12-3.14zM254.82 105.46c-3.63 0-5.1-1.74-5.1-5.34V79.34a.37.37 0 0 1 .39-.39h3.56a.37.37 0 0 1 .38.39v20.55c0 1.28.5 1.7 1.62 1.7h.85a.36.36 0 0 1 .38.39v3.09a.37.37 0 0 1-.38.39zM265.59 105.46c-3.74 0-5.17-1.82-5.17-5.45V90.2a.2.2 0 0 0-.23-.23H259a.37.37 0 0 1-.39-.39V87a.37.37 0 0 1 .39-.39h1.23a.2.2 0 0 0 .23-.23v-5.1a.37.37 0 0 1 .39-.39h3.55a.37.37 0 0 1 .39.39v5.1a.21.21 0 0 0 .23.23h2.47a.37.37 0 0 1 .39.39v2.59a.37.37 0 0 1-.39.39H265a.2.2 0 0 0-.23.23v9.66c0 1.31.54 1.74 1.74 1.74h1a.37.37 0 0 1 .39.39v3.09a.37.37 0 0 1-.39.39zM283.75 105.22a.36.36 0 0 1-.39-.38V94.1c0-2.39-1.2-4.05-3.52-4.05s-3.55 1.66-3.55 4.05v10.74a.37.37 0 0 1-.38.38h-3.56a.37.37 0 0 1-.38-.38v-25.5a.37.37 0 0 1 .38-.39h3.56a.37.37 0 0 1 .38.39v9a5.75 5.75 0 0 1 4.9-2.16c4 0 6.45 2.94 6.45 6.92v11.74a.37.37 0 0 1-.39.38z"/><path class="cls-1" d="M341.43 270.56a.15.15 0 0 1-.16-.16V260a.15.15 0 0 1 .16-.16h3.81a3.21 3.21 0 1 1 0 6.4h-2.47a.08.08 0 0 0-.09.09v4.07a.15.15 0 0 1-.16.16zm5.83-7.52a1.84 1.84 0 0 0-2.1-1.89h-2.4a.08.08 0 0 0-.09.09v3.59a.08.08 0 0 0 .09.09h2.4a1.84 1.84 0 0 0 2.1-1.92zM350.89 270.56a.15.15 0 0 1-.16-.16v-7.24a.15.15 0 0 1 .16-.16h1a.15.15 0 0 1 .16.16v.77a2.1 2.1 0 0 1 2-1.1 2.32 2.32 0 0 1 1.54.57c.08.08.09.14 0 .22l-.58.77a.14.14 0 0 1-.22 0 2.13 2.13 0 0 0-1.17-.36c-1.15 0-1.62.9-1.62 2.21v4.13a.15.15 0 0 1-.16.16zM357.15 268.7a7.38 7.38 0 0 1 0-3.83 3.2 3.2 0 0 1 6 0 7.4 7.4 0 0 1 0 3.83 3.2 3.2 0 0 1-6 0zm4.68-.38a4.92 4.92 0 0 0 .17-1.54 4.81 4.81 0 0 0-.17-1.53 1.82 1.82 0 0 0-3.4 0 4.84 4.84 0 0 0-.17 1.53 5 5 0 0 0 .17 1.54 1.82 1.82 0 0 0 3.4 0zM365.49 272.46a.14.14 0 0 1 0-.22l.65-.65a.15.15 0 0 1 .24 0 2.52 2.52 0 0 0 1.78.76c1.25 0 1.91-.65 1.91-2v-.88a2.17 2.17 0 0 1-2.1 1 2.47 2.47 0 0 1-2.54-1.83 7.92 7.92 0 0 1 0-4 2.47 2.47 0 0 1 2.54-1.83 2.17 2.17 0 0 1 2.1 1v-.71a.15.15 0 0 1 .16-.16h1a.15.15 0 0 1 .16.16v7.06a3 3 0 0 1-3.29 3.34 3.41 3.41 0 0 1-2.61-1.04zm4.41-4.33a4.59 4.59 0 0 0 .17-1.47 4.66 4.66 0 0 0-.17-1.47 1.7 1.7 0 0 0-3.2 0 4.73 4.73 0 0 0-.19 1.47 4.66 4.66 0 0 0 .19 1.47 1.54 1.54 0 0 0 1.59 1.14 1.56 1.56 0 0 0 1.62-1.15zM374.31 270.56a.15.15 0 0 1-.16-.16v-7.24a.15.15 0 0 1 .16-.16h1a.15.15 0 0 1 .16.16v.77a2.1 2.1 0 0 1 2-1.1 2.32 2.32 0 0 1 1.54.57c.08.08.09.14 0 .22l-.58.77a.14.14 0 0 1-.22 0 2.13 2.13 0 0 0-1.17-.36c-1.15 0-1.62.9-1.62 2.21v4.13a.15.15 0 0 1-.16.16zM380.57 268.69a5.9 5.9 0 0 1-.25-1.91 5.84 5.84 0 0 1 .24-1.91 3.18 3.18 0 0 1 5.93 0 6.57 6.57 0 0 1 .24 2.16.15.15 0 0 1-.17.16h-4.78a.08.08 0 0 0-.09.09 2.82 2.82 0 0 0 .13.91 1.86 1.86 0 0 0 1.91 1.31 2.47 2.47 0 0 0 1.94-.84c.08-.08.16-.09.24 0l.65.58a.14.14 0 0 1 0 .22 3.67 3.67 0 0 1-2.95 1.29 2.92 2.92 0 0 1-3.04-2.06zm4.7-2.55a.08.08 0 0 0 .09-.09 2.65 2.65 0 0 0-.11-.85 1.86 1.86 0 0 0-3.47 0 2.65 2.65 0 0 0-.11.85.08.08 0 0 0 .09.09zM388.48 269.6a.15.15 0 0 1 0-.22l.65-.69a.15.15 0 0 1 .22 0 3.67 3.67 0 0 0 2.33.87c1.1 0 1.66-.47 1.66-1.15s-.28-.93-1.47-1.06l-.8-.08c-1.48-.16-2.25-.9-2.25-2.13 0-1.43 1-2.3 2.81-2.3a4.52 4.52 0 0 1 2.68.84.15.15 0 0 1 0 .22l-.54.68a.15.15 0 0 1-.22 0 4 4 0 0 0-2-.61c-.95 0-1.43.43-1.43 1s.36.91 1.48 1l.79.08c1.53.14 2.27.91 2.27 2.13 0 1.48-1.07 2.47-3 2.47a4.69 4.69 0 0 1-3.18-1.05zM396.37 269.6a.15.15 0 0 1 0-.22l.65-.69a.15.15 0 0 1 .22 0 3.67 3.67 0 0 0 2.33.87c1.1 0 1.66-.47 1.66-1.15s-.28-.93-1.47-1.06l-.8-.08c-1.48-.16-2.25-.9-2.25-2.13 0-1.43 1-2.3 2.81-2.3a4.52 4.52 0 0 1 2.68.84.15.15 0 0 1 0 .22l-.54.68a.15.15 0 0 1-.22 0 4 4 0 0 0-2-.61c-.95 0-1.43.43-1.43 1s.36.91 1.48 1l.79.08c1.53.14 2.27.91 2.27 2.13 0 1.48-1.07 2.47-3 2.47a4.69 4.69 0 0 1-3.18-1.05zM357.85 201.32a.61.61 0 0 0 0 .85l8.67 8.67a.6.6 0 0 1 0 .86l-8.67 8.67a.62.62 0 0 0 0 .85l8.67 8.68a.61.61 0 0 0 .86 0l18.2-18.2a.61.61 0 0 0 0-.86l-18.2-18.2a.61.61 0 0 0-.85 0zM229.43 260a.15.15 0 0 1 .16-.16H236a.15.15 0 0 1 .16.16v1a.15.15 0 0 1-.16.16h-5.11a.08.08 0 0 0-.09.09v3.26a.08.08 0 0 0 .09.09h4.33a.15.15 0 0 1 .16.16v1a.15.15 0 0 1-.16.16h-4.33a.08.08 0 0 0-.09.09v4.4a.15.15 0 0 1-.16.16h-1.09a.15.15 0 0 1-.16-.16zM238.12 268.69a5.9 5.9 0 0 1-.25-1.91 5.84 5.84 0 0 1 .24-1.91 3.18 3.18 0 0 1 5.93 0 6.57 6.57 0 0 1 .24 2.16.15.15 0 0 1-.17.16h-4.78a.08.08 0 0 0-.09.09 2.82 2.82 0 0 0 .13.91 1.86 1.86 0 0 0 1.91 1.31 2.47 2.47 0 0 0 1.94-.84c.08-.08.16-.09.24 0l.65.58a.14.14 0 0 1 0 .22 3.67 3.67 0 0 1-2.95 1.29 2.92 2.92 0 0 1-3.04-2.06zm4.7-2.55a.08.08 0 0 0 .09-.09 2.65 2.65 0 0 0-.11-.85 1.86 1.86 0 0 0-3.47 0 2.65 2.65 0 0 0-.11.85.08.08 0 0 0 .09.09zM251.29 270.56a.15.15 0 0 1-.16-.16v-.73a2.3 2.3 0 0 1-2.14 1.06 2.49 2.49 0 0 1-2.6-1.81 8.63 8.63 0 0 1 0-4.27 2.49 2.49 0 0 1 2.6-1.81 2.29 2.29 0 0 1 2.14 1V260a.15.15 0 0 1 .16-.16h1a.15.15 0 0 1 .16.16v10.4a.15.15 0 0 1-.16.16zm-.33-2.21a4.86 4.86 0 0 0 .17-1.58 4.92 4.92 0 0 0-.17-1.58 1.79 1.79 0 0 0-3.33 0 5.38 5.38 0 0 0-.17 1.58 5.24 5.24 0 0 0 .17 1.58 1.78 1.78 0 0 0 3.33 0zM255 268.69a5.9 5.9 0 0 1-.25-1.91 5.84 5.84 0 0 1 .24-1.91 3.18 3.18 0 0 1 5.93 0 6.57 6.57 0 0 1 .24 2.16.15.15 0 0 1-.17.16h-4.78a.08.08 0 0 0-.09.09 2.82 2.82 0 0 0 .13.91 1.86 1.86 0 0 0 1.91 1.31 2.47 2.47 0 0 0 1.94-.84c.08-.08.16-.09.24 0l.65.58a.14.14 0 0 1 0 .22 3.67 3.67 0 0 1-2.95 1.29 2.92 2.92 0 0 1-3.04-2.06zm4.7-2.55a.08.08 0 0 0 .09-.09 2.65 2.65 0 0 0-.11-.85 1.86 1.86 0 0 0-3.47 0 2.65 2.65 0 0 0-.11.85.08.08 0 0 0 .09.09zM263.59 270.56a.15.15 0 0 1-.16-.16v-7.24a.15.15 0 0 1 .16-.16h1a.15.15 0 0 1 .16.16v.77a2.1 2.1 0 0 1 2-1.1 2.32 2.32 0 0 1 1.54.57c.08.08.09.14 0 .22l-.58.77a.14.14 0 0 1-.22 0 2.13 2.13 0 0 0-1.17-.36c-1.15 0-1.62.9-1.62 2.21v4.13a.15.15 0 0 1-.16.16zM274.62 270.56a.15.15 0 0 1-.16-.16v-.66a2.48 2.48 0 0 1-2.24 1 2.24 2.24 0 0 1-2.54-2.27c0-1.59 1.1-2.33 2.95-2.33h1.72a.08.08 0 0 0 .09-.09v-.55c0-1-.41-1.48-1.81-1.48a2.94 2.94 0 0 0-1.83.54c-.08.06-.17.06-.22 0l-.43-.73a.17.17 0 0 1 0-.22 4.19 4.19 0 0 1 2.57-.74c2.14 0 3 .71 3 2.57v5a.15.15 0 0 1-.16.16zm-.19-2.44v-.84a.08.08 0 0 0-.09-.09h-1.51c-1.31 0-1.87.38-1.87 1.23s.57 1.18 1.58 1.18c1.17 0 1.89-.55 1.89-1.48zM280.21 270.64c-1.32 0-1.84-.63-1.84-2V260a.15.15 0 0 1 .16-.16h1a.15.15 0 0 1 .16.16v8.57c0 .63.24.84.76.84h.3a.15.15 0 0 1 .16.16v.91a.15.15 0 0 1-.16.16zM282.3 196H251a.21.21 0 0 0-.21.2v6.58a.21.21 0 0 0 .21.2h31.3a.21.21 0 0 0 .2-.2v-6.58a.2.2 0 0 0-.2-.2zM282.3 209.9H251a.21.21 0 0 0-.21.2v6.58a.21.21 0 0 0 .21.2h31.3a.2.2 0 0 0 .2-.2v-6.58a.2.2 0 0 0-.2-.2z"/><rect class="cls-1" x="228.45" y="223.78" width="53.93" height="6.99" rx=".2" ry=".2"/><path class="cls-1" d="M242.85 204.33a.25.25 0 0 0-.21-.18l-5.63-.54-1.73-4.8a.24.24 0 0 0-.23-.15.24.24 0 0 0-.23.15l-1.73 4.8-5.63.54a.25.25 0 0 0-.21.18.24.24 0 0 0 .09.26l4.53 3.29-1.73 5.33a.24.24 0 0 0 .09.28.25.25 0 0 0 .29 0l4.48-3.29 4.53 3.29a.24.24 0 0 0 .29 0 .25.25 0 0 0 .09-.28l-1.73-5.33 4.53-3.29a.24.24 0 0 0 .14-.26zM42.49 196H7.86a.2.2 0 0 0-.21.2v6.58a.21.21 0 0 0 .21.2h34.63a.2.2 0 0 0 .2-.2v-6.58a.2.2 0 0 0-.2-.2zM42.49 223.78H7.86a.2.2 0 0 0-.21.2v6.58a.21.21 0 0 0 .21.2h34.63a.2.2 0 0 0 .2-.2V224a.2.2 0 0 0-.2-.22zM42.49 209.9H7.86a.2.2 0 0 0-.21.2v6.58a.21.21 0 0 0 .21.2h34.63a.2.2 0 0 0 .2-.2v-6.58a.2.2 0 0 0-.2-.2zM0 260a.15.15 0 0 1 .16-.16h1a.24.24 0 0 1 .25.16l3.2 7.22L7.82 260a.24.24 0 0 1 .25-.16h1a.15.15 0 0 1 .16.16v10.4a.15.15 0 0 1-.16.16h-1a.15.15 0 0 1-.16-.16V263l-2.66 5.9a.27.27 0 0 1-.28.19h-.65a.28.28 0 0 1-.3-.19L1.36 263v7.46a.15.15 0 0 1-.16.16h-1a.15.15 0 0 1-.16-.16zM12.16 261.31a.15.15 0 0 1-.16-.16V260a.15.15 0 0 1 .16-.16h1.07a.15.15 0 0 1 .16.16v1.15a.15.15 0 0 1-.16.16zm0 9.25a.15.15 0 0 1-.16-.16v-7.24a.15.15 0 0 1 .16-.16h1a.15.15 0 0 1 .16.16v7.24a.15.15 0 0 1-.16.16zM15.58 269.6a.15.15 0 0 1 0-.22l.65-.69a.15.15 0 0 1 .22 0 3.67 3.67 0 0 0 2.33.87c1.1 0 1.66-.47 1.66-1.15s-.28-.93-1.47-1.06l-.8-.08c-1.48-.16-2.25-.9-2.25-2.13 0-1.43 1-2.3 2.81-2.3a4.52 4.52 0 0 1 2.68.84.15.15 0 0 1 0 .22l-.54.68a.15.15 0 0 1-.22 0 4 4 0 0 0-2-.61c-.95 0-1.43.43-1.43 1s.36.91 1.48 1l.79.08c1.53.14 2.27.91 2.27 2.13 0 1.48-1.07 2.47-3 2.47a4.69 4.69 0 0 1-3.18-1.05zM23.46 269.6a.15.15 0 0 1 0-.22l.65-.69a.15.15 0 0 1 .22 0 3.67 3.67 0 0 0 2.33.87c1.1 0 1.66-.47 1.66-1.15s-.28-.93-1.47-1.06l-.8-.08c-1.48-.16-2.25-.9-2.25-2.13 0-1.43 1-2.3 2.81-2.3a4.52 4.52 0 0 1 2.68.84.15.15 0 0 1 0 .22l-.54.68a.15.15 0 0 1-.22 0 4 4 0 0 0-2-.61c-.95 0-1.43.43-1.43 1s.36.91 1.48 1l.79.08c1.53.14 2.27.91 2.27 2.13 0 1.48-1.07 2.47-3 2.47a4.69 4.69 0 0 1-3.18-1.05zM32 261.31a.15.15 0 0 1-.16-.16V260a.15.15 0 0 1 .16-.16h1.07a.15.15 0 0 1 .16.16v1.15a.15.15 0 0 1-.16.16zm0 9.25a.15.15 0 0 1-.16-.16v-7.24A.15.15 0 0 1 32 263h1a.15.15 0 0 1 .16.16v7.24a.15.15 0 0 1-.16.16zM35.73 268.7a7.38 7.38 0 0 1 0-3.83 2.92 2.92 0 0 1 3-2 2.92 2.92 0 0 1 3 2 7.4 7.4 0 0 1 0 3.83 3.2 3.2 0 0 1-6 0zm4.68-.38a4.92 4.92 0 0 0 .17-1.54 4.81 4.81 0 0 0-.17-1.53 1.82 1.82 0 0 0-3.4 0 4.84 4.84 0 0 0-.17 1.53 5 5 0 0 0 .17 1.54 1.82 1.82 0 0 0 3.4 0zM49.13 270.56a.15.15 0 0 1-.16-.16V266c0-1.21-.55-1.92-1.69-1.92a1.69 1.69 0 0 0-1.73 1.84v4.49a.15.15 0 0 1-.16.16h-1a.15.15 0 0 1-.16-.16v-7.24a.15.15 0 0 1 .16-.16h1a.15.15 0 0 1 .16.16v.69a2.39 2.39 0 0 1 2.11-1 2.54 2.54 0 0 1 2.62 2.84v4.73a.15.15 0 0 1-.16.16zM149 198.13a.67.67 0 0 0-.93 0l-9.55 9.55a.66.66 0 0 1-.94 0l-9.58-9.55a.68.68 0 0 0-.94 0l-9.55 9.55a.67.67 0 0 0 0 .94l20 20a.67.67 0 0 0 .94 0l20-20a.67.67 0 0 0 0-.94zM116.63 260a.15.15 0 0 1 .16-.16h1.09a.15.15 0 0 1 .16.16v4.4a.08.08 0 0 0 .09.09h4.65a.08.08 0 0 0 .09-.09V260a.15.15 0 0 1 .16-.16h1.09a.15.15 0 0 1 .16.16v10.4a.15.15 0 0 1-.16.16H123a.15.15 0 0 1-.16-.16v-4.5a.08.08 0 0 0-.09-.09h-4.65a.08.08 0 0 0-.09.09v4.51a.15.15 0 0 1-.16.16h-1.09a.15.15 0 0 1-.16-.16zM126.85 268.69a5.9 5.9 0 0 1-.25-1.91 5.84 5.84 0 0 1 .24-1.91 3.18 3.18 0 0 1 5.93 0A6.57 6.57 0 0 1 133 267a.15.15 0 0 1-.17.16H128a.08.08 0 0 0-.09.09 2.82 2.82 0 0 0 .13.91 1.86 1.86 0 0 0 1.91 1.31 2.47 2.47 0 0 0 1.94-.84c.08-.08.16-.09.24 0l.65.58a.14.14 0 0 1 0 .22 3.67 3.67 0 0 1-2.95 1.29 2.92 2.92 0 0 1-2.98-2.03zm4.7-2.55a.08.08 0 0 0 .09-.09 2.65 2.65 0 0 0-.11-.85 1.86 1.86 0 0 0-3.47 0 2.65 2.65 0 0 0-.11.85.08.08 0 0 0 .09.09zM139.85 270.56a.15.15 0 0 1-.16-.16v-.66a2.48 2.48 0 0 1-2.24 1 2.24 2.24 0 0 1-2.54-2.27c0-1.59 1.1-2.33 2.95-2.33h1.72a.08.08 0 0 0 .09-.09v-.55c0-1-.41-1.48-1.81-1.48a2.94 2.94 0 0 0-1.83.54c-.08.06-.17.06-.22 0l-.43-.73a.17.17 0 0 1 0-.22 4.19 4.19 0 0 1 2.57-.74c2.14 0 3 .71 3 2.57v5a.15.15 0 0 1-.16.16zm-.19-2.44v-.84a.08.08 0 0 0-.09-.09h-1.51c-1.31 0-1.87.38-1.87 1.23s.57 1.18 1.58 1.18c1.17 0 1.9-.55 1.9-1.48zM145.44 270.64c-1.32 0-1.84-.63-1.84-2V260a.15.15 0 0 1 .16-.16h1a.15.15 0 0 1 .16.16v8.57c0 .63.24.84.76.84h.3a.15.15 0 0 1 .16.16v.91a.15.15 0 0 1-.16.16zM150.34 270.64c-1.47 0-2-.66-2-2.14v-4.32a.08.08 0 0 0-.09-.09h-.63a.15.15 0 0 1-.16-.16v-.76a.15.15 0 0 1 .16-.16h.63a.08.08 0 0 0 .09-.09v-2.13a.15.15 0 0 1 .16-.16h1a.15.15 0 0 1 .16.16v2.13a.08.08 0 0 0 .09.09h1.2a.15.15 0 0 1 .16.16v.76a.15.15 0 0 1-.16.16h-1.2a.08.08 0 0 0-.09.09v4.27c0 .76.28 1 1 1h.33a.15.15 0 0 1 .16.16v.91a.15.15 0 0 1-.16.16zM158.19 270.56a.15.15 0 0 1-.16-.16V266c0-1.21-.55-1.92-1.69-1.92a1.69 1.69 0 0 0-1.73 1.84v4.49a.15.15 0 0 1-.16.16h-1a.15.15 0 0 1-.16-.16V260a.15.15 0 0 1 .16-.16h1a.15.15 0 0 1 .16.16v3.86a2.39 2.39 0 0 1 2.11-1 2.54 2.54 0 0 1 2.62 2.84v4.73a.15.15 0 0 1-.16.16z"/></g></g></svg>