<svg xmlns="http://www.w3.org/2000/svg" viewBox="0 0 1360 800"><defs><clipPath id="a"><path fill="none" d="M336.06 534c0-189.5 153.62-343.13 343.13-343.13S1022.32 344.54 1022.32 534"/></clipPath></defs><g data-name="Layer 1"><g stroke="#02c386" opacity=".1" stroke-linecap="round" stroke-linejoin="round" clip-path="url(#a)"><path fill="none" stroke-width="2" d="M673.27 110h-200v431"/><path fill="#34495e" stroke-width="2" d="M673.27 478h-199m199-3h-199m199 61h-199m199-7h-199m199-105h-199m199-5h-199m199-303h-199m65 425V112m68 429V112m66 429V112"/><path fill="#34495e" stroke-width="1.5" d="M493.25 412.32v-5.93h29.9v5.93zm.01-11.86v-5.93h29.9v5.93zm-.01-11.85v-5.93h29.9v5.93z"/><path fill="#34495e" stroke-width="1.5" d="M489.193 383.586l5.007-5.006 33.007 33.008-5.006 5.006z"/><path fill="#34495e" stroke-width="1.5" d="M484.58 419.4v-7.08h47.24v7.08zm38.57-36.76h7.08v29.68h-7.08z"/><path fill="#34495e" stroke-width="1.5" d="M484.58 382.65v-7.08h47.24v7.08z"/><path fill="#34495e" stroke-width="1.5" d="M486.21 382.64h7.08v29.68h-7.08zm73.46 29.66v-5.93h29.9v5.93zm0-11.85v-5.93h29.9v5.93zm-.01-11.85v-5.93h29.9v5.93z"/><path fill="#34495e" stroke-width="1.5" d="M560.613 416.582l-5.006-5.006 33.008-33.008 5.006 5.006z"/><path fill="#34495e" stroke-width="1.5" d="M551 419.38v-7.08h47.24v7.08zm38.56-36.76h7.08v29.68h-7.08z"/><path fill="#34495e" stroke-width="1.5" d="M550.99 382.63v-7.08h47.24v7.08z"/><path fill="#34495e" stroke-width="1.5" d="M552.63 382.62h7.08v29.68h-7.08zm73.45 29.59v-5.93h29.9v5.93zm0-11.86v-5.93h29.9v5.93zm0-11.85v-5.93h29.9v5.93z"/><path fill="#34495e" stroke-width="1.5" d="M622.023 383.466l5.007-5.006 33.007 33.008-5.006 5.006z"/><path fill="#34495e" stroke-width="1.5" d="M617.41 419.28v-7.08h47.24v7.08z"/><path fill="#34495e" stroke-width="1.5" d="M655.97 382.53h7.08v29.68h-7.08zm-38.56-.01v-7.08h47.24v7.08zm1.63.01h7.08v29.68h-7.08zM493.26 523.12v-5.93h29.9v5.93zm-.01-11.85v-5.93h29.9v5.93zm0-11.85v-5.93h29.9v5.93z"/><path fill="#34495e" stroke-width="1.5" d="M489.198 494.4l5.006-5.006 33.008 33.008-5.007 5.006z"/><path fill="#34495e" stroke-width="1.5" d="M484.58 530.21v-7.08h47.24v7.08zm38.57-36.76h7.08v29.68h-7.08zm-38.57 0v-7.08h47.24v7.08zm1.63 0h7.08v29.68h-7.08zm7.04-26.52V461h29.9v5.93zm0-11.85v-5.93h29.9v5.93zm0-11.85v-5.93h29.9v5.93z"/><path fill="#34495e" stroke-width="1.5" d="M494.2 471.212l-5.005-5.007 33.008-33.007 5.006 5.006z"/><path fill="#34495e" stroke-width="1.5" d="M484.58 474.01v-7.08h47.24v7.08z"/><path fill="#34495e" stroke-width="1.5" d="M523.15 437.26h7.08v29.68h-7.08zm-38.57 0v-7.08h47.24v7.08zm1.63 0h7.08v29.68h-7.08zm73.45 29.76v-5.93h29.9v5.93zm.01-11.85v-5.93h29.9v5.93zm0-11.85v-5.93h29.9v5.93z"/><path fill="#34495e" stroke-width="1.5" d="M555.6 438.296l5.007-5.006 33.008 33.007-5.006 5.007z"/><path fill="#34495e" stroke-width="1.5" d="M550.99 474.1v-7.08h47.24v7.08z"/><path fill="#34495e" stroke-width="1.5" d="M589.56 437.35h7.08v29.68h-7.08zm-38.56 0v-7.08h47.24v7.08zm1.63 0h7.08v29.68h-7.08zm7.04 85.76v-5.93h29.9v5.93zm-.01-11.85v-5.93h29.9v5.93zm0-11.86v-5.93h29.9v5.93z"/><path fill="#34495e" stroke-width="1.5" d="M560.618 527.387l-5.007-5.006 33.01-33 5.01 5.008z"/><path fill="#34495e" stroke-width="1.5" d="M551 530.19v-7.08h47.24v7.08zm38.56-36.76h7.08v29.68h-7.08z"/><path fill="#34495e" stroke-width="1.5" d="M550.99 493.44v-7.08h47.24v7.08z"/><path fill="#34495e" stroke-width="1.5" d="M552.63 493.43h7.08v29.68h-7.08zm73.44-26.5V461h29.9v5.93zm.01-11.85v-5.93h29.9v5.93zm0-11.86v-5.93h29.9v5.93z"/><path fill="#34495e" stroke-width="1.5" d="M627.026 471.197l-5.006-5.007 33.008-33.007 5.006 5.006z"/><path fill="#34495e" stroke-width="1.5" d="M617.4 474v-7.08h47.24V474z"/><path fill="#34495e" stroke-width="1.5" d="M655.97 437.25h7.08v29.68h-7.08zm-38.56 0v-7.08h47.24v7.08zm1.63 0h7.08v29.68h-7.08zm7.04 85.76v-5.93h29.9v5.93zm0-11.85v-5.93h29.9v5.93zm0-11.85v-5.93h29.9v5.93z"/><path fill="#34495e" stroke-width="1.5" d="M622.018 494.28l5.006-5.005 33.008 33.007-5.006 5.007z"/><path fill="#34495e" stroke-width="1.5" d="M617.41 530.09v-7.08h47.24v7.08zm38.56-36.76h7.08v29.68h-7.08zm-38.57 0v-7.08h47.24v7.08zm1.64 0h7.08v29.68h-7.08z"/><path fill="none" stroke-width="2" d="M473.27 110h-199v431"/><path fill="#34495e" stroke-width="2" d="M473.27 478h-198m198-3h-198m198 61h-198m198-7h-198m198-105h-198m198-5h-198m198-303h-198m64 425V112m68 429V112m66 429V112"/><path fill="#34495e" stroke-width="1.5" d="M293.33 412.32v-5.93h29.9v5.93zm0-11.86v-5.93h29.9v5.93zm0-11.85v-5.93h29.9v5.93z"/><path fill="#34495e" stroke-width="1.5" d="M289.268 383.59l5.007-5.005 33.007 33.007-5.006 5.007z"/><path fill="#34495e" stroke-width="1.5" d="M284.66 419.4v-7.08h47.24v7.08zm38.57-36.76h7.08v29.68h-7.08zm-38.58 0v-7.08h47.24v7.08zm1.64 0h7.08v29.68h-7.08zm73.46 29.66v-5.93h29.9v5.93zm0-11.85v-5.93h29.9v5.93zm-.01-11.86v-5.93h29.9v5.93z"/><path fill="#34495e" stroke-width="1.5" d="M360.688 416.577l-5.006-5.007 33.007-33.007 5 5.006z"/><path fill="#34495e" stroke-width="1.5" d="M351.07 419.38v-7.08h47.24v7.08zm38.57-36.76h7.08v29.68h-7.08z"/><path fill="#34495e" stroke-width="1.5" d="M351.07 382.63v-7.08h47.24v7.08z"/><path fill="#34495e" stroke-width="1.5" d="M352.7 382.62h7.08v29.68h-7.08zm73.46 29.58v-5.93h29.9v5.93zm0-11.85v-5.93h29.9v5.93zm0-11.85v-5.93h29.9v5.93z"/><path fill="#34495e" stroke-width="1.5" d="M422.1 383.47l5.005-5.005 33.008 33.008-5.007 5.006z"/><path fill="#34495e" stroke-width="1.5" d="M417.48 419.28v-7.08h47.24v7.08z"/><path fill="#34495e" stroke-width="1.5" d="M456.05 382.53h7.08v29.68h-7.08zm-38.56-.01v-7.08h47.24v7.08zm1.63.01h7.08v29.68h-7.08zM293.34 523.12v-5.93h29.9v5.93zm-.01-11.85v-5.93h29.9v5.93zm0-11.85v-5.93h29.9v5.93z"/><path fill="#34495e" stroke-width="1.5" d="M289.273 494.395l5.006-5.006 33 33-5.007 5.005z"/><path fill="#34495e" stroke-width="1.5" d="M284.66 530.21v-7.08h47.24v7.08zm38.57-36.76h7.08v29.68h-7.08zm-38.57 0v-7.08h47.24v7.08zm1.63 0h7.08v29.68h-7.08zm7.04-26.52V461h29.9v5.93zm0-11.85v-5.93h29.9v5.93zm0-11.85v-5.93h29.9v5.93z"/><path fill="#34495e" stroke-width="1.5" d="M294.276 471.216l-5.006-5.006 33.008-33.008 5.006 5.007z"/><path fill="#34495e" stroke-width="1.5" d="M284.66 474.01v-7.08h47.24v7.08z"/><path fill="#34495e" stroke-width="1.5" d="M323.23 437.26h7.08v29.68h-7.08zm-38.57 0v-7.08h47.24v7.08zm1.63 0h7.08v29.68h-7.08zm73.45 29.76v-5.93h29.9v5.93zm.01-11.85v-5.93h29.9v5.93zm0-11.85v-5.93h29.9v5.93z"/><path fill="#34495e" stroke-width="1.5" d="M355.686 438.29l5.006-5.006 33.008 33.008-5.006 5.007z"/><path fill="#34495e" stroke-width="1.5" d="M351.07 474.1v-7.08h47.24v7.08z"/><path fill="#34495e" stroke-width="1.5" d="M389.64 437.35h7.08v29.68h-7.08zm-38.57 0v-7.08h47.24v7.08zm1.63 0h7.08v29.68h-7.08zm7.05 85.76v-5.93h29.9v5.93zm-.01-11.86v-5.93h29.9v5.93zm0-11.85v-5.93h29.9v5.93z"/><path fill="#34495e" stroke-width="1.5" d="M360.692 527.382l-5.006-5.006 33.008-33.008 5.006 5.007z"/><path fill="#34495e" stroke-width="1.5" d="M351.08 530.19v-7.08h47.24v7.08zm38.56-36.76h7.08v29.68h-7.08zm-38.57 0v-7.08h47.24v7.08zm1.63 0h7.08v29.68h-7.08zm73.45-26.5V461h29.9v5.93zm.01-11.86v-5.93h29.9v5.93zm0-11.85v-5.93h29.9v5.93z"/><path fill="#34495e" stroke-width="1.5" d="M427.1 471.19l-5.005-5.005 33.008-33.008 5.006 5.007z"/><path fill="#34495e" stroke-width="1.5" d="M417.48 474v-7.08h47.24V474z"/><path fill="#34495e" stroke-width="1.5" d="M456.05 437.25h7.08v29.68h-7.08zm-38.57 0v-7.08h47.24v7.08zm1.64 0h7.08v29.68h-7.08zm7.04 85.76v-5.93h29.9v5.93zm0-11.85v-5.93h29.9v5.93zm0-11.85v-5.93h29.9v5.93z"/><path fill="#34495e" stroke-width="1.5" d="M422.103 494.276l5.006-5.007 33 33-5.007 5.005z"/><path fill="#34495e" stroke-width="1.5" d="M417.49 530.08V523h47.24v7.08z"/><path fill="#34495e" stroke-width="1.5" d="M456.05 493.33h7.08v29.68h-7.08zm-38.57 0v-7.08h47.24v7.08zm1.64 0h7.08v29.68h-7.08z"/><path fill="none" stroke-width="2" d="M673.27 110h198v431"/><path fill="#34495e" stroke-width="2" d="M673.27 478h197m-197-3h197m-197 61h197m-197-7h197m-197-105h197m-197-5h197m-197-303h197m-65 425V112m-65 429V112m-67 429V112"/><path fill="#34495e" stroke-width="1.5" d="M822.9 412.32v-5.93h29.9v5.93zm0-11.86v-5.93h29.9v5.93zm0-11.85v-5.93h29.9v5.93z"/><path fill="#34495e" stroke-width="1.5" d="M823.848 416.6l-5.006-5.007 33.008-33.008 5.006 5.006z"/><path fill="#34495e" stroke-width="1.5" d="M814.23 419.4v-7.08h47.24v7.08zm8.67-7.08h-7.08v-29.68h7.08zm-8.68-29.68v-7.08h47.24v7.08zm45.62 29.68h-7.08v-29.68h7.08zm-103.35-.02v-5.93h29.9v5.93zm0-11.85v-5.93h29.9v5.93zm-.01-11.85v-5.93h29.9v5.93z"/><path fill="#34495e" stroke-width="1.5" d="M752.428 383.563l5.006-5.006 33.008 33.008-5.006 5.006z"/><path fill="#34495e" stroke-width="1.5" d="M747.82 419.37v-7.08h47.24v7.08z"/><path fill="#34495e" stroke-width="1.5" d="M756.49 412.3h-7.08v-29.68h7.08zm-8.68-29.68v-7.08h47.24v7.08zm45.61 29.68h-7.08v-29.68h7.08zm-103.35-.1v-5.93h29.9v5.93zm.01-11.85v-5.93h29.9v5.93zm0-11.85v-5.93h29.9v5.93z"/><path fill="#34495e" stroke-width="1.5" d="M691.02 416.49l-5.008-5.007 33.008-33.008 5.006 5.006z"/><path fill="#34495e" stroke-width="1.5" d="M681.4 419.28v-7.08h47.24v7.08zm8.67-7.08h-7.08v-29.68h7.08z"/><path fill="#34495e" stroke-width="1.5" d="M681.41 382.53v-7.08h47.24v7.08z"/><path fill="#34495e" stroke-width="1.5" d="M727.01 412.2h-7.08v-29.68h7.08zm95.9 110.92v-5.93h29.9v5.93zm-.01-11.85v-5.93h29.9v5.93zm0-11.85v-5.93h29.9v5.93z"/><path fill="#34495e" stroke-width="1.5" d="M823.853 527.405l-5.006-5.007 33.007-33.008 5.007 5.007z"/><path fill="#34495e" stroke-width="1.5" d="M814.23 530.21v-7.08h47.24v7.08zm8.67-7.08h-7.08v-29.68h7.08zm-8.67-29.68v-7.08h47.24v7.08zm45.61 29.68h-7.08v-29.68h7.08zm-36.94-56.2V461h29.9v5.93zm0-11.85v-5.93h29.9v5.93zm0-11.85v-5.93h29.9v5.93z"/><path fill="#34495e" stroke-width="1.5" d="M818.836 438.204l5.006-5.007 33.008 33.008-5.006 5.006z"/><path fill="#34495e" stroke-width="1.5" d="M814.23 474.01v-7.08h47.24v7.08zm8.67-7.08h-7.08v-29.68h7.08z"/><path fill="#34495e" stroke-width="1.5" d="M814.23 437.26v-7.08h47.24v7.08z"/><path fill="#34495e" stroke-width="1.5" d="M859.84 466.93h-7.08v-29.68h7.08zm-103.35.1v-5.93h29.9v5.93zm0-11.86v-5.93h29.9v5.93zm0-11.85v-5.93h29.9v5.93z"/><path fill="#34495e" stroke-width="1.5" d="M757.436 471.3l-5.006-5.007 33.008-33.008 5.006 5.007z"/><path fill="#34495e" stroke-width="1.5" d="M747.81 474.1v-7.08h47.24v7.08zm8.68-7.08h-7.08v-29.68h7.08zm-8.67-29.68v-7.08h47.24v7.08zm45.6 29.68h-7.08v-29.68h7.08zm-36.93 56.09v-5.93h29.9v5.93zm-.01-11.85v-5.93h29.9v5.93zm.01-11.85v-5.93h29.9v5.93z"/><path fill="#34495e" stroke-width="1.5" d="M752.432 494.378l5.007-5.007 33 33.01-5.008 5.01z"/><path fill="#34495e" stroke-width="1.5" d="M747.82 530.18v-7.08h47.24v7.08z"/><path fill="#34495e" stroke-width="1.5" d="M756.49 523.11h-7.08v-29.68h7.08zm-8.68-29.68v-7.08h47.24v7.08zm45.61 29.68h-7.08v-29.68h7.08zm-103.35-56.18V461h29.9v5.93zm0-11.86v-5.93h29.9v5.93zm.01-11.85v-5.93h29.9v5.93z"/><path fill="#34495e" stroke-width="1.5" d="M686.02 438.2l5.007-5.008 33.008 33.008-5.006 5.006z"/><path fill="#34495e" stroke-width="1.5" d="M681.4 474.01v-7.08h47.24v7.08zm8.67-7.09h-7.08v-29.68h7.08z"/><path fill="#34495e" stroke-width="1.5" d="M681.4 437.25v-7.08h47.24v7.08z"/><path fill="#34495e" stroke-width="1.5" d="M727.01 466.92h-7.08v-29.68h7.08zm-36.93 56.09v-5.93h29.9v5.93zm0-11.85v-5.93h29.9v5.93zm0-11.85v-5.93h29.9v5.93z"/><path fill="#34495e" stroke-width="1.5" d="M691.023 527.294l-5.006-5.006 33.008-33.008 5.006 5.007z"/><path fill="#34495e" stroke-width="1.5" d="M681.4 530.09v-7.08h47.24v7.08zm8.67-7.08h-7.08v-29.68h7.08z"/><path fill="#34495e" stroke-width="1.5" d="M681.4 493.34v-7.08h47.24v7.08z"/><path fill="#34495e" stroke-width="1.5" d="M727.01 523.01h-7.08v-29.68h7.08z"/><path fill="none" stroke-width="2" d="M1069.27 110h-198v431"/><path fill="#34495e" stroke-width="2" d="M1069.27 478h-198m198-3h-198m198 61h-198m198-7h-198m198-105h-198m198-5h-198m198-303h-198m66 425V112m67 429V112m65 429V112"/><path fill="#34495e" stroke-width="1.5" d="M890.05 412.32v-5.93h29.9v5.93zm.01-11.86v-5.93h29.9v5.93zm-.01-11.85v-5.93h29.9v5.93z"/><path fill="#34495e" stroke-width="1.5" d="M885.993 383.586L891 378.58l33.007 33.008-5.006 5.006z"/><path fill="#34495e" stroke-width="1.5" d="M881.38 419.4v-7.08h47.24v7.08zm38.57-36.76h7.08v29.68h-7.08z"/><path fill="#34495e" stroke-width="1.5" d="M881.38 382.65v-7.08h47.24v7.08z"/><path fill="#34495e" stroke-width="1.5" d="M883.01 382.64h7.08v29.68h-7.08zm73.46 29.66v-5.93h29.9v5.93zm0-11.85v-5.93h29.9v5.93zm-.01-11.85v-5.93h29.9v5.93z"/><path fill="#34495e" stroke-width="1.5" d="M957.413 416.582l-5.006-5.006 33.008-33.008 5.006 5.006z"/><path fill="#34495e" stroke-width="1.5" d="M947.79 419.38v-7.08h47.24v7.08zm38.57-36.76h7.08v29.68h-7.08z"/><path fill="#34495e" stroke-width="1.5" d="M947.79 382.63v-7.08h47.24v7.08z"/><path fill="#34495e" stroke-width="1.5" d="M949.43 382.62h7.08v29.68h-7.08zm73.45 29.59v-5.93h29.9v5.93zm0-11.86v-5.93h29.9v5.93zm0-11.85v-5.93h29.9v5.93z"/><path fill="#34495e" stroke-width="1.5" d="M1018.823 383.466l5.007-5.006 33.007 33.008-5.006 5.006z"/><path fill="#34495e" stroke-width="1.5" d="M1014.21 419.28v-7.08h47.24v7.08z"/><path fill="#34495e" stroke-width="1.5" d="M1052.77 382.53h7.08v29.68h-7.08zm-38.56-.01v-7.08h47.24v7.08zm1.63.01h7.08v29.68h-7.08z"/><path fill="#34495e" stroke-width="2" d="M673.27 369h-199m199-4h-199"/><path fill="#34495e" stroke-width="1.5" d="M493.25 357.66v-5.93h29.9v5.93zm0-11.85v-5.93h29.9v5.93zm0-11.85v-5.93h29.9v5.93z"/><path fill="#34495e" stroke-width="1.5" d="M489.2 328.943l5.006-5.006 33.008 33.007-5.006 5.007z"/><path fill="#34495e" stroke-width="1.5" d="M484.58 364.74v-7.08h47.24v7.08z"/><path fill="#34495e" stroke-width="1.5" d="M523.15 327.99h7.08v29.68h-7.08zm-38.57 0v-7.08h47.24v7.08zm1.63 0h7.08v29.68h-7.08zm73.45 29.66v-5.93h29.9v5.93zm0-11.86v-5.93h29.9v5.93zm.01-11.85v-5.93h29.9v5.93z"/><path fill="#34495e" stroke-width="1.5" d="M560.62 361.925l-5.007-5.006 33.008-33.01 5.01 5z"/><path fill="#34495e" stroke-width="1.5" d="M550.99 364.73v-7.08h47.24v7.08zm38.57-36.76h7.08v29.68h-7.08zm-38.57 0v-7.08h47.24v7.08zm1.64 0h7.08v29.68h-7.08zm73.45 29.58v-5.93h29.9v5.93zm-.01-11.85v-5.93h29.9v5.93zm.01-11.85v-5.93h29.9v5.93z"/><path fill="#34495e" stroke-width="1.5" d="M622.02 328.813l5.006-5.006 33.008 33.007-5.006 5.007z"/><path fill="#34495e" stroke-width="1.5" d="M617.41 364.62v-7.08h47.24v7.08z"/><path fill="#34495e" stroke-width="1.5" d="M655.97 327.87h7.08v29.68h-7.08zm-38.57 0v-7.08h47.24v7.08zm1.64 0h7.08v29.68h-7.08z"/><path fill="#34495e" stroke-width="2" d="M473.27 369h-198m198-4h-198"/><path fill="#34495e" stroke-width="1.5" d="M293.33 357.66v-5.93h29.9v5.93zm0-11.85v-5.93h29.9v5.93zm0-11.85v-5.93h29.9v5.93z"/><path fill="#34495e" stroke-width="1.5" d="M289.275 328.938l5.006-5.007 33.01 33.01-5 5.01z"/><path fill="#34495e" stroke-width="1.5" d="M284.66 364.74v-7.08h47.24v7.08z"/><path fill="#34495e" stroke-width="1.5" d="M323.23 327.99h7.08v29.68h-7.08zm-38.57 0v-7.08h47.24v7.08zm1.63 0h7.08v29.68h-7.08zm73.45 29.65v-5.93h29.9v5.93zm0-11.85v-5.93h29.9v5.93zm0-11.85v-5.93h29.9v5.93z"/><path fill="#34495e" stroke-width="1.5" d="M360.695 361.92l-5.007-5.006 33.008-33.008 5.006 5.006z"/><path fill="#34495e" stroke-width="1.5" d="M351.07 364.73v-7.08h47.24v7.08zm38.57-36.76h7.08v29.68h-7.08zm-38.57 0v-7.08h47.24v7.08zm1.63 0h7.08v29.68h-7.08zm73.46 29.58v-5.93h29.9v5.93zm-.01-11.85v-5.93h29.9v5.93zm0-11.85v-5.93h29.9v5.93z"/><path fill="#34495e" stroke-width="1.5" d="M422.105 328.818l5.007-5.007 33.007 33.01-5.01 5.01z"/><path fill="#34495e" stroke-width="1.5" d="M417.49 364.62v-7.08h47.24v7.08z"/><path fill="#34495e" stroke-width="1.5" d="M456.05 327.87h7.08v29.68h-7.08zm-38.57 0v-7.08h47.24v7.08zm1.64 0h7.08v29.68h-7.08z"/><path fill="#34495e" stroke-width="2" d="M673.27 369h197m-197-4h197"/><path fill="#34495e" stroke-width="1.5" d="M822.9 357.66v-5.93h29.9v5.93zm0-11.85v-5.93h29.9v5.93zm0-11.85v-5.93h29.9v5.93z"/><path fill="#34495e" stroke-width="1.5" d="M823.855 361.942l-5.006-5.006 33-33.008 5.005 5.007z"/><path fill="#34495e" stroke-width="1.5" d="M814.23 364.74v-7.08h47.24v7.08zm8.67-7.08h-7.08v-29.68h7.08z"/><path fill="#34495e" stroke-width="1.5" d="M814.23 327.99v-7.08h47.24v7.08z"/><path fill="#34495e" stroke-width="1.5" d="M859.84 357.66h-7.08v-29.68h7.08zm-103.36-.01v-5.93h29.9v5.93zm.01-11.85v-5.93h29.9v5.93zm0-11.86v-5.93h29.9v5.93z"/><path fill="#34495e" stroke-width="1.5" d="M752.434 328.92l5.007-5.006 33.01 33.007-5 5.01z"/><path fill="#34495e" stroke-width="1.5" d="M747.81 364.72v-7.08h47.24v7.08zm8.68-7.08h-7.08v-29.68h7.08z"/><path fill="#34495e" stroke-width="1.5" d="M747.82 327.97v-7.08h47.24v7.08z"/><path fill="#34495e" stroke-width="1.5" d="M793.42 357.64h-7.08v-29.68h7.08zm-103.34-.09v-5.93h29.9v5.93zm-.01-11.85v-5.93h29.9v5.93zm0-11.86v-5.93h29.9v5.93z"/><path fill="#34495e" stroke-width="1.5" d="M691.025 361.822l-5.006-5.006 33-33.008 5.005 5.007z"/><path fill="#34495e" stroke-width="1.5" d="M681.41 364.63v-7.08h47.24v7.08zm8.66-7.08h-7.08v-29.68h7.08z"/><path fill="#34495e" stroke-width="1.5" d="M681.4 327.88v-7.08h47.24v7.08z"/><path fill="#34495e" stroke-width="1.5" d="M727.01 357.55h-7.08v-29.68h7.08z"/><path fill="#34495e" stroke-width="2" d="M1069.27 369h-198m198-4h-198"/><path fill="#34495e" stroke-width="1.5" d="M890.05 357.66v-5.93h29.9v5.93zm0-11.85v-5.93h29.9v5.93zm0-11.85v-5.93h29.9v5.93z"/><path fill="#34495e" stroke-width="1.5" d="M886 328.933l5.006-5.006 33.008 33.007-5.006 5.007z"/><path fill="#34495e" stroke-width="1.5" d="M881.38 364.74v-7.08h47.24v7.08z"/><path fill="#34495e" stroke-width="1.5" d="M919.95 327.99h7.08v29.68h-7.08zm-38.57 0v-7.08h47.24v7.08zm1.63 0h7.08v29.68h-7.08zm73.45 29.65v-5.93h29.9v5.93zm0-11.85v-5.93h29.9v5.93zm.01-11.85v-5.93h29.9v5.93z"/><path fill="#34495e" stroke-width="1.5" d="M957.42 361.925l-5.007-5.006 33.008-33.01 5.01 5z"/><path fill="#34495e" stroke-width="1.5" d="M947.79 364.73v-7.08h47.24v7.08zm38.57-36.76h7.08v29.68h-7.08zm-38.57 0v-7.08h47.24v7.08zm1.64 0h7.08v29.68h-7.08zm73.45 29.58v-5.93h29.9v5.93zm-.01-11.85v-5.93h29.9v5.93zm.01-11.85v-5.93h29.9v5.93z"/><path fill="#34495e" stroke-width="1.5" d="M1018.82 328.813l5.006-5.006 33.008 33.007-5.006 5.007z"/><path fill="#34495e" stroke-width="1.5" d="M1014.21 364.62v-7.08h47.24v7.08z"/><path fill="#34495e" stroke-width="1.5" d="M1052.77 327.87h7.08v29.68h-7.08zm-38.57 0v-7.08h47.24v7.08zm1.64 0h7.08v29.68h-7.08z"/><path fill="#34495e" stroke-width="2" d="M673.27 314h-199m199-4h-199"/><path fill="#34495e" stroke-width="1.5" d="M493.25 303.01v-5.93h29.9v5.93zm.01-11.85v-5.93h29.9v5.93zm-.01-11.86v-5.93h29.9v5.93z"/><path fill="#34495e" stroke-width="1.5" d="M489.19 274.282l5.006-5.006 33.007 33.008-5.006 5.006z"/><path fill="#34495e" stroke-width="1.5" d="M484.58 310.09v-7.08h47.24v7.08zm38.57-36.76h7.08v29.68h-7.08z"/><path fill="#34495e" stroke-width="1.5" d="M484.58 273.34v-7.08h47.24v7.08z"/><path fill="#34495e" stroke-width="1.5" d="M486.21 273.33h7.08v29.68h-7.08zm73.46 29.66v-5.93h29.9v5.93zm0-11.85v-5.93h29.9v5.93zm0-11.85v-5.93h29.9v5.93z"/><path fill="#34495e" stroke-width="1.5" d="M560.62 307.266l-5.007-5.007 33.008-33.01 5.01 5z"/><path fill="#34495e" stroke-width="1.5" d="M550.99 310.07v-7.08h47.24v7.08zm38.57-36.76h7.08v29.68h-7.08z"/><path fill="#34495e" stroke-width="1.5" d="M550.99 273.32v-7.08h47.24v7.08z"/><path fill="#34495e" stroke-width="1.5" d="M552.63 273.31h7.08v29.68h-7.08zm73.45 29.59v-5.93h29.9v5.93zm0-11.86v-5.93h29.9v5.93zm0-11.85v-5.93h29.9v5.93z"/><path fill="#34495e" stroke-width="1.5" d="M622.02 274.163l5.006-5.007 33.008 33.008-5.007 5.006z"/><path fill="#34495e" stroke-width="1.5" d="M617.41 309.97v-7.08h47.24v7.08z"/><path fill="#34495e" stroke-width="1.5" d="M655.97 273.22h7.08v29.68h-7.08zm-38.56-.01v-7.08h47.24v7.08zm1.63.01h7.08v29.68h-7.08z"/><path fill="#34495e" stroke-width="2" d="M473.27 314h-198m198-4h-198"/><path fill="#34495e" stroke-width="1.5" d="M293.33 303.01v-5.93h29.9v5.93zm0-11.86v-5.93h29.9v5.93zm0-11.85v-5.93h29.9v5.93z"/><path fill="#34495e" stroke-width="1.5" d="M289.275 274.277l5.006-5.006 33.01 33.01-5 5.01z"/><path fill="#34495e" stroke-width="1.5" d="M284.66 310.09v-7.08h47.24v7.08zm38.57-36.76h7.08v29.68h-7.08zm-38.58 0v-7.08h47.24v7.08zm1.64 0h7.08v29.68h-7.08zm73.46 29.66v-5.93h29.9v5.93zm0-11.85v-5.93h29.9v5.93zm0-11.86v-5.93h29.9v5.93z"/><path fill="#34495e" stroke-width="1.5" d="M360.694 307.27l-5.006-5.006 33.007-33.007 5.007 5.006z"/><path fill="#34495e" stroke-width="1.5" d="M351.07 310.07v-7.08h47.24v7.08zm38.57-36.76h7.08v29.68h-7.08z"/><path fill="#34495e" stroke-width="1.5" d="M351.07 273.32v-7.08h47.24v7.08z"/><path fill="#34495e" stroke-width="1.5" d="M352.7 273.31h7.08v29.68h-7.08zm73.46 29.58v-5.93h29.9v5.93zm0-11.85v-5.93h29.9v5.93zm0-11.85v-5.93h29.9v5.93z"/><path fill="#34495e" stroke-width="1.5" d="M422.095 274.157l5.006-5.006 33.01 33.01-5 5.01z"/><path fill="#34495e" stroke-width="1.5" d="M417.48 309.97v-7.08h47.24v7.08z"/><path fill="#34495e" stroke-width="1.5" d="M456.05 273.22h7.08v29.68h-7.08zm-38.56-.01v-7.08h47.24v7.08zm1.63.01h7.08v29.68h-7.08z"/><path fill="#34495e" stroke-width="2" d="M673.27 314h197m-197-4h197"/><path fill="#34495e" stroke-width="1.5" d="M822.9 303.01v-5.93h29.9v5.93zm0-11.86v-5.93h29.9v5.93zm0-11.85v-5.93h29.9v5.93z"/><path fill="#34495e" stroke-width="1.5" d="M823.845 307.283l-5.007-5.006 33.008-33.008 5.006 5z"/><path fill="#34495e" stroke-width="1.5" d="M814.23 310.09v-7.08h47.24v7.08zm8.67-7.08h-7.08v-29.68h7.08zm-8.68-29.68v-7.08h47.24v7.08zm45.62 29.68h-7.08v-29.68h7.08zm-103.35-.02v-5.93h29.9v5.93zm0-11.85v-5.93h29.9v5.93zm0-11.85v-5.93h29.9v5.93z"/><path fill="#34495e" stroke-width="1.5" d="M752.434 274.26l5.006-5.007 33.008 33.008-5.006 5.01z"/><path fill="#34495e" stroke-width="1.5" d="M747.82 310.06v-7.08h47.24v7.08z"/><path fill="#34495e" stroke-width="1.5" d="M756.49 302.99h-7.08v-29.68h7.08zm-8.68-29.68v-7.08h47.24v7.08zm45.61 29.68h-7.08v-29.68h7.08zm-103.35-.1v-5.93h29.9v5.93zm.01-11.85v-5.93h29.9v5.93zm0-11.85v-5.93h29.9v5.93z"/><path fill="#34495e" stroke-width="1.5" d="M691.025 307.173l-5.007-5.007 33.008-33.007 5.006 5z"/><path fill="#34495e" stroke-width="1.5" d="M681.4 309.97v-7.08h47.24v7.08zm8.67-7.08h-7.08v-29.68h7.08z"/><path fill="#34495e" stroke-width="1.5" d="M681.41 273.22v-7.08h47.24v7.08z"/><path fill="#34495e" stroke-width="1.5" d="M727.01 302.89h-7.08v-29.68h7.08z"/><path fill="#34495e" stroke-width="2" d="M1069.27 314h-198m198-4h-198"/><path fill="#34495e" stroke-width="1.5" d="M890.05 303.01v-5.93h29.9v5.93zm.01-11.86v-5.93h29.9v5.93zm-.01-11.85v-5.93h29.9v5.93z"/><path fill="#34495e" stroke-width="1.5" d="M885.99 274.282l5.006-5.006 33.007 33.008-5.006 5.006z"/><path fill="#34495e" stroke-width="1.5" d="M881.38 310.09v-7.08h47.24v7.08zm38.57-36.76h7.08v29.68h-7.08z"/><path fill="#34495e" stroke-width="1.5" d="M881.38 273.34v-7.08h47.24v7.08z"/><path fill="#34495e" stroke-width="1.5" d="M883.01 273.33h7.08v29.68h-7.08zm73.46 29.66v-5.93h29.9v5.93zm0-11.85v-5.93h29.9v5.93zm0-11.85v-5.93h29.9v5.93z"/><path fill="#34495e" stroke-width="1.5" d="M957.41 307.266l-5.007-5.006 33.008-33.008 5.01 5.006z"/><path fill="#34495e" stroke-width="1.5" d="M947.79 310.07v-7.08h47.24v7.08zm38.57-36.76h7.08v29.68h-7.08z"/><path fill="#34495e" stroke-width="1.5" d="M947.79 273.32v-7.08h47.24v7.08z"/><path fill="#34495e" stroke-width="1.5" d="M949.43 273.31h7.08v29.68h-7.08zm73.45 29.59v-5.93h29.9v5.93zm0-11.86v-5.93h29.9v5.93zm0-11.85v-5.93h29.9v5.93z"/><path fill="#34495e" stroke-width="1.5" d="M1018.82 274.153l5.006-5.007 33.008 33.008-5.007 5.006z"/><path fill="#34495e" stroke-width="1.5" d="M1014.2 309.97v-7.08h47.24v7.08z"/><path fill="#34495e" stroke-width="1.5" d="M1052.77 273.22h7.08v29.68h-7.08zm-38.56-.01v-7.08h47.24v7.08zm1.63.01h7.08v29.68h-7.08z"/><path fill="#34495e" stroke-width="2" d="M673.27 258h-199m199-4h-199"/><path fill="#34495e" stroke-width="1.5" d="M493.26 246.91v-5.93h29.9v5.93zm-.01-11.85v-5.93h29.9v5.93zm0-11.85v-5.93h29.9v5.93z"/><path fill="#34495e" stroke-width="1.5" d="M489.198 218.19l5.006-5.006 33.008 33.008-5.006 5.006z"/><path fill="#34495e" stroke-width="1.5" d="M484.58 254v-7.08h47.24V254z"/><path fill="#34495e" stroke-width="1.5" d="M523.15 217.24h7.08v29.68h-7.08zm-38.57 0v-7.08h47.24v7.08zm1.63 0h7.08v29.68h-7.08zm73.46 29.66v-5.93h29.9v5.93zm-.01-11.85v-5.93h29.9v5.93zm0-11.86v-5.93h29.9v5.93z"/><path fill="#34495e" stroke-width="1.5" d="M560.618 251.177l-5.007-5.006 33.01-33 5.01 5.008z"/><path fill="#34495e" stroke-width="1.5" d="M550.99 253.98v-7.08h47.24v7.08z"/><path fill="#34495e" stroke-width="1.5" d="M589.56 217.22h7.08v29.68h-7.08z"/><path fill="#34495e" stroke-width="1.5" d="M550.99 217.23v-7.08h47.24v7.08z"/><path fill="#34495e" stroke-width="1.5" d="M552.63 217.22h7.08v29.68h-7.08zm73.45 29.58v-5.93h29.9v5.93zm0-11.85v-5.93h29.9v5.93zm-.01-11.85v-5.93h29.9v5.93z"/><path fill="#34495e" stroke-width="1.5" d="M622.018 218.07l5.006-5.005 33.008 33.007-5.006 5.007z"/><path fill="#34495e" stroke-width="1.5" d="M617.41 253.88v-7.08h47.24v7.08z"/><path fill="#34495e" stroke-width="1.5" d="M655.97 217.12h7.08v29.68h-7.08zm-38.57 0v-7.08h47.24v7.08zm1.64 0h7.08v29.68h-7.08z"/><path fill="#34495e" stroke-width="2" d="M473.27 258h-198m198-4h-198"/><path fill="#34495e" stroke-width="1.5" d="M293.34 246.91v-5.93h29.9v5.93zm-.01-11.85v-5.93h29.9v5.93zm0-11.85v-5.93h29.9v5.93z"/><path fill="#34495e" stroke-width="1.5" d="M289.273 218.186l5.006-5.007 33 33-5.007 5.005z"/><path fill="#34495e" stroke-width="1.5" d="M284.65 253.99v-7.08h47.24v7.08z"/><path fill="#34495e" stroke-width="1.5" d="M323.23 217.24h7.08v29.68h-7.08zm-38.57 0v-7.08h47.24v7.08zm1.63 0h7.08v29.68h-7.08zm73.46 29.66v-5.93h29.9v5.93zm-.01-11.86v-5.93h29.9v5.93zm0-11.85v-5.93h29.9v5.93z"/><path fill="#34495e" stroke-width="1.5" d="M360.692 251.172l-5.006-5.006 33.008-33.008 5.006 5.006z"/><path fill="#34495e" stroke-width="1.5" d="M351.07 253.98v-7.08h47.24v7.08z"/><path fill="#34495e" stroke-width="1.5" d="M389.64 217.22h7.08v29.68h-7.08zm-38.57 0v-7.08h47.24v7.08zm1.63 0h7.08v29.68h-7.08zm73.46 29.58v-5.93h29.9v5.93zm0-11.85v-5.93h29.9v5.93zm-.01-11.85v-5.93h29.9v5.93z"/><path fill="#34495e" stroke-width="1.5" d="M422.103 218.066l5.006-5.007 33 33-5.007 5.005z"/><path fill="#34495e" stroke-width="1.5" d="M417.49 253.87v-7.08h47.24v7.08z"/><path fill="#34495e" stroke-width="1.5" d="M456.05 217.12h7.08v29.68h-7.08zm-38.57 0v-7.08h47.24v7.08zm1.64 0h7.08v29.68h-7.08z"/><path fill="#34495e" stroke-width="2" d="M673.27 258h197m-197-4h197"/><path fill="#34495e" stroke-width="1.5" d="M822.91 246.91v-5.93h29.9v5.93zm-.01-11.85v-5.93h29.9v5.93zm0-11.85v-5.93h29.9v5.93z"/><path fill="#34495e" stroke-width="1.5" d="M823.853 251.194l-5.006-5.006 33.007-33.008 5.007 5.007z"/><path fill="#34495e" stroke-width="1.5" d="M814.22 253.99v-7.08h47.24v7.08z"/><path fill="#34495e" stroke-width="1.5" d="M822.9 246.92h-7.08v-29.68h7.08z"/><path fill="#34495e" stroke-width="1.5" d="M814.23 217.24v-7.08h47.24v7.08z"/><path fill="#34495e" stroke-width="1.5" d="M859.84 246.92h-7.08v-29.68h7.08zm-103.35-.02v-5.93h29.9v5.93zm-.01-11.85v-5.93h29.9v5.93zm.01-11.85v-5.93h29.9v5.93z"/><path fill="#34495e" stroke-width="1.5" d="M752.432 218.168l5.007-5.007 33 33.01-5.008 5.01z"/><path fill="#34495e" stroke-width="1.5" d="M747.81 253.97v-7.08h47.24v7.08z"/><path fill="#34495e" stroke-width="1.5" d="M756.49 246.9h-7.08v-29.68h7.08zm-8.68-29.68v-7.08h47.24v7.08zm45.61 29.68h-7.08v-29.68h7.08zm-103.34-.1v-5.93h29.9v5.93zm0-11.85v-5.93h29.9v5.93zm-.01-11.85v-5.93h29.9v5.93z"/><path fill="#34495e" stroke-width="1.5" d="M691.023 251.084l-5.006-5.006 33.008-33.008 5.006 5.007z"/><path fill="#34495e" stroke-width="1.5" d="M681.4 253.88v-7.08h47.24v7.08z"/><path fill="#34495e" stroke-width="1.5" d="M690.07 246.8h-7.08v-29.68h7.08z"/><path fill="#34495e" stroke-width="1.5" d="M681.4 217.13v-7.08h47.24v7.08z"/><path fill="#34495e" stroke-width="1.5" d="M727.01 246.8h-7.08v-29.68h7.08z"/><path fill="#34495e" stroke-width="2" d="M1069.27 258h-198m198-4h-198"/><path fill="#34495e" stroke-width="1.5" d="M890.06 246.91v-5.93h29.9v5.93zm-.01-11.85v-5.93h29.9v5.93zm0-11.85v-5.93h29.9v5.93z"/><path fill="#34495e" stroke-width="1.5" d="M885.998 218.19l5.006-5.006 33.008 33.008-5.007 5.007z"/><path fill="#34495e" stroke-width="1.5" d="M881.37 254v-7.08h47.24V254z"/><path fill="#34495e" stroke-width="1.5" d="M919.95 217.24h7.08v29.68h-7.08zm-38.57 0v-7.08h47.24v7.08zm1.63 0h7.08v29.68h-7.08zm73.46 29.66v-5.93h29.9v5.93zm-.01-11.86v-5.93h29.9v5.93zm0-11.85v-5.93h29.9v5.93z"/><path fill="#34495e" stroke-width="1.5" d="M957.418 251.177l-5.007-5.006 33.01-33 5.01 5.008z"/><path fill="#34495e" stroke-width="1.5" d="M947.79 253.98v-7.08h47.24v7.08z"/><path fill="#34495e" stroke-width="1.5" d="M986.36 217.22h7.08v29.68h-7.08z"/><path fill="#34495e" stroke-width="1.5" d="M947.79 217.23v-7.08h47.24v7.08z"/><path fill="#34495e" stroke-width="1.5" d="M949.43 217.22h7.08v29.68h-7.08zm73.45 29.58v-5.93h29.9v5.93zm0-11.85v-5.93h29.9v5.93zm-.01-11.85v-5.93h29.9v5.93z"/><path fill="#34495e" stroke-width="1.5" d="M1018.818 218.07l5.006-5.005 33.008 33.007-5.006 5.007z"/><path fill="#34495e" stroke-width="1.5" d="M1014.21 253.87v-7.08h47.24v7.08z"/><path fill="#34495e" stroke-width="1.5" d="M1052.77 217.12h7.08v29.68h-7.08zm-38.57 0v-7.08h47.24v7.08zm1.64 0h7.08v29.68h-7.08z"/><path fill="#34495e" stroke-width="2" d="M673.27 203h-199m199-6h-199"/><path fill="#34495e" stroke-width="1.5" d="M493.25 190.82v-5.93h29.9v5.93zm0-11.85v-5.93h29.9v5.93zm0-11.85v-5.93h29.9v5.93z"/><path fill="#34495e" stroke-width="1.5" d="M489.19 162.092l5.005-5.006 33.008 33.007-5.006 5.007z"/><path fill="#34495e" stroke-width="1.5" d="M484.58 197.9v-7.08h47.24v7.08z"/><path fill="#34495e" stroke-width="1.5" d="M523.15 161.15h7.08v29.68h-7.08zm-38.57 0v-7.08h47.24v7.08zm1.63 0h7.08v29.68h-7.08zm73.45 29.65v-5.93h29.9v5.93zm.01-11.85v-5.93h29.9v5.93zm0-11.85v-5.93h29.9v5.93z"/><path fill="#34495e" stroke-width="1.5" d="M560.61 195.086l-5.007-5.006 33.007-33.008 5.007 5.006z"/><path fill="#34495e" stroke-width="1.5" d="M550.99 197.89v-7.08h47.24v7.08z"/><path fill="#34495e" stroke-width="1.5" d="M589.56 161.13h7.08v29.68h-7.08zm-38.57 0v-7.08h47.24v7.08zm1.64 0h7.08v29.68h-7.08zm73.45 29.58v-5.93h29.9v5.93zm0-11.85v-5.93h29.9v5.93zm0-11.85v-5.93h29.9v5.93z"/><path fill="#34495e" stroke-width="1.5" d="M622.026 161.98l5.007-5.007 33.007 33.008-5.006 5.01z"/><path fill="#34495e" stroke-width="1.5" d="M617.4 197.78v-7.08h47.24v7.08z"/><path fill="#34495e" stroke-width="1.5" d="M655.97 161.03h7.08v29.68h-7.08zm-38.57 0v-7.08h47.24v7.08zm1.64 0h7.08v29.68h-7.08z"/><path fill="#34495e" stroke-width="2" d="M473.27 203h-198m198-6h-198"/><path fill="#34495e" stroke-width="1.5" d="M293.33 190.82v-5.93h29.9v5.93zm0-11.85v-5.93h29.9v5.93zm0-11.85v-5.93h29.9v5.93z"/><path fill="#34495e" stroke-width="1.5" d="M289.274 162.087l5.007-5.006 33.01 33.01-5 5.01z"/><path fill="#34495e" stroke-width="1.5" d="M284.66 197.9v-7.08h47.24v7.08z"/><path fill="#34495e" stroke-width="1.5" d="M323.23 161.15h7.08v29.68h-7.08zm-38.57 0v-7.08h47.24v7.08zm1.63 0h7.08v29.68h-7.08zm73.45 29.65v-5.93h29.9v5.93zm0-11.85v-5.93h29.9v5.93zm.01-11.85v-5.93h29.9v5.93z"/><path fill="#34495e" stroke-width="1.5" d="M360.694 195.08l-5.007-5.005 33.008-33.008 5.006 5.006z"/><path fill="#34495e" stroke-width="1.5" d="M351.07 197.88v-7.08h47.24v7.08z"/><path fill="#34495e" stroke-width="1.5" d="M389.64 161.13h7.08v29.68h-7.08zm-38.57 0v-7.08h47.24v7.08zm1.63 0h7.08v29.68h-7.08zm73.46 29.58v-5.93h29.9v5.93zm-.01-11.85v-5.93h29.9v5.93zm.01-11.86v-5.93h29.9V167z"/><path fill="#34495e" stroke-width="1.5" d="M422.1 161.974l5.008-5.006 33.008 33.007-5.007 5.007z"/><path fill="#34495e" stroke-width="1.5" d="M417.48 197.78v-7.08h47.24v7.08z"/><path fill="#34495e" stroke-width="1.5" d="M456.05 161.03h7.08v29.68h-7.08zm-38.57 0v-7.08h47.24v7.08zm1.64 0h7.08v29.68h-7.08z"/><path fill="#34495e" stroke-width="2" d="M673.27 203h197m-197-6h197"/><path fill="#34495e" stroke-width="1.5" d="M822.9 190.82v-5.93h29.9v5.93zm0-11.85v-5.93h29.9v5.93zm0-11.85v-5.93h29.9v5.93z"/><path fill="#34495e" stroke-width="1.5" d="M823.844 195.103l-5.006-5.006 33.008-33.008 5.006 5z"/><path fill="#34495e" stroke-width="1.5" d="M814.23 197.9v-7.08h47.24v7.08zm8.67-7.08h-7.08v-29.68h7.08z"/><path fill="#34495e" stroke-width="1.5" d="M814.23 161.15v-7.08h47.24v7.08z"/><path fill="#34495e" stroke-width="1.5" d="M859.84 190.82h-7.08v-29.68h7.08zm-103.35-.01v-5.93h29.9v5.93zm0-11.86v-5.93h29.9v5.93zm0-11.85v-5.93h29.9v5.93z"/><path fill="#34495e" stroke-width="1.5" d="M752.434 162.07l5.006-5.007 33.008 33.008-5.007 5.01z"/><path fill="#34495e" stroke-width="1.5" d="M747.81 197.88v-7.08h47.24v7.08z"/><path fill="#34495e" stroke-width="1.5" d="M756.49 190.8h-7.08v-29.68h7.08z"/><path fill="#34495e" stroke-width="1.5" d="M747.82 161.13v-7.08h47.24v7.08z"/><path fill="#34495e" stroke-width="1.5" d="M793.42 190.8h-7.08v-29.68h7.08zm-103.34-.09v-5.93h29.9v5.93zm-.01-11.86v-5.93h29.9v5.93zm0-11.85v-5.93h29.9V167z"/><path fill="#34495e" stroke-width="1.5" d="M691.032 194.986l-5.007-5.006 33.008-33.008 5.006 5.006z"/><path fill="#34495e" stroke-width="1.5" d="M681.4 197.79v-7.08h47.24v7.08z"/><path fill="#34495e" stroke-width="1.5" d="M690.07 190.71h-7.08v-29.68h7.08zm-8.67-29.68v-7.08h47.24v7.08zm45.61 29.68h-7.08v-29.68h7.08z"/><path fill="#34495e" stroke-width="2" d="M1069.27 203h-198m198-6h-198"/><path fill="#34495e" stroke-width="1.5" d="M890.05 190.82v-5.93h29.9v5.93zm0-11.85v-5.93h29.9v5.93zm0-11.85v-5.93h29.9v5.93z"/><path fill="#34495e" stroke-width="1.5" d="M885.99 162.092l5.005-5.006 33.008 33.008-5.006 5.006z"/><path fill="#34495e" stroke-width="1.5" d="M881.38 197.9v-7.08h47.24v7.08z"/><path fill="#34495e" stroke-width="1.5" d="M919.95 161.15h7.08v29.68h-7.08zm-38.57 0v-7.08h47.24v7.08zm1.63 0h7.08v29.68h-7.08zm73.45 29.65v-5.93h29.9v5.93zm.01-11.85v-5.93h29.9v5.93zm0-11.85v-5.93h29.9v5.93z"/><path fill="#34495e" stroke-width="1.5" d="M957.41 195.086l-5.007-5.006 33.007-33.008 5.007 5.006z"/><path fill="#34495e" stroke-width="1.5" d="M947.79 197.89v-7.08h47.24v7.08z"/><path fill="#34495e" stroke-width="1.5" d="M986.36 161.13h7.08v29.68h-7.08zm-38.57 0v-7.08h47.24v7.08zm1.64 0h7.08v29.68h-7.08zm73.45 29.58v-5.93h29.9v5.93zm0-11.85v-5.93h29.9v5.93zm0-11.85v-5.93h29.9v5.93z"/><path fill="#34495e" stroke-width="1.5" d="M1018.826 161.98l5.007-5.007 33.007 33.008-5.006 5.01z"/><path fill="#34495e" stroke-width="1.5" d="M1014.2 197.78v-7.08h47.24v7.08z"/><path fill="#34495e" stroke-width="1.5" d="M1052.77 161.03h7.08v29.68h-7.08zm-38.57 0v-7.08h47.24v7.08zm1.64 0h7.08v29.68h-7.08z"/><path fill="#34495e" stroke-width="2" d="M673.27 146h-199m199-3h-199"/><path fill="#34495e" stroke-width="1.5" d="M493.25 134.73v-5.93h29.9v5.93zm.01-11.85v-5.93h29.9v5.93zm0-11.86v-5.93h29.9v5.93z"/><path fill="#34495e" stroke-width="1.5" d="M489.187 106l5.007-5.006 33.008 33.008-5.007 5.006z"/><path fill="#34495e" stroke-width="1.5" d="M484.58 141.81v-7.08h47.24v7.08zm38.57-36.76h7.08v29.68h-7.08z"/><path fill="#34495e" stroke-width="1.5" d="M484.58 105.06v-7.08h47.24v7.08z"/><path fill="#34495e" stroke-width="1.5" d="M486.21 105.05h7.08v29.68h-7.08zm73.46 29.66v-5.93h29.9v5.93zm0-11.85v-5.93h29.9v5.93zm0-11.85v-5.93h29.9v5.93z"/><path fill="#34495e" stroke-width="1.5" d="M560.617 138.988l-5.006-5.007 33.01-33 5.01 5.008z"/><path fill="#34495e" stroke-width="1.5" d="M550.99 141.79v-7.08h47.24v7.08z"/><path fill="#34495e" stroke-width="1.5" d="M589.56 105.03h7.08v29.68h-7.08z"/><path fill="#34495e" stroke-width="1.5" d="M550.99 105.04v-7.08h47.24v7.08z"/><path fill="#34495e" stroke-width="1.5" d="M552.63 105.03h7.08v29.68h-7.08zm73.45 29.59v-5.93h29.9v5.93zm0-11.86v-5.93h29.9v5.93zm0-11.85v-5.93h29.9v5.93z"/><path fill="#34495e" stroke-width="1.5" d="M622.018 105.88l5.006-5.006 33.008 33.008-5.007 5.006z"/><path fill="#34495e" stroke-width="1.5" d="M617.4 141.69v-7.08h47.24v7.08z"/><path fill="#34495e" stroke-width="1.5" d="M655.97 104.94h7.08v29.68h-7.08zm-38.56 0v-7.08h47.24v7.08zm1.63 0h7.08v29.68h-7.08z"/><path fill="#34495e" stroke-width="2" d="M473.27 146h-198m198-3h-198"/><path fill="#34495e" stroke-width="1.5" d="M293.33 134.73v-5.93h29.9v5.93zm0-11.86v-5.93h29.9v5.93zm.01-11.85v-5.93h29.9v5.93z"/><path fill="#34495e" stroke-width="1.5" d="M289.273 105.995l5.006-5.006 33 33-5.008 5.005z"/><path fill="#34495e" stroke-width="1.5" d="M284.66 141.81v-7.08h47.24v7.08zm38.57-36.76h7.08v29.68h-7.08zm-38.58 0v-7.08h47.24v7.08zm1.64 0h7.08v29.68h-7.08zm73.45 29.66v-5.93h29.9v5.93zm.01-11.85v-5.93h29.9v5.93zm0-11.85v-5.93h29.9v5.93z"/><path fill="#34495e" stroke-width="1.5" d="M360.692 138.993l-5.006-5.007 33.008-33.008 5.006 5.007z"/><path fill="#34495e" stroke-width="1.5" d="M351.07 141.79v-7.08h47.24v7.08z"/><path fill="#34495e" stroke-width="1.5" d="M389.64 105.03h7.08v29.68h-7.08z"/><path fill="#34495e" stroke-width="1.5" d="M351.07 105.04v-7.08h47.24v7.08z"/><path fill="#34495e" stroke-width="1.5" d="M352.7 105.03h7.08v29.68h-7.08zm73.46 29.58v-5.93h29.9v5.93zm0-11.85v-5.93h29.9v5.93zm0-11.85v-5.93h29.9v5.93z"/><path fill="#34495e" stroke-width="1.5" d="M422.103 105.875l5.006-5.006 33 33-5.007 5.005z"/><path fill="#34495e" stroke-width="1.5" d="M417.48 141.69v-7.08h47.24v7.08z"/><path fill="#34495e" stroke-width="1.5" d="M456.05 104.94h7.08v29.68h-7.08zm-38.56-.01v-7.08h47.24v7.08zm1.63.01h7.08v29.68h-7.08z"/><path fill="#34495e" stroke-width="2" d="M673.27 146h197m-197-3h197"/><path fill="#34495e" stroke-width="1.5" d="M822.9 134.73v-5.93h29.9v5.93zm0-11.86v-5.93h29.9v5.93zm.01-11.85v-5.93h29.9v5.93z"/><path fill="#34495e" stroke-width="1.5" d="M823.853 139.005l-5.007-5.007 33.008-33.007 5.006 5.01z"/><path fill="#34495e" stroke-width="1.5" d="M814.23 141.81v-7.08h47.24v7.08z"/><path fill="#34495e" stroke-width="1.5" d="M822.9 134.74h-7.08v-29.68h7.08zm-8.68-29.69v-7.08h47.24v7.08zm45.62 29.69h-7.08v-29.68h7.08zm-103.35-.03v-5.93h29.9v5.93zm0-11.85v-5.93h29.9v5.93zm0-11.85v-5.93h29.9v5.93z"/><path fill="#34495e" stroke-width="1.5" d="M752.432 105.978l5.006-5.007 33.008 33.01-5.006 5.01z"/><path fill="#34495e" stroke-width="1.5" d="M747.82 141.79v-7.08h47.24v7.08z"/><path fill="#34495e" stroke-width="1.5" d="M756.49 134.72h-7.08v-29.68h7.08zm-8.68-29.69v-7.08h47.24v7.08zm45.61 29.69h-7.08v-29.68h7.08zm-103.35-.11v-5.93h29.9v5.93zm.01-11.85v-5.93h29.9v5.93zm0-11.85v-5.93h29.9v5.93z"/><path fill="#34495e" stroke-width="1.5" d="M691.023 138.895l-5.006-5.007 33.007-33.007 5.007 5.01z"/><path fill="#34495e" stroke-width="1.5" d="M681.4 141.7v-7.08h47.24v7.08zm8.67-7.09h-7.08v-29.68h7.08z"/><path fill="#34495e" stroke-width="1.5" d="M681.4 104.94v-7.08h47.24v7.08z"/><path fill="#34495e" stroke-width="1.5" d="M727.01 134.61h-7.08v-29.68h7.08z"/><path fill="#34495e" stroke-width="2" d="M1069.27 146h-198m198-3h-198"/><path fill="#34495e" stroke-width="1.5" d="M890.05 134.73v-5.93h29.9v5.93zm.01-11.85v-5.93h29.9v5.93zm0-11.86v-5.93h29.9v5.93z"/><path fill="#34495e" stroke-width="1.5" d="M885.987 106l5.007-5.006L924 134.002l-5.005 5.006z"/><path fill="#34495e" stroke-width="1.5" d="M881.38 141.81v-7.08h47.24v7.08zm38.57-36.76h7.08v29.68h-7.08z"/><path fill="#34495e" stroke-width="1.5" d="M881.37 105.06v-7.08h47.24v7.08z"/><path fill="#34495e" stroke-width="1.5" d="M883.01 105.05h7.08v29.68h-7.08zm73.46 29.66v-5.93h29.9v5.93zm0-11.85v-5.93h29.9v5.93zm0-11.85v-5.93h29.9v5.93z"/><path fill="#34495e" stroke-width="1.5" d="M957.417 138.988l-5.006-5.007 33.01-33 5.01 5.008z"/><path fill="#34495e" stroke-width="1.5" d="M947.79 141.79v-7.08h47.24v7.08z"/><path fill="#34495e" stroke-width="1.5" d="M986.36 105.03h7.08v29.68h-7.08z"/><path fill="#34495e" stroke-width="1.5" d="M947.79 105.04v-7.08h47.24v7.08z"/><path fill="#34495e" stroke-width="1.5" d="M949.43 105.03h7.08v29.68h-7.08zm73.45 29.59v-5.93h29.9v5.93zm0-11.86v-5.93h29.9v5.93zm0-11.85v-5.93h29.9v5.93z"/><path fill="#34495e" stroke-width="1.5" d="M1018.818 105.88l5.006-5.006 33.008 33.008-5.007 5.006z"/><path fill="#34495e" stroke-width="1.5" d="M1014.2 141.69v-7.08h47.24v7.08z"/><path fill="#34495e" stroke-width="1.5" d="M1052.77 104.94h7.08v29.68h-7.08zm-38.56-.01v-7.08h47.24v7.08zm1.63.01h7.08v29.68h-7.08zM890.06 523.12v-5.93h29.9v5.93zm-.01-11.85v-5.93h29.9v5.93zm0-11.85v-5.93h29.9v5.93z"/><path fill="#34495e" stroke-width="1.5" d="M885.998 494.4l5.006-5.006 33.008 33.008-5.007 5.006z"/><path fill="#34495e" stroke-width="1.5" d="M881.38 530.21v-7.08h47.24v7.08zm38.57-36.76h7.08v29.68h-7.08zm-38.57 0v-7.08h47.24v7.08zm1.63 0h7.08v29.68h-7.08zm7.04-26.52V461h29.9v5.93zm0-11.85v-5.93h29.9v5.93zm0-11.85v-5.93h29.9v5.93z"/><path fill="#34495e" stroke-width="1.5" d="M890.99 471.212l-5.005-5.007 33.008-33.007 5.006 5.006z"/><path fill="#34495e" stroke-width="1.5" d="M881.38 474.01v-7.08h47.24v7.08z"/><path fill="#34495e" stroke-width="1.5" d="M919.95 437.26h7.08v29.68h-7.08zm-38.57 0v-7.08h47.24v7.08zm1.63 0h7.08v29.68h-7.08zm73.45 29.76v-5.93h29.9v5.93zm.01-11.85v-5.93h29.9v5.93zm0-11.85v-5.93h29.9v5.93z"/><path fill="#34495e" stroke-width="1.5" d="M952.4 438.296l5.007-5.006 33.008 33.007-5.006 5.007z"/><path fill="#34495e" stroke-width="1.5" d="M947.79 474.1v-7.08h47.24v7.08z"/><path fill="#34495e" stroke-width="1.5" d="M986.36 437.35h7.08v29.68h-7.08zm-38.56 0v-7.08h47.24v7.08zm1.63 0h7.08v29.68h-7.08zm7.04 85.76v-5.93h29.9v5.93zm-.01-11.85v-5.93h29.9v5.93zm0-11.86v-5.93h29.9v5.93z"/><path fill="#34495e" stroke-width="1.5" d="M957.418 527.387l-5.007-5.006 33.01-33 5.01 5.008z"/><path fill="#34495e" stroke-width="1.5" d="M947.8 530.19v-7.08h47.24v7.08zm38.56-36.76h7.08v29.68h-7.08z"/><path fill="#34495e" stroke-width="1.5" d="M947.79 493.44v-7.08h47.24v7.08z"/><path fill="#34495e" stroke-width="1.5" d="M949.43 493.43h7.08v29.68h-7.08zm73.44-26.5V461h29.9v5.93zm.01-11.85v-5.93h29.9v5.93zm0-11.86v-5.93h29.9v5.93z"/><path fill="#34495e" stroke-width="1.5" d="M1023.826 471.197l-5.006-5.007 33.008-33.007 5.006 5.006z"/><path fill="#34495e" stroke-width="1.5" d="M1014.2 474v-7.08h47.24V474z"/><path fill="#34495e" stroke-width="1.5" d="M1052.77 437.25h7.08v29.68h-7.08zm-38.56 0v-7.08h47.24v7.08zm1.63 0h7.08v29.68h-7.08zm7.04 85.76v-5.93h29.9v5.93zm0-11.85v-5.93h29.9v5.93zm0-11.85v-5.93h29.9v5.93z"/><path fill="#34495e" stroke-width="1.5" d="M1018.818 494.28l5.006-5.005 33.008 33.007-5.006 5.007z"/><path fill="#34495e" stroke-width="1.5" d="M1014.21 530.09v-7.08h47.24v7.08zm38.56-36.76h7.08v29.68h-7.08zm-38.57 0v-7.08h47.24v7.08zm1.64 0h7.08v29.68h-7.08z"/></g><path fill="none" d="M0 0h1360v800H0z"/></g></svg>