<svg xmlns="http://www.w3.org/2000/svg" viewBox="0 0 1360 800"><g data-name="Layer 1"><path fill="none" stroke="#02c386" stroke-width="2" d="M970.27 321h-276v248" stroke-linecap="round" stroke-linejoin="round"/><path fill="#34495e" stroke="#02c386" stroke-width="2" d="M970.27 482h-275m275-6h-275m275 85h-275m275-8h-275m275-148h-275m275-6h-275m275-71h-275m91 241V322m93 247V322m91 247V322" stroke-linecap="round" stroke-linejoin="round"/><path fill="#34495e" stroke="#02c386" stroke-width="1.5" d="M720.49 543.11v-8.25h41.61v8.25zm-.01-8.25v-8.25h41.61v8.25zm.01-8.25v-8.25h41.61v8.25zm0-8.25v-8.25h41.61v8.25zm0-8.25v-8.25h41.61v8.25z" stroke-linecap="round" stroke-linejoin="round"/><path fill="#34495e" stroke="#02c386" stroke-width="1.5" d="M714.832 503.108l6.965-6.965 45.948 45.948-6.965 6.968z" stroke-linecap="round" stroke-linejoin="round"/><path fill="#34495e" stroke="#02c386" stroke-width="1.5" d="M708.41 552.96v-9.85h65.76v9.85zm53.69-51.16h9.85v41.31h-9.85zm-53.68 0v-9.85h65.76v9.85zm2.27 0h9.85v41.31h-9.85zm9.8-112.55V381h41.61v8.25zm-.01-8.25v-8.25h41.61V381zm.01-8.25v-8.25h41.61v8.25zm0-8.25v-8.25h41.61v8.25zm0-8.25V348h41.61v8.25z" stroke-linecap="round" stroke-linejoin="round"/><path fill="#34495e" stroke="#02c386" stroke-width="1.5" d="M714.837 349.252l6.965-6.965 45.948 45.948-6.965 6.965z" stroke-linecap="round" stroke-linejoin="round"/><path fill="#34495e" stroke="#02c386" stroke-width="1.5" d="M708.41 399.1v-9.85h65.76v9.85zm53.69-51.16h9.85v41.31h-9.85zm-53.68 0v-9.85h65.76v9.85zm2.27 0h9.85v41.31h-9.85zm9.8-36.91v-8.25h41.61v8.25zm0-8.25v-8.25h41.61v8.25zm-.01-8.25v-8.25h41.61v8.25zm.01-8.25v-8.25h41.61v8.25zm0-8.25v-8.25h41.61v8.25z" stroke-linecap="round" stroke-linejoin="round"/><path fill="#34495e" stroke="#02c386" stroke-width="1.5" d="M721.803 316.983l-6.965-6.965 45.947-45.948 6.965 6.965z" stroke-linecap="round" stroke-linejoin="round"/><path fill="#34495e" stroke="#02c386" stroke-width="1.5" d="M708.42 320.88v-9.85h65.76v9.85z" stroke-linecap="round" stroke-linejoin="round"/><path fill="#34495e" stroke="#02c386" stroke-width="1.5" d="M762.1 269.72h9.85v41.31h-9.85zm-53.68 0v-9.85h65.76v9.85zm2.27 0h9.85v41.31h-9.85zm102.25 273.51v-8.25h41.61v8.25zm0-8.25v-8.25h41.61v8.25zm0-8.25v-8.25h41.61v8.25zm0-8.25v-8.25h41.61v8.25zm0-8.25v-8.25h41.61v8.25z" stroke-linecap="round" stroke-linejoin="round"/><path fill="#34495e" stroke="#02c386" stroke-width="1.5" d="M814.248 549.174l-6.965-6.965 45.948-45.95 6.968 6.964z" stroke-linecap="round" stroke-linejoin="round"/><path fill="#34495e" stroke="#02c386" stroke-width="1.5" d="M800.86 553.08v-9.85h65.76v9.85zm53.69-51.16h9.85v41.31h-9.85zm-53.69 0v-9.85h65.76v9.85zm2.28 0h9.85v41.31h-9.85zm9.79-36.17v-8.25h41.61v8.25zm0-8.25v-8.25h41.61v8.25z" stroke-linecap="round" stroke-linejoin="round"/><path fill="#34495e" stroke="#02c386" stroke-width="1.5" d="M812.94 449.26v-8.25h41.61v8.25zm0-8.25v-8.25h41.61v8.25zm0-8.25v-8.25h41.61v8.25z" stroke-linecap="round" stroke-linejoin="round"/><path fill="#34495e" stroke="#02c386" stroke-width="1.5" d="M807.29 425.76l6.965-6.964 45.947 45.948-6.965 6.965z" stroke-linecap="round" stroke-linejoin="round"/><path fill="#34495e" stroke="#02c386" stroke-width="1.5" d="M800.86 475.61v-9.85h65.76v9.85zm53.69-51.16h9.85v41.31h-9.85zm-53.69-.01v-9.85h65.76v9.85zm2.28.01h9.85v41.31h-9.85zm9.8-113.3v-8.25h41.61v8.25zm0-8.25v-8.25h41.61v8.25zm0-8.25v-8.25h41.61v8.25zm0-8.25v-8.25h41.61v8.25zm0-8.25v-8.25h41.61v8.25z" stroke-linecap="round" stroke-linejoin="round"/><path fill="#34495e" stroke="#02c386" stroke-width="1.5" d="M807.29 271.152l6.966-6.965 45.948 45.948-6.965 6.965z" stroke-linecap="round" stroke-linejoin="round"/><path fill="#34495e" stroke="#02c386" stroke-width="1.5" d="M800.86 321v-9.85h65.76V321zm53.69-51.16h9.85v41.31h-9.85zm-53.69 0v-9.85h65.76v9.85zm2.28 0h9.85v41.31h-9.85zm9.8 119.38v-8.25h41.61v8.25zm0-8.25v-8.25h41.61v8.25zm0-8.25v-8.25h41.61v8.25zm0-8.25v-8.25h41.61v8.25zm0-8.25v-8.25h41.61v8.25z" stroke-linecap="round" stroke-linejoin="round"/><path fill="#34495e" stroke="#02c386" stroke-width="1.5" d="M814.256 395.165l-6.965-6.965 45.95-45.948 6.966 6.965z" stroke-linecap="round" stroke-linejoin="round"/><path fill="#34495e" stroke="#02c386" stroke-width="1.5" d="M800.86 399.07v-9.85h65.76v9.85z" stroke-linecap="round" stroke-linejoin="round"/><path fill="#34495e" stroke="#02c386" stroke-width="1.5" d="M854.55 347.91h9.85v41.31h-9.85zm-53.69 0v-9.85h65.76v9.85zm2.28 0h9.85v41.31h-9.85zm102.24 195.18v-8.25h41.61v8.25zm0-8.25v-8.25h41.61v8.25zm0-8.25v-8.25h41.61v8.25zm0-8.25v-8.25h41.61v8.25zm.01-8.25v-8.25H947v8.25z" stroke-linecap="round" stroke-linejoin="round"/><path fill="#34495e" stroke="#02c386" stroke-width="1.5" d="M899.732 503.104l6.965-6.965 45.948 45.945-6.965 6.965z" stroke-linecap="round" stroke-linejoin="round"/><path fill="#34495e" stroke="#02c386" stroke-width="1.5" d="M893.31 552.95v-9.85h65.76v9.85zM947 501.79h9.85v41.31H947zm-53.69 0v-9.85h65.76v9.85zm2.27 0h9.85v41.31h-9.85zm9.8-36.17v-8.25h41.61v8.25zm0-8.25v-8.25h41.61v8.25zm0-8.25v-8.25h41.61v8.25zm0-8.25v-8.25h41.61v8.25zm0-8.25v-8.25h41.61v8.25z" stroke-linecap="round" stroke-linejoin="round"/><path fill="#34495e" stroke="#02c386" stroke-width="1.5" d="M906.704 471.577l-6.965-6.965 45.945-45.947 6.965 6.965z" stroke-linecap="round" stroke-linejoin="round"/><path fill="#34495e" stroke="#02c386" stroke-width="1.5" d="M893.31 475.48v-9.85h65.76v9.85zM947 424.31h9.85v41.31H947z" stroke-linecap="round" stroke-linejoin="round"/><path fill="#34495e" stroke="#02c386" stroke-width="1.5" d="M893.3 424.32v-9.85h65.76v9.85z" stroke-linecap="round" stroke-linejoin="round"/><path fill="#34495e" stroke="#02c386" stroke-width="1.5" d="M895.58 424.31h9.85v41.31h-9.85zm9.8-113.3v-8.25h41.61v8.25zm0-8.25v-8.25h41.61v8.25zm0-8.25v-8.25h41.61v8.25zm0-8.25v-8.25h41.61v8.25zm0-8.25v-8.25h41.61v8.25z" stroke-linecap="round" stroke-linejoin="round"/><path fill="#34495e" stroke="#02c386" stroke-width="1.5" d="M906.698 316.963l-6.965-6.965 45.948-45.948 6.968 6.965z" stroke-linecap="round" stroke-linejoin="round"/><path fill="#34495e" stroke="#02c386" stroke-width="1.5" d="M893.31 320.87v-9.85h65.76v9.85zM947 269.7h9.85v41.31H947z" stroke-linecap="round" stroke-linejoin="round"/><path fill="#34495e" stroke="#02c386" stroke-width="1.5" d="M893.31 269.71v-9.85h65.76v9.85z" stroke-linecap="round" stroke-linejoin="round"/><path fill="#34495e" stroke="#02c386" stroke-width="1.5" d="M895.58 269.7h9.85v41.31h-9.85zm9.8 119.38v-8.25h41.61v8.25zm0-8.25v-8.25h41.61v8.25zm0-8.25v-8.25h41.61v8.25zm0-8.25v-8.25h41.61v8.25zm.01-8.25v-8.25H947v8.25z" stroke-linecap="round" stroke-linejoin="round"/><path fill="#34495e" stroke="#02c386" stroke-width="1.5" d="M899.73 349.092l6.966-6.965 45.948 45.948-6.965 6.965z" stroke-linecap="round" stroke-linejoin="round"/><path fill="#34495e" stroke="#02c386" stroke-width="1.5" d="M893.31 398.94v-9.85h65.76v9.85zM947 347.77h9.85v41.31H947z" stroke-linecap="round" stroke-linejoin="round"/><path fill="#34495e" stroke="#02c386" stroke-width="1.5" d="M893.31 347.78v-9.85h65.76v9.85z" stroke-linecap="round" stroke-linejoin="round"/><path fill="#34495e" stroke="#02c386" stroke-width="1.5" d="M895.58 347.77h9.85v41.31h-9.85z" stroke-linecap="round" stroke-linejoin="round"/><path fill="none" d="M0 0h1360v800H0z"/></g></svg>