<svg xmlns="http://www.w3.org/2000/svg" width="734" height="492" viewBox="0 0 734 492"><path fill="#BDBDBD" d="M615.427 170.143a4672.33 4672.33 0 0 1 42.358 2.683c3.564-3.629 7.119-7.215 10.654-10.761-1.63-1.732-3.266-3.472-4.896-5.217-.211-4.435-.445-8.869-.689-13.302-1.881-2.021-3.758-4.05-5.639-6.082a3162.873 3162.873 0 0 0-55.348-4.992c-1.814 1.933-3.639 3.874-5.462 5.826.444 10.275.837 20.555 1.161 30.833 5.961.327 11.911.664 17.861 1.012z"/><path fill="#A6273C" d="M655.848 129.439c3.789.398 7.578.807 11.365 1.22a2004.257 2004.257 0 0 0-2.54-35.536 1983.107 1983.107 0 0 0-3.413-37.984c-3.054-.535-6.117-1.066-9.174-1.591-2.224 2.21-4.457 4.439-6.705 6.688a3772.604 3772.604 0 0 0-14.574 18.714c.222 2.887.436 5.771.646 8.659a2267.408 2267.408 0 0 0-8.841 9.121 2535.546 2535.546 0 0 0-20.327-2.265c-2.036 2.159-4.077 4.33-6.13 6.517.24 4.271.477 8.544.695 12.818-.637.675-1.27 1.352-1.906 2.03a2809.857 2809.857 0 0 1 55.238 5.446c1.887 2.059 3.777 4.115 5.666 6.163z"/><path fill="#33393D" d="M558.863 210.426c7.713.171 15.427.353 23.125.543 2.354 2.593 4.703 5.174 7.05 7.748a1655.46 1655.46 0 0 1 4.988-5.41c-.058-3.839-.128-7.679-.198-11.52 2.804.09 5.611.182 8.417.276 2.561-2.754 5.126-5.493 7.677-8.216-.143-5.765-.296-11.529-.476-17.295a2500.358 2500.358 0 0 0-1.128-30.594c-3.926 4.159-7.866 8.36-11.828 12.606-8.06-.497-16.123-.966-24.188-1.411-.059-1.948-.124-3.895-.193-5.844-4.861-.284-9.732-.56-14.602-.827a3309.479 3309.479 0 0 1 1.356 59.944z"/><path fill="#BDBDBD" d="M475.066 269.493c-.006 4.01-.02 8.021-.037 12.029a12854.518 12854.518 0 0 0 55.981-.615c9.219-.125 18.434-.261 27.646-.4.029-4.162.056-8.322.068-12.484 2.82-3.139 5.635-6.264 8.446-9.376 3.849-.015 7.695-.029 11.538-.047.002-2.927 0-5.853-.005-8.782-8.077-.008-16.152-.019-24.233-.023-26.426-.025-52.899-.045-79.393-.059.009 6.586.004 13.169-.011 19.757z"/><path fill="#33393D" d="M461.104 55.543a6123.176 6123.176 0 0 0 15.949 18.883c.149.182.307.361.458.541 0-.039 0-.078-.003-.12 3.556-4.101 7.095-8.177 10.614-12.228-.07-1.861-.137-3.717-.206-5.576 2.83-3.258 5.644-6.499 8.445-9.718 6.683.503 13.363 1.045 20.05 1.627a6253.06 6253.06 0 0 1-10.104-11.935c-3.327-.288-6.659-.563-9.986-.829-1.839 2.12-3.69 4.249-5.537 6.385-6.132-.451-12.269-.871-18.394-1.253-1.996-2.374-3.982-4.748-5.97-7.122-.122-3.577-.248-7.151-.376-10.725-3.611 4.229-7.24 8.488-10.889 12.774a6232.229 6232.229 0 0 0-8.562 10.054c2.479 2.963 4.969 5.928 7.462 8.894 2.347.113 4.695.227 7.049.348zM534.665 126.584c-.08-2.367-.162-4.737-.249-7.105 2.551-2.848 5.1-5.68 7.634-8.496-.257-6.431-.534-12.864-.823-19.291-2.385-2.753-4.762-5.51-7.143-8.27a3590.989 3590.989 0 0 0-8.885 9.957c-.17-4.21-.346-8.419-.529-12.627 1.562-1.762 3.122-3.519 4.687-5.266-.153-3.285-.31-6.567-.469-9.85-2.308-2.69-4.607-5.385-6.905-8.081-5.36-.463-10.721-.9-16.072-1.314a8270.84 8270.84 0 0 0-14.128 16.161c.319 8.81.606 17.624.877 26.44a4515.91 4515.91 0 0 0 9.511 11.077c.151 4.984.294 9.967.43 14.953 5.836.279 11.674.574 17.508.888 4.846.261 9.704.536 14.556.824z"/><path fill="#A6273C" d="M435.139 87.95a5334.77 5334.77 0 0 0 11.49 13.544c.107 5.894.207 11.788.305 17.688a7583.363 7583.363 0 0 0 15.762 18.409c2.285.067 4.57.139 6.852.212 7.213.229 14.429.482 21.644.762-.183-8.03-.378-16.055-.593-24.081-.188-6.946-.385-13.889-.603-20.834-.153-.18-.309-.36-.46-.541a5947.512 5947.512 0 0 1-16.038-18.844c-2.359-.123-4.722-.246-7.087-.362-2.506-2.964-5.014-5.927-7.51-8.893l-.088.101c-5.268-.252-10.54-.479-15.812-.684-2.689 3.152-5.398 6.318-8.112 9.495.086 4.675.17 9.35.25 14.028z"/><path fill="#33393D" d="M471.916 271.389c.004-1.917.008-3.832.01-5.746-22.028.087-44.072.147-66.119.177-.012 18.965-.05 37.924-.114 56.873 4.169 4.836 8.329 9.658 12.478 14.463 14.365-.161 28.727-.398 43.079-.709.06-5.275.114-10.554.161-15.83.044-5.018.085-10.04.121-15.06a7941.801 7941.801 0 0 1 19.305-22.216c.02-4 .035-8.004.044-12.006-2.991.018-5.982.035-8.965.054z"/><path fill="#BDBDBD" d="M533.881 219.132a5047.137 5047.137 0 0 1 20.495-22.794 3435.98 3435.98 0 0 0-1.574-60.067c-5.841-.354-11.683-.69-17.523-1.013a4714.473 4714.473 0 0 0-10.753 12.02c-1.797-.084-3.598-.164-5.398-.245a4201.176 4201.176 0 0 1 1.232 71.903c4.507.063 9.016.13 13.521.196z"/><path fill="#33393D" d="M512.58 153.836c-3.181-3.648-6.356-7.309-9.539-10.973-.045-1.874-.089-3.746-.137-5.619-9.465-.404-18.929-.772-28.396-1.094.123 6.316.238 12.63.342 18.944l-6.67 7.641c.062 4.288.12 8.574.171 12.862.05 0 .11.005.169.004.082 6.706.153 13.415.216 20.126 2.985 3.437 5.97 6.869 8.953 10.296 1.504.021 3.009.04 4.514.062.041 4.469.072 8.937.1 13.406 4.236 4.851 8.472 9.685 12.699 14.497.016 3.254.024 6.51.034 9.764a4372.435 4372.435 0 0 1 21.502-17.668c.003-.034 0-.071 0-.107-.164-24.02-.528-48.033-1.086-72.028-.956-.036-1.913-.077-2.872-.113zM187.579 171.477c.317-12.711.707-25.418 1.164-38.124a3111.569 3111.569 0 0 0-42.071 2.897 2734.653 2734.653 0 0 0-2.607 108.583c21.848-.097 43.73-.176 65.638-.247.072-24.679.38-49.354.917-74.017-7.678.283-15.367.585-23.041.908z"/><path fill="#A6273C" d="M133.484 121.87a2892.881 2892.881 0 0 0-49.572 4.946c-.316 5.046-.612 10.091-.889 15.14a2722.771 2722.771 0 0 1-12.826 12.701 1840.21 1840.21 0 0 0-1.008 21.995 1979.745 1979.745 0 0 1 30.029 27.825c-.08 3.566-.155 7.133-.22 10.699a2502.607 2502.607 0 0 1 25.194 24.256c3.109-3.333 6.223-6.688 9.338-10.062 4.944-.077 9.883-.15 14.833-.22a2784.175 2784.175 0 0 1 3.185-108.866c-6.023.511-12.044 1.038-18.064 1.586zM377.242 121.546c17.902.043 35.805.266 53.703.66-.074-5.917-.154-11.829-.234-17.742-3.826-4.5-7.637-9-11.439-13.497-.061-4.688-.121-9.376-.184-14.064 2.729-3.212 5.453-6.409 8.164-9.599l-1.075-.033c-.067-4.076-.139-8.152-.21-12.227 6.959-8.209 13.857-16.341 20.674-24.382-6.676-.219-13.349-.392-20.03-.527a4384.082 4384.082 0 0 1-6.535-7.867 1475.7 1475.7 0 0 0-14.403-.408 8134.165 8134.165 0 0 1-10.632-12.845c-5.995-.105-11.989-.172-17.989-.2.042 17.787.072 35.61.105 53.458.032 19.729.059 39.49.085 59.273z"/><path fill="#33393D" d="M396.264 272.224c-21.418.031-42.834.024-64.251-.023.013 15.827.055 31.651.114 47.467 5.223 6.076 10.438 12.15 15.642 18.22 16.127.088 32.251.082 48.372-.019.061-18.959.1-37.932.113-56.904l.01-8.741zM687.291 102.57a1862.785 1862.785 0 0 0-1.896-21.28c1.45-1.38 2.894-2.75 4.336-4.11-.359-3.646-.732-7.291-1.111-10.937a2093.186 2093.186 0 0 0-19.75-3.573 2016.945 2016.945 0 0 1 3.379 37.737c5.014.704 10.028 1.427 15.042 2.163z"/><path fill="#A6273C" d="M410.294 238.307c0 3.599.003 7.191.008 10.788v8.729c22.048-.018 44.09-.046 66.114-.086 0 1.914-.002 3.828-.004 5.739l8.968-.032a5621.817 5621.817 0 0 0-.036-29.487 7554.112 7554.112 0 0 1-12.697-14.536 4630.86 4630.86 0 0 0-.094-13.442c-1.502-.021-3.008-.042-4.514-.061-2.979-3.43-5.969-6.868-8.947-10.31-.056-6.729-.121-13.454-.195-20.177a4685.921 4685.921 0 0 0-57.729-.734c2.992 3.485 5.986 6.972 8.983 10.457.074 17.711.123 35.43.143 53.152z"/><path fill="#BDBDBD" d="M298.744 188.735c.061-7.764.129-15.524.209-23.283a4247.377 4247.377 0 0 0-83.336 2.255 3986.189 3986.189 0 0 0-.942 74.178c21.958-.093 43.938-.166 65.934-.222l17.891-.038c.027-17.633.105-35.264.244-52.89z"/><path fill="#A6273C" d="M397.896 265.558c.007-17.744-.004-35.488-.032-53.224a9244.327 9244.327 0 0 0-89.683.166 9751.89 9751.89 0 0 0-.088 52.996c-5.97-.014-11.929-.03-17.895-.05.002 3.521.012 7.04.021 10.56 14.47.077 28.947.133 43.425.17l.001.162c21.417.053 42.829.06 64.248.021l.003-10.801z"/><path fill="#BDBDBD" d="M377.276 156.854c-.009-10.832-.022-21.657-.034-32.479-.022-19.786-.051-39.548-.082-59.281-29.358-.107-58.714.48-88.083 1.75a7569.801 7569.801 0 0 0-1.513 75.288c25.396-.648 50.81-1.001 76.212-1.049 4.495 5.244 8.985 10.503 13.5 15.771z"/><path fill="#33393D" d="M319.494 205.778c29.872-.191 59.759-.217 89.635-.068-2.998-3.479-5.995-6.961-8.99-10.444-.015-6.488-.036-12.976-.06-19.461-1.835-2.136-3.663-4.273-5.497-6.408l-13.557-15.831c-25.465-.075-50.925.114-76.385.571-.101 9.476-.187 18.955-.261 28.439 5.077-.065 10.155-.122 15.232-.172-.049 7.789-.085 15.581-.117 23.374z"/><path fill="#A6273C" d="M429.543 378.724c.049-4.434.095-8.867.139-13.302 1.69-1.981 3.383-3.96 5.083-5.938.054-4.934.095-9.867.141-14.801-14.347.242-28.699.4-43.045.482-.018 6.879-.04 13.756-.065 20.631 3.502 4.085 6.996 8.16 10.48 12.227-.061 10.842-.131 21.678-.215 32.505 3.767-.052 7.538-.114 11.302-.188 2.392 2.795 4.772 5.581 7.149 8.361 14.048-.336 28.092-.808 42.139-1.422.117-5.13.232-10.265.343-15.396l-6.96-8.025c.139-.129.287-.257.432-.385.094-5.151.182-10.301.27-15.453-9.066.278-18.129.512-27.193.704zM678.238 188.152c-.191-5.5-.412-11.004-.647-16.507-.724-.76-1.44-1.52-2.167-2.284-.004.01-.014.016-.023.024a4353.875 4353.875 0 0 0-42.305-3.017c.104 2.681.201 5.362.3 8.045 7.213.434 14.421.882 21.626 1.352.422.024.847.052 1.27.08.904.059 1.812.12 2.715.177 3.621 3.855 7.233 7.68 10.833 11.474-.082-2.454-.173-4.908-.264-7.365 1.378 1.456 2.759 2.909 4.133 4.355.091 2.45.171 4.901.251 7.354 1.875 1.962 3.746 3.917 5.611 5.86l.127 4.394c2.356 2.125 4.709 4.241 7.057 6.343-.217-6.605-.461-13.21-.741-19.817-2.592-.157-5.182-.314-7.776-.468z"/><path fill="#33393D" d="M667.989 185.398c-.417-.025-.847-.053-1.269-.077a2182.911 2182.911 0 0 0-10.956 11.173c.083 2.929.155 5.861.229 8.792-1.488-.059-2.98-.117-4.469-.174a2682.348 2682.348 0 0 0-23.328 24.421l-10.205-.168a3547.554 3547.554 0 0 0-17.77 19.122 101242.961 101242.961 0 0 1 94.499.235c-.019-4.459-.05-8.919-.102-13.376a1777.879 1777.879 0 0 1-12.45-10.126 1903.81 1903.81 0 0 0-.666-28.359 2872.628 2872.628 0 0 1-10.795-11.299c-.907-.058-1.811-.112-2.718-.164z"/><path fill="#A6273C" d="M599.482 253.299c-3.84.001-7.682.005-11.522.013a3342.906 3342.906 0 0 0-8.427 9.238c-.01 4.112-.021 8.227-.052 12.338l3.805-.055c12.104-.17 24.198-.354 36.281-.557 6.813-.113 13.628-.229 20.438-.35 1.938 2.025 3.876 4.045 5.807 6.053.005-.076.005-.15.005-.223 1.195-.031 2.392-.059 3.587-.084a2554.803 2554.803 0 0 1 20.51-21.471c.002-4.4-.006-8.8-.032-13.199-23.419-.139-46.897-.265-70.421-.372.01 2.889.019 5.778.021 8.669z"/><path fill="#33393D" d="M583.098 297.62a3348.444 3348.444 0 0 1-14.031-15.289c.023-2.426.035-4.857.051-7.287l-3.807.051c-9.208.121-18.43.233-27.65.34-.021 4.594-.055 9.194-.096 13.793 3.004 3.34 5.994 6.662 8.982 9.969a3570.995 3570.995 0 0 1-.985 51.427 3767.362 3767.362 0 0 0 58.636-3.379c.361-10.394.659-20.787.897-31.182a.563.563 0 0 1 .066-.075 3468.098 3468.098 0 0 1-17.256-18.505c-1.598.048-3.208.092-4.807.137zM388.579 53.523a34707.92 34707.92 0 0 0-.334-53.406c-25.274-.333-50.551.044-75.842 1.135-.44 17.695-.838 35.422-1.186 53.175a1755.263 1755.263 0 0 1 77.362-.904z"/><path fill="#BDBDBD" d="M629.624 279.84c-12.074.261-24.159.503-36.257.729-.022 2.395-.043 4.789-.073 7.18 4.674 5.04 9.329 10.029 13.964 14.963l4.801-.17a2763.608 2763.608 0 0 0 17.16 18.046 3206.508 3206.508 0 0 1 15.971-17.214c3.52-3.766 7.032-7.505 10.537-11.214.043-2.269.074-4.538.107-6.804-1.922-1.979-3.857-3.97-5.786-5.972-6.804.16-13.61.308-20.424.456zM733.075 67.862c-2.587-2.755-5.18-5.528-7.767-8.313-.213-1.744-.439-3.491-.657-5.236-2.722-2.93-5.433-5.874-8.158-8.831-4.24-.98-8.478-1.943-12.71-2.895.49 3.912.971 7.821 1.433 11.729.467 3.911.925 7.817 1.364 11.726-.003.002-.005.004-.01.005.946 8.439 1.83 16.872 2.646 25.299 2.019 2.16 4.041 4.307 6.05 6.448a1039.538 1039.538 0 0 1 19.303-17.192c-.479-4.247-.978-8.493-1.494-12.74z"/><path fill="#33393D" d="M683.598 120.025c.539 7.475 1.039 14.95 1.492 22.421.084.009.17.02.26.029 4.1-2.843 8.182-5.64 12.252-8.384a3444.4 3444.4 0 0 1 12.814 1.555c-.285-4.069-.59-8.137-.904-12.208a2949.798 2949.798 0 0 0-25.914-3.413z"/><path fill="#A6273C" d="M701.569 64.996a996.978 996.978 0 0 0-7.565 5.994l-.176-.034c.374 3.628.742 7.253 1.097 10.881-1.447 1.354-2.894 2.719-4.351 4.093.665 7.061 1.287 14.121 1.869 21.179 6.633.961 13.259 1.948 19.889 2.961-.229-2.653-.469-5.311-.709-7.965a2353.26 2353.26 0 0 1-7.029-7.496 1771.811 1771.811 0 0 0-3.025-29.613z"/><path fill="#BDBDBD" d="M673.01 103.274c.402 5.141.787 10.282 1.152 15.423a2825.973 2825.973 0 0 1 39.173 5.127c2.301 2.42 4.602 4.825 6.898 7.219.031-.033.07-.065.105-.097 1.752.234 3.499.468 5.25.704 2.284-2.092 4.559-4.162 6.826-6.207a402.365 402.365 0 0 0-.291-3.485l-3.966-.591a1119.39 1119.39 0 0 0-4.129 3.756 3194.34 3194.34 0 0 1-7.843-8.212c-.203-2.464-.42-4.929-.633-7.394a2567.398 2567.398 0 0 0-24.219-3.641 2562.858 2562.858 0 0 0-18.323-2.602z"/><path fill="#A6273C" d="M712.434 128.637c.224 2.958.438 5.914.646 8.868l3.312.407a785.18 785.18 0 0 1 4.712-4.372 3444.338 3444.338 0 0 1-4.118-4.298l-4.552-.605z"/><path fill="#BDBDBD" d="M532.709 357.325c-.138 5.248-.282 10.495-.442 15.741a2949.75 2949.75 0 0 0 21.739-1.303c3.67 4.026 7.319 8.015 10.955 11.971 3.8-.284 7.607-.576 11.412-.876a3714.47 3714.47 0 0 1 9.256-10.453 2702.972 2702.972 0 0 0 14.374 15.307c-.241 4.877-.495 9.75-.765 14.626 3.385 3.57 6.749 7.112 10.1 10.608-.256 4.119-.52 8.236-.799 12.354 3.668 3.835 7.316 7.621 10.945 11.356 2.504 2.578 4.998 5.136 7.479 7.669 4.226-.635 8.449-1.285 12.677-1.949.556-6.529 1.081-13.061 1.576-19.59.565-7.432 1.093-14.864 1.581-22.299-4.4-4.439-8.833-8.953-13.293-13.534.202-3.657.401-7.312.592-10.97a2264.46 2264.46 0 0 1-11.645-12.068c.169-3.963.338-7.926.491-11.889a3540.751 3540.751 0 0 1-86.233 5.299z"/><path fill="#33393D" d="M103.829 242.867a2278.45 2278.45 0 0 0-25.183-23.892c.061-3.508.133-7.012.215-10.519a1781.495 1781.495 0 0 0-30.012-27.288c.296-7.192.628-14.384 1.011-21.578 4.268-4.135 8.547-8.311 12.827-12.522.283-4.958.585-9.913.905-14.87a3210.42 3210.42 0 0 0-46.523 5.575 3184.742 3184.742 0 0 1-14.997 19.196c-.871 13.6-1.56 27.188-2.072 40.774a2270.95 2270.95 0 0 1 27.377 32.322c-.052 3.272-.09 6.543-.122 9.815a2085.907 2085.907 0 0 1 28.331 28.537c.039 5.719.104 11.433.19 17.15 10.994.357 21.994.699 33.008 1.022.979 1.036 1.965 2.076 2.948 3.121 4.041-3.796 8.1-7.634 12.166-11.507-.114-11.78-.137-23.557-.069-35.336z"/><path fill="#BDBDBD" d="M69.931 133.089a3050.075 3050.075 0 0 1 49.596-4.986 2380.39 2380.39 0 0 1 3.885-59.162C93.28 73.059 63.11 77.876 32.903 83.325a1720.155 1720.155 0 0 0-4.248 48.329c-1.761 2.29-3.515 4.572-5.264 6.842a3149.333 3149.333 0 0 1 46.54-5.407z"/><path fill="#A6273C" d="M116.703 13.514a1655.15 1655.15 0 0 0-51 10.446 1821.507 1821.507 0 0 0-27.388 6.287c-.673 5.021-1.32 10.038-1.944 15.054a3135.266 3135.266 0 0 1-12.56 13.641 1640.612 1640.612 0 0 0-2.171 18.792c30.185-5.875 60.321-11.094 90.401-15.592a2306.463 2306.463 0 0 1 4.662-48.628z"/><path fill="#33393D" d="M128.385 117.174c6.013-.582 12.028-1.144 18.045-1.686 13.964-1.253 27.938-2.4 41.905-3.431a3374.808 3374.808 0 0 1 2.413-48.275c-6.261.624-12.522 1.278-18.788 1.964a4123.88 4123.88 0 0 0-10.526-11.438c.59-8.325 1.212-16.644 1.873-24.963a3601.13 3601.13 0 0 0-11.89-12.819c.326-3.617.654-7.237.995-10.854-5.188.856-10.376 1.741-15.566 2.654a2488.363 2488.363 0 0 0-4.427 49.341 2487.123 2487.123 0 0 0-4.034 59.507z"/><path fill="#BDBDBD" d="M211.175 78.789a2014.311 2014.311 0 0 1 89.207-5.181c.097-4.653.196-9.305.305-13.954.397-17.726.849-35.426 1.357-53.094-43.367 2.147-86.812 6.338-130.462 12.467a3054.18 3054.18 0 0 0-.859 10.994c4.01 4.378 8.048 8.816 12.121 13.306-.56 8.419-1.093 16.843-1.586 25.269 3.55 3.903 7.119 7.845 10.71 11.825 6.288-.564 12.581-1.097 18.862-1.603"/><path fill="#A6273C" d="M205.304 69.862a3679.532 3679.532 0 0 0-3.37 87.025c7.672-.351 15.337-.677 23.012-.979a3716.69 3716.69 0 0 1 68.041-2.068 7903.682 7903.682 0 0 1 1.637-89.746 1909.678 1909.678 0 0 0-88.976 5.738M540.687 363.839c.237-8.021.445-16.045.624-24.068.21-9.153.385-18.306.523-27.46a3551.493 3551.493 0 0 1-8.947-9.944c.055-4.607.102-9.215.141-13.822-11.451.195-22.911.37-34.373.523a5005.702 5005.702 0 0 1-1.471 92.809c5.146-.242 10.291-.496 15.434-.768.148-5.293.288-10.582.416-15.874 9.223-.425 18.437-.89 27.653-1.396z"/><path fill="#BDBDBD" d="M470.983 300.854a4115.854 4115.854 0 0 0-5.192 5.989 9039.59 9039.59 0 0 0-14.134 16.341 8428.18 8428.18 0 0 1-.142 15.092c-.057 5.286-.114 10.574-.181 15.858-.058 4.919-.126 9.833-.193 14.749-1.7 1.984-3.396 3.969-5.097 5.955-.061 4.418-.129 8.84-.197 13.258a2488.17 2488.17 0 0 0 27.146-.933c-.112 5.13-.223 10.259-.348 15.386 3.242-2.881 6.496-5.76 9.748-8.64 2.851-.125 5.701-.263 8.556-.401.808-30.96 1.344-61.963 1.61-92.98-7.191.118-14.38.229-21.576.326zM129.513 250.153c-4.943.007-9.882.014-14.822.018a3547.24 3547.24 0 0 1-9.251 9.792c.022 11.792.132 23.585.333 35.378A2305.581 2305.581 0 0 1 93.7 306.699a3089.25 3089.25 0 0 1 20.33 21.947c13.412.782 26.835 1.506 40.272 2.173 4.97 5.535 9.956 11.109 14.94 16.718 9.024.507 18.047.974 27.079 1.415a3563.351 3563.351 0 0 1-1.206-98.848c-21.902.01-43.774.032-65.602.049zM399.398 381.208c.039-6.865.073-13.734.11-20.604-4.142-4.823-8.286-9.662-12.45-14.508v0a3497.93 3497.93 0 0 1-48.265-.104c-5.209-6.08-10.422-12.166-15.65-18.25-.092-15.797-.195-38.848-.195-38.9-14.476-.069-28.944-.168-43.408-.299.122 27.676.413 46.676.865 74.31a3042.261 3042.261 0 0 1-48.771-1.858 6424.93 6424.93 0 0 1 19.719 22.859c.21 8.002.434 15.995.676 23.99a7686.295 7686.295 0 0 1 16.561 19.475c3.254.175 6.497.341 9.749.5 3.394-3.939 6.807-7.895 10.237-11.872 4.036.162 8.076.31 12.114.448a10487.32 10487.32 0 0 1 13.683 16.203c.093 5.484.188 6.65.292 12.127a7275.452 7275.452 0 0 1 15.212 18.201c.078 5.186.157 7.13.24 12.311 6.096 7.341 12.144 10.34 18.14 17.617 3.176.054 6.356.098 9.532.128-.1-16.058-.182-24.593-.26-40.702 8.446-10.067 16.988-15.902 25.591-26.109 8.787-.057 17.576-.174 26.361-.354.111-10.809.22-21.624.314-32.453-3.457-4.039-6.92-8.091-10.397-12.156z"/><path fill="#A6273C" d="M270.815 268.583c-.008-3.504-.01-7.004-.012-10.507-21.998-.041-43.974-.093-65.926-.158.018 33.11.471 66.225 1.354 99.308 3.549.176 7.096.346 10.649.512-.069-2.76-.136-5.523-.199-8.283 1.338.057 2.678.113 4.021.167.639.028 1.275.054 1.914.083a3668.82 3668.82 0 0 0 48.905 1.687 6310.747 6310.747 0 0 1-.706-82.809z"/><path fill="#BDBDBD" d="M463.803 155.247c-.096-6.339-.191-12.672-.305-19.004-.027 0-.057 0-.082-.003a7134.62 7134.62 0 0 1-15.762-18.412 2630.21 2630.21 0 0 0-53.651-1.025c.054 10.81.102 21.627.141 32.45 1.821 2.135 3.653 4.273 5.485 6.413.027 6.482.055 12.967.076 19.453 19.189.121 38.381.356 57.564.71-.051-4.301-.097-8.601-.149-12.898 2.23-2.57 4.455-5.13 6.683-7.684z"/><path fill="#A6273C" d="M499.951 246.821a4372.91 4372.91 0 0 1 21.513-17.761c4.511.044 9.021.089 13.525.136a5219.636 5219.636 0 0 1 20.568-22.884c7.712.184 15.423.381 23.127.587 6.227 6.885 12.44 13.7 18.624 20.441a4007.286 4007.286 0 0 0-18.035 19.661c-26.394-.072-52.844-.131-79.322-.18z"/><path fill="#BDBDBD" d="M597.334 217.019c3.868 4.22 7.718 8.41 11.566 12.567l9.953.155a2736.762 2736.762 0 0 1 23.234-24.503c1.528.059 3.066.114 4.596.174-.062-2.91-.14-5.818-.218-8.729 3.677-3.803 7.333-7.567 10.976-11.287-7.212-.411-14.426-.809-21.643-1.189-.082-2.68-.17-5.358-.264-8.034-5.949-.352-11.906-.695-17.856-1.027.185 5.731.352 11.463.497 17.193a2208.443 2208.443 0 0 0-7.662 8.147 8163.2 8163.2 0 0 0-8.412-.295c.081 3.816.15 7.638.213 11.456-1.656 1.784-3.318 3.574-4.98 5.372z"/><path fill="#33393D" d="M683.852 133.419c-3.785-.432-7.576-.853-11.364-1.272.279 4.394.544 8.786.79 13.181 1.637 1.752 3.281 3.5 4.92 5.238a1755.019 1755.019 0 0 0-10.527 10.48c1.504 1.603 3.008 3.201 4.514 4.795 2.852.224 5.703.449 8.559.677 1.402-1.387 2.803-2.772 4.201-4.148-.324-6.546-.688-13.092-1.076-19.641-.18-2.912-.361-5.821-.547-8.732l.793-.548-.263-.03z"/><path fill="#BDBDBD" d="M691.355 193.174c-.116-2.815-.235-5.63-.363-8.442-1.914-1.99-3.824-3.983-5.746-5.987l.045.003c-.777-.812-1.553-1.627-2.329-2.44.229 5.476.435 10.952.618 16.426 2.59.143 5.181.292 7.775.44z"/></svg>