<svg xmlns="http://www.w3.org/2000/svg" width="682" height="302" viewBox="0 0 682 302"><path fill="#FFF" d="M0 0h211.5v302H0z"/><path fill="#A6273C" d="M176.4 0h35.1v35.1h-35.1z"/><g fill="#EDEDED"><path d="M187.9 21h2.1v-6.8h-1.7v-.8c.8-.1 1.4-.4 1.9-.7h.9V21h1.9v1h-5.2v-1zM194.9 17.8c.4.4 1 .7 1.5.7.7 0 1-.3 1-.8s-.4-.6-.9-.9l-.8-.3c-.6-.2-1.2-.7-1.2-1.6 0-.9.8-1.7 2-1.7.7 0 1.4.3 1.8.7l-.5.7c-.4-.3-.8-.5-1.3-.5-.6 0-.9.3-.9.7 0 .5.4.6.9.8l.8.3c.7.3 1.2.7 1.2 1.6 0 1-.8 1.7-2.1 1.7-.8 0-1.6-.3-2.1-.9l.6-.5zM200.6 14.3h-1.7v-.9h4.4v.9h-1.7v5h-1v-5z"/></g><g><path fill="#BDBDBD" d="M125.4 53.3V48l-3.7-3.6v.1-.1h-14.2l-4.6-4.6V27.7H90.2v21.2H75.8l5.7 5.7v6.2l4.7 4.8h3l3.1-3.2H96l4 4v4.2l4.5 4.6v3.9l5.5 5.5h2.9V72.3l7.7-7.7h7.9v-8.2z"/><g fill="#184D5B"><path d="M81.4 103.2h-4.2v-1.5h10.1v1.5h-4.2v12.3h-1.8v-12.3zM92.1 105c2.6 0 4.1 1.9 4.1 4.8 0 .4 0 .7-.1.9h-6.9c.1 2.2 1.4 3.6 3.4 3.6 1 0 1.8-.3 2.5-.8l.6 1.1c-.9.6-2 1.1-3.4 1.1-2.7 0-4.9-2-4.9-5.3.1-3.3 2.4-5.4 4.7-5.4zm2.5 4.6c0-2.1-.9-3.2-2.5-3.2-1.4 0-2.7 1.2-2.9 3.2h5.4zM100.4 110.2l-3.1-4.9h1.9l1.4 2.2c.3.5.7 1.1 1 1.7h.1c.3-.6.6-1.2.9-1.7l1.2-2.2h1.8l-3.1 5.1 3.3 5.1H104l-1.5-2.4c-.4-.6-.7-1.2-1.1-1.8h-.1c-.4.6-.7 1.2-1 1.8l-1.4 2.4h-1.8l3.3-5.3zM113.5 109c0-1.3-.4-2.6-2.1-2.6-1.2 0-2.2.5-3 1.1l-.7-1.2c.9-.6 2.4-1.3 4-1.3 2.5 0 3.5 1.7 3.5 4.2v6.3h-1.4l-.1-1.2c-1 .8-2.1 1.5-3.4 1.5-1.7 0-3-1.1-3-2.9-.1-2.3 1.8-3.4 6.2-3.9zm-2.8 5.4c1 0 1.8-.5 2.8-1.4v-2.8c-3.4.4-4.6 1.3-4.6 2.6 0 1.1.8 1.6 1.8 1.6zM118.2 113.2c.9.7 1.8 1.2 3 1.2 1.3 0 2-.7 2-1.6 0-1.1-1.2-1.5-2.3-1.9-1.4-.5-3-1.2-3-2.9 0-1.6 1.3-2.9 3.5-2.9 1.3 0 2.4.5 3.2 1.2l-.8 1.1c-.7-.5-1.4-.9-2.3-.9-1.3 0-1.9.7-1.9 1.5 0 1 1.1 1.3 2.3 1.8 1.5.5 3.1 1.2 3.1 3.1 0 1.7-1.3 3-3.7 3-1.4 0-2.8-.6-3.8-1.4l.7-1.3z"/></g><g fill="#90A4AE"><path d="M21.3 176.1h1.4v3.2H26v-3.2h1.4v8H26v-3.6h-3.3v3.6h-1.4v-8zM29.2 176.3c0-.5.4-.8.9-.8s.9.3.9.8-.4.8-.9.8c-.6 0-.9-.4-.9-.8zm.1 1.8h1.4v6h-1.4v-6zM33 184c-.3-.2-.5-.6-.5-1.1 0-.5.3-.9.7-1.1-.4-.3-.8-.9-.8-1.6 0-1.4 1.1-2.2 2.4-2.2.3 0 .6.1.9.1h2.2v1h-1.1c.2.2.3.6.3 1 0 1.3-1 2.1-2.3 2.1-.3 0-.6 0-.8-.2-.2.2-.3.3-.3.6s.2.6 1 .6h1.1c1.5 0 2.2.4 2.2 1.5 0 1.2-1.3 2.1-3.2 2.1-1.4 0-2.5-.5-2.5-1.6-.2-.4.1-.9.7-1.2zm1.9 1.9c1 0 1.6-.5 1.6-1s-.4-.6-1.1-.6h-.8c-.3 0-.6 0-.8-.1-.3.2-.5.5-.5.8 0 .6.6.9 1.6.9zm.9-5.7c0-.8-.5-1.2-1-1.2s-1.1.4-1.1 1.2c0 .8.5 1.2 1.1 1.2.5 0 1-.5 1-1.2zM38.9 175.5h1.4V178.9c.5-.5 1.1-.9 1.9-.9 1.3 0 1.9.9 1.9 2.4v3.8h-1.4v-3.6c0-1-.3-1.4-.9-1.4-.5 0-.9.3-1.4.8v4.2H39v-8.7zM48.7 182.2c.6.5 1.4.9 2.1.9.9 0 1.4-.4 1.4-1 0-.7-.5-.9-1.2-1.2l-1.1-.5c-.8-.3-1.6-1-1.6-2.1 0-1.3 1.1-2.3 2.7-2.3.9 0 1.8.4 2.5 1l-.7.9c-.5-.4-1.1-.7-1.7-.7-.8 0-1.3.4-1.3.9 0 .6.6.9 1.3 1.1l1.1.5c.9.4 1.6 1 1.6 2.2 0 1.3-1.1 2.4-2.9 2.4-1.1 0-2.1-.4-2.9-1.2l.7-.9zM57.6 178c.8 0 1.4.3 1.8.7l-.7.9c-.3-.3-.6-.4-1-.4-1 0-1.6.8-1.6 2s.7 2 1.6 2c.5 0 .9-.2 1.2-.5l.6.9c-.6.5-1.3.8-2 .8-1.6 0-2.9-1.2-2.9-3.2 0-2.1 1.4-3.2 3-3.2zM60.7 175.5h1.4V178.9c.5-.5 1.1-.9 1.9-.9 1.3 0 1.9.9 1.9 2.4v3.8h-1.4v-3.6c0-1-.3-1.4-.9-1.4-.5 0-.9.3-1.4.8v4.2h-1.4v-8.7zM70 178c1.5 0 2.9 1.2 2.9 3.2s-1.4 3.2-2.9 3.2-2.9-1.2-2.9-3.2c.1-2.1 1.4-3.2 2.9-3.2zm0 5.2c.9 0 1.4-.8 1.4-2s-.5-2-1.4-2c-.9 0-1.4.8-1.4 2s.5 2 1.4 2zM76.8 178c1.5 0 2.9 1.2 2.9 3.2s-1.4 3.2-2.9 3.2-2.9-1.2-2.9-3.2c0-2.1 1.4-3.2 2.9-3.2zm0 5.2c.9 0 1.4-.8 1.4-2s-.5-2-1.4-2c-.9 0-1.4.8-1.4 2s.5 2 1.4 2zM81.1 175.5h1.4v7.2c0 .3.2.5.3.5h.2l.2 1.1c-.2.1-.4.1-.8.1-1 0-1.4-.7-1.4-1.7v-7.2zM86.8 178c1.6 0 2.5 1.2 2.5 2.9 0 .3 0 .5-.1.7h-3.8c.1 1.1.8 1.7 1.8 1.7.5 0 1-.2 1.4-.4l.5.9c-.6.4-1.3.7-2.1.7-1.7 0-3-1.2-3-3.2 0-2.1 1.4-3.3 2.8-3.3zm1.2 2.6c0-1-.4-1.5-1.2-1.5-.7 0-1.3.5-1.5 1.5H88zM90.6 178.1h1.2l.1 1.1c.4-.8 1.1-1.2 1.7-1.2.3 0 .5 0 .7.1l-.2 1.2c-.2-.1-.4-.1-.6-.1-.5 0-1.1.3-1.4 1.2v3.7h-1.4v-6zM95.1 182.6c.5.4 1.1.7 1.7.7.7 0 1-.3 1-.7 0-.5-.7-.7-1.3-1-.8-.3-1.7-.8-1.7-1.8 0-1.1.8-1.8 2.2-1.8.8 0 1.5.3 2 .7l-.7.9c-.4-.3-.8-.5-1.3-.5-.6 0-.9.3-.9.7 0 .5.6.7 1.3.9.8.3 1.7.7 1.7 1.8 0 1-.8 1.9-2.3 1.9-.8 0-1.7-.4-2.3-.8l.6-1z"/></g><g fill="#546E7A"><path d="M160.8 182.5h1.6v-5.1h-1.3v-.6c.6-.1 1.1-.3 1.5-.5h.7v6.2h1.4v.7h-3.9v-.7zM169.3 177.2h-3.4v-.8h4.4v.6c-1.6 2.1-2 3.7-2.1 6.3h-.9c.1-2.6.6-4.3 2-6.1zM172.1 182c.3 0 .6.3.6.7 0 .4-.3.7-.6.7-.4 0-.6-.3-.6-.7-.1-.4.2-.7.6-.7zM173.9 179.8c0-2.3.8-3.6 2.2-3.6 1.4 0 2.2 1.2 2.2 3.6 0 2.3-.8 3.6-2.2 3.6-1.4 0-2.2-1.3-2.2-3.6zm3.6 0c0-2-.5-2.8-1.3-2.8s-1.4.8-1.4 2.8c0 2 .5 2.9 1.4 2.9.7 0 1.3-.9 1.3-2.9zM179.2 178.3c0-1.4.6-2.2 1.6-2.2s1.6.8 1.6 2.2-.6 2.2-1.6 2.2-1.6-.8-1.6-2.2zm2.5 0c0-1.1-.4-1.7-.9-1.7-.6 0-.9.5-.9 1.7 0 1.1.4 1.7.9 1.7s.9-.6.9-1.7zm-.7 5.1l3.9-7.3h.6l-3.9 7.3h-.6zm3.1-2.2c0-1.4.6-2.2 1.6-2.2s1.6.8 1.6 2.2c0 1.4-.6 2.2-1.6 2.2s-1.6-.8-1.6-2.2zm2.5 0c0-1.1-.4-1.7-.9-1.7s-.9.6-.9 1.7.4 1.7.9 1.7.9-.6.9-1.7z"/></g><g fill="#455A64"><path d="M26.8 150.4h-3.7l-.9 3h-2l3.6-11h2.3l3.6 11h-2.1l-.8-3zm-.5-1.6l-.4-1.3c-.4-1.2-.7-2.4-1-3.6h-.1c-.3 1.2-.6 2.5-1 3.6l-.4 1.3h2.9zM33.9 144.9c.9 0 1.5.4 2.2.9l-.1-1.3v-3h1.9v11.9h-1.6l-.1-.9h-.1c-.6.6-1.4 1.1-2.3 1.1-2.1 0-3.4-1.6-3.4-4.3 0-2.8 1.7-4.4 3.5-4.4zm.4 7c.6 0 1.2-.3 1.7-.9v-3.9c-.6-.5-1.1-.7-1.7-.7-1.1 0-1.9 1-1.9 2.7 0 1.9.7 2.8 1.9 2.8zM40.3 145.1h1.9v4.9c0 1.4.4 1.9 1.3 1.9.7 0 1.2-.3 1.8-1.1v-5.7h1.9v8.3h-1.6l-.2-1.2h-.1c-.7.9-1.5 1.4-2.7 1.4-1.8 0-2.5-1.2-2.5-3.3v-5.2zM49.7 141.5h1.9v9.9c0 .5.2.6.4.6h.3l.3 1.4c-.2.1-.6.2-1 .2-1.4 0-1.9-.9-1.9-2.3v-9.8zM54.6 146.6h-1.2v-1.4l1.3-.1.2-2.3h1.6v2.3h2.1v1.5h-2.1v3.9c0 1 .4 1.4 1.2 1.4.3 0 .6-.1.9-.2l.3 1.4c-.5.2-1 .3-1.7.3-1.9 0-2.6-1.2-2.6-3v-3.8zM60.5 151.1c.7.6 1.4.9 2.3.9.9 0 1.3-.4 1.3-1 0-.7-.9-1-1.8-1.3-1.1-.4-2.3-1-2.3-2.4s1.2-2.5 3-2.5c1.1 0 2.1.5 2.7 1l-.9 1.2c-.6-.4-1.2-.7-1.8-.7-.8 0-1.2.4-1.2.9 0 .7.8.9 1.7 1.2 1.1.4 2.4 1 2.4 2.5 0 1.4-1.1 2.6-3.2 2.6-1.1 0-2.3-.5-3.1-1.1l.9-1.3z"/></g><g fill="#546E7A"><path d="M146.7 151.1c.6.7 1.5 1.3 2.7 1.3 1.3 0 2.2-.8 2.2-2 0-1.3-.9-2.1-3.4-2.1v-1.1c2.3 0 3-.9 3-2 0-1-.7-1.7-1.9-1.7-.9 0-1.6.5-2.3 1.1l-.7-.9c.8-.8 1.8-1.3 3.1-1.3 1.9 0 3.2 1 3.2 2.7 0 1.3-.8 2.1-2 2.6v.1c1.3.3 2.3 1.2 2.3 2.7 0 1.9-1.6 3.1-3.5 3.1-1.7 0-2.8-.7-3.5-1.5l.8-1zM155.1 151.1c.6.7 1.5 1.3 2.7 1.3 1.3 0 2.2-.8 2.2-2 0-1.3-.9-2.1-3.4-2.1v-1.1c2.3 0 3-.9 3-2 0-1-.7-1.7-1.9-1.7-.9 0-1.6.5-2.3 1.1l-.7-.9c.8-.8 1.8-1.3 3.1-1.3 1.9 0 3.2 1 3.2 2.7 0 1.3-.8 2.1-2 2.6v.1c1.3.3 2.3 1.2 2.3 2.7 0 1.9-1.6 3.1-3.5 3.1-1.7 0-2.8-.7-3.5-1.5l.8-1zM164.4 151.4c.5 0 1 .4 1 1.1 0 .6-.5 1-1 1-.6 0-1-.4-1-1s.5-1.1 1-1.1zM167.3 147.9c0-3.6 1.3-5.5 3.5-5.5 2.1 0 3.4 1.9 3.4 5.5s-1.3 5.6-3.4 5.6c-2.2 0-3.5-2-3.5-5.6zm5.5 0c0-3.1-.8-4.4-2.1-4.4s-2.1 1.3-2.1 4.4c0 3.1.8 4.5 2.1 4.5s2.1-1.3 2.1-4.5zM175.5 145.6c0-2.2 1-3.5 2.5-3.5s2.5 1.2 2.5 3.5c0 2.2-1 3.5-2.5 3.5s-2.5-1.3-2.5-3.5zm3.9 0c0-1.8-.6-2.6-1.4-2.6-.9 0-1.5.8-1.5 2.6s.6 2.6 1.5 2.6c.8 0 1.4-.9 1.4-2.6zm-1.1 7.9l6.1-11.4h.9l-6.1 11.4h-.9zm4.9-3.5c0-2.2 1-3.5 2.5-3.5s2.5 1.3 2.5 3.5-1 3.5-2.5 3.5-2.5-1.2-2.5-3.5zm3.9 0c0-1.8-.6-2.6-1.4-2.6-.9 0-1.5.9-1.5 2.6s.6 2.6 1.5 2.6c.8.1 1.4-.8 1.4-2.6z"/></g><path fill="#90A4AE" stroke="#E1E1E1" stroke-width=".5" stroke-miterlimit="10" d="M20.3 167.3h171"/><g fill="#90A4AE"><path d="M21.2 209.8h1.7v-5.1h-1.4v-.9c.8-.1 1.3-.3 1.8-.6h1.1v6.7h1.5v1.2h-4.7v-1.3zM27.1 207c0-2.6 1-4 2.7-4s2.7 1.4 2.7 4-1 4.1-2.7 4.1-2.7-1.5-2.7-4.1zm3.9 0c0-2.2-.5-2.9-1.3-2.9s-1.3.7-1.3 2.9.6 3 1.3 3c.8 0 1.3-.8 1.3-3zM33.4 207.3h2.9v1h-2.9v-1zM37.8 209.8h1.7v-5.1h-1.4v-.9c.8-.1 1.3-.3 1.8-.6H41v6.7h1.5v1.2h-4.7v-1.3zM47.4 204.3h-3.7v-1.2H49v.9c-1.8 2.3-2.2 3.9-2.3 7h-1.4c.1-2.9.6-4.6 2.1-6.7zM54.3 207.9l-2.4-5.1h1.5l.9 2.1c.2.6.5 1.2.7 1.8.3-.6.5-1.2.7-1.8l.9-2.1h1.5l-2.4 5.1v3h-1.4v-3zM58.5 204.9h1.2l.1 1.1c.4-.8 1.1-1.2 1.7-1.2.3 0 .5 0 .7.1l-.2 1.2c-.2-.1-.4-.1-.6-.1-.5 0-1.1.3-1.4 1.2v3.7h-1.4v-6zM62.4 207.3h2.9v1h-2.9v-1zM69.2 204.7c1.5 0 2.9 1.2 2.9 3.2s-1.4 3.2-2.9 3.2-2.9-1.2-2.9-3.2c.1-2 1.4-3.2 2.9-3.2zm0 5.2c.9 0 1.4-.8 1.4-2s-.5-2-1.4-2c-.9 0-1.4.8-1.4 2s.6 2 1.4 2zM73.5 202.2h1.4v7.2c0 .3.2.5.3.5h.2l.2 1.1c-.2.1-.4.1-.8.1-1 0-1.4-.7-1.4-1.7v-7.2zM79 204.7c.7 0 1.1.3 1.6.7v-3.2H82v8.7h-1.2l-.1-.7c-.4.4-1.1.8-1.7.8-1.5 0-2.5-1.2-2.5-3.2 0-1.9 1.2-3.1 2.5-3.1zm.3 5.2c.5 0 .9-.2 1.3-.7v-2.8c-.4-.4-.8-.5-1.2-.5-.8 0-1.4.7-1.4 2-.1 1.3.4 2 1.3 2zM83.8 209.3c.5.4 1.1.7 1.7.7.7 0 1-.3 1-.7 0-.5-.7-.7-1.3-1-.8-.3-1.7-.8-1.7-1.8 0-1.1.8-1.8 2.2-1.8.8 0 1.5.3 2 .7l-.7.9c-.4-.3-.8-.5-1.3-.5-.6 0-.9.3-.9.7 0 .5.6.7 1.3.9.8.3 1.7.7 1.7 1.8 0 1-.8 1.9-2.3 1.9-.8 0-1.7-.4-2.3-.8l.6-1z"/></g><g fill="#546E7A"><path d="M160.8 209.3h1.6v-5.1h-1.3v-.6c.6-.1 1.1-.3 1.5-.5h.7v6.2h1.4v.7h-3.9v-.7zM167.1 206.4c-.5-.4-1-.9-1-1.6 0-1.1.8-1.8 2-1.8s1.9.8 1.9 1.8c0 .7-.5 1.3-1 1.7.6.4 1.2.8 1.2 1.8s-.9 1.8-2.2 1.8c-1.3 0-2.3-.8-2.3-1.9.1-.8.8-1.5 1.4-1.8zm1 3.1c.8 0 1.4-.5 1.4-1.2 0-.9-.9-1.2-1.9-1.6-.6.4-1 .9-1 1.5 0 .7.6 1.3 1.5 1.3zm1.2-4.6c0-.7-.4-1.2-1.2-1.2-.6 0-1.1.4-1.1 1.1 0 .8.8 1.2 1.6 1.5.4-.5.7-.9.7-1.4zM172.1 208.8c.3 0 .6.3.6.7 0 .4-.3.7-.6.7-.4 0-.6-.3-.6-.7-.1-.4.2-.7.6-.7zM177.7 204.3c-.3-.3-.7-.5-1.1-.5-1 0-1.8.7-1.8 2.9.4-.5 1-.9 1.6-.9 1.2 0 2 .7 2 2.1 0 1.3-.9 2.2-2 2.2-1.4 0-2.4-1.1-2.4-3.3 0-2.8 1.3-3.8 2.6-3.8.7 0 1.3.3 1.7.7l-.6.6zm-.2 3.6c0-.9-.4-1.5-1.3-1.5-.4 0-1 .3-1.4.9.1 1.3.6 2.1 1.5 2.1.7 0 1.2-.6 1.2-1.5zM179.2 205c0-1.4.6-2.2 1.6-2.2s1.6.8 1.6 2.2-.6 2.2-1.6 2.2c-1 .1-1.6-.8-1.6-2.2zm2.5 0c0-1.1-.4-1.7-.9-1.7-.6 0-.9.5-.9 1.7 0 1.1.4 1.7.9 1.7s.9-.6.9-1.7zm-.7 5.1l3.9-7.3h.6l-3.9 7.3h-.6zm3.1-2.2c0-1.4.6-2.2 1.6-2.2s1.6.8 1.6 2.2c0 1.4-.6 2.2-1.6 2.2s-1.6-.8-1.6-2.2zm2.5 0c0-1.1-.4-1.7-.9-1.7s-.9.6-.9 1.7.4 1.7.9 1.7.9-.6.9-1.7z"/></g><path fill="#90A4AE" stroke="#E1E1E1" stroke-width=".5" stroke-miterlimit="10" d="M20.3 193.3h171"/><g fill="#90A4AE"><path d="M21.3 228.9h1.4v6.8H26v1.2h-4.8v-8zM29.7 230.8c1.5 0 2.9 1.2 2.9 3.2s-1.4 3.2-2.9 3.2-2.9-1.2-2.9-3.2c0-2.1 1.4-3.2 2.9-3.2zm0 5.2c.9 0 1.4-.8 1.4-2s-.5-2-1.4-2c-.9 0-1.4.8-1.4 2-.1 1.2.5 2 1.4 2zM33.3 230.9h1.4l.7 3.1c.1.6.2 1.1.3 1.7.1-.6.2-1.2.4-1.7l.8-3.1h1.3l.8 3.1c.1.6.3 1.1.4 1.7.1-.6.2-1.2.3-1.7l.7-3.1h1.3l-1.5 6h-1.7l-.7-2.8c-.1-.6-.2-1.1-.4-1.8-.1.6-.2 1.2-.4 1.8l-.7 2.8h-1.6l-1.4-6zM45.7 228.9h1.4v8h-1.4v-8zM49 230.9h1.2l.1.8c.5-.5 1.2-1 2-1 1.3 0 1.9.9 1.9 2.4v3.8h-1.4v-3.6c0-1-.3-1.4-.9-1.4-.5 0-.9.3-1.4.8v4.2H49v-6zM58.6 230.8c.8 0 1.4.3 1.8.7l-.7.9c-.3-.3-.6-.4-1-.4-1 0-1.6.8-1.6 2s.7 2 1.6 2c.5 0 .9-.2 1.2-.5l.6.9c-.6.5-1.3.8-2 .8-1.6 0-2.9-1.2-2.9-3.2-.1-2.1 1.3-3.2 3-3.2zM63.8 230.8c1.5 0 2.9 1.2 2.9 3.2s-1.4 3.2-2.9 3.2-2.9-1.2-2.9-3.2c0-2.1 1.4-3.2 2.9-3.2zm0 5.2c.9 0 1.4-.8 1.4-2s-.5-2-1.4-2c-.9 0-1.4.8-1.4 2s.5 2 1.4 2zM68.1 230.9h1.2l.1.8c.5-.5 1.1-1 1.8-1 .9 0 1.4.4 1.7 1.1.6-.6 1.2-1.1 1.9-1.1 1.3 0 1.9.9 1.9 2.4v3.8h-1.4v-3.6c0-1-.3-1.4-.9-1.4-.4 0-.8.2-1.3.8v4.2h-1.4v-3.6c0-1-.3-1.4-.9-1.4-.4 0-.8.2-1.3.8v4.2h-1.4v-6zM80.8 230.8c1.6 0 2.5 1.2 2.5 2.9 0 .3 0 .5-.1.7h-3.8c.1 1.1.8 1.7 1.8 1.7.5 0 1-.2 1.4-.4l.5.9c-.6.4-1.3.7-2.1.7-1.7 0-3-1.2-3-3.2 0-2.1 1.4-3.3 2.8-3.3zm1.3 2.6c0-1-.4-1.5-1.2-1.5-.7 0-1.3.5-1.5 1.5h2.7zM86.8 236.1c2.2-2.1 3.5-3.5 3.5-4.7 0-.8-.5-1.4-1.3-1.4-.6 0-1.1.4-1.5.9l-.8-.8c.7-.8 1.4-1.2 2.5-1.2 1.5 0 2.5.9 2.5 2.4 0 1.4-1.3 2.8-2.8 4.5.4 0 .9-.1 1.3-.1H92v1.2h-5.3v-.8zM93.1 233.4H96v1h-2.9v-1zM102.5 235h-1v2h-1.3v-2h-3.5v-1l3.1-4.8h1.7v4.7h1v1.1zm-2.3-1.1v-1.8c0-.5 0-1.2.1-1.6l-.6 1.2-1.4 2.2h1.9zM103.8 235.4c.5.4 1.1.7 1.7.7.7 0 1-.3 1-.7 0-.5-.7-.7-1.3-1-.8-.3-1.7-.8-1.7-1.8 0-1.1.8-1.8 2.2-1.8.8 0 1.5.3 2 .7l-.7.9c-.4-.3-.8-.5-1.3-.5-.6 0-.9.3-.9.7 0 .5.6.7 1.3.9.8.3 1.7.7 1.7 1.8 0 1-.8 1.9-2.3 1.9-.8 0-1.7-.4-2.3-.8l.6-1z"/></g><g fill="#546E7A"><path d="M160.8 235.3h1.6v-5.1h-1.3v-.6c.6-.1 1.1-.3 1.5-.5h.7v6.2h1.4v.7h-3.9v-.7zM170.4 234.2h-.9v1.9h-.8v-1.9h-3.1v-.6l2.9-4.4h1v4.3h.9v.7zm-1.8-.7v-2c0-.4 0-1 .1-1.3-.2.3-.4.6-.6 1l-1.6 2.4h2.1zM172.1 234.8c.3 0 .6.3.6.7 0 .4-.3.7-.6.7-.4 0-.6-.3-.6-.7-.1-.4.2-.7.6-.7zM174.3 235.3h1.6v-5.1h-1.3v-.6c.6-.1 1.1-.3 1.5-.5h.7v6.2h1.4v.7h-3.9v-.7zM179.2 231.1c0-1.4.6-2.2 1.6-2.2s1.6.8 1.6 2.2-.6 2.2-1.6 2.2-1.6-.8-1.6-2.2zm2.5 0c0-1.1-.4-1.7-.9-1.7-.6 0-.9.5-.9 1.7 0 1.1.4 1.7.9 1.7s.9-.6.9-1.7zm-.7 5.1l3.9-7.3h.6l-3.9 7.3h-.6zm3.1-2.2c0-1.4.6-2.2 1.6-2.2s1.6.8 1.6 2.2c0 1.4-.6 2.2-1.6 2.2s-1.6-.8-1.6-2.2zm2.5 0c0-1.1-.4-1.7-.9-1.7s-.9.6-.9 1.7.4 1.7.9 1.7.9-.6.9-1.7z"/></g><path fill="#90A4AE" stroke="#E1E1E1" stroke-width=".5" stroke-miterlimit="10" d="M20.3 219.2h171M20.3 245.1h171"/><g fill="#90A4AE"><path d="M22.5 262.8h4.4v.8h-3.5v2.6h2.9v.8h-2.9v3.4h-1v-7.6zM27.9 264.8h1v3.5c0 1.1.3 1.5 1.1 1.5.6 0 1-.3 1.5-1v-4h1v5.7h-.8l-.1-.9c-.5.6-1.1 1-1.9 1-1.2 0-1.7-.8-1.7-2.2v-3.6zM34.3 262.2h1v7.3c0 .3.1.4.3.4h.2l.1.7c-.1.1-.3.1-.5.1-.7 0-1-.5-1-1.3v-7.2zM37.3 262.2h1v7.3c0 .3.1.4.3.4h.2l.1.7c-.1.1-.3.1-.5.1-.7 0-1-.5-1-1.3v-7.2zM42.5 269.2c.5.4 1 .7 1.7.7s1.1-.4 1.1-.9c0-.6-.7-.8-1.3-1.1-.8-.3-1.7-.7-1.7-1.6 0-.9.7-1.6 2-1.6.7 0 1.3.3 1.8.6l-.5.6c-.4-.3-.8-.5-1.3-.5-.7 0-1 .4-1 .8 0 .5.6.7 1.3 1 .8.3 1.7.6 1.7 1.7 0 .9-.7 1.7-2.1 1.7-.8 0-1.6-.3-2.1-.8l.4-.6zM47.7 265.6h-.8v-.7l.9-.1.1-1.6h.8v1.6h1.5v.8h-1.5v3.2c0 .7.2 1.1.9 1.1.2 0 .5-.1.6-.2l.2.7c-.3.1-.7.2-1.1.2-1.2 0-1.6-.8-1.6-1.9v-3.1zM54.5 266.9c0-.7-.2-1.4-1.2-1.4-.7 0-1.3.3-1.7.6l-.4-.7c.5-.3 1.3-.7 2.2-.7 1.4 0 2 .9 2 2.3v3.5h-.8l-.1-.7c-.6.4-1.2.8-1.9.8-1 0-1.7-.6-1.7-1.6.1-1.2 1.2-1.8 3.6-2.1zm-1.5 3c.6 0 1-.3 1.6-.8v-1.6c-1.9.2-2.6.7-2.6 1.4s.4 1 1 1zM57.5 265.6h-.8v-.7l.9-.1.1-1.6h.8v1.6H60v.8h-1.5v3.2c0 .7.2 1.1.9 1.1.2 0 .5-.1.6-.2l.2.7c-.3.1-.7.2-1.1.2-1.2 0-1.6-.8-1.6-1.9v-3.1zM63.3 264.7c1.5 0 2.3 1 2.3 2.7v.5h-3.8c.1 1.2.8 2 1.9 2 .5 0 1-.2 1.4-.4l.3.6c-.5.3-1.1.6-1.9.6-1.5 0-2.7-1.1-2.7-3-.1-1.9 1.2-3 2.5-3zm1.4 2.5c0-1.2-.5-1.8-1.4-1.8-.8 0-1.5.7-1.6 1.8h3zM69.3 262.2h1v3.3c.5-.5 1.1-.8 1.8-.8 1.5 0 2.3 1.1 2.3 2.9 0 1.9-1.2 3.1-2.5 3.1-.5 0-1.1-.3-1.6-.7l-.1.6h-.8v-8.4zm2.4 7.6c.9 0 1.6-.9 1.6-2.3 0-1.3-.4-2.1-1.5-2.1-.5 0-1 .3-1.5.8v3c.5.5 1 .6 1.4.6zM75.8 264.8h.8l.1 1c.4-.7 1-1.2 1.6-1.2.2 0 .4 0 .6.1l-.2.8c-.2-.1-.3-.1-.6-.1-.5 0-1.1.4-1.4 1.3v3.7h-1v-5.6zM79.7 263c0-.4.3-.6.7-.6s.7.2.7.6c0 .4-.3.6-.7.6s-.7-.2-.7-.6zm.2 1.8h1v5.7h-1v-5.7zM84.9 264.7c1.5 0 2.3 1 2.3 2.7v.5h-3.8c.1 1.2.8 2 1.9 2 .5 0 1-.2 1.4-.4l.3.6c-.5.3-1.1.6-1.9.6-1.5 0-2.7-1.1-2.7-3-.1-1.9 1.2-3 2.5-3zm1.4 2.5c0-1.2-.5-1.8-1.4-1.8-.8 0-1.5.7-1.6 1.8h3zM91.1 262.9c-.2-.1-.4-.1-.6-.1-.5 0-.8.4-.8 1.1v.9h1.2v.8h-1.2v4.9h-1v-4.9H88v-.7l.8-.1v-.9c0-1.2.5-1.9 1.7-1.9.4 0 .7.1.9.2l-.3.7zM21.4 272v-.6H91v.6H21.4z"/></g></g><g><path fill="#FFF" d="M235.1 0h211.5v302H235.1z"/><path fill="#A6273C" d="M411.5 0h35.1v35.1h-35.1z"/><g fill="#EDEDED"><path d="M421.5 21.3c2.8-2.8 4.3-4.4 4.3-5.9 0-1.1-.6-1.8-1.7-1.8-.8 0-1.4.5-2 1.1l-.7-.7c.8-.8 1.6-1.4 2.8-1.4 1.7 0 2.8 1.1 2.8 2.7 0 1.7-1.6 3.4-3.7 5.7.5 0 1.1-.1 1.5-.1h2.7v1h-5.9v-.6zM428.9 13.4h1.1l1.8 3.3.6 1.3c0-.6-.1-1.4-.1-2v-2.6h1v5.9h-1.1l-1.8-3.3-.6-1.3c0 .6.1 1.3.1 2v2.6h-1v-5.9zM434.8 13.4h1.6c1.8 0 2.9 1 2.9 2.9 0 2-1.1 3-2.8 3h-1.6v-5.9zm1.5 5c1.2 0 1.9-.7 1.9-2.1 0-1.4-.7-2.1-1.9-2.1h-.5v4.2h.5z"/></g><g fill="#184D5B"><path d="M309.1 101.7h7.9v1.5h-6.2v4.7h5.2v1.5h-5.2v6.2h-1.7v-13.9zM319.3 100.5h1.7v13c0 .5.2.8.5.8h.4l.2 1.3c-.2.1-.5.2-1 .2-1.3 0-1.8-.8-1.8-2.3v-13zM328.6 105c2.5 0 4.7 2 4.7 5.4 0 3.4-2.2 5.3-4.7 5.3s-4.7-2-4.7-5.3c0-3.4 2.3-5.4 4.7-5.4zm0 9.3c1.8 0 2.9-1.6 2.9-3.9 0-2.4-1.2-3.9-2.9-3.9s-2.9 1.6-2.9 3.9 1.2 3.9 2.9 3.9zM336.1 105.3h1.4l.1 1.8h.1c.7-1.3 1.7-2.1 2.9-2.1.4 0 .8.1 1.1.2l-.3 1.5c-.3-.1-.6-.2-1-.2-.9 0-1.9.6-2.6 2.4v6.6h-1.7v-10.2zM343 102.1c0-.7.5-1.1 1.2-1.1s1.2.4 1.2 1.1c0 .7-.5 1.1-1.2 1.1s-1.2-.5-1.2-1.1zm.3 3.2h1.7v10.2h-1.7v-10.2zM352.2 105c1.2 0 2 .4 2.9 1.2l-.1-1.7v-3.9h1.7v14.9h-1.4l-.1-1.2h-.1c-.8.8-1.9 1.4-3.1 1.4-2.6 0-4.2-1.9-4.2-5.3 0-3.3 2.1-5.4 4.4-5.4zm.2 9.3c.9 0 1.8-.5 2.6-1.4v-5.3c-.9-.8-1.6-1.1-2.5-1.1-1.6 0-2.9 1.6-2.9 3.9 0 2.4 1 3.9 2.8 3.9zM365.9 109c0-1.3-.4-2.6-2.1-2.6-1.2 0-2.2.5-3 1.1l-.7-1.2c.9-.6 2.4-1.3 4-1.3 2.5 0 3.5 1.7 3.5 4.2v6.3h-1.4l-.1-1.2c-1 .8-2.1 1.5-3.4 1.5-1.7 0-3-1.1-3-2.9 0-2.3 1.9-3.4 6.2-3.9zm-2.7 5.4c1 0 1.8-.5 2.8-1.4v-2.8c-3.4.4-4.6 1.3-4.6 2.6 0 1.1.7 1.6 1.8 1.6z"/></g><g fill="#90A4AE"><path d="M256.4 176.1h1.4v3.2h3.3v-3.2h1.4v8H261v-3.6h-3.3v3.6h-1.4v-8zM264.2 176.3c0-.5.4-.8.9-.8s.9.3.9.8-.4.8-.9.8-.9-.4-.9-.8zm.2 1.8h1.4v6h-1.4v-6zM268.1 184c-.3-.2-.5-.6-.5-1.1 0-.5.3-.9.7-1.1-.4-.3-.8-.9-.8-1.6 0-1.4 1.1-2.2 2.4-2.2.3 0 .6.1.9.1h2.2v1h-1.1c.2.2.3.6.3 1 0 1.3-1 2.1-2.3 2.1-.3 0-.6 0-.8-.2-.2.2-.3.3-.3.6s.2.6 1 .6h1.1c1.5 0 2.2.4 2.2 1.5 0 1.2-1.3 2.1-3.2 2.1-1.4 0-2.5-.5-2.5-1.6-.2-.4.1-.9.7-1.2zm1.8 1.9c1 0 1.6-.5 1.6-1s-.4-.6-1.1-.6h-.8c-.3 0-.6 0-.8-.1-.3.2-.5.5-.5.8.1.6.7.9 1.6.9zm.9-5.7c0-.8-.5-1.2-1-1.2s-1.1.4-1.1 1.2c0 .8.5 1.2 1.1 1.2.6 0 1-.5 1-1.2zM274 175.5h1.4V178.9c.5-.5 1.1-.9 1.9-.9 1.3 0 1.9.9 1.9 2.4v3.8h-1.4v-3.6c0-1-.3-1.4-.9-1.4-.5 0-.9.3-1.4.8v4.2H274v-8.7zM283.8 182.2c.6.5 1.4.9 2.1.9.9 0 1.4-.4 1.4-1 0-.7-.5-.9-1.2-1.2l-1.1-.5c-.8-.3-1.6-1-1.6-2.1 0-1.3 1.1-2.3 2.7-2.3.9 0 1.8.4 2.5 1l-.7.9c-.5-.4-1.1-.7-1.7-.7-.8 0-1.3.4-1.3.9 0 .6.6.9 1.3 1.1l1.1.5c.9.4 1.6 1 1.6 2.2 0 1.3-1.1 2.4-2.9 2.4-1.1 0-2.1-.4-2.9-1.2l.7-.9zM292.7 178c.8 0 1.4.3 1.8.7l-.7.9c-.3-.3-.6-.4-1-.4-1 0-1.6.8-1.6 2s.7 2 1.6 2c.5 0 .9-.2 1.2-.5l.6.9c-.6.5-1.3.8-2 .8-1.6 0-2.9-1.2-2.9-3.2 0-2.1 1.4-3.2 3-3.2zM295.8 175.5h1.4V178.9c.5-.5 1.1-.9 1.9-.9 1.3 0 1.9.9 1.9 2.4v3.8h-1.4v-3.6c0-1-.3-1.4-.9-1.4-.5 0-.9.3-1.4.8v4.2h-1.4v-8.7zM305.1 178c1.5 0 2.9 1.2 2.9 3.2s-1.4 3.2-2.9 3.2-2.9-1.2-2.9-3.2c0-2.1 1.4-3.2 2.9-3.2zm0 5.2c.9 0 1.4-.8 1.4-2s-.5-2-1.4-2c-.9 0-1.4.8-1.4 2s.5 2 1.4 2zM311.8 178c1.5 0 2.9 1.2 2.9 3.2s-1.4 3.2-2.9 3.2-2.9-1.2-2.9-3.2c.1-2.1 1.4-3.2 2.9-3.2zm0 5.2c.9 0 1.4-.8 1.4-2s-.5-2-1.4-2c-.9 0-1.4.8-1.4 2s.6 2 1.4 2zM316.1 175.5h1.4v7.2c0 .3.2.5.3.5h.2l.2 1.1c-.2.1-.4.1-.8.1-1 0-1.4-.7-1.4-1.7v-7.2zM321.8 178c1.6 0 2.5 1.2 2.5 2.9 0 .3 0 .5-.1.7h-3.8c.1 1.1.8 1.7 1.8 1.7.5 0 1-.2 1.4-.4l.5.9c-.6.4-1.3.7-2.1.7-1.7 0-3-1.2-3-3.2.1-2.1 1.4-3.3 2.8-3.3zm1.3 2.6c0-1-.4-1.5-1.2-1.5-.7 0-1.3.5-1.5 1.5h2.7zM325.7 178.1h1.2l.1 1.1c.4-.8 1.1-1.2 1.7-1.2.3 0 .5 0 .7.1l-.2 1.2c-.2-.1-.4-.1-.6-.1-.5 0-1.1.3-1.4 1.2v3.7h-1.4v-6zM330.2 182.6c.5.4 1.1.7 1.7.7.7 0 1-.3 1-.7 0-.5-.7-.7-1.3-1-.8-.3-1.7-.8-1.7-1.8 0-1.1.8-1.8 2.2-1.8.8 0 1.5.3 2 .7l-.7.9c-.4-.3-.8-.5-1.3-.5-.6 0-.9.3-.9.7 0 .5.6.7 1.3.9.8.3 1.7.7 1.7 1.8 0 1-.8 1.9-2.3 1.9-.8 0-1.7-.4-2.3-.8l.6-1z"/></g><g fill="#546E7A"><path d="M395.9 182.5h1.6v-5.1h-1.3v-.6c.6-.1 1.1-.3 1.5-.5h.7v6.2h1.4v.7h-3.9v-.7zM402.2 179.7c-.5-.4-1-.9-1-1.6 0-1.1.8-1.8 2-1.8s1.9.8 1.9 1.8c0 .7-.5 1.3-1 1.7.6.4 1.2.8 1.2 1.8s-.9 1.8-2.2 1.8c-1.3 0-2.3-.8-2.3-1.9.1-.9.7-1.5 1.4-1.8zm.9 3c.8 0 1.3-.5 1.3-1.2 0-.9-.9-1.2-1.9-1.6-.6.4-1 .9-1 1.5.2.8.8 1.3 1.6 1.3zm1.2-4.6c0-.7-.4-1.2-1.2-1.2-.6 0-1.1.4-1.1 1.1 0 .8.8 1.2 1.6 1.5.5-.4.7-.9.7-1.4zM407.1 182c.3 0 .6.3.6.7 0 .4-.3.7-.6.7-.4 0-.6-.3-.6-.7 0-.4.3-.7.6-.7zM408.9 182.7c2.1-2.1 3.2-3.3 3.2-4.4 0-.8-.4-1.3-1.3-1.3-.6 0-1.1.4-1.5.8l-.5-.5c.6-.6 1.2-1 2.1-1 1.3 0 2.1.8 2.1 2 0 1.3-1.2 2.6-2.8 4.3.4 0 .8-.1 1.2-.1h2v.8h-4.5v-.6zM414.2 178.3c0-1.4.6-2.2 1.6-2.2s1.6.8 1.6 2.2-.6 2.2-1.6 2.2c-.9 0-1.6-.8-1.6-2.2zm2.6 0c0-1.1-.4-1.7-.9-1.7-.6 0-.9.5-.9 1.7 0 1.1.4 1.7.9 1.7s.9-.6.9-1.7zm-.8 5.1l3.9-7.3h.6l-3.9 7.3h-.6zm3.2-2.2c0-1.4.6-2.2 1.6-2.2s1.6.8 1.6 2.2c0 1.4-.6 2.2-1.6 2.2s-1.6-.8-1.6-2.2zm2.5 0c0-1.1-.4-1.7-.9-1.7s-.9.6-.9 1.7.4 1.7.9 1.7.9-.6.9-1.7z"/></g><g fill="#455A64"><path d="M261.8 150.4h-3.7l-.9 3h-2l3.6-11h2.3l3.6 11h-2.1l-.8-3zm-.4-1.6l-.4-1.3c-.4-1.2-.7-2.4-1-3.6-.3 1.2-.6 2.5-1 3.6l-.4 1.3h2.8zM268.9 144.9c.9 0 1.5.4 2.2.9l-.1-1.3v-3h1.9v11.9h-1.6l-.1-.9h-.1c-.6.6-1.4 1.1-2.3 1.1-2.1 0-3.4-1.6-3.4-4.3 0-2.8 1.7-4.4 3.5-4.4zm.4 7c.6 0 1.2-.3 1.7-.9v-3.9c-.6-.5-1.1-.7-1.7-.7-1.1 0-1.9 1-1.9 2.7.1 1.9.7 2.8 1.9 2.8zM275.4 145.1h1.9v4.9c0 1.4.4 1.9 1.3 1.9.7 0 1.2-.3 1.8-1.1v-5.7h1.9v8.3h-1.6l-.2-1.2h-.1c-.7.9-1.5 1.4-2.7 1.4-1.8 0-2.5-1.2-2.5-3.3v-5.2zM284.8 141.5h1.9v9.9c0 .5.2.6.4.6h.3l.3 1.4c-.2.1-.6.2-1 .2-1.4 0-1.9-.9-1.9-2.3v-9.8zM289.7 146.6h-1.2v-1.4l1.3-.1.2-2.3h1.6v2.3h2.1v1.5h-2.1v3.9c0 1 .4 1.4 1.2 1.4.3 0 .6-.1.9-.2l.3 1.4c-.5.2-1 .3-1.7.3-1.9 0-2.6-1.2-2.6-3v-3.8zM295.5 151.1c.7.6 1.4.9 2.3.9.9 0 1.3-.4 1.3-1 0-.7-.9-1-1.8-1.3-1.1-.4-2.3-1-2.3-2.4s1.2-2.5 3-2.5c1.1 0 2.1.5 2.7 1l-.9 1.2c-.6-.4-1.2-.7-1.8-.7-.8 0-1.2.4-1.2.9 0 .7.8.9 1.7 1.2 1.1.4 2.4 1 2.4 2.5 0 1.4-1.1 2.6-3.2 2.6-1.1 0-2.3-.5-3.1-1.1l.9-1.3z"/></g><g fill="#546E7A"><path d="M381.8 151.1c.6.7 1.5 1.3 2.7 1.3 1.3 0 2.2-.8 2.2-2 0-1.3-.9-2.1-3.4-2.1v-1.1c2.3 0 3-.9 3-2 0-1-.7-1.7-1.9-1.7-.9 0-1.6.5-2.3 1.1l-.7-.9c.8-.8 1.8-1.3 3.1-1.3 1.9 0 3.2 1 3.2 2.7 0 1.3-.8 2.1-2 2.6v.1c1.3.3 2.3 1.2 2.3 2.7 0 1.9-1.6 3.1-3.5 3.1-1.7 0-2.8-.7-3.5-1.5l.8-1zM390.3 152.2h2.5v-7.9h-2v-.9c1-.2 1.7-.4 2.3-.8h1.1v9.6h2.2v1.1h-6.1v-1.1zM399.5 151.4c.5 0 1 .4 1 1.1 0 .6-.5 1-1 1-.6 0-1-.4-1-1s.4-1.1 1-1.1zM402.7 151.2c.6.6 1.4 1.2 2.7 1.2 1.3 0 2.4-1 2.4-2.5s-.9-2.4-2.3-2.4c-.7 0-1.2.2-1.8.7l-.7-.5.4-5.2h5.4v1.2h-4.2l-.3 3.2c.5-.3 1-.4 1.6-.4 1.8 0 3.3 1 3.3 3.4 0 2.3-1.8 3.6-3.6 3.6-1.7 0-2.8-.7-3.5-1.5l.6-.8zM410.5 145.6c0-2.2 1-3.5 2.5-3.5s2.5 1.2 2.5 3.5c0 2.2-1 3.5-2.5 3.5s-2.5-1.3-2.5-3.5zm4 0c0-1.8-.6-2.6-1.4-2.6-.9 0-1.5.8-1.5 2.6s.6 2.6 1.5 2.6c.8 0 1.4-.9 1.4-2.6zm-1.1 7.9l6.1-11.4h.9l-6.1 11.4h-.9zm4.8-3.5c0-2.2 1-3.5 2.5-3.5s2.5 1.3 2.5 3.5-1 3.5-2.5 3.5-2.5-1.2-2.5-3.5zm4 0c0-1.8-.6-2.6-1.4-2.6-.9 0-1.5.9-1.5 2.6s.6 2.6 1.5 2.6c.8.1 1.4-.8 1.4-2.6z"/></g><path fill="#90A4AE" stroke="#E1E1E1" stroke-width=".5" stroke-miterlimit="10" d="M255.3 167.3h171.1"/><g fill="#90A4AE"><path d="M256.2 209.8h1.7v-5.1h-1.4v-.9c.8-.1 1.3-.3 1.8-.6h1.1v6.7h1.5v1.2h-4.7v-1.3zM262.1 207c0-2.6 1-4 2.7-4s2.7 1.4 2.7 4-1 4.1-2.7 4.1-2.7-1.5-2.7-4.1zm4 0c0-2.2-.5-2.9-1.3-2.9s-1.3.7-1.3 2.9.6 3 1.3 3c.8 0 1.3-.8 1.3-3zM268.5 207.3h2.9v1h-2.9v-1zM272.8 209.8h1.7v-5.1h-1.4v-.9c.8-.1 1.3-.3 1.8-.6h1.1v6.7h1.5v1.2h-4.7v-1.3zM282.5 204.3h-3.7v-1.2h5.3v.9c-1.8 2.3-2.2 3.9-2.3 7h-1.4c0-2.9.5-4.6 2.1-6.7zM289.4 207.9l-2.4-5.1h1.5l.9 2.1c.2.6.5 1.2.7 1.8.3-.6.5-1.2.7-1.8l.9-2.1h1.5l-2.4 5.1v3h-1.4v-3zM293.6 204.9h1.2l.1 1.1c.4-.8 1.1-1.2 1.7-1.2.3 0 .5 0 .7.1l-.2 1.2c-.2-.1-.4-.1-.6-.1-.5 0-1.1.3-1.4 1.2v3.7h-1.4v-6zM297.5 207.3h2.9v1h-2.9v-1zM304.3 204.7c1.5 0 2.9 1.2 2.9 3.2s-1.4 3.2-2.9 3.2-2.9-1.2-2.9-3.2 1.4-3.2 2.9-3.2zm0 5.2c.9 0 1.4-.8 1.4-2s-.5-2-1.4-2c-.9 0-1.4.8-1.4 2s.5 2 1.4 2zM308.6 202.2h1.4v7.2c0 .3.2.5.3.5h.2l.2 1.1c-.2.1-.4.1-.8.1-1 0-1.4-.7-1.4-1.7v-7.2zM314.1 204.7c.7 0 1.1.3 1.6.7v-3.2h1.4v8.7h-1.2l-.1-.7c-.4.4-1.1.8-1.7.8-1.5 0-2.5-1.2-2.5-3.2-.1-1.9 1.2-3.1 2.5-3.1zm.3 5.2c.5 0 .9-.2 1.3-.7v-2.8c-.4-.4-.8-.5-1.2-.5-.8 0-1.4.7-1.4 2-.1 1.3.4 2 1.3 2zM318.9 209.3c.5.4 1.1.7 1.7.7.7 0 1-.3 1-.7 0-.5-.7-.7-1.3-1-.8-.3-1.7-.8-1.7-1.8 0-1.1.8-1.8 2.2-1.8.8 0 1.5.3 2 .7l-.7.9c-.4-.3-.8-.5-1.3-.5-.6 0-.9.3-.9.7 0 .5.6.7 1.3.9.8.3 1.7.7 1.7 1.8 0 1-.8 1.9-2.3 1.9-.8 0-1.7-.4-2.3-.8l.6-1z"/></g><g fill="#546E7A"><path d="M395.9 209.3h1.6v-5.1h-1.3v-.6c.6-.1 1.1-.3 1.5-.5h.7v6.2h1.4v.7h-3.9v-.7zM404.3 203.9h-3.4v-.8h4.4v.6c-1.6 2.1-2 3.7-2.1 6.3h-.9c.2-2.6.7-4.2 2-6.1zM407.1 208.8c.3 0 .6.3.6.7 0 .4-.3.7-.6.7-.4 0-.6-.3-.6-.7 0-.4.3-.7.6-.7zM409.3 209.3h1.6v-5.1h-1.3v-.6c.6-.1 1.1-.3 1.5-.5h.7v6.2h1.4v.7h-3.9v-.7zM414.2 205c0-1.4.6-2.2 1.6-2.2s1.6.8 1.6 2.2-.6 2.2-1.6 2.2c-.9.1-1.6-.8-1.6-2.2zm2.6 0c0-1.1-.4-1.7-.9-1.7-.6 0-.9.5-.9 1.7 0 1.1.4 1.7.9 1.7s.9-.6.9-1.7zm-.8 5.1l3.9-7.3h.6l-3.9 7.3h-.6zm3.2-2.2c0-1.4.6-2.2 1.6-2.2s1.6.8 1.6 2.2c0 1.4-.6 2.2-1.6 2.2s-1.6-.8-1.6-2.2zm2.5 0c0-1.1-.4-1.7-.9-1.7s-.9.6-.9 1.7.4 1.7.9 1.7.9-.6.9-1.7z"/></g><path fill="#90A4AE" stroke="#E1E1E1" stroke-width=".5" stroke-miterlimit="10" d="M255.3 193.3h171.1"/><g fill="#90A4AE"><path d="M256.4 228.9h1.4v6.8h3.3v1.2h-4.8v-8zM264.7 230.8c1.5 0 2.9 1.2 2.9 3.2s-1.4 3.2-2.9 3.2-2.9-1.2-2.9-3.2c0-2.1 1.4-3.2 2.9-3.2zm0 5.2c.9 0 1.4-.8 1.4-2s-.5-2-1.4-2c-.9 0-1.4.8-1.4 2s.5 2 1.4 2zM268.3 230.9h1.4l.7 3.1c.1.6.2 1.1.3 1.7.1-.6.2-1.2.4-1.7l.8-3.1h1.3l.8 3.1c.1.6.3 1.1.4 1.7.1-.6.2-1.2.3-1.7l.7-3.1h1.3l-1.5 6h-1.7l-.7-2.8c-.1-.6-.2-1.1-.4-1.8-.1.6-.2 1.2-.4 1.8l-.7 2.8h-1.6l-1.4-6zM280.8 228.9h1.4v8h-1.4v-8zM284.1 230.9h1.2l.1.8c.5-.5 1.2-1 2-1 1.3 0 1.9.9 1.9 2.4v3.8h-1.4v-3.6c0-1-.3-1.4-.9-1.4-.5 0-.9.3-1.4.8v4.2h-1.4v-6zM293.6 230.8c.8 0 1.4.3 1.8.7l-.7.9c-.3-.3-.6-.4-1-.4-1 0-1.6.8-1.6 2s.7 2 1.6 2c.5 0 .9-.2 1.2-.5l.6.9c-.6.5-1.3.8-2 .8-1.6 0-2.9-1.2-2.9-3.2 0-2.1 1.4-3.2 3-3.2zM298.8 230.8c1.5 0 2.9 1.2 2.9 3.2s-1.4 3.2-2.9 3.2-2.9-1.2-2.9-3.2c.1-2.1 1.4-3.2 2.9-3.2zm0 5.2c.9 0 1.4-.8 1.4-2s-.5-2-1.4-2c-.9 0-1.4.8-1.4 2s.6 2 1.4 2zM303.1 230.9h1.2l.1.8c.5-.5 1.1-1 1.8-1 .9 0 1.4.4 1.7 1.1.6-.6 1.2-1.1 1.9-1.1 1.3 0 1.9.9 1.9 2.4v3.8h-1.4v-3.6c0-1-.3-1.4-.9-1.4-.4 0-.8.2-1.3.8v4.2h-1.4v-3.6c0-1-.3-1.4-.9-1.4-.4 0-.8.2-1.3.8v4.2h-1.4v-6zM315.9 230.8c1.6 0 2.5 1.2 2.5 2.9 0 .3 0 .5-.1.7h-3.8c.1 1.1.8 1.7 1.8 1.7.5 0 1-.2 1.4-.4l.5.9c-.6.4-1.3.7-2.1.7-1.7 0-3-1.2-3-3.2 0-2.1 1.4-3.3 2.8-3.3zm1.2 2.6c0-1-.4-1.5-1.2-1.5-.7 0-1.3.5-1.5 1.5h2.7zM321.8 236.1c2.2-2.1 3.5-3.5 3.5-4.7 0-.8-.5-1.4-1.3-1.4-.6 0-1.1.4-1.5.9l-.8-.8c.7-.8 1.4-1.2 2.5-1.2 1.5 0 2.5.9 2.5 2.4 0 1.4-1.3 2.8-2.8 4.5.4 0 .9-.1 1.3-.1h1.9v1.2h-5.3v-.8zM328.2 233.4h2.9v1h-2.9v-1zM337.6 235h-1v2h-1.3v-2h-3.5v-1l3.1-4.8h1.7v4.7h1v1.1zm-2.3-1.1v-1.8c0-.5 0-1.2.1-1.6l-.6 1.2-1.4 2.2h1.9zM338.9 235.4c.5.4 1.1.7 1.7.7.7 0 1-.3 1-.7 0-.5-.7-.7-1.3-1-.8-.3-1.7-.8-1.7-1.8 0-1.1.8-1.8 2.2-1.8.8 0 1.5.3 2 .7l-.7.9c-.4-.3-.8-.5-1.3-.5-.6 0-.9.3-.9.7 0 .5.6.7 1.3.9.8.3 1.7.7 1.7 1.8 0 1-.8 1.9-2.3 1.9-.8 0-1.7-.4-2.3-.8l.6-1z"/></g><g fill="#546E7A"><path d="M395.9 235.3h1.6v-5.1h-1.3v-.6c.6-.1 1.1-.3 1.5-.5h.7v6.2h1.4v.7h-3.9v-.7zM401.2 234.6c.4.4 1 .8 1.8.8s1.4-.5 1.4-1.3-.6-1.4-2.2-1.4v-.7c1.5 0 2-.6 2-1.3 0-.7-.5-1.1-1.2-1.1-.6 0-1.1.3-1.5.7l-.5-.6c.5-.5 1.2-.9 2-.9 1.2 0 2.1.6 2.1 1.8 0 .8-.5 1.4-1.3 1.6.8.2 1.5.8 1.5 1.8 0 1.2-1 2-2.3 2-1.1 0-1.8-.5-2.3-1l.5-.4zM407.1 234.8c.3 0 .6.3.6.7 0 .4-.3.7-.6.7-.4 0-.6-.3-.6-.7 0-.4.3-.7.6-.7zM412.8 230.3c-.3-.3-.7-.5-1.1-.5-1 0-1.8.7-1.8 2.9.4-.5 1-.9 1.6-.9 1.2 0 2 .7 2 2.1 0 1.3-.9 2.2-2 2.2-1.3 0-2.4-1.1-2.4-3.3 0-2.8 1.3-3.8 2.6-3.8.7 0 1.3.3 1.7.7l-.6.6zm-.2 3.7c0-.9-.4-1.5-1.3-1.5-.4 0-1 .3-1.4.9.1 1.3.6 2.1 1.5 2.1.7 0 1.2-.6 1.2-1.5zM414.2 231.1c0-1.4.6-2.2 1.6-2.2s1.6.8 1.6 2.2-.6 2.2-1.6 2.2c-.9 0-1.6-.8-1.6-2.2zm2.6 0c0-1.1-.4-1.7-.9-1.7-.6 0-.9.5-.9 1.7 0 1.1.4 1.7.9 1.7s.9-.6.9-1.7zm-.8 5.1l3.9-7.3h.6l-3.9 7.3h-.6zm3.2-2.2c0-1.4.6-2.2 1.6-2.2s1.6.8 1.6 2.2c0 1.4-.6 2.2-1.6 2.2s-1.6-.8-1.6-2.2zm2.5 0c0-1.1-.4-1.7-.9-1.7s-.9.6-.9 1.7.4 1.7.9 1.7.9-.6.9-1.7z"/></g><path fill="#90A4AE" stroke="#E1E1E1" stroke-width=".5" stroke-miterlimit="10" d="M255.3 219.2h171.1M255.3 245.1h171.1"/><g fill="#90A4AE"><path d="M257.5 262.8h4.4v.8h-3.5v2.6h2.9v.8h-2.9v3.4h-1v-7.6zM263 264.8h1v3.5c0 1.1.3 1.5 1.1 1.5.6 0 1-.3 1.5-1v-4h1v5.7h-.8l-.1-.9c-.5.6-1.1 1-1.9 1-1.2 0-1.7-.8-1.7-2.2v-3.6zM269.4 262.2h1v7.3c0 .3.1.4.3.4h.2l.1.7c-.1.1-.3.1-.5.1-.7 0-1-.5-1-1.3v-7.2zM272.4 262.2h1v7.3c0 .3.1.4.3.4h.2l.1.7c-.1.1-.3.1-.5.1-.7 0-1-.5-1-1.3v-7.2zM277.6 269.2c.5.4 1 .7 1.7.7s1.1-.4 1.1-.9c0-.6-.7-.8-1.3-1.1-.8-.3-1.7-.7-1.7-1.6 0-.9.7-1.6 2-1.6.7 0 1.3.3 1.8.6l-.5.6c-.4-.3-.8-.5-1.3-.5-.7 0-1 .4-1 .8 0 .5.6.7 1.3 1 .8.3 1.7.6 1.7 1.7 0 .9-.7 1.7-2.1 1.7-.8 0-1.6-.3-2.1-.8l.4-.6zM282.8 265.6h-.8v-.7l.9-.1.1-1.6h.8v1.6h1.5v.8h-1.5v3.2c0 .7.2 1.1.9 1.1.2 0 .5-.1.6-.2l.2.7c-.3.1-.7.2-1.1.2-1.2 0-1.6-.8-1.6-1.9v-3.1zM289.6 266.9c0-.7-.2-1.4-1.2-1.4-.7 0-1.3.3-1.7.6l-.4-.7c.5-.3 1.3-.7 2.2-.7 1.4 0 2 .9 2 2.3v3.5h-.8l-.1-.7c-.6.4-1.2.8-1.9.8-1 0-1.7-.6-1.7-1.6.1-1.2 1.2-1.8 3.6-2.1zm-1.6 3c.6 0 1-.3 1.6-.8v-1.6c-1.9.2-2.6.7-2.6 1.4.1.7.5 1 1 1zM292.5 265.6h-.8v-.7l.9-.1.1-1.6h.8v1.6h1.5v.8h-1.5v3.2c0 .7.2 1.1.9 1.1.2 0 .5-.1.6-.2l.2.7c-.3.1-.7.2-1.1.2-1.2 0-1.6-.8-1.6-1.9v-3.1zM298.3 264.7c1.5 0 2.3 1 2.3 2.7v.5h-3.8c.1 1.2.8 2 1.9 2 .5 0 1-.2 1.4-.4l.3.6c-.5.3-1.1.6-1.9.6-1.5 0-2.7-1.1-2.7-3s1.2-3 2.5-3zm1.5 2.5c0-1.2-.5-1.8-1.4-1.8-.8 0-1.5.7-1.6 1.8h3zM304.4 262.2h1v3.3c.5-.5 1.1-.8 1.8-.8 1.5 0 2.3 1.1 2.3 2.9 0 1.9-1.2 3.1-2.5 3.1-.5 0-1.1-.3-1.6-.7l-.1.6h-.8v-8.4zm2.3 7.6c.9 0 1.6-.9 1.6-2.3 0-1.3-.4-2.1-1.5-2.1-.5 0-1 .3-1.5.8v3c.5.5 1.1.6 1.4.6zM310.9 264.8h.8l.1 1c.4-.7 1-1.2 1.6-1.2.2 0 .4 0 .6.1l-.2.8c-.2-.1-.3-.1-.6-.1-.5 0-1.1.4-1.4 1.3v3.7h-1v-5.6zM314.8 263c0-.4.3-.6.7-.6s.7.2.7.6c0 .4-.3.6-.7.6s-.7-.2-.7-.6zm.1 1.8h1v5.7h-1v-5.7zM319.9 264.7c1.5 0 2.3 1 2.3 2.7v.5h-3.8c.1 1.2.8 2 1.9 2 .5 0 1-.2 1.4-.4l.3.6c-.5.3-1.1.6-1.9.6-1.5 0-2.7-1.1-2.7-3s1.2-3 2.5-3zm1.5 2.5c0-1.2-.5-1.8-1.4-1.8-.8 0-1.5.7-1.6 1.8h3zM326.2 262.9c-.2-.1-.4-.1-.6-.1-.5 0-.8.4-.8 1.1v.9h1.2v.8h-1.2v4.9h-1v-4.9h-.8v-.7l.8-.1v-.9c0-1.2.5-1.9 1.7-1.9.4 0 .7.1.9.2l-.2.7zM256.5 272v-.6h69.6v.6h-69.6z"/></g><path fill="#BDBDBD" d="M307.7 36.9v7.5h11.7l6.2 6.2h6.2l4.8-4.8 8.2 8.2v7.3l5.8 5.8v6.2l6.5 6.5 4.5 4.5h7V62.8l-7.8-7.7v-5.6l-6.6-6.6v-6h-31.6z"/></g><g><path fill="#FFF" d="M470.1 0h211.5v302H470.1z"/><path fill="#A6273C" d="M646.6 0h35.1v35.1h-35.1z"/><g fill="#EDEDED"><path d="M657 20.1c.5.6 1.3 1.1 2.3 1.1 1.1 0 1.9-.7 1.9-1.7 0-1.1-.7-1.8-2.9-1.8v-.9c2 0 2.6-.8 2.6-1.7 0-.9-.6-1.5-1.6-1.5-.8 0-1.4.4-2 .9l-.6-.8c.7-.7 1.6-1.2 2.6-1.2 1.6 0 2.8.8 2.8 2.3 0 1.1-.7 1.8-1.7 2.2v.1c1.1.3 2 1.1 2 2.3 0 1.6-1.3 2.6-3 2.6-1.5 0-2.4-.6-3-1.3l.6-.6zM667.1 19.3l-1.3-2.3h-.8v2.3h-1v-5.9h2c1.2 0 2.2.4 2.2 1.7 0 .9-.5 1.4-1.2 1.7l1.4 2.5h-1.3zm-2.1-3.2h.8c.8 0 1.2-.3 1.2-1s-.4-.9-1.2-.9h-.8v1.9zM669.3 13.4h1.6c1.8 0 2.9 1 2.9 2.9 0 2-1.1 3-2.8 3h-1.6v-5.9zm1.5 5c1.2 0 1.9-.7 1.9-2.1 0-1.4-.7-2.1-1.9-2.1h-.5v4.2h.5z"/></g><g fill="#184D5B"><path d="M530.2 101.7h2.1l2.7 7.4 1 2.8h.1l1-2.8 2.6-7.4h2.1v13.8H540v-7.6c0-1.2.1-2.9.2-4.1h-.1l-1.1 3.1-2.6 7.2h-1l-2.7-7.2-1.1-3.1h-.1c.1 1.2.2 2.9.2 4.1v7.6h-1.6v-13.8zM545 102.1c0-.7.5-1.1 1.2-1.1s1.2.4 1.2 1.1c0 .7-.5 1.1-1.2 1.1s-1.2-.5-1.2-1.1zm.3 3.2h1.7v10.2h-1.7v-10.2zM550.4 105.3h1.4l.1 1.5h.1c1-1 2-1.7 3.4-1.7 2.1 0 3.1 1.4 3.1 4v6.5h-1.7v-6.2c0-1.9-.6-2.7-1.9-2.7-1 0-1.8.5-2.8 1.6v7.4h-1.7v-10.4zM561.9 105.3h1.4l.1 1.5h.1c1-1 2-1.7 3.4-1.7 2.1 0 3.1 1.4 3.1 4v6.5h-1.7v-6.2c0-1.9-.6-2.7-1.9-2.7-1 0-1.8.5-2.8 1.6v7.4h-1.7v-10.4zM577.2 105c2.6 0 4.1 1.9 4.1 4.8 0 .4 0 .7-.1.9h-6.9c.1 2.2 1.4 3.6 3.4 3.6 1 0 1.8-.3 2.5-.8l.6 1.1c-.9.6-2 1.1-3.4 1.1-2.7 0-4.9-2-4.9-5.3.2-3.3 2.4-5.4 4.7-5.4zm2.6 4.6c0-2.1-.9-3.2-2.5-3.2-1.4 0-2.7 1.2-2.9 3.2h5.4zM583.6 113.2c.9.7 1.8 1.2 3 1.2 1.3 0 2-.7 2-1.6 0-1.1-1.2-1.5-2.3-1.9-1.4-.5-3-1.2-3-2.9 0-1.6 1.3-2.9 3.5-2.9 1.3 0 2.4.5 3.2 1.2l-.8 1.1c-.7-.5-1.4-.9-2.3-.9-1.3 0-1.9.7-1.9 1.5 0 1 1.1 1.3 2.3 1.8 1.5.5 3.1 1.2 3.1 3.1 0 1.7-1.3 3-3.7 3-1.4 0-2.8-.6-3.8-1.4l.7-1.3zM596.6 105c2.5 0 4.7 2 4.7 5.4 0 3.4-2.2 5.3-4.7 5.3s-4.7-2-4.7-5.3c0-3.4 2.2-5.4 4.7-5.4zm0 9.3c1.8 0 2.9-1.6 2.9-3.9 0-2.4-1.2-3.9-2.9-3.9s-2.9 1.6-2.9 3.9 1.2 3.9 2.9 3.9zM604.3 106.7h-1.5v-1.3l1.6-.1.2-2.9h1.4v2.9h2.8v1.4H606v5.7c0 1.3.4 2 1.6 2 .4 0 .8-.1 1.2-.3l.3 1.3c-.6.2-1.3.4-1.9.4-2.2 0-2.9-1.4-2.9-3.4v-5.7zM616.5 109c0-1.3-.4-2.6-2.1-2.6-1.2 0-2.2.5-3 1.1l-.7-1.2c.9-.6 2.4-1.3 4-1.3 2.5 0 3.5 1.7 3.5 4.2v6.3h-1.4l-.1-1.2c-1 .8-2.1 1.5-3.4 1.5-1.7 0-3-1.1-3-2.9-.1-2.3 1.9-3.4 6.2-3.9zm-2.8 5.4c1 0 1.8-.5 2.8-1.4v-2.8c-3.4.4-4.6 1.3-4.6 2.6 0 1.1.8 1.6 1.8 1.6z"/></g><g fill="#90A4AE"><path d="M491.4 176.1h1.4v3.2h3.3v-3.2h1.4v8h-1.4v-3.6h-3.3v3.6h-1.4v-8zM499.3 176.3c0-.5.4-.8.9-.8s.9.3.9.8-.4.8-.9.8-.9-.4-.9-.8zm.1 1.8h1.4v6h-1.4v-6zM503.1 184c-.3-.2-.5-.6-.5-1.1 0-.5.3-.9.7-1.1-.4-.3-.8-.9-.8-1.6 0-1.4 1.1-2.2 2.4-2.2.3 0 .6.1.9.1h2.2v1h-1.1c.2.2.3.6.3 1 0 1.3-1 2.1-2.3 2.1-.3 0-.6 0-.8-.2-.2.2-.3.3-.3.6s.2.6 1 .6h1.1c1.5 0 2.2.4 2.2 1.5 0 1.2-1.3 2.1-3.2 2.1-1.4 0-2.5-.5-2.5-1.6-.1-.4.2-.9.7-1.2zm1.9 1.9c1 0 1.6-.5 1.6-1s-.4-.6-1.1-.6h-.8c-.3 0-.6 0-.8-.1-.3.2-.5.5-.5.8 0 .6.6.9 1.6.9zm.9-5.7c0-.8-.5-1.2-1-1.2s-1.1.4-1.1 1.2c0 .8.5 1.2 1.1 1.2.5 0 1-.5 1-1.2zM509.1 175.5h1.4V178.9c.5-.5 1.1-.9 1.9-.9 1.3 0 1.9.9 1.9 2.4v3.8h-1.4v-3.6c0-1-.3-1.4-.9-1.4-.5 0-.9.3-1.4.8v4.2h-1.4v-8.7zM518.8 182.2c.6.5 1.4.9 2.1.9.9 0 1.4-.4 1.4-1 0-.7-.5-.9-1.2-1.2l-1.1-.5c-.8-.3-1.6-1-1.6-2.1 0-1.3 1.1-2.3 2.7-2.3.9 0 1.8.4 2.5 1l-.7.9c-.5-.4-1.1-.7-1.7-.7-.8 0-1.3.4-1.3.9 0 .6.6.9 1.3 1.1l1.1.5c.9.4 1.6 1 1.6 2.2 0 1.3-1.1 2.4-2.9 2.4-1.1 0-2.1-.4-2.9-1.2l.7-.9zM527.8 178c.8 0 1.4.3 1.8.7l-.7.9c-.3-.3-.6-.4-1-.4-1 0-1.6.8-1.6 2s.7 2 1.6 2c.5 0 .9-.2 1.2-.5l.6.9c-.6.5-1.3.8-2 .8-1.6 0-2.9-1.2-2.9-3.2-.1-2.1 1.4-3.2 3-3.2zM530.8 175.5h1.4V178.9c.5-.5 1.1-.9 1.9-.9 1.3 0 1.9.9 1.9 2.4v3.8h-1.4v-3.6c0-1-.3-1.4-.9-1.4-.5 0-.9.3-1.4.8v4.2h-1.4v-8.7zM540.2 178c1.5 0 2.9 1.2 2.9 3.2s-1.4 3.2-2.9 3.2-2.9-1.2-2.9-3.2c0-2.1 1.4-3.2 2.9-3.2zm0 5.2c.9 0 1.4-.8 1.4-2s-.5-2-1.4-2c-.9 0-1.4.8-1.4 2-.1 1.2.5 2 1.4 2zM546.9 178c1.5 0 2.9 1.2 2.9 3.2s-1.4 3.2-2.9 3.2-2.9-1.2-2.9-3.2c0-2.1 1.4-3.2 2.9-3.2zm0 5.2c.9 0 1.4-.8 1.4-2s-.5-2-1.4-2c-.9 0-1.4.8-1.4 2s.5 2 1.4 2zM551.2 175.5h1.4v7.2c0 .3.2.5.3.5h.2l.2 1.1c-.2.1-.4.1-.8.1-1 0-1.4-.7-1.4-1.7v-7.2zM556.9 178c1.6 0 2.5 1.2 2.5 2.9 0 .3 0 .5-.1.7h-3.8c.1 1.1.8 1.7 1.8 1.7.5 0 1-.2 1.4-.4l.5.9c-.6.4-1.3.7-2.1.7-1.7 0-3-1.2-3-3.2 0-2.1 1.4-3.3 2.8-3.3zm1.3 2.6c0-1-.4-1.5-1.2-1.5-.7 0-1.3.5-1.5 1.5h2.7zM560.7 178.1h1.2l.1 1.1c.4-.8 1.1-1.2 1.7-1.2.3 0 .5 0 .7.1l-.2 1.2c-.2-.1-.4-.1-.6-.1-.5 0-1.1.3-1.4 1.2v3.7h-1.4v-6zM565.3 182.6c.5.4 1.1.7 1.7.7.7 0 1-.3 1-.7 0-.5-.7-.7-1.3-1-.8-.3-1.7-.8-1.7-1.8 0-1.1.8-1.8 2.2-1.8.8 0 1.5.3 2 .7l-.7.9c-.4-.3-.8-.5-1.3-.5-.6 0-.9.3-.9.7 0 .5.6.7 1.3.9.8.3 1.7.7 1.7 1.8 0 1-.8 1.9-2.3 1.9-.8 0-1.7-.4-2.3-.8l.6-1z"/></g><g fill="#546E7A"><path d="M631 182.5h1.6v-5.1h-1.3v-.6c.6-.1 1.1-.3 1.5-.5h.7v6.2h1.4v.7H631v-.7zM639.4 177.2H636v-.8h4.4v.6c-1.6 2.1-2 3.7-2.1 6.3h-.9c.1-2.6.6-4.3 2-6.1zM642.2 182c.3 0 .6.3.6.7 0 .4-.3.7-.6.7-.4 0-.6-.3-.6-.7 0-.4.2-.7.6-.7zM644.4 182.5h1.6v-5.1h-1.3v-.6c.6-.1 1.1-.3 1.5-.5h.7v6.2h1.4v.7h-3.9v-.7zM649.3 178.3c0-1.4.6-2.2 1.6-2.2s1.6.8 1.6 2.2-.6 2.2-1.6 2.2-1.6-.8-1.6-2.2zm2.5 0c0-1.1-.4-1.7-.9-1.7-.6 0-.9.5-.9 1.7 0 1.1.4 1.7.9 1.7.6 0 .9-.6.9-1.7zm-.7 5.1l3.9-7.3h.6l-3.9 7.3h-.6zm3.1-2.2c0-1.4.6-2.2 1.6-2.2s1.6.8 1.6 2.2c0 1.4-.6 2.2-1.6 2.2-.9 0-1.6-.8-1.6-2.2zm2.6 0c0-1.1-.4-1.7-.9-1.7s-.9.6-.9 1.7.4 1.7.9 1.7.9-.6.9-1.7z"/></g><g fill="#455A64"><path d="M496.9 150.4h-3.7l-.9 3h-2l3.6-11h2.3l3.6 11h-2.1l-.8-3zm-.4-1.6l-.4-1.3c-.4-1.2-.7-2.4-1-3.6h-.1c-.3 1.2-.6 2.5-1 3.6l-.4 1.3h2.9zM504 144.9c.9 0 1.5.4 2.2.9l-.1-1.3v-3h1.9v11.9h-1.6l-.1-.9h-.1c-.6.6-1.4 1.1-2.3 1.1-2.1 0-3.4-1.6-3.4-4.3 0-2.8 1.7-4.4 3.5-4.4zm.4 7c.6 0 1.2-.3 1.7-.9v-3.9c-.6-.5-1.1-.7-1.7-.7-1.1 0-1.9 1-1.9 2.7 0 1.9.7 2.8 1.9 2.8zM510.4 145.1h1.9v4.9c0 1.4.4 1.9 1.3 1.9.7 0 1.2-.3 1.8-1.1v-5.7h1.9v8.3h-1.6l-.2-1.2h-.1c-.7.9-1.5 1.4-2.7 1.4-1.8 0-2.5-1.2-2.5-3.3v-5.2zM519.9 141.5h1.9v9.9c0 .5.2.6.4.6h.3l.3 1.4c-.2.1-.6.2-1 .2-1.4 0-1.9-.9-1.9-2.3v-9.8zM524.7 146.6h-1.2v-1.4l1.3-.1.2-2.3h1.6v2.3h2.1v1.5h-2.1v3.9c0 1 .4 1.4 1.2 1.4.3 0 .6-.1.9-.2l.3 1.4c-.5.2-1 .3-1.7.3-1.9 0-2.6-1.2-2.6-3v-3.8zM530.6 151.1c.7.6 1.4.9 2.3.9.9 0 1.3-.4 1.3-1 0-.7-.9-1-1.8-1.3-1.1-.4-2.3-1-2.3-2.4s1.2-2.5 3-2.5c1.1 0 2.1.5 2.7 1l-.8 1.2c-.6-.4-1.2-.7-1.8-.7-.8 0-1.2.4-1.2.9 0 .7.8.9 1.7 1.2 1.1.4 2.4 1 2.4 2.5 0 1.4-1.1 2.6-3.2 2.6-1.1 0-2.3-.5-3.1-1.1l.8-1.3z"/></g><g fill="#546E7A"><path d="M616.9 151.1c.6.7 1.5 1.3 2.7 1.3 1.3 0 2.2-.8 2.2-2 0-1.3-.9-2.1-3.4-2.1v-1.1c2.3 0 3-.9 3-2 0-1-.7-1.7-1.9-1.7-.9 0-1.6.5-2.3 1.1l-.7-.9c.8-.8 1.8-1.3 3.1-1.3 1.9 0 3.2 1 3.2 2.7 0 1.3-.8 2.1-2 2.6v.1c1.3.3 2.3 1.2 2.3 2.7 0 1.9-1.6 3.1-3.5 3.1-1.7 0-2.8-.7-3.5-1.5l.8-1zM624.8 147.9c0-3.6 1.3-5.5 3.5-5.5 2.1 0 3.4 1.9 3.4 5.5s-1.3 5.6-3.4 5.6c-2.2 0-3.5-2-3.5-5.6zm5.6 0c0-3.1-.8-4.4-2.1-4.4s-2.1 1.3-2.1 4.4c0 3.1.8 4.5 2.1 4.5 1.2 0 2.1-1.3 2.1-4.5zM634.5 151.4c.5 0 1 .4 1 1.1 0 .6-.5 1-1 1-.6 0-1-.4-1-1s.5-1.1 1-1.1zM638.3 151.5c.4.5 1.1.9 1.8.9 1.5 0 2.8-1.2 2.8-4.6-.7.9-1.6 1.4-2.5 1.4-1.9 0-3-1.1-3-3.3 0-2.1 1.4-3.5 3.2-3.5 2.1 0 3.7 1.7 3.7 5.2 0 4.3-2 6-4.1 6-1.1 0-2-.5-2.6-1.1l.7-1zm4.5-4.8c-.2-2.1-1-3.2-2.4-3.2-1 0-1.9.9-1.9 2.4 0 1.4.7 2.3 2 2.3.8-.1 1.6-.5 2.3-1.5zM645.6 145.6c0-2.2 1-3.5 2.5-3.5s2.5 1.2 2.5 3.5c0 2.2-1 3.5-2.5 3.5s-2.5-1.3-2.5-3.5zm3.9 0c0-1.8-.6-2.6-1.4-2.6-.9 0-1.5.8-1.5 2.6s.6 2.6 1.5 2.6 1.4-.9 1.4-2.6zm-1.1 7.9l6.1-11.4h.9l-6.1 11.4h-.9zm4.9-3.5c0-2.2 1-3.5 2.5-3.5s2.5 1.3 2.5 3.5-1 3.5-2.5 3.5-2.5-1.2-2.5-3.5zm3.9 0c0-1.8-.6-2.6-1.4-2.6-.9 0-1.5.9-1.5 2.6s.6 2.6 1.5 2.6c.9.1 1.4-.8 1.4-2.6z"/></g><path fill="#90A4AE" stroke="#E1E1E1" stroke-width=".5" stroke-miterlimit="10" d="M490.4 167.3h171"/><g fill="#90A4AE"><path d="M491.3 209.8h1.7v-5.1h-1.4v-.9c.8-.1 1.3-.3 1.8-.6h1.1v6.7h1.5v1.2h-4.7v-1.3zM497.2 207c0-2.6 1-4 2.7-4s2.7 1.4 2.7 4-1 4.1-2.7 4.1-2.7-1.5-2.7-4.1zm4 0c0-2.2-.5-2.9-1.3-2.9s-1.3.7-1.3 2.9.6 3 1.3 3c.7 0 1.3-.8 1.3-3zM503.5 207.3h2.9v1h-2.9v-1zM507.9 209.8h1.7v-5.1h-1.4v-.9c.8-.1 1.3-.3 1.8-.6h1.1v6.7h1.5v1.2h-4.7v-1.3zM517.5 204.3h-3.7v-1.2h5.3v.9c-1.8 2.3-2.2 3.9-2.3 7h-1.4c.1-2.9.6-4.6 2.1-6.7zM524.5 207.9l-2.4-5.1h1.5l.9 2.1c.2.6.5 1.2.7 1.8.3-.6.5-1.2.7-1.8l.9-2.1h1.5l-2.4 5.1v3h-1.4v-3zM528.7 204.9h1.2l.1 1.1c.4-.8 1.1-1.2 1.7-1.2.3 0 .5 0 .7.1l-.2 1.2c-.2-.1-.4-.1-.6-.1-.5 0-1.1.3-1.4 1.2v3.7h-1.4v-6zM532.6 207.3h2.9v1h-2.9v-1zM539.4 204.7c1.5 0 2.9 1.2 2.9 3.2s-1.4 3.2-2.9 3.2-2.9-1.2-2.9-3.2 1.4-3.2 2.9-3.2zm0 5.2c.9 0 1.4-.8 1.4-2s-.5-2-1.4-2-1.4.8-1.4 2 .5 2 1.4 2zM543.6 202.2h1.4v7.2c0 .3.2.5.3.5h.2l.2 1.1c-.2.1-.4.1-.8.1-1 0-1.4-.7-1.4-1.7v-7.2zM549.2 204.7c.7 0 1.1.3 1.6.7v-3.2h1.4v8.7H551l-.1-.7c-.4.4-1.1.8-1.7.8-1.5 0-2.5-1.2-2.5-3.2-.1-1.9 1.1-3.1 2.5-3.1zm.2 5.2c.5 0 .9-.2 1.3-.7v-2.8c-.4-.4-.8-.5-1.2-.5-.8 0-1.4.7-1.4 2s.5 2 1.3 2zM554 209.3c.5.4 1.1.7 1.7.7.7 0 1-.3 1-.7 0-.5-.7-.7-1.3-1-.8-.3-1.7-.8-1.7-1.8 0-1.1.8-1.8 2.2-1.8.8 0 1.5.3 2 .7l-.7.9c-.4-.3-.8-.5-1.3-.5-.6 0-.9.3-.9.7 0 .5.6.7 1.3.9.8.3 1.7.7 1.7 1.8 0 1-.8 1.9-2.3 1.9-.8 0-1.7-.4-2.3-.8l.6-1z"/></g><g fill="#546E7A"><path d="M631 209.3h1.6v-5.1h-1.3v-.6c.6-.1 1.1-.3 1.5-.5h.7v6.2h1.4v.7H631v-.7zM637.2 206.4c-.5-.4-1-.9-1-1.6 0-1.1.8-1.8 2-1.8s1.9.8 1.9 1.8c0 .7-.5 1.3-1 1.7.6.4 1.2.8 1.2 1.8s-.9 1.8-2.2 1.8c-1.3 0-2.3-.8-2.3-1.9.1-.8.8-1.5 1.4-1.8zm1 3.1c.8 0 1.4-.5 1.4-1.2 0-.9-.9-1.2-1.9-1.6-.6.4-1 .9-1 1.5 0 .7.7 1.3 1.5 1.3zm1.2-4.6c0-.7-.4-1.2-1.2-1.2-.6 0-1.1.4-1.1 1.1 0 .8.8 1.2 1.6 1.5.4-.5.7-.9.7-1.4zM642.2 208.8c.3 0 .6.3.6.7 0 .4-.3.7-.6.7-.4 0-.6-.3-.6-.7 0-.4.2-.7.6-.7zM644.6 208.9c.3.3.7.6 1.1.6 1 0 1.8-.8 1.8-3-.4.6-1 .9-1.6.9-1.2 0-2-.7-2-2.1 0-1.3.9-2.2 2-2.2 1.4 0 2.4 1.1 2.4 3.3 0 2.8-1.3 3.8-2.6 3.8-.7 0-1.3-.3-1.7-.7l.6-.6zm2.9-3.2c-.1-1.3-.6-2.1-1.5-2.1-.7 0-1.2.6-1.2 1.5s.4 1.5 1.3 1.5c.4.1 1-.2 1.4-.9zM649.3 205c0-1.4.6-2.2 1.6-2.2s1.6.8 1.6 2.2-.6 2.2-1.6 2.2c-1 .1-1.6-.8-1.6-2.2zm2.5 0c0-1.1-.4-1.7-.9-1.7-.6 0-.9.5-.9 1.7 0 1.1.4 1.7.9 1.7.6 0 .9-.6.9-1.7zm-.7 5.1l3.9-7.3h.6l-3.9 7.3h-.6zm3.1-2.2c0-1.4.6-2.2 1.6-2.2s1.6.8 1.6 2.2c0 1.4-.6 2.2-1.6 2.2-.9 0-1.6-.8-1.6-2.2zm2.6 0c0-1.1-.4-1.7-.9-1.7s-.9.6-.9 1.7.4 1.7.9 1.7.9-.6.9-1.7z"/></g><path fill="#90A4AE" stroke="#E1E1E1" stroke-width=".5" stroke-miterlimit="10" d="M490.4 193.3h171"/><g fill="#90A4AE"><path d="M491.4 228.9h1.4v6.8h3.3v1.2h-4.8v-8zM499.8 230.8c1.5 0 2.9 1.2 2.9 3.2s-1.4 3.2-2.9 3.2-2.9-1.2-2.9-3.2c0-2.1 1.4-3.2 2.9-3.2zm0 5.2c.9 0 1.4-.8 1.4-2s-.5-2-1.4-2c-.9 0-1.4.8-1.4 2s.5 2 1.4 2zM503.4 230.9h1.4l.7 3.1c.1.6.2 1.1.3 1.7.1-.6.2-1.2.4-1.7l.8-3.1h1.3l.8 3.1c.1.6.3 1.1.4 1.7.1-.6.2-1.2.3-1.7l.7-3.1h1.3l-1.5 6h-1.7l-.7-2.8c-.1-.6-.2-1.1-.4-1.8-.1.6-.2 1.2-.4 1.8l-.7 2.8H505l-1.6-6zM515.8 228.9h1.4v8h-1.4v-8zM519.2 230.9h1.2l.1.8c.5-.5 1.2-1 2-1 1.3 0 1.9.9 1.9 2.4v3.8H523v-3.6c0-1-.3-1.4-.9-1.4-.5 0-.9.3-1.4.8v4.2h-1.4v-6zM528.7 230.8c.8 0 1.4.3 1.8.7l-.7.9c-.3-.3-.6-.4-1-.4-1 0-1.6.8-1.6 2s.7 2 1.6 2c.5 0 .9-.2 1.2-.5l.6.9c-.6.5-1.3.8-2 .8-1.6 0-2.9-1.2-2.9-3.2 0-2.1 1.4-3.2 3-3.2zM533.9 230.8c1.5 0 2.9 1.2 2.9 3.2s-1.4 3.2-2.9 3.2-2.9-1.2-2.9-3.2c0-2.1 1.4-3.2 2.9-3.2zm0 5.2c.9 0 1.4-.8 1.4-2s-.5-2-1.4-2c-.9 0-1.4.8-1.4 2s.5 2 1.4 2zM538.2 230.9h1.2l.1.8c.5-.5 1.1-1 1.8-1 .9 0 1.4.4 1.7 1.1.6-.6 1.2-1.1 1.9-1.1 1.3 0 1.9.9 1.9 2.4v3.8h-1.4v-3.6c0-1-.3-1.4-.9-1.4-.4 0-.8.2-1.3.8v4.2h-1.4v-3.6c0-1-.3-1.4-.9-1.4-.4 0-.8.2-1.3.8v4.2h-1.4v-6zM550.9 230.8c1.6 0 2.5 1.2 2.5 2.9 0 .3 0 .5-.1.7h-3.8c.1 1.1.8 1.7 1.8 1.7.5 0 1-.2 1.4-.4l.5.9c-.6.4-1.3.7-2.1.7-1.7 0-3-1.2-3-3.2.1-2.1 1.4-3.3 2.8-3.3zm1.3 2.6c0-1-.4-1.5-1.2-1.5-.7 0-1.3.5-1.5 1.5h2.7zM556.9 236.1c2.2-2.1 3.5-3.5 3.5-4.7 0-.8-.5-1.4-1.3-1.4-.6 0-1.1.4-1.5.9l-.8-.8c.7-.8 1.4-1.2 2.5-1.2 1.5 0 2.5.9 2.5 2.4 0 1.4-1.3 2.8-2.8 4.5.4 0 .9-.1 1.3-.1h1.9v1.2h-5.3v-.8zM563.2 233.4h2.9v1h-2.9v-1zM572.7 235h-1v2h-1.3v-2h-3.5v-1l3.1-4.8h1.7v4.7h1v1.1zm-2.4-1.1v-1.8c0-.5 0-1.2.1-1.6l-.6 1.2-1.4 2.2h1.9zM573.9 235.4c.5.4 1.1.7 1.7.7.7 0 1-.3 1-.7 0-.5-.7-.7-1.3-1-.8-.3-1.7-.8-1.7-1.8 0-1.1.8-1.8 2.2-1.8.8 0 1.5.3 2 .7l-.7.9c-.4-.3-.8-.5-1.3-.5-.6 0-.9.3-.9.7 0 .5.6.7 1.3.9.8.3 1.7.7 1.7 1.8 0 1-.8 1.9-2.3 1.9-.8 0-1.7-.4-2.3-.8l.6-1z"/></g><g fill="#546E7A"><path d="M631 235.3h1.6v-5.1h-1.3v-.6c.6-.1 1.1-.3 1.5-.5h.7v6.2h1.4v.7H631v-.7zM636.5 234.9c.3.3.7.6 1.1.6 1 0 1.8-.8 1.8-3-.4.6-1 .9-1.6.9-1.2 0-2-.7-2-2.1 0-1.3.9-2.2 2-2.2 1.4 0 2.4 1.1 2.4 3.3 0 2.8-1.3 3.8-2.6 3.8-.7 0-1.3-.3-1.7-.7l.6-.6zm3-3.1c-.1-1.3-.6-2.1-1.5-2.1-.7 0-1.2.6-1.2 1.5s.4 1.5 1.3 1.5c.4 0 .9-.2 1.4-.9zM642.2 234.8c.3 0 .6.3.6.7 0 .4-.3.7-.6.7-.4 0-.6-.3-.6-.7 0-.4.2-.7.6-.7zM644.3 234.6c.4.4 1 .8 1.8.8s1.4-.5 1.4-1.3-.6-1.4-2.2-1.4v-.7c1.5 0 2-.6 2-1.3 0-.7-.5-1.1-1.2-1.1-.6 0-1.1.3-1.5.7l-.5-.6c.5-.5 1.2-.9 2-.9 1.2 0 2.1.6 2.1 1.8 0 .8-.5 1.4-1.3 1.6.8.2 1.5.8 1.5 1.8 0 1.2-1 2-2.3 2-1.1 0-1.8-.5-2.3-1l.5-.4zM649.3 231.1c0-1.4.6-2.2 1.6-2.2s1.6.8 1.6 2.2-.6 2.2-1.6 2.2-1.6-.8-1.6-2.2zm2.5 0c0-1.1-.4-1.7-.9-1.7-.6 0-.9.5-.9 1.7 0 1.1.4 1.7.9 1.7.6 0 .9-.6.9-1.7zm-.7 5.1l3.9-7.3h.6l-3.9 7.3h-.6zm3.1-2.2c0-1.4.6-2.2 1.6-2.2s1.6.8 1.6 2.2c0 1.4-.6 2.2-1.6 2.2-.9 0-1.6-.8-1.6-2.2zm2.6 0c0-1.1-.4-1.7-.9-1.7s-.9.6-.9 1.7.4 1.7.9 1.7.9-.6.9-1.7z"/></g><path fill="#90A4AE" stroke="#E1E1E1" stroke-width=".5" stroke-miterlimit="10" d="M490.4 219.2h171M490.4 245.1h171"/><g fill="#90A4AE"><path d="M492.6 262.8h4.4v.8h-3.5v2.6h2.9v.8h-2.9v3.4h-1v-7.6zM498 264.8h1v3.5c0 1.1.3 1.5 1.1 1.5.6 0 1-.3 1.5-1v-4h1v5.7h-.8l-.1-.9c-.5.6-1.1 1-1.9 1-1.2 0-1.7-.8-1.7-2.2v-3.6zM504.5 262.2h1v7.3c0 .3.1.4.3.4h.2l.1.7c-.1.1-.3.1-.6.1-.7 0-1-.5-1-1.3v-7.2zM507.5 262.2h1v7.3c0 .3.1.4.3.4h.2l.1.7c-.1.1-.3.1-.5.1-.7 0-1-.5-1-1.3v-7.2zM512.6 269.2c.5.4 1 .7 1.7.7s1.1-.4 1.1-.9c0-.6-.7-.8-1.3-1.1-.8-.3-1.7-.7-1.7-1.6 0-.9.7-1.6 2-1.6.7 0 1.3.3 1.8.6l-.5.6c-.4-.3-.8-.5-1.3-.5-.7 0-1 .4-1 .8 0 .5.6.7 1.3 1 .8.3 1.7.6 1.7 1.7 0 .9-.7 1.7-2.1 1.7-.8 0-1.6-.3-2.1-.8l.4-.6zM517.9 265.6h-.9v-.7l.9-.1.1-1.6h.8v1.6h1.5v.8h-1.5v3.2c0 .7.2 1.1.9 1.1.2 0 .5-.1.6-.2l.2.7c-.3.1-.7.2-1.1.2-1.2 0-1.6-.8-1.6-1.9v-3.1zM524.7 266.9c0-.7-.2-1.4-1.2-1.4-.7 0-1.3.3-1.7.6l-.4-.7c.5-.3 1.3-.7 2.2-.7 1.4 0 2 .9 2 2.3v3.5h-.8l-.1-.7c-.5.4-1.2.8-1.9.8-1 0-1.7-.6-1.7-1.6.1-1.2 1.1-1.8 3.6-2.1zm-1.6 3c.5 0 1-.3 1.6-.8v-1.6c-1.9.2-2.6.7-2.6 1.4s.4 1 1 1zM527.6 265.6h-.8v-.7l.9-.1.1-1.6h.8v1.6h1.5v.8h-1.5v3.2c0 .7.2 1.1.9 1.1.2 0 .5-.1.6-.2l.2.7c-.3.1-.7.2-1.1.2-1.2 0-1.6-.8-1.6-1.9v-3.1zM533.4 264.7c1.5 0 2.3 1 2.3 2.7v.5h-3.8c.1 1.2.8 2 1.9 2 .5 0 1-.2 1.4-.4l.3.6c-.5.3-1.1.6-1.9.6-1.5 0-2.7-1.1-2.7-3s1.2-3 2.5-3zm1.4 2.5c0-1.2-.5-1.8-1.4-1.8-.8 0-1.5.7-1.6 1.8h3zM539.4 262.2h1v3.3c.5-.5 1.1-.8 1.8-.8 1.5 0 2.3 1.1 2.3 2.9 0 1.9-1.2 3.1-2.5 3.1-.5 0-1.1-.3-1.6-.7l-.1.6h-.8v-8.4zm2.4 7.6c.9 0 1.6-.9 1.6-2.3 0-1.3-.4-2.1-1.5-2.1-.5 0-1 .3-1.5.8v3c.5.5 1 .6 1.4.6zM545.9 264.8h.8l.1 1c.4-.7 1-1.2 1.6-1.2.2 0 .4 0 .6.1l-.2.8c-.2-.1-.3-.1-.6-.1-.5 0-1.1.4-1.4 1.3v3.7h-1v-5.6zM549.8 263c0-.4.3-.6.7-.6s.7.2.7.6c0 .4-.3.6-.7.6s-.7-.2-.7-.6zm.2 1.8h1v5.7h-1v-5.7zM555 264.7c1.5 0 2.3 1 2.3 2.7v.5h-3.8c.1 1.2.8 2 1.9 2 .5 0 1-.2 1.4-.4l.3.6c-.5.3-1.1.6-1.9.6-1.5 0-2.7-1.1-2.7-3s1.2-3 2.5-3zm1.4 2.5c0-1.2-.5-1.8-1.4-1.8-.8 0-1.5.7-1.6 1.8h3zM561.2 262.9c-.2-.1-.4-.1-.6-.1-.5 0-.8.4-.8 1.1v.9h1.2v.8h-1.2v4.9h-1v-4.9h-.8v-.7l.8-.1v-.9c0-1.2.5-1.9 1.7-1.9.4 0 .7.1.9.2l-.2.7zM491.5 272v-.6h69.6v.6h-69.6z"/></g><path fill="#BDBDBD" d="M559.5 84.8h26.9v-7.7l-5.7-5.6v-6.1l4.3-4.2h-.6v-5.3L595.3 45l-10.3.2-3.3-3.3h-7.4l-5.5-5.4h-9.3v22.9z"/></g></svg>