<?xml version="1.0" encoding="utf-8"?>
<!-- Generator: Adobe Illustrator 16.0.0, SVG Export Plug-In . SVG Version: 6.00 Build 0)  -->
<!DOCTYPE svg PUBLIC "-//W3C//DTD SVG 1.1//EN" "http://www.w3.org/Graphics/SVG/1.1/DTD/svg11.dtd">
<svg version="1.1" id="Layer_1" xmlns="http://www.w3.org/2000/svg" xmlns:xlink="http://www.w3.org/1999/xlink" x="0px" y="0px"
	 width="518.7px" height="453.9px" viewBox="0 0 518.7 453.9" enable-background="new 0 0 518.7 453.9" xml:space="preserve">
<g>
	<polygon fill="none" stroke="#6F7F84" stroke-width="7.2114" stroke-miterlimit="10" points="402.8,378.4 314.8,378.4 322,345.7 
		395.6,345.7 	"/>
	<line fill="none" stroke="#6F7F84" stroke-width="7.2114" stroke-miterlimit="10" x1="312.8" y1="227.6" x2="404.8" y2="227.6"/>
	<path fill="none" stroke="#6F7F84" stroke-width="7.2114" stroke-miterlimit="10" d="M394.7,231.2v79.9c0,9.7-7.9,17.6-17.6,17.6
		h-36.6c-9.7,0-17.6-7.9-17.6-17.6v-79.9l4.9-20.1h62.1L394.7,231.2z"/>
	<path fill="none" stroke="#6F7F84" stroke-width="7.2114" stroke-miterlimit="10" d="M343.4,210.5v-11c0-4.2,3.4-7.7,7.7-7.7h16
		c4.2,0,7.7,3.4,7.7,7.7v11"/>
	<g>
		<line fill="none" stroke="#6F7F84" stroke-width="7.2114" stroke-miterlimit="10" x1="341.8" y1="343.1" x2="341.8" y2="328.6"/>
		<line fill="none" stroke="#6F7F84" stroke-width="7.2114" stroke-miterlimit="10" x1="375.8" y1="328.6" x2="375.8" y2="343.1"/>
	</g>
	<path fill="none" stroke="#6F7F84" stroke-width="7.2114" stroke-miterlimit="10" d="M193.6,289.6"/>
	<path fill="none" stroke="#6F7F84" stroke-width="7.2114" stroke-miterlimit="10" d="M243.7,173c28.8-27.4,67.8-44.2,110.7-44.2
		c88.8,0,160.8,72,160.8,160.8s-72,160.8-160.8,160.8c-88.8,0-160.8-72-160.8-160.8V0"/>
	<polygon fill="#6F7F84" points="260.3,173.5 238.2,179.4 244.1,157.3 	"/>
	<line fill="none" stroke="#6F7F84" stroke-width="7.2114" stroke-miterlimit="10" x1="157.6" y1="227.8" x2="2.5" y2="382.8"/>
	<path fill="none" stroke="#6F7F84" stroke-width="7.2114" stroke-linejoin="round" stroke-miterlimit="10" d="M356.9,328.2
		c4.2-7.4,1.6-12.7-0.9-15.8c-2.5-3.1-5.9-5.6-7.5-9.4c-1.8-4-1.8-7.5-0.5-11.6c2.3-7.4,10-14.6,16.8-18.2
		c-4.1,3.7-5.6,9.9-4.3,15.1c1.9,7.4,9.5,13.9,8.3,22.1C368.1,316.3,362.4,323.5,356.9,328.2z"/>
</g>
<g>
</g>
<g>
</g>
<g>
</g>
<g>
</g>
<g>
</g>
<g>
</g>
<g>
</g>
<g>
</g>
<g>
</g>
<g>
</g>
<g>
</g>
<g>
</g>
<g>
</g>
<g>
</g>
<g>
</g>
</svg>
