<svg class="approach-section-icon-svg" xmlns="http://www.w3.org/2000/svg" width="518.1" height="478.2" viewBox="-192.2 0 518.1 478.2" enable-background="new -192.2 0 518.1 478.2">
  <!-- ICON -->
  <g fill="none" stroke="#CECECE" stroke-width="7.139" stroke-miterlimit="10">
    <path d="M161.4 217.6v37.6"></path>
    <circle cx="161.4" cy="274.8" r="19.5"></circle>
    <path d="M146.7 287.6l-39.3 112.9M172.7 287.6l39.2 112.9M132.7 323.3c22.4 22.4 58.6 22.4 81 0"></path>
  </g>

  <!-- LOOP -->
  <path fill="none" stroke="#CECECE" stroke-width="7.148" stroke-miterlimit="10" d="M250.2 2.5l-200 200c-62.2 62.2-62.2 163.1 0 225.4 62.2 62.3 163.1 62.2 225.4 0 62.3-62.2 62.2-163.1 0-225.4-30.1-30.1-69.2-45.6-108.6-46.6"></path>

  <!-- ARROWHEAD -->
  <path fill="#CECECE" d="M178.1 145.3l-19.6 11.3 19.6 11.3v-22.6z"></path>

  <!-- TO NEXT -->
  <path fill="none" stroke="#CECECE" stroke-width="7.139" stroke-miterlimit="10" d="M24.5 157H-92.6l-97.1 97.2"></path>
</svg>