<?xml version="1.0" encoding="utf-8"?>
<!-- Generator: Adobe Illustrator 16.0.0, SVG Export Plug-In . SVG Version: 6.00 Build 0)  -->
<!DOCTYPE svg PUBLIC "-//W3C//DTD SVG 1.1//EN" "http://www.w3.org/Graphics/SVG/1.1/DTD/svg11.dtd">
<svg version="1.1" id="Layer_1" xmlns="http://www.w3.org/2000/svg" xmlns:xlink="http://www.w3.org/1999/xlink" x="0px" y="0px"
	 width="519.2px" height="455.8px" viewBox="0 0 519.2 455.8" enable-background="new 0 0 519.2 455.8" xml:space="preserve">
<g>
	<path fill="none" stroke="#798082" stroke-width="7.2114" stroke-miterlimit="10" d="M192.8,170.2"/>
	<path fill="none" stroke="#798082" stroke-width="7.2114" stroke-miterlimit="10" d="M194.1,160.2c1-39.8,16.7-79.2,47-109.6
		c62.8-62.8,164.6-62.8,227.3,0s62.8,164.6,0,227.3c-62.8,62.8-164.6,62.8-227.3,0L2.5,39.4"/>
	<polygon fill="#798082" points="206.2,148.8 194.8,168.6 183.4,148.8 	"/>
</g>
<line fill="none" stroke="#798082" stroke-width="7.2114" stroke-miterlimit="10" x1="192.8" y1="318.1" x2="192.8" y2="455.8"/>
<g>
	<path fill="none" stroke="#798082" stroke-width="7" stroke-miterlimit="10" d="M425.4,166.2c0-10.1,6.2-18.1,15.6-23.6
		c-1.7-5.7-3.9-11.1-6.7-16.2c-10.5,2.8-19.1-1.4-26.2-8.5c-7.2-7.2-9.4-15.7-6.6-26.2c-5.1-2.8-10.5-5-16.2-6.7
		c-5.5,9.4-15.4,15.6-25.6,15.6s-20.1-6.2-25.6-15.6c-5.7,1.7-11.1,3.9-16.2,6.7c2.8,10.5,0.6,19.1-6.6,26.3
		c-7.2,7.2-15.7,11.3-26.2,8.5c-2.8,5.1-5,10.5-6.7,16.2c9.4,5.5,15.6,13.5,15.6,23.6c0,10.1-6.2,20.1-15.6,25.6
		c1.7,5.7,3.9,11.1,6.7,16.2c10.5-2.8,19.1-0.6,26.2,6.6c7.2,7.2,9.4,15.7,6.6,26.3c5.1,2.8,10.5,5,16.2,6.7
		c5.5-9.4,15.4-15.6,25.6-15.6s20.1,6.2,25.6,15.6c5.7-1.7,11.1-3.9,16.2-6.7c-2.8-10.5-0.6-19.1,6.6-26.2
		c7.2-7.2,15.7-11.3,26.2-8.5c2.8-5.1,5-10.5,6.7-16.2C431.6,184.4,425.4,176.3,425.4,166.2z M359.7,201.6
		c-19.5,0-35.4-15.8-35.4-35.4c0-19.5,15.8-35.4,35.4-35.4c19.5,0,35.4,15.8,35.4,35.4C395.1,185.7,379.2,201.6,359.7,201.6z"/>
</g>
<g>
</g>
<g>
</g>
<g>
</g>
<g>
</g>
<g>
</g>
<g>
</g>
<g>
</g>
<g>
</g>
<g>
</g>
<g>
</g>
<g>
</g>
<g>
</g>
<g>
</g>
<g>
</g>
<g>
</g>
</svg>
