<svg class="approach-section-icon-svg" xmlns="http://www.w3.org/2000/svg" width="518.7" height="453.9" viewBox="0 0 518.7 453.9">
  <!-- ICON -->
  <g fill="none" stroke="#6F7F84" stroke-width="7.211" stroke-miterlimit="10">
    <path d="M402.8 378.4h-88l7.2-32.7h73.6zM312.8 227.6h92"></path>
    <path d="M394.7 231.2v79.9c0 9.7-7.9 17.6-17.6 17.6h-36.6c-9.7 0-17.6-7.9-17.6-17.6v-79.9l4.9-20.1h62.1l4.8 20.1zM343.4 210.5v-11c0-4.2 3.4-7.7 7.7-7.7h16c4.2 0 7.7 3.4 7.7 7.7v11"></path>
    <path d="M341.8 343.1v-14.5M375.8 328.6v14.5"></path>
    <path fill="none" stroke="#6F7F84" stroke-width="7.211" stroke-linejoin="round" stroke-miterlimit="10" d="M356.9 328.2c4.2-7.4 1.6-12.7-.9-15.8-2.5-3.1-5.9-5.6-7.5-9.4-1.8-4-1.8-7.5-.5-11.6 2.3-7.4 10-14.6 16.8-18.2-4.1 3.7-5.6 9.9-4.3 15.1 1.9 7.4 9.5 13.9 8.3 22.1-.7 5.9-6.4 13.1-11.9 17.8z"></path>
    <path stroke-linejoin="round" d="M356.9 328.2c4.2-7.4 1.6-12.7-.9-15.8-2.5-3.1-5.9-5.6-7.5-9.4-1.8-4-1.8-7.5-.5-11.6 2.3-7.4 10-14.6 16.8-18.2-4.1 3.7-5.6 9.9-4.3 15.1 1.9 7.4 9.5 13.9 8.3 22.1-.7 5.9-6.4 13.1-11.9 17.8z"></path>
  </g>

  <!-- LOOP -->
  <path fill="none" stroke="#6F7F84" stroke-width="7.211" stroke-miterlimit="10" d="M193.6,0v289.6c0,88.8,72,160.8,160.8,160.8 s160.8-72,160.8-160.8c0-88.8-72-160.8-160.8-160.8c-42.9,0-81.9,16.8-110.7,44.2"></path>

  <!-- ARROWHEAD -->
  <path fill="#6F7F84" d="M260.3 173.5l-22.1 5.9 5.9-22.1z"></path>

  <!-- TO NEXT -->
  <path stroke="#6F7F84" stroke-width="7.211" stroke-miterlimit="10" fill="#6F7F84" d="M157.6 227.8L2.5 382.8"></path>
</svg>