<?xml version="1.0" encoding="utf-8"?>
<!-- Generator: Adobe Illustrator 16.0.0, SVG Export Plug-In . SVG Version: 6.00 Build 0)  -->
<!DOCTYPE svg PUBLIC "-//W3C//DTD SVG 1.1//EN" "http://www.w3.org/Graphics/SVG/1.1/DTD/svg11.dtd">
<svg version="1.1" id="Layer_1" xmlns="http://www.w3.org/2000/svg" xmlns:xlink="http://www.w3.org/1999/xlink" x="0px" y="0px"
	 width="320px" height="245px" viewBox="0 0 320 245" enable-background="new 0 0 320 245" xml:space="preserve">
<g>
	<path fill="#97A8B6" d="M214.5,108.2C201.3,95,184.3,87,165.9,85.3v-3.8l-9.6,5.5l9.6,5.5v-3.8c17.4,1.7,33.6,9.4,46.1,21.8
		c14.3,14.3,22.2,33.4,22.2,53.6c0,20.3-7.9,39.3-22.2,53.6c-14.8,14.8-34.2,22.2-53.6,22.2c-19.4,0-38.8-7.4-53.6-22.2
		c-29.5-29.5-29.6-77.5-0.1-107.1l0,0L216-0.5h-4.9L102.3,108.2l0,0c-30.9,30.9-30.9,81.2,0,112.1c15.4,15.4,35.8,23.2,56.1,23.2
		c20.3,0,40.6-7.7,56.1-23.2c15-15,23.2-34.9,23.2-56.1C237.7,143.1,229.4,123.2,214.5,108.2z"/>
	<path fill="#97A8B6" d="M155.8,116.6v16.7c-5.4,0.8-9.5,5.5-9.5,11.1c0,2.4,0.8,4.7,2.1,6.6l-18.8,54.1l3.3,1.1l12-34.6
		c5.2,4.1,11.6,6.4,18.4,6.4c2.4,0,4.8-0.3,7.1-0.9l10.1,29.1l3.3-1.1l-10.1-29c3.9-1.5,7.5-3.8,10.5-6.8l-2.4-2.4
		c-2.6,2.6-5.8,4.7-9.2,5.9l-7.1-20.4c2-2,3.3-4.9,3.3-7.9c0-5.6-4.1-10.3-9.5-11.1v-16.7L155.8,116.6L155.8,116.6z M169.3,173.8
		c-1.9,0.4-3.9,0.7-6,0.7c-6.3,0-12.4-2.2-17.2-6.4l5-14.4c1.8,1.3,4,2,6.4,2c1.8,0,3.5-0.4,5-1.2L169.3,173.8z M165.3,144.5
		c0,4.3-3.5,7.8-7.8,7.8c-4.3,0-7.8-3.5-7.8-7.8c0-4.3,3.5-7.8,7.8-7.8C161.8,136.7,165.3,140.2,165.3,144.5z"/>
	<polygon fill="#97A8B6" points="33,85.3 0,118.4 0,123.3 34.5,88.8 90.8,88.8 90.8,85.3 	"/>
</g>
<g>
</g>
<g>
</g>
<g>
</g>
<g>
</g>
<g>
</g>
<g>
</g>
<g>
</g>
<g>
</g>
<g>
</g>
<g>
</g>
<g>
</g>
<g>
</g>
<g>
</g>
<g>
</g>
<g>
</g>
</svg>
