<?xml version="1.0" encoding="utf-8"?>
<!-- Generator: Adobe Illustrator 16.0.0, SVG Export Plug-In . SVG Version: 6.00 Build 0)  -->
<!DOCTYPE svg PUBLIC "-//W3C//DTD SVG 1.1//EN" "http://www.w3.org/Graphics/SVG/1.1/DTD/svg11.dtd">
<svg version="1.1" id="Layer_1" xmlns="http://www.w3.org/2000/svg" xmlns:xlink="http://www.w3.org/1999/xlink" x="0px" y="0px"
	 width="320px" height="243.8px" viewBox="0 0 320 243.8" enable-background="new 0 0 320 243.8" xml:space="preserve">
<g>
	<g>
		<path fill="none" stroke="#97A8B6" stroke-width="3" stroke-miterlimit="10" d="M104.4,112"/>
		<g>
			<path fill="none" stroke="#97A8B6" stroke-width="3" stroke-miterlimit="10" d="M160.3,89.7c18.9,0.5,37.6,7.9,52,22.3
				c29.8,29.8,29.8,78.1,0,107.9c-29.8,29.8-78.1,29.8-107.9,0c-29.8-29.8-29.8-78.1,0-107.9"/>
			<polygon fill="none" stroke="#97A8B6" stroke-width="3" stroke-miterlimit="10" points="165.8,95.5 156.4,90 165.8,84.6 			"/>
		</g>
	</g>
	<line fill="none" stroke="#97A8B6" stroke-width="3" stroke-miterlimit="10" x1="89.3" y1="84.6" x2="0" y2="84.6"/>
	<path fill="none" stroke="#97A8B6" stroke-width="3" stroke-miterlimit="10" d="M320,1.5h-92.8c-6.8,0-16.4,4-21.2,8.8L104.3,111.9
		"/>
	<g>
		<g>
			<line fill="none" stroke="#97A8B6" stroke-width="3" stroke-miterlimit="10" x1="157.5" y1="119.1" x2="157.5" y2="137.1"/>
			<circle fill="none" stroke="#97A8B6" stroke-width="3" stroke-miterlimit="10" cx="157.5" cy="146.5" r="9.4"/>
			<line fill="none" stroke="#97A8B6" stroke-width="3" stroke-miterlimit="10" x1="150.5" y1="152.7" x2="131.7" y2="206.8"/>
			<line fill="none" stroke="#97A8B6" stroke-width="3" stroke-miterlimit="10" x1="163" y1="152.7" x2="181.8" y2="206.8"/>
		</g>
		<path fill="none" stroke="#97A8B6" stroke-width="3" stroke-miterlimit="10" d="M143.8,169.8c10.7,10.7,28.1,10.7,38.8,0"/>
	</g>
</g>
<g>
</g>
<g>
</g>
<g>
</g>
<g>
</g>
<g>
</g>
<g>
</g>
<g>
</g>
<g>
</g>
<g>
</g>
<g>
</g>
<g>
</g>
<g>
</g>
<g>
</g>
<g>
</g>
<g>
</g>
</svg>
