<?xml version="1.0" encoding="utf-8"?>
<!-- Generator: Adobe Illustrator 16.0.0, SVG Export Plug-In . SVG Version: 6.00 Build 0)  -->
<!DOCTYPE svg PUBLIC "-//W3C//DTD SVG 1.1//EN" "http://www.w3.org/Graphics/SVG/1.1/DTD/svg11.dtd">
<svg version="1.1" id="Layer_1" xmlns="http://www.w3.org/2000/svg" xmlns:xlink="http://www.w3.org/1999/xlink" x="0px" y="0px"
	 width="320px" height="235px" viewBox="0 0 320 235" enable-background="new 0 0 320 235" xml:space="preserve">
<g>
	<path fill="#97A8B6" d="M237.7,156.8c0-42.3-34.4-76.6-76.6-76.6c-17.9,0-35,6.2-48.8,17.6l-2.6-2.6l-2.7,10.3l10.3-2.7l-2.6-2.6
		c13-10.8,29.4-16.6,46.4-16.6c40.3-0.1,73.2,32.8,73.2,73.2c0,19.6-7.6,37.9-21.4,51.8c-13.8,13.8-32.2,21.4-51.8,21.4
		c-40.4,0-73.2-32.8-73.2-73.2l0-157.2h-3.4v157.2c0,21.1,8.6,40.3,22.5,54.1c13.9,13.9,33,22.5,54.1,22.5c20.4,0,39.6-8,54.1-22.5
		C229.8,196.5,237.7,177.3,237.7,156.8z"/>
	<polygon fill="#97A8B6" points="0,213.6 58.3,155.3 56,152.9 0,208.9 	"/>
	<path fill="#97A8B6" d="M149.3,171.9c7,7,18.5,7.1,25.6,0c7-7,7.1-18.5,0-25.6c-7-7-18.5-7.1-25.6,0
		C142.3,153.3,142.3,164.8,149.3,171.9z M172.6,148.6c5.8,5.8,5.8,15.2,0,21c-5.8,5.8-15.2,5.8-21,0c-5.8-5.8-5.8-15.2,0-21
		C157.4,142.8,166.9,142.8,172.6,148.6z"/>
	<path fill="#97A8B6" d="M127.3,139.1l-1.3-0.3l-0.6,1.1c-1.4,2.5-2.4,5.1-3.3,7.9l-0.4,1.2l1.1,0.7c3.9,2.3,5.7,5.3,5.7,9.4
		c0,4.1-1.8,7.1-5.7,9.4l-1.1,0.7l0.4,1.2c0.8,2.7,1.9,5.4,3.3,7.9l0.6,1.1l1.3-0.3c4.4-1.2,9.1,0,12,2.9c2.9,2.9,4,7.6,2.9,12
		l-0.3,1.3l1.1,0.6c2.5,1.4,5.1,2.4,7.9,3.3l1.2,0.4l0.7-1.1c2.3-3.9,5.3-5.7,9.4-5.7c4.8,0,8.1,1.6,10.1,5l0.7,1.1l1.2-0.4
		c2.7-0.8,5.4-1.9,7.9-3.3l1.1-0.6l-0.3-1.3c-0.8-3.3-1.2-8,2.2-11.4c3.4-3.4,8.1-3.1,11.4-2.2l1.3,0.3l0.6-1.1
		c1.4-2.5,2.4-5.1,3.3-7.9l0.4-1.2l-1.1-0.7c-3.4-2-5-5.2-5-10.1c0-4.1,1.8-7.1,5.7-9.4l1.1-0.7l-0.4-1.2c-0.8-2.7-1.9-5.4-3.3-7.9
		l-0.6-1.1l-1.3,0.3c-4.4,1.2-9.1,0-12-2.9c-2.9-2.9-4-7.6-2.9-12l0.3-1.3l-1.1-0.6c-2.5-1.4-5.1-2.4-7.9-3.3l-1.2-0.4l-0.7,1.1
		c-2.3,3.9-5.3,5.7-9.4,5.7c-4.8,0-8.1-1.6-10.1-5l-0.7-1.1l-1.2,0.4c-2.7,0.8-5.4,1.9-7.8,3.2l-1.1,0.6l0.3,1.3
		c0.8,3.3,1.2,8-2.2,11.4C136.5,139.1,131.8,140.3,127.3,139.1z M141.7,138.5c3.3-3.3,4.4-7.9,3.4-13.2c1.6-0.8,3.3-1.5,5-2.1
		c2.7,3.7,6.7,5.5,12.1,5.5c4.9,0,8.7-2.1,11.5-6.2c1.7,0.6,3.4,1.3,5,2.1c-0.9,5.1,0.6,10.5,4,13.9c3.4,3.4,8.7,4.9,13.9,4
		c0.8,1.6,1.5,3.3,2.1,5c-4.1,2.7-6.2,6.7-6.2,11.5c0,5.5,1.9,9.5,5.5,12.1c-0.6,1.7-1.3,3.4-2.1,5c-5.4-1.1-10,0.1-13.2,3.4
		c-3.3,3.3-4.4,7.9-3.4,13.2c-1.6,0.8-3.3,1.5-5,2.1c-2.7-3.7-6.7-5.5-12.1-5.5c-4.9,0-8.7,2.1-11.5,6.2c-1.7-0.6-3.4-1.3-5-2.1
		c0.9-5.1-0.6-10.5-4-13.9c-3.4-3.4-8.7-4.9-13.9-4c-0.8-1.6-1.5-3.3-2.1-5c4.1-2.7,6.2-6.7,6.2-11.5c0-3.8-1.3-7.1-3.8-9.6
		c-0.7-0.7-1.5-1.4-2.3-2c0.6-1.7,1.3-3.4,2.1-5C132.9,143.5,138.3,142,141.7,138.5z"/>
</g>
<g>
</g>
<g>
</g>
<g>
</g>
<g>
</g>
<g>
</g>
<g>
</g>
<g>
</g>
<g>
</g>
<g>
</g>
<g>
</g>
<g>
</g>
<g>
</g>
<g>
</g>
<g>
</g>
<g>
</g>
</svg>
