<?xml version="1.0" encoding="utf-8"?>
<!-- Generator: Adobe Illustrator 16.0.0, SVG Export Plug-In . SVG Version: 6.00 Build 0)  -->
<!DOCTYPE svg PUBLIC "-//W3C//DTD SVG 1.1//EN" "http://www.w3.org/Graphics/SVG/1.1/DTD/svg11.dtd">
<svg version="1.1" id="Layer_1" xmlns="http://www.w3.org/2000/svg" xmlns:xlink="http://www.w3.org/1999/xlink" x="0px" y="0px"
	 width="319.8px" height="153.7px" viewBox="0 0 319.8 153.7" enable-background="new 0 0 319.8 153.7" xml:space="preserve">
<g>
	<path fill="none" stroke="#97A8B6" stroke-width="3" stroke-miterlimit="10" d="M0,1.5h159.9c41.6,0,75.4,33.7,75.4,75.4
		c0,41.6-33.7,75.4-75.4,75.4s-75.4-33.7-75.4-75.4c0-20.1,7.9-38.4,20.7-51.9"/>
	<polygon fill="none" stroke="#97A8B6" stroke-width="3" stroke-miterlimit="10" points="105.5,32.7 108.3,22.4 97.9,25.2 	"/>
	<line fill="none" stroke="#97A8B6" stroke-width="3" stroke-miterlimit="10" x1="235.3" y1="1.5" x2="319.8" y2="1.5"/>
	<g>
		<g>
			<g>
				<polygon fill="none" stroke="#97A8B6" stroke-width="3" stroke-miterlimit="10" points="131.5,55.6 138.3,48.8 194.7,105.7 
					195.8,113.7 187.9,112.5 				"/>
				
					<rect x="127" y="44.6" transform="matrix(-0.7072 0.7071 -0.7071 -0.7072 259.626 -9.3891)" fill="none" stroke="#97A8B6" stroke-width="3" stroke-miterlimit="10" width="9.6" height="9"/>
				<g>
					<path fill="none" stroke="#97A8B6" stroke-width="3" stroke-miterlimit="10" d="M131.3,52.2"/>
				</g>
			</g>
		</g>
		<polyline fill="none" stroke="#97A8B6" stroke-width="3" stroke-miterlimit="10" points="189.6,112.5 192.2,110.1 195.2,108.7 		
			"/>
	</g>
	<g>
		<g>
			<path fill="none" stroke="#97A8B6" stroke-width="3" stroke-miterlimit="10" d="M141.5,102.4l41.7-41.7l1.4,1.4l11.9-3.2
				l3.2-11.8l-1.7-1.7l-7.5,7.5l-5.5-5.5l7.5-7.5l-1.4-1.4l-11.9,3.2L176,53.4l1.4,1.4l-41.8,41.8c-4.1-1.7-9-0.9-12.3,2.4
				c-4.4,4.4-4.4,11.5,0,15.8c4.4,4.4,11.5,4.4,15.8,0C142.6,111.4,143.3,106.5,141.5,102.4z"/>
			<polygon fill="none" stroke="#97A8B6" stroke-width="3" stroke-miterlimit="10" points="127.8,107.7 128.8,104 132.6,103 
				135.3,105.7 134.3,109.5 130.5,110.5 			"/>
		</g>
	</g>
</g>
<g>
</g>
<g>
</g>
<g>
</g>
<g>
</g>
<g>
</g>
<g>
</g>
<g>
</g>
<g>
</g>
<g>
</g>
<g>
</g>
<g>
</g>
<g>
</g>
<g>
</g>
<g>
</g>
<g>
</g>
</svg>
