<?xml version="1.0" encoding="utf-8"?>
<!-- Generator: Adobe Illustrator 16.0.0, SVG Export Plug-In . SVG Version: 6.00 Build 0)  -->
<!DOCTYPE svg PUBLIC "-//W3C//DTD SVG 1.1//EN" "http://www.w3.org/Graphics/SVG/1.1/DTD/svg11.dtd">
<svg version="1.1" id="Layer_1" xmlns="http://www.w3.org/2000/svg" xmlns:xlink="http://www.w3.org/1999/xlink" x="0px" y="0px"
	 width="320px" height="245px" viewBox="0 0 320 245" enable-background="new 0 0 320 245" xml:space="preserve">
<g>
	<path fill="#97A8B6" d="M235.3,163.4c0,41.1-33.4,74.5-74.4,74.5c-41.1,0-74.5-33.4-74.5-74.5c0-41.1,33.4-74.5,74.5-74.5
		c17.3,0,33.9,6,47.2,16.9l-2.6,2.6l10.5,2.8l-2.8-10.5l-2.6,2.6c-13.9-11.6-31.4-17.9-49.6-17.9c-43,0-77.9,35-77.9,77.9
		c0,43,34.9,77.9,77.9,77.9c42.9,0,77.9-34.9,77.9-77.9V0h-3.4L235.3,163.4L235.3,163.4z"/>
	<polygon fill="#97A8B6" points="320,215.9 257,152.9 254.5,155.3 320,220.7 	"/>
	<path fill="#97A8B6" d="M126.9,209.5h69.5v-87.3h-69.5V209.5z M130.3,206.1v-54.8H193v54.8H130.3L130.3,206.1z M141.9,147.9
		l9.4-8.5l6.8,6.2l11.8-10.8l14.4,13.1H141.9z M193,125.6v22.4h-3.5L170,130.2L158.1,141l-6.8-6.2l-14.5,13.1h-6.6v-22.4H193z"/>
	<rect x="142.3" y="156.7" fill="#97A8B6" width="38.7" height="3.4"/>
	<rect x="150.8" y="163.5" fill="#97A8B6" width="21.6" height="3.4"/>
	<path fill="#97A8B6" d="M135.8,201.9h23.7v-27.6h-23.7V201.9z M139.2,177.6h16.9v20.8h-16.9V177.6z"/>
	<path fill="#97A8B6" d="M164.5,201.9h23.7v-27.6h-23.7V201.9z M168,177.6h16.8v20.8h-16.9L168,177.6L168,177.6z"/>
</g>
<g>
</g>
<g>
</g>
<g>
</g>
<g>
</g>
<g>
</g>
<g>
</g>
<g>
</g>
<g>
</g>
<g>
</g>
<g>
</g>
<g>
</g>
<g>
</g>
<g>
</g>
<g>
</g>
<g>
</g>
</svg>
