<?xml version="1.0" encoding="utf-8"?>
<!-- Generator: Adobe Illustrator 16.0.0, SVG Export Plug-In . SVG Version: 6.00 Build 0)  -->
<!DOCTYPE svg PUBLIC "-//W3C//DTD SVG 1.1//EN" "http://www.w3.org/Graphics/SVG/1.1/DTD/svg11.dtd">
<svg version="1.1" id="Layer_1" xmlns="http://www.w3.org/2000/svg" xmlns:xlink="http://www.w3.org/1999/xlink" x="0px" y="0px"
	 width="319.8px" height="153.7px" viewBox="0 0 319.8 153.7" enable-background="new 0 0 319.8 153.7" xml:space="preserve">
<g>
	<path fill="none" stroke="#97A8B6" stroke-width="3" stroke-miterlimit="10" d="M319.8,1.5H159.9c-41.6,0-75.4,33.7-75.4,75.4
		c0,41.6,33.7,75.4,75.4,75.4c41.6,0,75.4-33.7,75.4-75.4c0-20.1-7.9-38.4-20.7-51.9"/>
	<polygon fill="none" stroke="#97A8B6" stroke-width="3" stroke-miterlimit="10" points="214.3,32.7 211.6,22.4 221.9,25.2 	"/>
	<line fill="none" stroke="#97A8B6" stroke-width="3" stroke-miterlimit="10" x1="84.6" y1="1.5" x2="0" y2="1.5"/>
</g>
<g>
	<path fill="none" stroke="#97A8B6" stroke-width="3" stroke-miterlimit="10" d="M191.4,76.9c0-4.9,3-8.7,7.5-11.4
		c-0.8-2.7-1.9-5.3-3.2-7.8c-5.1,1.3-9.2-0.7-12.6-4.1c-3.4-3.4-4.5-7.5-3.2-12.6c-2.5-1.3-5.1-2.4-7.8-3.2
		c-2.6,4.5-7.4,7.5-12.3,7.5c-4.9,0-9.6-3-12.3-7.5c-2.7,0.8-5.3,1.9-7.8,3.2c1.3,5.1,0.3,9.2-3.2,12.6s-7.5,5.4-12.6,4.1
		c-1.3,2.5-2.4,5.1-3.2,7.8c4.5,2.6,7.5,6.5,7.5,11.4s-3,9.6-7.5,12.3c0.8,2.7,1.9,5.3,3.2,7.8c5.1-1.3,9.2-0.3,12.6,3.2
		c3.4,3.4,4.5,7.5,3.2,12.6c2.5,1.3,5.1,2.4,7.8,3.2c2.6-4.5,7.4-7.5,12.3-7.5c4.9,0,9.6,3,12.3,7.5c2.7-0.8,5.3-1.9,7.8-3.2
		c-1.3-5.1-0.3-9.2,3.2-12.6c3.4-3.4,7.5-5.4,12.6-4.1c1.3-2.5,2.4-5.1,3.2-7.8C194.4,85.6,191.4,81.8,191.4,76.9z M159.9,93.9
		c-9.4,0-17-7.6-17-17c0-9.4,7.6-17,17-17c9.4,0,17,7.6,17,17C176.9,86.3,169.3,93.9,159.9,93.9z"/>
</g>
<g>
</g>
<g>
</g>
<g>
</g>
<g>
</g>
<g>
</g>
<g>
</g>
<g>
</g>
<g>
</g>
<g>
</g>
<g>
</g>
<g>
</g>
<g>
</g>
<g>
</g>
<g>
</g>
<g>
</g>
</svg>
