<?xml version="1.0" encoding="utf-8"?>
<!-- Generator: Adobe Illustrator 16.0.0, SVG Export Plug-In . SVG Version: 6.00 Build 0)  -->
<!DOCTYPE svg PUBLIC "-//W3C//DTD SVG 1.1//EN" "http://www.w3.org/Graphics/SVG/1.1/DTD/svg11.dtd">
<svg version="1.1" id="Layer_1" xmlns="http://www.w3.org/2000/svg" xmlns:xlink="http://www.w3.org/1999/xlink" x="0px" y="0px"
	 width="320px" height="240px" viewBox="0 0 320 240" enable-background="new 0 0 320 240" xml:space="preserve">
<polygon fill="none" stroke="#97A8B6" stroke-width="3" stroke-miterlimit="10" points="180,201.7 138.5,201.7 141.9,186.2 
	176.6,186.2 "/>
<line fill="none" stroke="#97A8B6" stroke-width="3" stroke-miterlimit="10" x1="137.5" y1="130.5" x2="180.9" y2="130.5"/>
<path fill="none" stroke="#97A8B6" stroke-width="3" stroke-miterlimit="10" d="M176.2,132.2v37.7c0,4.6-3.7,8.3-8.3,8.3h-17.3
	c-4.6,0-8.3-3.7-8.3-8.3v-37.7l2.3-9.5h29.3L176.2,132.2z"/>
<path fill="none" stroke="#97A8B6" stroke-width="3" stroke-miterlimit="10" d="M152,122.4v-5.2c0-2,1.6-3.6,3.6-3.6h7.5
	c2,0,3.6,1.6,3.6,3.6v5.2"/>
<g>
	<line fill="none" stroke="#97A8B6" stroke-width="3" stroke-miterlimit="10" x1="151.2" y1="185" x2="151.2" y2="178.2"/>
	<line fill="none" stroke="#97A8B6" stroke-width="3" stroke-miterlimit="10" x1="167.3" y1="178.2" x2="167.3" y2="185"/>
</g>
<path fill="none" stroke="#97A8B6" stroke-width="3" stroke-miterlimit="10" d="M81.2,159.7"/>
<path fill="none" stroke="#97A8B6" stroke-width="3" stroke-miterlimit="10" d="M104.9,104.7c13.6-12.9,32-20.9,52.3-20.9
	c41.9,0,75.9,34,75.9,75.9c0,41.9-34,75.9-75.9,75.9c-41.9,0-75.9-34-75.9-75.9V0.1"/>
<polygon fill="#97A8B6" points="112.7,104.9 102.3,107.7 105.1,97.3 "/>
<line fill="none" stroke="#97A8B6" stroke-width="3" stroke-miterlimit="10" x1="64.2" y1="130.6" x2="0.6" y2="194.2"/>
<path fill="none" stroke="#97A8B6" stroke-width="3" stroke-linejoin="round" stroke-miterlimit="10" d="M158.3,178
	c2-3.5,0.8-6-0.4-7.4s-2.8-2.7-3.5-4.4c-0.8-1.9-0.8-3.5-0.2-5.5c1.1-3.5,4.7-6.9,7.9-8.6c-1.9,1.7-2.6,4.7-2,7.1
	c0.9,3.5,4.5,6.6,3.9,10.4C163.6,172.3,160.9,175.8,158.3,178z"/>
<g>
</g>
<g>
</g>
<g>
</g>
<g>
</g>
<g>
</g>
<g>
</g>
<g>
</g>
<g>
</g>
<g>
</g>
<g>
</g>
<g>
</g>
<g>
</g>
<g>
</g>
<g>
</g>
<g>
</g>
</svg>
