<?xml version="1.0" encoding="utf-8"?>
<!-- Generator: Adobe Illustrator 16.0.0, SVG Export Plug-In . SVG Version: 6.00 Build 0)  -->
<!DOCTYPE svg PUBLIC "-//W3C//DTD SVG 1.1//EN" "http://www.w3.org/Graphics/SVG/1.1/DTD/svg11.dtd">
<svg version="1.1" id="Layer_1" xmlns="http://www.w3.org/2000/svg" xmlns:xlink="http://www.w3.org/1999/xlink" x="0px" y="0px"
	 width="320px" height="230px" viewBox="0 0 320 230" enable-background="new 0 0 320 230" xml:space="preserve">
<g>
	<path fill="#97A8B6" d="M143.5,174.1l-4.1,18.6h45.3l-4.1-18.6h-8.9v-4.7c5-0.6,8.8-4.8,8.8-9.9v-37.3h3v-3.3h-3.8l-1.9-7.7h-6.7
		v-3.7c0-2.9-2.4-5.3-5.3-5.3h-7.5c-2.9,0-5.3,2.4-5.3,5.3v3.7h-7l-1.9,7.7h-3.8v3.4h3v37.3c0,5.1,3.9,9.3,8.8,9.9v4.7L143.5,174.1
		L143.5,174.1z M180.5,189.3h-36.9l2.6-11.9h31.7L180.5,189.3z M156.5,107.4c0-1,0.8-1.9,1.9-1.9h7.5c1,0,1.9,0.8,1.9,1.9v3.7h-11.3
		V107.4z M148.9,114.5h26.4l1,4.3h-28.5L148.9,114.5z M147,159.6v-37.1l0-0.2h30.1l0,0.2v37.1c0,3.6-2.9,6.5-6.5,6.5H165
		c1.7-2,3.1-4.3,3.4-6.6c0.4-2.9-1-5.3-2.2-7.5c-0.7-1.2-1.4-2.4-1.7-3.5c-0.5-2,0.1-4.2,1.5-5.4c0.7-0.6,0.7-1.5,0.2-2.2
		c-0.5-0.7-1.4-0.9-2.1-0.5c-3.3,1.7-7.4,5.5-8.6,9.5c-0.7,2.4-0.7,4.4,0.3,6.5c0.7,1.5,1.7,2.6,2.7,3.6c0.4,0.4,0.7,0.8,1.1,1.2
		c1.2,1.5,1.4,3,0.6,4.8h-6.5C149.9,166.1,147,163.2,147,159.6z M160.8,157.8c-0.8-0.8-1.6-1.7-2-2.6c-0.6-1.4-0.7-2.6-0.1-4.2
		c0.4-1.3,1.3-2.6,2.3-3.8c0,0.7,0.1,1.5,0.2,2.3c0.4,1.6,1.2,3,2,4.4c1.1,1.8,2.1,3.6,1.8,5.3c-0.1,0.9-0.6,2-1.4,3.2
		c-0.3-1.1-0.8-2.1-1.6-3.1C161.6,158.6,161.2,158.2,160.8,157.8z M155.8,169.4h12.5v4.6h-12.5V169.4z"/>
	<path fill="#97A8B6" d="M163,72.7c-18,0-35.2,6.2-48.9,17.6l-2.6-2.6l-2.8,10.3l10.3-2.8l-2.6-2.6c13.1-10.7,29.4-16.6,46.5-16.6
		c40.5,0,73.5,32.9,73.5,73.5S203.6,223,163.1,223c-40.5,0-73.4-32.9-73.4-73.5V-0.9h-3.5v150.4c0,42.3,34.4,76.8,76.8,76.8
		c42.3,0,76.8-34.4,76.8-76.8C239.8,107.1,205.3,72.7,163,72.7z"/>
	
		<rect x="33.1" y="105.6" transform="matrix(0.7071 0.7071 -0.7071 0.7071 121.1011 21.3114)" fill="#97A8B6" width="3.4" height="102.5"/>
</g>
<g>
</g>
<g>
</g>
<g>
</g>
<g>
</g>
<g>
</g>
<g>
</g>
<g>
</g>
<g>
</g>
<g>
</g>
<g>
</g>
<g>
</g>
<g>
</g>
<g>
</g>
<g>
</g>
<g>
</g>
</svg>
