<?xml version="1.0" encoding="utf-8"?>
<!-- Generator: Adobe Illustrator 16.0.0, SVG Export Plug-In . SVG Version: 6.00 Build 0)  -->
<!DOCTYPE svg PUBLIC "-//W3C//DTD SVG 1.1//EN" "http://www.w3.org/Graphics/SVG/1.1/DTD/svg11.dtd">
<svg version="1.1" id="Layer_1" xmlns="http://www.w3.org/2000/svg" xmlns:xlink="http://www.w3.org/1999/xlink" x="0px" y="0px"
	 width="320px" height="150.4px" viewBox="0 0 320 150.4" enable-background="new 0 0 320 150.4" xml:space="preserve">
<g>
	<path fill="none" stroke="#97A8B6" stroke-width="3" stroke-miterlimit="10" d="M0,1.5h158c40.7,0,73.7,33,73.7,73.7
		s-33,73.7-73.7,73.7c-40.7,0-73.7-33-73.7-73.7c0-19.7,7.7-37.5,20.3-50.8"/>
	<polygon fill="none" stroke="#97A8B6" stroke-width="3" stroke-miterlimit="10" points="104.7,32.1 107.4,21.9 97.3,24.7 	"/>
	<line fill="none" stroke="#97A8B6" stroke-width="3" stroke-miterlimit="10" x1="231.7" y1="1.5" x2="320" y2="1.5"/>
	<polyline fill="none" stroke="#97A8B6" stroke-width="3" stroke-miterlimit="10" points="198.8,107.9 122.5,107.9 122.5,39.3 	"/>
	<path fill="none" stroke="#97A8B6" stroke-width="3" stroke-miterlimit="10" d="M185.8,107.2V61.2c0-1-0.4-1.1-0.9-0.3L171,83.6
		c-0.5,0.8-1.5,1-2.2,0.3l-6.7-6.3c-0.7-0.7-1.8-0.6-2.3,0.3l-9.4,14.2c-0.5,0.8-1.6,1-2.3,0.3l-4.4-4c-0.7-0.7-1.8-0.6-2.4,0.2
		l-13.9,17.3c-0.6,0.8-0.3,1.4,0.7,1.4"/>
	<line fill="none" stroke="#97A8B6" stroke-width="3" stroke-miterlimit="10" x1="148.5" y1="92.4" x2="148.5" y2="107.9"/>
	<line fill="none" stroke="#97A8B6" stroke-width="3" stroke-miterlimit="10" x1="171" y1="83.6" x2="171" y2="107.9"/>
</g>
<g>
</g>
<g>
</g>
<g>
</g>
<g>
</g>
<g>
</g>
<g>
</g>
<g>
</g>
<g>
</g>
<g>
</g>
<g>
</g>
<g>
</g>
<g>
</g>
<g>
</g>
<g>
</g>
<g>
</g>
</svg>
