<svg xmlns="http://www.w3.org/2000/svg" viewBox="0 0 680 700"><g data-name="Layer 1"><path fill="#893131" d="M0 350h680v350H0z"/><path d="M184.59 542.74l8.13-13.4-13.83-5.7 2.14-6.56 14.54 2.44 1.28-16.52h7l1.28 16.38 14.68-2.86 2.14 6.84-13.83 5.84 8 13.47-5.56 4.17-10.12-12.24-10.12 12.27zM277.65 542.74l8.13-13.4-13.83-5.7 2.14-6.56 14.54 2.44 1.28-16.52h7l1.28 16.38 14.68-2.86 2.14 6.84-13.83 5.84 8 13.47-5.56 4.17-10.12-12.24-10.12 12.27zM370.7 542.74l8.13-13.4-13.83-5.7 2.14-6.56 14.54 2.44L383 503h7l1.28 16.38 14.68-2.86 2.14 6.84-13.83 5.84 8 13.47-5.56 4.17-10.12-12.24-10.12 12.27zM463.76 542.74l8.13-13.4-13.83-5.7 2.14-6.56 14.54 2.44L476 503h7l1.28 16.38 14.72-2.86 2.14 6.84-13.83 5.84 8 13.47-5.56 4.17-10.12-12.24-10.12 12.27z" fill="#f6f5de"/><path fill="#6b2828" d="M0 0h680v350H0z"/><path d="M195.74 159.75a6.74 6.74 0 0 0 2.87-.56 9.88 9.88 0 0 0 2.51-1.79l2.08 2.13a9.55 9.55 0 0 1-7.36 3.36 9.86 9.86 0 0 1-7.18-2.79 10.12 10.12 0 0 1 .06-14.14 10.08 10.08 0 0 1 7.35-2.84 9.61 9.61 0 0 1 7.41 3.28l-2 2.24a9 9 0 0 0-2.58-1.83 7.24 7.24 0 0 0-2.85-.52 6.78 6.78 0 0 0-4.86 1.87 6.31 6.31 0 0 0-2 4.78 6.59 6.59 0 0 0 2 4.86 6.32 6.32 0 0 0 4.55 1.95zM226.79 160a10.47 10.47 0 0 1-14.31 0 10 10 0 0 1 0-14.09 10.47 10.47 0 0 1 14.31 0 10 10 0 0 1 0 14.09zm-2.36-11.95a6.69 6.69 0 0 0-9.58 0 7.13 7.13 0 0 0 0 9.8 6.69 6.69 0 0 0 9.58 0 7.13 7.13 0 0 0 0-9.8zM252.16 143.59h3.22v19.09h-3.5l-10.81-13.93v13.93h-3.22v-19.09h3.22l11.09 14.25zM278 153.39h3.22v6.53q-2.7 3-7.73 3a9.74 9.74 0 0 1-7.09-2.79 10.12 10.12 0 0 1 .06-14.14 9.69 9.69 0 0 1 7-2.84 10 10 0 0 1 6.85 2.4l-1.69 2.45a6.69 6.69 0 0 0-2.25-1.32 8.52 8.52 0 0 0-2.64-.37 6.78 6.78 0 0 0-4.86 1.87 6.72 6.72 0 0 0 4.57 11.65 8.25 8.25 0 0 0 4.55-1.17zM304.78 149.79q0 4.72-4.12 6l5 6.94h-4.1l-4.56-6.47h-4.23v6.42h-3.22v-19.09h7.1q4.37 0 6.25 1.47t1.88 4.73zm-4.29 2.7a3.4 3.4 0 0 0 1-2.72 2.91 2.91 0 0 0-1-2.57 6.73 6.73 0 0 0-3.6-.7h-4.1v6.83h4q2.71.01 3.7-.84zM326.92 143.59v3h-10.18v5.05h9.15v2.87h-9.15v5.11h10.51v3h-13.74v-19.03zM341.24 146.1a4.23 4.23 0 0 0-2.31.57 1.92 1.92 0 0 0-.9 1.73 2 2 0 0 0 .9 1.77 13.6 13.6 0 0 0 3.84 1.32 10.57 10.57 0 0 1 4.42 2 4.72 4.72 0 0 1 1.49 3.78 5 5 0 0 1-1.88 4.06 7.51 7.51 0 0 1-4.94 1.56 11.6 11.6 0 0 1-7.95-3.09l2-2.43a9.1 9.1 0 0 0 6 2.51 4.1 4.1 0 0 0 2.47-.67 2.09 2.09 0 0 0 .91-1.77 2 2 0 0 0-.86-1.72 9 9 0 0 0-3-1.12 26.65 26.65 0 0 1-3.19-.93 7.21 7.21 0 0 1-1.94-1.11 4.62 4.62 0 0 1-1.69-3.93 4.79 4.79 0 0 1 1.93-4.08 7.75 7.75 0 0 1 4.77-1.43 11.45 11.45 0 0 1 3.63.6 9.51 9.51 0 0 1 3.11 1.69l-1.72 2.43a6.52 6.52 0 0 0-2.29-1.26 8.84 8.84 0 0 0-2.8-.48zM362.54 146.1a4.23 4.23 0 0 0-2.31.57 1.92 1.92 0 0 0-.9 1.73 2 2 0 0 0 .9 1.77 13.6 13.6 0 0 0 3.84 1.32 10.57 10.57 0 0 1 4.42 2 4.72 4.72 0 0 1 1.49 3.78 5 5 0 0 1-1.88 4.06 7.51 7.51 0 0 1-4.94 1.56 11.6 11.6 0 0 1-7.95-3.09l2-2.43a9.1 9.1 0 0 0 6 2.51 4.1 4.1 0 0 0 2.47-.67 2.09 2.09 0 0 0 .91-1.77 2 2 0 0 0-.86-1.72 9 9 0 0 0-3-1.12 26.65 26.65 0 0 1-3.19-.93 7.21 7.21 0 0 1-1.94-1.11 4.62 4.62 0 0 1-1.69-3.93 4.79 4.79 0 0 1 1.93-4.08 7.75 7.75 0 0 1 4.77-1.43 11.45 11.45 0 0 1 3.63.6 9.51 9.51 0 0 1 3.11 1.69l-1.72 2.43a6.52 6.52 0 0 0-2.29-1.26 8.84 8.84 0 0 0-2.8-.48zM378.06 143.59h3.22v19.09h-3.22zM406.65 160a10.47 10.47 0 0 1-14.31 0 10 10 0 0 1 0-14.09 10.47 10.47 0 0 1 14.31 0 10 10 0 0 1 0 14.09zm-2.36-11.95a6.69 6.69 0 0 0-9.58 0 7.13 7.13 0 0 0 0 9.8 6.69 6.69 0 0 0 9.58 0 7.13 7.13 0 0 0 0-9.8zM432 143.59h3.22v19.09h-3.5l-10.81-13.93v13.93h-3.22v-19.09h3.22L432 157.84zM447.34 158.33l-1.91 4.34H442l8.41-19.09h3.44l8.41 19.09h-3.44l-1.91-4.34zm8.25-3l-3.47-7.86-3.47 7.86zM469 162.67v-19.08h3.22v16h8.71v3.06zM105.45 181.22q4.2 3.81 4.2 10.59t-4.08 10.73q-4.08 4-12.48 4h-9.65v-29.12h10q7.81 0 12.01 3.8zm-.75 10.71q0-10-11.44-10h-4.91v19.93h5.45q5.28 0 8.09-2.52t2.81-7.4zM122.22 177.42h4.91v29.08h-4.91zM161.58 192.35h4.91v9.94q-4.12 4.53-11.78 4.54a14.85 14.85 0 0 1-10.8-4.24A15.42 15.42 0 0 1 144 181a14.77 14.77 0 0 1 10.71-4.33 15.23 15.23 0 0 1 10.44 3.66l-2.62 3.74a10.23 10.23 0 0 0-3.43-2 13 13 0 0 0-4-.56 10.34 10.34 0 0 0-7.41 2.85 10.24 10.24 0 0 0 7 17.75 12.58 12.58 0 0 0 6.93-1.79zM179.18 177.42h4.91v29.08h-4.91zM209.39 181.91v24.59h-4.91v-24.59h-8.82v-4.49h22.55v4.49zM231.6 199.88l-2.91 6.62h-5.24l12.82-29.08h5.24l12.82 29.08h-5.24l-2.91-6.62zm12.57-4.54l-5.28-12-5.28 12zM264.6 206.5v-29.08h4.91v24.42h13.27v4.66zM391.21 181.32a6.43 6.43 0 0 0-3.51.87 2.92 2.92 0 0 0-1.37 2.64 3.07 3.07 0 0 0 1.37 2.7 20.73 20.73 0 0 0 5.84 2 16.05 16.05 0 0 1 6.73 3 7.18 7.18 0 0 1 2.27 5.75 7.62 7.62 0 0 1-2.87 6.17 11.42 11.42 0 0 1-7.52 2.37 17.66 17.66 0 0 1-12.09-4.7l3.07-3.7a13.84 13.84 0 0 0 9.14 3.82 6.24 6.24 0 0 0 3.76-1 3.19 3.19 0 0 0 1.39-2.7 3 3 0 0 0-1.31-2.62 13.79 13.79 0 0 0-4.51-1.7 40.43 40.43 0 0 1-4.86-1.41 11 11 0 0 1-3-1.68q-2.58-2-2.58-6a7.28 7.28 0 0 1 2.93-6.21 11.8 11.8 0 0 1 7.25-2.18 17.4 17.4 0 0 1 5.53.91 14.47 14.47 0 0 1 4.74 2.58L399 184a9.91 9.91 0 0 0-3.49-1.91 13.43 13.43 0 0 0-4.3-.77zM435.23 177.5v4.61h-15.5v7.69h13.92v4.36h-13.92v7.77h16v4.61h-20.9v-29zM471.42 186.93q0 7.19-6.27 9.06l7.6 10.55h-6.23l-6.94-9.76h-6.44v9.76h-4.9v-29H459q6.65 0 9.51 2.24t2.91 7.15zM464.9 191a5.18 5.18 0 0 0 1.5-4.13q0-2.84-1.54-3.91t-5.48-1.06h-6.23v10.39h6.11q4.14.04 5.64-1.29zM497.59 206.54h-5.48l-11.68-29h5.48l8.93 21.69 8.93-21.69h5.48zM519.66 177.5h4.9v29h-4.9zM552.11 202.1a10.25 10.25 0 0 0 4.36-.85 15 15 0 0 0 3.82-2.72l3.16 3.24a14.53 14.53 0 0 1-11.2 5.11 15 15 0 0 1-10.93-4.24 15.4 15.4 0 0 1 .08-21.52 15.34 15.34 0 0 1 11.18-4.32 14.62 14.62 0 0 1 11.28 5l-3.12 3.41a13.65 13.65 0 0 0-3.93-2.78 11 11 0 0 0-4.34-.79 10.32 10.32 0 0 0-7.4 2.85 9.6 9.6 0 0 0-3 7.27 10 10 0 0 0 3 7.4 9.62 9.62 0 0 0 7.04 2.94zM596.06 177.5v4.61h-15.5v7.69h13.92v4.36h-13.92v7.77h16v4.61h-20.9v-29z" fill="#f6f5de"/><path fill="#b22e2e" d="M337.96 206.36h-8.7l13.02-28.29h8.75l-13.07 28.29M355.06 206.36h-8.66l13.04-28.29h8.72l-13.1 28.29"/><path fill="#326b92" d="M320.76 206.36h-26.08l13.09-28.29h26.08l-13.09 28.29"/><path d="M314.37 189.19l1.23-2-2.1-.86.32-1 2.2.54.19-2.33h1.06l.19 2.31 2.23-.52.32 1-2.1.86 1.21 2-.84.63-1.51-1.82-1.53 1.86zM309.36 200.29l1.23-2-2.1-.86.32-1 2.2.54.19-2.33h1.06l.19 2.31 2.23-.52.32 1-2.1.86 1.21 2-.84.63-1.53-1.86-1.53 1.86z" fill="#f6f5de"/></g></svg>