<svg xmlns="http://www.w3.org/2000/svg" xmlns:xlink="http://www.w3.org/1999/xlink" viewBox="0 0 680 750"><defs><symbol id="a" data-name="Flag 2" viewBox="0 0 338 130"><path fill="#b22e2e" d="M198.98 130H159L218.82 0H259l-60.02 130zM277.81 130H238L297.92 0H338l-60.19 130z"/><path fill="#326b92" d="M119.84 130H0L60.16 0H180l-60.16 130z"/><path d="M90.47 51.12l5.66-9.34-9.64-4L88 33.24l10.13 2.48L99 25h4.87l.89 10.63L115 33.24l1.49 4.57-9.64 4 5.56 9.34-3.86 2.85-7.05-8.54L94.45 54zM67.47 102.12l5.66-9.34-9.64-4L65 84.24l10.13 2.48L76 76h4.87l.89 10.63L92 84.24l1.49 4.57-9.64 4 5.56 9.34-3.86 2.85-7.05-8.54-7.05 8.54z" fill="#f6f5de"/></symbol></defs><g data-name="Layer 1"><path fill="#1d2b42" d="M680 750H0V0h680z"/><circle cx="340" cy="374.5" r="203.4" fill="#1f2d47" stroke="#b22e2e" stroke-miterlimit="10" stroke-width="6.496"/><g opacity=".4" fill="#bdbdbd"><ellipse cx="268.73" cy="358.19" rx="4.61" ry="4.45"/><ellipse cx="255.81" cy="358.19" rx="4.61" ry="4.45"/><ellipse cx="243.51" cy="358.19" rx="4.61" ry="4.45"/><ellipse cx="229.97" cy="358.19" rx="4.61" ry="4.45"/><ellipse cx="216.44" cy="358.19" rx="4.61" ry="4.45"/><path d="M275.76 345.57a4.62 4.62 0 1 0-4.86 4.2 4.51 4.51 0 0 0 4.86-4.2zM262.86 344.89a4.62 4.62 0 1 0-4.86 4.2 4.51 4.51 0 0 0 4.86-4.2zM250.57 344.24a4.62 4.62 0 1 0-4.86 4.2 4.51 4.51 0 0 0 4.86-4.2zM237.06 343.53a4.62 4.62 0 1 0-4.86 4.2 4.51 4.51 0 0 0 4.86-4.2zM223.54 342.82a4.62 4.62 0 1 0-4.86 4.2 4.51 4.51 0 0 0 4.86-4.2zM281.17 333.48a4.49 4.49 0 0 0-4.09-4.9 4.58 4.58 0 0 0-5.08 3.95 4.49 4.49 0 0 0 4.09 4.9 4.58 4.58 0 0 0 5.08-3.95zM268.32 332.15a4.49 4.49 0 0 0-4.09-4.9 4.58 4.58 0 0 0-5.08 3.95 4.49 4.49 0 0 0 4.09 4.9 4.58 4.58 0 0 0 5.08-3.95zM254.86 330.29a4.49 4.49 0 0 0-4.09-4.9 4.58 4.58 0 0 0-5.08 3.95 4.49 4.49 0 0 0 4.09 4.9 4.58 4.58 0 0 0 5.08-3.95zM242 328.89a4.49 4.49 0 0 0-4.09-4.9 4.58 4.58 0 0 0-5.08 3.95 4.49 4.49 0 0 0 4.09 4.9 4.58 4.58 0 0 0 5.08-3.95zM227.94 328.09a4.49 4.49 0 0 0-4.09-4.9 4.58 4.58 0 0 0-5.08 3.95 4.49 4.49 0 0 0 4.09 4.9 4.58 4.58 0 0 0 5.08-3.95zM288.77 322.85a4.46 4.46 0 0 0-3.67-5.2 4.61 4.61 0 0 0-5.4 3.54 4.46 4.46 0 0 0 3.67 5.2 4.61 4.61 0 0 0 5.4-3.54zM275.47 320.52a4.46 4.46 0 0 0-3.67-5.2 4.61 4.61 0 0 0-5.4 3.54 4.46 4.46 0 0 0 3.67 5.2 4.61 4.61 0 0 0 5.4-3.54zM262.2 317.62a4.46 4.46 0 0 0-3.67-5.2 4.61 4.61 0 0 0-5.4 3.54 4.46 4.46 0 0 0 3.67 5.2 4.61 4.61 0 0 0 5.4-3.54zM248.29 315.22a4.46 4.46 0 0 0-3.67-5.2 4.61 4.61 0 0 0-5.4 3.54 4.46 4.46 0 0 0 3.67 5.2 4.61 4.61 0 0 0 5.4-3.54zM234.33 313.33a4.46 4.46 0 0 0-3.67-5.2 4.61 4.61 0 0 0-5.4 3.54 4.46 4.46 0 0 0 3.67 5.2 4.61 4.61 0 0 0 5.4-3.54zM298.64 313.47a4.43 4.43 0 0 0-3.22-5.47 4.64 4.64 0 0 0-5.68 3.1 4.43 4.43 0 0 0 3.22 5.47 4.64 4.64 0 0 0 5.68-3.1zM285 309.51a4.43 4.43 0 0 0-3.22-5.47 4.64 4.64 0 0 0-5.68 3.1 4.43 4.43 0 0 0 3.22 5.47 4.64 4.64 0 0 0 5.68-3.1zM270.75 305.57a4.43 4.43 0 0 0-3.22-5.47 4.64 4.64 0 0 0-5.68 3.1 4.43 4.43 0 0 0 3.22 5.47 4.64 4.64 0 0 0 5.68-3.1zM255.86 302.68a4.43 4.43 0 0 0-3.22-5.47 4.64 4.64 0 0 0-5.68 3.1 4.43 4.43 0 0 0 3.22 5.47 4.64 4.64 0 0 0 5.68-3.1zM242.11 300.28a4.43 4.43 0 0 0-3.22-5.47 4.64 4.64 0 0 0-5.68 3.1 4.43 4.43 0 0 0 3.22 5.47 4.64 4.64 0 0 0 5.68-3.1zM310.32 305.76a4.43 4.43 0 0 0-3.22-5.47 4.64 4.64 0 0 0-5.68 3.1 4.43 4.43 0 0 0 3.22 5.47 4.64 4.64 0 0 0 5.68-3.1zM296 300.61a4.43 4.43 0 0 0-3.22-5.47 4.64 4.64 0 0 0-5.68 3.1 4.43 4.43 0 0 0 3.22 5.47 4.64 4.64 0 0 0 5.68-3.1zM281.21 296.08a4.43 4.43 0 0 0-3.21-5.48 4.64 4.64 0 0 0-5.68 3.1 4.43 4.43 0 0 0 3.22 5.47 4.64 4.64 0 0 0 5.67-3.09zM266.32 292a4.43 4.43 0 0 0-3.22-5.47 4.64 4.64 0 0 0-5.68 3.1 4.43 4.43 0 0 0 3.22 5.47 4.64 4.64 0 0 0 5.68-3.1zM252 288.42a4.43 4.43 0 0 0-3.22-5.47 4.64 4.64 0 0 0-5.68 3.1 4.43 4.43 0 0 0 3.22 5.47 4.64 4.64 0 0 0 5.68-3.1zM322.49 301.61a4.4 4.4 0 0 0-2.56-5.79 4.67 4.67 0 0 0-6 2.47 4.4 4.4 0 0 0 2.56 5.79 4.67 4.67 0 0 0 6-2.47zM322.49 289.15a4.4 4.4 0 0 0-2.56-5.79 4.67 4.67 0 0 0-6 2.47 4.4 4.4 0 0 0 2.56 5.79 4.67 4.67 0 0 0 6-2.47zM321.88 276.11a4.4 4.4 0 0 0-2.56-5.79 4.67 4.67 0 0 0-6 2.47 4.4 4.4 0 0 0 2.56 5.79 4.67 4.67 0 0 0 6-2.47zM321.26 263.06a4.4 4.4 0 0 0-2.56-5.79 4.67 4.67 0 0 0-6 2.47 4.4 4.4 0 0 0 2.56 5.79 4.67 4.67 0 0 0 6-2.47zM320 250.6a4.4 4.4 0 0 0-2.56-5.79 4.67 4.67 0 0 0-6 2.47 4.4 4.4 0 0 0 2.56 5.79 4.67 4.67 0 0 0 6-2.47zM336.64 298.05a4.4 4.4 0 0 0-2.56-5.79 4.67 4.67 0 0 0-6 2.47 4.4 4.4 0 0 0 2.56 5.79 4.67 4.67 0 0 0 6-2.47zM336.64 285.6a4.4 4.4 0 0 0-2.56-5.79 4.67 4.67 0 0 0-6 2.47 4.4 4.4 0 0 0 2.56 5.79 4.67 4.67 0 0 0 6-2.47zM336 272.55a4.4 4.4 0 0 0-2.56-5.79 4.67 4.67 0 0 0-6 2.47A4.4 4.4 0 0 0 330 275a4.67 4.67 0 0 0 6-2.45zM336 260.68a4.4 4.4 0 0 0-2.56-5.79 4.67 4.67 0 0 0-6 2.47 4.4 4.4 0 0 0 2.56 5.79 4.67 4.67 0 0 0 6-2.47zM336.64 247.64a4.4 4.4 0 0 0-2.56-5.79 4.67 4.67 0 0 0-6 2.47 4.4 4.4 0 0 0 2.56 5.79 4.67 4.67 0 0 0 6-2.47zM351.33 298.05a4.4 4.4 0 0 0-2.56-5.79 4.67 4.67 0 0 0-6 2.47 4.4 4.4 0 0 0 2.56 5.79 4.67 4.67 0 0 0 6-2.47zM352 285.6a4.4 4.4 0 0 0-2.56-5.79 4.67 4.67 0 0 0-6 2.47 4.4 4.4 0 0 0 2.56 5.79 4.67 4.67 0 0 0 6-2.47zM352.09 272.55a4.4 4.4 0 0 0-2.56-5.79 4.67 4.67 0 0 0-6 2.47 4.4 4.4 0 0 0 2.56 5.79 4.67 4.67 0 0 0 6-2.47zM352.09 260.68a4.4 4.4 0 0 0-2.56-5.79 4.67 4.67 0 0 0-6 2.47 4.4 4.4 0 0 0 2.56 5.79 4.67 4.67 0 0 0 6-2.47zM352.71 247.64a4.4 4.4 0 0 0-2.56-5.79 4.67 4.67 0 0 0-6 2.47 4.4 4.4 0 0 0 2.56 5.79 4.67 4.67 0 0 0 6-2.47zM308.27 294.36a4.4 4.4 0 0 0-2.56-5.79 4.67 4.67 0 0 0-6 2.47 4.4 4.4 0 0 0 2.56 5.79 4.67 4.67 0 0 0 6-2.47zM292.84 287.66a4.4 4.4 0 0 0-2.56-5.79 4.67 4.67 0 0 0-6 2.47 4.4 4.4 0 0 0 2.56 5.79 4.67 4.67 0 0 0 6-2.47zM291 273.43a4.4 4.4 0 0 0-2.56-5.79 4.67 4.67 0 0 0-6 2.47 4.4 4.4 0 0 0 2.56 5.79 4.67 4.67 0 0 0 6-2.47zM289.76 260.38a4.4 4.4 0 0 0-2.56-5.79 4.67 4.67 0 0 0-6 2.47 4.4 4.4 0 0 0 2.56 5.79 4.67 4.67 0 0 0 6-2.47zM306.37 280.54a4.4 4.4 0 0 0-2.56-5.79 4.67 4.67 0 0 0-6 2.47 4.4 4.4 0 0 0 2.56 5.79 4.67 4.67 0 0 0 6-2.47zM305.14 266.9a4.4 4.4 0 0 0-2.56-5.79 4.67 4.67 0 0 0-6 2.47 4.4 4.4 0 0 0 2.56 5.79 4.67 4.67 0 0 0 6-2.47zM303.91 255a4.4 4.4 0 0 0-2.56-5.79 4.67 4.67 0 0 0-6 2.47 4.4 4.4 0 0 0 2.56 5.79 4.67 4.67 0 0 0 6-2.47zM277.28 282.6a4.4 4.4 0 0 0-2.56-5.79 4.67 4.67 0 0 0-6 2.47 4.4 4.4 0 0 0 2.56 5.79 4.67 4.67 0 0 0 6-2.47zM274.82 268.37a4.4 4.4 0 0 0-2.56-5.79 4.67 4.67 0 0 0-6 2.47 4.4 4.4 0 0 0 2.56 5.79 4.67 4.67 0 0 0 6-2.47zM263.42 278.08a4.4 4.4 0 0 0-2.56-5.79 4.67 4.67 0 0 0-6 2.47 4.4 4.4 0 0 0 2.56 5.79 4.67 4.67 0 0 0 6-2.47z"/><ellipse cx="411.27" cy="358.19" rx="4.61" ry="4.45"/><ellipse cx="424.19" cy="358.19" rx="4.61" ry="4.45"/><ellipse cx="436.49" cy="358.19" rx="4.61" ry="4.45"/><ellipse cx="450.03" cy="358.19" rx="4.61" ry="4.45"/><ellipse cx="463.56" cy="358.19" rx="4.61" ry="4.45"/><path d="M404.24 345.57a4.62 4.62 0 1 1 4.86 4.2 4.51 4.51 0 0 1-4.86-4.2zM417.14 344.89a4.62 4.62 0 1 1 4.86 4.2 4.51 4.51 0 0 1-4.86-4.2zM429.43 344.24a4.62 4.62 0 1 1 4.86 4.2 4.51 4.51 0 0 1-4.86-4.2zM442.94 343.53a4.62 4.62 0 1 1 4.86 4.2 4.51 4.51 0 0 1-4.86-4.2zM456.46 342.82a4.62 4.62 0 1 1 4.86 4.2 4.51 4.51 0 0 1-4.86-4.2zM398.83 333.48a4.49 4.49 0 0 1 4.09-4.9 4.58 4.58 0 0 1 5.08 3.95 4.49 4.49 0 0 1-4.09 4.9 4.58 4.58 0 0 1-5.08-3.95zM411.68 332.15a4.49 4.49 0 0 1 4.09-4.9 4.58 4.58 0 0 1 5.08 3.95 4.49 4.49 0 0 1-4.09 4.9 4.58 4.58 0 0 1-5.08-3.95zM425.14 330.29a4.49 4.49 0 0 1 4.09-4.9 4.58 4.58 0 0 1 5.08 3.95 4.49 4.49 0 0 1-4.09 4.9 4.58 4.58 0 0 1-5.08-3.95zM438 328.89a4.49 4.49 0 0 1 4.09-4.9 4.58 4.58 0 0 1 5.08 3.95 4.49 4.49 0 0 1-4.09 4.9 4.58 4.58 0 0 1-5.08-3.95zM452.06 328.09a4.49 4.49 0 0 1 4.09-4.9 4.58 4.58 0 0 1 5.08 3.95 4.49 4.49 0 0 1-4.09 4.9 4.58 4.58 0 0 1-5.08-3.95zM391.23 322.85a4.46 4.46 0 0 1 3.67-5.2 4.61 4.61 0 0 1 5.4 3.54 4.46 4.46 0 0 1-3.67 5.2 4.61 4.61 0 0 1-5.4-3.54zM404.53 320.52a4.46 4.46 0 0 1 3.67-5.2 4.61 4.61 0 0 1 5.4 3.54 4.46 4.46 0 0 1-3.67 5.2 4.61 4.61 0 0 1-5.4-3.54zM417.8 317.62a4.46 4.46 0 0 1 3.67-5.2 4.61 4.61 0 0 1 5.4 3.54 4.46 4.46 0 0 1-3.67 5.2 4.61 4.61 0 0 1-5.4-3.54zM431.71 315.22a4.46 4.46 0 0 1 3.67-5.2 4.61 4.61 0 0 1 5.4 3.54 4.46 4.46 0 0 1-3.67 5.2 4.61 4.61 0 0 1-5.4-3.54zM445.67 313.33a4.46 4.46 0 0 1 3.67-5.2 4.61 4.61 0 0 1 5.4 3.54 4.46 4.46 0 0 1-3.67 5.2 4.61 4.61 0 0 1-5.4-3.54zM381.36 313.47a4.43 4.43 0 0 1 3.22-5.47 4.64 4.64 0 0 1 5.68 3.1 4.43 4.43 0 0 1-3.22 5.47 4.64 4.64 0 0 1-5.68-3.1zM395 309.51a4.43 4.43 0 0 1 3.22-5.47 4.64 4.64 0 0 1 5.68 3.1 4.43 4.43 0 0 1-3.22 5.47 4.64 4.64 0 0 1-5.68-3.1zM409.25 305.57a4.43 4.43 0 0 1 3.22-5.47 4.64 4.64 0 0 1 5.68 3.1 4.43 4.43 0 0 1-3.22 5.47 4.64 4.64 0 0 1-5.68-3.1zM424.14 302.68a4.43 4.43 0 0 1 3.22-5.47 4.64 4.64 0 0 1 5.68 3.1 4.43 4.43 0 0 1-3.22 5.47 4.64 4.64 0 0 1-5.68-3.1zM437.89 300.28a4.43 4.43 0 0 1 3.22-5.47 4.64 4.64 0 0 1 5.68 3.1 4.43 4.43 0 0 1-3.22 5.47 4.64 4.64 0 0 1-5.68-3.1zM369.68 305.76a4.43 4.43 0 0 1 3.22-5.47 4.64 4.64 0 0 1 5.68 3.1 4.43 4.43 0 0 1-3.22 5.47 4.64 4.64 0 0 1-5.68-3.1zM384 300.61a4.43 4.43 0 0 1 3.22-5.47 4.64 4.64 0 0 1 5.68 3.1 4.43 4.43 0 0 1-3.22 5.47 4.64 4.64 0 0 1-5.68-3.1zM398.79 296.08a4.43 4.43 0 0 1 3.21-5.48 4.64 4.64 0 0 1 5.68 3.1 4.43 4.43 0 0 1-3.22 5.47 4.64 4.64 0 0 1-5.67-3.09zM413.68 292a4.43 4.43 0 0 1 3.22-5.47 4.64 4.64 0 0 1 5.68 3.1 4.43 4.43 0 0 1-3.22 5.47 4.64 4.64 0 0 1-5.68-3.1zM428 288.42a4.43 4.43 0 0 1 3.22-5.47 4.64 4.64 0 0 1 5.68 3.1 4.43 4.43 0 0 1-3.22 5.47 4.64 4.64 0 0 1-5.68-3.1zM357.51 301.61a4.4 4.4 0 0 1 2.56-5.79 4.67 4.67 0 0 1 6 2.47 4.4 4.4 0 0 1-2.56 5.79 4.67 4.67 0 0 1-6-2.47zM357.51 289.15a4.4 4.4 0 0 1 2.56-5.79 4.67 4.67 0 0 1 6 2.47 4.4 4.4 0 0 1-2.56 5.79 4.67 4.67 0 0 1-6-2.47zM358.12 276.11a4.4 4.4 0 0 1 2.56-5.79 4.67 4.67 0 0 1 6 2.47 4.4 4.4 0 0 1-2.56 5.79 4.67 4.67 0 0 1-6-2.47zM358.74 263.06a4.4 4.4 0 0 1 2.56-5.79 4.67 4.67 0 0 1 6 2.47 4.4 4.4 0 0 1-2.56 5.79 4.67 4.67 0 0 1-6-2.47zM360 250.6a4.4 4.4 0 0 1 2.56-5.79 4.67 4.67 0 0 1 6 2.47 4.4 4.4 0 0 1-2.56 5.79 4.67 4.67 0 0 1-6-2.47zM371.73 294.36a4.4 4.4 0 0 1 2.56-5.79 4.67 4.67 0 0 1 6 2.47 4.4 4.4 0 0 1-2.56 5.79 4.67 4.67 0 0 1-6-2.47zM387.16 287.66a4.4 4.4 0 0 1 2.56-5.79 4.67 4.67 0 0 1 6 2.47 4.4 4.4 0 0 1-2.56 5.79 4.67 4.67 0 0 1-6-2.47zM389 273.43a4.4 4.4 0 0 1 2.56-5.79 4.67 4.67 0 0 1 6 2.47 4.4 4.4 0 0 1-2.56 5.79 4.67 4.67 0 0 1-6-2.47zM390.24 260.38a4.4 4.4 0 0 1 2.56-5.79 4.67 4.67 0 0 1 6 2.47 4.4 4.4 0 0 1-2.56 5.79 4.67 4.67 0 0 1-6-2.47zM373.63 280.54a4.4 4.4 0 0 1 2.56-5.79 4.67 4.67 0 0 1 6 2.47 4.4 4.4 0 0 1-2.56 5.79 4.67 4.67 0 0 1-6-2.47zM374.86 266.9a4.4 4.4 0 0 1 2.56-5.79 4.67 4.67 0 0 1 6 2.47 4.4 4.4 0 0 1-2.56 5.79 4.67 4.67 0 0 1-6-2.47zM376.09 255a4.4 4.4 0 0 1 2.56-5.79 4.67 4.67 0 0 1 6 2.47 4.4 4.4 0 0 1-2.56 5.79 4.67 4.67 0 0 1-6-2.47zM402.72 282.6a4.4 4.4 0 0 1 2.56-5.79 4.67 4.67 0 0 1 6 2.47 4.4 4.4 0 0 1-2.56 5.79 4.67 4.67 0 0 1-6-2.47zM405.18 268.37a4.4 4.4 0 0 1 2.56-5.79 4.67 4.67 0 0 1 6 2.47 4.4 4.4 0 0 1-2.56 5.79 4.67 4.67 0 0 1-6-2.47zM416.58 278.08a4.4 4.4 0 0 1 2.56-5.79 4.67 4.67 0 0 1 6 2.47 4.4 4.4 0 0 1-2.56 5.79 4.67 4.67 0 0 1-6-2.47z"/></g><g opacity=".4" fill="#bdbdbd"><ellipse cx="411.27" cy="387.86" rx="4.61" ry="4.45"/><ellipse cx="424.19" cy="387.86" rx="4.61" ry="4.45"/><ellipse cx="436.49" cy="387.86" rx="4.61" ry="4.45"/><ellipse cx="450.03" cy="387.86" rx="4.61" ry="4.45"/><ellipse cx="463.56" cy="387.86" rx="4.61" ry="4.45"/><path d="M404.24 400.47a4.62 4.62 0 1 0 4.86-4.2 4.51 4.51 0 0 0-4.86 4.2zM417.14 401.15A4.62 4.62 0 1 0 422 397a4.51 4.51 0 0 0-4.86 4.15zM429.43 401.8a4.62 4.62 0 1 0 4.86-4.2 4.51 4.51 0 0 0-4.86 4.2zM442.94 402.51a4.62 4.62 0 1 0 4.86-4.2 4.51 4.51 0 0 0-4.86 4.2zM456.46 403.23a4.62 4.62 0 1 0 4.86-4.2 4.51 4.51 0 0 0-4.86 4.2zM398.83 412.56a4.49 4.49 0 0 0 4.09 4.9 4.58 4.58 0 0 0 5.08-3.95 4.49 4.49 0 0 0-4.09-4.9 4.58 4.58 0 0 0-5.08 3.95zM411.68 413.89a4.49 4.49 0 0 0 4.09 4.9 4.58 4.58 0 0 0 5.08-3.95 4.49 4.49 0 0 0-4.09-4.9 4.58 4.58 0 0 0-5.08 3.95zM425.14 415.75a4.49 4.49 0 0 0 4.09 4.9 4.58 4.58 0 0 0 5.08-3.95 4.49 4.49 0 0 0-4.09-4.9 4.58 4.58 0 0 0-5.08 3.95zM438 417.15a4.49 4.49 0 0 0 4.09 4.9 4.58 4.58 0 0 0 5.08-3.95 4.49 4.49 0 0 0-4.09-4.9 4.58 4.58 0 0 0-5.08 3.95zM452.06 418a4.49 4.49 0 0 0 4.09 4.9 4.58 4.58 0 0 0 5.08-3.95 4.49 4.49 0 0 0-4.09-4.9 4.58 4.58 0 0 0-5.08 3.95zM391.23 423.19a4.46 4.46 0 0 0 3.67 5.2 4.61 4.61 0 0 0 5.4-3.54 4.46 4.46 0 0 0-3.67-5.2 4.61 4.61 0 0 0-5.4 3.54zM404.53 425.52a4.46 4.46 0 0 0 3.67 5.2 4.61 4.61 0 0 0 5.4-3.54 4.46 4.46 0 0 0-3.67-5.2 4.61 4.61 0 0 0-5.4 3.54zM417.8 428.42a4.46 4.46 0 0 0 3.67 5.2 4.61 4.61 0 0 0 5.4-3.54 4.46 4.46 0 0 0-3.67-5.2 4.61 4.61 0 0 0-5.4 3.54zM431.71 430.82a4.46 4.46 0 0 0 3.67 5.2 4.61 4.61 0 0 0 5.4-3.54 4.46 4.46 0 0 0-3.67-5.2 4.61 4.61 0 0 0-5.4 3.54zM445.67 432.72a4.46 4.46 0 0 0 3.67 5.2 4.61 4.61 0 0 0 5.4-3.54 4.46 4.46 0 0 0-3.67-5.2 4.61 4.61 0 0 0-5.4 3.54zM381.36 432.57a4.43 4.43 0 0 0 3.22 5.47 4.64 4.64 0 0 0 5.68-3.1 4.43 4.43 0 0 0-3.22-5.47 4.64 4.64 0 0 0-5.68 3.1zM395 436.54a4.43 4.43 0 0 0 3.22 5.47 4.64 4.64 0 0 0 5.68-3.1 4.43 4.43 0 0 0-3.22-5.47 4.64 4.64 0 0 0-5.68 3.1zM409.25 440.48a4.43 4.43 0 0 0 3.22 5.47 4.64 4.64 0 0 0 5.68-3.1 4.43 4.43 0 0 0-3.22-5.47 4.64 4.64 0 0 0-5.68 3.1zM424.14 443.36a4.43 4.43 0 0 0 3.22 5.47 4.64 4.64 0 0 0 5.68-3.1 4.43 4.43 0 0 0-3.22-5.47 4.64 4.64 0 0 0-5.68 3.1zM437.89 445.76a4.43 4.43 0 0 0 3.22 5.47 4.64 4.64 0 0 0 5.68-3.1 4.43 4.43 0 0 0-3.22-5.47 4.64 4.64 0 0 0-5.68 3.1zM369.68 440.28a4.43 4.43 0 0 0 3.22 5.47 4.64 4.64 0 0 0 5.68-3.1 4.43 4.43 0 0 0-3.22-5.47 4.64 4.64 0 0 0-5.68 3.1zM384 445.43a4.43 4.43 0 0 0 3.22 5.47 4.64 4.64 0 0 0 5.68-3.1 4.43 4.43 0 0 0-3.22-5.47 4.64 4.64 0 0 0-5.68 3.1zM398.79 450a4.43 4.43 0 0 0 3.22 5.47 4.64 4.64 0 0 0 5.68-3.1 4.43 4.43 0 0 0-3.22-5.47 4.64 4.64 0 0 0-5.68 3.1zM413.68 454a4.43 4.43 0 0 0 3.22 5.47 4.64 4.64 0 0 0 5.68-3.1 4.43 4.43 0 0 0-3.22-5.47 4.64 4.64 0 0 0-5.68 3.1zM428 457.62a4.43 4.43 0 0 0 3.22 5.47 4.64 4.64 0 0 0 5.68-3.1 4.43 4.43 0 0 0-3.22-5.47 4.64 4.64 0 0 0-5.68 3.1zM357.51 444.43a4.4 4.4 0 0 0 2.56 5.79 4.67 4.67 0 0 0 6-2.47 4.4 4.4 0 0 0-2.56-5.79 4.67 4.67 0 0 0-6 2.47zM357.51 456.89a4.4 4.4 0 0 0 2.56 5.79 4.67 4.67 0 0 0 6-2.47 4.4 4.4 0 0 0-2.56-5.79 4.67 4.67 0 0 0-6 2.47zM358.12 469.94a4.4 4.4 0 0 0 2.56 5.79 4.67 4.67 0 0 0 6-2.47 4.4 4.4 0 0 0-2.56-5.79 4.67 4.67 0 0 0-6 2.47zM358.74 483a4.4 4.4 0 0 0 2.56 5.79 4.67 4.67 0 0 0 6-2.47 4.4 4.4 0 0 0-2.56-5.79 4.67 4.67 0 0 0-6 2.47zM360 495.44a4.4 4.4 0 0 0 2.56 5.79 4.67 4.67 0 0 0 6-2.47A4.4 4.4 0 0 0 366 493a4.67 4.67 0 0 0-6 2.44zM343.36 448a4.4 4.4 0 0 0 2.56 5.79 4.67 4.67 0 0 0 6-2.47 4.4 4.4 0 0 0-2.56-5.79 4.67 4.67 0 0 0-6 2.47zM343.36 460.45a4.4 4.4 0 0 0 2.56 5.79 4.67 4.67 0 0 0 6-2.47 4.4 4.4 0 0 0-2.56-5.79 4.67 4.67 0 0 0-6 2.47zM344 473.5a4.4 4.4 0 0 0 2.56 5.79 4.67 4.67 0 0 0 6-2.47A4.4 4.4 0 0 0 350 471a4.67 4.67 0 0 0-6 2.5zM344 485.36a4.4 4.4 0 0 0 2.56 5.79 4.67 4.67 0 0 0 6-2.47 4.4 4.4 0 0 0-2.56-5.79 4.67 4.67 0 0 0-6 2.47zM343.36 498.41a4.4 4.4 0 0 0 2.56 5.79 4.67 4.67 0 0 0 6-2.47 4.4 4.4 0 0 0-2.56-5.79 4.67 4.67 0 0 0-6 2.47zM328.67 448a4.4 4.4 0 0 0 2.56 5.79 4.67 4.67 0 0 0 6-2.47 4.4 4.4 0 0 0-2.56-5.79 4.67 4.67 0 0 0-6 2.47zM328 460.45a4.4 4.4 0 0 0 2.56 5.79 4.67 4.67 0 0 0 6-2.47A4.4 4.4 0 0 0 334 458a4.67 4.67 0 0 0-6 2.45zM327.91 473.5a4.4 4.4 0 0 0 2.56 5.79 4.67 4.67 0 0 0 6-2.47 4.4 4.4 0 0 0-2.56-5.79 4.67 4.67 0 0 0-6 2.47zM327.91 485.36a4.4 4.4 0 0 0 2.56 5.79 4.67 4.67 0 0 0 6-2.47 4.4 4.4 0 0 0-2.56-5.79 4.67 4.67 0 0 0-6 2.47zM327.29 498.41a4.4 4.4 0 0 0 2.56 5.79 4.67 4.67 0 0 0 6-2.47 4.4 4.4 0 0 0-2.56-5.79 4.67 4.67 0 0 0-6 2.47zM371.73 451.68a4.4 4.4 0 0 0 2.56 5.79 4.67 4.67 0 0 0 6-2.47 4.4 4.4 0 0 0-2.56-5.79 4.67 4.67 0 0 0-6 2.47zM387.16 458.38a4.4 4.4 0 0 0 2.56 5.79 4.67 4.67 0 0 0 6-2.47 4.4 4.4 0 0 0-2.56-5.79 4.67 4.67 0 0 0-6 2.47zM389 472.62a4.4 4.4 0 0 0 2.56 5.79 4.67 4.67 0 0 0 6-2.47 4.4 4.4 0 0 0-2.56-5.79 4.67 4.67 0 0 0-6 2.47zM390.24 485.66a4.4 4.4 0 0 0 2.56 5.79 4.67 4.67 0 0 0 6-2.47 4.4 4.4 0 0 0-2.56-5.79 4.67 4.67 0 0 0-6 2.47zM373.63 465.5a4.4 4.4 0 0 0 2.56 5.79 4.67 4.67 0 0 0 6-2.47 4.4 4.4 0 0 0-2.56-5.79 4.67 4.67 0 0 0-6 2.47zM374.86 479.14a4.4 4.4 0 0 0 2.56 5.79 4.67 4.67 0 0 0 6-2.47 4.4 4.4 0 0 0-2.56-5.79 4.67 4.67 0 0 0-6 2.47zM376.09 491a4.4 4.4 0 0 0 2.56 5.79 4.67 4.67 0 0 0 6-2.47 4.4 4.4 0 0 0-2.56-5.79 4.67 4.67 0 0 0-6 2.47zM402.72 463.44a4.4 4.4 0 0 0 2.56 5.79 4.67 4.67 0 0 0 6-2.47 4.4 4.4 0 0 0-2.56-5.79 4.67 4.67 0 0 0-6 2.47zM405.18 477.68a4.4 4.4 0 0 0 2.56 5.79 4.67 4.67 0 0 0 6-2.47 4.4 4.4 0 0 0-2.56-5.79 4.67 4.67 0 0 0-6 2.47zM416.58 468a4.4 4.4 0 0 0 2.56 5.79 4.67 4.67 0 0 0 6-2.47 4.4 4.4 0 0 0-2.56-5.79 4.67 4.67 0 0 0-6 2.47z"/><ellipse cx="268.73" cy="387.86" rx="4.61" ry="4.45"/><ellipse cx="255.81" cy="387.86" rx="4.61" ry="4.45"/><ellipse cx="243.51" cy="387.86" rx="4.61" ry="4.45"/><ellipse cx="229.97" cy="387.86" rx="4.61" ry="4.45"/><ellipse cx="216.44" cy="387.86" rx="4.61" ry="4.45"/><path d="M275.76 400.47a4.62 4.62 0 1 1-4.86-4.2 4.51 4.51 0 0 1 4.86 4.2zM262.86 401.15A4.62 4.62 0 1 1 258 397a4.51 4.51 0 0 1 4.86 4.15zM250.57 401.8a4.62 4.62 0 1 1-4.86-4.2 4.51 4.51 0 0 1 4.86 4.2zM237.06 402.51a4.62 4.62 0 1 1-4.86-4.2 4.51 4.51 0 0 1 4.86 4.2zM223.54 403.23a4.62 4.62 0 1 1-4.86-4.2 4.51 4.51 0 0 1 4.86 4.2zM281.17 412.56a4.49 4.49 0 0 1-4.09 4.9 4.58 4.58 0 0 1-5.08-3.95 4.49 4.49 0 0 1 4.09-4.9 4.58 4.58 0 0 1 5.08 3.95zM268.32 413.89a4.49 4.49 0 0 1-4.09 4.9 4.58 4.58 0 0 1-5.08-3.95 4.49 4.49 0 0 1 4.09-4.9 4.58 4.58 0 0 1 5.08 3.95zM254.86 415.75a4.49 4.49 0 0 1-4.09 4.9 4.58 4.58 0 0 1-5.08-3.95 4.49 4.49 0 0 1 4.09-4.9 4.58 4.58 0 0 1 5.08 3.95zM242 417.15a4.49 4.49 0 0 1-4.09 4.9 4.58 4.58 0 0 1-5.08-3.95 4.49 4.49 0 0 1 4.09-4.9 4.58 4.58 0 0 1 5.08 3.95zM227.94 418a4.49 4.49 0 0 1-4.09 4.9 4.58 4.58 0 0 1-5.08-3.95 4.49 4.49 0 0 1 4.09-4.9 4.58 4.58 0 0 1 5.08 3.95zM288.77 423.19a4.46 4.46 0 0 1-3.67 5.2 4.61 4.61 0 0 1-5.4-3.54 4.46 4.46 0 0 1 3.67-5.2 4.61 4.61 0 0 1 5.4 3.54zM275.47 425.52a4.46 4.46 0 0 1-3.67 5.2 4.61 4.61 0 0 1-5.4-3.54 4.46 4.46 0 0 1 3.67-5.2 4.61 4.61 0 0 1 5.4 3.54zM262.2 428.42a4.46 4.46 0 0 1-3.67 5.2 4.61 4.61 0 0 1-5.4-3.54 4.46 4.46 0 0 1 3.67-5.2 4.61 4.61 0 0 1 5.4 3.54zM248.29 430.82a4.46 4.46 0 0 1-3.67 5.2 4.61 4.61 0 0 1-5.4-3.54 4.46 4.46 0 0 1 3.67-5.2 4.61 4.61 0 0 1 5.4 3.54zM234.33 432.72a4.46 4.46 0 0 1-3.67 5.2 4.61 4.61 0 0 1-5.4-3.54 4.46 4.46 0 0 1 3.67-5.2 4.61 4.61 0 0 1 5.4 3.54zM298.64 432.57a4.43 4.43 0 0 1-3.22 5.47 4.64 4.64 0 0 1-5.68-3.1 4.43 4.43 0 0 1 3.22-5.47 4.64 4.64 0 0 1 5.68 3.1zM285 436.54a4.43 4.43 0 0 1-3.22 5.47 4.64 4.64 0 0 1-5.68-3.1 4.43 4.43 0 0 1 3.22-5.47 4.64 4.64 0 0 1 5.68 3.1zM270.75 440.48a4.43 4.43 0 0 1-3.22 5.47 4.64 4.64 0 0 1-5.68-3.1 4.43 4.43 0 0 1 3.22-5.47 4.64 4.64 0 0 1 5.68 3.1zM255.86 443.36a4.43 4.43 0 0 1-3.22 5.47 4.64 4.64 0 0 1-5.68-3.1 4.43 4.43 0 0 1 3.22-5.47 4.64 4.64 0 0 1 5.68 3.1zM242.11 445.76a4.43 4.43 0 0 1-3.22 5.47 4.64 4.64 0 0 1-5.68-3.1 4.43 4.43 0 0 1 3.22-5.47 4.64 4.64 0 0 1 5.68 3.1zM310.32 440.28a4.43 4.43 0 0 1-3.22 5.47 4.64 4.64 0 0 1-5.68-3.1 4.43 4.43 0 0 1 3.22-5.47 4.64 4.64 0 0 1 5.68 3.1zM296 445.43a4.43 4.43 0 0 1-3.22 5.47 4.64 4.64 0 0 1-5.68-3.1 4.43 4.43 0 0 1 3.22-5.47 4.64 4.64 0 0 1 5.68 3.1zM281.21 450a4.43 4.43 0 0 1-3.22 5.47 4.64 4.64 0 0 1-5.68-3.1 4.43 4.43 0 0 1 3.22-5.47 4.64 4.64 0 0 1 5.68 3.1zM266.32 454a4.43 4.43 0 0 1-3.22 5.47 4.64 4.64 0 0 1-5.68-3.1 4.43 4.43 0 0 1 3.22-5.47 4.64 4.64 0 0 1 5.68 3.1zM252 457.62a4.43 4.43 0 0 1-3.22 5.47 4.64 4.64 0 0 1-5.68-3.1 4.43 4.43 0 0 1 3.22-5.47 4.64 4.64 0 0 1 5.68 3.1zM322.49 444.43a4.4 4.4 0 0 1-2.56 5.79 4.67 4.67 0 0 1-6-2.47 4.4 4.4 0 0 1 2.56-5.79 4.67 4.67 0 0 1 6 2.47zM322.49 456.89a4.4 4.4 0 0 1-2.56 5.79 4.67 4.67 0 0 1-6-2.47 4.4 4.4 0 0 1 2.56-5.79 4.67 4.67 0 0 1 6 2.47zM321.88 469.94a4.4 4.4 0 0 1-2.56 5.79 4.67 4.67 0 0 1-6-2.47 4.4 4.4 0 0 1 2.56-5.79 4.67 4.67 0 0 1 6 2.47zM321.26 483a4.4 4.4 0 0 1-2.56 5.79 4.67 4.67 0 0 1-6-2.47 4.4 4.4 0 0 1 2.56-5.79 4.67 4.67 0 0 1 6 2.47zM320 495.44a4.4 4.4 0 0 1-2.56 5.79 4.67 4.67 0 0 1-6-2.47A4.4 4.4 0 0 1 314 493a4.67 4.67 0 0 1 6 2.44zM308.27 451.68a4.4 4.4 0 0 1-2.56 5.79 4.67 4.67 0 0 1-6-2.47 4.4 4.4 0 0 1 2.56-5.79 4.67 4.67 0 0 1 6 2.47zM292.84 458.38a4.4 4.4 0 0 1-2.56 5.79 4.67 4.67 0 0 1-6-2.47 4.4 4.4 0 0 1 2.56-5.79 4.67 4.67 0 0 1 6 2.47zM291 472.62a4.4 4.4 0 0 1-2.56 5.79 4.67 4.67 0 0 1-6-2.47 4.4 4.4 0 0 1 2.56-5.79 4.67 4.67 0 0 1 6 2.47zM289.76 485.66a4.4 4.4 0 0 1-2.56 5.79 4.67 4.67 0 0 1-6-2.47 4.4 4.4 0 0 1 2.56-5.79 4.67 4.67 0 0 1 6 2.47zM306.37 465.5a4.4 4.4 0 0 1-2.56 5.79 4.67 4.67 0 0 1-6-2.47 4.4 4.4 0 0 1 2.56-5.79 4.67 4.67 0 0 1 6 2.47zM305.14 479.14a4.4 4.4 0 0 1-2.56 5.79 4.67 4.67 0 0 1-6-2.47 4.4 4.4 0 0 1 2.56-5.79 4.67 4.67 0 0 1 6 2.47zM303.91 491a4.4 4.4 0 0 1-2.56 5.79 4.67 4.67 0 0 1-6-2.47 4.4 4.4 0 0 1 2.56-5.79 4.67 4.67 0 0 1 6 2.47zM277.28 463.44a4.4 4.4 0 0 1-2.56 5.79 4.67 4.67 0 0 1-6-2.47 4.4 4.4 0 0 1 2.56-5.79 4.67 4.67 0 0 1 6 2.47zM274.82 477.68a4.4 4.4 0 0 1-2.56 5.79 4.67 4.67 0 0 1-6-2.47 4.4 4.4 0 0 1 2.56-5.79 4.67 4.67 0 0 1 6 2.47zM263.42 468a4.4 4.4 0 0 1-2.56 5.79 4.67 4.67 0 0 1-6-2.47 4.4 4.4 0 0 1 2.56-5.79 4.67 4.67 0 0 1 6 2.47z"/></g><path d="M175.58 342.08l10.18 1.59-.31 2.13-10.18-1.58-.56 3.84-1.86-.29 1.44-9.8 1.86.29zM187.25 335.12l-11.81-3.06.56-2.06 5.12 1.33 1.55-6.15-5.12-1.33.53-2.09 11.81 3.06-.53 2.09-4.83-1.25-1.55 6.15 4.83 1.25zM183.31 306.44l1.82.67-2.34 6.4 3 1.12 2.1-5.74 1.72.64-2.1 5.74 3.06 1.13 2.42-6.6 1.82.67-3.16 8.62-11.45-4.24zM201.28 292.83a4.68 4.68 0 0 0 .61-1.85 6.55 6.55 0 0 0-.2-2l1.86-.56a6.5 6.5 0 0 1-.48 5.35 6.76 6.76 0 0 1-3.87 3.35 6.27 6.27 0 0 1-7.92-4.37 6.91 6.91 0 0 1 .77-5.18 6.56 6.56 0 0 1 4.22-3.34l.6 1.89a6 6 0 0 0-1.86 1 5 5 0 0 0-1.21 1.51 4.65 4.65 0 0 0-.51 3.42 3.94 3.94 0 0 0 2 2.62 4.13 4.13 0 0 0 3.35.35 4.33 4.33 0 0 0 2.64-2.19zM212.57 275.57a7.24 7.24 0 0 1-5.48 7.84 6.21 6.21 0 0 1-7.4-5.13 7.24 7.24 0 0 1 5.48-7.84 6.21 6.21 0 0 1 7.4 5.13zm-7.18-3.06a4.62 4.62 0 0 0-3.67 5.25 4.41 4.41 0 0 0 5.15 3.57 4.62 4.62 0 0 0 3.67-5.25 4.41 4.41 0 0 0-5.15-3.57zM215.45 255.76l1.43-1.61 9.18 8-1.55 1.75-11.5-.45 6.7 5.86-1.43 1.61-9.18-8 1.43-1.61 11.78.45zM232.86 247.66l1.6-1.45 2.82 3.07A7.61 7.61 0 0 1 230 256a6.25 6.25 0 0 1-6.09-6.67 6.61 6.61 0 0 1 2.27-4.49 7 7 0 0 1 4.45-1.95l.21 1.93a4.62 4.62 0 0 0-1.69.39 6 6 0 0 0-1.47 1 4.63 4.63 0 0 0-1.61 3.06 4 4 0 0 0 1.15 3.19 4.08 4.08 0 0 0 3.06 1.44 4.46 4.46 0 0 0 3.1-1.21 5.71 5.71 0 0 0 1.75-2.59zM245.93 234.67a3.51 3.51 0 0 1 0 4.67l5.35 1.57-2.22 1.62-4.92-1.47-2.29 1.67 2.45 3.28-1.75 1.27-7.29-9.75 3.84-2.81a7.22 7.22 0 0 1 3.95-1.72 3.55 3.55 0 0 1 2.88 1.67zm-1.29 3.08a2.09 2.09 0 0 0-.5-1.78 1.83 1.83 0 0 0-1.53-.91 4.71 4.71 0 0 0-2.22 1.07l-2.22 1.62 2.61 3.49 2.17-1.59a4.08 4.08 0 0 0 1.69-1.9zM257 223.28l1 1.65-5.89 3.47 1.67 2.75L259 228l.95 1.56-5.29 3.12 1.69 2.78 6.08-3.59 1 1.65-7.94 4.69-6.31-10.39zM267 220a3 3 0 0 0-1.24 1 1.18 1.18 0 0 0-.06 1.25 1.29 1.29 0 0 0 1 .76 9.61 9.61 0 0 0 2.7-.35 7.38 7.38 0 0 1 3.25-.13 3 3 0 0 1 2 1.73 3.08 3.08 0 0 1 0 2.86 5.18 5.18 0 0 1-2.57 2.31 8.16 8.16 0 0 1-5.69.52l.55-2a6.39 6.39 0 0 0 4.35-.29 2.84 2.84 0 0 0 1.31-1.09 1.29 1.29 0 0 0 .06-1.28 1.27 1.27 0 0 0-1-.74 6.41 6.41 0 0 0-2.11.21 18.92 18.92 0 0 1-2.2.39 5 5 0 0 1-1.49-.08 3.28 3.28 0 0 1-2.1-4.65 5.36 5.36 0 0 1 2.49-2.19 8.13 8.13 0 0 1 2.38-.7 6.62 6.62 0 0 1 2.36.07l-.36 1.88a4.52 4.52 0 0 0-1.75-.06 6.26 6.26 0 0 0-1.88.58zM280.83 214.19a3 3 0 0 0-1.33.88 1.18 1.18 0 0 0-.17 1.24 1.28 1.28 0 0 0 1 .84A9.64 9.64 0 0 0 283 217a7.41 7.41 0 0 1 3.25.15 3 3 0 0 1 1.8 1.9 3.07 3.07 0 0 1-.26 2.84 5.2 5.2 0 0 1-2.76 2.07 8.18 8.18 0 0 1-5.72 0l.72-1.91a6.4 6.4 0 0 0 4.37.09 2.85 2.85 0 0 0 1.41-1A1.29 1.29 0 0 0 286 220a1.27 1.27 0 0 0-.94-.82 6.4 6.4 0 0 0-2.13 0 18.93 18.93 0 0 1-2.23.19 5 5 0 0 1-1.48-.2 3.28 3.28 0 0 1-1.68-4.81 5.38 5.38 0 0 1 2.68-2 8.1 8.1 0 0 1 2.43-.49 6.6 6.6 0 0 1 2.35.28l-.53 1.84a4.53 4.53 0 0 0-1.74-.21 6.3 6.3 0 0 0-1.9.41zM290.76 209.2l2.08-.61 3.56 11.58-2.08.61zM312.46 214.72a6.78 6.78 0 0 1-4.34 2.72 7 7 0 0 1-5.11-.78 5.9 5.9 0 0 1-2.87-4 5.73 5.73 0 0 1 1-4.76 6.78 6.78 0 0 1 4.34-2.72 7 7 0 0 1 5.11.78 5.9 5.9 0 0 1 2.87 4 5.73 5.73 0 0 1-1 4.76zm-3.19-7.08a4.52 4.52 0 0 0-3.44-.6 4.39 4.39 0 0 0-2.89 1.9 4.11 4.11 0 0 0-.62 3.3 4.23 4.23 0 0 0 2 2.77 4.52 4.52 0 0 0 3.44.6 4.4 4.4 0 0 0 2.89-1.9 4.12 4.12 0 0 0 .62-3.3 4.24 4.24 0 0 0-2-2.77zM328.25 202.36l2.17-.2 1.24 12-2.35.21-8.18-8.11.91 8.77-2.17.2-1.25-12 2.17-.2 8.39 8.3zM339.52 211.29l-1.31 2.71h-2.33l5.75-12h2.33l5.62 12.16h-2.33l-1.25-2.75zm5.59-1.79l-2.32-5-2.37 4.93zM353.86 214.64l1.19-12 2.17.24-1 10.08 5.86.64-.19 1.92zM386.29 210a5.46 5.46 0 0 1 .75 4.72 5.65 5.65 0 0 1-2.83 3.86q-2.15 1.14-5.77.21l-4.16-1.07 2.91-11.72 4.3 1.1a8.13 8.13 0 0 1 4.8 2.9zm-1.4 4.22q1-4-3.93-5.28l-2.12-.54-2 8 2.35.6a5.45 5.45 0 0 0 3.74-.12 3.75 3.75 0 0 0 1.96-2.66zM394.5 210.95l2.07.71-3.86 11.4-2.07-.71zM409 223.32l2 .87-1.6 3.81a7 7 0 0 1-5.55-.36 6.9 6.9 0 0 1-3.71-3.52 6.06 6.06 0 0 1 3.56-8.17 6.82 6.82 0 0 1 5.08.25 7.11 7.11 0 0 1 3.67 3.24l-1.68 1a4.66 4.66 0 0 0-1.07-1.44 6.21 6.21 0 0 0-1.55-.92 4.79 4.79 0 0 0-3.49-.23 4.29 4.29 0 0 0-2.48 5.66 4.54 4.54 0 0 0 2.42 2.31 5.89 5.89 0 0 0 3.12.55zM419.13 221.44l1.93 1-5.64 10.63-1.93-1zM430.35 230l-5.4 8.62-1.85-1.16 5.4-8.62-3.33-2.08 1-1.57 8.52 5.31-1 1.58zM434.61 241.87l-2.7 1.4-1.86-1.41 11.85-6.14 1.86 1.4-2.75 13-1.86-1.41.63-3zm5.6 1.88l1.13-5.36-4.88 2.53zM444.21 253l8.19-8.83 1.61 1.47-6.88 7.41 4.35 4-1.31 1.41zM469.45 264a3 3 0 0 0-1.28-1 1.21 1.21 0 0 0-1.24.22 1.23 1.23 0 0 0-.48 1.17 9.53 9.53 0 0 0 1 2.53 7.3 7.3 0 0 1 .93 3.1 2.86 2.86 0 0 1-1.21 2.28 3.12 3.12 0 0 1-2.8.63 5.37 5.37 0 0 1-2.9-2 8.1 8.1 0 0 1-1.91-5.37l2.07.09a6.32 6.32 0 0 0 1.36 4.13 2.94 2.94 0 0 0 1.39 1 1.31 1.31 0 0 0 1.27-.23 1.22 1.22 0 0 0 .47-1.13 6.32 6.32 0 0 0-.73-2 18.68 18.68 0 0 1-.92-2 4.91 4.91 0 0 1-.29-1.45 2.8 2.8 0 0 1 1.2-2.45 3 3 0 0 1 2.83-.62 5.56 5.56 0 0 1 2.79 2 8.2 8.2 0 0 1 1.27 2.13 6.51 6.51 0 0 1 .51 2.3l-1.94.07a4.47 4.47 0 0 0-.37-1.7 6.35 6.35 0 0 0-1.02-1.7zM482.75 279.48l-1.6 1.06-3.87-5.7-2.67 1.76 3.47 5.12-1.51 1-3.47-5.12-2.7 1.78 4 5.88-1.6 1.06-5.21-7.68 10.07-6.64zM487.66 296.11a3.59 3.59 0 0 1-4.66-.7l-2.29 5-1.32-2.41 2.14-4.59-1.36-2.51-3.6 1.88-1-1.91 10.71-5.6 2.28 4.22a7.24 7.24 0 0 1 1.18 4.15 3.42 3.42 0 0 1-2.08 2.47zm-2.89-1.75a2.11 2.11 0 0 0 1.84-.21 1.77 1.77 0 0 0 1.12-1.35 4.75 4.75 0 0 0-.77-2.35l-1.31-2.45-3.83 2 1.29 2.39a4.23 4.23 0 0 0 1.66 1.97zM485 310.2l-1-2.2 9.27-9.25.93 2.25-6.89 7 9.92.32.93 2.25zM499.74 315.36l.71 2.05-11.52 3.77-.71-2.05zM493.9 332.34a4.76 4.76 0 0 0 .79 1.8 6.75 6.75 0 0 0 1.5 1.4l-1 1.65a6.68 6.68 0 0 1-3.23-4.35 6.76 6.76 0 0 1 .61-5.08 5.74 5.74 0 0 1 3.93-2.84 6 6 0 0 1 4.86.92 7.1 7.1 0 0 1 2.91 4.41 6.54 6.54 0 0 1-.88 5.31l-1.71-1a5.92 5.92 0 0 0 .73-1.94 5.09 5.09 0 0 0-.12-1.94 4.77 4.77 0 0 0-1.92-2.92 4 4 0 0 0-3.27-.62 4 4 0 0 0-2.71 2 4.32 4.32 0 0 0-.49 3.2zM507.34 350.13l-1.92.23-.9-6.78-3.19.38.81 6.09-1.81.22-.81-6.09-3.23.38.93 7-1.92.23-1.21-9.15 12.07-1.44z" fill="#f0efe8"/><path d="M174.94 400.69l11.32-1.39.28 2-9.54 1.16.75 5.39-1.81.22zM190 419.18l-1.77.37-1.42-6.21-2.95.62 1.28 5.58-1.67.35-1.28-5.58-3 .63 1.47 6.41-1.77.37-1.89-8.36 11.11-2.36zM191.05 428.76l-9.2 2.8-.62-1.92 9.2-2.8-1.12-3.45 1.68-.51 2.86 8.82-1.68.51zM193.63 436.13a.82.82 0 0 1 .55-.7 1.05 1.05 0 0 1 .86 0 1.11 1.11 0 0 1 .55.62 1.13 1.13 0 0 1 0 .82.9.9 0 0 1-.56.55 1.49 1.49 0 0 1-.93 0l-1.67-.45-.38-1zM198 445.34a2.79 2.79 0 0 0-.93-1.17 1.14 1.14 0 0 0-1.18-.09 1.16 1.16 0 0 0-.72.95 8.72 8.72 0 0 0 .31 2.5 6.7 6.7 0 0 1 .11 3 2.69 2.69 0 0 1-1.65 1.77 3 3 0 0 1-2.7-.07 5 5 0 0 1-2.17-2.42 7.41 7.41 0 0 1-.46-5.27l1.86.55a5.79 5.79 0 0 0 .25 4 2.72 2.72 0 0 0 1 1.24 1.25 1.25 0 0 0 1.21.08 1.15 1.15 0 0 0 .7-.91 5.78 5.78 0 0 0-.19-2 17.23 17.23 0 0 1-.35-2 4.48 4.48 0 0 1 .08-1.37 2.64 2.64 0 0 1 1.67-1.93 2.85 2.85 0 0 1 2.73.09 5.14 5.14 0 0 1 2.06 2.35 7.5 7.5 0 0 1 .65 2.21 6 6 0 0 1-.08 2.18l-1.78-.38a4.08 4.08 0 0 0 .06-1.61 5.78 5.78 0 0 0-.48-1.7zM200.68 465.33l-2.83.39-1.2-1.8 12.45-1.71 1.2 1.8-6.6 10.54-1.2-1.8 1.5-2.4zm4.32 3.37l2.72-4.34-5.13.7zM220.17 479.38a5.05 5.05 0 0 1-2.1 3.92 5.42 5.42 0 0 1-4.32 1.31 7.54 7.54 0 0 1-4.48-3l-2.54-3.08 8.81-7.08 2.63 3.19a7.39 7.39 0 0 1 2 4.74zm-3.44 2.37q3-2.43 0-6.09l-1.29-1.57-6 4.85 1.43 1.74a5.11 5.11 0 0 0 2.89 2 3.61 3.61 0 0 0 2.96-.93zM231.12 490.73a5.06 5.06 0 0 1-1.67 4.13 5.4 5.4 0 0 1-4.15 1.76 7.54 7.54 0 0 1-4.77-2.54l-2.85-2.81 8-8 2.94 2.9a7.42 7.42 0 0 1 2.5 4.56zm-3.12 2.72q2.75-2.74-.63-6.06l-1.5-1.39-5.48 5.46L222 493a5.12 5.12 0 0 0 3.08 1.66 3.59 3.59 0 0 0 2.92-1.21zM244.58 501.9a2.82 2.82 0 0 0-1.37-.6 1.12 1.12 0 0 0-1.07.48A1.17 1.17 0 0 0 242 503a9 9 0 0 0 1.48 2.07 6.86 6.86 0 0 1 1.54 2.61 2.69 2.69 0 0 1-.58 2.35 2.91 2.91 0 0 1-2.44 1.17 5 5 0 0 1-3.06-1.12 7.58 7.58 0 0 1-2.94-4.45l1.89-.39a5.94 5.94 0 0 0 2.16 3.45 2.74 2.74 0 0 0 1.49.61 1.22 1.22 0 0 0 1.09-.5 1.15 1.15 0 0 0 .17-1.14 5.89 5.89 0 0 0-1.1-1.66 17.64 17.64 0 0 1-1.29-1.64 4.59 4.59 0 0 1-.59-1.25 2.64 2.64 0 0 1 .53-2.5 2.78 2.78 0 0 1 2.42-1.21 5.15 5.15 0 0 1 2.92 1.11 7.64 7.64 0 0 1 1.63 1.65 6.09 6.09 0 0 1 1 2l-1.73.5a4.17 4.17 0 0 0-.72-1.46 5.93 5.93 0 0 0-1.29-1.3zM256.75 519.7A6.95 6.95 0 0 1 249 515a5.65 5.65 0 0 1 4.3-7.13 6.95 6.95 0 0 1 7.74 4.67 5.66 5.66 0 0 1-4.3 7.13zm2.37-6.81a4.44 4.44 0 0 0-5.19-3.13 4 4 0 0 0-3 5 4.44 4.44 0 0 0 5.19 3.13 4 4 0 0 0 3-5zM264.64 525.63l-1.85-.85 4.66-10.27 2.89 1.32.38 8 6.24-4.94 2.87 1.31-4.66 10.28-1.85-.85 3.64-8-7.07 5.37-1-.47-.58-8.87zM293 524.78l-.56 1.7-6.09-2.06-.94 2.84 5.47 1.85-.53 1.61-5.47-1.85-1 2.87 6.29 2.13-.56 1.7-8.21-2.78 3.6-10.73zM308 530.06a2.78 2.78 0 0 0-1.49 0 1.1 1.1 0 0 0-.75.9 1.19 1.19 0 0 0 .36 1.14 9.08 9.08 0 0 0 2.23 1.25 6.91 6.91 0 0 1 2.51 1.71 2.74 2.74 0 0 1 .5 2.38 2.86 2.86 0 0 1-1.61 2.13 4.9 4.9 0 0 1-3.23.29 7.67 7.67 0 0 1-4.57-2.78l1.52-1.16a6 6 0 0 0 3.44 2.21 2.69 2.69 0 0 0 1.6-.08 1.2 1.2 0 0 0 .76-.92 1.18 1.18 0 0 0-.34-1.11 6 6 0 0 0-1.71-1 17.67 17.67 0 0 1-1.87-.94 4.7 4.7 0 0 1-1.08-.88 2.69 2.69 0 0 1-.61-2.5 2.74 2.74 0 0 1 1.64-2.14 5.08 5.08 0 0 1 3.1-.24 7.64 7.64 0 0 1 2.18.8 6.21 6.21 0 0 1 1.74 1.37l-1.33 1.2a4.26 4.26 0 0 0-1.28-1 5.93 5.93 0 0 0-1.71-.63zM321.92 532.5l-1 9.51-2-.24 1-9.51-3.62-.43.18-1.74 9.26 1.09-.18 1.74zM339.64 535.5a3.25 3.25 0 0 1-2.65 3.45l3.07 4.21-2.58-.08-2.8-3.9-2.68-.08v3.8l-2-.06.19-11.32 4.47.14a6.85 6.85 0 0 1 3.92 1 3.3 3.3 0 0 1 1.06 2.84zm-2.73 1.5a1.93 1.93 0 0 0 .65-1.59 1.71 1.71 0 0 0-.61-1.54 4.49 4.49 0 0 0-2.26-.48l-2.58-.08-.07 4 2.52.08a3.86 3.86 0 0 0 2.35-.39zM344.87 531.66l2-.08.62 11.32-2 .08zM360.69 531.4a3.72 3.72 0 0 1 1.62 2.9 3.47 3.47 0 0 1-.9 3.13 6.44 6.44 0 0 1-3.78 1.37l-2.11.23.41 3.3-2 .21-1.39-11.26 4.09-.44a6.48 6.48 0 0 1 4.06.56zm-.85 4.8a2.39 2.39 0 0 0 .38-1.84 1.85 1.85 0 0 0-1-1.57 4.7 4.7 0 0 0-2.46-.23l-2 .22.56 4.51 2.34-.25a3.21 3.21 0 0 0 2.19-.84zM374.59 528l.38 1.77-6.27 1.22.62 2.94 5.63-1.09.35 1.67-5.63 1.09.63 3 6.47-1.26.38 1.77-8.45 1.64-2.36-11.12zM383.37 527.23a2.71 2.71 0 0 0-1.29.72 1.1 1.1 0 0 0-.25 1.14 1.21 1.21 0 0 0 .85.86 8.91 8.91 0 0 0 2.54.11 6.91 6.91 0 0 1 3 .39 2.8 2.8 0 0 1 1.54 1.91 2.88 2.88 0 0 1-.44 2.63 4.79 4.79 0 0 1-2.71 1.72 7.59 7.59 0 0 1-5.32-.42l.8-1.73a5.94 5.94 0 0 0 4.05.42 2.63 2.63 0 0 0 1.38-.8 1.21 1.21 0 0 0 .25-1.17 1.19 1.19 0 0 0-.81-.84 5.93 5.93 0 0 0-2-.14 17.66 17.66 0 0 1-2.08 0 4.66 4.66 0 0 1-1.36-.3 3.09 3.09 0 0 1-1.23-4.62 5 5 0 0 1 2.63-1.62 7.55 7.55 0 0 1 2.29-.27 6.12 6.12 0 0 1 2.17.44l-.62 1.68a4.22 4.22 0 0 0-1.6-.33 5.85 5.85 0 0 0-1.79.22zM403.38 520.49l3.88 8.83-1.86.78-3.88-8.83-3.34 1.4-.71-1.61 8.53-3.57.71 1.61zM423.21 519.75a6.19 6.19 0 0 1-3.13 3.57 6.38 6.38 0 0 1-4.76.61 5.63 5.63 0 0 1-3.63-2.85 5.45 5.45 0 0 1-.44-4.54 6.19 6.19 0 0 1 3.13-3.57 6.38 6.38 0 0 1 4.76-.61 5.63 5.63 0 0 1 3.63 2.85 5.45 5.45 0 0 1 .44 4.54zm-4.75-5.58a4.14 4.14 0 0 0-3.22.34 4 4 0 0 0-2.06 2.46 3.92 3.92 0 0 0 .34 3.14 4 4 0 0 0 2.49 2 4.15 4.15 0 0 0 3.22-.34 4 4 0 0 0 2.06-2.46 3.92 3.92 0 0 0-.34-3.14 4 4 0 0 0-2.48-1.99zM440.52 510.37l-1.65 1.2-2.7-3.62-7.72-3 1.78-1.29L436 506l-.48-6.08 1.78-1.29.56 8.15zM453.89 497.35a6.17 6.17 0 0 1-2.21 4.2 6.3 6.3 0 0 1-4.48 1.67 5.63 5.63 0 0 1-4.18-2 5.52 5.52 0 0 1-1.47-4.34 6.18 6.18 0 0 1 2.21-4.2 6.3 6.3 0 0 1 4.48-1.67 5.63 5.63 0 0 1 4.18 2 5.51 5.51 0 0 1 1.47 4.34zM448 493a4.1 4.1 0 0 0-3 1 4 4 0 0 0-1.43 2.87 4 4 0 0 0 1.05 3 4 4 0 0 0 2.88 1.39 4.09 4.09 0 0 0 3.05-1.06 4 4 0 0 0 1.43-2.87 4 4 0 0 0-1.05-3A4 4 0 0 0 448 493zM460.28 489.52a2.81 2.81 0 0 0 2.18-1 2.77 2.77 0 0 0 .82-2.24A3.6 3.6 0 0 0 462 484l-4.69-4.28 1.36-1.47 4.75 4.33a4.7 4.7 0 0 1 .4 7.16 4.78 4.78 0 0 1-7.22.21l-4.75-4.33 1.36-1.47 4.69 4.28a3.65 3.65 0 0 0 2.38 1.09zM470.73 468.88a3.32 3.32 0 0 1 1.31 4.19h5.21l-1.54 2-4.8-.06-1.59 2.1 3.08 2.32-1.21 1.6-9.19-6.84 2.66-3.51a6.56 6.56 0 0 1 3.05-2.56 3.35 3.35 0 0 1 3.02.76zm-.31 3.1a2 2 0 0 0-.94-1.47 1.73 1.73 0 0 0-1.61-.43 4.3 4.3 0 0 0-1.69 1.53l-1.54 2 3.28 2.47 1.51-2a3.75 3.75 0 0 0 .99-2.08zM477.34 454.15a2.69 2.69 0 0 0-.4 1.42 1.15 1.15 0 0 0 .64 1 1.2 1.2 0 0 0 1.2 0 8.61 8.61 0 0 0 1.86-1.69 6.64 6.64 0 0 1 2.36-1.78 2.79 2.79 0 0 1 2.43.31 3 3 0 0 1 1.56 2.21 4.76 4.76 0 0 1-.68 3.14 7.33 7.33 0 0 1-4 3.4l-.66-1.81a5.74 5.74 0 0 0 3.14-2.52 2.6 2.6 0 0 0 .4-1.54 1.24 1.24 0 0 0-.65-1 1.18 1.18 0 0 0-1.16 0 5.69 5.69 0 0 0-1.49 1.28 17 17 0 0 1-1.46 1.46 4.55 4.55 0 0 1-1.17.73 2.74 2.74 0 0 1-2.58-.24 2.85 2.85 0 0 1-1.56-2.24 4.92 4.92 0 0 1 .69-3 7.28 7.28 0 0 1 1.42-1.79 6 6 0 0 1 1.83-1.19l.75 1.65a4.11 4.11 0 0 0-1.36.87 5.62 5.62 0 0 0-1.11 1.33zM483.8 441.85l8.83 4-.82 1.82-8.83-4-1.48 3.28-1.61-.74 3.79-8.37 1.61.74zM493.85 436.07l2.06 2-.71 2-9.06-8.81.71-2 12.53-1-.71 2-2.85.24zm0-5.44l-5.16.43 3.73 3.63zM495.42 412.4a3.38 3.38 0 0 1 2.86 3.37l4.77-2-.6 2.48-4.41 1.81-.62 2.56 3.74.94-.47 1.95-11.12-2.81 1-4.29a6.53 6.53 0 0 1 1.77-3.56 3.3 3.3 0 0 1 3.08-.45zm.95 3a2 2 0 0 0-1.44-1 1.7 1.7 0 0 0-1.64.23 4.28 4.28 0 0 0-.93 2.08l-.6 2.47 4 1 .59-2.42a3.79 3.79 0 0 0 .02-2.37zM494.71 403.21a2.73 2.73 0 0 0 .13 1.47 1.15 1.15 0 0 0 .95.72 1.18 1.18 0 0 0 1.13-.39 8.64 8.64 0 0 0 1.13-2.24 6.57 6.57 0 0 1 1.57-2.54 2.74 2.74 0 0 1 2.37-.57 3 3 0 0 1 2.24 1.53 4.84 4.84 0 0 1 .49 3.19 7.3 7.3 0 0 1-2.53 4.61l-1.26-1.47a5.7 5.7 0 0 0 2-3.47 2.63 2.63 0 0 0-.18-1.58 1.26 1.26 0 0 0-1-.73 1.17 1.17 0 0 0-1.1.37 5.7 5.7 0 0 0-.93 1.72 16.63 16.63 0 0 1-.83 1.88 4.44 4.44 0 0 1-.83 1.09 2.69 2.69 0 0 1-2.48.68 2.87 2.87 0 0 1-2.25-1.56 5 5 0 0 1-.43-3.07 7.31 7.31 0 0 1 .68-2.18 5.91 5.91 0 0 1 1.28-1.76l1.29 1.28a4 4 0 0 0-.95 1.3 5.67 5.67 0 0 0-.49 1.72z" fill="#326b92"/><use width="338" height="130" transform="matrix(.28 0 0 .28 292.37 356.18)" xlink:href="#a"/></g></svg>