<svg xmlns="http://www.w3.org/2000/svg" viewBox="0 0 203.95 398"><title>frame-phone</title><g id="Layer_2" data-name="Layer 2"><g id="Layer_1-2" data-name="Layer 1"><path d="M200.9,50.85V23.28c0-13.58-8.87-16-18-17.38l-.77-.12c-3.36-.5-9-1.34-15.65-2-5.91-.59-11.86-1-17.62-1.4l-.68-.05C131.54,1.17,116.21,1,108.55,1c-3.87,0-6.27,0-6.58.05S99.26,1,95.4,1c-7.66,0-23,.17-39.68,1.33L55,2.38c-5.75.39-11.71.81-17.61,1.4-6.65.67-12.29,1.51-15.65,2L21,5.91C11.91,7.25,3,9.7,3,23.28v54.2H1v0H1v0H1v0H1v0H1v0H1v0H1v0H1v0H1v0H1v0H1v0H1v61.28H3V374.72c0,13.58,8.87,16,18,17.38l.78.12c3.36.5,9,1.34,15.64,2,5.9.58,11.85,1,17.61,1.4l.69,0c16.69,1.15,32,1.33,39.68,1.33,3.86,0,6.27,0,6.58,0s2.71,0,6.58,0h0c7.66,0,23-.18,39.68-1.33l.69,0c5.75-.4,11.71-.81,17.61-1.4,6.64-.67,12.27-1.51,15.64-2l.78-.12c9.08-1.35,18-3.8,18-17.38V76.36h2V50.85ZM190.8,368.33H13.15V37.18H190.8Z" style="fill:#bdbdbd;stroke:#d1d1d1;stroke-miterlimit:10;stroke-width:2px"/><rect x="82.58" y="379.08" width="37.29" height="6.55" style="fill:none;stroke:#d1d1d1;stroke-miterlimit:10;stroke-width:2px"/><path d="M106.61,18.71c0,2.82-3.26,4.87-6.22,2.62-2.25-3-.18-6.2,2.63-6.2a3.58,3.58,0,0,1,3.58,3.58" style="fill:#d1d1d1"/></g></g></svg>
