<svg xmlns="http://www.w3.org/2000/svg" viewBox="0 0 532 358.5"><title>Asset 3</title><g id="Layer_2" data-name="Layer 2"><g id="Layer_1-2" data-name="Layer 1"><path d="M505.63,1.34H26.36C12.92,1.34,1,10.88,1,24.33V330.27c0,13.45,11.92,25.55,25.36,25.55H505.63c13.44,0,23.82-12.11,23.82-25.55V24.33C529.45,10.88,519.08,1.34,505.63,1.34ZM484.55,339.78a4,4,0,0,1-4,4H51a4,4,0,0,1-4-4V15.43a4,4,0,0,1,4-4H480.55a4,4,0,0,1,4,4Z" style="fill:#e0e0e0;stroke:#d1d1d1;stroke-miterlimit:10;stroke-width:2px"/><path d="M23.05,190.09h.08l.21,0a11,11,0,1,0,0-22.09l-.21,0h-.21a11,11,0,0,0,0,22.09h.13Z" style="fill:#d1d1d1"/><circle cx="507.94" cy="178.58" r="3.31" style="fill:#d1d1d1"/><circle cx="507.94" cy="171.49" r="1.03" style="fill:#d1d1d1"/><line x1="483.54" y1="357.5" x2="462.21" y2="357.5" style="fill:#e0e0e0;stroke:#d1d1d1;stroke-miterlimit:10;stroke-width:2px"/><line x1="531" y1="285.9" x2="531" y2="307.23" style="fill:#e0e0e0;stroke:#d1d1d1;stroke-miterlimit:10;stroke-width:2px"/><line x1="473.96" y1="1" x2="484.63" y2="1" style="fill:#e0e0e0;stroke:#d1d1d1;stroke-miterlimit:10;stroke-width:2px"/><line x1="455.79" y1="357.5" x2="434.45" y2="357.5" style="fill:#e0e0e0;stroke:#d1d1d1;stroke-miterlimit:10;stroke-width:2px"/></g></g></svg>