<svg xmlns="http://www.w3.org/2000/svg" xmlns:xlink="http://www.w3.org/1999/xlink" width="1440" height="340"><defs><circle id="a" cx="22" cy="22" r="22"/><path id="c" d="M18.003 4.02l-.817.82-3.598-3.612.817-.82a1.383 1.383 0 0 1 1.962 0l1.636 1.641a1.397 1.397 0 0 1 0 1.97zm-1.909 1.915l-3.597-3.611C9.693 5.138 4.555 10.294 2.36 12.499l3.597 3.611L16.094 5.935zM1.274 13.6c-.652.837-1.597 4.29-1.165 4.724.357.358 3.914-.485 4.75-1.124l-3.586-3.6z"/><filter id="d" width="176%" height="176%" x="-38%" y="-27.2%" filterUnits="objectBoundingBox"><feOffset dy="2" in="SourceAlpha" result="shadowOffsetOuter1"/><feGaussianBlur in="shadowOffsetOuter1" result="shadowBlurOuter1" stdDeviation="2"/><feColorMatrix in="shadowBlurOuter1" values="0 0 0 0 0 0 0 0 0 0 0 0 0 0 0 0 0 0 0.5 0"/></filter></defs><g fill="none" fill-rule="evenodd" transform="translate(148 146)"><mask id="b" fill="#fff"><use xlink:href="#a"/></mask><g fill="#EE3224" mask="url(#b)"><path d="M0 0h44v44H0z"/></g><g transform="translate(11.773 11.773)"><mask id="e" fill="#fff"><use xlink:href="#c"/></mask><use fill="#000" filter="url(#d)" xlink:href="#c"/><g fill="#FFF" mask="url(#e)"><path d="M-33.136-8.284h92v37h-92z"/></g></g></g></svg>