<svg xmlns="http://www.w3.org/2000/svg" width="1440" height="340"><path fill="none" stroke="#DA2F23" stroke-linecap="round" stroke-width="3" d="M509 176.756c4.12-6.074 8.878-11.76 12.358-18.222 6.917-12.84 13.23-26.031 18.753-39.53 1.57-3.838 1.49-16.247 2.414-12.204 1.865 8.16-.066 16.756.535 25.105a352.29 352.29 0 0 0 3.406 29.685c.468 2.963 1.97 11.585 7.105 12.302 6.115.855 13.579-2.729 18.662-5.5 19.721-10.754 38.805-22.696 58.863-32.807 36.278-18.285 76.779-30.903 117.725-24.144 85.806 14.164 149.999 76.134 229.666 106.18 109.298 41.223 233.692 7.816 331.513-47.948"/></svg>