<svg xmlns="http://www.w3.org/2000/svg" viewBox="0 0 681.6 302"><title>state-card1</title><rect width="211.5" height="302" style="fill:#fff"/><rect x="176.4" width="35.1" height="35.1" style="fill:#a6273c"/><path d="M187.9,21H190V14.2h-1.7v-.8a4.717,4.717,0,0,0,1.9-.7h.9V21H193v1h-5.2V21Z" style="fill:#ededed"/><path d="M194.9,17.8a2.33,2.33,0,0,0,1.5.7c.7,0,1-.3,1-.8s-.4-.6-.9-.9l-.8-.3a1.644,1.644,0,0,1-1.2-1.6,1.834,1.834,0,0,1,2-1.7,2.666,2.666,0,0,1,1.8.7l-.5.7a2.106,2.106,0,0,0-1.3-.5c-.6,0-.9.3-.9.7,0,.5.4.6.9.8l.8.3a1.621,1.621,0,0,1,1.2,1.6c0,1-.8,1.7-2.1,1.7a2.723,2.723,0,0,1-2.1-.9Z" style="fill:#ededed"/><path d="M200.6,14.3h-1.7v-.9h4.4v.9h-1.7v5h-1Z" style="fill:#ededed"/><polygon points="125.4 53.3 125.4 48 121.7 44.4 121.7 44.5 121.7 44.4 107.5 44.4 102.9 39.8 102.9 27.8 102.9 27.7 90.2 27.7 90.2 48.9 75.8 48.9 81.5 54.6 81.5 60.8 86.2 65.6 89.2 65.6 92.3 62.4 96 62.4 100 66.4 100 70.6 104.5 75.2 104.5 79.1 110 84.6 112.9 84.6 112.9 72.3 120.6 64.6 128.5 64.6 128.5 56.4 125.4 53.3" style="fill:#bdbdbd"/><path d="M81.4,103.2H77.2v-1.5H87.3v1.5H83.1v12.3H81.3V103.2Z" style="fill:#184d5b"/><path d="M92.1,105c2.6,0,4.1,1.9,4.1,4.8a2.22,2.22,0,0,1-.1.9H89.2c.1,2.2,1.4,3.6,3.4,3.6a4.147,4.147,0,0,0,2.5-.8l.6,1.1a5.988,5.988,0,0,1-3.4,1.1c-2.7,0-4.9-2-4.9-5.3C87.5,107.1,89.8,105,92.1,105Zm2.5,4.6c0-2.1-.9-3.2-2.5-3.2-1.4,0-2.7,1.2-2.9,3.2Z" style="fill:#184d5b"/><path d="M100.4,110.2l-3.1-4.9h1.9l1.4,2.2c.3.5.7,1.1,1,1.7h.1c.3-.6.6-1.2.9-1.7l1.2-2.2h1.8l-3.1,5.1,3.3,5.1H104l-1.5-2.4c-.4-.6-.7-1.2-1.1-1.8h-.1a16.179,16.179,0,0,0-1,1.8l-1.4,2.4H97.1Z" style="fill:#184d5b"/><path d="M113.5,109c0-1.3-.4-2.6-2.1-2.6a4.979,4.979,0,0,0-3,1.1l-.7-1.2a7.588,7.588,0,0,1,4-1.3c2.5,0,3.5,1.7,3.5,4.2v6.3h-1.4l-.1-1.2h0a5.556,5.556,0,0,1-3.4,1.5,2.808,2.808,0,0,1-3-2.9C107.2,110.6,109.1,109.5,113.5,109Zm-2.8,5.4a4.174,4.174,0,0,0,2.8-1.4v-2.8c-3.4.4-4.6,1.3-4.6,2.6C108.9,113.9,109.7,114.4,110.7,114.4Z" style="fill:#184d5b"/><path d="M118.2,113.2a4.714,4.714,0,0,0,3,1.2c1.3,0,2-.7,2-1.6,0-1.1-1.2-1.5-2.3-1.9-1.4-.5-3-1.2-3-2.9,0-1.6,1.3-2.9,3.5-2.9a4.831,4.831,0,0,1,3.2,1.2l-.8,1.1a3.877,3.877,0,0,0-2.3-.9c-1.3,0-1.9.7-1.9,1.5,0,1,1.1,1.3,2.3,1.8,1.5.5,3.1,1.2,3.1,3.1,0,1.7-1.3,3-3.7,3a6.314,6.314,0,0,1-3.8-1.4Z" style="fill:#184d5b"/><path d="M21.3,176.1h1.4v3.2H26v-3.2h1.4v8H26v-3.6H22.7v3.6H21.3Z" style="fill:#90a4ae"/><path d="M29.2,176.3a.906.906,0,1,1,.9.8A.817.817,0,0,1,29.2,176.3Zm.1,1.8h1.4v6H29.3Z" style="fill:#90a4ae"/><path d="M33,184h0a1.29,1.29,0,0,1-.5-1.1,1.23,1.23,0,0,1,.7-1.1h0a2.078,2.078,0,0,1-.8-1.6,2.208,2.208,0,0,1,2.4-2.2c.3,0,.6.1.9.1h2.2v1H36.8a1.493,1.493,0,0,1,.3,1,2.1,2.1,0,0,1-2.3,2.1,1.077,1.077,0,0,1-.8-.2.713.713,0,0,0-.3.6c0,.3.2.6,1,.6h1.1c1.5,0,2.2.4,2.2,1.5,0,1.2-1.3,2.1-3.2,2.1-1.4,0-2.5-.5-2.5-1.6C32.1,184.8,32.4,184.3,33,184Zm1.9,1.9c1,0,1.6-.5,1.6-1s-.4-.6-1.1-.6h-.8a1.949,1.949,0,0,1-.8-.1,1.02,1.02,0,0,0-.5.8C33.3,185.6,33.9,185.9,34.9,185.9Zm.9-5.7a1.063,1.063,0,0,0-1-1.2,1.133,1.133,0,0,0-1.1,1.2,1.079,1.079,0,0,0,1.1,1.2A1.126,1.126,0,0,0,35.8,180.2Z" style="fill:#90a4ae"/><path d="M38.9,175.5h1.4v3.4a2.647,2.647,0,0,1,1.9-.9c1.3,0,1.9.9,1.9,2.4v3.8H42.7v-3.6c0-1-.3-1.4-.9-1.4a2.053,2.053,0,0,0-1.4.8v4.2H39v-8.7Z" style="fill:#90a4ae"/><path d="M48.7,182.2a3.577,3.577,0,0,0,2.1.9c.9,0,1.4-.4,1.4-1,0-.7-.5-.9-1.2-1.2l-1.1-.5a2.279,2.279,0,0,1-1.6-2.1A2.44,2.44,0,0,1,51,176a3.946,3.946,0,0,1,2.5,1l-.7.9a2.837,2.837,0,0,0-1.7-.7c-.8,0-1.3.4-1.3.9,0,.6.6.9,1.3,1.1l1.1.5a2.281,2.281,0,0,1,1.6,2.2c0,1.3-1.1,2.4-2.9,2.4a4,4,0,0,1-2.9-1.2Z" style="fill:#90a4ae"/><path d="M57.6,178a2.481,2.481,0,0,1,1.8.7l-.7.9a1.284,1.284,0,0,0-1-.4c-1,0-1.6.8-1.6,2s.7,2,1.6,2a1.656,1.656,0,0,0,1.2-.5l.6.9a3.176,3.176,0,0,1-2,.8,3.211,3.211,0,0,1,.1-6.4Z" style="fill:#90a4ae"/><path d="M60.7,175.5h1.4v3.4A2.647,2.647,0,0,1,64,178c1.3,0,1.9.9,1.9,2.4v3.8H64.5v-3.6c0-1-.3-1.4-.9-1.4a2.053,2.053,0,0,0-1.4.8v4.2H60.8v-8.7Z" style="fill:#90a4ae"/><path d="M70,178a3.216,3.216,0,1,1-2.9,3.2C67.2,179.1,68.5,178,70,178Zm0,5.2c.9,0,1.4-.8,1.4-2s-.5-2-1.4-2-1.4.8-1.4,2S69.1,183.2,70,183.2Z" style="fill:#90a4ae"/><path d="M76.8,178a3.216,3.216,0,1,1-2.9,3.2A2.923,2.923,0,0,1,76.8,178Zm0,5.2c.9,0,1.4-.8,1.4-2s-.5-2-1.4-2-1.4.8-1.4,2S75.9,183.2,76.8,183.2Z" style="fill:#90a4ae"/><path d="M81.1,175.5h1.4v7.2c0,.3.2.5.3.5H83l.2,1.1a1.719,1.719,0,0,1-.8.1c-1,0-1.4-.7-1.4-1.7v-7.2Z" style="fill:#90a4ae"/><path d="M86.8,178c1.6,0,2.5,1.2,2.5,2.9a1.483,1.483,0,0,1-.1.7H85.4a1.706,1.706,0,0,0,1.8,1.7,3.255,3.255,0,0,0,1.4-.4l.5.9a3.771,3.771,0,0,1-2.1.7,2.944,2.944,0,0,1-3-3.2A3,3,0,0,1,86.8,178Zm1.2,2.6q0-1.5-1.2-1.5c-.7,0-1.3.5-1.5,1.5Z" style="fill:#90a4ae"/><path d="M90.6,178.1h1.2l.1,1.1h0a2,2,0,0,1,1.7-1.2,1.483,1.483,0,0,1,.7.1l-.2,1.2a1.268,1.268,0,0,0-.6-.1,1.511,1.511,0,0,0-1.4,1.2v3.7H90.7v-6Z" style="fill:#90a4ae"/><path d="M95.1,182.6a2.837,2.837,0,0,0,1.7.7c.7,0,1-.3,1-.7,0-.5-.7-.7-1.3-1-.8-.3-1.7-.8-1.7-1.8,0-1.1.8-1.8,2.2-1.8a3.221,3.221,0,0,1,2,.7l-.7.9a2.106,2.106,0,0,0-1.3-.5c-.6,0-.9.3-.9.7,0,.5.6.7,1.3.9.8.3,1.7.7,1.7,1.8,0,1-.8,1.9-2.3,1.9a4.539,4.539,0,0,1-2.3-.8Z" style="fill:#90a4ae"/><path d="M160.8,182.5h1.6v-5.1h-1.3v-.6a5.271,5.271,0,0,0,1.5-.5h.7v6.2h1.4v.7h-3.9Z" style="fill:#546e7a"/><path d="M169.3,177.2h-3.4v-.8h4.4v.6a9.594,9.594,0,0,0-2.1,6.3h-.9A9.516,9.516,0,0,1,169.3,177.2Z" style="fill:#546e7a"/><path d="M172.1,182a.708.708,0,0,1,0,1.4c-.4,0-.6-.3-.6-.7A.563.563,0,0,1,172.1,182Z" style="fill:#546e7a"/><path d="M173.9,179.8c0-2.3.8-3.6,2.2-3.6s2.2,1.2,2.2,3.6c0,2.3-.8,3.6-2.2,3.6S173.9,182.1,173.9,179.8Zm3.6,0c0-2-.5-2.8-1.3-2.8s-1.4.8-1.4,2.8.5,2.9,1.4,2.9C176.9,182.7,177.5,181.8,177.5,179.8Z" style="fill:#546e7a"/><path d="M179.2,178.3c0-1.4.6-2.2,1.6-2.2s1.6.8,1.6,2.2-.6,2.2-1.6,2.2S179.2,179.7,179.2,178.3Zm2.5,0c0-1.1-.4-1.7-.9-1.7-.6,0-.9.5-.9,1.7,0,1.1.4,1.7.9,1.7S181.7,179.4,181.7,178.3Zm-.7,5.1,3.9-7.3h.6l-3.9,7.3Zm3.1-2.2c0-1.4.6-2.2,1.6-2.2s1.6.8,1.6,2.2-.6,2.2-1.6,2.2S184.1,182.6,184.1,181.2Zm2.5,0c0-1.1-.4-1.7-.9-1.7s-.9.6-.9,1.7.4,1.7.9,1.7S186.6,182.3,186.6,181.2Z" style="fill:#546e7a"/><path d="M26.8,150.4H23.1l-.9,3h-2l3.6-11h2.3l3.6,11H27.6Zm-.5-1.6-.4-1.3c-.4-1.2-.7-2.4-1-3.6h-.1c-.3,1.2-.6,2.5-1,3.6l-.4,1.3Z" style="fill:#455a64"/><path d="M33.9,144.9a3.6,3.6,0,0,1,2.2.9l-.1-1.3v-3h1.9v11.9H36.3l-.1-.9h-.1a3.356,3.356,0,0,1-2.3,1.1c-2.1,0-3.4-1.6-3.4-4.3C30.4,146.5,32.1,144.9,33.9,144.9Zm.4,7A2.235,2.235,0,0,0,36,151v-3.9a2.51,2.51,0,0,0-1.7-.7c-1.1,0-1.9,1-1.9,2.7C32.4,151,33.1,151.9,34.3,151.9Z" style="fill:#455a64"/><path d="M40.3,145.1h1.9V150c0,1.4.4,1.9,1.3,1.9a2.132,2.132,0,0,0,1.8-1.1v-5.7h1.9v8.3H45.6l-.2-1.2h-.1a3.189,3.189,0,0,1-2.7,1.4c-1.8,0-2.5-1.2-2.5-3.3v-5.2Z" style="fill:#455a64"/><path d="M49.7,141.5h1.9v9.9c0,.5.2.6.4.6h.3l.3,1.4a2.509,2.509,0,0,1-1,.2c-1.4,0-1.9-.9-1.9-2.3Z" style="fill:#455a64"/><path d="M54.6,146.6H53.4v-1.4l1.3-.1.2-2.3h1.6v2.3h2.1v1.5H56.5v3.9c0,1,.4,1.4,1.2,1.4a2.92,2.92,0,0,0,.9-.2l.3,1.4a4.31,4.31,0,0,1-1.7.3c-1.9,0-2.6-1.2-2.6-3Z" style="fill:#455a64"/><path d="M60.5,151.1a3.337,3.337,0,0,0,2.3.9c.9,0,1.3-.4,1.3-1,0-.7-.9-1-1.8-1.3-1.1-.4-2.3-1-2.3-2.4s1.2-2.5,3-2.5a4.4,4.4,0,0,1,2.7,1l-.9,1.2a3.4,3.4,0,0,0-1.8-.7c-.8,0-1.2.4-1.2.9,0,.7.8.9,1.7,1.2,1.1.4,2.4,1,2.4,2.5,0,1.4-1.1,2.6-3.2,2.6a5.54,5.54,0,0,1-3.1-1.1Z" style="fill:#455a64"/><path d="M146.7,151.1a3.516,3.516,0,0,0,2.7,1.3,2,2,0,0,0,2.2-2c0-1.3-.9-2.1-3.4-2.1v-1.1c2.3,0,3-.9,3-2a1.688,1.688,0,0,0-1.9-1.7,3.568,3.568,0,0,0-2.3,1.1l-.7-.9a4.216,4.216,0,0,1,3.1-1.3c1.9,0,3.2,1,3.2,2.7a2.761,2.761,0,0,1-2,2.6v.1a2.7,2.7,0,0,1,2.3,2.7,3.218,3.218,0,0,1-3.5,3.1,4.437,4.437,0,0,1-3.5-1.5Z" style="fill:#546e7a"/><path d="M155.1,151.1a3.516,3.516,0,0,0,2.7,1.3,2,2,0,0,0,2.2-2c0-1.3-.9-2.1-3.4-2.1v-1.1c2.3,0,3-.9,3-2a1.688,1.688,0,0,0-1.9-1.7,3.568,3.568,0,0,0-2.3,1.1l-.7-.9a4.216,4.216,0,0,1,3.1-1.3c1.9,0,3.2,1,3.2,2.7a2.761,2.761,0,0,1-2,2.6v.1a2.7,2.7,0,0,1,2.3,2.7,3.218,3.218,0,0,1-3.5,3.1,4.437,4.437,0,0,1-3.5-1.5Z" style="fill:#546e7a"/><path d="M164.4,151.4a1.029,1.029,0,0,1,1,1.1,1,1,0,0,1-1,1,.945.945,0,0,1-1-1A1.1,1.1,0,0,1,164.4,151.4Z" style="fill:#546e7a"/><path d="M167.3,147.9c0-3.6,1.3-5.5,3.5-5.5,2.1,0,3.4,1.9,3.4,5.5s-1.3,5.6-3.4,5.6C168.6,153.5,167.3,151.5,167.3,147.9Zm5.5,0c0-3.1-.8-4.4-2.1-4.4s-2.1,1.3-2.1,4.4.8,4.5,2.1,4.5S172.8,151.1,172.8,147.9Z" style="fill:#546e7a"/><path d="M175.5,145.6c0-2.2,1-3.5,2.5-3.5s2.5,1.2,2.5,3.5c0,2.2-1,3.5-2.5,3.5S175.5,147.8,175.5,145.6Zm3.9,0c0-1.8-.6-2.6-1.4-2.6-.9,0-1.5.8-1.5,2.6s.6,2.6,1.5,2.6C178.8,148.2,179.4,147.3,179.4,145.6Zm-1.1,7.9,6.1-11.4h.9l-6.1,11.4Zm4.9-3.5c0-2.2,1-3.5,2.5-3.5s2.5,1.3,2.5,3.5-1,3.5-2.5,3.5S183.2,152.3,183.2,150Zm3.9,0c0-1.8-.6-2.6-1.4-2.6-.9,0-1.5.9-1.5,2.6s.6,2.6,1.5,2.6C186.5,152.7,187.1,151.8,187.1,150Z" style="fill:#546e7a"/><line x1="20.3" y1="167.3" x2="191.3" y2="167.3" style="fill:none;stroke:#e1e1e1;stroke-miterlimit:10;stroke-width:0.5px"/><path d="M21.2,209.8h1.7v-5.1H21.5v-.9a4.238,4.238,0,0,0,1.8-.6h1.1v6.7h1.5v1.2H21.2Z" style="fill:#90a4ae"/><path d="M27.1,207c0-2.6,1-4,2.7-4s2.7,1.4,2.7,4-1,4.1-2.7,4.1S27.1,209.6,27.1,207Zm3.9,0c0-2.2-.5-2.9-1.3-2.9s-1.3.7-1.3,2.9.6,3,1.3,3C30.5,210,31,209.2,31,207Z" style="fill:#90a4ae"/><path d="M33.4,207.3h2.9v1H33.4Z" style="fill:#90a4ae"/><path d="M37.8,209.8h1.7v-5.1H38.1v-.9a4.238,4.238,0,0,0,1.8-.6H41v6.7h1.5v1.2H37.8Z" style="fill:#90a4ae"/><path d="M47.4,204.3H43.7v-1.2H49v.9c-1.8,2.3-2.2,3.9-2.3,7H45.3A10.715,10.715,0,0,1,47.4,204.3Z" style="fill:#90a4ae"/><path d="M54.3,207.9l-2.4-5.1h1.5l.9,2.1c.2.6.5,1.2.7,1.8h0a13.356,13.356,0,0,0,.7-1.8l.9-2.1h1.5l-2.4,5.1v3H54.3Z" style="fill:#90a4ae"/><path d="M58.5,204.9h1.2l.1,1.1h0a2,2,0,0,1,1.7-1.2,1.483,1.483,0,0,1,.7.1l-.2,1.2a1.268,1.268,0,0,0-.6-.1,1.511,1.511,0,0,0-1.4,1.2v3.7H58.6v-6Z" style="fill:#90a4ae"/><path d="M62.4,207.3h2.9v1H62.4Z" style="fill:#90a4ae"/><path d="M69.2,204.7a3.216,3.216,0,1,1-2.9,3.2A3.042,3.042,0,0,1,69.2,204.7Zm0,5.2c.9,0,1.4-.8,1.4-2s-.5-2-1.4-2-1.4.8-1.4,2S68.4,209.9,69.2,209.9Z" style="fill:#90a4ae"/><path d="M73.5,202.2h1.4v7.2c0,.3.2.5.3.5h.2l.2,1.1a1.719,1.719,0,0,1-.8.1c-1,0-1.4-.7-1.4-1.7v-7.2Z" style="fill:#90a4ae"/><path d="M79,204.7a2.36,2.36,0,0,1,1.6.7v-3.2H82v8.7H80.8l-.1-.7h0a2.716,2.716,0,0,1-1.7.8c-1.5,0-2.5-1.2-2.5-3.2C76.5,205.9,77.7,204.7,79,204.7Zm.3,5.2a1.574,1.574,0,0,0,1.3-.7v-2.8a1.584,1.584,0,0,0-1.2-.5c-.8,0-1.4.7-1.4,2C77.9,209.2,78.4,209.9,79.3,209.9Z" style="fill:#90a4ae"/><path d="M83.8,209.3a2.837,2.837,0,0,0,1.7.7c.7,0,1-.3,1-.7,0-.5-.7-.7-1.3-1-.8-.3-1.7-.8-1.7-1.8,0-1.1.8-1.8,2.2-1.8a3.221,3.221,0,0,1,2,.7l-.7.9a2.106,2.106,0,0,0-1.3-.5c-.6,0-.9.3-.9.7,0,.5.6.7,1.3.9.8.3,1.7.7,1.7,1.8,0,1-.8,1.9-2.3,1.9a4.539,4.539,0,0,1-2.3-.8Z" style="fill:#90a4ae"/><path d="M160.8,209.3h1.6v-5.1h-1.3v-.6a5.271,5.271,0,0,0,1.5-.5h.7v6.2h1.4v.7h-3.9Z" style="fill:#546e7a"/><path d="M167.1,206.4h0a2.145,2.145,0,0,1-1-1.6,1.791,1.791,0,0,1,2-1.8,1.76,1.76,0,0,1,1.9,1.8,2.333,2.333,0,0,1-1,1.7h0a2.026,2.026,0,0,1,1.2,1.8,1.974,1.974,0,0,1-2.2,1.8,2.077,2.077,0,0,1-2.3-1.9A2.6,2.6,0,0,1,167.1,206.4Zm1,3.1a1.272,1.272,0,0,0,1.4-1.2c0-.9-.9-1.2-1.9-1.6a1.882,1.882,0,0,0-1,1.5A1.378,1.378,0,0,0,168.1,209.5Zm1.2-4.6a1.1,1.1,0,0,0-1.2-1.2,1.049,1.049,0,0,0-1.1,1.1c0,.8.8,1.2,1.6,1.5A2.334,2.334,0,0,0,169.3,204.9Z" style="fill:#546e7a"/><path d="M172.1,208.8a.708.708,0,0,1,0,1.4c-.4,0-.6-.3-.6-.7A.563.563,0,0,1,172.1,208.8Z" style="fill:#546e7a"/><path d="M177.7,204.3a1.606,1.606,0,0,0-1.1-.5c-1,0-1.8.7-1.8,2.9a2.2,2.2,0,0,1,1.6-.9,1.87,1.87,0,0,1,2,2.1,2.058,2.058,0,0,1-2,2.2c-1.4,0-2.4-1.1-2.4-3.3,0-2.8,1.3-3.8,2.6-3.8a2.413,2.413,0,0,1,1.7.7Zm-.2,3.6c0-.9-.4-1.5-1.3-1.5a1.889,1.889,0,0,0-1.4.9c.1,1.3.6,2.1,1.5,2.1C177,209.4,177.5,208.8,177.5,207.9Z" style="fill:#546e7a"/><path d="M179.2,205c0-1.4.6-2.2,1.6-2.2s1.6.8,1.6,2.2-.6,2.2-1.6,2.2C179.8,207.3,179.2,206.4,179.2,205Zm2.5,0c0-1.1-.4-1.7-.9-1.7-.6,0-.9.5-.9,1.7,0,1.1.4,1.7.9,1.7S181.7,206.1,181.7,205Zm-.7,5.1,3.9-7.3h.6l-3.9,7.3Zm3.1-2.2c0-1.4.6-2.2,1.6-2.2s1.6.8,1.6,2.2-.6,2.2-1.6,2.2S184.1,209.3,184.1,207.9Zm2.5,0c0-1.1-.4-1.7-.9-1.7s-.9.6-.9,1.7.4,1.7.9,1.7S186.6,209,186.6,207.9Z" style="fill:#546e7a"/><line x1="20.3" y1="193.3" x2="191.3" y2="193.3" style="fill:none;stroke:#e1e1e1;stroke-miterlimit:10;stroke-width:0.5px"/><path d="M21.3,228.9h1.4v6.8H26v1.2H21.2v-8Z" style="fill:#90a4ae"/><path d="M29.7,230.8a3.216,3.216,0,1,1-2.9,3.2A2.923,2.923,0,0,1,29.7,230.8Zm0,5.2c.9,0,1.4-.8,1.4-2s-.5-2-1.4-2-1.4.8-1.4,2C28.2,235.2,28.8,236,29.7,236Z" style="fill:#90a4ae"/><path d="M33.3,230.9h1.4l.7,3.1c.1.6.2,1.1.3,1.7h0a8.469,8.469,0,0,1,.4-1.7l.8-3.1h1.3L39,234c.1.6.3,1.1.4,1.7h0c.1-.6.2-1.2.3-1.7l.7-3.1h1.3l-1.5,6H38.5l-.7-2.8a14.905,14.905,0,0,0-.4-1.8h0a11.627,11.627,0,0,1-.4,1.8l-.7,2.8H34.7Z" style="fill:#90a4ae"/><path d="M45.7,228.9h1.4v8H45.7Z" style="fill:#90a4ae"/><path d="M49,230.9h1.2l.1.8h0a2.975,2.975,0,0,1,2-1c1.3,0,1.9.9,1.9,2.4v3.8H52.8v-3.6c0-1-.3-1.4-.9-1.4a2.053,2.053,0,0,0-1.4.8v4.2H49Z" style="fill:#90a4ae"/><path d="M58.6,230.8a2.481,2.481,0,0,1,1.8.7l-.7.9a1.284,1.284,0,0,0-1-.4c-1,0-1.6.8-1.6,2s.7,2,1.6,2a1.656,1.656,0,0,0,1.2-.5l.6.9a3.176,3.176,0,0,1-2,.8,2.924,2.924,0,0,1-2.9-3.2A2.844,2.844,0,0,1,58.6,230.8Z" style="fill:#90a4ae"/><path d="M63.8,230.8a3.216,3.216,0,1,1-2.9,3.2A2.923,2.923,0,0,1,63.8,230.8Zm0,5.2c.9,0,1.4-.8,1.4-2s-.5-2-1.4-2-1.4.8-1.4,2S62.9,236,63.8,236Z" style="fill:#90a4ae"/><path d="M68.1,230.9h1.2l.1.8h0a2.744,2.744,0,0,1,1.8-1,1.665,1.665,0,0,1,1.7,1.1,2.915,2.915,0,0,1,1.9-1.1c1.3,0,1.9.9,1.9,2.4v3.8H75.3v-3.6c0-1-.3-1.4-.9-1.4a1.721,1.721,0,0,0-1.3.8v4.2H71.7v-3.6c0-1-.3-1.4-.9-1.4a1.721,1.721,0,0,0-1.3.8v4.2H68.1v-6Z" style="fill:#90a4ae"/><path d="M80.8,230.8c1.6,0,2.5,1.2,2.5,2.9a1.483,1.483,0,0,1-.1.7H79.4a1.706,1.706,0,0,0,1.8,1.7,3.255,3.255,0,0,0,1.4-.4l.5.9a3.771,3.771,0,0,1-2.1.7,2.944,2.944,0,0,1-3-3.2A3,3,0,0,1,80.8,230.8Zm1.3,2.6q0-1.5-1.2-1.5c-.7,0-1.3.5-1.5,1.5Z" style="fill:#90a4ae"/><path d="M86.8,236.1c2.2-2.1,3.5-3.5,3.5-4.7A1.288,1.288,0,0,0,89,230a2.016,2.016,0,0,0-1.5.9l-.8-.8a3.034,3.034,0,0,1,2.5-1.2,2.285,2.285,0,0,1,2.5,2.4c0,1.4-1.3,2.8-2.8,4.5.4,0,.9-.1,1.3-.1H92v1.2H86.7v-.8Z" style="fill:#90a4ae"/><path d="M93.1,233.4H96v1H93.1Z" style="fill:#90a4ae"/><path d="M102.5,235h-1v2h-1.3v-2H96.7v-1l3.1-4.8h1.7v4.7h1Zm-2.3-1.1v-1.8a8.083,8.083,0,0,1,.1-1.6h0l-.6,1.2-1.4,2.2h1.9Z" style="fill:#90a4ae"/><path d="M103.8,235.4a2.837,2.837,0,0,0,1.7.7c.7,0,1-.3,1-.7,0-.5-.7-.7-1.3-1-.8-.3-1.7-.8-1.7-1.8,0-1.1.8-1.8,2.2-1.8a3.221,3.221,0,0,1,2,.7l-.7.9a2.106,2.106,0,0,0-1.3-.5c-.6,0-.9.3-.9.7,0,.5.6.7,1.3.9.8.3,1.7.7,1.7,1.8,0,1-.8,1.9-2.3,1.9a4.539,4.539,0,0,1-2.3-.8Z" style="fill:#90a4ae"/><path d="M160.8,235.3h1.6v-5.1h-1.3v-.6a5.271,5.271,0,0,0,1.5-.5h.7v6.2h1.4v.7h-3.9Z" style="fill:#546e7a"/><path d="M170.4,234.2h-.9v1.9h-.8v-1.9h-3.1v-.6l2.9-4.4h1v4.3h.9v.7Zm-1.8-.7v-2a5.283,5.283,0,0,1,.1-1.3h0a8.8,8.8,0,0,0-.6,1l-1.6,2.4h2.1Z" style="fill:#546e7a"/><path d="M172.1,234.8a.708.708,0,0,1,0,1.4c-.4,0-.6-.3-.6-.7A.563.563,0,0,1,172.1,234.8Z" style="fill:#546e7a"/><path d="M174.3,235.3h1.6v-5.1h-1.3v-.6a5.271,5.271,0,0,0,1.5-.5h.7v6.2h1.4v.7h-3.9Z" style="fill:#546e7a"/><path d="M179.2,231.1c0-1.4.6-2.2,1.6-2.2s1.6.8,1.6,2.2-.6,2.2-1.6,2.2S179.2,232.5,179.2,231.1Zm2.5,0c0-1.1-.4-1.7-.9-1.7-.6,0-.9.5-.9,1.7,0,1.1.4,1.7.9,1.7S181.7,232.2,181.7,231.1Zm-.7,5.1,3.9-7.3h.6l-3.9,7.3Zm3.1-2.2c0-1.4.6-2.2,1.6-2.2s1.6.8,1.6,2.2-.6,2.2-1.6,2.2S184.1,235.4,184.1,234Zm2.5,0c0-1.1-.4-1.7-.9-1.7s-.9.6-.9,1.7.4,1.7.9,1.7S186.6,235.1,186.6,234Z" style="fill:#546e7a"/><line x1="20.3" y1="219.2" x2="191.3" y2="219.2" style="fill:none;stroke:#e1e1e1;stroke-miterlimit:10;stroke-width:0.5px"/><line x1="20.3" y1="245.1" x2="191.3" y2="245.1" style="fill:none;stroke:#e1e1e1;stroke-miterlimit:10;stroke-width:0.5px"/><path d="M22.5,262.8h4.4v.8H23.4v2.6h2.9v.8H23.4v3.4h-1v-7.6Z" style="fill:#90a4ae"/><path d="M27.9,264.8h1v3.5c0,1.1.3,1.5,1.1,1.5.6,0,1-.3,1.5-1v-4h1v5.7h-.8l-.1-.9h0a2.417,2.417,0,0,1-1.9,1c-1.2,0-1.7-.8-1.7-2.2v-3.6Z" style="fill:#90a4ae"/><path d="M34.3,262.2h1v7.3c0,.3.1.4.3.4h.2l.1.7a.749.749,0,0,1-.5.1c-.7,0-1-.5-1-1.3v-7.2Z" style="fill:#90a4ae"/><path d="M37.3,262.2h1v7.3c0,.3.1.4.3.4h.2l.1.7a.749.749,0,0,1-.5.1c-.7,0-1-.5-1-1.3v-7.2Z" style="fill:#90a4ae"/><path d="M42.5,269.2a2.609,2.609,0,0,0,1.7.7c.7,0,1.1-.4,1.1-.9,0-.6-.7-.8-1.3-1.1-.8-.3-1.7-.7-1.7-1.6s.7-1.6,2-1.6a3.51,3.51,0,0,1,1.8.6l-.5.6a2.106,2.106,0,0,0-1.3-.5c-.7,0-1,.4-1,.8,0,.5.6.7,1.3,1,.8.3,1.7.6,1.7,1.7,0,.9-.7,1.7-2.1,1.7a3.037,3.037,0,0,1-2.1-.8Z" style="fill:#90a4ae"/><path d="M47.7,265.6h-.8v-.7l.9-.1.1-1.6h.8v1.6h1.5v.8H48.7v3.2c0,.7.2,1.1.9,1.1a1.072,1.072,0,0,0,.6-.2l.2.7a3.6,3.6,0,0,1-1.1.2c-1.2,0-1.6-.8-1.6-1.9Z" style="fill:#90a4ae"/><path d="M54.5,266.9c0-.7-.2-1.4-1.2-1.4a2.886,2.886,0,0,0-1.7.6l-.4-.7a4.4,4.4,0,0,1,2.2-.7c1.4,0,2,.9,2,2.3v3.5h-.8l-.1-.7h0a3.551,3.551,0,0,1-1.9.8,1.55,1.55,0,0,1-1.7-1.6C51,267.8,52.1,267.2,54.5,266.9Zm-1.5,3a2.449,2.449,0,0,0,1.6-.8v-1.6c-1.9.2-2.6.7-2.6,1.4A.9.9,0,0,0,53,269.9Z" style="fill:#90a4ae"/><path d="M57.5,265.6h-.8v-.7l.9-.1.1-1.6h.8v1.6H60v.8H58.5v3.2c0,.7.2,1.1.9,1.1a1.072,1.072,0,0,0,.6-.2l.2.7a3.6,3.6,0,0,1-1.1.2c-1.2,0-1.6-.8-1.6-1.9Z" style="fill:#90a4ae"/><path d="M63.3,264.7c1.5,0,2.3,1,2.3,2.7v.5H61.8a1.923,1.923,0,0,0,1.9,2,3.255,3.255,0,0,0,1.4-.4l.3.6a3.568,3.568,0,0,1-1.9.6,2.714,2.714,0,0,1-2.7-3A2.63,2.63,0,0,1,63.3,264.7Zm1.4,2.5c0-1.2-.5-1.8-1.4-1.8a1.763,1.763,0,0,0-1.6,1.8Z" style="fill:#90a4ae"/><path d="M69.3,262.2h1v3.3a2.5,2.5,0,0,1,1.8-.8c1.5,0,2.3,1.1,2.3,2.9,0,1.9-1.2,3.1-2.5,3.1a2.83,2.83,0,0,1-1.6-.7h0l-.1.6h-.8v-8.4Zm2.4,7.6c.9,0,1.6-.9,1.6-2.3,0-1.3-.4-2.1-1.5-2.1a2.244,2.244,0,0,0-1.5.8v3A1.885,1.885,0,0,0,71.7,269.8Z" style="fill:#90a4ae"/><path d="M75.8,264.8h.8l.1,1h0a2.072,2.072,0,0,1,1.6-1.2,1.268,1.268,0,0,1,.6.1l-.2.8a1.083,1.083,0,0,0-.6-.1c-.5,0-1.1.4-1.4,1.3v3.7h-1v-5.6Z" style="fill:#90a4ae"/><path d="M79.7,263c0-.4.3-.6.7-.6s.7.2.7.6-.3.6-.7.6S79.7,263.4,79.7,263Zm.2,1.8h1v5.7h-1Z" style="fill:#90a4ae"/><path d="M84.9,264.7c1.5,0,2.3,1,2.3,2.7v.5H83.4a1.923,1.923,0,0,0,1.9,2,3.255,3.255,0,0,0,1.4-.4l.3.6a3.568,3.568,0,0,1-1.9.6,2.714,2.714,0,0,1-2.7-3A2.63,2.63,0,0,1,84.9,264.7Zm1.4,2.5c0-1.2-.5-1.8-1.4-1.8a1.763,1.763,0,0,0-1.6,1.8Z" style="fill:#90a4ae"/><path d="M91.1,262.9a1.268,1.268,0,0,0-.6-.1c-.5,0-.8.4-.8,1.1v.9h1.2v.8H89.7v4.9h-1v-4.9H88v-.7l.8-.1v-.9c0-1.2.5-1.9,1.7-1.9a2,2,0,0,1,.9.2Z" style="fill:#90a4ae"/><path d="M21.4,272v-.6H91v.6Z" style="fill:#90a4ae"/><rect width="681.6" height="302" style="fill:none"/></svg>