<?xml version="1.0" encoding="utf-8"?>
<!-- Generator: Adobe Illustrator 18.1.1, SVG Export Plug-In . SVG Version: 6.00 Build 0)  -->
<svg version="1.1" id="Layer_1" xmlns="http://www.w3.org/2000/svg" xmlns:xlink="http://www.w3.org/1999/xlink" x="0px" y="0px"
	 width="680px" height="293px" viewBox="0 0 680 293" enable-background="new 0 0 680 293" xml:space="preserve">
<rect x="0" y="0" fill="transparent" width="339.6" height="293"/>
<rect x="339.6" y="0" fill="#5BBCC9" width="340.7" height="293"/>
<g>
	<line fill="none" stroke="#5BBCC9" stroke-width="2.2315" stroke-miterlimit="10" x1="145.7" y1="100.8" x2="245.2" y2="100.8"/>
	<line fill="none" stroke="#5BBCC9" stroke-width="2.2315" stroke-miterlimit="10" x1="210.2" y1="205.4" x2="248" y2="205.4"/>
	<g>
		<path fill="#FBF9F3" d="M100.8,86h2.1l2.2,6.7l2.4-6.7h1.5l2.4,6.7l2.2-6.7h2.1l-3.6,10.8h-1.5l-2.4-6.8l-2.4,6.8h-1.5L100.8,86z"
			/>
		<path fill="#FBF9F3" d="M122.8,95.6c-0.7,0.9-1.9,1.3-3.1,1.3c-2.2,0-3.9-1.5-3.9-3.9c0-2.1,1.4-3.9,3.6-3.9
			c2.1,0,3.5,1.7,3.5,3.8c0,0.2,0,0.4,0,0.6h-5.2c0.1,1,1,1.8,2,1.8c0.8,0,1.5-0.5,1.9-0.9L122.8,95.6z M121,92.1
			c-0.1-0.7-0.7-1.3-1.5-1.3c-0.8,0-1.5,0.6-1.6,1.3H121z"/>
		<path fill="#FBF9F3" d="M127.5,86l-1.8,4.5h-1.5l1.2-4.5H127.5z"/>
		<path fill="#FBF9F3" d="M133.2,91.1c-0.1,0-0.4-0.1-0.7-0.1c-0.9,0-1.6,0.6-1.8,1.1v4.7h-2v-7.5h1.9v0.8c0.4-0.6,1.3-0.9,2.2-0.9
			c0.3,0,0.5,0,0.7,0.1L133.2,91.1z"/>
		<path fill="#FBF9F3" d="M141,95.6c-0.7,0.9-1.9,1.3-3.1,1.3c-2.2,0-3.9-1.5-3.9-3.9c0-2.1,1.4-3.9,3.6-3.9c2.1,0,3.5,1.7,3.5,3.8
			c0,0.2,0,0.4,0,0.6H136c0.1,1,1,1.8,2,1.8c0.8,0,1.5-0.5,1.9-0.9L141,95.6z M139.2,92.1c-0.1-0.7-0.7-1.3-1.5-1.3
			c-0.8,0-1.5,0.6-1.6,1.3H139.2z"/>
		<path fill="#FBF9F3" d="M152.7,96.8c-0.3,0.1-0.9,0.2-1.2,0.2c-1.2,0-2.1-0.4-2.6-1.1c-0.4-0.5-0.6-1.2-0.6-2.2V91h-2.1v-1.7h2.1
			v-2.1h2v2.1h2.5V91h-2.5v2.8c0,0.5,0.1,0.7,0.2,0.9c0.2,0.2,0.5,0.4,1,0.4c0.3,0,0.7,0,0.8-0.1L152.7,96.8z"/>
		<path fill="#FBF9F3" d="M160.8,95.6c-0.7,0.9-1.9,1.3-3.1,1.3c-2.2,0-3.9-1.5-3.9-3.9c0-2.1,1.4-3.9,3.6-3.9
			c2.1,0,3.5,1.7,3.5,3.8c0,0.2,0,0.4,0,0.6h-5.2c0.1,1,1,1.8,2,1.8c0.8,0,1.5-0.5,1.9-0.9L160.8,95.6z M158.9,92.1
			c-0.1-0.7-0.7-1.3-1.5-1.3c-0.8,0-1.5,0.6-1.6,1.3H158.9z"/>
		<path fill="#FBF9F3" d="M169.6,95.2c-0.9,1.2-2,1.7-3.4,1.7c-2.3,0-4-1.7-4-3.9c0-2.2,1.7-3.9,4-3.9c1.3,0,2.4,0.6,3.1,1.5
			l-1.4,1.2c-0.4-0.5-1-0.9-1.7-0.9c-1.2,0-2,0.9-2,2c0,1.2,0.8,2,2.1,2c0.8,0,1.5-0.5,1.8-1L169.6,95.2z"/>
		<path fill="#FBF9F3" d="M173.1,96.8h-2V85.8h2v4c0.6-0.4,1.3-0.7,2-0.7c1,0,2,0.5,2.6,1.2c0.5,0.6,0.8,1.3,0.8,2.6v3.8h-2v-4
			c0-0.7-0.2-1.1-0.4-1.4c-0.3-0.3-0.7-0.4-1.1-0.4c-0.8,0-1.5,0.5-1.8,0.9V96.8z"/>
		<path fill="#FBF9F3" d="M180.7,96.8v-7.5h1.9v0.6c0.6-0.5,1.3-0.8,2.1-0.8c1,0,2,0.5,2.6,1.2c0.5,0.6,0.8,1.3,0.8,2.6v3.8h-2v-4
			c0-0.7-0.2-1.1-0.4-1.4c-0.3-0.3-0.7-0.4-1.1-0.4c-0.8,0-1.5,0.5-1.8,0.9v4.8H180.7z"/>
		<path fill="#FBF9F3" d="M193.5,89.1c2.3,0,4,1.7,4,3.9s-1.7,3.9-4,3.9s-4-1.7-4-3.9S191.3,89.1,193.5,89.1z M193.5,95.1
			c1.2,0,2-0.9,2-2s-0.8-2-2-2s-2,0.9-2,2S192.4,95.1,193.5,95.1z"/>
		<path fill="#FBF9F3" d="M201.2,96.8h-2V85.8h2V96.8z"/>
		<path fill="#FBF9F3" d="M206.9,89.1c2.3,0,4,1.7,4,3.9s-1.7,3.9-4,3.9s-4-1.7-4-3.9S204.6,89.1,206.9,89.1z M206.9,95.1
			c1.2,0,2-0.9,2-2s-0.8-2-2-2s-2,0.9-2,2S205.7,95.1,206.9,95.1z"/>
		<path fill="#FBF9F3" d="M219.8,96.3c0,1.3-0.2,2.1-0.7,2.8c-0.7,0.9-1.9,1.5-3.3,1.5c-1.5,0-2.8-0.7-3.6-1.5l1.3-1.3
			c0.4,0.4,1.1,1.1,2.3,1.1c0.6,0,1.2-0.2,1.5-0.6c0.3-0.3,0.5-0.8,0.5-1.8v-0.2c-0.6,0.5-1.2,0.7-2,0.7c-1.1,0-2.2-0.5-2.8-1.3
			c-0.6-0.7-0.9-1.6-0.9-2.6c0-2.2,1.6-3.9,3.7-3.9c0.8,0,1.6,0.3,2.2,0.8v-0.6h1.9V96.3z M217.8,91.9c-0.4-0.6-1.1-0.9-1.8-0.9
			c-1.2,0-1.9,1-1.9,2c0,1.2,0.8,2,2,2c0.8,0,1.4-0.4,1.8-0.9V91.9z"/>
		<path fill="#FBF9F3" d="M223.1,85.4c0.7,0,1.3,0.6,1.3,1.3c0,0.7-0.6,1.3-1.3,1.3s-1.3-0.6-1.3-1.3
			C221.8,85.9,222.4,85.4,223.1,85.4z M224.1,96.8h-2v-7.5h2V96.8z"/>
		<path fill="#FBF9F3" d="M226.7,94.5c0.5,0.5,1.3,0.7,2,0.7c0.5,0,1-0.3,1-0.6c0-1.1-3.6-0.7-3.6-3.1c0-1.4,1.4-2.3,2.9-2.3
			c1,0,2,0.4,2.5,0.8l-0.9,1.4c-0.4-0.3-0.9-0.5-1.4-0.5c-0.6,0-1,0.2-1,0.6c0,1,3.6,0.6,3.6,3.2c0,1.4-1.4,2.3-3,2.3
			c-1,0-2.1-0.4-3-1L226.7,94.5z"/>
		<path fill="#FBF9F3" d="M238.8,96.8c-0.3,0.1-0.9,0.2-1.2,0.2c-1.2,0-2.1-0.4-2.6-1.1c-0.4-0.5-0.6-1.2-0.6-2.2V91h-2.1v-1.7h2.1
			v-2.1h2v2.1h2.5V91h-2.5v2.8c0,0.5,0.1,0.7,0.2,0.9c0.2,0.2,0.5,0.4,1,0.4c0.3,0,0.7,0,0.8-0.1L238.8,96.8z"/>
		<path fill="#FBF9F3" d="M241,94.5c0.5,0.5,1.3,0.7,2,0.7c0.5,0,1-0.3,1-0.6c0-1.1-3.6-0.7-3.6-3.1c0-1.4,1.4-2.3,2.9-2.3
			c1,0,2,0.4,2.5,0.8l-0.9,1.4c-0.4-0.3-0.9-0.5-1.4-0.5c-0.6,0-1,0.2-1,0.6c0,1,3.6,0.6,3.6,3.2c0,1.4-1.4,2.3-3,2.3
			c-1,0-2.1-0.4-3-1L241,94.5z"/>
		<path fill="#FBF9F3" d="M102.4,122.8H101l-3.1-7.5h2l1.8,4.4l1.9-4.4h1.4l1.9,4.4l1.8-4.4h2l-3.1,7.5h-1.4l-1.9-4.3L102.4,122.8z"
			/>
		<path fill="#FBF9F3" d="M114,122.8h-2v-10.9h2v4c0.6-0.4,1.3-0.7,2-0.7c1,0,2,0.5,2.6,1.2c0.5,0.6,0.8,1.3,0.8,2.6v3.8h-2v-4
			c0-0.7-0.2-1.1-0.4-1.4c-0.3-0.3-0.7-0.4-1.1-0.4c-0.8,0-1.5,0.5-1.8,0.9V122.8z"/>
		<path fill="#FBF9F3" d="M124.9,115.1c2.3,0,4,1.7,4,3.9s-1.7,3.9-4,3.9s-4-1.7-4-3.9S122.6,115.1,124.9,115.1z M124.9,121.1
			c1.2,0,2-0.9,2-2s-0.8-2-2-2s-2,0.9-2,2S123.7,121.1,124.9,121.1z"/>
		<path fill="#FBF9F3" d="M141.7,115.3v7.5h-1.9v-0.6c-0.6,0.5-1.3,0.8-2,0.8c-1,0-2-0.5-2.5-1.2c-0.5-0.6-0.8-1.4-0.8-2.5v-4h2v4
			c0,0.7,0.1,1,0.4,1.3c0.3,0.3,0.7,0.5,1.1,0.5c0.8,0,1.5-0.6,1.7-0.9v-4.8H141.7z"/>
		<path fill="#FBF9F3" d="M144.1,122.8v-7.5h1.9v0.6c0.6-0.5,1.3-0.8,2.1-0.8c1,0,2,0.5,2.6,1.2c0.5,0.6,0.8,1.3,0.8,2.6v3.8h-2v-4
			c0-0.7-0.2-1.1-0.4-1.4c-0.3-0.3-0.7-0.4-1.1-0.4c-0.8,0-1.5,0.5-1.8,0.9v4.8H144.1z"/>
		<path fill="#FBF9F3" d="M158.8,122.8v-0.6c-0.6,0.5-1.3,0.8-2.1,0.8c-1.1,0-2.2-0.5-2.8-1.3c-0.6-0.7-1-1.6-1-2.6
			c0-2.2,1.6-3.9,3.7-3.9c0.8,0,1.5,0.2,2.1,0.7v-4h2v10.9H158.8z M158.7,117.9c-0.4-0.6-1.1-0.9-1.8-0.9c-1.2,0-1.9,1-1.9,2
			c0,1.2,0.8,2,2,2c0.8,0,1.4-0.4,1.8-0.9V117.9z"/>
		<path fill="#FBF9F3" d="M169.4,121.6c-0.7,0.9-1.9,1.3-3.1,1.3c-2.2,0-3.9-1.5-3.9-3.9c0-2.1,1.4-3.9,3.6-3.9
			c2.1,0,3.5,1.7,3.5,3.8c0,0.2,0,0.4,0,0.6h-5.2c0.1,1,1,1.8,2,1.8c0.8,0,1.5-0.5,1.9-0.9L169.4,121.6z M167.5,118.1
			c-0.1-0.7-0.7-1.3-1.5-1.3c-0.8,0-1.5,0.6-1.6,1.3H167.5z"/>
		<path fill="#FBF9F3" d="M175.8,117.1c-0.1,0-0.4-0.1-0.7-0.1c-0.9,0-1.6,0.6-1.8,1.1v4.7h-2v-7.5h1.9v0.8c0.4-0.6,1.3-0.9,2.2-0.9
			c0.3,0,0.5,0,0.7,0.1L175.8,117.1z"/>
		<path fill="#FBF9F3" d="M177.7,120.5c0.5,0.5,1.3,0.7,2,0.7c0.5,0,1-0.3,1-0.6c0-1.1-3.6-0.7-3.6-3.1c0-1.4,1.4-2.3,2.9-2.3
			c1,0,2,0.4,2.5,0.8l-0.9,1.4c-0.4-0.3-0.9-0.5-1.4-0.5c-0.6,0-1,0.2-1,0.6c0,1,3.6,0.6,3.6,3.2c0,1.4-1.4,2.3-3,2.3
			c-1,0-2.1-0.4-3-1L177.7,120.5z"/>
		<path fill="#FBF9F3" d="M189.9,122.8c-0.3,0.1-0.9,0.2-1.2,0.2c-1.2,0-2.1-0.4-2.6-1.1c-0.4-0.5-0.6-1.2-0.6-2.2V117h-2.1v-1.7
			h2.1v-2.1h2v2.1h2.5v1.7h-2.5v2.8c0,0.5,0.1,0.7,0.2,0.9c0.2,0.2,0.5,0.4,1,0.4c0.3,0,0.7,0,0.8-0.1L189.9,122.8z"/>
		<path fill="#FBF9F3" d="M198.8,122.8h-1.9v-0.6c-0.6,0.5-1.3,0.8-2.1,0.8c-1.1,0-2.2-0.5-2.8-1.3c-0.6-0.7-1-1.6-1-2.6
			c0-2.2,1.6-3.9,3.7-3.9c0.8,0,1.6,0.3,2.2,0.8v-0.6h1.9V122.8z M196.8,117.9c-0.4-0.6-1.1-0.9-1.8-0.9c-1.2,0-1.9,1-1.9,2
			c0,1.2,0.8,2,2,2c0.8,0,1.4-0.4,1.8-0.9V117.9z"/>
		<path fill="#FBF9F3" d="M201.1,122.8v-7.5h1.9v0.6c0.6-0.5,1.3-0.8,2.1-0.8c1,0,2,0.5,2.6,1.2c0.5,0.6,0.8,1.3,0.8,2.6v3.8h-2v-4
			c0-0.7-0.2-1.1-0.4-1.4c-0.3-0.3-0.7-0.4-1.1-0.4c-0.8,0-1.5,0.5-1.8,0.9v4.8H201.1z"/>
		<path fill="#FBF9F3" d="M215.9,122.8v-0.6c-0.6,0.5-1.3,0.8-2.1,0.8c-1.1,0-2.2-0.5-2.8-1.3c-0.6-0.7-1-1.6-1-2.6
			c0-2.2,1.6-3.9,3.7-3.9c0.8,0,1.5,0.2,2.1,0.7v-4h2v10.9H215.9z M215.8,117.9c-0.4-0.6-1.1-0.9-1.8-0.9c-1.2,0-1.9,1-1.9,2
			c0,1.2,0.8,2,2,2c0.8,0,1.4-0.4,1.8-0.9V117.9z"/>
		<path fill="#FBF9F3" d="M226.2,122.8h-2v-10.9h2V122.8z"/>
		<path fill="#FBF9F3" d="M235.7,122.8h-1.9v-0.6c-0.6,0.5-1.3,0.8-2.1,0.8c-1.1,0-2.2-0.5-2.8-1.3c-0.6-0.7-1-1.6-1-2.6
			c0-2.2,1.6-3.9,3.7-3.9c0.8,0,1.6,0.3,2.2,0.8v-0.6h1.9V122.8z M233.7,117.9c-0.4-0.6-1.1-0.9-1.8-0.9c-1.2,0-1.9,1-1.9,2
			c0,1.2,0.8,2,2,2c0.8,0,1.4-0.4,1.8-0.9V117.9z"/>
		<path fill="#FBF9F3" d="M241.5,122.8h-1.4l-3.1-7.5h2l1.8,4.4l1.9-4.4h1.4l1.9,4.4l1.8-4.4h2l-3.1,7.5h-1.4l-1.9-4.3L241.5,122.8z
			"/>
		<path fill="#FBF9F3" d="M110.3,148.8h-1.9v-0.6c-0.6,0.5-1.3,0.8-2.1,0.8c-1.1,0-2.2-0.5-2.8-1.3c-0.6-0.7-1-1.6-1-2.6
			c0-2.2,1.6-3.9,3.7-3.9c0.8,0,1.6,0.3,2.2,0.8v-0.6h1.9V148.8z M108.3,143.9c-0.4-0.6-1.1-0.9-1.8-0.9c-1.2,0-1.9,1-1.9,2
			c0,1.2,0.8,2,2,2c0.8,0,1.4-0.4,1.8-0.9V143.9z"/>
		<path fill="#FBF9F3" d="M112.6,148.8v-7.5h1.9v0.6c0.6-0.5,1.3-0.8,2.1-0.8c1,0,2,0.5,2.6,1.2c0.5,0.6,0.8,1.3,0.8,2.6v3.8h-2v-4
			c0-0.7-0.2-1.1-0.4-1.4c-0.3-0.3-0.7-0.4-1.1-0.4c-0.8,0-1.5,0.5-1.8,0.9v4.8H112.6z"/>
		<path fill="#FBF9F3" d="M127.3,148.8v-0.6c-0.6,0.5-1.3,0.8-2.1,0.8c-1.1,0-2.2-0.5-2.8-1.3c-0.6-0.7-1-1.6-1-2.6
			c0-2.2,1.6-3.9,3.7-3.9c0.8,0,1.5,0.2,2.1,0.7v-4h2v10.9H127.3z M127.3,143.9c-0.4-0.6-1.1-0.9-1.8-0.9c-1.2,0-1.9,1-1.9,2
			c0,1.2,0.8,2,2,2c0.8,0,1.4-0.4,1.8-0.9V143.9z"/>
		<path fill="#FBF9F3" d="M135.7,141.3h1.9v0.6c0.6-0.5,1.3-0.8,2.2-0.8c2,0,3.7,1.7,3.7,3.9c0,1-0.4,1.9-0.9,2.6
			c-0.7,0.8-1.7,1.3-2.8,1.3c-0.8,0-1.4-0.2-2-0.7v4.2h-2V141.3z M137.7,146.1c0.4,0.6,1,0.9,1.8,0.9c1.1,0,2-0.9,2-2
			c0-1.1-0.8-2-1.9-2c-0.8,0-1.4,0.4-1.8,0.9V146.1z"/>
		<path fill="#FBF9F3" d="M148.7,141.1c2.3,0,4,1.7,4,3.9s-1.7,3.9-4,3.9s-4-1.7-4-3.9S146.4,141.1,148.7,141.1z M148.7,147.1
			c1.2,0,2-0.9,2-2s-0.8-2-2-2s-2,0.9-2,2S147.5,147.1,148.7,147.1z"/>
		<path fill="#FBF9F3" d="M156.3,148.8h-2v-10.9h2V148.8z"/>
		<path fill="#FBF9F3" d="M159.6,137.4c0.7,0,1.3,0.6,1.3,1.3c0,0.7-0.6,1.3-1.3,1.3s-1.3-0.6-1.3-1.3
			C158.3,137.9,158.9,137.4,159.6,137.4z M160.6,148.8h-2v-7.5h2V148.8z"/>
		<path fill="#FBF9F3" d="M169.7,147.2c-0.9,1.2-2,1.7-3.4,1.7c-2.3,0-4-1.7-4-3.9c0-2.2,1.7-3.9,4-3.9c1.3,0,2.4,0.6,3.1,1.5
			l-1.4,1.2c-0.4-0.5-1-0.9-1.7-0.9c-1.2,0-2,0.9-2,2c0,1.2,0.8,2,2.1,2c0.8,0,1.5-0.5,1.8-1L169.7,147.2z"/>
		<path fill="#FBF9F3" d="M171.5,152.5l2.1-4.4l-3.3-6.7h2.2l2.2,4.5l2-4.5h2.1l-5.1,11.2H171.5z"/>
		<path fill="#FBF9F3" d="M181,146.2c0.8,0,1.4,0.6,1.4,1.4c0,0.8-0.6,1.3-1.4,1.3s-1.3-0.6-1.3-1.3
			C179.7,146.8,180.3,146.2,181,146.2z"/>
		<path fill="#FBF9F3" d="M187,138h2.1l2.2,6.7l2.4-6.7h1.5l2.4,6.7l2.2-6.7h2.1l-3.6,10.8h-1.5l-2.4-6.8l-2.4,6.8h-1.5L187,138z"/>
		<path fill="#FBF9F3" d="M209,147.6c-0.7,0.9-1.9,1.3-3.1,1.3c-2.2,0-3.9-1.5-3.9-3.9c0-2.1,1.4-3.9,3.6-3.9c2.1,0,3.5,1.7,3.5,3.8
			c0,0.2,0,0.4,0,0.6H204c0.1,1,1,1.8,2,1.8c0.8,0,1.5-0.5,1.9-0.9L209,147.6z M207.1,144.1c-0.1-0.7-0.7-1.3-1.5-1.3
			c-0.8,0-1.5,0.6-1.6,1.3H207.1z"/>
		<path fill="#FBF9F3" d="M217,148.8h-2v-10.9h2v4c0.6-0.4,1.3-0.7,2-0.7c1,0,2,0.5,2.6,1.2c0.5,0.6,0.8,1.3,0.8,2.6v3.8h-2v-4
			c0-0.7-0.2-1.1-0.4-1.4c-0.3-0.3-0.7-0.4-1.1-0.4c-0.8,0-1.5,0.5-1.8,0.9V148.8z"/>
		<path fill="#FBF9F3" d="M230.9,147.6c-0.7,0.9-1.9,1.3-3.1,1.3c-2.2,0-3.9-1.5-3.9-3.9c0-2.1,1.4-3.9,3.6-3.9
			c2.1,0,3.5,1.7,3.5,3.8c0,0.2,0,0.4,0,0.6h-5.2c0.1,1,1,1.8,2,1.8c0.8,0,1.5-0.5,1.9-0.9L230.9,147.6z M229.1,144.1
			c-0.1-0.7-0.7-1.3-1.5-1.3c-0.8,0-1.5,0.6-1.6,1.3H229.1z"/>
		<path fill="#FBF9F3" d="M234.8,148.8h-2v-10.9h2V148.8z"/>
		<path fill="#FBF9F3" d="M237.1,141.3h1.9v0.6c0.6-0.5,1.3-0.8,2.2-0.8c2,0,3.7,1.7,3.7,3.9c0,1-0.4,1.9-0.9,2.6
			c-0.7,0.8-1.7,1.3-2.8,1.3c-0.8,0-1.4-0.2-2-0.7v4.2h-2V141.3z M239.1,146.1c0.4,0.6,1,0.9,1.8,0.9c1.1,0,2-0.9,2-2
			c0-1.1-0.8-2-1.9-2c-0.8,0-1.4,0.4-1.8,0.9V146.1z"/>
		<path fill="#FBF9F3" d="M115.2,167.1c2.3,0,4,1.7,4,3.9s-1.7,3.9-4,3.9c-2.3,0-4-1.7-4-3.9S113,167.1,115.2,167.1z M115.2,173.1
			c1.2,0,2-0.9,2-2s-0.8-2-2-2s-2,0.9-2,2S114.1,173.1,115.2,173.1z"/>
		<path fill="#FBF9F3" d="M128,167.3v7.5H126v-0.6c-0.6,0.5-1.3,0.8-2,0.8c-1,0-2-0.5-2.5-1.2c-0.5-0.6-0.8-1.4-0.8-2.5v-4h2v4
			c0,0.7,0.1,1,0.4,1.3c0.3,0.3,0.7,0.5,1.1,0.5c0.8,0,1.5-0.6,1.7-0.9v-4.8H128z"/>
		<path fill="#FBF9F3" d="M134.8,169.1c-0.1,0-0.4-0.1-0.7-0.1c-0.9,0-1.6,0.6-1.8,1.1v4.7h-2v-7.5h1.9v0.8c0.4-0.6,1.3-0.9,2.2-0.9
			c0.3,0,0.5,0,0.7,0.1L134.8,169.1z"/>
		<path fill="#FBF9F3" d="M147.5,173.2c-0.9,1.2-2,1.7-3.4,1.7c-2.3,0-4-1.7-4-3.9c0-2.2,1.7-3.9,4-3.9c1.3,0,2.4,0.6,3.1,1.5
			l-1.4,1.2c-0.4-0.5-1-0.9-1.7-0.9c-1.2,0-2,0.9-2,2c0,1.2,0.8,2,2.1,2c0.8,0,1.5-0.5,1.8-1L147.5,173.2z"/>
		<path fill="#FBF9F3" d="M151,174.8h-2v-10.9h2V174.8z"/>
		<path fill="#FBF9F3" d="M154.3,163.4c0.7,0,1.3,0.6,1.3,1.3c0,0.7-0.6,1.3-1.3,1.3s-1.3-0.6-1.3-1.3
			C153,163.9,153.6,163.4,154.3,163.4z M155.3,174.8h-2v-7.5h2V174.8z"/>
		<path fill="#FBF9F3" d="M164,173.6c-0.7,0.9-1.9,1.3-3.1,1.3c-2.2,0-3.9-1.5-3.9-3.9c0-2.1,1.4-3.9,3.6-3.9c2.1,0,3.5,1.7,3.5,3.8
			c0,0.2,0,0.4,0,0.6h-5.2c0.1,1,1,1.8,2,1.8c0.8,0,1.5-0.5,1.9-0.9L164,173.6z M162.1,170.1c-0.1-0.7-0.7-1.3-1.5-1.3
			c-0.8,0-1.5,0.6-1.6,1.3H162.1z"/>
		<path fill="#FBF9F3" d="M165.8,174.8v-7.5h1.9v0.6c0.6-0.5,1.3-0.8,2.1-0.8c1,0,2,0.5,2.6,1.2c0.5,0.6,0.8,1.3,0.8,2.6v3.8h-2v-4
			c0-0.7-0.2-1.1-0.4-1.4c-0.3-0.3-0.7-0.4-1.1-0.4c-0.8,0-1.5,0.5-1.8,0.9v4.8H165.8z"/>
		<path fill="#FBF9F3" d="M180.7,174.8c-0.3,0.1-0.9,0.2-1.2,0.2c-1.2,0-2.1-0.4-2.6-1.1c-0.4-0.5-0.6-1.2-0.6-2.2V169h-2.1v-1.7
			h2.1v-2.1h2v2.1h2.5v1.7h-2.5v2.8c0,0.5,0.1,0.7,0.2,0.9c0.2,0.2,0.5,0.4,1,0.4c0.3,0,0.7,0,0.8-0.1L180.7,174.8z"/>
		<path fill="#FBF9F3" d="M182.9,172.5c0.5,0.5,1.3,0.7,2,0.7c0.5,0,1-0.3,1-0.6c0-1.1-3.6-0.7-3.6-3.1c0-1.4,1.4-2.3,2.9-2.3
			c1,0,2,0.4,2.5,0.8l-0.9,1.4c-0.4-0.3-0.9-0.5-1.4-0.5c-0.6,0-1,0.2-1,0.6c0,1,3.6,0.6,3.6,3.2c0,1.4-1.4,2.3-3,2.3
			c-1,0-2.1-0.4-3-1L182.9,172.5z"/>
		<path fill="#FBF9F3" d="M194.1,172.5c0.5,0.5,1.3,0.7,2,0.7c0.5,0,1-0.3,1-0.6c0-1.1-3.6-0.7-3.6-3.1c0-1.4,1.4-2.3,2.9-2.3
			c1,0,2,0.4,2.5,0.8l-0.9,1.4c-0.4-0.3-0.9-0.5-1.4-0.5c-0.6,0-1,0.2-1,0.6c0,1,3.6,0.6,3.6,3.2c0,1.4-1.4,2.3-3,2.3
			c-1,0-2.1-0.4-3-1L194.1,172.5z"/>
		<path fill="#FBF9F3" d="M203,174.8h-2v-10.9h2v4c0.6-0.4,1.3-0.7,2-0.7c1,0,2,0.5,2.6,1.2c0.5,0.6,0.8,1.3,0.8,2.6v3.8h-2v-4
			c0-0.7-0.2-1.1-0.4-1.4c-0.3-0.3-0.7-0.4-1.1-0.4c-0.8,0-1.5,0.5-1.8,0.9V174.8z"/>
		<path fill="#FBF9F3" d="M217.7,174.8h-1.9v-0.6c-0.6,0.5-1.3,0.8-2.1,0.8c-1.1,0-2.2-0.5-2.8-1.3c-0.6-0.7-1-1.6-1-2.6
			c0-2.2,1.6-3.9,3.7-3.9c0.8,0,1.6,0.3,2.2,0.8v-0.6h1.9V174.8z M215.7,169.9c-0.4-0.6-1.1-0.9-1.8-0.9c-1.2,0-1.9,1-1.9,2
			c0,1.2,0.8,2,2,2c0.8,0,1.4-0.4,1.8-0.9V169.9z"/>
		<path fill="#FBF9F3" d="M220,167.3h1.9v0.6c0.6-0.5,1.3-0.8,2.2-0.8c2,0,3.7,1.7,3.7,3.9c0,1-0.4,1.9-0.9,2.6
			c-0.7,0.8-1.7,1.3-2.8,1.3c-0.8,0-1.4-0.2-2-0.7v4.2h-2V167.3z M222,172.1c0.4,0.6,1,0.9,1.8,0.9c1.1,0,2-0.9,2-2
			c0-1.1-0.8-2-1.9-2c-0.8,0-1.4,0.4-1.8,0.9V172.1z"/>
		<path fill="#FBF9F3" d="M235.9,173.6c-0.7,0.9-1.9,1.3-3.1,1.3c-2.2,0-3.9-1.5-3.9-3.9c0-2.1,1.4-3.9,3.6-3.9
			c2.1,0,3.5,1.7,3.5,3.8c0,0.2,0,0.4,0,0.6h-5.2c0.1,1,1,1.8,2,1.8c0.8,0,1.5-0.5,1.9-0.9L235.9,173.6z M234.1,170.1
			c-0.1-0.7-0.7-1.3-1.5-1.3c-0.8,0-1.5,0.6-1.6,1.3H234.1z"/>
		<path fill="#FBF9F3" d="M103.7,200.8h-1.4l-3.1-7.5h2l1.8,4.4l1.9-4.4h1.4l1.9,4.4l1.8-4.4h2l-3.1,7.5h-1.4l-1.9-4.3L103.7,200.8z
			"/>
		<path fill="#FBF9F3" d="M115.2,200.8h-2v-10.9h2v4c0.6-0.4,1.3-0.7,2-0.7c1,0,2,0.5,2.6,1.2c0.5,0.6,0.8,1.3,0.8,2.6v3.8h-2v-4
			c0-0.7-0.2-1.1-0.4-1.4c-0.3-0.3-0.7-0.4-1.1-0.4c-0.8,0-1.5,0.5-1.8,0.9V200.8z"/>
		<path fill="#FBF9F3" d="M129.9,200.8H128v-0.6c-0.6,0.5-1.3,0.8-2.1,0.8c-1.1,0-2.2-0.5-2.8-1.3c-0.6-0.7-1-1.6-1-2.6
			c0-2.2,1.6-3.9,3.7-3.9c0.8,0,1.6,0.3,2.2,0.8v-0.6h1.9V200.8z M127.9,195.9c-0.4-0.6-1.1-0.9-1.8-0.9c-1.2,0-1.9,1-1.9,2
			c0,1.2,0.8,2,2,2c0.8,0,1.4-0.4,1.8-0.9V195.9z"/>
		<path fill="#FBF9F3" d="M137.8,200.8c-0.3,0.1-0.9,0.2-1.2,0.2c-1.2,0-2.1-0.4-2.6-1.1c-0.4-0.5-0.6-1.2-0.6-2.2V195h-2.1v-1.7
			h2.1v-2.1h2v2.1h2.5v1.7h-2.5v2.8c0,0.5,0.1,0.7,0.2,0.9c0.2,0.2,0.5,0.4,1,0.4c0.3,0,0.7,0,0.8-0.1L137.8,200.8z"/>
		<path fill="#FBF9F3" d="M146,200.8h-2v-10.9h2v4c0.6-0.4,1.3-0.7,2-0.7c1,0,2,0.5,2.6,1.2c0.5,0.6,0.8,1.3,0.8,2.6v3.8h-2v-4
			c0-0.7-0.2-1.1-0.4-1.4c-0.3-0.3-0.7-0.4-1.1-0.4c-0.8,0-1.5,0.5-1.8,0.9V200.8z"/>
		<path fill="#FBF9F3" d="M160.7,200.8h-1.9v-0.6c-0.6,0.5-1.3,0.8-2.1,0.8c-1.1,0-2.2-0.5-2.8-1.3c-0.6-0.7-1-1.6-1-2.6
			c0-2.2,1.6-3.9,3.7-3.9c0.8,0,1.6,0.3,2.2,0.8v-0.6h1.9V200.8z M158.7,195.9c-0.4-0.6-1.1-0.9-1.8-0.9c-1.2,0-1.9,1-1.9,2
			c0,1.2,0.8,2,2,2c0.8,0,1.4-0.4,1.8-0.9V195.9z"/>
		<path fill="#FBF9F3" d="M163,193.3h1.9v0.6c0.6-0.5,1.3-0.8,2.2-0.8c2,0,3.7,1.7,3.7,3.9c0,1-0.4,1.9-0.9,2.6
			c-0.7,0.8-1.7,1.3-2.8,1.3c-0.8,0-1.4-0.2-2-0.7v4.2h-2V193.3z M165,198.1c0.4,0.6,1,0.9,1.8,0.9c1.1,0,2-0.9,2-2
			c0-1.1-0.8-2-1.9-2c-0.8,0-1.4,0.4-1.8,0.9V198.1z"/>
		<path fill="#FBF9F3" d="M172.4,193.3h1.9v0.6c0.6-0.5,1.3-0.8,2.2-0.8c2,0,3.7,1.7,3.7,3.9c0,1-0.4,1.9-0.9,2.6
			c-0.7,0.8-1.7,1.3-2.8,1.3c-0.8,0-1.4-0.2-2-0.7v4.2h-2V193.3z M174.4,198.1c0.4,0.6,1,0.9,1.8,0.9c1.1,0,2-0.9,2-2
			c0-1.1-0.8-2-1.9-2c-0.8,0-1.4,0.4-1.8,0.9V198.1z"/>
		<path fill="#FBF9F3" d="M188.4,199.6c-0.7,0.9-1.9,1.3-3.1,1.3c-2.2,0-3.9-1.5-3.9-3.9c0-2.1,1.4-3.9,3.6-3.9
			c2.1,0,3.5,1.7,3.5,3.8c0,0.2,0,0.4,0,0.6h-5.2c0.1,1,1,1.8,2,1.8c0.8,0,1.5-0.5,1.9-0.9L188.4,199.6z M186.5,196.1
			c-0.1-0.7-0.7-1.3-1.5-1.3c-0.8,0-1.5,0.6-1.6,1.3H186.5z"/>
		<path fill="#FBF9F3" d="M190.3,200.8v-7.5h1.9v0.6c0.6-0.5,1.3-0.8,2.1-0.8c1,0,2,0.5,2.6,1.2c0.5,0.6,0.8,1.3,0.8,2.6v3.8h-2v-4
			c0-0.7-0.2-1.1-0.4-1.4c-0.3-0.3-0.7-0.4-1.1-0.4c-0.8,0-1.5,0.5-1.8,0.9v4.8H190.3z"/>
		<path fill="#FBF9F3" d="M200,198.5c0.5,0.5,1.3,0.7,2,0.7c0.5,0,1-0.3,1-0.6c0-1.1-3.6-0.7-3.6-3.1c0-1.4,1.4-2.3,2.9-2.3
			c1,0,2,0.4,2.5,0.8l-0.9,1.4c-0.4-0.3-0.9-0.5-1.4-0.5c-0.6,0-1,0.2-1,0.6c0,1,3.6,0.6,3.6,3.2c0,1.4-1.4,2.3-3,2.3
			c-1,0-2.1-0.4-3-1L200,198.5z"/>
		<path fill="#FBF9F3" d="M211,200.8v-7.5h1.9v0.6c0.6-0.5,1.3-0.8,2.1-0.8c1,0,2,0.5,2.6,1.2c0.5,0.6,0.8,1.3,0.8,2.6v3.8h-2v-4
			c0-0.7-0.2-1.1-0.4-1.4c-0.3-0.3-0.7-0.4-1.1-0.4c-0.8,0-1.5,0.5-1.8,0.9v4.8H211z"/>
		<path fill="#FBF9F3" d="M226.9,199.6c-0.7,0.9-1.9,1.3-3.1,1.3c-2.2,0-3.9-1.5-3.9-3.9c0-2.1,1.4-3.9,3.6-3.9
			c2.1,0,3.5,1.7,3.5,3.8c0,0.2,0,0.4,0,0.6h-5.2c0.1,1,1,1.8,2,1.8c0.8,0,1.5-0.5,1.9-0.9L226.9,199.6z M225,196.1
			c-0.1-0.7-0.7-1.3-1.5-1.3c-0.8,0-1.5,0.6-1.6,1.3H225z"/>
		<path fill="#FBF9F3" d="M231.5,195.4l1.5-2.1h2.3l-2.5,3.5l2.9,4h-2.4l-1.8-2.5l-1.8,2.5h-2.4l2.9-4l-2.5-3.5h2.3L231.5,195.4z"/>
		<path fill="#FBF9F3" d="M242.5,200.8c-0.3,0.1-0.9,0.2-1.2,0.2c-1.2,0-2.1-0.4-2.6-1.1c-0.4-0.5-0.6-1.2-0.6-2.2V195h-2.1v-1.7
			h2.1v-2.1h2v2.1h2.5v1.7h-2.5v2.8c0,0.5,0.1,0.7,0.2,0.9c0.2,0.2,0.5,0.4,1,0.4c0.3,0,0.7,0,0.8-0.1L242.5,200.8z"/>
		<path fill="#FBF9F3" d="M246.4,198.2c0.8,0,1.4,0.6,1.4,1.4c0,0.8-0.6,1.3-1.4,1.3s-1.3-0.6-1.3-1.3
			C245.1,198.8,245.7,198.2,246.4,198.2z"/>
	</g>
</g>
<g>
	<path fill="#1B3E4C" d="M523.5,124.3v26c0,3.8-0.9,6.4-2.9,8.2c-1.9,1.8-4.6,2.8-7.5,2.8c-2.9,0-5.6-1-7.5-2.8
		c-2-1.8-2.9-4.5-2.9-8.2v-26h-9.5v25.3c0,6.8,2,11.9,6,15.5c3.4,3,8.5,4.8,14,4.8c5.4,0,10.5-1.8,14-4.8c4-3.6,6-8.7,6-15.5v-17.7
		l4.2-7.6H523.5z"/>
	<g>
		<path fill="#1B3E4C" d="M515.7,200.6h-58.1v-58.1c0-32,26.1-58.1,58.1-58.1c32.1,0,58.1,26.1,58.1,58.1
			C573.9,174.6,547.8,200.6,515.7,200.6z M468.1,190.1h47.6c26.3,0,47.6-21.4,47.6-47.6c0-26.3-21.4-47.6-47.6-47.6
			c-26.2,0-47.6,21.4-47.6,47.6V190.1z"/>
	</g>
</g>
<g>
</g>
<g>
</g>
<g>
</g>
<g>
</g>
<g>
</g>
<g>
</g>
<g>
</g>
<g>
</g>
<g>
</g>
<g>
</g>
<g>
</g>
<g>
</g>
<g>
</g>
<g>
</g>
<g>
</g>
</svg>
