<?xml version="1.0" encoding="utf-8"?>
<!-- Generator: Adobe Illustrator 18.1.1, SVG Export Plug-In . SVG Version: 6.00 Build 0)  -->
<svg version="1.1" id="Layer_1" xmlns="http://www.w3.org/2000/svg" xmlns:xlink="http://www.w3.org/1999/xlink" x="0px" y="0px"
	 width="680px" height="584px" viewBox="0 0 680 584" enable-background="new 0 0 680 584" xml:space="preserve">
<rect x="0" y="0" fill="#5BBCC9" width="680" height="584"/>
<g>
	<g>
		<path fill="#1B3E4C" d="M445.2,195c-4.2,0-7.7,1.4-10.6,3.6v-2.8h-0.4h-10.1v39h10.4v-25.3c1.5-2,5.1-4.8,9.5-4.8
			c2.4,0,4.5,0.8,5.9,2.2c1.4,1.4,2.3,3.5,2.3,7.3v20.7h10.4v-19.9c0-6.7-1.4-10.6-4-13.7C455.5,197.4,450.6,195,445.2,195z"/>
		<path fill="#1B3E4C" d="M374.6,221.1c-1.4,1.8-4.7,4.8-9.1,4.8c-2,0-4.3-0.6-5.9-2.4c-1.2-1.4-1.9-3.1-1.9-6.7v-21.1h-10.5v20.7
			c0,5.8,1.4,9.8,3.9,12.9c3.1,3.8,7.9,6.3,13.3,6.3c3.6,0,7.2-1.1,10.1-3.6v2.8h0.4h10v-39h-10.5V221.1z"/>
		<path fill="#1B3E4C" d="M334.4,226.4c-2.6,0-4.3-0.7-5.3-1.9c-0.9-1-1.3-2.5-1.3-4.9v-14.9h10.9v-8.8h-10.9V185h-10.5v10.9h-4.6
			v8.8h4.6v13.7c0,5.5,0.9,9,2.9,11.7c2.7,3.5,7.2,5.6,13.5,5.6c2,0,5.1-0.3,6.5-0.8l-1.6-8.8C337.9,226.1,335.9,226.4,334.4,226.4z
			"/>
		<path fill="#1B3E4C" d="M403.6,195.8h-10.4v21.1c0,0.3,0,0.6,0,0.9h0v17h10.4v-17h0c0-7.4,5-11.7,13.6-11.7v-10.5
			c-5.6,0-10.1,1.3-13.7,3.3V195.8z"/>
		<path fill="#1B3E4C" d="M288.3,195.7c-3.9,0-7.6,1.1-10.7,3v-2.9h-9.8v20.3v39.4h9.8v-39.4c0-5.9,4.8-10.7,10.7-10.7
			c5.9,0,10.7,4.8,10.7,10.7c0,5.9-4.8,10.7-10.7,10.7h-6.1v9.8h6.1c11.1,0,20.2-9,20.4-20l0-0.4
			C308.8,204.9,299.6,195.7,288.3,195.7z"/>
		<path fill="#1B3E4C" d="M260.8,178.5h-10.7h-0.1v33.4c0,5.1-1.4,8.3-3.7,10.4c-2.4,2.3-5.8,3.6-9.6,3.6c-3.8,0-7.2-1.3-9.6-3.6
			c-2.3-2.2-3.7-5.3-3.7-10.4v-33.4h-10.8v32.5c0,8.6,2.6,14.6,7.2,18.7c4.3,3.9,10.5,5.8,16.9,5.8c6.3,0,12.5-1.9,16.9-5.8
			c4.7-4.2,7.2-10.1,7.2-18.7v-24h0.1l4.7-8.5h-4.7H260.8z"/>
	</g>
</g>
<g>
	<g>
		<g>
			<rect x="564.3" y="377.4" fill="#092930" width="2" height="18.5"/>
			<rect x="564.3" y="377.4" fill="#092930" width="17" height="7.9"/>
			<rect x="482.4" y="461.7" fill="#324C56" width="132.5" height="122.2"/>
			<path fill="#4E9DA5" d="M517,463.4c0-27.2,22-49.2,49.2-49.2c27.2,0,49.2,22,49.2,49.2"/>
			<path fill="#FBF9F3" d="M545.1,414.3c0-11.2,9.1-20.2,20.2-20.2c11.2,0,20.2,9,20.2,20.2"/>
			<rect x="539.1" y="410.9" fill="#092930" width="54.3" height="12.3"/>
		</g>
		<rect x="535.3" y="494.9" fill="#092930" width="97.3" height="63.7"/>
		<rect x="535.3" y="494.9" fill="#FBF9F3" width="12.6" height="66.7"/>
		<rect x="591.8" y="494.9" fill="#FBF9F3" width="12.6" height="66.7"/>
		<rect x="563.6" y="494.9" fill="#FBF9F3" width="12.6" height="66.7"/>
		<rect x="620" y="494.9" fill="#FBF9F3" width="12.6" height="66.7"/>
		<rect x="535.3" y="494.9" fill="#FBF9F3" width="12.6" height="66.7"/>
		<rect x="516.1" y="571.2" fill="#FBF9F3" width="135.9" height="12.6"/>
		<rect x="522" y="558.6" fill="#092930" width="124.1" height="12.6"/>
		<polygon fill="#092930" points="632.8,523.9 550.2,494.9 632.8,494.9 		"/>
		<rect x="522" y="483.4" fill="#FBF9F3" width="124.1" height="12.6"/>
	</g>
	<g>
		<g>
			<g>
				<path fill="#092930" d="M183.4,393.7c-1,1.3-2.5,2.1-4.2,2.1c-2,0-3.7-1.1-4.6-2.7l-26.9,98.8l2.6,3.3h57.4l2.6-3.3L183.4,393.7
					z M153.7,489.9l25.2-92.5l25.2,92.5H153.7z"/>
			</g>
		</g>
		<g>
			<g>
				<rect x="165.1" y="435.2" fill="#092930" width="28.1" height="5.3"/>
			</g>
		</g>
		<g>
			<path fill="#092930" d="M178.5,398.4c-4.4,0-7.9-3.6-7.9-7.9c0-4.4,3.6-7.9,7.9-7.9c4.4,0,7.9,3.6,7.9,7.9
				C186.4,394.8,182.9,398.4,178.5,398.4z M178.5,387.8c-1.5,0-2.6,1.2-2.6,2.6c0,1.5,1.2,2.6,2.6,2.6c1.4,0,2.6-1.2,2.6-2.6
				C181.1,389,180,387.8,178.5,387.8z"/>
		</g>
		<g>

				<rect x="173.8" y="412.9" transform="matrix(0.7065 0.7077 -0.7077 0.7065 354.3852 0.583)" fill="#092930" width="5.3" height="29.3"/>
		</g>
		<g>

				<rect x="162.7" y="449.2" transform="matrix(0.801 0.5986 -0.5986 0.801 306.6982 -19.0144)" fill="#092930" width="38.4" height="5.3"/>
		</g>
		<g>
			<rect x="156.7" y="462.8" fill="#092930" width="45.4" height="5.3"/>
		</g>
	</g>
	<rect x="496.9" y="421" fill="#092930" width="4.9" height="17.8"/>
	<rect x="290.2" y="479.4" fill="#4E9DA5" width="116" height="104.4"/>
	<rect x="309.7" y="494.8" fill="#FBF9F3" width="14.9" height="20"/>
	<rect x="340.4" y="494.8" fill="#FBF9F3" width="14.9" height="20"/>
	<rect x="371.1" y="494.8" fill="#FBF9F3" width="14.9" height="20"/>
	<rect x="175.3" y="479.4" fill="#092930" width="116" height="104.4"/>
	<rect x="307.6" y="537.6" fill="#FBF9F3" width="47.7" height="33.7"/>
	<rect x="364.1" y="537.6" fill="#FBF9F3" width="25.8" height="46"/>
	<rect x="302.1" y="523.2" fill="#092930" width="91.6" height="7.5"/>
	<polygon fill="#092930" points="522,483.6 584,454.2 646,483.6 	"/>
	<path fill="#FBF9F3" d="M589.5,470.6c0,3.3-2.7,6-6,6c-3.3,0-6-2.7-6-6s2.7-6,6-6C586.8,464.7,589.5,467.3,589.5,470.6z"/>
	<g>
		<path fill="#FBF9F3" d="M196.6,519.7v-13.9c0-4.7,3.8-8.6,8.6-8.6l0,0c4.7,0,8.6,3.8,8.6,8.6v13.9"/>
		<rect x="194.6" y="517.9" fill="#4E9DA5" width="21.1" height="4"/>
	</g>
	<g>
		<path fill="#FBF9F3" d="M225.6,519.7v-13.9c0-4.7,3.8-8.6,8.6-8.6l0,0c4.7,0,8.6,3.8,8.6,8.6v13.9"/>
		<rect x="223.6" y="517.9" fill="#4E9DA5" width="21.1" height="4"/>
	</g>
	<g>
		<path fill="#FBF9F3" d="M254.6,519.7v-13.9c0-4.7,3.8-8.6,8.6-8.6l0,0c4.7,0,8.6,3.8,8.6,8.6v13.9"/>
		<rect x="252.6" y="517.9" fill="#4E9DA5" width="21.1" height="4"/>
	</g>
	<g>
		<path fill="#FBF9F3" d="M196.6,558.3v-13.9c0-4.7,3.8-8.6,8.6-8.6l0,0c4.7,0,8.6,3.9,8.6,8.6v13.9"/>
		<rect x="194.6" y="556.5" fill="#4E9DA5" width="21.1" height="4"/>
	</g>
	<g>
		<path fill="#FBF9F3" d="M225.6,558.3v-13.9c0-4.7,3.8-8.6,8.6-8.6l0,0c4.7,0,8.6,3.9,8.6,8.6v13.9"/>
		<rect x="223.6" y="556.5" fill="#4E9DA5" width="21.1" height="4"/>
	</g>
	<g>
		<path fill="#FBF9F3" d="M254.6,558.3v-13.9c0-4.7,3.8-8.6,8.6-8.6l0,0c4.7,0,8.6,3.9,8.6,8.6v13.9"/>
		<rect x="252.6" y="556.5" fill="#4E9DA5" width="21.1" height="4"/>
	</g>
	<rect x="276.9" y="469.8" fill="#092930" width="6.5" height="9.4"/>
	<rect x="346.5" y="469.8" fill="#092930" width="6.5" height="9.4"/>
	<rect x="262.9" y="429.9" fill="#092930" width="100.8" height="35.3"/>
	<rect x="262.9" y="465.1" fill="#092930" width="100.8" height="6.6"/>
	<g>
		<rect x="406" y="436.3" fill="#092930" width="116" height="147.5"/>
		<rect x="400.2" y="435.3" fill="#4E9DA5" width="127.6" height="8.8"/>
		<g>
			<rect x="425.5" y="494.8" fill="#FBF9F3" width="14.9" height="20"/>
			<rect x="456.2" y="494.8" fill="#FBF9F3" width="14.9" height="20"/>
			<rect x="486.9" y="494.8" fill="#FBF9F3" width="14.9" height="20"/>
		</g>
		<g>
			<rect x="425.5" y="461.6" fill="#FBF9F3" width="14.9" height="20"/>
			<rect x="456.2" y="461.6" fill="#FBF9F3" width="14.9" height="20"/>
			<rect x="486.9" y="461.6" fill="#FBF9F3" width="14.9" height="20"/>
		</g>
		<polygon fill="#FBF9F3" points="509.5,534.7 417.9,534.7 420.9,528.6 507.1,528.6 		"/>
		<rect x="423.4" y="537.6" fill="#FBF9F3" width="47.7" height="33.7"/>
		<rect x="479.9" y="537.6" fill="#FBF9F3" width="25.8" height="46.2"/>
		<rect x="417.9" y="534.7" fill="#092930" width="91.6" height="7.5"/>
		<rect x="406" y="444.1" fill="#092930" width="116" height="3.8"/>
		<path fill="#092930" d="M508.7,401.8c5.7,5.7,5.7,14.9,0,20.6c-5.7,5.7-14.9,5.7-20.5,0"/>
		<polygon fill="#092930" points="497.5,414.2 486.8,403.6 489.1,401.3 499.7,411.9 		"/>
		<path fill="#092930" d="M488.1,405.7c-1.8,0-3.3-1.5-3.3-3.3c0-1.8,1.5-3.3,3.3-3.3c1.8,0,3.3,1.5,3.3,3.3
			C491.4,404.3,489.9,405.7,488.1,405.7z"/>
	</g>
	<g>
		<path fill="#FBF9F3" d="M279.8,447.6c0,1.7,1.3,2.9,2.9,2.9c0.8,0,1.4-0.3,1.9-0.7v-1.8h-2.2v-1.5h3.8v3.8c-0.8,1-2,1.6-3.6,1.6
			c-2.7,0-4.5-1.9-4.5-4.4c0-2.5,1.8-4.4,4.5-4.4c1.3,0,2.4,0.5,3.1,1.2l-1.1,1.1c-0.5-0.5-1.2-0.9-2.1-0.9
			C281,444.7,279.8,446,279.8,447.6z"/>
		<path fill="#FBF9F3" d="M295,443.2c2.6,0,4.5,2,4.5,4.4c0,2.4-1.8,4.4-4.5,4.4c-2.6,0-4.5-2-4.5-4.4
			C290.5,445.2,292.3,443.2,295,443.2z M295,450.6c1.6,0,2.8-1.3,2.8-2.9c0-1.6-1.2-2.9-2.8-2.9s-2.8,1.3-2.8,2.9
			C292.2,449.2,293.4,450.6,295,450.6z"/>
		<path fill="#FBF9F3" d="M309.1,443.4h1.7l2.3,5.8l2.3-5.8h1.7l-3.5,8.6h-1.2L309.1,443.4z"/>
		<path fill="#FBF9F3" d="M324.9,443.2c2.6,0,4.5,2,4.5,4.4c0,2.4-1.8,4.4-4.5,4.4c-2.6,0-4.5-2-4.5-4.4
			C320.4,445.2,322.2,443.2,324.9,443.2z M324.9,450.6c1.6,0,2.8-1.3,2.8-2.9c0-1.6-1.2-2.9-2.8-2.9s-2.8,1.3-2.8,2.9
			C322.1,449.2,323.3,450.6,324.9,450.6z"/>
		<path fill="#FBF9F3" d="M339,443.4v1.5h-2.3v7.1h-1.7v-7.1h-2.3v-1.5H339z"/>
		<path fill="#FBF9F3" d="M345,444.8v1.8h2.6v1.5H345v2.4h3.6v1.5h-5.3v-8.6h5.1v1.5H345z"/>
	</g>
	<path fill="#092930" d="M248.7,475.1v-2.1c1-0.2,2-0.7,2.7-1.5l-8.3-8.3c-2.3,2.3-2.3,6,0,8.3c0.3,0.3,0.5,0.5,0.8,0.7v3h-3.7v4.1
		h12.3v-4.1H248.7z"/>
	<path fill="#092930" d="M377.2,475.1v-2.1c-1-0.2-2-0.7-2.7-1.5l8.3-8.3c2.3,2.3,2.3,6,0,8.3c-0.3,0.3-0.5,0.5-0.8,0.7v3h3.7v4.1
		h-12.3v-4.1H377.2z"/>
	<g>
		<rect x="59.2" y="458.3" fill="#4E9DA5" width="17.7" height="31.1"/>
		<g>
			<g>
				<rect x="44.2" y="499.1" fill="#4E9DA5" width="133.3" height="84.7"/>
				<g>
					<g>
						<rect x="59.2" y="516" fill="#FBF9F3" width="17.7" height="17.7"/>
						<rect x="88.1" y="516" fill="#FBF9F3" width="17.7" height="17.7"/>
						<rect x="117.1" y="516" fill="#FBF9F3" width="17.7" height="17.7"/>
					</g>
					<g>
						<rect x="59.2" y="548.2" fill="#FBF9F3" width="17.7" height="17.7"/>
						<rect x="88.1" y="548.2" fill="#FBF9F3" width="17.7" height="17.7"/>
						<rect x="117.1" y="548.2" fill="#FBF9F3" width="17.7" height="17.7"/>
					</g>
					<g>
						<rect x="146" y="516" fill="#FBF9F3" width="17.7" height="17.7"/>
					</g>
					<g>
						<rect x="146" y="548.2" fill="#FBF9F3" width="17.7" height="17.7"/>
					</g>
				</g>
			</g>
			<rect x="38.1" y="488.7" fill="#092930" width="147.3" height="13.3"/>
		</g>
		<g>
			<g>
				<path fill="#092930" d="M97.7,430.5v-2.8h-7.5c-2.7,0-5,2.2-5,5v2.8h7.5C95.4,435.5,97.7,433.3,97.7,430.5z"/>
			</g>
			<g>
				<path fill="#092930" d="M122.2,424.9v-4.7h-12.4c-4.5,0-8.2,3.7-8.2,8.2v4.7H114C118.5,433.1,122.2,429.5,122.2,424.9z"/>
			</g>
			<path fill="#092930" d="M84.4,439.3h-3.1h-11c-0.4,0-0.7,0-1.1,0.1c-0.4,0-0.8-0.1-1.2-0.1c-6.5,0-11.9,5.3-11.9,11.9
				c0,6.5,5.3,11.9,11.9,11.9c6,0,11-4.5,11.8-10.3c0.3-0.2,0.5-0.3,0.7-0.5h5c4.5,0,8.2-3.7,8.2-8.2v-4.7H84.4z"/>
		</g>
	</g>
	<rect x="262.9" y="461.2" fill="#4E9DA5" width="100.8" height="3.9"/>
	<g>
		<path fill="#FBF9F3" d="M43.6,396.7c0-10.6,8.6-19.2,19.2-19.2c10.6,0,19.2,8.6,19.2,19.2"/>
		<path fill="#FBF9F3" d="M115.7,396.7c0-6.5,5.3-11.8,11.8-11.8c6.5,0,11.8,5.3,11.8,11.8"/>
		<path fill="#FBF9F3" d="M62.9,396.7c0-16.9,13.7-30.7,30.7-30.7c16.9,0,30.7,13.7,30.7,30.7"/>
	</g>
	<g>
		<path fill="#FBF9F3" d="M211.4,416.6c0-9-7.3-16.3-16.3-16.3c-9,0-16.3,7.3-16.3,16.3"/>
		<path fill="#FBF9F3" d="M252.7,416.6c0-13.8-11.2-24.9-24.9-24.9c-13.8,0-24.9,11.2-24.9,24.9"/>
	</g>
	<g>
		<path fill="#FBF9F3" d="M398.1,399.5c0-9,7.3-16.3,16.3-16.3c9,0,16.3,7.3,16.3,16.3"/>
		<path fill="#FBF9F3" d="M356.8,399.5c0-13.8,11.2-24.9,24.9-24.9c13.8,0,24.9,11.2,24.9,24.9"/>
	</g>
</g>
<g>
</g>
<g>
</g>
<g>
</g>
<g>
</g>
<g>
</g>
<g>
</g>
<g>
</g>
<g>
</g>
<g>
</g>
<g>
</g>
<g>
</g>
<g>
</g>
<g>
</g>
<g>
</g>
<g>
</g>
</svg>
