<svg xmlns="http://www.w3.org/2000/svg" width="681" height="293" viewBox="0 0 681 293"><path fill="#3E4446" d="M0 0h681v293H0z"/><g fill="#FAFAFA"><path d="M55.8 85.7L66.4 75h21.4v-7.8h-32zM55.8 53.7h32.1v8H55.8z"/></g><g fill="#DDE6E8"><path d="M103.9 122.9l-10.6-10.7H71.8v-7.8h32.1zM71.8 90.9h32.1v8H71.8z"/></g><g fill="#FAFAFA"><path d="M55.8 160.1l10.6-10.7h21.4v-7.8h-32zM55.8 128.1h32.1v8H55.8z"/></g><g fill="#DDE6E8"><path d="M103.9 197.3l-10.6-10.7H71.8v-7.8h32.1zM71.8 165.3h32.1v8H71.8z"/></g><g fill="#FAFAFA"><path d="M55.8 234.4l10.6-10.6h21.4V216h-32zM55.8 202.5h32.1v8H55.8z"/></g><g fill="#FAFAFA"><path d="M115.1 85.7L125.7 75h21.4v-7.8h-32zM115.1 53.7h32.1v8h-32.1z"/></g><g fill="#DDE6E8"><path d="M163.2 122.9l-10.6-10.7h-21.5v-7.8h32.1zM131.1 90.9h32.1v8h-32.1z"/></g><g fill="#FAFAFA"><path d="M115.1 160.1l10.6-10.7h21.4v-7.8h-32zM115.1 128.1h32.1v8h-32.1z"/></g><g fill="#DDE6E8"><path d="M163.2 197.3l-10.6-10.7h-21.5v-7.8h32.1zM131.1 165.3h32.1v8h-32.1z"/></g><g fill="#FAFAFA"><path d="M115.1 234.4l10.6-10.6h21.4V216h-32zM115.1 202.5h32.1v8h-32.1z"/></g><g fill="#FAFAFA"><path d="M174.4 85.7L185 75h21.4v-7.8h-32zM174.4 53.7h32.1v8h-32.1z"/></g><g fill="#DDE6E8"><path d="M222.5 122.9l-10.6-10.7h-21.5v-7.8h32.1zM190.4 90.9h32.1v8h-32.1z"/></g><g fill="#FAFAFA"><path d="M174.4 160.1l10.6-10.7h21.4v-7.8h-32zM174.4 128.1h32.1v8h-32.1z"/></g><g fill="#DDE6E8"><path d="M222.5 197.3l-10.6-10.7h-21.5v-7.8h32.1zM190.4 165.3h32.1v8h-32.1z"/></g><g fill="#FAFAFA"><path d="M174.4 234.4l10.6-10.6h21.4V216h-32zM174.4 202.5h32.1v8h-32.1z"/></g><g fill="#FAFAFA"><path d="M233.7 85.7L244.3 75h21.4v-7.8h-32zM233.7 53.7h32.1v8h-32.1z"/></g><g fill="#DDE6E8"><path d="M281.8 122.9l-10.6-10.7h-21.5v-7.8h32.1zM249.7 90.9h32.1v8h-32.1z"/></g><g fill="#FAFAFA"><path d="M233.7 160.1l10.6-10.7h21.4v-7.8h-32zM233.7 128.1h32.1v8h-32.1z"/></g><g fill="#DDE6E8"><path d="M281.8 197.3l-10.6-10.7h-21.5v-7.8h32.1zM249.7 165.3h32.1v8h-32.1z"/></g><g fill="#FAFAFA"><path d="M233.7 234.4l10.6-10.6h21.4V216h-32zM233.7 202.5h32.1v8h-32.1z"/></g><g fill="#FAFAFA"><path d="M293 85.7L303.6 75H325v-7.8h-32zM293 53.7h32.1v8H293z"/></g><g fill="#DDE6E8"><path d="M341.1 122.9l-10.6-10.7H309v-7.8h32.1zM309 90.9h32.1v8H309z"/></g><g fill="#FAFAFA"><path d="M293 160.1l10.6-10.7H325v-7.8h-32zM293 128.1h32.1v8H293z"/></g><g fill="#DDE6E8"><path d="M341.1 197.3l-10.6-10.7H309v-7.8h32.1zM309 165.3h32.1v8H309z"/></g><g fill="#FAFAFA"><path d="M293 234.4l10.6-10.6H325V216h-32zM293 202.5h32.1v8H293z"/></g><g fill="#FAFAFA"><path d="M352.3 85.7L362.9 75h21.4v-7.8h-32zM352.3 53.7h32.1v8h-32.1z"/></g><g fill="#DDE6E8"><path d="M400.4 122.9l-10.6-10.7h-21.5v-7.8h32.1zM368.3 90.9h32.1v8h-32.1z"/></g><g fill="#FAFAFA"><path d="M352.3 160.1l10.6-10.7h21.4v-7.8h-32zM352.3 128.1h32.1v8h-32.1z"/></g><g fill="#DDE6E8"><path d="M400.4 197.3l-10.6-10.7h-21.5v-7.8h32.1zM368.3 165.3h32.1v8h-32.1z"/></g><g fill="#FAFAFA"><path d="M352.3 234.4l10.6-10.6h21.4V216h-32zM352.3 202.5h32.1v8h-32.1z"/></g><g fill="#FAFAFA"><path d="M411.6 85.7L422.2 75h21.4v-7.8h-32zM411.6 53.7h32.1v8h-32.1z"/></g><g fill="#DDE6E8"><path d="M459.7 122.9l-10.6-10.7h-21.5v-7.8h32.1zM427.6 90.9h32.1v8h-32.1z"/></g><g fill="#FAFAFA"><path d="M411.6 160.1l10.6-10.7h21.4v-7.8h-32zM411.6 128.1h32.1v8h-32.1z"/></g><g fill="#DDE6E8"><path d="M459.7 197.3l-10.6-10.7h-21.5v-7.8h32.1zM427.6 165.3h32.1v8h-32.1z"/></g><g fill="#FAFAFA"><path d="M411.6 234.4l10.6-10.6h21.4V216h-32zM411.6 202.5h32.1v8h-32.1z"/></g><g fill="#FAFAFA"><path d="M470.9 85.7L481.5 75H503v-7.8h-32.1zM470.9 53.7H503v8h-32.1z"/></g><g fill="#DDE6E8"><path d="M519 122.9l-10.6-10.7h-21.5v-7.8H519zM486.9 90.9H519v8h-32.1z"/></g><g fill="#FAFAFA"><path d="M470.9 160.1l10.6-10.7H503v-7.8h-32.1zM470.9 128.1H503v8h-32.1z"/></g><g fill="#DDE6E8"><path d="M519 197.3l-10.6-10.7h-21.5v-7.8H519zM486.9 165.3H519v8h-32.1z"/></g><g fill="#FAFAFA"><path d="M470.9 234.4l10.6-10.6H503V216h-32.1zM470.9 202.5H503v8h-32.1z"/></g><g fill="#FAFAFA"><path d="M530.2 85.7L540.8 75h21.4v-7.8h-32zM530.2 53.7h32.1v8h-32.1z"/></g><g fill="#DDE6E8"><path d="M578.3 122.9l-10.6-10.7h-21.5v-7.8h32.1zM546.2 90.9h32.1v8h-32.1z"/></g><g fill="#FAFAFA"><path d="M530.2 160.1l10.6-10.7h21.4v-7.8h-32zM530.2 128.1h32.1v8h-32.1z"/></g><g fill="#DDE6E8"><path d="M578.3 197.3l-10.6-10.7h-21.5v-7.8h32.1zM546.2 165.3h32.1v8h-32.1z"/></g><g fill="#FAFAFA"><path d="M530.2 234.4l10.6-10.6h21.4V216h-32zM530.2 202.5h32.1v8h-32.1z"/></g><g fill="#FAFAFA"><path d="M589.5 85.7L600.1 75h21.5v-7.8h-32.1zM589.5 53.7h32.1v8h-32.1z"/></g><g fill="#DDE6E8"><path d="M637.6 122.9L627 112.2h-21.5v-7.8h32.1zM605.5 90.9h32.1v8h-32.1z"/></g><g fill="#FAFAFA"><path d="M589.5 160.1l10.6-10.7h21.5v-7.8h-32.1zM589.5 128.1h32.1v8h-32.1z"/></g><g fill="#DDE6E8"><path d="M637.6 197.3L627 186.6h-21.5v-7.8h32.1zM605.5 165.3h32.1v8h-32.1z"/></g><g fill="#FAFAFA"><path d="M589.5 234.4l10.6-10.6h21.5V216h-32.1zM589.5 202.5h32.1v8h-32.1z"/></g></svg>