<svg xmlns="http://www.w3.org/2000/svg" width="680" height="584" viewBox="0 0 680 584"><path fill="#5BBCC9" d="M0 0h680v584H0z"/><g fill="#1B3E4C"><path d="M445.2 195c-4.2 0-7.7 1.4-10.6 3.6v-2.8h-10.5v39h10.4v-25.3c1.5-2 5.1-4.8 9.5-4.8 2.4 0 4.5.8 5.9 2.2 1.4 1.4 2.3 3.5 2.3 7.3v20.7h10.4V215c0-6.7-1.4-10.6-4-13.7-3.1-3.9-8-6.3-13.4-6.3zM374.6 221.1c-1.4 1.8-4.7 4.8-9.1 4.8-2 0-4.3-.6-5.9-2.4-1.2-1.4-1.9-3.1-1.9-6.7v-21.1h-10.5v20.7c0 5.8 1.4 9.8 3.9 12.9 3.1 3.8 7.9 6.3 13.3 6.3 3.6 0 7.2-1.1 10.1-3.6v2.8h10.4v-39h-10.5v25.3zM334.4 226.4c-2.6 0-4.3-.7-5.3-1.9-.9-1-1.3-2.5-1.3-4.9v-14.9h10.9v-8.8h-10.9V185h-10.5v10.9h-4.6v8.8h4.6v13.7c0 5.5.9 9 2.9 11.7 2.7 3.5 7.2 5.6 13.5 5.6 2 0 5.1-.3 6.5-.8l-1.6-8.8c-.7 0-2.7.3-4.2.3zM403.6 195.8h-10.4v39h10.4v-17c0-7.4 5-11.7 13.6-11.7v-10.5c-5.6 0-10.1 1.3-13.7 3.3v-3.1zM288.3 195.7c-3.9 0-7.6 1.1-10.7 3v-2.9h-9.8v59.7h9.8v-39.4c0-5.9 4.8-10.7 10.7-10.7 5.9 0 10.7 4.8 10.7 10.7 0 5.9-4.8 10.7-10.7 10.7h-6.1v9.8h6.1c11.1 0 20.2-9 20.4-20v-.4c.1-11.3-9.1-20.5-20.4-20.5zM260.8 178.5H250v33.4c0 5.1-1.4 8.3-3.7 10.4-2.4 2.3-5.8 3.6-9.6 3.6s-7.2-1.3-9.6-3.6c-2.3-2.2-3.7-5.3-3.7-10.4v-33.4h-10.8V211c0 8.6 2.6 14.6 7.2 18.7 4.3 3.9 10.5 5.8 16.9 5.8 6.3 0 12.5-1.9 16.9-5.8 4.7-4.2 7.2-10.1 7.2-18.7v-24h.1l4.7-8.5h-4.8z"/></g><path fill="#092930" d="M564.3 377.4h2v18.5h-2z"/><path fill="#092930" d="M564.3 377.4h17v7.9h-17z"/><path fill="#324C56" d="M482.4 461.7h132.5v122.2H482.4z"/><path fill="#4E9DA5" d="M517 463.4c0-27.2 22-49.2 49.2-49.2 27.2 0 49.2 22 49.2 49.2"/><path fill="#FBF9F3" d="M545.1 414.3c0-11.2 9.1-20.2 20.2-20.2 11.2 0 20.2 9 20.2 20.2"/><path fill="#092930" d="M539.1 410.9h54.3v12.3h-54.3zM535.3 494.9h97.3v63.7h-97.3z"/><path fill="#FBF9F3" d="M535.3 494.9h12.6v66.7h-12.6zM591.8 494.9h12.6v66.7h-12.6zM563.6 494.9h12.6v66.7h-12.6zM620 494.9h12.6v66.7H620z"/><path fill="#FBF9F3" d="M535.3 494.9h12.6v66.7h-12.6zM516.1 571.2H652v12.6H516.1z"/><path fill="#092930" d="M522 558.6h124.1v12.6H522zM632.8 523.9l-82.6-29h82.6z"/><path fill="#FBF9F3" d="M522 483.4h124.1V496H522z"/><path fill="#092930" d="M183.4 393.7c-1 1.3-2.5 2.1-4.2 2.1-2 0-3.7-1.1-4.6-2.7l-26.9 98.8 2.6 3.3h57.4l2.6-3.3-26.9-98.2zm-29.7 96.2l25.2-92.5 25.2 92.5h-50.4z"/><path fill="#092930" d="M165.1 435.2h28.1v5.3h-28.1zM178.5 398.4c-4.4 0-7.9-3.6-7.9-7.9 0-4.4 3.6-7.9 7.9-7.9 4.4 0 7.9 3.6 7.9 7.9 0 4.3-3.5 7.9-7.9 7.9zm0-10.6c-1.5 0-2.6 1.2-2.6 2.6 0 1.5 1.2 2.6 2.6 2.6 1.4 0 2.6-1.2 2.6-2.6 0-1.4-1.1-2.6-2.6-2.6z"/><path fill="#092930" d="M184.966 415.295l3.744 3.75-20.736 20.701-3.744-3.75z"/><path fill="#092930" d="M168.13 438.187l30.758 22.986-3.172 4.246-30.759-22.987z"/><path fill="#092930" d="M156.7 462.8h45.4v5.3h-45.4zM496.9 421h4.9v17.8h-4.9z"/><path fill="#4E9DA5" d="M290.2 479.4h116v104.4h-116z"/><path fill="#FBF9F3" d="M309.7 494.8h14.9v20h-14.9zM340.4 494.8h14.9v20h-14.9zM371.1 494.8H386v20h-14.9z"/><path fill="#092930" d="M175.3 479.4h116v104.4h-116z"/><path fill="#FBF9F3" d="M307.6 537.6h47.7v33.7h-47.7zM364.1 537.6h25.8v46h-25.8z"/><path fill="#092930" d="M302.1 523.2h91.6v7.5h-91.6zM522 483.6l62-29.4 62 29.4z"/><path fill="#FBF9F3" d="M589.5 470.6c0 3.3-2.7 6-6 6s-6-2.7-6-6 2.7-6 6-6c3.3.1 6 2.7 6 6z"/><g><path fill="#FBF9F3" d="M196.6 519.7v-13.9c0-4.7 3.8-8.6 8.6-8.6 4.7 0 8.6 3.8 8.6 8.6v13.9"/><path fill="#4E9DA5" d="M194.6 517.9h21.1v4h-21.1z"/></g><g><path fill="#FBF9F3" d="M225.6 519.7v-13.9c0-4.7 3.8-8.6 8.6-8.6 4.7 0 8.6 3.8 8.6 8.6v13.9"/><path fill="#4E9DA5" d="M223.6 517.9h21.1v4h-21.1z"/></g><g><path fill="#FBF9F3" d="M254.6 519.7v-13.9c0-4.7 3.8-8.6 8.6-8.6 4.7 0 8.6 3.8 8.6 8.6v13.9"/><path fill="#4E9DA5" d="M252.6 517.9h21.1v4h-21.1z"/></g><g><path fill="#FBF9F3" d="M196.6 558.3v-13.9c0-4.7 3.8-8.6 8.6-8.6 4.7 0 8.6 3.9 8.6 8.6v13.9"/><path fill="#4E9DA5" d="M194.6 556.5h21.1v4h-21.1z"/></g><g><path fill="#FBF9F3" d="M225.6 558.3v-13.9c0-4.7 3.8-8.6 8.6-8.6 4.7 0 8.6 3.9 8.6 8.6v13.9"/><path fill="#4E9DA5" d="M223.6 556.5h21.1v4h-21.1z"/></g><g><path fill="#FBF9F3" d="M254.6 558.3v-13.9c0-4.7 3.8-8.6 8.6-8.6 4.7 0 8.6 3.9 8.6 8.6v13.9"/><path fill="#4E9DA5" d="M252.6 556.5h21.1v4h-21.1z"/></g><path fill="#092930" d="M276.9 469.8h6.5v9.4h-6.5zM346.5 469.8h6.5v9.4h-6.5zM262.9 429.9h100.8v35.3H262.9z"/><path fill="#092930" d="M262.9 465.1h100.8v6.6H262.9z"/><g><path fill="#092930" d="M406 436.3h116v147.5H406z"/><path fill="#4E9DA5" d="M400.2 435.3h127.6v8.8H400.2z"/><g fill="#FBF9F3"><path d="M425.5 494.8h14.9v20h-14.9zM456.2 494.8h14.9v20h-14.9zM486.9 494.8h14.9v20h-14.9z"/></g><g fill="#FBF9F3"><path d="M425.5 461.6h14.9v20h-14.9zM456.2 461.6h14.9v20h-14.9zM486.9 461.6h14.9v20h-14.9z"/></g><path fill="#FBF9F3" d="M509.5 534.7h-91.6l3-6.1h86.2zM423.4 537.6h47.7v33.7h-47.7zM479.9 537.6h25.8v46.2h-25.8z"/><path fill="#092930" d="M417.9 534.7h91.6v7.5h-91.6zM406 444.1h116v3.8H406zM508.7 401.8c5.7 5.7 5.7 14.9 0 20.6-5.7 5.7-14.9 5.7-20.5 0"/><path fill="#092930" d="M497.5 414.2l-10.7-10.6 2.3-2.3 10.6 10.6z"/><path fill="#092930" d="M488.1 405.7c-1.8 0-3.3-1.5-3.3-3.3 0-1.8 1.5-3.3 3.3-3.3 1.8 0 3.3 1.5 3.3 3.3 0 1.9-1.5 3.3-3.3 3.3z"/></g><g fill="#FBF9F3"><path d="M279.8 447.6c0 1.7 1.3 2.9 2.9 2.9.8 0 1.4-.3 1.9-.7V448h-2.2v-1.5h3.8v3.8c-.8 1-2 1.6-3.6 1.6-2.7 0-4.5-1.9-4.5-4.4 0-2.5 1.8-4.4 4.5-4.4 1.3 0 2.4.5 3.1 1.2l-1.1 1.1c-.5-.5-1.2-.9-2.1-.9-1.5.2-2.7 1.5-2.7 3.1zM295 443.2c2.6 0 4.5 2 4.5 4.4 0 2.4-1.8 4.4-4.5 4.4-2.6 0-4.5-2-4.5-4.4 0-2.4 1.8-4.4 4.5-4.4zm0 7.4c1.6 0 2.8-1.3 2.8-2.9 0-1.6-1.2-2.9-2.8-2.9s-2.8 1.3-2.8 2.9c0 1.5 1.2 2.9 2.8 2.9zM309.1 443.4h1.7l2.3 5.8 2.3-5.8h1.7l-3.5 8.6h-1.2l-3.3-8.6zM324.9 443.2c2.6 0 4.5 2 4.5 4.4 0 2.4-1.8 4.4-4.5 4.4-2.6 0-4.5-2-4.5-4.4 0-2.4 1.8-4.4 4.5-4.4zm0 7.4c1.6 0 2.8-1.3 2.8-2.9 0-1.6-1.2-2.9-2.8-2.9s-2.8 1.3-2.8 2.9c0 1.5 1.2 2.9 2.8 2.9zM339 443.4v1.5h-2.3v7.1H335v-7.1h-2.3v-1.5h6.3zM345 444.8v1.8h2.6v1.5H345v2.4h3.6v1.5h-5.3v-8.6h5.1v1.5H345z"/></g><path fill="#092930" d="M248.7 475.1V473c1-.2 2-.7 2.7-1.5l-8.3-8.3c-2.3 2.3-2.3 6 0 8.3.3.3.5.5.8.7v3h-3.7v4.1h12.3v-4.1h-3.8zM377.2 475.1V473c-1-.2-2-.7-2.7-1.5l8.3-8.3c2.3 2.3 2.3 6 0 8.3-.3.3-.5.5-.8.7v3h3.7v4.1h-12.3v-4.1h3.8z"/><g><path fill="#4E9DA5" d="M59.2 458.3h17.7v31.1H59.2zM44.2 499.1h133.3v84.7H44.2z"/><g fill="#FBF9F3"><path d="M59.2 516h17.7v17.7H59.2zM88.1 516h17.7v17.7H88.1zM117.1 516h17.7v17.7h-17.7z"/></g><g fill="#FBF9F3"><path d="M59.2 548.2h17.7v17.7H59.2zM88.1 548.2h17.7v17.7H88.1zM117.1 548.2h17.7v17.7h-17.7z"/></g><path fill="#FBF9F3" d="M146 516h17.7v17.7H146zM146 548.2h17.7v17.7H146z"/><path fill="#092930" d="M38.1 488.7h147.3V502H38.1z"/><g><path fill="#092930" d="M97.7 430.5v-2.8h-7.5c-2.7 0-5 2.2-5 5v2.8h7.5c2.7 0 5-2.2 5-5zM122.2 424.9v-4.7h-12.4c-4.5 0-8.2 3.7-8.2 8.2v4.7H114c4.5 0 8.2-3.6 8.2-8.2zM84.4 439.3H70.3c-.4 0-.7 0-1.1.1-.4 0-.8-.1-1.2-.1-6.5 0-11.9 5.3-11.9 11.9 0 6.5 5.3 11.9 11.9 11.9 6 0 11-4.5 11.8-10.3.3-.2.5-.3.7-.5h5c4.5 0 8.2-3.7 8.2-8.2v-4.7h-9.3z"/></g></g><path fill="#4E9DA5" d="M262.9 461.2h100.8v3.9H262.9z"/><g fill="#FBF9F3"><path d="M43.6 396.7c0-10.6 8.6-19.2 19.2-19.2S82 386.1 82 396.7M115.7 396.7c0-6.5 5.3-11.8 11.8-11.8 6.5 0 11.8 5.3 11.8 11.8"/><path d="M62.9 396.7c0-16.9 13.7-30.7 30.7-30.7 16.9 0 30.7 13.7 30.7 30.7"/></g><g fill="#FBF9F3"><path d="M211.4 416.6c0-9-7.3-16.3-16.3-16.3s-16.3 7.3-16.3 16.3"/><path d="M252.7 416.6c0-13.8-11.2-24.9-24.9-24.9-13.8 0-24.9 11.2-24.9 24.9"/></g><g fill="#FBF9F3"><path d="M398.1 399.5c0-9 7.3-16.3 16.3-16.3s16.3 7.3 16.3 16.3"/><path d="M356.8 399.5c0-13.8 11.2-24.9 24.9-24.9 13.8 0 24.9 11.2 24.9 24.9"/></g></svg>