<svg xmlns="http://www.w3.org/2000/svg" xmlns:xlink="http://www.w3.org/1999/xlink" width="680" height="293" viewBox="0 0 680 293"><path fill="#FBF9F3" d="M0 292.6V0h680v292.6"/><defs><path id="a" d="M93.5 103.5v40.2c0 22.2 18 40.2 40.2 40.2 22.2 0 40.2-18 40.2-40.2 0-22.2-18-40.2-40.2-40.2H93.5z"/></defs><use xlink:href="#a" overflow="visible" fill="#5BBCC9"/><linearGradient id="b" gradientUnits="userSpaceOnUse" x1="116.091" y1="180.048" x2="129.731" y2="142.573"><stop offset="0" stop-color="#0097a7" stop-opacity="0"/><stop offset=".856" stop-color="#0097a7"/></linearGradient><path opacity=".5" fill="url(#b)" d="M114.4 137l-19 19c4.5 13.9 16.3 24.5 30.8 27.2l28.4-28.4-40.2-17.8z"/><path fill="#FFF" d="M135.4 127.2c-11.7 0-21.7 7.3-25.8 17.6 4.1 10.3 14.1 17.6 25.8 17.6 11.7 0 21.7-7.3 25.8-17.6-4.1-10.3-14.1-17.6-25.8-17.6z"/><path fill="#4FC3F7" d="M135.4 156.5c-6.5 0-11.7-5.3-11.7-11.7 0-6.5 5.3-11.7 11.7-11.7 6.5 0 11.7 5.3 11.7 11.7 0 6.5-5.3 11.7-11.7 11.7z"/><path fill="#092930" d="M135.4 137.8c-3.9 0-7 3.1-7 7s3.1 7 7 7 7-3.1 7-7-3.1-7-7-7z"/><path fill="#FFF" d="M137.6 140.1c-1.4 0-2.5 1.1-2.5 2.5s1.1 2.5 2.5 2.5 2.5-1.1 2.5-2.5-1.1-2.5-2.5-2.5z"/><defs><path id="c" d="M302.6 103.5v40.2c0 22.2 18 40.2 40.2 40.2 22.2 0 40.2-18 40.2-40.2 0-22.2-18-40.2-40.2-40.2h-40.2z"/></defs><use xlink:href="#c" overflow="visible" fill="#5BBCC9"/><linearGradient id="d" gradientUnits="userSpaceOnUse" x1="320.206" y1="192.224" x2="341.278" y2="134.331"><stop offset=".193" stop-color="#0097a7" stop-opacity="0"/><stop offset=".856" stop-color="#0097a7"/></linearGradient><path opacity=".5" fill="url(#d)" d="M319.2 126.3l-16.6 16.6v.7c0 22.2 18 40.2 40.2 40.2.9 0 1.8 0 2.7-.1l20.9-20.9-47.2-36.5z"/><path fill="#D50000" d="M319.2 126h47.2v36.9h-47.2z"/><path fill="#BDBDBD" d="M323.3 130.2h39v4.9h-39z"/><path fill="#FF1744" d="M319.2 139.3h47.2v23.6h-47.2z"/><path fill="#FFF" d="M328.8 119.6h28.6V135h-28.6z"/><path fill="#42A5F5" d="M347.4 123.4l-5.2 5.2-2.1-2-1.6 1.5 3.7 3.7 6.8-6.8z"/><g><defs><path id="e" d="M407.2 103.5v40.2c0 22.2 18 40.2 40.2 40.2 22.2 0 40.2-18 40.2-40.2 0-22.2-18-40.2-40.2-40.2h-40.2z"/></defs><use xlink:href="#e" overflow="visible" fill="#5BBCC9"/><linearGradient id="f" gradientUnits="userSpaceOnUse" x1="423.861" y1="201.31" x2="452.186" y2="123.487"><stop offset=".193" stop-color="#0097a7" stop-opacity="0"/><stop offset=".856" stop-color="#0097a7"/></linearGradient><path opacity=".5" fill="url(#f)" d="M462.7 150.4l-26.4-32.8-29 29c1.5 20.8 18.9 37.3 40.1 37.3 7.9 0 15.4-2.3 21.6-6.3l-15.5-16.5 9.2-10.7z"/><path fill="#FFAB40" d="M467.1 150.2l-17.3-17.3-10.2-6.3 6.3 10.2 13.4 13.4-11 11 18 18c1.7-.9 3.2-1.9 4.7-3l-15-15 11.1-11z"/><path fill="#1B3E4C" d="M442.7 119.6l-2.5-2.5c-.9-.9-2.4-.9-3.3 0l-6.6 6.6c-.9.9-.9 2.4 0 3.3l2.5 2.5-.8.8 5 5 7.5 2.5 2.5 2.5 6.6-6.6-2.5-2.5-2.5-7.5-5-5-.9.9z"/><g><path fill="#CFD8DC" d="M431.9 125.4l6.6-6.6 2.5 2.5-6.6 6.6z"/></g></g><g><defs><path id="g" d="M198.1 103.5v40.2c0 22.2 18 40.2 40.2 40.2 22.2 0 40.2-18 40.2-40.2 0-22.2-18-40.2-40.2-40.2h-40.2z"/></defs><use xlink:href="#g" overflow="visible" fill="#5BBCC9"/><linearGradient id="h" gradientUnits="userSpaceOnUse" x1="202.666" y1="225.612" x2="237.484" y2="129.95"><stop offset=".193" stop-color="#0097a7" stop-opacity="0"/><stop offset=".856" stop-color="#0097a7"/></linearGradient><path opacity=".5" fill="url(#h)" d="M216.6 122.4L198 141v2.7c0 22.2 18 40.2 40.2 40.2.8 0 1.7 0 2.5-.1l19.7-19.7-43.8-41.7z"/><g><path fill="#90A4AE" d="M218.4 124h5.7v4.5h-5.7z"/><circle fill="#CFD8DC" cx="218.4" cy="125" r="3.5"/><path fill="#90A4AE" d="M252.2 158.4h5.7v4.5h-5.7z"/><path fill="#FFF" d="M254.3 161.9V125c0-.3-.1-.7-.2-1-.4-1.3-1.5-2.3-2.9-2.5h-32.5c1.7.2 3.1 1.7 3.1 3.5v36.9c0 .3.1.7.2 1 .4 1.3 1.5 2.3 2.9 2.5h32.5c-1.7-.2-3.1-1.7-3.1-3.5z"/><circle fill="#CFD8DC" cx="257.8" cy="161.9" r="3.5"/><path fill="none" stroke="#90A4AE" stroke-width="1.355" stroke-miterlimit="10" d="M229.7 154.3H246M229.7 157.7H246"/><g fill="none" stroke="#90A4AE" stroke-width="1.355" stroke-miterlimit="10"><path d="M233.4 130.4h9.3M231.1 133.5H245"/></g><path fill="none" stroke="#FF5722" stroke-width="1.997" stroke-miterlimit="10" d="M243.5 140l3.8 3.3-3.8 3.3M232.2 140l-3.8 3.3 3.8 3.3M239.4 138.3l-3.6 10"/></g></g><g><defs><path id="i" d="M511.7 103.5v40.2c0 22.2 18 40.2 40.2 40.2 22.2 0 40.2-18 40.2-40.2 0-22.2-18-40.2-40.2-40.2h-40.2z"/></defs><use xlink:href="#i" overflow="visible" fill="#5BBCC9"/><linearGradient id="j" gradientUnits="userSpaceOnUse" x1="523.211" y1="208.925" x2="553.538" y2="125.6"><stop offset=".193" stop-color="#0097a7" stop-opacity="0"/><stop offset=".856" stop-color="#0097a7"/></linearGradient><path opacity=".5" fill="url(#j)" d="M576.8 138.8l-6.7-7.2h-34.2l-7.4 4.4-15.9 15.9c3.1 14.8 14.4 26.7 28.9 30.6l35.6-35.6-.3-8.1z"/><g><path fill="#FBC02D" d="M550.4 120.8h3.8v40.5h-3.8z"/><path fill="#FDD835" d="M543.7 159.3H561v3.8h-17.3zM535.4 128.5h33.9v3.8h-33.9z"/><circle fill="#FDD835" cx="552.2" cy="120.8" r="3.5"/><path fill="#37474F" d="M576 135.2l-6.7-6.7-6.7 6.7c-1.8 1.8-2.8 4.2-2.8 6.7s1 4.9 2.8 6.7c1.8 1.8 4.2 2.8 6.7 2.8s4.9-1 6.7-2.8c3.6-3.7 3.6-9.7 0-13.4z"/><path fill="#5BBCC9" d="M569.3 133l4.4 4.5c1 1 1.6 2.2 1.8 3.6h-12.4c.2-1.4.8-2.6 1.8-3.6l4.4-4.5z"/><g><path fill="#37474F" d="M542.1 135.2l-6.7-6.7-6.7 6.7c-1.8 1.8-2.8 4.2-2.8 6.7s1 4.9 2.8 6.7c1.8 1.8 4.2 2.8 6.7 2.8s4.9-1 6.7-2.8c3.7-3.7 3.7-9.7 0-13.4z"/><path fill="#5BBCC9" d="M535.4 133l4.4 4.5c1 1 1.6 2.2 1.8 3.6h-12.4c.2-1.4.8-2.6 1.8-3.6l4.4-4.5z"/></g></g></g></svg>