<svg xmlns="http://www.w3.org/2000/svg" width="680" height="293" viewBox="0 0 680 293"><path fill="#1B3E4C" d="M0 0h339.6v293H0z"/><path fill="#5BBCC9" d="M339.6 0h340.7v293H339.6z"/><path fill="none" stroke="#5BBCC9" stroke-width="2.232" stroke-miterlimit="10" d="M145.7 100.8h99.5M210.2 205.4H248"/><g fill="#FBF9F3"><path d="M100.8 86h2.1l2.2 6.7 2.4-6.7h1.5l2.4 6.7 2.2-6.7h2.1l-3.6 10.8h-1.5l-2.4-6.8-2.4 6.8h-1.5L100.8 86zM122.8 95.6c-.7.9-1.9 1.3-3.1 1.3-2.2 0-3.9-1.5-3.9-3.9 0-2.1 1.4-3.9 3.6-3.9 2.1 0 3.5 1.7 3.5 3.8v.6h-5.2c.1 1 1 1.8 2 1.8.8 0 1.5-.5 1.9-.9l1.2 1.2zm-1.8-3.5c-.1-.7-.7-1.3-1.5-1.3s-1.5.6-1.6 1.3h3.1zM127.5 86l-1.8 4.5h-1.5l1.2-4.5h2.1zM133.2 91.1c-.1 0-.4-.1-.7-.1-.9 0-1.6.6-1.8 1.1v4.7h-2v-7.5h1.9v.8c.4-.6 1.3-.9 2.2-.9.3 0 .5 0 .7.1l-.3 1.8zM141 95.6c-.7.9-1.9 1.3-3.1 1.3-2.2 0-3.9-1.5-3.9-3.9 0-2.1 1.4-3.9 3.6-3.9 2.1 0 3.5 1.7 3.5 3.8v.6H136c.1 1 1 1.8 2 1.8.8 0 1.5-.5 1.9-.9l1.1 1.2zm-1.8-3.5c-.1-.7-.7-1.3-1.5-1.3s-1.5.6-1.6 1.3h3.1zM152.7 96.8c-.3.1-.9.2-1.2.2-1.2 0-2.1-.4-2.6-1.1-.4-.5-.6-1.2-.6-2.2V91h-2.1v-1.7h2.1v-2.1h2v2.1h2.5V91h-2.5v2.8c0 .5.1.7.2.9.2.2.5.4 1 .4.3 0 .7 0 .8-.1l.4 1.8zM160.8 95.6c-.7.9-1.9 1.3-3.1 1.3-2.2 0-3.9-1.5-3.9-3.9 0-2.1 1.4-3.9 3.6-3.9 2.1 0 3.5 1.7 3.5 3.8v.6h-5.2c.1 1 1 1.8 2 1.8.8 0 1.5-.5 1.9-.9l1.2 1.2zm-1.9-3.5c-.1-.7-.7-1.3-1.5-1.3s-1.5.6-1.6 1.3h3.1zM169.6 95.2c-.9 1.2-2 1.7-3.4 1.7-2.3 0-4-1.7-4-3.9s1.7-3.9 4-3.9c1.3 0 2.4.6 3.1 1.5l-1.4 1.2c-.4-.5-1-.9-1.7-.9-1.2 0-2 .9-2 2 0 1.2.8 2 2.1 2 .8 0 1.5-.5 1.8-1l1.5 1.3zM173.1 96.8h-2v-11h2v4c.6-.4 1.3-.7 2-.7 1 0 2 .5 2.6 1.2.5.6.8 1.3.8 2.6v3.8h-2v-4c0-.7-.2-1.1-.4-1.4-.3-.3-.7-.4-1.1-.4-.8 0-1.5.5-1.8.9v5zM180.7 96.8v-7.5h1.9v.6c.6-.5 1.3-.8 2.1-.8 1 0 2 .5 2.6 1.2.5.6.8 1.3.8 2.6v3.8h-2v-4c0-.7-.2-1.1-.4-1.4-.3-.3-.7-.4-1.1-.4-.8 0-1.5.5-1.8.9v4.8h-2.1zM193.5 89.1c2.3 0 4 1.7 4 3.9s-1.7 3.9-4 3.9-4-1.7-4-3.9 1.8-3.9 4-3.9zm0 6c1.2 0 2-.9 2-2s-.8-2-2-2-2 .9-2 2 .9 2 2 2zM201.2 96.8h-2v-11h2v11zM206.9 89.1c2.3 0 4 1.7 4 3.9s-1.7 3.9-4 3.9-4-1.7-4-3.9 1.7-3.9 4-3.9zm0 6c1.2 0 2-.9 2-2s-.8-2-2-2-2 .9-2 2 .8 2 2 2zM219.8 96.3c0 1.3-.2 2.1-.7 2.8-.7.9-1.9 1.5-3.3 1.5-1.5 0-2.8-.7-3.6-1.5l1.3-1.3c.4.4 1.1 1.1 2.3 1.1.6 0 1.2-.2 1.5-.6.3-.3.5-.8.5-1.8v-.2c-.6.5-1.2.7-2 .7-1.1 0-2.2-.5-2.8-1.3-.6-.7-.9-1.6-.9-2.6 0-2.2 1.6-3.9 3.7-3.9.8 0 1.6.3 2.2.8v-.6h1.9v6.9zm-2-4.4c-.4-.6-1.1-.9-1.8-.9-1.2 0-1.9 1-1.9 2 0 1.2.8 2 2 2 .8 0 1.4-.4 1.8-.9v-2.2zM223.1 85.4c.7 0 1.3.6 1.3 1.3 0 .7-.6 1.3-1.3 1.3s-1.3-.6-1.3-1.3c0-.8.6-1.3 1.3-1.3zm1 11.4h-2v-7.5h2v7.5zM226.7 94.5c.5.5 1.3.7 2 .7.5 0 1-.3 1-.6 0-1.1-3.6-.7-3.6-3.1 0-1.4 1.4-2.3 2.9-2.3 1 0 2 .4 2.5.8l-.9 1.4c-.4-.3-.9-.5-1.4-.5-.6 0-1 .2-1 .6 0 1 3.6.6 3.6 3.2 0 1.4-1.4 2.3-3 2.3-1 0-2.1-.4-3-1l.9-1.5zM238.8 96.8c-.3.1-.9.2-1.2.2-1.2 0-2.1-.4-2.6-1.1-.4-.5-.6-1.2-.6-2.2V91h-2.1v-1.7h2.1v-2.1h2v2.1h2.5V91h-2.5v2.8c0 .5.1.7.2.9.2.2.5.4 1 .4.3 0 .7 0 .8-.1l.4 1.8zM241 94.5c.5.5 1.3.7 2 .7.5 0 1-.3 1-.6 0-1.1-3.6-.7-3.6-3.1 0-1.4 1.4-2.3 2.9-2.3 1 0 2 .4 2.5.8l-.9 1.4c-.4-.3-.9-.5-1.4-.5-.6 0-1 .2-1 .6 0 1 3.6.6 3.6 3.2 0 1.4-1.4 2.3-3 2.3-1 0-2.1-.4-3-1l.9-1.5zM102.4 122.8H101l-3.1-7.5h2l1.8 4.4 1.9-4.4h1.4l1.9 4.4 1.8-4.4h2l-3.1 7.5h-1.4l-1.9-4.3-1.9 4.3zM114 122.8h-2v-10.9h2v4c.6-.4 1.3-.7 2-.7 1 0 2 .5 2.6 1.2.5.6.8 1.3.8 2.6v3.8h-2v-4c0-.7-.2-1.1-.4-1.4-.3-.3-.7-.4-1.1-.4-.8 0-1.5.5-1.8.9v4.9zM124.9 115.1c2.3 0 4 1.7 4 3.9s-1.7 3.9-4 3.9-4-1.7-4-3.9 1.7-3.9 4-3.9zm0 6c1.2 0 2-.9 2-2s-.8-2-2-2-2 .9-2 2 .8 2 2 2zM141.7 115.3v7.5h-1.9v-.6c-.6.5-1.3.8-2 .8-1 0-2-.5-2.5-1.2-.5-.6-.8-1.4-.8-2.5v-4h2v4c0 .7.1 1 .4 1.3.3.3.7.5 1.1.5.8 0 1.5-.6 1.7-.9v-4.8h2zM144.1 122.8v-7.5h1.9v.6c.6-.5 1.3-.8 2.1-.8 1 0 2 .5 2.6 1.2.5.6.8 1.3.8 2.6v3.8h-2v-4c0-.7-.2-1.1-.4-1.4-.3-.3-.7-.4-1.1-.4-.8 0-1.5.5-1.8.9v4.8h-2.1zM158.8 122.8v-.6c-.6.5-1.3.8-2.1.8-1.1 0-2.2-.5-2.8-1.3-.6-.7-1-1.6-1-2.6 0-2.2 1.6-3.9 3.7-3.9.8 0 1.5.2 2.1.7v-4h2v10.9h-1.9zm-.1-4.9c-.4-.6-1.1-.9-1.8-.9-1.2 0-1.9 1-1.9 2 0 1.2.8 2 2 2 .8 0 1.4-.4 1.8-.9v-2.2zM169.4 121.6c-.7.9-1.9 1.3-3.1 1.3-2.2 0-3.9-1.5-3.9-3.9 0-2.1 1.4-3.9 3.6-3.9 2.1 0 3.5 1.7 3.5 3.8v.6h-5.2c.1 1 1 1.8 2 1.8.8 0 1.5-.5 1.9-.9l1.2 1.2zm-1.9-3.5c-.1-.7-.7-1.3-1.5-1.3s-1.5.6-1.6 1.3h3.1zM175.8 117.1c-.1 0-.4-.1-.7-.1-.9 0-1.6.6-1.8 1.1v4.7h-2v-7.5h1.9v.8c.4-.6 1.3-.9 2.2-.9.3 0 .5 0 .7.1l-.3 1.8zM177.7 120.5c.5.5 1.3.7 2 .7.5 0 1-.3 1-.6 0-1.1-3.6-.7-3.6-3.1 0-1.4 1.4-2.3 2.9-2.3 1 0 2 .4 2.5.8l-.9 1.4c-.4-.3-.9-.5-1.4-.5-.6 0-1 .2-1 .6 0 1 3.6.6 3.6 3.2 0 1.4-1.4 2.3-3 2.3-1 0-2.1-.4-3-1l.9-1.5zM189.9 122.8c-.3.1-.9.2-1.2.2-1.2 0-2.1-.4-2.6-1.1-.4-.5-.6-1.2-.6-2.2V117h-2.1v-1.7h2.1v-2.1h2v2.1h2.5v1.7h-2.5v2.8c0 .5.1.7.2.9.2.2.5.4 1 .4.3 0 .7 0 .8-.1l.4 1.8zM198.8 122.8h-1.9v-.6c-.6.5-1.3.8-2.1.8-1.1 0-2.2-.5-2.8-1.3-.6-.7-1-1.6-1-2.6 0-2.2 1.6-3.9 3.7-3.9.8 0 1.6.3 2.2.8v-.6h1.9v7.4zm-2-4.9c-.4-.6-1.1-.9-1.8-.9-1.2 0-1.9 1-1.9 2 0 1.2.8 2 2 2 .8 0 1.4-.4 1.8-.9v-2.2zM201.1 122.8v-7.5h1.9v.6c.6-.5 1.3-.8 2.1-.8 1 0 2 .5 2.6 1.2.5.6.8 1.3.8 2.6v3.8h-2v-4c0-.7-.2-1.1-.4-1.4-.3-.3-.7-.4-1.1-.4-.8 0-1.5.5-1.8.9v4.8h-2.1zM215.9 122.8v-.6c-.6.5-1.3.8-2.1.8-1.1 0-2.2-.5-2.8-1.3-.6-.7-1-1.6-1-2.6 0-2.2 1.6-3.9 3.7-3.9.8 0 1.5.2 2.1.7v-4h2v10.9h-1.9zm-.1-4.9c-.4-.6-1.1-.9-1.8-.9-1.2 0-1.9 1-1.9 2 0 1.2.8 2 2 2 .8 0 1.4-.4 1.8-.9v-2.2zM226.2 122.8h-2v-10.9h2v10.9zM235.7 122.8h-1.9v-.6c-.6.5-1.3.8-2.1.8-1.1 0-2.2-.5-2.8-1.3-.6-.7-1-1.6-1-2.6 0-2.2 1.6-3.9 3.7-3.9.8 0 1.6.3 2.2.8v-.6h1.9v7.4zm-2-4.9c-.4-.6-1.1-.9-1.8-.9-1.2 0-1.9 1-1.9 2 0 1.2.8 2 2 2 .8 0 1.4-.4 1.8-.9v-2.2zM241.5 122.8h-1.4l-3.1-7.5h2l1.8 4.4 1.9-4.4h1.4l1.9 4.4 1.8-4.4h2l-3.1 7.5h-1.4l-1.9-4.3-1.9 4.3zM110.3 148.8h-1.9v-.6c-.6.5-1.3.8-2.1.8-1.1 0-2.2-.5-2.8-1.3-.6-.7-1-1.6-1-2.6 0-2.2 1.6-3.9 3.7-3.9.8 0 1.6.3 2.2.8v-.6h1.9v7.4zm-2-4.9c-.4-.6-1.1-.9-1.8-.9-1.2 0-1.9 1-1.9 2 0 1.2.8 2 2 2 .8 0 1.4-.4 1.8-.9v-2.2zM112.6 148.8v-7.5h1.9v.6c.6-.5 1.3-.8 2.1-.8 1 0 2 .5 2.6 1.2.5.6.8 1.3.8 2.6v3.8h-2v-4c0-.7-.2-1.1-.4-1.4-.3-.3-.7-.4-1.1-.4-.8 0-1.5.5-1.8.9v4.8h-2.1zM127.3 148.8v-.6c-.6.5-1.3.8-2.1.8-1.1 0-2.2-.5-2.8-1.3-.6-.7-1-1.6-1-2.6 0-2.2 1.6-3.9 3.7-3.9.8 0 1.5.2 2.1.7v-4h2v10.9h-1.9zm0-4.9c-.4-.6-1.1-.9-1.8-.9-1.2 0-1.9 1-1.9 2 0 1.2.8 2 2 2 .8 0 1.4-.4 1.8-.9v-2.2zM135.7 141.3h1.9v.6c.6-.5 1.3-.8 2.2-.8 2 0 3.7 1.7 3.7 3.9 0 1-.4 1.9-.9 2.6-.7.8-1.7 1.3-2.8 1.3-.8 0-1.4-.2-2-.7v4.2h-2v-11.1zm2 4.8c.4.6 1 .9 1.8.9 1.1 0 2-.9 2-2s-.8-2-1.9-2c-.8 0-1.4.4-1.8.9v2.2zM148.7 141.1c2.3 0 4 1.7 4 3.9s-1.7 3.9-4 3.9-4-1.7-4-3.9 1.7-3.9 4-3.9zm0 6c1.2 0 2-.9 2-2s-.8-2-2-2-2 .9-2 2 .8 2 2 2zM156.3 148.8h-2v-10.9h2v10.9zM159.6 137.4c.7 0 1.3.6 1.3 1.3 0 .7-.6 1.3-1.3 1.3s-1.3-.6-1.3-1.3c0-.8.6-1.3 1.3-1.3zm1 11.4h-2v-7.5h2v7.5zM169.7 147.2c-.9 1.2-2 1.7-3.4 1.7-2.3 0-4-1.7-4-3.9s1.7-3.9 4-3.9c1.3 0 2.4.6 3.1 1.5l-1.4 1.2c-.4-.5-1-.9-1.7-.9-1.2 0-2 .9-2 2 0 1.2.8 2 2.1 2 .8 0 1.5-.5 1.8-1l1.5 1.3zM171.5 152.5l2.1-4.4-3.3-6.7h2.2l2.2 4.5 2-4.5h2.1l-5.1 11.2h-2.2zM181 146.2c.8 0 1.4.6 1.4 1.4 0 .8-.6 1.3-1.4 1.3s-1.3-.6-1.3-1.3c0-.8.6-1.4 1.3-1.4zM187 138h2.1l2.2 6.7 2.4-6.7h1.5l2.4 6.7 2.2-6.7h2.1l-3.6 10.8h-1.5l-2.4-6.8-2.4 6.8h-1.5L187 138zM209 147.6c-.7.9-1.9 1.3-3.1 1.3-2.2 0-3.9-1.5-3.9-3.9 0-2.1 1.4-3.9 3.6-3.9 2.1 0 3.5 1.7 3.5 3.8v.6H204c.1 1 1 1.8 2 1.8.8 0 1.5-.5 1.9-.9l1.1 1.2zm-1.9-3.5c-.1-.7-.7-1.3-1.5-1.3s-1.5.6-1.6 1.3h3.1zM217 148.8h-2v-10.9h2v4c.6-.4 1.3-.7 2-.7 1 0 2 .5 2.6 1.2.5.6.8 1.3.8 2.6v3.8h-2v-4c0-.7-.2-1.1-.4-1.4-.3-.3-.7-.4-1.1-.4-.8 0-1.5.5-1.8.9v4.9zM230.9 147.6c-.7.9-1.9 1.3-3.1 1.3-2.2 0-3.9-1.5-3.9-3.9 0-2.1 1.4-3.9 3.6-3.9 2.1 0 3.5 1.7 3.5 3.8v.6h-5.2c.1 1 1 1.8 2 1.8.8 0 1.5-.5 1.9-.9l1.2 1.2zm-1.8-3.5c-.1-.7-.7-1.3-1.5-1.3s-1.5.6-1.6 1.3h3.1zM234.8 148.8h-2v-10.9h2v10.9zM237.1 141.3h1.9v.6c.6-.5 1.3-.8 2.2-.8 2 0 3.7 1.7 3.7 3.9 0 1-.4 1.9-.9 2.6-.7.8-1.7 1.3-2.8 1.3-.8 0-1.4-.2-2-.7v4.2h-2v-11.1zm2 4.8c.4.6 1 .9 1.8.9 1.1 0 2-.9 2-2s-.8-2-1.9-2c-.8 0-1.4.4-1.8.9v2.2zM115.2 167.1c2.3 0 4 1.7 4 3.9s-1.7 3.9-4 3.9-4-1.7-4-3.9 1.8-3.9 4-3.9zm0 6c1.2 0 2-.9 2-2s-.8-2-2-2-2 .9-2 2 .9 2 2 2zM128 167.3v7.5h-2v-.6c-.6.5-1.3.8-2 .8-1 0-2-.5-2.5-1.2-.5-.6-.8-1.4-.8-2.5v-4h2v4c0 .7.1 1 .4 1.3.3.3.7.5 1.1.5.8 0 1.5-.6 1.7-.9v-4.8h2.1zM134.8 169.1c-.1 0-.4-.1-.7-.1-.9 0-1.6.6-1.8 1.1v4.7h-2v-7.5h1.9v.8c.4-.6 1.3-.9 2.2-.9.3 0 .5 0 .7.1l-.3 1.8zM147.5 173.2c-.9 1.2-2 1.7-3.4 1.7-2.3 0-4-1.7-4-3.9s1.7-3.9 4-3.9c1.3 0 2.4.6 3.1 1.5l-1.4 1.2c-.4-.5-1-.9-1.7-.9-1.2 0-2 .9-2 2 0 1.2.8 2 2.1 2 .8 0 1.5-.5 1.8-1l1.5 1.3zM151 174.8h-2v-10.9h2v10.9zM154.3 163.4c.7 0 1.3.6 1.3 1.3 0 .7-.6 1.3-1.3 1.3s-1.3-.6-1.3-1.3c0-.8.6-1.3 1.3-1.3zm1 11.4h-2v-7.5h2v7.5zM164 173.6c-.7.9-1.9 1.3-3.1 1.3-2.2 0-3.9-1.5-3.9-3.9 0-2.1 1.4-3.9 3.6-3.9 2.1 0 3.5 1.7 3.5 3.8v.6h-5.2c.1 1 1 1.8 2 1.8.8 0 1.5-.5 1.9-.9l1.2 1.2zm-1.9-3.5c-.1-.7-.7-1.3-1.5-1.3s-1.5.6-1.6 1.3h3.1zM165.8 174.8v-7.5h1.9v.6c.6-.5 1.3-.8 2.1-.8 1 0 2 .5 2.6 1.2.5.6.8 1.3.8 2.6v3.8h-2v-4c0-.7-.2-1.1-.4-1.4-.3-.3-.7-.4-1.1-.4-.8 0-1.5.5-1.8.9v4.8h-2.1zM180.7 174.8c-.3.1-.9.2-1.2.2-1.2 0-2.1-.4-2.6-1.1-.4-.5-.6-1.2-.6-2.2V169h-2.1v-1.7h2.1v-2.1h2v2.1h2.5v1.7h-2.5v2.8c0 .5.1.7.2.9.2.2.5.4 1 .4.3 0 .7 0 .8-.1l.4 1.8zM182.9 172.5c.5.5 1.3.7 2 .7.5 0 1-.3 1-.6 0-1.1-3.6-.7-3.6-3.1 0-1.4 1.4-2.3 2.9-2.3 1 0 2 .4 2.5.8l-.9 1.4c-.4-.3-.9-.5-1.4-.5-.6 0-1 .2-1 .6 0 1 3.6.6 3.6 3.2 0 1.4-1.4 2.3-3 2.3-1 0-2.1-.4-3-1l.9-1.5zM194.1 172.5c.5.5 1.3.7 2 .7.5 0 1-.3 1-.6 0-1.1-3.6-.7-3.6-3.1 0-1.4 1.4-2.3 2.9-2.3 1 0 2 .4 2.5.8l-.9 1.4c-.4-.3-.9-.5-1.4-.5-.6 0-1 .2-1 .6 0 1 3.6.6 3.6 3.2 0 1.4-1.4 2.3-3 2.3-1 0-2.1-.4-3-1l.9-1.5zM203 174.8h-2v-10.9h2v4c.6-.4 1.3-.7 2-.7 1 0 2 .5 2.6 1.2.5.6.8 1.3.8 2.6v3.8h-2v-4c0-.7-.2-1.1-.4-1.4-.3-.3-.7-.4-1.1-.4-.8 0-1.5.5-1.8.9v4.9zM217.7 174.8h-1.9v-.6c-.6.5-1.3.8-2.1.8-1.1 0-2.2-.5-2.8-1.3-.6-.7-1-1.6-1-2.6 0-2.2 1.6-3.9 3.7-3.9.8 0 1.6.3 2.2.8v-.6h1.9v7.4zm-2-4.9c-.4-.6-1.1-.9-1.8-.9-1.2 0-1.9 1-1.9 2 0 1.2.8 2 2 2 .8 0 1.4-.4 1.8-.9v-2.2zM220 167.3h1.9v.6c.6-.5 1.3-.8 2.2-.8 2 0 3.7 1.7 3.7 3.9 0 1-.4 1.9-.9 2.6-.7.8-1.7 1.3-2.8 1.3-.8 0-1.4-.2-2-.7v4.2h-2v-11.1zm2 4.8c.4.6 1 .9 1.8.9 1.1 0 2-.9 2-2s-.8-2-1.9-2c-.8 0-1.4.4-1.8.9v2.2zM235.9 173.6c-.7.9-1.9 1.3-3.1 1.3-2.2 0-3.9-1.5-3.9-3.9 0-2.1 1.4-3.9 3.6-3.9 2.1 0 3.5 1.7 3.5 3.8v.6h-5.2c.1 1 1 1.8 2 1.8.8 0 1.5-.5 1.9-.9l1.2 1.2zm-1.8-3.5c-.1-.7-.7-1.3-1.5-1.3s-1.5.6-1.6 1.3h3.1zM103.7 200.8h-1.4l-3.1-7.5h2l1.8 4.4 1.9-4.4h1.4l1.9 4.4 1.8-4.4h2l-3.1 7.5h-1.4l-1.9-4.3-1.9 4.3zM115.2 200.8h-2v-10.9h2v4c.6-.4 1.3-.7 2-.7 1 0 2 .5 2.6 1.2.5.6.8 1.3.8 2.6v3.8h-2v-4c0-.7-.2-1.1-.4-1.4-.3-.3-.7-.4-1.1-.4-.8 0-1.5.5-1.8.9v4.9zM129.9 200.8H128v-.6c-.6.5-1.3.8-2.1.8-1.1 0-2.2-.5-2.8-1.3-.6-.7-1-1.6-1-2.6 0-2.2 1.6-3.9 3.7-3.9.8 0 1.6.3 2.2.8v-.6h1.9v7.4zm-2-4.9c-.4-.6-1.1-.9-1.8-.9-1.2 0-1.9 1-1.9 2 0 1.2.8 2 2 2 .8 0 1.4-.4 1.8-.9v-2.2zM137.8 200.8c-.3.1-.9.2-1.2.2-1.2 0-2.1-.4-2.6-1.1-.4-.5-.6-1.2-.6-2.2V195h-2.1v-1.7h2.1v-2.1h2v2.1h2.5v1.7h-2.5v2.8c0 .5.1.7.2.9.2.2.5.4 1 .4.3 0 .7 0 .8-.1l.4 1.8zM146 200.8h-2v-10.9h2v4c.6-.4 1.3-.7 2-.7 1 0 2 .5 2.6 1.2.5.6.8 1.3.8 2.6v3.8h-2v-4c0-.7-.2-1.1-.4-1.4-.3-.3-.7-.4-1.1-.4-.8 0-1.5.5-1.8.9v4.9zM160.7 200.8h-1.9v-.6c-.6.5-1.3.8-2.1.8-1.1 0-2.2-.5-2.8-1.3-.6-.7-1-1.6-1-2.6 0-2.2 1.6-3.9 3.7-3.9.8 0 1.6.3 2.2.8v-.6h1.9v7.4zm-2-4.9c-.4-.6-1.1-.9-1.8-.9-1.2 0-1.9 1-1.9 2 0 1.2.8 2 2 2 .8 0 1.4-.4 1.8-.9v-2.2zM163 193.3h1.9v.6c.6-.5 1.3-.8 2.2-.8 2 0 3.7 1.7 3.7 3.9 0 1-.4 1.9-.9 2.6-.7.8-1.7 1.3-2.8 1.3-.8 0-1.4-.2-2-.7v4.2h-2v-11.1zm2 4.8c.4.6 1 .9 1.8.9 1.1 0 2-.9 2-2s-.8-2-1.9-2c-.8 0-1.4.4-1.8.9v2.2zM172.4 193.3h1.9v.6c.6-.5 1.3-.8 2.2-.8 2 0 3.7 1.7 3.7 3.9 0 1-.4 1.9-.9 2.6-.7.8-1.7 1.3-2.8 1.3-.8 0-1.4-.2-2-.7v4.2h-2v-11.1zm2 4.8c.4.6 1 .9 1.8.9 1.1 0 2-.9 2-2s-.8-2-1.9-2c-.8 0-1.4.4-1.8.9v2.2zM188.4 199.6c-.7.9-1.9 1.3-3.1 1.3-2.2 0-3.9-1.5-3.9-3.9 0-2.1 1.4-3.9 3.6-3.9 2.1 0 3.5 1.7 3.5 3.8v.6h-5.2c.1 1 1 1.8 2 1.8.8 0 1.5-.5 1.9-.9l1.2 1.2zm-1.9-3.5c-.1-.7-.7-1.3-1.5-1.3s-1.5.6-1.6 1.3h3.1zM190.3 200.8v-7.5h1.9v.6c.6-.5 1.3-.8 2.1-.8 1 0 2 .5 2.6 1.2.5.6.8 1.3.8 2.6v3.8h-2v-4c0-.7-.2-1.1-.4-1.4-.3-.3-.7-.4-1.1-.4-.8 0-1.5.5-1.8.9v4.8h-2.1zM200 198.5c.5.5 1.3.7 2 .7.5 0 1-.3 1-.6 0-1.1-3.6-.7-3.6-3.1 0-1.4 1.4-2.3 2.9-2.3 1 0 2 .4 2.5.8l-.9 1.4c-.4-.3-.9-.5-1.4-.5-.6 0-1 .2-1 .6 0 1 3.6.6 3.6 3.2 0 1.4-1.4 2.3-3 2.3-1 0-2.1-.4-3-1l.9-1.5zM211 200.8v-7.5h1.9v.6c.6-.5 1.3-.8 2.1-.8 1 0 2 .5 2.6 1.2.5.6.8 1.3.8 2.6v3.8h-2v-4c0-.7-.2-1.1-.4-1.4-.3-.3-.7-.4-1.1-.4-.8 0-1.5.5-1.8.9v4.8H211zM226.9 199.6c-.7.9-1.9 1.3-3.1 1.3-2.2 0-3.9-1.5-3.9-3.9 0-2.1 1.4-3.9 3.6-3.9 2.1 0 3.5 1.7 3.5 3.8v.6h-5.2c.1 1 1 1.8 2 1.8.8 0 1.5-.5 1.9-.9l1.2 1.2zm-1.9-3.5c-.1-.7-.7-1.3-1.5-1.3s-1.5.6-1.6 1.3h3.1zM231.5 195.4l1.5-2.1h2.3l-2.5 3.5 2.9 4h-2.4l-1.8-2.5-1.8 2.5h-2.4l2.9-4-2.5-3.5h2.3l1.5 2.1zM242.5 200.8c-.3.1-.9.2-1.2.2-1.2 0-2.1-.4-2.6-1.1-.4-.5-.6-1.2-.6-2.2V195H236v-1.7h2.1v-2.1h2v2.1h2.5v1.7h-2.5v2.8c0 .5.1.7.2.9.2.2.5.4 1 .4.3 0 .7 0 .8-.1l.4 1.8zM246.4 198.2c.8 0 1.4.6 1.4 1.4 0 .8-.6 1.3-1.4 1.3s-1.3-.6-1.3-1.3c0-.8.6-1.4 1.3-1.4z"/></g><path fill="#1B3E4C" d="M523.5 124.3v26c0 3.8-.9 6.4-2.9 8.2-1.9 1.8-4.6 2.8-7.5 2.8-2.9 0-5.6-1-7.5-2.8-2-1.8-2.9-4.5-2.9-8.2v-26h-9.5v25.3c0 6.8 2 11.9 6 15.5 3.4 3 8.5 4.8 14 4.8 5.4 0 10.5-1.8 14-4.8 4-3.6 6-8.7 6-15.5v-17.7l4.2-7.6h-13.9z"/><path fill="#1B3E4C" d="M515.7 200.6h-58.1v-58.1c0-32 26.1-58.1 58.1-58.1 32.1 0 58.1 26.1 58.1 58.1.1 32.1-26 58.1-58.1 58.1zm-47.6-10.5h47.6c26.3 0 47.6-21.4 47.6-47.6 0-26.3-21.4-47.6-47.6-47.6-26.2 0-47.6 21.4-47.6 47.6v47.6z"/></svg>