<svg xmlns="http://www.w3.org/2000/svg" xmlns:xlink="http://www.w3.org/1999/xlink" width="657" height="837" viewBox="0 0 657 837"><path fill="#FFF" d="M.5 48.8h657v787.8H.5z"/><path fill="#FBF9F3" d="M0 50.2h657v303.4H0z"/><defs><path id="a" d="M0 50.2h657v303.4H0z"/></defs><clipPath id="b"><use xlink:href="#a" overflow="visible"/></clipPath><g clip-path="url(#b)"><path fill="none" stroke="#5BBCC9" stroke-width="3.573" stroke-miterlimit="10" d="M-7.7 302l80.5-80.5"/><g stroke="#1B3E4C" stroke-miterlimit="10"><path fill="none" stroke-width="3.062" d="M153.8 315.8c-2.1 0-3.8-1.7-3.8-3.8 0-2.1 1.7-3.8 3.8-3.8 2.1 0 3.8 1.7 3.8 3.8 0 2.1-1.7 3.8-3.8 3.8z"/><path fill="#1B3E4C" stroke-width="3.573" d="M157 331.2c-1.1 0-2-.9-2-2s.9-2 2-2 2 .9 2 2-.9 2-2 2z"/><path fill="none" stroke-width="3.062" d="M136.5 331.7c-4.1 0-7.4-3.3-7.4-7.3 0-4.1 3.3-7.3 7.3-7.4 4.1 0 7.3 3.3 7.4 7.3 0 4.1-3.2 7.4-7.3 7.4z"/></g><path fill="#5BBCC9" stroke="#5BBCC9" stroke-width="3.573" stroke-miterlimit="10" d="M69 217h8.2v8.2H69z"/><path fill="#5BBCC9" d="M95.6 194.7c-4 0-7.3 2.5-8.7 5.9 1.4 3.5 4.7 5.9 8.7 5.9 4 0 7.3-2.5 8.7-5.9-1.4-3.5-4.7-5.9-8.7-5.9zm0 9.8c-2.2 0-4-1.8-4-4s1.8-4 4-4 4 1.8 4 4c0 2.3-1.8 4-4 4zm0-6.3c-1.3 0-2.4 1.1-2.4 2.4 0 1.3 1.1 2.4 2.4 2.4 1.3 0 2.4-1.1 2.4-2.4 0-1.3-1.1-2.4-2.4-2.4z"/><g stroke="#5BBCC9" stroke-width="3.143" stroke-miterlimit="10"><path fill="#5BBCC9" d="M67.7 361.1l55.6-55.6"/><g fill="none"><path d="M135.6 236l-62.4 62.4c-3.9 4-3.9 10.4 0 14.3 4 3.9 10.4 3.9 14.3 0l19.1-19.1"/><path d="M123.3 305.5l9.6-9.6c3.9-4 3.9-10.4 0-14.3-4-4-10.4-4-14.3 0l-14.3 14.3"/></g><path fill="#FFF" d="M132.2 231.4h9.1v9.1h-9.1z"/></g><path fill="none" stroke="#1B3E4C" stroke-width="3.143" stroke-miterlimit="10" d="M-16.9 350.4l160-160"/><path fill="#1B3E4C" d="M152.1 188.1l1.7-1.7c.6-.6.6-1.6 0-2.2l-4.5-4.5c-.6-.6-1.6-.6-2.2 0l-1.7 1.7-.6-.6-3.4 3.3-1.7 5-1.7 1.7 4.5 4.5 1.7-1.7 5-1.7 3.4-3.3-.5-.5zm-3.9-7.3l4.5 4.5-1.7 1.7-1.1-1.1 1.1-1.1-.6-.6-1.1 1.1-1.1-1.1 1.1-1.1-.6-.6-1.1 1.1-1.1-1.1 1.7-1.7z"/><path fill="none" stroke="#5BBCC9" stroke-width="3.143" stroke-miterlimit="10" d="M-26.9 193l63.7-63.7"/><path fill="#1B3E4C" d="M49.7 316h6.9l2.8 2.8v-9.7c0-.4-.3-.7-.7-.7h-9c-.4 0-.7.3-.7.7v6.2c0 .4.3.7.7.7zM48.9 326.5v-6.2c0-.4-.3-.7-.7-.7h-9c-.4 0-.7.3-.7.7v9.7l2.8-2.8h6.9c.4-.1.7-.4.7-.7z"/><g fill="none" stroke="#1B3E4C" stroke-width="3.143" stroke-miterlimit="10"><path d="M-3 202.6l38.8-38.8c4.1-4.1 10.6-4.1 14.7 0s4.1 10.6 0 14.7l-13.1 13.1M100.7 157.7l-47.5 47.5c-4.1 4.1-10.6 4.1-14.7 0s-4.1-10.6 0-14.7l1.6-1.6"/></g><g fill="#1B3E4C"><path d="M102.2 156.2c-1-1-2.5-1-3.5 0s-1 2.5 0 3.5 2.5 1 3.5 0 1-2.6 0-3.5z"/><path d="M105.7 152.7c-2.9-2.9-7.5-2.9-10.4 0-1.3 1.3-2 3-2.1 4.7h2.5c.1-1.1.6-2.1 1.4-2.9 1.9-1.9 5-1.9 6.9 0 1.9 1.9 1.9 5 0 6.9-1 1-2.2 1.4-3.5 1.4v2.5c1.9 0 3.8-.7 5.2-2.1 2.9-2.9 2.9-7.6 0-10.5z"/><path d="M109.1 149.3c-4.8-4.8-12.5-4.8-17.3 0-2.3 2.3-3.4 5.2-3.6 8.1h2.4c.1-2.3 1.1-4.6 2.8-6.4 3.8-3.8 10-3.8 13.9 0 3.8 3.8 3.8 10 0 13.9-1.9 1.9-4.4 2.9-6.9 2.9v2.5c3.1 0 6.3-1.2 8.7-3.6 4.8-4.9 4.8-12.7 0-17.4z"/></g><g fill="none" stroke="#5BBCC9" stroke-width="3.143" stroke-miterlimit="10"><path d="M26.2 127.3c3.4 3.4 9.1 3.1 12.9-.6M38.4 139.5c-3.4-3.4-3.1-9.1.6-12.9"/></g><path fill="none" stroke="#1B3E4C" stroke-width="3.165" stroke-miterlimit="10" d="M505.4 143.2l26.5-26.5M506.6 145.2c0 1.9-1.5 3.4-3.4 3.4s-3.4-1.5-3.4-3.4 1.5-3.4 3.4-3.4 3.4 1.5 3.4 3.4z"/><g stroke="#5BBCC9" stroke-width="3.165" stroke-miterlimit="10"><path fill="none" d="M667.1 88.5l-52.3 52.4"/><path fill="#FFF" d="M610.3 137.1h8.3v8.3h-8.3z"/></g><g fill="none" stroke="#5BBCC9" stroke-width="3.165" stroke-miterlimit="10"><path d="M669.2 148.7l-75.8 75.8c-4.1 4.1-10.8 4.1-15 0-4.1-4.1-4.1-10.8 0-15l13.4-13.4"/><path d="M523.5 234.5l52.1-52.1c4.1-4.1 10.8-4.1 15 0 4.1 4.1 4.1 10.8 0 15l-1.7 1.7"/></g><g fill="none" stroke="#5BBCC9" stroke-width="3.165" stroke-miterlimit="10"><path d="M549.1 98.6l-32.8-32.8M515.5 74.7c2.7-2.7 2.4-7.2-.5-10.1M525.2 65.1c-2.7 2.7-7.2 2.4-10.1-.5M562.6 85.1l-19.3 19.3a8.39 8.39 0 0 0 0 11.9c3.3 3.3 8.6 3.3 11.9 0 3.3-3.3 3.3-8.6 0-11.9l-5.9-5.9M550.5 97.1l53.8-53.9"/></g><g><path fill="none" stroke="#1B3E4C" stroke-width="3.165" stroke-miterlimit="10" d="M680 171.2L598.3 253"/></g><g fill="none" stroke="#1B3E4C" stroke-width="3.165" stroke-miterlimit="10"><path d="M609.2 255c-3.4-3.4-9.3-3.2-13.1.6M596.8 242.5c3.4 3.4 3.2 9.3-.6 13.1"/></g><g><path fill="none" stroke="#1B3E4C" stroke-width="3.165" stroke-miterlimit="10" d="M666.1 54.1L523.4 196.8"/><circle fill="none" stroke="#1B3E4C" stroke-width="3.165" stroke-miterlimit="10" cx="520.8" cy="199.6" r="4.8"/></g><g stroke-miterlimit="10"><path fill="#5BBCC9" stroke="#5BBCC9" stroke-width="3.598" d="M613.7 176.4c1.6.3 2.7 1.8 2.4 3.4-.3 1.6-1.8 2.7-3.4 2.4-1.6-.3-2.7-1.8-2.4-3.4.3-1.6 1.8-2.7 3.4-2.4z"/><path fill="#1B3E4C" stroke="#1B3E4C" stroke-width="2.292" d="M641.1 140.6c3.2.5 5.4 3.6 4.8 6.8-.5 3.2-3.6 5.4-6.8 4.8-3.2-.5-5.4-3.6-4.8-6.8.5-3.2 3.6-5.3 6.8-4.8z"/><path fill="#5BBCC9" stroke="#5BBCC9" stroke-width="3.598" d="M597.2 156.9c1.6.3 2.7 1.8 2.4 3.4-.3 1.6-1.8 2.7-3.4 2.4-1.6-.3-2.7-1.8-2.4-3.4.3-1.6 1.8-2.7 3.4-2.4z"/><path fill="none" stroke="#1B3E4C" stroke-width="2.292" d="M620 157.5c2.1.4 3.6 2.4 3.2 4.5-.4 2.1-2.4 3.6-4.5 3.2-2.1-.4-3.6-2.4-3.2-4.5.3-2.1 2.4-3.6 4.5-3.2z"/></g><path fill="#1B3E4C" d="M520.5 243.2l-5.4-5.4c-.6-.6-1.6-.6-2.2 0l-.5.5-1.1-1.1c-1.5-1.5-3.9-1.5-5.4 0-1.5 1.5-1.5 3.9 0 5.4l1.1 1.1-.5.5c-.6.6-.6 1.6 0 2.2l5.4 5.4c.6.6 1.6.6 2.2 0l3.2-3.2 3.2-3.2c.6-.7.6-1.7 0-2.2zm-12.5-.5l-1.1-1.1c-.9-.9-.9-2.4 0-3.3.9-.9 2.4-.9 3.3 0l1.1 1.1-1.7 1.7-1.6 1.6zm6.5 3.1c-.6.6-1.6.6-2.2 0-.6-.6-.6-1.6 0-2.2.6-.6 1.6-.6 2.2 0 .6.7.6 1.7 0 2.2z"/><path fill="none" stroke="#5BBCC9" stroke-width="3.165" stroke-miterlimit="10" d="M521.4 231.2l5.9 5.9"/><g><path fill="#1B3E4C" d="M547.7 145.5c0-.6-.3-1.1-.7-1.3l-7-4.1-7 4.1c-.4.3-.7.8-.7 1.3v7.8c0 .9.7 1.6 1.6 1.6h12.5c.9 0 1.6-.7 1.6-1.6l-.3-7.8z"/><path fill="#FFF" d="M539.9 149.4l-6.4-4 6.4-3.8 6.5 3.8z"/></g><path fill="#5BBCC9" stroke="#5BBCC9" stroke-width="3.165" stroke-miterlimit="10" d="M580.8 108.3l69.9-70"/><g fill="#5BBCC9"><circle cx="572.2" cy="117.1" r="2.2"/><circle cx="566.1" cy="123.1" r="2.2"/><circle cx="560" cy="129.6" r="2.2"/><circle cx="553.9" cy="135.4" r="2.2"/></g><g stroke="#1B3E4C" stroke-width="2.637" stroke-miterlimit="10"><circle fill="none" cx="513.3" cy="92.7" r="3.2"/><circle fill="#1B3E4C" cx="522" cy="102.7" r="1.7"/><circle fill="none" cx="506.1" cy="107.2" r="6.2"/></g><path fill="#5BBCC9" stroke="#5BBCC9" stroke-width="3.165" stroke-miterlimit="10" d="M642.6 241.2l25.8-25.7"/><path fill="#5BBCC9" stroke="#5BBCC9" stroke-width="3.598" stroke-miterlimit="10" d="M643.6 243.5c-1 .5-2.2.2-2.7-.8s-.2-2.2.8-2.7 2.2-.2 2.7.8c.5.9.2 2.2-.8 2.7z"/><g><g fill="#1B3E4C"><path d="M543.9 76.7l4-4h8.2v-3h-12.2zM543.9 64.6h12.2v3h-12.2z"/></g></g></g><path fill="#5BBCC9" d="M.5 546.7h657v290.6H.5z"/><g fill="#1B3E4C"><path d="M96.9 780.7H98l1.5 3.8 1.5-3.8h1.1l-2.2 5.5h-.7l-2.3-5.5zM104.2 782.3c1.2 0 2 .9 2 2s-.9 2-2 2-2-.9-2-2 .8-2 2-2zm0 3c.6 0 1-.5 1-1s-.4-1-1-1-1 .5-1 1 .4 1 1 1zM110 786.2c-.1 0-.4.1-.6.1-.6 0-1.1-.2-1.3-.6-.2-.3-.3-.6-.3-1.1v-1.3h-1.1v-.9h1.1v-1.1h1v1.1h1.3v.9h-1.3v1.5c0 .2 0 .4.1.5.1.1.3.2.5.2h.4l.2.7zM111.5 780.3c.4 0 .7.3.7.7 0 .4-.3.7-.7.7s-.7-.3-.7-.7c.1-.4.3-.7.7-.7zm.5 5.9h-1v-3.8h1v3.8zM113.2 786.2v-3.8h1v.3c.3-.2.7-.4 1.1-.4.5 0 1 .2 1.3.6.3.3.4.7.4 1.3v1.9h-1v-2c0-.4-.1-.6-.2-.7-.1-.1-.3-.2-.6-.2-.4 0-.8.3-.9.5v2.5h-1.1zM121.8 786c0 .7-.1 1.1-.3 1.4-.3.5-1 .8-1.7.8s-1.5-.3-1.8-.8l.6-.7c.2.2.6.6 1.2.6.3 0 .6-.1.8-.3.2-.2.2-.4.2-.9v-.1c-.3.2-.6.3-1 .3-.6 0-1.1-.3-1.5-.6-.3-.3-.5-.8-.5-1.3 0-1.1.8-2 1.9-2 .4 0 .8.1 1.1.4v-.3h1v3.5zm-1.1-2.3c-.2-.3-.6-.5-.9-.5-.6 0-1 .5-1 1 0 .6.4 1 1 1 .4 0 .7-.2.9-.5v-1z"/></g><g fill="#1B3E4C"><path d="M136.4 780.7h.7l3.1 3.6v-3.6h1.1v5.5h-.7l-3.1-3.6v3.6h-1.1v-5.5zM146.1 786.2h-1v-.3c-.3.3-.7.4-1.1.4-.6 0-1.1-.3-1.4-.6-.3-.3-.5-.8-.5-1.3 0-1.1.8-2 1.9-2 .4 0 .8.1 1.1.4v-.3h1v3.7zm-1-2.5c-.2-.3-.6-.5-.9-.5-.6 0-1 .5-1 1 0 .6.4 1 1 1 .4 0 .7-.2.9-.5v-1zM150.2 786.2c-.1 0-.4.1-.6.1-.6 0-1.1-.2-1.3-.6-.2-.3-.3-.6-.3-1.1v-1.3h-1.1v-.9h1.1v-1.1h1v1.1h1.3v.9H149v1.5c0 .2 0 .4.1.5.1.1.3.2.5.2h.4l.2.7zM151.7 780.3c.4 0 .7.3.7.7 0 .4-.3.7-.7.7s-.7-.3-.7-.7c0-.4.3-.7.7-.7zm.5 5.9h-1v-3.8h1v3.8zM155.1 782.3c1.2 0 2 .9 2 2s-.9 2-2 2-2-.9-2-2 .9-2 2-2zm0 3c.6 0 1-.5 1-1s-.4-1-1-1-1 .5-1 1 .4 1 1 1zM158 786.2v-3.8h1v.3c.3-.2.7-.4 1.1-.4.5 0 1 .2 1.3.6.3.3.4.7.4 1.3v1.9h-1v-2c0-.4-.1-.6-.2-.7-.1-.1-.3-.2-.6-.2-.4 0-.8.3-.9.5v2.5H158zM166.6 786.2h-1v-.3c-.3.3-.7.4-1.1.4-.6 0-1.1-.3-1.4-.6-.3-.3-.5-.8-.5-1.3 0-1.1.8-2 1.9-2 .4 0 .8.1 1.1.4v-.3h1v3.7zm-1-2.5c-.2-.3-.6-.5-.9-.5-.6 0-1 .5-1 1 0 .6.4 1 1 1 .4 0 .7-.2.9-.5v-1zM168.8 786.2h-1v-5.6h1v5.6zM172.3 784.7c.3.3.8.6 1.3.6s.8-.3.8-.7c0-.7-1-.8-1.8-1.2-.4-.3-.8-.6-.8-1.3 0-1 .9-1.6 1.8-1.6.6 0 1.1.1 1.6.5l-.6.8c-.2-.2-.6-.4-1-.4s-.9.2-.9.6c0 .9 2.5.6 2.5 2.5 0 1-.9 1.7-1.9 1.7-.7 0-1.4-.3-2-.8l1-.7zM179.6 785.6c-.4.4-1 .7-1.6.7-1.1 0-2-.8-2-2 0-1.1.7-2 1.9-2 1.1 0 1.8.9 1.8 2v.3H177c.1.5.5.9 1 .9.4 0 .8-.2 1-.4l.6.5zm-.9-1.8c0-.3-.3-.7-.8-.7-.4 0-.8.3-.8.7h1.6zM184 785.4c-.4.6-1 .9-1.7.9-1.2 0-2.1-.9-2.1-2s.9-2 2.1-2c.7 0 1.3.3 1.6.8l-.7.6c-.2-.3-.5-.5-.9-.5-.6 0-1 .5-1 1 0 .6.4 1 1.1 1 .4 0 .7-.3.9-.5l.7.7zM188.5 782.4v3.8h-1v-.3c-.3.3-.7.4-1 .4-.5 0-1-.2-1.3-.6-.2-.3-.4-.7-.4-1.3v-2h1v2.1c0 .3.1.5.2.7.2.2.4.2.6.2.4 0 .7-.3.9-.5v-2.5h1zM192 783.3h-.4c-.4 0-.8.3-.9.6v2.4h-1v-3.8h1v.4c.2-.3.6-.5 1.1-.5h.3l-.1.9zM193.4 780.3c.4 0 .7.3.7.7 0 .4-.3.7-.7.7s-.7-.3-.7-.7c0-.4.3-.7.7-.7zm.5 5.9h-1v-3.8h1v3.8zM198 786.2c-.1 0-.4.1-.6.1-.6 0-1.1-.2-1.3-.6-.2-.3-.3-.6-.3-1.1v-1.3h-1.1v-.9h1.1v-1.1h1v1.1h1.3v.9h-1.3v1.5c0 .2 0 .4.1.5.1.1.3.2.5.2h.4l.2.7zM199.2 788.1l1.1-2.3-1.7-3.4h1.1l1.1 2.3 1-2.3h1.1l-2.6 5.7h-1.1z"/></g><g fill="#1B3E4C"><path d="M215.2 783.4c0 1.1.8 1.9 1.9 1.9.7 0 1.2-.3 1.6-.8l.7.7c-.5.6-1.3 1.1-2.3 1.1-1.7 0-2.9-1.3-2.9-2.8 0-1.6 1.2-2.8 2.9-2.8.8 0 1.5.3 2 .8l-.7.7c-.3-.3-.8-.6-1.3-.6-1.1-.1-1.9.8-1.9 1.8zM222.5 783.3h-.4c-.4 0-.8.3-.9.6v2.4h-1v-3.8h1v.4c.2-.3.6-.5 1.1-.5h.3l-.1.9zM223.9 780.3c.4 0 .7.3.7.7 0 .4-.3.7-.7.7s-.7-.3-.7-.7c0-.4.3-.7.7-.7zm.5 5.9h-1v-3.8h1v3.8zM225.6 786.2v-3.8h1v.3c.3-.3.7-.4 1-.4.5 0 1 .2 1.3.6.3-.3.8-.6 1.4-.6.5 0 1 .2 1.3.6.2.3.4.7.4 1.3v2h-1v-2.1c0-.3-.1-.5-.2-.7-.2-.2-.4-.2-.6-.2-.4 0-.8.3-.9.5v2.4h-1V784c0-.3-.1-.5-.2-.7-.2-.2-.4-.2-.6-.2-.4 0-.7.3-.9.5v2.5h-1zM233.6 780.3c.4 0 .7.3.7.7 0 .4-.3.7-.7.7s-.7-.3-.7-.7c0-.4.3-.7.7-.7zm.5 5.9h-1v-3.8h1v3.8zM235.3 786.2v-3.8h1v.3c.3-.2.7-.4 1.1-.4.5 0 1 .2 1.3.6.3.3.4.7.4 1.3v1.9h-1v-2c0-.4-.1-.6-.2-.7-.1-.1-.3-.2-.6-.2-.4 0-.8.3-.9.5v2.5h-1.1zM243.9 786.2h-1v-.3c-.3.3-.7.4-1.1.4-.6 0-1.1-.3-1.4-.6-.3-.3-.5-.8-.5-1.3 0-1.1.8-2 1.9-2 .4 0 .8.1 1.1.4v-.3h1v3.7zm-1.1-2.5c-.2-.3-.6-.5-.9-.5-.6 0-1 .5-1 1 0 .6.4 1 1 1 .4 0 .7-.2.9-.5v-1zM246.1 786.2h-1v-5.6h1v5.6zM252.1 784.4c0 .4 0 .7-.2 1-.3.5-.9.8-1.5.8-.7 0-1.3-.4-1.6-1l.9-.5c.1.2.3.5.6.5.2 0 .4-.1.5-.2.1-.1.1-.2.1-.5v-3.9h1.1v3.8zM257 782.4v3.8h-1v-.3c-.3.3-.7.4-1 .4-.5 0-1-.2-1.3-.6-.2-.3-.4-.7-.4-1.3v-2h1v2.1c0 .3.1.5.2.7.2.2.4.2.6.2.4 0 .7-.3.9-.5v-2.5h1zM258.2 785c.3.2.7.4 1 .4.3 0 .5-.1.5-.3 0-.6-1.9-.4-1.9-1.6 0-.7.7-1.2 1.5-1.2.5 0 1 .2 1.3.4l-.5.7c-.2-.1-.5-.3-.7-.3-.3 0-.5.1-.5.3 0 .5 1.9.3 1.9 1.6 0 .7-.7 1.2-1.5 1.2-.5 0-1.1-.2-1.5-.5l.4-.7zM264.6 786.2c-.1 0-.4.1-.6.1-.6 0-1.1-.2-1.3-.6-.2-.3-.3-.6-.3-1.1v-1.3h-1.1v-.9h1.1v-1.1h1v1.1h1.3v.9h-1.3v1.5c0 .2 0 .4.1.5.1.1.3.2.5.2h.4l.2.7zM266.2 780.3c.4 0 .7.3.7.7 0 .4-.3.7-.7.7s-.7-.3-.7-.7c0-.4.3-.7.7-.7zm.5 5.9h-1v-3.8h1v3.8zM271.3 785.4c-.4.6-1 .9-1.7.9-1.2 0-2.1-.9-2.1-2s.9-2 2.1-2c.7 0 1.3.3 1.6.8l-.7.6c-.2-.3-.5-.5-.9-.5-.6 0-1 .5-1 1 0 .6.4 1 1.1 1 .4 0 .7-.3.9-.5l.7.7zM275.3 785.6c-.4.4-1 .7-1.6.7-1.1 0-2-.8-2-2 0-1.1.7-2 1.9-2 1.1 0 1.8.9 1.8 2v.3h-2.7c.1.5.5.9 1 .9.4 0 .8-.2 1-.4l.6.5zm-.9-1.8c0-.3-.3-.7-.8-.7-.4 0-.8.3-.8.7h1.6z"/></g><g fill="#1B3E4C"><path d="M288.8 783.4c0 1.1.8 1.9 1.9 1.9.7 0 1.2-.3 1.6-.8l.7.7c-.5.6-1.3 1.1-2.3 1.1-1.7 0-2.9-1.3-2.9-2.8 0-1.6 1.2-2.8 2.9-2.8.8 0 1.5.3 2 .8l-.7.7c-.3-.3-.8-.6-1.3-.6-1.1-.1-1.9.8-1.9 1.8zM295.4 782.3c1.2 0 2 .9 2 2s-.9 2-2 2-2-.9-2-2 .9-2 2-2zm0 3c.6 0 1-.5 1-1s-.4-1-1-1-1 .5-1 1 .4 1 1 1zM298.3 786.2v-3.8h1v.3c.3-.2.7-.4 1.1-.4.5 0 1 .2 1.3.6.3.3.4.7.4 1.3v1.9h-1v-2c0-.4-.1-.6-.2-.7-.1-.1-.3-.2-.6-.2-.4 0-.8.3-.9.5v2.5h-1.1zM303.4 785c.3.2.7.4 1 .4.3 0 .5-.1.5-.3 0-.6-1.9-.4-1.9-1.6 0-.7.7-1.2 1.5-1.2.5 0 1 .2 1.3.4l-.5.7c-.2-.1-.5-.3-.7-.3-.3 0-.5.1-.5.3 0 .5 1.9.3 1.9 1.6 0 .7-.7 1.2-1.5 1.2-.5 0-1.1-.2-1.5-.5l.4-.7zM310.5 782.4v3.8h-1v-.3c-.3.3-.7.4-1 .4-.5 0-1-.2-1.3-.6-.2-.3-.4-.7-.4-1.3v-2h1v2.1c0 .3.1.5.2.7.2.2.4.2.6.2.4 0 .7-.3.9-.5v-2.5h1zM311.7 786.2v-3.8h1v.3c.3-.3.7-.4 1-.4.5 0 1 .2 1.3.6.3-.3.8-.6 1.4-.6.5 0 1 .2 1.3.6.2.3.4.7.4 1.3v2h-1v-2.1c0-.3-.1-.5-.2-.7-.2-.2-.4-.2-.6-.2-.4 0-.8.3-.9.5v2.4h-1V784c0-.3-.1-.5-.2-.7-.2-.2-.4-.2-.6-.2-.4 0-.7.3-.9.5v2.5h-1zM322.4 785.6c-.4.4-1 .7-1.6.7-1.1 0-2-.8-2-2 0-1.1.7-2 1.9-2 1.1 0 1.8.9 1.8 2v.3h-2.7c.1.5.5.9 1 .9.4 0 .8-.2 1-.4l.6.5zm-.9-1.8c0-.3-.3-.7-.8-.7-.4 0-.8.3-.8.7h1.6zM325.7 783.3h-.4c-.4 0-.8.3-.9.6v2.4h-1v-3.8h1v.4c.2-.3.6-.5 1.1-.5h.3l-.1.9zM329.4 783.4c0 1.1.8 1.9 1.9 1.9.7 0 1.2-.3 1.6-.8l.7.7c-.5.6-1.3 1.1-2.3 1.1-1.7 0-2.9-1.3-2.9-2.8 0-1.6 1.2-2.8 2.9-2.8.8 0 1.5.3 2 .8l-.7.7c-.3-.3-.8-.6-1.3-.6-1.1-.1-1.9.8-1.9 1.8zM336.7 783.3h-.4c-.4 0-.8.3-.9.6v2.4h-1v-3.8h1v.4c.2-.3.6-.5 1.1-.5h.3l-.1.9zM340.9 785.6c-.4.4-1 .7-1.6.7-1.1 0-2-.8-2-2 0-1.1.7-2 1.9-2 1.1 0 1.8.9 1.8 2v.3h-2.7c.1.5.5.9 1 .9.4 0 .8-.2 1-.4l.6.5zm-1-1.8c0-.3-.3-.7-.8-.7-.4 0-.8.3-.8.7h1.6zM344.5 786.2v-.3c-.3.3-.7.4-1.1.4-.6 0-1.1-.3-1.4-.6-.3-.3-.5-.8-.5-1.3 0-1.1.8-2 1.9-2 .4 0 .8.1 1.1.4v-2.1h1v5.6h-1zm0-2.5c-.2-.3-.6-.5-.9-.5-.6 0-1 .5-1 1 0 .6.4 1 1 1 .4 0 .7-.2.9-.5v-1zM347.2 780.3c.4 0 .7.3.7.7 0 .4-.3.7-.7.7s-.7-.3-.7-.7c0-.4.3-.7.7-.7zm.5 5.9h-1v-3.8h1v3.8zM351.8 786.2c-.1 0-.4.1-.6.1-.6 0-1.1-.2-1.3-.6-.2-.3-.3-.6-.3-1.1v-1.3h-1.1v-.9h1.1v-1.1h1v1.1h1.3v.9h-1.3v1.5c0 .2 0 .4.1.5.1.1.3.2.5.2h.4l.2.7z"/></g><g fill="#1B3E4C"><path d="M365.1 783.4c0 1.1.8 1.9 1.9 1.9.5 0 .9-.2 1.2-.4v-1.2h-1.4v-.9h2.5v2.5c-.5.6-1.3 1.1-2.3 1.1-1.7 0-2.9-1.3-2.9-2.8 0-1.6 1.2-2.8 2.9-2.8.8 0 1.5.3 2 .8l-.7.7c-.3-.3-.8-.6-1.3-.6-1.1-.2-1.9.7-1.9 1.7zM371.4 786.2h-1v-5.6h1v5.6zM374.3 782.3c1.2 0 2 .9 2 2s-.9 2-2 2-2-.9-2-2 .8-2 2-2zm0 3c.6 0 1-.5 1-1s-.4-1-1-1-1 .5-1 1 .4 1 1 1zM377.2 786.2v-5.6h1v2.1c.3-.2.7-.4 1.1-.4 1 0 1.9.9 1.9 2 0 .5-.2 1-.5 1.3-.3.4-.9.6-1.4.6-.4 0-.7-.1-1.1-.4v.3h-1zm1-1.4c.2.3.5.5.9.5.6 0 1-.4 1-1s-.4-1-1-1c-.4 0-.7.2-.9.5v1zM385.7 786.2h-1v-.3c-.3.3-.7.4-1.1.4-.6 0-1.1-.3-1.4-.6-.3-.3-.5-.8-.5-1.3 0-1.1.8-2 1.9-2 .4 0 .8.1 1.1.4v-.3h1v3.7zm-1-2.5c-.2-.3-.6-.5-.9-.5-.6 0-1 .5-1 1 0 .6.4 1 1 1 .4 0 .7-.2.9-.5v-1zM387.9 786.2h-1v-5.6h1v5.6zM392.3 781.6v1.1h1.7v.9h-1.7v2.5h-1.1v-5.5h3.3v.9h-2.2zM397.7 783.3h-.4c-.4 0-.8.3-.9.6v2.4h-1v-3.8h1v.4c.2-.3.6-.5 1.1-.5h.3l-.1.9zM401.8 785.6c-.4.4-1 .7-1.6.7-1.1 0-2-.8-2-2 0-1.1.7-2 1.9-2 1.1 0 1.8.9 1.8 2v.3h-2.7c.1.5.5.9 1 .9.4 0 .8-.2 1-.4l.6.5zm-.9-1.8c0-.3-.3-.7-.8-.7-.4 0-.8.3-.8.7h1.6zM406 785.6c-.4.4-1 .7-1.6.7-1.1 0-2-.8-2-2 0-1.1.7-2 1.9-2 1.1 0 1.8.9 1.8 2v.3h-2.7c.1.5.5.9 1 .9.4 0 .8-.2 1-.4l.6.5zm-.9-1.8c0-.3-.3-.7-.8-.7-.4 0-.8.3-.8.7h1.6zM410.2 781.6v1.1h1.7v.9h-1.7v1.5h2.3v.9h-3.4v-5.5h3.3v.9h-2.2zM415 783.4l.8-1.1h1.2l-1.3 1.8 1.5 2H416l-.9-1.3-.9 1.3H413l1.5-2-1.3-1.8h1.2l.6 1.1zM417.8 782.4h1v.3c.3-.2.7-.4 1.1-.4 1 0 1.9.9 1.9 2 0 .5-.2 1-.5 1.3-.3.4-.9.6-1.5.6-.4 0-.7-.1-1-.3v2.2h-1v-5.7zm1 2.4c.2.3.5.5.9.5.6 0 1-.4 1-1s-.4-1-1-1c-.4 0-.7.2-.9.5v1zM424.9 783.3h-.4c-.4 0-.8.3-.9.6v2.4h-1v-3.8h1v.4c.2-.3.6-.5 1.1-.5h.3l-.1.9zM429.1 785.6c-.4.4-1 .7-1.6.7-1.1 0-2-.8-2-2 0-1.1.7-2 1.9-2 1.1 0 1.8.9 1.8 2v.3h-2.7c.1.5.5.9 1 .9.4 0 .8-.2 1-.4l.6.5zm-1-1.8c0-.3-.3-.7-.8-.7-.4 0-.8.3-.8.7h1.6zM430.2 785c.3.2.7.4 1 .4.3 0 .5-.1.5-.3 0-.6-1.9-.4-1.9-1.6 0-.7.7-1.2 1.5-1.2.5 0 1 .2 1.3.4l-.5.7c-.2-.1-.5-.3-.7-.3-.3 0-.5.1-.5.3 0 .5 1.9.3 1.9 1.6 0 .7-.7 1.2-1.5 1.2-.5 0-1.1-.2-1.5-.5l.4-.7zM433.8 785c.3.2.7.4 1 .4.3 0 .5-.1.5-.3 0-.6-1.9-.4-1.9-1.6 0-.7.7-1.2 1.5-1.2.5 0 1 .2 1.3.4l-.5.7c-.2-.1-.5-.3-.7-.3-.3 0-.5.1-.5.3 0 .5 1.9.3 1.9 1.6 0 .7-.7 1.2-1.5 1.2-.5 0-1.1-.2-1.5-.5l.4-.7zM437.8 780.3c.4 0 .7.3.7.7 0 .4-.3.7-.7.7s-.7-.3-.7-.7c.1-.4.4-.7.7-.7zm.5 5.9h-1v-3.8h1v3.8zM441.2 782.3c1.2 0 2 .9 2 2s-.9 2-2 2-2-.9-2-2 .9-2 2-2zm0 3c.6 0 1-.5 1-1s-.4-1-1-1-1 .5-1 1 .4 1 1 1zM444.1 786.2v-3.8h1v.3c.3-.2.7-.4 1.1-.4.5 0 1 .2 1.3.6.3.3.4.7.4 1.3v1.9h-1v-2c0-.4-.1-.6-.2-.7-.1-.1-.3-.2-.6-.2-.4 0-.8.3-.9.5v2.5h-1.1z"/></g><g fill="#1B3E4C"><path d="M464 781.6v1.1h1.7v.9H464v1.5h2.3v.9H463v-5.5h3.3v.9H464zM470 786.2v-.3c-.3.3-.7.4-1.1.4-.6 0-1.1-.3-1.4-.6-.3-.3-.5-.8-.5-1.3 0-1.1.8-2 1.9-2 .4 0 .8.1 1.1.4v-2.1h1v5.6h-1zm-.1-2.5c-.2-.3-.6-.5-.9-.5-.6 0-1 .5-1 1 0 .6.4 1 1 1 .4 0 .7-.2.9-.5v-1zM475.7 782.4v3.8h-1v-.3c-.3.3-.7.4-1 .4-.5 0-1-.2-1.3-.6-.2-.3-.4-.7-.4-1.3v-2h1v2.1c0 .3.1.5.2.7.2.2.4.2.6.2.4 0 .7-.3.9-.5v-2.5h1zM480.4 785.4c-.4.6-1 .9-1.7.9-1.2 0-2.1-.9-2.1-2s.9-2 2.1-2c.7 0 1.3.3 1.6.8l-.7.6c-.2-.3-.5-.5-.9-.5-.6 0-1 .5-1 1 0 .6.4 1 1.1 1 .4 0 .7-.3.9-.5l.7.7zM484.9 786.2h-1v-.3c-.3.3-.7.4-1.1.4-.6 0-1.1-.3-1.4-.6-.3-.3-.5-.8-.5-1.3 0-1.1.8-2 1.9-2 .4 0 .8.1 1.1.4v-.3h1v3.7zm-1.1-2.5c-.2-.3-.6-.5-.9-.5-.6 0-1 .5-1 1 0 .6.4 1 1 1 .4 0 .7-.2.9-.5v-1zM488.9 786.2c-.1 0-.4.1-.6.1-.6 0-1.1-.2-1.3-.6-.2-.3-.3-.6-.3-1.1v-1.3h-1.1v-.9h1.1v-1.1h1v1.1h1.3v.9h-1.3v1.5c0 .2 0 .4.1.5.1.1.3.2.5.2h.4l.2.7zM490.4 780.3c.4 0 .7.3.7.7 0 .4-.3.7-.7.7s-.7-.3-.7-.7c.1-.4.4-.7.7-.7zm.6 5.9h-1v-3.8h1v3.8zM493.9 782.3c1.2 0 2 .9 2 2s-.9 2-2 2-2-.9-2-2 .8-2 2-2zm0 3c.6 0 1-.5 1-1s-.4-1-1-1-1 .5-1 1 .4 1 1 1zM496.8 786.2v-3.8h1v.3c.3-.2.7-.4 1.1-.4.5 0 1 .2 1.3.6.3.3.4.7.4 1.3v1.9h-1v-2c0-.4-.1-.6-.2-.7-.1-.1-.3-.2-.6-.2-.4 0-.8.3-.9.5v2.5h-1.1z"/></g><g fill="#1B3E4C"><path d="M514.1 781.6v1.1h1.7v.9h-1.7v1.5h2.3v.9H513v-5.5h3.3v.9h-2.2zM517.3 786.2v-3.8h1v.3c.3-.3.7-.4 1-.4.5 0 1 .2 1.3.6.3-.3.8-.6 1.4-.6.5 0 1 .2 1.3.6.2.3.4.7.4 1.3v2h-1v-2.1c0-.3-.1-.5-.2-.7-.2-.2-.4-.2-.6-.2-.4 0-.8.3-.9.5v2.4h-1V784c0-.3-.1-.5-.2-.7-.2-.2-.4-.2-.6-.2-.4 0-.7.3-.9.5v2.5h-1zM524.8 782.4h1v.3c.3-.2.7-.4 1.1-.4 1 0 1.9.9 1.9 2 0 .5-.2 1-.5 1.3-.3.4-.9.6-1.5.6-.4 0-.7-.1-1-.3v2.2h-1v-5.7zm1.1 2.4c.2.3.5.5.9.5.6 0 1-.4 1-1s-.4-1-1-1c-.4 0-.7.2-.9.5v1zM530.7 786.2h-1v-5.6h1v5.6zM533.6 782.3c1.2 0 2 .9 2 2s-.9 2-2 2-2-.9-2-2 .8-2 2-2zm0 3c.6 0 1-.5 1-1s-.4-1-1-1-1 .5-1 1 .4 1 1 1zM536.6 788.1l1.1-2.3-1.7-3.4h1.1l1.1 2.3 1-2.3h1.1l-2.6 5.7h-1.1zM541 786.2v-3.8h1v.3c.3-.3.7-.4 1-.4.5 0 1 .2 1.3.6.3-.3.8-.6 1.4-.6.5 0 1 .2 1.3.6.2.3.4.7.4 1.3v2h-1v-2.1c0-.3-.1-.5-.2-.7-.2-.2-.4-.2-.6-.2-.4 0-.8.3-.9.5v2.4h-1V784c0-.3-.1-.5-.2-.7-.2-.2-.4-.2-.6-.2-.4 0-.7.3-.9.5v2.5h-1zM551.7 785.6c-.4.4-1 .7-1.6.7-1.1 0-2-.8-2-2 0-1.1.7-2 1.9-2 1.1 0 1.8.9 1.8 2v.3h-2.7c.1.5.5.9 1 .9.4 0 .8-.2 1-.4l.6.5zm-.9-1.8c0-.3-.3-.7-.8-.7-.4 0-.8.3-.8.7h1.6zM552.7 786.2v-3.8h1v.3c.3-.2.7-.4 1.1-.4.5 0 1 .2 1.3.6.3.3.4.7.4 1.3v1.9h-1v-2c0-.4-.1-.6-.2-.7-.1-.1-.3-.2-.6-.2-.4 0-.8.3-.9.5v2.5h-1.1zM560.4 786.2c-.1 0-.4.1-.6.1-.6 0-1.1-.2-1.3-.6-.2-.3-.3-.6-.3-1.1v-1.3h-1.1v-.9h1.1v-1.1h1v1.1h1.3v.9h-1.3v1.5c0 .2 0 .4.1.5.1.1.3.2.5.2h.4l.2.7z"/></g><path fill="#092930" d="M.5 344.1h657v203.7H.5z"/><g fill="#FBF9F3"><path d="M135.1 427.9h2l2.1 6.4 2.3-6.4h1.4l2.3 6.4 2.1-6.4h2l-3.4 10.3h-1.4l-2.3-6.5-2.3 6.5h-1.4l-3.4-10.3zM156.1 437c-.7.8-1.8 1.3-2.9 1.3-2.1 0-3.7-1.5-3.7-3.7 0-2 1.3-3.7 3.5-3.7 2 0 3.4 1.7 3.4 3.6v.5h-4.9c.1 1 .9 1.7 1.9 1.7.8 0 1.5-.5 1.8-.8l.9 1.1zm-1.8-3.3c-.1-.6-.6-1.2-1.4-1.2-.8 0-1.4.6-1.5 1.2h2.9zM160.5 427.9l-1.8 4.3h-1.4l1.1-4.3h2.1zM165.9 432.7c-.1 0-.4-.1-.7-.1-.8 0-1.5.6-1.7 1v4.5h-1.9V431h1.8v.7c.4-.5 1.2-.9 2.1-.9.3 0 .4 0 .6.1l-.2 1.8zM173.4 437c-.7.8-1.8 1.3-2.9 1.3-2.1 0-3.7-1.5-3.7-3.7 0-2 1.3-3.7 3.5-3.7 2 0 3.4 1.7 3.4 3.6v.5h-4.9c.1 1 .9 1.7 1.9 1.7.8 0 1.5-.5 1.8-.8l.9 1.1zm-1.7-3.3c-.1-.6-.6-1.2-1.4-1.2-.8 0-1.4.6-1.5 1.2h2.9zM184.5 438.1c-.2.1-.8.1-1.2.1-1.1 0-2-.4-2.5-1-.4-.5-.5-1.1-.5-2.1v-2.5h-2V431h2v-2h1.9v2h2.3v1.6h-2.3v2.7c0 .4.1.7.2.9.2.2.5.4 1 .4.3 0 .6 0 .8-.1l.3 1.6zM192.3 437c-.7.8-1.8 1.3-2.9 1.3-2.1 0-3.7-1.5-3.7-3.7 0-2 1.3-3.7 3.5-3.7 2 0 3.4 1.7 3.4 3.6v.5h-4.9c.1 1 .9 1.7 1.9 1.7.8 0 1.5-.5 1.8-.8l.9 1.1zm-1.8-3.3c-.1-.6-.6-1.2-1.4-1.2-.8 0-1.4.6-1.5 1.2h2.9zM200.6 436.7c-.8 1.1-1.9 1.6-3.2 1.6-2.2 0-3.8-1.6-3.8-3.7s1.7-3.7 3.8-3.7c1.2 0 2.3.6 3 1.4l-1.3 1.2c-.4-.5-1-.8-1.6-.8-1.1 0-1.9.9-1.9 1.9 0 1.1.8 1.9 2 1.9.8 0 1.4-.5 1.7-.9l1.3 1.1zM204 438.1h-1.9v-10.4h1.9v3.8c.5-.4 1.2-.7 1.9-.7 1 0 1.9.4 2.5 1.1.5.6.7 1.3.7 2.5v3.6h-1.9v-3.8c0-.7-.2-1.1-.4-1.3-.2-.2-.6-.4-1.1-.4-.8 0-1.5.5-1.7.9v4.7zM211.2 438.1V431h1.8v.6c.5-.4 1.2-.7 2-.7 1 0 1.9.4 2.5 1.1.5.6.7 1.3.7 2.5v3.6h-1.9v-3.8c0-.7-.2-1.1-.4-1.3-.2-.2-.6-.4-1.1-.4-.8 0-1.5.5-1.7.9v4.6h-1.9zM223.5 430.9c2.2 0 3.8 1.7 3.8 3.7s-1.6 3.7-3.8 3.7-3.8-1.6-3.8-3.7 1.6-3.7 3.8-3.7zm0 5.6c1.1 0 1.9-.9 1.9-1.9s-.8-1.9-1.9-1.9-1.9.9-1.9 1.9.8 1.9 1.9 1.9zM230.8 438.1h-1.9v-10.4h1.9v10.4zM236.2 430.9c2.2 0 3.8 1.7 3.8 3.7s-1.6 3.7-3.8 3.7-3.8-1.6-3.8-3.7 1.6-3.7 3.8-3.7zm0 5.6c1.1 0 1.9-.9 1.9-1.9s-.8-1.9-1.9-1.9-1.9.9-1.9 1.9.7 1.9 1.9 1.9zM248.5 437.7c0 1.3-.2 2-.6 2.6-.6.9-1.8 1.4-3.1 1.4-1.4 0-2.7-.6-3.4-1.5l1.2-1.2c.4.4 1 1 2.2 1 .6 0 1.1-.2 1.5-.6.3-.3.4-.8.4-1.7v-.2c-.6.4-1.2.6-1.9.6-1.1 0-2.1-.5-2.7-1.2-.6-.6-.9-1.5-.9-2.5 0-2.1 1.6-3.7 3.5-3.7.8 0 1.5.3 2.1.7v-.4h1.8v6.7zm-1.9-4.2c-.4-.5-1-.9-1.8-.9-1.1 0-1.8.9-1.8 1.9 0 1.1.8 1.9 1.9 1.9.7 0 1.3-.4 1.7-.9v-2zM251.7 427.3c.7 0 1.2.5 1.2 1.2s-.6 1.2-1.2 1.2-1.2-.5-1.2-1.2.5-1.2 1.2-1.2zm.9 10.8h-1.9V431h1.9v7.1zM255 436c.5.4 1.2.7 1.9.7.5 0 .9-.2.9-.6 0-1.1-3.4-.7-3.4-3 0-1.4 1.3-2.2 2.7-2.2.9 0 1.9.4 2.4.7l-.9 1.4c-.4-.3-.8-.5-1.4-.5-.5 0-1 .2-1 .6 0 .9 3.4.6 3.4 3 0 1.4-1.3 2.2-2.8 2.2-1 0-2-.3-2.9-1l1.1-1.3zM266.6 438.1c-.2.1-.8.1-1.2.1-1.1 0-2-.4-2.5-1-.4-.5-.5-1.1-.5-2.1v-2.5h-2V431h2v-2h1.9v2h2.3v1.6h-2.3v2.7c0 .4.1.7.2.9.2.2.5.4 1 .4.3 0 .6 0 .8-.1l.3 1.6zM268.7 436c.5.4 1.2.7 1.9.7.5 0 .9-.2.9-.6 0-1.1-3.4-.7-3.4-3 0-1.4 1.3-2.2 2.7-2.2.9 0 1.9.4 2.4.7l-.9 1.4c-.4-.3-.8-.5-1.4-.5-.5 0-1 .2-1 .6 0 .9 3.4.6 3.4 3 0 1.4-1.3 2.2-2.8 2.2-1 0-2-.3-2.9-1l1.1-1.3zM282.3 438.1H281l-3-7.1h1.9l1.7 4.1 1.8-4.1h1.3l1.8 4.1 1.7-4.1h1.9l-3 7.1h-1.3L284 434l-1.7 4.1zM293.3 438.1h-1.9v-10.4h1.9v3.8c.5-.4 1.2-.7 1.9-.7 1 0 1.9.4 2.5 1.1.5.6.7 1.3.7 2.5v3.6h-1.9v-3.8c0-.7-.2-1.1-.4-1.3-.2-.2-.6-.4-1.1-.4-.8 0-1.5.5-1.7.9v4.7zM303.7 430.9c2.2 0 3.8 1.7 3.8 3.7s-1.6 3.7-3.8 3.7-3.8-1.6-3.8-3.7 1.6-3.7 3.8-3.7zm0 5.6c1.1 0 1.9-.9 1.9-1.9s-.8-1.9-1.9-1.9-1.9.9-1.9 1.9.8 1.9 1.9 1.9zM319.8 431v7.1H318v-.6c-.6.5-1.2.7-1.9.7-1 0-1.9-.5-2.4-1.1-.5-.6-.7-1.3-.7-2.3V431h1.9v3.8c0 .6.1 1 .4 1.2.3.3.7.4 1.1.4.8 0 1.4-.5 1.7-.9V431h1.7zM322 438.1V431h1.8v.6c.5-.4 1.2-.7 2-.7 1 0 1.9.4 2.5 1.1.5.6.7 1.3.7 2.5v3.6h-1.9v-3.8c0-.7-.2-1.1-.4-1.3-.2-.2-.6-.4-1.1-.4-.8 0-1.5.5-1.7.9v4.6H322zM336 438.1v-.6c-.6.5-1.3.7-2 .7-1.1 0-2.1-.5-2.7-1.2-.6-.6-.9-1.5-.9-2.5 0-2.1 1.6-3.7 3.5-3.7.8 0 1.5.2 2 .7v-3.8h1.9v10.4H336zm0-4.6c-.4-.5-1-.9-1.8-.9-1.1 0-1.8.9-1.8 1.9 0 1.1.8 1.9 1.9 1.9.7 0 1.3-.4 1.7-.9v-2zM346.1 437c-.7.8-1.8 1.3-2.9 1.3-2.1 0-3.7-1.5-3.7-3.7 0-2 1.3-3.7 3.5-3.7 2 0 3.4 1.7 3.4 3.6v.5h-4.9c.1 1 .9 1.7 1.9 1.7.8 0 1.5-.5 1.8-.8l.9 1.1zm-1.8-3.3c-.1-.6-.6-1.2-1.4-1.2-.8 0-1.4.6-1.5 1.2h2.9zM352.2 432.7c-.1 0-.4-.1-.7-.1-.8 0-1.5.6-1.7 1v4.5h-1.9V431h1.8v.7c.4-.5 1.2-.9 2.1-.9.3 0 .4 0 .6.1l-.2 1.8zM354.1 436c.5.4 1.2.7 1.9.7.5 0 .9-.2.9-.6 0-1.1-3.4-.7-3.4-3 0-1.4 1.3-2.2 2.7-2.2.9 0 1.9.4 2.4.7l-.9 1.4c-.4-.3-.8-.5-1.4-.5-.5 0-1 .2-1 .6 0 .9 3.4.6 3.4 3 0 1.4-1.3 2.2-2.8 2.2-1 0-2-.3-2.9-1l1.1-1.3zM365.6 438.1c-.2.1-.8.1-1.2.1-1.1 0-2-.4-2.5-1-.4-.5-.5-1.1-.5-2.1v-2.5h-2V431h2v-2h1.9v2h2.3v1.6h-2.3v2.7c0 .4.1.7.2.9.2.2.5.4 1 .4.3 0 .6 0 .8-.1l.3 1.6zM374.1 438.1h-1.8v-.6c-.6.5-1.3.7-2 .7-1.1 0-2.1-.5-2.7-1.2-.6-.6-.9-1.5-.9-2.5 0-2.1 1.6-3.7 3.5-3.7.8 0 1.5.3 2.1.7v-.5h1.8v7.1zm-1.9-4.6c-.4-.5-1-.9-1.8-.9-1.1 0-1.8.9-1.8 1.9 0 1.1.8 1.9 1.9 1.9.7 0 1.3-.4 1.7-.9v-2zM376.3 438.1V431h1.8v.6c.5-.4 1.2-.7 2-.7 1 0 1.9.4 2.5 1.1.5.6.7 1.3.7 2.5v3.6h-1.9v-3.8c0-.7-.2-1.1-.4-1.3-.2-.2-.6-.4-1.1-.4-.8 0-1.5.5-1.7.9v4.6h-1.9zM390.4 438.1v-.6c-.6.5-1.3.7-2 .7-1.1 0-2.1-.5-2.7-1.2-.6-.6-.9-1.5-.9-2.5 0-2.1 1.6-3.7 3.5-3.7.8 0 1.5.2 2 .7v-3.8h1.9v10.4h-1.8zm-.1-4.6c-.4-.5-1-.9-1.8-.9-1.1 0-1.8.9-1.8 1.9 0 1.1.8 1.9 1.9 1.9.7 0 1.3-.4 1.7-.9v-2zM400.3 438.1h-1.9v-10.4h1.9v10.4zM409.3 438.1h-1.8v-.6c-.6.5-1.3.7-2 .7-1.1 0-2.1-.5-2.7-1.2-.6-.6-.9-1.5-.9-2.5 0-2.1 1.6-3.7 3.5-3.7.8 0 1.5.3 2.1.7v-.5h1.8v7.1zm-1.9-4.6c-.4-.5-1-.9-1.8-.9-1.1 0-1.8.9-1.8 1.9 0 1.1.8 1.9 1.9 1.9.7 0 1.3-.4 1.7-.9v-2zM414.8 438.1h-1.3l-3-7.1h1.9l1.7 4.1 1.8-4.1h1.3l1.8 4.1 1.7-4.1h1.9l-3 7.1h-1.3l-1.8-4.1-1.7 4.1zM434.4 438.1h-1.8v-.6c-.6.5-1.3.7-2 .7-1.1 0-2.1-.5-2.7-1.2-.6-.6-.9-1.5-.9-2.5 0-2.1 1.6-3.7 3.5-3.7.8 0 1.5.3 2.1.7v-.5h1.8v7.1zm-1.9-4.6c-.4-.5-1-.9-1.8-.9-1.1 0-1.8.9-1.8 1.9 0 1.1.8 1.9 1.9 1.9.7 0 1.3-.4 1.7-.9v-2zM436.6 438.1V431h1.8v.6c.5-.4 1.2-.7 2-.7 1 0 1.9.4 2.5 1.1.5.6.7 1.3.7 2.5v3.6h-1.9v-3.8c0-.7-.2-1.1-.4-1.3-.2-.2-.6-.4-1.1-.4-.8 0-1.5.5-1.7.9v4.6h-1.9zM450.7 438.1v-.6c-.6.5-1.3.7-2 .7-1.1 0-2.1-.5-2.7-1.2-.6-.6-.9-1.5-.9-2.5 0-2.1 1.6-3.7 3.5-3.7.8 0 1.5.2 2 .7v-3.8h1.9v10.4h-1.8zm-.1-4.6c-.4-.5-1-.9-1.8-.9-1.1 0-1.8.9-1.8 1.9 0 1.1.8 1.9 1.9 1.9.7 0 1.3-.4 1.7-.9v-2zM458.7 431h1.8v.6c.6-.5 1.3-.7 2.1-.7 1.9 0 3.5 1.6 3.5 3.7 0 1-.3 1.8-.9 2.5-.6.7-1.6 1.2-2.7 1.2-.7 0-1.3-.2-1.9-.6v4h-1.9V431zm1.9 4.6c.4.5 1 .9 1.7.9 1.1 0 1.9-.8 1.9-1.9 0-1-.7-1.9-1.8-1.9-.7 0-1.4.4-1.8.9v2zM471.1 430.9c2.2 0 3.8 1.7 3.8 3.7s-1.6 3.7-3.8 3.7-3.8-1.6-3.8-3.7 1.6-3.7 3.8-3.7zm0 5.6c1.1 0 1.9-.9 1.9-1.9s-.8-1.9-1.9-1.9-1.9.9-1.9 1.9.7 1.9 1.9 1.9zM478.4 438.1h-1.9v-10.4h1.9v10.4zM481.5 427.3c.7 0 1.2.5 1.2 1.2s-.6 1.2-1.2 1.2-1.2-.5-1.2-1.2.5-1.2 1.2-1.2zm1 10.8h-1.9V431h1.9v7.1zM491.1 436.7c-.8 1.1-1.9 1.6-3.2 1.6-2.2 0-3.8-1.6-3.8-3.7s1.7-3.7 3.8-3.7c1.2 0 2.3.6 3 1.4l-1.3 1.2c-.4-.5-1-.8-1.6-.8-1.1 0-1.9.9-1.9 1.9 0 1.1.8 1.9 2 1.9.8 0 1.4-.5 1.7-.9l1.3 1.1zM492.8 441.6l2-4.2-3.2-6.4h2.1l2.1 4.3 1.9-4.3h2l-4.9 10.6h-2zM501.9 435.7c.7 0 1.3.6 1.3 1.3s-.6 1.3-1.3 1.3-1.3-.6-1.3-1.3.5-1.3 1.3-1.3zM156.6 449.3h2l2.1 6.4 2.3-6.4h1.4l2.3 6.4 2.1-6.4h2l-3.4 10.3H166l-2.3-6.5-2.3 6.5H160l-3.4-10.3zM177.5 458.4c-.7.8-1.8 1.3-2.9 1.3-2.1 0-3.7-1.5-3.7-3.7 0-2 1.3-3.7 3.5-3.7 2 0 3.4 1.7 3.4 3.6v.5h-4.9c.1 1 .9 1.7 1.9 1.7.8 0 1.5-.5 1.8-.8l.9 1.1zm-1.7-3.4c-.1-.6-.6-1.2-1.4-1.2-.8 0-1.4.6-1.5 1.2h2.9zM185.2 459.5h-1.9v-10.4h1.9v3.8c.5-.4 1.2-.7 1.9-.7 1 0 1.9.4 2.5 1.1.5.6.7 1.3.7 2.5v3.6h-1.9v-3.8c0-.7-.2-1.1-.4-1.3-.2-.2-.6-.4-1.1-.4-.8 0-1.5.5-1.7.9v4.7zM198.4 458.4c-.7.8-1.8 1.3-2.9 1.3-2.1 0-3.7-1.5-3.7-3.7 0-2 1.3-3.7 3.5-3.7 2 0 3.4 1.7 3.4 3.6v.5h-4.9c.1 1 .9 1.7 1.9 1.7.8 0 1.5-.5 1.8-.8l.9 1.1zm-1.7-3.4c-.1-.6-.6-1.2-1.4-1.2-.8 0-1.4.6-1.5 1.2h2.9zM202.1 459.5h-1.9v-10.4h1.9v10.4zM204.3 452.4h1.8v.6c.6-.5 1.3-.7 2.1-.7 1.9 0 3.5 1.6 3.5 3.7 0 1-.3 1.8-.9 2.5-.6.7-1.6 1.2-2.7 1.2-.7 0-1.3-.2-1.9-.6v4h-1.9v-10.7zm1.9 4.6c.4.5 1 .9 1.7.9 1.1 0 1.9-.8 1.9-1.9 0-1-.7-1.9-1.8-1.9-.7 0-1.4.4-1.8.9v2zM220.5 452.3c2.2 0 3.8 1.7 3.8 3.7s-1.6 3.7-3.8 3.7-3.8-1.6-3.8-3.7 1.6-3.7 3.8-3.7zm0 5.6c1.1 0 1.9-.9 1.9-1.9s-.8-1.9-1.9-1.9-1.9.9-1.9 1.9.8 1.9 1.9 1.9zM232.6 452.4v7.1h-1.8v-.6c-.6.5-1.2.7-1.9.7-1 0-1.9-.5-2.4-1.1-.5-.6-.7-1.3-.7-2.3v-3.8h1.9v3.8c0 .6.1 1 .4 1.2.3.3.7.4 1.1.4.8 0 1.4-.5 1.7-.9v-4.6h1.7zM239.1 454.1c-.1 0-.4-.1-.7-.1-.8 0-1.5.6-1.7 1v4.5h-1.9v-7.1h1.8v.7c.4-.5 1.2-.9 2.1-.9.3 0 .4 0 .6.1l-.2 1.8zM251.2 458.1c-.8 1.1-1.9 1.6-3.2 1.6-2.2 0-3.8-1.6-3.8-3.7s1.7-3.7 3.8-3.7c1.2 0 2.3.6 3 1.4l-1.3 1.2c-.4-.5-1-.8-1.6-.8-1.1 0-1.9.9-1.9 1.9 0 1.1.8 1.9 2 1.9.8 0 1.4-.5 1.7-.9l1.3 1.1zM254.6 459.5h-1.9v-10.4h1.9v10.4zM257.7 448.7c.7 0 1.2.5 1.2 1.2s-.6 1.2-1.2 1.2-1.2-.5-1.2-1.2.6-1.2 1.2-1.2zm1 10.8h-1.9v-7.1h1.9v7.1zM266.9 458.4c-.7.8-1.8 1.3-2.9 1.3-2.1 0-3.7-1.5-3.7-3.7 0-2 1.3-3.7 3.5-3.7 2 0 3.4 1.7 3.4 3.6v.5h-4.9c.1 1 .9 1.7 1.9 1.7.8 0 1.5-.5 1.8-.8l.9 1.1zm-1.7-3.4c-.1-.6-.6-1.2-1.4-1.2-.8 0-1.4.6-1.5 1.2h2.9zM268.7 459.5v-7.1h1.8v.6c.5-.4 1.2-.7 2-.7 1 0 1.9.4 2.5 1.1.5.6.7 1.3.7 2.5v3.6h-1.9v-3.8c0-.7-.2-1.1-.4-1.3-.2-.2-.6-.4-1.1-.4-.8 0-1.5.5-1.7.9v4.6h-1.9zM282.9 459.5c-.2.1-.8.1-1.2.1-1.1 0-2-.4-2.5-1-.4-.5-.5-1.1-.5-2.1V454h-2v-1.6h2v-2h1.9v2h2.3v1.6h-2.3v2.7c0 .4.1.7.2.9.2.2.5.4 1 .4.3 0 .6 0 .8-.1l.3 1.6zM285 457.3c.5.4 1.2.7 1.9.7.5 0 .9-.2.9-.6 0-1.1-3.4-.7-3.4-3 0-1.4 1.3-2.2 2.7-2.2.9 0 1.9.4 2.4.7l-.9 1.4c-.4-.3-.8-.5-1.4-.5-.5 0-1 .2-1 .6 0 .9 3.4.6 3.4 3 0 1.4-1.3 2.2-2.8 2.2-1 0-2-.3-2.9-1l1.1-1.3zM295.7 457.3c.5.4 1.2.7 1.9.7.5 0 .9-.2.9-.6 0-1.1-3.4-.7-3.4-3 0-1.4 1.3-2.2 2.7-2.2.9 0 1.9.4 2.4.7l-.9 1.4c-.4-.3-.8-.5-1.4-.5-.5 0-1 .2-1 .6 0 .9 3.4.6 3.4 3 0 1.4-1.3 2.2-2.8 2.2-1 0-2-.3-2.9-1l1.1-1.3zM304.1 459.5h-1.9v-10.4h1.9v3.8c.5-.4 1.2-.7 1.9-.7 1 0 1.9.4 2.5 1.1.5.6.7 1.3.7 2.5v3.6h-1.9v-3.8c0-.7-.2-1.1-.4-1.3-.2-.2-.6-.4-1.1-.4-.8 0-1.5.5-1.7.9v4.7zM318.1 459.5h-1.8v-.6c-.6.5-1.3.7-2 .7-1.1 0-2.1-.5-2.7-1.2-.6-.6-.9-1.5-.9-2.5 0-2.1 1.6-3.7 3.5-3.7.8 0 1.5.3 2.1.7v-.6h1.8v7.2zm-1.9-4.6c-.4-.5-1-.9-1.8-.9-1.1 0-1.8.9-1.8 1.9 0 1.1.8 1.9 1.9 1.9.7 0 1.3-.4 1.7-.9v-2zM320.3 452.4h1.8v.6c.6-.5 1.3-.7 2.1-.7 1.9 0 3.5 1.6 3.5 3.7 0 1-.3 1.8-.9 2.5-.6.7-1.6 1.2-2.7 1.2-.7 0-1.3-.2-1.9-.6v4h-1.9v-10.7zm1.9 4.6c.4.5 1 .9 1.7.9 1.1 0 1.9-.8 1.9-1.9 0-1-.7-1.9-1.8-1.9-.7 0-1.4.4-1.8.9v2zM335.5 458.4c-.7.8-1.8 1.3-2.9 1.3-2.1 0-3.7-1.5-3.7-3.7 0-2 1.3-3.7 3.5-3.7 2 0 3.4 1.7 3.4 3.6v.5h-4.9c.1 1 .9 1.7 1.9 1.7.8 0 1.5-.5 1.8-.8l.9 1.1zm-1.8-3.4c-.1-.6-.6-1.2-1.4-1.2-.8 0-1.4.6-1.5 1.2h2.9zM344.3 459.5H343l-3-7.1h1.9l1.7 4.1 1.8-4.1h1.3l1.8 4.1 1.7-4.1h1.9l-3 7.1h-1.3l-1.8-4.1-1.7 4.1zM355.4 459.5h-1.9v-10.4h1.9v3.8c.5-.4 1.2-.7 1.9-.7 1 0 1.9.4 2.5 1.1.5.6.7 1.3.7 2.5v3.6h-1.9v-3.8c0-.7-.2-1.1-.4-1.3-.2-.2-.6-.4-1.1-.4-.8 0-1.5.5-1.7.9v4.7zM369.3 459.5h-1.8v-.6c-.6.5-1.3.7-2 .7-1.1 0-2.1-.5-2.7-1.2-.6-.6-.9-1.5-.9-2.5 0-2.1 1.6-3.7 3.5-3.7.8 0 1.5.3 2.1.7v-.6h1.8v7.2zm-1.9-4.6c-.4-.5-1-.9-1.8-.9-1.1 0-1.8.9-1.8 1.9 0 1.1.8 1.9 1.9 1.9.7 0 1.3-.4 1.7-.9v-2zM376.9 459.5c-.2.1-.8.1-1.2.1-1.1 0-2-.4-2.5-1-.4-.5-.5-1.1-.5-2.1V454h-2v-1.6h2v-2h1.9v2h2.3v1.6h-2.3v2.7c0 .4.1.7.2.9.2.2.5.4 1 .4.3 0 .6 0 .8-.1l.3 1.6zM384.7 459.5h-1.9v-10.4h1.9v3.8c.5-.4 1.2-.7 1.9-.7 1 0 1.9.4 2.5 1.1.5.6.7 1.3.7 2.5v3.6h-1.9v-3.8c0-.7-.2-1.1-.4-1.3-.2-.2-.6-.4-1.1-.4-.8 0-1.5.5-1.7.9v4.7zM398.7 459.5h-1.8v-.6c-.6.5-1.3.7-2 .7-1.1 0-2.1-.5-2.7-1.2-.6-.6-.9-1.5-.9-2.5 0-2.1 1.6-3.7 3.5-3.7.8 0 1.5.3 2.1.7v-.6h1.8v7.2zm-2-4.6c-.4-.5-1-.9-1.8-.9-1.1 0-1.8.9-1.8 1.9 0 1.1.8 1.9 1.9 1.9.7 0 1.3-.4 1.7-.9v-2zM400.9 452.4h1.8v.6c.6-.5 1.3-.7 2.1-.7 1.9 0 3.5 1.6 3.5 3.7 0 1-.3 1.8-.9 2.5-.6.7-1.6 1.2-2.7 1.2-.7 0-1.3-.2-1.9-.6v4h-1.9v-10.7zm1.9 4.6c.4.5 1 .9 1.7.9 1.1 0 1.9-.8 1.9-1.9 0-1-.7-1.9-1.8-1.9-.7 0-1.4.4-1.8.9v2zM409.9 452.4h1.8v.6c.6-.5 1.3-.7 2.1-.7 1.9 0 3.5 1.6 3.5 3.7 0 1-.3 1.8-.9 2.5-.6.7-1.6 1.2-2.7 1.2-.7 0-1.3-.2-1.9-.6v4h-1.9v-10.7zm1.9 4.6c.4.5 1 .9 1.7.9 1.1 0 1.9-.8 1.9-1.9 0-1-.7-1.9-1.8-1.9-.7 0-1.4.4-1.8.9v2zM425.1 458.4c-.7.8-1.8 1.3-2.9 1.3-2.1 0-3.7-1.5-3.7-3.7 0-2 1.3-3.7 3.5-3.7 2 0 3.4 1.7 3.4 3.6v.5h-4.9c.1 1 .9 1.7 1.9 1.7.8 0 1.5-.5 1.8-.8l.9 1.1zm-1.8-3.4c-.1-.6-.6-1.2-1.4-1.2-.8 0-1.4.6-1.5 1.2h2.9zM426.9 459.5v-7.1h1.8v.6c.5-.4 1.2-.7 2-.7 1 0 1.9.4 2.5 1.1.5.6.7 1.3.7 2.5v3.6H432v-3.8c0-.7-.2-1.1-.4-1.3-.2-.2-.6-.4-1.1-.4-.8 0-1.5.5-1.7.9v4.6h-1.9zM436.2 457.3c.5.4 1.2.7 1.9.7.5 0 .9-.2.9-.6 0-1.1-3.4-.7-3.4-3 0-1.4 1.3-2.2 2.7-2.2.9 0 1.9.4 2.4.7l-.9 1.4c-.4-.3-.8-.5-1.4-.5-.5 0-1 .2-1 .6 0 .9 3.4.6 3.4 3 0 1.4-1.3 2.2-2.8 2.2-1 0-2-.3-2.9-1l1.1-1.3zM446.6 459.5v-7.1h1.8v.6c.5-.4 1.2-.7 2-.7 1 0 1.9.4 2.5 1.1.5.6.7 1.3.7 2.5v3.6h-1.9v-3.8c0-.7-.2-1.1-.4-1.3-.2-.2-.6-.4-1.1-.4-.8 0-1.5.5-1.7.9v4.6h-1.9zM461.8 458.4c-.7.8-1.8 1.3-2.9 1.3-2.1 0-3.7-1.5-3.7-3.7 0-2 1.3-3.7 3.5-3.7 2 0 3.4 1.7 3.4 3.6v.5H457c.1 1 .9 1.7 1.9 1.7.8 0 1.5-.5 1.8-.8l1.1 1.1zM460 455c-.1-.6-.6-1.2-1.4-1.2-.8 0-1.4.6-1.5 1.2h2.9zM466.2 454.4l1.4-2h2.2l-2.4 3.3 2.7 3.8h-2.3l-1.7-2.4-1.7 2.4h-2.3l2.7-3.8-2.4-3.3h2.2l1.6 2zM476.7 459.5c-.2.1-.8.1-1.2.1-1.1 0-2-.4-2.5-1-.4-.5-.5-1.1-.5-2.1V454h-2v-1.6h2v-2h1.9v2h2.3v1.6h-2.3v2.7c0 .4.1.7.2.9.2.2.5.4 1 .4.3 0 .6 0 .8-.1l.3 1.6zM480.4 457.1c.7 0 1.3.6 1.3 1.3s-.6 1.3-1.3 1.3-1.3-.6-1.3-1.3.6-1.3 1.3-1.3z"/></g><path fill="none" stroke="#5BBCC9" stroke-width="2.712" stroke-miterlimit="10" d="M179.2 443.9h94.9M446.3 465.2h36.1"/><g><g fill="#90A4AE"><path d="M277.9 193.4v3.7h-1.2v-3.7L274 189h1.3l2.1 3.3 2.1-3.3h1.3l-2.9 4.4zM283.1 191.5c1.6 0 2.8 1.2 2.8 2.8 0 1.6-1.2 2.8-2.8 2.8s-2.8-1.2-2.8-2.8c0-1.6 1.2-2.8 2.8-2.8zm0 4.7c1 0 1.7-.8 1.7-1.8s-.7-1.8-1.7-1.8-1.7.8-1.7 1.8.7 1.8 1.7 1.8zM287.6 196.3c-.3-.4-.5-1-.5-1.9v-2.8h1.1v3c0 .6.1.9.3 1.1.2.3.6.5 1.1.5.7 0 1.2-.4 1.5-.8v-3.7h1.1v5.5h-1.1v-.5c-.2.2-.8.6-1.6.6-.7-.1-1.4-.4-1.9-1zM302.4 197.1h-1.5l-2.7-2.7v2.7h-1.1v-8.2h1.1v4.9l2.3-2.1h1.6l-2.7 2.5 3 2.9zM304.4 192.2c.3-.3.8-.6 1.6-.6s1.5.4 2 1c.3.4.5 1 .5 1.9v2.7h-1.1v-2.7c0-.7-.1-1-.3-1.3-.3-.3-.7-.5-1.1-.5-.7 0-1.2.4-1.6.8v3.7h-1.1v-5.5h1.1v.5zM312.6 191.5c1.6 0 2.8 1.2 2.8 2.8 0 1.6-1.2 2.8-2.8 2.8s-2.8-1.2-2.8-2.8c0-1.6 1.2-2.8 2.8-2.8zm0 4.7c1 0 1.7-.8 1.7-1.8s-.7-1.8-1.7-1.8-1.7.8-1.7 1.8.7 1.8 1.7 1.8zM320.7 191.6l1.5 3.7 1.5-3.7h1.1l-2.2 5.5h-.8l-1.5-3.8-1.5 3.8h-.8l-2.2-5.5h1.1l1.5 3.7 1.5-3.7h.8zM332.2 197.1c-.2.1-.5.1-.9.1-.7 0-1.2-.2-1.5-.6-.3-.4-.4-.9-.4-1.5v-2.5H328v-1h1.4v-1.5h1.1v1.5h1.7v1h-1.7v2.6c0 .3 0 .5.2.7.2.2.5.3.8.3.2 0 .4 0 .6-.1l.1 1zM334.5 192.1c.3-.3.8-.6 1.6-.6s1.5.4 2 1c.3.4.5 1 .5 1.9v2.7h-1.1v-2.7c0-.7-.1-1-.3-1.3-.3-.3-.7-.5-1.1-.5-.7 0-1.2.4-1.6.8v3.7h-1.1v-8.2h1.1v3.2zM340.9 194.6c.1.9.8 1.6 1.8 1.6.8 0 1.3-.4 1.6-.7l.7.7c-.4.5-1.2 1-2.3 1-1.6 0-2.8-1.2-2.8-2.8 0-1.6 1.1-2.8 2.7-2.8 1.5 0 2.6 1.2 2.6 2.8v.2h-4.3zm.1-.9h3c-.2-.7-.8-1.2-1.4-1.2-.8 0-1.5.5-1.6 1.2zM350 189c.4 0 .7.3.7.7 0 .4-.3.7-.7.7s-.7-.3-.7-.7c0-.4.3-.7.7-.7zm-.5 2.6h1.1v5.5h-1.1v-5.5zM352.4 195.6c.5.4 1.1.6 1.6.6s1-.3 1-.7c0-.6-.9-.7-1.7-.9-.7-.2-1.3-.6-1.3-1.4 0-1.2 1-1.7 2-1.7.8 0 1.4.3 1.8.6l-.6.8c-.3-.3-.7-.4-1.2-.4s-1 .3-1 .7c0 .4.4.5 1 .6.9.2 2 .6 2 1.7 0 1-1 1.7-2 1.7-.9 0-1.6-.3-2.2-.8l.6-.8zM357.5 195.6c.5.4 1.1.6 1.6.6s1-.3 1-.7c0-.6-.9-.7-1.7-.9-.7-.2-1.3-.6-1.3-1.4 0-1.2 1-1.7 2-1.7.8 0 1.4.3 1.8.6l-.6.8c-.3-.3-.7-.4-1.2-.4s-1 .3-1 .7c0 .4.4.5 1 .6.9.2 2 .6 2 1.7 0 1-1 1.7-2 1.7-.9 0-1.6-.3-2.2-.8l.6-.8zM362.8 196.3c-.3-.4-.5-1-.5-1.9v-2.8h1.1v3c0 .6.1.9.3 1.1.2.3.6.5 1.1.5.7 0 1.2-.4 1.5-.8v-3.7h1.1v5.5h-1.1v-.5c-.2.2-.8.6-1.6.6-.7-.1-1.4-.4-1.9-1zM369.8 194.6c.1.9.8 1.6 1.8 1.6.8 0 1.3-.4 1.6-.7l.7.7c-.4.5-1.2 1-2.3 1-1.6 0-2.8-1.2-2.8-2.8 0-1.6 1.1-2.8 2.7-2.8 1.5 0 2.6 1.2 2.6 2.8v.2h-4.3zm.1-.9h3c-.2-.7-.8-1.2-1.4-1.2-.8 0-1.4.5-1.6 1.2zM375.4 195.6c.5.4 1.1.6 1.6.6s1-.3 1-.7c0-.6-.9-.7-1.7-.9-.7-.2-1.3-.6-1.3-1.4 0-1.2 1-1.7 2-1.7.8 0 1.4.3 1.8.6l-.6.8c-.3-.3-.7-.4-1.2-.4s-1 .3-1 .7c0 .4.4.5 1 .6.9.2 2 .6 2 1.7 0 1-1 1.7-2 1.7-.9 0-1.6-.3-2.2-.8l.6-.8zM381.3 195.6c.5 0 .8.4.8.8 0 .5-.4.8-.8.8s-.8-.4-.8-.8c0-.5.3-.8.8-.8zM257.1 210.6v-8.1h2.8c.8 0 1.3.2 1.7.6.4.4.7.9.7 1.5s-.3 1.1-.6 1.4c.8.4 1.3 1.2 1.3 2.1 0 .8-.3 1.4-.9 1.9-.4.3-1 .5-1.8.5h-3.2zm2.5-4.9c.6 0 .9-.1 1.1-.3.2-.2.3-.4.3-.7s-.1-.5-.3-.7c-.2-.2-.5-.3-1.1-.3h-1.4v2.1h1.4zm.4 3.8c.7 0 1.1-.2 1.3-.4.2-.2.4-.6.4-1s-.2-.7-.4-.9c-.3-.3-.6-.4-1.3-.4h-1.8v2.7h1.8zM264.5 209.8c-.3-.4-.5-1-.5-1.9v-2.8h1.1v3c0 .6.1.9.3 1.1.2.3.6.5 1.1.5.7 0 1.2-.4 1.5-.8v-3.7h1.1v5.5H268v-.5c-.2.2-.8.6-1.6.6-.7-.1-1.4-.4-1.9-1zM274.4 210.6c-.2.1-.5.1-.9.1-.7 0-1.2-.2-1.5-.6-.3-.4-.4-.9-.4-1.5v-2.5h-1.4v-1h1.4v-1.5h1.1v1.5h1.7v1h-1.7v2.6c0 .3 0 .5.2.7.2.2.5.3.8.3.2 0 .4 0 .6-.1l.1 1zM282.1 210.6c-.2.1-.5.1-.9.1-.7 0-1.2-.2-1.5-.6-.3-.4-.4-.9-.4-1.5v-2.5h-1.4v-1h1.4v-1.5h1.1v1.5h1.7v1h-1.7v2.6c0 .3 0 .5.2.7.2.2.5.3.8.3.2 0 .4 0 .6-.1l.1 1zM283.9 208.1c.1.9.8 1.6 1.8 1.6.8 0 1.3-.4 1.6-.7l.7.7c-.4.5-1.2 1-2.3 1-1.6 0-2.8-1.2-2.8-2.8 0-1.6 1.1-2.8 2.7-2.8 1.5 0 2.6 1.2 2.6 2.8v.2h-4.3zm.1-.9h3c-.2-.7-.8-1.2-1.4-1.2-.7 0-1.4.5-1.6 1.2zM294.4 209.5c-.5.8-1.4 1.3-2.4 1.3-1.7 0-2.9-1.2-2.9-2.8 0-1.6 1.2-2.8 2.8-2.8 1 0 1.8.5 2.3 1.2l-.8.7c-.3-.4-.8-.8-1.5-.8-1 0-1.7.8-1.7 1.8 0 1.1.8 1.8 1.8 1.8.7 0 1.2-.4 1.6-.8l.8.4zM296.6 205.6c.3-.3.8-.6 1.6-.6s1.5.4 2 1c.3.4.5 1 .5 1.9v2.7h-1.1v-2.7c0-.7-.1-1-.3-1.3-.3-.3-.7-.5-1.1-.5-.7 0-1.2.4-1.6.8v3.7h-1.1v-8.2h1.1v3.2zM303.4 205.7c.3-.3.8-.6 1.6-.6s1.5.4 2 1c.3.4.5 1 .5 1.9v2.7h-1.1V208c0-.7-.1-1-.3-1.3-.3-.3-.7-.5-1.1-.5-.7 0-1.2.4-1.6.8v3.7h-1.1v-5.5h1.1v.5zM311.6 205c1.6 0 2.8 1.2 2.8 2.8 0 1.6-1.2 2.8-2.8 2.8s-2.8-1.2-2.8-2.8c0-1.5 1.2-2.8 2.8-2.8zm0 4.7c1 0 1.7-.8 1.7-1.8s-.7-1.8-1.7-1.8-1.7.8-1.7 1.8.7 1.8 1.7 1.8zM315.8 202.4h1.1v8.2h-1.1v-8.2zM321 205c1.6 0 2.8 1.2 2.8 2.8 0 1.6-1.2 2.8-2.8 2.8s-2.8-1.2-2.8-2.8c0-1.5 1.2-2.8 2.8-2.8zm0 4.7c1 0 1.7-.8 1.7-1.8s-.7-1.8-1.7-1.8-1.7.8-1.7 1.8.7 1.8 1.7 1.8zM327.5 210.7c-.5 0-1-.1-1.4-.4-.8-.5-1.4-1.4-1.4-2.5s.6-2 1.4-2.5c.4-.2.8-.3 1.3-.3.6 0 1.2.2 1.7.6v-.5h1.1v5.2c0 .8-.1 1.4-.3 1.8-.4.8-1.3 1.3-2.4 1.3-1.4 0-2.3-.7-2.7-1.3l.8-.8c.4.5.9 1 1.8 1 .6 0 1.1-.2 1.3-.6.2-.3.3-.7.3-1.4v-.3c-.2.5-.8.7-1.5.7zm1.7-3.8c-.3-.4-.9-.8-1.6-.8-1.1 0-1.8.8-1.8 1.8s.8 1.8 1.8 1.8c.6 0 1.1-.3 1.5-.8v-2zM332.1 213.4l1.5-3.4-2.3-4.9h1.2l1.7 3.6 1.6-3.6h1.2l-3.6 8.2h-1.3zM341.5 202.5c.4 0 .7.3.7.7 0 .4-.3.7-.7.7s-.7-.3-.7-.7c0-.4.3-.7.7-.7zm-.6 2.7h1.1v5.5h-1.1v-5.5zM343.9 209.2c.5.4 1.1.6 1.6.6s1-.3 1-.7c0-.6-.9-.7-1.7-.9-.7-.2-1.3-.6-1.3-1.4 0-1.2 1-1.7 2-1.7.8 0 1.4.3 1.8.6l-.6.8c-.3-.3-.7-.4-1.2-.4s-1 .3-1 .7c0 .4.4.5 1 .6.9.2 2 .6 2 1.7 0 1-1 1.7-2 1.7-.9 0-1.6-.3-2.2-.8l.6-.8zM356.9 209.5c-.5.8-1.4 1.3-2.4 1.3-1.7 0-2.9-1.2-2.9-2.8 0-1.6 1.2-2.8 2.8-2.8 1 0 1.8.5 2.3 1.2l-.8.7c-.3-.4-.8-.8-1.5-.8-1 0-1.7.8-1.7 1.8 0 1.1.8 1.8 1.8 1.8.7 0 1.2-.4 1.6-.8l.8.4zM359 205.6c.3-.3.8-.6 1.6-.6s1.5.4 2 1c.3.4.5 1 .5 1.9v2.7H362v-2.7c0-.7-.1-1-.3-1.3-.3-.3-.7-.5-1.1-.5-.7 0-1.2.4-1.6.8v3.7h-1.1v-8.2h1.1v3.2zM368.8 210.1c-.4.4-1 .6-1.7.6-.5 0-1-.1-1.4-.4-.8-.5-1.4-1.4-1.4-2.5s.6-2 1.4-2.5c.4-.2.8-.3 1.3-.3.6 0 1.2.2 1.7.6v-.5h1.1v5.5h-1.1v-.5zm0-3.2c-.3-.4-.9-.8-1.6-.8-1.1 0-1.8.8-1.8 1.8s.8 1.8 1.8 1.8c.6 0 1.1-.3 1.5-.8v-2zM372.6 205.7c.3-.3.8-.6 1.6-.6s1.5.4 2 1c.3.4.5 1 .5 1.9v2.7h-1.1V208c0-.7-.1-1-.3-1.3-.3-.3-.7-.5-1.1-.5-.7 0-1.2.4-1.6.8v3.7h-1.1v-5.5h1.1v.5zM380.8 210.7c-.5 0-1-.1-1.4-.4-.8-.5-1.4-1.4-1.4-2.5s.6-2 1.4-2.5c.4-.2.8-.3 1.3-.3.6 0 1.2.2 1.7.6v-.5h1.1v5.2c0 .8-.1 1.4-.3 1.8-.4.8-1.3 1.3-2.4 1.3-1.4 0-2.3-.7-2.7-1.3l.8-.8c.4.5.9 1 1.8 1 .6 0 1.1-.2 1.3-.6.2-.3.3-.7.3-1.4v-.3c-.3.5-.9.7-1.5.7zm1.6-3.8c-.3-.4-.9-.8-1.6-.8-1.1 0-1.8.8-1.8 1.8s.8 1.8 1.8 1.8c.6 0 1.1-.3 1.5-.8v-2zM385.8 202.5c.4 0 .7.3.7.7 0 .4-.3.7-.7.7s-.7-.3-.7-.7c0-.4.3-.7.7-.7zm-.6 2.7h1.1v5.5h-1.1v-5.5zM389.1 205.7c.3-.3.8-.6 1.6-.6s1.5.4 2 1c.3.4.5 1 .5 1.9v2.7h-1.1V208c0-.7-.1-1-.3-1.3-.3-.3-.7-.5-1.1-.5-.7 0-1.2.4-1.6.8v3.7H388v-5.5h1.1v.5zM397.2 210.7c-.5 0-1-.1-1.4-.4-.8-.5-1.4-1.4-1.4-2.5s.6-2 1.4-2.5c.4-.2.8-.3 1.3-.3.6 0 1.2.2 1.7.6v-.5h1.1v5.2c0 .8-.1 1.4-.3 1.8-.4.8-1.3 1.3-2.4 1.3-1.4 0-2.3-.7-2.7-1.3l.8-.8c.4.5.9 1 1.8 1 .6 0 1.1-.2 1.3-.6.2-.3.3-.7.3-1.4v-.3c-.2.5-.8.7-1.5.7zm1.7-3.8c-.3-.4-.9-.8-1.6-.8-1.1 0-1.8.8-1.8 1.8s.8 1.8 1.8 1.8c.6 0 1.1-.3 1.5-.8v-2zM291.4 218.7l1.5 3.7 1.5-3.7h1.1l-2.2 5.5h-.8l-1.5-3.8-1.5 3.8h-.8l-2.2-5.5h1.1l1.5 3.7 1.5-3.7h.8zM297.6 219.2c.3-.3.8-.6 1.6-.6s1.5.4 2 1c.3.4.5 1 .5 1.9v2.7h-1.1v-2.7c0-.7-.1-1-.3-1.3-.3-.3-.7-.5-1.1-.5-.7 0-1.2.4-1.6.8v3.7h-1.1V216h1.1v3.2zM307.4 223.6c-.4.4-1 .6-1.7.6-.5 0-1-.1-1.4-.4-.8-.5-1.4-1.4-1.4-2.5s.6-2 1.4-2.5c.4-.2.8-.3 1.3-.3.6 0 1.2.2 1.7.6v-.5h1.1v5.5h-1.1v-.5zm0-3.2c-.3-.4-.9-.8-1.6-.8-1.1 0-1.8.8-1.8 1.8s.8 1.8 1.8 1.8c.6 0 1.1-.3 1.5-.8v-2zM313.7 224.1c-.2.1-.5.1-.9.1-.7 0-1.2-.2-1.5-.6-.3-.4-.4-.9-.4-1.5v-2.5h-1.4v-1h1.4v-1.5h1.1v1.5h1.7v1H312v2.6c0 .3 0 .5.2.7.2.2.5.3.8.3.2 0 .4 0 .6-.1l.1 1zM317 215.9l-1.4 3h-.8l.9-3h1.3zM317.7 222.7c.5.4 1.1.6 1.6.6s1-.3 1-.7c0-.6-.9-.7-1.7-.9-.7-.2-1.3-.6-1.3-1.4 0-1.2 1-1.7 2-1.7.8 0 1.4.3 1.8.6l-.6.8c-.3-.3-.7-.4-1.2-.4s-1 .3-1 .7c0 .4.4.5 1 .6.9.2 2 .6 2 1.7 0 1-1 1.7-2 1.7-.9 0-1.6-.3-2.2-.8l.6-.8zM326.9 226.9h-1.1v-8.2h1.1v.5c.5-.4 1.1-.6 1.7-.6.5 0 1 .1 1.3.3.8.5 1.4 1.4 1.4 2.5s-.6 2-1.4 2.5c-.4.2-.9.4-1.4.4-.6 0-1.2-.2-1.6-.6v3.2zm0-4.5c.4.5.9.8 1.5.8 1.1 0 1.8-.8 1.8-1.8s-.7-1.8-1.8-1.8c-.7 0-1.2.3-1.6.8v2zM335.1 218.6c1.6 0 2.8 1.2 2.8 2.8 0 1.6-1.2 2.8-2.8 2.8s-2.8-1.2-2.8-2.8c0-1.6 1.2-2.8 2.8-2.8zm0 4.6c1 0 1.7-.8 1.7-1.8s-.7-1.8-1.7-1.8-1.7.8-1.7 1.8.7 1.8 1.7 1.8zM339.3 222.7c.5.4 1.1.6 1.6.6s1-.3 1-.7c0-.6-.9-.7-1.7-.9-.7-.2-1.3-.6-1.3-1.4 0-1.2 1-1.7 2-1.7.8 0 1.4.3 1.8.6l-.6.8c-.3-.3-.7-.4-1.2-.4s-1 .3-1 .7c0 .4.4.5 1 .6.9.2 2 .6 2 1.7 0 1-1 1.7-2 1.7-.9 0-1.6-.3-2.2-.8l.6-.8zM344.4 222.7c.5.4 1.1.6 1.6.6s1-.3 1-.7c0-.6-.9-.7-1.7-.9-.7-.2-1.3-.6-1.3-1.4 0-1.2 1-1.7 2-1.7.8 0 1.4.3 1.8.6l-.6.8c-.3-.3-.7-.4-1.2-.4s-1 .3-1 .7c0 .4.4.5 1 .6.9.2 2 .6 2 1.7 0 1-1 1.7-2 1.7-.9 0-1.6-.3-2.2-.8l.6-.8zM349.9 216c.4 0 .7.3.7.7 0 .4-.3.7-.7.7s-.7-.3-.7-.7c0-.4.3-.7.7-.7zm-.6 2.7h1.1v5.5h-1.1v-5.5zM353.2 224.1h-1.1v-8.2h1.1v3.3c.5-.4 1.1-.6 1.7-.6.5 0 1 .1 1.3.3.8.5 1.4 1.4 1.4 2.5s-.6 2-1.4 2.5c-.4.2-.9.4-1.4.4-.6 0-1.2-.2-1.7-.6v.4zm0-1.7c.4.5.9.8 1.5.8 1.1 0 1.8-.8 1.8-1.8s-.7-1.8-1.8-1.8c-.7 0-1.2.3-1.6.8v2zM359 215.9h1.1v8.2H359v-8.2zM362.5 221.6c.1.9.8 1.6 1.8 1.6.8 0 1.3-.4 1.6-.7l.7.7c-.4.5-1.2 1-2.3 1-1.6 0-2.8-1.2-2.8-2.8 0-1.6 1.1-2.8 2.7-2.8 1.5 0 2.6 1.2 2.6 2.8v.2h-4.3zm.1-.9h3c-.2-.7-.8-1.2-1.4-1.2-.8 0-1.4.5-1.6 1.2zM368.8 222.6c.5 0 .8.4.8.8 0 .5-.4.8-.8.8s-.8-.4-.8-.8.3-.8.8-.8z"/></g><g fill="#1B3E4C"><path d="M369.6 147.4c-1.6 0-2.9.5-4 1.4v-1.1h-3.9v14.7h3.9v-9.6c.5-.8 1.9-1.8 3.6-1.8.9 0 1.7.3 2.2.8.5.5.9 1.3.9 2.8v7.8h3.9v-7.5c0-2.5-.5-4-1.5-5.2-1.2-1.4-3.1-2.3-5.1-2.3zM342.9 157.2c-.5.7-1.8 1.8-3.4 1.8-.8 0-1.6-.2-2.2-.9-.5-.5-.7-1.2-.7-2.5v-8h-3.9v7.8c0 2.2.5 3.7 1.5 4.9 1.2 1.4 3 2.4 5 2.4 1.4 0 2.7-.4 3.8-1.4v1.1h4v-14.7h-3.9v9.5zM327.8 159.2c-1 0-1.6-.3-2-.7-.3-.4-.5-.9-.5-1.9V151h4.1v-3.3h-4.1v-4.1h-3.9v4.1h-1.7v3.3h1.7v5.2c0 2.1.3 3.4 1.1 4.4 1 1.3 2.7 2.1 5.1 2.1.8 0 1.9-.1 2.5-.3l-.6-3.3c-.4 0-1.2.1-1.7.1zM353.9 147.7H350V162.4h3.9V156c0-2.8 1.9-4.4 5.1-4.4v-4c-2.1 0-3.8.5-5.2 1.3v-1.2zM310.4 147.6c-1.5 0-2.9.4-4 1.2v-1.1h-3.7v22.6h3.7v-14.9c0-2.2 1.8-4 4-4s4 1.8 4 4-1.8 4-4 4h-2.3v3.7h2.3c4.2 0 7.6-3.4 7.7-7.6v-.1c0-4.3-3.5-7.8-7.7-7.8zM300 141.2h-4v12.6c0 1.9-.5 3.1-1.4 3.9-.9.9-2.2 1.4-3.6 1.4s-2.7-.5-3.6-1.4c-.9-.8-1.4-2-1.4-3.9v-12.6h-4.1v12.3c0 3.2 1 5.5 2.7 7.1 1.6 1.5 4 2.2 6.4 2.2s4.7-.7 6.4-2.2c1.8-1.6 2.7-3.8 2.7-7.1v-9.1h.1l1.8-3.2h-2z"/></g><g fill="#5BBCC9"><path d="M305.4 252c.4.4.9.7 1.5.7s1-.3 1-.8c0-.8-1.2-.9-2.1-1.5-.5-.3-.9-.7-.9-1.5 0-1.2 1.1-1.8 2.2-1.8.7 0 1.3.2 1.9.6l-.7.9c-.3-.2-.7-.4-1.1-.4-.5 0-1 .2-1 .7 0 1.1 3 .7 3 2.9 0 1.2-1 2-2.2 2-.9 0-1.7-.4-2.4-1l.8-.8zM311.4 253.7h-1.2v-6.6h1.2v2.4c.3-.3.8-.4 1.2-.4.6 0 1.2.3 1.6.7.3.4.5.8.5 1.6v2.3h-1.2v-2.4c0-.4-.1-.7-.3-.9-.2-.2-.4-.3-.7-.3-.5 0-.9.3-1.1.6v3zM318 249.1c1.4 0 2.4 1.1 2.4 2.4s-1 2.4-2.4 2.4-2.4-1-2.4-2.4 1-2.4 2.4-2.4zm0 3.6c.7 0 1.2-.6 1.2-1.2s-.5-1.2-1.2-1.2-1.2.6-1.2 1.2.5 1.2 1.2 1.2zM323.4 253.7h-.8l-1.9-4.5h1.2l1.1 2.6 1.1-2.6h.8l1.1 2.6 1.1-2.6h1.2l-1.9 4.5h-.8l-1.1-2.6-1.1 2.6zM334.9 251.1l2.4-3.9h.9v6.5h-1.3v-3.6l-1.6 2.6h-.9l-1.6-2.6v3.6h-1.3v-6.5h.9l2.5 3.9zM343.5 253c-.4.5-1.2.8-1.9.8-1.4 0-2.4-.9-2.4-2.4 0-1.3.9-2.4 2.2-2.4 1.3 0 2.1 1.1 2.1 2.3v.3h-3.1c.1.6.6 1.1 1.2 1.1.5 0 .9-.3 1.1-.5l.8.8zm-1.1-2.1c0-.4-.4-.8-.9-.8s-.9.4-1 .8h1.9z"/></g><path fill="none" stroke="#5BBCC9" stroke-width="1.559" stroke-miterlimit="10" d="M354.8 245.5v7.3"/><g fill="none" stroke="#5BBCC9" stroke-width="1.559" stroke-miterlimit="10"><path d="M359.1 251c-2.4 0-4.3 1.6-4.3 3.5M350.5 251c2.4 0 4.3 1.6 4.3 3.5"/></g></g><g><g fill="#FBF9F3"><path d="M270.4 596.4c.4.4 1 .7 1.6.7.6 0 1-.4 1-.8 0-.9-1.3-1-2.2-1.5-.5-.3-1-.8-1-1.5 0-1.2 1.1-1.9 2.2-1.9.7 0 1.3.2 2 .6l-.7 1c-.3-.3-.7-.4-1.2-.4s-1 .2-1 .7c0 1.1 3.1.8 3.1 3 0 1.2-1.1 2-2.3 2-.9 0-1.7-.4-2.4-1l.9-.9zM279.1 592.6v1.4h2.1v1.2h-2.1v1.9h2.8v1.2h-4.2v-6.8h4.1v1.2h-2.7zM286.8 595.2v3h-1.3v-6.8h2.5c.7 0 1.1.2 1.5.5.4.3.6.8.6 1.4s-.2 1-.6 1.4c-.2.2-.4.3-.7.4l2.5 3.1h-1.6l-2.4-3h-.5zm1.1-1.1c.4 0 .5-.1.7-.2.1-.1.2-.3.2-.5s-.1-.4-.2-.5c-.1-.1-.3-.2-.7-.2h-1.1v1.4h1.1zM293.1 591.5h1.3l1.8 4.6 1.9-4.6h1.3l-2.7 6.8h-.9l-2.7-6.8zM302.8 591.5h1.3v6.8h-1.3v-6.8zM308.9 594.8c0 1.3 1 2.3 2.3 2.3.9 0 1.5-.4 1.9-.9l.9.8c-.6.8-1.6 1.3-2.8 1.3-2.1 0-3.6-1.5-3.6-3.5s1.5-3.5 3.6-3.5c1 0 1.9.4 2.5 1l-.8.9c-.4-.4-1-.7-1.6-.7-1.4 0-2.4 1-2.4 2.3zM318.7 592.6v1.4h2.1v1.2h-2.1v1.9h2.8v1.2h-4.2v-6.8h4.1v1.2h-2.7zM325.4 596.4c.4.4 1 .7 1.6.7.6 0 1-.4 1-.8 0-.9-1.3-1-2.2-1.5-.5-.3-1-.8-1-1.5 0-1.2 1.1-1.9 2.2-1.9.7 0 1.3.2 2 .6l-.7 1c-.3-.3-.7-.4-1.2-.4s-1 .2-1 .7c0 1.1 3.1.8 3.1 3 0 1.2-1.1 2-2.3 2-.9 0-1.7-.4-2.4-1l.9-.9zM335.7 598.2l3.1-6.8h1.2l-3.1 6.8h-1.2zM346.8 596.4c.4.4 1 .7 1.6.7.6 0 1-.4 1-.8 0-.9-1.3-1-2.2-1.5-.5-.3-1-.8-1-1.5 0-1.2 1.1-1.9 2.2-1.9.7 0 1.3.2 2 .6l-.7 1c-.3-.3-.7-.4-1.2-.4s-1 .2-1 .7c0 1.1 3.1.8 3.1 3 0 1.2-1.1 2-2.3 2-.9 0-1.7-.4-2.4-1l.9-.9zM355.1 594.8c0 1.3 1 2.3 2.3 2.3.9 0 1.5-.4 1.9-.9l.9.8c-.6.8-1.6 1.3-2.8 1.3-2.1 0-3.6-1.5-3.6-3.5s1.5-3.5 3.6-3.5c1 0 1.9.4 2.5 1l-.8.9c-.4-.4-1-.7-1.6-.7-1.4 0-2.4 1-2.4 2.3zM366.6 591.4c2.1 0 3.5 1.6 3.5 3.5s-1.4 3.5-3.5 3.5-3.5-1.6-3.5-3.5c0-2 1.4-3.5 3.5-3.5zm0 5.8c1.3 0 2.2-1 2.2-2.3 0-1.3-.9-2.3-2.2-2.3-1.3 0-2.2 1-2.2 2.3 0 1.2.9 2.3 2.2 2.3zM374.9 595.5v2.8h-1.3v-6.8h2.5c.9 0 1.4.2 1.8.6.3.3.5.9.5 1.4s-.2 1.1-.5 1.4c-.4.4-.9.6-1.8.6h-1.2zm1.2-1.2c.4 0 .7-.1.8-.3.1-.2.2-.3.2-.6 0-.2-.1-.4-.2-.6-.2-.2-.4-.3-.8-.3h-1.2v1.7h1.2zM383.1 592.6v1.4h2.1v1.2h-2.1v1.9h2.8v1.2h-4.2v-6.8h4.1v1.2h-2.7z"/></g></g><path fill="#FFF" d="M.2 16.4h657v33.8H.2z"/><g><path fill="#092930" d="M98.6 31.3v3.4c0 .5-.1.8-.4 1.1-.3.2-.6.4-1 .4s-.7-.1-1-.4c-.3-.2-.4-.6-.4-1.1v-3.4h-1.3v3.4c0 .9.3 1.6.8 2.1.5.4 1.1.6 1.9.6.7 0 1.4-.2 1.9-.6.5-.5.8-1.2.8-2.1v-2.4l.6-1h-1.9z"/><path fill="#092930" d="M97.6 41.4h-7.7v-7.7c0-4.2 3.5-7.7 7.7-7.7 4.3 0 7.7 3.5 7.7 7.7 0 4.3-3.5 7.7-7.7 7.7zm-6.3-1.3h6.3c3.5 0 6.3-2.8 6.3-6.3s-2.8-6.3-6.3-6.3-6.3 2.8-6.3 6.3v6.3z"/></g><g fill="#5BBCC9"><path d="M188.7 35.1c.3.3.7.6 1.2.6.4 0 .7-.3.7-.6 0-.7-.9-.7-1.6-1.1-.4-.2-.7-.6-.7-1.2 0-.9.8-1.4 1.7-1.4.5 0 1 .1 1.5.5l-.5.7c-.2-.2-.5-.3-.9-.3s-.8.2-.8.6c0 .8 2.3.6 2.3 2.3 0 .9-.8 1.5-1.7 1.5-.7 0-1.3-.3-1.8-.8l.6-.8zM195.5 35.8c-.3.4-.9.6-1.4.6-1.1 0-1.8-.7-1.8-1.8 0-1 .7-1.8 1.7-1.8s1.7.8 1.7 1.8v.3h-2.4c.1.5.4.8.9.8.4 0 .7-.2.9-.4l.4.5zm-.9-1.6c0-.3-.3-.6-.7-.6-.4 0-.7.3-.8.6h1.5zM198.5 33.7h-.3c-.4 0-.7.3-.9.5v2.2h-.9v-3.5h.9v.4c.2-.3.6-.4 1-.4h.3l-.1.8zM201 35l1-2.1h1l-1.6 3.5h-.7l-1.6-3.5h1l.9 2.1zM204.1 31c.3 0 .6.3.6.6s-.3.6-.6.6-.6-.3-.6-.6.2-.6.6-.6zm.4 5.4h-.9v-3.5h.9v3.5zM208.8 35.7c-.4.6-.9.8-1.6.8-1.1 0-1.9-.8-1.9-1.8s.8-1.8 1.9-1.8c.6 0 1.2.3 1.5.7l-.7.6c-.2-.2-.5-.4-.8-.4-.5 0-.9.4-.9 1s.4 1 1 1c.4 0 .7-.2.8-.5l.7.4zM212.5 35.8c-.3.4-.9.6-1.4.6-1.1 0-1.8-.7-1.8-1.8 0-1 .7-1.8 1.7-1.8s1.7.8 1.7 1.8v.3h-2.4c.1.5.4.8.9.8.4 0 .7-.2.9-.4l.4.5zm-.8-1.6c0-.3-.3-.6-.7-.6-.4 0-.7.3-.8.6h1.5zM213.6 35.3c.2.2.6.3 1 .3.3 0 .4-.1.4-.3 0-.5-1.7-.3-1.7-1.5 0-.7.7-1.1 1.3-1.1.5 0 1 .2 1.2.4l-.4.7c-.2-.1-.4-.2-.7-.2-.3 0-.5.1-.5.3 0 .5 1.7.3 1.7 1.5 0 .7-.7 1.1-1.4 1.1-.5 0-1-.2-1.4-.5l.5-.7z"/><g><path d="M320.6 33.9c0 1 .8 1.7 1.7 1.7.7 0 1.1-.3 1.4-.7l.7.6c-.4.6-1.2 1-2.1 1-1.6 0-2.7-1.2-2.7-2.6 0-1.5 1.1-2.6 2.7-2.6.8 0 1.4.3 1.9.7l-.6.7c-.3-.3-.7-.5-1.2-.5-1.1-.1-1.8.7-1.8 1.7zM326 36.4h-.9v-5.1h.9v5.1zM327.6 31c.3 0 .6.3.6.6s-.3.6-.6.6-.6-.2-.6-.6.2-.6.6-.6zm.5 5.4h-.9v-3.5h.9v3.5zM332.1 35.8c-.3.4-.9.6-1.4.6-1.1 0-1.8-.7-1.8-1.8 0-1 .7-1.8 1.7-1.8s1.7.8 1.7 1.8v.3h-2.4c.1.5.4.8.9.8.4 0 .7-.2.9-.4l.4.5zm-.8-1.6c0-.3-.3-.6-.7-.6-.4 0-.7.3-.8.6h1.5zM333 36.4v-3.5h.9v.3c.3-.2.6-.4 1-.4.5 0 .9.2 1.2.6.2.3.4.6.4 1.2v1.8h-.9v-1.9c0-.3-.1-.5-.2-.7-.1-.1-.3-.2-.5-.2-.4 0-.7.3-.9.4v2.3h-1zM340 36.4c-.1 0-.4.1-.6.1-.6 0-1-.2-1.2-.5-.2-.2-.3-.6-.3-1.1v-1.2h-1v-.8h1v-1h.9v1h1.2v.8h-1.2V35c0 .2 0 .3.1.4.1.1.2.2.5.2h.4l.2.8zM341.1 35.3c.2.2.6.3 1 .3.3 0 .4-.1.4-.3 0-.5-1.7-.3-1.7-1.5 0-.7.7-1.1 1.3-1.1.5 0 1 .2 1.2.4l-.4.7c-.2-.1-.4-.2-.7-.2-.3 0-.5.1-.5.3 0 .5 1.7.3 1.7 1.5 0 .7-.7 1.1-1.4 1.1-.5 0-1-.2-1.4-.5l.5-.7z"/></g><g><path d="M380.8 31.3h1l1.4 3.5 1.4-3.5h1l-2.1 5.1h-.7l-2-5.1zM389.3 36.4h-.9v-.3c-.3.2-.6.4-1 .4-.5 0-1-.2-1.3-.6-.3-.3-.4-.8-.4-1.2 0-1 .8-1.8 1.7-1.8.4 0 .8.1 1 .4V33h.9v3.4zm-.9-2.3c-.2-.3-.5-.4-.9-.4-.6 0-.9.5-.9 1 0 .6.4 1 .9 1 .4 0 .7-.2.8-.4v-1.2zM391.3 36.4h-.9v-5.1h.9v5.1zM395.8 32.9v3.5h-.9v-.3c-.3.2-.6.4-.9.4-.5 0-.9-.2-1.2-.6-.2-.3-.4-.6-.4-1.2v-1.9h.9v1.9c0 .3.1.5.2.6.1.2.3.2.5.2.4 0 .7-.3.8-.4v-2.3h1zM399.8 35.8c-.3.4-.9.6-1.4.6-1.1 0-1.8-.7-1.8-1.8 0-1 .7-1.8 1.7-1.8s1.7.8 1.7 1.8v.3h-2.4c.1.5.4.8.9.8.4 0 .7-.2.9-.4l.4.5zm-.8-1.6c0-.3-.3-.6-.7-.6-.4 0-.7.3-.8.6h1.5zM400.9 35.3c.2.2.6.3 1 .3.3 0 .4-.1.4-.3 0-.5-1.7-.3-1.7-1.5 0-.7.7-1.1 1.3-1.1.5 0 1 .2 1.2.4l-.4.7c-.2-.1-.4-.2-.7-.2-.3 0-.5.1-.5.3 0 .5 1.7.3 1.7 1.5 0 .7-.7 1.1-1.4 1.1-.5 0-1-.2-1.4-.5l.5-.7z"/></g><g><path d="M444.3 31.3v.9H443v4.2h-1v-4.2h-1.3v-.9h3.6zM447.6 35.8c-.3.4-.9.6-1.4.6-1.1 0-1.8-.7-1.8-1.8 0-1 .7-1.8 1.7-1.8s1.7.8 1.7 1.8v.3h-2.4c.1.5.4.8.9.8.4 0 .7-.2.9-.4l.4.5zm-.9-1.6c0-.3-.3-.6-.7-.6-.4 0-.7.3-.8.6h1.5zM451.9 36.4h-.9v-.3c-.3.2-.6.4-1 .4-.5 0-1-.2-1.3-.6-.3-.3-.4-.8-.4-1.2 0-1 .8-1.8 1.7-1.8.4 0 .8.1 1 .4V33h.9v3.4zm-.9-2.3c-.2-.3-.5-.4-.9-.4-.6 0-.9.5-.9 1 0 .6.4 1 .9 1 .4 0 .7-.2.8-.4v-1.2zM453 36.4v-3.5h.9v.3c.3-.2.6-.4.9-.4.5 0 .9.2 1.2.6.3-.3.7-.6 1.2-.6s.9.2 1.2.6c.2.3.4.6.4 1.2v1.9h-.9v-1.9c0-.3-.1-.5-.2-.6-.1-.2-.3-.2-.5-.2-.4 0-.7.3-.8.5v2.3h-.9v-1.9c0-.3-.1-.5-.2-.6-.1-.2-.3-.2-.5-.2-.4 0-.7.3-.8.4v2.3h-1z"/></g><g><path d="M255.1 34.3v2.1h-1v-5.1h1.9c.7 0 1 .2 1.3.5.3.3.4.7.4 1.1 0 .4-.1.8-.4 1.1-.3.3-.7.4-1.3.4h-.9zm.9-.8c.3 0 .5-.1.6-.2.1-.1.2-.3.2-.4 0-.2-.1-.3-.2-.4-.1-.1-.3-.2-.6-.2h-.9v1.3h.9zM260.5 33.7h-.3c-.4 0-.7.3-.9.5v2.2h-.9v-3.5h.9v.4c.2-.3.6-.4 1-.4h.3l-.1.8zM262.8 32.8c1.1 0 1.9.8 1.9 1.8s-.8 1.8-1.9 1.8-1.9-.8-1.9-1.8.9-1.8 1.9-1.8zm0 2.8c.6 0 .9-.4.9-1s-.4-1-.9-1-.9.4-.9 1 .4 1 .9 1zM265 37.3h.2c.2 0 .3-.1.4-.2.1-.1.1-.3.1-.6v-3.7h.9v3.7c0 .5-.1.8-.3 1.1-.2.3-.6.5-1.2.5h-.5l.4-.8zm1.3-6.3c.3 0 .6.3.6.6s-.3.6-.6.6-.6-.3-.6-.6.2-.6.6-.6zM270.8 35.8c-.3.4-.9.6-1.4.6-1.1 0-1.8-.7-1.8-1.8 0-1 .7-1.8 1.7-1.8s1.7.8 1.7 1.8v.3h-2.4c.1.5.4.8.9.8.4 0 .7-.2.9-.4l.4.5zm-.9-1.6c0-.3-.3-.6-.7-.6-.4 0-.7.3-.8.6h1.5zM275 35.7c-.4.6-.9.8-1.6.8-1.1 0-1.9-.8-1.9-1.8s.8-1.8 1.9-1.8c.6 0 1.2.3 1.5.7l-.7.6c-.2-.2-.5-.4-.8-.4-.5 0-.9.4-.9 1s.4 1 1 1c.4 0 .7-.2.8-.5l.7.4zM278.3 36.4c-.1 0-.4.1-.6.1-.6 0-1-.2-1.2-.5-.2-.2-.3-.6-.3-1.1v-1.2h-1v-.8h1v-1h.9v1h1.2v.8h-1.2V35c0 .2 0 .3.1.4.1.1.2.2.5.2h.4l.2.8zM279.4 35.3c.2.2.6.3 1 .3.3 0 .4-.1.4-.3 0-.5-1.7-.3-1.7-1.5 0-.7.7-1.1 1.3-1.1.5 0 1 .2 1.2.4l-.4.7c-.2-.1-.4-.2-.7-.2-.3 0-.5.1-.5.3 0 .5 1.7.3 1.7 1.5 0 .7-.7 1.1-1.4 1.1-.5 0-1-.2-1.4-.5l.5-.7z"/></g></g><path fill="#092930" d="M187.7 48.4h29v2.4h-29z"/><g><path fill="#222" d="M657.5 16.3V5.8c0-3.2-2.6-5.8-5.9-5.8H6.4C3.1 0 .5 2.6.5 5.8v10.5h657z"/><g fill="#EBEBEB"><circle cx="10.1" cy="8.1" r="1.9"/><circle cx="21.1" cy="8.1" r="1.9"/><circle cx="32.1" cy="8.1" r="1.9"/></g></g><g><path fill="none" stroke="#5BBCC9" stroke-width="2.74" stroke-miterlimit="10" d="M19.8 239.5h13.6M26.6 215.7v23.8M15.5 220.9h22.1"/><path fill="#5BBCC9" d="M41.3 223.5l-3.6-3.6-3.6 3.6c-1 1-1.5 2.3-1.5 3.6 0 1.4.5 2.7 1.5 3.6 1 1 2.3 1.5 3.6 1.5 1.4 0 2.7-.5 3.6-1.5 2-1.9 2-5.1 0-7.2zm-3.7-1.2l2.4 2.4c.5.5.9 1.2 1 2h-6.8c.1-.7.4-1.4 1-2l2.4-2.4zM19.2 223.5l-3.6-3.6-3.6 3.6c-1 1-1.5 2.3-1.5 3.6 0 1.4.5 2.7 1.5 3.6 1 1 2.3 1.5 3.6 1.5 1.4 0 2.7-.5 3.6-1.5 2-1.9 2-5.1 0-7.2zm-3.7-1.2l2.4 2.4c.5.5.9 1.2 1 2h-6.8c.1-.7.4-1.4 1-2l2.4-2.4z"/></g><g fill="#5BBCC9"><path d="M59.479 148.792l-1.626-1.627 6.507-6.503 1.626 1.626zM62.722 151.973l-1.626-1.627 10.822-10.816 1.625 1.627zM56.16 145.485l-1.626-1.626 3.252-3.253 1.627 1.626zM66.188 155.089l-1.626-1.627 13.645-13.648 1.626 1.626z"/></g><g><path fill="#092930" d="M180.4 645.1c-.6.7-1.5 1.2-2.5 1.2-1.2 0-2.2-.6-2.7-1.6l-15.8 57.9 1.5 2h33.6l1.5-2-15.6-57.5zM163 701.4l14.8-54.2 14.8 54.2H163z"/><path fill="#092930" d="M169.6 669.4h16.5v3.1h-16.5zM177.5 647.8c-2.6 0-4.6-2.1-4.6-4.6 0-2.6 2.1-4.6 4.6-4.6 2.6 0 4.6 2.1 4.6 4.6.1 2.6-2 4.6-4.6 4.6zm0-6.1c-.9 0-1.5.7-1.5 1.5 0 .9.7 1.5 1.5 1.5s1.5-.7 1.5-1.5c0-.9-.6-1.5-1.5-1.5z"/><path fill="#092930" d="M181.318 657.79l2.19 2.194-12.172 12.153-2.19-2.194z"/><path fill="#092930" d="M171.49 671.177l18.023 13.469-1.855 2.483-18.023-13.469z"/><path fill="#092930" d="M164.7 685.6h26.6v3.1h-26.6z"/><path fill="#4E9DA5" d="M107.6 682.4H118v18.2h-10.4zM98.8 706.3h78.1v49.6H98.8z"/><g fill="#FBF9F3"><path d="M107.6 716.2H118v10.4h-10.4zM124.5 716.2h10.4v10.4h-10.4zM141.5 716.2h10.4v10.4h-10.4z"/></g><g fill="#FBF9F3"><path d="M107.6 735.1H118v10.4h-10.4zM124.5 735.1h10.4v10.4h-10.4zM141.5 735.1h10.4v10.4h-10.4z"/></g><path fill="#FBF9F3" d="M158.4 716.2h10.4v10.4h-10.4zM158.4 735.1h10.4v10.4h-10.4z"/><path fill="#092930" d="M95.2 700.2h86.3v7.8H95.2z"/><path fill="#324C56" d="M558.3 695.2H443.4l4.7-8.9h105.4zM443.4 701.9h114.9v54.5H443.4z"/><g fill="#FBF9F3"><path d="M455 710h9.1v11H455zM471.5 710h9.1v11h-9.1zM488 710h9.1v11H488zM504.5 710h9.1v11h-9.1zM521 710h9.1v11H521zM537.5 710h9.1v11h-9.1z"/></g><g fill="#FBF9F3"><path d="M455 728.1h9.1v11H455zM471.5 728.1h9.1v11h-9.1zM521 728.1h9.1v11H521zM537.5 728.1h9.1v11h-9.1z"/></g><path fill="#092930" d="M515.8 686.3h-.1l-14.9-7.1-14.9 7.1h-.1v15.6h30v-15.6z"/><circle fill="#FBF9F3" cx="500.7" cy="688.6" r="3.2"/><path fill="#4E9DA5" d="M500.8 727.7h12.8v24.5h-12.8z"/><path fill="#FBF9F3" d="M488 727.7h12.8v24.1H488z"/><path fill="#092930" d="M439.9 693.7h121.6v8.3H439.9zM364.1 661.1h2.9v10.4h-2.9zM403.6 635.6h1.2v10.9h-1.2z"/><path fill="#092930" d="M403.6 635.6h9.9v4.6h-9.9z"/><path fill="#324C56" d="M355.5 684.9h77.6v71.6h-77.6z"/><path fill="#4E9DA5" d="M375.9 685.9c0-15.9 12.9-28.8 28.8-28.8s28.8 12.9 28.8 28.8"/><path fill="#FBF9F3" d="M392.3 657.1c0-6.5 5.3-11.8 11.8-11.8 6.5 0 11.8 5.3 11.8 11.8"/><path fill="#092930" d="M388.8 655.2h31.8v7.2h-31.8zM310.8 669.9h68v86.4h-68z"/><path fill="#4E9DA5" d="M307.4 669.4h74.7v5.2h-74.7z"/><g fill="#FBF9F3"><path d="M322.2 704.3h8.7V716h-8.7zM340.2 704.3h8.7V716h-8.7zM358.2 704.3h8.7V716h-8.7z"/></g><g fill="#FBF9F3"><path d="M322.2 684.9h8.7v11.7h-8.7zM340.2 684.9h8.7v11.7h-8.7zM358.2 684.9h8.7v11.7h-8.7z"/></g><path fill="#FBF9F3" d="M371.4 727.7h-53.6l1.7-3.6H370zM321 729.4h28v19.7h-28zM354.1 729.4h15.1v26.9h-15.1z"/><path fill="#092930" d="M317.8 727.7h53.7v4.4h-53.7zM310.8 674.6h68v2.2h-68z"/><path fill="#4E9DA5" d="M242.9 695.2h68v61.2h-68z"/><path fill="#FBF9F3" d="M254.4 704.3h8.7V716h-8.7zM272.4 704.3h8.7V716h-8.7zM290.4 704.3h8.7V716h-8.7z"/><path fill="#092930" d="M175.6 695.2h68v61.2h-68z"/><path fill="#FBF9F3" d="M253.1 729.4h28v19.7h-28zM286.2 729.4h15.1v26.9h-15.1z"/><path fill="#092930" d="M249.9 721h53.7v4.4h-53.7zM386.6 704.4h57v37.3h-57z"/><path fill="#FBF9F3" d="M386.6 704.4h7.4v39.1h-7.4zM419.7 704.4h7.4v39.1h-7.4zM403.1 704.4h7.4v39.1h-7.4zM436.2 704.4h7.4v39.1h-7.4z"/><path fill="#FBF9F3" d="M386.6 704.4h7.4v39.1h-7.4zM375.3 749.1h79.6v7.4h-79.6z"/><path fill="#092930" d="M378.7 741.7h72.7v7.4h-72.7zM443.7 721.4l-48.4-17h48.4z"/><path fill="#FBF9F3" d="M378.7 697.7h72.7v7.4h-72.7z"/><path fill="#092930" d="M378.7 697.7l36.4-17.2 36.3 17.2z"/><circle fill="#FBF9F3" cx="414.8" cy="690.2" r="3.5"/><path fill="#FBF9F3" d="M188.1 718.9v-8.1c0-2.8 2.3-5 5-5 2.8 0 5 2.3 5 5v8.1"/><path fill="#4E9DA5" d="M186.9 717.9h12.4v2.3h-12.4z"/><path fill="#FBF9F3" d="M205.1 718.9v-8.1c0-2.8 2.3-5 5-5 2.8 0 5 2.3 5 5v8.1"/><path fill="#4E9DA5" d="M203.9 717.9h12.4v2.3h-12.4z"/><path fill="#FBF9F3" d="M222.1 718.9v-8.1c0-2.8 2.3-5 5-5 2.8 0 5 2.3 5 5v8.1"/><path fill="#4E9DA5" d="M220.9 717.9h12.4v2.3h-12.4z"/><path fill="#FBF9F3" d="M188.1 741.5v-8.1c0-2.8 2.3-5 5-5 2.8 0 5 2.3 5 5v8.1"/><path fill="#4E9DA5" d="M186.9 740.5h12.4v2.3h-12.4z"/><g><path fill="#FBF9F3" d="M205.1 741.5v-8.1c0-2.8 2.3-5 5-5 2.8 0 5 2.3 5 5v8.1"/><path fill="#4E9DA5" d="M203.9 740.5h12.4v2.3h-12.4z"/></g><g><path fill="#FBF9F3" d="M222.1 741.5v-8.1c0-2.8 2.3-5 5-5 2.8 0 5 2.3 5 5v8.1"/><path fill="#4E9DA5" d="M220.9 740.5h12.4v2.3h-12.4z"/></g><path fill="#092930" d="M235.2 689.7h3.8v5.5h-3.8zM275.9 689.7h3.8v5.5h-3.8zM227 666.3h59.1V687H227z"/><path fill="#092930" d="M227 687h59.1v3.9H227zM371 649.8c3.3 3.3 3.3 8.7 0 12-3.3 3.3-8.7 3.3-12 0"/><path fill="#092930" d="M359.452 649.577l6.223 6.223-1.344 1.343-6.223-6.222z"/><path fill="#092930" d="M358.9 652.1c-1.1 0-1.9-.9-1.9-1.9 0-1.1.9-1.9 1.9-1.9 1.1 0 1.9.9 1.9 1.9 0 1.1-.8 1.9-1.9 1.9z"/><g fill="#FBF9F3"><path d="M236.8 676.7c0 1 .7 1.7 1.7 1.7.5 0 .8-.2 1.1-.4v-1.1h-1.3v-.9h2.3v2.2c-.4.6-1.2 1-2.1 1-1.6 0-2.7-1.1-2.7-2.6s1.1-2.6 2.6-2.6c.7 0 1.4.3 1.8.7l-.6.7c-.3-.3-.7-.5-1.2-.5-.9.1-1.6.8-1.6 1.8zM245.7 674.1c1.5 0 2.6 1.2 2.6 2.6s-1.1 2.6-2.6 2.6-2.6-1.2-2.6-2.6 1.1-2.6 2.6-2.6zm0 4.3c.9 0 1.6-.8 1.6-1.7s-.7-1.7-1.6-1.7c-.9 0-1.6.8-1.6 1.7s.7 1.7 1.6 1.7zM254 674.2h1l1.4 3.4 1.4-3.4h1l-2 5h-.8l-2-5zM263.3 674.1c1.5 0 2.6 1.2 2.6 2.6s-1.1 2.6-2.6 2.6-2.6-1.2-2.6-2.6 1-2.6 2.6-2.6zm0 4.3c.9 0 1.6-.8 1.6-1.7s-.7-1.7-1.6-1.7c-.9 0-1.6.8-1.6 1.7s.6 1.7 1.6 1.7zM271.6 674.2v.9h-1.3v4.2h-1v-4.2H268v-.9h3.6zM275.1 675.1v1h1.5v.9h-1.5v1.4h2.1v.9h-3.1v-5h3v.9h-2z"/></g><path fill="#092930" d="M218.6 692.8v-1.2c.6-.1 1.1-.4 1.6-.9l-4.9-4.9c-1.3 1.3-1.3 3.5 0 4.9.1.1.3.3.5.4v1.7h-2.2v2.4h7.2v-2.4h-2.2zM293.9 692.8v-1.2c-.6-.1-1.1-.4-1.6-.9l4.9-4.9c1.3 1.3 1.3 3.5 0 4.9-.1.1-.3.3-.5.4v1.7h2.2v2.4h-7.2v-2.4h2.2z"/><g><path fill="#092930" d="M130.1 666.1v-1.7h-4.4c-1.6 0-2.9 1.3-2.9 2.9v1.7h4.4c1.6 0 2.9-1.3 2.9-2.9zM144.5 662.8v-2.7h-7.3c-2.7 0-4.8 2.2-4.8 4.8v2.7h7.3c2.6.1 4.8-2.1 4.8-4.8zM122.4 671.3h-9.6c-3.8 0-6.9 3.1-6.9 7 0 3.8 3.1 6.9 6.9 6.9 3.5 0 6.4-2.6 6.9-6 .2-.1.3-.2.4-.3h2.9c2.7 0 4.8-2.2 4.8-4.8v-2.7h-5.4z"/></g><path fill="#4E9DA5" d="M227 684.7h59.1v2.3H227z"/><g fill="#FBF9F3"><path d="M98.4 646.8c0-6.2 5-11.3 11.3-11.3 6.2 0 11.3 5 11.3 11.3M140.7 646.8c0-3.8 3.1-6.9 6.9-6.9 3.8 0 6.9 3.1 6.9 6.9"/><path d="M109.8 646.8c0-9.9 8-18 18-18 9.9 0 18 8 18 18"/></g><g fill="#FBF9F3"><path d="M196.7 658.5c0-5.3-4.3-9.5-9.5-9.5-5.3 0-9.5 4.3-9.5 9.5"/><path d="M220.9 658.5c0-8.1-6.5-14.6-14.6-14.6s-14.6 6.5-14.6 14.6"/></g><g fill="#FBF9F3"><path d="M497 658.5c0-5.1-4.1-9.2-9.2-9.2s-9.2 4.1-9.2 9.2M462.7 658.5c0-3.1-2.5-5.6-5.6-5.6-3.1 0-5.6 2.5-5.6 5.6"/><path d="M487.8 658.5c0-8.1-6.5-14.6-14.6-14.6s-14.6 6.5-14.6 14.6"/></g><g fill="#FBF9F3"><path d="M306.1 648.5c0-5.3 4.3-9.5 9.5-9.5 5.3 0 9.5 4.3 9.5 9.5"/><path d="M281.9 648.5c0-8.1 6.5-14.6 14.6-14.6s14.6 6.5 14.6 14.6"/></g><g><path fill="#092930" d="M481.9 752.6h37.8v3.8h-37.8z"/></g><g><path fill="#092930" d="M484.9 749.1h31.8v3.8h-31.8z"/></g></g></svg>