<svg xmlns="http://www.w3.org/2000/svg" width="433" height="709" viewBox="0 0 433 709"><path fill="none" stroke="#1B3E4C" stroke-width="6.325" stroke-miterlimit="10" d="M17.7 254.4l69.6-69.6M20.9 259.5c0 4.9-4 8.8-8.9 8.8s-8.8-4-8.8-8.8c0-4.9 4-8.9 8.8-8.9 4.9.1 8.9 4 8.9 8.9z"/><g stroke="#5BBCC9" stroke-width="6.325" stroke-miterlimit="10"><path fill="none" d="M442.2 110.9L304.9 248.3"/><path fill="#FFF" d="M293 238.3h21.9v21.8H293z"/></g><g fill="none" stroke="#5BBCC9" stroke-width="6.325" stroke-miterlimit="10"><path d="M447.7 268.7l-198.9 199c-10.9 10.9-28.5 10.9-39.3 0-10.8-10.8-10.8-28.4 0-39.3l35-35M65.4 493.9L202 357.2c10.9-10.9 28.4-10.9 39.3 0 10.8 10.9 10.8 28.4 0 39.3l-4.4 4.4"/></g><g fill="none" stroke="#5BBCC9" stroke-width="6.325" stroke-miterlimit="10"><path d="M132.3 137.3l-86-86M44.3 74.6c7-7 6.4-18.9-1.3-26.6M69.6 49.4c-7 7-18.9 6.4-26.6-1.3M167.9 101.8l-50.6 50.6c-8.6 8.6-8.6 22.6 0 31.2 8.6 8.6 22.6 8.6 31.2 0 8.6-8.6 8.6-22.6 0-31.2L133 136.7"/></g><path fill="none" stroke="#5BBCC9" stroke-width="6.325" stroke-miterlimit="10" d="M136 133.4L277.4-8"/><path fill="none" stroke="#1B3E4C" stroke-width="6.325" stroke-miterlimit="10" d="M476.1 328L261.7 542.4"/><g fill="none" stroke="#1B3E4C" stroke-width="6.325" stroke-miterlimit="10"><path d="M290.2 547.6c-9-9-24.4-8.3-34.4 1.7M257.5 515c9 9 8.3 24.4-1.7 34.4"/></g><path fill="none" stroke="#1B3E4C" stroke-width="6.325" stroke-miterlimit="10" d="M439.5 20.5L65.1 394.9M70.9 402.5c0 7-5.7 12.7-12.7 12.7-7 0-12.7-5.7-12.7-12.7 0-7 5.7-12.7 12.7-12.7 7 0 12.7 5.7 12.7 12.7z"/><g stroke-miterlimit="10"><path fill="#5BBCC9" stroke="#5BBCC9" stroke-width="7.19" d="M301.9 341.5c4.2.7 7 4.7 6.3 8.9-.7 4.2-4.7 7-8.9 6.3-4.2-.7-7-4.7-6.3-8.9.7-4.2 4.7-7 8.9-6.3z"/><path fill="#1B3E4C" stroke="#1B3E4C" stroke-width="4.581" d="M373.8 247.6c8.4 1.4 14.1 9.4 12.7 17.8-1.4 8.4-9.4 14.1-17.8 12.7-8.4-1.4-14.1-9.4-12.7-17.8 1.4-8.5 9.4-14.2 17.8-12.7z"/><path fill="#5BBCC9" stroke="#5BBCC9" stroke-width="7.19" d="M258.6 290.3c4.2.7 7 4.7 6.3 8.9-.7 4.2-4.7 7-8.9 6.3-4.2-.7-7-4.7-6.3-8.9.7-4.2 4.7-7 8.9-6.3z"/><path fill="none" stroke="#1B3E4C" stroke-width="4.581" d="M318.5 291.9c5.6.9 9.4 6.2 8.4 11.8-.9 5.6-6.2 9.4-11.8 8.4-5.6-.9-9.4-6.2-8.4-11.8.9-5.6 6.2-9.4 11.8-8.4z"/></g><path fill="#1B3E4C" d="M57.3 516.7l-14.1-14.2c-1.6-1.6-4.1-1.6-5.7 0l-1.4 1.4-2.8-2.8c-3.9-3.9-10.2-3.9-14.1 0-3.9 3.9-3.9 10.2 0 14.1L22 518l-1.4 1.4c-1.6 1.6-1.6 4.1 0 5.7l14.2 14.2c1.6 1.6 4.1 1.6 5.7 0l8.5-8.5 8.5-8.5c1.4-1.5 1.4-4.1-.2-5.6zm-32.7-1.3l-2.8-2.8c-2.4-2.4-2.4-6.3 0-8.8 2.4-2.4 6.4-2.4 8.8 0l2.8 2.8L29 511l-4.4 4.4zm17.2 8.3c-1.6 1.6-4.1 1.6-5.7 0-1.6-1.6-1.6-4.1 0-5.7 1.6-1.6 4.1-1.6 5.7 0 1.5 1.6 1.5 4.2 0 5.7z"/><path fill="none" stroke="#5BBCC9" stroke-width="6.325" stroke-miterlimit="10" d="M59.9 485.4l15.4 15.5"/><path fill="#1B3E4C" d="M128.8 260.3c0-1.5-.8-2.8-1.9-3.5L108.4 246l-18.5 10.8c-1.2.7-1.9 2-1.9 3.5v20.4c0 2.2 1.8 4.1 4.1 4.1h32.7c2.2 0 4.1-1.8 4.1-4.1l-.1-20.4z"/><path fill="#FFF" d="M108.4 270.6L91.5 260l16.9-9.9 16.9 9.9z"/><path fill="#5BBCC9" stroke="#5BBCC9" stroke-width="6.325" stroke-miterlimit="10" d="M215.6 162.7L399.1-20.9"/><g fill="#5BBCC9"><path d="M199 185.8c0 3.2-2.6 5.8-5.8 5.8-3.2 0-5.8-2.6-5.8-5.8 0-3.2 2.6-5.8 5.8-5.8 3.2 0 5.8 2.6 5.8 5.8zM182.9 201.6c0 3.2-2.6 5.8-5.8 5.8-3.2 0-5.8-2.6-5.8-5.8 0-3.2 2.6-5.8 5.8-5.8 3.2 0 5.8 2.6 5.8 5.8zM166.9 218.7c0 3.2-2.6 5.8-5.8 5.8-3.2 0-5.8-2.6-5.8-5.8 0-3.2 2.6-5.8 5.8-5.8 3.2 0 5.8 2.6 5.8 5.8zM150.9 233.8c0 3.2-2.6 5.8-5.8 5.8-3.2 0-5.8-2.6-5.8-5.8 0-3.2 2.6-5.8 5.8-5.8 3.2.1 5.8 2.6 5.8 5.8z"/></g><g stroke="#1B3E4C" stroke-width="5.271" stroke-miterlimit="10"><path fill="none" d="M42.5 129.2c-4 2.3-9.1.8-11.4-3.2-2.3-4-.8-9.1 3.2-11.4 4-2.3 9.1-.8 11.4 3.2 2.3 4 .9 9.1-3.2 11.4z"/><path fill="#1B3E4C" d="M63.6 151.9c-2.1 1.2-4.8.4-5.9-1.7-1.2-2.1-.4-4.8 1.7-5.9 2.1-1.2 4.8-.4 5.9 1.7 1.1 2 .4 4.7-1.7 5.9z"/><path fill="none" d="M27.7 174c-7.8 4.4-17.7 1.6-22-6.2-4.4-7.8-1.6-17.6 6.1-22 7.8-4.4 17.7-1.6 22 6.2 4.4 7.7 1.7 17.6-6.1 22z"/></g><path fill="#5BBCC9" stroke="#5BBCC9" stroke-width="6.325" stroke-miterlimit="10" d="M377.9 511.6l67.6-67.6"/><path fill="#5BBCC9" stroke="#5BBCC9" stroke-width="7.19" stroke-miterlimit="10" d="M380.4 517.6c-2.5 1.4-5.8.5-7.2-2-1.4-2.5-.5-5.8 2-7.2 2.5-1.4 5.8-.5 7.2 2 1.5 2.5.6 5.7-2 7.2z"/><g fill="#1B3E4C"><path d="M118.7 79.9l10.6-10.6h21.4v-7.8h-32zM118.7 48h32v8h-32z"/></g><path fill="none" d="M436.7 6.7v701.9"/></svg>