<svg xmlns="http://www.w3.org/2000/svg" xmlns:xlink="http://www.w3.org/1999/xlink" viewBox="0 0 1360 696.1"><defs><linearGradient id="e" x1="992.59" y1="476.68" x2="1154.4" y2="476.68" gradientUnits="userSpaceOnUse"><stop offset="0" stop-color="#254f73"/><stop offset="1" stop-color="#28568b"/></linearGradient><linearGradient id="a" x1="1090.91" y1="476.05" x2="1101.88" y2="476.05" gradientUnits="userSpaceOnUse"><stop offset="0" stop-color="#1e90ce"/><stop offset=".14" stop-color="#1d99d8"/><stop offset=".59" stop-color="#1cb1f4"/><stop offset=".84" stop-color="#1bbaff"/></linearGradient><linearGradient id="b" x1="1140.98" y1="477.08" x2="1147.82" y2="477.08" gradientUnits="userSpaceOnUse"><stop offset="0" stop-color="#1b6d9a" stop-opacity=".95"/><stop offset="1" stop-color="#1a7ec0"/></linearGradient><linearGradient id="j" x1="1069.16" y1="480.5" x2="1076" y2="480.5" xlink:href="#a"/><linearGradient id="k" x1="1115.95" y1="481.53" x2="1126.91" y2="481.53" xlink:href="#a"/><linearGradient id="l" x1="622.67" y1="477.22" x2="1056.97" y2="477.22" xlink:href="#b"/><linearGradient id="c" x1="1066.2" y1="538.68" x2="1082.22" y2="538.68" gradientUnits="userSpaceOnUse"><stop offset=".19" stop-color="#fff" stop-opacity=".25"/><stop offset=".27" stop-color="#fff" stop-opacity=".31"/><stop offset=".4" stop-color="#fff" stop-opacity=".4"/><stop offset=".55" stop-color="#fff" stop-opacity=".46"/><stop offset=".73" stop-color="#fff" stop-opacity=".49"/><stop offset="1" stop-color="#fff" stop-opacity=".5"/></linearGradient><linearGradient id="m" x1="1091.66" y1="442.02" x2="1106.2" y2="442.02" xlink:href="#c"/><linearGradient id="d" x1="4051.52" y1="414.53" x2="4063.02" y2="414.53" gradientTransform="matrix(-1 0 0 1 5130.49 0)" gradientUnits="userSpaceOnUse"><stop offset="0" stop-color="#fff" stop-opacity=".75"/><stop offset=".27" stop-color="#fff" stop-opacity=".74"/><stop offset=".45" stop-color="#fff" stop-opacity=".71"/><stop offset=".6" stop-color="#fff" stop-opacity=".65"/><stop offset=".73" stop-color="#fff" stop-opacity=".56"/><stop offset=".81" stop-color="#fff" stop-opacity=".5"/></linearGradient><linearGradient id="n" x1="4022.88" y1="515.12" x2="4034.38" y2="515.12" xlink:href="#d"/><linearGradient id="o" x1="1268.96" y1="478.36" x2="1283.25" y2="478.36" xlink:href="#e"/><linearGradient id="p" x1="1168.45" y1="478.36" x2="1197.62" y2="478.36" xlink:href="#a"/><linearGradient id="q" x1="534.1" y1="-11217.03" x2="580.44" y2="-11217.03" gradientTransform="matrix(-1 .02 .02 1 2011.27 11683.18)" gradientUnits="userSpaceOnUse"><stop offset="0" stop-color="#fff" stop-opacity=".15"/><stop offset="1" stop-color="#fff" stop-opacity=".15"/></linearGradient><linearGradient id="r" x1="1168.69" y1="472.3" x2="1197.38" y2="472.3" gradientUnits="userSpaceOnUse"><stop offset="0" stop-color="#fff" stop-opacity=".15"/><stop offset=".5" stop-color="#fff" stop-opacity=".21"/><stop offset="1" stop-color="#fff" stop-opacity=".25"/></linearGradient><linearGradient id="s" x1="955.42" y1="333.16" x2="955.42" y2="146.31" gradientTransform="matrix(-1 0 0 1 1886.72 0)" gradientUnits="userSpaceOnUse"><stop offset="0" stop-color="#1bbaff" stop-opacity=".7"/><stop offset=".34" stop-color="#1bbaff" stop-opacity=".85"/><stop offset=".66" stop-color="#1bbaff" stop-opacity=".96"/><stop offset=".84" stop-color="#1bbaff"/></linearGradient><linearGradient id="t" x1="4221.02" y1="262.7" x2="4238.5" y2="262.7" gradientTransform="translate(-3243.77)" xlink:href="#c"/><linearGradient id="u" x1="4144.57" y1="185.72" x2="4165.87" y2="185.72" gradientTransform="translate(-3243.77)" xlink:href="#d"/><linearGradient id="v" x1="955.3" y1="325.96" x2="955.3" y2="257.89" gradientTransform="matrix(-1 0 0 1 1886.72 0)" xlink:href="#c"/><linearGradient id="w" x1="4344.27" y1="571.3" x2="4344.27" y2="384.46" gradientTransform="matrix(-1 0 0 1 5141.34 0)" xlink:href="#b"/><linearGradient id="x" x1="8289.23" y1="436.76" x2="8304.94" y2="436.76" gradientTransform="matrix(-1 0 0 1 9149.63 0)" xlink:href="#d"/><linearGradient id="y" x1="-3290.81" y1="511.8" x2="-3278.65" y2="511.8" gradientTransform="translate(4019.15)" xlink:href="#d"/><linearGradient id="z" x1="-3227.09" y1="551.31" x2="-3218.47" y2="551.31" gradientTransform="translate(4019.15)" xlink:href="#d"/><linearGradient id="A" x1="-3227.09" y1="405.92" x2="-3218.47" y2="405.92" gradientTransform="translate(4019.15)" xlink:href="#d"/><linearGradient id="f" x1="-3913.7" y1="-8983.63" x2="-3873.96" y2="-8983.63" gradientTransform="rotate(30 -19427.8 4619.47)" gradientUnits="userSpaceOnUse"><stop offset="0" stop-color="#fff" stop-opacity=".15"/><stop offset=".01" stop-color="#fff" stop-opacity=".15"/><stop offset=".64" stop-color="#fff" stop-opacity=".04"/><stop offset="1" stop-color="#fff" stop-opacity="0"/></linearGradient><linearGradient id="B" x1="-3913.7" y1="-9060.67" x2="-3869.41" y2="-9060.67" xlink:href="#f"/><linearGradient id="C" x1="-3920.69" y1="-9022.26" x2="-3913.7" y2="-9022.26" gradientTransform="rotate(90 -6308.16 -1904.69)" gradientUnits="userSpaceOnUse"><stop offset=".21" stop-color="#275e80" stop-opacity=".15"/><stop offset="1" stop-color="#275e80" stop-opacity="0"/></linearGradient><linearGradient id="D" x1="4329.71" y1="447.06" x2="4476.71" y2="447.06" gradientTransform="matrix(-1 0 0 1 5141.34 0)" xlink:href="#a"/><linearGradient id="E" x1="-3290.39" y1="442.38" x2="-3270.29" y2="411.42" gradientTransform="translate(4019.15)" gradientUnits="userSpaceOnUse"><stop offset="0" stop-color="#275e80" stop-opacity=".1"/><stop offset=".44" stop-color="#275e80" stop-opacity=".08"/><stop offset=".73" stop-color="#275e80" stop-opacity=".01"/><stop offset=".76" stop-color="#275e80" stop-opacity="0"/></linearGradient><linearGradient id="F" x1="6633.54" y1="-832.04" x2="6680.76" y2="-832.04" gradientTransform="rotate(165 3785.98 273.12)" gradientUnits="userSpaceOnUse"><stop offset=".19" stop-color="#fff" stop-opacity="0"/><stop offset=".61" stop-color="#fff" stop-opacity=".09"/><stop offset="1" stop-color="#fff" stop-opacity=".15"/></linearGradient><linearGradient id="g" x1="4333" y1="505.4" x2="4397.1" y2="505.4" gradientTransform="matrix(-1 0 0 1 5141.34 0)" gradientUnits="userSpaceOnUse"><stop offset="0" stop-color="#254f73"/><stop offset="1" stop-color="#28568b"/></linearGradient><linearGradient id="G" x1="4294.56" y1="443.73" x2="4368.4" y2="443.73" xlink:href="#g"/><linearGradient id="H" x1="-3253.08" y1="474.95" x2="-3197.71" y2="474.95" gradientTransform="translate(4019.15)" xlink:href="#d"/><linearGradient id="I" x1="-3317.66" y1="426.73" x2="-3300.14" y2="426.73" gradientTransform="translate(4019.15)" xlink:href="#d"/><linearGradient id="J" x1="-3253.08" y1="472.77" x2="-3197.71" y2="472.77" gradientTransform="translate(4019.15)" xlink:href="#d"/><linearGradient id="h" x1="4294.56" y1="444.04" x2="4345.26" y2="444.04" gradientTransform="matrix(-1 0 0 1 5141.34 0)" gradientUnits="userSpaceOnUse"><stop offset="0" stop-color="#254f73" stop-opacity=".5"/><stop offset="1" stop-color="#28568b"/></linearGradient><linearGradient id="K" x1="4391.13" y1="516.36" x2="4333" y2="516.36" xlink:href="#h"/><linearGradient id="L" x1="1217.23" y1="473.81" x2="1247.95" y2="473.81" xlink:href="#b"/><linearGradient id="M" x1="1220.16" y1="484.7" x2="1249.12" y2="484.7" xlink:href="#b"/><linearGradient id="N" x1="1211.46" y1="477.31" x2="1253.97" y2="477.31" gradientUnits="userSpaceOnUse"><stop offset="0" stop-color="#217dd4"/><stop offset=".25" stop-color="#1f93e4"/><stop offset=".63" stop-color="#1caff8"/><stop offset=".84" stop-color="#1bbaff"/></linearGradient><linearGradient id="O" x1="1300.65" y1="476.05" x2="1311.61" y2="476.05" xlink:href="#a"/><linearGradient id="P" x1="5040.91" y1="501.19" x2="5120.42" y2="501.19" gradientTransform="rotate(19 3962.32 -11714.94)" gradientUnits="userSpaceOnUse"><stop offset=".19" stop-color="#fff" stop-opacity="0"/><stop offset=".72" stop-color="#fff" stop-opacity=".18"/><stop offset="1" stop-color="#fff" stop-opacity=".25"/></linearGradient><linearGradient id="Q" x1="847.6" y1="171.77" x2="879.28" y2="171.77" gradientTransform="rotate(-152 988.73 -20.98)" xlink:href="#b"/><linearGradient id="i" x1="6690.69" y1="1655.03" x2="6705.23" y2="1655.03" gradientTransform="translate(-5763.7 -1436.33)" gradientUnits="userSpaceOnUse"><stop offset=".19" stop-color="#275e80" stop-opacity="0"/><stop offset=".32" stop-color="#275e80" stop-opacity=".06"/><stop offset=".59" stop-color="#275e80" stop-opacity=".13"/><stop offset="1" stop-color="#275e80" stop-opacity=".15"/></linearGradient><linearGradient id="R" x1="6626.53" y1="1655.03" x2="6637.71" y2="1655.03" gradientTransform="translate(-5756.15 -1404.8)" xlink:href="#i"/></defs><g style="isolation:isolate"><path fill="#fff" d="M0 0h1360v696.1H0z"/><path fill="url(#e)" d="M992.59 429.97l80.9-46.71 80.91 46.71v93.42l-80.91 46.71-80.9-46.71v-93.42"/><g opacity=".7"><circle cx="1096.39" cy="478.79" r="5.48" fill="#1bbaff"/><path d="M1096.39 473.31a5.48 5.48 0 0 0-5.48 5.48h11a5.48 5.48 0 0 0-5.52-5.48z" fill="url(#a)"/></g><circle cx="1144.4" cy="478.79" r="3.42" fill="#1b80be"/><path d="M1144.4 475.37a3.42 3.42 0 0 0-3.42 3.42h6.84a3.42 3.42 0 0 0-3.42-3.42z" fill="url(#b)"/><circle cx="1072.58" cy="478.79" r="3.42" fill="#1bbaff"/><path d="M1072.58 482.21a3.42 3.42 0 0 0 3.42-3.42h-6.84a3.42 3.42 0 0 0 3.42 3.42z" fill="url(#j)"/><circle cx="1121.43" cy="478.79" r="5.48" fill="#1bbaff"/><path d="M1121.43 484.27a5.48 5.48 0 0 0 5.48-5.48h-11a5.48 5.48 0 0 0 5.52 5.48z" fill="url(#k)"/><path d="M1030.94 407.83L992.59 430v93.42l40.24 23.23a108.56 108.56 0 0 0-1.89-138.79z" fill="url(#l)"/><path d="M1074.52 530.67h-.63a9.57 9.57 0 0 1-7.7 7.7v.63a9.56 9.56 0 0 1 7.7 7.7h.63a9.55 9.55 0 0 1 7.7-7.7v-.62a9.56 9.56 0 0 1-7.7-7.71z" opacity=".6" fill="url(#c)"/><path d="M1099.22 434.75h-.57a8.68 8.68 0 0 1-7 7v.56a8.68 8.68 0 0 1 7 7h.57a8.67 8.67 0 0 1 7-7v-.56a8.67 8.67 0 0 1-7-7z" opacity=".6" fill="url(#m)"/><path d="M1073.44 408.78h-.44a6.87 6.87 0 0 1-5.53 5.53v.44a6.86 6.86 0 0 1 5.53 5.53h.45a6.85 6.85 0 0 1 5.52-5.53v-.44a6.86 6.86 0 0 1-5.53-5.53z" fill="url(#d)"/><path d="M1102.08 509.37h-.45a6.87 6.87 0 0 1-5.53 5.53v.44a6.87 6.87 0 0 1 5.53 5.53h.45a6.86 6.86 0 0 1 5.52-5.53v-.44a6.87 6.87 0 0 1-5.52-5.53z" fill="url(#n)"/><circle cx="1276.11" cy="478.36" r="7.14" fill="url(#o)"/><circle cx="1183.04" cy="478.36" r="14.59" fill="url(#p)"/><path d="M1171.85 487.72h22.37a14.51 14.51 0 0 0 3.18-6.9h-28.73a14.51 14.51 0 0 0 3.18 6.9z" fill="url(#q)"/><path d="M1172 468.85a14.51 14.51 0 0 0-3.3 6.9h28.68a14.51 14.51 0 0 0-3.3-6.91z" fill="url(#r)"/><path fill="url(#s)" d="M850.4 193.02l80.9-46.71 80.91 46.72v93.41l-80.91 46.72-80.9-46.72v-93.42"/><path d="M985.65 254h.68a10.44 10.44 0 0 0 8.4 8.4v.6a10.43 10.43 0 0 0-8.4 8.4h-.68a10.42 10.42 0 0 0-8.39-8.4v-.67a10.43 10.43 0 0 0 8.39-8.33z" fill="url(#t)"/><path d="M911 175.07h.83a12.72 12.72 0 0 0 10.24 10.24v.82a12.71 12.71 0 0 0-10.24 10.24H911a12.7 12.7 0 0 0-10.23-10.24v-.82A12.7 12.7 0 0 0 911 175.07z" fill="url(#u)"/><path opacity=".6" fill="url(#v)" d="M927.45 257.89v65.77l3.98 2.3 3.97-2.3v-65.77h-7.95"/><path d="M927.81 253.19a11.88 11.88 0 0 0 7.58.21l3-.93 33.16 57.44-6.89 4-30.13-52.19a19.9 19.9 0 0 1-6.19-.14L898.1 314l-6.89-4 33.47-58z" fill="#254f73"/><path fill="url(#w)" d="M877.97 431.17l-80.9-46.71-80.91 46.71v93.42l80.91 46.71 80.9-46.71v-93.42"/><path d="M852.86 428.91h-.61a9.38 9.38 0 0 1-7.55 7.55v.61a9.37 9.37 0 0 1 7.55 7.55h.61a9.36 9.36 0 0 1 7.54-7.55v-.61a9.37 9.37 0 0 1-7.54-7.55z" opacity=".9" fill="url(#x)"/><path d="M734.66 505.73h-.47a7.26 7.26 0 0 1-5.84 5.84v.43a7.26 7.26 0 0 1 5.84 5.84h.47a7.25 7.25 0 0 1 5.84-5.84v-.47a7.25 7.25 0 0 1-5.84-5.8z" opacity=".75" fill="url(#y)"/><path d="M796.54 547h-.34a5.15 5.15 0 0 1-4.14 4.14v.33a5.14 5.14 0 0 1 4.14 4.14h.34a5.14 5.14 0 0 1 4.14-4.14v-.33a5.14 5.14 0 0 1-4.14-4.14z" opacity=".75" fill="url(#z)"/><path d="M796.54 401.61h-.34a5.15 5.15 0 0 1-4.14 4.14v.33a5.14 5.14 0 0 1 4.14 4.14h.34a5.14 5.14 0 0 1 4.14-4.14v-.33a5.14 5.14 0 0 1-4.14-4.14z" opacity=".75" fill="url(#A)"/><path fill="url(#f)" d="M824.68 543.97l-34.56-19.62 6.23-10.89 34.56 19.61-6.23 10.9"/><path fill="url(#B)" d="M866.71 479.67l-38.16-22.49 6.23-10.88 38.16 22.47-6.23 10.9"/><path transform="rotate(-60 809.4 483.59)" fill="url(#C)" d="M804.38 480.09h10.08v6.99h-10.08z"/><path d="M811.63 452.19l-91.32-52.25a54.65 54.65 0 0 0-55.67.81 54.65 54.65 0 0 0 27.51 48.4l91.32 52.25z" fill="url(#D)"/><path d="M720.31 399.94a54.65 54.65 0 0 0-55.67.81l132.91 76 14.08-24.61z" fill="url(#E)"/><path fill="url(#F)" d="M856.16 504.52l-5 8.75-49.23-28.16-1.14-6.46 6.15-2.29 49.22 28.16"/><path fill="url(#g)" d="M744.25 479.58l5.96 21.93 51.91 29.71 6.22-10.86-25.91-31.13-38.18-9.65"/><path fill="url(#G)" d="M772.94 429.43l21.93-5.97 51.91 29.71-6.2 10.84-39.97-6.55-27.67-28.03"/><path fill="#1b80be" d="M821.44 484.65l-5.01 8.75-49.22-28.16-1.15-6.46 6.15-2.29 49.23 28.16"/><path fill="url(#H)" d="M821.44 484.65l-5.01 8.75-49.22-28.16-1.15-6.46 6.15-2.29 49.23 28.16"/><path d="M720.35 416.93a14.08 14.08 0 1 1-19.9-.3 14.08 14.08 0 0 1 19.9.3z" fill="#1b80be"/><path d="M716.53 420.64a8.75 8.75 0 1 1-12.38-.19 8.75 8.75 0 0 1 12.38.19z" fill="url(#I)"/><path opacity=".5" fill="url(#J)" d="M766.06 458.78l6.15-2.29 49.23 28.16-2.52 4.4-52.85-30.24-.01-.03"/><path style="mix-blend-mode:multiply" opacity=".25" fill="url(#h)" d="M846.78 453.17l-6.16 10.77-44.54-39.8 50.7 29.03"/><path style="mix-blend-mode:multiply" opacity=".25" fill="url(#K)" d="M808.34 520.36l-6.22 10.86-51.91-29.71 58.13 18.85"/><path d="M1217.67 474.67a16 16 0 0 0-.43 3.51 15.87 15.87 0 0 0 1.33 6.57c.07.15.15.29.22.44a56.22 56.22 0 0 0 29.21-12.76c-.06-.15-.11-.31-.18-.46a15.86 15.86 0 0 0-3.93-5.43 17.35 17.35 0 0 0-1.36-1.11c-.41-.3-.84-.57-1.27-.82a15.91 15.91 0 0 0-23.49 10.09z" fill="url(#L)"/><path d="M1235.28 483.19a55.19 55.19 0 0 1-15.12 4.41 16 16 0 0 0 28.61-12.53 55.18 55.18 0 0 1-13.49 8.12z" fill="url(#M)"/><path d="M1242.89 465.75a16 16 0 0 1 2.35 2.22c3.47-.33 5.71.15 6.15 1.16.92 2.09-5 8.31-16.44 13.31s-20 5.15-20.93 3.06c-.44-1 .73-3 3.33-5.31a16.15 16.15 0 0 1 0-3.23c-4.26 3.33-6.75 6.8-5.55 9.54 2.13 4.85 13.78 2.77 24.19-1.78s19.84-11.71 17.72-16.57c-1.24-2.75-5.48-3.28-10.82-2.4z" fill="url(#N)"/><circle cx="1306.13" cy="478.79" r="5.48" fill="#1bbaff"/><path d="M1306.13 473.31a5.48 5.48 0 0 0-5.48 5.48h11a5.48 5.48 0 0 0-5.52-5.48z" fill="url(#O)"/><path fill="#275e80" d="M929.728 195.953l78.83-41.914 21.196 39.864-78.83 41.914z"/><path transform="rotate(-28 978.37 183.38)" fill="url(#P)" d="M937.32 180.12h81.97v6.51h-81.97z"/><path fill="#254f73" d="M872.273 231.76l59.626-31.705 16.87 31.733-59.624 31.704z"/><path transform="rotate(-28 1023.25 171.78)" fill="url(#Q)" d="M1018.61 146.82h9.34v49.91h-9.34z"/><path transform="rotate(-28 933.84 219.29)" fill="url(#i)" d="M926.63 201.33h14.54v35.94h-14.54z"/><path fill="#275e80" d="M850.4 248.06l23.82-12.66 12.96 24.38-36.78 19.56v-31.28"/><path transform="rotate(-28 875.86 250.22)" fill="url(#R)" d="M870.18 236.4h11.18v27.62h-11.18z"/><path d="M1021.31 158.11l12.2 22.95a15.57 15.57 0 0 0-12.2-22.95z" fill="#cfd8dc" opacity=".75"/><path fill="#19191c" opacity=".2" d="M874.22 235.4l-1.95-3.68 59.62-31.7-2.16-4.07 78.83-41.92-1.12-2.1 8.25-4.38 11.48 21.58-8.24 4.4h-.01l-78.74 42.08-59.56 31.82-30.22 16.15v-15.52l23.82-12.66"/><path d="M931.89 253.92a12 12 0 1 1 12-12 12 12 0 0 1-12 12z" fill="#77c7eb"/><path d="M931.89 234a8 8 0 1 1-8 8 8 8 0 0 1 8-8m0-8a15.93 15.93 0 1 0 15.93 16 15.93 15.93 0 0 0-15.93-16z" fill="#254f73"/></g></svg>