<svg xmlns="http://www.w3.org/2000/svg" viewBox="0 0 1360 695"><path fill="none" d="M0 0h1360v695H0z"/><path d="M1194.81 148h-20.59l-14.72-14.72-14.72 14.72H902.19c-2.61 0-4.19 1.91-4.19 4.52v113.27c0 2.61 1.59 5.21 4.19 5.21h292.61c2.61 0 4.19-2.6 4.19-5.21V152.52c.01-2.61-1.58-4.52-4.18-4.52z" fill="#131923" opacity=".9"/><rect x="914.5" y="169.5" width="56" height="33" rx="5" ry="5" fill="none" stroke="#fff" stroke-miterlimit="10"/><rect x="1005.5" y="169.5" width="56" height="33" rx="5" ry="5" fill="none" stroke="#fff" stroke-miterlimit="10"/><path d="M932.88 181.35a3 3 0 0 1 .91 2.29 3.22 3.22 0 0 1-.65 2l-3.73 4.84h-.91l2.88-3.77a3.92 3.92 0 0 1-.82.09 3.19 3.19 0 0 1-2.3-.87 3.08 3.08 0 0 1-.91-2.31 3 3 0 0 1 .91-2.29 3.53 3.53 0 0 1 4.61 0zm-.38 3.92a2.5 2.5 0 0 0 .5-1.61 2.33 2.33 0 0 0-2.43-2.47 2.55 2.55 0 0 0-1.74 4.27 2.45 2.45 0 0 0 1.74.66 2.32 2.32 0 0 0 1.93-.84zM947.84 190.5H947l-1.16-2.87H941l-1.18 2.87H939l4.08-9.88h.67zm-6.53-3.5h4.22l-2.1-5.15zM960.34 190.5h-.78v-8.09l-4.16 8h-.52l-4.19-8v8.09h-.78v-9.88h.66l4.56 8.69 4.55-8.69h.66zM986.56 189.82v.67a4.83 4.83 0 0 1-.85.07c-1.16 0-1.86-.65-1.86-2v-4.08h-1.25v-.65h1.27v-2.37h.75v2.37h1.92v.65h-1.92v4c0 1 .42 1.48 1.27 1.48a5.85 5.85 0 0 0 .67-.14zM991.49 183.69a3.28 3.28 0 0 1 3.38 3.46 3.44 3.44 0 0 1-5.8 2.52 3.42 3.42 0 0 1-1-2.52 3.37 3.37 0 0 1 1-2.51 3.32 3.32 0 0 1 2.42-.95zm-1.89 1.41a2.82 2.82 0 0 0-.74 2 2.88 2.88 0 0 0 .74 2.06 2.57 2.57 0 0 0 1.89.75 2.52 2.52 0 0 0 1.88-.75 2.83 2.83 0 0 0 .75-2.06 2.78 2.78 0 0 0-.75-2 2.73 2.73 0 0 0-3.77 0zM1023.54 185.17a3 3 0 0 1 .91 2.3 3 3 0 0 1-.91 2.29 3.52 3.52 0 0 1-4.61 0 3 3 0 0 1-.91-2.29 3.22 3.22 0 0 1 .65-2l3.73-4.84h.91l-2.88 3.77a3.87 3.87 0 0 1 .82-.09 3.15 3.15 0 0 1 2.29.86zm-.57 4.07a2.38 2.38 0 0 0 .69-1.8 2.48 2.48 0 0 0-4.35-1.61 2.5 2.5 0 0 0-.5 1.61 2.32 2.32 0 0 0 2.43 2.47 2.35 2.35 0 0 0 1.76-.67zM1030.66 180.61h3.66a3 3 0 0 1 2.11.75 2.67 2.67 0 0 1 .85 2.14 2.71 2.71 0 0 1-.85 2.15 3.08 3.08 0 0 1-2.11.74h-2.88v4.1h-.78zm.78.69v4.41h2.79a2.21 2.21 0 1 0 0-4.41zM1050.07 190.5h-.78v-8.09l-4.16 8h-.52l-4.19-8v8.09h-.78v-9.88h.66l4.56 8.69 4.55-8.69h.66z" fill="#fff"/><rect x="953.5" y="217.5" width="34" height="34" rx="5" ry="5" fill="#2daabb" stroke="#2daabb" stroke-miterlimit="10"/><rect x="992.5" y="217.5" width="34" height="34" rx="5" ry="5" fill="#2daabb" stroke="#2daabb" stroke-miterlimit="10"/><rect x="1030.5" y="217.5" width="34" height="34" rx="5" ry="5" fill="#2daabb" stroke="#2daabb" stroke-miterlimit="10"/><rect x="1069.5" y="217.5" width="34" height="34" rx="5" ry="5" fill="#2daabb" stroke="#2daabb" stroke-miterlimit="10"/><rect x="1107.5" y="217.5" width="34" height="34" rx="5" ry="5" fill="#2daabb" stroke="#2daabb" stroke-miterlimit="10"/><path d="M926.82 231.54a1.83 1.83 0 0 1 .71 1.44l-.88.06a1.36 1.36 0 0 0-1.54-1.27c-1 0-1.53.5-1.53 1.22a.88.88 0 0 0 .39.81 4.88 4.88 0 0 0 1.33.44 5.11 5.11 0 0 1 1.78.66 1.42 1.42 0 0 1 .66 1.32 1.78 1.78 0 0 1-.71 1.53 3 3 0 0 1-1.8.51 3.09 3.09 0 0 1-1.89-.55 1.88 1.88 0 0 1-.79-1.51h.87a1.28 1.28 0 0 0 .56 1 2.08 2.08 0 0 0 1.26.37c1 0 1.63-.4 1.63-1.22a.94.94 0 0 0-.31-.74 1.2 1.2 0 0 0-.41-.24 3.58 3.58 0 0 0-.5-.17l-.65-.2a9.33 9.33 0 0 1-.91-.25 4.32 4.32 0 0 1-.7-.34 1.49 1.49 0 0 1-.68-1.38 1.86 1.86 0 0 1 .61-1.43 2.51 2.51 0 0 1 1.78-.58 2.71 2.71 0 0 1 1.72.52zM933.44 238.17h-.77v-.72a1.51 1.51 0 0 1-1.45.81 1.66 1.66 0 0 1-1.29-.53 2.08 2.08 0 0 1-.47-1.41v-3h.81v2.86c0 .79.42 1.28 1.13 1.28a1.23 1.23 0 0 0 1.22-1.33v-2.82h.81zM939.17 233.81a2 2 0 0 1 .53 1.44v2.93h-.82v-2.82a1.21 1.21 0 0 0-1.22-1.32 1.24 1.24 0 0 0-.93.39 1.35 1.35 0 0 0-.36.94v2.81h-.81v-4.82h.78v.72a1.65 1.65 0 0 1 1.5-.8 1.79 1.79 0 0 1 1.33.53zM968.19 238.17h-.86v-5.11l-2.62 5.06h-.58l-2.64-5.06v5.11h-.87v-7.07h.76l3 5.76 3-5.76h.75zM972.48 233.27a2.39 2.39 0 0 1 2.47 2.49 2.43 2.43 0 0 1-.71 1.81 2.4 2.4 0 0 1-1.77.69 2.5 2.5 0 1 1 0-5zm0 .71a1.59 1.59 0 0 0-1.19.48 1.79 1.79 0 0 0-.46 1.3 1.83 1.83 0 0 0 .46 1.31 1.59 1.59 0 0 0 1.19.48 1.57 1.57 0 0 0 1.18-.48 1.83 1.83 0 0 0 .47-1.31 1.8 1.8 0 0 0-.47-1.3 1.57 1.57 0 0 0-1.18-.46zM980.37 233.81a2 2 0 0 1 .53 1.44v2.93h-.82v-2.82a1.21 1.21 0 0 0-1.22-1.32 1.24 1.24 0 0 0-.93.39 1.35 1.35 0 0 0-.36.94v2.81h-.81v-4.82h.78v.72a1.65 1.65 0 0 1 1.5-.8 1.79 1.79 0 0 1 1.33.53zM1003.81 231.87h-2.63v6.3h-.87v-6.3h-2.63v-.77h6.12zM1008.2 238.17h-.77v-.72a1.51 1.51 0 0 1-1.45.81 1.66 1.66 0 0 1-1.29-.53 2.08 2.08 0 0 1-.47-1.41v-3h.81v2.86c0 .79.42 1.28 1.13 1.28a1.23 1.23 0 0 0 1.22-1.33v-2.82h.81zM1014.57 236.07h-3.72a1.45 1.45 0 0 0 1.51 1.48 1.28 1.28 0 0 0 1.35-.86h.81a1.88 1.88 0 0 1-.74 1.09 2.55 2.55 0 0 1-3.14-.25 2.51 2.51 0 0 1-.66-1.83 2.47 2.47 0 0 1 .66-1.82 2.31 2.31 0 0 1 1.71-.67 2.08 2.08 0 0 1 1.62.64 2.42 2.42 0 0 1 .59 1.72zm-3.72-.66h2.91a1.33 1.33 0 0 0-1.41-1.44 1.4 1.4 0 0 0-1.5 1.44zM1019.61 234.72h-.81a.84.84 0 0 0-1-.79c-.59 0-.92.25-.92.7a.48.48 0 0 0 .25.45 1.78 1.78 0 0 0 .29.11h.18l.42.09c1.14.27 1.67.59 1.67 1.39 0 .94-.7 1.49-1.82 1.49a1.7 1.7 0 0 1-1.91-1.46l.81-.06c.08.54.44.81 1.12.81s1-.25 1-.72a.52.52 0 0 0-.25-.49 3.53 3.53 0 0 0-.94-.32l-.54-.13-.43-.16a1 1 0 0 1-.66-1c0-.86.66-1.42 1.77-1.41a1.61 1.61 0 0 1 1.77 1.5zM1045.08 238.17h-.73l-1.9-5.48-1.89 5.48h-.73l-2.47-7.07h.94l1.92 5.54 1.89-5.54h.71l1.9 5.54 1.91-5.54h.93zM1052.53 236.07h-3.72a1.45 1.45 0 0 0 1.51 1.48 1.28 1.28 0 0 0 1.35-.86h.81a1.88 1.88 0 0 1-.74 1.09 2.55 2.55 0 0 1-3.14-.25 2.51 2.51 0 0 1-.66-1.83 2.47 2.47 0 0 1 .66-1.82 2.31 2.31 0 0 1 1.71-.67 2.08 2.08 0 0 1 1.62.64 2.42 2.42 0 0 1 .59 1.72zm-3.72-.66h2.91a1.33 1.33 0 0 0-1.41-1.44 1.4 1.4 0 0 0-1.5 1.44zM1058.8 238.17h-.8v-.78a1.9 1.9 0 0 1-1.71.88 2.27 2.27 0 0 1-1.67-.67 2.88 2.88 0 0 1 0-3.65 2.24 2.24 0 0 1 1.67-.68 1.85 1.85 0 0 1 1.66.81v-3.25h.81zm-4-2.41a1.6 1.6 0 0 0 1.62 1.79 1.49 1.49 0 0 0 1.55-1.65v-.28a1.48 1.48 0 0 0-1.55-1.64 1.6 1.6 0 0 0-1.59 1.78zM1082.16 231.87h-2.63v6.3h-.87v-6.3H1076v-.77h6.12zM1084.42 230.83V234a1.66 1.66 0 0 1 1.46-.75 1.79 1.79 0 0 1 1.34.54 2 2 0 0 1 .53 1.44v2.93h-.82v-2.82a1.21 1.21 0 0 0-1.22-1.32 1.24 1.24 0 0 0-.93.39 1.35 1.35 0 0 0-.36.94v2.81h-.81v-7.34zM1093.71 238.17h-.77v-.72a1.51 1.51 0 0 1-1.45.81 1.66 1.66 0 0 1-1.29-.53 2.08 2.08 0 0 1-.47-1.41v-3h.81v2.86c0 .79.42 1.28 1.13 1.28a1.23 1.23 0 0 0 1.22-1.33v-2.82h.81zM1098 234.08a1.31 1.31 0 0 0-1.4 1.32v2.77h-.81v-4.82h.79v.73a1.43 1.43 0 0 1 1.42-.78zM1124.52 231.87H1121v2.31h2.92v.77H1121v3.22h-.87v-7.07h4.37zM1128.24 234.08a1.31 1.31 0 0 0-1.4 1.32v2.77h-.84v-4.82h.79v.73a1.43 1.43 0 0 1 1.42-.78zM1130.12 232.14a.53.53 0 0 1-.54-.53.54.54 0 1 1 .54.53zm.4 6h-.81v-4.82h.81zM1160.91 231.54a1.83 1.83 0 0 1 .71 1.44l-.88.06a1.36 1.36 0 0 0-1.54-1.27c-1 0-1.53.5-1.53 1.22a.88.88 0 0 0 .39.81 4.88 4.88 0 0 0 1.33.44 5.11 5.11 0 0 1 1.78.66 1.42 1.42 0 0 1 .66 1.32 1.78 1.78 0 0 1-.71 1.53 3 3 0 0 1-1.8.51 3.09 3.09 0 0 1-1.89-.55 1.88 1.88 0 0 1-.79-1.51h.87a1.28 1.28 0 0 0 .56 1 2.08 2.08 0 0 0 1.26.37c1 0 1.63-.4 1.63-1.22a1 1 0 0 0-.31-.74 1.22 1.22 0 0 0-.41-.24 3.58 3.58 0 0 0-.5-.17l-.65-.17a9.33 9.33 0 0 1-.91-.25 4.32 4.32 0 0 1-.7-.34 1.49 1.49 0 0 1-.68-1.38 1.86 1.86 0 0 1 .61-1.43 2.51 2.51 0 0 1 1.78-.58 2.71 2.71 0 0 1 1.72.49zM1167.25 235.14v3h-.82v-.57a1.78 1.78 0 0 1-1.44.66c-1 0-1.58-.51-1.58-1.37s.58-1.37 1.77-1.44l1.25-.08v-.23c0-.78-.34-1.17-1-1.17a1 1 0 0 0-1 1h-.82a1.6 1.6 0 0 1 .51-1.17 1.83 1.83 0 0 1 1.35-.51 1.68 1.68 0 0 1 1.78 1.88zm-.81.9l-1.15.08q-1 .07-1 .76c0 .46.29.69.88.69a1.2 1.2 0 0 0 1.32-1.33zM1171.65 237.45v.73a3.87 3.87 0 0 1-.65.06 1.34 1.34 0 0 1-1.48-1.51v-2.66h-.9v-.71h.9v-1.66h.82v1.66h1.29v.71h-1.29v2.5q0 .93.85.93a3.44 3.44 0 0 0 .46-.05z" fill="#fff"/><rect x="914.5" y="217.5" width="34" height="34" rx="5" ry="5" fill="none" stroke="#fff" stroke-miterlimit="10"/><rect x="1146.5" y="217.5" width="34" height="34" rx="5" ry="5" fill="none" stroke="#fff" stroke-miterlimit="10"/></svg>