<svg xmlns="http://www.w3.org/2000/svg" viewBox="0 0 1360 406.16"><title>icon-check</title><rect x="608" y="123.16" width="138" height="51" rx="2" ry="2" style="fill:none;stroke:#f24938;stroke-linecap:square;stroke-linejoin:round;stroke-width:2px"/><circle cx="624.84" cy="136.23" r="6.24" style="fill:none;stroke:#f24938;stroke-linecap:square;stroke-linejoin:round;stroke-width:2px"/><line x1="637" y1="134.16" x2="687" y2="134.16" style="fill:none;stroke:#f24938;stroke-linecap:square;stroke-linejoin:round;stroke-width:2px"/><line x1="710" y1="134.16" x2="733" y2="134.16" style="fill:none;stroke:#f24938;stroke-linecap:square;stroke-linejoin:round;stroke-width:2px"/><line x1="637" y1="139.16" x2="660" y2="139.16" style="fill:none;stroke:#f24938;stroke-linecap:square;stroke-linejoin:round;stroke-width:2px"/><line x1="637" y1="153.16" x2="657" y2="153.16" style="fill:none;stroke:#f24938;stroke-linecap:square;stroke-linejoin:round;stroke-width:2px"/><line x1="637" y1="163.16" x2="657" y2="163.16" style="fill:none;stroke:#f24938;stroke-linecap:square;stroke-linejoin:round;stroke-width:2px"/><line x1="637" y1="158.16" x2="652" y2="158.16" style="fill:none;stroke:#f24938;stroke-linecap:square;stroke-linejoin:round;stroke-width:2px"/><line x1="674" y1="153.16" x2="694" y2="153.16" style="fill:none;stroke:#f24938;stroke-linecap:square;stroke-linejoin:round;stroke-width:2px"/><line x1="674" y1="163.16" x2="694" y2="163.16" style="fill:none;stroke:#f24938;stroke-linecap:square;stroke-linejoin:round;stroke-width:2px"/><line x1="674" y1="158.16" x2="688" y2="158.16" style="fill:none;stroke:#f24938;stroke-linecap:square;stroke-linejoin:round;stroke-width:2px"/><line x1="710" y1="153.16" x2="731" y2="153.16" style="fill:none;stroke:#f24938;stroke-linecap:square;stroke-linejoin:round;stroke-width:2px"/><line x1="710" y1="163.16" x2="731" y2="163.16" style="fill:none;stroke:#f24938;stroke-linecap:square;stroke-linejoin:round;stroke-width:2px"/><line x1="710" y1="158.16" x2="725" y2="158.16" style="fill:none;stroke:#f24938;stroke-linecap:square;stroke-linejoin:round;stroke-width:2px"/><rect x="608" y="229.16" width="138" height="51" rx="2" ry="2" style="fill:none;stroke:#f24938;stroke-linecap:square;stroke-linejoin:round;stroke-width:2px"/><circle cx="624.84" cy="242.25" r="6.24" style="fill:none;stroke:#f24938;stroke-linecap:square;stroke-linejoin:round;stroke-width:2px"/><line x1="637" y1="240.16" x2="687" y2="240.16" style="fill:none;stroke:#f24938;stroke-linecap:square;stroke-linejoin:round;stroke-width:2px"/><line x1="710" y1="240.16" x2="733" y2="240.16" style="fill:none;stroke:#f24938;stroke-linecap:square;stroke-linejoin:round;stroke-width:2px"/><line x1="637" y1="245.16" x2="660" y2="245.16" style="fill:none;stroke:#f24938;stroke-linecap:square;stroke-linejoin:round;stroke-width:2px"/><line x1="637" y1="259.16" x2="657" y2="259.16" style="fill:none;stroke:#f24938;stroke-linecap:square;stroke-linejoin:round;stroke-width:2px"/><line x1="637" y1="264.16" x2="652" y2="264.16" style="fill:none;stroke:#f24938;stroke-linecap:square;stroke-linejoin:round;stroke-width:2px"/><line x1="674" y1="259.16" x2="694" y2="259.16" style="fill:none;stroke:#f24938;stroke-linecap:square;stroke-linejoin:round;stroke-width:2px"/><rect x="603" y="160.16" width="149" height="83" style="fill:#fff"/><line x1="674" y1="264.16" x2="688" y2="264.16" style="fill:none;stroke:#f24938;stroke-linecap:square;stroke-linejoin:round;stroke-width:2px"/><line x1="710" y1="259.16" x2="731" y2="259.16" style="fill:none;stroke:#f24938;stroke-linecap:square;stroke-linejoin:round;stroke-width:2px"/><line x1="710" y1="264.16" x2="725" y2="264.16" style="fill:none;stroke:#f24938;stroke-linecap:square;stroke-linejoin:round;stroke-width:2px"/><rect x="586" y="168.16" width="181" height="67" rx="2" ry="2" style="fill:#fff;stroke:#f24938;stroke-linecap:square;stroke-linejoin:round;stroke-width:2px"/><circle cx="605.56" cy="186.71" r="10.04" style="fill:none;stroke:#f24938;stroke-linecap:square;stroke-linejoin:round;stroke-width:2px"/><line x1="625" y1="183.16" x2="691" y2="183.16" style="fill:none;stroke:#f24938;stroke-linecap:square;stroke-linejoin:round;stroke-width:2px"/><line x1="733" y1="183.16" x2="750" y2="183.16" style="fill:none;stroke:#f24938;stroke-linecap:square;stroke-linejoin:round;stroke-width:2px"/><line x1="625" y1="189.16" x2="655" y2="189.16" style="fill:none;stroke:#f24938;stroke-linecap:square;stroke-linejoin:round;stroke-width:2px"/><line x1="625" y1="207.16" x2="651" y2="207.16" style="fill:none;stroke:#f24938;stroke-linecap:square;stroke-linejoin:round;stroke-width:2px"/><line x1="625" y1="221.16" x2="651" y2="221.16" style="fill:none;stroke:#f24938;stroke-linecap:square;stroke-linejoin:round;stroke-width:2px"/><line x1="625" y1="214.16" x2="644" y2="214.16" style="fill:none;stroke:#f24938;stroke-linecap:square;stroke-linejoin:round;stroke-width:2px"/><line x1="673" y1="207.16" x2="699" y2="207.16" style="fill:none;stroke:#f24938;stroke-linecap:square;stroke-linejoin:round;stroke-width:2px"/><line x1="673" y1="221.16" x2="699" y2="221.16" style="fill:none;stroke:#f24938;stroke-linecap:square;stroke-linejoin:round;stroke-width:2px"/><line x1="673" y1="214.16" x2="692" y2="214.16" style="fill:none;stroke:#f24938;stroke-linecap:square;stroke-linejoin:round;stroke-width:2px"/><line x1="721" y1="207.16" x2="747" y2="207.16" style="fill:none;stroke:#f24938;stroke-linecap:square;stroke-linejoin:round;stroke-width:2px"/><line x1="721" y1="221.16" x2="747" y2="221.16" style="fill:none;stroke:#f24938;stroke-linecap:square;stroke-linejoin:round;stroke-width:2px"/><line x1="721" y1="214.16" x2="740" y2="214.16" style="fill:none;stroke:#f24938;stroke-linecap:square;stroke-linejoin:round;stroke-width:2px"/><path d="M601.67,188.83a4.1,4.1,0,0,0,7.78,0" style="fill:none;stroke:#f24938;stroke-linecap:round;stroke-linejoin:round;stroke-width:2px"/><line x1="603" y1="184.16" x2="603" y2="185.16" style="fill:none;stroke:#f24938;stroke-linecap:round;stroke-linejoin:round;stroke-width:2px"/><line x1="608" y1="184.16" x2="608" y2="185.16" style="fill:none;stroke:#f24938;stroke-linecap:round;stroke-linejoin:round;stroke-width:2px"/><polyline points="598.72 214.58 602.64 218.5 613.94 207.2" style="fill:none;stroke:#f24938;stroke-linecap:round;stroke-linejoin:round;stroke-width:2px"/><path d="M723.5,190.26v1.4h-1v-1.41a3.52,3.52,0,0,1-2.17-.77,2.5,2.5,0,0,1-.95-1.82l.76-.05a2,2,0,0,0,.85,1.46,3.2,3.2,0,0,0,1.9.54c1.52,0,2.53-.65,2.53-1.92a1.6,1.6,0,0,0-.47-1.16,2.08,2.08,0,0,0-.62-.34,4.93,4.93,0,0,0-.73-.24l-1-.24-1-.25a5.11,5.11,0,0,1-.81-.3,2,2,0,0,1-1.24-2,2.39,2.39,0,0,1,.74-1.79,3,3,0,0,1,2.15-.78v-.91h1v.92a3,3,0,0,1,2.56,2.47l-.85.05a2.15,2.15,0,0,0-2.42-1.87c-1.53,0-2.4.78-2.4,1.89a1.64,1.64,0,0,0,.43,1.16,2.17,2.17,0,0,0,.56.34c.27.1.48.18.67.23l.85.2a7.8,7.8,0,0,1,2.52.91,2,2,0,0,1,1,1.67C726.38,189.3,724.5,190.2,723.5,190.26Z" style="fill:#fff;stroke:#f24938;stroke-linecap:square;stroke-linejoin:round"/><rect width="1360" height="406.16" style="fill:none"/></svg>