<svg xmlns="http://www.w3.org/2000/svg" viewBox="0 0 700 700"><defs><style>.cls-1,.cls-7{fill:#fff;}.cls-2{fill:#90a4ae;}.cls-3,.cls-6{fill:none;}.cls-3,.cls-7{stroke:#fff;stroke-width:6px;}.cls-3,.cls-6,.cls-7{stroke-miterlimit:10;}.cls-4{fill:#2096f3;}.cls-5{fill:#546e7a;}.cls-6{stroke:#eceff1;stroke-width:1.54px;}</style></defs><title>stats</title><g id="Layer_2" data-name="Layer 2"><g id="Layer_1-2" data-name="Layer 1"><rect class="cls-1" width="700" height="350"/><rect class="cls-2" y="350" width="700" height="350"/><path class="cls-1" d="M375.18,512.3h-3.83c-2.16,0-3.91,1.4-3.91,3.12s1.75,3.14,3.91,3.14h3.83c2.16,0,3.91-1.41,3.91-3.14S377.34,512.3,375.18,512.3Zm-62.62,3.12c0-1.72-1.67-3.12-3.82-3.12h-3.92c-2.16,0-3.91,1.4-3.91,3.12s1.75,3.14,3.91,3.14h3.92C310.89,518.56,312.56,517.15,312.56,515.42ZM340,488.06c1.73,0,3.13-1.75,3.13-3.9v-3.91c0-2.18-1.4-3.91-3.13-3.91s-3.13,1.74-3.13,3.91v3.91C336.87,486.31,338.27,488.06,340,488.06Zm0,54.72c-1.73,0-3.13,1.76-3.13,3.92v3.91c0,2.17,1.4,3.91,3.13,3.91s3.13-1.74,3.13-3.91V546.7C343.13,544.54,341.73,542.78,340,542.78Zm28.79-51.72c1.52-1.52,1.77-3.76.56-5s-3.46-1-5,.58l-2.73,2.71c-1.54,1.54-1.77,3.76-.57,5s3.47,1,5-.56C366.48,493.37,368.37,491.49,368.79,491.06Zm-54.84,46-2.74,2.73c-1.52,1.52-1.77,3.76-.55,5s3.45,1,5-.55l2.74-2.73c1.53-1.54,1.76-3.76.56-5S315.47,535.53,313.95,537.06Zm1.69-50.42c-1.52-1.53-3.75-1.79-5-.58s-1,3.46.55,5c.42.43,2.32,2.32,2.74,2.73,1.53,1.54,3.75,1.77,5,.56s1-3.44-.56-5Zm46,54.84c.42.41,2.31,2.31,2.73,2.73,1.53,1.53,3.76,1.78,5,.55s1-3.46-.56-5l-2.74-2.73c-1.51-1.53-3.75-1.78-5-.56S360.1,539.95,361.64,541.49Z"/><path class="cls-1" d="M340,535.92a20.49,20.49,0,1,1,20.5-20.5A20.52,20.52,0,0,1,340,535.92Zm0-35.29a14.79,14.79,0,1,0,14.8,14.79A14.82,14.82,0,0,0,340,500.63Z"/><path class="cls-1" d="M134,510.67c-6.17,7.58-6.15,18.09,1.29,24.72s17.47,4.85,23.65-2.73Z"/><path class="cls-3" d="M170.91,523.83c0-14.28-25.86-42.67-25.86-42.67s-25.86,28.39-25.86,42.67a25.86,25.86,0,1,0,51.72,0Z"/><path class="cls-4" d="M124.21,124.58H124l-9,6.32c-.48.32-.88.16-.88-.48V124.5a1.3,1.3,0,0,1,.56-1.12l9.36-6.8a1.82,1.82,0,0,1,1.28-.48h4.8a.76.76,0,0,1,.8.8v52.8a.76.76,0,0,1-.8.8H125a.76.76,0,0,1-.8-.8Z"/><path class="cls-4" d="M146.08,162.82a.76.76,0,0,1,.8-.8H153a.76.76,0,0,1,.8.8v6.88a.76.76,0,0,1-.8.8h-6.08a.76.76,0,0,1-.8-.8Z"/><path class="cls-4" d="M169.48,141.94v-.16a13.09,13.09,0,0,1-6.4-11.52c0-8.16,5.84-15,15.52-15s15.52,6.88,15.52,15a13.09,13.09,0,0,1-6.4,11.52v.16a14.86,14.86,0,0,1,7.68,13.44c0,9.52-6.88,16-16.8,16s-16.8-6.48-16.8-16A14.86,14.86,0,0,1,169.48,141.94Zm9.12,23.2c6,0,9.92-4.24,9.92-10.08s-3.92-10-9.92-10-9.92,4.24-9.92,10S172.68,165.14,178.6,165.14Zm8.64-35a8.64,8.64,0,1,0-8.64,8.72A8.36,8.36,0,0,0,187.24,130.1Z"/><path class="cls-5" d="M89.29,211.12a.13.13,0,0,1,.14-.14h1.25a.22.22,0,0,1,.24.14L93.54,217h.06l2.58-5.87a.22.22,0,0,1,.24-.14h1.23a.13.13,0,0,1,.14.14v9.25a.13.13,0,0,1-.14.14H96.42a.13.13,0,0,1-.14-.14v-5.83h-.06l-2,4.48a.27.27,0,0,1-.27.18h-.81a.27.27,0,0,1-.27-.18l-2-4.48h-.06v5.83a.13.13,0,0,1-.14.14H89.44a.13.13,0,0,1-.14-.14Z"/><path class="cls-5" d="M102,211.12a.13.13,0,0,1,.14-.14h1.37a.13.13,0,0,1,.14.14v9.25a.13.13,0,0,1-.14.14h-1.37a.13.13,0,0,1-.14-.14Z"/><path class="cls-5" d="M107.83,211.12A.13.13,0,0,1,108,211h1.37a.13.13,0,0,1,.14.14v7.82a.07.07,0,0,0,.08.08h4.37a.13.13,0,0,1,.14.14v1.2a.13.13,0,0,1-.14.14h-6a.13.13,0,0,1-.14-.14Z"/><path class="cls-5" d="M117.56,211.12a.13.13,0,0,1,.14-.14h1.37a.13.13,0,0,1,.14.14v7.82a.07.07,0,0,0,.08.08h4.37a.13.13,0,0,1,.14.14v1.2a.13.13,0,0,1-.14.14h-6a.13.13,0,0,1-.14-.14Z"/><path class="cls-5" d="M127.29,211.12a.13.13,0,0,1,.14-.14h1.37a.13.13,0,0,1,.14.14v9.25a.13.13,0,0,1-.14.14h-1.37a.13.13,0,0,1-.14-.14Z"/><path class="cls-5" d="M133.12,218.36a13.74,13.74,0,0,1,0-5.24,3.62,3.62,0,0,1,6.74,0,13.74,13.74,0,0,1,0,5.24,3.62,3.62,0,0,1-6.74,0Zm5.14-.43a14.3,14.3,0,0,0,0-4.37,1.88,1.88,0,0,0-3.54,0,14.21,14.21,0,0,0,0,4.37,1.88,1.88,0,0,0,3.54,0Z"/><path class="cls-5" d="M144,211.12a.13.13,0,0,1,.14-.14h1.29a.25.25,0,0,1,.24.14l3.88,6.57h.06v-6.57a.13.13,0,0,1,.14-.14H151a.13.13,0,0,1,.14.14v9.25a.13.13,0,0,1-.14.14h-1.27a.25.25,0,0,1-.24-.14l-3.89-6.56h-.06v6.56a.13.13,0,0,1-.14.14h-1.22a.13.13,0,0,1-.14-.14Z"/><path class="cls-5" d="M160.72,211.12a.13.13,0,0,1,.14-.14h6a.13.13,0,0,1,.14.14v1.21a.13.13,0,0,1-.14.14h-4.37a.07.07,0,0,0-.08.08V215a.07.07,0,0,0,.08.08h3.68a.13.13,0,0,1,.14.14v1.21a.13.13,0,0,1-.14.14h-3.68a.07.07,0,0,0-.08.08v3.74a.13.13,0,0,1-.14.14h-1.37a.13.13,0,0,1-.14-.14Z"/><path class="cls-5" d="M170.68,211.12a.13.13,0,0,1,.14-.14h6a.13.13,0,0,1,.14.14v1.21a.13.13,0,0,1-.14.14h-4.37a.07.07,0,0,0-.08.08v2.33a.07.07,0,0,0,.08.08h3.68a.13.13,0,0,1,.14.14v1.21a.13.13,0,0,1-.14.14h-3.68a.07.07,0,0,0-.08.08v2.41a.07.07,0,0,0,.08.08h4.37a.13.13,0,0,1,.14.14v1.2a.13.13,0,0,1-.14.14h-6a.13.13,0,0,1-.14-.14Z"/><path class="cls-5" d="M180.76,211.12a.13.13,0,0,1,.14-.14h3.4a3,3,0,0,1,3.18,2.12,14.83,14.83,0,0,1,0,5.29,3,3,0,0,1-3.18,2.12h-3.4a.13.13,0,0,1-.14-.14Zm1.74,7.9h1.41a1.78,1.78,0,0,0,2-1.2,6.54,6.54,0,0,0,.17-2.07,6.47,6.47,0,0,0-.17-2.07,1.78,1.78,0,0,0-2-1.21h-1.41a.07.07,0,0,0-.08.08v6.39A.07.07,0,0,0,182.49,219Z"/><path class="cls-5" d="M191.61,211.12a.13.13,0,0,1,.14-.14h6a.13.13,0,0,1,.14.14v1.21a.13.13,0,0,1-.14.14h-4.37a.07.07,0,0,0-.08.08v2.33a.07.07,0,0,0,.08.08H197a.13.13,0,0,1,.14.14v1.21a.13.13,0,0,1-.14.14h-3.68a.07.07,0,0,0-.08.08v2.41a.07.07,0,0,0,.08.08h4.37a.13.13,0,0,1,.14.14v1.2a.13.13,0,0,1-.14.14h-6a.13.13,0,0,1-.14-.14Z"/><path class="cls-5" d="M207.09,220.51a.2.2,0,0,1-.21-.14l-1.82-3.71h-1.64a.07.07,0,0,0-.08.08v3.63a.13.13,0,0,1-.14.14h-1.37a.13.13,0,0,1-.14-.14v-9.25a.13.13,0,0,1,.14-.14h3.68a2.84,2.84,0,0,1,3,2.84,2.71,2.71,0,0,1-1.81,2.62l2,3.88a.11.11,0,0,1-.1.18Zm-.18-6.68a1.33,1.33,0,0,0-1.46-1.36h-2a.07.07,0,0,0-.08.08v2.54a.07.07,0,0,0,.08.08h2A1.33,1.33,0,0,0,206.91,213.83Z"/><path class="cls-5" d="M214.92,211.12a.18.18,0,0,1,.18-.14h1.29a.18.18,0,0,1,.18.14l3.22,9.25c0,.08,0,.14-.1.14h-1.37a.17.17,0,0,1-.18-.14l-.63-1.85h-3.59l-.63,1.85a.17.17,0,0,1-.18.14h-1.36c-.1,0-.13-.06-.1-.14ZM217,217l-1.26-3.7h0l-1.27,3.7Z"/><path class="cls-5" d="M223.19,211.12a.13.13,0,0,1,.14-.14h1.37a.13.13,0,0,1,.14.14v7.82a.07.07,0,0,0,.08.08h4.37a.13.13,0,0,1,.14.14v1.2a.13.13,0,0,1-.14.14h-6a.13.13,0,0,1-.14-.14Z"/><path class="cls-5" d="M114.37,234.12a.13.13,0,0,1,.14-.14h6a.13.13,0,0,1,.14.14v1.21a.13.13,0,0,1-.14.14h-4.37a.07.07,0,0,0-.08.08v2.33a.07.07,0,0,0,.08.08h3.68a.13.13,0,0,1,.14.14v1.21a.13.13,0,0,1-.14.14h-3.68a.07.07,0,0,0-.08.08v2.41a.07.07,0,0,0,.08.08h4.37a.13.13,0,0,1,.14.14v1.2a.13.13,0,0,1-.14.14h-6a.13.13,0,0,1-.14-.14Z"/><path class="cls-5" d="M124.45,234.12a.13.13,0,0,1,.14-.14h1.25a.22.22,0,0,1,.24.14l2.62,5.87h.06l2.58-5.87a.22.22,0,0,1,.24-.14h1.23a.13.13,0,0,1,.14.14v9.25a.13.13,0,0,1-.14.14h-1.22a.13.13,0,0,1-.14-.14v-5.83h-.06l-2,4.48a.27.27,0,0,1-.27.18h-.81A.27.27,0,0,1,128,242l-2-4.48h-.06v5.83a.13.13,0,0,1-.14.14h-1.22a.13.13,0,0,1-.14-.14Z"/><path class="cls-5" d="M137.27,243.51a.13.13,0,0,1-.14-.14v-9.25a.13.13,0,0,1,.14-.14h3.57a3,3,0,1,1,0,5.92h-2a.07.07,0,0,0-.08.08v3.38a.13.13,0,0,1-.14.14Zm5.06-6.57a1.44,1.44,0,0,0-1.58-1.47h-1.88a.07.07,0,0,0-.08.08v2.77a.07.07,0,0,0,.08.08h1.88A1.43,1.43,0,0,0,142.33,236.94Z"/><path class="cls-5" d="M147.6,234.12a.13.13,0,0,1,.14-.14h1.37a.13.13,0,0,1,.14.14v7.82a.07.07,0,0,0,.08.08h4.37a.13.13,0,0,1,.14.14v1.2a.13.13,0,0,1-.14.14h-6a.13.13,0,0,1-.14-.14Z"/><path class="cls-5" d="M157,241.36a13.74,13.74,0,0,1,0-5.24,3.62,3.62,0,0,1,6.74,0,13.74,13.74,0,0,1,0,5.24,3.62,3.62,0,0,1-6.74,0Zm5.14-.43a14.3,14.3,0,0,0,0-4.37,1.88,1.88,0,0,0-3.54,0,14.21,14.21,0,0,0,0,4.37,1.88,1.88,0,0,0,3.54,0Z"/><path class="cls-5" d="M169.78,243.51a.13.13,0,0,1-.14-.14v-3.75l-2.76-5.49c0-.07,0-.14.11-.14h1.41a.21.21,0,0,1,.2.14l1.86,3.7h0l1.88-3.7a.19.19,0,0,1,.2-.14h1.36c.11,0,.14.07.11.14l-2.76,5.49v3.75a.13.13,0,0,1-.14.14Z"/><path class="cls-5" d="M177.37,234.12a.13.13,0,0,1,.14-.14h6a.13.13,0,0,1,.14.14v1.21a.13.13,0,0,1-.14.14h-4.37a.07.07,0,0,0-.08.08v2.33a.07.07,0,0,0,.08.08h3.68a.13.13,0,0,1,.14.14v1.21a.13.13,0,0,1-.14.14h-3.68a.07.07,0,0,0-.08.08v2.41a.07.07,0,0,0,.08.08h4.37a.13.13,0,0,1,.14.14v1.2a.13.13,0,0,1-.14.14h-6a.13.13,0,0,1-.14-.14Z"/><path class="cls-5" d="M187.45,234.12a.13.13,0,0,1,.14-.14h6a.13.13,0,0,1,.14.14v1.21a.13.13,0,0,1-.14.14h-4.37a.07.07,0,0,0-.08.08v2.33a.07.07,0,0,0,.08.08h3.68a.13.13,0,0,1,.14.14v1.21a.13.13,0,0,1-.14.14h-3.68a.07.07,0,0,0-.08.08v2.41a.07.07,0,0,0,.08.08h4.37a.13.13,0,0,1,.14.14v1.2a.13.13,0,0,1-.14.14h-6a.13.13,0,0,1-.14-.14Z"/><path class="cls-5" d="M197,242.4a.15.15,0,0,1,0-.21l.87-1a.13.13,0,0,1,.2,0,4.26,4.26,0,0,0,2.59,1c1.13,0,1.79-.57,1.79-1.37s-.42-1.13-1.74-1.32l-.5-.07c-1.83-.25-2.87-1.13-2.87-2.72s1.26-2.87,3.22-2.87a5.23,5.23,0,0,1,3.08,1,.13.13,0,0,1,0,.2l-.67,1a.14.14,0,0,1-.2,0,4,4,0,0,0-2.28-.74c-1,0-1.5.53-1.5,1.27s.46,1.11,1.75,1.29l.5.07c1.84.25,2.84,1.12,2.84,2.76s-1.22,3-3.59,3A5.37,5.37,0,0,1,197,242.4Z"/><path class="cls-4" d="M301.74,158.9l4.88-1.2c.48-.16.8.08,1,.56,1.12,3.44,3.92,6.88,9.68,6.88s9.36-4.08,9.36-9.6c0-6.08-3.92-10.08-10-10.08h-2.4a.76.76,0,0,1-.8-.8V140a.76.76,0,0,1,.8-.8h2.32c5.44,0,9-3.6,9-9.12,0-5-3.28-8.64-8.72-8.64a8.31,8.31,0,0,0-8.64,6.64.81.81,0,0,1-1,.64l-4.8-1.2a.77.77,0,0,1-.64-1c1.12-6.08,6.56-11.36,15.28-11.36,9.6,0,15.36,6.16,15.36,14.72a13.45,13.45,0,0,1-6.72,11.68v.16c3.36,1.44,7.76,6.08,7.76,13.52,0,9.52-6.8,16.08-16.24,16.08-8.8,0-14.64-4.88-16.16-11.52A.81.81,0,0,1,301.74,158.9Z"/><path class="cls-4" d="M345.46,142.34l13.84-25.68c.24-.48.48-.56,1-.56h5.44c.56,0,.72.32.48.8L354.1,139.46l.16.16a10.78,10.78,0,0,1,5.52-1.28c8.56,0,15.44,6.24,15.44,16.16,0,10.64-7.28,16.88-16.72,16.88s-16.64-6.24-16.64-16.64A26.47,26.47,0,0,1,345.46,142.34Zm13,22.8c5.92,0,9.84-4.24,9.84-10.32s-3.92-10.24-9.84-10.24-9.76,4.16-9.76,10.24S352.58,165.14,358.5,165.14Z"/><path class="cls-4" d="M383.45,143.3c0-12.8.56-15.68,1.2-17.76,2.16-6.64,7.36-10.32,14.88-10.32s12.72,3.68,14.88,10.32c.64,2.08,1.2,5,1.2,17.76s-.56,15.68-1.2,17.76c-2.16,6.64-7.36,10.32-14.88,10.32s-12.72-3.68-14.88-10.32C384,159,383.45,156.1,383.45,143.3Zm16.08,21.84c4,0,7-1.84,8.24-5.44.56-1.68.88-4,.88-16.4s-.32-14.72-.88-16.4c-1.28-3.6-4.24-5.44-8.24-5.44s-7,1.84-8.24,5.44c-.56,1.68-.88,4-.88,16.4s.32,14.72.88,16.4C392.57,163.3,395.53,165.14,399.53,165.14Z"/><path class="cls-5" d="M330,211.12a.13.13,0,0,1,.14-.14h6a.13.13,0,0,1,.14.14v1.21a.13.13,0,0,1-.14.14h-4.37a.07.07,0,0,0-.08.08V215a.07.07,0,0,0,.08.08h3.68a.13.13,0,0,1,.14.14v1.21a.13.13,0,0,1-.14.14h-3.68a.07.07,0,0,0-.08.08v3.74a.13.13,0,0,1-.14.14h-1.37a.13.13,0,0,1-.14-.14Z"/><path class="cls-5" d="M340,211.12a.13.13,0,0,1,.14-.14h6a.13.13,0,0,1,.14.14v1.21a.13.13,0,0,1-.14.14h-4.37a.07.07,0,0,0-.08.08v2.33a.07.07,0,0,0,.08.08h3.68a.13.13,0,0,1,.14.14v1.21a.13.13,0,0,1-.14.14h-3.68a.07.07,0,0,0-.08.08v2.41a.07.07,0,0,0,.08.08h4.37a.13.13,0,0,1,.14.14v1.2a.13.13,0,0,1-.14.14h-6a.13.13,0,0,1-.14-.14Z"/><path class="cls-5" d="M350.06,211.12a.13.13,0,0,1,.14-.14h3.4a3,3,0,0,1,3.18,2.12,14.83,14.83,0,0,1,0,5.29,3,3,0,0,1-3.18,2.12h-3.4a.13.13,0,0,1-.14-.14Zm1.74,7.9h1.41a1.78,1.78,0,0,0,2-1.2,6.54,6.54,0,0,0,.17-2.07,6.47,6.47,0,0,0-.17-2.07,1.78,1.78,0,0,0-2-1.21H351.8a.07.07,0,0,0-.08.08v6.39A.07.07,0,0,0,351.8,219Z"/><path class="cls-5" d="M360.91,211.12A.13.13,0,0,1,361,211h6a.13.13,0,0,1,.14.14v1.21a.13.13,0,0,1-.14.14h-4.37a.07.07,0,0,0-.08.08v2.33a.07.07,0,0,0,.08.08h3.68a.13.13,0,0,1,.14.14v1.21a.13.13,0,0,1-.14.14h-3.68a.07.07,0,0,0-.08.08v2.41a.07.07,0,0,0,.08.08H367a.13.13,0,0,1,.14.14v1.2a.13.13,0,0,1-.14.14h-6a.13.13,0,0,1-.14-.14Z"/><path class="cls-5" d="M376.4,220.51a.2.2,0,0,1-.21-.14l-1.82-3.71h-1.64a.07.07,0,0,0-.08.08v3.63a.13.13,0,0,1-.14.14h-1.37a.13.13,0,0,1-.14-.14v-9.25a.13.13,0,0,1,.14-.14h3.68a2.84,2.84,0,0,1,3,2.84,2.71,2.71,0,0,1-1.81,2.62l2,3.88a.11.11,0,0,1-.1.18Zm-.18-6.68a1.33,1.33,0,0,0-1.46-1.36h-2a.07.07,0,0,0-.08.08v2.54a.07.07,0,0,0,.08.08h2A1.33,1.33,0,0,0,376.21,213.83Z"/><path class="cls-5" d="M384.22,211.12a.18.18,0,0,1,.18-.14h1.29a.18.18,0,0,1,.18.14l3.22,9.25c0,.08,0,.14-.1.14h-1.37a.17.17,0,0,1-.18-.14l-.63-1.85h-3.59l-.63,1.85a.17.17,0,0,1-.18.14h-1.36c-.1,0-.12-.06-.1-.14Zm2.09,5.93-1.26-3.7h0l-1.28,3.7Z"/><path class="cls-5" d="M392.49,211.12a.13.13,0,0,1,.14-.14H394a.13.13,0,0,1,.14.14v7.82a.07.07,0,0,0,.08.08h4.37a.13.13,0,0,1,.14.14v1.2a.13.13,0,0,1-.14.14h-6a.13.13,0,0,1-.14-.14Z"/><path class="cls-5" d="M329.06,234.12a.18.18,0,0,1,.18-.14h1.29a.18.18,0,0,1,.18.14l3.22,9.25c0,.08,0,.14-.1.14h-1.37a.17.17,0,0,1-.18-.14l-.63-1.85h-3.59l-.63,1.85a.17.17,0,0,1-.18.14H325.9c-.1,0-.13-.06-.1-.14Zm2.09,5.93-1.26-3.7h0l-1.27,3.7Z"/><path class="cls-5" d="M336.72,238.75a7.7,7.7,0,0,1,.25-2.62,3.29,3.29,0,0,1,3.4-2.3,3.35,3.35,0,0,1,3.32,2,.15.15,0,0,1-.06.2l-1.18.52a.15.15,0,0,1-.18-.07,2,2,0,0,0-1.92-1.18,1.73,1.73,0,0,0-1.79,1.25,14.21,14.21,0,0,0,0,4.37,1.73,1.73,0,0,0,1.79,1.25,1.79,1.79,0,0,0,1.81-1.19,3.92,3.92,0,0,0,.15-1.23.07.07,0,0,0-.08-.08h-1.57a.13.13,0,0,1-.14-.14v-1.12a.13.13,0,0,1,.14-.14h3.15a.13.13,0,0,1,.14.14v.83a7.84,7.84,0,0,1-.22,2.09,3.63,3.63,0,0,1-6.77,0A7.7,7.7,0,0,1,336.72,238.75Z"/><path class="cls-5" d="M347.88,234.12A.13.13,0,0,1,348,234h6a.13.13,0,0,1,.14.14v1.21a.13.13,0,0,1-.14.14h-4.37a.07.07,0,0,0-.08.08v2.33a.07.07,0,0,0,.08.08h3.68a.13.13,0,0,1,.14.14v1.21a.13.13,0,0,1-.14.14h-3.68a.07.07,0,0,0-.08.08v2.41a.07.07,0,0,0,.08.08H354a.13.13,0,0,1,.14.14v1.2a.13.13,0,0,1-.14.14h-6a.13.13,0,0,1-.14-.14Z"/><path class="cls-5" d="M358,234.12a.13.13,0,0,1,.14-.14h1.29a.25.25,0,0,1,.24.14l3.88,6.57h.06v-6.57a.13.13,0,0,1,.14-.14h1.22a.13.13,0,0,1,.14.14v9.25a.13.13,0,0,1-.14.14h-1.27a.25.25,0,0,1-.24-.14l-3.89-6.56h-.06v6.56a.13.13,0,0,1-.14.14H358.1a.13.13,0,0,1-.14-.14Z"/><path class="cls-5" d="M369,238.75a7.36,7.36,0,0,1,.25-2.58,3.21,3.21,0,0,1,3.3-2.34,3.35,3.35,0,0,1,3.22,2,.12.12,0,0,1-.07.17l-1.19.57a.13.13,0,0,1-.18-.07,1.88,1.88,0,0,0-1.78-1.23,1.69,1.69,0,0,0-1.71,1.26,14,14,0,0,0,0,4.34,1.69,1.69,0,0,0,1.71,1.26,1.88,1.88,0,0,0,1.78-1.23.13.13,0,0,1,.18-.07l1.19.57a.12.12,0,0,1,.07.17,3.35,3.35,0,0,1-3.22,2,3.21,3.21,0,0,1-3.3-2.34A7.36,7.36,0,0,1,369,238.75Z"/><path class="cls-5" d="M379.4,234.12a.13.13,0,0,1,.14-.14h1.37a.13.13,0,0,1,.14.14v9.25a.13.13,0,0,1-.14.14h-1.37a.13.13,0,0,1-.14-.14Z"/><path class="cls-5" d="M385.26,234.12a.13.13,0,0,1,.14-.14h6a.13.13,0,0,1,.14.14v1.21a.13.13,0,0,1-.14.14H387a.07.07,0,0,0-.08.08v2.33a.07.07,0,0,0,.08.08h3.68a.13.13,0,0,1,.14.14v1.21a.13.13,0,0,1-.14.14H387a.07.07,0,0,0-.08.08v2.41a.07.07,0,0,0,.08.08h4.37a.13.13,0,0,1,.14.14v1.2a.13.13,0,0,1-.14.14h-6a.13.13,0,0,1-.14-.14Z"/><path class="cls-5" d="M394.83,242.4a.15.15,0,0,1,0-.21l.87-1a.13.13,0,0,1,.2,0,4.26,4.26,0,0,0,2.59,1c1.13,0,1.79-.57,1.79-1.37s-.42-1.13-1.74-1.32l-.5-.07c-1.83-.25-2.87-1.13-2.87-2.72s1.26-2.87,3.22-2.87a5.23,5.23,0,0,1,3.08,1,.12.12,0,0,1,0,.2l-.67,1a.14.14,0,0,1-.2,0,4,4,0,0,0-2.28-.74c-1,0-1.5.53-1.5,1.27s.46,1.11,1.75,1.29l.5.07c1.83.25,2.84,1.12,2.84,2.76s-1.22,3-3.59,3A5.37,5.37,0,0,1,394.83,242.4Z"/><path class="cls-4" d="M538.9,122.58v-.24H522.34a.42.42,0,0,0-.48.48v6.8a.76.76,0,0,1-.8.8h-4.8a.76.76,0,0,1-.8-.8V116.9a.76.76,0,0,1,.8-.8h29a.76.76,0,0,1,.8.8v5a2.39,2.39,0,0,1-.16.8l-18.72,47.12c-.24.56-.4.72-1,.72h-5.36c-.48,0-.72-.32-.48-.88Z"/><path class="cls-4" d="M553.81,143.3c0-12.8.56-15.68,1.2-17.76,2.16-6.64,7.36-10.32,14.88-10.32s12.72,3.68,14.88,10.32c.64,2.08,1.2,5,1.2,17.76s-.56,15.68-1.2,17.76c-2.16,6.64-7.36,10.32-14.88,10.32S557.17,167.7,555,161.06C554.37,159,553.81,156.1,553.81,143.3Zm16.08,21.84c4,0,7-1.84,8.24-5.44.56-1.68.88-4,.88-16.4s-.32-14.72-.88-16.4c-1.28-3.6-4.24-5.44-8.24-5.44s-7,1.84-8.24,5.44c-.56,1.68-.88,4-.88,16.4s.32,14.72.88,16.4C562.93,163.3,565.89,165.14,569.89,165.14Z"/><path class="cls-5" d="M520.17,220.51a.13.13,0,0,1-.14-.14v-3.75l-2.76-5.49c0-.07,0-.14.11-.14h1.41a.21.21,0,0,1,.2.14l1.86,3.7h0l1.88-3.7a.19.19,0,0,1,.2-.14h1.36c.11,0,.14.07.11.14l-2.76,5.49v3.75a.13.13,0,0,1-.14.14Z"/><path class="cls-5" d="M527.76,211.12a.13.13,0,0,1,.14-.14h6a.13.13,0,0,1,.14.14v1.21a.13.13,0,0,1-.14.14h-4.37a.07.07,0,0,0-.08.08v2.33a.07.07,0,0,0,.08.08h3.68a.13.13,0,0,1,.14.14v1.21a.13.13,0,0,1-.14.14h-3.68a.07.07,0,0,0-.08.08v2.41a.07.07,0,0,0,.08.08h4.37a.13.13,0,0,1,.14.14v1.2a.13.13,0,0,1-.14.14h-6a.13.13,0,0,1-.14-.14Z"/><path class="cls-5" d="M540.3,211.12a.18.18,0,0,1,.18-.14h1.29a.18.18,0,0,1,.18.14l3.22,9.25c0,.08,0,.14-.1.14H543.7a.17.17,0,0,1-.18-.14l-.63-1.85h-3.59l-.63,1.85a.17.17,0,0,1-.18.14h-1.36c-.1,0-.13-.06-.1-.14Zm2.09,5.93-1.26-3.7h0l-1.27,3.7Z"/><path class="cls-5" d="M554,220.51a.2.2,0,0,1-.21-.14l-1.82-3.71h-1.64a.07.07,0,0,0-.08.08v3.63a.13.13,0,0,1-.14.14h-1.37a.13.13,0,0,1-.14-.14v-9.25a.13.13,0,0,1,.14-.14h3.68a2.84,2.84,0,0,1,3,2.84,2.71,2.71,0,0,1-1.81,2.62l2,3.88a.11.11,0,0,1-.1.18Zm-.18-6.68a1.33,1.33,0,0,0-1.46-1.36h-2a.07.07,0,0,0-.08.08v2.54a.07.07,0,0,0,.08.08h2A1.33,1.33,0,0,0,553.8,213.83Z"/><path class="cls-5" d="M558.83,219.4a.15.15,0,0,1,0-.21l.87-1a.13.13,0,0,1,.2,0,4.26,4.26,0,0,0,2.59,1c1.13,0,1.79-.57,1.79-1.37s-.42-1.13-1.74-1.32l-.5-.07c-1.83-.25-2.87-1.13-2.87-2.72s1.26-2.87,3.22-2.87a5.23,5.23,0,0,1,3.08,1,.13.13,0,0,1,0,.2l-.67,1a.14.14,0,0,1-.2,0,4,4,0,0,0-2.28-.74c-1,0-1.5.53-1.5,1.27s.46,1.11,1.75,1.29l.5.07c1.84.25,2.84,1.12,2.84,2.76s-1.22,3-3.59,3A5.37,5.37,0,0,1,558.83,219.4Z"/><path class="cls-5" d="M576.7,215.2c-.77-1-1.06-1.48-1.06-2.18a2.23,2.23,0,0,1,2.37-2.19,2.2,2.2,0,0,1,2.33,2.14c0,.87-.42,1.48-1.65,2.44l1.49,1.9,1-1.13a.13.13,0,0,1,.2,0l.77.66a.13.13,0,0,1,0,.2L581,218.38l.34.42a.67.67,0,0,0,.57.31h.21a.13.13,0,0,1,.14.14v1.12a.13.13,0,0,1-.14.14h-.46a1.49,1.49,0,0,1-1.39-.74l-.24-.29a3.23,3.23,0,0,1-2.48,1.19,2.4,2.4,0,0,1-2.65-2.55C574.89,217.1,575.35,216.25,576.7,215.2Zm1,4.1c.52,0,.92-.21,1.55-.88l-1.68-2.16c-.91.7-1.18,1.25-1.18,1.76A1.21,1.21,0,0,0,577.65,219.3ZM578.9,213a.9.9,0,0,0-1.79,0c0,.34.11.55.74,1.37C578.73,213.66,578.9,213.36,578.9,213Z"/><path class="cls-5" d="M511.27,238.75a7.39,7.39,0,0,1,.25-2.58,3.21,3.21,0,0,1,3.31-2.34,3.35,3.35,0,0,1,3.22,2,.12.12,0,0,1-.07.17l-1.19.57a.12.12,0,0,1-.18-.07,1.88,1.88,0,0,0-1.78-1.23,1.69,1.69,0,0,0-1.71,1.26,14.11,14.11,0,0,0,0,4.34,1.69,1.69,0,0,0,1.71,1.26,1.88,1.88,0,0,0,1.78-1.23.12.12,0,0,1,.18-.07l1.19.57a.12.12,0,0,1,.07.17,3.35,3.35,0,0,1-3.22,2,3.21,3.21,0,0,1-3.31-2.34A7.38,7.38,0,0,1,511.27,238.75Z"/><path class="cls-5" d="M521.67,241.36a13.74,13.74,0,0,1,0-5.24,3.62,3.62,0,0,1,6.74,0,13.74,13.74,0,0,1,0,5.24,3.62,3.62,0,0,1-6.74,0Zm5.14-.43a14.3,14.3,0,0,0,0-4.37,1.88,1.88,0,0,0-3.54,0,14.21,14.21,0,0,0,0,4.37,1.88,1.88,0,0,0,3.54,0Z"/><path class="cls-5" d="M537.89,240.13v-6A.13.13,0,0,1,538,234h1.37a.13.13,0,0,1,.14.14v6a3.51,3.51,0,0,1-7,0v-6a.13.13,0,0,1,.14-.14H534a.13.13,0,0,1,.14.14v6a1.86,1.86,0,1,0,3.71,0Z"/><path class="cls-5" d="M543.68,234.12a.13.13,0,0,1,.14-.14h1.29a.25.25,0,0,1,.24.14l3.88,6.57h.06v-6.57a.13.13,0,0,1,.14-.14h1.22a.13.13,0,0,1,.14.14v9.25a.13.13,0,0,1-.14.14h-1.27a.25.25,0,0,1-.24-.14l-3.89-6.56h-.06v6.56a.13.13,0,0,1-.14.14h-1.22a.13.13,0,0,1-.14-.14Z"/><path class="cls-5" d="M557.09,243.51a.13.13,0,0,1-.14-.14v-7.82a.07.07,0,0,0-.08-.08h-2.49a.13.13,0,0,1-.14-.14v-1.21a.13.13,0,0,1,.14-.14h6.81a.13.13,0,0,1,.14.14v1.21a.13.13,0,0,1-.14.14h-2.49a.07.07,0,0,0-.08.08v7.82a.13.13,0,0,1-.14.14Z"/><path class="cls-5" d="M564.78,234.12a.13.13,0,0,1,.14-.14h1.37a.13.13,0,0,1,.14.14v9.25a.13.13,0,0,1-.14.14h-1.37a.13.13,0,0,1-.14-.14Z"/><path class="cls-5" d="M570.63,234.12a.13.13,0,0,1,.14-.14h1.29a.25.25,0,0,1,.24.14l3.88,6.57h.06v-6.57a.13.13,0,0,1,.14-.14h1.22a.13.13,0,0,1,.14.14v9.25a.13.13,0,0,1-.14.14h-1.28a.25.25,0,0,1-.24-.14l-3.89-6.56h-.06v6.56a.13.13,0,0,1-.14.14h-1.22a.13.13,0,0,1-.14-.14Z"/><path class="cls-5" d="M581.65,238.75a7.7,7.7,0,0,1,.25-2.62,3.29,3.29,0,0,1,3.4-2.3,3.36,3.36,0,0,1,3.32,2,.16.16,0,0,1-.06.2l-1.18.52a.15.15,0,0,1-.18-.07,2,2,0,0,0-1.92-1.18,1.73,1.73,0,0,0-1.79,1.25,14.3,14.3,0,0,0,0,4.37,1.73,1.73,0,0,0,1.79,1.25A1.79,1.79,0,0,0,587.1,241a3.92,3.92,0,0,0,.15-1.23.07.07,0,0,0-.08-.08H585.6a.13.13,0,0,1-.14-.14v-1.12a.13.13,0,0,1,.14-.14h3.15a.13.13,0,0,1,.14.14v.83a7.84,7.84,0,0,1-.22,2.09,3.63,3.63,0,0,1-6.77,0A7.7,7.7,0,0,1,581.65,238.75Z"/><line class="cls-6" x1="260.95" y1="240.77" x2="260.95" y2="114.41"/><line class="cls-6" x1="462.93" y1="240.77" x2="462.93" y2="114.41"/><circle class="cls-3" cx="550.79" cy="492.61" r="13.57"/><circle class="cls-3" cx="576.71" cy="538.24" r="13.57"/><circle class="cls-7" cx="523.15" cy="538.24" r="13.57"/><line class="cls-3" x1="559.21" y1="504.05" x2="571.76" y2="526.24"/><line class="cls-3" x1="542.76" y1="504.05" x2="530.21" y2="526.24"/></g></g></svg>
