<svg xmlns="http://www.w3.org/2000/svg" viewBox="0 0 257.5 257.5"><defs><style>.cls-1,.cls-2,.cls-3{fill:none;stroke-miterlimit:10;stroke-width:2.5px}.cls-1{stroke:#eaebeb}.cls-2{stroke:#23ca7d}.cls-3{stroke:#fff}.cls-4{fill:#23cc7d}.cls-5{fill:#fff}</style></defs><title>header-art</title><g id="Layer_2" data-name="Layer 2"><g id="Layer_1-2" data-name="Layer 1"><path class="cls-1" d="M57.46 23a127.33 127.33 0 1 1-43.72 50.65"/><path class="cls-2" d="M1.25 128.75a127.5 127.5 0 1 0 127.5-127.5"/><path class="cls-3" d="M59.3 89.33L12.15 55.06A10.1 10.1 0 0 1 9.92 41l12.26-16.9a10.1 10.1 0 0 1 14.11-2.23l47.14 34.27a10.1 10.1 0 0 1 4 6.64l2.12 13.83a10.78 10.78 0 0 1-8.92 12.27l-13.77 2.25a10.1 10.1 0 0 1-7.56-1.8z"/><circle class="cls-3" cx="72.62" cy="73.65" r="6.84" transform="rotate(-53.8 72.81 73.46)"/><path class="cls-4" d="M41.5 61.44c-2.58-2-3.45-4.79-2.55-7.39l1.72.51a5.31 5.31 0 0 0 2.37 6c2.25 1.61 4.68 1.67 6-.13s.49-3.36-.58-4.77c-.51-.69-1.91-2.36-2.42-3.05-1.8-2.29-1.8-4.13-.44-6 1.61-2.25 4.57-2.64 7.25-1L54.71 43l1.21.87L54 46.49c2 1.67 3 3.69 2.46 6.06l-1.69-.37a5 5 0 0 0-2.35-4.88c-1.72-1.23-4-1.48-5.27.26-.87 1.22-.94 2.37.71 4.43l2.31 3c1.56 2 2.16 4 .43 6.43s-4.73 2.82-7.87.89l-2 2.8-1.21-.87z"/><path class="cls-3" d="M177.57 123.42v71.88H76.06v-71.88"/><path class="cls-3" d="M177.26 122.66l-50.44-35-50.44 35a8.13 8.13 0 0 1-11.24-1.94 8.13 8.13 0 0 1 2-11.42l57.69-40a3.55 3.55 0 0 1 4 0l57.69 40a8.13 8.13 0 0 1 2 11.42 8.13 8.13 0 0 1-11.26 1.94zm-62.68 31.02h24.48v41.62h-24.48z"/><circle class="cls-5" cx="130.73" cy="174.89" r="1.83"/><circle class="cls-3" cx="126.82" cy="123.42" r="11.66"/><path class="cls-3" d="M126.82 111.76v23.32m-11.66-11.66h23.31m2.12-46h29.09a7.89 7.89 0 0 1 7.89 7.89v18.55M96.62 77.42h16.43m-36.99 26.44v-7.49m83.33-18.95V49.65m-13.27 4.38h26.55m-26.55 6.69h26.55m-97.29 80.01l-12.7 12.7v41.87h12.7m101.51-34.66h13.38v34.66h-13.38m-23.72-41.62h11.95v23.05h-11.95zm-64.59 0h11.95v23.05H88.58zm-4.44 23.05h20.96m43.57 0h20.96"/></g></g></svg>