<svg xmlns="http://www.w3.org/2000/svg" viewBox="0 0 1039.49 459.18"><defs><style>.cls-1,.cls-3,.cls-5{fill:none}.cls-2{fill:#f4f4f4}.cls-3,.cls-4{stroke:#757d82}.cls-3,.cls-4,.cls-5{stroke-miterlimit:10}.cls-4{fill:#fff}.cls-5{stroke:#23cc7d}</style></defs><title>icon-check</title><g id="Layer_2" data-name="Layer 2"><g id="Layer_1-2" data-name="Layer 1"><path class="cls-1" d="M0 0h1039.49v459.18H0z"/><path class="cls-2" d="M857.61 0h180v180h-180z"/><path class="cls-3" d="M931.36 136.08h-36.59v-92.8h36.26m.33 26.7h-26.3m26.3 12.83h-26.3m26.3 12.83h-26.3m18.73 12.84h-18.73m54.59 27.6h-28.29v-92.8h36.25"/><path class="cls-4" d="M991.4 62.68V88.3"/><path class="cls-3" d="M967.61 43.28l23.79 19.4"/><path class="cls-5" d="M979.3 69.98h-37.05m37.05 12.83h-37.05m37.05 12.83h-37.05m24.22 12.84h-24.22"/><circle class="cls-3" cx="991.4" cy="121.84" r="24.32"/><path class="cls-5" d="M979.3 121.84l10.72 10.15 11.14-22.7"/></g></g></svg>