<svg xmlns="http://www.w3.org/2000/svg" viewBox="0 0 1039.49 459.18"><defs><style>.cls-1,.cls-3,.cls-5{fill:none}.cls-2{fill:#f4f4f4}.cls-3{stroke:#757d82}.cls-3,.cls-5{stroke-miterlimit:10}.cls-4{fill:#23cc7d}.cls-5{stroke:#23cc7d}</style></defs><title>icon-calculator</title><g id="Layer_2" data-name="Layer 2"><g id="Layer_1-2" data-name="Layer 1"><path class="cls-1" d="M0 0h1039.49v459.18H0z"/><path class="cls-2" d="M285.87 0h180v180h-180z"/><path class="cls-3" d="M361.47 60.78h63.28v97.8h-63.28z"/><path class="cls-4" d="M411 74.19v20.54h-36.29V74.19H411m1-1h-38.29v22.54H412V73.19z"/><path class="cls-5" d="M373.72 104.98h7.8v7.8h-7.8zm15.82 0h7.8v7.8h-7.8zm15.82 0h7.8v7.8h-7.8zm-31.64 15.82h7.8v7.8h-7.8zm15.82 0h7.8v7.8h-7.8zm15.82 0h7.8v7.8h-7.8zm-31.64 15.82h7.8v7.8h-7.8zm15.82 0h7.8v7.8h-7.8zm15.82 0h7.8v7.8h-7.8z"/><path class="cls-3" d="M349.14 145.14h-21.81V24.35h78.16v26.13m-66.99-5.56h54.1"/></g></g></svg>