<svg xmlns="http://www.w3.org/2000/svg" viewBox="0 0 1039.49 459.18"><defs><style>.cls-1,.cls-3,.cls-4{fill:none}.cls-2,.cls-5{fill:#f4f4f4}.cls-3,.cls-4,.cls-5{stroke:#757d82;stroke-miterlimit:10}.cls-4,.cls-5{stroke:#23cc7d}</style></defs><title>icon-couch</title><g id="Layer_2" data-name="Layer 2"><g id="Layer_1-2" data-name="Layer 1"><path class="cls-1" d="M0 0h1039.49v459.18H0z"/><path class="cls-2" d="M287.19 279.18h180v180h-180z"/><path class="cls-3" d="M316 359v-11.84a9.85 9.85 0 0 1 9.85-9.85h104.89a9.85 9.85 0 0 1 9.85 9.85V359M326 404.29v6.1a6.1 6.1 0 0 1-6.1 6.1 6.1 6.1 0 0 1-6.1-6.1v-6.1m126.79 0v6.1a6.1 6.1 0 0 1-6.1 6.1 6.1 6.1 0 0 1-6.1-6.1v-6.1"/><path class="cls-3" d="M448.89 404.74H307.6v-38.33a7.61 7.61 0 0 1 7.61-7.61h.42a7.61 7.61 0 0 1 7.6 7.18v3.63a12.16 12.16 0 0 0 12.16 12.16h86.11a12.16 12.16 0 0 0 12.16-12.16v-3.2a7.61 7.61 0 0 1 7.61-7.61 7.61 7.61 0 0 1 7.61 7.61zm-70.58-63.14c-.06 3.57 0 38.25 0 38.25"/><circle class="cls-4" cx="344.64" cy="365.4" r="14.91"/><circle class="cls-5" cx="358.38" cy="369.67" r="10.65"/></g></g></svg>