<svg xmlns="http://www.w3.org/2000/svg" viewBox="0 0 1039.49 459.18"><defs><style>.cls-1,.cls-3,.cls-4{fill:none}.cls-2{fill:#f4f4f4}.cls-3,.cls-5{stroke:#757d82}.cls-3,.cls-4,.cls-5{stroke-miterlimit:10}.cls-4{stroke:#23cc7d}.cls-5{fill:#fff}</style></defs><title>icon-camera</title><g id="Layer_2" data-name="Layer 2"><g id="Layer_1-2" data-name="Layer 1"><path class="cls-1" d="M0 0h1039.49v459.18H0z"/><path class="cls-2" d="M571.74 0h180v180h-180z"/><path class="cls-3" d="M638.52 138.6h-24.96V40.8h63.28v65.97"/><path class="cls-4" d="M659.98 53.36h7.8v7.8h-7.8zm0 13.57h7.8v7.8h-7.8zm0 13.57h7.8v7.8h-7.8zm0 13.52h7.8v7.8h-7.8zM624 58.9h13.53M624 72.43h27.05M624 85.95h20.29M624 99.48h27.05"/><path class="cls-3" d="M641.9 111.28h71.51v40.54H641.9z"/><circle class="cls-4" cx="678.8" cy="130.76" r="10.39"/><path class="cls-5" d="M695.12 97.93h18.29v13.35h-18.29z"/></g></g></svg>