<svg xmlns="http://www.w3.org/2000/svg" viewBox="0 0 1039.49 459.18"><defs><style>.cls-1,.cls-3,.cls-5{fill:none;}.cls-2{fill:#f4f4f4;}.cls-3,.cls-4{stroke:#757d82;}.cls-3,.cls-4,.cls-5{stroke-miterlimit:10;}.cls-4{fill:#fff;}.cls-5{stroke:#23cc7d;}</style></defs><title>icon-check</title><g id="Layer_2" data-name="Layer 2"><g id="Layer_1-2" data-name="Layer 1"><rect class="cls-1" width="1039.49" height="459.18"/><rect class="cls-2" x="857.61" width="180" height="180"/><polyline class="cls-3" points="931.36 136.08 894.77 136.08 894.77 43.28 931.03 43.28"/><line class="cls-3" x1="931.36" y1="69.98" x2="905.06" y2="69.98"/><line class="cls-3" x1="931.36" y1="82.81" x2="905.06" y2="82.81"/><line class="cls-3" x1="931.36" y1="95.64" x2="905.06" y2="95.64"/><line class="cls-3" x1="923.79" y1="108.48" x2="905.06" y2="108.48"/><polyline class="cls-3" points="959.65 136.08 931.36 136.08 931.36 43.28 967.61 43.28"/><line class="cls-4" x1="991.4" y1="62.68" x2="991.4" y2="88.3"/><line class="cls-3" x1="967.61" y1="43.28" x2="991.4" y2="62.68"/><line class="cls-5" x1="979.3" y1="69.98" x2="942.25" y2="69.98"/><line class="cls-5" x1="979.3" y1="82.81" x2="942.25" y2="82.81"/><line class="cls-5" x1="979.3" y1="95.64" x2="942.25" y2="95.64"/><line class="cls-5" x1="966.47" y1="108.48" x2="942.25" y2="108.48"/><circle class="cls-3" cx="991.4" cy="121.84" r="24.32"/><polyline class="cls-5" points="979.3 121.84 990.02 131.99 1001.16 109.29"/></g></g></svg>