<svg xmlns="http://www.w3.org/2000/svg" viewBox="0 0 1039.49 459.18"><defs><style>.cls-1,.cls-3,.cls-4{fill:none}.cls-2{fill:#f4f4f4}.cls-3,.cls-4{stroke:#757d82;stroke-miterlimit:10}.cls-4{stroke-linecap:square}.cls-5{fill:#23c97d}</style></defs><title>icon-money</title><g id="Layer_2" data-name="Layer 2"><g id="Layer_1-2" data-name="Layer 1"><path class="cls-1" d="M0 0h1039.49v459.18H0z"/><path class="cls-2" d="M1.05 279.18h180v180h-180z"/><g id="_Group_" data-name="&lt;Group&gt;"><g id="_Group_2" data-name="&lt;Group&gt;"><path id="_Path_" data-name="&lt;Path&gt;" class="cls-3" d="M116.84 428.7v-23.88a18.39 18.39 0 0 0-18.39-18.39H87.91V382"/><path id="_Path_2" data-name="&lt;Path&gt;" class="cls-3" d="M40.59 428.7v-23.88A18.39 18.39 0 0 1 59 386.43h11.11V382"/></g><path id="_Path_3" data-name="&lt;Path&gt;" class="cls-4" d="M99.41 341.93a20.09 20.09 0 0 0-20-20H78a20.09 20.09 0 0 0-20 20v6.68c-.64 20.65 9.93 28.93 21 28.93s21.14-9.67 20.4-28.93z"/></g><path class="cls-5" d="M142.68 359.24c0-5.26-2.55-8.34-8.27-10l-7.93-2.36c-5.49-1.55-7.64-3.78-7.64-8 0-5.39 5.06-8.21 10.06-8.21 4.85 0 8.57 1.88 10.84 5.44l1.72-.74c-2-3.66-5.61-5.74-10.79-6.21l-.91-.08v-7.05h-1.28v7.08l-.94.06c-6.34.39-10.77 4.5-10.77 10 0 4.9 2.32 7.66 7.77 9.25.9.29 2.52.74 4.09 1.17s3.23.9 4.14 1.19c3.64 1.12 7.83 3.13 7.83 8.73 0 5.29-4.62 8.85-11.49 8.85-5.94 0-10.34-2.64-12.49-7.45l-1.88.65c1.87 5 6.47 8 12.78 8.3h1v7.45h1.28v-7.5l.93-.07c7.13-.37 11.95-4.64 11.95-10.5z"/></g></g></svg>