<svg xmlns="http://www.w3.org/2000/svg" viewBox="0 0 1039.49 459.18"><defs><style>.cls-1,.cls-3,.cls-4{fill:none}.cls-2{fill:#f4f4f4}.cls-3,.cls-4{stroke:#757d82;stroke-miterlimit:10}.cls-4{stroke:#23cc7d}</style></defs><title>icon-shake</title><g id="Layer_2" data-name="Layer 2"><g id="Layer_1-2" data-name="Layer 1"><path class="cls-1" d="M0 0h1039.49v459.18H0z"/><path class="cls-2" d="M573.34 279.18h180v180h-180z"/><path class="cls-3" d="M713.52 378.85l-13.62 4.57-26.78-18.2-.94-7-22.08 7c-13.1-.93-6.57-12.22-6.57-12.22s18.32-9.86 22.55-12.68 10.33 0 10.33 0l17.85 10.8 14.09-4.23"/><path class="cls-3" d="M653.85 347.38c-5.7 3.19-20.66 3.76-20.66 3.76l-9.86-3.76m.54 40.37l-14.16-10"/><ellipse class="cls-3" cx="629.64" cy="391.39" rx="6.31" ry="8.99"/><ellipse class="cls-3" cx="643.06" cy="396.73" rx="6.31" ry="8.99"/><ellipse class="cls-3" cx="656.47" cy="403.6" rx="6.31" ry="8.99"/><path class="cls-3" d="M662.79 400.87l11.27 9s5.64 2.82 8.46-2.35m-12.22-18.87l15 12.74s5.64 2.82 8.46-2.35m-15.57-20.82L698 395.76s3.05 2.88 8.46-2.35c0 0 3.52-3.76-2.32-11.42"/><path class="cls-4" d="M599.47 360.91l11.71-19.85 12.5 6.18-14.62 23.74m98.91-25l5.55 25 12.18-2.63-5.63-25.92"/></g></g></svg>