<svg xmlns="http://www.w3.org/2000/svg" viewBox="0 0 647.92 383.62"><defs><style>.cls-1,.cls-6,.cls-7{fill:none}.cls-2{fill:#fff}.cls-3{fill:#244161}.cls-4{fill:#757d80}.cls-5{fill:#23ca7d}.cls-6,.cls-7{stroke:#eaebeb;stroke-miterlimit:10;stroke-width:3.61px}.cls-7{stroke:#23ca7d}</style></defs><title>progress-right</title><g id="Layer_2" data-name="Layer 2"><g id="Layer_1-2" data-name="Layer 1"><path class="cls-1" d="M0 0h647.92v383.62H0z"/><path class="cls-2" d="M346.08 0h301.85v383.62H346.08z"/><path class="cls-3" d="M393.94 48.41H397a2.28 2.28 0 1 1 0 4.59h-1.56v2.57h-1.55zm2.83 3.31c.71 0 1.16-.37 1.16-1s-.48-1-1.17-1h-1.27v2zm5.63-3.31h3a2.22 2.22 0 0 1 2.48 2.25 2.16 2.16 0 0 1-1.38 2.08l1.71 2.8h-1.71l-1.54-2.59h-1v2.59h-1.56zm2.77 3.31c.71 0 1.16-.37 1.16-1s-.48-1-1.17-1h-1.21v2zm5.69 1.4V51a3 3 0 0 1 5.9 0v2a2.71 2.71 0 0 1-2.93 2.67c-1.57-.01-2.97-.83-2.97-2.55zm4.35-.06v-2.2a1.29 1.29 0 0 0-1.42-1.25 1.25 1.25 0 0 0-1.38 1.28v2.18a1.29 1.29 0 0 0 1.42 1.27 1.27 1.27 0 0 0 1.38-1.28zm4.53.08v-2.22a2.65 2.65 0 0 1 2.92-2.63c1.37 0 2.82.66 2.82 2.28v.24H424v-.11c0-.84-.72-1.11-1.32-1.11a1.26 1.26 0 0 0-1.4 1.26v2.24a1.29 1.29 0 0 0 1.42 1.26c.71 0 1.29-.33 1.29-1.16V53h-1.64v-1.25h3.12v1.56c0 1.62-1.4 2.35-2.78 2.35-1.55 0-2.95-.83-2.95-2.52zm8.87-4.73h3a2.22 2.22 0 0 1 2.48 2.25 2.17 2.17 0 0 1-1.38 2.08l1.71 2.8h-1.71l-1.54-2.59h-1v2.59h-1.55zm2.77 3.31c.71 0 1.16-.37 1.16-1s-.48-1-1.17-1h-1.21v2zm5.87-3.31h5.1v1.31h-3.55v1.55h3.07v1.31h-3.07v1.65h3.58v1.31h-5.13zm7.66 5.72l1.17-.74a2 2 0 0 0 1.76 1c.63 0 1.26-.23 1.26-.81s-.39-.68-.89-.82l-1.21-.32a1.9 1.9 0 0 1-1.7-1.94 2.36 2.36 0 0 1 2.64-2.21 2.66 2.66 0 0 1 2.58 1.27l-1.12.73a1.66 1.66 0 0 0-1.51-.74c-.55 0-1.06.22-1.06.78s.46.64 1 .79l1.18.3a1.93 1.93 0 0 1 1.67 2c0 1.43-1.29 2.25-2.81 2.25a3 3 0 0 1-2.96-1.54zm8.25 0l1.17-.74a2 2 0 0 0 1.76 1c.63 0 1.26-.23 1.26-.81s-.39-.68-.89-.82l-1.22-.31a1.9 1.9 0 0 1-1.7-1.94 2.36 2.36 0 0 1 2.64-2.21 2.66 2.66 0 0 1 2.58 1.27l-1.12.73a1.66 1.66 0 0 0-1.51-.74c-.55 0-1.06.22-1.06.78s.46.64 1 .79l1.18.3a1.93 1.93 0 0 1 1.67 2c0 1.43-1.29 2.25-2.81 2.25a3 3 0 0 1-2.95-1.55zm13.17-5.72h3.35c1.39 0 2.16.67 2.16 1.82a1.59 1.59 0 0 1-1 1.56A1.66 1.66 0 0 1 472 53.5a2.05 2.05 0 0 1-2.22 2h-3.48zm3 2.88c.62 0 1-.33 1-.84s-.39-.79-1-.79h-1.42v1.63zm.08 3c.64 0 1-.34 1-.9s-.37-.85-1-.85h-1.54v1.75zm5.68-5.88h3a2.22 2.22 0 0 1 2.48 2.25 2.17 2.17 0 0 1-1.38 2.08l1.71 2.8h-1.71l-1.54-2.59h-1v2.59h-1.55zm2.77 3.31c.71 0 1.16-.37 1.16-1s-.48-1-1.17-1h-1.21v2zm5.87-3.31h5.1v1.31h-3.55v1.55h3.07v1.31h-3.07v1.65h3.58v1.31h-5.13zm10.34-.01h1.57l2.56 7.14h-1.62l-.48-1.43h-2.63l-.47 1.43h-1.5zm1.63 4.45l-.9-2.73-.91 2.73zm5.3-4.44h1.55v3.27l2.68-3.27h1.75l-2.39 2.84 2.59 4.29h-1.77l-1.9-3.2-1 1v2.16H501zm8.88 0h2.87a2.59 2.59 0 0 1 2.86 2.59v1.95a2.63 2.63 0 0 1-2.84 2.62h-2.89zm2.81 5.82a1.26 1.26 0 0 0 1.37-1.23v-2a1.29 1.29 0 0 0-1.42-1.24h-1.21v4.51zm5.9-1.11V51a3 3 0 0 1 5.9 0v2a2.71 2.71 0 0 1-2.93 2.67c-1.56-.01-2.97-.83-2.97-2.55zm4.35-.06v-2.2a1.29 1.29 0 0 0-1.42-1.25 1.25 1.25 0 0 0-1.38 1.28v2.18a1.29 1.29 0 0 0 1.42 1.27 1.27 1.27 0 0 0 1.38-1.28zm4.06-4.65h1.57l1 4.67 1.2-4.67h1.35l1.18 4.69 1.07-4.69H536l-1.82 7.16h-1.46l-1.21-4.77-1.22 4.77h-1.43zm11.78 0h1.51l2.9 4.44v-4.44h1.47v7.13h-1.46L540.26 51v4.53h-1.46z"/><path class="cls-4" d="M393.94 198.2h2.87a2.59 2.59 0 0 1 2.86 2.56v1.95a2.63 2.63 0 0 1-2.84 2.62h-2.89zm2.81 5.82a1.26 1.26 0 0 0 1.37-1.26v-2a1.29 1.29 0 0 0-1.42-1.24h-1.21V204zm6.08-5.82h1.55v7.13h-1.55zm4.4 5.71l1.17-.74a2 2 0 0 0 1.76 1c.63 0 1.26-.23 1.26-.81s-.39-.68-.89-.82l-1.22-.31a1.9 1.9 0 0 1-1.7-1.94 2.36 2.36 0 0 1 2.64-2.21 2.66 2.66 0 0 1 2.58 1.27l-1.12.73a1.66 1.66 0 0 0-1.51-.74c-.55 0-1.06.22-1.06.78s.46.64 1 .79l1.18.3a1.93 1.93 0 0 1 1.67 2c0 1.43-1.29 2.25-2.81 2.25a3 3 0 0 1-2.95-1.55zm8.61-.99v-2.22a2.65 2.65 0 0 1 2.92-2.63c1.37 0 2.81.73 2.81 2.35v.28h-1.47v-.14a1.22 1.22 0 0 0-1.33-1.17 1.25 1.25 0 0 0-1.38 1.26v2.22a1.28 1.28 0 0 0 1.42 1.25 1.18 1.18 0 0 0 1.29-1.18v-.13h1.47v.28c0 1.62-1.39 2.35-2.77 2.35-1.56 0-2.96-.83-2.96-2.52zm8.84-4.72h1.55v5.8h3.43v1.31h-5zm7.64 4.7v-2.16a3 3 0 0 1 5.9 0v2.06a2.71 2.71 0 0 1-2.93 2.67c-1.57-.03-2.97-.85-2.97-2.57zm4.35-.06v-2.2a1.29 1.29 0 0 0-1.42-1.25 1.25 1.25 0 0 0-1.38 1.28v2.18a1.29 1.29 0 0 0 1.42 1.27 1.27 1.27 0 0 0 1.38-1.28zm4.22 1.07l1.17-.74a2 2 0 0 0 1.76 1c.63 0 1.26-.23 1.26-.81s-.39-.68-.89-.82l-1.22-.31a1.9 1.9 0 0 1-1.7-1.94 2.36 2.36 0 0 1 2.64-2.21 2.66 2.66 0 0 1 2.58 1.27l-1.12.73a1.66 1.66 0 0 0-1.51-.74c-.55 0-1.06.22-1.06.78s.46.64 1 .79l1.18.3a1.93 1.93 0 0 1 1.67 2c0 1.43-1.29 2.25-2.81 2.25a3 3 0 0 1-2.95-1.55zm8.74-1.08v-4.63h1.56v4.5a1.25 1.25 0 0 0 1.34 1.41c.86 0 1.32-.48 1.32-1.41v-4.5h1.54v4.55a2.61 2.61 0 0 1-2.89 2.7c-1.73-.01-2.87-.87-2.87-2.62zm9.05-4.63h3a2.22 2.22 0 0 1 2.48 2.25 2.16 2.16 0 0 1-1.38 2.08l1.71 2.8h-1.71l-1.54-2.59h-1v2.59h-1.55zm2.77 3.31c.71 0 1.16-.37 1.16-1s-.48-1-1.17-1h-1.21v2zm5.87-3.31h5.1v1.31h-3.55v1.55h3.07v1.31h-3.07V204h3.58v1.31h-5.13zm7.68 5.71l1.17-.74a2 2 0 0 0 1.76 1c.63 0 1.26-.23 1.26-.81s-.39-.68-.89-.82l-1.22-.31a1.9 1.9 0 0 1-1.7-1.94 2.36 2.36 0 0 1 2.64-2.21 2.66 2.66 0 0 1 2.58 1.27l-1.12.73a1.66 1.66 0 0 0-1.51-.74c-.55 0-1.06.22-1.06.78s.46.64 1 .79l1.18.3a1.93 1.93 0 0 1 1.67 2c0 1.43-1.29 2.25-2.81 2.25a3 3 0 0 1-2.95-1.55z"/><circle class="cls-5" cx="421.2" cy="100.8" r="27.93"/><path class="cls-2" d="M405.17 98h2.75a2.49 2.49 0 0 1 2.74 2.45v1.87a2.52 2.52 0 0 1-2.72 2.51h-2.77zm2.69 5.58a1.21 1.21 0 0 0 1.31-1.21v-1.97a1.23 1.23 0 0 0-1.36-1.19h-1.16v4.32zm5.65-1.11v-2.07a2.84 2.84 0 0 1 5.65 0v2a2.6 2.6 0 0 1-2.81 2.56c-1.5-.06-2.84-.85-2.84-2.49zm4.17-.06v-2.11a1.24 1.24 0 0 0-1.36-1.2 1.2 1.2 0 0 0-1.32 1.23v2.09a1.23 1.23 0 0 0 1.36 1.22 1.22 1.22 0 0 0 1.32-1.23zm4.5-4.41h1.45l2.78 4.25V98h1.41v6.83h-1.42l-2.82-4.34v4.34h-1.4zm8.82 0h4.89v1.26h-3.4v1.49h2.94v1.26h-2.94v1.58h3.43v1.26H431z"/><path class="cls-4" d="M409.85 140.73h2a3.35 3.35 0 0 1 1.94.45 1.57 1.57 0 0 1 .62 1.36 1.47 1.47 0 0 1-.38 1 1.84 1.84 0 0 1-1.11.53 2.15 2.15 0 0 1 1.26.54 1.58 1.58 0 0 1 .4 1.15 1.85 1.85 0 0 1-.65 1.52 2.87 2.87 0 0 1-1.86.53h-2.19zm.5 3.18h1.57a2.51 2.51 0 0 0 1.46-.33 1.21 1.21 0 0 0 .46-1 1.13 1.13 0 0 0-.52-1 2.93 2.93 0 0 0-1.54-.32h-1.44zm0 .44v3.08H412q2 0 2-1.61t-2.09-1.47zm9.17 3.52l-.12-.84a2.52 2.52 0 0 1-.82.73 2.2 2.2 0 0 1-1 .21 1.72 1.72 0 0 1-1.22-.4 1.43 1.43 0 0 1-.43-1.11 1.37 1.37 0 0 1 .65-1.21 3.52 3.52 0 0 1 1.87-.45h1v-.35a1.81 1.81 0 0 0-.31-1.14 1.19 1.19 0 0 0-1-.39 3.31 3.31 0 0 0-1.53.41l-.18-.42a4 4 0 0 1 1.73-.41 1.72 1.72 0 0 1 1.31.45 2 2 0 0 1 .43 1.42v3.53zm-2-.34a1.69 1.69 0 0 0 1.83-1.84v-.52h-.93a3.5 3.5 0 0 0-1.59.35 1 1 0 0 0-.48.92 1 1 0 0 0 .3.77 1.24 1.24 0 0 0 .91.32zm7.66-1.04a1.26 1.26 0 0 1-.54 1.1 2.64 2.64 0 0 1-1.54.38 3.67 3.67 0 0 1-1.69-.33v-.52a3.73 3.73 0 0 0 1.69.4 2.23 2.23 0 0 0 1.19-.26.79.79 0 0 0 .41-.7.85.85 0 0 0-.32-.67 3.58 3.58 0 0 0-1.07-.54 6.12 6.12 0 0 1-1.12-.5 1.53 1.53 0 0 1-.49-.47 1.18 1.18 0 0 1-.16-.64 1.09 1.09 0 0 1 .5-.94 2.43 2.43 0 0 1 1.4-.35 4.19 4.19 0 0 1 1.63.32l-.18.44a3.82 3.82 0 0 0-1.45-.32 2.1 2.1 0 0 0-1 .21.66.66 0 0 0-.38.6.82.82 0 0 0 .3.66 4.11 4.11 0 0 0 1.15.56 5.67 5.67 0 0 1 1 .47 1.52 1.52 0 0 1 .49.47 1.16 1.16 0 0 1 .18.63zm1.6-5.4q0-.47.31-.47a.27.27 0 0 1 .24.12.6.6 0 0 1 .08.35.62.62 0 0 1-.08.35.27.27 0 0 1-.24.13q-.31-.01-.31-.48zm.55 6.78h-.48v-5.31h.48zm4.2.13a2.27 2.27 0 0 1-1.78-.72 2.89 2.89 0 0 1-.64-2 2.94 2.94 0 0 1 .67-2.05 2.35 2.35 0 0 1 1.83-.73 3.68 3.68 0 0 1 1.32.24l-.13.43a3.88 3.88 0 0 0-1.2-.23 1.82 1.82 0 0 0-1.48.6 2.64 2.64 0 0 0-.5 1.74 2.56 2.56 0 0 0 .5 1.68 1.72 1.72 0 0 0 1.41.61 3.46 3.46 0 0 0 1.34-.26v.45a3 3 0 0 1-1.34.24zm-37.3 14.23v-7.14h.5v7.14zm6.4 0v-3.44a1.68 1.68 0 0 0-.34-1.16 1.36 1.36 0 0 0-1-.36 1.81 1.81 0 0 0-1.39.48 2.27 2.27 0 0 0-.44 1.56v2.93h-.48v-5.31h.41l.09.73a2 2 0 0 1 1.84-.83q1.81 0 1.81 1.94v3.47zm4.47-4.88h-1.25v4.89h-.48v-4.89h-1v-.28l1-.18v-.41a2.32 2.32 0 0 1 .36-1.43 1.41 1.41 0 0 1 1.17-.46 3 3 0 0 1 .88.13l-.11.42a2.59 2.59 0 0 0-.78-.12.92.92 0 0 0-.8.33 1.93 1.93 0 0 0-.24 1.09v.49h1.25zm5.72 2.22a3 3 0 0 1-.63 2 2.17 2.17 0 0 1-1.74.73 2.25 2.25 0 0 1-1.23-.34 2.15 2.15 0 0 1-.82-1 3.51 3.51 0 0 1-.28-1.46 3 3 0 0 1 .63-2 2.17 2.17 0 0 1 1.73-.73 2.13 2.13 0 0 1 1.72.73 3 3 0 0 1 .62 2.07zm-4.19 0a2.7 2.7 0 0 0 .48 1.71 1.82 1.82 0 0 0 2.72 0 2.7 2.7 0 0 0 .48-1.71 2.66 2.66 0 0 0-.49-1.7 1.65 1.65 0 0 0-1.36-.61 1.63 1.63 0 0 0-1.36.6 2.69 2.69 0 0 0-.47 1.71zm8.05-2.75a4.17 4.17 0 0 1 .72.07l-.09.46a2.83 2.83 0 0 0-.69-.08 1.34 1.34 0 0 0-1.11.58 2.35 2.35 0 0 0-.43 1.46v2.93h-.48v-5.31h.4v1a2.26 2.26 0 0 1 .7-.82 1.64 1.64 0 0 1 .98-.29zm8.73 5.41v-3.48a1.73 1.73 0 0 0-.3-1.13 1.15 1.15 0 0 0-.93-.36 1.52 1.52 0 0 0-1.21.45 2.12 2.12 0 0 0-.39 1.41v3.11h-.49v-3.63q0-1.34-1.23-1.34a1.45 1.45 0 0 0-1.22.49 2.53 2.53 0 0 0-.38 1.56v2.93h-.48v-5.31h.4l.1.73a1.53 1.53 0 0 1 .63-.61 1.86 1.86 0 0 1 .89-.22 1.53 1.53 0 0 1 1.61.94 1.8 1.8 0 0 1 .7-.7 2 2 0 0 1 1-.24 1.7 1.7 0 0 1 1.3.46 2.1 2.1 0 0 1 .43 1.47v3.47zm5.72 0l-.12-.84a2.52 2.52 0 0 1-.82.73 2.2 2.2 0 0 1-1 .21 1.73 1.73 0 0 1-1.22-.4 1.43 1.43 0 0 1-.43-1.11 1.37 1.37 0 0 1 .65-1.21 3.51 3.51 0 0 1 1.87-.45h1v-.35a1.81 1.81 0 0 0-.31-1.14 1.19 1.19 0 0 0-1-.39 3.32 3.32 0 0 0-1.53.41l-.18-.42a4 4 0 0 1 1.73-.41 1.72 1.72 0 0 1 1.31.45 2 2 0 0 1 .43 1.42v3.53zm-2-.34a1.69 1.69 0 0 0 1.83-1.84v-.52h-.93a3.5 3.5 0 0 0-1.59.35 1 1 0 0 0-.48.92 1 1 0 0 0 .31.77 1.24 1.24 0 0 0 .91.32zm5.78.01a3.62 3.62 0 0 0 .8-.08v.39a2.56 2.56 0 0 1-.81.12 1.32 1.32 0 0 1-1-.38 1.75 1.75 0 0 1-.33-1.18v-3.43h-.79v-.28l.79-.22.24-1.2h.19v1.28h1.56v.42H432v3.36a1.53 1.53 0 0 0 .21.9.78.78 0 0 0 .7.3zm2.18-6.45q0-.47.31-.47a.27.27 0 0 1 .24.12.59.59 0 0 1 .09.35.61.61 0 0 1-.09.35.27.27 0 0 1-.24.13q-.31-.01-.31-.48zm.55 6.78h-.48v-5.31h.48zm6.46-2.66a3 3 0 0 1-.63 2 2.17 2.17 0 0 1-1.74.73 2.25 2.25 0 0 1-1.23-.34 2.16 2.16 0 0 1-.82-1 3.52 3.52 0 0 1-.28-1.46 3 3 0 0 1 .63-2 2.17 2.17 0 0 1 1.73-.73 2.13 2.13 0 0 1 1.72.73 3 3 0 0 1 .62 2.07zm-4.19 0a2.7 2.7 0 0 0 .48 1.71 1.82 1.82 0 0 0 2.72 0 2.7 2.7 0 0 0 .48-1.71 2.66 2.66 0 0 0-.49-1.7 1.65 1.65 0 0 0-1.37-.61 1.63 1.63 0 0 0-1.35.6 2.69 2.69 0 0 0-.46 1.71zm9.67 2.66v-3.44a1.68 1.68 0 0 0-.34-1.16 1.36 1.36 0 0 0-1-.36 1.81 1.81 0 0 0-1.39.48 2.27 2.27 0 0 0-.44 1.56v2.93h-.48v-5.31h.41l.09.73a2 2 0 0 1 1.84-.83q1.81 0 1.81 1.94v3.47z"/><path class="cls-5" d="M491.28 94.38h-6.74v-1.07h8.23v.84C489.31 97.83 488 102 487.7 107h-1.3c.31-4.9 2.16-9.69 4.88-12.62zm3.78 8.96V97c0-2.55 2.07-3.91 4.42-3.91s4.35 1.36 4.35 3.91v6.36c0 2.51-2 3.89-4.35 3.89s-4.42-1.34-4.42-3.91zm7.56-.12v-6.3a2.92 2.92 0 0 0-3.16-2.92 3 3 0 0 0-3.2 3v6.28a2.94 2.94 0 0 0 3.22 2.95 2.88 2.88 0 0 0 3.14-3zm3.57-1.56v-1.46a1.43 1.43 0 0 1 2.85 0v1.51a1.3 1.3 0 0 1-1.45 1.27 1.25 1.25 0 0 1-1.4-1.32zm2.38.07v-1.6a.88.88 0 0 0-1-.87.85.85 0 0 0-.94.87v1.6a.82.82 0 0 0 .93.86.88.88 0 0 0 1.01-.87zm3.55-2.73h.48l-5.06 8H507zm-1.63 6.85v-1.45a1.31 1.31 0 0 1 1.42-1.37 1.27 1.27 0 0 1 1.44 1.33v1.51a1.3 1.3 0 0 1-1.45 1.27 1.24 1.24 0 0 1-1.41-1.34zm2.39 0v-1.59a.88.88 0 0 0-1-.88.85.85 0 0 0-.94.88v1.59a.83.83 0 0 0 .94.87.88.88 0 0 0 1-.9z"/><circle class="cls-6" cx="497" cy="100.8" r="27.93"/><path class="cls-7" d="M497 72.87a27.93 27.93 0 1 1 0 55.85m24.7-40.95a27.93 27.93 0 0 1-49.4 26.05"/><path class="cls-4" d="M488.9 147.87h-.5v-3.51h-4.17v3.51h-.5v-7.14h.5v3.17h4.17v-3.17h.5zm6.59-2.66a3 3 0 0 1-.63 2 2.17 2.17 0 0 1-1.74.73 2.25 2.25 0 0 1-1.23-.34 2.16 2.16 0 0 1-.82-1 3.52 3.52 0 0 1-.28-1.46 3 3 0 0 1 .63-2 2.17 2.17 0 0 1 1.73-.73 2.13 2.13 0 0 1 1.72.73 3 3 0 0 1 .62 2.07zm-4.19 0a2.7 2.7 0 0 0 .48 1.71 1.82 1.82 0 0 0 2.72 0 2.7 2.7 0 0 0 .48-1.71 2.66 2.66 0 0 0-.49-1.7 1.65 1.65 0 0 0-1.37-.61 1.63 1.63 0 0 0-1.35.6 2.69 2.69 0 0 0-.47 1.71zm12.59 2.66v-3.48a1.74 1.74 0 0 0-.3-1.13 1.15 1.15 0 0 0-.93-.36 1.51 1.51 0 0 0-1.21.45 2.12 2.12 0 0 0-.39 1.41v3.11h-.49v-3.63q0-1.34-1.23-1.34a1.45 1.45 0 0 0-1.22.49 2.53 2.53 0 0 0-.38 1.56v2.93h-.48v-5.31h.4l.1.73a1.52 1.52 0 0 1 .63-.61 1.86 1.86 0 0 1 .89-.22 1.53 1.53 0 0 1 1.61.94 1.8 1.8 0 0 1 .7-.7 2 2 0 0 1 1-.24 1.7 1.7 0 0 1 1.3.46 2.11 2.11 0 0 1 .43 1.47v3.47zm4.64.13a2.31 2.31 0 0 1-1.8-.71 2.87 2.87 0 0 1-.65-2 3.11 3.11 0 0 1 .63-2 2.06 2.06 0 0 1 1.68-.76 1.82 1.82 0 0 1 1.48.65 2.7 2.7 0 0 1 .54 1.78v.39h-3.82a2.51 2.51 0 0 0 .51 1.67 1.8 1.8 0 0 0 1.43.58 4.42 4.42 0 0 0 .8-.06 4.85 4.85 0 0 0 .87-.27v.44a3.89 3.89 0 0 1-.83.27 4.6 4.6 0 0 1-.84.02zm-.14-5.08a1.59 1.59 0 0 0-1.23.51 2.38 2.38 0 0 0-.54 1.46h3.28a2.32 2.32 0 0 0-.4-1.44 1.32 1.32 0 0 0-1.11-.56zM487.2 158.6a3.63 3.63 0 0 1-.94 2.72 3.81 3.81 0 0 1-2.77.92h-1.71v-7.14h1.93a3.13 3.13 0 0 1 3.49 3.5zm-.54 0a2.73 2.73 0 0 0-3.07-3.08h-1.31v6.26h1.18q3.19.01 3.2-3.17zm4.5 3.73a2.31 2.31 0 0 1-1.8-.71 2.87 2.87 0 0 1-.65-2 3.11 3.11 0 0 1 .63-2 2.06 2.06 0 0 1 1.68-.76 1.82 1.82 0 0 1 1.48.65 2.7 2.7 0 0 1 .54 1.78v.39h-3.82a2.51 2.51 0 0 0 .51 1.67 1.8 1.8 0 0 0 1.43.58 4.42 4.42 0 0 0 .8-.06 4.85 4.85 0 0 0 .87-.27v.4a3.89 3.89 0 0 1-.83.27 4.6 4.6 0 0 1-.84.06zm-.14-5.08a1.59 1.59 0 0 0-1.23.51 2.38 2.38 0 0 0-.54 1.46h3.28a2.32 2.32 0 0 0-.4-1.44 1.32 1.32 0 0 0-1.13-.53zm5.19 4.65a3.61 3.61 0 0 0 .8-.08v.39a2.56 2.56 0 0 1-.81.12 1.32 1.32 0 0 1-1-.38 1.74 1.74 0 0 1-.33-1.18v-3.43H494v-.28l.79-.22.24-1.2h.25v1.28h1.56v.42h-1.56v3.36a1.54 1.54 0 0 0 .21.9.78.78 0 0 0 .72.3zm5.47.33l-.12-.84a2.52 2.52 0 0 1-.82.73 2.2 2.2 0 0 1-1 .21 1.73 1.73 0 0 1-1.22-.4 1.43 1.43 0 0 1-.43-1.11 1.37 1.37 0 0 1 .65-1.21 3.51 3.51 0 0 1 1.87-.45h1v-.35a1.81 1.81 0 0 0-.31-1.14 1.19 1.19 0 0 0-1-.39 3.32 3.32 0 0 0-1.53.41l-.18-.42a4 4 0 0 1 1.73-.41 1.72 1.72 0 0 1 1.31.45 2 2 0 0 1 .43 1.42v3.53zm-2-.34a1.69 1.69 0 0 0 1.83-1.84v-.52h-.93a3.5 3.5 0 0 0-1.59.35 1 1 0 0 0-.48.92 1 1 0 0 0 .31.77 1.24 1.24 0 0 0 .9.32zm4.32-6.44q0-.47.31-.47a.27.27 0 0 1 .24.12.59.59 0 0 1 .09.35.61.61 0 0 1-.09.35.27.27 0 0 1-.24.13q-.31-.01-.31-.48zm.55 6.78h-.48v-5.31h.48zm2.55 0h-.48v-7.6h.48zm5.36-1.38a1.26 1.26 0 0 1-.54 1.1 2.64 2.64 0 0 1-1.54.38 3.66 3.66 0 0 1-1.69-.33v-.52a3.72 3.72 0 0 0 1.69.4 2.23 2.23 0 0 0 1.19-.26.79.79 0 0 0 .41-.7.85.85 0 0 0-.33-.67 3.57 3.57 0 0 0-1.07-.54 6.09 6.09 0 0 1-1.12-.5 1.55 1.55 0 0 1-.49-.47 1.18 1.18 0 0 1-.16-.64 1.09 1.09 0 0 1 .5-.94 2.43 2.43 0 0 1 1.4-.35 4.19 4.19 0 0 1 1.63.32l-.18.44a3.83 3.83 0 0 0-1.45-.32 2.1 2.1 0 0 0-1 .21.66.66 0 0 0-.38.6.83.83 0 0 0 .29.66 4.12 4.12 0 0 0 1.16.56 5.7 5.7 0 0 1 1 .47 1.51 1.51 0 0 1 .49.47 1.15 1.15 0 0 1 .19.63z"/><circle class="cls-6" cx="421.2" cy="247.43" r="27.93"/><path class="cls-5" d="M412.7 249.73h-5.82v-.94l5.46-8.87h1.28l-5.52 8.85h4.6v-3l1.15-1v4h2v1h-2v3.87h-1.15zm5.72.27v-6.4c0-2.55 2.07-3.91 4.42-3.91s4.35 1.36 4.35 3.91v6.4c0 2.51-2 3.89-4.35 3.89s-4.42-1.35-4.42-3.89zm7.56-.12v-6.3a2.92 2.92 0 0 0-3.16-2.91 3 3 0 0 0-3.2 3v6.28a2.94 2.94 0 0 0 3.22 2.95 2.88 2.88 0 0 0 3.16-3.04zm3.57-1.59v-1.46a1.43 1.43 0 0 1 2.85 0v1.51a1.3 1.3 0 0 1-1.45 1.27 1.25 1.25 0 0 1-1.4-1.32zm2.38.07v-1.6a.88.88 0 0 0-1-.87.85.85 0 0 0-.94.87v1.6a.82.82 0 0 0 .93.86.88.88 0 0 0 1.01-.86zm3.55-2.77h.52l-5.06 8h-.49zm-1.63 6.85V251a1.31 1.31 0 0 1 1.42-1.37 1.27 1.27 0 0 1 1.44 1.33v1.51a1.3 1.3 0 0 1-1.45 1.27 1.24 1.24 0 0 1-1.41-1.31zm2.39 0v-1.59a.88.88 0 0 0-1-.88.85.85 0 0 0-.94.88v1.59a.82.82 0 0 0 .94.87.88.88 0 0 0 1-.86z"/><path class="cls-4" d="M405 294.51h-.5v-7.14h3.91v.46H405v3h3.22v.46H405zm6.81.09a2.31 2.31 0 0 1-1.8-.71 2.86 2.86 0 0 1-.65-2 3.12 3.12 0 0 1 .63-2 2.06 2.06 0 0 1 1.68-.76 1.82 1.82 0 0 1 1.48.65 2.7 2.7 0 0 1 .54 1.78v.39h-3.82a2.51 2.51 0 0 0 .51 1.67 1.79 1.79 0 0 0 1.43.58 4.44 4.44 0 0 0 .8-.06 4.85 4.85 0 0 0 .87-.27v.44a3.88 3.88 0 0 1-.83.27 4.59 4.59 0 0 1-.84.02zm-.14-5.08a1.59 1.59 0 0 0-1.23.51 2.39 2.39 0 0 0-.54 1.46h3.28a2.31 2.31 0 0 0-.4-1.44 1.32 1.32 0 0 0-1.12-.52zm5.72-.42a2.2 2.2 0 0 1 1 .21 2 2 0 0 1 .75.72v-3.12h.48v7.6h-.32l-.12-.81a2 2 0 0 1-1.74.91 2.08 2.08 0 0 1-1.68-.68 3 3 0 0 1-.58-2 3.32 3.32 0 0 1 .58-2.1 2 2 0 0 1 1.63-.73zm0 .44a1.5 1.5 0 0 0-1.31.61 3 3 0 0 0-.44 1.77q0 2.26 1.75 2.26a1.59 1.59 0 0 0 1.32-.52 2.78 2.78 0 0 0 .42-1.72v-.08a3 3 0 0 0-.41-1.77 1.57 1.57 0 0 0-1.33-.56zm6.46 5.06a2.31 2.31 0 0 1-1.8-.71 2.87 2.87 0 0 1-.65-2 3.11 3.11 0 0 1 .63-2 2.06 2.06 0 0 1 1.68-.76 1.82 1.82 0 0 1 1.48.65 2.7 2.7 0 0 1 .54 1.78v.39h-3.83a2.51 2.51 0 0 0 .51 1.67 1.8 1.8 0 0 0 1.43.58 4.42 4.42 0 0 0 .8-.06 4.85 4.85 0 0 0 .87-.27v.44a3.89 3.89 0 0 1-.83.27 4.6 4.6 0 0 1-.83.02zm-.14-5.08a1.59 1.59 0 0 0-1.23.51 2.38 2.38 0 0 0-.54 1.46h3.28a2.32 2.32 0 0 0-.4-1.44 1.32 1.32 0 0 0-1.11-.52zm5.87-.42a4.17 4.17 0 0 1 .72.07l-.09.46a2.83 2.83 0 0 0-.69-.08 1.34 1.34 0 0 0-1.11.58 2.35 2.35 0 0 0-.43 1.46v2.93h-.48v-5.32h.41v1a2.26 2.26 0 0 1 .7-.82 1.64 1.64 0 0 1 .97-.28zm5.33 5.41l-.12-.84a2.52 2.52 0 0 1-.82.73 2.2 2.2 0 0 1-1 .21 1.73 1.73 0 0 1-1.22-.4 1.43 1.43 0 0 1-.43-1.11 1.37 1.37 0 0 1 .65-1.21 3.51 3.51 0 0 1 1.87-.45h1v-.35a1.81 1.81 0 0 0-.31-1.14 1.19 1.19 0 0 0-1-.39 3.32 3.32 0 0 0-1.53.41l-.18-.42a4 4 0 0 1 1.73-.41 1.72 1.72 0 0 1 1.31.45 2 2 0 0 1 .43 1.42v3.53zm-2-.34a1.69 1.69 0 0 0 1.83-1.84v-.52h-.93a3.5 3.5 0 0 0-1.59.35 1 1 0 0 0-.48.92 1 1 0 0 0 .31.77 1.24 1.24 0 0 0 .95.31zm4.85.34h-.48v-7.6h.48z"/><circle class="cls-6" cx="497" cy="247.43" r="27.93"/><path class="cls-7" d="M497 219.5a27.93 27.93 0 0 1 27.93 27.93m0 0A27.93 27.93 0 0 1 497 275.36m0 0a27.93 27.93 0 0 1-27.93-27.93m14.35 24.46A27.93 27.93 0 0 1 472.36 234"/><path class="cls-5" d="M485.28 250.38v-.71a3.32 3.32 0 0 1 2.36-3.06 2.9 2.9 0 0 1-2.18-2.76v-.67c0-2.32 2-3.49 4-3.49s4 1 4 3.31v.84a3 3 0 0 1-2.24 2.74 3.17 3.17 0 0 1 2.39 3v.67c0 2.24-1.76 3.54-4.16 3.54s-4.17-1.25-4.17-3.41zm7.09-.17v-.56a3 3 0 0 0-5.88 0v.65a2.73 2.73 0 0 0 2.95 2.6 2.64 2.64 0 0 0 2.93-2.7zm-.1-6.53V243c0-1.63-1.47-2.36-2.89-2.36a2.57 2.57 0 0 0-2.76 2.43v.63a2.64 2.64 0 0 0 2.85 2.49 2.68 2.68 0 0 0 2.8-2.52zm4.08 7.25v-.67h1.13v.46c0 1.44 1.42 2.15 2.87 2.15s3-.73 3-3.47v-.4a2.69 2.69 0 0 0-2.87-3 4.29 4.29 0 0 0-2.74 1.05l-1.09-.15.42-7h6.78v1.1h-5.82l-.31 5.09a5.15 5.15 0 0 1 3.18-1 3.53 3.53 0 0 1 3.68 3.72v.63c0 3-1.82 4.44-4.27 4.44-2.69-.04-3.96-1.53-3.96-2.95zm10.39-2.64v-1.46a1.43 1.43 0 0 1 2.85 0v1.51a1.3 1.3 0 0 1-1.45 1.27 1.25 1.25 0 0 1-1.4-1.32zm2.38.07v-1.6a.88.88 0 0 0-1-.87.85.85 0 0 0-.94.87v1.6a.82.82 0 0 0 .93.86.88.88 0 0 0 1.01-.86zm3.55-2.77h.48l-5.06 8h-.49zm-1.67 6.84V251a1.31 1.31 0 0 1 1.42-1.37 1.27 1.27 0 0 1 1.44 1.33v1.51a1.3 1.3 0 0 1-1.45 1.27 1.24 1.24 0 0 1-1.41-1.31zm2.39 0v-1.59a.88.88 0 0 0-1-.88.85.85 0 0 0-.94.88v1.59a.83.83 0 0 0 .94.87.88.88 0 0 0 1.04-.85z"/><path class="cls-4" d="M489.74 292.66a1.71 1.71 0 0 1-.66 1.42 2.72 2.72 0 0 1-1.75.52 5.47 5.47 0 0 1-2-.29v-.5a5.07 5.07 0 0 0 2 .33 2.2 2.2 0 0 0 1.39-.4 1.28 1.28 0 0 0 .52-1.06 1.23 1.23 0 0 0-.24-.68 1.57 1.57 0 0 0-.56-.49 6.9 6.9 0 0 0-1.13-.47 3.87 3.87 0 0 1-1.51-.81 1.74 1.74 0 0 1 .21-2.47 2.49 2.49 0 0 1 1.61-.51 4.73 4.73 0 0 1 1.89.38l-.18.43a4.41 4.41 0 0 0-1.7-.37 2 2 0 0 0-1.26.37 1.2 1.2 0 0 0-.47 1 1.31 1.31 0 0 0 .14.65 1.33 1.33 0 0 0 .47.46 6.42 6.42 0 0 0 1.12.49 6.05 6.05 0 0 1 1.25.56 1.79 1.79 0 0 1 .61.62 1.68 1.68 0 0 1 .25.82zm3.09 1.51a3.62 3.62 0 0 0 .8-.08v.39a2.56 2.56 0 0 1-.81.12 1.32 1.32 0 0 1-1-.38 1.75 1.75 0 0 1-.33-1.18v-3.43h-.79v-.28l.79-.22.24-1.2h.25v1.28h1.56v.42h-1.56V293a1.53 1.53 0 0 0 .21.9.78.78 0 0 0 .64.27zm5.47.34l-.12-.84a2.52 2.52 0 0 1-.82.73 2.2 2.2 0 0 1-1 .21 1.73 1.73 0 0 1-1.22-.4 1.43 1.43 0 0 1-.43-1.11 1.37 1.37 0 0 1 .65-1.21 3.51 3.51 0 0 1 1.87-.45h1v-.35a1.81 1.81 0 0 0-.31-1.14 1.19 1.19 0 0 0-1-.39 3.32 3.32 0 0 0-1.53.41l-.18-.42a4 4 0 0 1 1.73-.41 1.72 1.72 0 0 1 1.31.45 2 2 0 0 1 .43 1.42v3.53zm-2-.34a1.69 1.69 0 0 0 1.83-1.84v-.52h-.93a3.5 3.5 0 0 0-1.59.35 1 1 0 0 0-.48.92 1 1 0 0 0 .31.77 1.24 1.24 0 0 0 .9.31zm5.77 0a3.61 3.61 0 0 0 .8-.08v.39a2.56 2.56 0 0 1-.81.12 1.32 1.32 0 0 1-1-.38 1.74 1.74 0 0 1-.33-1.18v-3.43h-.79v-.28l.79-.22.24-1.2h.25v1.28h1.56v.42h-1.56V293a1.54 1.54 0 0 0 .21.9.78.78 0 0 0 .64.27zm4.4.43a2.31 2.31 0 0 1-1.8-.71 2.87 2.87 0 0 1-.65-2 3.11 3.11 0 0 1 .63-2 2.06 2.06 0 0 1 1.68-.76 1.82 1.82 0 0 1 1.48.65 2.7 2.7 0 0 1 .54 1.78v.39h-3.82a2.51 2.51 0 0 0 .51 1.67 1.8 1.8 0 0 0 1.43.58 4.42 4.42 0 0 0 .8-.06 4.85 4.85 0 0 0 .87-.27v.44a3.89 3.89 0 0 1-.83.27 4.6 4.6 0 0 1-.84.02zm-.14-5.08a1.59 1.59 0 0 0-1.23.51 2.38 2.38 0 0 0-.54 1.46h3.28a2.32 2.32 0 0 0-.4-1.44 1.32 1.32 0 0 0-1.12-.52z"/><path class="cls-5" d="M560.38 250.87v-.61h1.13v.48c0 1.47 1.49 2.15 3 2.15a2.93 2.93 0 1 0-.06-5.86h-1.55v-1h1.55a2.68 2.68 0 0 0 0-5.36c-1.47 0-2.82.65-2.82 2.34v.33h-1.11v-.52c0-1.82 1.51-3.12 3.94-3.12 2.83 0 3.77 1.9 3.77 3.41a3.12 3.12 0 0 1-2.3 3.33v.06a3.44 3.44 0 0 1 2.78 3.35c0 2.51-1.84 4-4.27 4-2.77-.01-4.06-1.5-4.06-2.98zm10.92-.87v-6.4c0-2.55 2.07-3.91 4.42-3.91s4.35 1.36 4.35 3.91v6.4c0 2.51-2 3.89-4.35 3.89s-4.42-1.35-4.42-3.89zm7.56-.12v-6.3a2.92 2.92 0 0 0-3.16-2.91 3 3 0 0 0-3.2 3v6.28a2.94 2.94 0 0 0 3.22 2.95 2.88 2.88 0 0 0 3.14-3.04zm3.57-1.59v-1.46a1.43 1.43 0 0 1 2.85 0v1.51a1.3 1.3 0 0 1-1.45 1.27 1.25 1.25 0 0 1-1.4-1.32zm2.38.07v-1.6a.88.88 0 0 0-1-.87.85.85 0 0 0-.94.87v1.6a.82.82 0 0 0 .93.86.88.88 0 0 0 1.01-.86zm3.55-2.77h.48l-5.06 8h-.49zm-1.63 6.85V251a1.31 1.31 0 0 1 1.42-1.37 1.27 1.27 0 0 1 1.44 1.33v1.51a1.3 1.3 0 0 1-1.45 1.27 1.24 1.24 0 0 1-1.41-1.31zm2.39 0v-1.59a.88.88 0 0 0-1-.88.85.85 0 0 0-.94.88v1.59a.82.82 0 0 0 .94.87.88.88 0 0 0 1-.86z"/><circle class="cls-6" cx="572.8" cy="247.43" r="27.93"/><path class="cls-7" d="M572.8 219.5a28 28 0 0 1 27 35"/><path class="cls-4" d="M561.42 294.51v-7.14h.5V294h3.4v.47zm9.7-2.67a3 3 0 0 1-.63 2 2.17 2.17 0 0 1-1.74.73 2.25 2.25 0 0 1-1.23-.34 2.16 2.16 0 0 1-.82-1 3.52 3.52 0 0 1-.28-1.46 3 3 0 0 1 .63-2 2.17 2.17 0 0 1 1.73-.73 2.13 2.13 0 0 1 1.72.73 3 3 0 0 1 .62 2.07zm-4.19 0a2.7 2.7 0 0 0 .48 1.71 1.82 1.82 0 0 0 2.72 0 2.7 2.7 0 0 0 .48-1.71 2.66 2.66 0 0 0-.49-1.7 1.65 1.65 0 0 0-1.37-.61 1.63 1.63 0 0 0-1.35.6 2.69 2.69 0 0 0-.47 1.71zm8.07 2.76a2.27 2.27 0 0 1-1.78-.72 2.89 2.89 0 0 1-.64-2 2.94 2.94 0 0 1 .67-2.05 2.35 2.35 0 0 1 1.83-.73 3.68 3.68 0 0 1 1.32.24l-.13.43a3.88 3.88 0 0 0-1.2-.23 1.82 1.82 0 0 0-1.48.6 2.64 2.64 0 0 0-.5 1.74 2.56 2.56 0 0 0 .5 1.68 1.72 1.72 0 0 0 1.41.61 3.46 3.46 0 0 0 1.34-.26v.45a3 3 0 0 1-1.34.24zm6.16-.09l-.12-.84a2.52 2.52 0 0 1-.82.73 2.2 2.2 0 0 1-1 .21 1.72 1.72 0 0 1-1.22-.4 1.43 1.43 0 0 1-.43-1.11 1.37 1.37 0 0 1 .65-1.21 3.52 3.52 0 0 1 1.87-.45h1v-.35a1.81 1.81 0 0 0-.31-1.14 1.19 1.19 0 0 0-1-.39 3.31 3.31 0 0 0-1.53.41l-.18-.42a4 4 0 0 1 1.73-.41 1.72 1.72 0 0 1 1.31.45 2 2 0 0 1 .43 1.42v3.53zm-2-.34a1.69 1.69 0 0 0 1.83-1.84v-.52h-.93a3.5 3.5 0 0 0-1.59.35 1 1 0 0 0-.48.92 1 1 0 0 0 .3.77 1.24 1.24 0 0 0 .92.31zm4.84.34h-.48v-7.6h.48z"/><path class="cls-7" d="M421.2 219.5a27.93 27.93 0 0 1 27.93 27.93m-8.18-19.75a27.93 27.93 0 0 1 0 39.49"/></g></g></svg>