<svg xmlns="http://www.w3.org/2000/svg" width="1365.725" height="214.043" viewBox="0 0 1365.725 214.043"><path fill="#AA243B" d="M0 0h1365.725v214.043H0z"/><g fill="#F0F1F1"><path d="M103.123 108.84c0-.175.029-.263.145-.408l6.955-8.264c.757-.872 1.165-1.717 1.165-2.734 0-1.311-.786-2.271-2.154-2.271-1.339 0-2.153.814-2.328 2.329 0 .174-.116.262-.319.231l-3.201-.524c-.174-.028-.262-.174-.233-.348.204-2.735 2.416-5.123 6.227-5.123 3.783 0 6.082 2.445 6.082 5.646 0 1.891-.756 3.376-2.008 4.802l-5.208 6.14v.058h6.926c.174 0 .291.117.291.292v2.881c0 .175-.117.29-.291.29h-11.756c-.175 0-.291-.115-.291-.29v-2.707zM126.375 101.942c0-4.393.146-5.295.437-6.167.814-2.533 2.851-4.047 5.964-4.047 3.114 0 5.15 1.514 5.965 4.047.291.872.437 1.774.437 6.167 0 4.395-.146 5.297-.437 6.169-.815 2.532-2.852 4.045-5.965 4.045s-5.15-1.513-5.964-4.045c-.291-.872-.437-1.774-.437-6.169zm6.401 6.782c1.019 0 1.717-.438 2.008-1.34.174-.522.232-1.104.232-5.441 0-4.335-.058-4.917-.232-5.44-.291-.901-.989-1.339-2.008-1.339-1.047 0-1.716.438-2.007 1.339-.174.523-.232 1.105-.232 5.44 0 4.337.058 4.919.232 5.441.291.902.96 1.34 2.007 1.34zM155.185 96.647h-.058l-3.143 2.153c-.174.115-.32.058-.32-.175v-3.607c0-.175.058-.292.204-.407l3.317-2.387a.816.816 0 0 1 .524-.175h3.259c.175 0 .292.116.292.291v19.205c0 .175-.116.29-.292.29h-3.492c-.174 0-.291-.115-.291-.29V96.647zM172.792 108.665v-2.97c0-.115 0-.23.058-.348l5.936-13.065c.087-.174.204-.232.407-.232h3.695c.204 0 .262.116.204.291l-5.937 13.007v.087h3.638c.116 0 .174-.058.174-.174v-4.278c0-.174.116-.291.292-.291h3.375c.174 0 .291.117.291.291v4.278c0 .116.059.174.174.174h1.31c.175 0 .291.116.291.291v2.939c0 .175-.116.291-.291.291h-1.31c-.116 0-.174.058-.174.174v2.416c0 .175-.117.29-.291.29h-3.375c-.175 0-.292-.115-.292-.29v-2.416c0-.116-.058-.174-.174-.174h-7.711c-.174 0-.29-.116-.29-.291zM211.089 92.341c0-.175.116-.291.291-.291h3.492c.204 0 .378.088.495.291l6.983 12.454h.146V92.341c0-.175.116-.291.29-.291h3.288c.175 0 .292.116.292.291v19.205c0 .175-.117.29-.292.29h-3.462c-.233 0-.378-.086-.495-.29l-7.013-12.426h-.146v12.426c0 .175-.116.29-.291.29h-3.288c-.175 0-.291-.115-.291-.29V92.341zM242.75 92.341c.059-.175.175-.291.378-.291h3.667c.204 0 .32.116.378.291l6.692 19.205c.058.175 0 .29-.204.29h-3.782c-.204 0-.32-.086-.378-.29l-1.134-3.463h-6.926l-1.106 3.463c-.058.204-.174.29-.378.29h-3.812c-.203 0-.261-.115-.203-.29l6.808-19.205zm4.453 12.105l-2.24-6.927h-.087l-2.241 6.927h4.568zM265.944 111.836c-.174 0-.29-.115-.29-.29V96.037c0-.117-.059-.176-.175-.176h-5.004c-.175 0-.292-.116-.292-.29v-3.23c0-.175.117-.291.292-.291h14.636c.175 0 .291.116.291.291v3.23c0 .174-.116.29-.291.29h-5.005c-.116 0-.175.059-.175.176v15.509c0 .175-.116.29-.291.29h-3.696zM285.065 92.341c0-.175.116-.291.291-.291h3.696c.174 0 .29.116.29.291v19.205c0 .175-.116.29-.29.29h-3.696c-.175 0-.291-.115-.291-.29V92.341zM300.431 107.355c-.437-1.367-.553-2.473-.553-5.413 0-2.938.116-4.044.553-5.411 1.018-3.202 3.753-4.803 7.216-4.803 3.462 0 6.198 1.601 7.216 4.803.437 1.367.553 2.473.553 5.411 0 2.94-.116 4.046-.553 5.413-1.018 3.201-3.753 4.801-7.216 4.801s-6.198-1.599-7.216-4.801zm10.329-1.164c.233-.698.321-1.658.321-4.249 0-2.589-.087-3.549-.321-4.247-.436-1.368-1.484-2.184-3.113-2.184-1.63 0-2.677.815-3.114 2.184-.233.698-.32 1.658-.32 4.247 0 2.591.087 3.551.32 4.249.437 1.367 1.484 2.182 3.114 2.182 1.629 0 2.677-.814 3.113-2.182zM325.952 92.341c0-.175.116-.291.291-.291h3.492a.54.54 0 0 1 .494.291l6.984 12.454h.146V92.341c0-.175.116-.291.291-.291h3.289c.174 0 .291.116.291.291v19.205c0 .175-.117.29-.291.29h-3.463c-.233 0-.378-.086-.495-.29l-7.013-12.426h-.146v12.426c0 .175-.116.29-.29.29h-3.289c-.175 0-.291-.115-.291-.29V92.341zM357.614 92.341c.059-.175.174-.291.378-.291h3.667c.204 0 .32.116.378.291l6.692 19.205c.059.175 0 .29-.204.29h-3.782c-.204 0-.32-.086-.378-.29l-1.135-3.463h-6.925l-1.106 3.463c-.058.204-.174.29-.378.29h-3.812c-.204 0-.262-.115-.204-.29l6.809-19.205zm4.451 12.105l-2.24-6.927h-.087l-2.241 6.927h4.568zM378.305 92.341c0-.175.116-.291.292-.291h3.695c.175 0 .291.116.291.291v15.509c0 .117.058.176.175.176h8.729c.174 0 .291.115.291.29v3.23c0 .175-.117.29-.291.29h-12.89c-.175 0-.292-.115-.292-.29V92.341zM415.729 92.341c0-.175.116-.291.291-.291h12.687c.174 0 .291.116.291.291v3.112c0 .176-.117.292-.291.292h-8.525c-.117 0-.175.058-.175.175v4.16c0 .117.058.176.175.176h7.1c.174 0 .291.116.291.291v3.084c0 .174-.117.291-.291.291h-7.1c-.117 0-.175.059-.175.175v7.449c0 .175-.116.29-.291.29h-3.695c-.175 0-.291-.115-.291-.29V92.341zM439.243 107.355c-.437-1.367-.553-2.473-.553-5.413 0-2.938.116-4.044.553-5.411 1.018-3.202 3.753-4.803 7.216-4.803 3.462 0 6.198 1.601 7.216 4.803.437 1.367.553 2.473.553 5.411 0 2.94-.116 4.046-.553 5.413-1.019 3.201-3.754 4.801-7.216 4.801s-6.198-1.599-7.216-4.801zm10.33-1.164c.233-.698.32-1.658.32-4.249 0-2.589-.087-3.549-.32-4.247-.437-1.368-1.484-2.184-3.113-2.184s-2.677.815-3.114 2.184c-.233.698-.32 1.658-.32 4.247 0 2.591.087 3.551.32 4.249.437 1.367 1.484 2.182 3.114 2.182s2.676-.814 3.113-2.182zM475.705 111.836c-.262 0-.349-.086-.436-.29l-3.405-7.245h-2.647c-.117 0-.175.058-.175.173v7.072c0 .175-.116.29-.291.29h-3.696c-.174 0-.291-.115-.291-.29V92.341c0-.175.117-.291.291-.291h7.886c4.044 0 6.721 2.531 6.721 6.14 0 2.531-1.338 4.539-3.521 5.499l3.899 7.8c.087.174 0 .348-.204.348h-4.131zm-.32-13.647c0-1.484-1.047-2.444-2.677-2.444h-3.491c-.117 0-.175.058-.175.175v4.568c0 .116.058.174.175.174h3.491c1.63 0 2.677-.96 2.677-2.473zM490.112 104.562V92.341c0-.175.117-.291.291-.291h3.696c.174 0 .292.116.292.291v12.337c0 2.357 1.309 3.695 3.316 3.695 1.979 0 3.289-1.338 3.289-3.695V92.341c0-.175.117-.291.291-.291h3.696c.174 0 .29.116.29.291v12.221c0 4.918-3.142 7.595-7.565 7.595-4.454-.001-7.596-2.678-7.596-7.595zM516.245 92.341c0-.175.116-.291.292-.291h3.462c.234 0 .378.088.466.291l5.005 11.29h.116l4.917-11.29c.087-.203.232-.291.466-.291h3.404c.174 0 .291.116.291.291v19.205c0 .175-.117.29-.291.29h-3.288c-.175 0-.292-.115-.292-.29v-11.145h-.116l-3.667 8.352c-.116.261-.29.377-.553.377h-2.008c-.262 0-.436-.116-.552-.377l-3.666-8.352h-.117v11.145c0 .175-.117.29-.291.29h-3.288c-.175 0-.292-.115-.292-.29V92.341zM566.951 98.978c3.782 0 6.102 2.925 5.547 6.557-.604 3.63-3.857 6.555-7.614 6.555-3.807 0-6.102-2.925-5.496-6.555.554-3.633 3.781-6.557 7.563-6.557zm-1.866 12.607c1.588 0 2.597-2.27 3.126-6.051.529-3.783.151-6.053-1.438-6.053-1.588 0-2.571 2.27-3.101 6.053-.527 3.781-.175 6.051 1.413 6.051zM578 102.382c.278-2.017-1.033-1.437-1.84.378l-.378-.127c1.059-2.395 2.95-3.655 4.462-3.655 1.765 0 2.143 1.009 1.992 2.018l-.378 2.647h.051c1.211-2.521 3.429-4.665 5.27-4.665 1.689 0 3.252 1.009 2.875 3.782l-.832 5.925c-.328 2.018 1.033 1.438 1.84-.377l.378.126c-1.058 2.395-2.95 3.655-4.462 3.655-1.765 0-2.143-1.009-1.992-2.018l1.084-7.563c.151-1.135-.303-1.513-.807-1.513-1.512 0-3.454 2.722-3.857 5.799l-.68 5.042h-4.06l1.334-9.454zM606.305 101.942c0-3.055.116-4.073.553-5.353 1.047-3.23 3.579-4.861 7.041-4.861 3.346 0 5.791 1.631 6.897 4.395.086.146.029.291-.146.35l-3.172 1.426c-.174.087-.32.029-.407-.145-.553-1.281-1.484-2.242-3.143-2.242-1.542 0-2.532.815-2.968 2.184-.234.727-.321 1.425-.321 4.247 0 2.823.087 3.522.321 4.249.436 1.367 1.425 2.182 2.968 2.182 1.658 0 2.589-.96 3.143-2.24.087-.174.233-.232.407-.145l3.172 1.425c.174.058.232.203.146.351-1.106 2.764-3.551 4.393-6.897 4.393-3.462 0-5.994-1.629-7.041-4.859-.437-1.281-.553-2.3-.553-5.357zM630.837 92.341c0-.175.116-.291.292-.291h3.695c.174 0 .291.116.291.291v7.419c0 .117.058.175.175.175h6.46c.116 0 .174-.058.174-.175v-7.419c0-.175.117-.291.291-.291h3.696c.175 0 .291.116.291.291v19.205c0 .175-.116.29-.291.29h-3.696c-.174 0-.291-.115-.291-.29v-7.624c0-.117-.058-.175-.174-.175h-6.46c-.117 0-.175.058-.175.175v7.624c0 .175-.116.29-.291.29h-3.695c-.175 0-.292-.115-.292-.29V92.341zM662.586 92.341c.058-.175.175-.291.378-.291h3.667c.204 0 .32.116.378.291l6.692 19.205c.058.175 0 .29-.203.29h-3.783c-.204 0-.32-.086-.378-.29l-1.134-3.463h-6.926l-1.106 3.463c-.058.204-.174.29-.378.29h-3.812c-.203 0-.261-.115-.203-.29l6.808-19.205zm4.452 12.105l-2.241-6.927h-.087l-2.24 6.927h4.568zM694.219 111.836c-.262 0-.35-.086-.437-.29l-3.405-7.245h-2.647c-.116 0-.175.058-.175.173v7.072c0 .175-.115.29-.291.29h-3.695c-.175 0-.292-.115-.292-.29V92.341c0-.175.116-.291.292-.291h7.885c4.045 0 6.722 2.531 6.722 6.14 0 2.531-1.339 4.539-3.521 5.499l3.9 7.8c.087.174 0 .348-.204.348h-4.132zm-.321-13.647c0-1.484-1.047-2.444-2.678-2.444h-3.491c-.116 0-.175.058-.175.175v4.568c0 .116.059.174.175.174h3.491c1.632 0 2.678-.96 2.678-2.473zM714.037 92.341c.059-.175.175-.291.379-.291h3.666c.203 0 .32.116.379.291l6.691 19.205c.059.175 0 .29-.203.29h-3.783c-.203 0-.319-.086-.378-.29l-1.135-3.463h-6.925l-1.106 3.463c-.058.204-.175.29-.378.29h-3.812c-.203 0-.262-.115-.203-.29l6.808-19.205zm4.452 12.105l-2.241-6.927h-.086l-2.241 6.927h4.568zM733.361 101.942c0-3.055.116-4.073.553-5.353 1.047-3.23 3.579-4.861 7.041-4.861 3.347 0 5.791 1.631 6.896 4.395.088.146.029.291-.145.35l-3.172 1.426c-.174.087-.32.029-.408-.145-.553-1.281-1.483-2.242-3.143-2.242-1.541 0-2.531.815-2.967 2.184-.233.727-.32 1.425-.32 4.247 0 2.823.087 3.522.32 4.249.436 1.367 1.426 2.182 2.967 2.182 1.659 0 2.59-.96 3.143-2.24.088-.174.234-.232.408-.145l3.172 1.425c.174.058.232.203.145.351-1.105 2.764-3.55 4.393-6.896 4.393-3.462 0-5.994-1.629-7.041-4.859-.436-1.281-.553-2.3-.553-5.357zM761.909 111.836c-.175 0-.291-.115-.291-.29V96.037c0-.117-.058-.176-.175-.176h-5.004c-.176 0-.291-.116-.291-.29v-3.23c0-.175.115-.291.291-.291h14.636c.175 0 .291.116.291.291v3.23c0 .174-.116.29-.291.29h-5.005c-.117 0-.174.059-.174.176v15.509c0 .175-.117.29-.291.29h-3.696zM781.029 92.341c0-.175.116-.291.291-.291h12.688c.174 0 .291.116.291.291v3.112c0 .176-.117.292-.291.292h-8.526c-.116 0-.175.058-.175.175v3.928c0 .116.059.174.175.174h7.1c.175 0 .292.117.292.293v3.084c0 .174-.117.29-.292.29h-7.1c-.116 0-.175.059-.175.175v4.104c0 .116.059.174.175.174h8.526c.174 0 .291.117.291.291v3.114c0 .175-.117.29-.291.29H781.32c-.175 0-.291-.115-.291-.29V92.341zM815.688 111.836c-.262 0-.349-.086-.436-.29l-3.406-7.245H809.2c-.117 0-.176.058-.176.173v7.072c0 .175-.115.29-.29.29h-3.696c-.174 0-.291-.115-.291-.29V92.341c0-.175.117-.291.291-.291h7.887c4.044 0 6.721 2.531 6.721 6.14 0 2.531-1.338 4.539-3.52 5.499l3.898 7.8c.087.174 0 .348-.204.348h-4.132zm-.321-13.647c0-1.484-1.047-2.444-2.677-2.444h-3.491c-.117 0-.176.058-.176.175v4.568c0 .116.059.174.176.174h3.491c1.63 0 2.677-.96 2.677-2.473zM844.324 92.341c0-.175.116-.291.291-.291h12.688c.174 0 .291.116.291.291v3.112c0 .176-.117.292-.291.292h-8.526c-.116 0-.175.058-.175.175v3.928c0 .116.059.174.175.174h7.1c.175 0 .29.117.29.293v3.084c0 .174-.115.29-.29.29h-7.1c-.116 0-.175.059-.175.175v4.104c0 .116.059.174.175.174h8.526c.174 0 .291.117.291.291v3.114c0 .175-.117.29-.291.29h-12.688c-.175 0-.291-.115-.291-.29V92.341zM868.041 92.341c0-.175.116-.291.291-.291h7.361c3.463 0 5.879 1.483 6.839 4.452.349 1.105.524 2.211.524 5.44 0 3.23-.176 4.337-.524 5.441-.96 2.968-3.376 4.452-6.839 4.452h-7.361c-.175 0-.291-.115-.291-.29V92.341zm4.453 15.684h2.24c1.979 0 3.171-.582 3.666-2.183.204-.582.32-1.339.32-3.9 0-2.56-.116-3.316-.32-3.899-.495-1.6-1.688-2.182-3.666-2.182h-2.24c-.117 0-.176.059-.176.176v11.812c0 .118.059.176.176.176zM893.563 104.562V92.341c0-.175.116-.291.29-.291h3.695c.176 0 .291.116.291.291v12.337c0 2.357 1.311 3.695 3.318 3.695 1.979 0 3.288-1.338 3.288-3.695V92.341c0-.175.116-.291.29-.291h3.696c.175 0 .29.116.29.291v12.221c0 4.918-3.142 7.595-7.564 7.595-4.451-.001-7.594-2.678-7.594-7.595zM919.172 101.942c0-3.055.117-4.073.553-5.353 1.049-3.23 3.58-4.861 7.042-4.861 3.347 0 5.791 1.631 6.897 4.395.086.146.028.291-.146.35l-3.172 1.426c-.174.087-.32.029-.406-.145-.554-1.281-1.484-2.242-3.144-2.242-1.542 0-2.531.815-2.968 2.184-.232.727-.32 1.425-.32 4.247 0 2.823.088 3.522.32 4.249.437 1.367 1.426 2.182 2.968 2.182 1.659 0 2.59-.96 3.144-2.24.086-.174.232-.232.406-.145l3.172 1.425c.175.058.232.203.146.351-1.106 2.764-3.551 4.393-6.897 4.393-3.462 0-5.993-1.629-7.042-4.859-.436-1.281-.553-2.3-.553-5.357zM949.029 92.341c.059-.175.175-.291.379-.291h3.666c.203 0 .32.116.379.291l6.691 19.205c.059.175 0 .29-.203.29h-3.782c-.204 0-.321-.086-.378-.29l-1.136-3.463h-6.925l-1.106 3.463c-.058.204-.175.29-.378.29h-3.812c-.203 0-.262-.115-.203-.29l6.808-19.205zm4.452 12.105l-2.24-6.927h-.087l-2.241 6.927h4.568zM972.223 111.836c-.174 0-.29-.115-.29-.29V96.037c0-.117-.058-.176-.175-.176h-5.004c-.176 0-.292-.116-.292-.29v-3.23c0-.175.116-.291.292-.291h14.635c.176 0 .292.116.292.291v3.23c0 .174-.116.29-.292.29h-5.004c-.117 0-.174.059-.174.176v15.509c0 .175-.117.29-.292.29h-3.696zM991.344 92.341c0-.175.116-.291.291-.291h3.695c.175 0 .291.116.291.291v19.205c0 .175-.116.29-.291.29h-3.695c-.175 0-.291-.115-.291-.29V92.341zM1006.709 107.355c-.437-1.367-.553-2.473-.553-5.413 0-2.938.116-4.044.553-5.411 1.019-3.202 3.754-4.803 7.217-4.803 3.462 0 6.197 1.601 7.217 4.803.436 1.367.552 2.473.552 5.411 0 2.94-.116 4.046-.552 5.413-1.02 3.201-3.755 4.801-7.217 4.801-3.463 0-6.198-1.599-7.217-4.801zm10.33-1.164c.232-.698.32-1.658.32-4.249 0-2.589-.088-3.549-.32-4.247-.437-1.368-1.484-2.184-3.113-2.184-1.63 0-2.678.815-3.113 2.184-.233.698-.32 1.658-.32 4.247 0 2.591.087 3.551.32 4.249.436 1.367 1.483 2.182 3.113 2.182 1.629 0 2.677-.814 3.113-2.182zM1032.23 92.341c0-.175.117-.291.291-.291h3.492a.54.54 0 0 1 .494.291l6.984 12.454h.146V92.341c0-.175.116-.291.29-.291h3.289c.174 0 .291.116.291.291v19.205c0 .175-.117.29-.291.29h-3.463a.508.508 0 0 1-.494-.29l-7.014-12.426h-.146v12.426c0 .175-.116.29-.29.29h-3.289c-.174 0-.291-.115-.291-.29V92.341z"/></g><path fill="#681E2D" d="M1150.991 0h214.733v214.043h-214.733z"/><path fill="#F0F1F1" d="M1299.078 80.699c-7.805 6.869-18.373 14.591-26.454 14.591s-18.646-7.722-26.453-14.591c-.858-.756-2.534-.783-1.277.861 3.617 4.708 7.845 10.666 11.896 17.429-5.035 4.345-11.816 9.214-16.935 9.214-5.356 0-12.55-5.338-17.638-9.82-.766-.666-2.036-.678-2.39.059-.228.459-.104.998.362 1.609 6.992 9.111 15.841 22.982 18.263 37.326.218 1.335.483 2.452 1.402 2.452.92 0 1.183-1.117 1.413-2.452 2.275-13.561 10.292-26.645 17.073-35.736 5.966 10.4 11.3 22.477 13.368 34.779.296 1.75.607 2.624.915 2.619.313.005.618-.869.918-2.619 3.634-21.602 17.327-42.508 26.814-54.859 1.261-1.645-.419-1.618-1.277-.862m-59.224 22.049a7.257 7.257 0 0 0 7.259-7.254 7.26 7.26 0 0 0-14.517 0 7.26 7.26 0 0 0 7.258 7.254m23.721-23.488c0-5 4.053-9.049 9.049-9.049 4.999 0 9.054 4.049 9.054 9.049 0 5.004-4.055 9.049-9.054 9.049a9.046 9.046 0 0 1-9.049-9.049"/></svg>