<svg xmlns="http://www.w3.org/2000/svg" width="399" height="63" viewBox="0 0 399 63"><g fill="#FFF"><path d="M1.1 40.4c-.7-2.2-1.1-5-1.1-8.7s.4-6.4 1.1-8.6c2-6.2 7.4-9.6 14.4-9.6 5.2 0 9.3 2.1 12.1 5.4.2.3.3.7-.1 1l-4.6 4c-.4.3-.7.2-1-.1-1.7-2-3.5-3-6.4-3-3.1 0-5.5 1.5-6.5 4.6-.6 1.7-.7 3.8-.7 6.4s.1 4.8.7 6.5c1 3 3.4 4.5 6.5 4.5 2.9 0 4.7-1.1 6.4-3 .3-.4.7-.4 1-.1l4.6 4c.4.3.3.7.1 1-2.7 3.3-6.9 5.4-12.1 5.4-7-.1-12.4-3.5-14.4-9.7zM57.6 49.2c-.4 0-.7-.3-.7-.7V28.3c0-4.5-2.2-7.6-6.6-7.6-4.2 0-6.7 3.1-6.7 7.6v20.1c0 .4-.3.7-.7.7h-6.7c-.4 0-.7-.3-.7-.7V.7c0-.4.3-.7.7-.7h6.7c.4 0 .7.3.7.7v16.8h.1c1.5-2.2 4.6-4 9.2-4C60.3 13.5 65 19 65 26.4v22c0 .4-.3.7-.7.7h-6.7zM95.2 49.2c-.4 0-.7-.3-.7-.7V46h-.1c-1.7 2.4-4.9 4-9.8 4-6.4 0-11.7-3.3-11.7-10.6 0-7.6 5.4-11.1 14-11.1H94c.3 0 .4-.1.4-.4v-1.7c0-4-1.9-5.8-7.7-5.8-3.9 0-6.3 1.1-8 2.4-.4.3-.8.2-1-.1L75 17.9c-.2-.4-.1-.7.1-.9 2.8-2 6.7-3.4 12.4-3.4 10.6 0 14.5 3.6 14.5 12.1v22.8c0 .4-.3.7-.7.7h-6.1zm-.9-11.7v-2.7c0-.3-.1-.4-.4-.4h-5.8c-5.2 0-7.5 1.4-7.5 4.7 0 2.9 2.1 4.3 6 4.3 4.9 0 7.7-2 7.7-5.9zM112.2 49.2c-.4 0-.7-.3-.7-.7V15c0-.4.3-.7.7-.7h6.7c.4 0 .7.3.7.7v3h.1c1.7-2.7 4.6-4.5 9-4.5 2.7 0 5.5 1.1 7.3 2.9.4.4.4.7.1 1l-3.8 4.8c-.3.4-.7.4-1 .1-1.6-1-3.3-1.7-5.1-1.7-4.6 0-6.6 3.3-6.6 8.8v18.9c0 .4-.3.7-.7.7h-6.7zM160.8 49.2c-.4 0-.7-.3-.7-.7V46h-.1c-1.7 2.4-4.9 4-9.8 4-6.4 0-11.7-3.3-11.7-10.6 0-7.6 5.4-11.1 14-11.1h7.1c.3 0 .4-.1.4-.4v-1.7c0-4-1.9-5.8-7.7-5.8-3.9 0-6.3 1.1-8 2.4-.4.3-.8.2-1-.1l-2.7-4.8c-.2-.4-.1-.7.1-.9 2.8-2 6.7-3.4 12.4-3.4 10.6 0 14.5 3.6 14.5 12.1v22.8c0 .4-.3.7-.7.7h-6.1zm-.9-11.7v-2.7c0-.3-.1-.4-.4-.4h-5.8c-5.2 0-7.5 1.4-7.5 4.7 0 2.9 2.1 4.3 6 4.3 5 0 7.7-2 7.7-5.9zM176.4 40.4c-.7-2.2-1.1-4.9-1.1-8.6s.4-6.4 1.1-8.6c2-6.2 7.4-9.6 14.4-9.6 5.2 0 9.3 2.1 12.1 5.4.2.3.3.7-.1 1l-4.6 4c-.4.3-.7.2-1-.1-1.7-2-3.5-3-6.4-3-3.1 0-5.5 1.5-6.5 4.6-.6 1.7-.7 3.8-.7 6.4s.1 4.8.7 6.5c1 3 3.4 4.5 6.5 4.5 2.9 0 4.7-1.1 6.4-3 .3-.4.7-.4 1-.1l4.6 4c.4.3.3.7.1 1-2.7 3.3-6.9 5.4-12.1 5.4-7.1-.2-12.4-3.6-14.4-9.8zM231.4 40.3c-.7-2.2-1.2-4.9-1.2-8.5s.4-6.4 1.2-8.6c2-6.1 7.3-9.6 14.2-9.6 7.2 0 12.4 3.7 14.3 9.6.8 2.5 1.2 4.8 1.2 10.5 0 .4-.3.7-.8.7h-21.5c-.3 0-.4.1-.4.4 0 1 .2 1.9.5 2.7 1.2 3.4 3.9 5.3 7.8 5.3s6.4-1.4 8.2-3.3c.4-.4.7-.4 1.1-.1l4.3 3.8c.4.3.4.6.1 1-3 3.5-7.9 5.9-14.3 5.9-7.6-.1-12.8-3.7-14.7-9.8zm21-15.4c-.9-2.8-3.5-4.5-6.8-4.5s-5.9 1.7-6.9 4.5c-.3.9-.4 1.7-.4 3 0 .3.1.4.4.4h13.7c.3 0 .4-.1.4-.4 0-1.3-.1-2.2-.4-3zM269.7 49.2c-.4 0-.7-.3-.7-.7V15c0-.4.3-.7.7-.7h6.7c.4 0 .7.3.7.7v3h.1c1.7-2.7 4.6-4.5 9-4.5 2.7 0 5.5 1.1 7.3 2.9.4.4.4.7.1 1l-3.8 4.8c-.3.4-.7.4-1 .1-1.6-1-3.3-1.7-5.1-1.7-4.6 0-6.6 3.3-6.6 8.8v18.9c0 .4-.3.7-.7.7h-6.7zM303.7 40.4c-.8-2.5-1.2-4.8-1.2-8.6s.4-6.1 1.2-8.6c2-6.1 7.3-9.6 14.4-9.6 7 0 12.4 3.5 14.3 9.6.8 2.5 1.2 4.8 1.2 8.6s-.4 6.1-1.2 8.6c-2 6.1-7.3 9.6-14.3 9.6-7.1 0-12.5-3.6-14.4-9.6zm20.9-2.2c.6-1.8.7-3.5.7-6.4s-.1-4.6-.7-6.4c-1-2.9-3.3-4.6-6.5-4.6s-5.6 1.7-6.6 4.6c-.6 1.9-.7 3.5-.7 6.4s.1 4.6.7 6.4c1 2.9 3.3 4.6 6.6 4.6s5.5-1.7 6.5-4.6zM342.2 49.2c-.4 0-.7-.3-.7-.7V15c0-.4.3-.7.7-.7h6.7c.4 0 .7.3.7.7v3h.1c1.7-2.7 4.6-4.5 9-4.5 2.7 0 5.5 1.1 7.3 2.9.4.4.4.7.1 1l-3.8 4.8c-.3.4-.7.4-1 .1-1.6-1-3.3-1.7-5.1-1.7-4.6 0-6.6 3.3-6.6 8.8v18.9c0 .4-.3.7-.7.7h-6.7zM370 57.8c-.3-.4-.3-.7.1-1l4.3-4.3c.4-.4.7-.4 1.1 0 2.2 2.1 4.7 3.3 7.6 3.3 5.4 0 7.8-2.9 7.8-8.3v-3.3h-.1c-1.6 2.5-4.6 4-9 4-5.9 0-10.1-3-11.9-8.5-.9-2.7-1.2-5.1-1.2-8.9 0-3.8.3-6.1 1.2-8.8 1.8-5.6 6-8.5 11.9-8.5 4.5 0 7.4 1.6 9 4.1h.1V15c0-.4.3-.7.7-.7h6.7c.4 0 .7.3.7.7v32c0 10-5.6 16-16.3 16-4.9 0-10.1-2-12.7-5.2zm20-21.2c.6-1.6.8-3.3.8-5.7 0-2.3-.2-4-.8-5.7-.9-2.8-2.9-4.4-6.2-4.4-3.3 0-5.2 1.6-6.1 4.4-.6 1.7-.8 3.4-.8 5.7 0 2.4.2 4.1.8 5.7.9 2.9 2.9 4.5 6.1 4.5 3.3 0 5.3-1.6 6.2-4.5z"/><circle cx="292.6" cy="45.2" r="4.8"/><path d="M217.3 20.6h7.2c.4 0 .7-.3.7-.7V15c0-.4-.3-.7-.7-.7h-7.2c-.3 0-.4-.1-.4-.4V4.3c0-.4-.3-.7-.7-.7h-6.7c-.4 0-.7.3-.7.7v35.1c0 6.8 2.7 10.2 9.7 10.2h3.5c.4 0 .7-.3.7-.7v-5.8c0-.4-.3-.7-.7-.7h-1.8c-2.2 0-3.3-.8-3.3-3.3V21c0-.2.1-.4.4-.4z"/></g></svg>