<svg xmlns="http://www.w3.org/2000/svg" width="680" height="306" viewBox="0 0 680 306"><path fill="#AA243B" d="M340 0h340v306H340z"/><path fill="#681E2D" d="M535.584 179.392c-6.098-4.402-15.422-6.929-25.584-6.929-10.165 0-19.49 2.526-25.584 6.929a.06.06 0 0 0-.012.082l1.462 1.977a.058.058 0 0 0 .046.023.065.065 0 0 0 .034-.011c5.592-4.024 14.582-6.425 24.055-6.425 9.469 0 18.461 2.4 24.053 6.425a.06.06 0 0 0 .082-.013l1.462-1.977a.065.065 0 0 0 .011-.043.07.07 0 0 0-.025-.038zM489.809 162.097c.008.016.02.026.033.03a.053.053 0 0 0 .046-.002l3.33-1.499v10.791c0 .019.009.035.023.047a.056.056 0 0 0 .054.009 41.305 41.305 0 0 1 2.284-.692.058.058 0 0 0 .043-.057v-11.182L510 153.066l14.376 6.476v11.182c0 .026.019.05.043.057.721.194 1.446.415 2.286.692l.012.002c.018 0 .03-.002.041-.01a.056.056 0 0 0 .023-.048v-10.791l3.334 1.499a.047.047 0 0 0 .043.002.047.047 0 0 0 .033-.03l.939-2.086a.059.059 0 0 0-.029-.077l-10.24-4.612v-8.725l2.217.997a.064.064 0 0 0 .045.003.059.059 0 0 0 .033-.031l.939-2.085a.06.06 0 0 0-.03-.078l-12.863-5.794v-7.244h3.454c.023 0 .043-.014.053-.033s.009-.043-.005-.06l-1.076-1.449 1.076-1.348a.062.062 0 0 0 .005-.064.06.06 0 0 0-.053-.033h-5.801a.059.059 0 0 0-.059.06v10.172l-12.863 5.794a.059.059 0 0 0-.029.078l.938 2.085a.06.06 0 0 0 .034.031c.014.005.03.003.044-.003l2.217-.997v8.725l-10.236 4.612c-.031.014-.044.048-.029.077l.937 2.085zm11.736-7.861v-8.724l8.455-3.809 8.454 3.809v8.724l-8.43-3.795a.057.057 0 0 0-.048 0l-8.431 3.795z"/><path fill="#681E2D" d="M510 108.487c-26.856 0-48.705 21.849-48.705 48.705s21.849 48.705 48.705 48.705 48.705-21.849 48.705-48.705-21.849-48.705-48.705-48.705zm0 94.939c-25.494 0-46.234-20.74-46.234-46.233S484.506 110.96 510 110.96s46.234 20.739 46.234 46.232-20.74 46.234-46.234 46.234z"/><path fill="#681E2D" d="M510 239.77c-45.534 0-82.577-37.044-82.577-82.577S464.466 74.615 510 74.615s82.577 37.044 82.577 82.577S555.534 239.77 510 239.77zm0-162.842c-44.258 0-80.266 36.007-80.266 80.265s36.008 80.266 80.266 80.266 80.266-36.008 80.266-80.266S554.258 76.928 510 76.928z"/><g fill="#681E2D"><path d="M448.957 162.628c-.047.064-.133.08-.197.02l-1.35-1.062c-.062-.049-.065-.121-.018-.173.426-.522.791-1.327.76-2.166-.029-.778-.365-1.174-.834-1.156-.358.014-.583.256-.664 1.087l-.045.447c-.193 1.824-.972 2.843-2.538 2.9-1.569.058-2.663-1.126-2.733-3.026-.043-1.161.275-2.261.815-3.035.048-.063.108-.078.184-.031l1.381.877c.063.047.078.107.043.171-.373.606-.585 1.246-.56 1.911.023.618.33.915.736.901.371-.015.597-.294.665-1.101l.046-.447c.191-1.849.971-2.816 2.563-2.876 1.555-.058 2.735 1.087 2.817 3.333.054 1.37-.476 2.775-1.071 3.426zM445.961 149.754c-1.232-.197-1.674-.331-2.205-.603-1.284-.654-1.81-1.839-1.57-3.339.234-1.464 1.096-2.402 2.365-2.677.09-.022.139-.002.161.09l.449 1.733c.023.093-.009.138-.101.159-.524.154-.863.4-.954.962-.083.525.12.895.561 1.114.243.127.493.205 1.641.388 1.146.183 1.407.187 1.678.142.487-.072.796-.36.88-.885.089-.562-.156-.9-.609-1.211-.078-.05-.095-.103-.045-.182l.966-1.512c.051-.078.101-.083.181-.033 1.121.654 1.65 1.814 1.417 3.278-.239 1.501-1.106 2.463-2.53 2.687-.592.095-1.053.084-2.285-.111zM444.756 135.938c-.069-.025-.099-.089-.072-.158l.681-1.803c.026-.069.091-.099.16-.072l2.784 1.052c.047.018.077.004.096-.043l.807-2.138c.018-.046.004-.077-.043-.095l-2.785-1.053a.115.115 0 0 1-.071-.158l.681-1.804c.026-.069.09-.098.16-.071l7.625 2.88c.07.026.099.09.072.159l-.681 1.803c-.026.07-.091.098-.159.072l-2.9-1.096c-.046-.017-.078-.004-.096.043l-.807 2.137c-.018.048-.004.08.043.097l2.9 1.095c.069.027.098.09.071.159l-.681 1.804c-.026.069-.09.097-.159.071l-7.626-2.881zM455.959 126.198c-.648-.179-1.09-.403-2.059-1.021-.968-.617-1.358-.924-1.793-1.438-.916-1.113-.842-2.515-.043-3.764.797-1.25 2.039-1.907 3.433-1.545.655.168 1.091.403 2.06 1.021.968.618 1.363.915 1.793 1.438.915 1.112.84 2.516.043 3.764-.798 1.25-2.039 1.909-3.434 1.545zm1.754-3.891c-.188-.236-.496-.463-1.34-1.001-.844-.54-1.18-.725-1.471-.795-.477-.127-.912.049-1.204.508-.292.458-.269.927.046 1.305.187.236.496.463 1.34 1.001s1.179.724 1.471.793c.477.128.911-.049 1.203-.505.293-.46.269-.929-.045-1.306zM463.305 115.901c-.596-.307-.985-.615-1.809-1.416-.823-.8-1.143-1.18-1.465-1.77-.674-1.273-.315-2.633.718-3.695 1.032-1.062 2.382-1.455 3.674-.819.606.299.987.615 1.81 1.417.823.801 1.152 1.172 1.466 1.771.672 1.274.315 2.633-.719 3.693-1.033 1.064-2.381 1.457-3.675.819zm2.504-3.456c-.135-.27-.393-.554-1.109-1.252-.717-.697-1.008-.946-1.28-1.074-.44-.22-.901-.137-1.28.253-.379.391-.451.854-.219 1.287.135.27.393.555 1.109 1.251.717.698 1.008.947 1.281 1.074.439.222.9.137 1.28-.254.378-.387.451-.852.218-1.285zM468.951 102.095c-.042-.062-.029-.131.032-.174l1.585-1.093c.062-.042.13-.028.173.032l3.561 5.166c.028.041.062.048.103.02l2.93-2.02c.061-.042.129-.029.172.031l.953 1.384c.042.06.029.129-.031.172l-4.679 3.224c-.062.042-.13.03-.172-.031l-4.627-6.711zM488.571 94.759c1.544-.553 2.918.302 3.224 1.862.283 1.571-.615 3.241-2.147 3.79-1.554.557-2.917-.3-3.202-1.87-.305-1.562.583-3.228 2.125-3.782zm1.085 5.418c.646-.234.727-1.308.389-2.928-.338-1.619-.822-2.49-1.471-2.259-.648.234-.719 1.303-.379 2.924.336 1.62.813 2.493 1.461 2.263zM493.602 93.592l-.529.133-.02-.165.528-.189c.176-1.577 1.545-3.433 2.329-3.631 1.166-.294.896 1.454.035 1.344-1.525-.189-1.25-.756-.67 1.859l1.061-.266.021.219-1.061.267.52 4.83c.166 1.413.003 3.493-1.83 3.956-1.324.335-.971-1.569-.053-1.058 1.922 1.094.421-.389.231-2.03l-.562-5.269zM506.818 92.614c-.02-1.248.035-1.705.211-2.275.422-1.379 1.496-2.102 3.016-2.126 1.482-.024 2.557.662 3.047 1.864.037.087.026.137-.061.175l-1.631.743c-.086.039-.135.015-.174-.071-.243-.49-.544-.782-1.111-.771-.531.008-.861.272-1.001.745-.083.26-.116.521-.097 1.683.02 1.16.061 1.418.15 1.677.156.467.494.721 1.025.712.568-.009.859-.31 1.088-.809.033-.087.082-.112.17-.076l1.654.688c.088.036.101.085.064.172-.448 1.219-1.5 1.94-2.981 1.964-1.519.026-2.618-.659-3.085-2.024-.194-.567-.262-1.022-.284-2.271zM520.327 89.179c.015-.071.072-.11.146-.096l1.889.384c.072.013.111.072.097.144l-.591 2.918c-.01.048.01.077.059.088l2.238.452c.049.011.078-.009.089-.058l.589-2.917c.016-.072.073-.111.146-.097l1.889.382c.072.015.11.073.096.146l-1.617 7.989c-.014.074-.072.112-.145.097l-1.889-.382c-.073-.015-.111-.073-.098-.146l.615-3.039c.01-.047-.01-.077-.057-.087l-2.24-.453c-.049-.01-.078.01-.087.058l-.616 3.039c-.014.073-.072.111-.146.096l-1.888-.381c-.073-.015-.111-.074-.096-.146l1.617-7.991zM536.413 93.763c.051-.059.116-.083.196-.049l1.844.807c.079.036.105.102.098.179l-.67 8.609c-.007.078-.061.107-.129.078l-1.866-.818c-.079-.035-.104-.101-.097-.178l.156-1.347-2.5-1.096-.883 1.029c-.052.059-.117.083-.197.049l-1.855-.813c-.066-.03-.081-.09-.028-.147l5.931-6.303zm-.24 5.411l.337-2.711-.033-.016-1.799 2.072 1.495.655zM546.068 108.755c-.091-.064-.1-.116-.08-.208l.637-3.071-.652-.467c-.041-.029-.075-.023-.104.017l-1.627 2.27c-.043.061-.111.071-.172.028l-1.566-1.123c-.061-.043-.071-.112-.028-.173l4.751-6.627c.043-.06.111-.071.172-.028l2.78 1.994c1.567 1.123 1.806 2.678.884 3.963-.611.854-1.51 1.258-2.492 1.102l-.609 3.5c-.013.082-.086.121-.156.07l-1.738-1.247zm3.213-4.672c.316-.443.217-.939-.285-1.3l-.943-.676c-.04-.029-.074-.024-.104.018l-.95 1.323c-.028.041-.022.075.017.104l.944.677c.501.359 1.005.295 1.321-.146zM559.725 109.888c.07-.032.141-.028.199.034l1.36 1.486c.058.063.054.134.017.202l-4.096 7.602c-.038.068-.099.075-.148.02l-1.377-1.504c-.059-.062-.055-.133-.017-.2l.688-1.169-1.842-2.013-1.226.585c-.07.03-.14.028-.199-.037l-1.368-1.493c-.051-.055-.039-.116.033-.148l7.976-3.365zm-2.411 4.852l1.406-2.343-.024-.027-2.482 1.167 1.1 1.203zM563.469 120.961c1.066-.646 1.489-.831 2.071-.968 1.402-.33 2.569.233 3.356 1.531.77 1.269.719 2.542-.072 3.571-.055.076-.104.091-.18.037l-1.465-1.033c-.078-.055-.082-.11-.027-.187.301-.458.4-.865.105-1.351-.275-.453-.67-.604-1.148-.487-.267.06-.508.163-1.5.766-.993.603-1.195.769-1.372.977-.325.371-.374.791-.099 1.245.295.485.701.585 1.247.529.093-.013.14.017.153.109l.238 1.776c.014.094-.021.13-.115.143-1.278.227-2.432-.316-3.201-1.584-.788-1.3-.75-2.594.191-3.685.392-.452.751-.742 1.818-1.389zM566.152 135.27l-.012-.034c-.01-.023-.003-.04.012-.071.008-.016.016-.032.039-.041l.034-.013 5.888-2.164c.035-.013.051-.045.049-.083l-.005-.012-.712-1.937-.013-.034c-.009-.024-.001-.039.007-.056l.008-.016s.012-.004.007-.016c.019-.021.042-.029.065-.038l1.576-.579c.059-.021.117-.003.146.038l.012.036 2.225 6.049a.103.103 0 0 1-.004.094s-.008.017-.02.021a.095.095 0 0 1-.049.043l-1.578.581a.13.13 0 0 1-.104-.001.088.088 0 0 1-.044-.05l-.008-.022-.713-1.937c-.01-.022-.014-.034-.028-.041-.004-.013-.017-.009-.032-.015l-.034.013-5.889 2.165-.034.013c-.039.001-.056-.007-.092-.032-.016-.008-.023-.03-.033-.055l-.664-1.806zM577.112 143.202c.074-.01.13.03.144.103l.876 5.427c.013.072-.028.128-.103.142l-1.572.254c-.073.011-.129-.029-.142-.102l-.538-3.328c-.008-.05-.036-.07-.085-.062l-1.257.204c-.048.007-.068.035-.061.084l.441 2.731a.117.117 0 0 1-.102.142l-1.537.248c-.072.012-.129-.028-.141-.103l-.441-2.73c-.009-.049-.037-.069-.086-.062l-1.328.216c-.05.008-.07.036-.062.085l.538 3.328a.118.118 0 0 1-.103.143l-1.572.253c-.073.012-.13-.028-.142-.101l-.877-5.426c-.014-.073.027-.131.102-.143l8.048-1.303zM570.074 160.372c.003-.111.043-.148.13-.183l2.909-1.17.029-.802c0-.05-.023-.075-.072-.077l-2.791-.099c-.073-.001-.121-.054-.118-.129l.067-1.924c.002-.075.054-.122.127-.12l8.148.288c.073.002.121.053.119.127l-.121 3.419c-.066 1.927-1.229 2.985-2.81 2.93-1.05-.037-1.884-.561-2.297-1.465l-3.251 1.431c-.076.034-.148-.005-.145-.093l.076-2.133zm5.67.087c.543.021.902-.339.924-.955l.041-1.161c.002-.05-.021-.075-.07-.076l-1.631-.059c-.05-.001-.074.022-.076.072l-.041 1.16c-.023.618.31 1 .853 1.019z"/><g><path d="M497.336 221.562a4.888 4.888 0 0 1-.29.205c-.091.058-.19.123-.299.191-.107.069-.231.144-.374.224l-.504.281 2.307.501-.316 1.46-4.801-1.041.295-1.36.301-.104c.225-.08.416-.149.576-.212a5.002 5.002 0 0 0 .795-.39c.114-.067.238-.14.369-.219.141-.09.277-.182.408-.274.13-.094.256-.193.381-.303.537-.438.846-.85.93-1.23a.691.691 0 0 0-.069-.519.63.63 0 0 0-.43-.285c-.252-.056-.46-.011-.622.133-.164.142-.297.401-.4.779l-1.654-.359c.052-.204.102-.376.15-.519.048-.143.102-.268.157-.378a2.23 2.23 0 0 1 .183-.301c.066-.094.149-.187.247-.279.29-.286.64-.481 1.048-.585a2.8 2.8 0 0 1 1.295-.008c.327.069.621.187.883.347.261.16.475.353.644.579.169.225.285.471.349.737.062.267.063.544.002.831a2.843 2.843 0 0 1-.506 1.092c-.254.341-.605.676-1.055 1.006zM503.124 223.83a2.578 2.578 0 0 1-.146-.569 2.845 2.845 0 0 1-.027-.594l.134-2.022c.058-.855.419-1.505 1.084-1.949a2.93 2.93 0 0 1 .833-.386c.298-.084.59-.116.875-.098.243.018.482.07.717.163.236.093.454.212.658.359.202.146.381.317.535.512.156.196.271.4.348.615.051.156.092.337.121.54.027.207.035.401.021.59l-.133 2.022c-.025.37-.115.707-.268 1.014-.154.31-.352.57-.598.788a2.461 2.461 0 0 1-.85.494 2.62 2.62 0 0 1-1.025.131 2.544 2.544 0 0 1-.717-.159 2.92 2.92 0 0 1-1.201-.844 2.172 2.172 0 0 1-.361-.607zm2.355.043c.549.037.846-.289.893-.977l.137-2.035c.045-.687-.207-1.05-.756-1.086-.266-.017-.474.06-.629.23-.154.171-.242.42-.264.746l-.137 2.034c-.021.333.033.595.164.781.13.187.326.289.592.307zM515.604 218.242l.502 6.954-1.772.127-.395-5.453-1.134.084-.109-1.502 2.908-.21zM521.454 221.479l-.251-3.987 3.769-.815.318 1.472-2.433.526.051.971c.127-.105.255-.188.383-.253.129-.062.292-.115.49-.158a2.341 2.341 0 0 1 1.765.301c.248.16.46.366.637.62.176.253.298.543.369.87a2.428 2.428 0 0 1-.371 1.92 2.61 2.61 0 0 1-.721.698 2.865 2.865 0 0 1-1.002.415 3.12 3.12 0 0 1-.964.064 2.553 2.553 0 0 1-.854-.228 2.323 2.323 0 0 1-1.188-1.24l1.746-.377c.273.24.573.326.9.255a.919.919 0 0 0 .337-.149.875.875 0 0 0 .249-.255c.064-.102.11-.211.138-.329a.859.859 0 0 0 .002-.364c-.057-.259-.191-.455-.405-.587s-.456-.169-.729-.109a.978.978 0 0 0-.504.264.943.943 0 0 0-.256.521l-1.476-.046z"/></g></g><path fill="#681E2D" d="M535.982 214.11c-.184.117-.285.041-.23-.168l1.008-3.871c.057-.21.25-.479.434-.597l3.375-2.148c.184-.118.286-.042.23.169l-1.034 3.852a1.174 1.174 0 0 1-.433.596l-3.35 2.167zM536.562 215.763c-.194-.099-.181-.227.029-.283l3.858-1.062c.209-.057.537-.021.73.078l3.548 1.847c.192.1.179.229-.03.284l-3.853 1.031a1.189 1.189 0 0 1-.734-.077l-3.548-1.818zM543.823 210.647c-.161.146-.274.09-.257-.127l.322-3.988c.018-.216.162-.514.322-.662l2.949-2.701c.161-.148.275-.091.257.126l-.35 3.973a1.15 1.15 0 0 1-.323.662l-2.92 2.717zM544.681 212.173c-.208-.064-.218-.191-.021-.285l3.615-1.714c.195-.093.525-.115.732-.052l3.814 1.204c.207.064.217.194.02.284l-3.615 1.686a1.173 1.173 0 0 1-.736.051l-3.809-1.174zM550.5 205.745c-.131.173-.254.136-.275-.08l-.375-3.984c-.02-.215.07-.533.203-.707l2.436-3.173c.133-.172.256-.138.275.079l.346 3.974c.02.217-.07.533-.203.708l-2.407 3.183zM551.609 207.101c-.215-.027-.248-.152-.069-.276l3.263-2.318c.176-.125.497-.204.713-.176l3.966.521c.215.029.247.154.067.276l-3.268 2.288a1.174 1.174 0 0 1-.715.178l-3.957-.493zM557.095 199.92c-.101.192-.228.179-.285-.03l-1.062-3.859a1.175 1.175 0 0 1 .076-.73l1.849-3.549c.101-.193.228-.181.284.03l1.031 3.853c.057.211.023.537-.078.732l-1.815 3.553zM558.424 201.062c-.219.01-.271-.106-.119-.261l2.811-2.848c.152-.153.455-.29.672-.299l3.997-.175c.216-.009.269.108.114.261l-2.82 2.82a1.187 1.187 0 0 1-.675.299l-3.98.203zM561.701 193.641c-.066.208-.193.217-.285.021l-1.716-3.615a1.18 1.18 0 0 1-.052-.733l1.203-3.816c.066-.209.193-.215.287-.018l1.684 3.615c.092.195.116.524.049.732l-1.17 3.814zM563.207 194.535c-.212.049-.283-.058-.16-.237l2.273-3.293c.123-.177.396-.362.609-.409l3.904-.866c.213-.047.285.061.159.236l-2.288 3.268a1.184 1.184 0 0 1-.611.412l-3.886.889z"/><g><path fill="#681E2D" d="M565.303 186.104c-.049.212-.174.229-.283.042l-1.997-3.468a1.171 1.171 0 0 1-.11-.727l.896-3.899c.049-.213.177-.23.283-.041l1.967 3.469c.107.188.157.515.109.729l-.865 3.895zM566.875 186.875c-.208.065-.287-.035-.178-.223l2.004-3.464a1.16 1.16 0 0 1 .574-.457l3.824-1.173c.207-.063.289.037.178.224l-2.021 3.439a1.19 1.19 0 0 1-.577.457l-3.804 1.197zM568.616 180.07c-.152.155-.269.106-.264-.109l.078-4.002c.007-.216.132-.522.282-.679l2.779-2.877c.152-.157.271-.105.266.11l-.107 3.988a1.175 1.175 0 0 1-.283.679l-2.751 2.89z"/></g><g><path fill="#681E2D" d="M482.742 214.11c.184.117.285.041.23-.168l-1.008-3.871a1.185 1.185 0 0 0-.433-.597l-3.375-2.148c-.184-.118-.286-.042-.231.169l1.035 3.852c.055.209.247.477.433.596l3.349 2.167zM482.163 215.763c.194-.099.181-.227-.028-.283l-3.859-1.062a1.173 1.173 0 0 0-.729.078l-3.548 1.847c-.193.1-.18.229.03.284l3.853 1.031c.209.058.539.021.734-.077l3.547-1.818zM474.902 210.647c.16.146.273.09.257-.127l-.323-3.988a1.164 1.164 0 0 0-.322-.662l-2.949-2.701c-.161-.148-.274-.091-.256.126l.349 3.973c.017.217.161.514.323.662l2.921 2.717zM474.045 212.173c.209-.064.217-.191.02-.285l-3.615-1.714a1.176 1.176 0 0 0-.732-.052l-3.814 1.204c-.207.064-.217.194-.02.284l3.615 1.686c.196.093.526.116.736.051l3.81-1.174zM468.225 205.745c.133.173.255.136.275-.08l.375-3.984a1.162 1.162 0 0 0-.203-.707l-2.436-3.173c-.133-.172-.254-.138-.275.079l-.346 3.974c-.02.217.07.533.205.708l2.405 3.183zM467.115 207.101c.217-.027.248-.152.07-.276l-3.264-2.318a1.164 1.164 0 0 0-.712-.176l-3.967.521c-.214.029-.245.154-.067.276l3.268 2.288c.178.125.499.206.715.178l3.957-.493z"/><g><path fill="#681E2D" d="M461.631 199.92c.101.192.227.179.285-.03l1.062-3.859a1.175 1.175 0 0 0-.077-.73l-1.848-3.549c-.101-.193-.228-.181-.285.03l-1.03 3.853c-.057.211-.023.537.077.732l1.816 3.553zM460.303 201.062c.218.01.271-.106.117-.261l-2.81-2.848a1.177 1.177 0 0 0-.671-.299l-3.998-.175c-.216-.009-.27.108-.114.261l2.82 2.82c.152.154.455.287.675.299l3.981.203z"/></g><g><path fill="#681E2D" d="M457.024 193.641c.065.208.192.217.285.021l1.715-3.615c.093-.196.117-.525.052-.733l-1.203-3.816c-.065-.209-.193-.215-.286-.018l-1.683 3.615a1.148 1.148 0 0 0-.051.732l1.171 3.814zM455.518 194.535c.214.049.285-.058.16-.237l-2.273-3.293a1.164 1.164 0 0 0-.609-.409l-3.904-.866c-.213-.047-.283.061-.158.236l2.287 3.268c.125.179.398.362.613.412l3.884.889z"/></g><g><path fill="#681E2D" d="M453.422 186.104c.049.212.176.229.283.042l1.998-3.468a1.17 1.17 0 0 0 .109-.727l-.896-3.899c-.049-.213-.176-.23-.283-.041l-1.966 3.469a1.175 1.175 0 0 0-.109.729l.864 3.895zM451.851 186.875c.207.065.286-.035.177-.223l-2.003-3.464a1.154 1.154 0 0 0-.575-.457l-3.824-1.173c-.207-.063-.289.037-.177.224l2.021 3.439c.11.186.37.392.578.457l3.803 1.197zM450.109 180.07c.152.155.269.106.264-.109l-.078-4.002a1.188 1.188 0 0 0-.283-.679l-2.779-2.877c-.152-.157-.27-.105-.266.11l.107 3.988c.006.217.131.521.283.679l2.752 2.89z"/></g></g><g><path fill="#2B3233" d="M0 0h340v306H0z"/><g fill="#616161"><path d="M116.674 123.21c-.098-.004-.207-.067-.213-.201l-.067-1.982c-.011-.111.067-.181.175-.189.986-.076 2.151-.367 3.051-1.212.893-.835 1.003-1.719.439-2.317-.469-.503-1.064-.531-2.208.278l-.507.361c-1.957 1.382-3.68 1.472-5.094-.031-1.463-1.565-1.263-3.712.58-5.438 1.126-1.056 2.499-1.703 3.73-1.82.117-.022.178.018.198.163l.306 1.856c.007.109-.041.181-.141.202-1.052.185-1.887.547-2.59 1.204-.752.704-.777 1.455-.271 1.995.457.488 1.102.475 2.208-.305l.51-.362c1.979-1.404 3.656-1.471 5.099.071 1.444 1.541 1.371 3.749-.831 5.815-1.328 1.245-3.11 1.928-4.374 1.912zM125.939 109.455c-.957-1.531-1.215-2.077-1.396-2.854-.483-1.947.276-3.555 2.011-4.636 1.678-1.046 3.412-.995 4.832.045.086.047.102.135.035.222l-1.145 1.704c-.059.099-.151.115-.253.056-.673-.47-1.44-.661-2.271-.142-.773.481-1.016 1.199-.807 2.022.109.436.281.813 1.168 2.228.883 1.416 1.141 1.738 1.484 2.029.646.551 1.398.648 2.172.167.833-.518 1.002-1.29.876-2.106-.011-.114.042-.189.159-.2l2.031-.276c.107-.024.184.029.184.132.31 1.729-.403 3.312-2.084 4.357-1.736 1.081-3.512 1.056-5.047-.235-.618-.507-.992-.98-1.949-2.513zM137.885 96.357c-.039-.097.002-.186.1-.222l2.045-.754c.098-.035.186.006.225.103l1.51 4.107c.028.063.07.083.135.06l3.574-1.317c.065-.024.084-.068.061-.133l-1.515-4.106c-.038-.097.005-.185.103-.22l2.045-.755c.098-.035.183.005.221.102l3.918 10.628c.036.097 0 .185-.1.223l-2.047.752c-.093.035-.182-.004-.219-.103l-1.559-4.218c-.021-.063-.062-.084-.131-.062l-3.574 1.319c-.062.023-.086.067-.061.132l1.557 4.22c.035.097-.008.186-.105.22l-2.04.755c-.098.036-.183-.005-.222-.101l-3.921-10.63zM156.543 99.764c-.369-.763-.527-1.401-.777-3.119-.249-1.717-.273-2.374-.131-3.209.326-1.957 1.788-3.122 3.812-3.413 2.023-.293 3.76.414 4.621 2.198.367.762.53 1.398.779 3.117.247 1.717.27 2.373.137 3.209-.328 1.957-1.791 3.121-3.818 3.414-2.023.29-3.758-.415-4.623-2.197zm5.94-1.551c.075-.428.048-.997-.167-2.51-.223-1.514-.351-2.068-.548-2.457-.371-.763-1.054-1.148-2.005-1.014-.952.139-1.493.701-1.635 1.537-.08.432-.044.996.17 2.511.22 1.513.352 2.067.545 2.455.369.763 1.05 1.152 2.002 1.015.956-.137 1.499-.702 1.638-1.537zM172.369 98.237c-.21-.82-.237-1.476-.134-3.208.104-1.732.214-2.381.52-3.169.718-1.849 2.384-2.695 4.426-2.571 2.04.124 3.591 1.164 4.077 3.084.209.824.239 1.481.137 3.212-.105 1.731-.213 2.381-.52 3.171-.717 1.85-2.388 2.693-4.426 2.568-2.041-.123-3.594-1.163-4.08-3.087zm6.127-.313c.16-.404.248-.967.342-2.492.094-1.527.075-2.098-.037-2.515-.207-.823-.796-1.341-1.757-1.398-.958-.059-1.604.383-1.91 1.175-.165.402-.25.964-.341 2.491-.096 1.527-.08 2.094.033 2.514.209.823.797 1.34 1.759 1.398.961.057 1.604-.385 1.911-1.173zM190.363 91.398c.025-.102.113-.148.209-.124l2.112.554c.097.028.149.111.124.211l-2.328 8.854c-.017.066.005.107.074.125l4.982 1.311c.098.025.149.109.123.207l-.484 1.844c-.027.104-.109.149-.209.125l-7.361-1.935c-.102-.025-.146-.11-.121-.209l2.879-10.963zM210.236 108.39c.223-.818.518-1.402 1.462-2.859.942-1.455 1.358-1.965 2.017-2.503 1.528-1.26 3.4-1.175 5.115-.06 1.717 1.11 2.554 2.783 2.033 4.695-.222.817-.522 1.402-1.467 2.861-.944 1.456-1.357 1.965-2.011 2.501-1.536 1.261-3.401 1.173-5.118.061-1.714-1.111-2.555-2.781-2.031-4.696zm5.488 2.742c.342-.271.692-.719 1.526-2.002.831-1.282 1.098-1.786 1.207-2.208.219-.817-.037-1.557-.848-2.082-.806-.523-1.584-.455-2.24.083-.339.271-.689.719-1.52 2.001-.836 1.282-1.1 1.787-1.211 2.207-.223.817.034 1.56.844 2.082.807.525 1.589.455 2.242-.081zM229.251 111.287a.163.163 0 0 1 .242-.006l5.364 5.218c.074.073.074.17.003.243l-1.282 1.316c-.07.072-.167.073-.24.004l-3.605-3.506c-.051-.049-.098-.049-.145.001l-1.713 1.761c-.045.049-.045.096 0 .145l3.007 2.921c.07.069.07.167 0 .241l-1.267 1.305c-.07.075-.168.075-.245.002l-2.999-2.92c-.052-.048-.099-.048-.146.004l-3.062 3.149a.169.169 0 0 1-.246.004l-1.559-1.521c-.075-.07-.075-.168-.006-.242l7.899-8.119z"/></g><g fill="#616161"><path d="M105.756 211.196c0-1.802.066-2.402.327-3.158.616-1.906 2.11-2.87 4.155-2.87 1.975 0 3.418.964 4.072 2.594.052.088.016.173-.088.205l-1.873.844c-.101.053-.187.02-.238-.087-.327-.757-.879-1.32-1.855-1.32-.912 0-1.496.481-1.752 1.286-.134.43-.188.843-.188 2.507 0 1.67.055 2.079.188 2.511.256.807.84 1.287 1.752 1.287.977 0 1.528-.569 1.855-1.324.052-.101.138-.137.238-.085l1.873.84c.104.036.14.121.088.206-.654 1.633-2.098 2.598-4.072 2.598-2.045 0-3.539-.965-4.155-2.871-.261-.756-.327-1.357-.327-3.163zM121.093 205.528c0-.1.067-.172.171-.172h2.18c.104 0 .173.072.173.172v4.381c0 .069.036.104.103.104h3.812c.073 0 .104-.034.104-.104v-4.381c0-.1.07-.172.172-.172h2.184c.102 0 .172.072.172.172v11.337c0 .103-.07.173-.172.173h-2.184c-.102 0-.172-.07-.172-.173v-4.497c0-.071-.03-.104-.104-.104h-3.812c-.066 0-.103.033-.103.104v4.497c0 .103-.069.173-.173.173h-2.18c-.104 0-.171-.07-.171-.173v-11.337zM140.686 205.528c.034-.1.102-.172.224-.172h2.163c.122 0 .188.072.224.172l3.95 11.337c.038.103 0 .173-.119.173h-2.232c-.119 0-.189-.052-.227-.173l-.669-2.044h-4.086l-.651 2.044c-.032.121-.107.173-.224.173h-2.25c-.121 0-.154-.07-.121-.173l4.018-11.337zm2.626 7.145l-1.322-4.084h-.047l-1.326 4.084h2.695zM160.215 217.038c-.156 0-.209-.052-.261-.173l-2.007-4.274h-1.566c-.067 0-.102.034-.102.1v4.175c0 .103-.07.173-.17.173h-2.182a.164.164 0 0 1-.173-.173v-11.337c0-.1.07-.172.173-.172h4.654c2.388 0 3.965 1.498 3.965 3.628 0 1.49-.786 2.677-2.076 3.244l2.303 4.604c.051.102 0 .206-.121.206h-2.437zm-.195-8.054c0-.877-.613-1.444-1.574-1.444h-2.064c-.067 0-.102.036-.102.102v2.7c0 .067.034.1.102.1h2.064c.96-.001 1.574-.566 1.574-1.458zM172.768 205.528c.035-.1.1-.172.225-.172h2.162c.121 0 .189.072.225.172l3.949 11.337c.035.103 0 .173-.118.173h-2.234c-.119 0-.188-.052-.222-.173l-.67-2.044h-4.091l-.652 2.044c-.03.121-.104.173-.222.173h-2.247c-.126 0-.157-.07-.126-.173l4.021-11.337zm2.628 7.145l-1.324-4.084h-.049l-1.323 4.084h2.696zM185.029 211.196c0-1.802.07-2.402.33-3.158.613-1.906 2.111-2.87 4.154-2.87 1.977 0 3.414.964 4.072 2.594.05.088.014.173-.086.205l-1.875.844c-.104.053-.188.02-.238-.087-.327-.757-.879-1.32-1.856-1.32-.909 0-1.495.481-1.747 1.286-.141.43-.195.843-.195 2.507 0 1.67.055 2.079.195 2.511.252.807.838 1.287 1.747 1.287.978 0 1.529-.569 1.856-1.324.051-.101.135-.137.238-.085l1.875.84c.1.036.136.121.086.206-.658 1.633-2.096 2.598-4.072 2.598-2.043 0-3.541-.965-4.154-2.871-.259-.756-.33-1.357-.33-3.163zM202.735 217.038c-.104 0-.175-.07-.175-.173v-9.154c0-.069-.031-.102-.1-.102h-2.953c-.105 0-.174-.069-.174-.172v-1.909c0-.1.068-.172.174-.172h8.639c.102 0 .172.072.172.172v1.909c0 .103-.07.172-.172.172h-2.958c-.068 0-.101.032-.101.102v9.154c0 .103-.069.173-.172.173h-2.18zM214.879 205.528c0-.1.064-.172.166-.172h7.492c.102 0 .17.072.17.172v1.84c0 .104-.068.172-.17.172h-5.031c-.07 0-.106.036-.106.102v2.318c0 .07.036.106.106.106h4.186c.104 0 .175.068.175.17v1.82c0 .104-.07.172-.175.172h-4.186c-.07 0-.106.035-.106.105v2.42c0 .067.036.1.106.1h5.031c.102 0 .17.072.17.175v1.837c0 .103-.068.173-.17.173h-7.492c-.102 0-.166-.07-.166-.173v-11.337zM236.188 217.038c-.157 0-.206-.052-.255-.173l-2.012-4.274h-1.562c-.068 0-.104.034-.104.1v4.175c0 .103-.067.173-.173.173h-2.179c-.103 0-.171-.07-.171-.173v-11.337c0-.1.068-.172.171-.172h4.654c2.386 0 3.968 1.498 3.968 3.628 0 1.49-.791 2.677-2.079 3.244l2.298 4.604c.057.102 0 .206-.117.206h-2.439zm-.188-8.054c0-.877-.621-1.444-1.582-1.444h-2.059c-.068 0-.104.036-.104.102v2.7c0 .067.036.1.104.1h2.059c.961-.001 1.582-.566 1.582-1.458z"/></g><g fill="#616161"><path d="M95.229 167.913c0-.151.025-.227.126-.327l6.046-7.532c.68-.832 1.108-1.638 1.108-2.62 0-1.285-.831-2.268-2.267-2.268-1.36 0-2.142.831-2.318 2.142-.025.151-.126.227-.277.201l-2.217-.453c-.151-.025-.227-.151-.201-.303.227-2.016 1.839-4.106 5.089-4.106 3.199 0 5.038 2.116 5.038 4.787 0 1.536-.604 2.796-1.612 4.005l-4.988 6.047v.05h6.348c.151 0 .252.101.252.252v2.016c0 .151-.101.252-.252.252h-9.623c-.151 0-.252-.101-.252-.252v-1.891zM111.449 161.489c0-3.98.126-4.786.353-5.492.68-2.141 2.318-3.351 4.862-3.351s4.182 1.21 4.887 3.351c.227.706.353 1.512.353 5.492s-.126 4.786-.353 5.492c-.706 2.142-2.343 3.351-4.887 3.351s-4.182-1.209-4.862-3.351c-.227-.706-.353-1.512-.353-5.492zm5.215 6.323c1.058 0 1.789-.453 2.116-1.36.176-.529.227-1.108.227-4.963s-.05-4.434-.227-4.963c-.328-.907-1.058-1.36-2.116-1.36s-1.764.453-2.091 1.36c-.176.529-.227 1.108-.227 4.963s.05 4.434.227 4.963c.327.907 1.033 1.36 2.091 1.36z"/></g><path fill="#616161" d="M203.361 184.205c-7.43-5.369-18.797-8.449-31.186-8.449-12.391 0-23.756 3.08-31.186 8.449-.015.01-.023.025-.028.047a.075.075 0 0 0 .014.053l1.782 2.405a.068.068 0 0 0 .057.032.065.065 0 0 0 .041-.015c6.814-4.905 17.775-7.832 29.32-7.832 11.543 0 22.504 2.927 29.322 7.832.028.023.074.017.099-.018l1.783-2.405a.077.077 0 0 0 .01-.053c-.001-.021-.009-.036-.028-.046zM147.566 163.122a.073.073 0 0 0 .094.035l4.059-1.829v13.153c0 .023.014.046.031.06a.07.07 0 0 0 .064.009 49.592 49.592 0 0 1 2.786-.842.078.078 0 0 0 .051-.071v-13.631l17.524-7.892 17.524 7.892v13.631c0 .032.022.062.055.071.876.235 1.761.504 2.784.842l.016.004a.08.08 0 0 0 .049-.013c.02-.014.029-.033.029-.06v-13.153l4.062 1.829a.075.075 0 0 0 .057.001.08.08 0 0 0 .037-.036l1.146-2.544a.073.073 0 0 0-.036-.094l-12.482-5.62v-10.638l2.704 1.217a.068.068 0 0 0 .054.003c.02-.007.031-.02.041-.04l1.145-2.541a.072.072 0 0 0-.037-.095l-15.68-7.062v-8.831h4.211a.07.07 0 0 0 .064-.038c.011-.025.011-.054-.008-.075l-1.311-1.765 1.311-1.645c.019-.021.019-.051.008-.077a.077.077 0 0 0-.064-.039h-7.072a.071.071 0 0 0-.072.071v12.398l-15.68 7.062a.07.07 0 0 0-.033.095l1.144 2.541a.064.064 0 0 0 .04.04.065.065 0 0 0 .053-.003l2.704-1.217v10.638l-12.479 5.62a.07.07 0 0 0-.037.094l1.144 2.545zm14.304-9.583v-10.633l10.306-4.642 10.307 4.642v10.633l-10.275-4.627a.086.086 0 0 0-.059 0l-10.279 4.627z"/><g><g fill="#616161"><path d="M225.733 157.042h-.051l-2.62 1.839c-.151.101-.277.051-.277-.151v-2.569a.41.41 0 0 1 .176-.353l2.746-1.99a.657.657 0 0 1 .454-.151h2.141c.151 0 .252.101.252.252v16.627c0 .151-.101.252-.252.252h-2.317c-.151 0-.252-.101-.252-.252v-13.504zM238.099 167.245l2.141-.529c.151-.025.252.051.302.201.328.958 1.109 1.638 2.368 1.638.982 0 1.814-.504 2.116-1.411.176-.453.227-1.007.227-1.889 0-.933-.075-1.462-.227-1.89-.328-1.008-1.159-1.411-2.141-1.411-1.134 0-1.814.604-2.091 1.185-.075.176-.126.252-.302.252h-2.116c-.151 0-.252-.101-.252-.252v-9.221c0-.151.101-.252.252-.252h9.12c.151 0 .252.101.252.252v2.016c0 .151-.101.252-.252.252h-6.625c-.101 0-.151.05-.151.151v3.854h.075c.403-.328 1.285-.756 2.52-.756 2.191 0 3.804 1.032 4.409 2.896.227.73.378 1.537.378 2.923 0 1.134-.126 2.015-.353 2.695-.655 1.99-2.569 3.124-4.837 3.124-2.645 0-4.635-1.411-5.013-3.527-.027-.126.048-.252.2-.301z"/></g></g></g></svg>