<svg xmlns="http://www.w3.org/2000/svg" width="680" height="612" viewBox="0 0 680 612"><path fill="#F0F1F1" d="M0 0h680v612H0z"/><g fill="#454547"><path d="M120.67 450.415c-.144-.138-.212-.381-.038-.589l2.627-3.01c.14-.171.347-.171.521-.032 1.553 1.245 3.663 2.42 6.153 2.42 2.453 0 3.837-1.141 3.837-2.8 0-1.385-.83-2.248-3.629-2.63l-1.246-.17c-4.772-.66-7.434-2.907-7.434-7.057 0-4.32 3.249-7.191 8.332-7.191 3.113 0 6.016.935 7.987 2.459.208.137.242.272.071.517l-2.111 3.147c-.14.173-.311.208-.484.102-1.796-1.176-3.527-1.798-5.463-1.798-2.076 0-3.147 1.073-3.147 2.558 0 1.351.971 2.212 3.669 2.595l1.241.174c4.842.654 7.399 2.868 7.399 7.12 0 4.253-3.146 7.401-9.23 7.401-3.667 0-7.224-1.454-9.055-3.216zM146.948 441.492c0-3.628.138-4.839.658-6.358 1.243-3.841 4.251-5.777 8.365-5.777 3.976 0 6.881 1.937 8.193 5.222.104.173.036.346-.173.418l-3.767 1.691c-.209.105-.382.034-.486-.174-.656-1.518-1.766-2.662-3.733-2.662-1.832 0-3.009.969-3.527 2.595-.276.864-.381 1.696-.381 5.046 0 3.356.104 4.187.381 5.048.519 1.626 1.695 2.595 3.527 2.595 1.968 0 3.077-1.14 3.733-2.663.104-.206.277-.276.486-.171l3.767 1.694c.209.068.277.241.173.415-1.312 3.281-4.218 5.221-8.193 5.221-4.114 0-7.122-1.939-8.365-5.774-.52-1.524-.658-2.735-.658-6.366zM172.639 430.082a.33.33 0 0 1 .345-.346h4.393c.21 0 .346.14.346.346v8.819c0 .136.069.208.209.208h7.675c.138 0 .206-.072.206-.208v-8.819c0-.206.14-.346.347-.346h4.392a.33.33 0 0 1 .348.346v22.822c0 .205-.143.345-.348.345h-4.392c-.207 0-.347-.14-.347-.345v-9.06c0-.14-.068-.207-.206-.207h-7.675c-.14 0-.209.067-.209.207v9.06c0 .205-.136.345-.346.345h-4.393a.33.33 0 0 1-.345-.345v-22.822zM200.615 447.924c-.519-1.623-.656-2.938-.656-6.432 0-3.488.138-4.805.656-6.43 1.213-3.802 4.462-5.706 8.572-5.706 4.119 0 7.366 1.904 8.577 5.706.517 1.625.659 2.941.659 6.43 0 3.494-.143 4.809-.659 6.432-1.211 3.807-4.458 5.707-8.577 5.707-4.11 0-7.359-1.901-8.572-5.707zm12.273-1.384c.279-.83.382-1.967.382-5.048 0-3.074-.103-4.215-.382-5.046-.52-1.626-1.76-2.595-3.7-2.595-1.937 0-3.181.969-3.698 2.595-.275.831-.38 1.972-.38 5.046 0 3.081.104 4.218.38 5.048.518 1.626 1.762 2.595 3.698 2.595 1.94 0 3.18-.969 3.7-2.595zM227.518 447.924c-.518-1.623-.657-2.938-.657-6.432 0-3.488.14-4.805.657-6.43 1.212-3.802 4.461-5.706 8.574-5.706 4.114 0 7.365 1.904 8.576 5.706.519 1.625.658 2.941.658 6.43 0 3.494-.14 4.809-.658 6.432-1.211 3.807-4.462 5.707-8.576 5.707-4.113 0-7.363-1.901-8.574-5.707zm12.273-1.384c.277-.83.382-1.967.382-5.048 0-3.074-.104-4.215-.382-5.046-.517-1.626-1.764-2.595-3.699-2.595-1.937 0-3.18.969-3.699 2.595-.276.831-.38 1.972-.38 5.046 0 3.081.104 4.218.38 5.048.52 1.626 1.763 2.595 3.699 2.595 1.935 0 3.182-.969 3.699-2.595zM254.386 430.082c0-.206.137-.346.348-.346h4.387c.21 0 .346.14.346.346v18.43c0 .138.071.209.211.209h10.37c.21 0 .347.137.347.344v3.84c0 .205-.137.345-.347.345h-15.313c-.211 0-.348-.14-.348-.345v-22.823zM325.104 441.492c0-3.628.138-4.839.658-6.358 1.241-3.841 4.248-5.777 8.364-5.777 3.978 0 6.882 1.937 8.192 5.222.105.173.037.346-.171.418l-3.769 1.691c-.208.105-.38.034-.483-.174-.655-1.518-1.762-2.662-3.735-2.662-1.831 0-3.007.969-3.523 2.595-.279.864-.383 1.696-.383 5.046 0 3.356.104 4.187.383 5.048.517 1.626 1.692 2.595 3.523 2.595 1.974 0 3.08-1.14 3.735-2.663.104-.206.275-.276.483-.171l3.769 1.694c.208.068.276.241.171.415-1.311 3.281-4.215 5.221-8.192 5.221-4.116 0-7.123-1.939-8.364-5.774-.52-1.524-.658-2.735-.658-6.366zM350.794 430.082c0-.206.137-.346.348-.346h4.394c.206 0 .346.14.346.346v8.819c0 .136.064.208.205.208h7.676c.14 0 .208-.072.208-.208v-8.819c0-.206.14-.346.344-.346h4.392c.211 0 .348.14.348.346v22.822c0 .205-.137.345-.348.345h-4.392a.328.328 0 0 1-.344-.345v-9.06c0-.14-.068-.207-.208-.207h-7.676c-.141 0-.205.067-.205.207v9.06c0 .205-.14.345-.346.345h-4.394c-.211 0-.348-.14-.348-.345v-22.822zM385.066 430.082c.067-.206.207-.346.448-.346h4.358c.24 0 .379.14.447.346l7.952 22.822c.068.205 0 .345-.244.345h-4.491c-.244 0-.381-.105-.452-.345l-1.348-4.116h-8.227l-1.316 4.116c-.068.239-.204.345-.448.345h-4.531c-.241 0-.309-.14-.241-.345l8.093-22.822zm5.287 14.386l-2.659-8.229h-.104l-2.66 8.229h5.423zM419.193 453.249c-.308 0-.416-.105-.516-.345l-4.048-8.61h-3.146c-.14 0-.205.069-.205.208v8.402c0 .205-.14.345-.349.345h-4.39c-.208 0-.345-.14-.345-.345v-22.822c0-.206.137-.346.345-.346h9.37c4.805 0 7.987 3.009 7.987 7.295 0 3.01-1.591 5.398-4.187 6.537l4.632 9.268c.105.207 0 .413-.237.413h-4.911zm-.379-16.218c0-1.759-1.245-2.901-3.181-2.901h-4.15c-.14 0-.205.067-.205.206v5.428c0 .139.065.21.205.21h4.15c1.936 0 3.181-1.144 3.181-2.943zM439.287 430.082c.068-.206.204-.346.445-.346h4.358c.239 0 .38.14.452.346l7.947 22.822c.071.205 0 .345-.241.345h-4.495c-.24 0-.377-.105-.448-.345l-1.347-4.116h-8.232l-1.312 4.116c-.07.239-.206.345-.447.345h-4.53c-.241 0-.308-.14-.241-.345l8.091-22.822zm5.287 14.386l-2.66-8.229h-.106l-2.66 8.229h5.426zM458.788 441.492c0-3.628.14-4.839.656-6.358 1.247-3.841 4.252-5.777 8.368-5.777 3.975 0 6.88 1.937 8.195 5.222.103.173.035.346-.175.418l-3.767 1.691c-.207.105-.383.034-.483-.174-.659-1.518-1.769-2.662-3.735-2.662-1.833 0-3.008.969-3.524 2.595-.279.864-.384 1.696-.384 5.046 0 3.356.104 4.187.384 5.048.517 1.626 1.691 2.595 3.524 2.595 1.967 0 3.076-1.14 3.735-2.663.101-.206.276-.276.483-.171l3.767 1.694c.21.068.277.241.175.415-1.315 3.281-4.221 5.221-8.195 5.221-4.116 0-7.121-1.939-8.368-5.774-.516-1.524-.656-2.735-.656-6.366zM489.252 453.249a.328.328 0 0 1-.343-.345v-18.43c0-.139-.073-.206-.208-.206h-5.945c-.211 0-.347-.139-.347-.347v-3.84c0-.206.136-.346.347-.346h17.388c.208 0 .348.14.348.346v3.84c0 .208-.14.347-.348.347h-5.948c-.136 0-.207.067-.207.206v18.43c0 .205-.136.345-.344.345h-4.393zM508.517 430.082c0-.206.138-.346.346-.346h15.073c.207 0 .348.14.348.346v3.701c0 .207-.141.347-.348.347h-10.127c-.141 0-.211.067-.211.206v4.669c0 .139.07.206.211.206h8.432c.206 0 .346.14.346.346v3.663c0 .211-.14.349-.346.349h-8.432c-.141 0-.211.069-.211.206v4.875c0 .139.07.208.211.208h10.127c.207 0 .348.139.348.347v3.7c0 .205-.141.345-.348.345h-15.073c-.208 0-.346-.14-.346-.345v-22.823zM546.241 453.249c-.311 0-.419-.105-.519-.345l-4.048-8.61h-3.142c-.142 0-.211.069-.211.208v8.402a.328.328 0 0 1-.345.345h-4.39c-.209 0-.349-.14-.349-.345v-22.822c0-.206.14-.346.349-.346h9.37c4.801 0 7.984 3.009 7.984 7.295 0 3.01-1.589 5.398-4.182 6.537l4.632 9.268c.101.207 0 .413-.244.413h-4.905zm-.382-16.218c0-1.759-1.241-2.901-3.178-2.901h-4.148c-.142 0-.211.067-.211.206v5.428c0 .139.069.21.211.21h4.148c1.937 0 3.178-1.144 3.178-2.943z"/></g><path fill="#454547" d="M292.528 435.966c-3.989 0-7.396 3.088-7.982 6.915-.637 3.833 1.782 6.919 5.803 6.919 3.962 0 7.394-3.086 8.035-6.919.583-3.827-1.864-6.915-5.856-6.915zm1.331 6.915c-.559 3.992-1.623 6.387-3.297 6.387-1.68 0-2.05-2.395-1.491-6.387.559-3.989 1.592-6.385 3.271-6.385 1.679 0 2.076 2.396 1.517 6.385zM311.364 429.05c-1.971 0-6.306 3.562-7.662 7.179l-2.077.134v.778h1.942l-1.758 12.396c-.531 3.987 2.132 8.378-1.755 4.653-1.86-1.754-3.831 2.526-.509 2.526 4.606 0 6.229-4.815 6.683-8.245l1.597-11.33h3.395l.163-.912h-3.426c.187-6.515-.797-5.346 2.686-3.989 1.97.772 3.647-3.19.721-3.19zM395.164 308.099c-14.104-10.185-35.674-16.032-59.182-16.032-23.519 0-45.09 5.848-59.188 16.032a.152.152 0 0 0-.053.093.136.136 0 0 0 .024.1l3.381 4.569a.13.13 0 0 0 .107.056.143.143 0 0 0 .079-.026c12.934-9.308 33.735-14.864 55.649-14.864 21.902 0 42.704 5.557 55.641 14.864a.137.137 0 0 0 .189-.029l3.381-4.569a.145.145 0 0 0 .026-.1.141.141 0 0 0-.054-.094zM289.271 268.09a.13.13 0 0 0 .076.07.144.144 0 0 0 .104-.004l7.705-3.47v24.964c0 .045.02.084.055.109a.139.139 0 0 0 .124.02 97.16 97.16 0 0 1 5.283-1.601.138.138 0 0 0 .102-.131v-25.869l33.263-14.979 33.255 14.979v25.869c0 .06.042.114.101.131 1.666.449 3.346.96 5.288 1.601a.112.112 0 0 0 .042.007.134.134 0 0 0 .135-.135v-24.964l7.71 3.47a.141.141 0 0 0 .103.004.125.125 0 0 0 .076-.07l2.172-4.825a.138.138 0 0 0-.068-.179l-23.688-10.67V232.23l5.129 2.311c.032.012.07.014.104.005a.133.133 0 0 0 .075-.074l2.174-4.823a.139.139 0 0 0-.068-.18l-29.76-13.404v-16.758h7.993a.137.137 0 0 0 .121-.076.128.128 0 0 0-.014-.139l-2.488-3.35 2.488-3.123a.14.14 0 0 0 .014-.145.135.135 0 0 0-.121-.076h-13.422a.135.135 0 0 0-.136.136v23.53l-29.758 13.404a.134.134 0 0 0-.067.18l2.171 4.823c.015.036.042.06.078.074a.174.174 0 0 0 .103-.005l5.128-2.311v20.186l-23.683 10.67a.13.13 0 0 0-.067.179l2.168 4.826zm27.151-18.186v-20.181l19.561-8.81 19.555 8.81v20.181l-19.5-8.779a.134.134 0 0 0-.111 0l-19.505 8.779z"/><path fill="#454547" d="M335.98 146.773c-62.128 0-112.674 50.545-112.674 112.672 0 62.128 50.546 112.672 112.674 112.672 62.13 0 112.674-50.544 112.674-112.672 0-62.127-50.544-112.672-112.674-112.672zm0 219.627c-58.976 0-106.957-47.98-106.957-106.955 0-58.973 47.981-106.956 106.957-106.956s106.957 47.983 106.957 106.956C442.938 318.42 394.956 366.4 335.98 366.4z"/></svg>