<svg xmlns="http://www.w3.org/2000/svg" viewBox="0 0 523.798 212.854"><title>mountains</title><path d="M157.694 67.342H482.1a72.48 72.48 0 0 1-42.577-13.824 120.659 120.659 0 0 0-110.264-16.4l-37.884 13.076a70.892 70.892 0 0 0-53.452-.638l-12.661 4.979a184.643 184.643 0 0 1-67.568 12.807z" fill="#bdbdbd"/><path fill="#262628" d="M523.545 212.854l-52.248-50.853-44.226-76.869L353.12.245l-39.564 52.016-71.177 61.593-28.949 64.597-46.86 2.742-82.002-54.329-51.297 31.307-8.049 29.334L0 210.898v1.956h523.545z"/><path fill="#424242" d="M368.42 49.835l18.36 34.972-10.492 11.366-4.446 13.552-6.905 16.894-28.429 15.71 3.934 3.679 23.074-3.679 11.898-8.759 11.366-19.037 10.492 2.623 16.078 34.388-4.278 9.35 7.434-4.784 7.432 13.067v15.3l-14.866 19.403-1.807 8.974h116.533l-52.501-51.098-44.226-76.869L353.12 0l3.497 11.803-8.306 13.552 8.306-5.246 6.899 6.994 1.421 11.127-16.626 9.419-14.863 17.271 15.744-11.151 19.228-3.934zM115.679 188.72l26.965 24.134h12.981l-48.247-50.943-2.583-5.558 4.284-13.495-24.511-16.239v12.919l-16.769 13.945-7.021 16.734 23.79-9.323 31.111 27.826zM326.231 84.557l-12.675 16.113-37.468 24.14 40.557-23.207 9.586-17.046zm-17.005 97.887l-13.904 12.541-36.499 14.109 42.337-7.741 8.066-18.909zm-9.687-9.269l-15.514 6.372-12.457 9.173 17.377-7.773 10.594-7.772zM25.222 187.508l21.882 1.46-20.15-7.773-1.732 6.313z"/><path d="M59.574 152.569h193.547a43.244 43.244 0 0 1-25.4-8.248 71.987 71.987 0 0 0-65.786-9.788l-22.6 7.8a42.3 42.3 0 0 0-31.891-.381l-7.554 2.97a110.16 110.16 0 0 1-40.313 7.641z" fill="#bdbdbd"/><path fill="#262628" d="M256.588 212.854l-19.673-34.196-22.364-58.893-53.088 48.139-35.506 29.907-22.997 15.043h153.628z"/><path fill="#424242" d="M212.22 133.399l-5.527 11.194-12.392 8.719 12.61-5.558 3.406-3.228"/><path d="M232.7 73.343h105.7a23.616 23.616 0 0 1-13.873-4.5 39.314 39.314 0 0 0-35.927-5.349l-12.343 4.262a23.1 23.1 0 0 0-17.416-.208l-4.125 1.622a60.163 60.163 0 0 1-22.016 4.173zm113.121 32.833H516.7a38.179 38.179 0 0 1-22.428-7.282 63.557 63.557 0 0 0-58.082-8.641l-19.954 6.891a37.343 37.343 0 0 0-28.156-.336l-6.669 2.622a97.257 97.257 0 0 1-35.591 6.746z" fill="#bdbdbd"/><path fill="#424242" d="M161.269 212.854l43.889-23.211-6.105 16.633 6.236 6.578h51.299l-19.673-34.196-22.364-58.893-9.658 56.482-15.818 10.66-29.744 25.947h1.938z"/><path d="M182.726 172.482h105.7a23.616 23.616 0 0 1-13.873-4.5 39.314 39.314 0 0 0-35.927-5.345l-12.343 4.262a23.1 23.1 0 0 0-17.416-.208l-4.125 1.622a60.163 60.163 0 0 1-22.016 4.173z" fill="#bdbdbd"/><path fill="#424242" d="M126.89 212.854l-45.534-13.943-24.308 5.263-4.959 8.68h74.801z"/></svg>