<?xml version="1.0" standalone="no"?>
<!DOCTYPE svg PUBLIC "-//W3C//DTD SVG 1.1//EN" "http://www.w3.org/Graphics/SVG/1.1/DTD/svg11.dtd" >
<svg xmlns="http://www.w3.org/2000/svg">
<metadata>
Created by FontPrep 20130207 at Thu Sep 25 20:56:55 2014
 By Callum Flack
Copyright (C) 2004, 2009 Hoefler &#38; Frere-Jones. http://www.typography.com
</metadata>
<defs>
<font id="a308838f789320dc640e46a39338b31c" horiz-adv-x='1024' >
  <font-face 
    font-family="Sentinel-BoldItalic"
    font-weight="400"
    font-style="italic"
    font-stretch="normal"
    units-per-em="2048"
    panose-1="0 0 0 0 0 0 0 0 0 0"
    ascent="1638"
    descent="-410"
    x-height="979"
    cap-height="1348"
    bbox="-317 -745 2486 2298"
    underline-thickness="102"
    underline-position="-102"
    slope="-12"
    unicode-range="U+0020-FB04"
  />
<missing-glyph horiz-adv-x="1024" 
d="M512 492l-367 -799h734zM922 1384l-353 -770l353 -770v1540zM102 -156l353 770l-353 770v-1540zM145 1536l367 -799l367 799h-734zM0 -410v2048h1024v-2048h-1024z" />
    <glyph glyph-name="f_f" unicode="ff" horiz-adv-x="1378" 
d="M856 1164q0 80 55 126q-25 16 -82 17q-109 0 -153 -75t-86 -265l-8 -33h321q10 51 33 119q-80 31 -80 111zM547 -356q-100 0 -160 49q-59 49 -59 117t41 115q41 46 99 46q58 1 91 -33t33 -92t-33 -98q57 -2 90 45t62 182l161 813h-321l-135 -645q-55 -260 -180 -380
t-291 -119q-100 0 -160 49q-59 49 -59 117t41 115q41 46 99 46q58 1 91 -33t33 -92t-33 -98q53 -2 81 43t56 184l162 813h-178l37 146h172q111 487 532 487q201 0 289 -98q124 104 286 104t243 -59t81 -138t-44 -130t-110 -51t-106 34q-39 35 -39 103t58 112q-25 14 -62 14
q-66 1 -117 -52q-27 -30 -49 -115q-22 -86 -41 -172l-8 -39h279l-37 -146h-273l-135 -645q-55 -259 -187 -379t-300 -120z" />
    <glyph glyph-name="fi" unicode="fi" horiz-adv-x="1296" 
d="M-274 -190q0 68 41 115q41 46 99 46q58 1 91 -33t33 -92t-33 -98q53 -2 81 43t56 184l164 813h-180l37 146h172q111 494 571 493q174 0 269 -61t96 -156q0 -68 -48 -118q-47 -50 -129 -50t-124 35t-43 103q0 68 57 114q-33 18 -92 19q-115 0 -163 -75t-89 -265l-8 -39
h598l-154 -553q-41 -137 -41 -174t37 -37q63 0 143 199l105 -37q-123 -352 -357 -352q-96 0 -153 55t-57 131t38 219l107 403h-297l-137 -645q-55 -260 -180 -380t-291 -119q-100 0 -160 49q-59 49 -59 117z" />
    <glyph glyph-name="fl" unicode="fl" horiz-adv-x="1304" 
d="M856 1172q0 80 55 124q-25 16 -82 17q-109 0 -153 -75t-84 -263l-10 -41h315l35 125q-76 33 -76 113zM821 1427q117 0 201 -36l303 32l-287 -1038q-41 -156 -41 -172q0 -43 37 -43q63 0 144 199l104 -37q-123 -352 -356 -352q-98 0 -155 52q-56 52 -56 133t37 222
l106 401h-307l-135 -645q-55 -260 -180 -380t-291 -119q-100 0 -160 49q-59 49 -59 117t41 115q41 46 99 46q58 1 91 -33t33 -92t-33 -98q53 -2 81 43t56 184l162 813h-178l37 146h172q51 238 186 366t348 127z" />
    <glyph glyph-name="f_f_i" unicode="ffi" horiz-adv-x="1912" 
d="M856 1164q0 82 55 126q-25 16 -82 17q-109 0 -153 -75t-86 -265l-8 -33h321q18 74 33 117q-80 31 -80 113zM819 1421q207 0 295 -106q137 113 361 112q174 0 269 -61t95 -156q0 -68 -48 -118t-129 -50t-124 35t-43 103t57 114q-33 18 -92 19q-115 0 -163 -75t-89 -265
l-8 -39h598l-153 -553q-41 -137 -41 -174t36 -37q63 0 144 199l104 -37q-123 -352 -356 -352q-96 0 -154 55q-57 55 -57 131t39 219l106 403h-297l-137 -645q-55 -260 -186 -380t-299 -119q-102 0 -161 49q-58 49 -58 117t41 115q41 46 99 46q58 1 91 -33t33 -92t-33 -98
q55 -2 89 45t63 182l163 813h-323l-135 -645q-55 -260 -180 -380t-291 -119q-100 0 -160 49q-59 49 -59 117t41 115q41 46 99 46q58 1 91 -33t33 -92t-33 -98q53 -2 81 43t56 184l162 813h-178l37 146h172q110 487 532 487z" />
    <glyph glyph-name="f_f_l" unicode="ffl" horiz-adv-x="1921" 
d="M856 1164q0 82 55 126q-25 16 -82 17q-109 0 -153 -75t-86 -265l-8 -33h321q10 47 33 117q-80 31 -80 113zM1208 975l-8 -41h316l32 125q-76 31 -76 110t56 127q-25 16 -82 17q-106 0 -152 -74t-86 -264zM547 -356q-100 0 -160 49q-59 49 -59 117t41 115q41 46 99 46
q58 1 91 -33t33 -92t-33 -98q57 -2 90 45t62 182l161 813h-321l-135 -645q-55 -260 -180 -380t-291 -119q-100 0 -160 49q-59 49 -59 117t41 115q41 46 99 46q58 1 91 -33t33 -92t-33 -98q53 -2 81 43t56 184l162 813h-178l37 146h172q111 487 532 487q209 0 293 -102
q133 109 326 108q115 0 202 -36l304 32l-287 -1038q-43 -137 -43 -176t35 -39t67 42t78 157l107 -37q-123 -352 -359 -352q-98 0 -154 52t-56 135t38 220l107 401h-308l-135 -645q-55 -259 -187 -379t-300 -120z" />
    <glyph glyph-name="f_b" unicode="fb" horiz-adv-x="1773" 
d="M856 1179q0 73 55 117q-25 16 -82 17q-109 0 -153 -75t-84 -263l-10 -41h295l36 135q-57 37 -57 110zM1311 788q-69 0 -135 -87t-104 -205t-38 -215q0 -158 107 -158q77 0 143 94t98 209q33 115 33 203q0 159 -104 159zM1442 981q139 0 212 -95q72 -95 72 -250t-72 -303
q-72 -149 -213 -251t-319 -102t-276 96t-98 260q0 115 67 369l23 83h-287l-135 -645q-55 -260 -180 -380t-291 -119q-100 0 -160 49q-59 49 -59 117t41 115q41 46 99 46q58 1 91 -33t33 -92t-33 -98q53 -2 81 43t56 184l162 813h-178l37 146h172q51 238 186 366t348 127
q117 0 197 -34l289 30l-220 -706l17 -6q141 270 338 270z" />
    <glyph glyph-name="f_h" unicode="fh" horiz-adv-x="1888" 
d="M856 1167q0 85 55 129q-25 16 -82 17q-109 0 -153 -75t-84 -263l-10 -41h329l33 121q-88 27 -88 112zM1622 170q64 0 141 199l107 -37q-123 -352 -357 -352q-94 0 -148 53t-54 147q1 94 69 282t68 244q0 58 -67 58t-167 -131q-122 -165 -249 -633h-301l208 788h-321
l-135 -645q-55 -260 -180 -380t-291 -119q-100 0 -160 49q-59 49 -59 117t41 115q41 46 99 46q58 1 91 -33t33 -92t-33 -98q53 -2 81 43t56 184l162 813h-178l37 146h172q51 238 186 366t348 127q121 0 203 -38l315 34l-268 -868l14 -6q199 432 459 432q92 0 148 -57
q56 -58 57 -158q0 -100 -80 -306t-80 -248t33 -42z" />
    <glyph glyph-name="f_j" unicode="fj" horiz-adv-x="1200" 
d="M433 -29q42 1 76 -33t34 -96t-41 -102q59 -4 96 54t86 251l186 743h-317l-137 -645q-25 -111 -58 -186q33 14 75 14zM858 1427q174 0 269 -61t96 -156q0 -68 -48 -118q-47 -50 -129 -50t-124 35t-43 103q0 68 57 114q-33 18 -92 19q-115 0 -163 -75t-89 -265l-8 -39h606
l-225 -852q-66 -246 -182 -342t-277 -96q-109 0 -167 49t-58 123v2q-129 -174 -336 -174q-100 0 -160 49q-59 49 -59 117t41 115q41 46 99 46q58 1 91 -33t33 -92t-33 -98q53 -2 81 43t56 184l164 813h-180l37 146h172q110 493 571 493z" />
    <glyph glyph-name="f_k" unicode="fk" horiz-adv-x="1810" 
d="M856 1167q0 85 55 129q-25 16 -82 17q-109 0 -153 -75t-84 -263l-10 -41h329l33 121q-88 27 -88 112zM1219 190l22 204q0 36 -30 54t-128 21l-125 -469h-294l208 788h-321l-135 -645q-55 -260 -180 -380t-291 -119q-100 0 -160 49q-59 49 -59 117t41 115q41 46 99 46
q58 1 91 -33t33 -92t-33 -98q53 -2 81 43t56 184l162 813h-178l37 146h172q51 238 186 366t348 127q121 0 203 -38l313 34l-227 -850h6q78 0 126 45t128 179q111 184 254 184q80 0 124 -47t44 -120t-43 -129t-110 -56t-99 47t-14 115q-39 -19 -95 -115t-124 -139
q113 -9 159 -55t45 -124q0 -34 -8 -80t-8 -63q0 -45 37 -45q59 0 137 199l107 -37q-119 -352 -340 -352q-104 0 -161 58q-56 58 -56 152z" />
    <glyph glyph-name="f_f_b" unicode="ffb" horiz-adv-x="2390" 
d="M1473 1175q0 73 55 121q-25 16 -82 17q-106 0 -152 -74t-86 -264l-8 -41h295l37 135q-59 33 -59 106zM856 1164q0 82 55 126q-25 16 -82 17q-109 0 -153 -75t-86 -265l-8 -33h321q10 47 33 117q-80 31 -80 113zM1929 788q-104 0 -191 -175t-87 -333t106 -157q78 0 145 94
t99 209q33 115 33 203q-1 159 -105 159zM547 -356q-100 0 -160 49q-59 49 -59 117t41 115q41 46 99 46q58 1 91 -33t33 -92t-33 -98q57 -2 90 45t62 182l161 813h-321l-135 -645q-55 -260 -180 -380t-291 -119q-100 0 -160 49q-59 49 -59 117t41 115q41 46 99 46
q58 1 91 -33t33 -92t-33 -98q53 -2 81 43t56 184l162 813h-178l37 146h172q111 487 532 487q209 0 293 -102q133 109 326 108q119 0 198 -34l287 30l-219 -706l16 -6q143 270 338 270q139 0 212 -95t73 -250t-73 -303q-73 -149 -213 -251t-318 -102t-277 96q-98 96 -98 260
q0 106 70 369l22 83h-287l-135 -645q-55 -259 -187 -379t-300 -120z" />
    <glyph glyph-name="f_f_h" unicode="ffh" horiz-adv-x="2504" 
d="M856 1164q0 82 55 126q-25 16 -82 17q-109 0 -153 -75t-86 -265l-8 -33h321q10 47 33 117q-80 31 -80 113zM1473 1176q0 72 55 120q-25 16 -82 17q-106 0 -152 -74t-86 -264l-8 -41h328l33 121q-88 27 -88 121zM547 -356q-100 0 -160 49q-59 49 -59 117t41 115
q41 46 99 46q58 1 91 -33t33 -92t-33 -98q57 -2 90 45t62 182l161 813h-321l-135 -645q-55 -260 -180 -380t-291 -119q-100 0 -160 49q-59 49 -59 117t41 115q41 46 99 46q58 1 91 -33t33 -92t-33 -98q53 -2 81 43t56 184l162 813h-178l37 146h172q111 487 532 487
q209 0 293 -102q133 109 326 108q121 0 204 -38l314 34l-268 -868l14 -6q199 432 461 432q90 0 146 -58q56 -57 56 -157q1 -100 -79 -306t-80 -248t35 -42q61 0 139 199l106 -37q-123 -352 -356 -352q-94 0 -149 53q-54 53 -54 147t69 282t68 243q0 59 -59 59q-29 0 -59 -14
t-73 -64q-152 -170 -292 -686h-301l209 788h-320l-135 -645q-55 -259 -187 -379t-300 -120z" />
    <glyph glyph-name="f_f_j" unicode="ffj" horiz-adv-x="1816" 
d="M856 1164q0 82 55 126q-25 16 -82 17q-109 0 -153 -75t-86 -265l-8 -33h321q18 74 33 117q-80 31 -80 113zM1046 -29q44 1 79 -33q34 -34 34 -96t-41 -102q59 -4 96 54t86 251l187 743h-318l-137 -645q-27 -115 -59 -186q29 14 73 14zM819 1421q207 0 295 -106
q137 113 361 112q174 0 269 -61t95 -156q0 -68 -48 -118t-129 -50t-124 35t-43 103t57 114q-33 18 -92 19q-115 0 -163 -75t-89 -265l-8 -39h606l-225 -852q-65 -246 -181 -342t-278 -96q-109 0 -167 49t-58 123v6q-135 -178 -350 -178q-102 0 -161 49q-58 49 -58 117
t41 115q41 46 99 46q58 1 91 -33t33 -92t-33 -98q55 -2 89 45t63 182l163 813h-323l-135 -645q-55 -260 -180 -380t-291 -119q-100 0 -160 49q-59 49 -59 117t41 115q41 46 99 46q58 1 91 -33t33 -92t-33 -98q53 -2 81 43t56 184l162 813h-178l37 146h172q110 487 532 487z
" />
    <glyph glyph-name="f_f_k" unicode="ffk" horiz-adv-x="2426" 
d="M856 1164q0 82 55 126q-25 16 -82 17q-109 0 -153 -75t-86 -265l-8 -33h321q10 47 33 117q-80 31 -80 113zM1473 1176q0 72 55 120q-25 16 -82 17q-106 0 -152 -74t-86 -264l-8 -41h328l33 121q-88 27 -88 121zM547 -356q-100 0 -160 49q-59 49 -59 117t41 115
q41 46 99 46q58 1 91 -33t33 -92t-33 -98q57 -2 90 45t62 182l161 813h-321l-135 -645q-55 -260 -180 -380t-291 -119q-100 0 -160 49q-59 49 -59 117t41 115q41 46 99 46q58 1 91 -33t33 -92t-33 -98q53 -2 81 43t56 184l162 813h-178l37 146h172q111 487 532 487
q209 0 293 -102q133 109 326 108q121 0 204 -38l314 34l-227 -850h4q78 0 126 45t128 179q111 184 254 184q79 0 123 -47t44 -120t-42 -129t-108 -56t-98 47t-16 115q-41 -21 -95 -115t-126 -139q113 -9 160 -55t47 -124q0 -34 -9 -80t-10 -63q0 -45 37 -45q59 0 138 199
l106 -37q-119 -352 -340 -352q-104 0 -161 59q-56 59 -56 151q0 33 12 100q13 66 13 102t-31 55t-127 22l-125 -469h-297l209 788h-320l-135 -645q-55 -259 -187 -379t-300 -120z" />
    <glyph glyph-name=".notdef" horiz-adv-x="1024" 
d="M512 492l-367 -799h734zM922 1384l-353 -770l353 -770v1540zM102 -156l353 770l-353 770v-1540zM145 1536l367 -799l367 799h-734zM0 -410v2048h1024v-2048h-1024z" />
    <glyph glyph-name=".null" horiz-adv-x="0" 
 />
    <glyph glyph-name="nonmarkingreturn" horiz-adv-x="681" 
 />
    <glyph glyph-name="space" unicode=" " horiz-adv-x="356" 
 />
    <glyph glyph-name="exclam" unicode="!" horiz-adv-x="616" 
d="M230 -35q-74 0 -120 43t-51 109q-1 76 51 130t127 54t121 -43t50 -111q0 -74 -52 -128t-126 -54zM507 1401q71 0 123 -46t52 -115t-45 -171q-7 -18 -25 -62t-106 -252t-148 -354l-135 27q20 135 70 678q19 228 104 274q39 22 110 21z" />
    <glyph glyph-name="quotedbl" unicode="&#x22;" horiz-adv-x="921" 
d="M930 1372q62 0 104 -40q43 -40 43 -93t-39 -103t-161 -175l-166 -168l-95 59l119 289q51 127 92 179t103 52zM504 1372q62 0 104 -40q43 -40 43 -93t-39 -103t-161 -175l-166 -168l-95 59l119 289q51 127 92 179t103 52z" />
    <glyph glyph-name="numbersign" unicode="#" horiz-adv-x="1366" 
d="M612 827l-98 -364h277l96 364h-275zM152 827l32 160h289l102 379l177 -18l-97 -361h275l102 379l176 -18l-96 -361h250l-33 -160h-260l-96 -364h276l-32 -160h-287l-105 -395l-178 18l101 377h-277l-104 -395l-179 18l101 377h-250l33 160h260l98 364h-278z" />
    <glyph glyph-name="dollar" unicode="$" horiz-adv-x="1142" 
d="M457 989q0 -100 125 -162l88 353q-102 -10 -158 -64t-55 -127zM797 311q0 102 -154 176l-90 -364q127 2 185 53t59 135zM1182 1030q0 -86 -44 -139t-113 -53t-111 39t-42 109t66 118q-35 43 -121 65l-98 -399q170 -70 256 -148t86 -208q0 -180 -137 -297t-369 -117h-27
l-47 -186l-151 18l45 182q-162 31 -262 106t-101 179q0 74 45 128t115 54t114 -41t44 -98q0 -88 -72 -133q39 -47 148 -72l100 408q-162 67 -241 141t-79 199q0 182 146 298t362 120l39 159l154 -18l-39 -154q150 -26 242 -100t92 -160z" />
    <glyph glyph-name="percent" unicode="%" horiz-adv-x="1644" 
d="M307 776q0 -110 94 -110t177 130q82 130 81 255q0 23 -2 32q-68 29 -125 78q-88 -27 -156 -151t-69 -234zM1393 592q-95 0 -179 -134t-84 -251t95 -117q94 0 176 130t82 251t-90 121zM1185 -29q-124 0 -200 74t-76 207q0 176 131 322t306 147q122 0 194 -66t72 -178
t-52 -227t-152 -197t-223 -82zM788 1047q0 -105 -52 -221t-151 -198t-223 -81q-124 0 -200 74t-76 204q0 177 131 323t305 146q137 0 207 -80q102 -35 209 -34q272 0 475 176l94 -82l-1175 -1342l-127 101l997 1095l-6 7q-125 -92 -307 -93q-51 0 -101 7v-2z" />
    <glyph glyph-name="ampersand" unicode="&#x26;" horiz-adv-x="1462" 
d="M891 1036q0 60 -32 98t-91 38t-97 -44q-38 -42 -38 -114t88 -217q170 96 170 239zM502 158q113 0 200 88q-63 180 -186 364q-184 -98 -184 -270q0 -84 45 -133t125 -49zM1124 174q74 0 152 145l98 -55q-74 -158 -148 -226t-178 -69q-104 0 -166 42t-118 139
q-162 -182 -379 -183q-160 0 -258 87t-98 237q0 295 420 414q-92 141 -93 258q0 153 118 247t286 94t263 -77q95 -78 95 -197q0 -215 -336 -330q92 -145 138 -260q22 39 88 143t94 129q29 25 70 59t115 34q73 0 122 -42t49 -114t-46 -129t-110 -57t-97 37q-34 37 -25 90
q-76 -50 -203 -250q73 -166 147 -166z" />
    <glyph glyph-name="quotesingle" unicode="'" horiz-adv-x="495" 
d="M504 1372q62 0 104 -40q43 -40 43 -93t-39 -103t-161 -175l-166 -168l-95 59l119 289q51 127 92 179t103 52z" />
    <glyph glyph-name="parenleft" unicode="(" horiz-adv-x="796" 
d="M125 446q0 358 234 637t614 400l51 -127q-266 -133 -436 -387t-170 -572q0 -375 248 -616l-101 -107q-207 137 -323 335q-117 198 -117 437z" />
    <glyph glyph-name="parenright" unicode=")" horiz-adv-x="796" 
d="M721 709q-1 -358 -235 -637t-613 -400l-51 127q266 133 436 387t170 572q0 375 -248 616l101 107q207 -137 323 -335t117 -437z" />
    <glyph glyph-name="asterisk" unicode="*" horiz-adv-x="880" 
d="M614 721q-18 59 0 248l-26 6q-98 -172 -140 -203q-42 -30 -82 -24t-69 43q-61 86 25 149q55 41 235 78l-2 29q-184 33 -238 71q-87 60 -27 146t150 24q55 -39 146 -198l26 8q-28 186 -10 242t54 74q36 19 81 3q102 -29 70 -135q-23 -70 -145 -199l16 -22q174 82 237 82
q104 4 109 -103q-4 -104 -106 -108q-72 0 -238 76l-16 -23q135 -141 149 -197q35 -98 -61 -135q-101 -34 -138 68z" />
    <glyph glyph-name="plus" unicode="+" horiz-adv-x="1075" 
d="M362 141l91 359h-353l41 166h353l88 354h182l-88 -354h352l-41 -166h-352l-90 -359h-183z" />
    <glyph glyph-name="comma" unicode="," horiz-adv-x="524" 
d="M100 -8q-44 0 -81 41q-35 41 -35 113t52 130q52 60 136 60t136 -60t52 -161q0 -160 -128 -280t-345 -167l-30 109q264 70 325 221l-12 12q-26 -18 -70 -18z" />
    <glyph glyph-name="hyphen" unicode="-" horiz-adv-x="724" 
d="M84 416l49 205h529l-50 -205h-528z" />
    <glyph glyph-name="period" unicode="." horiz-adv-x="524" 
d="M6 141q0 79 55 141t129 62t120 -49t46 -127t-55 -140t-129 -63q-74 0 -120 49t-46 127z" />
    <glyph glyph-name="slash" unicode="/" horiz-adv-x="874" 
d="M-317 -377l1251 1872l162 -76l-1250 -1872z" />
    <glyph glyph-name="zero" unicode="0" horiz-adv-x="1222" 
d="M748 1176q-80 0 -149 -96q-115 -161 -170 -501q-22 -130 -21 -219q0 -238 145 -237q81 0 149 96q114 160 169 501q22 130 22 218q0 238 -145 238zM557 -33q-217 -1 -337 141t-120 414t165 531q79 123 205 201t273 77q217 0 337 -141t120 -414t-165 -530
q-79 -123 -205 -201t-273 -78z" />
    <glyph glyph-name="one" unicode="1" horiz-adv-x="976" 
d="M367 985q-80 0 -158 25l37 143q285 -12 440 162h197l-287 -1145h268l-39 -170h-848l43 170h273l207 831q-53 -16 -133 -16z" />
    <glyph glyph-name="two" unicode="2" horiz-adv-x="1191" 
d="M541 956q0 -70 -47 -120t-124 -50q-77 -2 -125 48t-48 133q0 147 140 256t362 109q221 0 349 -104q128 -103 128 -253q0 -203 -151 -304q-75 -50 -152 -79q-77 -30 -237 -70q-315 -80 -413 -256l6 -10q102 70 209 70t211 -36q103 -36 155 -36t91 40t82 138l117 -24
q-58 -238 -140 -339t-213 -102q-76 0 -138 33t-98 74q-93 106 -167 106q-27 0 -59 -8q16 -33 16 -81t-38 -87t-96 -39t-101 44q-42 44 -42 129t41 162q90 169 433 337q186 92 272 169t86 195q0 85 -50 135t-143 50q-135 0 -198 -86q82 -43 82 -144z" />
    <glyph glyph-name="three" unicode="3" horiz-adv-x="1130" 
d="M430 580h-39l41 159h53q166 0 244 78t78 207q0 166 -180 166q-100 0 -152 -39q51 -51 51 -122t-44 -118t-118 -47t-120 44q-47 44 -47 112q0 137 139 225t350 88t331 -91t120 -232q0 -140 -109 -236t-328 -112l-2 -9q334 -53 334 -288q0 -166 -142 -282t-374 -116
t-363 93q-130 93 -130 233q0 86 54 146q54 61 132 61t118 -44t40 -106q0 -117 -109 -164q20 -32 76 -54t127 -21q125 0 185 82t61 208q1 91 -63 135t-214 44z" />
    <glyph glyph-name="four" unicode="4" horiz-adv-x="1191" 
d="M848 174h188l-45 -174h-672l46 174h202l47 195h-600l41 176l772 776h308l-195 -776h246l-43 -176h-246zM659 545l134 540h-11l-528 -540h405z" />
    <glyph glyph-name="five" unicode="5" horiz-adv-x="1120" 
d="M661 821q177 0 279 -96t102 -248q0 -201 -150 -355t-409 -155q-193 0 -319 90t-127 219q0 86 51 146t127 59q76 0 116 -41t40 -100q0 -98 -101 -150q51 -80 179 -80t198 110t70 243q0 193 -201 192q-119 0 -233 -75l-123 43l205 655l65 45q168 -68 364 -68t353 68l45 -94
q-172 -242 -447 -242q-163 0 -292 55l-101 -309q133 88 309 88z" />
    <glyph glyph-name="six" unicode="6" horiz-adv-x="1163" 
d="M1190 1061q0 -80 -48 -137q-48 -58 -125 -58t-119 41t-42 101q0 88 74 143q-31 39 -115 39q-141 0 -235 -129t-136 -361q109 113 274 113t267 -93t102 -247q0 -201 -138 -353t-368 -153q-230 0 -356 137q-125 136 -125 366t83 423t247 315t356 123t298 -75t106 -195z
M553 111q100 0 160 109q59 110 59 253q0 197 -149 197q-103 0 -165 -100t-62 -222t42 -180q43 -58 115 -57z" />
    <glyph glyph-name="seven" unicode="7" horiz-adv-x="1138" 
d="M372 -37q-72 0 -122 46q-49 46 -49 110q0 264 667 770l156 123l-12 12q-126 -74 -214 -74t-174 38t-129 38q-44 0 -83 -48t-99 -187h-166l132 522h176l-23 -170h14q54 96 108 139t116 43t105 -33q44 -32 66 -70q61 -103 134 -104q16 0 24 6q-10 35 -10 62q0 63 40 104
q41 41 105 41t104 -36t40 -93t-37 -110t-119 -119q-176 -135 -306 -319t-249 -504q-35 -92 -79 -140t-116 -47z" />
    <glyph glyph-name="eight" unicode="8" horiz-adv-x="1153" 
d="M496 1008q0 -80 65 -136q66 -55 205 -116q152 104 152 252q0 76 -54 130t-151 54t-157 -52t-60 -132zM764 299q0 84 -73 138t-234 126q-172 -104 -172 -254q1 -84 65 -142t175 -58t175 53t64 137zM700 1331q220 0 340 -95t119 -221q0 -126 -86 -207t-225 -108
q211 -119 211 -304q-1 -185 -145 -306t-380 -121t-366 92q-129 91 -129 227t91 221t249 109q-182 106 -182 284t142 304q141 125 361 125z" />
    <glyph glyph-name="nine" unicode="9" horiz-adv-x="1163" 
d="M39 250q0 76 47 132t124 56t119 -41t42 -100q0 -92 -74 -143q51 -45 133 -45q141 0 234 125q92 126 133 348q-113 -113 -277 -113t-265 94t-101 254q0 205 139 360t369 155t356 -138q125 -136 125 -366t-82 -422t-245 -316q-164 -123 -360 -123t-306 80t-111 203z
M471 815q0 -203 145 -203q104 0 166 102t64 230q1 244 -156 244q-100 0 -160 -112t-59 -261z" />
    <glyph glyph-name="colon" unicode=":" horiz-adv-x="552" 
d="M518 750q0 -78 -55 -140t-129 -63q-74 0 -120 49t-46 127t55 140q55 63 129 63t120 -49t46 -127zM371 168q1 -78 -55 -140t-130 -63q-74 0 -120 49t-46 127q0 79 56 141t129 62q74 0 120 -49t46 -127z" />
    <glyph glyph-name="semicolon" unicode=";" horiz-adv-x="552" 
d="M518 750q0 -78 -55 -140t-129 -63q-74 0 -120 49t-46 127t55 140q55 63 129 63t120 -49t46 -127zM114 -8q-44 0 -80 41t-36 113t52 130q52 60 136 60t136 -60t53 -161q0 -160 -128 -280t-345 -167l-31 109q264 70 326 221l-13 12q-26 -18 -70 -18z" />
    <glyph glyph-name="less" unicode="&#x3c;" horiz-adv-x="1073" 
d="M823 139l-671 363l45 182l796 340l64 -158l-711 -284l553 -277z" />
    <glyph glyph-name="equal" unicode="=" horiz-adv-x="1075" 
d="M63 291l46 178h854l-45 -178h-855zM164 696l45 178h854l-45 -178h-854z" />
    <glyph glyph-name="greater" unicode="&#x3e;" horiz-adv-x="1073" 
d="M303 1024l672 -362l-45 -183l-799 -340l-61 160l708 285l-551 276z" />
    <glyph glyph-name="question" unicode="?" horiz-adv-x="1007" 
d="M375 -35q-76 0 -122 45t-46 115t53 123t128 53t121 -46t46 -116t-52 -122t-128 -52zM496 387q-104 0 -182 56q-76 57 -76 163t77 172q78 66 234 117q139 51 190 83t71 65q19 35 19 91t-47 90t-131 34t-129 -33q39 -53 39 -111t-45 -106q-45 -50 -120 -50t-121 44t-46 116
q0 121 126 202t327 81q202 0 312 -95t110 -244q0 -148 -106 -228t-318 -136q-113 -32 -157 -56t-44 -64q0 -58 78 -58t176 68l62 -86q-121 -115 -299 -115z" />
    <glyph glyph-name="at" unicode="@" horiz-adv-x="1828" 
d="M842 289q68 -1 125 73t85 166t27 168q0 145 -106 146q-72 0 -127 -80t-80 -172t-25 -164q1 -137 101 -137zM76 410q0 279 138 510t370 361t520 130t487 -172t199 -460t-142 -479t-356 -191q-110 0 -184 57t-72 172l-14 6q-102 -221 -274 -221q-131 0 -201 85t-70 224
q0 223 130 387t306 164q77 0 133 -48t70 -122l43 156h250l-143 -480q-74 -244 90 -243q117 0 211 156t94 386t-161 372q-162 142 -408 142t-446 -117q-200 -118 -320 -324t-119 -449q0 -281 178 -448t473 -167q248 1 436 105l45 -95q-221 -119 -495 -118q-340 -1 -554 195
t-214 526z" />
    <glyph glyph-name="A" unicode="A" horiz-adv-x="1427" 
d="M512 592h332l-35 510h-8zM705 178h167l-18 252h-432l-143 -252h174l-45 -178h-519l43 178h136l694 1178h313l119 -1178h168l-43 -178h-660z" />
    <glyph glyph-name="B" unicode="B" horiz-adv-x="1351" 
d="M616 178q168 0 249 69t81 193q0 174 -252 174h-102l-111 -436h135zM762 786q143 0 216 68t73 155q-1 87 -49 124t-162 36h-109l-96 -383h127zM905 1348q256 0 364 -79q107 -79 107 -207t-106 -228t-330 -123l-4 -15q330 -51 330 -282q0 -147 -99 -250
q-164 -164 -561 -164h-667l45 178h180l248 991h-183l43 179h633z" />
    <glyph glyph-name="C" unicode="C" horiz-adv-x="1396" 
d="M702 -33q-272 0 -428 156t-155 420q0 141 50 287q114 332 378 473q145 78 317 77q258 0 373 -172l92 168h187l-134 -536h-194q-12 196 -92 284t-190 88t-187 -54q-78 -54 -126 -136q-97 -165 -127 -363q-13 -84 -13 -149q0 -186 85 -268q86 -82 218 -82t228 94
q95 94 173 281l168 -54q-179 -514 -623 -514z" />
    <glyph glyph-name="D" unicode="D" horiz-adv-x="1495" 
d="M594 174q125 0 210 31t164 109t135 241q56 161 56 315t-82 229t-254 75h-90l-250 -1000h111zM815 1348q332 0 508 -148t176 -391q0 -156 -58 -304t-171 -263q-246 -242 -705 -242h-626l45 178h180l248 991h-183l43 179h543z" />
    <glyph glyph-name="E" unicode="E" horiz-adv-x="1398" 
d="M702 766q86 0 119 32t86 156h160l-135 -546h-156q14 124 -4 158t-100 34h-82l-107 -426h291q147 0 208 65q60 65 159 293h180l-133 -532h-1249l45 178h180l248 991h-183l43 179h1231l-121 -480h-161q4 195 -29 250t-162 56h-297l-102 -408h71z" />
    <glyph glyph-name="F" unicode="F" horiz-adv-x="1333" 
d="M672 743q86 0 120 32t82 157h160l-137 -553h-158q16 127 -1 162t-103 34h-53l-101 -397h221l-43 -178h-720l45 178h180l248 991h-183l43 179h1205l-123 -490h-166q2 203 -39 259t-174 57h-244l-108 -431h49z" />
    <glyph glyph-name="G" unicode="G" horiz-adv-x="1490" 
d="M692 152q223 0 312 329l10 39h-228l43 178h697l-45 -178h-152l-141 -536h-174l-23 182q-137 -199 -371 -199t-367 157q-134 157 -134 404q0 148 50 296q113 335 378 478q145 79 317 78q258 0 373 -172l92 168h187l-132 -524h-221q-10 192 -85 276t-178 84t-181 -56
t-126 -139q-96 -167 -127 -372q-13 -86 -13 -153q0 -182 69 -262q70 -78 170 -78z" />
    <glyph glyph-name="H" unicode="H" horiz-adv-x="1619" 
d="M-61 0l45 178h180l248 991h-183l43 179h678l-45 -179h-174l-94 -385h500l96 385h-176l45 179h676l-45 -179h-181l-247 -991h182l-43 -178h-676l43 178h174l109 434h-500l-109 -434h174l-43 -178h-677z" />
    <glyph glyph-name="I" unicode="I" horiz-adv-x="813" 
d="M-55 0l45 178h180l248 991h-182l43 179h684l-43 -179h-183l-245 -991h182l-43 -178h-686z" />
    <glyph glyph-name="J" unicode="J" horiz-adv-x="1181" 
d="M436 -33q-210 0 -328 94t-118 238q0 106 59 175t143 69t131 -44q46 -44 46 -114q0 -135 -136 -182q39 -72 145 -72q106 1 164 63q60 62 95 203l194 772h-196l45 179h690l-45 -179h-172l-186 -739q-115 -463 -531 -463z" />
    <glyph glyph-name="K" unicode="K" horiz-adv-x="1486" 
d="M1454 1169l-463 -368l289 -623h160l-45 -178h-656l45 176h142l-185 424l-190 -151l-66 -273h158l-43 -176h-661l45 178h180l248 991h-183l43 179h668l-43 -177h-166l-121 -489l584 489h-154l43 177h568l-45 -179h-152z" />
    <glyph glyph-name="L" unicode="L" horiz-adv-x="1255" 
d="M686 174q80 0 126 13t89 65t71 107q28 56 83 190h164l-138 -549h-1142l45 178h180l248 991h-183l43 179h707l-45 -174h-203l-248 -1000h203z" />
    <glyph glyph-name="M" unicode="M" horiz-adv-x="1900" 
d="M-57 0l43 178h164l247 991h-168l45 179h598l74 -844h8l478 844h626l-43 -179h-176l-246 -991h176l-43 -178h-651l43 178h156l235 948h-20l-655 -1128h-138l-110 1128h-19l-235 -948h164l-45 -178h-508z" />
    <glyph glyph-name="N" unicode="N" horiz-adv-x="1589" 
d="M963 -18l-377 1048h-19l-213 -852h183l-43 -178h-539l43 178h172l248 991h-176l45 179h516l342 -947h18l191 768h-185l45 179h541l-43 -179h-176l-295 -1187h-278z" />
    <glyph glyph-name="O" unicode="O" horiz-adv-x="1505" 
d="M1151 897q-1 159 -71 237t-188 78t-205 -84t-136 -208q-100 -252 -98 -469q-1 -158 71 -237t189 -79t205 84q147 140 208 455q25 123 25 223zM889 1380q264 0 431 -165t167 -415t-132 -469q-132 -220 -362 -313q-129 -51 -276 -51q-264 0 -431 165t-167 416t124 457
q65 109 153 191t216 133q129 51 277 51z" />
    <glyph glyph-name="P" unicode="P" horiz-adv-x="1316" 
d="M737 692q166 0 241 95t75 202q1 107 -57 148t-185 41h-78l-121 -486h125zM866 1348q535 0 535 -353q0 -182 -140 -318q-73 -71 -206 -113t-314 -42h-172l-86 -344h197l-45 -178h-696l45 178h180l248 991h-183l43 179h594z" />
    <glyph glyph-name="Q" unicode="Q" horiz-adv-x="1505" 
d="M714 133q66 0 109 14q-20 105 -56 161t-95 56t-93 -35q-34 -36 -34 -86t52 -80q51 -30 117 -30zM737 551q113 0 176 -57t107 -162q70 124 100 280t31 300q0 144 -71 223q-70 77 -188 77t-205 -84t-136 -208q-100 -252 -98 -469q0 -64 14 -103q76 203 270 203zM727 -27
q-276 0 -442 161t-166 413t124 458q65 109 153 191t216 133q129 51 277 51q264 0 431 -165t167 -431q-1 -202 -103 -402t-286 -310q24 -57 50 -79t68 -22t76 34q33 34 74 130l115 -41q-98 -328 -326 -327q-123 0 -187 55t-104 164q-65 -13 -137 -13z" />
    <glyph glyph-name="R" unicode="R" horiz-adv-x="1443" 
d="M768 754q164 0 242 77q70 74 69 195q0 152 -196 152h-150l-106 -424h141zM958 1348q246 0 357 -85t110 -214q-1 -158 -123 -259t-370 -118l-4 -15q272 -41 272 -227q0 -34 -11 -104t-11 -95q0 -61 57 -61q47 0 106 96l89 -67q-62 -113 -138 -170t-190 -57t-182 54
t-68 150q0 46 20 146t21 149q0 117 -182 117h-125l-103 -410h187l-43 -178h-688l45 178h180l248 991h-183l43 179h686z" />
    <glyph glyph-name="S" unicode="S" horiz-adv-x="1251" 
d="M647 137q98 0 161 49q62 50 62 112t-43 104q-80 78 -235 130q-148 64 -252 140q-125 93 -125 272q0 178 142 307t345 129q248 0 367 -159l86 155h176l-119 -497h-176q-41 332 -315 331q-91 0 -149 -48t-58 -124t75 -126q75 -49 139 -75t140 -59t189 -115
q114 -83 112 -243q0 -199 -146 -326t-357 -127q-279 0 -418 172l-94 -168h-174l122 516h174q20 -166 122 -258t249 -92z" />
    <glyph glyph-name="T" unicode="T" horiz-adv-x="1421" 
d="M662 1194q-116 0 -172 -64t-179 -325h-166l136 543h1278l-138 -543h-143q-2 257 -31 323t-145 66h-47l-256 -1016h215l-43 -178h-756l43 178h207l256 1016h-59z" />
    <glyph glyph-name="U" unicode="U" horiz-adv-x="1497" 
d="M193 342q0 68 30 195l158 632h-172l43 179h674l-43 -179h-178l-164 -651q-20 -82 -21 -145q0 -103 69 -153t193 -50t205 82q82 82 119 233l172 684h-174l43 179h530l-45 -179h-164l-182 -731q-117 -471 -575 -471q-257 -1 -387 105t-131 270z" />
    <glyph glyph-name="V" unicode="V" horiz-adv-x="1443" 
d="M664 1169l79 -886h13l512 886h-172l43 179h520l-45 -179h-135l-711 -1177h-291l-137 1177h-170l45 179h659l-45 -179h-165z" />
    <glyph glyph-name="W" unicode="W" horiz-adv-x="2095" 
d="M1196 -8l-47 749l-438 -749h-289l-74 1177h-178l45 179h641l-43 -177h-143l39 -860h12l412 699l-11 161h-157l43 177h624l-43 -177h-157l36 -860h13l442 860h-178l43 177h522l-43 -179h-139l-635 -1177h-297z" />
    <glyph glyph-name="X" unicode="X" horiz-adv-x="1425" 
d="M846 1171h-148l152 -333l326 333h-150l43 177h543l-45 -179h-152l-477 -462l260 -529h164l-45 -178h-662l45 176h150l-158 352l-346 -352h152l-45 -176h-541l43 178h154l495 484l-254 507h-166l45 179h662z" />
    <glyph glyph-name="Y" unicode="Y" horiz-adv-x="1337" 
d="M819 727l359 444h-162l45 177h510l-43 -179h-139l-523 -616l-94 -375h182l-43 -178h-686l43 178h183l94 379l-215 612h-156l43 179h666l-43 -177h-164z" />
    <glyph glyph-name="Z" unicode="Z" horiz-adv-x="1302" 
d="M715 1174q-121 0 -185 -60t-188 -303h-156l136 537h1114l-41 -162l-1004 -1012h322q121 0 184 64t193 319h153l-139 -557h-1155l41 162l1001 1012h-276z" />
    <glyph glyph-name="bracketleft" unicode="[" horiz-adv-x="749" 
d="M-39 -326l451 1809h602l-39 -158h-316l-372 -1493h317l-41 -158h-602z" />
    <glyph glyph-name="backslash" unicode="\" horiz-adv-x="874" 
d="M760 -397l-178 -35l-330 1870l180 35z" />
    <glyph glyph-name="bracketright" unicode="]" horiz-adv-x="749" 
d="M840 1483l-451 -1809h-602l39 158h315l373 1493h-317l41 158h602z" />
    <glyph glyph-name="asciicircum" unicode="^" horiz-adv-x="761" 
d="M156 1006l385 462h168l151 -462h-164l-112 233l-244 -233h-184z" />
    <glyph glyph-name="underscore" unicode="_" horiz-adv-x="915" 
d="M-121 0l45 178h922l-43 -178h-924z" />
    <glyph glyph-name="grave" unicode="`" horiz-adv-x="548" 
d="M287 1402q0 60 36 99q37 39 101 39t93 -52t54 -165l52 -227h-129l-109 133q-98 113 -98 173z" />
    <glyph glyph-name="a" unicode="a" 
d="M461 168q73 0 137 91t98 206q35 115 35 203q0 154 -102 153q-105 0 -187 -176q-82 -177 -82 -327t101 -150zM930 219q0 -49 41 -49q66 0 135 199l104 -37q-113 -352 -342 -352q-88 0 -140 49t-52 141q0 14 4 51l-16 6q-119 -248 -322 -247q-141 0 -217 96t-76 244t59 290
q58 143 144 232q143 139 301 139q88 0 145 -54t76 -134l47 168h295l-170 -644q-16 -72 -16 -98z" />
    <glyph glyph-name="b" unicode="b" horiz-adv-x="1105" 
d="M776 981q137 0 210 -95t73 -250t-73 -303q-73 -149 -213 -251t-317 -102t-277 97q-99 97 -99 259q0 106 70 369l145 534h-152l45 174h449l-215 -696l14 -6q145 270 340 270zM645 788q-104 0 -191 -175t-87 -332q-1 -78 29 -118t79 -40q77 0 143 94t99 209t33 203
q-1 159 -105 159z" />
    <glyph glyph-name="c" unicode="c" horiz-adv-x="1005" 
d="M643 981q137 0 231 -72t95 -198q0 -81 -49 -141q-48 -60 -116 -60t-106 36q-37 36 -36 91q0 98 102 145q-25 61 -109 62q-127 0 -213 -148t-86 -294t54 -198t129 -52q143 0 266 174l94 -76q-184 -270 -446 -270q-184 0 -294 104t-110 281q0 250 179 433t415 183z" />
    <glyph glyph-name="d" unicode="d" 
d="M868 -20q-88 0 -140 49t-52 143q0 16 4 49l-16 6q-119 -248 -322 -247q-141 0 -217 96t-76 244t59 290q58 143 144 232q143 139 301 139q86 0 143 -49t84 -123l115 430h-152l45 174h447l-289 -1096q-16 -72 -16 -98q0 -49 41 -49q65 0 135 199l104 -37
q-113 -352 -342 -352zM463 168q102 0 186 180t84 326t-100 147q-78 0 -144 -91q-65 -91 -97 -205t-32 -206q1 -151 103 -151z" />
    <glyph glyph-name="e" unicode="e" horiz-adv-x="1007" 
d="M711 752q0 100 -87 100t-159 -108t-100 -246q184 12 265 83t81 171zM981 743q0 -151 -158 -247t-473 -107v-16q0 -125 56 -179t143 -55q141 0 274 164l90 -74q-195 -250 -464 -249q-182 0 -292 103t-110 279q0 244 180 432t439 187q150 0 232 -66t83 -172z" />
    <glyph glyph-name="f" unicode="f" horiz-adv-x="761" 
d="M-55 -356q-100 0 -160 49q-59 49 -59 117t41 115q41 46 99 46q58 1 91 -33t33 -92t-33 -98q53 -2 81 43t56 184l164 813h-180l37 146h172q109 494 506 493q145 0 226 -59t81 -138t-43 -130t-111 -51q-68 1 -105 35q-38 34 -38 102t57 112q-25 14 -57 15q-96 0 -133 -71
t-78 -269l-8 -39h278l-39 -146h-270l-137 -645q-55 -259 -180 -379t-291 -120z" />
    <glyph glyph-name="g" unicode="g" horiz-adv-x="1126" 
d="M487 221q100 0 173 140t73 296q0 76 -32 120q-33 44 -95 44t-120 -76t-86 -173t-27 -187q-1 -164 114 -164zM63 387q0 279 183 461q133 133 291 133q93 0 159 -54t86 -134l45 168h295l-198 -846q-109 -471 -576 -471q-124 0 -210 30t-126 75q-39 47 -39 111t42 112
t112 48q69 0 107 -40t38 -100t-47 -107q49 -16 105 -17q106 0 176 70q88 90 153 362l-20 9q-99 -147 -259 -147t-239 94q-78 95 -78 243z" />
    <glyph glyph-name="h" unicode="h" horiz-adv-x="1230" 
d="M856 -20q-94 0 -148 53t-54 147t68 282q69 188 69 244q0 58 -60 58q-29 0 -59 -14t-73 -64q-152 -170 -292 -686h-301l330 1239h-152l45 174h449l-264 -858l14 -6q199 432 461 432q90 0 146 -58q57 -57 57 -157t-80 -306t-80 -248t35 -42q61 0 139 199l106 -37
q-123 -352 -356 -352z" />
    <glyph glyph-name="i" unicode="i" horiz-adv-x="741" 
d="M598 785q0 -89 -84 -309t-84 -263t37 -43q63 0 143 199l107 -37q-123 -352 -361 -352q-92 0 -150 54t-58 147t84 311q85 218 85 261q0 42 -30 42q-53 0 -148 -203l-104 41q147 348 368 348q86 0 141 -53q54 -54 54 -143zM352 1262q0 72 54 133t133 61q78 0 122 -42
t44 -113q-1 -73 -55 -133t-133 -60t-122 41t-43 113z" />
    <glyph glyph-name="j" unicode="j" horiz-adv-x="665" 
d="M598 796q0 -78 -29 -192l-139 -522q-117 -438 -463 -438q-113 0 -173 48t-60 118t41 115q41 46 99 46q58 1 92 -33t34 -96t-41 -102q63 -4 102 58t89 255l124 490q41 150 41 201t-30 51q-55 0 -146 -203l-106 41q147 348 370 348q86 0 141 -53q54 -54 54 -132zM352 1262
q0 72 54 133t132 61q79 0 123 -42t44 -113q-1 -73 -55 -133t-133 -60t-122 41t-43 113z" />
    <glyph glyph-name="k" unicode="k" horiz-adv-x="1153" 
d="M838 215q0 -45 36 -45q59 0 138 199l106 -37q-119 -352 -340 -352q-104 0 -161 59q-56 59 -56 151q0 33 11 100q12 66 12 102t-30 55t-126 22l-125 -469h-297l330 1239h-152l45 174h449l-223 -840h4q78 0 126 45t128 179q111 184 254 184q80 0 124 -47t44 -120t-42 -129
t-109 -56q-66 0 -98 47t-16 115q-41 -20 -90 -109q-66 -102 -131 -145q113 -9 160 -55t47 -124q0 -33 -9 -80t-9 -63z" />
    <glyph glyph-name="l" unicode="l" horiz-adv-x="659" 
d="M72 165q0 81 37 222l227 852h-150l45 174h449l-285 -1028q-43 -150 -43 -174q0 -41 35 -41t68 43t77 156l107 -37q-123 -352 -356 -352q-98 0 -155 52q-56 52 -56 133z" />
    <glyph glyph-name="m" unicode="m" horiz-adv-x="1898" 
d="M1524 -20q-94 0 -149 53q-54 53 -54 147t69 282q68 188 68 244q0 58 -55 58q-206 0 -406 -764h-301l144 522q32 118 32 180t-61 62q-208 0 -408 -764h-301l174 655q27 111 18 125t-26 15q-51 0 -143 -203l-107 41q74 172 160 259t197 87q71 0 115 -50q88 -101 8 -372
l16 -6q195 430 436 430q88 0 137 -51q49 -52 49 -136t-44 -237l16 -6q195 430 451 430q88 0 144 -58q56 -57 56 -157t-80 -306t-80 -248t35 -42q61 0 140 199l106 -37q-123 -352 -356 -352z" />
    <glyph glyph-name="n" unicode="n" horiz-adv-x="1310" 
d="M1171 766q1 -100 -79 -306t-80 -248t35 -42q61 0 139 199l106 -37q-123 -352 -356 -352q-94 0 -149 53q-54 53 -54 147t69 282t68 243q0 59 -59 59q-208 0 -408 -764h-301l174 655q27 111 18 125t-26 15q-51 0 -143 -203l-107 41q74 172 160 259t197 87q71 0 115 -50
q88 -101 8 -372l16 -6q195 430 455 430q90 0 146 -58q56 -57 56 -157z" />
    <glyph glyph-name="o" unicode="o" horiz-adv-x="1095" 
d="M743 688q0 162 -114 162q-63 0 -117 -66q-96 -117 -141 -350q-18 -94 -19 -164q0 -162 113 -161q85 -1 151 111t97 242q30 130 30 226zM625 981q188 0 305 -113t117 -290q-1 -242 -175 -420t-401 -178q-188 0 -305 112t-117 289q0 242 174 421q175 179 402 179z" />
    <glyph glyph-name="p" unicode="p" horiz-adv-x="1212" 
d="M260 782q-28 0 -58 -44t-77 -146l-107 41q78 180 156 263t170 83t139 -56t47 -153q0 -33 -2 -53l15 -6q61 131 151 201t185 69q141 0 215 -94q74 -95 74 -247t-60 -298q-59 -146 -173 -244t-247 -98q-180 0 -250 154l-80 -314h174l-45 -170h-606l45 170h135l213 805
q37 137 -14 137zM752 788q-70 0 -132 -82t-96 -196q-34 -113 -35 -213q0 -156 113 -156q72 0 133 90t91 201t30 199q0 157 -104 157z" />
    <glyph glyph-name="q" unicode="q" horiz-adv-x="1136" 
d="M467 186q67 0 133 85t101 197q36 112 36 200q0 154 -104 153q-75 0 -139 -86q-64 -87 -97 -195t-32 -196q0 -158 102 -158zM338 0q-133 0 -209 98t-76 244t53 278q53 130 144 220q141 141 305 141q90 0 148 -54t79 -134l45 168h295l-280 -1121h139l-45 -170h-606l45 170
h168l98 355l-16 6q-113 -201 -287 -201z" />
    <glyph glyph-name="r" unicode="r" horiz-adv-x="1036" 
d="M375 979q71 0 115 -50q44 -49 44 -145t-32 -209l18 -6q92 217 173 315t194 97q74 0 125 -51t51 -134q0 -82 -50 -142q-51 -60 -119 -60t-112 42q-43 42 -39 116q-113 -50 -246 -435q-48 -139 -94 -317h-301l174 655q27 111 18 125t-26 15q-51 0 -143 -203l-107 41
q74 172 160 259t197 87z" />
    <glyph glyph-name="s" unicode="s" horiz-adv-x="956" 
d="M860 301q0 -156 -123 -239q-123 -82 -302 -82t-300 68t-121 175q0 70 43 114t110 44t103 -39q36 -38 37 -98q0 -60 -45 -109q58 -41 146 -41t129 36t41 84t-31 80t-60 47t-105 51t-120 63q-45 27 -86 81t-41 121q0 152 127 238t296 86q170 0 276 -67t106 -164
q0 -66 -42 -108t-108 -42t-103 38q-38 38 -38 96t41 100q-35 30 -113 30q-77 0 -121 -35t-44 -96t108 -118q23 -11 34 -17t39 -19q121 -56 194 -116q73 -59 73 -162z" />
    <glyph glyph-name="t" unicode="t" horiz-adv-x="837" 
d="M416 260q0 -82 73 -82q96 0 181 213l110 -35q-123 -377 -401 -376q-117 0 -190 58t-72 175q0 72 30 186l107 389h-174l37 146h176l65 240l301 34l-73 -274h299l-39 -146h-299l-115 -426q-16 -61 -16 -102z" />
    <glyph glyph-name="u" unicode="u" horiz-adv-x="1314" 
d="M967 -20q-90 0 -143 49q-52 49 -52 136t47 251l-16 6q-199 -442 -445 -442q-92 0 -150 57t-58 155t74 306t75 251q0 42 -31 42q-32 0 -62 -42t-79 -157l-107 41q131 348 361 348q94 0 147 -53q54 -52 54 -144t-66 -278t-65 -240q0 -72 57 -71q207 0 401 766h301
l-168 -644q-16 -72 -16 -98q0 -49 41 -49q66 0 135 199l105 -37q-113 -352 -340 -352z" />
    <glyph glyph-name="v" unicode="v" horiz-adv-x="1099" 
d="M376 979q104 0 155 -50t51 -136q0 -85 -69 -261t-69 -232t37 -89t94 -33q90 0 173 90q82 90 124 206q43 116 41 206q-29 -18 -81 -18t-92 39q-40 40 -40 109t50 122t128 53q80 0 134 -62q54 -63 55 -183q0 -120 -45 -250q-103 -297 -309 -436q-115 -77 -246 -77t-222 83
q-91 82 -91 194t74 288t75 211q0 36 -31 35q-36 0 -68 -45t-83 -151l-107 41q156 346 362 346z" />
    <glyph glyph-name="w" unicode="w" horiz-adv-x="1617" 
d="M378 979q206 -1 206 -197q0 -96 -85 -285t-85 -243q0 -80 71 -80q193 0 373 787h270l-73 -314q-49 -209 -49 -323q0 -145 112 -146q88 0 163 90t114 205t37 207q-29 -18 -81 -18t-93 39q-40 40 -40 109t50 122q49 53 129 53t134 -63q54 -64 54 -182q0 -243 -143 -492
q-68 -117 -176 -194t-232 -77q-122 0 -194 70t-72 221v29l-10 4q-141 -324 -369 -324q-115 0 -191 71q-76 70 -75 172q0 102 46 204t92 190t46 132t-33 42q-34 0 -66 -43t-85 -153l-107 41q156 346 362 346z" />
    <glyph glyph-name="x" unicode="x" horiz-adv-x="1226" 
d="M752 356q0 -178 96 -178q51 0 88 51t78 170l108 -41q-113 -381 -358 -381q-229 0 -260 306l-12 -2q-119 -303 -326 -304q-80 -1 -129 47t-49 123t40 127t110 52t102 -52q33 -52 20 -122q92 31 153 175q60 144 60 275q0 178 -94 178q-49 0 -86 -51t-80 -170l-107 41
q50 178 136 280t225 101q219 0 254 -305h12q119 305 324 305q80 0 130 -47t50 -122t-41 -127q-42 -52 -110 -52t-102 51t-19 121q-93 -31 -153 -175t-60 -274z" />
    <glyph glyph-name="y" unicode="y" horiz-adv-x="1183" 
d="M387 979q88 0 138 -51t50 -139q0 -89 -58 -257t-58 -210q0 -66 63 -66q39 0 75 24q153 102 304 681h279l-201 -844q-113 -473 -567 -473q-111 0 -223 35q-60 19 -98 65t-38 106q0 62 43 110t112 48q70 0 108 -40t37 -97t-50 -102q41 -12 86 -13q119 0 191 84t118 271
l58 217l-13 6q-156 -283 -362 -283q-103 -1 -159 59t-56 148t67 265q68 177 68 221t-29 44q-59 0 -153 -196l-107 41q156 346 375 346z" />
    <glyph glyph-name="z" unicode="z" horiz-adv-x="1028" 
d="M-37 111q0 145 256 192q186 223 449 350q-72 4 -171 31t-149 27t-92 -37q-41 -37 -90 -148l-103 33q68 225 146 323q77 98 227 99q150 0 260 -170l45 -68l19 5q20 123 66 178t104 55t96 -40q39 -40 39 -95q0 -143 -256 -191q-191 -227 -449 -350q70 -4 178 -31
q108 -26 161 -26t87 35t86 147l105 -31q-67 -225 -143 -323t-211 -99q-180 0 -293 170l-43 68l-19 -4q-20 -123 -66 -178t-104 -55t-96 38q-39 39 -39 95z" />
    <glyph glyph-name="braceleft" unicode="{" horiz-adv-x="813" 
d="M311 563q269 -45 269 -181q0 -68 -48 -212t-49 -200q0 -56 44 -89t153 -53l-35 -154q-233 18 -342 89t-108 200q0 76 57 222q57 145 57 193t-53 80t-168 31h-47l43 179h55q164 0 226 63q80 80 91 303q3 82 31 176q29 94 88 154q139 137 504 119l-37 -154
q-160 -2 -211 -52t-71 -166t-49 -240q-29 -123 -104 -197t-294 -94z" />
    <glyph glyph-name="bar" unicode="|" horiz-adv-x="591" 
d="M-18 -406l469 1876l180 -24l-467 -1876z" />
    <glyph glyph-name="braceright" unicode="}" horiz-adv-x="813" 
d="M670 1194q0 -76 -58 -222t-57 -194q0 -48 53 -79q53 -32 168 -31h47l-43 -179h-55q-164 0 -225 -63q-83 -83 -91 -303q-3 -82 -32 -176t-88 -154q-139 -137 -504 -119l37 154q160 2 211 52t71 166t50 240t104 198t293 94l2 16q-137 23 -203 68t-65 126q0 56 48 200
t48 200t-44 88q-44 33 -153 53l35 154q233 -18 342 -89t109 -200z" />
    <glyph glyph-name="asciitilde" unicode="~" horiz-adv-x="845" 
d="M312 606q-59 0 -111 -114h-135q53 174 114 254t168 81q66 0 155 -55t113 -55q63 0 117 114h135q-53 -175 -115 -255t-167 -80q-66 0 -155 55t-119 55z" />
    <glyph glyph-name="uni00A0" unicode="&#xa0;" horiz-adv-x="356" 
 />
    <glyph glyph-name="exclamdown" unicode="&#xa1;" horiz-adv-x="616" 
d="M497 1401q75 0 121 -43t50 -109q0 -76 -52 -130t-126 -54t-120 43t-51 111q-1 74 51 128t127 54zM220 -35q-71 0 -123 46t-52 115t45 171q8 18 26 62q17 44 105 252t148 354l135 -27q-20 -135 -70 -678q-19 -228 -104 -274q-39 -22 -110 -21z" />
    <glyph glyph-name="cent" unicode="&#xa2;" horiz-adv-x="1101" 
d="M344 394q0 -144 88 -204l160 641q-120 -37 -184 -165t-64 -272zM1057 706q0 -86 -45 -140q-46 -54 -112 -54t-104 36t-38 88t26 90q27 38 64 56q-29 43 -117 56l-172 -686h39q166 0 293 174l94 -74q-164 -266 -465 -272l-47 -195l-154 20l48 191q-147 33 -230 134
q-82 101 -82 253q0 236 162 410t406 186l43 176l153 -20l-39 -166q135 -25 206 -101t71 -162z" />
    <glyph glyph-name="sterling" unicode="&#xa3;" horiz-adv-x="1273" 
d="M137 158q0 -68 82 -68t152 115q-70 35 -122 35t-82 -23t-30 -59zM889 225q75 0 111 37t83 146l115 -25q-55 -223 -133 -319t-219 -97q-104 0 -192 44t-195 134q-113 -174 -264 -174q-94 0 -151 49q-56 48 -56 138t80 153t200 64q63 0 156 -19q6 37 6 80t-16 115h-287
l41 164h205q-14 76 -15 131q0 217 160 351t369 134t311 -80t102 -179q0 -98 -51 -156t-127 -58t-118 38t-41 103q0 106 108 152q-57 53 -163 53t-168 -80t-62 -227q0 -35 24 -182h342l-40 -164h-295q-23 -141 -129 -244l20 -6q215 -76 289 -76z" />
    <glyph glyph-name="yen" unicode="&#xa5;" horiz-adv-x="1310" 
d="M217 705h285l-160 417h-156l43 176h617l-43 -172h-144l134 -399l325 399h-151l43 172h481l-45 -176h-133l-367 -417h277l-39 -154h-361l-26 -107h362l-39 -153h-360l-31 -121h195l-43 -170h-670l41 170h194l31 121h-360l37 153h362l27 107h-363z" />
    <glyph glyph-name="section" unicode="&#xa7;" horiz-adv-x="1077" 
d="M330 598q0 -53 50 -93t144 -87t111 -58q135 49 135 150q0 41 -36 78q-36 38 -74 60t-86 44q-50 22 -105 56q-139 -47 -139 -150zM1030 596q0 -114 -81 -190t-222 -101q137 -98 137 -221q0 -154 -135 -247t-316 -93t-315 74q-133 74 -133 192q0 70 47 118q46 48 112 48
t107 -37t41 -88q0 -78 -65 -123q75 -61 187 -61q202 0 202 139q0 58 -54 102t-155 93t-141 73t-86 62q-90 74 -89 184t84 184t228 97q-131 92 -131 215q0 150 133 240t313 92q180 0 298 -71t118 -175q0 -70 -46 -116t-113 -46t-107 36t-41 96q0 60 59 108q-56 45 -154 45
t-146 -36t-48 -94q0 -57 54 -101t151 -92q240 -119 286 -211q21 -44 21 -95z" />
    <glyph glyph-name="dieresis" unicode="&#xa8;" horiz-adv-x="788" 
d="M946 1276q0 -64 -48 -119t-116 -55t-105 38q-38 38 -38 102t48 120q47 55 115 55t106 -38q38 -39 38 -103zM545 1276q0 -64 -48 -119q-47 -55 -115 -55t-107 38q-37 38 -37 102t48 120q48 55 116 55t105 -38q38 -39 38 -103z" />
    <glyph glyph-name="copyright" unicode="&#xa9;" horiz-adv-x="1611" 
d="M826 287q-160 0 -267 107q-106 108 -106 280q-1 172 107 282t252 111q144 0 214 -88l25 86h104v-293h-115q-66 199 -200 199q-180 0 -180 -287t204 -287q158 0 193 207h110q-14 -150 -98 -234q-83 -84 -243 -83zM822 31q278 0 454 181t176 461t-176 461t-454 181
t-453 -181q-176 -181 -176 -461t176 -461q175 -181 453 -181zM822 -70q-322 0 -536 211t-214 531t214 532q214 211 536 211t537 -211q214 -212 214 -532t-214 -531t-537 -211z" />
    <glyph glyph-name="ordfeminine" unicode="&#xaa;" horiz-adv-x="905" 
d="M385 886q0 -104 71 -104t127 122t56 225t-70 104q-74 0 -129 -121q-55 -122 -55 -226zM362 641q-102 0 -155 68t-53 173q0 104 41 206t102 163q102 98 215 99q63 0 104 -38t56 -95l35 118h215l-117 -444q-12 -39 -12 -72t30 -33q45 0 92 138l80 -27q-84 -256 -254 -256
q-63 0 -102 37t-39 98l2 37l-10 4q-86 -176 -230 -176z" />
    <glyph glyph-name="guillemotleft" unicode="&#xab;" horiz-adv-x="1067" 
d="M489 478q0 44 70 91l440 297l68 -84l-315 -327l159 -326l-92 -66l-293 330q-37 41 -37 85zM49 479q0 43 70 90l438 297l68 -84l-316 -327l162 -326l-94 -66l-293 330q-35 43 -35 86z" />
    <glyph glyph-name="registered" unicode="&#xae;" horiz-adv-x="1034" 
d="M602 989h60q76 0 75 72q0 39 -16 55t-57 17h-62v-144zM602 932v-133h64v-62h-242v62h61v331h-61v62h254q96 0 140 -34t44 -85q0 -96 -143 -112v-5q61 -6 88 -30t31 -68l4 -24q2 -37 19 -37t28 41l43 -13q-23 -98 -105 -98q-109 0 -108 115v22q0 37 -13 52t-49 16h-55z
M647 582q168 0 269 104q102 104 102 274t-102 274q-102 105 -270 105q-167 0 -269 -105q-103 -105 -103 -274q0 -170 102 -274t271 -104zM646 506q-198 0 -328 128t-130 326t130 326t328 127q198 0 329 -128q131 -129 131 -325t-131 -325t-329 -129z" />
    <glyph glyph-name="macron" unicode="&#xaf;" horiz-adv-x="743" 
d="M225 1106l51 201h611l-49 -201h-613z" />
    <glyph glyph-name="degree" unicode="&#xb0;" horiz-adv-x="819" 
d="M901 1094q1 -168 -109 -277t-271 -109t-245 85q-84 84 -83 204q0 164 110 274q111 109 271 109t244 -84t83 -202zM385 1009q1 -163 153 -163q74 0 124 76q49 76 49 159q0 162 -140 162q-90 0 -138 -76t-48 -158z" />
    <glyph glyph-name="plusminus" unicode="&#xb1;" horiz-adv-x="1103" 
d="M844 68h-791l37 149h791zM434 334l80 321h-313l37 148h313l78 315h164l-78 -315h313l-37 -148h-313l-80 -321h-164z" />
    <glyph glyph-name="acute" unicode="&#xb4;" horiz-adv-x="548" 
d="M594 1538q55 0 92 -37t37 -81q0 -74 -69 -128q-24 -18 -85 -61l-190 -135h-143l170 274q53 86 93 127t95 41z" />
    <glyph glyph-name="paragraph" unicode="&#xb6;" horiz-adv-x="1329" 
d="M131 748q0 227 183 374t540 148h616l-40 -170h-154l-332 -1327h-174l330 1329h-135l-330 -1329h-174l139 559q-215 10 -342 121t-127 295z" />
    <glyph glyph-name="periodcentered" unicode="&#xb7;" horiz-adv-x="530" 
d="M485 672q0 -78 -55 -140t-129 -63q-74 0 -120 49t-46 127t55 140q56 63 130 63t120 -49t45 -127z" />
    <glyph glyph-name="cedilla" unicode="&#xb8;" horiz-adv-x="690" 
d="M53 -383q94 0 94 64q0 37 -50 56t-136 13l-29 80l248 184h160l-166 -135l2 -8q188 -37 188 -185q0 -76 -77 -136q-79 -60 -223 -60t-263 84l70 98q88 -55 182 -55z" />
    <glyph glyph-name="ordmasculine" unicode="&#xba;" horiz-adv-x="794" 
d="M651 1141q0 113 -78 112q-57 1 -103 -77t-66 -167t-21 -157q0 -113 76 -113q59 0 105 77q87 146 87 325zM162 926q0 172 124 298t272 126t232 -79t84 -206q0 -170 -124 -297t-274 -127q-148 0 -231 80t-83 205z" />
    <glyph glyph-name="guillemotright" unicode="&#xbb;" horiz-adv-x="1067" 
d="M246 868l293 -329q37 -41 37 -85t-70 -92l-440 -296l-68 84l315 327l-159 326zM1016 453q0 -43 -70 -91l-438 -296l-68 84l316 327l-162 326l94 65l293 -329q35 -43 35 -86z" />
    <glyph glyph-name="questiondown" unicode="&#xbf;" horiz-adv-x="1007" 
d="M731 1401q76 0 122 -45t46 -115t-53 -123t-128 -53t-121 46t-46 115t52 122t128 53zM610 979q104 0 182 -56q78 -57 76 -163q0 -106 -78 -172t-233 -117q-138 -50 -190 -83q-52 -32 -71 -66q-20 -34 -20 -90t48 -90t130 -34q84 0 130 33q-39 53 -39 111t45 106
q45 50 120 50q74 0 120 -44t47 -116q0 -121 -126 -202t-327 -81q-202 0 -312 95t-110 244q0 148 106 228t318 136q113 32 157 56t44 64q0 58 -78 58t-176 -68l-62 86q121 115 299 115z" />
    <glyph glyph-name="Agrave" unicode="&#xc0;" horiz-adv-x="1427" 
d="M672 1799q0 60 36 99t100 39t94 -52q29 -52 54 -165l52 -227h-129l-109 133q-98 113 -98 173zM512 592h332l-35 510h-8zM705 178h167l-18 252h-432l-143 -252h174l-45 -178h-519l43 178h136l694 1178h313l119 -1178h168l-43 -178h-660z" />
    <glyph glyph-name="Aacute" unicode="&#xc1;" horiz-adv-x="1427" 
d="M1184 1935q55 0 92 -37t37 -81q0 -73 -69 -127q-24 -19 -85 -62l-190 -135h-144l170 274q53 86 93 127t96 41zM512 592h332l-35 510h-8zM705 178h167l-18 252h-432l-143 -252h174l-45 -178h-519l43 178h136l694 1178h313l119 -1178h168l-43 -178h-660z" />
    <glyph glyph-name="Acircumflex" unicode="&#xc2;" horiz-adv-x="1427" 
d="M594 1493l352 403h166l152 -403h-166l-111 176l-209 -176h-184zM512 592h332l-35 510h-8zM705 178h167l-18 252h-432l-143 -252h174l-45 -178h-519l43 178h136l694 1178h313l119 -1178h168l-43 -178h-660z" />
    <glyph glyph-name="Atilde" unicode="&#xc3;" horiz-adv-x="1427" 
d="M823 1604q-63 0 -116 -117h-136q55 174 117 255t166 81q72 1 170 -55t129 -56q63 0 117 117h135q-55 -176 -117 -256t-166 -80q-72 -1 -169 55t-130 56zM512 592h332l-35 510h-8zM705 178h167l-18 252h-432l-143 -252h174l-45 -178h-519l43 178h136l694 1178h313
l119 -1178h168l-43 -178h-660z" />
    <glyph glyph-name="Adieresis" unicode="&#xc4;" horiz-adv-x="1427" 
d="M1341 1674q0 -64 -48 -120q-47 -55 -115 -55t-106 38q-38 39 -38 103t48 119t116 55t106 -37q37 -39 37 -103zM940 1674q0 -64 -48 -120q-48 -55 -116 -55t-105 38q-38 39 -38 103t48 119q47 55 115 55t106 -38t38 -102zM512 592h332l-35 510h-8zM705 178h167l-18 252
h-432l-143 -252h174l-45 -178h-519l43 178h136l694 1178h313l119 -1178h168l-43 -178h-660z" />
    <glyph glyph-name="Aring" unicode="&#xc5;" horiz-adv-x="1427" 
d="M848 1514q0 -118 90 -117q51 0 85 49q34 50 34 106q0 116 -92 115q-49 0 -83 -48q-34 -47 -34 -105zM510 592h334l-35 514h-8zM1210 1556q0 -156 -133 -227l117 -1151h168l-43 -178h-660l46 178h167l-18 252h-434l-144 -252h177l-45 -178h-519l43 178h140l690 1174
q-70 59 -70 161q0 101 77 179t194 78t182 -62t65 -152z" />
    <glyph glyph-name="AE" unicode="&#xc6;" horiz-adv-x="2123" 
d="M641 612h358l140 553h-23zM1430 766q86 0 118 32t86 156h160l-135 -546h-158q16 124 -2 158t-100 34h-82l-107 -426h291q147 0 208 65q60 65 157 293h180l-133 -532h-1247l43 178h182l67 273h-454l-238 -275h162l-43 -176h-535l44 178h133l882 991h-186l45 179h1462
l-121 -480h-161q4 195 -29 250t-162 56h-297l-102 -408h72z" />
    <glyph glyph-name="Ccedilla" unicode="&#xc7;" horiz-adv-x="1396" 
d="M500 -383q94 0 94 64q0 37 -50 56t-136 13l-29 80l196 147q-215 35 -335 185t-121 381q0 141 50 287q114 332 378 473q145 78 317 77q258 0 373 -172l92 168h187l-134 -536h-194q-12 196 -92 284t-190 88t-187 -54q-78 -54 -126 -136q-97 -165 -127 -363
q-13 -84 -13 -149q0 -186 85 -268q86 -82 218 -82t228 94q95 94 173 281l168 -54q-174 -498 -596 -514l-108 -88l2 -8q90 -17 139 -63t49 -109q0 -89 -78 -149q-79 -60 -223 -60t-262 84l69 98q89 -55 183 -55z" />
    <glyph glyph-name="Egrave" unicode="&#xc8;" horiz-adv-x="1398" 
d="M688 1799q0 60 36 99t100 39t94 -52t55 -165l51 -227h-129l-109 133q-98 113 -98 173zM702 766q86 0 119 32t86 156h160l-135 -546h-156q14 124 -4 158t-100 34h-82l-107 -426h291q147 0 208 65q60 65 159 293h180l-133 -532h-1249l45 178h180l248 991h-183l43 179h1231
l-121 -480h-161q4 195 -29 250t-162 56h-297l-102 -408h71z" />
    <glyph glyph-name="Eacute" unicode="&#xc9;" horiz-adv-x="1398" 
d="M702 766q86 0 119 32t86 156h160l-135 -546h-156q14 124 -4 158t-100 34h-82l-107 -426h291q147 0 208 65q60 65 159 293h180l-133 -532h-1249l45 178h180l248 991h-183l43 179h1231l-121 -480h-161q4 195 -29 250t-162 56h-297l-102 -408h71zM1200 1935q55 0 92 -37
t37 -81q0 -74 -68 -127q-24 -19 -85 -62l-191 -135h-143l170 274q53 86 93 127t95 41z" />
    <glyph glyph-name="Ecircumflex" unicode="&#xca;" horiz-adv-x="1398" 
d="M702 766q86 0 119 32t86 156h160l-135 -546h-156q14 124 -4 158t-100 34h-82l-107 -426h291q147 0 208 65q60 65 159 293h180l-133 -532h-1249l45 178h180l248 991h-183l43 179h1231l-121 -480h-161q4 195 -29 250t-162 56h-297l-102 -408h71zM612 1493l353 403h165
l152 -403h-166l-110 176l-209 -176h-185z" />
    <glyph glyph-name="Edieresis" unicode="&#xcb;" horiz-adv-x="1398" 
d="M702 766q86 0 119 32t86 156h160l-135 -546h-156q14 124 -4 158t-100 34h-82l-107 -426h291q147 0 208 65q60 65 159 293h180l-133 -532h-1249l45 178h180l248 991h-183l43 179h1231l-121 -480h-161q4 195 -29 250t-162 56h-297l-102 -408h71zM1360 1674q0 -64 -48 -120
q-48 -55 -116 -55t-105 38q-38 39 -38 103t48 119q47 55 115 55t106 -38t38 -102zM958 1674q0 -64 -48 -120q-48 -55 -116 -55t-105 38q-38 39 -38 103t48 119q47 55 115 55t107 -37q37 -39 37 -103z" />
    <glyph glyph-name="Igrave" unicode="&#xcc;" horiz-adv-x="813" 
d="M381 1799q0 60 36 99q37 39 101 39t94 -52t54 -165l51 -227h-129l-109 133q-98 113 -98 173zM-55 0l45 178h180l248 991h-182l43 179h684l-43 -179h-183l-245 -991h182l-43 -178h-686z" />
    <glyph glyph-name="Iacute" unicode="&#xcd;" horiz-adv-x="813" 
d="M893 1935q55 0 92 -37t37 -81q0 -73 -69 -127q-24 -19 -85 -62l-190 -135h-143l170 274q53 86 93 127t95 41zM-55 0l45 178h180l248 991h-182l43 179h684l-43 -179h-183l-245 -991h182l-43 -178h-686z" />
    <glyph glyph-name="Icircumflex" unicode="&#xce;" horiz-adv-x="813" 
d="M305 1493l352 403h166l152 -403h-166l-111 176l-209 -176h-184zM-55 0l45 178h180l248 991h-182l43 179h684l-43 -179h-183l-245 -991h182l-43 -178h-686z" />
    <glyph glyph-name="Idieresis" unicode="&#xcf;" horiz-adv-x="813" 
d="M745 1640q1 64 49 119t116 55t105 -38q38 -38 38 -102t-48 -120q-47 -55 -115 -55t-107 38q-38 39 -38 103zM651 1674q0 -64 -48 -120q-47 -55 -115 -55t-106 38q-38 39 -38 103t48 119t116 55t105 -38q38 -38 38 -102zM-55 0l45 178h180l248 991h-182l43 179h684
l-43 -179h-183l-245 -991h182l-43 -178h-686z" />
    <glyph glyph-name="Eth" unicode="&#xd0;" horiz-adv-x="1495" 
d="M594 174q125 0 210 31t164 109t135 241q56 161 56 315t-82 229t-254 75h-90l-96 -383h235l-45 -177h-235l-109 -440h111zM815 1348q332 0 508 -148t176 -391q0 -156 -58 -304t-171 -263q-246 -242 -705 -242h-626l45 178h180l108 436h-180l43 177h180l97 378h-183l43 179
h543z" />
    <glyph glyph-name="Ntilde" unicode="&#xd1;" horiz-adv-x="1589" 
d="M918 1604q-63 0 -117 -117h-135q55 174 116 255t166 81q72 1 170 -55t129 -56q63 0 117 117h135q-55 -176 -117 -256t-165 -80q-72 -1 -169 55t-130 56zM963 -18l-377 1048h-19l-213 -852h183l-43 -178h-539l43 178h172l248 991h-176l45 179h516l342 -947h18l191 768
h-185l45 179h541l-43 -179h-176l-295 -1187h-278z" />
    <glyph glyph-name="Ograve" unicode="&#xd2;" horiz-adv-x="1505" 
d="M717 1799q0 60 36 99q37 39 101 39t93 -52t54 -165l52 -227h-129l-109 133q-98 113 -98 173zM1151 897q-1 159 -71 237t-188 78t-205 -84t-136 -208q-100 -252 -98 -469q-1 -158 71 -237t189 -79t205 84q147 140 208 455q25 123 25 223zM889 1380q264 0 431 -165
t167 -415t-132 -469q-132 -220 -362 -313q-129 -51 -276 -51q-264 0 -431 165t-167 416t124 457q65 109 153 191t216 133q129 51 277 51z" />
    <glyph glyph-name="Oacute" unicode="&#xd3;" horiz-adv-x="1505" 
d="M1151 897q-1 159 -71 237t-188 78t-205 -84t-136 -208q-100 -252 -98 -469q-1 -158 71 -237t189 -79t205 84q147 140 208 455q25 123 25 223zM889 1380q264 0 431 -165t167 -415t-132 -469q-132 -220 -362 -313q-129 -51 -276 -51q-264 0 -431 165t-167 416t124 457
q65 109 153 191t216 133q129 51 277 51zM1229 1935q55 0 92 -37t37 -81q0 -73 -69 -127q-24 -19 -85 -62l-190 -135h-144l170 274q54 86 94 127t95 41z" />
    <glyph glyph-name="Ocircumflex" unicode="&#xd4;" horiz-adv-x="1505" 
d="M1151 897q-1 159 -71 237t-188 78t-205 -84t-136 -208q-100 -252 -98 -469q-1 -158 71 -237t189 -79t205 84q147 140 208 455q25 123 25 223zM889 1380q264 0 431 -165t167 -415t-132 -469q-132 -220 -362 -313q-129 -51 -276 -51q-264 0 -431 165t-167 416t124 457
q65 109 153 191t216 133q129 51 277 51zM641 1493l352 403h166l152 -403h-166l-111 176l-209 -176h-184z" />
    <glyph glyph-name="Otilde" unicode="&#xd5;" horiz-adv-x="1505" 
d="M868 1604q-63 0 -116 -117h-136q54 174 116 255t167 81q72 1 170 -55t129 -56q63 0 117 117h135q-54 -176 -116 -256t-167 -80q-72 -1 -169 55t-130 56zM1151 897q-1 159 -71 237t-188 78t-205 -84t-136 -208q-100 -252 -98 -469q-1 -158 71 -237t189 -79t205 84
q147 140 208 455q25 123 25 223zM889 1380q264 0 431 -165t167 -415t-132 -469q-132 -220 -362 -313q-129 -51 -276 -51q-264 0 -431 165t-167 416t124 457q65 109 153 191t216 133q129 51 277 51z" />
    <glyph glyph-name="Odieresis" unicode="&#xd6;" horiz-adv-x="1505" 
d="M1151 897q-1 159 -71 237t-188 78t-205 -84t-136 -208q-100 -252 -98 -469q-1 -158 71 -237t189 -79t205 84q147 140 208 455q25 123 25 223zM889 1380q264 0 431 -165t167 -415t-132 -469q-132 -220 -362 -313q-129 -51 -276 -51q-264 0 -431 165t-167 416t124 457
q65 109 153 191t216 133q129 51 277 51zM1386 1674q0 -64 -48 -120q-48 -55 -116 -55t-105 38q-38 39 -38 103t48 119q47 55 115 55t107 -37q37 -39 37 -103zM985 1674q0 -64 -48 -120q-47 -55 -115 -55t-106 38q-38 39 -38 103t48 119t116 55t105 -38q38 -38 38 -102z" />
    <glyph glyph-name="multiply" unicode="&#xd7;" horiz-adv-x="1064" 
d="M678 573l209 -284l-144 -113l-202 287l-348 -293l-101 131l357 291l-209 285l143 114l203 -289l348 293l100 -133z" />
    <glyph glyph-name="Oslash" unicode="&#xd8;" horiz-adv-x="1505" 
d="M885 1212q-111 0 -198 -84t-136 -208q-100 -252 -98 -469q0 -29 2 -43l649 692q-67 112 -219 112zM1151 851q0 55 -1 69t-1 20l-651 -692q68 -113 221 -113q111 0 199 84q147 140 208 455q25 123 25 177zM889 1380q213 0 373 -116l190 206l119 -106l-199 -211
q115 -158 115 -380t-132 -442t-362 -313q-129 -51 -276 -51q-219 0 -375 115l-190 -205l-119 107l198 209q-112 153 -112 379t124 433q65 109 153 191t216 133q129 51 277 51z" />
    <glyph glyph-name="Ugrave" unicode="&#xd9;" horiz-adv-x="1497" 
d="M815 1799q0 60 36 99q37 39 101 39t94 -52t54 -165l51 -227h-129l-109 133q-98 113 -98 173zM193 342q0 68 30 195l158 632h-172l43 179h674l-43 -179h-178l-164 -651q-20 -82 -21 -145q0 -103 69 -153t193 -50t205 82q82 82 119 233l172 684h-174l43 179h530l-45 -179
h-164l-182 -731q-117 -471 -575 -471q-257 -1 -387 105t-131 270z" />
    <glyph glyph-name="Uacute" unicode="&#xda;" horiz-adv-x="1497" 
d="M193 342q0 68 30 195l158 632h-172l43 179h674l-43 -179h-178l-164 -651q-20 -82 -21 -145q0 -103 69 -153t193 -50t205 82q82 82 119 233l172 684h-174l43 179h530l-45 -179h-164l-182 -731q-117 -471 -575 -471q-257 -1 -387 105t-131 270zM1327 1935q55 0 92 -37
t37 -81q0 -74 -68 -127q-24 -19 -85 -62l-191 -135h-143l170 274q53 86 93 127t95 41z" />
    <glyph glyph-name="Ucircumflex" unicode="&#xdb;" horiz-adv-x="1497" 
d="M193 342q0 68 30 195l158 632h-172l43 179h674l-43 -179h-178l-164 -651q-20 -82 -21 -145q0 -103 69 -153t193 -50t205 82q82 82 119 233l172 684h-174l43 179h530l-45 -179h-164l-182 -731q-117 -471 -575 -471q-257 -1 -387 105t-131 270zM737 1493l353 403h165
l152 -403h-166l-111 176l-208 -176h-185z" />
    <glyph glyph-name="Udieresis" unicode="&#xdc;" horiz-adv-x="1497" 
d="M193 342q0 68 30 195l158 632h-172l43 179h674l-43 -179h-178l-164 -651q-20 -82 -21 -145q0 -103 69 -153t193 -50t205 82q82 82 119 233l172 684h-174l43 179h530l-45 -179h-164l-182 -731q-117 -471 -575 -471q-257 -1 -387 105t-131 270zM1485 1674q0 -64 -48 -120
q-47 -55 -115 -55t-107 38q-37 39 -37 103t48 119t116 55t105 -38q38 -38 38 -102zM1083 1674q0 -64 -48 -120q-47 -55 -115 -55t-106 38q-38 39 -38 103t48 119t116 55t106 -37q37 -39 37 -103z" />
    <glyph glyph-name="Yacute" unicode="&#xdd;" horiz-adv-x="1337" 
d="M1182 1935q56 0 92 -37q37 -37 37 -81q0 -73 -69 -127q-24 -19 -85 -62l-190 -135h-144l170 274q53 86 93 127t96 41zM819 727l359 444h-162l45 177h510l-43 -179h-139l-523 -616l-94 -375h182l-43 -178h-686l43 178h183l94 379l-215 612h-156l43 179h666l-43 -177h-164z
" />
    <glyph glyph-name="Thorn" unicode="&#xde;" horiz-adv-x="1357" 
d="M752 893h-90l-103 -418h135q166 0 237 77t71 171t-60 132q-59 38 -190 38zM799 1063q297 0 427 -84t130 -243t-133 -286q-70 -67 -203 -106t-311 -39h-193l-31 -127h183l-43 -178h-680l43 178h176l248 991h-179l43 179h682l-45 -179h-182l-26 -106h94z" />
    <glyph glyph-name="germandbls" unicode="&#xdf;" horiz-adv-x="1280" 
d="M920 764q0 -60 59 -108q21 -17 73 -59t84 -73t62 -88t31 -119q0 -147 -111 -242q-110 -95 -272 -95t-243 56t-81 130t41 120t103 46t99 -36q36 -36 36 -93t-47 -105q33 -18 86 -18t92 41t39 99t-36 102q-35 44 -99 93q-64 51 -91 75t-52 67t-25 99t34 103q35 45 115 109
t109 92t53 78q25 51 25 119t-40 112t-110 44q-106 0 -166 -82t-96 -258l-176 -832q-55 -262 -180 -381t-291 -118q-100 0 -160 48q-59 48 -59 116t41 116q41 47 99 47t91 -34t33 -92t-33 -97q53 0 81 43t56 184l164 815h-180l37 146h172q113 494 569 493q194 1 308 -73
t114 -189q0 -67 -35 -119t-72 -78t-113 -67t-106 -71q-32 -30 -32 -66z" />
    <glyph glyph-name="agrave" unicode="&#xe0;" 
d="M578 1540q64 0 94 -52t55 -165l51 -227h-129l-108 133q-99 113 -99 173t36 99t100 39zM461 168q73 0 137 91t98 206q35 115 35 203q0 154 -102 153q-105 0 -187 -176q-82 -177 -82 -327t101 -150zM930 219q0 -49 41 -49q66 0 135 199l104 -37q-113 -352 -342 -352
q-88 0 -140 49t-52 141q0 14 4 51l-16 6q-119 -248 -322 -247q-141 0 -217 96t-76 244t59 290q58 143 144 232q143 139 301 139q88 0 145 -54t76 -134l47 168h295l-170 -644q-16 -72 -16 -98z" />
    <glyph glyph-name="aacute" unicode="&#xe1;" 
d="M954 1538q54 0 92 -37t38 -81q-1 -75 -69 -128q-24 -18 -85 -61l-191 -135h-143l170 274q53 86 93 127t95 41zM461 168q73 0 137 91t98 206q35 115 35 203q0 154 -102 153q-105 0 -187 -176q-82 -177 -82 -327t101 -150zM930 219q0 -49 41 -49q66 0 135 199l104 -37
q-113 -352 -342 -352q-88 0 -140 49t-52 141q0 14 4 51l-16 6q-119 -248 -322 -247q-141 0 -217 96t-76 244t59 290q58 143 144 232q143 139 301 139q88 0 145 -54t76 -134l47 168h295l-170 -644q-16 -72 -16 -98z" />
    <glyph glyph-name="acircumflex" unicode="&#xe2;" 
d="M362 1096l353 403h166l151 -403h-166l-110 176l-209 -176h-185zM461 168q73 0 137 91t98 206q35 115 35 203q0 154 -102 153q-105 0 -187 -176q-82 -177 -82 -327t101 -150zM930 219q0 -49 41 -49q66 0 135 199l104 -37q-113 -352 -342 -352q-88 0 -140 49t-52 141
q0 14 4 51l-16 6q-119 -248 -322 -247q-141 0 -217 96t-76 244t59 290q58 143 144 232q143 139 301 139q88 0 145 -54t76 -134l47 168h295l-170 -644q-16 -72 -16 -98z" />
    <glyph glyph-name="atilde" unicode="&#xe3;" 
d="M594 1206q-63 0 -117 -116h-135q54 174 116 255t167 80q72 0 170 -55t129 -55q63 0 116 117h136q-54 -176 -116 -256t-167 -80q-72 0 -169 55t-130 55zM461 168q73 0 137 91t98 206q35 115 35 203q0 154 -102 153q-105 0 -187 -176q-82 -177 -82 -327t101 -150zM930 219
q0 -49 41 -49q66 0 135 199l104 -37q-113 -352 -342 -352q-88 0 -140 49t-52 141q0 14 4 51l-16 6q-119 -248 -322 -247q-141 0 -217 96t-76 244t59 290q58 143 144 232q143 139 301 139q88 0 145 -54t76 -134l47 168h295l-170 -644q-16 -72 -16 -98z" />
    <glyph glyph-name="adieresis" unicode="&#xe4;" 
d="M1110 1276q0 -64 -48 -119t-116 -55t-105 38q-38 38 -38 102t48 120q47 55 115 55t106 -38q38 -39 38 -103zM401 1242q1 64 49 120q48 55 115 55t105 -38q38 -39 39 -103q-1 -64 -49 -119t-115 -55t-106 38q-38 38 -38 102zM461 168q73 0 137 91t98 206q35 115 35 203
q0 154 -102 153q-105 0 -187 -176q-82 -177 -82 -327t101 -150zM930 219q0 -49 41 -49q66 0 135 199l104 -37q-113 -352 -342 -352q-88 0 -140 49t-52 141q0 14 4 51l-16 6q-119 -248 -322 -247q-141 0 -217 96t-76 244t59 290q58 143 144 232q143 139 301 139q88 0 145 -54
t76 -134l47 168h295l-170 -644q-16 -72 -16 -98z" />
    <glyph glyph-name="aring" unicode="&#xe5;" 
d="M879 1340q0 116 -94 116q-47 0 -81 -48t-34 -106q0 -118 92 -116q49 0 83 49t34 105zM764 1083q-116 -1 -182 61t-66 161t76 177t193 77q117 1 182 -61t65 -162t-76 -176q-76 -77 -192 -77zM461 168q73 0 137 91t98 206q35 115 35 203q0 154 -102 153q-105 0 -187 -176
q-82 -177 -82 -327t101 -150zM930 219q0 -49 41 -49q66 0 135 199l104 -37q-113 -352 -342 -352q-88 0 -140 49t-52 141q0 14 4 51l-16 6q-119 -248 -322 -247q-141 0 -217 96t-76 244t59 290q58 143 144 232q143 139 301 139q88 0 145 -54t76 -134l47 168h295l-170 -644
q-16 -72 -16 -98z" />
    <glyph glyph-name="ae" unicode="&#xe6;" horiz-adv-x="1558" 
d="M621 363q0 54 6 88q-152 -15 -235 -59t-83 -132q0 -45 28 -77t77 -31q111 0 213 120q-6 37 -6 91zM1176 852q-88 0 -160 -106t-103 -248q184 12 267 83q82 71 82 167q0 48 -24 76t-62 28zM1198 981q166 0 249 -66t83 -172q0 -151 -157 -247t-472 -107v-16q0 -125 55 -179
t142 -55q141 0 274 164l90 -74q-196 -249 -456 -249t-347 186q-156 -184 -370 -184q-131 0 -201 66t-70 167q0 307 631 334q29 100 29 147q0 139 -166 140q-57 0 -102 -19q28 -29 28 -85t-44 -95t-109 -39t-102 39q-36 39 -36 88q0 117 119 185q118 68 322 69
q204 0 286 -111q158 113 324 113z" />
    <glyph glyph-name="ccedilla" unicode="&#xe7;" horiz-adv-x="1005" 
d="M293 -383q94 0 94 64q0 37 -50 56t-136 13l-29 80l207 154q-154 20 -242 121t-88 260q0 250 179 433t415 183q137 0 231 -72t95 -198q0 -81 -49 -141q-48 -60 -116 -60t-106 36q-37 36 -36 91q0 98 102 145q-25 61 -109 62q-127 0 -213 -148t-86 -294t54 -198t129 -52
q143 0 266 174l94 -76q-158 -225 -352 -262l-133 -109l2 -8q90 -17 139 -63t49 -109q0 -89 -78 -149t-222 -60t-263 84l70 98q88 -55 182 -55z" />
    <glyph glyph-name="egrave" unicode="&#xe8;" horiz-adv-x="1007" 
d="M711 752q0 100 -87 100t-159 -108t-100 -246q184 12 265 83t81 171zM391 1402q0 60 36 99q37 39 101 39t94 -52t54 -165l51 -227h-129l-109 133q-98 113 -98 173zM981 743q0 -151 -158 -247t-473 -107v-16q0 -125 56 -179t143 -55q141 0 274 164l90 -74
q-195 -250 -464 -249q-182 0 -292 103t-110 279q0 244 180 432t439 187q150 0 232 -66t83 -172z" />
    <glyph glyph-name="eacute" unicode="&#xe9;" horiz-adv-x="1007" 
d="M711 752q0 100 -87 100t-159 -108t-100 -246q184 12 265 83t81 171zM903 1538q55 0 92 -37t37 -81q0 -75 -68 -128q-24 -18 -85 -61l-191 -135h-143l170 274q53 86 93 127t95 41zM981 743q0 -151 -158 -247t-473 -107v-16q0 -125 56 -179t143 -55q141 0 274 164l90 -74
q-195 -250 -464 -249q-182 0 -292 103t-110 279q0 244 180 432t439 187q150 0 232 -66t83 -172z" />
    <glyph glyph-name="ecircumflex" unicode="&#xea;" horiz-adv-x="1007" 
d="M711 752q0 100 -87 100t-159 -108t-100 -246q184 12 265 83t81 171zM313 1096l353 403h165l152 -403h-166l-110 176l-209 -176h-185zM981 743q0 -151 -158 -247t-473 -107v-16q0 -125 56 -179t143 -55q141 0 274 164l90 -74q-195 -250 -464 -249q-182 0 -292 103
t-110 279q0 244 180 432t439 187q150 0 232 -66t83 -172z" />
    <glyph glyph-name="edieresis" unicode="&#xeb;" horiz-adv-x="1007" 
d="M711 752q0 100 -87 100t-159 -108t-100 -246q184 12 265 83t81 171zM516 1417q68 0 105 -38q38 -39 38 -103t-48 -119q-47 -55 -115 -55t-106 38t-38 102t48 120q48 55 116 55zM1061 1276q0 -64 -48 -119q-47 -55 -115 -55t-106 38t-38 102t48 120q48 55 116 55t105 -38
q38 -39 38 -103zM981 743q0 -151 -158 -247t-473 -107v-16q0 -125 56 -179t143 -55q141 0 274 164l90 -74q-195 -250 -464 -249q-182 0 -292 103t-110 279q0 244 180 432t439 187q150 0 232 -66t83 -172z" />
    <glyph glyph-name="igrave" unicode="&#xec;" horiz-adv-x="741" 
d="M158 1402q0 60 36 99t100 39t94 -52q29 -52 54 -165l52 -227h-129l-109 133q-98 113 -98 173zM598 785q0 -89 -84 -309t-84 -263t37 -43q63 0 143 199l107 -37q-123 -352 -361 -352q-92 0 -150 54t-58 147t84 311q85 218 85 261q0 42 -30 42q-53 0 -148 -203l-104 41
q147 348 368 348q86 0 141 -53q54 -54 54 -143z" />
    <glyph glyph-name="iacute" unicode="&#xed;" horiz-adv-x="741" 
d="M598 785q0 -89 -84 -309t-84 -263t37 -43q63 0 143 199l107 -37q-123 -352 -361 -352q-92 0 -150 54t-58 147t84 311q85 218 85 261q0 42 -30 42q-53 0 -148 -203l-104 41q147 348 368 348q86 0 141 -53q54 -54 54 -143zM668 1538q56 0 92 -37q37 -37 37 -81
q0 -74 -69 -128q-24 -18 -85 -61l-190 -135h-144l170 274q53 86 93 127t96 41z" />
    <glyph glyph-name="icircumflex" unicode="&#xee;" horiz-adv-x="741" 
d="M598 785q0 -89 -84 -309t-84 -263t37 -43q63 0 143 199l107 -37q-123 -352 -361 -352q-92 0 -150 54t-58 147t84 311q85 218 85 261q0 42 -30 42q-53 0 -148 -203l-104 41q147 348 368 348q86 0 141 -53q54 -54 54 -143zM78 1096l352 403h166l152 -403h-166l-111 176
l-209 -176h-184z" />
    <glyph glyph-name="idieresis" unicode="&#xef;" horiz-adv-x="741" 
d="M598 785q0 -89 -84 -309t-84 -263t37 -43q63 0 143 199l107 -37q-123 -352 -361 -352q-92 0 -150 54t-58 147t84 311q85 218 85 261q0 42 -30 42q-53 0 -148 -203l-104 41q147 348 368 348q86 0 141 -53q54 -54 54 -143zM684 1417q68 0 105 -38q38 -39 38 -103t-48 -119
q-47 -55 -115 -55t-106 38t-38 102t48 120q48 55 116 55zM426 1276q0 -64 -48 -119t-116 -55t-105 38q-38 38 -38 102t48 120q47 55 115 55t106 -38q38 -39 38 -103z" />
    <glyph glyph-name="eth" unicode="&#xf0;" horiz-adv-x="1112" 
d="M737 627q0 158 -116 157q-80 0 -145 -93q-66 -93 -96 -209t-30 -212q0 -162 113 -161q81 0 147 95t97 212q30 117 30 211zM1071 735q0 -342 -173 -549t-429 -206q-186 0 -304 112t-118 289q0 237 152 395t334 158t255 -105q0 137 -51 277l-252 -80l-39 129l236 76
q-35 70 -86 143l188 60q63 -70 109 -136l221 72l41 -129l-190 -61q106 -213 106 -445z" />
    <glyph glyph-name="ntilde" unicode="&#xf1;" horiz-adv-x="1310" 
d="M664 1206q-63 0 -117 -116h-135q55 174 116 255t166 80q72 0 170 -55t129 -55q63 0 117 117h135q-55 -176 -117 -256t-165 -80q-72 0 -169 55t-130 55zM1171 766q1 -100 -79 -306t-80 -248t35 -42q61 0 139 199l106 -37q-123 -352 -356 -352q-94 0 -149 53
q-54 53 -54 147t69 282t68 243q0 59 -59 59q-208 0 -408 -764h-301l174 655q27 111 18 125t-26 15q-51 0 -143 -203l-107 41q74 172 160 259t197 87q71 0 115 -50q88 -101 8 -372l16 -6q195 430 455 430q90 0 146 -58q56 -57 56 -157z" />
    <glyph glyph-name="ograve" unicode="&#xf2;" horiz-adv-x="1095" 
d="M540 1540q65 0 94 -52t54 -165l51 -227h-129l-108 133q-98 113 -98 173t35 99q36 39 101 39zM743 688q0 162 -114 162q-63 0 -117 -66q-96 -117 -141 -350q-18 -94 -19 -164q0 -162 113 -161q85 -1 151 111t97 242q30 130 30 226zM625 981q188 0 305 -113t117 -290
q-1 -242 -175 -420t-401 -178q-188 0 -305 112t-117 289q0 242 174 421q175 179 402 179z" />
    <glyph glyph-name="oacute" unicode="&#xf3;" horiz-adv-x="1095" 
d="M743 688q0 162 -114 162q-63 0 -117 -66q-96 -117 -141 -350q-18 -94 -19 -164q0 -162 113 -161q85 -1 151 111t97 242q30 130 30 226zM625 981q188 0 305 -113t117 -290q-1 -242 -175 -420t-401 -178q-188 0 -305 112t-117 289q0 242 174 421q175 179 402 179zM915 1538
q55 0 93 -37t36 -81q-1 -75 -68 -128q-24 -18 -85 -61l-191 -135h-143l170 274q53 86 93 127t95 41z" />
    <glyph glyph-name="ocircumflex" unicode="&#xf4;" horiz-adv-x="1095" 
d="M743 688q0 162 -114 162q-63 0 -117 -66q-96 -117 -141 -350q-18 -94 -19 -164q0 -162 113 -161q85 -1 151 111t97 242q30 130 30 226zM625 981q188 0 305 -113t117 -290q-1 -242 -175 -420t-401 -178q-188 0 -305 112t-117 289q0 242 174 421q175 179 402 179zM326 1096
l352 403h166l151 -403h-166l-110 176l-209 -176h-184z" />
    <glyph glyph-name="otilde" unicode="&#xf5;" horiz-adv-x="1095" 
d="M555 1206q-63 0 -117 -116h-135q55 174 117 255t166 80q72 0 170 -55t129 -55q63 0 116 117h136q-55 -176 -117 -256t-166 -80q-72 0 -169 55t-130 55zM743 688q0 162 -114 162q-63 0 -117 -66q-96 -117 -141 -350q-18 -94 -19 -164q0 -162 113 -161q85 -1 151 111
t97 242q30 130 30 226zM625 981q188 0 305 -113t117 -290q-1 -242 -175 -420t-401 -178q-188 0 -305 112t-117 289q0 242 174 421q175 179 402 179z" />
    <glyph glyph-name="odieresis" unicode="&#xf6;" horiz-adv-x="1095" 
d="M743 688q0 162 -114 162q-63 0 -117 -66q-96 -117 -141 -350q-18 -94 -19 -164q0 -162 113 -161q85 -1 151 111t97 242q30 130 30 226zM625 981q188 0 305 -113t117 -290q-1 -242 -175 -420t-401 -178q-188 0 -305 112t-117 289q0 242 174 421q175 179 402 179z
M1073 1276q0 -64 -48 -119q-47 -55 -115 -55t-106 38t-38 102t48 120q48 55 116 55t105 -38q38 -39 38 -103zM672 1276q0 -64 -48 -119t-116 -55t-106 38t-38 102t49 120q47 55 115 55t106 -38q38 -39 38 -103z" />
    <glyph glyph-name="divide" unicode="&#xf7;" horiz-adv-x="1062" 
d="M651 1079q63 0 103 -40q40 -39 39 -105q0 -66 -47 -117q-46 -51 -110 -51t-104 40q-38 40 -38 106t47 116q47 51 110 51zM482 399q62 0 102 -40q40 -39 39 -105q0 -66 -47 -117q-48 -51 -110 -51t-101 40t-39 106t47 116q47 51 109 51zM987 502h-897l41 164h895z" />
    <glyph glyph-name="oslash" unicode="&#xf8;" horiz-adv-x="1095" 
d="M465 109q57 0 107 50t84 129q70 164 85 324l-383 -430q23 -73 107 -73zM635 850q-80 0 -142 -89q-110 -158 -139 -419l383 430q-22 78 -102 78zM49 381q0 242 174 421t402 179q135 0 237 -63l133 143l95 -86l-129 -141q86 -104 86 -256q-1 -242 -175 -420t-401 -178
q-137 0 -238 59l-133 -141l-94 86l129 139q-86 104 -86 258z" />
    <glyph glyph-name="ugrave" unicode="&#xf9;" horiz-adv-x="1314" 
d="M477 1402q0 60 36 99q37 39 101 39t94 -52t54 -165l51 -227h-129l-109 133q-98 113 -98 173zM967 -20q-90 0 -143 49q-52 49 -52 136t47 251l-16 6q-199 -442 -445 -442q-92 0 -150 57t-58 155t74 306t75 251q0 42 -31 42q-32 0 -62 -42t-79 -157l-107 41
q131 348 361 348q94 0 147 -53q54 -52 54 -144t-66 -278t-65 -240q0 -72 57 -71q207 0 401 766h301l-168 -644q-16 -72 -16 -98q0 -49 41 -49q66 0 135 199l105 -37q-113 -352 -340 -352z" />
    <glyph glyph-name="uacute" unicode="&#xfa;" horiz-adv-x="1314" 
d="M967 -20q-90 0 -143 49q-52 49 -52 136t47 251l-16 6q-199 -442 -445 -442q-92 0 -150 57t-58 155t74 306t75 251q0 42 -31 42q-32 0 -62 -42t-79 -157l-107 41q131 348 361 348q94 0 147 -53q54 -52 54 -144t-66 -278t-65 -240q0 -72 57 -71q207 0 401 766h301
l-168 -644q-16 -72 -16 -98q0 -49 41 -49q66 0 135 199l105 -37q-113 -352 -340 -352zM989 1538q55 0 92 -37t37 -81q0 -75 -68 -128q-24 -18 -85 -61l-191 -135h-143l170 274q53 86 93 127t95 41z" />
    <glyph glyph-name="ucircumflex" unicode="&#xfb;" horiz-adv-x="1314" 
d="M967 -20q-90 0 -143 49q-52 49 -52 136t47 251l-16 6q-199 -442 -445 -442q-92 0 -150 57t-58 155t74 306t75 251q0 42 -31 42q-32 0 -62 -42t-79 -157l-107 41q131 348 361 348q94 0 147 -53q54 -52 54 -144t-66 -278t-65 -240q0 -72 57 -71q207 0 401 766h301
l-168 -644q-16 -72 -16 -98q0 -49 41 -49q66 0 135 199l105 -37q-113 -352 -340 -352zM399 1096l353 403h166l151 -403h-166l-110 176l-209 -176h-185z" />
    <glyph glyph-name="udieresis" unicode="&#xfc;" horiz-adv-x="1314" 
d="M967 -20q-90 0 -143 49q-52 49 -52 136t47 251l-16 6q-199 -442 -445 -442q-92 0 -150 57t-58 155t74 306t75 251q0 42 -31 42q-32 0 -62 -42t-79 -157l-107 41q131 348 361 348q94 0 147 -53q54 -52 54 -144t-66 -278t-65 -240q0 -72 57 -71q207 0 401 766h301
l-168 -644q-16 -72 -16 -98q0 -49 41 -49q66 0 135 199l105 -37q-113 -352 -340 -352zM1147 1276q0 -64 -48 -119q-47 -55 -115 -55t-106 38t-38 102t48 120q48 55 116 55t105 -38q38 -39 38 -103zM602 1417q68 0 105 -38q38 -39 38 -103t-48 -119q-47 -55 -115 -55t-106 38
t-38 102t48 120q48 55 116 55z" />
    <glyph glyph-name="yacute" unicode="&#xfd;" horiz-adv-x="1183" 
d="M977 1538q55 0 92 -37t37 -81q0 -74 -69 -128q-24 -18 -85 -61l-190 -135h-144l170 274q54 86 94 127t95 41zM387 979q88 0 138 -51t50 -139q0 -89 -58 -257t-58 -210q0 -66 63 -66q39 0 75 24q153 102 304 681h279l-201 -844q-113 -473 -567 -473q-111 0 -223 35
q-60 19 -98 65t-38 106q0 62 43 110t112 48q70 0 108 -40t37 -97t-50 -102q41 -12 86 -13q119 0 191 84t118 271l58 217l-13 6q-156 -283 -362 -283q-103 -1 -159 59t-56 148t67 265q68 177 68 221t-29 44q-59 0 -153 -196l-107 41q156 346 375 346z" />
    <glyph glyph-name="thorn" unicode="&#xfe;" horiz-adv-x="1126" 
d="M793 981q139 0 213 -93t74 -247t-60 -299q-59 -146 -172 -244t-246 -98q-178 0 -248 152l-80 -312h177l-45 -170h-607l45 170h133l355 1399h-152l45 174h449l-195 -639l17 -6q55 98 133 156t164 57zM666 788q-104 0 -184 -163q-79 -164 -79 -323t113 -159q72 0 133 90
t91 200t30 198q0 157 -104 157z" />
    <glyph glyph-name="ydieresis" unicode="&#xff;" horiz-adv-x="1183" 
d="M827 1242q1 64 49 120q48 55 115 55t105 -38q38 -39 39 -103q-1 -64 -49 -119t-115 -55t-106 38q-38 38 -38 102zM733 1276q0 -64 -48 -119q-47 -55 -115 -55t-106 38t-38 102t48 120q48 55 116 55t105 -38q38 -39 38 -103zM387 979q88 0 138 -51t50 -139q0 -89 -58 -257
t-58 -210q0 -66 63 -66q39 0 75 24q153 102 304 681h279l-201 -844q-113 -473 -567 -473q-111 0 -223 35q-60 19 -98 65t-38 106q0 62 43 110t112 48q70 0 108 -40t37 -97t-50 -102q41 -12 86 -13q119 0 191 84t118 271l58 217l-13 6q-156 -283 -362 -283q-103 -1 -159 59
t-56 148t67 265q68 177 68 221t-29 44q-59 0 -153 -196l-107 41q156 346 375 346z" />
    <glyph glyph-name="Amacron" unicode="&#x100;" horiz-adv-x="1427" 
d="M643 1503l51 201h611l-50 -201h-612zM512 592h332l-35 510h-8zM705 178h167l-18 252h-432l-143 -252h174l-45 -178h-519l43 178h136l694 1178h313l119 -1178h168l-43 -178h-660z" />
    <glyph glyph-name="amacron" unicode="&#x101;" 
d="M414 1106l51 201h610l-49 -201h-612zM461 168q73 0 137 91t98 206q35 115 35 203q0 154 -102 153q-105 0 -187 -176q-82 -177 -82 -327t101 -150zM930 219q0 -49 41 -49q66 0 135 199l104 -37q-113 -352 -342 -352q-88 0 -140 49t-52 141q0 14 4 51l-16 6
q-119 -248 -322 -247q-141 0 -217 96t-76 244t59 290q58 143 144 232q143 139 301 139q88 0 145 -54t76 -134l47 168h295l-170 -644q-16 -72 -16 -98z" />
    <glyph glyph-name="Abreve" unicode="&#x102;" horiz-adv-x="1427" 
d="M950 1489q-147 0 -218 96t-32 281h140q-14 -174 143 -174q147 0 211 174h145q-37 -186 -139 -282q-103 -95 -250 -95zM512 592h332l-35 510h-8zM705 178h167l-18 252h-432l-143 -252h174l-45 -178h-519l43 178h136l694 1178h313l119 -1178h168l-43 -178h-660z" />
    <glyph glyph-name="abreve" unicode="&#x103;" 
d="M719 1092q-147 0 -218 96t-32 280h139q-14 -174 144 -174q147 0 211 174h145q-38 -186 -140 -281t-249 -95zM461 168q73 0 137 91t98 206q35 115 35 203q0 154 -102 153q-105 0 -187 -176q-82 -177 -82 -327t101 -150zM930 219q0 -49 41 -49q66 0 135 199l104 -37
q-113 -352 -342 -352q-88 0 -140 49t-52 141q0 14 4 51l-16 6q-119 -248 -322 -247q-141 0 -217 96t-76 244t59 290q58 143 144 232q143 139 301 139q88 0 145 -54t76 -134l47 168h295l-170 -644q-16 -72 -16 -98z" />
    <glyph glyph-name="Aogonek" unicode="&#x104;" horiz-adv-x="1427" 
d="M512 592h332l-35 510h-8zM945 -512q-119 0 -191 50t-72 142t70 166q70 72 215 154h-308l46 178h167l-18 252h-432l-143 -252h174l-45 -178h-519l43 178h136l694 1178h313l119 -1178h168l-43 -178h-164l-25 -18q-125 -92 -171 -148t-46 -100q0 -45 26 -72t80 -27t122 37
l41 -106q-117 -78 -237 -78z" />
    <glyph glyph-name="aogonek" unicode="&#x105;" 
d="M461 168q73 0 137 91t98 206q35 115 35 203q0 154 -102 153q-105 0 -187 -176q-82 -177 -82 -327t101 -150zM930 219q0 -49 41 -49q66 0 135 199l104 -37q-41 -121 -89 -198q-49 -78 -159 -158t-157 -138t-47 -104q0 -45 26 -72t79 -27q54 0 120 37l41 -106
q-113 -78 -234 -78q-120 0 -192 50t-72 142t65 160q65 70 204 150q-119 35 -119 180q0 14 4 51l-16 6q-119 -248 -322 -247q-141 0 -217 96t-76 244t59 290q58 143 144 232q143 139 301 139q87 0 145 -54t76 -134l47 168h295l-170 -644q-16 -72 -16 -98z" />
    <glyph glyph-name="Cacute" unicode="&#x106;" horiz-adv-x="1396" 
d="M702 -33q-272 0 -428 156t-155 420q0 141 50 287q114 332 378 473q145 78 317 77q258 0 373 -172l92 168h187l-134 -536h-194q-12 196 -92 284t-190 88t-187 -54q-78 -54 -126 -136q-97 -165 -127 -363q-13 -84 -13 -149q0 -186 85 -268q86 -82 218 -82t228 94
q95 94 173 281l168 -54q-179 -514 -623 -514zM1161 1935q55 0 92 -37t37 -81q0 -74 -68 -127q-24 -19 -85 -62l-191 -135h-143l170 274q53 86 93 127t95 41z" />
    <glyph glyph-name="cacute" unicode="&#x107;" horiz-adv-x="1005" 
d="M643 981q137 0 231 -72t95 -198q0 -81 -49 -141q-48 -60 -116 -60t-106 36q-37 36 -36 91q0 98 102 145q-25 61 -109 62q-127 0 -213 -148t-86 -294t54 -198t129 -52q143 0 266 174l94 -76q-184 -270 -446 -270q-184 0 -294 104t-110 281q0 250 179 433t415 183z
M891 1538q55 0 92 -37t37 -81q0 -74 -69 -128q-24 -18 -85 -61l-190 -135h-144l170 274q54 86 94 127t95 41z" />
    <glyph glyph-name="Cdotaccent" unicode="&#x10a;" horiz-adv-x="1396" 
d="M1133 1669q1 -70 -51 -127t-126 -57t-117 40q-42 41 -42 109t52 125t127 57t116 -38q41 -39 41 -109zM702 -33q-272 0 -428 156t-155 420q0 141 50 287q114 332 378 473q145 78 317 77q258 0 373 -172l92 168h187l-134 -536h-194q-12 196 -92 284t-190 88t-187 -54
q-78 -54 -126 -136q-97 -165 -127 -363q-13 -84 -13 -149q0 -186 85 -268q86 -82 218 -82t228 94q95 94 173 281l168 -54q-179 -514 -623 -514z" />
    <glyph glyph-name="cdotaccent" unicode="&#x10b;" horiz-adv-x="1005" 
d="M528 1236q0 69 52 126t128 57q76 -1 116 -39t40 -108t-51 -127t-125 -57t-118 39q-42 40 -42 109zM643 981q137 0 231 -72t95 -198q0 -81 -49 -141q-48 -60 -116 -60t-106 36q-37 36 -36 91q0 98 102 145q-25 61 -109 62q-127 0 -213 -148t-86 -294t54 -198t129 -52
q143 0 266 174l94 -76q-184 -270 -446 -270q-184 0 -294 104t-110 281q0 250 179 433t415 183z" />
    <glyph glyph-name="Ccaron" unicode="&#x10c;" horiz-adv-x="1396" 
d="M702 -33q-272 0 -428 156t-155 420q0 141 50 287q114 332 378 473q145 78 317 77q258 0 373 -172l92 168h187l-134 -536h-194q-12 196 -92 284t-190 88t-187 -54q-78 -54 -126 -136q-97 -165 -127 -363q-13 -84 -13 -149q0 -186 85 -268q86 -82 218 -82t228 94
q95 94 173 281l168 -54q-179 -514 -623 -514zM1333 1903l-350 -404h-166l-151 404h163l111 -177l211 177h182z" />
    <glyph glyph-name="ccaron" unicode="&#x10d;" horiz-adv-x="1005" 
d="M643 981q137 0 231 -72t95 -198q0 -81 -49 -141q-48 -60 -116 -60t-106 36q-37 36 -36 91q0 98 102 145q-25 61 -109 62q-127 0 -213 -148t-86 -294t54 -198t129 -52q143 0 266 174l94 -76q-184 -270 -446 -270q-184 0 -294 104t-110 281q0 250 179 433t415 183z
M1063 1505l-350 -403h-166l-152 403h164l111 -176l211 176h182z" />
    <glyph glyph-name="Dcaron" unicode="&#x10e;" horiz-adv-x="1486" 
d="M586 174q125 0 210 31q86 31 164 109t135 241q56 161 56 315t-82 229t-254 75h-90l-250 -1000h111zM807 1348q332 0 508 -148t176 -391q0 -156 -58 -304t-171 -263q-246 -242 -705 -242h-627l45 178h181l247 991h-182l43 179h543zM1382 1903l-350 -404h-166l-151 404h164
l110 -177l211 177h182z" />
    <glyph glyph-name="dcaron" unicode="&#x10f;" 
d="M868 -20q-88 0 -140 49t-52 143q0 16 4 49l-16 6q-119 -248 -322 -247q-141 0 -217 96t-76 244t59 290q58 143 144 232q143 139 301 139q86 0 143 -49t84 -123l115 430h-152l45 174h447l-289 -1096q-16 -72 -16 -98q0 -49 41 -49q65 0 135 199l104 -37
q-113 -352 -342 -352zM463 168q102 0 186 180t84 326t-100 147q-78 0 -144 -91q-65 -91 -97 -205t-32 -206q1 -151 103 -151zM1516 1630q56 0 94 -35q37 -35 37 -73q1 -38 -5 -52t-8 -22t-12 -27t-22 -37q-13 -18 -18 -26q-4 -8 -20 -29t-22 -31l-127 -190h-110l63 332
q38 190 150 190z" />
    <glyph glyph-name="Dcroat" unicode="&#x110;" horiz-adv-x="1495" 
d="M594 174q125 0 210 31t164 109t135 241q56 161 56 315t-82 229t-254 75h-90l-96 -383h235l-45 -177h-235l-109 -440h111zM815 1348q332 0 508 -148t176 -391q0 -156 -58 -304t-171 -263q-246 -242 -705 -242h-626l45 178h180l108 436h-180l43 177h180l97 378h-183l43 179
h543z" />
    <glyph glyph-name="dcroat" unicode="&#x111;" 
d="M463 168q102 0 185 177t83 319t-100 143q-78 0 -143 -90q-64 -90 -96 -200t-32 -198q1 -151 103 -151zM930 219q0 -49 41 -49q66 0 135 199l104 -37q-113 -352 -342 -352q-88 0 -140 49t-52 143q0 16 4 49l-16 6q-119 -248 -322 -247q-141 0 -217 96t-76 244t56 283
q56 136 145 224q139 139 299 140q88 0 145 -49t84 -123l62 235h-240l33 133h241l25 94h-151l40 156h447l-68 -250h140l-33 -133h-141l-187 -713q-16 -72 -16 -98z" />
    <glyph glyph-name="Emacron" unicode="&#x112;" horiz-adv-x="1398" 
d="M662 1503l51 201h610l-49 -201h-612zM702 766q86 0 119 32t86 156h160l-135 -546h-156q14 124 -4 158t-100 34h-82l-107 -426h291q147 0 208 65q60 65 159 293h180l-133 -532h-1249l45 178h180l248 991h-183l43 179h1231l-121 -480h-161q4 195 -29 250t-162 56h-297
l-102 -408h71z" />
    <glyph glyph-name="emacron" unicode="&#x113;" horiz-adv-x="1007" 
d="M711 752q0 100 -87 100t-159 -108t-100 -246q184 12 265 83t81 171zM362 1106l52 201h610l-49 -201h-613zM981 743q0 -151 -158 -247t-473 -107v-16q0 -125 56 -179t143 -55q141 0 274 164l90 -74q-195 -250 -464 -249q-182 0 -292 103t-110 279q0 244 180 432t439 187
q150 0 232 -66t83 -172z" />
    <glyph glyph-name="Ebreve" unicode="&#x114;" horiz-adv-x="1398" 
d="M969 1489q-147 0 -218 96t-32 281h139q-14 -174 143 -174q147 0 211 174h146q-37 -186 -139 -282q-103 -95 -250 -95zM702 766q86 0 119 32t86 156h160l-135 -546h-156q14 124 -4 158t-100 34h-82l-107 -426h291q147 0 208 65q60 65 159 293h180l-133 -532h-1249l45 178
h180l248 991h-183l43 179h1231l-121 -480h-161q4 195 -29 250t-162 56h-297l-102 -408h71z" />
    <glyph glyph-name="ebreve" unicode="&#x115;" horiz-adv-x="1007" 
d="M711 752q0 100 -87 100t-159 -108t-100 -246q184 12 265 83t81 171zM670 1092q-147 0 -218 96t-32 280h139q-14 -174 143 -174q147 0 211 174h146q-37 -186 -139 -281t-250 -95zM981 743q0 -151 -158 -247t-473 -107v-16q0 -125 56 -179t143 -55q141 0 274 164l90 -74
q-195 -250 -464 -249q-182 0 -292 103t-110 279q0 244 180 432t439 187q150 0 232 -66t83 -172z" />
    <glyph glyph-name="Edotaccent" unicode="&#x116;" horiz-adv-x="1398" 
d="M1174 1669q0 -70 -52 -127t-126 -57t-116 40q-42 41 -42 109t52 125t127 57t116 -38q41 -39 41 -109zM702 766q86 0 119 32t86 156h160l-135 -546h-156q14 124 -4 158t-100 34h-82l-107 -426h291q147 0 208 65q60 65 159 293h180l-133 -532h-1249l45 178h180l248 991
h-183l43 179h1231l-121 -480h-161q4 195 -29 250t-162 56h-297l-102 -408h71z" />
    <glyph glyph-name="edotaccent" unicode="&#x117;" horiz-adv-x="1007" 
d="M711 752q0 100 -87 100t-159 -108t-100 -246q184 12 265 83t81 171zM718 1419q76 -1 116 -39t40 -108t-51 -127t-125 -57t-117 39q-42 40 -42 109t52 126t127 57zM981 743q0 -151 -158 -247t-473 -107v-16q0 -125 56 -179t143 -55q141 0 274 164l90 -74
q-195 -250 -464 -249q-182 0 -292 103t-110 279q0 244 180 432t439 187q150 0 232 -66t83 -172z" />
    <glyph glyph-name="Eogonek" unicode="&#x118;" horiz-adv-x="1398" 
d="M702 766q86 0 119 32t86 156h160l-135 -546h-156q14 124 -4 158t-100 34h-82l-107 -426h291q147 0 208 65q60 65 159 293h180l-133 -532h-109l-24 -18q-125 -92 -171 -148t-46 -100q0 -45 26 -72t79 -27q54 0 122 37l41 -106q-117 -78 -237 -78q-119 0 -191 50t-72 142
t70 166q70 72 215 154h-952l45 178h180l248 991h-183l43 179h1231l-121 -480h-161q4 195 -29 250t-162 56h-297l-102 -408h71z" />
    <glyph glyph-name="eogonek" unicode="&#x119;" horiz-adv-x="1007" 
d="M711 752q0 100 -87 100t-159 -108t-100 -246q184 12 265 83t81 171zM410 -265q0 -100 107 -100q56 0 120 37l41 -106q-117 -78 -236 -78q-120 0 -192 50t-72 138t60 156t200 148q-178 4 -284 106t-107 276q0 244 180 432t439 187q150 0 232 -66t83 -172q0 -151 -158 -247
t-473 -107v-16q0 -125 56 -179t143 -55q141 0 274 164l90 -74q-86 -106 -184 -176l-92 -65q-127 -90 -177 -148t-50 -105z" />
    <glyph glyph-name="Ecaron" unicode="&#x11a;" horiz-adv-x="1398" 
d="M702 766q86 0 119 32t86 156h160l-135 -546h-156q14 124 -4 158t-100 34h-82l-107 -426h291q147 0 208 65q60 65 159 293h180l-133 -532h-1249l45 178h180l248 991h-183l43 179h1231l-121 -480h-161q4 195 -29 250t-162 56h-297l-102 -408h71zM1372 1903l-350 -404h-166
l-151 404h163l111 -177l211 177h182z" />
    <glyph glyph-name="ecaron" unicode="&#x11b;" horiz-adv-x="1007" 
d="M711 752q0 100 -87 100t-159 -108t-100 -246q184 12 265 83t81 171zM1073 1505l-350 -403h-166l-151 403h163l111 -176l211 176h182zM981 743q0 -151 -158 -247t-473 -107v-16q0 -125 56 -179t143 -55q141 0 274 164l90 -74q-195 -250 -464 -249q-182 0 -292 103
t-110 279q0 244 180 432t439 187q150 0 232 -66t83 -172z" />
    <glyph glyph-name="Gbreve" unicode="&#x11e;" horiz-adv-x="1490" 
d="M950 1489q-147 0 -218 96t-32 281h140q-14 -174 143 -174q147 0 211 174h145q-37 -186 -139 -282q-103 -95 -250 -95zM692 152q223 0 312 329l10 39h-228l43 178h697l-45 -178h-152l-141 -536h-174l-23 182q-137 -199 -371 -199t-367 157q-134 157 -134 404q0 148 50 296
q113 335 378 478q145 79 317 78q258 0 373 -172l92 168h187l-132 -524h-221q-10 192 -85 276t-178 84t-181 -56t-126 -139q-96 -167 -127 -372q-13 -86 -13 -153q0 -182 69 -262q70 -78 170 -78z" />
    <glyph glyph-name="gbreve" unicode="&#x11f;" horiz-adv-x="1126" 
d="M741 1092q-147 0 -218 96t-31 280h139q-14 -174 143 -174q147 0 211 174h145q-38 -186 -140 -281t-249 -95zM487 221q100 0 173 140t73 296q0 76 -32 120q-33 44 -95 44t-120 -76t-86 -173t-27 -187q-1 -164 114 -164zM63 387q0 279 183 461q133 133 291 133
q93 0 159 -54t86 -134l45 168h295l-198 -846q-109 -471 -576 -471q-124 0 -210 30t-126 75q-39 47 -39 111t42 112t112 48q69 0 107 -40t38 -100t-47 -107q49 -16 105 -17q106 0 176 70q88 90 153 362l-20 9q-99 -147 -259 -147t-239 94q-78 95 -78 243z" />
    <glyph glyph-name="Gdotaccent" unicode="&#x120;" horiz-adv-x="1490" 
d="M1155 1669q0 -70 -51 -127q-52 -57 -126 -57t-117 40q-42 41 -42 109t52 125q51 57 127 57t116 -38q40 -39 41 -109zM692 152q223 0 312 329l10 39h-228l43 178h697l-45 -178h-152l-141 -536h-174l-23 182q-137 -199 -371 -199t-367 157q-134 157 -134 404q0 148 50 296
q113 335 378 478q145 79 317 78q258 0 373 -172l92 168h187l-132 -524h-221q-10 192 -85 276t-178 84t-181 -56t-126 -139q-96 -167 -127 -372q-13 -86 -13 -153q0 -182 69 -262q70 -78 170 -78z" />
    <glyph glyph-name="gdotaccent" unicode="&#x121;" horiz-adv-x="1126" 
d="M788 1419q76 -1 116 -39t40 -108t-51 -127t-125 -57t-118 39q-42 40 -42 109t52 126t128 57zM487 221q100 0 173 140t73 296q0 76 -32 120q-33 44 -95 44t-120 -76t-86 -173t-27 -187q-1 -164 114 -164zM63 387q0 279 183 461q133 133 291 133q93 0 159 -54t86 -134
l45 168h295l-198 -846q-109 -471 -576 -471q-124 0 -210 30t-126 75q-39 47 -39 111t42 112t112 48q69 0 107 -40t38 -100t-47 -107q49 -16 105 -17q106 0 176 70q88 90 153 362l-20 9q-99 -147 -259 -147t-239 94q-78 95 -78 243z" />
    <glyph glyph-name="Gcommaaccent" unicode="&#x122;" horiz-adv-x="1490" 
d="M692 152q223 0 312 329l10 39h-228l43 178h697l-45 -178h-152l-141 -536h-174l-23 182q-137 -199 -371 -199t-367 157q-134 157 -134 404q0 148 50 296q113 335 378 478q145 79 317 78q258 0 373 -172l92 168h187l-132 -524h-221q-10 192 -85 276t-178 84t-181 -56
t-126 -139q-96 -167 -127 -372q-13 -86 -13 -153q0 -182 69 -262q70 -78 170 -78zM375 -308q0 67 49 123t130 56t132 -57t51 -150q0 -142 -111 -252t-304 -157l-31 104q221 68 278 195l-14 10q-20 -12 -64 -12t-80 36q-36 37 -36 104z" />
    <glyph glyph-name="gcommaaccent" unicode="&#x123;" horiz-adv-x="1126" 
d="M487 221q100 0 173 140t73 296q0 76 -32 120q-33 44 -95 44t-120 -76t-86 -173t-27 -187q-1 -164 114 -164zM63 387q0 279 183 461q133 133 291 133q93 0 159 -54t86 -134l45 168h295l-198 -846q-109 -471 -576 -471q-124 0 -210 30t-126 75q-39 47 -39 111t42 112
t112 48q69 0 107 -40t38 -100t-47 -107q49 -16 105 -17q106 0 176 70q88 90 153 362l-20 9q-99 -147 -259 -147t-239 94q-78 95 -78 243zM781 1407q44 0 80 -37q36 -38 36 -104t-49 -122t-130 -56t-132 56q-51 58 -51 150q0 143 111 253t304 157l31 -105q-221 -68 -279 -194
l15 -10q20 12 64 12z" />
    <glyph glyph-name="Hbar" unicode="&#x126;" horiz-adv-x="1619" 
d="M629 752h499l35 143h-499zM156 881l41 159h182l33 129h-183l43 179h678l-45 -179h-174l-35 -141h500l37 141h-176l45 179h676l-45 -179h-181l-32 -129h182l-39 -159h-184l-174 -703h182l-43 -178h-676l43 178h174l100 400h-499l-101 -400h174l-43 -178h-677l45 178h180
l174 703h-182z" />
    <glyph glyph-name="hbar" unicode="&#x127;" horiz-adv-x="1230" 
d="M856 -20q-94 0 -148 53t-54 145t66 276q67 184 66 236q0 59 -59 60q-59 0 -115 -60q-57 -60 -101 -138q-101 -176 -204 -552h-301l273 1030h-138l35 133h139l25 94h-152l41 156h449l-78 -250h240l-35 -133h-246l-145 -475l14 -6q193 418 457 418q90 -1 146 -59t56 -155
q1 -97 -77 -300t-78 -243t35 -40q61 0 139 199l106 -37q-123 -352 -356 -352z" />
    <glyph glyph-name="Imacron" unicode="&#x12a;" horiz-adv-x="813" 
d="M354 1503l52 201h610l-49 -201h-613zM-55 0l45 178h180l248 991h-182l43 179h684l-43 -179h-183l-245 -991h182l-43 -178h-686z" />
    <glyph glyph-name="imacron" unicode="&#x12b;" horiz-adv-x="741" 
d="M129 1106l51 201h611l-50 -201h-612zM598 785q0 -89 -84 -309t-84 -263t37 -43q63 0 143 199l107 -37q-123 -352 -361 -352q-92 0 -150 54t-58 147t84 311q85 218 85 261q0 42 -30 42q-53 0 -148 -203l-104 41q147 348 368 348q86 0 141 -53q54 -54 54 -143z" />
    <glyph glyph-name="Ibreve" unicode="&#x12c;" horiz-adv-x="813" 
d="M662 1489q-147 0 -219 96q-71 96 -31 281h139q-14 -174 143 -174q147 0 211 174h146q-37 -186 -139 -282t-250 -95zM-55 0l45 178h180l248 991h-182l43 179h684l-43 -179h-183l-245 -991h182l-43 -178h-686z" />
    <glyph glyph-name="ibreve" unicode="&#x12d;" horiz-adv-x="741" 
d="M436 1092q-147 0 -218 96t-32 280h140q-14 -174 143 -174q147 0 211 174h145q-37 -186 -139 -281t-250 -95zM598 785q0 -89 -84 -309t-84 -263t37 -43q63 0 143 199l107 -37q-123 -352 -361 -352q-92 0 -150 54t-58 147t84 311q85 218 85 261q0 42 -30 42
q-53 0 -148 -203l-104 41q147 348 368 348q86 0 141 -53q54 -54 54 -143z" />
    <glyph glyph-name="Iogonek" unicode="&#x12e;" horiz-adv-x="813" 
d="M184 -266q0 -45 26 -72t80 -27t122 37l41 -106q-117 -78 -237 -78t-192 50t-71 142q0 92 70 166q70 72 215 154h-293l45 178h180l248 991h-182l43 179h684l-43 -179h-183l-245 -991h182l-43 -178h-205l-25 -18q-125 -92 -171 -148t-46 -100z" />
    <glyph glyph-name="iogonek" unicode="&#x12f;" horiz-adv-x="741" 
d="M352 1262q0 72 54 133t132 61q79 0 123 -42t44 -113q-1 -73 -55 -133t-133 -60t-122 41t-43 113zM258 -265q0 -100 108 -100q56 0 119 37l41 -106q-118 -78 -236 -78t-191 50t-73 140t64 162q63 70 199 148q-141 39 -142 194q0 92 85 310t85 261q0 42 -30 42
q-55 0 -148 -203l-104 41q145 348 366 348q85 0 141 -54q56 -55 56 -143t-84 -308t-84 -263t37 -43q59 0 143 199l105 -37q-75 -216 -221 -326t-191 -168t-45 -103z" />
    <glyph glyph-name="Idotaccent" unicode="&#x130;" horiz-adv-x="813" 
d="M528 1634q0 68 52 125t128 57t116 -38q40 -39 40 -109t-51 -127t-125 -57t-118 40q-42 41 -42 109zM-55 0l45 178h180l248 991h-182l43 179h684l-43 -179h-183l-245 -991h182l-43 -178h-686z" />
    <glyph glyph-name="dotlessi" unicode="&#x131;" horiz-adv-x="741" 
d="M598 785q0 -89 -84 -309t-84 -263t37 -43q63 0 143 199l107 -37q-123 -352 -361 -352q-92 0 -150 54t-58 147t84 311q85 218 85 261q0 42 -30 42q-53 0 -148 -203l-104 41q147 348 368 348q86 0 141 -53q54 -54 54 -143z" />
    <glyph glyph-name="Kcommaaccent" unicode="&#x136;" horiz-adv-x="1486" 
d="M1454 1169l-463 -368l289 -623h160l-45 -178h-656l45 176h142l-185 424l-190 -151l-66 -273h158l-43 -176h-661l45 178h180l248 991h-183l43 179h668l-43 -177h-166l-121 -489l584 489h-154l43 177h568l-45 -179h-152zM426 -308q0 67 49 123t130 56t132 -57t51 -150
q0 -142 -111 -252t-304 -157l-31 104q221 68 279 195l-15 10q-24 -12 -66 -12t-78 36q-36 37 -36 104z" />
    <glyph glyph-name="kcommaaccent" unicode="&#x137;" horiz-adv-x="1153" 
d="M329 -442q-44 0 -80 36t-36 104q0 67 49 123t130 56t132 -57t51 -150q0 -142 -111 -252t-304 -157l-31 104q221 68 279 195l-15 10q-20 -12 -64 -12zM838 215q0 -45 36 -45q59 0 138 199l106 -37q-119 -352 -340 -352q-104 0 -161 59q-56 59 -56 151q0 33 11 100
q12 66 12 102t-30 55t-126 22l-125 -469h-297l330 1239h-152l45 174h449l-223 -840h4q78 0 126 45t128 179q111 184 254 184q80 0 124 -47t44 -120t-42 -129t-109 -56q-66 0 -98 47t-16 115q-41 -20 -90 -109q-66 -102 -131 -145q113 -9 160 -55t47 -124q0 -33 -9 -80
t-9 -63z" />
    <glyph glyph-name="Lacute" unicode="&#x139;" horiz-adv-x="1255" 
d="M686 174q80 0 126 13t89 65t71 107q28 56 83 190h164l-138 -549h-1142l45 178h180l248 991h-183l43 179h707l-45 -174h-203l-248 -1000h203zM889 1935q55 0 92 -37t37 -81q0 -73 -69 -127q-24 -19 -85 -62l-190 -135h-144l170 274q54 86 94 127t95 41z" />
    <glyph glyph-name="lacute" unicode="&#x13a;" horiz-adv-x="659" 
d="M72 165q0 81 37 222l227 852h-150l45 174h449l-285 -1028q-43 -150 -43 -174q0 -41 35 -41t68 43t77 156l107 -37q-123 -352 -356 -352q-98 0 -155 52q-56 52 -56 133zM756 1985q56 0 92 -37q37 -37 37 -81q0 -74 -69 -128q-24 -19 -85 -62l-190 -135h-144l170 275
q53 86 93 127t96 41z" />
    <glyph glyph-name="Lcommaaccent" unicode="&#x13b;" horiz-adv-x="1255" 
d="M686 174q80 0 126 13t89 65t71 107q28 56 83 190h164l-138 -549h-1142l45 178h180l248 991h-183l43 179h707l-45 -174h-203l-248 -1000h203zM315 -308q-1 67 49 123t131 56t132 -57t51 -150q0 -142 -112 -252t-304 -157l-31 104q221 68 279 195l-14 10q-20 -12 -64 -12
t-81 36q-36 37 -36 104z" />
    <glyph glyph-name="lcommaaccent" unicode="&#x13c;" horiz-adv-x="659" 
d="M72 165q0 81 37 222l227 852h-150l45 174h449l-285 -1028q-43 -150 -43 -174q0 -41 35 -41t68 43t77 156l107 -37q-123 -352 -356 -352q-98 0 -155 52q-56 52 -56 133zM14 -308q0 67 49 123t130 56t133 -57t51 -150q1 -142 -111 -252t-305 -157l-31 104q221 68 279 195
l-14 10q-23 -12 -66 -12t-79 36q-36 37 -36 104z" />
    <glyph glyph-name="Lcaron" unicode="&#x13d;" horiz-adv-x="1255" 
d="M686 174q80 0 126 13t89 65t71 107q28 56 83 190h164l-138 -549h-1142l45 178h180l248 991h-183l43 179h707l-45 -174h-203l-248 -1000h203zM1246 1536q56 0 93 -35t37 -73t-5 -52t-8 -28t-14 -28q-10 -16 -21 -32t-16 -24q-4 -8 -20 -29t-22 -31l-127 -190h-111l64 332
q38 190 150 190z" />
    <glyph glyph-name="lcaron" unicode="&#x13e;" horiz-adv-x="659" 
d="M72 165q0 81 37 222l227 852h-150l45 174h449l-285 -1028q-43 -150 -43 -174q0 -41 35 -41t68 43t77 156l107 -37q-123 -352 -356 -352q-98 0 -155 52q-56 52 -56 133zM962 1630q56 0 93 -35t37 -73t-6 -52t-7 -22q-2 -8 -12 -27t-22 -37q-13 -18 -18 -26t-21 -29
t-21 -31l-127 -190h-110l63 332q39 190 151 190z" />
    <glyph glyph-name="Ldot" unicode="&#x13f;" horiz-adv-x="1255" 
d="M1038 631q-74 0 -114 39q-40 38 -39 104q0 66 49 121t124 55t116 -39q40 -39 40 -105t-51 -120q-51 -55 -125 -55zM686 174q78 0 126 13t89 59t67 95q26 50 74 163h164l-125 -504h-1142l45 178h180l248 991h-183l43 179h707l-45 -174h-203l-248 -1000h203z" />
    <glyph glyph-name="ldot" unicode="&#x140;" horiz-adv-x="841" 
d="M72 165q0 81 37 222l227 852h-150l45 174h449l-285 -1028q-43 -150 -43 -174q0 -41 35 -41t68 43t77 156l107 -37q-123 -352 -356 -352q-98 0 -155 52q-56 52 -56 133zM770 866q72 0 110 -38q40 -38 40 -102t-50 -121q-50 -56 -120 -56t-109 38q-39 37 -39 103t48 121
t120 55z" />
    <glyph glyph-name="Lslash" unicode="&#x141;" horiz-adv-x="1261" 
d="M692 174q80 0 126 13t89 65t71 107q28 56 83 190h164l-138 -549h-1142l45 178h180l82 330l-180 -57l43 176l182 57l121 485h-182l43 179h706l-45 -174h-203l-94 -381l377 118l-43 -172l-377 -121l-111 -444h203z" />
    <glyph glyph-name="lslash" unicode="&#x142;" horiz-adv-x="708" 
d="M305 -20q-99 0 -155 52t-56 133t37 222l55 211l-194 -57l35 149l200 60l131 489h-149l45 174h448l-157 -569l215 63l-35 -149l-223 -66l-84 -307q-43 -150 -43 -174q0 -41 35 -41q36 0 68 43t77 156l107 -37q-123 -352 -357 -352z" />
    <glyph glyph-name="Nacute" unicode="&#x143;" horiz-adv-x="1589" 
d="M963 -18l-377 1048h-19l-213 -852h183l-43 -178h-539l43 178h172l248 991h-176l45 179h516l342 -947h18l191 768h-185l45 179h541l-43 -179h-176l-295 -1187h-278zM1278 1935q55 0 92 -37t37 -81q0 -73 -69 -127q-24 -19 -85 -62l-190 -135h-143l170 274q53 86 93 127
t95 41z" />
    <glyph glyph-name="nacute" unicode="&#x144;" horiz-adv-x="1310" 
d="M1171 766q1 -100 -79 -306t-80 -248t35 -42q61 0 139 199l106 -37q-123 -352 -356 -352q-94 0 -149 53q-54 53 -54 147t69 282t68 243q0 59 -59 59q-208 0 -408 -764h-301l174 655q27 111 18 125t-26 15q-51 0 -143 -203l-107 41q74 172 160 259t197 87q71 0 115 -50
q88 -101 8 -372l16 -6q195 430 455 430q90 0 146 -58q56 -57 56 -157zM1024 1538q55 0 92 -37t37 -81q0 -74 -69 -128q-24 -18 -85 -61l-190 -135h-143l170 274q53 86 93 127t95 41z" />
    <glyph glyph-name="Ncommaaccent" unicode="&#x145;" horiz-adv-x="1589" 
d="M963 -18l-377 1048h-19l-213 -852h183l-43 -178h-539l43 178h172l248 991h-176l45 179h516l342 -947h18l191 768h-185l45 179h541l-43 -179h-176l-295 -1187h-278zM430 -308q0 67 49 123t130 56t132 -57t52 -150q1 -142 -111 -252t-305 -157l-31 104q221 68 279 195
l-15 10q-20 -12 -64 -12t-80 36q-36 37 -36 104z" />
    <glyph glyph-name="ncommaaccent" unicode="&#x146;" horiz-adv-x="1310" 
d="M1171 766q1 -100 -79 -306t-80 -248t35 -42q61 0 139 199l106 -37q-123 -352 -356 -352q-94 0 -149 53q-54 53 -54 147t69 282t68 243q0 59 -59 59q-208 0 -408 -764h-301l174 655q27 111 18 125t-26 15q-51 0 -143 -203l-107 41q74 172 160 259t197 87q71 0 115 -50
q88 -101 8 -372l16 -6q195 430 455 430q90 0 146 -58q56 -57 56 -157zM469 -434q-43 0 -79 37t-36 103t49 123q49 56 130 56t133 -57t51 -150q1 -142 -111 -252t-305 -157l-31 104q221 68 279 195l-14 10q-23 -12 -66 -12z" />
    <glyph glyph-name="Ncaron" unicode="&#x147;" horiz-adv-x="1589" 
d="M963 -18l-377 1048h-19l-213 -852h183l-43 -178h-539l43 178h172l248 991h-176l45 179h516l342 -947h18l191 768h-185l45 179h541l-43 -179h-176l-295 -1187h-278zM1448 1903l-350 -404h-166l-152 404h164l111 -177l211 177h182z" />
    <glyph glyph-name="ncaron" unicode="&#x148;" horiz-adv-x="1310" 
d="M1171 766q1 -100 -79 -306t-80 -248t35 -42q61 0 139 199l106 -37q-123 -352 -356 -352q-94 0 -149 53q-54 53 -54 147t69 282t68 243q0 59 -59 59q-208 0 -408 -764h-301l174 655q27 111 18 125t-26 15q-51 0 -143 -203l-107 41q74 172 160 259t197 87q71 0 115 -50
q88 -101 8 -372l16 -6q195 430 455 430q90 0 146 -58q56 -57 56 -157zM1194 1505l-350 -403h-166l-152 403h164l111 -176l211 176h182z" />
    <glyph glyph-name="Omacron" unicode="&#x14c;" horiz-adv-x="1505" 
d="M1151 897q-1 159 -71 237t-188 78t-205 -84t-136 -208q-100 -252 -98 -469q-1 -158 71 -237t189 -79t205 84q147 140 208 455q25 123 25 223zM889 1380q264 0 431 -165t167 -415t-132 -469q-132 -220 -362 -313q-129 -51 -276 -51q-264 0 -431 165t-167 416t124 457
q65 109 153 191t216 133q129 51 277 51zM690 1503l51 201h611l-49 -201h-613z" />
    <glyph glyph-name="omacron" unicode="&#x14d;" horiz-adv-x="1095" 
d="M743 688q0 162 -114 162q-63 0 -117 -66q-96 -117 -141 -350q-18 -94 -19 -164q0 -162 113 -161q85 -1 151 111t97 242q30 130 30 226zM625 981q188 0 305 -113t117 -290q-1 -242 -175 -420t-401 -178q-188 0 -305 112t-117 289q0 242 174 421q175 179 402 179zM375 1106
l51 201h610l-49 -201h-612z" />
    <glyph glyph-name="Obreve" unicode="&#x14e;" horiz-adv-x="1505" 
d="M995 1489q-147 0 -218 96t-32 281h140q-14 -174 143 -174q147 0 211 174h145q-37 -186 -139 -282q-103 -95 -250 -95zM1151 897q-1 159 -71 237t-188 78t-205 -84t-136 -208q-100 -252 -98 -469q-1 -158 71 -237t189 -79t205 84q147 140 208 455q25 123 25 223zM889 1380
q264 0 431 -165t167 -415t-132 -469q-132 -220 -362 -313q-129 -51 -276 -51q-264 0 -431 165t-167 416t124 457q65 109 153 191t216 133q129 51 277 51z" />
    <glyph glyph-name="obreve" unicode="&#x14f;" horiz-adv-x="1095" 
d="M682 1092q-147 0 -218 96t-32 280h139q-14 -174 144 -174q147 0 211 174h145q-37 -186 -139 -281t-250 -95zM743 688q0 162 -114 162q-63 0 -117 -66q-96 -117 -141 -350q-18 -94 -19 -164q0 -162 113 -161q85 -1 151 111t97 242q30 130 30 226zM625 981q188 0 305 -113
t117 -290q-1 -242 -175 -420t-401 -178q-188 0 -305 112t-117 289q0 242 174 421q175 179 402 179z" />
    <glyph glyph-name="Ohungarumlaut" unicode="&#x150;" horiz-adv-x="1505" 
d="M1151 897q-1 159 -71 237t-188 78t-205 -84t-136 -208q-100 -252 -98 -469q-1 -158 71 -237t189 -79t205 84q147 140 208 455q25 123 25 223zM889 1380q264 0 431 -165t167 -415t-132 -469q-132 -220 -362 -313q-129 -51 -276 -51q-264 0 -431 165t-167 416t124 457
q65 109 153 191t216 133q129 51 277 51zM1396 1935q54 0 90 -37q36 -38 36 -80q0 -73 -63 -127q-22 -20 -79 -63l-176 -135h-145l155 274q48 86 88 127t94 41zM1006 1935q54 0 92 -38q37 -38 37 -80q0 -72 -62 -125q-21 -19 -78 -64l-172 -135h-141l147 274q47 88 85 128
t92 40z" />
    <glyph glyph-name="ohungarumlaut" unicode="&#x151;" horiz-adv-x="1095" 
d="M743 688q0 162 -114 162q-63 0 -117 -66q-96 -117 -141 -350q-18 -94 -19 -164q0 -162 113 -161q85 -1 151 111t97 242q30 130 30 226zM625 981q188 0 305 -113t117 -290q-1 -242 -175 -420t-401 -178q-188 0 -305 112t-117 289q0 242 174 421q175 179 402 179z
M1082 1538q54 0 90 -37t36 -80q0 -72 -62 -128q-22 -19 -79 -62l-176 -135h-146l156 274q49 86 88 127t93 41zM693 1538q54 0 91 -38t37 -80q0 -71 -61 -126q-21 -18 -78 -63l-172 -135h-141l147 274q47 88 85 128t92 40z" />
    <glyph glyph-name="OE" unicode="&#x152;" horiz-adv-x="2095" 
d="M999 1174q-125 0 -209 -31q-202 -74 -300 -350q-56 -162 -56 -316q0 -155 82 -229t254 -74h90l250 1000h-111zM1026 1348h1174l-119 -480h-162q4 195 -30 250t-160 56h-297l-103 -408h72q84 0 117 31t88 157h159l-135 -546h-157q15 124 -3 158t-102 34h-80l-106 -426h291
q53 0 102 7t109 64q44 38 97 161q19 43 56 126h180l-133 -532h-1106q-332 0 -508 147t-176 392q0 156 59 304q58 148 171 263q241 242 702 242z" />
    <glyph glyph-name="oe" unicode="&#x153;" horiz-adv-x="1662" 
d="M1366 752q0 100 -87 100t-159 -106t-102 -248q184 12 266 83t82 171zM743 688q0 162 -114 162q-63 0 -117 -66q-96 -117 -141 -350q-18 -94 -19 -164q0 -162 113 -161q85 -1 151 111t97 242q30 130 30 226zM49 381q0 242 174 421q173 179 399 179t322 -172
q162 172 381 172q143 0 226 -66t83 -172q0 -151 -156 -247t-472 -107v-16q0 -125 55 -179t141 -55q140 0 277 164l88 -74q-92 -119 -200 -185t-259 -64q-213 0 -305 151q-145 -151 -333 -151t-304 112q-117 112 -117 289z" />
    <glyph glyph-name="Racute" unicode="&#x154;" horiz-adv-x="1443" 
d="M768 754q164 0 242 77q70 74 69 195q0 152 -196 152h-150l-106 -424h141zM958 1348q246 0 357 -85t110 -214q-1 -158 -123 -259t-370 -118l-4 -15q272 -41 272 -227q0 -34 -11 -104t-11 -95q0 -61 57 -61q47 0 106 96l89 -67q-62 -113 -138 -170t-190 -57t-182 54
t-68 150q0 46 20 146t21 149q0 117 -182 117h-125l-103 -410h187l-43 -178h-688l45 178h180l248 991h-183l43 179h686zM1157 1935q55 0 92 -37t37 -81q0 -74 -68 -127q-24 -19 -85 -62l-191 -135h-143l170 274q53 86 93 127t95 41z" />
    <glyph glyph-name="racute" unicode="&#x155;" horiz-adv-x="1036" 
d="M375 979q71 0 115 -50q44 -49 44 -145t-32 -209l18 -6q92 217 173 315t194 97q74 0 125 -51t51 -134q0 -82 -50 -142q-51 -60 -119 -60t-112 42q-43 42 -39 116q-113 -50 -246 -435q-48 -139 -94 -317h-301l174 655q27 111 18 125t-26 15q-51 0 -143 -203l-107 41
q74 172 160 259t197 87zM887 1538q55 0 92 -37t37 -81q0 -74 -69 -128q-24 -18 -85 -61l-190 -135h-144l170 274q54 86 94 127t95 41z" />
    <glyph glyph-name="Rcommaaccent" unicode="&#x156;" horiz-adv-x="1443" 
d="M768 754q164 0 242 77q70 74 69 195q0 152 -196 152h-150l-106 -424h141zM958 1348q246 0 357 -85t110 -214q-1 -158 -123 -259t-370 -118l-4 -15q272 -41 272 -227q0 -34 -11 -104t-11 -95q0 -61 57 -61q47 0 106 96l89 -67q-62 -113 -138 -170t-190 -57t-182 54
t-68 150q0 46 20 146t21 149q0 117 -182 117h-125l-103 -410h187l-43 -178h-688l45 178h180l248 991h-183l43 179h686zM591 -129q81 0 132 -57t51 -150q0 -143 -111 -253q-112 -109 -305 -156l-30 104q221 68 278 195l-14 10q-24 -12 -66 -12t-79 36q-35 37 -35 104t49 123
t130 56z" />
    <glyph glyph-name="rcommaaccent" unicode="&#x157;" horiz-adv-x="1036" 
d="M375 979q71 0 115 -50q44 -49 44 -145t-32 -209l18 -6q92 217 173 315t194 97q74 0 125 -51t51 -134q0 -82 -50 -142q-51 -60 -119 -60t-112 42q-43 42 -39 116q-113 -50 -246 -435q-48 -139 -94 -317h-301l174 655q27 111 18 125t-26 15q-51 0 -143 -203l-107 41
q74 172 160 259t197 87zM202 -129q81 0 132 -57t51 -150q1 -142 -111 -252t-305 -157l-30 104q221 68 278 195l-14 10q-23 -12 -65 -12t-80 36q-36 37 -36 104t50 123q49 56 130 56z" />
    <glyph glyph-name="Rcaron" unicode="&#x158;" horiz-adv-x="1443" 
d="M768 754q164 0 242 77q70 74 69 195q0 152 -196 152h-150l-106 -424h141zM958 1348q246 0 357 -85t110 -214q-1 -158 -123 -259t-370 -118l-4 -15q272 -41 272 -227q0 -34 -11 -104t-11 -95q0 -61 57 -61q47 0 106 96l89 -67q-62 -113 -138 -170t-190 -57t-182 54
t-68 150q0 46 20 146t21 149q0 117 -182 117h-125l-103 -410h187l-43 -178h-688l45 178h180l248 991h-183l43 179h686zM1327 1903l-350 -404h-166l-152 404h164l111 -177l211 177h182z" />
    <glyph glyph-name="rcaron" unicode="&#x159;" horiz-adv-x="1036" 
d="M375 979q71 0 115 -50q44 -49 44 -145t-32 -209l18 -6q92 217 173 315t194 97q74 0 125 -51t51 -134q0 -82 -50 -142q-51 -60 -119 -60t-112 42q-43 42 -39 116q-113 -50 -246 -435q-48 -139 -94 -317h-301l174 655q27 111 18 125t-26 15q-51 0 -143 -203l-107 41
q74 172 160 259t197 87zM1057 1505l-350 -403h-166l-152 403h164l111 -176l210 176h183z" />
    <glyph glyph-name="Sacute" unicode="&#x15a;" horiz-adv-x="1251" 
d="M647 137q98 0 161 49q62 50 62 112t-43 104q-80 78 -235 130q-148 64 -252 140q-125 93 -125 272q0 178 142 307t345 129q248 0 367 -159l86 155h176l-119 -497h-176q-41 332 -315 331q-91 0 -149 -48t-58 -124t75 -126q75 -49 139 -75t140 -59t189 -115
q114 -83 112 -243q0 -199 -146 -326t-357 -127q-279 0 -418 172l-94 -168h-174l122 516h174q20 -166 122 -258t249 -92zM1094 1935q56 0 92 -37q37 -37 37 -81q0 -73 -69 -127q-24 -19 -85 -62l-190 -135h-144l170 274q53 86 93 127t96 41z" />
    <glyph glyph-name="sacute" unicode="&#x15b;" horiz-adv-x="956" 
d="M860 301q0 -156 -123 -239q-123 -82 -302 -82t-300 68t-121 175q0 70 43 114t110 44t103 -39q36 -38 37 -98q0 -60 -45 -109q58 -41 146 -41t129 36t41 84t-31 80t-60 47t-105 51t-120 63q-45 27 -86 81t-41 121q0 152 127 238t296 86q170 0 276 -67t106 -164
q0 -66 -42 -108t-108 -42t-103 38q-38 38 -38 96t41 100q-35 30 -113 30q-77 0 -121 -35t-44 -96t108 -118q23 -11 34 -17t39 -19q121 -56 194 -116q73 -59 73 -162zM868 1538q54 0 92 -37t38 -81q-1 -75 -69 -128q-24 -18 -85 -61l-191 -135h-143l170 274q53 86 93 127
t95 41z" />
    <glyph glyph-name="Scedilla" unicode="&#x15e;" horiz-adv-x="1251" 
d="M442 -383q94 0 95 64q-1 37 -51 56t-136 13l-28 80l200 152q-176 33 -274 157l-94 -168h-174l122 516h174q20 -166 122 -258t249 -92q98 0 161 49q62 50 62 112t-43 104q-80 78 -235 130q-148 64 -252 140q-125 93 -125 272q0 178 142 307t345 129q248 0 367 -159l86 155
h176l-119 -497h-176q-41 332 -315 331q-91 0 -149 -48t-58 -124t75 -126q75 -49 139 -75t140 -59t189 -115q114 -83 112 -243q0 -197 -144 -323t-353 -130l-109 -88l2 -8q89 -17 139 -63t50 -109q0 -89 -78 -149t-222 -60t-264 84l70 98q88 -55 182 -55z" />
    <glyph glyph-name="scedilla" unicode="&#x15f;" horiz-adv-x="956" 
d="M264 -383q94 0 94 64q0 37 -50 56t-136 13l-29 80l207 154q-150 16 -242 81t-94 147q0 82 43 125q43 44 110 44t103 -39q36 -38 37 -98q0 -60 -45 -109q58 -41 146 -41t129 36t41 84t-31 80t-60 47t-105 51t-120 63q-45 27 -86 81t-41 121q0 152 127 238t296 86
q170 0 276 -67t106 -164q0 -66 -42 -108t-108 -42t-103 38q-38 38 -38 96t41 100q-35 30 -113 30q-77 0 -121 -35t-44 -96t108 -118q23 -11 34 -17t39 -19q121 -56 194 -116q73 -59 73 -162q0 -139 -97 -220t-249 -97l-129 -105l2 -8q188 -37 188 -185q0 -76 -77 -137
q-78 -59 -222 -59t-264 84l70 98q88 -55 182 -55z" />
    <glyph glyph-name="Scaron" unicode="&#x160;" horiz-adv-x="1251" 
d="M647 137q98 0 161 49q62 50 62 112t-43 104q-80 78 -235 130q-148 64 -252 140q-125 93 -125 272q0 178 142 307t345 129q248 0 367 -159l86 155h176l-119 -497h-176q-41 332 -315 331q-91 0 -149 -48t-58 -124t75 -126q75 -49 139 -75t140 -59t189 -115
q114 -83 112 -243q0 -199 -146 -326t-357 -127q-279 0 -418 172l-94 -168h-174l122 516h174q20 -166 122 -258t249 -92zM1266 1903l-351 -404h-165l-152 404h164l110 -177l211 177h183z" />
    <glyph glyph-name="scaron" unicode="&#x161;" horiz-adv-x="956" 
d="M860 301q0 -156 -123 -239q-123 -82 -302 -82t-300 68t-121 175q0 70 43 114t110 44t103 -39q36 -38 37 -98q0 -60 -45 -109q58 -41 146 -41t129 36t41 84t-31 80t-60 47t-105 51t-120 63q-45 27 -86 81t-41 121q0 152 127 238t296 86q170 0 276 -67t106 -164
q0 -66 -42 -108t-108 -42t-103 38q-38 38 -38 96t41 100q-35 30 -113 30q-77 0 -121 -35t-44 -96t108 -118q23 -11 34 -17t39 -19q121 -56 194 -116q73 -59 73 -162zM1040 1505l-350 -403h-166l-151 403h164l110 -176l211 176h182z" />
    <glyph glyph-name="Tcommaaccent" unicode="&#x162;" horiz-adv-x="1421" 
d="M662 1194q-116 0 -172 -64t-179 -325h-166l136 543h1278l-138 -543h-143q-2 257 -31 323t-145 66h-47l-256 -1016h215l-43 -178h-756l43 178h207l256 1016h-59zM354 -308q0 67 49 123t130 56t133 -57t51 -150q1 -142 -111 -252t-305 -157l-31 104q221 68 279 195l-14 10
q-23 -12 -66 -12t-79 36q-36 37 -36 104z" />
    <glyph glyph-name="tcommaaccent" unicode="&#x163;" horiz-adv-x="837" 
d="M416 260q0 -82 73 -82q96 0 181 213l110 -35q-123 -377 -401 -376q-117 0 -190 58t-72 175q0 72 30 186l107 389h-174l37 146h176l65 240l301 34l-73 -274h299l-39 -146h-299l-115 -426q-16 -61 -16 -102zM290 -129q81 0 132 -57t51 -150q1 -142 -111 -252t-305 -157
l-30 104q221 68 278 195l-14 10q-23 -12 -65 -12t-80 36q-36 37 -36 104t50 123q49 56 130 56z" />
    <glyph glyph-name="Tcaron" unicode="&#x164;" horiz-adv-x="1421" 
d="M662 1194q-116 0 -172 -64t-179 -325h-166l136 543h1278l-138 -543h-143q-2 257 -31 323t-145 66h-47l-256 -1016h215l-43 -178h-756l43 178h207l256 1016h-59zM1370 1903l-350 -404h-166l-152 404h164l111 -177l211 177h182z" />
    <glyph glyph-name="tcaron" unicode="&#x165;" horiz-adv-x="837" 
d="M416 260q0 -82 73 -82q96 0 181 213l110 -35q-123 -377 -401 -376q-117 0 -190 58t-72 175q0 72 30 186l107 389h-174l37 146h176l65 240l301 34l-73 -274h299l-39 -146h-299l-115 -426q-16 -61 -16 -102zM962 1630q56 0 93 -35t37 -73t-6 -52t-7 -22q-2 -8 -12 -27
t-22 -37q-13 -18 -18 -26t-21 -29t-21 -31l-127 -190h-110l63 332q39 190 151 190z" />
    <glyph glyph-name="Umacron" unicode="&#x16a;" horiz-adv-x="1497" 
d="M786 1503l52 201h610l-49 -201h-613zM193 342q0 68 30 195l158 632h-172l43 179h674l-43 -179h-178l-164 -651q-20 -82 -21 -145q0 -103 69 -153t193 -50t205 82q82 82 119 233l172 684h-174l43 179h530l-45 -179h-164l-182 -731q-117 -471 -575 -471q-257 -1 -387 105
t-131 270z" />
    <glyph glyph-name="umacron" unicode="&#x16b;" horiz-adv-x="1314" 
d="M449 1106l51 201h610l-49 -201h-612zM967 -20q-90 0 -143 49q-52 49 -52 136t47 251l-16 6q-199 -442 -445 -442q-92 0 -150 57t-58 155t74 306t75 251q0 42 -31 42q-32 0 -62 -42t-79 -157l-107 41q131 348 361 348q94 0 147 -53q54 -52 54 -144t-66 -278t-65 -240
q0 -72 57 -71q207 0 401 766h301l-168 -644q-16 -72 -16 -98q0 -49 41 -49q66 0 135 199l105 -37q-113 -352 -340 -352z" />
    <glyph glyph-name="Ubreve" unicode="&#x16c;" horiz-adv-x="1497" 
d="M1094 1489q-147 0 -218 96t-32 281h139q-14 -174 143 -174q147 0 211 174h146q-37 -186 -139 -282t-250 -95zM193 342q0 68 30 195l158 632h-172l43 179h674l-43 -179h-178l-164 -651q-20 -82 -21 -145q0 -103 69 -153t193 -50t205 82q82 82 119 233l172 684h-174l43 179
h530l-45 -179h-164l-182 -731q-117 -471 -575 -471q-257 -1 -387 105t-131 270z" />
    <glyph glyph-name="ubreve" unicode="&#x16d;" horiz-adv-x="1314" 
d="M754 1077q-147 1 -218 97t-32 280h139q-14 -174 143 -174q147 0 211 174h146q-37 -186 -139 -282q-103 -95 -250 -95zM967 -20q-90 0 -143 49q-52 49 -52 136t47 251l-16 6q-199 -442 -445 -442q-92 0 -150 57t-58 155t74 306t75 251q0 42 -31 42q-32 0 -62 -42t-79 -157
l-107 41q131 348 361 348q94 0 147 -53q54 -52 54 -144t-66 -278t-65 -240q0 -72 57 -71q207 0 401 766h301l-168 -644q-16 -72 -16 -98q0 -49 41 -49q66 0 135 199l105 -37q-113 -352 -340 -352z" />
    <glyph glyph-name="Uring" unicode="&#x16e;" horiz-adv-x="1497" 
d="M193 342q0 68 30 195l158 632h-172l43 179h674l-43 -179h-178l-164 -651q-20 -82 -21 -145q0 -103 69 -153t193 -50t205 82q82 82 119 233l172 684h-174l43 179h530l-45 -179h-164l-182 -731q-117 -471 -575 -471q-257 -1 -387 105t-131 270zM1044 1700q0 -118 93 -117
q49 0 83 49t33 117q0 105 -93 105q-48 0 -82 -48t-34 -106zM1160 1956q116 0 182 -62t65 -160q0 -100 -76 -176q-77 -76 -193 -77q-116 0 -182 61q-66 60 -66 160t77 177t193 77z" />
    <glyph glyph-name="uring" unicode="&#x16f;" horiz-adv-x="1314" 
d="M967 -20q-90 0 -143 49q-52 49 -52 136t47 251l-16 6q-199 -442 -445 -442q-92 0 -150 57t-58 155t74 306t75 251q0 42 -31 42q-32 0 -62 -42t-79 -157l-107 41q131 348 361 348q94 0 147 -53q54 -52 54 -144t-66 -278t-65 -240q0 -72 57 -71q207 0 401 766h301
l-168 -644q-16 -72 -16 -98q0 -49 41 -49q66 0 135 199l105 -37q-113 -352 -340 -352zM918 1340q0 116 -94 116q-48 0 -82 -48t-33 -106q0 -118 92 -116q49 0 83 49t34 105zM802 1083q-116 -1 -182 61t-65 161q0 99 76 177q77 78 193 77q116 1 182 -61t65 -162
q0 -100 -76 -176q-77 -77 -193 -77z" />
    <glyph glyph-name="Uhungarumlaut" unicode="&#x170;" horiz-adv-x="1497" 
d="M1494 1935q54 0 90 -37q36 -38 36 -80q0 -71 -62 -127q-22 -20 -79 -63l-176 -135h-146l156 274q49 86 88 127t93 41zM1105 1935q54 0 91 -38t37 -80q0 -72 -62 -125q-20 -19 -77 -64l-172 -135h-142l148 274q47 88 85 128t92 40zM193 342q0 68 30 195l158 632h-172
l43 179h674l-43 -179h-178l-164 -651q-20 -82 -21 -145q0 -103 69 -153t193 -50t205 82q82 82 119 233l172 684h-174l43 179h530l-45 -179h-164l-182 -731q-117 -471 -575 -471q-257 -1 -387 105t-131 270z" />
    <glyph glyph-name="uhungarumlaut" unicode="&#x171;" horiz-adv-x="1314" 
d="M1156 1538q54 0 90 -37t36 -80q0 -72 -62 -128q-22 -19 -79 -62l-176 -135h-146l156 274q49 86 88 127t93 41zM767 1538q54 0 91 -38t37 -93t-61 -113q-21 -18 -78 -63l-172 -135h-142l148 274q47 88 85 128t92 40zM967 -20q-90 0 -143 49q-52 49 -52 136t47 251l-16 6
q-199 -442 -445 -442q-92 0 -150 57t-58 155t74 306t75 251q0 42 -31 42q-32 0 -62 -42t-79 -157l-107 41q131 348 361 348q94 0 147 -53q54 -52 54 -144t-66 -278t-65 -240q0 -72 57 -71q207 0 401 766h301l-168 -644q-16 -72 -16 -98q0 -49 41 -49q66 0 135 199l105 -37
q-113 -352 -340 -352z" />
    <glyph glyph-name="Uogonek" unicode="&#x172;" horiz-adv-x="1497" 
d="M605 -512q-119 0 -191 50t-72 138t59 156t183 141q-188 25 -290 125q-101 100 -101 244q0 68 30 195l158 632h-172l43 179h674l-43 -179h-178l-164 -651q-20 -82 -21 -145q0 -103 69 -153t193 -50t205 82q82 82 119 233l172 684h-174l43 179h530l-45 -179h-164l-182 -731
q-51 -206 -172 -326t-338 -141q-115 -86 -159 -139t-44 -98t26 -72t80 -27t122 37l41 -106q-117 -78 -237 -78z" />
    <glyph glyph-name="uogonek" unicode="&#x173;" horiz-adv-x="1314" 
d="M854 -266q0 -45 26 -72t80 -27t119 37l41 -106q-113 -78 -234 -78q-120 0 -192 50t-72 142t66 160q64 70 203 150q-119 39 -119 186q0 76 47 240l-16 6q-199 -442 -445 -442q-92 0 -150 57t-58 155t74 306t75 251q0 42 -31 42q-32 0 -62 -42t-79 -157l-107 41
q131 348 361 348q94 0 147 -53q54 -52 54 -144t-66 -278t-65 -240q0 -72 57 -71q207 0 401 766h301l-168 -644q-16 -72 -16 -98q0 -49 41 -49q65 0 135 199l105 -37q-41 -121 -89 -198q-48 -78 -159 -158t-158 -138t-47 -104z" />
    <glyph glyph-name="Wcircumflex" unicode="&#x174;" horiz-adv-x="2095" 
d="M1196 -8l-47 749l-438 -749h-289l-74 1177h-178l45 179h641l-43 -177h-143l39 -860h12l412 699l-11 161h-157l43 177h624l-43 -177h-157l36 -860h13l442 860h-178l43 177h522l-43 -179h-139l-635 -1177h-297zM979 1493l352 403h166l152 -403h-166l-111 176l-209 -176
h-184z" />
    <glyph glyph-name="wcircumflex" unicode="&#x175;" horiz-adv-x="1617" 
d="M608 1096l353 403h165l152 -403h-166l-111 176l-208 -176h-185zM378 979q206 -1 206 -197q0 -96 -85 -285t-85 -243q0 -80 71 -80q193 0 373 787h270l-73 -314q-49 -209 -49 -323q0 -145 112 -146q88 0 163 90t114 205t37 207q-29 -18 -81 -18t-93 39q-40 40 -40 109
t50 122q49 53 129 53t134 -63q54 -64 54 -182q0 -243 -143 -492q-68 -117 -176 -194t-232 -77q-122 0 -194 70t-72 221v29l-10 4q-141 -324 -369 -324q-115 0 -191 71q-76 70 -75 172q0 102 46 204t92 190t46 132t-33 42q-34 0 -66 -43t-85 -153l-107 41q156 346 362 346z
" />
    <glyph glyph-name="Ycircumflex" unicode="&#x176;" horiz-adv-x="1337" 
d="M594 1493l352 403h166l152 -403h-166l-111 176l-209 -176h-184zM819 727l359 444h-162l45 177h510l-43 -179h-139l-523 -616l-94 -375h182l-43 -178h-686l43 178h183l94 379l-215 612h-156l43 179h666l-43 -177h-164z" />
    <glyph glyph-name="ycircumflex" unicode="&#x177;" horiz-adv-x="1183" 
d="M387 1096l352 403h166l152 -403h-166l-111 176l-209 -176h-184zM387 979q88 0 138 -51t50 -139q0 -89 -58 -257t-58 -210q0 -66 63 -66q39 0 75 24q153 102 304 681h279l-201 -844q-113 -473 -567 -473q-111 0 -223 35q-60 19 -98 65t-38 106q0 62 43 110t112 48
q70 0 108 -40t37 -97t-50 -102q41 -12 86 -13q119 0 191 84t118 271l58 217l-13 6q-156 -283 -362 -283q-103 -1 -159 59t-56 148t67 265q68 177 68 221t-29 44q-59 0 -153 -196l-107 41q156 346 375 346z" />
    <glyph glyph-name="Ydieresis" unicode="&#x178;" horiz-adv-x="1337" 
d="M1339 1674q0 -64 -48 -120q-47 -55 -115 -55t-106 38q-38 39 -38 103t48 119t116 55t106 -37q37 -39 37 -103zM938 1674q0 -64 -48 -120q-48 -55 -116 -55t-105 38q-38 39 -38 103t48 119q47 55 115 55t106 -38t38 -102zM819 727l359 444h-162l45 177h510l-43 -179h-139
l-523 -616l-94 -375h182l-43 -178h-686l43 178h183l94 379l-215 612h-156l43 179h666l-43 -177h-164z" />
    <glyph glyph-name="Zacute" unicode="&#x179;" horiz-adv-x="1302" 
d="M715 1174q-121 0 -185 -60t-188 -303h-156l136 537h1114l-41 -162l-1004 -1012h322q121 0 184 64t193 319h153l-139 -557h-1155l41 162l1001 1012h-276zM1136 1935q56 0 93 -37t37 -81q0 -73 -69 -127q-24 -19 -85 -62l-190 -135h-144l170 274q53 86 93 127q39 41 95 41z
" />
    <glyph glyph-name="zacute" unicode="&#x17a;" horiz-adv-x="1028" 
d="M-37 111q0 145 256 192q186 223 449 350q-72 4 -171 31t-149 27t-92 -37q-41 -37 -90 -148l-103 33q68 225 146 323q77 98 227 99q150 0 260 -170l45 -68l19 5q20 123 66 178t104 55t96 -40q39 -40 39 -95q0 -143 -256 -191q-191 -227 -449 -350q70 -4 178 -31
q108 -26 161 -26t87 35t86 147l105 -31q-67 -225 -143 -323t-211 -99q-180 0 -293 170l-43 68l-19 -4q-20 -123 -66 -178t-104 -55t-96 38q-39 39 -39 95zM897 1538q55 0 92 -37t37 -81t-22 -77t-47 -51q-24 -18 -85 -61l-190 -135h-143l170 274q53 86 93 127t95 41z" />
    <glyph glyph-name="Zdotaccent" unicode="&#x17b;" horiz-adv-x="1302" 
d="M1110 1669q0 -70 -51 -127t-125 -57t-118 40q-42 41 -42 109t52 125t128 57t116 -38q40 -39 40 -109zM715 1174q-121 0 -185 -60t-188 -303h-156l136 537h1114l-41 -162l-1004 -1012h322q121 0 184 64t193 319h153l-139 -557h-1155l41 162l1001 1012h-276z" />
    <glyph glyph-name="zdotaccent" unicode="&#x17c;" horiz-adv-x="1028" 
d="M532 1236q0 69 52 126t128 57q76 -1 116 -39t40 -108t-51 -127t-125 -57t-118 39q-42 40 -42 109zM-37 111q0 145 256 192q186 223 449 350q-72 4 -171 31t-149 27t-92 -37q-41 -37 -90 -148l-103 33q68 225 146 323q77 98 227 99q150 0 260 -170l45 -68l19 5
q20 123 66 178t104 55t96 -40q39 -40 39 -95q0 -143 -256 -191q-191 -227 -449 -350q70 -4 178 -31q108 -26 161 -26t87 35t86 147l105 -31q-67 -225 -143 -323t-211 -99q-180 0 -293 170l-43 68l-19 -4q-20 -123 -66 -178t-104 -55t-96 38q-39 39 -39 95z" />
    <glyph glyph-name="Zcaron" unicode="&#x17d;" horiz-adv-x="1302" 
d="M715 1174q-121 0 -185 -60t-188 -303h-156l136 537h1114l-41 -162l-1004 -1012h322q121 0 184 64t193 319h153l-139 -557h-1155l41 162l1001 1012h-276zM1309 1903l-351 -404h-165l-152 404h164l110 -177l211 177h183z" />
    <glyph glyph-name="zcaron" unicode="&#x17e;" horiz-adv-x="1028" 
d="M-37 111q0 145 256 192q186 223 449 350q-72 4 -171 31t-149 27t-92 -37q-41 -37 -90 -148l-103 33q68 225 146 323q77 98 227 99q150 0 260 -170l45 -68l19 5q20 123 66 178t104 55t96 -40q39 -40 39 -95q0 -143 -256 -191q-191 -227 -449 -350q70 -4 178 -31
q108 -26 161 -26t87 35t86 147l105 -31q-67 -225 -143 -323t-211 -99q-180 0 -293 170l-43 68l-19 -4q-20 -123 -66 -178t-104 -55t-96 38q-39 39 -39 95zM1067 1505l-350 -403h-166l-152 403h164l111 -176l211 176h182z" />
    <glyph glyph-name="Aringacute" unicode="&#x1fa;" horiz-adv-x="1427" 
d="M848 1514q0 -118 90 -117q51 0 85 49q34 50 34 106q0 116 -92 115q-49 0 -83 -48q-34 -47 -34 -105zM510 592h334l-35 514h-8zM1210 1556q0 -156 -133 -227l117 -1151h168l-43 -178h-660l46 178h167l-18 252h-434l-144 -252h177l-45 -178h-519l43 178h140l690 1174
q-70 59 -70 161q0 101 77 179t194 78t182 -62t65 -152zM1288 2298q55 0 92 -37t37 -81q0 -75 -68 -128q-24 -18 -85 -61l-191 -136h-143l170 275q53 86 93 127t95 41z" />
    <glyph glyph-name="aringacute" unicode="&#x1fb;" 
d="M779 1456q-47 0 -81 -48t-34 -106q0 -118 92 -116q49 0 83 49q33 49 33 105t-22 86t-71 30zM758 1083q-116 -1 -183 61q-65 62 -65 161t76 177t192 77q116 1 182 -61t66 -162t-76 -176q-76 -77 -192 -77zM1085 2085q55 0 93 -37t36 -81q-1 -75 -68 -128q-24 -18 -85 -61
l-191 -136h-143l170 275q53 86 93 127t95 41zM461 168q73 0 137 91t98 206q35 115 35 203q0 154 -102 153q-105 0 -187 -176q-82 -177 -82 -327t101 -150zM930 219q0 -49 41 -49q66 0 135 199l104 -37q-113 -352 -342 -352q-88 0 -140 49t-52 141q0 14 4 51l-16 6
q-119 -248 -322 -247q-141 0 -217 96t-76 244t59 290q58 143 144 232q143 139 301 139q88 0 145 -54t76 -134l47 168h295l-170 -644q-16 -72 -16 -98z" />
    <glyph glyph-name="AEacute" unicode="&#x1fc;" horiz-adv-x="2123" 
d="M641 612h358l140 553h-23zM1430 766q86 0 118 32t86 156h160l-135 -546h-158q16 124 -2 158t-100 34h-82l-107 -426h291q147 0 208 65q60 65 157 293h180l-133 -532h-1247l43 178h182l67 273h-454l-238 -275h162l-43 -176h-535l44 178h133l882 991h-186l45 179h1462
l-121 -480h-161q4 195 -29 250t-162 56h-297l-102 -408h72zM1659 1935q55 0 92 -37t37 -81q0 -73 -69 -127q-24 -19 -85 -62l-190 -135h-144l170 274q54 86 94 127t95 41z" />
    <glyph glyph-name="aeacute" unicode="&#x1fd;" horiz-adv-x="1558" 
d="M621 363q0 54 6 88q-152 -15 -235 -59t-83 -132q0 -45 28 -77t77 -31q111 0 213 120q-6 37 -6 91zM1176 852q-88 0 -160 -106t-103 -248q184 12 267 83q82 71 82 167q0 48 -24 76t-62 28zM1194 1538q55 0 92 -37t37 -81q0 -74 -69 -128q-24 -18 -85 -61l-190 -135h-143
l170 274q53 86 93 127t95 41zM1198 981q166 0 249 -66t83 -172q0 -151 -157 -247t-472 -107v-16q0 -125 55 -179t142 -55q141 0 274 164l90 -74q-196 -249 -456 -249t-347 186q-156 -184 -370 -184q-131 0 -201 66t-70 167q0 307 631 334q29 100 29 147q0 139 -166 140
q-57 0 -102 -19q28 -29 28 -85t-44 -95t-109 -39t-102 39q-36 39 -36 88q0 117 119 185q118 68 322 69q204 0 286 -111q158 113 324 113z" />
    <glyph glyph-name="Oslashacute" unicode="&#x1fe;" horiz-adv-x="1505" 
d="M1206 1935q55 0 92 -37t37 -81q0 -74 -68 -127q-24 -19 -85 -62l-191 -135h-143l170 274q53 86 93 127t95 41zM885 1212q-111 0 -198 -84t-136 -208q-100 -252 -98 -469q0 -29 2 -43l649 692q-67 112 -219 112zM1151 851q0 55 -1 69t-1 20l-651 -692q68 -113 221 -113
q111 0 199 84q147 140 208 455q25 123 25 177zM889 1380q213 0 373 -116l190 206l119 -106l-199 -211q115 -158 115 -380t-132 -442t-362 -313q-129 -51 -276 -51q-219 0 -375 115l-190 -205l-119 107l198 209q-112 153 -112 379t124 433q65 109 153 191t216 133
q129 51 277 51z" />
    <glyph glyph-name="oslashacute" unicode="&#x1ff;" horiz-adv-x="1099" 
d="M465 109q57 0 107 50t84 129q70 164 85 324l-383 -430q23 -73 107 -73zM635 850q-80 0 -142 -89q-110 -158 -139 -419l383 430q-22 78 -102 78zM909 1538q55 0 92 -37t37 -81q0 -75 -68 -128q-24 -18 -85 -61l-191 -135h-143l170 274q53 86 93 127t95 41zM49 381
q0 242 174 421t402 179q135 0 237 -63l133 143l95 -86l-129 -141q86 -104 86 -256q-1 -242 -175 -420t-401 -178q-137 0 -238 59l-133 -141l-94 86l129 139q-86 104 -86 258z" />
    <glyph glyph-name="Scommaaccent" unicode="&#x218;" horiz-adv-x="1251" 
d="M647 137q98 0 161 49q62 50 62 112t-43 104q-80 78 -235 130q-148 64 -252 140q-125 93 -125 272q0 178 142 307t345 129q248 0 367 -159l86 155h176l-119 -497h-176q-41 332 -315 331q-91 0 -149 -48t-58 -124t75 -126q75 -49 139 -75t140 -59t189 -115
q114 -83 112 -243q0 -199 -146 -326t-357 -127q-279 0 -418 172l-94 -168h-174l122 516h174q20 -166 122 -258t249 -92zM287 -308q0 67 49 123t130 56t132 -57t51 -150q0 -143 -111 -253q-112 -109 -305 -156l-30 104q221 68 278 195l-14 10q-20 -12 -64 -12t-80 36
q-36 37 -36 104z" />
    <glyph glyph-name="scommaaccent" unicode="&#x219;" horiz-adv-x="956" 
d="M860 301q0 -156 -123 -239q-123 -82 -302 -82t-300 68t-121 175q0 70 43 114t110 44t103 -39q36 -38 37 -98q0 -60 -45 -109q58 -41 146 -41t129 36t41 84t-31 80t-60 47t-105 51t-120 63q-45 27 -86 81t-41 121q0 152 127 238t296 86q170 0 276 -67t106 -164
q0 -66 -42 -108t-108 -42t-103 38q-38 38 -38 96t41 100q-35 30 -113 30q-77 0 -121 -35t-44 -96t108 -118q23 -11 34 -17t39 -19q121 -56 194 -116q73 -59 73 -162zM125 -308q0 67 49 123t130 56t132 -57t51 -150q0 -142 -111 -252t-304 -157l-31 104q221 68 278 195
l-14 10q-23 -12 -65 -12t-79 36q-36 37 -36 104z" />
    <glyph glyph-name="schwa" unicode="&#x259;" horiz-adv-x="1007" 
d="M383 106q86 0 158 108t102 247q-184 -14 -265 -84q-81 -71 -81 -171t86 -100zM27 215q0 147 157 245q158 97 473 107v19q0 125 -56 179t-142 54q-141 0 -275 -164l-90 74q195 250 465 250q182 0 292 -103t110 -280q-1 -244 -181 -431t-438 -188q-150 0 -232 66t-83 172z
" />
    <glyph glyph-name="circumflex" unicode="&#x2c6;" horiz-adv-x="718" 
d="M180 1096l352 403h166l152 -403h-166l-111 176l-208 -176h-185z" />
    <glyph glyph-name="caron" unicode="&#x2c7;" horiz-adv-x="718" 
d="M911 1505l-350 -403h-166l-151 403h164l110 -176l211 176h182z" />
    <glyph glyph-name="breve" unicode="&#x2d8;" horiz-adv-x="737" 
d="M549 1092q-147 0 -218 96t-32 280h139q-14 -174 144 -174q147 0 211 174h145q-38 -186 -140 -281t-249 -95z" />
    <glyph glyph-name="dotaccent" unicode="&#x2d9;" horiz-adv-x="436" 
d="M427 1419q75 -1 116 -39t41 -108t-52 -127t-126 -57t-116 39q-42 40 -42 109t52 126t127 57z" />
    <glyph glyph-name="ring" unicode="&#x2da;" horiz-adv-x="604" 
d="M523 1456q-47 0 -81 -48t-34 -106q0 -118 92 -116q49 0 83 49q33 49 33 105t-22 86t-71 30zM502 1083q-116 -1 -183 61q-65 62 -65 161t76 177t192 77q116 1 182 -61t66 -162t-76 -176q-76 -77 -192 -77z" />
    <glyph glyph-name="ogonek" unicode="&#x2db;" horiz-adv-x="620" 
d="M105 -512q-119 0 -191 50t-72 142t73 166t224 160l51 27h170l-69 -51q-125 -92 -171 -148t-46 -100q0 -45 26 -72t79 -27q54 0 122 37l41 -106q-117 -78 -237 -78z" />
    <glyph glyph-name="tilde" unicode="&#x2dc;" horiz-adv-x="821" 
d="M444 1206q-63 0 -116 -116h-135q55 174 116 255t166 80q72 0 170 -55t129 -55q63 0 117 117h135q-54 -176 -116 -256t-167 -80q-72 0 -169 55t-130 55z" />
    <glyph glyph-name="hungarumlaut" unicode="&#x2dd;" horiz-adv-x="684" 
d="M832 1538q54 0 90 -37t36 -80q-1 -72 -62 -128q-22 -19 -79 -62l-176 -135h-145l155 274q49 86 88 127t93 41zM443 1538q53 0 91 -38t38 -80q-1 -71 -62 -126q-21 -18 -78 -63l-172 -135h-141l147 274q47 88 85 128t92 40z" />
    <glyph glyph-name="commaaccent" unicode="&#x326;" horiz-adv-x="532" 
d="M-113 -308q-1 67 49 123t130 56t132 -57t52 -150q0 -142 -112 -252t-304 -157l-31 104q221 68 279 195l-14 10q-20 -12 -64 -12t-81 36q-36 37 -36 104z" />
    <glyph glyph-name="Wgrave" unicode="&#x1e80;" horiz-adv-x="2095" 
d="M1057 1799q0 60 36 99q37 39 101 39t93 -52t54 -165l52 -227h-129l-109 133q-98 113 -98 173zM1196 -8l-47 749l-438 -749h-289l-74 1177h-178l45 179h641l-43 -177h-143l39 -860h12l412 699l-11 161h-157l43 177h624l-43 -177h-157l36 -860h13l442 860h-178l43 177h522
l-43 -179h-139l-635 -1177h-297z" />
    <glyph glyph-name="wgrave" unicode="&#x1e81;" horiz-adv-x="1617" 
d="M686 1402q0 60 36 99t100 39t94 -52t55 -165l51 -227h-129l-109 133q-98 113 -98 173zM378 979q206 -1 206 -197q0 -96 -85 -285t-85 -243q0 -80 71 -80q193 0 373 787h270l-73 -314q-49 -209 -49 -323q0 -145 112 -146q88 0 163 90t114 205t37 207q-29 -18 -81 -18
t-93 39q-40 40 -40 109t50 122q49 53 129 53t134 -63q54 -64 54 -182q0 -243 -143 -492q-68 -117 -176 -194t-232 -77q-122 0 -194 70t-72 221v29l-10 4q-141 -324 -369 -324q-115 0 -191 71q-76 70 -75 172q0 102 46 204t92 190t46 132t-33 42q-34 0 -66 -43t-85 -153
l-107 41q156 346 362 346z" />
    <glyph glyph-name="Wacute" unicode="&#x1e82;" horiz-adv-x="2095" 
d="M1196 -8l-47 749l-438 -749h-289l-74 1177h-178l45 179h641l-43 -177h-143l39 -860h12l412 699l-11 161h-157l43 177h624l-43 -177h-157l36 -860h13l442 860h-178l43 177h522l-43 -179h-139l-635 -1177h-297zM1569 1935q55 0 92 -37t37 -81q0 -73 -69 -127
q-24 -19 -85 -62l-190 -135h-144l170 274q54 86 94 127t95 41z" />
    <glyph glyph-name="wacute" unicode="&#x1e83;" horiz-adv-x="1617" 
d="M1198 1538q55 0 92 -37t37 -81q0 -76 -69 -128q-23 -18 -84 -61l-191 -135h-143l170 274q53 86 93 127t95 41zM378 979q206 -1 206 -197q0 -96 -85 -285t-85 -243q0 -80 71 -80q193 0 373 787h270l-73 -314q-49 -209 -49 -323q0 -145 112 -146q88 0 163 90t114 205
t37 207q-29 -18 -81 -18t-93 39q-40 40 -40 109t50 122q49 53 129 53t134 -63q54 -64 54 -182q0 -243 -143 -492q-68 -117 -176 -194t-232 -77q-122 0 -194 70t-72 221v29l-10 4q-141 -324 -369 -324q-115 0 -191 71q-76 70 -75 172q0 102 46 204t92 190t46 132t-33 42
q-34 0 -66 -43t-85 -153l-107 41q156 346 362 346z" />
    <glyph glyph-name="Wdieresis" unicode="&#x1e84;" horiz-adv-x="2095" 
d="M1196 -8l-47 749l-438 -749h-289l-74 1177h-178l45 179h641l-43 -177h-143l39 -860h12l412 699l-11 161h-157l43 177h624l-43 -177h-157l36 -860h13l442 860h-178l43 177h522l-43 -179h-139l-635 -1177h-297zM1726 1674q0 -64 -48 -120q-48 -55 -116 -55t-105 38
q-38 39 -38 103t48 119q47 55 115 55t107 -37q37 -39 37 -103zM1325 1674q0 -64 -48 -120q-47 -55 -115 -55t-106 38q-38 39 -38 103t48 119t116 55t105 -38q38 -38 38 -102z" />
    <glyph glyph-name="wdieresis" unicode="&#x1e85;" horiz-adv-x="1617" 
d="M954 1276q0 -64 -48 -119t-116 -55t-105 38q-38 38 -38 102t48 120q47 55 115 55t106 -38q38 -39 38 -103zM1356 1276q0 -64 -48 -119t-116 -55t-106 38t-38 102t49 120q47 55 115 55t106 -38q38 -39 38 -103zM378 979q206 -1 206 -197q0 -96 -85 -285t-85 -243
q0 -80 71 -80q193 0 373 787h270l-73 -314q-49 -209 -49 -323q0 -145 112 -146q88 0 163 90t114 205t37 207q-29 -18 -81 -18t-93 39q-40 40 -40 109t50 122q49 53 129 53t134 -63q54 -64 54 -182q0 -243 -143 -492q-68 -117 -176 -194t-232 -77q-122 0 -194 70t-72 221v29
l-10 4q-141 -324 -369 -324q-115 0 -191 71q-76 70 -75 172q0 102 46 204t92 190t46 132t-33 42q-34 0 -66 -43t-85 -153l-107 41q156 346 362 346z" />
    <glyph glyph-name="Ygrave" unicode="&#x1ef2;" horiz-adv-x="1337" 
d="M670 1799q0 60 36 99t100 39t94 -52q29 -52 54 -165l52 -227h-129l-109 133q-98 113 -98 173zM819 727l359 444h-162l45 177h510l-43 -179h-139l-523 -616l-94 -375h182l-43 -178h-686l43 178h183l94 379l-215 612h-156l43 179h666l-43 -177h-164z" />
    <glyph glyph-name="ygrave" unicode="&#x1ef3;" horiz-adv-x="1183" 
d="M465 1402q0 60 36 99q37 39 101 39t94 -52t54 -165l51 -227h-129l-109 133q-98 113 -98 173zM387 979q88 0 138 -51t50 -139q0 -89 -58 -257t-58 -210q0 -66 63 -66q39 0 75 24q153 102 304 681h279l-201 -844q-113 -473 -567 -473q-111 0 -223 35q-60 19 -98 65t-38 106
q0 62 43 110t112 48q70 0 108 -40t37 -97t-50 -102q41 -12 86 -13q119 0 191 84t118 271l58 217l-13 6q-156 -283 -362 -283q-103 -1 -159 59t-56 148t67 265q68 177 68 221t-29 44q-59 0 -153 -196l-107 41q156 346 375 346z" />
    <glyph glyph-name="enspace" unicode="&#x2002;" horiz-adv-x="1024" 
 />
    <glyph glyph-name="emspace" unicode="&#x2003;" horiz-adv-x="2048" 
 />
    <glyph glyph-name="threeperemspace" unicode="&#x2004;" horiz-adv-x="681" 
 />
    <glyph glyph-name="fourperemspace" unicode="&#x2005;" horiz-adv-x="512" 
 />
    <glyph glyph-name="thinspace" unicode="&#x2009;" horiz-adv-x="272" 
 />
    <glyph glyph-name="hairspace" unicode="&#x200a;" horiz-adv-x="153" 
 />
    <glyph glyph-name="endash" unicode="&#x2013;" horiz-adv-x="1085" 
d="M84 418l45 188h889l-47 -188h-887z" />
    <glyph glyph-name="emdash" unicode="&#x2014;" horiz-adv-x="1597" 
d="M84 418l45 188h1401l-47 -188h-1399z" />
    <glyph glyph-name="quoteleft" unicode="&#x2018;" horiz-adv-x="524" 
d="M421 1071q46 0 82 -41q36 -42 36 -112q-1 -70 -53 -130t-136 -61q-84 0 -136 61t-52 160q0 162 128 282t345 167l31 -111q-264 -68 -326 -221l12 -10q23 16 69 16z" />
    <glyph glyph-name="quoteright" unicode="&#x2019;" horiz-adv-x="524" 
d="M268 1190q0 72 52 131t137 59q84 0 136 -60t52 -161q0 -159 -128 -279t-345 -167l-31 108q258 66 326 221l-14 11q-23 -17 -68 -17t-81 41t-36 113z" />
    <glyph glyph-name="quotesinglbase" unicode="&#x201a;" horiz-adv-x="524" 
d="M102 -12q-44 0 -80 41t-36 113t52 130q52 60 136 60t136 -60t52 -161q0 -160 -128 -280t-345 -167l-30 109q258 66 325 221l-14 10q-24 -16 -68 -16z" />
    <glyph glyph-name="quotedblleft" unicode="&#x201c;" horiz-adv-x="1005" 
d="M904 1071q44 0 80 -41q36 -42 36 -112t-52 -130t-136 -61q-84 0 -137 61q-52 61 -52 160q0 162 128 282t345 167l31 -111q-260 -66 -326 -221l13 -10q26 16 70 16zM442 1071q44 0 79 -41q36 -42 36 -112t-52 -130t-136 -61q-84 0 -137 61q-52 61 -52 160q0 162 128 282
t345 167l31 -111q-260 -66 -326 -221l13 -10q27 16 71 16z" />
    <glyph glyph-name="quotedblright" unicode="&#x201d;" horiz-adv-x="1005" 
d="M731 1190q0 72 52 131t136 59q85 0 137 -60t52 -161q0 -159 -128 -279t-345 -167l-31 108q127 33 211 92t115 129l-15 11q-23 -17 -69 -17t-80 41q-35 41 -35 113zM268 1190q0 72 52 131t137 59q84 0 136 -60t52 -161q0 -159 -128 -279t-345 -167l-31 108q258 66 326 221
l-14 11q-23 -17 -68 -17t-81 41t-36 113z" />
    <glyph glyph-name="quotedblbase" unicode="&#x201e;" horiz-adv-x="987" 
d="M564 -12q-46 0 -81 41t-35 113t53 130q52 60 136 60t136 -60t52 -161q0 -160 -128 -280t-345 -167l-30 109q126 33 210 92t115 129l-14 10q-23 -16 -69 -16zM102 -12q-44 0 -80 41t-36 113t52 130q52 60 136 60t136 -60t52 -161q0 -160 -128 -280t-345 -167l-30 109
q258 66 325 221l-14 10q-24 -16 -68 -16z" />
    <glyph glyph-name="dagger" unicode="&#x2020;" horiz-adv-x="1105" 
d="M1180 920q0 -66 -56 -123t-158 -57t-282 71l-70 -621l-69 -282q-13 -53 -71 -95t-89 -40q-25 1 -61 71t-23 125l72 283l227 590q-127 51 -207 51q-10 0 -12 -2q14 -80 -25 -135q-39 -56 -99 -56t-94 35t-34 101t56 121q57 57 137 57t133 -14t170 -58v399l24 35
q51 66 111 66t93 -37q32 -37 40 -90l6 -43l-192 -359q129 -51 208 -51h13q-14 82 24 136q40 54 100 54t94 -33t34 -99z" />
    <glyph glyph-name="daggerdbl" unicode="&#x2021;" horiz-adv-x="1105" 
d="M770 315h14q-14 79 25 135t98 56t94 -35t35 -99t-57 -122q-57 -57 -149 -57t-148 20t-143 51l6 -389l-25 -33q-48 -68 -110 -68t-95 39q-33 38 -39 89l-6 43l187 350q-123 49 -207 49h-14q14 -80 -24 -135t-98 -55t-95 34q-33 34 -33 100q0 65 56 122t146 57
q90 -1 149 -21q58 -20 138 -49v242l125 215q-129 49 -203 49q-10 0 -12 -2q14 -80 -25 -135t-99 -55q-60 1 -94 35t-34 99t56 122q57 57 137 57t133 -14t170 -58l-4 389l24 35q51 66 111 66t93 -37q32 -37 40 -90l6 -43l-188 -348q133 -51 207 -52h14q-14 80 24 136
q40 55 100 55t94 -35q34 -36 34 -100t-56 -121t-145 -57q-88 0 -149 20q-62 20 -142 49v-241l-123 -216q125 -47 201 -47z" />
    <glyph glyph-name="bullet" unicode="&#x2022;" horiz-adv-x="980" 
d="M844 682q0 -134 -98 -240t-227 -106q-128 0 -206 83q-77 83 -77 218t98 241t226 105q128 0 206 -83t78 -218z" />
    <glyph glyph-name="ellipsis" unicode="&#x2026;" horiz-adv-x="1546" 
d="M1032 141q0 79 55 141t129 62t120 -49t46 -127t-55 -140t-129 -63q-74 0 -120 49t-46 127zM518 141q0 79 55 141t129 62t120 -49t46 -127t-55 -140t-129 -63q-74 0 -120 49t-46 127zM6 141q0 79 55 141t129 62t120 -49t46 -127t-55 -140t-129 -63q-74 0 -120 49t-46 127z
" />
    <glyph glyph-name="guilsinglleft" unicode="&#x2039;" horiz-adv-x="634" 
d="M49 479q0 43 70 90l450 297l68 -88l-320 -323l166 -322l-94 -70l-305 330q-35 43 -35 86z" />
    <glyph glyph-name="guilsinglright" unicode="&#x203a;" horiz-adv-x="634" 
d="M584 453q0 -43 -70 -91l-451 -296l-67 88l319 323l-165 322l94 69l305 -329q35 -43 35 -86z" />
    <glyph glyph-name="Euro" unicode="&#x20ac;" horiz-adv-x="1351" 
d="M809 158q195 0 334 272l137 -82q-178 -381 -528 -381q-209 0 -345 111t-165 323h-207l39 160h164q4 80 16 137h-148l41 160h156q88 213 262 343q173 130 385 130t324 -98t112 -229q0 -90 -51 -150t-123 -61q-72 0 -112 40t-39 101q0 61 26 103q27 42 66 61q-16 30 -62 52
t-110 21q-256 0 -371 -315h338l-39 -158h-340q-10 -66 -14 -137h319l-36 -155h-279q37 -248 250 -248z" />
    <glyph glyph-name="published" unicode="&#x2117;" horiz-adv-x="1611" 
d="M803 678h71q78 0 108 32t30 104t-30 102t-108 30h-71v-268zM512 297v100h102v545h-102v100h375q326 0 325 -229q0 -104 -78 -168q-79 -63 -245 -63h-86v-185h108v-100h-399zM822 31q278 0 454 181t176 461t-176 461t-454 181t-453 -181q-176 -181 -176 -461t176 -461
q175 -181 453 -181zM822 -70q-322 0 -536 211t-214 531t214 532q214 211 536 211t537 -211q214 -212 214 -532t-214 -531t-537 -211z" />
    <glyph glyph-name="servicemark" unicode="&#x2120;" horiz-adv-x="1703" 
d="M764 711l22 100h88l107 436h-84l25 101h344l22 -363h15l194 363h348l-26 -101h-88l-109 -436h88l-24 -100h-343l25 98h78l106 426h-18l-299 -524h-88l-45 524h-19l-106 -426h78l-25 -98h-266zM473 782q98 0 98 78q0 32 -31 53q-9 6 -17 12t-67 31q-156 65 -179 111
q-23 45 -23 84q0 89 76 151t188 62t176 -76l39 74h92l-57 -238h-90q-25 154 -152 154q-46 0 -72 -20t-26 -58q0 -37 62 -71q20 -9 74 -31t85 -37q31 -16 64 -57t32 -95q1 -92 -75 -151q-76 -60 -200 -60t-194 80l-43 -78h-90l58 246h92q31 -164 180 -164z" />
    <glyph glyph-name="trademark" unicode="&#x2122;" horiz-adv-x="1781" 
d="M467 1262q-55 0 -85 -34t-83 -151h-86l68 271h655l-70 -271h-75q1 117 -15 151t-67 34h-35l-113 -451h113l-27 -100h-397l24 100h113l111 451h-31zM840 711l26 100h84l109 436h-86l26 101h342l25 -363h14l195 363h346l-25 -101h-90l-108 -436h90l-27 -100h-342l25 98h78
l106 426h-18l-297 -524h-90l-43 524h-21l-106 -426h77l-22 -98h-268z" />
    <glyph glyph-name="minus" unicode="&#x2212;" horiz-adv-x="1062" 
d="M936 494h-799l43 178h799z" />
    <glyph glyph-name="registered.alt" horiz-adv-x="1611" 
d="M748 719h96q66 -1 96 27t31 92q0 64 -27 91q-27 28 -96 27h-100v-237zM748 625v-219h104v-101h-393v101h98v544h-98v103h411q158 1 231 -55t73 -138q0 -162 -234 -188v-6q102 -8 145 -48t50 -114l2 -41q6 -59 34 -60q27 0 46 70l67 -20q-35 -162 -170 -162
q-172 0 -172 188v35q0 61 -21 86q-22 25 -81 25h-92zM822 31q278 0 454 181t176 461t-176 461t-454 181t-453 -181q-176 -181 -176 -461t176 -461q175 -181 453 -181zM822 -70q-322 0 -536 211t-214 531t214 532q214 211 536 211t537 -211q214 -212 214 -532t-214 -531
t-537 -211z" />
    <glyph glyph-name="zero.osf" horiz-adv-x="1245" 
d="M868 811q0 211 -161 211q-73 0 -133 -78t-95 -190q-73 -235 -73 -420q0 -211 161 -211q72 0 132 78q102 132 150 414q19 112 19 196zM702 1178q228 0 358 -134t130 -373q0 -238 -156 -462q-74 -106 -196 -174t-267 -68q-227 1 -357 135t-130 372t156 462q74 106 196 174
t266 68z" />
    <glyph glyph-name="one.osf" horiz-adv-x="958" 
d="M-23 0l43 170h265l166 676q-51 -14 -133 -14t-146 22l35 145q281 -12 432 162h195l-246 -991h260l-43 -170h-828z" />
    <glyph glyph-name="two.osf" horiz-adv-x="1134" 
d="M494 867q0 -83 -48 -130t-122 -47t-119 45t-45 117q0 133 134 229q134 97 347 97t334 -92t121 -228q0 -170 -119 -254t-326 -129t-303 -95t-147 -130l6 -8q99 68 207 68t212 -32q104 -30 155 -30q52 0 89 38t74 134l117 -25q-53 -233 -133 -330t-211 -98q-74 0 -137 31
q-62 31 -98 68q-94 98 -167 98q-29 0 -59 -8q16 -31 16 -75t-39 -80t-96 -36t-98 41t-41 117q0 252 428 442q163 77 232 123q69 47 92 91q22 44 22 109q0 64 -54 104t-148 40t-154 -45q78 -37 78 -120z" />
    <glyph glyph-name="three.osf" horiz-adv-x="1112" 
d="M404 -45q120 0 182 79q61 79 61 210q0 86 -60 126t-196 40h-39l41 159h53q158 0 240 82t82 211q0 172 -174 172q-96 0 -143 -39q57 -53 57 -123t-46 -118t-123 -49q-77 0 -122 45t-45 116q0 136 137 224t344 88t325 -90t118 -234q0 -142 -113 -246t-332 -121l-2 -8
q326 -35 326 -272q-1 -168 -145 -282q-144 -113 -376 -113t-356 82q-125 82 -125 210q1 86 55 146t131 59q77 0 119 -46t41 -113q1 -103 -81 -164q46 -31 166 -31z" />
    <glyph glyph-name="four.osf" horiz-adv-x="1179" 
d="M797 0h170l-41 -168h-621l41 168h170l55 227h-594l37 162l770 778h303l-192 -764h244l-43 -176h-244zM614 403l131 525h-12l-508 -525h389z" />
    <glyph glyph-name="five.osf" horiz-adv-x="1085" 
d="M618 655q164 0 262 -97q98 -98 99 -234q0 -288 -244 -436q-129 -78 -313 -78t-309 78t-125 206q0 80 51 137t126 57t117 -42q42 -43 42 -120t-82 -140q41 -31 131 -31q143 0 213 106t70 223t-56 161q-55 44 -146 44t-202 -71l-123 43l209 669l65 46q163 -68 351 -68
t342 68l45 -95q-172 -242 -432 -241q-158 0 -283 55l-104 -324q132 84 296 84z" />
    <glyph glyph-name="six.osf" horiz-adv-x="1165" 
d="M547 111q100 0 161 108q60 109 60 250q0 195 -150 195q-106 0 -169 -100t-63 -221q0 -120 42 -176q43 -56 119 -56zM792 1321q188 0 294 -77q105 -77 106 -193q0 -79 -47 -135t-125 -56t-118 41t-40 100q0 88 72 144q-39 35 -117 35q-137 0 -237 -131t-144 -357
q104 113 274 113t273 -92q102 -92 102 -242q0 -199 -142 -351q-143 -152 -373 -153q-230 0 -355 135q-125 134 -125 360t89 420t257 316t356 123z" />
    <glyph glyph-name="seven.osf" horiz-adv-x="1112" 
d="M301 -190q-74 0 -122 45t-48 108q0 137 168 325t506 449l145 117l-12 12q-121 -72 -205 -72t-165 38q-80 36 -122 36t-79 -46t-97 -179h-164l130 518h176l-23 -176h14q96 188 218 189q55 0 97 -33t62 -73t54 -73t71 -32q10 0 23 4q-10 37 -10 65q0 66 39 107t103 41
t104 -36t40 -93q0 -115 -166 -243t-295 -312q-130 -184 -247 -502q-33 -90 -77 -137t-118 -47z" />
    <glyph glyph-name="eight.osf" horiz-adv-x="1146" 
d="M496 998q0 -79 64 -132t204 -114q145 98 145 245q0 76 -52 130q-52 55 -148 55q-97 0 -155 -52t-58 -132zM287 307q0 -84 62 -141q63 -57 173 -57t175 52t65 138t-91 146q-67 45 -218 114q-166 -102 -166 -252zM695 1321q218 1 337 -95t119 -221t-86 -203t-223 -106
q100 -55 156 -126t57 -181q1 -180 -143 -300t-380 -120t-363 92q-128 93 -128 227t90 217t246 107q-182 106 -182 282t141 302q141 125 359 125z" />
    <glyph glyph-name="nine.osf" horiz-adv-x="1165" 
d="M111 668q0 202 142 356q141 154 373 154t356 -136t124 -362q0 -225 -89 -422q-89 -198 -257 -322t-356 -124t-294 76q-105 76 -106 198q0 78 47 134t123 56t118 -42t42 -101q0 -92 -74 -141q41 -41 117 -41q137 0 239 134t144 355q-109 -112 -277 -112t-270 95t-102 245z
M639 1034q-88 0 -150 -111q-61 -113 -61 -233q0 -220 150 -219q106 0 171 102t65 224q0 121 -44 179q-43 58 -131 58z" />
    <glyph glyph-name="dollar.osf" horiz-adv-x="1126" 
d="M426 881q0 -92 127 -146l76 309q-95 -8 -149 -55t-54 -108zM772 260q0 98 -151 160l-80 -320q119 0 175 44t56 116zM978 715q-68 0 -111 37q-42 36 -42 104t66 113q-33 41 -113 63l-88 -348q172 -61 259 -133t87 -191q0 -166 -133 -274t-356 -109h-31l-45 -184l-154 19
l45 182q-156 28 -252 102t-96 176q0 74 45 123t115 49t114 -37q44 -38 44 -94q0 -84 -72 -129q35 -41 133 -67l90 354q-163 59 -245 127t-82 178q0 170 143 279t354 112l41 160l154 -18l-39 -154q143 -27 233 -99t90 -158q0 -85 -42 -134q-44 -49 -112 -49z" />
    <glyph glyph-name="sterling.osf" horiz-adv-x="1259" 
d="M206 86q89 0 165 109q-75 41 -133 41t-90 -24t-31 -60q0 -66 89 -66zM875 211q73 0 109 38t83 148l115 -24q-55 -217 -133 -311t-215 -95q-174 0 -371 160q-119 -156 -281 -156q-100 0 -156 46t-56 130q0 85 81 145q83 60 185 60t192 -22q6 44 6 76t-14 86h-311l38 153
h211q-29 72 -28 131q0 174 155 288q156 114 362 114q207 0 315 -75t108 -175q0 -76 -48 -128t-121 -52t-115 34t-42 87q0 52 31 89t74 52q-55 41 -168 41t-169 -72t-57 -195q0 -14 17 -139h321l-39 -153h-276q-18 -106 -98 -207h4q219 -74 291 -74z" />
    <glyph glyph-name="Euro.osf" horiz-adv-x="1335" 
d="M721 -33q-195 1 -329 99t-165 280h-211l37 150h164q2 55 16 118h-151l39 150h162q84 186 252 300q167 114 373 114t319 -94t112 -220q0 -90 -51 -149t-125 -59q-73 0 -113 37q-40 38 -40 102q0 117 102 166q-49 63 -176 63q-238 0 -348 -262h321l-37 -148h-329
q-10 -57 -15 -118h316l-37 -148h-270q43 -196 243 -196t344 262l138 -82q-176 -365 -541 -365z" />
    <glyph glyph-name="yen.osf" horiz-adv-x="1308" 
d="M219 705h205l-113 274h-168l43 168h631l-41 -166h-147l137 -369l315 369h-151l43 166h485l-41 -168h-141l-250 -274h195l-37 -148h-293l-92 -102l-4 -11h362l-37 -147h-362l-33 -135h190l-38 -162h-660l39 162h193l32 135h-362l37 147h362l6 21l-39 92h-303z" />
    <glyph glyph-name="hfjslug" horiz-adv-x="1421" 
d="M872 580q-31 0 -30 34q0 12 9 24t22 11q13 0 23 -11q10 -10 9 -24q1 -14 -9 -24t-24 -10zM999 612h-24v35h22q20 0 21 -16q-1 -19 -19 -19zM664 823q-35 1 -35 47t30 76l41 -80q-12 -43 -36 -43zM645 1056q0 30 29 29q27 -1 27 -35t-31 -69q-25 45 -25 75zM494 662
l30 -97h17l20 70h2l23 -70h16l29 97h-17l-20 -72h-2l-21 72h-16l-23 -72h-2l-20 72h-16zM270 662v-95h17v66l51 -66h14v95h-16v-66l-51 66h-15zM395 662v-95h68v15h-51v26h45v15h-45v24h51v15h-68zM750 567h16v35l37 60h-19l-26 -46l-27 46h-18l37 -60v-35zM874 565
q22 0 34 15q32 34 0 68q-14 16 -36 16q-20 0 -33 -16t-13 -34q0 -20 12 -34q14 -14 36 -15zM1034 626q0 34 -33 36h-43v-95h17v31h24l21 -31h18l-24 35q20 6 20 24zM1071 662v-95h16v27l15 14l33 -41h18l-39 54l37 41h-21l-43 -50v50h-16zM598 884q0 -92 68 -90q32 0 51 50
h2l24 -49l23 16l-33 61q20 47 27 80l-27 6q-4 -18 -18 -61l-33 64q47 43 47 77q0 72 -55 72q-25 0 -41 -19q-17 -19 -17 -45t29 -79q-47 -37 -47 -83zM985 799q63 0 64 73v281h-33v-281q0 -45 -33 -45q-20 0 -41 13v-33q16 -8 43 -8zM377 1153v-352h31v162h96v-162h31v352
h-31v-162h-96v162h-31zM819 1153v-352h31v160h78v28h-78v135h88v29h-119zM1319 -410h-426l-16 29h-334l-17 -29h-424v621q29 0 48 19q18 19 18 46q0 26 -20 46t-46 20v1135h205l62 161h684l59 -161h207v-1887z" />
    <glyph glyph-name="i.dot" horiz-adv-x="741" 
d="M598 785q0 -89 -84 -309t-84 -263t37 -43q63 0 143 199l107 -37q-123 -352 -361 -352q-92 0 -150 54t-58 147t84 311q85 218 85 261q0 42 -30 42q-53 0 -148 -203l-104 41q147 348 368 348q86 0 141 -53q54 -54 54 -143zM352 1262q0 72 54 133t133 61q78 0 122 -42
t44 -113q-1 -73 -55 -133t-133 -60t-122 41t-43 113z" />
    <glyph glyph-name="caron.alt" horiz-adv-x="487" 
d="M631 1494q0 -38 -5 -52q-6 -14 -8 -22t-9 -22q-7 -12 -11 -20t-15 -24t-17 -24t-20 -30q-16 -20 -22 -30l-127 -191h-110l63 332q38 189 151 191q56 0 93 -35t37 -73z" />
    </font>
</defs>
</svg>
