<?xml version="1.0" standalone="no"?>
<!DOCTYPE svg PUBLIC "-//W3C//DTD SVG 1.1//EN" "http://www.w3.org/Graphics/SVG/1.1/DTD/svg11.dtd" >
<svg xmlns="http://www.w3.org/2000/svg">
<metadata>
Created by FontPrep 20130207 at Thu Sep 25 20:56:59 2014
 By Callum Flack
Copyright (C) 2004, 2009 Hoefler &#38; Frere-Jones. http://www.typography.com
</metadata>
<defs>
<font id="fb7f01513910e38bdb2e628a3e62faf5" horiz-adv-x='1024' >
  <font-face 
    font-family="Sentinel-Book"
    font-weight="325"
    font-stretch="normal"
    units-per-em="2048"
    panose-1="0 0 0 0 0 0 0 0 0 0"
    ascent="1638"
    descent="-410"
    x-height="922"
    cap-height="1335"
    bbox="-104 -600 2302 2222"
    underline-thickness="102"
    underline-position="-102"
    unicode-range="U+0020-FB04"
  />
<missing-glyph horiz-adv-x="1024" 
d="M512 492l-367 -799h734zM922 1384l-353 -770l353 -770v1540zM102 -156l353 770l-353 770v-1540zM145 1536l367 -799l367 799h-734zM0 -410v2048h1024v-2048h-1024z" />
    <glyph glyph-name="f_f" unicode="ff" horiz-adv-x="1259" 
d="M799 915v60q0 74 12 135q-8 -2 -41 -2q-34 0 -64 29t-30 79t39 78q-41 41 -134 41q-198 0 -198 -346v-74h416zM608 1419q100 0 174 -38t99 -103q100 141 295 141q112 0 184 -49t72 -129q0 -49 -30 -83t-76 -34t-75 29t-29 76t33 80q-29 27 -98 26q-102 0 -151 -79
t-50 -273v-68h273v-100h-273v-709h215v-106h-507v106h135v709h-416v-709h158v-106h-467v106h149v709h-186v100h186v56q-1 231 111 339t274 109z" />
    <glyph glyph-name="fi" unicode="fi" horiz-adv-x="1171" 
d="M805 815h-422v-709h147v-106h-458v106h151v709h-186v100h186v54q0 235 118 343t296 107q129 0 220 -62t91 -153q0 -55 -30 -87t-78 -32q-47 0 -76 29t-29 79t43 85q-51 55 -155 55q-240 0 -240 -334v-84h580v-809h174v-106h-471v106h139v709z" />
    <glyph glyph-name="fl" unicode="fl" horiz-adv-x="1189" 
d="M383 983v-68h436v215q-25 -10 -61 -10t-64 29t-28 72t32 82q-43 33 -110 32q-104 -1 -154 -79t-51 -273zM72 0v106h151v709h-186v100h186v60q0 227 110 336t269 108q115 0 191 -47l186 43v-1309h172v-106h-471v106h139v709h-436v-709h162v-106h-473z" />
    <glyph glyph-name="f_f_i" unicode="ffi" horiz-adv-x="1746" 
d="M799 969q0 84 14 141q-8 -2 -42 -2q-35 0 -65 29t-30 79t39 78q-41 41 -134 41q-198 0 -198 -346v-74h416v54zM956 999v-84h582v-809h172v-106h-469v106h137v709h-422v-709h150v-106h-442v106h135v709h-416v-709h158v-106h-467v106h149v709h-186v100h186v56
q0 231 112 340t273 108q102 0 177 -40t98 -107q109 147 327 147q132 0 222 -62t90 -153q0 -55 -31 -87t-77 -32t-76 29t-30 77t44 87q-47 55 -154 55q-242 0 -242 -334z" />
    <glyph glyph-name="f_f_l" unicode="ffl" horiz-adv-x="1763" 
d="M799 915v60q0 74 12 135q-8 -2 -41 -2q-34 0 -64 29t-30 79t39 78q-41 41 -134 41q-198 0 -198 -346v-74h416zM956 983v-68h439v218q-23 -13 -59 -13t-67 29q-30 29 -30 74t35 80q-45 33 -113 32q-105 -1 -155 -79t-50 -273zM1253 0v106h142v709h-439v-709h162v-106h-454
v106h135v709h-416v-709h158v-106h-467v106h149v709h-186v100h186v56q0 231 112 340t273 108q100 0 174 -38t99 -103q100 141 295 141q115 0 190 -47l186 43v-1309h174v-106h-473z" />
    <glyph glyph-name="f_b" unicode="fb" horiz-adv-x="1708" 
d="M383 987v-72h412v209q-8 -4 -43 -4t-64 29t-29 72t33 82q-43 33 -110 32q-98 0 -148 -79t-51 -269zM1214 831q-110 1 -187 -111t-77 -278t78 -259t184 -93q108 0 172 99t64 273t-62 272q-62 97 -172 97zM72 0v106h151v709h-186v100h186v60q0 227 109 336t266 108
q109 0 186 -45l170 41v-692q54 103 136 159t176 56q139 0 227 -88q129 -127 129 -378t-139 -390q-98 -98 -238 -98q-100 0 -180 55t-127 154l-59 -203h-84v825h-412v-709h184v-106h-495z" />
    <glyph glyph-name="f_h" unicode="fh" horiz-adv-x="1759" 
d="M383 983v-68h436v215q-25 -10 -61 -10t-64 29t-28 72t32 82q-43 33 -110 32q-104 -1 -154 -79t-51 -273zM680 0v106h139v709h-436v-709h162v-106h-473v106h151v709h-186v100h186v60q0 227 110 336t269 108q115 0 191 -47l186 43v-727q141 248 346 248q117 0 183 -76
t67 -215v-539h151v-106h-452v106h141v467q0 137 -47 185t-135 49q-88 0 -171 -93t-83 -206v-402h139v-106h-438z" />
    <glyph glyph-name="f_j" unicode="fj" horiz-adv-x="1128" 
d="M963 915v-878q0 -179 -77 -275t-222 -96q-90 0 -153 46q-62 46 -62 104t31 94q32 35 79 35t76 -29t29 -74t-37 -78q23 -14 55 -14q123 0 123 205v860h-422v-709h158v-106h-469v106h151v709h-186v100h186v54q0 235 118 343t296 107q129 0 220 -62t91 -153q0 -55 -30 -87
t-78 -32q-47 0 -76 29t-29 79t43 85q-51 55 -155 55q-240 0 -240 -334v-84h580z" />
    <glyph glyph-name="f_k" unicode="fk" horiz-adv-x="1689" 
d="M383 983v-68h436v215q-25 -10 -61 -10t-64 29t-28 72t32 82q-43 33 -110 32q-104 -1 -154 -79t-51 -273zM72 0v106h151v709h-186v100h186v60q0 227 110 336t269 108q115 0 191 -47l186 43v-993l373 395h-154v105h426v-107h-139l-252 -256l319 -453h117v-106h-420v104h123
l-244 355l-149 -152v-201h127v-106h-426v106h139v709h-436v-709h162v-106h-473z" />
    <glyph glyph-name="f_f_b" unicode="ffb" horiz-adv-x="2289" 
d="M956 987v-72h422v211q-18 -6 -53 -6t-63 29t-29 72q0 43 33 82q-43 33 -109 32q-101 0 -151 -79t-50 -269zM799 915v60q0 74 12 135q-8 -2 -41 -2q-34 0 -64 29t-30 79t39 78q-41 41 -134 41q-198 0 -198 -346v-74h416zM1796 831q-112 1 -188 -111t-76 -278t78 -259
t184 -93q108 0 172 99t64 275t-62 271q-62 96 -172 96zM1849 938q137 0 226 -88q129 -127 129 -378t-140 -390q-94 -98 -237 -98q-100 0 -180 55t-125 154l-60 -203h-84v825h-422v-709h185v-106h-477v106h135v709h-416v-709h158v-106h-467v106h149v709h-186v100h186v56
q0 231 112 340t273 108q100 0 174 -38t99 -103q100 141 290 141q117 0 189 -47l176 43v-692q53 103 136 159t177 56z" />
    <glyph glyph-name="f_f_h" unicode="ffh" horiz-adv-x="2332" 
d="M799 975q0 74 12 135q-8 -2 -41 -2q-34 0 -64 29t-30 79t39 78q-41 41 -134 41q-198 0 -198 -346v-74h416v60zM956 983v-68h439v218q-23 -13 -59 -13t-67 29q-30 29 -30 74t35 80q-45 33 -113 32q-105 -1 -155 -79t-50 -273zM1253 0v106h142v709h-439v-709h162v-106h-454
v106h135v709h-416v-709h158v-106h-467v106h149v709h-186v100h186v56q0 231 112 340t273 108q100 0 174 -38t99 -103q100 141 295 141q115 0 190 -47l186 43v-727q143 248 346 248q119 0 185 -76t65 -215v-539h154v-106h-453v106h140v467q1 139 -47 187t-121 47
q-101 0 -185 -93t-84 -206v-402h142v-106h-441z" />
    <glyph glyph-name="f_f_j" unicode="ffj" horiz-adv-x="1701" 
d="M799 969q0 84 14 141q-8 -2 -42 -2q-35 0 -65 29t-30 79t39 78q-41 41 -134 41q-198 0 -198 -346v-74h416v54zM1538 915v-878q0 -179 -77 -275t-222 -96q-92 0 -155 46q-62 46 -62 104t32 94q32 35 79 35t77 -29t29 -72q0 -43 -37 -80q20 -14 53 -14q123 0 123 205v860
h-422v-709h158v-106h-450v106h135v709h-416v-709h158v-106h-467v106h149v709h-186v100h186v56q0 231 112 340t273 108q102 0 177 -40t98 -107q109 147 327 147q132 0 222 -62t90 -153q0 -55 -31 -87t-77 -32t-76 29t-30 77t44 87q-47 55 -154 55q-242 0 -242 -334v-84h582z
" />
    <glyph glyph-name="f_f_k" unicode="ffk" horiz-adv-x="2265" 
d="M799 975q0 74 12 135q-8 -2 -41 -2q-34 0 -64 29t-30 79t39 78q-41 41 -134 41q-198 0 -198 -346v-74h416v60zM956 983v-68h439v218q-23 -13 -59 -13t-67 29q-30 29 -30 74t35 80q-45 33 -113 32q-105 -1 -155 -79t-50 -273zM1774 817v105h424v-107h-140l-250 -256
l318 -453h117v-106h-420v104h123l-244 355l-150 -152v-201h129v-106h-428v106h142v709h-439v-709h162v-106h-454v106h135v709h-416v-709h158v-106h-467v106h149v709h-186v100h186v56q0 231 112 340t273 108q100 0 174 -38t99 -103q100 141 295 141q115 0 190 -47l186 43
v-993l375 395h-153z" />
    <glyph glyph-name=".notdef" horiz-adv-x="1024" 
d="M512 492l-367 -799h734zM922 1384l-353 -770l353 -770v1540zM102 -156l353 770l-353 770v-1540zM145 1536l367 -799l367 799h-734zM0 -410v2048h1024v-2048h-1024z" />
    <glyph glyph-name=".null" horiz-adv-x="0" 
 />
    <glyph glyph-name="nonmarkingreturn" horiz-adv-x="681" 
 />
    <glyph glyph-name="space" unicode=" " horiz-adv-x="364" 
 />
    <glyph glyph-name="exclam" unicode="!" horiz-adv-x="544" 
d="M272 -31q-49 0 -83 34q-33 34 -33 82t33 82q34 34 83 34t83 -34t34 -82t-34 -82t-83 -34zM272 1389q104 0 105 -125q0 -51 -27 -349q-31 -281 -43 -534h-67q-8 170 -40 489t-32 394q0 125 104 125z" />
    <glyph glyph-name="quotedbl" unicode="&#x22;" horiz-adv-x="774" 
d="M300 1343q42 0 70 -20t28 -49t-15 -68q-49 -98 -107 -192l-102 -170l-55 24l51 199q43 178 61 223q27 53 69 53zM620 1343q42 0 70 -20t27 -54q0 -55 -121 -255l-102 -170l-56 24l51 199q43 178 62 223q27 53 69 53z" />
    <glyph glyph-name="numbersign" unicode="#" horiz-adv-x="1357" 
d="M887 848h-338l-80 -416h336zM145 848v102h304l77 396h121l-78 -396h338l80 396h121l-80 -396h266v-102h-284l-82 -416h282v-104h-303l-80 -410h-122l81 410h-337l-80 -410h-123l80 410h-263v104h283l82 416h-283z" />
    <glyph glyph-name="dollar" unicode="$" horiz-adv-x="1093" 
d="M283 975q0 -80 50 -129t179 -90v440q-111 -14 -170 -78t-59 -143zM850 314q0 86 -54 140t-188 99v-463q114 10 178 74t64 150zM608 -162h-96v162q-182 10 -301 90t-119 180q0 53 34 92t86 39q52 1 84 -33t32 -92t-66 -98q72 -76 250 -90v494q-199 61 -288 134t-89 210
q-1 137 101 238t276 120v143h96v-141q160 -6 269 -82t108 -172q0 -57 -30 -91q-31 -34 -79 -34t-79 30t-31 75q0 70 63 100q-70 78 -221 86v-471q209 -63 296 -141t87 -216t-99 -247t-284 -123v-162z" />
    <glyph glyph-name="percent" unicode="%" horiz-adv-x="1595" 
d="M356 633q104 0 181 126q76 126 75 265q0 37 -10 72q-53 27 -113 80q-70 -2 -130 -64t-93 -150q-33 -87 -33 -166t33 -121t90 -42zM1161 57q104 0 180 127t76 267q0 73 -31 113t-90 38q-104 -2 -181 -127t-77 -256q0 -78 33 -120t90 -42zM1142 -29q-114 0 -183 75t-68 198
q0 176 119 314t276 138q102 0 162 -63t61 -173q0 -110 -40 -217q-41 -108 -127 -190t-200 -82zM335 545q-113 -1 -181 73t-68 199q0 177 119 315t276 138q125 0 185 -92q80 -41 186 -41q197 0 334 161h102l-876 -1351h-136l803 1183l-6 7q-109 -86 -250 -86q-70 0 -121 16
q0 -20 3 -41q0 -102 -40 -210t-128 -190t-202 -81z" />
    <glyph glyph-name="ampersand" unicode="&#x26;" horiz-adv-x="1472" 
d="M459 1014q0 -123 147 -264q184 106 185 262q0 76 -42 126t-119 50t-124 -50t-47 -124zM543 88q152 0 293 141q-115 199 -326 402q-117 -55 -172 -126t-55 -171q-1 -100 71 -173t189 -73zM983 772h434v-100h-157q-102 -236 -250 -414q59 -96 97 -131t80 -35q41 0 71 29
t61 98l74 -33q-78 -219 -252 -219q-78 0 -135 41t-119 142q-172 -182 -391 -183q-182 -1 -286 99t-104 232t82 226t256 166q-133 140 -133 276q1 136 97 224t232 88t216 -75t80 -177t-65 -180t-205 -152q174 -168 286 -356q119 145 193 334h-162v100z" />
    <glyph glyph-name="quotesingle" unicode="'" horiz-adv-x="458" 
d="M300 1343q42 0 70 -20t28 -49t-15 -68q-49 -98 -107 -192l-102 -170l-55 24l51 199q43 178 61 223q27 53 69 53z" />
    <glyph glyph-name="parenleft" unicode="(" horiz-adv-x="739" 
d="M143 580q0 320 150 545q150 224 407 358l50 -76q-438 -272 -438 -826t438 -827l-50 -76q-258 134 -408 358t-149 544z" />
    <glyph glyph-name="parenright" unicode=")" horiz-adv-x="739" 
d="M596 581q0 -321 -150 -545t-407 -358l-49 76q438 272 438 826t-438 827l49 76q257 -133 407 -357t150 -545z" />
    <glyph glyph-name="asterisk" unicode="*" horiz-adv-x="835" 
d="M692 1155q80 0 80 -70t-82 -69q-33 0 -119 24q-87 24 -108 29l-14 -20q109 -163 120 -201q27 -78 -39 -98q-65 -23 -92 55q-18 52 -18 233l-27 9q-12 -14 -64 -82t-87 -99q-63 -47 -107 8q-43 59 23 105q38 25 118 54t101 40v25q-190 70 -219 90q-68 45 -26 104
q55 77 154 -36q32 -37 107 -134l25 8q2 23 4 113t14 121q27 78 94 55q63 -18 39 -98q-9 -31 -60 -105q-51 -75 -60 -94l14 -22q190 55 229 55z" />
    <glyph glyph-name="plus" unicode="+" horiz-adv-x="1073" 
d="M483 137v381h-372v100h372v381h109v-381h371v-100h-371v-381h-109z" />
    <glyph glyph-name="comma" unicode="," horiz-adv-x="438" 
d="M190 -14q-32 0 -59 28t-27 74q0 45 32 79t85 34t88 -42t35 -110q1 -213 -278 -338l-31 64q195 92 217 219l-8 4q-22 -12 -54 -12z" />
    <glyph glyph-name="hyphen" unicode="-" horiz-adv-x="749" 
d="M113 430v133h524v-133h-524z" />
    <glyph glyph-name="period" unicode="." horiz-adv-x="438" 
d="M219 -31q-49 0 -83 34t-34 82t34 82t83 34t83 -34t34 -82t-34 -82t-83 -34z" />
    <glyph glyph-name="slash" unicode="/" horiz-adv-x="856" 
d="M-98 -416l790 1846h125l-790 -1846h-125z" />
    <glyph glyph-name="zero" unicode="0" horiz-adv-x="1142" 
d="M575 68q291 0 291 573q0 270 -75 423q-76 153 -226 153q-291 0 -291 -574q0 -267 77 -421t224 -154zM1053 647q-1 -293 -133 -487t-353 -193q-221 -1 -349 189t-128 483t131 485t352 193q221 -1 351 -189t129 -481z" />
    <glyph glyph-name="one" unicode="1" horiz-adv-x="917" 
d="M115 0v106h297v961q-70 -33 -162 -33t-141 17v86q121 -2 220 41t142 122h109v-1194h286v-106h-751z" />
    <glyph glyph-name="two" unicode="2" horiz-adv-x="1116" 
d="M98 113q0 211 402 458q168 101 236 183t69 200q0 118 -72 191q-72 74 -179 74t-177 -41t-103 -103q96 -27 97 -121q0 -51 -33 -87t-87 -36t-91 41t-37 109q0 129 127 232q128 103 320 103t302 -107q110 -108 111 -253q0 -145 -94 -246t-295 -204q-305 -154 -358 -311
l4 -7q80 45 166 45t198 -54t154 -54q74 0 116 63t78 222l80 -7q-41 -436 -295 -436q-73 0 -145 44t-135 87t-105 43t-61 -8q18 -29 18 -67q1 -38 -25 -69q-26 -30 -75 -30q-49 -1 -80 41t-31 105z" />
    <glyph glyph-name="three" unicode="3" horiz-adv-x="1071" 
d="M518 -33q-194 0 -317 83t-123 200q0 57 37 97t90 40t85 -34t32 -81q0 -72 -66 -116q82 -90 230 -90t226 76q76 76 76 200q0 125 -89 198t-273 72h-59v101h49q348 0 348 272q0 105 -68 169t-184 65q-168 0 -248 -103q84 -33 84 -115q0 -47 -31 -83t-83 -35q-52 0 -88 38
t-35 99q0 117 118 207q119 90 304 90t298 -93q113 -94 113 -224t-90 -215t-254 -117v-4q176 -20 272 -102t97 -210q0 -162 -128 -274q-129 -112 -323 -111z" />
    <glyph glyph-name="four" unicode="4" horiz-adv-x="1134" 
d="M821 104h201v-104h-567v104h202v265h-602v110l607 828h159v-830h269v-108h-269v-265zM659 477v647h-6l-467 -647h473z" />
    <glyph glyph-name="five" unicode="5" horiz-adv-x="1052" 
d="M791 407q1 310 -275 310q-140 0 -264 -121l-84 25l45 665l27 21q190 -76 361 -76t308 74l27 -58q-125 -176 -348 -176q-140 0 -275 55l-26 -399q113 90 289 90q176 -1 283 -111q108 -110 108 -287t-122 -315t-341 -137q-164 0 -288 88t-124 211q0 60 37 104t91 44t84 -33
t30 -77t-24 -78t-60 -48q80 -113 248 -112q137 0 215 93t78 248z" />
    <glyph glyph-name="six" unicode="6" horiz-adv-x="1089" 
d="M564 707q-122 1 -200 -89t-79 -225q0 -135 79 -230q80 -95 202 -95t187 91t65 233t-66 228q-66 87 -188 87zM594 809q192 0 296 -111q104 -112 103 -290q0 -178 -114 -310q-115 -131 -325 -131t-333 168t-123 436q0 332 153 539t404 207q145 0 231 -68t85 -164
q0 -63 -35 -104t-89 -41t-85 32t-31 74t23 74t59 45q-49 53 -158 54q-177 0 -279 -155t-104 -448q130 193 322 193z" />
    <glyph glyph-name="seven" unicode="7" horiz-adv-x="1067" 
d="M225 1122q59 176 187 176q112 0 192 -83q81 -83 160 -82q49 0 92 20q-29 37 -29 74t29 65t73 27q45 0 73 -31t28 -83t-35 -107t-133 -168q-150 -174 -224 -366t-91 -472q-8 -125 -103 -125q-44 0 -70 28t-26 81q-2 162 108 406t289 440q109 119 156 182l-8 8
q-111 -63 -198 -63t-184 45t-140 45q-72 0 -111 -69t-57 -253h-101v471h107l8 -166h8z" />
    <glyph glyph-name="eight" unicode="8" horiz-adv-x="1089" 
d="M550 1219q-120 0 -188 -67t-69 -166q0 -98 77 -162t253 -111q193 86 192 268q0 100 -72 169q-73 69 -193 69zM547 63q131 0 212 75t81 176t-85 163t-298 125l-13 2q-195 -78 -194 -272q0 -115 83 -192t214 -77zM133 952q0 152 117 258t302 106t295 -94q110 -95 109 -229
q0 -219 -235 -311q276 -104 276 -322q0 -166 -131 -280q-132 -114 -330 -113t-319 101t-121 245q0 227 254 328q-217 98 -217 311z" />
    <glyph glyph-name="nine" unicode="9" horiz-adv-x="1089" 
d="M524 561q122 -1 202 91q79 92 79 232t-78 236t-202 96q-125 0 -189 -92t-64 -240t65 -235q65 -88 187 -88zM496 461q-192 1 -296 111t-104 294t115 318q115 133 325 133t332 -167q123 -167 123 -435q0 -338 -147 -543t-402 -205q-160 0 -250 71t-90 173q0 61 35 101
t88 40t85 -30t32 -78q0 -84 -82 -117q66 -61 180 -61q176 0 276 149q99 149 101 436q-129 -190 -321 -190z" />
    <glyph glyph-name="colon" unicode=":" horiz-adv-x="446" 
d="M223 -31q-49 0 -83 34t-34 82t34 82t83 34t83 -34t34 -82t-34 -82t-83 -34zM223 582q-49 0 -83 34t-34 81q0 48 34 82t83 34t83 -34t34 -82q0 -47 -34 -81t-83 -34z" />
    <glyph glyph-name="semicolon" unicode=";" horiz-adv-x="446" 
d="M190 -14q-32 0 -59 28t-27 74q0 45 32 79t85 34t88 -42t35 -110q1 -213 -278 -338l-31 64q195 92 217 219l-8 4q-22 -12 -54 -12zM344 697q0 -47 -35 -81t-83 -34t-82 34t-34 81q0 48 34 82t82 34t83 -34t35 -82z" />
    <glyph glyph-name="less" unicode="&#x3c;" horiz-adv-x="1056" 
d="M895 147l-731 377v90l731 375v-110l-614 -310l614 -307v-115z" />
    <glyph glyph-name="equal" unicode="=" horiz-adv-x="1077" 
d="M117 334v98h841v-98h-841zM117 705v100h841v-100h-841z" />
    <glyph glyph-name="greater" unicode="&#x3e;" horiz-adv-x="1056" 
d="M162 989l731 -377v-90l-731 -375v111l614 309l-614 307v115z" />
    <glyph glyph-name="question" unicode="?" horiz-adv-x="880" 
d="M412 -31q-49 0 -83 34t-34 82t34 82t83 34t83 -34q33 -34 33 -82t-34 -82t-82 -34zM657 1073q0 96 -62 161q-63 64 -153 64t-150 -34t-85 -88q41 -10 67 -43t25 -80q0 -47 -33 -83t-87 -36t-91 40t-37 99q0 125 112 220q111 95 285 95t280 -94q106 -96 106 -235
q0 -100 -52 -181t-181 -191q-130 -110 -150 -294h-91q2 207 129 363l40 48q30 36 38 47t44 60t41 93q5 43 5 69z" />
    <glyph glyph-name="at" unicode="@" horiz-adv-x="1857" 
d="M813 246q123 0 219 158t96 301q0 76 -32 129q-33 53 -111 53q-77 0 -151 -78q-74 -77 -113 -185t-39 -199q0 -179 131 -179zM928 -299q-344 0 -575 212q-230 212 -230 590t254 632t624 254q307 0 521 -195t213 -512q-1 -258 -137 -409t-318 -150q-113 0 -169 57t-40 166
l-10 2q-127 -203 -287 -203q-104 0 -173 75t-69 200q0 126 50 236t131 188q131 125 276 125q72 0 125 -43t66 -125l49 157h133l-156 -501q-38 -103 -26 -159t42 -74t83 -17q133 0 234 131t101 338q0 283 -182 458t-467 175q-334 0 -554 -236q-220 -235 -220 -569t199 -528
t532 -193q295 0 535 174l41 -63q-252 -193 -596 -193z" />
    <glyph glyph-name="A" unicode="A" horiz-adv-x="1376" 
d="M655 1145l-217 -567h424l-200 567h-7zM440 106v-106h-448v106h143l488 1240h143l455 -1240h172v-106h-574v106h211l-133 375h-496l-141 -375h180z" />
    <glyph glyph-name="B" unicode="B" horiz-adv-x="1286" 
d="M465 106h205q192 0 276 68t84 203t-92 206t-276 70h-197v-547zM465 752h203q301 0 301 258q0 111 -66 166t-227 55h-211v-479zM66 0v106h227v1125h-227v104h591q496 0 496 -321q0 -98 -78 -186t-258 -121v-7q195 -14 297 -103t103 -218q0 -379 -558 -379h-593z" />
    <glyph glyph-name="C" unicode="C" horiz-adv-x="1382" 
d="M715 -33q-274 0 -447 197q-172 197 -172 499q0 301 182 503t432 202q251 0 392 -162l39 156h106v-506h-94q-135 399 -432 399q-193 -1 -311 -151t-117 -428q0 -278 122 -436q122 -156 328 -156q174 0 287 120t141 318h115q-29 -264 -181 -410t-390 -145z" />
    <glyph glyph-name="D" unicode="D" horiz-adv-x="1441" 
d="M465 106h170q270 0 394 140t124 426t-129 422t-403 137h-156v-1125zM66 0v106h227v1125h-227v104h552q358 0 544 -174t188 -476q0 -301 -182 -493t-537 -192h-565z" />
    <glyph glyph-name="E" unicode="E" horiz-adv-x="1345" 
d="M66 0v106h227v1125h-227v104h1142v-417h-80q-43 205 -75 259q-33 54 -127 54h-461v-498h203q92 0 118 33t50 172h84v-510h-84q-20 143 -48 178t-120 35h-203v-535h457q108 0 144 60t81 293h80v-459h-1161z" />
    <glyph glyph-name="F" unicode="F" horiz-adv-x="1298" 
d="M66 0v106h227v1125h-227v104h1144v-426h-80q-45 207 -86 265t-137 57h-442v-522h188q90 1 118 35t48 174h84v-523h-84q-16 143 -46 183t-120 38h-188v-510h250v-106h-649z" />
    <glyph glyph-name="G" unicode="G" 
d="M700 -33q-265 0 -435 202q-169 202 -169 496q0 295 177 499t425 204t389 -162l39 156h107v-500h-94q-133 393 -420 393q-199 1 -313 -149t-113 -426q0 -276 117 -436q117 -158 323 -158q166 0 260 125q82 100 82 287v53h-250v106h607v-106h-183v-565h-100l-59 192
q-125 -211 -390 -211z" />
    <glyph glyph-name="H" unicode="H" horiz-adv-x="1581" 
d="M66 0v106h227v1125h-227v104h600v-104h-201v-492h649v492h-199v104h601v-104h-228v-1125h228v-106h-601v106h199v537h-649v-537h201v-106h-600z" />
    <glyph glyph-name="I" unicode="I" horiz-adv-x="786" 
d="M80 0v106h225v1125h-225v104h627v-104h-228v-1125h228v-106h-627z" />
    <glyph glyph-name="J" unicode="J" horiz-adv-x="1085" 
d="M451 -33q-177 0 -283 89t-107 218q0 70 40 115q39 45 97 45t94 -37t36 -94q0 -94 -97 -123q57 -106 211 -106q109 0 168 70t60 196v891h-219v104h596v-104h-205v-860q0 -188 -107 -296t-284 -108z" />
    <glyph glyph-name="K" unicode="K" horiz-adv-x="1468" 
d="M465 106h201v-106h-600v106h227v1125h-227v104h600v-104h-201v-625l610 625h-184v104h514v-104h-172l-453 -449l504 -676h164v-106h-561v106h184l-407 560l-199 -197v-363z" />
    <glyph glyph-name="L" unicode="L" horiz-adv-x="1241" 
d="M66 1335h639v-104h-240v-1125h403q88 0 123 68t94 328h80v-502h-1099v106h227v1125h-227v104z" />
    <glyph glyph-name="M" unicode="M" horiz-adv-x="1902" 
d="M70 0v106h213v1125h-213v104h499l379 -1042h6l387 1042h490v-104h-221v-1125h221v-106h-576v106h181v1117h-13l-469 -1225h-73l-467 1225h-13v-1117h193v-106h-524z" />
    <glyph glyph-name="N" unicode="N" horiz-adv-x="1570" 
d="M401 1118v-1012h205v-106h-536v106h213v1125h-213v104h401l717 -1036h10v932h-207v104h531v-104h-203v-1264h-113l-794 1151h-11z" />
    <glyph glyph-name="O" unicode="O" 
d="M293 668q-1 -272 115 -432t320 -160t321 158t117 432t-117 433t-321 159t-320 -160q-116 -158 -115 -430zM732 1366q264 0 446 -196t182 -498t-184 -504q-184 -201 -450 -201q-265 0 -447 198q-183 198 -183 499q0 302 186 502t450 200z" />
    <glyph glyph-name="P" unicode="P" horiz-adv-x="1247" 
d="M465 653h186q338 0 338 301q0 276 -336 277h-188v-578zM66 0v106h227v1125h-227v104h581q285 0 410 -106q125 -107 125 -277t-131 -284t-396 -115h-190v-447h250v-106h-649z" />
    <glyph glyph-name="Q" unicode="Q" 
d="M743 76q100 0 185 47q-58 123 -116 187t-132 65q-74 0 -115 -44t-41 -110q0 -145 219 -145zM690 481q114 0 192 -67q77 -68 152 -197q131 163 131 443t-116 439q-117 159 -321 159t-320 -160q-116 -158 -115 -444q0 -286 141 -445q0 115 71 193t185 79zM729 -33
q-268 0 -450 198q-183 198 -183 499q0 302 186 502t450 200t446 -196t182 -502q0 -178 -70 -326t-190 -244q59 -100 100 -137t88 -37q104 0 135 197h97q-25 -338 -254 -338q-98 0 -166 58t-127 179q-117 -53 -244 -53z" />
    <glyph glyph-name="R" unicode="R" horiz-adv-x="1386" 
d="M465 698h242q303 0 303 289q0 244 -277 244h-268v-533zM465 600v-494h225v-106h-624v106h227v1125h-227v104h653q247 0 367 -96t120 -250q0 -117 -78 -207t-243 -120v-13q137 -33 196 -101t70 -190l12 -168q8 -94 72 -94q51 0 96 97l70 -33q-70 -182 -215 -183
q-205 0 -211 240l-4 162q-3 121 -55 171t-197 50h-254z" />
    <glyph glyph-name="S" unicode="S" horiz-adv-x="1171" 
d="M113 -27v465h92q95 -200 201 -286t240 -86t207 64t73 181q0 149 -146 212q-76 35 -188 64q-111 29 -160 45q-48 16 -112 50q-64 33 -101 70t-62 97q-26 60 -26 136q0 161 113 271t297 110q100 0 191 -40t151 -107l41 141h100v-440h-92q-141 350 -402 350q-104 0 -172 -62
t-68 -167q0 -104 67 -170q57 -57 255 -106q105 -27 196 -55t135 -62t78 -70q64 -69 64 -203q1 -176 -121 -292t-309 -116q-242 0 -397 166l-45 -160h-100z" />
    <glyph glyph-name="T" unicode="T" horiz-adv-x="1372" 
d="M365 0v106h235v1133h-182q-113 0 -152 -62t-94 -305h-78v463h1184v-463h-78q-55 242 -94 304t-154 63h-180v-1133h236v-106h-643z" />
    <glyph glyph-name="U" unicode="U" horiz-adv-x="1503" 
d="M750 -33q-250 0 -379 119t-129 317v828h-197v104h576v-104h-207v-782q0 -189 96 -275t274 -86t274 95q95 95 95 315v733h-207v104h514v-104h-188v-809q0 -199 -136 -327t-386 -128z" />
    <glyph glyph-name="V" unicode="V" horiz-adv-x="1388" 
d="M-8 1231v104h573v-104h-211l369 -1024h12l393 1024h-180v104h449v-104h-144l-491 -1239h-133l-465 1239h-172z" />
    <glyph glyph-name="W" unicode="W" horiz-adv-x="2015" 
d="M1335 1231h-215l293 -1008h10l326 1008h-180v104h446v-104h-143l-418 -1239h-145l-283 950l-326 -950h-143l-389 1239h-174v104h567v-104h-207l308 -1008h10l299 891l-33 117h-172v104h569v-104z" />
    <glyph glyph-name="X" unicode="X" horiz-adv-x="1376" 
d="M831 1231v104h500v-104h-166l-383 -533l398 -592h178v-106h-565v106h184l-313 482l-340 -482h194v-106h-498v106h166l408 564l-377 561h-180v104h567v-104h-182l289 -451l313 451h-193z" />
    <glyph glyph-name="Y" unicode="Y" horiz-adv-x="1304" 
d="M850 1231v104h453v-104h-158l-408 -668v-457h207v-106h-586v106h205v455l-383 670h-168v104h557v-104h-184l307 -559l330 559h-172z" />
    <glyph glyph-name="Z" unicode="Z" horiz-adv-x="1247" 
d="M80 0v76l854 1155h-512q-66 -1 -96 -21t-58 -91q-27 -71 -65 -240h-82v456h1036v-73l-848 -1156h553q63 0 95 25t58 97t64 245h80v-473h-1079z" />
    <glyph glyph-name="bracketleft" unicode="[" horiz-adv-x="692" 
d="M182 -311v1786h510v-101h-350v-1585h350v-100h-510z" />
    <glyph glyph-name="backslash" unicode="\" horiz-adv-x="856" 
d="M829 -416l-790 1846h125l790 -1846h-125z" />
    <glyph glyph-name="bracketright" unicode="]" horiz-adv-x="692" 
d="M510 1475v-1786h-510v100h350v1585h-350v101h510z" />
    <glyph glyph-name="asciicircum" unicode="^" horiz-adv-x="681" 
d="M61 1049l242 403h82l233 -403h-81l-197 237l-199 -237h-80z" />
    <glyph glyph-name="underscore" unicode="_" horiz-adv-x="901" 
d="M-4 0v111h909v-111h-909z" />
    <glyph glyph-name="grave" unicode="`" horiz-adv-x="487" 
d="M49 1400q0 38 22 60q21 22 55 21q34 0 62 -33t58 -111l102 -258h-78l-133 170q-88 113 -88 151z" />
    <glyph glyph-name="a" unicode="a" horiz-adv-x="989" 
d="M428 94q84 0 155 60t70 137v182q-23 -9 -141 -27t-181 -60q-62 -42 -63 -132q0 -160 160 -160zM342 -14q-110 0 -178 66q-70 66 -70 168q0 104 58 162t134 85t198 46t146 29t23 33v91q0 98 -47 141q-46 43 -150 43t-169 -53q55 -29 55 -85t-29 -84q-29 -30 -77 -30
t-79 31q-30 31 -30 80q-1 99 107 163t255 64q324 0 324 -277v-481q0 -45 14 -63t47 -19q47 0 82 82l62 -35q-37 -81 -80 -117t-111 -36q-69 0 -111 42t-44 128h-6q-46 -78 -130 -126t-194 -48z" />
    <glyph glyph-name="b" unicode="b" horiz-adv-x="1077" 
d="M166 -10v1306h-154v111h312v-684q53 103 136 159t177 56q137 0 225 -88q129 -127 129 -379t-137 -389q-98 -98 -238 -98q-100 0 -181 56t-126 153l-59 -203h-84zM582 90q108 0 172 99q63 99 63 275t-61 271q-61 96 -171 96q-110 1 -188 -111t-78 -278t78 -259
q77 -93 185 -93z" />
    <glyph glyph-name="c" unicode="c" horiz-adv-x="966" 
d="M508 -18q-190 0 -309 130t-119 340t129 348t336 138q143 0 245 -83t103 -177q0 -61 -33 -101t-85 -40q-52 -1 -82 31q-29 32 -29 74t21 73q22 31 56 43q-63 94 -196 94t-213 -106t-80 -282t79 -276t216 -100q193 0 270 211h88q-39 -153 -143 -235t-254 -82z" />
    <glyph glyph-name="d" unicode="d" horiz-adv-x="1095" 
d="M504 831q-112 0 -178 -99t-66 -272q0 -174 68 -272t174 -98t180 108q76 108 76 272t-71 263q-71 98 -183 98zM446 -16q-137 0 -227 90q-133 131 -133 378t141 388q98 98 238 98q195 0 287 -178v536h-156v111h313v-1301h148v-106h-301v201q-107 -217 -310 -217z" />
    <glyph glyph-name="e" unicode="e" horiz-adv-x="974" 
d="M508 850q-104 0 -172 -80t-82 -229h481q-22 309 -227 309zM547 90q190 0 262 180h86q-41 -141 -140 -215t-243 -73q-200 0 -316 130t-116 339t126 348t313 139t285 -143t95 -342h-647q2 -175 82 -269t213 -94z" />
    <glyph glyph-name="f" unicode="f" horiz-adv-x="684" 
d="M72 0v106h151v709h-186v100h186v60q0 227 109 336t268 108q114 0 186 -49t72 -129q0 -49 -30 -83t-76 -34t-76 29q-29 29 -29 75t35 81q-33 27 -98 26q-102 0 -152 -79t-49 -273v-68h272v-100h-272v-709h215v-106h-526z" />
    <glyph glyph-name="g" unicode="g" horiz-adv-x="960" 
d="M455 -244q141 0 227 48t86 126q0 115 -145 115h-230q-193 0 -192 -145q0 -144 254 -144zM472 416q91 0 139 57t48 159t-53 164t-145 62q-188 0 -189 -223q0 -109 54 -164t146 -55zM233 260q0 -82 162 -82h244q270 0 270 -207q0 -129 -125 -215q-124 -86 -322 -86t-306 60
t-107 153q0 66 54 118t143 67v6q-152 45 -152 149q0 51 49 96t125 62q-162 82 -162 252q0 139 102 221t259 82q78 0 151 -29q106 182 248 183q53 0 86 -30t33 -73t-26 -71q-27 -28 -65 -28t-60 24q-22 22 -21 46q0 24 2 33q-29 1 -67 -31t-64 -83q143 -87 143 -233t-99 -226
t-261 -80l-125 6q-47 0 -78 -26t-31 -58z" />
    <glyph glyph-name="h" unicode="h" horiz-adv-x="1138" 
d="M795 573q0 234 -170 234q-99 0 -183 -93t-84 -206v-402h140v-106h-453v106h154v1190h-154v111h313v-719q141 248 344 248q119 0 185 -76t65 -215v-539h154v-106h-453v106h142v467z" />
    <glyph glyph-name="i" unicode="i" horiz-adv-x="614" 
d="M74 0v106h174v709h-174v107h332v-816h174v-106h-506zM314 1130q-50 0 -83 31t-33 83t33 86t83 34t82 -33t32 -84t-32 -84t-82 -33z" />
    <glyph glyph-name="j" unicode="j" horiz-adv-x="575" 
d="M111 -334q-90 0 -153 46q-62 46 -62 104t31 94q32 35 79 35t76 -29t29 -73t-35 -79q20 -14 53 -14q123 0 123 205v860h-172v107h332v-885q0 -179 -78 -275t-223 -96zM318 1130q-50 0 -82 31t-31 83q0 52 32 86q31 34 81 34t82 -33t32 -84t-32 -84t-82 -33z" />
    <glyph glyph-name="k" unicode="k" horiz-adv-x="1069" 
d="M1049 106v-106h-420v104h123l-244 355l-150 -152v-201h127v-106h-440v106h154v1190h-154v111h313v-985l373 395h-153v105h426v-107h-140l-252 -256l320 -453h117z" />
    <glyph glyph-name="l" unicode="l" horiz-adv-x="581" 
d="M37 0v106h174v1190h-174v111h334v-1301h172v-106h-506z" />
    <glyph glyph-name="m" unicode="m" horiz-adv-x="1718" 
d="M1294 936q115 0 177 -75t63 -218v-537h154v-106h-443v106h131v467q0 141 -51 195q-37 37 -122 37t-165 -93t-80 -204v-402h132v-106h-420v106h129v467q0 143 -49 195q-39 37 -124 37t-164 -93t-79 -204v-402h129v-106h-442v106h153v709h-153v107h309v-238
q145 252 338 252q219 0 237 -244q147 244 340 244z" />
    <glyph glyph-name="n" unicode="n" horiz-adv-x="1163" 
d="M70 0v106h153v709h-153v107h309v-238q145 252 348 252q119 0 185 -76t65 -215v-539h153v-106h-452v106h141v467q0 137 -47 185t-135 49q-88 0 -171 -93t-83 -206v-402h139v-106h-452z" />
    <glyph glyph-name="o" unicode="o" horiz-adv-x="1048" 
d="M518 848q-122 0 -194 -98t-72 -290t78 -290t200 -98q121 0 193 98t72 291t-78 290t-199 97zM969 466q1 -212 -127 -348t-322 -136t-316 130q-124 130 -124 342t127 348t321 136t317 -130q124 -130 124 -342z" />
    <glyph glyph-name="p" unicode="p" horiz-adv-x="1103" 
d="M45 -307v106h154v1016h-154v107h307v-215q102 231 316 231q133 0 225 -92q125 -125 125 -368t-137 -380q-98 -98 -234 -98q-195 0 -291 188v-389h201v-106h-512zM612 831q-102 1 -181 -109t-79 -266t70 -251q70 -96 181 -96q113 0 177 96t64 275t-65 265t-167 86z" />
    <glyph glyph-name="q" unicode="q" horiz-adv-x="1069" 
d="M444 0q-137 0 -233 96q-125 125 -125 367q0 109 37 209t100 164q102 102 240 102q100 0 179 -56t124 -153l59 201h84v-1131h154v-106h-510v106h199v418q-100 -217 -308 -217zM754 475q0 158 -72 257t-181 99t-175 -96t-66 -275t66 -265t171 -86t181 104t76 262z" />
    <glyph glyph-name="r" unicode="r" horiz-adv-x="829" 
d="M70 0v106h153v709h-153v107h309v-217q43 113 119 171t152 58t116 -41q41 -41 41 -95t-32 -89t-79 -35t-79 30q-31 30 -31 64q0 35 8 51q-70 5 -129 -63t-82 -152v-498h180v-106h-493z" />
    <glyph glyph-name="s" unicode="s" horiz-adv-x="886" 
d="M92 -18v348h94q37 -123 117 -194q81 -70 177 -70t144 38t48 106t-54 106t-210 81t-228 107t-72 170q0 108 88 186q87 78 222 78q168 0 239 -111l23 111h90v-315h-90q-50 121 -108 176t-141 55t-131 -36t-48 -98t56 -102t208 -82t224 -102t71 -171q0 -113 -89 -197
t-230 -84q-184 0 -287 129l-23 -129h-90z" />
    <glyph glyph-name="t" unicode="t" horiz-adv-x="716" 
d="M360 915h302v-100h-302v-579q0 -143 115 -144q96 0 154 164l73 -29q-70 -246 -268 -245q-115 0 -174 66t-59 183v584h-187v100h187v246l159 21v-267z" />
    <glyph glyph-name="u" unicode="u" horiz-adv-x="1128" 
d="M434 -16q-118 0 -182 76t-64 216v539h-151v107h309v-574q0 -141 53 -192q35 -41 124 -41t171 93t82 204v403h-158v107h318v-816h151v-106h-307v236q-147 -252 -346 -252z" />
    <glyph glyph-name="v" unicode="v" horiz-adv-x="1011" 
d="M0 815v107h461v-107h-160l231 -651h7l247 651h-143v107h369v-107h-111l-332 -827h-127l-315 827h-127z" />
    <glyph glyph-name="w" unicode="w" horiz-adv-x="1540" 
d="M1030 815h-166l221 -651h7l223 651h-144v107h365v-107h-111l-299 -827h-131l-209 594l-241 -594h-129l-285 827h-127v107h449v-107h-156l211 -651h4l225 561l-30 90h-127v107h450v-107z" />
    <glyph glyph-name="x" unicode="x" horiz-adv-x="997" 
d="M459 819h-142l205 -280l226 280h-132v103h359v-107h-105l-286 -340l280 -369h111v-106h-426v102h139l-207 281l-229 -281h127v-102h-354v106h108l287 338l-285 371h-110v107h434v-103z" />
    <glyph glyph-name="y" unicode="y" horiz-adv-x="1001" 
d="M142 -68q48 0 77 -30t29 -72q0 -43 -19 -72q63 4 115 56t109 188l-326 813h-127v107h459v-107h-160l238 -633l245 633h-141v107h369v-107h-113l-317 -778q-84 -207 -173 -289t-185 -82t-145 40q-48 40 -48 98t32 93q33 35 81 35z" />
    <glyph glyph-name="z" unicode="z" horiz-adv-x="935" 
d="M72 0v88l600 743h-326q-78 1 -106 -39t-62 -192h-76v322h766v-88l-604 -744h375q75 0 101 44t55 210h77v-344h-800z" />
    <glyph glyph-name="braceleft" unicode="{" horiz-adv-x="794" 
d="M344 49q0 45 15 145t16 152q0 86 -70 136t-211 50h-61v99h61q141 0 211 51t70 137q1 49 -15 149t-16 146q0 166 108 260t322 103v-95q-152 -12 -210 -73t-58 -179l16 -260q0 -248 -278 -284v-6q279 -37 278 -287l-16 -260q0 -117 58 -178t210 -74v-94q-214 8 -322 102
t-108 260z" />
    <glyph glyph-name="bar" unicode="|" horiz-adv-x="571" 
d="M229 -416v1846h113v-1846h-113z" />
    <glyph glyph-name="braceright" unicode="}" horiz-adv-x="794" 
d="M451 1114q1 -45 -15 -145t-16 -152q0 -86 70 -136t210 -50h62v-99h-62q-141 0 -211 -51t-69 -137q0 -49 15 -149t16 -146q0 -166 -108 -260t-323 -102v94q152 11 210 73t59 179l-17 260q0 248 279 285v6q-279 37 -279 286l17 260q-1 116 -59 178t-210 74v95
q215 -9 323 -103t108 -260z" />
    <glyph glyph-name="asciitilde" unicode="~" horiz-adv-x="759" 
d="M254 764q68 0 156 -58q86 -58 114 -59q63 0 86 131h74q-18 -137 -60 -193q-42 -57 -110 -57t-156 58q-86 58 -114 59q-63 0 -86 -131h-74q18 138 60 194t110 56z" />
    <glyph glyph-name="uni00A0" unicode="&#xa0;" horiz-adv-x="364" 
 />
    <glyph glyph-name="exclamdown" unicode="&#xa1;" horiz-adv-x="544" 
d="M299 1389q49 0 83 -34t34 -82t-34 -82t-83 -34t-83 34t-34 82t34 82t83 34zM299 -31q-104 0 -104 125q0 51 26 348q31 281 43 535h68q8 -169 40 -489t31 -394q0 -125 -104 -125z" />
    <glyph glyph-name="cent" unicode="&#xa2;" horiz-adv-x="1052" 
d="M293 476q0 -152 53 -246t150 -126l67 746q-123 -16 -197 -120q-74 -102 -73 -254zM121 458q0 194 123 329q123 136 325 149l17 182l94 -6l-16 -178q137 -14 229 -92t92 -166q0 -59 -33 -95t-85 -36t-83 32q-30 31 -30 73t21 73q22 31 56 43q-47 70 -176 84l-69 -762h18
q98 0 174 54t115 157h86q-37 -149 -145 -231t-254 -86l-17 -191l-94 6l14 193q-164 26 -263 150t-99 318z" />
    <glyph glyph-name="sterling" unicode="&#xa3;" horiz-adv-x="1202" 
d="M240 59q86 0 143 150q-43 14 -92 14q-49 1 -83 -29t-34 -65t20 -53t46 -17zM940 584h-356q6 -61 6 -64q0 -111 -62 -227q78 -25 198 -93t177 -67q57 0 94 52t58 177l82 -6q-11 -205 -73 -296t-190 -91q-66 0 -132 34t-146 91q-78 57 -123 80q-86 -207 -248 -207
q-69 0 -113 40t-44 115t76 137q77 62 223 63q39 0 71 -7q18 57 18 120t-40 149h-299v104h243q-47 98 -47 197q0 197 123 315t292 117q169 0 263 -79t94 -183q-1 -66 -37 -108t-90 -42t-89 33q-34 33 -33 86q0 84 75 113q-49 82 -170 82t-193 -67t-73 -181q1 -67 17 -116
t38 -101t25 -66h385v-104z" />
    <glyph glyph-name="yen" unicode="&#xa5;" horiz-adv-x="1339" 
d="M203 633h329l-313 551h-160v102h535v-102h-182l286 -531l308 531h-168v102h444v-102h-149l-334 -551h327v-96h-378v-148h378v-96h-378v-187h241v-106h-647v106h244v187h-383v96h383v148h-383v96z" />
    <glyph glyph-name="section" unicode="&#xa7;" horiz-adv-x="1056" 
d="M780 530q0 64 -49 110t-178 89l-59 21q-184 -57 -185 -193q0 -68 52 -112t188 -87l53 -18q88 27 133 77q45 49 45 113zM899 61q1 -125 -95 -214t-267 -89t-283 69t-113 171q0 53 32 91t82 38t81 -32t31 -75q0 -66 -62 -100q77 -70 209 -70t186 46t56 112q0 66 -54 115
t-226 107q-173 58 -246 124q-72 64 -72 159t62 163t167 106v11q-197 90 -197 233q0 123 104 208t254 85t246 -68t97 -157q0 -53 -29 -86t-76 -33q-46 0 -76 30q-30 29 -30 79t53 81q-68 61 -175 61q-108 0 -166 -45q-58 -47 -58 -109t55 -107t226 -105t242 -124
q71 -65 71 -159q0 -95 -58 -165t-157 -109v-10q186 -82 186 -232z" />
    <glyph glyph-name="dieresis" unicode="&#xa8;" horiz-adv-x="659" 
d="M152 1126q-45 0 -75 32t-30 79t30 80t75 33q46 0 76 -33t30 -80t-30 -79t-76 -32zM508 1126q-45 0 -76 32t-31 79t31 80t76 33t75 -33q29 -33 29 -80t-30 -79t-74 -32z" />
    <glyph glyph-name="copyright" unicode="&#xa9;" horiz-adv-x="1611" 
d="M798 293q-144 -1 -241 109q-98 110 -98 278t103 278q104 110 244 111q140 0 216 -90l22 88h72v-279h-63q-74 209 -234 209q-109 1 -171 -79t-62 -232t63 -234t169 -83q204 0 237 233h73q-16 -147 -101 -228t-229 -81zM150 674q0 -282 190 -476t468 -194q276 0 465 195
t189 477t-190 474q-190 194 -466 194t-466 -194t-190 -476zM1542 675q0 -313 -213 -527t-523 -214t-523 214t-213 526t213 526q213 213 523 213t523 -213t213 -525z" />
    <glyph glyph-name="ordfeminine" unicode="&#xaa;" horiz-adv-x="825" 
d="M358 721q59 0 110 43q50 43 50 98v121q-16 -6 -99 -19t-128 -41t-45 -92q-1 -110 112 -110zM309 635q-92 0 -145 48t-53 126t62 131t253 84q61 10 77 17q15 7 15 26v59q0 70 -33 99t-105 29t-122 -33q39 -23 39 -63t-22 -62q-23 -22 -59 -23q-36 0 -58 23t-23 57
q0 72 81 121t190 49q238 0 237 -203v-342q0 -59 45 -59q33 0 60 61l51 -26q-53 -115 -148 -115q-106 0 -119 115h-6q-78 -119 -217 -119z" />
    <glyph glyph-name="guillemotleft" unicode="&#xab;" horiz-adv-x="1007" 
d="M651 461l256 -355l-61 -40l-305 311q-55 55 -56 82q0 27 56 82l305 311l61 -41zM88 459q0 27 55 82l308 311l59 -41l-256 -350l256 -355l-59 -40l-308 311q-55 55 -55 82z" />
    <glyph glyph-name="registered" unicode="&#xae;" horiz-adv-x="1058" 
d="M467 985h74q98 0 98 88q0 80 -92 80h-80v-168zM467 940v-158h74v-47h-230v47h74v371h-74v49h238q96 0 139 -36t43 -82t-33 -78t-100 -39v-6q100 -16 111 -101l4 -47q2 -35 21 -35t32 37l33 -12q-25 -78 -86 -78q-80 0 -86 96l-2 45q-2 74 -82 74h-76zM530 565
q174 0 280 110q105 110 105 287q0 178 -105 286q-104 108 -280 108t-281 -109t-105 -285t106 -287q106 -110 280 -110zM529 508q-193 0 -323 130t-130 325t130 323t324 127q194 0 323 -128q130 -129 130 -323t-130 -324t-324 -130z" />
    <glyph glyph-name="macron" unicode="&#xaf;" horiz-adv-x="657" 
d="M72 1118v127h514v-127h-514z" />
    <glyph glyph-name="degree" unicode="&#xb0;" horiz-adv-x="800" 
d="M207 1040q-1 -109 55 -170t143 -61t139 59t52 170t-56 172q-56 62 -142 62t-138 -62q-53 -62 -53 -170zM78 1036q0 138 91 234t235 96t232 -92t87 -230t-91 -234q-90 -95 -235 -95t-232 92t-87 229z" />
    <glyph glyph-name="plusminus" unicode="&#xb1;" horiz-adv-x="1103" 
d="M932 59h-760v95h760v-95zM504 326v338h-328v90h328v333h100v-333h326v-90h-326v-338h-100z" />
    <glyph glyph-name="acute" unicode="&#xb4;" horiz-adv-x="485" 
d="M334 1481q34 0 56 -22q22 -21 22 -59t-88 -151l-134 -170h-77l102 258q29 78 56 111q28 33 63 33z" />
    <glyph glyph-name="paragraph" unicode="&#xb6;" horiz-adv-x="1312" 
d="M664 -213v561q-250 2 -397 125q-146 123 -146 324t138 323t425 121h555v-104h-188v-1350h-115v1350h-160v-1350h-112z" />
    <glyph glyph-name="periodcentered" unicode="&#xb7;" horiz-adv-x="438" 
d="M219 541q-49 -1 -83 33t-34 82t34 82t83 34t83 -34t34 -82t-34 -82t-83 -33z" />
    <glyph glyph-name="cedilla" unicode="&#xb8;" horiz-adv-x="577" 
d="M222 -485q-106 0 -197 61l38 66q77 -48 141 -48t96 24t32 67t-41 67t-93 25q-52 0 -87 -10l-29 38l197 205h100l-148 -147l2 -6q99 -2 157 -47t58 -121t-60 -125t-166 -49z" />
    <glyph glyph-name="ordmasculine" unicode="&#xba;" horiz-adv-x="851" 
d="M431 707q87 1 140 71t53 202t-58 201t-145 69t-140 -70t-53 -203t58 -201t145 -69zM428 1323q142 0 236 -94t94 -247t-96 -251t-238 -98q-143 0 -237 93q-93 93 -93 247t96 252t238 98z" />
    <glyph glyph-name="guillemotright" unicode="&#xbb;" horiz-adv-x="1007" 
d="M522 459q0 -27 -55 -82l-305 -311l-62 40l256 351l-256 354l62 41l305 -311q55 -55 55 -82zM754 457l-256 354l59 41l307 -311q56 -55 56 -82t-56 -82l-307 -311l-59 40z" />
    <glyph glyph-name="questiondown" unicode="&#xbf;" horiz-adv-x="864" 
d="M459 1389q49 0 83 -34t34 -82t-34 -82t-83 -34t-83 34t-34 82t34 82t83 34zM213 285q0 -96 62 -161q63 -65 153 -65t151 35q60 35 85 88q-41 10 -67 43t-26 80t33 83t87 36t91 -40t37 -99q1 -125 -111 -220t-286 -95t-280 94q-106 96 -105 235q0 100 51 181t181 191
t151 294h90q-2 -207 -129 -363l-40 -48q-30 -36 -38 -47t-44 -60t-41 -92q-5 -44 -5 -70z" />
    <glyph glyph-name="Agrave" unicode="&#xc0;" horiz-adv-x="1376" 
d="M465 1830q-1 38 21 60t56 21q34 0 62 -33t58 -111l102 -258h-78l-133 170q-88 113 -88 151zM655 1145l-217 -567h424l-200 567h-7zM440 106v-106h-448v106h143l488 1240h143l455 -1240h172v-106h-574v106h211l-133 375h-496l-141 -375h180z" />
    <glyph glyph-name="Aacute" unicode="&#xc1;" horiz-adv-x="1376" 
d="M866 1911q34 0 57 -22q21 -21 21 -59t-88 -151l-133 -170h-78l103 258q29 78 56 111q28 33 62 33zM655 1145l-217 -567h424l-200 567h-7zM440 106v-106h-448v106h143l488 1240h143l455 -1240h172v-106h-574v106h211l-133 375h-496l-141 -375h180z" />
    <glyph glyph-name="Acircumflex" unicode="&#xc2;" horiz-adv-x="1376" 
d="M436 1511l221 371h76l223 -371h-79l-181 209l-180 -209h-80zM655 1145l-217 -567h424l-200 567h-7zM440 106v-106h-448v106h143l488 1240h143l455 -1240h172v-106h-574v106h211l-133 375h-496l-141 -375h180z" />
    <glyph glyph-name="Atilde" unicode="&#xc3;" horiz-adv-x="1376" 
d="M838 1655q61 0 84 129h75q-18 -136 -60 -194q-43 -58 -111 -58t-154 59t-115 60q-61 0 -84 -129h-76q19 137 61 193q42 57 110 57t155 -58q86 -58 115 -59zM655 1145l-217 -567h424l-200 567h-7zM440 106v-106h-448v106h143l488 1240h143l455 -1240h172v-106h-574v106
h211l-133 375h-496l-141 -375h180z" />
    <glyph glyph-name="Adieresis" unicode="&#xc4;" horiz-adv-x="1376" 
d="M874 1556q-46 0 -76 32t-30 79t31 80t75 33t75 -33q30 -33 30 -80t-30 -79t-75 -32zM518 1556q-45 0 -75 32t-29 79q0 47 29 80q30 33 75 33t76 -33t31 -80t-31 -79t-76 -32zM655 1145l-217 -567h424l-200 567h-7zM440 106v-106h-448v106h143l488 1240h143l455 -1240h172
v-106h-574v106h211l-133 375h-496l-141 -375h180z" />
    <glyph glyph-name="Aring" unicode="&#xc5;" horiz-adv-x="1376" 
d="M440 106v-106h-448v106h143l481 1229q-68 19 -104 73t-35 131t57 137t156 60t156 -60t57 -137q0 -77 -35 -130t-100 -72l453 -1231h172v-106h-574v106h211l-133 375h-494l-143 -375h180zM862 578l-200 567h-7l-217 -567h424zM690 1391q55 0 88 40t33 101t-33 100t-88 39
t-88 -39t-33 -100t33 -101t88 -40z" />
    <glyph glyph-name="AE" unicode="&#xc6;" horiz-adv-x="1961" 
d="M434 106v-106h-483v106h164l651 1125h-211v104h1270v-417h-82q-43 205 -75 259t-126 54h-461v-498h203q90 0 117 33t49 172h84v-510h-84q-20 143 -47 178t-119 35h-203v-535h457q110 0 144 60t79 293h82v-459h-1161v106h225v396h-436l-225 -396h188zM907 598v633h-14
l-365 -633h379z" />
    <glyph glyph-name="Ccedilla" unicode="&#xc7;" horiz-adv-x="1382" 
d="M915 -311q-1 -76 -61 -125t-166 -49t-196 61l38 66q78 -48 142 -48t95 24q32 24 32 67t-41 67q-40 24 -92 25q-52 0 -88 -10l-29 38l156 162q-272 4 -441 201q-168 197 -168 497q0 299 182 501t432 202q251 0 392 -162l39 156h106v-506h-94q-135 399 -432 399
q-193 -1 -311 -151t-117 -428q0 -278 122 -436q122 -156 328 -156q174 0 287 120t141 318h115q-28 -236 -152 -378t-325 -171l-111 -110l2 -6q98 -2 156 -47t59 -121z" />
    <glyph glyph-name="Egrave" unicode="&#xc8;" horiz-adv-x="1345" 
d="M500 1830q0 38 22 60t54 21q34 0 62 -33t58 -111l103 -258h-78l-133 170q-88 113 -88 151zM66 0v106h227v1125h-227v104h1142v-417h-80q-43 205 -75 259q-33 54 -127 54h-461v-498h203q92 0 118 33t50 172h84v-510h-84q-20 143 -48 178t-120 35h-203v-535h457
q108 0 144 60t81 293h80v-459h-1161z" />
    <glyph glyph-name="Eacute" unicode="&#xc9;" horiz-adv-x="1345" 
d="M66 0v106h227v1125h-227v104h1142v-417h-80q-43 205 -75 259q-33 54 -127 54h-461v-498h203q92 0 118 33t50 172h84v-510h-84q-20 143 -48 178t-120 35h-203v-535h457q108 0 144 60t81 293h80v-459h-1161zM900 1911q34 0 56 -22q22 -21 21 -59q0 -38 -88 -151l-133 -170
h-78l102 258q29 78 57 111q29 33 63 33z" />
    <glyph glyph-name="Ecircumflex" unicode="&#xca;" horiz-adv-x="1345" 
d="M66 0v106h227v1125h-227v104h1142v-417h-80q-43 205 -75 259q-33 54 -127 54h-461v-498h203q92 0 118 33t50 172h84v-510h-84q-20 143 -48 178t-120 35h-203v-535h457q108 0 144 60t81 293h80v-459h-1161zM469 1511l221 371h76l223 -371h-80l-180 209l-180 -209h-80z" />
    <glyph glyph-name="Edieresis" unicode="&#xcb;" horiz-adv-x="1345" 
d="M66 0v106h227v1125h-227v104h1142v-417h-80q-43 205 -75 259q-33 54 -127 54h-461v-498h203q92 0 118 33t50 172h84v-510h-84q-20 143 -48 178t-120 35h-203v-535h457q108 0 144 60t81 293h80v-459h-1161zM551 1556q-45 0 -75 32t-30 79t30 80t75 33t76 -33t31 -80
t-32 -79q-30 -32 -75 -32zM907 1556q-45 0 -76 32t-30 79q0 47 30 80q31 33 76 33t75 -33t30 -80t-30 -79t-75 -32z" />
    <glyph glyph-name="Igrave" unicode="&#xcc;" horiz-adv-x="786" 
d="M160 1830q0 38 22 60t54 21q34 0 62 -33t58 -111l103 -258h-78l-133 170q-88 113 -88 151zM80 0v106h225v1125h-225v104h627v-104h-228v-1125h228v-106h-627z" />
    <glyph glyph-name="Iacute" unicode="&#xcd;" horiz-adv-x="786" 
d="M562 1911q34 0 56 -22q22 -21 21 -59q0 -38 -88 -151l-133 -170h-78l102 258q29 78 57 111q29 33 63 33zM80 0v106h225v1125h-225v104h627v-104h-228v-1125h228v-106h-627z" />
    <glyph glyph-name="Icircumflex" unicode="&#xce;" horiz-adv-x="786" 
d="M131 1511l221 371h76l223 -371h-80l-180 209l-180 -209h-80zM80 0v106h225v1125h-225v104h627v-104h-228v-1125h228v-106h-627z" />
    <glyph glyph-name="Idieresis" unicode="&#xcf;" horiz-adv-x="786" 
d="M213 1556q-45 0 -75 32t-29 79q0 47 29 80q30 33 75 33t76 -33t31 -80t-32 -79q-30 -32 -75 -32zM569 1556q-45 0 -75 32t-31 79q0 47 31 80q32 33 76 33t74 -33t30 -80t-30 -79t-75 -32zM80 0v106h225v1125h-225v104h627v-104h-228v-1125h228v-106h-627z" />
    <glyph glyph-name="Eth" unicode="&#xd0;" horiz-adv-x="1441" 
d="M465 106h170q270 0 394 140t124 426t-129 422t-403 137h-156v-479h293v-105h-293v-541zM66 0v106h227v541h-227v105h227v479h-227v104h552q358 0 544 -174t188 -476q0 -301 -182 -493t-537 -192h-565z" />
    <glyph glyph-name="Ntilde" unicode="&#xd1;" horiz-adv-x="1570" 
d="M932 1655q61 0 84 129h76q-18 -136 -60 -194t-112 -58q-68 0 -154 59t-115 60q-61 0 -84 -129h-75q18 137 60 193q42 57 110 57t155 -58q86 -58 115 -59zM401 1118v-1012h205v-106h-536v106h213v1125h-213v104h401l717 -1036h10v932h-207v104h531v-104h-203v-1264h-113
l-794 1151h-11z" />
    <glyph glyph-name="Ograve" unicode="&#xd2;" 
d="M496 1830q0 38 22 60t54 21q34 0 62 -33t58 -111l103 -258h-78l-133 170q-88 113 -88 151zM293 668q-1 -272 115 -432t320 -160t321 158t117 432t-117 433t-321 159t-320 -160q-116 -158 -115 -430zM732 1366q264 0 446 -196t182 -498t-184 -504q-184 -201 -450 -201
q-265 0 -447 198q-183 198 -183 499q0 302 186 502t450 200z" />
    <glyph glyph-name="Oacute" unicode="&#xd3;" 
d="M293 668q-1 -272 115 -432t320 -160t321 158t117 432t-117 433t-321 159t-320 -160q-116 -158 -115 -430zM732 1366q264 0 446 -196t182 -498t-184 -504q-184 -201 -450 -201q-265 0 -447 198q-183 198 -183 499q0 302 186 502t450 200zM898 1911q34 0 56 -22
q22 -21 21 -59q0 -38 -88 -151l-133 -170h-78l102 258q29 78 57 111q29 33 63 33z" />
    <glyph glyph-name="Ocircumflex" unicode="&#xd4;" 
d="M293 668q-1 -272 115 -432t320 -160t321 158t117 432t-117 433t-321 159t-320 -160q-116 -158 -115 -430zM732 1366q264 0 446 -196t182 -498t-184 -504q-184 -201 -450 -201q-265 0 -447 198q-183 198 -183 499q0 302 186 502t450 200zM467 1511l221 371h76l223 -371
h-80l-180 209l-180 -209h-80z" />
    <glyph glyph-name="Otilde" unicode="&#xd5;" 
d="M868 1655q61 0 84 129h76q-18 -136 -60 -194t-110 -58t-156 59q-86 59 -114 60q-61 0 -84 -129h-76q18 137 60 193q42 57 110 57t156 -58q86 -58 114 -59zM293 668q-1 -272 115 -432t320 -160t321 158t117 432t-117 433t-321 159t-320 -160q-116 -158 -115 -430z
M732 1366q264 0 446 -196t182 -498t-184 -504q-184 -201 -450 -201q-265 0 -447 198q-183 198 -183 499q0 302 186 502t450 200z" />
    <glyph glyph-name="Odieresis" unicode="&#xd6;" 
d="M293 668q-1 -272 115 -432t320 -160t321 158t117 432t-117 433t-321 159t-320 -160q-116 -158 -115 -430zM732 1366q264 0 446 -196t182 -498t-184 -504q-184 -201 -450 -201q-265 0 -447 198q-183 198 -183 499q0 302 186 502t450 200zM549 1556q-45 0 -75 32t-30 79
t30 80t75 33t76 -33t31 -80t-32 -79q-30 -32 -75 -32zM905 1556q-45 0 -76 32t-30 79q0 47 30 80q31 33 76 33t75 -33t30 -80t-30 -79t-75 -32z" />
    <glyph glyph-name="multiply" unicode="&#xd7;" horiz-adv-x="1048" 
d="M596 569l295 -303l-74 -73l-293 303l-291 -301l-73 73l293 301l-295 303l73 74l293 -303l291 301l74 -76z" />
    <glyph glyph-name="Oslash" unicode="&#xd8;" 
d="M293 683q0 -257 90 -409l631 865q-113 119 -285 118q-205 -1 -321 -159t-115 -415zM744 76q188 0 305 158t117 414t-91 409l-633 -862q114 -119 302 -119zM729 1366q207 0 371 -125l114 162h132l-172 -227q186 -201 186 -504t-184 -504t-447 -201q-209 0 -373 125
l-114 -162h-129l172 228q-189 199 -189 503q0 305 186 505t447 200z" />
    <glyph glyph-name="Ugrave" unicode="&#xd9;" horiz-adv-x="1503" 
d="M547 1830q-1 38 21 60t56 21q34 0 62 -33t57 -111l103 -258h-78l-133 170q-88 113 -88 151zM750 -33q-250 0 -379 119t-129 317v828h-197v104h576v-104h-207v-782q0 -189 96 -275t274 -86t274 95q95 95 95 315v733h-207v104h514v-104h-188v-809q0 -199 -136 -327
t-386 -128z" />
    <glyph glyph-name="Uacute" unicode="&#xda;" horiz-adv-x="1503" 
d="M750 -33q-250 0 -379 119t-129 317v828h-197v104h576v-104h-207v-782q0 -189 96 -275t274 -86t274 95q95 95 95 315v733h-207v104h514v-104h-188v-809q0 -199 -136 -327t-386 -128zM948 1911q34 0 57 -22q21 -21 21 -59t-88 -151l-133 -170h-78l102 258q29 78 57 111
t62 33z" />
    <glyph glyph-name="Ucircumflex" unicode="&#xdb;" horiz-adv-x="1503" 
d="M750 -33q-250 0 -379 119t-129 317v828h-197v104h576v-104h-207v-782q0 -189 96 -275t274 -86t274 95q95 95 95 315v733h-207v104h514v-104h-188v-809q0 -199 -136 -327t-386 -128zM518 1511l221 371h76l223 -371h-80l-180 209l-180 -209h-80z" />
    <glyph glyph-name="Udieresis" unicode="&#xdc;" horiz-adv-x="1503" 
d="M750 -33q-250 0 -379 119t-129 317v828h-197v104h576v-104h-207v-782q0 -189 96 -275t274 -86t274 95q95 95 95 315v733h-207v104h514v-104h-188v-809q0 -199 -136 -327t-386 -128zM600 1556q-45 0 -75 32t-29 79q0 47 29 80q30 33 75 33t76 -33t31 -80t-31 -79t-76 -32z
M956 1556q-46 0 -76 32t-30 79t31 80t75 33t75 -33q30 -33 30 -80t-30 -79t-75 -32z" />
    <glyph glyph-name="Yacute" unicode="&#xdd;" horiz-adv-x="1304" 
d="M858 1911q34 0 56 -22q22 -21 22 -59t-88 -151l-133 -170h-78l102 258q29 78 57 111t62 33zM850 1231v104h453v-104h-158l-408 -668v-457h207v-106h-586v106h205v455l-383 670h-168v104h557v-104h-184l307 -559l330 559h-172z" />
    <glyph glyph-name="Thorn" unicode="&#xde;" horiz-adv-x="1255" 
d="M465 422h186q338 0 338 291q0 262 -336 262h-188v-553zM66 0v106h227v1125h-227v104h620v-104h-221v-154h182q285 0 410 -102t125 -268t-131 -277t-396 -111h-190v-213h221v-106h-620z" />
    <glyph glyph-name="germandbls" unicode="&#xdf;" horiz-adv-x="1120" 
d="M1083 267q0 -109 -84 -197t-210 -88q-127 0 -209 52t-82 142q0 49 29 81q30 32 75 32t72 -29q26 -28 26 -74t-45 -82q45 -36 126 -36t127 46t46 109q0 104 -178 213q-131 78 -179 131t-48 119t29 108q30 44 98 112t93 115q26 48 26 123q1 75 -53 129t-154 54
q-206 0 -205 -313v-1014h-311v106h151v709h-186v100h186v52q0 237 111 345t264 108q152 0 252 -85q100 -84 100 -205q0 -78 -40 -136t-136 -129t-96 -128q0 -35 32 -63t148 -99q116 -72 171 -135q54 -63 54 -173z" />
    <glyph glyph-name="agrave" unicode="&#xe0;" horiz-adv-x="989" 
d="M268 1400q0 38 22 60t56 21q34 0 61 -33q28 -33 58 -111l102 -258h-78l-133 170q-88 113 -88 151zM428 94q84 0 155 60t70 137v182q-23 -9 -141 -27t-181 -60q-62 -42 -63 -132q0 -160 160 -160zM342 -14q-110 0 -178 66q-70 66 -70 168q0 104 58 162t134 85t198 46
t146 29t23 33v91q0 98 -47 141q-46 43 -150 43t-169 -53q55 -29 55 -85t-29 -84q-29 -30 -77 -30t-79 31q-30 31 -30 80q-1 99 107 163t255 64q324 0 324 -277v-481q0 -45 14 -63t47 -19q47 0 82 82l62 -35q-37 -81 -80 -117t-111 -36q-69 0 -111 42t-44 128h-6
q-46 -78 -130 -126t-194 -48z" />
    <glyph glyph-name="aacute" unicode="&#xe1;" horiz-adv-x="989" 
d="M670 1481q34 0 56 -22q22 -21 22 -59t-89 -151l-133 -170h-77l102 258q29 78 56 111q28 33 63 33zM428 94q84 0 155 60t70 137v182q-23 -9 -141 -27t-181 -60q-62 -42 -63 -132q0 -160 160 -160zM342 -14q-110 0 -178 66q-70 66 -70 168q0 104 58 162t134 85t198 46
t146 29t23 33v91q0 98 -47 141q-46 43 -150 43t-169 -53q55 -29 55 -85t-29 -84q-29 -30 -77 -30t-79 31q-30 31 -30 80q-1 99 107 163t255 64q324 0 324 -277v-481q0 -45 14 -63t47 -19q47 0 82 82l62 -35q-37 -81 -80 -117t-111 -36q-69 0 -111 42t-44 128h-6
q-46 -78 -130 -126t-194 -48z" />
    <glyph glyph-name="acircumflex" unicode="&#xe2;" horiz-adv-x="989" 
d="M240 1081l221 371h76l223 -371h-80l-180 209l-181 -209h-79zM428 94q84 0 155 60t70 137v182q-23 -9 -141 -27t-181 -60q-62 -42 -63 -132q0 -160 160 -160zM342 -14q-110 0 -178 66q-70 66 -70 168q0 104 58 162t134 85t198 46t146 29t23 33v91q0 98 -47 141
q-46 43 -150 43t-169 -53q55 -29 55 -85t-29 -84q-29 -30 -77 -30t-79 31q-30 31 -30 80q-1 99 107 163t255 64q324 0 324 -277v-481q0 -45 14 -63t47 -19q47 0 82 82l62 -35q-37 -81 -80 -117t-111 -36q-69 0 -111 42t-44 128h-6q-46 -78 -130 -126t-194 -48z" />
    <glyph glyph-name="atilde" unicode="&#xe3;" horiz-adv-x="989" 
d="M372 1341q68 0 154 -58t115 -58q61 0 84 129h76q-19 -136 -61 -194t-110 -58t-155 59q-86 59 -115 60q-61 0 -84 -129h-75q18 137 60 193q43 56 111 56zM428 94q84 0 155 60t70 137v182q-23 -9 -141 -27t-181 -60q-62 -42 -63 -132q0 -160 160 -160zM342 -14
q-110 0 -178 66q-70 66 -70 168q0 104 58 162t134 85t198 46t146 29t23 33v91q0 98 -47 141q-46 43 -150 43t-169 -53q55 -29 55 -85t-29 -84q-29 -30 -77 -30t-79 31q-30 31 -30 80q-1 99 107 163t255 64q324 0 324 -277v-481q0 -45 14 -63t47 -19q47 0 82 82l62 -35
q-37 -81 -80 -117t-111 -36q-69 0 -111 42t-44 128h-6q-46 -78 -130 -126t-194 -48z" />
    <glyph glyph-name="adieresis" unicode="&#xe4;" horiz-adv-x="989" 
d="M322 1126q-45 0 -75 32t-30 79t30 80t75 33q46 0 76 -33t30 -80t-30 -79t-76 -32zM678 1126q-45 0 -76 32t-31 79t31 80t76 33t75 -33q29 -33 29 -80t-30 -79t-74 -32zM428 94q84 0 155 60t70 137v182q-23 -9 -141 -27t-181 -60q-62 -42 -63 -132q0 -160 160 -160z
M342 -14q-110 0 -178 66q-70 66 -70 168q0 104 58 162t134 85t198 46t146 29t23 33v91q0 98 -47 141q-46 43 -150 43t-169 -53q55 -29 55 -85t-29 -84q-29 -30 -77 -30t-79 31q-30 31 -30 80q-1 99 107 163t255 64q324 0 324 -277v-481q0 -45 14 -63t47 -19q47 0 82 82
l62 -35q-37 -81 -80 -117t-111 -36q-69 0 -111 42t-44 128h-6q-46 -78 -130 -126t-194 -48z" />
    <glyph glyph-name="aring" unicode="&#xe5;" horiz-adv-x="989" 
d="M500 1135q55 0 87 39t31 100q0 61 -31 101q-32 40 -87 40t-87 -40t-32 -101t32 -100t87 -39zM500 1067q-100 0 -158 60q-57 61 -57 147t57 146q58 60 158 60t157 -60t57 -146t-56 -146q-58 -60 -158 -61zM428 94q84 0 155 60t70 137v182q-23 -9 -141 -27t-181 -60
q-62 -42 -63 -132q0 -160 160 -160zM342 -14q-110 0 -178 66q-70 66 -70 168q0 104 58 162t134 85t198 46t146 29t23 33v91q0 98 -47 141q-46 43 -150 43t-169 -53q55 -29 55 -85t-29 -84q-29 -30 -77 -30t-79 31q-30 31 -30 80q-1 99 107 163t255 64q324 0 324 -277v-481
q0 -45 14 -63t47 -19q47 0 82 82l62 -35q-37 -81 -80 -117t-111 -36q-69 0 -111 42t-44 128h-6q-46 -78 -130 -126t-194 -48z" />
    <glyph glyph-name="ae" unicode="&#xe6;" horiz-adv-x="1523" 
d="M428 94q84 0 155 60t70 137v182q-23 -9 -141 -27t-181 -60q-62 -42 -63 -132q0 -160 160 -160zM1061 850q-102 0 -167 -79t-79 -230h469q-22 309 -223 309zM1098 90q188 0 260 180h86q-84 -289 -381 -288q-127 0 -219 59t-139 158q-57 -105 -153 -159t-207 -54t-181 66
t-70 168q0 104 58 162t134 85t198 46t146 29t23 33v91q0 98 -47 141q-46 43 -150 43t-169 -53q55 -29 55 -85t-29 -84q-29 -30 -77 -30t-79 31q-30 31 -30 80q-1 99 107 163t255 64q219 0 283 -135q115 137 300 137q186 0 284 -143t94 -342h-637q2 -175 78 -269t207 -94z
" />
    <glyph glyph-name="ccedilla" unicode="&#xe7;" horiz-adv-x="966" 
d="M702 -311q0 -76 -60 -125t-166 -49t-197 61l38 66q77 -48 141 -48t96 24t32 67t-41 67t-93 25q-52 0 -87 -10l-29 38l168 177q-188 2 -306 131t-118 339t129 348t336 138q143 0 245 -83t103 -177q0 -61 -33 -101t-85 -40q-52 -1 -82 31q-29 32 -29 74t21 73q22 31 56 43
q-63 94 -196 94t-213 -106t-80 -282t79 -276t216 -100q193 0 270 211h88q-66 -254 -289 -305l-131 -131l2 -6q99 -2 157 -47t58 -121z" />
    <glyph glyph-name="egrave" unicode="&#xe8;" horiz-adv-x="974" 
d="M285 1400q-1 38 21 60t56 21q34 0 61 -33q28 -33 58 -111l103 -258h-78l-133 170q-88 113 -88 151zM508 850q-104 0 -172 -80t-82 -229h481q-22 309 -227 309zM547 90q190 0 262 180h86q-41 -141 -140 -215t-243 -73q-200 0 -316 130t-116 339t126 348t313 139t285 -143
t95 -342h-647q2 -175 82 -269t213 -94z" />
    <glyph glyph-name="eacute" unicode="&#xe9;" horiz-adv-x="974" 
d="M686 1481q34 0 56 -22q22 -21 22 -59t-88 -151l-133 -170h-78l102 258q29 78 57 111t62 33zM508 850q-104 0 -172 -80t-82 -229h481q-22 309 -227 309zM547 90q190 0 262 180h86q-41 -141 -140 -215t-243 -73q-200 0 -316 130t-116 339t126 348t313 139t285 -143t95 -342
h-647q2 -175 82 -269t213 -94z" />
    <glyph glyph-name="ecircumflex" unicode="&#xea;" horiz-adv-x="974" 
d="M256 1081l221 371h76l223 -371h-80l-180 209l-180 -209h-80zM508 850q-104 0 -172 -80t-82 -229h481q-22 309 -227 309zM547 90q190 0 262 180h86q-41 -141 -140 -215t-243 -73q-200 0 -316 130t-116 339t126 348t313 139t285 -143t95 -342h-647q2 -175 82 -269t213 -94z
" />
    <glyph glyph-name="edieresis" unicode="&#xeb;" horiz-adv-x="974" 
d="M694 1126q-45 0 -76 32t-30 79q0 47 30 80q31 33 76 33t75 -33t30 -80t-30 -79t-75 -32zM338 1126q-45 0 -75 32t-30 79t30 80t75 33t76 -33q30 -33 30 -80t-30 -79t-76 -32zM508 850q-104 0 -172 -80t-82 -229h481q-22 309 -227 309zM547 90q190 0 262 180h86
q-41 -141 -140 -215t-243 -73q-200 0 -316 130t-116 339t126 348t313 139t285 -143t95 -342h-647q2 -175 82 -269t213 -94z" />
    <glyph glyph-name="igrave" unicode="&#xec;" horiz-adv-x="614" 
d="M70 1400q0 38 22 60t54 21q34 0 62 -33t58 -111l103 -258h-78l-133 170q-88 113 -88 151zM74 0v106h174v709h-174v107h332v-816h174v-106h-506z" />
    <glyph glyph-name="iacute" unicode="&#xed;" horiz-adv-x="614" 
d="M74 0v106h174v709h-174v107h332v-816h174v-106h-506zM470 1481q34 0 56 -22q22 -21 21 -59q0 -38 -88 -151l-133 -170h-78l102 258q29 78 57 111q29 33 63 33z" />
    <glyph glyph-name="icircumflex" unicode="&#xee;" horiz-adv-x="614" 
d="M74 0v106h174v709h-174v107h332v-816h174v-106h-506zM41 1081l221 371h76l223 -371h-80l-180 209l-180 -209h-80z" />
    <glyph glyph-name="idieresis" unicode="&#xef;" horiz-adv-x="614" 
d="M74 0v106h174v709h-174v107h332v-816h174v-106h-506zM123 1126q-45 0 -75 32t-30 79t30 80t75 33t76 -33t31 -80t-32 -79q-30 -32 -75 -32zM479 1126q-45 0 -76 32t-30 79q0 47 30 80q31 33 76 33t75 -33t30 -80t-30 -79t-75 -32z" />
    <glyph glyph-name="eth" unicode="&#xf0;" horiz-adv-x="1060" 
d="M518 848q-122 0 -194 -98t-72 -290t78 -290t197 -98q120 0 194 100t74 291t-78 288t-199 97zM969 601q0 -294 -125 -457q-124 -162 -324 -162t-320 129t-120 337t123 348q123 142 307 142q94 0 165 -45t107 -113q-29 162 -176 359l-227 -101l-37 82l207 90
q-59 72 -141 156l133 18q61 -57 123 -122l215 94l34 -82l-188 -84q244 -295 244 -589z" />
    <glyph glyph-name="ntilde" unicode="&#xf1;" horiz-adv-x="1163" 
d="M476 1341q68 0 154 -58t115 -58q61 0 84 129h76q-18 -136 -60 -194q-43 -58 -111 -58t-154 59t-115 60q-61 0 -84 -129h-76q19 137 61 193t110 56zM70 0v106h153v709h-153v107h309v-238q145 252 348 252q119 0 185 -76t65 -215v-539h153v-106h-452v106h141v467
q0 137 -47 185t-135 49q-88 0 -171 -93t-83 -206v-402h139v-106h-452z" />
    <glyph glyph-name="ograve" unicode="&#xf2;" horiz-adv-x="1048" 
d="M293 1400q-1 38 21 60t56 21q34 0 62 -33t57 -111l103 -258h-78l-133 170q-88 113 -88 151zM518 848q-122 0 -194 -98t-72 -290t78 -290t200 -98q121 0 193 98t72 291t-78 290t-199 97zM969 466q1 -212 -127 -348t-322 -136t-316 130q-124 130 -124 342t127 348t321 136
t317 -130q124 -130 124 -342z" />
    <glyph glyph-name="oacute" unicode="&#xf3;" horiz-adv-x="1048" 
d="M518 848q-122 0 -194 -98t-72 -290t78 -290t200 -98q121 0 193 98t72 291t-78 290t-199 97zM969 466q1 -212 -127 -348t-322 -136t-316 130q-124 130 -124 342t127 348t321 136t317 -130q124 -130 124 -342zM692 1481q34 0 57 -22q21 -21 21 -59t-88 -151l-133 -170h-78
l102 258q29 78 57 111t62 33z" />
    <glyph glyph-name="ocircumflex" unicode="&#xf4;" horiz-adv-x="1048" 
d="M518 848q-122 0 -194 -98t-72 -290t78 -290t200 -98q121 0 193 98t72 291t-78 290t-199 97zM969 466q1 -212 -127 -348t-322 -136t-316 130q-124 130 -124 342t127 348t321 136t317 -130q124 -130 124 -342zM262 1081l221 371h76l223 -371h-80l-180 209l-180 -209h-80z
" />
    <glyph glyph-name="otilde" unicode="&#xf5;" horiz-adv-x="1048" 
d="M394 1341q68 0 155 -58q86 -58 115 -58q61 0 84 129h75q-18 -136 -60 -194q-43 -58 -111 -58t-154 59t-115 60q-61 0 -84 -129h-76q19 137 61 193t110 56zM518 848q-122 0 -194 -98t-72 -290t78 -290t200 -98q121 0 193 98t72 291t-78 290t-199 97zM969 466
q1 -212 -127 -348t-322 -136t-316 130q-124 130 -124 342t127 348t321 136t317 -130q124 -130 124 -342z" />
    <glyph glyph-name="odieresis" unicode="&#xf6;" horiz-adv-x="1048" 
d="M518 848q-122 0 -194 -98t-72 -290t78 -290t200 -98q121 0 193 98t72 291t-78 290t-199 97zM969 466q1 -212 -127 -348t-322 -136t-316 130q-124 130 -124 342t127 348t321 136t317 -130q124 -130 124 -342zM344 1126q-45 0 -75 32t-29 79q0 47 29 80q30 33 75 33t76 -33
t31 -80t-31 -79t-76 -32zM700 1126q-46 0 -76 32t-30 79t31 80t75 33t75 -33q30 -33 30 -80t-30 -79t-75 -32z" />
    <glyph glyph-name="divide" unicode="&#xf7;" horiz-adv-x="1048" 
d="M524 369q45 0 78 -33t33 -80t-33 -79t-78 -32t-78 32t-32 79q0 47 32 80q33 33 78 33zM952 518h-854v100h854v-100zM524 991q45 0 78 -33q33 -34 33 -78t-33 -77t-78 -33t-78 33t-32 78q0 45 32 77t78 33z" />
    <glyph glyph-name="oslash" unicode="&#xf8;" horiz-adv-x="1048" 
d="M534 72q117 0 189 98t72 263t-45 259l-406 -538q73 -82 190 -82zM252 459q0 -135 43 -232l410 537q-72 84 -190 84q-119 0 -191 -98t-72 -291zM80 453q0 213 127 349t317 136q147 0 258 -76l84 113h107l-129 -166q125 -135 125 -345t-127 -346t-318 -136q-147 0 -258 75
l-84 -112h-106l127 166q-123 129 -123 342z" />
    <glyph glyph-name="ugrave" unicode="&#xf9;" horiz-adv-x="1128" 
d="M324 1400q0 38 22 60t54 21q34 0 62 -33t58 -111l103 -258h-78l-133 170q-88 113 -88 151zM434 -16q-118 0 -182 76t-64 216v539h-151v107h309v-574q0 -141 53 -192q35 -41 124 -41t171 93t82 204v403h-158v107h318v-816h151v-106h-307v236q-147 -252 -346 -252z" />
    <glyph glyph-name="uacute" unicode="&#xfa;" horiz-adv-x="1128" 
d="M434 -16q-118 0 -182 76t-64 216v539h-151v107h309v-574q0 -141 53 -192q35 -41 124 -41t171 93t82 204v403h-158v107h318v-816h151v-106h-307v236q-147 -252 -346 -252zM726 1481q34 0 56 -22q22 -21 21 -59q0 -38 -88 -151l-133 -170h-78l102 258q29 78 57 111
q29 33 63 33z" />
    <glyph glyph-name="ucircumflex" unicode="&#xfb;" horiz-adv-x="1128" 
d="M434 -16q-118 0 -182 76t-64 216v539h-151v107h309v-574q0 -141 53 -192q35 -41 124 -41t171 93t82 204v403h-158v107h318v-816h151v-106h-307v236q-147 -252 -346 -252zM295 1081l221 371h76l223 -371h-80l-180 209l-180 -209h-80z" />
    <glyph glyph-name="udieresis" unicode="&#xfc;" horiz-adv-x="1128" 
d="M434 -16q-118 0 -182 76t-64 216v539h-151v107h309v-574q0 -141 53 -192q35 -41 124 -41t171 93t82 204v403h-158v107h318v-816h151v-106h-307v236q-147 -252 -346 -252zM377 1126q-45 0 -75 32t-30 79t30 80t75 33t76 -33t31 -80t-32 -79q-30 -32 -75 -32zM733 1126
q-45 0 -76 32t-30 79q0 47 30 80q31 33 76 33t75 -33t30 -80t-30 -79t-75 -32z" />
    <glyph glyph-name="yacute" unicode="&#xfd;" horiz-adv-x="1001" 
d="M705 1481q35 0 57 -22q22 -21 20 -59q0 -38 -88 -151l-133 -170h-78l103 258q29 78 56 111q28 33 63 33zM142 -68q48 0 77 -30t29 -72q0 -43 -19 -72q63 4 115 56t109 188l-326 813h-127v107h459v-107h-160l238 -633l245 633h-141v107h369v-107h-113l-317 -778
q-84 -207 -173 -289t-185 -82t-145 40q-48 40 -48 98t32 93q33 35 81 35z" />
    <glyph glyph-name="thorn" unicode="&#xfe;" horiz-adv-x="1075" 
d="M582 831q-107 -1 -185 -111t-78 -269t77 -256q78 -97 184 -97t171 98t64 275q0 178 -63 269t-170 91zM12 -307v106h154v1497h-154v111h312v-684q53 103 136 159t177 56q133 0 227 -90q123 -122 123 -366t-135 -384q-98 -98 -236 -98q-199 0 -292 186v-387h198v-106h-510z
" />
    <glyph glyph-name="ydieresis" unicode="&#xff;" horiz-adv-x="1001" 
d="M713 1126q-45 0 -76 32t-31 79t31 80t76 33t75 -33t29 -80q1 -47 -29 -79t-75 -32zM356 1126q-44 0 -74 32t-30 79t30 80t74 33t76 -33q31 -33 31 -80t-31 -79t-76 -32zM142 -68q48 0 77 -30t29 -72q0 -43 -19 -72q63 4 115 56t109 188l-326 813h-127v107h459v-107h-160
l238 -633l245 633h-141v107h369v-107h-113l-317 -778q-84 -207 -173 -289t-185 -82t-145 40q-48 40 -48 98t32 93q33 35 81 35z" />
    <glyph glyph-name="Amacron" unicode="&#x100;" horiz-adv-x="1376" 
d="M440 1548v127h514v-127h-514zM655 1145l-217 -567h424l-200 567h-7zM440 106v-106h-448v106h143l488 1240h143l455 -1240h172v-106h-574v106h211l-133 375h-496l-141 -375h180z" />
    <glyph glyph-name="amacron" unicode="&#x101;" horiz-adv-x="989" 
d="M244 1118v127h514v-127h-514zM428 94q84 0 155 60t70 137v182q-23 -9 -141 -27t-181 -60q-62 -42 -63 -132q0 -160 160 -160zM342 -14q-110 0 -178 66q-70 66 -70 168q0 104 58 162t134 85t198 46t146 29t23 33v91q0 98 -47 141q-46 43 -150 43t-169 -53q55 -29 55 -85
t-29 -84q-29 -30 -77 -30t-79 31q-30 31 -30 80q-1 99 107 163t255 64q324 0 324 -277v-481q0 -45 14 -63t47 -19q47 0 82 82l62 -35q-37 -81 -80 -117t-111 -36q-69 0 -111 42t-44 128h-6q-46 -78 -130 -126t-194 -48z" />
    <glyph glyph-name="Abreve" unicode="&#x102;" horiz-adv-x="1376" 
d="M697 1524q-115 0 -187 82t-78 225h64q53 -180 200 -180t201 180h64q-4 -143 -76 -225t-188 -82zM655 1145l-217 -567h424l-200 567h-7zM440 106v-106h-448v106h143l488 1240h143l455 -1240h172v-106h-574v106h211l-133 375h-496l-141 -375h180z" />
    <glyph glyph-name="abreve" unicode="&#x103;" horiz-adv-x="989" 
d="M501 1094q-116 0 -188 82t-77 225h63q53 -180 201 -180t200 180h64q-4 -143 -76 -225t-187 -82zM428 94q84 0 155 60t70 137v182q-23 -9 -141 -27t-181 -60q-62 -42 -63 -132q0 -160 160 -160zM342 -14q-110 0 -178 66q-70 66 -70 168q0 104 58 162t134 85t198 46t146 29
t23 33v91q0 98 -47 141q-46 43 -150 43t-169 -53q55 -29 55 -85t-29 -84q-29 -30 -77 -30t-79 31q-30 31 -30 80q-1 99 107 163t255 64q324 0 324 -277v-481q0 -45 14 -63t47 -19q47 0 82 82l62 -35q-37 -81 -80 -117t-111 -36q-69 0 -111 42t-44 128h-6q-46 -78 -130 -126
t-194 -48z" />
    <glyph glyph-name="Aogonek" unicode="&#x104;" horiz-adv-x="1376" 
d="M655 1145l-217 -567h424l-200 567h-7zM1099 -485q-97 0 -152 48q-54 48 -54 122t43 137t141 149l33 29h-291v106h211l-133 375h-496l-141 -375h180v-106h-448v106h143l488 1240h143l455 -1240h172v-106h-185l-30 -31q-154 -158 -154 -256q0 -51 31 -79q73 -66 192 18
l39 -58q-90 -79 -187 -79z" />
    <glyph glyph-name="aogonek" unicode="&#x105;" horiz-adv-x="989" 
d="M428 94q84 0 155 60t70 137v182q-23 -9 -141 -27t-181 -60q-62 -42 -63 -132q0 -160 160 -160zM802 -485q-97 0 -152 48q-54 48 -54 123q0 76 46 142t163 164q-131 14 -133 168h-6q-47 -78 -130 -126t-193 -48q-109 0 -179 66t-70 176t86 180t342 110q86 14 109 24t22 33
v91q0 98 -47 141q-46 43 -150 43t-169 -53q55 -29 55 -85t-29 -84q-29 -30 -77 -30t-79 31q-30 31 -30 80q-1 99 107 163t255 64q324 0 324 -277v-481q0 -45 14 -63t47 -19q47 0 82 82l62 -35q-34 -77 -114 -155t-128 -146t-49 -124q0 -56 31 -84t81 -28t113 46l37 -58
q-90 -79 -187 -79z" />
    <glyph glyph-name="Cacute" unicode="&#x106;" horiz-adv-x="1382" 
d="M715 -33q-274 0 -447 197q-172 197 -172 499q0 301 182 503t432 202q251 0 392 -162l39 156h106v-506h-94q-135 399 -432 399q-193 -1 -311 -151t-117 -428q0 -278 122 -436q122 -156 328 -156q174 0 287 120t141 318h115q-29 -264 -181 -410t-390 -145zM887 1911
q35 0 57 -22q22 -21 21 -59q0 -38 -88 -151l-134 -170h-77l102 258q29 78 56 111q28 33 63 33z" />
    <glyph glyph-name="cacute" unicode="&#x107;" horiz-adv-x="966" 
d="M508 -18q-190 0 -309 130t-119 340t129 348t336 138q143 0 245 -83t103 -177q0 -61 -33 -101t-85 -40q-52 -1 -82 31q-29 32 -29 74t21 73q22 31 56 43q-63 94 -196 94t-213 -106t-80 -282t79 -276t216 -100q193 0 270 211h88q-39 -153 -143 -235t-254 -82zM707 1481
q35 0 57 -22q22 -21 20 -59q0 -38 -88 -151l-133 -170h-78l103 258q29 78 56 111q28 33 63 33z" />
    <glyph glyph-name="Cdotaccent" unicode="&#x10a;" horiz-adv-x="1382" 
d="M715 1518q-47 0 -78 32t-31 79q0 48 32 81t78 33t78 -32t32 -80t-32 -81q-32 -32 -79 -32zM715 -33q-274 0 -447 197q-172 197 -172 499q0 301 182 503t432 202q251 0 392 -162l39 156h106v-506h-94q-135 399 -432 399q-193 -1 -311 -151t-117 -428q0 -278 122 -436
q122 -156 328 -156q174 0 287 120t141 318h115q-29 -264 -181 -410t-390 -145z" />
    <glyph glyph-name="cdotaccent" unicode="&#x10b;" horiz-adv-x="966" 
d="M536 1313q46 0 78 -32t31 -80q1 -48 -31 -81t-79 -33t-78 32t-31 80t32 81t78 33zM508 -18q-190 0 -309 130t-119 340t129 348t336 138q143 0 245 -83t103 -177q0 -61 -33 -101t-85 -40q-52 -1 -82 31q-29 32 -29 74t21 73q22 31 56 43q-63 94 -196 94t-213 -106
t-80 -282t79 -276t216 -100q193 0 270 211h88q-39 -153 -143 -235t-254 -82z" />
    <glyph glyph-name="Ccaron" unicode="&#x10c;" horiz-adv-x="1382" 
d="M715 -33q-274 0 -447 197q-172 197 -172 499q0 301 182 503t432 202q251 0 392 -162l39 156h106v-506h-94q-135 399 -432 399q-193 -1 -311 -151t-117 -428q0 -278 122 -436q122 -156 328 -156q174 0 287 120t141 318h115q-29 -264 -181 -410t-390 -145zM682 1530
l-223 371h80l180 -207l180 207h80l-221 -371h-76z" />
    <glyph glyph-name="ccaron" unicode="&#x10d;" horiz-adv-x="966" 
d="M508 -18q-190 0 -309 130t-119 340t129 348t336 138q143 0 245 -83t103 -177q0 -61 -33 -101t-85 -40q-52 -1 -82 31q-29 32 -29 74t21 73q22 31 56 43q-63 94 -196 94t-213 -106t-80 -282t79 -276t216 -100q193 0 270 211h88q-39 -153 -143 -235t-254 -82zM502 1100
l-223 370h79l181 -206l180 206h80l-221 -370h-76z" />
    <glyph glyph-name="Dcaron" unicode="&#x10e;" horiz-adv-x="1441" 
d="M465 106h170q270 0 394 140t124 426t-129 422t-403 137h-156v-1125zM66 0v106h227v1125h-227v104h552q358 0 544 -174t188 -476q0 -301 -182 -493t-537 -192h-565zM707 1530l-224 371h80l180 -207l181 207h80l-222 -371h-75z" />
    <glyph glyph-name="dcaron" unicode="&#x10f;" horiz-adv-x="1095" 
d="M504 831q-112 0 -178 -99t-66 -272q0 -174 68 -272t174 -98t180 108q76 108 76 272t-71 263q-71 98 -183 98zM446 -16q-137 0 -227 90q-133 131 -133 378t141 388q98 98 238 98q195 0 287 -178v536h-156v111h313v-1301h148v-106h-301v201q-107 -217 -310 -217zM1141 1538
q31 0 51 -22t20 -63q0 -40 -24 -130l-62 -233h-65l-6 294q-2 154 86 154z" />
    <glyph glyph-name="Dcroat" unicode="&#x110;" horiz-adv-x="1441" 
d="M465 106h170q270 0 394 140t124 426t-129 422t-403 137h-156v-479h293v-105h-293v-541zM66 0v106h227v541h-227v105h227v479h-227v104h552q358 0 544 -174t188 -476q0 -301 -182 -493t-537 -192h-565z" />
    <glyph glyph-name="dcroat" unicode="&#x111;" horiz-adv-x="1095" 
d="M504 831q-112 0 -178 -99t-66 -272q0 -174 68 -272t174 -98t180 108q76 108 76 272t-71 263q-71 98 -183 98zM446 -16q-137 0 -227 90q-133 131 -133 378t141 388q98 98 238 98q195 0 287 -178v284h-265v91h265v161h-156v111h313v-272h148v-91h-148v-938h148v-106h-301
v201q-107 -217 -310 -217z" />
    <glyph glyph-name="Emacron" unicode="&#x112;" horiz-adv-x="1345" 
d="M473 1548v127h514v-127h-514zM66 0v106h227v1125h-227v104h1142v-417h-80q-43 205 -75 259q-33 54 -127 54h-461v-498h203q92 0 118 33t50 172h84v-510h-84q-20 143 -48 178t-120 35h-203v-535h457q108 0 144 60t81 293h80v-459h-1161z" />
    <glyph glyph-name="emacron" unicode="&#x113;" horiz-adv-x="974" 
d="M260 1118v127h514v-127h-514zM508 850q-104 0 -172 -80t-82 -229h481q-22 309 -227 309zM547 90q190 0 262 180h86q-41 -141 -140 -215t-243 -73q-200 0 -316 130t-116 339t126 348t313 139t285 -143t95 -342h-647q2 -175 82 -269t213 -94z" />
    <glyph glyph-name="Ebreve" unicode="&#x114;" horiz-adv-x="1345" 
d="M730 1524q-116 0 -188 82t-77 225h63q52 -180 200 -180t202 180h63q-3 -143 -75 -225t-188 -82zM66 0v106h227v1125h-227v104h1142v-417h-80q-43 205 -75 259q-33 54 -127 54h-461v-498h203q92 0 118 33t50 172h84v-510h-84q-20 143 -48 178t-120 35h-203v-535h457
q108 0 144 60t81 293h80v-459h-1161z" />
    <glyph glyph-name="ebreve" unicode="&#x115;" horiz-adv-x="974" 
d="M517 1094q-115 0 -187 82t-78 225h63q53 -180 201 -180t201 180h63q-4 -143 -76 -225t-187 -82zM508 850q-104 0 -172 -80t-82 -229h481q-22 309 -227 309zM547 90q190 0 262 180h86q-41 -141 -140 -215t-243 -73q-200 0 -316 130t-116 339t126 348t313 139t285 -143
t95 -342h-647q2 -175 82 -269t213 -94z" />
    <glyph glyph-name="Edotaccent" unicode="&#x116;" horiz-adv-x="1345" 
d="M840 1631q0 -49 -32 -81t-78 -32t-78 32t-32 79q0 48 32 81t78 33t78 -32t32 -80zM66 0v106h227v1125h-227v104h1142v-417h-80q-43 205 -75 259q-33 54 -127 54h-461v-498h203q92 0 118 33t50 172h84v-510h-84q-20 143 -48 178t-120 35h-203v-535h457q108 0 144 60
t81 293h80v-459h-1161z" />
    <glyph glyph-name="edotaccent" unicode="&#x117;" horiz-adv-x="974" 
d="M514 1087q-47 0 -78 32q-30 32 -30 80t31 81q32 33 78 33t78 -32t32 -80t-32 -81t-79 -33zM508 850q-104 0 -172 -80t-82 -229h481q-22 309 -227 309zM547 90q190 0 262 180h86q-41 -141 -140 -215t-243 -73q-200 0 -316 130t-116 339t126 348t313 139t285 -143t95 -342
h-647q2 -175 82 -269t213 -94z" />
    <glyph glyph-name="Eogonek" unicode="&#x118;" horiz-adv-x="1345" 
d="M66 0v106h227v1125h-227v104h1142v-417h-80q-43 205 -75 259q-33 54 -127 54h-461v-498h203q92 0 118 33t50 172h84v-510h-84q-20 143 -48 178t-120 35h-203v-535h457q108 0 144 60t81 293h80v-459h-74l-31 -31q-154 -158 -153 -256q1 -51 31 -79q72 -66 192 18l39 -58
q-89 -80 -187 -80t-152 49q-54 48 -54 122t43 137t141 149l33 29h-989z" />
    <glyph glyph-name="eogonek" unicode="&#x119;" horiz-adv-x="974" 
d="M508 850q-104 0 -172 -80t-82 -229h481q-22 309 -227 309zM547 90q190 0 262 180h86q-33 -106 -137 -229l-80 -88q-135 -154 -135 -240q1 -51 31 -79t80 -28t114 46l37 -58q-89 -80 -187 -80t-152 49q-54 48 -54 121t43 135t139 150l27 25q-61 -12 -109 -12
q-200 0 -316 130t-116 339t126 348t313 139t285 -143t95 -342h-647q2 -175 82 -269t213 -94z" />
    <glyph glyph-name="Ecaron" unicode="&#x11a;" horiz-adv-x="1345" 
d="M66 0v106h227v1125h-227v104h1142v-417h-80q-43 205 -75 259q-33 54 -127 54h-461v-498h203q92 0 118 33t50 172h84v-510h-84q-20 143 -48 178t-120 35h-203v-535h457q108 0 144 60t81 293h80v-459h-1161zM696 1530l-223 371h80l180 -207l180 207h80l-221 -371h-76z" />
    <glyph glyph-name="ecaron" unicode="&#x11b;" horiz-adv-x="974" 
d="M481 1100l-223 370h80l180 -206l180 206h80l-221 -370h-76zM508 850q-104 0 -172 -80t-82 -229h481q-22 309 -227 309zM547 90q190 0 262 180h86q-41 -141 -140 -215t-243 -73q-200 0 -316 130t-116 339t126 348t313 139t285 -143t95 -342h-647q2 -175 82 -269t213 -94z
" />
    <glyph glyph-name="Gbreve" unicode="&#x11e;" 
d="M716 1524q-116 0 -188 82t-77 225h63q52 -180 200 -180t201 180h64q-3 -143 -75 -225t-188 -82zM700 -33q-265 0 -435 202q-169 202 -169 496q0 295 177 499t425 204t389 -162l39 156h107v-500h-94q-133 393 -420 393q-199 1 -313 -149t-113 -426q0 -276 117 -436
q117 -158 323 -158q166 0 260 125q82 100 82 287v53h-250v106h607v-106h-183v-565h-100l-59 192q-125 -211 -390 -211z" />
    <glyph glyph-name="gbreve" unicode="&#x11f;" horiz-adv-x="960" 
d="M470 1094q-116 0 -188 82t-77 225h63q52 -180 200 -180t202 180h63q-3 -143 -75 -225t-188 -82zM455 -244q141 0 227 48t86 126q0 115 -145 115h-230q-193 0 -192 -145q0 -144 254 -144zM472 416q91 0 139 57t48 159t-53 164t-145 62q-188 0 -189 -223q0 -109 54 -164
t146 -55zM233 260q0 -82 162 -82h244q270 0 270 -207q0 -129 -125 -215q-124 -86 -322 -86t-306 60t-107 153q0 66 54 118t143 67v6q-152 45 -152 149q0 51 49 96t125 62q-162 82 -162 252q0 139 102 221t259 82q78 0 151 -29q106 182 248 183q53 0 86 -30t33 -73t-26 -71
q-27 -28 -65 -28t-60 24q-22 22 -21 46q0 24 2 33q-29 1 -67 -31t-64 -83q143 -87 143 -233t-99 -226t-261 -80l-125 6q-47 0 -78 -26t-31 -58z" />
    <glyph glyph-name="Gdotaccent" unicode="&#x120;" 
d="M715 1518q-47 0 -78 32t-31 79q0 48 32 81t78 33t78 -32t32 -80t-32 -81q-32 -32 -79 -32zM700 -33q-265 0 -435 202q-169 202 -169 496q0 295 177 499t425 204t389 -162l39 156h107v-500h-94q-133 393 -420 393q-199 1 -313 -149t-113 -426q0 -276 117 -436
q117 -158 323 -158q166 0 260 125q82 100 82 287v53h-250v106h607v-106h-183v-565h-100l-59 192q-125 -211 -390 -211z" />
    <glyph glyph-name="gdotaccent" unicode="&#x121;" horiz-adv-x="960" 
d="M469 1087q-47 0 -78 32t-31 80t32 81t78 33t78 -32t32 -80t-32 -81t-79 -33zM455 -244q141 0 227 48t86 126q0 115 -145 115h-230q-193 0 -192 -145q0 -144 254 -144zM472 416q91 0 139 57t48 159t-53 164t-145 62q-188 0 -189 -223q0 -109 54 -164t146 -55zM233 260
q0 -82 162 -82h244q270 0 270 -207q0 -129 -125 -215q-124 -86 -322 -86t-306 60t-107 153q0 66 54 118t143 67v6q-152 45 -152 149q0 51 49 96t125 62q-162 82 -162 252q0 139 102 221t259 82q78 0 151 -29q106 182 248 183q53 0 86 -30t33 -73t-26 -71q-27 -28 -65 -28
t-60 24q-22 22 -21 46q0 24 2 33q-29 1 -67 -31t-64 -83q143 -87 143 -233t-99 -226t-261 -80l-125 6q-47 0 -78 -26t-31 -58z" />
    <glyph glyph-name="Gcommaaccent" unicode="&#x122;" 
d="M700 -33q-265 0 -435 202q-169 202 -169 496q0 295 177 499t425 204t389 -162l39 156h107v-500h-94q-133 393 -420 393q-199 1 -313 -149t-113 -426q0 -276 117 -436q117 -158 323 -158q166 0 260 125q82 100 82 287v53h-250v106h607v-106h-183v-565h-100l-59 192
q-125 -211 -390 -211zM682 -362q-30 0 -56 28t-26 69q0 42 31 75q31 32 82 32t84 -39t32 -102q0 -201 -223 -301l-31 59q150 74 166 189l-6 4q-23 -14 -53 -14z" />
    <glyph glyph-name="gcommaaccent" unicode="&#x123;" horiz-adv-x="960" 
d="M502 1292q30 0 56 -28t26 -69q0 -42 -31 -75t-82 -33t-84 39t-33 103q1 201 224 301l30 -60q-150 -74 -166 -188l7 -4q23 14 53 14zM455 -244q141 0 227 48t86 126q0 115 -145 115h-230q-193 0 -192 -145q0 -144 254 -144zM472 416q91 0 139 57t48 159t-53 164t-145 62
q-188 0 -189 -223q0 -109 54 -164t146 -55zM233 260q0 -82 162 -82h244q270 0 270 -207q0 -129 -125 -215q-124 -86 -322 -86t-306 60t-107 153q0 66 54 118t143 67v6q-152 45 -152 149q0 51 49 96t125 62q-162 82 -162 252q0 139 102 221t259 82q78 0 151 -29
q106 182 248 183q53 0 86 -30t33 -73t-26 -71q-27 -28 -65 -28t-60 24q-22 22 -21 46q0 24 2 33q-29 1 -67 -31t-64 -83q143 -87 143 -233t-99 -226t-261 -80l-125 6q-47 0 -78 -26t-31 -58z" />
    <glyph glyph-name="Hbar" unicode="&#x126;" horiz-adv-x="1581" 
d="M465 719h649v209h-649v-209zM66 928v94h227v209h-227v104h600v-104h-201v-209h649v209h-199v104h601v-104h-228v-209h228v-94h-228v-822h228v-106h-601v106h199v517h-649v-517h201v-106h-600v106h227v822h-227z" />
    <glyph glyph-name="hbar" unicode="&#x127;" horiz-adv-x="1138" 
d="M795 573q0 234 -170 234q-99 0 -183 -93t-84 -206v-402h140v-106h-453v106h154v938h-154v91h154v161h-154v111h313v-272h258v-91h-258v-356q141 248 344 248q119 0 185 -76t65 -215v-539h154v-106h-453v106h142v467z" />
    <glyph glyph-name="Imacron" unicode="&#x12a;" horiz-adv-x="786" 
d="M135 1548v127h514v-127h-514zM80 0v106h225v1125h-225v104h627v-104h-228v-1125h228v-106h-627z" />
    <glyph glyph-name="imacron" unicode="&#x12b;" horiz-adv-x="614" 
d="M45 1118v127h514v-127h-514zM74 0v106h174v709h-174v107h332v-816h174v-106h-506z" />
    <glyph glyph-name="Ibreve" unicode="&#x12c;" horiz-adv-x="786" 
d="M392 1524q-116 0 -188 82t-77 225h63q52 -180 200 -180t202 180h63q-3 -143 -75 -225t-188 -82zM80 0v106h225v1125h-225v104h627v-104h-228v-1125h228v-106h-627z" />
    <glyph glyph-name="ibreve" unicode="&#x12d;" horiz-adv-x="614" 
d="M302 1094q-116 0 -188 82t-77 225h63q52 -180 200 -180t202 180h63q-3 -143 -75 -225t-188 -82zM74 0v106h174v709h-174v107h332v-816h174v-106h-506z" />
    <glyph glyph-name="Iogonek" unicode="&#x12e;" horiz-adv-x="786" 
d="M80 0v106h225v1125h-225v104h627v-104h-228v-1125h228v-106h-207l-31 -31q-154 -158 -154 -256q0 -51 31 -79q73 -66 193 18l39 -58q-90 -80 -188 -80t-151 49q-55 48 -55 122t43 137t142 149l32 29h-321z" />
    <glyph glyph-name="iogonek" unicode="&#x12f;" horiz-adv-x="614" 
d="M314 1130q-50 0 -83 31t-33 83t33 86t83 34t82 -33t32 -84t-32 -84t-82 -33zM74 0v106h174v709h-174v107h332v-816h174v-106h-150l-31 -31q-154 -158 -153 -256q0 -51 30 -79q72 -66 193 18l39 -58q-90 -80 -188 -80t-151 49q-54 48 -54 122t43 137t141 149l33 29h-258z
" />
    <glyph glyph-name="Idotaccent" unicode="&#x130;" horiz-adv-x="786" 
d="M502 1631q0 -49 -32 -81t-79 -32t-78 32t-31 79q0 48 32 81t78 33t78 -32t32 -80zM80 0v106h225v1125h-225v104h627v-104h-228v-1125h228v-106h-627z" />
    <glyph glyph-name="dotlessi" unicode="&#x131;" horiz-adv-x="614" 
d="M74 0v106h174v709h-174v107h332v-816h174v-106h-506z" />
    <glyph glyph-name="Kcommaaccent" unicode="&#x136;" horiz-adv-x="1468" 
d="M706 -362q-30 0 -56 28t-26 69q0 42 31 75q31 32 82 32t84 -39t33 -102q0 -201 -223 -301l-31 59q150 74 166 189l-6 4q-24 -14 -54 -14zM465 106h201v-106h-600v106h227v1125h-227v104h600v-104h-201v-625l610 625h-184v104h514v-104h-172l-453 -449l504 -676h164v-106
h-561v106h184l-407 560l-199 -197v-363z" />
    <glyph glyph-name="kcommaaccent" unicode="&#x137;" horiz-adv-x="1069" 
d="M492 -362q-30 0 -57 28q-25 28 -25 69q0 42 30 75q31 32 82 32t84 -39t33 -102q0 -201 -223 -301l-31 59q150 74 166 189l-6 4q-23 -14 -53 -14zM1049 106v-106h-420v104h123l-244 355l-150 -152v-201h127v-106h-440v106h154v1190h-154v111h313v-985l373 395h-153v105
h426v-107h-140l-252 -256l320 -453h117z" />
    <glyph glyph-name="Lacute" unicode="&#x139;" horiz-adv-x="1241" 
d="M66 1335h639v-104h-240v-1125h403q88 0 123 68t94 328h80v-502h-1099v106h227v1125h-227v104zM558 1911q34 0 56 -22q22 -21 21 -59q0 -38 -88 -151l-133 -170h-78l102 258q29 78 57 111q29 33 63 33z" />
    <glyph glyph-name="lacute" unicode="&#x13a;" horiz-adv-x="581" 
d="M37 0v106h174v1190h-174v111h334v-1301h172v-106h-506zM440 1966q34 0 57 -22q21 -22 21 -59q0 -38 -88 -150l-133 -170h-78l103 258q28 79 56 111t62 32z" />
    <glyph glyph-name="Lcommaaccent" unicode="&#x13b;" horiz-adv-x="1241" 
d="M66 1335h639v-104h-240v-1125h403q88 0 123 68t94 328h80v-502h-1099v106h227v1125h-227v104zM616 -362q-30 0 -56 28t-26 69q0 42 31 75q31 32 82 32t84 -39t33 -102q0 -201 -223 -301l-31 59q150 74 166 189l-6 4q-24 -14 -54 -14z" />
    <glyph glyph-name="lcommaaccent" unicode="&#x13c;" horiz-adv-x="581" 
d="M37 0v106h174v1190h-174v111h334v-1301h172v-106h-506zM256 -362q-30 0 -56 28t-26 69q0 42 31 75q31 32 82 32t84 -39t32 -102q0 -201 -223 -301l-30 59q150 74 165 189l-6 4q-23 -14 -53 -14z" />
    <glyph glyph-name="Lcaron" unicode="&#x13d;" horiz-adv-x="1241" 
d="M66 1335h639v-104h-240v-1125h403q88 0 123 68t94 328h80v-502h-1099v106h227v1125h-227v104zM997 1383q0 -40 -24 -130l-62 -233h-65l-6 295q-2 154 86 153q31 0 51 -22t20 -63z" />
    <glyph glyph-name="lcaron" unicode="&#x13e;" horiz-adv-x="581" 
d="M37 0v106h174v1190h-174v111h334v-1301h172v-106h-506zM602 1538q31 0 51 -22q21 -22 21 -63q0 -40 -25 -130l-61 -233h-66l-6 294q-2 154 86 154z" />
    <glyph glyph-name="Ldot" unicode="&#x13f;" horiz-adv-x="1241" 
d="M970 629q-46 1 -77 31t-31 78t32 81t78 33t77 -32t31 -80t-32 -80q-32 -31 -78 -31zM66 1335h639v-104h-240v-1125h403q88 0 123 64t94 309h80v-479h-1099v106h227v1125h-227v104z" />
    <glyph glyph-name="ldot" unicode="&#x140;" horiz-adv-x="735" 
d="M37 0v106h174v1190h-174v111h334v-1301h172v-106h-506zM658 604q-46 0 -76 30t-31 78q0 48 32 80q33 32 77 32t75 -32q31 -30 31 -78t-31 -79t-77 -31z" />
    <glyph glyph-name="Lslash" unicode="&#x141;" horiz-adv-x="1241" 
d="M66 1335h639v-104h-240v-486l366 121v-100l-366 -123v-537h403q88 0 123 68t94 328h80v-502h-1099v106h227v478l-178 -60v105l178 59v543h-227v104z" />
    <glyph glyph-name="lslash" unicode="&#x142;" horiz-adv-x="614" 
d="M53 0v106h174v531l-174 -57v94l174 59v563h-174v111h334v-621l186 64v-96l-186 -64v-584h172v-106h-506z" />
    <glyph glyph-name="Nacute" unicode="&#x143;" horiz-adv-x="1570" 
d="M401 1118v-1012h205v-106h-536v106h213v1125h-213v104h401l717 -1036h10v932h-207v104h531v-104h-203v-1264h-113l-794 1151h-11zM961 1911q35 0 57 -22q22 -21 20 -59q0 -38 -88 -151l-133 -170h-78l103 258q29 78 56 111q28 33 63 33z" />
    <glyph glyph-name="nacute" unicode="&#x144;" horiz-adv-x="1163" 
d="M70 0v106h153v709h-153v107h309v-238q145 252 348 252q119 0 185 -76t65 -215v-539h153v-106h-452v106h141v467q0 137 -47 185t-135 49q-88 0 -171 -93t-83 -206v-402h139v-106h-452zM774 1481q34 0 56 -22q22 -21 22 -59t-88 -151l-133 -170h-78l102 258q29 78 57 111
t62 33z" />
    <glyph glyph-name="Ncommaaccent" unicode="&#x145;" horiz-adv-x="1570" 
d="M401 1118v-1012h205v-106h-536v106h213v1125h-213v104h401l717 -1036h10v932h-207v104h531v-104h-203v-1264h-113l-794 1151h-11zM764 -362q-30 0 -56 28t-26 69q0 42 31 75q31 32 81 32t84 -39t33 -102q0 -201 -223 -301l-31 59q150 74 166 189l-6 4q-23 -14 -53 -14z
" />
    <glyph glyph-name="ncommaaccent" unicode="&#x146;" horiz-adv-x="1163" 
d="M70 0v106h153v709h-153v107h309v-238q145 252 348 252q119 0 185 -76t65 -215v-539h153v-106h-452v106h141v467q0 137 -47 185t-135 49q-88 0 -171 -93t-83 -206v-402h139v-106h-452zM576 -362q-30 0 -57 28q-25 28 -25 69q0 42 30 75q31 32 82 32t84 -39t33 -102
q0 -201 -223 -301l-31 59q150 74 166 189l-6 4q-23 -14 -53 -14z" />
    <glyph glyph-name="Ncaron" unicode="&#x147;" horiz-adv-x="1570" 
d="M401 1118v-1012h205v-106h-536v106h213v1125h-213v104h401l717 -1036h10v932h-207v104h531v-104h-203v-1264h-113l-794 1151h-11zM758 1530l-223 371h79l181 -207l180 207h80l-221 -371h-76z" />
    <glyph glyph-name="ncaron" unicode="&#x148;" horiz-adv-x="1163" 
d="M70 0v106h153v709h-153v107h309v-238q145 252 348 252q119 0 185 -76t65 -215v-539h153v-106h-452v106h141v467q0 137 -47 185t-135 49q-88 0 -171 -93t-83 -206v-402h139v-106h-452zM569 1100l-223 370h80l180 -206l180 206h80l-221 -370h-76z" />
    <glyph glyph-name="Omacron" unicode="&#x14c;" 
d="M293 668q-1 -272 115 -432t320 -160t321 158t117 432t-117 433t-321 159t-320 -160q-116 -158 -115 -430zM732 1366q264 0 446 -196t182 -498t-184 -504q-184 -201 -450 -201q-265 0 -447 198q-183 198 -183 499q0 302 186 502t450 200zM471 1548v127h514v-127h-514z" />
    <glyph glyph-name="omacron" unicode="&#x14d;" horiz-adv-x="1048" 
d="M518 848q-122 0 -194 -98t-72 -290t78 -290t200 -98q121 0 193 98t72 291t-78 290t-199 97zM969 466q1 -212 -127 -348t-322 -136t-316 130q-124 130 -124 342t127 348t321 136t317 -130q124 -130 124 -342zM266 1118v127h514v-127h-514z" />
    <glyph glyph-name="Obreve" unicode="&#x14e;" 
d="M728 1524q-116 0 -188 82t-77 225h63q52 -180 200 -180t202 180h63q-3 -143 -75 -225t-188 -82zM293 668q-1 -272 115 -432t320 -160t321 158t117 432t-117 433t-321 159t-320 -160q-116 -158 -115 -430zM732 1366q264 0 446 -196t182 -498t-184 -504
q-184 -201 -450 -201q-265 0 -447 198q-183 198 -183 499q0 302 186 502t450 200z" />
    <glyph glyph-name="obreve" unicode="&#x14f;" horiz-adv-x="1048" 
d="M523 1094q-115 0 -187 82t-78 225h64q53 -180 200 -180t201 180h63q-4 -143 -76 -225t-187 -82zM518 848q-122 0 -194 -98t-72 -290t78 -290t200 -98q121 0 193 98t72 291t-78 290t-199 97zM969 466q1 -212 -127 -348t-322 -136t-316 130q-124 130 -124 342t127 348
t321 136t317 -130q124 -130 124 -342z" />
    <glyph glyph-name="Ohungarumlaut" unicode="&#x150;" 
d="M293 668q-1 -272 115 -432t320 -160t321 158t117 432t-117 433t-321 159t-320 -160q-116 -158 -115 -430zM732 1366q264 0 446 -196t182 -498t-184 -504q-184 -201 -450 -201q-265 0 -447 198q-183 198 -183 499q0 302 186 502t450 200zM778 1911q34 -1 53 -21
q21 -20 21 -59t-90 -150l-141 -172h-78l112 258q33 78 61 111t62 33zM1072 1911q34 -1 54 -21t20 -60t-89 -149l-142 -172h-77l112 258q37 80 63 112q25 32 59 32z" />
    <glyph glyph-name="ohungarumlaut" unicode="&#x151;" horiz-adv-x="1048" 
d="M518 848q-122 0 -194 -98t-72 -290t78 -290t200 -98q121 0 193 98t72 291t-78 290t-199 97zM969 466q1 -212 -127 -348t-322 -136t-316 130q-124 130 -124 342t127 348t321 136t317 -130q124 -130 124 -342zM572 1481q34 -1 54 -21t21 -59q0 -39 -90 -150l-141 -172h-78
l113 258q33 78 60 111t61 33zM868 1481q34 -1 54 -21t20 -60t-90 -149l-141 -172h-78l112 258q37 80 63 112t60 32z" />
    <glyph glyph-name="OE" unicode="&#x152;" horiz-adv-x="2029" 
d="M821 106h156v1125h-170q-268 0 -393 -141t-125 -426q0 -286 129 -422t403 -136zM825 0q-358 0 -544 174q-187 174 -187 476t181 494t538 191h1079v-417h-80q-43 205 -75 259q-33 54 -127 54h-459v-498h201q92 0 118 33t50 172h84v-510h-84q-20 143 -48 178t-120 35h-201
v-535h455q108 0 144 60t81 293h80v-459h-1086z" />
    <glyph glyph-name="oe" unicode="&#x153;" horiz-adv-x="1685" 
d="M1221 850q-104 0 -172 -80t-82 -229h479q-22 309 -225 309zM518 848q-122 0 -194 -98t-72 -290t78 -290t200 -98q121 0 193 98t72 291t-78 290t-199 97zM1257 90q190 0 263 180h86q-40 -141 -140 -215t-243 -73q-238 0 -349 200q-57 -94 -148 -147t-202 -53
q-196 0 -320 130t-124 342t127 348t317 136q244 0 361 -201q57 93 146 147t198 54q191 0 289 -143t94 -342h-647q2 -175 81 -269t211 -94z" />
    <glyph glyph-name="Racute" unicode="&#x154;" horiz-adv-x="1386" 
d="M465 698h242q303 0 303 289q0 244 -277 244h-268v-533zM465 600v-494h225v-106h-624v106h227v1125h-227v104h653q247 0 367 -96t120 -250q0 -117 -78 -207t-243 -120v-13q137 -33 196 -101t70 -190l12 -168q8 -94 72 -94q51 0 96 97l70 -33q-70 -182 -215 -183
q-205 0 -211 240l-4 162q-3 121 -55 171t-197 50h-254zM881 1911q35 0 57 -22q22 -21 20 -59q0 -38 -88 -151l-133 -170h-78l103 258q29 78 56 111q28 33 63 33z" />
    <glyph glyph-name="racute" unicode="&#x155;" horiz-adv-x="829" 
d="M70 0v106h153v709h-153v107h309v-217q43 113 119 171t152 58t116 -41q41 -41 41 -95t-32 -89t-79 -35t-79 30q-31 30 -31 64q0 35 8 51q-70 5 -129 -63t-82 -152v-498h180v-106h-493zM625 1481q35 0 57 -22q22 -21 20 -59q0 -38 -88 -151l-133 -170h-78l103 258
q29 78 56 111q28 33 63 33z" />
    <glyph glyph-name="Rcommaaccent" unicode="&#x156;" horiz-adv-x="1386" 
d="M465 698h242q303 0 303 289q0 244 -277 244h-268v-533zM465 600v-494h225v-106h-624v106h227v1125h-227v104h653q247 0 367 -96t120 -250q0 -117 -78 -207t-243 -120v-13q137 -33 196 -101t70 -190l12 -168q8 -94 72 -94q51 0 96 97l70 -33q-70 -182 -215 -183
q-205 0 -211 240l-4 162q-3 121 -55 171t-197 50h-254zM698 -362q-32 0 -58 28t-26 69q0 42 31 75q31 32 82 32t84 -39t33 -102q0 -201 -223 -301l-31 59q150 74 166 189l-6 4q-20 -14 -52 -14z" />
    <glyph glyph-name="rcommaaccent" unicode="&#x157;" horiz-adv-x="829" 
d="M70 0v106h153v709h-153v107h309v-217q43 113 119 171t152 58t116 -41q41 -41 41 -95t-32 -89t-79 -35t-79 30q-31 30 -31 64q0 35 8 51q-70 5 -129 -63t-82 -152v-498h180v-106h-493zM284 -362q-30 0 -56 28t-26 69q0 42 31 75q31 32 82 32t84 -39t33 -102
q0 -201 -223 -301l-31 59q150 74 166 189l-6 4q-24 -14 -54 -14z" />
    <glyph glyph-name="Rcaron" unicode="&#x158;" horiz-adv-x="1386" 
d="M465 698h242q303 0 303 289q0 244 -277 244h-268v-533zM465 600v-494h225v-106h-624v106h227v1125h-227v104h653q247 0 367 -96t120 -250q0 -117 -78 -207t-243 -120v-13q137 -33 196 -101t70 -190l12 -168q8 -94 72 -94q51 0 96 97l70 -33q-70 -182 -215 -183
q-205 0 -211 240l-4 162q-3 121 -55 171t-197 50h-254zM676 1530l-223 371h79l181 -207l180 207h80l-221 -371h-76z" />
    <glyph glyph-name="rcaron" unicode="&#x159;" horiz-adv-x="829" 
d="M70 0v106h153v709h-153v107h309v-217q43 113 119 171t152 58t116 -41q41 -41 41 -95t-32 -89t-79 -35t-79 30q-31 30 -31 64q0 35 8 51q-70 5 -129 -63t-82 -152v-498h180v-106h-493zM422 1100l-223 370h80l180 -206l180 206h80l-221 -370h-76z" />
    <glyph glyph-name="Sacute" unicode="&#x15a;" horiz-adv-x="1171" 
d="M113 -27v465h92q95 -200 201 -286t240 -86t207 64t73 181q0 149 -146 212q-76 35 -188 64q-111 29 -160 45q-48 16 -112 50q-64 33 -101 70t-62 97q-26 60 -26 136q0 161 113 271t297 110q100 0 191 -40t151 -107l41 141h100v-440h-92q-141 350 -402 350q-104 0 -172 -62
t-68 -167q0 -104 67 -170q57 -57 255 -106q105 -27 196 -55t135 -62t78 -70q64 -69 64 -203q1 -176 -121 -292t-309 -116q-242 0 -397 166l-45 -160h-100zM762 1911q34 0 56 -22q22 -21 22 -59t-88 -151l-134 -170h-77l102 258q29 78 56 111q28 33 63 33z" />
    <glyph glyph-name="sacute" unicode="&#x15b;" horiz-adv-x="886" 
d="M92 -18v348h94q37 -123 117 -194q81 -70 177 -70t144 38t48 106t-54 106t-210 81t-228 107t-72 170q0 108 88 186q87 78 222 78q168 0 239 -111l23 111h90v-315h-90q-50 121 -108 176t-141 55t-131 -36t-48 -98t56 -102t208 -82t224 -102t71 -171q0 -113 -89 -197
t-230 -84q-184 0 -287 129l-23 -129h-90zM621 1481q35 0 57 -22q22 -21 20 -59q0 -38 -88 -151l-133 -170h-78l103 258q29 78 56 111q28 33 63 33z" />
    <glyph glyph-name="Scedilla" unicode="&#x15e;" horiz-adv-x="1171" 
d="M576 -485q-106 0 -197 61l39 66q78 -48 141 -48t95 24t32 67t-41 67t-92 25q-51 0 -88 -10l-29 38l158 166q-201 18 -336 162l-45 -160h-100v465h92q95 -200 201 -286t240 -86t207 64t73 181q0 149 -146 212q-76 35 -188 64q-111 29 -160 45q-48 16 -112 50
q-64 33 -101 70t-62 97q-26 60 -26 136q0 161 113 271t297 110q100 0 191 -40t151 -107l41 141h100v-440h-92q-141 350 -402 350q-104 0 -172 -62t-68 -167q0 -104 67 -170q57 -57 255 -106q105 -27 196 -55t135 -62t78 -70q64 -69 64 -220q-1 -151 -111 -265t-284 -124
l-104 -106l2 -6q98 -2 156 -47t58 -121t-60 -125t-166 -49z" />
    <glyph glyph-name="scedilla" unicode="&#x15f;" horiz-adv-x="886" 
d="M641 -311q-1 -76 -61 -125t-166 -49t-197 61l39 66q78 -48 142 -48t95 24t31 67t-41 67t-92 25q-51 0 -88 -10l-29 38l170 179q-156 18 -239 127l-23 -129h-90v348h94q37 -123 117 -194q81 -70 177 -70t144 38t48 106t-54 106t-210 81t-228 107t-72 170q0 108 88 186
q87 78 222 78q168 0 239 -111l23 111h90v-315h-90q-50 121 -108 176t-141 55t-131 -36t-48 -98t56 -102t208 -82t224 -102t71 -166q0 -106 -72 -186t-192 -96l-123 -123l2 -6q98 -2 156 -47t59 -121z" />
    <glyph glyph-name="Scaron" unicode="&#x160;" horiz-adv-x="1171" 
d="M113 -27v465h92q95 -200 201 -286t240 -86t207 64t73 181q0 149 -146 212q-76 35 -188 64q-111 29 -160 45q-48 16 -112 50q-64 33 -101 70t-62 97q-26 60 -26 136q0 161 113 271t297 110q100 0 191 -40t151 -107l41 141h100v-440h-92q-141 350 -402 350q-104 0 -172 -62
t-68 -167q0 -104 67 -170q57 -57 255 -106q105 -27 196 -55t135 -62t78 -70q64 -69 64 -203q1 -176 -121 -292t-309 -116q-242 0 -397 166l-45 -160h-100zM557 1530l-223 371h80l180 -207l180 207h80l-221 -371h-76z" />
    <glyph glyph-name="scaron" unicode="&#x161;" horiz-adv-x="886" 
d="M92 -18v348h94q37 -123 117 -194q81 -70 177 -70t144 38t48 106t-54 106t-210 81t-228 107t-72 170q0 108 88 186q87 78 222 78q168 0 239 -111l23 111h90v-315h-90q-50 121 -108 176t-141 55t-131 -36t-48 -98t56 -102t208 -82t224 -102t71 -171q0 -113 -89 -197
t-230 -84q-184 0 -287 129l-23 -129h-90zM416 1100l-223 370h79l181 -206l180 206h80l-221 -370h-76z" />
    <glyph glyph-name="Tcommaaccent" unicode="&#x162;" horiz-adv-x="1372" 
d="M365 0v106h235v1133h-182q-113 0 -152 -62t-94 -305h-78v463h1184v-463h-78q-55 242 -94 304t-154 63h-180v-1133h236v-106h-643zM655 -362q-31 0 -57 28t-25 69q0 42 31 75q31 32 82 32t84 -39t33 -102q0 -201 -223 -301l-31 59q150 74 166 189l-6 4q-23 -14 -54 -14z
" />
    <glyph glyph-name="tcommaaccent" unicode="&#x163;" horiz-adv-x="716" 
d="M360 915h302v-100h-302v-579q0 -143 115 -144q96 0 154 164l73 -29q-70 -246 -268 -245q-115 0 -174 66t-59 183v584h-187v100h187v246l159 21v-267zM354 -362q-32 0 -58 28t-26 69q0 42 31 75q31 32 82 32t84 -39t33 -102q-1 -201 -224 -301l-30 59q150 74 166 189l-6 4
q-20 -14 -52 -14z" />
    <glyph glyph-name="Tcaron" unicode="&#x164;" horiz-adv-x="1372" 
d="M365 0v106h235v1133h-182q-113 0 -152 -62t-94 -305h-78v463h1184v-463h-78q-55 242 -94 304t-154 63h-180v-1133h236v-106h-643zM651 1530l-223 371h80l180 -207l180 207h80l-221 -371h-76z" />
    <glyph glyph-name="tcaron" unicode="&#x165;" horiz-adv-x="716" 
d="M360 915h302v-100h-302v-579q0 -143 115 -144q96 0 154 164l73 -29q-70 -246 -268 -245q-115 0 -174 66t-59 183v584h-187v100h187v246l159 21v-267zM590 1538q31 0 51 -22q21 -22 21 -63q0 -40 -25 -130l-62 -233h-65l-6 294q-2 154 86 154z" />
    <glyph glyph-name="Umacron" unicode="&#x16a;" horiz-adv-x="1503" 
d="M522 1548v127h514v-127h-514zM750 -33q-250 0 -379 119t-129 317v828h-197v104h576v-104h-207v-782q0 -189 96 -275t274 -86t274 95q95 95 95 315v733h-207v104h514v-104h-188v-809q0 -199 -136 -327t-386 -128z" />
    <glyph glyph-name="umacron" unicode="&#x16b;" horiz-adv-x="1128" 
d="M299 1118v127h514v-127h-514zM434 -16q-118 0 -182 76t-64 216v539h-151v107h309v-574q0 -141 53 -192q35 -41 124 -41t171 93t82 204v403h-158v107h318v-816h151v-106h-307v236q-147 -252 -346 -252z" />
    <glyph glyph-name="Ubreve" unicode="&#x16c;" horiz-adv-x="1503" 
d="M779 1524q-115 0 -187 82t-78 225h64q53 -180 200 -180t201 180h63q-4 -143 -76 -225t-187 -82zM750 -33q-250 0 -379 119t-129 317v828h-197v104h576v-104h-207v-782q0 -189 96 -275t274 -86t274 95q95 95 95 315v733h-207v104h514v-104h-188v-809q0 -199 -136 -327
t-386 -128z" />
    <glyph glyph-name="ubreve" unicode="&#x16d;" horiz-adv-x="1128" 
d="M556 1094q-116 0 -188 82t-77 225h63q52 -180 200 -180t202 180h63q-3 -143 -75 -225t-188 -82zM434 -16q-118 0 -182 76t-64 216v539h-151v107h309v-574q0 -141 53 -192q35 -41 124 -41t171 93t82 204v403h-158v107h318v-816h151v-106h-307v236q-147 -252 -346 -252z
" />
    <glyph glyph-name="Uring" unicode="&#x16e;" horiz-adv-x="1503" 
d="M750 -33q-250 0 -379 119t-129 317v828h-197v104h576v-104h-207v-782q0 -189 96 -275t274 -86t274 95q95 95 95 315v733h-207v104h514v-104h-188v-809q0 -199 -136 -327t-386 -128zM778 1565q55 0 87 39t32 100t-32 101t-87 40t-87 -40t-32 -101t32 -100t87 -39z
M778 1497q-100 1 -157 61t-58 146t57 146t158 60t158 -60t57 -146q1 -86 -57 -146t-158 -61z" />
    <glyph glyph-name="uring" unicode="&#x16f;" horiz-adv-x="1128" 
d="M434 -16q-118 0 -182 76t-64 216v539h-151v107h309v-574q0 -141 53 -192q35 -41 124 -41t171 93t82 204v403h-158v107h318v-816h151v-106h-307v236q-147 -252 -346 -252zM555 1135q55 0 87 39t32 100t-32 101t-87 40t-87 -40t-32 -101t32 -100t87 -39zM555 1067
q-100 0 -158 60q-57 61 -57 147t57 146t157 60t158 -60t58 -146t-57 -147q-58 -60 -158 -60z" />
    <glyph glyph-name="Uhungarumlaut" unicode="&#x170;" horiz-adv-x="1503" 
d="M828 1911q34 -1 54 -21t21 -59q0 -39 -90 -150l-141 -172h-78l113 258q33 78 60 111t61 33zM1124 1911q34 -1 54 -21t20 -60t-90 -149l-141 -172h-78l112 258q37 80 63 112t60 32zM750 -33q-250 0 -379 119t-129 317v828h-197v104h576v-104h-207v-782q0 -189 96 -275
t274 -86t274 95q95 95 95 315v733h-207v104h514v-104h-188v-809q0 -199 -136 -327t-386 -128z" />
    <glyph glyph-name="uhungarumlaut" unicode="&#x171;" horiz-adv-x="1128" 
d="M606 1481q34 -1 53 -21q21 -20 21 -59t-90 -150l-141 -172h-78l112 258q33 78 61 111t62 33zM900 1481q34 -1 54 -21t20 -60t-89 -149l-142 -172h-77l112 258q37 80 63 112q25 32 59 32zM434 -16q-118 0 -182 76t-64 216v539h-151v107h309v-574q0 -141 53 -192
q35 -41 124 -41t171 93t82 204v403h-158v107h318v-816h151v-106h-307v236q-147 -252 -346 -252z" />
    <glyph glyph-name="Uogonek" unicode="&#x172;" horiz-adv-x="1503" 
d="M755 -485q-97 0 -152 48q-54 48 -54 122t42 136t136 146q-237 6 -361 124t-124 312v828h-197v104h576v-104h-207v-782q0 -189 96 -275t274 -86t274 95q95 95 95 315v733h-207v104h514v-104h-188v-809q0 -178 -114 -302t-322 -147l-2 -4q-154 -158 -154 -256q0 -51 31 -79
q73 -66 192 18l39 -58q-90 -79 -187 -79z" />
    <glyph glyph-name="uogonek" unicode="&#x173;" horiz-adv-x="1128" 
d="M434 -16q-118 0 -182 76t-64 216v539h-151v107h309v-574q0 -141 53 -192q35 -41 124 -41t171 93t82 204v403h-158v107h318v-816h151v-106h-67l-31 -31q-154 -158 -153 -256q0 -51 30 -79q72 -66 193 18l39 -58q-90 -80 -188 -80t-151 49q-54 48 -54 122t43 137t141 149
l33 29h-142v236q-147 -252 -346 -252z" />
    <glyph glyph-name="Wcircumflex" unicode="&#x174;" horiz-adv-x="2015" 
d="M782 1511l222 371h75l224 -371h-80l-181 209l-180 -209h-80zM1335 1231h-215l293 -1008h10l326 1008h-180v104h446v-104h-143l-418 -1239h-145l-283 950l-326 -950h-143l-389 1239h-174v104h567v-104h-207l308 -1008h10l299 891l-33 117h-172v104h569v-104z" />
    <glyph glyph-name="wcircumflex" unicode="&#x175;" horiz-adv-x="1540" 
d="M537 1081l221 371h76l223 -371h-80l-180 209l-181 -209h-79zM1030 815h-166l221 -651h7l223 651h-144v107h365v-107h-111l-299 -827h-131l-209 594l-241 -594h-129l-285 827h-127v107h449v-107h-156l211 -651h4l225 561l-30 90h-127v107h450v-107z" />
    <glyph glyph-name="Ycircumflex" unicode="&#x176;" horiz-adv-x="1304" 
d="M428 1511l221 371h76l223 -371h-80l-180 209l-180 -209h-80zM850 1231v104h453v-104h-158l-408 -668v-457h207v-106h-586v106h205v455l-383 670h-168v104h557v-104h-184l307 -559l330 559h-172z" />
    <glyph glyph-name="ycircumflex" unicode="&#x177;" horiz-adv-x="1001" 
d="M274 1081l222 371h75l224 -371h-80l-180 209l-181 -209h-80zM142 -68q48 0 77 -30t29 -72q0 -43 -19 -72q63 4 115 56t109 188l-326 813h-127v107h459v-107h-160l238 -633l245 633h-141v107h369v-107h-113l-317 -778q-84 -207 -173 -289t-185 -82t-145 40q-48 40 -48 98
t32 93q33 35 81 35z" />
    <glyph glyph-name="Ydieresis" unicode="&#x178;" horiz-adv-x="1304" 
d="M510 1556q-45 0 -75 32t-29 79q0 47 29 80q30 33 75 33t76 -33q30 -33 30 -80t-30 -79t-76 -32zM866 1556q-46 0 -76 32t-30 79t31 80t75 33t75 -33q30 -33 30 -80t-30 -79t-75 -32zM850 1231v104h453v-104h-158l-408 -668v-457h207v-106h-586v106h205v455l-383 670h-168
v104h557v-104h-184l307 -559l330 559h-172z" />
    <glyph glyph-name="Zacute" unicode="&#x179;" horiz-adv-x="1247" 
d="M80 0v76l854 1155h-512q-66 -1 -96 -21t-58 -91q-27 -71 -65 -240h-82v456h1036v-73l-848 -1156h553q63 0 95 25t58 97t64 245h80v-473h-1079zM803 1911q35 0 57 -22q22 -21 21 -59q0 -38 -88 -151l-134 -170h-77l102 258q29 78 56 111q28 33 63 33z" />
    <glyph glyph-name="zacute" unicode="&#x17a;" horiz-adv-x="935" 
d="M72 0v88l600 743h-326q-78 1 -106 -39t-62 -192h-76v322h766v-88l-604 -744h375q75 0 101 44t55 210h77v-344h-800zM664 1481q34 0 56 -22q22 -21 22 -59t-89 -151l-133 -170h-78l103 258q29 78 56 111q28 33 63 33z" />
    <glyph glyph-name="Zdotaccent" unicode="&#x17b;" horiz-adv-x="1247" 
d="M632 1518q-46 0 -78 32t-32 79q0 48 32 81t78 33t78 -32t32 -80t-32 -81q-32 -32 -78 -32zM80 0v76l854 1155h-512q-66 -1 -96 -21t-58 -91q-27 -71 -65 -240h-82v456h1036v-73l-848 -1156h553q63 0 95 25t58 97t64 245h80v-473h-1079z" />
    <glyph glyph-name="zdotaccent" unicode="&#x17c;" horiz-adv-x="935" 
d="M495 1313q45 0 77 -32t32 -80t-32 -81t-78 -33q-47 0 -78 32t-31 80t32 81t78 33zM72 0v88l600 743h-326q-78 1 -106 -39t-62 -192h-76v322h766v-88l-604 -744h375q75 0 101 44t55 210h77v-344h-800z" />
    <glyph glyph-name="Zcaron" unicode="&#x17d;" horiz-adv-x="1247" 
d="M80 0v76l854 1155h-512q-66 -1 -96 -21t-58 -91q-27 -71 -65 -240h-82v456h1036v-73l-848 -1156h553q63 0 95 25t58 97t64 245h80v-473h-1079zM598 1530l-223 371h80l180 -207l180 207h80l-221 -371h-76z" />
    <glyph glyph-name="zcaron" unicode="&#x17e;" horiz-adv-x="935" 
d="M72 0v88l600 743h-326q-78 1 -106 -39t-62 -192h-76v322h766v-88l-604 -744h375q75 0 101 44t55 210h77v-344h-800zM461 1100l-223 370h79l181 -206l180 206h80l-221 -370h-76z" />
    <glyph glyph-name="Aringacute" unicode="&#x1fa;" horiz-adv-x="1376" 
d="M440 106v-106h-448v106h143l481 1229q-68 19 -104 73t-35 131t57 137t156 60t156 -60t57 -137q0 -77 -35 -130t-100 -72l453 -1231h172v-106h-574v106h211l-133 375h-494l-143 -375h180zM862 578l-200 567h-7l-217 -567h424zM690 1391q55 0 88 40t33 101t-33 100t-88 39
t-88 -39t-33 -100t33 -101t88 -40zM850 2222q34 0 56 -22t22 -59q0 -38 -88 -150l-133 -170h-78l102 258q29 79 57 111t62 32z" />
    <glyph glyph-name="aringacute" unicode="&#x1fb;" horiz-adv-x="989" 
d="M496 1135q55 0 87 39t31 100q0 61 -31 101q-32 40 -87 40t-87 -40t-32 -101t32 -100t87 -39zM496 1067q-100 0 -158 60q-57 61 -57 147t57 146q58 60 158 60t157 -60t57 -146t-56 -146q-58 -60 -158 -61zM658 1968q34 0 56 -22t22 -59q0 -38 -89 -150l-133 -170h-78
l103 258q29 79 57 111t62 32zM428 94q84 0 155 60t70 137v182q-23 -9 -141 -27t-181 -60q-62 -42 -63 -132q0 -160 160 -160zM342 -14q-110 0 -178 66q-70 66 -70 168q0 104 58 162t134 85t198 46t146 29t23 33v91q0 98 -47 141q-46 43 -150 43t-169 -53q55 -29 55 -85
t-29 -84q-29 -30 -77 -30t-79 31q-30 31 -30 80q-1 99 107 163t255 64q324 0 324 -277v-481q0 -45 14 -63t47 -19q47 0 82 82l62 -35q-37 -81 -80 -117t-111 -36q-69 0 -111 42t-44 128h-6q-46 -78 -130 -126t-194 -48z" />
    <glyph glyph-name="AEacute" unicode="&#x1fc;" horiz-adv-x="1961" 
d="M434 106v-106h-483v106h164l651 1125h-211v104h1270v-417h-82q-43 205 -75 259t-126 54h-461v-498h203q90 0 117 33t49 172h84v-510h-84q-20 143 -47 178t-119 35h-203v-535h457q110 0 144 60t79 293h82v-459h-1161v106h225v396h-436l-225 -396h188zM907 598v633h-14
l-365 -633h379zM1213 1911q35 0 57 -22q22 -21 20 -59q0 -38 -88 -151l-133 -170h-78l103 258q29 78 56 111q28 33 63 33z" />
    <glyph glyph-name="aeacute" unicode="&#x1fd;" horiz-adv-x="1523" 
d="M986 1481q34 0 56 -22q22 -21 21 -59q0 -38 -88 -151l-133 -170h-78l102 258q29 78 57 111q29 33 63 33zM428 94q84 0 155 60t70 137v182q-23 -9 -141 -27t-181 -60q-62 -42 -63 -132q0 -160 160 -160zM1061 850q-102 0 -167 -79t-79 -230h469q-22 309 -223 309zM1098 90
q188 0 260 180h86q-84 -289 -381 -288q-127 0 -219 59t-139 158q-57 -105 -153 -159t-207 -54t-181 66t-70 168q0 104 58 162t134 85t198 46t146 29t23 33v91q0 98 -47 141q-46 43 -150 43t-169 -53q55 -29 55 -85t-29 -84q-29 -30 -77 -30t-79 31q-30 31 -30 80
q-1 99 107 163t255 64q219 0 283 -135q115 137 300 137q186 0 284 -143t94 -342h-637q2 -175 78 -269t207 -94z" />
    <glyph glyph-name="Oslashacute" unicode="&#x1fe;" 
d="M898 1911q34 0 56 -22q22 -21 21 -59q0 -38 -88 -151l-133 -170h-78l102 258q29 78 57 111q29 33 63 33zM293 683q0 -257 90 -409l631 865q-113 119 -285 118q-205 -1 -321 -159t-115 -415zM744 76q188 0 305 158t117 414t-91 409l-633 -862q114 -119 302 -119zM729 1366
q207 0 371 -125l114 162h132l-172 -227q186 -201 186 -504t-184 -504t-447 -201q-209 0 -373 125l-114 -162h-129l172 228q-189 199 -189 503q0 305 186 505t447 200z" />
    <glyph glyph-name="oslashacute" unicode="&#x1ff;" horiz-adv-x="1048" 
d="M692 1481q34 0 57 -22q21 -21 21 -59t-88 -151l-133 -170h-78l102 258q29 78 57 111t62 33zM534 72q117 0 189 98t72 263t-45 259l-406 -538q73 -82 190 -82zM252 459q0 -135 43 -232l410 537q-72 84 -190 84q-119 0 -191 -98t-72 -291zM80 453q0 213 127 349t317 136
q147 0 258 -76l84 113h107l-129 -166q125 -135 125 -345t-127 -346t-318 -136q-147 0 -258 75l-84 -112h-106l127 166q-123 129 -123 342z" />
    <glyph glyph-name="Scommaaccent" unicode="&#x218;" horiz-adv-x="1171" 
d="M113 -27v465h92q95 -200 201 -286t240 -86t207 64t73 181q0 149 -146 212q-76 35 -188 64q-111 29 -160 45q-48 16 -112 50q-64 33 -101 70t-62 97q-26 60 -26 136q0 161 113 271t297 110q100 0 191 -40t151 -107l41 141h100v-440h-92q-141 350 -402 350q-104 0 -172 -62
t-68 -167q0 -104 67 -170q57 -57 255 -106q105 -27 196 -55t135 -62t78 -70q64 -69 64 -203q1 -176 -121 -292t-309 -116q-242 0 -397 166l-45 -160h-100zM562 -362q-30 0 -56 28t-25 69q0 42 31 75q31 32 82 32t84 -39t33 -102q-1 -201 -224 -301l-30 59q150 74 166 189
l-7 4q-24 -14 -54 -14z" />
    <glyph glyph-name="scommaaccent" unicode="&#x219;" horiz-adv-x="886" 
d="M92 -18v348h94q37 -123 117 -194q81 -70 177 -70t144 38t48 106t-54 106t-210 81t-228 107t-72 170q0 108 88 186q87 78 222 78q168 0 239 -111l23 111h90v-315h-90q-50 121 -108 176t-141 55t-131 -36t-48 -98t56 -102t208 -82t224 -102t71 -171q0 -113 -89 -197
t-230 -84q-184 0 -287 129l-23 -129h-90zM422 -362q-30 0 -56 28t-26 69q0 42 31 75q31 32 81 32t84 -39t33 -102q0 -201 -223 -301l-31 59q150 74 166 189l-6 4q-23 -14 -53 -14z" />
    <glyph glyph-name="schwa" unicode="&#x259;" horiz-adv-x="974" 
d="M467 86q102 0 170 80t82 229h-479q22 -309 227 -309zM456 -2q-187 0 -286 143q-98 143 -94 342h647q-4 175 -83 269t-212 94q-190 0 -262 -180h-86q41 141 140 215t243 73q199 0 315 -130t117 -339q0 -209 -126 -348t-313 -139z" />
    <glyph glyph-name="circumflex" unicode="&#x2c6;" horiz-adv-x="612" 
d="M47 1081l221 371h76l223 -371h-80l-180 209l-180 -209h-80z" />
    <glyph glyph-name="caron" unicode="&#x2c7;" horiz-adv-x="612" 
d="M270 1100l-223 370h80l180 -206l180 206h80l-221 -370h-76z" />
    <glyph glyph-name="breve" unicode="&#x2d8;" horiz-adv-x="688" 
d="M345 1094q-115 0 -187 82t-78 225h63q53 -180 201 -180t201 180h63q-4 -143 -76 -225t-187 -82z" />
    <glyph glyph-name="dotaccent" unicode="&#x2d9;" horiz-adv-x="393" 
d="M196 1313q46 0 78 -32t31 -80q1 -48 -31 -81t-79 -33t-78 32t-31 80t32 81t78 33z" />
    <glyph glyph-name="ring" unicode="&#x2da;" horiz-adv-x="528" 
d="M264 1135q55 0 87 39t32 100t-32 101t-87 40t-87 -40t-32 -101t32 -100t87 -39zM264 1067q-100 0 -158 60q-57 61 -57 147t57 146q58 60 158 60t158 -60t57 -146q0 -86 -57 -147q-58 -60 -158 -60z" />
    <glyph glyph-name="ogonek" unicode="&#x2db;" horiz-adv-x="550" 
d="M226 -485q-97 0 -151 48q-55 48 -55 122t43 137t142 149l65 58h95l-60 -60q-154 -158 -153 -256q0 -51 30 -79q72 -66 193 18l39 -58q-91 -79 -188 -79z" />
    <glyph glyph-name="tilde" unicode="&#x2dc;" horiz-adv-x="677" 
d="M210 1341q68 0 154 -58t115 -58q61 0 84 129h76q-18 -136 -60 -194q-43 -58 -111 -58t-154 59t-115 60q-61 0 -84 -129h-76q18 137 60 193q43 56 111 56z" />
    <glyph glyph-name="hungarumlaut" unicode="&#x2dd;" horiz-adv-x="589" 
d="M224 1481q34 -1 54 -21t21 -59q0 -39 -90 -150l-141 -172h-78l112 258q33 78 61 111q27 33 61 33zM520 1481q34 -1 53 -21q21 -20 21 -60t-90 -149l-142 -172h-77l112 258q37 80 63 112t60 32z" />
    <glyph glyph-name="commaaccent" unicode="&#x326;" horiz-adv-x="460" 
d="M181 -362q-31 0 -57 28t-26 69q0 42 31 75q31 32 82 32t84 -39t33 -102q-1 -201 -224 -301l-30 59q150 74 166 189l-7 4q-20 -14 -52 -14z" />
    <glyph glyph-name="Wgrave" unicode="&#x1e80;" horiz-adv-x="2015" 
d="M811 1830q0 38 22 60q21 22 55 21q34 0 62 -33t58 -111l102 -258h-78l-133 170q-88 113 -88 151zM1335 1231h-215l293 -1008h10l326 1008h-180v104h446v-104h-143l-418 -1239h-145l-283 950l-326 -950h-143l-389 1239h-174v104h567v-104h-207l308 -1008h10l299 891
l-33 117h-172v104h569v-104z" />
    <glyph glyph-name="wgrave" unicode="&#x1e81;" horiz-adv-x="1540" 
d="M565 1400q0 38 22 60q21 22 55 21q34 0 62 -33t58 -111l102 -258h-78l-133 170q-88 113 -88 151zM1030 815h-166l221 -651h7l223 651h-144v107h365v-107h-111l-299 -827h-131l-209 594l-241 -594h-129l-285 827h-127v107h449v-107h-156l211 -651h4l225 561l-30 90h-127
v107h450v-107z" />
    <glyph glyph-name="Wacute" unicode="&#x1e82;" horiz-adv-x="2015" 
d="M1213 1911q35 0 57 -22q22 -21 20 -59q0 -38 -88 -151l-133 -170h-78l103 258q29 78 56 111q28 33 63 33zM1335 1231h-215l293 -1008h10l326 1008h-180v104h446v-104h-143l-418 -1239h-145l-283 950l-326 -950h-143l-389 1239h-174v104h567v-104h-207l308 -1008h10
l299 891l-33 117h-172v104h569v-104z" />
    <glyph glyph-name="wacute" unicode="&#x1e83;" horiz-adv-x="1540" 
d="M967 1481q35 0 57 -22q22 -21 20 -59q0 -38 -88 -151l-133 -170h-78l103 258q29 78 56 111q28 33 63 33zM1030 815h-166l221 -651h7l223 651h-144v107h365v-107h-111l-299 -827h-131l-209 594l-241 -594h-129l-285 827h-127v107h449v-107h-156l211 -651h4l225 561l-30 90
h-127v107h450v-107z" />
    <glyph glyph-name="Wdieresis" unicode="&#x1e84;" horiz-adv-x="2015" 
d="M1221 1556q-45 0 -76 32t-31 79t31 80t76 33t75 -33t29 -80q1 -47 -29 -79t-75 -32zM864 1556q-44 0 -74 32t-30 79t30 80t74 33t76 -33q31 -33 31 -80t-31 -79t-76 -32zM1335 1231h-215l293 -1008h10l326 1008h-180v104h446v-104h-143l-418 -1239h-145l-283 950
l-326 -950h-143l-389 1239h-174v104h567v-104h-207l308 -1008h10l299 891l-33 117h-172v104h569v-104z" />
    <glyph glyph-name="wdieresis" unicode="&#x1e85;" horiz-adv-x="1540" 
d="M975 1126q-45 0 -76 32t-31 79t31 80t76 33t75 -33t30 -80t-30 -79t-75 -32zM618 1126q-44 0 -74 32t-30 79t30 80t74 33t76 -33q31 -33 31 -80t-31 -79t-76 -32zM1030 815h-166l221 -651h7l223 651h-144v107h365v-107h-111l-299 -827h-131l-209 594l-241 -594h-129
l-285 827h-127v107h449v-107h-156l211 -651h4l225 561l-30 90h-127v107h450v-107z" />
    <glyph glyph-name="Ygrave" unicode="&#x1ef2;" horiz-adv-x="1304" 
d="M459 1830q-1 38 21 60t56 21q34 0 61 -33q28 -33 58 -111l103 -258h-78l-133 170q-88 113 -88 151zM850 1231v104h453v-104h-158l-408 -668v-457h207v-106h-586v106h205v455l-383 670h-168v104h557v-104h-184l307 -559l330 559h-172z" />
    <glyph glyph-name="ygrave" unicode="&#x1ef3;" horiz-adv-x="1001" 
d="M305 1400q0 38 22 60q21 22 55 21q34 0 62 -33t58 -111l102 -258h-78l-133 170q-88 113 -88 151zM142 -68q48 0 77 -30t29 -72q0 -43 -19 -72q63 4 115 56t109 188l-326 813h-127v107h459v-107h-160l238 -633l245 633h-141v107h369v-107h-113l-317 -778
q-84 -207 -173 -289t-185 -82t-145 40q-48 40 -48 98t32 93q33 35 81 35z" />
    <glyph glyph-name="enspace" unicode="&#x2002;" horiz-adv-x="1024" 
 />
    <glyph glyph-name="emspace" unicode="&#x2003;" horiz-adv-x="2048" 
 />
    <glyph glyph-name="threeperemspace" unicode="&#x2004;" horiz-adv-x="681" 
 />
    <glyph glyph-name="fourperemspace" unicode="&#x2005;" horiz-adv-x="512" 
 />
    <glyph glyph-name="thinspace" unicode="&#x2009;" horiz-adv-x="272" 
 />
    <glyph glyph-name="hairspace" unicode="&#x200a;" horiz-adv-x="153" 
 />
    <glyph glyph-name="endash" unicode="&#x2013;" horiz-adv-x="1105" 
d="M113 432v117h880v-117h-880z" />
    <glyph glyph-name="emdash" unicode="&#x2014;" horiz-adv-x="1617" 
d="M113 432v117h1392v-117h-1392z" />
    <glyph glyph-name="quoteleft" unicode="&#x2018;" horiz-adv-x="438" 
d="M338 999q0 -45 -32 -79t-85 -33q-53 0 -88 42t-35 107q0 109 65 191t212 147l33 -61q-195 -92 -218 -219l9 -7q20 15 53 15q34 0 60 -29t26 -74z" />
    <glyph glyph-name="quoteright" unicode="&#x2019;" horiz-adv-x="438" 
d="M190 1153q-32 0 -59 29q-27 28 -27 72t32 78t85 34t88 -41t35 -108q1 -213 -278 -338l-31 61q195 92 217 221l-8 4q-22 -12 -54 -12z" />
    <glyph glyph-name="quotesinglbase" unicode="&#x201a;" horiz-adv-x="438" 
d="M190 -12q-32 0 -59 28t-27 73q0 44 32 78t85 34t88 -41t35 -109q1 -213 -278 -338l-31 62q195 92 217 221l-8 4q-22 -12 -54 -12z" />
    <glyph glyph-name="quotedblleft" unicode="&#x201c;" horiz-adv-x="796" 
d="M336 999q0 -45 -31 -79t-84 -33q-53 0 -88 42t-35 107q0 109 65 191t212 147l33 -61q-197 -92 -220 -219l9 -7q23 15 55 15t58 -29t26 -74zM582 887q-53 0 -88 42t-35 107q0 215 278 338l31 -61q-195 -92 -217 -219l8 -7q20 15 53 15t60 -29q26 -29 26 -74t-32 -79
t-84 -33z" />
    <glyph glyph-name="quotedblright" unicode="&#x201d;" horiz-adv-x="796" 
d="M190 1153q-32 0 -59 29q-27 28 -27 72t32 78t85 34t88 -41t35 -108q1 -213 -278 -338l-31 61q195 92 217 221l-8 4q-22 -12 -54 -12zM550 1153q-30 0 -58 29q-28 28 -27 72q0 44 32 78q33 34 85 34t88 -41t35 -108q0 -109 -65 -191t-212 -147l-33 61q197 92 219 221l-8 4
q-26 -12 -56 -12z" />
    <glyph glyph-name="quotedblbase" unicode="&#x201e;" horiz-adv-x="796" 
d="M190 -12q-32 0 -59 28t-27 73q0 44 32 78t85 34t88 -41t35 -109q1 -213 -278 -338l-31 62q195 92 217 221l-8 4q-22 -12 -54 -12zM550 -12q-30 0 -58 28t-27 73q0 44 32 78q33 34 85 34t88 -41t35 -109q0 -109 -65 -191t-212 -147l-33 62q197 92 219 221l-8 4
q-26 -12 -56 -12z" />
    <glyph glyph-name="dagger" unicode="&#x2020;" horiz-adv-x="1060" 
d="M274 867q0 -35 -26 -63t-65 -28q-41 0 -69 26t-28 74t43 90t129 42t238 -62l-58 365l17 43q33 80 75 80t76 -80l17 -43l-60 -387q141 -59 213 -60q18 0 25 2q-15 25 -15 61q0 35 26 63t66 28t68 -26t29 -74q0 -48 -43 -90t-128 -42t-237 62l35 -551v-313q0 -99 -45 -165
q-17 -26 -27 -26t-27 26q-46 70 -46 165v313l39 573q-141 59 -211 60q-18 0 -25 -2q14 -25 14 -61z" />
    <glyph glyph-name="daggerdbl" unicode="&#x2021;" horiz-adv-x="1060" 
d="M530 1434q42 0 76 -80l17 -43l-60 -387q141 -59 213 -60q18 0 25 2q-15 25 -15 61q0 35 26 63t66 28t68 -26t29 -74q0 -48 -43 -90t-128 -42t-237 62l35 -256l-35 -238q139 -59 209 -59q18 0 25 2q-36 75 11 126q26 28 66 28t68 -27t29 -75q0 -48 -43 -89t-129 -41
t-238 62l58 -365l-17 -45q-33 -78 -76 -78t-75 78l-17 45l60 385q-139 61 -213 61q-18 0 -25 -2q14 -30 14 -64t-26 -62t-65 -28q-41 0 -69 28q-28 26 -28 74t43 89t131 41t234 -59l-35 256l35 237q-145 57 -209 58q-18 0 -25 -2q14 -25 14 -61q0 -35 -26 -63t-65 -28
q-41 0 -69 26t-28 74t43 90q93 90 367 -20l-58 365l17 43q33 80 75 80z" />
    <glyph glyph-name="bullet" unicode="&#x2022;" horiz-adv-x="942" 
d="M471 395q-102 0 -175 73t-73 177t73 178t175 74t175 -74t73 -178t-73 -177t-175 -73z" />
    <glyph glyph-name="ellipsis" unicode="&#x2026;" horiz-adv-x="1296" 
d="M219 -31q-49 0 -83 34t-34 82t34 82t83 34t83 -34t34 -82t-34 -82t-83 -34zM648 -31q-48 0 -83 34t-35 82t35 82t83 34t82 -34t34 -82t-34 -82t-82 -34zM1077 -31q-49 0 -83 34t-34 82t34 82t83 34t83 -34t34 -82t-34 -82t-83 -34z" />
    <glyph glyph-name="guilsinglleft" unicode="&#x2039;" horiz-adv-x="610" 
d="M88 459q0 27 55 82l308 311l59 -41l-256 -350l256 -355l-59 -40l-308 311q-55 55 -55 82z" />
    <glyph glyph-name="guilsinglright" unicode="&#x203a;" horiz-adv-x="610" 
d="M522 459q0 -27 -55 -82l-307 -311l-60 40l256 351l-256 354l60 41l307 -311q55 -55 55 -82z" />
    <glyph glyph-name="Euro" unicode="&#x20ac;" horiz-adv-x="1316" 
d="M78 719v96h192q51 221 205 361t338 141q184 0 300 -84t116 -195q0 -55 -35 -98t-92 -43t-90 33q-33 32 -33 96t61 104q-58 84 -200 84t-252 -94t-144 -305h406v-96h-418q-2 -29 -2 -87t2 -85h418v-96h-404q32 -167 130 -261t236 -94t225 86t106 232h96
q-10 -182 -133 -314t-328 -133q-205 0 -339 134t-175 350h-186v96h172q-2 25 -2 68t4 104h-174z" />
    <glyph glyph-name="published" unicode="&#x2117;" horiz-adv-x="1611" 
d="M741 672h101q184 0 184 166q0 152 -182 151h-103v-317zM506 309v66h123v612h-123v68h344q158 -1 228 -61t71 -157q0 -97 -75 -163t-220 -66h-113v-233h136v-66h-371zM150 674q0 -282 190 -476t468 -194q276 0 465 195t189 477t-190 474q-190 194 -466 194t-466 -194
t-190 -476zM1542 675q0 -313 -213 -527t-523 -214t-523 214t-213 526t213 526q213 213 523 213t523 -213t213 -525z" />
    <glyph glyph-name="servicemark" unicode="&#x2120;" horiz-adv-x="1591" 
d="M659 733v60h91v485h-91v59l261 -2l159 -463h8l166 463h252v-57h-92v-485h92v-60h-268v60h72v460h-19l-192 -520h-70l-188 520h-21v-460h78v-60h-238zM104 723v213h56q80 -158 200 -158t119 103q1 35 -23 59t-53 32q-29 9 -89 24q-60 14 -98 30t-71 55t-33 105t55 117
q54 51 144 51t148 -68l20 64h56v-203h-54q-63 150 -174 149q-45 0 -76 -24t-31 -67q0 -41 26 -65q24 -24 50 -32t104 -28q80 -20 133 -54q52 -35 52 -117t-57 -135t-157 -53t-167 74l-20 -72h-60z" />
    <glyph glyph-name="trademark" unicode="&#x2122;" horiz-adv-x="1677" 
d="M207 733v60h117v487h-68q-54 0 -72 -29t-45 -139h-47v223h567v-223h-47q-25 108 -44 138t-70 30h-68v-487h115v-60h-338zM748 733v60h90v485h-90v57h260l159 -463h7l167 463h252v-57h-92v-485h92v-60h-270v60h74v460h-19l-192 -520h-72l-186 520h-21v-460h76v-60h-235z
" />
    <glyph glyph-name="minus" unicode="&#x2212;" horiz-adv-x="1069" 
d="M913 514h-757v111h757v-111z" />
    <glyph glyph-name="registered.alt" horiz-adv-x="1611" 
d="M694 702h127q168 0 168 154q0 131 -153 131h-142v-285zM694 641v-266h125v-66h-360v66h125v612h-125v68h379q138 -1 206 -55t68 -130q0 -163 -188 -194v-4q80 -18 114 -58t39 -106l8 -86q2 -51 39 -51q31 0 54 51l43 -19q-37 -109 -131 -108q-123 0 -125 139l-2 86
q-2 66 -31 94t-107 27h-131zM150 674q0 -282 190 -476t468 -194q276 0 465 195t189 477t-190 474q-190 194 -466 194t-466 -194t-190 -476zM1542 675q0 -313 -213 -527t-523 -214t-523 214t-213 526t213 526q213 213 523 213t523 -213t213 -525z" />
    <glyph glyph-name="zero.osf" horiz-adv-x="1142" 
d="M270 560q0 -220 82 -356t227 -136q144 0 219 133q74 133 74 354t-80 357q-82 136 -226 136t-220 -134t-76 -354zM575 1149q215 0 349 -171t135 -416t-137 -420t-353 -175t-349 171t-134 417t137 420t352 174z" />
    <glyph glyph-name="one.osf" horiz-adv-x="897" 
d="M115 0v106h286v791q-63 -33 -153 -33t-139 17v86q119 -2 214 42t138 124h108v-1027h277v-106h-731z" />
    <glyph glyph-name="two.osf" horiz-adv-x="1085" 
d="M546 1149q182 -1 286 -95t104 -225t-85 -217t-252 -147t-254 -134t-114 -145l5 -6q74 45 159 45t190 -50t163 -50t96 53q39 53 74 191l79 -7q-18 -203 -95 -299t-175 -96t-215 83t-174 83q-14 0 -51 -10q16 -27 16 -64q1 -37 -25 -65t-72 -27q-46 0 -77 39t-31 96
q0 113 98 221q98 107 272 189q173 82 232 148q60 66 60 167q0 103 -64 163t-174 61q-170 0 -246 -117q94 -29 95 -117q0 -51 -33 -85t-86 -34t-88 40t-35 100q0 119 118 215t299 96z" />
    <glyph glyph-name="three.osf" horiz-adv-x="1046" 
d="M942 203q0 -159 -122 -269t-312 -110q-188 0 -309 83t-121 199q0 56 35 96t89 40t86 -35t31 -84q0 -74 -63 -115q82 -86 222 -86t212 74t72 190q0 270 -340 271h-47v100h37q328 0 327 262q0 109 -63 170t-176 62q-158 0 -236 -101q39 -14 64 -46q24 -32 24 -74t-30 -78
q-30 -35 -84 -35q-53 0 -90 38q-36 38 -35 97q0 117 113 207q114 90 294 90t290 -94q110 -95 110 -221t-84 -208t-242 -116v-4q168 -20 258 -99t90 -204z" />
    <glyph glyph-name="four.osf" horiz-adv-x="1132" 
d="M821 -51h172v-103h-510v103h174v278h-600v109l602 803h162v-803h269v-109h-269v-278zM659 336v620h-6l-463 -620h469z" />
    <glyph glyph-name="five.osf" horiz-adv-x="1034" 
d="M774 254q0 303 -260 303q-131 0 -258 -119l-82 25l45 655l25 21q180 -74 348 -74t295 72l26 -58q-121 -174 -333 -174q-126 0 -263 53l-26 -389q115 88 281 88t273 -109q105 -110 105 -282t-119 -307t-331 -135q-160 0 -283 87t-123 208q0 61 37 104t91 43t83 -33t29 -79
q0 -86 -84 -123q84 -109 230 -109t220 90t74 242z" />
    <glyph glyph-name="six.osf" horiz-adv-x="1075" 
d="M560 688q-120 0 -198 -87t-77 -217q-1 -130 77 -223t199 -93t185 89t65 226q0 137 -65 221q-66 84 -186 84zM987 400q0 -174 -115 -304q-114 -130 -322 -129q-208 0 -330 164q-122 163 -122 449t158 499t393 213q145 0 230 -66q84 -67 84 -161q0 -63 -34 -103t-90 -40
t-86 30t-30 78q0 82 84 111q-59 53 -160 53q-159 0 -265 -161t-110 -429q124 186 316 186t296 -108t103 -282z" />
    <glyph glyph-name="seven.osf" horiz-adv-x="1017" 
d="M326 -78q0 154 111 409t261 415t166 198l-6 6q-108 -61 -190 -61t-173 43t-133 43q-70 0 -108 -68t-53 -243h-101v462h109l8 -165h6q57 176 191 176q66 0 121 -42t105 -83t95 -41t86 20q-25 27 -25 68t28 69q26 28 70 29q44 0 72 -32q28 -31 28 -83t-36 -108
q-35 -56 -124 -160q-144 -164 -216 -352t-94 -475q-8 -123 -100 -123q-43 0 -71 25q-27 26 -27 73z" />
    <glyph glyph-name="eight.osf" horiz-adv-x="1073" 
d="M544 1194q-116 0 -182 -64t-67 -163q0 -99 74 -159t247 -108q182 82 183 263q0 99 -70 165q-69 66 -185 66zM250 326q0 -113 80 -187q80 -73 209 -73t207 72t77 170q1 99 -81 159t-291 121q-6 0 -15 4q-186 -80 -186 -266zM135 934q0 150 115 254t295 104t288 -94
t107 -223q0 -215 -225 -307q268 -100 268 -314q0 -162 -129 -274t-325 -113q-195 1 -315 99t-120 241q0 221 248 322q-207 94 -207 305z" />
    <glyph glyph-name="nine.osf" horiz-adv-x="1075" 
d="M791 728q0 138 -70 229q-71 91 -191 91t-193 -94q-73 -96 -73 -233t65 -222t187 -85t199 88q76 88 76 226zM543 1149q207 0 321 -165q114 -164 113 -452t-147 -498t-386 -210q-156 0 -248 71t-92 168q0 63 36 107t90 43q54 0 84 -32t30 -81q0 -80 -80 -112
q66 -66 180 -66q168 0 258 152t101 426q-109 -186 -326 -187q-176 0 -282 109q-107 108 -107 284t124 310t331 133z" />
    <glyph glyph-name="dollar.osf" horiz-adv-x="1067" 
d="M283 858q0 -68 47 -108t168 -76v370q-104 -12 -160 -65t-55 -121zM823 266q0 72 -51 117t-178 84v-391q104 8 167 63q62 55 62 127zM594 -174h-96v162q-176 8 -293 87t-117 179q0 53 35 92t87 39t83 -34q31 -35 31 -93t-64 -96q70 -74 238 -86v418q-186 53 -276 119
q-89 67 -89 193t97 217t268 110v141h96v-139q154 -6 260 -83t107 -173q0 -53 -32 -87t-79 -34t-78 30t-31 72q0 70 64 103q-68 76 -211 84v-400q197 -57 284 -130t87 -195q-1 -122 -97 -222t-274 -112v-162z" />
    <glyph glyph-name="sterling.osf" horiz-adv-x="1177" 
d="M223 59q82 0 135 138q-36 12 -86 12t-82 -26q-32 -27 -30 -59q0 -32 18 -48t45 -17zM891 498h-330q2 -8 2 -23q0 -98 -57 -192q72 -23 190 -89t175 -65q56 0 92 48q35 48 55 169l82 -6q-10 -197 -70 -284t-184 -87q-66 0 -132 33t-145 87q-78 54 -120 77
q-84 -199 -238 -199q-68 0 -113 38q-45 37 -45 109t76 134t215 61q37 0 74 -6q12 45 12 89t-33 106h-291v102h226q-51 84 -51 174q0 164 122 269q123 105 299 105t271 -76q96 -77 96 -177q0 -59 -36 -99t-88 -40t-87 32t-35 82q0 72 68 105q-45 76 -175 76q-130 -1 -202 -59
t-72 -132t20 -120t42 -84q20 -38 28 -56h359v-102z" />
    <glyph glyph-name="Euro.osf" horiz-adv-x="1300" 
d="M74 625v96h196q55 188 207 308t334 120t298 -82t116 -188q0 -57 -34 -99t-91 -41q-57 0 -91 33q-34 32 -34 94t61 97q-60 84 -200 84t-248 -78t-146 -248h400v-96h-414q-2 -19 -2 -71t4 -77h412v-96h-396q37 -137 129 -211q91 -74 229 -74t225 83t108 224h98
q-12 -178 -134 -307t-327 -129t-338 115t-176 299h-186v96h172q-2 18 -2 59t6 89h-176z" />
    <glyph glyph-name="yen.osf" horiz-adv-x="1325" 
d="M201 629h256l-238 385h-162v102h531v-102h-178l282 -467l301 467h-164v102h441v-102h-150l-254 -385h250v-97h-313l-62 -94v-51h375v-96h-375v-185h236v-106h-637v106h240v185h-379v96h379v45l-64 100h-315v97z" />
    <glyph glyph-name="hfjslug" horiz-adv-x="1421" 
d="M872 580q-33 0 -32 34q0 12 9 24t23 11q14 0 24 -11t9 -24q0 -34 -33 -34zM997 612h-22v35h22q20 0 21 -16q-1 -19 -21 -19zM659 823q-33 0 -33 45t33 78l41 -80q-16 -43 -41 -43zM645 1056q0 30 29 29q27 -1 27 -35t-31 -69q-25 45 -25 75zM494 662l28 -97h17l22 70h2
l23 -70h16l29 97h-17l-20 -72h-2l-23 72h-14l-23 -72h-2l-20 72h-16zM270 662v-95h17v66l51 -66h14v95h-16v-66l-51 66h-15zM395 662v-95h70v15h-53v26h47v15h-47v24h53v15h-70zM750 567h16v35l37 60h-19l-26 -46l-27 46h-18l37 -60v-35zM872 565q20 1 34 15q33 33 1 68
q-15 16 -35 16t-34 -16t-14 -34q0 -20 14 -34t34 -15zM1034 631q0 31 -35 31h-41v-95h17v31h24l21 -31h18l-24 35q20 8 20 29zM1071 662v-95h16v25l17 16l31 -41h20l-41 54l37 41h-21l-40 -50h-3v50h-16zM729 1047q0 63 -55 63q-25 0 -41 -18q-35 -39 12 -125
q-47 -37 -47 -83q0 -91 59 -89q39 0 60 49h2l24 -49l25 12l-35 65q13 29 27 80l-27 6q-8 -37 -16 -61h-2l-33 64q47 43 47 86zM985 799q63 0 64 73v281h-33v-281q0 -45 -33 -45q-16 0 -41 11v-31q20 -8 43 -8zM377 1153v-352h31v162h96v-162h31v352h-31v-162h-96v162h-31z
M819 1153v-352h31v160h78v28h-78v135h88v29h-119zM1319 -410h-426l-16 29h-334l-17 -29h-424v621q29 0 48 19q18 19 18 46q0 26 -20 46t-46 20v1135h205l62 161h684l59 -161h207v-1887z" />
    <glyph glyph-name="i.dot" horiz-adv-x="614" 
d="M74 0v106h174v709h-174v107h332v-816h174v-106h-506zM314 1130q-50 0 -83 31t-33 83t33 86t83 34t82 -33t32 -84t-32 -84t-82 -33z" />
    <glyph glyph-name="caron.alt" horiz-adv-x="487" 
d="M238 1538q31 0 51 -22t20 -63q0 -40 -24 -130l-62 -233h-65l-6 294q-2 154 86 154z" />
    </font>
</defs>
</svg>
