<?xml version="1.0" standalone="no"?>
<!DOCTYPE svg PUBLIC "-//W3C//DTD SVG 20010904//EN"
 "http://www.w3.org/TR/2001/REC-SVG-20010904/DTD/svg10.dtd">
<svg version="1.0" xmlns="http://www.w3.org/2000/svg"
 width="700.000000pt" height="700.000000pt" viewBox="0 0 700.000000 700.000000"
 preserveAspectRatio="xMidYMid meet">
<metadata>
Created by potrace 1.11, written by Peter Selinger 2001-2013
</metadata>
<g transform="translate(0.000000,700.000000) scale(0.100000,-0.100000)"
fill="#000000" stroke="none">
<path d="M2420 5156 c0 -6 5 -29 10 -51 5 -22 12 -56 15 -75 3 -19 10 -53 15
-75 5 -22 12 -56 15 -75 3 -19 24 -125 46 -235 54 -272 81 -407 83 -425 2 -8
6 -28 9 -45 4 -16 8 -41 11 -55 2 -14 31 -162 64 -330 34 -168 63 -316 66
-330 3 -14 10 -50 15 -80 14 -72 10 -48 81 -410 34 -173 64 -325 66 -337 7
-39 12 -64 33 -168 11 -55 22 -111 25 -125 3 -14 10 -50 16 -80 6 -30 13 -68
16 -85 2 -16 7 -37 9 -45 2 -8 7 -28 10 -45 2 -16 7 -41 10 -55 21 -106 25
-128 29 -150 12 -75 19 -101 28 -106 11 -7 198 -8 205 -1 3 3 -2 36 -10 74 -9
37 -18 84 -21 103 -3 19 -26 137 -50 261 -25 124 -47 236 -50 250 -2 13 -18
94 -35 179 -16 85 -32 167 -35 183 -3 15 -8 39 -11 55 -3 15 -8 41 -12 57 -9
40 -8 34 -18 90 -4 28 -9 55 -11 60 -1 6 -12 57 -23 115 -11 58 -24 124 -29
148 l-10 42 229 0 c126 0 229 -3 229 -8 0 -4 25 -131 56 -282 30 -151 56 -283
57 -292 1 -17 45 -18 770 -18 l768 0 -6 43 c-3 23 -8 49 -10 57 -2 8 -7 29 -9
46 -3 17 -20 100 -37 185 -17 85 -33 165 -35 179 -3 14 -16 82 -30 152 -18 91
-22 132 -15 145 6 10 21 50 35 88 13 39 74 205 135 369 61 165 111 300 111
301 0 1 -190 2 -422 2 -233 1 -475 2 -538 2 l-115 1 -18 93 c-10 50 -19 101
-22 112 -2 11 -15 81 -30 155 -14 74 -30 158 -36 187 l-10 51 -507 1 c-279 0
-586 0 -683 1 l-177 0 -8 48 c-4 26 -8 49 -9 52 -1 3 -5 28 -9 56 l-8 51 -109
0 c-70 -1 -109 -5 -109 -11z m1446 -426 c1 -8 16 -85 33 -170 17 -85 33 -166
36 -180 2 -14 9 -50 15 -80 6 -30 13 -66 16 -80 2 -14 7 -36 10 -50 3 -14 8
-38 11 -55 3 -16 26 -137 52 -268 29 -145 44 -240 38 -244 -8 -5 -518 -7
-1009 -4 l-126 1 -6 28 c-33 168 -69 352 -72 372 -2 14 -11 59 -19 100 -71
354 -125 631 -125 640 0 7 187 9 572 8 498 -3 571 -5 574 -18z m1059 -617 c-8
-21 -57 -151 -108 -288 l-93 -250 12 -60 c7 -33 15 -73 17 -90 5 -29 30 -153
63 -318 8 -44 14 -86 12 -95 -3 -15 -55 -16 -542 -17 -296 0 -541 2 -546 5 -4
3 -13 30 -19 60 -6 30 -14 66 -17 80 -3 14 -7 39 -10 57 -2 18 -11 64 -19 103
-8 39 -15 75 -15 81 0 5 142 10 343 11 289 3 342 5 339 17 -12 56 -133 674
-137 703 l-6 37 370 1 371 0 -15 -37z"/>
</g>
</svg>
