<?xml version="1.0" encoding="utf-8"?>
<!-- Generator: Adobe Illustrator 18.1.1, SVG Export Plug-In . SVG Version: 6.00 Build 0)  -->
<svg version="1.1" id="Layer_1" xmlns="http://www.w3.org/2000/svg" xmlns:xlink="http://www.w3.org/1999/xlink" x="0px" y="0px"
	 width="680.7px" height="292.6px" viewBox="0 0 680.7 292.6" enable-background="new 0 0 680.7 292.6" xml:space="preserve">
<g>
	<g>
		<rect x="0" y="0" fill="#3E4446" width="680.7" height="292.6"/>
		<g>
			<g>
				<g>
					<polygon fill="#FAFAFA" points="55.8,85.7 66.4,75 87.8,75 87.8,67.2 55.8,67.2 					"/>
					<rect x="55.8" y="53.7" fill="#FAFAFA" width="32.1" height="8"/>
				</g>
			</g>
			<g>
				<g>
					<polygon fill="#DDE6E8" points="103.9,122.9 93.3,112.2 71.8,112.2 71.8,104.4 103.9,104.4 					"/>
					<rect x="71.8" y="90.9" fill="#DDE6E8" width="32.1" height="8"/>
				</g>
			</g>
			<g>
				<g>
					<polygon fill="#FAFAFA" points="55.8,160.1 66.4,149.4 87.8,149.4 87.8,141.6 55.8,141.6 					"/>
					<rect x="55.8" y="128.1" fill="#FAFAFA" width="32.1" height="8"/>
				</g>
			</g>
			<g>
				<g>
					<polygon fill="#DDE6E8" points="103.9,197.3 93.3,186.6 71.8,186.6 71.8,178.8 103.9,178.8 					"/>
					<rect x="71.8" y="165.3" fill="#DDE6E8" width="32.1" height="8"/>
				</g>
			</g>
			<g>
				<g>
					<polygon fill="#FAFAFA" points="55.8,234.4 66.4,223.8 87.8,223.8 87.8,216 55.8,216 					"/>
					<rect x="55.8" y="202.5" fill="#FAFAFA" width="32.1" height="8"/>
				</g>
			</g>
			<g>
				<g>
					<polygon fill="#FAFAFA" points="115.1,85.7 125.7,75 147.1,75 147.1,67.2 115.1,67.2 					"/>
					<rect x="115.1" y="53.7" fill="#FAFAFA" width="32.1" height="8"/>
				</g>
			</g>
			<g>
				<g>
					<polygon fill="#DDE6E8" points="163.2,122.9 152.6,112.2 131.1,112.2 131.1,104.4 163.2,104.4 					"/>
					<rect x="131.1" y="90.9" fill="#DDE6E8" width="32.1" height="8"/>
				</g>
			</g>
			<g>
				<g>
					<polygon fill="#FAFAFA" points="115.1,160.1 125.7,149.4 147.1,149.4 147.1,141.6 115.1,141.6 					"/>
					<rect x="115.1" y="128.1" fill="#FAFAFA" width="32.1" height="8"/>
				</g>
			</g>
			<g>
				<g>
					<polygon fill="#DDE6E8" points="163.2,197.3 152.6,186.6 131.1,186.6 131.1,178.8 163.2,178.8 					"/>
					<rect x="131.1" y="165.3" fill="#DDE6E8" width="32.1" height="8"/>
				</g>
			</g>
			<g>
				<g>
					<polygon fill="#FAFAFA" points="115.1,234.4 125.7,223.8 147.1,223.8 147.1,216 115.1,216 					"/>
					<rect x="115.1" y="202.5" fill="#FAFAFA" width="32.1" height="8"/>
				</g>
			</g>
			<g>
				<g>
					<polygon fill="#FAFAFA" points="174.4,85.7 185,75 206.4,75 206.4,67.2 174.4,67.2 					"/>
					<rect x="174.4" y="53.7" fill="#FAFAFA" width="32.1" height="8"/>
				</g>
			</g>
			<g>
				<g>
					<polygon fill="#DDE6E8" points="222.5,122.9 211.9,112.2 190.4,112.2 190.4,104.4 222.5,104.4 					"/>
					<rect x="190.4" y="90.9" fill="#DDE6E8" width="32.1" height="8"/>
				</g>
			</g>
			<g>
				<g>
					<polygon fill="#FAFAFA" points="174.4,160.1 185,149.4 206.4,149.4 206.4,141.6 174.4,141.6 					"/>
					<rect x="174.4" y="128.1" fill="#FAFAFA" width="32.1" height="8"/>
				</g>
			</g>
			<g>
				<g>
					<polygon fill="#DDE6E8" points="222.5,197.3 211.9,186.6 190.4,186.6 190.4,178.8 222.5,178.8 					"/>
					<rect x="190.4" y="165.3" fill="#DDE6E8" width="32.1" height="8"/>
				</g>
			</g>
			<g>
				<g>
					<polygon fill="#FAFAFA" points="174.4,234.4 185,223.8 206.4,223.8 206.4,216 174.4,216 					"/>
					<rect x="174.4" y="202.5" fill="#FAFAFA" width="32.1" height="8"/>
				</g>
			</g>
			<g>
				<g>
					<polygon fill="#FAFAFA" points="233.7,85.7 244.3,75 265.7,75 265.7,67.2 233.7,67.2 					"/>
					<rect x="233.7" y="53.7" fill="#FAFAFA" width="32.1" height="8"/>
				</g>
			</g>
			<g>
				<g>
					<polygon fill="#DDE6E8" points="281.8,122.9 271.2,112.2 249.7,112.2 249.7,104.4 281.8,104.4 					"/>
					<rect x="249.7" y="90.9" fill="#DDE6E8" width="32.1" height="8"/>
				</g>
			</g>
			<g>
				<g>
					<polygon fill="#FAFAFA" points="233.7,160.1 244.3,149.4 265.7,149.4 265.7,141.6 233.7,141.6 					"/>
					<rect x="233.7" y="128.1" fill="#FAFAFA" width="32.1" height="8"/>
				</g>
			</g>
			<g>
				<g>
					<polygon fill="#DDE6E8" points="281.8,197.3 271.2,186.6 249.7,186.6 249.7,178.8 281.8,178.8 					"/>
					<rect x="249.7" y="165.3" fill="#DDE6E8" width="32.1" height="8"/>
				</g>
			</g>
			<g>
				<g>
					<polygon fill="#FAFAFA" points="233.7,234.4 244.3,223.8 265.7,223.8 265.7,216 233.7,216 					"/>
					<rect x="233.7" y="202.5" fill="#FAFAFA" width="32.1" height="8"/>
				</g>
			</g>
			<g>
				<g>
					<polygon fill="#FAFAFA" points="293,85.7 303.6,75 325,75 325,67.2 293,67.2 					"/>
					<rect x="293" y="53.7" fill="#FAFAFA" width="32.1" height="8"/>
				</g>
			</g>
			<g>
				<g>
					<polygon fill="#DDE6E8" points="341.1,122.9 330.5,112.2 309,112.2 309,104.4 341.1,104.4 					"/>
					<rect x="309" y="90.9" fill="#DDE6E8" width="32.1" height="8"/>
				</g>
			</g>
			<g>
				<g>
					<polygon fill="#FAFAFA" points="293,160.1 303.6,149.4 325,149.4 325,141.6 293,141.6 					"/>
					<rect x="293" y="128.1" fill="#FAFAFA" width="32.1" height="8"/>
				</g>
			</g>
			<g>
				<g>
					<polygon fill="#DDE6E8" points="341.1,197.3 330.5,186.6 309,186.6 309,178.8 341.1,178.8 					"/>
					<rect x="309" y="165.3" fill="#DDE6E8" width="32.1" height="8"/>
				</g>
			</g>
			<g>
				<g>
					<polygon fill="#FAFAFA" points="293,234.4 303.6,223.8 325,223.8 325,216 293,216 					"/>
					<rect x="293" y="202.5" fill="#FAFAFA" width="32.1" height="8"/>
				</g>
			</g>
			<g>
				<g>
					<polygon fill="#FAFAFA" points="352.3,85.7 362.9,75 384.3,75 384.3,67.2 352.3,67.2 					"/>
					<rect x="352.3" y="53.7" fill="#FAFAFA" width="32.1" height="8"/>
				</g>
			</g>
			<g>
				<g>
					<polygon fill="#DDE6E8" points="400.4,122.9 389.8,112.2 368.3,112.2 368.3,104.4 400.4,104.4 					"/>
					<rect x="368.3" y="90.9" fill="#DDE6E8" width="32.1" height="8"/>
				</g>
			</g>
			<g>
				<g>
					<polygon fill="#FAFAFA" points="352.3,160.1 362.9,149.4 384.3,149.4 384.3,141.6 352.3,141.6 					"/>
					<rect x="352.3" y="128.1" fill="#FAFAFA" width="32.1" height="8"/>
				</g>
			</g>
			<g>
				<g>
					<polygon fill="#DDE6E8" points="400.4,197.3 389.8,186.6 368.3,186.6 368.3,178.8 400.4,178.8 					"/>
					<rect x="368.3" y="165.3" fill="#DDE6E8" width="32.1" height="8"/>
				</g>
			</g>
			<g>
				<g>
					<polygon fill="#FAFAFA" points="352.3,234.4 362.9,223.8 384.3,223.8 384.3,216 352.3,216 					"/>
					<rect x="352.3" y="202.5" fill="#FAFAFA" width="32.1" height="8"/>
				</g>
			</g>
			<g>
				<g>
					<polygon fill="#FAFAFA" points="411.6,85.7 422.2,75 443.6,75 443.6,67.2 411.6,67.2 					"/>
					<rect x="411.6" y="53.7" fill="#FAFAFA" width="32.1" height="8"/>
				</g>
			</g>
			<g>
				<g>
					<polygon fill="#DDE6E8" points="459.7,122.9 449.1,112.2 427.6,112.2 427.6,104.4 459.7,104.4 					"/>
					<rect x="427.6" y="90.9" fill="#DDE6E8" width="32.1" height="8"/>
				</g>
			</g>
			<g>
				<g>
					<polygon fill="#FAFAFA" points="411.6,160.1 422.2,149.4 443.6,149.4 443.6,141.6 411.6,141.6 					"/>
					<rect x="411.6" y="128.1" fill="#FAFAFA" width="32.1" height="8"/>
				</g>
			</g>
			<g>
				<g>
					<polygon fill="#DDE6E8" points="459.7,197.3 449.1,186.6 427.6,186.6 427.6,178.8 459.7,178.8 					"/>
					<rect x="427.6" y="165.3" fill="#DDE6E8" width="32.1" height="8"/>
				</g>
			</g>
			<g>
				<g>
					<polygon fill="#FAFAFA" points="411.6,234.4 422.2,223.8 443.6,223.8 443.6,216 411.6,216 					"/>
					<rect x="411.6" y="202.5" fill="#FAFAFA" width="32.1" height="8"/>
				</g>
			</g>
			<g>
				<g>
					<polygon fill="#FAFAFA" points="470.9,85.7 481.5,75 503,75 503,67.2 470.9,67.2 					"/>
					<rect x="470.9" y="53.7" fill="#FAFAFA" width="32.1" height="8"/>
				</g>
			</g>
			<g>
				<g>
					<polygon fill="#DDE6E8" points="519,122.9 508.4,112.2 486.9,112.2 486.9,104.4 519,104.4 					"/>
					<rect x="486.9" y="90.9" fill="#DDE6E8" width="32.1" height="8"/>
				</g>
			</g>
			<g>
				<g>
					<polygon fill="#FAFAFA" points="470.9,160.1 481.5,149.4 503,149.4 503,141.6 470.9,141.6 					"/>
					<rect x="470.9" y="128.1" fill="#FAFAFA" width="32.1" height="8"/>
				</g>
			</g>
			<g>
				<g>
					<polygon fill="#DDE6E8" points="519,197.3 508.4,186.6 486.9,186.6 486.9,178.8 519,178.8 					"/>
					<rect x="486.9" y="165.3" fill="#DDE6E8" width="32.1" height="8"/>
				</g>
			</g>
			<g>
				<g>
					<polygon fill="#FAFAFA" points="470.9,234.4 481.5,223.8 503,223.8 503,216 470.9,216 					"/>
					<rect x="470.9" y="202.5" fill="#FAFAFA" width="32.1" height="8"/>
				</g>
			</g>
			<g>
				<g>
					<polygon fill="#FAFAFA" points="530.2,85.7 540.8,75 562.2,75 562.2,67.2 530.2,67.2 					"/>
					<rect x="530.2" y="53.7" fill="#FAFAFA" width="32.1" height="8"/>
				</g>
			</g>
			<g>
				<g>
					<polygon fill="#DDE6E8" points="578.3,122.9 567.7,112.2 546.2,112.2 546.2,104.4 578.3,104.4 					"/>
					<rect x="546.2" y="90.9" fill="#DDE6E8" width="32.1" height="8"/>
				</g>
			</g>
			<g>
				<g>
					<polygon fill="#FAFAFA" points="530.2,160.1 540.8,149.4 562.2,149.4 562.2,141.6 530.2,141.6 					"/>
					<rect x="530.2" y="128.1" fill="#FAFAFA" width="32.1" height="8"/>
				</g>
			</g>
			<g>
				<g>
					<polygon fill="#DDE6E8" points="578.3,197.3 567.7,186.6 546.2,186.6 546.2,178.8 578.3,178.8 					"/>
					<rect x="546.2" y="165.3" fill="#DDE6E8" width="32.1" height="8"/>
				</g>
			</g>
			<g>
				<g>
					<polygon fill="#FAFAFA" points="530.2,234.4 540.8,223.8 562.2,223.8 562.2,216 530.2,216 					"/>
					<rect x="530.2" y="202.5" fill="#FAFAFA" width="32.1" height="8"/>
				</g>
			</g>
			<g>
				<g>
					<polygon fill="#FAFAFA" points="589.5,85.7 600.1,75 621.6,75 621.6,67.2 589.5,67.2 					"/>
					<rect x="589.5" y="53.7" fill="#FAFAFA" width="32.1" height="8"/>
				</g>
			</g>
			<g>
				<g>
					<polygon fill="#DDE6E8" points="637.6,122.9 627,112.2 605.5,112.2 605.5,104.4 637.6,104.4 					"/>
					<rect x="605.5" y="90.9" fill="#DDE6E8" width="32.1" height="8"/>
				</g>
			</g>
			<g>
				<g>
					<polygon fill="#FAFAFA" points="589.5,160.1 600.1,149.4 621.6,149.4 621.6,141.6 589.5,141.6 					"/>
					<rect x="589.5" y="128.1" fill="#FAFAFA" width="32.1" height="8"/>
				</g>
			</g>
			<g>
				<g>
					<polygon fill="#DDE6E8" points="637.6,197.3 627,186.6 605.5,186.6 605.5,178.8 637.6,178.8 					"/>
					<rect x="605.5" y="165.3" fill="#DDE6E8" width="32.1" height="8"/>
				</g>
			</g>
			<g>
				<g>
					<polygon fill="#FAFAFA" points="589.5,234.4 600.1,223.8 621.6,223.8 621.6,216 589.5,216 					"/>
					<rect x="589.5" y="202.5" fill="#FAFAFA" width="32.1" height="8"/>
				</g>
			</g>
		</g>
	</g>
</g>
<g>
</g>
<g>
</g>
<g>
</g>
<g>
</g>
<g>
</g>
<g>
</g>
<g>
</g>
<g>
</g>
<g>
</g>
<g>
</g>
<g>
</g>
<g>
</g>
<g>
</g>
<g>
</g>
<g>
</g>
</svg>
