<?xml version="1.0" encoding="utf-8"?>
<!-- Generator: Adobe Illustrator 18.1.1, SVG Export Plug-In . SVG Version: 6.00 Build 0)  -->
<svg version="1.1" id="Layer_1" xmlns="http://www.w3.org/2000/svg" xmlns:xlink="http://www.w3.org/1999/xlink" x="0px" y="0px"
	 width="657px" height="837.3px" viewBox="0 0 657 837.3" enable-background="new 0 0 657 837.3" xml:space="preserve">
<g>
	<rect x="0.5" y="48.8" fill="#FFFFFF" width="657" height="787.8"/>
	<g>
		<g>
			<rect x="0" y="50.2" fill="#FBF9F3" width="657" height="303.4"/>
			<g>
				<g>
					<defs>
						<rect id="SVGID_1_" x="0" y="50.2" width="657" height="303.4"/>
					</defs>
					<clipPath id="SVGID_2_">
						<use xlink:href="#SVGID_1_"  overflow="visible"/>
					</clipPath>
					<g clip-path="url(#SVGID_2_)">
						<g>
							<line fill="none" stroke="#5BBCC9" stroke-width="3.5726" stroke-miterlimit="10" x1="-7.7" y1="302" x2="72.8" y2="221.5"/>
							<g>
								<path fill="none" stroke="#1B3E4C" stroke-width="3.0623" stroke-miterlimit="10" d="M153.8,315.8c-2.1,0-3.8-1.7-3.8-3.8
									c0-2.1,1.7-3.8,3.8-3.8c2.1,0,3.8,1.7,3.8,3.8C157.6,314.1,155.9,315.8,153.8,315.8z"/>
								<path fill="#1B3E4C" stroke="#1B3E4C" stroke-width="3.5726" stroke-miterlimit="10" d="M157,331.2c-1.1,0-2-0.9-2-2
									c0-1.1,0.9-2,2-2c1.1,0,2,0.9,2,2C159,330.3,158.1,331.2,157,331.2z"/>
								<path fill="none" stroke="#1B3E4C" stroke-width="3.0623" stroke-miterlimit="10" d="M136.5,331.7c-4.1,0-7.4-3.3-7.4-7.3
									c0-4.1,3.3-7.3,7.3-7.4c4.1,0,7.3,3.3,7.4,7.3C143.8,328.4,140.6,331.7,136.5,331.7z"/>
							</g>
							
								<rect x="69" y="217" fill="#5BBCC9" stroke="#5BBCC9" stroke-width="3.5726" stroke-miterlimit="10" width="8.2" height="8.2"/>
							<g>
								<path fill="#5BBCC9" d="M95.6,194.7c-4,0-7.3,2.5-8.7,5.9c1.4,3.5,4.7,5.9,8.7,5.9c4,0,7.3-2.5,8.7-5.9
									C102.9,197.1,99.6,194.7,95.6,194.7z M95.6,204.5c-2.2,0-4-1.8-4-4c0-2.2,1.8-4,4-4c2.2,0,4,1.8,4,4
									C99.6,202.8,97.8,204.5,95.6,204.5z M95.6,198.2c-1.3,0-2.4,1.1-2.4,2.4c0,1.3,1.1,2.4,2.4,2.4c1.3,0,2.4-1.1,2.4-2.4
									C98,199.3,96.9,198.2,95.6,198.2z"/>
							</g>
							<g>
								
									<line fill="#5BBCC9" stroke="#5BBCC9" stroke-width="3.1425" stroke-miterlimit="10" x1="67.7" y1="361.1" x2="123.3" y2="305.5"/>
								<g>
									<path fill="none" stroke="#5BBCC9" stroke-width="3.1425" stroke-miterlimit="10" d="M135.6,236l-62.4,62.4
										c-3.9,4-3.9,10.4,0,14.3l0,0c4,3.9,10.4,3.9,14.3,0l19.1-19.1"/>
									<path fill="none" stroke="#5BBCC9" stroke-width="3.1425" stroke-miterlimit="10" d="M123.3,305.5l9.6-9.6
										c3.9-4,3.9-10.4,0-14.3l0,0c-4-4-10.4-4-14.3,0l-14.3,14.3"/>
								</g>
								
									<rect x="132.2" y="231.4" fill="#FFFFFF" stroke="#5BBCC9" stroke-width="3.1425" stroke-miterlimit="10" width="9.1" height="9.1"/>
							</g>
							<g>
								
									<line fill="none" stroke="#1B3E4C" stroke-width="3.1425" stroke-miterlimit="10" x1="-16.9" y1="350.4" x2="143.1" y2="190.4"/>
								<path fill="#1B3E4C" d="M152.1,188.1l1.7-1.7c0.6-0.6,0.6-1.6,0-2.2l-4.5-4.5c-0.6-0.6-1.6-0.6-2.2,0l-1.7,1.7l-0.6-0.6
									l-3.4,3.3l-1.7,5l-1.7,1.7l4.5,4.5l1.7-1.7l5-1.7l3.4-3.3L152.1,188.1z M148.2,180.8l4.5,4.5l-1.7,1.7l-1.1-1.1l1.1-1.1
									l-0.6-0.6l-1.1,1.1l-1.1-1.1l1.1-1.1l-0.6-0.6l-1.1,1.1l-1.1-1.1L148.2,180.8z"/>
							</g>
							<g>
								
									<line fill="none" stroke="#5BBCC9" stroke-width="3.1425" stroke-miterlimit="10" x1="-26.9" y1="193" x2="36.8" y2="129.3"/>
							</g>
							<g>
								<g>
									<g>
										<path fill="#1B3E4C" d="M49.7,316h6.9l2.8,2.8v-9.7c0-0.4-0.3-0.7-0.7-0.7h-9c-0.4,0-0.7,0.3-0.7,0.7v6.2
											C49,315.7,49.3,316,49.7,316z"/>
									</g>
								</g>
								<g>
									<g>
										<path fill="#1B3E4C" d="M48.9,326.5v-6.2c0-0.4-0.3-0.7-0.7-0.7h-9c-0.4,0-0.7,0.3-0.7,0.7v9.7l2.8-2.8h6.9
											C48.6,327.1,48.9,326.8,48.9,326.5z"/>
									</g>
								</g>
							</g>
							<g>
								<g>
									<g>
										<path fill="none" stroke="#1B3E4C" stroke-width="3.1425" stroke-miterlimit="10" d="M-3,202.6l38.8-38.8
											c4.1-4.1,10.6-4.1,14.7,0l0,0c4.1,4.1,4.1,10.6,0,14.7l-13.1,13.1"/>
										<path fill="none" stroke="#1B3E4C" stroke-width="3.1425" stroke-miterlimit="10" d="M100.7,157.7l-47.5,47.5
											c-4.1,4.1-10.6,4.1-14.7,0l0,0c-4.1-4.1-4.1-10.6,0-14.7l1.6-1.6"/>
									</g>
								</g>
								<g>
									<path fill="#1B3E4C" d="M102.2,156.2c-1-1-2.5-1-3.5,0c-1,1-1,2.5,0,3.5c1,1,2.5,1,3.5,0
										C103.2,158.7,103.2,157.1,102.2,156.2z"/>
									<g>
										<path fill="#1B3E4C" d="M105.7,152.7c-2.9-2.9-7.5-2.9-10.4,0c-1.3,1.3-2,3-2.1,4.7h2.5c0.1-1.1,0.6-2.1,1.4-2.9
											c1.9-1.9,5-1.9,6.9,0c1.9,1.9,1.9,5,0,6.9c-1,1-2.2,1.4-3.5,1.4v2.5c1.9,0,3.8-0.7,5.2-2.1
											C108.6,160.3,108.6,155.6,105.7,152.7z"/>
										<path fill="#1B3E4C" d="M109.1,149.3c-4.8-4.8-12.5-4.8-17.3,0c-2.3,2.3-3.4,5.2-3.6,8.1h2.4c0.1-2.3,1.1-4.6,2.8-6.4
											c3.8-3.8,10-3.8,13.9,0c3.8,3.8,3.8,10,0,13.9c-1.9,1.9-4.4,2.9-6.9,2.9v2.5c3.1,0,6.3-1.2,8.7-3.6
											C113.9,161.8,113.9,154,109.1,149.3z"/>
									</g>
								</g>
							</g>
							<g>
								<path fill="none" stroke="#5BBCC9" stroke-width="3.1425" stroke-miterlimit="10" d="M26.2,127.3c3.4,3.4,9.1,3.1,12.9-0.6"
									/>
								<path fill="none" stroke="#5BBCC9" stroke-width="3.1425" stroke-miterlimit="10" d="M38.4,139.5c-3.4-3.4-3.1-9.1,0.6-12.9
									"/>
							</g>
						</g>
						<g>
							
								<line fill="none" stroke="#1B3E4C" stroke-width="3.1648" stroke-miterlimit="10" x1="505.4" y1="143.2" x2="531.9" y2="116.7"/>
							<g>
								<path fill="none" stroke="#1B3E4C" stroke-width="3.1648" stroke-miterlimit="10" d="M506.6,145.2c0,1.9-1.5,3.4-3.4,3.4
									c-1.9,0-3.4-1.5-3.4-3.4c0-1.9,1.5-3.4,3.4-3.4C505.1,141.8,506.6,143.3,506.6,145.2z"/>
							</g>
						</g>
						<g>
							
								<line fill="none" stroke="#5BBCC9" stroke-width="3.1648" stroke-miterlimit="10" x1="667.1" y1="88.5" x2="614.8" y2="140.9"/>
							
								<rect x="610.3" y="137.1" fill="#FFFFFF" stroke="#5BBCC9" stroke-width="3.1648" stroke-miterlimit="10" width="8.3" height="8.3"/>
						</g>
						<g>
							<g>
								<path fill="none" stroke="#5BBCC9" stroke-width="3.1648" stroke-miterlimit="10" d="M669.2,148.7l-75.8,75.8
									c-4.1,4.1-10.8,4.1-15,0l0,0c-4.1-4.1-4.1-10.8,0-15l13.4-13.4"/>
								<path fill="none" stroke="#5BBCC9" stroke-width="3.1648" stroke-miterlimit="10" d="M523.5,234.5l52.1-52.1
									c4.1-4.1,10.8-4.1,15,0l0,0c4.1,4.1,4.1,10.8,0,15l-1.7,1.7"/>
							</g>
						</g>
						<g>
							<g>
								<g>
									<g>
										
											<line fill="none" stroke="#5BBCC9" stroke-width="3.1648" stroke-miterlimit="10" x1="549.1" y1="98.6" x2="516.3" y2="65.8"/>
										<g>
											<path fill="none" stroke="#5BBCC9" stroke-width="3.1648" stroke-miterlimit="10" d="M515.5,74.7
												c2.7-2.7,2.4-7.2-0.5-10.1"/>
											<path fill="none" stroke="#5BBCC9" stroke-width="3.1648" stroke-miterlimit="10" d="M525.2,65.1
												c-2.7,2.7-7.2,2.4-10.1-0.5"/>
										</g>
									</g>
									<path fill="none" stroke="#5BBCC9" stroke-width="3.1648" stroke-miterlimit="10" d="M562.6,85.1l-19.3,19.3
										c-3.3,3.3-3.3,8.6,0,11.9c3.3,3.3,8.6,3.3,11.9,0c3.3-3.3,3.3-8.6,0-11.9l-5.9-5.9"/>
								</g>
								
									<line fill="none" stroke="#5BBCC9" stroke-width="3.1648" stroke-miterlimit="10" x1="550.5" y1="97.1" x2="604.3" y2="43.2"/>
							</g>
						</g>
						<g>
							<line fill="none" stroke="#1B3E4C" stroke-width="3.1648" stroke-miterlimit="10" x1="680" y1="171.2" x2="598.3" y2="253"/>
						</g>
						<g>
							<path fill="none" stroke="#1B3E4C" stroke-width="3.1648" stroke-miterlimit="10" d="M609.2,255c-3.4-3.4-9.3-3.2-13.1,0.6"
								/>
							<path fill="none" stroke="#1B3E4C" stroke-width="3.1648" stroke-miterlimit="10" d="M596.8,242.5c3.4,3.4,3.2,9.3-0.6,13.1"
								/>
						</g>
						<g>
							<g>
								
									<line fill="none" stroke="#1B3E4C" stroke-width="3.1648" stroke-miterlimit="10" x1="666.1" y1="54.1" x2="523.4" y2="196.8"/>
							</g>
							<g>
								<circle fill="none" stroke="#1B3E4C" stroke-width="3.1648" stroke-miterlimit="10" cx="520.8" cy="199.6" r="4.8"/>
							</g>
						</g>
						<g>
							<path fill="#5BBCC9" stroke="#5BBCC9" stroke-width="3.598" stroke-miterlimit="10" d="M613.7,176.4c1.6,0.3,2.7,1.8,2.4,3.4
								c-0.3,1.6-1.8,2.7-3.4,2.4c-1.6-0.3-2.7-1.8-2.4-3.4C610.6,177.2,612.1,176.1,613.7,176.4z"/>
							<path fill="#1B3E4C" stroke="#1B3E4C" stroke-width="2.2921" stroke-miterlimit="10" d="M641.1,140.6
								c3.2,0.5,5.4,3.6,4.8,6.8c-0.5,3.2-3.6,5.4-6.8,4.8c-3.2-0.5-5.4-3.6-4.8-6.8C634.8,142.2,637.9,140.1,641.1,140.6z"/>
							<path fill="#5BBCC9" stroke="#5BBCC9" stroke-width="3.598" stroke-miterlimit="10" d="M597.2,156.9c1.6,0.3,2.7,1.8,2.4,3.4
								c-0.3,1.6-1.8,2.7-3.4,2.4c-1.6-0.3-2.7-1.8-2.4-3.4C594.1,157.7,595.6,156.6,597.2,156.9z"/>
							<path fill="none" stroke="#1B3E4C" stroke-width="2.2921" stroke-miterlimit="10" d="M620,157.5c2.1,0.4,3.6,2.4,3.2,4.5
								c-0.4,2.1-2.4,3.6-4.5,3.2c-2.1-0.4-3.6-2.4-3.2-4.5C615.8,158.6,617.9,157.1,620,157.5z"/>
						</g>
						<path fill="#1B3E4C" d="M520.5,243.2l-5.4-5.4c-0.6-0.6-1.6-0.6-2.2,0l-0.5,0.5l-1.1-1.1c-1.5-1.5-3.9-1.5-5.4,0l0,0
							c-1.5,1.5-1.5,3.9,0,5.4l1.1,1.1l-0.5,0.5c-0.6,0.6-0.6,1.6,0,2.2l5.4,5.4c0.6,0.6,1.6,0.6,2.2,0l3.2-3.2l3.2-3.2
							C521.1,244.7,521.1,243.7,520.5,243.2z M508,242.7l-1.1-1.1c-0.9-0.9-0.9-2.4,0-3.3h0c0.9-0.9,2.4-0.9,3.3,0l1.1,1.1l-1.7,1.7
							L508,242.7z M514.5,245.8c-0.6,0.6-1.6,0.6-2.2,0c-0.6-0.6-0.6-1.6,0-2.2c0.6-0.6,1.6-0.6,2.2,0
							C515.1,244.3,515.1,245.3,514.5,245.8L514.5,245.8z"/>
						
							<line fill="none" stroke="#5BBCC9" stroke-width="3.1648" stroke-miterlimit="10" x1="521.4" y1="231.2" x2="527.3" y2="237.1"/>
						<g>
							<path fill="#1B3E4C" d="M547.7,145.5c0-0.6-0.3-1.1-0.7-1.3l-7-4.1l-7,4.1c-0.4,0.3-0.7,0.8-0.7,1.3v7.8
								c0,0.9,0.7,1.6,1.6,1.6h12.5c0.9,0,1.6-0.7,1.6-1.6L547.7,145.5z"/>
							<g>
								<polygon fill="#FFFFFF" points="539.9,149.4 533.5,145.4 539.9,141.6 546.4,145.4 								"/>
							</g>
						</g>
						
							<line fill="#5BBCC9" stroke="#5BBCC9" stroke-width="3.1648" stroke-miterlimit="10" x1="580.8" y1="108.3" x2="650.7" y2="38.3"/>
						<g>
							<circle fill="#5BBCC9" cx="572.2" cy="117.1" r="2.2"/>
							<circle fill="#5BBCC9" cx="566.1" cy="123.1" r="2.2"/>
							<circle fill="#5BBCC9" cx="560" cy="129.6" r="2.2"/>
							<circle fill="#5BBCC9" cx="553.9" cy="135.4" r="2.2"/>
						</g>
						<g>
							<circle fill="none" stroke="#1B3E4C" stroke-width="2.6374" stroke-miterlimit="10" cx="513.3" cy="92.7" r="3.2"/>
							<circle fill="#1B3E4C" stroke="#1B3E4C" stroke-width="2.6374" stroke-miterlimit="10" cx="522" cy="102.7" r="1.7"/>
							<circle fill="none" stroke="#1B3E4C" stroke-width="2.6374" stroke-miterlimit="10" cx="506.1" cy="107.2" r="6.2"/>
						</g>
						
							<line fill="#5BBCC9" stroke="#5BBCC9" stroke-width="3.1648" stroke-miterlimit="10" x1="642.6" y1="241.2" x2="668.4" y2="215.5"/>
						<path fill="#5BBCC9" stroke="#5BBCC9" stroke-width="3.598" stroke-miterlimit="10" d="M643.6,243.5c-1,0.5-2.2,0.2-2.7-0.8
							c-0.5-1-0.2-2.2,0.8-2.7c1-0.5,2.2-0.2,2.7,0.8C644.9,241.7,644.6,243,643.6,243.5z"/>
						<g>
							<g>
								<polygon fill="#1B3E4C" points="543.9,76.7 547.9,72.7 556.1,72.7 556.1,69.7 543.9,69.7 								"/>
								<rect x="543.9" y="64.6" fill="#1B3E4C" width="12.2" height="3"/>
							</g>
						</g>
					</g>
				</g>
			</g>
		</g>
	</g>
	<rect x="0.5" y="546.7" fill="#5BBCC9" width="657" height="290.6"/>
	<g>
		<g>
			<path fill="#1B3E4C" d="M96.9,780.7H98l1.5,3.8l1.5-3.8h1.1l-2.2,5.5h-0.7L96.9,780.7z"/>
			<path fill="#1B3E4C" d="M104.2,782.3c1.2,0,2,0.9,2,2s-0.9,2-2,2s-2-0.9-2-2S103,782.3,104.2,782.3z M104.2,785.3
				c0.6,0,1-0.5,1-1s-0.4-1-1-1s-1,0.5-1,1S103.6,785.3,104.2,785.3z"/>
			<path fill="#1B3E4C" d="M110,786.2c-0.1,0-0.4,0.1-0.6,0.1c-0.6,0-1.1-0.2-1.3-0.6c-0.2-0.3-0.3-0.6-0.3-1.1v-1.3h-1.1v-0.9h1.1
				v-1.1h1v1.1h1.3v0.9h-1.3v1.5c0,0.2,0,0.4,0.1,0.5c0.1,0.1,0.3,0.2,0.5,0.2c0.1,0,0.3,0,0.4,0L110,786.2z"/>
			<path fill="#1B3E4C" d="M111.5,780.3c0.4,0,0.7,0.3,0.7,0.7c0,0.4-0.3,0.7-0.7,0.7s-0.7-0.3-0.7-0.7
				C110.9,780.6,111.1,780.3,111.5,780.3z M112,786.2h-1v-3.8h1V786.2z"/>
			<path fill="#1B3E4C" d="M113.2,786.2v-3.8h1v0.3c0.3-0.2,0.7-0.4,1.1-0.4c0.5,0,1,0.2,1.3,0.6c0.3,0.3,0.4,0.7,0.4,1.3v1.9h-1v-2
				c0-0.4-0.1-0.6-0.2-0.7c-0.1-0.1-0.3-0.2-0.6-0.2c-0.4,0-0.8,0.3-0.9,0.5v2.5H113.2z"/>
			<path fill="#1B3E4C" d="M121.8,786c0,0.7-0.1,1.1-0.3,1.4c-0.3,0.5-1,0.8-1.7,0.8c-0.7,0-1.5-0.3-1.8-0.8l0.6-0.7
				c0.2,0.2,0.6,0.6,1.2,0.6c0.3,0,0.6-0.1,0.8-0.3c0.2-0.2,0.2-0.4,0.2-0.9v-0.1c-0.3,0.2-0.6,0.3-1,0.3c-0.6,0-1.1-0.3-1.5-0.6
				c-0.3-0.3-0.5-0.8-0.5-1.3c0-1.1,0.8-2,1.9-2c0.4,0,0.8,0.1,1.1,0.4v-0.3h1V786z M120.7,783.7c-0.2-0.3-0.6-0.5-0.9-0.5
				c-0.6,0-1,0.5-1,1c0,0.6,0.4,1,1,1c0.4,0,0.7-0.2,0.9-0.5V783.7z"/>
		</g>
		<g>
			<path fill="#1B3E4C" d="M136.4,780.7h0.7l3.1,3.6v-3.6h1.1v5.5h-0.7l-3.1-3.6v3.6h-1.1V780.7z"/>
			<path fill="#1B3E4C" d="M146.1,786.2h-1v-0.3c-0.3,0.3-0.7,0.4-1.1,0.4c-0.6,0-1.1-0.3-1.4-0.6c-0.3-0.3-0.5-0.8-0.5-1.3
				c0-1.1,0.8-2,1.9-2c0.4,0,0.8,0.1,1.1,0.4v-0.3h1V786.2z M145.1,783.7c-0.2-0.3-0.6-0.5-0.9-0.5c-0.6,0-1,0.5-1,1
				c0,0.6,0.4,1,1,1c0.4,0,0.7-0.2,0.9-0.5V783.7z"/>
			<path fill="#1B3E4C" d="M150.2,786.2c-0.1,0-0.4,0.1-0.6,0.1c-0.6,0-1.1-0.2-1.3-0.6c-0.2-0.3-0.3-0.6-0.3-1.1v-1.3h-1.1v-0.9
				h1.1v-1.1h1v1.1h1.3v0.9h-1.3v1.5c0,0.2,0,0.4,0.1,0.5c0.1,0.1,0.3,0.2,0.5,0.2c0.1,0,0.3,0,0.4,0L150.2,786.2z"/>
			<path fill="#1B3E4C" d="M151.7,780.3c0.4,0,0.7,0.3,0.7,0.7c0,0.4-0.3,0.7-0.7,0.7s-0.7-0.3-0.7-0.7
				C151,780.6,151.3,780.3,151.7,780.3z M152.2,786.2h-1v-3.8h1V786.2z"/>
			<path fill="#1B3E4C" d="M155.1,782.3c1.2,0,2,0.9,2,2s-0.9,2-2,2s-2-0.9-2-2S154,782.3,155.1,782.3z M155.1,785.3
				c0.6,0,1-0.5,1-1s-0.4-1-1-1s-1,0.5-1,1S154.5,785.3,155.1,785.3z"/>
			<path fill="#1B3E4C" d="M158,786.2v-3.8h1v0.3c0.3-0.2,0.7-0.4,1.1-0.4c0.5,0,1,0.2,1.3,0.6c0.3,0.3,0.4,0.7,0.4,1.3v1.9h-1v-2
				c0-0.4-0.1-0.6-0.2-0.7c-0.1-0.1-0.3-0.2-0.6-0.2c-0.4,0-0.8,0.3-0.9,0.5v2.5H158z"/>
			<path fill="#1B3E4C" d="M166.6,786.2h-1v-0.3c-0.3,0.3-0.7,0.4-1.1,0.4c-0.6,0-1.1-0.3-1.4-0.6c-0.3-0.3-0.5-0.8-0.5-1.3
				c0-1.1,0.8-2,1.9-2c0.4,0,0.8,0.1,1.1,0.4v-0.3h1V786.2z M165.6,783.7c-0.2-0.3-0.6-0.5-0.9-0.5c-0.6,0-1,0.5-1,1
				c0,0.6,0.4,1,1,1c0.4,0,0.7-0.2,0.9-0.5V783.7z"/>
			<path fill="#1B3E4C" d="M168.8,786.2h-1v-5.6h1V786.2z"/>
			<path fill="#1B3E4C" d="M172.3,784.7c0.3,0.3,0.8,0.6,1.3,0.6c0.5,0,0.8-0.3,0.8-0.7c0-0.7-1-0.8-1.8-1.2
				c-0.4-0.3-0.8-0.6-0.8-1.3c0-1,0.9-1.6,1.8-1.6c0.6,0,1.1,0.1,1.6,0.5l-0.6,0.8c-0.2-0.2-0.6-0.4-1-0.4c-0.4,0-0.9,0.2-0.9,0.6
				c0,0.9,2.5,0.6,2.5,2.5c0,1-0.9,1.7-1.9,1.7c-0.7,0-1.4-0.3-2-0.8L172.3,784.7z"/>
			<path fill="#1B3E4C" d="M179.6,785.6c-0.4,0.4-1,0.7-1.6,0.7c-1.1,0-2-0.8-2-2c0-1.1,0.7-2,1.9-2c1.1,0,1.8,0.9,1.8,2
				c0,0.1,0,0.2,0,0.3H177c0.1,0.5,0.5,0.9,1,0.9c0.4,0,0.8-0.2,1-0.4L179.6,785.6z M178.7,783.8c0-0.3-0.3-0.7-0.8-0.7
				c-0.4,0-0.8,0.3-0.8,0.7H178.7z"/>
			<path fill="#1B3E4C" d="M184,785.4c-0.4,0.6-1,0.9-1.7,0.9c-1.2,0-2.1-0.9-2.1-2c0-1.1,0.9-2,2.1-2c0.7,0,1.3,0.3,1.6,0.8
				l-0.7,0.6c-0.2-0.3-0.5-0.5-0.9-0.5c-0.6,0-1,0.5-1,1c0,0.6,0.4,1,1.1,1c0.4,0,0.7-0.3,0.9-0.5L184,785.4z"/>
			<path fill="#1B3E4C" d="M188.5,782.4v3.8h-1v-0.3c-0.3,0.3-0.7,0.4-1,0.4c-0.5,0-1-0.2-1.3-0.6c-0.2-0.3-0.4-0.7-0.4-1.3v-2h1
				v2.1c0,0.3,0.1,0.5,0.2,0.7c0.2,0.2,0.4,0.2,0.6,0.2c0.4,0,0.7-0.3,0.9-0.5v-2.5H188.5z"/>
			<path fill="#1B3E4C" d="M192,783.3c-0.1,0-0.2,0-0.4,0c-0.4,0-0.8,0.3-0.9,0.6v2.4h-1v-3.8h1v0.4c0.2-0.3,0.6-0.5,1.1-0.5
				c0.1,0,0.2,0,0.3,0L192,783.3z"/>
			<path fill="#1B3E4C" d="M193.4,780.3c0.4,0,0.7,0.3,0.7,0.7c0,0.4-0.3,0.7-0.7,0.7s-0.7-0.3-0.7-0.7
				C192.7,780.6,193,780.3,193.4,780.3z M193.9,786.2h-1v-3.8h1V786.2z"/>
			<path fill="#1B3E4C" d="M198,786.2c-0.1,0-0.4,0.1-0.6,0.1c-0.6,0-1.1-0.2-1.3-0.6c-0.2-0.3-0.3-0.6-0.3-1.1v-1.3h-1.1v-0.9h1.1
				v-1.1h1v1.1h1.3v0.9h-1.3v1.5c0,0.2,0,0.4,0.1,0.5c0.1,0.1,0.3,0.2,0.5,0.2c0.1,0,0.3,0,0.4,0L198,786.2z"/>
			<path fill="#1B3E4C" d="M199.2,788.1l1.1-2.3l-1.7-3.4h1.1l1.1,2.3l1-2.3h1.1l-2.6,5.7H199.2z"/>
		</g>
		<g>
			<path fill="#1B3E4C" d="M215.2,783.4c0,1.1,0.8,1.9,1.9,1.9c0.7,0,1.2-0.3,1.6-0.8l0.7,0.7c-0.5,0.6-1.3,1.1-2.3,1.1
				c-1.7,0-2.9-1.3-2.9-2.8c0-1.6,1.2-2.8,2.9-2.8c0.8,0,1.5,0.3,2,0.8l-0.7,0.7c-0.3-0.3-0.8-0.6-1.3-0.6
				C216,781.5,215.2,782.4,215.2,783.4z"/>
			<path fill="#1B3E4C" d="M222.5,783.3c-0.1,0-0.2,0-0.4,0c-0.4,0-0.8,0.3-0.9,0.6v2.4h-1v-3.8h1v0.4c0.2-0.3,0.6-0.5,1.1-0.5
				c0.1,0,0.2,0,0.3,0L222.5,783.3z"/>
			<path fill="#1B3E4C" d="M223.9,780.3c0.4,0,0.7,0.3,0.7,0.7c0,0.4-0.3,0.7-0.7,0.7s-0.7-0.3-0.7-0.7
				C223.2,780.6,223.5,780.3,223.9,780.3z M224.4,786.2h-1v-3.8h1V786.2z"/>
			<path fill="#1B3E4C" d="M225.6,786.2v-3.8h1v0.3c0.3-0.3,0.7-0.4,1-0.4c0.5,0,1,0.2,1.3,0.6c0.3-0.3,0.8-0.6,1.4-0.6
				c0.5,0,1,0.2,1.3,0.6c0.2,0.3,0.4,0.7,0.4,1.3v2h-1v-2.1c0-0.3-0.1-0.5-0.2-0.7c-0.2-0.2-0.4-0.2-0.6-0.2c-0.4,0-0.8,0.3-0.9,0.5
				c0,0.1,0,0.3,0,0.4v2h-1v-2.1c0-0.3-0.1-0.5-0.2-0.7c-0.2-0.2-0.4-0.2-0.6-0.2c-0.4,0-0.7,0.3-0.9,0.5v2.5H225.6z"/>
			<path fill="#1B3E4C" d="M233.6,780.3c0.4,0,0.7,0.3,0.7,0.7c0,0.4-0.3,0.7-0.7,0.7s-0.7-0.3-0.7-0.7
				C232.9,780.6,233.2,780.3,233.6,780.3z M234.1,786.2h-1v-3.8h1V786.2z"/>
			<path fill="#1B3E4C" d="M235.3,786.2v-3.8h1v0.3c0.3-0.2,0.7-0.4,1.1-0.4c0.5,0,1,0.2,1.3,0.6c0.3,0.3,0.4,0.7,0.4,1.3v1.9h-1v-2
				c0-0.4-0.1-0.6-0.2-0.7c-0.1-0.1-0.3-0.2-0.6-0.2c-0.4,0-0.8,0.3-0.9,0.5v2.5H235.3z"/>
			<path fill="#1B3E4C" d="M243.9,786.2h-1v-0.3c-0.3,0.3-0.7,0.4-1.1,0.4c-0.6,0-1.1-0.3-1.4-0.6c-0.3-0.3-0.5-0.8-0.5-1.3
				c0-1.1,0.8-2,1.9-2c0.4,0,0.8,0.1,1.1,0.4v-0.3h1V786.2z M242.8,783.7c-0.2-0.3-0.6-0.5-0.9-0.5c-0.6,0-1,0.5-1,1
				c0,0.6,0.4,1,1,1c0.4,0,0.7-0.2,0.9-0.5V783.7z"/>
			<path fill="#1B3E4C" d="M246.1,786.2h-1v-5.6h1V786.2z"/>
			<path fill="#1B3E4C" d="M252.1,784.4c0,0.4,0,0.7-0.2,1c-0.3,0.5-0.9,0.8-1.5,0.8c-0.7,0-1.3-0.4-1.6-1l0.9-0.5
				c0.1,0.2,0.3,0.5,0.6,0.5c0.2,0,0.4-0.1,0.5-0.2c0.1-0.1,0.1-0.2,0.1-0.5v-3.9h1.1V784.4z"/>
			<path fill="#1B3E4C" d="M257,782.4v3.8h-1v-0.3c-0.3,0.3-0.7,0.4-1,0.4c-0.5,0-1-0.2-1.3-0.6c-0.2-0.3-0.4-0.7-0.4-1.3v-2h1v2.1
				c0,0.3,0.1,0.5,0.2,0.7c0.2,0.2,0.4,0.2,0.6,0.2c0.4,0,0.7-0.3,0.9-0.5v-2.5H257z"/>
			<path fill="#1B3E4C" d="M258.2,785c0.3,0.2,0.7,0.4,1,0.4c0.3,0,0.5-0.1,0.5-0.3c0-0.6-1.9-0.4-1.9-1.6c0-0.7,0.7-1.2,1.5-1.2
				c0.5,0,1,0.2,1.3,0.4l-0.5,0.7c-0.2-0.1-0.5-0.3-0.7-0.3c-0.3,0-0.5,0.1-0.5,0.3c0,0.5,1.9,0.3,1.9,1.6c0,0.7-0.7,1.2-1.5,1.2
				c-0.5,0-1.1-0.2-1.5-0.5L258.2,785z"/>
			<path fill="#1B3E4C" d="M264.6,786.2c-0.1,0-0.4,0.1-0.6,0.1c-0.6,0-1.1-0.2-1.3-0.6c-0.2-0.3-0.3-0.6-0.3-1.1v-1.3h-1.1v-0.9
				h1.1v-1.1h1v1.1h1.3v0.9h-1.3v1.5c0,0.2,0,0.4,0.1,0.5c0.1,0.1,0.3,0.2,0.5,0.2c0.1,0,0.3,0,0.4,0L264.6,786.2z"/>
			<path fill="#1B3E4C" d="M266.2,780.3c0.4,0,0.7,0.3,0.7,0.7c0,0.4-0.3,0.7-0.7,0.7s-0.7-0.3-0.7-0.7
				C265.5,780.6,265.8,780.3,266.2,780.3z M266.7,786.2h-1v-3.8h1V786.2z"/>
			<path fill="#1B3E4C" d="M271.3,785.4c-0.4,0.6-1,0.9-1.7,0.9c-1.2,0-2.1-0.9-2.1-2c0-1.1,0.9-2,2.1-2c0.7,0,1.3,0.3,1.6,0.8
				l-0.7,0.6c-0.2-0.3-0.5-0.5-0.9-0.5c-0.6,0-1,0.5-1,1c0,0.6,0.4,1,1.1,1c0.4,0,0.7-0.3,0.9-0.5L271.3,785.4z"/>
			<path fill="#1B3E4C" d="M275.3,785.6c-0.4,0.4-1,0.7-1.6,0.7c-1.1,0-2-0.8-2-2c0-1.1,0.7-2,1.9-2c1.1,0,1.8,0.9,1.8,2
				c0,0.1,0,0.2,0,0.3h-2.7c0.1,0.5,0.5,0.9,1,0.9c0.4,0,0.8-0.2,1-0.4L275.3,785.6z M274.4,783.8c0-0.3-0.3-0.7-0.8-0.7
				c-0.4,0-0.8,0.3-0.8,0.7H274.4z"/>
		</g>
		<g>
			<g>
				<path fill="#1B3E4C" d="M288.8,783.4c0,1.1,0.8,1.9,1.9,1.9c0.7,0,1.2-0.3,1.6-0.8l0.7,0.7c-0.5,0.6-1.3,1.1-2.3,1.1
					c-1.7,0-2.9-1.3-2.9-2.8c0-1.6,1.2-2.8,2.9-2.8c0.8,0,1.5,0.3,2,0.8l-0.7,0.7c-0.3-0.3-0.8-0.6-1.3-0.6
					C289.6,781.5,288.8,782.4,288.8,783.4z"/>
				<path fill="#1B3E4C" d="M295.4,782.3c1.2,0,2,0.9,2,2s-0.9,2-2,2s-2-0.9-2-2S294.3,782.3,295.4,782.3z M295.4,785.3
					c0.6,0,1-0.5,1-1s-0.4-1-1-1s-1,0.5-1,1S294.8,785.3,295.4,785.3z"/>
				<path fill="#1B3E4C" d="M298.3,786.2v-3.8h1v0.3c0.3-0.2,0.7-0.4,1.1-0.4c0.5,0,1,0.2,1.3,0.6c0.3,0.3,0.4,0.7,0.4,1.3v1.9h-1
					v-2c0-0.4-0.1-0.6-0.2-0.7c-0.1-0.1-0.3-0.2-0.6-0.2c-0.4,0-0.8,0.3-0.9,0.5v2.5H298.3z"/>
				<path fill="#1B3E4C" d="M303.4,785c0.3,0.2,0.7,0.4,1,0.4c0.3,0,0.5-0.1,0.5-0.3c0-0.6-1.9-0.4-1.9-1.6c0-0.7,0.7-1.2,1.5-1.2
					c0.5,0,1,0.2,1.3,0.4l-0.5,0.7c-0.2-0.1-0.5-0.3-0.7-0.3c-0.3,0-0.5,0.1-0.5,0.3c0,0.5,1.9,0.3,1.9,1.6c0,0.7-0.7,1.2-1.5,1.2
					c-0.5,0-1.1-0.2-1.5-0.5L303.4,785z"/>
				<path fill="#1B3E4C" d="M310.5,782.4v3.8h-1v-0.3c-0.3,0.3-0.7,0.4-1,0.4c-0.5,0-1-0.2-1.3-0.6c-0.2-0.3-0.4-0.7-0.4-1.3v-2h1
					v2.1c0,0.3,0.1,0.5,0.2,0.7c0.2,0.2,0.4,0.2,0.6,0.2c0.4,0,0.7-0.3,0.9-0.5v-2.5H310.5z"/>
				<path fill="#1B3E4C" d="M311.7,786.2v-3.8h1v0.3c0.3-0.3,0.7-0.4,1-0.4c0.5,0,1,0.2,1.3,0.6c0.3-0.3,0.8-0.6,1.4-0.6
					c0.5,0,1,0.2,1.3,0.6c0.2,0.3,0.4,0.7,0.4,1.3v2h-1v-2.1c0-0.3-0.1-0.5-0.2-0.7c-0.2-0.2-0.4-0.2-0.6-0.2
					c-0.4,0-0.8,0.3-0.9,0.5c0,0.1,0,0.3,0,0.4v2h-1v-2.1c0-0.3-0.1-0.5-0.2-0.7c-0.2-0.2-0.4-0.2-0.6-0.2c-0.4,0-0.7,0.3-0.9,0.5
					v2.5H311.7z"/>
				<path fill="#1B3E4C" d="M322.4,785.6c-0.4,0.4-1,0.7-1.6,0.7c-1.1,0-2-0.8-2-2c0-1.1,0.7-2,1.9-2c1.1,0,1.8,0.9,1.8,2
					c0,0.1,0,0.2,0,0.3h-2.7c0.1,0.5,0.5,0.9,1,0.9c0.4,0,0.8-0.2,1-0.4L322.4,785.6z M321.5,783.8c0-0.3-0.3-0.7-0.8-0.7
					c-0.4,0-0.8,0.3-0.8,0.7H321.5z"/>
				<path fill="#1B3E4C" d="M325.7,783.3c-0.1,0-0.2,0-0.4,0c-0.4,0-0.8,0.3-0.9,0.6v2.4h-1v-3.8h1v0.4c0.2-0.3,0.6-0.5,1.1-0.5
					c0.1,0,0.2,0,0.3,0L325.7,783.3z"/>
				<path fill="#1B3E4C" d="M329.4,783.4c0,1.1,0.8,1.9,1.9,1.9c0.7,0,1.2-0.3,1.6-0.8l0.7,0.7c-0.5,0.6-1.3,1.1-2.3,1.1
					c-1.7,0-2.9-1.3-2.9-2.8c0-1.6,1.2-2.8,2.9-2.8c0.8,0,1.5,0.3,2,0.8l-0.7,0.7c-0.3-0.3-0.8-0.6-1.3-0.6
					C330.2,781.5,329.4,782.4,329.4,783.4z"/>
				<path fill="#1B3E4C" d="M336.7,783.3c-0.1,0-0.2,0-0.4,0c-0.4,0-0.8,0.3-0.9,0.6v2.4h-1v-3.8h1v0.4c0.2-0.3,0.6-0.5,1.1-0.5
					c0.1,0,0.2,0,0.3,0L336.7,783.3z"/>
				<path fill="#1B3E4C" d="M340.9,785.6c-0.4,0.4-1,0.7-1.6,0.7c-1.1,0-2-0.8-2-2c0-1.1,0.7-2,1.9-2c1.1,0,1.8,0.9,1.8,2
					c0,0.1,0,0.2,0,0.3h-2.7c0.1,0.5,0.5,0.9,1,0.9c0.4,0,0.8-0.2,1-0.4L340.9,785.6z M339.9,783.8c0-0.3-0.3-0.7-0.8-0.7
					c-0.4,0-0.8,0.3-0.8,0.7H339.9z"/>
				<path fill="#1B3E4C" d="M344.5,786.2v-0.3c-0.3,0.3-0.7,0.4-1.1,0.4c-0.6,0-1.1-0.3-1.4-0.6c-0.3-0.3-0.5-0.8-0.5-1.3
					c0-1.1,0.8-2,1.9-2c0.4,0,0.8,0.1,1.1,0.4v-2.1h1v5.6H344.5z M344.5,783.7c-0.2-0.3-0.6-0.5-0.9-0.5c-0.6,0-1,0.5-1,1
					c0,0.6,0.4,1,1,1c0.4,0,0.7-0.2,0.9-0.5V783.7z"/>
				<path fill="#1B3E4C" d="M347.2,780.3c0.4,0,0.7,0.3,0.7,0.7c0,0.4-0.3,0.7-0.7,0.7s-0.7-0.3-0.7-0.7
					C346.5,780.6,346.8,780.3,347.2,780.3z M347.7,786.2h-1v-3.8h1V786.2z"/>
				<path fill="#1B3E4C" d="M351.8,786.2c-0.1,0-0.4,0.1-0.6,0.1c-0.6,0-1.1-0.2-1.3-0.6c-0.2-0.3-0.3-0.6-0.3-1.1v-1.3h-1.1v-0.9
					h1.1v-1.1h1v1.1h1.3v0.9h-1.3v1.5c0,0.2,0,0.4,0.1,0.5c0.1,0.1,0.3,0.2,0.5,0.2c0.1,0,0.3,0,0.4,0L351.8,786.2z"/>
			</g>
		</g>
		<g>
			<g>
				<path fill="#1B3E4C" d="M365.1,783.4c0,1.1,0.8,1.9,1.9,1.9c0.5,0,0.9-0.2,1.2-0.4v-1.2h-1.4v-0.9h2.5v2.5
					c-0.5,0.6-1.3,1.1-2.3,1.1c-1.7,0-2.9-1.3-2.9-2.8c0-1.6,1.2-2.8,2.9-2.8c0.8,0,1.5,0.3,2,0.8l-0.7,0.7
					c-0.3-0.3-0.8-0.6-1.3-0.6C365.9,781.5,365.1,782.4,365.1,783.4z"/>
				<path fill="#1B3E4C" d="M371.4,786.2h-1v-5.6h1V786.2z"/>
				<path fill="#1B3E4C" d="M374.3,782.3c1.2,0,2,0.9,2,2s-0.9,2-2,2s-2-0.9-2-2S373.1,782.3,374.3,782.3z M374.3,785.3
					c0.6,0,1-0.5,1-1s-0.4-1-1-1s-1,0.5-1,1S373.7,785.3,374.3,785.3z"/>
				<path fill="#1B3E4C" d="M377.2,786.2v-5.6h1v2.1c0.3-0.2,0.7-0.4,1.1-0.4c1,0,1.9,0.9,1.9,2c0,0.5-0.2,1-0.5,1.3
					c-0.3,0.4-0.9,0.6-1.4,0.6c-0.4,0-0.7-0.1-1.1-0.4v0.3H377.2z M378.2,784.8c0.2,0.3,0.5,0.5,0.9,0.5c0.6,0,1-0.4,1-1
					c0-0.6-0.4-1-1-1c-0.4,0-0.7,0.2-0.9,0.5V784.8z"/>
				<path fill="#1B3E4C" d="M385.7,786.2h-1v-0.3c-0.3,0.3-0.7,0.4-1.1,0.4c-0.6,0-1.1-0.3-1.4-0.6c-0.3-0.3-0.5-0.8-0.5-1.3
					c0-1.1,0.8-2,1.9-2c0.4,0,0.8,0.1,1.1,0.4v-0.3h1V786.2z M384.7,783.7c-0.2-0.3-0.6-0.5-0.9-0.5c-0.6,0-1,0.5-1,1
					c0,0.6,0.4,1,1,1c0.4,0,0.7-0.2,0.9-0.5V783.7z"/>
				<path fill="#1B3E4C" d="M387.9,786.2h-1v-5.6h1V786.2z"/>
				<path fill="#1B3E4C" d="M392.3,781.6v1.1h1.7v0.9h-1.7v2.5h-1.1v-5.5h3.3v0.9H392.3z"/>
				<path fill="#1B3E4C" d="M397.7,783.3c-0.1,0-0.2,0-0.4,0c-0.4,0-0.8,0.3-0.9,0.6v2.4h-1v-3.8h1v0.4c0.2-0.3,0.6-0.5,1.1-0.5
					c0.1,0,0.2,0,0.3,0L397.7,783.3z"/>
				<path fill="#1B3E4C" d="M401.8,785.6c-0.4,0.4-1,0.7-1.6,0.7c-1.1,0-2-0.8-2-2c0-1.1,0.7-2,1.9-2c1.1,0,1.8,0.9,1.8,2
					c0,0.1,0,0.2,0,0.3h-2.7c0.1,0.5,0.5,0.9,1,0.9c0.4,0,0.8-0.2,1-0.4L401.8,785.6z M400.9,783.8c0-0.3-0.3-0.7-0.8-0.7
					c-0.4,0-0.8,0.3-0.8,0.7H400.9z"/>
				<path fill="#1B3E4C" d="M406,785.6c-0.4,0.4-1,0.7-1.6,0.7c-1.1,0-2-0.8-2-2c0-1.1,0.7-2,1.9-2c1.1,0,1.8,0.9,1.8,2
					c0,0.1,0,0.2,0,0.3h-2.7c0.1,0.5,0.5,0.9,1,0.9c0.4,0,0.8-0.2,1-0.4L406,785.6z M405.1,783.8c0-0.3-0.3-0.7-0.8-0.7
					c-0.4,0-0.8,0.3-0.8,0.7H405.1z"/>
				<path fill="#1B3E4C" d="M410.2,781.6v1.1h1.7v0.9h-1.7v1.5h2.3v0.9h-3.4v-5.5h3.3v0.9H410.2z"/>
				<path fill="#1B3E4C" d="M415,783.4l0.8-1.1h1.2l-1.3,1.8l1.5,2h-1.2l-0.9-1.3l-0.9,1.3h-1.2l1.5-2l-1.3-1.8h1.2L415,783.4z"/>
				<path fill="#1B3E4C" d="M417.8,782.4h1v0.3c0.3-0.2,0.7-0.4,1.1-0.4c1,0,1.9,0.9,1.9,2c0,0.5-0.2,1-0.5,1.3
					c-0.3,0.4-0.9,0.6-1.5,0.6c-0.4,0-0.7-0.1-1-0.3v2.2h-1V782.4z M418.8,784.8c0.2,0.3,0.5,0.5,0.9,0.5c0.6,0,1-0.4,1-1
					c0-0.6-0.4-1-1-1c-0.4,0-0.7,0.2-0.9,0.5V784.8z"/>
				<path fill="#1B3E4C" d="M424.9,783.3c-0.1,0-0.2,0-0.4,0c-0.4,0-0.8,0.3-0.9,0.6v2.4h-1v-3.8h1v0.4c0.2-0.3,0.6-0.5,1.1-0.5
					c0.1,0,0.2,0,0.3,0L424.9,783.3z"/>
				<path fill="#1B3E4C" d="M429.1,785.6c-0.4,0.4-1,0.7-1.6,0.7c-1.1,0-2-0.8-2-2c0-1.1,0.7-2,1.9-2c1.1,0,1.8,0.9,1.8,2
					c0,0.1,0,0.2,0,0.3h-2.7c0.1,0.5,0.5,0.9,1,0.9c0.4,0,0.8-0.2,1-0.4L429.1,785.6z M428.1,783.8c0-0.3-0.3-0.7-0.8-0.7
					c-0.4,0-0.8,0.3-0.8,0.7H428.1z"/>
				<path fill="#1B3E4C" d="M430.2,785c0.3,0.2,0.7,0.4,1,0.4c0.3,0,0.5-0.1,0.5-0.3c0-0.6-1.9-0.4-1.9-1.6c0-0.7,0.7-1.2,1.5-1.2
					c0.5,0,1,0.2,1.3,0.4l-0.5,0.7c-0.2-0.1-0.5-0.3-0.7-0.3c-0.3,0-0.5,0.1-0.5,0.3c0,0.5,1.9,0.3,1.9,1.6c0,0.7-0.7,1.2-1.5,1.2
					c-0.5,0-1.1-0.2-1.5-0.5L430.2,785z"/>
				<path fill="#1B3E4C" d="M433.8,785c0.3,0.2,0.7,0.4,1,0.4c0.3,0,0.5-0.1,0.5-0.3c0-0.6-1.9-0.4-1.9-1.6c0-0.7,0.7-1.2,1.5-1.2
					c0.5,0,1,0.2,1.3,0.4l-0.5,0.7c-0.2-0.1-0.5-0.3-0.7-0.3c-0.3,0-0.5,0.1-0.5,0.3c0,0.5,1.9,0.3,1.9,1.6c0,0.7-0.7,1.2-1.5,1.2
					c-0.5,0-1.1-0.2-1.5-0.5L433.8,785z"/>
				<path fill="#1B3E4C" d="M437.8,780.3c0.4,0,0.7,0.3,0.7,0.7c0,0.4-0.3,0.7-0.7,0.7s-0.7-0.3-0.7-0.7
					C437.2,780.6,437.5,780.3,437.8,780.3z M438.3,786.2h-1v-3.8h1V786.2z"/>
				<path fill="#1B3E4C" d="M441.2,782.3c1.2,0,2,0.9,2,2s-0.9,2-2,2s-2-0.9-2-2S440.1,782.3,441.2,782.3z M441.2,785.3
					c0.6,0,1-0.5,1-1s-0.4-1-1-1s-1,0.5-1,1S440.6,785.3,441.2,785.3z"/>
				<path fill="#1B3E4C" d="M444.1,786.2v-3.8h1v0.3c0.3-0.2,0.7-0.4,1.1-0.4c0.5,0,1,0.2,1.3,0.6c0.3,0.3,0.4,0.7,0.4,1.3v1.9h-1
					v-2c0-0.4-0.1-0.6-0.2-0.7c-0.1-0.1-0.3-0.2-0.6-0.2c-0.4,0-0.8,0.3-0.9,0.5v2.5H444.1z"/>
			</g>
		</g>
		<g>
			<g>
				<path fill="#1B3E4C" d="M464,781.6v1.1h1.7v0.9H464v1.5h2.3v0.9H463v-5.5h3.3v0.9H464z"/>
				<path fill="#1B3E4C" d="M470,786.2v-0.3c-0.3,0.3-0.7,0.4-1.1,0.4c-0.6,0-1.1-0.3-1.4-0.6c-0.3-0.3-0.5-0.8-0.5-1.3
					c0-1.1,0.8-2,1.9-2c0.4,0,0.8,0.1,1.1,0.4v-2.1h1v5.6H470z M469.9,783.7c-0.2-0.3-0.6-0.5-0.9-0.5c-0.6,0-1,0.5-1,1
					c0,0.6,0.4,1,1,1c0.4,0,0.7-0.2,0.9-0.5V783.7z"/>
				<path fill="#1B3E4C" d="M475.7,782.4v3.8h-1v-0.3c-0.3,0.3-0.7,0.4-1,0.4c-0.5,0-1-0.2-1.3-0.6c-0.2-0.3-0.4-0.7-0.4-1.3v-2h1
					v2.1c0,0.3,0.1,0.5,0.2,0.7c0.2,0.2,0.4,0.2,0.6,0.2c0.4,0,0.7-0.3,0.9-0.5v-2.5H475.7z"/>
				<path fill="#1B3E4C" d="M480.4,785.4c-0.4,0.6-1,0.9-1.7,0.9c-1.2,0-2.1-0.9-2.1-2c0-1.1,0.9-2,2.1-2c0.7,0,1.3,0.3,1.6,0.8
					l-0.7,0.6c-0.2-0.3-0.5-0.5-0.9-0.5c-0.6,0-1,0.5-1,1c0,0.6,0.4,1,1.1,1c0.4,0,0.7-0.3,0.9-0.5L480.4,785.4z"/>
				<path fill="#1B3E4C" d="M484.9,786.2h-1v-0.3c-0.3,0.3-0.7,0.4-1.1,0.4c-0.6,0-1.1-0.3-1.4-0.6c-0.3-0.3-0.5-0.8-0.5-1.3
					c0-1.1,0.8-2,1.9-2c0.4,0,0.8,0.1,1.1,0.4v-0.3h1V786.2z M483.8,783.7c-0.2-0.3-0.6-0.5-0.9-0.5c-0.6,0-1,0.5-1,1
					c0,0.6,0.4,1,1,1c0.4,0,0.7-0.2,0.9-0.5V783.7z"/>
				<path fill="#1B3E4C" d="M488.9,786.2c-0.1,0-0.4,0.1-0.6,0.1c-0.6,0-1.1-0.2-1.3-0.6c-0.2-0.3-0.3-0.6-0.3-1.1v-1.3h-1.1v-0.9
					h1.1v-1.1h1v1.1h1.3v0.9h-1.3v1.5c0,0.2,0,0.4,0.1,0.5c0.1,0.1,0.3,0.2,0.5,0.2c0.1,0,0.3,0,0.4,0L488.9,786.2z"/>
				<path fill="#1B3E4C" d="M490.4,780.3c0.4,0,0.7,0.3,0.7,0.7c0,0.4-0.3,0.7-0.7,0.7s-0.7-0.3-0.7-0.7
					C489.8,780.6,490.1,780.3,490.4,780.3z M491,786.2h-1v-3.8h1V786.2z"/>
				<path fill="#1B3E4C" d="M493.9,782.3c1.2,0,2,0.9,2,2s-0.9,2-2,2s-2-0.9-2-2S492.7,782.3,493.9,782.3z M493.9,785.3
					c0.6,0,1-0.5,1-1s-0.4-1-1-1s-1,0.5-1,1S493.3,785.3,493.9,785.3z"/>
				<path fill="#1B3E4C" d="M496.8,786.2v-3.8h1v0.3c0.3-0.2,0.7-0.4,1.1-0.4c0.5,0,1,0.2,1.3,0.6c0.3,0.3,0.4,0.7,0.4,1.3v1.9h-1
					v-2c0-0.4-0.1-0.6-0.2-0.7c-0.1-0.1-0.3-0.2-0.6-0.2c-0.4,0-0.8,0.3-0.9,0.5v2.5H496.8z"/>
			</g>
		</g>
		<g>
			<path fill="#1B3E4C" d="M514.1,781.6v1.1h1.7v0.9h-1.7v1.5h2.3v0.9H513v-5.5h3.3v0.9H514.1z"/>
			<path fill="#1B3E4C" d="M517.3,786.2v-3.8h1v0.3c0.3-0.3,0.7-0.4,1-0.4c0.5,0,1,0.2,1.3,0.6c0.3-0.3,0.8-0.6,1.4-0.6
				c0.5,0,1,0.2,1.3,0.6c0.2,0.3,0.4,0.7,0.4,1.3v2h-1v-2.1c0-0.3-0.1-0.5-0.2-0.7c-0.2-0.2-0.4-0.2-0.6-0.2c-0.4,0-0.8,0.3-0.9,0.5
				c0,0.1,0,0.3,0,0.4v2h-1v-2.1c0-0.3-0.1-0.5-0.2-0.7c-0.2-0.2-0.4-0.2-0.6-0.2c-0.4,0-0.7,0.3-0.9,0.5v2.5H517.3z"/>
			<path fill="#1B3E4C" d="M524.8,782.4h1v0.3c0.3-0.2,0.7-0.4,1.1-0.4c1,0,1.9,0.9,1.9,2c0,0.5-0.2,1-0.5,1.3
				c-0.3,0.4-0.9,0.6-1.5,0.6c-0.4,0-0.7-0.1-1-0.3v2.2h-1V782.4z M525.9,784.8c0.2,0.3,0.5,0.5,0.9,0.5c0.6,0,1-0.4,1-1
				c0-0.6-0.4-1-1-1c-0.4,0-0.7,0.2-0.9,0.5V784.8z"/>
			<path fill="#1B3E4C" d="M530.7,786.2h-1v-5.6h1V786.2z"/>
			<path fill="#1B3E4C" d="M533.6,782.3c1.2,0,2,0.9,2,2s-0.9,2-2,2s-2-0.9-2-2S532.4,782.3,533.6,782.3z M533.6,785.3
				c0.6,0,1-0.5,1-1s-0.4-1-1-1s-1,0.5-1,1S533,785.3,533.6,785.3z"/>
			<path fill="#1B3E4C" d="M536.6,788.1l1.1-2.3l-1.7-3.4h1.1l1.1,2.3l1-2.3h1.1l-2.6,5.7H536.6z"/>
			<path fill="#1B3E4C" d="M541,786.2v-3.8h1v0.3c0.3-0.3,0.7-0.4,1-0.4c0.5,0,1,0.2,1.3,0.6c0.3-0.3,0.8-0.6,1.4-0.6
				c0.5,0,1,0.2,1.3,0.6c0.2,0.3,0.4,0.7,0.4,1.3v2h-1v-2.1c0-0.3-0.1-0.5-0.2-0.7c-0.2-0.2-0.4-0.2-0.6-0.2c-0.4,0-0.8,0.3-0.9,0.5
				c0,0.1,0,0.3,0,0.4v2h-1v-2.1c0-0.3-0.1-0.5-0.2-0.7c-0.2-0.2-0.4-0.2-0.6-0.2c-0.4,0-0.7,0.3-0.9,0.5v2.5H541z"/>
			<path fill="#1B3E4C" d="M551.7,785.6c-0.4,0.4-1,0.7-1.6,0.7c-1.1,0-2-0.8-2-2c0-1.1,0.7-2,1.9-2c1.1,0,1.8,0.9,1.8,2
				c0,0.1,0,0.2,0,0.3h-2.7c0.1,0.5,0.5,0.9,1,0.9c0.4,0,0.8-0.2,1-0.4L551.7,785.6z M550.8,783.8c0-0.3-0.3-0.7-0.8-0.7
				c-0.4,0-0.8,0.3-0.8,0.7H550.8z"/>
			<path fill="#1B3E4C" d="M552.7,786.2v-3.8h1v0.3c0.3-0.2,0.7-0.4,1.1-0.4c0.5,0,1,0.2,1.3,0.6c0.3,0.3,0.4,0.7,0.4,1.3v1.9h-1v-2
				c0-0.4-0.1-0.6-0.2-0.7c-0.1-0.1-0.3-0.2-0.6-0.2c-0.4,0-0.8,0.3-0.9,0.5v2.5H552.7z"/>
			<path fill="#1B3E4C" d="M560.4,786.2c-0.1,0-0.4,0.1-0.6,0.1c-0.6,0-1.1-0.2-1.3-0.6c-0.2-0.3-0.3-0.6-0.3-1.1v-1.3h-1.1v-0.9
				h1.1v-1.1h1v1.1h1.3v0.9h-1.3v1.5c0,0.2,0,0.4,0.1,0.5c0.1,0.1,0.3,0.2,0.5,0.2c0.1,0,0.3,0,0.4,0L560.4,786.2z"/>
		</g>
	</g>
	<rect x="0.5" y="344.1" fill="#092930" width="657" height="203.7"/>
	<g>
		<g>
			<path fill="#FBF9F3" d="M135.1,427.9h2l2.1,6.4l2.3-6.4h1.4l2.3,6.4l2.1-6.4h2l-3.4,10.3h-1.4l-2.3-6.5l-2.3,6.5h-1.4
				L135.1,427.9z"/>
			<path fill="#FBF9F3" d="M156.1,437c-0.7,0.8-1.8,1.3-2.9,1.3c-2.1,0-3.7-1.5-3.7-3.7c0-2,1.3-3.7,3.5-3.7c2,0,3.4,1.7,3.4,3.6
				c0,0.2,0,0.4,0,0.5h-4.9c0.1,1,0.9,1.7,1.9,1.7c0.8,0,1.5-0.5,1.8-0.8L156.1,437z M154.3,433.7c-0.1-0.6-0.6-1.2-1.4-1.2
				c-0.8,0-1.4,0.6-1.5,1.2H154.3z"/>
			<path fill="#FBF9F3" d="M160.5,427.9l-1.8,4.3h-1.4l1.1-4.3H160.5z"/>
			<path fill="#FBF9F3" d="M165.9,432.7c-0.1,0-0.4-0.1-0.7-0.1c-0.8,0-1.5,0.6-1.7,1v4.5h-1.9V431h1.8v0.7c0.4-0.5,1.2-0.9,2.1-0.9
				c0.3,0,0.4,0,0.6,0.1L165.9,432.7z"/>
			<path fill="#FBF9F3" d="M173.4,437c-0.7,0.8-1.8,1.3-2.9,1.3c-2.1,0-3.7-1.5-3.7-3.7c0-2,1.3-3.7,3.5-3.7c2,0,3.4,1.7,3.4,3.6
				c0,0.2,0,0.4,0,0.5h-4.9c0.1,1,0.9,1.7,1.9,1.7c0.8,0,1.5-0.5,1.8-0.8L173.4,437z M171.7,433.7c-0.1-0.6-0.6-1.2-1.4-1.2
				c-0.8,0-1.4,0.6-1.5,1.2H171.7z"/>
			<path fill="#FBF9F3" d="M184.5,438.1c-0.2,0.1-0.8,0.1-1.2,0.1c-1.1,0-2-0.4-2.5-1c-0.4-0.5-0.5-1.1-0.5-2.1v-2.5h-2V431h2v-2
				h1.9v2h2.3v1.6h-2.3v2.7c0,0.4,0.1,0.7,0.2,0.9c0.2,0.2,0.5,0.4,1,0.4c0.3,0,0.6,0,0.8-0.1L184.5,438.1z"/>
			<path fill="#FBF9F3" d="M192.3,437c-0.7,0.8-1.8,1.3-2.9,1.3c-2.1,0-3.7-1.5-3.7-3.7c0-2,1.3-3.7,3.5-3.7c2,0,3.4,1.7,3.4,3.6
				c0,0.2,0,0.4,0,0.5h-4.9c0.1,1,0.9,1.7,1.9,1.7c0.8,0,1.5-0.5,1.8-0.8L192.3,437z M190.5,433.7c-0.1-0.6-0.6-1.2-1.4-1.2
				c-0.8,0-1.4,0.6-1.5,1.2H190.5z"/>
			<path fill="#FBF9F3" d="M200.6,436.7c-0.8,1.1-1.9,1.6-3.2,1.6c-2.2,0-3.8-1.6-3.8-3.7c0-2.1,1.7-3.7,3.8-3.7
				c1.2,0,2.3,0.6,3,1.4l-1.3,1.2c-0.4-0.5-1-0.8-1.6-0.8c-1.1,0-1.9,0.9-1.9,1.9c0,1.1,0.8,1.9,2,1.9c0.8,0,1.4-0.5,1.7-0.9
				L200.6,436.7z"/>
			<path fill="#FBF9F3" d="M204,438.1h-1.9v-10.4h1.9v3.8c0.5-0.4,1.2-0.7,1.9-0.7c1,0,1.9,0.4,2.5,1.1c0.5,0.6,0.7,1.3,0.7,2.5v3.6
				h-1.9v-3.8c0-0.7-0.2-1.1-0.4-1.3c-0.2-0.2-0.6-0.4-1.1-0.4c-0.8,0-1.5,0.5-1.7,0.9V438.1z"/>
			<path fill="#FBF9F3" d="M211.2,438.1V431h1.8v0.6c0.5-0.4,1.2-0.7,2-0.7c1,0,1.9,0.4,2.5,1.1c0.5,0.6,0.7,1.3,0.7,2.5v3.6h-1.9
				v-3.8c0-0.7-0.2-1.1-0.4-1.3c-0.2-0.2-0.6-0.4-1.1-0.4c-0.8,0-1.5,0.5-1.7,0.9v4.6H211.2z"/>
			<path fill="#FBF9F3" d="M223.5,430.9c2.2,0,3.8,1.7,3.8,3.7s-1.6,3.7-3.8,3.7s-3.8-1.6-3.8-3.7S221.3,430.9,223.5,430.9z
				 M223.5,436.5c1.1,0,1.9-0.9,1.9-1.9s-0.8-1.9-1.9-1.9s-1.9,0.9-1.9,1.9S222.4,436.5,223.5,436.5z"/>
			<path fill="#FBF9F3" d="M230.8,438.1h-1.9v-10.4h1.9V438.1z"/>
			<path fill="#FBF9F3" d="M236.2,430.9c2.2,0,3.8,1.7,3.8,3.7s-1.6,3.7-3.8,3.7s-3.8-1.6-3.8-3.7S234,430.9,236.2,430.9z
				 M236.2,436.5c1.1,0,1.9-0.9,1.9-1.9s-0.8-1.9-1.9-1.9s-1.9,0.9-1.9,1.9S235,436.5,236.2,436.5z"/>
			<path fill="#FBF9F3" d="M248.5,437.7c0,1.3-0.2,2-0.6,2.6c-0.6,0.9-1.8,1.4-3.1,1.4c-1.4,0-2.7-0.6-3.4-1.5l1.2-1.2
				c0.4,0.4,1,1,2.2,1c0.6,0,1.1-0.2,1.5-0.6c0.3-0.3,0.4-0.8,0.4-1.7v-0.2c-0.6,0.4-1.2,0.6-1.9,0.6c-1.1,0-2.1-0.5-2.7-1.2
				c-0.6-0.6-0.9-1.5-0.9-2.5c0-2.1,1.6-3.7,3.5-3.7c0.8,0,1.5,0.3,2.1,0.7V431h1.8V437.7z M246.6,433.5c-0.4-0.5-1-0.9-1.8-0.9
				c-1.1,0-1.8,0.9-1.8,1.9c0,1.1,0.8,1.9,1.9,1.9c0.7,0,1.3-0.4,1.7-0.9V433.5z"/>
			<path fill="#FBF9F3" d="M251.7,427.3c0.7,0,1.2,0.5,1.2,1.2s-0.6,1.2-1.2,1.2s-1.2-0.5-1.2-1.2S251,427.3,251.7,427.3z
				 M252.6,438.1h-1.9V431h1.9V438.1z"/>
			<path fill="#FBF9F3" d="M255,436c0.5,0.4,1.2,0.7,1.9,0.7c0.5,0,0.9-0.2,0.9-0.6c0-1.1-3.4-0.7-3.4-3c0-1.4,1.3-2.2,2.7-2.2
				c0.9,0,1.9,0.4,2.4,0.7l-0.9,1.4c-0.4-0.3-0.8-0.5-1.4-0.5c-0.5,0-1,0.2-1,0.6c0,0.9,3.4,0.6,3.4,3c0,1.4-1.3,2.2-2.8,2.2
				c-1,0-2-0.3-2.9-1L255,436z"/>
			<path fill="#FBF9F3" d="M266.6,438.1c-0.2,0.1-0.8,0.1-1.2,0.1c-1.1,0-2-0.4-2.5-1c-0.4-0.5-0.5-1.1-0.5-2.1v-2.5h-2V431h2v-2
				h1.9v2h2.3v1.6h-2.3v2.7c0,0.4,0.1,0.7,0.2,0.9c0.2,0.2,0.5,0.4,1,0.4c0.3,0,0.6,0,0.8-0.1L266.6,438.1z"/>
			<path fill="#FBF9F3" d="M268.7,436c0.5,0.4,1.2,0.7,1.9,0.7c0.5,0,0.9-0.2,0.9-0.6c0-1.1-3.4-0.7-3.4-3c0-1.4,1.3-2.2,2.7-2.2
				c0.9,0,1.9,0.4,2.4,0.7l-0.9,1.4c-0.4-0.3-0.8-0.5-1.4-0.5c-0.5,0-1,0.2-1,0.6c0,0.9,3.4,0.6,3.4,3c0,1.4-1.3,2.2-2.8,2.2
				c-1,0-2-0.3-2.9-1L268.7,436z"/>
			<path fill="#FBF9F3" d="M282.3,438.1H281l-3-7.1h1.9l1.7,4.1l1.8-4.1h1.3l1.8,4.1l1.7-4.1h1.9l-3,7.1h-1.3l-1.8-4.1L282.3,438.1z
				"/>
			<path fill="#FBF9F3" d="M293.3,438.1h-1.9v-10.4h1.9v3.8c0.5-0.4,1.2-0.7,1.9-0.7c1,0,1.9,0.4,2.5,1.1c0.5,0.6,0.7,1.3,0.7,2.5
				v3.6h-1.9v-3.8c0-0.7-0.2-1.1-0.4-1.3c-0.2-0.2-0.6-0.4-1.1-0.4c-0.8,0-1.5,0.5-1.7,0.9V438.1z"/>
			<path fill="#FBF9F3" d="M303.7,430.9c2.2,0,3.8,1.7,3.8,3.7s-1.6,3.7-3.8,3.7s-3.8-1.6-3.8-3.7S301.5,430.9,303.7,430.9z
				 M303.7,436.5c1.1,0,1.9-0.9,1.9-1.9s-0.8-1.9-1.9-1.9s-1.9,0.9-1.9,1.9S302.6,436.5,303.7,436.5z"/>
			<path fill="#FBF9F3" d="M319.8,431v7.1h-1.8v-0.6c-0.6,0.5-1.2,0.7-1.9,0.7c-1,0-1.9-0.5-2.4-1.1c-0.5-0.6-0.7-1.3-0.7-2.3V431
				h1.9v3.8c0,0.6,0.1,1,0.4,1.2c0.3,0.3,0.7,0.4,1.1,0.4c0.8,0,1.4-0.5,1.7-0.9V431H319.8z"/>
			<path fill="#FBF9F3" d="M322,438.1V431h1.8v0.6c0.5-0.4,1.2-0.7,2-0.7c1,0,1.9,0.4,2.5,1.1c0.5,0.6,0.7,1.3,0.7,2.5v3.6h-1.9
				v-3.8c0-0.7-0.2-1.1-0.4-1.3c-0.2-0.2-0.6-0.4-1.1-0.4c-0.8,0-1.5,0.5-1.7,0.9v4.6H322z"/>
			<path fill="#FBF9F3" d="M336,438.1v-0.6c-0.6,0.5-1.3,0.7-2,0.7c-1.1,0-2.1-0.5-2.7-1.2c-0.6-0.6-0.9-1.5-0.9-2.5
				c0-2.1,1.6-3.7,3.5-3.7c0.8,0,1.5,0.2,2,0.7v-3.8h1.9v10.4H336z M336,433.5c-0.4-0.5-1-0.9-1.8-0.9c-1.1,0-1.8,0.9-1.8,1.9
				c0,1.1,0.8,1.9,1.9,1.9c0.7,0,1.3-0.4,1.7-0.9V433.5z"/>
			<path fill="#FBF9F3" d="M346.1,437c-0.7,0.8-1.8,1.3-2.9,1.3c-2.1,0-3.7-1.5-3.7-3.7c0-2,1.3-3.7,3.5-3.7c2,0,3.4,1.7,3.4,3.6
				c0,0.2,0,0.4,0,0.5h-4.9c0.1,1,0.9,1.7,1.9,1.7c0.8,0,1.5-0.5,1.8-0.8L346.1,437z M344.3,433.7c-0.1-0.6-0.6-1.2-1.4-1.2
				c-0.8,0-1.4,0.6-1.5,1.2H344.3z"/>
			<path fill="#FBF9F3" d="M352.2,432.7c-0.1,0-0.4-0.1-0.7-0.1c-0.8,0-1.5,0.6-1.7,1v4.5h-1.9V431h1.8v0.7c0.4-0.5,1.2-0.9,2.1-0.9
				c0.3,0,0.4,0,0.6,0.1L352.2,432.7z"/>
			<path fill="#FBF9F3" d="M354.1,436c0.5,0.4,1.2,0.7,1.9,0.7c0.5,0,0.9-0.2,0.9-0.6c0-1.1-3.4-0.7-3.4-3c0-1.4,1.3-2.2,2.7-2.2
				c0.9,0,1.9,0.4,2.4,0.7l-0.9,1.4c-0.4-0.3-0.8-0.5-1.4-0.5c-0.5,0-1,0.2-1,0.6c0,0.9,3.4,0.6,3.4,3c0,1.4-1.3,2.2-2.8,2.2
				c-1,0-2-0.3-2.9-1L354.1,436z"/>
			<path fill="#FBF9F3" d="M365.6,438.1c-0.2,0.1-0.8,0.1-1.2,0.1c-1.1,0-2-0.4-2.5-1c-0.4-0.5-0.5-1.1-0.5-2.1v-2.5h-2V431h2v-2
				h1.9v2h2.3v1.6h-2.3v2.7c0,0.4,0.1,0.7,0.2,0.9c0.2,0.2,0.5,0.4,1,0.4c0.3,0,0.6,0,0.8-0.1L365.6,438.1z"/>
			<path fill="#FBF9F3" d="M374.1,438.1h-1.8v-0.6c-0.6,0.5-1.3,0.7-2,0.7c-1.1,0-2.1-0.5-2.7-1.2c-0.6-0.6-0.9-1.5-0.9-2.5
				c0-2.1,1.6-3.7,3.5-3.7c0.8,0,1.5,0.3,2.1,0.7V431h1.8V438.1z M372.2,433.5c-0.4-0.5-1-0.9-1.8-0.9c-1.1,0-1.8,0.9-1.8,1.9
				c0,1.1,0.8,1.9,1.9,1.9c0.7,0,1.3-0.4,1.7-0.9V433.5z"/>
			<path fill="#FBF9F3" d="M376.3,438.1V431h1.8v0.6c0.5-0.4,1.2-0.7,2-0.7c1,0,1.9,0.4,2.5,1.1c0.5,0.6,0.7,1.3,0.7,2.5v3.6h-1.9
				v-3.8c0-0.7-0.2-1.1-0.4-1.3c-0.2-0.2-0.6-0.4-1.1-0.4c-0.8,0-1.5,0.5-1.7,0.9v4.6H376.3z"/>
			<path fill="#FBF9F3" d="M390.4,438.1v-0.6c-0.6,0.5-1.3,0.7-2,0.7c-1.1,0-2.1-0.5-2.7-1.2c-0.6-0.6-0.9-1.5-0.9-2.5
				c0-2.1,1.6-3.7,3.5-3.7c0.8,0,1.5,0.2,2,0.7v-3.8h1.9v10.4H390.4z M390.3,433.5c-0.4-0.5-1-0.9-1.8-0.9c-1.1,0-1.8,0.9-1.8,1.9
				c0,1.1,0.8,1.9,1.9,1.9c0.7,0,1.3-0.4,1.7-0.9V433.5z"/>
			<path fill="#FBF9F3" d="M400.3,438.1h-1.9v-10.4h1.9V438.1z"/>
			<path fill="#FBF9F3" d="M409.3,438.1h-1.8v-0.6c-0.6,0.5-1.3,0.7-2,0.7c-1.1,0-2.1-0.5-2.7-1.2c-0.6-0.6-0.9-1.5-0.9-2.5
				c0-2.1,1.6-3.7,3.5-3.7c0.8,0,1.5,0.3,2.1,0.7V431h1.8V438.1z M407.4,433.5c-0.4-0.5-1-0.9-1.8-0.9c-1.1,0-1.8,0.9-1.8,1.9
				c0,1.1,0.8,1.9,1.9,1.9c0.7,0,1.3-0.4,1.7-0.9V433.5z"/>
			<path fill="#FBF9F3" d="M414.8,438.1h-1.3l-3-7.1h1.9l1.7,4.1l1.8-4.1h1.3l1.8,4.1l1.7-4.1h1.9l-3,7.1h-1.3l-1.8-4.1L414.8,438.1
				z"/>
			<path fill="#FBF9F3" d="M434.4,438.1h-1.8v-0.6c-0.6,0.5-1.3,0.7-2,0.7c-1.1,0-2.1-0.5-2.7-1.2c-0.6-0.6-0.9-1.5-0.9-2.5
				c0-2.1,1.6-3.7,3.5-3.7c0.8,0,1.5,0.3,2.1,0.7V431h1.8V438.1z M432.5,433.5c-0.4-0.5-1-0.9-1.8-0.9c-1.1,0-1.8,0.9-1.8,1.9
				c0,1.1,0.8,1.9,1.9,1.9c0.7,0,1.3-0.4,1.7-0.9V433.5z"/>
			<path fill="#FBF9F3" d="M436.6,438.1V431h1.8v0.6c0.5-0.4,1.2-0.7,2-0.7c1,0,1.9,0.4,2.5,1.1c0.5,0.6,0.7,1.3,0.7,2.5v3.6h-1.9
				v-3.8c0-0.7-0.2-1.1-0.4-1.3c-0.2-0.2-0.6-0.4-1.1-0.4c-0.8,0-1.5,0.5-1.7,0.9v4.6H436.6z"/>
			<path fill="#FBF9F3" d="M450.7,438.1v-0.6c-0.6,0.5-1.3,0.7-2,0.7c-1.1,0-2.1-0.5-2.7-1.2c-0.6-0.6-0.9-1.5-0.9-2.5
				c0-2.1,1.6-3.7,3.5-3.7c0.8,0,1.5,0.2,2,0.7v-3.8h1.9v10.4H450.7z M450.6,433.5c-0.4-0.5-1-0.9-1.8-0.9c-1.1,0-1.8,0.9-1.8,1.9
				c0,1.1,0.8,1.9,1.9,1.9c0.7,0,1.3-0.4,1.7-0.9V433.5z"/>
			<path fill="#FBF9F3" d="M458.7,431h1.8v0.6c0.6-0.5,1.3-0.7,2.1-0.7c1.9,0,3.5,1.6,3.5,3.7c0,1-0.3,1.8-0.9,2.5
				c-0.6,0.7-1.6,1.2-2.7,1.2c-0.7,0-1.3-0.2-1.9-0.6v4h-1.9V431z M460.6,435.6c0.4,0.5,1,0.9,1.7,0.9c1.1,0,1.9-0.8,1.9-1.9
				c0-1-0.7-1.9-1.8-1.9c-0.7,0-1.4,0.4-1.8,0.9V435.6z"/>
			<path fill="#FBF9F3" d="M471.1,430.9c2.2,0,3.8,1.7,3.8,3.7s-1.6,3.7-3.8,3.7s-3.8-1.6-3.8-3.7S468.9,430.9,471.1,430.9z
				 M471.1,436.5c1.1,0,1.9-0.9,1.9-1.9s-0.8-1.9-1.9-1.9s-1.9,0.9-1.9,1.9S469.9,436.5,471.1,436.5z"/>
			<path fill="#FBF9F3" d="M478.4,438.1h-1.9v-10.4h1.9V438.1z"/>
			<path fill="#FBF9F3" d="M481.5,427.3c0.7,0,1.2,0.5,1.2,1.2s-0.6,1.2-1.2,1.2s-1.2-0.5-1.2-1.2S480.8,427.3,481.5,427.3z
				 M482.5,438.1h-1.9V431h1.9V438.1z"/>
			<path fill="#FBF9F3" d="M491.1,436.7c-0.8,1.1-1.9,1.6-3.2,1.6c-2.2,0-3.8-1.6-3.8-3.7c0-2.1,1.7-3.7,3.8-3.7
				c1.2,0,2.3,0.6,3,1.4l-1.3,1.2c-0.4-0.5-1-0.8-1.6-0.8c-1.1,0-1.9,0.9-1.9,1.9c0,1.1,0.8,1.9,2,1.9c0.8,0,1.4-0.5,1.7-0.9
				L491.1,436.7z"/>
			<path fill="#FBF9F3" d="M492.8,441.6l2-4.2l-3.2-6.4h2.1l2.1,4.3l1.9-4.3h2l-4.9,10.6H492.8z"/>
			<path fill="#FBF9F3" d="M501.9,435.7c0.7,0,1.3,0.6,1.3,1.3s-0.6,1.3-1.3,1.3s-1.3-0.6-1.3-1.3S501.1,435.7,501.9,435.7z"/>
			<path fill="#FBF9F3" d="M156.6,449.3h2l2.1,6.4l2.3-6.4h1.4l2.3,6.4l2.1-6.4h2l-3.4,10.3h-1.4l-2.3-6.5l-2.3,6.5h-1.4
				L156.6,449.3z"/>
			<path fill="#FBF9F3" d="M177.5,458.4c-0.7,0.8-1.8,1.3-2.9,1.3c-2.1,0-3.7-1.5-3.7-3.7c0-2,1.3-3.7,3.5-3.7c2,0,3.4,1.7,3.4,3.6
				c0,0.2,0,0.4,0,0.5h-4.9c0.1,1,0.9,1.7,1.9,1.7c0.8,0,1.5-0.5,1.8-0.8L177.5,458.4z M175.8,455c-0.1-0.6-0.6-1.2-1.4-1.2
				c-0.8,0-1.4,0.6-1.5,1.2H175.8z"/>
			<path fill="#FBF9F3" d="M185.2,459.5h-1.9v-10.4h1.9v3.8c0.5-0.4,1.2-0.7,1.9-0.7c1,0,1.9,0.4,2.5,1.1c0.5,0.6,0.7,1.3,0.7,2.5
				v3.6h-1.9v-3.8c0-0.7-0.2-1.1-0.4-1.3c-0.2-0.2-0.6-0.4-1.1-0.4c-0.8,0-1.5,0.5-1.7,0.9V459.5z"/>
			<path fill="#FBF9F3" d="M198.4,458.4c-0.7,0.8-1.8,1.3-2.9,1.3c-2.1,0-3.7-1.5-3.7-3.7c0-2,1.3-3.7,3.5-3.7c2,0,3.4,1.7,3.4,3.6
				c0,0.2,0,0.4,0,0.5h-4.9c0.1,1,0.9,1.7,1.9,1.7c0.8,0,1.5-0.5,1.8-0.8L198.4,458.4z M196.7,455c-0.1-0.6-0.6-1.2-1.4-1.2
				c-0.8,0-1.4,0.6-1.5,1.2H196.7z"/>
			<path fill="#FBF9F3" d="M202.1,459.5h-1.9v-10.4h1.9V459.5z"/>
			<path fill="#FBF9F3" d="M204.3,452.4h1.8v0.6c0.6-0.5,1.3-0.7,2.1-0.7c1.9,0,3.5,1.6,3.5,3.7c0,1-0.3,1.8-0.9,2.5
				c-0.6,0.7-1.6,1.2-2.7,1.2c-0.7,0-1.3-0.2-1.9-0.6v4h-1.9V452.4z M206.2,457c0.4,0.5,1,0.9,1.7,0.9c1.1,0,1.9-0.8,1.9-1.9
				c0-1-0.7-1.9-1.8-1.9c-0.7,0-1.4,0.4-1.8,0.9V457z"/>
			<path fill="#FBF9F3" d="M220.5,452.3c2.2,0,3.8,1.7,3.8,3.7s-1.6,3.7-3.8,3.7s-3.8-1.6-3.8-3.7S218.3,452.3,220.5,452.3z
				 M220.5,457.9c1.1,0,1.9-0.9,1.9-1.9s-0.8-1.9-1.9-1.9s-1.9,0.9-1.9,1.9S219.4,457.9,220.5,457.9z"/>
			<path fill="#FBF9F3" d="M232.6,452.4v7.1h-1.8v-0.6c-0.6,0.5-1.2,0.7-1.9,0.7c-1,0-1.9-0.5-2.4-1.1c-0.5-0.6-0.7-1.3-0.7-2.3
				v-3.8h1.9v3.8c0,0.6,0.1,1,0.4,1.2c0.3,0.3,0.7,0.4,1.1,0.4c0.8,0,1.4-0.5,1.7-0.9v-4.6H232.6z"/>
			<path fill="#FBF9F3" d="M239.1,454.1c-0.1,0-0.4-0.1-0.7-0.1c-0.8,0-1.5,0.6-1.7,1v4.5h-1.9v-7.1h1.8v0.7
				c0.4-0.5,1.2-0.9,2.1-0.9c0.3,0,0.4,0,0.6,0.1L239.1,454.1z"/>
			<path fill="#FBF9F3" d="M251.2,458.1c-0.8,1.1-1.9,1.6-3.2,1.6c-2.2,0-3.8-1.6-3.8-3.7c0-2.1,1.7-3.7,3.8-3.7
				c1.2,0,2.3,0.6,3,1.4l-1.3,1.2c-0.4-0.5-1-0.8-1.6-0.8c-1.1,0-1.9,0.9-1.9,1.9c0,1.1,0.8,1.9,2,1.9c0.8,0,1.4-0.5,1.7-0.9
				L251.2,458.1z"/>
			<path fill="#FBF9F3" d="M254.6,459.5h-1.9v-10.4h1.9V459.5z"/>
			<path fill="#FBF9F3" d="M257.7,448.7c0.7,0,1.2,0.5,1.2,1.2s-0.6,1.2-1.2,1.2s-1.2-0.5-1.2-1.2S257.1,448.7,257.7,448.7z
				 M258.7,459.5h-1.9v-7.1h1.9V459.5z"/>
			<path fill="#FBF9F3" d="M266.9,458.4c-0.7,0.8-1.8,1.3-2.9,1.3c-2.1,0-3.7-1.5-3.7-3.7c0-2,1.3-3.7,3.5-3.7c2,0,3.4,1.7,3.4,3.6
				c0,0.2,0,0.4,0,0.5h-4.9c0.1,1,0.9,1.7,1.9,1.7c0.8,0,1.5-0.5,1.8-0.8L266.9,458.4z M265.2,455c-0.1-0.6-0.6-1.2-1.4-1.2
				c-0.8,0-1.4,0.6-1.5,1.2H265.2z"/>
			<path fill="#FBF9F3" d="M268.7,459.5v-7.1h1.8v0.6c0.5-0.4,1.2-0.7,2-0.7c1,0,1.9,0.4,2.5,1.1c0.5,0.6,0.7,1.3,0.7,2.5v3.6h-1.9
				v-3.8c0-0.7-0.2-1.1-0.4-1.3c-0.2-0.2-0.6-0.4-1.1-0.4c-0.8,0-1.5,0.5-1.7,0.9v4.6H268.7z"/>
			<path fill="#FBF9F3" d="M282.9,459.5c-0.2,0.1-0.8,0.1-1.2,0.1c-1.1,0-2-0.4-2.5-1c-0.4-0.5-0.5-1.1-0.5-2.1V454h-2v-1.6h2v-2
				h1.9v2h2.3v1.6h-2.3v2.7c0,0.4,0.1,0.7,0.2,0.9c0.2,0.2,0.5,0.4,1,0.4c0.3,0,0.6,0,0.8-0.1L282.9,459.5z"/>
			<path fill="#FBF9F3" d="M285,457.3c0.5,0.4,1.2,0.7,1.9,0.7c0.5,0,0.9-0.2,0.9-0.6c0-1.1-3.4-0.7-3.4-3c0-1.4,1.3-2.2,2.7-2.2
				c0.9,0,1.9,0.4,2.4,0.7l-0.9,1.4c-0.4-0.3-0.8-0.5-1.4-0.5c-0.5,0-1,0.2-1,0.6c0,0.9,3.4,0.6,3.4,3c0,1.4-1.3,2.2-2.8,2.2
				c-1,0-2-0.3-2.9-1L285,457.3z"/>
			<path fill="#FBF9F3" d="M295.7,457.3c0.5,0.4,1.2,0.7,1.9,0.7c0.5,0,0.9-0.2,0.9-0.6c0-1.1-3.4-0.7-3.4-3c0-1.4,1.3-2.2,2.7-2.2
				c0.9,0,1.9,0.4,2.4,0.7l-0.9,1.4c-0.4-0.3-0.8-0.5-1.4-0.5c-0.5,0-1,0.2-1,0.6c0,0.9,3.4,0.6,3.4,3c0,1.4-1.3,2.2-2.8,2.2
				c-1,0-2-0.3-2.9-1L295.7,457.3z"/>
			<path fill="#FBF9F3" d="M304.1,459.5h-1.9v-10.4h1.9v3.8c0.5-0.4,1.2-0.7,1.9-0.7c1,0,1.9,0.4,2.5,1.1c0.5,0.6,0.7,1.3,0.7,2.5
				v3.6h-1.9v-3.8c0-0.7-0.2-1.1-0.4-1.3c-0.2-0.2-0.6-0.4-1.1-0.4c-0.8,0-1.5,0.5-1.7,0.9V459.5z"/>
			<path fill="#FBF9F3" d="M318.1,459.5h-1.8v-0.6c-0.6,0.5-1.3,0.7-2,0.7c-1.1,0-2.1-0.5-2.7-1.2c-0.6-0.6-0.9-1.5-0.9-2.5
				c0-2.1,1.6-3.7,3.5-3.7c0.8,0,1.5,0.3,2.1,0.7v-0.6h1.8V459.5z M316.2,454.9c-0.4-0.5-1-0.9-1.8-0.9c-1.1,0-1.8,0.9-1.8,1.9
				c0,1.1,0.8,1.9,1.9,1.9c0.7,0,1.3-0.4,1.7-0.9V454.9z"/>
			<path fill="#FBF9F3" d="M320.3,452.4h1.8v0.6c0.6-0.5,1.3-0.7,2.1-0.7c1.9,0,3.5,1.6,3.5,3.7c0,1-0.3,1.8-0.9,2.5
				c-0.6,0.7-1.6,1.2-2.7,1.2c-0.7,0-1.3-0.2-1.9-0.6v4h-1.9V452.4z M322.2,457c0.4,0.5,1,0.9,1.7,0.9c1.1,0,1.9-0.8,1.9-1.9
				c0-1-0.7-1.9-1.8-1.9c-0.7,0-1.4,0.4-1.8,0.9V457z"/>
			<path fill="#FBF9F3" d="M335.5,458.4c-0.7,0.8-1.8,1.3-2.9,1.3c-2.1,0-3.7-1.5-3.7-3.7c0-2,1.3-3.7,3.5-3.7c2,0,3.4,1.7,3.4,3.6
				c0,0.2,0,0.4,0,0.5h-4.9c0.1,1,0.9,1.7,1.9,1.7c0.8,0,1.5-0.5,1.8-0.8L335.5,458.4z M333.7,455c-0.1-0.6-0.6-1.2-1.4-1.2
				c-0.8,0-1.4,0.6-1.5,1.2H333.7z"/>
			<path fill="#FBF9F3" d="M344.3,459.5H343l-3-7.1h1.9l1.7,4.1l1.8-4.1h1.3l1.8,4.1l1.7-4.1h1.9l-3,7.1h-1.3l-1.8-4.1L344.3,459.5z
				"/>
			<path fill="#FBF9F3" d="M355.4,459.5h-1.9v-10.4h1.9v3.8c0.5-0.4,1.2-0.7,1.9-0.7c1,0,1.9,0.4,2.5,1.1c0.5,0.6,0.7,1.3,0.7,2.5
				v3.6h-1.9v-3.8c0-0.7-0.2-1.1-0.4-1.3c-0.2-0.2-0.6-0.4-1.1-0.4c-0.8,0-1.5,0.5-1.7,0.9V459.5z"/>
			<path fill="#FBF9F3" d="M369.3,459.5h-1.8v-0.6c-0.6,0.5-1.3,0.7-2,0.7c-1.1,0-2.1-0.5-2.7-1.2c-0.6-0.6-0.9-1.5-0.9-2.5
				c0-2.1,1.6-3.7,3.5-3.7c0.8,0,1.5,0.3,2.1,0.7v-0.6h1.8V459.5z M367.4,454.9c-0.4-0.5-1-0.9-1.8-0.9c-1.1,0-1.8,0.9-1.8,1.9
				c0,1.1,0.8,1.9,1.9,1.9c0.7,0,1.3-0.4,1.7-0.9V454.9z"/>
			<path fill="#FBF9F3" d="M376.9,459.5c-0.2,0.1-0.8,0.1-1.2,0.1c-1.1,0-2-0.4-2.5-1c-0.4-0.5-0.5-1.1-0.5-2.1V454h-2v-1.6h2v-2
				h1.9v2h2.3v1.6h-2.3v2.7c0,0.4,0.1,0.7,0.2,0.9c0.2,0.2,0.5,0.4,1,0.4c0.3,0,0.6,0,0.8-0.1L376.9,459.5z"/>
			<path fill="#FBF9F3" d="M384.7,459.5h-1.9v-10.4h1.9v3.8c0.5-0.4,1.2-0.7,1.9-0.7c1,0,1.9,0.4,2.5,1.1c0.5,0.6,0.7,1.3,0.7,2.5
				v3.6h-1.9v-3.8c0-0.7-0.2-1.1-0.4-1.3c-0.2-0.2-0.6-0.4-1.1-0.4c-0.8,0-1.5,0.5-1.7,0.9V459.5z"/>
			<path fill="#FBF9F3" d="M398.7,459.5h-1.8v-0.6c-0.6,0.5-1.3,0.7-2,0.7c-1.1,0-2.1-0.5-2.7-1.2c-0.6-0.6-0.9-1.5-0.9-2.5
				c0-2.1,1.6-3.7,3.5-3.7c0.8,0,1.5,0.3,2.1,0.7v-0.6h1.8V459.5z M396.7,454.9c-0.4-0.5-1-0.9-1.8-0.9c-1.1,0-1.8,0.9-1.8,1.9
				c0,1.1,0.8,1.9,1.9,1.9c0.7,0,1.3-0.4,1.7-0.9V454.9z"/>
			<path fill="#FBF9F3" d="M400.9,452.4h1.8v0.6c0.6-0.5,1.3-0.7,2.1-0.7c1.9,0,3.5,1.6,3.5,3.7c0,1-0.3,1.8-0.9,2.5
				c-0.6,0.7-1.6,1.2-2.7,1.2c-0.7,0-1.3-0.2-1.9-0.6v4h-1.9V452.4z M402.8,457c0.4,0.5,1,0.9,1.7,0.9c1.1,0,1.9-0.8,1.9-1.9
				c0-1-0.7-1.9-1.8-1.9c-0.7,0-1.4,0.4-1.8,0.9V457z"/>
			<path fill="#FBF9F3" d="M409.9,452.4h1.8v0.6c0.6-0.5,1.3-0.7,2.1-0.7c1.9,0,3.5,1.6,3.5,3.7c0,1-0.3,1.8-0.9,2.5
				c-0.6,0.7-1.6,1.2-2.7,1.2c-0.7,0-1.3-0.2-1.9-0.6v4h-1.9V452.4z M411.8,457c0.4,0.5,1,0.9,1.7,0.9c1.1,0,1.9-0.8,1.9-1.9
				c0-1-0.7-1.9-1.8-1.9c-0.7,0-1.4,0.4-1.8,0.9V457z"/>
			<path fill="#FBF9F3" d="M425.1,458.4c-0.7,0.8-1.8,1.3-2.9,1.3c-2.1,0-3.7-1.5-3.7-3.7c0-2,1.3-3.7,3.5-3.7c2,0,3.4,1.7,3.4,3.6
				c0,0.2,0,0.4,0,0.5h-4.9c0.1,1,0.9,1.7,1.9,1.7c0.8,0,1.5-0.5,1.8-0.8L425.1,458.4z M423.3,455c-0.1-0.6-0.6-1.2-1.4-1.2
				c-0.8,0-1.4,0.6-1.5,1.2H423.3z"/>
			<path fill="#FBF9F3" d="M426.9,459.5v-7.1h1.8v0.6c0.5-0.4,1.2-0.7,2-0.7c1,0,1.9,0.4,2.5,1.1c0.5,0.6,0.7,1.3,0.7,2.5v3.6H432
				v-3.8c0-0.7-0.2-1.1-0.4-1.3c-0.2-0.2-0.6-0.4-1.1-0.4c-0.8,0-1.5,0.5-1.7,0.9v4.6H426.9z"/>
			<path fill="#FBF9F3" d="M436.2,457.3c0.5,0.4,1.2,0.7,1.9,0.7c0.5,0,0.9-0.2,0.9-0.6c0-1.1-3.4-0.7-3.4-3c0-1.4,1.3-2.2,2.7-2.2
				c0.9,0,1.9,0.4,2.4,0.7l-0.9,1.4c-0.4-0.3-0.8-0.5-1.4-0.5c-0.5,0-1,0.2-1,0.6c0,0.9,3.4,0.6,3.4,3c0,1.4-1.3,2.2-2.8,2.2
				c-1,0-2-0.3-2.9-1L436.2,457.3z"/>
			<path fill="#FBF9F3" d="M446.6,459.5v-7.1h1.8v0.6c0.5-0.4,1.2-0.7,2-0.7c1,0,1.9,0.4,2.5,1.1c0.5,0.6,0.7,1.3,0.7,2.5v3.6h-1.9
				v-3.8c0-0.7-0.2-1.1-0.4-1.3c-0.2-0.2-0.6-0.4-1.1-0.4c-0.8,0-1.5,0.5-1.7,0.9v4.6H446.6z"/>
			<path fill="#FBF9F3" d="M461.8,458.4c-0.7,0.8-1.8,1.3-2.9,1.3c-2.1,0-3.7-1.5-3.7-3.7c0-2,1.3-3.7,3.5-3.7c2,0,3.4,1.7,3.4,3.6
				c0,0.2,0,0.4,0,0.5H457c0.1,1,0.9,1.7,1.9,1.7c0.8,0,1.5-0.5,1.8-0.8L461.8,458.4z M460,455c-0.1-0.6-0.6-1.2-1.4-1.2
				c-0.8,0-1.4,0.6-1.5,1.2H460z"/>
			<path fill="#FBF9F3" d="M466.2,454.4l1.4-2h2.2l-2.4,3.3l2.7,3.8h-2.3l-1.7-2.4l-1.7,2.4h-2.3l2.7-3.8l-2.4-3.3h2.2L466.2,454.4z
				"/>
			<path fill="#FBF9F3" d="M476.7,459.5c-0.2,0.1-0.8,0.1-1.2,0.1c-1.1,0-2-0.4-2.5-1c-0.4-0.5-0.5-1.1-0.5-2.1V454h-2v-1.6h2v-2
				h1.9v2h2.3v1.6h-2.3v2.7c0,0.4,0.1,0.7,0.2,0.9c0.2,0.2,0.5,0.4,1,0.4c0.3,0,0.6,0,0.8-0.1L476.7,459.5z"/>
			<path fill="#FBF9F3" d="M480.4,457.1c0.7,0,1.3,0.6,1.3,1.3s-0.6,1.3-1.3,1.3s-1.3-0.6-1.3-1.3S479.7,457.1,480.4,457.1z"/>
		</g>
		<line fill="none" stroke="#5BBCC9" stroke-width="2.7119" stroke-miterlimit="10" x1="179.2" y1="443.9" x2="274.1" y2="443.9"/>
		<line fill="none" stroke="#5BBCC9" stroke-width="2.7119" stroke-miterlimit="10" x1="446.3" y1="465.2" x2="482.4" y2="465.2"/>
	</g>
	<g>
		<g>
			<path fill="#90A4AE" d="M277.9,193.4v3.7h-1.2v-3.7L274,189h1.3l2.1,3.3l2.1-3.3h1.3L277.9,193.4z"/>
			<path fill="#90A4AE" d="M283.1,191.5c1.6,0,2.8,1.2,2.8,2.8c0,1.6-1.2,2.8-2.8,2.8s-2.8-1.2-2.8-2.8
				C280.3,192.7,281.5,191.5,283.1,191.5z M283.1,196.2c1,0,1.7-0.8,1.7-1.8c0-1-0.7-1.8-1.7-1.8s-1.7,0.8-1.7,1.8
				C281.4,195.4,282.1,196.2,283.1,196.2z"/>
			<path fill="#90A4AE" d="M287.6,196.3c-0.3-0.4-0.5-1-0.5-1.9v-2.8h1.1v3c0,0.6,0.1,0.9,0.3,1.1c0.2,0.3,0.6,0.5,1.1,0.5
				c0.7,0,1.2-0.4,1.5-0.8v-3.7h1.1v5.5h-1.1v-0.5c-0.2,0.2-0.8,0.6-1.6,0.6C288.8,197.2,288.1,196.9,287.6,196.3z"/>
			<path fill="#90A4AE" d="M302.4,197.1h-1.5l-2.7-2.7v2.7h-1.1v-8.2h1.1v4.9l2.3-2.1h1.6l-2.7,2.5L302.4,197.1z"/>
			<path fill="#90A4AE" d="M304.4,192.2c0.3-0.3,0.8-0.6,1.6-0.6c0.8,0,1.5,0.4,2,1c0.3,0.4,0.5,1,0.5,1.9v2.7h-1.1v-2.7
				c0-0.7-0.1-1-0.3-1.3c-0.3-0.3-0.7-0.5-1.1-0.5c-0.7,0-1.2,0.4-1.6,0.8v3.7h-1.1v-5.5h1.1V192.2z"/>
			<path fill="#90A4AE" d="M312.6,191.5c1.6,0,2.8,1.2,2.8,2.8c0,1.6-1.2,2.8-2.8,2.8s-2.8-1.2-2.8-2.8
				C309.8,192.7,311,191.5,312.6,191.5z M312.6,196.2c1,0,1.7-0.8,1.7-1.8c0-1-0.7-1.8-1.7-1.8s-1.7,0.8-1.7,1.8
				C310.9,195.4,311.6,196.2,312.6,196.2z"/>
			<path fill="#90A4AE" d="M320.7,191.6l1.5,3.7l1.5-3.7h1.1l-2.2,5.5h-0.8l-1.5-3.8l-1.5,3.8H318l-2.2-5.5h1.1l1.5,3.7l1.5-3.7
				H320.7z"/>
			<path fill="#90A4AE" d="M332.2,197.1c-0.2,0.1-0.5,0.1-0.9,0.1c-0.7,0-1.2-0.2-1.5-0.6c-0.3-0.4-0.4-0.9-0.4-1.5v-2.5H328v-1h1.4
				v-1.5h1.1v1.5h1.7v1h-1.7v2.6c0,0.3,0,0.5,0.2,0.7c0.2,0.2,0.5,0.3,0.8,0.3c0.2,0,0.4,0,0.6-0.1L332.2,197.1z"/>
			<path fill="#90A4AE" d="M334.5,192.1c0.3-0.3,0.8-0.6,1.6-0.6c0.8,0,1.5,0.4,2,1c0.3,0.4,0.5,1,0.5,1.9v2.7h-1.1v-2.7
				c0-0.7-0.1-1-0.3-1.3c-0.3-0.3-0.7-0.5-1.1-0.5c-0.7,0-1.2,0.4-1.6,0.8v3.7h-1.1v-8.2h1.1V192.1z"/>
			<path fill="#90A4AE" d="M340.9,194.6c0.1,0.9,0.8,1.6,1.8,1.6c0.8,0,1.3-0.4,1.6-0.7l0.7,0.7c-0.4,0.5-1.2,1-2.3,1
				c-1.6,0-2.8-1.2-2.8-2.8c0-1.6,1.1-2.8,2.7-2.8c1.5,0,2.6,1.2,2.6,2.8c0,0,0,0.1,0,0.2H340.9z M341,193.7h3
				c-0.2-0.7-0.8-1.2-1.4-1.2C341.8,192.5,341.1,193,341,193.7z"/>
			<path fill="#90A4AE" d="M350,189c0.4,0,0.7,0.3,0.7,0.7c0,0.4-0.3,0.7-0.7,0.7s-0.7-0.3-0.7-0.7C349.3,189.3,349.6,189,350,189z
				 M349.5,191.6h1.1v5.5h-1.1V191.6z"/>
			<path fill="#90A4AE" d="M352.4,195.6c0.5,0.4,1.1,0.6,1.6,0.6c0.5,0,1-0.3,1-0.7c0-0.6-0.9-0.7-1.7-0.9c-0.7-0.2-1.3-0.6-1.3-1.4
				c0-1.2,1-1.7,2-1.7c0.8,0,1.4,0.3,1.8,0.6l-0.6,0.8c-0.3-0.3-0.7-0.4-1.2-0.4c-0.5,0-1,0.3-1,0.7c0,0.4,0.4,0.5,1,0.6
				c0.9,0.2,2,0.6,2,1.7c0,1-1,1.7-2,1.7c-0.9,0-1.6-0.3-2.2-0.8L352.4,195.6z"/>
			<path fill="#90A4AE" d="M357.5,195.6c0.5,0.4,1.1,0.6,1.6,0.6c0.5,0,1-0.3,1-0.7c0-0.6-0.9-0.7-1.7-0.9c-0.7-0.2-1.3-0.6-1.3-1.4
				c0-1.2,1-1.7,2-1.7c0.8,0,1.4,0.3,1.8,0.6l-0.6,0.8c-0.3-0.3-0.7-0.4-1.2-0.4c-0.5,0-1,0.3-1,0.7c0,0.4,0.4,0.5,1,0.6
				c0.9,0.2,2,0.6,2,1.7c0,1-1,1.7-2,1.7c-0.9,0-1.6-0.3-2.2-0.8L357.5,195.6z"/>
			<path fill="#90A4AE" d="M362.8,196.3c-0.3-0.4-0.5-1-0.5-1.9v-2.8h1.1v3c0,0.6,0.1,0.9,0.3,1.1c0.2,0.3,0.6,0.5,1.1,0.5
				c0.7,0,1.2-0.4,1.5-0.8v-3.7h1.1v5.5h-1.1v-0.5c-0.2,0.2-0.8,0.6-1.6,0.6C364,197.2,363.3,196.9,362.8,196.3z"/>
			<path fill="#90A4AE" d="M369.8,194.6c0.1,0.9,0.8,1.6,1.8,1.6c0.8,0,1.3-0.4,1.6-0.7l0.7,0.7c-0.4,0.5-1.2,1-2.3,1
				c-1.6,0-2.8-1.2-2.8-2.8c0-1.6,1.1-2.8,2.7-2.8c1.5,0,2.6,1.2,2.6,2.8c0,0,0,0.1,0,0.2H369.8z M369.9,193.7h3
				c-0.2-0.7-0.8-1.2-1.4-1.2C370.7,192.5,370.1,193,369.9,193.7z"/>
			<path fill="#90A4AE" d="M375.4,195.6c0.5,0.4,1.1,0.6,1.6,0.6c0.5,0,1-0.3,1-0.7c0-0.6-0.9-0.7-1.7-0.9c-0.7-0.2-1.3-0.6-1.3-1.4
				c0-1.2,1-1.7,2-1.7c0.8,0,1.4,0.3,1.8,0.6l-0.6,0.8c-0.3-0.3-0.7-0.4-1.2-0.4c-0.5,0-1,0.3-1,0.7c0,0.4,0.4,0.5,1,0.6
				c0.9,0.2,2,0.6,2,1.7c0,1-1,1.7-2,1.7c-0.9,0-1.6-0.3-2.2-0.8L375.4,195.6z"/>
			<path fill="#90A4AE" d="M381.3,195.6c0.5,0,0.8,0.4,0.8,0.8c0,0.5-0.4,0.8-0.8,0.8s-0.8-0.4-0.8-0.8
				C380.5,195.9,380.8,195.6,381.3,195.6z"/>
			<path fill="#90A4AE" d="M257.1,210.6v-8.1h2.8c0.8,0,1.3,0.2,1.7,0.6c0.4,0.4,0.7,0.9,0.7,1.5c0,0.6-0.3,1.1-0.6,1.4
				c0.8,0.4,1.3,1.2,1.3,2.1c0,0.8-0.3,1.4-0.9,1.9c-0.4,0.3-1,0.5-1.8,0.5H257.1z M259.6,205.7c0.6,0,0.9-0.1,1.1-0.3
				c0.2-0.2,0.3-0.4,0.3-0.7s-0.1-0.5-0.3-0.7c-0.2-0.2-0.5-0.3-1.1-0.3h-1.4v2.1H259.6z M260,209.5c0.7,0,1.1-0.2,1.3-0.4
				c0.2-0.2,0.4-0.6,0.4-1s-0.2-0.7-0.4-0.9c-0.3-0.3-0.6-0.4-1.3-0.4h-1.8v2.7H260z"/>
			<path fill="#90A4AE" d="M264.5,209.8c-0.3-0.4-0.5-1-0.5-1.9v-2.8h1.1v3c0,0.6,0.1,0.9,0.3,1.1c0.2,0.3,0.6,0.5,1.1,0.5
				c0.7,0,1.2-0.4,1.5-0.8v-3.7h1.1v5.5h-1.1v-0.5c-0.2,0.2-0.8,0.6-1.6,0.6C265.7,210.7,265,210.4,264.5,209.8z"/>
			<path fill="#90A4AE" d="M274.4,210.6c-0.2,0.1-0.5,0.1-0.9,0.1c-0.7,0-1.2-0.2-1.5-0.6c-0.3-0.4-0.4-0.9-0.4-1.5v-2.5h-1.4v-1
				h1.4v-1.5h1.1v1.5h1.7v1h-1.7v2.6c0,0.3,0,0.5,0.2,0.7c0.2,0.2,0.5,0.3,0.8,0.3c0.2,0,0.4,0,0.6-0.1L274.4,210.6z"/>
			<path fill="#90A4AE" d="M282.1,210.6c-0.2,0.1-0.5,0.1-0.9,0.1c-0.7,0-1.2-0.2-1.5-0.6c-0.3-0.4-0.4-0.9-0.4-1.5v-2.5h-1.4v-1
				h1.4v-1.5h1.1v1.5h1.7v1h-1.7v2.6c0,0.3,0,0.5,0.2,0.7c0.2,0.2,0.5,0.3,0.8,0.3c0.2,0,0.4,0,0.6-0.1L282.1,210.6z"/>
			<path fill="#90A4AE" d="M283.9,208.1c0.1,0.9,0.8,1.6,1.8,1.6c0.8,0,1.3-0.4,1.6-0.7l0.7,0.7c-0.4,0.5-1.2,1-2.3,1
				c-1.6,0-2.8-1.2-2.8-2.8c0-1.6,1.1-2.8,2.7-2.8c1.5,0,2.6,1.2,2.6,2.8c0,0,0,0.1,0,0.2H283.9z M284,207.2h3
				c-0.2-0.7-0.8-1.2-1.4-1.2C284.9,206,284.2,206.5,284,207.2z"/>
			<path fill="#90A4AE" d="M294.4,209.5c-0.5,0.8-1.4,1.3-2.4,1.3c-1.7,0-2.9-1.2-2.9-2.8c0-1.6,1.2-2.8,2.8-2.8
				c1,0,1.8,0.5,2.3,1.2l-0.8,0.7c-0.3-0.4-0.8-0.8-1.5-0.8c-1,0-1.7,0.8-1.7,1.8c0,1.1,0.8,1.8,1.8,1.8c0.7,0,1.2-0.4,1.6-0.8
				L294.4,209.5z"/>
			<path fill="#90A4AE" d="M296.6,205.6c0.3-0.3,0.8-0.6,1.6-0.6c0.8,0,1.5,0.4,2,1c0.3,0.4,0.5,1,0.5,1.9v2.7h-1.1v-2.7
				c0-0.7-0.1-1-0.3-1.3c-0.3-0.3-0.7-0.5-1.1-0.5c-0.7,0-1.2,0.4-1.6,0.8v3.7h-1.1v-8.2h1.1V205.6z"/>
			<path fill="#90A4AE" d="M303.4,205.7c0.3-0.3,0.8-0.6,1.6-0.6c0.8,0,1.5,0.4,2,1c0.3,0.4,0.5,1,0.5,1.9v2.7h-1.1v-2.7
				c0-0.7-0.1-1-0.3-1.3c-0.3-0.3-0.7-0.5-1.1-0.5c-0.7,0-1.2,0.4-1.6,0.8v3.7h-1.1v-5.5h1.1V205.7z"/>
			<path fill="#90A4AE" d="M311.6,205c1.6,0,2.8,1.2,2.8,2.8c0,1.6-1.2,2.8-2.8,2.8s-2.8-1.2-2.8-2.8C308.8,206.3,310,205,311.6,205
				z M311.6,209.7c1,0,1.7-0.8,1.7-1.8c0-1-0.7-1.8-1.7-1.8s-1.7,0.8-1.7,1.8C309.9,208.9,310.6,209.7,311.6,209.7z"/>
			<path fill="#90A4AE" d="M315.8,202.4h1.1v8.2h-1.1V202.4z"/>
			<path fill="#90A4AE" d="M321,205c1.6,0,2.8,1.2,2.8,2.8c0,1.6-1.2,2.8-2.8,2.8s-2.8-1.2-2.8-2.8C318.2,206.3,319.4,205,321,205z
				 M321,209.7c1,0,1.7-0.8,1.7-1.8c0-1-0.7-1.8-1.7-1.8s-1.7,0.8-1.7,1.8C319.3,208.9,320,209.7,321,209.7z"/>
			<path fill="#90A4AE" d="M327.5,210.7c-0.5,0-1-0.1-1.4-0.4c-0.8-0.5-1.4-1.4-1.4-2.5c0-1.1,0.6-2,1.4-2.5
				c0.4-0.2,0.8-0.3,1.3-0.3c0.6,0,1.2,0.2,1.7,0.6v-0.5h1.1v5.2c0,0.8-0.1,1.4-0.3,1.8c-0.4,0.8-1.3,1.3-2.4,1.3
				c-1.4,0-2.3-0.7-2.7-1.3l0.8-0.8c0.4,0.5,0.9,1,1.8,1c0.6,0,1.1-0.2,1.3-0.6c0.2-0.3,0.3-0.7,0.3-1.4v-0.3
				C328.8,210.5,328.2,210.7,327.5,210.7z M329.2,206.9c-0.3-0.4-0.9-0.8-1.6-0.8c-1.1,0-1.8,0.8-1.8,1.8c0,1,0.8,1.8,1.8,1.8
				c0.6,0,1.1-0.3,1.5-0.8V206.9z"/>
			<path fill="#90A4AE" d="M332.1,213.4l1.5-3.4l-2.3-4.9h1.2l1.7,3.6l1.6-3.6h1.2l-3.6,8.2H332.1z"/>
			<path fill="#90A4AE" d="M341.5,202.5c0.4,0,0.7,0.3,0.7,0.7c0,0.4-0.3,0.7-0.7,0.7s-0.7-0.3-0.7-0.7
				C340.8,202.8,341.1,202.5,341.5,202.5z M340.9,205.2h1.1v5.5h-1.1V205.2z"/>
			<path fill="#90A4AE" d="M343.9,209.2c0.5,0.4,1.1,0.6,1.6,0.6c0.5,0,1-0.3,1-0.7c0-0.6-0.9-0.7-1.7-0.9c-0.7-0.2-1.3-0.6-1.3-1.4
				c0-1.2,1-1.7,2-1.7c0.8,0,1.4,0.3,1.8,0.6l-0.6,0.8c-0.3-0.3-0.7-0.4-1.2-0.4c-0.5,0-1,0.3-1,0.7c0,0.4,0.4,0.5,1,0.6
				c0.9,0.2,2,0.6,2,1.7c0,1-1,1.7-2,1.7c-0.9,0-1.6-0.3-2.2-0.8L343.9,209.2z"/>
			<path fill="#90A4AE" d="M356.9,209.5c-0.5,0.8-1.4,1.3-2.4,1.3c-1.7,0-2.9-1.2-2.9-2.8c0-1.6,1.2-2.8,2.8-2.8
				c1,0,1.8,0.5,2.3,1.2l-0.8,0.7c-0.3-0.4-0.8-0.8-1.5-0.8c-1,0-1.7,0.8-1.7,1.8c0,1.1,0.8,1.8,1.8,1.8c0.7,0,1.2-0.4,1.6-0.8
				L356.9,209.5z"/>
			<path fill="#90A4AE" d="M359,205.6c0.3-0.3,0.8-0.6,1.6-0.6c0.8,0,1.5,0.4,2,1c0.3,0.4,0.5,1,0.5,1.9v2.7H362v-2.7
				c0-0.7-0.1-1-0.3-1.3c-0.3-0.3-0.7-0.5-1.1-0.5c-0.7,0-1.2,0.4-1.6,0.8v3.7h-1.1v-8.2h1.1V205.6z"/>
			<path fill="#90A4AE" d="M368.8,210.1c-0.4,0.4-1,0.6-1.7,0.6c-0.5,0-1-0.1-1.4-0.4c-0.8-0.5-1.4-1.4-1.4-2.5c0-1.1,0.6-2,1.4-2.5
				c0.4-0.2,0.8-0.3,1.3-0.3c0.6,0,1.2,0.2,1.7,0.6v-0.5h1.1v5.5h-1.1V210.1z M368.8,206.9c-0.3-0.4-0.9-0.8-1.6-0.8
				c-1.1,0-1.8,0.8-1.8,1.8c0,1,0.8,1.8,1.8,1.8c0.6,0,1.1-0.3,1.5-0.8V206.9z"/>
			<path fill="#90A4AE" d="M372.6,205.7c0.3-0.3,0.8-0.6,1.6-0.6c0.8,0,1.5,0.4,2,1c0.3,0.4,0.5,1,0.5,1.9v2.7h-1.1v-2.7
				c0-0.7-0.1-1-0.3-1.3c-0.3-0.3-0.7-0.5-1.1-0.5c-0.7,0-1.2,0.4-1.6,0.8v3.7h-1.1v-5.5h1.1V205.7z"/>
			<path fill="#90A4AE" d="M380.8,210.7c-0.5,0-1-0.1-1.4-0.4c-0.8-0.5-1.4-1.4-1.4-2.5c0-1.1,0.6-2,1.4-2.5
				c0.4-0.2,0.8-0.3,1.3-0.3c0.6,0,1.2,0.2,1.7,0.6v-0.5h1.1v5.2c0,0.8-0.1,1.4-0.3,1.8c-0.4,0.8-1.3,1.3-2.4,1.3
				c-1.4,0-2.3-0.7-2.7-1.3l0.8-0.8c0.4,0.5,0.9,1,1.8,1c0.6,0,1.1-0.2,1.3-0.6c0.2-0.3,0.3-0.7,0.3-1.4v-0.3
				C382,210.5,381.4,210.7,380.8,210.7z M382.4,206.9c-0.3-0.4-0.9-0.8-1.6-0.8c-1.1,0-1.8,0.8-1.8,1.8c0,1,0.8,1.8,1.8,1.8
				c0.6,0,1.1-0.3,1.5-0.8V206.9z"/>
			<path fill="#90A4AE" d="M385.8,202.5c0.4,0,0.7,0.3,0.7,0.7c0,0.4-0.3,0.7-0.7,0.7s-0.7-0.3-0.7-0.7
				C385.1,202.8,385.4,202.5,385.8,202.5z M385.2,205.2h1.1v5.5h-1.1V205.2z"/>
			<path fill="#90A4AE" d="M389.1,205.7c0.3-0.3,0.8-0.6,1.6-0.6c0.8,0,1.5,0.4,2,1c0.3,0.4,0.5,1,0.5,1.9v2.7h-1.1v-2.7
				c0-0.7-0.1-1-0.3-1.3c-0.3-0.3-0.7-0.5-1.1-0.5c-0.7,0-1.2,0.4-1.6,0.8v3.7h-1.1v-5.5h1.1V205.7z"/>
			<path fill="#90A4AE" d="M397.2,210.7c-0.5,0-1-0.1-1.4-0.4c-0.8-0.5-1.4-1.4-1.4-2.5c0-1.1,0.6-2,1.4-2.5
				c0.4-0.2,0.8-0.3,1.3-0.3c0.6,0,1.2,0.2,1.7,0.6v-0.5h1.1v5.2c0,0.8-0.1,1.4-0.3,1.8c-0.4,0.8-1.3,1.3-2.4,1.3
				c-1.4,0-2.3-0.7-2.7-1.3l0.8-0.8c0.4,0.5,0.9,1,1.8,1c0.6,0,1.1-0.2,1.3-0.6c0.2-0.3,0.3-0.7,0.3-1.4v-0.3
				C398.5,210.5,397.9,210.7,397.2,210.7z M398.9,206.9c-0.3-0.4-0.9-0.8-1.6-0.8c-1.1,0-1.8,0.8-1.8,1.8c0,1,0.8,1.8,1.8,1.8
				c0.6,0,1.1-0.3,1.5-0.8V206.9z"/>
			<path fill="#90A4AE" d="M291.4,218.7l1.5,3.7l1.5-3.7h1.1l-2.2,5.5h-0.8l-1.5-3.8l-1.5,3.8h-0.8l-2.2-5.5h1.1l1.5,3.7l1.5-3.7
				H291.4z"/>
			<path fill="#90A4AE" d="M297.6,219.2c0.3-0.3,0.8-0.6,1.6-0.6c0.8,0,1.5,0.4,2,1c0.3,0.4,0.5,1,0.5,1.9v2.7h-1.1v-2.7
				c0-0.7-0.1-1-0.3-1.3c-0.3-0.3-0.7-0.5-1.1-0.5c-0.7,0-1.2,0.4-1.6,0.8v3.7h-1.1v-8.2h1.1V219.2z"/>
			<path fill="#90A4AE" d="M307.4,223.6c-0.4,0.4-1,0.6-1.7,0.6c-0.5,0-1-0.1-1.4-0.4c-0.8-0.5-1.4-1.4-1.4-2.5c0-1.1,0.6-2,1.4-2.5
				c0.4-0.2,0.8-0.3,1.3-0.3c0.6,0,1.2,0.2,1.7,0.6v-0.5h1.1v5.5h-1.1V223.6z M307.4,220.4c-0.3-0.4-0.9-0.8-1.6-0.8
				c-1.1,0-1.8,0.8-1.8,1.8c0,1,0.8,1.8,1.8,1.8c0.6,0,1.1-0.3,1.5-0.8V220.4z"/>
			<path fill="#90A4AE" d="M313.7,224.1c-0.2,0.1-0.5,0.1-0.9,0.1c-0.7,0-1.2-0.2-1.5-0.6c-0.3-0.4-0.4-0.9-0.4-1.5v-2.5h-1.4v-1
				h1.4v-1.5h1.1v1.5h1.7v1h-1.7v2.6c0,0.3,0,0.5,0.2,0.7c0.2,0.2,0.5,0.3,0.8,0.3c0.2,0,0.4,0,0.6-0.1L313.7,224.1z"/>
			<path fill="#90A4AE" d="M317,215.9l-1.4,3h-0.8l0.9-3H317z"/>
			<path fill="#90A4AE" d="M317.7,222.7c0.5,0.4,1.1,0.6,1.6,0.6c0.5,0,1-0.3,1-0.7c0-0.6-0.9-0.7-1.7-0.9c-0.7-0.2-1.3-0.6-1.3-1.4
				c0-1.2,1-1.7,2-1.7c0.8,0,1.4,0.3,1.8,0.6l-0.6,0.8c-0.3-0.3-0.7-0.4-1.2-0.4c-0.5,0-1,0.3-1,0.7c0,0.4,0.4,0.5,1,0.6
				c0.9,0.2,2,0.6,2,1.7c0,1-1,1.7-2,1.7c-0.9,0-1.6-0.3-2.2-0.8L317.7,222.7z"/>
			<path fill="#90A4AE" d="M326.9,226.9h-1.1v-8.2h1.1v0.5c0.5-0.4,1.1-0.6,1.7-0.6c0.5,0,1,0.1,1.3,0.3c0.8,0.5,1.4,1.4,1.4,2.5
				c0,1.1-0.6,2-1.4,2.5c-0.4,0.2-0.9,0.4-1.4,0.4c-0.6,0-1.2-0.2-1.6-0.6V226.9z M326.9,222.4c0.4,0.5,0.9,0.8,1.5,0.8
				c1.1,0,1.8-0.8,1.8-1.8c0-1-0.7-1.8-1.8-1.8c-0.7,0-1.2,0.3-1.6,0.8V222.4z"/>
			<path fill="#90A4AE" d="M335.1,218.6c1.6,0,2.8,1.2,2.8,2.8c0,1.6-1.2,2.8-2.8,2.8s-2.8-1.2-2.8-2.8
				C332.3,219.8,333.5,218.6,335.1,218.6z M335.1,223.2c1,0,1.7-0.8,1.7-1.8c0-1-0.7-1.8-1.7-1.8s-1.7,0.8-1.7,1.8
				C333.4,222.4,334.1,223.2,335.1,223.2z"/>
			<path fill="#90A4AE" d="M339.3,222.7c0.5,0.4,1.1,0.6,1.6,0.6c0.5,0,1-0.3,1-0.7c0-0.6-0.9-0.7-1.7-0.9c-0.7-0.2-1.3-0.6-1.3-1.4
				c0-1.2,1-1.7,2-1.7c0.8,0,1.4,0.3,1.8,0.6l-0.6,0.8c-0.3-0.3-0.7-0.4-1.2-0.4c-0.5,0-1,0.3-1,0.7c0,0.4,0.4,0.5,1,0.6
				c0.9,0.2,2,0.6,2,1.7c0,1-1,1.7-2,1.7c-0.9,0-1.6-0.3-2.2-0.8L339.3,222.7z"/>
			<path fill="#90A4AE" d="M344.4,222.7c0.5,0.4,1.1,0.6,1.6,0.6c0.5,0,1-0.3,1-0.7c0-0.6-0.9-0.7-1.7-0.9c-0.7-0.2-1.3-0.6-1.3-1.4
				c0-1.2,1-1.7,2-1.7c0.8,0,1.4,0.3,1.8,0.6l-0.6,0.8c-0.3-0.3-0.7-0.4-1.2-0.4c-0.5,0-1,0.3-1,0.7c0,0.4,0.4,0.5,1,0.6
				c0.9,0.2,2,0.6,2,1.7c0,1-1,1.7-2,1.7c-0.9,0-1.6-0.3-2.2-0.8L344.4,222.7z"/>
			<path fill="#90A4AE" d="M349.9,216c0.4,0,0.7,0.3,0.7,0.7c0,0.4-0.3,0.7-0.7,0.7s-0.7-0.3-0.7-0.7
				C349.2,216.3,349.5,216,349.9,216z M349.3,218.7h1.1v5.5h-1.1V218.7z"/>
			<path fill="#90A4AE" d="M353.2,224.1h-1.1v-8.2h1.1v3.3c0.5-0.4,1.1-0.6,1.7-0.6c0.5,0,1,0.1,1.3,0.3c0.8,0.5,1.4,1.4,1.4,2.5
				c0,1.1-0.6,2-1.4,2.5c-0.4,0.2-0.9,0.4-1.4,0.4c-0.6,0-1.2-0.2-1.7-0.6V224.1z M353.2,222.4c0.4,0.5,0.9,0.8,1.5,0.8
				c1.1,0,1.8-0.8,1.8-1.8c0-1-0.7-1.8-1.8-1.8c-0.7,0-1.2,0.3-1.6,0.8V222.4z"/>
			<path fill="#90A4AE" d="M359,215.9h1.1v8.2H359V215.9z"/>
			<path fill="#90A4AE" d="M362.5,221.6c0.1,0.9,0.8,1.6,1.8,1.6c0.8,0,1.3-0.4,1.6-0.7l0.7,0.7c-0.4,0.5-1.2,1-2.3,1
				c-1.6,0-2.8-1.2-2.8-2.8c0-1.6,1.1-2.8,2.7-2.8c1.5,0,2.6,1.2,2.6,2.8c0,0,0,0.1,0,0.2H362.5z M362.6,220.7h3
				c-0.2-0.7-0.8-1.2-1.4-1.2C363.4,219.5,362.8,220,362.6,220.7z"/>
			<path fill="#90A4AE" d="M368.8,222.6c0.5,0,0.8,0.4,0.8,0.8c0,0.5-0.4,0.8-0.8,0.8s-0.8-0.4-0.8-0.8
				C368,223,368.3,222.6,368.8,222.6z"/>
		</g>
		<g>
			<g>
				<path fill="#1B3E4C" d="M369.6,147.4c-1.6,0-2.9,0.5-4,1.4v-1.1h-0.1h-3.8v14.7h3.9v-9.6c0.5-0.8,1.9-1.8,3.6-1.8
					c0.9,0,1.7,0.3,2.2,0.8c0.5,0.5,0.9,1.3,0.9,2.8v7.8h3.9v-7.5c0-2.5-0.5-4-1.5-5.2C373.5,148.3,371.6,147.4,369.6,147.4z"/>
				<path fill="#1B3E4C" d="M342.9,157.2c-0.5,0.7-1.8,1.8-3.4,1.8c-0.8,0-1.6-0.2-2.2-0.9c-0.5-0.5-0.7-1.2-0.7-2.5v-8h-3.9v7.8
					c0,2.2,0.5,3.7,1.5,4.9c1.2,1.4,3,2.4,5,2.4c1.4,0,2.7-0.4,3.8-1.4v1.1h0.2h3.8v-14.7h-3.9V157.2z"/>
				<path fill="#1B3E4C" d="M327.8,159.2c-1,0-1.6-0.3-2-0.7c-0.3-0.4-0.5-0.9-0.5-1.9V151h4.1v-3.3h-4.1v-4.1h-3.9v4.1h-1.7v3.3
					h1.7v5.2c0,2.1,0.3,3.4,1.1,4.4c1,1.3,2.7,2.1,5.1,2.1c0.8,0,1.9-0.1,2.5-0.3l-0.6-3.3C329.1,159.1,328.3,159.2,327.8,159.2z"/>
				<path fill="#1B3E4C" d="M353.9,147.7h-3.9v8c0,0.1,0,0.2,0,0.3h0v6.4h3.9V156h0c0-2.8,1.9-4.4,5.1-4.4v-4
					c-2.1,0-3.8,0.5-5.2,1.3V147.7z"/>
				<path fill="#1B3E4C" d="M310.4,147.6c-1.5,0-2.9,0.4-4,1.2v-1.1h-3.7v7.7v14.9h3.7v-14.9c0-2.2,1.8-4,4-4c2.2,0,4,1.8,4,4
					c0,2.2-1.8,4-4,4h-2.3v3.7h2.3c4.2,0,7.6-3.4,7.7-7.6l0-0.1C318.1,151.1,314.6,147.6,310.4,147.6z"/>
				<path fill="#1B3E4C" d="M300,141.2h-4h0v12.6c0,1.9-0.5,3.1-1.4,3.9c-0.9,0.9-2.2,1.4-3.6,1.4c-1.4,0-2.7-0.5-3.6-1.4
					c-0.9-0.8-1.4-2-1.4-3.9v-12.6h-4.1v12.3c0,3.2,1,5.5,2.7,7.1c1.6,1.5,4,2.2,6.4,2.2s4.7-0.7,6.4-2.2c1.8-1.6,2.7-3.8,2.7-7.1
					v-9.1h0.1l1.8-3.2H300L300,141.2z"/>
			</g>
		</g>
		<g>
			<g>
				<path fill="#5BBCC9" d="M305.4,252c0.4,0.4,0.9,0.7,1.5,0.7c0.6,0,1-0.3,1-0.8c0-0.8-1.2-0.9-2.1-1.5c-0.5-0.3-0.9-0.7-0.9-1.5
					c0-1.2,1.1-1.8,2.2-1.8c0.7,0,1.3,0.2,1.9,0.6l-0.7,0.9c-0.3-0.2-0.7-0.4-1.1-0.4c-0.5,0-1,0.2-1,0.7c0,1.1,3,0.7,3,2.9
					c0,1.2-1,2-2.2,2c-0.9,0-1.7-0.4-2.4-1L305.4,252z"/>
				<path fill="#5BBCC9" d="M311.4,253.7h-1.2v-6.6h1.2v2.4c0.3-0.3,0.8-0.4,1.2-0.4c0.6,0,1.2,0.3,1.6,0.7c0.3,0.4,0.5,0.8,0.5,1.6
					v2.3h-1.2v-2.4c0-0.4-0.1-0.7-0.3-0.9c-0.2-0.2-0.4-0.3-0.7-0.3c-0.5,0-0.9,0.3-1.1,0.6V253.7z"/>
				<path fill="#5BBCC9" d="M318,249.1c1.4,0,2.4,1.1,2.4,2.4s-1,2.4-2.4,2.4s-2.4-1-2.4-2.4S316.6,249.1,318,249.1z M318,252.7
					c0.7,0,1.2-0.6,1.2-1.2s-0.5-1.2-1.2-1.2s-1.2,0.6-1.2,1.2S317.3,252.7,318,252.7z"/>
				<path fill="#5BBCC9" d="M323.4,253.7h-0.8l-1.9-4.5h1.2l1.1,2.6l1.1-2.6h0.8l1.1,2.6l1.1-2.6h1.2l-1.9,4.5h-0.8l-1.1-2.6
					L323.4,253.7z"/>
				<path fill="#5BBCC9" d="M334.9,251.1l2.4-3.9h0.9v6.5h-1.3v-3.6l-1.6,2.6h-0.9l-1.6-2.6v3.6h-1.3v-6.5h0.9L334.9,251.1z"/>
				<path fill="#5BBCC9" d="M343.5,253c-0.4,0.5-1.2,0.8-1.9,0.8c-1.4,0-2.4-0.9-2.4-2.4c0-1.3,0.9-2.4,2.2-2.4
					c1.3,0,2.1,1.1,2.1,2.3c0,0.1,0,0.2,0,0.3h-3.1c0.1,0.6,0.6,1.1,1.2,1.1c0.5,0,0.9-0.3,1.1-0.5L343.5,253z M342.4,250.9
					c0-0.4-0.4-0.8-0.9-0.8c-0.5,0-0.9,0.4-1,0.8H342.4z"/>
			</g>
			<g>
				<g>
					
						<line fill="none" stroke="#5BBCC9" stroke-width="1.5589" stroke-miterlimit="10" x1="354.8" y1="245.5" x2="354.8" y2="252.8"/>
				</g>
				<g>
					<path fill="none" stroke="#5BBCC9" stroke-width="1.5589" stroke-miterlimit="10" d="M359.1,251c-2.4,0-4.3,1.6-4.3,3.5"/>
					<path fill="none" stroke="#5BBCC9" stroke-width="1.5589" stroke-miterlimit="10" d="M350.5,251c2.4,0,4.3,1.6,4.3,3.5"/>
				</g>
			</g>
		</g>
	</g>
	<g>
		<g>
			<path fill="#FBF9F3" d="M270.4,596.4c0.4,0.4,1,0.7,1.6,0.7c0.6,0,1-0.4,1-0.8c0-0.9-1.3-1-2.2-1.5c-0.5-0.3-1-0.8-1-1.5
				c0-1.2,1.1-1.9,2.2-1.9c0.7,0,1.3,0.2,2,0.6l-0.7,1c-0.3-0.3-0.7-0.4-1.2-0.4c-0.5,0-1,0.2-1,0.7c0,1.1,3.1,0.8,3.1,3
				c0,1.2-1.1,2-2.3,2c-0.9,0-1.7-0.4-2.4-1L270.4,596.4z"/>
			<path fill="#FBF9F3" d="M279.1,592.6v1.4h2.1v1.2h-2.1v1.9h2.8v1.2h-4.2v-6.8h4.1v1.2H279.1z"/>
			<path fill="#FBF9F3" d="M286.8,595.2v3h-1.3v-6.8h2.5c0.7,0,1.1,0.2,1.5,0.5c0.4,0.3,0.6,0.8,0.6,1.4s-0.2,1-0.6,1.4
				c-0.2,0.2-0.4,0.3-0.7,0.4l2.5,3.1h-1.6l-2.4-3H286.8z M287.9,594.1c0.4,0,0.5-0.1,0.7-0.2c0.1-0.1,0.2-0.3,0.2-0.5
				c0-0.2-0.1-0.4-0.2-0.5c-0.1-0.1-0.3-0.2-0.7-0.2h-1.1v1.4H287.9z"/>
			<path fill="#FBF9F3" d="M293.1,591.5h1.3l1.8,4.6l1.9-4.6h1.3l-2.7,6.8h-0.9L293.1,591.5z"/>
			<path fill="#FBF9F3" d="M302.8,591.5h1.3v6.8h-1.3V591.5z"/>
			<path fill="#FBF9F3" d="M308.9,594.8c0,1.3,1,2.3,2.3,2.3c0.9,0,1.5-0.4,1.9-0.9l0.9,0.8c-0.6,0.8-1.6,1.3-2.8,1.3
				c-2.1,0-3.6-1.5-3.6-3.5s1.5-3.5,3.6-3.5c1,0,1.9,0.4,2.5,1l-0.8,0.9c-0.4-0.4-1-0.7-1.6-0.7
				C309.9,592.5,308.9,593.5,308.9,594.8z"/>
			<path fill="#FBF9F3" d="M318.7,592.6v1.4h2.1v1.2h-2.1v1.9h2.8v1.2h-4.2v-6.8h4.1v1.2H318.7z"/>
			<path fill="#FBF9F3" d="M325.4,596.4c0.4,0.4,1,0.7,1.6,0.7c0.6,0,1-0.4,1-0.8c0-0.9-1.3-1-2.2-1.5c-0.5-0.3-1-0.8-1-1.5
				c0-1.2,1.1-1.9,2.2-1.9c0.7,0,1.3,0.2,2,0.6l-0.7,1c-0.3-0.3-0.7-0.4-1.2-0.4c-0.5,0-1,0.2-1,0.7c0,1.1,3.1,0.8,3.1,3
				c0,1.2-1.1,2-2.3,2c-0.9,0-1.7-0.4-2.4-1L325.4,596.4z"/>
			<path fill="#FBF9F3" d="M335.7,598.2l3.1-6.8h1.2l-3.1,6.8H335.7z"/>
			<path fill="#FBF9F3" d="M346.8,596.4c0.4,0.4,1,0.7,1.6,0.7c0.6,0,1-0.4,1-0.8c0-0.9-1.3-1-2.2-1.5c-0.5-0.3-1-0.8-1-1.5
				c0-1.2,1.1-1.9,2.2-1.9c0.7,0,1.3,0.2,2,0.6l-0.7,1c-0.3-0.3-0.7-0.4-1.2-0.4c-0.5,0-1,0.2-1,0.7c0,1.1,3.1,0.8,3.1,3
				c0,1.2-1.1,2-2.3,2c-0.9,0-1.7-0.4-2.4-1L346.8,596.4z"/>
			<path fill="#FBF9F3" d="M355.1,594.8c0,1.3,1,2.3,2.3,2.3c0.9,0,1.5-0.4,1.9-0.9l0.9,0.8c-0.6,0.8-1.6,1.3-2.8,1.3
				c-2.1,0-3.6-1.5-3.6-3.5s1.5-3.5,3.6-3.5c1,0,1.9,0.4,2.5,1l-0.8,0.9c-0.4-0.4-1-0.7-1.6-0.7
				C356.1,592.5,355.1,593.5,355.1,594.8z"/>
			<path fill="#FBF9F3" d="M366.6,591.4c2.1,0,3.5,1.6,3.5,3.5c0,1.9-1.4,3.5-3.5,3.5c-2.1,0-3.5-1.6-3.5-3.5
				C363.1,592.9,364.5,591.4,366.6,591.4z M366.6,597.2c1.3,0,2.2-1,2.2-2.3c0-1.3-0.9-2.3-2.2-2.3c-1.3,0-2.2,1-2.2,2.3
				C364.4,596.1,365.3,597.2,366.6,597.2z"/>
			<path fill="#FBF9F3" d="M374.9,595.5v2.8h-1.3v-6.8h2.5c0.9,0,1.4,0.2,1.8,0.6c0.3,0.3,0.5,0.9,0.5,1.4s-0.2,1.1-0.5,1.4
				c-0.4,0.4-0.9,0.6-1.8,0.6H374.9z M376.1,594.3c0.4,0,0.7-0.1,0.8-0.3c0.1-0.2,0.2-0.3,0.2-0.6c0-0.2-0.1-0.4-0.2-0.6
				c-0.2-0.2-0.4-0.3-0.8-0.3h-1.2v1.7H376.1z"/>
			<path fill="#FBF9F3" d="M383.1,592.6v1.4h2.1v1.2h-2.1v1.9h2.8v1.2h-4.2v-6.8h4.1v1.2H383.1z"/>
		</g>
	</g>
	<rect x="0.2" y="16.4" fill="#FFFFFF" width="657" height="33.8"/>
	<g>
		<path fill="#092930" d="M98.6,31.3v3.4c0,0.5-0.1,0.8-0.4,1.1c-0.3,0.2-0.6,0.4-1,0.4c-0.4,0-0.7-0.1-1-0.4
			c-0.3-0.2-0.4-0.6-0.4-1.1v-3.4h-1.3v3.4c0,0.9,0.3,1.6,0.8,2.1c0.5,0.4,1.1,0.6,1.9,0.6c0.7,0,1.4-0.2,1.9-0.6
			c0.5-0.5,0.8-1.2,0.8-2.1v-2.4l0.6-1H98.6z"/>
		<g>
			<path fill="#092930" d="M97.6,41.4h-7.7v-7.7c0-4.2,3.5-7.7,7.7-7.7c4.3,0,7.7,3.5,7.7,7.7C105.3,38,101.8,41.4,97.6,41.4z
				 M91.3,40.1h6.3c3.5,0,6.3-2.8,6.3-6.3c0-3.5-2.8-6.3-6.3-6.3c-3.5,0-6.3,2.8-6.3,6.3V40.1z"/>
		</g>
	</g>
	<g>
		<g>
			<path fill="#5BBCC9" d="M188.7,35.1c0.3,0.3,0.7,0.6,1.2,0.6c0.4,0,0.7-0.3,0.7-0.6c0-0.7-0.9-0.7-1.6-1.1
				c-0.4-0.2-0.7-0.6-0.7-1.2c0-0.9,0.8-1.4,1.7-1.4c0.5,0,1,0.1,1.5,0.5l-0.5,0.7c-0.2-0.2-0.5-0.3-0.9-0.3c-0.4,0-0.8,0.2-0.8,0.6
				c0,0.8,2.3,0.6,2.3,2.3c0,0.9-0.8,1.5-1.7,1.5c-0.7,0-1.3-0.3-1.8-0.8L188.7,35.1z"/>
			<path fill="#5BBCC9" d="M195.5,35.8c-0.3,0.4-0.9,0.6-1.4,0.6c-1.1,0-1.8-0.7-1.8-1.8c0-1,0.7-1.8,1.7-1.8c1,0,1.7,0.8,1.7,1.8
				c0,0.1,0,0.2,0,0.3h-2.4c0.1,0.5,0.4,0.8,0.9,0.8c0.4,0,0.7-0.2,0.9-0.4L195.5,35.8z M194.6,34.2c0-0.3-0.3-0.6-0.7-0.6
				c-0.4,0-0.7,0.3-0.8,0.6H194.6z"/>
			<path fill="#5BBCC9" d="M198.5,33.7c-0.1,0-0.2,0-0.3,0c-0.4,0-0.7,0.3-0.9,0.5v2.2h-0.9v-3.5h0.9v0.4c0.2-0.3,0.6-0.4,1-0.4
				c0.1,0,0.2,0,0.3,0L198.5,33.7z"/>
			<path fill="#5BBCC9" d="M201,35l1-2.1h1l-1.6,3.5h-0.7l-1.6-3.5h1L201,35z"/>
			<path fill="#5BBCC9" d="M204.1,31c0.3,0,0.6,0.3,0.6,0.6s-0.3,0.6-0.6,0.6s-0.6-0.3-0.6-0.6S203.7,31,204.1,31z M204.5,36.4h-0.9
				v-3.5h0.9V36.4z"/>
			<path fill="#5BBCC9" d="M208.8,35.7c-0.4,0.6-0.9,0.8-1.6,0.8c-1.1,0-1.9-0.8-1.9-1.8c0-1,0.8-1.8,1.9-1.8c0.6,0,1.2,0.3,1.5,0.7
				l-0.7,0.6c-0.2-0.2-0.5-0.4-0.8-0.4c-0.5,0-0.9,0.4-0.9,1c0,0.6,0.4,1,1,1c0.4,0,0.7-0.2,0.8-0.5L208.8,35.7z"/>
			<path fill="#5BBCC9" d="M212.5,35.8c-0.3,0.4-0.9,0.6-1.4,0.6c-1.1,0-1.8-0.7-1.8-1.8c0-1,0.7-1.8,1.7-1.8c1,0,1.7,0.8,1.7,1.8
				c0,0.1,0,0.2,0,0.3h-2.4c0.1,0.5,0.4,0.8,0.9,0.8c0.4,0,0.7-0.2,0.9-0.4L212.5,35.8z M211.7,34.2c0-0.3-0.3-0.6-0.7-0.6
				c-0.4,0-0.7,0.3-0.8,0.6H211.7z"/>
			<path fill="#5BBCC9" d="M213.6,35.3c0.2,0.2,0.6,0.3,1,0.3c0.3,0,0.4-0.1,0.4-0.3c0-0.5-1.7-0.3-1.7-1.5c0-0.7,0.7-1.1,1.3-1.1
				c0.5,0,1,0.2,1.2,0.4l-0.4,0.7c-0.2-0.1-0.4-0.2-0.7-0.2c-0.3,0-0.5,0.1-0.5,0.3c0,0.5,1.7,0.3,1.7,1.5c0,0.7-0.7,1.1-1.4,1.1
				c-0.5,0-1-0.2-1.4-0.5L213.6,35.3z"/>
		</g>
		<g>
			<path fill="#5BBCC9" d="M320.6,33.9c0,1,0.8,1.7,1.7,1.7c0.7,0,1.1-0.3,1.4-0.7l0.7,0.6c-0.4,0.6-1.2,1-2.1,1
				c-1.6,0-2.7-1.2-2.7-2.6c0-1.5,1.1-2.6,2.7-2.6c0.8,0,1.4,0.3,1.9,0.7l-0.6,0.7c-0.3-0.3-0.7-0.5-1.2-0.5
				C321.3,32.1,320.6,32.9,320.6,33.9z"/>
			<path fill="#5BBCC9" d="M326,36.4h-0.9v-5.1h0.9V36.4z"/>
			<path fill="#5BBCC9" d="M327.6,31c0.3,0,0.6,0.3,0.6,0.6s-0.3,0.6-0.6,0.6S327,32,327,31.6S327.2,31,327.6,31z M328.1,36.4h-0.9
				v-3.5h0.9V36.4z"/>
			<path fill="#5BBCC9" d="M332.1,35.8c-0.3,0.4-0.9,0.6-1.4,0.6c-1.1,0-1.8-0.7-1.8-1.8c0-1,0.7-1.8,1.7-1.8c1,0,1.7,0.8,1.7,1.8
				c0,0.1,0,0.2,0,0.3h-2.4c0.1,0.5,0.4,0.8,0.9,0.8c0.4,0,0.7-0.2,0.9-0.4L332.1,35.8z M331.3,34.2c0-0.3-0.3-0.6-0.7-0.6
				c-0.4,0-0.7,0.3-0.8,0.6H331.3z"/>
			<path fill="#5BBCC9" d="M333,36.4v-3.5h0.9v0.3c0.3-0.2,0.6-0.4,1-0.4c0.5,0,0.9,0.2,1.2,0.6c0.2,0.3,0.4,0.6,0.4,1.2v1.8h-0.9
				v-1.9c0-0.3-0.1-0.5-0.2-0.7c-0.1-0.1-0.3-0.2-0.5-0.2c-0.4,0-0.7,0.3-0.9,0.4v2.3H333z"/>
			<path fill="#5BBCC9" d="M340,36.4c-0.1,0-0.4,0.1-0.6,0.1c-0.6,0-1-0.2-1.2-0.5c-0.2-0.2-0.3-0.6-0.3-1.1v-1.2h-1v-0.8h1v-1h0.9
				v1h1.2v0.8h-1.2V35c0,0.2,0,0.3,0.1,0.4c0.1,0.1,0.2,0.2,0.5,0.2c0.1,0,0.3,0,0.4,0L340,36.4z"/>
			<path fill="#5BBCC9" d="M341.1,35.3c0.2,0.2,0.6,0.3,1,0.3c0.3,0,0.4-0.1,0.4-0.3c0-0.5-1.7-0.3-1.7-1.5c0-0.7,0.7-1.1,1.3-1.1
				c0.5,0,1,0.2,1.2,0.4l-0.4,0.7c-0.2-0.1-0.4-0.2-0.7-0.2c-0.3,0-0.5,0.1-0.5,0.3c0,0.5,1.7,0.3,1.7,1.5c0,0.7-0.7,1.1-1.4,1.1
				c-0.5,0-1-0.2-1.4-0.5L341.1,35.3z"/>
		</g>
		<g>
			<path fill="#5BBCC9" d="M380.8,31.3h1l1.4,3.5l1.4-3.5h1l-2.1,5.1h-0.7L380.8,31.3z"/>
			<path fill="#5BBCC9" d="M389.3,36.4h-0.9v-0.3c-0.3,0.2-0.6,0.4-1,0.4c-0.5,0-1-0.2-1.3-0.6c-0.3-0.3-0.4-0.8-0.4-1.2
				c0-1,0.8-1.8,1.7-1.8c0.4,0,0.8,0.1,1,0.4v-0.3h0.9V36.4z M388.4,34.1c-0.2-0.3-0.5-0.4-0.9-0.4c-0.6,0-0.9,0.5-0.9,1
				c0,0.6,0.4,1,0.9,1c0.4,0,0.7-0.2,0.8-0.4V34.1z"/>
			<path fill="#5BBCC9" d="M391.3,36.4h-0.9v-5.1h0.9V36.4z"/>
			<path fill="#5BBCC9" d="M395.8,32.9v3.5h-0.9v-0.3c-0.3,0.2-0.6,0.4-0.9,0.4c-0.5,0-0.9-0.2-1.2-0.6c-0.2-0.3-0.4-0.6-0.4-1.2
				v-1.9h0.9v1.9c0,0.3,0.1,0.5,0.2,0.6c0.1,0.2,0.3,0.2,0.5,0.2c0.4,0,0.7-0.3,0.8-0.4v-2.3H395.8z"/>
			<path fill="#5BBCC9" d="M399.8,35.8c-0.3,0.4-0.9,0.6-1.4,0.6c-1.1,0-1.8-0.7-1.8-1.8c0-1,0.7-1.8,1.7-1.8c1,0,1.7,0.8,1.7,1.8
				c0,0.1,0,0.2,0,0.3h-2.4c0.1,0.5,0.4,0.8,0.9,0.8c0.4,0,0.7-0.2,0.9-0.4L399.8,35.8z M399,34.2c0-0.3-0.3-0.6-0.7-0.6
				c-0.4,0-0.7,0.3-0.8,0.6H399z"/>
			<path fill="#5BBCC9" d="M400.9,35.3c0.2,0.2,0.6,0.3,1,0.3c0.3,0,0.4-0.1,0.4-0.3c0-0.5-1.7-0.3-1.7-1.5c0-0.7,0.7-1.1,1.3-1.1
				c0.5,0,1,0.2,1.2,0.4l-0.4,0.7c-0.2-0.1-0.4-0.2-0.7-0.2c-0.3,0-0.5,0.1-0.5,0.3c0,0.5,1.7,0.3,1.7,1.5c0,0.7-0.7,1.1-1.4,1.1
				c-0.5,0-1-0.2-1.4-0.5L400.9,35.3z"/>
		</g>
		<g>
			<path fill="#5BBCC9" d="M444.3,31.3v0.9H443v4.2h-1v-4.2h-1.3v-0.9H444.3z"/>
			<path fill="#5BBCC9" d="M447.6,35.8c-0.3,0.4-0.9,0.6-1.4,0.6c-1.1,0-1.8-0.7-1.8-1.8c0-1,0.7-1.8,1.7-1.8c1,0,1.7,0.8,1.7,1.8
				c0,0.1,0,0.2,0,0.3h-2.4c0.1,0.5,0.4,0.8,0.9,0.8c0.4,0,0.7-0.2,0.9-0.4L447.6,35.8z M446.7,34.2c0-0.3-0.3-0.6-0.7-0.6
				c-0.4,0-0.7,0.3-0.8,0.6H446.7z"/>
			<path fill="#5BBCC9" d="M451.9,36.4H451v-0.3c-0.3,0.2-0.6,0.4-1,0.4c-0.5,0-1-0.2-1.3-0.6c-0.3-0.3-0.4-0.8-0.4-1.2
				c0-1,0.8-1.8,1.7-1.8c0.4,0,0.8,0.1,1,0.4v-0.3h0.9V36.4z M451,34.1c-0.2-0.3-0.5-0.4-0.9-0.4c-0.6,0-0.9,0.5-0.9,1
				c0,0.6,0.4,1,0.9,1c0.4,0,0.7-0.2,0.8-0.4V34.1z"/>
			<path fill="#5BBCC9" d="M453,36.4v-3.5h0.9v0.3c0.3-0.2,0.6-0.4,0.9-0.4c0.5,0,0.9,0.2,1.2,0.6c0.3-0.3,0.7-0.6,1.2-0.6
				c0.5,0,0.9,0.2,1.2,0.6c0.2,0.3,0.4,0.6,0.4,1.2v1.9h-0.9v-1.9c0-0.3-0.1-0.5-0.2-0.6c-0.1-0.2-0.3-0.2-0.5-0.2
				c-0.4,0-0.7,0.3-0.8,0.5c0,0.1,0,0.2,0,0.4v1.9h-0.9v-1.9c0-0.3-0.1-0.5-0.2-0.6c-0.1-0.2-0.3-0.2-0.5-0.2
				c-0.4,0-0.7,0.3-0.8,0.4v2.3H453z"/>
		</g>
		<g>
			<path fill="#5BBCC9" d="M255.1,34.3v2.1h-1v-5.1h1.9c0.7,0,1,0.2,1.3,0.5c0.3,0.3,0.4,0.7,0.4,1.1c0,0.4-0.1,0.8-0.4,1.1
				c-0.3,0.3-0.7,0.4-1.3,0.4H255.1z M256,33.5c0.3,0,0.5-0.1,0.6-0.2c0.1-0.1,0.2-0.3,0.2-0.4c0-0.2-0.1-0.3-0.2-0.4
				c-0.1-0.1-0.3-0.2-0.6-0.2h-0.9v1.3H256z"/>
			<path fill="#5BBCC9" d="M260.5,33.7c-0.1,0-0.2,0-0.3,0c-0.4,0-0.7,0.3-0.9,0.5v2.2h-0.9v-3.5h0.9v0.4c0.2-0.3,0.6-0.4,1-0.4
				c0.1,0,0.2,0,0.3,0L260.5,33.7z"/>
			<path fill="#5BBCC9" d="M262.8,32.8c1.1,0,1.9,0.8,1.9,1.8s-0.8,1.8-1.9,1.8s-1.9-0.8-1.9-1.8S261.8,32.8,262.8,32.8z
				 M262.8,35.6c0.6,0,0.9-0.4,0.9-1s-0.4-1-0.9-1s-0.9,0.4-0.9,1S262.3,35.6,262.8,35.6z"/>
			<path fill="#5BBCC9" d="M265,37.3c0.1,0,0.2,0,0.2,0c0.2,0,0.3-0.1,0.4-0.2c0.1-0.1,0.1-0.3,0.1-0.6v-3.7h0.9v3.7
				c0,0.5-0.1,0.8-0.3,1.1c-0.2,0.3-0.6,0.5-1.2,0.5c-0.2,0-0.4,0-0.5,0L265,37.3z M266.3,31c0.3,0,0.6,0.3,0.6,0.6
				s-0.3,0.6-0.6,0.6s-0.6-0.3-0.6-0.6S265.9,31,266.3,31z"/>
			<path fill="#5BBCC9" d="M270.8,35.8c-0.3,0.4-0.9,0.6-1.4,0.6c-1.1,0-1.8-0.7-1.8-1.8c0-1,0.7-1.8,1.7-1.8c1,0,1.7,0.8,1.7,1.8
				c0,0.1,0,0.2,0,0.3h-2.4c0.1,0.5,0.4,0.8,0.9,0.8c0.4,0,0.7-0.2,0.9-0.4L270.8,35.8z M269.9,34.2c0-0.3-0.3-0.6-0.7-0.6
				c-0.4,0-0.7,0.3-0.8,0.6H269.9z"/>
			<path fill="#5BBCC9" d="M275,35.7c-0.4,0.6-0.9,0.8-1.6,0.8c-1.1,0-1.9-0.8-1.9-1.8c0-1,0.8-1.8,1.9-1.8c0.6,0,1.2,0.3,1.5,0.7
				l-0.7,0.6c-0.2-0.2-0.5-0.4-0.8-0.4c-0.5,0-0.9,0.4-0.9,1c0,0.6,0.4,1,1,1c0.4,0,0.7-0.2,0.8-0.5L275,35.7z"/>
			<path fill="#5BBCC9" d="M278.3,36.4c-0.1,0-0.4,0.1-0.6,0.1c-0.6,0-1-0.2-1.2-0.5c-0.2-0.2-0.3-0.6-0.3-1.1v-1.2h-1v-0.8h1v-1
				h0.9v1h1.2v0.8h-1.2V35c0,0.2,0,0.3,0.1,0.4c0.1,0.1,0.2,0.2,0.5,0.2c0.1,0,0.3,0,0.4,0L278.3,36.4z"/>
			<path fill="#5BBCC9" d="M279.4,35.3c0.2,0.2,0.6,0.3,1,0.3c0.3,0,0.4-0.1,0.4-0.3c0-0.5-1.7-0.3-1.7-1.5c0-0.7,0.7-1.1,1.3-1.1
				c0.5,0,1,0.2,1.2,0.4l-0.4,0.7c-0.2-0.1-0.4-0.2-0.7-0.2c-0.3,0-0.5,0.1-0.5,0.3c0,0.5,1.7,0.3,1.7,1.5c0,0.7-0.7,1.1-1.4,1.1
				c-0.5,0-1-0.2-1.4-0.5L279.4,35.3z"/>
		</g>
	</g>
	<rect x="187.7" y="48.4" fill="#092930" width="29" height="2.4"/>
	<g>
		<path fill="#222222" d="M657.5,16.3V5.8c0-3.2-2.6-5.8-5.9-5.8H6.4C3.1,0,0.5,2.6,0.5,5.8v10.5H657.5z"/>
		<g>
			<circle fill="#EBEBEB" cx="10.1" cy="8.1" r="1.9"/>
			<circle fill="#EBEBEB" cx="21.1" cy="8.1" r="1.9"/>
			<circle fill="#EBEBEB" cx="32.1" cy="8.1" r="1.9"/>
		</g>
	</g>
	<g>
		<line fill="none" stroke="#5BBCC9" stroke-width="2.7396" stroke-miterlimit="10" x1="19.8" y1="239.5" x2="33.4" y2="239.5"/>
		<line fill="none" stroke="#5BBCC9" stroke-width="2.7396" stroke-miterlimit="10" x1="26.6" y1="215.7" x2="26.6" y2="239.5"/>
		<line fill="none" stroke="#5BBCC9" stroke-width="2.7396" stroke-miterlimit="10" x1="15.5" y1="220.9" x2="37.6" y2="220.9"/>
		<path fill="#5BBCC9" d="M41.3,223.5l-3.6-3.6l-3.6,3.6c-1,1-1.5,2.3-1.5,3.6c0,1.4,0.5,2.7,1.5,3.6c1,1,2.3,1.5,3.6,1.5
			c1.4,0,2.7-0.5,3.6-1.5C43.3,228.8,43.3,225.6,41.3,223.5z M37.6,222.3l2.4,2.4c0.5,0.5,0.9,1.2,1,2h-6.8c0.1-0.7,0.4-1.4,1-2
			L37.6,222.3z"/>
		<path fill="#5BBCC9" d="M19.2,223.5l-3.6-3.6l-3.6,3.6c-1,1-1.5,2.3-1.5,3.6c0,1.4,0.5,2.7,1.5,3.6c1,1,2.3,1.5,3.6,1.5
			c1.4,0,2.7-0.5,3.6-1.5C21.2,228.8,21.2,225.6,19.2,223.5z M15.5,222.3l2.4,2.4c0.5,0.5,0.9,1.2,1,2h-6.8c0.1-0.7,0.4-1.4,1-2
			L15.5,222.3z"/>
	</g>
	<g>
		
			<rect x="60.7" y="140.1" transform="matrix(-0.7069 -0.7073 0.7073 -0.7069 3.2946 290.7617)" fill="#5BBCC9" width="2.3" height="9.2"/>
		
			<rect x="66.2" y="138.2" transform="matrix(-0.7069 -0.7073 0.7073 -0.7069 11.7696 296.4895)" fill="#5BBCC9" width="2.3" height="15.3"/>
		
			<rect x="55.9" y="140.7" transform="matrix(-0.7072 -0.707 0.707 -0.7072 -3.7817 284.5091)" fill="#5BBCC9" width="2.3" height="4.6"/>
		
			<rect x="71.1" y="137.7" transform="matrix(-0.7072 -0.707 0.707 -0.7072 19.1163 302.7377)" fill="#5BBCC9" width="2.3" height="19.3"/>
	</g>
	<g>
		<g>
			<g>
				<g>
					<path fill="#092930" d="M180.4,645.1c-0.6,0.7-1.5,1.2-2.5,1.2c-1.2,0-2.2-0.6-2.7-1.6l-15.8,57.9l1.5,2h33.6l1.5-2
						L180.4,645.1z M163,701.4l14.8-54.2l14.8,54.2H163z"/>
				</g>
			</g>
			<g>
				<g>
					<rect x="169.6" y="669.4" fill="#092930" width="16.5" height="3.1"/>
				</g>
			</g>
			<g>
				<path fill="#092930" d="M177.5,647.8c-2.6,0-4.6-2.1-4.6-4.6c0-2.6,2.1-4.6,4.6-4.6c2.6,0,4.6,2.1,4.6,4.6
					C182.2,645.8,180.1,647.8,177.5,647.8z M177.5,641.7c-0.9,0-1.5,0.7-1.5,1.5c0,0.9,0.7,1.5,1.5,1.5c0.8,0,1.5-0.7,1.5-1.5
					C179,642.3,178.4,641.7,177.5,641.7z"/>
			</g>
			<g>
				
					<rect x="174.8" y="656.3" transform="matrix(0.7066 0.7077 -0.7077 0.7066 522.2679 70.3423)" fill="#092930" width="3.1" height="17.2"/>
			</g>
			<g>
				
					<rect x="168.3" y="677.6" transform="matrix(0.801 0.5986 -0.5986 0.801 442.2939 27.6752)" fill="#092930" width="22.5" height="3.1"/>
			</g>
			<g>
				<rect x="164.7" y="685.6" fill="#092930" width="26.6" height="3.1"/>
			</g>
		</g>
		<rect x="107.6" y="682.4" fill="#4E9DA5" width="10.4" height="18.2"/>
		<g>
			<g>
				<rect x="98.8" y="706.3" fill="#4E9DA5" width="78.1" height="49.6"/>
				<g>
					<g>
						<rect x="107.6" y="716.2" fill="#FBF9F3" width="10.4" height="10.4"/>
						<rect x="124.5" y="716.2" fill="#FBF9F3" width="10.4" height="10.4"/>
						<rect x="141.5" y="716.2" fill="#FBF9F3" width="10.4" height="10.4"/>
					</g>
					<g>
						<rect x="107.6" y="735.1" fill="#FBF9F3" width="10.4" height="10.4"/>
						<rect x="124.5" y="735.1" fill="#FBF9F3" width="10.4" height="10.4"/>
						<rect x="141.5" y="735.1" fill="#FBF9F3" width="10.4" height="10.4"/>
					</g>
					<g>
						<rect x="158.4" y="716.2" fill="#FBF9F3" width="10.4" height="10.4"/>
					</g>
					<g>
						<rect x="158.4" y="735.1" fill="#FBF9F3" width="10.4" height="10.4"/>
					</g>
				</g>
			</g>
			<rect x="95.2" y="700.2" fill="#092930" width="86.3" height="7.8"/>
		</g>
		<polygon fill="#324C56" points="558.3,695.2 443.4,695.2 448.1,686.3 553.5,686.3 		"/>
		<rect x="443.4" y="701.9" fill="#324C56" width="114.9" height="54.5"/>
		<g>
			<rect x="455" y="710" fill="#FBF9F3" width="9.1" height="11"/>
			<rect x="471.5" y="710" fill="#FBF9F3" width="9.1" height="11"/>
			<rect x="488" y="710" fill="#FBF9F3" width="9.1" height="11"/>
			<rect x="504.5" y="710" fill="#FBF9F3" width="9.1" height="11"/>
			<rect x="521" y="710" fill="#FBF9F3" width="9.1" height="11"/>
			<rect x="537.5" y="710" fill="#FBF9F3" width="9.1" height="11"/>
		</g>
		<g>
			<rect x="455" y="728.1" fill="#FBF9F3" width="9.1" height="11"/>
			<rect x="471.5" y="728.1" fill="#FBF9F3" width="9.1" height="11"/>
			<rect x="521" y="728.1" fill="#FBF9F3" width="9.1" height="11"/>
			<rect x="537.5" y="728.1" fill="#FBF9F3" width="9.1" height="11"/>
		</g>
		<g>
			<polygon fill="#092930" points="515.8,686.3 515.8,686.3 515.8,686.3 515.7,686.3 500.8,679.2 485.9,686.3 485.8,686.3 
				485.8,701.9 515.8,701.9 515.8,686.3 			"/>
			<circle fill="#FBF9F3" cx="500.7" cy="688.6" r="3.2"/>
		</g>
		<g>
			<g>
				<rect x="500.8" y="727.7" fill="#4E9DA5" width="12.8" height="24.5"/>
			</g>
			<g>
				<rect x="488" y="727.7" fill="#FBF9F3" width="12.8" height="24.1"/>
			</g>
		</g>
		<rect x="439.9" y="693.7" fill="#092930" width="121.6" height="8.3"/>
		<rect x="364.1" y="661.1" fill="#092930" width="2.9" height="10.4"/>
		<g>
			<rect x="403.6" y="635.6" fill="#092930" width="1.2" height="10.9"/>
			<rect x="403.6" y="635.6" fill="#092930" width="9.9" height="4.6"/>
			<rect x="355.5" y="684.9" fill="#324C56" width="77.6" height="71.6"/>
			<path fill="#4E9DA5" d="M375.9,685.9c0-15.9,12.9-28.8,28.8-28.8c15.9,0,28.8,12.9,28.8,28.8"/>
			<path fill="#FBF9F3" d="M392.3,657.1c0-6.5,5.3-11.8,11.8-11.8c6.5,0,11.8,5.3,11.8,11.8"/>
			<rect x="388.8" y="655.2" fill="#092930" width="31.8" height="7.2"/>
		</g>
		<rect x="310.8" y="669.9" fill="#092930" width="68" height="86.4"/>
		<rect x="307.4" y="669.4" fill="#4E9DA5" width="74.7" height="5.2"/>
		<g>
			<rect x="322.2" y="704.3" fill="#FBF9F3" width="8.7" height="11.7"/>
			<rect x="340.2" y="704.3" fill="#FBF9F3" width="8.7" height="11.7"/>
			<rect x="358.2" y="704.3" fill="#FBF9F3" width="8.7" height="11.7"/>
		</g>
		<g>
			<rect x="322.2" y="684.9" fill="#FBF9F3" width="8.7" height="11.7"/>
			<rect x="340.2" y="684.9" fill="#FBF9F3" width="8.7" height="11.7"/>
			<rect x="358.2" y="684.9" fill="#FBF9F3" width="8.7" height="11.7"/>
		</g>
		<polygon fill="#FBF9F3" points="371.4,727.7 317.8,727.7 319.5,724.1 370,724.1 		"/>
		<rect x="321" y="729.4" fill="#FBF9F3" width="28" height="19.7"/>
		<rect x="354.1" y="729.4" fill="#FBF9F3" width="15.1" height="26.9"/>
		<rect x="317.8" y="727.7" fill="#092930" width="53.7" height="4.4"/>
		<rect x="310.8" y="674.6" fill="#092930" width="68" height="2.2"/>
		<rect x="242.9" y="695.2" fill="#4E9DA5" width="68" height="61.2"/>
		<rect x="254.4" y="704.3" fill="#FBF9F3" width="8.7" height="11.7"/>
		<rect x="272.4" y="704.3" fill="#FBF9F3" width="8.7" height="11.7"/>
		<rect x="290.4" y="704.3" fill="#FBF9F3" width="8.7" height="11.7"/>
		<rect x="175.6" y="695.2" fill="#092930" width="68" height="61.2"/>
		<rect x="253.1" y="729.4" fill="#FBF9F3" width="28" height="19.7"/>
		<rect x="286.2" y="729.4" fill="#FBF9F3" width="15.1" height="26.9"/>
		<rect x="249.9" y="721" fill="#092930" width="53.7" height="4.4"/>
		<rect x="386.6" y="704.4" fill="#092930" width="57" height="37.3"/>
		<rect x="386.6" y="704.4" fill="#FBF9F3" width="7.4" height="39.1"/>
		<rect x="419.7" y="704.4" fill="#FBF9F3" width="7.4" height="39.1"/>
		<rect x="403.1" y="704.4" fill="#FBF9F3" width="7.4" height="39.1"/>
		<rect x="436.2" y="704.4" fill="#FBF9F3" width="7.4" height="39.1"/>
		<rect x="386.6" y="704.4" fill="#FBF9F3" width="7.4" height="39.1"/>
		<rect x="375.3" y="749.1" fill="#FBF9F3" width="79.6" height="7.4"/>
		<rect x="378.7" y="741.7" fill="#092930" width="72.7" height="7.4"/>
		<polygon fill="#092930" points="443.7,721.4 395.3,704.4 443.7,704.4 		"/>
		<rect x="378.7" y="697.7" fill="#FBF9F3" width="72.7" height="7.4"/>
		<polygon fill="#092930" points="378.7,697.7 415.1,680.5 451.4,697.7 		"/>
		<circle fill="#FBF9F3" cx="414.8" cy="690.2" r="3.5"/>
		<g>
			<path fill="#FBF9F3" d="M188.1,718.9v-8.1c0-2.8,2.3-5,5-5l0,0c2.8,0,5,2.3,5,5v8.1"/>
			<rect x="186.9" y="717.9" fill="#4E9DA5" width="12.4" height="2.3"/>
		</g>
		<g>
			<path fill="#FBF9F3" d="M205.1,718.9v-8.1c0-2.8,2.3-5,5-5l0,0c2.8,0,5,2.3,5,5v8.1"/>
			<rect x="203.9" y="717.9" fill="#4E9DA5" width="12.4" height="2.3"/>
		</g>
		<g>
			<path fill="#FBF9F3" d="M222.1,718.9v-8.1c0-2.8,2.3-5,5-5l0,0c2.8,0,5,2.3,5,5v8.1"/>
			<rect x="220.9" y="717.9" fill="#4E9DA5" width="12.4" height="2.3"/>
		</g>
		<g>
			<path fill="#FBF9F3" d="M188.1,741.5v-8.1c0-2.8,2.3-5,5-5l0,0c2.8,0,5,2.3,5,5v8.1"/>
			<rect x="186.9" y="740.5" fill="#4E9DA5" width="12.4" height="2.3"/>
		</g>
		<g>
			<path fill="#FBF9F3" d="M205.1,741.5v-8.1c0-2.8,2.3-5,5-5l0,0c2.8,0,5,2.3,5,5v8.1"/>
			<rect x="203.9" y="740.5" fill="#4E9DA5" width="12.4" height="2.3"/>
		</g>
		<g>
			<path fill="#FBF9F3" d="M222.1,741.5v-8.1c0-2.8,2.3-5,5-5l0,0c2.8,0,5,2.3,5,5v8.1"/>
			<rect x="220.9" y="740.5" fill="#4E9DA5" width="12.4" height="2.3"/>
		</g>
		<rect x="235.2" y="689.7" fill="#092930" width="3.8" height="5.5"/>
		<rect x="275.9" y="689.7" fill="#092930" width="3.8" height="5.5"/>
		<rect x="227" y="666.3" fill="#092930" width="59.1" height="20.7"/>
		<rect x="227" y="687" fill="#092930" width="59.1" height="3.9"/>
		<path fill="#092930" d="M371,649.8c3.3,3.3,3.3,8.7,0,12c-3.3,3.3-8.7,3.3-12,0"/>
		
			<rect x="357.5" y="652.4" transform="matrix(0.7072 0.7071 -0.7071 0.7072 567.9396 -64.5882)" fill="#092930" width="8.8" height="1.9"/>
		<path fill="#092930" d="M358.9,652.1c-1.1,0-1.9-0.9-1.9-1.9c0-1.1,0.9-1.9,1.9-1.9c1.1,0,1.9,0.9,1.9,1.9
			C360.8,651.3,360,652.1,358.9,652.1z"/>
		<g>
			<path fill="#FBF9F3" d="M236.8,676.7c0,1,0.7,1.7,1.7,1.7c0.5,0,0.8-0.2,1.1-0.4v-1.1h-1.3v-0.9h2.3v2.2c-0.4,0.6-1.2,1-2.1,1
				c-1.6,0-2.7-1.1-2.7-2.6s1.1-2.6,2.6-2.6c0.7,0,1.4,0.3,1.8,0.7l-0.6,0.7c-0.3-0.3-0.7-0.5-1.2-0.5
				C237.5,675,236.8,675.7,236.8,676.7z"/>
			<path fill="#FBF9F3" d="M245.7,674.1c1.5,0,2.6,1.2,2.6,2.6s-1.1,2.6-2.6,2.6s-2.6-1.2-2.6-2.6S244.2,674.1,245.7,674.1z
				 M245.7,678.4c0.9,0,1.6-0.8,1.6-1.7s-0.7-1.7-1.6-1.7c-0.9,0-1.6,0.8-1.6,1.7S244.8,678.4,245.7,678.4z"/>
			<path fill="#FBF9F3" d="M254,674.2h1l1.4,3.4l1.4-3.4h1l-2,5H256L254,674.2z"/>
			<path fill="#FBF9F3" d="M263.3,674.1c1.5,0,2.6,1.2,2.6,2.6s-1.1,2.6-2.6,2.6s-2.6-1.2-2.6-2.6S261.7,674.1,263.3,674.1z
				 M263.3,678.4c0.9,0,1.6-0.8,1.6-1.7s-0.7-1.7-1.6-1.7c-0.9,0-1.6,0.8-1.6,1.7S262.3,678.4,263.3,678.4z"/>
			<path fill="#FBF9F3" d="M271.6,674.2v0.9h-1.3v4.2h-1v-4.2H268v-0.9H271.6z"/>
			<path fill="#FBF9F3" d="M275.1,675.1v1h1.5v0.9h-1.5v1.4h2.1v0.9h-3.1v-5h3v0.9H275.1z"/>
		</g>
		<path fill="#092930" d="M218.6,692.8v-1.2c0.6-0.1,1.1-0.4,1.6-0.9l-4.9-4.9c-1.3,1.3-1.3,3.5,0,4.9c0.1,0.1,0.3,0.3,0.5,0.4v1.7
			h-2.2v2.4h7.2v-2.4H218.6z"/>
		<path fill="#092930" d="M293.9,692.8v-1.2c-0.6-0.1-1.1-0.4-1.6-0.9l4.9-4.9c1.3,1.3,1.3,3.5,0,4.9c-0.1,0.1-0.3,0.3-0.5,0.4v1.7
			h2.2v2.4h-7.2v-2.4H293.9z"/>
		<g>
			<g>
				<path fill="#092930" d="M130.1,666.1v-1.7h-4.4c-1.6,0-2.9,1.3-2.9,2.9v1.7h4.4C128.8,669,130.1,667.7,130.1,666.1z"/>
			</g>
			<g>
				<path fill="#092930" d="M144.5,662.8v-2.7h-7.3c-2.7,0-4.8,2.2-4.8,4.8v2.7h7.3C142.3,667.7,144.5,665.5,144.5,662.8z"/>
			</g>
			<path fill="#092930" d="M122.4,671.3h-1.8h-6.5c-0.2,0-0.4,0-0.6,0c-0.2,0-0.5,0-0.7,0c-3.8,0-6.9,3.1-6.9,7
				c0,3.8,3.1,6.9,6.9,6.9c3.5,0,6.4-2.6,6.9-6c0.2-0.1,0.3-0.2,0.4-0.3h2.9c2.7,0,4.8-2.2,4.8-4.8v-2.7H122.4z"/>
		</g>
		<rect x="227" y="684.7" fill="#4E9DA5" width="59.1" height="2.3"/>
		<g>
			<path fill="#FBF9F3" d="M98.4,646.8c0-6.2,5-11.3,11.3-11.3c6.2,0,11.3,5,11.3,11.3"/>
			<path fill="#FBF9F3" d="M140.7,646.8c0-3.8,3.1-6.9,6.9-6.9c3.8,0,6.9,3.1,6.9,6.9"/>
			<path fill="#FBF9F3" d="M109.8,646.8c0-9.9,8-18,18-18c9.9,0,18,8,18,18"/>
		</g>
		<g>
			<path fill="#FBF9F3" d="M196.7,658.5c0-5.3-4.3-9.5-9.5-9.5c-5.3,0-9.5,4.3-9.5,9.5"/>
			<path fill="#FBF9F3" d="M220.9,658.5c0-8.1-6.5-14.6-14.6-14.6c-8.1,0-14.6,6.5-14.6,14.6"/>
		</g>
		<g>
			<path fill="#FBF9F3" d="M497,658.5c0-5.1-4.1-9.2-9.2-9.2c-5.1,0-9.2,4.1-9.2,9.2"/>
			<path fill="#FBF9F3" d="M462.7,658.5c0-3.1-2.5-5.6-5.6-5.6c-3.1,0-5.6,2.5-5.6,5.6"/>
			<path fill="#FBF9F3" d="M487.8,658.5c0-8.1-6.5-14.6-14.6-14.6c-8.1,0-14.6,6.5-14.6,14.6"/>
		</g>
		<g>
			<path fill="#FBF9F3" d="M306.1,648.5c0-5.3,4.3-9.5,9.5-9.5c5.3,0,9.5,4.3,9.5,9.5"/>
			<path fill="#FBF9F3" d="M281.9,648.5c0-8.1,6.5-14.6,14.6-14.6c8.1,0,14.6,6.5,14.6,14.6"/>
		</g>
		<g>
			<rect x="481.9" y="752.6" fill="#092930" width="37.8" height="3.8"/>
		</g>
		<g>
			<rect x="484.9" y="749.1" fill="#092930" width="31.8" height="3.8"/>
		</g>
	</g>
</g>
<g>
</g>
<g>
</g>
<g>
</g>
<g>
</g>
<g>
</g>
<g>
</g>
<g>
</g>
<g>
</g>
<g>
</g>
<g>
</g>
<g>
</g>
<g>
</g>
<g>
</g>
<g>
</g>
<g>
</g>
</svg>
