<?xml version="1.0" encoding="utf-8"?>
<!-- Generator: Adobe Illustrator 18.1.1, SVG Export Plug-In . SVG Version: 6.00 Build 0)  -->
<svg version="1.1" id="Layer_1" xmlns="http://www.w3.org/2000/svg" xmlns:xlink="http://www.w3.org/1999/xlink" x="0px" y="0px"
	 width="680px" height="292.6px" viewBox="0 0 680 292.6" enable-background="new 0 0 680 292.6" xml:space="preserve">
<polyline fill="#FBF9F3" points="0,292.6 0,0 680,0 680,292.6 "/>
<g>
	<g>
		<g>
			<g>
				<defs>
					<path id="SVGID_1_" d="M93.5,103.5v40.2c0,22.2,18,40.2,40.2,40.2c22.2,0,40.2-18,40.2-40.2c0-22.2-18-40.2-40.2-40.2H93.5z"/>
				</defs>
				<use xlink:href="#SVGID_1_"  overflow="visible" fill="#5BBCC9"/>
				<clipPath id="SVGID_2_">
					<use xlink:href="#SVGID_1_"  overflow="visible"/>
				</clipPath>
			</g>
			<linearGradient id="SVGID_3_" gradientUnits="userSpaceOnUse" x1="116.0914" y1="180.048" x2="129.731" y2="142.5735">
				<stop  offset="0" style="stop-color:#0097A7;stop-opacity:0"/>
				<stop  offset="0.8563" style="stop-color:#0097A7"/>
			</linearGradient>
			<path opacity="0.5" fill="url(#SVGID_3_)" d="M114.4,137l-19,19c4.5,13.9,16.3,24.5,30.8,27.2l28.4-28.4L114.4,137z"/>
			<g>
				<g>
					<path fill="#FFFFFF" d="M135.4,127.2c-11.7,0-21.7,7.3-25.8,17.6c4.1,10.3,14.1,17.6,25.8,17.6c11.7,0,21.7-7.3,25.8-17.6
						C157.1,134.5,147.1,127.2,135.4,127.2z"/>
				</g>
				<g>
					<path fill="#4FC3F7" d="M135.4,156.5c-6.5,0-11.7-5.3-11.7-11.7c0-6.5,5.3-11.7,11.7-11.7c6.5,0,11.7,5.3,11.7,11.7
						C147.1,151.3,141.8,156.5,135.4,156.5z"/>
					<path fill="#092930" d="M135.4,137.8c-3.9,0-7,3.1-7,7c0,3.9,3.1,7,7,7c3.9,0,7-3.1,7-7C142.4,140.9,139.3,137.8,135.4,137.8z"
						/>
					<path fill="#FFFFFF" d="M137.6,140.1c-1.4,0-2.5,1.1-2.5,2.5c0,1.4,1.1,2.5,2.5,2.5c1.4,0,2.5-1.1,2.5-2.5
						C140.1,141.2,139,140.1,137.6,140.1z"/>
				</g>
			</g>
		</g>
		<g>
			<g>
				<defs>
					<path id="SVGID_4_" d="M302.6,103.5v40.2c0,22.2,18,40.2,40.2,40.2c22.2,0,40.2-18,40.2-40.2c0-22.2-18-40.2-40.2-40.2H302.6z"
						/>
				</defs>
				<use xlink:href="#SVGID_4_"  overflow="visible" fill="#5BBCC9"/>
				<clipPath id="SVGID_5_">
					<use xlink:href="#SVGID_4_"  overflow="visible"/>
				</clipPath>
			</g>
			<linearGradient id="SVGID_6_" gradientUnits="userSpaceOnUse" x1="320.2064" y1="192.2238" x2="341.2776" y2="134.331">
				<stop  offset="0.1927" style="stop-color:#0097A7;stop-opacity:0"/>
				<stop  offset="0.8563" style="stop-color:#0097A7"/>
			</linearGradient>
			<path opacity="0.5" fill="url(#SVGID_6_)" d="M319.2,126.3l-16.6,16.6v0.7c0,22.2,18,40.2,40.2,40.2c0.9,0,1.8,0,2.7-0.1
				l20.9-20.9L319.2,126.3z"/>
			<rect x="319.2" y="126" fill="#D50000" width="47.2" height="36.9"/>
			<rect x="323.3" y="130.2" fill="#BDBDBD" width="39" height="4.9"/>
			<rect x="319.2" y="139.3" fill="#FF1744" width="47.2" height="23.6"/>
			<rect x="328.8" y="119.6" fill="#FFFFFF" width="28.6" height="15.4"/>
			<polygon fill="#42A5F5" points="347.4,123.4 342.2,128.6 340.1,126.6 338.5,128.1 342.2,131.8 349,125 			"/>
		</g>
		<g>
			<g>
				<defs>
					<path id="SVGID_7_" d="M407.2,103.5v40.2c0,22.2,18,40.2,40.2,40.2c22.2,0,40.2-18,40.2-40.2c0-22.2-18-40.2-40.2-40.2H407.2z"
						/>
				</defs>
				<use xlink:href="#SVGID_7_"  overflow="visible" fill="#5BBCC9"/>
				<clipPath id="SVGID_8_">
					<use xlink:href="#SVGID_7_"  overflow="visible"/>
				</clipPath>
			</g>
			<linearGradient id="SVGID_9_" gradientUnits="userSpaceOnUse" x1="423.861" y1="201.3101" x2="452.1863" y2="123.4869">
				<stop  offset="0.1927" style="stop-color:#0097A7;stop-opacity:0"/>
				<stop  offset="0.8563" style="stop-color:#0097A7"/>
			</linearGradient>
			<path opacity="0.5" fill="url(#SVGID_9_)" d="M462.7,150.4l-26.4-32.8l-29,29c1.5,20.8,18.9,37.3,40.1,37.3
				c7.9,0,15.4-2.3,21.6-6.3l-15.5-16.5L462.7,150.4z"/>
			<path fill="#FFAB40" d="M467.1,150.2l-17.3-17.3l-10.2-6.3l6.3,10.2l13.4,13.4l-11,11l18,18c1.7-0.9,3.2-1.9,4.7-3l-15-15
				L467.1,150.2z"/>
			<path fill="#1B3E4C" d="M442.7,119.6l-2.5-2.5c-0.9-0.9-2.4-0.9-3.3,0l-6.6,6.6c-0.9,0.9-0.9,2.4,0,3.3l2.5,2.5l-0.8,0.8l5,5
				l7.5,2.5l2.5,2.5l6.6-6.6l-2.5-2.5l-2.5-7.5l-5-5L442.7,119.6z"/>
			<g>
				<polygon fill="#CFD8DC" points="431.9,125.4 438.5,118.8 441,121.3 434.4,127.9 				"/>
			</g>
		</g>
		<g>
			<g>
				<defs>
					<path id="SVGID_10_" d="M198.1,103.5v40.2c0,22.2,18,40.2,40.2,40.2c22.2,0,40.2-18,40.2-40.2c0-22.2-18-40.2-40.2-40.2H198.1z
						"/>
				</defs>
				<use xlink:href="#SVGID_10_"  overflow="visible" fill="#5BBCC9"/>
				<clipPath id="SVGID_11_">
					<use xlink:href="#SVGID_10_"  overflow="visible"/>
				</clipPath>
			</g>
			<linearGradient id="SVGID_12_" gradientUnits="userSpaceOnUse" x1="202.6661" y1="225.612" x2="237.4844" y2="129.9495">
				<stop  offset="0.1927" style="stop-color:#0097A7;stop-opacity:0"/>
				<stop  offset="0.8563" style="stop-color:#0097A7"/>
			</linearGradient>
			<path opacity="0.5" fill="url(#SVGID_12_)" d="M216.6,122.4l-18.6,18.6v2.7c0,22.2,18,40.2,40.2,40.2c0.8,0,1.7,0,2.5-0.1
				l19.7-19.7L216.6,122.4z"/>
			<g>
				<g>
					<rect x="218.4" y="124" fill="#90A4AE" width="5.7" height="4.5"/>
					<circle fill="#CFD8DC" cx="218.4" cy="125" r="3.5"/>
					<rect x="252.2" y="158.4" fill="#90A4AE" width="5.7" height="4.5"/>
					<path fill="#FFFFFF" d="M254.3,161.9v-24.2v-1.4V125c0-0.3-0.1-0.7-0.2-1c-0.4-1.3-1.5-2.3-2.9-2.5h-32.5
						c1.7,0.2,3.1,1.7,3.1,3.5v11.3v1.4v24.2c0,0.3,0.1,0.7,0.2,1c0.4,1.3,1.5,2.3,2.9,2.5h32.5
						C255.7,165.2,254.3,163.7,254.3,161.9z"/>
					<circle fill="#CFD8DC" cx="257.8" cy="161.9" r="3.5"/>
				</g>
				<line fill="none" stroke="#90A4AE" stroke-width="1.3551" stroke-miterlimit="10" x1="229.7" y1="154.3" x2="246" y2="154.3"/>
				<line fill="none" stroke="#90A4AE" stroke-width="1.3551" stroke-miterlimit="10" x1="229.7" y1="157.7" x2="246" y2="157.7"/>
				<g>
					
						<line fill="none" stroke="#90A4AE" stroke-width="1.3551" stroke-miterlimit="10" x1="233.4" y1="130.4" x2="242.7" y2="130.4"/>
					<line fill="none" stroke="#90A4AE" stroke-width="1.3551" stroke-miterlimit="10" x1="231.1" y1="133.5" x2="245" y2="133.5"/>
				</g>
				<polyline fill="none" stroke="#FF5722" stroke-width="1.9972" stroke-miterlimit="10" points="243.5,140 247.3,143.3 
					243.5,146.6 				"/>
				<polyline fill="none" stroke="#FF5722" stroke-width="1.9972" stroke-miterlimit="10" points="232.2,140 228.4,143.3 
					232.2,146.6 				"/>
				
					<line fill="none" stroke="#FF5722" stroke-width="1.9972" stroke-miterlimit="10" x1="239.4" y1="138.3" x2="235.8" y2="148.3"/>
			</g>
		</g>
		<g>
			<g>
				<defs>
					<path id="SVGID_13_" d="M511.7,103.5v40.2c0,22.2,18,40.2,40.2,40.2c22.2,0,40.2-18,40.2-40.2c0-22.2-18-40.2-40.2-40.2H511.7z
						"/>
				</defs>
				<use xlink:href="#SVGID_13_"  overflow="visible" fill="#5BBCC9"/>
				<clipPath id="SVGID_14_">
					<use xlink:href="#SVGID_13_"  overflow="visible"/>
				</clipPath>
			</g>
			<linearGradient id="SVGID_15_" gradientUnits="userSpaceOnUse" x1="523.2106" y1="208.9251" x2="553.5383" y2="125.6004">
				<stop  offset="0.1927" style="stop-color:#0097A7;stop-opacity:0"/>
				<stop  offset="0.8563" style="stop-color:#0097A7"/>
			</linearGradient>
			<path opacity="0.5" fill="url(#SVGID_15_)" d="M576.8,138.8l-6.7-7.2h-34.2l-7.4,4.4l-15.9,15.9c3.1,14.8,14.4,26.7,28.9,30.6
				l35.6-35.6L576.8,138.8z"/>
			<g>
				<g>
					<rect x="550.4" y="120.8" fill="#FBC02D" width="3.8" height="40.5"/>
				</g>
				<g>
					<rect x="543.7" y="159.3" fill="#FDD835" width="17.3" height="3.8"/>
				</g>
				<g>
					<rect x="535.4" y="128.5" fill="#FDD835" width="33.9" height="3.8"/>
				</g>
				<g>
					<circle fill="#FDD835" cx="552.2" cy="120.8" r="3.5"/>
				</g>
				<g>
					<g>
						<path fill="#37474F" d="M576,135.2l-6.7-6.7l-6.7,6.7c-1.8,1.8-2.8,4.2-2.8,6.7c0,2.5,1,4.9,2.8,6.7c1.8,1.8,4.2,2.8,6.7,2.8
							c2.5,0,4.9-1,6.7-2.8C579.6,144.9,579.6,138.9,576,135.2z"/>
					</g>
					<g>
						<g>
							<path fill="#5BBCC9" d="M569.3,133l4.4,4.5c1,1,1.6,2.2,1.8,3.6h-12.4c0.2-1.4,0.8-2.6,1.8-3.6L569.3,133z"/>
						</g>
					</g>
				</g>
				<g>
					<g>
						<path fill="#37474F" d="M542.1,135.2l-6.7-6.7l-6.7,6.7c-1.8,1.8-2.8,4.2-2.8,6.7c0,2.5,1,4.9,2.8,6.7
							c1.8,1.8,4.2,2.8,6.7,2.8c2.5,0,4.9-1,6.7-2.8C545.8,144.9,545.8,138.9,542.1,135.2z"/>
					</g>
					<g>
						<g>
							<path fill="#5BBCC9" d="M535.4,133l4.4,4.5c1,1,1.6,2.2,1.8,3.6h-12.4c0.2-1.4,0.8-2.6,1.8-3.6L535.4,133z"/>
						</g>
					</g>
				</g>
			</g>
		</g>
	</g>
</g>
<g>
</g>
<g>
</g>
<g>
</g>
<g>
</g>
<g>
</g>
<g>
</g>
<g>
</g>
<g>
</g>
<g>
</g>
<g>
</g>
<g>
</g>
<g>
</g>
<g>
</g>
<g>
</g>
<g>
</g>
</svg>
