<?xml version="1.0" encoding="utf-8"?>
<!-- Generator: Adobe Illustrator 18.1.1, SVG Export Plug-In . SVG Version: 6.00 Build 0)  -->
<svg version="1.1" id="Layer_1" xmlns="http://www.w3.org/2000/svg" xmlns:xlink="http://www.w3.org/1999/xlink" x="0px" y="0px"
	 width="1360px" height="527px" viewBox="0 0 1360 527" enable-background="new 0 0 1360 527" xml:space="preserve">
<polyline fill="#F5F5F5" points="1360,-991.7 1360,-6.2 0,-6.2 0,-991.7 "/>
<polyline fill="#FFFFFF" points="1211.4,-795.7 1211.4,-8 554.3,-8 554.3,-795.7 "/>
<polyline fill="#5BBCC9" points="1211.4,-297.8 1211.4,-7.2 554.3,-7.2 554.3,-297.8 "/>
<rect x="0" y="-9.2" fill="#1B3E4C" width="1360" height="536.2"/>
<polyline fill="#FFFFFF" points="200.6,-77.5 244.8,138.6 -137.2,216.6 "/>
<line fill="#FFFFFF" x1="-181.4" y1="0.5" x2="200.6" y2="-77.5"/>
<g>
	<path fill="#0C323F" d="M-29.7,48.8l-7.4,1.5l1.4,6.7l-2.9,0.6l-3-14.9l2.9-0.6l1.2,5.6l7.4-1.5l-1.2-5.6l2.9-0.6l3,14.9l-2.9,0.6
		L-29.7,48.8z"/>
	<path fill="#0C323F" d="M-12.4,52.3l-2.7,0.5l-0.2-0.8c-0.7,0.9-1.6,1.4-2.7,1.6c-1.5,0.3-3.1-0.1-4.2-0.9c-1-0.8-1.8-1.9-2.1-3.3
		c-0.6-3,1.2-5.8,4-6.4c1.2-0.2,2.3-0.1,3.2,0.4l-0.2-0.8l2.7-0.5L-12.4,52.3z M-16.5,46.1c-0.7-0.6-1.7-1-2.8-0.8
		c-1.6,0.3-2.4,1.9-2.1,3.4c0.3,1.6,1.7,2.6,3.3,2.3c1-0.2,1.9-0.9,2.2-1.8L-16.5,46.1z"/>
	<path fill="#0C323F" d="M-4.6,42.5c-0.2,0-0.6,0-1,0.1c-1.2,0.2-2,1.3-2.2,2l1.3,6.5l-2.8,0.6l-2.1-10.3l2.7-0.5l0.2,1
		C-8,40.9-7,40.2-5.7,40c0.4-0.1,0.6-0.1,1-0.1L-4.6,42.5z"/>
	<path fill="#0C323F" d="M2.1,49.3l-2.8,0.6l-3.1-15.1l2.8-0.6L2.1,49.3z"/>
	<path fill="#0C323F" d="M15.1,46.7l-2.7,0.5l-0.2-0.8c-0.7,0.9-1.6,1.4-2.7,1.6c-1.5,0.3-3.1-0.1-4.2-0.9c-1-0.8-1.8-1.9-2.1-3.3
		c-0.6-3,1.2-5.8,4-6.4c1.2-0.2,2.3-0.1,3.2,0.4l-0.2-0.8l2.7-0.5L15.1,46.7z M11,40.5c-0.7-0.6-1.7-1-2.8-0.8
		c-1.6,0.3-2.4,1.9-2.1,3.4c0.3,1.6,1.7,2.6,3.3,2.3c1-0.2,1.9-0.9,2.2-1.8L11,40.5z"/>
	<path fill="#0C323F" d="M18.3,46l-2.1-10.3l2.7-0.5L19,36c0.7-0.8,1.6-1.4,2.7-1.6c1.4-0.3,2.9,0.1,3.9,0.9
		c0.8,0.7,1.4,1.6,1.8,3.4l1.1,5.3l-2.8,0.6L24.6,39c-0.2-1-0.6-1.5-1-1.8c-0.4-0.3-1-0.4-1.7-0.3c-1.2,0.2-2,1.2-2.2,1.8l1.4,6.7
		L18.3,46z"/>
	<path fill="#0C323F" d="M42.1,34.1l1.4,6.7l-2.9,0.6l-1.4-6.7l-6.8-7.1l3.3-0.7l4.3,4.6l2.2-5.9l3.3-0.7L42.1,34.1z"/>
	<path fill="#0C323F" d="M57.9,27.2L60,37.5L57.4,38l-0.2-0.8c-0.7,0.9-1.6,1.4-2.6,1.6c-1.4,0.3-2.8-0.1-3.8-0.9
		c-0.8-0.7-1.4-1.7-1.7-3.2l-1.1-5.5l2.8-0.6l1.1,5.6c0.2,0.9,0.5,1.4,0.9,1.7c0.5,0.4,1.2,0.4,1.7,0.3c1.2-0.2,1.9-1.2,2.1-1.8
		l-1.4-6.7L57.9,27.2z"/>
</g>
<g>
	<path fill="#5ABCC9" d="M-33.3,77.8l0.8,3.9l-1.8,0.4l-2-9.6l3.6-0.7c1.2-0.3,2-0.1,2.7,0.4c0.6,0.4,1,1.1,1.2,1.8
		c0.2,0.8,0,1.5-0.3,2.1c-0.4,0.7-1.1,1.1-2.3,1.4L-33.3,77.8z M-31.9,75.8c0.6-0.1,0.9-0.3,1.1-0.6c0.2-0.3,0.2-0.6,0.1-0.9
		c-0.1-0.3-0.2-0.6-0.5-0.8c-0.3-0.2-0.6-0.3-1.2-0.1l-1.7,0.3l0.5,2.4L-31.9,75.8z"/>
	<path fill="#5ABCC9" d="M-22.5,74.3c-0.1,0-0.4,0-0.7,0.1c-0.8,0.2-1.3,0.8-1.4,1.3l0.9,4.2l-1.8,0.4l-1.4-6.6l1.7-0.3l0.1,0.7
		c0.3-0.6,1-1,1.8-1.2c0.3-0.1,0.4-0.1,0.6-0.1L-22.5,74.3z"/>
	<path fill="#5ABCC9" d="M-20.4,68.6c0.6-0.1,1.3,0.3,1.4,0.9c0.1,0.6-0.3,1.2-0.9,1.4c-0.6,0.1-1.3-0.3-1.4-0.9
		C-21.5,69.4-21,68.8-20.4,68.6z M-17.4,78.6l-1.8,0.4l-1.4-6.6l1.8-0.4L-17.4,78.6z"/>
	<path fill="#5ABCC9" d="M-14.7,78l-1.4-6.6l1.7-0.3l0.1,0.5c0.4-0.5,1-0.9,1.7-1.1c0.9-0.2,1.8,0.1,2.5,0.6
		c0.5,0.4,0.9,1.1,1.2,2.2l0.7,3.4l-1.8,0.4l-0.7-3.5c-0.1-0.7-0.4-1-0.7-1.2c-0.3-0.2-0.7-0.2-1.1-0.2c-0.8,0.2-1.3,0.8-1.4,1.2
		l0.9,4.3L-14.7,78z"/>
	<path fill="#5ABCC9" d="M0.2,73.6c-0.6,1.2-1.5,1.9-2.7,2.1c-2.1,0.4-3.9-0.8-4.3-2.7c-0.4-1.9,0.8-3.8,2.9-4.2
		c1.2-0.2,2.3,0.1,3.1,0.8l-1,1.4c-0.5-0.4-1.1-0.6-1.7-0.5c-1,0.2-1.6,1.2-1.4,2.2c0.2,1,1.1,1.7,2.2,1.4c0.7-0.1,1.2-0.7,1.4-1.2
		L0.2,73.6z"/>
	<path fill="#5ABCC9" d="M1.4,64.2c0.6-0.1,1.3,0.3,1.4,0.9c0.1,0.6-0.3,1.2-0.9,1.4c-0.6,0.1-1.3-0.3-1.4-0.9
		C0.3,64.9,0.7,64.3,1.4,64.2z M4.3,74.1l-1.8,0.4l-1.4-6.6L3,67.5L4.3,74.1z"/>
	<path fill="#5ABCC9" d="M5.7,66.9l1.7-0.3l0.1,0.5c0.4-0.5,1.1-0.9,1.8-1.1c1.8-0.4,3.6,0.8,4,2.8c0.2,0.9,0,1.8-0.4,2.5
		c-0.4,0.8-1.3,1.4-2.3,1.6c-0.7,0.1-1.3,0.1-1.9-0.2l0.8,3.8l-1.8,0.4L5.7,66.9z M8.3,70.9c0.4,0.4,1.1,0.6,1.8,0.5
		c1-0.2,1.6-1.1,1.4-2.2c-0.2-1-1-1.7-2.1-1.5c-0.7,0.1-1.2,0.6-1.5,1.2L8.3,70.9z"/>
	<path fill="#5ABCC9" d="M22.5,70.4l-1.7,0.3l-0.1-0.5c-0.5,0.6-1,0.9-1.7,1c-1,0.2-2,0-2.7-0.6c-0.6-0.5-1.1-1.2-1.3-2.2
		c-0.4-2,0.7-3.8,2.6-4.1c0.8-0.2,1.5,0,2.1,0.3l-0.1-0.5l1.7-0.3L22.5,70.4z M19.8,66.5c-0.5-0.4-1.1-0.6-1.8-0.5
		c-1,0.2-1.5,1.2-1.3,2.2c0.2,1,1.1,1.7,2.1,1.4c0.7-0.1,1.2-0.6,1.4-1.1L19.8,66.5z"/>
	<path fill="#5ABCC9" d="M27,69.5l-1.8,0.4l-2-9.7l1.8-0.4L27,69.5z"/>
</g>
<g>
	<g>
		<path fill="#798F9C" d="M-29.6,109.8l3.2-6.6l0.9-0.2l1.1,5.3l1.3-0.3l0.2,1.2l-1.3,0.3l0.4,2.1l-1.2,0.2l-0.4-2.1l-4,0.8
			L-29.6,109.8z M-25.7,108.6l-0.6-2.9l-1.7,3.3L-25.7,108.6z"/>
		<path fill="#798F9C" d="M-19.9,101.8c2.1-0.4,3.3,1.4,3.8,3.8s0.1,4.5-2,5c-2.1,0.4-3.3-1.4-3.8-3.8S-22,102.2-19.9,101.8z
			 M-19.6,102.9c-1.3,0.3-1.4,1.9-1,3.6c0.3,1.7,1,3.2,2.4,2.9s1.4-1.9,1-3.6C-17.6,104.1-18.3,102.7-19.6,102.9z"/>
		<path fill="#798F9C" d="M-13.8,106.9c-0.2-1,0.2-1.9,0.9-2.5c-0.5-0.2-1-0.8-1.1-1.4c-0.3-1.2,0.6-2.5,1.9-2.7s2.6,0.5,2.8,1.8
			c0.1,0.6-0.1,1.3-0.5,1.7c0.9,0.3,1.6,1,1.8,1.9c0.3,1.5-0.7,3-2.4,3.3S-13.5,108.4-13.8,106.9z M-12.9,102.7
			c0.1,0.6,0.7,1,1.4,0.9c0.7-0.1,1.1-0.7,0.9-1.3c-0.1-0.6-0.7-1-1.4-0.9C-12.6,101.5-13,102.1-12.9,102.7z M-12.6,106.6
			c0.2,0.9,1,1.4,2,1.2s1.6-1,1.4-1.9s-1-1.4-2-1.2S-12.8,105.7-12.6,106.6z"/>
		<path fill="#798F9C" d="M-2.4,103.5l0.2,1l-3.7,0.7l-0.2-1L-2.4,103.5z"/>
		<path fill="#798F9C" d="M0.9,98.9l0.1,1.8c0.2-0.1,0.5-0.3,0.8-0.3c1.7-0.3,3.2,0.7,3.5,2.3s-0.6,3.2-2.3,3.5
			c-1,0.2-2.1-0.1-2.7-0.7l0.8-0.9c0.4,0.4,1.1,0.6,1.7,0.5c1-0.2,1.5-1.2,1.3-2.1s-1-1.6-2.1-1.4c-0.5,0.1-0.9,0.4-1.2,0.8
			l-0.9,0.1l-0.3-4.4l4-0.8l0.2,1.2L0.9,98.9z"/>
		<path fill="#798F9C" d="M6.9,102.3l3.2-6.6l0.9-0.2l1.1,5.3l1.3-0.3l0.2,1.2l-1.3,0.3l0.4,2.1l-1.2,0.2l-0.4-2.1l-4,0.8L6.9,102.3
			z M10.8,101.2l-0.6-2.9l-1.7,3.3L10.8,101.2z"/>
		<path fill="#798F9C" d="M14.4,100.8l3.2-6.6l0.9-0.2l1.1,5.3l1.3-0.3l0.2,1.2l-1.3,0.3l0.4,2.1l-1.2,0.2l-0.4-2.1l-4,0.8
			L14.4,100.8z M18.3,99.6l-0.6-2.9l-1.7,3.3L18.3,99.6z"/>
		<path fill="#798F9C" d="M26.1,97.6l0.2,1l-3.7,0.7l-0.2-1L26.1,97.6z"/>
		<path fill="#798F9C" d="M30.3,91.5c2.1-0.4,3.3,1.4,3.8,3.8s0.1,4.5-2,5c-2.1,0.4-3.3-1.4-3.8-3.8S28.1,92,30.3,91.5z M30.5,92.7
			c-1.3,0.3-1.4,1.9-1,3.6c0.3,1.7,1,3.2,2.4,2.9s1.4-1.9,1-3.6C32.5,93.9,31.9,92.4,30.5,92.7z"/>
		<path fill="#798F9C" d="M35.6,93l-0.2-1.2l1.8-1.6l0.9-0.2l1.7,8.5l-1.2,0.2l-1.4-7L35.6,93z"/>
		<path fill="#798F9C" d="M42.6,98l2.1-8.1l-3.9,0.8l-0.2-1.2l5.4-1.1l0.2,0.8l-2.2,8.5L42.6,98z"/>
		<path fill="#798F9C" d="M48.8,94.1c-0.2-1,0.2-1.9,0.9-2.5c-0.5-0.2-1-0.8-1.1-1.4c-0.3-1.2,0.6-2.5,1.9-2.7
			c1.4-0.3,2.6,0.5,2.8,1.8c0.1,0.6-0.1,1.3-0.5,1.7c0.9,0.3,1.6,1,1.8,2c0.3,1.5-0.7,3-2.4,3.3C50.6,96.5,49.1,95.6,48.8,94.1z
			 M49.8,89.9c0.1,0.6,0.7,1,1.4,0.9c0.7-0.1,1.1-0.7,0.9-1.3c-0.1-0.6-0.7-1-1.4-0.9C50.1,88.7,49.7,89.3,49.8,89.9z M50,93.8
			c0.2,0.9,1,1.4,2,1.2s1.6-1,1.4-1.9c-0.2-0.9-1-1.4-2-1.2S49.8,92.9,50,93.8z"/>
	</g>
</g>
<g>
	<g>
		<path fill="#798F9C" d="M-23.7,128.5c0.3-0.3,0.8-0.8,1.6-1c0.8-0.2,1.7,0.1,2.3,0.6c0.5,0.4,0.8,0.9,1,1.9l0.6,2.8l-1.2,0.2
			l-0.6-2.9c-0.1-0.7-0.4-1-0.6-1.3c-0.3-0.3-0.8-0.4-1.3-0.3c-0.8,0.2-1.2,0.7-1.5,1.2l0.8,3.9l-1.2,0.2l-1.8-8.6l1.2-0.2
			L-23.7,128.5z"/>
		<path fill="#798F9C" d="M-11.7,131c-0.4,0.5-1,0.9-1.6,1c-0.5,0.1-1.1,0.1-1.5-0.1c-1-0.3-1.8-1.2-2-2.3c-0.2-1.1,0.2-2.2,0.9-2.9
			c0.3-0.3,0.8-0.5,1.3-0.7c0.6-0.1,1.3-0.1,1.9,0.3l-0.1-0.5l1.1-0.2l1.2,5.7l-1.1,0.2L-11.7,131z M-12.4,127.6
			c-0.4-0.4-1.1-0.6-1.8-0.5c-1.1,0.2-1.7,1.3-1.5,2.3c0.2,1,1.2,1.7,2.3,1.5c0.6-0.1,1.1-0.5,1.4-1.1L-12.4,127.6z"/>
		<path fill="#798F9C" d="M-5.6,125.4c-0.1,0-0.3,0-0.5,0c-0.6,0.1-1.1,0.7-1.3,1.3l0.8,3.8l-1.2,0.2l-1.2-5.7l1.1-0.2l0.1,0.7
			c0.2-0.4,0.7-1,1.6-1.1c0.1,0,0.3-0.1,0.5-0.1L-5.6,125.4z"/>
		<path fill="#798F9C" d="M-4.2,121l1.2-0.2l1.8,8.6l-1.2,0.2L-4.2,121z"/>
		<path fill="#798F9C" d="M5.4,127.5c-0.4,0.5-1,0.9-1.6,1c-0.5,0.1-1.1,0.1-1.5-0.1c-1-0.3-1.8-1.2-2-2.3c-0.2-1.1,0.2-2.2,0.9-2.9
			c0.3-0.3,0.8-0.5,1.3-0.7c0.6-0.1,1.3-0.1,1.9,0.3l-0.1-0.5l1.1-0.2l1.2,5.7L5.5,128L5.4,127.5z M4.7,124.1
			c-0.4-0.4-1.1-0.6-1.8-0.5c-1.1,0.2-1.7,1.3-1.5,2.3c0.2,1,1.2,1.7,2.3,1.5c0.6-0.1,1.1-0.5,1.4-1.1L4.7,124.1z"/>
		<path fill="#798F9C" d="M9.4,121.8c0.2-0.4,0.8-0.9,1.6-1c0.8-0.2,1.7,0.1,2.3,0.6c0.5,0.4,0.8,0.9,1,1.9l0.6,2.8l-1.2,0.2
			l-0.6-2.9c-0.1-0.7-0.4-1-0.6-1.3c-0.3-0.3-0.8-0.4-1.3-0.3c-0.8,0.2-1.2,0.7-1.5,1.2l0.8,3.9l-1.2,0.2l-1.2-5.7l1.1-0.2
			L9.4,121.8z"/>
		<path fill="#798F9C" d="M25.9,125.2c-0.7,0.8-1.7,1.4-2.9,1.7c-2.9,0.6-5.8-1.3-6.4-4.3s1.3-5.8,4.2-6.4c2.8-0.6,5.6,0.9,6.1,3.8
			c0.3,1.7-0.1,3.3-1.7,3.6c-0.7,0.1-1.2,0-1.7-0.4c-0.2,0.3-0.6,0.9-1.5,1.1c-1.2,0.2-2.6-0.4-3-2.1c-0.3-1.7,0.7-2.9,1.9-3.1
			c0.8-0.2,1.3,0.1,1.5,0.2l-0.1-0.4l1-0.2l0.6,3c0.1,0.3,0.1,0.6,0.3,0.7c0.2,0.2,0.4,0.3,0.7,0.2c0.8-0.2,1-1.1,0.8-2.3
			c-0.5-2.2-2.5-3.5-4.9-3c-2.3,0.5-3.8,2.8-3.3,5.2c0.5,2.4,2.8,3.9,5.1,3.5c0.9-0.2,1.7-0.7,2.3-1.4L25.9,125.2z M22.7,120.2
			c-0.3-0.2-0.8-0.4-1.4-0.3c-0.7,0.1-1.4,0.8-1.1,1.9c0.2,1.1,1.1,1.4,1.8,1.3c0.6-0.1,0.9-0.5,1.1-0.9L22.7,120.2z"/>
		<path fill="#798F9C" d="M33.7,122.2c-0.2,0.1-0.5,0.2-0.9,0.3c-0.7,0.1-1.3,0-1.8-0.3c-0.4-0.3-0.6-0.8-0.8-1.4l-0.5-2.6l-1.5,0.3
			l-0.2-1l1.5-0.3l-0.3-1.6l1.2-0.2l0.3,1.6l1.8-0.4l0.2,1l-1.8,0.4l0.5,2.7c0.1,0.3,0.1,0.6,0.3,0.7c0.2,0.2,0.5,0.2,0.9,0.1
			c0.2,0,0.5-0.1,0.6-0.2L33.7,122.2z"/>
		<path fill="#798F9C" d="M36,119.1c0.3,0.9,1.2,1.6,2.2,1.4c0.9-0.2,1.2-0.7,1.5-1.1l0.9,0.6c-0.3,0.6-1,1.3-2.2,1.6
			c-1.7,0.3-3.2-0.7-3.6-2.4c-0.4-1.7,0.6-3.2,2.2-3.6c1.6-0.3,3,0.7,3.4,2.4c0,0,0,0.1,0,0.2L36,119.1z M35.9,118.1l3.1-0.6
			c-0.3-0.7-1.1-1.1-1.8-0.9C36.5,116.6,35.9,117.3,35.9,118.1z"/>
		<path fill="#798F9C" d="M47.2,118.9c-0.4,0.5-1,0.9-1.6,1c-0.5,0.1-1.1,0.1-1.5-0.1c-1-0.3-1.8-1.2-2-2.3
			c-0.2-1.1,0.2-2.2,0.9-2.9c0.3-0.3,0.8-0.5,1.3-0.7c0.6-0.1,1.3-0.1,1.9,0.3l-0.1-0.5l1.1-0.2l1.2,5.7l-1.1,0.2L47.2,118.9z
			 M46.5,115.5c-0.4-0.4-1.1-0.6-1.8-0.5c-1.1,0.2-1.7,1.3-1.5,2.3c0.2,1,1.2,1.7,2.3,1.5c0.6-0.1,1.1-0.5,1.4-1.1L46.5,115.5z"/>
		<path fill="#798F9C" d="M51.1,112.7l0.1,0.5c0.2-0.3,0.8-0.9,1.5-1c0.8-0.2,1.6,0.1,2.2,0.5c0.4-0.6,1-1.2,2-1.4
			c0.8-0.2,1.6,0,2.2,0.5c0.4,0.4,0.7,0.9,0.9,1.9l0.6,2.9l-1.2,0.2l-0.6-3.1c-0.1-0.6-0.3-0.9-0.6-1.1c-0.3-0.3-0.7-0.4-1.2-0.3
			c-0.8,0.2-1.3,0.7-1.6,1.2c0.1,0.3,0.2,0.6,0.3,1l0.6,2.9l-1.2,0.2l-0.6-3.1c-0.1-0.6-0.3-0.9-0.6-1.1c-0.3-0.3-0.8-0.4-1.2-0.3
			c-0.7,0.1-1.2,0.7-1.4,1.1l0.8,3.9l-1.2,0.2l-1.2-5.7L51.1,112.7z"/>
		<path fill="#798F9C" d="M63.5,115.3c-0.4-0.4-0.7-0.9-0.9-1.9l-0.6-2.9l1.2-0.2l0.6,3.1c0.1,0.6,0.3,0.9,0.6,1.1
			c0.3,0.3,0.8,0.4,1.2,0.3c0.7-0.1,1.2-0.7,1.4-1.1l-0.8-3.9l1.2-0.2l1.2,5.7l-1.1,0.2l-0.1-0.5c-0.2,0.3-0.8,0.8-1.5,1
			C64.9,116,64.1,115.8,63.5,115.3z"/>
		<path fill="#798F9C" d="M72.9,117.3l-1.2,0.2l-1.8-8.6l1.1-0.2l0.1,0.5c0.4-0.6,1-0.9,1.7-1c0.5-0.1,1-0.1,1.5,0.1
			c1,0.3,1.8,1.2,2,2.3c0.2,1.1-0.2,2.2-0.9,2.9c-0.3,0.3-0.8,0.6-1.4,0.7c-0.7,0.1-1.3,0-1.9-0.3L72.9,117.3z M71.9,112.6
			c0.5,0.4,1.2,0.6,1.7,0.5c1.1-0.2,1.7-1.3,1.5-2.3c-0.2-1-1.1-1.7-2.2-1.5c-0.7,0.1-1.2,0.6-1.5,1.1L71.9,112.6z"/>
		<path fill="#798F9C" d="M82.6,112.3c-0.2,0.1-0.5,0.2-0.9,0.3c-0.7,0.1-1.3,0-1.8-0.3c-0.4-0.3-0.6-0.8-0.8-1.4l-0.5-2.6l-1.5,0.3
			l-0.2-1l1.5-0.3l-0.3-1.6l1.2-0.2l0.3,1.6l1.8-0.4l0.2,1l-1.8,0.4l0.5,2.7c0.1,0.3,0.1,0.6,0.3,0.7c0.2,0.2,0.5,0.2,0.9,0.1
			c0.2,0,0.5-0.1,0.6-0.2L82.6,112.3z"/>
		<path fill="#798F9C" d="M85.1,110.9c-0.4-0.4-0.7-0.9-0.9-1.9l-0.6-2.9l1.2-0.2l0.6,3.1c0.1,0.6,0.3,0.9,0.6,1.1
			c0.3,0.3,0.8,0.4,1.2,0.3c0.7-0.1,1.2-0.7,1.4-1.1l-0.8-3.9l1.2-0.2l1.2,5.7L89,111l-0.1-0.5c-0.2,0.3-0.8,0.8-1.5,1
			C86.5,111.6,85.7,111.4,85.1,110.9z"/>
		<path fill="#798F9C" d="M94.9,104.8c-0.1,0-0.3,0-0.5,0c-0.6,0.1-1.1,0.7-1.3,1.3l0.8,3.8l-1.2,0.2l-1.2-5.7l1.1-0.2l0.1,0.7
			c0.2-0.4,0.7-1,1.6-1.1c0.1,0,0.3-0.1,0.5-0.1L94.9,104.8z"/>
		<path fill="#798F9C" d="M98.1,103.7c0.2-0.4,0.8-0.9,1.6-1c0.8-0.2,1.7,0.1,2.3,0.6c0.5,0.4,0.8,0.9,1,1.9l0.6,2.8l-1.2,0.2
			l-0.6-2.9c-0.1-0.7-0.4-1-0.6-1.3c-0.3-0.3-0.8-0.4-1.3-0.3c-0.8,0.2-1.2,0.7-1.5,1.2l0.8,3.9l-1.2,0.2l-1.2-5.7l1.1-0.2
			L98.1,103.7z"/>
		<path fill="#798F9C" d="M106.9,105.6c0.5-0.1,0.9,0.2,1,0.7c0.1,0.5-0.2,0.9-0.7,1c-0.5,0.1-0.9-0.2-1-0.7
			C106.1,106.2,106.4,105.7,106.9,105.6z"/>
		<path fill="#798F9C" d="M115.7,104.2c-0.3,0.9-1.2,1.6-2.3,1.9c-1.8,0.4-3.3-0.7-3.7-2.4c-0.3-1.7,0.7-3.2,2.4-3.6
			c1-0.2,2,0.1,2.7,0.7l-0.7,0.9c-0.4-0.4-1-0.7-1.8-0.5c-1,0.2-1.7,1.2-1.4,2.3c0.2,1.1,1.2,1.7,2.3,1.5c0.8-0.2,1.2-0.7,1.5-1.2
			L115.7,104.2z"/>
		<path fill="#798F9C" d="M119.2,98.7c1.7-0.3,3.2,0.7,3.6,2.4c0.3,1.7-0.7,3.2-2.3,3.6c-1.7,0.3-3.2-0.7-3.6-2.4
			C116.5,100.6,117.5,99.1,119.2,98.7z M120.2,103.6c1.1-0.2,1.6-1.2,1.4-2.3c-0.2-1-1.1-1.7-2.2-1.5c-1.1,0.2-1.6,1.2-1.4,2.3
			C118.2,103.1,119.1,103.8,120.2,103.6z"/>
		<path fill="#798F9C" d="M125.5,97.5l0.1,0.5c0.2-0.3,0.8-0.9,1.5-1c0.8-0.2,1.6,0.1,2.2,0.5c0.4-0.6,1-1.2,2-1.4
			c0.8-0.2,1.6,0,2.2,0.5c0.4,0.4,0.7,0.9,0.9,1.9l0.6,2.9l-1.2,0.2l-0.6-3.1c-0.1-0.6-0.3-0.9-0.6-1.1c-0.3-0.3-0.7-0.4-1.2-0.3
			c-0.8,0.2-1.3,0.7-1.6,1.2c0.1,0.3,0.2,0.6,0.3,1l0.6,2.9l-1.2,0.2l-0.6-3.1c-0.1-0.6-0.3-0.9-0.6-1.1c-0.3-0.3-0.8-0.4-1.2-0.3
			c-0.7,0.1-1.2,0.7-1.4,1.1l0.8,3.9l-1.2,0.2l-1.2-5.7L125.5,97.5z"/>
	</g>
</g>
<polyline fill="#5ABCC9" points="-84.5,193.2 189.4,137.2 191.9,149.4 -82.1,205.3 "/>
<polyline fill="#5ABCC9" points="601.5,-159.4 645.7,56.7 265.2,134.4 221.1,-81.7 "/>
<path fill="#0D323F" d="M507.5-35.6c1.2,0.8,2,2,2.6,4.6l2.8,13.9l7-1.4l-2.7-13.3c-0.9-4.5-2.4-6.9-4.6-8.6"/>
<path fill="#0D323F" d="M488.7-39.4l5.3,26.1l7-1.4l-3.5-17c0.7-1.5,2.7-3.9,5.7-4.5"/>
<path fill="#0D323F" d="M455.5-32.6l3.5,17c-0.7,1.4-2.5,3.9-5.4,4.5c-1.4,0.3-2.9,0.2-4.3-0.8c-1-0.8-1.7-1.8-2.2-4.2l-2.9-14.1
	l-7,1.4L440-15c0.8,3.9,2.3,6.4,4.4,8.1c2.6,2.1,6.1,3.1,9.8,2.4c2.4-0.5,4.6-1.7,6.3-3.8l0.4,1.9l0.3-0.1l6.7-1.4L462.5-34"/>
<path fill="#0D323F" d="M415.6-32.1l1.5,7.3l-3.1,0.6l1.2,5.9l3.1-0.6l1.9,9.2c0.8,3.7,1.8,5.9,3.5,7.4c2.3,2,5.6,2.8,9.8,1.9
	c1.3-0.3,3.4-0.9,4.3-1.4l-2.3-5.7c-0.5,0.2-1.8,0.6-2.8,0.9"/>
<path fill="#0D323F" d="M432.7-6.6c-1.7,0.4-3,0.1-3.8-0.6c-0.7-0.6-1.2-1.5-1.5-3.1l-2-10l7.3-1.5l-1.2-5.9l-7.3,1.5l-1.5-7.3"/>
<path fill="#0D323F" d="M467.9-35.2l2.9,14.1c0,0.2,0.1,0.4,0.1,0.6l0,0L473.2-9l7-1.4l-2.3-11.4l0,0c-1-5,1.7-8.5,7.5-9.7l-1.4-7"
	/>
<path fill="#0D323F" d="M397.6-20.9c-2.6,0.5-4.9,1.8-6.7,3.5l-0.4-1.9l-6.5,1.3l2.8,13.6l5.4,26.4l6.5-1.3l-5.4-26.4
	c-0.8-4,1.8-7.8,5.7-8.6c4-0.8,7.8,1.8,8.6,5.7c0.8,4-1.7,7.8-5.7,8.6l-4.4,0.9l1.3,6.5l4.4-0.9c7.5-1.5,12.3-8.8,11-16.2l0-0.3
	C412.6-17.5,405.2-22.4,397.6-20.9"/>
<path fill="#0D323F" d="M377.1-27l-7.2,1.5l-0.1,0l4.6,22.4c0.7,3.4,0.2,5.7-1.1,7.5c-1.3,1.9-3.4,3.2-5.9,3.7
	c-2.5,0.5-5,0.1-6.9-1.1c-1.9-1.1-3.2-3-3.9-6.5l-4.6-22.4l-7.3,1.5l4.5,21.8c1.2,5.8,3.7,9.4,7.4,11.6c3.4,2,7.9,2.4,12.1,1.6
	c4.3-0.9,8.1-3,10.5-6.2c2.5-3.4,3.5-7.8,2.3-13.5l-3.3-16.1l0.1,0l2-6.4L377.1-27L377.1-27z"/>
<polyline fill="#FFFFFF" points="1004,-241.6 1048.1,-25.5 666.1,52.5 622,-163.6 "/>
<g>
	<g>
		<path fill="#798F9C" d="M779.6-35.6c0.3-0.3,0.8-0.8,1.6-1c0.8-0.2,1.7,0.1,2.3,0.6c0.5,0.4,0.8,0.9,1,1.9l0.6,2.8l-1.2,0.2
			l-0.6-2.9c-0.1-0.7-0.4-1-0.6-1.3c-0.3-0.3-0.8-0.4-1.3-0.3c-0.8,0.2-1.2,0.7-1.5,1.2l0.8,3.9l-1.2,0.2l-1.8-8.6l1.2-0.2
			L779.6-35.6z"/>
		<path fill="#798F9C" d="M791.7-33.1c-0.4,0.5-1,0.9-1.6,1c-0.5,0.1-1.1,0.1-1.5-0.1c-1-0.3-1.8-1.2-2-2.3
			c-0.2-1.1,0.2-2.2,0.9-2.9c0.3-0.3,0.8-0.5,1.3-0.7c0.6-0.1,1.3-0.1,1.9,0.3l-0.1-0.5l1.1-0.2l1.2,5.7l-1.1,0.2L791.7-33.1z
			 M790.9-36.5c-0.4-0.4-1.1-0.6-1.8-0.5c-1.1,0.2-1.7,1.3-1.5,2.3c0.2,1,1.2,1.7,2.3,1.5c0.6-0.1,1.1-0.5,1.4-1.1L790.9-36.5z"/>
		<path fill="#798F9C" d="M797.8-38.7c-0.1,0-0.3,0-0.5,0c-0.6,0.1-1.1,0.7-1.3,1.3l0.8,3.8l-1.2,0.2l-1.2-5.7l1.1-0.2l0.1,0.7
			c0.2-0.4,0.7-1,1.6-1.1c0.1,0,0.3-0.1,0.5-0.1L797.8-38.7z"/>
		<path fill="#798F9C" d="M799.1-43.1l1.2-0.2l1.8,8.6l-1.2,0.2L799.1-43.1z"/>
		<path fill="#798F9C" d="M808.8-36.6c-0.4,0.5-1,0.9-1.6,1c-0.5,0.1-1.1,0.1-1.5-0.1c-1-0.3-1.8-1.2-2-2.3
			c-0.2-1.1,0.2-2.2,0.9-2.9c0.3-0.3,0.8-0.5,1.3-0.7c0.6-0.1,1.3-0.1,1.9,0.3l-0.1-0.5l1.1-0.2l1.2,5.7l-1.1,0.2L808.8-36.6z
			 M808-40c-0.4-0.4-1.1-0.6-1.8-0.5c-1.1,0.2-1.7,1.3-1.5,2.3c0.2,1,1.2,1.7,2.3,1.5c0.6-0.1,1.1-0.5,1.4-1.1L808-40z"/>
		<path fill="#798F9C" d="M812.7-42.3c0.2-0.4,0.8-0.9,1.6-1c0.8-0.2,1.7,0.1,2.3,0.6c0.5,0.4,0.8,0.9,1,1.9l0.6,2.8l-1.2,0.2
			l-0.6-2.9c-0.1-0.7-0.4-1-0.6-1.3c-0.3-0.3-0.8-0.4-1.3-0.3c-0.8,0.2-1.2,0.7-1.5,1.2l0.8,3.9l-1.2,0.2l-1.2-5.7l1.1-0.2
			L812.7-42.3z"/>
		<path fill="#798F9C" d="M829.2-38.9c-0.7,0.8-1.7,1.4-2.9,1.7c-2.9,0.6-5.8-1.3-6.4-4.3c-0.6-3,1.3-5.8,4.2-6.4
			c2.8-0.6,5.5,0.9,6.1,3.8c0.3,1.7-0.1,3.3-1.7,3.6c-0.7,0.1-1.2,0-1.7-0.4c-0.2,0.3-0.6,0.9-1.5,1.1c-1.2,0.2-2.6-0.4-3-2.1
			c-0.3-1.7,0.7-2.9,1.9-3.1c0.8-0.2,1.3,0.1,1.5,0.2l-0.1-0.4l1-0.2l0.6,3c0.1,0.3,0.1,0.6,0.3,0.7c0.2,0.2,0.4,0.3,0.7,0.2
			c0.8-0.2,1-1.1,0.8-2.3c-0.5-2.2-2.5-3.5-4.9-3c-2.3,0.5-3.8,2.8-3.3,5.2c0.5,2.4,2.8,3.9,5.1,3.5c0.9-0.2,1.7-0.7,2.3-1.4
			L829.2-38.9z M826-43.8c-0.3-0.2-0.8-0.4-1.4-0.3c-0.7,0.1-1.4,0.8-1.1,1.9c0.2,1.1,1.1,1.4,1.8,1.3c0.6-0.1,0.9-0.5,1.1-0.9
			L826-43.8z"/>
		<path fill="#798F9C" d="M837-41.8c-0.2,0.1-0.5,0.2-0.9,0.3c-0.7,0.1-1.3,0-1.8-0.3c-0.4-0.3-0.6-0.8-0.8-1.4l-0.5-2.6l-1.5,0.3
			l-0.2-1l1.5-0.3l-0.3-1.6l1.2-0.2l0.3,1.6l1.8-0.4l0.2,1l-1.8,0.4l0.5,2.7c0.1,0.3,0.1,0.6,0.3,0.7c0.2,0.2,0.5,0.2,0.9,0.1
			c0.2,0,0.5-0.1,0.6-0.2L837-41.8z"/>
		<path fill="#798F9C" d="M839.3-45c0.3,0.9,1.2,1.6,2.2,1.4c0.9-0.2,1.2-0.7,1.5-1.1l0.9,0.6c-0.3,0.6-1,1.3-2.2,1.6
			c-1.7,0.3-3.2-0.7-3.6-2.4s0.6-3.2,2.2-3.6c1.6-0.3,3,0.7,3.4,2.4c0,0,0,0.1,0,0.2L839.3-45z M839.2-46l3.1-0.6
			c-0.3-0.7-1.1-1.1-1.8-0.9C839.8-47.4,839.3-46.8,839.2-46z"/>
		<path fill="#798F9C" d="M850.5-45.1c-0.4,0.5-1,0.9-1.6,1c-0.5,0.1-1.1,0.1-1.5-0.1c-1-0.3-1.8-1.2-2-2.3
			c-0.2-1.1,0.2-2.2,0.9-2.9c0.3-0.3,0.8-0.5,1.3-0.7c0.6-0.1,1.3-0.1,1.9,0.3l-0.1-0.5l1.1-0.2l1.2,5.7l-1.1,0.2L850.5-45.1z
			 M849.8-48.5c-0.4-0.4-1.1-0.6-1.8-0.5c-1.1,0.2-1.7,1.3-1.5,2.3c0.2,1,1.2,1.7,2.3,1.5c0.6-0.1,1.1-0.5,1.4-1.1L849.8-48.5z"/>
		<path fill="#798F9C" d="M854.4-51.3l0.1,0.5c0.2-0.3,0.8-0.9,1.5-1c0.8-0.2,1.6,0.1,2.2,0.5c0.4-0.6,1-1.2,2-1.4
			c0.8-0.2,1.6,0,2.2,0.5c0.4,0.4,0.7,0.9,0.9,1.9l0.6,2.9l-1.2,0.2l-0.6-3.1c-0.1-0.6-0.3-0.9-0.6-1.1c-0.3-0.3-0.7-0.4-1.2-0.3
			c-0.8,0.2-1.3,0.7-1.6,1.2c0.1,0.3,0.2,0.6,0.3,1l0.6,2.9l-1.2,0.2l-0.6-3.1c-0.1-0.6-0.3-0.9-0.6-1.1c-0.3-0.3-0.8-0.4-1.2-0.3
			c-0.7,0.1-1.2,0.7-1.4,1.1l0.8,3.9l-1.2,0.2l-1.2-5.7L854.4-51.3z"/>
		<path fill="#798F9C" d="M866.8-48.8c-0.4-0.4-0.7-0.9-0.9-1.9l-0.6-2.9l1.2-0.2l0.6,3.1c0.1,0.6,0.3,0.9,0.6,1.1
			c0.3,0.3,0.8,0.4,1.2,0.3c0.7-0.1,1.2-0.7,1.4-1.1l-0.8-3.9l1.2-0.2l1.2,5.7l-1.1,0.2l-0.1-0.5c-0.2,0.3-0.8,0.8-1.5,1
			C868.2-48.1,867.4-48.3,866.8-48.8z"/>
		<path fill="#798F9C" d="M876.2-46.8l-1.2,0.2l-1.8-8.6l1.1-0.2l0.1,0.5c0.4-0.6,1-0.9,1.7-1c0.5-0.1,1-0.1,1.5,0.1
			c1,0.3,1.8,1.2,2,2.3c0.2,1.1-0.2,2.2-0.9,2.9c-0.3,0.3-0.8,0.6-1.4,0.7c-0.7,0.1-1.3,0-1.9-0.3L876.2-46.8z M875.3-51.5
			c0.5,0.4,1.2,0.6,1.7,0.5c1.1-0.2,1.7-1.3,1.5-2.3c-0.2-1-1.1-1.7-2.2-1.5c-0.7,0.1-1.2,0.6-1.5,1.1L875.3-51.5z"/>
		<path fill="#798F9C" d="M886-51.8c-0.2,0.1-0.5,0.2-0.9,0.3c-0.7,0.1-1.3,0-1.8-0.3c-0.4-0.3-0.6-0.8-0.8-1.4l-0.5-2.6l-1.5,0.3
			l-0.2-1l1.5-0.3l-0.3-1.6l1.2-0.2l0.3,1.6l1.8-0.4l0.2,1l-1.8,0.4l0.5,2.7c0.1,0.3,0.1,0.6,0.3,0.7c0.2,0.2,0.5,0.2,0.9,0.1
			c0.2,0,0.5-0.1,0.6-0.2L886-51.8z"/>
		<path fill="#798F9C" d="M888.4-53.2c-0.4-0.4-0.7-0.9-0.9-1.9l-0.6-2.9l1.2-0.2l0.6,3.1c0.1,0.6,0.3,0.9,0.6,1.1
			c0.3,0.3,0.8,0.4,1.2,0.3c0.7-0.1,1.2-0.7,1.4-1.1l-0.8-3.9l1.2-0.2l1.2,5.7l-1.1,0.2l-0.1-0.5c-0.2,0.3-0.8,0.8-1.5,1
			C889.8-52.5,889-52.7,888.4-53.2z"/>
		<path fill="#798F9C" d="M898.3-59.2c-0.1,0-0.3,0-0.5,0c-0.6,0.1-1.1,0.7-1.3,1.3l0.8,3.8l-1.2,0.2l-1.2-5.7l1.1-0.2l0.1,0.7
			c0.2-0.4,0.7-1,1.6-1.1c0.1,0,0.3-0.1,0.5-0.1L898.3-59.2z"/>
		<path fill="#798F9C" d="M901.4-60.4c0.2-0.4,0.8-0.9,1.6-1c0.8-0.2,1.7,0.1,2.3,0.6c0.5,0.4,0.8,0.9,1,1.9l0.6,2.8l-1.2,0.2
			l-0.6-2.9c-0.1-0.7-0.4-1-0.6-1.3c-0.3-0.3-0.8-0.4-1.3-0.3c-0.8,0.2-1.2,0.7-1.5,1.2l0.8,3.9l-1.2,0.2l-1.2-5.7l1.1-0.2
			L901.4-60.4z"/>
		<path fill="#798F9C" d="M910.2-58.4c0.5-0.1,0.9,0.2,1,0.7s-0.2,0.9-0.7,1s-0.9-0.2-1-0.7C909.5-57.9,909.8-58.3,910.2-58.4z"/>
		<path fill="#798F9C" d="M919-59.8c-0.3,0.9-1.2,1.6-2.3,1.9c-1.8,0.4-3.3-0.7-3.7-2.4s0.7-3.2,2.4-3.6c1-0.2,2,0.1,2.7,0.7
			l-0.7,0.9c-0.4-0.4-1-0.7-1.8-0.5c-1,0.2-1.7,1.2-1.4,2.3c0.2,1.1,1.2,1.7,2.3,1.5c0.8-0.2,1.2-0.7,1.5-1.2L919-59.8z"/>
		<path fill="#798F9C" d="M922.5-65.4c1.7-0.3,3.2,0.7,3.6,2.4c0.3,1.7-0.7,3.2-2.3,3.6c-1.7,0.3-3.2-0.7-3.6-2.4
			C919.8-63.5,920.8-65,922.5-65.4z M923.5-60.5c1.1-0.2,1.6-1.2,1.4-2.3c-0.2-1-1.1-1.7-2.2-1.5c-1.1,0.2-1.6,1.2-1.4,2.3
			C921.5-61,922.4-60.3,923.5-60.5z"/>
		<path fill="#798F9C" d="M928.8-66.5l0.1,0.5c0.2-0.3,0.8-0.9,1.5-1c0.8-0.2,1.6,0.1,2.2,0.5c0.4-0.6,1-1.2,2-1.4
			c0.8-0.2,1.6,0,2.2,0.5c0.4,0.4,0.7,0.9,0.9,1.9l0.6,2.9l-1.2,0.2l-0.6-3.1c-0.1-0.6-0.3-0.9-0.6-1.1c-0.3-0.3-0.7-0.4-1.2-0.3
			c-0.8,0.2-1.3,0.7-1.6,1.2c0.1,0.3,0.2,0.6,0.3,1l0.6,2.9l-1.2,0.2l-0.6-3.1c-0.1-0.6-0.3-0.9-0.6-1.1c-0.3-0.3-0.8-0.4-1.2-0.3
			c-0.7,0.1-1.2,0.7-1.4,1.1l0.8,3.9l-1.2,0.2l-1.2-5.7L928.8-66.5z"/>
	</g>
</g>
<rect x="717.2" y="1" transform="matrix(0.9798 -0.2001 0.2001 0.9798 15.8946 171.6568)" fill="#5ABCC9" width="279.6" height="12.4"/>
<polyline fill="#5ABCC9" points="1449,-107.4 1068.5,-29.7 1024.4,-245.8 "/>
<polyline fill="#5ABCC9" points="-131.2,238.3 249.3,160.6 293.4,376.7 -87.1,454.4 "/>
<g>
	<path fill="#0D323F" d="M150.4,277.2c-2.8,0.6-5,2-6.6,3.9l-0.4-1.9l-0.3,0.1l-6.7,1.4l5.3,26.1l7-1.4l-3.5-17
		c0.7-1.5,2.7-3.9,5.7-4.5c1.6-0.3,3.1-0.1,4.2,0.7c1.2,0.8,2,2,2.6,4.6l2.8,13.9l7-1.4l-2.7-13.3c-0.9-4.5-2.4-6.9-4.6-8.6
		C157.7,277.4,154,276.4,150.4,277.2"/>
	<path fill="#0D323F" d="M106.7,304.4c-0.7,1.4-2.5,3.9-5.4,4.5c-1.4,0.3-2.9,0.2-4.3-0.8c-1-0.8-1.7-1.8-2.2-4.2l-2.9-14.1l-7,1.4
		l2.8,13.8c0.8,3.9,2.3,6.4,4.4,8.1c2.6,2.1,6.1,3.1,9.8,2.4c2.4-0.5,4.6-1.7,6.3-3.8l0.4,1.9l0.3-0.1l6.7-1.4l-5.3-26.1l-7,1.4
		L106.7,304.4z"/>
	<path fill="#0D323F" d="M80.4,313.4c-1.7,0.4-3,0.1-3.8-0.6c-0.7-0.6-1.2-1.5-1.5-3.1l-2-10l7.3-1.5l-1.2-5.9l-7.3,1.5l-1.5-7.3
		l-7,1.4l1.5,7.3l-3.1,0.6l1.2,5.9l3.1-0.6l1.9,9.2c0.8,3.7,1.8,5.9,3.5,7.4c2.3,2,5.6,2.8,9.8,1.9c1.3-0.3,3.4-0.9,4.3-1.4
		l-2.3-5.7C82.8,312.7,81.4,313.2,80.4,313.4"/>
	<path fill="#0D323F" d="M122.7,283.4l-7,1.4l2.9,14.1c0,0.2,0.1,0.4,0.1,0.6l0,0L121,311l7-1.4l-2.3-11.4l0,0c-1-5,1.7-8.5,7.5-9.7
		l-1.4-7.1c-3.7,0.8-6.6,2.2-8.7,4.1L122.7,283.4z"/>
	<path fill="#0D323F" d="M45.3,299.1c-2.6,0.5-4.9,1.8-6.7,3.5l-0.4-1.9l-6.5,1.3l2.8,13.6l5.4,26.4l6.5-1.3L41,314.3
		c-0.8-4,1.8-7.8,5.7-8.6c4-0.8,7.8,1.8,8.6,5.7c0.8,3.9-1.7,7.8-5.7,8.6l-4.4,0.9l1.3,6.5l4.4-0.9c7.5-1.5,12.3-8.8,11-16.2l0-0.3
		C60.3,302.5,52.9,297.6,45.3,299.1"/>
	<path fill="#0D323F" d="M24.9,293l-7.2,1.5l-0.1,0l4.6,22.4c0.7,3.4,0.2,5.7-1.1,7.5c-1.3,1.9-3.4,3.2-5.9,3.7
		c-2.5,0.5-5,0.1-6.9-1.1c-1.9-1.1-3.2-3.1-3.9-6.5l-4.6-22.4l-7.3,1.5l4.5,21.8c1.2,5.8,3.7,9.4,7.4,11.6c3.4,2,7.9,2.4,12.1,1.6
		c4.3-0.9,8.1-3,10.5-6.2c2.5-3.4,3.5-7.8,2.3-13.6L26,298.7l0.1,0l2-6.4L24.9,293L24.9,293z"/>
</g>
<g>
	
		<rect x="287.8" y="115.2" transform="matrix(0.9798 -0.2001 0.2001 0.9798 -35.3578 101.174)" fill="#FFFFFF" width="389.9" height="220.6"/>
	<g>
		<path fill="#0C323F" d="M421.3,204.8l-7.4,1.5l1.4,6.7l-2.9,0.6l-3-14.9l2.9-0.6l1.2,5.6l7.4-1.5l-1.2-5.6l2.9-0.6l3,14.9
			l-2.9,0.6L421.3,204.8z"/>
		<path fill="#0C323F" d="M438.7,208.2l-2.7,0.5l-0.2-0.8c-0.7,0.9-1.6,1.4-2.7,1.6c-1.5,0.3-3.1-0.1-4.2-0.9
			c-1-0.8-1.8-1.9-2.1-3.3c-0.6-3,1.2-5.8,4-6.4c1.2-0.2,2.3-0.1,3.2,0.4l-0.2-0.8l2.7-0.5L438.7,208.2z M434.6,202.1
			c-0.7-0.6-1.8-1-2.8-0.8c-1.6,0.3-2.4,1.9-2.1,3.4c0.3,1.6,1.7,2.6,3.3,2.3c1-0.2,1.9-0.9,2.2-1.8L434.6,202.1z"/>
		<path fill="#0C323F" d="M446.5,198.4c-0.2,0-0.6,0-1,0.1c-1.2,0.2-2,1.3-2.2,2l1.3,6.5l-2.8,0.6l-2.1-10.3l2.7-0.5l0.2,1
			c0.5-0.9,1.5-1.6,2.7-1.9c0.4-0.1,0.6-0.1,1-0.1L446.5,198.4z"/>
		<path fill="#0C323F" d="M453.2,205.2l-2.8,0.6l-3.1-15.1l2.8-0.6L453.2,205.2z"/>
		<path fill="#0C323F" d="M466.2,202.6l-2.7,0.5l-0.2-0.8c-0.7,0.9-1.6,1.4-2.7,1.6c-1.5,0.3-3.1-0.1-4.2-0.9
			c-1-0.8-1.8-1.9-2.1-3.3c-0.6-3,1.2-5.8,4-6.4c1.2-0.2,2.3-0.1,3.2,0.4l-0.2-0.8l2.7-0.5L466.2,202.6z M462.1,196.4
			c-0.7-0.6-1.8-1-2.8-0.8c-1.6,0.3-2.4,1.9-2.1,3.4c0.3,1.6,1.7,2.6,3.3,2.3c1-0.2,1.9-0.9,2.2-1.8L462.1,196.4z"/>
		<path fill="#0C323F" d="M469.3,201.9l-2.1-10.3l2.7-0.5l0.2,0.8c0.7-0.8,1.6-1.4,2.7-1.6c1.4-0.3,2.9,0.1,3.9,0.9
			c0.8,0.7,1.4,1.6,1.8,3.4l1.1,5.3l-2.8,0.6l-1.1-5.5c-0.2-1-0.6-1.5-1-1.8c-0.4-0.3-1-0.4-1.7-0.3c-1.2,0.2-2,1.2-2.2,1.8l1.4,6.7
			L469.3,201.9z"/>
		<path fill="#0C323F" d="M493.2,190l1.4,6.7l-2.9,0.6l-1.4-6.7l-6.8-7.1l3.3-0.7l4.3,4.6l2.2-5.9l3.3-0.7L493.2,190z"/>
		<path fill="#0C323F" d="M509,183.1l2.1,10.3l-2.7,0.5l-0.2-0.8c-0.7,0.9-1.6,1.4-2.6,1.6c-1.4,0.3-2.8-0.1-3.8-0.9
			c-0.8-0.7-1.4-1.7-1.7-3.2l-1.1-5.5l2.8-0.6l1.1,5.6c0.2,0.9,0.5,1.4,0.9,1.7c0.5,0.4,1.2,0.4,1.7,0.3c1.2-0.2,1.9-1.2,2.1-1.8
			l-1.4-6.7L509,183.1z"/>
	</g>
	<g>
		<path fill="#5ABCC9" d="M417.8,233.7l0.8,3.9l-1.8,0.4l-2-9.6l3.6-0.7c1.2-0.2,2-0.1,2.7,0.4c0.6,0.4,1,1.1,1.2,1.8
			c0.2,0.8,0,1.5-0.3,2.1c-0.4,0.7-1.1,1.1-2.3,1.4L417.8,233.7z M419.1,231.7c0.6-0.1,0.9-0.3,1.1-0.6c0.2-0.3,0.2-0.6,0.1-0.9
			c-0.1-0.3-0.2-0.6-0.5-0.8c-0.3-0.2-0.6-0.3-1.2-0.1l-1.7,0.3l0.5,2.4L419.1,231.7z"/>
		<path fill="#5ABCC9" d="M428.6,230.3c-0.1,0-0.4,0-0.7,0.1c-0.8,0.2-1.3,0.8-1.4,1.3l0.9,4.2l-1.8,0.4l-1.4-6.6l1.7-0.3l0.1,0.7
			c0.3-0.6,1-1,1.8-1.2c0.3-0.1,0.4-0.1,0.6-0.1L428.6,230.3z"/>
		<path fill="#5ABCC9" d="M430.7,224.6c0.6-0.1,1.3,0.3,1.4,0.9c0.1,0.6-0.3,1.2-0.9,1.4s-1.3-0.3-1.4-0.9
			C429.6,225.3,430,224.7,430.7,224.6z M433.6,234.5l-1.8,0.4l-1.4-6.6l1.8-0.4L433.6,234.5z"/>
		<path fill="#5ABCC9" d="M436.4,234l-1.4-6.6l1.7-0.3l0.1,0.5c0.4-0.5,1-0.9,1.7-1.1c0.9-0.2,1.8,0.1,2.5,0.6
			c0.5,0.4,0.9,1.1,1.2,2.2l0.7,3.4l-1.8,0.4l-0.7-3.5c-0.1-0.7-0.4-1-0.7-1.2c-0.3-0.2-0.7-0.2-1.1-0.2c-0.8,0.2-1.3,0.8-1.4,1.2
			l0.9,4.3L436.4,234z"/>
		<path fill="#5ABCC9" d="M451.3,229.5c-0.6,1.2-1.5,1.9-2.7,2.1c-2.1,0.4-3.9-0.8-4.3-2.7c-0.4-1.9,0.8-3.8,2.9-4.2
			c1.2-0.2,2.3,0.1,3.1,0.8l-1,1.4c-0.5-0.4-1.1-0.6-1.7-0.5c-1,0.2-1.6,1.2-1.4,2.2c0.2,1,1.1,1.7,2.2,1.4c0.7-0.1,1.2-0.7,1.4-1.2
			L451.3,229.5z"/>
		<path fill="#5ABCC9" d="M452.4,220.1c0.6-0.1,1.3,0.3,1.4,0.9c0.1,0.6-0.3,1.2-0.9,1.4c-0.6,0.1-1.3-0.3-1.4-0.9
			C451.3,220.8,451.8,220.2,452.4,220.1z M455.4,230.1l-1.8,0.4l-1.4-6.6l1.8-0.4L455.4,230.1z"/>
		<path fill="#5ABCC9" d="M456.7,222.9l1.7-0.3l0.1,0.5c0.4-0.5,1.1-0.9,1.8-1.1c1.8-0.4,3.6,0.8,4,2.8c0.2,0.9,0,1.8-0.4,2.5
			c-0.4,0.8-1.3,1.4-2.3,1.6c-0.7,0.1-1.3,0.1-1.9-0.2l0.8,3.8l-1.8,0.4L456.7,222.9z M459.4,226.8c0.4,0.4,1.1,0.6,1.8,0.5
			c1-0.2,1.6-1.1,1.4-2.2c-0.2-1-1-1.7-2.1-1.5c-0.7,0.1-1.2,0.6-1.5,1.2L459.4,226.8z"/>
		<path fill="#5ABCC9" d="M473.6,226.4l-1.7,0.3l-0.1-0.5c-0.5,0.6-1,0.9-1.7,1c-1,0.2-2,0-2.7-0.6c-0.6-0.5-1.1-1.2-1.3-2.2
			c-0.4-2,0.7-3.8,2.6-4.1c0.8-0.2,1.5,0,2.1,0.3l-0.1-0.5l1.7-0.3L473.6,226.4z M470.9,222.4c-0.5-0.4-1.1-0.6-1.8-0.5
			c-1,0.2-1.5,1.2-1.3,2.2c0.2,1,1.1,1.7,2.1,1.4c0.7-0.1,1.2-0.6,1.4-1.1L470.9,222.4z"/>
		<path fill="#5ABCC9" d="M478.1,225.4l-1.8,0.4l-2-9.7l1.8-0.4L478.1,225.4z"/>
	</g>
	<g>
		<g>
			<path fill="#798F9C" d="M421.5,265.7l3.2-6.6l0.9-0.2l1.1,5.3l1.3-0.3l0.2,1.2l-1.3,0.3l0.4,2.1l-1.2,0.2l-0.4-2.1l-4,0.8
				L421.5,265.7z M425.4,264.5l-0.6-2.9l-1.7,3.3L425.4,264.5z"/>
			<path fill="#798F9C" d="M431.2,257.7c2.1-0.4,3.3,1.4,3.8,3.8s0.1,4.5-2,5c-2.1,0.4-3.3-1.4-3.8-3.8S429,258.1,431.2,257.7z
				 M431.4,258.9c-1.3,0.3-1.4,1.9-1,3.6c0.3,1.7,1,3.2,2.4,2.9c1.3-0.3,1.4-1.9,1-3.6C433.4,260,432.7,258.6,431.4,258.9z"/>
			<path fill="#798F9C" d="M437.2,262.8c-0.2-1,0.2-1.9,0.9-2.5c-0.5-0.2-1-0.8-1.1-1.4c-0.3-1.2,0.6-2.5,1.9-2.7
				c1.4-0.3,2.6,0.5,2.8,1.8c0.1,0.6-0.1,1.3-0.5,1.7c0.9,0.3,1.6,1,1.8,2c0.3,1.5-0.7,3-2.4,3.3
				C439.1,265.2,437.5,264.3,437.2,262.8z M438.2,258.6c0.1,0.6,0.7,1,1.4,0.9c0.7-0.1,1.1-0.7,0.9-1.3c-0.1-0.6-0.7-1-1.4-0.9
				S438.1,258,438.2,258.6z M438.4,262.5c0.2,0.9,1,1.4,2,1.2s1.6-1,1.4-1.9c-0.2-0.9-1-1.4-2-1.2
				C438.9,260.8,438.3,261.7,438.4,262.5z"/>
			<path fill="#798F9C" d="M448.7,259.4l0.2,1l-3.7,0.7l-0.2-1L448.7,259.4z"/>
			<path fill="#798F9C" d="M451.9,254.8l0.1,1.8c0.2-0.1,0.5-0.3,0.8-0.3c1.7-0.3,3.2,0.7,3.5,2.3c0.3,1.6-0.6,3.2-2.3,3.5
				c-1,0.2-2.1-0.1-2.7-0.7l0.8-0.9c0.4,0.4,1.1,0.6,1.7,0.5c1-0.2,1.5-1.2,1.3-2.1c-0.2-1-1-1.6-2.1-1.4c-0.5,0.1-0.9,0.4-1.2,0.8
				l-0.9,0l-0.3-4.4l4-0.8l0.2,1.2L451.9,254.8z"/>
			<path fill="#798F9C" d="M457.9,258.3l3.2-6.6l0.9-0.2l1.1,5.3l1.3-0.3l0.2,1.2l-1.3,0.3l0.4,2.1l-1.2,0.2l-0.4-2.1l-4,0.8
				L457.9,258.3z M461.9,257.1l-0.6-2.9l-1.7,3.3L461.9,257.1z"/>
			<path fill="#798F9C" d="M465.4,256.7l3.2-6.6l0.9-0.2l1.1,5.3l1.3-0.3l0.2,1.2l-1.3,0.3l0.4,2.1l-1.2,0.2l-0.4-2.1l-4,0.8
				L465.4,256.7z M469.4,255.5l-0.6-2.9l-1.7,3.3L469.4,255.5z"/>
			<path fill="#798F9C" d="M477.2,253.6l0.2,1l-3.7,0.7l-0.2-1L477.2,253.6z"/>
			<path fill="#798F9C" d="M481.3,247.5c2.1-0.4,3.3,1.4,3.8,3.8s0.1,4.5-2,5c-2.1,0.4-3.3-1.4-3.8-3.8S479.2,247.9,481.3,247.5z
				 M481.6,248.6c-1.3,0.3-1.4,1.9-1,3.6c0.3,1.7,1,3.2,2.4,2.9c1.3-0.3,1.4-1.9,1-3.6C483.6,249.8,482.9,248.3,481.6,248.6z"/>
			<path fill="#798F9C" d="M486.7,248.9l-0.2-1.2l1.8-1.6l0.9-0.2l1.7,8.5l-1.2,0.2l-1.4-7L486.7,248.9z"/>
			<path fill="#798F9C" d="M493.6,253.9l2.1-8.1l-3.9,0.8l-0.2-1.2l5.4-1.1l0.2,0.8l-2.2,8.5L493.6,253.9z"/>
			<path fill="#798F9C" d="M499.9,250c-0.2-1,0.2-1.9,0.9-2.5c-0.5-0.2-1-0.8-1.1-1.4c-0.3-1.2,0.6-2.5,1.9-2.7s2.6,0.5,2.8,1.8
				c0.1,0.6-0.1,1.3-0.5,1.7c0.9,0.3,1.6,1,1.8,2c0.3,1.5-0.7,3-2.4,3.3C501.7,252.4,500.2,251.5,499.9,250z M500.9,245.8
				c0.1,0.6,0.7,1,1.4,0.9c0.7-0.1,1.1-0.7,0.9-1.3c-0.1-0.6-0.7-1-1.4-0.9S500.7,245.2,500.9,245.8z M501.1,249.7
				c0.2,0.9,1,1.4,2,1.2s1.6-1,1.4-1.9c-0.2-0.9-1-1.4-2-1.2C501.5,248,500.9,248.9,501.1,249.7z"/>
		</g>
	</g>
	<g>
		<g>
			<path fill="#798F9C" d="M427.4,284.5c0.3-0.3,0.8-0.8,1.6-1c0.8-0.2,1.7,0.1,2.3,0.6c0.5,0.4,0.8,0.9,1,1.9l0.6,2.8l-1.2,0.2
				l-0.6-2.9c-0.1-0.7-0.4-1-0.6-1.3c-0.3-0.3-0.8-0.4-1.3-0.3c-0.8,0.2-1.2,0.7-1.5,1.2l0.8,3.9l-1.2,0.2l-1.8-8.6l1.2-0.2
				L427.4,284.5z"/>
			<path fill="#798F9C" d="M439.4,286.9c-0.4,0.5-1,0.9-1.6,1c-0.5,0.1-1.1,0.1-1.5-0.1c-1-0.3-1.8-1.2-2-2.3
				c-0.2-1.1,0.2-2.2,0.9-2.9c0.3-0.3,0.8-0.5,1.3-0.7c0.6-0.1,1.3-0.1,1.9,0.3l-0.1-0.5l1.1-0.2l1.2,5.7l-1.1,0.2L439.4,286.9z
				 M438.7,283.5c-0.4-0.4-1.1-0.6-1.8-0.5c-1.1,0.2-1.7,1.3-1.5,2.3c0.2,1,1.2,1.7,2.3,1.5c0.6-0.1,1.1-0.5,1.4-1.1L438.7,283.5z"
				/>
			<path fill="#798F9C" d="M445.5,281.3c-0.1,0-0.3,0-0.5,0c-0.6,0.1-1.1,0.7-1.3,1.3l0.8,3.8l-1.2,0.2l-1.2-5.7l1.1-0.2l0.1,0.7
				c0.2-0.4,0.7-1,1.6-1.1c0.1,0,0.3-0.1,0.5-0.1L445.5,281.3z"/>
			<path fill="#798F9C" d="M446.8,276.9l1.2-0.2l1.8,8.6l-1.2,0.2L446.8,276.9z"/>
			<path fill="#798F9C" d="M456.5,283.4c-0.4,0.5-1,0.9-1.6,1c-0.5,0.1-1.1,0.1-1.5-0.1c-1-0.3-1.8-1.2-2-2.3s0.2-2.2,0.9-2.9
				c0.3-0.3,0.8-0.5,1.3-0.7c0.6-0.1,1.3-0.1,1.9,0.3l-0.1-0.5l1.1-0.2l1.2,5.7l-1.1,0.2L456.5,283.4z M455.8,280
				c-0.4-0.4-1.1-0.6-1.8-0.5c-1.1,0.2-1.7,1.3-1.5,2.3c0.2,1,1.2,1.7,2.3,1.5c0.6-0.1,1.1-0.5,1.4-1.1L455.8,280z"/>
			<path fill="#798F9C" d="M460.5,277.7c0.2-0.4,0.8-0.9,1.6-1c0.8-0.2,1.7,0.1,2.3,0.6c0.5,0.4,0.8,0.9,1,1.9l0.6,2.8l-1.2,0.2
				l-0.6-2.9c-0.1-0.7-0.4-1-0.6-1.3c-0.3-0.3-0.8-0.4-1.3-0.3c-0.8,0.2-1.2,0.7-1.5,1.2l0.8,3.9l-1.2,0.2l-1.2-5.7l1.1-0.2
				L460.5,277.7z"/>
			<path fill="#798F9C" d="M476.9,281.1c-0.7,0.8-1.7,1.4-2.9,1.7c-2.9,0.6-5.8-1.3-6.4-4.3c-0.6-3,1.3-5.8,4.2-6.4
				c2.8-0.6,5.6,0.9,6.1,3.8c0.3,1.7-0.1,3.3-1.7,3.6c-0.7,0.1-1.2,0-1.7-0.4c-0.2,0.3-0.6,0.9-1.5,1.1c-1.2,0.2-2.6-0.4-3-2.1
				c-0.3-1.7,0.7-2.9,1.9-3.1c0.8-0.2,1.3,0.1,1.5,0.2l-0.1-0.4l1-0.2l0.6,3c0.1,0.3,0.1,0.6,0.3,0.7c0.2,0.2,0.4,0.3,0.7,0.2
				c0.8-0.2,1-1.1,0.8-2.3c-0.5-2.2-2.5-3.5-4.9-3c-2.3,0.5-3.8,2.8-3.3,5.2c0.5,2.4,2.8,3.9,5.1,3.5c0.9-0.2,1.7-0.7,2.3-1.4
				L476.9,281.1z M473.8,276.2c-0.3-0.2-0.8-0.4-1.4-0.3c-0.7,0.1-1.4,0.8-1.1,1.9c0.2,1.1,1.1,1.4,1.8,1.3c0.6-0.1,0.9-0.5,1.1-0.9
				L473.8,276.2z"/>
			<path fill="#798F9C" d="M484.8,278.2c-0.2,0.1-0.5,0.2-0.9,0.3c-0.7,0.1-1.3,0-1.8-0.3c-0.4-0.3-0.6-0.8-0.8-1.4l-0.5-2.6
				l-1.5,0.3l-0.2-1l1.5-0.3l-0.3-1.6l1.2-0.2l0.3,1.6l1.8-0.4l0.2,1l-1.8,0.4l0.5,2.7c0.1,0.3,0.1,0.6,0.3,0.7
				c0.2,0.2,0.5,0.2,0.9,0.1c0.2,0,0.5-0.1,0.6-0.2L484.8,278.2z"/>
			<path fill="#798F9C" d="M487,275c0.3,0.9,1.2,1.6,2.2,1.3c0.9-0.2,1.2-0.7,1.5-1.1l0.9,0.6c-0.3,0.6-1,1.3-2.2,1.6
				c-1.7,0.3-3.2-0.7-3.6-2.4c-0.4-1.7,0.6-3.2,2.2-3.6c1.6-0.3,3,0.7,3.4,2.4c0,0,0,0.1,0,0.2L487,275z M486.9,274l3.1-0.6
				c-0.3-0.7-1.1-1.1-1.8-0.9C487.6,272.6,487,273.2,486.9,274z"/>
			<path fill="#798F9C" d="M498.3,274.9c-0.4,0.5-1,0.9-1.6,1c-0.5,0.1-1.1,0.1-1.5-0.1c-1-0.3-1.8-1.2-2-2.3s0.2-2.2,0.9-2.9
				c0.3-0.3,0.8-0.5,1.3-0.7c0.6-0.1,1.3-0.1,1.9,0.3l-0.1-0.5l1.1-0.2l1.2,5.7l-1.1,0.2L498.3,274.9z M497.5,271.5
				c-0.4-0.4-1.1-0.6-1.8-0.5c-1.1,0.2-1.7,1.3-1.5,2.3c0.2,1,1.2,1.7,2.3,1.5c0.6-0.1,1.1-0.5,1.4-1.1L497.5,271.5z"/>
			<path fill="#798F9C" d="M502.1,268.7l0.1,0.5c0.2-0.3,0.8-0.9,1.5-1c0.8-0.2,1.6,0.1,2.2,0.5c0.4-0.6,1-1.2,2-1.4
				c0.8-0.2,1.6,0,2.2,0.5c0.4,0.4,0.7,0.9,0.9,1.9l0.6,2.9l-1.2,0.2l-0.6-3.1c-0.1-0.6-0.3-0.9-0.6-1.1c-0.3-0.2-0.7-0.4-1.2-0.3
				c-0.8,0.2-1.3,0.7-1.6,1.2c0.1,0.3,0.2,0.6,0.3,1l0.6,2.9l-1.2,0.2l-0.6-3.1c-0.1-0.6-0.3-0.9-0.6-1.1c-0.3-0.2-0.8-0.4-1.2-0.3
				c-0.7,0.1-1.2,0.7-1.4,1.1l0.8,3.9l-1.2,0.2l-1.2-5.7L502.1,268.7z"/>
			<path fill="#798F9C" d="M514.5,271.2c-0.4-0.4-0.7-0.9-0.9-1.9l-0.6-2.9l1.2-0.2l0.6,3.1c0.1,0.6,0.3,0.9,0.6,1.1
				c0.3,0.3,0.8,0.4,1.2,0.3c0.7-0.1,1.2-0.7,1.4-1.1l-0.8-3.9l1.2-0.2l1.2,5.7l-1.1,0.2l-0.1-0.5c-0.2,0.3-0.8,0.8-1.5,1
				C515.9,271.9,515.1,271.7,514.5,271.2z"/>
			<path fill="#798F9C" d="M524,273.2l-1.2,0.2l-1.8-8.6l1.1-0.2l0.1,0.5c0.4-0.6,1-0.9,1.7-1c0.5-0.1,1-0.1,1.5,0.1
				c1,0.3,1.8,1.2,2,2.3s-0.2,2.2-0.9,2.9c-0.3,0.3-0.8,0.6-1.4,0.7c-0.7,0.1-1.3,0-1.9-0.3L524,273.2z M523,268.5
				c0.5,0.4,1.2,0.6,1.7,0.5c1.1-0.2,1.7-1.3,1.5-2.3c-0.2-1-1.1-1.7-2.2-1.5c-0.7,0.1-1.2,0.6-1.5,1.1L523,268.5z"/>
			<path fill="#798F9C" d="M533.7,268.2c-0.2,0.1-0.5,0.2-0.9,0.3c-0.7,0.1-1.3,0-1.8-0.3c-0.4-0.3-0.6-0.8-0.8-1.4l-0.5-2.6
				l-1.5,0.3l-0.2-1l1.5-0.3l-0.3-1.6l1.2-0.2l0.3,1.6l1.8-0.4l0.2,1l-1.8,0.4l0.5,2.7c0.1,0.3,0.1,0.6,0.3,0.7
				c0.2,0.2,0.5,0.2,0.9,0.1c0.2,0,0.5-0.1,0.6-0.2L533.7,268.2z"/>
			<path fill="#798F9C" d="M536.1,266.8c-0.4-0.4-0.7-0.9-0.9-1.9l-0.6-2.9l1.2-0.2l0.6,3.1c0.1,0.6,0.3,0.9,0.6,1.1
				c0.3,0.3,0.8,0.4,1.2,0.3c0.7-0.1,1.2-0.7,1.4-1.1l-0.8-3.9l1.2-0.2l1.2,5.7l-1.1,0.2l-0.1-0.5c-0.2,0.3-0.8,0.8-1.5,1
				C537.5,267.5,536.7,267.3,536.1,266.8z"/>
			<path fill="#798F9C" d="M546,260.8c-0.1,0-0.3,0-0.5,0c-0.6,0.1-1.1,0.7-1.3,1.3l0.8,3.8l-1.2,0.2l-1.2-5.7l1.1-0.2l0.1,0.7
				c0.2-0.4,0.7-1,1.6-1.1c0.1,0,0.3-0.1,0.5-0.1L546,260.8z"/>
			<path fill="#798F9C" d="M549.2,259.6c0.2-0.4,0.8-0.8,1.6-1c0.8-0.2,1.7,0.1,2.3,0.6c0.5,0.4,0.8,0.9,1,1.9l0.6,2.8l-1.2,0.2
				l-0.6-2.9c-0.1-0.7-0.4-1-0.6-1.3c-0.3-0.3-0.8-0.4-1.3-0.3c-0.8,0.2-1.2,0.7-1.5,1.2l0.8,3.9l-1.2,0.2l-1.2-5.7l1.1-0.2
				L549.2,259.6z"/>
			<path fill="#798F9C" d="M558,261.6c0.5-0.1,0.9,0.2,1,0.7c0.1,0.5-0.2,0.9-0.7,1c-0.5,0.1-0.9-0.2-1-0.7
				C557.2,262.1,557.5,261.7,558,261.6z"/>
			<path fill="#798F9C" d="M566.8,260.2c-0.3,0.9-1.2,1.6-2.3,1.9c-1.8,0.4-3.3-0.7-3.7-2.4s0.7-3.2,2.4-3.6c1-0.2,2,0.1,2.7,0.7
				l-0.7,0.9c-0.4-0.4-1-0.7-1.8-0.5c-1,0.2-1.7,1.2-1.4,2.3c0.2,1.1,1.2,1.7,2.3,1.5c0.8-0.2,1.2-0.7,1.5-1.2L566.8,260.2z"/>
			<path fill="#798F9C" d="M570.2,254.6c1.7-0.3,3.2,0.7,3.6,2.4c0.3,1.7-0.7,3.2-2.3,3.6c-1.7,0.3-3.2-0.7-3.6-2.4
				C567.5,256.5,568.5,255,570.2,254.6z M571.2,259.5c1.1-0.2,1.6-1.2,1.4-2.3s-1.1-1.7-2.2-1.5c-1.1,0.2-1.6,1.2-1.4,2.3
				S570.2,259.7,571.2,259.5z"/>
			<path fill="#798F9C" d="M576.5,253.5l0.1,0.5c0.2-0.3,0.8-0.9,1.5-1c0.8-0.2,1.6,0.1,2.2,0.5c0.4-0.6,1-1.2,2-1.4
				c0.8-0.2,1.6,0,2.2,0.5c0.4,0.4,0.7,0.9,0.9,1.9l0.6,2.9l-1.2,0.2l-0.6-3.1c-0.1-0.6-0.3-0.9-0.6-1.1c-0.3-0.3-0.7-0.4-1.2-0.3
				c-0.8,0.2-1.3,0.7-1.6,1.2c0.1,0.3,0.2,0.6,0.3,1l0.6,2.9l-1.2,0.2l-0.6-3.1c-0.1-0.6-0.3-0.9-0.6-1.1c-0.3-0.2-0.8-0.4-1.2-0.3
				c-0.7,0.1-1.2,0.7-1.4,1.1l0.8,3.9l-1.2,0.2l-1.2-5.7L576.5,253.5z"/>
		</g>
	</g>
	
		<rect x="364.9" y="321" transform="matrix(0.9798 -0.2001 0.2001 0.9798 -55.274 107.6327)" fill="#5ABCC9" width="279.6" height="12.4"/>
	<g>
		<path fill="#0D323F" d="M358.6,201.6l1.6,8c0.2,1.2,0.1,2-0.4,2.7c-0.5,0.7-1.2,1.2-2.1,1.3c-0.9,0.2-1.8,0-2.5-0.4
			c-0.7-0.4-1.2-1.2-1.4-2.4l-1.6-8l-2.9,0.6l1.6,7.8c0.4,2.1,1.4,3.5,2.8,4.4c1.3,0.7,2.9,0.9,4.6,0.6c1.7-0.3,3.1-1.2,4-2.4
			c1-1.4,1.3-3.1,0.9-5.2l-1.1-5.5l0.8-2.6L358.6,201.6z"/>
		<path fill="#0D323F" d="M361,225.7l-18,3.7l-3.7-18c-2-9.9,4.4-19.6,14.3-21.6c9.9-2,19.6,4.4,21.6,14.3
			C377.3,213.9,370.9,223.6,361,225.7 M345.6,225.4l14.7-3c8.1-1.7,13.4-9.6,11.7-17.7c-1.7-8.1-9.6-13.4-17.7-11.7
			c-8.1,1.7-13.4,9.6-11.7,17.7L345.6,225.4z"/>
	</g>
</g>
<g>
	
		<rect x="690.3" y="33.2" transform="matrix(0.9798 -0.2001 0.2001 0.9798 -10.8144 179.8957)" fill="#5ABCC9" width="388.3" height="220.6"/>
	<g>
		<path fill="#0D323F" d="M953.8,113.1c-2.8,0.6-5,2-6.6,3.9l-0.4-1.9l-0.3,0.1l-6.7,1.4l5.3,26.1l7-1.4l-3.5-17
			c0.7-1.5,2.7-3.9,5.7-4.5c1.6-0.3,3.1-0.1,4.2,0.7c1.2,0.8,2,2,2.6,4.6l2.8,13.9l7-1.4l-2.7-13.3c-0.9-4.5-2.4-6.9-4.6-8.6
			C961,113.3,957.4,112.4,953.8,113.1"/>
		<path fill="#0D323F" d="M910,140.3c-0.7,1.4-2.5,3.9-5.4,4.5c-1.3,0.3-2.9,0.2-4.3-0.8c-1-0.8-1.7-1.8-2.2-4.2l-2.9-14.1l-7,1.4
			l2.8,13.8c0.8,3.9,2.3,6.4,4.4,8.1c2.6,2.1,6.1,3.1,9.7,2.4c2.4-0.5,4.6-1.7,6.3-3.8l0.4,1.9l0.3-0.1l6.7-1.4l-5.3-26.1l-7,1.4
			L910,140.3z"/>
		<path fill="#0D323F" d="M883.8,149.3c-1.7,0.4-3,0.1-3.8-0.6c-0.7-0.6-1.2-1.5-1.5-3.1l-2-10l7.3-1.5l-1.2-5.9l-7.3,1.5l-1.5-7.3
			l-7,1.4l1.5,7.3l-3.1,0.6l1.2,5.9l3.1-0.6l1.9,9.2c0.8,3.7,1.8,5.9,3.5,7.4c2.3,2,5.6,2.8,9.8,1.9c1.3-0.3,3.4-0.9,4.3-1.4
			l-2.3-5.7C886.1,148.6,884.8,149.1,883.8,149.3"/>
		<path fill="#0D323F" d="M926,119.3l-7,1.4l2.9,14.1c0,0.2,0.1,0.4,0.1,0.6l0,0l2.3,11.4l7-1.4L929,134l0,0c-1-5,1.7-8.5,7.5-9.7
			l-1.4-7.1c-3.7,0.8-6.6,2.2-8.7,4.1L926,119.3z"/>
		<path fill="#0D323F" d="M848.7,135c-2.6,0.5-4.9,1.8-6.7,3.5l-0.4-1.9l-6.5,1.3l2.8,13.6l5.4,26.4l6.5-1.3l-5.4-26.4
			c-0.8-4,1.8-7.8,5.7-8.6c4-0.8,7.8,1.8,8.6,5.7c0.8,3.9-1.7,7.8-5.7,8.6l-4.4,0.9l1.3,6.5l4.4-0.9c7.5-1.5,12.3-8.8,11-16.2l0-0.3
			C863.7,138.4,856.2,133.5,848.7,135"/>
		<path fill="#0D323F" d="M828.2,128.9l-7.2,1.5l-0.1,0l4.6,22.4c0.7,3.4,0.2,5.7-1.1,7.5c-1.3,1.9-3.4,3.2-5.9,3.7
			c-2.5,0.5-5,0.1-6.9-1.1c-1.9-1.1-3.2-3.1-3.9-6.5l-4.6-22.4l-7.3,1.5l4.5,21.8c1.2,5.8,3.7,9.4,7.4,11.6c3.4,2,7.9,2.4,12.1,1.6
			c4.3-0.9,8.1-3,10.5-6.2c2.5-3.4,3.5-7.8,2.3-13.6l-3.3-16.1l0.1,0l2-6.4L828.2,128.9L828.2,128.9z"/>
	</g>
</g>
<polyline fill="#FFFFFF" points="1499.2,130.4 1117.2,208.5 1073,-7.6 1455,-85.7 "/>
<g>
	<path fill="#0C323F" d="M1224.7,40.7l-7.4,1.5l1.4,6.7l-2.9,0.6l-3-14.9l2.9-0.6l1.2,5.6l7.4-1.5l-1.2-5.6l2.9-0.6l3,14.9l-2.9,0.6
		L1224.7,40.7z"/>
	<path fill="#0C323F" d="M1242,44.1l-2.7,0.5l-0.2-0.8c-0.7,0.9-1.6,1.4-2.7,1.6c-1.5,0.3-3.1-0.1-4.2-0.9c-1-0.8-1.8-1.9-2.1-3.3
		c-0.6-3,1.2-5.8,4-6.4c1.2-0.2,2.3-0.1,3.2,0.4l-0.2-0.8l2.7-0.5L1242,44.1z M1237.9,38c-0.7-0.6-1.8-1-2.8-0.8
		c-1.6,0.3-2.4,1.9-2.1,3.4c0.3,1.6,1.7,2.6,3.3,2.3c1-0.2,1.9-0.9,2.2-1.8L1237.9,38z"/>
	<path fill="#0C323F" d="M1249.8,34.3c-0.2,0-0.6,0-1,0.1c-1.2,0.2-2,1.3-2.2,2l1.3,6.5l-2.8,0.6l-2.1-10.3l2.7-0.5l0.2,1
		c0.5-0.9,1.5-1.6,2.7-1.9c0.4-0.1,0.6-0.1,1-0.1L1249.8,34.3z"/>
	<path fill="#0C323F" d="M1256.5,41.2l-2.8,0.6l-3.1-15.1l2.8-0.6L1256.5,41.2z"/>
	<path fill="#0C323F" d="M1269.5,38.5l-2.7,0.5l-0.2-0.8c-0.7,0.9-1.6,1.4-2.7,1.6c-1.5,0.3-3.1-0.1-4.2-0.9c-1-0.8-1.8-1.9-2.1-3.3
		c-0.6-3,1.2-5.8,4-6.4c1.2-0.2,2.3-0.1,3.2,0.4l-0.2-0.8l2.7-0.5L1269.5,38.5z M1265.4,32.4c-0.7-0.6-1.8-1-2.8-0.8
		c-1.6,0.3-2.4,1.9-2.1,3.4c0.3,1.6,1.7,2.6,3.3,2.3c1-0.2,1.9-0.9,2.2-1.8L1265.4,32.4z"/>
	<path fill="#0C323F" d="M1272.6,37.9l-2.1-10.3l2.7-0.5l0.2,0.8c0.7-0.8,1.6-1.4,2.7-1.6c1.4-0.3,2.9,0.1,3.9,0.9
		c0.8,0.7,1.4,1.6,1.8,3.4l1.1,5.3l-2.8,0.6l-1.1-5.5c-0.2-1-0.6-1.5-1-1.8c-0.4-0.3-1-0.4-1.7-0.3c-1.2,0.2-2,1.2-2.2,1.8l1.4,6.7
		L1272.6,37.9z"/>
	<path fill="#0C323F" d="M1296.5,26l1.4,6.7l-2.9,0.6l-1.4-6.7l-6.8-7.1l3.3-0.7l4.3,4.6l2.2-5.9l3.3-0.7L1296.5,26z"/>
	<path fill="#0C323F" d="M1312.3,19l2.1,10.3l-2.7,0.5l-0.2-0.8c-0.7,0.9-1.6,1.4-2.6,1.6c-1.4,0.3-2.8-0.1-3.8-0.9
		c-0.8-0.7-1.4-1.7-1.7-3.2l-1.1-5.5l2.8-0.6l1.1,5.6c0.2,0.9,0.5,1.4,0.9,1.7c0.5,0.4,1.2,0.4,1.7,0.3c1.2-0.2,1.9-1.2,2.1-1.8
		l-1.4-6.7L1312.3,19z"/>
</g>
<g>
	<path fill="#5ABCC9" d="M1221.1,69.6l0.8,3.9l-1.8,0.4l-2-9.6l3.6-0.7c1.2-0.3,2-0.1,2.7,0.4c0.6,0.4,1,1.1,1.2,1.8
		c0.2,0.8,0,1.5-0.3,2.1c-0.4,0.7-1.1,1.1-2.3,1.4L1221.1,69.6z M1222.4,67.6c0.6-0.1,0.9-0.3,1.1-0.6c0.2-0.3,0.2-0.6,0.1-0.9
		s-0.2-0.6-0.5-0.8c-0.3-0.2-0.6-0.3-1.2-0.1l-1.7,0.3l0.5,2.4L1222.4,67.6z"/>
	<path fill="#5ABCC9" d="M1231.9,66.2c-0.1,0-0.4,0-0.7,0.1c-0.8,0.2-1.3,0.8-1.4,1.3l0.9,4.2l-1.8,0.4l-1.4-6.6l1.7-0.3l0.1,0.7
		c0.3-0.6,1-1,1.8-1.2c0.3-0.1,0.4-0.1,0.6-0.1L1231.9,66.2z"/>
	<path fill="#5ABCC9" d="M1234,60.5c0.6-0.1,1.3,0.3,1.4,0.9c0.1,0.6-0.3,1.2-0.9,1.4c-0.6,0.1-1.3-0.3-1.4-0.9
		C1232.9,61.2,1233.3,60.6,1234,60.5z M1237,70.4l-1.8,0.4l-1.4-6.6l1.8-0.4L1237,70.4z"/>
	<path fill="#5ABCC9" d="M1239.7,69.9l-1.4-6.6l1.7-0.3l0.1,0.5c0.4-0.5,1-0.9,1.7-1.1c0.9-0.2,1.8,0.1,2.5,0.6
		c0.5,0.4,0.9,1.1,1.2,2.2l0.7,3.4l-1.8,0.4l-0.7-3.5c-0.1-0.7-0.4-1-0.7-1.2c-0.3-0.2-0.7-0.2-1.1-0.2c-0.8,0.2-1.3,0.8-1.4,1.2
		l0.9,4.3L1239.7,69.9z"/>
	<path fill="#5ABCC9" d="M1254.6,65.4c-0.6,1.2-1.5,1.9-2.7,2.1c-2.1,0.4-3.9-0.8-4.3-2.7c-0.4-1.9,0.8-3.8,2.9-4.2
		c1.2-0.2,2.3,0.1,3.1,0.8l-1,1.4c-0.5-0.4-1.1-0.6-1.7-0.5c-1,0.2-1.6,1.2-1.4,2.2c0.2,1,1.1,1.7,2.2,1.4c0.7-0.1,1.2-0.7,1.4-1.2
		L1254.6,65.4z"/>
	<path fill="#5ABCC9" d="M1255.7,56c0.6-0.1,1.3,0.3,1.4,0.9c0.1,0.6-0.3,1.2-0.9,1.4c-0.6,0.1-1.3-0.3-1.4-0.9
		C1254.7,56.8,1255.1,56.2,1255.7,56z M1258.7,66l-1.8,0.4l-1.4-6.6l1.8-0.4L1258.7,66z"/>
	<path fill="#5ABCC9" d="M1260.1,58.8l1.7-0.3l0.1,0.5c0.4-0.5,1.1-0.9,1.8-1.1c1.8-0.4,3.6,0.8,4,2.8c0.2,0.9,0,1.8-0.4,2.5
		c-0.4,0.8-1.3,1.4-2.3,1.6c-0.7,0.1-1.3,0.1-1.9-0.2l0.8,3.8l-1.8,0.4L1260.1,58.8z M1262.7,62.7c0.4,0.4,1.1,0.6,1.8,0.5
		c1-0.2,1.6-1.1,1.4-2.2c-0.2-1-1-1.7-2.1-1.5c-0.7,0.1-1.2,0.6-1.5,1.2L1262.7,62.7z"/>
	<path fill="#5ABCC9" d="M1276.9,62.3l-1.7,0.3l-0.1-0.5c-0.5,0.6-1,0.9-1.7,1c-1,0.2-2,0-2.7-0.6c-0.6-0.5-1.1-1.2-1.3-2.2
		c-0.4-2,0.7-3.8,2.6-4.1c0.8-0.2,1.5,0,2.1,0.3l-0.1-0.5l1.7-0.3L1276.9,62.3z M1274.2,58.3c-0.5-0.4-1.1-0.6-1.8-0.5
		c-1,0.2-1.5,1.2-1.3,2.2c0.2,1,1.1,1.7,2.1,1.4c0.7-0.1,1.2-0.6,1.4-1.1L1274.2,58.3z"/>
	<path fill="#5ABCC9" d="M1281.4,61.4l-1.8,0.4l-2-9.7l1.8-0.4L1281.4,61.4z"/>
</g>
<g>
	<g>
		<path fill="#798F9C" d="M1224.8,101.6l3.2-6.6l0.9-0.2l1.1,5.3l1.3-0.3l0.2,1.2l-1.3,0.3l0.4,2.1l-1.2,0.2l-0.4-2.1l-4,0.8
			L1224.8,101.6z M1228.7,100.4l-0.6-2.9l-1.7,3.3L1228.7,100.4z"/>
		<path fill="#798F9C" d="M1234.5,93.6c2.1-0.4,3.3,1.4,3.8,3.8c0.5,2.4,0.1,4.5-2,5c-2.1,0.4-3.3-1.4-3.8-3.8
			S1232.4,94.1,1234.5,93.6z M1234.7,94.8c-1.3,0.3-1.4,1.9-1,3.6c0.3,1.7,1,3.2,2.4,2.9c1.3-0.3,1.4-1.9,1-3.6
			C1236.7,95.9,1236.1,94.5,1234.7,94.8z"/>
		<path fill="#798F9C" d="M1240.5,98.7c-0.2-1,0.2-1.9,0.9-2.5c-0.5-0.2-1-0.8-1.1-1.4c-0.3-1.2,0.6-2.5,1.9-2.7
			c1.3-0.3,2.6,0.5,2.8,1.8c0.1,0.6-0.1,1.3-0.5,1.7c0.9,0.3,1.6,1,1.8,2c0.3,1.5-0.7,3-2.4,3.3S1240.8,100.2,1240.5,98.7z
			 M1241.5,94.5c0.1,0.6,0.7,1,1.4,0.9c0.7-0.1,1.1-0.7,0.9-1.3c-0.1-0.6-0.7-1-1.4-0.9S1241.4,93.9,1241.5,94.5z M1241.8,98.4
			c0.2,0.9,1,1.4,2,1.2s1.6-1,1.4-1.9c-0.2-0.9-1-1.4-2-1.2C1242.2,96.7,1241.6,97.6,1241.8,98.4z"/>
		<path fill="#798F9C" d="M1252,95.3l0.2,1l-3.7,0.7l-0.2-1L1252,95.3z"/>
		<path fill="#798F9C" d="M1255.3,90.7l0.1,1.8c0.2-0.1,0.5-0.3,0.8-0.3c1.7-0.3,3.2,0.7,3.5,2.3c0.3,1.6-0.6,3.2-2.3,3.5
			c-1,0.2-2.1-0.1-2.7-0.7l0.8-0.9c0.4,0.4,1.1,0.6,1.7,0.5c1-0.2,1.5-1.2,1.3-2.1c-0.2-1-1-1.6-2.1-1.4c-0.5,0.1-0.9,0.4-1.2,0.8
			l-0.9,0l-0.3-4.4l4-0.8l0.2,1.2L1255.3,90.7z"/>
		<path fill="#798F9C" d="M1261.2,94.2l3.2-6.6l0.9-0.2l1.1,5.3l1.3-0.3l0.2,1.2l-1.3,0.3l0.4,2.1l-1.2,0.2l-0.4-2.1l-4,0.8
			L1261.2,94.2z M1265.2,93l-0.6-2.9l-1.7,3.3L1265.2,93z"/>
		<path fill="#798F9C" d="M1268.7,92.6l3.2-6.6l0.9-0.2l1.1,5.3l1.3-0.3l0.2,1.2l-1.3,0.3l0.4,2.1l-1.2,0.2l-0.4-2.1l-4,0.8
			L1268.7,92.6z M1272.7,91.5l-0.6-2.9l-1.7,3.3L1272.7,91.5z"/>
		<path fill="#798F9C" d="M1280.5,89.5l0.2,1l-3.7,0.7l-0.2-1L1280.5,89.5z"/>
		<path fill="#798F9C" d="M1284.7,83.4c2.1-0.4,3.3,1.4,3.8,3.8c0.5,2.4,0.1,4.5-2,5c-2.1,0.4-3.3-1.4-3.8-3.8
			S1282.5,83.8,1284.7,83.4z M1284.9,84.5c-1.3,0.3-1.4,1.9-1,3.6c0.3,1.7,1,3.2,2.4,2.9c1.3-0.3,1.4-1.9,1-3.6
			C1286.9,85.7,1286.2,84.3,1284.9,84.5z"/>
		<path fill="#798F9C" d="M1290,84.9l-0.2-1.2l1.8-1.6l0.9-0.2l1.7,8.5l-1.2,0.2l-1.4-7L1290,84.9z"/>
		<path fill="#798F9C" d="M1297,89.9l2.1-8.1l-3.9,0.8l-0.2-1.2l5.4-1.1l0.2,0.8l-2.2,8.5L1297,89.9z"/>
		<path fill="#798F9C" d="M1303.2,85.9c-0.2-1,0.2-1.9,0.9-2.5c-0.5-0.2-1-0.8-1.1-1.4c-0.3-1.2,0.6-2.5,1.9-2.7
			c1.4-0.3,2.6,0.5,2.8,1.8c0.1,0.6-0.1,1.3-0.5,1.7c0.9,0.3,1.6,1,1.8,2c0.3,1.5-0.7,3-2.4,3.3C1305,88.3,1303.5,87.4,1303.2,85.9z
			 M1304.2,81.7c0.1,0.6,0.7,1,1.4,0.9c0.7-0.1,1.1-0.7,0.9-1.3s-0.7-1-1.4-0.9S1304,81.1,1304.2,81.7z M1304.4,85.7
			c0.2,0.9,1,1.4,2,1.2s1.6-1,1.4-1.9c-0.2-0.9-1-1.4-2-1.2C1304.8,83.9,1304.2,84.8,1304.4,85.7z"/>
	</g>
</g>
<g>
	<g>
		<path fill="#798F9C" d="M1230.7,120.4c0.3-0.3,0.8-0.8,1.6-1c0.8-0.2,1.7,0.1,2.3,0.6c0.5,0.4,0.8,0.9,1,1.9l0.6,2.8l-1.2,0.2
			l-0.6-2.9c-0.1-0.7-0.4-1-0.6-1.3c-0.3-0.3-0.8-0.4-1.3-0.3c-0.8,0.2-1.2,0.7-1.5,1.2l0.8,3.9l-1.2,0.2l-1.8-8.6l1.2-0.2
			L1230.7,120.4z"/>
		<path fill="#798F9C" d="M1242.7,122.8c-0.4,0.5-1,0.9-1.6,1c-0.5,0.1-1.1,0.1-1.5-0.1c-1-0.3-1.8-1.2-2-2.3
			c-0.2-1.1,0.2-2.2,0.9-2.9c0.3-0.3,0.8-0.5,1.3-0.7c0.6-0.1,1.3-0.1,1.9,0.3l-0.1-0.5l1.1-0.2l1.2,5.7l-1.1,0.2L1242.7,122.8z
			 M1242,119.4c-0.4-0.4-1.1-0.6-1.8-0.5c-1.1,0.2-1.7,1.3-1.5,2.3c0.2,1,1.2,1.7,2.3,1.5c0.6-0.1,1.1-0.5,1.4-1.1L1242,119.4z"/>
		<path fill="#798F9C" d="M1248.8,117.2c-0.1,0-0.3,0-0.5,0c-0.6,0.1-1.1,0.7-1.3,1.3l0.8,3.8l-1.2,0.2l-1.2-5.7l1.1-0.2l0.1,0.7
			c0.2-0.4,0.7-1,1.6-1.1c0.1,0,0.3-0.1,0.5-0.1L1248.8,117.2z"/>
		<path fill="#798F9C" d="M1250.2,112.8l1.2-0.2l1.8,8.6l-1.2,0.2L1250.2,112.8z"/>
		<path fill="#798F9C" d="M1259.8,119.3c-0.4,0.5-1,0.9-1.6,1c-0.5,0.1-1.1,0.1-1.5-0.1c-1-0.3-1.8-1.2-2-2.3
			c-0.2-1.1,0.2-2.2,0.9-2.9c0.3-0.3,0.8-0.5,1.3-0.7c0.6-0.1,1.3-0.1,1.9,0.3l-0.1-0.5l1.1-0.2l1.2,5.7l-1.1,0.2L1259.8,119.3z
			 M1259.1,115.9c-0.4-0.4-1.1-0.6-1.8-0.5c-1.1,0.2-1.7,1.3-1.5,2.3c0.2,1,1.2,1.7,2.3,1.5c0.6-0.1,1.1-0.5,1.4-1.1L1259.1,115.9z"
			/>
		<path fill="#798F9C" d="M1263.8,113.7c0.2-0.4,0.8-0.9,1.6-1c0.8-0.2,1.7,0.1,2.3,0.6c0.5,0.4,0.8,0.9,1,1.9l0.6,2.8l-1.2,0.2
			l-0.6-2.9c-0.1-0.7-0.4-1-0.6-1.3c-0.3-0.3-0.8-0.4-1.3-0.3c-0.8,0.2-1.2,0.7-1.5,1.2l0.8,3.9l-1.2,0.2l-1.2-5.7l1.1-0.2
			L1263.8,113.7z"/>
		<path fill="#798F9C" d="M1280.2,117c-0.7,0.8-1.7,1.4-2.9,1.7c-2.9,0.6-5.8-1.3-6.4-4.3s1.3-5.8,4.2-6.4c2.8-0.6,5.5,0.9,6.1,3.8
			c0.3,1.7-0.1,3.3-1.7,3.6c-0.7,0.1-1.2,0-1.7-0.4c-0.2,0.3-0.6,0.9-1.5,1.1c-1.2,0.2-2.6-0.4-3-2.1c-0.3-1.7,0.7-2.9,1.9-3.1
			c0.8-0.2,1.3,0.1,1.5,0.2l-0.1-0.4l1-0.2l0.6,3c0.1,0.3,0.1,0.6,0.3,0.7c0.2,0.2,0.4,0.3,0.7,0.2c0.8-0.2,1-1.1,0.8-2.3
			c-0.5-2.2-2.5-3.5-4.9-3c-2.3,0.5-3.8,2.8-3.3,5.2c0.5,2.4,2.8,3.9,5.1,3.5c0.9-0.2,1.7-0.7,2.3-1.4L1280.2,117z M1277.1,112.1
			c-0.3-0.2-0.8-0.4-1.4-0.3c-0.7,0.1-1.4,0.8-1.1,1.9c0.2,1.1,1.1,1.4,1.8,1.3c0.6-0.1,0.9-0.5,1.1-0.9L1277.1,112.1z"/>
		<path fill="#798F9C" d="M1288.1,114.1c-0.2,0.1-0.5,0.2-0.9,0.3c-0.7,0.1-1.3,0-1.8-0.3c-0.4-0.3-0.6-0.8-0.8-1.4l-0.5-2.6
			l-1.5,0.3l-0.2-1l1.5-0.3l-0.3-1.6l1.2-0.2l0.3,1.6l1.8-0.4l0.2,1l-1.8,0.4l0.5,2.7c0.1,0.3,0.1,0.6,0.3,0.7
			c0.2,0.2,0.5,0.2,0.9,0.1c0.2,0,0.5-0.1,0.6-0.2L1288.1,114.1z"/>
		<path fill="#798F9C" d="M1290.4,110.9c0.3,0.9,1.2,1.6,2.2,1.3c0.9-0.2,1.2-0.7,1.5-1.1l0.9,0.6c-0.3,0.6-1,1.3-2.2,1.6
			c-1.7,0.3-3.2-0.7-3.6-2.4c-0.4-1.7,0.6-3.2,2.2-3.6c1.6-0.3,3,0.7,3.4,2.4c0,0,0,0.1,0,0.2L1290.4,110.9z M1290.3,109.9l3.1-0.6
			c-0.3-0.7-1.1-1.1-1.8-0.9C1290.9,108.5,1290.3,109.1,1290.3,109.9z"/>
		<path fill="#798F9C" d="M1301.6,110.8c-0.4,0.5-1,0.9-1.6,1c-0.5,0.1-1.1,0.1-1.5-0.1c-1-0.3-1.8-1.2-2-2.3
			c-0.2-1.1,0.2-2.2,0.9-2.9c0.3-0.3,0.8-0.5,1.3-0.7c0.6-0.1,1.3-0.1,1.9,0.3l-0.1-0.5l1.1-0.2l1.2,5.7l-1.1,0.2L1301.6,110.8z
			 M1300.9,107.4c-0.4-0.4-1.1-0.6-1.8-0.5c-1.1,0.2-1.7,1.3-1.5,2.3c0.2,1,1.2,1.7,2.3,1.5c0.6-0.1,1.1-0.5,1.4-1.1L1300.9,107.4z"
			/>
		<path fill="#798F9C" d="M1305.4,104.6l0.1,0.5c0.2-0.3,0.8-0.9,1.5-1c0.8-0.2,1.6,0.1,2.2,0.5c0.4-0.6,1-1.2,2-1.4
			c0.8-0.2,1.6,0,2.2,0.5c0.4,0.4,0.7,0.9,0.9,1.9l0.6,2.9l-1.2,0.2l-0.6-3.1c-0.1-0.6-0.3-0.9-0.6-1.1c-0.3-0.2-0.7-0.4-1.2-0.3
			c-0.8,0.2-1.3,0.7-1.6,1.2c0.1,0.3,0.2,0.6,0.3,1l0.6,2.9l-1.2,0.2l-0.6-3.1c-0.1-0.6-0.3-0.9-0.6-1.1c-0.3-0.2-0.8-0.4-1.2-0.3
			c-0.7,0.1-1.2,0.7-1.4,1.1l0.8,3.9l-1.2,0.2l-1.2-5.7L1305.4,104.6z"/>
		<path fill="#798F9C" d="M1317.8,107.1c-0.4-0.4-0.7-0.9-0.9-1.9l-0.6-2.9l1.2-0.2l0.6,3.1c0.1,0.6,0.3,0.9,0.6,1.1
			c0.3,0.3,0.8,0.4,1.2,0.3c0.7-0.1,1.2-0.7,1.4-1.1l-0.8-3.9l1.2-0.2l1.2,5.7l-1.1,0.2l-0.1-0.5c-0.2,0.3-0.8,0.8-1.5,1
			C1319.2,107.9,1318.4,107.6,1317.8,107.1z"/>
		<path fill="#798F9C" d="M1327.3,109.1l-1.2,0.2l-1.8-8.6l1.1-0.2l0.1,0.5c0.4-0.6,1-0.9,1.7-1c0.5-0.1,1-0.1,1.5,0.1
			c1,0.3,1.8,1.2,2,2.3s-0.2,2.2-0.9,2.9c-0.3,0.3-0.8,0.6-1.4,0.7c-0.7,0.1-1.3,0-1.9-0.3L1327.3,109.1z M1326.3,104.4
			c0.5,0.4,1.2,0.6,1.7,0.5c1.1-0.2,1.7-1.3,1.5-2.3c-0.2-1-1.1-1.7-2.2-1.5c-0.7,0.1-1.2,0.6-1.5,1.1L1326.3,104.4z"/>
		<path fill="#798F9C" d="M1337,104.1c-0.2,0.1-0.5,0.2-0.9,0.3c-0.7,0.1-1.3,0-1.8-0.3c-0.4-0.3-0.6-0.8-0.8-1.4l-0.5-2.6l-1.5,0.3
			l-0.2-1l1.5-0.3l-0.3-1.6l1.2-0.2l0.3,1.6l1.8-0.4l0.2,1l-1.8,0.4l0.5,2.7c0.1,0.3,0.1,0.6,0.3,0.7c0.2,0.2,0.5,0.2,0.9,0.1
			c0.2,0,0.5-0.1,0.6-0.2L1337,104.1z"/>
		<path fill="#798F9C" d="M1339.4,102.7c-0.4-0.4-0.7-0.9-0.9-1.9l-0.6-2.9l1.2-0.2l0.6,3.1c0.1,0.6,0.3,0.9,0.6,1.1
			c0.3,0.3,0.8,0.4,1.2,0.3c0.7-0.1,1.2-0.7,1.4-1.1l-0.8-3.9l1.2-0.2l1.2,5.7l-1.1,0.2l-0.1-0.5c-0.2,0.3-0.8,0.8-1.5,1
			C1340.9,103.4,1340,103.2,1339.4,102.7z"/>
		<path fill="#798F9C" d="M1349.3,96.7c-0.1,0-0.3,0-0.5,0c-0.6,0.1-1.1,0.7-1.3,1.3l0.8,3.8l-1.2,0.2l-1.2-5.7l1.1-0.2l0.1,0.7
			c0.2-0.4,0.7-1,1.6-1.1c0.1,0,0.3-0.1,0.5-0.1L1349.3,96.7z"/>
		<path fill="#798F9C" d="M1352.5,95.5c0.2-0.4,0.8-0.9,1.6-1c0.8-0.2,1.7,0.1,2.3,0.6c0.5,0.4,0.8,0.9,1,1.9l0.6,2.8l-1.2,0.2
			l-0.6-2.9c-0.1-0.7-0.4-1-0.6-1.3c-0.3-0.3-0.8-0.4-1.3-0.3c-0.8,0.2-1.2,0.7-1.5,1.2l0.8,3.9l-1.2,0.2l-1.2-5.7l1.1-0.2
			L1352.5,95.5z"/>
		<path fill="#798F9C" d="M1361.3,97.5c0.5-0.1,0.9,0.2,1,0.7s-0.2,0.9-0.7,1c-0.5,0.1-0.9-0.2-1-0.7
			C1360.5,98,1360.8,97.6,1361.3,97.5z"/>
		<path fill="#798F9C" d="M1370.1,96.1c-0.3,0.9-1.2,1.6-2.3,1.9c-1.8,0.4-3.3-0.7-3.7-2.4s0.7-3.2,2.4-3.6c1-0.2,2,0.1,2.7,0.7
			l-0.7,0.9c-0.4-0.4-1-0.7-1.8-0.5c-1,0.2-1.7,1.2-1.4,2.3c0.2,1.1,1.2,1.7,2.3,1.5c0.8-0.2,1.2-0.7,1.5-1.2L1370.1,96.1z"/>
		<path fill="#798F9C" d="M1373.6,90.5c1.7-0.3,3.2,0.7,3.6,2.4c0.3,1.7-0.7,3.2-2.3,3.6c-1.7,0.3-3.2-0.7-3.6-2.4
			C1370.9,92.4,1371.9,90.9,1373.6,90.5z M1374.5,95.4c1.1-0.2,1.6-1.2,1.4-2.3s-1.1-1.7-2.2-1.5c-1.1,0.2-1.6,1.2-1.4,2.3
			S1373.5,95.6,1374.5,95.4z"/>
		<path fill="#798F9C" d="M1379.8,89.4l0.1,0.5c0.2-0.3,0.8-0.9,1.5-1c0.8-0.2,1.6,0.1,2.2,0.5c0.4-0.6,1-1.2,2-1.4
			c0.8-0.2,1.6,0,2.2,0.5c0.4,0.4,0.7,0.9,0.9,1.9l0.6,2.9l-1.2,0.2l-0.6-3.1c-0.1-0.6-0.3-0.9-0.6-1.1c-0.3-0.3-0.7-0.4-1.2-0.3
			c-0.8,0.2-1.3,0.7-1.6,1.2c0.1,0.3,0.2,0.6,0.3,1l0.6,2.9l-1.2,0.2l-0.6-3.1c-0.1-0.6-0.3-0.9-0.6-1.1c-0.3-0.2-0.8-0.4-1.2-0.3
			c-0.7,0.1-1.2,0.7-1.4,1.1l0.8,3.9l-1.2,0.2l-1.2-5.7L1379.8,89.4z"/>
	</g>
</g>
<polyline fill="#5ABCC9" points="1446.3,141.2 1172.3,197.2 1169.8,185 1443.8,129.1 "/>
<g>
	<path fill="#0D323F" d="M1161.9,37.5l1.6,8c0.2,1.2,0.1,2-0.4,2.7c-0.5,0.7-1.2,1.2-2.1,1.4c-0.9,0.2-1.8,0-2.5-0.4
		c-0.7-0.4-1.2-1.2-1.4-2.4l-1.6-8l-2.9,0.6l1.6,7.8c0.4,2.1,1.4,3.5,2.8,4.4c1.2,0.7,2.9,0.9,4.6,0.6c1.7-0.3,3.1-1.2,4-2.4
		c1-1.4,1.3-3.1,0.9-5.2l-1.1-5.5l0.8-2.6L1161.9,37.5z"/>
	<path fill="#0D323F" d="M1164.3,61.6l-18,3.7l-3.7-18c-2-9.9,4.4-19.6,14.3-21.6c9.9-2,19.6,4.4,21.6,14.3
		C1180.6,49.9,1174.2,59.6,1164.3,61.6 M1148.9,61.3l14.7-3c8.1-1.7,13.4-9.6,11.7-17.7c-1.7-8.1-9.6-13.4-17.7-11.7
		c-8.1,1.7-13.4,9.6-11.7,17.7L1148.9,61.3z"/>
</g>
<polyline fill="#FFFFFF" points="-84.1,476.8 297.9,398.7 342,614.8 "/>
<g>
	<path fill="#0C323F" d="M67.6,525.1l-7.4,1.5l1.4,6.7l-2.9,0.6l-3-14.9l2.9-0.6l1.2,5.6l7.4-1.5l-1.2-5.6l2.9-0.6l3,14.9l-2.9,0.6
		L67.6,525.1z"/>
	<path fill="#0C323F" d="M84.9,528.5l-2.7,0.5l-0.2-0.8c-0.7,0.9-1.6,1.4-2.7,1.6c-1.5,0.3-3.1-0.1-4.2-0.9c-1-0.8-1.8-1.9-2.1-3.3
		c-0.6-3,1.2-5.8,4-6.4c1.2-0.2,2.3-0.1,3.2,0.4l-0.2-0.8l2.7-0.5L84.9,528.5z M80.8,522.4c-0.7-0.6-1.8-1-2.8-0.8
		c-1.6,0.3-2.4,1.9-2.1,3.4c0.3,1.6,1.7,2.6,3.3,2.2c1-0.2,1.9-0.9,2.2-1.8L80.8,522.4z"/>
	<path fill="#0C323F" d="M92.7,518.7c-0.2,0-0.6,0-1,0.1c-1.2,0.2-2,1.3-2.2,2l1.3,6.5l-2.8,0.6l-2.1-10.3l2.7-0.5l0.2,1
		c0.5-0.9,1.5-1.6,2.7-1.9c0.4-0.1,0.6-0.1,1-0.1L92.7,518.7z"/>
	<path fill="#0C323F" d="M99.4,525.6l-2.8,0.6L93.6,511l2.8-0.6L99.4,525.6z"/>
	<path fill="#0C323F" d="M112.4,522.9l-2.7,0.5l-0.2-0.8c-0.7,0.9-1.6,1.4-2.7,1.6c-1.5,0.3-3.1-0.1-4.2-0.9c-1-0.8-1.8-1.9-2.1-3.3
		c-0.6-3,1.2-5.8,4-6.4c1.2-0.2,2.3-0.1,3.2,0.4l-0.2-0.8l2.7-0.5L112.4,522.9z M108.3,516.8c-0.7-0.6-1.8-1-2.8-0.8
		c-1.6,0.3-2.4,1.9-2.1,3.4c0.3,1.6,1.7,2.6,3.3,2.2c1-0.2,1.9-0.9,2.2-1.8L108.3,516.8z"/>
	<path fill="#0C323F" d="M115.5,522.3l-2.1-10.3l2.7-0.5l0.2,0.8c0.7-0.8,1.6-1.4,2.7-1.6c1.4-0.3,2.9,0.1,3.9,0.9
		c0.8,0.7,1.4,1.6,1.8,3.4l1.1,5.3l-2.8,0.6l-1.1-5.5c-0.2-1-0.6-1.5-1-1.8c-0.4-0.3-1-0.4-1.7-0.3c-1.2,0.2-2,1.2-2.2,1.8l1.4,6.7
		L115.5,522.3z"/>
	<path fill="#0C323F" d="M139.4,510.4l1.4,6.7l-2.9,0.6l-1.4-6.7l-6.8-7.1l3.3-0.7l4.3,4.6l2.2-5.9l3.3-0.7L139.4,510.4z"/>
	<path fill="#0C323F" d="M155.2,503.4l2.1,10.3l-2.7,0.5l-0.2-0.8c-0.7,0.9-1.6,1.4-2.6,1.6c-1.4,0.3-2.8-0.1-3.8-0.9
		c-0.8-0.7-1.4-1.7-1.7-3.2l-1.1-5.5l2.8-0.6l1.1,5.6c0.2,0.9,0.5,1.4,0.9,1.7c0.5,0.4,1.2,0.4,1.7,0.3c1.2-0.2,1.9-1.2,2.1-1.8
		l-1.4-6.7L155.2,503.4z"/>
</g>
<g>
	<path fill="#5ABCC9" d="M64,554l0.8,3.9l-1.8,0.4l-2-9.6l3.6-0.7c1.2-0.2,2-0.1,2.7,0.4c0.6,0.4,1,1.1,1.2,1.8
		c0.2,0.8,0,1.5-0.3,2.1c-0.4,0.7-1.1,1.1-2.3,1.4L64,554z M65.3,552c0.6-0.1,0.9-0.3,1.1-0.6c0.2-0.3,0.2-0.6,0.1-0.9
		c-0.1-0.3-0.2-0.6-0.5-0.8c-0.3-0.2-0.6-0.3-1.2-0.1l-1.7,0.3l0.5,2.4L65.3,552z"/>
	<path fill="#5ABCC9" d="M74.8,550.6c-0.1,0-0.4,0-0.7,0.1c-0.8,0.2-1.3,0.8-1.4,1.3l0.9,4.2l-1.8,0.4l-1.4-6.6l1.7-0.3l0.1,0.7
		c0.3-0.6,1-1,1.8-1.2c0.3-0.1,0.4-0.1,0.6-0.1L74.8,550.6z"/>
	<path fill="#5ABCC9" d="M76.9,544.9c0.6-0.1,1.3,0.3,1.4,0.9c0.1,0.6-0.3,1.2-0.9,1.4c-0.6,0.1-1.3-0.3-1.4-0.9
		C75.8,545.6,76.2,545,76.9,544.9z M79.8,554.8l-1.8,0.4l-1.4-6.6l1.8-0.4L79.8,554.8z"/>
	<path fill="#5ABCC9" d="M82.6,554.3l-1.4-6.6l1.7-0.3l0.1,0.5c0.4-0.5,1-0.9,1.7-1.1c0.9-0.2,1.8,0.1,2.5,0.6
		c0.5,0.4,0.9,1,1.2,2.2l0.7,3.4l-1.8,0.4l-0.7-3.5c-0.1-0.7-0.4-1-0.7-1.2c-0.3-0.2-0.7-0.2-1.1-0.2c-0.8,0.2-1.3,0.8-1.4,1.2
		l0.9,4.3L82.6,554.3z"/>
	<path fill="#5ABCC9" d="M97.5,549.8c-0.6,1.2-1.5,1.9-2.7,2.1c-2.1,0.4-3.9-0.8-4.3-2.7c-0.4-1.9,0.8-3.8,2.9-4.2
		c1.2-0.2,2.3,0.1,3.1,0.8l-1,1.4c-0.5-0.4-1.1-0.6-1.7-0.5c-1,0.2-1.6,1.2-1.4,2.2c0.2,1,1.1,1.7,2.2,1.4c0.7-0.1,1.2-0.7,1.4-1.2
		L97.5,549.8z"/>
	<path fill="#5ABCC9" d="M98.6,540.4c0.6-0.1,1.3,0.3,1.4,0.9c0.1,0.6-0.3,1.2-0.9,1.4c-0.6,0.1-1.3-0.3-1.4-0.9
		C97.6,541.2,98,540.6,98.6,540.4z M101.6,550.4l-1.8,0.4l-1.4-6.6l1.8-0.4L101.6,550.4z"/>
	<path fill="#5ABCC9" d="M103,543.2l1.7-0.3l0.1,0.5c0.4-0.5,1.1-0.9,1.8-1.1c1.8-0.4,3.6,0.8,4,2.8c0.2,0.9,0,1.8-0.4,2.5
		c-0.4,0.8-1.3,1.4-2.3,1.6c-0.7,0.1-1.3,0.1-1.9-0.2l0.8,3.8l-1.8,0.4L103,543.2z M105.6,547.1c0.4,0.4,1.1,0.6,1.8,0.5
		c1-0.2,1.6-1.1,1.4-2.2c-0.2-1-1-1.7-2.1-1.5c-0.7,0.1-1.2,0.6-1.5,1.2L105.6,547.1z"/>
	<path fill="#5ABCC9" d="M119.8,546.7l-1.7,0.3l-0.1-0.5c-0.5,0.6-1,0.9-1.7,1c-1,0.2-2,0-2.7-0.6c-0.6-0.5-1.1-1.2-1.3-2.2
		c-0.4-2,0.7-3.8,2.6-4.1c0.8-0.2,1.5,0,2.1,0.3l-0.1-0.5l1.7-0.3L119.8,546.7z M117.1,542.7c-0.5-0.4-1.1-0.6-1.8-0.5
		c-1,0.2-1.5,1.2-1.3,2.2c0.2,1,1.1,1.7,2.1,1.5c0.7-0.1,1.2-0.6,1.4-1.1L117.1,542.7z"/>
	<path fill="#5ABCC9" d="M124.3,545.7l-1.8,0.4l-2-9.7l1.8-0.4L124.3,545.7z"/>
</g>
<path fill="#0D323F" d="M4.8,521.9l1.6,8c0.2,1.2,0.1,2-0.4,2.7c-0.5,0.7-1.2,1.2-2.1,1.4c-0.9,0.2-1.8,0-2.5-0.4
	c-0.7-0.4-1.2-1.2-1.4-2.4l-1.6-8l-2.9,0.6l1.6,7.8c0.4,2.1,1.4,3.5,2.8,4.4c1.3,0.7,2.9,0.9,4.6,0.6c1.7-0.3,3.1-1.2,4-2.4
	c1-1.4,1.3-3.1,0.9-5.2l-1.1-5.5L9,521L4.8,521.9z"/>
<path fill="#0D323F" d="M-10.7,549.7l-3.7-18c-2-9.9,4.4-19.6,14.3-21.6c9.9-2,19.6,4.4,21.6,14.3c2,9.9-4.4,19.6-14.3,21.6"/>
<path fill="#0D323F" d="M-8.2,545.7l14.7-3c8.1-1.7,13.4-9.6,11.7-17.7c-1.7-8.1-9.6-13.4-17.7-11.7c-8.1,1.7-13.4,9.6-11.7,17.7
	L-8.2,545.7z"/>
<polyline fill="#5ABCC9" points="362.5,610.7 318.3,394.6 698.8,316.9 742.9,532.9 362.5,610.7 "/>
<g>
	<path fill="#0D323F" d="M600,433.4c-2.8,0.6-5,2-6.6,3.9l-0.4-1.9l-0.3,0.1l-6.7,1.4l5.3,26.1l7-1.4l-3.5-17
		c0.7-1.5,2.7-3.9,5.7-4.5c1.6-0.3,3.1-0.1,4.2,0.7c1.2,0.8,2,2,2.6,4.6l2.8,13.9l7-1.4l-2.7-13.3c-0.9-4.5-2.4-6.9-4.6-8.6
		C607.2,433.6,603.6,432.7,600,433.4"/>
	<path fill="#0D323F" d="M556.2,460.6c-0.7,1.4-2.5,3.9-5.4,4.5c-1.3,0.3-2.9,0.2-4.3-0.8c-1-0.8-1.7-1.8-2.2-4.2l-2.9-14.1l-7,1.4
		l2.8,13.8c0.8,3.9,2.3,6.4,4.4,8.1c2.6,2.1,6.1,3.1,9.8,2.4c2.4-0.5,4.6-1.7,6.3-3.8l0.4,1.9l0.3-0.1l6.7-1.4l-5.3-26.1l-7,1.4
		L556.2,460.6z"/>
	<path fill="#0D323F" d="M530,469.6c-1.7,0.4-3,0.1-3.8-0.6c-0.7-0.6-1.2-1.5-1.5-3.1l-2-10l7.3-1.5l-1.2-5.9l-7.3,1.5l-1.5-7.3
		l-7,1.4l1.5,7.3l-3.1,0.6l1.2,5.9l3.1-0.6l1.9,9.2c0.8,3.7,1.8,5.9,3.5,7.4c2.3,2,5.6,2.8,9.8,1.9c1.3-0.3,3.4-0.9,4.3-1.4
		l-2.3-5.7C532.3,469,531,469.4,530,469.6"/>
	<path fill="#0D323F" d="M572.2,439.6l-7,1.4l2.9,14.1c0,0.2,0.1,0.4,0.1,0.6l0,0l2.3,11.4l7-1.4l-2.3-11.4l0,0
		c-1-5,1.7-8.5,7.5-9.7l-1.4-7.1c-3.7,0.8-6.6,2.2-8.7,4.1L572.2,439.6z"/>
	<path fill="#0D323F" d="M494.9,455.3c-2.6,0.5-4.9,1.8-6.7,3.5l-0.4-1.9l-6.5,1.3l2.8,13.6l5.4,26.4l6.5-1.3l-5.4-26.4
		c-0.8-4,1.8-7.8,5.7-8.6c4-0.8,7.8,1.8,8.6,5.7c0.8,3.9-1.7,7.8-5.7,8.6l-4.4,0.9l1.3,6.6l4.4-0.9c7.5-1.5,12.3-8.8,11-16.2l0-0.3
		C509.9,458.7,502.4,453.8,494.9,455.3"/>
	<path fill="#0D323F" d="M474.4,449.2l-7.2,1.5l-0.1,0l4.6,22.4c0.7,3.4,0.2,5.7-1.1,7.5c-1.3,1.9-3.4,3.2-5.9,3.7
		c-2.5,0.5-5,0.1-6.9-1.1c-1.9-1.1-3.2-3.1-3.9-6.5l-4.6-22.4l-7.3,1.5l4.5,21.8c1.2,5.8,3.7,9.4,7.4,11.6c3.4,2,7.9,2.4,12.1,1.6
		c4.3-0.9,8.1-3,10.5-6.2c2.5-3.4,3.5-7.8,2.3-13.6l-3.3-16.1l0.1,0l2-6.4L474.4,449.2L474.4,449.2z"/>
</g>
<g>
	
		<rect x="737.4" y="271.4" transform="matrix(0.9798 -0.2001 0.2001 0.9798 -57.5294 194.2944)" fill="#FFFFFF" width="389.9" height="220.6"/>
	<g>
		<path fill="#0C323F" d="M870.9,361l-7.4,1.5l1.4,6.7l-2.9,0.6l-3-14.9l2.9-0.6l1.2,5.6l7.4-1.5l-1.2-5.6l2.9-0.6l3,14.9l-2.9,0.6
			L870.9,361z"/>
		<path fill="#0C323F" d="M888.2,364.4l-2.7,0.5l-0.2-0.8c-0.7,0.9-1.6,1.4-2.7,1.6c-1.5,0.3-3.1-0.1-4.2-0.9
			c-1-0.8-1.8-1.9-2.1-3.3c-0.6-3,1.2-5.8,4-6.4c1.2-0.2,2.3-0.1,3.2,0.4l-0.2-0.8l2.7-0.5L888.2,364.4z M884.1,358.3
			c-0.7-0.6-1.8-1-2.8-0.8c-1.6,0.3-2.4,1.9-2.1,3.4c0.3,1.6,1.7,2.6,3.3,2.3c1-0.2,1.9-0.9,2.2-1.8L884.1,358.3z"/>
		<path fill="#0C323F" d="M896,354.6c-0.2,0-0.6,0-1,0.1c-1.2,0.2-2,1.3-2.2,2l1.3,6.5l-2.8,0.6l-2.1-10.3l2.7-0.5l0.2,1
			c0.5-0.9,1.5-1.6,2.7-1.9c0.4-0.1,0.6-0.1,1-0.1L896,354.6z"/>
		<path fill="#0C323F" d="M902.7,361.5L900,362l-3.1-15.1l2.8-0.6L902.7,361.5z"/>
		<path fill="#0C323F" d="M915.7,358.8l-2.7,0.5l-0.2-0.8c-0.7,0.9-1.6,1.4-2.7,1.6c-1.5,0.3-3.1-0.1-4.2-0.9
			c-1-0.8-1.8-1.9-2.1-3.3c-0.6-3,1.2-5.8,4-6.4c1.2-0.2,2.3-0.1,3.2,0.4L911,349l2.7-0.5L915.7,358.8z M911.6,352.7
			c-0.7-0.6-1.8-1-2.8-0.8c-1.6,0.3-2.4,1.9-2.1,3.4c0.3,1.6,1.7,2.6,3.3,2.3c1-0.2,1.9-0.9,2.2-1.8L911.6,352.7z"/>
		<path fill="#0C323F" d="M918.8,358.2l-2.1-10.3l2.7-0.5l0.2,0.8c0.7-0.8,1.6-1.4,2.7-1.6c1.4-0.3,2.9,0.1,3.9,0.9
			c0.8,0.7,1.4,1.6,1.8,3.4l1.1,5.3l-2.8,0.6l-1.1-5.5c-0.2-1-0.6-1.5-1-1.8c-0.4-0.3-1-0.4-1.7-0.3c-1.2,0.2-2,1.2-2.2,1.8l1.4,6.7
			L918.8,358.2z"/>
		<path fill="#0C323F" d="M942.7,346.3l1.4,6.7l-2.9,0.6l-1.4-6.7l-6.8-7.1l3.3-0.7l4.3,4.6l2.2-5.9l3.3-0.7L942.7,346.3z"/>
		<path fill="#0C323F" d="M958.5,339.3l2.1,10.3l-2.7,0.5l-0.2-0.8c-0.7,0.9-1.6,1.4-2.6,1.6c-1.4,0.3-2.8-0.1-3.8-0.9
			c-0.8-0.7-1.4-1.7-1.7-3.2l-1.1-5.5l2.8-0.6l1.1,5.6c0.2,0.9,0.5,1.4,0.9,1.7c0.5,0.4,1.2,0.4,1.7,0.3c1.2-0.2,1.9-1.2,2.1-1.8
			l-1.4-6.7L958.5,339.3z"/>
	</g>
	<g>
		<path fill="#5ABCC9" d="M867.3,389.9l0.8,3.9l-1.8,0.4l-2-9.6l3.6-0.7c1.2-0.3,2-0.1,2.7,0.4c0.6,0.4,1,1.1,1.2,1.8
			c0.2,0.8,0,1.5-0.3,2.1c-0.4,0.7-1.1,1.1-2.3,1.4L867.3,389.9z M868.7,387.9c0.6-0.1,0.9-0.3,1.1-0.6c0.2-0.3,0.2-0.6,0.1-0.9
			s-0.2-0.6-0.5-0.8c-0.3-0.2-0.6-0.3-1.2-0.1l-1.7,0.3l0.5,2.4L868.7,387.9z"/>
		<path fill="#5ABCC9" d="M878.1,386.5c-0.1,0-0.4,0-0.7,0.1c-0.8,0.2-1.3,0.8-1.4,1.3l0.9,4.2l-1.8,0.4l-1.4-6.6l1.7-0.3l0.1,0.7
			c0.3-0.6,1-1,1.8-1.2c0.3-0.1,0.4-0.1,0.6-0.1L878.1,386.5z"/>
		<path fill="#5ABCC9" d="M880.2,380.8c0.6-0.1,1.3,0.3,1.4,0.9c0.1,0.6-0.3,1.2-0.9,1.4c-0.6,0.1-1.3-0.3-1.4-0.9
			C879.1,381.5,879.6,380.9,880.2,380.8z M883.2,390.7l-1.8,0.4l-1.4-6.6l1.8-0.4L883.2,390.7z"/>
		<path fill="#5ABCC9" d="M885.9,390.2l-1.4-6.6l1.7-0.3l0.1,0.5c0.4-0.5,1-0.9,1.7-1.1c0.9-0.2,1.8,0.1,2.5,0.6
			c0.5,0.4,0.9,1.1,1.2,2.2l0.7,3.4l-1.8,0.4l-0.7-3.5c-0.1-0.7-0.4-1-0.7-1.2c-0.3-0.2-0.7-0.2-1.1-0.2c-0.8,0.2-1.3,0.8-1.4,1.2
			l0.9,4.3L885.9,390.2z"/>
		<path fill="#5ABCC9" d="M900.8,385.7c-0.6,1.2-1.5,1.9-2.7,2.1c-2.1,0.4-3.9-0.8-4.3-2.7c-0.4-1.9,0.8-3.8,2.9-4.2
			c1.2-0.2,2.3,0.1,3.1,0.8l-1,1.4c-0.5-0.4-1.1-0.6-1.7-0.5c-1,0.2-1.6,1.2-1.4,2.2c0.2,1,1.1,1.7,2.2,1.4c0.7-0.1,1.2-0.7,1.4-1.2
			L900.8,385.7z"/>
		<path fill="#5ABCC9" d="M901.9,376.3c0.6-0.1,1.3,0.3,1.4,0.9c0.1,0.6-0.3,1.2-0.9,1.4c-0.6,0.1-1.3-0.3-1.4-0.9
			C900.9,377.1,901.3,376.5,901.9,376.3z M904.9,386.3l-1.8,0.4l-1.4-6.6l1.8-0.4L904.9,386.3z"/>
		<path fill="#5ABCC9" d="M906.3,379.1l1.7-0.3l0.1,0.5c0.4-0.5,1.1-0.9,1.8-1.1c1.8-0.4,3.6,0.8,4,2.8c0.2,0.9,0,1.8-0.4,2.5
			c-0.4,0.8-1.3,1.4-2.3,1.6c-0.7,0.1-1.3,0.1-1.9-0.2l0.8,3.8l-1.8,0.4L906.3,379.1z M908.9,383.1c0.4,0.4,1.1,0.6,1.8,0.5
			c1-0.2,1.6-1.1,1.4-2.2c-0.2-1-1-1.7-2.1-1.5c-0.7,0.1-1.2,0.6-1.5,1.2L908.9,383.1z"/>
		<path fill="#5ABCC9" d="M923.1,382.6l-1.7,0.3l-0.1-0.5c-0.5,0.6-1,0.9-1.7,1c-1,0.2-2,0-2.7-0.6c-0.6-0.5-1.1-1.2-1.3-2.2
			c-0.4-2,0.7-3.8,2.6-4.1c0.8-0.2,1.5,0,2.1,0.3l-0.1-0.5l1.7-0.3L923.1,382.6z M920.4,378.6c-0.5-0.4-1.1-0.6-1.8-0.5
			c-1,0.2-1.5,1.2-1.3,2.2c0.2,1,1.1,1.7,2.1,1.4c0.7-0.1,1.2-0.6,1.4-1.1L920.4,378.6z"/>
		<path fill="#5ABCC9" d="M927.6,381.7l-1.8,0.4l-2-9.7l1.8-0.4L927.6,381.7z"/>
	</g>
	<g>
		<g>
			<path fill="#798F9C" d="M871,421.9l3.2-6.6l0.9-0.2l1.1,5.3l1.3-0.3l0.2,1.2l-1.3,0.3l0.4,2.1l-1.2,0.2l-0.4-2.1l-4,0.8
				L871,421.9z M874.9,420.8l-0.6-2.9l-1.7,3.3L874.9,420.8z"/>
			<path fill="#798F9C" d="M880.7,413.9c2.1-0.4,3.3,1.4,3.8,3.8c0.5,2.4,0.1,4.5-2,5c-2.1,0.4-3.3-1.4-3.8-3.8
				S878.6,414.4,880.7,413.9z M880.9,415.1c-1.3,0.3-1.4,1.9-1,3.6c0.3,1.7,1,3.2,2.4,2.9c1.3-0.3,1.4-1.9,1-3.6
				C883,416.3,882.3,414.8,880.9,415.1z"/>
			<path fill="#798F9C" d="M886.8,419c-0.2-1,0.2-1.9,0.9-2.5c-0.5-0.2-1-0.8-1.1-1.4c-0.3-1.2,0.6-2.5,1.9-2.7
				c1.4-0.3,2.6,0.5,2.8,1.8c0.1,0.6-0.1,1.3-0.5,1.7c0.9,0.3,1.6,1,1.8,2c0.3,1.5-0.7,3-2.4,3.3C888.6,421.5,887.1,420.5,886.8,419
				z M887.7,414.8c0.1,0.6,0.7,1,1.4,0.9c0.7-0.1,1.1-0.7,0.9-1.3c-0.1-0.6-0.7-1-1.4-0.9C888,413.6,887.6,414.2,887.7,414.8z
				 M888,418.8c0.2,0.9,1,1.4,2,1.2s1.6-1,1.4-1.9c-0.2-0.9-1-1.4-2-1.2S887.8,417.9,888,418.8z"/>
			<path fill="#798F9C" d="M898.2,415.6l0.2,1l-3.7,0.7l-0.2-1L898.2,415.6z"/>
			<path fill="#798F9C" d="M901.5,411l0.1,1.8c0.2-0.1,0.5-0.3,0.8-0.3c1.7-0.3,3.2,0.7,3.5,2.3c0.3,1.6-0.6,3.2-2.3,3.5
				c-1,0.2-2.1-0.1-2.7-0.7l0.8-0.9c0.4,0.4,1.1,0.6,1.7,0.5c1-0.2,1.5-1.1,1.3-2.1c-0.2-1-1-1.6-2.1-1.4c-0.5,0.1-0.9,0.4-1.2,0.8
				l-0.9,0l-0.3-4.4l4-0.8l0.2,1.2L901.5,411z"/>
			<path fill="#798F9C" d="M907.5,414.5l3.2-6.6l0.9-0.2l1.1,5.3l1.3-0.3l0.2,1.2l-1.3,0.3l0.4,2.1l-1.2,0.2l-0.4-2.1l-4,0.8
				L907.5,414.5z M911.4,413.3l-0.6-2.9l-1.7,3.3L911.4,413.3z"/>
			<path fill="#798F9C" d="M914.9,413l3.2-6.6l0.9-0.2l1.1,5.3l1.3-0.3l0.2,1.2l-1.3,0.3l0.4,2.1l-1.2,0.2l-0.4-2.1l-4,0.8
				L914.9,413z M918.9,411.8l-0.6-2.9l-1.7,3.3L918.9,411.8z"/>
			<path fill="#798F9C" d="M926.7,409.8l0.2,1l-3.7,0.7l-0.2-1L926.7,409.8z"/>
			<path fill="#798F9C" d="M930.9,403.7c2.1-0.4,3.3,1.4,3.8,3.8c0.5,2.4,0.1,4.5-2,5s-3.3-1.4-3.8-3.8S928.7,404.1,930.9,403.7z
				 M931.1,404.8c-1.3,0.3-1.4,1.9-1,3.6s1,3.2,2.4,2.9s1.4-1.9,1-3.6S932.4,404.6,931.1,404.8z"/>
			<path fill="#798F9C" d="M936.2,405.2l-0.2-1.2l1.8-1.6l0.9-0.2l1.7,8.5l-1.2,0.2l-1.4-7L936.2,405.2z"/>
			<path fill="#798F9C" d="M943.2,410.2l2.1-8.1l-3.9,0.8l-0.2-1.2l5.4-1.1l0.2,0.8l-2.2,8.5L943.2,410.2z"/>
			<path fill="#798F9C" d="M949.4,406.2c-0.2-1,0.2-1.9,0.9-2.5c-0.5-0.2-1-0.8-1.1-1.4c-0.3-1.2,0.6-2.5,1.9-2.7s2.6,0.5,2.8,1.8
				c0.1,0.6-0.1,1.3-0.5,1.7c0.9,0.3,1.6,1,1.8,2c0.3,1.5-0.7,3-2.4,3.3C951.2,408.7,949.7,407.7,949.4,406.2z M950.4,402
				c0.1,0.6,0.7,1,1.4,0.9s1.1-0.7,0.9-1.3c-0.1-0.6-0.7-1-1.4-0.9S950.3,401.4,950.4,402z M950.6,406c0.2,0.9,1,1.4,2,1.2
				c1-0.2,1.6-1,1.4-1.9c-0.2-0.9-1-1.4-2-1.2C951,404.3,950.4,405.1,950.6,406z"/>
		</g>
	</g>
	<g>
		<g>
			<path fill="#798F9C" d="M876.9,440.7c0.3-0.3,0.8-0.8,1.6-1c0.8-0.2,1.7,0.1,2.3,0.6c0.5,0.4,0.8,0.9,1,1.9l0.6,2.8l-1.2,0.2
				l-0.6-2.9c-0.1-0.7-0.4-1-0.6-1.3c-0.3-0.3-0.8-0.4-1.3-0.3c-0.8,0.2-1.2,0.7-1.5,1.2l0.8,3.9l-1.2,0.2l-1.8-8.6l1.2-0.2
				L876.9,440.7z"/>
			<path fill="#798F9C" d="M888.9,443.1c-0.4,0.5-1,0.9-1.6,1c-0.5,0.1-1.1,0.1-1.5-0.1c-1-0.3-1.8-1.2-2-2.3
				c-0.2-1.1,0.2-2.2,0.9-2.9c0.3-0.3,0.8-0.5,1.3-0.7c0.6-0.1,1.3-0.1,1.9,0.3l-0.1-0.5l1.1-0.2l1.2,5.7l-1.1,0.2L888.9,443.1z
				 M888.2,439.7c-0.4-0.4-1.1-0.6-1.8-0.5c-1.1,0.2-1.7,1.3-1.5,2.3c0.2,1,1.2,1.7,2.3,1.5c0.6-0.1,1.1-0.5,1.4-1.1L888.2,439.7z"
				/>
			<path fill="#798F9C" d="M895,437.5c-0.1,0-0.3,0-0.5,0c-0.6,0.1-1.1,0.7-1.3,1.3l0.8,3.8l-1.2,0.2l-1.2-5.7l1.1-0.2l0.1,0.7
				c0.2-0.4,0.7-1,1.6-1.1c0.1,0,0.3-0.1,0.5-0.1L895,437.5z"/>
			<path fill="#798F9C" d="M896.4,433.1l1.2-0.2l1.8,8.6l-1.2,0.2L896.4,433.1z"/>
			<path fill="#798F9C" d="M906,439.6c-0.4,0.5-1,0.9-1.6,1c-0.5,0.1-1.1,0.1-1.5-0.1c-1-0.3-1.8-1.2-2-2.3
				c-0.2-1.1,0.2-2.2,0.9-2.9c0.3-0.3,0.8-0.5,1.3-0.7c0.6-0.1,1.3-0.1,1.9,0.3l-0.1-0.5l1.1-0.2l1.2,5.7l-1.1,0.2L906,439.6z
				 M905.3,436.2c-0.4-0.4-1.1-0.6-1.8-0.5c-1.1,0.2-1.7,1.3-1.5,2.3c0.2,1,1.2,1.7,2.3,1.5c0.6-0.1,1.1-0.5,1.4-1.1L905.3,436.2z"
				/>
			<path fill="#798F9C" d="M910,434c0.2-0.4,0.8-0.9,1.6-1c0.8-0.2,1.7,0.1,2.3,0.6c0.5,0.4,0.8,0.9,1,1.9l0.6,2.8l-1.2,0.2
				l-0.6-2.9c-0.1-0.7-0.4-1-0.6-1.3c-0.3-0.3-0.8-0.4-1.3-0.3c-0.8,0.2-1.2,0.7-1.5,1.2l0.8,3.9l-1.2,0.2l-1.2-5.7l1.1-0.2L910,434
				z"/>
			<path fill="#798F9C" d="M926.5,437.3c-0.7,0.8-1.7,1.4-2.9,1.7c-2.9,0.6-5.8-1.3-6.4-4.3c-0.6-3,1.3-5.8,4.2-6.4
				c2.8-0.6,5.5,0.9,6.1,3.8c0.3,1.7-0.1,3.3-1.7,3.6c-0.7,0.1-1.2,0-1.7-0.4c-0.2,0.3-0.6,0.9-1.5,1.1c-1.2,0.2-2.6-0.4-3-2.1
				c-0.3-1.7,0.7-2.9,1.9-3.1c0.8-0.2,1.3,0.1,1.5,0.2l-0.1-0.4l1-0.2l0.6,3c0.1,0.3,0.1,0.6,0.3,0.7c0.2,0.2,0.4,0.3,0.7,0.2
				c0.8-0.2,1-1.1,0.8-2.3c-0.5-2.2-2.5-3.5-4.9-3c-2.3,0.5-3.8,2.8-3.3,5.2c0.5,2.4,2.8,3.9,5.1,3.5c0.9-0.2,1.7-0.7,2.3-1.4
				L926.5,437.3z M923.3,432.4c-0.3-0.2-0.8-0.4-1.4-0.3c-0.7,0.1-1.4,0.8-1.1,1.9c0.2,1.1,1.1,1.4,1.8,1.3c0.6-0.1,0.9-0.5,1.1-0.9
				L923.3,432.4z"/>
			<path fill="#798F9C" d="M934.3,434.4c-0.2,0.1-0.5,0.2-0.9,0.3c-0.7,0.1-1.3,0-1.8-0.3c-0.4-0.3-0.6-0.8-0.8-1.4l-0.5-2.6
				l-1.5,0.3l-0.2-1l1.5-0.3l-0.3-1.6l1.2-0.2l0.3,1.6l1.8-0.4l0.2,1l-1.8,0.4l0.5,2.7c0.1,0.3,0.1,0.6,0.3,0.7
				c0.2,0.2,0.5,0.2,0.9,0.1c0.2,0,0.5-0.1,0.6-0.2L934.3,434.4z"/>
			<path fill="#798F9C" d="M936.6,431.2c0.3,0.9,1.2,1.6,2.2,1.4c0.9-0.2,1.2-0.7,1.5-1.1l0.9,0.6c-0.3,0.6-1,1.3-2.2,1.6
				c-1.7,0.3-3.2-0.7-3.6-2.4s0.6-3.2,2.2-3.6c1.6-0.3,3,0.7,3.4,2.4c0,0,0,0.1,0,0.2L936.6,431.2z M936.5,430.2l3.1-0.6
				c-0.3-0.7-1.1-1.1-1.8-0.9C937.1,428.8,936.5,429.4,936.5,430.2z"/>
			<path fill="#798F9C" d="M947.8,431.1c-0.4,0.5-1,0.9-1.6,1c-0.5,0.1-1.1,0.1-1.5-0.1c-1-0.3-1.8-1.2-2-2.3
				c-0.2-1.1,0.2-2.2,0.9-2.9c0.3-0.3,0.8-0.5,1.3-0.7c0.6-0.1,1.3-0.1,1.9,0.3l-0.1-0.5l1.1-0.2l1.2,5.7l-1.1,0.2L947.8,431.1z
				 M947.1,427.7c-0.4-0.4-1.1-0.6-1.8-0.5c-1.1,0.2-1.7,1.3-1.5,2.3c0.2,1,1.2,1.7,2.3,1.5c0.6-0.1,1.1-0.5,1.4-1.1L947.1,427.7z"
				/>
			<path fill="#798F9C" d="M951.7,424.9l0.1,0.5c0.2-0.3,0.8-0.9,1.5-1c0.8-0.2,1.6,0.1,2.2,0.5c0.4-0.6,1-1.2,2-1.4
				c0.8-0.2,1.6,0,2.2,0.5c0.4,0.4,0.7,0.9,0.9,1.9l0.6,2.9l-1.2,0.2l-0.6-3.1c-0.1-0.6-0.3-0.9-0.6-1.1c-0.3-0.3-0.7-0.4-1.2-0.3
				c-0.8,0.2-1.3,0.7-1.6,1.2c0.1,0.3,0.2,0.6,0.3,1l0.6,2.9l-1.2,0.2l-0.6-3.1c-0.1-0.6-0.3-0.9-0.6-1.1c-0.3-0.3-0.8-0.4-1.2-0.3
				c-0.7,0.1-1.2,0.7-1.4,1.1l0.8,3.9l-1.2,0.2l-1.2-5.7L951.7,424.9z"/>
			<path fill="#798F9C" d="M964.1,427.5c-0.4-0.4-0.7-0.9-0.9-1.9l-0.6-2.9l1.2-0.2l0.6,3.1c0.1,0.6,0.3,0.9,0.6,1.1
				c0.3,0.3,0.8,0.4,1.2,0.3c0.7-0.1,1.2-0.7,1.4-1.1l-0.8-3.9l1.2-0.2l1.2,5.7l-1.1,0.2l-0.1-0.5c-0.2,0.3-0.8,0.8-1.5,1
				C965.5,428.2,964.6,428,964.1,427.5z"/>
			<path fill="#798F9C" d="M973.5,429.4l-1.2,0.2l-1.8-8.6l1.1-0.2l0.1,0.5c0.4-0.6,1-0.9,1.7-1c0.5-0.1,1-0.1,1.5,0.1
				c1,0.3,1.8,1.2,2,2.3c0.2,1.1-0.2,2.2-0.9,2.9c-0.3,0.3-0.8,0.6-1.4,0.7c-0.7,0.1-1.3,0-1.9-0.3L973.5,429.4z M972.5,424.7
				c0.5,0.4,1.2,0.6,1.7,0.5c1.1-0.2,1.7-1.3,1.5-2.3c-0.2-1-1.1-1.7-2.2-1.5c-0.7,0.1-1.2,0.6-1.5,1.1L972.5,424.7z"/>
			<path fill="#798F9C" d="M983.2,424.4c-0.2,0.1-0.5,0.2-0.9,0.3c-0.7,0.1-1.3,0-1.8-0.3c-0.4-0.3-0.6-0.8-0.8-1.4l-0.5-2.6
				l-1.5,0.3l-0.2-1l1.5-0.3l-0.3-1.6l1.2-0.2l0.3,1.6l1.8-0.4l0.2,1l-1.8,0.4l0.5,2.7c0.1,0.3,0.1,0.6,0.3,0.7
				c0.2,0.2,0.5,0.2,0.9,0.1c0.2,0,0.5-0.1,0.6-0.2L983.2,424.4z"/>
			<path fill="#798F9C" d="M985.7,423c-0.4-0.4-0.7-0.9-0.9-1.9l-0.6-2.9l1.2-0.2l0.6,3.1c0.1,0.6,0.3,0.9,0.6,1.1
				c0.3,0.3,0.8,0.4,1.2,0.3c0.7-0.1,1.2-0.7,1.4-1.1l-0.8-3.9l1.2-0.2l1.2,5.7l-1.1,0.2l-0.1-0.5c-0.2,0.3-0.8,0.8-1.5,1
				C987.1,423.7,986.3,423.5,985.7,423z"/>
			<path fill="#798F9C" d="M995.5,417c-0.1,0-0.3,0-0.5,0c-0.6,0.1-1.1,0.7-1.3,1.3l0.8,3.8l-1.2,0.2l-1.2-5.7l1.1-0.2l0.1,0.7
				c0.2-0.4,0.7-1,1.6-1.1c0.1,0,0.3-0.1,0.5-0.1L995.5,417z"/>
			<path fill="#798F9C" d="M998.7,415.9c0.2-0.4,0.8-0.9,1.6-1c0.8-0.2,1.7,0.1,2.3,0.6c0.5,0.4,0.8,0.9,1,1.9l0.6,2.8l-1.2,0.2
				l-0.6-2.9c-0.1-0.7-0.4-1-0.6-1.3c-0.3-0.3-0.8-0.4-1.3-0.3c-0.8,0.2-1.2,0.7-1.5,1.2l0.8,3.9l-1.2,0.2l-1.2-5.7l1.1-0.2
				L998.7,415.9z"/>
			<path fill="#798F9C" d="M1007.5,417.8c0.5-0.1,0.9,0.2,1,0.7c0.1,0.5-0.2,0.9-0.7,1s-0.9-0.2-1-0.7S1007,417.9,1007.5,417.8z"/>
			<path fill="#798F9C" d="M1016.3,416.4c-0.3,0.9-1.2,1.6-2.3,1.9c-1.8,0.4-3.3-0.7-3.7-2.4c-0.3-1.7,0.7-3.2,2.4-3.6
				c1-0.2,2,0.1,2.7,0.7l-0.7,0.9c-0.4-0.4-1-0.7-1.8-0.5c-1,0.2-1.7,1.2-1.4,2.3c0.2,1.1,1.2,1.7,2.3,1.5c0.8-0.2,1.2-0.7,1.5-1.2
				L1016.3,416.4z"/>
			<path fill="#798F9C" d="M1019.8,410.9c1.7-0.3,3.2,0.7,3.6,2.4c0.3,1.7-0.7,3.2-2.3,3.6s-3.2-0.7-3.6-2.4
				C1017.1,412.7,1018.1,411.2,1019.8,410.9z M1020.8,415.7c1.1-0.2,1.6-1.2,1.4-2.3c-0.2-1-1.1-1.7-2.2-1.5
				c-1.1,0.2-1.6,1.2-1.4,2.3S1019.7,415.9,1020.8,415.7z"/>
			<path fill="#798F9C" d="M1026.1,409.7l0.1,0.5c0.2-0.3,0.8-0.9,1.5-1c0.8-0.2,1.6,0.1,2.2,0.5c0.4-0.6,1-1.2,2-1.4
				c0.8-0.2,1.6,0,2.2,0.5c0.4,0.4,0.7,0.9,0.9,1.9l0.6,2.9l-1.2,0.2l-0.6-3.1c-0.1-0.6-0.3-0.9-0.6-1.1c-0.3-0.3-0.7-0.4-1.2-0.3
				c-0.8,0.2-1.3,0.7-1.6,1.2c0.1,0.3,0.2,0.6,0.3,1l0.6,2.9l-1.2,0.2l-0.6-3.1c-0.1-0.6-0.3-0.9-0.6-1.1c-0.3-0.3-0.8-0.4-1.2-0.3
				c-0.7,0.1-1.2,0.7-1.4,1.1l0.8,3.9l-1.2,0.2l-1.2-5.7L1026.1,409.7z"/>
		</g>
	</g>
	
		<rect x="814.5" y="477.2" transform="matrix(0.9798 -0.2001 0.2001 0.9798 -77.4449 200.7539)" fill="#5ABCC9" width="279.6" height="12.4"/>
	<g>
		<path fill="#0D323F" d="M808.1,357.8l1.6,8c0.2,1.2,0.1,2-0.4,2.7c-0.5,0.7-1.2,1.2-2.1,1.3c-0.9,0.2-1.8,0-2.5-0.4
			c-0.7-0.4-1.2-1.2-1.4-2.4l-1.6-8l-2.9,0.6l1.6,7.8c0.4,2.1,1.4,3.5,2.8,4.4c1.3,0.7,2.9,0.9,4.6,0.6c1.7-0.3,3.1-1.2,4-2.4
			c1-1.4,1.3-3.1,0.9-5.2l-1.1-5.5l0.8-2.6L808.1,357.8z"/>
		<path fill="#0D323F" d="M810.5,381.9l-18,3.7l-3.7-18c-2-9.9,4.4-19.6,14.3-21.6c9.9-2,19.6,4.4,21.6,14.3
			C826.9,370.2,820.4,379.9,810.5,381.9 M795.2,381.7l14.7-3c8.1-1.7,13.4-9.6,11.7-17.7c-1.7-8.1-9.6-13.4-17.7-11.7
			c-8.1,1.7-13.4,9.6-11.7,17.7L795.2,381.7z"/>
	</g>
</g>
<polyline fill="#5ABCC9" points="1546.3,368.9 1165.8,446.6 1121.7,230.5 1502.1,152.8 "/>
<path fill="#0D323F" d="M1420.5,293.6l-2.7-13.3c-0.9-4.5-2.4-6.9-4.6-8.6c-2.7-2.1-6.3-3.1-9.9-2.4"/>
<path fill="#0D323F" d="M1403.3,269.3c-2.8,0.6-5,2-6.6,3.9l-0.4-1.9l-0.3,0.1l-6.7,1.4l5.3,26.1l7-1.4l-3.5-17
	c0.7-1.5,2.7-3.9,5.7-4.5c1.6-0.3,3.1-0.1,4.2,0.7c1.2,0.8,2,2,2.6,4.6l2.8,13.9l7-1.4"/>
<path fill="#0D323F" d="M1359.5,296.5c-0.7,1.4-2.5,3.9-5.4,4.5c-1.3,0.3-2.9,0.2-4.3-0.8c-1-0.8-1.7-1.8-2.2-4.2l-2.9-14.1l-7,1.4
	l2.8,13.8c0.8,3.9,2.3,6.4,4.4,8.1c2.6,2.1,6.1,3.1,9.8,2.4c2.4-0.5,4.6-1.7,6.3-3.8l0.4,1.9l0.3-0.1l6.7-1.4l-5.3-26.1l-7,1.4
	L1359.5,296.5z"/>
<path fill="#0D323F" d="M1333.3,305.5c-1.7,0.4-3,0.1-3.8-0.6c-0.7-0.6-1.2-1.5-1.5-3.1l-2-10l7.3-1.5l-1.2-5.9l-7.3,1.5l-1.5-7.3
	l-7,1.4l1.5,7.3l-3.1,0.6l1.2,5.9l3.1-0.6l1.9,9.2c0.8,3.7,1.8,5.9,3.5,7.4c2.3,2,5.6,2.8,9.8,1.9c1.3-0.3,3.4-0.9,4.3-1.4l-2.3-5.7
	C1335.6,304.9,1334.3,305.3,1333.3,305.5"/>
<path fill="#0D323F" d="M1375.5,275.6l-7,1.4l2.9,14.1c0,0.2,0.1,0.4,0.1,0.6l0,0l2.3,11.4l7-1.4l-2.3-11.4l0,0
	c-1-5,1.7-8.5,7.5-9.7l-1.4-7.1c-3.7,0.8-6.6,2.2-8.7,4.1L1375.5,275.6z"/>
<path fill="#0D323F" d="M1298.2,291.2c-2.6,0.5-4.9,1.8-6.7,3.5l-0.4-1.9l-6.5,1.3l2.8,13.6l5.4,26.4l6.5-1.3l-5.4-26.4
	c-0.8-4,1.8-7.8,5.7-8.6c4-0.8,7.8,1.8,8.6,5.7c0.8,3.9-1.7,7.8-5.7,8.6l-4.4,0.9l1.3,6.5l4.4-0.9c7.5-1.5,12.3-8.8,11-16.2l0-0.3
	C1313.2,294.6,1305.8,289.7,1298.2,291.2"/>
<path fill="#0D323F" d="M1277.7,285.1l-7.2,1.5l-0.1,0l4.6,22.4c0.7,3.4,0.2,5.7-1.1,7.5c-1.3,1.9-3.4,3.2-5.9,3.7
	c-2.5,0.5-5,0.1-6.9-1.1c-1.9-1.1-3.2-3.1-3.9-6.5l-4.6-22.4l-7.3,1.5l4.5,21.8c1.2,5.8,3.7,9.4,7.4,11.6c3.4,2,7.9,2.4,12.1,1.6
	c4.3-0.9,8.1-3,10.5-6.2c2.5-3.4,3.5-7.8,2.3-13.6l-3.3-16.1l0.1,0l2-6.4L1277.7,285.1L1277.7,285.1z"/>
<polyline fill="#5ABCC9" points="769.4,550.5 1149.9,472.8 1194,688.9 "/>
<polyline fill="#FFFFFF" points="1214.4,684.7 1170.3,468.6 1552.3,390.6 "/>
<g>
	<path fill="#0C323F" d="M1321.9,516.9l-7.4,1.5l1.4,6.7l-2.9,0.6l-3-14.9l2.9-0.6l1.2,5.6l7.4-1.5l-1.2-5.6l2.9-0.6l3,14.9
		l-2.9,0.6L1321.9,516.9z"/>
	<path fill="#0C323F" d="M1339.3,520.4l-2.7,0.5l-0.2-0.8c-0.7,0.9-1.6,1.4-2.7,1.6c-1.5,0.3-3.1-0.1-4.2-0.9
		c-1-0.8-1.8-1.9-2.1-3.3c-0.6-3,1.2-5.8,4-6.4c1.2-0.2,2.3-0.1,3.2,0.4l-0.2-0.8l2.7-0.5L1339.3,520.4z M1335.2,514.2
		c-0.7-0.6-1.8-1-2.8-0.8c-1.6,0.3-2.4,1.9-2.1,3.4c0.3,1.6,1.7,2.6,3.3,2.3c1-0.2,1.9-0.9,2.2-1.8L1335.2,514.2z"/>
	<path fill="#0C323F" d="M1347.1,510.6c-0.2,0-0.6,0-1,0.1c-1.2,0.2-2,1.3-2.2,2l1.3,6.5l-2.8,0.6l-2.1-10.3l2.7-0.5l0.2,1
		c0.5-0.9,1.5-1.6,2.7-1.9c0.4-0.1,0.6-0.1,1-0.1L1347.1,510.6z"/>
	<path fill="#0C323F" d="M1353.8,517.4l-2.8,0.6l-3.1-15.1l2.8-0.6L1353.8,517.4z"/>
	<path fill="#0C323F" d="M1366.8,514.7l-2.7,0.5l-0.2-0.8c-0.7,0.9-1.6,1.4-2.7,1.6c-1.5,0.3-3.1-0.1-4.2-0.9
		c-1-0.8-1.8-1.9-2.1-3.3c-0.6-3,1.2-5.8,4-6.4c1.2-0.2,2.3-0.1,3.2,0.4l-0.2-0.8l2.7-0.5L1366.8,514.7z M1362.7,508.6
		c-0.7-0.6-1.8-1-2.8-0.8c-1.6,0.3-2.4,1.9-2.1,3.4c0.3,1.6,1.7,2.6,3.3,2.3c1-0.2,1.9-0.9,2.2-1.8L1362.7,508.6z"/>
	<path fill="#0C323F" d="M1369.9,514.1l-2.1-10.3l2.7-0.5l0.2,0.8c0.7-0.8,1.6-1.4,2.7-1.6c1.4-0.3,2.9,0.1,3.9,0.9
		c0.8,0.7,1.4,1.6,1.8,3.4l1.1,5.3l-2.8,0.6l-1.1-5.5c-0.2-1-0.6-1.5-1-1.8c-0.4-0.3-1-0.4-1.7-0.3c-1.2,0.2-2,1.2-2.2,1.8l1.4,6.7
		L1369.9,514.1z"/>
	<path fill="#0C323F" d="M1393.8,502.2l1.4,6.7l-2.9,0.6l-1.4-6.7l-6.8-7.1l3.3-0.7l4.3,4.6l2.2-5.9l3.3-0.7L1393.8,502.2z"/>
	<path fill="#0C323F" d="M1409.6,495.3l2.1,10.3l-2.7,0.5l-0.2-0.8c-0.7,0.9-1.6,1.4-2.6,1.6c-1.4,0.3-2.8-0.1-3.8-0.9
		c-0.8-0.7-1.4-1.7-1.7-3.2l-1.1-5.5l2.8-0.6l1.1,5.6c0.2,0.9,0.5,1.4,0.9,1.7c0.5,0.4,1.2,0.4,1.7,0.3c1.2-0.2,1.9-1.2,2.1-1.8
		l-1.4-6.7L1409.6,495.3z"/>
</g>
<g>
	<path fill="#5ABCC9" d="M1318.4,545.8l0.8,3.9l-1.8,0.4l-2-9.6l3.6-0.7c1.2-0.3,2-0.1,2.7,0.4c0.6,0.4,1,1.1,1.2,1.8
		c0.2,0.8,0,1.5-0.3,2.1c-0.4,0.7-1.1,1.1-2.3,1.4L1318.4,545.8z M1319.7,543.8c0.6-0.1,0.9-0.3,1.1-0.6c0.2-0.3,0.2-0.6,0.1-0.9
		s-0.2-0.6-0.5-0.8c-0.3-0.2-0.6-0.3-1.2-0.1l-1.7,0.3l0.5,2.4L1319.7,543.8z"/>
	<path fill="#5ABCC9" d="M1329.2,542.4c-0.1,0-0.4,0-0.7,0.1c-0.8,0.2-1.3,0.8-1.4,1.3l0.9,4.2l-1.8,0.4l-1.4-6.6l1.7-0.3l0.1,0.7
		c0.3-0.6,1-1,1.8-1.2c0.3-0.1,0.4-0.1,0.6-0.1L1329.2,542.4z"/>
	<path fill="#5ABCC9" d="M1331.3,536.7c0.6-0.1,1.3,0.3,1.4,0.9c0.1,0.6-0.3,1.2-0.9,1.4c-0.6,0.1-1.3-0.3-1.4-0.9
		C1330.2,537.4,1330.6,536.8,1331.3,536.7z M1334.2,546.7l-1.8,0.4l-1.4-6.6l1.8-0.4L1334.2,546.7z"/>
	<path fill="#5ABCC9" d="M1336.9,546.1l-1.4-6.6l1.7-0.3l0.1,0.5c0.4-0.5,1-0.9,1.7-1.1c0.9-0.2,1.8,0.1,2.5,0.6
		c0.5,0.4,0.9,1.1,1.2,2.2l0.7,3.4l-1.8,0.4l-0.7-3.5c-0.1-0.7-0.4-1-0.7-1.2c-0.3-0.2-0.7-0.2-1.1-0.2c-0.8,0.2-1.3,0.8-1.4,1.2
		l0.9,4.3L1336.9,546.1z"/>
	<path fill="#5ABCC9" d="M1351.9,541.6c-0.6,1.2-1.5,1.9-2.7,2.1c-2.1,0.4-3.9-0.8-4.3-2.7c-0.4-1.9,0.8-3.8,2.9-4.2
		c1.2-0.2,2.3,0.1,3.1,0.8l-1,1.4c-0.5-0.4-1.1-0.6-1.7-0.5c-1,0.2-1.6,1.2-1.4,2.2c0.2,1,1.1,1.7,2.2,1.4c0.7-0.1,1.2-0.7,1.4-1.2
		L1351.9,541.6z"/>
	<path fill="#5ABCC9" d="M1353,532.3c0.6-0.1,1.3,0.3,1.4,0.9c0.1,0.6-0.3,1.2-0.9,1.4c-0.6,0.1-1.3-0.3-1.4-0.9
		C1351.9,533,1352.4,532.4,1353,532.3z M1356,542.2l-1.8,0.4l-1.4-6.6l1.8-0.4L1356,542.2z"/>
	<path fill="#5ABCC9" d="M1357.3,535l1.7-0.3l0.1,0.5c0.4-0.5,1.1-0.9,1.8-1.1c1.8-0.4,3.6,0.8,4,2.8c0.2,0.9,0,1.8-0.4,2.5
		c-0.4,0.8-1.3,1.4-2.3,1.6c-0.7,0.1-1.3,0.1-1.9-0.2l0.8,3.8l-1.8,0.4L1357.3,535z M1360,539c0.4,0.4,1.1,0.6,1.8,0.5
		c1-0.2,1.6-1.1,1.4-2.2c-0.2-1-1-1.7-2.1-1.5c-0.7,0.1-1.2,0.6-1.5,1.2L1360,539z"/>
	<path fill="#5ABCC9" d="M1374.2,538.5l-1.7,0.3l-0.1-0.5c-0.5,0.6-1,0.9-1.7,1c-1,0.2-2,0-2.7-0.6c-0.6-0.5-1.1-1.2-1.3-2.2
		c-0.4-2,0.7-3.8,2.6-4.1c0.8-0.2,1.5,0,2.1,0.3l-0.1-0.5l1.7-0.3L1374.2,538.5z M1371.5,534.6c-0.5-0.4-1.1-0.6-1.8-0.5
		c-1,0.2-1.5,1.2-1.3,2.2c0.2,1,1.1,1.7,2.1,1.5c0.7-0.1,1.2-0.6,1.4-1.1L1371.5,534.6z"/>
	<path fill="#5ABCC9" d="M1378.7,537.6l-1.8,0.4l-2-9.7l1.8-0.4L1378.7,537.6z"/>
</g>
<g>
	<path fill="#0D323F" d="M1259.2,513.7l1.6,8c0.2,1.2,0.1,2-0.4,2.7c-0.5,0.7-1.2,1.2-2.1,1.4c-0.9,0.2-1.8,0-2.5-0.4
		c-0.7-0.4-1.2-1.2-1.4-2.4l-1.6-8l-2.9,0.6l1.6,7.8c0.4,2.1,1.4,3.5,2.8,4.4c1.3,0.7,2.9,0.9,4.6,0.6c1.7-0.3,3.1-1.2,4-2.4
		c1-1.4,1.3-3.1,0.9-5.2l-1.1-5.5l0.8-2.6L1259.2,513.7z"/>
	<path fill="#0D323F" d="M1261.6,537.8l-18,3.7l-3.7-18c-2-9.9,4.4-19.6,14.3-21.6c9.9-2,19.6,4.4,21.6,14.3
		C1277.9,526.1,1271.5,535.8,1261.6,537.8 M1246.2,537.6l14.7-3c8.1-1.7,13.4-9.6,11.7-17.7c-1.7-8.1-9.6-13.4-17.7-11.7
		c-8.1,1.7-13.4,9.6-11.7,17.7L1246.2,537.6z"/>
</g>
<rect x="0" y="-10.2" fill="none" width="1360" height="537.2"/>
<line fill="none" x1="589.5" y1="527" x2="589.5" y2="620"/>
<g>
</g>
<g>
</g>
<g>
</g>
<g>
</g>
<g>
</g>
<g>
</g>
<g>
</g>
<g>
</g>
<g>
</g>
<g>
</g>
<g>
</g>
<g>
</g>
<g>
</g>
<g>
</g>
<g>
</g>
</svg>
