<?xml version="1.0" encoding="utf-8"?>
<!-- Generator: Adobe Illustrator 18.1.1, SVG Export Plug-In . SVG Version: 6.00 Build 0)  -->
<svg version="1.1" id="Layer_1" xmlns="http://www.w3.org/2000/svg" xmlns:xlink="http://www.w3.org/1999/xlink" x="0px" y="0px"
	 width="433px" height="709px" viewBox="0 0 433 709" enable-background="new 0 0 433 709" xml:space="preserve">
<g>
	<line fill="none" stroke="#1B3E4C" stroke-width="6.3247" stroke-miterlimit="10" x1="17.7" y1="254.4" x2="87.3" y2="184.8"/>
	<g>
		<path fill="none" stroke="#1B3E4C" stroke-width="6.3247" stroke-miterlimit="10" d="M20.9,259.5c0,4.9-4,8.8-8.9,8.8
			c-4.9,0-8.8-4-8.8-8.8c0-4.9,4-8.9,8.8-8.9C16.9,250.7,20.9,254.6,20.9,259.5z"/>
	</g>
</g>
<g>
	<line fill="none" stroke="#5BBCC9" stroke-width="6.3247" stroke-miterlimit="10" x1="442.2" y1="110.9" x2="304.9" y2="248.3"/>

		<rect x="293" y="238.3" fill="#FFFFFF" stroke="#5BBCC9" stroke-width="6.3247" stroke-miterlimit="10" width="21.9" height="21.8"/>
</g>
<g>
	<g>
		<path fill="none" stroke="#5BBCC9" stroke-width="6.3247" stroke-miterlimit="10" d="M447.7,268.7L248.8,467.7
			c-10.9,10.9-28.5,10.9-39.3,0l0,0c-10.8-10.8-10.8-28.4,0-39.3l35-35"/>
		<path fill="none" stroke="#5BBCC9" stroke-width="6.3247" stroke-miterlimit="10" d="M65.4,493.9L202,357.2
			c10.9-10.9,28.4-10.9,39.3,0l0,0c10.8,10.9,10.8,28.4,0,39.3l-4.4,4.4"/>
	</g>
</g>
<g>
	<g>
		<line fill="none" stroke="#5BBCC9" stroke-width="6.3247" stroke-miterlimit="10" x1="132.3" y1="137.3" x2="46.3" y2="51.3"/>
		<g>
			<path fill="none" stroke="#5BBCC9" stroke-width="6.3247" stroke-miterlimit="10" d="M44.3,74.6c7-7,6.4-18.9-1.3-26.6"/>
			<path fill="none" stroke="#5BBCC9" stroke-width="6.3247" stroke-miterlimit="10" d="M69.6,49.4c-7,7-18.9,6.4-26.6-1.3"/>
		</g>
	</g>
	<path fill="none" stroke="#5BBCC9" stroke-width="6.3247" stroke-miterlimit="10" d="M167.9,101.8l-50.6,50.6
		c-8.6,8.6-8.6,22.6,0,31.2c8.6,8.6,22.6,8.6,31.2,0c8.6-8.6,8.6-22.6,0-31.2L133,136.7"/>
</g>
<line fill="none" stroke="#5BBCC9" stroke-width="6.3247" stroke-miterlimit="10" x1="136" y1="133.4" x2="277.4" y2="-8"/>
<g>
	<line fill="none" stroke="#1B3E4C" stroke-width="6.3247" stroke-miterlimit="10" x1="476.1" y1="328" x2="261.7" y2="542.4"/>
</g>
<g>
	<path fill="none" stroke="#1B3E4C" stroke-width="6.3247" stroke-miterlimit="10" d="M290.2,547.6c-9-9-24.4-8.3-34.4,1.7"/>
	<path fill="none" stroke="#1B3E4C" stroke-width="6.3247" stroke-miterlimit="10" d="M257.5,515c9,9,8.3,24.4-1.7,34.4"/>
</g>
<line fill="none" stroke="#1B3E4C" stroke-width="6.3247" stroke-miterlimit="10" x1="439.5" y1="20.5" x2="65.1" y2="394.9"/>
<g>
	<path fill="none" stroke="#1B3E4C" stroke-width="6.3247" stroke-miterlimit="10" d="M70.9,402.5c0,7-5.7,12.7-12.7,12.7
		c-7,0-12.7-5.7-12.7-12.7c0-7,5.7-12.7,12.7-12.7C65.2,389.8,70.9,395.5,70.9,402.5z"/>
</g>
<g>
	<path fill="#5BBCC9" stroke="#5BBCC9" stroke-width="7.1904" stroke-miterlimit="10" d="M301.9,341.5c4.2,0.7,7,4.7,6.3,8.9
		c-0.7,4.2-4.7,7-8.9,6.3c-4.2-0.7-7-4.7-6.3-8.9C293.7,343.6,297.7,340.8,301.9,341.5z"/>
	<path fill="#1B3E4C" stroke="#1B3E4C" stroke-width="4.5806" stroke-miterlimit="10" d="M373.8,247.6c8.4,1.4,14.1,9.4,12.7,17.8
		c-1.4,8.4-9.4,14.1-17.8,12.7c-8.4-1.4-14.1-9.4-12.7-17.8C357.4,251.8,365.4,246.1,373.8,247.6z"/>
	<path fill="#5BBCC9" stroke="#5BBCC9" stroke-width="7.1904" stroke-miterlimit="10" d="M258.6,290.3c4.2,0.7,7,4.7,6.3,8.9
		c-0.7,4.2-4.7,7-8.9,6.3c-4.2-0.7-7-4.7-6.3-8.9C250.4,292.4,254.4,289.6,258.6,290.3z"/>
	<path fill="none" stroke="#1B3E4C" stroke-width="4.5806" stroke-miterlimit="10" d="M318.5,291.9c5.6,0.9,9.4,6.2,8.4,11.8
		c-0.9,5.6-6.2,9.4-11.8,8.4c-5.6-0.9-9.4-6.2-8.4-11.8C307.6,294.7,312.9,290.9,318.5,291.9z"/>
</g>
<path fill="#1B3E4C" d="M57.3,516.7l-14.1-14.2c-1.6-1.6-4.1-1.6-5.7,0l-1.4,1.4l-2.8-2.8c-3.9-3.9-10.2-3.9-14.1,0l0,0
	c-3.9,3.9-3.9,10.2,0,14.1l2.8,2.8l-1.4,1.4c-1.6,1.6-1.6,4.1,0,5.7l14.2,14.2c1.6,1.6,4.1,1.6,5.7,0l8.5-8.5l8.5-8.5
	C58.9,520.8,58.9,518.2,57.3,516.7z M24.6,515.4l-2.8-2.8c-2.4-2.4-2.4-6.3,0-8.8h0c2.4-2.4,6.4-2.4,8.8,0l2.8,2.8L29,511
	L24.6,515.4z M41.8,523.7c-1.6,1.6-4.1,1.6-5.7,0c-1.6-1.6-1.6-4.1,0-5.7c1.6-1.6,4.1-1.6,5.7,0C43.3,519.6,43.3,522.2,41.8,523.7
	L41.8,523.7z"/>
<line fill="none" stroke="#5BBCC9" stroke-width="6.3247" stroke-miterlimit="10" x1="59.9" y1="485.4" x2="75.3" y2="500.9"/>
<g>
	<path fill="#1B3E4C" d="M128.8,260.3c0-1.5-0.8-2.8-1.9-3.5L108.4,246l-18.5,10.8c-1.2,0.7-1.9,2-1.9,3.5v20.4
		c0,2.2,1.8,4.1,4.1,4.1h32.7c2.2,0,4.1-1.8,4.1-4.1L128.8,260.3z"/>
	<g>
		<polygon fill="#FFFFFF" points="108.4,270.6 91.5,260 108.4,250.1 125.3,260 		"/>
	</g>
</g>
<line fill="#5BBCC9" stroke="#5BBCC9" stroke-width="6.3247" stroke-miterlimit="10" x1="215.6" y1="162.7" x2="399.1" y2="-20.9"/>
<g>
	<path fill="#5BBCC9" d="M199,185.8c0,3.2-2.6,5.8-5.8,5.8c-3.2,0-5.8-2.6-5.8-5.8c0-3.2,2.6-5.8,5.8-5.8
		C196.4,180,199,182.6,199,185.8z"/>
	<path fill="#5BBCC9" d="M182.9,201.6c0,3.2-2.6,5.8-5.8,5.8c-3.2,0-5.8-2.6-5.8-5.8c0-3.2,2.6-5.8,5.8-5.8
		C180.3,195.8,182.9,198.4,182.9,201.6z"/>
	<path fill="#5BBCC9" d="M166.9,218.7c0,3.2-2.6,5.8-5.8,5.8c-3.2,0-5.8-2.6-5.8-5.8c0-3.2,2.6-5.8,5.8-5.8
		C164.3,212.9,166.9,215.5,166.9,218.7z"/>
	<path fill="#5BBCC9" d="M150.9,233.8c0,3.2-2.6,5.8-5.8,5.8c-3.2,0-5.8-2.6-5.8-5.8c0-3.2,2.6-5.8,5.8-5.8
		C148.3,228.1,150.9,230.6,150.9,233.8z"/>
</g>
<g>
	<path fill="none" stroke="#1B3E4C" stroke-width="5.2706" stroke-miterlimit="10" d="M42.5,129.2c-4,2.3-9.1,0.8-11.4-3.2
		c-2.3-4-0.8-9.1,3.2-11.4c4-2.3,9.1-0.8,11.4,3.2C48,121.8,46.6,126.9,42.5,129.2z"/>
	<path fill="#1B3E4C" stroke="#1B3E4C" stroke-width="5.2706" stroke-miterlimit="10" d="M63.6,151.9c-2.1,1.2-4.8,0.4-5.9-1.7
		c-1.2-2.1-0.4-4.8,1.7-5.9c2.1-1.2,4.8-0.4,5.9,1.7C66.4,148,65.7,150.7,63.6,151.9z"/>
	<path fill="none" stroke="#1B3E4C" stroke-width="5.2706" stroke-miterlimit="10" d="M27.7,174c-7.8,4.4-17.7,1.6-22-6.2
		c-4.4-7.8-1.6-17.6,6.1-22c7.8-4.4,17.7-1.6,22,6.2C38.2,159.7,35.5,169.6,27.7,174z"/>
</g>
<line fill="#5BBCC9" stroke="#5BBCC9" stroke-width="6.3247" stroke-miterlimit="10" x1="377.9" y1="511.6" x2="445.5" y2="444"/>
<path fill="#5BBCC9" stroke="#5BBCC9" stroke-width="7.1904" stroke-miterlimit="10" d="M380.4,517.6c-2.5,1.4-5.8,0.5-7.2-2
	c-1.4-2.5-0.5-5.8,2-7.2c2.5-1.4,5.8-0.5,7.2,2C383.9,512.9,383,516.1,380.4,517.6z"/>
<g>
	<g>
		<polygon fill="#1B3E4C" points="118.7,79.9 129.3,69.3 150.7,69.3 150.7,61.5 118.7,61.5 		"/>
		<rect x="118.7" y="48" fill="#1B3E4C" width="32" height="8"/>
	</g>
</g>
<line fill="none" x1="436.7" y1="6.7" x2="436.7" y2="708.6"/>
<g>
</g>
<g>
</g>
<g>
</g>
<g>
</g>
<g>
</g>
<g>
</g>
<g>
</g>
<g>
</g>
<g>
</g>
<g>
</g>
<g>
</g>
<g>
</g>
<g>
</g>
<g>
</g>
<g>
</g>
</svg>
