<svg xmlns="http://www.w3.org/2000/svg" viewBox="0 0 1441 800"><g data-name="Layer 2"><g data-name="Layer 1"><path fill="#022a3c" d="M0 0h1440v800H0z"/><path d="M946 0H672c.25 0 0 64.52 0 90.93s137 80.3 137 103.33v94.71c0 25.46 102.74 82.59 102.74 104.41v99.35c0 29.09 21.77 39.26 21.77 96.7V800H946zM946 1h493v799H946z" fill="#005074"/><path fill="#003147" d="M599 620h842v4H599v-4zM599 464h842v4H599v-4zM599 308h842v4H599v-4zM599 152h842v4H599v-4z"/><circle data-name="022a3c-a" cx="847" cy="239" r="40" fill="#e33a1c" fill-opacity=".7"/><circle cx="847" cy="239" r="39" fill="none" stroke="#e33a1c" stroke-width="2"/><path d="M822.06 263.72a35.11 35.11 0 0 0 49.66-49.66c-.11-.06-49.72 49.6-49.66 49.66z" fill="#fff" fill-opacity=".15"/><g style="isolation:isolate" fill="#fff"><path d="M842.37 235.8H844V247h-2v-8.64l-2 1.57-1.1-1.41zM851.44 235.8h2.15v7h1.23v1.79h-1.23V247h-1.92v-2.43h-5.92zm.26 7v-4.34l-2.82 4.34z"/></g><circle data-name="022a3c-b" cx="1274" cy="704" r="40" fill="#e33a1c" fill-opacity=".7"/><circle cx="1274" cy="704" r="39" fill="none" stroke="#e33a1c" stroke-width="2"/><path d="M1249.06 728.72a35.11 35.11 0 0 0 49.66-49.66c-.11-.06-49.72 49.6-49.66 49.66z" fill="#fff" fill-opacity=".15"/><g style="isolation:isolate" fill="#fff"><path d="M1269.5 712.19a4.22 4.22 0 0 1-3.92-2.59l1.6-.91a2.57 2.57 0 0 0 2.32 1.71 2 2 0 0 0 2-2.08c0-1.2-.72-2.08-2.39-2.08a5.5 5.5 0 0 0-3 1.22v-6.66h7v1.82h-5.12v2.19a3.84 3.84 0 0 1 5.41 3.5 3.78 3.78 0 0 1-3.9 3.88zM1278.46 704.65a2.05 2.05 0 0 1 .38 0 3.71 3.71 0 0 1 3.79 3.79 3.92 3.92 0 0 1-7.84 0 5 5 0 0 1 .62-2.32c.18-.32 3.52-5.83 3.52-5.83l1.6 1zm-1.73 3.75a2 2 0 1 0 2-2 1.92 1.92 0 0 0-2 2z"/></g><circle cx="964" cy="436" r="8" fill="#e33a1c" fill-opacity=".5" stroke="#e33a1c" stroke-width="2"/><path d="M960 440.5a6 6 0 0 0 8.5-8.5s-8.5 8.49-8.5 8.5z" fill="#fff" fill-opacity=".15"/><g style="isolation:isolate" fill="#f5f5f5"><path d="M961.74 451a1.28 1.28 0 0 0-1.19.85l-1-.49a2.39 2.39 0 0 1 2.23-1.48A2.09 2.09 0 0 1 964 452a1.76 1.76 0 0 1-.86 1.47 1.53 1.53 0 0 1 1 1.6 2.17 2.17 0 0 1-2.42 2.07 2.49 2.49 0 0 1-2.45-1.62l1-.57a1.54 1.54 0 0 0 1.47 1.07c.76 0 1.22-.41 1.22-1 0-.74-.64-1-1.27-1h-.5V453h.38c.73 0 1.21-.27 1.21-1a1 1 0 0 0-1.04-1zM966.92 450h1v7h-1.2v-5.4l-1.23 1-.69-.88z"/></g><circle cx="643" cy="718" r="8" fill="#e33a1c" fill-opacity=".5" stroke="#e33a1c" stroke-width="2"/><path d="M639 722.5a6 6 0 0 0 8.5-8.5s-8.5 8.49-8.5 8.5z" fill="#fff" fill-opacity=".15"/><g style="isolation:isolate"><path d="M645.63 735.5c0 1.9-.84 3.62-2.62 3.62s-2.64-1.72-2.64-3.62.86-3.62 2.64-3.62 2.62 1.72 2.62 3.62zm-1.2 0c0-1.37-.45-2.5-1.42-2.5s-1.44 1.13-1.44 2.5.43 2.5 1.43 2.5 1.43-1.13 1.43-2.5z" fill="#f5f5f5" style="fill:#f5f5f5"/></g><circle cx="755" cy="420" r="20" fill="#19a3e2" fill-opacity=".5"/><g style="isolation:isolate"><path d="M754.75 421a3.76 3.76 0 0 0 1.13-2.33 1.44 1.44 0 0 0-1.46-1.51 1.83 1.83 0 0 0-1.75 1.43l-1.5-.55a3.37 3.37 0 0 1 3.25-2.45 2.91 2.91 0 0 1 3.14 3.05 4.05 4.05 0 0 1-.85 2.41l-2.25 2.91h3.15v1.6h-6.46z" fill="#f2fafe" style="fill:#f2fafe"/></g><circle cx="1284" cy="231" r="20" fill="#e33a1c" fill-opacity=".7" stroke="#e33a1c" stroke-width="2"/><path d="M1273 242.66a16 16 0 0 0 22.66-22.66S1273 242.63 1273 242.66z" fill="#fff" fill-opacity=".15"/><g style="isolation:isolate" fill="#fff"><path d="M1277 233.11a1.79 1.79 0 0 1 .34 0 3.24 3.24 0 0 1 3.32 3.32 3.43 3.43 0 0 1-6.86 0 4.33 4.33 0 0 1 .55-2c.15-.28 3.08-5.1 3.08-5.1l1.4.87zm-1.51 3.28a1.74 1.74 0 1 0 1.74-1.75 1.68 1.68 0 0 0-1.7 1.75zM1289.11 234.64c0 2.66-1.18 5.07-3.67 5.07s-3.7-2.41-3.7-5.07 1.21-5.07 3.7-5.07 3.67 2.43 3.67 5.07zm-1.68 0c0-1.92-.63-3.5-2-3.5s-2 1.58-2 3.5.66 3.5 2 3.5 2-1.59 2-3.5z"/></g><circle cx="1377" cy="572" r="20" fill="#e33a1c" fill-opacity=".7" stroke="#e33a1c" stroke-width="2"/><path d="M1366 583.66a16 16 0 0 0 22.66-22.66S1366 583.63 1366 583.66z" fill="#fff" fill-opacity=".15"/><g style="isolation:isolate" fill="#fff"><path d="M1369.06 566.73h7l-5.25 10.14-1.43-.74 4-7.8h-4.36zM1383.6 571.64c0 2.66-1.18 5.07-3.67 5.07s-3.7-2.41-3.7-5.07 1.21-5.07 3.7-5.07 3.67 2.43 3.67 5.07zm-1.68 0c0-1.92-.63-3.5-2-3.5s-2 1.58-2 3.5.66 3.5 2 3.5 2-1.59 2-3.5z"/></g><circle cx="1030" cy="231" r="20" fill="#19a3e2" fill-opacity=".5"/><g style="isolation:isolate" fill="#f2fafe"><path d="M1025.18 228.13a1.8 1.8 0 0 0-1.67 1.19l-1.46-.69a3.35 3.35 0 0 1 3.12-2.07 2.92 2.92 0 0 1 3.17 2.94 2.47 2.47 0 0 1-1.21 2.06 2.15 2.15 0 0 1 1.44 2.24c0 1.78-1.49 2.9-3.39 2.9a3.49 3.49 0 0 1-3.43-2.27l1.37-.8a2.16 2.16 0 0 0 2.06 1.5c1.06 0 1.71-.57 1.71-1.33 0-1-.9-1.39-1.78-1.39h-.7v-1.54h.53c1 0 1.69-.38 1.69-1.37a1.37 1.37 0 0 0-1.45-1.37zM1037.16 231.64c0 2.66-1.18 5.07-3.67 5.07s-3.7-2.41-3.7-5.07 1.21-5.07 3.7-5.07 3.67 2.43 3.67 5.07zm-1.68 0c0-1.92-.63-3.5-2-3.5s-2 1.58-2 3.5.66 3.5 2 3.5 2-1.59 2-3.5z"/></g><circle cx="895" cy="678" r="20" fill="#19a3e2" fill-opacity=".5"/><g style="isolation:isolate" fill="#f2fafe"><path d="M890.18 675.13a1.8 1.8 0 0 0-1.67 1.19l-1.46-.69a3.35 3.35 0 0 1 3.12-2.07 2.92 2.92 0 0 1 3.17 2.94 2.47 2.47 0 0 1-1.21 2.06 2.15 2.15 0 0 1 1.44 2.24c0 1.78-1.49 2.9-3.39 2.9a3.49 3.49 0 0 1-3.43-2.27l1.37-.8a2.16 2.16 0 0 0 2.06 1.5c1.06 0 1.71-.57 1.71-1.33 0-1-.9-1.39-1.78-1.39h-.7v-1.54h.59c1 0 1.69-.38 1.69-1.37a1.37 1.37 0 0 0-1.51-1.37zM902.16 678.64c0 2.66-1.18 5.07-3.67 5.07s-3.7-2.41-3.7-5.07 1.21-5.07 3.7-5.07 3.67 2.43 3.67 5.07zm-1.68 0c0-1.92-.63-3.5-2-3.5s-2 1.58-2 3.5.66 3.5 2 3.5 2-1.59 2-3.5z"/></g><circle cx="1217" cy="271" r="8" fill="#e33a1c" fill-opacity=".5" stroke="#e33a1c" stroke-width="2"/><path d="M1213 275.5a6 6 0 0 0 8.49-8.49s-8.49 8.48-8.49 8.49z" fill="#fff" fill-opacity=".15"/><g style="isolation:isolate" fill="#f5f5f5"><path d="M1214.63 285h1.37v4.36h.77v1.12h-.77V292h-1.2v-1.52h-3.7zm.16 4.36v-2.71l-1.76 2.71zM1220 292.12a2.63 2.63 0 0 1-2.45-1.62l1-.57A1.61 1.61 0 0 0 1220 291a1.22 1.22 0 0 0 1.28-1.3c0-.75-.45-1.3-1.49-1.3a3.44 3.44 0 0 0-1.88.76V285h4.4v1.14h-3.2v1.37a2.4 2.4 0 0 1 3.38 2.19 2.36 2.36 0 0 1-2.49 2.42z"/></g><circle cx="1044" cy="54" r="20" fill="#e33a1c" fill-opacity=".7" stroke="#e33a1c" stroke-width="2"/><g style="isolation:isolate" fill="#fff"><path d="M1039.54 50.47a1.8 1.8 0 0 0-1.67 1.19l-1.46-.69a3.35 3.35 0 0 1 3.12-2.07 2.92 2.92 0 0 1 3.17 2.94 2.47 2.47 0 0 1-1.21 2.06 2.14 2.14 0 0 1 1.44 2.24c0 1.78-1.49 2.9-3.39 2.9a3.49 3.49 0 0 1-3.43-2.27l1.37-.8a2.16 2.16 0 0 0 2.06 1.5c1.06 0 1.71-.57 1.71-1.33 0-1-.9-1.39-1.78-1.39h-.7v-1.54h.53c1 0 1.7-.38 1.7-1.37a1.37 1.37 0 0 0-1.46-1.37zM1047.74 54.31a3.76 3.76 0 0 0 1.13-2.33 1.44 1.44 0 0 0-1.46-1.51 1.83 1.83 0 0 0-1.75 1.43l-1.5-.55a3.37 3.37 0 0 1 3.25-2.45 2.91 2.91 0 0 1 3.14 3.05 4.05 4.05 0 0 1-.86 2.41l-2.25 2.91h3.15v1.6h-6.46z"/></g><circle cx="837" cy="572" r="20" fill="#e33a1c" fill-opacity=".7" stroke="#e33a1c" stroke-width="2"/><g style="isolation:isolate" fill="#fff"><path d="M832.54 569.13a1.8 1.8 0 0 0-1.67 1.19l-1.46-.69a3.35 3.35 0 0 1 3.12-2.07 2.92 2.92 0 0 1 3.17 2.94 2.47 2.47 0 0 1-1.21 2.06 2.15 2.15 0 0 1 1.44 2.24c0 1.78-1.49 2.9-3.39 2.9a3.49 3.49 0 0 1-3.43-2.27l1.37-.8a2.16 2.16 0 0 0 2.06 1.5c1.06 0 1.71-.57 1.71-1.33 0-1-.9-1.39-1.78-1.39h-.7v-1.54h.53c1 0 1.7-.38 1.7-1.37a1.37 1.37 0 0 0-1.46-1.37zM840.75 573a3.76 3.76 0 0 0 1.13-2.33 1.44 1.44 0 0 0-1.46-1.51 1.83 1.83 0 0 0-1.75 1.43l-1.5-.55a3.37 3.37 0 0 1 3.25-2.45 2.91 2.91 0 0 1 3.14 3.05 4.05 4.05 0 0 1-.85 2.41l-2.25 2.91h3.15v1.6h-6.46z"/></g><circle cx="767" cy="281" r="8" fill="#19a3e2" fill-opacity=".5"/><g style="isolation:isolate" fill="#f5f5f5"><path d="M764 295h1v7h-1.2v-5.4l-1.23 1-.69-.88zM771.85 298.5c0 1.9-.84 3.62-2.62 3.62s-2.64-1.72-2.64-3.62.86-3.62 2.64-3.62 2.62 1.72 2.62 3.62zm-1.2 0c0-1.37-.45-2.5-1.42-2.5s-1.44 1.13-1.44 2.5.47 2.5 1.44 2.5 1.42-1.13 1.42-2.5z"/></g><circle cx="1110" cy="380" r="40" fill="#19a3e2" fill-opacity=".5"/><path d="M1085.06 404.72a35.11 35.11 0 0 0 49.66-49.66c-.11-.06-49.72 49.6-49.66 49.66z" fill="#fff" fill-opacity=".15"/><g style="isolation:isolate" fill="#f2fafe"><path d="M1105.33 378.4a2.05 2.05 0 0 0-1.9 1.36l-1.67-.78a3.83 3.83 0 0 1 3.57-2.37 3.34 3.34 0 0 1 3.62 3.36 2.82 2.82 0 0 1-1.38 2.35 2.45 2.45 0 0 1 1.65 2.56c0 2-1.7 3.31-3.87 3.31a4 4 0 0 1-3.92-2.59l1.57-.91a2.47 2.47 0 0 0 2.35 1.71c1.22 0 2-.66 2-1.52 0-1.18-1-1.58-2-1.58h-.8v-1.76h.61c1.17 0 1.94-.43 1.94-1.57a1.57 1.57 0 0 0-1.77-1.57zM1118.08 379.84a2.68 2.68 0 0 1-1.25 2.21 2.79 2.79 0 0 1 1.57 2.66 3.86 3.86 0 0 1-7.68 0 2.79 2.79 0 0 1 1.57-2.66 2.68 2.68 0 0 1-1.25-2.21 3.53 3.53 0 0 1 7 0zm-1.62 4.83a1.91 1.91 0 0 0-3.81 0 1.91 1.91 0 0 0 3.81 0zm-1.9-6.31a1.49 1.49 0 1 0 1.62 1.49 1.5 1.5 0 0 0-1.62-1.49z"/></g><circle cx="1194" cy="76" r="40" fill="#19a3e2" fill-opacity=".5"/><path d="M1169.06 100.72a35.11 35.11 0 0 0 49.66-49.66c-.11-.06-49.72 49.6-49.66 49.66z" fill="#fff" fill-opacity=".15"/><g style="isolation:isolate" fill="#f2fafe"><path d="M1190 72.8h2.15v7h1.23v1.79h-1.23V84h-1.92v-2.43h-5.92zm.26 7v-4.36l-2.82 4.34zM1203 78.4c0 3-1.34 5.79-4.19 5.79s-4.23-2.75-4.23-5.79 1.38-5.79 4.23-5.79 4.19 2.75 4.19 5.79zm-1.92 0c0-2.19-.72-4-2.27-4s-2.3 1.81-2.3 4 .75 4 2.3 4 2.19-1.81 2.19-4z"/></g><circle cx="871" cy="112" r="20" fill="#19a3e2" fill-opacity=".5"/><g style="isolation:isolate" fill="#f2fafe"><path d="M866.48 107.32h1.39v9.81h-1.68v-7.56l-1.72 1.37-1-1.23zM873.6 117.29a3.69 3.69 0 0 1-3.43-2.27l1.4-.8a2.25 2.25 0 0 0 2 1.5 1.71 1.71 0 0 0 1.79-1.82c0-1.05-.63-1.82-2.09-1.82a4.81 4.81 0 0 0-2.63 1.06v-5.83h6.16v1.6h-4.48v1.92a3.36 3.36 0 0 1 4.73 3.07 3.31 3.31 0 0 1-3.45 3.39z"/></g><circle cx="1354" cy="94" r="20" fill="#19a3e2" fill-opacity=".5"/><g style="isolation:isolate" fill="#f2fafe"><path d="M1348.92 92.44a1.77 1.77 0 0 1 .34 0 3.24 3.24 0 0 1 3.32 3.32 3.43 3.43 0 0 1-6.86 0 4.32 4.32 0 0 1 .55-2c.15-.28 3.08-5.1 3.08-5.1l1.4.87zm-1.51 3.28a1.74 1.74 0 1 0 1.74-1.75 1.68 1.68 0 0 0-1.74 1.75zM1360.18 91.73a2.35 2.35 0 0 1-1.09 1.93 2.44 2.44 0 0 1 1.37 2.33 3.38 3.38 0 0 1-6.72 0 2.44 2.44 0 0 1 1.37-2.33 2.35 2.35 0 0 1-1.09-1.93 3.09 3.09 0 0 1 6.16 0zm-1.42 4.27a1.67 1.67 0 0 0-3.33 0 1.67 1.67 0 0 0 3.33 0zm-1.67-5.52a1.31 1.31 0 1 0 1.42 1.3 1.31 1.31 0 0 0-1.41-1.34z"/></g><circle cx="975" cy="115" r="8" fill="#19a3e2" fill-opacity=".5"/><path d="M971 119.5a6 6 0 0 0 8.5-8.5s-8.5 8.49-8.5 8.5z" fill="#fff" fill-opacity=".15"/><g style="isolation:isolate" fill="#f5f5f5"><path d="M972.31 132.74a2.69 2.69 0 0 0 .81-1.66 1 1 0 0 0-1-1.08 1.3 1.3 0 0 0-1.25 1l-1.07-.39a2.4 2.4 0 0 1 2.32-1.75 2.08 2.08 0 0 1 2.24 2.18 2.9 2.9 0 0 1-.61 1.72l-1.61 2.08h2.25V136h-4.61zM980 130.9a1.68 1.68 0 0 1-.78 1.38 1.74 1.74 0 0 1 1 1.66 2.41 2.41 0 0 1-4.8 0 1.74 1.74 0 0 1 1-1.66 1.68 1.68 0 0 1-.78-1.38 2.21 2.21 0 0 1 4.4 0zm-1 3a1.2 1.2 0 0 0-2.38 0 1.19 1.19 0 0 0 2.38 0zm-1.23-3.9a.93.93 0 1 0 1 .93.94.94 0 0 0-1-.93z"/></g><circle cx="766" cy="55" r="8" fill="#19a3e2" fill-opacity=".5"/><g style="isolation:isolate"><path d="M766.55 69h1.34v4.36h.77v1.12h-.77V76h-1.2v-1.52H763zm.16 4.36v-2.71L765 73.36z" fill="#f5f5f5" style="fill:#f5f5f5"/></g><circle cx="1314" cy="396" r="20" fill="#19a3e2" fill-opacity=".5"/><g style="isolation:isolate" fill="#f2fafe"><path d="M1309.19 394.57a1.77 1.77 0 0 1 .34 0 3.24 3.24 0 0 1 3.32 3.32 3.43 3.43 0 0 1-6.86 0 4.33 4.33 0 0 1 .55-2c.15-.28 3.08-5.1 3.08-5.1l1.4.87zm-1.51 3.28a1.74 1.74 0 1 0 1.74-1.75 1.68 1.68 0 0 0-1.74 1.75zM1317.44 401.17a3.69 3.69 0 0 1-3.43-2.27l1.4-.8a2.25 2.25 0 0 0 2 1.5 1.71 1.71 0 0 0 1.79-1.82c0-1.05-.63-1.82-2.09-1.82a4.81 4.81 0 0 0-2.63 1.06v-5.83h6.16v1.6h-4.48v1.92a3.36 3.36 0 0 1 4.74 3.07 3.31 3.31 0 0 1-3.46 3.39z"/></g><path d="M1303 407.66a16 16 0 0 0 22.66-22.66S1303 407.63 1303 407.66z" fill="#fff" fill-opacity=".15"/><circle cx="1204" cy="554" r="20" fill="#19a3e2" fill-opacity=".5"/><g style="isolation:isolate" fill="#f2fafe"><path d="M1199.6 548.73h1.88v6.11h1.08v1.57h-1.08v2.13h-1.68v-2.13h-5.18zm.22 6.11V551l-2.47 3.8zM1206.91 550.13a1.8 1.8 0 0 0-1.67 1.19l-1.46-.69a3.35 3.35 0 0 1 3.12-2.07 2.92 2.92 0 0 1 3.17 2.94 2.47 2.47 0 0 1-1.21 2.06 2.15 2.15 0 0 1 1.44 2.24c0 1.78-1.49 2.9-3.39 2.9a3.49 3.49 0 0 1-3.43-2.27l1.37-.8a2.16 2.16 0 0 0 2.06 1.5c1.06 0 1.71-.57 1.71-1.33 0-1-.9-1.39-1.78-1.39h-.7v-1.54h.53c1 0 1.7-.38 1.7-1.37a1.37 1.37 0 0 0-1.46-1.37z"/></g><path d="M1193 565.66a16 16 0 0 0 22.66-22.66S1193 565.63 1193 565.66z" fill="#fff" fill-opacity=".15"/></g></g></svg>