<svg xmlns="http://www.w3.org/2000/svg" viewBox="0 0 624.96 553.33"><defs><style>.cls-1,.cls-2,.cls-3{fill:none;}.cls-1{stroke:#ff3d2e;}.cls-1,.cls-2{stroke-miterlimit:10;stroke-width:2px;}.cls-2{stroke:#0091ea;}</style></defs><title>city-left</title><g id="Layer_2" data-name="Layer 2"><g id="Layer_1-2" data-name="Layer 1"><path class="cls-1" d="M68.49 223.35H55.9v-36.06h12.59zM135.81 293.2h-12.59v-36.06h12.59zM46.05 317.92H33.46V303.5h12.59zM90.93 502.74H78.34v-36.06h12.59z"/><path class="cls-2" d="M168.84 553.33V168.02H1v385.31"/><path class="cls-2" d="M155.15 168.03H14.69v-54.15h140.46zM145.16 113.87a60.24 60.24 0 1 0-120.48 0"/><path class="cls-2" d="M132.83 113.87c0-33.27-21.45-60.24-47.91-60.24S37 80.61 37 113.87"/><path class="cls-2" d="M117.59 113.87c0-33.27-14.63-60.24-32.67-60.24s-32.67 27-32.67 60.24"/><path class="cls-2" d="M99.39 113.87c0-33.27-6.48-60.24-14.47-60.24s-14.47 27-14.47 60.24M148.66 168.02H20.72v-30.86h127.94zM25.44 137.86v-14.49M143.43 137.86v-14.49M135 137.86v-14.49M126.57 137.86v-14.49M118.14 137.86v-14.49M109.72 137.86v-14.49M101.29 137.86v-14.49M92.86 137.86v-14.49M84.43 137.86v-14.49M76 137.86v-14.49M67.58 137.86v-14.49M59.15 137.86v-14.49M50.72 137.86v-14.49M42.29 137.86v-14.49M33.86 137.86v-14.49"/><path class="cls-2" d="M72.84 54.36c0-3.33 5.41-6 12.08-6S97 51 97 54.36"/><path class="cls-2" d="M89.67 48.8l-4.38-21.74a.79.79 0 0 0-1.56 0L80.17 48.8M143.43 159.21h-23.95v-11.12h23.95zM112.08 159.21H88.13v-11.12h23.95zM80.74 159.21H56.79v-11.12h23.95zM49.38 159.21H25.43v-11.12h23.95zM158.25 223.35h-12.59v-36.06h12.59zM135.81 223.35h-12.59v-36.06h12.59zM113.37 223.35h-12.59v-36.06h12.59zM90.93 223.35H78.34v-36.06h12.59zM46.05 223.35H33.46v-36.06h12.59zM23.61 223.35H11.02v-36.06h12.59zM158.25 248.08h-12.59v-14.42h12.59zM135.81 248.08h-12.59v-14.42h12.59zM113.37 248.08h-12.59v-14.42h12.59zM90.93 248.08H78.34v-14.42h12.59zM68.49 248.08H55.9v-14.42h12.59zM46.05 248.08H33.46v-14.42h12.59zM23.61 248.08H11.02v-14.42h12.59zM158.25 293.2h-12.59v-36.06h12.59zM113.37 293.2h-12.59v-36.06h12.59zM90.93 293.2H78.34v-36.06h12.59zM68.49 293.2H55.9v-36.06h12.59zM46.05 293.2H33.46v-36.06h12.59zM23.61 293.2H11.02v-36.06h12.59zM158.25 317.92h-12.59V303.5h12.59zM135.81 317.92h-12.59V303.5h12.59zM113.37 317.92h-12.59V303.5h12.59zM90.93 317.92H78.34V303.5h12.59zM68.49 317.92H55.9V303.5h12.59zM23.61 317.92H11.02V303.5h12.59zM158.25 363.05h-12.59v-36.06h12.59zM135.81 363.05h-12.59v-36.06h12.59zM113.37 363.05h-12.59v-36.06h12.59zM90.93 363.05H78.34v-36.06h12.59zM68.49 363.05H55.9v-36.06h12.59zM46.05 363.05H33.46v-36.06h12.59zM23.61 363.05H11.02v-36.06h12.59zM158.25 387.77h-12.59v-14.42h12.59zM135.81 387.77h-12.59v-14.42h12.59zM113.37 387.77h-12.59v-14.42h12.59zM90.93 387.77H78.34v-14.42h12.59zM68.49 387.77H55.9v-14.42h12.59zM46.05 387.77H33.46v-14.42h12.59zM23.61 387.77H11.02v-14.42h12.59zM158.25 432.89h-12.59v-36.06h12.59zM135.81 432.89h-12.59v-36.06h12.59zM113.37 432.89h-12.59v-36.06h12.59zM90.93 432.89H78.34v-36.06h12.59zM68.49 432.89H55.9v-36.06h12.59zM46.05 432.89H33.46v-36.06h12.59zM23.61 432.89H11.02v-36.06h12.59zM158.25 457.61h-12.59v-14.42h12.59zM135.81 457.61h-12.59v-14.42h12.59zM113.37 457.61h-12.59v-14.42h12.59zM90.93 457.61H78.34v-14.42h12.59zM68.49 457.61H55.9v-14.42h12.59zM46.05 457.61H33.46v-14.42h12.59zM23.61 457.61H11.02v-14.42h12.59zM158.25 502.74h-12.59v-36.06h12.59zM135.81 502.74h-12.59v-36.06h12.59zM113.37 502.74h-12.59v-36.06h12.59zM68.49 502.74H55.9v-36.06h12.59zM46.05 502.74H33.46v-36.06h12.59zM23.61 502.74H11.02v-36.06h12.59zM158.25 527.46h-12.59v-14.42h12.59zM135.81 527.46h-12.59v-14.42h12.59zM113.37 527.46h-12.59v-14.42h12.59zM90.93 527.46H78.34v-14.42h12.59zM68.49 527.46H55.9v-14.42h12.59zM46.05 527.46H33.46v-14.42h12.59zM23.61 527.46H11.02v-14.42h12.59zM158.26 553.33v-16.8h-12.59v16.8M135.82 553.33v-16.8h-12.59v16.8M113.38 553.33v-16.8h-12.59v16.8M90.94 553.33v-16.8h-12.6v16.8M68.5 553.33v-16.8H55.91v16.8M46.06 553.33v-16.8H33.47v16.8M23.62 553.33v-16.8H11.03v16.8M168.86 180H.86M14.86 123h140"/><path class="cls-3" d="M.86 0h624.1v553.33H.86z"/></g></g></svg>