<svg xmlns="http://www.w3.org/2000/svg" viewBox="0 0 625.1 553.33"><defs><style>.cls-1,.cls-2,.cls-3{fill:none;}.cls-1{stroke:#ff3d2e;}.cls-1,.cls-2{stroke-miterlimit:10;stroke-width:2px;}.cls-2{stroke:#0091ea;}</style></defs><title>city-right</title><g id="Layer_2" data-name="Layer 2"><g id="Layer_1-2" data-name="Layer 1"><path class="cls-1" d="M554.99 308.52h-17.64v-54.39h17.64z"/><path class="cls-2" d="M624.1 553.33v-326.9H401.58v326.9"/><path class="cls-2" d="M414.92 553.33V242.92h-13.34v310.41M624.1 553.33V242.92h-13.34v310.41M624.1 242.92H401.58v-16.49H624.1zM597.96 242.92v310.41M428.44 242.92v310.41M587.18 308.52h-17.64v-54.39h17.64zM522.8 308.52h-17.64v-54.39h17.64zM490.61 308.52h-17.64v-54.39h17.64zM458.43 308.52h-17.64v-54.39h17.64zM587.18 374.81h-17.64v-54.39h17.64zM554.99 374.81h-17.64v-54.39h17.64zM522.8 374.81h-17.64v-54.39h17.64zM490.61 374.81h-17.64v-54.39h17.64zM458.43 374.81h-17.64v-54.39h17.64zM587.18 402.48h-146.4v-15.74h146.4z"/><path class="cls-2" d="M587.18 226.43h-146.4v-16.07h146.4zM587.18 507.42h-17.64v-54.39h17.64zM554.99 507.42h-17.64v-54.39h17.64zM522.8 507.42h-17.64v-54.39h17.64z"/><path class="cls-1" d="M490.61 507.42h-17.64v-54.39h17.64z"/><path class="cls-2" d="M458.43 507.42h-17.64v-54.39h17.64zM569.55 412.48v30.59M587.18 443.07v-30.59M537.36 412.48v30.59M555 443.07v-30.59M505.17 412.48v30.59M522.81 443.07v-30.59M472.98 412.48v30.59M490.62 443.07v-30.59M440.79 412.48v30.59M458.43 443.07v-30.59M587.18 553.33v-33.99h-17.63v33.99"/><path class="cls-1" d="M555 553.33v-33.99h-17.64v33.99"/><path class="cls-2" d="M522.81 553.33v-33.99h-17.64v33.99M490.62 553.33v-33.99h-17.64v33.99M458.43 553.33v-33.99h-17.64v33.99"/><path class="cls-3" d="M0 0h624.1v553.33H0z"/></g></g></svg>