<svg xmlns="http://www.w3.org/2000/svg" viewBox="0 0 774.33 137.35"><defs><style>.cls-1{fill:#ff3d2e;}.cls-2,.cls-3{fill:none;}.cls-2{stroke:#08537e;stroke-miterlimit:10;stroke-width:2px;}</style></defs><title>icon-paper</title><g id="Layer_2" data-name="Layer 2"><g id="Layer_1-2" data-name="Layer 1"><path class="cls-1" d="M712.85,39.48a.36.36,0,0,0-.34.22l-1,2.43-2.63.22a.36.36,0,0,0-.21.64l2,1.74L710,47.3a.37.37,0,0,0,.36.45.36.36,0,0,0,.19-.05l2.27-1.38,2.27,1.38a.36.36,0,0,0,.19.05.37.37,0,0,0,.36-.45l-.6-2.58,2-1.74a.36.36,0,0,0-.21-.64l-2.63-.22-1-2.43a.36.36,0,0,0-.34-.22Z"/><path class="cls-1" d="M723.05,39.48a.36.36,0,0,0-.34.22l-1,2.43-2.63.22a.36.36,0,0,0-.21.64l2,1.74-.6,2.58a.37.37,0,0,0,.36.45.36.36,0,0,0,.19-.05l2.27-1.38,2.27,1.38a.36.36,0,0,0,.19.05.37.37,0,0,0,.36-.45l-.6-2.58,2-1.74a.37.37,0,0,0-.21-.64l-2.63-.22-1-2.43a.36.36,0,0,0-.34-.22Z"/><path class="cls-1" d="M733.26,39.48a.36.36,0,0,0-.34.22l-1,2.43-2.63.22A.37.37,0,0,0,729,43l2,1.74-.6,2.58a.37.37,0,0,0,.36.45.36.36,0,0,0,.19-.05l2.27-1.38,2.27,1.38a.36.36,0,0,0,.19.05.37.37,0,0,0,.36-.45l-.6-2.58,2-1.74a.36.36,0,0,0-.21-.64l-2.63-.22-1-2.43a.36.36,0,0,0-.34-.22Z"/><path class="cls-1" d="M743.46,39.48a.36.36,0,0,0-.34.22l-1,2.43-2.63.22a.36.36,0,0,0-.21.64l2,1.74-.6,2.58a.37.37,0,0,0,.36.45.36.36,0,0,0,.19-.05l2.27-1.38,2.27,1.38a.36.36,0,0,0,.19.05.37.37,0,0,0,.36-.45l-.6-2.58,2-1.74a.36.36,0,0,0-.21-.64l-2.63-.22-1-2.43a.36.36,0,0,0-.34-.22Z"/><path class="cls-1" d="M753.67,39.48a.36.36,0,0,0-.34.22l-1,2.43-2.63.22a.36.36,0,0,0-.21.64l2,1.74-.6,2.58a.37.37,0,0,0,.36.45.36.36,0,0,0,.19-.05l2.27-1.38,2.27,1.38a.36.36,0,0,0,.19.05.37.37,0,0,0,.36-.45l-.6-2.58,2-1.74a.36.36,0,0,0-.21-.64L755,42.13l-1-2.43a.36.36,0,0,0-.34-.22Z"/><polygon class="cls-2" points="773.33 136.33 666.33 136.33 666.33 15.33 756.33 15.33 756.33 31.33 773.33 31.33 773.33 136.33"/><line class="cls-2" x1="682.33" y1="66.33" x2="756.33" y2="66.33"/><line class="cls-2" x1="682.33" y1="78.33" x2="714.33" y2="78.33"/><line class="cls-2" x1="682.33" y1="88.33" x2="714.33" y2="88.33"/><line class="cls-2" x1="682.33" y1="100.33" x2="756.33" y2="100.33"/><line class="cls-2" x1="682.33" y1="111.33" x2="756.33" y2="111.33"/><line class="cls-2" x1="682.33" y1="122.33" x2="736.33" y2="122.33"/><path class="cls-2" d="M758.5,13.32"/><line class="cls-2" x1="756.57" y1="15.25" x2="773.63" y2="31.32"/><circle class="cls-2" cx="691.79" cy="43.61" r="8.31"/><circle class="cls-2" cx="691.79" cy="41.59" r="2.92"/><path class="cls-2" d="M686.35,49.66a5.9,5.9,0,0,1,10.83-.1"/><rect class="cls-2" x="722.33" y="74.33" width="34" height="16"/><rect class="cls-3" width="774.33" height="137.35"/></g></g></svg>