<svg xmlns="http://www.w3.org/2000/svg" viewBox="0 0 774.33 137.35"><defs><style>.cls-1,.cls-2,.cls-3{fill:none;}.cls-1{stroke:#08537e;}.cls-1,.cls-2{stroke-miterlimit:10;stroke-width:2px;}.cls-2{stroke:#ff3d2e;}</style></defs><title>icon-person</title><g id="Layer_2" data-name="Layer 2"><g id="Layer_1-2" data-name="Layer 1"><circle class="cls-1" cx="58.52" cy="47.77" r="22.29"/><path class="cls-1" d="M99.92,78.42a28.18,28.18,0,0,1,12,2.66A57.4,57.4,0,1,0,73,115.37a28.31,28.31,0,0,1,9.71-31.1"/><path class="cls-1" d="M82.69,84.27"/><path class="cls-1" d="M72,102.08A28.27,28.27,0,0,1,82.69,84.27a42.15,42.15,0,0,0-62.8,18.28"/><g id="_Group_" data-name="&lt;Group&gt;"><path class="cls-2" d="M119.14,100.94a20.06,20.06,0,1,1-8.92-11.45"/><polyline class="cls-2" points="92.5 102.67 100.08 110.25 119.61 90.72"/></g><path class="cls-1" d="M45.83,56.32A14.53,14.53,0,0,0,58.52,63a14.53,14.53,0,0,0,12.69-6.67"/><rect class="cls-3" width="774.33" height="137.35"/></g></g></svg>