<svg xmlns="http://www.w3.org/2000/svg" viewBox="0 0 382.98 527.07"><defs><style>.cls-1{fill:#e4e4e4;}.cls-19,.cls-2,.cls-22{fill:#fff;}.cls-10,.cls-19,.cls-3{font-size:16.7px;}.cls-10,.cls-13,.cls-3{fill:#607d8b;}.cls-13,.cls-3{font-family:Flama-Medium, Flama Medium;}.cls-3{letter-spacing:0.06em;}.cls-4{letter-spacing:0.1em;}.cls-5{letter-spacing:0.05em;}.cls-6{letter-spacing:0.04em;}.cls-7{letter-spacing:0.13em;}.cls-8{fill:#fafafa;}.cls-9{fill:#ff1744;}.cls-10,.cls-19,.cls-22{font-family:Flama-Light, Flama Light;}.cls-10,.cls-19{letter-spacing:0.03em;}.cls-11,.cls-12,.cls-25,.cls-26{font-size:9.53px;}.cls-11{letter-spacing:0.01em;}.cls-12{letter-spacing:0.02em;}.cls-13{font-size:10.72px;letter-spacing:0.1em;}.cls-14{letter-spacing:0.09em;}.cls-15{letter-spacing:0.02em;}.cls-16,.cls-17,.cls-18,.cls-20{fill:none;stroke-miterlimit:10;stroke-width:1.19px;}.cls-16{stroke:#ff1744;}.cls-17{stroke:#f0f0f0;}.cls-18{stroke:#fff;}.cls-20{stroke:#e4e4e4;}.cls-21{fill:#2c2c3e;}.cls-22{font-size:28.62px;}.cls-23{letter-spacing:-0.08em;}.cls-24{letter-spacing:-0.01em;}.cls-25{letter-spacing:0.02em;}.cls-26{letter-spacing:0.02em;}.cls-27{letter-spacing:0.02em;}.cls-28{letter-spacing:0.1em;}</style></defs><title>agenda-pic</title><g id="Layer_2" data-name="Layer 2"><g id="Layer_1-2" data-name="Layer 1"><rect id="_Rectangle_" data-name="&lt;Rectangle&gt;" class="cls-1" x="-72.04" y="72.04" width="527.07" height="382.98" transform="translate(455.03 72.04) rotate(90)"/><rect id="_Rectangle_2" data-name="&lt;Rectangle&gt;" class="cls-2" x="23.85" y="201.49" width="333.91" height="53.66"/><g id="_Group_" data-name="&lt;Group&gt;"><text class="cls-3" transform="translate(47.73 233.31)">Y<tspan class="cls-4" x="10.1" y="0">OUR </tspan><tspan class="cls-5" x="51.61" y="0">A</tspan><tspan class="cls-6" x="62.61" y="0">V</tspan><tspan class="cls-4" x="72.64" y="0">AILABILI</tspan><tspan class="cls-7" x="143.21" y="0">T</tspan><tspan class="cls-4" x="153.65" y="0">Y</tspan></text></g><g id="_Group_2" data-name="&lt;Group&gt;"><rect id="_Path_" data-name="&lt;Path&gt;" class="cls-8" x="23.85" y="338.63" width="333.91" height="119.25"/><rect id="_Rectangle_3" data-name="&lt;Rectangle&gt;" class="cls-9" x="23.89" y="415.87" width="333.91" height="41.74"/><g id="_Group_3" data-name="&lt;Group&gt;"><text class="cls-10" transform="translate(50.74 401.36)">12:00 <tspan class="cls-11" x="43.76" y="0">P</tspan><tspan class="cls-12" x="48.95" y="0">M</tspan></text></g><g id="_Group_4" data-name="&lt;Group&gt;"><text class="cls-10" transform="translate(119.09 401.36)">–</text></g><g id="_Group_5" data-name="&lt;Group&gt;"><text class="cls-13" transform="translate(47.73 370.45)">MON<tspan class="cls-14" x="26.28" y="0">D</tspan><tspan class="cls-15" x="34.35" y="0">A</tspan><tspan x="41.14" y="0">Y</tspan></text></g><text class="cls-10" transform="translate(142.72 400.26)">1:00 <tspan class="cls-11" x="34.78" y="0">P</tspan><tspan class="cls-12" x="39.97" y="0">M</tspan></text><g id="_Group_6" data-name="&lt;Group&gt;"><circle id="_Path_2" data-name="&lt;Path&gt;" class="cls-16" cx="329.77" cy="367.03" r="6.56"/><line id="_Path_3" data-name="&lt;Path&gt;" class="cls-16" x1="326.02" y1="367.03" x2="333.52" y2="367.03"/><line id="_Path_4" data-name="&lt;Path&gt;" class="cls-16" x1="329.77" y1="370.77" x2="329.77" y2="363.28"/></g><line id="_Path_5" data-name="&lt;Path&gt;" class="cls-17" x1="247.45" y1="414.95" x2="247.45" y2="459.08"/><line id="_Path_6" data-name="&lt;Path&gt;" class="cls-17" x1="302.31" y1="414.95" x2="302.31" y2="459.08"/><path id="_Compound_Path_" data-name="&lt;Compound Path&gt;" class="cls-2" d="M325.17,442.59a1.57,1.57,0,0,0,1.53,1.59h6.13a1.57,1.57,0,0,0,1.53-1.59V433h-9.2Zm10-11.93h-2.68l-.77-.8h-3.83l-.77.8h-2.68v1.59h10.73Z"/><g id="_Group_7" data-name="&lt;Group&gt;"><path id="_Compound_Path_2" data-name="&lt;Compound Path&gt;" class="cls-2" d="M275.51,430.79a9,9,0,0,0-8.35,6,8.82,8.82,0,0,0,16.7,0A9,9,0,0,0,275.51,430.79Zm0,9.94a4,4,0,1,1,3.79-4A3.89,3.89,0,0,1,275.51,440.72Zm0-6.36a2.39,2.39,0,1,0,2.28,2.39A2.33,2.33,0,0,0,275.51,434.36Z"/><line id="_Path_7" data-name="&lt;Path&gt;" class="cls-16" x1="267.16" y1="430.46" x2="283.86" y2="442.39"/><line id="_Path_8" data-name="&lt;Path&gt;" class="cls-18" x1="267.16" y1="431.66" x2="283.86" y2="443.58"/></g><g id="_Group_8" data-name="&lt;Group&gt;"><text class="cls-19" transform="translate(59.73 443.09)">5:00 <tspan class="cls-11" x="34.78" y="0">P</tspan><tspan class="cls-12" x="39.97" y="0">M</tspan></text></g><g id="_Group_9" data-name="&lt;Group&gt;"><text class="cls-19" transform="translate(119.09 443.09)">–</text></g><text class="cls-19" transform="translate(142.72 442)">7:00 <tspan class="cls-11" x="34.78" y="0">P</tspan><tspan class="cls-12" x="39.97" y="0">M</tspan></text></g><line id="_Path_9" data-name="&lt;Path&gt;" class="cls-20" x1="23.85" y1="255.75" x2="356.57" y2="255.75"/><g id="title"><rect id="_Rectangle_4" data-name="&lt;Rectangle&gt;" class="cls-21" x="22.66" y="22.61" width="333.91" height="160.99"/><text class="cls-22" transform="translate(137.93 94.34)"><tspan class="cls-23">Y</tspan><tspan x="13.31" y="0">our</tspan><tspan class="cls-24" x="0" y="34.35">A</tspan><tspan x="17.17" y="34.35">genda</tspan></text><g id="_Group_10" data-name="&lt;Group&gt;"><rect id="_Path_10" data-name="&lt;Path&gt;" class="cls-9" x="51.28" y="116.82" width="20.27" height="10.73"/><rect id="_Path_11" data-name="&lt;Path&gt;" class="cls-9" x="51.28" y="97.74" width="39.35" height="9.54"/><rect id="_Path_12" data-name="&lt;Path&gt;" class="cls-9" x="51.28" y="77.46" width="59.63" height="9.54"/></g></g><g id="_Group_11" data-name="&lt;Group&gt;"><rect id="_Path_13" data-name="&lt;Path&gt;" class="cls-2" x="23.85" y="255.15" width="333.91" height="83.48"/><g id="_Group_12" data-name="&lt;Group&gt;"><text class="cls-10" transform="translate(49.9 311.92)">11:00 <tspan class="cls-25" x="43.76" y="0">A</tspan><tspan class="cls-26" x="49.79" y="0">M</tspan></text></g><g id="_Group_13" data-name="&lt;Group&gt;"><text class="cls-10" transform="translate(119.09 311.92)">–</text></g><g id="_Group_14" data-name="&lt;Group&gt;"><text class="cls-13" transform="translate(47.73 281.86)">SUN<tspan class="cls-14" x="22.5" y="0">D</tspan><tspan class="cls-27" x="30.56" y="0">A</tspan><tspan class="cls-28" x="37.35" y="0">Y</tspan></text></g><text class="cls-10" transform="translate(142.72 310.82)">2:00 <tspan class="cls-11" x="34.78" y="0">P</tspan><tspan class="cls-12" x="39.97" y="0">M</tspan></text></g><rect id="_Path_14" data-name="&lt;Path&gt;" class="cls-2" x="23.85" y="457.61" width="333.91" height="69.47"/><g id="_Group_15" data-name="&lt;Group&gt;"><text class="cls-10" transform="translate(50.74 520.33)">12:00 <tspan class="cls-11" x="43.76" y="0">P</tspan><tspan class="cls-12" x="48.95" y="0">M</tspan></text></g><g id="_Group_16" data-name="&lt;Group&gt;"><text class="cls-10" transform="translate(119.09 520.33)">–</text></g><g id="_Group_17" data-name="&lt;Group&gt;"><text class="cls-13" transform="translate(47.73 489.43)">TUES<tspan class="cls-14" x="27.12" y="0">D</tspan><tspan class="cls-15" x="35.18" y="0">A</tspan><tspan x="41.97" y="0">Y</tspan></text></g><text class="cls-10" transform="translate(142.72 519.23)">1:00 <tspan class="cls-11" x="34.78" y="0">P</tspan><tspan class="cls-12" x="39.97" y="0">M</tspan></text><line id="_Path_15" data-name="&lt;Path&gt;" class="cls-20" x1="23.85" y1="255.75" x2="356.57" y2="255.75"/></g></g></svg>