<?xml version="1.0" encoding="utf-8"?>
<!-- Generator: Adobe Illustrator 16.0.0, SVG Export Plug-In . SVG Version: 6.00 Build 0)  -->
<!DOCTYPE svg PUBLIC "-//W3C//DTD SVG 1.1//EN" "http://www.w3.org/Graphics/SVG/1.1/DTD/svg11.dtd">
<svg version="1.1" id="Layer_1" xmlns="http://www.w3.org/2000/svg" xmlns:xlink="http://www.w3.org/1999/xlink" x="0px" y="0px"
	 width="519.205px" height="455.771px" viewBox="0 0 519.205 455.771" enable-background="new 0 0 519.205 455.771"
	 xml:space="preserve">
<g>
	<path fill="none" stroke="#798082" stroke-width="7.2114" stroke-miterlimit="10" d="M192.761,170.211"/>
	<path fill="none" stroke="#798082" stroke-width="7.2114" stroke-miterlimit="10" d="M194.144,160.244
		c1.012-39.759,16.685-79.212,47.026-109.554c62.78-62.779,164.565-62.78,227.345-0.001s62.779,164.565-0.001,227.345
		c-62.777,62.777-164.562,62.777-227.342-0.002L2.55,39.41"/>
	<polygon fill="#798082" points="206.225,148.821 194.807,168.6 183.387,148.822 	"/>
</g>
<line fill="none" stroke="#798082" stroke-width="7.2114" stroke-miterlimit="10" x1="192.761" y1="318.052" x2="192.761" y2="455.771"/>
<g>
	<path fill="none" stroke="#798082" stroke-width="7" stroke-miterlimit="10" d="M425.391,166.205
		c0-10.141,6.243-18.146,15.645-23.648c-1.693-5.662-3.937-11.083-6.697-16.189c-10.543,2.761-19.076-1.372-26.248-8.543
		c-7.172-7.17-9.369-15.709-6.609-26.247c-5.104-2.763-10.525-5.008-16.188-6.7c-5.504,9.404-15.442,15.646-25.585,15.646
		s-20.082-6.241-25.587-15.646c-5.662,1.69-11.083,3.938-16.188,6.695c2.756,10.543,0.563,19.078-6.608,26.252
		c-7.173,7.174-15.709,11.304-26.25,8.547c-2.761,5.103-5.005,10.523-6.699,16.186c9.402,5.502,15.646,13.508,15.646,23.648
		c0,10.143-6.243,20.084-15.646,25.585c1.694,5.664,3.938,11.085,6.699,16.192c10.543-2.761,19.077-0.565,26.25,6.606
		c7.171,7.173,9.364,15.708,6.608,26.252c5.104,2.758,10.525,5.006,16.189,6.695c5.503-9.401,15.442-15.646,25.585-15.646
		s20.081,6.245,25.585,15.646c5.663-1.692,11.085-3.938,16.19-6.7c-2.757-10.539-0.564-19.074,6.607-26.247
		c7.172-7.172,15.708-11.304,26.248-8.545c2.761-5.105,5.004-10.527,6.697-16.19C431.634,184.354,425.391,176.348,425.391,166.205z
		 M359.707,201.575c-19.535,0-35.369-15.837-35.369-35.37c0-19.534,15.834-35.369,35.369-35.369
		c19.534,0,35.366,15.835,35.366,35.369C395.073,185.738,379.241,201.575,359.707,201.575z"/>
</g>
<g>
</g>
<g>
</g>
<g>
</g>
<g>
</g>
<g>
</g>
<g>
</g>
<g>
</g>
<g>
</g>
<g>
</g>
<g>
</g>
<g>
</g>
<g>
</g>
<g>
</g>
<g>
</g>
<g>
</g>
</svg>
