<?xml version="1.0" encoding="utf-8"?>
<!-- Generator: Adobe Illustrator 16.0.0, SVG Export Plug-In . SVG Version: 6.00 Build 0)  -->
<!DOCTYPE svg PUBLIC "-//W3C//DTD SVG 1.1//EN" "http://www.w3.org/Graphics/SVG/1.1/DTD/svg11.dtd">
<svg version="1.1" id="Layer_1" xmlns="http://www.w3.org/2000/svg" xmlns:xlink="http://www.w3.org/1999/xlink" x="0px" y="0px"
	 width="541.681px" height="453.922px" viewBox="0 0 541.681 453.922" enable-background="new 0 0 541.681 453.922"
	 xml:space="preserve">
<path fill="none" stroke="#6F7F84" stroke-width="7.2114" stroke-miterlimit="10" d="M275.082,173.016
	c-28.829-27.398-67.809-44.213-110.719-44.213c-88.784,0-160.758,71.974-160.758,160.757s71.974,160.757,160.758,160.757
	c88.78,0,160.754-71.974,160.754-160.757V0"/>
<line fill="none" stroke="#6F7F84" stroke-width="7.2114" stroke-miterlimit="10" x1="364.745" y1="269.879" x2="539.131" y2="444.265"/>
<g>
	
		<rect x="96.267" y="206.211" fill="none" stroke="#6F7F84" stroke-width="7.2114" stroke-miterlimit="10" width="139.49" height="177.227"/>
	
		<line fill="none" stroke="#6F7F84" stroke-width="7.2114" stroke-miterlimit="10" x1="235.757" y1="260.623" x2="96.267" y2="260.623"/>
	<polyline fill="none" stroke="#6F7F84" stroke-width="7.2114" stroke-miterlimit="10" points="115.204,260.623 144.353,234.152 
		158.647,247.134 183.631,224.446 223.84,260.959 	"/>
	
		<line fill="none" stroke="#6F7F84" stroke-width="7.2114" stroke-miterlimit="10" x1="125.224" y1="278.979" x2="206.799" y2="278.979"/>
	
		<line fill="none" stroke="#6F7F84" stroke-width="7.2114" stroke-miterlimit="10" x1="143.185" y1="293.437" x2="188.839" y2="293.437"/>
	
		<rect x="115.204" y="316.019" fill="none" stroke="#6F7F84" stroke-width="7.2114" stroke-miterlimit="10" width="42.775" height="51.134"/>
	
		<rect x="175.845" y="316.019" fill="none" stroke="#6F7F84" stroke-width="7.2114" stroke-miterlimit="10" width="42.775" height="51.134"/>
</g>
<g>
</g>
<g>
</g>
<g>
</g>
<g>
</g>
<g>
</g>
<g>
</g>
<g>
</g>
<g>
</g>
<g>
</g>
<g>
</g>
<g>
</g>
<g>
</g>
<g>
</g>
<g>
</g>
<g>
</g>
</svg>
