<?xml version="1.0" encoding="utf-8"?>
<!-- Generator: Adobe Illustrator 16.0.0, SVG Export Plug-In . SVG Version: 6.00 Build 0)  -->
<!DOCTYPE svg PUBLIC "-//W3C//DTD SVG 1.1//EN" "http://www.w3.org/Graphics/SVG/1.1/DTD/svg11.dtd">
<svg version="1.1" id="Layer_1" xmlns="http://www.w3.org/2000/svg" xmlns:xlink="http://www.w3.org/1999/xlink" x="0px" y="0px"
	 width="535.23px" height="325.729px" viewBox="0 0 535.23 325.729" enable-background="new 0 0 535.23 325.729"
	 xml:space="preserve">
<g>
	<g>
		<path fill="none" stroke="#CECECE" stroke-width="10.2098" stroke-miterlimit="10" d="M162.722,3.853"/>
		<g>
			<path fill="none" stroke="#CECECE" stroke-width="7.1395" stroke-miterlimit="10" d="M278.104,53.39
				c27.123,28.541,43.772,67.132,43.771,109.617c0,87.896-71.256,159.15-159.152,159.152
				C74.825,322.157,3.571,250.903,3.569,163.005C3.571,75.108,74.827,3.854,162.722,3.853"/>
			<polygon fill="#CECECE" points="277.642,69.844 271.791,48.003 293.63,53.856 			"/>
		</g>
	</g>
	<line fill="none" stroke="#CECECE" stroke-width="7.1395" stroke-miterlimit="10" x1="162.724" y1="3.569" x2="535.23" y2="3.57"/>
</g>
<g>
	<g>
		<g>
			<circle fill="none" stroke="#CECECE" stroke-width="7.1395" stroke-miterlimit="10" cx="168.961" cy="174.42" r="71.741"/>
			
				<line fill="none" stroke="#CECECE" stroke-width="7.1395" stroke-miterlimit="10" x1="168.962" y1="81.283" x2="168.962" y2="102.678"/>
			
				<line fill="none" stroke="#CECECE" stroke-width="7.1395" stroke-miterlimit="10" x1="154" y1="81.283" x2="183.924" y2="81.283"/>
		</g>
		
			<line fill="none" stroke="#CECECE" stroke-width="7.1395" stroke-miterlimit="10" x1="214.28" y1="119.978" x2="226.406" y2="107.852"/>
	</g>
	<circle fill="none" stroke="#CECECE" stroke-width="7.1395" stroke-miterlimit="10" cx="168.961" cy="172.398" r="8.884"/>
	
		<line fill="none" stroke="#CECECE" stroke-width="7.1395" stroke-miterlimit="10" x1="168.961" y1="163.516" x2="168.961" y2="119.978"/>
</g>
<g>
</g>
<g>
</g>
<g>
</g>
<g>
</g>
<g>
</g>
<g>
</g>
<g>
</g>
<g>
</g>
<g>
</g>
<g>
</g>
<g>
</g>
<g>
</g>
<g>
</g>
<g>
</g>
<g>
</g>
</svg>
