<?xml version="1.0" encoding="utf-8"?>
<!-- Generator: Adobe Illustrator 16.0.0, SVG Export Plug-In . SVG Version: 6.00 Build 0)  -->
<!DOCTYPE svg PUBLIC "-//W3C//DTD SVG 1.1//EN" "http://www.w3.org/Graphics/SVG/1.1/DTD/svg11.dtd">
<svg version="1.1" id="Layer_1" xmlns="http://www.w3.org/2000/svg" xmlns:xlink="http://www.w3.org/1999/xlink" x="0px" y="0px"
	 width="494.619px" height="478.168px" viewBox="0 0 494.619 478.168" enable-background="new 0 0 494.619 478.168"
	 xml:space="preserve">
<g>
	<path fill="none" stroke="#798082" stroke-width="7.1484" stroke-miterlimit="10" d="M75.57,2.527l200.035,200.036
		c62.231,62.23,62.23,163.126,0,225.357s-163.127,62.23-225.357,0s-62.23-163.127,0-225.357
		c30.077-30.077,69.188-45.615,108.599-46.617"/>
	<polygon fill="#798082" points="147.522,167.923 167.128,156.602 147.522,145.285 	"/>
</g>
<line fill="none" stroke="#798082" stroke-width="7.1484" stroke-miterlimit="10" x1="322.279" y1="156.604" x2="494.619" y2="156.604"/>
<g>
	<polyline fill="none" stroke="#798082" stroke-width="7.1484" stroke-miterlimit="10" points="258.05,383.035 85.154,383.035 
		85.154,227.696 	"/>
	<g>
		
			<rect x="111.021" y="307.016" fill="none" stroke="#798082" stroke-width="7.1484" stroke-miterlimit="10" width="25.406" height="76.02"/>
		
			<rect x="157.146" y="273.982" fill="none" stroke="#798082" stroke-width="7.1484" stroke-miterlimit="10" width="25.404" height="109.053"/>
		
			<rect x="203.269" y="320.883" fill="none" stroke="#798082" stroke-width="7.1484" stroke-miterlimit="10" width="25.404" height="62.152"/>
	</g>
	
		<line fill="none" stroke="#798082" stroke-width="7.1484" stroke-miterlimit="10" x1="136.427" y1="328.508" x2="111.021" y2="353.914"/>
	
		<line fill="none" stroke="#798082" stroke-width="7.1484" stroke-miterlimit="10" x1="182.451" y1="315.189" x2="157.044" y2="340.596"/>
	
		<line fill="none" stroke="#798082" stroke-width="7.1484" stroke-miterlimit="10" x1="228.576" y1="335.422" x2="203.169" y2="360.828"/>
</g>
<g>
</g>
<g>
</g>
<g>
</g>
<g>
</g>
<g>
</g>
<g>
</g>
<g>
</g>
<g>
</g>
<g>
</g>
<g>
</g>
<g>
</g>
<g>
</g>
<g>
</g>
<g>
</g>
<g>
</g>
</svg>
