<?xml version="1.0" encoding="utf-8"?>
<!-- Generator: Adobe Illustrator 16.0.0, SVG Export Plug-In . SVG Version: 6.00 Build 0)  -->
<!DOCTYPE svg PUBLIC "-//W3C//DTD SVG 1.1//EN" "http://www.w3.org/Graphics/SVG/1.1/DTD/svg11.dtd">
<svg version="1.1" id="Layer_1" xmlns="http://www.w3.org/2000/svg" xmlns:xlink="http://www.w3.org/1999/xlink" x="0px" y="0px"
	 width="738.795px" height="738.795px" viewBox="0 0 738.795 738.795" enable-background="new 0 0 738.795 738.795"
	 xml:space="preserve">
<g>
	<defs>
		<rect id="SVGID_1_" width="738.795" height="738.795"/>
	</defs>
	<clipPath id="SVGID_2_">
		<use xlink:href="#SVGID_1_"  overflow="visible"/>
	</clipPath>
	<g opacity="0.15" clip-path="url(#SVGID_2_)">
		<g>
			
				<path fill="none" stroke="#90A4AE" stroke-width="10" stroke-linecap="round" stroke-linejoin="round" stroke-miterlimit="10" d="
				M28.925-124.614l44.124,92.168c2.197,4.592,4.912,12.416,6.023,17.382l6.813,30.362c1.118,4.967,3.825,12.789,6.025,17.381
				l95.166,195.018"/>
			
				<path fill="none" stroke="#90A4AE" stroke-width="10" stroke-linecap="round" stroke-linejoin="round" stroke-miterlimit="10" d="
				M77.047-24.096l25.14,31.59c3.174,3.982,7.567,10.999,9.767,15.592l95.161,195.016"/>
		</g>
		<g>
			
				<path fill="none" stroke="#90A4AE" stroke-width="10" stroke-linecap="round" stroke-linejoin="round" stroke-miterlimit="10" d="
				M550.727,963.693L373.133,600.223c-2.198-4.592-4.912-12.416-6.024-17.383l-6.811-30.361c-1.12-4.967-3.828-12.791-6.026-17.383
				l-95.166-195.017"/>
			
				<path fill="none" stroke="#90A4AE" stroke-width="10" stroke-linecap="round" stroke-linejoin="round" stroke-miterlimit="10" d="
				M369.137,591.871l-25.143-31.589c-3.172-3.985-7.564-10.998-9.766-15.592l-95.16-195.017"/>
		</g>
		
			<circle fill="none" stroke="#90A4AE" stroke-width="13" stroke-linecap="round" stroke-linejoin="round" stroke-miterlimit="10" cx="220.32" cy="282.917" r="64.423"/>
		
			<line fill="none" stroke="#90A4AE" stroke-width="11" stroke-linecap="round" stroke-linejoin="round" stroke-miterlimit="10" x1="-318.086" y1="42.649" x2="161.308" y2="257.073"/>
		
			<line fill="none" stroke="#90A4AE" stroke-width="11" stroke-linecap="round" stroke-linejoin="round" stroke-miterlimit="10" x1="278.809" y1="308.867" x2="742.426" y2="516.234"/>
		
			<line fill="none" stroke="#90A4AE" stroke-width="11" stroke-linecap="round" stroke-linejoin="round" stroke-miterlimit="10" x1="255.825" y1="229.166" x2="517.645" y2="-117.389"/>
		
			<line fill="none" stroke="#90A4AE" stroke-width="11" stroke-linecap="round" stroke-linejoin="round" stroke-miterlimit="10" x1="-250.178" y1="932.552" x2="183.434" y2="335.718"/>
		
			<line fill="none" stroke="#90A4AE" stroke-width="7" stroke-linecap="round" stroke-linejoin="round" stroke-miterlimit="10" x1="92.145" y1="41.778" x2="92.145" y2="932.552"/>
		
			<line fill="none" stroke="#90A4AE" stroke-width="7" stroke-linecap="round" stroke-linejoin="round" stroke-miterlimit="10" x1="220.32" y1="347.338" x2="220.32" y2="932.552"/>
		
			<line fill="none" stroke="#90A4AE" stroke-width="7" stroke-linecap="round" stroke-linejoin="round" stroke-miterlimit="10" x1="220.32" y1="-124.498" x2="220.32" y2="218.494"/>
		
			<line fill="none" stroke="#90A4AE" stroke-width="7" stroke-linecap="round" stroke-linejoin="round" stroke-miterlimit="10" x1="284.743" y1="282.917" x2="974.942" y2="282.917"/>
		
			<line fill="none" stroke="#90A4AE" stroke-width="7" stroke-linecap="round" stroke-linejoin="round" stroke-miterlimit="10" x1="366.168" y1="-117.389" x2="366.168" y2="932.552"/>
		
			<line fill="none" stroke="#90A4AE" stroke-width="7" stroke-linecap="round" stroke-linejoin="round" stroke-miterlimit="10" x1="620.369" y1="-117.389" x2="620.369" y2="932.552"/>
		
			<line fill="none" stroke="#90A4AE" stroke-width="7" stroke-linecap="round" stroke-linejoin="round" stroke-miterlimit="10" x1="944.216" y1="-117.389" x2="944.216" y2="932.552"/>
		
			<line fill="none" stroke="#90A4AE" stroke-width="13" stroke-linecap="round" stroke-linejoin="round" stroke-miterlimit="10" x1="782.291" y1="-117.389" x2="782.291" y2="932.552"/>
		
			<line fill="none" stroke="#90A4AE" stroke-width="7" stroke-linecap="round" stroke-linejoin="round" stroke-miterlimit="10" x1="-359.504" y1="533.64" x2="684.793" y2="533.64"/>
		
			<polyline fill="none" stroke="#90A4AE" stroke-width="7" stroke-linecap="round" stroke-linejoin="round" stroke-miterlimit="10" points="
			-33.373,-117.389 -33.373,282.917 -33.134,282.917 155.896,282.917 		"/>
		
			<polyline fill="none" stroke="#90A4AE" stroke-width="7" stroke-linecap="round" stroke-linejoin="round" stroke-miterlimit="10" points="
			-213.618,-117.389 -213.618,239.898 -299.134,239.898 		"/>
		
			<line fill="none" stroke="#90A4AE" stroke-width="7" stroke-linecap="round" stroke-linejoin="round" stroke-miterlimit="10" x1="419.129" y1="694.358" x2="742.426" y2="549.309"/>
		
			<line fill="none" stroke="#90A4AE" stroke-width="7" stroke-linecap="round" stroke-linejoin="round" stroke-miterlimit="10" x1="28.925" y1="282.917" x2="28.925" y2="425.348"/>
		
			<polyline fill="none" stroke="#90A4AE" stroke-width="7" stroke-linecap="round" stroke-linejoin="round" stroke-miterlimit="10" points="
			94.544,425.348 -33.134,425.348 -33.373,425.342 -33.373,932.552 		"/>
		
			<polyline fill="none" stroke="#90A4AE" stroke-width="7" stroke-linecap="round" stroke-linejoin="round" stroke-miterlimit="10" points="
			-173.059,131.626 -173.059,237.067 -67.123,237.067 		"/>
		
			<polyline fill="none" stroke="#90A4AE" stroke-width="7" stroke-linecap="round" stroke-linejoin="round" stroke-miterlimit="10" points="
			-33.373,470.779 -213.618,470.779 -213.618,932.552 		"/>
		
			<line fill="none" stroke="#90A4AE" stroke-width="7" stroke-linecap="round" stroke-linejoin="round" stroke-miterlimit="10" x1="-286.746" y1="-24.096" x2="974.942" y2="-24.096"/>
		
			<line fill="none" stroke="#90A4AE" stroke-width="7" stroke-linecap="round" stroke-linejoin="round" stroke-miterlimit="10" x1="620.369" y1="495.527" x2="442.777" y2="470.773"/>
		
			<polyline fill="none" stroke="#90A4AE" stroke-width="7" stroke-linecap="round" stroke-linejoin="round" stroke-miterlimit="10" points="
			451.481,533.64 451.481,606.766 481.955,666.172 		"/>
		
			<line fill="none" stroke="#90A4AE" stroke-width="7" stroke-linecap="round" stroke-linejoin="round" stroke-miterlimit="10" x1="366.168" y1="613.731" x2="220.32" y2="613.731"/>
		
			<line fill="none" stroke="#90A4AE" stroke-width="7" stroke-linecap="round" stroke-linejoin="round" stroke-miterlimit="10" x1="94.544" y1="461.553" x2="220.32" y2="461.553"/>
		
			<line fill="none" stroke="#90A4AE" stroke-width="7" stroke-linecap="round" stroke-linejoin="round" stroke-miterlimit="10" x1="-213.618" y1="129.635" x2="974.942" y2="129.635"/>
		
			<line fill="none" stroke="#90A4AE" stroke-width="7" stroke-linecap="round" stroke-linejoin="round" stroke-miterlimit="10" x1="220.32" y1="46.999" x2="974.942" y2="46.999"/>
		
			<polyline fill="none" stroke="#90A4AE" stroke-width="7" stroke-linecap="round" stroke-linejoin="round" stroke-miterlimit="10" points="
			974.942,694.358 94.548,694.358 -33.373,694.358 -111.765,742.035 -459.803,742.035 		"/>
		
			<line fill="none" stroke="#90A4AE" stroke-width="7" stroke-linecap="round" stroke-linejoin="round" stroke-miterlimit="10" x1="94.544" y1="796.547" x2="220.32" y2="796.547"/>
		
			<line fill="none" stroke="#90A4AE" stroke-width="7" stroke-linecap="round" stroke-linejoin="round" stroke-miterlimit="10" x1="221.855" y1="822.662" x2="369.137" y2="822.662"/>
		
			<line fill="none" stroke="#90A4AE" stroke-width="7" stroke-linecap="round" stroke-linejoin="round" stroke-miterlimit="10" x1="161.308" y1="796.547" x2="161.308" y2="902.757"/>
		
			<line fill="none" stroke="#90A4AE" stroke-width="7" stroke-linecap="round" stroke-linejoin="round" stroke-miterlimit="10" x1="-318.086" y1="902.757" x2="974.942" y2="902.757"/>
		
			<line fill="none" stroke="#90A4AE" stroke-width="7" stroke-linecap="round" stroke-linejoin="round" stroke-miterlimit="10" x1="366.168" y1="207.242" x2="620.369" y2="207.242"/>
		
			<polyline fill="none" stroke="#90A4AE" stroke-width="7" stroke-linecap="round" stroke-linejoin="round" stroke-miterlimit="10" points="
			580.776,129.635 580.776,174.009 366.168,174.009 		"/>
		
			<polyline fill="none" stroke="#90A4AE" stroke-width="7" stroke-linecap="round" stroke-linejoin="round" stroke-miterlimit="10" points="
			-33.373,73.989 -91.742,73.989 -91.742,25.549 -138.753,9.567 		"/>
		
			<polyline fill="none" stroke="#90A4AE" stroke-width="7" stroke-linecap="round" stroke-linejoin="round" stroke-miterlimit="10" points="
			-213.618,89.375 -113.281,-24.096 -69.109,-117.389 		"/>
		
			<polyline fill="none" stroke="#90A4AE" stroke-width="7" stroke-linecap="round" stroke-linejoin="round" stroke-miterlimit="10" points="
			-213.618,621.834 -154.424,621.834 -69.109,683.321 		"/>
		
			<polyline fill="none" stroke="#90A4AE" stroke-width="7" stroke-linecap="round" stroke-linejoin="round" stroke-miterlimit="10" points="
			-154.424,621.834 -141.365,599.906 -95.225,599.906 -95.225,577.168 		"/>
		
			<polyline fill="none" stroke="#90A4AE" stroke-width="7" stroke-linecap="round" stroke-linejoin="round" stroke-miterlimit="10" points="
			-111.765,652.578 -86.064,621.834 -95.225,599.906 		"/>
		
			<line fill="none" stroke="#90A4AE" stroke-width="7" stroke-linecap="round" stroke-linejoin="round" stroke-miterlimit="10" x1="469.057" y1="796.547" x2="782.291" y2="796.547"/>
		
			<polyline fill="none" stroke="#90A4AE" stroke-width="7" stroke-linecap="round" stroke-linejoin="round" stroke-miterlimit="10" points="
			620.369,416.079 684.793,416.079 721.354,439.62 721.354,506.811 		"/>
		
			<line fill="none" stroke="#90A4AE" stroke-width="7" stroke-linecap="round" stroke-linejoin="round" stroke-miterlimit="10" x1="694.526" y1="422.348" x2="668.458" y2="483.15"/>
		
			<line fill="none" stroke="#90A4AE" stroke-width="7" stroke-linecap="round" stroke-linejoin="round" stroke-miterlimit="10" x1="620.369" y1="382.164" x2="944.216" y2="382.164"/>
	</g>
	<g opacity="0.3" clip-path="url(#SVGID_2_)">
		<path fill="#90A4AE" d="M184.636,266.848h3.826c3.057,0,5.17,1.697,5.186,5.778c-0.016,4.082-2.129,5.778-5.186,5.778h-3.826
			V266.848z M186.845,276.547h1.473c2.529,0,3.121-1.856,3.121-3.921s-0.592-3.921-3.121-3.921h-1.473V276.547z"/>
		<path fill="#90A4AE" d="M203.663,266.848h2.209v7.235c0,3.377-2.081,4.482-4.434,4.482s-4.434-1.104-4.434-4.482v-7.235h2.209
			v7.331c0,1.873,0.736,2.529,2.225,2.529s2.225-0.656,2.225-2.529V266.848z"/>
		<path fill="#90A4AE" d="M209.901,278.404v-11.557h4.226c2.497,0,4.081,1.041,4.081,3.441s-1.584,3.441-4.081,3.441h-2.018v4.674
			H209.901z M212.109,271.938h1.761c1.665,0,2.129-0.624,2.129-1.648s-0.464-1.649-2.129-1.649h-1.761V271.938z"/>
		<path fill="#90A4AE" d="M225.518,278.564c-3.153,0-4.85-2.161-4.85-5.938s1.696-5.938,4.85-5.938s4.85,2.161,4.85,5.938
			S228.671,278.564,225.518,278.564z M225.518,268.544c-1.809,0-2.641,1.376-2.641,4.082c-0.032,2.705,0.816,4.082,2.641,4.082
			c1.809,0,2.642-1.376,2.642-4.082S227.327,268.544,225.518,268.544z"/>
		<path fill="#90A4AE" d="M233.756,278.404v-11.557h2.305l4.546,7.875h0.032v-7.875h2.08v11.557h-2.129l-4.722-8.228h-0.032v8.228
			H233.756z"/>
		<path fill="#90A4AE" d="M254.191,266.832v1.857h-3.024v9.716h-2.209v-9.716h-3.025v-1.857H254.191z"/>
		<path fill="#90A4AE" d="M194.992,291.209c-0.32-0.977-1.009-1.665-2.098-1.665c-1.472,0-2.368,1.376-2.368,4.082
			c-0.032,2.705,0.768,4.082,2.433,4.082c0.992,0,1.601-0.352,2.257-1.712l2.049,0.544c-0.688,2.001-2.192,3.025-4.306,3.025
			c-2.945,0-4.642-2.161-4.642-5.938s1.696-5.938,4.642-5.938c2.209,0,3.489,0.993,4.033,3.042L194.992,291.209z"/>
		<path fill="#90A4AE" d="M200.765,299.404v-11.557h2.209v11.557H200.765z"/>
		<path fill="#90A4AE" d="M207.388,299.404v-11.557h4.61c2.625,0,3.682,1.521,3.697,3.425c0.017,1.425-0.704,2.577-2.112,2.977
			l2.545,5.154h-2.449l-2.177-4.706h-1.905v4.706H207.388z M209.597,292.906h1.633c1.729,0,2.257-0.544,2.257-1.633
			s-0.656-1.633-1.872-1.633h-2.018V292.906z"/>
		<path fill="#90A4AE" d="M225.567,291.209c-0.32-0.977-1.009-1.665-2.098-1.665c-1.473,0-2.368,1.376-2.368,4.082
			c-0.032,2.705,0.768,4.082,2.433,4.082c0.992,0,1.601-0.352,2.257-1.712l2.049,0.544c-0.688,2.001-2.192,3.025-4.306,3.025
			c-2.945,0-4.642-2.161-4.642-5.938s1.696-5.938,4.642-5.938c2.209,0,3.489,0.993,4.033,3.042L225.567,291.209z"/>
		<path fill="#90A4AE" d="M231.036,299.404v-11.557h2.209v9.7h5.026v1.857H231.036z"/>
		<path fill="#90A4AE" d="M241.628,299.404v-11.557h7.651v1.857h-5.442v2.753h3.953v1.857h-3.953v3.233h5.618v1.857H241.628z"/>
	</g>
</g>
<g>
	<g>
		<path fill="#BDBDBD" d="M234,484.688c-6.449,0-41.588-0.203-38.752,11.326c1.084,4.404,11.081,7.857,14.852,8.269l7.986,3.418
			l7.986-3.418c11.403-1.241,31.498-5.06,31.498-9.584C257.57,489.17,249.295,484.688,234,484.688z"/>
		<g>
			<path fill="#424242" d="M218.236,400.403c-25.773,0-46.677,20.896-46.677,46.675c0,21.096,14.009,38.902,33.212,44.682
				l13.458,15.94l13.458-15.94c19.215-5.783,33.221-23.586,33.221-44.682C264.908,421.3,244.008,400.403,218.236,400.403z"/>
			<g>
				<polygon fill="#FFFFFF" points="236.68,435.775 223.713,435.77 224.203,438.278 233.145,438.28 230.566,445.228 231.93,452.171 
					218.613,452.171 217.688,447.43 215.082,447.43 216.502,454.676 235.027,454.676 233.174,445.228 				"/>
				<path fill="#D4D5D6" d="M226.816,438.28l-2.609-0.002l-0.488-2.509l2.602,0.002L226.816,438.28z M217.688,447.43h-2.605
					l0.489,2.507h2.608L217.688,447.43z"/>
				<polygon fill="#FFFFFF" points="206.367,431.026 220.176,431.026 222.902,444.924 209.096,444.924 209.586,447.43 
					225.997,447.43 222.293,428.521 205.874,428.521 				"/>
				<path fill="#D4D5D6" d="M211.656,444.924l0.488,2.506h-2.559l-0.49-2.506H211.656z M206.367,431.026h2.559l-0.492-2.505h-2.56
					L206.367,431.026z"/>
				<polygon fill="#FFFFFF" points="205.383,426.014 202.775,426.014 210.822,466.979 213.427,466.979 				"/>
			</g>
		</g>
	</g>
</g>
<g>
</g>
<g>
</g>
<g>
</g>
<g>
</g>
<g>
</g>
<g>
</g>
<g>
</g>
<g>
</g>
<g>
</g>
<g>
</g>
<g>
</g>
<g>
</g>
<g>
</g>
<g>
</g>
<g>
</g>
</svg>
