<svg version="1.1" id="Layer_1" xmlns="http://www.w3.org/2000/svg" xmlns:xlink="http://www.w3.org/1999/xlink" x="0px" y="0px"
	 width="7px" height="7px" viewBox="0 0 7 7" enable-background="new 0 0 7 7" xml:space="preserve">
<g>
	<g>
		<path d="M2.434,1.382h0.799v2.616c0,1.222-0.754,1.62-1.604,1.62C0.777,5.62,0.025,5.22,0.025,3.998V1.382h0.799v2.65
			c0,0.678,0.266,0.914,0.805,0.914c0.537,0,0.805-0.235,0.805-0.914L2.434,1.382L2.434,1.382z"/>
		<path d="M3.918,1.382h0.869l0.625,1.291l0.625-1.291h0.869L5.846,3.42l1.129,2.142H6.107L5.412,4.143L4.717,5.562H3.85L4.979,3.42
			L3.918,1.382z"/>
	</g>
</g>
</svg>
