<svg version="1.1" id="Layer_1" xmlns="http://www.w3.org/2000/svg" xmlns:xlink="http://www.w3.org/1999/xlink" x="0px" y="0px"
	 width="64px" height="24px" viewBox="0 0 64 24" enable-background="new 0 0 64 24" xml:space="preserve">
<g>
	<g>
		<g>
			<path fill="#CDCCCC" d="M58.354,9.363c0,0.662-0.263,0.796-0.688,0.796c-0.425,0-0.688-0.134-0.688-0.796V6.659H55.99v2.67
				c0,1.473,1.05,1.692,1.675,1.692s1.675-0.22,1.675-1.692v-2.67h-0.986V9.363z"/>
			<polygon fill="#CDCCCC" points="62.409,8.761 63.501,6.659 62.419,6.659 61.868,7.796 61.317,6.659 60.235,6.659 61.328,8.761 
				60.167,10.964 61.249,10.964 61.868,9.7 62.487,10.964 63.569,10.964"/>
		</g>
	</g>
	<path fill="#CDCCCC" d="M35.606,6.741l2.559,6.438l2.572-6.438h2.826l-4.525,10.6h-1.802l-4.456-10.6H35.606z"/>
	<path fill="#CDCCCC" d="M53.3,9.074h-4.619v1.771h3.61v2.334h-3.61v1.827H53.3v2.334h-7.205v-10.6H53.3V9.074z"/>
	<path fill="#CDCCCC" d="M30.108,17.341h2.827l-4.456-10.6h-1.801l-4.527,10.6h2.826l0.729-1.823h3.678L30.108,17.341z
		 M26.452,13.292l1.098-2.75l1.093,2.75H26.452z"/>
	<path fill="#CDCCCC" d="M6.396,11.948c0.711-0.378,1.537-1.227,1.537-2.392c0-1.59-1.469-2.815-3.256-2.815H0v10.6h4.905
		c1.8,0,3.299-1.227,3.299-2.923C8.205,13.024,7.198,12.282,6.396,11.948z M2.362,8.921h2.042c0.577,0,1.061,0.424,1.061,1.029
		c0,0.606-0.484,1.09-1.061,1.09H2.362V8.921z M4.602,15.175h-2.24v-2.166h2.088c0.591,0,1.241,0.455,1.241,1.061
		C5.692,14.69,5.191,15.175,4.602,15.175z"/>
	<path fill="#CDCCCC" d="M20.028,17.341l-2.729-3.997c1.376-0.554,2.123-1.726,2.123-3.182c0-1.886-1.333-3.421-3.234-3.421h-5.16
		v10.6h2.425v-3.852h1.201l2.586,3.852H20.028z M13.453,9.006h2.53c0.649,0,1.204,0.537,1.204,1.204
		c0,0.664-0.554,1.268-1.204,1.268h-2.53V9.006z"/>
</g>
</svg>