<svg xmlns="http://www.w3.org/2000/svg" viewBox="0 0 681.7 302"><title>state-card3</title><rect x="470.1" width="211.5" height="302" style="fill:#fff"/><rect x="646.6" width="35.1" height="35.1" style="fill:#a6273c"/><path d="M657,20.1a3,3,0,0,0,2.3,1.1,1.741,1.741,0,0,0,1.9-1.7c0-1.1-.7-1.8-2.9-1.8v-.9c2,0,2.6-.8,2.6-1.7a1.446,1.446,0,0,0-1.6-1.5,3.081,3.081,0,0,0-2,.9l-.6-.8a3.733,3.733,0,0,1,2.6-1.2c1.6,0,2.8.8,2.8,2.3a2.341,2.341,0,0,1-1.7,2.2v.1a2.446,2.446,0,0,1,2,2.3c0,1.6-1.3,2.6-3,2.6a3.7,3.7,0,0,1-3-1.3Z" style="fill:#ededed"/><path d="M667.1,19.3,665.8,17H665v2.3h-1V13.4h2c1.2,0,2.2.4,2.2,1.7a1.743,1.743,0,0,1-1.2,1.7l1.4,2.5ZM665,16.1h.8c.8,0,1.2-.3,1.2-1s-.4-.9-1.2-.9H665Z" style="fill:#ededed"/><path d="M669.3,13.4h1.6a2.633,2.633,0,0,1,2.9,2.9c0,2-1.1,3-2.8,3h-1.6V13.4Zm1.5,5c1.2,0,1.9-.7,1.9-2.1s-.7-2.1-1.9-2.1h-.5v4.2Z" style="fill:#ededed"/><path d="M530.2,101.7h2.1l2.7,7.4,1,2.8h.1l1-2.8,2.6-7.4h2.1v13.8H540v-7.6c0-1.2.1-2.9.2-4.1h-.1l-1.1,3.1-2.6,7.2h-1l-2.7-7.2-1.1-3.1h-.1c.1,1.2.2,2.9.2,4.1v7.6h-1.6V101.7Z" style="fill:#184d5b"/><path d="M545,102.1a1.2,1.2,0,1,1,1.2,1.1A1.135,1.135,0,0,1,545,102.1Zm.3,3.2H547v10.2h-1.7Z" style="fill:#184d5b"/><path d="M550.4,105.3h1.4l.1,1.5h.1a4.688,4.688,0,0,1,3.4-1.7c2.1,0,3.1,1.4,3.1,4v6.5h-1.7v-6.2c0-1.9-.6-2.7-1.9-2.7a3.756,3.756,0,0,0-2.8,1.6v7.4h-1.7V105.3Z" style="fill:#184d5b"/><path d="M561.9,105.3h1.4l.1,1.5h.1a4.688,4.688,0,0,1,3.4-1.7c2.1,0,3.1,1.4,3.1,4v6.5h-1.7v-6.2c0-1.9-.6-2.7-1.9-2.7a3.756,3.756,0,0,0-2.8,1.6v7.4h-1.7V105.3Z" style="fill:#184d5b"/><path d="M577.2,105c2.6,0,4.1,1.9,4.1,4.8a2.22,2.22,0,0,1-.1.9h-6.9c.1,2.2,1.4,3.6,3.4,3.6a4.147,4.147,0,0,0,2.5-.8l.6,1.1a5.988,5.988,0,0,1-3.4,1.1c-2.7,0-4.9-2-4.9-5.3C572.7,107.1,574.9,105,577.2,105Zm2.6,4.6c0-2.1-.9-3.2-2.5-3.2-1.4,0-2.7,1.2-2.9,3.2Z" style="fill:#184d5b"/><path d="M583.6,113.2a4.714,4.714,0,0,0,3,1.2c1.3,0,2-.7,2-1.6,0-1.1-1.2-1.5-2.3-1.9-1.4-.5-3-1.2-3-2.9,0-1.6,1.3-2.9,3.5-2.9a4.831,4.831,0,0,1,3.2,1.2l-.8,1.1a3.877,3.877,0,0,0-2.3-.9c-1.3,0-1.9.7-1.9,1.5,0,1,1.1,1.3,2.3,1.8,1.5.5,3.1,1.2,3.1,3.1,0,1.7-1.3,3-3.7,3a6.314,6.314,0,0,1-3.8-1.4Z" style="fill:#184d5b"/><path d="M596.6,105c2.5,0,4.7,2,4.7,5.4s-2.2,5.3-4.7,5.3-4.7-2-4.7-5.3C591.9,107,594.1,105,596.6,105Zm0,9.3c1.8,0,2.9-1.6,2.9-3.9,0-2.4-1.2-3.9-2.9-3.9s-2.9,1.6-2.9,3.9S594.9,114.3,596.6,114.3Z" style="fill:#184d5b"/><path d="M604.3,106.7h-1.5v-1.3l1.6-.1.2-2.9H606v2.9h2.8v1.4H606v5.7c0,1.3.4,2,1.6,2a2.663,2.663,0,0,0,1.2-.3l.3,1.3a6.456,6.456,0,0,1-1.9.4c-2.2,0-2.9-1.4-2.9-3.4v-5.7Z" style="fill:#184d5b"/><path d="M616.5,109c0-1.3-.4-2.6-2.1-2.6a4.979,4.979,0,0,0-3,1.1l-.7-1.2a7.588,7.588,0,0,1,4-1.3c2.5,0,3.5,1.7,3.5,4.2v6.3h-1.4l-.1-1.2h0a5.556,5.556,0,0,1-3.4,1.5,2.808,2.808,0,0,1-3-2.9C610.2,110.6,612.2,109.5,616.5,109Zm-2.8,5.4a4.174,4.174,0,0,0,2.8-1.4v-2.8c-3.4.4-4.6,1.3-4.6,2.6C611.9,113.9,612.7,114.4,613.7,114.4Z" style="fill:#184d5b"/><path d="M491.4,176.1h1.4v3.2h3.3v-3.2h1.4v8h-1.4v-3.6h-3.3v3.6h-1.4Z" style="fill:#90a4ae"/><path d="M499.3,176.3a.906.906,0,1,1,.9.8A.882.882,0,0,1,499.3,176.3Zm.1,1.8h1.4v6h-1.4Z" style="fill:#90a4ae"/><path d="M503.1,184h0a1.29,1.29,0,0,1-.5-1.1,1.23,1.23,0,0,1,.7-1.1h0a2.078,2.078,0,0,1-.8-1.6,2.208,2.208,0,0,1,2.4-2.2c.3,0,.6.1.9.1H508v1h-1.1a1.493,1.493,0,0,1,.3,1,2.1,2.1,0,0,1-2.3,2.1,1.077,1.077,0,0,1-.8-.2.713.713,0,0,0-.3.6c0,.3.2.6,1,.6h1.1c1.5,0,2.2.4,2.2,1.5,0,1.2-1.3,2.1-3.2,2.1-1.4,0-2.5-.5-2.5-1.6A1.225,1.225,0,0,1,503.1,184Zm1.9,1.9c1,0,1.6-.5,1.6-1s-.4-.6-1.1-.6h-.8a1.949,1.949,0,0,1-.8-.1,1.02,1.02,0,0,0-.5.8C503.4,185.6,504,185.9,505,185.9Zm.9-5.7a1.063,1.063,0,0,0-1-1.2,1.133,1.133,0,0,0-1.1,1.2,1.079,1.079,0,0,0,1.1,1.2A1.126,1.126,0,0,0,505.9,180.2Z" style="fill:#90a4ae"/><path d="M509.1,175.5h1.4v3.4a2.647,2.647,0,0,1,1.9-.9c1.3,0,1.9.9,1.9,2.4v3.8h-1.4v-3.6c0-1-.3-1.4-.9-1.4a2.053,2.053,0,0,0-1.4.8v4.2h-1.4v-8.7Z" style="fill:#90a4ae"/><path d="M518.8,182.2a3.577,3.577,0,0,0,2.1.9c.9,0,1.4-.4,1.4-1,0-.7-.5-.9-1.2-1.2l-1.1-.5a2.279,2.279,0,0,1-1.6-2.1,2.44,2.44,0,0,1,2.7-2.3,3.946,3.946,0,0,1,2.5,1l-.7.9a2.837,2.837,0,0,0-1.7-.7c-.8,0-1.3.4-1.3.9,0,.6.6.9,1.3,1.1l1.1.5a2.281,2.281,0,0,1,1.6,2.2c0,1.3-1.1,2.4-2.9,2.4a4.005,4.005,0,0,1-2.9-1.2Z" style="fill:#90a4ae"/><path d="M527.8,178a2.481,2.481,0,0,1,1.8.7l-.7.9a1.284,1.284,0,0,0-1-.4c-1,0-1.6.8-1.6,2s.7,2,1.6,2a1.656,1.656,0,0,0,1.2-.5l.6.9a3.176,3.176,0,0,1-2,.8,2.924,2.924,0,0,1-2.9-3.2A2.892,2.892,0,0,1,527.8,178Z" style="fill:#90a4ae"/><path d="M530.8,175.5h1.4v3.4a2.647,2.647,0,0,1,1.9-.9c1.3,0,1.9.9,1.9,2.4v3.8h-1.4v-3.6c0-1-.3-1.4-.9-1.4a2.053,2.053,0,0,0-1.4.8v4.2h-1.4v-8.7Z" style="fill:#90a4ae"/><path d="M540.2,178a3.216,3.216,0,1,1-2.9,3.2A2.923,2.923,0,0,1,540.2,178Zm0,5.2c.9,0,1.4-.8,1.4-2s-.5-2-1.4-2-1.4.8-1.4,2C538.7,182.4,539.3,183.2,540.2,183.2Z" style="fill:#90a4ae"/><path d="M546.9,178a3.216,3.216,0,1,1-2.9,3.2A2.923,2.923,0,0,1,546.9,178Zm0,5.2c.9,0,1.4-.8,1.4-2s-.5-2-1.4-2-1.4.8-1.4,2S546,183.2,546.9,183.2Z" style="fill:#90a4ae"/><path d="M551.2,175.5h1.4v7.2c0,.3.2.5.3.5h.2l.2,1.1a1.719,1.719,0,0,1-.8.1c-1,0-1.4-.7-1.4-1.7v-7.2Z" style="fill:#90a4ae"/><path d="M556.9,178c1.6,0,2.5,1.2,2.5,2.9a1.483,1.483,0,0,1-.1.7h-3.8a1.706,1.706,0,0,0,1.8,1.7,3.255,3.255,0,0,0,1.4-.4l.5.9a3.771,3.771,0,0,1-2.1.7,2.944,2.944,0,0,1-3-3.2A3,3,0,0,1,556.9,178Zm1.3,2.6q0-1.5-1.2-1.5c-.7,0-1.3.5-1.5,1.5Z" style="fill:#90a4ae"/><path d="M560.7,178.1h1.2l.1,1.1h0a2,2,0,0,1,1.7-1.2,1.483,1.483,0,0,1,.7.1l-.2,1.2a1.268,1.268,0,0,0-.6-.1,1.511,1.511,0,0,0-1.4,1.2v3.7h-1.4v-6Z" style="fill:#90a4ae"/><path d="M565.3,182.6a2.837,2.837,0,0,0,1.7.7c.7,0,1-.3,1-.7,0-.5-.7-.7-1.3-1-.8-.3-1.7-.8-1.7-1.8,0-1.1.8-1.8,2.2-1.8a3.221,3.221,0,0,1,2,.7l-.7.9a2.106,2.106,0,0,0-1.3-.5c-.6,0-.9.3-.9.7,0,.5.6.7,1.3.9.8.3,1.7.7,1.7,1.8,0,1-.8,1.9-2.3,1.9a4.539,4.539,0,0,1-2.3-.8Z" style="fill:#90a4ae"/><path d="M631,182.5h1.6v-5.1h-1.3v-.6a5.272,5.272,0,0,0,1.5-.5h.7v6.2h1.4v.7H631Z" style="fill:#546e7a"/><path d="M639.4,177.2H636v-.8h4.4v.6a9.594,9.594,0,0,0-2.1,6.3h-.9A9.516,9.516,0,0,1,639.4,177.2Z" style="fill:#546e7a"/><path d="M642.2,182a.708.708,0,0,1,0,1.4c-.4,0-.6-.3-.6-.7S641.8,182,642.2,182Z" style="fill:#546e7a"/><path d="M644.4,182.5H646v-5.1h-1.3v-.6a5.272,5.272,0,0,0,1.5-.5h.7v6.2h1.4v.7h-3.9Z" style="fill:#546e7a"/><path d="M649.3,178.3c0-1.4.6-2.2,1.6-2.2s1.6.8,1.6,2.2-.6,2.2-1.6,2.2S649.3,179.7,649.3,178.3Zm2.5,0c0-1.1-.4-1.7-.9-1.7-.6,0-.9.5-.9,1.7,0,1.1.4,1.7.9,1.7C651.5,180,651.8,179.4,651.8,178.3Zm-.7,5.1,3.9-7.3h.6l-3.9,7.3Zm3.1-2.2c0-1.4.6-2.2,1.6-2.2s1.6.8,1.6,2.2-.6,2.2-1.6,2.2C654.9,183.4,654.2,182.6,654.2,181.2Zm2.6,0c0-1.1-.4-1.7-.9-1.7s-.9.6-.9,1.7.4,1.7.9,1.7S656.8,182.3,656.8,181.2Z" style="fill:#546e7a"/><path d="M496.9,150.4h-3.7l-.9,3h-2l3.6-11h2.3l3.6,11h-2.1Zm-.4-1.6-.4-1.3c-.4-1.2-.7-2.4-1-3.6H495c-.3,1.2-.6,2.5-1,3.6l-.4,1.3Z" style="fill:#455a64"/><path d="M504,144.9a3.6,3.6,0,0,1,2.2.9l-.1-1.3v-3H508v11.9h-1.6l-.1-.9h-.1a3.356,3.356,0,0,1-2.3,1.1c-2.1,0-3.4-1.6-3.4-4.3C500.5,146.5,502.2,144.9,504,144.9Zm.4,7a2.235,2.235,0,0,0,1.7-.9v-3.9a2.51,2.51,0,0,0-1.7-.7c-1.1,0-1.9,1-1.9,2.7C502.5,151,503.2,151.9,504.4,151.9Z" style="fill:#455a64"/><path d="M510.4,145.1h1.9V150c0,1.4.4,1.9,1.3,1.9a2.132,2.132,0,0,0,1.8-1.1v-5.7h1.9v8.3h-1.6l-.2-1.2h-.1a3.189,3.189,0,0,1-2.7,1.4c-1.8,0-2.5-1.2-2.5-3.3v-5.2Z" style="fill:#455a64"/><path d="M519.9,141.5h1.9v9.9c0,.5.2.6.4.6h.3l.3,1.4a2.509,2.509,0,0,1-1,.2c-1.4,0-1.9-.9-1.9-2.3Z" style="fill:#455a64"/><path d="M524.7,146.6h-1.2v-1.4l1.3-.1.2-2.3h1.6v2.3h2.1v1.5h-2.1v3.9c0,1,.4,1.4,1.2,1.4a2.921,2.921,0,0,0,.9-.2l.3,1.4a4.31,4.31,0,0,1-1.7.3c-1.9,0-2.6-1.2-2.6-3Z" style="fill:#455a64"/><path d="M530.6,151.1a3.337,3.337,0,0,0,2.3.9c.9,0,1.3-.4,1.3-1,0-.7-.9-1-1.8-1.3-1.1-.4-2.3-1-2.3-2.4s1.2-2.5,3-2.5a4.4,4.4,0,0,1,2.7,1L535,147a3.4,3.4,0,0,0-1.8-.7c-.8,0-1.2.4-1.2.9,0,.7.8.9,1.7,1.2,1.1.4,2.4,1,2.4,2.5,0,1.4-1.1,2.6-3.2,2.6a5.54,5.54,0,0,1-3.1-1.1Z" style="fill:#455a64"/><path d="M616.9,151.1a3.516,3.516,0,0,0,2.7,1.3,2,2,0,0,0,2.2-2c0-1.3-.9-2.1-3.4-2.1v-1.1c2.3,0,3-.9,3-2a1.688,1.688,0,0,0-1.9-1.7,3.568,3.568,0,0,0-2.3,1.1l-.7-.9a4.216,4.216,0,0,1,3.1-1.3c1.9,0,3.2,1,3.2,2.7a2.761,2.761,0,0,1-2,2.6v.1a2.7,2.7,0,0,1,2.3,2.7,3.218,3.218,0,0,1-3.5,3.1,4.437,4.437,0,0,1-3.5-1.5Z" style="fill:#546e7a"/><path d="M624.8,147.9c0-3.6,1.3-5.5,3.5-5.5,2.1,0,3.4,1.9,3.4,5.5s-1.3,5.6-3.4,5.6C626.1,153.5,624.8,151.5,624.8,147.9Zm5.6,0c0-3.1-.8-4.4-2.1-4.4s-2.1,1.3-2.1,4.4.8,4.5,2.1,4.5C629.5,152.4,630.4,151.1,630.4,147.9Z" style="fill:#546e7a"/><path d="M634.5,151.4a1.029,1.029,0,0,1,1,1.1,1,1,0,0,1-1,1,.945.945,0,0,1-1-1A1.1,1.1,0,0,1,634.5,151.4Z" style="fill:#546e7a"/><path d="M638.3,151.5a2.43,2.43,0,0,0,1.8.9c1.5,0,2.8-1.2,2.8-4.6a3.251,3.251,0,0,1-2.5,1.4c-1.9,0-3-1.1-3-3.3a3.24,3.24,0,0,1,3.2-3.5c2.1,0,3.7,1.7,3.7,5.2,0,4.3-2,6-4.1,6a3.683,3.683,0,0,1-2.6-1.1Zm4.5-4.8c-.2-2.1-1-3.2-2.4-3.2-1,0-1.9.9-1.9,2.4,0,1.4.7,2.3,2,2.3A3.225,3.225,0,0,0,642.8,146.7Z" style="fill:#546e7a"/><path d="M645.6,145.6c0-2.2,1-3.5,2.5-3.5s2.5,1.2,2.5,3.5c0,2.2-1,3.5-2.5,3.5S645.6,147.8,645.6,145.6Zm3.9,0c0-1.8-.6-2.6-1.4-2.6-.9,0-1.5.8-1.5,2.6s.6,2.6,1.5,2.6S649.5,147.3,649.5,145.6Zm-1.1,7.9,6.1-11.4h.9l-6.1,11.4Zm4.9-3.5c0-2.2,1-3.5,2.5-3.5s2.5,1.3,2.5,3.5-1,3.5-2.5,3.5S653.3,152.3,653.3,150Zm3.9,0c0-1.8-.6-2.6-1.4-2.6-.9,0-1.5.9-1.5,2.6s.6,2.6,1.5,2.6C656.7,152.7,657.2,151.8,657.2,150Z" style="fill:#546e7a"/><line x1="490.4" y1="167.3" x2="661.4" y2="167.3" style="fill:none;stroke:#e1e1e1;stroke-miterlimit:10;stroke-width:0.5px"/><path d="M491.3,209.8H493v-5.1h-1.4v-.9a4.238,4.238,0,0,0,1.8-.6h1.1v6.7H496v1.2h-4.7Z" style="fill:#90a4ae"/><path d="M497.2,207c0-2.6,1-4,2.7-4s2.7,1.4,2.7,4-1,4.1-2.7,4.1S497.2,209.6,497.2,207Zm4,0c0-2.2-.5-2.9-1.3-2.9s-1.3.7-1.3,2.9.6,3,1.3,3S501.2,209.2,501.2,207Z" style="fill:#90a4ae"/><path d="M503.5,207.3h2.9v1h-2.9Z" style="fill:#90a4ae"/><path d="M507.9,209.8h1.7v-5.1h-1.4v-.9a4.238,4.238,0,0,0,1.8-.6h1.1v6.7h1.5v1.2h-4.7v-1.3Z" style="fill:#90a4ae"/><path d="M517.5,204.3h-3.7v-1.2h5.3v.9c-1.8,2.3-2.2,3.9-2.3,7h-1.4A10.715,10.715,0,0,1,517.5,204.3Z" style="fill:#90a4ae"/><path d="M524.5,207.9l-2.4-5.1h1.5l.9,2.1c.2.6.5,1.2.7,1.8h0a13.359,13.359,0,0,0,.7-1.8l.9-2.1h1.5l-2.4,5.1v3h-1.4Z" style="fill:#90a4ae"/><path d="M528.7,204.9h1.2l.1,1.1h0a2,2,0,0,1,1.7-1.2,1.483,1.483,0,0,1,.7.1l-.2,1.2a1.268,1.268,0,0,0-.6-.1,1.511,1.511,0,0,0-1.4,1.2v3.7h-1.4v-6Z" style="fill:#90a4ae"/><path d="M532.6,207.3h2.9v1h-2.9Z" style="fill:#90a4ae"/><path d="M539.4,204.7a3.216,3.216,0,1,1-2.9,3.2A2.981,2.981,0,0,1,539.4,204.7Zm0,5.2c.9,0,1.4-.8,1.4-2s-.5-2-1.4-2-1.4.8-1.4,2S538.5,209.9,539.4,209.9Z" style="fill:#90a4ae"/><path d="M543.6,202.2H545v7.2c0,.3.2.5.3.5h.2l.2,1.1a1.719,1.719,0,0,1-.8.1c-1,0-1.4-.7-1.4-1.7v-7.2Z" style="fill:#90a4ae"/><path d="M549.2,204.7a2.36,2.36,0,0,1,1.6.7v-3.2h1.4v8.7H551l-.1-.7h0a2.716,2.716,0,0,1-1.7.8c-1.5,0-2.5-1.2-2.5-3.2A2.667,2.667,0,0,1,549.2,204.7Zm.2,5.2a1.574,1.574,0,0,0,1.3-.7v-2.8a1.584,1.584,0,0,0-1.2-.5c-.8,0-1.4.7-1.4,2S548.6,209.9,549.4,209.9Z" style="fill:#90a4ae"/><path d="M554,209.3a2.837,2.837,0,0,0,1.7.7c.7,0,1-.3,1-.7,0-.5-.7-.7-1.3-1-.8-.3-1.7-.8-1.7-1.8,0-1.1.8-1.8,2.2-1.8a3.221,3.221,0,0,1,2,.7l-.7.9a2.106,2.106,0,0,0-1.3-.5c-.6,0-.9.3-.9.7,0,.5.6.7,1.3.9.8.3,1.7.7,1.7,1.8,0,1-.8,1.9-2.3,1.9a4.539,4.539,0,0,1-2.3-.8Z" style="fill:#90a4ae"/><path d="M631,209.3h1.6v-5.1h-1.3v-.6a5.272,5.272,0,0,0,1.5-.5h.7v6.2h1.4v.7H631Z" style="fill:#546e7a"/><path d="M637.2,206.4h0a2.145,2.145,0,0,1-1-1.6,1.791,1.791,0,0,1,2-1.8,1.76,1.76,0,0,1,1.9,1.8,2.333,2.333,0,0,1-1,1.7h0a2.026,2.026,0,0,1,1.2,1.8,1.974,1.974,0,0,1-2.2,1.8,2.077,2.077,0,0,1-2.3-1.9A2.6,2.6,0,0,1,637.2,206.4Zm1,3.1a1.272,1.272,0,0,0,1.4-1.2c0-.9-.9-1.2-1.9-1.6a1.882,1.882,0,0,0-1,1.5A1.442,1.442,0,0,0,638.2,209.5Zm1.2-4.6a1.1,1.1,0,0,0-1.2-1.2,1.049,1.049,0,0,0-1.1,1.1c0,.8.8,1.2,1.6,1.5A2.334,2.334,0,0,0,639.4,204.9Z" style="fill:#546e7a"/><path d="M642.2,208.8a.708.708,0,0,1,0,1.4c-.4,0-.6-.3-.6-.7S641.8,208.8,642.2,208.8Z" style="fill:#546e7a"/><path d="M644.6,208.9a1.738,1.738,0,0,0,1.1.6c1,0,1.8-.8,1.8-3a1.922,1.922,0,0,1-1.6.9,1.87,1.87,0,0,1-2-2.1,2.058,2.058,0,0,1,2-2.2c1.4,0,2.4,1.1,2.4,3.3,0,2.8-1.3,3.8-2.6,3.8a2.413,2.413,0,0,1-1.7-.7Zm2.9-3.2c-.1-1.3-.6-2.1-1.5-2.1-.7,0-1.2.6-1.2,1.5s.4,1.5,1.3,1.5C646.5,206.7,647.1,206.4,647.5,205.7Z" style="fill:#546e7a"/><path d="M649.3,205c0-1.4.6-2.2,1.6-2.2s1.6.8,1.6,2.2-.6,2.2-1.6,2.2C649.9,207.3,649.3,206.4,649.3,205Zm2.5,0c0-1.1-.4-1.7-.9-1.7-.6,0-.9.5-.9,1.7,0,1.1.4,1.7.9,1.7C651.5,206.7,651.8,206.1,651.8,205Zm-.7,5.1,3.9-7.3h.6l-3.9,7.3Zm3.1-2.2c0-1.4.6-2.2,1.6-2.2s1.6.8,1.6,2.2-.6,2.2-1.6,2.2C654.9,210.1,654.2,209.3,654.2,207.9Zm2.6,0c0-1.1-.4-1.7-.9-1.7s-.9.6-.9,1.7.4,1.7.9,1.7S656.8,209,656.8,207.9Z" style="fill:#546e7a"/><line x1="490.4" y1="193.3" x2="661.4" y2="193.3" style="fill:none;stroke:#e1e1e1;stroke-miterlimit:10;stroke-width:0.5px"/><path d="M491.4,228.9h1.4v6.8h3.3v1.2h-4.8v-8Z" style="fill:#90a4ae"/><path d="M499.8,230.8a3.216,3.216,0,1,1-2.9,3.2A2.923,2.923,0,0,1,499.8,230.8Zm0,5.2c.9,0,1.4-.8,1.4-2s-.5-2-1.4-2-1.4.8-1.4,2S498.9,236,499.8,236Z" style="fill:#90a4ae"/><path d="M503.4,230.9h1.4l.7,3.1c.1.6.2,1.1.3,1.7h0a8.47,8.47,0,0,1,.4-1.7l.8-3.1h1.3l.8,3.1c.1.6.3,1.1.4,1.7h0c.1-.6.2-1.2.3-1.7l.7-3.1h1.3l-1.5,6h-1.7l-.7-2.8a14.91,14.91,0,0,0-.4-1.8h0a11.63,11.63,0,0,1-.4,1.8l-.7,2.8H505Z" style="fill:#90a4ae"/><path d="M515.8,228.9h1.4v8h-1.4Z" style="fill:#90a4ae"/><path d="M519.2,230.9h1.2l.1.8h0a2.975,2.975,0,0,1,2-1c1.3,0,1.9.9,1.9,2.4v3.8H523v-3.6c0-1-.3-1.4-.9-1.4a2.053,2.053,0,0,0-1.4.8v4.2h-1.4v-6Z" style="fill:#90a4ae"/><path d="M528.7,230.8a2.481,2.481,0,0,1,1.8.7l-.7.9a1.284,1.284,0,0,0-1-.4c-1,0-1.6.8-1.6,2s.7,2,1.6,2a1.656,1.656,0,0,0,1.2-.5l.6.9a3.176,3.176,0,0,1-2,.8,3.211,3.211,0,0,1,.1-6.4Z" style="fill:#90a4ae"/><path d="M533.9,230.8A3.216,3.216,0,1,1,531,234,2.923,2.923,0,0,1,533.9,230.8Zm0,5.2c.9,0,1.4-.8,1.4-2s-.5-2-1.4-2-1.4.8-1.4,2S533,236,533.9,236Z" style="fill:#90a4ae"/><path d="M538.2,230.9h1.2l.1.8h0a2.744,2.744,0,0,1,1.8-1,1.665,1.665,0,0,1,1.7,1.1,2.915,2.915,0,0,1,1.9-1.1c1.3,0,1.9.9,1.9,2.4v3.8h-1.4v-3.6c0-1-.3-1.4-.9-1.4a1.721,1.721,0,0,0-1.3.8v4.2h-1.4v-3.6c0-1-.3-1.4-.9-1.4a1.721,1.721,0,0,0-1.3.8v4.2h-1.4v-6Z" style="fill:#90a4ae"/><path d="M550.9,230.8c1.6,0,2.5,1.2,2.5,2.9a1.483,1.483,0,0,1-.1.7h-3.8a1.706,1.706,0,0,0,1.8,1.7,3.255,3.255,0,0,0,1.4-.4l.5.9a3.771,3.771,0,0,1-2.1.7,2.944,2.944,0,0,1-3-3.2C548.2,232,549.5,230.8,550.9,230.8Zm1.3,2.6q0-1.5-1.2-1.5c-.7,0-1.3.5-1.5,1.5Z" style="fill:#90a4ae"/><path d="M556.9,236.1c2.2-2.1,3.5-3.5,3.5-4.7a1.288,1.288,0,0,0-1.3-1.4,2.016,2.016,0,0,0-1.5.9l-.8-.8a3.034,3.034,0,0,1,2.5-1.2,2.285,2.285,0,0,1,2.5,2.4c0,1.4-1.3,2.8-2.8,4.5.4,0,.9-.1,1.3-.1h1.9v1.2h-5.3v-.8Z" style="fill:#90a4ae"/><path d="M563.2,233.4h2.9v1h-2.9Z" style="fill:#90a4ae"/><path d="M572.7,235h-1v2h-1.3v-2h-3.5v-1l3.1-4.8h1.7v4.7h1Zm-2.4-1.1v-1.8a8.085,8.085,0,0,1,.1-1.6h0l-.6,1.2-1.4,2.2h1.9Z" style="fill:#90a4ae"/><path d="M573.9,235.4a2.837,2.837,0,0,0,1.7.7c.7,0,1-.3,1-.7,0-.5-.7-.7-1.3-1-.8-.3-1.7-.8-1.7-1.8,0-1.1.8-1.8,2.2-1.8a3.221,3.221,0,0,1,2,.7l-.7.9a2.106,2.106,0,0,0-1.3-.5c-.6,0-.9.3-.9.7,0,.5.6.7,1.3.9.8.3,1.7.7,1.7,1.8,0,1-.8,1.9-2.3,1.9a4.539,4.539,0,0,1-2.3-.8Z" style="fill:#90a4ae"/><path d="M631,235.3h1.6v-5.1h-1.3v-.6a5.272,5.272,0,0,0,1.5-.5h.7v6.2h1.4v.7H631Z" style="fill:#546e7a"/><path d="M636.5,234.9a1.738,1.738,0,0,0,1.1.6c1,0,1.8-.8,1.8-3a1.922,1.922,0,0,1-1.6.9,1.87,1.87,0,0,1-2-2.1,2.058,2.058,0,0,1,2-2.2c1.4,0,2.4,1.1,2.4,3.3,0,2.8-1.3,3.8-2.6,3.8a2.413,2.413,0,0,1-1.7-.7Zm3-3.1c-.1-1.3-.6-2.1-1.5-2.1-.7,0-1.2.6-1.2,1.5s.4,1.5,1.3,1.5A1.76,1.76,0,0,0,639.5,231.8Z" style="fill:#546e7a"/><path d="M642.2,234.8a.708.708,0,0,1,0,1.4c-.4,0-.6-.3-.6-.7S641.8,234.8,642.2,234.8Z" style="fill:#546e7a"/><path d="M644.3,234.6a2.535,2.535,0,0,0,1.8.8,1.288,1.288,0,0,0,1.4-1.3c0-.8-.6-1.4-2.2-1.4V232c1.5,0,2-.6,2-1.3a1.078,1.078,0,0,0-1.2-1.1,2.127,2.127,0,0,0-1.5.7l-.5-.6a2.876,2.876,0,0,1,2-.9c1.2,0,2.1.6,2.1,1.8a1.6,1.6,0,0,1-1.3,1.6h0a1.834,1.834,0,0,1,1.5,1.8,2.088,2.088,0,0,1-2.3,2,3.105,3.105,0,0,1-2.3-1Z" style="fill:#546e7a"/><path d="M649.3,231.1c0-1.4.6-2.2,1.6-2.2s1.6.8,1.6,2.2-.6,2.2-1.6,2.2S649.3,232.5,649.3,231.1Zm2.5,0c0-1.1-.4-1.7-.9-1.7-.6,0-.9.5-.9,1.7,0,1.1.4,1.7.9,1.7C651.5,232.8,651.8,232.2,651.8,231.1Zm-.7,5.1,3.9-7.3h.6l-3.9,7.3Zm3.1-2.2c0-1.4.6-2.2,1.6-2.2s1.6.8,1.6,2.2-.6,2.2-1.6,2.2C654.9,236.2,654.2,235.4,654.2,234Zm2.6,0c0-1.1-.4-1.7-.9-1.7s-.9.6-.9,1.7.4,1.7.9,1.7S656.8,235.1,656.8,234Z" style="fill:#546e7a"/><line x1="490.4" y1="219.2" x2="661.4" y2="219.2" style="fill:none;stroke:#e1e1e1;stroke-miterlimit:10;stroke-width:0.5px"/><line x1="490.4" y1="245.1" x2="661.4" y2="245.1" style="fill:none;stroke:#e1e1e1;stroke-miterlimit:10;stroke-width:0.5px"/><path d="M492.6,262.8H497v.8h-3.5v2.6h2.9v.8h-2.9v3.4h-1v-7.6Z" style="fill:#90a4ae"/><path d="M498,264.8h1v3.5c0,1.1.3,1.5,1.1,1.5.6,0,1-.3,1.5-1v-4h1v5.7h-.8l-.1-.9h0a2.417,2.417,0,0,1-1.9,1c-1.2,0-1.7-.8-1.7-2.2v-3.6Z" style="fill:#90a4ae"/><path d="M504.5,262.2h1v7.3c0,.3.1.4.3.4h.2l.1.7c-.1.1-.3.1-.6.1-.7,0-1-.5-1-1.3Z" style="fill:#90a4ae"/><path d="M507.5,262.2h1v7.3c0,.3.1.4.3.4h.2l.1.7a.749.749,0,0,1-.5.1c-.7,0-1-.5-1-1.3v-7.2Z" style="fill:#90a4ae"/><path d="M512.6,269.2a2.609,2.609,0,0,0,1.7.7c.7,0,1.1-.4,1.1-.9,0-.6-.7-.8-1.3-1.1-.8-.3-1.7-.7-1.7-1.6s.7-1.6,2-1.6a3.51,3.51,0,0,1,1.8.6l-.5.6a2.106,2.106,0,0,0-1.3-.5c-.7,0-1,.4-1,.8,0,.5.6.7,1.3,1,.8.3,1.7.6,1.7,1.7,0,.9-.7,1.7-2.1,1.7a3.037,3.037,0,0,1-2.1-.8Z" style="fill:#90a4ae"/><path d="M517.9,265.6H517v-.7l.9-.1.1-1.6h.8v1.6h1.5v.8h-1.5v3.2c0,.7.2,1.1.9,1.1a1.072,1.072,0,0,0,.6-.2l.2.7a3.6,3.6,0,0,1-1.1.2c-1.2,0-1.6-.8-1.6-1.9v-3.1Z" style="fill:#90a4ae"/><path d="M524.7,266.9c0-.7-.2-1.4-1.2-1.4a2.887,2.887,0,0,0-1.7.6l-.4-.7a4.4,4.4,0,0,1,2.2-.7c1.4,0,2,.9,2,2.3v3.5h-.8l-.1-.7h0a3.258,3.258,0,0,1-1.9.8,1.55,1.55,0,0,1-1.7-1.6C521.2,267.8,522.2,267.2,524.7,266.9Zm-1.6,3a2.682,2.682,0,0,0,1.6-.8v-1.6c-1.9.2-2.6.7-2.6,1.4A.9.9,0,0,0,523.1,269.9Z" style="fill:#90a4ae"/><path d="M527.6,265.6h-.8v-.7l.9-.1.1-1.6h.8v1.6h1.5v.8h-1.5v3.2c0,.7.2,1.1.9,1.1a1.072,1.072,0,0,0,.6-.2l.2.7a3.6,3.6,0,0,1-1.1.2c-1.2,0-1.6-.8-1.6-1.9v-3.1Z" style="fill:#90a4ae"/><path d="M533.4,264.7c1.5,0,2.3,1,2.3,2.7v.5h-3.8a1.923,1.923,0,0,0,1.9,2,3.256,3.256,0,0,0,1.4-.4l.3.6a3.568,3.568,0,0,1-1.9.6,2.714,2.714,0,0,1-2.7-3C530.9,265.8,532.1,264.7,533.4,264.7Zm1.4,2.5c0-1.2-.5-1.8-1.4-1.8a1.763,1.763,0,0,0-1.6,1.8Z" style="fill:#90a4ae"/><path d="M539.4,262.2h1v3.3a2.5,2.5,0,0,1,1.8-.8c1.5,0,2.3,1.1,2.3,2.9,0,1.9-1.2,3.1-2.5,3.1a2.83,2.83,0,0,1-1.6-.7h0l-.1.6h-.8v-8.4Zm2.4,7.6c.9,0,1.6-.9,1.6-2.3,0-1.3-.4-2.1-1.5-2.1a2.244,2.244,0,0,0-1.5.8v3A1.885,1.885,0,0,0,541.8,269.8Z" style="fill:#90a4ae"/><path d="M545.9,264.8h.8l.1,1h0a2.072,2.072,0,0,1,1.6-1.2,1.268,1.268,0,0,1,.6.1l-.2.8a1.083,1.083,0,0,0-.6-.1c-.5,0-1.1.4-1.4,1.3v3.7h-1v-5.6Z" style="fill:#90a4ae"/><path d="M549.8,263c0-.4.3-.6.7-.6s.7.2.7.6-.3.6-.7.6S549.8,263.4,549.8,263Zm.2,1.8h1v5.7h-1Z" style="fill:#90a4ae"/><path d="M555,264.7c1.5,0,2.3,1,2.3,2.7v.5h-3.8a1.923,1.923,0,0,0,1.9,2,3.256,3.256,0,0,0,1.4-.4l.3.6a3.568,3.568,0,0,1-1.9.6,2.714,2.714,0,0,1-2.7-3C552.5,265.8,553.7,264.7,555,264.7Zm1.4,2.5c0-1.2-.5-1.8-1.4-1.8a1.763,1.763,0,0,0-1.6,1.8Z" style="fill:#90a4ae"/><path d="M561.2,262.9a1.268,1.268,0,0,0-.6-.1c-.5,0-.8.4-.8,1.1v.9H561v.8h-1.2v4.9h-1v-4.9H558v-.7l.8-.1v-.9c0-1.2.5-1.9,1.7-1.9a2,2,0,0,1,.9.2Z" style="fill:#90a4ae"/><path d="M491.5,272v-.6h69.6v.6Z" style="fill:#90a4ae"/><polygon points="559.5 84.8 586.4 84.8 586.4 77.1 580.7 71.5 580.7 65.4 585 61.2 584.4 61.2 584.4 55.9 595.3 45 585 45.2 581.7 41.9 574.3 41.9 568.8 36.5 559.5 36.5 559.5 59.4 559.5 84.8" style="fill:#bdbdbd"/><rect width="681.6" height="302" style="fill:none"/></svg>