<svg xmlns="http://www.w3.org/2000/svg" viewBox="0 0 681.6 302"><title>state-card2</title><rect x="235.1" width="211.5" height="302" style="fill:#fff"/><rect x="411.5" width="35.1" height="35.1" style="fill:#a6273c"/><path d="M421.5,21.3c2.8-2.8,4.3-4.4,4.3-5.9a1.605,1.605,0,0,0-1.7-1.8,2.9,2.9,0,0,0-2,1.1l-.7-.7a3.82,3.82,0,0,1,2.8-1.4,2.6,2.6,0,0,1,2.8,2.7c0,1.7-1.6,3.4-3.7,5.7.5,0,1.1-.1,1.5-.1h2.7v1h-5.9v-.6Z" style="fill:#ededed"/><path d="M428.9,13.4H430l1.8,3.3.6,1.3h0c0-.6-.1-1.4-.1-2V13.4h1v5.9h-1.1L430.4,16l-.6-1.3h0c0,.6.1,1.3.1,2v2.6h-1Z" style="fill:#ededed"/><path d="M434.8,13.4h1.6a2.633,2.633,0,0,1,2.9,2.9c0,2-1.1,3-2.8,3h-1.6V13.4Zm1.5,5c1.2,0,1.9-.7,1.9-2.1s-.7-2.1-1.9-2.1h-.5v4.2Z" style="fill:#ededed"/><path d="M309.1,101.7H317v1.5h-6.2v4.7H316v1.5h-5.2v6.2h-1.7V101.7Z" style="fill:#184d5b"/><path d="M319.3,100.5H321v13c0,.5.2.8.5.8h.4l.2,1.3a2.151,2.151,0,0,1-1,.2c-1.3,0-1.8-.8-1.8-2.3v-13Z" style="fill:#184d5b"/><path d="M328.6,105c2.5,0,4.7,2,4.7,5.4s-2.2,5.3-4.7,5.3-4.7-2-4.7-5.3C323.9,107,326.2,105,328.6,105Zm0,9.3c1.8,0,2.9-1.6,2.9-3.9,0-2.4-1.2-3.9-2.9-3.9s-2.9,1.6-2.9,3.9S326.9,114.3,328.6,114.3Z" style="fill:#184d5b"/><path d="M336.1,105.3h1.4l.1,1.8h.1a3.412,3.412,0,0,1,2.9-2.1,3.6,3.6,0,0,1,1.1.2l-.3,1.5a2.959,2.959,0,0,0-1-.2c-.9,0-1.9.6-2.6,2.4v6.6h-1.7Z" style="fill:#184d5b"/><path d="M343,102.1a1.2,1.2,0,1,1,1.2,1.1A1.135,1.135,0,0,1,343,102.1Zm.3,3.2H345v10.2h-1.7Z" style="fill:#184d5b"/><path d="M352.2,105a4,4,0,0,1,2.9,1.2l-.1-1.7v-3.9h1.7v14.9h-1.4l-.1-1.2h-.1a4.483,4.483,0,0,1-3.1,1.4c-2.6,0-4.2-1.9-4.2-5.3C347.8,107.1,349.9,105,352.2,105Zm.2,9.3a3.6,3.6,0,0,0,2.6-1.4v-5.3a3.509,3.509,0,0,0-2.5-1.1c-1.6,0-2.9,1.6-2.9,3.9C349.6,112.8,350.6,114.3,352.4,114.3Z" style="fill:#184d5b"/><path d="M365.9,109c0-1.3-.4-2.6-2.1-2.6a4.979,4.979,0,0,0-3,1.1l-.7-1.2a7.587,7.587,0,0,1,4-1.3c2.5,0,3.5,1.7,3.5,4.2v6.3h-1.4l-.1-1.2h0a5.556,5.556,0,0,1-3.4,1.5,2.808,2.808,0,0,1-3-2.9C359.7,110.6,361.6,109.5,365.9,109Zm-2.7,5.4A4.174,4.174,0,0,0,366,113v-2.8c-3.4.4-4.6,1.3-4.6,2.6C361.4,113.9,362.1,114.4,363.2,114.4Z" style="fill:#184d5b"/><path d="M256.4,176.1h1.4v3.2h3.3v-3.2h1.4v8H261v-3.6h-3.3v3.6h-1.4v-8Z" style="fill:#90a4ae"/><path d="M264.2,176.3a.906.906,0,1,1,.9.8A.882.882,0,0,1,264.2,176.3Zm.2,1.8h1.4v6h-1.4Z" style="fill:#90a4ae"/><path d="M268.1,184h0a1.29,1.29,0,0,1-.5-1.1,1.23,1.23,0,0,1,.7-1.1h0a2.078,2.078,0,0,1-.8-1.6,2.208,2.208,0,0,1,2.4-2.2c.3,0,.6.1.9.1H273v1h-1.1a1.493,1.493,0,0,1,.3,1,2.1,2.1,0,0,1-2.3,2.1,1.077,1.077,0,0,1-.8-.2.713.713,0,0,0-.3.6c0,.3.2.6,1,.6h1.1c1.5,0,2.2.4,2.2,1.5,0,1.2-1.3,2.1-3.2,2.1-1.4,0-2.5-.5-2.5-1.6C267.2,184.8,267.5,184.3,268.1,184Zm1.8,1.9c1,0,1.6-.5,1.6-1s-.4-.6-1.1-.6h-.8a1.949,1.949,0,0,1-.8-.1,1.02,1.02,0,0,0-.5.8C268.4,185.6,269,185.9,269.9,185.9Zm.9-5.7a1.063,1.063,0,0,0-1-1.2,1.133,1.133,0,0,0-1.1,1.2,1.079,1.079,0,0,0,1.1,1.2C270.4,181.4,270.8,180.9,270.8,180.2Z" style="fill:#90a4ae"/><path d="M274,175.5h1.4v3.4a2.647,2.647,0,0,1,1.9-.9c1.3,0,1.9.9,1.9,2.4v3.8h-1.4v-3.6c0-1-.3-1.4-.9-1.4a2.053,2.053,0,0,0-1.4.8v4.2H274Z" style="fill:#90a4ae"/><path d="M283.8,182.2a3.577,3.577,0,0,0,2.1.9c.9,0,1.4-.4,1.4-1,0-.7-.5-.9-1.2-1.2l-1.1-.5a2.279,2.279,0,0,1-1.6-2.1,2.44,2.44,0,0,1,2.7-2.3,3.946,3.946,0,0,1,2.5,1l-.7.9a2.837,2.837,0,0,0-1.7-.7c-.8,0-1.3.4-1.3.9,0,.6.6.9,1.3,1.1l1.1.5a2.281,2.281,0,0,1,1.6,2.2c0,1.3-1.1,2.4-2.9,2.4a4,4,0,0,1-2.9-1.2Z" style="fill:#90a4ae"/><path d="M292.7,178a2.481,2.481,0,0,1,1.8.7l-.7.9a1.284,1.284,0,0,0-1-.4c-1,0-1.6.8-1.6,2s.7,2,1.6,2a1.656,1.656,0,0,0,1.2-.5l.6.9a3.176,3.176,0,0,1-2,.8,3.211,3.211,0,0,1,.1-6.4Z" style="fill:#90a4ae"/><path d="M295.8,175.5h1.4v3.4a2.647,2.647,0,0,1,1.9-.9c1.3,0,1.9.9,1.9,2.4v3.8h-1.4v-3.6c0-1-.3-1.4-.9-1.4a2.053,2.053,0,0,0-1.4.8v4.2h-1.4v-8.7Z" style="fill:#90a4ae"/><path d="M305.1,178a3.216,3.216,0,1,1-2.9,3.2A2.923,2.923,0,0,1,305.1,178Zm0,5.2c.9,0,1.4-.8,1.4-2s-.5-2-1.4-2-1.4.8-1.4,2S304.2,183.2,305.1,183.2Z" style="fill:#90a4ae"/><path d="M311.8,178a3.216,3.216,0,1,1-2.9,3.2C309,179.1,310.3,178,311.8,178Zm0,5.2c.9,0,1.4-.8,1.4-2s-.5-2-1.4-2-1.4.8-1.4,2S311,183.2,311.8,183.2Z" style="fill:#90a4ae"/><path d="M316.1,175.5h1.4v7.2c0,.3.2.5.3.5h.2l.2,1.1a1.719,1.719,0,0,1-.8.1c-1,0-1.4-.7-1.4-1.7v-7.2Z" style="fill:#90a4ae"/><path d="M321.8,178c1.6,0,2.5,1.2,2.5,2.9a1.483,1.483,0,0,1-.1.7h-3.8a1.706,1.706,0,0,0,1.8,1.7,3.255,3.255,0,0,0,1.4-.4l.5.9a3.771,3.771,0,0,1-2.1.7,2.944,2.944,0,0,1-3-3.2C319.1,179.2,320.4,178,321.8,178Zm1.3,2.6q0-1.5-1.2-1.5c-.7,0-1.3.5-1.5,1.5Z" style="fill:#90a4ae"/><path d="M325.7,178.1h1.2l.1,1.1h0a2,2,0,0,1,1.7-1.2,1.483,1.483,0,0,1,.7.1l-.2,1.2a1.268,1.268,0,0,0-.6-.1,1.511,1.511,0,0,0-1.4,1.2v3.7h-1.4v-6Z" style="fill:#90a4ae"/><path d="M330.2,182.6a2.837,2.837,0,0,0,1.7.7c.7,0,1-.3,1-.7,0-.5-.7-.7-1.3-1-.8-.3-1.7-.8-1.7-1.8,0-1.1.8-1.8,2.2-1.8a3.221,3.221,0,0,1,2,.7l-.7.9a2.106,2.106,0,0,0-1.3-.5c-.6,0-.9.3-.9.7,0,.5.6.7,1.3.9.8.3,1.7.7,1.7,1.8,0,1-.8,1.9-2.3,1.9a4.539,4.539,0,0,1-2.3-.8Z" style="fill:#90a4ae"/><path d="M395.9,182.5h1.6v-5.1h-1.3v-.6a5.271,5.271,0,0,0,1.5-.5h.7v6.2h1.4v.7h-3.9v-.7Z" style="fill:#546e7a"/><path d="M402.2,179.7h0a2.145,2.145,0,0,1-1-1.6,1.791,1.791,0,0,1,2-1.8,1.76,1.76,0,0,1,1.9,1.8,2.333,2.333,0,0,1-1,1.7h0a2.026,2.026,0,0,1,1.2,1.8,1.974,1.974,0,0,1-2.2,1.8,2.077,2.077,0,0,1-2.3-1.9A2.214,2.214,0,0,1,402.2,179.7Zm.9,3a1.184,1.184,0,0,0,1.3-1.2c0-.9-.9-1.2-1.9-1.6a1.882,1.882,0,0,0-1,1.5A1.6,1.6,0,0,0,403.1,182.7Zm1.2-4.6a1.1,1.1,0,0,0-1.2-1.2A1.049,1.049,0,0,0,402,178c0,.8.8,1.2,1.6,1.5A1.746,1.746,0,0,0,404.3,178.1Z" style="fill:#546e7a"/><path d="M407.1,182a.708.708,0,0,1,0,1.4c-.4,0-.6-.3-.6-.7A.669.669,0,0,1,407.1,182Z" style="fill:#546e7a"/><path d="M408.9,182.7c2.1-2.1,3.2-3.3,3.2-4.4a1.162,1.162,0,0,0-1.3-1.3,2.239,2.239,0,0,0-1.5.8l-.5-.5a2.814,2.814,0,0,1,2.1-1,1.918,1.918,0,0,1,2.1,2c0,1.3-1.2,2.6-2.8,4.3.4,0,.8-.1,1.2-.1h2v.8h-4.5v-.6Z" style="fill:#546e7a"/><path d="M414.2,178.3c0-1.4.6-2.2,1.6-2.2s1.6.8,1.6,2.2-.6,2.2-1.6,2.2C414.9,180.5,414.2,179.7,414.2,178.3Zm2.6,0c0-1.1-.4-1.7-.9-1.7-.6,0-.9.5-.9,1.7,0,1.1.4,1.7.9,1.7S416.8,179.4,416.8,178.3Zm-.8,5.1,3.9-7.3h.6l-3.9,7.3Zm3.2-2.2c0-1.4.6-2.2,1.6-2.2s1.6.8,1.6,2.2-.6,2.2-1.6,2.2S419.2,182.6,419.2,181.2Zm2.5,0c0-1.1-.4-1.7-.9-1.7s-.9.6-.9,1.7.4,1.7.9,1.7S421.7,182.3,421.7,181.2Z" style="fill:#546e7a"/><path d="M261.8,150.4h-3.7l-.9,3h-2l3.6-11h2.3l3.6,11h-2.1Zm-.4-1.6-.4-1.3c-.4-1.2-.7-2.4-1-3.6h0c-.3,1.2-.6,2.5-1,3.6l-.4,1.3Z" style="fill:#455a64"/><path d="M268.9,144.9a3.6,3.6,0,0,1,2.2.9l-.1-1.3v-3h1.9v11.9h-1.6l-.1-.9h-.1a3.356,3.356,0,0,1-2.3,1.1c-2.1,0-3.4-1.6-3.4-4.3C265.4,146.5,267.1,144.9,268.9,144.9Zm.4,7a2.235,2.235,0,0,0,1.7-.9v-3.9a2.51,2.51,0,0,0-1.7-.7c-1.1,0-1.9,1-1.9,2.7C267.5,151,268.1,151.9,269.3,151.9Z" style="fill:#455a64"/><path d="M275.4,145.1h1.9V150c0,1.4.4,1.9,1.3,1.9a2.132,2.132,0,0,0,1.8-1.1v-5.7h1.9v8.3h-1.6l-.2-1.2h-.1a3.189,3.189,0,0,1-2.7,1.4c-1.8,0-2.5-1.2-2.5-3.3v-5.2Z" style="fill:#455a64"/><path d="M284.8,141.5h1.9v9.9c0,.5.2.6.4.6h.3l.3,1.4a2.509,2.509,0,0,1-1,.2c-1.4,0-1.9-.9-1.9-2.3v-9.8Z" style="fill:#455a64"/><path d="M289.7,146.6h-1.2v-1.4l1.3-.1.2-2.3h1.6v2.3h2.1v1.5h-2.1v3.9c0,1,.4,1.4,1.2,1.4a2.92,2.92,0,0,0,.9-.2l.3,1.4a4.31,4.31,0,0,1-1.7.3c-1.9,0-2.6-1.2-2.6-3v-3.8Z" style="fill:#455a64"/><path d="M295.5,151.1a3.337,3.337,0,0,0,2.3.9c.9,0,1.3-.4,1.3-1,0-.7-.9-1-1.8-1.3-1.1-.4-2.3-1-2.3-2.4s1.2-2.5,3-2.5a4.4,4.4,0,0,1,2.7,1l-.9,1.2a3.4,3.4,0,0,0-1.8-.7c-.8,0-1.2.4-1.2.9,0,.7.8.9,1.7,1.2,1.1.4,2.4,1,2.4,2.5,0,1.4-1.1,2.6-3.2,2.6a5.54,5.54,0,0,1-3.1-1.1Z" style="fill:#455a64"/><path d="M381.8,151.1a3.516,3.516,0,0,0,2.7,1.3,2,2,0,0,0,2.2-2c0-1.3-.9-2.1-3.4-2.1v-1.1c2.3,0,3-.9,3-2a1.688,1.688,0,0,0-1.9-1.7,3.568,3.568,0,0,0-2.3,1.1l-.7-.9a4.216,4.216,0,0,1,3.1-1.3c1.9,0,3.2,1,3.2,2.7a2.761,2.761,0,0,1-2,2.6v.1a2.7,2.7,0,0,1,2.3,2.7,3.218,3.218,0,0,1-3.5,3.1,4.437,4.437,0,0,1-3.5-1.5Z" style="fill:#546e7a"/><path d="M390.3,152.2h2.5v-7.9h-2v-.9a6.175,6.175,0,0,0,2.3-.8h1.1v9.6h2.2v1.1h-6.1Z" style="fill:#546e7a"/><path d="M399.5,151.4a1.029,1.029,0,0,1,1,1.1,1,1,0,0,1-1,1,.945.945,0,0,1-1-1A1.028,1.028,0,0,1,399.5,151.4Z" style="fill:#546e7a"/><path d="M402.7,151.2a3.619,3.619,0,0,0,2.7,1.2,2.394,2.394,0,0,0,2.4-2.5,2.181,2.181,0,0,0-2.3-2.4,2.567,2.567,0,0,0-1.8.7l-.7-.5.4-5.2h5.4v1.2h-4.2l-.3,3.2a2.934,2.934,0,0,1,1.6-.4,3.072,3.072,0,0,1,3.3,3.4,3.518,3.518,0,0,1-3.6,3.6,4.437,4.437,0,0,1-3.5-1.5Z" style="fill:#546e7a"/><path d="M410.5,145.6c0-2.2,1-3.5,2.5-3.5s2.5,1.2,2.5,3.5c0,2.2-1,3.5-2.5,3.5S410.5,147.8,410.5,145.6Zm4,0c0-1.8-.6-2.6-1.4-2.6-.9,0-1.5.8-1.5,2.6s.6,2.6,1.5,2.6C413.9,148.2,414.5,147.3,414.5,145.6Zm-1.1,7.9,6.1-11.4h.9l-6.1,11.4Zm4.8-3.5c0-2.2,1-3.5,2.5-3.5s2.5,1.3,2.5,3.5-1,3.5-2.5,3.5S418.2,152.3,418.2,150Zm4,0c0-1.8-.6-2.6-1.4-2.6-.9,0-1.5.9-1.5,2.6s.6,2.6,1.5,2.6C421.6,152.7,422.2,151.8,422.2,150Z" style="fill:#546e7a"/><line x1="255.3" y1="167.3" x2="426.4" y2="167.3" style="fill:none;stroke:#e1e1e1;stroke-miterlimit:10;stroke-width:0.5px"/><path d="M256.2,209.8h1.7v-5.1h-1.4v-.9a4.238,4.238,0,0,0,1.8-.6h1.1v6.7h1.5v1.2h-4.7Z" style="fill:#90a4ae"/><path d="M262.1,207c0-2.6,1-4,2.7-4s2.7,1.4,2.7,4-1,4.1-2.7,4.1S262.1,209.6,262.1,207Zm4,0c0-2.2-.5-2.9-1.3-2.9s-1.3.7-1.3,2.9.6,3,1.3,3C265.6,210,266.1,209.2,266.1,207Z" style="fill:#90a4ae"/><path d="M268.5,207.3h2.9v1h-2.9Z" style="fill:#90a4ae"/><path d="M272.8,209.8h1.7v-5.1h-1.4v-.9a4.238,4.238,0,0,0,1.8-.6H276v6.7h1.5v1.2h-4.7Z" style="fill:#90a4ae"/><path d="M282.5,204.3h-3.7v-1.2h5.3v.9c-1.8,2.3-2.2,3.9-2.3,7h-1.4A9.628,9.628,0,0,1,282.5,204.3Z" style="fill:#90a4ae"/><path d="M289.4,207.9l-2.4-5.1h1.5l.9,2.1c.2.6.5,1.2.7,1.8h0a13.359,13.359,0,0,0,.7-1.8l.9-2.1h1.5l-2.4,5.1v3h-1.4v-3Z" style="fill:#90a4ae"/><path d="M293.6,204.9h1.2l.1,1.1h0a2,2,0,0,1,1.7-1.2,1.483,1.483,0,0,1,.7.1l-.2,1.2a1.268,1.268,0,0,0-.6-.1,1.511,1.511,0,0,0-1.4,1.2v3.7h-1.4v-6Z" style="fill:#90a4ae"/><path d="M297.5,207.3h2.9v1h-2.9Z" style="fill:#90a4ae"/><path d="M304.3,204.7a3.216,3.216,0,1,1-2.9,3.2A2.981,2.981,0,0,1,304.3,204.7Zm0,5.2c.9,0,1.4-.8,1.4-2s-.5-2-1.4-2-1.4.8-1.4,2S303.4,209.9,304.3,209.9Z" style="fill:#90a4ae"/><path d="M308.6,202.2H310v7.2c0,.3.2.5.3.5h.2l.2,1.1a1.719,1.719,0,0,1-.8.1c-1,0-1.4-.7-1.4-1.7v-7.2Z" style="fill:#90a4ae"/><path d="M314.1,204.7a2.36,2.36,0,0,1,1.6.7v-3.2h1.4v8.7h-1.2l-.1-.7h0a2.716,2.716,0,0,1-1.7.8c-1.5,0-2.5-1.2-2.5-3.2A2.724,2.724,0,0,1,314.1,204.7Zm.3,5.2a1.574,1.574,0,0,0,1.3-.7v-2.8a1.584,1.584,0,0,0-1.2-.5c-.8,0-1.4.7-1.4,2C313,209.2,313.5,209.9,314.4,209.9Z" style="fill:#90a4ae"/><path d="M318.9,209.3a2.837,2.837,0,0,0,1.7.7c.7,0,1-.3,1-.7,0-.5-.7-.7-1.3-1-.8-.3-1.7-.8-1.7-1.8,0-1.1.8-1.8,2.2-1.8a3.221,3.221,0,0,1,2,.7l-.7.9a2.106,2.106,0,0,0-1.3-.5c-.6,0-.9.3-.9.7,0,.5.6.7,1.3.9.8.3,1.7.7,1.7,1.8,0,1-.8,1.9-2.3,1.9a4.539,4.539,0,0,1-2.3-.8Z" style="fill:#90a4ae"/><path d="M395.9,209.3h1.6v-5.1h-1.3v-.6a5.271,5.271,0,0,0,1.5-.5h.7v6.2h1.4v.7h-3.9v-.7Z" style="fill:#546e7a"/><path d="M404.3,203.9h-3.4v-.8h4.4v.6a9.594,9.594,0,0,0-2.1,6.3h-.9A11.1,11.1,0,0,1,404.3,203.9Z" style="fill:#546e7a"/><path d="M407.1,208.8a.708.708,0,0,1,0,1.4c-.4,0-.6-.3-.6-.7A.669.669,0,0,1,407.1,208.8Z" style="fill:#546e7a"/><path d="M409.3,209.3h1.6v-5.1h-1.3v-.6a5.271,5.271,0,0,0,1.5-.5h.7v6.2h1.4v.7h-3.9v-.7Z" style="fill:#546e7a"/><path d="M414.2,205c0-1.4.6-2.2,1.6-2.2s1.6.8,1.6,2.2-.6,2.2-1.6,2.2C414.9,207.3,414.2,206.4,414.2,205Zm2.6,0c0-1.1-.4-1.7-.9-1.7-.6,0-.9.5-.9,1.7,0,1.1.4,1.7.9,1.7S416.8,206.1,416.8,205Zm-.8,5.1,3.9-7.3h.6l-3.9,7.3Zm3.2-2.2c0-1.4.6-2.2,1.6-2.2s1.6.8,1.6,2.2-.6,2.2-1.6,2.2S419.2,209.3,419.2,207.9Zm2.5,0c0-1.1-.4-1.7-.9-1.7s-.9.6-.9,1.7.4,1.7.9,1.7S421.7,209,421.7,207.9Z" style="fill:#546e7a"/><line x1="255.3" y1="193.3" x2="426.4" y2="193.3" style="fill:none;stroke:#e1e1e1;stroke-miterlimit:10;stroke-width:0.5px"/><path d="M256.4,228.9h1.4v6.8h3.3v1.2h-4.8v-8Z" style="fill:#90a4ae"/><path d="M264.7,230.8a3.216,3.216,0,1,1-2.9,3.2A2.923,2.923,0,0,1,264.7,230.8Zm0,5.2c.9,0,1.4-.8,1.4-2s-.5-2-1.4-2-1.4.8-1.4,2S263.8,236,264.7,236Z" style="fill:#90a4ae"/><path d="M268.3,230.9h1.4l.7,3.1c.1.6.2,1.1.3,1.7h0a8.47,8.47,0,0,1,.4-1.7l.8-3.1h1.3l.8,3.1c.1.6.3,1.1.4,1.7h0c.1-.6.2-1.2.3-1.7l.7-3.1h1.3l-1.5,6h-1.7l-.7-2.8a14.91,14.91,0,0,0-.4-1.8h0a11.63,11.63,0,0,1-.4,1.8l-.7,2.8h-1.6Z" style="fill:#90a4ae"/><path d="M280.8,228.9h1.4v8h-1.4Z" style="fill:#90a4ae"/><path d="M284.1,230.9h1.2l.1.8h0a2.975,2.975,0,0,1,2-1c1.3,0,1.9.9,1.9,2.4v3.8h-1.4v-3.6c0-1-.3-1.4-.9-1.4a2.053,2.053,0,0,0-1.4.8v4.2h-1.4v-6Z" style="fill:#90a4ae"/><path d="M293.6,230.8a2.481,2.481,0,0,1,1.8.7l-.7.9a1.284,1.284,0,0,0-1-.4c-1,0-1.6.8-1.6,2s.7,2,1.6,2a1.656,1.656,0,0,0,1.2-.5l.6.9a3.176,3.176,0,0,1-2,.8,3.211,3.211,0,0,1,.1-6.4Z" style="fill:#90a4ae"/><path d="M298.8,230.8a3.216,3.216,0,1,1-2.9,3.2C296,231.9,297.3,230.8,298.8,230.8Zm0,5.2c.9,0,1.4-.8,1.4-2s-.5-2-1.4-2-1.4.8-1.4,2S298,236,298.8,236Z" style="fill:#90a4ae"/><path d="M303.1,230.9h1.2l.1.8h0a2.744,2.744,0,0,1,1.8-1,1.665,1.665,0,0,1,1.7,1.1,2.915,2.915,0,0,1,1.9-1.1c1.3,0,1.9.9,1.9,2.4v3.8h-1.4v-3.6c0-1-.3-1.4-.9-1.4a1.721,1.721,0,0,0-1.3.8v4.2h-1.4v-3.6c0-1-.3-1.4-.9-1.4a1.721,1.721,0,0,0-1.3.8v4.2h-1.4v-6Z" style="fill:#90a4ae"/><path d="M315.9,230.8c1.6,0,2.5,1.2,2.5,2.9a1.483,1.483,0,0,1-.1.7h-3.8a1.706,1.706,0,0,0,1.8,1.7,3.255,3.255,0,0,0,1.4-.4l.5.9a3.771,3.771,0,0,1-2.1.7,2.944,2.944,0,0,1-3-3.2A3,3,0,0,1,315.9,230.8Zm1.2,2.6q0-1.5-1.2-1.5c-.7,0-1.3.5-1.5,1.5Z" style="fill:#90a4ae"/><path d="M321.8,236.1c2.2-2.1,3.5-3.5,3.5-4.7A1.288,1.288,0,0,0,324,230a2.016,2.016,0,0,0-1.5.9l-.8-.8a3.034,3.034,0,0,1,2.5-1.2,2.285,2.285,0,0,1,2.5,2.4c0,1.4-1.3,2.8-2.8,4.5.4,0,.9-.1,1.3-.1h1.9v1.2h-5.3v-.8Z" style="fill:#90a4ae"/><path d="M328.2,233.4h2.9v1h-2.9Z" style="fill:#90a4ae"/><path d="M337.6,235h-1v2h-1.3v-2h-3.5v-1l3.1-4.8h1.7v4.7h1V235Zm-2.3-1.1v-1.8a8.083,8.083,0,0,1,.1-1.6h0l-.6,1.2-1.4,2.2h1.9Z" style="fill:#90a4ae"/><path d="M338.9,235.4a2.837,2.837,0,0,0,1.7.7c.7,0,1-.3,1-.7,0-.5-.7-.7-1.3-1-.8-.3-1.7-.8-1.7-1.8,0-1.1.8-1.8,2.2-1.8a3.221,3.221,0,0,1,2,.7l-.7.9a2.106,2.106,0,0,0-1.3-.5c-.6,0-.9.3-.9.7,0,.5.6.7,1.3.9.8.3,1.7.7,1.7,1.8,0,1-.8,1.9-2.3,1.9a4.539,4.539,0,0,1-2.3-.8Z" style="fill:#90a4ae"/><path d="M395.9,235.3h1.6v-5.1h-1.3v-.6a5.271,5.271,0,0,0,1.5-.5h.7v6.2h1.4v.7h-3.9v-.7Z" style="fill:#546e7a"/><path d="M401.2,234.6a2.535,2.535,0,0,0,1.8.8,1.288,1.288,0,0,0,1.4-1.3c0-.8-.6-1.4-2.2-1.4V232c1.5,0,2-.6,2-1.3a1.078,1.078,0,0,0-1.2-1.1,2.127,2.127,0,0,0-1.5.7l-.5-.6a2.876,2.876,0,0,1,2-.9c1.2,0,2.1.6,2.1,1.8a1.6,1.6,0,0,1-1.3,1.6h0a1.834,1.834,0,0,1,1.5,1.8,2.088,2.088,0,0,1-2.3,2,3.105,3.105,0,0,1-2.3-1Z" style="fill:#546e7a"/><path d="M407.1,234.8a.708.708,0,0,1,0,1.4c-.4,0-.6-.3-.6-.7A.669.669,0,0,1,407.1,234.8Z" style="fill:#546e7a"/><path d="M412.8,230.3a1.606,1.606,0,0,0-1.1-.5c-1,0-1.8.7-1.8,2.9a2.2,2.2,0,0,1,1.6-.9,1.87,1.87,0,0,1,2,2.1,2.058,2.058,0,0,1-2,2.2c-1.3,0-2.4-1.1-2.4-3.3,0-2.8,1.3-3.8,2.6-3.8a2.413,2.413,0,0,1,1.7.7Zm-.2,3.7c0-.9-.4-1.5-1.3-1.5a1.889,1.889,0,0,0-1.4.9c.1,1.3.6,2.1,1.5,2.1C412.1,235.5,412.6,234.9,412.6,234Z" style="fill:#546e7a"/><path d="M414.2,231.1c0-1.4.6-2.2,1.6-2.2s1.6.8,1.6,2.2-.6,2.2-1.6,2.2C414.9,233.3,414.2,232.5,414.2,231.1Zm2.6,0c0-1.1-.4-1.7-.9-1.7-.6,0-.9.5-.9,1.7,0,1.1.4,1.7.9,1.7S416.8,232.2,416.8,231.1Zm-.8,5.1,3.9-7.3h.6l-3.9,7.3Zm3.2-2.2c0-1.4.6-2.2,1.6-2.2s1.6.8,1.6,2.2-.6,2.2-1.6,2.2S419.2,235.4,419.2,234Zm2.5,0c0-1.1-.4-1.7-.9-1.7s-.9.6-.9,1.7.4,1.7.9,1.7S421.7,235.1,421.7,234Z" style="fill:#546e7a"/><line x1="255.3" y1="219.2" x2="426.4" y2="219.2" style="fill:none;stroke:#e1e1e1;stroke-miterlimit:10;stroke-width:0.5px"/><line x1="255.3" y1="245.1" x2="426.4" y2="245.1" style="fill:none;stroke:#e1e1e1;stroke-miterlimit:10;stroke-width:0.5px"/><path d="M257.5,262.8h4.4v.8h-3.5v2.6h2.9v.8h-2.9v3.4h-1v-7.6Z" style="fill:#90a4ae"/><path d="M263,264.8h1v3.5c0,1.1.3,1.5,1.1,1.5.6,0,1-.3,1.5-1v-4h1v5.7h-.8l-.1-.9h0a2.417,2.417,0,0,1-1.9,1c-1.2,0-1.7-.8-1.7-2.2v-3.6Z" style="fill:#90a4ae"/><path d="M269.4,262.2h1v7.3c0,.3.1.4.3.4h.2l.1.7a.749.749,0,0,1-.5.1c-.7,0-1-.5-1-1.3v-7.2Z" style="fill:#90a4ae"/><path d="M272.4,262.2h1v7.3c0,.3.1.4.3.4h.2l.1.7a.749.749,0,0,1-.5.1c-.7,0-1-.5-1-1.3v-7.2Z" style="fill:#90a4ae"/><path d="M277.6,269.2a2.609,2.609,0,0,0,1.7.7c.7,0,1.1-.4,1.1-.9,0-.6-.7-.8-1.3-1.1-.8-.3-1.7-.7-1.7-1.6s.7-1.6,2-1.6a3.51,3.51,0,0,1,1.8.6l-.5.6a2.106,2.106,0,0,0-1.3-.5c-.7,0-1,.4-1,.8,0,.5.6.7,1.3,1,.8.3,1.7.6,1.7,1.7,0,.9-.7,1.7-2.1,1.7a3.037,3.037,0,0,1-2.1-.8Z" style="fill:#90a4ae"/><path d="M282.8,265.6H282v-.7l.9-.1.1-1.6h.8v1.6h1.5v.8h-1.5v3.2c0,.7.2,1.1.9,1.1a1.072,1.072,0,0,0,.6-.2l.2.7a3.6,3.6,0,0,1-1.1.2c-1.2,0-1.6-.8-1.6-1.9Z" style="fill:#90a4ae"/><path d="M289.6,266.9c0-.7-.2-1.4-1.2-1.4a2.887,2.887,0,0,0-1.7.6l-.4-.7a4.4,4.4,0,0,1,2.2-.7c1.4,0,2,.9,2,2.3v3.5h-.8l-.1-.7h0a3.552,3.552,0,0,1-1.9.8A1.55,1.55,0,0,1,286,269C286.1,267.8,287.2,267.2,289.6,266.9Zm-1.6,3a2.449,2.449,0,0,0,1.6-.8v-1.6c-1.9.2-2.6.7-2.6,1.4C287.1,269.6,287.5,269.9,288,269.9Z" style="fill:#90a4ae"/><path d="M292.5,265.6h-.8v-.7l.9-.1.1-1.6h.8v1.6H295v.8h-1.5v3.2c0,.7.2,1.1.9,1.1a1.072,1.072,0,0,0,.6-.2l.2.7a3.6,3.6,0,0,1-1.1.2c-1.2,0-1.6-.8-1.6-1.9Z" style="fill:#90a4ae"/><path d="M298.3,264.7c1.5,0,2.3,1,2.3,2.7v.5h-3.8a1.923,1.923,0,0,0,1.9,2,3.255,3.255,0,0,0,1.4-.4l.3.6a3.568,3.568,0,0,1-1.9.6,2.714,2.714,0,0,1-2.7-3C295.8,265.8,297,264.7,298.3,264.7Zm1.5,2.5c0-1.2-.5-1.8-1.4-1.8a1.763,1.763,0,0,0-1.6,1.8Z" style="fill:#90a4ae"/><path d="M304.4,262.2h1v3.3a2.5,2.5,0,0,1,1.8-.8c1.5,0,2.3,1.1,2.3,2.9,0,1.9-1.2,3.1-2.5,3.1a2.83,2.83,0,0,1-1.6-.7h0l-.1.6h-.8v-8.4Zm2.3,7.6c.9,0,1.6-.9,1.6-2.3,0-1.3-.4-2.1-1.5-2.1a2.244,2.244,0,0,0-1.5.8v3A2.036,2.036,0,0,0,306.7,269.8Z" style="fill:#90a4ae"/><path d="M310.9,264.8h.8l.1,1h0a2.072,2.072,0,0,1,1.6-1.2,1.268,1.268,0,0,1,.6.1l-.2.8a1.083,1.083,0,0,0-.6-.1c-.5,0-1.1.4-1.4,1.3v3.7h-1v-5.6Z" style="fill:#90a4ae"/><path d="M314.8,263c0-.4.3-.6.7-.6s.7.2.7.6-.3.6-.7.6S314.8,263.4,314.8,263Zm.1,1.8h1v5.7h-1Z" style="fill:#90a4ae"/><path d="M319.9,264.7c1.5,0,2.3,1,2.3,2.7v.5h-3.8a1.923,1.923,0,0,0,1.9,2,3.255,3.255,0,0,0,1.4-.4l.3.6a3.568,3.568,0,0,1-1.9.6,2.714,2.714,0,0,1-2.7-3C317.4,265.8,318.6,264.7,319.9,264.7Zm1.5,2.5c0-1.2-.5-1.8-1.4-1.8a1.763,1.763,0,0,0-1.6,1.8Z" style="fill:#90a4ae"/><path d="M326.2,262.9a1.268,1.268,0,0,0-.6-.1c-.5,0-.8.4-.8,1.1v.9H326v.8h-1.2v4.9h-1v-4.9H323v-.7l.8-.1v-.9c0-1.2.5-1.9,1.7-1.9a2,2,0,0,1,.9.2Z" style="fill:#90a4ae"/><path d="M256.5,272v-.6h69.6v.6Z" style="fill:#90a4ae"/><polygon points="307.7 36.9 307.7 44.4 312 44.4 319.4 44.4 325.6 50.6 331.8 50.6 336.6 45.8 344.8 54 344.8 61.3 350.6 67.1 350.6 73.3 357.1 79.8 361.6 84.3 368.6 84.3 368.6 74.3 368.6 62.8 360.8 55.1 360.8 49.5 354.2 42.9 354.2 36.9 322.6 36.9 307.7 36.9" style="fill:#bdbdbd"/><rect width="681.6" height="302" style="fill:none"/></svg>