<?xml version="1.0" encoding="utf-8"?>
<!-- Generator: Adobe Illustrator 18.1.1, SVG Export Plug-In . SVG Version: 6.00 Build 0)  -->
<svg version="1.1" id="Layer_1" xmlns="http://www.w3.org/2000/svg" xmlns:xlink="http://www.w3.org/1999/xlink" x="0px" y="0px"
	 width="681px" height="293px" viewBox="0 0 681 293" enable-background="new 0 0 681 293" xml:space="preserve">
<g>
	<rect x="0" y="0" fill="transparent" width="681" height="293"/>
	<g>
		<g>
			<path fill="#3E4446" d="M186.1,167.2v-48.7h29.6v6.8H193v14h14.6v6.8H193v14.4h23.7v6.8H186.1z"/>
			<path fill="#3E4446" d="M243.6,180.3v-16.4c-1.3,1.1-2.6,2.1-4.1,2.9c-1.4,0.8-3.1,1.1-4.9,1.1c-1.8,0-3.6-0.3-5.2-1
				c-1.6-0.7-3-1.8-4.2-3.3c-1.2-1.5-2.1-3.4-2.8-5.8c-0.7-2.3-1-5.2-1-8.4c0-2.9,0.4-5.5,1.1-7.7c0.8-2.2,1.7-4,3-5.5
				c1.2-1.4,2.7-2.5,4.3-3.2c1.6-0.7,3.4-1.1,5.2-1.1c1.8,0,3.4,0.4,4.9,1.2c1.5,0.8,2.8,1.7,3.7,2.8v-3.2h6.7v45.5L243.6,180.3z
				 M243.7,142.8c-0.4-0.5-0.9-1.1-1.4-1.6c-0.6-0.5-1.2-1-1.9-1.4c-0.7-0.4-1.5-0.8-2.3-1.1c-0.8-0.3-1.6-0.4-2.5-0.4
				c-2.4,0-4.3,0.9-5.6,2.7c-1.3,1.8-1.9,4.6-1.9,8.2c0,4.4,0.7,7.6,2,9.5c1.3,2,3.2,3,5.7,3c1.6,0,3.1-0.5,4.4-1.3
				c1.3-0.9,2.5-1.9,3.3-3.1V142.8z"/>
			<path fill="#3E4446" d="M278.2,167.2v-3.3c-0.9,1.3-2.1,2.3-3.6,3c-1.5,0.7-3.2,1-5,1c-4,0-7.1-1.3-9.2-3.9
				c-2.1-2.6-3.1-6.4-3.1-11.6v-19.8h6.8v19.5c0,3.5,0.6,6,1.9,7.4c1.2,1.4,3,2.1,5.2,2.1c2.3,0,4-0.8,5.2-2.3
				c1.2-1.5,1.8-3.7,1.8-6.5v-20.2h6.8v34.5H278.2z"/>
			<path fill="#3E4446" d="M312,167.2v-3.4c-1.2,1.2-2.6,2.2-4.2,3c-1.6,0.8-3.4,1.2-5.3,1.2c-1.4,0-2.8-0.2-4.2-0.6
				c-1.4-0.4-2.7-1.1-3.8-2c-1.1-0.9-2.1-2.1-2.8-3.6c-0.7-1.5-1.1-3.3-1.1-5.4c0-1.9,0.3-3.6,1.1-5c0.7-1.4,1.7-2.6,2.9-3.5
				c1.2-0.9,2.7-1.6,4.3-2c1.7-0.4,3.5-0.7,5.5-0.7c3.1,0,5.7,0.4,7.7,1.3v-2.6c0-1.9-0.6-3.3-1.7-4.3c-1.1-1-2.7-1.5-4.8-1.5
				c-1.8,0-3.4,0.2-4.8,0.5c-1.4,0.4-2.8,0.9-4.2,1.6l-2.6-5.1c1.7-1,3.4-1.8,5.3-2.3c1.9-0.5,4-0.8,6.5-0.8c3.9,0,7,1,9.4,2.9
				c2.4,1.9,3.6,4.8,3.6,8.7v23.6H312z M312,152.5c-0.9-0.5-2-0.9-3.3-1.1c-1.3-0.3-2.8-0.4-4.6-0.4c-2.2,0-3.9,0.5-5.2,1.4
				c-1.3,0.9-1.9,2.2-1.9,3.7c0,1.7,0.5,3.1,1.6,4.1c1.1,1.1,2.7,1.6,5,1.6c1.8,0,3.5-0.5,5-1.4c1.5-0.9,2.6-1.9,3.4-3V152.5z"/>
			<path fill="#3E4446" d="M326,167.2v-44.3l6.8-2.2v46.5H326z"/>
			<path fill="#3E4446" d="M348.1,125.3V140h14.6v6.8h-14.6v20.4h-6.8v-48.7h29.5v6.8H348.1z"/>
			<path fill="#3E4446" d="M392.6,167.2v-3.3c-0.9,1.3-2.1,2.3-3.6,3c-1.6,0.7-3.2,1-5,1c-4,0-7.1-1.3-9.2-3.9
				c-2.1-2.6-3.1-6.4-3.1-11.6v-19.8h6.8v19.5c0,3.5,0.6,6,1.9,7.4c1.2,1.4,3,2.1,5.2,2.1c2.3,0,4-0.8,5.2-2.3
				c1.2-1.5,1.8-3.7,1.8-6.5v-20.2h6.8v34.5H392.6z"/>
			<path fill="#3E4446" d="M451.9,167.2v-3.3c-0.9,1.3-2.1,2.3-3.6,3c-1.6,0.7-3.2,1-5,1c-4,0-7.1-1.3-9.2-3.9
				c-2.1-2.6-3.1-6.4-3.1-11.6v-19.8h6.8v19.5c0,3.5,0.6,6,1.9,7.4c1.2,1.4,3,2.1,5.2,2.1c2.3,0,4-0.8,5.2-2.3
				c1.2-1.5,1.8-3.7,1.8-6.5v-20.2h6.8v34.5H451.9z"/>
			<path fill="#3E4446" d="M484.7,139.9c-0.8-0.4-1.5-0.7-2.3-0.9c-0.8-0.2-1.7-0.3-2.9-0.3c-2.1,0-3.8,0.7-5,2.2
				c-1.2,1.5-1.8,3.7-1.8,6.6v19.7h-6.8v-34.5h6.8v3.3c0.8-1.1,1.9-2.1,3.3-2.9c1.4-0.8,2.9-1.2,4.6-1.2c1.4,0,2.5,0.1,3.4,0.4
				c0.9,0.2,1.7,0.6,2.4,1.1L484.7,139.9z"/>
			<path fill="#3E4446" d="M518.3,149.3c0,0.6,0,1.2-0.1,1.7c-0.1,0.5-0.1,1-0.1,1.3h-22.8c0.2,1.7,0.5,3.1,1,4.3
				c0.5,1.2,1.2,2.2,2,2.9c0.8,0.8,1.7,1.3,2.6,1.7c1,0.4,2,0.6,3,0.6c1.4,0,2.8-0.2,4-0.7c1.2-0.5,2.4-1.2,3.5-2l4,4.3
				c-1.5,1.4-3.2,2.6-5.1,3.3c-1.9,0.8-4.1,1.2-6.8,1.2c-2,0-3.9-0.4-5.7-1.2c-1.8-0.8-3.4-1.9-4.8-3.5c-1.4-1.5-2.4-3.4-3.2-5.6
				c-0.8-2.2-1.2-4.8-1.2-7.6c0-2.9,0.4-5.5,1.1-7.8c0.7-2.2,1.8-4.1,3.1-5.6c1.3-1.5,2.9-2.7,4.8-3.4c1.9-0.8,3.9-1.2,6.1-1.2
				c2.5,0,4.6,0.5,6.4,1.4c1.8,0.9,3.3,2.2,4.5,3.7c1.2,1.6,2.1,3.4,2.7,5.5C518,144.8,518.3,147,518.3,149.3z M511.5,146.8
				c-0.1-1.2-0.3-2.3-0.6-3.3c-0.3-1.1-0.8-2-1.5-2.8c-0.6-0.8-1.5-1.4-2.5-1.9c-1-0.5-2.2-0.7-3.6-0.7c-2.3,0-4.1,0.8-5.4,2.3
				c-1.3,1.5-2.2,3.6-2.5,6.4H511.5z"/>
			<path fill="#3E4446" d="M422.6,161.4c-0.8,0.2-1.6,0.3-2.4,0.3c-1.3,0-2.2-0.3-2.7-0.8c-0.6-0.6-0.8-1.7-0.8-3.3V139h7.2v-6.2
				h-7.2v-12l-6.6,2.2v9.9h-4.9v6.2h4.9v19.9c0,3.1,0.7,5.4,2.1,6.9c1.4,1.5,3.3,2.2,5.7,2.2c1.4,0,2.6-0.1,3.7-0.4
				c0.4-0.1,0.7-0.2,1.1-0.3V161.4z"/>
		</g>
		<g>
			<g>
				<polygon fill="#FF5722" points="521.2,132.5 530.7,123 549.8,123 549.8,116.1 521.2,116.1 				"/>
				<rect x="521.2" y="104" fill="#FF5722" width="28.6" height="7.1"/>
			</g>
		</g>
	</g>
</g>
<g>
</g>
<g>
</g>
<g>
</g>
<g>
</g>
<g>
</g>
<g>
</g>
<g>
</g>
<g>
</g>
<g>
</g>
<g>
</g>
<g>
</g>
<g>
</g>
<g>
</g>
<g>
</g>
<g>
</g>
</svg>
