<svg xmlns="http://www.w3.org/2000/svg" width="681" height="293" viewBox="0 0 681 293"><path fill="transparent" d="M0 0h681v293H0z"/><path d="M186.1 167.2v-48.7h29.6v6.8H193v14h14.6v6.8H193v14.4h23.7v6.8h-30.6zm57.5 13.1v-16.4c-1.3 1.1-2.6 2.1-4.1 2.9-1.4.8-3.1 1.1-4.9 1.1-1.8 0-3.6-.3-5.2-1s-3-1.8-4.2-3.3c-1.2-1.5-2.1-3.4-2.8-5.8-.7-2.3-1-5.2-1-8.4 0-2.9.4-5.5 1.1-7.7.8-2.2 1.7-4 3-5.5 1.2-1.4 2.7-2.5 4.3-3.2 1.6-.7 3.4-1.1 5.2-1.1 1.8 0 3.4.4 4.9 1.2 1.5.8 2.8 1.7 3.7 2.8v-3.2h6.7v45.5l-6.7 2.1zm.1-37.5c-.4-.5-.9-1.1-1.4-1.6-.6-.5-1.2-1-1.9-1.4-.7-.4-1.5-.8-2.3-1.1-.8-.3-1.6-.4-2.5-.4-2.4 0-4.3.9-5.6 2.7-1.3 1.8-1.9 4.6-1.9 8.2 0 4.4.7 7.6 2 9.5 1.3 2 3.2 3 5.7 3 1.6 0 3.1-.5 4.4-1.3 1.3-.9 2.5-1.9 3.3-3.1v-14.5zm34.5 24.4v-3.3c-.9 1.3-2.1 2.3-3.6 3-1.5.7-3.2 1-5 1-4 0-7.1-1.3-9.2-3.9-2.1-2.6-3.1-6.4-3.1-11.6v-19.8h6.8v19.5c0 3.5.6 6 1.9 7.4 1.2 1.4 3 2.1 5.2 2.1 2.3 0 4-.8 5.2-2.3 1.2-1.5 1.8-3.7 1.8-6.5v-20.2h6.8v34.5h-6.8zm33.8 0v-3.4c-1.2 1.2-2.6 2.2-4.2 3-1.6.8-3.4 1.2-5.3 1.2-1.4 0-2.8-.2-4.2-.6-1.4-.4-2.7-1.1-3.8-2-1.1-.9-2.1-2.1-2.8-3.6-.7-1.5-1.1-3.3-1.1-5.4 0-1.9.3-3.6 1.1-5 .7-1.4 1.7-2.6 2.9-3.5 1.2-.9 2.7-1.6 4.3-2 1.7-.4 3.5-.7 5.5-.7 3.1 0 5.7.4 7.7 1.3v-2.6c0-1.9-.6-3.3-1.7-4.3s-2.7-1.5-4.8-1.5c-1.8 0-3.4.2-4.8.5-1.4.4-2.8.9-4.2 1.6l-2.6-5.1c1.7-1 3.4-1.8 5.3-2.3 1.9-.5 4-.8 6.5-.8 3.9 0 7 1 9.4 2.9 2.4 1.9 3.6 4.8 3.6 8.7v23.6H312zm0-14.7c-.9-.5-2-.9-3.3-1.1-1.3-.3-2.8-.4-4.6-.4-2.2 0-3.9.5-5.2 1.4-1.3.9-1.9 2.2-1.9 3.7 0 1.7.5 3.1 1.6 4.1 1.1 1.1 2.7 1.6 5 1.6 1.8 0 3.5-.5 5-1.4 1.5-.9 2.6-1.9 3.4-3v-4.9zm14 14.7v-44.3l6.8-2.2v46.5H326zm22.1-41.9V140h14.6v6.8h-14.6v20.4h-6.8v-48.7h29.5v6.8h-22.7zm44.5 41.9v-3.3c-.9 1.3-2.1 2.3-3.6 3-1.6.7-3.2 1-5 1-4 0-7.1-1.3-9.2-3.9-2.1-2.6-3.1-6.4-3.1-11.6v-19.8h6.8v19.5c0 3.5.6 6 1.9 7.4 1.2 1.4 3 2.1 5.2 2.1 2.3 0 4-.8 5.2-2.3 1.2-1.5 1.8-3.7 1.8-6.5v-20.2h6.8v34.5h-6.8zm59.3 0v-3.3c-.9 1.3-2.1 2.3-3.6 3-1.6.7-3.2 1-5 1-4 0-7.1-1.3-9.2-3.9-2.1-2.6-3.1-6.4-3.1-11.6v-19.8h6.8v19.5c0 3.5.6 6 1.9 7.4 1.2 1.4 3 2.1 5.2 2.1 2.3 0 4-.8 5.2-2.3 1.2-1.5 1.8-3.7 1.8-6.5v-20.2h6.8v34.5h-6.8zm32.8-27.3c-.8-.4-1.5-.7-2.3-.9-.8-.2-1.7-.3-2.9-.3-2.1 0-3.8.7-5 2.2-1.2 1.5-1.8 3.7-1.8 6.6v19.7h-6.8v-34.5h6.8v3.3c.8-1.1 1.9-2.1 3.3-2.9 1.4-.8 2.9-1.2 4.6-1.2 1.4 0 2.5.1 3.4.4.9.2 1.7.6 2.4 1.1l-1.7 6.5zm33.6 9.4c0 .6 0 1.2-.1 1.7s-.1 1-.1 1.3h-22.8c.2 1.7.5 3.1 1 4.3.5 1.2 1.2 2.2 2 2.9.8.8 1.7 1.3 2.6 1.7 1 .4 2 .6 3 .6 1.4 0 2.8-.2 4-.7 1.2-.5 2.4-1.2 3.5-2l4 4.3c-1.5 1.4-3.2 2.6-5.1 3.3-1.9.8-4.1 1.2-6.8 1.2-2 0-3.9-.4-5.7-1.2-1.8-.8-3.4-1.9-4.8-3.5-1.4-1.5-2.4-3.4-3.2-5.6-.8-2.2-1.2-4.8-1.2-7.6 0-2.9.4-5.5 1.1-7.8.7-2.2 1.8-4.1 3.1-5.6s2.9-2.7 4.8-3.4c1.9-.8 3.9-1.2 6.1-1.2 2.5 0 4.6.5 6.4 1.4 1.8.9 3.3 2.2 4.5 3.7 1.2 1.6 2.1 3.4 2.7 5.5.7 2.2 1 4.4 1 6.7zm-6.8-2.5c-.1-1.2-.3-2.3-.6-3.3-.3-1.1-.8-2-1.5-2.8-.6-.8-1.5-1.4-2.5-1.9s-2.2-.7-3.6-.7c-2.3 0-4.1.8-5.4 2.3-1.3 1.5-2.2 3.6-2.5 6.4h16.1zm-88.9 14.6c-.8.2-1.6.3-2.4.3-1.3 0-2.2-.3-2.7-.8-.6-.6-.8-1.7-.8-3.3V139h7.2v-6.2h-7.2v-12l-6.6 2.2v9.9h-4.9v6.2h4.9V159c0 3.1.7 5.4 2.1 6.9 1.4 1.5 3.3 2.2 5.7 2.2 1.4 0 2.6-.1 3.7-.4.4-.1.7-.2 1.1-.3v-6z" fill="#3E4446"/><path d="M521.2 132.5l9.5-9.5h19.1v-6.9h-28.6zm0-28.5h28.6v7.1h-28.6z" fill="#FF5722"/></svg>