<svg xmlns="http://www.w3.org/2000/svg" width="681" height="293" viewBox="0 0 681 293"><path fill="transparent" d="M0 0h681v293H0z"/><path d="M55.8 85.7L66.4 75h21.4v-7.8h-32zm0-32h32.1v8H55.8z" fill="#FAFAFA"/><path d="M103.9 122.9l-10.6-10.7H71.8v-7.8h32.1zm-32.1-32h32.1v8H71.8z" fill="#DDE6E8"/><path d="M55.8 160.1l10.6-10.7h21.4v-7.8h-32zm0-32h32.1v8H55.8z" fill="#FAFAFA"/><path d="M103.9 197.3l-10.6-10.7H71.8v-7.8h32.1zm-32.1-32h32.1v8H71.8z" fill="#DDE6E8"/><path d="M55.8 234.4l10.6-10.6h21.4V216h-32zm0-31.9h32.1v8H55.8zm59.3-116.8L125.7 75h21.4v-7.8h-32zm0-32h32.1v8h-32.1z" fill="#FAFAFA"/><path d="M163.2 122.9l-10.6-10.7h-21.5v-7.8h32.1zm-32.1-32h32.1v8h-32.1z" fill="#DDE6E8"/><path d="M115.1 160.1l10.6-10.7h21.4v-7.8h-32zm0-32h32.1v8h-32.1z" fill="#FAFAFA"/><path d="M163.2 197.3l-10.6-10.7h-21.5v-7.8h32.1zm-32.1-32h32.1v8h-32.1z" fill="#DDE6E8"/><path d="M115.1 234.4l10.6-10.6h21.4V216h-32zm0-31.9h32.1v8h-32.1zm59.3-116.8L185 75h21.4v-7.8h-32zm0-32h32.1v8h-32.1z" fill="#FAFAFA"/><path d="M222.5 122.9l-10.6-10.7h-21.5v-7.8h32.1zm-32.1-32h32.1v8h-32.1z" fill="#DDE6E8"/><path d="M174.4 160.1l10.6-10.7h21.4v-7.8h-32zm0-32h32.1v8h-32.1z" fill="#FAFAFA"/><path d="M222.5 197.3l-10.6-10.7h-21.5v-7.8h32.1zm-32.1-32h32.1v8h-32.1z" fill="#DDE6E8"/><path d="M174.4 234.4l10.6-10.6h21.4V216h-32zm0-31.9h32.1v8h-32.1zm59.3-116.8L244.3 75h21.4v-7.8h-32zm0-32h32.1v8h-32.1z" fill="#FAFAFA"/><path d="M281.8 122.9l-10.6-10.7h-21.5v-7.8h32.1zm-32.1-32h32.1v8h-32.1z" fill="#DDE6E8"/><path d="M233.7 160.1l10.6-10.7h21.4v-7.8h-32zm0-32h32.1v8h-32.1z" fill="#FAFAFA"/><path d="M281.8 197.3l-10.6-10.7h-21.5v-7.8h32.1zm-32.1-32h32.1v8h-32.1z" fill="#DDE6E8"/><path d="M233.7 234.4l10.6-10.6h21.4V216h-32zm0-31.9h32.1v8h-32.1zM293 85.7L303.6 75H325v-7.8h-32zm0-32h32.1v8H293z" fill="#FAFAFA"/><path d="M341.1 122.9l-10.6-10.7H309v-7.8h32.1zm-32.1-32h32.1v8H309z" fill="#DDE6E8"/><path d="M293 160.1l10.6-10.7H325v-7.8h-32zm0-32h32.1v8H293z" fill="#FAFAFA"/><path d="M341.1 197.3l-10.6-10.7H309v-7.8h32.1zm-32.1-32h32.1v8H309z" fill="#DDE6E8"/><path d="M293 234.4l10.6-10.6H325V216h-32zm0-31.9h32.1v8H293zm59.3-116.8L362.9 75h21.4v-7.8h-32zm0-32h32.1v8h-32.1z" fill="#FAFAFA"/><path d="M400.4 122.9l-10.6-10.7h-21.5v-7.8h32.1zm-32.1-32h32.1v8h-32.1z" fill="#DDE6E8"/><path d="M352.3 160.1l10.6-10.7h21.4v-7.8h-32zm0-32h32.1v8h-32.1z" fill="#FAFAFA"/><path d="M400.4 197.3l-10.6-10.7h-21.5v-7.8h32.1zm-32.1-32h32.1v8h-32.1z" fill="#DDE6E8"/><path d="M352.3 234.4l10.6-10.6h21.4V216h-32zm0-31.9h32.1v8h-32.1zm59.3-116.8L422.2 75h21.4v-7.8h-32zm0-32h32.1v8h-32.1z" fill="#FAFAFA"/><path d="M459.7 122.9l-10.6-10.7h-21.5v-7.8h32.1zm-32.1-32h32.1v8h-32.1z" fill="#DDE6E8"/><path d="M411.6 160.1l10.6-10.7h21.4v-7.8h-32zm0-32h32.1v8h-32.1z" fill="#FAFAFA"/><path d="M459.7 197.3l-10.6-10.7h-21.5v-7.8h32.1zm-32.1-32h32.1v8h-32.1z" fill="#DDE6E8"/><path d="M411.6 234.4l10.6-10.6h21.4V216h-32zm0-31.9h32.1v8h-32.1zm59.3-116.8L481.5 75H503v-7.8h-32.1zm0-32H503v8h-32.1z" fill="#FAFAFA"/><path d="M519 122.9l-10.6-10.7h-21.5v-7.8H519zm-32.1-32H519v8h-32.1z" fill="#DDE6E8"/><path d="M470.9 160.1l10.6-10.7H503v-7.8h-32.1zm0-32H503v8h-32.1z" fill="#FAFAFA"/><path d="M519 197.3l-10.6-10.7h-21.5v-7.8H519zm-32.1-32H519v8h-32.1z" fill="#DDE6E8"/><path d="M470.9 234.4l10.6-10.6H503V216h-32.1zm0-31.9H503v8h-32.1zm59.3-116.8L540.8 75h21.4v-7.8h-32zm0-32h32.1v8h-32.1z" fill="#FAFAFA"/><path d="M578.3 122.9l-10.6-10.7h-21.5v-7.8h32.1zm-32.1-32h32.1v8h-32.1z" fill="#DDE6E8"/><path d="M530.2 160.1l10.6-10.7h21.4v-7.8h-32zm0-32h32.1v8h-32.1z" fill="#FAFAFA"/><path d="M578.3 197.3l-10.6-10.7h-21.5v-7.8h32.1zm-32.1-32h32.1v8h-32.1z" fill="#DDE6E8"/><path d="M530.2 234.4l10.6-10.6h21.4V216h-32zm0-31.9h32.1v8h-32.1zm59.3-116.8L600.1 75h21.5v-7.8h-32.1zm0-32h32.1v8h-32.1z" fill="#FAFAFA"/><path d="M637.6 122.9L627 112.2h-21.5v-7.8h32.1zm-32.1-32h32.1v8h-32.1z" fill="#DDE6E8"/><path d="M589.5 160.1l10.6-10.7h21.5v-7.8h-32.1zm0-32h32.1v8h-32.1z" fill="#FAFAFA"/><path d="M637.6 197.3L627 186.6h-21.5v-7.8h32.1zm-32.1-32h32.1v8h-32.1z" fill="#DDE6E8"/><path d="M589.5 234.4l10.6-10.6h21.5V216h-32.1zm0-31.9h32.1v8h-32.1z" fill="#FAFAFA"/></svg>