<svg xmlns="http://www.w3.org/2000/svg" width="680" height="293" viewBox="0 0 680 293"><path fill="transparent" d="M0 0h339.6v293H0z"/><path fill="#5BBCC9" d="M339.6 0h340.7v293H339.6z"/><path fill="none" stroke="#5BBCC9" stroke-width="2.232" stroke-miterlimit="10" d="M145.7 100.8h99.5m-35 104.6H248"/><path d="M100.8 86h2.1l2.2 6.7 2.4-6.7h1.5l2.4 6.7 2.2-6.7h2.1l-3.6 10.8h-1.5l-2.4-6.8-2.4 6.8h-1.5L100.8 86zm22 9.6c-.7.9-1.9 1.3-3.1 1.3-2.2 0-3.9-1.5-3.9-3.9 0-2.1 1.4-3.9 3.6-3.9 2.1 0 3.5 1.7 3.5 3.8v.6h-5.2c.1 1 1 1.8 2 1.8.8 0 1.5-.5 1.9-.9l1.2 1.2zm-1.8-3.5c-.1-.7-.7-1.3-1.5-1.3s-1.5.6-1.6 1.3h3.1zm6.5-6.1l-1.8 4.5h-1.5l1.2-4.5h2.1zm5.7 5.1c-.1 0-.4-.1-.7-.1-.9 0-1.6.6-1.8 1.1v4.7h-2v-7.5h1.9v.8c.4-.6 1.3-.9 2.2-.9.3 0 .5 0 .7.1l-.3 1.8zm7.8 4.5c-.7.9-1.9 1.3-3.1 1.3-2.2 0-3.9-1.5-3.9-3.9 0-2.1 1.4-3.9 3.6-3.9 2.1 0 3.5 1.7 3.5 3.8v.6H136c.1 1 1 1.8 2 1.8.8 0 1.5-.5 1.9-.9l1.1 1.2zm-1.8-3.5c-.1-.7-.7-1.3-1.5-1.3s-1.5.6-1.6 1.3h3.1zm13.5 4.7c-.3.1-.9.2-1.2.2-1.2 0-2.1-.4-2.6-1.1-.4-.5-.6-1.2-.6-2.2V91h-2.1v-1.7h2.1v-2.1h2v2.1h2.5V91h-2.5v2.8c0 .5.1.7.2.9.2.2.5.4 1 .4.3 0 .7 0 .8-.1l.4 1.8zm8.1-1.2c-.7.9-1.9 1.3-3.1 1.3-2.2 0-3.9-1.5-3.9-3.9 0-2.1 1.4-3.9 3.6-3.9 2.1 0 3.5 1.7 3.5 3.8v.6h-5.2c.1 1 1 1.8 2 1.8.8 0 1.5-.5 1.9-.9l1.2 1.2zm-1.9-3.5c-.1-.7-.7-1.3-1.5-1.3s-1.5.6-1.6 1.3h3.1zm10.7 3.1c-.9 1.2-2 1.7-3.4 1.7-2.3 0-4-1.7-4-3.9s1.7-3.9 4-3.9c1.3 0 2.4.6 3.1 1.5l-1.4 1.2c-.4-.5-1-.9-1.7-.9-1.2 0-2 .9-2 2 0 1.2.8 2 2.1 2 .8 0 1.5-.5 1.8-1l1.5 1.3zm3.5 1.6h-2v-11h2v4c.6-.4 1.3-.7 2-.7 1 0 2 .5 2.6 1.2.5.6.8 1.3.8 2.6v3.8h-2v-4c0-.7-.2-1.1-.4-1.4-.3-.3-.7-.4-1.1-.4-.8 0-1.5.5-1.8.9v5zm7.6 0v-7.5h1.9v.6c.6-.5 1.3-.8 2.1-.8 1 0 2 .5 2.6 1.2.5.6.8 1.3.8 2.6v3.8h-2v-4c0-.7-.2-1.1-.4-1.4-.3-.3-.7-.4-1.1-.4-.8 0-1.5.5-1.8.9v4.8h-2.1zm12.8-7.7c2.3 0 4 1.7 4 3.9s-1.7 3.9-4 3.9-4-1.7-4-3.9 1.8-3.9 4-3.9zm0 6c1.2 0 2-.9 2-2s-.8-2-2-2-2 .9-2 2 .9 2 2 2zm7.7 1.7h-2v-11h2v11zm5.7-7.7c2.3 0 4 1.7 4 3.9s-1.7 3.9-4 3.9-4-1.7-4-3.9 1.7-3.9 4-3.9zm0 6c1.2 0 2-.9 2-2s-.8-2-2-2-2 .9-2 2 .8 2 2 2zm12.9 1.2c0 1.3-.2 2.1-.7 2.8-.7.9-1.9 1.5-3.3 1.5-1.5 0-2.8-.7-3.6-1.5l1.3-1.3c.4.4 1.1 1.1 2.3 1.1.6 0 1.2-.2 1.5-.6.3-.3.5-.8.5-1.8v-.2c-.6.5-1.2.7-2 .7-1.1 0-2.2-.5-2.8-1.3-.6-.7-.9-1.6-.9-2.6 0-2.2 1.6-3.9 3.7-3.9.8 0 1.6.3 2.2.8v-.6h1.9v6.9zm-2-4.4c-.4-.6-1.1-.9-1.8-.9-1.2 0-1.9 1-1.9 2 0 1.2.8 2 2 2 .8 0 1.4-.4 1.8-.9v-2.2zm5.3-6.5c.7 0 1.3.6 1.3 1.3 0 .7-.6 1.3-1.3 1.3s-1.3-.6-1.3-1.3c0-.8.6-1.3 1.3-1.3zm1 11.4h-2v-7.5h2v7.5zm2.6-2.3c.5.5 1.3.7 2 .7.5 0 1-.3 1-.6 0-1.1-3.6-.7-3.6-3.1 0-1.4 1.4-2.3 2.9-2.3 1 0 2 .4 2.5.8l-.9 1.4c-.4-.3-.9-.5-1.4-.5-.6 0-1 .2-1 .6 0 1 3.6.6 3.6 3.2 0 1.4-1.4 2.3-3 2.3-1 0-2.1-.4-3-1l.9-1.5zm12.1 2.3c-.3.1-.9.2-1.2.2-1.2 0-2.1-.4-2.6-1.1-.4-.5-.6-1.2-.6-2.2V91h-2.1v-1.7h2.1v-2.1h2v2.1h2.5V91h-2.5v2.8c0 .5.1.7.2.9.2.2.5.4 1 .4.3 0 .7 0 .8-.1l.4 1.8zm2.2-2.3c.5.5 1.3.7 2 .7.5 0 1-.3 1-.6 0-1.1-3.6-.7-3.6-3.1 0-1.4 1.4-2.3 2.9-2.3 1 0 2 .4 2.5.8l-.9 1.4c-.4-.3-.9-.5-1.4-.5-.6 0-1 .2-1 .6 0 1 3.6.6 3.6 3.2 0 1.4-1.4 2.3-3 2.3-1 0-2.1-.4-3-1l.9-1.5zm-138.6 28.3H101l-3.1-7.5h2l1.8 4.4 1.9-4.4h1.4l1.9 4.4 1.8-4.4h2l-3.1 7.5h-1.4l-1.9-4.3-1.9 4.3zm11.6 0h-2v-10.9h2v4c.6-.4 1.3-.7 2-.7 1 0 2 .5 2.6 1.2.5.6.8 1.3.8 2.6v3.8h-2v-4c0-.7-.2-1.1-.4-1.4-.3-.3-.7-.4-1.1-.4-.8 0-1.5.5-1.8.9v4.9zm10.9-7.7c2.3 0 4 1.7 4 3.9s-1.7 3.9-4 3.9-4-1.7-4-3.9 1.7-3.9 4-3.9zm0 6c1.2 0 2-.9 2-2s-.8-2-2-2-2 .9-2 2 .8 2 2 2zm16.8-5.8v7.5h-1.9v-.6c-.6.5-1.3.8-2 .8-1 0-2-.5-2.5-1.2-.5-.6-.8-1.4-.8-2.5v-4h2v4c0 .7.1 1 .4 1.3.3.3.7.5 1.1.5.8 0 1.5-.6 1.7-.9v-4.8h2zm2.4 7.5v-7.5h1.9v.6c.6-.5 1.3-.8 2.1-.8 1 0 2 .5 2.6 1.2.5.6.8 1.3.8 2.6v3.8h-2v-4c0-.7-.2-1.1-.4-1.4-.3-.3-.7-.4-1.1-.4-.8 0-1.5.5-1.8.9v4.8h-2.1zm14.7 0v-.6c-.6.5-1.3.8-2.1.8-1.1 0-2.2-.5-2.8-1.3-.6-.7-1-1.6-1-2.6 0-2.2 1.6-3.9 3.7-3.9.8 0 1.5.2 2.1.7v-4h2v10.9h-1.9zm-.1-4.9c-.4-.6-1.1-.9-1.8-.9-1.2 0-1.9 1-1.9 2 0 1.2.8 2 2 2 .8 0 1.4-.4 1.8-.9v-2.2zm10.7 3.7c-.7.9-1.9 1.3-3.1 1.3-2.2 0-3.9-1.5-3.9-3.9 0-2.1 1.4-3.9 3.6-3.9 2.1 0 3.5 1.7 3.5 3.8v.6h-5.2c.1 1 1 1.8 2 1.8.8 0 1.5-.5 1.9-.9l1.2 1.2zm-1.9-3.5c-.1-.7-.7-1.3-1.5-1.3s-1.5.6-1.6 1.3h3.1zm8.3-1c-.1 0-.4-.1-.7-.1-.9 0-1.6.6-1.8 1.1v4.7h-2v-7.5h1.9v.8c.4-.6 1.3-.9 2.2-.9.3 0 .5 0 .7.1l-.3 1.8zm1.9 3.4c.5.5 1.3.7 2 .7.5 0 1-.3 1-.6 0-1.1-3.6-.7-3.6-3.1 0-1.4 1.4-2.3 2.9-2.3 1 0 2 .4 2.5.8l-.9 1.4c-.4-.3-.9-.5-1.4-.5-.6 0-1 .2-1 .6 0 1 3.6.6 3.6 3.2 0 1.4-1.4 2.3-3 2.3-1 0-2.1-.4-3-1l.9-1.5zm12.2 2.3c-.3.1-.9.2-1.2.2-1.2 0-2.1-.4-2.6-1.1-.4-.5-.6-1.2-.6-2.2V117h-2.1v-1.7h2.1v-2.1h2v2.1h2.5v1.7h-2.5v2.8c0 .5.1.7.2.9.2.2.5.4 1 .4.3 0 .7 0 .8-.1l.4 1.8zm8.9 0h-1.9v-.6c-.6.5-1.3.8-2.1.8-1.1 0-2.2-.5-2.8-1.3-.6-.7-1-1.6-1-2.6 0-2.2 1.6-3.9 3.7-3.9.8 0 1.6.3 2.2.8v-.6h1.9v7.4zm-2-4.9c-.4-.6-1.1-.9-1.8-.9-1.2 0-1.9 1-1.9 2 0 1.2.8 2 2 2 .8 0 1.4-.4 1.8-.9v-2.2zm4.3 4.9v-7.5h1.9v.6c.6-.5 1.3-.8 2.1-.8 1 0 2 .5 2.6 1.2.5.6.8 1.3.8 2.6v3.8h-2v-4c0-.7-.2-1.1-.4-1.4-.3-.3-.7-.4-1.1-.4-.8 0-1.5.5-1.8.9v4.8h-2.1zm14.8 0v-.6c-.6.5-1.3.8-2.1.8-1.1 0-2.2-.5-2.8-1.3-.6-.7-1-1.6-1-2.6 0-2.2 1.6-3.9 3.7-3.9.8 0 1.5.2 2.1.7v-4h2v10.9h-1.9zm-.1-4.9c-.4-.6-1.1-.9-1.8-.9-1.2 0-1.9 1-1.9 2 0 1.2.8 2 2 2 .8 0 1.4-.4 1.8-.9v-2.2zm10.4 4.9h-2v-10.9h2v10.9zm9.5 0h-1.9v-.6c-.6.5-1.3.8-2.1.8-1.1 0-2.2-.5-2.8-1.3-.6-.7-1-1.6-1-2.6 0-2.2 1.6-3.9 3.7-3.9.8 0 1.6.3 2.2.8v-.6h1.9v7.4zm-2-4.9c-.4-.6-1.1-.9-1.8-.9-1.2 0-1.9 1-1.9 2 0 1.2.8 2 2 2 .8 0 1.4-.4 1.8-.9v-2.2zm7.8 4.9h-1.4l-3.1-7.5h2l1.8 4.4 1.9-4.4h1.4l1.9 4.4 1.8-4.4h2l-3.1 7.5h-1.4l-1.9-4.3-1.9 4.3zm-131.2 26h-1.9v-.6c-.6.5-1.3.8-2.1.8-1.1 0-2.2-.5-2.8-1.3-.6-.7-1-1.6-1-2.6 0-2.2 1.6-3.9 3.7-3.9.8 0 1.6.3 2.2.8v-.6h1.9v7.4zm-2-4.9c-.4-.6-1.1-.9-1.8-.9-1.2 0-1.9 1-1.9 2 0 1.2.8 2 2 2 .8 0 1.4-.4 1.8-.9v-2.2zm4.3 4.9v-7.5h1.9v.6c.6-.5 1.3-.8 2.1-.8 1 0 2 .5 2.6 1.2.5.6.8 1.3.8 2.6v3.8h-2v-4c0-.7-.2-1.1-.4-1.4-.3-.3-.7-.4-1.1-.4-.8 0-1.5.5-1.8.9v4.8h-2.1zm14.7 0v-.6c-.6.5-1.3.8-2.1.8-1.1 0-2.2-.5-2.8-1.3-.6-.7-1-1.6-1-2.6 0-2.2 1.6-3.9 3.7-3.9.8 0 1.5.2 2.1.7v-4h2v10.9h-1.9zm0-4.9c-.4-.6-1.1-.9-1.8-.9-1.2 0-1.9 1-1.9 2 0 1.2.8 2 2 2 .8 0 1.4-.4 1.8-.9v-2.2zm8.4-2.6h1.9v.6c.6-.5 1.3-.8 2.2-.8 2 0 3.7 1.7 3.7 3.9 0 1-.4 1.9-.9 2.6-.7.8-1.7 1.3-2.8 1.3-.8 0-1.4-.2-2-.7v4.2h-2v-11.1zm2 4.8c.4.6 1 .9 1.8.9 1.1 0 2-.9 2-2s-.8-2-1.9-2c-.8 0-1.4.4-1.8.9v2.2zm11-5c2.3 0 4 1.7 4 3.9s-1.7 3.9-4 3.9-4-1.7-4-3.9 1.7-3.9 4-3.9zm0 6c1.2 0 2-.9 2-2s-.8-2-2-2-2 .9-2 2 .8 2 2 2zm7.6 1.7h-2v-10.9h2v10.9zm3.3-11.4c.7 0 1.3.6 1.3 1.3 0 .7-.6 1.3-1.3 1.3s-1.3-.6-1.3-1.3c0-.8.6-1.3 1.3-1.3zm1 11.4h-2v-7.5h2v7.5zm9.1-1.6c-.9 1.2-2 1.7-3.4 1.7-2.3 0-4-1.7-4-3.9s1.7-3.9 4-3.9c1.3 0 2.4.6 3.1 1.5l-1.4 1.2c-.4-.5-1-.9-1.7-.9-1.2 0-2 .9-2 2 0 1.2.8 2 2.1 2 .8 0 1.5-.5 1.8-1l1.5 1.3zm1.8 5.3l2.1-4.4-3.3-6.7h2.2l2.2 4.5 2-4.5h2.1l-5.1 11.2h-2.2zm9.5-6.3c.8 0 1.4.6 1.4 1.4 0 .8-.6 1.3-1.4 1.3s-1.3-.6-1.3-1.3c0-.8.6-1.4 1.3-1.4zm6-8.2h2.1l2.2 6.7 2.4-6.7h1.5l2.4 6.7 2.2-6.7h2.1l-3.6 10.8h-1.5l-2.4-6.8-2.4 6.8h-1.5L187 138zm22 9.6c-.7.9-1.9 1.3-3.1 1.3-2.2 0-3.9-1.5-3.9-3.9 0-2.1 1.4-3.9 3.6-3.9 2.1 0 3.5 1.7 3.5 3.8v.6H204c.1 1 1 1.8 2 1.8.8 0 1.5-.5 1.9-.9l1.1 1.2zm-1.9-3.5c-.1-.7-.7-1.3-1.5-1.3s-1.5.6-1.6 1.3h3.1zm9.9 4.7h-2v-10.9h2v4c.6-.4 1.3-.7 2-.7 1 0 2 .5 2.6 1.2.5.6.8 1.3.8 2.6v3.8h-2v-4c0-.7-.2-1.1-.4-1.4-.3-.3-.7-.4-1.1-.4-.8 0-1.5.5-1.8.9v4.9zm13.9-1.2c-.7.9-1.9 1.3-3.1 1.3-2.2 0-3.9-1.5-3.9-3.9 0-2.1 1.4-3.9 3.6-3.9 2.1 0 3.5 1.7 3.5 3.8v.6h-5.2c.1 1 1 1.8 2 1.8.8 0 1.5-.5 1.9-.9l1.2 1.2zm-1.8-3.5c-.1-.7-.7-1.3-1.5-1.3s-1.5.6-1.6 1.3h3.1zm5.7 4.7h-2v-10.9h2v10.9zm2.3-7.5h1.9v.6c.6-.5 1.3-.8 2.2-.8 2 0 3.7 1.7 3.7 3.9 0 1-.4 1.9-.9 2.6-.7.8-1.7 1.3-2.8 1.3-.8 0-1.4-.2-2-.7v4.2h-2v-11.1zm2 4.8c.4.6 1 .9 1.8.9 1.1 0 2-.9 2-2s-.8-2-1.9-2c-.8 0-1.4.4-1.8.9v2.2zm-123.9 21c2.3 0 4 1.7 4 3.9s-1.7 3.9-4 3.9-4-1.7-4-3.9 1.8-3.9 4-3.9zm0 6c1.2 0 2-.9 2-2s-.8-2-2-2-2 .9-2 2 .9 2 2 2zm12.8-5.8v7.5h-2v-.6c-.6.5-1.3.8-2 .8-1 0-2-.5-2.5-1.2-.5-.6-.8-1.4-.8-2.5v-4h2v4c0 .7.1 1 .4 1.3.3.3.7.5 1.1.5.8 0 1.5-.6 1.7-.9v-4.8h2.1zm6.8 1.8c-.1 0-.4-.1-.7-.1-.9 0-1.6.6-1.8 1.1v4.7h-2v-7.5h1.9v.8c.4-.6 1.3-.9 2.2-.9.3 0 .5 0 .7.1l-.3 1.8zm12.7 4.1c-.9 1.2-2 1.7-3.4 1.7-2.3 0-4-1.7-4-3.9s1.7-3.9 4-3.9c1.3 0 2.4.6 3.1 1.5l-1.4 1.2c-.4-.5-1-.9-1.7-.9-1.2 0-2 .9-2 2 0 1.2.8 2 2.1 2 .8 0 1.5-.5 1.8-1l1.5 1.3zm3.5 1.6h-2v-10.9h2v10.9zm3.3-11.4c.7 0 1.3.6 1.3 1.3 0 .7-.6 1.3-1.3 1.3s-1.3-.6-1.3-1.3c0-.8.6-1.3 1.3-1.3zm1 11.4h-2v-7.5h2v7.5zm8.7-1.2c-.7.9-1.9 1.3-3.1 1.3-2.2 0-3.9-1.5-3.9-3.9 0-2.1 1.4-3.9 3.6-3.9 2.1 0 3.5 1.7 3.5 3.8v.6h-5.2c.1 1 1 1.8 2 1.8.8 0 1.5-.5 1.9-.9l1.2 1.2zm-1.9-3.5c-.1-.7-.7-1.3-1.5-1.3s-1.5.6-1.6 1.3h3.1zm3.7 4.7v-7.5h1.9v.6c.6-.5 1.3-.8 2.1-.8 1 0 2 .5 2.6 1.2.5.6.8 1.3.8 2.6v3.8h-2v-4c0-.7-.2-1.1-.4-1.4-.3-.3-.7-.4-1.1-.4-.8 0-1.5.5-1.8.9v4.8h-2.1zm14.9 0c-.3.1-.9.2-1.2.2-1.2 0-2.1-.4-2.6-1.1-.4-.5-.6-1.2-.6-2.2V169h-2.1v-1.7h2.1v-2.1h2v2.1h2.5v1.7h-2.5v2.8c0 .5.1.7.2.9.2.2.5.4 1 .4.3 0 .7 0 .8-.1l.4 1.8zm2.2-2.3c.5.5 1.3.7 2 .7.5 0 1-.3 1-.6 0-1.1-3.6-.7-3.6-3.1 0-1.4 1.4-2.3 2.9-2.3 1 0 2 .4 2.5.8l-.9 1.4c-.4-.3-.9-.5-1.4-.5-.6 0-1 .2-1 .6 0 1 3.6.6 3.6 3.2 0 1.4-1.4 2.3-3 2.3-1 0-2.1-.4-3-1l.9-1.5zm11.2 0c.5.5 1.3.7 2 .7.5 0 1-.3 1-.6 0-1.1-3.6-.7-3.6-3.1 0-1.4 1.4-2.3 2.9-2.3 1 0 2 .4 2.5.8l-.9 1.4c-.4-.3-.9-.5-1.4-.5-.6 0-1 .2-1 .6 0 1 3.6.6 3.6 3.2 0 1.4-1.4 2.3-3 2.3-1 0-2.1-.4-3-1l.9-1.5zm8.9 2.3h-2v-10.9h2v4c.6-.4 1.3-.7 2-.7 1 0 2 .5 2.6 1.2.5.6.8 1.3.8 2.6v3.8h-2v-4c0-.7-.2-1.1-.4-1.4-.3-.3-.7-.4-1.1-.4-.8 0-1.5.5-1.8.9v4.9zm14.7 0h-1.9v-.6c-.6.5-1.3.8-2.1.8-1.1 0-2.2-.5-2.8-1.3-.6-.7-1-1.6-1-2.6 0-2.2 1.6-3.9 3.7-3.9.8 0 1.6.3 2.2.8v-.6h1.9v7.4zm-2-4.9c-.4-.6-1.1-.9-1.8-.9-1.2 0-1.9 1-1.9 2 0 1.2.8 2 2 2 .8 0 1.4-.4 1.8-.9v-2.2zm4.3-2.6h1.9v.6c.6-.5 1.3-.8 2.2-.8 2 0 3.7 1.7 3.7 3.9 0 1-.4 1.9-.9 2.6-.7.8-1.7 1.3-2.8 1.3-.8 0-1.4-.2-2-.7v4.2h-2v-11.1zm2 4.8c.4.6 1 .9 1.8.9 1.1 0 2-.9 2-2s-.8-2-1.9-2c-.8 0-1.4.4-1.8.9v2.2zm13.9 1.5c-.7.9-1.9 1.3-3.1 1.3-2.2 0-3.9-1.5-3.9-3.9 0-2.1 1.4-3.9 3.6-3.9 2.1 0 3.5 1.7 3.5 3.8v.6h-5.2c.1 1 1 1.8 2 1.8.8 0 1.5-.5 1.9-.9l1.2 1.2zm-1.8-3.5c-.1-.7-.7-1.3-1.5-1.3s-1.5.6-1.6 1.3h3.1zm-130.4 30.7h-1.4l-3.1-7.5h2l1.8 4.4 1.9-4.4h1.4l1.9 4.4 1.8-4.4h2l-3.1 7.5h-1.4l-1.9-4.3-1.9 4.3zm11.5 0h-2v-10.9h2v4c.6-.4 1.3-.7 2-.7 1 0 2 .5 2.6 1.2.5.6.8 1.3.8 2.6v3.8h-2v-4c0-.7-.2-1.1-.4-1.4-.3-.3-.7-.4-1.1-.4-.8 0-1.5.5-1.8.9v4.9zm14.7 0H128v-.6c-.6.5-1.3.8-2.1.8-1.1 0-2.2-.5-2.8-1.3-.6-.7-1-1.6-1-2.6 0-2.2 1.6-3.9 3.7-3.9.8 0 1.6.3 2.2.8v-.6h1.9v7.4zm-2-4.9c-.4-.6-1.1-.9-1.8-.9-1.2 0-1.9 1-1.9 2 0 1.2.8 2 2 2 .8 0 1.4-.4 1.8-.9v-2.2zm9.9 4.9c-.3.1-.9.2-1.2.2-1.2 0-2.1-.4-2.6-1.1-.4-.5-.6-1.2-.6-2.2V195h-2.1v-1.7h2.1v-2.1h2v2.1h2.5v1.7h-2.5v2.8c0 .5.1.7.2.9.2.2.5.4 1 .4.3 0 .7 0 .8-.1l.4 1.8zm8.2 0h-2v-10.9h2v4c.6-.4 1.3-.7 2-.7 1 0 2 .5 2.6 1.2.5.6.8 1.3.8 2.6v3.8h-2v-4c0-.7-.2-1.1-.4-1.4-.3-.3-.7-.4-1.1-.4-.8 0-1.5.5-1.8.9v4.9zm14.7 0h-1.9v-.6c-.6.5-1.3.8-2.1.8-1.1 0-2.2-.5-2.8-1.3-.6-.7-1-1.6-1-2.6 0-2.2 1.6-3.9 3.7-3.9.8 0 1.6.3 2.2.8v-.6h1.9v7.4zm-2-4.9c-.4-.6-1.1-.9-1.8-.9-1.2 0-1.9 1-1.9 2 0 1.2.8 2 2 2 .8 0 1.4-.4 1.8-.9v-2.2zm4.3-2.6h1.9v.6c.6-.5 1.3-.8 2.2-.8 2 0 3.7 1.7 3.7 3.9 0 1-.4 1.9-.9 2.6-.7.8-1.7 1.3-2.8 1.3-.8 0-1.4-.2-2-.7v4.2h-2v-11.1zm2 4.8c.4.6 1 .9 1.8.9 1.1 0 2-.9 2-2s-.8-2-1.9-2c-.8 0-1.4.4-1.8.9v2.2zm7.4-4.8h1.9v.6c.6-.5 1.3-.8 2.2-.8 2 0 3.7 1.7 3.7 3.9 0 1-.4 1.9-.9 2.6-.7.8-1.7 1.3-2.8 1.3-.8 0-1.4-.2-2-.7v4.2h-2v-11.1zm2 4.8c.4.6 1 .9 1.8.9 1.1 0 2-.9 2-2s-.8-2-1.9-2c-.8 0-1.4.4-1.8.9v2.2zm14 1.5c-.7.9-1.9 1.3-3.1 1.3-2.2 0-3.9-1.5-3.9-3.9 0-2.1 1.4-3.9 3.6-3.9 2.1 0 3.5 1.7 3.5 3.8v.6h-5.2c.1 1 1 1.8 2 1.8.8 0 1.5-.5 1.9-.9l1.2 1.2zm-1.9-3.5c-.1-.7-.7-1.3-1.5-1.3s-1.5.6-1.6 1.3h3.1zm3.8 4.7v-7.5h1.9v.6c.6-.5 1.3-.8 2.1-.8 1 0 2 .5 2.6 1.2.5.6.8 1.3.8 2.6v3.8h-2v-4c0-.7-.2-1.1-.4-1.4-.3-.3-.7-.4-1.1-.4-.8 0-1.5.5-1.8.9v4.8h-2.1zm9.7-2.3c.5.5 1.3.7 2 .7.5 0 1-.3 1-.6 0-1.1-3.6-.7-3.6-3.1 0-1.4 1.4-2.3 2.9-2.3 1 0 2 .4 2.5.8l-.9 1.4c-.4-.3-.9-.5-1.4-.5-.6 0-1 .2-1 .6 0 1 3.6.6 3.6 3.2 0 1.4-1.4 2.3-3 2.3-1 0-2.1-.4-3-1l.9-1.5zm11 2.3v-7.5h1.9v.6c.6-.5 1.3-.8 2.1-.8 1 0 2 .5 2.6 1.2.5.6.8 1.3.8 2.6v3.8h-2v-4c0-.7-.2-1.1-.4-1.4-.3-.3-.7-.4-1.1-.4-.8 0-1.5.5-1.8.9v4.8H211zm15.9-1.2c-.7.9-1.9 1.3-3.1 1.3-2.2 0-3.9-1.5-3.9-3.9 0-2.1 1.4-3.9 3.6-3.9 2.1 0 3.5 1.7 3.5 3.8v.6h-5.2c.1 1 1 1.8 2 1.8.8 0 1.5-.5 1.9-.9l1.2 1.2zm-1.9-3.5c-.1-.7-.7-1.3-1.5-1.3s-1.5.6-1.6 1.3h3.1zm6.5-.7l1.5-2.1h2.3l-2.5 3.5 2.9 4h-2.4l-1.8-2.5-1.8 2.5h-2.4l2.9-4-2.5-3.5h2.3l1.5 2.1zm11 5.4c-.3.1-.9.2-1.2.2-1.2 0-2.1-.4-2.6-1.1-.4-.5-.6-1.2-.6-2.2V195H236v-1.7h2.1v-2.1h2v2.1h2.5v1.7h-2.5v2.8c0 .5.1.7.2.9.2.2.5.4 1 .4.3 0 .7 0 .8-.1l.4 1.8zm3.9-2.6c.8 0 1.4.6 1.4 1.4 0 .8-.6 1.3-1.4 1.3s-1.3-.6-1.3-1.3c0-.8.6-1.4 1.3-1.4z" fill="#FBF9F3"/><path fill="#1B3E4C" d="M523.5 124.3v26c0 3.8-.9 6.4-2.9 8.2-1.9 1.8-4.6 2.8-7.5 2.8-2.9 0-5.6-1-7.5-2.8-2-1.8-2.9-4.5-2.9-8.2v-26h-9.5v25.3c0 6.8 2 11.9 6 15.5 3.4 3 8.5 4.8 14 4.8 5.4 0 10.5-1.8 14-4.8 4-3.6 6-8.7 6-15.5v-17.7l4.2-7.6h-13.9z"/><path fill="#1B3E4C" d="M515.7 200.6h-58.1v-58.1c0-32 26.1-58.1 58.1-58.1 32.1 0 58.1 26.1 58.1 58.1.1 32.1-26 58.1-58.1 58.1zm-47.6-10.5h47.6c26.3 0 47.6-21.4 47.6-47.6 0-26.3-21.4-47.6-47.6-47.6-26.2 0-47.6 21.4-47.6 47.6v47.6z"/></svg>