<?xml version="1.0" encoding="utf-8"?>
<!-- Generator: Adobe Illustrator 16.0.0, SVG Export Plug-In . SVG Version: 6.00 Build 0)  -->
<!DOCTYPE svg PUBLIC "-//W3C//DTD SVG 1.1//EN" "http://www.w3.org/Graphics/SVG/1.1/DTD/svg11.dtd">
<svg version="1.1" id="Layer_1" xmlns="http://www.w3.org/2000/svg" xmlns:xlink="http://www.w3.org/1999/xlink" x="0px" y="0px"
	 width="654.6px" height="312.9px" viewBox="0 0 654.6 312.9" enable-background="new 0 0 654.6 312.9" xml:space="preserve">
<g>
	<path fill-rule="evenodd" clip-rule="evenodd" fill="#FFFFFF" d="M0,3.5C0,1.6,1.6,0,3.5,0h647.7c1.9,0,3.5,1.6,3.5,3.5v305.9
		c0,1.9-1.6,3.5-3.5,3.5H3.5c-1.9,0-3.5-1.6-3.5-3.5V3.5z"/>
</g>
<line fill="none" stroke="#BDCCD4" stroke-width="0.8533" stroke-miterlimit="10" x1="26.3" y1="53.4" x2="631.6" y2="53.4"/>
<g>
	<rect x="43.4" y="18.9" fill-rule="evenodd" clip-rule="evenodd" fill="none" width="165.2" height="18.3"/>
	<path fill="#0277BD" d="M55.7,30c0,3.7-2.1,5.7-5.4,5.7c-3.2,0-5.3-1.9-5.3-5.6v-7.5h1.4V30c0,2.8,1.5,4.3,3.9,4.3
		c2.4,0,3.9-1.4,3.9-4.2v-7.5h1.4V30z"/>
	<path fill="#0277BD" d="M62.1,35.7c-1.4,0-2.9-0.5-3.9-1.4l0.7-1c1,0.8,2.2,1.2,3.3,1.2c1.1,0,2-0.6,2-1.5v0c0-1-1.1-1.3-2.4-1.7
		c-1.5-0.4-3.1-0.9-3.1-2.7v0c0-1.6,1.4-2.7,3.2-2.7c1.2,0,2.4,0.4,3.4,1l-0.6,1.1c-0.9-0.6-1.9-0.9-2.8-0.9c-1.1,0-1.8,0.6-1.8,1.4
		v0c0,0.9,1.2,1.2,2.4,1.6c1.5,0.4,3,1,3,2.7v0C65.4,34.6,64,35.7,62.1,35.7z"/>
	<path fill="#0277BD" d="M72.2,34.5c1.3,0,2.2-0.5,3-1.3l0.9,0.8c-1,1.1-2.1,1.8-3.9,1.8c-2.6,0-4.7-2-4.7-4.9
		c0-2.7,1.9-4.9,4.5-4.9c2.8,0,4.4,2.2,4.4,5c0,0.1,0,0.3,0,0.4h-7.5C69.1,33.3,70.6,34.5,72.2,34.5z M75,30.2
		c-0.1-1.7-1.1-3.2-3-3.2c-1.6,0-2.9,1.4-3.1,3.2H75z"/>
	<path fill="#0277BD" d="M80.3,35.5h-1.4V26h1.4v2.5c0.7-1.6,2.1-2.7,3.9-2.6v1.5h-0.1c-2.1,0-3.8,1.5-3.8,4.3V35.5z"/>
	<path fill="#0277BD" d="M96.6,31h-3.1v4.5h-1.4V22.7h4.8c2.9,0,4.8,1.5,4.8,4.1C101.7,29.5,99.4,31,96.6,31z M96.8,24h-3.2v5.6h3.2
		c2.1,0,3.5-1.1,3.5-2.8C100.2,24.9,98.8,24,96.8,24z"/>
	<path fill="#0277BD" d="M108.1,34.5c1.3,0,2.2-0.5,3-1.3l0.9,0.8c-1,1.1-2.1,1.8-3.9,1.8c-2.6,0-4.7-2-4.7-4.9
		c0-2.7,1.9-4.9,4.5-4.9c2.8,0,4.4,2.2,4.4,5c0,0.1,0,0.3,0,0.4h-7.5C105,33.3,106.5,34.5,108.1,34.5z M110.9,30.2
		c-0.1-1.7-1.1-3.2-3-3.2c-1.6,0-2.9,1.4-3.1,3.2H110.9z"/>
	<path fill="#0277BD" d="M116.2,35.5h-1.4V26h1.4v2.5c0.7-1.6,2.1-2.7,3.9-2.6v1.5H120c-2.1,0-3.8,1.5-3.8,4.3V35.5z"/>
	<path fill="#0277BD" d="M127.2,26v1.2h-3v8.2h-1.4v-8.2h-1.3V26h1.3v-0.8c0-2.1,1-3.2,2.9-3.2c0.7,0,1.1,0.1,1.6,0.2v1.2
		c-0.5-0.1-0.9-0.2-1.4-0.2c-1.1,0-1.6,0.7-1.6,2V26H127.2z"/>
	<path fill="#0277BD" d="M133.1,35.7c-2.8,0-4.9-2.2-4.9-4.9c0-2.7,2.1-5,4.9-5c2.8,0,4.9,2.2,4.9,4.9
		C138.1,33.4,136,35.7,133.1,35.7z M133.1,27c-2.1,0-3.5,1.6-3.5,3.7c0,2.1,1.5,3.7,3.5,3.7c2.1,0,3.5-1.6,3.5-3.7
		C136.6,28.7,135.1,27,133.1,27z"/>
	<path fill="#0277BD" d="M142,35.5h-1.4V26h1.4v2.5c0.7-1.6,2.1-2.7,3.9-2.6v1.5h-0.1c-2.1,0-3.8,1.5-3.8,4.3V35.5z"/>
	<path fill="#0277BD" d="M158.9,25.8c2.2,0,3.5,1.5,3.5,3.8v5.9H161v-5.5c0-1.8-0.9-2.9-2.5-2.9c-1.4,0-2.6,1.1-2.6,2.9v5.5h-1.4
		v-5.6c0-1.8-0.9-2.8-2.4-2.8c-1.5,0-2.6,1.2-2.6,3v5.4H148V26h1.4v1.6c0.6-0.9,1.5-1.8,3.1-1.8c1.5,0,2.5,0.8,3,1.9
		C156.2,26.6,157.2,25.8,158.9,25.8z"/>
	<path fill="#0277BD" d="M166,27.8l-0.4-1.2c1-0.5,2.1-0.8,3.4-0.8c2.6,0,4,1.3,4,3.8v5.8h-1.4V34c-0.7,0.9-1.8,1.6-3.4,1.6
		c-1.8,0-3.5-1-3.5-3c0-2,1.6-3.1,4-3.1c1.2,0,2.1,0.2,2.9,0.4v-0.3c0-1.7-1-2.6-2.8-2.6C167.8,27.1,166.9,27.4,166,27.8z
		 M166.2,32.7c0,1.2,1.1,1.9,2.4,1.9c1.7,0,3.2-1.1,3.2-2.6v-0.9c-0.7-0.2-1.6-0.4-2.8-0.4C167.2,30.7,166.2,31.4,166.2,32.7z"/>
	<path fill="#0277BD" d="M177.5,35.5h-1.4V26h1.4v1.6c0.6-1,1.6-1.9,3.2-1.9c2.3,0,3.6,1.5,3.6,3.8v5.9H183v-5.5
		c0-1.8-1-2.9-2.6-2.9c-1.6,0-2.8,1.2-2.8,3V35.5z"/>
	<path fill="#0277BD" d="M191.6,35.7c-2.8,0-4.9-2.3-4.9-4.9c0-2.7,2.1-5,4.9-5c1.8,0,2.9,0.8,3.8,1.7l-0.9,1
		c-0.8-0.8-1.6-1.4-2.9-1.4c-1.9,0-3.4,1.6-3.4,3.7c0,2.1,1.5,3.7,3.5,3.7c1.2,0,2.1-0.6,2.9-1.4l0.9,0.8
		C194.6,34.9,193.4,35.7,191.6,35.7z"/>
	<path fill="#0277BD" d="M201.7,34.5c1.3,0,2.2-0.5,3-1.3l0.9,0.8c-1,1.1-2.1,1.8-3.9,1.8c-2.6,0-4.7-2-4.7-4.9
		c0-2.7,1.9-4.9,4.5-4.9c2.8,0,4.4,2.2,4.4,5c0,0.1,0,0.3,0,0.4h-7.5C198.6,33.3,200.1,34.5,201.7,34.5z M204.5,30.2
		c-0.1-1.7-1.1-3.2-3-3.2c-1.6,0-2.9,1.4-3.1,3.2H204.5z"/>
</g>
<g>
	<g>
		<g>
			<path fill="#8795A2" d="M231.3,33.1h-0.8l-0.8-1.7h-3.5l-0.8,1.7h-0.7l2.9-6.5h0.7L231.3,33.1z M228,27.5l-1.5,3.3h2.9L228,27.5z
				"/>
			<path fill="#8795A2" d="M232.5,33.1v-6.7h0.7v6.7H232.5z"/>
			<path fill="#8795A2" d="M234.9,33.1v-6.7h0.7v6.7H234.9z"/>
			<path fill="#8795A2" d="M241,31.8c0,0.6,0.3,0.8,0.8,0.8c0.2,0,0.4,0,0.7-0.2V33c-0.2,0.1-0.5,0.2-0.9,0.2
				c-0.8,0-1.3-0.4-1.3-1.3V29h-0.7v-0.6h0.7v-1.4h0.7v1.4h1.5V29H241V31.8z"/>
			<path fill="#8795A2" d="M243.8,27.3v-0.8h0.8v0.8H243.8z M243.8,33.1v-4.8h0.7v4.8H243.8z"/>
			<path fill="#8795A2" d="M251.7,28.3c1.1,0,1.8,0.7,1.8,1.9v2.9h-0.7v-2.8c0-0.9-0.5-1.4-1.2-1.4c-0.7,0-1.3,0.5-1.3,1.5v2.7h-0.7
				v-2.8c0-0.9-0.5-1.4-1.2-1.4s-1.3,0.6-1.3,1.5v2.7h-0.7v-4.8h0.7v0.8c0.3-0.5,0.7-0.9,1.5-0.9c0.8,0,1.3,0.4,1.5,0.9
				C250.3,28.7,250.8,28.3,251.7,28.3z"/>
			<path fill="#8795A2" d="M257.1,32.6c0.7,0,1.1-0.3,1.5-0.7l0.4,0.4c-0.5,0.5-1.1,0.9-2,0.9c-1.3,0-2.4-1-2.4-2.5
				c0-1.4,1-2.5,2.3-2.5c1.4,0,2.2,1.1,2.2,2.5c0,0.1,0,0.1,0,0.2h-3.8C255.5,32,256.2,32.6,257.1,32.6z M258.5,30.5
				c-0.1-0.9-0.6-1.6-1.5-1.6c-0.8,0-1.5,0.7-1.5,1.6H258.5z"/>
		</g>
	</g>
	<polyline fill="none" stroke="#8795A2" stroke-width="0.802" points="279.4,28.5 274.4,32.5 269.4,28.5 	"/>
</g>
<g>
	<circle fill-rule="evenodd" clip-rule="evenodd" fill="#90A4AE" cx="29.8" cy="23.7" r="1.8"/>
	<circle fill-rule="evenodd" clip-rule="evenodd" fill="#90A4AE" cx="29.8" cy="29.7" r="1.8"/>
	<circle fill-rule="evenodd" clip-rule="evenodd" fill="#90A4AE" cx="29.8" cy="35.6" r="1.8"/>
</g>
<g>
	
		<line fill-rule="evenodd" clip-rule="evenodd" fill="none" stroke="#ECECFB" stroke-width="0.655" stroke-linecap="round" stroke-linejoin="round" stroke-miterlimit="10" x1="336.1" y1="102.9" x2="336.1" y2="265.1"/>
	
		<line fill-rule="evenodd" clip-rule="evenodd" fill="none" stroke="#ECECFB" stroke-width="0.655" stroke-linecap="round" stroke-linejoin="round" stroke-miterlimit="10" x1="361.3" y1="103.3" x2="361.3" y2="265.4"/>
	
		<line fill-rule="evenodd" clip-rule="evenodd" fill="none" stroke="#ECECFB" stroke-width="0.655" stroke-linecap="round" stroke-linejoin="round" stroke-miterlimit="10" x1="386.5" y1="103.3" x2="386.5" y2="265.4"/>
	
		<line fill-rule="evenodd" clip-rule="evenodd" fill="none" stroke="#ECECFB" stroke-width="0.655" stroke-linecap="round" stroke-linejoin="round" stroke-miterlimit="10" x1="411.7" y1="103.3" x2="411.7" y2="265.4"/>
	
		<line fill-rule="evenodd" clip-rule="evenodd" fill="none" stroke="#ECECFB" stroke-width="0.655" stroke-linecap="round" stroke-linejoin="round" stroke-miterlimit="10" x1="184.8" y1="102.9" x2="184.8" y2="265.1"/>
	
		<line fill-rule="evenodd" clip-rule="evenodd" fill="none" stroke="#ECECFB" stroke-width="0.655" stroke-linecap="round" stroke-linejoin="round" stroke-miterlimit="10" x1="210" y1="103.3" x2="210" y2="265.4"/>
	
		<line fill-rule="evenodd" clip-rule="evenodd" fill="none" stroke="#ECECFB" stroke-width="0.655" stroke-linecap="round" stroke-linejoin="round" stroke-miterlimit="10" x1="235.2" y1="103.3" x2="235.2" y2="265.4"/>
	
		<line fill-rule="evenodd" clip-rule="evenodd" fill="none" stroke="#ECECFB" stroke-width="0.655" stroke-linecap="round" stroke-linejoin="round" stroke-miterlimit="10" x1="260.4" y1="103.3" x2="260.4" y2="265.4"/>
	
		<line fill-rule="evenodd" clip-rule="evenodd" fill="none" stroke="#ECECFB" stroke-width="0.655" stroke-linecap="round" stroke-linejoin="round" stroke-miterlimit="10" x1="285.6" y1="103.3" x2="285.6" y2="265.4"/>
	
		<line fill-rule="evenodd" clip-rule="evenodd" fill="none" stroke="#ECECFB" stroke-width="0.655" stroke-linecap="round" stroke-linejoin="round" stroke-miterlimit="10" x1="310.9" y1="103.3" x2="310.9" y2="265.4"/>
	
		<line fill-rule="evenodd" clip-rule="evenodd" fill="none" stroke="#ECECFB" stroke-width="0.655" stroke-linecap="round" stroke-linejoin="round" stroke-miterlimit="10" x1="32.9" y1="102.6" x2="32.9" y2="264.8"/>
	
		<line fill-rule="evenodd" clip-rule="evenodd" fill="none" stroke="#ECECFB" stroke-width="0.655" stroke-linecap="round" stroke-linejoin="round" stroke-miterlimit="10" x1="58.1" y1="102.9" x2="58.1" y2="265.1"/>
	
		<line fill-rule="evenodd" clip-rule="evenodd" fill="none" stroke="#ECECFB" stroke-width="0.655" stroke-linecap="round" stroke-linejoin="round" stroke-miterlimit="10" x1="83.3" y1="102.9" x2="83.3" y2="265.1"/>
	
		<line fill-rule="evenodd" clip-rule="evenodd" fill="none" stroke="#ECECFB" stroke-width="0.655" stroke-linecap="round" stroke-linejoin="round" stroke-miterlimit="10" x1="108.5" y1="102.9" x2="108.5" y2="265.1"/>
	
		<line fill-rule="evenodd" clip-rule="evenodd" fill="none" stroke="#ECECFB" stroke-width="0.655" stroke-linecap="round" stroke-linejoin="round" stroke-miterlimit="10" x1="133.7" y1="102.9" x2="133.7" y2="265.1"/>
	
		<line fill-rule="evenodd" clip-rule="evenodd" fill="none" stroke="#ECECFB" stroke-width="0.655" stroke-linecap="round" stroke-linejoin="round" stroke-miterlimit="10" x1="159" y1="102.9" x2="159" y2="265.1"/>
	<g>
		<g>
			<path fill="#8795A2" d="M38,230.4h0.7l-2.5,5.8h-0.6l-2.5-5.8h0.7l2,4.9L38,230.4z"/>
			<path fill="#8795A2" d="M41,235.6c0.6,0,1-0.2,1.3-0.6l0.4,0.4c-0.4,0.5-0.9,0.8-1.7,0.8c-1.2,0-2.1-0.9-2.1-2.2
				c0-1.2,0.9-2.2,2-2.2c1.3,0,2,1,2,2.2c0,0.1,0,0.1,0,0.2h-3.4C39.6,235.1,40.3,235.6,41,235.6z M42.3,233.7
				c-0.1-0.8-0.5-1.4-1.3-1.4c-0.7,0-1.3,0.6-1.4,1.4H42.3z"/>
			<path fill="#8795A2" d="M44.6,236.1H44v-4.2h0.6v1.1c0.3-0.7,0.9-1.2,1.7-1.2v0.7h0c-0.9,0-1.7,0.7-1.7,1.9V236.1z"/>
			<path fill="#8795A2" d="M48.7,236.2c-0.6,0-1.3-0.2-1.8-0.6l0.3-0.4c0.5,0.3,1,0.5,1.5,0.5c0.5,0,0.9-0.3,0.9-0.7v0
				c0-0.4-0.5-0.6-1.1-0.7c-0.7-0.2-1.4-0.4-1.4-1.2v0c0-0.7,0.6-1.2,1.4-1.2c0.5,0,1.1,0.2,1.5,0.5l-0.3,0.5
				c-0.4-0.3-0.8-0.4-1.3-0.4c-0.5,0-0.8,0.3-0.8,0.6v0c0,0.4,0.5,0.6,1.1,0.7c0.7,0.2,1.4,0.5,1.4,1.2v0
				C50.2,235.7,49.6,236.2,48.7,236.2z"/>
			<path fill="#8795A2" d="M51.4,230.9v-0.7h0.7v0.7H51.4z M51.4,236.1v-4.2h0.6v4.2H51.4z"/>
			<path fill="#8795A2" d="M55.5,236.2c-1.3,0-2.2-1-2.2-2.2c0-1.2,0.9-2.2,2.2-2.2c1.3,0,2.2,1,2.2,2.2
				C57.7,235.2,56.7,236.2,55.5,236.2z M55.5,232.3c-0.9,0-1.5,0.7-1.5,1.6s0.7,1.7,1.6,1.7c0.9,0,1.6-0.7,1.6-1.6
				C57,233,56.4,232.3,55.5,232.3z"/>
			<path fill="#8795A2" d="M59.4,236.1h-0.6v-4.2h0.6v0.7c0.3-0.5,0.7-0.8,1.4-0.8c1,0,1.6,0.7,1.6,1.7v2.6h-0.6v-2.5
				c0-0.8-0.4-1.3-1.2-1.3c-0.7,0-1.3,0.5-1.3,1.3V236.1z"/>
			<path fill="#8795A2" d="M67.2,230.3h0.5v5.8h-0.6V231l-1.1,0.3l-0.2-0.5L67.2,230.3z"/>
		</g>
	</g>
	<g>
		<g>
			<path fill="#8795A2" d="M118.1,230.4h0.7l-2.5,5.8h-0.6l-2.5-5.8h0.7l2,4.9L118.1,230.4z"/>
			<path fill="#8795A2" d="M121.1,235.6c0.6,0,1-0.2,1.3-0.6l0.4,0.4c-0.4,0.5-0.9,0.8-1.7,0.8c-1.2,0-2.1-0.9-2.1-2.2
				c0-1.2,0.9-2.2,2-2.2c1.3,0,2,1,2,2.2c0,0.1,0,0.1,0,0.2h-3.4C119.7,235.1,120.3,235.6,121.1,235.6z M122.3,233.7
				c-0.1-0.8-0.5-1.4-1.3-1.4c-0.7,0-1.3,0.6-1.4,1.4H122.3z"/>
			<path fill="#8795A2" d="M124.7,236.1H124v-4.2h0.6v1.1c0.3-0.7,0.9-1.2,1.7-1.2v0.7h0c-0.9,0-1.7,0.7-1.7,1.9V236.1z"/>
			<path fill="#8795A2" d="M128.8,236.2c-0.6,0-1.3-0.2-1.8-0.6l0.3-0.4c0.5,0.3,1,0.5,1.5,0.5c0.5,0,0.9-0.3,0.9-0.7v0
				c0-0.4-0.5-0.6-1.1-0.7c-0.7-0.2-1.4-0.4-1.4-1.2v0c0-0.7,0.6-1.2,1.4-1.2c0.5,0,1.1,0.2,1.5,0.5l-0.3,0.5
				c-0.4-0.3-0.8-0.4-1.3-0.4c-0.5,0-0.8,0.3-0.8,0.6v0c0,0.4,0.5,0.6,1.1,0.7c0.7,0.2,1.4,0.5,1.4,1.2v0
				C130.3,235.7,129.6,236.2,128.8,236.2z"/>
			<path fill="#8795A2" d="M131.4,230.9v-0.7h0.7v0.7H131.4z M131.5,236.1v-4.2h0.6v4.2H131.5z"/>
			<path fill="#8795A2" d="M135.5,236.2c-1.3,0-2.2-1-2.2-2.2c0-1.2,0.9-2.2,2.2-2.2c1.3,0,2.2,1,2.2,2.2
				C137.7,235.2,136.8,236.2,135.5,236.2z M135.5,232.3c-0.9,0-1.5,0.7-1.5,1.6s0.7,1.7,1.6,1.7c0.9,0,1.6-0.7,1.6-1.6
				C137.1,233,136.4,232.3,135.5,232.3z"/>
			<path fill="#8795A2" d="M139.5,236.1h-0.6v-4.2h0.6v0.7c0.3-0.5,0.7-0.8,1.4-0.8c1,0,1.6,0.7,1.6,1.7v2.6h-0.6v-2.5
				c0-0.8-0.4-1.3-1.2-1.3c-0.7,0-1.3,0.5-1.3,1.3V236.1z"/>
			<path fill="#8795A2" d="M146.6,231.8l-0.5-0.3c0.5-0.8,1.1-1.2,2.1-1.2c1,0,1.8,0.7,1.8,1.6c0,0.8-0.4,1.4-1.4,2.2l-1.5,1.4h3
				v0.6h-4v-0.5l2.1-1.8c0.9-0.8,1.2-1.2,1.2-1.8c0-0.7-0.5-1.1-1.2-1.1C147.5,230.8,147.1,231.2,146.6,231.8z"/>
		</g>
	</g>
	<g>
		<g>
			<path fill="#8795A2" d="M27.8,85.2c-0.7,0-1.1-0.3-1.4-0.7l0.5-0.5c0.3,0.3,0.5,0.5,0.9,0.5c0.4,0,0.7-0.3,0.7-0.8v-2.8h0.8v2.8
				C29.2,84.6,28.6,85.2,27.8,85.2z"/>
			<path fill="#8795A2" d="M34.8,85.1H34l-0.4-1h-2l-0.4,1h-0.8l1.9-4.3h0.7L34.8,85.1z M32.6,81.7l-0.7,1.7h1.5L32.6,81.7z"/>
			<path fill="#8795A2" d="M39.2,80.8h0.7v4.3h-0.6L36.9,82v3.1h-0.7v-4.3h0.7l2.3,3V80.8z"/>
			<path fill="#8795A2" d="M44.8,80.8h0.5v4.3h-0.7v-3.6l-0.8,0.2l-0.2-0.6L44.8,80.8z"/>
			<path fill="#8795A2" d="M49.8,80.8v2.7h0.6v0.6h-0.6v1h-0.7v-1h-2.2l-0.1-0.5l2.4-2.8H49.8z M49.1,81.8l-1.4,1.7h1.4V81.8z"/>
		</g>
	</g>
	<g>
		<g>
			<path fill="#8795A2" d="M378.2,85.2c-0.7,0-1.1-0.3-1.4-0.7l0.5-0.5c0.3,0.3,0.5,0.5,0.9,0.5c0.4,0,0.7-0.3,0.7-0.8v-2.8h0.8v2.8
				C379.7,84.6,379.1,85.2,378.2,85.2z"/>
			<path fill="#8795A2" d="M385.3,85.1h-0.8l-0.4-1h-2l-0.4,1h-0.8l1.9-4.3h0.7L385.3,85.1z M383,81.7l-0.7,1.7h1.5L383,81.7z"/>
			<path fill="#8795A2" d="M389.6,80.8h0.7v4.3h-0.6l-2.4-3.1v3.1h-0.7v-4.3h0.7l2.3,3V80.8z"/>
			<path fill="#8795A2" d="M395.3,80.8h0.5v4.3h-0.7v-3.6l-0.8,0.2l-0.2-0.6L395.3,80.8z"/>
			<path fill="#8795A2" d="M397.7,80.8h2.6v0.7h-1.9l-0.1,1c0.2-0.1,0.4-0.1,0.7-0.1c0.8,0,1.5,0.4,1.5,1.4c0,0.9-0.6,1.5-1.6,1.5
				c-0.7,0-1.2-0.3-1.6-0.7l0.5-0.5c0.3,0.3,0.7,0.5,1.1,0.5c0.5,0,0.9-0.3,0.9-0.7c0-0.4-0.4-0.7-0.9-0.7c-0.3,0-0.6,0.1-0.8,0.2
				l-0.5-0.3L397.7,80.8z"/>
		</g>
	</g>
	<g>
		<g>
			<path fill="#8795A2" d="M81.3,84L81.3,84l-1.4-2v3.1h-0.7v-4.3H80l1.3,2l1.3-2h0.8v4.3h-0.8V82L81.3,84z"/>
			<path fill="#8795A2" d="M89.2,85.1h-0.8l-0.4-1h-2l-0.4,1h-0.8l1.9-4.3h0.7L89.2,85.1z M86.9,81.7l-0.7,1.7h1.5L86.9,81.7z"/>
			<path fill="#8795A2" d="M93.3,85.1l-1.1-1.5h-0.9v1.5h-0.8v-4.3h1.9c1,0,1.6,0.5,1.6,1.4c0,0.7-0.4,1.1-1,1.3l1.2,1.6H93.3z
				 M92.4,81.5h-1.1v1.4h1.1c0.5,0,0.9-0.3,0.9-0.7C93.3,81.7,92.9,81.5,92.4,81.5z"/>
		</g>
	</g>
	<g>
		<g>
			<path fill="#8795A2" d="M180.2,84L180.2,84l-1.4-2v3.1h-0.7v-4.3h0.8l1.3,2l1.3-2h0.8v4.3h-0.8V82L180.2,84z"/>
			<path fill="#8795A2" d="M188.1,85.1h-0.8l-0.4-1h-2l-0.4,1h-0.8l1.9-4.3h0.7L188.1,85.1z M185.9,81.7l-0.7,1.7h1.5L185.9,81.7z"
				/>
			<path fill="#8795A2" d="M190.8,85.1h-0.8v-1.7l-1.7-2.6h0.9l1.2,1.9l1.2-1.9h0.9l-1.7,2.6V85.1z"/>
		</g>
	</g>
	<g>
		<g>
			<path fill="#8795A2" d="M234.5,85.2c-0.7,0-1.1-0.3-1.4-0.7l0.5-0.5c0.3,0.3,0.5,0.5,0.9,0.5c0.4,0,0.7-0.3,0.7-0.8v-2.8h0.8v2.8
				C235.9,84.6,235.3,85.2,234.5,85.2z"/>
			<path fill="#8795A2" d="M241.2,83.2c0,1.3-0.7,1.9-1.8,1.9c-1.1,0-1.8-0.6-1.8-1.9v-2.5h0.8v2.4c0,0.8,0.4,1.2,1.1,1.2
				c0.7,0,1.1-0.4,1.1-1.2v-2.5h0.8V83.2z"/>
			<path fill="#8795A2" d="M242.8,80.8h0.8v3.6h2.3v0.7h-3V80.8z"/>
		</g>
	</g>
	<g>
		<g>
			<path fill="#8795A2" d="M285.1,82.5c0.9,0.2,1.4,0.5,1.4,1.3c0,0.8-0.6,1.3-1.5,1.3c-0.7,0-1.3-0.2-1.8-0.7l0.5-0.5
				c0.4,0.4,0.8,0.6,1.4,0.6c0.5,0,0.8-0.2,0.8-0.5c0-0.3-0.2-0.5-1-0.7c-0.9-0.2-1.4-0.5-1.4-1.3c0-0.7,0.6-1.3,1.5-1.3
				c0.6,0,1.1,0.2,1.6,0.5l-0.4,0.6c-0.4-0.3-0.8-0.4-1.2-0.4c-0.4,0-0.7,0.2-0.7,0.5C284.1,82.1,284.3,82.3,285.1,82.5z"/>
			<path fill="#8795A2" d="M291.1,81.3h-2.4v1.1h2.2v0.7h-2.2v1.2h2.5v0.7H288v-4.3h3.2V81.3z"/>
			<path fill="#8795A2" d="M294.3,83.6h-0.9v1.4h-0.8v-4.3h1.7c1,0,1.6,0.6,1.6,1.4C296,83.1,295.2,83.6,294.3,83.6z M294.3,81.3
				h-0.9v1.5h0.9c0.6,0,0.9-0.3,0.9-0.8C295.2,81.6,294.9,81.3,294.3,81.3z"/>
		</g>
	</g>
	<g>
		<g>
			<path fill="#8795A2" d="M334.3,80.4h0.7v4.3h-0.6l-2.4-3.1v3.1h-0.7v-4.3h0.7l2.3,3V80.4z"/>
			<path fill="#8795A2" d="M338.8,84.8c-1.3,0-2.2-1-2.2-2.2s0.9-2.2,2.3-2.2c1.3,0,2.2,1,2.2,2.2C341,83.8,340.1,84.8,338.8,84.8z
				 M338.8,81c-0.9,0-1.4,0.7-1.4,1.5c0,0.8,0.6,1.5,1.5,1.5s1.4-0.7,1.4-1.5C340.2,81.7,339.6,81,338.8,81z"/>
			<path fill="#8795A2" d="M345.3,80.4h0.8l-1.8,4.3h-0.7l-1.8-4.3h0.8l1.3,3.3L345.3,80.4z"/>
		</g>
	</g>
	<g>
		<g>
			<path fill="#8795A2" d="M136.1,85.1h-0.8l-0.4-1h-2l-0.4,1h-0.8l1.9-4.3h0.7L136.1,85.1z M133.8,81.7l-0.7,1.7h1.5L133.8,81.7z"
				/>
			<path fill="#8795A2" d="M139.1,83.7h-0.9v1.4h-0.8v-4.3h1.7c1,0,1.6,0.6,1.6,1.4C140.8,83.2,140,83.7,139.1,83.7z M139.1,81.5
				h-0.9V83h0.9c0.6,0,0.9-0.3,0.9-0.8C140,81.7,139.6,81.5,139.1,81.5z"/>
			<path fill="#8795A2" d="M144.9,85.1l-1.1-1.5h-0.9v1.5h-0.8v-4.3h1.9c1,0,1.6,0.5,1.6,1.4c0,0.7-0.4,1.1-1,1.3l1.2,1.6H144.9z
				 M144,81.5h-1.1v1.4h1.1c0.5,0,0.9-0.3,0.9-0.7C144.9,81.7,144.6,81.5,144,81.5z"/>
		</g>
	</g>
	
		<line fill-rule="evenodd" clip-rule="evenodd" fill="none" stroke="#ECECFB" stroke-width="0.655" stroke-linecap="round" stroke-linejoin="round" stroke-miterlimit="10" x1="539" y1="102.9" x2="539" y2="265.1"/>
	
		<line fill-rule="evenodd" clip-rule="evenodd" fill="none" stroke="#ECECFB" stroke-width="0.655" stroke-linecap="round" stroke-linejoin="round" stroke-miterlimit="10" x1="564.2" y1="103.3" x2="564.2" y2="265.4"/>
	
		<line fill-rule="evenodd" clip-rule="evenodd" fill="none" stroke="#ECECFB" stroke-width="0.655" stroke-linecap="round" stroke-linejoin="round" stroke-miterlimit="10" x1="589.4" y1="103.3" x2="589.4" y2="265.4"/>
	
		<line fill-rule="evenodd" clip-rule="evenodd" fill="none" stroke="#ECECFB" stroke-width="0.655" stroke-linecap="round" stroke-linejoin="round" stroke-miterlimit="10" x1="437.5" y1="102.9" x2="437.5" y2="265.1"/>
	
		<line fill-rule="evenodd" clip-rule="evenodd" fill="none" stroke="#ECECFB" stroke-width="0.655" stroke-linecap="round" stroke-linejoin="round" stroke-miterlimit="10" x1="462.7" y1="102.9" x2="462.7" y2="265.1"/>
	
		<line fill-rule="evenodd" clip-rule="evenodd" fill="none" stroke="#ECECFB" stroke-width="0.655" stroke-linecap="round" stroke-linejoin="round" stroke-miterlimit="10" x1="488" y1="102.9" x2="488" y2="265.1"/>
	
		<line fill-rule="evenodd" clip-rule="evenodd" fill="none" stroke="#ECECFB" stroke-width="0.655" stroke-linecap="round" stroke-linejoin="round" stroke-miterlimit="10" x1="513.2" y1="102.9" x2="513.2" y2="265.1"/>
	<g>
		<g>
			<path fill="#8795A2" d="M435.5,84L435.5,84l-1.4-2v3.1h-0.7v-4.3h0.8l1.3,2l1.3-2h0.8v4.3h-0.8V82L435.5,84z"/>
			<path fill="#8795A2" d="M443.4,85.1h-0.8l-0.4-1h-2l-0.4,1h-0.8l1.9-4.3h0.7L443.4,85.1z M441.2,81.7l-0.7,1.7h1.5L441.2,81.7z"
				/>
			<path fill="#8795A2" d="M447.5,85.1l-1.1-1.5h-0.9v1.5h-0.8v-4.3h1.9c1,0,1.6,0.5,1.6,1.4c0,0.7-0.4,1.1-1,1.3l1.2,1.6H447.5z
				 M446.6,81.5h-1.1v1.4h1.1c0.5,0,0.9-0.3,0.9-0.7C447.5,81.7,447.2,81.5,446.6,81.5z"/>
		</g>
	</g>
	<g>
		<g>
			<path fill="#8795A2" d="M534.4,84L534.4,84l-1.4-2v3.1h-0.7v-4.3h0.8l1.3,2l1.3-2h0.8v4.3h-0.8V82L534.4,84z"/>
			<path fill="#8795A2" d="M542.4,85.1h-0.8l-0.4-1h-2l-0.4,1h-0.8l1.9-4.3h0.7L542.4,85.1z M540.1,81.7l-0.7,1.7h1.5L540.1,81.7z"
				/>
			<path fill="#8795A2" d="M545.1,85.1h-0.8v-1.7l-1.7-2.6h0.9l1.2,1.9l1.2-1.9h0.9l-1.7,2.6V85.1z"/>
		</g>
	</g>
	<g>
		<g>
			<path fill="#8795A2" d="M586.6,85c-0.7,0-1.1-0.3-1.4-0.7l0.5-0.5c0.3,0.3,0.5,0.5,0.9,0.5c0.4,0,0.7-0.3,0.7-0.8v-2.8h0.8v2.8
				C588.1,84.5,587.5,85,586.6,85z"/>
			<path fill="#8795A2" d="M593.3,83.1c0,1.3-0.7,1.9-1.8,1.9c-1.1,0-1.8-0.6-1.8-1.9v-2.5h0.8v2.4c0,0.8,0.4,1.2,1.1,1.2
				c0.7,0,1.1-0.4,1.1-1.2v-2.5h0.8V83.1z"/>
			<path fill="#8795A2" d="M595,80.6h0.8v3.6h2.3v0.7h-3V80.6z"/>
		</g>
	</g>
	<g>
		<g>
			<path fill="#8795A2" d="M490,84.7h-0.8l-0.4-1h-2l-0.4,1h-0.8l1.9-4.3h0.7L490,84.7z M487.8,81.3L487,83h1.5L487.8,81.3z"/>
			<path fill="#8795A2" d="M493,83.4h-0.9v1.4h-0.8v-4.3h1.7c1,0,1.6,0.6,1.6,1.4C494.7,82.9,493.9,83.4,493,83.4z M493,81.1h-0.9
				v1.5h0.9c0.6,0,0.9-0.3,0.9-0.8C493.9,81.4,493.6,81.1,493,81.1z"/>
			<path fill="#8795A2" d="M498.8,84.7l-1.1-1.5h-0.9v1.5h-0.8v-4.3h1.9c1,0,1.6,0.5,1.6,1.4c0,0.7-0.4,1.1-1,1.3l1.2,1.6H498.8z
				 M497.9,81.1h-1.1v1.4h1.1c0.5,0,0.9-0.3,0.9-0.7C498.8,81.4,498.5,81.1,497.9,81.1z"/>
		</g>
	</g>
	
		<line fill-rule="evenodd" clip-rule="evenodd" fill="none" stroke="#0277BD" stroke-width="2.7243" stroke-linecap="round" stroke-linejoin="round" stroke-miterlimit="10" x1="112.9" y1="244.7" x2="269.9" y2="244.7"/>
	<g>
		<g>
			<path fill="#8795A2" d="M281,230.4h0.7l-2.5,5.8h-0.6l-2.5-5.8h0.7l2,4.9L281,230.4z"/>
			<path fill="#8795A2" d="M284,235.6c0.6,0,1-0.2,1.3-0.6l0.4,0.4c-0.4,0.5-0.9,0.8-1.7,0.8c-1.2,0-2.1-0.9-2.1-2.2
				c0-1.2,0.9-2.2,2-2.2c1.3,0,2,1,2,2.2c0,0.1,0,0.1,0,0.2h-3.4C282.6,235.1,283.3,235.6,284,235.6z M285.2,233.7
				c-0.1-0.8-0.5-1.4-1.3-1.4c-0.7,0-1.3,0.6-1.4,1.4H285.2z"/>
			<path fill="#8795A2" d="M287.6,236.1H287v-4.2h0.6v1.1c0.3-0.7,0.9-1.2,1.7-1.2v0.7h0c-0.9,0-1.7,0.7-1.7,1.9V236.1z"/>
			<path fill="#8795A2" d="M291.7,236.2c-0.6,0-1.3-0.2-1.8-0.6l0.3-0.4c0.5,0.3,1,0.5,1.5,0.5c0.5,0,0.9-0.3,0.9-0.7v0
				c0-0.4-0.5-0.6-1.1-0.7c-0.7-0.2-1.4-0.4-1.4-1.2v0c0-0.7,0.6-1.2,1.4-1.2c0.5,0,1.1,0.2,1.5,0.5l-0.3,0.5
				c-0.4-0.3-0.8-0.4-1.3-0.4c-0.5,0-0.8,0.3-0.8,0.6v0c0,0.4,0.5,0.6,1.1,0.7c0.7,0.2,1.4,0.5,1.4,1.2v0
				C293.2,235.7,292.5,236.2,291.7,236.2z"/>
			<path fill="#8795A2" d="M294.4,230.9v-0.7h0.7v0.7H294.4z M294.4,236.1v-4.2h0.6v4.2H294.4z"/>
			<path fill="#8795A2" d="M298.4,236.2c-1.3,0-2.2-1-2.2-2.2c0-1.2,0.9-2.2,2.2-2.2c1.3,0,2.2,1,2.2,2.2
				C300.6,235.2,299.7,236.2,298.4,236.2z M298.4,232.3c-0.9,0-1.5,0.7-1.5,1.6s0.7,1.7,1.6,1.7c0.9,0,1.6-0.7,1.6-1.6
				C300,233,299.3,232.3,298.4,232.3z"/>
			<path fill="#8795A2" d="M302.4,236.1h-0.6v-4.2h0.6v0.7c0.3-0.5,0.7-0.8,1.4-0.8c1,0,1.6,0.7,1.6,1.7v2.6h-0.6v-2.5
				c0-0.8-0.4-1.3-1.2-1.3c-0.7,0-1.3,0.5-1.3,1.3V236.1z"/>
			<path fill="#8795A2" d="M309.3,230.9v-0.6h3.7v0.5l-1.8,2c1,0.1,1.9,0.6,1.9,1.6c0,1-0.9,1.7-1.9,1.7c-1,0-1.7-0.4-2.1-1l0.5-0.4
				c0.4,0.5,1,0.9,1.7,0.9c0.7,0,1.3-0.4,1.3-1.1c0-0.7-0.7-1.1-1.6-1.1h-0.4l-0.1-0.4l1.8-2H309.3z"/>
		</g>
	</g>
	
		<line fill-rule="evenodd" clip-rule="evenodd" fill="none" stroke="#0277BD" stroke-width="2.7243" stroke-linecap="round" stroke-linejoin="round" stroke-miterlimit="10" x1="276.3" y1="244.7" x2="433.3" y2="244.7"/>
	<g>
		<g>
			<path fill="#8795A2" d="M442.3,230.4h0.7l-2.5,5.8H440l-2.5-5.8h0.7l2,4.9L442.3,230.4z"/>
			<path fill="#8795A2" d="M445.3,235.6c0.6,0,1-0.2,1.3-0.6l0.4,0.4c-0.4,0.5-0.9,0.8-1.7,0.8c-1.2,0-2.1-0.9-2.1-2.2
				c0-1.2,0.9-2.2,2-2.2c1.3,0,2,1,2,2.2c0,0.1,0,0.1,0,0.2h-3.4C444,235.1,444.6,235.6,445.3,235.6z M446.6,233.7
				c-0.1-0.8-0.5-1.4-1.3-1.4c-0.7,0-1.3,0.6-1.4,1.4H446.6z"/>
			<path fill="#8795A2" d="M449,236.1h-0.6v-4.2h0.6v1.1c0.3-0.7,0.9-1.2,1.7-1.2v0.7h0c-0.9,0-1.7,0.7-1.7,1.9V236.1z"/>
			<path fill="#8795A2" d="M453,236.2c-0.6,0-1.3-0.2-1.8-0.6l0.3-0.4c0.5,0.3,1,0.5,1.5,0.5c0.5,0,0.9-0.3,0.9-0.7v0
				c0-0.4-0.5-0.6-1.1-0.7c-0.7-0.2-1.4-0.4-1.4-1.2v0c0-0.7,0.6-1.2,1.4-1.2c0.5,0,1.1,0.2,1.5,0.5l-0.3,0.5
				c-0.4-0.3-0.8-0.4-1.3-0.4c-0.5,0-0.8,0.3-0.8,0.6v0c0,0.4,0.5,0.6,1.1,0.7c0.7,0.2,1.4,0.5,1.4,1.2v0
				C454.5,235.7,453.9,236.2,453,236.2z"/>
			<path fill="#8795A2" d="M455.7,230.9v-0.7h0.7v0.7H455.7z M455.8,236.1v-4.2h0.6v4.2H455.8z"/>
			<path fill="#8795A2" d="M459.8,236.2c-1.3,0-2.2-1-2.2-2.2c0-1.2,0.9-2.2,2.2-2.2c1.3,0,2.2,1,2.2,2.2
				C462,235.2,461.1,236.2,459.8,236.2z M459.8,232.3c-0.9,0-1.5,0.7-1.5,1.6s0.7,1.7,1.6,1.7c0.9,0,1.6-0.7,1.6-1.6
				C461.4,233,460.7,232.3,459.8,232.3z"/>
			<path fill="#8795A2" d="M463.8,236.1h-0.6v-4.2h0.6v0.7c0.3-0.5,0.7-0.8,1.4-0.8c1,0,1.6,0.7,1.6,1.7v2.6h-0.6v-2.5
				c0-0.8-0.4-1.3-1.2-1.3c-0.7,0-1.3,0.5-1.3,1.3V236.1z"/>
			<path fill="#8795A2" d="M474.1,230.3v3.9h0.9v0.5h-0.9v1.4h-0.6v-1.4h-3l-0.2-0.5l3.2-3.9H474.1z M473.4,231.2l-2.4,3h2.4V231.2z
				"/>
		</g>
	</g>
	
		<line fill-rule="evenodd" clip-rule="evenodd" fill="none" stroke="#0277BD" stroke-width="2.7243" stroke-linecap="round" stroke-linejoin="round" stroke-miterlimit="10" x1="440.7" y1="244.7" x2="591.3" y2="244.7"/>
	
		<line fill-rule="evenodd" clip-rule="evenodd" fill="none" stroke="#0277BD" stroke-width="2.7243" stroke-linecap="round" stroke-linejoin="round" stroke-miterlimit="10" x1="34.5" y1="244.7" x2="105.7" y2="244.7"/>
	
		<polyline fill-rule="evenodd" clip-rule="evenodd" fill="none" stroke="#8BC34A" stroke-width="2.0432" stroke-linecap="round" stroke-linejoin="round" stroke-miterlimit="10" points="
		32,162.2 94.6,143.8 113.4,147.5 144.7,132.8 158.5,143.8 169.7,136.5 182.3,140.1 263.7,136.5 332.6,147.5 407.7,147.5 
		489.1,136.5 564.3,121.8 589.3,114.5 	"/>
	
		<polyline fill-rule="evenodd" clip-rule="evenodd" fill="none" stroke="#F44336" stroke-width="2.0432" stroke-linecap="round" stroke-linejoin="round" stroke-miterlimit="10" points="
		32,192.5 94.6,182.9 113.4,191.6 144.7,179.5 158.5,188.6 169.7,193.8 182.3,191.2 263.7,182.5 332.6,174.7 407.7,180.3 
		489.1,188.1 564.3,198.5 589.3,203.7 	"/>
	<g>
		<path fill="#8795A2" d="M605.3,112.5h-1.4v2h-0.6v-5.7h2.1c1.3,0,2.1,0.7,2.1,1.8C607.6,111.8,606.5,112.5,605.3,112.5z
			 M605.4,109.3h-1.4v2.5h1.4c0.9,0,1.6-0.5,1.6-1.3C606.9,109.8,606.3,109.3,605.4,109.3z"/>
		<path fill="#8795A2" d="M608.8,111.1l-0.2-0.5c0.5-0.2,0.9-0.4,1.5-0.4c1.2,0,1.8,0.6,1.8,1.7v2.6h-0.6v-0.6
			c-0.3,0.4-0.8,0.7-1.5,0.7c-0.8,0-1.6-0.4-1.6-1.3c0-0.9,0.7-1.4,1.8-1.4c0.5,0,0.9,0.1,1.3,0.2v-0.1c0-0.8-0.5-1.2-1.3-1.2
			C609.6,110.7,609.2,110.9,608.8,111.1z M608.9,113.2c0,0.5,0.5,0.9,1.1,0.9c0.8,0,1.4-0.5,1.4-1.1v-0.4c-0.3-0.1-0.7-0.2-1.2-0.2
			C609.3,112.3,608.9,112.7,608.9,113.2z"/>
		<path fill="#8795A2" d="M614.7,114.6c-0.6,0-1.3-0.2-1.8-0.6l0.3-0.4c0.5,0.3,1,0.5,1.5,0.5c0.5,0,0.9-0.3,0.9-0.7v0
			c0-0.4-0.5-0.6-1.1-0.7c-0.7-0.2-1.4-0.4-1.4-1.2v0c0-0.7,0.6-1.2,1.4-1.2c0.5,0,1.1,0.2,1.5,0.5l-0.3,0.5
			c-0.4-0.3-0.8-0.4-1.3-0.4c-0.5,0-0.8,0.3-0.8,0.6v0c0,0.4,0.5,0.6,1.1,0.7c0.7,0.2,1.4,0.5,1.4,1.2v0
			C616.2,114.1,615.5,114.6,614.7,114.6z"/>
		<path fill="#8795A2" d="M618.7,114.6c-0.6,0-1.3-0.2-1.8-0.6l0.3-0.4c0.5,0.3,1,0.5,1.5,0.5c0.5,0,0.9-0.3,0.9-0.7v0
			c0-0.4-0.5-0.6-1.1-0.7c-0.7-0.2-1.4-0.4-1.4-1.2v0c0-0.7,0.6-1.2,1.4-1.2c0.5,0,1.1,0.2,1.5,0.5l-0.3,0.5
			c-0.4-0.3-0.8-0.4-1.3-0.4c-0.5,0-0.8,0.3-0.8,0.6v0c0,0.4,0.5,0.6,1.1,0.7c0.7,0.2,1.4,0.5,1.4,1.2v0
			C620.2,114.1,619.5,114.6,618.7,114.6z"/>
		<path fill="#8795A2" d="M623.2,114c0.6,0,1-0.2,1.3-0.6l0.4,0.4c-0.4,0.5-0.9,0.8-1.7,0.8c-1.2,0-2.1-0.9-2.1-2.2
			c0-1.2,0.9-2.2,2-2.2c1.3,0,2,1,2,2.2c0,0.1,0,0.1,0,0.2h-3.4C621.8,113.5,622.5,114,623.2,114z M624.5,112.1
			c-0.1-0.8-0.5-1.4-1.3-1.4c-0.7,0-1.3,0.6-1.4,1.4H624.5z"/>
		<path fill="#8795A2" d="M629.6,114.5v-0.9c-0.3,0.5-0.8,0.9-1.6,0.9c-1,0-2-0.8-2-2.2c0-1.4,1-2.2,2-2.2c0.8,0,1.3,0.4,1.6,0.9
			v-2.6h0.6v6H629.6z M628.1,110.7c-0.8,0-1.5,0.6-1.5,1.6c0,1,0.7,1.6,1.5,1.6c0.8,0,1.5-0.7,1.5-1.6
			C629.6,111.4,628.9,110.7,628.1,110.7z"/>
	</g>
	<g>
		<path fill="#8795A2" d="M608.9,206.3l-0.4,0.5l-0.8-0.7c-0.5,0.4-1.1,0.6-1.8,0.6c-1.7,0-2.9-1.4-2.9-3s1.2-3,2.9-3s2.9,1.4,2.9,3
			c0,0.7-0.2,1.4-0.7,1.9L608.9,206.3z M606.2,204.7l0.4-0.5l1.1,1c0.3-0.4,0.5-0.9,0.5-1.5c0-1.3-0.9-2.4-2.3-2.4s-2.2,1-2.2,2.4
			s0.9,2.4,2.3,2.4c0.5,0,1-0.2,1.3-0.4L606.2,204.7z"/>
		<path fill="#8795A2" d="M613.1,202.3h0.6v4.2h-0.6v-0.7c-0.3,0.5-0.7,0.8-1.4,0.8c-1,0-1.6-0.7-1.6-1.7v-2.6h0.6v2.5
			c0,0.8,0.4,1.3,1.2,1.3c0.7,0,1.3-0.5,1.3-1.3V202.3z"/>
		<path fill="#8795A2" d="M615.2,201.4v-0.7h0.7v0.7H615.2z M615.2,206.6v-4.2h0.6v4.2H615.2z"/>
		<path fill="#8795A2" d="M618.2,205.4c0,0.5,0.3,0.7,0.7,0.7c0.2,0,0.4,0,0.6-0.1v0.5c-0.2,0.1-0.5,0.2-0.8,0.2
			c-0.7,0-1.2-0.3-1.2-1.2v-2.6h-0.6v-0.6h0.6v-1.3h0.6v1.3h1.3v0.6h-1.3V205.4z"/>
	</g>
	
		<line opacity="0.5" fill="none" stroke="#BDCCD4" stroke-width="1.3621" stroke-miterlimit="10" x1="33.4" y1="204.1" x2="591.3" y2="204.1"/>
</g>
<g>
</g>
<g>
</g>
<g>
</g>
<g>
</g>
<g>
</g>
<g>
</g>
<g>
</g>
<g>
</g>
<g>
</g>
<g>
</g>
<g>
</g>
<g>
</g>
<g>
</g>
<g>
</g>
<g>
</g>
</svg>
