<?xml version="1.0" encoding="utf-8"?>
<!-- Generator: Adobe Illustrator 16.0.0, SVG Export Plug-In . SVG Version: 6.00 Build 0)  -->
<!DOCTYPE svg PUBLIC "-//W3C//DTD SVG 1.1//EN" "http://www.w3.org/Graphics/SVG/1.1/DTD/svg11.dtd">
<svg version="1.1" id="Layer_1" xmlns="http://www.w3.org/2000/svg" xmlns:xlink="http://www.w3.org/1999/xlink" x="0px" y="0px"
	 width="654.6px" height="315.4px" viewBox="0 0 654.6 315.4" enable-background="new 0 0 654.6 315.4" xml:space="preserve">
<g>
	<path fill-rule="evenodd" clip-rule="evenodd" fill="#FFFFFF" d="M0,3.5C0,1.6,1.6,0,3.5,0h647.7c1.9,0,3.5,1.6,3.5,3.5v305.9
		c0,1.9-1.6,3.5-3.5,3.5H3.5c-1.9,0-3.5-1.6-3.5-3.5V3.5z"/>
</g>
<line fill="none" stroke="#BDCCD4" stroke-width="0.8533" stroke-miterlimit="10" x1="26.3" y1="53.4" x2="631.6" y2="53.4"/>
<g>
	<rect x="43.4" y="19" fill-rule="evenodd" clip-rule="evenodd" fill="none" width="259.7" height="19.4"/>
	<path fill="#0277BD" d="M49.8,31.1h-3.1v4.5h-1.4V22.8h4.8c2.9,0,4.8,1.5,4.8,4.1C54.9,29.7,52.6,31.1,49.8,31.1z M50,24.2h-3.2
		v5.6h3.2c2.1,0,3.5-1.1,3.5-2.8C53.4,25.1,52,24.2,50,24.2z"/>
	<path fill="#0277BD" d="M57.6,28l-0.4-1.2c1-0.5,2.1-0.8,3.4-0.8c2.6,0,4,1.3,4,3.8v5.8h-1.4v-1.4c-0.7,0.9-1.8,1.6-3.4,1.6
		c-1.8,0-3.5-1-3.5-3c0-2,1.6-3.1,4-3.1c1.2,0,2.1,0.2,2.9,0.4v-0.3c0-1.7-1-2.6-2.8-2.6C59.4,27.3,58.5,27.6,57.6,28z M57.8,32.8
		c0,1.2,1.1,1.9,2.4,1.9c1.7,0,3.2-1.1,3.2-2.6v-0.9c-0.7-0.2-1.6-0.4-2.8-0.4C58.8,30.9,57.8,31.6,57.8,32.8z"/>
	<path fill="#0277BD" d="M69.1,35.7h-1.4v-9.5h1.4v2.5c0.7-1.6,2.1-2.7,3.9-2.6v1.5h-0.1c-2.1,0-3.8,1.5-3.8,4.3V35.7z"/>
	<path fill="#0277BD" d="M77,33c0,1.2,0.6,1.6,1.6,1.6c0.5,0,0.9-0.1,1.4-0.3v1.2c-0.5,0.3-1,0.4-1.7,0.4c-1.5,0-2.7-0.8-2.7-2.7
		v-5.7h-1.3v-1.2h1.3v-2.9H77v2.9h3v1.2h-3V33z"/>
	<path fill="#0277BD" d="M82.6,24.1v-1.6h1.6v1.6H82.6z M82.6,35.7v-9.5h1.4v9.5H82.6z"/>
	<path fill="#0277BD" d="M91.6,35.9c-2.8,0-4.9-2.3-4.9-4.9c0-2.7,2.1-5,4.9-5c1.8,0,2.9,0.8,3.8,1.7l-0.9,1
		c-0.8-0.8-1.6-1.4-2.9-1.4c-1.9,0-3.4,1.6-3.4,3.7c0,2.1,1.5,3.7,3.5,3.7c1.2,0,2.1-0.6,2.9-1.4l0.9,0.8
		C94.5,35.1,93.4,35.9,91.6,35.9z"/>
	<path fill="#0277BD" d="M97.8,24.1v-1.6h1.6v1.6H97.8z M97.9,35.7v-9.5h1.4v9.5H97.9z"/>
	<path fill="#0277BD" d="M107.7,35.9c-1.8,0-2.9-1-3.6-2v4.7h-1.4V26.2h1.4v1.9c0.8-1.1,1.9-2.1,3.6-2.1c2.3,0,4.5,1.8,4.5,4.9
		C112.2,34,109.9,35.9,107.7,35.9z M107.4,27.2c-1.8,0-3.4,1.5-3.4,3.7c0,2.2,1.7,3.7,3.4,3.7c1.8,0,3.3-1.4,3.3-3.7
		C110.7,28.7,109.2,27.2,107.4,27.2z"/>
	<path fill="#0277BD" d="M115.3,28l-0.4-1.2c1-0.5,2.1-0.8,3.4-0.8c2.6,0,4,1.3,4,3.8v5.8H121v-1.4c-0.7,0.9-1.8,1.6-3.4,1.6
		c-1.8,0-3.5-1-3.5-3c0-2,1.6-3.1,4-3.1c1.2,0,2.1,0.2,2.9,0.4v-0.3c0-1.7-1-2.6-2.8-2.6C117.1,27.3,116.2,27.6,115.3,28z
		 M115.5,32.8c0,1.2,1.1,1.9,2.4,1.9c1.7,0,3.2-1.1,3.2-2.6v-0.9c-0.7-0.2-1.6-0.4-2.8-0.4C116.5,30.9,115.5,31.6,115.5,32.8z"/>
	<path fill="#0277BD" d="M126.8,35.7h-1.4v-9.5h1.4v1.6c0.6-1,1.6-1.9,3.2-1.9c2.3,0,3.6,1.5,3.6,3.8v5.9h-1.4v-5.5
		c0-1.8-1-2.9-2.6-2.9c-1.6,0-2.8,1.2-2.8,3V35.7z"/>
	<path fill="#0277BD" d="M138.6,33c0,1.2,0.6,1.6,1.6,1.6c0.5,0,0.9-0.1,1.4-0.3v1.2c-0.5,0.3-1,0.4-1.7,0.4c-1.5,0-2.7-0.8-2.7-2.7
		v-5.7h-1.3v-1.2h1.3v-2.9h1.4v2.9h3v1.2h-3V33z"/>
	<path fill="#0277BD" d="M161.8,35.7h-1.6l-1.5-3.4h-7l-1.5,3.4h-1.5l5.8-12.9h1.4L161.8,35.7z M155.2,24.4l-2.9,6.5h5.8L155.2,24.4
		z"/>
	<path fill="#0277BD" d="M167.8,38.6c-1.6,0-3-0.4-4.3-1.3l0.6-1.1c1.1,0.8,2.3,1.2,3.6,1.2c2.1,0,3.4-1.2,3.4-3.4v-1.1
		c-0.8,1.1-2,2-3.7,2c-2.3,0-4.5-1.7-4.5-4.5c0-2.8,2.2-4.5,4.5-4.5c1.8,0,2.9,0.9,3.7,1.9v-1.7h1.4V34
		C172.6,37.1,170.7,38.6,167.8,38.6z M167.8,27.2c-1.8,0-3.3,1.2-3.3,3.2c0,1.9,1.5,3.2,3.3,3.2c1.8,0,3.5-1.3,3.5-3.2
		C171.3,28.5,169.6,27.2,167.8,27.2z"/>
	<path fill="#0277BD" d="M179.9,34.6c1.3,0,2.2-0.5,3-1.3l0.9,0.8c-1,1.1-2.1,1.8-3.9,1.8c-2.6,0-4.7-2-4.7-4.9
		c0-2.7,1.9-4.9,4.5-4.9c2.8,0,4.4,2.2,4.4,5c0,0.1,0,0.3,0,0.4h-7.5C176.8,33.5,178.3,34.6,179.9,34.6z M182.7,30.4
		c-0.1-1.7-1.1-3.2-3-3.2c-1.6,0-2.9,1.4-3.1,3.2H182.7z"/>
	<path fill="#0277BD" d="M196.8,35.7h-4.5V22.8h4.5c4,0,6.8,2.8,6.8,6.4C203.6,32.9,200.8,35.7,196.8,35.7z M196.8,24.2h-3v10.2h3
		c3.2,0,5.3-2.2,5.3-5.1C202.1,26.4,200,24.2,196.8,24.2z"/>
	<path fill="#0277BD" d="M206.5,24.1v-1.6h1.6v1.6H206.5z M206.6,35.7v-9.5h1.4v9.5H206.6z"/>
	<path fill="#0277BD" d="M214.4,35.8c-1.4,0-2.9-0.5-3.9-1.4l0.7-1c1,0.8,2.2,1.2,3.3,1.2c1.1,0,2-0.6,2-1.5v0c0-1-1.1-1.3-2.4-1.7
		c-1.5-0.4-3.1-0.9-3.1-2.7v0c0-1.6,1.4-2.7,3.2-2.7c1.2,0,2.4,0.4,3.4,1l-0.6,1.1c-0.9-0.6-1.9-0.9-2.8-0.9c-1.1,0-1.8,0.6-1.8,1.4
		v0c0,0.9,1.2,1.2,2.4,1.6c1.5,0.4,3,1,3,2.7v0C217.8,34.8,216.3,35.8,214.4,35.8z"/>
	<path fill="#0277BD" d="M222.1,33c0,1.2,0.6,1.6,1.6,1.6c0.5,0,0.9-0.1,1.4-0.3v1.2c-0.5,0.3-1,0.4-1.7,0.4c-1.5,0-2.7-0.8-2.7-2.7
		v-5.7h-1.3v-1.2h1.3v-2.9h1.4v2.9h3v1.2h-3V33z"/>
	<path fill="#0277BD" d="M229,35.7h-1.4v-9.5h1.4v2.5c0.7-1.6,2.1-2.7,3.9-2.6v1.5h-0.1c-2.1,0-3.8,1.5-3.8,4.3V35.7z"/>
	<path fill="#0277BD" d="M235.1,24.1v-1.6h1.6v1.6H235.1z M235.2,35.7v-9.5h1.4v9.5H235.2z"/>
	<path fill="#0277BD" d="M244.9,35.9c-1.8,0-2.9-1-3.6-2v1.8h-1.4V22.3h1.4v5.8c0.8-1.1,1.9-2.1,3.6-2.1c2.3,0,4.5,1.8,4.5,4.9
		C249.4,34,247.2,35.9,244.9,35.9z M244.6,27.2c-1.8,0-3.4,1.5-3.4,3.7c0,2.2,1.7,3.7,3.4,3.7c1.8,0,3.3-1.4,3.3-3.7
		C248,28.7,246.4,27.2,244.6,27.2z"/>
	<path fill="#0277BD" d="M258.7,26.2h1.4v9.5h-1.4V34c-0.6,1-1.6,1.9-3.2,1.9c-2.3,0-3.6-1.5-3.6-3.8v-5.9h1.4v5.5
		c0,1.8,1,2.9,2.6,2.9c1.6,0,2.8-1.2,2.8-3V26.2z"/>
	<path fill="#0277BD" d="M265.2,33c0,1.2,0.6,1.6,1.6,1.6c0.5,0,0.9-0.1,1.4-0.3v1.2c-0.5,0.3-1,0.4-1.7,0.4c-1.5,0-2.7-0.8-2.7-2.7
		v-5.7h-1.3v-1.2h1.3v-2.9h1.4v2.9h3v1.2h-3V33z"/>
	<path fill="#0277BD" d="M270.7,24.1v-1.6h1.6v1.6H270.7z M270.8,35.7v-9.5h1.4v9.5H270.8z"/>
	<path fill="#0277BD" d="M279.9,35.9c-2.8,0-4.9-2.2-4.9-4.9c0-2.7,2.1-5,4.9-5c2.8,0,4.9,2.2,4.9,4.9
		C284.8,33.6,282.7,35.9,279.9,35.9z M279.9,27.2c-2.1,0-3.5,1.6-3.5,3.7c0,2.1,1.5,3.7,3.5,3.7c2.1,0,3.5-1.6,3.5-3.7
		C283.4,28.9,281.9,27.2,279.9,27.2z"/>
	<path fill="#0277BD" d="M288.8,35.7h-1.4v-9.5h1.4v1.6c0.6-1,1.6-1.9,3.2-1.9c2.3,0,3.6,1.5,3.6,3.8v5.9h-1.4v-5.5
		c0-1.8-1-2.9-2.6-2.9c-1.6,0-2.8,1.2-2.8,3V35.7z"/>
</g>
<g>
	<g>
		<g>
			<path fill="#8795A2" d="M321.4,33.1h-0.8l-0.8-1.7h-3.5l-0.8,1.7h-0.7l2.9-6.5h0.7L321.4,33.1z M318.1,27.5l-1.5,3.3h2.9
				L318.1,27.5z"/>
			<path fill="#8795A2" d="M322.6,33.1v-6.7h0.7v6.7H322.6z"/>
			<path fill="#8795A2" d="M325.1,33.1v-6.7h0.7v6.7H325.1z"/>
			<path fill="#8795A2" d="M331.1,31.8c0,0.6,0.3,0.8,0.8,0.8c0.2,0,0.4,0,0.7-0.2V33c-0.2,0.1-0.5,0.2-0.9,0.2
				c-0.8,0-1.3-0.4-1.3-1.3V29h-0.7v-0.6h0.7v-1.4h0.7v1.4h1.5V29h-1.5V31.8z"/>
			<path fill="#8795A2" d="M333.9,27.3v-0.8h0.8v0.8H333.9z M334,33.1v-4.8h0.7v4.8H334z"/>
			<path fill="#8795A2" d="M341.8,28.3c1.1,0,1.8,0.7,1.8,1.9v2.9h-0.7v-2.8c0-0.9-0.5-1.4-1.2-1.4c-0.7,0-1.3,0.5-1.3,1.5v2.7h-0.7
				v-2.8c0-0.9-0.5-1.4-1.2-1.4s-1.3,0.6-1.3,1.5v2.7h-0.7v-4.8h0.7v0.8c0.3-0.5,0.7-0.9,1.5-0.9c0.8,0,1.3,0.4,1.5,0.9
				C340.4,28.7,341,28.3,341.8,28.3z"/>
			<path fill="#8795A2" d="M347.2,32.6c0.7,0,1.1-0.3,1.5-0.7l0.4,0.4c-0.5,0.5-1.1,0.9-2,0.9c-1.3,0-2.4-1-2.4-2.5
				c0-1.4,1-2.5,2.3-2.5c1.4,0,2.2,1.1,2.2,2.5c0,0.1,0,0.1,0,0.2h-3.8C345.6,32,346.4,32.6,347.2,32.6z M348.6,30.5
				c-0.1-0.9-0.6-1.6-1.5-1.6c-0.8,0-1.5,0.7-1.5,1.6H348.6z"/>
		</g>
	</g>
	<polyline fill="none" stroke="#8795A2" stroke-width="0.802" points="369.5,28.5 364.5,32.5 359.5,28.5 	"/>
</g>
<g>
	<circle fill-rule="evenodd" clip-rule="evenodd" fill="#90A4AE" cx="29.8" cy="23.7" r="1.8"/>
	<circle fill-rule="evenodd" clip-rule="evenodd" fill="#90A4AE" cx="29.8" cy="29.7" r="1.8"/>
	<circle fill-rule="evenodd" clip-rule="evenodd" fill="#90A4AE" cx="29.8" cy="35.6" r="1.8"/>
</g>
<g>
	<rect x="26.3" y="53.3" opacity="0.2" fill="#CFD8DC" width="275.4" height="262.1"/>
	<rect x="26.3" y="136.4" opacity="0.2" fill="#8795A2" width="275.4" height="48.7"/>
	<g>
		<g>
			<path fill="#8795A2" d="M44.5,71.6c1.1,0.3,1.7,0.7,1.7,1.6c0,1-0.8,1.6-1.9,1.6c-0.8,0-1.6-0.3-2.2-0.8l0.6-0.7
				c0.5,0.4,1,0.7,1.7,0.7c0.6,0,0.9-0.3,0.9-0.7c0-0.4-0.2-0.6-1.2-0.8c-1.1-0.3-1.8-0.6-1.8-1.6c0-0.9,0.8-1.5,1.8-1.5
				c0.8,0,1.4,0.2,1.9,0.7l-0.5,0.7c-0.5-0.4-1-0.5-1.4-0.5c-0.5,0-0.9,0.3-0.9,0.6C43.2,71.1,43.5,71.3,44.5,71.6z"/>
			<path fill="#8795A2" d="M52.5,72.3c0,1.6-0.9,2.4-2.3,2.4c-1.4,0-2.3-0.8-2.3-2.3v-3h0.9v3c0,1,0.5,1.5,1.3,1.5
				c0.8,0,1.3-0.5,1.3-1.5v-3h0.9V72.3z"/>
			<path fill="#8795A2" d="M57.1,73.3L57.1,73.3l-1.7-2.5v3.8h-0.9v-5.3h1l1.6,2.5l1.6-2.5h1v5.3h-0.9v-3.8L57.1,73.3z"/>
			<path fill="#8795A2" d="M64.4,73.3L64.4,73.3l-1.7-2.5v3.8h-0.9v-5.3h1l1.6,2.5l1.6-2.5h1v5.3h-0.9v-3.8L64.4,73.3z"/>
			<path fill="#8795A2" d="M74.2,74.6h-1l-0.5-1.3h-2.5l-0.5,1.3h-1l2.3-5.3h0.9L74.2,74.6z M71.4,70.4l-0.9,2.1h1.8L71.4,70.4z"/>
			<path fill="#8795A2" d="M79.2,74.6l-1.3-1.8h-1.2v1.8h-0.9v-5.3h2.4c1.2,0,2,0.6,2,1.7c0,0.9-0.5,1.4-1.3,1.6l1.4,2H79.2z
				 M78.1,70.2h-1.4V72h1.4c0.7,0,1.1-0.3,1.1-0.9C79.2,70.5,78.8,70.2,78.1,70.2z"/>
			<path fill="#8795A2" d="M84.3,74.6h-0.9v-2.1l-2.1-3.2h1.1l1.5,2.3l1.5-2.3h1.1l-2.1,3.2V74.6z"/>
			<path fill="#8795A2" d="M93,74.6h-2v-5.3h2c1.7,0,2.8,1.1,2.8,2.6C95.8,73.5,94.7,74.6,93,74.6z M93,70.2h-1v3.6h1
				c1.1,0,1.8-0.7,1.8-1.8C94.8,71,94.1,70.2,93,70.2z"/>
			<path fill="#8795A2" d="M102.4,74.6h-1l-0.5-1.3h-2.5l-0.5,1.3h-1l2.3-5.3h0.9L102.4,74.6z M99.6,70.4l-0.9,2.1h1.8L99.6,70.4z"
				/>
			<path fill="#8795A2" d="M105.6,74.6h-0.9v-4.4H103v-0.9h4.3v0.9h-1.7V74.6z"/>
			<path fill="#8795A2" d="M113.4,74.6h-1l-0.5-1.3h-2.5l-0.5,1.3h-1l2.3-5.3h0.9L113.4,74.6z M110.6,70.4l-0.9,2.1h1.8L110.6,70.4z
				"/>
		</g>
	</g>
	<g>
		<g>
			<path fill="#8795A2" d="M47.8,106.9h-4.3v2.4h3.8v0.7h-3.8v2.5h4.4v0.7h-5.1v-7h5.1V106.9z"/>
			<path fill="#8795A2" d="M49.4,113.2v-7.4h0.8v7.4H49.4z"/>
			<path fill="#8795A2" d="M52,106.9V106h0.9v0.9H52z M52.1,113.2V108h0.8v5.2H52.1z"/>
			<path fill="#8795A2" d="M57,114.8c-0.9,0-1.7-0.2-2.4-0.7l0.4-0.6c0.6,0.4,1.3,0.7,2,0.7c1.1,0,1.9-0.6,1.9-1.9v-0.6
				c-0.5,0.6-1.1,1.1-2,1.1c-1.2,0-2.4-0.9-2.4-2.4c0-1.5,1.2-2.5,2.4-2.5c1,0,1.6,0.5,2,1V108h0.8v4.3
				C59.6,114,58.6,114.8,57,114.8z M57,108.6c-1,0-1.8,0.7-1.8,1.8c0,1.1,0.8,1.8,1.8,1.8c1,0,1.9-0.7,1.9-1.8
				C58.9,109.3,57.9,108.6,57,108.6z"/>
			<path fill="#8795A2" d="M61.4,106.9V106h0.9v0.9H61.4z M61.4,113.2V108h0.8v5.2H61.4z"/>
			<path fill="#8795A2" d="M66.8,113.3c-1,0-1.6-0.5-2-1.1v1H64v-7.4h0.8v3.2c0.4-0.6,1-1.2,2-1.2c1.2,0,2.5,1,2.5,2.7
				C69.2,112.3,68,113.3,66.8,113.3z M66.6,108.6c-1,0-1.9,0.8-1.9,2c0,1.2,0.9,2,1.9,2c1,0,1.8-0.7,1.8-2
				C68.4,109.4,67.6,108.6,66.6,108.6z"/>
			<path fill="#8795A2" d="M70.7,113.2v-7.4h0.8v7.4H70.7z"/>
			<path fill="#8795A2" d="M75.6,112.7c0.7,0,1.2-0.3,1.6-0.7l0.5,0.4c-0.5,0.6-1.2,1-2.1,1c-1.4,0-2.6-1.1-2.6-2.7
				c0-1.5,1.1-2.7,2.5-2.7c1.5,0,2.4,1.2,2.4,2.8c0,0.1,0,0.2,0,0.2h-4.1C73.9,112,74.7,112.7,75.6,112.7z M77.1,110.3
				c-0.1-0.9-0.6-1.8-1.7-1.8c-0.9,0-1.6,0.8-1.7,1.8H77.1z"/>
			<path fill="#8795A2" d="M84.9,110.7h-1.7v2.5h-0.8v-7h2.6c1.6,0,2.6,0.8,2.6,2.2C87.7,109.9,86.4,110.7,84.9,110.7z M85,106.9
				h-1.8v3.1H85c1.2,0,1.9-0.6,1.9-1.6C86.9,107.4,86.1,106.9,85,106.9z"/>
			<path fill="#8795A2" d="M91.4,113.3c-1.6,0-2.7-1.2-2.7-2.7s1.1-2.7,2.7-2.7c1.6,0,2.7,1.2,2.7,2.7S92.9,113.3,91.4,113.3z
				 M91.4,108.6c-1.1,0-1.9,0.9-1.9,2s0.8,2,1.9,2c1.1,0,1.9-0.9,1.9-2C93.3,109.5,92.4,108.6,91.4,108.6z"/>
			<path fill="#8795A2" d="M98.2,113.3c-1,0-1.6-0.5-2-1.1v2.6h-0.8V108h0.8v1c0.4-0.6,1-1.2,2-1.2c1.2,0,2.5,1,2.5,2.7
				C100.7,112.3,99.5,113.3,98.2,113.3z M98.1,108.6c-1,0-1.9,0.8-1.9,2c0,1.2,0.9,2,1.9,2c1,0,1.8-0.7,1.8-2
				C99.9,109.4,99.1,108.6,98.1,108.6z"/>
			<path fill="#8795A2" d="M105.9,108h0.8v5.2h-0.8v-0.9c-0.4,0.6-0.9,1-1.8,1c-1.3,0-2-0.8-2-2.1V108h0.8v3c0,1,0.5,1.6,1.4,1.6
				c0.9,0,1.6-0.7,1.6-1.6V108z"/>
			<path fill="#8795A2" d="M108.4,113.2v-7.4h0.8v7.4H108.4z"/>
			<path fill="#8795A2" d="M111.3,109l-0.2-0.6c0.6-0.3,1.1-0.4,1.9-0.4c1.4,0,2.2,0.7,2.2,2.1v3.2h-0.7v-0.8
				c-0.4,0.5-1,0.9-1.9,0.9c-1,0-1.9-0.5-1.9-1.6c0-1.1,0.9-1.7,2.2-1.7c0.7,0,1.1,0.1,1.6,0.2V110c0-0.9-0.6-1.4-1.6-1.4
				C112.3,108.6,111.8,108.8,111.3,109z M111.4,111.7c0,0.7,0.6,1,1.3,1c1,0,1.7-0.6,1.7-1.4v-0.5c-0.4-0.1-0.9-0.2-1.5-0.2
				C111.9,110.6,111.4,111,111.4,111.7z"/>
			<path fill="#8795A2" d="M117.8,111.7c0,0.6,0.4,0.9,0.9,0.9c0.3,0,0.5-0.1,0.8-0.2v0.7c-0.3,0.1-0.6,0.2-0.9,0.2
				c-0.8,0-1.5-0.4-1.5-1.5v-3.1h-0.7V108h0.7v-1.6h0.8v1.6h1.7v0.7h-1.7V111.7z"/>
			<path fill="#8795A2" d="M120.9,106.9V106h0.9v0.9H120.9z M120.9,113.2V108h0.8v5.2H120.9z"/>
			<path fill="#8795A2" d="M125.9,113.3c-1.6,0-2.7-1.2-2.7-2.7s1.1-2.7,2.7-2.7c1.6,0,2.7,1.2,2.7,2.7S127.5,113.3,125.9,113.3z
				 M125.9,108.6c-1.1,0-1.9,0.9-1.9,2s0.8,2,1.9,2c1.1,0,1.9-0.9,1.9-2C127.8,109.5,127,108.6,125.9,108.6z"/>
			<path fill="#8795A2" d="M130.8,113.2H130V108h0.8v0.9c0.3-0.6,0.9-1,1.8-1c1.3,0,2,0.8,2,2.1v3.2h-0.8v-3c0-1-0.5-1.6-1.4-1.6
				c-0.9,0-1.6,0.7-1.6,1.6V113.2z"/>
		</g>
	</g>
	<g>
		<g>
			<path fill="#8795A2" d="M193.9,106.2h4.1v0.7h-3.4l-0.2,2.3c0.4-0.2,0.8-0.3,1.4-0.3c1.4,0,2.4,0.8,2.4,2.2c0,1.4-1,2.3-2.5,2.3
				c-1,0-1.9-0.5-2.5-1.1l0.5-0.6c0.6,0.6,1.3,1,2,1c1,0,1.7-0.7,1.7-1.6c0-0.9-0.7-1.5-1.8-1.5c-0.6,0-1.1,0.2-1.5,0.4l-0.5-0.4
				L193.9,106.2z"/>
			<path fill="#8795A2" d="M202,113.3c-1.5,0-2.6-0.8-2.6-2c0-0.8,0.6-1.4,1.5-1.7c-0.7-0.3-1.2-0.8-1.2-1.6c0-1.1,1.1-1.9,2.4-1.9
				s2.4,0.8,2.4,1.9c0,0.8-0.6,1.3-1.2,1.6c0.8,0.3,1.5,0.9,1.5,1.7C204.7,112.5,203.5,113.3,202,113.3z M202,109.9
				c-1,0-1.8,0.6-1.8,1.3c0,0.7,0.7,1.3,1.8,1.3s1.8-0.6,1.8-1.3C203.9,110.5,203,109.9,202,109.9z M202,106.8
				c-0.9,0-1.6,0.5-1.6,1.2c0,0.8,0.7,1.3,1.6,1.3c0.9,0,1.6-0.5,1.6-1.3C203.6,107.3,202.9,106.8,202,106.8z"/>
		</g>
	</g>
	<g>
		<g>
			<path fill="#8795A2" d="M246.2,106.2h4.1v0.7h-3.4l-0.2,2.3c0.4-0.2,0.8-0.3,1.4-0.3c1.4,0,2.4,0.8,2.4,2.2c0,1.4-1,2.3-2.5,2.3
				c-1,0-1.9-0.5-2.5-1.1l0.5-0.6c0.6,0.6,1.3,1,2,1c1,0,1.7-0.7,1.7-1.6c0-0.9-0.7-1.5-1.8-1.5c-0.6,0-1.1,0.2-1.5,0.4l-0.5-0.4
				L246.2,106.2z"/>
			<path fill="#8795A2" d="M256.2,106.1v4.8h1.1v0.7h-1.1v1.7h-0.8v-1.7h-3.7l-0.2-0.6l4-4.9H256.2z M255.5,107.2l-3,3.6h3V107.2z"
				/>
		</g>
	</g>
	<g>
		<g>
			<path fill="#8795A2" d="M193.9,157.1h4.1v0.7h-3.4l-0.2,2.3c0.4-0.2,0.8-0.3,1.4-0.3c1.4,0,2.4,0.8,2.4,2.2c0,1.4-1,2.3-2.5,2.3
				c-1,0-1.9-0.5-2.5-1.1l0.5-0.6c0.6,0.6,1.3,1,2,1c1,0,1.7-0.7,1.7-1.6c0-0.9-0.7-1.5-1.8-1.5c-0.6,0-1.1,0.2-1.5,0.4l-0.5-0.4
				L193.9,157.1z"/>
			<path fill="#8795A2" d="M202,164.2c-1.5,0-2.6-0.8-2.6-2c0-0.8,0.6-1.4,1.5-1.7c-0.7-0.3-1.2-0.8-1.2-1.6c0-1.1,1.1-1.9,2.4-1.9
				s2.4,0.8,2.4,1.9c0,0.8-0.6,1.3-1.2,1.6c0.8,0.3,1.5,0.9,1.5,1.7C204.7,163.4,203.5,164.2,202,164.2z M202,160.8
				c-1,0-1.8,0.6-1.8,1.3c0,0.7,0.7,1.3,1.8,1.3s1.8-0.6,1.8-1.3C203.9,161.4,203,160.8,202,160.8z M202,157.7
				c-0.9,0-1.6,0.5-1.6,1.2c0,0.8,0.7,1.3,1.6,1.3c0.9,0,1.6-0.5,1.6-1.3C203.6,158.2,202.9,157.7,202,157.7z"/>
		</g>
	</g>
	<g>
		<g>
			<path fill="#8795A2" d="M246.2,157.1h4.1v0.7h-3.4l-0.2,2.3c0.4-0.2,0.8-0.3,1.4-0.3c1.4,0,2.4,0.8,2.4,2.2c0,1.4-1,2.3-2.5,2.3
				c-1,0-1.9-0.5-2.5-1.1l0.5-0.6c0.6,0.6,1.3,1,2,1c1,0,1.7-0.7,1.7-1.6c0-0.9-0.7-1.5-1.8-1.5c-0.6,0-1.1,0.2-1.5,0.4l-0.5-0.4
				L246.2,157.1z"/>
			<path fill="#8795A2" d="M256.2,157v4.8h1.1v0.7h-1.1v1.7h-0.8v-1.7h-3.7l-0.2-0.6l4-4.9H256.2z M255.5,158.1l-3,3.6h3V158.1z"/>
		</g>
	</g>
	<g>
		<g>
			<path fill="#8795A2" d="M194.7,207.1h0.6v7.1h-0.8V208l-1.3,0.4l-0.2-0.6L194.7,207.1z"/>
			<path fill="#8795A2" d="M199.9,214.4c-1.8,0-3-1.7-3-3.6s1.2-3.7,3-3.7c1.8,0,3,1.7,3,3.6C202.9,212.7,201.7,214.4,199.9,214.4z
				 M199.9,207.8c-1.3,0-2.1,1.3-2.1,2.9c0,1.6,0.8,2.9,2.2,2.9s2.1-1.4,2.1-2.9S201.2,207.8,199.9,207.8z"/>
			<path fill="#8795A2" d="M207.1,214.4c-1.8,0-3-1.7-3-3.6s1.2-3.7,3-3.7c1.8,0,3,1.7,3,3.6C210.1,212.7,208.9,214.4,207.1,214.4z
				 M207.1,207.8c-1.3,0-2.1,1.3-2.1,2.9c0,1.6,0.8,2.9,2.2,2.9s2.1-1.4,2.1-2.9S208.4,207.8,207.1,207.8z"/>
		</g>
	</g>
	<g>
		<g>
			<path fill="#8795A2" d="M247,207.1h0.6v7.1h-0.8V208l-1.3,0.4l-0.2-0.6L247,207.1z"/>
			<path fill="#8795A2" d="M252.2,214.4c-1.8,0-3-1.7-3-3.6s1.2-3.7,3-3.7c1.8,0,3,1.7,3,3.6C255.2,212.7,254,214.4,252.2,214.4z
				 M252.2,207.8c-1.3,0-2.1,1.3-2.1,2.9c0,1.6,0.8,2.9,2.2,2.9s2.1-1.4,2.1-2.9S253.5,207.8,252.2,207.8z"/>
			<path fill="#8795A2" d="M259.4,214.4c-1.8,0-3-1.7-3-3.6s1.2-3.7,3-3.7c1.8,0,3,1.7,3,3.6C262.4,212.7,261.2,214.4,259.4,214.4z
				 M259.4,207.8c-1.3,0-2.1,1.3-2.1,2.9c0,1.6,0.8,2.9,2.2,2.9s2.1-1.4,2.1-2.9S260.7,207.8,259.4,207.8z"/>
		</g>
	</g>
	<g>
		<g>
			<path fill="#8795A2" d="M49.3,164.1h-0.9l-0.8-1.9h-3.8l-0.8,1.9h-0.8l3.2-7.1h0.7L49.3,164.1z M45.7,157.9l-1.6,3.6h3.2
				L45.7,157.9z"/>
			<path fill="#8795A2" d="M52.3,164.2c-0.7,0-1.6-0.3-2.2-0.8l0.4-0.6c0.6,0.4,1.2,0.7,1.8,0.7c0.6,0,1.1-0.3,1.1-0.8v0
				c0-0.5-0.6-0.7-1.3-0.9c-0.8-0.2-1.7-0.5-1.7-1.5v0c0-0.9,0.7-1.5,1.8-1.5c0.6,0,1.3,0.2,1.9,0.6l-0.4,0.6
				c-0.5-0.3-1-0.5-1.5-0.5c-0.6,0-1,0.3-1,0.8v0c0,0.5,0.6,0.7,1.3,0.9c0.8,0.2,1.7,0.6,1.7,1.5v0
				C54.1,163.6,53.3,164.2,52.3,164.2z"/>
			<path fill="#8795A2" d="M57.2,164.2c-0.7,0-1.6-0.3-2.2-0.8l0.4-0.6c0.6,0.4,1.2,0.7,1.8,0.7c0.6,0,1.1-0.3,1.1-0.8v0
				c0-0.5-0.6-0.7-1.3-0.9c-0.8-0.2-1.7-0.5-1.7-1.5v0c0-0.9,0.7-1.5,1.8-1.5c0.6,0,1.3,0.2,1.9,0.6l-0.4,0.6
				c-0.5-0.3-1-0.5-1.5-0.5c-0.6,0-1,0.3-1,0.8v0c0,0.5,0.6,0.7,1.3,0.9c0.8,0.2,1.7,0.6,1.7,1.5v0
				C59.1,163.6,58.2,164.2,57.2,164.2z"/>
			<path fill="#8795A2" d="M62.8,163.6c0.7,0,1.2-0.3,1.6-0.7l0.5,0.4c-0.5,0.6-1.2,1-2.1,1c-1.4,0-2.6-1.1-2.6-2.7
				c0-1.5,1.1-2.7,2.5-2.7c1.5,0,2.4,1.2,2.4,2.8c0,0.1,0,0.2,0,0.2H61C61.1,162.9,61.9,163.6,62.8,163.6z M64.3,161.2
				c-0.1-0.9-0.6-1.8-1.7-1.8c-0.9,0-1.6,0.8-1.7,1.8H64.3z"/>
			<path fill="#8795A2" d="M68.2,164.2c-0.7,0-1.6-0.3-2.2-0.8l0.4-0.6c0.6,0.4,1.2,0.7,1.8,0.7c0.6,0,1.1-0.3,1.1-0.8v0
				c0-0.5-0.6-0.7-1.3-0.9c-0.8-0.2-1.7-0.5-1.7-1.5v0c0-0.9,0.7-1.5,1.8-1.5c0.6,0,1.3,0.2,1.9,0.6l-0.4,0.6
				c-0.5-0.3-1-0.5-1.5-0.5c-0.6,0-1,0.3-1,0.8v0c0,0.5,0.6,0.7,1.3,0.9c0.8,0.2,1.7,0.6,1.7,1.5v0C70,163.6,69.2,164.2,68.2,164.2z
				"/>
			<path fill="#8795A2" d="M73.1,164.2c-0.7,0-1.6-0.3-2.2-0.8l0.4-0.6c0.6,0.4,1.2,0.7,1.8,0.7c0.6,0,1.1-0.3,1.1-0.8v0
				c0-0.5-0.6-0.7-1.3-0.9c-0.8-0.2-1.7-0.5-1.7-1.5v0c0-0.9,0.7-1.5,1.8-1.5c0.6,0,1.3,0.2,1.9,0.6l-0.4,0.6
				c-0.5-0.3-1-0.5-1.5-0.5c-0.6,0-1,0.3-1,0.8v0c0,0.5,0.6,0.7,1.3,0.9c0.8,0.2,1.7,0.6,1.7,1.5v0
				C74.9,163.6,74.1,164.2,73.1,164.2z"/>
			<path fill="#8795A2" d="M82.3,158.8c1.2,0,1.9,0.8,1.9,2.1v3.2h-0.8v-3c0-1-0.5-1.6-1.3-1.6c-0.8,0-1.4,0.6-1.4,1.6v3h-0.8v-3.1
				c0-1-0.5-1.6-1.3-1.6s-1.5,0.7-1.5,1.6v3h-0.8v-5.2h0.8v0.9c0.3-0.5,0.8-1,1.7-1c0.8,0,1.4,0.5,1.7,1
				C80.9,159.3,81.4,158.8,82.3,158.8z"/>
			<path fill="#8795A2" d="M88.3,163.6c0.7,0,1.2-0.3,1.6-0.7l0.5,0.4c-0.5,0.6-1.2,1-2.1,1c-1.4,0-2.6-1.1-2.6-2.7
				c0-1.5,1.1-2.7,2.5-2.7c1.5,0,2.4,1.2,2.4,2.8c0,0.1,0,0.2,0,0.2h-4.1C86.5,162.9,87.3,163.6,88.3,163.6z M89.8,161.2
				c-0.1-0.9-0.6-1.8-1.7-1.8c-0.9,0-1.6,0.8-1.7,1.8H89.8z"/>
			<path fill="#8795A2" d="M92.7,164.1h-0.8v-5.2h0.8v0.9c0.3-0.6,0.9-1,1.8-1c1.3,0,2,0.8,2,2.1v3.2h-0.8v-3c0-1-0.5-1.6-1.4-1.6
				c-0.9,0-1.6,0.7-1.6,1.6V164.1z"/>
			<path fill="#8795A2" d="M99.2,162.6c0,0.6,0.4,0.9,0.9,0.9c0.3,0,0.5-0.1,0.8-0.2v0.7c-0.3,0.1-0.6,0.2-0.9,0.2
				c-0.8,0-1.5-0.4-1.5-1.5v-3.1h-0.7v-0.7h0.7v-1.6h0.8v1.6h1.7v0.7h-1.7V162.6z"/>
			<path fill="#8795A2" d="M103.9,164.2c-0.7,0-1.6-0.3-2.2-0.8l0.4-0.6c0.6,0.4,1.2,0.7,1.8,0.7c0.6,0,1.1-0.3,1.1-0.8v0
				c0-0.5-0.6-0.7-1.3-0.9c-0.8-0.2-1.7-0.5-1.7-1.5v0c0-0.9,0.7-1.5,1.8-1.5c0.6,0,1.3,0.2,1.9,0.6l-0.4,0.6
				c-0.5-0.3-1-0.5-1.5-0.5c-0.6,0-1,0.3-1,0.8v0c0,0.5,0.6,0.7,1.3,0.9c0.8,0.2,1.7,0.6,1.7,1.5v0
				C105.8,163.6,104.9,164.2,103.9,164.2z"/>
			<path fill="#8795A2" d="M113.6,164.2c-2,0-3.5-1.6-3.5-3.6c0-2,1.5-3.7,3.6-3.7c1.3,0,2,0.5,2.7,1.1l-0.5,0.6
				c-0.6-0.6-1.3-1-2.2-1c-1.6,0-2.7,1.3-2.7,2.9s1.2,2.9,2.7,2.9c1,0,1.6-0.4,2.3-1l0.5,0.5C115.7,163.7,114.9,164.2,113.6,164.2z"
				/>
			<path fill="#8795A2" d="M119.9,164.2c-1.6,0-2.7-1.2-2.7-2.7s1.1-2.7,2.7-2.7c1.6,0,2.7,1.2,2.7,2.7S121.5,164.2,119.9,164.2z
				 M119.9,159.5c-1.1,0-1.9,0.9-1.9,2s0.8,2,1.9,2c1.1,0,1.9-0.9,1.9-2C121.9,160.4,121,159.5,119.9,159.5z"/>
			<path fill="#8795A2" d="M130,158.8c1.2,0,1.9,0.8,1.9,2.1v3.2h-0.8v-3c0-1-0.5-1.6-1.3-1.6c-0.8,0-1.4,0.6-1.4,1.6v3h-0.8v-3.1
				c0-1-0.5-1.6-1.3-1.6s-1.5,0.7-1.5,1.6v3h-0.8v-5.2h0.8v0.9c0.3-0.5,0.8-1,1.7-1c0.8,0,1.4,0.5,1.7,1
				C128.6,159.3,129.1,158.8,130,158.8z"/>
			<path fill="#8795A2" d="M136.4,164.2c-1,0-1.6-0.5-2-1.1v2.6h-0.8v-6.8h0.8v1c0.4-0.6,1-1.2,2-1.2c1.2,0,2.5,1,2.5,2.7
				C138.9,163.2,137.7,164.2,136.4,164.2z M136.3,159.5c-1,0-1.9,0.8-1.9,2c0,1.2,0.9,2,1.9,2c1,0,1.8-0.7,1.8-2
				C138.1,160.3,137.2,159.5,136.3,159.5z"/>
			<path fill="#8795A2" d="M140.4,164.1v-7.4h0.8v7.4H140.4z"/>
			<path fill="#8795A2" d="M145.3,163.6c0.7,0,1.2-0.3,1.6-0.7l0.5,0.4c-0.5,0.6-1.2,1-2.1,1c-1.4,0-2.6-1.1-2.6-2.7
				c0-1.5,1.1-2.7,2.5-2.7c1.5,0,2.4,1.2,2.4,2.8c0,0.1,0,0.2,0,0.2h-4.1C143.5,162.9,144.3,163.6,145.3,163.6z M146.8,161.2
				c-0.1-0.9-0.6-1.8-1.7-1.8c-0.9,0-1.6,0.8-1.7,1.8H146.8z"/>
			<path fill="#8795A2" d="M150,162.6c0,0.6,0.4,0.9,0.9,0.9c0.3,0,0.5-0.1,0.8-0.2v0.7c-0.3,0.1-0.6,0.2-0.9,0.2
				c-0.8,0-1.5-0.4-1.5-1.5v-3.1h-0.7v-0.7h0.7v-1.6h0.8v1.6h1.7v0.7H150V162.6z"/>
			<path fill="#8795A2" d="M155.1,163.6c0.7,0,1.2-0.3,1.6-0.7l0.5,0.4c-0.5,0.6-1.2,1-2.1,1c-1.4,0-2.6-1.1-2.6-2.7
				c0-1.5,1.1-2.7,2.5-2.7c1.5,0,2.4,1.2,2.4,2.8c0,0.1,0,0.2,0,0.2h-4.1C153.4,162.9,154.2,163.6,155.1,163.6z M156.7,161.2
				c-0.1-0.9-0.6-1.8-1.7-1.8c-0.9,0-1.6,0.8-1.7,1.8H156.7z"/>
			<path fill="#8795A2" d="M163,164.1v-1c-0.4,0.6-1,1.2-2,1.2c-1.2,0-2.5-1-2.5-2.7c0-1.7,1.2-2.7,2.5-2.7c1,0,1.6,0.5,2,1.1v-3.1
				h0.8v7.4H163z M161.1,159.5c-1,0-1.8,0.7-1.8,2c0,1.2,0.8,2,1.8,2c1,0,1.9-0.8,1.9-2C163,160.3,162.1,159.5,161.1,159.5z"/>
		</g>
	</g>
	<g>
		<g>
			<path fill="#8795A2" d="M46,214.4c-2,0-3.5-1.6-3.5-3.6c0-2,1.5-3.7,3.6-3.7c1.3,0,2,0.5,2.7,1.1l-0.5,0.6c-0.6-0.6-1.3-1-2.2-1
				c-1.6,0-2.7,1.3-2.7,2.9s1.2,2.9,2.7,2.9c1,0,1.6-0.4,2.3-1l0.5,0.5C48.1,213.9,47.2,214.4,46,214.4z"/>
			<path fill="#8795A2" d="M52.3,214.4c-1.6,0-2.7-1.2-2.7-2.7s1.1-2.7,2.7-2.7c1.6,0,2.7,1.2,2.7,2.7S53.9,214.4,52.3,214.4z
				 M52.3,209.6c-1.1,0-1.9,0.9-1.9,2s0.8,2,1.9,2c1.1,0,1.9-0.9,1.9-2C54.3,210.5,53.4,209.6,52.3,209.6z"/>
			<path fill="#8795A2" d="M62.4,208.9c1.2,0,1.9,0.8,1.9,2.1v3.2h-0.8v-3c0-1-0.5-1.6-1.3-1.6c-0.8,0-1.4,0.6-1.4,1.6v3H60v-3.1
				c0-1-0.5-1.6-1.3-1.6s-1.5,0.7-1.5,1.6v3h-0.8V209h0.8v0.9c0.3-0.5,0.8-1,1.7-1c0.8,0,1.4,0.5,1.7,1
				C61,209.4,61.5,208.9,62.4,208.9z"/>
			<path fill="#8795A2" d="M68.8,214.3c-1,0-1.6-0.5-2-1.1v2.6H66V209h0.8v1c0.4-0.6,1-1.2,2-1.2c1.2,0,2.5,1,2.5,2.7
				C71.3,213.3,70.1,214.3,68.8,214.3z M68.7,209.6c-1,0-1.9,0.8-1.9,2c0,1.2,0.9,2,1.9,2c1,0,1.8-0.7,1.8-2
				C70.5,210.4,69.6,209.6,68.7,209.6z"/>
			<path fill="#8795A2" d="M72.8,214.2v-7.4h0.8v7.4H72.8z"/>
			<path fill="#8795A2" d="M77.7,213.7c0.7,0,1.2-0.3,1.6-0.7l0.5,0.4c-0.5,0.6-1.2,1-2.1,1c-1.4,0-2.6-1.1-2.6-2.7
				c0-1.5,1.1-2.7,2.5-2.7c1.5,0,2.4,1.2,2.4,2.8c0,0.1,0,0.2,0,0.2h-4.1C75.9,213,76.7,213.7,77.7,213.7z M79.2,211.3
				c-0.1-0.9-0.6-1.8-1.7-1.8c-0.9,0-1.6,0.8-1.7,1.8H79.2z"/>
			<path fill="#8795A2" d="M82.4,212.8c0,0.6,0.4,0.9,0.9,0.9c0.3,0,0.5-0.1,0.8-0.2v0.7c-0.3,0.1-0.6,0.2-0.9,0.2
				c-0.8,0-1.5-0.4-1.5-1.5v-3.1h-0.7V209h0.7v-1.6h0.8v1.6H84v0.7h-1.7V212.8z"/>
			<path fill="#8795A2" d="M85.4,207.9V207h0.9v0.9H85.4z M85.5,214.2V209h0.8v5.2H85.5z"/>
			<path fill="#8795A2" d="M90.4,214.4c-1.6,0-2.7-1.2-2.7-2.7s1.1-2.7,2.7-2.7c1.6,0,2.7,1.2,2.7,2.7S92,214.4,90.4,214.4z
				 M90.4,209.6c-1.1,0-1.9,0.9-1.9,2s0.8,2,1.9,2c1.1,0,1.9-0.9,1.9-2C92.3,210.5,91.5,209.6,90.4,209.6z"/>
			<path fill="#8795A2" d="M95.3,214.2h-0.8V209h0.8v0.9c0.3-0.6,0.9-1,1.8-1c1.3,0,2,0.8,2,2.1v3.2h-0.8v-3c0-1-0.5-1.6-1.4-1.6
				c-0.9,0-1.6,0.7-1.6,1.6V214.2z"/>
			<path fill="#8795A2" d="M105,210.7c-1,0-1.6-0.8-1.6-1.8c0-1,0.6-1.8,1.6-1.8c0.9,0,1.6,0.8,1.6,1.8
				C106.6,209.9,106,210.7,105,210.7z M105,207.7c-0.6,0-0.9,0.5-0.9,1.2c0,0.7,0.4,1.2,0.9,1.2c0.5,0,0.9-0.5,0.9-1.2
				C105.9,208.2,105.5,207.7,105,207.7z M104.9,214.2h-0.7l5.2-7h0.7L104.9,214.2z M109.2,214.3c-0.9,0-1.6-0.8-1.6-1.8
				c0-1,0.6-1.8,1.6-1.8s1.6,0.8,1.6,1.8C110.8,213.5,110.1,214.3,109.2,214.3z M109.2,211.3c-0.5,0-0.9,0.5-0.9,1.2
				c0,0.7,0.4,1.2,0.9,1.2c0.6,0,0.9-0.5,0.9-1.2C110.1,211.8,109.7,211.3,109.2,211.3z"/>
		</g>
	</g>
	<g>
		<g>
			<path fill="#8795A2" d="M196,73.3L196,73.3l-1.7-2.5v3.8h-0.9v-5.3h1l1.6,2.5l1.6-2.5h1v5.3h-0.9v-3.8L196,73.3z"/>
			<path fill="#8795A2" d="M205.7,74.6h-1l-0.5-1.3h-2.5l-0.5,1.3h-1l2.3-5.3h0.9L205.7,74.6z M203,70.4l-0.9,2.1h1.8L203,70.4z"/>
			<path fill="#8795A2" d="M207.4,69.3h0.9v4.4h2.8v0.8h-3.7V69.3z"/>
			<path fill="#8795A2" d="M216.7,70.2h-3v1.4h2.7v0.8h-2.7v1.4h3v0.8h-4v-5.3h3.9V70.2z"/>
		</g>
	</g>
	<g>
		<g>
			<path fill="#8795A2" d="M249.6,70.2h-3v1.4h2.7v0.8h-2.7v2.2h-0.9v-5.3h3.9V70.2z"/>
			<path fill="#8795A2" d="M255.3,70.2h-3v1.4h2.7v0.8h-2.7v1.4h3v0.8h-4v-5.3h3.9V70.2z"/>
			<path fill="#8795A2" d="M259.8,73.3L259.8,73.3l-1.7-2.5v3.8h-0.9v-5.3h1l1.6,2.5l1.6-2.5h1v5.3h-0.9v-3.8L259.8,73.3z"/>
			<path fill="#8795A2" d="M269.5,74.6h-1l-0.5-1.3h-2.5l-0.5,1.3h-1l2.3-5.3h0.9L269.5,74.6z M266.8,70.4l-0.9,2.1h1.8L266.8,70.4z
				"/>
			<path fill="#8795A2" d="M271.2,69.3h0.9v4.4h2.8v0.8h-3.7V69.3z"/>
			<path fill="#8795A2" d="M280.6,70.2h-3v1.4h2.7v0.8h-2.7v1.4h3v0.8h-4v-5.3h3.9V70.2z"/>
		</g>
	</g>
	<line fill="none" stroke="#BDCCD4" stroke-width="0.8533" stroke-miterlimit="10" x1="26.3" y1="90.4" x2="301.7" y2="90.4"/>
	
		<line opacity="0.5" fill="none" stroke="#B0BEC5" stroke-width="2.3195" stroke-miterlimit="10" x1="328.6" y1="245.4" x2="626.9" y2="245.4"/>
	<g>
		<rect x="370.8" y="166.6" fill="#0277BD" width="18.4" height="78.8"/>
		<rect x="528.9" y="175.3" fill="#0277BD" width="18.4" height="70.2"/>
		<rect x="410.3" y="131.5" fill="#0277BD" width="18.4" height="113.9"/>
		<rect x="489.4" y="141" fill="#0277BD" width="18.4" height="104.4"/>
		<rect x="449.9" y="105.6" fill="#0277BD" width="18.4" height="139.8"/>
	</g>
	<g>
		<path fill="#8795A2" d="M330.2,257.3h0.6v5.1h-0.9v-4.2l-0.9,0.3l-0.2-0.7L330.2,257.3z"/>
		<path fill="#8795A2" d="M334.9,262.5c-1.3,0-2.2-1.2-2.2-2.6s0.9-2.6,2.2-2.6c1.3,0,2.2,1.2,2.2,2.6S336.2,262.5,334.9,262.5z
			 M334.9,258.1c-0.8,0-1.3,0.8-1.3,1.8s0.5,1.8,1.3,1.8c0.8,0,1.3-0.8,1.3-1.8S335.6,258.1,334.9,258.1z"/>
		<path fill="#8795A2" d="M338.6,260.6v-0.9h2.2v0.9H338.6z"/>
		<path fill="#8795A2" d="M343.3,257.3h0.6v5.1H343v-4.2l-0.9,0.3l-0.2-0.7L343.3,257.3z"/>
		<path fill="#8795A2" d="M347.5,262.5c-0.7,0-1.2-0.3-1.6-0.6l0.5-0.7c0.4,0.3,0.7,0.5,1.2,0.5c0.8,0,1.2-0.7,1.2-1.6
			c-0.3,0.3-0.6,0.5-1.2,0.5c-1.1,0-1.8-0.6-1.8-1.6c0-1,0.8-1.8,1.9-1.8c0.6,0,1.1,0.2,1.4,0.5c0.4,0.4,0.6,0.9,0.6,2
			C349.7,261.4,348.9,262.5,347.5,262.5z M347.7,258c-0.6,0-1,0.4-1,1c0,0.5,0.4,0.9,1,0.9c0.6,0,1-0.4,1-0.9
			C348.7,258.4,348.3,258,347.7,258z"/>
	</g>
	<g>
		<path fill="#8795A2" d="M341,234.2c-1.3,0-2.2-1.2-2.2-2.6s0.9-2.6,2.2-2.6c1.3,0,2.2,1.2,2.2,2.6S342.3,234.2,341,234.2z
			 M341,229.7c-0.8,0-1.3,0.8-1.3,1.8s0.5,1.8,1.3,1.8c0.8,0,1.3-0.8,1.3-1.8S341.8,229.7,341,229.7z"/>
	</g>
	<g>
		<path fill="#8795A2" d="M379.3,152.4v3.3h0.7v0.7h-0.7v1.1h-0.9v-1.1h-2.6l-0.2-0.6l2.8-3.3H379.3z M378.4,153.6l-1.7,2h1.7V153.6
			z"/>
		<path fill="#8795A2" d="M381.9,152.4h3v0.8h-2.3l-0.1,1.2c0.2-0.1,0.5-0.1,0.8-0.1c1,0,1.8,0.5,1.8,1.6c0,1-0.8,1.7-1.9,1.7
			c-0.8,0-1.4-0.3-1.9-0.8l0.6-0.6c0.4,0.4,0.8,0.6,1.3,0.6c0.6,0,1-0.3,1-0.9c0-0.5-0.4-0.9-1.1-0.9c-0.4,0-0.7,0.1-0.9,0.2
			l-0.5-0.4L381.9,152.4z"/>
	</g>
	<g>
		<path fill="#8795A2" d="M418.7,113.8c-0.4-0.3-0.7-0.4-1.1-0.4c-0.8,0-1.2,0.7-1.2,1.6c0.3-0.3,0.6-0.5,1.2-0.5
			c1,0,1.8,0.6,1.8,1.6s-0.8,1.7-1.9,1.7c-0.6,0-1.1-0.2-1.4-0.5c-0.4-0.4-0.6-0.9-0.6-2c0-1.6,0.7-2.8,2.2-2.8
			c0.7,0,1.1,0.2,1.6,0.6L418.7,113.8z M417.4,115.2c-0.6,0-1,0.4-1,0.9c0,0.5,0.4,0.9,1.1,0.9c0.6,0,1-0.4,1-0.9
			C418.4,115.5,418,115.2,417.4,115.2z"/>
		<path fill="#8795A2" d="M423.1,117.8c-1.3,0-2.2-1.2-2.2-2.6s0.9-2.6,2.2-2.6c1.3,0,2.2,1.2,2.2,2.6S424.5,117.8,423.1,117.8z
			 M423.1,113.3c-0.8,0-1.3,0.8-1.3,1.8s0.5,1.8,1.3,1.8c0.8,0,1.3-0.8,1.3-1.8S423.9,113.3,423.1,113.3z"/>
	</g>
	<g>
		<path fill="#8795A2" d="M495.3,121.8h3v0.8h-2.3l-0.1,1.2c0.2-0.1,0.5-0.1,0.8-0.1c1,0,1.8,0.5,1.8,1.6c0,1-0.8,1.7-1.9,1.7
			c-0.8,0-1.4-0.3-1.9-0.8l0.6-0.6c0.4,0.4,0.8,0.6,1.3,0.6c0.6,0,1-0.3,1-0.9c0-0.5-0.4-0.9-1.1-0.9c-0.4,0-0.7,0.1-0.9,0.2
			l-0.5-0.4L495.3,121.8z"/>
		<path fill="#8795A2" d="M500.6,121.8h3v0.8h-2.3l-0.1,1.2c0.2-0.1,0.5-0.1,0.8-0.1c1,0,1.8,0.5,1.8,1.6c0,1-0.8,1.7-1.9,1.7
			c-0.8,0-1.4-0.3-1.9-0.8l0.6-0.6c0.4,0.4,0.8,0.6,1.3,0.6c0.6,0,1-0.3,1-0.9c0-0.5-0.4-0.9-1.1-0.9c-0.4,0-0.7,0.1-0.9,0.2
			l-0.5-0.4L500.6,121.8z"/>
	</g>
	<g>
		<path fill="#8795A2" d="M533.8,161.2v-0.8h3.4v0.7l-1.4,1.5c0.8,0.1,1.5,0.5,1.5,1.4c0,0.9-0.7,1.6-1.8,1.6c-0.9,0-1.5-0.4-2-0.9
			l0.6-0.6c0.4,0.4,0.8,0.7,1.3,0.7c0.5,0,0.9-0.3,0.9-0.8c0-0.5-0.5-0.8-1.2-0.8h-0.4l-0.1-0.6l1.4-1.5H533.8z"/>
		<path fill="#8795A2" d="M539.2,160.4h3v0.8H540l-0.1,1.2c0.2-0.1,0.5-0.1,0.8-0.1c1,0,1.8,0.5,1.8,1.6c0,1-0.8,1.7-1.9,1.7
			c-0.8,0-1.4-0.3-1.9-0.8l0.6-0.6c0.4,0.4,0.8,0.6,1.3,0.6c0.6,0,1-0.3,1-0.9c0-0.5-0.4-0.9-1.1-0.9c-0.4,0-0.7,0.1-0.9,0.2
			l-0.5-0.4L539.2,160.4z"/>
	</g>
	<g>
		<path fill="#8795A2" d="M454.8,85.2h3.6v0.7l-2.3,4.4h-1l2.3-4.3h-2.6V85.2z"/>
		<path fill="#8795A2" d="M460.1,85.2h3V86h-2.3l-0.1,1.2c0.2-0.1,0.5-0.1,0.8-0.1c1,0,1.8,0.5,1.8,1.6c0,1-0.8,1.7-1.9,1.7
			c-0.8,0-1.4-0.3-1.9-0.8l0.6-0.6c0.4,0.4,0.8,0.6,1.3,0.6c0.6,0,1-0.3,1-0.9c0-0.5-0.4-0.9-1.1-0.9c-0.4,0-0.7,0.1-0.9,0.2
			l-0.5-0.4L460.1,85.2z"/>
	</g>
	<g>
		<path fill="#8795A2" d="M368,258.8l-0.6-0.5c0.5-0.7,1-1.1,1.9-1.1c1,0,1.7,0.6,1.7,1.5c0,0.8-0.4,1.2-1.3,2l-1,0.9h2.4v0.8h-3.7
			v-0.7l1.8-1.5c0.7-0.6,1-0.9,1-1.4c0-0.5-0.4-0.8-0.8-0.8S368.4,258.3,368,258.8z"/>
		<path fill="#8795A2" d="M374.8,262.5c-1.3,0-2.2-1.2-2.2-2.6s0.9-2.6,2.2-2.6c1.3,0,2.2,1.2,2.2,2.6S376.1,262.5,374.8,262.5z
			 M374.8,258.1c-0.8,0-1.3,0.8-1.3,1.8s0.5,1.8,1.3,1.8c0.8,0,1.3-0.8,1.3-1.8S375.5,258.1,374.8,258.1z"/>
		<path fill="#8795A2" d="M378.5,260.6v-0.9h2.2v0.9H378.5z"/>
		<path fill="#8795A2" d="M382.9,258.8l-0.6-0.5c0.5-0.7,1-1.1,1.9-1.1c1,0,1.7,0.6,1.7,1.5c0,0.8-0.4,1.2-1.3,2l-1,0.9h2.4v0.8
			h-3.7v-0.7l1.8-1.5c0.7-0.6,1-0.9,1-1.4c0-0.5-0.4-0.8-0.8-0.8S383.3,258.3,382.9,258.8z"/>
		<path fill="#8795A2" d="M389.2,262.5c-0.7,0-1.2-0.3-1.6-0.6l0.5-0.7c0.4,0.3,0.7,0.5,1.2,0.5c0.8,0,1.2-0.7,1.2-1.6
			c-0.3,0.3-0.6,0.5-1.2,0.5c-1.1,0-1.8-0.6-1.8-1.6c0-1,0.8-1.8,1.9-1.8c0.6,0,1.1,0.2,1.4,0.5c0.4,0.4,0.6,0.9,0.6,2
			C391.4,261.4,390.6,262.5,389.2,262.5z M389.4,258c-0.6,0-1,0.4-1,1c0,0.5,0.4,0.9,1,0.9c0.6,0,1-0.4,1-0.9
			C390.4,258.4,390,258,389.4,258z"/>
	</g>
	<g>
		<path fill="#8795A2" d="M407.6,258.1v-0.8h3.4v0.7l-1.4,1.5c0.8,0.1,1.5,0.5,1.5,1.4c0,0.9-0.7,1.6-1.8,1.6c-0.9,0-1.5-0.4-2-0.9
			l0.6-0.6c0.4,0.4,0.8,0.7,1.3,0.7c0.5,0,0.9-0.3,0.9-0.8c0-0.5-0.5-0.8-1.2-0.8h-0.4l-0.1-0.6l1.4-1.5H407.6z"/>
		<path fill="#8795A2" d="M414.8,262.5c-1.3,0-2.2-1.2-2.2-2.6s0.9-2.6,2.2-2.6c1.3,0,2.2,1.2,2.2,2.6S416.2,262.5,414.8,262.5z
			 M414.8,258.1c-0.8,0-1.3,0.8-1.3,1.8s0.5,1.8,1.3,1.8c0.8,0,1.3-0.8,1.3-1.8S415.6,258.1,414.8,258.1z"/>
		<path fill="#8795A2" d="M418.6,260.6v-0.9h2.2v0.9H418.6z"/>
		<path fill="#8795A2" d="M422.4,258.1v-0.8h3.4v0.7l-1.4,1.5c0.8,0.1,1.5,0.5,1.5,1.4c0,0.9-0.7,1.6-1.8,1.6c-0.9,0-1.5-0.4-2-0.9
			l0.6-0.6c0.4,0.4,0.8,0.7,1.3,0.7c0.5,0,0.9-0.3,0.9-0.8c0-0.5-0.5-0.8-1.2-0.8h-0.4l-0.1-0.6l1.4-1.5H422.4z"/>
		<path fill="#8795A2" d="M429.2,262.5c-0.7,0-1.2-0.3-1.6-0.6l0.5-0.7c0.4,0.3,0.7,0.5,1.2,0.5c0.8,0,1.2-0.7,1.2-1.6
			c-0.3,0.3-0.6,0.5-1.2,0.5c-1.1,0-1.8-0.6-1.8-1.6c0-1,0.8-1.8,1.9-1.8c0.6,0,1.1,0.2,1.4,0.5c0.4,0.4,0.6,0.9,0.6,2
			C431.4,261.4,430.6,262.5,429.2,262.5z M429.3,258c-0.6,0-1,0.4-1,1c0,0.5,0.4,0.9,1,0.9c0.6,0,1-0.4,1-0.9
			C430.4,258.4,430,258,429.3,258z"/>
	</g>
	<g>
		<path fill="#8795A2" d="M450.3,257.3v3.3h0.7v0.7h-0.7v1.1h-0.9v-1.1h-2.6l-0.2-0.6l2.8-3.3H450.3z M449.5,258.6l-1.7,2h1.7V258.6
			z"/>
		<path fill="#8795A2" d="M454.8,262.5c-1.3,0-2.2-1.2-2.2-2.6s0.9-2.6,2.2-2.6c1.3,0,2.2,1.2,2.2,2.6S456.1,262.5,454.8,262.5z
			 M454.8,258.1c-0.8,0-1.3,0.8-1.3,1.8s0.5,1.8,1.3,1.8c0.8,0,1.3-0.8,1.3-1.8S455.6,258.1,454.8,258.1z"/>
		<path fill="#8795A2" d="M458.6,260.6v-0.9h2.2v0.9H458.6z"/>
		<path fill="#8795A2" d="M465.7,257.3v3.3h0.7v0.7h-0.7v1.1h-0.9v-1.1h-2.6l-0.2-0.6l2.8-3.3H465.7z M464.9,258.6l-1.7,2h1.7V258.6
			z"/>
		<path fill="#8795A2" d="M469.7,262.5c-0.7,0-1.2-0.3-1.6-0.6l0.5-0.7c0.4,0.3,0.7,0.5,1.2,0.5c0.8,0,1.2-0.7,1.2-1.6
			c-0.3,0.3-0.6,0.5-1.2,0.5c-1.1,0-1.8-0.6-1.8-1.6c0-1,0.8-1.8,1.9-1.8c0.6,0,1.1,0.2,1.4,0.5c0.4,0.4,0.6,0.9,0.6,2
			C471.9,261.4,471,262.5,469.7,262.5z M469.8,258c-0.6,0-1,0.4-1,1c0,0.5,0.4,0.9,1,0.9c0.6,0,1-0.4,1-0.9
			C470.9,258.4,470.5,258,469.8,258z"/>
	</g>
	<g>
		<path fill="#8795A2" d="M487.7,257.4h3v0.8h-2.3l-0.1,1.2c0.2-0.1,0.5-0.1,0.8-0.1c1,0,1.8,0.5,1.8,1.6c0,1-0.8,1.7-1.9,1.7
			c-0.8,0-1.4-0.3-1.9-0.8l0.6-0.6c0.4,0.4,0.8,0.6,1.3,0.6c0.6,0,1-0.3,1-0.9c0-0.5-0.4-0.9-1.1-0.9c-0.4,0-0.7,0.1-0.9,0.2
			l-0.5-0.4L487.7,257.4z"/>
		<path fill="#8795A2" d="M494.8,262.5c-1.3,0-2.2-1.2-2.2-2.6s0.9-2.6,2.2-2.6c1.3,0,2.2,1.2,2.2,2.6S496.1,262.5,494.8,262.5z
			 M494.8,258.1c-0.8,0-1.3,0.8-1.3,1.8s0.5,1.8,1.3,1.8c0.8,0,1.3-0.8,1.3-1.8S495.6,258.1,494.8,258.1z"/>
		<path fill="#8795A2" d="M498.6,260.6v-0.9h2.2v0.9H498.6z"/>
		<path fill="#8795A2" d="M502.7,257.4h3v0.8h-2.3l-0.1,1.2c0.2-0.1,0.5-0.1,0.8-0.1c1,0,1.8,0.5,1.8,1.6c0,1-0.8,1.7-1.9,1.7
			c-0.8,0-1.4-0.3-1.9-0.8l0.6-0.6c0.4,0.4,0.8,0.6,1.3,0.6c0.6,0,1-0.3,1-0.9c0-0.5-0.4-0.9-1.1-0.9c-0.4,0-0.7,0.1-0.9,0.2
			l-0.5-0.4L502.7,257.4z"/>
		<path fill="#8795A2" d="M509.3,262.5c-0.7,0-1.2-0.3-1.6-0.6l0.5-0.7c0.4,0.3,0.7,0.5,1.2,0.5c0.8,0,1.2-0.7,1.2-1.6
			c-0.3,0.3-0.6,0.5-1.2,0.5c-1.1,0-1.8-0.6-1.8-1.6c0-1,0.8-1.8,1.9-1.8c0.6,0,1.1,0.2,1.4,0.5c0.4,0.4,0.6,0.9,0.6,2
			C511.5,261.4,510.6,262.5,509.3,262.5z M509.4,258c-0.6,0-1,0.4-1,1c0,0.5,0.4,0.9,1,0.9c0.6,0,1-0.4,1-0.9
			C510.5,258.4,510.1,258,509.4,258z"/>
	</g>
	<g>
		<path fill="#8795A2" d="M530.4,258.5c-0.4-0.3-0.7-0.4-1.1-0.4c-0.8,0-1.2,0.7-1.2,1.6c0.3-0.3,0.6-0.5,1.2-0.5
			c1,0,1.8,0.6,1.8,1.6s-0.8,1.7-1.9,1.7c-0.6,0-1.1-0.2-1.4-0.5c-0.4-0.4-0.6-0.9-0.6-2c0-1.6,0.7-2.8,2.2-2.8
			c0.7,0,1.1,0.2,1.6,0.6L530.4,258.5z M529.1,259.9c-0.6,0-1,0.4-1,0.9c0,0.5,0.4,0.9,1.1,0.9c0.6,0,1-0.4,1-0.9
			C530.1,260.3,529.7,259.9,529.1,259.9z"/>
		<path fill="#8795A2" d="M534.8,262.5c-1.3,0-2.2-1.2-2.2-2.6s0.9-2.6,2.2-2.6c1.3,0,2.2,1.2,2.2,2.6S536.2,262.5,534.8,262.5z
			 M534.8,258.1c-0.8,0-1.3,0.8-1.3,1.8s0.5,1.8,1.3,1.8c0.8,0,1.3-0.8,1.3-1.8S535.6,258.1,534.8,258.1z"/>
		<path fill="#8795A2" d="M538.6,260.6v-0.9h2.2v0.9H538.6z"/>
		<path fill="#8795A2" d="M545.6,258.5c-0.4-0.3-0.7-0.4-1.1-0.4c-0.8,0-1.2,0.7-1.2,1.6c0.3-0.3,0.6-0.5,1.2-0.5
			c1,0,1.8,0.6,1.8,1.6s-0.8,1.7-1.9,1.7c-0.6,0-1.1-0.2-1.4-0.5c-0.4-0.4-0.6-0.9-0.6-2c0-1.6,0.7-2.8,2.2-2.8
			c0.7,0,1.1,0.2,1.6,0.6L545.6,258.5z M544.3,259.9c-0.6,0-1,0.4-1,0.9c0,0.5,0.4,0.9,1.1,0.9c0.6,0,1-0.4,1-0.9
			C545.3,260.3,544.9,259.9,544.3,259.9z"/>
		<path fill="#8795A2" d="M549.5,262.5c-0.7,0-1.2-0.3-1.6-0.6l0.5-0.7c0.4,0.3,0.7,0.5,1.2,0.5c0.8,0,1.2-0.7,1.2-1.6
			c-0.3,0.3-0.6,0.5-1.2,0.5c-1.1,0-1.8-0.6-1.8-1.6c0-1,0.8-1.8,1.9-1.8c0.6,0,1.1,0.2,1.4,0.5c0.4,0.4,0.6,0.9,0.6,2
			C551.7,261.4,550.9,262.5,549.5,262.5z M549.7,258c-0.6,0-1,0.4-1,1c0,0.5,0.4,0.9,1,0.9c0.6,0,1-0.4,1-0.9
			C550.7,258.4,550.3,258,549.7,258z"/>
	</g>
	<g>
		<path fill="#8795A2" d="M567.8,257.4h3.6v0.7l-2.3,4.4h-1l2.3-4.3h-2.6V257.4z"/>
		<path fill="#8795A2" d="M574.9,262.5c-1.3,0-2.2-1.2-2.2-2.6s0.9-2.6,2.2-2.6c1.3,0,2.2,1.2,2.2,2.6S576.3,262.5,574.9,262.5z
			 M574.9,258.1c-0.8,0-1.3,0.8-1.3,1.8s0.5,1.8,1.3,1.8c0.8,0,1.3-0.8,1.3-1.8S575.7,258.1,574.9,258.1z"/>
		<path fill="#8795A2" d="M578.7,260.6v-0.9h2.2v0.9H578.7z"/>
		<path fill="#8795A2" d="M582.2,257.4h3.6v0.7l-2.3,4.4h-1l2.3-4.3h-2.6V257.4z"/>
		<path fill="#8795A2" d="M588.9,262.5c-0.7,0-1.2-0.3-1.6-0.6l0.5-0.7c0.4,0.3,0.7,0.5,1.2,0.5c0.8,0,1.2-0.7,1.2-1.6
			c-0.3,0.3-0.6,0.5-1.2,0.5c-1.1,0-1.8-0.6-1.8-1.6c0-1,0.8-1.8,1.9-1.8c0.6,0,1.1,0.2,1.4,0.5c0.4,0.4,0.6,0.9,0.6,2
			C591.1,261.4,590.3,262.5,588.9,262.5z M589.1,258c-0.6,0-1,0.4-1,1c0,0.5,0.4,0.9,1,0.9c0.6,0,1-0.4,1-0.9
			C590.2,258.4,589.7,258,589.1,258z"/>
	</g>
	<g>
		<path fill="#8795A2" d="M613.7,262.5c-1.1,0-1.9-0.6-1.9-1.5c0-0.6,0.3-1,0.9-1.3c-0.4-0.2-0.7-0.6-0.7-1.1c0-0.8,0.7-1.4,1.8-1.4
			c1,0,1.8,0.6,1.8,1.4c0,0.6-0.3,0.9-0.7,1.1c0.6,0.3,0.9,0.6,0.9,1.2C615.7,262,614.8,262.5,613.7,262.5z M613.7,260.2
			c-0.6,0-1.1,0.3-1.1,0.8c0,0.4,0.4,0.8,1.1,0.8c0.7,0,1.1-0.3,1.1-0.8C614.8,260.5,614.3,260.2,613.7,260.2z M613.7,258
			c-0.5,0-0.9,0.3-0.9,0.7c0,0.5,0.4,0.8,0.9,0.8c0.5,0,0.9-0.3,0.9-0.8C614.6,258.3,614.3,258,613.7,258z"/>
		<path fill="#8795A2" d="M619.4,262.5c-1.3,0-2.2-1.2-2.2-2.6s0.9-2.6,2.2-2.6c1.3,0,2.2,1.2,2.2,2.6S620.7,262.5,619.4,262.5z
			 M619.4,258.1c-0.8,0-1.3,0.8-1.3,1.8s0.5,1.8,1.3,1.8c0.8,0,1.3-0.8,1.3-1.8S620.2,258.1,619.4,258.1z"/>
		<path fill="#8795A2" d="M624.7,258.1h0.8v1.4h1.4v0.8h-1.4v1.4h-0.8v-1.4h-1.4v-0.8h1.4V258.1z"/>
	</g>
</g>
<g>
</g>
<g>
</g>
<g>
</g>
<g>
</g>
<g>
</g>
<g>
</g>
<g>
</g>
<g>
</g>
<g>
</g>
<g>
</g>
<g>
</g>
<g>
</g>
<g>
</g>
<g>
</g>
<g>
</g>
</svg>
