<?xml version="1.0" encoding="utf-8"?>
<!-- Generator: Adobe Illustrator 16.0.0, SVG Export Plug-In . SVG Version: 6.00 Build 0)  -->
<!DOCTYPE svg PUBLIC "-//W3C//DTD SVG 1.1//EN" "http://www.w3.org/Graphics/SVG/1.1/DTD/svg11.dtd">
<svg version="1.1" id="Layer_1" xmlns="http://www.w3.org/2000/svg" xmlns:xlink="http://www.w3.org/1999/xlink" x="0px" y="0px"
	 width="654.6px" height="312.9px" viewBox="0 0 654.6 312.9" enable-background="new 0 0 654.6 312.9" xml:space="preserve">
<g>
	<g>
		<path fill-rule="evenodd" clip-rule="evenodd" fill="#FFFFFF" d="M0,3.5C0,1.6,1.6,0,3.5,0h647.7c1.9,0,3.5,1.6,3.5,3.5v305.9
			c0,1.9-1.6,3.5-3.5,3.5H3.5c-1.9,0-3.5-1.6-3.5-3.5V3.5z"/>
	</g>
	<g>
		<circle fill-rule="evenodd" clip-rule="evenodd" fill="#F44336" cx="559" cy="97.9" r="4.1"/>
		<circle fill-rule="evenodd" clip-rule="evenodd" fill="#8795A2" cx="559" cy="116.5" r="4.1"/>
		<path fill-rule="evenodd" clip-rule="evenodd" fill="#8795A2" d="M555,135.1c0-2.3,1.8-4.1,4.1-4.1s4.1,1.8,4.1,4.1
			c0,2.2-1.8,4.1-4.1,4.1S555,137.4,555,135.1z"/>
		<circle fill-rule="evenodd" clip-rule="evenodd" fill="#8795A2" cx="559" cy="153.7" r="4.1"/>
		<circle fill-rule="evenodd" clip-rule="evenodd" fill="#2196F3" cx="559" cy="172.3" r="4.1"/>
		<circle fill-rule="evenodd" clip-rule="evenodd" fill="#8795A2" cx="559" cy="190.9" r="4.1"/>
		<circle fill-rule="evenodd" clip-rule="evenodd" fill="#8795A2" cx="559" cy="209.5" r="4.1"/>
		<path fill-rule="evenodd" clip-rule="evenodd" fill="#8795A2" d="M555,228.1c0-2.3,1.8-4.1,4.1-4.1s4.1,1.8,4.1,4.1
			c0,2.2-1.8,4.1-4.1,4.1S555,230.4,555,228.1z"/>
		<path fill-rule="evenodd" clip-rule="evenodd" fill="#8BC34A" d="M555,246.7c0-2.3,1.8-4.1,4.1-4.1s4.1,1.8,4.1,4.1
			c0,2.2-1.8,4.1-4.1,4.1S555,249,555,246.7z"/>
		<circle fill-rule="evenodd" clip-rule="evenodd" fill="#8795A2" cx="559" cy="265.3" r="4.1"/>
		<circle fill-rule="evenodd" clip-rule="evenodd" fill="#8795A2" cx="559" cy="283.9" r="4.1"/>
		<g>
			<rect x="571.3" y="92.2" fill-rule="evenodd" clip-rule="evenodd" fill="none" width="54.6" height="202.6"/>
			<path fill="#8795A2" d="M574.7,99.7c-1.6,0-2.9-1.3-2.9-2.9c0-1.6,1.2-3,2.9-3c1,0,1.7,0.4,2.2,0.9l-0.4,0.5
				c-0.5-0.5-1-0.8-1.8-0.8c-1.3,0-2.2,1-2.2,2.4c0,1.3,1,2.4,2.2,2.4c0.8,0,1.3-0.3,1.8-0.8l0.4,0.4
				C576.4,99.3,575.7,99.7,574.7,99.7z"/>
			<path fill="#8795A2" d="M578.2,96.2l-0.2-0.5c0.5-0.2,0.9-0.4,1.5-0.4c1.2,0,1.8,0.6,1.8,1.7v2.6h-0.6V99
				c-0.3,0.4-0.8,0.7-1.5,0.7c-0.8,0-1.6-0.4-1.6-1.3c0-0.9,0.7-1.4,1.8-1.4c0.5,0,0.9,0.1,1.3,0.2v-0.1c0-0.8-0.5-1.2-1.3-1.2
				C579,95.9,578.6,96,578.2,96.2z M578.3,98.4c0,0.5,0.5,0.8,1.1,0.8c0.8,0,1.4-0.5,1.4-1.1v-0.4c-0.3-0.1-0.7-0.2-1.2-0.2
				C578.7,97.5,578.3,97.8,578.3,98.4z"/>
			<path fill="#8795A2" d="M583.3,99.6h-0.6v-4.2h0.6v1.1c0.3-0.7,0.9-1.2,1.7-1.2V96h0c-0.9,0-1.7,0.7-1.7,1.9V99.6z"/>
			<path fill="#8795A2" d="M589.2,99.6v-0.8c-0.3,0.5-0.8,0.9-1.6,0.9c-1,0-2-0.8-2-2.2c0-1.4,1-2.2,2-2.2c0.8,0,1.3,0.4,1.6,0.9
				v-2.5h0.6v6H589.2z M587.7,95.9c-0.8,0-1.5,0.6-1.5,1.6c0,1,0.7,1.6,1.5,1.6c0.8,0,1.5-0.7,1.5-1.6
				C589.3,96.5,588.5,95.9,587.7,95.9z"/>
			<path fill="#8795A2" d="M591.3,94.5v-0.7h0.7v0.7H591.3z M591.3,99.6v-4.2h0.6v4.2H591.3z"/>
			<path fill="#8795A2" d="M595.3,99.7c-1.3,0-2.2-1-2.2-2.2c0-1.2,0.9-2.2,2.2-2.2c1.3,0,2.2,1,2.2,2.2S596.6,99.7,595.3,99.7z
				 M595.3,95.9c-0.9,0-1.5,0.7-1.5,1.6s0.7,1.6,1.6,1.6c0.9,0,1.6-0.7,1.6-1.6C596.9,96.6,596.2,95.9,595.3,95.9z"/>
			<path fill="#8795A2" d="M574.7,118.4c-1.6,0-2.9-1.3-2.9-2.9c0-1.6,1.2-3,2.9-3c1,0,1.7,0.4,2.2,0.9l-0.4,0.5
				c-0.5-0.5-1-0.8-1.8-0.8c-1.3,0-2.2,1-2.2,2.4c0,1.3,1,2.4,2.2,2.4c0.8,0,1.3-0.3,1.8-0.8l0.4,0.4
				C576.4,118,575.7,118.4,574.7,118.4z"/>
			<path fill="#8795A2" d="M580,118.4c-0.4,0.9-0.8,1.2-1.4,1.2c-0.4,0-0.6-0.1-0.9-0.2l0.2-0.5c0.2,0.1,0.4,0.2,0.7,0.2
				c0.4,0,0.6-0.2,0.9-0.8l-1.9-4.2h0.7l1.5,3.5l1.4-3.5h0.7L580,118.4z"/>
			<path fill="#8795A2" d="M584.4,118.4c-1.2,0-2.2-1-2.2-2.2c0-1.2,0.9-2.2,2.2-2.2c0.8,0,1.3,0.3,1.7,0.8l-0.4,0.4
				c-0.3-0.4-0.7-0.6-1.3-0.6c-0.9,0-1.5,0.7-1.5,1.6c0,0.9,0.7,1.6,1.6,1.6c0.5,0,1-0.3,1.3-0.6l0.4,0.4
				C585.7,118,585.2,118.4,584.4,118.4z"/>
			<path fill="#8795A2" d="M587.2,118.3v-6h0.6v6H587.2z"/>
			<path fill="#8795A2" d="M589.3,113.1v-0.7h0.7v0.7H589.3z M589.3,118.3v-4.2h0.6v4.2H589.3z"/>
			<path fill="#8795A2" d="M592.1,118.3h-0.6v-4.2h0.6v0.7c0.3-0.5,0.7-0.8,1.4-0.8c1,0,1.6,0.7,1.6,1.7v2.6h-0.6v-2.5
				c0-0.8-0.4-1.3-1.2-1.3c-0.7,0-1.3,0.5-1.3,1.3V118.3z"/>
			<path fill="#8795A2" d="M598.3,119.6c-0.7,0-1.4-0.2-1.9-0.6l0.3-0.5c0.5,0.4,1,0.5,1.6,0.5c0.9,0,1.5-0.5,1.5-1.5v-0.5
				c-0.4,0.5-0.9,0.9-1.7,0.9c-1,0-2-0.8-2-2c0-1.2,1-2,2-2c0.8,0,1.3,0.4,1.6,0.8v-0.8h0.6v3.5
				C600.5,118.9,599.6,119.6,598.3,119.6z M598.3,114.5c-0.8,0-1.5,0.5-1.5,1.4c0,0.9,0.7,1.4,1.5,1.4c0.8,0,1.6-0.6,1.6-1.4
				C599.9,115.1,599.1,114.5,598.3,114.5z"/>
			<path fill="#8795A2" d="M576,136.9l-1.7-2.2h-1.6v2.2h-0.6v-5.7h2.5c1.3,0,2.1,0.7,2.1,1.7c0,1-0.7,1.5-1.6,1.7l1.8,2.3H576z
				 M574.5,131.8h-1.8v2.3h1.8c0.9,0,1.5-0.4,1.5-1.2C575.9,132.3,575.4,131.8,574.5,131.8z"/>
			<path fill="#8795A2" d="M580.9,132.7h0.6v4.2h-0.6v-0.7c-0.3,0.5-0.7,0.8-1.4,0.8c-1,0-1.6-0.7-1.6-1.7v-2.6h0.6v2.5
				c0,0.8,0.4,1.3,1.2,1.3c0.7,0,1.3-0.5,1.3-1.3V132.7z"/>
			<path fill="#8795A2" d="M583.5,136.9h-0.6v-4.2h0.6v0.7c0.3-0.5,0.7-0.8,1.4-0.8c1,0,1.6,0.7,1.6,1.7v2.6h-0.6v-2.5
				c0-0.8-0.4-1.3-1.2-1.3c-0.7,0-1.3,0.5-1.3,1.3V136.9z"/>
			<path fill="#8795A2" d="M588.5,136.9h-0.6v-4.2h0.6v0.7c0.3-0.5,0.7-0.8,1.4-0.8c1,0,1.6,0.7,1.6,1.7v2.6H591v-2.5
				c0-0.8-0.4-1.3-1.2-1.3c-0.7,0-1.3,0.5-1.3,1.3V136.9z"/>
			<path fill="#8795A2" d="M593,131.8v-0.7h0.7v0.7H593z M593,136.9v-4.2h0.6v4.2H593z"/>
			<path fill="#8795A2" d="M595.7,136.9h-0.6v-4.2h0.6v0.7c0.3-0.5,0.7-0.8,1.4-0.8c1,0,1.6,0.7,1.6,1.7v2.6h-0.6v-2.5
				c0-0.8-0.4-1.3-1.2-1.3c-0.7,0-1.3,0.5-1.3,1.3V136.9z"/>
			<path fill="#8795A2" d="M602,138.3c-0.7,0-1.4-0.2-1.9-0.6l0.3-0.5c0.5,0.4,1,0.5,1.6,0.5c0.9,0,1.5-0.5,1.5-1.5v-0.5
				c-0.4,0.5-0.9,0.9-1.7,0.9c-1,0-2-0.8-2-2c0-1.2,1-2,2-2c0.8,0,1.3,0.4,1.6,0.8v-0.8h0.6v3.5C604.1,137.6,603.3,138.3,602,138.3z
				 M602,133.2c-0.8,0-1.5,0.5-1.5,1.4c0,0.9,0.7,1.4,1.5,1.4c0.8,0,1.6-0.6,1.6-1.4C603.5,133.8,602.8,133.2,602,133.2z"/>
			<path fill="#8795A2" d="M574.1,152.4c1.3,0.3,1.9,0.7,1.9,1.6c0,1-0.8,1.6-2,1.6c-0.9,0-1.6-0.3-2.3-0.9l0.4-0.5
				c0.6,0.5,1.2,0.8,2,0.8c0.8,0,1.3-0.4,1.3-1c0-0.5-0.3-0.8-1.5-1.1c-1.3-0.3-1.9-0.7-1.9-1.7c0-0.9,0.8-1.6,1.9-1.6
				c0.8,0,1.4,0.2,2,0.7l-0.4,0.5c-0.5-0.4-1.1-0.6-1.6-0.6c-0.7,0-1.2,0.4-1.2,0.9C572.6,151.9,572.9,152.2,574.1,152.4z"/>
			<path fill="#8795A2" d="M581.3,154.8l1.1-3.4h0.7l-1.5,4.3h-0.5l-1.1-3.3l-1.1,3.3h-0.6l-1.5-4.3h0.7l1.1,3.4l1.1-3.4h0.5
				L581.3,154.8z"/>
			<path fill="#8795A2" d="M584.1,150.5v-0.7h0.7v0.7H584.1z M584.2,155.6v-4.2h0.6v4.2H584.2z"/>
			<path fill="#8795A2" d="M591.1,151.3c1,0,1.6,0.7,1.6,1.7v2.6H592v-2.5c0-0.8-0.4-1.3-1.1-1.3c-0.6,0-1.2,0.5-1.2,1.3v2.4h-0.6
				v-2.5c0-0.8-0.4-1.3-1.1-1.3c-0.7,0-1.2,0.6-1.2,1.3v2.4h-0.6v-4.2h0.6v0.7c0.3-0.4,0.7-0.8,1.4-0.8c0.7,0,1.1,0.4,1.4,0.8
				C589.9,151.7,590.4,151.3,591.1,151.3z"/>
			<path fill="#8795A2" d="M598.9,151.3c1,0,1.6,0.7,1.6,1.7v2.6h-0.6v-2.5c0-0.8-0.4-1.3-1.1-1.3c-0.6,0-1.2,0.5-1.2,1.3v2.4h-0.6
				v-2.5c0-0.8-0.4-1.3-1.1-1.3c-0.7,0-1.2,0.6-1.2,1.3v2.4H594v-4.2h0.6v0.7c0.3-0.4,0.7-0.8,1.4-0.8c0.7,0,1.1,0.4,1.4,0.8
				C597.7,151.7,598.1,151.3,598.9,151.3z"/>
			<path fill="#8795A2" d="M601.8,150.5v-0.7h0.7v0.7H601.8z M601.8,155.6v-4.2h0.6v4.2H601.8z"/>
			<path fill="#8795A2" d="M604.6,155.6h-0.6v-4.2h0.6v0.7c0.3-0.5,0.7-0.8,1.4-0.8c1,0,1.6,0.7,1.6,1.7v2.6H607v-2.5
				c0-0.8-0.4-1.3-1.2-1.3c-0.7,0-1.3,0.5-1.3,1.3V155.6z"/>
			<path fill="#8795A2" d="M610.8,156.9c-0.7,0-1.4-0.2-1.9-0.6l0.3-0.5c0.5,0.4,1,0.5,1.6,0.5c0.9,0,1.5-0.5,1.5-1.5v-0.5
				c-0.4,0.5-0.9,0.9-1.7,0.9c-1,0-2-0.8-2-2c0-1.2,1-2,2-2c0.8,0,1.3,0.4,1.6,0.8v-0.8h0.6v3.5C613,156.2,612.1,156.9,610.8,156.9z
				 M610.8,151.8c-0.8,0-1.5,0.5-1.5,1.4c0,0.9,0.7,1.4,1.5,1.4c0.8,0,1.6-0.6,1.6-1.4C612.4,152.4,611.6,151.8,610.8,151.8z"/>
			<path fill="#8795A2" d="M574.1,171.1c1.3,0.3,1.9,0.7,1.9,1.6c0,1-0.8,1.6-2,1.6c-0.9,0-1.6-0.3-2.3-0.9l0.4-0.5
				c0.6,0.5,1.2,0.8,2,0.8c0.8,0,1.3-0.4,1.3-1c0-0.5-0.3-0.8-1.5-1.1c-1.3-0.3-1.9-0.7-1.9-1.7c0-0.9,0.8-1.6,1.9-1.6
				c0.8,0,1.4,0.2,2,0.7l-0.4,0.5c-0.5-0.4-1.1-0.6-1.6-0.6c-0.7,0-1.2,0.4-1.2,0.9C572.6,170.5,572.9,170.8,574.1,171.1z"/>
			<path fill="#8795A2" d="M578,173.1c0,0.5,0.3,0.7,0.7,0.7c0.2,0,0.4,0,0.6-0.1v0.5c-0.2,0.1-0.5,0.2-0.8,0.2
				c-0.7,0-1.2-0.3-1.2-1.2v-2.5h-0.6V170h0.6v-1.3h0.6v1.3h1.3v0.6H578V173.1z"/>
			<path fill="#8795A2" d="M581.1,174.3h-0.6V170h0.6v1.1c0.3-0.7,0.9-1.2,1.7-1.2v0.7h0c-0.9,0-1.7,0.7-1.7,1.9V174.3z"/>
			<path fill="#8795A2" d="M585.4,173.8c0.6,0,1-0.2,1.3-0.6l0.4,0.4c-0.4,0.5-0.9,0.8-1.7,0.8c-1.2,0-2.1-0.9-2.1-2.2
				c0-1.2,0.9-2.2,2-2.2c1.2,0,2,1,2,2.2c0,0.1,0,0.1,0,0.2h-3.3C584,173.3,584.7,173.8,585.4,173.8z M586.7,171.9
				c-0.1-0.8-0.5-1.4-1.3-1.4c-0.7,0-1.3,0.6-1.4,1.4H586.7z"/>
			<path fill="#8795A2" d="M589,174.3h-0.6V170h0.6v0.7c0.3-0.5,0.7-0.8,1.4-0.8c1,0,1.6,0.7,1.6,1.7v2.6h-0.6v-2.5
				c0-0.8-0.4-1.3-1.2-1.3c-0.7,0-1.3,0.5-1.3,1.3V174.3z"/>
			<path fill="#8795A2" d="M595.3,175.6c-0.7,0-1.4-0.2-1.9-0.6l0.3-0.5c0.5,0.4,1,0.5,1.6,0.5c0.9,0,1.5-0.5,1.5-1.5V173
				c-0.4,0.5-0.9,0.9-1.7,0.9c-1,0-2-0.8-2-2c0-1.2,1-2,2-2c0.8,0,1.3,0.4,1.6,0.8V170h0.6v3.5C597.4,174.9,596.6,175.6,595.3,175.6
				z M595.3,170.5c-0.8,0-1.5,0.5-1.5,1.4c0,0.9,0.7,1.4,1.5,1.4c0.8,0,1.6-0.6,1.6-1.4C596.8,171.1,596.1,170.5,595.3,170.5z"/>
			<path fill="#8795A2" d="M599.7,173.1c0,0.5,0.3,0.7,0.7,0.7c0.2,0,0.4,0,0.6-0.1v0.5c-0.2,0.1-0.5,0.2-0.8,0.2
				c-0.7,0-1.2-0.3-1.2-1.2v-2.5h-0.6V170h0.6v-1.3h0.6v1.3h1.3v0.6h-1.3V173.1z"/>
			<path fill="#8795A2" d="M602.8,174.3h-0.6v-6h0.6v2.5c0.3-0.5,0.7-0.8,1.4-0.8c1,0,1.6,0.7,1.6,1.7v2.6h-0.6v-2.5
				c0-0.8-0.4-1.3-1.2-1.3c-0.7,0-1.3,0.5-1.3,1.3V174.3z"/>
			<path fill="#8795A2" d="M575.5,187.2h0.5l1.6,4.8l1.6-4.8h0.7l-2,5.8h-0.5l-1.6-4.6l-1.6,4.6h-0.5l-2-5.8h0.7l1.6,4.8
				L575.5,187.2z"/>
			<path fill="#8795A2" d="M582.3,192.5c0.6,0,1-0.2,1.3-0.6l0.4,0.4c-0.4,0.5-0.9,0.8-1.7,0.8c-1.2,0-2.1-0.9-2.1-2.2
				c0-1.2,0.9-2.2,2-2.2c1.2,0,2,1,2,2.2c0,0.1,0,0.1,0,0.2h-3.3C580.9,192,581.6,192.5,582.3,192.5z M583.6,190.6
				c-0.1-0.8-0.5-1.4-1.3-1.4c-0.7,0-1.3,0.6-1.4,1.4H583.6z"/>
			<path fill="#8795A2" d="M585.3,187.8v-0.7h0.7v0.7H585.3z M585.3,192.9v-4.2h0.6v4.2H585.3z"/>
			<path fill="#8795A2" d="M589.3,194.2c-0.7,0-1.4-0.2-1.9-0.6l0.3-0.5c0.5,0.4,1,0.5,1.6,0.5c0.9,0,1.5-0.5,1.5-1.5v-0.5
				c-0.4,0.5-0.9,0.9-1.7,0.9c-1,0-2-0.8-2-2c0-1.2,1-2,2-2c0.8,0,1.3,0.4,1.6,0.8v-0.8h0.6v3.5
				C591.5,193.5,590.6,194.2,589.3,194.2z M589.3,189.2c-0.8,0-1.5,0.5-1.5,1.4c0,0.9,0.7,1.4,1.5,1.4c0.8,0,1.6-0.6,1.6-1.4
				C590.8,189.7,590.1,189.2,589.3,189.2z"/>
			<path fill="#8795A2" d="M593.5,192.9h-0.6v-6h0.6v2.5c0.3-0.5,0.7-0.8,1.4-0.8c1,0,1.6,0.7,1.6,1.7v2.6h-0.6v-2.5
				c0-0.8-0.4-1.3-1.2-1.3c-0.7,0-1.3,0.5-1.3,1.3V192.9z"/>
			<path fill="#8795A2" d="M598.7,191.7c0,0.5,0.3,0.7,0.7,0.7c0.2,0,0.4,0,0.6-0.1v0.5c-0.2,0.1-0.5,0.2-0.8,0.2
				c-0.7,0-1.2-0.3-1.2-1.2v-2.5h-0.6v-0.6h0.6v-1.3h0.6v1.3h1.3v0.6h-1.3V191.7z"/>
			<path fill="#8795A2" d="M601.2,192.9v-6h0.6v6H601.2z"/>
			<path fill="#8795A2" d="M603.3,187.8v-0.7h0.7v0.7H603.3z M603.4,192.9v-4.2h0.6v4.2H603.4z"/>
			<path fill="#8795A2" d="M607.7,188.7v0.5h-1.3v3.7h-0.6v-3.7h-0.6v-0.5h0.6v-0.4c0-0.9,0.5-1.4,1.3-1.4c0.3,0,0.5,0,0.7,0.1v0.5
				c-0.2-0.1-0.4-0.1-0.6-0.1c-0.5,0-0.7,0.3-0.7,0.9v0.3H607.7z"/>
			<path fill="#8795A2" d="M609.3,191.7c0,0.5,0.3,0.7,0.7,0.7c0.2,0,0.4,0,0.6-0.1v0.5c-0.2,0.1-0.5,0.2-0.8,0.2
				c-0.7,0-1.2-0.3-1.2-1.2v-2.5h-0.6v-0.6h0.6v-1.3h0.6v1.3h1.3v0.6h-1.3V191.7z"/>
			<path fill="#8795A2" d="M611.8,187.8v-0.7h0.7v0.7H611.8z M611.8,192.9v-4.2h0.6v4.2H611.8z"/>
			<path fill="#8795A2" d="M614.5,192.9h-0.6v-4.2h0.6v0.7c0.3-0.5,0.7-0.8,1.4-0.8c1,0,1.6,0.7,1.6,1.7v2.6H617v-2.5
				c0-0.8-0.4-1.3-1.2-1.3c-0.7,0-1.3,0.5-1.3,1.3V192.9z"/>
			<path fill="#8795A2" d="M620.8,194.2c-0.7,0-1.4-0.2-1.9-0.6l0.3-0.5c0.5,0.4,1,0.5,1.6,0.5c0.9,0,1.5-0.5,1.5-1.5v-0.5
				c-0.4,0.5-0.9,0.9-1.7,0.9c-1,0-2-0.8-2-2c0-1.2,1-2,2-2c0.8,0,1.3,0.4,1.6,0.8v-0.8h0.6v3.5
				C622.9,193.5,622.1,194.2,620.8,194.2z M620.8,189.2c-0.8,0-1.5,0.5-1.5,1.4c0,0.9,0.7,1.4,1.5,1.4c0.8,0,1.6-0.6,1.6-1.4
				C622.3,189.7,621.6,189.2,620.8,189.2z"/>
			<path fill="#8795A2" d="M574.5,211.6h-0.7v-2.3l-2.4-3.5h0.8l1.9,2.9l1.9-2.9h0.8l-2.4,3.4V211.6z"/>
			<path fill="#8795A2" d="M578.8,211.7c-1.3,0-2.2-1-2.2-2.2c0-1.2,0.9-2.2,2.2-2.2c1.3,0,2.2,1,2.2,2.2S580.1,211.7,578.8,211.7z
				 M578.8,207.8c-0.9,0-1.5,0.7-1.5,1.6s0.7,1.6,1.6,1.6c0.9,0,1.6-0.7,1.6-1.6C580.4,208.6,579.7,207.8,578.8,207.8z"/>
			<path fill="#8795A2" d="M584,212.9c-0.7,0-1.4-0.2-1.9-0.6l0.3-0.5c0.5,0.4,1,0.5,1.6,0.5c0.9,0,1.5-0.5,1.5-1.5v-0.5
				c-0.4,0.5-0.9,0.9-1.7,0.9c-1,0-2-0.8-2-2c0-1.2,1-2,2-2c0.8,0,1.3,0.4,1.6,0.8v-0.8h0.6v3.5C586.2,212.2,585.3,212.9,584,212.9z
				 M584,207.8c-0.8,0-1.5,0.5-1.5,1.4c0,0.9,0.7,1.4,1.5,1.4c0.8,0,1.6-0.6,1.6-1.4C585.6,208.4,584.8,207.8,584,207.8z"/>
			<path fill="#8795A2" d="M587.8,208.2l-0.2-0.5c0.5-0.2,0.9-0.4,1.5-0.4c1.2,0,1.8,0.6,1.8,1.7v2.6h-0.6v-0.6
				c-0.3,0.4-0.8,0.7-1.5,0.7c-0.8,0-1.6-0.4-1.6-1.3c0-0.9,0.7-1.4,1.8-1.4c0.5,0,0.9,0.1,1.3,0.2V209c0-0.8-0.5-1.2-1.3-1.2
				C588.6,207.9,588.2,208,587.8,208.2z M587.9,210.3c0,0.5,0.5,0.8,1.1,0.8c0.8,0,1.4-0.5,1.4-1.1v-0.4c-0.3-0.1-0.7-0.2-1.2-0.2
				C588.4,209.4,587.9,209.8,587.9,210.3z"/>
			<path fill="#8795A2" d="M576.3,224.5h0.6v5.7h-0.5l-3.7-4.7v4.7h-0.6v-5.7h0.6l3.6,4.6V224.5z"/>
			<path fill="#8795A2" d="M581.4,226h0.6v4.2h-0.6v-0.7c-0.3,0.5-0.7,0.8-1.4,0.8c-1,0-1.6-0.7-1.6-1.7V226h0.6v2.5
				c0,0.8,0.4,1.3,1.2,1.3c0.7,0,1.3-0.5,1.3-1.3V226z"/>
			<path fill="#8795A2" d="M584.3,229c0,0.5,0.3,0.7,0.7,0.7c0.2,0,0.4,0,0.6-0.1v0.5c-0.2,0.1-0.5,0.2-0.8,0.2
				c-0.7,0-1.2-0.3-1.2-1.2v-2.5h-0.6V226h0.6v-1.3h0.6v1.3h1.3v0.6h-1.3V229z"/>
			<path fill="#8795A2" d="M587.4,230.2h-0.6V226h0.6v1.1c0.3-0.7,0.9-1.2,1.7-1.2v0.7h0c-0.9,0-1.7,0.7-1.7,1.9V230.2z"/>
			<path fill="#8795A2" d="M590,225.1v-0.7h0.7v0.7H590z M590.1,230.2V226h0.6v4.2H590.1z"/>
			<path fill="#8795A2" d="M593,229c0,0.5,0.3,0.7,0.7,0.7c0.2,0,0.4,0,0.6-0.1v0.5c-0.2,0.1-0.5,0.2-0.8,0.2
				c-0.7,0-1.2-0.3-1.2-1.2v-2.5h-0.6V226h0.6v-1.3h0.6v1.3h1.3v0.6H593V229z"/>
			<path fill="#8795A2" d="M595.5,225.1v-0.7h0.7v0.7H595.5z M595.5,230.2V226h0.6v4.2H595.5z"/>
			<path fill="#8795A2" d="M599.5,230.3c-1.3,0-2.2-1-2.2-2.2c0-1.2,0.9-2.2,2.2-2.2c1.3,0,2.2,1,2.2,2.2S600.8,230.3,599.5,230.3z
				 M599.5,226.5c-0.9,0-1.5,0.7-1.5,1.6s0.7,1.6,1.6,1.6c0.9,0,1.6-0.7,1.6-1.6C601.1,227.2,600.4,226.5,599.5,226.5z"/>
			<path fill="#8795A2" d="M603.5,230.2h-0.6V226h0.6v0.7c0.3-0.5,0.7-0.8,1.4-0.8c1,0,1.6,0.7,1.6,1.7v2.6h-0.6v-2.5
				c0-0.8-0.4-1.3-1.2-1.3c-0.7,0-1.3,0.5-1.3,1.3V230.2z"/>
			<path fill="#8795A2" d="M574.1,245.7c1.3,0.3,1.9,0.7,1.9,1.6c0,1-0.8,1.6-2,1.6c-0.9,0-1.6-0.3-2.3-0.9l0.4-0.5
				c0.6,0.5,1.2,0.8,2,0.8c0.8,0,1.3-0.4,1.3-1c0-0.5-0.3-0.8-1.5-1.1c-1.3-0.3-1.9-0.7-1.9-1.7c0-0.9,0.8-1.6,1.9-1.6
				c0.8,0,1.4,0.2,2,0.7l-0.4,0.5c-0.5-0.4-1.1-0.6-1.6-0.6c-0.7,0-1.2,0.4-1.2,0.9C572.6,245.2,572.9,245.5,574.1,245.7z"/>
			<path fill="#8795A2" d="M578,247.7c0,0.5,0.3,0.7,0.7,0.7c0.2,0,0.4,0,0.6-0.1v0.5c-0.2,0.1-0.5,0.2-0.8,0.2
				c-0.7,0-1.2-0.3-1.2-1.2v-2.5h-0.6v-0.6h0.6v-1.3h0.6v1.3h1.3v0.6H578V247.7z"/>
			<path fill="#8795A2" d="M581.1,248.9h-0.6v-4.2h0.6v1.1c0.3-0.7,0.9-1.2,1.7-1.2v0.7h0c-0.9,0-1.7,0.7-1.7,1.9V248.9z"/>
			<path fill="#8795A2" d="M585.4,248.4c0.6,0,1-0.2,1.3-0.6l0.4,0.4c-0.4,0.5-0.9,0.8-1.7,0.8c-1.2,0-2.1-0.9-2.1-2.2
				c0-1.2,0.9-2.2,2-2.2c1.2,0,2,1,2,2.2c0,0.1,0,0.1,0,0.2h-3.3C584,247.9,584.7,248.4,585.4,248.4z M586.7,246.5
				c-0.1-0.8-0.5-1.4-1.3-1.4c-0.7,0-1.3,0.6-1.4,1.4H586.7z"/>
			<path fill="#8795A2" d="M589.8,249c-0.6,0-1.3-0.2-1.7-0.6l0.3-0.4c0.5,0.3,1,0.5,1.5,0.5c0.5,0,0.9-0.3,0.9-0.7v0
				c0-0.4-0.5-0.6-1.1-0.7c-0.7-0.2-1.4-0.4-1.4-1.2v0c0-0.7,0.6-1.2,1.4-1.2c0.5,0,1.1,0.2,1.5,0.5l-0.3,0.5
				c-0.4-0.3-0.8-0.4-1.2-0.4c-0.5,0-0.8,0.3-0.8,0.6v0c0,0.4,0.5,0.6,1.1,0.7c0.7,0.2,1.4,0.4,1.4,1.2v0
				C591.3,248.5,590.6,249,589.8,249z"/>
			<path fill="#8795A2" d="M593.8,249c-0.6,0-1.3-0.2-1.7-0.6l0.3-0.4c0.5,0.3,1,0.5,1.5,0.5c0.5,0,0.9-0.3,0.9-0.7v0
				c0-0.4-0.5-0.6-1.1-0.7c-0.7-0.2-1.4-0.4-1.4-1.2v0c0-0.7,0.6-1.2,1.4-1.2c0.5,0,1.1,0.2,1.5,0.5l-0.3,0.5
				c-0.4-0.3-0.8-0.4-1.2-0.4c-0.5,0-0.8,0.3-0.8,0.6v0c0,0.4,0.5,0.6,1.1,0.7c0.7,0.2,1.4,0.4,1.4,1.2v0
				C595.3,248.5,594.6,249,593.8,249z"/>
			<path fill="#8795A2" d="M574.1,264.4c1.3,0.3,1.9,0.7,1.9,1.6c0,1-0.8,1.6-2,1.6c-0.9,0-1.6-0.3-2.3-0.9l0.4-0.5
				c0.6,0.5,1.2,0.8,2,0.8c0.8,0,1.3-0.4,1.3-1c0-0.5-0.3-0.8-1.5-1.1c-1.3-0.3-1.9-0.7-1.9-1.7c0-0.9,0.8-1.6,1.9-1.6
				c0.8,0,1.4,0.2,2,0.7l-0.4,0.5c-0.5-0.4-1.1-0.6-1.6-0.6c-0.7,0-1.2,0.4-1.2,0.9C572.6,263.8,572.9,264.1,574.1,264.4z"/>
			<path fill="#8795A2" d="M577.2,267.5v-6h0.6v6H577.2z"/>
			<path fill="#8795A2" d="M581.2,267.1c0.6,0,1-0.2,1.3-0.6l0.4,0.4c-0.4,0.5-0.9,0.8-1.7,0.8c-1.2,0-2.1-0.9-2.1-2.2
				c0-1.2,0.9-2.2,2-2.2c1.2,0,2,1,2,2.2c0,0.1,0,0.1,0,0.2h-3.3C579.8,266.6,580.4,267.1,581.2,267.1z M582.4,265.2
				c-0.1-0.8-0.5-1.4-1.3-1.4c-0.7,0-1.3,0.6-1.4,1.4H582.4z"/>
			<path fill="#8795A2" d="M586,267.1c0.6,0,1-0.2,1.3-0.6l0.4,0.4c-0.4,0.5-0.9,0.8-1.7,0.8c-1.2,0-2.1-0.9-2.1-2.2
				c0-1.2,0.9-2.2,2-2.2c1.2,0,2,1,2,2.2c0,0.1,0,0.1,0,0.2h-3.3C584.6,266.6,585.3,267.1,586,267.1z M587.3,265.2
				c-0.1-0.8-0.5-1.4-1.3-1.4c-0.7,0-1.3,0.6-1.4,1.4H587.3z"/>
			<path fill="#8795A2" d="M591.2,267.6c-0.8,0-1.3-0.4-1.6-0.9v2.1H589v-5.5h0.6v0.8c0.3-0.5,0.8-0.9,1.6-0.9c1,0,2,0.8,2,2.2
				C593.2,266.8,592.3,267.6,591.2,267.6z M591.1,263.8c-0.8,0-1.5,0.7-1.5,1.6c0,1,0.7,1.6,1.5,1.6c0.8,0,1.5-0.6,1.5-1.6
				C592.6,264.4,591.9,263.8,591.1,263.8z"/>
			<path fill="#8795A2" d="M575.5,280.5h0.5l1.6,4.8l1.6-4.8h0.7l-2,5.8h-0.5l-1.6-4.6l-1.6,4.6h-0.5l-2-5.8h0.7l1.6,4.8
				L575.5,280.5z"/>
			<path fill="#8795A2" d="M582.3,285.8c0.6,0,1-0.2,1.3-0.6l0.4,0.4c-0.4,0.5-0.9,0.8-1.7,0.8c-1.2,0-2.1-0.9-2.1-2.2
				c0-1.2,0.9-2.2,2-2.2c1.2,0,2,1,2,2.2c0,0.1,0,0.1,0,0.2h-3.3C580.9,285.2,581.6,285.8,582.3,285.8z M583.6,283.9
				c-0.1-0.8-0.5-1.4-1.3-1.4c-0.7,0-1.3,0.6-1.4,1.4H583.6z"/>
			<path fill="#8795A2" d="M585.3,281.1v-0.7h0.7v0.7H585.3z M585.3,286.2V282h0.6v4.2H585.3z"/>
			<path fill="#8795A2" d="M589.3,287.5c-0.7,0-1.4-0.2-1.9-0.6l0.3-0.5c0.5,0.4,1,0.5,1.6,0.5c0.9,0,1.5-0.5,1.5-1.5V285
				c-0.4,0.5-0.9,0.9-1.7,0.9c-1,0-2-0.8-2-2c0-1.2,1-2,2-2c0.8,0,1.3,0.4,1.6,0.8V282h0.6v3.5C591.5,286.8,590.6,287.5,589.3,287.5
				z M589.3,282.4c-0.8,0-1.5,0.5-1.5,1.4c0,0.9,0.7,1.4,1.5,1.4c0.8,0,1.6-0.6,1.6-1.4C590.8,283,590.1,282.4,589.3,282.4z"/>
			<path fill="#8795A2" d="M593.5,286.2h-0.6v-6h0.6v2.5c0.3-0.5,0.7-0.8,1.4-0.8c1,0,1.6,0.7,1.6,1.7v2.6h-0.6v-2.5
				c0-0.8-0.4-1.3-1.2-1.3c-0.7,0-1.3,0.5-1.3,1.3V286.2z"/>
			<path fill="#8795A2" d="M598.7,285c0,0.5,0.3,0.7,0.7,0.7c0.2,0,0.4,0,0.6-0.1v0.5c-0.2,0.1-0.5,0.2-0.8,0.2
				c-0.7,0-1.2-0.3-1.2-1.2v-2.5h-0.6V282h0.6v-1.3h0.6v1.3h1.3v0.6h-1.3V285z"/>
			<path fill="#8795A2" d="M601.2,286.2v-6h0.6v6H601.2z"/>
			<path fill="#8795A2" d="M605.2,286.3c-1.3,0-2.2-1-2.2-2.2c0-1.2,0.9-2.2,2.2-2.2c1.3,0,2.2,1,2.2,2.2S606.5,286.3,605.2,286.3z
				 M605.2,282.4c-0.9,0-1.5,0.7-1.5,1.6s0.7,1.6,1.6,1.6c0.9,0,1.6-0.7,1.6-1.6C606.8,283.2,606.1,282.4,605.2,282.4z"/>
			<path fill="#8795A2" d="M610,286.3c-0.6,0-1.3-0.2-1.7-0.6l0.3-0.4c0.5,0.3,1,0.5,1.5,0.5c0.5,0,0.9-0.3,0.9-0.7v0
				c0-0.4-0.5-0.6-1.1-0.7c-0.7-0.2-1.4-0.4-1.4-1.2v0c0-0.7,0.6-1.2,1.4-1.2c0.5,0,1.1,0.2,1.5,0.5l-0.3,0.5
				c-0.4-0.3-0.8-0.4-1.2-0.4c-0.5,0-0.8,0.3-0.8,0.6v0c0,0.4,0.5,0.6,1.1,0.7c0.7,0.2,1.4,0.4,1.4,1.2v0
				C611.5,285.8,610.8,286.3,610,286.3z"/>
			<path fill="#8795A2" d="M614,286.3c-0.6,0-1.3-0.2-1.7-0.6l0.3-0.4c0.5,0.3,1,0.5,1.5,0.5c0.5,0,0.9-0.3,0.9-0.7v0
				c0-0.4-0.5-0.6-1.1-0.7c-0.7-0.2-1.4-0.4-1.4-1.2v0c0-0.7,0.6-1.2,1.4-1.2c0.5,0,1.1,0.2,1.5,0.5l-0.3,0.5
				c-0.4-0.3-0.8-0.4-1.2-0.4c-0.5,0-0.8,0.3-0.8,0.6v0c0,0.4,0.5,0.6,1.1,0.7c0.7,0.2,1.4,0.4,1.4,1.2v0
				C615.5,285.8,614.8,286.3,614,286.3z"/>
		</g>
	</g>
	<g>
		<g>
			<path fill="#8795A2" d="M28.7,78.7c-0.8,0-1.4-0.4-1.8-0.9l0.6-0.7c0.3,0.4,0.6,0.6,1.1,0.6c0.5,0,0.9-0.3,0.9-1.1v-3.6h1v3.6
				C30.6,78.1,29.8,78.7,28.7,78.7z"/>
			<path fill="#8795A2" d="M37.7,78.6h-1l-0.6-1.3h-2.6L33,78.6h-1l2.4-5.5h0.9L37.7,78.6z M34.9,74.2l-0.9,2.2h1.9L34.9,74.2z"/>
			<path fill="#8795A2" d="M43.3,73.1h1v5.5h-0.8l-3-3.9v3.9h-1v-5.5h0.9l2.9,3.8V73.1z"/>
			<path fill="#8795A2" d="M50.6,73.1h0.7v5.5h-1v-4.6l-1,0.3l-0.2-0.8L50.6,73.1z"/>
			<path fill="#8795A2" d="M57,73.1v3.5h0.8v0.8H57v1.2H56v-1.2h-2.8l-0.2-0.7l3.1-3.6H57z M56,74.4l-1.8,2.2H56V74.4z"/>
		</g>
	</g>
	<g>
		<g>
			<path fill="#8795A2" d="M489.2,78.7c-0.8,0-1.4-0.4-1.8-0.9l0.6-0.7c0.3,0.4,0.6,0.6,1.1,0.6c0.5,0,0.9-0.3,0.9-1.1v-3.6h1v3.6
				C491.1,78.1,490.3,78.7,489.2,78.7z"/>
			<path fill="#8795A2" d="M498.3,78.6h-1l-0.6-1.3h-2.6l-0.6,1.3h-1l2.4-5.5h0.9L498.3,78.6z M495.4,74.2l-0.9,2.2h1.9L495.4,74.2z
				"/>
			<path fill="#8795A2" d="M503.8,73.1h1v5.5H504l-3-3.9v3.9h-1v-5.5h0.9l2.9,3.8V73.1z"/>
			<path fill="#8795A2" d="M511.1,73.1h0.7v5.5h-1v-4.6l-1,0.3l-0.2-0.8L511.1,73.1z"/>
			<path fill="#8795A2" d="M514.2,73.1h3.3V74H515l-0.1,1.3c0.3-0.1,0.5-0.2,0.9-0.2c1.1,0,1.9,0.6,1.9,1.7c0,1.1-0.8,1.9-2,1.9
				c-0.8,0-1.5-0.3-2-0.8l0.6-0.7c0.4,0.4,0.9,0.7,1.4,0.7c0.7,0,1.1-0.4,1.1-1c0-0.6-0.5-0.9-1.1-0.9c-0.4,0-0.7,0.1-1,0.2
				l-0.6-0.4L514.2,73.1z"/>
		</g>
	</g>
	<g>
		<g>
			<path fill="#8795A2" d="M93.2,77.3L93.2,77.3l-1.8-2.6v3.9h-1v-5.5h1l1.7,2.6l1.7-2.6h1v5.5h-1v-3.9L93.2,77.3z"/>
			<path fill="#8795A2" d="M103.4,78.6h-1l-0.6-1.3h-2.6l-0.6,1.3h-1l2.4-5.5h0.9L103.4,78.6z M100.5,74.2l-0.9,2.2h1.9L100.5,74.2z
				"/>
			<path fill="#8795A2" d="M108.6,78.6l-1.4-1.9h-1.2v1.9h-1v-5.5h2.5c1.3,0,2,0.7,2,1.7c0,0.9-0.5,1.5-1.3,1.7l1.5,2.1H108.6z
				 M107.5,74h-1.4v1.8h1.4c0.7,0,1.1-0.4,1.1-0.9C108.6,74.3,108.2,74,107.5,74z"/>
		</g>
	</g>
	<g>
		<g>
			<path fill="#8795A2" d="M225,77.3L225,77.3l-1.8-2.6v3.9h-1v-5.5h1l1.7,2.6l1.7-2.6h1v5.5h-1v-3.9L225,77.3z"/>
			<path fill="#8795A2" d="M235.1,78.6h-1l-0.6-1.3H231l-0.6,1.3h-1l2.4-5.5h0.9L235.1,78.6z M232.3,74.2l-0.9,2.2h1.9L232.3,74.2z"
				/>
			<path fill="#8795A2" d="M238.6,78.6h-1v-2.2l-2.2-3.3h1.1l1.5,2.4l1.6-2.4h1.1l-2.2,3.3V78.6z"/>
		</g>
	</g>
	<g>
		<g>
			<path fill="#8795A2" d="M292.8,78.7c-0.8,0-1.4-0.4-1.8-0.9l0.6-0.7c0.3,0.4,0.6,0.6,1.1,0.6c0.5,0,0.9-0.3,0.9-1.1v-3.6h1v3.6
				C294.6,78.1,293.9,78.7,292.8,78.7z"/>
			<path fill="#8795A2" d="M301.4,76.2c0,1.6-0.9,2.5-2.4,2.5c-1.4,0-2.3-0.8-2.3-2.4v-3.2h1v3.1c0,1,0.5,1.6,1.4,1.6
				c0.9,0,1.4-0.5,1.4-1.5v-3.2h1V76.2z"/>
			<path fill="#8795A2" d="M303.5,73.1h1v4.6h2.9v0.9h-3.9V73.1z"/>
		</g>
	</g>
	<g>
		<g>
			<path fill="#8795A2" d="M359.6,75.4c1.2,0.3,1.8,0.7,1.8,1.6c0,1-0.8,1.6-2,1.6c-0.8,0-1.6-0.3-2.3-0.9l0.6-0.7
				c0.5,0.5,1.1,0.7,1.7,0.7c0.6,0,1-0.3,1-0.7c0-0.4-0.2-0.6-1.2-0.8c-1.2-0.3-1.8-0.6-1.8-1.7c0-1,0.8-1.6,1.9-1.6
				c0.8,0,1.4,0.2,2,0.7l-0.5,0.7c-0.5-0.4-1-0.6-1.5-0.6c-0.6,0-0.9,0.3-0.9,0.7C358.3,75,358.5,75.2,359.6,75.4z"/>
			<path fill="#8795A2" d="M367.3,74h-3.1v1.4h2.8v0.9h-2.8v1.5h3.2v0.9h-4.1v-5.5h4.1V74z"/>
			<path fill="#8795A2" d="M371.4,76.8h-1.1v1.8h-1v-5.5h2.2c1.3,0,2.1,0.7,2.1,1.8C373.6,76.2,372.6,76.8,371.4,76.8z M371.4,74
				h-1.1v2h1.1c0.7,0,1.2-0.4,1.2-1C372.6,74.3,372.1,74,371.4,74z"/>
		</g>
	</g>
	<g>
		<g>
			<path fill="#8795A2" d="M431.5,73.1h1v5.5h-0.8l-3-3.9v3.9h-1v-5.5h0.9l2.9,3.8V73.1z"/>
			<path fill="#8795A2" d="M437.2,78.7c-1.7,0-2.9-1.3-2.9-2.8c0-1.6,1.2-2.9,2.9-2.9s2.9,1.3,2.9,2.8
				C440.1,77.4,438.9,78.7,437.2,78.7z M437.2,73.9c-1.1,0-1.9,0.9-1.9,1.9c0,1.1,0.8,2,1.9,2c1.1,0,1.9-0.9,1.9-1.9
				C439.1,74.8,438.3,73.9,437.2,73.9z"/>
			<path fill="#8795A2" d="M445.7,73.1h1l-2.3,5.5h-0.8l-2.3-5.5h1.1l1.7,4.2L445.7,73.1z"/>
		</g>
	</g>
	<g>
		<g>
			<path fill="#8795A2" d="M159.8,78.6h-1l-0.6-1.3h-2.6l-0.6,1.3h-1l2.4-5.5h0.9L159.8,78.6z M156.9,74.2l-0.9,2.2h1.9L156.9,74.2z
				"/>
			<path fill="#8795A2" d="M163.5,76.8h-1.1v1.8h-1v-5.5h2.2c1.3,0,2.1,0.7,2.1,1.8C165.7,76.2,164.8,76.8,163.5,76.8z M163.6,74
				h-1.1v2h1.1c0.7,0,1.2-0.4,1.2-1C164.8,74.3,164.3,74,163.6,74z"/>
			<path fill="#8795A2" d="M171,78.6l-1.4-1.9h-1.2v1.9h-1v-5.5h2.5c1.3,0,2,0.7,2,1.7c0,0.9-0.5,1.5-1.3,1.7l1.5,2.1H171z
				 M169.9,74h-1.4v1.8h1.4c0.7,0,1.1-0.4,1.1-0.9C171,74.3,170.6,74,169.9,74z"/>
		</g>
	</g>
	<line fill="none" stroke="#BDCCD4" stroke-width="0.8533" stroke-miterlimit="10" x1="26.3" y1="53.4" x2="631.6" y2="53.4"/>
	<g>
		<rect x="43.4" y="18.9" fill-rule="evenodd" clip-rule="evenodd" fill="none" width="197.1" height="18.3"/>
		<path fill="#0277BD" d="M51.1,35.7c-3.7,0-6.4-2.9-6.4-6.6c0-3.7,2.7-6.7,6.5-6.7c2.3,0,3.7,0.8,5,2l-1,1.1c-1.1-1-2.3-1.8-4-1.8
			c-2.8,0-5,2.3-5,5.3s2.1,5.3,5,5.3c1.8,0,2.9-0.7,4.1-1.9l1,0.9C54.9,34.8,53.4,35.7,51.1,35.7z"/>
		<path fill="#0277BD" d="M60,35.5h-1.4V22.1H60v5.6c0.6-1,1.6-1.9,3.2-1.9c2.3,0,3.6,1.5,3.6,3.8v5.9h-1.4v-5.5
			c0-1.8-1-2.9-2.6-2.9c-1.6,0-2.8,1.2-2.8,3V35.5z"/>
		<path fill="#0277BD" d="M70.4,27.8L70,26.7c1-0.5,2.1-0.8,3.4-0.8c2.6,0,4,1.3,4,3.8v5.8h-1.4V34c-0.7,0.9-1.8,1.6-3.4,1.6
			c-1.8,0-3.5-1-3.5-3c0-2,1.6-3.1,4-3.1c1.2,0,2.1,0.2,2.9,0.4v-0.3c0-1.7-1-2.6-2.8-2.6C72.1,27.1,71.3,27.4,70.4,27.8z
			 M70.5,32.7c0,1.2,1.1,1.9,2.4,1.9c1.7,0,3.2-1.1,3.2-2.6v-0.9c-0.7-0.2-1.6-0.4-2.8-0.4C71.5,30.7,70.5,31.4,70.5,32.7z"/>
		<path fill="#0277BD" d="M80.6,35.5V22.1H82v13.4H80.6z"/>
		<path fill="#0277BD" d="M85.4,35.5V22.1h1.4v13.4H85.4z"/>
		<path fill="#0277BD" d="M94.3,34.5c1.3,0,2.2-0.5,3-1.3l0.9,0.8c-1,1.1-2.1,1.8-3.9,1.8c-2.6,0-4.7-2-4.7-4.9
			c0-2.7,1.9-4.9,4.5-4.9c2.8,0,4.4,2.2,4.4,5c0,0.1,0,0.3,0,0.4h-7.5C91.1,33.3,92.6,34.5,94.3,34.5z M97,30.2
			c-0.1-1.7-1.1-3.2-3-3.2c-1.6,0-2.9,1.4-3.1,3.2H97z"/>
		<path fill="#0277BD" d="M102.3,35.5h-1.4V26h1.4v1.6c0.6-1,1.6-1.9,3.2-1.9c2.3,0,3.6,1.5,3.6,3.8v5.9h-1.4v-5.5
			c0-1.8-1-2.9-2.6-2.9c-1.6,0-2.8,1.2-2.8,3V35.5z"/>
		<path fill="#0277BD" d="M116.4,38.4c-1.6,0-3-0.4-4.3-1.3l0.6-1.1c1.1,0.8,2.3,1.2,3.6,1.2c2.1,0,3.4-1.2,3.4-3.4v-1.1
			c-0.8,1.1-2,2-3.7,2c-2.3,0-4.5-1.7-4.5-4.5c0-2.8,2.2-4.5,4.5-4.5c1.8,0,2.9,0.9,3.7,1.9V26h1.4v7.8
			C121.2,36.9,119.3,38.4,116.4,38.4z M116.4,27c-1.8,0-3.3,1.2-3.3,3.2c0,1.9,1.5,3.2,3.3,3.2c1.8,0,3.5-1.3,3.5-3.2
			C119.9,28.3,118.2,27,116.4,27z"/>
		<path fill="#0277BD" d="M128.6,34.5c1.3,0,2.2-0.5,3-1.3l0.9,0.8c-1,1.1-2.1,1.8-3.9,1.8c-2.6,0-4.7-2-4.7-4.9
			c0-2.7,1.9-4.9,4.5-4.9c2.8,0,4.4,2.2,4.4,5c0,0.1,0,0.3,0,0.4h-7.5C125.4,33.3,126.9,34.5,128.6,34.5z M131.3,30.2
			c-0.1-1.7-1.1-3.2-3-3.2c-1.6,0-2.9,1.4-3.1,3.2H131.3z"/>
		<path fill="#0277BD" d="M145.5,31h-3.1v4.5H141V22.7h4.8c2.9,0,4.8,1.5,4.8,4.1C150.6,29.5,148.3,31,145.5,31z M145.7,24h-3.2v5.6
			h3.2c2.1,0,3.5-1.1,3.5-2.8C149.1,24.9,147.7,24,145.7,24z"/>
		<path fill="#0277BD" d="M154.4,35.5H153V26h1.4v2.5c0.7-1.6,2.1-2.7,3.9-2.6v1.5h-0.1c-2.1,0-3.8,1.5-3.8,4.3V35.5z"/>
		<path fill="#0277BD" d="M164.2,34.5c1.3,0,2.2-0.5,3-1.3l0.9,0.8c-1,1.1-2.1,1.8-3.9,1.8c-2.6,0-4.7-2-4.7-4.9
			c0-2.7,1.9-4.9,4.5-4.9c2.8,0,4.4,2.2,4.4,5c0,0.1,0,0.3,0,0.4h-7.5C161,33.3,162.5,34.5,164.2,34.5z M166.9,30.2
			c-0.1-1.7-1.1-3.2-3-3.2c-1.6,0-2.9,1.4-3.1,3.2H166.9z"/>
		<path fill="#0277BD" d="M175.8,26v1.2h-3v8.2h-1.4v-8.2h-1.3V26h1.3v-0.8c0-2.1,1-3.2,2.9-3.2c0.7,0,1.1,0.1,1.6,0.2v1.2
			c-0.5-0.1-0.9-0.2-1.4-0.2c-1.1,0-1.6,0.7-1.6,2V26H175.8z"/>
		<path fill="#0277BD" d="M181.6,34.5c1.3,0,2.2-0.5,3-1.3l0.9,0.8c-1,1.1-2.1,1.8-3.9,1.8c-2.6,0-4.7-2-4.7-4.9
			c0-2.7,1.9-4.9,4.5-4.9c2.8,0,4.4,2.2,4.4,5c0,0.1,0,0.3,0,0.4h-7.5C178.4,33.3,179.9,34.5,181.6,34.5z M184.3,30.2
			c-0.1-1.7-1.1-3.2-3-3.2c-1.6,0-2.9,1.4-3.1,3.2H184.3z"/>
		<path fill="#0277BD" d="M189.6,35.5h-1.4V26h1.4v2.5c0.7-1.6,2.1-2.7,3.9-2.6v1.5h-0.1c-2.1,0-3.8,1.5-3.8,4.3V35.5z"/>
		<path fill="#0277BD" d="M199.4,34.5c1.3,0,2.2-0.5,3-1.3l0.9,0.8c-1,1.1-2.1,1.8-3.9,1.8c-2.6,0-4.7-2-4.7-4.9
			c0-2.7,1.9-4.9,4.5-4.9c2.8,0,4.4,2.2,4.4,5c0,0.1,0,0.3,0,0.4h-7.5C196.3,33.3,197.8,34.5,199.4,34.5z M202.2,30.2
			c-0.1-1.7-1.1-3.2-3-3.2c-1.6,0-2.9,1.4-3.1,3.2H202.2z"/>
		<path fill="#0277BD" d="M207.5,35.5h-1.4V26h1.4v1.6c0.6-1,1.6-1.9,3.2-1.9c2.3,0,3.6,1.5,3.6,3.8v5.9H213v-5.5
			c0-1.8-1-2.9-2.6-2.9c-1.6,0-2.8,1.2-2.8,3V35.5z"/>
		<path fill="#0277BD" d="M221.6,35.7c-2.8,0-4.9-2.3-4.9-4.9c0-2.7,2.1-5,4.9-5c1.8,0,2.9,0.8,3.8,1.7l-0.9,1
			c-0.8-0.8-1.6-1.4-2.9-1.4c-1.9,0-3.4,1.6-3.4,3.7c0,2.1,1.5,3.7,3.5,3.7c1.2,0,2.1-0.6,2.9-1.4l0.9,0.8
			C224.6,34.9,223.4,35.7,221.6,35.7z"/>
		<path fill="#0277BD" d="M231.7,34.5c1.3,0,2.2-0.5,3-1.3l0.9,0.8c-1,1.1-2.1,1.8-3.9,1.8c-2.6,0-4.7-2-4.7-4.9
			c0-2.7,1.9-4.9,4.5-4.9c2.8,0,4.4,2.2,4.4,5c0,0.1,0,0.3,0,0.4h-7.5C228.6,33.3,230.1,34.5,231.7,34.5z M234.5,30.2
			c-0.1-1.7-1.1-3.2-3-3.2c-1.6,0-2.9,1.4-3.1,3.2H234.5z"/>
	</g>
	
		<line fill-rule="evenodd" clip-rule="evenodd" fill="none" stroke="#ECECFB" stroke-width="0.8393" stroke-linecap="round" stroke-linejoin="round" stroke-miterlimit="10" x1="431" y1="90.6" x2="431" y2="283.9"/>
	
		<line fill-rule="evenodd" clip-rule="evenodd" fill="none" stroke="#ECECFB" stroke-width="0.8393" stroke-linecap="round" stroke-linejoin="round" stroke-miterlimit="10" x1="464.4" y1="91" x2="464.4" y2="284.4"/>
	
		<line fill-rule="evenodd" clip-rule="evenodd" fill="none" stroke="#ECECFB" stroke-width="0.8393" stroke-linecap="round" stroke-linejoin="round" stroke-miterlimit="10" x1="497.9" y1="91" x2="497.9" y2="284.4"/>
	
		<line fill-rule="evenodd" clip-rule="evenodd" fill="none" stroke="#ECECFB" stroke-width="0.8393" stroke-linecap="round" stroke-linejoin="round" stroke-miterlimit="10" x1="531.3" y1="91" x2="531.3" y2="284.4"/>
	
		<line fill-rule="evenodd" clip-rule="evenodd" fill="none" stroke="#ECECFB" stroke-width="0.8393" stroke-linecap="round" stroke-linejoin="round" stroke-miterlimit="10" x1="230.4" y1="90.6" x2="230.4" y2="283.9"/>
	
		<line fill-rule="evenodd" clip-rule="evenodd" fill="none" stroke="#ECECFB" stroke-width="0.8393" stroke-linecap="round" stroke-linejoin="round" stroke-miterlimit="10" x1="263.8" y1="91" x2="263.8" y2="284.4"/>
	
		<line fill-rule="evenodd" clip-rule="evenodd" fill="none" stroke="#ECECFB" stroke-width="0.8393" stroke-linecap="round" stroke-linejoin="round" stroke-miterlimit="10" x1="297.3" y1="91" x2="297.3" y2="284.4"/>
	
		<line fill-rule="evenodd" clip-rule="evenodd" fill="none" stroke="#ECECFB" stroke-width="0.8393" stroke-linecap="round" stroke-linejoin="round" stroke-miterlimit="10" x1="330.7" y1="91" x2="330.7" y2="284.4"/>
	
		<line fill-rule="evenodd" clip-rule="evenodd" fill="none" stroke="#ECECFB" stroke-width="0.8393" stroke-linecap="round" stroke-linejoin="round" stroke-miterlimit="10" x1="364.1" y1="91" x2="364.1" y2="284.4"/>
	
		<line fill-rule="evenodd" clip-rule="evenodd" fill="none" stroke="#ECECFB" stroke-width="0.8393" stroke-linecap="round" stroke-linejoin="round" stroke-miterlimit="10" x1="397.6" y1="91" x2="397.6" y2="284.4"/>
	
		<line fill-rule="evenodd" clip-rule="evenodd" fill="none" stroke="#ECECFB" stroke-width="0.8393" stroke-linecap="round" stroke-linejoin="round" stroke-miterlimit="10" x1="29" y1="90.1" x2="29" y2="283.5"/>
	
		<line fill-rule="evenodd" clip-rule="evenodd" fill="none" stroke="#ECECFB" stroke-width="0.8393" stroke-linecap="round" stroke-linejoin="round" stroke-miterlimit="10" x1="62.4" y1="90.6" x2="62.4" y2="283.9"/>
	
		<line fill-rule="evenodd" clip-rule="evenodd" fill="none" stroke="#ECECFB" stroke-width="0.8393" stroke-linecap="round" stroke-linejoin="round" stroke-miterlimit="10" x1="95.8" y1="90.6" x2="95.8" y2="283.9"/>
	
		<line fill-rule="evenodd" clip-rule="evenodd" fill="none" stroke="#ECECFB" stroke-width="0.8393" stroke-linecap="round" stroke-linejoin="round" stroke-miterlimit="10" x1="129.3" y1="90.6" x2="129.3" y2="283.9"/>
	
		<line fill-rule="evenodd" clip-rule="evenodd" fill="none" stroke="#ECECFB" stroke-width="0.8393" stroke-linecap="round" stroke-linejoin="round" stroke-miterlimit="10" x1="162.7" y1="90.6" x2="162.7" y2="283.9"/>
	
		<line fill-rule="evenodd" clip-rule="evenodd" fill="none" stroke="#ECECFB" stroke-width="0.8393" stroke-linecap="round" stroke-linejoin="round" stroke-miterlimit="10" x1="196.1" y1="90.6" x2="196.1" y2="283.9"/>
	<g>
		<g>
			<path fill="#8795A2" d="M32,112.3h-1.2v2h-1.1v-6.2h2.5c1.4,0,2.4,0.8,2.4,2.1C34.5,111.6,33.3,112.3,32,112.3z M32,109.1h-1.3
				v2.2H32c0.8,0,1.3-0.5,1.3-1.1C33.3,109.5,32.8,109.1,32,109.1z"/>
			<path fill="#8795A2" d="M40.4,114.3l-1.5-2.2h-1.4v2.2h-1.1v-6.2h2.8c1.4,0,2.3,0.8,2.3,2c0,1-0.6,1.7-1.5,1.9l1.7,2.4H40.4z
				 M39.1,109.1h-1.6v2.1h1.6c0.8,0,1.3-0.4,1.3-1C40.4,109.4,40,109.1,39.1,109.1z"/>
			<path fill="#8795A2" d="M48.4,109.1h-3.5v1.6H48v1h-3.1v1.7h3.6v1h-4.7v-6.2h4.6V109.1z"/>
			<path fill="#8795A2" d="M55.2,109.1h-3.5v1.7h3.1v1h-3.1v2.5h-1.1v-6.2h4.6V109.1z"/>
			<path fill="#8795A2" d="M61.9,109.1h-3.5v1.6h3.1v1h-3.1v1.7H62v1h-4.7v-6.2h4.6V109.1z"/>
			<path fill="#8795A2" d="M68.1,114.3l-1.5-2.2h-1.4v2.2h-1.1v-6.2h2.8c1.4,0,2.3,0.8,2.3,2c0,1-0.6,1.7-1.5,1.9l1.7,2.4H68.1z
				 M66.8,109.1h-1.6v2.1h1.6c0.8,0,1.3-0.4,1.3-1C68.1,109.4,67.6,109.1,66.8,109.1z"/>
			<path fill="#8795A2" d="M73.9,110.7c1.3,0.3,2,0.8,2,1.8c0,1.2-0.9,1.9-2.2,1.9c-1,0-1.8-0.3-2.6-1l0.7-0.8
				c0.6,0.5,1.2,0.8,2,0.8c0.7,0,1.1-0.3,1.1-0.8c0-0.5-0.2-0.7-1.4-1c-1.3-0.3-2.1-0.7-2.1-1.9c0-1.1,0.9-1.8,2.1-1.8
				c0.9,0,1.6,0.3,2.3,0.8l-0.6,0.8c-0.6-0.4-1.1-0.6-1.7-0.6c-0.6,0-1,0.3-1,0.7C72.4,110.2,72.7,110.4,73.9,110.7z"/>
		</g>
	</g>
	<g>
		<g>
			<path fill="#8795A2" d="M32,265h-2.3v-6.2H32c2,0,3.3,1.3,3.3,3.1C35.3,263.6,33.9,265,32,265z M32,259.8h-1.2v4.2H32
				c1.3,0,2.2-0.9,2.2-2.1S33.3,259.8,32,259.8z"/>
			<path fill="#8795A2" d="M40.4,265.1c-1.9,0-3.2-1.4-3.2-3.2c0-1.8,1.4-3.2,3.3-3.2s3.2,1.4,3.2,3.2
				C43.7,263.6,42.3,265.1,40.4,265.1z M40.4,259.7c-1.2,0-2.1,1-2.1,2.2s0.9,2.2,2.1,2.2s2.1-1,2.1-2.2S41.7,259.7,40.4,259.7z"/>
			<path fill="#8795A2" d="M50.5,259.7H47v1.6h3.1v1H47v1.7h3.6v1h-4.7v-6.2h4.6V259.7z"/>
			<path fill="#8795A2" d="M55.1,261.4c1.3,0.3,2,0.8,2,1.8c0,1.2-0.9,1.9-2.2,1.9c-1,0-1.8-0.3-2.6-1l0.7-0.8
				c0.6,0.5,1.2,0.8,2,0.8c0.7,0,1.1-0.3,1.1-0.8c0-0.5-0.2-0.7-1.4-1c-1.3-0.3-2.1-0.7-2.1-1.9c0-1.1,0.9-1.8,2.1-1.8
				c0.9,0,1.6,0.3,2.3,0.8l-0.6,0.8c-0.6-0.4-1.1-0.6-1.7-0.6c-0.6,0-1,0.3-1,0.7C53.7,260.9,54,261.1,55.1,261.4z"/>
			<path fill="#8795A2" d="M67.2,258.8h1.1v6.2h-0.9l-3.4-4.4v4.4h-1.1v-6.2h1l3.3,4.3V258.8z"/>
			<path fill="#8795A2" d="M73.7,265.1c-1.9,0-3.2-1.4-3.2-3.2c0-1.8,1.4-3.2,3.3-3.2s3.2,1.4,3.2,3.2
				C77,263.6,75.6,265.1,73.7,265.1z M73.7,259.7c-1.2,0-2.1,1-2.1,2.2s0.9,2.2,2.1,2.2s2.1-1,2.1-2.2S75,259.7,73.7,259.7z"/>
			<path fill="#8795A2" d="M81.5,265h-1.1v-5.2h-2v-1h5v1h-2V265z"/>
			<path fill="#8795A2" d="M91.4,263h-1.2v2h-1.1v-6.2h2.5c1.4,0,2.4,0.8,2.4,2.1C93.9,262.3,92.8,263,91.4,263z M91.4,259.8h-1.3
				v2.2h1.3c0.8,0,1.3-0.5,1.3-1.1C92.8,260.1,92.2,259.8,91.4,259.8z"/>
			<path fill="#8795A2" d="M99.9,265l-1.5-2.2H97v2.2h-1.1v-6.2h2.8c1.4,0,2.3,0.8,2.3,2c0,1-0.6,1.7-1.5,1.9l1.7,2.4H99.9z
				 M98.6,259.8H97v2.1h1.6c0.8,0,1.3-0.4,1.3-1C99.8,260.1,99.4,259.8,98.6,259.8z"/>
			<path fill="#8795A2" d="M107.8,259.7h-3.5v1.6h3.1v1h-3.1v1.7h3.6v1h-4.7v-6.2h4.6V259.7z"/>
			<path fill="#8795A2" d="M114.6,259.8h-3.5v1.7h3.1v1h-3.1v2.5H110v-6.2h4.6V259.8z"/>
			<path fill="#8795A2" d="M121.3,259.7h-3.5v1.6h3.1v1h-3.1v1.7h3.6v1h-4.7v-6.2h4.6V259.7z"/>
			<path fill="#8795A2" d="M127.6,265l-1.5-2.2h-1.4v2.2h-1.1v-6.2h2.8c1.4,0,2.3,0.8,2.3,2c0,1-0.6,1.7-1.5,1.9l1.7,2.4H127.6z
				 M126.3,259.8h-1.6v2.1h1.6c0.8,0,1.3-0.4,1.3-1C127.5,260.1,127.1,259.8,126.3,259.8z"/>
		</g>
	</g>
	<g opacity="0.75">
		
			<line fill-rule="evenodd" clip-rule="evenodd" fill="none" stroke="#CFD8DC" stroke-width="3.3571" stroke-linecap="round" stroke-linejoin="round" stroke-miterlimit="10" x1="29.7" y1="190.9" x2="530.9" y2="190.9"/>
	</g>
	<g>
		<g>
			<g>
				<path fill="#8795A2" d="M264.2,33.1h-0.8l-0.8-1.7h-3.5l-0.8,1.7h-0.7l2.9-6.5h0.7L264.2,33.1z M260.9,27.5l-1.5,3.3h2.9
					L260.9,27.5z"/>
				<path fill="#8795A2" d="M265.4,33.1v-6.7h0.7v6.7H265.4z"/>
				<path fill="#8795A2" d="M267.8,33.1v-6.7h0.7v6.7H267.8z"/>
				<path fill="#8795A2" d="M273.9,31.8c0,0.6,0.3,0.8,0.8,0.8c0.2,0,0.4,0,0.7-0.2V33c-0.2,0.1-0.5,0.2-0.9,0.2
					c-0.8,0-1.3-0.4-1.3-1.3V29h-0.7v-0.6h0.7v-1.4h0.7v1.4h1.5V29h-1.5V31.8z"/>
				<path fill="#8795A2" d="M276.7,27.3v-0.8h0.8v0.8H276.7z M276.7,33.1v-4.8h0.7v4.8H276.7z"/>
				<path fill="#8795A2" d="M284.6,28.3c1.1,0,1.8,0.7,1.8,1.9v2.9h-0.7v-2.8c0-0.9-0.5-1.4-1.2-1.4c-0.7,0-1.3,0.5-1.3,1.5v2.7
					h-0.7v-2.8c0-0.9-0.5-1.4-1.2-1.4s-1.3,0.6-1.3,1.5v2.7h-0.7v-4.8h0.7v0.8c0.3-0.5,0.7-0.9,1.5-0.9c0.8,0,1.3,0.4,1.5,0.9
					C283.2,28.7,283.7,28.3,284.6,28.3z"/>
				<path fill="#8795A2" d="M290,32.6c0.7,0,1.1-0.3,1.5-0.7l0.4,0.4c-0.5,0.5-1.1,0.9-2,0.9c-1.3,0-2.4-1-2.4-2.5
					c0-1.4,1-2.5,2.3-2.5c1.4,0,2.2,1.1,2.2,2.5c0,0.1,0,0.1,0,0.2h-3.8C288.4,32,289.1,32.6,290,32.6z M291.4,30.5
					c-0.1-0.9-0.6-1.6-1.5-1.6c-0.8,0-1.5,0.7-1.5,1.6H291.4z"/>
			</g>
		</g>
		<polyline fill="none" stroke="#8795A2" stroke-width="0.802" points="312.3,28.5 307.3,32.5 302.3,28.5 		"/>
	</g>
	
		<polyline fill-rule="evenodd" clip-rule="evenodd" fill="none" stroke="#03A9F4" stroke-width="0.8393" stroke-linecap="round" stroke-linejoin="round" stroke-miterlimit="10" points="
		30.4,217.3 82.3,181.8 134.2,216.7 211.9,162.3 289.7,136.2 344.1,214.7 393.5,152.3 528.1,223.4 	"/>
	
		<polyline fill-rule="evenodd" clip-rule="evenodd" fill="none" stroke="#FF2838" stroke-width="0.8393" stroke-linecap="round" stroke-linejoin="round" stroke-miterlimit="10" points="
		30.4,214.7 82.3,169.3 134.2,169.3 211.9,214.7 289.7,232.2 341.6,169.3 393.5,214.7 532.3,169.3 	"/>
	
		<polyline fill-rule="evenodd" clip-rule="evenodd" fill="none" stroke="#8BC34A" stroke-width="0.8393" stroke-linecap="round" stroke-linejoin="round" stroke-miterlimit="10" points="
		30.4,171.1 84.4,214.7 133.4,144.9 210.6,153.6 287.8,232.2 339.2,153.6 390.7,214.7 531.3,140.4 	"/>
	<g>
		<circle fill-rule="evenodd" clip-rule="evenodd" fill="#90A4AE" cx="29.8" cy="23.7" r="1.8"/>
		<circle fill-rule="evenodd" clip-rule="evenodd" fill="#90A4AE" cx="29.8" cy="29.7" r="1.8"/>
		<circle fill-rule="evenodd" clip-rule="evenodd" fill="#90A4AE" cx="29.8" cy="35.6" r="1.8"/>
	</g>
</g>
<g>
</g>
<g>
</g>
<g>
</g>
<g>
</g>
<g>
</g>
<g>
</g>
<g>
</g>
<g>
</g>
<g>
</g>
<g>
</g>
<g>
</g>
<g>
</g>
<g>
</g>
<g>
</g>
<g>
</g>
</svg>
