<?xml version="1.0" encoding="utf-8"?>
<!-- Generator: Adobe Illustrator 16.0.0, SVG Export Plug-In . SVG Version: 6.00 Build 0)  -->
<!DOCTYPE svg PUBLIC "-//W3C//DTD SVG 1.1//EN" "http://www.w3.org/Graphics/SVG/1.1/DTD/svg11.dtd">
<svg version="1.1" id="Layer_1" xmlns="http://www.w3.org/2000/svg" xmlns:xlink="http://www.w3.org/1999/xlink" x="0px" y="0px"
	 width="651.836px" height="312.514px" viewBox="0 0 651.836 312.514" enable-background="new 0 0 651.836 312.514"
	 xml:space="preserve">
<g>
	<g>
		<path fill-rule="evenodd" clip-rule="evenodd" fill="#FFFFFF" d="M0.945,4.411c0-1.906,1.56-3.466,3.466-3.466h643.014
			c1.906,0,3.466,1.56,3.466,3.466v303.691c0,1.906-1.56,3.466-3.466,3.466H4.411c-1.906,0-3.466-1.56-3.466-3.466V4.411z"/>
		<path fill="none" stroke="#F5F5F5" stroke-width="1.8911" stroke-miterlimit="10" d="M0.945,4.411c0-1.906,1.56-3.466,3.466-3.466
			h643.014c1.906,0,3.466,1.56,3.466,3.466v303.691c0,1.906-1.56,3.466-3.466,3.466H4.411c-1.906,0-3.466-1.56-3.466-3.466V4.411z"
			/>
	</g>
	<circle fill-rule="evenodd" clip-rule="evenodd" fill="#F44336" cx="555.969" cy="95.586" r="4.049"/>
	<circle fill-rule="evenodd" clip-rule="evenodd" fill="#B8BABB" cx="555.969" cy="114.047" r="4.049"/>
	<circle fill-rule="evenodd" clip-rule="evenodd" fill="#B8BABB" cx="555.969" cy="132.51" r="4.049"/>
	<circle fill-rule="evenodd" clip-rule="evenodd" fill="#B8BABB" cx="555.969" cy="150.971" r="4.049"/>
	<circle fill-rule="evenodd" clip-rule="evenodd" fill="#B8BABB" cx="555.969" cy="169.432" r="4.049"/>
	<path fill-rule="evenodd" clip-rule="evenodd" fill="#B8BABB" d="M551.92,187.895c0-2.236,1.814-4.051,4.05-4.051
		s4.048,1.814,4.048,4.051c0,2.232-1.812,4.047-4.048,4.047S551.92,190.127,551.92,187.895z"/>
	<circle fill-rule="evenodd" clip-rule="evenodd" fill="#00BCD4" cx="555.969" cy="206.355" r="4.049"/>
	<path fill-rule="evenodd" clip-rule="evenodd" fill="#B8BABB" d="M551.92,224.817c0-2.237,1.814-4.05,4.05-4.05
		s4.048,1.812,4.048,4.05c0,2.233-1.812,4.048-4.048,4.048S551.92,227.051,551.92,224.817z"/>
	<path fill-rule="evenodd" clip-rule="evenodd" fill="#B8BABB" d="M551.92,243.279c0-2.234,1.814-4.051,4.05-4.051
		s4.048,1.816,4.048,4.051c0,2.232-1.812,4.049-4.048,4.049S551.92,245.512,551.92,243.279z"/>
	<circle fill-rule="evenodd" clip-rule="evenodd" fill="#FFEB3B" cx="555.969" cy="261.738" r="4.049"/>
	<path fill-rule="evenodd" clip-rule="evenodd" fill="#B8BABB" d="M551.92,280.201c0-2.234,1.814-4.051,4.05-4.051
		s4.048,1.816,4.048,4.051c0,2.232-1.812,4.051-4.048,4.051S551.92,282.434,551.92,280.201z"/>
	<g>
		<rect x="568.115" y="89.918" fill-rule="evenodd" clip-rule="evenodd" fill="none" width="54.256" height="201.183"/>
		<path fill="#546E7A" d="M571.51,97.359c-1.637,0-2.844-1.289-2.844-2.926c0-1.62,1.199-2.94,2.868-2.94
			c1.029,0,1.646,0.364,2.212,0.899l-0.438,0.47c-0.478-0.454-1.013-0.778-1.782-0.778c-1.256,0-2.195,1.013-2.195,2.334
			c0,1.32,0.947,2.35,2.195,2.35c0.777,0,1.288-0.3,1.831-0.818l0.422,0.413C573.188,96.962,572.539,97.359,571.51,97.359z"/>
		<path fill="#546E7A" d="M575.031,93.875l-0.186-0.511c0.462-0.211,0.915-0.349,1.522-0.349c1.143,0,1.783,0.584,1.783,1.686v2.561
			h-0.6V96.63c-0.292,0.381-0.778,0.721-1.516,0.721c-0.777,0-1.563-0.438-1.563-1.312c0-0.891,0.729-1.361,1.791-1.361
			c0.534,0,0.915,0.073,1.288,0.179v-0.146c0-0.753-0.462-1.142-1.248-1.142C575.81,93.567,575.421,93.696,575.031,93.875z
			 M575.104,96.014c0,0.535,0.486,0.843,1.054,0.843c0.77,0,1.401-0.47,1.401-1.134v-0.405c-0.308-0.09-0.721-0.179-1.231-0.179
			C575.542,95.139,575.104,95.479,575.104,96.014z"/>
		<path fill="#546E7A" d="M580.101,97.262h-0.623v-4.188h0.623v1.094c0.309-0.697,0.916-1.199,1.71-1.167v0.672h-0.049
			c-0.915,0-1.661,0.657-1.661,1.921V97.262z"/>
		<path fill="#546E7A" d="M585.949,97.262v-0.843c-0.341,0.503-0.835,0.932-1.604,0.932c-1.005,0-2.001-0.794-2.001-2.18
			c0-1.377,0.996-2.188,2.001-2.188c0.777,0,1.28,0.422,1.604,0.892v-2.528h0.624v5.915H585.949z M584.458,93.543
			c-0.811,0-1.475,0.6-1.475,1.62c0,0.997,0.681,1.629,1.475,1.629c0.778,0,1.516-0.648,1.516-1.629
			C585.974,94.19,585.236,93.543,584.458,93.543z"/>
		<path fill="#546E7A" d="M587.979,92.157v-0.688h0.713v0.688H587.979z M588.021,97.262v-4.188h0.623v4.188H588.021z"/>
		<path fill="#546E7A" d="M592.006,97.359c-1.256,0-2.172-0.989-2.172-2.18c0-1.191,0.924-2.196,2.188-2.196
			c1.256,0,2.18,0.988,2.18,2.18S593.27,97.359,592.006,97.359z M592.006,93.534c-0.908,0-1.532,0.722-1.532,1.629
			s0.665,1.637,1.548,1.637c0.907,0,1.54-0.721,1.54-1.62C593.562,94.264,592.889,93.534,592.006,93.534z"/>
		<path fill="#546E7A" d="M571.51,115.883c-1.637,0-2.844-1.289-2.844-2.926c0-1.62,1.199-2.94,2.868-2.94
			c1.029,0,1.646,0.364,2.212,0.899l-0.438,0.47c-0.478-0.454-1.013-0.778-1.782-0.778c-1.256,0-2.195,1.013-2.195,2.334
			c0,1.32,0.947,2.35,2.195,2.35c0.777,0,1.288-0.3,1.831-0.818l0.422,0.413C573.188,115.485,572.539,115.883,571.51,115.883z"/>
		<path fill="#546E7A" d="M576.749,115.923c-0.356,0.867-0.762,1.183-1.394,1.183c-0.348,0-0.607-0.072-0.891-0.21l0.21-0.494
			c0.203,0.104,0.39,0.153,0.656,0.153c0.373,0,0.608-0.194,0.859-0.786l-1.904-4.172h0.688l1.523,3.491l1.345-3.491h0.665
			L576.749,115.923z"/>
		<path fill="#546E7A" d="M581.139,115.883c-1.224,0-2.147-0.997-2.147-2.18c0-1.191,0.924-2.196,2.147-2.196
			c0.794,0,1.288,0.332,1.677,0.746l-0.413,0.438c-0.332-0.349-0.705-0.633-1.272-0.633c-0.851,0-1.499,0.722-1.499,1.629
			c0,0.916,0.665,1.637,1.54,1.637c0.534,0,0.948-0.268,1.28-0.624l0.396,0.373C582.427,115.542,581.924,115.883,581.139,115.883z"
			/>
		<path fill="#546E7A" d="M583.932,115.785v-5.915h0.623v5.915H583.932z"/>
		<path fill="#546E7A" d="M586.021,110.681v-0.688h0.713v0.688H586.021z M586.062,115.785v-4.188h0.623v4.188H586.062z"/>
		<path fill="#546E7A" d="M588.758,115.785h-0.623v-4.188h0.623v0.729c0.275-0.453,0.714-0.818,1.435-0.818
			c1.013,0,1.604,0.681,1.604,1.678v2.601h-0.624v-2.447c0-0.777-0.422-1.264-1.159-1.264c-0.721,0-1.256,0.526-1.256,1.312V115.785
			z"/>
		<path fill="#546E7A" d="M594.979,117.098c-0.697,0-1.346-0.194-1.904-0.583l0.283-0.486c0.479,0.349,1.013,0.534,1.612,0.534
			c0.924,0,1.523-0.51,1.523-1.49v-0.494c-0.364,0.486-0.875,0.883-1.645,0.883c-1.005,0-1.969-0.745-1.969-1.969
			c0-1.231,0.972-1.985,1.969-1.985c0.786,0,1.296,0.39,1.637,0.843v-0.753h0.624v3.459
			C597.109,116.409,596.267,117.098,594.979,117.098z M594.97,112.058c-0.794,0-1.45,0.543-1.45,1.418
			c0,0.859,0.673,1.435,1.45,1.435c0.794,0,1.54-0.567,1.54-1.426C596.51,112.617,595.764,112.058,594.97,112.058z"/>
		<path fill="#546E7A" d="M572.822,134.309l-1.645-2.204h-1.62v2.204h-0.641v-5.672h2.439c1.247,0,2.05,0.673,2.05,1.693
			c0,0.948-0.648,1.499-1.54,1.661l1.742,2.317H572.822z M571.308,129.229h-1.75v2.301h1.742c0.851,0,1.458-0.438,1.458-1.175
			C572.758,129.649,572.224,129.229,571.308,129.229z"/>
		<path fill="#546E7A" d="M577.64,130.12h0.616v4.188h-0.616v-0.729c-0.283,0.454-0.713,0.818-1.434,0.818
			c-1.013,0-1.604-0.681-1.604-1.677v-2.601h0.624v2.446c0,0.778,0.421,1.264,1.158,1.264c0.714,0,1.256-0.526,1.256-1.312V130.12z"
			/>
		<path fill="#546E7A" d="M580.278,134.309h-0.623v-4.188h0.623v0.729c0.275-0.453,0.714-0.818,1.435-0.818
			c1.013,0,1.604,0.681,1.604,1.678v2.601h-0.624v-2.447c0-0.777-0.422-1.264-1.159-1.264c-0.721,0-1.256,0.526-1.256,1.312V134.309
			z"/>
		<path fill="#546E7A" d="M585.267,134.309h-0.623v-4.188h0.623v0.729c0.275-0.453,0.714-0.818,1.435-0.818
			c1.013,0,1.604,0.681,1.604,1.678v2.601h-0.624v-2.447c0-0.777-0.422-1.264-1.159-1.264c-0.721,0-1.256,0.526-1.256,1.312V134.309
			z"/>
		<path fill="#546E7A" d="M589.647,129.204v-0.688h0.713v0.688H589.647z M589.688,134.309v-4.188h0.623v4.188H589.688z"/>
		<path fill="#546E7A" d="M592.385,134.309h-0.623v-4.188h0.623v0.729c0.275-0.453,0.714-0.818,1.435-0.818
			c1.013,0,1.604,0.681,1.604,1.678v2.601H594.8v-2.447c0-0.777-0.422-1.264-1.159-1.264c-0.721,0-1.256,0.526-1.256,1.312V134.309z
			"/>
		<path fill="#546E7A" d="M598.605,135.621c-0.697,0-1.346-0.194-1.904-0.583l0.283-0.486c0.479,0.349,1.013,0.534,1.612,0.534
			c0.924,0,1.523-0.51,1.523-1.49v-0.494c-0.364,0.486-0.875,0.883-1.645,0.883c-1.005,0-1.969-0.745-1.969-1.969
			c0-1.231,0.972-1.985,1.969-1.985c0.786,0,1.296,0.39,1.637,0.843v-0.753h0.624v3.459
			C600.736,134.933,599.894,135.621,598.605,135.621z M598.597,130.581c-0.794,0-1.45,0.543-1.45,1.418
			c0,0.859,0.673,1.435,1.45,1.435c0.794,0,1.54-0.567,1.54-1.426C600.137,131.141,599.391,130.581,598.597,130.581z"/>
		<path fill="#B8BABB" d="M570.951,149.688c1.264,0.275,1.848,0.737,1.848,1.612c0,0.98-0.811,1.612-1.937,1.612
			c-0.899,0-1.637-0.3-2.317-0.907l0.396-0.471c0.592,0.535,1.159,0.803,1.945,0.803c0.761,0,1.264-0.397,1.264-0.973
			c0-0.534-0.284-0.834-1.475-1.086c-1.305-0.283-1.904-0.704-1.904-1.645c0-0.907,0.786-1.556,1.863-1.556
			c0.827,0,1.418,0.235,1.993,0.697l-0.372,0.494c-0.527-0.43-1.054-0.616-1.637-0.616c-0.737,0-1.207,0.405-1.207,0.924
			C569.412,149.121,569.703,149.421,570.951,149.688z"/>
		<path fill="#B8BABB" d="M578.103,152.006l1.102-3.362h0.648l-1.475,4.221h-0.543l-1.126-3.306l-1.135,3.306h-0.551l-1.467-4.221
			h0.665l1.102,3.362l1.126-3.379h0.519L578.103,152.006z"/>
		<path fill="#B8BABB" d="M580.902,147.728v-0.688h0.713v0.688H580.902z M580.943,152.832v-4.188h0.623v4.188H580.943z"/>
		<path fill="#B8BABB" d="M587.812,148.554c0.965,0,1.556,0.648,1.556,1.686v2.593h-0.624v-2.447c0-0.81-0.404-1.264-1.085-1.264
			c-0.633,0-1.159,0.47-1.159,1.297v2.414h-0.615v-2.463c0-0.786-0.414-1.248-1.078-1.248s-1.167,0.551-1.167,1.32v2.391h-0.623
			v-4.188h0.623v0.704c0.275-0.413,0.648-0.794,1.354-0.794c0.681,0,1.118,0.365,1.345,0.835
			C586.638,148.927,587.084,148.554,587.812,148.554z"/>
		<path fill="#B8BABB" d="M595.514,148.554c0.965,0,1.556,0.648,1.556,1.686v2.593h-0.624v-2.447c0-0.81-0.404-1.264-1.085-1.264
			c-0.633,0-1.159,0.47-1.159,1.297v2.414h-0.615v-2.463c0-0.786-0.414-1.248-1.078-1.248s-1.167,0.551-1.167,1.32v2.391h-0.623
			v-4.188h0.623v0.704c0.275-0.413,0.648-0.794,1.354-0.794c0.681,0,1.118,0.365,1.345,0.835
			C594.339,148.927,594.785,148.554,595.514,148.554z"/>
		<path fill="#B8BABB" d="M598.435,147.728v-0.688h0.713v0.688H598.435z M598.476,152.832v-4.188h0.623v4.188H598.476z"/>
		<path fill="#B8BABB" d="M601.172,152.832h-0.623v-4.188h0.623v0.729c0.275-0.453,0.714-0.818,1.435-0.818
			c1.013,0,1.604,0.681,1.604,1.678v2.601h-0.624v-2.447c0-0.777-0.422-1.264-1.159-1.264c-0.721,0-1.256,0.526-1.256,1.312V152.832
			z"/>
		<path fill="#B8BABB" d="M607.393,154.145c-0.697,0-1.346-0.194-1.904-0.583l0.283-0.486c0.479,0.349,1.013,0.534,1.612,0.534
			c0.924,0,1.523-0.51,1.523-1.49v-0.494c-0.364,0.486-0.875,0.883-1.645,0.883c-1.005,0-1.969-0.745-1.969-1.969
			c0-1.231,0.972-1.985,1.969-1.985c0.786,0,1.296,0.39,1.637,0.843v-0.753h0.624v3.459
			C609.523,153.456,608.681,154.145,607.393,154.145z M607.384,149.104c-0.794,0-1.45,0.543-1.45,1.418
			c0,0.859,0.673,1.435,1.45,1.435c0.794,0,1.54-0.567,1.54-1.426C608.924,149.664,608.178,149.104,607.384,149.104z"/>
		<path fill="#B8BABB" d="M570.951,168.212c1.264,0.275,1.848,0.737,1.848,1.612c0,0.98-0.811,1.612-1.937,1.612
			c-0.899,0-1.637-0.3-2.317-0.907l0.396-0.471c0.592,0.535,1.159,0.803,1.945,0.803c0.761,0,1.264-0.397,1.264-0.973
			c0-0.534-0.284-0.834-1.475-1.086c-1.305-0.283-1.904-0.704-1.904-1.645c0-0.907,0.786-1.556,1.863-1.556
			c0.827,0,1.418,0.235,1.993,0.697l-0.372,0.494c-0.527-0.43-1.054-0.616-1.637-0.616c-0.737,0-1.207,0.405-1.207,0.924
			C569.412,167.645,569.703,167.944,570.951,168.212z"/>
		<path fill="#B8BABB" d="M574.795,170.164c0,0.511,0.284,0.697,0.705,0.697c0.211,0,0.389-0.041,0.607-0.146v0.534
			c-0.219,0.113-0.453,0.179-0.753,0.179c-0.673,0-1.183-0.333-1.183-1.184v-2.527h-0.584v-0.551h0.584v-1.265h0.623v1.265h1.329
			v0.551h-1.329V170.164z"/>
		<path fill="#B8BABB" d="M577.848,171.355h-0.623v-4.188h0.623v1.094c0.309-0.697,0.916-1.199,1.71-1.167v0.672h-0.049
			c-0.915,0-1.661,0.657-1.661,1.921V171.355z"/>
		<path fill="#B8BABB" d="M582.171,170.91c0.575,0,0.98-0.235,1.321-0.592l0.389,0.349c-0.422,0.47-0.932,0.786-1.726,0.786
			c-1.151,0-2.091-0.884-2.091-2.188c0-1.215,0.851-2.188,2.01-2.188c1.239,0,1.952,0.988,1.952,2.221c0,0.057,0,0.121-0.008,0.194
			h-3.322C580.785,170.399,581.434,170.91,582.171,170.91z M583.395,169.03c-0.064-0.762-0.502-1.426-1.337-1.426
			c-0.729,0-1.28,0.607-1.361,1.426H583.395z"/>
		<path fill="#B8BABB" d="M585.741,171.355h-0.623v-4.188h0.623v0.729c0.275-0.453,0.714-0.818,1.435-0.818
			c1.013,0,1.604,0.681,1.604,1.678v2.601h-0.624v-2.447c0-0.777-0.422-1.264-1.159-1.264c-0.721,0-1.256,0.526-1.256,1.312V171.355
			z"/>
		<path fill="#B8BABB" d="M591.962,172.668c-0.697,0-1.346-0.194-1.904-0.583l0.283-0.486c0.479,0.349,1.013,0.534,1.612,0.534
			c0.924,0,1.523-0.51,1.523-1.49v-0.494c-0.364,0.486-0.875,0.883-1.645,0.883c-1.005,0-1.969-0.745-1.969-1.969
			c0-1.231,0.972-1.985,1.969-1.985c0.786,0,1.296,0.39,1.637,0.843v-0.753h0.624v3.459
			C594.093,171.979,593.25,172.668,591.962,172.668z M591.953,167.628c-0.794,0-1.45,0.543-1.45,1.418
			c0,0.859,0.673,1.435,1.45,1.435c0.794,0,1.54-0.567,1.54-1.426C593.493,168.188,592.747,167.628,591.953,167.628z"/>
		<path fill="#B8BABB" d="M596.325,170.164c0,0.511,0.284,0.697,0.705,0.697c0.211,0,0.389-0.041,0.608-0.146v0.534
			c-0.22,0.113-0.454,0.179-0.754,0.179c-0.673,0-1.183-0.333-1.183-1.184v-2.527h-0.584v-0.551h0.584v-1.265h0.623v1.265h1.329
			v0.551h-1.329V170.164z"/>
		<path fill="#B8BABB" d="M599.378,171.355h-0.623v-5.915h0.623v2.455c0.275-0.453,0.714-0.818,1.435-0.818
			c1.013,0,1.604,0.681,1.604,1.678v2.601h-0.624v-2.447c0-0.777-0.422-1.264-1.159-1.264c-0.721,0-1.256,0.526-1.256,1.312V171.355
			z"/>
		<path fill="#B8BABB" d="M572.353,184.191h0.527l1.556,4.739l1.62-4.724h0.673l-2.026,5.712h-0.543l-1.556-4.602l-1.563,4.602
			h-0.534l-2.026-5.712h0.697l1.62,4.724L572.353,184.191z"/>
		<path fill="#B8BABB" d="M579.095,189.434c0.575,0,0.98-0.235,1.321-0.592l0.389,0.349c-0.422,0.47-0.932,0.786-1.726,0.786
			c-1.151,0-2.091-0.884-2.091-2.188c0-1.215,0.851-2.188,2.01-2.188c1.239,0,1.952,0.988,1.952,2.221c0,0.057,0,0.121-0.008,0.194
			h-3.322C577.709,188.923,578.357,189.434,579.095,189.434z M580.318,187.554c-0.064-0.762-0.502-1.426-1.337-1.426
			c-0.729,0-1.28,0.607-1.361,1.426H580.318z"/>
		<path fill="#B8BABB" d="M582.058,184.774v-0.688h0.713v0.688H582.058z M582.099,189.879v-4.188h0.623v4.188H582.099z"/>
		<path fill="#B8BABB" d="M586.027,191.191c-0.697,0-1.346-0.194-1.904-0.583l0.283-0.486c0.479,0.349,1.013,0.534,1.612,0.534
			c0.924,0,1.523-0.51,1.523-1.49v-0.494c-0.364,0.486-0.875,0.883-1.645,0.883c-1.005,0-1.969-0.745-1.969-1.969
			c0-1.231,0.972-1.985,1.969-1.985c0.786,0,1.296,0.39,1.637,0.843v-0.753h0.624v3.459
			C588.158,190.503,587.315,191.191,586.027,191.191z M586.019,186.151c-0.794,0-1.45,0.543-1.45,1.418
			c0,0.859,0.673,1.435,1.45,1.435c0.794,0,1.54-0.567,1.54-1.426C587.559,186.711,586.812,186.151,586.019,186.151z"/>
		<path fill="#B8BABB" d="M590.172,189.879h-0.623v-5.915h0.623v2.455c0.275-0.453,0.714-0.818,1.435-0.818
			c1.013,0,1.604,0.681,1.604,1.678v2.601h-0.624v-2.447c0-0.777-0.422-1.264-1.159-1.264c-0.721,0-1.256,0.526-1.256,1.312V189.879
			z"/>
		<path fill="#B8BABB" d="M595.379,188.688c0,0.511,0.284,0.697,0.705,0.697c0.211,0,0.389-0.041,0.607-0.146v0.534
			c-0.219,0.113-0.453,0.179-0.753,0.179c-0.673,0-1.183-0.333-1.183-1.184v-2.527h-0.584v-0.551h0.584v-1.265h0.623v1.265h1.329
			v0.551h-1.329V188.688z"/>
		<path fill="#B8BABB" d="M597.865,189.879v-5.915h0.623v5.915H597.865z"/>
		<path fill="#B8BABB" d="M599.954,184.774v-0.688h0.713v0.688H599.954z M599.995,189.879v-4.188h0.623v4.188H599.995z"/>
		<path fill="#B8BABB" d="M604.247,185.706v0.535h-1.32v3.638h-0.624v-3.638h-0.575v-0.543h0.575v-0.365
			c0-0.915,0.462-1.401,1.264-1.401c0.292,0,0.486,0.032,0.689,0.105v0.543c-0.228-0.065-0.397-0.105-0.608-0.105
			c-0.485,0-0.729,0.292-0.729,0.892v0.34H604.247z"/>
		<path fill="#B8BABB" d="M605.882,188.688c0,0.511,0.284,0.697,0.705,0.697c0.211,0,0.389-0.041,0.608-0.146v0.534
			c-0.22,0.113-0.454,0.179-0.754,0.179c-0.673,0-1.183-0.333-1.183-1.184v-2.527h-0.584v-0.551h0.584v-1.265h0.623v1.265h1.329
			v0.551h-1.329V188.688z"/>
		<path fill="#B8BABB" d="M608.327,184.774v-0.688h0.713v0.688H608.327z M608.368,189.879v-4.188h0.623v4.188H608.368z"/>
		<path fill="#B8BABB" d="M611.064,189.879h-0.623v-4.188h0.623v0.729c0.275-0.453,0.714-0.818,1.435-0.818
			c1.013,0,1.604,0.681,1.604,1.678v2.601h-0.624v-2.447c0-0.777-0.422-1.264-1.159-1.264c-0.721,0-1.256,0.526-1.256,1.312V189.879
			z"/>
		<path fill="#B8BABB" d="M617.285,191.191c-0.697,0-1.346-0.194-1.904-0.583l0.283-0.486c0.479,0.349,1.013,0.534,1.612,0.534
			c0.924,0,1.523-0.51,1.523-1.49v-0.494c-0.364,0.486-0.875,0.883-1.645,0.883c-1.005,0-1.969-0.745-1.969-1.969
			c0-1.231,0.972-1.985,1.969-1.985c0.786,0,1.296,0.39,1.637,0.843v-0.753h0.624v3.459
			C619.416,190.503,618.573,191.191,617.285,191.191z M617.276,186.151c-0.794,0-1.45,0.543-1.45,1.418
			c0,0.859,0.673,1.435,1.45,1.435c0.794,0,1.54-0.567,1.54-1.426C618.816,186.711,618.07,186.151,617.276,186.151z"/>
		<path fill="#546E7A" d="M571.34,208.402h-0.648v-2.244l-2.357-3.428h0.778l1.912,2.836l1.928-2.836h0.746l-2.358,3.419V208.402z"
			/>
		<path fill="#546E7A" d="M575.631,208.5c-1.256,0-2.172-0.989-2.172-2.18c0-1.191,0.924-2.196,2.188-2.196
			c1.256,0,2.18,0.988,2.18,2.18S576.895,208.5,575.631,208.5z M575.631,204.675c-0.908,0-1.532,0.722-1.532,1.629
			s0.665,1.637,1.548,1.637c0.907,0,1.54-0.721,1.54-1.62C577.187,205.404,576.514,204.675,575.631,204.675z"/>
		<path fill="#546E7A" d="M580.806,209.715c-0.697,0-1.346-0.194-1.904-0.583l0.283-0.486c0.479,0.349,1.013,0.534,1.612,0.534
			c0.924,0,1.523-0.51,1.523-1.49v-0.494c-0.364,0.486-0.875,0.883-1.645,0.883c-1.005,0-1.969-0.745-1.969-1.969
			c0-1.231,0.972-1.985,1.969-1.985c0.786,0,1.296,0.39,1.637,0.843v-0.753h0.624v3.459
			C582.937,209.026,582.094,209.715,580.806,209.715z M580.797,204.675c-0.794,0-1.45,0.543-1.45,1.418
			c0,0.859,0.673,1.435,1.45,1.435c0.794,0,1.54-0.567,1.54-1.426C582.337,205.234,581.591,204.675,580.797,204.675z"/>
		<path fill="#546E7A" d="M584.569,205.016l-0.186-0.511c0.462-0.211,0.915-0.349,1.522-0.349c1.143,0,1.783,0.584,1.783,1.686
			v2.561h-0.6v-0.632c-0.292,0.381-0.778,0.721-1.516,0.721c-0.777,0-1.563-0.438-1.563-1.312c0-0.891,0.729-1.361,1.791-1.361
			c0.534,0,0.915,0.073,1.288,0.179v-0.146c0-0.753-0.462-1.142-1.248-1.142C585.348,204.708,584.959,204.837,584.569,205.016z
			 M584.643,207.154c0,0.535,0.486,0.843,1.054,0.843c0.77,0,1.401-0.47,1.401-1.134v-0.405c-0.308-0.09-0.721-0.179-1.231-0.179
			C585.08,206.279,584.643,206.62,584.643,207.154z"/>
		<path fill="#B8BABB" d="M573.09,221.254h0.624v5.672h-0.511l-3.662-4.65v4.65h-0.624v-5.672h0.6l3.573,4.546V221.254z"/>
		<path fill="#B8BABB" d="M578.183,222.737h0.616v4.188h-0.616v-0.729c-0.283,0.454-0.713,0.818-1.434,0.818
			c-1.013,0-1.604-0.681-1.604-1.677v-2.601h0.624v2.446c0,0.778,0.421,1.264,1.158,1.264c0.714,0,1.256-0.526,1.256-1.312V222.737z
			"/>
		<path fill="#B8BABB" d="M581.04,225.734c0,0.511,0.284,0.697,0.705,0.697c0.211,0,0.389-0.041,0.608-0.146v0.534
			c-0.22,0.113-0.454,0.179-0.754,0.179c-0.673,0-1.183-0.333-1.183-1.184v-2.527h-0.584v-0.551h0.584v-1.265h0.623v1.265h1.329
			v0.551h-1.329V225.734z"/>
		<path fill="#B8BABB" d="M584.093,226.926h-0.623v-4.188h0.623v1.094c0.309-0.697,0.916-1.199,1.71-1.167v0.672h-0.049
			c-0.915,0-1.661,0.657-1.661,1.921V226.926z"/>
		<path fill="#B8BABB" d="M586.765,221.821v-0.688h0.713v0.688H586.765z M586.806,226.926v-4.188h0.623v4.188H586.806z"/>
		<path fill="#B8BABB" d="M589.721,225.734c0,0.511,0.284,0.697,0.705,0.697c0.211,0,0.389-0.041,0.607-0.146v0.534
			c-0.219,0.113-0.453,0.179-0.753,0.179c-0.673,0-1.183-0.333-1.183-1.184v-2.527h-0.584v-0.551h0.584v-1.265h0.623v1.265h1.329
			v0.551h-1.329V225.734z"/>
		<path fill="#B8BABB" d="M592.166,221.821v-0.688h0.713v0.688H592.166z M592.207,226.926v-4.188h0.623v4.188H592.207z"/>
		<path fill="#B8BABB" d="M596.192,227.023c-1.256,0-2.172-0.989-2.172-2.18c0-1.191,0.924-2.196,2.188-2.196
			c1.256,0,2.18,0.988,2.18,2.18S597.456,227.023,596.192,227.023z M596.192,223.198c-0.908,0-1.532,0.722-1.532,1.629
			s0.665,1.637,1.548,1.637c0.907,0,1.54-0.721,1.54-1.62C597.748,223.928,597.075,223.198,596.192,223.198z"/>
		<path fill="#B8BABB" d="M600.135,226.926h-0.623v-4.188h0.623v0.729c0.275-0.453,0.714-0.818,1.435-0.818
			c1.013,0,1.604,0.681,1.604,1.678v2.601h-0.624v-2.447c0-0.777-0.422-1.264-1.159-1.264c-0.721,0-1.256,0.526-1.256,1.312V226.926
			z"/>
		<path fill="#B8BABB" d="M570.951,242.307c1.264,0.275,1.848,0.737,1.848,1.612c0,0.98-0.811,1.612-1.937,1.612
			c-0.899,0-1.637-0.3-2.317-0.907l0.396-0.47c0.592,0.534,1.159,0.802,1.945,0.802c0.761,0,1.264-0.397,1.264-0.973
			c0-0.534-0.284-0.834-1.475-1.086c-1.305-0.283-1.904-0.704-1.904-1.645c0-0.907,0.786-1.556,1.863-1.556
			c0.827,0,1.418,0.235,1.993,0.697l-0.372,0.494c-0.527-0.43-1.054-0.616-1.637-0.616c-0.737,0-1.207,0.405-1.207,0.924
			C569.412,241.739,569.703,242.039,570.951,242.307z"/>
		<path fill="#B8BABB" d="M574.795,244.259c0,0.511,0.284,0.697,0.705,0.697c0.211,0,0.389-0.041,0.607-0.146v0.534
			c-0.219,0.113-0.453,0.179-0.753,0.179c-0.673,0-1.183-0.332-1.183-1.184v-2.527h-0.584v-0.551h0.584v-1.265h0.623v1.265h1.329
			v0.551h-1.329V244.259z"/>
		<path fill="#B8BABB" d="M577.848,245.45h-0.623v-4.188h0.623v1.094c0.309-0.697,0.916-1.199,1.71-1.167v0.672h-0.049
			c-0.915,0-1.661,0.657-1.661,1.921V245.45z"/>
		<path fill="#B8BABB" d="M582.171,245.005c0.575,0,0.98-0.235,1.321-0.592l0.389,0.349c-0.422,0.47-0.932,0.786-1.726,0.786
			c-1.151,0-2.091-0.884-2.091-2.188c0-1.215,0.851-2.188,2.01-2.188c1.239,0,1.952,0.988,1.952,2.221c0,0.057,0,0.121-0.008,0.194
			h-3.322C580.785,244.494,581.434,245.005,582.171,245.005z M583.395,243.125c-0.064-0.762-0.502-1.426-1.337-1.426
			c-0.729,0-1.28,0.607-1.361,1.426H583.395z"/>
		<path fill="#B8BABB" d="M586.503,245.531c-0.6,0-1.264-0.235-1.733-0.616l0.315-0.445c0.454,0.341,0.956,0.535,1.45,0.535
			c0.503,0,0.867-0.26,0.867-0.665v-0.016c0-0.422-0.494-0.584-1.045-0.737c-0.656-0.187-1.386-0.413-1.386-1.184v-0.016
			c0-0.722,0.6-1.199,1.426-1.199c0.511,0,1.078,0.178,1.508,0.462l-0.284,0.47c-0.389-0.251-0.834-0.405-1.239-0.405
			c-0.494,0-0.811,0.26-0.811,0.607v0.017c0,0.397,0.519,0.551,1.078,0.721c0.647,0.195,1.345,0.446,1.345,1.199v0.017
			C587.994,245.069,587.338,245.531,586.503,245.531z"/>
		<path fill="#B8BABB" d="M590.454,245.531c-0.6,0-1.264-0.235-1.733-0.616l0.315-0.445c0.454,0.341,0.956,0.535,1.45,0.535
			c0.503,0,0.867-0.26,0.867-0.665v-0.016c0-0.422-0.494-0.584-1.045-0.737c-0.656-0.187-1.386-0.413-1.386-1.184v-0.016
			c0-0.722,0.6-1.199,1.426-1.199c0.511,0,1.078,0.178,1.508,0.462l-0.284,0.47c-0.389-0.251-0.834-0.405-1.239-0.405
			c-0.494,0-0.811,0.26-0.811,0.607v0.017c0,0.397,0.519,0.551,1.078,0.721c0.647,0.195,1.345,0.446,1.345,1.199v0.017
			C591.945,245.069,591.289,245.531,590.454,245.531z"/>
		<path fill="#546E7A" d="M570.951,260.83c1.264,0.275,1.848,0.737,1.848,1.612c0,0.98-0.811,1.612-1.937,1.612
			c-0.899,0-1.637-0.3-2.317-0.907l0.396-0.47c0.592,0.534,1.159,0.802,1.945,0.802c0.761,0,1.264-0.397,1.264-0.973
			c0-0.534-0.284-0.834-1.475-1.086c-1.305-0.283-1.904-0.704-1.904-1.645c0-0.907,0.786-1.556,1.863-1.556
			c0.827,0,1.418,0.235,1.993,0.697l-0.372,0.494c-0.527-0.43-1.054-0.616-1.637-0.616c-0.737,0-1.207,0.405-1.207,0.924
			C569.412,260.263,569.703,260.562,570.951,260.83z"/>
		<path fill="#546E7A" d="M574.052,263.974v-5.915h0.623v5.915H574.052z"/>
		<path fill="#546E7A" d="M577.972,263.528c0.575,0,0.98-0.235,1.321-0.592l0.389,0.349c-0.422,0.47-0.932,0.786-1.726,0.786
			c-1.151,0-2.091-0.884-2.091-2.188c0-1.215,0.851-2.188,2.01-2.188c1.239,0,1.952,0.988,1.952,2.221c0,0.057,0,0.121-0.008,0.194
			h-3.322C576.586,263.018,577.234,263.528,577.972,263.528z M579.195,261.648c-0.064-0.762-0.502-1.426-1.337-1.426
			c-0.729,0-1.28,0.607-1.361,1.426H579.195z"/>
		<path fill="#546E7A" d="M582.766,263.528c0.575,0,0.98-0.235,1.321-0.592l0.389,0.349c-0.422,0.47-0.932,0.786-1.726,0.786
			c-1.151,0-2.091-0.884-2.091-2.188c0-1.215,0.851-2.188,2.01-2.188c1.239,0,1.952,0.988,1.952,2.221c0,0.057,0,0.121-0.008,0.194
			h-3.322C581.38,263.018,582.028,263.528,582.766,263.528z M583.989,261.648c-0.064-0.762-0.502-1.426-1.337-1.426
			c-0.729,0-1.28,0.607-1.361,1.426H583.989z"/>
		<path fill="#546E7A" d="M587.94,264.062c-0.777,0-1.28-0.421-1.604-0.891v2.098h-0.623v-5.484h0.623v0.842
			c0.341-0.502,0.835-0.932,1.604-0.932c1.005,0,2.001,0.794,2.001,2.18C589.941,263.253,588.953,264.062,587.94,264.062z
			 M587.827,260.255c-0.777,0-1.515,0.647-1.515,1.62c0,0.98,0.737,1.629,1.515,1.629c0.811,0,1.475-0.6,1.475-1.621
			C589.302,260.887,588.621,260.255,587.827,260.255z"/>
		<path fill="#B8BABB" d="M572.353,276.81h0.527l1.556,4.739l1.62-4.724h0.673l-2.026,5.712h-0.543l-1.556-4.602l-1.563,4.602
			h-0.534l-2.026-5.712h0.697l1.62,4.724L572.353,276.81z"/>
		<path fill="#B8BABB" d="M579.095,282.052c0.575,0,0.98-0.235,1.321-0.592l0.389,0.349c-0.422,0.47-0.932,0.786-1.726,0.786
			c-1.151,0-2.091-0.884-2.091-2.188c0-1.215,0.851-2.188,2.01-2.188c1.239,0,1.952,0.988,1.952,2.221c0,0.057,0,0.121-0.008,0.194
			h-3.322C577.709,281.541,578.357,282.052,579.095,282.052z M580.318,280.172c-0.064-0.762-0.502-1.426-1.337-1.426
			c-0.729,0-1.28,0.607-1.361,1.426H580.318z"/>
		<path fill="#B8BABB" d="M582.058,277.393v-0.688h0.713v0.688H582.058z M582.099,282.497v-4.188h0.623v4.188H582.099z"/>
		<path fill="#B8BABB" d="M586.027,283.81c-0.697,0-1.346-0.194-1.904-0.583l0.283-0.486c0.479,0.349,1.013,0.535,1.612,0.535
			c0.924,0,1.523-0.511,1.523-1.491v-0.494c-0.364,0.486-0.875,0.883-1.645,0.883c-1.005,0-1.969-0.745-1.969-1.969
			c0-1.231,0.972-1.985,1.969-1.985c0.786,0,1.296,0.389,1.637,0.843v-0.753h0.624v3.459
			C588.158,283.121,587.315,283.81,586.027,283.81z M586.019,278.77c-0.794,0-1.45,0.543-1.45,1.418c0,0.859,0.673,1.435,1.45,1.435
			c0.794,0,1.54-0.567,1.54-1.426C587.559,279.329,586.812,278.77,586.019,278.77z"/>
		<path fill="#B8BABB" d="M590.172,282.497h-0.623v-5.915h0.623v2.455c0.275-0.453,0.714-0.818,1.435-0.818
			c1.013,0,1.604,0.681,1.604,1.678v2.601h-0.624v-2.447c0-0.777-0.422-1.264-1.159-1.264c-0.721,0-1.256,0.526-1.256,1.312V282.497
			z"/>
		<path fill="#B8BABB" d="M595.379,281.306c0,0.511,0.284,0.697,0.705,0.697c0.211,0,0.389-0.041,0.607-0.146v0.534
			c-0.219,0.113-0.453,0.179-0.753,0.179c-0.673,0-1.183-0.332-1.183-1.184v-2.527h-0.584v-0.551h0.584v-1.265h0.623v1.265h1.329
			v0.551h-1.329V281.306z"/>
		<path fill="#B8BABB" d="M597.865,282.497v-5.915h0.623v5.915H597.865z"/>
		<path fill="#B8BABB" d="M601.851,282.595c-1.256,0-2.172-0.989-2.172-2.18c0-1.191,0.924-2.196,2.188-2.196
			c1.256,0,2.18,0.988,2.18,2.18S603.114,282.595,601.851,282.595z M601.851,278.77c-0.908,0-1.532,0.722-1.532,1.629
			s0.665,1.637,1.548,1.637c0.907,0,1.54-0.721,1.54-1.62C603.406,279.499,602.733,278.77,601.851,278.77z"/>
		<path fill="#B8BABB" d="M606.555,282.578c-0.6,0-1.264-0.235-1.733-0.616l0.315-0.445c0.454,0.341,0.956,0.535,1.45,0.535
			c0.503,0,0.867-0.26,0.867-0.665v-0.016c0-0.422-0.494-0.584-1.045-0.737c-0.656-0.187-1.386-0.413-1.386-1.184v-0.016
			c0-0.722,0.6-1.199,1.426-1.199c0.511,0,1.078,0.178,1.508,0.462l-0.284,0.47c-0.389-0.251-0.834-0.405-1.239-0.405
			c-0.494,0-0.811,0.26-0.811,0.607v0.017c0,0.397,0.519,0.551,1.078,0.721c0.647,0.195,1.345,0.446,1.345,1.199v0.017
			C608.046,282.116,607.39,282.578,606.555,282.578z"/>
		<path fill="#B8BABB" d="M610.506,282.578c-0.6,0-1.264-0.235-1.733-0.616l0.315-0.445c0.454,0.341,0.956,0.535,1.45,0.535
			c0.503,0,0.867-0.26,0.867-0.665v-0.016c0-0.422-0.494-0.584-1.045-0.737c-0.656-0.187-1.386-0.413-1.386-1.184v-0.016
			c0-0.722,0.6-1.199,1.426-1.199c0.511,0,1.078,0.178,1.508,0.462l-0.284,0.47c-0.389-0.251-0.834-0.405-1.239-0.405
			c-0.494,0-0.811,0.26-0.811,0.607v0.017c0,0.397,0.519,0.551,1.078,0.721c0.647,0.195,1.345,0.446,1.345,1.199v0.017
			C611.997,282.116,611.341,282.578,610.506,282.578z"/>
	</g>
	<g>
		<g>
			<path fill="#8795A2" d="M29.459,76.476c-0.842,0-1.388-0.39-1.747-0.881l0.632-0.647c0.32,0.405,0.639,0.64,1.099,0.64
				c0.515,0,0.866-0.344,0.866-1.068v-3.579h0.982v3.603C31.292,75.836,30.536,76.476,29.459,76.476z"/>
			<path fill="#8795A2" d="M38.417,76.397h-1.014l-0.553-1.317H34.27l-0.562,1.317h-0.982l2.401-5.497h0.889L38.417,76.397z
				 M35.556,72.047l-0.936,2.183H36.5L35.556,72.047z"/>
			<path fill="#8795A2" d="M43.946,70.939h0.943v5.458h-0.803l-3.01-3.883v3.883h-0.943v-5.458h0.889l2.924,3.773V70.939z"/>
			<path fill="#8795A2" d="M51.159,70.9h0.671v5.497h-0.952v-4.522l-0.982,0.273l-0.203-0.78L51.159,70.9z"/>
			<path fill="#8795A2" d="M57.491,70.9v3.485h0.78v0.787h-0.78v1.225h-0.92v-1.225h-2.752l-0.179-0.686l3.033-3.587H57.491z
				 M56.571,72.226l-1.793,2.16h1.793V72.226z"/>
		</g>
	</g>
	<g>
		<g>
			<path fill="#8795A2" d="M486.684,76.476c-0.842,0-1.388-0.39-1.746-0.881l0.631-0.647c0.32,0.405,0.64,0.64,1.1,0.64
				c0.515,0,0.865-0.344,0.865-1.068v-3.579h0.982v3.603C488.516,75.836,487.76,76.476,486.684,76.476z"/>
			<path fill="#8795A2" d="M495.641,76.397h-1.014l-0.554-1.317h-2.581l-0.561,1.317h-0.982l2.401-5.497h0.889L495.641,76.397z
				 M492.779,72.047l-0.936,2.183h1.879L492.779,72.047z"/>
			<path fill="#8795A2" d="M501.17,70.939h0.943v5.458h-0.803l-3.01-3.883v3.883h-0.943v-5.458h0.889l2.924,3.773V70.939z"/>
			<path fill="#8795A2" d="M508.383,70.9h0.67v5.497h-0.951v-4.522l-0.982,0.273l-0.202-0.78L508.383,70.9z"/>
			<path fill="#8795A2" d="M511.47,70.939h3.26v0.85h-2.433l-0.086,1.279c0.257-0.094,0.499-0.156,0.865-0.156
				c1.068,0,1.895,0.562,1.895,1.724c0,1.122-0.811,1.855-2.02,1.855c-0.834,0-1.489-0.336-2.004-0.835l0.593-0.693
				c0.437,0.405,0.896,0.655,1.403,0.655c0.655,0,1.084-0.375,1.084-0.952c0-0.561-0.452-0.912-1.131-0.912
				c-0.39,0-0.725,0.109-1.006,0.242l-0.576-0.382L511.47,70.939z"/>
		</g>
	</g>
	<g>
		<g>
			<path fill="#8795A2" d="M93.487,75.057h-0.031l-1.708-2.558v3.898h-0.943v-5.458h1.021l1.661,2.581l1.661-2.581h1.021v5.458
				H95.21v-3.914L93.487,75.057z"/>
			<path fill="#8795A2" d="M103.577,76.397h-1.014l-0.553-1.317h-2.581l-0.562,1.317h-0.982l2.401-5.497h0.889L103.577,76.397z
				 M100.715,72.047l-0.936,2.183h1.879L100.715,72.047z"/>
			<path fill="#8795A2" d="M108.793,76.397l-1.341-1.902h-1.201v1.902h-0.959v-5.458h2.433c1.255,0,2.027,0.663,2.027,1.73
				c0,0.905-0.538,1.451-1.302,1.661l1.474,2.066H108.793z M107.647,71.812h-1.396v1.833h1.404c0.686,0,1.123-0.359,1.123-0.921
				C108.778,72.125,108.357,71.812,107.647,71.812z"/>
		</g>
	</g>
	<g>
		<g>
			<path fill="#8795A2" d="M224.31,75.057h-0.031l-1.707-2.558v3.898h-0.943v-5.458h1.021l1.66,2.581l1.661-2.581h1.021v5.458
				h-0.959v-3.914L224.31,75.057z"/>
			<path fill="#8795A2" d="M234.399,76.397h-1.014l-0.554-1.317h-2.581l-0.561,1.317h-0.982l2.401-5.497h0.889L234.399,76.397z
				 M231.538,72.047l-0.936,2.183h1.879L231.538,72.047z"/>
			<path fill="#8795A2" d="M237.83,76.397h-0.967v-2.152l-2.167-3.306h1.13l1.528,2.417l1.544-2.417h1.1l-2.168,3.282V76.397z"/>
		</g>
	</g>
	<g>
		<g>
			<path fill="#8795A2" d="M291.646,76.476c-0.842,0-1.388-0.39-1.746-0.881l0.631-0.647c0.32,0.405,0.64,0.64,1.1,0.64
				c0.515,0,0.865-0.344,0.865-1.068v-3.579h0.983v3.603C293.479,75.836,292.722,76.476,291.646,76.476z"/>
			<path fill="#8795A2" d="M300.159,74.035c0,1.629-0.92,2.448-2.347,2.448c-1.419,0-2.323-0.819-2.323-2.401v-3.143h0.959v3.104
				c0,1.014,0.522,1.56,1.38,1.56c0.85,0,1.372-0.515,1.372-1.521v-3.143h0.959V74.035z"/>
			<path fill="#8795A2" d="M302.258,70.939h0.959v4.585h2.869v0.873h-3.828V70.939z"/>
		</g>
	</g>
	<g>
		<g>
			<path fill="#8795A2" d="M357.941,73.231c1.154,0.281,1.755,0.694,1.755,1.606c0,1.029-0.804,1.638-1.949,1.638
				c-0.835,0-1.622-0.289-2.277-0.873l0.577-0.687c0.522,0.452,1.045,0.71,1.724,0.71c0.593,0,0.967-0.273,0.967-0.694
				c0-0.397-0.219-0.608-1.232-0.842c-1.161-0.281-1.816-0.624-1.816-1.638c0-0.951,0.779-1.591,1.863-1.591
				c0.796,0,1.427,0.242,1.98,0.687l-0.515,0.725c-0.491-0.366-0.982-0.562-1.481-0.562c-0.562,0-0.889,0.289-0.889,0.655
				C356.647,72.795,356.896,72.982,357.941,73.231z"/>
			<path fill="#8795A2" d="M365.652,71.797h-3.087v1.419h2.736v0.858h-2.736v1.466h3.126v0.857h-4.085v-5.458h4.046V71.797z"/>
			<path fill="#8795A2" d="M369.654,74.644h-1.084v1.754h-0.959v-5.458h2.151c1.271,0,2.074,0.717,2.074,1.832
				C371.837,74.004,370.854,74.644,369.654,74.644z M369.685,71.812h-1.114v1.965h1.114c0.726,0,1.178-0.397,1.178-0.982
				C370.862,72.148,370.402,71.812,369.685,71.812z"/>
		</g>
	</g>
	<g>
		<g>
			<path fill="#8795A2" d="M429.328,70.939h0.943v5.458h-0.803l-3.01-3.883v3.883h-0.943v-5.458h0.889l2.924,3.773V70.939z"/>
			<path fill="#8795A2" d="M435.059,76.491c-1.676,0-2.846-1.271-2.846-2.815c0-1.543,1.186-2.83,2.861-2.83
				c1.677,0,2.847,1.271,2.847,2.814C437.921,75.204,436.735,76.491,435.059,76.491z M435.059,71.727
				c-1.083,0-1.84,0.866-1.84,1.934c0,1.068,0.772,1.95,1.855,1.95c1.084,0,1.841-0.866,1.841-1.935
				C436.915,72.608,436.143,71.727,435.059,71.727z"/>
			<path fill="#8795A2" d="M443.401,70.939h1.037l-2.27,5.497h-0.842l-2.269-5.497h1.06l1.646,4.195L443.401,70.939z"/>
		</g>
	</g>
	<g>
		<g>
			<path fill="#8795A2" d="M159.556,76.397h-1.014l-0.554-1.317h-2.581l-0.561,1.317h-0.982l2.401-5.497h0.889L159.556,76.397z
				 M156.694,72.047l-0.936,2.183h1.879L156.694,72.047z"/>
			<path fill="#8795A2" d="M163.314,74.644h-1.084v1.754h-0.959v-5.458h2.151c1.271,0,2.074,0.717,2.074,1.832
				C165.497,74.004,164.515,74.644,163.314,74.644z M163.345,71.812h-1.114v1.965h1.114c0.726,0,1.178-0.397,1.178-0.982
				C164.522,72.148,164.062,71.812,163.345,71.812z"/>
			<path fill="#8795A2" d="M170.762,76.397l-1.342-1.902h-1.2v1.902h-0.959v-5.458h2.433c1.255,0,2.027,0.663,2.027,1.73
				c0,0.905-0.538,1.451-1.303,1.661l1.474,2.066H170.762z M169.615,71.812h-1.396v1.833h1.403c0.686,0,1.123-0.359,1.123-0.921
				C170.746,72.125,170.324,71.812,169.615,71.812z"/>
		</g>
	</g>
	
		<line fill="none" stroke="#BDCCD4" stroke-width="0.8471" stroke-miterlimit="10" x1="27.041" y1="51.377" x2="628.012" y2="51.377"/>
	<g>
		<g>
			<path fill="#0277BD" d="M31.416,33.567h-4.419V20.836h4.419c4.002,0,6.767,2.746,6.767,6.348
				C38.183,30.784,35.418,33.567,31.416,33.567z M31.416,22.163h-2.982v10.076h2.982c3.22,0,5.275-2.183,5.275-5.02
				C36.691,24.382,34.636,22.163,31.416,22.163z"/>
			<path fill="#0277BD" d="M41.024,22.108v-1.546h1.601v1.546H41.024z M41.115,33.567v-9.403h1.4v9.403H41.115z"/>
			<path fill="#0277BD" d="M50.666,24.2v1.2h-2.965v8.167h-1.4V25.4h-1.292v-1.219H46.3v-0.818c0-2.055,1.037-3.146,2.837-3.146
				c0.655,0,1.091,0.073,1.546,0.236v1.219c-0.509-0.146-0.891-0.236-1.364-0.236c-1.091,0-1.637,0.655-1.637,2.001V24.2H50.666z"/>
			<path fill="#0277BD" d="M57.343,24.2v1.2h-2.965v8.167h-1.4V25.4h-1.292v-1.219h1.292v-0.818c0-2.055,1.037-3.146,2.837-3.146
				c0.655,0,1.091,0.073,1.546,0.236v1.219c-0.509-0.146-0.891-0.236-1.364-0.236c-1.091,0-1.637,0.655-1.637,2.001V24.2H57.343z"/>
			<path fill="#0277BD" d="M59.164,22.108v-1.546h1.601v1.546H59.164z M59.254,33.567v-9.403h1.401v9.403H59.254z"/>
			<path fill="#0277BD" d="M68.15,33.785c-2.747,0-4.82-2.236-4.82-4.893c0-2.674,2.073-4.929,4.82-4.929
				c1.782,0,2.892,0.746,3.765,1.673l-0.928,0.982c-0.746-0.782-1.583-1.418-2.855-1.418c-1.91,0-3.365,1.618-3.365,3.655
				c0,2.056,1.492,3.674,3.456,3.674c1.2,0,2.128-0.6,2.874-1.4l0.891,0.837C71.042,33.021,69.914,33.785,68.15,33.785z"/>
			<path fill="#0277BD" d="M80.976,24.164h1.382v9.403h-1.382v-1.637c-0.637,1.019-1.601,1.837-3.219,1.837
				c-2.273,0-3.601-1.528-3.601-3.766v-5.838h1.4v5.493c0,1.746,0.946,2.837,2.601,2.837c1.601,0,2.819-1.182,2.819-2.946V24.164z"
				/>
			<path fill="#0277BD" d="M85.635,33.567V20.29h1.401v13.277H85.635z"/>
			<path fill="#0277BD" d="M92.185,30.894c0,1.146,0.636,1.564,1.582,1.564c0.473,0,0.873-0.091,1.364-0.327v1.2
				c-0.491,0.255-1.019,0.4-1.691,0.4c-1.51,0-2.656-0.746-2.656-2.656V25.4h-1.31v-1.236h1.31v-2.838h1.401v2.838h2.982V25.4
				h-2.982V30.894z"/>
			<path fill="#0277BD" d="M102.227,33.877c-0.801,1.945-1.71,2.655-3.129,2.655c-0.782,0-1.364-0.164-2-0.473l0.473-1.11
				c0.455,0.237,0.873,0.346,1.473,0.346c0.836,0,1.364-0.437,1.928-1.764l-4.274-9.367h1.546l3.419,7.839l3.019-7.839h1.492
				L102.227,33.877z"/>
		</g>
	</g>
	<g>
		
			<line fill-rule="evenodd" clip-rule="evenodd" fill="none" stroke="#B0BEC5" stroke-width="1.7328" stroke-miterlimit="10" x1="532.182" y1="280.693" x2="30.107" y2="280.693"/>
		<g>
			<g>
				<path fill="#8795A2" d="M32.686,109.854H31.46v1.984h-1.084v-6.174h2.434c1.438,0,2.346,0.812,2.346,2.072
					C35.155,109.13,34.044,109.854,32.686,109.854z M32.721,106.652H31.46v2.223h1.261c0.82,0,1.332-0.45,1.332-1.111
					C34.053,107.031,33.533,106.652,32.721,106.652z"/>
				<path fill="#8795A2" d="M41.723,106.635H38.23v1.604h3.096v0.971H38.23v1.658h3.537v0.97h-4.621v-6.174h4.577V106.635z"/>
				<path fill="#8795A2" d="M49.843,111.838h-1.147l-0.626-1.49H45.15l-0.635,1.49h-1.111l2.716-6.218h1.005L49.843,111.838z
					 M46.606,106.917l-1.059,2.469h2.125L46.606,106.917z"/>
				<path fill="#8795A2" d="M57.247,111.838h-1.314l-2.108-2.778l-0.961,0.988v1.79h-1.084v-6.174h1.084v3.104l2.937-3.104h1.332
					l-2.567,2.655L57.247,111.838z"/>
				<path fill="#8795A2" d="M62.383,105.664h4.339v0.82l-2.787,5.354h-1.217l2.769-5.221h-3.104V105.664z"/>
			</g>
		</g>
		<g>
			<g>
				<path fill="#8795A2" d="M33.587,162.896c1.305,0.317,1.984,0.785,1.984,1.817c0,1.164-0.909,1.852-2.205,1.852
					c-0.944,0-1.834-0.326-2.575-0.987l0.652-0.776c0.591,0.512,1.182,0.803,1.949,0.803c0.67,0,1.094-0.309,1.094-0.785
					c0-0.449-0.247-0.688-1.394-0.952c-1.314-0.317-2.055-0.706-2.055-1.853c0-1.076,0.882-1.799,2.108-1.799
					c0.9,0,1.614,0.273,2.24,0.776l-0.582,0.819c-0.556-0.414-1.111-0.635-1.676-0.635c-0.635,0-1.005,0.326-1.005,0.741
					C32.123,162.403,32.405,162.614,33.587,162.896z"/>
				<path fill="#8795A2" d="M40.206,166.478h-1.094v-5.168h-1.958v-1.006h5.009v1.006h-1.958V166.478z"/>
				<path fill="#8795A2" d="M48.149,166.478l-1.517-2.152h-1.358v2.152h-1.084v-6.174h2.751c1.42,0,2.293,0.75,2.293,1.958
					c0,1.023-0.608,1.641-1.473,1.879l1.667,2.337H48.149z M46.853,161.292h-1.579v2.072h1.588c0.776,0,1.27-0.405,1.27-1.041
					C48.132,161.645,47.655,161.292,46.853,161.292z"/>
				<path fill="#8795A2" d="M52.591,160.304v6.174h-1.085v-6.174H52.591z"/>
				<path fill="#8795A2" d="M57.422,166.478h-2.302v-6.174h2.302c1.94,0,3.281,1.332,3.281,3.078S59.363,166.478,57.422,166.478z
					 M57.422,161.292h-1.217v4.198h1.217c1.296,0,2.143-0.874,2.143-2.091S58.719,161.292,57.422,161.292z"/>
				<path fill="#8795A2" d="M67.473,161.274H63.98v1.604h3.096v0.971H63.98v1.658h3.537v0.97h-4.621v-6.174h4.577V161.274z"/>
				<path fill="#8795A2" d="M73.421,160.304h3.687v0.962h-2.751l-0.097,1.446c0.291-0.106,0.564-0.177,0.979-0.177
					c1.208,0,2.143,0.635,2.143,1.949c0,1.27-0.917,2.099-2.284,2.099c-0.944,0-1.685-0.379-2.267-0.943l0.67-0.785
					c0.494,0.459,1.014,0.741,1.587,0.741c0.741,0,1.226-0.424,1.226-1.076c0-0.635-0.512-1.032-1.279-1.032
					c-0.441,0-0.82,0.124-1.138,0.273l-0.653-0.432L73.421,160.304z"/>
			</g>
		</g>
		<g>
			<g>
				<path fill="#8795A2" d="M34.335,216.136l-1.517-2.152H31.46v2.152h-1.084v-6.174h2.751c1.42,0,2.293,0.75,2.293,1.958
					c0,1.023-0.608,1.641-1.473,1.879l1.667,2.337H34.335z M33.039,210.95H31.46v2.072h1.588c0.776,0,1.27-0.405,1.27-1.041
					C34.318,211.303,33.841,210.95,33.039,210.95z"/>
				<path fill="#8795A2" d="M43.539,216.136h-1.146l-0.626-1.49h-2.919l-0.635,1.49h-1.111l2.716-6.218h1.005L43.539,216.136z
					 M40.303,211.215l-1.059,2.469h2.125L40.303,211.215z"/>
				<path fill="#8795A2" d="M48.51,214.619h-0.035l-1.932-2.894v4.41h-1.067v-6.174h1.155l1.878,2.919l1.878-2.919h1.156v6.174
					h-1.085v-4.428L48.51,214.619z"/>
				<path fill="#8795A2" d="M56.32,214.151h-1.226v1.984h-1.084v-6.174h2.434c1.438,0,2.346,0.812,2.346,2.072
					C58.789,213.428,57.678,214.151,56.32,214.151z M56.355,210.95h-1.261v2.222h1.261c0.82,0,1.332-0.449,1.332-1.11
					C57.687,211.329,57.167,210.95,56.355,210.95z"/>
				<path fill="#8795A2" d="M64.799,211.771l-0.767-0.601c0.591-0.829,1.173-1.296,2.275-1.296c1.235,0,2.037,0.749,2.037,1.852
					c0,0.979-0.511,1.509-1.605,2.399l-1.27,1.059h2.937v0.952h-4.463v-0.855l2.125-1.808c0.847-0.715,1.155-1.111,1.155-1.667
					c0-0.608-0.432-0.962-0.997-0.962S65.275,211.152,64.799,211.771z"/>
			</g>
		</g>
		<g>
			
				<line fill-rule="evenodd" clip-rule="evenodd" fill="none" stroke="#F5F5F5" stroke-width="3.3331" stroke-linecap="round" stroke-linejoin="round" stroke-miterlimit="10" x1="30.411" y1="125.072" x2="528.031" y2="125.072"/>
			
				<line fill-rule="evenodd" clip-rule="evenodd" fill="none" stroke="#F5F5F5" stroke-width="3.3331" stroke-linecap="round" stroke-linejoin="round" stroke-miterlimit="10" x1="30.411" y1="175.922" x2="528.031" y2="175.922"/>
			
				<line fill-rule="evenodd" clip-rule="evenodd" fill="none" stroke="#F5F5F5" stroke-width="3.3331" stroke-linecap="round" stroke-linejoin="round" stroke-miterlimit="10" x1="30.411" y1="228.524" x2="528.031" y2="228.524"/>
		</g>
		
			<polyline fill-rule="evenodd" clip-rule="evenodd" fill="none" stroke="#FF2838" stroke-width="0.8333" stroke-linecap="round" stroke-linejoin="round" stroke-miterlimit="10" points="
			30.107,278.062 81.559,268.637 133.012,268.637 210.188,240.363 287.367,240.363 338.82,221.512 390.271,221.512 528.031,164.963 
					"/>
		
			<polyline fill-rule="evenodd" clip-rule="evenodd" fill="none" stroke="#FFB200" stroke-width="0.8333" stroke-linecap="round" stroke-linejoin="round" stroke-miterlimit="10" points="
			30.107,266.665 81.559,241.896 133.012,241.896 210.188,255.268 287.367,255.268 338.82,196.965 390.271,240.802 528.031,179.867 
					"/>
		
			<polyline fill-rule="evenodd" clip-rule="evenodd" fill="none" stroke="#25C6DE" stroke-width="2.5992" stroke-linecap="round" stroke-linejoin="round" stroke-miterlimit="10" points="
			30.107,248.253 81.559,267.322 133.012,223.485 210.188,219.322 287.367,228.088 338.82,187.318 390.271,257.461 528.031,161.456 
					"/>
	</g>
	<g>
		<g>
			<g>
				<path fill="#8795A2" d="M133.196,31.993h-0.778l-0.751-1.693h-3.488l-0.76,1.693h-0.742l2.92-6.454h0.678L133.196,31.993z
					 M129.928,26.381l-1.465,3.269h2.92L129.928,26.381z"/>
				<path fill="#8795A2" d="M134.403,31.993V25.31h0.705v6.684H134.403z"/>
				<path fill="#8795A2" d="M136.811,31.993V25.31h0.705v6.684H136.811z"/>
				<path fill="#8795A2" d="M142.853,30.647c0,0.577,0.32,0.787,0.796,0.787c0.238,0,0.439-0.046,0.687-0.165v0.604
					c-0.247,0.128-0.513,0.201-0.852,0.201c-0.76,0-1.336-0.375-1.336-1.336v-2.856h-0.659V27.26h0.659v-1.428h0.705v1.428h1.501
					v0.623h-1.501V30.647z"/>
				<path fill="#8795A2" d="M145.617,26.226v-0.778h0.805v0.778H145.617z M145.663,31.993V27.26h0.705v4.733H145.663z"/>
				<path fill="#8795A2" d="M153.425,27.159c1.09,0,1.758,0.732,1.758,1.904v2.93h-0.705v-2.765c0-0.916-0.457-1.429-1.227-1.429
					c-0.714,0-1.31,0.531-1.31,1.465v2.729h-0.695V29.21c0-0.888-0.467-1.41-1.218-1.41s-1.318,0.623-1.318,1.492v2.701h-0.705
					V27.26h0.705v0.797c0.312-0.467,0.732-0.897,1.529-0.897c0.769,0,1.263,0.412,1.52,0.943
					C152.098,27.58,152.602,27.159,153.425,27.159z"/>
				<path fill="#8795A2" d="M158.799,31.489c0.649,0,1.107-0.265,1.492-0.668l0.439,0.394c-0.477,0.531-1.053,0.889-1.95,0.889
					c-1.3,0-2.362-0.998-2.362-2.473c0-1.373,0.962-2.472,2.271-2.472c1.401,0,2.207,1.117,2.207,2.509c0,0.063,0,0.137-0.01,0.22
					h-3.753C157.233,30.913,157.966,31.489,158.799,31.489z M160.181,29.365c-0.073-0.86-0.567-1.611-1.511-1.611
					c-0.823,0-1.446,0.688-1.537,1.611H160.181z"/>
			</g>
		</g>
		<polyline fill="none" stroke="#8795A2" stroke-width="0.7962" points="180.939,27.434 175.997,31.354 171.053,27.434 		"/>
	</g>
</g>
<g>
</g>
<g>
</g>
<g>
</g>
<g>
</g>
<g>
</g>
<g>
</g>
<g>
</g>
<g>
</g>
<g>
</g>
<g>
</g>
<g>
</g>
<g>
</g>
<g>
</g>
<g>
</g>
<g>
</g>
</svg>
