<?xml version="1.0" encoding="utf-8"?>
<!-- Generator: Adobe Illustrator 16.0.0, SVG Export Plug-In . SVG Version: 6.00 Build 0)  -->
<!DOCTYPE svg PUBLIC "-//W3C//DTD SVG 1.1//EN" "http://www.w3.org/Graphics/SVG/1.1/DTD/svg11.dtd">
<svg version="1.1" id="Layer_1" xmlns="http://www.w3.org/2000/svg" xmlns:xlink="http://www.w3.org/1999/xlink" x="0px" y="0px"
	 width="860.013px" height="272.98px" viewBox="0 0 860.013 272.98" enable-background="new 0 0 860.013 272.98"
	 xml:space="preserve">
<g>
	<g>
		<g>
			<g>
				<defs>
					<path id="SVGID_1_" d="M849.739,55.852H149.157h-2.808H3.658C1.643,55.852,0,57.502,0,59.514V269.32
						c0,2.012,1.643,3.66,3.658,3.66H146.35h2.808h700.582c2.216,0,4.034-1.818,4.034-4.035V59.889
						C853.773,57.668,851.955,55.852,849.739,55.852z"/>
				</defs>
				<use xlink:href="#SVGID_1_"  overflow="visible" fill="#FFFFFF"/>
				<clipPath id="SVGID_2_">
					<use xlink:href="#SVGID_1_"  overflow="visible"/>
				</clipPath>
			</g>
			<g>
				<path fill="#FFFFFF" d="M10.429,23.066H8.447v-6.864L1.236,5.72h2.379l5.848,8.674l5.898-8.674h2.28l-7.211,10.458V23.066z"/>
				<path fill="#FFFFFF" d="M23.564,23.364c-3.841,0-6.641-3.023-6.641-6.666s2.825-6.716,6.69-6.716
					c3.841,0,6.666,3.023,6.666,6.666S27.43,23.364,23.564,23.364z M23.564,11.667c-2.775,0-4.683,2.206-4.683,4.981
					s2.032,5.006,4.733,5.006c2.775,0,4.708-2.206,4.708-4.956C28.322,13.897,26.265,11.667,23.564,11.667z"/>
				<path fill="#FFFFFF" d="M42.823,10.255h1.883v12.812h-1.883v-2.23c-0.867,1.388-2.181,2.503-4.386,2.503
					c-3.098,0-4.907-2.081-4.907-5.129v-7.955h1.908v7.483c0,2.379,1.289,3.866,3.544,3.866c2.181,0,3.841-1.611,3.841-4.015V10.255
					z"/>
				<path fill="#FFFFFF" d="M50.905,23.066h-1.908V10.255h1.908v3.346c0.942-2.131,2.8-3.668,5.229-3.568v2.057h-0.148
					c-2.8,0-5.08,2.007-5.08,5.873V23.066z"/>
				<path fill="#FFFFFF" d="M72.964,16.945h-4.212v6.121h-1.958V5.72h6.493c3.915,0,6.492,2.082,6.492,5.526
					C79.778,15.013,76.656,16.945,72.964,16.945z M73.137,7.529h-4.386v7.632h4.287c2.875,0,4.758-1.536,4.758-3.841
					C77.796,8.817,75.938,7.529,73.137,7.529z"/>
				<path fill="#FFFFFF" d="M84.937,23.066h-1.908V10.255h1.908v3.346c0.942-2.131,2.8-3.668,5.229-3.568v2.057h-0.148
					c-2.8,0-5.08,2.007-5.08,5.873V23.066z"/>
				<path fill="#FFFFFF" d="M98.365,23.364c-3.841,0-6.641-3.023-6.641-6.666s2.825-6.716,6.69-6.716
					c3.841,0,6.666,3.023,6.666,6.666S102.231,23.364,98.365,23.364z M98.365,11.667c-2.775,0-4.683,2.206-4.683,4.981
					s2.032,5.006,4.733,5.006c2.775,0,4.708-2.206,4.708-4.956C103.123,13.897,101.066,11.667,98.365,11.667z"/>
				<path fill="#FFFFFF" d="M114.204,27.081c-2.131,0-4.113-0.595-5.823-1.784l0.867-1.487c1.462,1.065,3.098,1.636,4.932,1.636
					c2.825,0,4.658-1.562,4.658-4.56v-1.512c-1.115,1.487-2.676,2.701-5.03,2.701c-3.073,0-6.021-2.279-6.021-6.021
					c0-3.767,2.974-6.071,6.021-6.071c2.404,0,3.965,1.189,5.006,2.577v-2.305h1.908v10.581
					C120.721,24.975,118.144,27.081,114.204,27.081z M114.179,11.667c-2.429,0-4.436,1.661-4.436,4.337
					c0,2.627,2.057,4.386,4.436,4.386c2.428,0,4.708-1.734,4.708-4.361C118.887,13.377,116.607,11.667,114.179,11.667z"/>
				<path fill="#FFFFFF" d="M126.896,23.066h-1.908V10.255h1.908v3.346c0.942-2.131,2.8-3.668,5.229-3.568v2.057h-0.149
					c-2.8,0-5.08,2.007-5.08,5.873V23.066z"/>
				<path fill="#FFFFFF" d="M140.125,21.703c1.759,0,2.998-0.718,4.039-1.809l1.189,1.065c-1.289,1.438-2.85,2.404-5.278,2.404
					c-3.519,0-6.394-2.701-6.394-6.691c0-3.717,2.602-6.69,6.146-6.69c3.792,0,5.972,3.023,5.972,6.79c0,0.173,0,0.371-0.025,0.595
					h-10.16C135.888,20.143,137.87,21.703,140.125,21.703z M143.867,15.954c-0.198-2.329-1.537-4.361-4.089-4.361
					c-2.23,0-3.916,1.859-4.163,4.361H143.867z"/>
				<path fill="#FFFFFF" d="M153.387,23.314c-1.834,0-3.866-0.719-5.303-1.884l0.967-1.362c1.388,1.04,2.924,1.635,4.436,1.635
					c1.536,0,2.651-0.793,2.651-2.031v-0.05c0-1.289-1.512-1.784-3.197-2.255c-2.007-0.57-4.237-1.264-4.237-3.618v-0.05
					c0-2.205,1.833-3.667,4.361-3.667c1.561,0,3.296,0.545,4.609,1.412l-0.867,1.438c-1.189-0.769-2.552-1.239-3.791-1.239
					c-1.512,0-2.479,0.793-2.479,1.858v0.05c0,1.214,1.586,1.685,3.296,2.205c1.982,0.595,4.114,1.363,4.114,3.668v0.05
					C157.946,21.901,155.939,23.314,153.387,23.314z"/>
				<path fill="#FFFFFF" d="M165.482,23.314c-1.834,0-3.866-0.719-5.303-1.884l0.967-1.362c1.388,1.04,2.924,1.635,4.436,1.635
					c1.536,0,2.651-0.793,2.651-2.031v-0.05c0-1.289-1.512-1.784-3.197-2.255c-2.007-0.57-4.237-1.264-4.237-3.618v-0.05
					c0-2.205,1.833-3.667,4.361-3.667c1.561,0,3.296,0.545,4.609,1.412l-0.867,1.438c-1.189-0.769-2.552-1.239-3.791-1.239
					c-1.512,0-2.479,0.793-2.479,1.858v0.05c0,1.214,1.586,1.685,3.296,2.205c1.982,0.595,4.114,1.363,4.114,3.668v0.05
					C170.042,21.901,168.035,23.314,165.482,23.314z"/>
			</g>
			<g>
				<g>
					<path fill="#FFFFFF" d="M674.426,9.673h1.831l-4.006,9.703h-1.486l-4.005-9.703h1.872l2.903,7.405L674.426,9.673z"/>
					<path fill="#FFFFFF" d="M681.081,9.673v9.635h-1.693V9.673H681.081z"/>
					<path fill="#FFFFFF" d="M692.176,11.188h-5.45v2.505h4.831v1.514h-4.831v2.588h5.52v1.514h-7.213V9.673h7.144V11.188z"/>
					<path fill="#FFFFFF" d="M701.39,9.646h1.431l2.368,7.171l2.298-7.144h1.775l-3.358,9.703h-1.459l-2.367-6.923l-2.367,6.923
						h-1.459l-3.358-9.703h1.831l2.299,7.144L701.39,9.646z"/>
				</g>
			</g>
			<path fill="none" stroke="#FFFFFF" stroke-width="2.1097" stroke-miterlimit="10" d="M758.479,14.637
				c0,7.508-6.092,13.592-13.587,13.592c-7.507,0-13.586-6.084-13.586-13.592c0-7.498,6.079-13.582,13.586-13.582
				C752.387,1.055,758.479,7.139,758.479,14.637z"/>
			<path fill="#FFFFFF" d="M738.808,9.496l3.128,5.094c0.107,0.193,0.341,0.221,0.5,0.07l1.515-1.414
				c0.164-0.154,0.395-0.125,0.516,0.059l2.125,3.203c0.124,0.186,0.357,0.213,0.524,0.064l0.984-0.9
				c0.164-0.15,0.412-0.131,0.552,0.045l3.114,3.881c0.138,0.174,0.072,0.314-0.15,0.314h-13.021V9.557
				C738.595,9.336,738.69,9.309,738.808,9.496z"/>
			<path opacity="0.5" fill="none" stroke="#FFFFFF" stroke-width="2.1097" stroke-miterlimit="10" d="M808.72,14.637
				c0,7.508-6.092,13.592-13.59,13.592c-7.504,0-13.583-6.084-13.583-13.592c0-7.498,6.079-13.582,13.583-13.582
				C802.628,1.055,808.72,7.139,808.72,14.637z"/>
			<path opacity="0.5" fill="#FFFFFF" d="M801.604,14.369c-0.127,0-0.546,0-0.673,0c-0.374,0-0.681,0.246-0.681,0.545
				c0,0.303,0.307,0.547,0.681,0.547c0.127,0,0.546,0,0.673,0c0.376,0,0.683-0.244,0.683-0.547
				C802.287,14.615,801.98,14.369,801.604,14.369z M795.453,11.16c-2.076,0-3.752,1.672-3.752,3.754
				c0,2.084,1.676,3.756,3.752,3.756c2.087,0,3.763-1.672,3.763-3.756C799.215,12.832,797.54,11.16,795.453,11.16z M790.666,14.914
				c0-0.299-0.296-0.545-0.67-0.545c-0.127,0-0.562,0-0.684,0c-0.376,0-0.686,0.246-0.686,0.545c0,0.303,0.31,0.547,0.686,0.547
				c0.121,0,0.557,0,0.684,0C790.37,15.461,790.666,15.217,790.666,14.914z M795.453,10.135c0.304,0,0.552-0.303,0.552-0.684
				c0-0.125,0-0.557,0-0.682c0-0.375-0.248-0.682-0.552-0.682c-0.299,0-0.541,0.307-0.541,0.682c0,0.125,0,0.557,0,0.682
				C794.912,9.832,795.154,10.135,795.453,10.135z M795.453,19.693c-0.299,0-0.541,0.307-0.541,0.686c0,0.123,0,0.557,0,0.684
				c0,0.375,0.242,0.682,0.541,0.682c0.304,0,0.552-0.307,0.552-0.682c0-0.127,0-0.561,0-0.684
				C796.004,20,795.756,19.693,795.453,19.693z M800.485,10.66c0.267-0.268,0.31-0.658,0.1-0.869
				c-0.216-0.217-0.605-0.172-0.872,0.094c-0.069,0.074-0.403,0.404-0.476,0.479c-0.269,0.268-0.31,0.656-0.1,0.869
				c0.216,0.215,0.603,0.17,0.866-0.098C800.082,11.062,800.413,10.734,800.485,10.66z M790.905,18.695
				c-0.073,0.074-0.403,0.402-0.477,0.477c-0.266,0.268-0.309,0.656-0.097,0.869c0.213,0.215,0.603,0.168,0.866-0.096
				c0.078-0.074,0.409-0.404,0.479-0.479c0.267-0.268,0.31-0.654,0.1-0.869C791.561,18.385,791.171,18.428,790.905,18.695z
				 M791.198,9.885c-0.264-0.266-0.653-0.311-0.866-0.094c-0.212,0.211-0.169,0.602,0.097,0.869
				c0.073,0.074,0.403,0.402,0.477,0.475c0.267,0.268,0.656,0.312,0.871,0.098c0.21-0.213,0.167-0.602-0.1-0.869
				C791.607,10.289,791.276,9.959,791.198,9.885z M799.237,19.467c0.072,0.074,0.406,0.404,0.476,0.479
				c0.267,0.266,0.656,0.311,0.872,0.096c0.21-0.213,0.167-0.602-0.1-0.869c-0.072-0.074-0.403-0.402-0.481-0.477
				c-0.264-0.268-0.65-0.311-0.866-0.098C798.927,18.812,798.968,19.199,799.237,19.467z"/>
			<path opacity="0.5" fill="none" stroke="#FFFFFF" stroke-width="2.1097" stroke-miterlimit="10" d="M858.958,14.637
				c0,7.508-6.092,13.592-13.59,13.592c-7.504,0-13.583-6.084-13.583-13.592c0-7.498,6.079-13.582,13.583-13.582
				C852.867,1.055,858.958,7.139,858.958,14.637z"/>
			<polygon opacity="0.5" fill="#FFFFFF" points="847.224,9.504 852.415,12.502 847.224,15.498 			"/>
			<polygon opacity="0.5" fill="#FFFFFF" points="840.288,7.756 845.476,10.756 840.288,13.752 			"/>
			<polygon opacity="0.5" fill="#FFFFFF" points="843.028,15.531 848.219,18.529 843.028,21.527 			"/>
		</g>
		<g>
			<g>
				<g>
					<path fill="#C0C2C3" d="M183.623,233.409h-3.234v-8.673h3.234c2.726,0,4.609,1.871,4.609,4.324
						S186.349,233.409,183.623,233.409z M183.623,226.124h-1.71v5.897h1.71c1.821,0,3.011-1.227,3.011-2.937
						S185.444,226.124,183.623,226.124z"/>
					<path fill="#C0C2C3" d="M197.131,226.099h-4.906v2.256h4.349v1.362h-4.349v2.329h4.968v1.363h-6.492v-8.673h6.43V226.099z"/>
					<path fill="#C0C2C3" d="M203.65,233.558c-2.528,0-4.411-1.97-4.411-4.473c0-2.478,1.846-4.498,4.473-4.498
						c1.598,0,2.564,0.558,3.395,1.351l-0.979,1.128c-0.694-0.645-1.438-1.078-2.429-1.078c-1.66,0-2.862,1.363-2.862,3.073
						s1.202,3.098,2.862,3.098c1.065,0,1.747-0.435,2.49-1.128l0.979,0.991C206.265,232.963,205.273,233.558,203.65,233.558z"/>
				</g>
				<g>
					<path fill="#C0C2C3" d="M262.386,233.558c-1.202,0-2.044-0.434-2.775-1.041l0.83-1.164c0.657,0.558,1.239,0.817,1.982,0.817
						c1.276,0,2.044-1.127,2.094-2.726c-0.434,0.521-1.103,0.917-2.032,0.917c-1.846,0-3.073-1.078-3.073-2.763
						c0-1.71,1.313-3.012,3.234-3.012c1.09,0,1.796,0.311,2.404,0.917c0.644,0.645,1.053,1.599,1.053,3.321
						C266.103,231.625,264.715,233.558,262.386,233.558z M262.658,225.9c-1.078,0-1.722,0.719-1.722,1.623
						c0,0.917,0.694,1.562,1.772,1.562c1.103,0,1.759-0.719,1.759-1.573C264.467,226.595,263.761,225.9,262.658,225.9z"/>
				</g>
				<g>
					<path fill="#C0C2C3" d="M323.304,224.674h1.065v8.735h-1.511v-7.187l-1.561,0.434l-0.322-1.238L323.304,224.674z"/>
					<path fill="#C0C2C3" d="M327.989,227.276l-1.078-0.843c0.83-1.165,1.648-1.821,3.197-1.821c1.734,0,2.862,1.053,2.862,2.602
						c0,1.376-0.719,2.119-2.255,3.37l-1.784,1.487h4.126v1.338h-6.27v-1.202l2.986-2.54c1.189-1.003,1.623-1.561,1.623-2.342
						c0-0.854-0.607-1.35-1.4-1.35S328.658,226.409,327.989,227.276z"/>
				</g>
				<g>
					<path fill="#C0C2C3" d="M389.575,224.674h1.065v8.735h-1.511v-7.187l-1.561,0.434l-0.322-1.238L389.575,224.674z"/>
					<path fill="#C0C2C3" d="M393.863,224.736h5.179v1.351h-3.866l-0.136,2.031c0.409-0.148,0.793-0.247,1.375-0.247
						c1.697,0,3.011,0.892,3.011,2.738c0,1.784-1.289,2.948-3.209,2.948c-1.326,0-2.367-0.532-3.184-1.325l0.941-1.103
						c0.694,0.644,1.425,1.04,2.23,1.04c1.041,0,1.722-0.595,1.722-1.512c0-0.892-0.719-1.449-1.797-1.449
						c-0.619,0-1.152,0.174-1.598,0.384l-0.917-0.606L393.863,224.736z"/>
				</g>
				<g>
					<path fill="#C0C2C3" d="M455.943,224.674h1.065v8.735h-1.511v-7.187l-1.562,0.434l-0.322-1.238L455.943,224.674z"/>
					<path fill="#C0C2C3" d="M462.722,233.533c-1.896,0-3.309-0.991-3.309-2.49c0-1.065,0.582-1.723,1.561-2.132
						c-0.73-0.384-1.264-0.966-1.264-1.945c0-1.338,1.277-2.354,3.012-2.354s3.01,1.016,3.01,2.354c0,0.979-0.532,1.562-1.264,1.945
						c0.942,0.434,1.562,1.054,1.562,2.095C466.03,232.566,464.618,233.533,462.722,233.533z M462.722,229.618
						c-1.029,0-1.822,0.52-1.822,1.325c0,0.731,0.682,1.313,1.822,1.313c1.14,0,1.82-0.582,1.82-1.313
						C464.542,230.138,463.75,229.618,462.722,229.618z M462.722,225.889c-0.93,0-1.549,0.545-1.549,1.214
						c0,0.769,0.656,1.301,1.549,1.301c0.892,0,1.549-0.532,1.549-1.288C464.271,226.434,463.651,225.889,462.722,225.889z"/>
				</g>
				<g>
					<path fill="#C0C2C3" d="M521.553,227.276l-1.077-0.843c0.83-1.165,1.647-1.821,3.196-1.821c1.734,0,2.862,1.053,2.862,2.602
						c0,1.376-0.719,2.119-2.255,3.37l-1.784,1.487h4.126v1.338h-6.27v-1.202l2.985-2.54c1.189-1.003,1.623-1.561,1.623-2.342
						c0-0.854-0.606-1.35-1.399-1.35S522.222,226.409,521.553,227.276z"/>
					<path fill="#C0C2C3" d="M530.613,224.674h1.065v8.735h-1.512v-7.187l-1.561,0.434l-0.322-1.238L530.613,224.674z"/>
				</g>
			</g>
			<polyline fill="none" stroke="#E3E3E3" stroke-width="3.5929" points="524.426,123.902 467.529,155.635 410.071,152.037 
				350.317,168.988 293.302,168.988 233.8,185.277 179.272,177.84 			"/>
			<circle fill="#8CC63F" cx="524.426" cy="123.695" r="5.184"/>
		</g>
		<g>
			<path fill="#8795A2" d="M611.01,179.971h-1.165v-4.032l-4.236-6.157h1.397l3.436,5.095l3.465-5.095h1.339l-4.235,6.143V179.971z"
				/>
			<path fill="#8795A2" d="M618.719,180.146c-2.257,0-3.901-1.776-3.901-3.916s1.659-3.945,3.931-3.945
				c2.256,0,3.915,1.776,3.915,3.916C622.664,178.341,620.99,180.146,618.719,180.146z M618.719,173.274
				c-1.631,0-2.751,1.296-2.751,2.926c0,1.631,1.193,2.94,2.78,2.94c1.63,0,2.766-1.295,2.766-2.911
				C621.514,174.585,620.306,173.274,618.719,173.274z"/>
			<path fill="#8795A2" d="M630.025,172.444h1.105v7.526h-1.105v-1.311c-0.51,0.815-1.281,1.471-2.577,1.471
				c-1.819,0-2.882-1.223-2.882-3.014v-4.673h1.12v4.396c0,1.397,0.758,2.271,2.082,2.271c1.281,0,2.257-0.946,2.257-2.358V172.444z
				"/>
			<path fill="#8795A2" d="M634.111,171.31h-0.524v-1.528h1.34v1.31c0,1.18-0.51,1.747-1.616,1.994l-0.175-0.509
				C633.864,172.313,634.169,171.936,634.111,171.31z"/>
			<path fill="#8795A2" d="M642.785,172.444h1.208l-3.275,7.585h-0.989l-3.261-7.585h1.237l2.532,6.245L642.785,172.444z"/>
			<path fill="#8795A2" d="M648.632,179.17c1.033,0,1.761-0.422,2.372-1.062l0.699,0.626c-0.757,0.845-1.674,1.412-3.101,1.412
				c-2.067,0-3.756-1.587-3.756-3.931c0-2.184,1.528-3.931,3.61-3.931c2.227,0,3.508,1.776,3.508,3.989c0,0.102,0,0.218-0.015,0.35
				h-5.968C646.143,178.253,647.307,179.17,648.632,179.17z M650.83,175.793c-0.116-1.368-0.902-2.562-2.401-2.562
				c-1.311,0-2.3,1.092-2.445,2.562H650.83z"/>
			<path fill="#8795A2" d="M659.412,179.971h-1.121v-7.526h1.121v1.966c0.553-1.252,1.645-2.154,3.071-2.097v1.209h-0.087
				c-1.646,0-2.984,1.179-2.984,3.449V179.971z"/>
			<path fill="#8795A2" d="M669.526,172.444h1.105v7.526h-1.105v-1.311c-0.51,0.815-1.281,1.471-2.577,1.471
				c-1.819,0-2.882-1.223-2.882-3.014v-4.673h1.12v4.396c0,1.397,0.758,2.271,2.082,2.271c1.281,0,2.257-0.946,2.257-2.358V172.444z
				"/>
			<path fill="#8795A2" d="M674.267,179.971h-1.121v-7.526h1.121v1.311c0.495-0.815,1.28-1.471,2.576-1.471
				c1.819,0,2.883,1.224,2.883,3.014v4.673h-1.121v-4.396c0-1.397-0.757-2.271-2.082-2.271c-1.295,0-2.256,0.946-2.256,2.358
				V179.971z"/>
			<path fill="#8795A2" d="M690.389,172.474v0.961h-2.373v6.536h-1.121v-6.536h-1.033v-0.976h1.033v-0.654
				c0-1.646,0.83-2.519,2.271-2.519c0.523,0,0.873,0.058,1.237,0.189v0.975c-0.408-0.116-0.714-0.188-1.092-0.188
				c-0.874,0-1.311,0.523-1.311,1.601v0.611H690.389z"/>
			<path fill="#8795A2" d="M692.029,173.886l-0.335-0.917c0.83-0.378,1.646-0.626,2.737-0.626c2.052,0,3.202,1.048,3.202,3.028v4.6
				h-1.077v-1.136c-0.524,0.685-1.397,1.296-2.723,1.296c-1.396,0-2.809-0.786-2.809-2.358c0-1.602,1.31-2.445,3.217-2.445
				c0.961,0,1.645,0.131,2.314,0.32v-0.262c0-1.354-0.83-2.053-2.242-2.053C693.426,173.333,692.728,173.565,692.029,173.886z
				 M692.16,177.729c0,0.961,0.874,1.515,1.893,1.515c1.383,0,2.519-0.845,2.519-2.038v-0.728c-0.554-0.16-1.296-0.32-2.213-0.32
				C692.946,176.157,692.16,176.769,692.16,177.729z"/>
			<path fill="#8795A2" d="M701.137,179.971h-1.121v-7.526h1.121v1.966c0.553-1.252,1.645-2.154,3.071-2.097v1.209h-0.088
				c-1.645,0-2.983,1.179-2.983,3.449V179.971z"/>
			<path fill="#8795A2" d="M707.422,177.831c0,0.917,0.51,1.252,1.267,1.252c0.379,0,0.699-0.073,1.092-0.263v0.961
				c-0.393,0.204-0.815,0.32-1.354,0.32c-1.209,0-2.126-0.597-2.126-2.125v-4.542h-1.048v-0.99h1.048v-2.271h1.121v2.271h2.388v0.99
				h-2.388V177.831z"/>
			<path fill="#8795A2" d="M712.908,179.971h-1.121v-10.627h1.121v4.411c0.495-0.815,1.28-1.471,2.576-1.471
				c1.819,0,2.883,1.224,2.883,3.014v4.673h-1.121v-4.396c0-1.397-0.757-2.271-2.082-2.271c-1.295,0-2.256,0.946-2.256,2.358
				V179.971z"/>
			<path fill="#8795A2" d="M724.069,179.17c1.033,0,1.761-0.422,2.372-1.062l0.699,0.626c-0.757,0.845-1.674,1.412-3.101,1.412
				c-2.067,0-3.756-1.587-3.756-3.931c0-2.184,1.528-3.931,3.61-3.931c2.227,0,3.508,1.776,3.508,3.989c0,0.102,0,0.218-0.015,0.35
				h-5.968C721.58,178.253,722.744,179.17,724.069,179.17z M726.266,175.793c-0.116-1.368-0.902-2.562-2.401-2.562
				c-1.311,0-2.3,1.092-2.445,2.562H726.266z"/>
			<path fill="#8795A2" d="M730.484,179.971h-1.121v-7.526h1.121v1.966c0.553-1.252,1.645-2.154,3.071-2.097v1.209h-0.087
				c-1.646,0-2.984,1.179-2.984,3.449V179.971z"/>
			<path fill="#8795A2" d="M741.133,177.831c0,0.917,0.51,1.252,1.267,1.252c0.379,0,0.699-0.073,1.092-0.263v0.961
				c-0.393,0.204-0.815,0.32-1.354,0.32c-1.209,0-2.126-0.597-2.126-2.125v-4.542h-1.048v-0.99h1.048v-2.271h1.121v2.271h2.388v0.99
				h-2.388V177.831z"/>
			<path fill="#8795A2" d="M746.619,179.971h-1.121v-10.627h1.121v4.411c0.495-0.815,1.28-1.471,2.576-1.471
				c1.819,0,2.883,1.224,2.883,3.014v4.673h-1.121v-4.396c0-1.397-0.757-2.271-2.082-2.271c-1.295,0-2.256,0.946-2.256,2.358
				V179.971z"/>
			<path fill="#8795A2" d="M754.896,173.886l-0.335-0.917c0.83-0.378,1.646-0.626,2.737-0.626c2.052,0,3.202,1.048,3.202,3.028v4.6
				h-1.077v-1.136c-0.524,0.685-1.397,1.296-2.723,1.296c-1.396,0-2.809-0.786-2.809-2.358c0-1.602,1.31-2.445,3.217-2.445
				c0.961,0,1.645,0.131,2.314,0.32v-0.262c0-1.354-0.83-2.053-2.242-2.053C756.293,173.333,755.595,173.565,754.896,173.886z
				 M755.027,177.729c0,0.961,0.874,1.515,1.893,1.515c1.383,0,2.519-0.845,2.519-2.038v-0.728c-0.554-0.16-1.296-0.32-2.213-0.32
				C755.813,176.157,755.027,176.769,755.027,177.729z"/>
			<path fill="#8795A2" d="M764.005,179.971h-1.121v-7.526h1.121v1.311c0.495-0.815,1.28-1.471,2.576-1.471
				c1.819,0,2.883,1.224,2.883,3.014v4.673h-1.121v-4.396c0-1.397-0.757-2.271-2.082-2.271c-1.295,0-2.256,0.946-2.256,2.358
				V179.971z"/>
			<path fill="#8795A2" d="M608.113,190.364h0.845v10.263h-1.136v-9.069l-1.921,0.598l-0.277-0.932L608.113,190.364z"/>
			<path fill="#8795A2" d="M612.158,190.438h5.866v1.062h-4.862l-0.218,3.261c0.597-0.263,1.164-0.451,2.009-0.451
				c1.979,0,3.522,1.179,3.522,3.13c0,2.009-1.514,3.362-3.639,3.362c-1.456,0-2.723-0.699-3.64-1.616l0.757-0.829
				c0.888,0.858,1.863,1.397,2.897,1.397c1.455,0,2.46-0.961,2.46-2.271c0-1.28-1.034-2.154-2.533-2.154
				c-0.858,0-1.543,0.262-2.14,0.582l-0.771-0.509L612.158,190.438z"/>
			<path fill="#8795A2" d="M628.862,193.13v0.961h-2.373v6.536h-1.121v-6.536h-1.033v-0.976h1.033v-0.654
				c0-1.646,0.83-2.519,2.271-2.519c0.523,0,0.873,0.058,1.237,0.189v0.975c-0.408-0.116-0.714-0.188-1.092-0.188
				c-0.874,0-1.311,0.523-1.311,1.601v0.611H628.862z"/>
			<path fill="#8795A2" d="M633.575,200.802c-2.257,0-3.901-1.776-3.901-3.916s1.659-3.945,3.931-3.945
				c2.256,0,3.915,1.776,3.915,3.916C637.519,198.997,635.845,200.802,633.575,200.802z M633.575,193.931
				c-1.631,0-2.751,1.296-2.751,2.926c0,1.631,1.193,2.94,2.78,2.94c1.63,0,2.766-1.295,2.766-2.911
				C636.37,195.241,635.162,193.931,633.575,193.931z"/>
			<path fill="#8795A2" d="M642.974,200.802c-2.257,0-3.901-1.776-3.901-3.916s1.659-3.945,3.931-3.945
				c2.256,0,3.915,1.776,3.915,3.916C646.918,198.997,645.245,200.802,642.974,200.802z M642.974,193.931
				c-1.631,0-2.751,1.296-2.751,2.926c0,1.631,1.193,2.94,2.78,2.94c1.63,0,2.766-1.295,2.766-2.911
				C645.769,195.241,644.561,193.931,642.974,193.931z"/>
			<path fill="#8795A2" d="M650.451,198.487c0,0.917,0.51,1.252,1.267,1.252c0.379,0,0.699-0.073,1.092-0.263v0.961
				c-0.393,0.204-0.815,0.32-1.354,0.32c-1.208,0-2.126-0.597-2.126-2.125v-4.542h-1.048v-0.99h1.048v-2.271h1.121v2.271h2.388v0.99
				h-2.388V198.487z"/>
			<path fill="#8795A2" d="M658.818,200.787c-1.397,0-2.3-0.757-2.882-1.602v1.441h-1.121V190h1.121v4.615
				c0.611-0.902,1.499-1.675,2.882-1.675c1.806,0,3.596,1.427,3.596,3.916C662.414,199.331,660.637,200.787,658.818,200.787z
				 M658.614,193.945c-1.397,0-2.722,1.165-2.722,2.911c0,1.762,1.324,2.926,2.722,2.926c1.456,0,2.649-1.077,2.649-2.911
				C661.263,195.081,660.041,193.945,658.614,193.945z"/>
			<path fill="#8795A2" d="M664.913,194.542l-0.335-0.917c0.83-0.378,1.646-0.626,2.737-0.626c2.052,0,3.202,1.048,3.202,3.028v4.6
				h-1.077v-1.136c-0.524,0.685-1.397,1.296-2.722,1.296c-1.398,0-2.81-0.786-2.81-2.358c0-1.602,1.31-2.445,3.217-2.445
				c0.961,0,1.645,0.131,2.314,0.32v-0.262c0-1.354-0.83-2.053-2.242-2.053C666.31,193.989,665.612,194.222,664.913,194.542z
				 M665.043,198.385c0,0.961,0.874,1.515,1.893,1.515c1.383,0,2.519-0.845,2.519-2.038v-0.728c-0.554-0.16-1.296-0.32-2.213-0.32
				C665.83,196.813,665.043,197.425,665.043,198.385z"/>
			<path fill="#8795A2" d="M673.001,200.627V190h1.121v10.627H673.001z"/>
			<path fill="#8795A2" d="M676.828,200.627V190h1.121v10.627H676.828z"/>
			<path fill="#8795A2" d="M688.833,193.13v0.961h-2.373v6.536h-1.121v-6.536h-1.033v-0.976h1.033v-0.654
				c0-1.646,0.83-2.519,2.271-2.519c0.523,0,0.873,0.058,1.237,0.189v0.975c-0.408-0.116-0.714-0.188-1.092-0.188
				c-0.874,0-1.311,0.523-1.311,1.601v0.611H688.833z"/>
			<path fill="#8795A2" d="M690.287,191.456v-1.237h1.281v1.237H690.287z M690.359,200.627v-7.526h1.121v7.526H690.359z"/>
			<path fill="#8795A2" d="M697.403,199.826c1.033,0,1.761-0.422,2.372-1.062l0.699,0.626c-0.757,0.845-1.674,1.412-3.101,1.412
				c-2.067,0-3.756-1.587-3.756-3.931c0-2.184,1.528-3.931,3.61-3.931c2.227,0,3.508,1.776,3.508,3.989c0,0.102,0,0.218-0.015,0.35
				h-5.968C694.914,198.909,696.078,199.826,697.403,199.826z M699.6,196.449c-0.116-1.368-0.902-2.562-2.401-2.562
				c-1.311,0-2.3,1.092-2.445,2.562H699.6z"/>
			<path fill="#8795A2" d="M702.798,200.627V190h1.121v10.627H702.798z"/>
			<path fill="#8795A2" d="M712.564,200.627v-1.514c-0.611,0.902-1.499,1.674-2.882,1.674c-1.806,0-3.596-1.427-3.596-3.916
				c0-2.475,1.79-3.931,3.596-3.931c1.397,0,2.3,0.758,2.882,1.602V190h1.121v10.627H712.564z M709.885,193.945
				c-1.455,0-2.649,1.077-2.649,2.911c0,1.791,1.223,2.926,2.649,2.926c1.397,0,2.723-1.164,2.723-2.926
				C712.608,195.11,711.283,193.945,709.885,193.945z"/>
			<path fill="#8795A2" d="M718.672,200.772c-1.077,0-2.271-0.422-3.115-1.106l0.567-0.801c0.815,0.611,1.718,0.961,2.606,0.961
				c0.902,0,1.558-0.466,1.558-1.193v-0.029c0-0.757-0.889-1.048-1.878-1.324c-1.18-0.335-2.489-0.743-2.489-2.126v-0.029
				c0-1.295,1.077-2.154,2.562-2.154c0.917,0,1.937,0.32,2.708,0.83l-0.51,0.845c-0.699-0.452-1.499-0.729-2.228-0.729
				c-0.888,0-1.455,0.466-1.455,1.092v0.029c0,0.713,0.932,0.99,1.936,1.296c1.165,0.349,2.417,0.801,2.417,2.154v0.029
				C721.351,199.942,720.171,200.772,718.672,200.772z"/>
			<path fill="#8795A2" d="M723.488,200.627v-1.528h1.339v1.528H723.488z M724.812,190.438v0.829l-0.35,6.479h-0.626l-0.335-6.479
				v-0.829H724.812z"/>
		</g>
		<g>
			<path fill="#8795A2" d="M605.847,146.342l1.354-0.339c0.297-0.085,0.466,0.042,0.551,0.296c0.593,2.032,2.202,4.319,5.928,4.319
				c3.6,0,5.886-2.498,5.886-5.971c0-3.557-2.413-6.14-6.055-6.14h-1.312c-0.254,0-0.424-0.169-0.424-0.423v-1.355
				c0-0.254,0.17-0.424,0.424-0.424h1.27c3.261,0,5.463-2.286,5.463-5.547c0-3.176-2.032-5.377-5.42-5.377
				c-3.303,0-4.912,1.99-5.42,4.149c-0.043,0.254-0.254,0.381-0.466,0.339l-1.397-0.381c-0.254-0.043-0.381-0.255-0.339-0.509
				c0.551-2.964,3.134-5.801,7.664-5.801c4.742,0,7.707,3.134,7.707,7.537c0,3.388-1.99,5.42-3.854,6.479v0.085
				c1.905,0.805,4.446,3.133,4.446,7.283c0,4.869-3.346,8.257-8.173,8.257s-7.452-2.922-8.13-5.929
				C605.466,146.638,605.55,146.426,605.847,146.342z"/>
			<path fill="#8795A2" d="M628.201,138c0-6.902,0.297-8.638,0.636-9.654c1.101-3.346,3.769-5.166,7.41-5.166
				s6.309,1.82,7.409,5.166c0.339,1.017,0.636,2.752,0.636,9.654c0,6.901-0.297,8.638-0.636,9.654
				c-1.101,3.345-3.768,5.166-7.409,5.166s-6.31-1.821-7.41-5.166C628.498,146.638,628.201,144.901,628.201,138z M636.247,150.66
				c2.54,0,4.361-1.101,5.165-3.515c0.297-0.931,0.593-2.498,0.593-9.146c0-6.648-0.296-8.215-0.593-9.146
				c-0.804-2.413-2.625-3.515-5.165-3.515c-2.541,0-4.361,1.102-5.166,3.515c-0.297,0.932-0.593,2.498-0.593,9.146
				c0,6.647,0.296,8.215,0.593,9.146C631.885,149.56,633.706,150.66,636.247,150.66z"/>
			<path fill="#8795A2" d="M688.409,152.396c-0.254,0-0.424-0.169-0.424-0.424v-11.94c0-4.022-1.82-6.055-5.335-6.055
				c-3.091,0-5.462,2.117-5.462,5.631v12.364c0,0.255-0.17,0.424-0.424,0.424h-1.439c-0.254,0-0.424-0.169-0.424-0.424v-11.94
				c0-4.022-1.778-6.055-5.293-6.055c-3.091,0-5.505,2.117-5.505,5.631v12.364c0,0.255-0.169,0.424-0.423,0.424h-1.439
				c-0.255,0-0.424-0.169-0.424-0.424v-19.351c0-0.254,0.169-0.423,0.424-0.423h1.439c0.254,0,0.423,0.169,0.423,0.423v2.414h0.043
				c1.016-1.99,3.133-3.261,5.971-3.261c3.133,0,5.25,1.312,6.267,3.769h0.042c1.186-2.329,3.345-3.769,6.647-3.769
				c4.573,0,7.199,2.795,7.199,7.706v12.491c0,0.255-0.17,0.424-0.424,0.424H688.409z"/>
			<path fill="#8795A2" d="M698.015,126.821c-0.254,0-0.424-0.17-0.424-0.424v-2.371c0-0.254,0.17-0.423,0.424-0.423h1.863
				c0.254,0,0.423,0.169,0.423,0.423v2.371c0,0.254-0.169,0.424-0.423,0.424H698.015z M698.227,152.396
				c-0.255,0-0.424-0.169-0.424-0.424v-19.351c0-0.254,0.169-0.423,0.424-0.423h1.439c0.254,0,0.423,0.169,0.423,0.423v19.351
				c0,0.255-0.169,0.424-0.423,0.424H698.227z"/>
		</g>
		<g>
			<g>
				<path fill="#8795A2" d="M63.657,159.617h-2.475v3.596h-1.15v-10.189h3.814c2.3,0,3.814,1.223,3.814,3.246
					C67.66,158.481,65.826,159.617,63.657,159.617z M63.759,154.086h-2.576v4.483h2.518c1.688,0,2.795-0.902,2.795-2.257
					C66.496,154.843,65.404,154.086,63.759,154.086z"/>
				<path fill="#8795A2" d="M69.853,157.128l-0.334-0.917c0.83-0.378,1.645-0.626,2.736-0.626c2.053,0,3.203,1.048,3.203,3.028v4.6
					H74.38v-1.136c-0.524,0.685-1.397,1.296-2.722,1.296c-1.397,0-2.81-0.786-2.81-2.358c0-1.602,1.31-2.445,3.217-2.445
					c0.96,0,1.645,0.131,2.314,0.32v-0.262c0-1.354-0.83-2.053-2.242-2.053C71.25,156.575,70.552,156.808,69.853,157.128z
					 M69.984,160.971c0,0.961,0.873,1.515,1.892,1.515c1.383,0,2.519-0.845,2.519-2.038v-0.728c-0.553-0.16-1.296-0.32-2.213-0.32
					C70.77,159.399,69.984,160.011,69.984,160.971z"/>
				<path fill="#8795A2" d="M80.33,163.358c-1.077,0-2.271-0.422-3.115-1.106l0.568-0.801c0.815,0.611,1.717,0.961,2.605,0.961
					c0.902,0,1.558-0.466,1.558-1.193v-0.029c0-0.757-0.888-1.048-1.878-1.324c-1.179-0.335-2.489-0.743-2.489-2.126v-0.029
					c0-1.295,1.077-2.154,2.562-2.154c0.917,0,1.936,0.32,2.708,0.83l-0.509,0.845c-0.699-0.452-1.5-0.729-2.227-0.729
					c-0.888,0-1.456,0.466-1.456,1.092v0.029c0,0.713,0.932,0.99,1.936,1.296c1.165,0.349,2.417,0.801,2.417,2.154v0.029
					C83.008,162.528,81.829,163.358,80.33,163.358z"/>
				<path fill="#8795A2" d="M86.454,161.073c0,0.917,0.51,1.252,1.267,1.252c0.378,0,0.699-0.073,1.092-0.263v0.961
					c-0.393,0.204-0.815,0.32-1.354,0.32c-1.208,0-2.125-0.597-2.125-2.125v-4.542h-1.048v-0.99h1.048v-2.271h1.121v2.271h2.388
					v0.99h-2.388V161.073z"/>
				<path fill="#8795A2" d="M95.664,155.658l-0.844-0.611c0.917-1.369,1.877-2.169,3.668-2.169c1.849,0,3.159,1.223,3.159,2.896
					c0,1.499-0.786,2.416-2.577,3.974l-2.722,2.417h5.4v1.048H94.63v-0.888l3.697-3.261c1.558-1.397,2.125-2.184,2.125-3.203
					c0-1.193-0.946-1.95-2.053-1.95C97.235,153.911,96.479,154.522,95.664,155.658z"/>
				<path fill="#8795A2" d="M114.624,152.994h0.946l2.795,8.516l2.911-8.486h1.208l-3.639,10.263h-0.976l-2.795-8.269l-2.81,8.269
					h-0.96l-3.639-10.263h1.251l2.912,8.486L114.624,152.994z"/>
				<path fill="#8795A2" d="M126.74,162.412c1.034,0,1.761-0.422,2.373-1.062l0.699,0.626c-0.757,0.845-1.674,1.412-3.101,1.412
					c-2.067,0-3.756-1.587-3.756-3.931c0-2.184,1.528-3.931,3.61-3.931c2.228,0,3.508,1.776,3.508,3.989c0,0.102,0,0.218-0.015,0.35
					h-5.968C124.25,161.495,125.415,162.412,126.74,162.412z M128.938,159.035c-0.117-1.368-0.903-2.562-2.402-2.562
					c-1.31,0-2.3,1.092-2.446,2.562H128.938z"/>
				<path fill="#8795A2" d="M135.353,162.412c1.034,0,1.761-0.422,2.373-1.062l0.699,0.626c-0.757,0.845-1.674,1.412-3.101,1.412
					c-2.067,0-3.756-1.587-3.756-3.931c0-2.184,1.528-3.931,3.61-3.931c2.228,0,3.508,1.776,3.508,3.989c0,0.102,0,0.218-0.015,0.35
					h-5.968C132.864,161.495,134.028,162.412,135.353,162.412z M137.551,159.035c-0.117-1.368-0.903-2.562-2.402-2.562
					c-1.31,0-2.3,1.092-2.446,2.562H137.551z"/>
				<path fill="#8795A2" d="M147.329,163.213h-1.339l-2.693-3.508l-1.529,1.543v1.965h-1.121v-10.627h1.121v7.337l4.062-4.236h1.397
					l-3.159,3.232L147.329,163.213z"/>
				<path fill="#8795A2" d="M151.415,163.358c-1.077,0-2.271-0.422-3.115-1.106l0.568-0.801c0.815,0.611,1.717,0.961,2.605,0.961
					c0.902,0,1.558-0.466,1.558-1.193v-0.029c0-0.757-0.888-1.048-1.878-1.324c-1.179-0.335-2.489-0.743-2.489-2.126v-0.029
					c0-1.295,1.077-2.154,2.562-2.154c0.917,0,1.936,0.32,2.708,0.83l-0.509,0.845c-0.699-0.452-1.5-0.729-2.227-0.729
					c-0.888,0-1.456,0.466-1.456,1.092v0.029c0,0.713,0.932,0.99,1.936,1.296c1.165,0.349,2.417,0.801,2.417,2.154v0.029
					C154.093,162.528,152.914,163.358,151.415,163.358z"/>
			</g>
		</g>
		<polyline fill="none" stroke="#8795A2" stroke-width="1.2655" points="45.766,155.963 37.909,162.195 30.052,155.963 		"/>
		<g>
			<path opacity="0.9" fill="#8CC63F" d="M291.278,97.564c-15.118,0-27.387,12.258-27.387,27.381
				c0,12.373,8.224,22.82,19.489,26.211l7.891,9.35l7.899-9.35c11.271-3.393,19.487-13.838,19.487-26.211
				C318.657,109.822,306.397,97.564,291.278,97.564z"/>
		</g>
		<g>
			<path fill="#FFFFFF" d="M284.012,116.569h-0.054l-3.297,2.332c-0.134,0.107-0.295,0.054-0.295-0.16v-1.126
				c0-0.188,0.053-0.295,0.188-0.402l3.378-2.439c0.134-0.107,0.241-0.161,0.402-0.161h0.858c0.161,0,0.268,0.107,0.268,0.268
				v17.694c0,0.161-0.107,0.269-0.268,0.269h-0.912c-0.161,0-0.268-0.107-0.268-0.269V116.569z"/>
			<path fill="#FFFFFF" d="M293.527,129.009l0.858-0.214c0.188-0.054,0.294,0.026,0.348,0.188c0.375,1.286,1.394,2.734,3.753,2.734
				c2.279,0,3.727-1.582,3.727-3.78c0-2.252-1.528-3.888-3.833-3.888h-0.832c-0.161,0-0.268-0.106-0.268-0.268v-0.858
				c0-0.16,0.107-0.268,0.268-0.268h0.805c2.064,0,3.458-1.448,3.458-3.513c0-2.011-1.287-3.404-3.432-3.404
				c-2.091,0-3.11,1.26-3.432,2.627c-0.027,0.161-0.161,0.241-0.295,0.215l-0.885-0.241c-0.161-0.027-0.242-0.161-0.215-0.322
				c0.349-1.876,1.984-3.673,4.853-3.673c3.003,0,4.879,1.984,4.879,4.772c0,2.145-1.26,3.432-2.439,4.102v0.054
				c1.207,0.51,2.815,1.984,2.815,4.611c0,3.083-2.118,5.229-5.174,5.229s-4.718-1.851-5.147-3.754
				C293.286,129.196,293.34,129.062,293.527,129.009z"/>
		</g>
	</g>
</g>
<g>
</g>
<g>
</g>
<g>
</g>
<g>
</g>
<g>
</g>
<g>
</g>
<g>
</g>
<g>
</g>
<g>
</g>
<g>
</g>
<g>
</g>
<g>
</g>
<g>
</g>
<g>
</g>
<g>
</g>
</svg>
