<?xml version="1.0" encoding="utf-8"?>
<!-- Generator: Adobe Illustrator 16.0.0, SVG Export Plug-In . SVG Version: 6.00 Build 0)  -->
<!DOCTYPE svg PUBLIC "-//W3C//DTD SVG 1.1//EN" "http://www.w3.org/Graphics/SVG/1.1/DTD/svg11.dtd">
<svg version="1.1" id="Layer_1" xmlns="http://www.w3.org/2000/svg" xmlns:xlink="http://www.w3.org/1999/xlink" x="0px" y="0px"
	 width="645.049px" height="896.421px" viewBox="0 0 645.049 896.421" enable-background="new 0 0 645.049 896.421"
	 xml:space="preserve">
<g>
	<path fill="#455A64" d="M645.049,25.031V8.227c0-4.541-3.684-8.227-8.221-8.227H8.225C3.682,0,0,3.686,0,8.227v16.805H645.049z"/>
	<g opacity="0.75">
		<g>
			<path fill="#FFFFFF" d="M17.981,12.227c0,2.072-1.679,3.754-3.75,3.754c-2.075,0-3.755-1.682-3.755-3.754
				c0-2.076,1.68-3.756,3.755-3.756C16.303,8.471,17.981,10.15,17.981,12.227z"/>
		</g>
	</g>
	<g opacity="0.75">
		<g>
			<path fill="#FFFFFF" d="M30.255,12.227c0,2.072-1.68,3.754-3.753,3.754c-2.072,0-3.758-1.682-3.758-3.754
				c0-2.076,1.686-3.756,3.758-3.756C28.576,8.471,30.255,10.15,30.255,12.227z"/>
		</g>
	</g>
	<g opacity="0.75">
		<g>
			<path fill="#FFFFFF" d="M42.523,12.227c0,2.072-1.676,3.754-3.75,3.754c-2.076,0-3.755-1.682-3.755-3.754
				c0-2.076,1.68-3.756,3.755-3.756C40.848,8.471,42.523,10.15,42.523,12.227z"/>
		</g>
	</g>
	<g>
		<rect x="120.425" y="25.156" fill="#E6E6E6" width="524.584" height="266.35"/>
		<rect x="0" y="25.156" fill="#90A4AE" width="120.424" height="871.265"/>
		<g>
			<path opacity="0.5" fill="#90A4AE" d="M46.507,48.74c0,0.615-0.5,1.117-1.117,1.117h-27.5c-0.617,0-1.118-0.502-1.118-1.117
				v-6.506c0-0.617,0.501-1.115,1.118-1.115h27.5c0.617,0,1.117,0.498,1.117,1.115V48.74z"/>
		</g>
		<rect x="0" y="63.965" opacity="0.5" fill="#3F454A" width="120.424" height="33.373"/>
		<rect x="120.385" y="291.506" fill="#EEEEEE" width="524.664" height="604.915"/>
		<g>
			<path fill="#FFFFFF" d="M293.8,409.246c0,1.398-1.144,2.543-2.542,2.543H161.563c-1.398,0-2.542-1.145-2.542-2.543v-72.043
				c0-1.398,1.144-2.543,2.542-2.543h129.695c1.398,0,2.542,1.145,2.542,2.543V409.246z"/>
		</g>
		<g>
			<path opacity="0.5" fill="#90A4AE" d="M195.339,433.258c0,0.455-0.368,0.824-0.824,0.824h-34.185
				c-0.455,0-0.823-0.369-0.823-0.824v-4.789c0-0.455,0.368-0.824,0.823-0.824h34.185c0.456,0,0.824,0.369,0.824,0.824V433.258z"/>
		</g>
		<g opacity="0.5">
			<g>
				<g>
					<path fill="#90A4AE" d="M330.442,63.965H160.411c-0.867,0-1.576,0.711-1.576,1.578v137.529v47.053
						c0,0.754,0.619,1.373,1.373,1.373h170.435c0.758,0,1.375-0.619,1.375-1.373v-47.053V65.543
						C332.017,64.676,331.307,63.965,330.442,63.965z"/>
				</g>
				<g>
					<g opacity="0.75">
						<path fill="#90A4AE" d="M610.188,208.078H399.197H352.2c-0.47,0-0.855,0.387-0.855,0.857v41.811
							c0,0.473,0.386,0.857,0.855,0.857h46.997h210.991c0.469,0,0.856-0.385,0.856-0.857v-41.811
							C611.044,208.465,610.657,208.078,610.188,208.078z"/>
					</g>
					<g opacity="0.75">
						<path fill="#90A4AE" d="M610.188,150.43H399.197H352.2c-0.47,0-0.855,0.387-0.855,0.857v41.811
							c0,0.473,0.386,0.857,0.855,0.857h46.997h210.991c0.469,0,0.856-0.385,0.856-0.857v-41.811
							C611.044,150.816,610.657,150.43,610.188,150.43z"/>
					</g>
					<g opacity="0.75">
						<path fill="#90A4AE" d="M610.188,92.797H399.197H352.2c-0.47,0-0.855,0.387-0.855,0.857v41.811
							c0,0.473,0.386,0.857,0.855,0.857h46.997h210.991c0.469,0,0.856-0.385,0.856-0.857V93.654
							C611.044,93.184,610.657,92.797,610.188,92.797z"/>
					</g>
				</g>
			</g>
		</g>
		<g>
			<g>
				<path fill="#FFFFFF" d="M611.633,643.866c0,1.396-1.144,2.541-2.542,2.541H315.339c-1.397,0-2.542-1.145-2.542-2.541V450.324
					c0-1.398,1.145-2.543,2.542-2.543h293.752c1.398,0,2.542,1.145,2.542,2.543V643.866z"/>
			</g>
			<g>
				<path opacity="0.5" fill="#90A4AE" d="M600.692,602.259c0,1.52-1.231,2.752-2.754,2.752H326.462
					c-1.522,0-2.755-1.232-2.755-2.752V494.548c0-1.518,1.232-2.758,2.755-2.758h271.476c1.522,0,2.754,1.24,2.754,2.758V602.259z"
					/>
			</g>
		</g>
		<g>
			<g>
				<path fill="#FFFFFF" d="M339.417,474.823h-8.808l4.404-7.63L339.417,474.823z M331.567,474.271h6.89l-3.443-5.97
					L331.567,474.271z"/>
			</g>
			<path fill="none" stroke="#FFFFFF" stroke-width="0.75" stroke-miterlimit="10" d="M328.909,468.73"/>
			<path fill="none" stroke="#FFFFFF" stroke-width="1.5" stroke-miterlimit="10" d="M329.475,468.73"/>
			<path fill="none" stroke="#FFFFFF" stroke-width="0.75" stroke-miterlimit="10" d="M327.59,470.69"/>
			<path fill="none" stroke="#FFFFFF" stroke-width="1.5" stroke-miterlimit="10" d="M331.861,470.69"/>
			<path fill="none" stroke="#FFFFFF" stroke-width="1.5" stroke-miterlimit="10" d="M327.483,472.745"/>
			<path fill="none" stroke="#FFFFFF" stroke-width="1.5" stroke-miterlimit="10" d="M330.787,472.745"/>
			<polygon fill="none" stroke="#FFFFFF" stroke-width="0.75" stroke-miterlimit="10" points="330.408,472.417 327.471,472.417 
				327.471,472.612 330.251,472.612 			"/>
			<polygon fill="none" stroke="#FFFFFF" stroke-width="0.75" stroke-miterlimit="10" points="331.433,470.782 328.203,470.782 
				328.203,470.978 331.275,470.978 			"/>
			<polygon fill="none" stroke="#FFFFFF" stroke-width="0.75" stroke-miterlimit="10" points="332.523,469.146 329,469.146 
				329,469.344 332.365,469.344 			"/>
		</g>
		<g opacity="0.5">
			<g>
				<g>
					<path fill="#90A4AE" d="M571.501,316.379c-2.624,0-4.748,2.129-4.748,4.75c0,2.623,2.124,4.748,4.748,4.748
						c2.619,0,4.75-2.125,4.75-4.748C576.251,318.508,574.121,316.379,571.501,316.379z"/>
					<circle fill="#90A4AE" cx="589.062" cy="321.128" r="4.749"/>
					<circle fill="#90A4AE" cx="606.623" cy="321.128" r="4.749"/>
				</g>
			</g>
		</g>
		<g>
			<path fill="#FFFFFF" d="M611.044,409.246c0,1.398-1.144,2.543-2.542,2.543H316.321c-1.398,0-2.542-1.145-2.542-2.543v-72.043
				c0-1.398,1.144-2.543,2.542-2.543h292.182c1.398,0,2.542,1.145,2.542,2.543V409.246z"/>
		</g>
		<g opacity="0.5">
			<path opacity="0.5" fill="#90A4AE" d="M426.03,77.641c0,0.627-0.51,1.137-1.138,1.137h-72.146c-0.627,0-1.135-0.51-1.135-1.137
				v-6.615c0-0.625,0.508-1.135,1.135-1.135h72.146c0.628,0,1.138,0.51,1.138,1.135V77.641z"/>
		</g>
		<g>
			<path opacity="0.5" fill="#90A4AE" d="M406.253,323.92c0,0.455-0.368,0.822-0.822,0.822h-89.778
				c-0.456,0-0.822-0.367-0.822-0.822v-4.791c0-0.453,0.366-0.822,0.822-0.822h89.778c0.454,0,0.822,0.369,0.822,0.822V323.92z"/>
		</g>
		<g>
			<path opacity="0.5" fill="#90A4AE" d="M526.678,433.641c0,0.455-0.368,0.824-0.822,0.824h-20.099
				c-0.454,0-0.823-0.369-0.823-0.824v-4.791c0-0.453,0.369-0.824,0.823-0.824h20.099c0.454,0,0.822,0.371,0.822,0.824V433.641z"/>
		</g>
		<g>
			<path opacity="0.5" fill="#90A4AE" d="M554.996,433.641c0,0.455-0.368,0.824-0.822,0.824h-20.099
				c-0.455,0-0.821-0.369-0.821-0.824v-4.791c0-0.453,0.366-0.824,0.821-0.824h20.099c0.454,0,0.822,0.371,0.822,0.824V433.641z"/>
		</g>
		<g>
			<path opacity="0.5" fill="#90A4AE" d="M583.315,433.641c0,0.455-0.367,0.824-0.823,0.824h-20.097
				c-0.455,0-0.823-0.369-0.823-0.824v-4.791c0-0.453,0.368-0.824,0.823-0.824h20.097c0.456,0,0.823,0.371,0.823,0.824V433.641z"/>
		</g>
		<g>
			<path opacity="0.5" fill="#90A4AE" d="M611.633,433.641c0,0.455-0.369,0.824-0.824,0.824h-20.097
				c-0.454,0-0.822-0.369-0.822-0.824v-4.791c0-0.453,0.368-0.824,0.822-0.824h20.097c0.455,0,0.824,0.371,0.824,0.824V433.641z"/>
		</g>
		<g>
			<path opacity="0.5" fill="#90A4AE" d="M250.932,323.92c0,0.455-0.368,0.822-0.824,0.822h-89.777
				c-0.455,0-0.823-0.367-0.823-0.822v-4.791c0-0.453,0.368-0.822,0.823-0.822h89.777c0.456,0,0.824,0.369,0.824,0.822V323.92z"/>
		</g>
		<g>
			<g>
				<path opacity="0.5" fill="#90A4AE" d="M170.722,373.502c0-0.352,0.286-0.639,0.641-0.639h83.551
					c0.354,0,0.639,0.287,0.639,0.639v3.725c0,0.354-0.285,0.637-0.639,0.637h-83.551c-0.354,0-0.641-0.283-0.641-0.637V373.502z"/>
			</g>
			<g>
				<path opacity="0.5" fill="#90A4AE" d="M170.722,350.744c0-0.354,0.369-0.641,0.825-0.641h108.19
					c0.455,0,0.825,0.287,0.825,0.641v3.723c0,0.352-0.37,0.639-0.825,0.639h-108.19c-0.456,0-0.825-0.287-0.825-0.639V350.744z"/>
			</g>
			<g>
				<path opacity="0.5" fill="#90A4AE" d="M170.722,362.123c0-0.354,0.369-0.639,0.825-0.639h107.778
					c0.456,0,0.824,0.285,0.824,0.639v3.723c0,0.352-0.368,0.641-0.824,0.641H171.547c-0.456,0-0.825-0.289-0.825-0.641V362.123z"/>
			</g>
		</g>
		<g>
			<path opacity="0.5" fill="#90A4AE" d="M194.5,463.447c0,9.341-7.569,16.911-16.907,16.911s-16.906-7.57-16.906-16.911
				c0-9.336,7.568-16.908,16.906-16.908S194.5,454.111,194.5,463.447z"/>
			<g>
				<g>
					<path opacity="0.5" fill="#90A4AE" d="M190.928,506.897c0,0.338-0.273,0.615-0.614,0.615H164.87
						c-0.339,0-0.613-0.277-0.613-0.615v-3.564c0-0.34,0.274-0.613,0.613-0.613h25.444c0.341,0,0.614,0.273,0.614,0.613V506.897z"/>
				</g>
				<g>
					<path opacity="0.5" fill="#90A4AE" d="M190.928,498.013c0,0.34-0.273,0.613-0.614,0.613H164.87
						c-0.339,0-0.613-0.273-0.613-0.613v-3.564c0-0.34,0.274-0.615,0.613-0.615h25.444c0.341,0,0.614,0.275,0.614,0.615V498.013z"/>
				</g>
			</g>
		</g>
		<g>
			<path opacity="0.5" fill="#90A4AE" d="M244.426,463.447c0,9.341-7.57,16.911-16.907,16.911c-9.34,0-16.908-7.57-16.908-16.911
				c0-9.336,7.568-16.908,16.908-16.908C236.856,446.539,244.426,454.111,244.426,463.447z"/>
			<g>
				<g>
					<path opacity="0.5" fill="#90A4AE" d="M240.854,506.897c0,0.338-0.273,0.615-0.613,0.615h-25.445
						c-0.34,0-0.613-0.277-0.613-0.615v-3.564c0-0.34,0.273-0.613,0.613-0.613h25.445c0.34,0,0.613,0.273,0.613,0.613V506.897z"/>
				</g>
				<g>
					<path opacity="0.5" fill="#90A4AE" d="M240.854,498.013c0,0.34-0.273,0.613-0.613,0.613h-25.445
						c-0.34,0-0.613-0.273-0.613-0.613v-3.564c0-0.34,0.273-0.615,0.613-0.615h25.445c0.34,0,0.613,0.275,0.613,0.615V498.013z"/>
				</g>
			</g>
		</g>
		<g>
			<path opacity="0.5" fill="#90A4AE" d="M294.351,463.447c0,9.341-7.569,16.911-16.907,16.911c-9.339,0-16.907-7.57-16.907-16.911
				c0-9.336,7.568-16.908,16.907-16.908C286.782,446.539,294.351,454.111,294.351,463.447z"/>
			<g>
				<g>
					<path opacity="0.5" fill="#90A4AE" d="M290.779,506.897c0,0.338-0.273,0.615-0.612,0.615h-25.445
						c-0.337,0-0.613-0.277-0.613-0.615v-3.564c0-0.34,0.276-0.613,0.613-0.613h25.445c0.339,0,0.612,0.273,0.612,0.613V506.897z"/>
				</g>
				<g>
					<path opacity="0.5" fill="#90A4AE" d="M290.779,498.013c0,0.34-0.273,0.613-0.612,0.613h-25.445
						c-0.337,0-0.613-0.273-0.613-0.613v-3.564c0-0.34,0.276-0.615,0.613-0.615h25.445c0.339,0,0.612,0.275,0.612,0.615V498.013z"/>
				</g>
			</g>
		</g>
		<g>
			<path opacity="0.5" fill="#90A4AE" d="M195.339,540.554c0,0.455-0.368,0.822-0.824,0.822h-34.185
				c-0.455,0-0.823-0.367-0.823-0.822v-4.791c0-0.453,0.368-0.822,0.823-0.822h34.185c0.456,0,0.824,0.369,0.824,0.822V540.554z"/>
		</g>
		<g>
			<circle opacity="0.5" fill="#90A4AE" cx="177.593" cy="570.745" r="16.907"/>
			<g>
				<g>
					<path opacity="0.5" fill="#90A4AE" d="M190.928,614.194c0,0.338-0.273,0.611-0.614,0.611H164.87
						c-0.339,0-0.613-0.273-0.613-0.611v-3.568c0-0.338,0.274-0.611,0.613-0.611h25.444c0.341,0,0.614,0.273,0.614,0.611V614.194z"
						/>
				</g>
				<g>
					<path opacity="0.5" fill="#90A4AE" d="M190.928,605.31c0,0.338-0.273,0.611-0.614,0.611H164.87
						c-0.339,0-0.613-0.273-0.613-0.611v-3.568c0-0.338,0.274-0.613,0.613-0.613h25.444c0.341,0,0.614,0.275,0.614,0.613V605.31z"/>
				</g>
			</g>
		</g>
		<g>
			<circle opacity="0.5" fill="#90A4AE" cx="227.519" cy="570.745" r="16.908"/>
			<g>
				<g>
					<path opacity="0.5" fill="#90A4AE" d="M240.854,614.194c0,0.338-0.273,0.611-0.613,0.611h-25.445
						c-0.34,0-0.613-0.273-0.613-0.611v-3.568c0-0.338,0.273-0.611,0.613-0.611h25.445c0.34,0,0.613,0.273,0.613,0.611V614.194z"/>
				</g>
				<g>
					<path opacity="0.5" fill="#90A4AE" d="M240.854,605.31c0,0.338-0.273,0.611-0.613,0.611h-25.445
						c-0.34,0-0.613-0.273-0.613-0.611v-3.568c0-0.338,0.273-0.613,0.613-0.613h25.445c0.34,0,0.613,0.275,0.613,0.613V605.31z"/>
				</g>
			</g>
		</g>
		<g>
			<circle opacity="0.5" fill="#90A4AE" cx="277.444" cy="570.745" r="16.907"/>
			<g>
				<g>
					<path opacity="0.5" fill="#90A4AE" d="M290.779,614.194c0,0.338-0.273,0.611-0.612,0.611h-25.445
						c-0.337,0-0.613-0.273-0.613-0.611v-3.568c0-0.338,0.276-0.611,0.613-0.611h25.445c0.339,0,0.612,0.273,0.612,0.611V614.194z"
						/>
				</g>
				<g>
					<path opacity="0.5" fill="#90A4AE" d="M290.779,605.31c0,0.338-0.273,0.611-0.612,0.611h-25.445
						c-0.337,0-0.613-0.273-0.613-0.611v-3.568c0-0.338,0.276-0.613,0.613-0.613h25.445c0.339,0,0.612,0.275,0.612,0.613V605.31z"/>
				</g>
			</g>
		</g>
		<g>
			<path opacity="0.5" fill="#90A4AE" d="M195.339,647.804c0,0.455-0.368,0.824-0.824,0.824h-34.185
				c-0.455,0-0.823-0.369-0.823-0.824v-4.793c0-0.455,0.368-0.82,0.823-0.82h34.185c0.456,0,0.824,0.365,0.824,0.82V647.804z"/>
		</g>
		<g>
			<circle opacity="0.5" fill="#90A4AE" cx="177.593" cy="677.993" r="16.907"/>
			<g>
				<g>
					<path opacity="0.5" fill="#90A4AE" d="M190.928,721.44c0,0.34-0.273,0.613-0.614,0.613H164.87
						c-0.339,0-0.613-0.273-0.613-0.613v-3.566c0-0.338,0.274-0.611,0.613-0.611h25.444c0.341,0,0.614,0.273,0.614,0.611V721.44z"/>
				</g>
				<g>
					<path opacity="0.5" fill="#90A4AE" d="M190.928,712.558c0,0.338-0.273,0.613-0.614,0.613H164.87
						c-0.339,0-0.613-0.275-0.613-0.613v-3.568c0-0.336,0.274-0.611,0.613-0.611h25.444c0.341,0,0.614,0.275,0.614,0.611V712.558z"
						/>
				</g>
			</g>
		</g>
		<g>
			<circle opacity="0.5" fill="#90A4AE" cx="227.519" cy="677.993" r="16.908"/>
			<g>
				<g>
					<path opacity="0.5" fill="#90A4AE" d="M240.854,721.44c0,0.34-0.273,0.613-0.613,0.613h-25.445
						c-0.34,0-0.613-0.273-0.613-0.613v-3.566c0-0.338,0.273-0.611,0.613-0.611h25.445c0.34,0,0.613,0.273,0.613,0.611V721.44z"/>
				</g>
				<g>
					<path opacity="0.5" fill="#90A4AE" d="M240.854,712.558c0,0.338-0.273,0.613-0.613,0.613h-25.445
						c-0.34,0-0.613-0.275-0.613-0.613v-3.568c0-0.336,0.273-0.611,0.613-0.611h25.445c0.34,0,0.613,0.275,0.613,0.611V712.558z"/>
				</g>
			</g>
		</g>
		<g>
			<circle opacity="0.5" fill="#90A4AE" cx="277.444" cy="677.993" r="16.907"/>
			<g>
				<g>
					<path opacity="0.5" fill="#90A4AE" d="M290.779,721.44c0,0.34-0.273,0.613-0.612,0.613h-25.445
						c-0.337,0-0.613-0.273-0.613-0.613v-3.566c0-0.338,0.276-0.611,0.613-0.611h25.445c0.339,0,0.612,0.273,0.612,0.611V721.44z"/>
				</g>
				<g>
					<path opacity="0.5" fill="#90A4AE" d="M290.779,712.558c0,0.338-0.273,0.613-0.612,0.613h-25.445
						c-0.337,0-0.613-0.275-0.613-0.613v-3.568c0-0.336,0.276-0.611,0.613-0.611h25.445c0.339,0,0.612,0.275,0.612,0.611V712.558z"
						/>
				</g>
			</g>
		</g>
		<g>
			<path opacity="0.5" fill="#90A4AE" d="M195.339,756.136c0,0.455-0.368,0.824-0.824,0.824h-34.185
				c-0.455,0-0.823-0.369-0.823-0.824v-4.791c0-0.455,0.368-0.824,0.823-0.824h34.185c0.456,0,0.824,0.369,0.824,0.824V756.136z"/>
		</g>
		<g>
			<circle opacity="0.5" fill="#90A4AE" cx="177.593" cy="786.325" r="16.907"/>
			<g>
				<g>
					<path opacity="0.5" fill="#90A4AE" d="M190.928,829.774c0,0.34-0.273,0.611-0.614,0.611H164.87
						c-0.339,0-0.613-0.271-0.613-0.611v-3.566c0-0.338,0.274-0.611,0.613-0.611h25.444c0.341,0,0.614,0.273,0.614,0.611V829.774z"
						/>
				</g>
				<g>
					<path opacity="0.5" fill="#90A4AE" d="M190.928,820.89c0,0.338-0.273,0.613-0.614,0.613H164.87
						c-0.339,0-0.613-0.275-0.613-0.613v-3.566c0-0.338,0.274-0.611,0.613-0.611h25.444c0.341,0,0.614,0.273,0.614,0.611V820.89z"/>
				</g>
			</g>
		</g>
		<g>
			<circle opacity="0.5" fill="#90A4AE" cx="227.519" cy="786.325" r="16.908"/>
			<g>
				<g>
					<path opacity="0.5" fill="#90A4AE" d="M240.854,829.774c0,0.34-0.273,0.611-0.613,0.611h-25.445
						c-0.34,0-0.613-0.271-0.613-0.611v-3.566c0-0.338,0.273-0.611,0.613-0.611h25.445c0.34,0,0.613,0.273,0.613,0.611V829.774z"/>
				</g>
				<g>
					<path opacity="0.5" fill="#90A4AE" d="M240.854,820.89c0,0.338-0.273,0.613-0.613,0.613h-25.445
						c-0.34,0-0.613-0.275-0.613-0.613v-3.566c0-0.338,0.273-0.611,0.613-0.611h25.445c0.34,0,0.613,0.273,0.613,0.611V820.89z"/>
				</g>
			</g>
		</g>
		<g>
			<circle opacity="0.5" fill="#90A4AE" cx="277.444" cy="786.325" r="16.907"/>
			<g>
				<g>
					<path opacity="0.5" fill="#90A4AE" d="M290.779,829.774c0,0.34-0.273,0.611-0.612,0.611h-25.445
						c-0.337,0-0.613-0.271-0.613-0.611v-3.566c0-0.338,0.276-0.611,0.613-0.611h25.445c0.339,0,0.612,0.273,0.612,0.611V829.774z"
						/>
				</g>
				<g>
					<path opacity="0.5" fill="#90A4AE" d="M290.779,820.89c0,0.338-0.273,0.613-0.612,0.613h-25.445
						c-0.337,0-0.613-0.275-0.613-0.613v-3.566c0-0.338,0.276-0.611,0.613-0.611h25.445c0.339,0,0.612,0.273,0.612,0.611V820.89z"/>
				</g>
			</g>
		</g>
		<g>
			<path opacity="0.5" fill="#90A4AE" d="M367.279,433.641c0,0.455-0.369,0.824-0.822,0.824h-50.804
				c-0.456,0-0.822-0.369-0.822-0.824v-4.791c0-0.453,0.366-0.824,0.822-0.824h50.804c0.453,0,0.822,0.371,0.822,0.824V433.641z"/>
		</g>
		<g>
			<g>
				<path opacity="0.5" fill="#90A4AE" d="M360.415,627.782c0,0.74-0.599,1.344-1.342,1.344h-32.758c-0.741,0-1.34-0.604-1.34-1.344
					v-7.811c0-0.74,0.599-1.342,1.34-1.342h32.758c0.743,0,1.342,0.602,1.342,1.342V627.782z"/>
			</g>
			<g>
				<path opacity="0.5" fill="#90A4AE" d="M403.252,627.782c0,0.74-0.602,1.344-1.344,1.344h-32.758c-0.742,0-1.34-0.604-1.34-1.344
					v-7.811c0-0.74,0.598-1.342,1.34-1.342h32.758c0.742,0,1.344,0.602,1.344,1.342V627.782z"/>
			</g>
			<g>
				<path opacity="0.5" fill="#90A4AE" d="M446.091,627.782c0,0.74-0.601,1.344-1.342,1.344h-32.759
					c-0.741,0-1.342-0.604-1.342-1.344v-7.811c0-0.74,0.601-1.342,1.342-1.342h32.759c0.741,0,1.342,0.602,1.342,1.342V627.782z"/>
			</g>
			<g>
				<path opacity="0.5" fill="#90A4AE" d="M601.133,627.782c0,0.74-0.601,1.344-1.342,1.344h-32.759
					c-0.741,0-1.341-0.604-1.341-1.344v-7.811c0-0.74,0.6-1.342,1.341-1.342h32.759c0.741,0,1.342,0.602,1.342,1.342V627.782z"/>
			</g>
		</g>
		<g>
			<path opacity="0.5" fill="#90A4AE" d="M421.206,474.136c0,0.455-0.369,0.824-0.822,0.824h-94.576
				c-0.454,0-0.823-0.369-0.823-0.824v-4.79c0-0.455,0.369-0.824,0.823-0.824h94.576c0.453,0,0.822,0.369,0.822,0.824V474.136z"/>
		</g>
		<g>
			<g>
				<path opacity="0.5" fill="#90A4AE" d="M69.824,161.861c0,0.457-0.37,0.828-0.827,0.828H16.565c-0.457,0-0.826-0.371-0.826-0.828
					v-4.805c0-0.457,0.369-0.826,0.826-0.826h52.432c0.457,0,0.827,0.369,0.827,0.826V161.861z"/>
			</g>
			<g>
				<path opacity="0.5" fill="#90A4AE" d="M69.824,180.549c0,0.457-0.37,0.828-0.827,0.828H16.565c-0.457,0-0.826-0.371-0.826-0.828
					v-4.807c0-0.455,0.369-0.822,0.826-0.822h52.432c0.457,0,0.827,0.367,0.827,0.822V180.549z"/>
			</g>
			<g>
				<path opacity="0.5" fill="#90A4AE" d="M69.824,199.236c0,0.457-0.37,0.826-0.827,0.826H16.565c-0.457,0-0.826-0.369-0.826-0.826
					v-4.807c0-0.455,0.369-0.824,0.826-0.824h52.432c0.457,0,0.827,0.369,0.827,0.824V199.236z"/>
			</g>
			<g>
				<path opacity="0.5" fill="#90A4AE" d="M69.824,217.924c0,0.459-0.37,0.826-0.827,0.826H16.565c-0.457,0-0.826-0.367-0.826-0.826
					v-4.807c0-0.455,0.369-0.826,0.826-0.826h52.432c0.457,0,0.827,0.371,0.827,0.826V217.924z"/>
			</g>
		</g>
		<g>
			<path opacity="0.5" fill="#90A4AE" d="M37.279,73.199c0-0.352,0.285-0.639,0.64-0.639h37.57c0.354,0,0.64,0.287,0.64,0.639v3.723
				c0,0.355-0.286,0.639-0.64,0.639h-37.57c-0.355,0-0.64-0.283-0.64-0.639V73.199z"/>
		</g>
		<g>
			<path opacity="0.5" fill="#90A4AE" d="M37.279,81.861c0-0.352,0.23-0.641,0.517-0.641h30.306c0.286,0,0.516,0.289,0.516,0.641
				v3.725c0,0.354-0.23,0.637-0.516,0.637H37.796c-0.287,0-0.517-0.283-0.517-0.637V81.861z"/>
		</g>
		<circle opacity="0.5" fill="#90A4AE" cx="23.938" cy="79.625" r="7.702"/>
		<circle opacity="0.5" fill="#90A4AE" cx="96.715" cy="79.625" r="6.088"/>
		<g>
			<path opacity="0.5" fill="#90A4AE" d="M17.854,109.723c0-0.354,0.28-0.641,0.627-0.641h36.83c0.347,0,0.627,0.287,0.627,0.641
				v3.723c0,0.354-0.281,0.637-0.627,0.637h-36.83c-0.348,0-0.627-0.283-0.627-0.637V109.723z"/>
		</g>
		<g>
			<path opacity="0.5" fill="#90A4AE" d="M64.717,109.723c0-0.354,0.28-0.641,0.628-0.641h36.83c0.347,0,0.627,0.287,0.627,0.641
				v3.723c0,0.354-0.281,0.637-0.627,0.637h-36.83c-0.349,0-0.628-0.283-0.628-0.637V109.723z"/>
		</g>
		<g>
			<path opacity="0.5" fill="#90A4AE" d="M102.803,136.723c0,0.695-0.592,1.258-1.32,1.258h-83.87c-0.73,0-1.321-0.562-1.321-1.258
				v-7.324c0-0.693,0.59-1.256,1.321-1.256h83.87c0.729,0,1.32,0.562,1.32,1.256V136.723z"/>
		</g>
		<g>
			<g>
				<path opacity="0.5" fill="#90A4AE" d="M53.161,267.943c0,0.316-0.256,0.572-0.571,0.572H16.311
					c-0.315,0-0.571-0.256-0.571-0.572v-3.324c0-0.316,0.256-0.572,0.571-0.572H52.59c0.315,0,0.571,0.256,0.571,0.572V267.943z"/>
			</g>
			<g>
				<path opacity="0.5" fill="#90A4AE" d="M37.564,250.559c0,0.316-0.255,0.57-0.571,0.57H16.311c-0.315,0-0.571-0.254-0.571-0.57
					v-3.328c0-0.312,0.256-0.57,0.571-0.57h20.683c0.315,0,0.571,0.258,0.571,0.57V250.559z"/>
			</g>
			<g>
				<path opacity="0.5" fill="#90A4AE" d="M53.161,287.154c0,0.314-0.256,0.57-0.571,0.57H16.311c-0.315,0-0.571-0.256-0.571-0.57
					v-3.326c0-0.316,0.256-0.572,0.571-0.572H52.59c0.315,0,0.571,0.256,0.571,0.572V287.154z"/>
			</g>
			<g>
				<path opacity="0.5" fill="#90A4AE" d="M53.161,306.363c0,0.316-0.256,0.572-0.571,0.572H16.311
					c-0.315,0-0.571-0.256-0.571-0.572v-3.324c0-0.314,0.256-0.572,0.571-0.572H52.59c0.315,0,0.571,0.258,0.571,0.572V306.363z"/>
			</g>
			<g>
				<path opacity="0.5" fill="#90A4AE" d="M53.161,344.783c0,0.314-0.256,0.572-0.571,0.572H16.311
					c-0.315,0-0.571-0.258-0.571-0.572v-3.326c0-0.314,0.256-0.57,0.571-0.57H52.59c0.315,0,0.571,0.256,0.571,0.57V344.783z"/>
			</g>
			<g>
				<path opacity="0.5" fill="#90A4AE" d="M53.161,325.572c0,0.316-0.256,0.574-0.571,0.574H16.311
					c-0.315,0-0.571-0.258-0.571-0.574v-3.324c0-0.316,0.256-0.572,0.571-0.572H52.59c0.315,0,0.571,0.256,0.571,0.572V325.572z"/>
			</g>
		</g>
		<g>
			<g>
				<g>
					<path fill="#FFFFFF" d="M612.87,893.88c0,1.396-1.144,2.541-2.542,2.541h-293.75c-1.397,0-2.542-1.145-2.542-2.541V700.337
						c0-1.398,1.145-2.541,2.542-2.541h293.75c1.398,0,2.542,1.143,2.542,2.541V893.88z"/>
				</g>
				<g>
					<path opacity="0.5" fill="#90A4AE" d="M600.692,852.271c0,1.521-1.231,2.754-2.754,2.754H326.462
						c-1.522,0-2.755-1.232-2.755-2.754V744.563c0-1.52,1.232-2.76,2.755-2.76h271.476c1.522,0,2.754,1.24,2.754,2.76V852.271z"/>
				</g>
				<g>
					<path opacity="0.5" fill="#90A4AE" d="M499.404,812.085c0,0.457-0.367,0.826-0.823,0.826H337.487
						c-0.454,0-0.822-0.369-0.822-0.826v-4.791c0-0.453,0.368-0.822,0.822-0.822h161.094c0.456,0,0.823,0.369,0.823,0.822V812.085z"
						/>
				</g>
				<g>
					<path opacity="0.5" fill="#90A4AE" d="M370.478,775.485c0,9.338-7.568,16.906-16.905,16.906
						c-9.34,0-16.908-7.568-16.908-16.906c0-9.34,7.568-16.906,16.908-16.906C362.91,758.579,370.478,766.146,370.478,775.485z"/>
				</g>
				<g>
					<g>
						<path opacity="0.5" fill="#90A4AE" d="M336.665,824.993c0-0.355,0.368-0.641,0.825-0.641h108.188
							c0.458,0,0.827,0.285,0.827,0.641v3.723c0,0.35-0.369,0.639-0.827,0.639H337.49c-0.457,0-0.825-0.289-0.825-0.639V824.993z"/>
					</g>
					<g>
						<path opacity="0.5" fill="#90A4AE" d="M336.665,836.37c0-0.354,0.368-0.637,0.825-0.637h107.776
							c0.456,0,0.825,0.283,0.825,0.637v3.725c0,0.352-0.369,0.641-0.825,0.641H337.49c-0.457,0-0.825-0.289-0.825-0.641V836.37z"/>
					</g>
				</g>
			</g>
			<g>
				<g>
					<path fill="#FFFFFF" d="M339.417,724.837h-8.808l4.404-7.629L339.417,724.837z M331.567,724.284h6.89l-3.443-5.971
						L331.567,724.284z"/>
				</g>
				<path fill="none" stroke="#FFFFFF" stroke-width="0.75" stroke-miterlimit="10" d="M328.909,718.745"/>
				<path fill="none" stroke="#FFFFFF" stroke-width="1.5" stroke-miterlimit="10" d="M329.475,718.745"/>
				<path fill="none" stroke="#FFFFFF" stroke-width="0.75" stroke-miterlimit="10" d="M327.59,720.702"/>
				<path fill="none" stroke="#FFFFFF" stroke-width="1.5" stroke-miterlimit="10" d="M331.861,720.702"/>
				<path fill="none" stroke="#FFFFFF" stroke-width="1.5" stroke-miterlimit="10" d="M327.483,722.759"/>
				<path fill="none" stroke="#FFFFFF" stroke-width="1.5" stroke-miterlimit="10" d="M330.787,722.759"/>
				<polygon fill="none" stroke="#FFFFFF" stroke-width="0.75" stroke-miterlimit="10" points="330.408,722.429 327.471,722.429 
					327.471,722.628 330.251,722.628 				"/>
				<polygon fill="none" stroke="#FFFFFF" stroke-width="0.75" stroke-miterlimit="10" points="331.433,720.794 328.203,720.794 
					328.203,720.991 331.275,720.991 				"/>
				<polygon fill="none" stroke="#FFFFFF" stroke-width="0.75" stroke-miterlimit="10" points="332.523,719.161 329,719.161 
					329,719.358 332.365,719.358 				"/>
			</g>
			<g>
				<g>
					<path opacity="0.5" fill="#90A4AE" d="M360.415,877.796c0,0.74-0.599,1.342-1.342,1.342h-32.758
						c-0.741,0-1.34-0.602-1.34-1.342v-7.811c0-0.74,0.599-1.342,1.34-1.342h32.758c0.743,0,1.342,0.602,1.342,1.342V877.796z"/>
				</g>
				<g>
					<path opacity="0.5" fill="#90A4AE" d="M420.795,877.796c0,0.74-0.601,1.342-1.343,1.342h-32.758
						c-0.742,0-1.34-0.602-1.34-1.342v-7.811c0-0.74,0.598-1.342,1.34-1.342h32.758c0.742,0,1.343,0.602,1.343,1.342V877.796z"/>
				</g>
				<g>
					<path opacity="0.5" fill="#90A4AE" d="M481.173,877.796c0,0.74-0.601,1.342-1.342,1.342h-32.759
						c-0.741,0-1.342-0.602-1.342-1.342v-7.811c0-0.74,0.601-1.342,1.342-1.342h32.759c0.741,0,1.342,0.602,1.342,1.342V877.796z"/>
				</g>
				<g>
					<path opacity="0.5" fill="#90A4AE" d="M601.133,877.796c0,0.74-0.601,1.342-1.342,1.342h-32.759
						c-0.741,0-1.341-0.602-1.341-1.342v-7.811c0-0.74,0.6-1.342,1.341-1.342h32.759c0.741,0,1.342,0.602,1.342,1.342V877.796z"/>
				</g>
			</g>
			<g>
				<path opacity="0.5" fill="#90A4AE" d="M421.206,724.151c0,0.453-0.369,0.822-0.822,0.822h-94.576
					c-0.454,0-0.823-0.369-0.823-0.822v-4.793c0-0.455,0.369-0.824,0.823-0.824h94.576c0.453,0,0.822,0.369,0.822,0.824V724.151z"/>
			</g>
		</g>
		<g>
			<path opacity="0.5" fill="#90A4AE" d="M367.279,683.022c0,0.455-0.369,0.824-0.822,0.824h-50.804
				c-0.456,0-0.822-0.369-0.822-0.824v-4.791c0-0.455,0.366-0.824,0.822-0.824h50.804c0.453,0,0.822,0.369,0.822,0.824V683.022z"/>
		</g>
	</g>
</g>
<g>
</g>
<g>
</g>
<g>
</g>
<g>
</g>
<g>
</g>
<g>
</g>
<g>
</g>
<g>
</g>
<g>
</g>
<g>
</g>
<g>
</g>
<g>
</g>
<g>
</g>
<g>
</g>
<g>
</g>
</svg>
