<svg xmlns="http://www.w3.org/2000/svg" viewBox="0 0 680 350"><title>branding-bottom</title><path d="M0 0h680v350H0z" fill="none"/><path d="M184.59 192.74l8.13-13.4-13.83-5.7 2.14-6.56 14.54 2.44 1.28-16.52h7l1.28 16.38 14.68-2.86 2.14 6.84-13.83 5.84 8 13.47-5.56 4.17-10.12-12.24-10.12 12.27zm93.06 0l8.13-13.4-13.83-5.7 2.14-6.56 14.54 2.44 1.28-16.52h7l1.28 16.38 14.68-2.86 2.14 6.84-13.83 5.84 8 13.47-5.56 4.17-10.12-12.24-10.12 12.27zm93.05 0l8.13-13.4-13.83-5.7 2.14-6.56 14.54 2.44L383 153h7l1.28 16.38 14.68-2.86 2.14 6.84-13.83 5.84 8 13.47-5.56 4.17-10.12-12.24-10.12 12.27zm93.06 0l8.13-13.4-13.83-5.7 2.14-6.56 14.54 2.44L476 153h7l1.28 16.38 14.72-2.86 2.14 6.84-13.83 5.84 8 13.47-5.56 4.17-10.12-12.24-10.12 12.27z" fill="#f6f5de"/></svg>