<svg xmlns="http://www.w3.org/2000/svg" viewBox="0 0 680 350"><title>branding-top</title><path d="M0,0H680V350H0Z" style="fill:none"/><path d="M195.74,159.75a6.74,6.74,0,0,0,2.87-.56,9.88,9.88,0,0,0,2.51-1.79l2.08,2.13a9.55,9.55,0,0,1-7.36,3.36,9.86,9.86,0,0,1-7.18-2.79,9.947,9.947,0,0,1,7.41-16.98,9.61,9.61,0,0,1,7.41,3.28l-2,2.24a9,9,0,0,0-2.58-1.83,7.24,7.24,0,0,0-2.85-.52,6.78,6.78,0,0,0-4.86,1.87,6.31,6.31,0,0,0-2,4.78,6.59,6.59,0,0,0,2,4.86,6.32,6.32,0,0,0,4.55,1.95Zm31.05.25a10.47,10.47,0,0,1-14.31,0,10,10,0,0,1,0-14.09,10.47,10.47,0,0,1,14.31,0A10,10,0,0,1,226.79,160Zm-2.36-11.95a6.69,6.69,0,0,0-9.46-.12q-.061.059-.12.12a7.13,7.13,0,0,0,0,9.8,6.69,6.69,0,0,0,9.46.12q.061-.059.12-.12A7.13,7.13,0,0,0,224.43,148.05Zm27.73-4.46h3.22v19.09h-3.5l-10.81-13.93v13.93h-3.22V143.59h3.22l11.09,14.25Zm25.84,9.8h3.22v6.53q-2.7,3-7.73,3a9.74,9.74,0,0,1-7.09-2.79,10.12,10.12,0,0,1,.06-14.14,9.69,9.69,0,0,1,7-2.84,10,10,0,0,1,6.85,2.4L278.62,148a6.69,6.69,0,0,0-2.25-1.32,8.52,8.52,0,0,0-2.64-.37,6.763,6.763,0,1,0-.29,13.52,8.25,8.25,0,0,0,4.55-1.17Zm26.78-3.6q0,4.72-4.12,6l5,6.94h-4.1L297,156.26h-4.23v6.42h-3.22V143.59h7.1q4.37,0,6.25,1.47T304.78,149.79Zm-4.29,2.7a3.4,3.4,0,0,0,1-2.72,2.91,2.91,0,0,0-1-2.57,6.73,6.73,0,0,0-3.6-.7h-4.1v6.83h4Q299.5,153.34,300.49,152.49Zm26.43-8.9v3H316.74v5.05h9.15v2.87h-9.15v5.11h10.51v3H313.51V143.59Zm14.32,2.51a4.23,4.23,0,0,0-2.31.57,1.92,1.92,0,0,0-.9,1.73,2,2,0,0,0,.9,1.77,13.6,13.6,0,0,0,3.84,1.32,10.57,10.57,0,0,1,4.42,2,4.72,4.72,0,0,1,1.49,3.78,5,5,0,0,1-1.88,4.06,7.51,7.51,0,0,1-4.94,1.56,11.6,11.6,0,0,1-7.95-3.09l2-2.43a9.1,9.1,0,0,0,6,2.51,4.1,4.1,0,0,0,2.47-.67,2.09,2.09,0,0,0,.91-1.77,2,2,0,0,0-.86-1.72,9,9,0,0,0-3-1.12,26.652,26.652,0,0,1-3.19-.93,7.21,7.21,0,0,1-1.94-1.11,4.62,4.62,0,0,1-1.69-3.93,4.79,4.79,0,0,1,1.93-4.08,7.75,7.75,0,0,1,4.77-1.43,11.45,11.45,0,0,1,3.63.6,9.51,9.51,0,0,1,3.11,1.69l-1.72,2.43a6.52,6.52,0,0,0-2.29-1.26,8.84,8.84,0,0,0-2.8-.48Zm21.3,0a4.23,4.23,0,0,0-2.31.57,1.92,1.92,0,0,0-.9,1.73,2,2,0,0,0,.9,1.77,13.6,13.6,0,0,0,3.84,1.32,10.57,10.57,0,0,1,4.42,2,4.72,4.72,0,0,1,1.49,3.78,5,5,0,0,1-1.88,4.06,7.51,7.51,0,0,1-4.94,1.56,11.6,11.6,0,0,1-7.95-3.09l2-2.43a9.1,9.1,0,0,0,6,2.51,4.1,4.1,0,0,0,2.47-.67,2.09,2.09,0,0,0,.91-1.77,2,2,0,0,0-.86-1.72,9,9,0,0,0-3-1.12,26.652,26.652,0,0,1-3.19-.93,7.21,7.21,0,0,1-1.94-1.11,4.62,4.62,0,0,1-1.69-3.93,4.79,4.79,0,0,1,1.93-4.08,7.75,7.75,0,0,1,4.77-1.43,11.45,11.45,0,0,1,3.63.6,9.51,9.51,0,0,1,3.11,1.69l-1.72,2.43a6.52,6.52,0,0,0-2.29-1.26,8.84,8.84,0,0,0-2.8-.48Zm15.52-2.51h3.22v19.09h-3.22ZM406.65,160a10.47,10.47,0,0,1-14.31,0,10,10,0,0,1,0-14.09,10.47,10.47,0,0,1,14.31,0A10,10,0,0,1,406.65,160Zm-2.36-11.95a6.69,6.69,0,0,0-9.46-.12q-.061.059-.12.12a7.13,7.13,0,0,0,0,9.8,6.69,6.69,0,0,0,9.46.12q.061-.059.12-.12A7.13,7.13,0,0,0,404.29,148.05ZM432,143.59h3.22v19.09h-3.5l-10.81-13.93v13.93h-3.22V143.59h3.22L432,157.84Zm15.34,14.74-1.91,4.34H442l8.41-19.09h3.44l8.41,19.09h-3.44l-1.91-4.34Zm8.25-3-3.47-7.86-3.47,7.86ZM469,162.67V143.59h3.22v16h8.71v3.06ZM105.45,181.22q4.2,3.81,4.2,10.59t-4.08,10.73q-4.08,4-12.48,4H83.44V177.42h10Q101.25,177.42,105.45,181.22Zm-.75,10.71q0-10-11.44-10H88.35v19.93H93.8q5.28,0,8.09-2.52t2.81-7.4Zm17.52-14.51h4.91V206.5h-4.91Zm39.36,14.93h4.91v9.94q-4.12,4.53-11.78,4.54a14.85,14.85,0,0,1-10.8-4.24A15.42,15.42,0,0,1,144,181a14.77,14.77,0,0,1,10.71-4.33,15.23,15.23,0,0,1,10.44,3.66l-2.62,3.74a10.23,10.23,0,0,0-3.43-2,13,13,0,0,0-4-.56,10.3,10.3,0,1,0-.41,20.6,12.58,12.58,0,0,0,6.93-1.79Zm17.6-14.93h4.91V206.5h-4.91Zm30.21,4.49V206.5h-4.91V181.91h-8.82v-4.49h22.55v4.49Zm22.21,17.97-2.91,6.62h-5.24l12.82-29.08h5.24l12.82,29.08h-5.24l-2.91-6.62Zm12.57-4.54-5.28-12-5.28,12ZM264.6,206.5V177.42h4.91v24.42h13.27v4.66Zm126.61-25.18a6.43,6.43,0,0,0-3.51.87,2.92,2.92,0,0,0-1.37,2.64,3.07,3.07,0,0,0,1.37,2.7,20.73,20.73,0,0,0,5.84,2,16.05,16.05,0,0,1,6.73,3,7.18,7.18,0,0,1,2.27,5.75,7.62,7.62,0,0,1-2.87,6.17,11.42,11.42,0,0,1-7.52,2.37,17.66,17.66,0,0,1-12.09-4.7l3.07-3.7a13.84,13.84,0,0,0,9.14,3.82,6.24,6.24,0,0,0,3.76-1,3.19,3.19,0,0,0,1.39-2.7,3,3,0,0,0-1.31-2.62,13.79,13.79,0,0,0-4.51-1.7,40.431,40.431,0,0,1-4.86-1.41,11,11,0,0,1-3-1.68,7.12,7.12,0,0,1-2.58-6,7.28,7.28,0,0,1,2.93-6.21,11.8,11.8,0,0,1,7.25-2.18,17.4,17.4,0,0,1,5.53.91,14.47,14.47,0,0,1,4.74,2.58L399,184a9.91,9.91,0,0,0-3.49-1.91,13.43,13.43,0,0,0-4.3-.77Zm44.02-3.82v4.61h-15.5v7.69h13.92v4.36H419.73v7.77h16v4.61h-20.9v-29Zm36.19,9.43q0,7.19-6.27,9.06l7.6,10.55h-6.23l-6.94-9.76h-6.44v9.76h-4.9v-29H459q6.65,0,9.51,2.24T471.42,186.93ZM464.9,191a5.18,5.18,0,0,0,1.5-4.13q0-2.84-1.54-3.91t-5.48-1.06h-6.23v10.39h6.11q4.14.04,5.64-1.29Zm32.69,15.54h-5.48l-11.68-29h5.48l8.93,21.69,8.93-21.69h5.48Zm22.07-29.04h4.9v29h-4.9Zm32.45,24.6a10.25,10.25,0,0,0,4.36-.85,15,15,0,0,0,3.82-2.72l3.16,3.24a14.53,14.53,0,0,1-11.2,5.11,15,15,0,0,1-10.93-4.24,15.131,15.131,0,0,1,11.26-25.84,14.62,14.62,0,0,1,11.28,5l-3.12,3.41a13.65,13.65,0,0,0-3.93-2.78,11,11,0,0,0-4.34-.79,10.32,10.32,0,0,0-7.4,2.85,9.6,9.6,0,0,0-3,7.27,10,10,0,0,0,3,7.4,9.62,9.62,0,0,0,7.04,2.94Zm43.95-24.6v4.61h-15.5v7.69h13.92v4.36H580.56v7.77h16v4.61h-20.9v-29Z" style="fill:#f6f5de"/><path d="M337.96,206.36h-8.7l13.02-28.29h8.75l-13.07,28.29m17.1,0H346.4l13.04-28.29h8.72l-13.1,28.29" style="fill:#b22e2e"/><path d="M320.76,206.36H294.68l13.09-28.29h26.08l-13.09,28.29" style="fill:#326b92"/><path d="M314.37,189.19l1.23-2-2.1-.86.32-1,2.2.54.19-2.33h1.06l.19,2.31,2.23-.52.32,1-2.1.86,1.21,2-.84.63L316.77,188l-1.53,1.86Zm-5.01,11.1,1.23-2-2.1-.86.32-1,2.2.54.19-2.33h1.06l.19,2.31,2.23-.52.32,1-2.1.86,1.21,2-.84.63-1.53-1.86-1.53,1.86Z" style="fill:#f6f5de"/></svg>