<svg xmlns="http://www.w3.org/2000/svg" xmlns:xlink="http://www.w3.org/1999/xlink" viewBox="0 0 680 750"><defs><symbol id="a" viewBox="0 0 338 130"><path d="M198.98,0H159l59.82,130H259Zm78.83,0H238l59.92,130H338Z" style="fill:#b22e2e"/><path d="M119.84,0H0L60.16,130H180Z" style="fill:#326b92"/><path d="M90.47,78.88l5.66,9.34-9.64,4L88,96.76l10.13-2.48L99,105h4.87l.89-10.63L115,96.76l1.49-4.57-9.64-4,5.56-9.34L108.55,76l-7.05,8.54L94.45,76Zm-23-51,5.66,9.34-9.64,4L65,45.76l10.13-2.48L76,54h4.87l.89-10.63L92,45.76l1.49-4.57-9.64-4,5.56-9.34L85.55,25,78.5,33.54,71.45,25Z" style="fill:#f6f5de"/></symbol></defs><title>cds-congress</title><path d="M680,750H0V0H680Z" style="fill:none"/><circle cx="340" cy="374.5" r="203.4" style="fill:none;stroke:#b22e2e;stroke-miterlimit:10;stroke-width:6.495999813079834px"/><g style="opacity:0.4000000059604645"><ellipse cx="268.73" cy="358.19" rx="4.61" ry="4.45" style="fill:#bdbdbd"/><ellipse cx="255.81" cy="358.19" rx="4.61" ry="4.45" style="fill:#bdbdbd"/><ellipse cx="243.51" cy="358.19" rx="4.61" ry="4.45" style="fill:#bdbdbd"/><ellipse cx="229.97" cy="358.19" rx="4.61" ry="4.45" style="fill:#bdbdbd"/><ellipse cx="216.44" cy="358.19" rx="4.61" ry="4.45" style="fill:#bdbdbd"/><path d="M275.76,345.57a4.62,4.62,0,1,0-5.014,4.189l.154.011a4.51,4.51,0,0,0,4.855-4.136Zm-12.9-.68a4.62,4.62,0,1,0-5.014,4.189l.154.011a4.51,4.51,0,0,0,4.855-4.136Zm-12.29-.65a4.62,4.62,0,1,0-5.014,4.189l.154.011a4.51,4.51,0,0,0,4.855-4.136Zm-13.51-.71a4.62,4.62,0,1,0-5.014,4.189l.154.011a4.51,4.51,0,0,0,4.855-4.136Zm-13.52-.71a4.62,4.62,0,1,0-5.014,4.189l.154.011a4.51,4.51,0,0,0,4.855-4.136Zm57.63-9.34a4.49,4.49,0,0,0-4.044-4.9l-.046,0a4.58,4.58,0,0,0-5.08,3.95,4.49,4.49,0,0,0,4.044,4.9l.046,0A4.58,4.58,0,0,0,281.17,333.48Zm-12.85-1.33a4.49,4.49,0,0,0-4.044-4.9l-.046,0a4.58,4.58,0,0,0-5.08,3.95,4.49,4.49,0,0,0,4.044,4.9l.046,0A4.58,4.58,0,0,0,268.32,332.15Zm-13.46-1.86a4.49,4.49,0,0,0-4.044-4.9l-.046,0a4.58,4.58,0,0,0-5.08,3.95,4.49,4.49,0,0,0,4.044,4.9l.046,0A4.58,4.58,0,0,0,254.86,330.29ZM242,328.89a4.49,4.49,0,0,0-4.044-4.9l-.046,0a4.58,4.58,0,0,0-5.08,3.95,4.49,4.49,0,0,0,4.044,4.9l.046,0A4.58,4.58,0,0,0,242,328.89Zm-14.06-.8a4.49,4.49,0,0,0-4.044-4.9l-.046,0a4.58,4.58,0,0,0-5.08,3.95,4.49,4.49,0,0,0,4.044,4.9l.046,0A4.58,4.58,0,0,0,227.94,328.09Zm60.83-5.24a4.46,4.46,0,0,0-3.59-5.186l-.08-.014a4.61,4.61,0,0,0-5.4,3.54,4.46,4.46,0,0,0,3.59,5.186l.08.014A4.61,4.61,0,0,0,288.77,322.85Zm-13.3-2.33a4.46,4.46,0,0,0-3.59-5.186l-.08-.014a4.61,4.61,0,0,0-5.4,3.54,4.46,4.46,0,0,0,3.59,5.186l.08.014A4.61,4.61,0,0,0,275.47,320.52Zm-13.27-2.9a4.46,4.46,0,0,0-3.59-5.186l-.08-.014a4.61,4.61,0,0,0-5.4,3.54,4.46,4.46,0,0,0,3.59,5.186l.08.014A4.61,4.61,0,0,0,262.2,317.62Zm-13.91-2.4a4.46,4.46,0,0,0-3.59-5.186l-.08-.014a4.61,4.61,0,0,0-5.4,3.54,4.46,4.46,0,0,0,3.59,5.186l.08.014A4.61,4.61,0,0,0,248.29,315.22Zm-13.96-1.89a4.46,4.46,0,0,0-3.59-5.186l-.08-.014a4.61,4.61,0,0,0-5.4,3.54,4.46,4.46,0,0,0,3.59,5.186l.08.014A4.61,4.61,0,0,0,234.33,313.33Zm64.31.14a4.43,4.43,0,0,0-3.106-5.441L295.42,308a4.64,4.64,0,0,0-5.68,3.1,4.43,4.43,0,0,0,3.106,5.441l.114.029A4.64,4.64,0,0,0,298.64,313.47ZM285,309.51a4.43,4.43,0,0,0-3.106-5.441l-.114-.029a4.64,4.64,0,0,0-5.68,3.1,4.43,4.43,0,0,0,3.106,5.441l.114.029A4.64,4.64,0,0,0,285,309.51Zm-14.25-3.94a4.43,4.43,0,0,0-3.106-5.441l-.114-.029a4.64,4.64,0,0,0-5.68,3.1,4.43,4.43,0,0,0,3.106,5.441l.114.029A4.64,4.64,0,0,0,270.75,305.57Zm-14.89-2.89a4.43,4.43,0,0,0-3.106-5.441l-.114-.029a4.64,4.64,0,0,0-5.68,3.1,4.43,4.43,0,0,0,3.106,5.441l.114.029A4.64,4.64,0,0,0,255.86,302.68Zm-13.75-2.4A4.43,4.43,0,0,0,239,294.839l-.114-.029a4.64,4.64,0,0,0-5.68,3.1,4.43,4.43,0,0,0,3.106,5.441l.114.029A4.64,4.64,0,0,0,242.11,300.28Zm68.21,5.48a4.43,4.43,0,0,0-3.106-5.441l-.114-.029a4.64,4.64,0,0,0-5.68,3.1,4.43,4.43,0,0,0,3.106,5.441l.114.029A4.64,4.64,0,0,0,310.32,305.76ZM296,300.61a4.43,4.43,0,0,0-3.106-5.441l-.114-.029a4.64,4.64,0,0,0-5.68,3.1,4.43,4.43,0,0,0,3.106,5.441l.114.029A4.64,4.64,0,0,0,296,300.61Zm-14.79-4.53a4.43,4.43,0,0,0-3.092-5.449L278,290.6a4.64,4.64,0,0,0-5.68,3.1,4.43,4.43,0,0,0,3.106,5.441l.114.029a4.64,4.64,0,0,0,5.67-3.09ZM266.32,292a4.43,4.43,0,0,0-3.106-5.441l-.114-.029a4.64,4.64,0,0,0-5.68,3.1,4.43,4.43,0,0,0,3.106,5.441l.114.029A4.64,4.64,0,0,0,266.32,292ZM252,288.42a4.43,4.43,0,0,0-3.106-5.441l-.114-.029a4.64,4.64,0,0,0-5.68,3.1,4.43,4.43,0,0,0,3.106,5.441l.114.029A4.64,4.64,0,0,0,252,288.42Zm70.49,13.19a4.4,4.4,0,0,0-2.416-5.734l-.144-.056a4.67,4.67,0,0,0-6,2.47,4.4,4.4,0,0,0,2.416,5.734l.144.056A4.67,4.67,0,0,0,322.49,301.61Zm0-12.46a4.4,4.4,0,0,0-2.416-5.734l-.144-.056a4.67,4.67,0,0,0-6,2.47,4.4,4.4,0,0,0,2.416,5.734l.144.056A4.67,4.67,0,0,0,322.49,289.15Zm-.61-13.04a4.4,4.4,0,0,0-2.416-5.734l-.144-.056a4.67,4.67,0,0,0-6,2.47,4.4,4.4,0,0,0,2.416,5.734l.144.056A4.67,4.67,0,0,0,321.88,276.11Zm-.62-13.05a4.4,4.4,0,0,0-2.416-5.734l-.144-.056a4.67,4.67,0,0,0-6,2.47,4.4,4.4,0,0,0,2.416,5.734l.144.056A4.67,4.67,0,0,0,321.26,263.06ZM320,250.6a4.4,4.4,0,0,0-2.416-5.734l-.144-.056a4.67,4.67,0,0,0-6,2.47,4.4,4.4,0,0,0,2.416,5.734l.144.056A4.67,4.67,0,0,0,320,250.6Zm16.64,47.45a4.4,4.4,0,0,0-2.416-5.734l-.144-.056a4.67,4.67,0,0,0-6,2.47,4.4,4.4,0,0,0,2.416,5.734l.144.056A4.67,4.67,0,0,0,336.64,298.05Zm0-12.45a4.4,4.4,0,0,0-2.416-5.734l-.144-.056a4.67,4.67,0,0,0-6,2.47,4.4,4.4,0,0,0,2.416,5.734l.144.056A4.67,4.67,0,0,0,336.64,285.6ZM336,272.55a4.4,4.4,0,0,0-2.416-5.734l-.144-.056a4.67,4.67,0,0,0-6,2.47,4.4,4.4,0,0,0,2.441,5.724L330,275A4.67,4.67,0,0,0,336,272.55Zm0-11.87a4.4,4.4,0,0,0-2.416-5.734l-.144-.056a4.67,4.67,0,0,0-6,2.47,4.4,4.4,0,0,0,2.416,5.734l.144.056A4.67,4.67,0,0,0,336,260.68Zm.64-13.04a4.4,4.4,0,0,0-2.416-5.734l-.144-.056a4.67,4.67,0,0,0-6,2.47,4.4,4.4,0,0,0,2.416,5.734l.144.056A4.67,4.67,0,0,0,336.64,247.64Zm14.69,50.41a4.4,4.4,0,0,0-2.416-5.734l-.144-.056a4.67,4.67,0,0,0-6,2.47,4.4,4.4,0,0,0,2.416,5.734l.144.056A4.67,4.67,0,0,0,351.33,298.05ZM352,285.6a4.4,4.4,0,0,0-2.416-5.734l-.144-.056a4.67,4.67,0,0,0-6,2.47,4.4,4.4,0,0,0,2.416,5.734l.144.056A4.67,4.67,0,0,0,352,285.6Zm.09-13.05a4.4,4.4,0,0,0-2.416-5.734l-.144-.056a4.67,4.67,0,0,0-6,2.47,4.4,4.4,0,0,0,2.416,5.734l.144.056A4.67,4.67,0,0,0,352.09,272.55Zm0-11.87a4.4,4.4,0,0,0-2.416-5.734l-.144-.056a4.67,4.67,0,0,0-6,2.47,4.4,4.4,0,0,0,2.416,5.734l.144.056A4.67,4.67,0,0,0,352.09,260.68Zm.62-13.04a4.4,4.4,0,0,0-2.416-5.734l-.144-.056a4.67,4.67,0,0,0-6,2.47,4.4,4.4,0,0,0,2.416,5.734l.144.056A4.67,4.67,0,0,0,352.71,247.64Zm-44.44,46.72a4.4,4.4,0,0,0-2.416-5.734l-.144-.056a4.67,4.67,0,0,0-6,2.47,4.4,4.4,0,0,0,2.416,5.734l.144.056A4.67,4.67,0,0,0,308.27,294.36Zm-15.43-6.7a4.4,4.4,0,0,0-2.416-5.734l-.144-.056a4.67,4.67,0,0,0-6,2.47,4.4,4.4,0,0,0,2.416,5.734l.144.056A4.67,4.67,0,0,0,292.84,287.66ZM291,273.43a4.4,4.4,0,0,0-2.416-5.734l-.144-.056a4.67,4.67,0,0,0-6,2.47,4.4,4.4,0,0,0,2.416,5.734l.144.056A4.67,4.67,0,0,0,291,273.43Zm-1.24-13.05a4.4,4.4,0,0,0-2.416-5.734l-.144-.056a4.67,4.67,0,0,0-6,2.47,4.4,4.4,0,0,0,2.416,5.734l.144.056A4.67,4.67,0,0,0,289.76,260.38Zm16.61,20.16a4.4,4.4,0,0,0-2.416-5.734l-.144-.056a4.67,4.67,0,0,0-6,2.47,4.4,4.4,0,0,0,2.416,5.734l.144.056A4.67,4.67,0,0,0,306.37,280.54Zm-1.23-13.64a4.4,4.4,0,0,0-2.416-5.734l-.144-.056a4.67,4.67,0,0,0-6,2.47A4.4,4.4,0,0,0,299,269.314l.144.056A4.67,4.67,0,0,0,305.14,266.9ZM303.91,255a4.4,4.4,0,0,0-2.416-5.734l-.144-.056a4.67,4.67,0,0,0-6,2.47,4.4,4.4,0,0,0,2.416,5.734l.144.056A4.67,4.67,0,0,0,303.91,255Zm-26.63,27.6a4.4,4.4,0,0,0-2.416-5.734l-.144-.056a4.67,4.67,0,0,0-6,2.47,4.4,4.4,0,0,0,2.416,5.734l.144.056A4.67,4.67,0,0,0,277.28,282.6Zm-2.46-14.23a4.4,4.4,0,0,0-2.416-5.734l-.144-.056a4.67,4.67,0,0,0-6,2.47,4.4,4.4,0,0,0,2.416,5.734l.144.056A4.67,4.67,0,0,0,274.82,268.37Zm-11.4,9.71A4.4,4.4,0,0,0,261,272.346l-.144-.056a4.67,4.67,0,0,0-6,2.47,4.4,4.4,0,0,0,2.416,5.734l.144.056A4.67,4.67,0,0,0,263.42,278.08Z" style="fill:#bdbdbd"/><ellipse cx="411.27" cy="358.19" rx="4.61" ry="4.45" style="fill:#bdbdbd"/><ellipse cx="424.19" cy="358.19" rx="4.61" ry="4.45" style="fill:#bdbdbd"/><ellipse cx="436.49" cy="358.19" rx="4.61" ry="4.45" style="fill:#bdbdbd"/><ellipse cx="450.03" cy="358.19" rx="4.61" ry="4.45" style="fill:#bdbdbd"/><ellipse cx="463.56" cy="358.19" rx="4.61" ry="4.45" style="fill:#bdbdbd"/><path d="M404.24,345.57a4.62,4.62,0,1,1,5.014,4.189l-.154.011a4.51,4.51,0,0,1-4.855-4.136Zm12.9-.68a4.62,4.62,0,1,1,5.014,4.189l-.154.011a4.51,4.51,0,0,1-4.855-4.136Zm12.29-.65a4.62,4.62,0,1,1,5.014,4.189l-.154.011a4.51,4.51,0,0,1-4.855-4.136Zm13.51-.71a4.62,4.62,0,1,1,5.014,4.189l-.154.011a4.51,4.51,0,0,1-4.855-4.136Zm13.52-.71a4.62,4.62,0,1,1,5.014,4.189l-.154.011a4.51,4.51,0,0,1-4.855-4.136Zm-57.63-9.34a4.49,4.49,0,0,1,4.044-4.9l.046,0a4.58,4.58,0,0,1,5.08,3.95,4.49,4.49,0,0,1-4.044,4.9l-.046,0A4.58,4.58,0,0,1,398.83,333.48Zm12.85-1.33a4.49,4.49,0,0,1,4.044-4.9l.046,0a4.58,4.58,0,0,1,5.08,3.95,4.49,4.49,0,0,1-4.044,4.9l-.046,0A4.58,4.58,0,0,1,411.68,332.15Zm13.46-1.86a4.49,4.49,0,0,1,4.044-4.9l.046,0a4.58,4.58,0,0,1,5.08,3.95,4.49,4.49,0,0,1-4.044,4.9l-.046,0A4.58,4.58,0,0,1,425.14,330.29Zm12.86-1.4a4.49,4.49,0,0,1,4.044-4.9l.046,0a4.58,4.58,0,0,1,5.08,3.95,4.49,4.49,0,0,1-4.044,4.9l-.046,0A4.58,4.58,0,0,1,438,328.89Zm14.06-.8a4.49,4.49,0,0,1,4.044-4.9l.046,0a4.58,4.58,0,0,1,5.08,3.95,4.49,4.49,0,0,1-4.044,4.9l-.046,0A4.58,4.58,0,0,1,452.06,328.09Zm-60.83-5.24a4.46,4.46,0,0,1,3.59-5.186l.08-.014a4.61,4.61,0,0,1,5.4,3.54,4.46,4.46,0,0,1-3.59,5.186l-.08.014A4.61,4.61,0,0,1,391.23,322.85Zm13.3-2.33a4.46,4.46,0,0,1,3.59-5.186l.08-.014a4.61,4.61,0,0,1,5.4,3.54,4.46,4.46,0,0,1-3.59,5.186l-.08.014A4.61,4.61,0,0,1,404.53,320.52Zm13.27-2.9a4.46,4.46,0,0,1,3.59-5.186l.08-.014a4.61,4.61,0,0,1,5.4,3.54,4.46,4.46,0,0,1-3.59,5.186l-.08.014A4.61,4.61,0,0,1,417.8,317.62Zm13.91-2.4a4.46,4.46,0,0,1,3.59-5.186l.08-.014a4.61,4.61,0,0,1,5.4,3.54,4.46,4.46,0,0,1-3.59,5.186l-.08.014A4.61,4.61,0,0,1,431.71,315.22Zm13.96-1.89a4.46,4.46,0,0,1,3.59-5.186l.08-.014a4.61,4.61,0,0,1,5.4,3.54,4.46,4.46,0,0,1-3.59,5.186l-.08.014A4.61,4.61,0,0,1,445.67,313.33Zm-64.31.14a4.43,4.43,0,0,1,3.106-5.441l.114-.029a4.64,4.64,0,0,1,5.68,3.1,4.43,4.43,0,0,1-3.106,5.441l-.114.029A4.64,4.64,0,0,1,381.36,313.47ZM395,309.51a4.43,4.43,0,0,1,3.106-5.441l.114-.029a4.64,4.64,0,0,1,5.68,3.1,4.43,4.43,0,0,1-3.106,5.441l-.114.029A4.64,4.64,0,0,1,395,309.51Zm14.25-3.94a4.43,4.43,0,0,1,3.106-5.441l.114-.029a4.64,4.64,0,0,1,5.68,3.1,4.43,4.43,0,0,1-3.106,5.441l-.114.029A4.64,4.64,0,0,1,409.25,305.57Zm14.89-2.89a4.43,4.43,0,0,1,3.106-5.441l.114-.029a4.64,4.64,0,0,1,5.68,3.1,4.43,4.43,0,0,1-3.106,5.441l-.114.029A4.64,4.64,0,0,1,424.14,302.68Zm13.75-2.4A4.43,4.43,0,0,1,441,294.839l.114-.029a4.64,4.64,0,0,1,5.68,3.1,4.43,4.43,0,0,1-3.106,5.441l-.114.029A4.64,4.64,0,0,1,437.89,300.28Zm-68.21,5.48a4.43,4.43,0,0,1,3.106-5.441l.114-.029a4.64,4.64,0,0,1,5.68,3.1,4.43,4.43,0,0,1-3.106,5.441l-.114.029A4.64,4.64,0,0,1,369.68,305.76ZM384,300.61a4.43,4.43,0,0,1,3.106-5.441l.114-.029a4.64,4.64,0,0,1,5.68,3.1,4.43,4.43,0,0,1-3.106,5.441l-.114.029A4.64,4.64,0,0,1,384,300.61Zm14.79-4.53a4.43,4.43,0,0,1,3.092-5.449L402,290.6a4.64,4.64,0,0,1,5.68,3.1,4.43,4.43,0,0,1-3.106,5.441l-.114.029a4.64,4.64,0,0,1-5.67-3.09ZM413.68,292a4.43,4.43,0,0,1,3.106-5.441l.114-.029a4.64,4.64,0,0,1,5.68,3.1,4.43,4.43,0,0,1-3.106,5.441l-.114.029A4.64,4.64,0,0,1,413.68,292ZM428,288.42a4.43,4.43,0,0,1,3.106-5.441l.114-.029a4.64,4.64,0,0,1,5.68,3.1,4.43,4.43,0,0,1-3.106,5.441l-.114.029A4.64,4.64,0,0,1,428,288.42Zm-70.49,13.19a4.4,4.4,0,0,1,2.416-5.734l.144-.056a4.67,4.67,0,0,1,6,2.47,4.4,4.4,0,0,1-2.416,5.734l-.144.056A4.67,4.67,0,0,1,357.51,301.61Zm0-12.46a4.4,4.4,0,0,1,2.416-5.734l.144-.056a4.67,4.67,0,0,1,6,2.47,4.4,4.4,0,0,1-2.416,5.734l-.144.056A4.67,4.67,0,0,1,357.51,289.15Zm.61-13.04a4.4,4.4,0,0,1,2.416-5.734l.144-.056a4.67,4.67,0,0,1,6,2.47,4.4,4.4,0,0,1-2.416,5.734l-.144.056A4.67,4.67,0,0,1,358.12,276.11Zm.62-13.05a4.4,4.4,0,0,1,2.416-5.734l.144-.056a4.67,4.67,0,0,1,6,2.47,4.4,4.4,0,0,1-2.416,5.734l-.144.056A4.67,4.67,0,0,1,358.74,263.06ZM360,250.6a4.4,4.4,0,0,1,2.416-5.734l.144-.056a4.67,4.67,0,0,1,6,2.47,4.4,4.4,0,0,1-2.416,5.734l-.144.056A4.67,4.67,0,0,1,360,250.6Zm11.73,43.76a4.4,4.4,0,0,1,2.416-5.734l.144-.056a4.67,4.67,0,0,1,6,2.47,4.4,4.4,0,0,1-2.416,5.734l-.144.056A4.67,4.67,0,0,1,371.73,294.36Zm15.43-6.7a4.4,4.4,0,0,1,2.416-5.734l.144-.056a4.67,4.67,0,0,1,6,2.47,4.4,4.4,0,0,1-2.416,5.734l-.144.056A4.67,4.67,0,0,1,387.16,287.66ZM389,273.43a4.4,4.4,0,0,1,2.416-5.734l.144-.056a4.67,4.67,0,0,1,6,2.47,4.4,4.4,0,0,1-2.416,5.734L395,275.9A4.67,4.67,0,0,1,389,273.43Zm1.24-13.05a4.4,4.4,0,0,1,2.416-5.734l.144-.056a4.67,4.67,0,0,1,6,2.47,4.4,4.4,0,0,1-2.416,5.734l-.144.056A4.67,4.67,0,0,1,390.24,260.38Zm-16.61,20.16a4.4,4.4,0,0,1,2.416-5.734l.144-.056a4.67,4.67,0,0,1,6,2.47,4.4,4.4,0,0,1-2.416,5.734l-.144.056A4.67,4.67,0,0,1,373.63,280.54Zm1.23-13.64a4.4,4.4,0,0,1,2.416-5.734l.144-.056a4.67,4.67,0,0,1,6,2.47A4.4,4.4,0,0,1,381,269.314l-.144.056A4.67,4.67,0,0,1,374.86,266.9Zm1.23-11.9a4.4,4.4,0,0,1,2.416-5.734l.144-.056a4.67,4.67,0,0,1,6,2.47,4.4,4.4,0,0,1-2.416,5.734l-.144.056A4.67,4.67,0,0,1,376.09,255Zm26.63,27.6a4.4,4.4,0,0,1,2.416-5.734l.144-.056a4.67,4.67,0,0,1,6,2.47,4.4,4.4,0,0,1-2.416,5.734l-.144.056A4.67,4.67,0,0,1,402.72,282.6Zm2.46-14.23a4.4,4.4,0,0,1,2.416-5.734l.144-.056a4.67,4.67,0,0,1,6,2.47,4.4,4.4,0,0,1-2.416,5.734l-.144.056A4.67,4.67,0,0,1,405.18,268.37Zm11.4,9.71A4.4,4.4,0,0,1,419,272.346l.144-.056a4.67,4.67,0,0,1,6,2.47,4.4,4.4,0,0,1-2.416,5.734l-.144.056A4.67,4.67,0,0,1,416.58,278.08Z" style="fill:#bdbdbd"/></g><g style="opacity:0.4000000059604645"><ellipse cx="411.27" cy="387.86" rx="4.61" ry="4.45" style="fill:#bdbdbd"/><ellipse cx="424.19" cy="387.86" rx="4.61" ry="4.45" style="fill:#bdbdbd"/><ellipse cx="436.49" cy="387.86" rx="4.61" ry="4.45" style="fill:#bdbdbd"/><ellipse cx="450.03" cy="387.86" rx="4.61" ry="4.45" style="fill:#bdbdbd"/><ellipse cx="463.56" cy="387.86" rx="4.61" ry="4.45" style="fill:#bdbdbd"/><path d="M404.24,400.47a4.62,4.62,0,1,0,5.014-4.189l-.154-.011a4.51,4.51,0,0,0-4.855,4.136Zm12.9.68a4.62,4.62,0,1,0,5.059-4.134q-.1-.01-.2-.016a4.51,4.51,0,0,0-4.859,4.132Zm12.29.65a4.62,4.62,0,1,0,5.014-4.189l-.154-.011a4.51,4.51,0,0,0-4.855,4.136Zm13.51.71a4.62,4.62,0,1,0,5.014-4.189l-.154-.011a4.51,4.51,0,0,0-4.855,4.136Zm13.52.72a4.62,4.62,0,1,0,5.014-4.189l-.154-.011a4.51,4.51,0,0,0-4.855,4.136Zm-57.63,9.33a4.49,4.49,0,0,0,4.044,4.9l.046,0a4.58,4.58,0,0,0,5.08-3.95,4.49,4.49,0,0,0-4.044-4.9l-.046,0A4.58,4.58,0,0,0,398.83,412.56Zm12.85,1.33a4.49,4.49,0,0,0,4.044,4.9l.046,0a4.58,4.58,0,0,0,5.08-3.95,4.49,4.49,0,0,0-4.044-4.9l-.046,0A4.58,4.58,0,0,0,411.68,413.89Zm13.46,1.86a4.49,4.49,0,0,0,4.044,4.9l.046,0a4.58,4.58,0,0,0,5.08-3.95,4.49,4.49,0,0,0-4.044-4.9l-.046,0A4.58,4.58,0,0,0,425.14,415.75Zm12.86,1.4a4.49,4.49,0,0,0,4.044,4.9l.046,0a4.58,4.58,0,0,0,5.08-3.95,4.49,4.49,0,0,0-4.044-4.9l-.046,0A4.58,4.58,0,0,0,438,417.15Zm14.06.85a4.49,4.49,0,0,0,4.044,4.9l.046,0a4.58,4.58,0,0,0,5.08-3.95,4.49,4.49,0,0,0-4.044-4.9l-.046,0A4.58,4.58,0,0,0,452.06,418Zm-60.83,5.19a4.46,4.46,0,0,0,3.59,5.186l.08.014a4.61,4.61,0,0,0,5.4-3.54,4.46,4.46,0,0,0-3.59-5.186l-.08-.014A4.61,4.61,0,0,0,391.23,423.19Zm13.3,2.33a4.46,4.46,0,0,0,3.59,5.186l.08.014a4.61,4.61,0,0,0,5.4-3.54,4.46,4.46,0,0,0-3.59-5.186l-.08-.014A4.61,4.61,0,0,0,404.53,425.52Zm13.27,2.9a4.46,4.46,0,0,0,3.59,5.186l.08.014a4.61,4.61,0,0,0,5.4-3.54,4.46,4.46,0,0,0-3.59-5.186l-.08-.014A4.61,4.61,0,0,0,417.8,428.42Zm13.91,2.4a4.46,4.46,0,0,0,3.59,5.186l.08.014a4.61,4.61,0,0,0,5.4-3.54,4.46,4.46,0,0,0-3.59-5.186l-.08-.014A4.61,4.61,0,0,0,431.71,430.82Zm13.96,1.9a4.46,4.46,0,0,0,3.59,5.186l.08.014a4.61,4.61,0,0,0,5.4-3.54,4.46,4.46,0,0,0-3.59-5.186l-.08-.014A4.61,4.61,0,0,0,445.67,432.72Zm-64.31-.15a4.43,4.43,0,0,0,3.106,5.441l.114.029a4.64,4.64,0,0,0,5.68-3.1,4.43,4.43,0,0,0-3.106-5.441l-.114-.029A4.64,4.64,0,0,0,381.36,432.57ZM395,436.54a4.43,4.43,0,0,0,3.106,5.441l.114.029a4.64,4.64,0,0,0,5.68-3.1,4.43,4.43,0,0,0-3.106-5.441l-.114-.029A4.64,4.64,0,0,0,395,436.54Zm14.25,3.94a4.43,4.43,0,0,0,3.106,5.441l.114.029a4.64,4.64,0,0,0,5.68-3.1,4.43,4.43,0,0,0-3.106-5.441l-.114-.029A4.64,4.64,0,0,0,409.25,440.48Zm14.89,2.88a4.43,4.43,0,0,0,3.106,5.441l.114.029a4.64,4.64,0,0,0,5.68-3.1,4.43,4.43,0,0,0-3.106-5.441l-.114-.029A4.64,4.64,0,0,0,424.14,443.36Zm13.75,2.4A4.43,4.43,0,0,0,441,451.2l.114.029a4.64,4.64,0,0,0,5.68-3.1,4.43,4.43,0,0,0-3.106-5.441l-.114-.029A4.64,4.64,0,0,0,437.89,445.76Zm-68.21-5.48a4.43,4.43,0,0,0,3.106,5.441l.114.029a4.64,4.64,0,0,0,5.68-3.1,4.43,4.43,0,0,0-3.106-5.441l-.114-.029A4.64,4.64,0,0,0,369.68,440.28ZM384,445.43a4.43,4.43,0,0,0,3.106,5.441l.114.029a4.64,4.64,0,0,0,5.68-3.1,4.43,4.43,0,0,0-3.106-5.441l-.114-.029A4.64,4.64,0,0,0,384,445.43ZM398.79,450a4.43,4.43,0,0,0,3.106,5.441l.114.029a4.64,4.64,0,0,0,5.68-3.1,4.43,4.43,0,0,0-3.106-5.441l-.114-.029A4.64,4.64,0,0,0,398.79,450Zm14.89,4a4.43,4.43,0,0,0,3.106,5.441l.114.029a4.64,4.64,0,0,0,5.68-3.1,4.43,4.43,0,0,0-3.106-5.441l-.114-.029A4.64,4.64,0,0,0,413.68,454ZM428,457.62a4.43,4.43,0,0,0,3.106,5.441l.114.029a4.64,4.64,0,0,0,5.68-3.1,4.43,4.43,0,0,0-3.106-5.441l-.114-.029A4.64,4.64,0,0,0,428,457.62Zm-70.49-13.19a4.4,4.4,0,0,0,2.416,5.734l.144.056a4.67,4.67,0,0,0,6-2.47,4.4,4.4,0,0,0-2.416-5.734l-.144-.056A4.67,4.67,0,0,0,357.51,444.43Zm0,12.46a4.4,4.4,0,0,0,2.416,5.734l.144.056a4.67,4.67,0,0,0,6-2.47,4.4,4.4,0,0,0-2.416-5.734l-.144-.056A4.67,4.67,0,0,0,357.51,456.89Zm.61,13.05a4.4,4.4,0,0,0,2.416,5.734l.144.056a4.67,4.67,0,0,0,6-2.47,4.4,4.4,0,0,0-2.416-5.734l-.144-.056A4.67,4.67,0,0,0,358.12,469.94Zm.62,13.06a4.4,4.4,0,0,0,2.416,5.734l.144.056a4.67,4.67,0,0,0,6-2.47,4.4,4.4,0,0,0-2.416-5.734l-.144-.056A4.67,4.67,0,0,0,358.74,483ZM360,495.44a4.4,4.4,0,0,0,2.416,5.734l.144.056a4.67,4.67,0,0,0,6-2.47,4.4,4.4,0,0,0-2.453-5.719L366,493A4.67,4.67,0,0,0,360,495.44ZM343.36,448a4.4,4.4,0,0,0,2.416,5.734l.144.056a4.67,4.67,0,0,0,6-2.47,4.4,4.4,0,0,0-2.416-5.734l-.144-.056A4.67,4.67,0,0,0,343.36,448Zm0,12.45a4.4,4.4,0,0,0,2.416,5.734l.144.056a4.67,4.67,0,0,0,6-2.47,4.4,4.4,0,0,0-2.416-5.734l-.144-.056A4.67,4.67,0,0,0,343.36,460.45ZM344,473.5a4.4,4.4,0,0,0,2.416,5.734l.144.056a4.67,4.67,0,0,0,6-2.47,4.4,4.4,0,0,0-2.379-5.75q-.09-.037-.181-.07A4.67,4.67,0,0,0,344,473.5Zm0,11.86a4.4,4.4,0,0,0,2.416,5.734l.144.056a4.67,4.67,0,0,0,6-2.47,4.4,4.4,0,0,0-2.416-5.734L350,482.89A4.67,4.67,0,0,0,344,485.36Zm-.64,13.05a4.4,4.4,0,0,0,2.416,5.734l.144.056a4.67,4.67,0,0,0,6-2.47A4.4,4.4,0,0,0,349.5,496l-.144-.056A4.67,4.67,0,0,0,343.36,498.41ZM328.67,448a4.4,4.4,0,0,0,2.416,5.734l.144.056a4.67,4.67,0,0,0,6-2.47,4.4,4.4,0,0,0-2.416-5.734l-.144-.056A4.67,4.67,0,0,0,328.67,448ZM328,460.45a4.4,4.4,0,0,0,2.416,5.734l.144.056a4.67,4.67,0,0,0,6-2.47,4.4,4.4,0,0,0-2.441-5.724L334,458A4.67,4.67,0,0,0,328,460.45Zm-.09,13.05a4.4,4.4,0,0,0,2.416,5.734l.144.056a4.67,4.67,0,0,0,6-2.47,4.4,4.4,0,0,0-2.416-5.734l-.144-.056A4.67,4.67,0,0,0,327.91,473.5Zm0,11.86a4.4,4.4,0,0,0,2.416,5.734l.144.056a4.67,4.67,0,0,0,6-2.47,4.4,4.4,0,0,0-2.416-5.734l-.144-.056A4.67,4.67,0,0,0,327.91,485.36Zm-.62,13.05a4.4,4.4,0,0,0,2.416,5.734l.144.056a4.67,4.67,0,0,0,6-2.47A4.4,4.4,0,0,0,333.434,496l-.144-.056A4.67,4.67,0,0,0,327.29,498.41Zm44.44-46.73a4.4,4.4,0,0,0,2.416,5.734l.144.056a4.67,4.67,0,0,0,6-2.47,4.4,4.4,0,0,0-2.416-5.734l-.144-.056A4.67,4.67,0,0,0,371.73,451.68Zm15.43,6.7a4.4,4.4,0,0,0,2.416,5.734l.144.056a4.67,4.67,0,0,0,6-2.47,4.4,4.4,0,0,0-2.416-5.734l-.144-.056A4.67,4.67,0,0,0,387.16,458.38ZM389,472.62a4.4,4.4,0,0,0,2.416,5.734l.144.056a4.67,4.67,0,0,0,6-2.47,4.4,4.4,0,0,0-2.416-5.734L395,470.15A4.67,4.67,0,0,0,389,472.62Zm1.24,13.04a4.4,4.4,0,0,0,2.416,5.734l.144.056a4.67,4.67,0,0,0,6-2.47,4.4,4.4,0,0,0-2.416-5.734l-.144-.056A4.67,4.67,0,0,0,390.24,485.66ZM373.63,465.5a4.4,4.4,0,0,0,2.416,5.734l.144.056a4.67,4.67,0,0,0,6-2.47,4.4,4.4,0,0,0-2.416-5.734l-.144-.056A4.67,4.67,0,0,0,373.63,465.5Zm1.23,13.64a4.4,4.4,0,0,0,2.416,5.734l.144.056a4.67,4.67,0,0,0,6-2.47A4.4,4.4,0,0,0,381,476.726l-.144-.056A4.67,4.67,0,0,0,374.86,479.14ZM376.09,491a4.4,4.4,0,0,0,2.416,5.734l.144.056a4.67,4.67,0,0,0,6-2.47,4.4,4.4,0,0,0-2.416-5.734l-.144-.056A4.67,4.67,0,0,0,376.09,491Zm26.63-27.56a4.4,4.4,0,0,0,2.416,5.734l.144.056a4.67,4.67,0,0,0,6-2.47,4.4,4.4,0,0,0-2.416-5.734l-.144-.056A4.67,4.67,0,0,0,402.72,463.44Zm2.46,14.24a4.4,4.4,0,0,0,2.416,5.734l.144.056a4.67,4.67,0,0,0,6-2.47,4.4,4.4,0,0,0-2.416-5.734l-.144-.056A4.67,4.67,0,0,0,405.18,477.68Zm11.4-9.68A4.4,4.4,0,0,0,419,473.734l.144.056a4.67,4.67,0,0,0,6-2.47,4.4,4.4,0,0,0-2.416-5.734l-.144-.056A4.67,4.67,0,0,0,416.58,468Z" style="fill:#bdbdbd"/><ellipse cx="268.73" cy="387.86" rx="4.61" ry="4.45" style="fill:#bdbdbd"/><ellipse cx="255.81" cy="387.86" rx="4.61" ry="4.45" style="fill:#bdbdbd"/><ellipse cx="243.51" cy="387.86" rx="4.61" ry="4.45" style="fill:#bdbdbd"/><ellipse cx="229.97" cy="387.86" rx="4.61" ry="4.45" style="fill:#bdbdbd"/><ellipse cx="216.44" cy="387.86" rx="4.61" ry="4.45" style="fill:#bdbdbd"/><path d="M275.76,400.47a4.62,4.62,0,1,1-5.014-4.189l.154-.011a4.51,4.51,0,0,1,4.855,4.136Zm-12.9.68a4.62,4.62,0,1,1-5.059-4.134q.1-.01.2-.016a4.51,4.51,0,0,1,4.859,4.132Zm-12.29.65a4.62,4.62,0,1,1-5.014-4.189l.154-.011a4.51,4.51,0,0,1,4.855,4.136Zm-13.51.71a4.62,4.62,0,1,1-5.014-4.189l.154-.011a4.51,4.51,0,0,1,4.855,4.136Zm-13.52.72a4.62,4.62,0,1,1-5.014-4.189l.154-.011a4.51,4.51,0,0,1,4.855,4.136Zm57.63,9.33a4.49,4.49,0,0,1-4.044,4.9l-.046,0a4.58,4.58,0,0,1-5.08-3.95,4.49,4.49,0,0,1,4.044-4.9l.046,0A4.58,4.58,0,0,1,281.17,412.56Zm-12.85,1.33a4.49,4.49,0,0,1-4.044,4.9l-.046,0a4.58,4.58,0,0,1-5.08-3.95,4.49,4.49,0,0,1,4.044-4.9l.046,0A4.58,4.58,0,0,1,268.32,413.89Zm-13.46,1.86a4.49,4.49,0,0,1-4.044,4.9l-.046,0a4.58,4.58,0,0,1-5.08-3.95,4.49,4.49,0,0,1,4.044-4.9l.046,0A4.58,4.58,0,0,1,254.86,415.75ZM242,417.15a4.49,4.49,0,0,1-4.044,4.9l-.046,0a4.58,4.58,0,0,1-5.08-3.95,4.49,4.49,0,0,1,4.044-4.9l.046,0A4.58,4.58,0,0,1,242,417.15Zm-14.06.85a4.49,4.49,0,0,1-4.044,4.9l-.046,0a4.58,4.58,0,0,1-5.08-3.95,4.49,4.49,0,0,1,4.044-4.9l.046,0A4.58,4.58,0,0,1,227.94,418Zm60.83,5.19a4.46,4.46,0,0,1-3.59,5.186l-.08.014a4.61,4.61,0,0,1-5.4-3.54,4.46,4.46,0,0,1,3.59-5.186l.08-.014A4.61,4.61,0,0,1,288.77,423.19Zm-13.3,2.33a4.46,4.46,0,0,1-3.59,5.186l-.08.014a4.61,4.61,0,0,1-5.4-3.54,4.46,4.46,0,0,1,3.59-5.186l.08-.014A4.61,4.61,0,0,1,275.47,425.52Zm-13.27,2.9a4.46,4.46,0,0,1-3.59,5.186l-.08.014a4.61,4.61,0,0,1-5.4-3.54,4.46,4.46,0,0,1,3.59-5.186l.08-.014A4.61,4.61,0,0,1,262.2,428.42Zm-13.91,2.4a4.46,4.46,0,0,1-3.59,5.186l-.08.014a4.61,4.61,0,0,1-5.4-3.54,4.46,4.46,0,0,1,3.59-5.186l.08-.014A4.61,4.61,0,0,1,248.29,430.82Zm-13.96,1.9a4.46,4.46,0,0,1-3.59,5.186l-.08.014a4.61,4.61,0,0,1-5.4-3.54,4.46,4.46,0,0,1,3.59-5.186l.08-.014A4.61,4.61,0,0,1,234.33,432.72Zm64.31-.15a4.43,4.43,0,0,1-3.106,5.441l-.114.029a4.64,4.64,0,0,1-5.68-3.1,4.43,4.43,0,0,1,3.106-5.441l.114-.029A4.64,4.64,0,0,1,298.64,432.57ZM285,436.54a4.43,4.43,0,0,1-3.106,5.441l-.114.029a4.64,4.64,0,0,1-5.68-3.1,4.43,4.43,0,0,1,3.106-5.441l.114-.029A4.64,4.64,0,0,1,285,436.54Zm-14.25,3.94a4.43,4.43,0,0,1-3.106,5.441l-.114.029a4.64,4.64,0,0,1-5.68-3.1,4.43,4.43,0,0,1,3.106-5.441l.114-.029A4.64,4.64,0,0,1,270.75,440.48Zm-14.89,2.88a4.43,4.43,0,0,1-3.106,5.441l-.114.029a4.64,4.64,0,0,1-5.68-3.1,4.43,4.43,0,0,1,3.106-5.441l.114-.029A4.64,4.64,0,0,1,255.86,443.36Zm-13.75,2.4A4.43,4.43,0,0,1,239,451.2l-.114.029a4.64,4.64,0,0,1-5.68-3.1,4.43,4.43,0,0,1,3.106-5.441l.114-.029A4.64,4.64,0,0,1,242.11,445.76Zm68.21-5.48a4.43,4.43,0,0,1-3.106,5.441l-.114.029a4.64,4.64,0,0,1-5.68-3.1,4.43,4.43,0,0,1,3.106-5.441l.114-.029A4.64,4.64,0,0,1,310.32,440.28ZM296,445.43a4.43,4.43,0,0,1-3.106,5.441l-.114.029a4.64,4.64,0,0,1-5.68-3.1,4.43,4.43,0,0,1,3.106-5.441l.114-.029A4.64,4.64,0,0,1,296,445.43ZM281.21,450a4.43,4.43,0,0,1-3.106,5.441l-.114.029a4.64,4.64,0,0,1-5.68-3.1,4.43,4.43,0,0,1,3.106-5.441l.114-.029A4.64,4.64,0,0,1,281.21,450Zm-14.89,4a4.43,4.43,0,0,1-3.106,5.441l-.114.029a4.64,4.64,0,0,1-5.68-3.1,4.43,4.43,0,0,1,3.106-5.441l.114-.029A4.64,4.64,0,0,1,266.32,454ZM252,457.62a4.43,4.43,0,0,1-3.106,5.441l-.114.029a4.64,4.64,0,0,1-5.68-3.1,4.43,4.43,0,0,1,3.106-5.441l.114-.029A4.64,4.64,0,0,1,252,457.62Zm70.49-13.19a4.4,4.4,0,0,1-2.416,5.734l-.144.056a4.67,4.67,0,0,1-6-2.47,4.4,4.4,0,0,1,2.416-5.734l.144-.056A4.67,4.67,0,0,1,322.49,444.43Zm0,12.46a4.4,4.4,0,0,1-2.416,5.734l-.144.056a4.67,4.67,0,0,1-6-2.47,4.4,4.4,0,0,1,2.416-5.734l.144-.056A4.67,4.67,0,0,1,322.49,456.89Zm-.61,13.05a4.4,4.4,0,0,1-2.416,5.734l-.144.056a4.67,4.67,0,0,1-6-2.47,4.4,4.4,0,0,1,2.416-5.734l.144-.056A4.67,4.67,0,0,1,321.88,469.94ZM321.26,483a4.4,4.4,0,0,1-2.416,5.734l-.144.056a4.67,4.67,0,0,1-6-2.47,4.4,4.4,0,0,1,2.416-5.734l.144-.056A4.67,4.67,0,0,1,321.26,483ZM320,495.44a4.4,4.4,0,0,1-2.416,5.734l-.144.056a4.67,4.67,0,0,1-6-2.47,4.4,4.4,0,0,1,2.453-5.719L314,493A4.67,4.67,0,0,1,320,495.44Zm-11.73-43.76a4.4,4.4,0,0,1-2.416,5.734l-.144.056a4.67,4.67,0,0,1-6-2.47,4.4,4.4,0,0,1,2.416-5.734l.144-.056A4.67,4.67,0,0,1,308.27,451.68Zm-15.43,6.7a4.4,4.4,0,0,1-2.416,5.734l-.144.056a4.67,4.67,0,0,1-6-2.47,4.4,4.4,0,0,1,2.416-5.734l.144-.056A4.67,4.67,0,0,1,292.84,458.38ZM291,472.62a4.4,4.4,0,0,1-2.416,5.734l-.144.056a4.67,4.67,0,0,1-6-2.47,4.4,4.4,0,0,1,2.416-5.734l.144-.056A4.67,4.67,0,0,1,291,472.62Zm-1.24,13.04a4.4,4.4,0,0,1-2.416,5.734l-.144.056a4.67,4.67,0,0,1-6-2.47,4.4,4.4,0,0,1,2.416-5.734l.144-.056A4.67,4.67,0,0,1,289.76,485.66Zm16.61-20.16a4.4,4.4,0,0,1-2.416,5.734l-.144.056a4.67,4.67,0,0,1-6-2.47,4.4,4.4,0,0,1,2.416-5.734l.144-.056A4.67,4.67,0,0,1,306.37,465.5Zm-1.23,13.64a4.4,4.4,0,0,1-2.416,5.734l-.144.056a4.67,4.67,0,0,1-6-2.47A4.4,4.4,0,0,1,299,476.726l.144-.056A4.67,4.67,0,0,1,305.14,479.14ZM303.91,491a4.4,4.4,0,0,1-2.416,5.734l-.144.056a4.67,4.67,0,0,1-6-2.47,4.4,4.4,0,0,1,2.416-5.734l.144-.056A4.67,4.67,0,0,1,303.91,491Zm-26.63-27.56a4.4,4.4,0,0,1-2.416,5.734l-.144.056a4.67,4.67,0,0,1-6-2.47,4.4,4.4,0,0,1,2.416-5.734l.144-.056A4.67,4.67,0,0,1,277.28,463.44Zm-2.46,14.24a4.4,4.4,0,0,1-2.416,5.734l-.144.056a4.67,4.67,0,0,1-6-2.47,4.4,4.4,0,0,1,2.416-5.734l.144-.056A4.67,4.67,0,0,1,274.82,477.68ZM263.42,468A4.4,4.4,0,0,1,261,473.734l-.144.056a4.67,4.67,0,0,1-6-2.47,4.4,4.4,0,0,1,2.416-5.734l.144-.056A4.67,4.67,0,0,1,263.42,468Z" style="fill:#bdbdbd"/></g><path d="M175.58,342.08l10.18,1.59-.31,2.13-10.18-1.58-.56,3.84-1.86-.29,1.44-9.8,1.86.29Zm11.67-6.96-11.81-3.06L176,330l5.12,1.33,1.55-6.15-5.12-1.33.53-2.09,11.81,3.06-.53,2.09-4.83-1.25-1.55,6.15,4.83,1.25Zm-3.94-28.68,1.82.67-2.34,6.4,3,1.12,2.1-5.74,1.72.64-2.1,5.74,3.06,1.13,2.42-6.6,1.82.67-3.16,8.62-11.45-4.24Zm17.97-13.61a4.68,4.68,0,0,0,.61-1.85,6.55,6.55,0,0,0-.2-2l1.86-.56a6.5,6.5,0,0,1-.48,5.35,6.76,6.76,0,0,1-3.87,3.35A6.27,6.27,0,0,1,191.351,293q-.038-.122-.071-.245a6.91,6.91,0,0,1,.77-5.18,6.56,6.56,0,0,1,4.22-3.34l.6,1.89a6,6,0,0,0-1.86,1,5,5,0,0,0-1.21,1.51,4.65,4.65,0,0,0-.51,3.42,3.94,3.94,0,0,0,2,2.62,4.13,4.13,0,0,0,3.35.35,4.33,4.33,0,0,0,2.64-2.19Zm11.29-17.26a7.24,7.24,0,0,1-5.48,7.84,6.21,6.21,0,0,1-7.343-4.817q-.032-.156-.057-.313a7.24,7.24,0,0,1,5.48-7.84,6.21,6.21,0,0,1,7.343,4.817Q212.546,275.413,212.57,275.57Zm-7.18-3.06a4.62,4.62,0,0,0-3.67,5.25,4.41,4.41,0,0,0,5.109,3.578l.041-.008a4.62,4.62,0,0,0,3.67-5.25,4.41,4.41,0,0,0-5.109-3.578Zm10.06-16.75,1.43-1.61,9.18,8-1.55,1.75-11.5-.45,6.7,5.86-1.43,1.61-9.18-8,1.43-1.61,11.78.45Zm17.41-8.1,1.6-1.45,2.82,3.07A7.61,7.61,0,0,1,230,256a6.25,6.25,0,0,1-6.1-6.394q0-.138.013-.276a6.61,6.61,0,0,1,2.27-4.49,7,7,0,0,1,4.45-1.95l.21,1.93a4.62,4.62,0,0,0-1.69.39,6,6,0,0,0-1.47,1,4.63,4.63,0,0,0-1.61,3.06,4,4,0,0,0,1.15,3.19,4.08,4.08,0,0,0,3.06,1.44,4.46,4.46,0,0,0,3.1-1.21,5.71,5.71,0,0,0,1.75-2.59Zm13.07-12.99a3.51,3.51,0,0,1,0,4.67l5.35,1.57-2.22,1.62-4.92-1.47-2.29,1.67,2.45,3.28-1.75,1.27-7.29-9.75,3.84-2.81a7.22,7.22,0,0,1,3.95-1.72,3.55,3.55,0,0,1,2.88,1.67Zm-1.29,3.08a2.09,2.09,0,0,0-.5-1.78,1.83,1.83,0,0,0-1.53-.91,4.71,4.71,0,0,0-2.22,1.07l-2.22,1.62,2.61,3.49,2.17-1.59a4.08,4.08,0,0,0,1.69-1.9ZM257,223.28l1,1.65-5.89,3.47,1.67,2.75L259,228l.95,1.56-5.29,3.12,1.69,2.78,6.08-3.59,1,1.65-7.94,4.69-6.31-10.39ZM267,220a3,3,0,0,0-1.24,1,1.18,1.18,0,0,0-.06,1.25,1.29,1.29,0,0,0,1,.76,9.61,9.61,0,0,0,2.7-.35,7.38,7.38,0,0,1,3.25-.13,3,3,0,0,1,2,1.73,3.08,3.08,0,0,1,0,2.86,5.18,5.18,0,0,1-2.57,2.31,8.16,8.16,0,0,1-5.69.52l.55-2a6.39,6.39,0,0,0,4.35-.29,2.84,2.84,0,0,0,1.31-1.09,1.29,1.29,0,0,0,.06-1.28,1.27,1.27,0,0,0-1-.74,6.41,6.41,0,0,0-2.11.21,18.921,18.921,0,0,1-2.2.39,5,5,0,0,1-1.49-.08,3.28,3.28,0,0,1-2.1-4.65,5.36,5.36,0,0,1,2.49-2.19,8.13,8.13,0,0,1,2.38-.7,6.62,6.62,0,0,1,2.36.07l-.36,1.88a4.52,4.52,0,0,0-1.75-.06A6.26,6.26,0,0,0,267,220Zm13.83-5.81a3,3,0,0,0-1.33.88,1.18,1.18,0,0,0-.17,1.24,1.28,1.28,0,0,0,1,.84A9.64,9.64,0,0,0,283,217a7.41,7.41,0,0,1,3.25.15,3,3,0,0,1,1.8,1.9,3.07,3.07,0,0,1-.26,2.84,5.2,5.2,0,0,1-2.76,2.07,8.18,8.18,0,0,1-5.72,0l.72-1.91a6.4,6.4,0,0,0,4.37.09,2.85,2.85,0,0,0,1.41-1A1.29,1.29,0,0,0,286,220a1.27,1.27,0,0,0-.94-.82,6.4,6.4,0,0,0-2.13,0,18.932,18.932,0,0,1-2.23.19,5,5,0,0,1-1.48-.2,3.28,3.28,0,0,1-1.68-4.81,5.38,5.38,0,0,1,2.68-2,8.1,8.1,0,0,1,2.43-.49,6.6,6.6,0,0,1,2.35.28l-.53,1.84a4.53,4.53,0,0,0-1.74-.21,6.3,6.3,0,0,0-1.9.41Zm9.93-4.99,2.08-.61,3.56,11.58-2.08.61Zm21.7,5.52a6.78,6.78,0,0,1-4.34,2.72,7,7,0,0,1-5.11-.78,5.9,5.9,0,0,1-2.87-4,5.73,5.73,0,0,1,1-4.76,6.78,6.78,0,0,1,4.34-2.72,7,7,0,0,1,5.11.78,5.9,5.9,0,0,1,2.87,4A5.73,5.73,0,0,1,312.46,214.72Zm-3.19-7.08a4.52,4.52,0,0,0-3.44-.6,4.39,4.39,0,0,0-2.89,1.9,4.11,4.11,0,0,0-.62,3.3,4.23,4.23,0,0,0,2,2.77,4.52,4.52,0,0,0,3.44.6,4.4,4.4,0,0,0,2.89-1.9,4.12,4.12,0,0,0,.62-3.3A4.24,4.24,0,0,0,309.27,207.64Zm18.98-5.28,2.17-.2,1.24,12-2.35.21-8.18-8.11.91,8.77-2.17.2-1.25-12,2.17-.2,8.39,8.3Zm11.27,8.93L338.21,214h-2.33l5.75-12h2.33l5.62,12.16h-2.33L346,211.41Zm5.59-1.79-2.32-5-2.37,4.93Zm8.75,5.14,1.19-12,2.17.24-1,10.08,5.86.64-.19,1.92ZM386.29,210a5.46,5.46,0,0,1,.75,4.72,5.65,5.65,0,0,1-2.83,3.86q-2.15,1.14-5.77.21l-4.16-1.07L377.19,206l4.3,1.1A8.13,8.13,0,0,1,386.29,210Zm-1.4,4.22q1-4-3.93-5.28l-2.12-.54-2,8,2.35.6a5.45,5.45,0,0,0,3.74-.12,3.75,3.75,0,0,0,1.96-2.66Zm9.61-3.27,2.07.71-3.86,11.4-2.07-.71ZM409,223.32l2,.87L409.4,228a7,7,0,0,1-5.55-.36,6.9,6.9,0,0,1-3.71-3.52,6.06,6.06,0,0,1,3.1-7.99q.226-.1.459-.18a6.82,6.82,0,0,1,5.08.25,7.11,7.11,0,0,1,3.67,3.24l-1.68,1A4.66,4.66,0,0,0,409.7,219a6.21,6.21,0,0,0-1.55-.92,4.79,4.79,0,0,0-3.49-.23,4.29,4.29,0,0,0-2.538,5.51q.028.075.058.15a4.54,4.54,0,0,0,2.42,2.31,5.89,5.89,0,0,0,3.12.55Zm10.13-1.88,1.93,1-5.64,10.63-1.93-1ZM430.35,230l-5.4,8.62-1.85-1.16,5.4-8.62-3.33-2.08,1-1.57,8.52,5.31-1,1.58Zm4.26,11.87-2.7,1.4-1.86-1.41,11.85-6.14,1.86,1.4-2.75,13-1.86-1.41.63-3Zm5.6,1.88,1.13-5.36-4.88,2.53Zm4,9.25,8.19-8.83,1.61,1.47-6.88,7.41,4.35,4-1.31,1.41Zm25.24,11a3,3,0,0,0-1.28-1,1.21,1.21,0,0,0-1.24.22,1.23,1.23,0,0,0-.48,1.17,9.53,9.53,0,0,0,1,2.53,7.3,7.3,0,0,1,.93,3.1,2.86,2.86,0,0,1-1.21,2.28,3.12,3.12,0,0,1-2.8.63,5.37,5.37,0,0,1-2.9-2,8.1,8.1,0,0,1-1.91-5.37l2.07.09a6.32,6.32,0,0,0,1.36,4.13,2.94,2.94,0,0,0,1.39,1,1.31,1.31,0,0,0,1.27-.23,1.22,1.22,0,0,0,.47-1.13,6.32,6.32,0,0,0-.73-2,18.679,18.679,0,0,1-.92-2,4.91,4.91,0,0,1-.29-1.45,2.8,2.8,0,0,1,1.2-2.45,3,3,0,0,1,2.83-.62,5.56,5.56,0,0,1,2.79,2,8.2,8.2,0,0,1,1.27,2.13,6.51,6.51,0,0,1,.51,2.3l-1.94.07a4.47,4.47,0,0,0-.37-1.7,6.35,6.35,0,0,0-1.02-1.7Zm13.3,15.48-1.6,1.06-3.87-5.7-2.67,1.76,3.47,5.12-1.51,1-3.47-5.12-2.7,1.78,4,5.88-1.6,1.06-5.21-7.68L477.66,272Zm4.91,16.63a3.59,3.59,0,0,1-4.66-.7l-2.29,5L479.39,298l2.14-4.59-1.36-2.51-3.6,1.88-1-1.91,10.71-5.6,2.28,4.22a7.24,7.24,0,0,1,1.18,4.15,3.42,3.42,0,0,1-2.08,2.47Zm-2.89-1.75a2.11,2.11,0,0,0,1.84-.21,1.77,1.77,0,0,0,1.12-1.35,4.75,4.75,0,0,0-.77-2.35L485.65,288l-3.83,2,1.29,2.39a4.23,4.23,0,0,0,1.66,1.97ZM485,310.2l-1-2.2,9.27-9.25.93,2.25-6.89,7,9.92.32.93,2.25Zm14.74,5.16.71,2.05-11.52,3.77-.71-2.05Zm-5.84,16.98a4.76,4.76,0,0,0,.79,1.8,6.751,6.751,0,0,0,1.5,1.4l-1,1.65a6.68,6.68,0,0,1-3.23-4.35,6.76,6.76,0,0,1,.61-5.08,5.74,5.74,0,0,1,3.93-2.84,6,6,0,0,1,4.86.92,7.1,7.1,0,0,1,2.91,4.41,6.54,6.54,0,0,1-.88,5.31l-1.71-1a5.92,5.92,0,0,0,.73-1.94,5.09,5.09,0,0,0-.12-1.94,4.77,4.77,0,0,0-1.92-2.92,4.185,4.185,0,0,0-5.98,1.38A4.32,4.32,0,0,0,493.9,332.34Zm13.44,17.79-1.92.23-.9-6.78-3.19.38.81,6.09-1.81.22-.81-6.09-3.23.38.93,7-1.92.23-1.21-9.15,12.07-1.44Z" style="fill:#f0efe8"/><path d="M174.94,400.69l11.32-1.39.28,2L177,402.46l.75,5.39-1.81.22ZM190,419.18l-1.77.37-1.42-6.21-2.95.62,1.28,5.58-1.67.35-1.28-5.58-3,.63,1.47,6.41-1.77.37L177,413.36,188.11,411Zm1.05,9.58-9.2,2.8-.62-1.92,9.2-2.8-1.12-3.45,1.68-.51,2.86,8.82-1.68.51Zm2.58,7.37a.82.82,0,0,1,.55-.7,1.05,1.05,0,0,1,.86,0,1.11,1.11,0,0,1,.55.62,1.13,1.13,0,0,1,0,.82.9.9,0,0,1-.56.55,1.49,1.49,0,0,1-.93,0l-1.67-.45-.38-1Zm4.37,9.21a2.79,2.79,0,0,0-.93-1.17,1.14,1.14,0,0,0-1.18-.09,1.16,1.16,0,0,0-.72.95,8.72,8.72,0,0,0,.31,2.5,6.7,6.7,0,0,1,.11,3,2.69,2.69,0,0,1-1.65,1.77,3,3,0,0,1-2.7-.07,5,5,0,0,1-2.17-2.42,7.41,7.41,0,0,1-.46-5.27l1.86.55a5.79,5.79,0,0,0,.25,4,2.72,2.72,0,0,0,1,1.24,1.25,1.25,0,0,0,1.21.08,1.15,1.15,0,0,0,.7-.91,5.78,5.78,0,0,0-.19-2,17.23,17.23,0,0,1-.35-2,4.48,4.48,0,0,1,.08-1.37,2.64,2.64,0,0,1,1.67-1.93,2.85,2.85,0,0,1,2.73.09,5.14,5.14,0,0,1,2.06,2.35,7.5,7.5,0,0,1,.65,2.21,6,6,0,0,1-.08,2.18l-1.78-.38a4.08,4.08,0,0,0,.06-1.61,5.78,5.78,0,0,0-.48-1.7Zm2.68,19.99-2.83.39-1.2-1.8,12.45-1.71,1.2,1.8-6.6,10.54-1.2-1.8,1.5-2.4ZM205,468.7l2.72-4.34-5.13.7Zm15.17,10.68a5.05,5.05,0,0,1-2.1,3.92,5.42,5.42,0,0,1-4.32,1.31,7.54,7.54,0,0,1-4.48-3l-2.54-3.08,8.81-7.08,2.63,3.19a7.39,7.39,0,0,1,2,4.74Zm-3.44,2.37q3-2.43,0-6.09l-1.29-1.57-6,4.85,1.43,1.74a5.11,5.11,0,0,0,2.89,2,3.61,3.61,0,0,0,2.96-.93Zm14.39,8.98a5.06,5.06,0,0,1-1.67,4.13,5.4,5.4,0,0,1-4.15,1.76,7.54,7.54,0,0,1-4.77-2.54l-2.85-2.81,8-8,2.94,2.9A7.42,7.42,0,0,1,231.12,490.73ZM228,493.45q2.75-2.74-.63-6.06l-1.5-1.39-5.48,5.46L222,493a5.12,5.12,0,0,0,3.08,1.66A3.59,3.59,0,0,0,228,493.45Zm16.58,8.45a2.82,2.82,0,0,0-1.37-.6,1.12,1.12,0,0,0-1.07.48A1.17,1.17,0,0,0,242,503a9,9,0,0,0,1.48,2.07,6.86,6.86,0,0,1,1.54,2.61,2.69,2.69,0,0,1-.58,2.35A2.91,2.91,0,0,1,242,511.2a5,5,0,0,1-3.06-1.12,7.58,7.58,0,0,1-2.94-4.45l1.89-.39a5.94,5.94,0,0,0,2.16,3.45,2.74,2.74,0,0,0,1.49.61,1.22,1.22,0,0,0,1.09-.5,1.15,1.15,0,0,0,.17-1.14,5.89,5.89,0,0,0-1.1-1.66,17.642,17.642,0,0,1-1.29-1.64,4.59,4.59,0,0,1-.59-1.25,2.64,2.64,0,0,1,.53-2.5,2.78,2.78,0,0,1,2.42-1.21,5.15,5.15,0,0,1,2.92,1.11,7.639,7.639,0,0,1,1.63,1.65,6.09,6.09,0,0,1,1,2l-1.73.5a4.17,4.17,0,0,0-.72-1.46,5.93,5.93,0,0,0-1.29-1.3Zm12.17,17.8A6.95,6.95,0,0,1,249,515a5.65,5.65,0,0,1,3.829-7.013q.233-.068.471-.117a6.95,6.95,0,0,1,7.74,4.67,5.66,5.66,0,0,1-3.849,7.018q-.223.065-.451.112Zm2.37-6.81a4.44,4.44,0,0,0-5.19-3.13,4,4,0,0,0-3.061,4.757q.027.122.061.243a4.44,4.44,0,0,0,5.19,3.13,4,4,0,0,0,3.061-4.757Q259.154,513.01,259.12,512.89Zm5.52,12.74-1.85-.85,4.66-10.27,2.89,1.32.38,8,6.24-4.94,2.87,1.31-4.66,10.28-1.85-.85,3.64-8L269.89,527l-1-.47-.58-8.87Zm28.36-.85-.56,1.7-6.09-2.06-.94,2.84,5.47,1.85-.53,1.61-5.47-1.85-1,2.87,6.29,2.13-.56,1.7-8.21-2.78,3.6-10.73Zm15,5.28a2.78,2.78,0,0,0-1.49,0,1.1,1.1,0,0,0-.75.9,1.19,1.19,0,0,0,.36,1.14,9.078,9.078,0,0,0,2.23,1.25,6.911,6.911,0,0,1,2.51,1.71,2.74,2.74,0,0,1,.5,2.38,2.86,2.86,0,0,1-1.61,2.13,4.9,4.9,0,0,1-3.23.29,7.67,7.67,0,0,1-4.57-2.78l1.52-1.16a6,6,0,0,0,3.44,2.21,2.69,2.69,0,0,0,1.6-.08,1.2,1.2,0,0,0,.76-.92,1.18,1.18,0,0,0-.34-1.11,6,6,0,0,0-1.71-1,17.667,17.667,0,0,1-1.87-.94,4.7,4.7,0,0,1-1.08-.88,2.69,2.69,0,0,1-.61-2.5,2.74,2.74,0,0,1,1.64-2.14,5.08,5.08,0,0,1,3.1-.24,7.642,7.642,0,0,1,2.18.8,6.209,6.209,0,0,1,1.74,1.37l-1.33,1.2a4.26,4.26,0,0,0-1.28-1,5.93,5.93,0,0,0-1.71-.63Zm13.92,2.44-1,9.51-2-.24,1-9.51-3.62-.43.18-1.74,9.26,1.09-.18,1.74Zm17.72,3a3.25,3.25,0,0,1-2.65,3.45l3.07,4.21-2.58-.08-2.8-3.9L332,539.1v3.8l-2-.06.19-11.32,4.47.14a6.85,6.85,0,0,1,3.92,1,3.3,3.3,0,0,1,1.06,2.84Zm-2.73,1.5a1.93,1.93,0,0,0,.65-1.59,1.71,1.71,0,0,0-.61-1.54,4.491,4.491,0,0,0-2.26-.48l-2.58-.08-.07,4,2.52.08A3.86,3.86,0,0,0,336.91,537Zm7.96-5.34,2-.08.62,11.32-2,.08Zm15.82-.26a3.72,3.72,0,0,1,1.62,2.9,3.47,3.47,0,0,1-.9,3.13,6.44,6.44,0,0,1-3.78,1.37l-2.11.23.41,3.3-2,.21-1.39-11.26,4.09-.44A6.48,6.48,0,0,1,360.69,531.4Zm-.85,4.8a2.39,2.39,0,0,0,.38-1.84,1.85,1.85,0,0,0-1-1.57,4.7,4.7,0,0,0-2.46-.23l-2,.22.56,4.51,2.34-.25a3.21,3.21,0,0,0,2.19-.84Zm14.75-8.2.38,1.77-6.27,1.22.62,2.94,5.63-1.09.35,1.67-5.63,1.09.63,3,6.47-1.26.38,1.77-8.45,1.64-2.36-11.12Zm8.78-.77a2.71,2.71,0,0,0-1.29.72,1.1,1.1,0,0,0-.25,1.14,1.21,1.21,0,0,0,.85.86,8.909,8.909,0,0,0,2.54.11,6.91,6.91,0,0,1,3,.39,2.8,2.8,0,0,1,1.54,1.91,2.88,2.88,0,0,1-.44,2.63,4.79,4.79,0,0,1-2.71,1.72,7.59,7.59,0,0,1-5.32-.42l.8-1.73a5.94,5.94,0,0,0,4.05.42,2.63,2.63,0,0,0,1.38-.8,1.21,1.21,0,0,0,.25-1.17,1.19,1.19,0,0,0-.81-.84,5.929,5.929,0,0,0-2-.14,17.648,17.648,0,0,1-2.08,0,4.66,4.66,0,0,1-1.36-.3,3.09,3.09,0,0,1-1.23-4.62,5,5,0,0,1,2.63-1.62,7.55,7.55,0,0,1,2.29-.27,6.119,6.119,0,0,1,2.17.44l-.62,1.68a4.22,4.22,0,0,0-1.6-.33,5.85,5.85,0,0,0-1.79.22Zm20.01-6.74,3.88,8.83-1.86.78-3.88-8.83-3.34,1.4-.71-1.61,8.53-3.57.71,1.61Zm19.83-.74a6.19,6.19,0,0,1-3.13,3.57,6.38,6.38,0,0,1-4.76.61,5.63,5.63,0,0,1-3.63-2.85,5.45,5.45,0,0,1-.44-4.54,6.19,6.19,0,0,1,3.13-3.57,6.38,6.38,0,0,1,4.76-.61,5.63,5.63,0,0,1,3.63,2.85A5.45,5.45,0,0,1,423.21,519.75Zm-4.75-5.58a4.14,4.14,0,0,0-3.22.34,4,4,0,0,0-2.06,2.46,3.92,3.92,0,0,0,.34,3.14,4,4,0,0,0,2.49,2,4.15,4.15,0,0,0,3.22-.34,4,4,0,0,0,2.06-2.46,3.92,3.92,0,0,0-.34-3.14,4,4,0,0,0-2.48-1.99Zm22.06-3.8-1.65,1.2-2.7-3.62-7.72-3,1.78-1.29L436,506l-.48-6.08,1.78-1.29.56,8.15Zm13.37-13.02a6.17,6.17,0,0,1-2.21,4.2,6.3,6.3,0,0,1-4.48,1.67,5.63,5.63,0,0,1-4.18-2,5.52,5.52,0,0,1-1.47-4.34,6.18,6.18,0,0,1,2.21-4.2,6.3,6.3,0,0,1,4.48-1.67,5.63,5.63,0,0,1,4.18,2A5.51,5.51,0,0,1,453.89,497.35ZM448,493a4.1,4.1,0,0,0-3,1,4.142,4.142,0,0,0,2.5,7.26,4.09,4.09,0,0,0,3.05-1.06A4.083,4.083,0,0,0,448,493Zm12.28-3.48a2.81,2.81,0,0,0,2.18-1,2.77,2.77,0,0,0,.82-2.24A3.6,3.6,0,0,0,462,484l-4.69-4.28,1.36-1.47,4.75,4.33a4.7,4.7,0,0,1,.4,7.16,4.78,4.78,0,0,1-7.22.21l-4.75-4.33,1.36-1.47,4.69,4.28a3.65,3.65,0,0,0,2.38,1.09Zm10.45-20.64a3.32,3.32,0,0,1,1.31,4.19h5.21l-1.54,2-4.8-.06-1.59,2.1,3.08,2.32-1.21,1.6L462,474.19l2.66-3.51a6.56,6.56,0,0,1,3.05-2.56,3.35,3.35,0,0,1,3.02.76Zm-.31,3.1a2,2,0,0,0-.94-1.47,1.73,1.73,0,0,0-1.61-.43,4.3,4.3,0,0,0-1.69,1.53l-1.54,2,3.28,2.47,1.51-2a3.75,3.75,0,0,0,.99-2.08Zm6.92-17.83a2.69,2.69,0,0,0-.4,1.42,1.15,1.15,0,0,0,.64,1,1.2,1.2,0,0,0,1.2,0,8.61,8.61,0,0,0,1.86-1.69A6.64,6.64,0,0,1,483,453.1a2.79,2.79,0,0,1,2.43.31,3,3,0,0,1,1.56,2.21,4.76,4.76,0,0,1-.68,3.14,7.33,7.33,0,0,1-4,3.4l-.66-1.81a5.74,5.74,0,0,0,3.14-2.52,2.6,2.6,0,0,0,.4-1.54,1.24,1.24,0,0,0-.65-1,1.18,1.18,0,0,0-1.16,0,5.69,5.69,0,0,0-1.49,1.28,17,17,0,0,1-1.46,1.46,4.55,4.55,0,0,1-1.17.73,2.74,2.74,0,0,1-2.58-.24,2.85,2.85,0,0,1-1.56-2.24,4.92,4.92,0,0,1,.69-3,7.28,7.28,0,0,1,1.42-1.79,6,6,0,0,1,1.83-1.19l.75,1.65a4.11,4.11,0,0,0-1.36.87,5.62,5.62,0,0,0-1.11,1.33Zm6.46-12.3,8.83,4-.82,1.82-8.83-4-1.48,3.28-1.61-.74,3.79-8.37,1.61.74Zm10.05-5.78,2.06,2-.71,2-9.06-8.81.71-2,12.53-1-.71,2-2.85.24Zm0-5.44-5.16.43,3.73,3.63Zm1.57-18.23a3.38,3.38,0,0,1,2.86,3.37l4.77-2-.6,2.48-4.41,1.81-.62,2.56,3.74.94-.47,1.95-11.12-2.81,1-4.29a6.53,6.53,0,0,1,1.77-3.56,3.3,3.3,0,0,1,3.08-.45Zm.95,3a2,2,0,0,0-1.44-1,1.7,1.7,0,0,0-1.64.23,4.28,4.28,0,0,0-.93,2.08l-.6,2.47,4,1,.59-2.42a3.79,3.79,0,0,0,.02-2.37Zm-1.66-12.19a2.73,2.73,0,0,0,.13,1.47,1.15,1.15,0,0,0,.95.72,1.18,1.18,0,0,0,1.13-.39,8.641,8.641,0,0,0,1.13-2.24,6.57,6.57,0,0,1,1.57-2.54,2.74,2.74,0,0,1,2.37-.57,3,3,0,0,1,2.24,1.53,4.84,4.84,0,0,1,.49,3.19,7.3,7.3,0,0,1-2.53,4.61l-1.26-1.47a5.7,5.7,0,0,0,2-3.47,2.63,2.63,0,0,0-.18-1.58,1.26,1.26,0,0,0-1-.73,1.17,1.17,0,0,0-1.1.37,5.7,5.7,0,0,0-.93,1.72,16.629,16.629,0,0,1-.83,1.88,4.44,4.44,0,0,1-.83,1.09,2.69,2.69,0,0,1-2.48.68,2.87,2.87,0,0,1-2.25-1.56,5,5,0,0,1-.43-3.07,7.309,7.309,0,0,1,.68-2.18,5.91,5.91,0,0,1,1.28-1.76l1.29,1.28a4,4,0,0,0-.95,1.3,5.67,5.67,0,0,0-.49,1.72Z" style="fill:#326b92"/><use width="338" height="130" transform="matrix(0.28, 0, 0, -0.28, 292.37, 392.58)" xlink:href="#a"/></svg>