<svg data-name="Layer 1" xmlns="http://www.w3.org/2000/svg" viewBox="0 0 1360 700"><defs><clipPath id="a"><path fill="none" d="M450.87 700H0V0h770L450.87 700z"/></clipPath></defs><title>Artboard 1</title><path fill="#1f2d47" d="M.14.14h1360v700H.14z"/><g clip-path="url(#a)"><ellipse cx="613.05" cy="352.79" rx="450.61" ry="448.2" fill="none" stroke="#1d2b42" stroke-miterlimit="10" stroke-width="17.449"/><ellipse cx="613.05" cy="352.79" rx="511.18" ry="508.45" fill="none" stroke="#1d2b42" stroke-miterlimit="10" stroke-width="34.026"/><ellipse cx="613.05" cy="352.79" rx="478.6" ry="476.04" fill="none" stroke="#1d2b42" stroke-miterlimit="10" stroke-width="17.449" stroke-dasharray="10.487005233764648,10.487005233764648"/><circle cx="613.66" cy="370.2" r="117.42" fill="#1d2b42"/><circle cx="611.64" cy="367.29" r="138.17" transform="rotate(-87.71 611.63 367.294)" fill="none" stroke="#1d2b42" stroke-linejoin="round" stroke-width="17.496" stroke-dasharray="10.579362869262695,10.579362869262695"/><path d="M199.39 401l5.61 35 5.13-2.08L282.94 415s14.4-21.2-7.2-35l-66.51 11.09zm-3.85-75.84L193 360.5l5.47-.85 75.16-1.65s18.88-17.33 1-35.68l-67.28-4.49zM208 266.19l10.05-34 4.82 2.72 69.78 28s11.57 22.87-11.61 33.75l-64.55-19.5zm10.17 206.49l10.56 33.83 4.78-2.79 69.35-29.09s11.22-23-12.12-33.58l-64.25 20.47zm32.1 67.22l16.29 31.47 4.22-3.58L334 527.07s7-24.64-17.78-31l-59.7 31.35zm40.07 61.02l20.89 28.62 3.63-4.18 56.29-49.87s3.21-25.43-22.28-27.88l-54.23 40.07zm54.58 66.67l26.9 23.06 2.57-4.9 43.35-61.46s-2.71-25.48-28.09-22l-43.59 51.44zm62.33 48.64L437 735.51l1.9-5.2 34.79-66.68s-6.08-24.9-30.77-18.09l-36.36 56.78zm-27.99-693.1L410 5.53l1.61 5.3 31 68.5s-7.45 24.52-31.73 16.36L377.78 37zm-61.57 49.31L343.39 48l2.82 4.77L392.62 112s-1.42 25.59-26.93 23.42l-46.15-49.18zM445.21-15.5l33-13L479-23l21 72.2s-11 23.18-33.78 11.64L441.76-2zM229.62 192.87l15.15-32 4.35 3.43 64.65 38.42s7.92 24.37-16.66 31.57l-60.79-29.18zm37.78-65.37L287 98l3.81 4 58.5 47.26s4.36 25.25-21 28.87l-56-37.56zM521.86-34.54l34.72-7.09-.13 5.53 8 74.77s-14.75 21-35.25 5.61l-13.08-66.13zm76.9-5.81l35.39-1.72-1 5.45-3.45 75.13S612 57 594 38.68l-2.89-67.37zm83.45 1.18l34.85 6.45-2.2 5.08-20.59 72.33s-21.53 13.9-34.78-8l12.65-66.23zm78.36 21.61l33.68 11-2.86 4.74-30 68.95S738.17 78.07 728 54.58l21.34-64z" fill="#1d2b42"/><circle cx="532.69" cy="517.45" r="10.92" transform="rotate(-68.28 532.695 517.447)" fill="#1d2b42"/><circle cx="521.38" cy="545.85" r="10.92" transform="rotate(-68.28 521.377 545.854)" fill="#1d2b42"/><circle cx="510.6" cy="572.9" r="10.92" transform="rotate(-68.28 510.606 572.9)" fill="#1d2b42"/><circle cx="498.75" cy="602.64" r="10.92" transform="rotate(-68.28 498.748 602.641)" fill="#1d2b42"/><circle cx="486.91" cy="632.41" r="10.92" transform="rotate(-68.28 486.908 632.406)" fill="#1d2b42"/><circle cx="505.47" cy="500.4" r="10.92" transform="rotate(-65.15 505.475 500.393)" fill="#1d2b42"/><circle cx="492.63" cy="528.14" r="10.92" transform="rotate(-65.15 492.635 528.149)" fill="#1d2b42"/><circle cx="480.38" cy="554.56" r="10.92" transform="rotate(-65.15 480.387 554.564)" fill="#1d2b42"/><circle cx="466.93" cy="583.62" r="10.92" transform="rotate(-65.15 466.93 583.612)" fill="#1d2b42"/><circle cx="453.47" cy="612.67" r="10.92" transform="rotate(-65.15 453.476 612.672)" fill="#1d2b42"/><circle cx="482.11" cy="477.25" r="10.92" transform="rotate(-62.15 482.114 477.248)" fill="#1d2b42"/><circle cx="467.83" cy="504.29" r="10.92" transform="rotate(-62.15 467.83 504.29)" fill="#1d2b42"/><circle cx="451.8" cy="532.18" r="10.92" transform="rotate(-62.15 451.803 532.18)" fill="#1d2b42"/><circle cx="437.38" cy="559.14" r="10.92" transform="rotate(-62.15 437.379 559.136)" fill="#1d2b42"/><circle cx="423.23" cy="589.35" r="10.92" transform="rotate(-62.15 423.232 589.348)" fill="#1d2b42"/><circle cx="463.79" cy="450.47" r="10.92" transform="rotate(-57.5 463.79 450.473)" fill="#1d2b42"/><circle cx="446.42" cy="480.41" r="10.9" transform="rotate(-57.26 446.478 480.435)" fill="#1d2b42"/><circle cx="428.04" cy="506.93" r="10.9" transform="rotate(-57.26 428.094 506.946)" fill="#1d2b42"/><circle cx="410.94" cy="532.53" r="10.92" transform="rotate(-57.5 410.949 532.524)" fill="#1d2b42"/><circle cx="394.4" cy="561.48" r="10.92" transform="rotate(-57.5 394.399 561.481)" fill="#1d2b42"/><circle cx="450.3" cy="419.73" r="10.92" transform="rotate(-52.82 450.3 419.728)" fill="#1d2b42"/><circle cx="429.29" cy="446.19" r="10.92" transform="rotate(-52.82 429.287 446.193)" fill="#1d2b42"/><circle cx="407.87" cy="473.83" r="10.92" transform="rotate(-52.82 407.866 473.835)" fill="#1d2b42"/><circle cx="388.24" cy="503.96" r="10.92" transform="rotate(-52.82 388.24 503.951)" fill="#1d2b42"/><circle cx="370.74" cy="532" r="10.92" transform="rotate(-52.82 370.746 532)" fill="#1d2b42"/><circle cx="442.94" cy="387.03" r="10.92" transform="rotate(-52.82 442.942 387.03)" fill="#1d2b42"/><circle cx="418.7" cy="413.78" r="10.92" transform="rotate(-52.82 418.703 413.776)" fill="#1d2b42"/><circle cx="395.38" cy="442.24" r="10.92" transform="rotate(-52.82 395.383 442.233)" fill="#1d2b42"/><circle cx="373.06" cy="471.27" r="10.92" transform="rotate(-52.82 373.055 471.27)" fill="#1d2b42"/><circle cx="352.31" cy="499.6" r="10.92" transform="rotate(-52.82 352.309 499.6)" fill="#1d2b42"/><circle cx="441.89" cy="357.7" r="10.89" transform="rotate(-46.22 441.883 357.697)" fill="#1d2b42"/><circle cx="414.8" cy="344.4" r="10.92" transform="rotate(-46.4 414.798 344.4)" fill="#1d2b42"/><circle cx="384.52" cy="333.91" r="10.92" transform="rotate(-46.4 384.523 333.91)" fill="#1d2b42"/><circle cx="354.23" cy="323.41" r="10.92" transform="rotate(-46.4 354.225 323.41)" fill="#1d2b42"/><circle cx="324.74" cy="314.81" r="10.92" transform="rotate(-46.4 324.739 314.818)" fill="#1d2b42"/><circle cx="447.47" cy="321.39" r="10.92" transform="rotate(-46.4 447.475 321.384)" fill="#1d2b42"/><circle cx="419.08" cy="310.07" r="10.92" transform="rotate(-46.4 419.085 310.073)" fill="#1d2b42"/><circle cx="388.79" cy="299.58" r="10.92" transform="rotate(-46.4 388.787 299.572)" fill="#1d2b42"/><circle cx="361.75" cy="288.8" r="10.92" transform="rotate(-46.4 361.754 288.8)" fill="#1d2b42"/><circle cx="332.54" cy="275.6" r="10.92" transform="rotate(-46.4 332.53 275.599)" fill="#1d2b42"/><circle cx="460.34" cy="289.08" r="10.92" transform="rotate(-46.4 460.341 289.076)" fill="#1d2b42"/><circle cx="432.54" cy="276.26" r="10.92" transform="rotate(-46.4 432.54 276.263)" fill="#1d2b42"/><circle cx="402.86" cy="264.27" r="10.92" transform="rotate(-46.4 402.859 264.26)" fill="#1d2b42"/><circle cx="375.8" cy="253.49" r="10.92" transform="rotate(-46.4 375.797 253.49)" fill="#1d2b42"/><circle cx="346.6" cy="240.29" r="10.92" transform="rotate(-46.4 346.598 240.298)" fill="#1d2b42"/><circle cx="414.22" cy="380.4" r="10.92" transform="rotate(-46.4 414.214 380.398)" fill="#1d2b42"/><circle cx="385.45" cy="408.23" r="10.92" transform="rotate(-46.4 385.453 408.228)" fill="#1d2b42"/><circle cx="351.37" cy="399.36" r="10.92" transform="rotate(-46.4 351.362 399.36)" fill="#1d2b42"/><circle cx="320.55" cy="390.22" r="10.92" transform="rotate(-46.4 320.552 390.215)" fill="#1d2b42"/><circle cx="381.07" cy="372.02" r="10.92" transform="rotate(-46.4 381.072 372.021)" fill="#1d2b42"/><circle cx="348.89" cy="362.33" r="10.92" transform="rotate(-46.4 348.894 362.331)" fill="#1d2b42"/><circle cx="320.76" cy="354.27" r="10.92" transform="rotate(-46.4 320.765 354.28)" fill="#1d2b42"/><circle cx="360.29" cy="437.84" r="10.92" transform="rotate(-46.4 360.294 437.835)" fill="#1d2b42"/><circle cx="325.68" cy="430.32" r="10.92" transform="rotate(-46.4 325.68 430.318)" fill="#1d2b42"/><circle cx="337.86" cy="464.2" r="10.92" transform="rotate(-46.4 337.854 464.19)" fill="#1d2b42"/><circle cx="657.49" cy="204.11" r="10.92" transform="rotate(-68.28 657.485 204.11)" fill="#1d2b42"/><circle cx="668.8" cy="175.7" r="10.92" transform="rotate(-68.28 668.803 175.702)" fill="#1d2b42"/><circle cx="679.59" cy="148.65" r="10.92" transform="rotate(-68.28 679.591 148.648)" fill="#1d2b42"/><circle cx="691.44" cy="118.9" r="10.92" transform="rotate(-68.28 691.441 118.9)" fill="#1d2b42"/><circle cx="703.29" cy="89.14" r="10.92" transform="rotate(-68.28 703.289 89.14)" fill="#1d2b42"/><circle cx="626.01" cy="197.71" r="10.92" transform="rotate(-71.42 626.006 197.707)" fill="#1d2b42"/><circle cx="635.75" cy="168.74" r="10.92" transform="rotate(-71.42 635.745 168.733)" fill="#1d2b42"/><circle cx="645.02" cy="141.13" r="10.92" transform="rotate(-71.42 645.023 141.136)" fill="#1d2b42"/><circle cx="655.24" cy="110.79" r="10.92" transform="rotate(-71.42 655.236 110.784)" fill="#1d2b42"/><circle cx="665.43" cy="80.42" r="10.92" transform="rotate(-71.42 665.431 80.428)" fill="#1d2b42"/><circle cx="593.19" cy="198.46" r="10.92" transform="rotate(-74.42 593.189 198.46)" fill="#1d2b42"/><circle cx="601.39" cy="169.01" r="10.92" transform="rotate(-74.42 601.392 169.008)" fill="#1d2b42"/><circle cx="608.93" cy="137.72" r="10.92" transform="rotate(-74.42 608.932 137.723)" fill="#1d2b42"/><circle cx="617" cy="108.24" r="10.92" transform="rotate(-74.42 616.994 108.237)" fill="#1d2b42"/><circle cx="627.49" cy="76.56" r="10.92" transform="rotate(-74.42 627.49 76.56)" fill="#1d2b42"/><circle cx="561.42" cy="205.32" r="10.92" transform="rotate(-79.07 561.415 205.32)" fill="#1d2b42"/><circle cx="567.75" cy="173.94" r="10.92" transform="rotate(-79.07 567.748 173.943)" fill="#1d2b42"/><circle cx="572.73" cy="142.16" r="10.92" transform="rotate(-79.07 572.73 142.153)" fill="#1d2b42"/><circle cx="579.45" cy="109.41" r="10.92" transform="rotate(-79.07 579.45 109.406)" fill="#1d2b42"/><circle cx="587.34" cy="77" r="10.92" transform="rotate(-79.07 587.347 76.997)" fill="#1d2b42"/><circle cx="530.52" cy="218.35" r="10.92" transform="rotate(-83.75 530.522 218.353)" fill="#1d2b42"/><circle cx="533.46" cy="184.69" r="10.92" transform="rotate(-83.75 533.458 184.69)" fill="#1d2b42"/><circle cx="536.9" cy="149.89" r="10.92" transform="rotate(-83.75 536.9 149.89)" fill="#1d2b42"/><circle cx="543.36" cy="114.53" r="10.92" transform="rotate(-83.75 543.36 114.527)" fill="#1d2b42"/><circle cx="549.94" cy="82.12" r="10.92" transform="rotate(-83.75 549.94 82.118)" fill="#1d2b42"/><circle cx="502.71" cy="237.04" r="10.92" transform="rotate(-83.75 502.707 237.048)" fill="#1d2b42"/><circle cx="503.48" cy="200.95" r="10.92" transform="rotate(-83.75 503.479 200.95)" fill="#1d2b42"/><circle cx="506.12" cy="164.26" r="10.92" transform="rotate(-83.75 506.122 164.258)" fill="#1d2b42"/><circle cx="509.93" cy="130.03" r="10.88" transform="rotate(-83.66 509.926 130.031)" fill="#1d2b42"/><circle cx="514.27" cy="92.98" r="10.92" transform="rotate(-83.75 514.272 92.977)" fill="#1d2b42"/><circle cx="481.35" cy="259.97" r="10.92" transform="rotate(-.17 481.573 260.231)" fill="#1d2b42"/><circle cx="452.97" cy="248.67" r="10.92" transform="rotate(-.17 454.626 250.08)" fill="#1d2b42"/><circle cx="423.75" cy="235.45" r="10.92" transform="rotate(-.17 424.313 236.554)" fill="#1d2b42"/><circle cx="394.54" cy="222.25" r="10.92" transform="translate(-.66 1.17)" fill="#1d2b42"/><circle cx="367.22" cy="208.24" r="10.92" transform="translate(-.62 1.09)" fill="#1d2b42"/><circle cx="477.28" cy="222.12" r="10.92" transform="rotate(-.17 478.258 223.152)" fill="#1d2b42"/><circle cx="475.52" cy="182.12" r="10.92" transform="rotate(-.17 474.948 182.703)" fill="#1d2b42"/><circle cx="444.68" cy="165.13" r="10.92" transform="translate(-.49 1.32)" fill="#1d2b42"/><circle cx="416.01" cy="150.59" r="10.92" transform="rotate(-.17 414.332 148.91)" fill="#1d2b42"/><circle cx="447.45" cy="205.41" r="10.92" transform="translate(-.61 1.33)" fill="#1d2b42"/><circle cx="417.41" cy="190.31" r="10.92" transform="rotate(-.17 417.642 189.359)" fill="#1d2b42"/><circle cx="391.44" cy="176.84" r="10.92" transform="rotate(-.17 390.7 175.838)" fill="#1d2b42"/><circle cx="477.18" cy="144.74" r="10.92" fill="#1d2b42"/><circle cx="447.3" cy="124.99" r="10.92" transform="rotate(-.17 448.07 125.367)" fill="#1d2b42"/><circle cx="479.44" cy="108.75" r="10.92" transform="rotate(-.17 478.428 108.56)" fill="#1d2b42"/></g><path fill="#b22e2e" d="M487.86 421.7h-44.68l66.85-145.29h44.91L487.86 421.7zm87.8 0h-44.49l66.97-145.29h44.79L575.66 421.7z"/><path fill="#326b92" d="M399.48 421.7H265.55l67.23-145.29h133.93L399.48 421.7z"/><path d="M366.66 333.54l6.34-10.43-10.77-4.44 1.67-5.11 11.32 2.77 1-12h5.44l1 11.88 11.43-2.66 1.67 5.11-10.76 4.45 6.22 10.43-4.33 3.22-7.89-9.55-7.88 9.55zm-25.66 57l6.33-10.43-10.77-4.44 1.67-5.11 11.32 2.77 1-12H356l1 11.88 11.43-2.66 1.67 5.11-10.77 4.44 6.22 10.43-4.33 3.22-7.88-9.55-7.88 9.55z" fill="#f6f5de"/></svg>