<svg id="Layer_1" data-name="Layer 1" xmlns="http://www.w3.org/2000/svg" xmlns:xlink="http://www.w3.org/1999/xlink" viewBox="0 0 1360 700"><defs><clipPath id="clip-path"><polygon points="450.87 700 0 700 0 0 770 0 450.87 700" style="fill:none"/></clipPath></defs><title>Artboard 1</title><rect x="0.14" y="0.14" width="1360" height="700" style="fill:#1f2d47"/><g style="clip-path:url(#clip-path)"><ellipse cx="613.05" cy="352.79" rx="450.61" ry="448.2" style="fill:none;stroke:#1d2b42;stroke-miterlimit:10;stroke-width:17.44933319091797px"/><ellipse cx="613.05" cy="352.79" rx="511.18" ry="508.45" style="fill:none;stroke:#1d2b42;stroke-miterlimit:10;stroke-width:34.02619934082031px"/><ellipse cx="613.05" cy="352.79" rx="478.6" ry="476.04" style="fill:none;stroke:#1d2b42;stroke-miterlimit:10;stroke-width:17.44933319091797px;stroke-dasharray:10.487005233764648,10.487005233764648"/><circle cx="613.66" cy="370.2" r="117.42" style="fill:#1d2b42"/><circle cx="611.64" cy="367.29" r="138.17" transform="translate(220.19 963.76) rotate(-87.71)" style="fill:none;stroke:#1d2b42;stroke-linejoin:round;stroke-width:17.496185302734375px;stroke-dasharray:10.579362869262695,10.579362869262695"/><path d="M199.39,401,205,436l5.13-2.08L282.94,415s14.4-21.2-7.2-35l-66.51,11.09Z" style="fill:#1d2b42"/><path d="M195.54,325.16,193,360.5l5.47-.85L273.63,358s18.88-17.33,1-35.68l-67.28-4.49Z" style="fill:#1d2b42"/><path d="M208,266.19l10.05-34,4.82,2.72,69.78,28s11.57,22.87-11.61,33.75l-64.55-19.5Z" style="fill:#1d2b42"/><path d="M218.17,472.68l10.56,33.83,4.78-2.79,69.35-29.09s11.22-23-12.12-33.58l-64.25,20.47Z" style="fill:#1d2b42"/><path d="M250.27,539.9l16.29,31.47,4.22-3.58L334,527.07s7-24.64-17.78-31l-59.7,31.35Z" style="fill:#1d2b42"/><path d="M290.34,600.92l20.89,28.62,3.63-4.18,56.29-49.87s3.21-25.43-22.28-27.88l-54.23,40.07Z" style="fill:#1d2b42"/><path d="M344.92,667.59l26.9,23.06,2.57-4.9,43.35-61.46s-2.71-25.48-28.09-22l-43.59,51.44Z" style="fill:#1d2b42"/><path d="M407.25,716.23,437,735.51l1.9-5.2,34.79-66.68s-6.08-24.9-30.77-18.09l-36.36,56.78Z" style="fill:#1d2b42"/><path d="M379.26,23.13,410,5.53l1.61,5.3,31,68.5s-7.45,24.52-31.73,16.36L377.78,37Z" style="fill:#1d2b42"/><path d="M317.69,72.44,343.39,48l2.82,4.77L392.62,112s-1.42,25.59-26.93,23.42L319.54,86.24Z" style="fill:#1d2b42"/><path d="M445.21-15.5l33-13L479-23,500,49.2s-11,23.18-33.78,11.64L441.76-2Z" style="fill:#1d2b42"/><path d="M229.62,192.87l15.15-32,4.35,3.43,64.65,38.42s7.92,24.37-16.66,31.57l-60.79-29.18Z" style="fill:#1d2b42"/><path d="M267.4,127.5,287,98l3.81,4,58.5,47.26s4.36,25.25-21,28.87l-56-37.56Z" style="fill:#1d2b42"/><path d="M521.86-34.54l34.72-7.09-.13,5.53,8,74.77s-14.75,21-35.25,5.61L516.12-21.85Z" style="fill:#1d2b42"/><path d="M598.76-40.35l35.39-1.72-1,5.45L629.7,38.51S612,57,594,38.68l-2.89-67.37Z" style="fill:#1d2b42"/><path d="M682.21-39.17l34.85,6.45-2.2,5.08L694.27,44.69s-21.53,13.9-34.78-8l12.65-66.23Z" style="fill:#1d2b42"/><path d="M760.57-17.56l33.68,11-2.86,4.74-30,68.95S738.17,78.07,728,54.58l21.34-64Z" style="fill:#1d2b42"/><circle cx="532.69" cy="517.45" r="10.92" transform="translate(-145.15 820.83) rotate(-68.28)" style="fill:#1d2b42"/><circle cx="521.38" cy="545.85" r="10.92" transform="translate(-178.67 828.21) rotate(-68.28)" style="fill:#1d2b42"/><circle cx="510.6" cy="572.9" r="10.92" transform="translate(-210.58 835.24) rotate(-68.28)" style="fill:#1d2b42"/><circle cx="498.75" cy="602.64" r="10.92" transform="translate(-245.68 842.96) rotate(-68.28)" style="fill:#1d2b42"/><circle cx="486.91" cy="632.41" r="10.92" transform="translate(-280.79 850.71) rotate(-68.28)" style="fill:#1d2b42"/><circle cx="505.47" cy="500.4" r="10.92" transform="translate(-161.01 748.78) rotate(-65.15)" style="fill:#1d2b42"/><circle cx="492.63" cy="528.14" r="10.92" transform="translate(-193.64 753.22) rotate(-65.15)" style="fill:#1d2b42"/><circle cx="480.38" cy="554.56" r="10.92" transform="translate(-224.71 757.42) rotate(-65.15)" style="fill:#1d2b42"/><circle cx="466.93" cy="583.62" r="10.92" transform="translate(-258.87 762.05) rotate(-65.15)" style="fill:#1d2b42"/><circle cx="453.47" cy="612.67" r="10.92" transform="translate(-293.04 766.69) rotate(-65.15)" style="fill:#1d2b42"/><circle cx="482.11" cy="477.25" r="10.92" transform="translate(-165.08 680.57) rotate(-62.15)" style="fill:#1d2b42"/><circle cx="467.83" cy="504.29" r="10.92" transform="translate(-196.6 682.35) rotate(-62.15)" style="fill:#1d2b42"/><circle cx="451.8" cy="532.18" r="10.92" transform="translate(-229.8 683.04) rotate(-62.15)" style="fill:#1d2b42"/><circle cx="437.38" cy="559.14" r="10.92" transform="translate(-261.32 684.65) rotate(-62.15)" style="fill:#1d2b42"/><circle cx="423.23" cy="589.35" r="10.92" transform="translate(-295.57 688.24) rotate(-62.15)" style="fill:#1d2b42"/><circle cx="463.79" cy="450.47" r="10.92" transform="translate(-165.33 599.59) rotate(-57.5)" style="fill:#1d2b42"/><circle cx="446.42" cy="480.41" r="10.9" transform="translate(-199.1 596.15) rotate(-57.26)" style="fill:#1d2b42"/><circle cx="428.04" cy="506.93" r="10.9" transform="translate(-229.84 592.86) rotate(-57.26)" style="fill:#1d2b42"/><circle cx="410.94" cy="532.53" r="10.92" transform="translate(-258.98 592.99) rotate(-57.5)" style="fill:#1d2b42"/><circle cx="394.4" cy="561.48" r="10.92" transform="translate(-291.06 592.43) rotate(-57.5)" style="fill:#1d2b42"/><circle cx="450.3" cy="419.73" r="10.92" transform="translate(-156.24 524.85) rotate(-52.82)" style="fill:#1d2b42"/><circle cx="429.29" cy="446.19" r="10.92" transform="translate(-185.64 518.58) rotate(-52.82)" style="fill:#1d2b42"/><circle cx="407.87" cy="473.83" r="10.92" transform="translate(-216.14 512.45) rotate(-52.82)" style="fill:#1d2b42"/><circle cx="388.24" cy="503.96" r="10.92" transform="translate(-247.9 508.73) rotate(-52.82)" style="fill:#1d2b42"/><circle cx="370.74" cy="532" r="10.92" transform="translate(-277.17 505.89) rotate(-52.82)" style="fill:#1d2b42"/><circle cx="442.94" cy="387.03" r="10.92" transform="translate(-133.1 506.05) rotate(-52.82)" style="fill:#1d2b42"/><circle cx="418.7" cy="413.78" r="10.92" transform="translate(-164 497.32) rotate(-52.82)" style="fill:#1d2b42"/><circle cx="395.38" cy="442.24" r="10.92" transform="translate(-195.9 490) rotate(-52.82)" style="fill:#1d2b42"/><circle cx="373.06" cy="471.27" r="10.92" transform="translate(-227.87 483.7) rotate(-52.82)" style="fill:#1d2b42"/><circle cx="352.31" cy="499.6" r="10.92" transform="translate(-258.65 478.38) rotate(-52.82)" style="fill:#1d2b42"/><circle cx="441.89" cy="357.7" r="10.89" transform="translate(-122.11 429.25) rotate(-46.22)" style="fill:#1d2b42"/><circle cx="414.8" cy="344.4" r="10.92" transform="translate(-120.66 407.28) rotate(-46.4)" style="fill:#1d2b42"/><circle cx="384.52" cy="333.91" r="10.92" transform="translate(-122.46 382.1) rotate(-46.4)" style="fill:#1d2b42"/><circle cx="354.23" cy="323.41" r="10.92" transform="translate(-124.26 356.9) rotate(-46.4)" style="fill:#1d2b42"/><circle cx="324.74" cy="314.81" r="10.92" transform="translate(-127.19 332.88) rotate(-46.4)" style="fill:#1d2b42"/><circle cx="447.47" cy="321.39" r="10.92" transform="translate(-93.85 423.8) rotate(-46.4)" style="fill:#1d2b42"/><circle cx="419.08" cy="310.07" r="10.92" transform="translate(-94.47 399.73) rotate(-46.4)" style="fill:#1d2b42"/><circle cx="388.79" cy="299.58" r="10.92" transform="translate(-96.27 374.53) rotate(-46.4)" style="fill:#1d2b42"/><circle cx="361.75" cy="288.8" r="10.92" transform="translate(-96.86 351.61) rotate(-46.4)" style="fill:#1d2b42"/><circle cx="332.54" cy="275.6" r="10.92" transform="translate(-96.37 326.35) rotate(-46.4)" style="fill:#1d2b42"/><circle cx="460.34" cy="289.08" r="10.92" transform="translate(-66.46 423.09) rotate(-46.4)" style="fill:#1d2b42"/><circle cx="432.54" cy="276.26" r="10.92" transform="translate(-65.81 398.98) rotate(-46.4)" style="fill:#1d2b42"/><circle cx="402.86" cy="264.27" r="10.92" transform="translate(-66.33 373.76) rotate(-46.4)" style="fill:#1d2b42"/><circle cx="375.8" cy="253.49" r="10.92" transform="translate(-66.93 350.82) rotate(-46.4)" style="fill:#1d2b42"/><circle cx="346.6" cy="240.29" r="10.92" transform="translate(-66.44 325.58) rotate(-46.4)" style="fill:#1d2b42"/><circle cx="414.22" cy="380.4" r="10.92" transform="translate(-146.91 418.03) rotate(-46.4)" style="fill:#1d2b42"/><circle cx="385.45" cy="408.23" r="10.92" transform="translate(-175.99 405.84) rotate(-46.4)" style="fill:#1d2b42"/><circle cx="351.37" cy="399.36" r="10.92" transform="translate(-180.15 378.4) rotate(-46.4)" style="fill:#1d2b42"/><circle cx="320.55" cy="390.22" r="10.92" transform="translate(-183.09 353.25) rotate(-46.4)" style="fill:#1d2b42"/><circle cx="381.07" cy="372.02" r="10.92" transform="translate(-151.13 391.43) rotate(-46.4)" style="fill:#1d2b42"/><circle cx="348.89" cy="362.33" r="10.92" transform="translate(-154.1 365.12) rotate(-46.4)" style="fill:#1d2b42"/><circle cx="320.76" cy="354.27" r="10.92" transform="translate(-157 342.25) rotate(-46.4)" style="fill:#1d2b42"/><circle cx="360.29" cy="437.84" r="10.92" transform="translate(-205.24 396.81) rotate(-46.4)" style="fill:#1d2b42"/><circle cx="325.68" cy="430.32" r="10.92" transform="translate(-210.54 369.41) rotate(-46.4)" style="fill:#1d2b42"/><circle cx="337.86" cy="464.2" r="10.92" transform="translate(-231.29 388.74) rotate(-46.4)" style="fill:#1d2b42"/><circle cx="657.49" cy="204.11" r="10.92" transform="translate(224.55 739.38) rotate(-68.28)" style="fill:#1d2b42"/><circle cx="668.8" cy="175.7" r="10.92" transform="translate(258.07 732) rotate(-68.28)" style="fill:#1d2b42"/><circle cx="679.59" cy="148.65" r="10.92" transform="translate(290 724.98) rotate(-68.28)" style="fill:#1d2b42"/><circle cx="691.44" cy="118.9" r="10.92" transform="translate(325.1 717.25) rotate(-68.28)" style="fill:#1d2b42"/><circle cx="703.29" cy="89.14" r="10.92" transform="translate(360.21 709.51) rotate(-68.28)" style="fill:#1d2b42"/><circle cx="626.01" cy="197.71" r="10.92" transform="translate(239.14 728.09) rotate(-71.42)" style="fill:#1d2b42"/><circle cx="635.75" cy="168.74" r="10.92" transform="translate(273.24 717.58) rotate(-71.42)" style="fill:#1d2b42"/><circle cx="645.02" cy="141.13" r="10.92" transform="translate(305.72 707.57) rotate(-71.42)" style="fill:#1d2b42"/><circle cx="655.24" cy="110.79" r="10.92" transform="translate(341.45 696.57) rotate(-71.42)" style="fill:#1d2b42"/><circle cx="665.43" cy="80.42" r="10.92" transform="translate(377.17 685.55) rotate(-71.42)" style="fill:#1d2b42"/><circle cx="593.19" cy="198.46" r="10.92" transform="translate(242.7 716.55) rotate(-74.42)" style="fill:#1d2b42"/><circle cx="601.39" cy="169.01" r="10.92" transform="translate(277.07 702.91) rotate(-74.42)" style="fill:#1d2b42"/><circle cx="608.93" cy="137.72" r="10.92" transform="translate(312.72 687.29) rotate(-74.42)" style="fill:#1d2b42"/><circle cx="617" cy="108.24" r="10.92" transform="translate(347.02 673.49) rotate(-74.42)" style="fill:#1d2b42"/><circle cx="627.49" cy="76.56" r="10.92" transform="translate(385.21 660.43) rotate(-74.42)" style="fill:#1d2b42"/><circle cx="561.42" cy="205.32" r="10.92" transform="translate(253.37 717.62) rotate(-79.07)" style="fill:#1d2b42"/><circle cx="567.75" cy="173.94" r="10.92" transform="translate(289.31 698.41) rotate(-79.07)" style="fill:#1d2b42"/><circle cx="572.73" cy="142.16" r="10.92" transform="translate(324.56 677.54) rotate(-79.07)" style="fill:#1d2b42"/><circle cx="579.45" cy="109.41" r="10.92" transform="translate(362.16 657.6) rotate(-79.07)" style="fill:#1d2b42"/><circle cx="587.34" cy="77" r="10.92" transform="translate(400.38 639.09) rotate(-79.07)" style="fill:#1d2b42"/><circle cx="530.52" cy="218.35" r="10.92" transform="translate(255.71 721.95) rotate(-83.75)" style="fill:#1d2b42"/><circle cx="533.46" cy="184.69" r="10.92" transform="translate(291.79 694.87) rotate(-83.75)" style="fill:#1d2b42"/><circle cx="536.9" cy="149.89" r="10.92" transform="translate(329.45 667.28) rotate(-83.75)" style="fill:#1d2b42"/><circle cx="543.36" cy="114.53" r="10.92" transform="translate(370.36 642.19) rotate(-83.75)" style="fill:#1d2b42"/><circle cx="549.94" cy="82.12" r="10.92" transform="translate(408.44 619.85) rotate(-83.75)" style="fill:#1d2b42"/><circle cx="502.71" cy="237.04" r="10.92" transform="translate(212.34 710.96) rotate(-83.75)" style="fill:#1d2b42"/><circle cx="503.48" cy="200.95" r="10.92" transform="translate(248.91 679.56) rotate(-83.75)" style="fill:#1d2b42"/><circle cx="506.12" cy="164.26" r="10.92" transform="translate(287.74 649.49) rotate(-83.75)" style="fill:#1d2b42"/><circle cx="509.93" cy="130.03" r="10.88" transform="translate(324.38 622.48) rotate(-83.66)" style="fill:#1d2b42"/><circle cx="514.27" cy="92.98" r="10.92" transform="translate(365.86 594.07) rotate(-83.75)" style="fill:#1d2b42"/><circle cx="481.35" cy="259.97" r="10.92" transform="translate(-0.77 1.43) rotate(-0.17)" style="fill:#1d2b42"/><circle cx="452.97" cy="248.67" r="10.92" transform="translate(-0.74 1.35) rotate(-0.17)" style="fill:#1d2b42"/><circle cx="423.75" cy="235.45" r="10.92" transform="translate(-0.7 1.26) rotate(-0.17)" style="fill:#1d2b42"/><circle cx="394.54" cy="222.25" r="10.92" transform="matrix(1, 0, 0, 1, -0.66, 1.17)" style="fill:#1d2b42"/><circle cx="367.22" cy="208.24" r="10.92" transform="matrix(1, 0, 0, 1, -0.62, 1.09)" style="fill:#1d2b42"/><circle cx="477.28" cy="222.12" r="10.92" transform="translate(-0.66 1.42) rotate(-0.17)" style="fill:#1d2b42"/><circle cx="475.52" cy="182.12" r="10.92" transform="translate(-0.54 1.41) rotate(-0.17)" style="fill:#1d2b42"/><circle cx="444.68" cy="165.13" r="10.92" transform="matrix(1, 0, 0, 1, -0.49, 1.32)" style="fill:#1d2b42"/><circle cx="416.01" cy="150.59" r="10.92" transform="translate(-0.44 1.23) rotate(-0.17)" style="fill:#1d2b42"/><circle cx="447.45" cy="205.41" r="10.92" transform="matrix(1, 0, 0, 1, -0.61, 1.33)" style="fill:#1d2b42"/><circle cx="417.41" cy="190.31" r="10.92" transform="translate(-0.56 1.24) rotate(-0.17)" style="fill:#1d2b42"/><circle cx="391.44" cy="176.84" r="10.92" transform="translate(-0.52 1.16) rotate(-0.17)" style="fill:#1d2b42"/><circle cx="477.18" cy="144.74" r="10.92" style="fill:#1d2b42"/><circle cx="447.3" cy="124.99" r="10.92" transform="translate(-0.37 1.33) rotate(-0.17)" style="fill:#1d2b42"/><circle cx="479.44" cy="108.75" r="10.92" transform="translate(-0.32 1.42) rotate(-0.17)" style="fill:#1d2b42"/></g><polygon points="487.86 421.7 443.18 421.7 510.03 276.41 554.94 276.41 487.86 421.7" style="fill:#b22e2e"/><polygon points="575.66 421.7 531.17 421.7 598.14 276.41 642.93 276.41 575.66 421.7" style="fill:#b22e2e"/><polygon points="399.48 421.7 265.55 421.7 332.78 276.41 466.71 276.41 399.48 421.7" style="fill:#326b92"/><path d="M366.66,333.54,373,323.11l-10.77-4.44,1.67-5.11,11.32,2.77,1-12h5.44l1,11.88,11.43-2.66,1.67,5.11L385,323.11l6.22,10.43-4.33,3.22L379,327.21l-7.88,9.55Z" style="fill:#f6f5de"/><path d="M341,390.54l6.33-10.43-10.77-4.44,1.67-5.11,11.32,2.77,1-12H356l1,11.88,11.43-2.66,1.67,5.11-10.77,4.44,6.22,10.43-4.33,3.22-7.88-9.55-7.88,9.55Z" style="fill:#f6f5de"/></svg>