<svg xmlns="http://www.w3.org/2000/svg" viewBox="0 0 460.96 177.47"><title>logo</title><g data-name="Layer 2"><g data-name="Layer 1"><path fill="#b22e2e" d="M271.55 177.47h-54.58L298.63 0h54.85l-81.93 177.47zm107.25 0h-54.35L406.26 0h54.7L378.8 177.47z"/><path fill="#326b92" d="M163.6 177.47H0L82.12 0h163.6L163.6 177.47z"/><path d="M123.51 69.79L131.24 57l-13.15-5.42 2-6.24 13.83 3.39 1.22-14.64h6.64L143 48.63l14-3.25 2 6.24L145.88 57l7.59 12.74-5.29 3.93-9.63-11.66-9.63 11.66zm-31.4 69.62l7.73-12.74-13.15-5.42 2-6.24 13.83 3.39 1.22-14.64h6.64l1.22 14.51 14-3.25 2 6.24-13.15 5.42 7.59 12.74-5.29 3.93-9.63-11.66-9.63 11.66z" fill="#f6f5de"/></g></g></svg>