<svg xmlns="http://www.w3.org/2000/svg" viewBox="0 0 680 750"><title>brand2</title><path fill="none" d="M0 0h680v750H0z"/><circle cx="470.76" cy="320.62" r="44.17" fill="#364351"/><path d="M485.7 314.37c-7-.31-9.77 5.41-12 10-2.45 5-6.07 7.39-11.08 7.17a12.59 12.59 0 1 1 10.86-19.8l3.05-2.14a16.32 16.32 0 1 0-14.08 25.67 14.12 14.12 0 0 0 13.05-6.57 10.49 10.49 0 1 0 10.2-14.35zm-.7 17.29a6.81 6.81 0 1 1 7.1-6.51 6.81 6.81 0 0 1-7.1 6.51z" fill="#fff"/><path d="M479 322.11a44.46 44.46 0 0 1-3.52 6.62" fill="none"/><path d="M478.65 326.52a6.85 6.85 0 0 1 .31-4.27 44.93 44.93 0 0 1-3.46 6.48 8.32 8.32 0 0 1 3.15-2.21z" fill="#cfd1d2"/></svg>