<svg xmlns="http://www.w3.org/2000/svg" viewBox="0 0 680 750"><title>brand1_1</title><path fill="none" d="M0 0h680v750H0z"/><circle cx="255.34" cy="377" r="100" fill="#0bb3f6"/><path d="M215.33 433.42l-2.39 6.25 5-4.47 2.33 1.6-3.44 10.2-2.47-1.7 2.62-6.59-5.38 4.7-1.69-1.16 2.46-6.71-5.2 4.82-2.49-1.71 8.32-6.87zm-13.18-12.27l-3.15 2.76 2.85 3.23 3.12-2.76 1.77 2-7.74 6.87-1.77-2 2.9-2.56-2.85-3.23-2.9 2.56-1.77-2 7.78-6.87zm-8.8-13.41l-1.06 1.17 2 3.58 1.56-.27 1.46 2.66-11 1.58-1.63-3 7.21-8.42zm-5.54 6l4.06-.72-1.27-2.3zm1.81-14.95l-7.62 2.45.89 2.77-2.22.71-2.59-8.07 2.22-.71.88 2.75 7.65-2.45zm-3.83-19.64l-10.37-.15.09-5.19a3.45 3.45 0 1 1 6.89.12v2.52l3.48.06zM179 373a1.15 1.15 0 0 0-1.14 1.27v2.11h2.22v-2.11A1.15 1.15 0 0 0 179 373zm8.86-14l-3.78.95-.3 1.34 3.4.75-.58 2.61-10.13-2.24 1.12-5.07a3.34 3.34 0 0 1 4.15-2.78 3.12 3.12 0 0 1 2.59 2.69l4.18-1.24zm-6.71-1.79a1.14 1.14 0 0 0-1.36 1l-.46 2.06 2.17.48.46-2.06a1.14 1.14 0 0 0-.8-1.48zm4.33-8.55a5.54 5.54 0 1 1 7.21-2.74 5.28 5.28 0 0 1-7.21 2.74zm3.55-7.57a2.83 2.83 0 1 0 1.52 3.82 2.79 2.79 0 0 0-1.55-3.82zm9.03-5.21l-8.18-6.36 3.6-4.64a2.71 2.71 0 0 1 3.95-.77 2.31 2.31 0 0 1 .79 2.86 2.48 2.48 0 0 1 3.21 0 2.76 2.76 0 0 1 .35 4.13zm-1.91-9.32a.82.82 0 0 0-1.2.23l-1.59 2 1.28 1 1.59-2a.81.81 0 0 0-.08-1.22zm3.29 2.3a.89.89 0 0 0-1.32.28l-1.65 2.12 1.39 1.08 1.65-2.12a.88.88 0 0 0-.07-1.35zm8.44-4.41l-6.8-7.84 2-1.75 5.27 6.07 3.15-2.73 1.53 1.76zm9.99-7.94l-5.23-9 6.57-3.84 1.18 2-4.26 2.49.82 1.4 4.16-2.43 1.18 2-4.16 2.43.89 1.52 4.26-2.49 1.18 2zm20.69-9.2l-2.05-6.54-.44 7.32-1.13.35-4.56-5.75 2.05 6.54-2.55.8-3.1-9.89 3.54-1.11 3.79 4.81.35-6.1 3.54-1.11 3.1 9.89zm8-3.16l1.25-2.19a4.69 4.69 0 0 0 3.42 1.11c.9-.07 1.43-.42 1.39-.93-.1-1.36-5.86.22-6.17-3.77-.13-1.74 1.21-3.4 3.86-3.6a6.33 6.33 0 0 1 4.31 1.12l-1.3 2.11a4.81 4.81 0 0 0-3.11-.85c-.77.06-1.1.35-1.06.8.1 1.27 5.87-.14 6.16 3.71.16 2.08-1.27 3.58-4 3.79a6.41 6.41 0 0 1-4.75-1.3zm24.22-3.15a5.29 5.29 0 0 1 6.77-3.8 4.78 4.78 0 0 1 3.7 3.8l-2.5.5a2.49 2.49 0 0 0-1.78-2 3 3 0 0 0-1.49 5.81 2.49 2.49 0 0 0 2.53-.91l2 1.63a4.84 4.84 0 0 1-5.07 1.57 5.3 5.3 0 0 1-4.16-6.6zm19.99 12.72l.21-1.56-3.65-1.84-1.13 1.1-2.71-1.36 8.15-7.51 3 1.52-1.18 11zm1.2-8l-2.97 2.84 2.35 1.18zm11.33 16.77l.41-7.42-3.8 4.64-2.07-1.7 6.57-8 2.13 1.75-.37 7.07 3.62-4.41 2.08 1.71-6.57 8zm15.81 19.83l4.88-4.57-6.43 1.84-1.4-2.46 7.55-7.7 1.48 2.61-5.19 4.78 6.89-1.87 1 1.78-5.14 5 6.78-2.06 1.49 2.62-10.48 2.54zm4.55 10.13l10-2.91 2.13 7.3-2.24.65-1.38-4.73-1.55.45 1.35 4.63-2.24.65-1.35-4.63-1.69.49 1.38 4.73-2.24.65zm5.44 21.31l2 1.48a4.69 4.69 0 0 0-1.47 3.28c0 .9.26 1.47.78 1.49 1.37 0 .42-5.85 4.42-5.72 1.74.06 3.25 1.57 3.16 4.22a6.33 6.33 0 0 1-1.58 4.16l-2-1.52a4.81 4.81 0 0 0 1.19-3c0-.78-.23-1.13-.68-1.14-1.27 0-.5 5.85-4.35 5.72-2.08-.07-3.41-1.65-3.32-4.43a6.41 6.41 0 0 1 1.85-4.54zm2.67 15.34a5.55 5.55 0 1 1-6.56 4.07 5.28 5.28 0 0 1 6.56-4.07zm-2 8.11a2.83 2.83 0 1 0-2.22-3.46 2.8 2.8 0 0 0 2.18 3.46zm-7.94 6.79l9.32 4.54-1.17 2.4-7.23-3.52-1.82 3.75-2.1-1zm-6.96 12.35l10.67 3-1.79 2.45-7.55-2.35 4.53 6.48-1.79 2.45-6.06-9.28zm-8 9.65l7 7.69-5.64 5.1-1.56-1.73 3.66-3.3-1.08-1.2-3.58 3.23-1.56-1.73 3.58-3.23-1.18-1.3-3.66 3.3-1.56-1.73zM296 436.42a1.46 1.46 0 1 1-2-.47 1.48 1.48 0 0 1 2 .47zm1.79 3c.93 1.49-.64 2.77-.22 3.44.18.29.53.38 1.1 0a2.24 2.24 0 0 0 1-1.55l2.17.66a4.58 4.58 0 0 1-2.13 3c-1.74 1.08-3.35.91-4.14-.35-1.17-1.89.78-3.31.17-4.29a.91.91 0 0 0-.53-.4l1.48-1.54a2.19 2.19 0 0 1 1.06 1zM244.05 448l-1.21-1a3.28 3.28 0 0 1 2.93-1.63 2.41 2.41 0 0 1 2.7 2.44c0 1.31-.67 2-2.06 3.05l-1.28 1h3.42v1.49h-5.82V452l2.62-2.14c1-.81 1.36-1.23 1.36-1.88a1 1 0 0 0-1.05-1c-.66.02-1.03.31-1.61 1.02zm19.15-2.54h1.18v7.91h-1.7v-6.16l-1.37.34-.36-1.41zm5.13.06h4.83V447h-3.35l-.09 1.36a3.74 3.74 0 0 1 1-.14c1.55 0 2.75.74 2.75 2.53a2.68 2.68 0 0 1-3 2.73 4 4 0 0 1-2.94-1.18l1-1.24a2.76 2.76 0 0 0 1.87.85c.81 0 1.32-.39 1.32-1.1s-.55-1.08-1.39-1.08a3.35 3.35 0 0 0-1.31.29l-1-.66zm-13.52-.17a3.37 3.37 0 1 0 3.38 3.37 3.38 3.38 0 0 0-3.38-3.37zm0 5.25a1.88 1.88 0 1 1 1.88-1.88 1.88 1.88 0 0 1-1.88 1.88zM281 366.78c-12.28-.54-17.14 9.48-21 17.53-4.29 8.84-10.64 13-19.43 12.57a22.08 22.08 0 1 1 19-34.72l5.35-3.76a28.62 28.62 0 1 0-24.69 45c9.76.42 17.44-3.45 22.88-11.52a18.39 18.39 0 1 0 17.89-25.1zm-1.31 30.31a11.94 11.94 0 1 1 12.44-11.41 11.94 11.94 0 0 1-12.41 11.41z" fill="#fff"/></svg>