<svg xmlns="http://www.w3.org/2000/svg" viewBox="0 0 680 750"><title>brand3</title><path fill="none" d="M0 0h680v750H0z"/><circle cx="470.76" cy="429.38" r="44.17" fill="#ff901a"/><path d="M485.7 423.14c-7-.31-9.78 5.41-12 10-2.45 5-6.07 7.39-11.08 7.17a12.59 12.59 0 1 1 10.86-19.8l3.05-2.14a16.32 16.32 0 1 0-14.08 25.67 14.11 14.11 0 0 0 13.05-6.57 10.49 10.49 0 1 0 10.21-14.35zm-.7 17.29a6.81 6.81 0 1 1 7.1-6.51 6.81 6.81 0 0 1-7.1 6.51z" fill="#fff"/><path d="M479 430.88a44.53 44.53 0 0 1-3.52 6.62" fill="none"/><path d="M478.65 435.29a6.71 6.71 0 0 1-.2-2A6.83 6.83 0 0 1 479 431a44.68 44.68 0 0 1-3.46 6.48 8.35 8.35 0 0 1 3.11-2.19z" fill="#cfd1d2"/></svg>