<svg xmlns="http://www.w3.org/2000/svg" viewBox="0 0 1360 660"><title>logo_1</title><rect width="1360" height="660" style="fill:none"/><path d="M484.44,176.3l-2.17-9.89-3.64.81-.51-2.28q5-1.11,10-2.17l.48,2.28-3.63.78,2.14,9.9Z" style="fill:#fff"/><path d="M504.52,172.15l-1-5.15-5.87,1.16,1,5.14-2.63.53-2.5-12.2,2.67-.54,1,4.8,5.89-1.17-.94-4.8,2.69-.52,2.34,12.24Z" style="fill:#fff"/><path d="M513.31,170.48l-2.26-12.25q4.44-.82,8.89-1.59l.4,2.3-6.2,1.1.47,2.57,6.05-1.07.4,2.3-6,1.07.51,2.79,6.15-1.09.4,2.3Q517.69,169.68,513.31,170.48Z" style="fill:#fff"/><path d="M536.37,166.55l-1.93-12.31,2.68-.42L539,166.14Z" style="fill:#fff"/><path d="M553.79,164q-3.52-3.62-7.08-7.21l1.15,8-2.65.38-1.8-12.33,2.76-.4q3.48,3.46,6.9,6.94L552,151.67l2.69-.36,1.64,12.35Z" style="fill:#fff"/><path d="M571.15,161.82q-3.44-3.69-6.94-7.35l1,8.06-2.65.33L561,150.5l2.77-.34q3.4,3.52,6.76,7.07l-.9-7.77,2.69-.31,1.4,12.38Z" style="fill:#fff"/><path d="M578.67,154.73a6.61,6.61,0,1,1,7.21,5.74A6.29,6.29,0,0,1,578.67,154.73Zm10.39-1a3.85,3.85,0,1,0-3.41,4.44A3.79,3.79,0,0,0,589.06,153.68Z" style="fill:#fff"/><path d="M601.14,158.87q-2.91-6-5.89-12l3.06-.26q2.16,4.62,4.27,9.25,1.36-4.9,2.76-9.8l3.06-.22q-2,6.39-3.93,12.78Z" style="fill:#fff"/><path d="M622,157.43l-.91-2.06-5.38.33-.65,2.16-3,.2q2-6.38,4-12.75l3.39-.21q2.81,6.07,5.56,12.16Zm-4.07-9.58q-.82,2.74-1.64,5.47l3.92-.24Q619.06,150.46,617.91,147.85Z" style="fill:#fff"/><path d="M631.62,156.93l-.47-10.11-3.7.18-.12-2.33q5.07-.25,10.13-.45l.09,2.33-3.69.15.43,10.11Z" style="fill:#fff"/><path d="M642.16,150.29a6.6,6.6,0,1,1,6.77,6.24A6.29,6.29,0,0,1,642.16,150.29Zm10.43-.29a3.84,3.84,0,1,0-3.72,4.18A3.78,3.78,0,0,0,652.58,150Z" style="fill:#fff"/><path d="M668.19,156l-2.49-4.41-2,0,0,4.43-2.67,0L661,143.62l5.95-.05a3.92,3.92,0,0,1,4.29,4,3.62,3.62,0,0,1-2.77,3.7q1.44,2.37,2.86,4.74Zm.23-8.46a1.7,1.7,0,0,0-1.89-1.65l-2.85,0q0,1.68,0,3.36l2.84,0A1.71,1.71,0,0,0,668.42,147.55Z" style="fill:#fff"/><path d="M677.73,148.76l-1-.85a3.17,3.17,0,0,0,1.47-1.77.85.85,0,0,1-.36.05,1.28,1.28,0,0,1-1.29-1.35,1.5,1.5,0,0,1,1.51-1.47,1.74,1.74,0,0,1,1.68,1.92A4.31,4.31,0,0,1,677.73,148.76Z" style="fill:#fff"/><path d="M684.53,154.34l1.5-2.05a5.59,5.59,0,0,0,4,1.77c1.49,0,2.2-.61,2.22-1.33,0-2.17-7.23-.8-7.17-5.48,0-2.07,1.89-3.77,4.88-3.71a7.1,7.1,0,0,1,4.91,1.85l-1.55,1.94a5.46,5.46,0,0,0-3.66-1.44c-1.14,0-1.8.45-1.81,1.2,0,2,7.26.79,7.13,5.44-.06,2.28-1.76,3.95-5.12,3.88A7.33,7.33,0,0,1,684.53,154.34Z" style="fill:#fff"/><path d="M708.65,150.55c.16-3.84,3.22-6.32,7.05-6.13a5.75,5.75,0,0,1,5.13,3.32l-2.37,1a3.42,3.42,0,0,0-2.87-2,4.09,4.09,0,0,0-.4,8.17,3.42,3.42,0,0,0,3-1.66l2.24,1.22a5.79,5.79,0,0,1-5.39,2.78A6.4,6.4,0,0,1,708.65,150.55Z" style="fill:#fff"/><path d="M725.43,151.42a6.6,6.6,0,1,1,6.16,6.85A6.29,6.29,0,0,1,725.43,151.42Zm10.41.7a3.84,3.84,0,1,0-4.1,3.81A3.78,3.78,0,0,0,735.84,152.11Z" style="fill:#fff"/><path d="M752.38,159.71q-2.61-4.32-5.27-8.62l-.69,8.1-2.66-.22,1-12.42,2.78.23q2.6,4.15,5.15,8.31l.72-7.79,2.7.25L754.94,160Z" style="fill:#fff"/><path d="M761.17,160.57l1.27-12.39q4.48.46,9,1l-.26,2.32-6.25-.68-.27,2.6,6.1.66-.26,2.32-6.08-.66-.54,5.14Z" style="fill:#fff"/><path d="M775.59,162.17l1.48-12.37q4.47.53,8.95,1.11l-.3,2.32-6.24-.79-.32,2.6,6.09.77-.3,2.32-6.07-.76-.34,2.82,6.18.78-.3,2.32Q780,162.7,775.59,162.17Z" style="fill:#fff"/><path d="M797.25,165q-.9-2.37-1.82-4.73l-2-.27-.61,4.38-2.65-.37,1.68-12.34,5.9.83a3.93,3.93,0,0,1,3.67,4.59,3.62,3.62,0,0,1-3.3,3.25q1.08,2.55,2.14,5.11Zm1.48-8.34a1.7,1.7,0,0,0-1.63-1.91l-2.83-.4-.46,3.33,2.82.4A1.71,1.71,0,0,0,798.73,156.69Z" style="fill:#fff"/><path d="M805.94,166.33,807.85,154q4.46.69,8.91,1.43l-.38,2.3-6.21-1-.41,2.58,6.06,1-.38,2.3-6-1-.44,2.8,6.16,1-.38,2.3Q810.34,167,805.94,166.33Z" style="fill:#fff"/><path d="M829.06,170.23q-2.22-4.53-4.5-9.06l-1.4,8-2.64-.46,2.11-12.28,2.75.48q2.24,4.36,4.42,8.74l1.4-7.7,2.67.49-2.27,12.25Z" style="fill:#fff"/><path d="M838.35,165.64c.72-3.78,4.13-5.77,7.91-5a5.78,5.78,0,0,1,4.6,4l-2.51.63a3.44,3.44,0,0,0-2.56-2.37,4.09,4.09,0,0,0-1.61,8,3.43,3.43,0,0,0,3.26-1.19l2,1.54a5.82,5.82,0,0,1-5.76,2A6.41,6.41,0,0,1,838.35,165.64Z" style="fill:#fff"/><path d="M854.19,175.2,856.78,163q4.42.94,8.84,1.93l-.51,2.28L859,165.86l-.55,2.56,6,1.32-.51,2.28-6-1.32-.6,2.77,6.11,1.34-.51,2.28Q858.55,176.12,854.19,175.2Z" style="fill:#fff"/><path d="M433.34,248.86l.95-1.65a2.31,2.31,0,0,0,1.62.73,1.52,1.52,0,0,0,1.59-1.64v-6.82h2.19v6.85a3.26,3.26,0,0,1-3.59,3.53A3.82,3.82,0,0,1,433.34,248.86Z" style="fill:#fff"/><path d="M450.53,249.68l-.64-1.73h-4.37l-.64,1.73h-2.46l3.93-10.2h2.72l3.93,10.2Zm-2.83-8L446.11,246h3.18Z" style="fill:#fff"/><path d="M463.26,249.68,458.39,243v6.65h-2.17v-10.2h2.23l4.72,6.41v-6.41h2.17v10.2Z" style="fill:#fff"/><path d="M475.59,249.68V248c4.17-3.09,5.4-4.13,5.4-5.38,0-.9-.81-1.33-1.65-1.33a3.65,3.65,0,0,0-2.74,1.18L475.36,241a5.19,5.19,0,0,1,3.93-1.67c2.19,0,3.9,1.22,3.9,3.26,0,1.74-1.44,3.26-4.08,5.18h4.16v1.91Z" style="fill:#fff"/><path d="M486.64,248.23l1.15-1.45a4,4,0,0,0,2.8,1.16c1.24,0,1.93-.54,1.93-1.3s-.63-1.18-2-1.18c-.43,0-1.12,0-1.27,0v-2c.18,0,.89,0,1.27,0,1.13,0,1.9-.34,1.9-1.09s-.84-1.21-1.9-1.21a3.68,3.68,0,0,0-2.6,1.05L486.78,241a5,5,0,0,1,3.9-1.62c2.38,0,3.85,1.07,3.85,2.77a2.5,2.5,0,0,1-2.23,2.32,2.56,2.56,0,0,1,2.38,2.45c0,1.76-1.58,3-4,3A5.12,5.12,0,0,1,486.64,248.23Z" style="fill:#fff"/><path d="M504.37,249.68l-2-3.62h-1.59v3.62h-2.17v-10.2h4.77a3.19,3.19,0,0,1,3.44,3.29,3,3,0,0,1-2.25,3l2.31,3.88Zm.21-6.93a1.38,1.38,0,0,0-1.51-1.36h-2.29v2.75h2.29A1.38,1.38,0,0,0,504.58,242.76Z" style="fill:#fff"/><path d="M510.72,249.68v-10.2h4c3.2,0,5.41,2,5.41,5.09s-2.22,5.11-5.4,5.11Zm7.22-5.11a3,3,0,0,0-3.18-3.18H512.9v6.38h1.85A3.06,3.06,0,0,0,517.94,244.58Z" style="fill:#fff"/><path d="M533.73,245.13v3.1H532.4v-3.1h-2.75v-1.21h2.75v-3h1.33v3h2.74v1.21Z" style="fill:#fff"/><path d="M546.14,249.68V248c4.17-3.09,5.4-4.13,5.4-5.38,0-.9-.81-1.33-1.65-1.33a3.65,3.65,0,0,0-2.74,1.18L545.91,241a5.19,5.19,0,0,1,3.93-1.67c2.19,0,3.9,1.22,3.9,3.26,0,1.74-1.44,3.26-4.08,5.18h4.16v1.91Z" style="fill:#fff"/><path d="M562.14,249.68v-2.11h-4.88v-1.71l4.05-6.38h3v6.18h1.32v1.91h-1.32v2.11Zm0-8.27-2.75,4.25h2.75Z" style="fill:#fff"/><path d="M571.66,249.68V241.4h-3v-1.91h8.13v1.91h-3v8.29Z" style="fill:#fff"/><path d="M587.48,249.68v-4.3h-4.82v4.3h-2.17v-10.2h2.17v4h4.82v-4h2.19v10.2Z" style="fill:#fff"/><path d="M778.73,249.68l-1.79-7-1.77,7h-2.31l-2.92-10.2h2.43l1.79,7.37,1.94-7.37h1.7l1.93,7.37,1.79-7.37h2.43L781,249.68Z" style="fill:#fff"/><path d="M793.63,249.68,793,248h-4.37l-.64,1.73h-2.46l3.93-10.2h2.72l3.93,10.2Zm-2.83-8L789.21,246h3.18Z" style="fill:#fff"/><path d="M798.52,248.25l1.19-1.7a4.48,4.48,0,0,0,3.24,1.39c1.21,0,1.77-.54,1.77-1.13,0-1.77-5.87-.54-5.87-4.37,0-1.7,1.47-3.1,3.87-3.1a5.67,5.67,0,0,1,4,1.42l-1.21,1.62a4.38,4.38,0,0,0-3-1.12c-.92,0-1.44.4-1.44,1,0,1.61,5.86.52,5.86,4.33,0,1.87-1.35,3.27-4.08,3.27A5.89,5.89,0,0,1,798.52,248.25Z" style="fill:#fff"/><path d="M817.67,249.68v-4.3h-4.82v4.3h-2.17v-10.2h2.17v4h4.82v-4h2.19v10.2Z" style="fill:#fff"/><path d="M824.15,249.68v-10.2h2.17v10.2Z" style="fill:#fff"/><path d="M837.66,249.68,832.8,243v6.65h-2.17v-10.2h2.23l4.72,6.41v-6.41h2.17v10.2Z" style="fill:#fff"/><path d="M843.58,244.59a5.18,5.18,0,0,1,5.44-5.27,4.76,4.76,0,0,1,4.2,2.28l-1.79,1a2.93,2.93,0,0,0-2.42-1.33,3.35,3.35,0,0,0,0,6.7,3.39,3.39,0,0,0,2.16-.78v-1.22h-2.69V244h4.86V248a5.64,5.64,0,0,1-4.33,1.91A5.18,5.18,0,0,1,843.58,244.59Z" style="fill:#fff"/><path d="M859.61,249.68V241.4h-3v-1.91h8.13v1.91h-3v8.29Z" style="fill:#fff"/><path d="M867.59,244.59a5.33,5.33,0,1,1,5.34,5.27A5.12,5.12,0,0,1,867.59,244.59Zm8.42,0a3.11,3.11,0,1,0-3.09,3.35A3.08,3.08,0,0,0,876,244.59Z" style="fill:#fff"/><path d="M889.09,249.68,884.23,243v6.65h-2.17v-10.2h2.23l4.72,6.41v-6.41h2.17v10.2Z" style="fill:#fff"/><path d="M901.71,249.68v-10.2h4c3.2,0,5.41,2,5.41,5.09s-2.22,5.11-5.4,5.11Zm7.22-5.11a3,3,0,0,0-3.18-3.18h-1.87v6.38h1.85A3.06,3.06,0,0,0,908.93,244.58Z" style="fill:#fff"/><path d="M914.49,244.59a5.18,5.18,0,0,1,5.44-5.27,4.63,4.63,0,0,1,4.25,2.49l-1.87.92a2.76,2.76,0,0,0-2.38-1.48,3.35,3.35,0,0,0,0,6.7,2.76,2.76,0,0,0,2.38-1.48l1.87.9a4.67,4.67,0,0,1-4.25,2.51A5.19,5.19,0,0,1,914.49,244.59Z" style="fill:#fff"/><path d="M536.78,460.95l2.72-12.16,5.76,1.26a4,4,0,1,1-1.68,7.84l-3.18-.69-1,4.34Zm9.11-6.66a1.71,1.71,0,0,0-1.49-2l-2.78-.6-.72,3.27,2.8.61A1.7,1.7,0,0,0,545.89,454.29Z" style="fill:#fff"/><path d="M552.95,458a6.65,6.65,0,1,1,5.34,7.6A6.35,6.35,0,0,1,552.95,458Zm10.32,2a3.87,3.87,0,1,0-4.54,3.32A3.81,3.81,0,0,0,563.27,460Z" style="fill:#fff"/><path d="M579.91,469.07q-.46-4.4-.89-8.8-1.75,4.05-3.53,8.1l-2.87-.47q-.8-6.44-1.52-12.89l3,.5q.35,4.62.73,9.24,1.92-4.25,3.81-8.51l2.07.32q.48,4.63,1,9.26,1.78-4.28,3.53-8.57l3,.43q-2.66,5.91-5.38,11.8Z" style="fill:#fff"/><path d="M591.47,470.74l1.67-12.34q4.41.6,8.82,1.13l-.28,2.32q-3.1-.38-6.19-.78l-.34,2.59,6.08.77-.28,2.32-6.1-.77-.37,2.81q3.13.41,6.26.79l-.28,2.32Q596,471.35,591.47,470.74Z" style="fill:#fff"/><path d="M613.59,473.35q-1-2.33-2-4.66l-2-.21-.47,4.4-2.71-.3,1.39-12.38,5.84.63a3.93,3.93,0,0,1,3.83,4.42,3.6,3.6,0,0,1-3.14,3.41q1.19,2.5,2.41,5ZM614.7,465a1.7,1.7,0,0,0-1.69-1.84l-2.82-.3-.36,3.34,2.83.3A1.7,1.7,0,0,0,614.7,465Z" style="fill:#fff"/><path d="M622.49,474.18l1.08-12.41q4.42.38,8.85.71l-.17,2.33q-3.11-.23-6.21-.48l-.22,2.61,6.1.48-.17,2.33-6.13-.48-.23,2.83q3.14.26,6.29.49l-.17,2.33Q627,474.58,622.49,474.18Z" style="fill:#fff"/><path d="M637.47,475.31l.79-12.43,4.94.29c3.92.22,6.53,2.82,6.37,6.55s-3.05,6.11-7,5.89Zm9.34-5.72a3.67,3.67,0,0,0-3.73-4.09l-2.3-.13-.46,7.77,2.31.13A3.76,3.76,0,0,0,646.81,469.59Z" style="fill:#fff"/><path d="M663.8,476.45l.29-12.45q3.3.08,6.6.12c2.39,0,3.6,1.55,3.59,3.21a2.78,2.78,0,0,1-2.2,2.84,3,3,0,0,1,2.41,3.07c0,1.89-1.28,3.37-3.74,3.34S666.11,476.5,663.8,476.45Zm7.73-8.68a1.32,1.32,0,0,0-1.46-1.33l-3.36-.05,0,2.61,3.37.05A1.3,1.3,0,0,0,671.53,467.77Zm.19,5.06a1.44,1.44,0,0,0-1.6-1.44l-3.5-.06q0,1.42-.05,2.84l3.51.06C671.09,474.24,671.71,473.73,671.72,472.83Z" style="fill:#fff"/><path d="M683.33,476.61q0-2.55,0-5.1-2.46-3.66-4.86-7.34h3q1.56,2.49,3.15,5,1.54-2.51,3.06-5l3,0q-2.33,3.72-4.71,7.43,0,2.55.06,5.1Z" style="fill:#fff"/><path d="M704.71,476.11l-.5-12.45q4.43-.18,8.86-.41l.13,2.33q-3.11.17-6.22.3l.11,2.61,6.11-.3.12,2.33-6.13.3.23,5.17Z" style="fill:#fff"/><path d="M718.48,469.18a6.62,6.62,0,1,1,7.08,6A6.34,6.34,0,0,1,718.48,469.18Zm10.44-.73a3.85,3.85,0,1,0-3.53,4.37A3.8,3.8,0,0,0,728.92,468.45Z" style="fill:#fff"/><path d="M736.9,472.26l1.3-2.2a5.61,5.61,0,0,0,4.19,1.31c1.5-.15,2.14-.87,2.07-1.6-.22-2.14-7.35.06-7.78-4.62-.18-2.07,1.46-3.94,4.4-4.22a7.1,7.1,0,0,1,5,1.23l-1.28,2.12a5.5,5.5,0,0,0-3.79-1c-1.13.11-1.72.65-1.65,1.4.19,2,7.27-.08,7.77,4.53.24,2.26-1.26,4.16-4.68,4.5A7.4,7.4,0,0,1,736.9,472.26Z" style="fill:#fff"/><path d="M755.89,472,754.69,462l-3.66.43-.26-2.32q5-.56,9.95-1.21l.3,2.32-3.64.46,1.24,10Z" style="fill:#fff"/><path d="M767.85,470.5l-1.7-12.34q4.4-.61,8.8-1.28l.35,2.31q-3.09.47-6.18.91l.37,2.59,6.07-.89.35,2.31-6.09.9.4,2.81q3.13-.45,6.25-.92l.35,2.31Q772.35,469.88,767.85,470.5Z" style="fill:#fff"/><path d="M789.89,467.07l-3.22-3.94-2,.33.73,4.37-2.69.44-2-12.3,5.8-1a3.94,3.94,0,0,1,4.89,3.22,3.6,3.6,0,0,1-2.12,4.13q1.83,2.09,3.67,4.17Zm-1.18-8.38a1.7,1.7,0,0,0-2.13-1.32l-2.8.47.55,3.32,2.82-.47A1.7,1.7,0,0,0,788.7,458.69Z" style="fill:#fff"/><path d="M798.6,465.5l-2.29-12.24,2.65-.5,1.91,9.94,5.31-1,.46,2.29Q802.62,464.75,798.6,465.5Z" style="fill:#fff"/><path d="M813.33,462.57l-1.05-5q-3.15-3.09-6.26-6.22l3-.62q2,2.12,4.09,4.23,1-2.77,2-5.54l3-.66q-1.55,4.12-3.16,8.23l1.07,5Z" style="fill:#fff"/><path d="M633.6,405.43l-4-3.22c2.56-3.48,5-5.37,9.66-5.37,5.52,0,8.92,3.18,8.92,8,0,4.33-2.22,6.52-6.81,10.07l-4.22,3.26h11.29v4.92H629.27v-4.52l8.62-7.07c3.22-2.66,4.48-4.07,4.48-6.22a3.18,3.18,0,0,0-3.48-3.37C636.9,401.95,635.53,403.06,633.6,405.43Z" style="fill:#fff"/><path d="M696.77,397h3.89v26.1H695V402.8l-4.51,1.11-1.19-4.66Z" style="fill:#fff"/><path d="M713.68,397.21H729.6v5h-11l-.29,4.48a12.48,12.48,0,0,1,3.4-.45c5.11,0,9.07,2.45,9.07,8.33,0,5.52-3.89,9-9.85,9a13.32,13.32,0,0,1-9.7-3.89l3.45-4.11c2,1.78,3.88,2.81,6.18,2.81,2.67,0,4.33-1.3,4.33-3.63s-1.81-3.55-4.59-3.55a11.07,11.07,0,0,0-4.33,1l-3.3-2.19Z" style="fill:#fff"/><path d="M669.1,396.64a11.13,11.13,0,1,0,11.14,11.13A11.14,11.14,0,0,0,669.1,396.64Zm0,17.33a6.2,6.2,0,1,1,6.2-6.2A6.2,6.2,0,0,1,669.1,414Z" style="fill:#fff"/><rect x="565.33" y="290.46" width="9.15" height="71.45" style="fill:#fff"/><rect x="584.39" y="290.46" width="9.15" height="71.45" style="fill:#fff"/><path d="M624.88,310.94a26.17,26.17,0,0,0-19.83,8.22l-.47.49,4.46,6.62.72-.79c4-4.43,8.41-6.4,14.12-6.4,6.87,0,11.31,3.62,11.31,9.22v6.62c-3.84-3.5-8.91-5.27-15.1-5.27-8.46,0-17.57,5.22-17.57,16.67,0,10.89,9.05,16.77,17.57,16.77a21.76,21.76,0,0,0,15.1-5.46v4.27h9.15V328C644.34,317.17,637.25,310.94,624.88,310.94ZM635.2,342v8.6c-2.59,3.39-7.16,5.42-12.31,5.42-6.54,0-11.11-4-11.11-9.72s4.57-9.62,11.11-9.62C628,336.72,632.59,338.7,635.2,342Z" style="fill:#fff"/><path d="M678.9,310.94a20.71,20.71,0,0,0-15.4,7V290.46h-9.14v71.45h9.14v-5.68a21,21,0,0,0,15.4,6.87c13.31,0,22.25-10.46,22.25-26S692.21,310.94,678.9,310.94Zm12.81,26.13c0,10.74-5.73,17.69-14.6,17.69-5.3,0-11-2.92-13.6-7V326.46a17.1,17.1,0,0,1,13.6-7.18C685.84,319.29,691.71,326.44,691.71,337.08Z" style="fill:#fff"/><path d="M774.4,318.35v-6.22h-9.15v49.78h9.15V327.24c2.19-3.65,8.1-7.06,12.31-7.06a24.24,24.24,0,0,1,2.8.19l.93.1V311h-.84C784.06,311,778.73,313.62,774.4,318.35Z" style="fill:#fff"/><path d="M817.88,310.94a26.16,26.16,0,0,0-19.82,8.22l-.47.49,4.46,6.62.72-.79c4.05-4.43,8.4-6.4,14.12-6.4,6.87,0,11.31,3.62,11.31,9.22v6.62c-3.84-3.5-8.9-5.27-15.1-5.27-8.46,0-17.57,5.22-17.57,16.67,0,10.89,9.05,16.77,17.57,16.77a21.76,21.76,0,0,0,15.1-5.46v4.27h9.14V328C837.34,317.17,830.24,310.94,817.88,310.94ZM828.2,342v8.6c-2.59,3.39-7.17,5.42-12.31,5.42-6.54,0-11.11-4-11.11-9.72s4.57-9.62,11.11-9.62C821,336.72,825.59,338.7,828.2,342Z" style="fill:#fff"/><path d="M868.17,352.94a6.21,6.21,0,0,1-4.46,1.82c-3.56,0-3.94-3.73-3.94-5.34V318.71h11.44v-8.25H859.77V295.64h-9.25v14.82h-6.29v8.25h6.29V351c0,7.8,4.12,12.09,11.6,12.09,4,0,7.08-1.08,9.44-3.31l.41-.39-2.88-7.47Z" style="fill:#fff"/><path d="M924,337.57c0-15.93-9.62-26.63-23.94-26.63-14,0-24.54,11.19-24.54,26,0,15.39,10.46,26.13,25.44,26.13a27.51,27.51,0,0,0,19.71-7.71l.52-.51-4.6-6.26-.69.71a20.05,20.05,0,0,1-14.33,5.92c-10.21,0-15.47-7.37-16.32-15H924Zm-24-18.78c10.36,0,14.53,8.23,15,14.26H885.14C885.81,327,890.13,318.79,900,318.79Z" style="fill:#fff"/><path d="M733.14,361.92a25.38,25.38,0,1,1,25.38-25.38A25.41,25.41,0,0,1,733.14,361.92Zm0-41.76a16.38,16.38,0,1,0,16.38,16.38A16.4,16.4,0,0,0,733.14,320.15Z" style="fill:#fff"/><rect x="565.33" y="290.46" width="9.15" height="71.45" style="fill:#fff"/><rect x="584.39" y="290.46" width="9.15" height="71.45" style="fill:#fff"/><path d="M624.88,310.94a26.17,26.17,0,0,0-19.83,8.22l-.47.49,4.46,6.62.72-.79c4-4.43,8.41-6.4,14.12-6.4,6.87,0,11.31,3.62,11.31,9.22v6.62c-3.84-3.5-8.91-5.27-15.1-5.27-8.46,0-17.57,5.22-17.57,16.67,0,10.89,9.05,16.77,17.57,16.77a21.76,21.76,0,0,0,15.1-5.46v4.27h9.15V328C644.34,317.17,637.25,310.94,624.88,310.94ZM635.2,342v8.6c-2.59,3.39-7.16,5.42-12.31,5.42-6.54,0-11.11-4-11.11-9.72s4.57-9.62,11.11-9.62C628,336.72,632.59,338.7,635.2,342Z" style="fill:#fff"/><path d="M678.9,310.94a20.71,20.71,0,0,0-15.4,7V290.46h-9.14v71.45h9.14v-5.68a21,21,0,0,0,15.4,6.87c13.31,0,22.25-10.46,22.25-26S692.21,310.94,678.9,310.94Zm12.81,26.13c0,10.74-5.73,17.69-14.6,17.69-5.3,0-11-2.92-13.6-7V326.46a17.1,17.1,0,0,1,13.6-7.18C685.84,319.29,691.71,326.44,691.71,337.08Z" style="fill:#fff"/><path d="M774.4,318.35v-6.22h-9.15v49.78h9.15V327.24c2.19-3.65,8.1-7.06,12.31-7.06a24.24,24.24,0,0,1,2.8.19l.93.1V311h-.84C784.06,311,778.73,313.62,774.4,318.35Z" style="fill:#fff"/><path d="M817.88,310.94a26.16,26.16,0,0,0-19.82,8.22l-.47.49,4.46,6.62.72-.79c4.05-4.43,8.4-6.4,14.12-6.4,6.87,0,11.31,3.62,11.31,9.22v6.62c-3.84-3.5-8.9-5.27-15.1-5.27-8.46,0-17.57,5.22-17.57,16.67,0,10.89,9.05,16.77,17.57,16.77a21.76,21.76,0,0,0,15.1-5.46v4.27h9.14V328C837.34,317.17,830.24,310.94,817.88,310.94ZM828.2,342v8.6c-2.59,3.39-7.17,5.42-12.31,5.42-6.54,0-11.11-4-11.11-9.72s4.57-9.62,11.11-9.62C821,336.72,825.59,338.7,828.2,342Z" style="fill:#fff"/><path d="M868.17,352.94a6.21,6.21,0,0,1-4.46,1.82c-3.56,0-3.94-3.73-3.94-5.34V318.71h11.44v-8.25H859.77V295.64h-9.25v14.82h-6.29v8.25h6.29V351c0,7.8,4.12,12.09,11.6,12.09,4,0,7.08-1.08,9.44-3.31l.41-.39-2.88-7.47Z" style="fill:#fff"/><path d="M924,337.57c0-15.93-9.62-26.63-23.94-26.63-14,0-24.54,11.19-24.54,26,0,15.39,10.46,26.13,25.44,26.13a27.51,27.51,0,0,0,19.71-7.71l.52-.51-4.6-6.26-.69.71a20.05,20.05,0,0,1-14.33,5.92c-10.21,0-15.47-7.37-16.32-15H924Zm-24-18.78c10.36,0,14.53,8.23,15,14.26H885.14C885.81,327,890.13,318.79,900,318.79Z" style="fill:#fff"/><path d="M733.14,361.92a25.38,25.38,0,1,1,25.38-25.38A25.41,25.41,0,0,1,733.14,361.92Zm0-41.76a16.38,16.38,0,1,0,16.38,16.38A16.4,16.4,0,0,0,733.14,320.15Z" style="fill:#fff"/><path d="M534.05,311c-16.93-.74-23.62,13.07-29,24.16l0,.06c-5.91,12.19-14.67,17.86-26.77,17.33a30.43,30.43,0,1,1,26.25-47.85l7.38-5.18a39.44,39.44,0,1,0-34,62c13.45.59,24-4.75,31.54-15.88A25.35,25.35,0,1,0,534.05,311Zm-1.8,41.78a16.46,16.46,0,1,1,17.15-15.73A16.45,16.45,0,0,1,532.25,352.81Z" style="fill:#fff"/><path d="M517.91,329.72a107.46,107.46,0,0,1-8.51,16" style="fill:none"/><path d="M517,340.39a16.54,16.54,0,0,1,.75-10.33,107.94,107.94,0,0,1-8.37,15.65h0C510,344.88,512.18,342.57,517,340.39Z" style="fill:#cfd1d2"/><path d="M684.91,196.69l-.1-.12-.27-.32-6.6-6.71-6.66,6.77a2,2,0,0,0-.35.9l-1.75,62.51v.52l2.57-.06,1.69-61.86a2.1,2.1,0,0,1,.38-1l3.77-3.44a.48.48,0,0,1,.34-.12.61.61,0,0,1,.48.23l3.58,3.24a2.06,2.06,0,0,1,.47,1l1.65,61.32.07.61h2.6l-1.82-63Z" style="fill:#fff"/><polygon points="646.12 254.25 646.15 260.21 648.76 260.18 648.73 254.25 646.12 254.25" style="fill:#fff"/><polygon points="727.63 254.24 727.61 238.03 727.61 237.87 725 237.87 725.03 254.12 725.03 254.28 727.63 254.24" style="fill:#fff"/><polygon points="730.26 235.44 730.17 232.85 690 232.85 690.08 235.46 730.1 235.44 730.26 235.44" style="fill:#fff"/><polygon points="661.89 254.25 661.92 260.21 664.52 260.18 664.49 254.25 661.89 254.25" style="fill:#fff"/><polygon points="651.38 254.25 651.41 260.21 654.01 260.18 653.98 254.25 651.38 254.25" style="fill:#fff"/><polygon points="656.63 254.25 656.66 260.21 659.27 260.18 659.24 254.25 656.63 254.25" style="fill:#fff"/><polygon points="676.64 206.58 676.61 206.62 676.61 254.19 679.29 254.19 679.29 206.62 677.95 205.06 676.64 206.58" style="fill:#fff"/><polygon points="693.49 254.24 693.46 238.03 693.46 237.87 690.86 237.87 690.88 254.12 690.88 254.28 693.49 254.24" style="fill:#fff"/><polygon points="730.99 257.18 690.85 257.18 690.89 259.78 730.87 259.75 731.03 259.75 730.99 257.18" style="fill:#fff"/><polygon points="724.63 230.42 724.8 230.42 724.76 227.84 694.13 227.84 694.17 230.44 724.63 230.42" style="fill:#fff"/><polygon points="721.94 254.24 721.91 238.03 721.91 237.87 719.31 237.87 719.34 254.12 719.34 254.28 721.94 254.24" style="fill:#fff"/><polygon points="699.17 254.24 699.15 238.03 699.15 237.87 696.55 237.87 696.57 254.12 696.57 254.28 699.17 254.24" style="fill:#fff"/><polygon points="716.25 254.24 716.22 238.03 716.22 237.87 713.62 237.87 713.64 254.12 713.64 254.28 716.25 254.24" style="fill:#fff"/><polygon points="707.93 237.87 707.95 254.28 710.56 254.24 710.53 238.03 710.53 237.87 707.93 237.87" style="fill:#fff"/><polygon points="704.86 254.24 704.84 238.03 704.84 237.87 702.24 237.87 702.27 254.12 702.27 254.28 704.86 254.24" style="fill:#fff"/><polygon points="640.87 254.25 640.9 260.21 643.5 260.18 643.47 254.25 640.87 254.25" style="fill:#fff"/><polygon points="648.68 239.93 646.08 239.93 646.1 245.89 648.71 245.85 648.68 239.93" style="fill:#fff"/><polygon points="654.09 239.93 651.49 239.93 651.52 245.89 654.12 245.85 654.09 239.93" style="fill:#fff"/><polygon points="643.26 239.93 640.66 239.93 640.68 245.89 643.29 245.85 643.26 239.93" style="fill:#fff"/><polygon points="629.48 248.77 629.52 251.37 665.54 251.35 665.7 251.35 665.66 248.77 629.48 248.77" style="fill:#fff"/><polygon points="637.85 239.93 635.24 239.93 635.27 245.89 637.88 245.85 637.85 239.93" style="fill:#fff"/><polygon points="664.93 239.93 662.32 239.93 662.35 245.89 664.96 245.85 664.93 239.93" style="fill:#fff"/><polygon points="659.51 239.93 656.9 239.93 656.93 245.89 659.54 245.85 659.51 239.93" style="fill:#fff"/><polygon points="635.61 254.25 635.64 260.21 638.24 260.18 638.22 254.25 635.61 254.25" style="fill:#fff"/><polygon points="651.47 212.13 651.44 206.79 648.83 206.79 648.86 212.17 651.47 212.13" style="fill:#fff"/><polygon points="632.64 254.25 630.4 254.25 630.38 260.17 632.95 260.19 632.96 254.74 632.95 254.51 632.64 254.25" style="fill:#fff"/><polygon points="654.43 217.14 654.39 214.56 645.88 214.56 645.91 217.17 654.43 217.14" style="fill:#fff"/><polygon points="634.04 234.44 634.11 237.04 666.38 237.03 666.54 237.03 666.47 234.44 634.04 234.44" style="fill:#fff"/><polygon points="646.1 231.54 648.71 231.54 648.68 226.91 646.08 226.91 646.1 231.54" style="fill:#fff"/><polygon points="651.51 231.54 654.12 231.54 654.09 226.91 651.49 226.91 651.51 231.54" style="fill:#fff"/><path d="M642.2,231.54v-1a8,8,0,0,1,15.91.23v.75h2.62v-1.36a10.73,10.73,0,0,0-10.56-10,10.6,10.6,0,0,0-10.58,10.6l0,.73Z" style="fill:#fff"/></svg>