<svg xmlns="http://www.w3.org/2000/svg" viewBox="0 0 1360 660"><title>logo_1</title><path fill="none" d="M0 0h1360v660H0z"/><path d="M484.44 176.3l-2.17-9.89-3.64.81-.51-2.28q5-1.11 10-2.17l.48 2.28-3.63.78 2.14 9.9zm20.08-4.15l-1-5.15-5.87 1.16 1 5.14-2.63.53-2.5-12.2 2.67-.54 1 4.8 5.89-1.17-.94-4.8 2.69-.52 2.34 12.24zm8.79-1.67l-2.26-12.25q4.44-.82 8.89-1.59l.4 2.3-6.2 1.1.47 2.57 6.05-1.07.4 2.3-6 1.07.51 2.79 6.15-1.09.4 2.3q-4.43.77-8.81 1.57zm23.06-3.93l-1.93-12.31 2.68-.42 1.88 12.32zm17.42-2.55q-3.52-3.62-7.08-7.21l1.15 8-2.65.38-1.8-12.33 2.76-.4q3.48 3.46 6.9 6.94l-1.07-7.71 2.69-.36 1.64 12.35zm17.36-2.18q-3.44-3.69-6.94-7.35l1 8.06-2.65.33L561 150.5l2.77-.34q3.4 3.52 6.76 7.07l-.9-7.77 2.69-.31 1.4 12.38zm7.52-7.09a6.61 6.61 0 1 1 7.21 5.74 6.29 6.29 0 0 1-7.21-5.74zm10.39-1a3.85 3.85 0 1 0-3.41 4.44 3.79 3.79 0 0 0 3.41-4.49zm12.08 5.14q-2.91-6-5.89-12l3.06-.26q2.16 4.62 4.27 9.25 1.36-4.9 2.76-9.8l3.06-.22q-2 6.39-3.93 12.78zm20.86-1.44l-.91-2.06-5.38.33-.65 2.16-3 .2q2-6.38 4-12.75l3.39-.21q2.81 6.07 5.56 12.16zm-4.07-9.58q-.82 2.74-1.64 5.47l3.92-.24q-1.15-2.62-2.3-5.23zm13.69 9.08l-.47-10.11-3.7.18-.12-2.33q5.07-.25 10.13-.45l.09 2.33-3.69.15.43 10.11zm10.54-6.64a6.6 6.6 0 1 1 6.77 6.24 6.29 6.29 0 0 1-6.77-6.24zm10.43-.29a3.84 3.84 0 1 0-3.72 4.18 3.78 3.78 0 0 0 3.71-4.18zm15.6 6l-2.49-4.41h-2v4.43h-2.67l-.03-12.4 5.95-.05a3.92 3.92 0 0 1 4.29 4 3.62 3.62 0 0 1-2.77 3.7q1.44 2.37 2.86 4.74zm.23-8.46a1.7 1.7 0 0 0-1.89-1.65h-2.85v3.36h2.84a1.71 1.71 0 0 0 1.9-1.7zm9.31 1.22l-1-.85a3.17 3.17 0 0 0 1.47-1.77.85.85 0 0 1-.36.05 1.28 1.28 0 0 1-1.29-1.35 1.5 1.5 0 0 1 1.51-1.47 1.74 1.74 0 0 1 1.68 1.92 4.31 4.31 0 0 1-2.01 3.47zm6.8 5.58l1.5-2.05a5.59 5.59 0 0 0 4 1.77c1.49 0 2.2-.61 2.22-1.33 0-2.17-7.23-.8-7.17-5.48 0-2.07 1.89-3.77 4.88-3.71a7.1 7.1 0 0 1 4.91 1.85l-1.55 1.94a5.46 5.46 0 0 0-3.66-1.44c-1.14 0-1.8.45-1.81 1.2 0 2 7.26.79 7.13 5.44-.06 2.28-1.76 3.95-5.12 3.88a7.33 7.33 0 0 1-5.33-2.07zm24.12-3.79c.16-3.84 3.22-6.32 7.05-6.13a5.75 5.75 0 0 1 5.13 3.32l-2.37 1a3.42 3.42 0 0 0-2.87-2 4.09 4.09 0 0 0-.4 8.17 3.42 3.42 0 0 0 3-1.66l2.24 1.22a5.79 5.79 0 0 1-5.39 2.78 6.4 6.4 0 0 1-6.39-6.7zm16.78.87a6.6 6.6 0 1 1 6.16 6.85 6.29 6.29 0 0 1-6.16-6.85zm10.41.7a3.84 3.84 0 1 0-4.1 3.81 3.78 3.78 0 0 0 4.1-3.82zm16.54 7.59q-2.61-4.32-5.27-8.62l-.69 8.1-2.66-.22 1-12.42 2.78.23q2.6 4.15 5.15 8.31l.72-7.79 2.7.25-1.17 12.45zm8.79.86l1.27-12.39q4.48.46 9 1l-.26 2.32-6.25-.68-.27 2.6 6.1.66-.26 2.32-6.08-.66-.54 5.14zm14.42 1.6l1.48-12.37q4.47.53 8.95 1.11l-.3 2.32-6.24-.79-.32 2.6 6.09.77-.3 2.32-6.07-.76-.34 2.82 6.18.78-.3 2.32q-4.42-.59-8.83-1.12zm21.66 2.83q-.9-2.37-1.82-4.73l-2-.27-.61 4.38-2.65-.37 1.68-12.34 5.9.83a3.93 3.93 0 0 1 3.67 4.59 3.62 3.62 0 0 1-3.3 3.25q1.08 2.55 2.14 5.11zm1.48-8.34a1.7 1.7 0 0 0-1.63-1.91l-2.83-.4-.46 3.33 2.82.4a1.71 1.71 0 0 0 2.1-1.39zm7.21 9.67l1.91-12.33q4.46.69 8.91 1.43l-.38 2.3-6.21-1-.41 2.58 6.06 1-.38 2.3-6-1-.44 2.8 6.16 1-.38 2.3q-4.44-.71-8.84-1.38zm23.12 3.9q-2.22-4.53-4.5-9.06l-1.4 8-2.64-.46 2.11-12.28 2.75.48q2.24 4.36 4.42 8.74l1.4-7.7 2.67.49-2.27 12.25zm9.29-4.59c.72-3.78 4.13-5.77 7.91-5a5.78 5.78 0 0 1 4.6 4l-2.51.63a3.44 3.44 0 0 0-2.56-2.37 4.09 4.09 0 0 0-1.61 8 3.43 3.43 0 0 0 3.26-1.19l2 1.54a5.82 5.82 0 0 1-5.76 2 6.41 6.41 0 0 1-5.33-7.61zm15.84 9.56l2.59-12.2q4.42.94 8.84 1.93l-.51 2.28-6.11-1.35-.55 2.56 6 1.32-.51 2.28-6-1.32-.6 2.77 6.11 1.34-.51 2.28q-4.39-.97-8.75-1.89zm-420.85 73.66l.95-1.65a2.31 2.31 0 0 0 1.62.73 1.52 1.52 0 0 0 1.59-1.64v-6.82h2.19v6.85a3.26 3.26 0 0 1-3.59 3.53 3.82 3.82 0 0 1-2.76-1zm17.19.82l-.64-1.73h-4.37l-.64 1.73h-2.46l3.93-10.2h2.72l3.93 10.2zm-2.83-8l-1.59 4.32h3.18zm15.56 8l-4.87-6.68v6.65h-2.17v-10.2h2.23l4.72 6.41v-6.41h2.17v10.2zm12.33 0V248c4.17-3.09 5.4-4.13 5.4-5.38 0-.9-.81-1.33-1.65-1.33a3.65 3.65 0 0 0-2.74 1.18l-1.24-1.47a5.19 5.19 0 0 1 3.93-1.67c2.19 0 3.9 1.22 3.9 3.26 0 1.74-1.44 3.26-4.08 5.18h4.16v1.91zm11.05-1.45l1.15-1.45a4 4 0 0 0 2.8 1.16c1.24 0 1.93-.54 1.93-1.3s-.63-1.18-2-1.18h-1.27v-2h1.27c1.13 0 1.9-.34 1.9-1.09s-.84-1.21-1.9-1.21a3.68 3.68 0 0 0-2.6 1.05l-1.14-1.21a5 5 0 0 1 3.9-1.62c2.38 0 3.85 1.07 3.85 2.77a2.5 2.5 0 0 1-2.23 2.32 2.56 2.56 0 0 1 2.38 2.45c0 1.76-1.58 3-4 3a5.12 5.12 0 0 1-4.04-1.69zm17.73 1.45l-2-3.62h-1.59v3.62h-2.17v-10.2h4.77a3.19 3.19 0 0 1 3.44 3.29 3 3 0 0 1-2.25 3l2.31 3.88zm.21-6.93a1.38 1.38 0 0 0-1.51-1.36h-2.29v2.75h2.29a1.38 1.38 0 0 0 1.51-1.38zm6.14 6.93v-10.2h4c3.2 0 5.41 2 5.41 5.09s-2.22 5.11-5.4 5.11zm7.22-5.11a3 3 0 0 0-3.18-3.18h-1.86v6.38h1.85a3.06 3.06 0 0 0 3.19-3.19zm15.79.56v3.1h-1.33v-3.1h-2.75v-1.21h2.75v-3h1.33v3h2.74v1.21zm12.41 4.55V248c4.17-3.09 5.4-4.13 5.4-5.38 0-.9-.81-1.33-1.65-1.33a3.65 3.65 0 0 0-2.74 1.18l-1.24-1.47a5.19 5.19 0 0 1 3.93-1.67c2.19 0 3.9 1.22 3.9 3.26 0 1.74-1.44 3.26-4.08 5.18h4.16v1.91zm16 0v-2.11h-4.88v-1.71l4.05-6.38h3v6.18h1.32v1.91h-1.32v2.11zm0-8.27l-2.75 4.25h2.75zm9.52 8.27v-8.28h-3v-1.91h8.13v1.91h-3v8.29zm15.82 0v-4.3h-4.82v4.3h-2.17v-10.2h2.17v4h4.82v-4h2.19v10.2zm191.25 0l-1.79-7-1.77 7h-2.31l-2.92-10.2h2.43l1.79 7.37 1.94-7.37h1.7l1.93 7.37 1.79-7.37h2.43l-2.95 10.2zm14.9 0L793 248h-4.37l-.64 1.73h-2.46l3.93-10.2h2.72l3.93 10.2zm-2.83-8l-1.59 4.32h3.18zm7.72 6.57l1.19-1.7a4.48 4.48 0 0 0 3.24 1.39c1.21 0 1.77-.54 1.77-1.13 0-1.77-5.87-.54-5.87-4.37 0-1.7 1.47-3.1 3.87-3.1a5.67 5.67 0 0 1 4 1.42l-1.21 1.62a4.38 4.38 0 0 0-3-1.12c-.92 0-1.44.4-1.44 1 0 1.61 5.86.52 5.86 4.33 0 1.87-1.35 3.27-4.08 3.27a5.89 5.89 0 0 1-4.33-1.61zm19.15 1.43v-4.3h-4.82v4.3h-2.17v-10.2h2.17v4h4.82v-4h2.19v10.2zm6.48 0v-10.2h2.17v10.2zm13.51 0L832.8 243v6.65h-2.17v-10.2h2.23l4.72 6.41v-6.41h2.17v10.2zm5.92-5.09a5.18 5.18 0 0 1 5.44-5.27 4.76 4.76 0 0 1 4.2 2.28l-1.79 1a2.93 2.93 0 0 0-2.42-1.33 3.35 3.35 0 0 0 0 6.7 3.39 3.39 0 0 0 2.16-.78v-1.22h-2.69V244h4.86v4a5.64 5.64 0 0 1-4.33 1.91 5.18 5.18 0 0 1-5.43-5.32zm16.03 5.09v-8.28h-3v-1.91h8.13v1.91h-3v8.29zm7.98-5.09a5.33 5.33 0 1 1 5.34 5.27 5.12 5.12 0 0 1-5.34-5.27zm8.42 0a3.11 3.11 0 1 0-3.09 3.35 3.08 3.08 0 0 0 3.08-3.35zm13.08 5.09l-4.86-6.68v6.65h-2.17v-10.2h2.23l4.72 6.41v-6.41h2.17v10.2zm12.62 0v-10.2h4c3.2 0 5.41 2 5.41 5.09s-2.22 5.11-5.4 5.11zm7.22-5.11a3 3 0 0 0-3.18-3.18h-1.87v6.38h1.85a3.06 3.06 0 0 0 3.2-3.19zm5.56.02a5.18 5.18 0 0 1 5.44-5.27 4.63 4.63 0 0 1 4.25 2.49l-1.87.92a2.76 2.76 0 0 0-2.38-1.48 3.35 3.35 0 0 0 0 6.7 2.76 2.76 0 0 0 2.38-1.48l1.87.9a4.67 4.67 0 0 1-4.25 2.51 5.19 5.19 0 0 1-5.44-5.29zM536.78 460.95l2.72-12.16 5.76 1.26a4 4 0 1 1-1.68 7.84l-3.18-.69-1 4.34zm9.11-6.66a1.71 1.71 0 0 0-1.49-2l-2.78-.6-.72 3.27 2.8.61a1.7 1.7 0 0 0 2.19-1.28zm7.06 3.71a6.65 6.65 0 1 1 5.34 7.6 6.35 6.35 0 0 1-5.34-7.6zm10.32 2a3.87 3.87 0 1 0-4.54 3.32 3.81 3.81 0 0 0 4.54-3.32zm16.64 9.07q-.46-4.4-.89-8.8-1.75 4.05-3.53 8.1l-2.87-.47q-.8-6.44-1.52-12.89l3 .5q.35 4.62.73 9.24 1.92-4.25 3.81-8.51l2.07.32q.48 4.63 1 9.26 1.78-4.28 3.53-8.57l3 .43q-2.66 5.91-5.38 11.8zm11.56 1.67l1.67-12.34q4.41.6 8.82 1.13l-.28 2.32q-3.1-.38-6.19-.78l-.34 2.59 6.08.77-.28 2.32-6.1-.77-.37 2.81q3.13.41 6.26.79l-.28 2.32q-4.46-.55-8.99-1.16zm22.12 2.61l-2-4.66-2-.21-.47 4.4-2.71-.3 1.39-12.38 5.84.63a3.93 3.93 0 0 1 3.83 4.42 3.6 3.6 0 0 1-3.14 3.41q1.19 2.5 2.41 5zm1.11-8.35a1.7 1.7 0 0 0-1.69-1.84l-2.82-.3-.36 3.34 2.83.3a1.7 1.7 0 0 0 2.04-1.5zm7.79 9.18l1.08-12.41q4.42.38 8.85.71l-.17 2.33q-3.11-.23-6.21-.48l-.22 2.61 6.1.48-.17 2.33-6.13-.48-.23 2.83q3.14.26 6.29.49l-.17 2.33q-4.51-.34-9.02-.74zm14.98 1.13l.79-12.43 4.94.29c3.92.22 6.53 2.82 6.37 6.55s-3.05 6.11-7 5.89zm9.34-5.72a3.67 3.67 0 0 0-3.73-4.09l-2.3-.13-.46 7.77 2.31.13a3.76 3.76 0 0 0 4.18-3.68zm16.99 6.86l.29-12.45q3.3.08 6.6.12c2.39 0 3.6 1.55 3.59 3.21a2.78 2.78 0 0 1-2.2 2.84 3 3 0 0 1 2.41 3.07c0 1.89-1.28 3.37-3.74 3.34s-4.64-.08-6.95-.13zm7.73-8.68a1.32 1.32 0 0 0-1.46-1.33l-3.36-.05V469l3.37.05a1.3 1.3 0 0 0 1.45-1.28zm.19 5.06a1.44 1.44 0 0 0-1.6-1.44l-3.5-.06q0 1.42-.05 2.84l3.51.06c1.01.01 1.63-.5 1.64-1.4zm11.61 3.78v-5.1q-2.46-3.66-4.86-7.34h3q1.56 2.49 3.15 5 1.54-2.51 3.06-5h3q-2.33 3.72-4.71 7.43 0 2.55.06 5.1zm21.38-.5l-.5-12.45q4.43-.18 8.86-.41l.13 2.33q-3.11.17-6.22.3l.11 2.61 6.11-.3.12 2.33-6.13.3.23 5.17zm13.77-6.93a6.62 6.62 0 1 1 7.08 6 6.34 6.34 0 0 1-7.08-6zm10.44-.73a3.85 3.85 0 1 0-3.53 4.37 3.8 3.8 0 0 0 3.53-4.37zm7.98 3.81l1.3-2.2a5.61 5.61 0 0 0 4.19 1.31c1.5-.15 2.14-.87 2.07-1.6-.22-2.14-7.35.06-7.78-4.62-.18-2.07 1.46-3.94 4.4-4.22a7.1 7.1 0 0 1 5 1.23l-1.28 2.12a5.5 5.5 0 0 0-3.79-1c-1.13.11-1.72.65-1.65 1.4.19 2 7.27-.08 7.77 4.53.24 2.26-1.26 4.16-4.68 4.5a7.4 7.4 0 0 1-5.55-1.45zm18.99-.26l-1.2-10-3.66.43-.26-2.32q5-.56 9.95-1.21l.3 2.32-3.64.46 1.24 10zm11.96-1.5l-1.7-12.34q4.4-.61 8.8-1.28l.35 2.31q-3.09.47-6.18.91l.37 2.59 6.07-.89.35 2.31-6.09.9.4 2.81q3.13-.45 6.25-.92l.35 2.31q-4.47.67-8.97 1.29zm22.04-3.43l-3.22-3.94-2 .33.73 4.37-2.69.44-2-12.3 5.8-1a3.94 3.94 0 0 1 4.89 3.22 3.6 3.6 0 0 1-2.12 4.13q1.83 2.09 3.67 4.17zm-1.18-8.38a1.7 1.7 0 0 0-2.13-1.32l-2.8.47.55 3.32 2.82-.47a1.7 1.7 0 0 0 1.55-2zm9.89 6.81l-2.29-12.24 2.65-.5 1.91 9.94 5.31-1 .46 2.29q-4.02.76-8.04 1.51zm14.73-2.93l-1.05-5q-3.15-3.09-6.26-6.22l3-.62q2 2.12 4.09 4.23l2-5.54 3-.66q-1.55 4.12-3.16 8.23l1.07 5zM633.6 405.43l-4-3.22c2.56-3.48 5-5.37 9.66-5.37 5.52 0 8.92 3.18 8.92 8 0 4.33-2.22 6.52-6.81 10.07l-4.22 3.26h11.29v4.92h-19.17v-4.52l8.62-7.07c3.22-2.66 4.48-4.07 4.48-6.22a3.18 3.18 0 0 0-3.48-3.37c-1.99.04-3.36 1.15-5.29 3.52zm63.17-8.43h3.89v26.1H695v-20.3l-4.51 1.11-1.19-4.66zm16.91.21h15.92v5h-11l-.29 4.48a12.48 12.48 0 0 1 3.4-.45c5.11 0 9.07 2.45 9.07 8.33 0 5.52-3.89 9-9.85 9a13.32 13.32 0 0 1-9.7-3.89l3.45-4.11c2 1.78 3.88 2.81 6.18 2.81 2.67 0 4.33-1.3 4.33-3.63s-1.81-3.55-4.59-3.55a11.07 11.07 0 0 0-4.33 1l-3.3-2.19zm-44.58-.57a11.13 11.13 0 1 0 11.14 11.13 11.14 11.14 0 0 0-11.14-11.13zm0 17.33a6.2 6.2 0 1 1 6.2-6.2 6.2 6.2 0 0 1-6.2 6.23zM565.33 290.46h9.15v71.45h-9.15zm19.06 0h9.15v71.45h-9.15zm40.49 20.48a26.17 26.17 0 0 0-19.83 8.22l-.47.49 4.46 6.62.72-.79c4-4.43 8.41-6.4 14.12-6.4 6.87 0 11.31 3.62 11.31 9.22v6.62c-3.84-3.5-8.91-5.27-15.1-5.27-8.46 0-17.57 5.22-17.57 16.67 0 10.89 9.05 16.77 17.57 16.77a21.76 21.76 0 0 0 15.1-5.46v4.27h9.15V328c0-10.83-7.09-17.06-19.46-17.06zM635.2 342v8.6c-2.59 3.39-7.16 5.42-12.31 5.42-6.54 0-11.11-4-11.11-9.72s4.57-9.62 11.11-9.62c5.11.04 9.7 2.02 12.31 5.32zm43.7-31.06a20.71 20.71 0 0 0-15.4 7v-27.48h-9.14v71.45h9.14v-5.68a21 21 0 0 0 15.4 6.87c13.31 0 22.25-10.46 22.25-26s-8.94-26.16-22.25-26.16zm12.81 26.13c0 10.74-5.73 17.69-14.6 17.69-5.3 0-11-2.92-13.6-7v-21.3a17.1 17.1 0 0 1 13.6-7.18c8.73.01 14.6 7.16 14.6 17.8zm82.69-18.72v-6.22h-9.15v49.78h9.15v-34.67c2.19-3.65 8.1-7.06 12.31-7.06a24.24 24.24 0 0 1 2.8.19l.93.1V311h-.84c-5.54 0-10.87 2.62-15.2 7.35zm43.48-7.41a26.16 26.16 0 0 0-19.82 8.22l-.47.49 4.46 6.62.72-.79c4.05-4.43 8.4-6.4 14.12-6.4 6.87 0 11.31 3.62 11.31 9.22v6.62c-3.84-3.5-8.9-5.27-15.1-5.27-8.46 0-17.57 5.22-17.57 16.67 0 10.89 9.05 16.77 17.57 16.77a21.76 21.76 0 0 0 15.1-5.46v4.27h9.14V328c0-10.83-7.1-17.06-19.46-17.06zM828.2 342v8.6c-2.59 3.39-7.17 5.42-12.31 5.42-6.54 0-11.11-4-11.11-9.72s4.57-9.62 11.11-9.62c5.11.04 9.7 2.02 12.31 5.32zm39.97 10.94a6.21 6.21 0 0 1-4.46 1.82c-3.56 0-3.94-3.73-3.94-5.34v-30.71h11.44v-8.25h-11.44v-14.82h-9.25v14.82h-6.29v8.25h6.29V351c0 7.8 4.12 12.09 11.6 12.09 4 0 7.08-1.08 9.44-3.31l.41-.39-2.88-7.47zM924 337.57c0-15.93-9.62-26.63-23.94-26.63-14 0-24.54 11.19-24.54 26 0 15.39 10.46 26.13 25.44 26.13a27.51 27.51 0 0 0 19.71-7.71l.52-.51-4.6-6.26-.69.71a20.05 20.05 0 0 1-14.33 5.92c-10.21 0-15.47-7.37-16.32-15H924zm-24-18.78c10.36 0 14.53 8.23 15 14.26h-29.86c.67-6.05 4.99-14.26 14.86-14.26zm-166.86 43.13a25.38 25.38 0 1 1 25.38-25.38 25.41 25.41 0 0 1-25.38 25.38zm0-41.76a16.38 16.38 0 1 0 16.38 16.38 16.4 16.4 0 0 0-16.38-16.39z" fill="#fff"/><path fill="#fff" d="M565.33 290.46h9.15v71.45h-9.15zm19.06 0h9.15v71.45h-9.15zm40.49 20.48a26.17 26.17 0 0 0-19.83 8.22l-.47.49 4.46 6.62.72-.79c4-4.43 8.41-6.4 14.12-6.4 6.87 0 11.31 3.62 11.31 9.22v6.62c-3.84-3.5-8.91-5.27-15.1-5.27-8.46 0-17.57 5.22-17.57 16.67 0 10.89 9.05 16.77 17.57 16.77a21.76 21.76 0 0 0 15.1-5.46v4.27h9.15V328c0-10.83-7.09-17.06-19.46-17.06zM635.2 342v8.6c-2.59 3.39-7.16 5.42-12.31 5.42-6.54 0-11.11-4-11.11-9.72s4.57-9.62 11.11-9.62c5.11.04 9.7 2.02 12.31 5.32zm43.7-31.06a20.71 20.71 0 0 0-15.4 7v-27.48h-9.14v71.45h9.14v-5.68a21 21 0 0 0 15.4 6.87c13.31 0 22.25-10.46 22.25-26s-8.94-26.16-22.25-26.16zm12.81 26.13c0 10.74-5.73 17.69-14.6 17.69-5.3 0-11-2.92-13.6-7v-21.3a17.1 17.1 0 0 1 13.6-7.18c8.73.01 14.6 7.16 14.6 17.8zm82.69-18.72v-6.22h-9.15v49.78h9.15v-34.67c2.19-3.65 8.1-7.06 12.31-7.06a24.24 24.24 0 0 1 2.8.19l.93.1V311h-.84c-5.54 0-10.87 2.62-15.2 7.35zm43.48-7.41a26.16 26.16 0 0 0-19.82 8.22l-.47.49 4.46 6.62.72-.79c4.05-4.43 8.4-6.4 14.12-6.4 6.87 0 11.31 3.62 11.31 9.22v6.62c-3.84-3.5-8.9-5.27-15.1-5.27-8.46 0-17.57 5.22-17.57 16.67 0 10.89 9.05 16.77 17.57 16.77a21.76 21.76 0 0 0 15.1-5.46v4.27h9.14V328c0-10.83-7.1-17.06-19.46-17.06zM828.2 342v8.6c-2.59 3.39-7.17 5.42-12.31 5.42-6.54 0-11.11-4-11.11-9.72s4.57-9.62 11.11-9.62c5.11.04 9.7 2.02 12.31 5.32zm39.97 10.94a6.21 6.21 0 0 1-4.46 1.82c-3.56 0-3.94-3.73-3.94-5.34v-30.71h11.44v-8.25h-11.44v-14.82h-9.25v14.82h-6.29v8.25h6.29V351c0 7.8 4.12 12.09 11.6 12.09 4 0 7.08-1.08 9.44-3.31l.41-.39-2.88-7.47zM924 337.57c0-15.93-9.62-26.63-23.94-26.63-14 0-24.54 11.19-24.54 26 0 15.39 10.46 26.13 25.44 26.13a27.51 27.51 0 0 0 19.71-7.71l.52-.51-4.6-6.26-.69.71a20.05 20.05 0 0 1-14.33 5.92c-10.21 0-15.47-7.37-16.32-15H924zm-24-18.78c10.36 0 14.53 8.23 15 14.26h-29.86c.67-6.05 4.99-14.26 14.86-14.26zm-166.86 43.13a25.38 25.38 0 1 1 25.38-25.38 25.41 25.41 0 0 1-25.38 25.38zm0-41.76a16.38 16.38 0 1 0 16.38 16.38 16.4 16.4 0 0 0-16.38-16.39zM534.05 311c-16.93-.74-23.62 13.07-29 24.16v.06c-5.91 12.19-14.67 17.86-26.77 17.33a30.43 30.43 0 1 1 26.25-47.85l7.38-5.18a39.44 39.44 0 1 0-34 62c13.45.59 24-4.75 31.54-15.88a25.35 25.35 0 1 0 24.6-34.64zm-1.8 41.78a16.46 16.46 0 1 1 17.15-15.73 16.45 16.45 0 0 1-17.15 15.76z"/><path d="M517.91 329.72a107.46 107.46 0 0 1-8.51 16" fill="none"/><path d="M517 340.39a16.54 16.54 0 0 1 .75-10.33 107.94 107.94 0 0 1-8.37 15.65c.62-.83 2.8-3.14 7.62-5.32z" fill="#cfd1d2"/><path d="M684.91 196.69l-.1-.12-.27-.32-6.6-6.71-6.66 6.77a2 2 0 0 0-.35.9l-1.75 62.51v.52l2.57-.06 1.69-61.86a2.1 2.1 0 0 1 .38-1l3.77-3.44a.48.48 0 0 1 .34-.12.61.61 0 0 1 .48.23l3.58 3.24a2.06 2.06 0 0 1 .47 1l1.65 61.32.07.61h2.6l-1.82-63zm-38.79 57.56l.03 5.96 2.61-.03-.03-5.93h-2.61zm81.51-.01l-.02-16.21v-.16H725l.03 16.25v.16l2.6-.04zm2.63-18.8l-.09-2.59H690l.08 2.61 40.02-.02h.16zm-68.37 18.81l.03 5.96 2.6-.03-.03-5.93h-2.6zm-10.51 0l.03 5.96 2.6-.03-.03-5.93h-2.6zm5.25 0l.03 5.96 2.61-.03-.03-5.93h-2.61z" fill="#fff"/><path fill="#fff" d="M676.64 206.58l-.03.04v47.57h2.68v-47.57l-1.34-1.56-1.31 1.52zm16.85 47.66l-.03-16.21v-.16h-2.6l.02 16.25v.16l2.61-.04zm37.5 2.94h-40.14l.04 2.6 39.98-.03h.16l-.04-2.57zm-6.36-26.76h.17l-.04-2.58h-30.63l.04 2.6 30.46-.02zm-2.69 23.82l-.03-16.21v-.16h-2.6l.03 16.25v.16l2.6-.04zm-22.77 0l-.02-16.21v-.16h-2.6l.02 16.25v.16l2.6-.04zm17.08 0l-.03-16.21v-.16h-2.6l.02 16.25v.16l2.61-.04zm-8.32-16.37l.02 16.41 2.61-.04-.03-16.21v-.16h-2.6zm-3.07 16.37l-.02-16.21v-.16h-2.6l.03 16.25v.16l2.59-.04zm-63.99.01l.03 5.96 2.6-.03-.03-5.93h-2.6zm7.81-14.32h-2.6l.02 5.96 2.61-.04-.03-5.92zm5.41 0h-2.6l.03 5.96 2.6-.04-.03-5.92zm-10.83 0h-2.6l.02 5.96 2.61-.04-.03-5.92zm-13.78 8.84l.04 2.6 36.02-.02h.16l-.04-2.58h-36.18zm8.37-8.84h-2.61l.03 5.96 2.61-.04-.03-5.92zm27.08 0h-2.61l.03 5.96 2.61-.04-.03-5.92zm-5.42 0h-2.61l.03 5.96 2.61-.04-.03-5.92zm-23.9 14.32l.03 5.96 2.6-.03-.02-5.93h-2.61zm15.86-42.12l-.03-5.34h-2.61l.03 5.38 2.61-.04zm-18.83 42.12h-2.24l-.02 5.92 2.57.02.01-5.45-.01-.23-.31-.26zm21.79-37.11l-.04-2.58h-8.51l.03 2.61 8.52-.03zm-20.39 17.3l.07 2.6 32.27-.01h.16l-.07-2.59h-32.43zm12.06-2.9h2.61l-.03-4.63h-2.6l.02 4.63zm5.41 0h2.61l-.03-4.63h-2.6l.02 4.63z"/><path d="M642.2 231.54v-1a8 8 0 0 1 15.91.23v.75h2.62v-1.36a10.73 10.73 0 0 0-10.56-10 10.6 10.6 0 0 0-10.58 10.6v.73z" fill="#fff"/></svg>