<svg xmlns="http://www.w3.org/2000/svg" width="654.6" height="312.9" viewBox="0 0 654.6 312.9"><path fill-rule="evenodd" clip-rule="evenodd" fill="#FFF" d="M0 3.5C0 1.6 1.6 0 3.5 0h647.7c1.9 0 3.5 1.6 3.5 3.5v305.9c0 1.9-1.6 3.5-3.5 3.5H3.5c-1.9 0-3.5-1.6-3.5-3.5V3.5z"/><path fill="none" stroke="#BDCCD4" stroke-width=".853" stroke-miterlimit="10" d="M26.3 53.4h605.3"/><path clip-rule="evenodd" fill="none" d="M43.4 18.9h165.2v18.3H43.4z"/><path fill="#0277BD" d="M55.7 30c0 3.7-2.1 5.7-5.4 5.7-3.2 0-5.3-1.9-5.3-5.6v-7.5h1.4V30c0 2.8 1.5 4.3 3.9 4.3s3.9-1.4 3.9-4.2v-7.5h1.4V30zM62.1 35.7c-1.4 0-2.9-.5-3.9-1.4l.7-1c1 .8 2.2 1.2 3.3 1.2 1.1 0 2-.6 2-1.5 0-1-1.1-1.3-2.4-1.7-1.5-.4-3.1-.9-3.1-2.7 0-1.6 1.4-2.7 3.2-2.7 1.2 0 2.4.4 3.4 1l-.6 1.1c-.9-.6-1.9-.9-2.8-.9-1.1 0-1.8.6-1.8 1.4 0 .9 1.2 1.2 2.4 1.6 1.5.4 3 1 3 2.7-.1 1.8-1.5 2.9-3.4 2.9zM72.2 34.5c1.3 0 2.2-.5 3-1.3l.9.8c-1 1.1-2.1 1.8-3.9 1.8-2.6 0-4.7-2-4.7-4.9 0-2.7 1.9-4.9 4.5-4.9 2.8 0 4.4 2.2 4.4 5v.4h-7.5c.2 1.9 1.7 3.1 3.3 3.1zm2.8-4.3c-.1-1.7-1.1-3.2-3-3.2-1.6 0-2.9 1.4-3.1 3.2H75zM80.3 35.5h-1.4V26h1.4v2.5c.7-1.6 2.1-2.7 3.9-2.6v1.5h-.1c-2.1 0-3.8 1.5-3.8 4.3v3.8zM96.6 31h-3.1v4.5h-1.4V22.7h4.8c2.9 0 4.8 1.5 4.8 4.1 0 2.7-2.3 4.2-5.1 4.2zm.2-7h-3.2v5.6h3.2c2.1 0 3.5-1.1 3.5-2.8-.1-1.9-1.5-2.8-3.5-2.8zM108.1 34.5c1.3 0 2.2-.5 3-1.3l.9.8c-1 1.1-2.1 1.8-3.9 1.8-2.6 0-4.7-2-4.7-4.9 0-2.7 1.9-4.9 4.5-4.9 2.8 0 4.4 2.2 4.4 5v.4h-7.5c.2 1.9 1.7 3.1 3.3 3.1zm2.8-4.3c-.1-1.7-1.1-3.2-3-3.2-1.6 0-2.9 1.4-3.1 3.2h6.1zM116.2 35.5h-1.4V26h1.4v2.5c.7-1.6 2.1-2.7 3.9-2.6v1.5h-.1c-2.1 0-3.8 1.5-3.8 4.3v3.8zM127.2 26v1.2h-3v8.2h-1.4v-8.2h-1.3V26h1.3v-.8c0-2.1 1-3.2 2.9-3.2.7 0 1.1.1 1.6.2v1.2c-.5-.1-.9-.2-1.4-.2-1.1 0-1.6.7-1.6 2v.8h2.9zM133.1 35.7c-2.8 0-4.9-2.2-4.9-4.9s2.1-5 4.9-5c2.8 0 4.9 2.2 4.9 4.9.1 2.7-2 5-4.9 5zm0-8.7c-2.1 0-3.5 1.6-3.5 3.7s1.5 3.7 3.5 3.7c2.1 0 3.5-1.6 3.5-3.7 0-2-1.5-3.7-3.5-3.7zM142 35.5h-1.4V26h1.4v2.5c.7-1.6 2.1-2.7 3.9-2.6v1.5h-.1c-2.1 0-3.8 1.5-3.8 4.3v3.8zM158.9 25.8c2.2 0 3.5 1.5 3.5 3.8v5.9H161V30c0-1.8-.9-2.9-2.5-2.9-1.4 0-2.6 1.1-2.6 2.9v5.5h-1.4v-5.6c0-1.8-.9-2.8-2.4-2.8s-2.6 1.2-2.6 3v5.4H148V26h1.4v1.6c.6-.9 1.5-1.8 3.1-1.8 1.5 0 2.5.8 3 1.9.7-1.1 1.7-1.9 3.4-1.9zM166 27.8l-.4-1.2c1-.5 2.1-.8 3.4-.8 2.6 0 4 1.3 4 3.8v5.8h-1.4V34c-.7.9-1.8 1.6-3.4 1.6-1.8 0-3.5-1-3.5-3s1.6-3.1 4-3.1c1.2 0 2.1.2 2.9.4v-.3c0-1.7-1-2.6-2.8-2.6-1 .1-1.9.4-2.8.8zm.2 4.9c0 1.2 1.1 1.9 2.4 1.9 1.7 0 3.2-1.1 3.2-2.6v-.9c-.7-.2-1.6-.4-2.8-.4-1.8 0-2.8.7-2.8 2zM177.5 35.5h-1.4V26h1.4v1.6c.6-1 1.6-1.9 3.2-1.9 2.3 0 3.6 1.5 3.6 3.8v5.9H183v-5.5c0-1.8-1-2.9-2.6-2.9s-2.8 1.2-2.8 3v5.5zM191.6 35.7c-2.8 0-4.9-2.3-4.9-4.9 0-2.7 2.1-5 4.9-5 1.8 0 2.9.8 3.8 1.7l-.9 1c-.8-.8-1.6-1.4-2.9-1.4-1.9 0-3.4 1.6-3.4 3.7s1.5 3.7 3.5 3.7c1.2 0 2.1-.6 2.9-1.4l.9.8c-.9 1-2.1 1.8-3.9 1.8zM201.7 34.5c1.3 0 2.2-.5 3-1.3l.9.8c-1 1.1-2.1 1.8-3.9 1.8-2.6 0-4.7-2-4.7-4.9 0-2.7 1.9-4.9 4.5-4.9 2.8 0 4.4 2.2 4.4 5v.4h-7.5c.2 1.9 1.7 3.1 3.3 3.1zm2.8-4.3c-.1-1.7-1.1-3.2-3-3.2-1.6 0-2.9 1.4-3.1 3.2h6.1z"/><g fill="#8795A2"><path d="M231.3 33.1h-.8l-.8-1.7h-3.5l-.8 1.7h-.7l2.9-6.5h.7l3 6.5zm-3.3-5.6l-1.5 3.3h2.9l-1.4-3.3zM232.5 33.1v-6.7h.7v6.7h-.7zM234.9 33.1v-6.7h.7v6.7h-.7zM241 31.8c0 .6.3.8.8.8.2 0 .4 0 .7-.2v.6c-.2.1-.5.2-.9.2-.8 0-1.3-.4-1.3-1.3V29h-.7v-.6h.7V27h.7v1.4h1.5v.6H241v2.8zM243.8 27.3v-.8h.8v.8h-.8zm0 5.8v-4.8h.7v4.8h-.7zM251.7 28.3c1.1 0 1.8.7 1.8 1.9v2.9h-.7v-2.8c0-.9-.5-1.4-1.2-1.4s-1.3.5-1.3 1.5v2.7h-.7v-2.8c0-.9-.5-1.4-1.2-1.4s-1.3.6-1.3 1.5v2.7h-.7v-4.8h.7v.8c.3-.5.7-.9 1.5-.9s1.3.4 1.5.9c.2-.4.7-.8 1.6-.8zM257.1 32.6c.7 0 1.1-.3 1.5-.7l.4.4c-.5.5-1.1.9-2 .9-1.3 0-2.4-1-2.4-2.5 0-1.4 1-2.5 2.3-2.5 1.4 0 2.2 1.1 2.2 2.5v.2h-3.8c.2 1.1.9 1.7 1.8 1.7zm1.4-2.1c-.1-.9-.6-1.6-1.5-1.6-.8 0-1.5.7-1.5 1.6h3z"/></g><path fill="none" stroke="#8795A2" stroke-width=".802" d="M279.4 28.5l-5 4-5-4"/><g fill-rule="evenodd" clip-rule="evenodd" fill="#90A4AE"><circle cx="29.8" cy="23.7" r="1.8"/><circle cx="29.8" cy="29.7" r="1.8"/><circle cx="29.8" cy="35.6" r="1.8"/></g><g><path clip-rule="evenodd" fill="none" stroke="#ECECFB" stroke-width=".655" stroke-linecap="round" stroke-linejoin="round" stroke-miterlimit="10" d="M336.1 102.9v162.2M361.3 103.3v162.1M386.5 103.3v162.1M411.7 103.3v162.1M184.8 102.9v162.2M210 103.3v162.1M235.2 103.3v162.1M260.4 103.3v162.1M285.6 103.3v162.1M310.9 103.3v162.1M32.9 102.6v162.2M58.1 102.9v162.2M83.3 102.9v162.2M108.5 102.9v162.2M133.7 102.9v162.2M159 102.9v162.2"/><g fill="#8795A2"><path d="M38 230.4h.7l-2.5 5.8h-.6l-2.5-5.8h.7l2 4.9 2.2-4.9zM41 235.6c.6 0 1-.2 1.3-.6l.4.4c-.4.5-.9.8-1.7.8-1.2 0-2.1-.9-2.1-2.2 0-1.2.9-2.2 2-2.2 1.3 0 2 1 2 2.2v.2h-3.4c.1.9.8 1.4 1.5 1.4zm1.3-1.9c-.1-.8-.5-1.4-1.3-1.4-.7 0-1.3.6-1.4 1.4h2.7zM44.6 236.1H44v-4.2h.6v1.1c.3-.7.9-1.2 1.7-1.2v.7c-.9 0-1.7.7-1.7 1.9v1.7zM48.7 236.2c-.6 0-1.3-.2-1.8-.6l.3-.4c.5.3 1 .5 1.5.5s.9-.3.9-.7c0-.4-.5-.6-1.1-.7-.7-.2-1.4-.4-1.4-1.2 0-.7.6-1.2 1.4-1.2.5 0 1.1.2 1.5.5l-.3.5c-.4-.3-.8-.4-1.3-.4s-.8.3-.8.6c0 .4.5.6 1.1.7.7.2 1.4.5 1.4 1.2.1.7-.5 1.2-1.4 1.2zM51.4 230.9v-.7h.7v.7h-.7zm0 5.2v-4.2h.6v4.2h-.6zM55.5 236.2c-1.3 0-2.2-1-2.2-2.2 0-1.2.9-2.2 2.2-2.2 1.3 0 2.2 1 2.2 2.2 0 1.2-1 2.2-2.2 2.2zm0-3.9c-.9 0-1.5.7-1.5 1.6s.7 1.7 1.6 1.7c.9 0 1.6-.7 1.6-1.6-.2-1-.8-1.7-1.7-1.7zM59.4 236.1h-.6v-4.2h.6v.7c.3-.5.7-.8 1.4-.8 1 0 1.6.7 1.6 1.7v2.6h-.6v-2.5c0-.8-.4-1.3-1.2-1.3-.7 0-1.3.5-1.3 1.3v2.5zM67.2 230.3h.5v5.8h-.6V231l-1.1.3-.2-.5 1.4-.5z"/></g><g fill="#8795A2"><path d="M118.1 230.4h.7l-2.5 5.8h-.6l-2.5-5.8h.7l2 4.9 2.2-4.9zM121.1 235.6c.6 0 1-.2 1.3-.6l.4.4c-.4.5-.9.8-1.7.8-1.2 0-2.1-.9-2.1-2.2 0-1.2.9-2.2 2-2.2 1.3 0 2 1 2 2.2v.2h-3.4c.1.9.7 1.4 1.5 1.4zm1.2-1.9c-.1-.8-.5-1.4-1.3-1.4-.7 0-1.3.6-1.4 1.4h2.7zM124.7 236.1h-.7v-4.2h.6v1.1c.3-.7.9-1.2 1.7-1.2v.7c-.9 0-1.7.7-1.7 1.9v1.7zM128.8 236.2c-.6 0-1.3-.2-1.8-.6l.3-.4c.5.3 1 .5 1.5.5s.9-.3.9-.7c0-.4-.5-.6-1.1-.7-.7-.2-1.4-.4-1.4-1.2 0-.7.6-1.2 1.4-1.2.5 0 1.1.2 1.5.5l-.3.5c-.4-.3-.8-.4-1.3-.4s-.8.3-.8.6c0 .4.5.6 1.1.7.7.2 1.4.5 1.4 1.2.1.7-.6 1.2-1.4 1.2zM131.4 230.9v-.7h.7v.7h-.7zm.1 5.2v-4.2h.6v4.2h-.6zM135.5 236.2c-1.3 0-2.2-1-2.2-2.2 0-1.2.9-2.2 2.2-2.2 1.3 0 2.2 1 2.2 2.2 0 1.2-.9 2.2-2.2 2.2zm0-3.9c-.9 0-1.5.7-1.5 1.6s.7 1.7 1.6 1.7c.9 0 1.6-.7 1.6-1.6-.1-1-.8-1.7-1.7-1.7zM139.5 236.1h-.6v-4.2h.6v.7c.3-.5.7-.8 1.4-.8 1 0 1.6.7 1.6 1.7v2.6h-.6v-2.5c0-.8-.4-1.3-1.2-1.3-.7 0-1.3.5-1.3 1.3v2.5zM146.6 231.8l-.5-.3c.5-.8 1.1-1.2 2.1-1.2s1.8.7 1.8 1.6c0 .8-.4 1.4-1.4 2.2l-1.5 1.4h3v.6h-4v-.5l2.1-1.8c.9-.8 1.2-1.2 1.2-1.8 0-.7-.5-1.1-1.2-1.1-.7-.1-1.1.3-1.6.9z"/></g><g fill="#8795A2"><path d="M27.8 85.2c-.7 0-1.1-.3-1.4-.7l.5-.5c.3.3.5.5.9.5s.7-.3.7-.8v-2.8h.8v2.8c-.1.9-.7 1.5-1.5 1.5zM34.8 85.1H34l-.4-1h-2l-.4 1h-.8l1.9-4.3h.7l1.8 4.3zm-2.2-3.4l-.7 1.7h1.5l-.8-1.7zM39.2 80.8h.7v4.3h-.6L36.9 82v3.1h-.7v-4.3h.7l2.3 3v-3zM44.8 80.8h.5v4.3h-.7v-3.6l-.8.2-.2-.6 1.2-.3zM49.8 80.8v2.7h.6v.6h-.6v1h-.7v-1h-2.2l-.1-.5 2.4-2.8h.6zm-.7 1l-1.4 1.7h1.4v-1.7z"/></g><g fill="#8795A2"><path d="M378.2 85.2c-.7 0-1.1-.3-1.4-.7l.5-.5c.3.3.5.5.9.5s.7-.3.7-.8v-2.8h.8v2.8c0 .9-.6 1.5-1.5 1.5zM385.3 85.1h-.8l-.4-1h-2l-.4 1h-.8l1.9-4.3h.7l1.8 4.3zm-2.3-3.4l-.7 1.7h1.5l-.8-1.7zM389.6 80.8h.7v4.3h-.6l-2.4-3.1v3.1h-.7v-4.3h.7l2.3 3v-3zM395.3 80.8h.5v4.3h-.7v-3.6l-.8.2-.2-.6 1.2-.3zM397.7 80.8h2.6v.7h-1.9l-.1 1c.2-.1.4-.1.7-.1.8 0 1.5.4 1.5 1.4 0 .9-.6 1.5-1.6 1.5-.7 0-1.2-.3-1.6-.7l.5-.5c.3.3.7.5 1.1.5.5 0 .9-.3.9-.7 0-.4-.4-.7-.9-.7-.3 0-.6.1-.8.2l-.5-.3.1-2.3z"/></g><g fill="#8795A2"><path d="M81.3 84l-1.4-2v3.1h-.7v-4.3h.8l1.3 2 1.3-2h.8v4.3h-.8V82l-1.3 2zM89.2 85.1h-.8l-.4-1h-2l-.4 1h-.8l1.9-4.3h.7l1.8 4.3zm-2.3-3.4l-.7 1.7h1.5l-.8-1.7zM93.3 85.1l-1.1-1.5h-.9v1.5h-.8v-4.3h1.9c1 0 1.6.5 1.6 1.4 0 .7-.4 1.1-1 1.3l1.2 1.6h-.9zm-.9-3.6h-1.1v1.4h1.1c.5 0 .9-.3.9-.7 0-.5-.4-.7-.9-.7z"/></g><g fill="#8795A2"><path d="M180.2 84l-1.4-2v3.1h-.7v-4.3h.8l1.3 2 1.3-2h.8v4.3h-.8V82l-1.3 2zM188.1 85.1h-.8l-.4-1h-2l-.4 1h-.8l1.9-4.3h.7l1.8 4.3zm-2.2-3.4l-.7 1.7h1.5l-.8-1.7zM190.8 85.1h-.8v-1.7l-1.7-2.6h.9l1.2 1.9 1.2-1.9h.9l-1.7 2.6v1.7z"/></g><g fill="#8795A2"><path d="M234.5 85.2c-.7 0-1.1-.3-1.4-.7l.5-.5c.3.3.5.5.9.5s.7-.3.7-.8v-2.8h.8v2.8c-.1.9-.7 1.5-1.5 1.5zM241.2 83.2c0 1.3-.7 1.9-1.8 1.9s-1.8-.6-1.8-1.9v-2.5h.8v2.4c0 .8.4 1.2 1.1 1.2.7 0 1.1-.4 1.1-1.2v-2.5h.8v2.6zM242.8 80.8h.8v3.6h2.3v.7h-3v-4.3z"/></g><g fill="#8795A2"><path d="M285.1 82.5c.9.2 1.4.5 1.4 1.3s-.6 1.3-1.5 1.3c-.7 0-1.3-.2-1.8-.7l.5-.5c.4.4.8.6 1.4.6.5 0 .8-.2.8-.5s-.2-.5-1-.7c-.9-.2-1.4-.5-1.4-1.3 0-.7.6-1.3 1.5-1.3.6 0 1.1.2 1.6.5l-.4.6c-.4-.3-.8-.4-1.2-.4-.4 0-.7.2-.7.5-.2.2 0 .4.8.6zM291.1 81.3h-2.4v1.1h2.2v.7h-2.2v1.2h2.5v.7H288v-4.3h3.2v.6zM294.3 83.6h-.9V85h-.8v-4.3h1.7c1 0 1.6.6 1.6 1.4.1 1-.7 1.5-1.6 1.5zm0-2.3h-.9v1.5h.9c.6 0 .9-.3.9-.8 0-.4-.3-.7-.9-.7z"/></g><g fill="#8795A2"><path d="M334.3 80.4h.7v4.3h-.6l-2.4-3.1v3.1h-.7v-4.3h.7l2.3 3v-3zM338.8 84.8c-1.3 0-2.2-1-2.2-2.2s.9-2.2 2.3-2.2c1.3 0 2.2 1 2.2 2.2-.1 1.2-1 2.2-2.3 2.2zm0-3.8c-.9 0-1.4.7-1.4 1.5s.6 1.5 1.5 1.5 1.4-.7 1.4-1.5c-.1-.8-.7-1.5-1.5-1.5zM345.3 80.4h.8l-1.8 4.3h-.7l-1.8-4.3h.8l1.3 3.3 1.4-3.3z"/></g><g fill="#8795A2"><path d="M136.1 85.1h-.8l-.4-1h-2l-.4 1h-.8l1.9-4.3h.7l1.8 4.3zm-2.3-3.4l-.7 1.7h1.5l-.8-1.7zM139.1 83.7h-.9v1.4h-.8v-4.3h1.7c1 0 1.6.6 1.6 1.4.1 1-.7 1.5-1.6 1.5zm0-2.2h-.9V83h.9c.6 0 .9-.3.9-.8s-.4-.7-.9-.7zM144.9 85.1l-1.1-1.5h-.9v1.5h-.8v-4.3h1.9c1 0 1.6.5 1.6 1.4 0 .7-.4 1.1-1 1.3l1.2 1.6h-.9zm-.9-3.6h-1.1v1.4h1.1c.5 0 .9-.3.9-.7 0-.5-.3-.7-.9-.7z"/></g><path clip-rule="evenodd" fill="none" stroke="#ECECFB" stroke-width=".655" stroke-linecap="round" stroke-linejoin="round" stroke-miterlimit="10" d="M539 102.9v162.2M564.2 103.3v162.1M589.4 103.3v162.1M437.5 102.9v162.2M462.7 102.9v162.2M488 102.9v162.2M513.2 102.9v162.2"/><g fill="#8795A2"><path d="M435.5 84l-1.4-2v3.1h-.7v-4.3h.8l1.3 2 1.3-2h.8v4.3h-.8V82l-1.3 2zM443.4 85.1h-.8l-.4-1h-2l-.4 1h-.8l1.9-4.3h.7l1.8 4.3zm-2.2-3.4l-.7 1.7h1.5l-.8-1.7zM447.5 85.1l-1.1-1.5h-.9v1.5h-.8v-4.3h1.9c1 0 1.6.5 1.6 1.4 0 .7-.4 1.1-1 1.3l1.2 1.6h-.9zm-.9-3.6h-1.1v1.4h1.1c.5 0 .9-.3.9-.7 0-.5-.3-.7-.9-.7z"/></g><g fill="#8795A2"><path d="M534.4 84l-1.4-2v3.1h-.7v-4.3h.8l1.3 2 1.3-2h.8v4.3h-.8V82l-1.3 2zM542.4 85.1h-.8l-.4-1h-2l-.4 1h-.8l1.9-4.3h.7l1.8 4.3zm-2.3-3.4l-.7 1.7h1.5l-.8-1.7zM545.1 85.1h-.8v-1.7l-1.7-2.6h.9l1.2 1.9 1.2-1.9h.9l-1.7 2.6v1.7z"/></g><g fill="#8795A2"><path d="M586.6 85c-.7 0-1.1-.3-1.4-.7l.5-.5c.3.3.5.5.9.5s.7-.3.7-.8v-2.8h.8v2.8c0 1-.6 1.5-1.5 1.5zM593.3 83.1c0 1.3-.7 1.9-1.8 1.9s-1.8-.6-1.8-1.9v-2.5h.8V83c0 .8.4 1.2 1.1 1.2.7 0 1.1-.4 1.1-1.2v-2.5h.8v2.6zM595 80.6h.8v3.6h2.3v.7h-3v-4.3z"/></g><g fill="#8795A2"><path d="M490 84.7h-.8l-.4-1h-2l-.4 1h-.8l1.9-4.3h.7l1.8 4.3zm-2.2-3.4L487 83h1.5l-.7-1.7zM493 83.4h-.9v1.4h-.8v-4.3h1.7c1 0 1.6.6 1.6 1.4.1 1-.7 1.5-1.6 1.5zm0-2.3h-.9v1.5h.9c.6 0 .9-.3.9-.8 0-.4-.3-.7-.9-.7zM498.8 84.7l-1.1-1.5h-.9v1.5h-.8v-4.3h1.9c1 0 1.6.5 1.6 1.4 0 .7-.4 1.1-1 1.3l1.2 1.6h-.9zm-.9-3.6h-1.1v1.4h1.1c.5 0 .9-.3.9-.7 0-.4-.3-.7-.9-.7z"/></g><path clip-rule="evenodd" fill="none" stroke="#0277BD" stroke-width="2.724" stroke-linecap="round" stroke-linejoin="round" stroke-miterlimit="10" d="M112.9 244.7h157"/><g fill="#8795A2"><path d="M281 230.4h.7l-2.5 5.8h-.6l-2.5-5.8h.7l2 4.9 2.2-4.9zM284 235.6c.6 0 1-.2 1.3-.6l.4.4c-.4.5-.9.8-1.7.8-1.2 0-2.1-.9-2.1-2.2 0-1.2.9-2.2 2-2.2 1.3 0 2 1 2 2.2v.2h-3.4c.1.9.8 1.4 1.5 1.4zm1.2-1.9c-.1-.8-.5-1.4-1.3-1.4-.7 0-1.3.6-1.4 1.4h2.7zM287.6 236.1h-.6v-4.2h.6v1.1c.3-.7.9-1.2 1.7-1.2v.7c-.9 0-1.7.7-1.7 1.9v1.7zM291.7 236.2c-.6 0-1.3-.2-1.8-.6l.3-.4c.5.3 1 .5 1.5.5s.9-.3.9-.7c0-.4-.5-.6-1.1-.7-.7-.2-1.4-.4-1.4-1.2 0-.7.6-1.2 1.4-1.2.5 0 1.1.2 1.5.5l-.3.5c-.4-.3-.8-.4-1.3-.4s-.8.3-.8.6c0 .4.5.6 1.1.7.7.2 1.4.5 1.4 1.2.1.7-.6 1.2-1.4 1.2zM294.4 230.9v-.7h.7v.7h-.7zm0 5.2v-4.2h.6v4.2h-.6zM298.4 236.2c-1.3 0-2.2-1-2.2-2.2 0-1.2.9-2.2 2.2-2.2 1.3 0 2.2 1 2.2 2.2 0 1.2-.9 2.2-2.2 2.2zm0-3.9c-.9 0-1.5.7-1.5 1.6s.7 1.7 1.6 1.7c.9 0 1.6-.7 1.6-1.6-.1-1-.8-1.7-1.7-1.7zM302.4 236.1h-.6v-4.2h.6v.7c.3-.5.7-.8 1.4-.8 1 0 1.6.7 1.6 1.7v2.6h-.6v-2.5c0-.8-.4-1.3-1.2-1.3-.7 0-1.3.5-1.3 1.3v2.5zM309.3 230.9v-.6h3.7v.5l-1.8 2c1 .1 1.9.6 1.9 1.6s-.9 1.7-1.9 1.7c-1 0-1.7-.4-2.1-1l.5-.4c.4.5 1 .9 1.7.9s1.3-.4 1.3-1.1c0-.7-.7-1.1-1.6-1.1h-.4l-.1-.4 1.8-2h-3z"/></g><path clip-rule="evenodd" fill="none" stroke="#0277BD" stroke-width="2.724" stroke-linecap="round" stroke-linejoin="round" stroke-miterlimit="10" d="M276.3 244.7h157"/><g fill="#8795A2"><path d="M442.3 230.4h.7l-2.5 5.8h-.5l-2.5-5.8h.7l2 4.9 2.1-4.9zM445.3 235.6c.6 0 1-.2 1.3-.6l.4.4c-.4.5-.9.8-1.7.8-1.2 0-2.1-.9-2.1-2.2 0-1.2.9-2.2 2-2.2 1.3 0 2 1 2 2.2v.2h-3.4c.2.9.8 1.4 1.5 1.4zm1.3-1.9c-.1-.8-.5-1.4-1.3-1.4-.7 0-1.3.6-1.4 1.4h2.7zM449 236.1h-.6v-4.2h.6v1.1c.3-.7.9-1.2 1.7-1.2v.7c-.9 0-1.7.7-1.7 1.9v1.7zM453 236.2c-.6 0-1.3-.2-1.8-.6l.3-.4c.5.3 1 .5 1.5.5s.9-.3.9-.7c0-.4-.5-.6-1.1-.7-.7-.2-1.4-.4-1.4-1.2 0-.7.6-1.2 1.4-1.2.5 0 1.1.2 1.5.5l-.3.5c-.4-.3-.8-.4-1.3-.4s-.8.3-.8.6c0 .4.5.6 1.1.7.7.2 1.4.5 1.4 1.2.1.7-.5 1.2-1.4 1.2zM455.7 230.9v-.7h.7v.7h-.7zm.1 5.2v-4.2h.6v4.2h-.6zM459.8 236.2c-1.3 0-2.2-1-2.2-2.2 0-1.2.9-2.2 2.2-2.2 1.3 0 2.2 1 2.2 2.2 0 1.2-.9 2.2-2.2 2.2zm0-3.9c-.9 0-1.5.7-1.5 1.6s.7 1.7 1.6 1.7c.9 0 1.6-.7 1.6-1.6-.1-1-.8-1.7-1.7-1.7zM463.8 236.1h-.6v-4.2h.6v.7c.3-.5.7-.8 1.4-.8 1 0 1.6.7 1.6 1.7v2.6h-.6v-2.5c0-.8-.4-1.3-1.2-1.3-.7 0-1.3.5-1.3 1.3v2.5zM474.1 230.3v3.9h.9v.5h-.9v1.4h-.6v-1.4h-3l-.2-.5 3.2-3.9h.6zm-.7.9l-2.4 3h2.4v-3z"/></g><path clip-rule="evenodd" fill="none" stroke="#0277BD" stroke-width="2.724" stroke-linecap="round" stroke-linejoin="round" stroke-miterlimit="10" d="M440.7 244.7h150.6M34.5 244.7h71.2"/><path clip-rule="evenodd" fill="none" stroke="#8BC34A" stroke-width="2.043" stroke-linecap="round" stroke-linejoin="round" stroke-miterlimit="10" d="M32 162.2l62.6-18.4 18.8 3.7 31.3-14.7 13.8 11 11.2-7.3 12.6 3.6 81.4-3.6 68.9 11h75.1l81.4-11 75.2-14.7 25-7.3"/><path clip-rule="evenodd" fill="none" stroke="#F44336" stroke-width="2.043" stroke-linecap="round" stroke-linejoin="round" stroke-miterlimit="10" d="M32 192.5l62.6-9.6 18.8 8.7 31.3-12.1 13.8 9.1 11.2 5.2 12.6-2.6 81.4-8.7 68.9-7.8 75.1 5.6 81.4 7.8 75.2 10.4 25 5.2"/><g fill="#8795A2"><path d="M605.3 112.5h-1.4v2h-.6v-5.7h2.1c1.3 0 2.1.7 2.1 1.8.1 1.2-1 1.9-2.2 1.9zm.1-3.2H604v2.5h1.4c.9 0 1.6-.5 1.6-1.3-.1-.7-.7-1.2-1.6-1.2zM608.8 111.1l-.2-.5c.5-.2.9-.4 1.5-.4 1.2 0 1.8.6 1.8 1.7v2.6h-.6v-.6c-.3.4-.8.7-1.5.7-.8 0-1.6-.4-1.6-1.3s.7-1.4 1.8-1.4c.5 0 .9.1 1.3.2v-.1c0-.8-.5-1.2-1.3-1.2-.4-.1-.8.1-1.2.3zm.1 2.1c0 .5.5.9 1.1.9.8 0 1.4-.5 1.4-1.1v-.4c-.3-.1-.7-.2-1.2-.2-.9-.1-1.3.3-1.3.8zM614.7 114.6c-.6 0-1.3-.2-1.8-.6l.3-.4c.5.3 1 .5 1.5.5s.9-.3.9-.7c0-.4-.5-.6-1.1-.7-.7-.2-1.4-.4-1.4-1.2 0-.7.6-1.2 1.4-1.2.5 0 1.1.2 1.5.5l-.3.5c-.4-.3-.8-.4-1.3-.4s-.8.3-.8.6c0 .4.5.6 1.1.7.7.2 1.4.5 1.4 1.2.1.7-.6 1.2-1.4 1.2zM618.7 114.6c-.6 0-1.3-.2-1.8-.6l.3-.4c.5.3 1 .5 1.5.5s.9-.3.9-.7c0-.4-.5-.6-1.1-.7-.7-.2-1.4-.4-1.4-1.2 0-.7.6-1.2 1.4-1.2.5 0 1.1.2 1.5.5l-.3.5c-.4-.3-.8-.4-1.3-.4s-.8.3-.8.6c0 .4.5.6 1.1.7.7.2 1.4.5 1.4 1.2.1.7-.6 1.2-1.4 1.2zM623.2 114c.6 0 1-.2 1.3-.6l.4.4c-.4.5-.9.8-1.7.8-1.2 0-2.1-.9-2.1-2.2 0-1.2.9-2.2 2-2.2 1.3 0 2 1 2 2.2v.2h-3.4c.1.9.8 1.4 1.5 1.4zm1.3-1.9c-.1-.8-.5-1.4-1.3-1.4-.7 0-1.3.6-1.4 1.4h2.7zM629.6 114.5v-.9c-.3.5-.8.9-1.6.9-1 0-2-.8-2-2.2 0-1.4 1-2.2 2-2.2.8 0 1.3.4 1.6.9v-2.6h.6v6h-.6zm-1.5-3.8c-.8 0-1.5.6-1.5 1.6s.7 1.6 1.5 1.6 1.5-.7 1.5-1.6c0-.9-.7-1.6-1.5-1.6z"/></g><g fill="#8795A2"><path d="M608.9 206.3l-.4.5-.8-.7c-.5.4-1.1.6-1.8.6-1.7 0-2.9-1.4-2.9-3s1.2-3 2.9-3 2.9 1.4 2.9 3c0 .7-.2 1.4-.7 1.9l.8.7zm-2.7-1.6l.4-.5 1.1 1c.3-.4.5-.9.5-1.5 0-1.3-.9-2.4-2.3-2.4s-2.2 1-2.2 2.4.9 2.4 2.3 2.4c.5 0 1-.2 1.3-.4l-1.1-1zM613.1 202.3h.6v4.2h-.6v-.7c-.3.5-.7.8-1.4.8-1 0-1.6-.7-1.6-1.7v-2.6h.6v2.5c0 .8.4 1.3 1.2 1.3.7 0 1.3-.5 1.3-1.3v-2.5zM615.2 201.4v-.7h.7v.7h-.7zm0 5.2v-4.2h.6v4.2h-.6zM618.2 205.4c0 .5.3.7.7.7.2 0 .4 0 .6-.1v.5c-.2.1-.5.2-.8.2-.7 0-1.2-.3-1.2-1.2v-2.6h-.6v-.6h.6V201h.6v1.3h1.3v.6h-1.3v2.5z"/></g><path opacity=".5" fill="none" stroke="#BDCCD4" stroke-width="1.362" stroke-miterlimit="10" d="M33.4 204.1h557.9"/></g></svg>