<svg xmlns="http://www.w3.org/2000/svg" width="655" height="313" viewBox="0 0 655 313"><path fill-rule="evenodd" clip-rule="evenodd" fill="#FFF" d="M0 3.5C0 1.6 1.6 0 3.5 0h647.7c1.9 0 3.5 1.6 3.5 3.5v305.9c0 1.9-1.6 3.5-3.5 3.5H3.5c-1.9 0-3.5-1.6-3.5-3.5V3.5z"/><circle fill-rule="evenodd" clip-rule="evenodd" fill="#F44336" cx="559" cy="97.9" r="4.1"/><circle fill-rule="evenodd" clip-rule="evenodd" fill="#8795A2" cx="559" cy="116.5" r="4.1"/><path fill-rule="evenodd" clip-rule="evenodd" fill="#8795A2" d="M555 135.1c0-2.3 1.8-4.1 4.1-4.1s4.1 1.8 4.1 4.1c0 2.2-1.8 4.1-4.1 4.1s-4.1-1.8-4.1-4.1z"/><circle fill-rule="evenodd" clip-rule="evenodd" fill="#8795A2" cx="559" cy="153.7" r="4.1"/><circle fill-rule="evenodd" clip-rule="evenodd" fill="#2196F3" cx="559" cy="172.3" r="4.1"/><circle fill-rule="evenodd" clip-rule="evenodd" fill="#8795A2" cx="559" cy="190.9" r="4.1"/><circle fill-rule="evenodd" clip-rule="evenodd" fill="#8795A2" cx="559" cy="209.5" r="4.1"/><path fill-rule="evenodd" clip-rule="evenodd" fill="#8795A2" d="M555 228.1c0-2.3 1.8-4.1 4.1-4.1s4.1 1.8 4.1 4.1c0 2.2-1.8 4.1-4.1 4.1s-4.1-1.8-4.1-4.1z"/><path fill-rule="evenodd" clip-rule="evenodd" fill="#8BC34A" d="M555 246.7c0-2.3 1.8-4.1 4.1-4.1s4.1 1.8 4.1 4.1c0 2.2-1.8 4.1-4.1 4.1s-4.1-1.8-4.1-4.1z"/><circle fill-rule="evenodd" clip-rule="evenodd" fill="#8795A2" cx="559" cy="265.3" r="4.1"/><circle fill-rule="evenodd" clip-rule="evenodd" fill="#8795A2" cx="559" cy="283.9" r="4.1"/><path clip-rule="evenodd" fill="none" d="M571.3 92.2h54.6v202.6h-54.6z"/><path fill="#8795A2" d="M574.7 99.7c-1.6 0-2.9-1.3-2.9-2.9 0-1.6 1.2-3 2.9-3 1 0 1.7.4 2.2.9l-.4.5c-.5-.5-1-.8-1.8-.8-1.3 0-2.2 1-2.2 2.4 0 1.3 1 2.4 2.2 2.4.8 0 1.3-.3 1.8-.8l.4.4c-.5.5-1.2.9-2.2.9zM578.2 96.2l-.2-.5c.5-.2.9-.4 1.5-.4 1.2 0 1.8.6 1.8 1.7v2.6h-.6V99c-.3.4-.8.7-1.5.7-.8 0-1.6-.4-1.6-1.3s.7-1.4 1.8-1.4c.5 0 .9.1 1.3.2v-.1c0-.8-.5-1.2-1.3-1.2-.4 0-.8.1-1.2.3zm.1 2.2c0 .5.5.8 1.1.8.8 0 1.4-.5 1.4-1.1v-.4c-.3-.1-.7-.2-1.2-.2-.9 0-1.3.3-1.3.9zM583.3 99.6h-.6v-4.2h.6v1.1c.3-.7.9-1.2 1.7-1.2v.7c-.9 0-1.7.7-1.7 1.9v1.7zM589.2 99.6v-.8c-.3.5-.8.9-1.6.9-1 0-2-.8-2-2.2 0-1.4 1-2.2 2-2.2.8 0 1.3.4 1.6.9v-2.5h.6v6h-.6zm-1.5-3.7c-.8 0-1.5.6-1.5 1.6s.7 1.6 1.5 1.6 1.5-.7 1.5-1.6c.1-1-.7-1.6-1.5-1.6zM591.3 94.5v-.7h.7v.7h-.7zm0 5.1v-4.2h.6v4.2h-.6zM595.3 99.7c-1.3 0-2.2-1-2.2-2.2 0-1.2.9-2.2 2.2-2.2 1.3 0 2.2 1 2.2 2.2s-.9 2.2-2.2 2.2zm0-3.8c-.9 0-1.5.7-1.5 1.6s.7 1.6 1.6 1.6c.9 0 1.6-.7 1.6-1.6-.1-.9-.8-1.6-1.7-1.6zM574.7 118.4c-1.6 0-2.9-1.3-2.9-2.9 0-1.6 1.2-3 2.9-3 1 0 1.7.4 2.2.9l-.4.5c-.5-.5-1-.8-1.8-.8-1.3 0-2.2 1-2.2 2.4 0 1.3 1 2.4 2.2 2.4.8 0 1.3-.3 1.8-.8l.4.4c-.5.5-1.2.9-2.2.9zM580 118.4c-.4.9-.8 1.2-1.4 1.2-.4 0-.6-.1-.9-.2l.2-.5c.2.1.4.2.7.2.4 0 .6-.2.9-.8l-1.9-4.2h.7l1.5 3.5 1.4-3.5h.7l-1.9 4.3zM584.4 118.4c-1.2 0-2.2-1-2.2-2.2 0-1.2.9-2.2 2.2-2.2.8 0 1.3.3 1.7.8l-.4.4c-.3-.4-.7-.6-1.3-.6-.9 0-1.5.7-1.5 1.6 0 .9.7 1.6 1.6 1.6.5 0 1-.3 1.3-.6l.4.4c-.5.4-1 .8-1.8.8zM587.2 118.3v-6h.6v6h-.6zM589.3 113.1v-.7h.7v.7h-.7zm0 5.2v-4.2h.6v4.2h-.6zM592.1 118.3h-.6v-4.2h.6v.7c.3-.5.7-.8 1.4-.8 1 0 1.6.7 1.6 1.7v2.6h-.6v-2.5c0-.8-.4-1.3-1.2-1.3-.7 0-1.3.5-1.3 1.3v2.5zM598.3 119.6c-.7 0-1.4-.2-1.9-.6l.3-.5c.5.4 1 .5 1.6.5.9 0 1.5-.5 1.5-1.5v-.5c-.4.5-.9.9-1.7.9-1 0-2-.8-2-2s1-2 2-2c.8 0 1.3.4 1.6.8v-.8h.6v3.5c.2 1.5-.7 2.2-2 2.2zm0-5.1c-.8 0-1.5.5-1.5 1.4 0 .9.7 1.4 1.5 1.4s1.6-.6 1.6-1.4c0-.8-.8-1.4-1.6-1.4zM576 136.9l-1.7-2.2h-1.6v2.2h-.6v-5.7h2.5c1.3 0 2.1.7 2.1 1.7s-.7 1.5-1.6 1.7l1.8 2.3h-.9zm-1.5-5.1h-1.8v2.3h1.8c.9 0 1.5-.4 1.5-1.2-.1-.6-.6-1.1-1.5-1.1zM580.9 132.7h.6v4.2h-.6v-.7c-.3.5-.7.8-1.4.8-1 0-1.6-.7-1.6-1.7v-2.6h.6v2.5c0 .8.4 1.3 1.2 1.3.7 0 1.3-.5 1.3-1.3v-2.5zM583.5 136.9h-.6v-4.2h.6v.7c.3-.5.7-.8 1.4-.8 1 0 1.6.7 1.6 1.7v2.6h-.6v-2.5c0-.8-.4-1.3-1.2-1.3-.7 0-1.3.5-1.3 1.3v2.5zM588.5 136.9h-.6v-4.2h.6v.7c.3-.5.7-.8 1.4-.8 1 0 1.6.7 1.6 1.7v2.6h-.5v-2.5c0-.8-.4-1.3-1.2-1.3-.7 0-1.3.5-1.3 1.3v2.5zM593 131.8v-.7h.7v.7h-.7zm0 5.1v-4.2h.6v4.2h-.6zM595.7 136.9h-.6v-4.2h.6v.7c.3-.5.7-.8 1.4-.8 1 0 1.6.7 1.6 1.7v2.6h-.6v-2.5c0-.8-.4-1.3-1.2-1.3-.7 0-1.3.5-1.3 1.3v2.5zM602 138.3c-.7 0-1.4-.2-1.9-.6l.3-.5c.5.4 1 .5 1.6.5.9 0 1.5-.5 1.5-1.5v-.5c-.4.5-.9.9-1.7.9-1 0-2-.8-2-2s1-2 2-2c.8 0 1.3.4 1.6.8v-.8h.6v3.5c.1 1.5-.7 2.2-2 2.2zm0-5.1c-.8 0-1.5.5-1.5 1.4 0 .9.7 1.4 1.5 1.4s1.6-.6 1.6-1.4c-.1-.8-.8-1.4-1.6-1.4zM574.1 152.4c1.3.3 1.9.7 1.9 1.6 0 1-.8 1.6-2 1.6-.9 0-1.6-.3-2.3-.9l.4-.5c.6.5 1.2.8 2 .8s1.3-.4 1.3-1c0-.5-.3-.8-1.5-1.1-1.3-.3-1.9-.7-1.9-1.7 0-.9.8-1.6 1.9-1.6.8 0 1.4.2 2 .7l-.4.5c-.5-.4-1.1-.6-1.6-.6-.7 0-1.2.4-1.2.9-.1.8.2 1.1 1.4 1.3zM581.3 154.8l1.1-3.4h.7l-1.5 4.3h-.5l-1.1-3.3-1.1 3.3h-.6l-1.5-4.3h.7l1.1 3.4 1.1-3.4h.5l1.1 3.4zM584.1 150.5v-.7h.7v.7h-.7zm.1 5.1v-4.2h.6v4.2h-.6zM591.1 151.3c1 0 1.6.7 1.6 1.7v2.6h-.7v-2.5c0-.8-.4-1.3-1.1-1.3-.6 0-1.2.5-1.2 1.3v2.4h-.6V153c0-.8-.4-1.3-1.1-1.3-.7 0-1.2.6-1.2 1.3v2.4h-.6v-4.2h.6v.7c.3-.4.7-.8 1.4-.8s1.1.4 1.4.8c.3-.2.8-.6 1.5-.6zM598.9 151.3c1 0 1.6.7 1.6 1.7v2.6h-.6v-2.5c0-.8-.4-1.3-1.1-1.3-.6 0-1.2.5-1.2 1.3v2.4h-.6V153c0-.8-.4-1.3-1.1-1.3-.7 0-1.2.6-1.2 1.3v2.4h-.7v-4.2h.6v.7c.3-.4.7-.8 1.4-.8s1.1.4 1.4.8c.3-.2.7-.6 1.5-.6zM601.8 150.5v-.7h.7v.7h-.7zm0 5.1v-4.2h.6v4.2h-.6zM604.6 155.6h-.6v-4.2h.6v.7c.3-.5.7-.8 1.4-.8 1 0 1.6.7 1.6 1.7v2.6h-.6v-2.5c0-.8-.4-1.3-1.2-1.3-.7 0-1.3.5-1.3 1.3v2.5zM610.8 156.9c-.7 0-1.4-.2-1.9-.6l.3-.5c.5.4 1 .5 1.6.5.9 0 1.5-.5 1.5-1.5v-.5c-.4.5-.9.9-1.7.9-1 0-2-.8-2-2s1-2 2-2c.8 0 1.3.4 1.6.8v-.8h.6v3.5c.2 1.5-.7 2.2-2 2.2zm0-5.1c-.8 0-1.5.5-1.5 1.4 0 .9.7 1.4 1.5 1.4s1.6-.6 1.6-1.4c0-.8-.8-1.4-1.6-1.4zM574.1 171.1c1.3.3 1.9.7 1.9 1.6 0 1-.8 1.6-2 1.6-.9 0-1.6-.3-2.3-.9l.4-.5c.6.5 1.2.8 2 .8s1.3-.4 1.3-1c0-.5-.3-.8-1.5-1.1-1.3-.3-1.9-.7-1.9-1.7 0-.9.8-1.6 1.9-1.6.8 0 1.4.2 2 .7l-.4.5c-.5-.4-1.1-.6-1.6-.6-.7 0-1.2.4-1.2.9-.1.7.2 1 1.4 1.3zM578 173.1c0 .5.3.7.7.7.2 0 .4 0 .6-.1v.5c-.2.1-.5.2-.8.2-.7 0-1.2-.3-1.2-1.2v-2.5h-.6v-.7h.6v-1.3h.6v1.3h1.3v.6H578v2.5zM581.1 174.3h-.6V170h.6v1.1c.3-.7.9-1.2 1.7-1.2v.7c-.9 0-1.7.7-1.7 1.9v1.8zM585.4 173.8c.6 0 1-.2 1.3-.6l.4.4c-.4.5-.9.8-1.7.8-1.2 0-2.1-.9-2.1-2.2 0-1.2.9-2.2 2-2.2 1.2 0 2 1 2 2.2v.2H584c0 .9.7 1.4 1.4 1.4zm1.3-1.9c-.1-.8-.5-1.4-1.3-1.4-.7 0-1.3.6-1.4 1.4h2.7zM589 174.3h-.6V170h.6v.7c.3-.5.7-.8 1.4-.8 1 0 1.6.7 1.6 1.7v2.6h-.6v-2.5c0-.8-.4-1.3-1.2-1.3-.7 0-1.3.5-1.3 1.3v2.6zM595.3 175.6c-.7 0-1.4-.2-1.9-.6l.3-.5c.5.4 1 .5 1.6.5.9 0 1.5-.5 1.5-1.5v-.5c-.4.5-.9.9-1.7.9-1 0-2-.8-2-2s1-2 2-2c.8 0 1.3.4 1.6.8v-.7h.6v3.5c.1 1.4-.7 2.1-2 2.1zm0-5.1c-.8 0-1.5.5-1.5 1.4 0 .9.7 1.4 1.5 1.4s1.6-.6 1.6-1.4c-.1-.8-.8-1.4-1.6-1.4zM599.7 173.1c0 .5.3.7.7.7.2 0 .4 0 .6-.1v.5c-.2.1-.5.2-.8.2-.7 0-1.2-.3-1.2-1.2v-2.5h-.6v-.7h.6v-1.3h.6v1.3h1.3v.6h-1.3v2.5zM602.8 174.3h-.6v-6h.6v2.5c.3-.5.7-.8 1.4-.8 1 0 1.6.7 1.6 1.7v2.6h-.6v-2.5c0-.8-.4-1.3-1.2-1.3-.7 0-1.3.5-1.3 1.3v2.5zM575.5 187.2h.5l1.6 4.8 1.6-4.8h.7l-2 5.8h-.5l-1.6-4.6-1.6 4.6h-.5l-2-5.8h.7l1.6 4.8 1.5-4.8zM582.3 192.5c.6 0 1-.2 1.3-.6l.4.4c-.4.5-.9.8-1.7.8-1.2 0-2.1-.9-2.1-2.2 0-1.2.9-2.2 2-2.2 1.2 0 2 1 2 2.2v.2h-3.3c0 .9.7 1.4 1.4 1.4zm1.3-1.9c-.1-.8-.5-1.4-1.3-1.4-.7 0-1.3.6-1.4 1.4h2.7zM585.3 187.8v-.7h.7v.7h-.7zm0 5.1v-4.2h.6v4.2h-.6zM589.3 194.2c-.7 0-1.4-.2-1.9-.6l.3-.5c.5.4 1 .5 1.6.5.9 0 1.5-.5 1.5-1.5v-.5c-.4.5-.9.9-1.7.9-1 0-2-.8-2-2s1-2 2-2c.8 0 1.3.4 1.6.8v-.8h.6v3.5c.2 1.5-.7 2.2-2 2.2zm0-5c-.8 0-1.5.5-1.5 1.4 0 .9.7 1.4 1.5 1.4s1.6-.6 1.6-1.4c-.1-.9-.8-1.4-1.6-1.4zM593.5 192.9h-.6v-6h.6v2.5c.3-.5.7-.8 1.4-.8 1 0 1.6.7 1.6 1.7v2.6h-.6v-2.5c0-.8-.4-1.3-1.2-1.3-.7 0-1.3.5-1.3 1.3v2.5zM598.7 191.7c0 .5.3.7.7.7.2 0 .4 0 .6-.1v.5c-.2.1-.5.2-.8.2-.7 0-1.2-.3-1.2-1.2v-2.5h-.6v-.6h.6v-1.3h.6v1.3h1.3v.6h-1.3v2.4zM601.2 192.9v-6h.6v6h-.6zM603.3 187.8v-.7h.7v.7h-.7zm.1 5.1v-4.2h.6v4.2h-.6zM607.7 188.7v.5h-1.3v3.7h-.6v-3.7h-.6v-.5h.6v-.4c0-.9.5-1.4 1.3-1.4.3 0 .5 0 .7.1v.5c-.2-.1-.4-.1-.6-.1-.5 0-.7.3-.7.9v.3h1.2zM609.3 191.7c0 .5.3.7.7.7.2 0 .4 0 .6-.1v.5c-.2.1-.5.2-.8.2-.7 0-1.2-.3-1.2-1.2v-2.5h-.6v-.6h.6v-1.3h.6v1.3h1.3v.6h-1.3v2.4zM611.8 187.8v-.7h.7v.7h-.7zm0 5.1v-4.2h.6v4.2h-.6zM614.5 192.9h-.6v-4.2h.6v.7c.3-.5.7-.8 1.4-.8 1 0 1.6.7 1.6 1.7v2.6h-.5v-2.5c0-.8-.4-1.3-1.2-1.3-.7 0-1.3.5-1.3 1.3v2.5zM620.8 194.2c-.7 0-1.4-.2-1.9-.6l.3-.5c.5.4 1 .5 1.6.5.9 0 1.5-.5 1.5-1.5v-.5c-.4.5-.9.9-1.7.9-1 0-2-.8-2-2s1-2 2-2c.8 0 1.3.4 1.6.8v-.8h.6v3.5c.1 1.5-.7 2.2-2 2.2zm0-5c-.8 0-1.5.5-1.5 1.4 0 .9.7 1.4 1.5 1.4s1.6-.6 1.6-1.4c-.1-.9-.8-1.4-1.6-1.4zM574.5 211.6h-.7v-2.3l-2.4-3.5h.8l1.9 2.9 1.9-2.9h.8l-2.4 3.4v2.4zM578.8 211.7c-1.3 0-2.2-1-2.2-2.2 0-1.2.9-2.2 2.2-2.2 1.3 0 2.2 1 2.2 2.2s-.9 2.2-2.2 2.2zm0-3.9c-.9 0-1.5.7-1.5 1.6s.7 1.6 1.6 1.6c.9 0 1.6-.7 1.6-1.6-.1-.8-.8-1.6-1.7-1.6zM584 212.9c-.7 0-1.4-.2-1.9-.6l.3-.5c.5.4 1 .5 1.6.5.9 0 1.5-.5 1.5-1.5v-.5c-.4.5-.9.9-1.7.9-1 0-2-.8-2-2s1-2 2-2c.8 0 1.3.4 1.6.8v-.8h.6v3.5c.2 1.5-.7 2.2-2 2.2zm0-5.1c-.8 0-1.5.5-1.5 1.4 0 .9.7 1.4 1.5 1.4s1.6-.6 1.6-1.4c0-.8-.8-1.4-1.6-1.4zM587.8 208.2l-.2-.5c.5-.2.9-.4 1.5-.4 1.2 0 1.8.6 1.8 1.7v2.6h-.6v-.6c-.3.4-.8.7-1.5.7-.8 0-1.6-.4-1.6-1.3s.7-1.4 1.8-1.4c.5 0 .9.1 1.3.2v-.2c0-.8-.5-1.2-1.3-1.2-.4.1-.8.2-1.2.4zm.1 2.1c0 .5.5.8 1.1.8.8 0 1.4-.5 1.4-1.1v-.4c-.3-.1-.7-.2-1.2-.2-.8 0-1.3.4-1.3.9zM576.3 224.5h.6v5.7h-.5l-3.7-4.7v4.7h-.6v-5.7h.6l3.6 4.6v-4.6zM581.4 226h.6v4.2h-.6v-.7c-.3.5-.7.8-1.4.8-1 0-1.6-.7-1.6-1.7V226h.6v2.5c0 .8.4 1.3 1.2 1.3.7 0 1.3-.5 1.3-1.3V226zM584.3 229c0 .5.3.7.7.7.2 0 .4 0 .6-.1v.5c-.2.1-.5.2-.8.2-.7 0-1.2-.3-1.2-1.2v-2.5h-.6v-.6h.6v-1.3h.6v1.3h1.3v.6h-1.3v2.4zM587.4 230.2h-.6V226h.6v1.1c.3-.7.9-1.2 1.7-1.2v.7c-.9 0-1.7.7-1.7 1.9v1.7zM590 225.1v-.7h.7v.7h-.7zm.1 5.1V226h.6v4.2h-.6zM593 229c0 .5.3.7.7.7.2 0 .4 0 .6-.1v.5c-.2.1-.5.2-.8.2-.7 0-1.2-.3-1.2-1.2v-2.5h-.6v-.6h.6v-1.3h.6v1.3h1.3v.6H593v2.4zM595.5 225.1v-.7h.7v.7h-.7zm0 5.1V226h.6v4.2h-.6zM599.5 230.3c-1.3 0-2.2-1-2.2-2.2 0-1.2.9-2.2 2.2-2.2 1.3 0 2.2 1 2.2 2.2s-.9 2.2-2.2 2.2zm0-3.8c-.9 0-1.5.7-1.5 1.6s.7 1.6 1.6 1.6c.9 0 1.6-.7 1.6-1.6-.1-.9-.8-1.6-1.7-1.6zM603.5 230.2h-.6V226h.6v.7c.3-.5.7-.8 1.4-.8 1 0 1.6.7 1.6 1.7v2.6h-.6v-2.5c0-.8-.4-1.3-1.2-1.3-.7 0-1.3.5-1.3 1.3v2.5zM574.1 245.7c1.3.3 1.9.7 1.9 1.6 0 1-.8 1.6-2 1.6-.9 0-1.6-.3-2.3-.9l.4-.5c.6.5 1.2.8 2 .8s1.3-.4 1.3-1c0-.5-.3-.8-1.5-1.1-1.3-.3-1.9-.7-1.9-1.7 0-.9.8-1.6 1.9-1.6.8 0 1.4.2 2 .7l-.4.5c-.5-.4-1.1-.6-1.6-.6-.7 0-1.2.4-1.2.9-.1.8.2 1.1 1.4 1.3zM578 247.7c0 .5.3.7.7.7.2 0 .4 0 .6-.1v.5c-.2.1-.5.2-.8.2-.7 0-1.2-.3-1.2-1.2v-2.5h-.6v-.6h.6v-1.3h.6v1.3h1.3v.6H578v2.4zM581.1 248.9h-.6v-4.2h.6v1.1c.3-.7.9-1.2 1.7-1.2v.7c-.9 0-1.7.7-1.7 1.9v1.7zM585.4 248.4c.6 0 1-.2 1.3-.6l.4.4c-.4.5-.9.8-1.7.8-1.2 0-2.1-.9-2.1-2.2 0-1.2.9-2.2 2-2.2 1.2 0 2 1 2 2.2v.2H584c0 .9.7 1.4 1.4 1.4zm1.3-1.9c-.1-.8-.5-1.4-1.3-1.4-.7 0-1.3.6-1.4 1.4h2.7zM589.8 249c-.6 0-1.3-.2-1.7-.6l.3-.4c.5.3 1 .5 1.5.5s.9-.3.9-.7c0-.4-.5-.6-1.1-.7-.7-.2-1.4-.4-1.4-1.2 0-.7.6-1.2 1.4-1.2.5 0 1.1.2 1.5.5l-.3.5c-.4-.3-.8-.4-1.2-.4-.5 0-.8.3-.8.6 0 .4.5.6 1.1.7.7.2 1.4.4 1.4 1.2-.1.7-.8 1.2-1.6 1.2zM593.8 249c-.6 0-1.3-.2-1.7-.6l.3-.4c.5.3 1 .5 1.5.5s.9-.3.9-.7c0-.4-.5-.6-1.1-.7-.7-.2-1.4-.4-1.4-1.2 0-.7.6-1.2 1.4-1.2.5 0 1.1.2 1.5.5l-.3.5c-.4-.3-.8-.4-1.2-.4-.5 0-.8.3-.8.6 0 .4.5.6 1.1.7.7.2 1.4.4 1.4 1.2-.1.7-.8 1.2-1.6 1.2zM574.1 264.4c1.3.3 1.9.7 1.9 1.6 0 1-.8 1.6-2 1.6-.9 0-1.6-.3-2.3-.9l.4-.5c.6.5 1.2.8 2 .8s1.3-.4 1.3-1c0-.5-.3-.8-1.5-1.1-1.3-.3-1.9-.7-1.9-1.7 0-.9.8-1.6 1.9-1.6.8 0 1.4.2 2 .7l-.4.5c-.5-.4-1.1-.6-1.6-.6-.7 0-1.2.4-1.2.9-.1.7.2 1 1.4 1.3zM577.2 267.5v-6h.6v6h-.6zM581.2 267.1c.6 0 1-.2 1.3-.6l.4.4c-.4.5-.9.8-1.7.8-1.2 0-2.1-.9-2.1-2.2 0-1.2.9-2.2 2-2.2 1.2 0 2 1 2 2.2v.2h-3.3c0 .9.6 1.4 1.4 1.4zm1.2-1.9c-.1-.8-.5-1.4-1.3-1.4-.7 0-1.3.6-1.4 1.4h2.7zM586 267.1c.6 0 1-.2 1.3-.6l.4.4c-.4.5-.9.8-1.7.8-1.2 0-2.1-.9-2.1-2.2 0-1.2.9-2.2 2-2.2 1.2 0 2 1 2 2.2v.2h-3.3c0 .9.7 1.4 1.4 1.4zm1.3-1.9c-.1-.8-.5-1.4-1.3-1.4-.7 0-1.3.6-1.4 1.4h2.7zM591.2 267.6c-.8 0-1.3-.4-1.6-.9v2.1h-.6v-5.5h.6v.8c.3-.5.8-.9 1.6-.9 1 0 2 .8 2 2.2 0 1.4-.9 2.2-2 2.2zm-.1-3.8c-.8 0-1.5.7-1.5 1.6 0 1 .7 1.6 1.5 1.6s1.5-.6 1.5-1.6-.7-1.6-1.5-1.6zM575.5 280.5h.5l1.6 4.8 1.6-4.8h.7l-2 5.8h-.5l-1.6-4.6-1.6 4.6h-.5l-2-5.8h.7l1.6 4.8 1.5-4.8zM582.3 285.8c.6 0 1-.2 1.3-.6l.4.4c-.4.5-.9.8-1.7.8-1.2 0-2.1-.9-2.1-2.2 0-1.2.9-2.2 2-2.2 1.2 0 2 1 2 2.2v.2h-3.3c0 .8.7 1.4 1.4 1.4zm1.3-1.9c-.1-.8-.5-1.4-1.3-1.4-.7 0-1.3.6-1.4 1.4h2.7zM585.3 281.1v-.7h.7v.7h-.7zm0 5.1V282h.6v4.2h-.6zM589.3 287.5c-.7 0-1.4-.2-1.9-.6l.3-.5c.5.4 1 .5 1.6.5.9 0 1.5-.5 1.5-1.5v-.4c-.4.5-.9.9-1.7.9-1 0-2-.8-2-2s1-2 2-2c.8 0 1.3.4 1.6.8v-.7h.6v3.5c.2 1.3-.7 2-2 2zm0-5.1c-.8 0-1.5.5-1.5 1.4 0 .9.7 1.4 1.5 1.4s1.6-.6 1.6-1.4c-.1-.8-.8-1.4-1.6-1.4zM593.5 286.2h-.6v-6h.6v2.5c.3-.5.7-.8 1.4-.8 1 0 1.6.7 1.6 1.7v2.6h-.6v-2.5c0-.8-.4-1.3-1.2-1.3-.7 0-1.3.5-1.3 1.3v2.5zM598.7 285c0 .5.3.7.7.7.2 0 .4 0 .6-.1v.5c-.2.1-.5.2-.8.2-.7 0-1.2-.3-1.2-1.2v-2.5h-.6v-.6h.6v-1.3h.6v1.3h1.3v.6h-1.3v2.4zM601.2 286.2v-6h.6v6h-.6zM605.2 286.3c-1.3 0-2.2-1-2.2-2.2 0-1.2.9-2.2 2.2-2.2 1.3 0 2.2 1 2.2 2.2s-.9 2.2-2.2 2.2zm0-3.9c-.9 0-1.5.7-1.5 1.6s.7 1.6 1.6 1.6c.9 0 1.6-.7 1.6-1.6-.1-.8-.8-1.6-1.7-1.6zM610 286.3c-.6 0-1.3-.2-1.7-.6l.3-.4c.5.3 1 .5 1.5.5s.9-.3.9-.7c0-.4-.5-.6-1.1-.7-.7-.2-1.4-.4-1.4-1.2 0-.7.6-1.2 1.4-1.2.5 0 1.1.2 1.5.5l-.3.5c-.4-.3-.8-.4-1.2-.4-.5 0-.8.3-.8.6 0 .4.5.6 1.1.7.7.2 1.4.4 1.4 1.2-.1.7-.8 1.2-1.6 1.2zM614 286.3c-.6 0-1.3-.2-1.7-.6l.3-.4c.5.3 1 .5 1.5.5s.9-.3.9-.7c0-.4-.5-.6-1.1-.7-.7-.2-1.4-.4-1.4-1.2 0-.7.6-1.2 1.4-1.2.5 0 1.1.2 1.5.5l-.3.5c-.4-.3-.8-.4-1.2-.4-.5 0-.8.3-.8.6 0 .4.5.6 1.1.7.7.2 1.4.4 1.4 1.2-.1.7-.8 1.2-1.6 1.2z"/><g><g fill="#8795A2"><path d="M28.7 78.7c-.8 0-1.4-.4-1.8-.9l.6-.7c.3.4.6.6 1.1.6.5 0 .9-.3.9-1.1V73h1v3.6c.1 1.5-.7 2.1-1.8 2.1zM37.7 78.6h-1l-.6-1.3h-2.6l-.5 1.3h-1l2.4-5.5h.9l2.4 5.5zm-2.8-4.4l-.9 2.2h1.9l-1-2.2zM43.3 73.1h1v5.5h-.8l-3-3.9v3.9h-1v-5.5h.9l2.9 3.8v-3.8zM50.6 73.1h.7v5.5h-1V74l-1 .3-.2-.8 1.5-.4zM57 73.1v3.5h.8v.8H57v1.2h-1v-1.2h-2.8l-.2-.7 3.1-3.6h.9zm-1 1.3l-1.8 2.2H56v-2.2z"/></g></g><g><g fill="#8795A2"><path d="M489.2 78.7c-.8 0-1.4-.4-1.8-.9l.6-.7c.3.4.6.6 1.1.6.5 0 .9-.3.9-1.1V73h1v3.6c.1 1.5-.7 2.1-1.8 2.1zM498.3 78.6h-1l-.6-1.3h-2.6l-.6 1.3h-1l2.4-5.5h.9l2.5 5.5zm-2.9-4.4l-.9 2.2h1.9l-1-2.2zM503.8 73.1h1v5.5h-.8l-3-3.9v3.9h-1v-5.5h.9l2.9 3.8v-3.8zM511.1 73.1h.7v5.5h-1V74l-1 .3-.2-.8 1.5-.4zM514.2 73.1h3.3v.9H515l-.1 1.3c.3-.1.5-.2.9-.2 1.1 0 1.9.6 1.9 1.7s-.8 1.9-2 1.9c-.8 0-1.5-.3-2-.8l.6-.7c.4.4.9.7 1.4.7.7 0 1.1-.4 1.1-1s-.5-.9-1.1-.9c-.4 0-.7.1-1 .2l-.6-.4.1-2.7z"/></g></g><g><g fill="#8795A2"><path d="M93.2 77.3l-1.8-2.6v3.9h-1v-5.5h1l1.7 2.6 1.7-2.6h1v5.5h-1v-3.9l-1.6 2.6zM103.4 78.6h-1l-.6-1.3h-2.6l-.6 1.3h-1l2.4-5.5h.9l2.5 5.5zm-2.9-4.4l-.9 2.2h1.9l-1-2.2zM108.6 78.6l-1.4-1.9H106v1.9h-1v-5.5h2.5c1.3 0 2 .7 2 1.7 0 .9-.5 1.5-1.3 1.7l1.5 2.1h-1.1zm-1.1-4.6h-1.4v1.8h1.4c.7 0 1.1-.4 1.1-.9 0-.6-.4-.9-1.1-.9z"/></g></g><g><g fill="#8795A2"><path d="M225 77.3l-1.8-2.6v3.9h-1v-5.5h1l1.7 2.6 1.7-2.6h1v5.5h-1v-3.9l-1.6 2.6zM235.1 78.6h-1l-.6-1.3H231l-.6 1.3h-1l2.4-5.5h.9l2.4 5.5zm-2.8-4.4l-.9 2.2h1.9l-1-2.2zM238.6 78.6h-1v-2.2l-2.2-3.3h1.1l1.5 2.4 1.6-2.4h1.1l-2.2 3.3v2.2z"/></g></g><g><g fill="#8795A2"><path d="M292.8 78.7c-.8 0-1.4-.4-1.8-.9l.6-.7c.3.4.6.6 1.1.6.5 0 .9-.3.9-1.1V73h1v3.6c0 1.5-.7 2.1-1.8 2.1zM301.4 76.2c0 1.6-.9 2.5-2.4 2.5-1.4 0-2.3-.8-2.3-2.4v-3.2h1v3.1c0 1 .5 1.6 1.4 1.6.9 0 1.4-.5 1.4-1.5v-3.2h1v3.1zM303.5 73.1h1v4.6h2.9v.9h-3.9v-5.5z"/></g></g><g><g fill="#8795A2"><path d="M359.6 75.4c1.2.3 1.8.7 1.8 1.6 0 1-.8 1.6-2 1.6-.8 0-1.6-.3-2.3-.9l.6-.7c.5.5 1.1.7 1.7.7.6 0 1-.3 1-.7 0-.4-.2-.6-1.2-.8-1.2-.3-1.8-.6-1.8-1.7 0-1 .8-1.6 1.9-1.6.8 0 1.4.2 2 .7l-.5.7c-.5-.4-1-.6-1.5-.6-.6 0-.9.3-.9.7-.1.6.1.8 1.2 1zM367.3 74h-3.1v1.4h2.8v.9h-2.8v1.5h3.2v.9h-4.1v-5.5h4.1v.8zM371.4 76.8h-1.1v1.8h-1v-5.5h2.2c1.3 0 2.1.7 2.1 1.8 0 1.3-1 1.9-2.2 1.9zm0-2.8h-1.1v2h1.1c.7 0 1.2-.4 1.2-1 0-.7-.5-1-1.2-1z"/></g></g><g><g fill="#8795A2"><path d="M431.5 73.1h1v5.5h-.8l-3-3.9v3.9h-1v-5.5h.9l2.9 3.8v-3.8zM437.2 78.7c-1.7 0-2.9-1.3-2.9-2.8 0-1.6 1.2-2.9 2.9-2.9s2.9 1.3 2.9 2.8c0 1.6-1.2 2.9-2.9 2.9zm0-4.8c-1.1 0-1.9.9-1.9 1.9 0 1.1.8 2 1.9 2 1.1 0 1.9-.9 1.9-1.9 0-1.1-.8-2-1.9-2zM445.7 73.1h1l-2.3 5.5h-.8l-2.3-5.5h1.1l1.7 4.2 1.6-4.2z"/></g></g><g><g fill="#8795A2"><path d="M159.8 78.6h-1l-.6-1.3h-2.6l-.6 1.3h-1l2.4-5.5h.9l2.5 5.5zm-2.9-4.4l-.9 2.2h1.9l-1-2.2zM163.5 76.8h-1.1v1.8h-1v-5.5h2.2c1.3 0 2.1.7 2.1 1.8 0 1.3-.9 1.9-2.2 1.9zm.1-2.8h-1.1v2h1.1c.7 0 1.2-.4 1.2-1 0-.7-.5-1-1.2-1zM171 78.6l-1.4-1.9h-1.2v1.9h-1v-5.5h2.5c1.3 0 2 .7 2 1.7 0 .9-.5 1.5-1.3 1.7l1.5 2.1H171zm-1.1-4.6h-1.4v1.8h1.4c.7 0 1.1-.4 1.1-.9 0-.6-.4-.9-1.1-.9z"/></g></g><path fill="none" stroke="#BDCCD4" stroke-width=".853" stroke-miterlimit="10" d="M26.3 53.4h605.3"/><g><path clip-rule="evenodd" fill="none" d="M43.4 18.9h197.1v18.3H43.4z"/><path fill="#0277BD" d="M51.1 35.7c-3.7 0-6.4-2.9-6.4-6.6 0-3.7 2.7-6.7 6.5-6.7 2.3 0 3.7.8 5 2l-1 1.1c-1.1-1-2.3-1.8-4-1.8-2.8 0-5 2.3-5 5.3s2.1 5.3 5 5.3c1.8 0 2.9-.7 4.1-1.9l1 .9c-1.4 1.5-2.9 2.4-5.2 2.4zM60 35.5h-1.4V22.1H60v5.6c.6-1 1.6-1.9 3.2-1.9 2.3 0 3.6 1.5 3.6 3.8v5.9h-1.4V30c0-1.8-1-2.9-2.6-2.9s-2.8 1.2-2.8 3v5.4zM70.4 27.8l-.4-1.1c1-.5 2.1-.8 3.4-.8 2.6 0 4 1.3 4 3.8v5.8H76V34c-.7.9-1.8 1.6-3.4 1.6-1.8 0-3.5-1-3.5-3s1.6-3.1 4-3.1c1.2 0 2.1.2 2.9.4v-.3c0-1.7-1-2.6-2.8-2.6-1.1.1-1.9.4-2.8.8zm.1 4.9c0 1.2 1.1 1.9 2.4 1.9 1.7 0 3.2-1.1 3.2-2.6v-.9c-.7-.2-1.6-.4-2.8-.4-1.8 0-2.8.7-2.8 2zM80.6 35.5V22.1H82v13.4h-1.4zM85.4 35.5V22.1h1.4v13.4h-1.4zM94.3 34.5c1.3 0 2.2-.5 3-1.3l.9.8c-1 1.1-2.1 1.8-3.9 1.8-2.6 0-4.7-2-4.7-4.9 0-2.7 1.9-4.9 4.5-4.9 2.8 0 4.4 2.2 4.4 5v.4H91c.1 1.9 1.6 3.1 3.3 3.1zm2.7-4.3c-.1-1.7-1.1-3.2-3-3.2-1.6 0-2.9 1.4-3.1 3.2H97zM102.3 35.5h-1.4V26h1.4v1.6c.6-1 1.6-1.9 3.2-1.9 2.3 0 3.6 1.5 3.6 3.8v5.9h-1.4v-5.5c0-1.8-1-2.9-2.6-2.9s-2.8 1.2-2.8 3v5.5zM116.4 38.4c-1.6 0-3-.4-4.3-1.3l.6-1.1c1.1.8 2.3 1.2 3.6 1.2 2.1 0 3.4-1.2 3.4-3.4v-1.1c-.8 1.1-2 2-3.7 2-2.3 0-4.5-1.7-4.5-4.5s2.2-4.5 4.5-4.5c1.8 0 2.9.9 3.7 1.9V26h1.4v7.8c.1 3.1-1.8 4.6-4.7 4.6zm0-11.4c-1.8 0-3.3 1.2-3.3 3.2 0 1.9 1.5 3.2 3.3 3.2 1.8 0 3.5-1.3 3.5-3.2 0-1.9-1.7-3.2-3.5-3.2zM128.6 34.5c1.3 0 2.2-.5 3-1.3l.9.8c-1 1.1-2.1 1.8-3.9 1.8-2.6 0-4.7-2-4.7-4.9 0-2.7 1.9-4.9 4.5-4.9 2.8 0 4.4 2.2 4.4 5v.4h-7.5c.1 1.9 1.6 3.1 3.3 3.1zm2.7-4.3c-.1-1.7-1.1-3.2-3-3.2-1.6 0-2.9 1.4-3.1 3.2h6.1zM145.5 31h-3.1v4.5H141V22.7h4.8c2.9 0 4.8 1.5 4.8 4.1 0 2.7-2.3 4.2-5.1 4.2zm.2-7h-3.2v5.6h3.2c2.1 0 3.5-1.1 3.5-2.8-.1-1.9-1.5-2.8-3.5-2.8zM154.4 35.5H153V26h1.4v2.5c.7-1.6 2.1-2.7 3.9-2.6v1.5h-.1c-2.1 0-3.8 1.5-3.8 4.3v3.8zM164.2 34.5c1.3 0 2.2-.5 3-1.3l.9.8c-1 1.1-2.1 1.8-3.9 1.8-2.6 0-4.7-2-4.7-4.9 0-2.7 1.9-4.9 4.5-4.9 2.8 0 4.4 2.2 4.4 5v.4h-7.5c.1 1.9 1.6 3.1 3.3 3.1zm2.7-4.3c-.1-1.7-1.1-3.2-3-3.2-1.6 0-2.9 1.4-3.1 3.2h6.1zM175.8 26v1.2h-3v8.2h-1.4v-8.2h-1.3V26h1.3v-.8c0-2.1 1-3.2 2.9-3.2.7 0 1.1.1 1.6.2v1.2c-.5-.1-.9-.2-1.4-.2-1.1 0-1.6.7-1.6 2v.8h2.9zM181.6 34.5c1.3 0 2.2-.5 3-1.3l.9.8c-1 1.1-2.1 1.8-3.9 1.8-2.6 0-4.7-2-4.7-4.9 0-2.7 1.9-4.9 4.5-4.9 2.8 0 4.4 2.2 4.4 5v.4h-7.5c.1 1.9 1.6 3.1 3.3 3.1zm2.7-4.3c-.1-1.7-1.1-3.2-3-3.2-1.6 0-2.9 1.4-3.1 3.2h6.1zM189.6 35.5h-1.4V26h1.4v2.5c.7-1.6 2.1-2.7 3.9-2.6v1.5h-.1c-2.1 0-3.8 1.5-3.8 4.3v3.8zM199.4 34.5c1.3 0 2.2-.5 3-1.3l.9.8c-1 1.1-2.1 1.8-3.9 1.8-2.6 0-4.7-2-4.7-4.9 0-2.7 1.9-4.9 4.5-4.9 2.8 0 4.4 2.2 4.4 5v.4h-7.5c.2 1.9 1.7 3.1 3.3 3.1zm2.8-4.3c-.1-1.7-1.1-3.2-3-3.2-1.6 0-2.9 1.4-3.1 3.2h6.1zM207.5 35.5h-1.4V26h1.4v1.6c.6-1 1.6-1.9 3.2-1.9 2.3 0 3.6 1.5 3.6 3.8v5.9H213v-5.5c0-1.8-1-2.9-2.6-2.9s-2.8 1.2-2.8 3v5.5zM221.6 35.7c-2.8 0-4.9-2.3-4.9-4.9 0-2.7 2.1-5 4.9-5 1.8 0 2.9.8 3.8 1.7l-.9 1c-.8-.8-1.6-1.4-2.9-1.4-1.9 0-3.4 1.6-3.4 3.7s1.5 3.7 3.5 3.7c1.2 0 2.1-.6 2.9-1.4l.9.8c-.9 1-2.1 1.8-3.9 1.8zM231.7 34.5c1.3 0 2.2-.5 3-1.3l.9.8c-1 1.1-2.1 1.8-3.9 1.8-2.6 0-4.7-2-4.7-4.9 0-2.7 1.9-4.9 4.5-4.9 2.8 0 4.4 2.2 4.4 5v.4h-7.5c.2 1.9 1.7 3.1 3.3 3.1zm2.8-4.3c-.1-1.7-1.1-3.2-3-3.2-1.6 0-2.9 1.4-3.1 3.2h6.1z"/></g><path clip-rule="evenodd" fill="none" stroke="#ECECFB" stroke-width=".839" stroke-linecap="round" stroke-linejoin="round" stroke-miterlimit="10" d="M431 90.6v193.3M464.4 91v193.4M497.9 91v193.4M531.3 91v193.4M230.4 90.6v193.3M263.8 91v193.4M297.3 91v193.4M330.7 91v193.4M364.1 91v193.4M397.6 91v193.4M29 90.1v193.4M62.4 90.6v193.3M95.8 90.6v193.3M129.3 90.6v193.3M162.7 90.6v193.3M196.1 90.6v193.3"/><g><g fill="#8795A2"><path d="M32 112.3h-1.2v2h-1.1v-6.2h2.5c1.4 0 2.4.8 2.4 2.1-.1 1.4-1.3 2.1-2.6 2.1zm0-3.2h-1.3v2.2H32c.8 0 1.3-.5 1.3-1.1 0-.7-.5-1.1-1.3-1.1zM40.4 114.3l-1.5-2.2h-1.4v2.2h-1.1v-6.2h2.8c1.4 0 2.3.8 2.3 2 0 1-.6 1.7-1.5 1.9l1.7 2.4h-1.3zm-1.3-5.2h-1.6v2.1h1.6c.8 0 1.3-.4 1.3-1 0-.8-.4-1.1-1.3-1.1zM48.4 109.1h-3.5v1.6H48v1h-3.1v1.7h3.6v1h-4.7v-6.2h4.6v.9zM55.2 109.1h-3.5v1.7h3.1v1h-3.1v2.5h-1.1v-6.2h4.6v1zM61.9 109.1h-3.5v1.6h3.1v1h-3.1v1.7H62v1h-4.7v-6.2h4.6v.9zM68.1 114.3l-1.5-2.2h-1.4v2.2h-1.1v-6.2h2.8c1.4 0 2.3.8 2.3 2 0 1-.6 1.7-1.5 1.9l1.7 2.4h-1.3zm-1.3-5.2h-1.6v2.1h1.6c.8 0 1.3-.4 1.3-1 0-.8-.5-1.1-1.3-1.1zM73.9 110.7c1.3.3 2 .8 2 1.8 0 1.2-.9 1.9-2.2 1.9-1 0-1.8-.3-2.6-1l.7-.8c.6.5 1.2.8 2 .8.7 0 1.1-.3 1.1-.8s-.2-.7-1.4-1c-1.3-.3-2.1-.7-2.1-1.9 0-1.1.9-1.8 2.1-1.8.9 0 1.6.3 2.3.8l-.6.8c-.6-.4-1.1-.6-1.7-.6-.6 0-1 .3-1 .7-.1.6.2.8 1.4 1.1z"/></g></g><g><g fill="#8795A2"><path d="M32 265h-2.3v-6.2H32c2 0 3.3 1.3 3.3 3.1 0 1.7-1.4 3.1-3.3 3.1zm0-5.2h-1.2v4.2H32c1.3 0 2.2-.9 2.2-2.1s-.9-2.1-2.2-2.1zM40.4 265.1c-1.9 0-3.2-1.4-3.2-3.2 0-1.8 1.4-3.2 3.3-3.2s3.2 1.4 3.2 3.2c0 1.7-1.4 3.2-3.3 3.2zm0-5.4c-1.2 0-2.1 1-2.1 2.2s.9 2.2 2.1 2.2 2.1-1 2.1-2.2-.8-2.2-2.1-2.2zM50.5 259.7H47v1.6h3.1v1H47v1.7h3.6v1h-4.7v-6.2h4.6v.9zM55.1 261.4c1.3.3 2 .8 2 1.8 0 1.2-.9 1.9-2.2 1.9-1 0-1.8-.3-2.6-1l.7-.8c.6.5 1.2.8 2 .8.7 0 1.1-.3 1.1-.8s-.2-.7-1.4-1c-1.3-.3-2.1-.7-2.1-1.9 0-1.1.9-1.8 2.1-1.8.9 0 1.6.3 2.3.8l-.6.8c-.6-.4-1.1-.6-1.7-.6-.6 0-1 .3-1 .7 0 .6.3.8 1.4 1.1zM67.2 258.8h1.1v6.2h-.9l-3.4-4.4v4.4h-1.1v-6.2h1l3.3 4.3v-4.3zM73.7 265.1c-1.9 0-3.2-1.4-3.2-3.2 0-1.8 1.4-3.2 3.3-3.2s3.2 1.4 3.2 3.2c0 1.7-1.4 3.2-3.3 3.2zm0-5.4c-1.2 0-2.1 1-2.1 2.2s.9 2.2 2.1 2.2 2.1-1 2.1-2.2-.8-2.2-2.1-2.2zM81.5 265h-1.1v-5.2h-2v-1h5v1h-2v5.2zM91.4 263h-1.2v2h-1.1v-6.2h2.5c1.4 0 2.4.8 2.4 2.1-.1 1.4-1.2 2.1-2.6 2.1zm0-3.2h-1.3v2.2h1.3c.8 0 1.3-.5 1.3-1.1.1-.8-.5-1.1-1.3-1.1zM99.9 265l-1.5-2.2H97v2.2h-1.1v-6.2h2.8c1.4 0 2.3.8 2.3 2 0 1-.6 1.7-1.5 1.9l1.7 2.4h-1.3zm-1.3-5.2H97v2.1h1.6c.8 0 1.3-.4 1.3-1-.1-.8-.5-1.1-1.3-1.1zM107.8 259.7h-3.5v1.6h3.1v1h-3.1v1.7h3.6v1h-4.7v-6.2h4.6v.9zM114.6 259.8h-3.5v1.7h3.1v1h-3.1v2.5H110v-6.2h4.6v1zM121.3 259.7h-3.5v1.6h3.1v1h-3.1v1.7h3.6v1h-4.7v-6.2h4.6v.9zM127.6 265l-1.5-2.2h-1.4v2.2h-1.1v-6.2h2.8c1.4 0 2.3.8 2.3 2 0 1-.6 1.7-1.5 1.9l1.7 2.4h-1.3zm-1.3-5.2h-1.6v2.1h1.6c.8 0 1.3-.4 1.3-1-.1-.8-.5-1.1-1.3-1.1z"/></g></g><g opacity=".75"><path clip-rule="evenodd" fill="none" stroke="#CFD8DC" stroke-width="3.357" stroke-linecap="round" stroke-linejoin="round" stroke-miterlimit="10" d="M29.7 190.9h501.2"/></g><g><g fill="#8795A2"><path d="M264.2 33.1h-.8l-.8-1.7h-3.5l-.8 1.7h-.7l2.9-6.5h.7l3 6.5zm-3.3-5.6l-1.5 3.3h2.9l-1.4-3.3zM265.4 33.1v-6.7h.7v6.7h-.7zM267.8 33.1v-6.7h.7v6.7h-.7zM273.9 31.8c0 .6.3.8.8.8.2 0 .4 0 .7-.2v.6c-.2.1-.5.2-.9.2-.8 0-1.3-.4-1.3-1.3V29h-.7v-.6h.7V27h.7v1.4h1.5v.6h-1.5v2.8zM276.7 27.3v-.8h.8v.8h-.8zm0 5.8v-4.8h.7v4.8h-.7zM284.6 28.3c1.1 0 1.8.7 1.8 1.9v2.9h-.7v-2.8c0-.9-.5-1.4-1.2-1.4s-1.3.5-1.3 1.5v2.7h-.7v-2.8c0-.9-.5-1.4-1.2-1.4s-1.3.6-1.3 1.5v2.7h-.7v-4.8h.7v.8c.3-.5.7-.9 1.5-.9s1.3.4 1.5.9c.2-.4.7-.8 1.6-.8zM290 32.6c.7 0 1.1-.3 1.5-.7l.4.4c-.5.5-1.1.9-2 .9-1.3 0-2.4-1-2.4-2.5 0-1.4 1-2.5 2.3-2.5 1.4 0 2.2 1.1 2.2 2.5v.2h-3.8c.2 1.1.9 1.7 1.8 1.7zm1.4-2.1c-.1-.9-.6-1.6-1.5-1.6-.8 0-1.5.7-1.5 1.6h3z"/></g><path fill="none" stroke="#8795A2" stroke-width=".802" d="M312.3 28.5l-5 4-5-4"/></g><path clip-rule="evenodd" fill="none" stroke="#03A9F4" stroke-width=".839" stroke-linecap="round" stroke-linejoin="round" stroke-miterlimit="10" d="M30.4 217.3l51.9-35.5 51.9 34.9 77.7-54.4 77.8-26.1 54.4 78.5 49.4-62.4 134.6 71.1"/><path clip-rule="evenodd" fill="none" stroke="#FF2838" stroke-width=".839" stroke-linecap="round" stroke-linejoin="round" stroke-miterlimit="10" d="M30.4 214.7l51.9-45.4h51.9l77.7 45.4 77.8 17.5 51.9-62.9 51.9 45.4 138.8-45.4"/><path clip-rule="evenodd" fill="none" stroke="#8BC34A" stroke-width=".839" stroke-linecap="round" stroke-linejoin="round" stroke-miterlimit="10" d="M30.4 171.1l54 43.6 49-69.8 77.2 8.7 77.2 78.6 51.4-78.6 51.5 61.1 140.6-74.3"/><g fill-rule="evenodd" clip-rule="evenodd" fill="#90A4AE"><circle cx="29.8" cy="23.7" r="1.8"/><circle cx="29.8" cy="29.7" r="1.8"/><circle cx="29.8" cy="35.6" r="1.8"/></g></svg>