<svg xmlns="http://www.w3.org/2000/svg" width="654.6" height="315.4" viewBox="0 0 654.6 315.4"><path fill-rule="evenodd" clip-rule="evenodd" fill="#FFF" d="M0 3.5C0 1.6 1.6 0 3.5 0h647.7c1.9 0 3.5 1.6 3.5 3.5v305.9c0 1.9-1.6 3.5-3.5 3.5H3.5c-1.9 0-3.5-1.6-3.5-3.5V3.5z"/><path fill="none" stroke="#BDCCD4" stroke-width=".853" stroke-miterlimit="10" d="M26.3 53.4h605.3"/><path clip-rule="evenodd" fill="none" d="M43.4 19h259.7v19.4H43.4z"/><path fill="#0277BD" d="M49.8 31.1h-3.1v4.5h-1.4V22.8h4.8c2.9 0 4.8 1.5 4.8 4.1 0 2.8-2.3 4.2-5.1 4.2zm.2-6.9h-3.2v5.6H50c2.1 0 3.5-1.1 3.5-2.8-.1-1.9-1.5-2.8-3.5-2.8zM57.6 28l-.4-1.2c1-.5 2.1-.8 3.4-.8 2.6 0 4 1.3 4 3.8v5.8h-1.4v-1.4c-.7.9-1.8 1.6-3.4 1.6-1.8 0-3.5-1-3.5-3s1.6-3.1 4-3.1c1.2 0 2.1.2 2.9.4v-.3c0-1.7-1-2.6-2.8-2.6-1 .1-1.9.4-2.8.8zm.2 4.8c0 1.2 1.1 1.9 2.4 1.9 1.7 0 3.2-1.1 3.2-2.6v-.9c-.7-.2-1.6-.4-2.8-.4-1.8.1-2.8.8-2.8 2zM69.1 35.7h-1.4v-9.5h1.4v2.5c.7-1.6 2.1-2.7 3.9-2.6v1.5h-.1c-2.1 0-3.8 1.5-3.8 4.3v3.8zM77 33c0 1.2.6 1.6 1.6 1.6.5 0 .9-.1 1.4-.3v1.2c-.5.3-1 .4-1.7.4-1.5 0-2.7-.8-2.7-2.7v-5.7h-1.3v-1.2h1.3v-2.9H77v2.9h3v1.2h-3V33zM82.6 24.1v-1.6h1.6v1.6h-1.6zm0 11.6v-9.5H84v9.5h-1.4zM91.6 35.9c-2.8 0-4.9-2.3-4.9-4.9 0-2.7 2.1-5 4.9-5 1.8 0 2.9.8 3.8 1.7l-.9 1c-.8-.8-1.6-1.4-2.9-1.4-1.9 0-3.4 1.6-3.4 3.7s1.5 3.7 3.5 3.7c1.2 0 2.1-.6 2.9-1.4l.9.8c-1 1-2.1 1.8-3.9 1.8zM97.8 24.1v-1.6h1.6v1.6h-1.6zm.1 11.6v-9.5h1.4v9.5h-1.4zM107.7 35.9c-1.8 0-2.9-1-3.6-2v4.7h-1.4V26.2h1.4v1.9c.8-1.1 1.9-2.1 3.6-2.1 2.3 0 4.5 1.8 4.5 4.9 0 3.1-2.3 5-4.5 5zm-.3-8.7c-1.8 0-3.4 1.5-3.4 3.7s1.7 3.7 3.4 3.7c1.8 0 3.3-1.4 3.3-3.7 0-2.2-1.5-3.7-3.3-3.7zM115.3 28l-.4-1.2c1-.5 2.1-.8 3.4-.8 2.6 0 4 1.3 4 3.8v5.8H121v-1.4c-.7.9-1.8 1.6-3.4 1.6-1.8 0-3.5-1-3.5-3s1.6-3.1 4-3.1c1.2 0 2.1.2 2.9.4v-.3c0-1.7-1-2.6-2.8-2.6-1.1.1-2 .4-2.9.8zm.2 4.8c0 1.2 1.1 1.9 2.4 1.9 1.7 0 3.2-1.1 3.2-2.6v-.9c-.7-.2-1.6-.4-2.8-.4-1.8.1-2.8.8-2.8 2zM126.8 35.7h-1.4v-9.5h1.4v1.6c.6-1 1.6-1.9 3.2-1.9 2.3 0 3.6 1.5 3.6 3.8v5.9h-1.4v-5.5c0-1.8-1-2.9-2.6-2.9s-2.8 1.2-2.8 3v5.5zM138.6 33c0 1.2.6 1.6 1.6 1.6.5 0 .9-.1 1.4-.3v1.2c-.5.3-1 .4-1.7.4-1.5 0-2.7-.8-2.7-2.7v-5.7h-1.3v-1.2h1.3v-2.9h1.4v2.9h3v1.2h-3V33zM161.8 35.7h-1.6l-1.5-3.4h-7l-1.5 3.4h-1.5l5.8-12.9h1.4l5.9 12.9zm-6.6-11.3l-2.9 6.5h5.8l-2.9-6.5zM167.8 38.6c-1.6 0-3-.4-4.3-1.3l.6-1.1c1.1.8 2.3 1.2 3.6 1.2 2.1 0 3.4-1.2 3.4-3.4v-1.1c-.8 1.1-2 2-3.7 2-2.3 0-4.5-1.7-4.5-4.5s2.2-4.5 4.5-4.5c1.8 0 2.9.9 3.7 1.9v-1.7h1.4V34c.1 3.1-1.8 4.6-4.7 4.6zm0-11.4c-1.8 0-3.3 1.2-3.3 3.2 0 1.9 1.5 3.2 3.3 3.2 1.8 0 3.5-1.3 3.5-3.2 0-1.9-1.7-3.2-3.5-3.2zM179.9 34.6c1.3 0 2.2-.5 3-1.3l.9.8c-1 1.1-2.1 1.8-3.9 1.8-2.6 0-4.7-2-4.7-4.9 0-2.7 1.9-4.9 4.5-4.9 2.8 0 4.4 2.2 4.4 5v.4h-7.5c.2 2 1.7 3.1 3.3 3.1zm2.8-4.2c-.1-1.7-1.1-3.2-3-3.2-1.6 0-2.9 1.4-3.1 3.2h6.1zM196.8 35.7h-4.5V22.8h4.5c4 0 6.8 2.8 6.8 6.4 0 3.7-2.8 6.5-6.8 6.5zm0-11.5h-3v10.2h3c3.2 0 5.3-2.2 5.3-5.1 0-2.9-2.1-5.1-5.3-5.1zM206.5 24.1v-1.6h1.6v1.6h-1.6zm.1 11.6v-9.5h1.4v9.5h-1.4zM214.4 35.8c-1.4 0-2.9-.5-3.9-1.4l.7-1c1 .8 2.2 1.2 3.3 1.2 1.1 0 2-.6 2-1.5 0-1-1.1-1.3-2.4-1.7-1.5-.4-3.1-.9-3.1-2.7 0-1.6 1.4-2.7 3.2-2.7 1.2 0 2.4.4 3.4 1l-.6 1.1c-.9-.6-1.9-.9-2.8-.9-1.1 0-1.8.6-1.8 1.4 0 .9 1.2 1.2 2.4 1.6 1.5.4 3 1 3 2.7 0 1.9-1.5 2.9-3.4 2.9zM222.1 33c0 1.2.6 1.6 1.6 1.6.5 0 .9-.1 1.4-.3v1.2c-.5.3-1 .4-1.7.4-1.5 0-2.7-.8-2.7-2.7v-5.7h-1.3v-1.2h1.3v-2.9h1.4v2.9h3v1.2h-3V33zM229 35.7h-1.4v-9.5h1.4v2.5c.7-1.6 2.1-2.7 3.9-2.6v1.5h-.1c-2.1 0-3.8 1.5-3.8 4.3v3.8zM235.1 24.1v-1.6h1.6v1.6h-1.6zm.1 11.6v-9.5h1.4v9.5h-1.4zM244.9 35.9c-1.8 0-2.9-1-3.6-2v1.8h-1.4V22.3h1.4v5.8c.8-1.1 1.9-2.1 3.6-2.1 2.3 0 4.5 1.8 4.5 4.9 0 3.1-2.2 5-4.5 5zm-.3-8.7c-1.8 0-3.4 1.5-3.4 3.7s1.7 3.7 3.4 3.7c1.8 0 3.3-1.4 3.3-3.7.1-2.2-1.5-3.7-3.3-3.7zM258.7 26.2h1.4v9.5h-1.4V34c-.6 1-1.6 1.9-3.2 1.9-2.3 0-3.6-1.5-3.6-3.8v-5.9h1.4v5.5c0 1.8 1 2.9 2.6 2.9s2.8-1.2 2.8-3v-5.4zM265.2 33c0 1.2.6 1.6 1.6 1.6.5 0 .9-.1 1.4-.3v1.2c-.5.3-1 .4-1.7.4-1.5 0-2.7-.8-2.7-2.7v-5.7h-1.3v-1.2h1.3v-2.9h1.4v2.9h3v1.2h-3V33zM270.7 24.1v-1.6h1.6v1.6h-1.6zm.1 11.6v-9.5h1.4v9.5h-1.4zM279.9 35.9c-2.8 0-4.9-2.2-4.9-4.9s2.1-5 4.9-5c2.8 0 4.9 2.2 4.9 4.9s-2.1 5-4.9 5zm0-8.7c-2.1 0-3.5 1.6-3.5 3.7s1.5 3.7 3.5 3.7c2.1 0 3.5-1.6 3.5-3.7 0-2-1.5-3.7-3.5-3.7zM288.8 35.7h-1.4v-9.5h1.4v1.6c.6-1 1.6-1.9 3.2-1.9 2.3 0 3.6 1.5 3.6 3.8v5.9h-1.4v-5.5c0-1.8-1-2.9-2.6-2.9s-2.8 1.2-2.8 3v5.5z"/><g><g fill="#8795A2"><path d="M321.4 33.1h-.8l-.8-1.7h-3.5l-.8 1.7h-.7l2.9-6.5h.7l3 6.5zm-3.3-5.6l-1.5 3.3h2.9l-1.4-3.3zM322.6 33.1v-6.7h.7v6.7h-.7zM325.1 33.1v-6.7h.7v6.7h-.7zM331.1 31.8c0 .6.3.8.8.8.2 0 .4 0 .7-.2v.6c-.2.1-.5.2-.9.2-.8 0-1.3-.4-1.3-1.3V29h-.7v-.6h.7V27h.7v1.4h1.5v.6h-1.5v2.8zM333.9 27.3v-.8h.8v.8h-.8zm.1 5.8v-4.8h.7v4.8h-.7zM341.8 28.3c1.1 0 1.8.7 1.8 1.9v2.9h-.7v-2.8c0-.9-.5-1.4-1.2-1.4s-1.3.5-1.3 1.5v2.7h-.7v-2.8c0-.9-.5-1.4-1.2-1.4s-1.3.6-1.3 1.5v2.7h-.7v-4.8h.7v.8c.3-.5.7-.9 1.5-.9s1.3.4 1.5.9c.2-.4.8-.8 1.6-.8zM347.2 32.6c.7 0 1.1-.3 1.5-.7l.4.4c-.5.5-1.1.9-2 .9-1.3 0-2.4-1-2.4-2.5 0-1.4 1-2.5 2.3-2.5 1.4 0 2.2 1.1 2.2 2.5v.2h-3.8c.2 1.1 1 1.7 1.8 1.7zm1.4-2.1c-.1-.9-.6-1.6-1.5-1.6-.8 0-1.5.7-1.5 1.6h3z"/></g><path fill="none" stroke="#8795A2" stroke-width=".802" d="M369.5 28.5l-5 4-5-4"/></g><g fill-rule="evenodd" clip-rule="evenodd" fill="#90A4AE"><circle cx="29.8" cy="23.7" r="1.8"/><circle cx="29.8" cy="29.7" r="1.8"/><circle cx="29.8" cy="35.6" r="1.8"/></g><g><path opacity=".2" fill="#CFD8DC" d="M26.3 53.3h275.4v262.1H26.3z"/><path opacity=".2" fill="#8795A2" d="M26.3 136.4h275.4v48.7H26.3z"/><g fill="#8795A2"><path d="M44.5 71.6c1.1.3 1.7.7 1.7 1.6 0 1-.8 1.6-1.9 1.6-.8 0-1.6-.3-2.2-.8l.6-.7c.5.4 1 .7 1.7.7.6 0 .9-.3.9-.7 0-.4-.2-.6-1.2-.8-1.1-.3-1.8-.6-1.8-1.6 0-.9.8-1.5 1.8-1.5.8 0 1.4.2 1.9.7l-.5.7c-.5-.4-1-.5-1.4-.5-.5 0-.9.3-.9.6 0 .2.3.4 1.3.7zM52.5 72.3c0 1.6-.9 2.4-2.3 2.4s-2.3-.8-2.3-2.3v-3h.9v3c0 1 .5 1.5 1.3 1.5s1.3-.5 1.3-1.5v-3h.9v2.9zM57.1 73.3l-1.7-2.5v3.8h-.9v-5.3h1l1.6 2.5 1.6-2.5h1v5.3h-.9v-3.8l-1.7 2.5zM64.4 73.3l-1.7-2.5v3.8h-.9v-5.3h1l1.6 2.5 1.6-2.5h1v5.3h-.9v-3.8l-1.7 2.5zM74.2 74.6h-1l-.5-1.3h-2.5l-.5 1.3h-1l2.3-5.3h.9l2.3 5.3zm-2.8-4.2l-.9 2.1h1.8l-.9-2.1zM79.2 74.6l-1.3-1.8h-1.2v1.8h-.9v-5.3h2.4c1.2 0 2 .6 2 1.7 0 .9-.5 1.4-1.3 1.6l1.4 2h-1.1zm-1.1-4.4h-1.4V72h1.4c.7 0 1.1-.3 1.1-.9 0-.6-.4-.9-1.1-.9zM84.3 74.6h-.9v-2.1l-2.1-3.2h1.1l1.5 2.3 1.5-2.3h1.1l-2.1 3.2v2.1zM93 74.6h-2v-5.3h2c1.7 0 2.8 1.1 2.8 2.6 0 1.6-1.1 2.7-2.8 2.7zm0-4.4h-1v3.6h1c1.1 0 1.8-.7 1.8-1.8 0-1-.7-1.8-1.8-1.8zM102.4 74.6h-1l-.5-1.3h-2.5l-.5 1.3h-1l2.3-5.3h.9l2.3 5.3zm-2.8-4.2l-.9 2.1h1.8l-.9-2.1zM105.6 74.6h-.9v-4.4H103v-.9h4.3v.9h-1.7v4.4zM113.4 74.6h-1l-.5-1.3h-2.5l-.5 1.3h-1l2.3-5.3h.9l2.3 5.3zm-2.8-4.2l-.9 2.1h1.8l-.9-2.1z"/></g><g fill="#8795A2"><path d="M47.8 106.9h-4.3v2.4h3.8v.7h-3.8v2.5h4.4v.7h-5.1v-7h5.1v.7zM49.4 113.2v-7.4h.8v7.4h-.8zM52 106.9v-.9h.9v.9H52zm.1 6.3V108h.8v5.2h-.8zM57 114.8c-.9 0-1.7-.2-2.4-.7l.4-.6c.6.4 1.3.7 2 .7 1.1 0 1.9-.6 1.9-1.9v-.6c-.5.6-1.1 1.1-2 1.1-1.2 0-2.4-.9-2.4-2.4s1.2-2.5 2.4-2.5c1 0 1.6.5 2 1v-.9h.8v4.3c-.1 1.7-1.1 2.5-2.7 2.5zm0-6.2c-1 0-1.8.7-1.8 1.8s.8 1.8 1.8 1.8 1.9-.7 1.9-1.8-1-1.8-1.9-1.8zM61.4 106.9v-.9h.9v.9h-.9zm0 6.3V108h.8v5.2h-.8zM66.8 113.3c-1 0-1.6-.5-2-1.1v1H64v-7.4h.8v3.2c.4-.6 1-1.2 2-1.2 1.2 0 2.5 1 2.5 2.7-.1 1.8-1.3 2.8-2.5 2.8zm-.2-4.7c-1 0-1.9.8-1.9 2s.9 2 1.9 2c1 0 1.8-.7 1.8-2 0-1.2-.8-2-1.8-2zM70.7 113.2v-7.4h.8v7.4h-.8zM75.6 112.7c.7 0 1.2-.3 1.6-.7l.5.4c-.5.6-1.2 1-2.1 1-1.4 0-2.6-1.1-2.6-2.7 0-1.5 1.1-2.7 2.5-2.7 1.5 0 2.4 1.2 2.4 2.8v.2h-4.1c.1 1 .9 1.7 1.8 1.7zm1.5-2.4c-.1-.9-.6-1.8-1.7-1.8-.9 0-1.6.8-1.7 1.8h3.4zM84.9 110.7h-1.7v2.5h-.8v-7H85c1.6 0 2.6.8 2.6 2.2.1 1.5-1.2 2.3-2.7 2.3zm.1-3.8h-1.8v3.1H85c1.2 0 1.9-.6 1.9-1.6s-.8-1.5-1.9-1.5zM91.4 113.3c-1.6 0-2.7-1.2-2.7-2.7s1.1-2.7 2.7-2.7 2.7 1.2 2.7 2.7-1.2 2.7-2.7 2.7zm0-4.7c-1.1 0-1.9.9-1.9 2s.8 2 1.9 2c1.1 0 1.9-.9 1.9-2s-.9-2-1.9-2zM98.2 113.3c-1 0-1.6-.5-2-1.1v2.6h-.8V108h.8v1c.4-.6 1-1.2 2-1.2 1.2 0 2.5 1 2.5 2.7 0 1.8-1.2 2.8-2.5 2.8zm-.1-4.7c-1 0-1.9.8-1.9 2s.9 2 1.9 2c1 0 1.8-.7 1.8-2 0-1.2-.8-2-1.8-2zM105.9 108h.8v5.2h-.8v-.9c-.4.6-.9 1-1.8 1-1.3 0-2-.8-2-2.1V108h.8v3c0 1 .5 1.6 1.4 1.6.9 0 1.6-.7 1.6-1.6v-3zM108.4 113.2v-7.4h.8v7.4h-.8zM111.3 109l-.2-.6c.6-.3 1.1-.4 1.9-.4 1.4 0 2.2.7 2.2 2.1v3.2h-.7v-.8c-.4.5-1 .9-1.9.9-1 0-1.9-.5-1.9-1.6s.9-1.7 2.2-1.7c.7 0 1.1.1 1.6.2v-.3c0-.9-.6-1.4-1.6-1.4-.6 0-1.1.2-1.6.4zm.1 2.7c0 .7.6 1 1.3 1 1 0 1.7-.6 1.7-1.4v-.5c-.4-.1-.9-.2-1.5-.2-1 0-1.5.4-1.5 1.1zM117.8 111.7c0 .6.4.9.9.9.3 0 .5-.1.8-.2v.7c-.3.1-.6.2-.9.2-.8 0-1.5-.4-1.5-1.5v-3.1h-.7v-.7h.7v-1.6h.8v1.6h1.7v.7h-1.7v3zM120.9 106.9v-.9h.9v.9h-.9zm0 6.3V108h.8v5.2h-.8zM125.9 113.3c-1.6 0-2.7-1.2-2.7-2.7s1.1-2.7 2.7-2.7 2.7 1.2 2.7 2.7-1.1 2.7-2.7 2.7zm0-4.7c-1.1 0-1.9.9-1.9 2s.8 2 1.9 2c1.1 0 1.9-.9 1.9-2s-.8-2-1.9-2zM130.8 113.2h-.8V108h.8v.9c.3-.6.9-1 1.8-1 1.3 0 2 .8 2 2.1v3.2h-.8v-3c0-1-.5-1.6-1.4-1.6-.9 0-1.6.7-1.6 1.6v3z"/></g><g fill="#8795A2"><path d="M193.9 106.2h4.1v.7h-3.4l-.2 2.3c.4-.2.8-.3 1.4-.3 1.4 0 2.4.8 2.4 2.2 0 1.4-1 2.3-2.5 2.3-1 0-1.9-.5-2.5-1.1l.5-.6c.6.6 1.3 1 2 1 1 0 1.7-.7 1.7-1.6 0-.9-.7-1.5-1.8-1.5-.6 0-1.1.2-1.5.4l-.5-.4.3-3.4zM202 113.3c-1.5 0-2.6-.8-2.6-2 0-.8.6-1.4 1.5-1.7-.7-.3-1.2-.8-1.2-1.6 0-1.1 1.1-1.9 2.4-1.9s2.4.8 2.4 1.9c0 .8-.6 1.3-1.2 1.6.8.3 1.5.9 1.5 1.7-.1 1.2-1.3 2-2.8 2zm0-3.4c-1 0-1.8.6-1.8 1.3 0 .7.7 1.3 1.8 1.3s1.8-.6 1.8-1.3c.1-.7-.8-1.3-1.8-1.3zm0-3.1c-.9 0-1.6.5-1.6 1.2 0 .8.7 1.3 1.6 1.3.9 0 1.6-.5 1.6-1.3 0-.7-.7-1.2-1.6-1.2z"/></g><g fill="#8795A2"><path d="M246.2 106.2h4.1v.7h-3.4l-.2 2.3c.4-.2.8-.3 1.4-.3 1.4 0 2.4.8 2.4 2.2 0 1.4-1 2.3-2.5 2.3-1 0-1.9-.5-2.5-1.1l.5-.6c.6.6 1.3 1 2 1 1 0 1.7-.7 1.7-1.6 0-.9-.7-1.5-1.8-1.5-.6 0-1.1.2-1.5.4l-.5-.4.3-3.4zM256.2 106.1v4.8h1.1v.7h-1.1v1.7h-.8v-1.7h-3.7l-.2-.6 4-4.9h.7zm-.7 1.1l-3 3.6h3v-3.6z"/></g><g fill="#8795A2"><path d="M193.9 157.1h4.1v.7h-3.4l-.2 2.3c.4-.2.8-.3 1.4-.3 1.4 0 2.4.8 2.4 2.2 0 1.4-1 2.3-2.5 2.3-1 0-1.9-.5-2.5-1.1l.5-.6c.6.6 1.3 1 2 1 1 0 1.7-.7 1.7-1.6 0-.9-.7-1.5-1.8-1.5-.6 0-1.1.2-1.5.4l-.5-.4.3-3.4zM202 164.2c-1.5 0-2.6-.8-2.6-2 0-.8.6-1.4 1.5-1.7-.7-.3-1.2-.8-1.2-1.6 0-1.1 1.1-1.9 2.4-1.9s2.4.8 2.4 1.9c0 .8-.6 1.3-1.2 1.6.8.3 1.5.9 1.5 1.7-.1 1.2-1.3 2-2.8 2zm0-3.4c-1 0-1.8.6-1.8 1.3 0 .7.7 1.3 1.8 1.3s1.8-.6 1.8-1.3c.1-.7-.8-1.3-1.8-1.3zm0-3.1c-.9 0-1.6.5-1.6 1.2 0 .8.7 1.3 1.6 1.3.9 0 1.6-.5 1.6-1.3 0-.7-.7-1.2-1.6-1.2z"/></g><g fill="#8795A2"><path d="M246.2 157.1h4.1v.7h-3.4l-.2 2.3c.4-.2.8-.3 1.4-.3 1.4 0 2.4.8 2.4 2.2 0 1.4-1 2.3-2.5 2.3-1 0-1.9-.5-2.5-1.1l.5-.6c.6.6 1.3 1 2 1 1 0 1.7-.7 1.7-1.6 0-.9-.7-1.5-1.8-1.5-.6 0-1.1.2-1.5.4l-.5-.4.3-3.4zM256.2 157v4.8h1.1v.7h-1.1v1.7h-.8v-1.7h-3.7l-.2-.6 4-4.9h.7zm-.7 1.1l-3 3.6h3v-3.6z"/></g><g fill="#8795A2"><path d="M194.7 207.1h.6v7.1h-.8V208l-1.3.4-.2-.6 1.7-.7zM199.9 214.4c-1.8 0-3-1.7-3-3.6s1.2-3.7 3-3.7 3 1.7 3 3.6c0 2-1.2 3.7-3 3.7zm0-6.6c-1.3 0-2.1 1.3-2.1 2.9 0 1.6.8 2.9 2.2 2.9s2.1-1.4 2.1-2.9-.9-2.9-2.2-2.9zM207.1 214.4c-1.8 0-3-1.7-3-3.6s1.2-3.7 3-3.7 3 1.7 3 3.6c0 2-1.2 3.7-3 3.7zm0-6.6c-1.3 0-2.1 1.3-2.1 2.9 0 1.6.8 2.9 2.2 2.9s2.1-1.4 2.1-2.9-.9-2.9-2.2-2.9z"/></g><g fill="#8795A2"><path d="M247 207.1h.6v7.1h-.8V208l-1.3.4-.2-.6 1.7-.7zM252.2 214.4c-1.8 0-3-1.7-3-3.6s1.2-3.7 3-3.7 3 1.7 3 3.6c0 2-1.2 3.7-3 3.7zm0-6.6c-1.3 0-2.1 1.3-2.1 2.9 0 1.6.8 2.9 2.2 2.9s2.1-1.4 2.1-2.9-.9-2.9-2.2-2.9zM259.4 214.4c-1.8 0-3-1.7-3-3.6s1.2-3.7 3-3.7 3 1.7 3 3.6c0 2-1.2 3.7-3 3.7zm0-6.6c-1.3 0-2.1 1.3-2.1 2.9 0 1.6.8 2.9 2.2 2.9s2.1-1.4 2.1-2.9-.9-2.9-2.2-2.9z"/></g><g fill="#8795A2"><path d="M49.3 164.1h-.9l-.8-1.9h-3.8l-.8 1.9h-.8l3.2-7.1h.7l3.2 7.1zm-3.6-6.2l-1.6 3.6h3.2l-1.6-3.6zM52.3 164.2c-.7 0-1.6-.3-2.2-.8l.4-.6c.6.4 1.2.7 1.8.7.6 0 1.1-.3 1.1-.8s-.6-.7-1.3-.9c-.8-.2-1.7-.5-1.7-1.5 0-.9.7-1.5 1.8-1.5.6 0 1.3.2 1.9.6l-.4.6c-.5-.3-1-.5-1.5-.5-.6 0-1 .3-1 .8s.6.7 1.3.9c.8.2 1.7.6 1.7 1.5-.1.9-.9 1.5-1.9 1.5zM57.2 164.2c-.7 0-1.6-.3-2.2-.8l.4-.6c.6.4 1.2.7 1.8.7.6 0 1.1-.3 1.1-.8s-.6-.7-1.3-.9c-.8-.2-1.7-.5-1.7-1.5 0-.9.7-1.5 1.8-1.5.6 0 1.3.2 1.9.6l-.4.6c-.5-.3-1-.5-1.5-.5-.6 0-1 .3-1 .8s.6.7 1.3.9c.8.2 1.7.6 1.7 1.5s-.9 1.5-1.9 1.5zM62.8 163.6c.7 0 1.2-.3 1.6-.7l.5.4c-.5.6-1.2 1-2.1 1-1.4 0-2.6-1.1-2.6-2.7 0-1.5 1.1-2.7 2.5-2.7 1.5 0 2.4 1.2 2.4 2.8v.2H61c.1 1 .9 1.7 1.8 1.7zm1.5-2.4c-.1-.9-.6-1.8-1.7-1.8-.9 0-1.6.8-1.7 1.8h3.4zM68.2 164.2c-.7 0-1.6-.3-2.2-.8l.4-.6c.6.4 1.2.7 1.8.7.6 0 1.1-.3 1.1-.8s-.6-.7-1.3-.9c-.8-.2-1.7-.5-1.7-1.5 0-.9.7-1.5 1.8-1.5.6 0 1.3.2 1.9.6l-.4.6c-.5-.3-1-.5-1.5-.5-.6 0-1 .3-1 .8s.6.7 1.3.9c.8.2 1.7.6 1.7 1.5-.1.9-.9 1.5-1.9 1.5zM73.1 164.2c-.7 0-1.6-.3-2.2-.8l.4-.6c.6.4 1.2.7 1.8.7.6 0 1.1-.3 1.1-.8s-.6-.7-1.3-.9c-.8-.2-1.7-.5-1.7-1.5 0-.9.7-1.5 1.8-1.5.6 0 1.3.2 1.9.6l-.4.6c-.5-.3-1-.5-1.5-.5-.6 0-1 .3-1 .8s.6.7 1.3.9c.8.2 1.7.6 1.7 1.5-.1.9-.9 1.5-1.9 1.5zM82.3 158.8c1.2 0 1.9.8 1.9 2.1v3.2h-.8v-3c0-1-.5-1.6-1.3-1.6s-1.4.6-1.4 1.6v3h-.8V161c0-1-.5-1.6-1.3-1.6s-1.5.7-1.5 1.6v3h-.8v-5.2h.8v.9c.3-.5.8-1 1.7-1 .8 0 1.4.5 1.7 1 .4-.4.9-.9 1.8-.9zM88.3 163.6c.7 0 1.2-.3 1.6-.7l.5.4c-.5.6-1.2 1-2.1 1-1.4 0-2.6-1.1-2.6-2.7 0-1.5 1.1-2.7 2.5-2.7 1.5 0 2.4 1.2 2.4 2.8v.2h-4.1c0 1 .8 1.7 1.8 1.7zm1.5-2.4c-.1-.9-.6-1.8-1.7-1.8-.9 0-1.6.8-1.7 1.8h3.4zM92.7 164.1h-.8v-5.2h.8v.9c.3-.6.9-1 1.8-1 1.3 0 2 .8 2 2.1v3.2h-.8v-3c0-1-.5-1.6-1.4-1.6-.9 0-1.6.7-1.6 1.6v3zM99.2 162.6c0 .6.4.9.9.9.3 0 .5-.1.8-.2v.7c-.3.1-.6.2-.9.2-.8 0-1.5-.4-1.5-1.5v-3.1h-.7v-.7h.7v-1.6h.8v1.6h1.7v.7h-1.7v3zM103.9 164.2c-.7 0-1.6-.3-2.2-.8l.4-.6c.6.4 1.2.7 1.8.7.6 0 1.1-.3 1.1-.8s-.6-.7-1.3-.9c-.8-.2-1.7-.5-1.7-1.5 0-.9.7-1.5 1.8-1.5.6 0 1.3.2 1.9.6l-.4.6c-.5-.3-1-.5-1.5-.5-.6 0-1 .3-1 .8s.6.7 1.3.9c.8.2 1.7.6 1.7 1.5s-.9 1.5-1.9 1.5zM113.6 164.2c-2 0-3.5-1.6-3.5-3.6s1.5-3.7 3.6-3.7c1.3 0 2 .5 2.7 1.1l-.5.6c-.6-.6-1.3-1-2.2-1-1.6 0-2.7 1.3-2.7 2.9s1.2 2.9 2.7 2.9c1 0 1.6-.4 2.3-1l.5.5c-.8.8-1.6 1.3-2.9 1.3zM119.9 164.2c-1.6 0-2.7-1.2-2.7-2.7s1.1-2.7 2.7-2.7 2.7 1.2 2.7 2.7-1.1 2.7-2.7 2.7zm0-4.7c-1.1 0-1.9.9-1.9 2s.8 2 1.9 2c1.1 0 1.9-.9 1.9-2 .1-1.1-.8-2-1.9-2zM130 158.8c1.2 0 1.9.8 1.9 2.1v3.2h-.8v-3c0-1-.5-1.6-1.3-1.6s-1.4.6-1.4 1.6v3h-.8V161c0-1-.5-1.6-1.3-1.6s-1.5.7-1.5 1.6v3h-.8v-5.2h.8v.9c.3-.5.8-1 1.7-1 .8 0 1.4.5 1.7 1 .4-.4.9-.9 1.8-.9zM136.4 164.2c-1 0-1.6-.5-2-1.1v2.6h-.8v-6.8h.8v1c.4-.6 1-1.2 2-1.2 1.2 0 2.5 1 2.5 2.7 0 1.8-1.2 2.8-2.5 2.8zm-.1-4.7c-1 0-1.9.8-1.9 2s.9 2 1.9 2c1 0 1.8-.7 1.8-2 0-1.2-.9-2-1.8-2zM140.4 164.1v-7.4h.8v7.4h-.8zM145.3 163.6c.7 0 1.2-.3 1.6-.7l.5.4c-.5.6-1.2 1-2.1 1-1.4 0-2.6-1.1-2.6-2.7 0-1.5 1.1-2.7 2.5-2.7 1.5 0 2.4 1.2 2.4 2.8v.2h-4.1c0 1 .8 1.7 1.8 1.7zm1.5-2.4c-.1-.9-.6-1.8-1.7-1.8-.9 0-1.6.8-1.7 1.8h3.4zM150 162.6c0 .6.4.9.9.9.3 0 .5-.1.8-.2v.7c-.3.1-.6.2-.9.2-.8 0-1.5-.4-1.5-1.5v-3.1h-.7v-.7h.7v-1.6h.8v1.6h1.7v.7H150v3zM155.1 163.6c.7 0 1.2-.3 1.6-.7l.5.4c-.5.6-1.2 1-2.1 1-1.4 0-2.6-1.1-2.6-2.7 0-1.5 1.1-2.7 2.5-2.7 1.5 0 2.4 1.2 2.4 2.8v.2h-4.1c.1 1 .9 1.7 1.8 1.7zm1.6-2.4c-.1-.9-.6-1.8-1.7-1.8-.9 0-1.6.8-1.7 1.8h3.4zM163 164.1v-1c-.4.6-1 1.2-2 1.2-1.2 0-2.5-1-2.5-2.7 0-1.7 1.2-2.7 2.5-2.7 1 0 1.6.5 2 1.1v-3.1h.8v7.4h-.8zm-1.9-4.6c-1 0-1.8.7-1.8 2 0 1.2.8 2 1.8 2s1.9-.8 1.9-2-.9-2-1.9-2z"/></g><g fill="#8795A2"><path d="M46 214.4c-2 0-3.5-1.6-3.5-3.6s1.5-3.7 3.6-3.7c1.3 0 2 .5 2.7 1.1l-.5.6c-.6-.6-1.3-1-2.2-1-1.6 0-2.7 1.3-2.7 2.9s1.2 2.9 2.7 2.9c1 0 1.6-.4 2.3-1l.5.5c-.8.8-1.7 1.3-2.9 1.3zM52.3 214.4c-1.6 0-2.7-1.2-2.7-2.7s1.1-2.7 2.7-2.7 2.7 1.2 2.7 2.7-1.1 2.7-2.7 2.7zm0-4.8c-1.1 0-1.9.9-1.9 2s.8 2 1.9 2c1.1 0 1.9-.9 1.9-2 .1-1.1-.8-2-1.9-2zM62.4 208.9c1.2 0 1.9.8 1.9 2.1v3.2h-.8v-3c0-1-.5-1.6-1.3-1.6s-1.4.6-1.4 1.6v3H60v-3.1c0-1-.5-1.6-1.3-1.6s-1.5.7-1.5 1.6v3h-.8V209h.8v.9c.3-.5.8-1 1.7-1 .8 0 1.4.5 1.7 1 .4-.5.9-1 1.8-1zM68.8 214.3c-1 0-1.6-.5-2-1.1v2.6H66V209h.8v1c.4-.6 1-1.2 2-1.2 1.2 0 2.5 1 2.5 2.7 0 1.8-1.2 2.8-2.5 2.8zm-.1-4.7c-1 0-1.9.8-1.9 2s.9 2 1.9 2c1 0 1.8-.7 1.8-2 0-1.2-.9-2-1.8-2zM72.8 214.2v-7.4h.8v7.4h-.8zM77.7 213.7c.7 0 1.2-.3 1.6-.7l.5.4c-.5.6-1.2 1-2.1 1-1.4 0-2.6-1.1-2.6-2.7 0-1.5 1.1-2.7 2.5-2.7 1.5 0 2.4 1.2 2.4 2.8v.2h-4.1c0 1 .8 1.7 1.8 1.7zm1.5-2.4c-.1-.9-.6-1.8-1.7-1.8-.9 0-1.6.8-1.7 1.8h3.4zM82.4 212.8c0 .6.4.9.9.9.3 0 .5-.1.8-.2v.7c-.3.1-.6.2-.9.2-.8 0-1.5-.4-1.5-1.5v-3.1H81v-.8h.7v-1.6h.8v1.6H84v.7h-1.7v3.1zM85.4 207.9v-.9h.9v.9h-.9zm.1 6.3V209h.8v5.2h-.8zM90.4 214.4c-1.6 0-2.7-1.2-2.7-2.7s1.1-2.7 2.7-2.7 2.7 1.2 2.7 2.7-1.1 2.7-2.7 2.7zm0-4.8c-1.1 0-1.9.9-1.9 2s.8 2 1.9 2c1.1 0 1.9-.9 1.9-2s-.8-2-1.9-2zM95.3 214.2h-.8V209h.8v.9c.3-.6.9-1 1.8-1 1.3 0 2 .8 2 2.1v3.2h-.8v-3c0-1-.5-1.6-1.4-1.6-.9 0-1.6.7-1.6 1.6v3zM105 210.7c-1 0-1.6-.8-1.6-1.8s.6-1.8 1.6-1.8c.9 0 1.6.8 1.6 1.8s-.6 1.8-1.6 1.8zm0-3c-.6 0-.9.5-.9 1.2s.4 1.2.9 1.2.9-.5.9-1.2-.4-1.2-.9-1.2zm-.1 6.5h-.7l5.2-7h.7l-5.2 7zm4.3.1c-.9 0-1.6-.8-1.6-1.8s.6-1.8 1.6-1.8 1.6.8 1.6 1.8-.7 1.8-1.6 1.8zm0-3c-.5 0-.9.5-.9 1.2s.4 1.2.9 1.2c.6 0 .9-.5.9-1.2s-.4-1.2-.9-1.2z"/></g><g fill="#8795A2"><path d="M196 73.3l-1.7-2.5v3.8h-.9v-5.3h1l1.6 2.5 1.6-2.5h1v5.3h-.9v-3.8l-1.7 2.5zM205.7 74.6h-1l-.5-1.3h-2.5l-.5 1.3h-1l2.3-5.3h.9l2.3 5.3zm-2.7-4.2l-.9 2.1h1.8l-.9-2.1zM207.4 69.3h.9v4.4h2.8v.8h-3.7v-5.2zM216.7 70.2h-3v1.4h2.7v.8h-2.7v1.4h3v.8h-4v-5.3h3.9v.9z"/></g><g fill="#8795A2"><path d="M249.6 70.2h-3v1.4h2.7v.8h-2.7v2.2h-.9v-5.3h3.9v.9zM255.3 70.2h-3v1.4h2.7v.8h-2.7v1.4h3v.8h-4v-5.3h3.9v.9zM259.8 73.3l-1.7-2.5v3.8h-.9v-5.3h1l1.6 2.5 1.6-2.5h1v5.3h-.9v-3.8l-1.7 2.5zM269.5 74.6h-1l-.5-1.3h-2.5l-.5 1.3h-1l2.3-5.3h.9l2.3 5.3zm-2.7-4.2l-.9 2.1h1.8l-.9-2.1zM271.2 69.3h.9v4.4h2.8v.8h-3.7v-5.2zM280.6 70.2h-3v1.4h2.7v.8h-2.7v1.4h3v.8h-4v-5.3h3.9v.9z"/></g><path fill="none" stroke="#BDCCD4" stroke-width=".853" stroke-miterlimit="10" d="M26.3 90.4h275.4"/><path opacity=".5" fill="none" stroke="#B0BEC5" stroke-width="2.32" stroke-miterlimit="10" d="M328.6 245.4h298.3"/><g fill="#0277BD"><path d="M370.8 166.6h18.4v78.8h-18.4zM528.9 175.3h18.4v70.2h-18.4zM410.3 131.5h18.4v113.9h-18.4zM489.4 141h18.4v104.4h-18.4zM449.9 105.6h18.4v139.8h-18.4z"/></g><g fill="#8795A2"><path d="M330.2 257.3h.6v5.1h-.9v-4.2l-.9.3-.2-.7 1.4-.5zM334.9 262.5c-1.3 0-2.2-1.2-2.2-2.6s.9-2.6 2.2-2.6c1.3 0 2.2 1.2 2.2 2.6s-.9 2.6-2.2 2.6zm0-4.4c-.8 0-1.3.8-1.3 1.8s.5 1.8 1.3 1.8 1.3-.8 1.3-1.8-.6-1.8-1.3-1.8zM338.6 260.6v-.9h2.2v.9h-2.2zM343.3 257.3h.6v5.1h-.9v-4.2l-.9.3-.2-.7 1.4-.5zM347.5 262.5c-.7 0-1.2-.3-1.6-.6l.5-.7c.4.3.7.5 1.2.5.8 0 1.2-.7 1.2-1.6-.3.3-.6.5-1.2.5-1.1 0-1.8-.6-1.8-1.6s.8-1.8 1.9-1.8c.6 0 1.1.2 1.4.5.4.4.6.9.6 2 0 1.7-.8 2.8-2.2 2.8zm.2-4.5c-.6 0-1 .4-1 1 0 .5.4.9 1 .9s1-.4 1-.9c0-.6-.4-1-1-1z"/></g><path fill="#8795A2" d="M341 234.2c-1.3 0-2.2-1.2-2.2-2.6s.9-2.6 2.2-2.6c1.3 0 2.2 1.2 2.2 2.6s-.9 2.6-2.2 2.6zm0-4.5c-.8 0-1.3.8-1.3 1.8s.5 1.8 1.3 1.8 1.3-.8 1.3-1.8-.5-1.8-1.3-1.8z"/><g fill="#8795A2"><path d="M379.3 152.4v3.3h.7v.7h-.7v1.1h-.9v-1.1h-2.6l-.2-.6 2.8-3.3h.9zm-.9 1.2l-1.7 2h1.7v-2zM381.9 152.4h3v.8h-2.3l-.1 1.2c.2-.1.5-.1.8-.1 1 0 1.8.5 1.8 1.6 0 1-.8 1.7-1.9 1.7-.8 0-1.4-.3-1.9-.8l.6-.6c.4.4.8.6 1.3.6.6 0 1-.3 1-.9 0-.5-.4-.9-1.1-.9-.4 0-.7.1-.9.2l-.5-.4.2-2.4z"/></g><g fill="#8795A2"><path d="M418.7 113.8c-.4-.3-.7-.4-1.1-.4-.8 0-1.2.7-1.2 1.6.3-.3.6-.5 1.2-.5 1 0 1.8.6 1.8 1.6s-.8 1.7-1.9 1.7c-.6 0-1.1-.2-1.4-.5-.4-.4-.6-.9-.6-2 0-1.6.7-2.8 2.2-2.8.7 0 1.1.2 1.6.6l-.6.7zm-1.3 1.4c-.6 0-1 .4-1 .9s.4.9 1.1.9c.6 0 1-.4 1-.9-.1-.6-.5-.9-1.1-.9zM423.1 117.8c-1.3 0-2.2-1.2-2.2-2.6s.9-2.6 2.2-2.6c1.3 0 2.2 1.2 2.2 2.6s-.8 2.6-2.2 2.6zm0-4.5c-.8 0-1.3.8-1.3 1.8s.5 1.8 1.3 1.8 1.3-.8 1.3-1.8-.5-1.8-1.3-1.8z"/></g><g fill="#8795A2"><path d="M495.3 121.8h3v.8H496l-.1 1.2c.2-.1.5-.1.8-.1 1 0 1.8.5 1.8 1.6 0 1-.8 1.7-1.9 1.7-.8 0-1.4-.3-1.9-.8l.6-.6c.4.4.8.6 1.3.6.6 0 1-.3 1-.9 0-.5-.4-.9-1.1-.9-.4 0-.7.1-.9.2l-.5-.4.2-2.4zM500.6 121.8h3v.8h-2.3l-.1 1.2c.2-.1.5-.1.8-.1 1 0 1.8.5 1.8 1.6 0 1-.8 1.7-1.9 1.7-.8 0-1.4-.3-1.9-.8l.6-.6c.4.4.8.6 1.3.6.6 0 1-.3 1-.9 0-.5-.4-.9-1.1-.9-.4 0-.7.1-.9.2l-.5-.4.2-2.4z"/></g><g fill="#8795A2"><path d="M533.8 161.2v-.8h3.4v.7l-1.4 1.5c.8.1 1.5.5 1.5 1.4 0 .9-.7 1.6-1.8 1.6-.9 0-1.5-.4-2-.9l.6-.6c.4.4.8.7 1.3.7s.9-.3.9-.8-.5-.8-1.2-.8h-.4l-.1-.6 1.4-1.5h-2.2zM539.2 160.4h3v.8H540l-.1 1.2c.2-.1.5-.1.8-.1 1 0 1.8.5 1.8 1.6 0 1-.8 1.7-1.9 1.7-.8 0-1.4-.3-1.9-.8l.6-.6c.4.4.8.6 1.3.6.6 0 1-.3 1-.9 0-.5-.4-.9-1.1-.9-.4 0-.7.1-.9.2l-.5-.4.1-2.4z"/></g><g fill="#8795A2"><path d="M454.8 85.2h3.6v.7l-2.3 4.4h-1l2.3-4.3h-2.6v-.8zM460.1 85.2h3v.8h-2.3l-.1 1.2c.2-.1.5-.1.8-.1 1 0 1.8.5 1.8 1.6 0 1-.8 1.7-1.9 1.7-.8 0-1.4-.3-1.9-.8l.6-.6c.4.4.8.6 1.3.6.6 0 1-.3 1-.9 0-.5-.4-.9-1.1-.9-.4 0-.7.1-.9.2l-.5-.4.2-2.4z"/></g><g fill="#8795A2"><path d="M368 258.8l-.6-.5c.5-.7 1-1.1 1.9-1.1 1 0 1.7.6 1.7 1.5 0 .8-.4 1.2-1.3 2l-1 .9h2.4v.8h-3.7v-.7l1.8-1.5c.7-.6 1-.9 1-1.4 0-.5-.4-.8-.8-.8s-1 .3-1.4.8zM374.8 262.5c-1.3 0-2.2-1.2-2.2-2.6s.9-2.6 2.2-2.6c1.3 0 2.2 1.2 2.2 2.6s-.9 2.6-2.2 2.6zm0-4.4c-.8 0-1.3.8-1.3 1.8s.5 1.8 1.3 1.8 1.3-.8 1.3-1.8-.6-1.8-1.3-1.8zM378.5 260.6v-.9h2.2v.9h-2.2zM382.9 258.8l-.6-.5c.5-.7 1-1.1 1.9-1.1 1 0 1.7.6 1.7 1.5 0 .8-.4 1.2-1.3 2l-1 .9h2.4v.8h-3.7v-.7l1.8-1.5c.7-.6 1-.9 1-1.4 0-.5-.4-.8-.8-.8s-1 .3-1.4.8zM389.2 262.5c-.7 0-1.2-.3-1.6-.6l.5-.7c.4.3.7.5 1.2.5.8 0 1.2-.7 1.2-1.6-.3.3-.6.5-1.2.5-1.1 0-1.8-.6-1.8-1.6s.8-1.8 1.9-1.8c.6 0 1.1.2 1.4.5.4.4.6.9.6 2 0 1.7-.8 2.8-2.2 2.8zm.2-4.5c-.6 0-1 .4-1 1 0 .5.4.9 1 .9s1-.4 1-.9c0-.6-.4-1-1-1z"/></g><g fill="#8795A2"><path d="M407.6 258.1v-.8h3.4v.7l-1.4 1.5c.8.1 1.5.5 1.5 1.4 0 .9-.7 1.6-1.8 1.6-.9 0-1.5-.4-2-.9l.6-.6c.4.4.8.7 1.3.7s.9-.3.9-.8-.5-.8-1.2-.8h-.4l-.1-.6 1.4-1.5h-2.2zM414.8 262.5c-1.3 0-2.2-1.2-2.2-2.6s.9-2.6 2.2-2.6c1.3 0 2.2 1.2 2.2 2.6s-.8 2.6-2.2 2.6zm0-4.4c-.8 0-1.3.8-1.3 1.8s.5 1.8 1.3 1.8 1.3-.8 1.3-1.8-.5-1.8-1.3-1.8zM418.6 260.6v-.9h2.2v.9h-2.2zM422.4 258.1v-.8h3.4v.7l-1.4 1.5c.8.1 1.5.5 1.5 1.4 0 .9-.7 1.6-1.8 1.6-.9 0-1.5-.4-2-.9l.6-.6c.4.4.8.7 1.3.7s.9-.3.9-.8-.5-.8-1.2-.8h-.4l-.1-.6 1.4-1.5h-2.2zM429.2 262.5c-.7 0-1.2-.3-1.6-.6l.5-.7c.4.3.7.5 1.2.5.8 0 1.2-.7 1.2-1.6-.3.3-.6.5-1.2.5-1.1 0-1.8-.6-1.8-1.6s.8-1.8 1.9-1.8c.6 0 1.1.2 1.4.5.4.4.6.9.6 2 0 1.7-.8 2.8-2.2 2.8zm.1-4.5c-.6 0-1 .4-1 1 0 .5.4.9 1 .9s1-.4 1-.9c.1-.6-.3-1-1-1z"/></g><g fill="#8795A2"><path d="M450.3 257.3v3.3h.7v.7h-.7v1.1h-.9v-1.1h-2.6l-.2-.6 2.8-3.3h.9zm-.8 1.3l-1.7 2h1.7v-2zM454.8 262.5c-1.3 0-2.2-1.2-2.2-2.6s.9-2.6 2.2-2.6c1.3 0 2.2 1.2 2.2 2.6s-.9 2.6-2.2 2.6zm0-4.4c-.8 0-1.3.8-1.3 1.8s.5 1.8 1.3 1.8 1.3-.8 1.3-1.8-.5-1.8-1.3-1.8zM458.6 260.6v-.9h2.2v.9h-2.2zM465.7 257.3v3.3h.7v.7h-.7v1.1h-.9v-1.1h-2.6l-.2-.6 2.8-3.3h.9zm-.8 1.3l-1.7 2h1.7v-2zM469.7 262.5c-.7 0-1.2-.3-1.6-.6l.5-.7c.4.3.7.5 1.2.5.8 0 1.2-.7 1.2-1.6-.3.3-.6.5-1.2.5-1.1 0-1.8-.6-1.8-1.6s.8-1.8 1.9-1.8c.6 0 1.1.2 1.4.5.4.4.6.9.6 2 0 1.7-.9 2.8-2.2 2.8zm.1-4.5c-.6 0-1 .4-1 1 0 .5.4.9 1 .9s1-.4 1-.9c.1-.6-.3-1-1-1z"/></g><g fill="#8795A2"><path d="M487.7 257.4h3v.8h-2.3l-.1 1.2c.2-.1.5-.1.8-.1 1 0 1.8.5 1.8 1.6 0 1-.8 1.7-1.9 1.7-.8 0-1.4-.3-1.9-.8l.6-.6c.4.4.8.6 1.3.6.6 0 1-.3 1-.9 0-.5-.4-.9-1.1-.9-.4 0-.7.1-.9.2l-.5-.4.2-2.4zM494.8 262.5c-1.3 0-2.2-1.2-2.2-2.6s.9-2.6 2.2-2.6c1.3 0 2.2 1.2 2.2 2.6s-.9 2.6-2.2 2.6zm0-4.4c-.8 0-1.3.8-1.3 1.8s.5 1.8 1.3 1.8 1.3-.8 1.3-1.8-.5-1.8-1.3-1.8zM498.6 260.6v-.9h2.2v.9h-2.2zM502.7 257.4h3v.8h-2.3l-.1 1.2c.2-.1.5-.1.8-.1 1 0 1.8.5 1.8 1.6 0 1-.8 1.7-1.9 1.7-.8 0-1.4-.3-1.9-.8l.6-.6c.4.4.8.6 1.3.6.6 0 1-.3 1-.9 0-.5-.4-.9-1.1-.9-.4 0-.7.1-.9.2l-.5-.4.2-2.4zM509.3 262.5c-.7 0-1.2-.3-1.6-.6l.5-.7c.4.3.7.5 1.2.5.8 0 1.2-.7 1.2-1.6-.3.3-.6.5-1.2.5-1.1 0-1.8-.6-1.8-1.6s.8-1.8 1.9-1.8c.6 0 1.1.2 1.4.5.4.4.6.9.6 2 0 1.7-.9 2.8-2.2 2.8zm.1-4.5c-.6 0-1 .4-1 1 0 .5.4.9 1 .9s1-.4 1-.9c.1-.6-.3-1-1-1z"/></g><g fill="#8795A2"><path d="M530.4 258.5c-.4-.3-.7-.4-1.1-.4-.8 0-1.2.7-1.2 1.6.3-.3.6-.5 1.2-.5 1 0 1.8.6 1.8 1.6s-.8 1.7-1.9 1.7c-.6 0-1.1-.2-1.4-.5-.4-.4-.6-.9-.6-2 0-1.6.7-2.8 2.2-2.8.7 0 1.1.2 1.6.6l-.6.7zm-1.3 1.4c-.6 0-1 .4-1 .9s.4.9 1.1.9c.6 0 1-.4 1-.9-.1-.5-.5-.9-1.1-.9zM534.8 262.5c-1.3 0-2.2-1.2-2.2-2.6s.9-2.6 2.2-2.6c1.3 0 2.2 1.2 2.2 2.6s-.8 2.6-2.2 2.6zm0-4.4c-.8 0-1.3.8-1.3 1.8s.5 1.8 1.3 1.8 1.3-.8 1.3-1.8-.5-1.8-1.3-1.8zM538.6 260.6v-.9h2.2v.9h-2.2zM545.6 258.5c-.4-.3-.7-.4-1.1-.4-.8 0-1.2.7-1.2 1.6.3-.3.6-.5 1.2-.5 1 0 1.8.6 1.8 1.6s-.8 1.7-1.9 1.7c-.6 0-1.1-.2-1.4-.5-.4-.4-.6-.9-.6-2 0-1.6.7-2.8 2.2-2.8.7 0 1.1.2 1.6.6l-.6.7zm-1.3 1.4c-.6 0-1 .4-1 .9s.4.9 1.1.9c.6 0 1-.4 1-.9-.1-.5-.5-.9-1.1-.9zM549.5 262.5c-.7 0-1.2-.3-1.6-.6l.5-.7c.4.3.7.5 1.2.5.8 0 1.2-.7 1.2-1.6-.3.3-.6.5-1.2.5-1.1 0-1.8-.6-1.8-1.6s.8-1.8 1.9-1.8c.6 0 1.1.2 1.4.5.4.4.6.9.6 2 0 1.7-.8 2.8-2.2 2.8zm.2-4.5c-.6 0-1 .4-1 1 0 .5.4.9 1 .9s1-.4 1-.9c0-.6-.4-1-1-1z"/></g><g fill="#8795A2"><path d="M567.8 257.4h3.6v.7l-2.3 4.4h-1l2.3-4.3h-2.6v-.8zM574.9 262.5c-1.3 0-2.2-1.2-2.2-2.6s.9-2.6 2.2-2.6c1.3 0 2.2 1.2 2.2 2.6s-.8 2.6-2.2 2.6zm0-4.4c-.8 0-1.3.8-1.3 1.8s.5 1.8 1.3 1.8 1.3-.8 1.3-1.8-.5-1.8-1.3-1.8zM578.7 260.6v-.9h2.2v.9h-2.2zM582.2 257.4h3.6v.7l-2.3 4.4h-1l2.3-4.3h-2.6v-.8zM588.9 262.5c-.7 0-1.2-.3-1.6-.6l.5-.7c.4.3.7.5 1.2.5.8 0 1.2-.7 1.2-1.6-.3.3-.6.5-1.2.5-1.1 0-1.8-.6-1.8-1.6s.8-1.8 1.9-1.8c.6 0 1.1.2 1.4.5.4.4.6.9.6 2 0 1.7-.8 2.8-2.2 2.8zm.2-4.5c-.6 0-1 .4-1 1 0 .5.4.9 1 .9s1-.4 1-.9c.1-.6-.4-1-1-1z"/></g><g fill="#8795A2"><path d="M613.7 262.5c-1.1 0-1.9-.6-1.9-1.5 0-.6.3-1 .9-1.3-.4-.2-.7-.6-.7-1.1 0-.8.7-1.4 1.8-1.4 1 0 1.8.6 1.8 1.4 0 .6-.3.9-.7 1.1.6.3.9.6.9 1.2-.1 1.1-1 1.6-2.1 1.6zm0-2.3c-.6 0-1.1.3-1.1.8 0 .4.4.8 1.1.8.7 0 1.1-.3 1.1-.8s-.5-.8-1.1-.8zm0-2.2c-.5 0-.9.3-.9.7 0 .5.4.8.9.8s.9-.3.9-.8c0-.4-.3-.7-.9-.7zM619.4 262.5c-1.3 0-2.2-1.2-2.2-2.6s.9-2.6 2.2-2.6c1.3 0 2.2 1.2 2.2 2.6s-.9 2.6-2.2 2.6zm0-4.4c-.8 0-1.3.8-1.3 1.8s.5 1.8 1.3 1.8 1.3-.8 1.3-1.8-.5-1.8-1.3-1.8zM624.7 258.1h.8v1.4h1.4v.8h-1.4v1.4h-.8v-1.4h-1.4v-.8h1.4v-1.4z"/></g></g></svg>