<svg xmlns="http://www.w3.org/2000/svg" width="678" height="570" viewBox="0 0 678 570"><path fill="#1BD4EE" d="M0 0h677.987v569.64H0z"/><path fill-rule="evenodd" clip-rule="evenodd" fill="#3F454A" d="M455.561 215.979l-86.944.008a70.107 70.107 0 0 0-16.41-14.882c-11.486-7.491-24.78-11.451-38.443-11.451-23.926 0-46.01 11.954-59.065 31.972-21.222 32.539-12.017 76.276 20.519 97.499 11.485 7.496 24.778 11.453 38.441 11.453 23.927 0 46.008-11.949 59.067-31.969a70.253 70.253 0 0 0 7.472-15.188l75.363-67.442zm-102.304 69.933c-8.753 13.413-23.557 21.425-39.6 21.425-9.142 0-18.044-2.654-25.741-7.679-21.806-14.223-27.969-43.529-13.751-65.335 8.752-13.417 23.557-21.427 39.598-21.427 9.145 0 18.045 2.656 25.742 7.678 21.802 14.224 27.971 43.537 13.752 65.338z"/><path fill-rule="evenodd" clip-rule="evenodd" fill="#3F454A" d="M297.132 275.65l35.463-31.252a23.441 23.441 0 0 0-4.042-3.862c-10.474-7.82-25.299-5.663-33.12 4.812-6.954 9.332-5.991 22.091 1.699 30.302z"/></svg>