<svg xmlns="http://www.w3.org/2000/svg" xmlns:xlink="http://www.w3.org/1999/xlink" width="860" height="273" viewBox="0 0 860 273"><defs><path id="a" d="M849.7 55.9H3.7c-2 0-3.7 1.7-3.7 3.7v209.8c0 2 1.6 3.7 3.7 3.7h846.1c2.2 0 4-1.8 4-4V59.9c0-2.2-1.8-4-4.1-4z"/></defs><use xlink:href="#a" overflow="visible" fill="#FFF"/><g fill="#FFF"><path d="M10.4 23.1h-2v-6.9L1.2 5.7h2.4l5.8 8.7 5.9-8.7h2.3l-7.2 10.5v6.9zM23.6 23.4c-3.8 0-6.6-3-6.6-6.7s2.8-6.7 6.7-6.7c3.8 0 6.7 3 6.7 6.7s-3 6.7-6.8 6.7zm0-11.7c-2.8 0-4.7 2.2-4.7 5s2 5 4.7 5c2.8 0 4.7-2.2 4.7-5s-2-5-4.7-5zM42.8 10.3h1.9v12.8h-1.9v-2.2c-.9 1.4-2.2 2.5-4.4 2.5-3.1 0-4.9-2.1-4.9-5.1v-8h1.9v7.5c0 2.4 1.3 3.9 3.5 3.9s3.8-1.6 3.8-4v-7.4zM50.9 23.1H49V10.3h1.9v3.3c.9-2.1 2.8-3.7 5.2-3.6v2.1H56c-2.8 0-5.1 2-5.1 5.9v5.1zM73 16.9h-4.2V23h-2V5.7h6.5c3.9 0 6.5 2.1 6.5 5.5 0 3.8-3.1 5.7-6.8 5.7zm.1-9.4h-4.4v7.6H73c2.9 0 4.8-1.5 4.8-3.8 0-2.5-1.9-3.8-4.7-3.8zM84.9 23.1H83V10.3h1.9v3.3c.9-2.1 2.8-3.7 5.2-3.6v2.1H90c-2.8 0-5.1 2-5.1 5.9v5.1zM98.4 23.4c-3.8 0-6.6-3-6.6-6.7s2.8-6.7 6.7-6.7c3.8 0 6.7 3 6.7 6.7s-3 6.7-6.8 6.7zm0-11.7c-2.8 0-4.7 2.2-4.7 5s2 5 4.7 5c2.8 0 4.7-2.2 4.7-5s-2-5-4.7-5zM114.2 27.1c-2.1 0-4.1-.6-5.8-1.8l.9-1.5c1.5 1.1 3.1 1.6 4.9 1.6 2.8 0 4.7-1.6 4.7-4.6v-1.5c-1.1 1.5-2.7 2.7-5 2.7-3.1 0-6-2.3-6-6 0-3.8 3-6.1 6-6.1 2.4 0 4 1.2 5 2.6v-2.3h1.9v10.6c-.1 4.2-2.7 6.3-6.6 6.3zm0-15.4c-2.4 0-4.4 1.7-4.4 4.3 0 2.6 2.1 4.4 4.4 4.4 2.4 0 4.7-1.7 4.7-4.4 0-2.6-2.3-4.3-4.7-4.3zM126.9 23.1H125V10.3h1.9v3.3c.9-2.1 2.8-3.7 5.2-3.6v2.1h-.1c-2.8 0-5.1 2-5.1 5.9v5.1zM140.1 21.7c1.8 0 3-.7 4-1.8l1.2 1.1c-1.3 1.4-2.8 2.4-5.3 2.4-3.5 0-6.4-2.7-6.4-6.7 0-3.7 2.6-6.7 6.1-6.7 3.8 0 6 3 6 6.8v.6h-10.2c.4 2.7 2.4 4.3 4.6 4.3zm3.8-5.7c-.2-2.3-1.5-4.4-4.1-4.4-2.2 0-3.9 1.9-4.2 4.4h8.3zM153.4 23.3c-1.8 0-3.9-.7-5.3-1.9l1-1.4c1.4 1 2.9 1.6 4.4 1.6 1.5 0 2.7-.8 2.7-2 0-1.3-1.5-1.8-3.2-2.3-2-.6-4.2-1.3-4.2-3.6 0-2.2 1.8-3.7 4.4-3.7 1.6 0 3.3.5 4.6 1.4l-.9 1.4c-1.2-.8-2.6-1.2-3.8-1.2-1.5 0-2.5.8-2.5 1.9 0 1.2 1.6 1.7 3.3 2.2 2 .6 4.1 1.4 4.1 3.7-.1 2.5-2.1 3.9-4.6 3.9zM165.5 23.3c-1.8 0-3.9-.7-5.3-1.9l1-1.4c1.4 1 2.9 1.6 4.4 1.6 1.5 0 2.7-.8 2.7-2 0-1.3-1.5-1.8-3.2-2.3-2-.6-4.2-1.3-4.2-3.6 0-2.2 1.8-3.7 4.4-3.7 1.6 0 3.3.5 4.6 1.4l-.9 1.4c-1.2-.8-2.6-1.2-3.8-1.2-1.5 0-2.5.8-2.5 1.9 0 1.2 1.6 1.7 3.3 2.2 2 .6 4.1 1.4 4.1 3.7-.1 2.5-2.1 3.9-4.6 3.9z"/></g><g fill="#FFF"><path d="M674.4 9.7h1.8l-4 9.7h-1.5l-4-9.7h1.9l2.9 7.4 2.9-7.4zM681.1 9.7v9.6h-1.7V9.7h1.7zM692.2 11.2h-5.5v2.5h4.8v1.5h-4.8v2.6h5.5v1.5H685V9.7h7.1v1.5zM701.4 9.6h1.4l2.4 7.2 2.3-7.1h1.8l-3.4 9.7h-1.5l-2.4-6.9-2.4 6.9h-1.5l-3.4-9.7h1.8l2.3 7.1 2.6-7.2z"/></g><path fill="none" stroke="#FFF" stroke-width="2.11" stroke-miterlimit="10" d="M758.5 14.6c0 7.5-6.1 13.6-13.6 13.6s-13.6-6.1-13.6-13.6S737.4 1 744.9 1c7.5.1 13.6 6.1 13.6 13.6z"/><path fill="#FFF" d="M738.8 9.5l3.1 5.1c.1.2.3.2.5.1l1.5-1.4c.2-.2.4-.1.5.1l2.1 3.2c.1.2.4.2.5.1l1-.9c.2-.2.4-.1.6 0l3.1 3.9c.1.2.1.3-.2.3h-13V9.6c.1-.3.2-.3.3-.1z"/><path opacity=".5" fill="none" stroke="#FFF" stroke-width="2.11" stroke-miterlimit="10" d="M808.7 14.6c0 7.5-6.1 13.6-13.6 13.6s-13.6-6.1-13.6-13.6S787.6 1 795.1 1c7.5.1 13.6 6.1 13.6 13.6z"/><path opacity=".5" fill="#FFF" d="M801.6 14.4h-.7c-.4 0-.7.2-.7.5s.3.5.7.5h.7c.4 0 .7-.2.7-.5s-.3-.5-.7-.5zm-6.1-3.2c-2.1 0-3.8 1.7-3.8 3.8 0 2.1 1.7 3.8 3.8 3.8 2.1 0 3.8-1.7 3.8-3.8-.1-2.2-1.8-3.8-3.8-3.8zm-4.8 3.7c0-.3-.3-.5-.7-.5h-.7c-.4 0-.7.2-.7.5s.3.5.7.5h.7c.4.1.7-.2.7-.5zm4.8-4.8c.3 0 .6-.3.6-.7v-.7c0-.4-.2-.7-.6-.7-.3 0-.5.3-.5.7v.7c-.1.4.2.7.5.7zm0 9.6c-.3 0-.5.3-.5.7v.7c0 .4.2.7.5.7s.6-.3.6-.7v-.7c-.1-.4-.3-.7-.6-.7zm5-9c.3-.3.3-.7.1-.9-.2-.2-.6-.2-.9.1l-.5.5c-.3.3-.3.7-.1.9.2.2.6.2.9-.1.1-.1.4-.5.5-.5zm-9.6 8l-.5.5c-.3.3-.3.7-.1.9.2.2.6.2.9-.1l.5-.5c.3-.3.3-.7.1-.9-.2-.2-.6-.2-.9.1zm.3-8.8c-.3-.3-.7-.3-.9-.1-.2.2-.2.6.1.9l.5.5c.3.3.7.3.9.1.2-.2.2-.6-.1-.9l-.5-.5zm8 9.6l.5.5c.3.3.7.3.9.1.2-.2.2-.6-.1-.9l-.5-.5c-.3-.3-.7-.3-.9-.1-.2.2-.1.6.1.9z"/><path opacity=".5" fill="none" stroke="#FFF" stroke-width="2.11" stroke-miterlimit="10" d="M859 14.6c0 7.5-6.1 13.6-13.6 13.6s-13.6-6.1-13.6-13.6S837.9 1 845.4 1c7.5.1 13.6 6.1 13.6 13.6z"/><path opacity=".5" fill="#FFF" d="M847.2 9.5l5.2 3-5.2 3zM840.3 7.8l5.2 3-5.2 3zM843 15.5l5.2 3-5.2 3z"/><g fill="#C0C2C3"><path d="M183.6 233.4h-3.2v-8.7h3.2c2.7 0 4.6 1.9 4.6 4.3s-1.9 4.4-4.6 4.4zm0-7.3h-1.7v5.9h1.7c1.8 0 3-1.2 3-2.9s-1.2-3-3-3zM197.1 226.1h-4.9v2.3h4.3v1.4h-4.3v2.3h5v1.4h-6.5v-8.7h6.4v1.3zM203.7 233.6c-2.5 0-4.4-2-4.4-4.5s1.8-4.5 4.5-4.5c1.6 0 2.6.6 3.4 1.4l-1 1.1c-.7-.6-1.4-1.1-2.4-1.1-1.7 0-2.9 1.4-2.9 3.1s1.2 3.1 2.9 3.1c1.1 0 1.7-.4 2.5-1.1l1 1c-1 .9-2 1.5-3.6 1.5z"/></g><path fill="#C0C2C3" d="M262.4 233.6c-1.2 0-2-.4-2.8-1l.8-1.2c.7.6 1.2.8 2 .8 1.3 0 2-1.1 2.1-2.7-.4.5-1.1.9-2 .9-1.8 0-3.1-1.1-3.1-2.8 0-1.7 1.3-3 3.2-3 1.1 0 1.8.3 2.4.9.6.6 1.1 1.6 1.1 3.3 0 2.8-1.4 4.8-3.7 4.8zm.3-7.7c-1.1 0-1.7.7-1.7 1.6 0 .9.7 1.6 1.8 1.6s1.8-.7 1.8-1.6c-.1-.9-.8-1.6-1.9-1.6z"/><g fill="#C0C2C3"><path d="M323.3 224.7h1.1v8.7h-1.5v-7.2l-1.6.4-.3-1.2 2.3-.7zM328 227.3l-1.1-.8c.8-1.2 1.6-1.8 3.2-1.8 1.7 0 2.9 1.1 2.9 2.6 0 1.4-.7 2.1-2.3 3.4l-1.8 1.5h4.1v1.3h-6.3v-1.2l3-2.5c1.2-1 1.6-1.6 1.6-2.3 0-.9-.6-1.3-1.4-1.3s-1.2.2-1.9 1.1z"/></g><g fill="#C0C2C3"><path d="M389.6 224.7h1.1v8.7h-1.5v-7.2l-1.6.4-.3-1.2 2.3-.7zM393.9 224.7h5.2v1.4h-3.9l-.1 2c.4-.1.8-.2 1.4-.2 1.7 0 3 .9 3 2.7 0 1.8-1.3 2.9-3.2 2.9-1.3 0-2.4-.5-3.2-1.3l.9-1.1c.7.6 1.4 1 2.2 1 1 0 1.7-.6 1.7-1.5s-.7-1.4-1.8-1.4c-.6 0-1.2.2-1.6.4l-.9-.6.3-4.3z"/></g><g fill="#C0C2C3"><path d="M455.9 224.7h1.1v8.7h-1.5v-7.2l-1.6.4-.3-1.2 2.3-.7zM462.7 233.5c-1.9 0-3.3-1-3.3-2.5 0-1.1.6-1.7 1.6-2.1-.7-.4-1.3-1-1.3-1.9 0-1.3 1.3-2.4 3-2.4s3 1 3 2.4c0 1-.5 1.6-1.3 1.9.9.4 1.6 1.1 1.6 2.1 0 1.6-1.4 2.5-3.3 2.5zm0-3.9c-1 0-1.8.5-1.8 1.3 0 .7.7 1.3 1.8 1.3s1.8-.6 1.8-1.3c0-.8-.8-1.3-1.8-1.3zm0-3.7c-.9 0-1.5.5-1.5 1.2 0 .8.7 1.3 1.5 1.3.9 0 1.5-.5 1.5-1.3.1-.7-.5-1.2-1.5-1.2z"/></g><g fill="#C0C2C3"><path d="M521.6 227.3l-1.1-.8c.8-1.2 1.6-1.8 3.2-1.8 1.7 0 2.9 1.1 2.9 2.6 0 1.4-.7 2.1-2.3 3.4l-1.8 1.5h4.1v1.3h-6.3v-1.2l3-2.5c1.2-1 1.6-1.6 1.6-2.3 0-.9-.6-1.3-1.4-1.3s-1.3.2-1.9 1.1zM530.6 224.7h1.1v8.7h-1.5v-7.2l-1.6.4-.3-1.2 2.3-.7z"/></g><path fill="none" stroke="#E3E3E3" stroke-width="3.593" d="M524.4 123.9l-56.9 31.7-57.4-3.6-59.8 17h-57l-59.5 16.3-54.5-7.5"/><circle fill="#8CC63F" cx="524.4" cy="123.7" r="5.2"/><g fill="#8795A2"><path d="M611 180h-1.2v-4l-4.2-6.2h1.4l3.4 5.1 3.5-5.1h1.3l-4.2 6.1v4.1zM618.7 180.1c-2.3 0-3.9-1.8-3.9-3.9s1.7-3.9 3.9-3.9c2.3 0 3.9 1.8 3.9 3.9.1 2.1-1.6 3.9-3.9 3.9zm0-6.8c-1.6 0-2.8 1.3-2.8 2.9 0 1.6 1.2 2.9 2.8 2.9 1.6 0 2.8-1.3 2.8-2.9 0-1.6-1.2-2.9-2.8-2.9zM630 172.4h1.1v7.5H630v-1.3c-.5.8-1.3 1.5-2.6 1.5-1.8 0-2.9-1.2-2.9-3v-4.7h1.1v4.4c0 1.4.8 2.3 2.1 2.3s2.3-.9 2.3-2.4v-4.3zM634.1 171.3h-.5v-1.5h1.3v1.3c0 1.2-.5 1.7-1.6 2l-.2-.5c.8-.3 1.1-.7 1-1.3zM642.8 172.4h1.2l-3.3 7.6h-1l-3.3-7.6h1.2l2.5 6.2 2.7-6.2zM648.6 179.2c1 0 1.8-.4 2.4-1.1l.7.6c-.8.8-1.7 1.4-3.1 1.4-2.1 0-3.8-1.6-3.8-3.9 0-2.2 1.5-3.9 3.6-3.9 2.2 0 3.5 1.8 3.5 4v.3h-6c.2 1.7 1.4 2.6 2.7 2.6zm2.2-3.4c-.1-1.4-.9-2.6-2.4-2.6-1.3 0-2.3 1.1-2.4 2.6h4.8zM659.4 180h-1.1v-7.5h1.1v2c.6-1.3 1.6-2.2 3.1-2.1v1.2h-.1c-1.6 0-3 1.2-3 3.4v3zM669.5 172.4h1.1v7.5h-1.1v-1.3c-.5.8-1.3 1.5-2.6 1.5-1.8 0-2.9-1.2-2.9-3v-4.7h1.1v4.4c0 1.4.8 2.3 2.1 2.3s2.3-.9 2.3-2.4v-4.3zM674.3 180h-1.1v-7.5h1.1v1.3c.5-.8 1.3-1.5 2.6-1.5 1.8 0 2.9 1.2 2.9 3v4.7h-1.1v-4.4c0-1.4-.8-2.3-2.1-2.3s-2.3.9-2.3 2.4v4.3zM690.4 172.5v1H688v6.5h-1.1v-6.5h-1v-1h1v-.7c0-1.6.8-2.5 2.3-2.5.5 0 .9.1 1.2.2v1c-.4-.1-.7-.2-1.1-.2-.9 0-1.3.5-1.3 1.6v.6h2.4zM692 173.9l-.3-.9c.8-.4 1.6-.6 2.7-.6 2.1 0 3.2 1 3.2 3v4.6h-1.1v-1.1c-.5.7-1.4 1.3-2.7 1.3-1.4 0-2.8-.8-2.8-2.4 0-1.6 1.3-2.4 3.2-2.4 1 0 1.6.1 2.3.3v-.3c0-1.4-.8-2.1-2.2-2.1-.9 0-1.6.3-2.3.6zm.2 3.8c0 1 .9 1.5 1.9 1.5 1.4 0 2.5-.8 2.5-2v-.7c-.6-.2-1.3-.3-2.2-.3-1.5 0-2.2.6-2.2 1.5zM701.1 180H700v-7.5h1.1v2c.6-1.3 1.6-2.2 3.1-2.1v1.2h-.1c-1.6 0-3 1.2-3 3.4v3zM707.4 177.8c0 .9.5 1.3 1.3 1.3.4 0 .7-.1 1.1-.3v1c-.4.2-.8.3-1.4.3-1.2 0-2.1-.6-2.1-2.1v-4.5h-1v-1h1v-2.3h1.1v2.3h2.4v1h-2.4v4.3zM712.9 180h-1.1v-10.6h1.1v4.4c.5-.8 1.3-1.5 2.6-1.5 1.8 0 2.9 1.2 2.9 3v4.7h-1.1v-4.4c0-1.4-.8-2.3-2.1-2.3s-2.3.9-2.3 2.4v4.3zM724.1 179.2c1 0 1.8-.4 2.4-1.1l.7.6c-.8.8-1.7 1.4-3.1 1.4-2.1 0-3.8-1.6-3.8-3.9 0-2.2 1.5-3.9 3.6-3.9 2.2 0 3.5 1.8 3.5 4v.3h-6c.2 1.7 1.3 2.6 2.7 2.6zm2.2-3.4c-.1-1.4-.9-2.6-2.4-2.6-1.3 0-2.3 1.1-2.4 2.6h4.8zM730.5 180h-1.1v-7.5h1.1v2c.6-1.3 1.6-2.2 3.1-2.1v1.2h-.1c-1.6 0-3 1.2-3 3.4v3zM741.1 177.8c0 .9.5 1.3 1.3 1.3.4 0 .7-.1 1.1-.3v1c-.4.2-.8.3-1.4.3-1.2 0-2.1-.6-2.1-2.1v-4.5h-1v-1h1v-2.3h1.1v2.3h2.4v1h-2.4v4.3zM746.6 180h-1.1v-10.6h1.1v4.4c.5-.8 1.3-1.5 2.6-1.5 1.8 0 2.9 1.2 2.9 3v4.7H751v-4.4c0-1.4-.8-2.3-2.1-2.3s-2.3.9-2.3 2.4v4.3zM754.9 173.9l-.3-.9c.8-.4 1.6-.6 2.7-.6 2.1 0 3.2 1 3.2 3v4.6h-1.1v-1.1c-.5.7-1.4 1.3-2.7 1.3-1.4 0-2.8-.8-2.8-2.4 0-1.6 1.3-2.4 3.2-2.4 1 0 1.6.1 2.3.3v-.3c0-1.4-.8-2.1-2.2-2.1-.9 0-1.6.3-2.3.6zm.1 3.8c0 1 .9 1.5 1.9 1.5 1.4 0 2.5-.8 2.5-2v-.7c-.6-.2-1.3-.3-2.2-.3-1.4 0-2.2.6-2.2 1.5zM764 180h-1.1v-7.5h1.1v1.3c.5-.8 1.3-1.5 2.6-1.5 1.8 0 2.9 1.2 2.9 3v4.7h-1.1v-4.4c0-1.4-.8-2.3-2.1-2.3s-2.3.9-2.3 2.4v4.3zM608.1 190.4h.8v10.3h-1.1v-9.1l-1.9.6-.3-.9 2.5-.9zM612.2 190.4h5.9v1.1h-4.9l-.2 3.3c.6-.3 1.2-.5 2-.5 2 0 3.5 1.2 3.5 3.1 0 2-1.5 3.4-3.6 3.4-1.5 0-2.7-.7-3.6-1.6l.8-.8c.9.9 1.9 1.4 2.9 1.4 1.5 0 2.5-1 2.5-2.3 0-1.3-1-2.2-2.5-2.2-.9 0-1.5.3-2.1.6l-.8-.5.1-5zM628.9 193.1v1h-2.4v6.5h-1.1v-6.5h-1v-1h1v-.7c0-1.6.8-2.5 2.3-2.5.5 0 .9.1 1.2.2v1c-.4-.1-.7-.2-1.1-.2-.9 0-1.3.5-1.3 1.6v.6h2.4zM633.6 200.8c-2.3 0-3.9-1.8-3.9-3.9s1.7-3.9 3.9-3.9c2.3 0 3.9 1.8 3.9 3.9 0 2.1-1.7 3.9-3.9 3.9zm0-6.9c-1.6 0-2.8 1.3-2.8 2.9 0 1.6 1.2 2.9 2.8 2.9 1.6 0 2.8-1.3 2.8-2.9 0-1.6-1.2-2.9-2.8-2.9zM643 200.8c-2.3 0-3.9-1.8-3.9-3.9s1.7-3.9 3.9-3.9c2.3 0 3.9 1.8 3.9 3.9 0 2.1-1.7 3.9-3.9 3.9zm0-6.9c-1.6 0-2.8 1.3-2.8 2.9 0 1.6 1.2 2.9 2.8 2.9 1.6 0 2.8-1.3 2.8-2.9 0-1.6-1.2-2.9-2.8-2.9zM650.5 198.5c0 .9.5 1.3 1.3 1.3.4 0 .7-.1 1.1-.3v1c-.4.2-.8.3-1.4.3-1.2 0-2.1-.6-2.1-2.1v-4.5h-1v-1h1v-2.3h1.1v2.3h2.4v1h-2.4v4.3zM658.8 200.8c-1.4 0-2.3-.8-2.9-1.6v1.4h-1.1V190h1.1v4.6c.6-.9 1.5-1.7 2.9-1.7 1.8 0 3.6 1.4 3.6 3.9s-1.8 4-3.6 4zm-.2-6.9c-1.4 0-2.7 1.2-2.7 2.9 0 1.8 1.3 2.9 2.7 2.9 1.5 0 2.6-1.1 2.6-2.9.1-1.7-1.2-2.9-2.6-2.9zM664.9 194.5l-.3-.9c.8-.4 1.6-.6 2.7-.6 2.1 0 3.2 1 3.2 3v4.6h-1.1v-1.1c-.5.7-1.4 1.3-2.7 1.3-1.4 0-2.8-.8-2.8-2.4 0-1.6 1.3-2.4 3.2-2.4 1 0 1.6.1 2.3.3v-.3c0-1.4-.8-2.1-2.2-2.1-.9.1-1.6.3-2.3.6zm.1 3.9c0 1 .9 1.5 1.9 1.5 1.4 0 2.5-.8 2.5-2v-.7c-.6-.2-1.3-.3-2.2-.3-1.4-.1-2.2.5-2.2 1.5zM673 200.6V190h1.1v10.6H673zM676.8 200.6V190h1.1v10.6h-1.1zM688.8 193.1v1h-2.4v6.5h-1.1v-6.5h-1v-1h1v-.7c0-1.6.8-2.5 2.3-2.5.5 0 .9.1 1.2.2v1c-.4-.1-.7-.2-1.1-.2-.9 0-1.3.5-1.3 1.6v.6h2.4zM690.3 191.5v-1.2h1.3v1.2h-1.3zm.1 9.1v-7.5h1.1v7.5h-1.1zM697.4 199.8c1 0 1.8-.4 2.4-1.1l.7.6c-.8.8-1.7 1.4-3.1 1.4-2.1 0-3.8-1.6-3.8-3.9 0-2.2 1.5-3.9 3.6-3.9 2.2 0 3.5 1.8 3.5 4v.3h-6c.2 1.7 1.4 2.6 2.7 2.6zm2.2-3.4c-.1-1.4-.9-2.6-2.4-2.6-1.3 0-2.3 1.1-2.4 2.6h4.8zM702.8 200.6V190h1.1v10.6h-1.1zM712.6 200.6v-1.5c-.6.9-1.5 1.7-2.9 1.7-1.8 0-3.6-1.4-3.6-3.9s1.8-3.9 3.6-3.9c1.4 0 2.3.8 2.9 1.6V190h1.1v10.6h-1.1zm-2.7-6.7c-1.5 0-2.6 1.1-2.6 2.9 0 1.8 1.2 2.9 2.6 2.9 1.4 0 2.7-1.2 2.7-2.9s-1.3-2.9-2.7-2.9zM718.7 200.8c-1.1 0-2.3-.4-3.1-1.1l.6-.8c.8.6 1.7 1 2.6 1 .9 0 1.6-.5 1.6-1.2 0-.8-.9-1-1.9-1.3-1.2-.3-2.5-.7-2.5-2.1 0-1.3 1.1-2.2 2.6-2.2.9 0 1.9.3 2.7.8l-.5.8c-.7-.5-1.5-.7-2.2-.7-.9 0-1.5.5-1.5 1.1 0 .7.9 1 1.9 1.3 1.2.3 2.4.8 2.4 2.2 0 1.3-1.2 2.2-2.7 2.2zM723.5 200.6v-1.5h1.3v1.5h-1.3zm1.3-10.2v.8l-.3 6.5h-.6l-.3-6.5v-.8h1.2z"/></g><g fill="#8795A2"><path d="M605.8 146.3l1.4-.3c.3-.1.5 0 .6.3.6 2 2.2 4.3 5.9 4.3 3.6 0 5.9-2.5 5.9-6 0-3.6-2.4-6.1-6.1-6.1h-1.3c-.3 0-.4-.2-.4-.4v-1.4c0-.3.2-.4.4-.4h1.3c3.3 0 5.5-2.3 5.5-5.5s-2-5.4-5.4-5.4c-3.3 0-4.9 2-5.4 4.1 0 .3-.3.4-.5.3l-1.4-.4c-.3 0-.4-.3-.3-.5.6-3 3.1-5.8 7.7-5.8 4.7 0 7.7 3.1 7.7 7.5 0 3.4-2 5.4-3.9 6.5v.1c1.9.8 4.4 3.1 4.4 7.3 0 4.9-3.3 8.3-8.2 8.3s-7.5-2.9-8.1-5.9c-.1-.3 0-.5.2-.6zM628.2 138c0-6.9.3-8.6.6-9.7 1.1-3.3 3.8-5.2 7.4-5.2s6.3 1.8 7.4 5.2c.3 1 .6 2.8.6 9.7 0 6.9-.3 8.6-.6 9.7-1.1 3.3-3.8 5.2-7.4 5.2s-6.3-1.8-7.4-5.2c-.3-1.1-.6-2.8-.6-9.7zm8 12.7c2.5 0 4.4-1.1 5.2-3.5.3-.9.6-2.5.6-9.1s-.3-8.2-.6-9.1c-.8-2.4-2.6-3.5-5.2-3.5-2.5 0-4.4 1.1-5.2 3.5-.3.9-.6 2.5-.6 9.1s.3 8.2.6 9.1c.9 2.4 2.7 3.5 5.2 3.5zM688.4 152.4c-.3 0-.4-.2-.4-.4v-12c0-4-1.8-6.1-5.3-6.1-3.1 0-5.5 2.1-5.5 5.6V152c0 .3-.2.4-.4.4h-1.4c-.3 0-.4-.2-.4-.4v-12c0-4-1.8-6.1-5.3-6.1-3.1 0-5.5 2.1-5.5 5.6V152c0 .3-.2.4-.4.4h-1.4c-.3 0-.4-.2-.4-.4v-19.4c0-.3.2-.4.4-.4h1.4c.3 0 .4.2.4.4v2.4c1-2 3.1-3.3 6-3.3 3.1 0 5.2 1.3 6.3 3.8 1.2-2.3 3.3-3.8 6.6-3.8 4.6 0 7.2 2.8 7.2 7.7V152c0 .3-.2.4-.4.4h-1.5zM698 126.8c-.3 0-.4-.2-.4-.4V124c0-.3.2-.4.4-.4h1.9c.3 0 .4.2.4.4v2.4c0 .3-.2.4-.4.4H698zm.2 25.6c-.3 0-.4-.2-.4-.4v-19.4c0-.3.2-.4.4-.4h1.4c.3 0 .4.2.4.4V152c0 .3-.2.4-.4.4h-1.4z"/></g><g><g fill="#8795A2"><path d="M63.7 159.6h-2.5v3.6H60V153h3.8c2.3 0 3.8 1.2 3.8 3.2.1 2.3-1.8 3.4-3.9 3.4zm.1-5.5h-2.6v4.5h2.5c1.7 0 2.8-.9 2.8-2.3 0-1.5-1.1-2.2-2.7-2.2zM69.9 157.1l-.3-.9c.8-.4 1.6-.6 2.7-.6 2.1 0 3.2 1 3.2 3v4.6h-1.1v-1.1c-.5.7-1.4 1.3-2.7 1.3-1.4 0-2.8-.8-2.8-2.4 0-1.6 1.3-2.4 3.2-2.4 1 0 1.6.1 2.3.3v-.3c0-1.4-.8-2.1-2.2-2.1-.9.1-1.6.3-2.3.6zm.1 3.9c0 1 .9 1.5 1.9 1.5 1.4 0 2.5-.8 2.5-2v-.7c-.6-.2-1.3-.3-2.2-.3-1.4-.1-2.2.5-2.2 1.5zM80.3 163.4c-1.1 0-2.3-.4-3.1-1.1l.6-.8c.8.6 1.7 1 2.6 1 .9 0 1.6-.5 1.6-1.2 0-.8-.9-1-1.9-1.3-1.2-.3-2.5-.7-2.5-2.1 0-1.3 1.1-2.2 2.6-2.2.9 0 1.9.3 2.7.8l-.5.8c-.7-.5-1.5-.7-2.2-.7-.9 0-1.5.5-1.5 1.1 0 .7.9 1 1.9 1.3 1.2.3 2.4.8 2.4 2.2 0 1.3-1.2 2.2-2.7 2.2zM86.5 161.1c0 .9.5 1.3 1.3 1.3.4 0 .7-.1 1.1-.3v1c-.4.2-.8.3-1.4.3-1.2 0-2.1-.6-2.1-2.1v-4.5h-1v-1h1v-2.3h1.1v2.3h2.4v1h-2.4v4.3zM95.7 155.7l-.8-.6c.9-1.4 1.9-2.2 3.7-2.2 1.8 0 3.2 1.2 3.2 2.9 0 1.5-.8 2.4-2.6 4l-2.7 2.4h5.4v1h-7.1v-.9l3.7-3.3c1.6-1.4 2.1-2.2 2.1-3.2 0-1.2-.9-2-2.1-2-1.3.1-2 .7-2.8 1.9zM114.6 153h.9l2.8 8.5 2.9-8.5h1.2l-3.6 10.3h-1L115 155l-2.8 8.3h-1l-3.6-10.3h1.3l2.9 8.5 2.8-8.5zM126.7 162.4c1 0 1.8-.4 2.4-1.1l.7.6c-.8.8-1.7 1.4-3.1 1.4-2.1 0-3.8-1.6-3.8-3.9 0-2.2 1.5-3.9 3.6-3.9 2.2 0 3.5 1.8 3.5 4v.3h-6c.3 1.7 1.4 2.6 2.7 2.6zm2.2-3.4c-.1-1.4-.9-2.6-2.4-2.6-1.3 0-2.3 1.1-2.4 2.6h4.8zM135.4 162.4c1 0 1.8-.4 2.4-1.1l.7.6c-.8.8-1.7 1.4-3.1 1.4-2.1 0-3.8-1.6-3.8-3.9 0-2.2 1.5-3.9 3.6-3.9 2.2 0 3.5 1.8 3.5 4v.3h-6c.2 1.7 1.3 2.6 2.7 2.6zm2.2-3.4c-.1-1.4-.9-2.6-2.4-2.6-1.3 0-2.3 1.1-2.4 2.6h4.8zM147.3 163.2H146l-2.7-3.5-1.5 1.5v2h-1.1v-10.6h1.1v7.3l4.1-4.2h1.4l-3.2 3.2 3.2 4.3zM151.4 163.4c-1.1 0-2.3-.4-3.1-1.1l.6-.8c.8.6 1.7 1 2.6 1 .9 0 1.6-.5 1.6-1.2 0-.8-.9-1-1.9-1.3-1.2-.3-2.5-.7-2.5-2.1 0-1.3 1.1-2.2 2.6-2.2.9 0 1.9.3 2.7.8l-.5.8c-.7-.5-1.5-.7-2.2-.7-.9 0-1.5.5-1.5 1.1 0 .7.9 1 1.9 1.3 1.2.3 2.4.8 2.4 2.2 0 1.3-1.2 2.2-2.7 2.2z"/></g></g><path fill="none" stroke="#8795A2" stroke-width="1.266" d="M45.8 156l-7.9 6.2-7.8-6.2"/><g><path opacity=".9" fill="#8CC63F" d="M291.3 97.6c-15.1 0-27.4 12.3-27.4 27.4 0 12.4 8.2 22.8 19.5 26.2l7.9 9.3 7.9-9.3c11.3-3.4 19.5-13.8 19.5-26.2 0-15.2-12.3-27.4-27.4-27.4z"/></g><g fill="#FFF"><path d="M284 116.6l-3.4 2.3c-.1.1-.3.1-.3-.2v-1.1c0-.2.1-.3.2-.4l3.4-2.4c.1-.1.2-.2.4-.2h.9c.2 0 .3.1.3.3v17.7c0 .2-.1.3-.3.3h-.9c-.2 0-.3-.1-.3-.3v-16zM293.5 129l.9-.2c.2-.1.3 0 .3.2.4 1.3 1.4 2.7 3.8 2.7 2.3 0 3.7-1.6 3.7-3.8 0-2.3-1.5-3.9-3.8-3.9h-.8c-.2 0-.3-.1-.3-.3v-.9c0-.2.1-.3.3-.3h.8c2.1 0 3.5-1.4 3.5-3.5 0-2-1.3-3.4-3.4-3.4-2.1 0-3.1 1.3-3.4 2.6 0 .2-.2.2-.3.2l-.9-.2c-.2 0-.2-.2-.2-.3.3-1.9 2-3.7 4.9-3.7 3 0 4.9 2 4.9 4.8 0 2.1-1.3 3.4-2.4 4.1v.1c1.2.5 2.8 2 2.8 4.6 0 3.1-2.1 5.2-5.2 5.2s-4.7-1.9-5.1-3.8c-.3 0-.3-.1-.1-.2z"/></g></svg>