<?xml version="1.0" encoding="utf-8"?>
<!-- Generator: Adobe Illustrator 16.0.0, SVG Export Plug-In . SVG Version: 6.00 Build 0)  -->
<!DOCTYPE svg PUBLIC "-//W3C//DTD SVG 1.1//EN" "http://www.w3.org/Graphics/SVG/1.1/DTD/svg11.dtd">
<svg version="1.1" id="Layer_1" xmlns="http://www.w3.org/2000/svg" xmlns:xlink="http://www.w3.org/1999/xlink" x="0px" y="0px"
	 width="680px" height="306px" viewBox="0 0 680 306" enable-background="new 0 0 680 306" xml:space="preserve">
<polyline fill="#FFFFFF" points="680,0 680,306 0,306 0,0 "/>
<g>
	<g>
		<g>
			<g>
				<g>
					<path fill="#B0BEC5" d="M122.458,180.356c-6.855,0-13.3-2.671-18.147-7.519c-10.004-10.007-10.004-26.288,0-36.292
						c4.848-4.847,11.292-7.518,18.147-7.518c6.854,0,13.3,2.671,18.146,7.518c10.006,10.004,10.006,26.285,0,36.292
						C135.758,177.686,129.312,180.356,122.458,180.356z M122.458,137.495c-4.594,0-8.912,1.79-12.16,5.037
						c-6.704,6.704-6.704,17.615,0,24.32c3.248,3.25,7.566,5.037,12.16,5.037s8.912-1.787,12.16-5.037
						c6.704-6.705,6.704-17.616,0-24.32C131.368,139.285,127.051,137.495,122.458,137.495z"/>
				</g>
				<g>
					<path fill-rule="evenodd" clip-rule="evenodd" fill="#B0BEC5" d="M127.231,159.465c-2.638,2.635-6.91,2.635-9.546,0
						c-2.638-2.637-2.638-6.91,0-9.545c2.636-2.639,6.909-2.639,9.546,0C129.868,152.555,129.868,156.828,127.231,159.465z"/>
				</g>
			</g>
			<polygon fill="#B0BEC5" points="220.922,156.363 271.691,125.418 252.087,183.507 242.034,159.379 			"/>
			<path fill="#B0BEC5" d="M387.762,127.025c-3.828-4.098-9.25-6.448-14.874-6.448c-5.179,0-10.11,1.943-13.888,5.472
				c-2.894,2.704-4.922,6.159-5.865,9.991c-1.65,6.71,0.178,13.728,4.891,18.773c1.007,1.076,2.128,2.041,3.341,2.873l11.907,24.673
				l8.845-23.305c1.702-0.864,3.269-1.96,4.669-3.267c2.895-2.704,4.923-6.159,5.866-9.992
				C394.304,139.083,392.476,132.065,387.762,127.025z M383.357,143.508c-0.497,2.024-1.571,3.852-3.104,5.286
				c-2,1.868-4.612,2.897-7.356,2.897c-3.024,0-5.821-1.212-7.878-3.413c-2.496-2.672-3.464-6.392-2.59-9.951
				c0.497-2.024,1.571-3.852,3.106-5.286c1.999-1.867,4.611-2.896,7.355-2.896c2.98,0,5.852,1.244,7.88,3.412
				C383.267,136.229,384.234,139.949,383.357,143.508z"/>
		</g>
		<g>
			<path fill="#B0BEC5" d="M183.607,146.715h2.791v3.539h3.559v2.713h-3.559v3.539h-2.791v-3.539h-3.558v-2.713h3.558V146.715z"/>
		</g>
		<g>
			<path fill="#B0BEC5" d="M311.748,146.715h2.792v3.539h3.558v2.713h-3.558v3.539h-2.792v-3.539h-3.559v-2.713h3.559V146.715z"/>
		</g>
	</g>
	<g>
		<path fill-rule="evenodd" clip-rule="evenodd" fill="#B0BEC5" d="M583.193,135.422l-37.935,0.003
			c-1.98-2.47-4.371-4.673-7.16-6.493c-5.012-3.269-10.812-4.996-16.774-4.996c-10.438,0-20.074,5.216-25.771,13.949
			c-9.259,14.197-5.242,33.281,8.952,42.541c5.012,3.271,10.812,4.998,16.773,4.998c10.439,0,20.073-5.215,25.772-13.949
			c1.38-2.115,2.458-4.342,3.259-6.627L583.193,135.422z M538.557,165.936c-3.818,5.852-10.277,9.348-17.277,9.348
			c-3.988,0-7.873-1.158-11.232-3.35c-9.514-6.207-12.202-18.994-5.999-28.507c3.818-5.854,10.278-9.349,17.276-9.349
			c3.99,0,7.874,1.158,11.232,3.35C542.069,143.633,544.761,156.424,538.557,165.936z"/>
		<g>
			<path fill-rule="evenodd" clip-rule="evenodd" fill="#B0BEC5" d="M514.068,161.457l15.473-13.635
				c-0.511-0.616-1.093-1.186-1.763-1.685c-4.57-3.412-11.039-2.471-14.451,2.1C510.293,152.308,510.714,157.875,514.068,161.457z"
				/>
		</g>
	</g>
	<g>
		<path fill="#B0BEC5" d="M438.233,150.566h10.789v2.742h-10.789V150.566z M438.233,156.051h10.789v2.744h-10.789V156.051z"/>
	</g>
</g>
</svg>
