<svg xmlns="http://www.w3.org/2000/svg" xmlns:xlink="http://www.w3.org/1999/xlink" viewBox="0 0 799.67 233.22"><defs><linearGradient id="a" x1="703.36" y1="143.3" x2="766.11" y2="143.3" gradientUnits="userSpaceOnUse"><stop offset="0" stop-color="#1e91cf"/><stop offset=".13" stop-color="#1d99d8"/><stop offset=".58" stop-color="#1cb2f4"/><stop offset=".84" stop-color="#1bbbff"/></linearGradient><linearGradient id="e" x1="766.01" y1="118.44" x2="776.27" y2="118.44" xlink:href="#a"/><linearGradient id="b" x1="741.73" y1="73.93" x2="766.01" y2="73.93" gradientUnits="userSpaceOnUse"><stop offset="0" stop-color="#e9f2f4" stop-opacity=".5"/><stop offset="1" stop-color="#90b3c8" stop-opacity=".5"/></linearGradient><linearGradient id="f" x1="755.85" y1="143.29" x2="776.38" y2="143.29" xlink:href="#b"/><linearGradient id="g" x1="4579.35" y1="147.91" x2="4606.29" y2="147.91" gradientTransform="matrix(-1 0 0 1 4607.18 0)" gradientUnits="userSpaceOnUse"><stop offset="0" stop-color="#d2dfe9" stop-opacity="0"/><stop offset=".56" stop-color="#e3f2fd" stop-opacity=".25"/></linearGradient><linearGradient id="h" x1="434.06" y1="177.18" x2="434.06" y2="140.57" gradientUnits="userSpaceOnUse"><stop offset="0" stop-color="#4870a8"/><stop offset="1" stop-color="#254f73"/></linearGradient><linearGradient id="c" x1="76.07" y1="58.1" x2="102.86" y2="58.1" gradientUnits="userSpaceOnUse"><stop offset="0" stop-color="#254f73"/><stop offset="1" stop-color="#28568c"/></linearGradient><linearGradient id="i" x1="76.07" y1="43.99" x2="102.86" y2="43.99" xlink:href="#c"/><linearGradient id="j" x1="4330.54" y1="-5199.2" x2="4357.33" y2="-5199.2" gradientTransform="rotate(180 2216.7 -2574.08)" xlink:href="#c"/><linearGradient id="k" x1="4330.54" y1="-5206.26" x2="4357.33" y2="-5206.26" gradientTransform="rotate(180 2216.7 -2574.08)" xlink:href="#c"/><linearGradient id="l" x1="4330.54" y1="-5213.32" x2="4357.33" y2="-5213.32" gradientTransform="rotate(180 2216.7 -2574.08)" xlink:href="#c"/><linearGradient id="m" x1="4330.54" y1="-5220.38" x2="4357.33" y2="-5220.38" gradientTransform="rotate(180 2216.7 -2574.08)" xlink:href="#c"/><linearGradient id="n" x1="79.13" y1="76.26" x2="79.13" y2="11.53" gradientUnits="userSpaceOnUse"><stop offset="0" stop-color="#fafafa" stop-opacity=".5"/><stop offset="1" stop-color="#90b3c8" stop-opacity=".15"/></linearGradient><linearGradient id="o" x1="69.22" y1="22.48" x2="89.39" y2="22.48" xlink:href="#c"/><linearGradient id="p" x1="69.22" y1="27.52" x2="79.3" y2="27.52" xlink:href="#a"/><linearGradient id="q" x1="79.3" y1="17.43" x2="89.39" y2="17.43" xlink:href="#a"/><linearGradient id="d" x1="29.83" y1="188.9" x2="29.83" y2="139.11" gradientUnits="userSpaceOnUse"><stop offset="0" stop-color="#fff" stop-opacity=".45"/><stop offset=".99" stop-color="#fff" stop-opacity=".75"/></linearGradient><linearGradient id="r" x1="633.77" y1="204.33" x2="633.77" y2="197.45" xlink:href="#d"/><linearGradient id="s" x1="763.88" y1="161.19" x2="799.67" y2="161.19" xlink:href="#d"/><linearGradient id="t" x1="758.12" y1="212.04" x2="776.68" y2="212.04" xlink:href="#a"/><linearGradient id="u" x1="4918.01" y1="83.21" x2="4953.8" y2="83.21" gradientTransform="matrix(-1 0 0 1 4965.63 0)" xlink:href="#d"/><linearGradient id="v" x1="732.3" y1="182.72" x2="742.07" y2="182.72" xlink:href="#b"/><linearGradient id="w" x1="3370.99" y1="98.6" x2="3412.83" y2="98.6" gradientTransform="rotate(19 1841.175 -8052.364)" gradientUnits="userSpaceOnUse"><stop offset=".19" stop-color="#fff" stop-opacity="0"/><stop offset=".72" stop-color="#fff" stop-opacity=".18"/><stop offset="1" stop-color="#fff" stop-opacity=".25"/></linearGradient><linearGradient id="x" x1="4087.61" y1="147.23" x2="4104.28" y2="147.23" gradientTransform="rotate(-152 2408.65 429.5)" gradientUnits="userSpaceOnUse"><stop offset="0" stop-color="#1b6d9b" stop-opacity=".95"/><stop offset="1" stop-color="#1a7ec1"/></linearGradient></defs><path fill="url(#a)" d="M703.36 138.17h62.75v10.26h-62.75z"/><path fill="#254f73" d="M703.36 148.43h62.75v10.25h-62.75z"/><path fill="url(#e)" d="M766.01 88.46h10.26v59.96h-10.26z"/><path fill="#254f73" d="M755.76 88.46h10.25v60.41h-10.25z"/><path d="M766 96.14a24.31 24.31 0 0 0 24.3-24.28V51.71h-13.88v20.15a10.41 10.41 0 1 1-20.82 0V51.71h-13.87v20.15A24.31 24.31 0 0 0 766 96.14z" fill="#e9f2f4"/><path d="M755.6 51.71v20.15A10.42 10.42 0 0 0 766 82.27v13.87a24.31 24.31 0 0 1-24.29-24.28V51.71z" fill="url(#b)"/><circle cx="766.12" cy="148.42" r="10.27" transform="rotate(-89 766.12 148.41)" fill="#e6e6e6"/><path d="M766.22 138.15a10.26 10.26 0 0 1 10.17 10.27h-20.54v-.1a10.27 10.27 0 0 1 10.37-10.17z" fill="url(#f)"/><rect x=".89" y="123.79" width="42.29" height="83.03" rx="4.07" ry="4.07" fill="#1bbbff"/><path d="M.89 127.86A4.07 4.07 0 0 1 5 123.79h22.83L.89 172z" fill="url(#g)"/><path d="M.89 202.75A4.08 4.08 0 0 0 5 206.82h34.11a4.08 4.08 0 0 0 4.07-4.07v-4.52H.89zM43.18 127.86a4.07 4.07 0 0 0-4.07-4.07H5a4.07 4.07 0 0 0-4.07 4.07v4.3h42.25z" fill="#255d80"/><path d="M43.18 198.23h10.07v-53.4a6 6 0 0 0-6-6h-4.07z" fill="#e3f2fd"/><path fill="#1b80bf" d="M53.25 165.57h7.47v32.67h-7.47z"/><path d="M0 198.23h8.47a4.62 4.62 0 0 0 4.62-4.62v-.94A4.62 4.62 0 0 0 8.47 188H0zM0 172.78h8.47a4.62 4.62 0 0 0 4.62-4.62v-.94a4.62 4.62 0 0 0-4.62-4.62H0zM0 185.5h8.47a4.62 4.62 0 0 0 4.62-4.62v-.94a4.62 4.62 0 0 0-4.62-4.62H0zM0 160.06h8.47a4.62 4.62 0 0 0 4.62-4.62v-.94a4.62 4.62 0 0 0-4.62-4.62H0z" fill="#e3f2fd"/><path fill="#255d80" d="M60.71 165.57h23.61v19.83H60.71z"/><path fill="#254f73" d="M60.71 184.51h23.61v13.72H60.71z"/><path d="M162 38.11l-2.63-10.28-2.6 10.28h-3.39l-4.29-15h3.57L155.34 34l2.85-10.82h2.49L163.51 34l2.63-10.82h3.57l-4.27 15zM169.89 32.68A5.53 5.53 0 0 1 175.5 27c3.26 0 5.43 2.42 5.43 5.95v.67h-8.06A2.91 2.91 0 0 0 176 36a4.54 4.54 0 0 0 2.86-1l1.28 1.89a6.75 6.75 0 0 1-4.47 1.5 5.49 5.49 0 0 1-5.78-5.71zm5.61-3.34a2.5 2.5 0 0 0-2.65 2.31h5.34a2.48 2.48 0 0 0-2.69-2.32zM188.74 32.68a5.53 5.53 0 0 1 5.61-5.68c3.25 0 5.43 2.42 5.43 5.95v.67h-8.06a2.91 2.91 0 0 0 3.13 2.38 4.53 4.53 0 0 0 2.87-1l1.28 1.88a6.76 6.76 0 0 1-4.47 1.5 5.49 5.49 0 0 1-5.79-5.7zm5.61-3.34a2.5 2.5 0 0 0-2.65 2.31h5.3a2.48 2.48 0 0 0-2.65-2.32zM215.64 38.11v-6.85c0-1-.45-1.73-1.62-1.73a2.88 2.88 0 0 0-2.25 1.26v7.32h-2.87v-6.85c0-1-.45-1.73-1.62-1.73a3 3 0 0 0-2.28 1.26v7.32h-2.85V27.27H205v1.39a4.86 4.86 0 0 1 3.59-1.66 2.86 2.86 0 0 1 3 2 4.64 4.64 0 0 1 3.73-2c2 0 3.19 1.05 3.19 3.28v7.83zM224.53 36.72v5.52h-2.85v-15h2.85v1.37a4.19 4.19 0 0 1 3.34-1.61c2.78 0 4.8 2.06 4.8 5.68s-2 5.7-4.8 5.7a4.17 4.17 0 0 1-3.34-1.66zm5.21-4c0-1.86-1.12-3.14-2.76-3.14a3.16 3.16 0 0 0-2.45 1.23v3.82a3.21 3.21 0 0 0 2.47 1.21c1.61 0 2.73-1.28 2.73-3.16zM234.41 32.68a5.74 5.74 0 0 1 11.47 0 5.73 5.73 0 0 1-11.47 0zm8.51 0a2.79 2.79 0 1 0-5.54 0c0 1.71 1 3.16 2.76 3.16s2.77-1.46 2.77-3.16zM257.86 38.11l-2.29-7.38-2.29 7.38h-3.05l-3.3-10.84h3l2 7.3 2.38-7.3h2.54l2.38 7.3 2-7.3h3l-3.3 10.84zM265.27 32.68a5.53 5.53 0 0 1 5.62-5.68c3.26 0 5.43 2.42 5.43 5.95v.67h-8.06a2.91 2.91 0 0 0 3.12 2.38 4.54 4.54 0 0 0 2.87-1l1.28 1.89a6.76 6.76 0 0 1-4.47 1.5 5.49 5.49 0 0 1-5.79-5.71zm5.61-3.34a2.5 2.5 0 0 0-2.65 2.31h5.34a2.48 2.48 0 0 0-2.68-2.32zM278.72 38.11V27.27h2.85v1.46A4.75 4.75 0 0 1 285 27v2.78a3.59 3.59 0 0 0-.79-.07 3.63 3.63 0 0 0-2.67 1.23v7.16zM292.55 32.68a5.53 5.53 0 0 1 5.61-5.68c3.26 0 5.43 2.42 5.43 5.95v.67h-8.06a2.91 2.91 0 0 0 3.12 2.38 4.54 4.54 0 0 0 2.88-1l1.28 1.89a6.76 6.76 0 0 1-4.47 1.5 5.49 5.49 0 0 1-5.79-5.71zm5.61-3.34a2.5 2.5 0 0 0-2.65 2.31h5.34a2.48 2.48 0 0 0-2.69-2.32zM313.31 38.11v-6.55a1.76 1.76 0 0 0-2-2 3.17 3.17 0 0 0-2.47 1.26v7.32H306V27.27h2.85v1.39a5.07 5.07 0 0 1 3.79-1.66c2.4 0 3.54 1.35 3.54 3.46v7.65zM319.92 35.39v-5.63h-1.8v-2.49h1.8v-3h2.85v3H325v2.49h-2.2v4.87c0 .7.36 1.21 1 1.21a1.43 1.43 0 0 0 1-.34l.61 2.18a3.53 3.53 0 0 1-2.38.7c-2.03 0-3.11-1.03-3.11-2.99zM327.26 38.11V27.27h2.85v1.46a4.75 4.75 0 0 1 3.45-1.73v2.78a3.68 3.68 0 0 0-3.46 1.17v7.16zM335 32.68a5.53 5.53 0 0 1 5.59-5.68c3.25 0 5.43 2.42 5.43 5.95v.67H338a2.91 2.91 0 0 0 3.08 2.38 4.54 4.54 0 0 0 2.92-1l1.28 1.89a6.76 6.76 0 0 1-4.47 1.5 5.49 5.49 0 0 1-5.81-5.71zm5.61-3.34a2.5 2.5 0 0 0-2.65 2.31h5.34a2.48 2.48 0 0 0-2.71-2.32zM351.28 36.72v5.52h-2.85v-15h2.85v1.37a4.19 4.19 0 0 1 3.34-1.61c2.78 0 4.8 2.06 4.8 5.68s-2 5.7-4.8 5.7a4.17 4.17 0 0 1-3.34-1.66zm5.21-4c0-1.86-1.12-3.14-2.76-3.14a3.16 3.16 0 0 0-2.45 1.23v3.82a3.22 3.22 0 0 0 2.45 1.26c1.63-.05 2.75-1.33 2.75-3.21zM361.85 38.11V27.27h2.85v1.46a4.76 4.76 0 0 1 3.46-1.73v2.78a3.68 3.68 0 0 0-3.46 1.17v7.16zM369.57 32.68a5.53 5.53 0 0 1 5.61-5.68c3.25 0 5.43 2.42 5.43 5.95v.67h-8.06a2.9 2.9 0 0 0 3.13 2.38 4.53 4.53 0 0 0 2.87-1l1.28 1.89a6.76 6.76 0 0 1-4.47 1.5 5.49 5.49 0 0 1-5.79-5.71zm5.61-3.34a2.5 2.5 0 0 0-2.65 2.31h5.34a2.48 2.48 0 0 0-2.69-2.32zM390.34 38.11v-6.55a1.76 1.76 0 0 0-2-2 3.17 3.17 0 0 0-2.47 1.26v7.32H383V27.27h2.85v1.39a5.07 5.07 0 0 1 3.81-1.66c2.4 0 3.55 1.35 3.55 3.46v7.65zM395.66 32.68a5.53 5.53 0 0 1 5.61-5.68c3.25 0 5.43 2.42 5.43 5.95v.67h-8.06a2.9 2.9 0 0 0 3.13 2.38 4.54 4.54 0 0 0 2.87-1l1.28 1.89a6.76 6.76 0 0 1-4.47 1.5 5.49 5.49 0 0 1-5.79-5.71zm5.61-3.34a2.5 2.5 0 0 0-2.65 2.31H404a2.48 2.48 0 0 0-2.73-2.32zM416.42 38.11v-1.37a5.16 5.16 0 0 1-3.82 1.64c-2.38 0-3.5-1.3-3.5-3.41v-7.7h2.9v6.58a1.74 1.74 0 0 0 2 2 3.19 3.19 0 0 0 2.47-1.23v-7.35h2.85v10.84zM422.44 38.11V27.27h2.85v1.46a4.75 4.75 0 0 1 3.46-1.73v2.78a3.68 3.68 0 0 0-3.46 1.17v7.16zM429.92 36.69l1.24-2.06a6.14 6.14 0 0 0 3.75 1.5c1.24 0 1.82-.47 1.82-1.14 0-1.77-6.42-.31-6.42-4.58 0-1.82 1.57-3.41 4.44-3.41a6.91 6.91 0 0 1 4.35 1.48l-1.14 2a4.67 4.67 0 0 0-3.21-1.26c-1 0-1.71.45-1.71 1.05 0 1.59 6.44.25 6.44 4.62 0 2-1.71 3.46-4.71 3.46a7.3 7.3 0 0 1-4.85-1.66zM454.52 38.11V37a4.41 4.41 0 0 1-3.43 1.41 3.6 3.6 0 0 1-3.75-3.59c0-2.56 2-3.5 3.75-3.5a4.42 4.42 0 0 1 3.43 1.32v-1.4c0-1.1-.94-1.82-2.38-1.82A4.56 4.56 0 0 0 449 30.7l-1.12-2a7 7 0 0 1 4.75-1.7c2.49 0 4.76 1 4.76 4.11v7zm0-2.6v-1.35a2.86 2.86 0 0 0-2.29-1c-1.12 0-2 .61-2 1.64s.92 1.62 2 1.62a2.85 2.85 0 0 0 2.29-.91zM467.86 38.11v-6.55a1.76 1.76 0 0 0-2-2 3.17 3.17 0 0 0-2.47 1.26v7.32h-2.85V27.27h2.85v1.39a5.07 5.07 0 0 1 3.79-1.66c2.4 0 3.54 1.35 3.54 3.46v7.65zM481.33 38.11v-1.39a4.18 4.18 0 0 1-3.33 1.66c-2.72 0-4.8-2.07-4.8-5.7s2-5.68 4.8-5.68a4.11 4.11 0 0 1 3.34 1.66v-5.52h2.87v15zm0-3.5v-3.84a3.09 3.09 0 0 0-2.45-1.23c-1.64 0-2.76 1.28-2.76 3.14s1.12 3.16 2.76 3.16a3.09 3.09 0 0 0 2.45-1.23zM493.2 24.4a1.69 1.69 0 0 1 3.39 0 1.69 1.69 0 1 1-3.39 0zm.27 13.71V27.27h2.85v10.84zM506.81 38.11v-6.55a1.76 1.76 0 0 0-2-2 3.17 3.17 0 0 0-2.47 1.26v7.32h-2.85V27.27h2.85v1.39a5.07 5.07 0 0 1 3.79-1.66c2.4 0 3.54 1.35 3.54 3.46v7.65zM520.14 38.11v-6.55a1.76 1.76 0 0 0-2-2 3.17 3.17 0 0 0-2.47 1.26v7.32h-2.85V27.27h2.85v1.39a5.07 5.07 0 0 1 3.8-1.66c2.4 0 3.54 1.35 3.54 3.46v7.65zM525.46 32.68a5.73 5.73 0 0 1 11.47 0 5.73 5.73 0 0 1-11.47 0zm8.51 0a2.85 2.85 0 0 0-2.78-3.14c-1.77 0-2.76 1.46-2.76 3.14s1 3.16 2.76 3.16 2.81-1.46 2.81-3.16zM542.21 38.11l-4.36-10.84h3.05l2.83 7.54 2.85-7.54h3.05l-4.36 10.84zM557.77 38.11V37a4.42 4.42 0 0 1-3.43 1.41 3.59 3.59 0 0 1-3.75-3.59c0-2.56 2-3.5 3.75-3.5a4.43 4.43 0 0 1 3.43 1.32v-1.4c0-1.1-.94-1.82-2.38-1.82a4.55 4.55 0 0 0-3.12 1.28l-1.12-2a7 7 0 0 1 4.73-1.7c2.49 0 4.76 1 4.76 4.11v7zm0-2.6v-1.35a2.86 2.86 0 0 0-2.29-1c-1.12 0-2 .61-2 1.64s.92 1.62 2 1.62a2.85 2.85 0 0 0 2.29-.91zM564.37 35.39v-5.63h-1.8v-2.49h1.8v-3h2.85v3h2.2v2.49h-2.2v4.87c0 .7.36 1.21 1 1.21a1.43 1.43 0 0 0 1-.34l.61 2.18a3.52 3.52 0 0 1-2.38.7c-2.03 0-3.08-1.03-3.08-2.99zM571 32.68a5.74 5.74 0 0 1 11.47 0 5.74 5.74 0 0 1-11.47 0zm8.51 0a2.79 2.79 0 1 0-5.54 0c0 1.71 1 3.16 2.76 3.16s2.79-1.46 2.79-3.16zM585 38.11V27.27h2.85v1.46a4.76 4.76 0 0 1 3.41-1.73v2.78a3.68 3.68 0 0 0-3.46 1.17v7.16zM592.43 36.69l1.24-2.06a6.14 6.14 0 0 0 3.75 1.5c1.24 0 1.82-.47 1.82-1.14 0-1.77-6.42-.31-6.42-4.58 0-1.82 1.57-3.41 4.44-3.41a6.91 6.91 0 0 1 4.35 1.48l-1.15 2a4.67 4.67 0 0 0-3.21-1.26c-1 0-1.71.45-1.71 1.05 0 1.59 6.44.25 6.44 4.62 0 2-1.7 3.46-4.71 3.46a7.3 7.3 0 0 1-4.84-1.66zM620 38.11l-2.29-7.38-2.29 7.38h-3.05l-3.3-10.84h3l2 7.3 2.38-7.3H619l2.38 7.3 2-7.3h3l-3.3 10.84zM635.49 38.11v-6.6c0-1.5-.79-2-2-2a3.13 3.13 0 0 0-2.49 1.28v7.32h-2.87v-15H631v5.52a5 5 0 0 1 3.81-1.63c2.38 0 3.52 1.3 3.52 3.41v7.7zM640.81 32.68a5.73 5.73 0 0 1 11.47 0 5.73 5.73 0 0 1-11.47 0zm8.51 0a2.79 2.79 0 1 0-5.54 0c0 1.71 1 3.16 2.76 3.16s2.77-1.46 2.77-3.16z" fill="#fff"/><path d="M423.34 145a15.16 15.16 0 0 0 0 21.45l10.72 10.72 10.72-10.72A15.16 15.16 0 1 0 423.34 145z" fill="url(#h)"/><circle cx="434.06" cy="155.61" r="6.22" fill="#e9f2f4"/><path fill="url(#c)" d="M102.86 42.23H76.07v3.52l1.76 1.77-1.76 1.76v3.53l1.76 1.76-1.76 1.77v3.53l1.76 1.76-1.76 1.77v3.52l1.76 1.77-1.76 1.76v3.53h26.79v-3.53l-1.76-1.76 1.76-1.77V63.4l-1.76-1.77 1.76-1.76v-3.53l-1.76-1.77 1.76-1.76v-3.53l-1.76-1.76 1.76-1.77v-3.52"/><path fill="url(#i)" d="M76.07 42.23h26.79v3.53H76.07z"/><path fill="#255d8b" d="M101.1 47.52H77.83l-1.76-1.77h26.79l-1.76 1.77"/><path fill="url(#j)" d="M76.07 49.28h26.79v3.53H76.07z"/><path fill="#1b88ca" d="M77.83 47.52h23.27l1.76 1.76H76.07l1.76-1.76"/><path fill="#255d8b" d="M101.1 54.57H77.83l-1.76-1.76h26.79l-1.76 1.76"/><path fill="url(#k)" d="M76.07 56.34h26.79v3.53H76.07z"/><path fill="#1b88ca" d="M77.83 54.57h23.27l1.76 1.77H76.07l1.76-1.77"/><path fill="#255d8b" d="M101.1 61.63H77.83l-1.76-1.76h26.79l-1.76 1.76"/><path fill="url(#l)" d="M76.07 63.4h26.79v3.53H76.07z"/><path fill="#1b88ca" d="M77.83 61.63h23.27l1.76 1.77H76.07l1.76-1.77"/><path fill="#255d8b" d="M101.1 68.69H77.83l-1.76-1.77h26.79l-1.76 1.77"/><path fill="url(#m)" d="M76.07 70.45h26.79v3.53H76.07z"/><path fill="#1b88ca" d="M77.83 68.69h23.27l1.76 1.76H76.07l1.76-1.76"/><path fill="#19191c" opacity=".2" d="M102.86 42.23h-13.4v31.75h13.4v-3.53l-1.76-1.76 1.76-1.77V63.4l-1.76-1.77 1.76-1.76v-3.53l-1.76-1.77 1.76-1.76v-3.53l-1.76-1.76 1.76-1.77v-3.52"/><path d="M106.59 29.33C106.59 13.89 92.84 0 77.27 0A29.33 29.33 0 0 0 48 27.63c-1.15 8.9-4.58 12.48-7.77 17.18s-1.06 4.92-1.06 4.92a34.56 34.56 0 0 0 4.7.21c-2.69 7.18 1.35 13.36 0 20.4-1 5.13 1.92 8.06 5.84 6.65S64.1 71.6 68 68.36c2.93-2.43 3.85-5.74 4.15-10.14v-.37c.08-1.38.09-2.86.09-4.45a13.9 13.9 0 0 1 5-10.63h26.09a29.19 29.19 0 0 0 3.26-13.44z" fill="#fafafa"/><path d="M51.67 76.26c4.72-1.77 13-5.11 16.34-7.91 2.93-2.43 3.85-5.74 4.15-10.14v-.37c.08-1.38.09-2.86.09-4.45a13.9 13.9 0 0 1 5-10.63h26.09a29.19 29.19 0 0 0 3.24-13.41 28.78 28.78 0 0 0-6.47-17.8 68.31 68.31 0 0 0-48.44 64.71z" fill="url(#n)"/><circle cx="79.3" cy="22.48" r="10.09" fill="url(#o)"/><path d="M69.22 22.48A10.09 10.09 0 0 0 79.3 32.56V22.48z" fill="url(#p)"/><path d="M79.3 12.39v10.09h10.09A10.09 10.09 0 0 0 79.3 12.39z" fill="url(#q)"/><path d="M30.09 185.36h-1.5v-6h1.5zm0-12h-1.5v-6h1.5zm0-12h-1.5v-6h1.5zm0-12h-1.5v-6h1.5zm3.27-10.25h-7.07v1h7.08zm0 48.79h-7.07v1h7.08z" fill="url(#d)"/><path d="M633 217.06h1.5v6H633zm0-6h1.5v-6H633zm0-12h1.5v-6H633zm5.58-17.29l-4.83-3-4.83 3H633v5.26h1.5v-5.23h4.08z" fill="url(#r)"/><path d="M769.46 179.3l.58 1.38a40.47 40.47 0 0 1-5.8 1.92l-.36-1.46a38.92 38.92 0 0 0 5.58-1.84zm5.23-2.68l.79 1.28a40.4 40.4 0 0 0 4.94-3.58l-1-1.14a38.84 38.84 0 0 1-4.72 3.44zm9-7.57l1.13 1a42.62 42.62 0 0 0 3.68-4.87l-1.26-.82a40.92 40.92 0 0 1-3.59 4.64zm6.4-9.86l1.36.63a45.7 45.7 0 0 0 2.19-5.69l-1.43-.45a44 44 0 0 1-2.21 5.51zm9.63-16.14l-4.72-3.26-5 2.83 4.1.18a47.81 47.81 0 0 1-.58 5.12l1.48.25a49.48 49.48 0 0 0 .6-5.31l4 .18z" fill="url(#s)"/><path d="M785.64 208.37l-4.94-1a13.67 13.67 0 0 0-1.66-3.28l2.14-4.56a1 1 0 0 0-.34-1.17l-6.29-4.12a1 1 0 0 0-1.21.15l-3.34 3.8a14.57 14.57 0 0 0-1.84-.23 14.26 14.26 0 0 0-1.84 0l-2.87-4.14a1 1 0 0 0-1.19-.29l-6.71 3.38a.92.92 0 0 0-.48 1.12l1.62 4.78a14.06 14.06 0 0 0-2 3.07l-5 .43a.93.93 0 0 0-.84.88l-.42 7.51a.91.91 0 0 0 .74 1l4.94 1a13.23 13.23 0 0 0 1.66 3.28l-2.15 4.56a1 1 0 0 0 .35 1.17l6.28 4.12a1 1 0 0 0 1.22-.16l3.32-3.78a14.44 14.44 0 0 0 1.83.23 14.78 14.78 0 0 0 1.85 0l2.87 4.14a.94.94 0 0 0 1.19.29l6.71-3.39a.93.93 0 0 0 .48-1.13l-1.62-4.78a14.07 14.07 0 0 0 2-3.07l5-.43a.91.91 0 0 0 .84-.87l.43-7.51a.93.93 0 0 0-.73-1zm-18.24 12.95a9.28 9.28 0 1 1 9.28-9.28 9.28 9.28 0 0 1-9.28 9.28z" fill="#254f73"/><path d="M767.4 202.76a9.28 9.28 0 1 0 9.28 9.28 9.28 9.28 0 0 0-9.28-9.28zm-.4 15.85a6.58 6.58 0 1 1 6.95-6.2 6.58 6.58 0 0 1-6.95 6.2z" fill="url(#t)"/><path d="M47.62 103.16l-.36 1.46a40.46 40.46 0 0 1-5.8-1.92l.58-1.38a38.9 38.9 0 0 0 5.58 1.84zm-15.57-8l-1 1.14A40.39 40.39 0 0 0 36 99.91l.79-1.28a38.85 38.85 0 0 1-4.74-3.44zm-7.74-8.83l-1.26.82A42.63 42.63 0 0 0 26.73 92l1.13-1a40.93 40.93 0 0 1-3.55-4.64zm-5-10.66l-1.43.45a45.69 45.69 0 0 0 2.19 5.69l1.36-.63a44 44 0 0 1-2.09-5.47zM11.83 65.1l4-.18a49.48 49.48 0 0 0 .6 5.31L18 70a47.82 47.82 0 0 1-.58-5.12l4.1-.18-5-2.83-4.69 3.26z" fill="url(#u)"/><path d="M746.79 180.79l-2.6-.52a7.11 7.11 0 0 0-.87-1.73l1.13-2.4a.5.5 0 0 0-.18-.62l-3.27-2.16a.5.5 0 0 0-.64.08l-1.75 2a7.93 7.93 0 0 0-1-.12 7.42 7.42 0 0 0-1 0l-1.51-2.18a.5.5 0 0 0-.63-.15l-3.47 1.78a.48.48 0 0 0-.26.59l.85 2.52a7.26 7.26 0 0 0-1.06 1.61l-2.64.23a.49.49 0 0 0-.44.46l-.22 4a.49.49 0 0 0 .39.51l2.6.52a7 7 0 0 0 .87 1.73l-1.13 2.4a.51.51 0 0 0 .19.62l3.31 2.17a.5.5 0 0 0 .64-.08l1.75-2a8.27 8.27 0 0 0 1 .13 8.53 8.53 0 0 0 1 0l1.51 2.18a.49.49 0 0 0 .63.16l3.53-1.78a.49.49 0 0 0 .25-.59l-.85-2.52a7.39 7.39 0 0 0 1.06-1.62l2.64-.23a.48.48 0 0 0 .45-.46l.23-4a.49.49 0 0 0-.51-.53zm-13.07 1.73a3.47 3.47 0 1 1 3.26 3.65 3.47 3.47 0 0 1-3.25-3.64z" fill="#e9f2f4"/><path d="M737.19 177.83a4.89 4.89 0 1 0 4.89 4.89 4.89 4.89 0 0 0-4.89-4.89zm-.2 8.35a3.46 3.46 0 1 1 3.66-3.26 3.47 3.47 0 0 1-3.65 3.26z" fill="url(#v)"/><path d="M263.5 190.82V73.71h24.19v115.83c0 12.42 7.28 18 16.27 18 10.92 0 16.06-7.28 15.84-17.77v-116h22.91v116c0 24.62-16.91 39-40.25 39s-38.96-12.04-38.96-37.95zM366.4 191.72v-81c0-23.1 17.11-37 40.63-37 22 0 37.64 13 37.64 34v16.9h-21.6v-14.33c0-9.62-5.78-16-16-16-11.55 0-16.47 7.27-16.47 17.32v78.65c0 11.33 6.2 17.54 16.68 17.54 10.05 0 15.83-6.63 15.83-15.83V177.6h21.6v15.61c0 21.81-15.61 35.5-37.64 35.5-23.98.01-40.67-12.61-40.67-36.99zM71.05 73.71h67.83v20.44H95.19v43.91h35v20.65h-35v49.13h43.91v20.87h-68zM160.67 73.71h40.65c22 0 39.13 11.31 39.13 35v82.83c0 25.22-17.17 37.17-39.35 37.17h-40.43zm38.26 134.13c12.61 0 17-9.13 17-17.39v-79.34c0-9.35-5.21-16.74-17-16.74H184.8v113.48zM491.07 73.71h33l30.35 155h-24.33l-7.8-40.32h-32.74l-7.37 40.32h-22.55zm27.32 95l-11.92-67.42h-.65l-12.36 67.42zM659.18 73.71H727v20.44h-43.7v43.91h35v20.65h-35v49.13h43.91v20.87h-68zM587.17 94.37H557.6V73.71h83v20.66h-29.08v134.35h-24.35z" fill="#fff"/><path fill="#275e81" d="M548.98 200.83l13.71-7.29-6.82-12.83-9.81 5.22 2.92 14.9"/><path d="M609.44 228.77l-20.39-33.22a14.59 14.59 0 0 1-4.54-.1l-20.13 33.32h-6.73l24.15-40.3 2.3.84a8.7 8.7 0 0 0 5.56.15l2.22-.68 24.29 40z" fill="#255d8b"/><path fill="#275e81" d="M585.085 159.974l41.48-22.056 11.155 20.98-41.48 22.055z"/><path transform="rotate(-28 610.67 153.34)" fill="url(#w)" d="M589.07 151.62h43.13v3.42h-43.13z"/><path fill="#254f73" d="M554.844 178.82l31.37-16.68 8.88 16.696-31.372 16.68z"/><path transform="rotate(-28 634.41 147.23)" fill="url(#x)" d="M631.85 134.1h4.92v26.26h-4.92z"/><path d="M633.27 140l6.42 12.08a8.19 8.19 0 0 0-6.42-12.08z" fill="#cfd8dc" opacity=".75"/><circle cx="586.22" cy="184.17" r="6.29" fill="#e9f2f4"/><path d="M586.22 180a4.19 4.19 0 1 1-4.2 4.19 4.2 4.2 0 0 1 4.2-4.19m0-4.19a8.38 8.38 0 1 0 8.38 8.38 8.38 8.38 0 0 0-8.38-8.38z" fill="#254f73"/><path fill="#19191c" opacity=".2" d="M630.32 134.48l-4.34 2.31.58 1.11-41.48 22.05 1.14 2.15-31.38 16.68 1.03 1.93-9.81 5.22 1.45 7.38 11.73-6.26 31.34-16.75 41.44-22.14 4.33-2.32-6.03-11.36"/><path fill="none" stroke="#1a7ec1" stroke-miterlimit="10" stroke-width="2" d="M254.53 228.71h98.12"/><circle cx="254.53" cy="228.71" r="3.5" fill="#fff" stroke="#1a7ec1" stroke-miterlimit="10" stroke-width="2"/><circle cx="352.65" cy="228.71" r="3.5" fill="#fff" stroke="#1a7ec1" stroke-miterlimit="10" stroke-width="2"/><path fill="#fff" stroke="#1a7ec1" stroke-miterlimit="10" stroke-width="2" d="M300.47 225.69h6.24v6.24h-6.24z"/><path fill="none" stroke="#1a7ec1" stroke-miterlimit="10" stroke-width="2" d="M356.48 73.63h98.12"/><circle cx="356.48" cy="73.63" r="3.5" fill="#fff" stroke="#1a7ec1" stroke-miterlimit="10" stroke-width="2"/><circle cx="454.6" cy="73.63" r="3.5" fill="#fff" stroke="#1a7ec1" stroke-miterlimit="10" stroke-width="2"/><path fill="#fff" stroke="#1a7ec1" stroke-miterlimit="10" stroke-width="2" d="M402.42 70.6h6.24v6.25h-6.24z"/></svg>