<svg xmlns="http://www.w3.org/2000/svg" viewBox="0 0 680 750"><title>brand1_1</title><rect width="680" height="750" style="fill:none"/><circle cx="255.34" cy="377" r="100" style="fill:#0bb3f6"/><path d="M215.33,433.42l-2.39,6.25,5-4.47,2.33,1.6L216.83,447l-2.47-1.7,2.62-6.59-5.38,4.7-1.69-1.16,2.46-6.71-5.2,4.82-2.49-1.71,8.32-6.87Z" style="fill:#fff"/><path d="M202.15,421.15,199,423.91l2.85,3.23,3.12-2.76,1.77,2L199,433.25l-1.77-2,2.9-2.56-2.85-3.23-2.9,2.56-1.77-2,7.78-6.87Z" style="fill:#fff"/><path d="M193.35,407.74l-1.06,1.17,2,3.58,1.56-.27,1.46,2.66-11,1.58-1.63-3,7.21-8.42Zm-5.54,6,4.06-.72-1.27-2.3Z" style="fill:#fff"/><path d="M189.62,398.79,182,401.24l.89,2.77-2.22.71-2.59-8.07,2.22-.71.88,2.75,7.65-2.45Z" style="fill:#fff"/><path d="M185.79,379.15,175.42,379l.09-5.19a3.45,3.45,0,1,1,6.89.12l0,2.52,3.48.06ZM179,373a1.15,1.15,0,0,0-1.14,1.27l0,2.11,2.22,0,0-2.11A1.15,1.15,0,0,0,179,373Z" style="fill:#fff"/><path d="M187.86,359l-3.78.95-.3,1.34,3.4.75-.58,2.61-10.13-2.24,1.12-5.07a3.34,3.34,0,0,1,4.15-2.78,3.12,3.12,0,0,1,2.59,2.69l4.18-1.24Zm-6.71-1.79a1.14,1.14,0,0,0-1.36,1l-.46,2.06,2.17.48.46-2.06A1.14,1.14,0,0,0,181.16,357.21Z" style="fill:#fff"/><path d="M185.48,348.66a5.54,5.54,0,1,1,7.21-2.74A5.28,5.28,0,0,1,185.48,348.66Zm3.55-7.57a2.83,2.83,0,1,0,1.52,3.82A2.79,2.79,0,0,0,189,341.09Z" style="fill:#fff"/><path d="M198.06,335.88l-8.18-6.36,3.6-4.64a2.71,2.71,0,0,1,3.95-.77,2.31,2.31,0,0,1,.79,2.86,2.48,2.48,0,0,1,3.21,0,2.76,2.76,0,0,1,.35,4.13Zm-1.91-9.32a.82.82,0,0,0-1.2.23l-1.59,2,1.28,1,1.59-2A.81.81,0,0,0,196.15,326.57Zm3.29,2.3a.89.89,0,0,0-1.32.28l-1.65,2.12,1.39,1.08,1.65-2.12A.88.88,0,0,0,199.44,328.87Z" style="fill:#fff"/><path d="M207.88,324.45l-6.8-7.84,2-1.75,5.27,6.07,3.15-2.73,1.53,1.76Z" style="fill:#fff"/><path d="M217.87,316.51l-5.23-9,6.57-3.84,1.18,2-4.26,2.49.82,1.4,4.16-2.43,1.18,2-4.16,2.43.89,1.52,4.26-2.49,1.18,2Z" style="fill:#fff"/><path d="M238.56,307.31l-2.05-6.54-.44,7.32-1.13.35-4.56-5.75,2.05,6.54-2.55.8-3.1-9.89,3.54-1.11,3.79,4.81.35-6.1,3.54-1.11,3.1,9.89Z" style="fill:#fff"/><path d="M246.56,304.15l1.25-2.19a4.69,4.69,0,0,0,3.42,1.11c.9-.07,1.43-.42,1.39-.93-.1-1.36-5.86.22-6.17-3.77-.13-1.74,1.21-3.4,3.86-3.6a6.33,6.33,0,0,1,4.31,1.12l-1.3,2.11a4.81,4.81,0,0,0-3.11-.85c-.77.06-1.1.35-1.06.8.1,1.27,5.87-.14,6.16,3.71.16,2.08-1.27,3.58-4,3.79A6.41,6.41,0,0,1,246.56,304.15Z" style="fill:#fff"/><path d="M270.78,301a5.29,5.29,0,0,1,6.77-3.8,4.78,4.78,0,0,1,3.7,3.8l-2.5.5a2.49,2.49,0,0,0-1.78-2,3,3,0,0,0-1.49,5.81,2.49,2.49,0,0,0,2.53-.91l2,1.63a4.84,4.84,0,0,1-5.07,1.57A5.3,5.3,0,0,1,270.78,301Z" style="fill:#fff"/><path d="M290.77,313.72l.21-1.56-3.65-1.84-1.13,1.1-2.71-1.36,8.15-7.51,3,1.52-1.18,11Zm1.2-8L289,308.56l2.35,1.18Z" style="fill:#fff"/><path d="M303.3,322.49l.41-7.42-3.8,4.64-2.07-1.7,6.57-8,2.13,1.75-.37,7.07,3.62-4.41,2.08,1.71-6.57,8Z" style="fill:#fff"/><path d="M319.11,342.32l4.88-4.57-6.43,1.84-1.4-2.46,7.55-7.7,1.48,2.61L320,336.82l6.89-1.87,1,1.78-5.14,5,6.78-2.06,1.49,2.62-10.48,2.54Z" style="fill:#fff"/><path d="M323.66,352.45l10-2.91,2.13,7.3-2.24.65-1.38-4.73-1.55.45,1.35,4.63-2.24.65-1.35-4.63-1.69.49,1.38,4.73-2.24.65Z" style="fill:#fff"/><path d="M329.1,373.76l2,1.48a4.69,4.69,0,0,0-1.47,3.28c0,.9.26,1.47.78,1.49,1.37,0,.42-5.85,4.42-5.72,1.74.06,3.25,1.57,3.16,4.22a6.33,6.33,0,0,1-1.58,4.16l-2-1.52a4.81,4.81,0,0,0,1.19-3c0-.78-.23-1.13-.68-1.14-1.27,0-.5,5.85-4.35,5.72-2.08-.07-3.41-1.65-3.32-4.43A6.41,6.41,0,0,1,329.1,373.76Z" style="fill:#fff"/><path d="M331.77,389.1a5.55,5.55,0,1,1-6.56,4.07A5.28,5.28,0,0,1,331.77,389.1Zm-2,8.11a2.83,2.83,0,1,0-2.22-3.46A2.8,2.8,0,0,0,329.73,397.21Z" style="fill:#fff"/><path d="M321.83,404l9.32,4.54-1.17,2.4-7.23-3.52-1.82,3.75-2.1-1Z" style="fill:#fff"/><path d="M314.87,416.35l10.67,3-1.79,2.45-7.55-2.35,4.53,6.48-1.79,2.45-6.06-9.28Z" style="fill:#fff"/><path d="M306.87,426l7,7.69-5.64,5.1-1.56-1.73,3.66-3.3-1.08-1.2-3.58,3.23-1.56-1.73,3.58-3.23-1.18-1.3-3.66,3.3-1.56-1.73Z" style="fill:#fff"/><path d="M296,436.42a1.46,1.46,0,1,1-2-.47A1.48,1.48,0,0,1,296,436.42Zm1.79,3c.93,1.49-.64,2.77-.22,3.44.18.29.53.38,1.1,0a2.24,2.24,0,0,0,1-1.55l2.17.66a4.58,4.58,0,0,1-2.13,3c-1.74,1.08-3.35.91-4.14-.35-1.17-1.89.78-3.31.17-4.29a.91.91,0,0,0-.53-.4l1.48-1.54A2.19,2.19,0,0,1,297.75,439.39Z" style="fill:#fff"/><path d="M244.05,448l-1.21-1a3.28,3.28,0,0,1,2.93-1.63,2.41,2.41,0,0,1,2.7,2.44c0,1.31-.67,2-2.06,3.05l-1.28,1h3.42v1.49h-5.82V452l2.62-2.14c1-.81,1.36-1.23,1.36-1.88a1,1,0,0,0-1.05-1C245,447,244.63,447.29,244.05,448Z" style="fill:#fff"/><path d="M263.2,445.46h1.18v7.91h-1.7v-6.16l-1.37.34-.36-1.41Z" style="fill:#fff"/><path d="M268.33,445.52h4.83V447h-3.35l-.09,1.36a3.74,3.74,0,0,1,1-.14c1.55,0,2.75.74,2.75,2.53a2.68,2.68,0,0,1-3,2.73,4,4,0,0,1-2.94-1.18l1-1.24a2.76,2.76,0,0,0,1.87.85c.81,0,1.32-.39,1.32-1.1s-.55-1.08-1.39-1.08a3.35,3.35,0,0,0-1.31.29l-1-.66Z" style="fill:#fff"/><path d="M254.81,445.35a3.37,3.37,0,1,0,3.38,3.37A3.38,3.38,0,0,0,254.81,445.35Zm0,5.25a1.88,1.88,0,1,1,1.88-1.88A1.88,1.88,0,0,1,254.81,450.6Z" style="fill:#fff"/><path d="M281,366.78c-12.28-.54-17.14,9.48-21,17.53l0,0c-4.29,8.84-10.64,13-19.43,12.57a22.08,22.08,0,1,1,19-34.72l5.35-3.76a28.62,28.62,0,1,0-24.69,45c9.76.42,17.44-3.45,22.88-11.52A18.39,18.39,0,1,0,281,366.78Zm-1.31,30.31a11.94,11.94,0,1,1,12.44-11.41A11.94,11.94,0,0,1,279.72,397.09Z" style="fill:#fff"/></svg>