<svg width="468px" height="214px" viewBox="0 0 468 214" xmlns="http://www.w3.org/2000/svg" xmlns:xlink="http://www.w3.org/1999/xlink"><!--Generator: Sketch 45.2 (43514) - http://www.bohemiancoding.com/sketch--><defs><ellipse id="path-1" cx="31" cy="20.5263158" rx="20" ry="20.5263158"/><filter x="-25.0%" y="-19.5%" width="150.0%" height="148.7%" filterUnits="objectBoundingBox" id="filter-3"><feOffset dy="2" in="SourceAlpha" result="shadowOffsetOuter1"/><feGaussianBlur stdDeviation="3" in="shadowOffsetOuter1" result="shadowBlurOuter1"/><feColorMatrix values="0 0 0 0 0.619607843   0 0 0 0 0.670588235   0 0 0 0 0.737254902  0 0 0 0.7 0" in="shadowBlurOuter1"/></filter></defs><g id="Design" fill="none" fill-rule="evenodd"><g id="responsum---case-study" transform="translate(-137.000000, -2558.000000)"><g id="section3-circle3-asset" transform="translate(340.000000, 2591.210526)"><g id="question/rating/label/selected" transform="translate(0.000000, 57.473684)" fill="#3E4E62"><path d="M3.964,0.455684211 C4.77200404,0.455684211 5.40799768,0.677366204 5.872,1.12073684 C6.33600232,1.56410748 6.58399984,2.20041691 6.616,3.02968421 L4.948,3.02968421 C4.93999996,2.69305095 4.84200094,2.43031673 4.654,2.24147368 C4.46599906,2.05263063 4.22400148,1.95821053 3.928,1.95821053 C3.63199852,1.95821053 3.40000084,2.03826236 3.232,2.19836842 C3.06399916,2.35847448 2.98,2.58631431 2.98,2.88189474 C2.98,3.17747516 3.08399896,3.4073676 3.292,3.57157895 C3.46800088,3.71115859 3.855997,3.89178837 4.456,4.11347368 C5.3360044,4.41726468 5.95999816,4.77236639 6.328,5.17878947 C6.69600184,5.58521256 6.88,6.12094404 6.88,6.786 C6.88,7.59884617 6.61600264,8.23926082 6.088,8.70726316 C5.5679974,9.16705493 4.90000408,9.39694737 4.084,9.39694737 C3.1639954,9.39694737 2.44600258,9.14652882 1.93,8.64568421 C1.41399742,8.1448396 1.14400012,7.46337273 1.12,6.60126316 L2.788,6.60126316 C2.82000016,7.4715833 3.25999576,7.90673684 4.108,7.90673684 C4.44400168,7.90673684 4.711999,7.81847457 4.912,7.64194737 C5.112001,7.46542017 5.212,7.2293699 5.212,6.93378947 C5.212,6.64641962 5.10000112,6.40831673 4.876,6.21947368 C4.65199888,6.03063063 4.26800272,5.84589564 3.724,5.66526316 C2.8839958,5.38610387 2.27200192,5.04537043 1.888,4.64305263 C1.50399808,4.24073483 1.312,3.70295073 1.312,3.02968421 C1.312,2.27431201 1.54799764,1.65442347 2.02,1.17 C2.49200236,0.693787093 3.13999588,0.455684211 3.964,0.455684211 Z M10.852,2.85726316 C11.7720046,2.85726316 12.535997,3.16104959 13.144,3.76863158 C13.752003,4.368003 14.056,5.1479952 14.056,6.10863158 C14.056,7.07747853 13.752003,7.86157595 13.144,8.46094737 C12.535997,9.06852935 11.7720046,9.37231579 10.852,9.37231579 C9.93999544,9.37231579 9.18000304,9.06852935 8.572,8.46094737 C7.971997,7.86157595 7.672,7.07747853 7.672,6.10863158 C7.672,5.15620576 7.971997,4.37621356 8.572,3.76863158 C9.18000304,3.16104959 9.93999544,2.85726316 10.852,2.85726316 Z M10.864,4.31052632 C10.4079977,4.31052632 10.0280015,4.48294564 9.724,4.82778947 C9.42799852,5.15621217 9.28,5.58315527 9.28,6.10863158 C9.28,6.63410789 9.42799852,7.06515621 9.724,7.40178947 C10.0280015,7.73842274 10.4079977,7.90673684 10.864,7.90673684 C11.3200023,7.90673684 11.6959985,7.73637012 11.992,7.39563158 C12.2880015,7.05489303 12.436,6.62589732 12.436,6.10863158 C12.436,5.58315527 12.2920014,5.15210695 12.004,4.81547368 C11.7159986,4.47884042 11.3360024,4.31052632 10.864,4.31052632 Z M21.844,2.85726316 C22.4680031,2.85726316 22.9479983,3.06252426 23.284,3.47305263 C23.6200017,3.883581 23.788,4.45420687 23.788,5.18494737 L23.788,9.23684211 L22.228,9.23684211 L22.228,5.52978947 C22.228,4.78262784 21.9440028,4.40905263 21.376,4.40905263 C21.0639984,4.40905263 20.810001,4.53631452 20.614,4.79084211 C20.417999,5.04536969 20.316,5.40252402 20.308,5.86231579 L20.308,9.23684211 L18.748,9.23684211 L18.748,5.52978947 C18.748,4.78262784 18.4640028,4.40905263 17.896,4.40905263 C17.5759984,4.40905263 17.318001,4.54247235 17.122,4.80931579 C16.925999,5.07615923 16.828,5.45178705 16.828,5.93621053 L16.828,9.23684211 L15.28,9.23684211 L15.28,2.99273684 L16.612,2.99273684 L16.732,3.80557895 C17.0600016,3.17336526 17.5999962,2.85726316 18.352,2.85726316 C19.2080043,2.85726316 19.7879985,3.22262793 20.092,3.95336842 C20.2440008,3.62494573 20.4739985,3.3601589 20.782,3.159 C21.0900015,2.9578411 21.443998,2.85726316 21.844,2.85726316 Z M27.94,2.85726316 C28.8040043,2.85726316 29.4899975,3.13847087 29.998,3.70089474 C30.5060025,4.2633186 30.76,5.06588952 30.76,6.10863158 L30.76,6.60126316 L26.524,6.60126316 C26.5480001,7.02000209 26.6919987,7.35868292 26.956,7.61731579 C27.2200013,7.87594866 27.5639979,8.00526316 27.988,8.00526316 C28.6200032,8.00526316 29.0279991,7.76305505 29.212,7.27863158 L30.724,7.27863158 C30.323998,8.67442803 29.3960073,9.37231579 27.94,9.37231579 C27.0359955,9.37231579 26.3040028,9.0767398 25.744,8.48557895 C25.1919972,7.88620753 24.916,7.09800489 24.916,6.12094737 C24.916,5.16031099 25.1959972,4.38031879 25.756,3.78094737 C26.3240028,3.16515482 27.0519956,2.85726316 27.94,2.85726316 Z M26.536,5.49284211 L29.188,5.49284211 C29.18,5.09873487 29.0600012,4.78263277 28.828,4.54452632 C28.5959988,4.30641986 28.2880019,4.18736842 27.904,4.18736842 C27.5279981,4.18736842 27.2160012,4.30641986 26.968,4.54452632 C26.7199988,4.78263277 26.5760002,5.09873487 26.536,5.49284211 Z M32.416,1.47789474 L33.988,1.47789474 L33.976,2.99273684 L35.368,2.99273684 L35.368,4.446 L33.964,4.446 L33.94,6.97073684 C33.94,7.29915954 33.9979994,7.53110459 34.114,7.66657895 C34.2300006,7.80205331 34.4359985,7.86978947 34.732,7.86978947 C34.9640012,7.86978947 35.175999,7.84105292 35.368,7.78357895 L35.368,9.18757895 C35.1279988,9.27789519 34.8000021,9.32305263 34.384,9.32305263 C33.6959966,9.32305263 33.1880016,9.16500158 32.86,8.84889474 C32.5319984,8.53278789 32.372,8.03400341 32.38,7.35252632 L32.404,4.446 L31.408,4.446 L31.408,2.99273684 L32.404,2.99273684 L32.416,1.47789474 Z M36.616,2.99273684 L38.176,2.99273684 L38.176,9.23684211 L36.616,9.23684211 L36.616,2.99273684 Z M37.396,0.209368421 C37.6520013,0.209368421 37.8739991,0.301735918 38.062,0.486473684 C38.2500009,0.67121145 38.344,0.894946055 38.344,1.15768421 C38.344,1.42863293 38.2520009,1.65442015 38.068,1.83505263 C37.8839991,2.01568511 37.6600013,2.106 37.396,2.106 C37.1319987,2.106 36.9080009,2.01568511 36.724,1.83505263 C36.5399991,1.65442015 36.448,1.42863293 36.448,1.15768421 C36.448,0.894946055 36.5399991,0.67121145 36.724,0.486473684 C36.9080009,0.301735918 37.1319987,0.209368421 37.396,0.209368421 Z M46.408,2.85726316 C47.0320031,2.85726316 47.5119983,3.06252426 47.848,3.47305263 C48.1840017,3.883581 48.352,4.45420687 48.352,5.18494737 L48.352,9.23684211 L46.792,9.23684211 L46.792,5.52978947 C46.792,4.78262784 46.5080028,4.40905263 45.94,4.40905263 C45.6279984,4.40905263 45.374001,4.53631452 45.178,4.79084211 C44.981999,5.04536969 44.88,5.40252402 44.872,5.86231579 L44.872,9.23684211 L43.312,9.23684211 L43.312,5.52978947 C43.312,4.78262784 43.0280028,4.40905263 42.46,4.40905263 C42.1399984,4.40905263 41.882001,4.54247235 41.686,4.80931579 C41.489999,5.07615923 41.392,5.45178705 41.392,5.93621053 L41.392,9.23684211 L39.844,9.23684211 L39.844,2.99273684 L41.176,2.99273684 L41.296,3.80557895 C41.6240016,3.17336526 42.1639962,2.85726316 42.916,2.85726316 C43.7720043,2.85726316 44.3519985,3.22262793 44.656,3.95336842 C44.8080008,3.62494573 45.0379985,3.3601589 45.346,3.159 C45.6540015,2.9578411 46.007998,2.85726316 46.408,2.85726316 Z M52.504,2.85726316 C53.3680043,2.85726316 54.0539975,3.13847087 54.562,3.70089474 C55.0700025,4.2633186 55.324,5.06588952 55.324,6.10863158 L55.324,6.60126316 L51.088,6.60126316 C51.1120001,7.02000209 51.2559987,7.35868292 51.52,7.61731579 C51.7840013,7.87594866 52.1279979,8.00526316 52.552,8.00526316 C53.1840032,8.00526316 53.5919991,7.76305505 53.776,7.27863158 L55.288,7.27863158 C54.887998,8.67442803 53.9600073,9.37231579 52.504,9.37231579 C51.5999955,9.37231579 50.8680028,9.0767398 50.308,8.48557895 C49.7559972,7.88620753 49.48,7.09800489 49.48,6.12094737 C49.48,5.16031099 49.7599972,4.38031879 50.32,3.78094737 C50.8880028,3.16515482 51.6159956,2.85726316 52.504,2.85726316 Z M51.1,5.49284211 L53.752,5.49284211 C53.744,5.09873487 53.6240012,4.78263277 53.392,4.54452632 C53.1599988,4.30641986 52.8520019,4.18736842 52.468,4.18736842 C52.0919981,4.18736842 51.7800012,4.30641986 51.532,4.54452632 C51.2839988,4.78263277 51.1400002,5.09873487 51.1,5.49284211 Z M58.552,2.85726316 C59.1920032,2.85726316 59.7179979,3.03789293 60.13,3.39915789 C60.5420021,3.76042286 60.7599999,4.23662862 60.784,4.82778947 L59.236,4.82778947 C59.228,4.35157657 58.9960023,4.11347368 58.54,4.11347368 C58.3239989,4.11347368 58.1580006,4.16889418 58.042,4.27973684 C57.9259994,4.3905795 57.868,4.54042011 57.868,4.72926316 C57.868,4.92631677 57.9439992,5.07615738 58.096,5.17878947 C58.2480008,5.28142157 58.527998,5.36968384 58.936,5.44357895 C59.6400035,5.56673746 60.1459985,5.78020901 60.454,6.084 C60.7620015,6.38779099 60.916,6.80652365 60.916,7.34021053 C60.916,7.98884535 60.7000022,8.48968245 60.268,8.84273684 C59.8359978,9.19579124 59.2680035,9.37231579 58.564,9.37231579 C57.8359964,9.37231579 57.2620021,9.19168602 56.842,8.83042105 C56.4219979,8.46915609 56.2040001,7.97242421 56.188,7.34021053 L57.724,7.34021053 C57.7400001,7.8492657 58.0319972,8.10378947 58.6,8.10378947 C59.1040025,8.10378947 59.356,7.90673881 59.356,7.51263158 C59.356,7.30736739 59.2780008,7.14726373 59.122,7.03231579 C58.9659992,6.91736785 58.6760021,6.81884252 58.252,6.73673684 C57.5879967,6.6217889 57.0980016,6.41242257 56.782,6.10863158 C56.4659984,5.80484059 56.308,5.3984236 56.308,4.88936842 C56.308,4.30641814 56.503998,3.82610715 56.896,3.44842105 C57.296002,3.05431382 57.8479965,2.85726316 58.552,2.85726316 Z" id="Selected"/></g><mask id="mask-2" fill="white"><use xlink:href="#path-1"/></mask><g id="Oval-2-Copy"><use fill="black" filter="url(#filter-3)" xlink:href="#path-1"/><use fill="#FFFFFF" xlink:href="#path-1"/></g><g id="color/rating/sometimes" mask="url(#mask-2)" fill="#9CBE31"><g transform="translate(6.000000, -5.131579)" id="color-swatch-copy-9"><rect width="50" height="51"/></g></g><path d="M33.688,17.2174737 C33.688,17.7826344 33.5596679,18.2543928 33.303,18.6327632 C33.046332,19.0111335 32.7173353,19.2721572 32.316,19.4158421 C32.8106691,19.540369 33.2189984,19.8253399 33.541,20.2707632 C33.8630016,20.7161864 34.024,21.2597863 34.024,21.9015789 C34.024,22.7636885 33.7440028,23.4677341 33.184,24.0137368 C32.6146638,24.5501606 31.8820045,24.8183684 30.986,24.8183684 C30.0246619,24.8183684 29.2686694,24.5477659 28.718,24.0065526 C28.1673306,23.4653394 27.892,22.7110048 27.892,21.7435263 L29.152,21.7435263 C29.1613334,22.356582 29.3293317,22.8187616 29.656,23.1300789 C29.9826683,23.4413963 30.4353304,23.5970526 31.014,23.5970526 C31.5273359,23.5970526 31.9426651,23.4390016 32.26,23.1228947 C32.5773349,22.8067879 32.736,22.3853184 32.736,21.8584737 C32.736,21.254997 32.5353353,20.7952121 32.134,20.4791053 C31.7326647,20.1629984 31.163337,20.0049474 30.426,20.0049474 L30.104,20.0049474 L30.104,18.8554737 L30.412,18.8554737 C31.1026701,18.8554737 31.6066651,18.7261592 31.924,18.4675263 C32.2413349,18.2088934 32.4,17.8017923 32.4,17.2462105 C32.4,16.7289448 32.2740013,16.326633 32.022,16.0392632 C31.7699987,15.7518933 31.4060024,15.6082105 30.93,15.6082105 C30.463331,15.6082105 30.0876681,15.7638669 29.803,16.0751842 C29.5183319,16.3865016 29.376,16.8343129 29.376,17.4186316 L28.102,17.4186316 C28.102,16.489469 28.3563308,15.7518975 28.865,15.2058947 C29.3736692,14.659892 30.057329,14.3868947 30.916,14.3868947 C31.774671,14.3868947 32.4513309,14.6551026 32.946,15.1915263 C33.4406691,15.7279501 33.688,16.4032591 33.688,17.2174737 Z" id="#" fill="#FFFFFF" mask="url(#mask-2)"/></g></g></g></svg>