<svg width="468px" height="214px" viewBox="0 0 468 214" xmlns="http://www.w3.org/2000/svg" xmlns:xlink="http://www.w3.org/1999/xlink"><!--Generator: Sketch 45.2 (43514) - http://www.bohemiancoding.com/sketch--><defs><ellipse id="path-1" cx="20" cy="20.5263158" rx="20" ry="20.5263158"/><filter x="-25.0%" y="-19.5%" width="150.0%" height="148.7%" filterUnits="objectBoundingBox" id="filter-3"><feOffset dy="2" in="SourceAlpha" result="shadowOffsetOuter1"/><feGaussianBlur stdDeviation="3" in="shadowOffsetOuter1" result="shadowBlurOuter1"/><feColorMatrix values="0 0 0 0 0.619607843   0 0 0 0 0.670588235   0 0 0 0 0.737254902  0 0 0 0.7 0" in="shadowBlurOuter1"/></filter></defs><g id="Design" fill="none" fill-rule="evenodd"><g id="responsum---case-study" transform="translate(-137.000000, -2558.000000)"><g id="section3-circle1-asset" transform="translate(191.000000, 2591.210526)"><g id="section3-label1-asset" transform="translate(0.000000, 57.473684)" fill="#3E4E62"><path d="M8.062,0.615789474 L9.154,0.615789474 L9.154,9.23684211 L8.074,9.23684211 L3.898,3.05431579 L3.574,2.52473684 L3.574,9.23684211 L2.482,9.23684211 L2.482,0.615789474 L3.55,0.615789474 L7.702,6.77368421 L8.062,7.34021053 L8.062,0.615789474 Z M13.414,2.89421053 C14.2540042,2.89421053 14.9219975,3.16926041 15.418,3.71936842 C15.9140025,4.26947643 16.162,5.04536341 16.162,6.04705263 L16.162,6.552 L11.566,6.552 C11.6060002,7.11852915 11.7959983,7.56599836 12.136,7.89442105 C12.4760017,8.22284375 12.9099974,8.38705263 13.438,8.38705263 C14.2780042,8.38705263 14.8219988,8.05042442 15.07,7.37715789 L16.102,7.37715789 C15.909999,8.00937158 15.5840023,8.49994562 15.124,8.84889474 C14.6639977,9.19784385 14.0940034,9.37231579 13.414,9.37231579 C12.5499957,9.37231579 11.8500027,9.0767398 11.314,8.48557895 C10.7699973,7.88620753 10.498,7.10621533 10.498,6.14557895 C10.498,5.19315313 10.7659973,4.41726615 11.302,3.81789474 C11.8460027,3.20210218 12.5499957,2.89421053 13.414,2.89421053 Z M13.414,3.87947368 C12.9099975,3.87947368 12.4940016,4.03752474 12.166,4.35363158 C11.8379984,4.66973842 11.6420003,5.08641847 11.578,5.60368421 L15.118,5.60368421 C15.11,5.0782079 14.9500016,4.65947524 14.638,4.34747368 C14.3259984,4.03547212 13.9180025,3.87947368 13.414,3.87947368 Z M21.442,3.02968421 L22.558,3.02968421 L20.242,9.23684211 L19.21,9.23684211 L16.906,3.02968421 L18.01,3.02968421 L19.606,7.488 L19.726,7.956 L19.846,7.488 L21.442,3.02968421 Z M26.074,2.89421053 C26.9140042,2.89421053 27.5819975,3.16926041 28.078,3.71936842 C28.5740025,4.26947643 28.822,5.04536341 28.822,6.04705263 L28.822,6.552 L24.226,6.552 C24.2660002,7.11852915 24.4559983,7.56599836 24.796,7.89442105 C25.1360017,8.22284375 25.5699974,8.38705263 26.098,8.38705263 C26.9380042,8.38705263 27.4819988,8.05042442 27.73,7.37715789 L28.762,7.37715789 C28.569999,8.00937158 28.2440023,8.49994562 27.784,8.84889474 C27.3239977,9.19784385 26.7540034,9.37231579 26.074,9.37231579 C25.2099957,9.37231579 24.5100027,9.0767398 23.974,8.48557895 C23.4299973,7.88620753 23.158,7.10621533 23.158,6.14557895 C23.158,5.19315313 23.4259973,4.41726615 23.962,3.81789474 C24.5060027,3.20210218 25.2099957,2.89421053 26.074,2.89421053 Z M26.074,3.87947368 C25.5699975,3.87947368 25.1540016,4.03752474 24.826,4.35363158 C24.4979984,4.66973842 24.3020003,5.08641847 24.238,5.60368421 L27.778,5.60368421 C27.77,5.0782079 27.6100016,4.65947524 27.298,4.34747368 C26.9859984,4.03547212 26.5780025,3.87947368 26.074,3.87947368 Z M33.166,2.96810526 L33.166,4.02726316 C32.6699975,4.02726316 32.2620016,4.17915638 31.942,4.48294737 C31.5899982,4.81137006 31.4060001,5.29989149 31.39,5.94852632 L31.39,9.23684211 L30.358,9.23684211 L30.358,3.02968421 L31.282,3.02968421 L31.354,4.11347368 C31.4740006,3.77684042 31.6919984,3.50179054 32.008,3.28831579 C32.3240016,3.07484104 32.7099977,2.96810526 33.166,2.96810526 Z" id="Default"/></g><mask id="mask-2" fill="white"><use xlink:href="#path-1"/></mask><g id="Oval-2-Copy"><use fill="black" filter="url(#filter-3)" xlink:href="#path-1"/><use fill="#FFFFFF" xlink:href="#path-1"/></g><g id="color/rating/never" mask="url(#mask-2)" fill="#0D66A1"><g transform="translate(-5.000000, -5.131579)" id="color-swatch-copy-11"><rect width="50" height="51"/></g></g><path d="M20.35,14.5736842 L21.33,14.5736842 L21.33,24.6315789 L20.056,24.6315789 L20.056,16.9301053 L17.998,16.9301053 L17.998,15.8093684 C18.7633372,15.8093684 19.3186649,15.720764 19.664,15.5435526 C20.0093351,15.3663412 20.2379994,15.043055 20.35,14.5736842 Z" id="#" fill="#FFFFFF" mask="url(#mask-2)"/></g></g></g></svg>