<svg width="694px" height="324px" viewBox="0 0 694 324" xmlns="http://www.w3.org/2000/svg" xmlns:xlink="http://www.w3.org/1999/xlink"><!--Generator: Sketch 45.2 (43514) - http://www.bohemiancoding.com/sketch--><defs><ellipse id="path-1" cx="20" cy="20.5263158" rx="20" ry="20.5263158"/><filter x="-25.0%" y="-19.5%" width="150.0%" height="148.7%" filterUnits="objectBoundingBox" id="filter-3"><feOffset dy="2" in="SourceAlpha" result="shadowOffsetOuter1"/><feGaussianBlur stdDeviation="3" in="shadowOffsetOuter1" result="shadowBlurOuter1"/><feColorMatrix values="0 0 0 0 0.619607843   0 0 0 0 0.670588235   0 0 0 0 0.737254902  0 0 0 0.7 0" in="shadowBlurOuter1"/></filter></defs><g id="Design" fill="none" fill-rule="evenodd"><g id="responsum---case-study" transform="translate(-24.000000, -2507.000000)"><rect id="Rectangle-Copy-14" transform="translate(360.000000, 2669.000000) scale(-1, 1) translate(-360.000000, -2669.000000) " y="2507" width="720" height="324"/><g id="section3-circle4-asset" transform="translate(431.000000, 2591.210526)"><g id="question/rating/label/default" transform="translate(3.000000, 57.473684)" fill="#3E4E62"><path d="M5.404,0.455684211 C6.65200624,0.455684211 7.675996,0.878522087 8.476,1.72421053 C9.28400404,2.57810953 9.688,3.64136206 9.688,4.914 C9.688,6.20305908 9.28400404,7.27452205 8.476,8.12842105 C7.675996,8.97410949 6.65200624,9.39694737 5.404,9.39694737 C4.14799372,9.39694737 3.120004,8.97410949 2.32,8.12842105 C1.51199596,7.27452205 1.108,6.20305908 1.108,4.914 C1.108,3.64136206 1.51199596,2.57810953 2.32,1.72421053 C3.120004,0.878522087 4.14799372,0.455684211 5.404,0.455684211 Z M5.404,1.50252632 C4.46799532,1.50252632 3.70800292,1.82683886 3.124,2.47547368 C2.53999708,3.10768737 2.248,3.92052135 2.248,4.914 C2.248,5.90747865 2.53999708,6.72852307 3.124,7.37715789 C3.70800292,8.02579272 4.46799532,8.35010526 5.404,8.35010526 C6.3240046,8.35010526 7.07599708,8.02579272 7.66,7.37715789 C8.25200296,6.72031251 8.548,5.89926808 8.548,4.914 C8.548,3.93694248 8.25200296,3.12410851 7.66,2.47547368 C7.07599708,1.82683886 6.3240046,1.50252632 5.404,1.50252632 Z M13.24,0.135473684 C13.5600016,0.135473684 13.8319989,0.184736349 14.056,0.283263158 L14.056,1.24389474 C13.8319989,1.14536793 13.5880013,1.09610526 13.324,1.09610526 C12.7559972,1.09610526 12.472,1.43273348 12.472,2.106 L12.472,3.02968421 L13.972,3.02968421 L13.972,4.00263158 L12.472,4.00263158 L12.472,9.23684211 L11.428,9.23684211 L11.428,4.00263158 L10.336,4.00263158 L10.336,3.02968421 L11.428,3.02968421 L11.428,2.08136842 C11.428,1.46557587 11.5859984,0.987317493 11.902,0.646578947 C12.2180016,0.305840402 12.6639971,0.135473684 13.24,0.135473684 Z M15.4,1.47789474 L16.444,1.47789474 L16.432,3.02968421 L17.98,3.02968421 L17.98,4.01494737 L16.42,4.01494737 L16.396,7.34021053 C16.396,7.70968606 16.4579994,7.97036766 16.582,8.12226316 C16.7060006,8.27415865 16.9319984,8.35010526 17.26,8.35010526 C17.5240013,8.35010526 17.7639989,8.31315826 17.98,8.23926316 L17.98,9.18757895 C17.7559989,9.27789519 17.4560019,9.32305263 17.08,9.32305263 C16.4959971,9.32305263 16.0620014,9.17936986 15.778,8.892 C15.4939986,8.60463014 15.356,8.15305571 15.364,7.53726316 L15.388,4.01494737 L14.26,4.01494737 L14.26,3.02968421 L15.388,3.02968421 L15.4,1.47789474 Z M21.688,2.89421053 C22.5280042,2.89421053 23.1959975,3.16926041 23.692,3.71936842 C24.1880025,4.26947643 24.436,5.04536341 24.436,6.04705263 L24.436,6.552 L19.84,6.552 C19.8800002,7.11852915 20.0699983,7.56599836 20.41,7.89442105 C20.7500017,8.22284375 21.1839974,8.38705263 21.712,8.38705263 C22.5520042,8.38705263 23.0959988,8.05042442 23.344,7.37715789 L24.376,7.37715789 C24.183999,8.00937158 23.8580023,8.49994562 23.398,8.84889474 C22.9379977,9.19784385 22.3680034,9.37231579 21.688,9.37231579 C20.8239957,9.37231579 20.1240027,9.0767398 19.588,8.48557895 C19.0439973,7.88620753 18.772,7.10621533 18.772,6.14557895 C18.772,5.19315313 19.0399973,4.41726615 19.576,3.81789474 C20.1200027,3.20210218 20.8239957,2.89421053 21.688,2.89421053 Z M21.688,3.87947368 C21.1839975,3.87947368 20.7680016,4.03752474 20.44,4.35363158 C20.1119984,4.66973842 19.9160003,5.08641847 19.852,5.60368421 L23.392,5.60368421 C23.384,5.0782079 23.2240016,4.65947524 22.912,4.34747368 C22.5999984,4.03547212 22.1920025,3.87947368 21.688,3.87947368 Z M28.588,2.89421053 C29.2120031,2.89421053 29.6959983,3.10357685 30.04,3.52231579 C30.3840017,3.94105473 30.556,4.50757538 30.556,5.22189474 L30.556,9.23684211 L29.512,9.23684211 L29.512,5.39431579 C29.512,4.92631345 29.408001,4.5650539 29.2,4.31052632 C28.991999,4.05599873 28.7040018,3.92873684 28.336,3.92873684 C27.9199979,3.92873684 27.5820013,4.107314 27.322,4.46447368 C27.0619987,4.82163336 26.932,5.30399696 26.932,5.91157895 L26.932,9.23684211 L25.9,9.23684211 L25.9,3.02968421 L26.824,3.02968421 L26.884,3.87947368 C27.2200017,3.22262829 27.787996,2.89421053 28.588,2.89421053 Z" id="Default"/></g><mask id="mask-2" fill="white"><use xlink:href="#path-1"/></mask><g id="Oval-2-Copy"><use fill="black" filter="url(#filter-3)" xlink:href="#path-1"/><use fill="#FFFFFF" xlink:href="#path-1"/></g><g id="color/rating/often" mask="url(#mask-2)" fill="#E14793"><g transform="translate(-5.000000, -5.131579)" id="Rectangle-7-Copy"><rect width="50" height="51"/></g></g><path d="M20.483,14.5736842 L21.995,14.5736842 L21.995,21.3843158 L23.367,21.3843158 L23.367,22.5768947 L21.995,22.5768947 L21.995,24.6315789 L20.721,24.6315789 L20.721,22.5768947 L16.619,22.5768947 L16.619,21.4992632 L20.483,14.5736842 Z M20.735,21.3986842 L20.735,16.4415789 L20.427,17.0594211 L18.019,21.3986842 L20.735,21.3986842 Z" id="#" fill="#FFFFFF" mask="url(#mask-2)"/></g></g></g></svg>