<svg width="720px" height="648px" viewBox="0 0 720 648" xmlns="http://www.w3.org/2000/svg" xmlns:xlink="http://www.w3.org/1999/xlink"><!--Generator: Sketch 45.2 (43514) - http://www.bohemiancoding.com/sketch--><defs><rect id="path-1" width="713" height="648"/><rect id="path-3" width="616" height="170" rx="4"/><filter x="-1.6%" y="-4.7%" width="103.2%" height="111.8%" filterUnits="objectBoundingBox" id="filter-4"><feOffset dy="2" in="SourceAlpha" result="shadowOffsetOuter1"/><feGaussianBlur stdDeviation="3" in="shadowOffsetOuter1" result="shadowBlurOuter1"/><feColorMatrix values="0 0 0 0 0.243137255   0 0 0 0 0.305882353   0 0 0 0 0.384313725  0 0 0 0.6 0" in="shadowBlurOuter1"/></filter><circle id="path-5" cx="36" cy="84" r="16"/><path d="M7.85175159,15.0200555 C7.86171476,15.0271377 7.86682623,15.0307185 7.86682623,15.0307185 C7.86682623,15.0307185 7.86682137,15.0234625 7.86681193,15.0093145 C8.3610993,14.655741 14.7815611,9.968666 15.6552875,4.45217489 C15.988487,2.34843593 14.559322,0.373879572 12.4631582,0.0418798327 C10.3843539,-0.28737042 8.21257029,1.36918773 7.85175159,3.44855188 C7.49093289,1.36918773 5.31914928,-0.28737042 3.24034499,0.0418798327 C1.14418114,0.373879572 -0.284983841,2.34843593 0.0482156776,4.45217489 C0.921942034,9.968666 7.34240389,14.655741 7.83669125,15.0093145 C7.83668181,15.0234625 7.83667696,15.0307185 7.83667696,15.0307185 C7.83667696,15.0307185 7.84178842,15.0271377 7.85175159,15.0200555 Z" id="path-7"/></defs><g id="Design" fill="none" fill-rule="evenodd"><g id="responsum---case-study" transform="translate(-89.000000, -1459.000000)"><g id="section1-card2-asset" transform="translate(92.000000, 1459.000000)"><mask id="mask-2" fill="white"><use xlink:href="#path-1"/></mask><g id="newsfeed/card/question/my-care" mask="url(#mask-2)"><g transform="translate(48.000000, 245.000000)"><g id="color/ui/card---rounded"><g id="color-swatch-copy-12"><use fill="black" filter="url(#filter-4)" xlink:href="#path-3"/><use fill="#FFFFFF" xlink:href="#path-3"/></g></g><path d="M110.468,24.6 L111.56,24.6 L111.56,33 L110.468,33 L110.468,29.172 L106.028,29.172 L106.028,33 L104.936,33 L104.936,24.6 L106.028,24.6 L106.028,28.14 L110.468,28.14 L110.468,24.6 Z M115.832,26.82 C116.672004,26.82 117.339998,27.0879973 117.836,27.624 C118.332002,28.1600027 118.58,28.9159951 118.58,29.892 L118.58,30.384 L113.984,30.384 C114.024,30.9360028 114.213998,31.3719984 114.554,31.692 C114.894002,32.0120016 115.327997,32.172 115.856,32.172 C116.696004,32.172 117.239999,31.8440033 117.488,31.188 L118.52,31.188 C118.327999,31.8040031 118.002002,32.2819983 117.542,32.622 C117.081998,32.9620017 116.512003,33.132 115.832,33.132 C114.967996,33.132 114.268003,32.8440029 113.732,32.268 C113.187997,31.6839971 112.916,30.9240047 112.916,29.988 C112.916,29.0599954 113.183997,28.3040029 113.72,27.72 C114.264003,27.119997 114.967996,26.82 115.832,26.82 Z M115.832,27.78 C115.327997,27.78 114.912002,27.9339985 114.584,28.242 C114.255998,28.5500015 114.06,28.9559975 113.996,29.46 L117.536,29.46 C117.528,28.9479974 117.368002,28.5400015 117.056,28.236 C116.743998,27.9319985 116.336003,27.78 115.832,27.78 Z M120.08,24.24 L121.112,24.24 L121.112,33 L120.08,33 L120.08,24.24 Z M126.116,26.82 C126.964004,26.82 127.643997,27.119997 128.156,27.72 C128.676003,28.312003 128.936,29.0639954 128.936,29.976 C128.936,30.8800045 128.672003,31.631997 128.144,32.232 C127.623997,32.832003 126.944004,33.132 126.104,33.132 C125.647998,33.132 125.246002,33.0460009 124.898,32.874 C124.549998,32.7019991 124.284001,32.4680015 124.1,32.172 L124.1,35.58 L123.056,35.58 L123.056,26.952 L123.992,26.952 L124.04,27.84 C124.504002,27.1599966 125.195995,26.82 126.116,26.82 Z M125.96,27.792 C125.439997,27.792 124.996002,27.987998 124.628,28.38 C124.259998,28.772002 124.076,29.2839968 124.076,29.916 L124.076,29.976 C124.076,30.6320033 124.259998,31.155998 124.628,31.548 C125.004002,31.948002 125.443997,32.148 125.948,32.148 C126.508003,32.148 126.967998,31.948002 127.328,31.548 C127.688002,31.139998 127.868,30.6160032 127.868,29.976 C127.868,29.3279968 127.694002,28.802002 127.346,28.398 C126.997998,27.993998 126.536003,27.792 125.96,27.792 Z M136.232,26.952 L137.264,26.952 L137.264,33 L136.34,33 L136.28,32.172 C135.975998,32.8120032 135.420004,33.132 134.612,33.132 C133.987997,33.132 133.508002,32.930002 133.172,32.526 C132.835998,32.121998 132.668,31.5680035 132.668,30.864 L132.668,26.952 L133.7,26.952 L133.7,30.696 C133.7,31.1680024 133.799999,31.5259988 134,31.77 C134.200001,32.0140012 134.483998,32.136 134.852,32.136 C135.260002,32.136 135.591999,31.9720016 135.848,31.644 C136.104001,31.3159984 136.232,30.8720028 136.232,30.312 L136.232,26.952 Z M140.804,26.82 C141.380003,26.82 141.851998,26.9959982 142.22,27.348 C142.588002,27.6920017 142.78,28.1519971 142.796,28.728 L141.74,28.728 C141.732,28.0959968 141.412003,27.78 140.78,27.78 C140.483999,27.78 140.256001,27.8539993 140.096,28.002 C139.935999,28.1500007 139.856,28.3479988 139.856,28.596 C139.856,28.8360012 139.933999,29.0159994 140.09,29.136 C140.246001,29.2560006 140.547998,29.3679995 140.996,29.472 C141.716004,29.6400008 142.225999,29.8619986 142.526,30.138 C142.826001,30.4140014 142.976,30.7959976 142.976,31.284 C142.976,31.8520028 142.780002,32.3019983 142.388,32.634 C141.995998,32.9660017 141.484003,33.132 140.852,33.132 C140.171997,33.132 139.638002,32.9560018 139.25,32.604 C138.861998,32.2519982 138.66,31.772003 138.644,31.164 L139.7,31.164 C139.708,31.8360034 140.099996,32.172 140.876,32.172 C141.204002,32.172 141.459999,32.0980007 141.644,31.95 C141.828001,31.8019993 141.92,31.6040012 141.92,31.356 C141.92,31.0999987 141.832001,30.9020007 141.656,30.762 C141.479999,30.6219993 141.148002,30.4960006 140.66,30.384 C140.003997,30.2319992 139.530001,30.0240013 139.238,29.76 C138.945999,29.4959987 138.8,29.1280024 138.8,28.656 C138.8,28.1439974 138.975998,27.7120018 139.328,27.36 C139.688002,26.9999982 140.179997,26.82 140.804,26.82 Z M150.332,26.952 L151.364,26.952 L151.364,33 L150.44,33 L150.38,32.172 C150.075998,32.8120032 149.520004,33.132 148.712,33.132 C148.087997,33.132 147.608002,32.930002 147.272,32.526 C146.935998,32.121998 146.768,31.5680035 146.768,30.864 L146.768,26.952 L147.8,26.952 L147.8,30.696 C147.8,31.1680024 147.899999,31.5259988 148.1,31.77 C148.300001,32.0140012 148.583998,32.136 148.952,32.136 C149.360002,32.136 149.691999,31.9720016 149.948,31.644 C150.204001,31.3159984 150.332,30.8720028 150.332,30.312 L150.332,26.952 Z M155.876,26.82 C156.500003,26.82 156.983998,27.023998 157.328,27.432 C157.672002,27.840002 157.844,28.3919965 157.844,29.088 L157.844,33 L156.8,33 L156.8,29.256 C156.8,28.7999977 156.696001,28.4480012 156.488,28.2 C156.279999,27.9519988 155.992002,27.828 155.624,27.828 C155.207998,27.828 154.870001,28.0019983 154.61,28.35 C154.349999,28.6980017 154.22,29.167997 154.22,29.76 L154.22,33 L153.188,33 L153.188,26.952 L154.112,26.952 L154.172,27.78 C154.508002,27.1399968 155.075996,26.82 155.876,26.82 Z M163.928,24.24 L164.96,24.24 L164.96,33 L164.036,33 L163.976,32.112 C163.511998,32.7920034 162.820005,33.132 161.9,33.132 C161.059996,33.132 160.380003,32.836003 159.86,32.244 C159.339997,31.635997 159.08,30.8800045 159.08,29.976 C159.08,29.0799955 159.339997,28.328003 159.86,27.72 C160.388003,27.119997 161.071996,26.82 161.912,26.82 C162.832005,26.82 163.503998,27.1399968 163.928,27.78 L163.928,24.24 Z M162.068,27.804 C161.507997,27.804 161.048002,28.007998 160.688,28.416 C160.327998,28.816002 160.148,29.3359968 160.148,29.976 C160.148,30.6240032 160.321998,31.149998 160.67,31.554 C161.018002,31.958002 161.479997,32.16 162.056,32.16 C162.568003,32.16 163.007998,31.964002 163.376,31.572 C163.752002,31.171998 163.94,30.6600031 163.94,30.036 L163.94,29.976 C163.94,29.3279968 163.752002,28.804002 163.376,28.404 C162.999998,28.003998 162.564002,27.804 162.068,27.804 Z M169.208,26.82 C170.048004,26.82 170.715998,27.0879973 171.212,27.624 C171.708002,28.1600027 171.956,28.9159951 171.956,29.892 L171.956,30.384 L167.36,30.384 C167.4,30.9360028 167.589998,31.3719984 167.93,31.692 C168.270002,32.0120016 168.703997,32.172 169.232,32.172 C170.072004,32.172 170.615999,31.8440033 170.864,31.188 L171.896,31.188 C171.703999,31.8040031 171.378002,32.2819983 170.918,32.622 C170.457998,32.9620017 169.888003,33.132 169.208,33.132 C168.343996,33.132 167.644003,32.8440029 167.108,32.268 C166.563997,31.6839971 166.292,30.9240047 166.292,29.988 C166.292,29.0599954 166.559997,28.3040029 167.096,27.72 C167.640003,27.119997 168.343996,26.82 169.208,26.82 Z M169.208,27.78 C168.703997,27.78 168.288002,27.9339985 167.96,28.242 C167.631998,28.5500015 167.436,28.9559975 167.372,29.46 L170.912,29.46 C170.904,28.9479974 170.744002,28.5400015 170.432,28.236 C170.119998,27.9319985 169.712003,27.78 169.208,27.78 Z M176.3,26.892 L176.3,27.924 C175.803998,27.924 175.396002,28.0719985 175.076,28.368 C174.723998,28.6880016 174.54,29.1639968 174.524,29.796 L174.524,33 L173.492,33 L173.492,26.952 L174.416,26.952 L174.488,28.008 C174.608001,27.6799984 174.825998,27.412001 175.142,27.204 C175.458002,26.995999 175.843998,26.892 176.3,26.892 Z M179.216,26.82 C179.792003,26.82 180.263998,26.9959982 180.632,27.348 C181.000002,27.6920017 181.192,28.1519971 181.208,28.728 L180.152,28.728 C180.144,28.0959968 179.824003,27.78 179.192,27.78 C178.895999,27.78 178.668001,27.8539993 178.508,28.002 C178.347999,28.1500007 178.268,28.3479988 178.268,28.596 C178.268,28.8360012 178.345999,29.0159994 178.502,29.136 C178.658001,29.2560006 178.959998,29.3679995 179.408,29.472 C180.128004,29.6400008 180.637998,29.8619986 180.938,30.138 C181.238001,30.4140014 181.388,30.7959976 181.388,31.284 C181.388,31.8520028 181.192002,32.3019983 180.8,32.634 C180.407998,32.9660017 179.896003,33.132 179.264,33.132 C178.583997,33.132 178.050002,32.9560018 177.662,32.604 C177.273998,32.2519982 177.072,31.772003 177.056,31.164 L178.112,31.164 C178.12,31.8360034 178.511996,32.172 179.288,32.172 C179.616002,32.172 179.871999,32.0980007 180.056,31.95 C180.240001,31.8019993 180.332,31.6040012 180.332,31.356 C180.332,31.0999987 180.244001,30.9020007 180.068,30.762 C179.891999,30.6219993 179.560002,30.4960006 179.072,30.384 C178.415997,30.2319992 177.942001,30.0240013 177.65,29.76 C177.357999,29.4959987 177.212,29.1280024 177.212,28.656 C177.212,28.1439974 177.387998,27.7120018 177.74,27.36 C178.100002,26.9999982 178.591997,26.82 179.216,26.82 Z M183.128,25.44 L184.172,25.44 L184.16,26.952 L185.708,26.952 L185.708,27.912 L184.148,27.912 L184.124,31.152 C184.124,31.5120018 184.185999,31.7659993 184.31,31.914 C184.434001,32.0620007 184.659998,32.136 184.988,32.136 C185.252001,32.136 185.491999,32.1000004 185.708,32.028 L185.708,32.952 C185.483999,33.0400004 185.184002,33.084 184.808,33.084 C184.223997,33.084 183.790001,32.9440014 183.506,32.664 C183.221999,32.3839986 183.084,31.944003 183.092,31.344 L183.116,27.912 L181.988,27.912 L181.988,26.952 L183.116,26.952 L183.128,25.44 Z M189.056,26.82 C189.736003,26.82 190.265998,27.0079981 190.646,27.384 C191.026002,27.7600019 191.216,28.2959965 191.216,28.992 L191.216,33 L190.28,33 L190.232,32.172 C190.063999,32.4680015 189.820002,32.7019991 189.5,32.874 C189.179998,33.0460009 188.812002,33.132 188.396,33.132 C187.859997,33.132 187.432002,32.9780015 187.112,32.67 C186.791998,32.3619985 186.632,31.9480026 186.632,31.428 C186.632,30.4759952 187.195994,29.8920011 188.324,29.676 L190.172,29.328 L190.172,29.028 C190.172,28.1959958 189.800004,27.78 189.056,27.78 C188.687998,27.78 188.390001,27.877999 188.162,28.074 C187.933999,28.270001 187.82,28.5399983 187.82,28.884 L186.8,28.884 C186.816,28.2999971 187.031998,27.808002 187.448,27.408 C187.864002,27.015998 188.399997,26.82 189.056,26.82 Z M190.172,30.456 L190.172,30.228 L188.516,30.588 C188.235999,30.6600004 188.026001,30.7579994 187.886,30.882 C187.745999,31.0060006 187.676,31.1839988 187.676,31.416 C187.676,31.6560012 187.755999,31.8419993 187.916,31.974 C188.076001,32.1060007 188.303999,32.172 188.6,32.172 C189.128003,32.172 189.535999,31.972002 189.824,31.572 C190.056001,31.2519984 190.172,30.8800021 190.172,30.456 Z M195.608,26.82 C196.232003,26.82 196.715998,27.023998 197.06,27.432 C197.404002,27.840002 197.576,28.3919965 197.576,29.088 L197.576,33 L196.532,33 L196.532,29.256 C196.532,28.7999977 196.428001,28.4480012 196.22,28.2 C196.011999,27.9519988 195.724002,27.828 195.356,27.828 C194.939998,27.828 194.602001,28.0019983 194.342,28.35 C194.081999,28.6980017 193.952,29.167997 193.952,29.76 L193.952,33 L192.92,33 L192.92,26.952 L193.844,26.952 L193.904,27.78 C194.240002,27.1399968 194.807996,26.82 195.608,26.82 Z M203.66,24.24 L204.692,24.24 L204.692,33 L203.768,33 L203.708,32.112 C203.243998,32.7920034 202.552005,33.132 201.632,33.132 C200.791996,33.132 200.112003,32.836003 199.592,32.244 C199.071997,31.635997 198.812,30.8800045 198.812,29.976 C198.812,29.0799955 199.071997,28.328003 199.592,27.72 C200.120003,27.119997 200.803996,26.82 201.644,26.82 C202.564005,26.82 203.235998,27.1399968 203.66,27.78 L203.66,24.24 Z M201.8,27.804 C201.239997,27.804 200.780002,28.007998 200.42,28.416 C200.059998,28.816002 199.88,29.3359968 199.88,29.976 C199.88,30.6240032 200.053998,31.149998 200.402,31.554 C200.750002,31.958002 201.211997,32.16 201.788,32.16 C202.300003,32.16 202.739998,31.964002 203.108,31.572 C203.484002,31.171998 203.672,30.6600031 203.672,30.036 L203.672,29.976 C203.672,29.3279968 203.484002,28.804002 203.108,28.404 C202.731998,28.003998 202.296002,27.804 201.8,27.804 Z M212.804,26.952 L213.92,26.952 L210.62,35.58 L209.528,35.58 L210.536,32.916 L208.268,26.952 L209.372,26.952 L210.968,31.296 L211.088,31.752 L211.208,31.296 L212.804,26.952 Z M217.616,26.82 C218.512004,26.82 219.243997,27.115997 219.812,27.708 C220.388003,28.2920029 220.676,29.0479954 220.676,29.976 C220.676,30.9040046 220.388003,31.6599971 219.812,32.244 C219.243997,32.836003 218.512004,33.132 217.616,33.132 C216.711995,33.132 215.972003,32.836003 215.396,32.244 C214.827997,31.651997 214.544,30.8960046 214.544,29.976 C214.544,29.0559954 214.827997,28.300003 215.396,27.708 C215.972003,27.115997 216.711995,26.82 217.616,26.82 Z M217.628,27.78 C217.019997,27.78 216.532002,27.9879979 216.164,28.404 C215.795998,28.804002 215.612,29.3279968 215.612,29.976 C215.612,30.6080032 215.795998,31.1319979 216.164,31.548 C216.532002,31.9640021 217.019997,32.172 217.628,32.172 C218.220003,32.172 218.695998,31.9640021 219.056,31.548 C219.424002,31.1319979 219.608,30.6080032 219.608,29.976 C219.608,29.3279968 219.424002,28.804002 219.056,28.404 C218.695998,27.9879979 218.220003,27.78 217.628,27.78 Z M225.5,26.952 L226.532,26.952 L226.532,33 L225.608,33 L225.548,32.172 C225.243998,32.8120032 224.688004,33.132 223.88,33.132 C223.255997,33.132 222.776002,32.930002 222.44,32.526 C222.103998,32.121998 221.936,31.5680035 221.936,30.864 L221.936,26.952 L222.968,26.952 L222.968,30.696 C222.968,31.1680024 223.067999,31.5259988 223.268,31.77 C223.468001,32.0140012 223.751998,32.136 224.12,32.136 C224.528002,32.136 224.859999,31.9720016 225.116,31.644 C225.372001,31.3159984 225.5,30.8720028 225.5,30.312 L225.5,26.952 Z M230.828,24.24 L231.86,24.24 L231.86,27.78 C232.284002,27.1399968 232.955995,26.82 233.876,26.82 C234.724004,26.82 235.403997,27.119997 235.916,27.72 C236.444003,28.320003 236.708,29.0719955 236.708,29.976 C236.708,30.8800045 236.448003,31.635997 235.928,32.244 C235.407997,32.836003 234.728004,33.132 233.888,33.132 C232.967995,33.132 232.276002,32.7920034 231.812,32.112 L231.752,33 L230.828,33 L230.828,24.24 Z M233.72,27.804 C233.215997,27.804 232.776002,28.003998 232.4,28.404 C232.031998,28.796002 231.848,29.3199967 231.848,29.976 L231.848,30.036 C231.848,30.6680032 232.031998,31.179998 232.4,31.572 C232.768002,31.964002 233.211997,32.16 233.732,32.16 C234.308003,32.16 234.769998,31.958002 235.118,31.554 C235.466002,31.149998 235.64,30.6240032 235.64,29.976 C235.64,29.3359968 235.460002,28.816002 235.1,28.416 C234.739998,28.007998 234.280003,27.804 233.72,27.804 Z M240.464,26.82 C241.304004,26.82 241.971998,27.0879973 242.468,27.624 C242.964002,28.1600027 243.212,28.9159951 243.212,29.892 L243.212,30.384 L238.616,30.384 C238.656,30.9360028 238.845998,31.3719984 239.186,31.692 C239.526002,32.0120016 239.959997,32.172 240.488,32.172 C241.328004,32.172 241.871999,31.8440033 242.12,31.188 L243.152,31.188 C242.959999,31.8040031 242.634002,32.2819983 242.174,32.622 C241.713998,32.9620017 241.144003,33.132 240.464,33.132 C239.599996,33.132 238.900003,32.8440029 238.364,32.268 C237.819997,31.6839971 237.548,30.9240047 237.548,29.988 C237.548,29.0599954 237.815997,28.3040029 238.352,27.72 C238.896003,27.119997 239.599996,26.82 240.464,26.82 Z M240.464,27.78 C239.959997,27.78 239.544002,27.9339985 239.216,28.242 C238.887998,28.5500015 238.692,28.9559975 238.628,29.46 L242.168,29.46 C242.16,28.9479974 242.000002,28.5400015 241.688,28.236 C241.375998,27.9319985 240.968003,27.78 240.464,27.78 Z M245.012,25.44 L246.056,25.44 L246.044,26.952 L247.592,26.952 L247.592,27.912 L246.032,27.912 L246.008,31.152 C246.008,31.5120018 246.069999,31.7659993 246.194,31.914 C246.318001,32.0620007 246.543998,32.136 246.872,32.136 C247.136001,32.136 247.375999,32.1000004 247.592,32.028 L247.592,32.952 C247.367999,33.0400004 247.068002,33.084 246.692,33.084 C246.107997,33.084 245.674001,32.9440014 245.39,32.664 C245.105999,32.3839986 244.968,31.944003 244.976,31.344 L245,27.912 L243.872,27.912 L243.872,26.952 L245,26.952 L245.012,25.44 Z M249.212,25.44 L250.256,25.44 L250.244,26.952 L251.792,26.952 L251.792,27.912 L250.232,27.912 L250.208,31.152 C250.208,31.5120018 250.269999,31.7659993 250.394,31.914 C250.518001,32.0620007 250.743998,32.136 251.072,32.136 C251.336001,32.136 251.575999,32.1000004 251.792,32.028 L251.792,32.952 C251.567999,33.0400004 251.268002,33.084 250.892,33.084 C250.307997,33.084 249.874001,32.9440014 249.59,32.664 C249.305999,32.3839986 249.168,31.944003 249.176,31.344 L249.2,27.912 L248.072,27.912 L248.072,26.952 L249.2,26.952 L249.212,25.44 Z M255.5,26.82 C256.340004,26.82 257.007998,27.0879973 257.504,27.624 C258.000002,28.1600027 258.248,28.9159951 258.248,29.892 L258.248,30.384 L253.652,30.384 C253.692,30.9360028 253.881998,31.3719984 254.222,31.692 C254.562002,32.0120016 254.995997,32.172 255.524,32.172 C256.364004,32.172 256.907999,31.8440033 257.156,31.188 L258.188,31.188 C257.995999,31.8040031 257.670002,32.2819983 257.21,32.622 C256.749998,32.9620017 256.180003,33.132 255.5,33.132 C254.635996,33.132 253.936003,32.8440029 253.4,32.268 C252.855997,31.6839971 252.584,30.9240047 252.584,29.988 C252.584,29.0599954 252.851997,28.3040029 253.388,27.72 C253.932003,27.119997 254.635996,26.82 255.5,26.82 Z M255.5,27.78 C254.995997,27.78 254.580002,27.9339985 254.252,28.242 C253.923998,28.5500015 253.728,28.9559975 253.664,29.46 L257.204,29.46 C257.196,28.9479974 257.036002,28.5400015 256.724,28.236 C256.411998,27.9319985 256.004003,27.78 255.5,27.78 Z M262.592,26.892 L262.592,27.924 C262.095998,27.924 261.688002,28.0719985 261.368,28.368 C261.015998,28.6880016 260.832,29.1639968 260.816,29.796 L260.816,33 L259.784,33 L259.784,26.952 L260.708,26.952 L260.78,28.008 C260.900001,27.6799984 261.117998,27.412001 261.434,27.204 C261.750002,26.995999 262.135998,26.892 262.592,26.892 Z M264.848,32.388 C264.848,32.596001 264.774001,32.7719993 264.626,32.916 C264.477999,33.0600007 264.300001,33.132 264.092,33.132 C263.875999,33.132 263.696001,33.0600007 263.552,32.916 C263.407999,32.7719993 263.336,32.596001 263.336,32.388 C263.336,32.1719989 263.407999,31.9940007 263.552,31.854 C263.696001,31.7139993 263.875999,31.644 264.092,31.644 C264.308001,31.644 264.487999,31.7139993 264.632,31.854 C264.776001,31.9940007 264.848,32.1719989 264.848,32.388 Z" id="Help-us-understand-y" fill="#7B8A9D"/><path d="M105.092,77.2 L106.366,77.2 L106.366,87 L105.092,87 L105.092,77.2 Z M111.042,76.654 C111.415335,76.654 111.732665,76.7099994 111.994,76.822 L111.994,77.914 C111.732665,77.8019994 111.448002,77.746 111.14,77.746 C110.47733,77.746 110.146,78.1286628 110.146,78.894 L110.146,79.944 L111.896,79.944 L111.896,81.05 L110.146,81.05 L110.146,87 L108.928,87 L108.928,81.05 L107.654,81.05 L107.654,79.944 L108.928,79.944 L108.928,78.866 C108.928,78.1659965 109.112331,77.6223353 109.481,77.235 C109.849669,76.8476647 110.369997,76.654 111.042,76.654 Z M120.506,79.944 L121.808,79.944 L117.958,90.01 L116.684,90.01 L117.86,86.902 L115.214,79.944 L116.502,79.944 L118.364,85.012 L118.504,85.544 L118.644,85.012 L120.506,79.944 Z M126.12,79.79 C127.165339,79.79 128.01933,80.1353299 128.682,80.826 C129.354003,81.5073367 129.69,82.3893279 129.69,83.472 C129.69,84.5546721 129.354003,85.4366633 128.682,86.118 C128.01933,86.8086701 127.165339,87.154 126.12,87.154 C125.065328,87.154 124.202003,86.8086701 123.53,86.118 C122.86733,85.4273299 122.536,84.5453387 122.536,83.472 C122.536,82.3986613 122.86733,81.5166701 123.53,80.826 C124.202003,80.1353299 125.065328,79.79 126.12,79.79 Z M126.134,80.91 C125.424663,80.91 124.855335,81.1526642 124.426,81.638 C123.996665,82.104669 123.782,82.7159962 123.782,83.472 C123.782,84.209337 123.996665,84.8206642 124.426,85.306 C124.855335,85.7913358 125.424663,86.034 126.134,86.034 C126.82467,86.034 127.379998,85.7913358 127.8,85.306 C128.229335,84.8206642 128.444,84.209337 128.444,83.472 C128.444,82.7159962 128.229335,82.104669 127.8,81.638 C127.379998,81.1526642 126.82467,80.91 126.134,80.91 Z M135.318,79.944 L136.522,79.944 L136.522,87 L135.444,87 L135.374,86.034 C135.019332,86.7806704 134.370671,87.154 133.428,87.154 C132.699996,87.154 132.140002,86.9183357 131.748,86.447 C131.355998,85.9756643 131.16,85.3293374 131.16,84.508 L131.16,79.944 L132.364,79.944 L132.364,84.312 C132.364,84.8626694 132.480665,85.2803319 132.714,85.565 C132.947335,85.8496681 133.278665,85.992 133.708,85.992 C134.184002,85.992 134.571332,85.8006686 134.87,85.418 C135.168668,85.0353314 135.318,84.5173366 135.318,83.864 L135.318,79.944 Z M138.874,76.864 C139.126001,76.864 139.331333,76.9479992 139.49,77.116 C139.648667,77.2840008 139.728,77.503332 139.728,77.774 C139.728,78.6513377 139.387337,79.4773295 138.706,80.252 L138.314,80.098 C138.566001,79.631331 138.729333,79.1040029 138.804,78.516 C138.579999,78.4973332 138.395667,78.4133341 138.251,78.264 C138.106333,78.1146659 138.034,77.9280011 138.034,77.704 C138.034,77.4706655 138.115666,77.2723342 138.279,77.109 C138.442334,76.9456658 138.640666,76.864 138.874,76.864 Z M144.6,79.874 L144.6,81.078 C144.02133,81.078 143.545335,81.2506649 143.172,81.596 C142.761331,81.9693352 142.546667,82.524663 142.528,83.262 L142.528,87 L141.324,87 L141.324,79.944 L142.402,79.944 L142.486,81.176 C142.626001,80.7933314 142.880331,80.4806679 143.249,80.238 C143.617669,79.9953321 144.067997,79.874 144.6,79.874 Z M148.828,79.79 C149.808005,79.79 150.58733,80.1026635 151.166,80.728 C151.74467,81.3533365 152.034,82.2353276 152.034,83.374 L152.034,83.948 L146.672,83.948 C146.718667,84.5920032 146.940331,85.1006648 147.337,85.474 C147.733669,85.8473352 148.239997,86.034 148.856,86.034 C149.836005,86.034 150.470665,85.6513372 150.76,84.886 L151.964,84.886 C151.739999,85.6046703 151.359669,86.1623314 150.823,86.559 C150.286331,86.9556687 149.621337,87.154 148.828,87.154 C147.819995,87.154 147.003336,86.8180034 146.378,86.146 C145.74333,85.4646633 145.426,84.5780055 145.426,83.486 C145.426,82.4033279 145.738664,81.5213367 146.364,80.84 C146.99867,80.1399965 147.819995,79.79 148.828,79.79 Z M148.828,80.91 C148.239997,80.91 147.754669,81.0896649 147.372,81.449 C146.989331,81.8083351 146.760667,82.2819971 146.686,82.87 L150.816,82.87 C150.806667,82.2726637 150.620002,81.7966684 150.256,81.442 C149.891998,81.0873316 149.416003,80.91 148.828,80.91 Z M159.034,79.79 C159.827337,79.79 160.445664,80.0093311 160.889,80.448 C161.332336,80.8866689 161.554,81.5119959 161.554,82.324 L161.554,87 L160.462,87 L160.406,86.034 C160.209999,86.3793351 159.925335,86.6523323 159.552,86.853 C159.178665,87.0536677 158.749336,87.154 158.264,87.154 C157.638664,87.154 157.139335,86.9743351 156.766,86.615 C156.392665,86.2556649 156.206,85.7726697 156.206,85.166 C156.206,84.0553278 156.863993,83.3740013 158.18,83.122 L160.336,82.716 L160.336,82.366 C160.336,81.3953285 159.902004,80.91 159.034,80.91 C158.604665,80.91 158.257001,81.0243322 157.991,81.253 C157.724999,81.4816678 157.592,81.7966647 157.592,82.198 L156.402,82.198 C156.420667,81.5166633 156.672664,80.942669 157.158,80.476 C157.643336,80.0186644 158.268663,79.79 159.034,79.79 Z M160.336,84.032 L160.336,83.766 L158.404,84.186 C158.077332,84.2700004 157.832334,84.3843326 157.669,84.529 C157.505666,84.6736674 157.424,84.881332 157.424,85.152 C157.424,85.4320014 157.517332,85.6489992 157.704,85.803 C157.890668,85.9570008 158.156665,86.034 158.502,86.034 C159.118003,86.034 159.593998,85.800669 159.93,85.334 C160.200668,84.9606648 160.336,84.5266691 160.336,84.032 Z M169.282,79.79 C170.084671,79.79 170.765997,79.9953313 171.326,80.406 C171.886003,80.8166687 172.249999,81.3953296 172.418,82.142 L171.214,82.142 C171.073999,81.749998 170.833668,81.4466677 170.493,81.232 C170.152332,81.0173323 169.753336,80.91 169.296,80.91 C168.66133,80.91 168.134002,81.1526642 167.714,81.638 C167.303331,82.1326691 167.098,82.748663 167.098,83.486 C167.098,84.2046703 167.307998,84.8113309 167.728,85.306 C168.148002,85.7913358 168.679997,86.034 169.324,86.034 C169.772002,86.034 170.168665,85.9220011 170.514,85.698 C170.859335,85.4739989 171.092666,85.1753352 171.214,84.802 L172.432,84.802 C172.245332,85.5486704 171.872003,86.1273313 171.312,86.538 C170.751997,86.9486687 170.075337,87.154 169.282,87.154 C168.283328,87.154 167.462003,86.8086701 166.818,86.118 C166.173997,85.4366633 165.852,84.5593387 165.852,83.486 C165.852,82.4219947 166.173997,81.5400035 166.818,80.84 C167.48067,80.1399965 168.301995,79.79 169.282,79.79 Z M176.45,79.79 C177.243337,79.79 177.861664,80.0093311 178.305,80.448 C178.748336,80.8866689 178.97,81.5119959 178.97,82.324 L178.97,87 L177.878,87 L177.822,86.034 C177.625999,86.3793351 177.341335,86.6523323 176.968,86.853 C176.594665,87.0536677 176.165336,87.154 175.68,87.154 C175.054664,87.154 174.555335,86.9743351 174.182,86.615 C173.808665,86.2556649 173.622,85.7726697 173.622,85.166 C173.622,84.0553278 174.279993,83.3740013 175.596,83.122 L177.752,82.716 L177.752,82.366 C177.752,81.3953285 177.318004,80.91 176.45,80.91 C176.020665,80.91 175.673001,81.0243322 175.407,81.253 C175.140999,81.4816678 175.008,81.7966647 175.008,82.198 L173.818,82.198 C173.836667,81.5166633 174.088664,80.942669 174.574,80.476 C175.059336,80.0186644 175.684663,79.79 176.45,79.79 Z M177.752,84.032 L177.752,83.766 L175.82,84.186 C175.493332,84.2700004 175.248334,84.3843326 175.085,84.529 C174.921666,84.6736674 174.84,84.881332 174.84,85.152 C174.84,85.4320014 174.933332,85.6489992 175.12,85.803 C175.306668,85.9570008 175.572665,86.034 175.918,86.034 C176.534003,86.034 177.009998,85.800669 177.346,85.334 C177.616668,84.9606648 177.752,84.5266691 177.752,84.032 Z M184.318,79.874 L184.318,81.078 C183.73933,81.078 183.263335,81.2506649 182.89,81.596 C182.479331,81.9693352 182.264667,82.524663 182.246,83.262 L182.246,87 L181.042,87 L181.042,79.944 L182.12,79.944 L182.204,81.176 C182.344001,80.7933314 182.598331,80.4806679 182.967,80.238 C183.335669,79.9953321 183.785997,79.874 184.318,79.874 Z M188.546,79.79 C189.526005,79.79 190.30533,80.1026635 190.884,80.728 C191.46267,81.3533365 191.752,82.2353276 191.752,83.374 L191.752,83.948 L186.39,83.948 C186.436667,84.5920032 186.658331,85.1006648 187.055,85.474 C187.451669,85.8473352 187.957997,86.034 188.574,86.034 C189.554005,86.034 190.188665,85.6513372 190.478,84.886 L191.682,84.886 C191.457999,85.6046703 191.077669,86.1623314 190.541,86.559 C190.004331,86.9556687 189.339337,87.154 188.546,87.154 C187.537995,87.154 186.721336,86.8180034 186.096,86.146 C185.46133,85.4646633 185.144,84.5780055 185.144,83.486 C185.144,82.4033279 185.456664,81.5213367 186.082,80.84 C186.71667,80.1399965 187.537995,79.79 188.546,79.79 Z M188.546,80.91 C187.957997,80.91 187.472669,81.0896649 187.09,81.449 C186.707331,81.8083351 186.478667,82.2819971 186.404,82.87 L190.534,82.87 C190.524667,82.2726637 190.338002,81.7966684 189.974,81.442 C189.609998,81.0873316 189.134003,80.91 188.546,80.91 Z M193.852,78.18 L195.07,78.18 L195.056,79.944 L196.862,79.944 L196.862,81.064 L195.042,81.064 L195.014,84.844 C195.014,85.2640021 195.086333,85.5603325 195.231,85.733 C195.375667,85.9056675 195.639331,85.992 196.022,85.992 C196.330002,85.992 196.609999,85.9500004 196.862,85.866 L196.862,86.944 C196.600665,87.0466672 196.250669,87.098 195.812,87.098 C195.130663,87.098 194.624335,86.9346683 194.293,86.608 C193.961665,86.2813317 193.800667,85.7680035 193.81,85.068 L193.838,81.064 L192.522,81.064 L192.522,79.944 L193.838,79.944 L193.852,78.18 Z M200.768,79.79 C201.561337,79.79 202.179664,80.0093311 202.623,80.448 C203.066336,80.8866689 203.288,81.5119959 203.288,82.324 L203.288,87 L202.196,87 L202.14,86.034 C201.943999,86.3793351 201.659335,86.6523323 201.286,86.853 C200.912665,87.0536677 200.483336,87.154 199.998,87.154 C199.372664,87.154 198.873335,86.9743351 198.5,86.615 C198.126665,86.2556649 197.94,85.7726697 197.94,85.166 C197.94,84.0553278 198.597993,83.3740013 199.914,83.122 L202.07,82.716 L202.07,82.366 C202.07,81.3953285 201.636004,80.91 200.768,80.91 C200.338665,80.91 199.991001,81.0243322 199.725,81.253 C199.458999,81.4816678 199.326,81.7966647 199.326,82.198 L198.136,82.198 C198.154667,81.5166633 198.406664,80.942669 198.892,80.476 C199.377336,80.0186644 200.002663,79.79 200.768,79.79 Z M202.07,84.032 L202.07,83.766 L200.138,84.186 C199.811332,84.2700004 199.566334,84.3843326 199.403,84.529 C199.239666,84.6736674 199.158,84.881332 199.158,85.152 C199.158,85.4320014 199.251332,85.6489992 199.438,85.803 C199.624668,85.9570008 199.890665,86.034 200.236,86.034 C200.852003,86.034 201.327998,85.800669 201.664,85.334 C201.934668,84.9606648 202.07,84.5266691 202.07,84.032 Z M205.36,76.78 L206.564,76.78 L206.564,83.248 L209.21,79.944 L210.68,79.944 L208.398,82.87 L211.044,87 L209.658,87 L207.558,83.794 L206.564,84.998 L206.564,87 L205.36,87 L205.36,76.78 Z M215.104,79.79 C216.084005,79.79 216.86333,80.1026635 217.442,80.728 C218.02067,81.3533365 218.31,82.2353276 218.31,83.374 L218.31,83.948 L212.948,83.948 C212.994667,84.5920032 213.216331,85.1006648 213.613,85.474 C214.009669,85.8473352 214.515997,86.034 215.132,86.034 C216.112005,86.034 216.746665,85.6513372 217.036,84.886 L218.24,84.886 C218.015999,85.6046703 217.635669,86.1623314 217.099,86.559 C216.562331,86.9556687 215.897337,87.154 215.104,87.154 C214.095995,87.154 213.279336,86.8180034 212.654,86.146 C212.01933,85.4646633 211.702,84.5780055 211.702,83.486 C211.702,82.4033279 212.014664,81.5213367 212.64,80.84 C213.27467,80.1399965 214.095995,79.79 215.104,79.79 Z M215.104,80.91 C214.515997,80.91 214.030669,81.0896649 213.648,81.449 C213.265331,81.8083351 213.036667,82.2819971 212.962,82.87 L217.092,82.87 C217.082667,82.2726637 216.896002,81.7966684 216.532,81.442 C216.167998,81.0873316 215.692003,80.91 215.104,80.91 Z M223.378,79.874 L223.378,81.078 C222.79933,81.078 222.323335,81.2506649 221.95,81.596 C221.539331,81.9693352 221.324667,82.524663 221.306,83.262 L221.306,87 L220.102,87 L220.102,79.944 L221.18,79.944 L221.264,81.176 C221.404001,80.7933314 221.658331,80.4806679 222.027,80.238 C222.395669,79.9953321 222.845997,79.874 223.378,79.874 Z M225.1,85.46 C225.342668,85.46 225.543333,85.5439992 225.702,85.712 C225.860667,85.8800008 225.94,86.099332 225.94,86.37 C225.94,86.7806687 225.846668,87.2076644 225.66,87.651 C225.473332,88.0943355 225.226002,88.4886649 224.918,88.834 L224.526,88.68 C224.787335,88.2413311 224.950666,87.7140031 225.016,87.098 C224.791999,87.0793332 224.610001,86.9953341 224.47,86.846 C224.329999,86.6966659 224.26,86.5100011 224.26,86.286 C224.26,86.0526655 224.341666,85.8566675 224.505,85.698 C224.668334,85.5393325 224.866666,85.46 225.1,85.46 Z M232.842,79.79 C233.635337,79.79 234.253664,80.0093311 234.697,80.448 C235.140336,80.8866689 235.362,81.5119959 235.362,82.324 L235.362,87 L234.27,87 L234.214,86.034 C234.017999,86.3793351 233.733335,86.6523323 233.36,86.853 C232.986665,87.0536677 232.557336,87.154 232.072,87.154 C231.446664,87.154 230.947335,86.9743351 230.574,86.615 C230.200665,86.2556649 230.014,85.7726697 230.014,85.166 C230.014,84.0553278 230.671993,83.3740013 231.988,83.122 L234.144,82.716 L234.144,82.366 C234.144,81.3953285 233.710004,80.91 232.842,80.91 C232.412665,80.91 232.065001,81.0243322 231.799,81.253 C231.532999,81.4816678 231.4,81.7966647 231.4,82.198 L230.21,82.198 C230.228667,81.5166633 230.480664,80.942669 230.966,80.476 C231.451336,80.0186644 232.076663,79.79 232.842,79.79 Z M234.144,84.032 L234.144,83.766 L232.212,84.186 C231.885332,84.2700004 231.640334,84.3843326 231.477,84.529 C231.313666,84.6736674 231.232,84.881332 231.232,85.152 C231.232,85.4320014 231.325332,85.6489992 231.512,85.803 C231.698668,85.9570008 231.964665,86.034 232.31,86.034 C232.926003,86.034 233.401998,85.800669 233.738,85.334 C234.008668,84.9606648 234.144,84.5266691 234.144,84.032 Z M240.486,79.79 C241.214004,79.79 241.778665,80.0279976 242.18,80.504 C242.581335,80.9800024 242.782,81.6239959 242.782,82.436 L242.782,87 L241.564,87 L241.564,82.632 C241.564,82.0999973 241.442668,81.6893348 241.2,81.4 C240.957332,81.1106652 240.621335,80.966 240.192,80.966 C239.706664,80.966 239.312335,81.168998 239.009,81.575 C238.705665,81.981002 238.554,82.5293299 238.554,83.22 L238.554,87 L237.35,87 L237.35,79.944 L238.428,79.944 L238.498,80.91 C238.890002,80.1633296 239.552662,79.79 240.486,79.79 Z M246.8,79.79 C247.472003,79.79 248.022665,79.9953313 248.452,80.406 C248.881335,80.8073353 249.105333,81.3439966 249.124,82.016 L247.892,82.016 C247.882667,81.278663 247.509337,80.91 246.772,80.91 C246.426665,80.91 246.160668,80.9963325 245.974,81.169 C245.787332,81.3416675 245.694,81.5726652 245.694,81.862 C245.694,82.1420014 245.784999,82.3519993 245.967,82.492 C246.149001,82.6320007 246.501331,82.7626661 247.024,82.884 C247.864004,83.080001 248.458998,83.3389984 248.809,83.661 C249.159002,83.9830016 249.334,84.4286638 249.334,84.998 C249.334,85.66067 249.105336,86.1856647 248.648,86.573 C248.190664,86.9603353 247.593337,87.154 246.856,87.154 C246.062663,87.154 245.439669,86.9486687 244.987,86.538 C244.534331,86.1273313 244.298667,85.5673369 244.28,84.858 L245.512,84.858 C245.521333,85.6420039 245.978662,86.034 246.884,86.034 C247.266669,86.034 247.565332,85.9476675 247.78,85.775 C247.994668,85.6023325 248.102,85.3713348 248.102,85.082 C248.102,84.7833318 247.999334,84.5523342 247.794,84.389 C247.588666,84.2256658 247.201336,84.0786673 246.632,83.948 C245.866663,83.7706658 245.313668,83.5280015 244.973,83.22 C244.632332,82.9119985 244.462,82.4826694 244.462,81.932 C244.462,81.3346637 244.667331,80.8306687 245.078,80.42 C245.498002,79.9999979 246.071996,79.79 246.8,79.79 Z M259.148,79.944 L260.436,79.944 L258.196,87 L256.978,87 L255.27,81.96 L253.548,87 L252.372,87 L250.132,79.944 L251.42,79.944 L252.89,84.872 L253.03,85.516 L253.184,84.872 L254.766,79.944 L255.802,79.944 L257.384,84.872 L257.538,85.516 L257.678,84.872 L259.148,79.944 Z M264.552,79.79 C265.532005,79.79 266.31133,80.1026635 266.89,80.728 C267.46867,81.3533365 267.758,82.2353276 267.758,83.374 L267.758,83.948 L262.396,83.948 C262.442667,84.5920032 262.664331,85.1006648 263.061,85.474 C263.457669,85.8473352 263.963997,86.034 264.58,86.034 C265.560005,86.034 266.194665,85.6513372 266.484,84.886 L267.688,84.886 C267.463999,85.6046703 267.083669,86.1623314 266.547,86.559 C266.010331,86.9556687 265.345337,87.154 264.552,87.154 C263.543995,87.154 262.727336,86.8180034 262.102,86.146 C261.46733,85.4646633 261.15,84.5780055 261.15,83.486 C261.15,82.4033279 261.462664,81.5213367 262.088,80.84 C262.72267,80.1399965 263.543995,79.79 264.552,79.79 Z M264.552,80.91 C263.963997,80.91 263.478669,81.0896649 263.096,81.449 C262.713331,81.8083351 262.484667,82.2819971 262.41,82.87 L266.54,82.87 C266.530667,82.2726637 266.344002,81.7966684 265.98,81.442 C265.615998,81.0873316 265.140003,80.91 264.552,80.91 Z M272.826,79.874 L272.826,81.078 C272.24733,81.078 271.771335,81.2506649 271.398,81.596 C270.987331,81.9693352 270.772667,82.524663 270.754,83.262 L270.754,87 L269.55,87 L269.55,79.944 L270.628,79.944 L270.712,81.176 C270.852001,80.7933314 271.106331,80.4806679 271.475,80.238 C271.843669,79.9953321 272.293997,79.874 272.826,79.874 Z M279.63,76.654 C280.003335,76.654 280.320665,76.7099994 280.582,76.822 L280.582,77.914 C280.320665,77.8019994 280.036002,77.746 279.728,77.746 C279.06533,77.746 278.734,78.1286628 278.734,78.894 L278.734,79.944 L280.484,79.944 L280.484,81.05 L278.734,81.05 L278.734,87 L277.516,87 L277.516,81.05 L276.242,81.05 L276.242,79.944 L277.516,79.944 L277.516,78.866 C277.516,78.1659965 277.700331,77.6223353 278.069,77.235 C278.437669,76.8476647 278.957997,76.654 279.63,76.654 Z M284.768,79.79 C285.813339,79.79 286.66733,80.1353299 287.33,80.826 C288.002003,81.5073367 288.338,82.3893279 288.338,83.472 C288.338,84.5546721 288.002003,85.4366633 287.33,86.118 C286.66733,86.8086701 285.813339,87.154 284.768,87.154 C283.713328,87.154 282.850003,86.8086701 282.178,86.118 C281.51533,85.4273299 281.184,84.5453387 281.184,83.472 C281.184,82.3986613 281.51533,81.5166701 282.178,80.826 C282.850003,80.1353299 283.713328,79.79 284.768,79.79 Z M284.782,80.91 C284.072663,80.91 283.503335,81.1526642 283.074,81.638 C282.644665,82.104669 282.43,82.7159962 282.43,83.472 C282.43,84.209337 282.644665,84.8206642 283.074,85.306 C283.503335,85.7913358 284.072663,86.034 284.782,86.034 C285.47267,86.034 286.027998,85.7913358 286.448,85.306 C286.877335,84.8206642 287.092,84.209337 287.092,83.472 C287.092,82.7159962 286.877335,82.104669 286.448,81.638 C286.027998,81.1526642 285.47267,80.91 284.782,80.91 Z M293.266,79.874 L293.266,81.078 C292.68733,81.078 292.211335,81.2506649 291.838,81.596 C291.427331,81.9693352 291.212667,82.524663 291.194,83.262 L291.194,87 L289.99,87 L289.99,79.944 L291.068,79.944 L291.152,81.176 C291.292001,80.7933314 291.546331,80.4806679 291.915,80.238 C292.283669,79.9953321 292.733997,79.874 293.266,79.874 Z M302.002,79.944 L303.304,79.944 L299.454,90.01 L298.18,90.01 L299.356,86.902 L296.71,79.944 L297.998,79.944 L299.86,85.012 L300,85.544 L300.14,85.012 L302.002,79.944 Z M307.616,79.79 C308.661339,79.79 309.51533,80.1353299 310.178,80.826 C310.850003,81.5073367 311.186,82.3893279 311.186,83.472 C311.186,84.5546721 310.850003,85.4366633 310.178,86.118 C309.51533,86.8086701 308.661339,87.154 307.616,87.154 C306.561328,87.154 305.698003,86.8086701 305.026,86.118 C304.36333,85.4273299 304.032,84.5453387 304.032,83.472 C304.032,82.3986613 304.36333,81.5166701 305.026,80.826 C305.698003,80.1353299 306.561328,79.79 307.616,79.79 Z M307.63,80.91 C306.920663,80.91 306.351335,81.1526642 305.922,81.638 C305.492665,82.104669 305.278,82.7159962 305.278,83.472 C305.278,84.209337 305.492665,84.8206642 305.922,85.306 C306.351335,85.7913358 306.920663,86.034 307.63,86.034 C308.32067,86.034 308.875998,85.7913358 309.296,85.306 C309.725335,84.8206642 309.94,84.209337 309.94,83.472 C309.94,82.7159962 309.725335,82.104669 309.296,81.638 C308.875998,81.1526642 308.32067,80.91 307.63,80.91 Z M316.814,79.944 L318.018,79.944 L318.018,87 L316.94,87 L316.87,86.034 C316.515332,86.7806704 315.866671,87.154 314.924,87.154 C314.195996,87.154 313.636002,86.9183357 313.244,86.447 C312.851998,85.9756643 312.656,85.3293374 312.656,84.508 L312.656,79.944 L313.86,79.944 L313.86,84.312 C313.86,84.8626694 313.976666,85.2803319 314.21,85.565 C314.443335,85.8496681 314.774665,85.992 315.204,85.992 C315.680002,85.992 316.067332,85.8006686 316.366,85.418 C316.664668,85.0353314 316.814,84.5173366 316.814,83.864 L316.814,79.944 Z M323.506,79.874 L323.506,81.078 C322.92733,81.078 322.451335,81.2506649 322.078,81.596 C321.667331,81.9693352 321.452667,82.524663 321.434,83.262 L321.434,87 L320.23,87 L320.23,79.944 L321.308,79.944 L321.392,81.176 C321.532001,80.7933314 321.786331,80.4806679 322.155,80.238 C322.523669,79.9953321 322.973997,79.874 323.506,79.874 Z M327.832,76.78 L329.036,76.78 L329.036,87 L327.832,87 L327.832,76.78 Z M334.216,79.79 C335.261339,79.79 336.11533,80.1353299 336.778,80.826 C337.450003,81.5073367 337.786,82.3893279 337.786,83.472 C337.786,84.5546721 337.450003,85.4366633 336.778,86.118 C336.11533,86.8086701 335.261339,87.154 334.216,87.154 C333.161328,87.154 332.298003,86.8086701 331.626,86.118 C330.96333,85.4273299 330.632,84.5453387 330.632,83.472 C330.632,82.3986613 330.96333,81.5166701 331.626,80.826 C332.298003,80.1353299 333.161328,79.79 334.216,79.79 Z M334.23,80.91 C333.520663,80.91 332.951335,81.1526642 332.522,81.638 C332.092665,82.104669 331.878,82.7159962 331.878,83.472 C331.878,84.209337 332.092665,84.8206642 332.522,85.306 C332.951335,85.7913358 333.520663,86.034 334.23,86.034 C334.92067,86.034 335.475998,85.7913358 335.896,85.306 C336.325335,84.8206642 336.54,84.209337 336.54,83.472 C336.54,82.7159962 336.325335,82.104669 335.896,81.638 C335.475998,81.1526642 334.92067,80.91 334.23,80.91 Z M343.806,79.944 L345.108,79.944 L342.406,87 L341.202,87 L338.514,79.944 L339.802,79.944 L341.664,85.012 L341.804,85.544 L341.944,85.012 L343.806,79.944 Z M349.21,79.79 C350.190005,79.79 350.96933,80.1026635 351.548,80.728 C352.12667,81.3533365 352.416,82.2353276 352.416,83.374 L352.416,83.948 L347.054,83.948 C347.100667,84.5920032 347.322331,85.1006648 347.719,85.474 C348.115669,85.8473352 348.621997,86.034 349.238,86.034 C350.218005,86.034 350.852665,85.6513372 351.142,84.886 L352.346,84.886 C352.121999,85.6046703 351.741669,86.1623314 351.205,86.559 C350.668331,86.9556687 350.003337,87.154 349.21,87.154 C348.201995,87.154 347.385336,86.8180034 346.76,86.146 C346.12533,85.4646633 345.808,84.5780055 345.808,83.486 C345.808,82.4033279 346.120664,81.5213367 346.746,80.84 C347.38067,80.1399965 348.201995,79.79 349.21,79.79 Z M349.21,80.91 C348.621997,80.91 348.136669,81.0896649 347.754,81.449 C347.371331,81.8083351 347.142667,82.2819971 347.068,82.87 L351.198,82.87 C351.188667,82.2726637 351.002002,81.7966684 350.638,81.442 C350.273998,81.0873316 349.798003,80.91 349.21,80.91 Z M359.206,76.78 L360.41,76.78 L360.41,87 L359.332,87 L359.262,85.964 C358.720664,86.7573373 357.913339,87.154 356.84,87.154 C355.859995,87.154 355.06667,86.8086701 354.46,86.118 C353.85333,85.4086631 353.55,84.5266719 353.55,83.472 C353.55,82.4266614 353.85333,81.5493369 354.46,80.84 C355.076003,80.1399965 355.873995,79.79 356.854,79.79 C357.927339,79.79 358.711331,80.1633296 359.206,80.91 L359.206,76.78 Z M357.036,80.938 C356.382663,80.938 355.846002,81.1759976 355.426,81.652 C355.005998,82.118669 354.796,82.7253296 354.796,83.472 C354.796,84.2280038 354.998998,84.8416643 355.405,85.313 C355.811002,85.7843357 356.349997,86.02 357.022,86.02 C357.619336,86.02 358.132665,85.7913356 358.562,85.334 C359.000669,84.867331 359.22,84.2700036 359.22,83.542 L359.22,83.472 C359.22,82.7159962 359.000669,82.104669 358.562,81.638 C358.123331,81.171331 357.61467,80.938 357.036,80.938 Z M368.432,79.79 C369.477339,79.79 370.33133,80.1353299 370.994,80.826 C371.666003,81.5073367 372.002,82.3893279 372.002,83.472 C372.002,84.5546721 371.666003,85.4366633 370.994,86.118 C370.33133,86.8086701 369.477339,87.154 368.432,87.154 C367.377328,87.154 366.514003,86.8086701 365.842,86.118 C365.17933,85.4273299 364.848,84.5453387 364.848,83.472 C364.848,82.3986613 365.17933,81.5166701 365.842,80.826 C366.514003,80.1353299 367.377328,79.79 368.432,79.79 Z M368.446,80.91 C367.736663,80.91 367.167335,81.1526642 366.738,81.638 C366.308665,82.104669 366.094,82.7159962 366.094,83.472 C366.094,84.209337 366.308665,84.8206642 366.738,85.306 C367.167335,85.7913358 367.736663,86.034 368.446,86.034 C369.13667,86.034 369.691998,85.7913358 370.112,85.306 C370.541335,84.8206642 370.756,84.209337 370.756,83.472 C370.756,82.7159962 370.541335,82.104669 370.112,81.638 C369.691998,81.1526642 369.13667,80.91 368.446,80.91 Z M376.706,79.79 C377.434004,79.79 377.998665,80.0279976 378.4,80.504 C378.801335,80.9800024 379.002,81.6239959 379.002,82.436 L379.002,87 L377.784,87 L377.784,82.632 C377.784,82.0999973 377.662668,81.6893348 377.42,81.4 C377.177332,81.1106652 376.841335,80.966 376.412,80.966 C375.926664,80.966 375.532335,81.168998 375.229,81.575 C374.925665,81.981002 374.774,82.5293299 374.774,83.22 L374.774,87 L373.57,87 L373.57,79.944 L374.648,79.944 L374.718,80.91 C375.110002,80.1633296 375.772662,79.79 376.706,79.79 Z M383.846,79.79 C384.826005,79.79 385.60533,80.1026635 386.184,80.728 C386.76267,81.3533365 387.052,82.2353276 387.052,83.374 L387.052,83.948 L381.69,83.948 C381.736667,84.5920032 381.958331,85.1006648 382.355,85.474 C382.751669,85.8473352 383.257997,86.034 383.874,86.034 C384.854005,86.034 385.488665,85.6513372 385.778,84.886 L386.982,84.886 C386.757999,85.6046703 386.377669,86.1623314 385.841,86.559 C385.304331,86.9556687 384.639337,87.154 383.846,87.154 C382.837995,87.154 382.021336,86.8180034 381.396,86.146 C380.76133,85.4646633 380.444,84.5780055 380.444,83.486 C380.444,82.4033279 380.756664,81.5213367 381.382,80.84 C382.01667,80.1399965 382.837995,79.79 383.846,79.79 Z M383.846,80.91 C383.257997,80.91 382.772669,81.0896649 382.39,81.449 C382.007331,81.8083351 381.778667,82.2819971 381.704,82.87 L385.834,82.87 C385.824667,82.2726637 385.638002,81.7966684 385.274,81.442 C384.909998,81.0873316 384.434003,80.91 383.846,80.91 Z M394.654,79.79 C395.699339,79.79 396.55333,80.1353299 397.216,80.826 C397.888003,81.5073367 398.224,82.3893279 398.224,83.472 C398.224,84.5546721 397.888003,85.4366633 397.216,86.118 C396.55333,86.8086701 395.699339,87.154 394.654,87.154 C393.599328,87.154 392.736003,86.8086701 392.064,86.118 C391.40133,85.4273299 391.07,84.5453387 391.07,83.472 C391.07,82.3986613 391.40133,81.5166701 392.064,80.826 C392.736003,80.1353299 393.599328,79.79 394.654,79.79 Z M394.668,80.91 C393.958663,80.91 393.389335,81.1526642 392.96,81.638 C392.530665,82.104669 392.316,82.7159962 392.316,83.472 C392.316,84.209337 392.530665,84.8206642 392.96,85.306 C393.389335,85.7913358 393.958663,86.034 394.668,86.034 C395.35867,86.034 395.913998,85.7913358 396.334,85.306 C396.763335,84.8206642 396.978,84.209337 396.978,83.472 C396.978,82.7159962 396.763335,82.104669 396.334,81.638 C395.913998,81.1526642 395.35867,80.91 394.668,80.91 Z M403.152,79.874 L403.152,81.078 C402.57333,81.078 402.097335,81.2506649 401.724,81.596 C401.313331,81.9693352 401.098667,82.524663 401.08,83.262 L401.08,87 L399.876,87 L399.876,79.944 L400.954,79.944 L401.038,81.176 C401.178001,80.7933314 401.432331,80.4806679 401.801,80.238 C402.169669,79.9953321 402.619997,79.874 403.152,79.874 Z M409.956,76.654 C410.329335,76.654 410.646665,76.7099994 410.908,76.822 L410.908,77.914 C410.646665,77.8019994 410.362002,77.746 410.054,77.746 C409.39133,77.746 409.06,78.1286628 409.06,78.894 L409.06,79.944 L410.81,79.944 L410.81,81.05 L409.06,81.05 L409.06,87 L407.842,87 L407.842,81.05 L406.568,81.05 L406.568,79.944 L407.842,79.944 L407.842,78.866 C407.842,78.1659965 408.026331,77.6223353 408.395,77.235 C408.763669,76.8476647 409.283997,76.654 409.956,76.654 Z M415.444,79.874 L415.444,81.078 C414.86533,81.078 414.389335,81.2506649 414.016,81.596 C413.605331,81.9693352 413.390667,82.524663 413.372,83.262 L413.372,87 L412.168,87 L412.168,79.944 L413.246,79.944 L413.33,81.176 C413.470001,80.7933314 413.724331,80.4806679 414.093,80.238 C414.461669,79.9953321 414.911997,79.874 415.444,79.874 Z M418.328,77.774 C418.328,77.9980011 418.246334,78.1893325 418.083,78.348 C417.919666,78.5066675 417.721335,78.586 417.488,78.586 C417.254666,78.586 417.058667,78.5066675 416.9,78.348 C416.741333,78.1893325 416.662,77.9980011 416.662,77.774 C416.662,77.5406655 416.741333,77.3446675 416.9,77.186 C417.058667,77.0273325 417.254666,76.948 417.488,76.948 C417.721335,76.948 417.919666,77.0273325 418.083,77.186 C418.246334,77.3446675 418.328,77.5406655 418.328,77.774 Z M416.886,79.944 L418.09,79.944 L418.09,87 L416.886,87 L416.886,79.944 Z M423.088,79.79 C424.068005,79.79 424.84733,80.1026635 425.426,80.728 C426.00467,81.3533365 426.294,82.2353276 426.294,83.374 L426.294,83.948 L420.932,83.948 C420.978667,84.5920032 421.200331,85.1006648 421.597,85.474 C421.993669,85.8473352 422.499997,86.034 423.116,86.034 C424.096005,86.034 424.730665,85.6513372 425.02,84.886 L426.224,84.886 C425.999999,85.6046703 425.619669,86.1623314 425.083,86.559 C424.546331,86.9556687 423.881337,87.154 423.088,87.154 C422.079995,87.154 421.263336,86.8180034 420.638,86.146 C420.00333,85.4646633 419.686,84.5780055 419.686,83.486 C419.686,82.4033279 419.998664,81.5213367 420.624,80.84 C421.25867,80.1399965 422.079995,79.79 423.088,79.79 Z M423.088,80.91 C422.499997,80.91 422.014669,81.0896649 421.632,81.449 C421.249331,81.8083351 421.020667,82.2819971 420.946,82.87 L425.076,82.87 C425.066667,82.2726637 424.880002,81.7966684 424.516,81.442 C424.151998,81.0873316 423.676003,80.91 423.088,80.91 Z M431.138,79.79 C431.866004,79.79 432.430665,80.0279976 432.832,80.504 C433.233335,80.9800024 433.434,81.6239959 433.434,82.436 L433.434,87 L432.216,87 L432.216,82.632 C432.216,82.0999973 432.094668,81.6893348 431.852,81.4 C431.609332,81.1106652 431.273335,80.966 430.844,80.966 C430.358664,80.966 429.964335,81.168998 429.661,81.575 C429.357665,81.981002 429.206,82.5293299 429.206,83.22 L429.206,87 L428.002,87 L428.002,79.944 L429.08,79.944 L429.15,80.91 C429.542002,80.1633296 430.204662,79.79 431.138,79.79 Z M440.532,76.78 L441.736,76.78 L441.736,87 L440.658,87 L440.588,85.964 C440.046664,86.7573373 439.239339,87.154 438.166,87.154 C437.185995,87.154 436.39267,86.8086701 435.786,86.118 C435.17933,85.4086631 434.876,84.5266719 434.876,83.472 C434.876,82.4266614 435.17933,81.5493369 435.786,80.84 C436.402003,80.1399965 437.199995,79.79 438.18,79.79 C439.253339,79.79 440.037331,80.1633296 440.532,80.91 L440.532,76.78 Z M438.362,80.938 C437.708663,80.938 437.172002,81.1759976 436.752,81.652 C436.331998,82.118669 436.122,82.7253296 436.122,83.472 C436.122,84.2280038 436.324998,84.8416643 436.731,85.313 C437.137002,85.7843357 437.675997,86.02 438.348,86.02 C438.945336,86.02 439.458665,85.7913356 439.888,85.334 C440.326669,84.867331 440.546,84.2700036 440.546,83.542 L440.546,83.472 C440.546,82.7159962 440.326669,82.104669 439.888,81.638 C439.449331,81.171331 438.94067,80.938 438.362,80.938 Z M445.096,86.286 C445.096,86.5286679 445.009668,86.7339992 444.837,86.902 C444.664332,87.0700008 444.456668,87.154 444.214,87.154 C443.961999,87.154 443.752001,87.0700008 443.584,86.902 C443.415999,86.7339992 443.332,86.5286679 443.332,86.286 C443.332,86.0339987 443.415999,85.8263341 443.584,85.663 C443.752001,85.4996658 443.961999,85.418 444.214,85.418 C444.466001,85.418 444.675999,85.4996658 444.844,85.663 C445.012001,85.8263341 445.096,86.0339987 445.096,86.286 Z" id="If-youre-a-caretake" fill="#3E4E62"/><g id="Stacked-Group" transform="translate(104.000000, 106.000000)"><g id="button/primary/text-center"><g id="color/button/primary" fill="#FC9267"><rect id="color-swatch-copy-5" width="60" height="40" rx="4"/></g><path d="M24.64,13.8 L27.2,13.8 L22.96,20.84 L22.96,25 L20.736,25 L20.736,20.84 L16.496,13.8 L19.056,13.8 L21.456,17.704 L21.84,18.456 L22.24,17.704 L24.64,13.8 Z M31.904,16.712 C33.0560058,16.712 33.9706633,17.0773297 34.648,17.808 C35.3253367,18.5386703 35.664,19.5813266 35.664,20.936 L35.664,21.576 L30.016,21.576 C30.0480002,22.1200027 30.2399982,22.5599983 30.592,22.896 C30.9440018,23.2320017 31.4026638,23.4 31.968,23.4 C32.8106709,23.4 33.3546654,23.0853365 33.6,22.456 L35.616,22.456 C35.082664,24.2693424 33.845343,25.176 31.904,25.176 C30.6986606,25.176 29.7226704,24.7920038 28.976,24.024 C28.2399963,23.2453294 27.872,22.2213397 27.872,20.952 C27.872,19.7039938 28.2453296,18.6906706 28.992,17.912 C29.7493371,17.111996 30.7199941,16.712 31.904,16.712 Z M30.032,20.136 L33.568,20.136 C33.5573333,19.6239974 33.3973349,19.2133349 33.088,18.904 C32.7786651,18.5946651 32.3680026,18.44 31.856,18.44 C31.3546642,18.44 30.9386683,18.5946651 30.608,18.904 C30.2773317,19.2133349 30.0853336,19.6239974 30.032,20.136 Z M39.968,16.712 C40.8213376,16.712 41.5226639,16.9466643 42.072,17.416 C42.6213361,17.8853357 42.9119998,18.5039962 42.944,19.272 L40.88,19.272 C40.8693333,18.6533302 40.560003,18.344 39.952,18.344 C39.6639986,18.344 39.4426674,18.4159993 39.288,18.56 C39.1333326,18.7040007 39.056,18.8986654 39.056,19.144 C39.056,19.4000013 39.1573323,19.594666 39.36,19.728 C39.5626677,19.861334 39.9359973,19.9759995 40.48,20.072 C41.4186714,20.2320008 42.0933313,20.5093314 42.504,20.904 C42.9146687,21.2986686 43.12,21.8426632 43.12,22.536 C43.12,23.3786709 42.8320029,24.029331 42.256,24.488 C41.6799971,24.946669 40.9226714,25.176 39.984,25.176 C39.0133285,25.176 38.2480028,24.9413357 37.688,24.472 C37.1279972,24.0026643 36.8373334,23.3573374 36.816,22.536 L38.864,22.536 C38.8853334,23.1973366 39.2746629,23.528 40.032,23.528 C40.7040034,23.528 41.04,23.2720026 41.04,22.76 C41.04,22.493332 40.936001,22.2853341 40.728,22.136 C40.519999,21.9866659 40.1333362,21.8586672 39.568,21.752 C38.6826622,21.6026659 38.0293354,21.3306686 37.608,20.936 C37.1866646,20.5413314 36.976,20.0133366 36.976,19.352 C36.976,18.5946629 37.2373307,17.9706691 37.76,17.48 C38.293336,16.9679974 39.0293286,16.712 39.968,16.712 Z" id="Yes" fill="#FAFBFC"/></g><g id="button/primary/text-center" transform="translate(68.000000, 0.000000)"><g id="color/button/primary" fill="#FC9267"><rect id="color-swatch-copy-5" width="60" height="40" rx="4"/></g><path d="M27.736,13.8 L29.944,13.8 L29.944,25 L27.736,25 L23.128,18.232 L22.696,17.496 L22.696,25 L20.504,25 L20.504,13.8 L22.68,13.8 L27.272,20.584 L27.736,21.352 L27.736,13.8 Z M35.832,16.712 C37.0586728,16.712 38.0773293,17.1066627 38.888,17.896 C39.6986707,18.6746706 40.104,19.6879938 40.104,20.936 C40.104,22.194673 39.6986707,23.2133294 38.888,23.992 C38.0773293,24.7813373 37.0586728,25.176 35.832,25.176 C34.6159939,25.176 33.6026707,24.7813373 32.792,23.992 C31.991996,23.2133294 31.592,22.194673 31.592,20.936 C31.592,19.6986605 31.991996,18.6853373 32.792,17.896 C33.6026707,17.1066627 34.6159939,16.712 35.832,16.712 Z M35.848,18.6 C35.239997,18.6 34.7333354,18.8239978 34.328,19.272 C33.9333314,19.6986688 33.736,20.2533299 33.736,20.936 C33.736,21.6186701 33.9333314,22.1786645 34.328,22.616 C34.7333354,23.0533355 35.239997,23.272 35.848,23.272 C36.456003,23.272 36.9573314,23.0506689 37.352,22.608 C37.7466686,22.1653311 37.944,21.6080034 37.944,20.936 C37.944,20.2533299 37.7520019,19.6933355 37.368,19.256 C36.9839981,18.8186645 36.4773365,18.6 35.848,18.6 Z" id="Yes" fill="#FAFBFC"/></g></g><path d="M114.16,51 L116.92,51 L116.92,65 L114.16,65 L114.16,59.04 L108.16,59.04 L108.16,65 L105.42,65 L105.42,51 L108.16,51 L108.16,56.46 L114.16,56.46 L114.16,51 Z M123.48,54.64 C124.73334,54.64 125.716663,54.9566635 126.43,55.59 C127.143337,56.2233365 127.5,57.139994 127.5,58.34 L127.5,65 L125.28,65 L125.12,63.76 C124.479997,64.7333382 123.51334,65.22 122.22,65.22 C121.299995,65.22 120.556669,64.953336 119.99,64.42 C119.423331,63.886664 119.14,63.1800044 119.14,62.3 C119.14,61.4066622 119.406664,60.7200024 119.94,60.24 C120.473336,59.7599976 121.253328,59.4333342 122.28,59.26 L124.9,58.78 L124.9,58.4 C124.9,57.3733282 124.426671,56.86 123.48,56.86 C123.039998,56.86 122.676668,56.9833321 122.39,57.23 C122.103332,57.4766679 121.96,57.799998 121.96,58.2 L119.44,58.2 C119.506667,57.133328 119.906663,56.2733366 120.64,55.62 C121.373337,54.9666634 122.319994,54.64 123.48,54.64 Z M124.9,60.82 L124.9,60.52 L122.88,60.94 C122.119996,61.1133342 121.74,61.4933304 121.74,62.08 C121.74,62.3866682 121.843332,62.6299991 122.05,62.81 C122.256668,62.9900009 122.546665,63.08 122.92,63.08 C123.62667,63.08 124.166665,62.7733364 124.54,62.16 C124.780001,61.7866648 124.9,61.3400026 124.9,60.82 Z M136,54.86 L138.82,54.86 L135.14,65 L132.5,65 L128.84,54.86 L131.64,54.86 L133.62,61.08 L133.82,61.96 L134.02,61.08 L136,54.86 Z M144.68,54.64 C146.120007,54.64 147.263329,55.0966621 148.11,56.01 C148.956671,56.9233379 149.38,58.2266582 149.38,59.92 L149.38,60.72 L142.32,60.72 C142.36,61.4000034 142.599998,61.9499979 143.04,62.37 C143.480002,62.7900021 144.05333,63 144.76,63 C145.813339,63 146.493332,62.6066706 146.8,61.82 L149.32,61.82 C148.65333,64.086678 147.106679,65.22 144.68,65.22 C143.173326,65.22 141.953338,64.7400048 141.02,63.78 C140.099995,62.8066618 139.64,61.5266746 139.64,59.94 C139.64,58.3799922 140.106662,57.1133382 141.04,56.14 C141.986671,55.139995 143.199993,54.64 144.68,54.64 Z M142.34,58.92 L146.76,58.92 C146.746667,58.2799968 146.546669,57.7666686 146.16,57.38 C145.773331,56.9933314 145.260003,56.8 144.62,56.8 C143.99333,56.8 143.473335,56.9933314 143.06,57.38 C142.646665,57.7666686 142.406667,58.2799968 142.34,58.92 Z M161.44,54.86 L164.26,54.86 L159.04,69.3 L156.34,69.3 L157.88,64.88 L154.28,54.86 L157.08,54.86 L159.06,61.08 L159.26,61.96 L159.46,61.08 L161.44,54.86 Z M170.48,54.64 C172.013341,54.64 173.286662,55.1333284 174.3,56.12 C175.313338,57.0933382 175.82,58.3599922 175.82,59.92 C175.82,61.4933412 175.313338,62.7666618 174.3,63.74 C173.286662,64.7266716 172.013341,65.22 170.48,65.22 C168.959992,65.22 167.693338,64.7266716 166.68,63.74 C165.679995,62.7666618 165.18,61.4933412 165.18,59.92 C165.18,58.3733256 165.679995,57.1066716 166.68,56.12 C167.693338,55.1333284 168.959992,54.64 170.48,54.64 Z M170.5,57 C169.739996,57 169.106669,57.2799972 168.6,57.84 C168.106664,58.373336 167.86,59.0666624 167.86,59.92 C167.86,60.7733376 168.106664,61.4733306 168.6,62.02 C169.106669,62.5666694 169.739996,62.84 170.5,62.84 C171.260004,62.84 171.886664,62.5633361 172.38,62.01 C172.873336,61.4566639 173.12,60.7600042 173.12,59.92 C173.12,59.0666624 172.880002,58.3666694 172.4,57.82 C171.919998,57.2733306 171.286671,57 170.5,57 Z M183.5,54.86 L186.08,54.86 L186.08,65 L183.86,65 L183.66,63.68 C183.113331,64.7066718 182.220006,65.22 180.98,65.22 C179.926661,65.22 179.120003,64.88667 178.56,64.22 C177.999997,63.55333 177.72,62.6266726 177.72,61.44 L177.72,54.86 L180.32,54.86 L180.32,60.86 C180.32,62.0866728 180.799995,62.7 181.76,62.7 C182.280003,62.7 182.699998,62.4933354 183.02,62.08 C183.340002,61.6666646 183.5,61.0733372 183.5,60.3 L183.5,54.86 Z M197.14,54.64 C198.406673,54.64 199.456662,54.9699967 200.29,55.63 C201.123337,56.2900033 201.633332,57.2266606 201.82,58.44 L199.3,58.44 C199.153333,57.9866644 198.893335,57.6333346 198.52,57.38 C198.146665,57.1266654 197.706669,57 197.2,57 C196.479996,57 195.893336,57.2799972 195.44,57.84 C194.973331,58.3866694 194.74,59.0866624 194.74,59.94 C194.74,60.7800042 194.976664,61.4733306 195.45,62.02 C195.923336,62.5666694 196.526663,62.84 197.26,62.84 C197.766669,62.84 198.206665,62.706668 198.58,62.44 C198.953335,62.173332 199.199999,61.8333354 199.32,61.42 L201.86,61.42 C201.619999,62.6333394 201.080004,63.5699967 200.24,64.23 C199.399996,64.8900033 198.366673,65.22 197.14,65.22 C195.633326,65.22 194.413338,64.7333382 193.48,63.76 C192.533329,62.7733284 192.06,61.5000078 192.06,59.94 C192.06,58.4199924 192.533329,57.1533384 193.48,56.14 C194.440005,55.139995 195.659993,54.64 197.14,54.64 Z M208.5,54.64 C210.033341,54.64 211.306662,55.1333284 212.32,56.12 C213.333338,57.0933382 213.84,58.3599922 213.84,59.92 C213.84,61.4933412 213.333338,62.7666618 212.32,63.74 C211.306662,64.7266716 210.033341,65.22 208.5,65.22 C206.979992,65.22 205.713338,64.7266716 204.7,63.74 C203.699995,62.7666618 203.2,61.4933412 203.2,59.92 C203.2,58.3733256 203.699995,57.1066716 204.7,56.12 C205.713338,55.1333284 206.979992,54.64 208.5,54.64 Z M208.52,57 C207.759996,57 207.126669,57.2799972 206.62,57.84 C206.126664,58.373336 205.88,59.0666624 205.88,59.92 C205.88,60.7733376 206.126664,61.4733306 206.62,62.02 C207.126669,62.5666694 207.759996,62.84 208.52,62.84 C209.280004,62.84 209.906664,62.5633361 210.4,62.01 C210.893336,61.4566639 211.14,60.7600042 211.14,59.92 C211.14,59.0666624 210.900002,58.3666694 210.42,57.82 C209.939998,57.2733306 209.306671,57 208.52,57 Z M221.04,54.64 C222.093339,54.64 222.90333,54.97333 223.47,55.64 C224.036669,56.30667 224.32,57.2333274 224.32,58.42 L224.32,65 L221.7,65 L221.7,58.98 C221.7,57.7666606 221.220005,57.16 220.26,57.16 C219.713331,57.16 219.276668,57.3766645 218.95,57.81 C218.623332,58.2433355 218.46,58.8533294 218.46,59.64 L218.46,65 L215.88,65 L215.88,54.86 L218.1,54.86 L218.3,56.18 C218.846669,55.1533282 219.759994,54.64 221.04,54.64 Z M230.14,54.64 C231.206672,54.64 232.08333,54.9333304 232.77,55.52 C233.45667,56.1066696 233.82,56.8799952 233.86,57.84 L231.28,57.84 C231.266667,57.0666628 230.880004,56.68 230.12,56.68 C229.759998,56.68 229.483334,56.7699991 229.29,56.95 C229.096666,57.1300009 229,57.3733318 229,57.68 C229,58.0000016 229.126665,58.2433325 229.38,58.41 C229.633335,58.5766675 230.099997,58.7199994 230.78,58.84 C231.953339,59.040001 232.796664,59.3866642 233.31,59.88 C233.823336,60.3733358 234.08,61.053329 234.08,61.92 C234.08,62.9733386 233.720004,63.7866638 233,64.36 C232.279996,64.9333362 231.333339,65.22 230.16,65.22 C228.946661,65.22 227.990004,64.9266696 227.29,64.34 C226.589996,63.7533304 226.226667,62.9466718 226.2,61.92 L228.76,61.92 C228.786667,62.7466708 229.273329,63.16 230.22,63.16 C231.060004,63.16 231.48,62.8400032 231.48,62.2 C231.48,61.866665 231.350001,61.6066676 231.09,61.42 C230.829999,61.2333324 230.34667,61.073334 229.64,60.94 C228.533328,60.7533324 227.716669,60.4133358 227.19,59.92 C226.663331,59.4266642 226.4,58.7666708 226.4,57.94 C226.4,56.9933286 226.726663,56.2133364 227.38,55.6 C228.04667,54.9599968 228.966661,54.64 230.14,54.64 Z M236.14,54.86 L238.74,54.86 L238.74,65 L236.14,65 L236.14,54.86 Z M237.44,50.34 C237.866669,50.34 238.236665,50.4899985 238.55,50.79 C238.863335,51.0900015 239.02,51.4533312 239.02,51.88 C239.02,52.3200022 238.866668,52.6866652 238.56,52.98 C238.253332,53.2733348 237.880002,53.42 237.44,53.42 C236.999998,53.42 236.626668,53.2733348 236.32,52.98 C236.013332,52.6866652 235.86,52.3200022 235.86,51.88 C235.86,51.4533312 236.013332,51.0900015 236.32,50.79 C236.626668,50.4899985 236.999998,50.34 237.44,50.34 Z M248.56,50.4 L251.16,50.4 L251.16,65 L248.92,65 L248.72,63.64 C247.999996,64.6933386 246.926674,65.22 245.5,65.22 C244.153327,65.22 243.033338,64.7133384 242.14,63.7 C241.246662,62.6866616 240.8,61.4266742 240.8,59.92 C240.8,58.4266592 241.246662,57.1733384 242.14,56.16 C243.033338,55.1466616 244.159993,54.64 245.52,54.64 C246.880007,54.64 247.89333,55.0799956 248.56,55.96 L248.56,50.4 Z M246.04,57.08 C245.306663,57.08 244.696669,57.346664 244.21,57.88 C243.723331,58.413336 243.48,59.0933292 243.48,59.92 C243.48,60.7600042 243.723331,61.446664 244.21,61.98 C244.696669,62.513336 245.306663,62.78 246.04,62.78 C246.74667,62.78 247.346664,62.5333358 247.84,62.04 C248.346669,61.5333308 248.6,60.846671 248.6,59.98 L248.6,59.86 C248.586667,59.0199958 248.326669,58.3466692 247.82,57.84 C247.313331,57.3333308 246.720003,57.08 246.04,57.08 Z M258.22,54.64 C259.660007,54.64 260.803329,55.0966621 261.65,56.01 C262.496671,56.9233379 262.92,58.2266582 262.92,59.92 L262.92,60.72 L255.86,60.72 C255.9,61.4000034 256.139998,61.9499979 256.58,62.37 C257.020002,62.7900021 257.59333,63 258.3,63 C259.353339,63 260.033332,62.6066706 260.34,61.82 L262.86,61.82 C262.19333,64.086678 260.646679,65.22 258.22,65.22 C256.713326,65.22 255.493338,64.7400048 254.56,63.78 C253.639995,62.8066618 253.18,61.5266746 253.18,59.94 C253.18,58.3799922 253.646662,57.1133382 254.58,56.14 C255.526671,55.139995 256.739993,54.64 258.22,54.64 Z M255.88,58.92 L260.3,58.92 C260.286667,58.2799968 260.086669,57.7666686 259.7,57.38 C259.313331,56.9933314 258.800003,56.8 258.16,56.8 C257.53333,56.8 257.013335,56.9933314 256.6,57.38 C256.186665,57.7666686 255.946667,58.2799968 255.88,58.92 Z M270.56,54.76 L270.56,57.36 C269.733329,57.36 269.060003,57.559998 268.54,57.96 C268.033331,58.360002 267.76,58.9866624 267.72,59.84 L267.72,65 L265.12,65 L265.12,54.86 L267.36,54.86 L267.6,56.48 C268.026669,55.3333276 269.013326,54.76 270.56,54.76 Z M276.78,54.64 C278.220007,54.64 279.363329,55.0966621 280.21,56.01 C281.056671,56.9233379 281.48,58.2266582 281.48,59.92 L281.48,60.72 L274.42,60.72 C274.46,61.4000034 274.699998,61.9499979 275.14,62.37 C275.580002,62.7900021 276.15333,63 276.86,63 C277.913339,63 278.593332,62.6066706 278.9,61.82 L281.42,61.82 C280.75333,64.086678 279.206679,65.22 276.78,65.22 C275.273326,65.22 274.053338,64.7400048 273.12,63.78 C272.199995,62.8066618 271.74,61.5266746 271.74,59.94 C271.74,58.3799922 272.206662,57.1133382 273.14,56.14 C274.086671,55.139995 275.299993,54.64 276.78,54.64 Z M274.44,58.92 L278.86,58.92 C278.846667,58.2799968 278.646669,57.7666686 278.26,57.38 C277.873331,56.9933314 277.360003,56.8 276.72,56.8 C276.09333,56.8 275.573335,56.9933314 275.16,57.38 C274.746665,57.7666686 274.506667,58.2799968 274.44,58.92 Z M290.68,50.4 L293.28,50.4 L293.28,65 L291.04,65 L290.84,63.64 C290.119996,64.6933386 289.046674,65.22 287.62,65.22 C286.273327,65.22 285.153338,64.7133384 284.26,63.7 C283.366662,62.6866616 282.92,61.4266742 282.92,59.92 C282.92,58.4266592 283.366662,57.1733384 284.26,56.16 C285.153338,55.1466616 286.279993,54.64 287.64,54.64 C289.000007,54.64 290.01333,55.0799956 290.68,55.96 L290.68,50.4 Z M288.16,57.08 C287.426663,57.08 286.816669,57.346664 286.33,57.88 C285.843331,58.413336 285.6,59.0933292 285.6,59.92 C285.6,60.7600042 285.843331,61.446664 286.33,61.98 C286.816669,62.513336 287.426663,62.78 288.16,62.78 C288.86667,62.78 289.466664,62.5333358 289.96,62.04 C290.466669,61.5333308 290.72,60.846671 290.72,59.98 L290.72,59.86 C290.706667,59.0199958 290.446669,58.3466692 289.94,57.84 C289.433331,57.3333308 288.840003,57.08 288.16,57.08 Z M303.72,54.64 C304.97334,54.64 305.956663,54.9566635 306.67,55.59 C307.383337,56.2233365 307.74,57.139994 307.74,58.34 L307.74,65 L305.52,65 L305.36,63.76 C304.719997,64.7333382 303.75334,65.22 302.46,65.22 C301.539995,65.22 300.796669,64.953336 300.23,64.42 C299.66333,63.886664 299.38,63.1800044 299.38,62.3 C299.38,61.4066622 299.646664,60.7200024 300.18,60.24 C300.713336,59.7599976 301.493328,59.4333342 302.52,59.26 L305.14,58.78 L305.14,58.4 C305.14,57.3733282 304.666671,56.86 303.72,56.86 C303.279998,56.86 302.916668,56.9833321 302.63,57.23 C302.343332,57.4766679 302.2,57.799998 302.2,58.2 L299.68,58.2 C299.746667,57.133328 300.146663,56.2733366 300.88,55.62 C301.613337,54.9666634 302.559994,54.64 303.72,54.64 Z M305.14,60.82 L305.14,60.52 L303.12,60.94 C302.359996,61.1133342 301.98,61.4933304 301.98,62.08 C301.98,62.3866682 302.083332,62.6299991 302.29,62.81 C302.496668,62.9900009 302.786665,63.08 303.16,63.08 C303.86667,63.08 304.406665,62.7733364 304.78,62.16 C305.020001,61.7866648 305.14,61.3400026 305.14,60.82 Z M314.24,50.4 L316.84,50.4 L316.84,65 L314.24,65 L314.24,50.4 Z M325.26,54.86 L327.84,54.86 L327.84,65 L325.62,65 L325.42,63.68 C324.873331,64.7066718 323.980006,65.22 322.74,65.22 C321.686661,65.22 320.880003,64.88667 320.32,64.22 C319.759997,63.55333 319.48,62.6266726 319.48,61.44 L319.48,54.86 L322.08,54.86 L322.08,60.86 C322.08,62.0866728 322.559995,62.7 323.52,62.7 C324.040003,62.7 324.459998,62.4933354 324.78,62.08 C325.100002,61.6666646 325.26,61.0733372 325.26,60.3 L325.26,54.86 Z M335.76,54.64 C336.813339,54.64 337.623331,54.97333 338.19,55.64 C338.756669,56.30667 339.04,57.2333274 339.04,58.42 L339.04,65 L336.42,65 L336.42,58.98 C336.42,57.7666606 335.940005,57.16 334.98,57.16 C334.433331,57.16 333.996668,57.3766645 333.67,57.81 C333.343332,58.2433355 333.18,58.8533294 333.18,59.64 L333.18,65 L330.6,65 L330.6,54.86 L332.82,54.86 L333.02,56.18 C333.566669,55.1533282 334.479994,54.64 335.76,54.64 Z M346.86,54.86 L350.7,54.86 L350.7,57.06 L349.2,57.06 C349.333334,57.4466686 349.4,57.839998 349.4,58.24 C349.4,59.2666718 349.02667,60.11333 348.28,60.78 C347.546663,61.4333366 346.586673,61.76 345.4,61.76 C344.746663,61.76 344.186669,61.6733342 343.72,61.5 C343.559999,61.700001 343.48,61.9466652 343.48,62.24 C343.48,62.8000028 343.819997,63.08 344.5,63.08 L346.88,63.08 C347.933339,63.08 348.749997,63.3299975 349.33,63.83 C349.910003,64.3300025 350.2,65.0533286 350.2,66 C350.2,67.1066722 349.800004,67.9699969 349,68.59 C348.199996,69.2100031 347.106674,69.52 345.72,69.52 C344.213326,69.52 343.070004,69.2500027 342.29,68.71 C341.509996,68.1699973 341.12,67.400005 341.12,66.4 C341.12,65.6533296 341.459997,65.0600022 342.14,64.62 C341.353329,64.0733306 340.96,63.3466712 340.96,62.44 C340.96,61.5866624 341.306663,60.8733362 342,60.3 C341.533331,59.6866636 341.3,59.0000038 341.3,58.24 C341.3,57.173328 341.686663,56.3133366 342.46,55.66 C343.233337,54.9799966 344.213327,54.64 345.4,54.64 C345.893336,54.64 346.379998,54.7133326 346.86,54.86 Z M346.22,65.04 L344.7,65.04 C344.379998,65.0800002 344.126668,65.2033323 343.94,65.41 C343.753332,65.6166677 343.66,65.8799984 343.66,66.2 C343.66,66.6400022 343.843331,66.9799988 344.21,67.22 C344.576668,67.4600012 345.086663,67.58 345.74,67.58 C347.020006,67.58 347.66,67.1066714 347.66,66.16 C347.66,65.4133296 347.180005,65.04 346.22,65.04 Z M343.86,58.24 C343.86,58.706669 343.999999,59.0899985 344.28,59.39 C344.560001,59.6900015 344.926664,59.84 345.38,59.84 C345.833336,59.84 346.196665,59.6900015 346.47,59.39 C346.743335,59.0899985 346.88,58.706669 346.88,58.24 C346.88,57.7466642 346.743335,57.3500015 346.47,57.05 C346.196665,56.7499985 345.833336,56.6 345.38,56.6 C344.926664,56.6 344.560001,56.7499985 344.28,57.05 C343.999999,57.3500015 343.86,57.7466642 343.86,58.24 Z M356.66,52.4 L359.28,52.4 L359.26,54.86 L361.58,54.86 L361.58,57.22 L359.24,57.22 L359.2,61.32 C359.2,61.853336 359.296666,62.2299989 359.49,62.45 C359.683334,62.6700011 360.026664,62.78 360.52,62.78 C360.906669,62.78 361.259998,62.7333338 361.58,62.64 L361.58,64.92 C361.179998,65.0666674 360.633337,65.14 359.94,65.14 C358.793328,65.14 357.946669,64.8833359 357.4,64.37 C356.853331,63.8566641 356.586667,63.0466722 356.6,61.94 L356.64,57.22 L354.98,57.22 L354.98,54.86 L356.64,54.86 L356.66,52.4 Z M369.12,54.76 L369.12,57.36 C368.293329,57.36 367.620003,57.559998 367.1,57.96 C366.593331,58.360002 366.32,58.9866624 366.28,59.84 L366.28,65 L363.68,65 L363.68,54.86 L365.92,54.86 L366.16,56.48 C366.586669,55.3333276 367.573326,54.76 369.12,54.76 Z M374.78,54.64 C376.03334,54.64 377.016663,54.9566635 377.73,55.59 C378.443337,56.2233365 378.8,57.139994 378.8,58.34 L378.8,65 L376.58,65 L376.42,63.76 C375.779997,64.7333382 374.81334,65.22 373.52,65.22 C372.599995,65.22 371.856669,64.953336 371.29,64.42 C370.72333,63.886664 370.44,63.1800044 370.44,62.3 C370.44,61.4066622 370.706664,60.7200024 371.24,60.24 C371.773336,59.7599976 372.553328,59.4333342 373.58,59.26 L376.2,58.78 L376.2,58.4 C376.2,57.3733282 375.726671,56.86 374.78,56.86 C374.339998,56.86 373.976668,56.9833321 373.69,57.23 C373.403332,57.4766679 373.26,57.799998 373.26,58.2 L370.74,58.2 C370.806667,57.133328 371.206663,56.2733366 371.94,55.62 C372.673337,54.9666634 373.619994,54.64 374.78,54.64 Z M376.2,60.82 L376.2,60.52 L374.18,60.94 C373.419996,61.1133342 373.04,61.4933304 373.04,62.08 C373.04,62.3866682 373.143332,62.6299991 373.35,62.81 C373.556668,62.9900009 373.846665,63.08 374.22,63.08 C374.92667,63.08 375.466665,62.7733364 375.84,62.16 C376.080001,61.7866648 376.2,61.3400026 376.2,60.82 Z M386.5,54.64 C387.553339,54.64 388.36333,54.97333 388.93,55.64 C389.496669,56.30667 389.78,57.2333274 389.78,58.42 L389.78,65 L387.16,65 L387.16,58.98 C387.16,57.7666606 386.680005,57.16 385.72,57.16 C385.173331,57.16 384.736668,57.3766645 384.41,57.81 C384.083332,58.2433355 383.92,58.8533294 383.92,59.64 L383.92,65 L381.34,65 L381.34,54.86 L383.56,54.86 L383.76,56.18 C384.306669,55.1533282 385.219994,54.64 386.5,54.64 Z M395.6,54.64 C396.666672,54.64 397.54333,54.9333304 398.23,55.52 C398.91667,56.1066696 399.28,56.8799952 399.32,57.84 L396.74,57.84 C396.726667,57.0666628 396.340004,56.68 395.58,56.68 C395.219998,56.68 394.943334,56.7699991 394.75,56.95 C394.556666,57.1300009 394.46,57.3733318 394.46,57.68 C394.46,58.0000016 394.586665,58.2433325 394.84,58.41 C395.093335,58.5766675 395.559997,58.7199994 396.24,58.84 C397.413339,59.040001 398.256664,59.3866642 398.77,59.88 C399.283336,60.3733358 399.54,61.053329 399.54,61.92 C399.54,62.9733386 399.180004,63.7866638 398.46,64.36 C397.739996,64.9333362 396.793339,65.22 395.62,65.22 C394.406661,65.22 393.450003,64.9266696 392.75,64.34 C392.049996,63.7533304 391.686667,62.9466718 391.66,61.92 L394.22,61.92 C394.246667,62.7466708 394.733329,63.16 395.68,63.16 C396.520004,63.16 396.94,62.8400032 396.94,62.2 C396.94,61.866665 396.810001,61.6066676 396.55,61.42 C396.289999,61.2333324 395.80667,61.073334 395.1,60.94 C393.993328,60.7533324 393.176669,60.4133358 392.65,59.92 C392.123331,59.4266642 391.86,58.7666708 391.86,57.94 C391.86,56.9933286 392.186663,56.2133364 392.84,55.6 C393.50667,54.9599968 394.426661,54.64 395.6,54.64 Z M407.28,54.64 C408.640007,54.64 409.766662,55.1466616 410.66,56.16 C411.553338,57.1733384 412,58.4266592 412,59.92 C412,61.4133408 411.546671,62.6733282 410.64,63.7 C409.746662,64.7133384 408.626673,65.22 407.28,65.22 C405.86666,65.22 404.853336,64.7733378 404.24,63.88 L404.24,69.3 L401.64,69.3 L401.64,54.86 L403.88,54.86 L404.06,56.22 C404.780004,55.1666614 405.853326,54.64 407.28,54.64 Z M406.74,57.08 C406.046663,57.08 405.446669,57.3333308 404.94,57.84 C404.433331,58.3466692 404.18,59.0266624 404.18,59.88 L404.18,60 C404.206667,60.8533376 404.466664,61.5266642 404.96,62.02 C405.466669,62.5266692 406.059997,62.78 406.74,62.78 C407.473337,62.78 408.083331,62.513336 408.57,61.98 C409.056669,61.446664 409.3,60.7600042 409.3,59.92 C409.3,59.0799958 409.056669,58.3966693 408.57,57.87 C408.083331,57.3433307 407.473337,57.08 406.74,57.08 Z M414.06,50.4 L416.66,50.4 L416.66,65 L414.06,65 L414.06,50.4 Z M423.2,54.64 C424.45334,54.64 425.436663,54.9566635 426.15,55.59 C426.863337,56.2233365 427.22,57.139994 427.22,58.34 L427.22,65 L425,65 L424.84,63.76 C424.199997,64.7333382 423.23334,65.22 421.94,65.22 C421.019995,65.22 420.276669,64.953336 419.71,64.42 C419.14333,63.886664 418.86,63.1800044 418.86,62.3 C418.86,61.4066622 419.126664,60.7200024 419.66,60.24 C420.193336,59.7599976 420.973328,59.4333342 422,59.26 L424.62,58.78 L424.62,58.4 C424.62,57.3733282 424.146671,56.86 423.2,56.86 C422.759998,56.86 422.396668,56.9833321 422.11,57.23 C421.823332,57.4766679 421.68,57.799998 421.68,58.2 L419.16,58.2 C419.226667,57.133328 419.626663,56.2733366 420.36,55.62 C421.093337,54.9666634 422.039994,54.64 423.2,54.64 Z M424.62,60.82 L424.62,60.52 L422.6,60.94 C421.839996,61.1133342 421.46,61.4933304 421.46,62.08 C421.46,62.3866682 421.563332,62.6299991 421.77,62.81 C421.976668,62.9900009 422.266665,63.08 422.64,63.08 C423.34667,63.08 423.886665,62.7733364 424.26,62.16 C424.500001,61.7866648 424.62,61.3400026 424.62,60.82 Z M434.92,54.64 C435.973339,54.64 436.78333,54.97333 437.35,55.64 C437.916669,56.30667 438.2,57.2333274 438.2,58.42 L438.2,65 L435.58,65 L435.58,58.98 C435.58,57.7666606 435.100005,57.16 434.14,57.16 C433.593331,57.16 433.156668,57.3766645 432.83,57.81 C432.503332,58.2433355 432.34,58.8533294 432.34,59.64 L432.34,65 L429.76,65 L429.76,54.86 L431.98,54.86 L432.18,56.18 C432.726669,55.1533282 433.639994,54.64 434.92,54.64 Z M441.4,52.4 L444.02,52.4 L444,54.86 L446.32,54.86 L446.32,57.22 L443.98,57.22 L443.94,61.32 C443.94,61.853336 444.036666,62.2299989 444.23,62.45 C444.423334,62.6700011 444.766664,62.78 445.26,62.78 C445.646669,62.78 445.999998,62.7333338 446.32,62.64 L446.32,64.92 C445.919998,65.0666674 445.373337,65.14 444.68,65.14 C443.533328,65.14 442.686669,64.8833359 442.14,64.37 C441.593331,63.8566641 441.326667,63.0466722 441.34,61.94 L441.38,57.22 L439.72,57.22 L439.72,54.86 L441.38,54.86 L441.4,52.4 Z M455.58,54.56 C455.58,55.8400064 455.213337,56.8599962 454.48,57.62 C454.359999,57.753334 454.086669,58.0166647 453.66,58.41 C453.233331,58.8033353 452.936667,59.1299987 452.77,59.39 C452.603332,59.6500013 452.52,59.9399984 452.52,60.26 L452.52,60.74 L449.9,60.74 L449.9,60.14 C449.9,59.6199974 450.009999,59.1533354 450.23,58.74 C450.450001,58.3266646 450.716665,57.9800014 451.03,57.7 C451.343335,57.4199986 451.656665,57.1433347 451.97,56.87 C452.283335,56.5966653 452.549999,56.2733352 452.77,55.9 C452.990001,55.5266648 453.1,55.1133356 453.1,54.66 C453.1,54.0733304 452.946668,53.6166683 452.64,53.29 C452.333332,52.9633317 451.913336,52.8 451.38,52.8 C450.819997,52.8 450.373335,52.9733316 450.04,53.32 C449.706665,53.6666684 449.54,54.1533302 449.54,54.78 L447.08,54.78 C447.093333,53.5266604 447.506663,52.5400036 448.32,51.82 C449.133337,51.086663 450.139994,50.72 451.34,50.72 C452.540006,50.72 453.546663,51.0666632 454.36,51.76 C455.173337,52.4400034 455.58,53.3733274 455.58,54.56 Z M451.22,62.08 C451.660002,62.08 452.036665,62.2299985 452.35,62.53 C452.663335,62.8300015 452.82,63.1999978 452.82,63.64 C452.82,64.0800022 452.663335,64.4533318 452.35,64.76 C452.036665,65.0666682 451.660002,65.22 451.22,65.22 C450.753331,65.22 450.366668,65.0700015 450.06,64.77 C449.753332,64.4699985 449.6,64.0933356 449.6,63.64 C449.6,63.1866644 449.753332,62.8133348 450.06,62.52 C450.366668,62.2266652 450.753331,62.08 451.22,62.08 Z" id="Have-you-considered-Copy" fill="#3E4E62"/><g id="Group-2"><g id="color/nav/mycare2---rounded-left" fill="#DE4971"><path d="M0,3.99317268 C0,1.7878043 1.79774843,0 3.99941455,0 L72,0 L72,170 L3.99941455,170 C1.79059889,170 0,168.205845 0,166.006827 L0,3.99317268 Z" id="color-swatch-copy-17"/></g><mask id="mask-6" fill="white"><use xlink:href="#path-5"/></mask></g><g id="primary-icon/mycare/active" transform="translate(14.000000, 63.000000)"><circle id="Oval" fill="#EB688E" cx="22" cy="22" r="18"/><g id="icon/mycare" transform="translate(10.000000, 10.000000)"><g id="icon/color" transform="translate(4.000000, 5.000000)"><mask id="mask-8" fill="white"><use xlink:href="#path-7"/></mask><use id="Mask" fill="#FAFBFC" xlink:href="#path-7"/><g id="color/ui/white" mask="url(#mask-8)" fill="#FFFFFF"><g transform="translate(-21.333333, -19.200000)" id="color-swatch-copy-2"><rect width="53" height="53"/></g></g></g></g></g></g></g></g></g></g></svg>