<svg width="392px" height="71px" viewBox="0 0 392 71" xmlns="http://www.w3.org/2000/svg" xmlns:xlink="http://www.w3.org/1999/xlink"><!--Generator: Sketch 45.2 (43514) - http://www.bohemiancoding.com/sketch--><defs><circle id="path-1" cx="20.8333333" cy="20.8333333" r="20.8333333"/><path d="M22.9166667,0 C10.2794574,0 0,10.2794574 0,22.9166667 C0,35.553876 10.2794574,45.8333333 22.9166667,45.8333333 C35.553876,45.8333333 45.8333333,35.553876 45.8333333,22.9166667 C45.8333333,10.2794574 35.553876,0 22.9166667,0 M22.9166667,43.1686047 C11.7485439,43.1686047 2.66472868,34.0847894 2.66472868,22.9166667 C2.66472868,11.7485439 11.7485439,2.66472868 22.9166667,2.66472868 C34.0847894,2.66472868 43.1686047,11.7485439 43.1686047,22.9166667 C43.1686047,34.0847894 34.0847894,43.1686047 22.9166667,43.1686047 M19.0406977,21.6896318 C19.0406977,19.9646318 17.642781,18.5646318 15.9156977,18.5646318 C14.1906977,18.5646318 12.7906977,19.9646318 12.7906977,21.6896318 C12.7906977,23.4167151 14.1906977,24.8146318 15.9156977,24.8146318 C17.642781,24.8146318 19.0406977,23.4167151 19.0406977,21.6896318 M31.371124,18.5656977 C29.6440407,18.5656977 28.246124,19.9636143 28.246124,21.6906977 C28.246124,23.417781 29.6440407,24.8156977 31.371124,24.8156977 C33.0982074,24.8156977 34.496124,23.417781 34.496124,21.6906977 C34.496124,19.9636143 33.0982074,18.5656977 31.371124,18.5656977 M27.1478228,12.9070581 C27.4710877,12.1069495 28.3750453,11.7176776 29.1778366,12.0420264 L37.3391924,15.3394282 C38.1370732,15.6617929 38.5240792,16.5661592 38.1985606,17.371846 L38.1985606,17.371846 C37.8752957,18.1719546 36.9713381,18.5612265 36.1685468,18.2368777 L28.007191,14.9394759 C27.2093102,14.6171112 26.8223042,13.7127449 27.1478228,12.9070581 L27.1478228,12.9070581 Z M8.91865614,15.2885127 C8.59539128,14.4884041 8.975233,13.5804436 9.77802431,13.2560948 L17.9393802,9.95869304 C18.737261,9.63632828 19.6438753,10.018038 19.9693939,10.8237248 L19.9693939,10.8237248 C20.2926588,11.6238334 19.9128171,12.5317938 19.1100258,12.8561426 L10.9486699,16.1535444 C10.1507891,16.4759092 9.24417474,16.0941995 8.91865614,15.2885127 L8.91865614,15.2885127 Z M15.2913307,34.5018162 C15.1414819,33.6519814 15.7043748,32.8423813 16.5641442,32.6907808 L29.8893293,30.3411911 C30.7421336,30.1908187 31.5538998,30.7519202 31.7047933,31.6076799 L31.7047933,31.6076799 C31.8546421,32.4575148 31.2917492,33.2671148 30.4319799,33.4187153 L17.1067947,35.768305 C16.2539905,35.9186774 15.4422243,35.357576 15.2913307,34.5018162 L15.2913307,34.5018162 Z" id="path-3"/></defs><g id="Design" fill="none" fill-rule="evenodd"><g id="responsum---case-study" transform="translate(-175.000000, -2958.000000)"><g id="section3-reaction2-asset" transform="translate(267.000000, 2968.000000)"><g id="Group-2" transform="translate(4.166667, 4.166667)"><mask id="mask-2" fill="white"><use xlink:href="#path-1"/></mask><g id="color/interactive/secondary-inactive" opacity="0.3" mask="url(#mask-2)" fill="#9895D3" fill-opacity="0.4"><g transform="translate(-33.333333, -33.333333)" id="color-swatch-copy-3"><rect width="104" height="104" rx="4"/></g></g></g><g id="icon-color" transform="translate(2.083333, 2.083333)"><mask id="mask-4" fill="white"><use xlink:href="#path-3"/></mask><g id="color/interactive/secondary-text" mask="url(#mask-4)" fill="#7876AC"><g transform="translate(-2.708333, -2.708333)" id="color-swatch-copy-3"><rect width="51" height="51"/></g></g></g></g></g></g></svg>