<svg width="468px" height="214px" viewBox="0 0 468 214" xmlns="http://www.w3.org/2000/svg" xmlns:xlink="http://www.w3.org/1999/xlink"><!--Generator: Sketch 45.2 (43514) - http://www.bohemiancoding.com/sketch--><defs><ellipse id="path-1" cx="20" cy="20.5263158" rx="20" ry="20.5263158"/><filter x="-25.0%" y="-19.5%" width="150.0%" height="148.7%" filterUnits="objectBoundingBox" id="filter-3"><feOffset dy="2" in="SourceAlpha" result="shadowOffsetOuter1"/><feGaussianBlur stdDeviation="3" in="shadowOffsetOuter1" result="shadowBlurOuter1"/><feColorMatrix values="0 0 0 0 0.619607843   0 0 0 0 0.670588235   0 0 0 0 0.737254902  0 0 0 0.7 0" in="shadowBlurOuter1"/></filter></defs><g id="Design" fill="none" fill-rule="evenodd"><g id="responsum---case-study" transform="translate(-137.000000, -2558.000000)"><g id="section3-circle2-asset" transform="translate(271.000000, 2591.210526)"><g id="question/rating/label/default" transform="translate(1.000000, 57.473684)" fill="#3E4E62"><path d="M2.838,0.615789474 L5.13,0.615789474 C5.9700042,0.615789474 6.63799752,0.851839745 7.134,1.32394737 C7.63000248,1.79605499 7.878,2.42620659 7.878,3.21442105 C7.878,3.7809502 7.7380014,4.26741902 7.458,4.67384211 C7.1779986,5.08026519 6.78600252,5.37378857 6.282,5.55442105 L8.238,9.23684211 L6.99,9.23684211 L5.154,5.73915789 L3.93,5.73915789 L3.93,9.23684211 L2.838,9.23684211 L2.838,0.615789474 Z M5.13,1.66263158 L3.93,1.66263158 L3.93,4.72926316 L5.13,4.72926316 C5.63400252,4.72926316 6.03399852,4.59379083 6.33,4.32284211 C6.62600148,4.05189338 6.774,3.68242339 6.774,3.21442105 C6.774,2.72999758 6.62600148,2.35026453 6.33,2.07521053 C6.03399852,1.80015652 5.63400252,1.66263158 5.13,1.66263158 Z M11.454,2.89421053 C12.1340034,2.89421053 12.6639981,3.08715597 13.044,3.47305263 C13.4240019,3.8589493 13.614,4.40904906 13.614,5.12336842 L13.614,9.23684211 L12.678,9.23684211 L12.63,8.38705263 C12.4619992,8.69084362 12.2180016,8.93099912 11.898,9.10752632 C11.5779984,9.28405351 11.2100021,9.37231579 10.794,9.37231579 C10.2579973,9.37231579 9.8300016,9.21426474 9.51,8.89815789 C9.1899984,8.58205105 9.03,8.15716056 9.03,7.62347368 C9.03,6.64641617 9.59399436,6.04705374 10.722,5.82536842 L12.57,5.46821053 L12.57,5.16031579 C12.57,4.30641678 12.1980037,3.87947368 11.454,3.87947368 C11.0859982,3.87947368 10.7880011,3.98005163 10.56,4.18121053 C10.3319989,4.38236943 10.218,4.65947192 10.218,5.01252632 L9.198,5.01252632 C9.21400008,4.4131549 9.42999792,3.90821258 9.846,3.49768421 C10.2620021,3.09536641 10.7979967,2.89421053 11.454,2.89421053 Z M12.57,6.62589474 L12.57,6.39189474 L10.914,6.76136842 C10.6339986,6.83526353 10.4240007,6.93584147 10.284,7.06310526 C10.1439993,7.19036906 10.074,7.37305144 10.074,7.61115789 C10.074,7.85747492 10.1539992,8.04836774 10.314,8.18384211 C10.4740008,8.31931647 10.7019985,8.38705263 10.998,8.38705263 C11.5260026,8.38705263 11.9339986,8.18179153 12.222,7.77126316 C12.4540012,7.44284046 12.57,7.06105481 12.57,6.62589474 Z M18.198,2.96810526 L18.198,4.02726316 C17.7019975,4.02726316 17.2940016,4.17915638 16.974,4.48294737 C16.6219982,4.81137006 16.4380001,5.29989149 16.422,5.94852632 L16.422,9.23684211 L15.39,9.23684211 L15.39,3.02968421 L16.314,3.02968421 L16.386,4.11347368 C16.5060006,3.77684042 16.7239984,3.50179054 17.04,3.28831579 C17.3560016,3.07484104 17.7419977,2.96810526 18.198,2.96810526 Z M21.822,2.89421053 C22.6620042,2.89421053 23.3299975,3.16926041 23.826,3.71936842 C24.3220025,4.26947643 24.57,5.04536341 24.57,6.04705263 L24.57,6.552 L19.974,6.552 C20.0140002,7.11852915 20.2039983,7.56599836 20.544,7.89442105 C20.8840017,8.22284375 21.3179974,8.38705263 21.846,8.38705263 C22.6860042,8.38705263 23.2299988,8.05042442 23.478,7.37715789 L24.51,7.37715789 C24.317999,8.00937158 23.9920023,8.49994562 23.532,8.84889474 C23.0719977,9.19784385 22.5020034,9.37231579 21.822,9.37231579 C20.9579957,9.37231579 20.2580027,9.0767398 19.722,8.48557895 C19.1779973,7.88620753 18.906,7.10621533 18.906,6.14557895 C18.906,5.19315313 19.1739973,4.41726615 19.71,3.81789474 C20.2540027,3.20210218 20.9579957,2.89421053 21.822,2.89421053 Z M21.822,3.87947368 C21.3179975,3.87947368 20.9020016,4.03752474 20.574,4.35363158 C20.2459984,4.66973842 20.0500003,5.08641847 19.986,5.60368421 L23.526,5.60368421 C23.518,5.0782079 23.3580016,4.65947524 23.046,4.34747368 C22.7339984,4.03547212 22.3260025,3.87947368 21.822,3.87947368 Z M26.07,0.246315789 L27.102,0.246315789 L27.102,9.23684211 L26.07,9.23684211 L26.07,0.246315789 Z M32.778,3.02968421 L33.894,3.02968421 L30.594,11.8847368 L29.502,11.8847368 L30.51,9.15063158 L28.242,3.02968421 L29.346,3.02968421 L30.942,7.488 L31.062,7.956 L31.182,7.488 L32.778,3.02968421 Z" id="Default"/></g><mask id="mask-2" fill="white"><use xlink:href="#path-1"/></mask><g id="Oval-2-Copy"><use fill="black" filter="url(#filter-3)" xlink:href="#path-1"/><use fill="#FFFFFF" xlink:href="#path-1"/></g><g id="color/rating/rarely" mask="url(#mask-2)" fill="#4592B9"><g transform="translate(-5.000000, -5.131579)" id="color-swatch-copy-10"><rect width="50" height="51"/></g></g><path d="M20.049,14.3868947 C20.9170043,14.3868947 21.5889976,14.6335502 22.065,15.1268684 C22.5410024,15.6201867 22.779,16.3026799 22.779,17.1743684 C22.779,18.093952 22.3823373,19.0757843 21.589,20.1198947 L19.083,23.4102632 L22.933,23.4102632 L22.933,24.6315789 L17.333,24.6315789 L17.333,23.6688947 L20.483,19.5882632 C20.8563352,19.0901554 21.1176659,18.6734754 21.267,18.3382105 C21.4163341,18.0029457 21.491,17.6293705 21.491,17.2174737 C21.491,16.1446262 21.0056715,15.6082105 20.035,15.6082105 C19.5589976,15.6082105 19.185668,15.7662616 18.915,16.0823684 C18.644332,16.3984753 18.509,16.8630496 18.509,17.4761053 L17.235,17.4761053 C17.235,16.5277847 17.4893308,15.7758449 17.998,15.2202632 C18.5066692,14.6646814 19.190329,14.3868947 20.049,14.3868947 Z" id="#" fill="#FFFFFF" mask="url(#mask-2)"/></g></g></g></svg>