<svg width="693px" height="324px" viewBox="0 0 693 324" xmlns="http://www.w3.org/2000/svg" xmlns:xlink="http://www.w3.org/1999/xlink"><!--Generator: Sketch 45.2 (43514) - http://www.bohemiancoding.com/sketch--><defs><rect id="path-1" width="1400" height="950.848633"/><circle id="path-3" cx="20.8333333" cy="20.8333333" r="20.8333333"/><path d="M22.3958333,42.1875 C11.4815315,42.1875 2.60416667,33.3101351 2.60416667,22.3958333 C2.60416667,11.4815315 11.4815315,2.60416667 22.3958333,2.60416667 C33.3101351,2.60416667 42.1875,11.4815315 42.1875,22.3958333 C42.1875,33.3101351 33.3101351,42.1875 22.3958333,42.1875 M22.3958333,0 C10.0458333,0 0,10.0458333 0,22.3958333 C0,34.7458333 10.0458333,44.7916667 22.3958333,44.7916667 C34.7458333,44.7916667 44.7916667,34.7458333 44.7916667,22.3958333 C44.7916667,10.0458333 34.7458333,0 22.3958333,0 M26.0632425,18.6691097 C25.9668545,18.965688 26.2065886,19.2548518 26.5204672,19.2251939 L28.0997463,19.0793763 C29.3379604,18.965688 30.5712316,19.0942052 31.7328296,19.4550421 L33.2206637,19.9172098 C33.5147705,20.0086548 33.8360636,19.7788066 33.8335921,19.4723425 C33.8261776,17.5841277 32.422374,15.9949627 30.4624862,15.7923009 C28.5025984,15.5896391 26.6539274,16.8426821 26.0632425,18.6691097 M17.1872504,19.087947 L18.7714725,19.2337646 C19.0853511,19.2634225 19.3201422,18.9742587 19.2237543,18.6776805 C18.6355408,16.8512529 16.7868698,15.5982098 14.826982,15.8008716 C12.8670942,16.0035334 11.4632906,17.5926984 11.4583476,19.4809132 C11.4558761,19.7873773 11.7746977,20.0172255 12.0688045,19.9257805 L13.5541671,19.4636128 C14.7182367,19.1027759 15.9515078,18.9742587 17.1872504,19.087947 M26.4889583,12.9754167 C26.7264583,13.0441667 26.993125,13.0233333 27.2264583,12.89625 C28.9202083,11.9775 31.074375,12.3045833 32.724375,13.7316667 C33.1327083,14.09 33.7535417,14.0441667 34.1077083,13.6316667 C34.461875,13.2233333 34.418125,12.6045833 34.0077083,12.2504167 C31.7389583,10.2816667 28.7077083,9.85875 26.293125,11.17125 C25.818125,11.4295833 25.6410417,12.0254167 25.899375,12.5004167 C26.0285417,12.7420833 26.2452083,12.9066667 26.4889583,12.9754167 M17.535,12.89625 C17.7704167,13.0233333 18.035,13.0441667 18.2745833,12.9754167 C18.5183333,12.9066667 18.7329167,12.7420833 18.86625,12.5025 C19.1245833,12.0254167 18.9475,11.4295833 18.4704167,11.17125 C16.05375,9.85875 13.0266667,10.2816667 10.7558333,12.2504167 C10.3475,12.6045833 10.2995833,13.2233333 10.6558333,13.63375 C11.01,14.0441667 11.6308333,14.09 12.0391667,13.7316667 C13.6870833,12.3045833 15.8433333,11.9775 17.535,12.89625 M22.8720153,33.4924741 C22.8147758,33.4924741 22.7575363,33.4920975 22.7014266,33.4909678 C18.4860403,33.4126401 14.998198,30.5551852 13.4116854,27.7576057 C13.0524323,27.1245823 13.2746119,26.320217 13.9076353,25.960964 C14.5406587,25.6020875 15.3454006,25.8238905 15.7042771,26.4572905 C16.8825818,28.534481 19.5897831,30.7965701 22.7503814,30.8553158 C25.3363254,30.9069067 27.6902989,29.3682191 29.5129244,26.4154906 C29.8959017,25.7960239 30.708175,25.6043469 31.3268886,25.9858179 C31.9463553,26.3684187 32.1380322,27.1803154 31.7561847,27.7997822 C28.8674739,32.479486 25.3626857,33.4924741 22.8720153,33.4924741" id="path-5"/></defs><g id="Design" fill="none" fill-rule="evenodd"><g id="responsum---case-study" transform="translate(-25.000000, -2832.000000)"><g id="Section-4" transform="translate(0.000000, 3155.000000)"><rect id="Rectangle-Copy-15" transform="translate(720.000000, 475.000000) scale(-1, 1) translate(-720.000000, -475.000000) " width="1440" height="950"/><g id="Group" transform="translate(20.000000, 0.000000)"><mask id="mask-2" fill="white"><use xlink:href="#path-1"/></mask></g></g><rect id="Rectangle-Copy-5"  transform="translate(360.000000, 2993.000000) scale(-1, 1) translate(-360.000000, -2993.000000) " y="2831" width="720" height="324"/><g id="section3-reaction1-asset" transform="translate(190.000000, 2970.000000)"><g id="Group-2" transform="translate(2.166667, 2.166667)"><mask id="mask-4" fill="white"><use xlink:href="#path-3"/></mask><g id="color/interactive/secondary-inactive" opacity="0.3" mask="url(#mask-4)" fill="#9895D3" fill-opacity="0.4"><g transform="translate(-33.333333, -33.333333)" id="color-swatch-copy-3"><rect width="104" height="104" rx="4"/></g></g></g><g id="icon-color" transform="translate(0.083333, 0.083333)"><mask id="mask-6" fill="white"><use xlink:href="#path-5"/></mask><use id="Mask" fill="#000000" xlink:href="#path-5"/><g id="color/interactive/secondary-text" mask="url(#mask-6)" fill="#7876AC"><g transform="translate(-2.083333, -2.083333)" id="color-swatch-copy-3"><rect width="51" height="51"/></g></g></g></g></g></g></svg>