<svg width="468px" height="214px" viewBox="0 0 468 214" xmlns="http://www.w3.org/2000/svg" xmlns:xlink="http://www.w3.org/1999/xlink"><!--Generator: Sketch 45.2 (43514) - http://www.bohemiancoding.com/sketch--><defs><ellipse id="path-1" cx="24" cy="20.5263158" rx="20" ry="20.5263158"/><filter x="-25.0%" y="-19.5%" width="150.0%" height="148.7%" filterUnits="objectBoundingBox" id="filter-3"><feOffset dy="2" in="SourceAlpha" result="shadowOffsetOuter1"/><feGaussianBlur stdDeviation="3" in="shadowOffsetOuter1" result="shadowBlurOuter1"/><feColorMatrix values="0 0 0 0 0.619607843   0 0 0 0 0.670588235   0 0 0 0 0.737254902  0 0 0 0.7 0" in="shadowBlurOuter1"/></filter></defs><g id="Design" fill="none" fill-rule="evenodd"><g id="responsum---case-study" transform="translate(-137.000000, -2558.000000)"><g id="section3-circle5-asset" transform="translate(507.000000, 2591.210526)"><g id="question/rating/label/default" transform="translate(0.000000, 57.473684)" fill="#3E4E62"><path d="M8.938,2.52473684 L8.782,2.05673684 L8.626,2.52473684 L7.306,5.91157895 L10.27,5.91157895 L8.938,2.52473684 Z M8.23,0.615789474 L9.358,0.615789474 L12.73,9.23684211 L11.53,9.23684211 L10.642,6.95842105 L6.934,6.95842105 L6.058,9.23684211 L4.858,9.23684211 L8.23,0.615789474 Z M13.894,0.246315789 L14.926,0.246315789 L14.926,9.23684211 L13.894,9.23684211 L13.894,0.246315789 Z M23.794,3.02968421 L24.898,3.02968421 L22.978,9.23684211 L21.934,9.23684211 L20.47,4.80315789 L18.994,9.23684211 L17.986,9.23684211 L16.066,3.02968421 L17.17,3.02968421 L18.43,7.36484211 L18.55,7.93136842 L18.682,7.36484211 L20.038,3.02968421 L20.926,3.02968421 L22.282,7.36484211 L22.414,7.93136842 L22.534,7.36484211 L23.794,3.02968421 Z M28.066,2.89421053 C28.7460034,2.89421053 29.2759981,3.08715597 29.656,3.47305263 C30.0360019,3.8589493 30.226,4.40904906 30.226,5.12336842 L30.226,9.23684211 L29.29,9.23684211 L29.242,8.38705263 C29.0739992,8.69084362 28.8300016,8.93099912 28.51,9.10752632 C28.1899984,9.28405351 27.8220021,9.37231579 27.406,9.37231579 C26.8699973,9.37231579 26.4420016,9.21426474 26.122,8.89815789 C25.8019984,8.58205105 25.642,8.15716056 25.642,7.62347368 C25.642,6.64641617 26.2059944,6.04705374 27.334,5.82536842 L29.182,5.46821053 L29.182,5.16031579 C29.182,4.30641678 28.8100037,3.87947368 28.066,3.87947368 C27.6979982,3.87947368 27.4000011,3.98005163 27.172,4.18121053 C26.9439989,4.38236943 26.83,4.65947192 26.83,5.01252632 L25.81,5.01252632 C25.8260001,4.4131549 26.0419979,3.90821258 26.458,3.49768421 C26.8740021,3.09536641 27.4099967,2.89421053 28.066,2.89421053 Z M29.182,6.62589474 L29.182,6.39189474 L27.526,6.76136842 C27.2459986,6.83526353 27.0360007,6.93584147 26.896,7.06310526 C26.7559993,7.19036906 26.686,7.37305144 26.686,7.61115789 C26.686,7.85747492 26.7659992,8.04836774 26.926,8.18384211 C27.0860008,8.31931647 27.3139985,8.38705263 27.61,8.38705263 C28.1380026,8.38705263 28.5459986,8.18179153 28.834,7.77126316 C29.0660012,7.44284046 29.182,7.06105481 29.182,6.62589474 Z M35.746,3.02968421 L36.862,3.02968421 L33.562,11.8847368 L32.47,11.8847368 L33.478,9.15063158 L31.21,3.02968421 L32.314,3.02968421 L33.91,7.488 L34.03,7.956 L34.15,7.488 L35.746,3.02968421 Z M39.694,2.89421053 C40.2700029,2.89421053 40.7419982,3.0748403 41.11,3.43610526 C41.4780018,3.78915966 41.6699999,4.2612602 41.686,4.85242105 L40.63,4.85242105 C40.622,4.20378623 40.3020032,3.87947368 39.67,3.87947368 C39.3739985,3.87947368 39.1460008,3.95542029 38.986,4.10731579 C38.8259992,4.25921129 38.746,4.46241978 38.746,4.71694737 C38.746,4.96326439 38.8239992,5.14799938 38.98,5.27115789 C39.1360008,5.39431641 39.4379978,5.50926262 39.886,5.616 C40.6060036,5.78842191 41.1159985,6.01626174 41.416,6.29952632 C41.7160015,6.58279089 41.866,6.9748396 41.866,7.47568421 C41.866,8.05863449 41.670002,8.52047198 41.278,8.86121053 C40.885998,9.20194907 40.3740032,9.37231579 39.742,9.37231579 C39.0619966,9.37231579 38.5280019,9.19168602 38.14,8.83042105 C37.7519981,8.46915609 37.5500001,7.97652944 37.534,7.35252632 L38.59,7.35252632 C38.598,8.04221397 38.9899961,8.38705263 39.766,8.38705263 C40.0940016,8.38705263 40.3499991,8.31110602 40.534,8.15921053 C40.7180009,8.00731503 40.81,7.80410654 40.81,7.54957895 C40.81,7.28684079 40.7220009,7.0836323 40.546,6.93994737 C40.3699991,6.79626244 40.0380024,6.66694794 39.55,6.552 C38.8939967,6.39599922 38.4200015,6.18252767 38.128,5.91157895 C37.8359985,5.64063022 37.69,5.26294979 37.69,4.77852632 C37.69,4.25305 37.8659982,3.80968602 38.218,3.44842105 C38.5780018,3.07894552 39.0699969,2.89421053 39.694,2.89421053 Z" id="Default"/></g><mask id="mask-2" fill="white"><use xlink:href="#path-1"/></mask><g id="Oval-2-Copy"><use fill="black" filter="url(#filter-3)" xlink:href="#path-1"/><use fill="#FFFFFF" xlink:href="#path-1"/></g><g id="color/rating/always" mask="url(#mask-2)" fill="#B10695"><g transform="translate(-1.000000, -5.131579)" id="color-swatch-copy-6"><rect width="50" height="51"/></g></g><path d="M21.417,14.5736842 L26.695,14.5736842 L26.695,15.795 L22.705,15.795 L22.705,18.7117895 C23.1156687,18.4627356 23.6476634,18.3382105 24.301,18.3382105 C25.1783377,18.3382105 25.8829973,18.6207866 26.415,19.1859474 C26.9470027,19.7511081 27.213,20.5126268 27.213,21.4705263 C27.213,22.4667418 26.9330028,23.2713654 26.373,23.8844211 C25.8223306,24.5070557 25.0756714,24.8183684 24.133,24.8183684 C23.199662,24.8183684 22.4670027,24.5645289 21.935,24.0568421 C21.4029973,23.5491554 21.137,22.8259521 21.137,21.8872105 L22.411,21.8872105 C22.4203334,22.4523712 22.5766652,22.8786301 22.88,23.166 C23.1833349,23.4533699 23.605664,23.5970526 24.147,23.5970526 C24.6976694,23.5970526 25.1316651,23.4078703 25.449,23.0295 C25.7663349,22.6511297 25.925,22.1458453 25.925,21.5136316 C25.925,20.9101549 25.7663349,20.433607 25.449,20.0839737 C25.1316651,19.7343404 24.6883362,19.5595263 24.119,19.5595263 C23.5309971,19.5595263 23.0083356,19.7127879 22.551,20.0193158 L21.417,20.0193158 L21.417,14.5736842 Z" id="#" fill="#FFFFFF" mask="url(#mask-2)"/></g></g></g></svg>