<?xml version="1.0" encoding="utf-8"?>
<!-- Generator: Adobe Illustrator 16.0.0, SVG Export Plug-In . SVG Version: 6.00 Build 0)  -->
<!DOCTYPE svg PUBLIC "-//W3C//DTD SVG 1.1//EN" "http://www.w3.org/Graphics/SVG/1.1/DTD/svg11.dtd">
<svg version="1.1" id="Layer_1" xmlns="http://www.w3.org/2000/svg" xmlns:xlink="http://www.w3.org/1999/xlink" x="0px" y="0px"
	 width="492.1px" height="330.3px" viewBox="0 0 492.1 330.3" enable-background="new 0 0 492.1 330.3" xml:space="preserve">
<g>
	<g>
		<path fill="#BDBDBD" d="M412.3,114c9.5,0.6,18.9,1.2,28.4,1.8c2.4-2.4,4.8-4.8,7.1-7.2c-1.1-1.2-2.2-2.3-3.3-3.5
			c-0.1-3-0.3-5.9-0.5-8.9c-1.3-1.4-2.5-2.7-3.8-4.1c-12.4-1.2-24.7-2.3-37.1-3.3c-1.2,1.3-2.4,2.6-3.7,3.9
			c0.3,6.9,0.6,13.8,0.8,20.7C404.3,113.5,408.3,113.8,412.3,114z"/>
	</g>
	<g>
		<path fill="#A6273C" d="M439.4,86.7c2.5,0.3,5.1,0.5,7.6,0.8c-0.3-5.1-0.7-10.2-1-15.3c-0.2-2.9-0.4-5.7-0.7-8.5
			c-0.7-8.5-1.4-17-2.3-25.4c-2-0.4-4.1-0.7-6.1-1.1c-1.5,1.5-3,3-4.5,4.5c-3.2,4.1-6.5,8.3-9.8,12.5c0.1,1.9,0.3,3.9,0.4,5.8
			c-2,2-3.9,4.1-5.9,6.1c-4.5-0.5-9.1-1-13.6-1.5c-1.4,1.4-2.7,2.9-4.1,4.4c0.2,2.9,0.3,5.7,0.5,8.6c-0.4,0.5-0.8,0.9-1.3,1.4
			c12.3,1.1,24.7,2.3,37,3.6C436.8,84,438.1,85.3,439.4,86.7z"/>
	</g>
	<g>
		<path fill="#33393D" d="M374.4,141c5.2,0.1,10.3,0.2,15.5,0.4c1.6,1.7,3.2,3.5,4.7,5.2c1.1-1.2,2.2-2.4,3.3-3.6
			c0-2.6-0.1-5.1-0.1-7.7c1.9,0.1,3.8,0.1,5.6,0.2c1.7-1.8,3.4-3.7,5.1-5.5c-0.1-3.9-0.2-7.7-0.3-11.6c-0.2-6.8-0.5-13.7-0.8-20.5
			c-2.6,2.8-5.3,5.6-7.9,8.4c-5.4-0.3-10.8-0.6-16.2-0.9c0-1.3-0.1-2.6-0.1-3.9c-3.3-0.2-6.5-0.4-9.8-0.6
			C373.9,114.2,374.2,127.6,374.4,141z"/>
	</g>
	<g>
		<path fill="#BDBDBD" d="M318.3,180.5c0,2.7,0,5.4,0,8.1c4.8,0,9.6-0.1,14.5-0.1c7.7-0.1,15.4-0.2,23-0.3
			c6.2-0.1,12.3-0.2,18.5-0.3c0-2.8,0-5.6,0-8.4c1.9-2.1,3.8-4.2,5.7-6.3c2.6,0,5.2,0,7.7,0c0-2,0-3.9,0-5.9c-5.4,0-10.8,0-16.2,0
			c-17.7,0-35.4,0-53.2,0C318.3,171.7,318.3,176.1,318.3,180.5z"/>
	</g>
	<g>
		<path fill="#33393D" d="M308.9,37.2c3.5,4.2,7.1,8.4,10.7,12.7c0.1,0.1,0.2,0.2,0.3,0.4c0,0,0-0.1,0-0.1c2.4-2.7,4.8-5.5,7.1-8.2
			c0-1.2-0.1-2.5-0.1-3.7c1.9-2.2,3.8-4.4,5.7-6.5c4.5,0.3,9,0.7,13.4,1.1c-2.3-2.7-4.5-5.3-6.8-8c-2.2-0.2-4.5-0.4-6.7-0.6
			c-1.2,1.4-2.5,2.8-3.7,4.3c-4.1-0.3-8.2-0.6-12.3-0.8c-1.3-1.6-2.7-3.2-4-4.8c-0.1-2.4-0.2-4.8-0.3-7.2c-2.4,2.8-4.9,5.7-7.3,8.6
			c-1.9,2.2-3.8,4.5-5.7,6.7c1.7,2,3.3,4,5,6C305.8,37.1,307.3,37.1,308.9,37.2z"/>
	</g>
	<g>
		<path fill="#33393D" d="M358.2,84.8c-0.1-1.6-0.1-3.2-0.2-4.8c1.7-1.9,3.4-3.8,5.1-5.7c-0.2-4.3-0.4-8.6-0.6-12.9
			c-1.6-1.8-3.2-3.7-4.8-5.5c-2,2.2-4,4.4-6,6.7c-0.1-2.8-0.2-5.6-0.4-8.5c1-1.2,2.1-2.4,3.1-3.5c-0.1-2.2-0.2-4.4-0.3-6.6
			c-1.5-1.8-3.1-3.6-4.6-5.4c-3.6-0.3-7.2-0.6-10.8-0.9c-3.1,3.6-6.3,7.2-9.5,10.8c0.2,5.9,0.4,11.8,0.6,17.7c2.1,2.5,4.2,5,6.4,7.4
			c0.1,3.3,0.2,6.7,0.3,10c3.9,0.2,7.8,0.4,11.7,0.6C351.7,84.4,354.9,84.6,358.2,84.8z"/>
	</g>
	<g>
		<path fill="#A6273C" d="M291.5,58.9c2.6,3,5.1,6,7.7,9.1c0.1,3.9,0.1,7.9,0.2,11.8c3.5,4.1,7,8.2,10.6,12.3c1.5,0,3.1,0.1,4.6,0.1
			c4.8,0.2,9.7,0.3,14.5,0.5c-0.1-5.4-0.3-10.8-0.4-16.1c-0.1-4.7-0.3-9.3-0.4-14c-0.1-0.1-0.2-0.2-0.3-0.4
			c-3.6-4.2-7.2-8.4-10.7-12.6c-1.6-0.1-3.2-0.2-4.7-0.2c-1.7-2-3.4-4-5-6c0,0,0,0-0.1,0.1c-3.5-0.2-7.1-0.3-10.6-0.5
			c-1.8,2.1-3.6,4.2-5.4,6.4C291.4,52.7,291.5,55.8,291.5,58.9z"/>
	</g>
	<g>
		<path fill="#33393D" d="M316.2,181.8c0-1.3,0-2.6,0-3.8c-14.8,0.1-29.5,0.1-44.3,0.1c0,12.7,0,25.4-0.1,38.1
			c2.8,3.2,5.6,6.5,8.4,9.7c9.6-0.1,19.2-0.3,28.9-0.5c0-3.5,0.1-7.1,0.1-10.6c0-3.4,0.1-6.7,0.1-10.1c3.2-3.6,6.3-7.3,9.5-10.9
			c1.2-1.3,2.3-2.7,3.5-4c0-2.7,0-5.4,0-8C320.2,181.8,318.2,181.8,316.2,181.8z"/>
	</g>
	<g>
		<path fill="#BDBDBD" d="M357.7,146.8c4.6-5.1,9.2-10.2,13.7-15.3c-0.2-13.4-0.6-26.8-1.1-40.2c-3.9-0.2-7.8-0.5-11.7-0.7
			c-2.4,2.7-4.8,5.3-7.2,8.1c-1.2-0.1-2.4-0.1-3.6-0.2c0.4,16,0.7,32.1,0.8,48.2C351.6,146.7,354.6,146.8,357.7,146.8z"/>
	</g>
	<g>
		<path fill="#33393D" d="M343.4,103.1c-2.1-2.4-4.3-4.9-6.4-7.4c0-1.3-0.1-2.5-0.1-3.8c-6.3-0.3-12.7-0.5-19-0.7
			c0.1,4.2,0.2,8.5,0.2,12.7c-1.5,1.7-3,3.4-4.5,5.1c0,2.9,0.1,5.7,0.1,8.6c0,0,0.1,0,0.1,0c0.1,4.5,0.1,9,0.1,13.5
			c2,2.3,4,4.6,6,6.9c1,0,2,0,3,0c0,3,0,6,0.1,9c2.8,3.2,5.7,6.5,8.5,9.7c0,2.2,0,4.4,0,6.5c4.8-4,9.6-7.9,14.4-11.8c0,0,0,0,0-0.1
			c-0.1-16.1-0.4-32.2-0.7-48.3C344.7,103.1,344,103.1,343.4,103.1z"/>
	</g>
	<g>
		<path fill="#33393D" d="M351.2,160.4"/>
	</g>
	<g>
		<path fill="#33393D" d="M392.2,151.6"/>
	</g>
	<g>
		<polyline fill="#33393D" points="400.2,149.2 400.2,149.2 400.2,149.2 		"/>
	</g>
	<g>
		<path fill="#33393D" d="M125.7,114.9c0.2-8.5,0.5-17,0.8-25.5c-9.4,0.6-18.8,1.2-28.2,1.9c-1.1,24.2-1.6,48.5-1.7,72.7
			c14.6-0.1,29.3-0.1,44-0.2c0-16.5,0.3-33.1,0.6-49.6C136,114.5,130.8,114.7,125.7,114.9z"/>
	</g>
	<g>
		<path fill="#A6273C" d="M89.4,81.6c-11.1,1-22.1,2.1-33.2,3.3c-0.2,3.4-0.4,6.8-0.6,10.1c-2.9,2.9-5.7,5.7-8.6,8.5
			c-0.3,4.9-0.5,9.8-0.7,14.7c6.6,6,13.3,12.2,20.1,18.6c-0.1,2.4-0.1,4.8-0.1,7.2c5.6,5.3,11.2,10.7,16.9,16.3
			c2.1-2.2,4.2-4.5,6.3-6.7c3.3-0.1,6.6-0.1,9.9-0.1c0.2-24.3,0.9-48.6,2.1-72.9C97.5,80.9,93.5,81.3,89.4,81.6z"/>
	</g>
	<g>
		<path fill="#A6273C" d="M252.7,81.4c12,0,24,0.2,36,0.4c0-4-0.1-7.9-0.2-11.9c-2.6-3-5.1-6-7.7-9c0-3.1-0.1-6.3-0.1-9.4
			c1.8-2.2,3.7-4.3,5.5-6.4c-0.2,0-0.5,0-0.7,0c0-2.7-0.1-5.5-0.1-8.2c4.7-5.5,9.3-10.9,13.8-16.3c-4.5-0.1-8.9-0.3-13.4-0.4
			c-1.5-1.8-2.9-3.5-4.4-5.3c-3.2-0.1-6.4-0.2-9.6-0.3c-2.4-2.9-4.8-5.7-7.1-8.6c-4-0.1-8-0.1-12.1-0.1c0,11.9,0,23.9,0.1,35.8
			C252.7,54.9,252.7,68.2,252.7,81.4z"/>
	</g>
	<g>
		<path fill="#33393D" d="M265.5,182.4c-14.3,0-28.7,0-43,0c0,10.6,0,21.2,0.1,31.8c3.5,4.1,7,8.1,10.5,12.2
			c10.8,0.1,21.6,0.1,32.4,0c0-12.7,0.1-25.4,0.1-38.1C265.5,186.3,265.5,184.3,265.5,182.4z"/>
	</g>
	<g>
		<path fill="#33393D" d="M460.4,68.7c-0.4-4.8-0.8-9.5-1.3-14.3c1-0.9,1.9-1.8,2.9-2.8c-0.2-2.4-0.5-4.9-0.7-7.3
			c-4.4-0.8-8.8-1.6-13.2-2.4c0.8,8.4,1.6,16.9,2.3,25.3C453.7,67.7,457.1,68.2,460.4,68.7z"/>
	</g>
	<g>
		<path fill="#A6273C" d="M274.9,159.6c0,2.4,0,4.8,0,7.2c0,2,0,3.9,0,5.8c14.8,0,29.5,0,44.3-0.1c0,1.3,0,2.6,0,3.8c2,0,4,0,6,0
			c0-4.4,0-8.8,0-13.2c0-2.2,0-4.4,0-6.6c-2.8-3.2-5.7-6.5-8.5-9.7c0-3,0-6-0.1-9c-1,0-2,0-3,0c-2-2.3-4-4.6-6-6.9
			c0-4.5-0.1-9-0.1-13.5c-12.9-0.2-25.8-0.4-38.7-0.5c2,2.3,4,4.7,6,7C274.8,135.9,274.9,147.8,274.9,159.6z"/>
	</g>
	<g>
		<path fill="#BDBDBD" d="M200.1,126.4c0-5.2,0.1-10.4,0.1-15.6c-3.4,0.1-6.8,0.1-10.2,0.2c-15.2,0.3-30.4,0.8-45.6,1.3
			c-0.4,16.6-0.6,33.1-0.6,49.7c14.7-0.1,29.4-0.1,44.2-0.1c4,0,8,0,12,0C200,150.1,200,138.2,200.1,126.4z"/>
	</g>
	<g>
		<path fill="#A6273C" d="M266.6,177.9c0-11.9,0-23.8,0-35.7c-20-0.1-40.1,0-60.1,0.1c-0.1,11.8-0.1,23.7-0.1,35.5c-4,0-8,0-12,0
			c0,2.4,0,4.7,0,7.1c9.7,0.1,19.4,0.1,29.1,0.1c0,0,0,0.1,0,0.1c14.3,0,28.7,0,43,0C266.6,182.7,266.6,180.3,266.6,177.9z"/>
	</g>
	<g>
		<path fill="#BDBDBD" d="M252.8,105.1c0-7.3,0-14.5,0-21.8c0-13.3,0-26.5-0.1-39.7c-19.7-0.1-39.3,0.3-59,1.2
			c-0.1,3.1-0.2,6.2-0.2,9.3c-0.3,13.7-0.6,27.4-0.8,41.1c17-0.4,34-0.7,51.1-0.7C246.7,98,249.7,101.6,252.8,105.1z"/>
	</g>
	<g>
		<path fill="#33393D" d="M214,137.9c20-0.1,40-0.1,60,0c-2-2.3-4-4.7-6-7c0-4.3,0-8.7,0-13c-1.2-1.4-2.5-2.9-3.7-4.3
			c-3-3.5-6.1-7.1-9.1-10.6c-17.1,0-34.1,0.1-51.2,0.4c-0.1,6.3-0.1,12.7-0.2,19.1c3.4,0,6.8-0.1,10.2-0.1
			C214.1,127.4,214.1,132.6,214,137.9z"/>
	</g>
	<g>
		<path fill="#A6273C" d="M287.8,253.7c0-3,0.1-5.9,0.1-8.9c1.1-1.3,2.3-2.7,3.4-4c0-3.3,0.1-6.6,0.1-9.9
			c-9.6,0.2-19.2,0.3-28.8,0.3c0,4.6,0,9.2,0,13.8c2.3,2.7,4.7,5.5,7,8.2c0,7.3-0.1,14.5-0.1,21.8c2.5,0,5-0.1,7.6-0.1
			c1.6,1.9,3.2,3.7,4.8,5.6c9.4-0.2,18.8-0.5,28.2-1c0.1-3.4,0.2-6.9,0.2-10.3c-1.6-1.8-3.1-3.6-4.7-5.4c0.1-0.1,0.2-0.2,0.3-0.3
			c0.1-3.5,0.1-6.9,0.2-10.4C299.9,253.4,293.8,253.6,287.8,253.7z"/>
	</g>
	<g>
		<path fill="#A6273C" d="M454.4,126c-0.1-3.7-0.3-7.4-0.4-11.1c-0.5-0.5-1-1-1.5-1.5c0,0,0,0,0,0c-9.4-0.7-18.9-1.4-28.3-2
			c0.1,1.8,0.1,3.6,0.2,5.4c4.8,0.3,9.7,0.6,14.5,0.9c0.3,0,0.6,0,0.9,0.1c0.6,0,1.2,0.1,1.8,0.1c2.4,2.6,4.8,5.1,7.3,7.7
			c-0.1-1.6-0.1-3.3-0.2-4.9c0.9,1,1.8,1.9,2.8,2.9c0.1,1.6,0.1,3.3,0.2,4.9c1.3,1.3,2.5,2.6,3.8,3.9c0,1,0.1,2,0.1,2.9
			c1.6,1.4,3.2,2.8,4.7,4.2c-0.1-4.4-0.3-8.9-0.5-13.3C457.8,126.3,456.1,126.2,454.4,126z"/>
	</g>
	<g>
		<path fill="#33393D" d="M447.5,124.2c-0.3,0-0.6,0-0.9-0.1c-2.4,2.5-4.9,5-7.3,7.5c0.1,2,0.1,3.9,0.2,5.9c-1,0-2-0.1-3-0.1
			c-5.2,5.3-10.4,10.8-15.6,16.4c-2.3,0-4.6-0.1-6.8-0.1c-3.9,4.2-7.9,8.5-11.9,12.8c5.4,0,10.8,0,16.2,0c15.7,0,31.4,0.1,47.1,0.1
			c0-3,0-6-0.1-9c-2.8-2.2-5.6-4.5-8.3-6.8c-0.1-6.3-0.2-12.7-0.4-19c-2.4-2.5-4.8-5-7.2-7.6C448.7,124.3,448.1,124.2,447.5,124.2z"
			/>
	</g>
	<g>
		<path fill="#A6273C" d="M401.6,169.7c-2.6,0-5.1,0-7.7,0c-1.9,2.1-3.8,4.1-5.6,6.2c0,2.8,0,5.5,0,8.3c0.8,0,1.7,0,2.5,0
			c8.1-0.1,16.2-0.2,24.3-0.4c4.6-0.1,9.1-0.2,13.7-0.2c1.3,1.4,2.6,2.7,3.9,4.1c0-0.1,0-0.1,0-0.2c0.8,0,1.6,0,2.4-0.1
			c4.6-4.9,9.2-9.7,13.7-14.4c0-2.9,0-5.9,0-8.8c-15.7-0.1-31.4-0.2-47.2-0.2C401.6,165.8,401.6,167.8,401.6,169.7z"/>
	</g>
	<g>
		<path fill="#33393D" d="M390.6,199.4c-3.1-3.4-6.3-6.8-9.4-10.2c0-1.6,0-3.3,0-4.9c-0.9,0-1.7,0-2.6,0c-6.2,0.1-12.3,0.2-18.5,0.2
			c0,3.1,0,6.2-0.1,9.2c2,2.2,4,4.5,6,6.7c-0.1,6.1-0.2,12.2-0.3,18.4c-0.1,5.4-0.2,10.7-0.4,16.1c13.1-0.7,26.2-1.4,39.3-2.3
			c0.2-7,0.4-13.9,0.6-20.9c0,0,0,0,0,0c-3.8-4.1-7.7-8.2-11.6-12.4C392.8,199.3,391.7,199.4,390.6,199.4z"/>
	</g>
	<g>
		<path fill="#33393D" d="M260.3,35.9c-0.1-11.9-0.1-23.9-0.2-35.8c-16.9-0.2-33.9,0-50.8,0.8c-0.3,11.9-0.6,23.7-0.8,35.6
			C225.8,35.9,243,35.7,260.3,35.9z"/>
	</g>
	<g>
		<path fill="#BDBDBD" d="M421.8,187.5c-8.1,0.2-16.2,0.3-24.3,0.5c0,1.6,0,3.2,0,4.8c3.1,3.4,6.2,6.7,9.4,10c1.1,0,2.1-0.1,3.2-0.1
			c3.9,4.1,7.7,8.1,11.5,12.1c3.6-3.9,7.1-7.7,10.7-11.5c2.4-2.5,4.7-5,7.1-7.5c0-1.5,0-3,0.1-4.6c-1.3-1.3-2.6-2.7-3.9-4
			C430.9,187.3,426.4,187.4,421.8,187.5z"/>
	</g>
	<g>
		<path fill="#BDBDBD" d="M491.1,45.5c-1.7-1.8-3.5-3.7-5.2-5.6c-0.1-1.2-0.3-2.3-0.4-3.5c-1.8-2-3.6-3.9-5.5-5.9
			c-2.8-0.7-5.7-1.3-8.5-1.9c0.3,2.6,0.7,5.2,1,7.9c0.3,2.6,0.6,5.2,0.9,7.9c0,0,0,0,0,0c0.6,5.7,1.2,11.3,1.8,16.9
			c1.4,1.4,2.7,2.9,4.1,4.3c4.4-4,8.7-7.8,12.9-11.5C491.8,51.2,491.5,48.3,491.1,45.5z"/>
	</g>
	<g>
		<path fill="#33393D" d="M458,80.4c0.4,5,0.7,10,1,15c0.1,0,0.1,0,0.2,0c2.7-1.9,5.5-3.8,8.2-5.6c2.9,0.3,5.7,0.7,8.6,1
			c-0.2-2.7-0.4-5.4-0.6-8.2C469.5,81.9,463.7,81.1,458,80.4z"/>
	</g>
	<g>
		<path fill="#A6273C" d="M470,43.5c-1.7,1.3-3.4,2.7-5.1,4c0,0-0.1,0-0.1,0c0.2,2.4,0.5,4.9,0.7,7.3c-1,0.9-1.9,1.8-2.9,2.7
			c0.4,4.7,0.9,9.5,1.2,14.2c4.4,0.6,8.9,1.3,13.3,2c-0.2-1.8-0.3-3.6-0.5-5.3c-1.6-1.7-3.1-3.3-4.7-5
			C471.4,56.8,470.7,50.2,470,43.5z"/>
	</g>
	<g>
		<path fill="#BDBDBD" d="M450.9,69.2c0.3,3.4,0.5,6.9,0.8,10.3c7.1,0.9,14.1,1.8,21.1,2.7c1.7,0.2,3.4,0.5,5.1,0.7
			c1.5,1.6,3.1,3.2,4.6,4.8c0,0,0,0,0.1-0.1c1.2,0.2,2.3,0.3,3.5,0.5c1.5-1.4,3.1-2.8,4.6-4.2c-0.1-0.8-0.1-1.6-0.2-2.3
			c-0.9-0.1-1.8-0.3-2.7-0.4c-0.9,0.8-1.8,1.7-2.8,2.5c-1.7-1.8-3.5-3.7-5.3-5.5c-0.1-1.6-0.3-3.3-0.4-5c-5.4-0.8-10.8-1.7-16.2-2.4
			C459.1,70.3,455,69.8,450.9,69.2z"/>
	</g>
	<g>
		<path fill="#A6273C" d="M477.3,86.2c0.2,2,0.3,4,0.4,5.9c0.7,0.1,1.5,0.2,2.2,0.3c1.1-1,2.1-2,3.2-2.9c-0.9-1-1.8-1.9-2.8-2.9
			C479.3,86.4,478.3,86.3,477.3,86.2z"/>
	</g>
	<g>
		<path fill="#BDBDBD" d="M356.9,239.4c-0.1,3.5-0.2,7-0.3,10.5c1.8-0.1,3.6-0.2,5.4-0.3c3.1-0.2,6.1-0.4,9.2-0.6
			c2.5,2.7,4.9,5.4,7.3,8c2.5-0.2,5.1-0.4,7.6-0.6c2.1-2.3,4.1-4.7,6.2-7c3.2,3.5,6.4,6.9,9.6,10.3c-0.2,3.3-0.3,6.5-0.5,9.8
			c2.3,2.4,4.5,4.8,6.8,7.1c-0.2,2.8-0.3,5.5-0.5,8.3c2.5,2.6,4.9,5.1,7.3,7.6c1.7,1.7,3.3,3.4,5,5.1c2.8-0.4,5.7-0.9,8.5-1.3
			c0.4-4.4,0.7-8.8,1.1-13.1c0.4-5,0.7-10,1.1-14.9c-2.9-3-5.9-6-8.9-9.1c0.1-2.4,0.3-4.9,0.4-7.3c-2.6-2.7-5.2-5.4-7.8-8.1
			c0.1-2.7,0.2-5.3,0.3-8c-13.1,1-26.1,1.8-39.2,2.6C369.2,238.8,363.1,239.1,356.9,239.4z"/>
	</g>
	<g>
		<path fill="#33393D" d="M69.6,162.7c-5.7-5.5-11.3-10.8-16.9-16c0-2.3,0.1-4.7,0.1-7c-6.8-6.3-13.5-12.4-20.1-18.3
			c0.2-4.8,0.4-9.6,0.7-14.5c2.9-2.8,5.7-5.6,8.6-8.4c0.2-3.3,0.4-6.6,0.6-10c-9.7,1.1-19.4,2.2-29.1,3.5c-0.7,0.1-1.4,0.2-2.1,0.3
			c-3.4,4.3-6.7,8.6-10,12.9c-0.6,9.1-1,18.2-1.4,27.3c6,7,12.1,14.2,18.3,21.7c0,2.2-0.1,4.4-0.1,6.6c6.3,6.2,12.6,12.6,19,19.1
			c0,3.8,0.1,7.7,0.1,11.5c7.4,0.2,14.7,0.5,22.1,0.7c0.7,0.7,1.3,1.4,2,2.1c2.7-2.5,5.4-5.1,8.1-7.7
			C69.5,178.5,69.5,170.6,69.6,162.7z"/>
	</g>
	<g>
		<path fill="#BDBDBD" d="M46.8,89.2C57.9,88,69,86.8,80.1,85.8c0.7-13.2,1.6-26.4,2.6-39.6c-20.2,2.8-40.4,6-60.6,9.6
			c-1.1,10.8-2.1,21.6-2.8,32.4c-1.2,1.5-2.4,3.1-3.5,4.6c0.7-0.1,1.4-0.2,2.1-0.3C27.4,91.3,37.1,90.2,46.8,89.2z"/>
	</g>
	<g>
		<path fill="#A6273C" d="M78.2,9.1c-11.4,2.1-22.7,4.5-34.2,7c-6.1,1.4-12.2,2.8-18.3,4.2c-0.5,3.4-0.9,6.7-1.3,10.1
			c-2.8,3.1-5.6,6.1-8.4,9.1c-0.5,4.2-1,8.4-1.5,12.6c20.2-3.9,40.4-7.4,60.6-10.4C76,30.8,77,19.9,78.2,9.1z"/>
	</g>
	<g>
		<path fill="#33393D" d="M86,78.5c4-0.4,8.1-0.8,12.1-1.1c9.4-0.8,18.7-1.6,28.1-2.3c0.5-10.8,1-21.6,1.6-32.3
			c-4.2,0.4-8.4,0.9-12.6,1.3c-2.4-2.6-4.7-5.1-7.1-7.7c0.4-5.6,0.8-11.1,1.3-16.7c-2.7-2.9-5.3-5.8-8-8.6c0.2-2.4,0.4-4.8,0.7-7.3
			c-3.5,0.6-7,1.2-10.4,1.8c-1.1,11-2.1,22-3,33.1C87.7,51.9,86.8,65.2,86,78.5z"/>
	</g>
	<g>
		<path fill="#BDBDBD" d="M141.5,52.8c19.9-1.6,39.8-2.8,59.8-3.5c0.1-3.1,0.1-6.2,0.2-9.4c0.3-11.9,0.6-23.7,0.9-35.6
			c-29.1,1.4-58.2,4.2-87.4,8.4c-0.2,2.5-0.4,4.9-0.6,7.4c2.7,2.9,5.4,5.9,8.1,8.9c-0.4,5.6-0.7,11.3-1.1,16.9
			c2.4,2.6,4.8,5.3,7.2,7.9c4.2-0.4,8.4-0.7,12.6-1.1"/>
	</g>
	<g>
		<path fill="#A6273C" d="M137.5,46.8c-0.5,10.9-1,21.7-1.4,32.6c-0.3,8.6-0.6,17.1-0.8,25.7c5.1-0.2,10.3-0.5,15.4-0.7
			c15.2-0.6,30.4-1.1,45.6-1.4c0.1-6.3,0.2-12.7,0.3-19c0.2-13.7,0.5-27.4,0.8-41.1c-19.9,0.8-39.7,2.1-59.6,3.8"/>
	</g>
	<g>
		<path fill="#A6273C" d="M362.2,243.7c0.2-5.4,0.3-10.7,0.4-16.1c0.1-6.1,0.3-12.3,0.4-18.4c-2-2.2-4-4.4-6-6.7
			c0-3.1,0.1-6.2,0.1-9.3c-7.7,0.1-15.3,0.2-23,0.4c-0.1,20.7-0.5,41.5-1,62.2c3.4-0.2,6.9-0.3,10.3-0.5c0.1-3.5,0.2-7.1,0.3-10.6
			C349.9,244.4,356,244.1,362.2,243.7z"/>
	</g>
	<g>
		<path fill="#BDBDBD" d="M315.5,201.6c-1.2,1.3-2.3,2.7-3.5,4c-3.2,3.6-6.3,7.3-9.5,10.9c0,3.4-0.1,6.7-0.1,10.1
			c0,3.5-0.1,7.1-0.1,10.6c0,3.3-0.1,6.6-0.1,9.9c-1.1,1.3-2.3,2.7-3.4,4c0,3-0.1,5.9-0.1,8.9c6.1-0.2,12.1-0.4,18.2-0.6
			c-0.1,3.4-0.1,6.9-0.2,10.3c2.2-1.9,4.4-3.9,6.5-5.8c1.9-0.1,3.8-0.2,5.7-0.3c0.5-20.7,0.9-41.5,1.1-62.3
			C325.2,201.4,320.3,201.5,315.5,201.6z"/>
	</g>
	<g>
		<path fill="#BDBDBD" d="M86.8,167.6c-3.3,0-6.6,0-9.9,0c-2.1,2.2-4.1,4.4-6.2,6.6c0,7.9,0.1,15.8,0.2,23.7
			c-2.7,2.6-5.4,5.1-8.1,7.6c4.5,4.8,9.1,9.7,13.6,14.7c9,0.5,18,1,27,1.5c3.3,3.7,6.7,7.4,10,11.2c6,0.3,12.1,0.7,18.1,0.9
			c-0.6-22.1-0.8-44.1-0.8-66.2C116,167.6,101.4,167.6,86.8,167.6z"/>
	</g>
	<g>
		<path fill="#BDBDBD" d="M267.6,255.4c0-4.6,0-9.2,0.1-13.8c-2.8-3.2-5.6-6.5-8.3-9.7c0,0.1,0,0.2,0,0.3c0-0.1,0-0.2,0-0.3
			c-10.8,0-21.6,0-32.3-0.1c-3.5-4.1-7-8.2-10.5-12.2c-0.1-10.6-0.1-26-0.1-26.1c-9.7,0-19.4-0.1-29.1-0.2
			c0.1,18.5,0.3,31.3,0.6,49.8c-10.9-0.3-21.8-0.7-32.7-1.2c4.4,5.1,8.8,10.2,13.2,15.3c0.1,5.4,0.3,10.7,0.5,16.1
			c3.7,4.3,7.4,8.7,11.1,13c2.2,0.1,4.4,0.2,6.5,0.3c2.3-2.6,4.6-5.3,6.9-8c2.7,0.1,5.4,0.2,8.1,0.3c3.1,3.6,6.1,7.2,9.2,10.9
			c0.1,3.7,0.1,4.5,0.2,8.1c3.4,4.1,6.8,8.1,10.2,12.2c0.1,3.5,0.1,4.8,0.2,8.2c4.1,4.9,8.1,6.9,12.2,11.8c2.1,0,4.3,0.1,6.4,0.1
			c-0.1-10.8-0.1-16.5-0.2-27.3c5.7-6.7,11.4-10.7,17.1-17.5c5.9,0,11.8-0.1,17.7-0.2c0.1-7.2,0.1-14.5,0.2-21.7
			C272.2,260.8,269.9,258.1,267.6,255.4z"/>
	</g>
	<g>
		<path fill="#A6273C" d="M181.4,179.9c0-2.3,0-4.7,0-7c-14.7,0-29.5-0.1-44.2-0.1c0,22.2,0.3,44.4,0.9,66.5
			c2.4,0.1,4.8,0.2,7.1,0.3c0-1.8-0.1-3.7-0.1-5.5c0.9,0,1.8,0.1,2.7,0.1c0.4,0,0.9,0,1.3,0.1c10.9,0.4,21.8,0.8,32.8,1.1
			C181.6,216.9,181.5,198.4,181.4,179.9z"/>
	</g>
	<g>
		<path fill="#BDBDBD" d="M310.7,104c-0.1-4.2-0.1-8.5-0.2-12.7c0,0,0,0-0.1,0c-3.5-4.1-7-8.2-10.6-12.3c-12-0.4-24-0.6-35.9-0.7
			c0,7.2,0.1,14.5,0.1,21.7c1.2,1.4,2.4,2.9,3.7,4.3c0,4.3,0,8.7,0,13c12.9,0.1,25.7,0.2,38.6,0.5c0-2.9-0.1-5.8-0.1-8.6
			C307.7,107.4,309.2,105.7,310.7,104z"/>
	</g>
	<g>
		<path fill="#A6273C" d="M334.9,165.4c4.8-4,9.6-8,14.4-11.9c3,0,6,0.1,9.1,0.1c4.6-5.2,9.2-10.3,13.8-15.3
			c5.2,0.1,10.3,0.3,15.5,0.4c4.2,4.6,8.3,9.2,12.5,13.7c-4,4.3-8,8.7-12.1,13.2C370.4,165.4,352.7,165.4,334.9,165.4z"/>
	</g>
	<g>
		<path fill="#BDBDBD" d="M400.2,145.4c2.6,2.8,5.2,5.6,7.7,8.4c2.2,0,4.4,0.1,6.7,0.1c5.2-5.6,10.4-11.1,15.6-16.4
			c1,0,2.1,0.1,3.1,0.1c0-1.9-0.1-3.9-0.1-5.8c2.5-2.5,4.9-5.1,7.4-7.6c-4.8-0.3-9.7-0.5-14.5-0.8c-0.1-1.8-0.1-3.6-0.2-5.4
			c-4-0.2-8-0.5-12-0.7c0.1,3.8,0.2,7.7,0.3,11.5c-1.7,1.8-3.4,3.6-5.1,5.5c-1.9-0.1-3.8-0.1-5.6-0.2c0.1,2.6,0.1,5.1,0.1,7.7
			C402.4,143,401.3,144.2,400.2,145.4z"/>
	</g>
	<g>
		<path fill="#33393D" d="M458.1,89.4c-2.5-0.3-5.1-0.6-7.6-0.9c0.2,2.9,0.4,5.9,0.5,8.8c1.1,1.2,2.2,2.3,3.3,3.5
			c-2.3,2.3-4.7,4.7-7.1,7c1,1.1,2,2.1,3,3.2c1.9,0.1,3.8,0.3,5.7,0.5c0.9-0.9,1.9-1.9,2.8-2.8c-0.2-4.4-0.5-8.8-0.7-13.2
			c-0.1-2-0.2-3.9-0.4-5.8c0.2-0.1,0.4-0.2,0.5-0.4C458.3,89.4,458.2,89.4,458.1,89.4z"/>
	</g>
	<g>
		<path fill="#BDBDBD" d="M463.2,129.4c-0.1-1.9-0.2-3.8-0.2-5.7c-1.3-1.3-2.6-2.7-3.8-4c0,0,0,0,0,0c-0.5-0.5-1-1.1-1.6-1.6
			c0.2,3.7,0.3,7.3,0.4,11C459.7,129.2,461.4,129.3,463.2,129.4z"/>
	</g>
</g>
<g>
</g>
<g>
</g>
<g>
</g>
<g>
</g>
<g>
</g>
<g>
</g>
<g>
</g>
<g>
</g>
<g>
</g>
<g>
</g>
<g>
</g>
<g>
</g>
<g>
</g>
<g>
</g>
<g>
</g>
</svg>
