<?xml version="1.0" encoding="utf-8"?>
<!-- Generator: Adobe Illustrator 16.0.0, SVG Export Plug-In . SVG Version: 6.00 Build 0)  -->
<!DOCTYPE svg PUBLIC "-//W3C//DTD SVG 1.1//EN" "http://www.w3.org/Graphics/SVG/1.1/DTD/svg11.dtd">
<svg version="1.1" id="Layer_1" xmlns="http://www.w3.org/2000/svg" xmlns:xlink="http://www.w3.org/1999/xlink" x="0px" y="0px"
	 width="255px" height="293.1px" viewBox="0 0 255 293.1" enable-background="new 0 0 255 293.1" xml:space="preserve">
<g>
	<g>
		<path opacity="0.2" fill="#78909C" enable-background="new    " d="M172.5,258.4c-16.6,0-106.8-0.3-99.6,17.1
			c2.8,6.7,28.5,11.9,38.2,12.5l20.5,5.2l20.5-5.2c29.3-1.9,80.9-7.6,80.9-14.5C233,265.1,211.8,258.4,172.5,258.4z"/>
		<g>
			<path fill="#34AEFF" d="M127.5,0C57.1,0,0,57.1,0,127.5c0,57.6,38.3,106.3,90.7,122.1l36.8,43.5l36.8-43.5
				c52.5-15.8,90.8-64.4,90.8-122.1C255,57.1,197.9,0,127.5,0z"/>
		</g>
	</g>
	<g>
		<path fill="#2E3D5A" d="M193.2,120.1l-39.4-0.4l0.2-19.5l25.2,0.2L193.2,120.1L193.2,120.1z M170.4,144.8c-1.9,1.8-3,4.4-3,7.2
			s1.1,5.4,2.9,7.2c1.8,1.9,4.4,3,7.2,3s5.4-1.1,7.2-2.9c1.9-1.8,3-4.4,3-7.2s-1.1-5.4-2.9-7.2c-1.8-1.9-4.4-3-7.2-3
			C174.8,141.8,172.3,143,170.4,144.8L170.4,144.8z M204.8,157l5.7,0.1l0.2-19.3l-5.7-0.1l0.2-19.3l-20.4-28.6l-41.3-0.4l-0.6,67
			l14.4,0.1c0.9,3.8,2.8,7.3,5.5,10c3.7,3.8,8.9,6.2,14.7,6.2c5.8,0.1,11-2.2,14.8-6c2.7-2.7,4.7-6.1,5.6-9.9h2.7L204.8,157z"/>
		<path fill="#2E3D5A" d="M75.2,143.9c-1.9,1.8-3,4.4-3,7.2s1.1,5.4,2.9,7.2c1.8,1.9,4.4,3,7.2,3c2.8,0,5.4-1.1,7.2-2.9
			c1.9-1.8,3-4.4,3-7.2c0-2.8-1.1-5.4-2.9-7.2c-1.8-1.9-4.4-3-7.2-3C79.6,141,77.1,142.1,75.2,143.9L75.2,143.9z M136.8,156.4
			l-34.3-0.3c-0.9,3.8-2.9,7.2-5.6,9.9c-3.8,3.7-9,6-14.8,6c-5.7-0.1-10.9-2.4-14.7-6.2c-2.7-2.7-4.6-6.2-5.5-10l-6.6-0.1v-0.1
			l-5.4-0.1l0.2-16.8h5.4L56,82.6l81.4,0.7L136.8,156.4z"/>
	</g>
</g>
</svg>
