<?xml version="1.0" encoding="utf-8"?>
<!-- Generator: Adobe Illustrator 16.0.0, SVG Export Plug-In . SVG Version: 6.00 Build 0)  -->
<!DOCTYPE svg PUBLIC "-//W3C//DTD SVG 1.1//EN" "http://www.w3.org/Graphics/SVG/1.1/DTD/svg11.dtd">
<svg version="1.1" id="Layer_1" xmlns="http://www.w3.org/2000/svg" xmlns:xlink="http://www.w3.org/1999/xlink" x="0px" y="0px"
	 width="426.3px" height="330.9px" viewBox="0 0 426.3 330.9" enable-background="new 0 0 426.3 330.9" xml:space="preserve">
<g opacity="0.9">
	<g>
		<path fill="#00BCD4" d="M126.6,70.9c19.6,0,35.5-15.9,35.5-35.4c0-19.6-15.9-35.4-35.5-35.4c-19.6,0-35.4,15.8-35.4,35.4
			C91.2,55,107,70.9,126.6,70.9z"/>
		<path fill="#00BCD4" d="M217.8,39.4c-19.6,0-35.4,15.9-35.4,35.4c0,12.1,6.1,22.8,15.3,29.2c-18.8,20.4-46.9,58.9-64,128.9v-78.6
			h-13.7v79c-17.1-70.5-45.4-109.1-64.2-129.5c9.1-6.4,15-17,15-29c0-19.5-15.9-35.4-35.4-35.4C15.8,39.4,0,55.3,0,74.8
			c0,19.6,15.8,35.4,35.4,35.4c2.4,0,4.7-0.2,6.9-0.7c24.1,25,69.8,84.6,77.6,220.1c0,0.1,0,0.3,0,0.5l0.1,0c0,0.3,0,0.5,0,0.8
			l8.9-0.3l4.7,0.3c0-0.1,0-0.3,0-0.4l0.1,0v-0.9c7.8-135.3,53.4-194.9,77.5-220c2.1,0.4,4.3,0.6,6.6,0.6
			c19.5,0,35.4-15.9,35.4-35.4C253.3,55.3,237.4,39.4,217.8,39.4z"/>
		<path fill="#00BCD4" d="M126.6,81.9c-15.9,0-28.8,12.9-28.8,28.8c0,15.9,12.9,28.8,28.8,28.8c15.9,0,28.8-12.9,28.8-28.8
			C155.4,94.8,142.5,81.9,126.6,81.9z"/>
	</g>
</g>
<g opacity="0.3">
	<path fill="#BDBDBD" d="M246.2,266.8c27.6,0.2,57.7-3.5,67.3-8.1c9.6-4.7-6.2-8.6-35.2-8.8c-29-0.2-59.1,3.4-67.2,8.1
		C203,262.7,218.7,266.6,246.2,266.8z"/>
	<path fill="#BDBDBD" d="M391.9,260.1c-28.2-0.2-59.2,3.4-69.1,8.1c-6.2,2.9-3.2,5.4,6.2,7c-36.2,4.7-92.5,13.7-147.2,30.3
		l36.2-18.8l-18.2-0.1l-35.3,18.9c8.9-16.9-12.8-26.4-30.5-31.4c15-1.5,27.4-4,32.1-6.9c7.7-4.7-8.8-8.7-37-8.9
		c-28.2-0.2-56.2,3.5-62.5,8.3c-6.3,4.8,10.2,8.7,37,8.9c3.2,0,6.5,0,9.7-0.1c23.2,6.2,58.4,20.7,8,53.2c-0.1,0-0.2,0.1-0.2,0.1
		l0.1,0c-0.1,0.1-0.2,0.1-0.3,0.2l10.3-0.1l5.2,0.1c0.1,0,0.1-0.1,0.2-0.1l0.1,0l0.4-0.2c72.3-32.3,161.4-46.2,207.3-52
		c2.7,0.1,5.6,0.2,8.6,0.2c26.7,0.1,57.7-3.5,69.1-8.1C433.7,264.2,420,260.3,391.9,260.1z"/>
	<path fill="#BDBDBD" d="M241.2,269.4c-22.2-0.1-45.6,2.9-52.4,6.7c-6.7,3.8,5,7,26.3,7.1c21.3,0.1,44.8-2.9,52.4-6.7
		C275.2,272.7,263.4,269.5,241.2,269.4z"/>
</g>
<g>
</g>
<g>
</g>
<g>
</g>
<g>
</g>
<g>
</g>
<g>
</g>
<g>
</g>
<g>
</g>
<g>
</g>
<g>
</g>
<g>
</g>
<g>
</g>
<g>
</g>
<g>
</g>
<g>
</g>
</svg>
