<?xml version="1.0" encoding="utf-8"?>
<!-- Generator: Adobe Illustrator 19.0.0, SVG Export Plug-In . SVG Version: 6.00 Build 0)  -->
<svg version="1.1" id="Layer_1" xmlns="http://www.w3.org/2000/svg" xmlns:xlink="http://www.w3.org/1999/xlink" x="0px" y="0px"
	 width="241px" height="240px" viewBox="0 0 241 240" enable-background="new 0 0 241 240" xml:space="preserve">
<g id="XMLID_1_">
	<defs>
		<path id="XMLID_2_" d="M0,102h241v58H79.8L0,240V102z M0,0v60h241V0H0z"/>
	</defs>
	<clipPath id="XMLID_78_">
		<use xlink:href="#XMLID_2_"  overflow="visible"/>
	</clipPath>
	<g id="XMLID_94_" clip-path="url(#XMLID_78_)">
		
			<line id="XMLID_152_" fill="none" stroke="#FF5722" stroke-width="3.1425" stroke-miterlimit="10" x1="-48.1" y1="86.1" x2="32.4" y2="5.7"/>
		<path id="XMLID_151_" fill="none" stroke="#FF5722" stroke-width="3.0623" stroke-miterlimit="10" d="M213.8,23.3
			c-2.1,0-3.8-1.7-3.8-3.8c0-2.1,1.7-3.8,3.8-3.8c2.1,0,3.8,1.7,3.8,3.8C217.6,21.6,215.9,23.3,213.8,23.3z"/>
		<path id="XMLID_76_" fill="none" stroke="#FF5722" stroke-width="3.0623" stroke-miterlimit="10" d="M234.9,127.6
			c-2.1,0-3.8-1.7-3.8-3.8c0-2.1,1.7-3.8,3.8-3.8c2.1,0,3.8,1.7,3.8,3.8C238.7,125.9,237,127.6,234.9,127.6z"/>
		<path id="XMLID_150_" fill="#FF5722" stroke="#FF5722" stroke-width="3.5726" stroke-miterlimit="10" d="M4.1,229.9
			c-1.1,0-2-0.9-2-2c0-1.1,0.9-2,2-2c1.1,0,2,0.9,2,2C6,229,5.1,229.9,4.1,229.9z"/>
		<path id="XMLID_147_" fill="none" stroke="#FF5722" stroke-width="3.0623" stroke-miterlimit="10" d="M195.5,39.2
			c-4.1,0-7.4-3.3-7.4-7.3c0-4.1,3.3-7.3,7.3-7.4c4.1,0,7.3,3.3,7.4,7.3C202.9,35.9,199.6,39.2,195.5,39.2z"/>
		
			<rect id="XMLID_145_" x="28.6" y="1.2" fill="#FF5722" stroke="#FF5722" stroke-width="3.5726" stroke-miterlimit="10" width="8.2" height="8.2"/>
		
			<line id="XMLID_90_" fill="none" stroke="#FF5722" stroke-width="3.5726" stroke-miterlimit="10" x1="154.5" y1="222.5" x2="235" y2="142"/>
		
			<rect id="XMLID_89_" x="231.3" y="137.5" fill="#FF5722" stroke="#FF5722" stroke-width="3.5726" stroke-miterlimit="10" width="8.2" height="8.2"/>
		<path id="XMLID_140_" fill="#FF5722" d="M81.6,0.5c-4,0-7.3,2.5-8.7,5.9c1.4,3.5,4.7,5.9,8.7,5.9c4,0,7.3-2.5,8.7-5.9
			C89,2.9,85.6,0.5,81.6,0.5z M81.6,10.3c-2.2,0-4-1.8-4-4c0-2.2,1.8-4,4-4c2.2,0,4,1.8,4,4C85.6,8.6,83.8,10.3,81.6,10.3z M81.6,4
			c-1.3,0-2.4,1.1-2.4,2.4c0,1.3,1.1,2.4,2.4,2.4C83,8.8,84,7.7,84,6.4C84,5.1,83,4,81.6,4z"/>
		
			<line id="XMLID_130_" fill="none" stroke="#FF5722" stroke-width="3.1425" stroke-miterlimit="10" x1="270.7" y1="-111.2" x2="110.7" y2="48.8"/>
		<path id="XMLID_126_" fill="#FF5722" d="M101.7,51.2l-1.7,1.7c-0.6,0.6-0.6,1.6,0,2.2l4.5,4.5c0.6,0.6,1.6,0.6,2.2,0l1.7-1.7
			l0.6,0.6l3.4-3.3l1.7-5l1.7-1.7l-4.5-4.5l-1.7,1.7l-5,1.7l-3.4,3.3L101.7,51.2z M105.6,58.4l-4.5-4.5l1.7-1.7l1.1,1.1l-1.1,1.1
			l0.6,0.6l1.1-1.1l1.1,1.1l-1.1,1.1l0.6,0.6l1.1-1.1l1.1,1.1L105.6,58.4z"/>
		
			<line id="XMLID_124_" fill="none" stroke="#FF5722" stroke-width="3.1425" stroke-miterlimit="10" x1="172.5" y1="91.2" x2="236.2" y2="27.4"/>
		<path id="XMLID_121_" fill="#FF5722" d="M230.2,56.9h6.9l2.8,2.8V50c0-0.4-0.3-0.7-0.7-0.7h-9c-0.4,0-0.7,0.3-0.7,0.7v6.2
			C229.5,56.5,229.8,56.9,230.2,56.9z"/>
		<path id="XMLID_113_" fill="#FF5722" d="M204.4,8.5V2.3c0-0.4-0.3-0.7-0.7-0.7h-9c-0.4,0-0.7,0.3-0.7,0.7V12l2.8-2.8h6.9
			C204.1,9.2,204.4,8.9,204.4,8.5z"/>
		<path id="XMLID_3_" fill="#FF5722" d="M11.2,108.9v-6.2c0-0.4-0.3-0.7-0.7-0.7h-9c-0.4,0-0.7,0.3-0.7,0.7v9.7l2.8-2.8h6.9
			C10.9,109.6,11.2,109.3,11.2,108.9z"/>
		<path id="XMLID_105_" fill="none" stroke="#FF5722" stroke-width="3.1425" stroke-miterlimit="10" d="M-4.7,67.6l38.8-38.8
			c4.1-4.1,10.6-4.1,14.7,0l0,0c4.1,4.1,4.1,10.6,0,14.7L35.7,56.6"/>
		<path id="XMLID_104_" fill="none" stroke="#FF5722" stroke-width="3.1425" stroke-miterlimit="10" d="M99.1,22.6L51.6,70.1
			c-4.1,4.1-10.6,4.1-14.7,0l0,0c-4.1-4.1-4.1-10.6,0-14.7l1.6-1.6"/>
		<path id="XMLID_100_" fill="#FF5722" d="M100.6,21.2c-1-1-2.5-1-3.5,0c-1,1-1,2.5,0,3.5c1,1,2.5,1,3.5,0
			C101.6,23.7,101.6,22.1,100.6,21.2z"/>
		<path id="XMLID_99_" fill="#FF5722" d="M104.1,17.7c-2.9-2.9-7.5-2.9-10.4,0c-1.3,1.3-2,3-2.1,4.7H94c0.1-1.1,0.6-2.1,1.4-2.9
			c1.9-1.9,5-1.9,6.9,0c1.9,1.9,1.9,5,0,6.9c-1,1-2.2,1.4-3.5,1.4v2.5c1.9,0,3.8-0.7,5.2-2.1C106.9,25.2,106.9,20.6,104.1,17.7z"/>
		<path id="XMLID_98_" fill="#FF5722" d="M107.5,14.2c-4.8-4.8-12.5-4.8-17.3,0c-2.3,2.3-3.4,5.2-3.6,8.1h2.4
			c0.1-2.3,1.1-4.6,2.8-6.4c3.8-3.8,10-3.8,13.9,0c3.8,3.8,3.8,10,0,13.9c-1.9,1.9-4.4,2.9-6.9,2.9v2.5c3.1,0,6.3-1.2,8.7-3.6
			C112.3,26.8,112.3,19,107.5,14.2z"/>
		<path id="XMLID_93_" fill="none" stroke="#FF5722" stroke-width="3.1425" stroke-miterlimit="10" d="M225.5,25.5
			c3.4,3.4,9.1,3.1,12.9-0.6"/>
		<path id="XMLID_92_" fill="none" stroke="#FF5722" stroke-width="3.1425" stroke-miterlimit="10" d="M237.8,37.7
			c-3.4-3.4-3.1-9.1,0.6-12.9"/>
		
			<line id="XMLID_88_" fill="none" stroke="#FF5722" stroke-width="3.1648" stroke-miterlimit="10" x1="164.1" y1="63.5" x2="190.6" y2="36.9"/>
		
			<line id="XMLID_133_" fill="none" stroke="#FF5722" stroke-width="3.1648" stroke-miterlimit="10" x1="56.4" y1="142.6" x2="76.9" y2="121.1"/>
		
			<line id="XMLID_132_" fill="none" stroke="#FF5722" stroke-width="3.1648" stroke-miterlimit="10" x1="138.9" y1="74.3" x2="165.4" y2="47.7"/>
		<path id="XMLID_87_" fill="none" stroke="#FF5722" stroke-width="3.1648" stroke-miterlimit="10" d="M171.9,45.1
			c0,1.9-1.5,3.4-3.4,3.4c-1.9,0-3.4-1.5-3.4-3.4c0-1.9,1.5-3.4,3.4-3.4C170.4,41.7,171.9,43.2,171.9,45.1z"/>
		
			<line id="XMLID_84_" fill="none" stroke="#FF5722" stroke-width="3.1648" stroke-miterlimit="10" x1="58.9" y1="76.5" x2="6.6" y2="128.9"/>
		
			<rect id="XMLID_83_" x="2.1" y="125.1" fill="#FFFFFF" stroke="#FF5722" stroke-width="3.1648" stroke-miterlimit="10" width="8.3" height="8.3"/>
		
			<rect id="XMLID_67_" x="183.5" y="148.1" fill="#FFFFFF" stroke="#FF5722" stroke-width="3.1648" stroke-miterlimit="10" width="8.3" height="8.3"/>
		
			<rect id="XMLID_102_" x="83.8" y="50.3" fill="#FFFFFF" stroke="#FF5722" stroke-width="3.1648" stroke-miterlimit="10" width="8.3" height="8.3"/>
		
			<rect id="XMLID_117_" x="186" y="50.3" fill="#FFFFFF" stroke="#FF5722" stroke-width="3.1648" stroke-miterlimit="10" width="8.3" height="8.3"/>
		
			<rect id="XMLID_86_" x="133.7" y="104.8" fill="#FFFFFF" stroke="#FF5722" stroke-width="3.1648" stroke-miterlimit="10" width="8.3" height="8.3"/>
		<path id="XMLID_81_" fill="none" stroke="#FF5722" stroke-width="3.1648" stroke-miterlimit="10" d="M227.7,91.5l-75.8,75.8
			c-4.1,4.1-10.8,4.1-15,0l0,0c-4.1-4.1-4.1-10.8,0-15l13.4-13.4"/>
		<path id="XMLID_80_" fill="none" stroke="#FF5722" stroke-width="3.1648" stroke-miterlimit="10" d="M82,177.3l52.1-52.1
			c4.1-4.1,10.8-4.1,15,0l0,0c4.1,4.1,4.1,10.8,0,15l-1.7,1.7"/>
		
			<line id="XMLID_73_" fill="none" stroke="#FF5722" stroke-width="3.1648" stroke-miterlimit="10" x1="13" y1="167" x2="-19.8" y2="134.2"/>
		<path id="XMLID_72_" fill="none" stroke="#FF5722" stroke-width="3.1648" stroke-miterlimit="10" d="M-20.6,143.1
			c2.7-2.7,2.4-7.2-0.5-10.1"/>
		<path id="XMLID_70_" fill="none" stroke="#FF5722" stroke-width="3.1648" stroke-miterlimit="10" d="M-10.9,133.4
			c-2.7,2.7-7.2,2.4-10.1-0.5"/>
		<path id="XMLID_66_" fill="none" stroke="#FF5722" stroke-width="3.1648" stroke-miterlimit="10" d="M26.5,153.4L7.3,172.7
			c-3.3,3.3-3.3,8.6,0,11.9c3.3,3.3,8.6,3.3,11.9,0c3.3-3.3,3.3-8.6,0-11.9l-5.9-5.9"/>
		
			<line id="XMLID_64_" fill="none" stroke="#FF5722" stroke-width="3.1648" stroke-miterlimit="10" x1="14.4" y1="165.5" x2="68.2" y2="111.6"/>
		
			<line id="XMLID_59_" fill="none" stroke="#FF5722" stroke-width="3.1648" stroke-miterlimit="10" x1="126.9" y1="94.4" x2="5.2" y2="216.1"/>
		<path id="XMLID_57_" fill="none" stroke="#FF5722" stroke-width="3.1648" stroke-miterlimit="10" d="M16.1,218.1
			c-3.4-3.4-9.3-3.2-13.1,0.6"/>
		<path id="XMLID_56_" fill="none" stroke="#FF5722" stroke-width="3.1648" stroke-miterlimit="10" d="M3.6,205.7
			c3.4,3.4,3.2,9.3-0.6,13.1"/>
		
			<line id="XMLID_54_" fill="none" stroke="#FF5722" stroke-width="3.1648" stroke-miterlimit="10" x1="200" y1="-131.8" x2="57.3" y2="10.9"/>
		<circle id="XMLID_50_" fill="none" stroke="#FF5722" stroke-width="3.1648" stroke-miterlimit="10" cx="54.7" cy="13.7" r="4.8"/>
		<path id="XMLID_47_" fill="#FF5722" stroke="#FF5722" stroke-width="3.598" stroke-miterlimit="10" d="M6.4,2C8,2.3,9,3.8,8.8,5.4
			C8.5,7,7,8.1,5.4,7.8C3.8,7.6,2.7,6.1,3,4.5C3.2,2.9,4.8,1.8,6.4,2z"/>
		<path id="XMLID_46_" fill="#FF5722" stroke="#FF5722" stroke-width="2.2921" stroke-miterlimit="10" d="M56.3,138.1
			c3.2,0.5,5.4,3.6,4.8,6.8c-0.5,3.2-3.6,5.4-6.8,4.8c-3.2-0.5-5.4-3.6-4.8-6.8C50.1,139.7,53.1,137.6,56.3,138.1z"/>
		<path id="XMLID_44_" fill="#FF5722" stroke="#FF5722" stroke-width="3.598" stroke-miterlimit="10" d="M18.6,140
			c1.6,0.3,2.7,1.8,2.4,3.4c-0.3,1.6-1.8,2.7-3.4,2.4c-1.6-0.3-2.7-1.8-2.4-3.4C15.5,140.8,17,139.7,18.6,140z"/>
		<path id="XMLID_135_" fill="#FF5722" stroke="#FF5722" stroke-width="3.598" stroke-miterlimit="10" d="M140.5,131
			c1.6,0.3,2.7,1.8,2.4,3.4c-0.3,1.6-1.8,2.7-3.4,2.4c-1.6-0.3-2.7-1.8-2.4-3.4C137.3,131.8,138.9,130.7,140.5,131z"/>
		<path id="XMLID_42_" fill="none" stroke="#FF5722" stroke-width="2.2921" stroke-miterlimit="10" d="M38.2,158
			c2.1,0.4,3.6,2.4,3.2,4.5c-0.4,2.1-2.4,3.6-4.5,3.2c-2.1-0.4-3.6-2.4-3.2-4.5C34.1,159.1,36.1,157.6,38.2,158z"/>
		<path id="XMLID_36_" fill="#FF5722" d="M215,140.7l-5.4-5.4c-0.6-0.6-1.6-0.6-2.2,0l-0.5,0.5l-1.1-1.1c-1.5-1.5-3.9-1.5-5.4,0l0,0
			c-1.5,1.5-1.5,3.9,0,5.4l1.1,1.1l-0.5,0.5c-0.6,0.6-0.6,1.6,0,2.2l5.4,5.4c0.6,0.6,1.6,0.6,2.2,0l3.2-3.2l3.2-3.2
			C215.6,142.2,215.6,141.2,215,140.7z M202.5,140.2l-1.1-1.1c-0.9-0.9-0.9-2.4,0-3.3h0c0.9-0.9,2.4-0.9,3.3,0l1.1,1.1l-1.7,1.7
			L202.5,140.2z M209,143.3c-0.6,0.6-1.6,0.6-2.2,0c-0.6-0.6-0.6-1.6,0-2.2c0.6-0.6,1.6-0.6,2.2,0
			C209.6,141.8,209.6,142.8,209,143.3L209,143.3z"/>
		<path id="XMLID_103_" fill="#FF5722" d="M74.1,35l-5.4-5.4c-0.6-0.6-1.6-0.6-2.2,0L66,30.2L65,29.1c-1.5-1.5-3.9-1.5-5.4,0l0,0
			c-1.5,1.5-1.5,3.9,0,5.4l1.1,1.1l-0.5,0.5c-0.6,0.6-0.6,1.6,0,2.2l5.4,5.4c0.6,0.6,1.6,0.6,2.2,0l3.2-3.2l3.2-3.2
			C74.7,36.6,74.7,35.6,74.1,35z M61.7,34.5l-1.1-1.1c-0.9-0.9-0.9-2.4,0-3.3h0c0.9-0.9,2.4-0.9,3.3,0l1.1,1.1l-1.7,1.7L61.7,34.5z
			 M68.2,37.7c-0.6,0.6-1.6,0.6-2.2,0c-0.6-0.6-0.6-1.6,0-2.2c0.6-0.6,1.6-0.6,2.2,0C68.8,36.2,68.8,37.1,68.2,37.7L68.2,37.7z"/>
		
			<line id="XMLID_34_" fill="none" stroke="#FF5722" stroke-width="3.1648" stroke-miterlimit="10" x1="79.9" y1="174.1" x2="85.8" y2="180"/>
		<g id="XMLID_69_">
			<path id="XMLID_32_" fill="#FF5722" d="M142.6,47.9c0-0.6-0.3-1.1-0.7-1.3l-7-4.1l-7,4.1c-0.4,0.3-0.7,0.8-0.7,1.3v7.8
				c0,0.9,0.7,1.6,1.6,1.6H141c0.9,0,1.6-0.7,1.6-1.6L142.6,47.9z"/>
			<polygon id="XMLID_31_" fill="#FFFFFF" points="134.8,52.8 128.4,48.8 134.8,45 141.2,48.8 			"/>
		</g>
		
			<line id="XMLID_28_" fill="#FF5722" stroke="#FF5722" stroke-width="3.1648" stroke-miterlimit="10" x1="168.3" y1="15.7" x2="184" y2="0"/>
		<circle id="XMLID_27_" fill="#FF5722" cx="120.3" cy="120.1" r="2.2"/>
		<circle id="XMLID_25_" fill="#FF5722" cx="114.2" cy="126.2" r="2.2"/>
		<circle id="XMLID_24_" fill="#FF5722" cx="108.1" cy="132.7" r="2.2"/>
		<circle id="XMLID_23_" fill="#FF5722" cx="102" cy="138.5" r="2.2"/>
		<circle id="XMLID_21_" fill="none" stroke="#FF5722" stroke-width="2.6374" stroke-miterlimit="10" cx="166" cy="18" r="3.2"/>
		
			<circle id="XMLID_20_" fill="#FF5722" stroke="#FF5722" stroke-width="2.6374" stroke-miterlimit="10" cx="170.2" cy="28.6" r="1.7"/>
		
			<circle id="XMLID_97_" fill="#FF5722" stroke="#FF5722" stroke-width="2.6374" stroke-miterlimit="10" cx="39.5" cy="37.7" r="1.7"/>
		
			<circle id="XMLID_77_" fill="#FF5722" stroke="#FF5722" stroke-width="2.6374" stroke-miterlimit="10" cx="237.9" cy="157" r="1.7"/>
		
			<circle id="XMLID_136_" fill="#FF5722" stroke="#FF5722" stroke-width="2.6374" stroke-miterlimit="10" cx="20.1" cy="104.8" r="1.7"/>
		
			<circle id="XMLID_82_" fill="#FF5722" stroke="#FF5722" stroke-width="2.6374" stroke-miterlimit="10" cx="73.5" cy="21.3" r="1.7"/>
		
			<circle id="XMLID_118_" fill="#FF5722" stroke="#FF5722" stroke-width="2.6374" stroke-miterlimit="10" cx="212" cy="31.2" r="1.7"/>
		
			<circle id="XMLID_123_" fill="#FF5722" stroke="#FF5722" stroke-width="2.6374" stroke-miterlimit="10" cx="222" cy="54.2" r="1.7"/>
		
			<circle id="XMLID_125_" fill="#FF5722" stroke="#FF5722" stroke-width="2.6374" stroke-miterlimit="10" cx="237.9" cy="15.8" r="1.7"/>
		
			<circle id="XMLID_19_" fill="none" stroke="#FF5722" stroke-width="2.6374" stroke-miterlimit="10" cx="156.9" cy="33.4" r="6.2"/>
		<circle id="XMLID_85_" fill="none" stroke="#FF5722" stroke-width="2.6374" stroke-miterlimit="10" cx="123.5" cy="8.8" r="6.2"/>
		
			<circle id="XMLID_15_" fill="none" stroke="#FF5722" stroke-width="2.6374" stroke-miterlimit="10" cx="42.6" cy="107.9" r="3.2"/>
		
			<circle id="XMLID_131_" fill="none" stroke="#FF5722" stroke-width="2.6374" stroke-miterlimit="10" cx="94.6" cy="147.1" r="3.2"/>
		
			<circle id="XMLID_14_" fill="none" stroke="#FF5722" stroke-width="2.6374" stroke-miterlimit="10" cx="34.5" cy="121.4" r="6.2"/>
		
			<line id="XMLID_17_" fill="#FF5722" stroke="#FF5722" stroke-width="3.1648" stroke-miterlimit="10" x1="214.8" y1="126.8" x2="240.6" y2="101"/>
		<path id="XMLID_16_" fill="#FF5722" stroke="#FF5722" stroke-width="3.598" stroke-miterlimit="10" d="M215.8,129
			c-1,0.5-2.2,0.2-2.7-0.8c-0.5-1-0.2-2.2,0.8-2.7c1-0.5,2.2-0.2,2.7,0.8C217.1,127.3,216.8,128.5,215.8,129z"/>
		<g id="XMLID_4_">
			
				<line id="XMLID_22_" fill="none" stroke="#FF5722" stroke-width="2.7396" stroke-miterlimit="10" x1="163.7" y1="127.8" x2="177.3" y2="127.8"/>
			
				<line id="XMLID_18_" fill="none" stroke="#FF5722" stroke-width="2.7396" stroke-miterlimit="10" x1="170.5" y1="104" x2="170.5" y2="127.8"/>
			
				<line id="XMLID_13_" fill="none" stroke="#FF5722" stroke-width="2.7396" stroke-miterlimit="10" x1="159.5" y1="109.2" x2="181.5" y2="109.2"/>
			<path id="XMLID_8_" fill="#FF5722" d="M185.2,111.8l-3.6-3.6l-3.6,3.6c-1,1-1.5,2.3-1.5,3.6c0,1.4,0.5,2.7,1.5,3.6
				c1,1,2.3,1.5,3.6,1.5c1.4,0,2.7-0.5,3.6-1.5C187.2,117.1,187.2,113.8,185.2,111.8z M181.5,110.6l2.4,2.4c0.5,0.5,0.9,1.2,1,2
				h-6.8c0.1-0.7,0.4-1.4,1-2L181.5,110.6z"/>
			<path id="XMLID_5_" fill="#FF5722" d="M163.1,111.8l-3.6-3.6l-3.6,3.6c-1,1-1.5,2.3-1.5,3.6c0,1.4,0.5,2.7,1.5,3.6
				c1,1,2.3,1.5,3.6,1.5c1.4,0,2.7-0.5,3.6-1.5C165.1,117.1,165.1,113.8,163.1,111.8z M159.5,110.6l2.4,2.4c0.5,0.5,0.9,1.2,1,2
				h-6.8c0.1-0.7,0.4-1.4,1-2L159.5,110.6z"/>
		</g>
		<g id="XMLID_29_">
			
				<rect id="XMLID_49_" x="221.8" y="0.5" transform="matrix(-0.7069 -0.7073 0.7073 -0.7069 377.0163 166.4457)" fill="#FF5722" width="2.3" height="9.2"/>
			
				<rect id="XMLID_48_" x="227.3" y="-1.4" transform="matrix(-0.7069 -0.7073 0.7073 -0.7069 385.4914 172.1735)" fill="#FF5722" width="2.3" height="15.3"/>
			
				<rect id="XMLID_41_" x="217" y="1.1" transform="matrix(-0.7072 -0.707 0.707 -0.7072 369.9471 160.0955)" fill="#FF5722" width="2.3" height="4.6"/>
			
				<rect id="XMLID_30_" x="232.2" y="-1.9" transform="matrix(-0.7072 -0.707 0.707 -0.7072 392.8451 178.3241)" fill="#FF5722" width="2.3" height="19.3"/>
		</g>
		<g id="XMLID_55_">
			
				<rect id="XMLID_65_" x="78.1" y="102.4" transform="matrix(-0.7069 -0.7073 0.7073 -0.7069 59.5368 238.657)" fill="#FF5722" width="2.3" height="9.2"/>
			
				<rect id="XMLID_63_" x="83.5" y="100.5" transform="matrix(-0.7069 -0.7073 0.7073 -0.7069 68.0119 244.3849)" fill="#FF5722" width="2.3" height="15.3"/>
			
				<rect id="XMLID_62_" x="73.2" y="103" transform="matrix(-0.7072 -0.707 0.707 -0.7072 52.454 232.3867)" fill="#FF5722" width="2.3" height="4.6"/>
			
				<rect id="XMLID_58_" x="88.4" y="100" transform="matrix(-0.7072 -0.707 0.707 -0.7072 75.352 250.6153)" fill="#FF5722" width="2.3" height="19.3"/>
		</g>
	</g>
</g>
</svg>
