<?xml version="1.0" encoding="utf-8"?>
<!-- Generator: Adobe Illustrator 16.0.0, SVG Export Plug-In . SVG Version: 6.00 Build 0)  -->
<!DOCTYPE svg PUBLIC "-//W3C//DTD SVG 1.1//EN" "http://www.w3.org/Graphics/SVG/1.1/DTD/svg11.dtd">
<svg version="1.1" id="Layer_1" xmlns="http://www.w3.org/2000/svg" xmlns:xlink="http://www.w3.org/1999/xlink" x="0px" y="0px"
	 width="682.445px" height="527.805px" viewBox="0 0 682.445 527.805" enable-background="new 0 0 682.445 527.805"
	 xml:space="preserve">
<g>
	<defs>
		<rect id="SVGID_1_" width="682.445" height="527.805"/>
	</defs>
	<clipPath id="SVGID_2_">
		<use xlink:href="#SVGID_1_"  overflow="visible"/>
	</clipPath>
	<g clip-path="url(#SVGID_2_)">
		<rect x="-868.398" y="-193.214" fill="#F5F5F5" width="1737.414" height="896.83"/>
		<g>
			<g>
				<path fill="#53A6C1" d="M600.806,208.401c14.634,0.863,29.257,1.788,43.862,2.779c3.69-3.757,7.372-7.47,11.033-11.142
					c-1.688-1.795-3.382-3.597-5.07-5.403c-0.22-4.593-0.462-9.185-0.715-13.774c-1.947-2.093-3.891-4.193-5.839-6.298
					c-19.091-1.888-38.2-3.614-57.312-5.169c-1.88,2.002-3.769,4.012-5.656,6.033c0.46,10.641,0.866,21.285,1.202,31.928
					C588.483,207.693,594.645,208.043,600.806,208.401z"/>
			</g>
			<g>
				<path fill="#1A4E5B" d="M642.661,166.254c3.925,0.412,7.848,0.834,11.77,1.263c-0.491-7.863-1.028-15.729-1.61-23.593
					c-0.324-4.403-0.669-8.807-1.02-13.205c-1.049-13.108-2.231-26.218-3.535-39.333c-3.162-0.554-6.334-1.104-9.499-1.649
					c-2.304,2.29-4.615,4.598-6.943,6.928c-4.974,6.34-10.001,12.802-15.091,19.377c0.229,2.99,0.45,5.977,0.667,8.967
					c-3.036,3.115-6.087,6.264-9.154,9.443c-7.013-0.811-14.032-1.59-21.049-2.343c-2.108,2.234-4.222,4.482-6.348,6.747
					c0.249,4.422,0.493,8.847,0.72,13.272c-0.659,0.699-1.314,1.399-1.973,2.103c19.08,1.689,38.141,3.573,57.198,5.641
					C638.749,162.005,640.706,164.133,642.661,166.254z"/>
			</g>
			<g>
				<path fill="#E1CD8E" d="M542.233,250.117c7.987,0.178,15.975,0.365,23.946,0.562c2.438,2.685,4.87,5.358,7.3,8.024
					c1.72-1.875,3.445-3.744,5.165-5.604c-0.059-3.975-0.131-7.951-0.205-11.929c2.903,0.094,5.811,0.188,8.717,0.287
					c2.65-2.853,5.308-5.689,7.949-8.51c-0.147-5.969-0.307-11.938-0.492-17.909c-0.327-10.561-0.713-21.121-1.168-31.68
					c-4.065,4.307-8.146,8.658-12.25,13.053c-8.345-0.514-16.694-0.999-25.045-1.46c-0.061-2.017-0.129-4.033-0.2-6.052
					c-5.034-0.293-10.078-0.579-15.12-0.854C541.486,208.73,541.949,229.422,542.233,250.117z"/>
			</g>
			<g>
				<path fill="#53A6C1" d="M455.461,311.281c-0.006,4.151-0.02,8.306-0.038,12.456c7.456-0.065,14.907-0.136,22.354-0.216
					c11.882-0.123,23.752-0.265,35.613-0.42c9.547-0.13,19.089-0.271,28.629-0.415c0.03-4.311,0.058-8.618,0.07-12.929
					c2.921-3.249,5.835-6.485,8.746-9.708c3.985-0.016,7.969-0.03,11.948-0.049c0.002-3.03,0-6.06-0.005-9.094
					c-8.364-0.009-16.727-0.02-25.094-0.022c-27.365-0.028-54.778-0.047-82.213-0.062
					C455.481,297.643,455.477,304.459,455.461,311.281z"/>
			</g>
			<g>
				<path fill="#E1CD8E" d="M441.004,89.733c5.483,6.518,10.989,13.041,16.516,19.554c0.154,0.188,0.316,0.375,0.474,0.56
					c0-0.039,0-0.079-0.003-0.123c3.682-4.247,7.346-8.468,10.991-12.663c-0.073-1.926-0.142-3.849-0.214-5.774
					c2.931-3.374,5.844-6.729,8.746-10.062c6.92,0.521,13.838,1.082,20.762,1.685c-3.494-4.116-6.981-8.236-10.464-12.36
					c-3.445-0.296-6.896-0.582-10.341-0.857c-1.904,2.194-3.822,4.398-5.734,6.611c-6.35-0.468-12.703-0.902-19.046-1.298
					c-2.067-2.458-4.124-4.916-6.183-7.374c-0.125-3.704-0.256-7.406-0.389-11.106c-3.739,4.379-7.497,8.79-11.275,13.228
					c-2.946,3.454-5.904,6.925-8.866,10.412c2.566,3.068,5.146,6.138,7.726,9.208C436.135,89.491,438.565,89.609,441.004,89.733z"/>
			</g>
			<g>
				<path fill="#E1CD8E" d="M517.176,163.298c-0.082-2.452-0.168-4.906-0.258-7.358c2.642-2.949,5.281-5.881,7.905-8.798
					c-0.267-6.659-0.554-13.321-0.853-19.976c-2.47-2.852-4.931-5.705-7.396-8.564c-3.058,3.413-6.124,6.852-9.199,10.311
					c-0.178-4.358-0.358-8.718-0.549-13.076c1.617-1.823,3.232-3.644,4.853-5.451c-0.159-3.402-0.32-6.801-0.485-10.2
					c-2.39-2.787-4.771-5.576-7.15-8.369c-5.551-0.479-11.102-0.932-16.643-1.36c-4.842,5.523-9.717,11.102-14.63,16.733
					c0.331,9.124,0.628,18.25,0.908,27.38c3.279,3.831,6.562,7.657,9.849,11.47c0.156,5.162,0.305,10.323,0.444,15.485
					c6.044,0.289,12.089,0.595,18.13,0.919C507.121,162.715,512.152,163,517.176,163.298z"/>
			</g>
			<g>
				<path fill="#1A4E5B" d="M414.115,123.291c3.953,4.676,7.92,9.352,11.898,14.026c0.111,6.102,0.215,12.205,0.315,18.315
					c5.431,6.36,10.87,12.715,16.321,19.062c2.367,0.071,4.732,0.146,7.096,0.221c7.469,0.234,14.94,0.499,22.412,0.789
					c-0.189-8.314-0.392-16.625-0.614-24.938c-0.194-7.191-0.398-14.382-0.624-21.572c-0.158-0.186-0.319-0.372-0.477-0.561
					c-5.556-6.497-11.087-13.002-16.607-19.513c-2.443-0.126-4.889-0.255-7.338-0.375c-2.596-3.069-5.191-6.138-7.777-9.209
					c-0.031,0.035-0.061,0.069-0.091,0.104c-5.454-0.261-10.913-0.495-16.374-0.708c-2.785,3.264-5.59,6.543-8.4,9.831
					C413.945,113.606,414.033,118.448,414.115,123.291z"/>
			</g>
			<g>
				<path fill="#E1CD8E" d="M452.199,313.243c0.004-1.983,0.008-3.967,0.01-5.949c-22.811,0.091-45.637,0.153-68.467,0.184
					c-0.012,19.638-0.052,39.27-0.118,58.893c4.317,5.007,8.624,10,12.919,14.977c14.877-0.167,29.748-0.414,44.61-0.734
					c0.062-5.462,0.118-10.93,0.167-16.392c0.045-5.196,0.088-10.398,0.125-15.596c4.873-5.629,9.75-11.243,14.621-16.841
					c1.787-2.053,3.58-4.112,5.369-6.162c0.021-4.144,0.037-8.288,0.045-12.435C458.385,313.207,455.288,313.225,452.199,313.243z"
					/>
			</g>
			<g>
				<path fill="#53A6C1" d="M516.364,259.132c7.11-7.956,14.188-15.829,21.223-23.604c-0.363-20.74-0.903-41.476-1.63-62.199
					c-6.048-0.366-12.098-0.714-18.146-1.048c-3.697,4.118-7.406,8.265-11.135,12.446c-1.859-0.088-3.725-0.17-5.59-0.254
					c0.638,24.802,1.064,49.629,1.276,74.456C507.03,258.995,511.699,259.062,516.364,259.132z"/>
			</g>
			<g>
				<path fill="#E1CD8E" d="M494.307,191.517c-3.294-3.778-6.582-7.569-9.877-11.363c-0.047-1.94-0.093-3.88-0.143-5.818
					c-9.801-0.419-19.601-0.798-29.404-1.132c0.127,6.539,0.248,13.078,0.354,19.617c-2.297,2.632-4.599,5.268-6.906,7.911
					c0.064,4.439,0.125,8.878,0.177,13.319c0.052,0,0.114,0.006,0.175,0.004c0.086,6.945,0.159,13.893,0.225,20.841
					c3.091,3.56,6.181,7.113,9.27,10.661c1.558,0.022,3.116,0.043,4.675,0.064c0.042,4.628,0.073,9.255,0.103,13.883
					c4.387,5.023,8.773,10.029,13.15,15.013c0.017,3.37,0.025,6.741,0.035,10.11c7.441-6.15,14.861-12.255,22.266-18.297
					c0.003-0.034,0-0.071,0-0.11c-0.17-24.872-0.547-49.738-1.123-74.585C496.291,191.597,495.3,191.555,494.307,191.517z"/>
			</g>
			<g>
				<path fill="#E1CD8E" d="M506.42,280.195"/>
			</g>
			<g>
				<path fill="#E1CD8E" d="M569.699,266.583"/>
			</g>
			<g>
				<polyline fill="#E1CD8E" points="582.148,262.848 582.148,262.848 582.148,262.848 				"/>
			</g>
			<g>
				<path fill="#E1CD8E" d="M157.765,209.784c0.329-13.162,0.731-26.321,1.206-39.477c-14.531,0.899-29.049,1.902-43.564,2.999
					c-1.645,37.467-2.545,74.953-2.701,112.439c22.625-0.099,45.284-0.183,67.969-0.254c0.074-25.556,0.394-51.108,0.949-76.646
					C173.673,209.136,165.712,209.45,157.765,209.784z"/>
			</g>
			<g>
				<path fill="#1A4E5B" d="M101.75,158.417c-17.119,1.558-34.229,3.268-51.332,5.121c-0.327,5.227-0.633,10.45-0.92,15.678
					c-4.432,4.419-8.865,8.805-13.282,13.152c-0.396,7.592-0.739,15.184-1.044,22.775c10.262,9.303,20.627,18.92,31.096,28.813
					c-0.084,3.692-0.162,7.388-0.229,11.079c8.637,8.195,17.336,16.574,26.088,25.117c3.22-3.451,6.443-6.925,9.67-10.419
					c5.119-0.08,10.233-0.155,15.359-0.229c0.363-37.59,1.463-75.174,3.298-112.731C114.219,157.301,107.983,157.848,101.75,158.417
					z"/>
			</g>
			<g>
				<path fill="#1A4E5B" d="M354.163,158.081c18.538,0.045,37.077,0.275,55.61,0.684c-0.078-6.128-0.16-12.25-0.242-18.373
					c-3.963-4.659-7.908-9.318-11.847-13.976c-0.062-4.854-0.125-9.708-0.19-14.564c2.826-3.324,5.647-6.637,8.455-9.938
					c-0.37-0.011-0.74-0.022-1.113-0.035c-0.07-4.222-0.144-8.441-0.218-12.661c7.206-8.501,14.35-16.921,21.407-25.248
					c-6.912-0.227-13.821-0.405-20.741-0.544c-2.261-2.717-4.517-5.433-6.767-8.147c-4.973-0.166-9.945-0.305-14.914-0.423
					c-3.688-4.445-7.357-8.879-11.01-13.3c-6.209-0.11-12.416-0.178-18.629-0.208c0.044,18.419,0.075,36.875,0.109,55.358
					C354.109,117.131,354.136,137.595,354.163,158.081z"/>
			</g>
			<g>
				<path fill="#E1CD8E" d="M373.859,314.108c-22.178,0.033-44.354,0.024-66.531-0.023c0.013,16.389,0.057,32.774,0.118,49.152
					c5.408,6.292,10.808,12.581,16.198,18.865c16.699,0.092,33.396,0.086,50.088-0.017c0.062-19.633,0.104-39.281,0.117-58.927
					C373.854,320.143,373.856,317.125,373.859,314.108z"/>
			</g>
			<g>
				<path fill="#E1CD8E" d="M675.221,138.43c-0.611-7.344-1.266-14.688-1.963-22.034c1.502-1.431,2.996-2.849,4.49-4.256
					c-0.373-3.775-0.76-7.55-1.151-11.325c-6.819-1.268-13.642-2.502-20.451-3.699c1.289,13.03,2.457,26.054,3.499,39.076
					C664.837,136.919,670.029,137.668,675.221,138.43z"/>
			</g>
			<g>
				<path fill="#1A4E5B" d="M388.389,278.987c0,3.727,0.002,7.446,0.008,11.171c0,3.013,0,6.025,0,9.04
					c22.831-0.02,45.656-0.049,68.463-0.091c0,1.983-0.002,3.965-0.005,5.943c3.097-0.011,6.19-0.022,9.286-0.032
					c0.012-6.798,0.006-13.598-0.007-20.395c-0.007-3.382-0.017-6.762-0.03-10.14c-4.38-5.001-8.762-10.019-13.148-15.053
					c-0.025-4.642-0.059-9.279-0.097-13.919c-1.556-0.022-3.114-0.042-4.675-0.062c-3.084-3.551-6.18-7.11-9.264-10.678
					c-0.059-6.966-0.126-13.93-0.203-20.891c-19.922-0.377-39.848-0.631-59.778-0.761c3.099,3.608,6.2,7.219,9.303,10.829
					C388.316,242.289,388.369,260.636,388.389,278.987z"/>
			</g>
			<g>
				<path fill="#53A6C1" d="M272.878,227.656c0.062-8.04,0.134-16.077,0.216-24.11c-5.246,0.09-10.49,0.19-15.736,0.3
					c-23.531,0.487-47.057,1.17-70.559,2.036c-0.562,25.592-0.889,51.2-0.975,76.813c22.738-0.099,45.498-0.173,68.275-0.231
					c6.176-0.012,12.346-0.025,18.525-0.039C272.653,264.165,272.734,245.907,272.878,227.656z"/>
			</g>
			<g>
				<path fill="#1A4E5B" d="M375.551,307.206c0.008-18.375-0.004-36.748-0.033-55.114c-30.957-0.093-61.921-0.036-92.867,0.173
					c-0.082,18.291-0.107,36.584-0.092,54.876c-6.182-0.013-12.352-0.03-18.531-0.052c0.004,3.647,0.013,7.291,0.022,10.937
					c14.983,0.078,29.975,0.137,44.968,0.176c0,0.057,0,0.108,0,0.168c22.178,0.054,44.35,0.06,66.529,0.02
					C375.547,314.663,375.549,310.932,375.551,307.206z"/>
			</g>
			<g>
				<path fill="#53A6C1" d="M354.199,194.642c-0.01-11.216-0.023-22.425-0.036-33.632c-0.022-20.488-0.052-40.955-0.085-61.388
					c-30.4-0.109-60.799,0.498-91.209,1.812c-0.121,4.806-0.236,9.61-0.35,14.42c-0.492,21.154-0.896,42.339-1.219,63.539
					c26.299-0.67,52.615-1.035,78.92-1.085C344.874,183.742,349.523,189.188,354.199,194.642z"/>
			</g>
			<g>
				<path fill="#E1CD8E" d="M294.365,245.304c30.932-0.199,61.881-0.225,92.817-0.07c-3.104-3.603-6.208-7.209-9.31-10.816
					c-0.016-6.717-0.037-13.436-0.062-20.151c-1.9-2.211-3.793-4.426-5.691-6.636c-4.687-5.471-9.367-10.938-14.039-16.393
					c-26.368-0.078-52.733,0.118-79.096,0.591c-0.105,9.812-0.195,19.627-0.271,29.448c5.258-0.065,10.515-0.125,15.773-0.178
					C294.436,229.166,294.398,237.233,294.365,245.304z"/>
			</g>
			<g>
				<path fill="#1A4E5B" d="M408.321,424.389c0.051-4.59,0.099-9.182,0.144-13.773c1.75-2.052,3.503-4.1,5.264-6.149
					c0.055-5.108,0.098-10.217,0.146-15.326c-14.856,0.251-29.718,0.416-44.573,0.499c-0.019,7.123-0.041,14.246-0.068,21.365
					c3.627,4.229,7.245,8.449,10.854,12.66c-0.062,11.227-0.136,22.447-0.223,33.657c3.9-0.052,7.806-0.116,11.703-0.194
					c2.477,2.896,4.941,5.779,7.403,8.659c14.546-0.349,29.089-0.838,43.634-1.473c0.122-5.312,0.241-10.63,0.355-15.942
					c-2.397-2.764-4.799-5.534-7.207-8.312c0.145-0.133,0.297-0.266,0.447-0.397c0.097-5.336,0.188-10.668,0.279-16.002
					C427.092,423.95,417.707,424.193,408.321,424.389z"/>
			</g>
			<g>
				<path fill="#1A4E5B" d="M665.848,227.051c-0.199-5.696-0.427-11.395-0.671-17.094c-0.749-0.787-1.491-1.574-2.244-2.365
					c-0.004,0.011-0.015,0.018-0.023,0.026c-14.589-1.11-29.188-2.153-43.808-3.124c0.107,2.776,0.209,5.552,0.311,8.33
					c7.469,0.449,14.934,0.914,22.395,1.4c0.437,0.025,0.876,0.054,1.314,0.083c0.936,0.062,1.875,0.123,2.811,0.184
					c3.75,3.991,7.491,7.952,11.219,11.881c-0.086-2.541-0.18-5.085-0.273-7.629c1.427,1.511,2.856,3.014,4.279,4.512
					c0.094,2.537,0.177,5.076,0.26,7.615c1.941,2.032,3.88,4.057,5.811,6.068c0.044,1.517,0.088,3.032,0.132,4.551
					c2.44,2.198,4.876,4.391,7.307,6.567c-0.224-6.84-0.478-13.68-0.768-20.521C671.215,227.374,668.533,227.211,665.848,227.051z"
					/>
			</g>
			<g>
				<path fill="#E1CD8E" d="M655.234,224.2c-0.432-0.026-0.877-0.055-1.313-0.08c-3.768,3.813-7.546,7.671-11.345,11.569
					c0.085,3.034,0.16,6.069,0.236,9.104c-1.539-0.062-3.086-0.121-4.627-0.181c-7.982,8.254-16.045,16.689-24.156,25.289
					c-3.521-0.06-7.042-0.117-10.567-0.176c-6.101,6.516-12.233,13.118-18.399,19.801c8.354,0.015,16.697,0.035,25.041,0.054
					c24.324,0.055,48.598,0.118,72.812,0.189c-0.02-4.617-0.051-9.236-0.105-13.852c-4.29-3.458-8.588-6.954-12.892-10.486
					c-0.157-9.788-0.386-19.574-0.69-29.365c-3.715-3.867-7.441-7.769-11.178-11.7C657.109,224.31,656.174,224.254,655.234,224.2z"
					/>
			</g>
			<g>
				<path fill="#1A4E5B" d="M584.295,294.511c-3.977,0.001-7.954,0.007-11.932,0.014c-2.906,3.171-5.811,6.36-8.725,9.567
					c-0.012,4.256-0.023,8.518-0.055,12.775c1.314-0.019,2.624-0.039,3.94-0.058c12.533-0.175,25.057-0.366,37.569-0.578
					c7.055-0.115,14.111-0.235,21.164-0.359c2.006,2.097,4.013,4.188,6.013,6.267c0.005-0.079,0.005-0.154,0.005-0.23
					c1.237-0.033,2.476-0.061,3.715-0.087c7.116-7.535,14.197-14.949,21.237-22.233c0.001-4.557-0.007-9.112-0.033-13.667
					c-24.251-0.145-48.562-0.274-72.921-0.386C584.283,288.527,584.293,291.518,584.295,294.511z"/>
			</g>
			<g>
				<path fill="#E1CD8E" d="M567.328,340.407c-4.828-5.228-9.672-10.504-14.529-15.832c0.024-2.511,0.037-5.029,0.053-7.545
					c-1.314,0.018-2.628,0.036-3.941,0.052c-9.535,0.127-19.084,0.242-28.633,0.352c-0.021,4.758-0.057,9.521-0.099,14.283
					c3.11,3.459,6.207,6.899,9.302,10.323c-0.114,9.463-0.264,18.923-0.449,28.377c-0.16,8.294-0.358,16.586-0.571,24.875
					c20.253-1.004,40.497-2.176,60.718-3.497c0.375-10.764,0.684-21.526,0.93-32.289c0.019-0.026,0.043-0.054,0.069-0.079
					c-5.92-6.302-11.88-12.69-17.869-19.162C570.651,340.314,568.984,340.361,567.328,340.407z"/>
			</g>
			<g>
				<path fill="#E1CD8E" d="M365.902,87.642c-0.102-18.466-0.215-36.902-0.346-55.303c-26.172-0.345-52.346,0.046-78.535,1.176
					c-0.455,18.324-0.868,36.681-1.229,55.063C312.504,87.678,339.197,87.365,365.902,87.642z"/>
			</g>
			<g>
				<path fill="#53A6C1" d="M615.507,321.995c-12.503,0.271-25.017,0.521-37.544,0.756c-0.023,2.478-0.045,4.958-0.076,7.436
					c4.84,5.218,9.66,10.385,14.459,15.493c1.657-0.06,3.314-0.117,4.973-0.176c5.955,6.32,11.882,12.552,17.77,18.688
					c5.526-6.004,11.047-11.948,16.537-17.827c3.645-3.898,7.281-7.77,10.912-11.611c0.043-2.348,0.076-4.698,0.111-7.045
					c-1.991-2.048-3.995-4.111-5.992-6.184C629.609,321.688,622.563,321.843,615.507,321.995z"/>
			</g>
			<g>
				<path fill="#53A6C1" d="M722.631,102.49c-2.678-2.853-5.363-5.724-8.041-8.607c-0.222-1.807-0.456-3.615-0.682-5.423
					c-2.818-3.034-5.625-6.082-8.447-9.143c-4.391-1.016-8.778-2.013-13.16-2.998c0.506,4.051,1.004,8.098,1.482,12.145
					c0.483,4.049,0.957,8.094,1.412,12.141c-0.004,0.002-0.005,0.004-0.01,0.006c0.979,8.739,1.895,17.471,2.74,26.197
					c2.09,2.236,4.185,4.46,6.265,6.677c6.729-6.137,13.39-12.079,19.988-17.802C723.682,111.285,723.166,106.888,722.631,102.49z"
					/>
			</g>
			<g>
				<path fill="#E1CD8E" d="M671.396,156.506c0.559,7.739,1.076,15.48,1.545,23.218c0.088,0.007,0.178,0.019,0.27,0.029
					c4.245-2.944,8.473-5.841,12.688-8.683c4.422,0.53,8.848,1.065,13.27,1.609c-0.295-4.212-0.611-8.425-0.938-12.64
					C689.287,158.822,680.341,157.642,671.396,156.506z"/>
			</g>
			<g>
				<path fill="#1A4E5B" d="M690.007,99.522c-2.6,2.041-5.215,4.109-7.834,6.208c-0.06-0.014-0.122-0.024-0.183-0.037
					c0.388,3.757,0.77,7.512,1.137,11.268c-1.499,1.403-2.997,2.817-4.506,4.238c0.689,7.313,1.333,14.623,1.936,21.933
					c6.869,0.994,13.729,2.016,20.595,3.065c-0.237-2.747-0.485-5.499-0.733-8.248c-2.424-2.574-4.854-5.162-7.279-7.761
					C692.185,119.974,691.137,109.751,690.007,99.522z"/>
			</g>
			<g>
				<path fill="#53A6C1" d="M660.434,139.161c0.416,5.323,0.814,10.646,1.193,15.97c10.899,1.351,21.793,2.762,32.688,4.235
					c2.627,0.355,5.249,0.711,7.876,1.075c2.383,2.507,4.766,4.995,7.143,7.476c0.033-0.035,0.073-0.068,0.109-0.101
					c1.814,0.242,3.624,0.485,5.437,0.729c2.366-2.167,4.722-4.31,7.069-6.427c-0.096-1.203-0.196-2.407-0.302-3.61
					c-1.368-0.204-2.741-0.406-4.106-0.611c-1.424,1.288-2.847,2.583-4.276,3.889c-2.7-2.816-5.408-5.653-8.12-8.504
					c-0.211-2.549-0.436-5.104-0.656-7.657c-8.36-1.297-16.712-2.552-25.078-3.77C673.09,140.933,666.759,140.034,660.434,139.161z"
					/>
			</g>
			<g>
				<path fill="#1A4E5B" d="M701.257,165.423c0.231,3.063,0.453,6.124,0.67,9.184c1.138,0.142,2.284,0.28,3.43,0.42
					c1.628-1.521,3.25-3.029,4.879-4.526c-1.423-1.48-2.84-2.963-4.264-4.451C704.404,165.841,702.828,165.631,701.257,165.423z"/>
			</g>
			<g>
				<path fill="#53A6C1" d="M515.15,402.231c-0.143,5.436-0.292,10.868-0.458,16.301c2.768-0.151,5.526-0.312,8.291-0.478
					c4.743-0.279,9.484-0.569,14.22-0.872c3.801,4.171,7.58,8.3,11.345,12.395c3.935-0.292,7.878-0.595,11.817-0.904
					c3.196-3.62,6.385-7.229,9.584-10.825c4.99,5.355,9.953,10.639,14.885,15.851c-0.25,5.05-0.514,10.096-0.791,15.145
					c3.504,3.697,6.988,7.364,10.457,10.985c-0.265,4.267-0.537,8.529-0.827,12.793c3.798,3.97,7.577,7.892,11.335,11.76
					c2.593,2.669,5.175,5.318,7.743,7.94c4.376-0.657,8.75-1.331,13.128-2.019c0.574-6.76,1.119-13.523,1.631-20.284
					c0.586-7.695,1.133-15.394,1.638-23.091c-4.556-4.599-9.147-9.272-13.765-14.016c0.209-3.786,0.415-7.572,0.612-11.358
					c-4-4.114-8.019-8.281-12.058-12.497c0.176-4.103,0.35-8.208,0.509-12.31c-20.201,1.485-40.412,2.811-60.644,3.963
					C534.252,401.255,524.703,401.763,515.15,402.231z"/>
			</g>
			<g>
				<path fill="#E1CD8E" d="M71.042,283.709c-8.748-8.428-17.449-16.679-26.077-24.741c0.062-3.633,0.138-7.261,0.223-10.892
					c-10.463-9.722-20.824-19.152-31.078-28.258c0.307-7.447,0.65-14.895,1.047-22.345c4.418-4.282,8.85-8.604,13.282-12.966
					c0.293-5.133,0.606-10.265,0.937-15.396c-14.992,1.685-29.98,3.475-44.957,5.365c-1.072,0.133-2.148,0.271-3.217,0.407
					c-5.206,6.713-10.38,13.339-15.529,19.877c-0.902,14.084-1.616,28.153-2.146,42.224c9.309,10.772,18.763,21.943,28.349,33.469
					c-0.053,3.388-0.093,6.775-0.125,10.163c9.688,9.564,19.47,19.426,29.337,29.551c0.04,5.921,0.108,11.837,0.197,17.759
					c11.384,0.369,22.774,0.724,34.18,1.059c1.015,1.072,2.034,2.149,3.054,3.231c4.182-3.93,8.387-7.903,12.598-11.916
					C70.994,308.101,70.972,295.908,71.042,283.709z"/>
			</g>
			<g>
				<path fill="#53A6C1" d="M35.941,170.034c17.107-1.86,34.228-3.584,51.355-5.163c1.084-20.423,2.428-40.845,4.023-61.264
					c-31.202,4.265-62.443,9.254-93.723,14.896c-1.704,16.693-3.17,33.376-4.399,50.045c-1.823,2.371-3.64,4.733-5.451,7.084
					c1.071-0.133,2.143-0.267,3.221-0.395C5.947,173.399,20.938,171.662,35.941,170.034z"/>
			</g>
			<g>
				<path fill="#1A4E5B" d="M84.373,46.212c-17.555,3.305-35.161,6.917-52.812,10.817c-9.438,2.088-18.895,4.262-28.358,6.511
					c-0.696,5.198-1.368,10.394-2.014,15.588c-4.341,4.744-8.678,9.451-13.005,14.125c-0.789,6.49-1.536,12.977-2.248,19.461
					c31.256-6.085,62.463-11.488,93.612-16.146C80.977,79.781,82.583,62.994,84.373,46.212z"/>
			</g>
			<g>
				<path fill="#E1CD8E" d="M96.469,153.553c6.229-0.603,12.457-1.184,18.687-1.745c14.461-1.297,28.931-2.486,43.394-3.553
					c0.713-16.673,1.549-33.338,2.498-49.989c-6.484,0.646-12.967,1.322-19.455,2.032c-3.656-3.987-7.293-7.938-10.9-11.844
					c0.611-8.619,1.256-17.234,1.939-25.85c-4.139-4.483-8.242-8.909-12.312-13.272c0.339-3.746,0.677-7.495,1.03-11.24
					c-5.373,0.888-10.744,1.803-16.119,2.748c-1.697,17.024-3.225,34.057-4.584,51.094
					C99.005,112.465,97.617,133.006,96.469,153.553z"/>
			</g>
			<g>
				<path fill="#53A6C1" d="M182.199,113.804c30.805-2.468,61.594-4.265,92.375-5.364c0.1-4.818,0.203-9.636,0.315-14.449
					c0.411-18.355,0.878-36.684,1.404-54.979c-44.907,2.223-89.894,6.563-135.095,12.91c-0.305,3.792-0.6,7.589-0.89,11.384
					c4.151,4.535,8.333,9.13,12.55,13.78c-0.578,8.718-1.131,17.44-1.642,26.165c3.677,4.042,7.372,8.124,11.091,12.246
					c6.511-0.585,13.027-1.137,19.531-1.66"/>
			</g>
			<g>
				<path fill="#1A4E5B" d="M176.119,104.562c-0.85,16.779-1.586,33.571-2.214,50.373c-0.495,13.241-0.917,26.491-1.275,39.743
					c7.944-0.365,15.883-0.703,23.829-1.015c23.471-0.93,46.957-1.643,70.457-2.141c0.123-9.79,0.267-19.577,0.423-29.358
					c0.346-21.217,0.763-42.412,1.271-63.574c-30.695,1.253-61.404,3.246-92.136,5.941"/>
			</g>
			<g>
				<path fill="#1A4E5B" d="M523.411,408.977c0.246-8.306,0.461-16.614,0.646-24.923c0.218-9.479,0.399-18.956,0.543-28.437
					c-3.082-3.413-6.175-6.847-9.265-10.296c0.056-4.771,0.104-9.543,0.146-14.312c-11.858,0.2-23.725,0.382-35.594,0.541
					c-0.21,32.057-0.72,64.101-1.523,96.104c5.33-0.25,10.656-0.515,15.982-0.794c0.153-5.481,0.298-10.959,0.43-16.439
					C504.327,409.981,513.868,409.5,523.411,408.977z"/>
			</g>
			<g>
				<path fill="#53A6C1" d="M451.232,343.755c-1.794,2.066-3.586,4.134-5.376,6.202c-4.879,5.628-9.759,11.269-14.636,16.921
					c-0.043,5.211-0.094,10.421-0.146,15.629c-0.059,5.473-0.118,10.948-0.188,16.419c-0.06,5.096-0.13,10.185-0.2,15.273
					c-1.76,2.056-3.517,4.11-5.277,6.169c-0.062,4.573-0.134,9.152-0.204,13.728c9.367-0.271,18.738-0.592,28.11-0.967
					c-0.116,5.313-0.231,10.623-0.36,15.934c3.357-2.983,6.727-5.964,10.094-8.948c2.952-0.128,5.904-0.271,8.86-0.416
					c0.836-32.058,1.392-64.163,1.667-96.281C466.129,343.54,458.684,343.656,451.232,343.755z"/>
			</g>
			<g>
				<path fill="#53A6C1" d="M97.639,291.256c-5.119,0.005-10.234,0.013-15.349,0.017c-3.206,3.402-6.395,6.783-9.581,10.138
					c0.023,12.213,0.138,24.424,0.346,36.637c-4.18,3.962-8.351,7.881-12.502,11.76c6.991,7.476,14.012,15.05,21.051,22.728
					c13.889,0.81,27.79,1.559,41.701,2.25c5.148,5.732,10.311,11.505,15.473,17.311c9.344,0.524,18.688,1.009,28.04,1.465
					c-0.888-34.102-1.308-68.231-1.248-102.357C142.89,291.214,120.241,291.237,97.639,291.256z"/>
			</g>
			<g>
				<path fill="#53A6C1" d="M377.106,426.963c0.04-7.109,0.075-14.223,0.114-21.337c-4.289-4.994-8.58-10.004-12.893-15.021
					c0,0.136,0,0.273,0,0.407c0-0.134,0-0.271,0-0.407c-16.658,0.079-33.316,0.042-49.979-0.106
					c-5.394-6.297-10.792-12.6-16.205-18.898c-0.097-16.358-0.201-40.228-0.201-40.282c-14.99-0.072-29.974-0.173-44.951-0.309
					c0.125,28.657,0.428,48.333,0.896,76.946c-16.837-0.506-33.67-1.146-50.504-1.923c6.816,7.858,13.621,15.753,20.42,23.671
					c0.218,8.284,0.449,16.562,0.701,24.842c5.73,6.713,11.445,13.439,17.148,20.167c3.369,0.179,6.728,0.352,10.094,0.517
					c3.516-4.079,7.05-8.175,10.601-12.294c4.18,0.167,8.363,0.32,12.545,0.465c4.738,5.597,9.46,11.192,14.168,16.777
					c0.098,5.681,0.194,6.888,0.302,12.558c5.281,6.298,10.533,12.581,15.752,18.849c0.082,5.368,0.164,7.383,0.25,12.748
					c6.312,7.601,12.576,10.707,18.785,18.243c3.287,0.054,6.582,0.1,9.87,0.131c-0.104-16.627-0.188-25.464-0.271-42.146
					c8.748-10.425,17.592-16.466,26.501-27.037c9.099-0.06,18.2-0.18,27.298-0.366c0.115-11.191,0.227-22.393,0.325-33.604
					C384.293,435.369,380.707,431.171,377.106,426.963z"/>
			</g>
			<g>
				<path fill="#1A4E5B" d="M243.957,310.337c-0.008-3.627-0.01-7.251-0.012-10.88c-22.779-0.042-45.535-0.096-68.266-0.163
					c0.018,34.287,0.487,68.575,1.4,102.835c3.675,0.182,7.349,0.357,11.027,0.528c-0.072-2.857-0.142-5.72-0.206-8.577
					c1.386,0.059,2.772,0.119,4.163,0.174c0.662,0.029,1.32,0.056,1.982,0.086c16.869,0.693,33.752,1.279,50.642,1.745
					C244.258,367.525,244.012,338.931,243.957,310.337z"/>
			</g>
			<g>
				<path fill="#53A6C1" d="M443.797,192.98c-0.099-6.566-0.197-13.124-0.314-19.681c-0.029,0-0.059-0.001-0.086-0.004
					c-5.453-6.349-10.893-12.704-16.32-19.064c-18.519-0.544-37.037-0.897-55.557-1.062c0.055,11.195,0.104,22.395,0.146,33.603
					c1.886,2.21,3.783,4.425,5.68,6.641c0.028,6.713,0.057,13.428,0.079,20.144c19.871,0.124,39.744,0.368,59.608,0.734
					c-0.053-4.454-0.1-8.905-0.154-13.356C439.186,198.274,441.49,195.624,443.797,192.98z"/>
			</g>
			<g>
				<path fill="#1A4E5B" d="M481.229,287.805c7.44-6.184,14.871-12.319,22.277-18.393c4.669,0.046,9.341,0.092,14.005,0.141
					c7.139-7.987,14.238-15.891,21.299-23.696c7.985,0.189,15.971,0.394,23.948,0.608c6.447,7.128,12.882,14.185,19.285,21.166
					c-6.195,6.704-12.419,13.495-18.676,20.359C536.037,287.916,508.647,287.854,481.229,287.805z"/>
			</g>
			<g>
				<path fill="#53A6C1" d="M582.07,256.944c4.005,4.369,7.992,8.708,11.977,13.014c3.441,0.051,6.873,0.105,10.307,0.16
					c8.074-8.62,16.103-17.084,24.061-25.375c1.582,0.062,3.175,0.119,4.758,0.182c-0.064-3.013-0.145-6.024-0.226-9.037
					c3.808-3.939,7.595-7.837,11.365-11.688c-7.468-0.427-14.938-0.84-22.411-1.231c-0.084-2.776-0.176-5.549-0.272-8.32
					c-6.161-0.365-12.329-0.72-18.49-1.063c0.191,5.935,0.364,11.872,0.515,17.805c-2.641,2.792-5.285,5.606-7.935,8.436
					c-2.905-0.104-5.809-0.205-8.71-0.305c0.083,3.951,0.155,7.91,0.221,11.861C585.512,253.228,583.791,255.081,582.07,256.944z"/>
			</g>
			<g>
				<path fill="#E1CD8E" d="M671.66,170.375c-3.92-0.447-7.846-0.884-11.768-1.318c0.289,4.55,0.562,9.098,0.818,13.649
					c1.694,1.814,3.397,3.625,5.094,5.424c-3.619,3.572-7.251,7.189-10.9,10.852c1.557,1.66,3.114,3.314,4.674,4.966
					c2.952,0.231,5.905,0.465,8.862,0.701c1.452-1.437,2.901-2.871,4.351-4.296c-0.336-6.777-0.713-13.557-1.115-20.339
					c-0.186-3.015-0.374-6.026-0.566-9.042c0.275-0.189,0.549-0.377,0.822-0.565C671.844,170.395,671.748,170.386,671.66,170.375z"
					/>
			</g>
			<g>
				<path fill="#53A6C1" d="M679.43,232.251c-0.119-2.915-0.243-5.83-0.375-8.741c-1.982-2.061-3.961-4.126-5.95-6.201
					c0.015,0,0.033,0.003,0.046,0.004c-0.805-0.841-1.607-1.686-2.411-2.527c0.237,5.67,0.45,11.341,0.64,17.008
					C674.061,231.945,676.744,232.098,679.43,232.251z"/>
			</g>
		</g>
	</g>
</g>
<g>
</g>
<g>
</g>
<g>
</g>
<g>
</g>
<g>
</g>
<g>
</g>
</svg>
