<?xml version="1.0" encoding="utf-8"?>
<!-- Generator: Adobe Illustrator 16.0.0, SVG Export Plug-In . SVG Version: 6.00 Build 0)  -->
<!DOCTYPE svg PUBLIC "-//W3C//DTD SVG 1.1//EN" "http://www.w3.org/Graphics/SVG/1.1/DTD/svg11.dtd">
<svg version="1.1" id="Layer_1" xmlns="http://www.w3.org/2000/svg" xmlns:xlink="http://www.w3.org/1999/xlink" x="0px" y="0px"
	 width="682px" height="302px" viewBox="0 0 682 302" enable-background="new 0 0 682 302" xml:space="preserve">
<g>
	<g>
		<g>
			<rect fill="#FFFFFF" width="211.5" height="302"/>
			<g>
				<rect x="176.4" fill="#A6273C" width="35.1" height="35.1"/>
				<g>
					<path fill="#EDEDED" d="M187.9,21h2.1v-6.8h-1.7v-0.8c0.8-0.1,1.4-0.4,1.9-0.7h0.9V21h1.9v1h-5.2V21z"/>
					<path fill="#EDEDED" d="M194.9,17.8c0.4,0.4,1,0.7,1.5,0.7c0.7,0,1-0.3,1-0.8c0-0.5-0.4-0.6-0.9-0.9l-0.8-0.3
						c-0.6-0.2-1.2-0.7-1.2-1.6c0-0.9,0.8-1.7,2-1.7c0.7,0,1.4,0.3,1.8,0.7l-0.5,0.7c-0.4-0.3-0.8-0.5-1.3-0.5
						c-0.6,0-0.9,0.3-0.9,0.7c0,0.5,0.4,0.6,0.9,0.8l0.8,0.3c0.7,0.3,1.2,0.7,1.2,1.6c0,1-0.8,1.7-2.1,1.7c-0.8,0-1.6-0.3-2.1-0.9
						L194.9,17.8z"/>
					<path fill="#EDEDED" d="M200.6,14.3h-1.7v-0.9h4.4v0.9h-1.7v5h-1V14.3z"/>
				</g>
			</g>
		</g>
		<g>
			<g>
				<polygon fill="#BDBDBD" points="125.4,53.3 125.4,48 121.7,44.4 121.7,44.5 121.7,44.4 107.5,44.4 102.9,39.8 102.9,27.8
					102.9,27.7 90.2,27.7 90.2,48.9 75.8,48.9 81.5,54.6 81.5,60.8 86.2,65.6 89.2,65.6 92.3,62.4 96,62.4 100,66.4 100,70.6
					104.5,75.2 104.5,79.1 110,84.6 112.9,84.6 112.9,72.3 120.6,64.6 128.5,64.6 128.5,56.4 				"/>
			</g>
			<g>
				<path fill="#184D5B" d="M81.4,103.2h-4.2v-1.5h10.1v1.5h-4.2v12.3h-1.8V103.2z"/>
				<path fill="#184D5B" d="M92.1,105c2.6,0,4.1,1.9,4.1,4.8c0,0.4,0,0.7-0.1,0.9h-6.9c0.1,2.2,1.4,3.6,3.4,3.6c1,0,1.8-0.3,2.5-0.8
					l0.6,1.1c-0.9,0.6-2,1.1-3.4,1.1c-2.7,0-4.9-2-4.9-5.3C87.5,107.1,89.8,105,92.1,105z M94.6,109.6c0-2.1-0.9-3.2-2.5-3.2
					c-1.4,0-2.7,1.2-2.9,3.2H94.6z"/>
				<path fill="#184D5B" d="M100.4,110.2l-3.1-4.9h1.9l1.4,2.2c0.3,0.5,0.7,1.1,1,1.7h0.1c0.3-0.6,0.6-1.2,0.9-1.7l1.2-2.2h1.8
					l-3.1,5.1l3.3,5.1H104l-1.5-2.4c-0.4-0.6-0.7-1.2-1.1-1.8h-0.1c-0.4,0.6-0.7,1.2-1,1.8l-1.4,2.4h-1.8L100.4,110.2z"/>
				<path fill="#184D5B" d="M113.5,109c0-1.3-0.4-2.6-2.1-2.6c-1.2,0-2.2,0.5-3,1.1l-0.7-1.2c0.9-0.6,2.4-1.3,4-1.3
					c2.5,0,3.5,1.7,3.5,4.2v6.3h-1.4l-0.1-1.2h0c-1,0.8-2.1,1.5-3.4,1.5c-1.7,0-3-1.1-3-2.9C107.2,110.6,109.1,109.5,113.5,109z
					 M110.7,114.4c1,0,1.8-0.5,2.8-1.4v-2.8c-3.4,0.4-4.6,1.3-4.6,2.6C108.9,113.9,109.7,114.4,110.7,114.4z"/>
				<path fill="#184D5B" d="M118.2,113.2c0.9,0.7,1.8,1.2,3,1.2c1.3,0,2-0.7,2-1.6c0-1.1-1.2-1.5-2.3-1.9c-1.4-0.5-3-1.2-3-2.9
					c0-1.6,1.3-2.9,3.5-2.9c1.3,0,2.4,0.5,3.2,1.2l-0.8,1.1c-0.7-0.5-1.4-0.9-2.3-0.9c-1.3,0-1.9,0.7-1.9,1.5c0,1,1.1,1.3,2.3,1.8
					c1.5,0.5,3.1,1.2,3.1,3.1c0,1.7-1.3,3-3.7,3c-1.4,0-2.8-0.6-3.8-1.4L118.2,113.2z"/>
			</g>
			<g>
				<g>
					<path fill="#90A4AE" d="M21.3,176.1h1.4v3.2H26v-3.2h1.4v8H26v-3.6h-3.3v3.6h-1.4V176.1z"/>
					<path fill="#90A4AE" d="M29.2,176.3c0-0.5,0.4-0.8,0.9-0.8c0.5,0,0.9,0.3,0.9,0.8c0,0.5-0.4,0.8-0.9,0.8
						C29.5,177.1,29.2,176.7,29.2,176.3z M29.3,178.1h1.4v6h-1.4V178.1z"/>
					<path fill="#90A4AE" d="M33,184L33,184c-0.3-0.2-0.5-0.6-0.5-1.1c0-0.5,0.3-0.9,0.7-1.1v0c-0.4-0.3-0.8-0.9-0.8-1.6
						c0-1.4,1.1-2.2,2.4-2.2c0.3,0,0.6,0.1,0.9,0.1h2.2v1h-1.1c0.2,0.2,0.3,0.6,0.3,1c0,1.3-1,2.1-2.3,2.1c-0.3,0-0.6,0-0.8-0.2
						c-0.2,0.2-0.3,0.3-0.3,0.6c0,0.3,0.2,0.6,1,0.6h1.1c1.5,0,2.2,0.4,2.2,1.5c0,1.2-1.3,2.1-3.2,2.1c-1.4,0-2.5-0.5-2.5-1.6
						C32.1,184.8,32.4,184.3,33,184z M34.9,185.9c1,0,1.6-0.5,1.6-1c0-0.5-0.4-0.6-1.1-0.6h-0.8c-0.3,0-0.6,0-0.8-0.1
						c-0.3,0.2-0.5,0.5-0.5,0.8C33.3,185.6,33.9,185.9,34.9,185.9z M35.8,180.2c0-0.8-0.5-1.2-1-1.2s-1.1,0.4-1.1,1.2
						c0,0.8,0.5,1.2,1.1,1.2C35.3,181.4,35.8,180.9,35.8,180.2z"/>
					<path fill="#90A4AE" d="M38.9,175.5h1.4v2.2l0,1.2c0.5-0.5,1.1-0.9,1.9-0.9c1.3,0,1.9,0.9,1.9,2.4v3.8h-1.4v-3.6
						c0-1-0.3-1.4-0.9-1.4c-0.5,0-0.9,0.3-1.4,0.8v4.2h-1.4V175.5z"/>
					<path fill="#90A4AE" d="M48.7,182.2c0.6,0.5,1.4,0.9,2.1,0.9c0.9,0,1.4-0.4,1.4-1c0-0.7-0.5-0.9-1.2-1.2l-1.1-0.5
						c-0.8-0.3-1.6-1-1.6-2.1c0-1.3,1.1-2.3,2.7-2.3c0.9,0,1.8,0.4,2.5,1l-0.7,0.9c-0.5-0.4-1.1-0.7-1.7-0.7c-0.8,0-1.3,0.4-1.3,0.9
						c0,0.6,0.6,0.9,1.3,1.1l1.1,0.5c0.9,0.4,1.6,1,1.6,2.2c0,1.3-1.1,2.4-2.9,2.4c-1.1,0-2.1-0.4-2.9-1.2L48.7,182.2z"/>
					<path fill="#90A4AE" d="M57.6,178c0.8,0,1.4,0.3,1.8,0.7l-0.7,0.9c-0.3-0.3-0.6-0.4-1-0.4c-1,0-1.6,0.8-1.6,2
						c0,1.2,0.7,2,1.6,2c0.5,0,0.9-0.2,1.2-0.5l0.6,0.9c-0.6,0.5-1.3,0.8-2,0.8c-1.6,0-2.9-1.2-2.9-3.2C54.6,179.1,56,178,57.6,178z
						"/>
					<path fill="#90A4AE" d="M60.7,175.5h1.4v2.2l0,1.2c0.5-0.5,1.1-0.9,1.9-0.9c1.3,0,1.9,0.9,1.9,2.4v3.8h-1.4v-3.6
						c0-1-0.3-1.4-0.9-1.4c-0.5,0-0.9,0.3-1.4,0.8v4.2h-1.4V175.5z"/>
					<path fill="#90A4AE" d="M70,178c1.5,0,2.9,1.2,2.9,3.2c0,2-1.4,3.2-2.9,3.2c-1.5,0-2.9-1.2-2.9-3.2C67.2,179.1,68.5,178,70,178
						z M70,183.2c0.9,0,1.4-0.8,1.4-2c0-1.2-0.5-2-1.4-2c-0.9,0-1.4,0.8-1.4,2C68.6,182.4,69.1,183.2,70,183.2z"/>
					<path fill="#90A4AE" d="M76.8,178c1.5,0,2.9,1.2,2.9,3.2c0,2-1.4,3.2-2.9,3.2c-1.5,0-2.9-1.2-2.9-3.2
						C73.9,179.1,75.3,178,76.8,178z M76.8,183.2c0.9,0,1.4-0.8,1.4-2c0-1.2-0.5-2-1.4-2c-0.9,0-1.4,0.8-1.4,2
						C75.4,182.4,75.9,183.2,76.8,183.2z"/>
					<path fill="#90A4AE" d="M81.1,175.5h1.4v7.2c0,0.3,0.2,0.5,0.3,0.5c0.1,0,0.1,0,0.2,0l0.2,1.1c-0.2,0.1-0.4,0.1-0.8,0.1
						c-1,0-1.4-0.7-1.4-1.7V175.5z"/>
					<path fill="#90A4AE" d="M86.8,178c1.6,0,2.5,1.2,2.5,2.9c0,0.3,0,0.5-0.1,0.7h-3.8c0.1,1.1,0.8,1.7,1.8,1.7
						c0.5,0,1-0.2,1.4-0.4l0.5,0.9c-0.6,0.4-1.3,0.7-2.1,0.7c-1.7,0-3-1.2-3-3.2C84,179.2,85.4,178,86.8,178z M88,180.6
						c0-1-0.4-1.5-1.2-1.5c-0.7,0-1.3,0.5-1.5,1.5H88z"/>
					<path fill="#90A4AE" d="M90.6,178.1h1.2l0.1,1.1h0c0.4-0.8,1.1-1.2,1.7-1.2c0.3,0,0.5,0,0.7,0.1l-0.2,1.2
						c-0.2-0.1-0.4-0.1-0.6-0.1c-0.5,0-1.1,0.3-1.4,1.2v3.7h-1.4V178.1z"/>
					<path fill="#90A4AE" d="M95.1,182.6c0.5,0.4,1.1,0.7,1.7,0.7c0.7,0,1-0.3,1-0.7c0-0.5-0.7-0.7-1.3-1c-0.8-0.3-1.7-0.8-1.7-1.8
						c0-1.1,0.8-1.8,2.2-1.8c0.8,0,1.5,0.3,2,0.7l-0.7,0.9c-0.4-0.3-0.8-0.5-1.3-0.5c-0.6,0-0.9,0.3-0.9,0.7c0,0.5,0.6,0.7,1.3,0.9
						c0.8,0.3,1.7,0.7,1.7,1.8c0,1-0.8,1.9-2.3,1.9c-0.8,0-1.7-0.4-2.3-0.8L95.1,182.6z"/>
				</g>
				<g>
					<path fill="#546E7A" d="M160.8,182.5h1.6v-5.1h-1.3v-0.6c0.6-0.1,1.1-0.3,1.5-0.5h0.7v6.2h1.4v0.7h-3.9V182.5z"/>
					<path fill="#546E7A" d="M169.3,177.2h-3.4v-0.8h4.4v0.6c-1.6,2.1-2,3.7-2.1,6.3h-0.9C167.4,180.7,167.9,179,169.3,177.2z"/>
					<path fill="#546E7A" d="M172.1,182c0.3,0,0.6,0.3,0.6,0.7c0,0.4-0.3,0.7-0.6,0.7c-0.4,0-0.6-0.3-0.6-0.7
						C171.4,182.3,171.7,182,172.1,182z"/>
					<path fill="#546E7A" d="M173.9,179.8c0-2.3,0.8-3.6,2.2-3.6c1.4,0,2.2,1.2,2.2,3.6c0,2.3-0.8,3.6-2.2,3.6
						C174.7,183.4,173.9,182.1,173.9,179.8z M177.5,179.8c0-2-0.5-2.8-1.3-2.8c-0.8,0-1.4,0.8-1.4,2.8c0,2,0.5,2.9,1.4,2.9
						C176.9,182.7,177.5,181.8,177.5,179.8z"/>
					<path fill="#546E7A" d="M179.2,178.3c0-1.4,0.6-2.2,1.6-2.2c1,0,1.6,0.8,1.6,2.2s-0.6,2.2-1.6,2.2
						C179.8,180.5,179.2,179.7,179.2,178.3z M181.7,178.3c0-1.1-0.4-1.7-0.9-1.7c-0.6,0-0.9,0.5-0.9,1.7c0,1.1,0.4,1.7,0.9,1.7
						C181.3,180,181.7,179.4,181.7,178.3z M181,183.4l3.9-7.3h0.6l-3.9,7.3H181z M184.1,181.2c0-1.4,0.6-2.2,1.6-2.2
						c1,0,1.6,0.8,1.6,2.2c0,1.4-0.6,2.2-1.6,2.2C184.7,183.4,184.1,182.6,184.1,181.2z M186.6,181.2c0-1.1-0.4-1.7-0.9-1.7
						s-0.9,0.6-0.9,1.7c0,1.1,0.4,1.7,0.9,1.7S186.6,182.3,186.6,181.2z"/>
				</g>
				<g>
					<path fill="#455A64" d="M26.8,150.4h-3.7l-0.9,3h-2l3.6-11h2.3l3.6,11h-2.1L26.8,150.4z M26.3,148.8l-0.4-1.3
						c-0.4-1.2-0.7-2.4-1-3.6h-0.1c-0.3,1.2-0.6,2.5-1,3.6l-0.4,1.3H26.3z"/>
					<path fill="#455A64" d="M33.9,144.9c0.9,0,1.5,0.4,2.2,0.9l-0.1-1.3v-3h1.9v11.9h-1.6l-0.1-0.9h-0.1c-0.6,0.6-1.4,1.1-2.3,1.1
						c-2.1,0-3.4-1.6-3.4-4.3C30.4,146.5,32.1,144.9,33.9,144.9z M34.3,151.9c0.6,0,1.2-0.3,1.7-0.9v-3.9c-0.6-0.5-1.1-0.7-1.7-0.7
						c-1.1,0-1.9,1-1.9,2.7C32.4,151,33.1,151.9,34.3,151.9z"/>
					<path fill="#455A64" d="M40.3,145.1h1.9v4.9c0,1.4,0.4,1.9,1.3,1.9c0.7,0,1.2-0.3,1.8-1.1v-5.7h1.9v8.3h-1.6l-0.2-1.2h-0.1
						c-0.7,0.9-1.5,1.4-2.7,1.4c-1.8,0-2.5-1.2-2.5-3.3V145.1z"/>
					<path fill="#455A64" d="M49.7,141.5h1.9v9.9c0,0.5,0.2,0.6,0.4,0.6c0.1,0,0.2,0,0.3,0l0.3,1.4c-0.2,0.1-0.6,0.2-1,0.2
						c-1.4,0-1.9-0.9-1.9-2.3V141.5z"/>
					<path fill="#455A64" d="M54.6,146.6h-1.2v-1.4l1.3-0.1l0.2-2.3h1.6v2.3h2.1v1.5h-2.1v3.9c0,1,0.4,1.4,1.2,1.4
						c0.3,0,0.6-0.1,0.9-0.2l0.3,1.4c-0.5,0.2-1,0.3-1.7,0.3c-1.9,0-2.6-1.2-2.6-3V146.6z"/>
					<path fill="#455A64" d="M60.5,151.1c0.7,0.6,1.4,0.9,2.3,0.9c0.9,0,1.3-0.4,1.3-1c0-0.7-0.9-1-1.8-1.3c-1.1-0.4-2.3-1-2.3-2.4
						c0-1.4,1.2-2.5,3-2.5c1.1,0,2.1,0.5,2.7,1l-0.9,1.2c-0.6-0.4-1.2-0.7-1.8-0.7c-0.8,0-1.2,0.4-1.2,0.9c0,0.7,0.8,0.9,1.7,1.2
						c1.1,0.4,2.4,1,2.4,2.5c0,1.4-1.1,2.6-3.2,2.6c-1.1,0-2.3-0.5-3.1-1.1L60.5,151.1z"/>
				</g>
				<g>
					<path fill="#546E7A" d="M146.7,151.1c0.6,0.7,1.5,1.3,2.7,1.3c1.3,0,2.2-0.8,2.2-2c0-1.3-0.9-2.1-3.4-2.1v-1.1c2.3,0,3-0.9,3-2
						c0-1-0.7-1.7-1.9-1.7c-0.9,0-1.6,0.5-2.3,1.1l-0.7-0.9c0.8-0.8,1.8-1.3,3.1-1.3c1.9,0,3.2,1,3.2,2.7c0,1.3-0.8,2.1-2,2.6v0.1
						c1.3,0.3,2.3,1.2,2.3,2.7c0,1.9-1.6,3.1-3.5,3.1c-1.7,0-2.8-0.7-3.5-1.5L146.7,151.1z"/>
					<path fill="#546E7A" d="M155.1,151.1c0.6,0.7,1.5,1.3,2.7,1.3c1.3,0,2.2-0.8,2.2-2c0-1.3-0.9-2.1-3.4-2.1v-1.1c2.3,0,3-0.9,3-2
						c0-1-0.7-1.7-1.9-1.7c-0.9,0-1.6,0.5-2.3,1.1l-0.7-0.9c0.8-0.8,1.8-1.3,3.1-1.3c1.9,0,3.2,1,3.2,2.7c0,1.3-0.8,2.1-2,2.6v0.1
						c1.3,0.3,2.3,1.2,2.3,2.7c0,1.9-1.6,3.1-3.5,3.1c-1.7,0-2.8-0.7-3.5-1.5L155.1,151.1z"/>
					<path fill="#546E7A" d="M164.4,151.4c0.5,0,1,0.4,1,1.1c0,0.6-0.5,1-1,1c-0.6,0-1-0.4-1-1C163.4,151.9,163.9,151.4,164.4,151.4
						z"/>
					<path fill="#546E7A" d="M167.3,147.9c0-3.6,1.3-5.5,3.5-5.5c2.1,0,3.4,1.9,3.4,5.5s-1.3,5.6-3.4,5.6
						C168.6,153.5,167.3,151.5,167.3,147.9z M172.8,147.9c0-3.1-0.8-4.4-2.1-4.4c-1.3,0-2.1,1.3-2.1,4.4c0,3.1,0.8,4.5,2.1,4.5
						C172,152.4,172.8,151.1,172.8,147.9z"/>
					<path fill="#546E7A" d="M175.5,145.6c0-2.2,1-3.5,2.5-3.5c1.5,0,2.5,1.2,2.5,3.5c0,2.2-1,3.5-2.5,3.5
						C176.5,149.1,175.5,147.8,175.5,145.6z M179.4,145.6c0-1.8-0.6-2.6-1.4-2.6c-0.9,0-1.5,0.8-1.5,2.6c0,1.8,0.6,2.6,1.5,2.6
						C178.8,148.2,179.4,147.3,179.4,145.6z M178.3,153.5l6.1-11.4h0.9l-6.1,11.4H178.3z M183.2,150c0-2.2,1-3.5,2.5-3.5
						c1.5,0,2.5,1.3,2.5,3.5c0,2.2-1,3.5-2.5,3.5C184.2,153.5,183.2,152.3,183.2,150z M187.1,150c0-1.8-0.6-2.6-1.4-2.6
						c-0.9,0-1.5,0.9-1.5,2.6s0.6,2.6,1.5,2.6C186.5,152.7,187.1,151.8,187.1,150z"/>
				</g>
				<line fill="#90A4AE" stroke="#E1E1E1" stroke-width="0.5" stroke-miterlimit="10" x1="20.3" y1="167.3" x2="191.3" y2="167.3"/>
				<g>
					<path fill="#90A4AE" d="M21.2,209.8h1.7v-5.1h-1.4v-0.9c0.8-0.1,1.3-0.3,1.8-0.6h1.1v6.7h1.5v1.2h-4.7V209.8z"/>
					<path fill="#90A4AE" d="M27.1,207c0-2.6,1-4,2.7-4s2.7,1.4,2.7,4c0,2.6-1,4.1-2.7,4.1S27.1,209.6,27.1,207z M31,207
						c0-2.2-0.5-2.9-1.3-2.9c-0.8,0-1.3,0.7-1.3,2.9c0,2.2,0.6,3,1.3,3C30.5,210,31,209.2,31,207z"/>
					<path fill="#90A4AE" d="M33.4,207.3h2.9v1h-2.9V207.3z"/>
					<path fill="#90A4AE" d="M37.8,209.8h1.7v-5.1h-1.4v-0.9c0.8-0.1,1.3-0.3,1.8-0.6h1.1v6.7h1.5v1.2h-4.7V209.8z"/>
					<path fill="#90A4AE" d="M47.4,204.3h-3.7v-1.2h5.3v0.9c-1.8,2.3-2.2,3.9-2.3,7h-1.4C45.4,208.1,45.9,206.4,47.4,204.3z"/>
					<path fill="#90A4AE" d="M54.3,207.9l-2.4-5.1h1.5l0.9,2.1c0.2,0.6,0.5,1.2,0.7,1.8h0c0.3-0.6,0.5-1.2,0.7-1.8l0.9-2.1h1.5
						l-2.4,5.1v3h-1.4V207.9z"/>
					<path fill="#90A4AE" d="M58.5,204.9h1.2l0.1,1.1h0c0.4-0.8,1.1-1.2,1.7-1.2c0.3,0,0.5,0,0.7,0.1l-0.2,1.2
						c-0.2-0.1-0.4-0.1-0.6-0.1c-0.5,0-1.1,0.3-1.4,1.2v3.7h-1.4V204.9z"/>
					<path fill="#90A4AE" d="M62.4,207.3h2.9v1h-2.9V207.3z"/>
					<path fill="#90A4AE" d="M69.2,204.7c1.5,0,2.9,1.2,2.9,3.2c0,2-1.4,3.2-2.9,3.2c-1.5,0-2.9-1.2-2.9-3.2
						C66.4,205.9,67.7,204.7,69.2,204.7z M69.2,209.9c0.9,0,1.4-0.8,1.4-2c0-1.2-0.5-2-1.4-2c-0.9,0-1.4,0.8-1.4,2
						C67.8,209.1,68.4,209.9,69.2,209.9z"/>
					<path fill="#90A4AE" d="M73.5,202.2h1.4v7.2c0,0.3,0.2,0.5,0.3,0.5c0.1,0,0.1,0,0.2,0l0.2,1.1c-0.2,0.1-0.4,0.1-0.8,0.1
						c-1,0-1.4-0.7-1.4-1.7V202.2z"/>
					<path fill="#90A4AE" d="M79,204.7c0.7,0,1.1,0.3,1.6,0.7l0-1v-2.2H82v8.7h-1.2l-0.1-0.7h0c-0.4,0.4-1.1,0.8-1.7,0.8
						c-1.5,0-2.5-1.2-2.5-3.2C76.5,205.9,77.7,204.7,79,204.7z M79.3,209.9c0.5,0,0.9-0.2,1.3-0.7v-2.8c-0.4-0.4-0.8-0.5-1.2-0.5
						c-0.8,0-1.4,0.7-1.4,2C77.9,209.2,78.4,209.9,79.3,209.9z"/>
					<path fill="#90A4AE" d="M83.8,209.3c0.5,0.4,1.1,0.7,1.7,0.7c0.7,0,1-0.3,1-0.7c0-0.5-0.7-0.7-1.3-1c-0.8-0.3-1.7-0.8-1.7-1.8
						c0-1.1,0.8-1.8,2.2-1.8c0.8,0,1.5,0.3,2,0.7l-0.7,0.9c-0.4-0.3-0.8-0.5-1.3-0.5c-0.6,0-0.9,0.3-0.9,0.7c0,0.5,0.6,0.7,1.3,0.9
						c0.8,0.3,1.7,0.7,1.7,1.8c0,1-0.8,1.9-2.3,1.9c-0.8,0-1.7-0.4-2.3-0.8L83.8,209.3z"/>
				</g>
				<g>
					<path fill="#546E7A" d="M160.8,209.3h1.6v-5.1h-1.3v-0.6c0.6-0.1,1.1-0.3,1.5-0.5h0.7v6.2h1.4v0.7h-3.9V209.3z"/>
					<path fill="#546E7A" d="M167.1,206.4L167.1,206.4c-0.5-0.4-1-0.9-1-1.6c0-1.1,0.8-1.8,2-1.8c1.2,0,1.9,0.8,1.9,1.8
						c0,0.7-0.5,1.3-1,1.7v0c0.6,0.4,1.2,0.8,1.2,1.8c0,1-0.9,1.8-2.2,1.8c-1.3,0-2.3-0.8-2.3-1.9
						C165.8,207.4,166.5,206.7,167.1,206.4z M168.1,209.5c0.8,0,1.4-0.5,1.4-1.2c0-0.9-0.9-1.2-1.9-1.6c-0.6,0.4-1,0.9-1,1.5
						C166.6,208.9,167.2,209.5,168.1,209.5z M169.3,204.9c0-0.7-0.4-1.2-1.2-1.2c-0.6,0-1.1,0.4-1.1,1.1c0,0.8,0.8,1.2,1.6,1.5
						C169,205.8,169.3,205.4,169.3,204.9z"/>
					<path fill="#546E7A" d="M172.1,208.8c0.3,0,0.6,0.3,0.6,0.7c0,0.4-0.3,0.7-0.6,0.7c-0.4,0-0.6-0.3-0.6-0.7
						C171.4,209.1,171.7,208.8,172.1,208.8z"/>
					<path fill="#546E7A" d="M177.7,204.3c-0.3-0.3-0.7-0.5-1.1-0.5c-1,0-1.8,0.7-1.8,2.9c0.4-0.5,1-0.9,1.6-0.9c1.2,0,2,0.7,2,2.1
						c0,1.3-0.9,2.2-2,2.2c-1.4,0-2.4-1.1-2.4-3.3c0-2.8,1.3-3.8,2.6-3.8c0.7,0,1.3,0.3,1.7,0.7L177.7,204.3z M177.5,207.9
						c0-0.9-0.4-1.5-1.3-1.5c-0.4,0-1,0.3-1.4,0.9c0.1,1.3,0.6,2.1,1.5,2.1C177,209.4,177.5,208.8,177.5,207.9z"/>
					<path fill="#546E7A" d="M179.2,205c0-1.4,0.6-2.2,1.6-2.2c1,0,1.6,0.8,1.6,2.2s-0.6,2.2-1.6,2.2
						C179.8,207.3,179.2,206.4,179.2,205z M181.7,205c0-1.1-0.4-1.7-0.9-1.7c-0.6,0-0.9,0.5-0.9,1.7c0,1.1,0.4,1.7,0.9,1.7
						C181.3,206.7,181.7,206.1,181.7,205z M181,210.1l3.9-7.3h0.6l-3.9,7.3H181z M184.1,207.9c0-1.4,0.6-2.2,1.6-2.2
						c1,0,1.6,0.8,1.6,2.2c0,1.4-0.6,2.2-1.6,2.2C184.7,210.1,184.1,209.3,184.1,207.9z M186.6,207.9c0-1.1-0.4-1.7-0.9-1.7
						s-0.9,0.6-0.9,1.7c0,1.1,0.4,1.7,0.9,1.7S186.6,209,186.6,207.9z"/>
				</g>
				<line fill="#90A4AE" stroke="#E1E1E1" stroke-width="0.5" stroke-miterlimit="10" x1="20.3" y1="193.3" x2="191.3" y2="193.3"/>
				<g>
					<path fill="#90A4AE" d="M21.3,228.9h1.4v6.8h3.3v1.2h-4.8V228.9z"/>
					<path fill="#90A4AE" d="M29.7,230.8c1.5,0,2.9,1.2,2.9,3.2c0,2-1.4,3.2-2.9,3.2c-1.5,0-2.9-1.2-2.9-3.2
						C26.8,231.9,28.2,230.8,29.7,230.8z M29.7,236c0.9,0,1.4-0.8,1.4-2c0-1.2-0.5-2-1.4-2c-0.9,0-1.4,0.8-1.4,2
						C28.2,235.2,28.8,236,29.7,236z"/>
					<path fill="#90A4AE" d="M33.3,230.9h1.4l0.7,3.1c0.1,0.6,0.2,1.1,0.3,1.7h0c0.1-0.6,0.2-1.2,0.4-1.7l0.8-3.1h1.3l0.8,3.1
						c0.1,0.6,0.3,1.1,0.4,1.7h0c0.1-0.6,0.2-1.2,0.3-1.7l0.7-3.1h1.3l-1.5,6h-1.7l-0.7-2.8c-0.1-0.6-0.2-1.1-0.4-1.8h0
						c-0.1,0.6-0.2,1.2-0.4,1.8l-0.7,2.8h-1.6L33.3,230.9z"/>
					<path fill="#90A4AE" d="M45.7,228.9h1.4v8h-1.4V228.9z"/>
					<path fill="#90A4AE" d="M49,230.9h1.2l0.1,0.8h0c0.5-0.5,1.2-1,2-1c1.3,0,1.9,0.9,1.9,2.4v3.8h-1.4v-3.6c0-1-0.3-1.4-0.9-1.4
						c-0.5,0-0.9,0.3-1.4,0.8v4.2H49V230.9z"/>
					<path fill="#90A4AE" d="M58.6,230.8c0.8,0,1.4,0.3,1.8,0.7l-0.7,0.9c-0.3-0.3-0.6-0.4-1-0.4c-1,0-1.6,0.8-1.6,2
						c0,1.2,0.7,2,1.6,2c0.5,0,0.9-0.2,1.2-0.5l0.6,0.9c-0.6,0.5-1.3,0.8-2,0.8c-1.6,0-2.9-1.2-2.9-3.2
						C55.5,231.9,56.9,230.8,58.6,230.8z"/>
					<path fill="#90A4AE" d="M63.8,230.8c1.5,0,2.9,1.2,2.9,3.2c0,2-1.4,3.2-2.9,3.2c-1.5,0-2.9-1.2-2.9-3.2
						C60.9,231.9,62.3,230.8,63.8,230.8z M63.8,236c0.9,0,1.4-0.8,1.4-2c0-1.2-0.5-2-1.4-2c-0.9,0-1.4,0.8-1.4,2
						C62.4,235.2,62.9,236,63.8,236z"/>
					<path fill="#90A4AE" d="M68.1,230.9h1.2l0.1,0.8h0c0.5-0.5,1.1-1,1.8-1c0.9,0,1.4,0.4,1.7,1.1c0.6-0.6,1.2-1.1,1.9-1.1
						c1.3,0,1.9,0.9,1.9,2.4v3.8h-1.4v-3.6c0-1-0.3-1.4-0.9-1.4c-0.4,0-0.8,0.2-1.3,0.8v4.2h-1.4v-3.6c0-1-0.3-1.4-0.9-1.4
						c-0.4,0-0.8,0.2-1.3,0.8v4.2h-1.4V230.9z"/>
					<path fill="#90A4AE" d="M80.8,230.8c1.6,0,2.5,1.2,2.5,2.9c0,0.3,0,0.5-0.1,0.7h-3.8c0.1,1.1,0.8,1.7,1.8,1.7
						c0.5,0,1-0.2,1.4-0.4l0.5,0.9c-0.6,0.4-1.3,0.7-2.1,0.7c-1.7,0-3-1.2-3-3.2C78,232,79.4,230.8,80.8,230.8z M82.1,233.4
						c0-1-0.4-1.5-1.2-1.5c-0.7,0-1.3,0.5-1.5,1.5H82.1z"/>
					<path fill="#90A4AE" d="M86.8,236.1c2.2-2.1,3.5-3.5,3.5-4.7c0-0.8-0.5-1.4-1.3-1.4c-0.6,0-1.1,0.4-1.5,0.9l-0.8-0.8
						c0.7-0.8,1.4-1.2,2.5-1.2c1.5,0,2.5,0.9,2.5,2.4c0,1.4-1.3,2.8-2.8,4.5c0.4,0,0.9-0.1,1.3-0.1H92v1.2h-5.3V236.1z"/>
					<path fill="#90A4AE" d="M93.1,233.4H96v1h-2.9V233.4z"/>
					<path fill="#90A4AE" d="M102.5,235h-1v2h-1.3v-2h-3.5v-1l3.1-4.8h1.7v4.7h1V235z M100.2,233.9v-1.8c0-0.5,0-1.2,0.1-1.6h0
						c-0.2,0.4-0.4,0.8-0.6,1.2l-1.4,2.2H100.2z"/>
					<path fill="#90A4AE" d="M103.8,235.4c0.5,0.4,1.1,0.7,1.7,0.7c0.7,0,1-0.3,1-0.7c0-0.5-0.7-0.7-1.3-1c-0.8-0.3-1.7-0.8-1.7-1.8
						c0-1.1,0.8-1.8,2.2-1.8c0.8,0,1.5,0.3,2,0.7l-0.7,0.9c-0.4-0.3-0.8-0.5-1.3-0.5c-0.6,0-0.9,0.3-0.9,0.7c0,0.5,0.6,0.7,1.3,0.9
						c0.8,0.3,1.7,0.7,1.7,1.8c0,1-0.8,1.9-2.3,1.9c-0.8,0-1.7-0.4-2.3-0.8L103.8,235.4z"/>
				</g>
				<g>
					<path fill="#546E7A" d="M160.8,235.3h1.6v-5.1h-1.3v-0.6c0.6-0.1,1.1-0.3,1.5-0.5h0.7v6.2h1.4v0.7h-3.9V235.3z"/>
					<path fill="#546E7A" d="M170.4,234.2h-0.9v1.9h-0.8v-1.9h-3.1v-0.6l2.9-4.4h1v4.3h0.9V234.2z M168.6,233.5v-2
						c0-0.4,0-1,0.1-1.3h0c-0.2,0.3-0.4,0.6-0.6,1l-1.6,2.4H168.6z"/>
					<path fill="#546E7A" d="M172.1,234.8c0.3,0,0.6,0.3,0.6,0.7c0,0.4-0.3,0.7-0.6,0.7c-0.4,0-0.6-0.3-0.6-0.7
						C171.4,235.1,171.7,234.8,172.1,234.8z"/>
					<path fill="#546E7A" d="M174.3,235.3h1.6v-5.1h-1.3v-0.6c0.6-0.1,1.1-0.3,1.5-0.5h0.7v6.2h1.4v0.7h-3.9V235.3z"/>
					<path fill="#546E7A" d="M179.2,231.1c0-1.4,0.6-2.2,1.6-2.2c1,0,1.6,0.8,1.6,2.2s-0.6,2.2-1.6,2.2
						C179.8,233.3,179.2,232.5,179.2,231.1z M181.7,231.1c0-1.1-0.4-1.7-0.9-1.7c-0.6,0-0.9,0.5-0.9,1.7c0,1.1,0.4,1.7,0.9,1.7
						C181.3,232.8,181.7,232.2,181.7,231.1z M181,236.2l3.9-7.3h0.6l-3.9,7.3H181z M184.1,234c0-1.4,0.6-2.2,1.6-2.2
						c1,0,1.6,0.8,1.6,2.2c0,1.4-0.6,2.2-1.6,2.2C184.7,236.2,184.1,235.4,184.1,234z M186.6,234c0-1.1-0.4-1.7-0.9-1.7
						s-0.9,0.6-0.9,1.7c0,1.1,0.4,1.7,0.9,1.7S186.6,235.1,186.6,234z"/>
				</g>
				<line fill="#90A4AE" stroke="#E1E1E1" stroke-width="0.5" stroke-miterlimit="10" x1="20.3" y1="219.2" x2="191.3" y2="219.2"/>
				<line fill="#90A4AE" stroke="#E1E1E1" stroke-width="0.5" stroke-miterlimit="10" x1="20.3" y1="245.1" x2="191.3" y2="245.1"/>
			</g>
			<g>
				<path fill="#90A4AE" d="M22.5,262.8h4.4v0.8h-3.5v2.6h2.9v0.8h-2.9v3.4h-1V262.8z"/>
				<path fill="#90A4AE" d="M27.9,264.8h1v3.5c0,1.1,0.3,1.5,1.1,1.5c0.6,0,1-0.3,1.5-1v-4h1v5.7h-0.8l-0.1-0.9h0
					c-0.5,0.6-1.1,1-1.9,1c-1.2,0-1.7-0.8-1.7-2.2V264.8z"/>
				<path fill="#90A4AE" d="M34.3,262.2h1v7.3c0,0.3,0.1,0.4,0.3,0.4c0.1,0,0.1,0,0.2,0l0.1,0.7c-0.1,0.1-0.3,0.1-0.5,0.1
					c-0.7,0-1-0.5-1-1.3V262.2z"/>
				<path fill="#90A4AE" d="M37.3,262.2h1v7.3c0,0.3,0.1,0.4,0.3,0.4c0.1,0,0.1,0,0.2,0l0.1,0.7c-0.1,0.1-0.3,0.1-0.5,0.1
					c-0.7,0-1-0.5-1-1.3V262.2z"/>
				<path fill="#90A4AE" d="M42.5,269.2c0.5,0.4,1,0.7,1.7,0.7c0.7,0,1.1-0.4,1.1-0.9c0-0.6-0.7-0.8-1.3-1.1
					c-0.8-0.3-1.7-0.7-1.7-1.6c0-0.9,0.7-1.6,2-1.6c0.7,0,1.3,0.3,1.8,0.6l-0.5,0.6c-0.4-0.3-0.8-0.5-1.3-0.5c-0.7,0-1,0.4-1,0.8
					c0,0.5,0.6,0.7,1.3,1c0.8,0.3,1.7,0.6,1.7,1.7c0,0.9-0.7,1.7-2.1,1.7c-0.8,0-1.6-0.3-2.1-0.8L42.5,269.2z"/>
				<path fill="#90A4AE" d="M47.7,265.6h-0.8v-0.7l0.9-0.1l0.1-1.6h0.8v1.6h1.5v0.8h-1.5v3.2c0,0.7,0.2,1.1,0.9,1.1
					c0.2,0,0.5-0.1,0.6-0.2l0.2,0.7c-0.3,0.1-0.7,0.2-1.1,0.2c-1.2,0-1.6-0.8-1.6-1.9V265.6z"/>
				<path fill="#90A4AE" d="M54.5,266.9c0-0.7-0.2-1.4-1.2-1.4c-0.7,0-1.3,0.3-1.7,0.6l-0.4-0.7c0.5-0.3,1.3-0.7,2.2-0.7
					c1.4,0,2,0.9,2,2.3v3.5h-0.8l-0.1-0.7h0c-0.6,0.4-1.2,0.8-1.9,0.8c-1,0-1.7-0.6-1.7-1.6C51,267.8,52.1,267.2,54.5,266.9z
					 M53,269.9c0.6,0,1-0.3,1.6-0.8v-1.6c-1.9,0.2-2.6,0.7-2.6,1.4C52,269.6,52.4,269.9,53,269.9z"/>
				<path fill="#90A4AE" d="M57.5,265.6h-0.8v-0.7l0.9-0.1l0.1-1.6h0.8v1.6H60v0.8h-1.5v3.2c0,0.7,0.2,1.1,0.9,1.1
					c0.2,0,0.5-0.1,0.6-0.2l0.2,0.7c-0.3,0.1-0.7,0.2-1.1,0.2c-1.2,0-1.6-0.8-1.6-1.9V265.6z"/>
				<path fill="#90A4AE" d="M63.3,264.7c1.5,0,2.3,1,2.3,2.7c0,0.2,0,0.4,0,0.5h-3.8c0.1,1.2,0.8,2,1.9,2c0.5,0,1-0.2,1.4-0.4
					l0.3,0.6c-0.5,0.3-1.1,0.6-1.9,0.6c-1.5,0-2.7-1.1-2.7-3C60.7,265.8,62,264.7,63.3,264.7z M64.7,267.2c0-1.2-0.5-1.8-1.4-1.8
					c-0.8,0-1.5,0.7-1.6,1.8H64.7z"/>
				<path fill="#90A4AE" d="M69.3,262.2h1v2.3l0,1c0.5-0.5,1.1-0.8,1.8-0.8c1.5,0,2.3,1.1,2.3,2.9c0,1.9-1.2,3.1-2.5,3.1
					c-0.5,0-1.1-0.3-1.6-0.7h0l-0.1,0.6h-0.8V262.2z M71.7,269.8c0.9,0,1.6-0.9,1.6-2.3c0-1.3-0.4-2.1-1.5-2.1c-0.5,0-1,0.3-1.5,0.8
					v3C70.8,269.7,71.3,269.8,71.7,269.8z"/>
				<path fill="#90A4AE" d="M75.8,264.8h0.8l0.1,1h0c0.4-0.7,1-1.2,1.6-1.2c0.2,0,0.4,0,0.6,0.1l-0.2,0.8c-0.2-0.1-0.3-0.1-0.6-0.1
					c-0.5,0-1.1,0.4-1.4,1.3v3.7h-1V264.8z"/>
				<path fill="#90A4AE" d="M79.7,263c0-0.4,0.3-0.6,0.7-0.6s0.7,0.2,0.7,0.6c0,0.4-0.3,0.6-0.7,0.6S79.7,263.4,79.7,263z
					 M79.9,264.8h1v5.7h-1V264.8z"/>
				<path fill="#90A4AE" d="M84.9,264.7c1.5,0,2.3,1,2.3,2.7c0,0.2,0,0.4,0,0.5h-3.8c0.1,1.2,0.8,2,1.9,2c0.5,0,1-0.2,1.4-0.4
					l0.3,0.6c-0.5,0.3-1.1,0.6-1.9,0.6c-1.5,0-2.7-1.1-2.7-3C82.3,265.8,83.6,264.7,84.9,264.7z M86.3,267.2c0-1.2-0.5-1.8-1.4-1.8
					c-0.8,0-1.5,0.7-1.6,1.8H86.3z"/>
				<path fill="#90A4AE" d="M91.1,262.9c-0.2-0.1-0.4-0.1-0.6-0.1c-0.5,0-0.8,0.4-0.8,1.1v0.9h1.2v0.8h-1.2v4.9h-1v-4.9H88v-0.7
					l0.8-0.1v-0.9c0-1.2,0.5-1.9,1.7-1.9c0.4,0,0.7,0.1,0.9,0.2L91.1,262.9z"/>
				<path fill="#90A4AE" d="M21.4,272v-0.6H91v0.6H21.4z"/>
			</g>
		</g>
	</g>
	<g>
		<rect x="235.1" fill="#FFFFFF" width="211.5" height="302"/>
		<rect x="411.5" fill="#A6273C" width="35.1" height="35.1"/>
		<g>
			<path fill="#EDEDED" d="M421.5,21.3c2.8-2.8,4.3-4.4,4.3-5.9c0-1.1-0.6-1.8-1.7-1.8c-0.8,0-1.4,0.5-2,1.1l-0.7-0.7
				c0.8-0.8,1.6-1.4,2.8-1.4c1.7,0,2.8,1.1,2.8,2.7c0,1.7-1.6,3.4-3.7,5.7c0.5,0,1.1-0.1,1.5-0.1h2.7v1h-5.9V21.3z"/>
			<path fill="#EDEDED" d="M428.9,13.4h1.1l1.8,3.3l0.6,1.3h0c0-0.6-0.1-1.4-0.1-2v-2.6h1v5.9h-1.1l-1.8-3.3l-0.6-1.3h0
				c0,0.6,0.1,1.3,0.1,2v2.6h-1V13.4z"/>
			<path fill="#EDEDED" d="M434.8,13.4h1.6c1.8,0,2.9,1,2.9,2.9c0,2-1.1,3-2.8,3h-1.6V13.4z M436.3,18.4c1.2,0,1.9-0.7,1.9-2.1
				c0-1.4-0.7-2.1-1.9-2.1h-0.5v4.2H436.3z"/>
		</g>
		<g>
			<path fill="#184D5B" d="M309.1,101.7h7.9v1.5h-6.2v4.7h5.2v1.5h-5.2v6.2h-1.7V101.7z"/>
			<path fill="#184D5B" d="M319.3,100.5h1.7v13c0,0.5,0.2,0.8,0.5,0.8c0.1,0,0.2,0,0.4,0l0.2,1.3c-0.2,0.1-0.5,0.2-1,0.2
				c-1.3,0-1.8-0.8-1.8-2.3V100.5z"/>
			<path fill="#184D5B" d="M328.6,105c2.5,0,4.7,2,4.7,5.4c0,3.4-2.2,5.3-4.7,5.3s-4.7-2-4.7-5.3C323.9,107,326.2,105,328.6,105z
				 M328.6,114.3c1.8,0,2.9-1.6,2.9-3.9c0-2.4-1.2-3.9-2.9-3.9c-1.7,0-2.9,1.6-2.9,3.9C325.7,112.7,326.9,114.3,328.6,114.3z"/>
			<path fill="#184D5B" d="M336.1,105.3h1.4l0.1,1.8h0.1c0.7-1.3,1.7-2.1,2.9-2.1c0.4,0,0.8,0.1,1.1,0.2l-0.3,1.5
				c-0.3-0.1-0.6-0.2-1-0.2c-0.9,0-1.9,0.6-2.6,2.4v6.6h-1.7V105.3z"/>
			<path fill="#184D5B" d="M343,102.1c0-0.7,0.5-1.1,1.2-1.1s1.2,0.4,1.2,1.1c0,0.7-0.5,1.1-1.2,1.1S343,102.7,343,102.1z
				 M343.3,105.3h1.7v10.2h-1.7V105.3z"/>
			<path fill="#184D5B" d="M352.2,105c1.2,0,2,0.4,2.9,1.2l-0.1-1.7v-3.9h1.7v14.9h-1.4l-0.1-1.2h-0.1c-0.8,0.8-1.9,1.4-3.1,1.4
				c-2.6,0-4.2-1.9-4.2-5.3C347.8,107.1,349.9,105,352.2,105z M352.4,114.3c0.9,0,1.8-0.5,2.6-1.4v-5.3c-0.9-0.8-1.6-1.1-2.5-1.1
				c-1.6,0-2.9,1.6-2.9,3.9C349.6,112.8,350.6,114.3,352.4,114.3z"/>
			<path fill="#184D5B" d="M365.9,109c0-1.3-0.4-2.6-2.1-2.6c-1.2,0-2.2,0.5-3,1.1l-0.7-1.2c0.9-0.6,2.4-1.3,4-1.3
				c2.5,0,3.5,1.7,3.5,4.2v6.3h-1.4l-0.1-1.2h0c-1,0.8-2.1,1.5-3.4,1.5c-1.7,0-3-1.1-3-2.9C359.7,110.6,361.6,109.5,365.9,109z
				 M363.2,114.4c1,0,1.8-0.5,2.8-1.4v-2.8c-3.4,0.4-4.6,1.3-4.6,2.6C361.4,113.9,362.1,114.4,363.2,114.4z"/>
		</g>
		<g>
			<path fill="#90A4AE" d="M256.4,176.1h1.4v3.2h3.3v-3.2h1.4v8H261v-3.6h-3.3v3.6h-1.4V176.1z"/>
			<path fill="#90A4AE" d="M264.2,176.3c0-0.5,0.4-0.8,0.9-0.8c0.5,0,0.9,0.3,0.9,0.8c0,0.5-0.4,0.8-0.9,0.8
				C264.6,177.1,264.2,176.7,264.2,176.3z M264.4,178.1h1.4v6h-1.4V178.1z"/>
			<path fill="#90A4AE" d="M268.1,184L268.1,184c-0.3-0.2-0.5-0.6-0.5-1.1c0-0.5,0.3-0.9,0.7-1.1v0c-0.4-0.3-0.8-0.9-0.8-1.6
				c0-1.4,1.1-2.2,2.4-2.2c0.3,0,0.6,0.1,0.9,0.1h2.2v1h-1.1c0.2,0.2,0.3,0.6,0.3,1c0,1.3-1,2.1-2.3,2.1c-0.3,0-0.6,0-0.8-0.2
				c-0.2,0.2-0.3,0.3-0.3,0.6c0,0.3,0.2,0.6,1,0.6h1.1c1.5,0,2.2,0.4,2.2,1.5c0,1.2-1.3,2.1-3.2,2.1c-1.4,0-2.5-0.5-2.5-1.6
				C267.2,184.8,267.5,184.3,268.1,184z M269.9,185.9c1,0,1.6-0.5,1.6-1c0-0.5-0.4-0.6-1.1-0.6h-0.8c-0.3,0-0.6,0-0.8-0.1
				c-0.3,0.2-0.5,0.5-0.5,0.8C268.4,185.6,269,185.9,269.9,185.9z M270.8,180.2c0-0.8-0.5-1.2-1-1.2s-1.1,0.4-1.1,1.2
				c0,0.8,0.5,1.2,1.1,1.2C270.4,181.4,270.8,180.9,270.8,180.2z"/>
			<path fill="#90A4AE" d="M274,175.5h1.4v2.2l0,1.2c0.5-0.5,1.1-0.9,1.9-0.9c1.3,0,1.9,0.9,1.9,2.4v3.8h-1.4v-3.6
				c0-1-0.3-1.4-0.9-1.4c-0.5,0-0.9,0.3-1.4,0.8v4.2H274V175.5z"/>
			<path fill="#90A4AE" d="M283.8,182.2c0.6,0.5,1.4,0.9,2.1,0.9c0.9,0,1.4-0.4,1.4-1c0-0.7-0.5-0.9-1.2-1.2l-1.1-0.5
				c-0.8-0.3-1.6-1-1.6-2.1c0-1.3,1.1-2.3,2.7-2.3c0.9,0,1.8,0.4,2.5,1l-0.7,0.9c-0.5-0.4-1.1-0.7-1.7-0.7c-0.8,0-1.3,0.4-1.3,0.9
				c0,0.6,0.6,0.9,1.3,1.1l1.1,0.5c0.9,0.4,1.6,1,1.6,2.2c0,1.3-1.1,2.4-2.9,2.4c-1.1,0-2.1-0.4-2.9-1.2L283.8,182.2z"/>
			<path fill="#90A4AE" d="M292.7,178c0.8,0,1.4,0.3,1.8,0.7l-0.7,0.9c-0.3-0.3-0.6-0.4-1-0.4c-1,0-1.6,0.8-1.6,2c0,1.2,0.7,2,1.6,2
				c0.5,0,0.9-0.2,1.2-0.5l0.6,0.9c-0.6,0.5-1.3,0.8-2,0.8c-1.6,0-2.9-1.2-2.9-3.2C289.7,179.1,291.1,178,292.7,178z"/>
			<path fill="#90A4AE" d="M295.8,175.5h1.4v2.2l0,1.2c0.5-0.5,1.1-0.9,1.9-0.9c1.3,0,1.9,0.9,1.9,2.4v3.8h-1.4v-3.6
				c0-1-0.3-1.4-0.9-1.4c-0.5,0-0.9,0.3-1.4,0.8v4.2h-1.4V175.5z"/>
			<path fill="#90A4AE" d="M305.1,178c1.5,0,2.9,1.2,2.9,3.2c0,2-1.4,3.2-2.9,3.2c-1.5,0-2.9-1.2-2.9-3.2
				C302.2,179.1,303.6,178,305.1,178z M305.1,183.2c0.9,0,1.4-0.8,1.4-2c0-1.2-0.5-2-1.4-2c-0.9,0-1.4,0.8-1.4,2
				C303.7,182.4,304.2,183.2,305.1,183.2z"/>
			<path fill="#90A4AE" d="M311.8,178c1.5,0,2.9,1.2,2.9,3.2c0,2-1.4,3.2-2.9,3.2c-1.5,0-2.9-1.2-2.9-3.2
				C309,179.1,310.3,178,311.8,178z M311.8,183.2c0.9,0,1.4-0.8,1.4-2c0-1.2-0.5-2-1.4-2c-0.9,0-1.4,0.8-1.4,2
				C310.4,182.4,311,183.2,311.8,183.2z"/>
			<path fill="#90A4AE" d="M316.1,175.5h1.4v7.2c0,0.3,0.2,0.5,0.3,0.5c0.1,0,0.1,0,0.2,0l0.2,1.1c-0.2,0.1-0.4,0.1-0.8,0.1
				c-1,0-1.4-0.7-1.4-1.7V175.5z"/>
			<path fill="#90A4AE" d="M321.8,178c1.6,0,2.5,1.2,2.5,2.9c0,0.3,0,0.5-0.1,0.7h-3.8c0.1,1.1,0.8,1.7,1.8,1.7c0.5,0,1-0.2,1.4-0.4
				l0.5,0.9c-0.6,0.4-1.3,0.7-2.1,0.7c-1.7,0-3-1.2-3-3.2C319.1,179.2,320.4,178,321.8,178z M323.1,180.6c0-1-0.4-1.5-1.2-1.5
				c-0.7,0-1.3,0.5-1.5,1.5H323.1z"/>
			<path fill="#90A4AE" d="M325.7,178.1h1.2l0.1,1.1h0c0.4-0.8,1.1-1.2,1.7-1.2c0.3,0,0.5,0,0.7,0.1l-0.2,1.2
				c-0.2-0.1-0.4-0.1-0.6-0.1c-0.5,0-1.1,0.3-1.4,1.2v3.7h-1.4V178.1z"/>
			<path fill="#90A4AE" d="M330.2,182.6c0.5,0.4,1.1,0.7,1.7,0.7c0.7,0,1-0.3,1-0.7c0-0.5-0.7-0.7-1.3-1c-0.8-0.3-1.7-0.8-1.7-1.8
				c0-1.1,0.8-1.8,2.2-1.8c0.8,0,1.5,0.3,2,0.7l-0.7,0.9c-0.4-0.3-0.8-0.5-1.3-0.5c-0.6,0-0.9,0.3-0.9,0.7c0,0.5,0.6,0.7,1.3,0.9
				c0.8,0.3,1.7,0.7,1.7,1.8c0,1-0.8,1.9-2.3,1.9c-0.8,0-1.7-0.4-2.3-0.8L330.2,182.6z"/>
		</g>
		<g>
			<path fill="#546E7A" d="M395.9,182.5h1.6v-5.1h-1.3v-0.6c0.6-0.1,1.1-0.3,1.5-0.5h0.7v6.2h1.4v0.7h-3.9V182.5z"/>
			<path fill="#546E7A" d="M402.2,179.7L402.2,179.7c-0.5-0.4-1-0.9-1-1.6c0-1.1,0.8-1.8,2-1.8c1.2,0,1.9,0.8,1.9,1.8
				c0,0.7-0.5,1.3-1,1.7v0c0.6,0.4,1.2,0.8,1.2,1.8c0,1-0.9,1.8-2.2,1.8c-1.3,0-2.3-0.8-2.3-1.9C400.9,180.6,401.5,180,402.2,179.7z
				 M403.1,182.7c0.8,0,1.3-0.5,1.3-1.2c0-0.9-0.9-1.2-1.9-1.6c-0.6,0.4-1,0.9-1,1.5C401.7,182.2,402.3,182.7,403.1,182.7z
				 M404.3,178.1c0-0.7-0.4-1.2-1.2-1.2c-0.6,0-1.1,0.4-1.1,1.1c0,0.8,0.8,1.2,1.6,1.5C404.1,179.1,404.3,178.6,404.3,178.1z"/>
			<path fill="#546E7A" d="M407.1,182c0.3,0,0.6,0.3,0.6,0.7c0,0.4-0.3,0.7-0.6,0.7c-0.4,0-0.6-0.3-0.6-0.7
				C406.5,182.3,406.8,182,407.1,182z"/>
			<path fill="#546E7A" d="M408.9,182.7c2.1-2.1,3.2-3.3,3.2-4.4c0-0.8-0.4-1.3-1.3-1.3c-0.6,0-1.1,0.4-1.5,0.8l-0.5-0.5
				c0.6-0.6,1.2-1,2.1-1c1.3,0,2.1,0.8,2.1,2c0,1.3-1.2,2.6-2.8,4.3c0.4,0,0.8-0.1,1.2-0.1h2v0.8h-4.5V182.7z"/>
			<path fill="#546E7A" d="M414.2,178.3c0-1.4,0.6-2.2,1.6-2.2c1,0,1.6,0.8,1.6,2.2s-0.6,2.2-1.6,2.2
				C414.9,180.5,414.2,179.7,414.2,178.3z M416.8,178.3c0-1.1-0.4-1.7-0.9-1.7c-0.6,0-0.9,0.5-0.9,1.7c0,1.1,0.4,1.7,0.9,1.7
				C416.4,180,416.8,179.4,416.8,178.3z M416,183.4l3.9-7.3h0.6l-3.9,7.3H416z M419.2,181.2c0-1.4,0.6-2.2,1.6-2.2
				c1,0,1.6,0.8,1.6,2.2c0,1.4-0.6,2.2-1.6,2.2C419.8,183.4,419.2,182.6,419.2,181.2z M421.7,181.2c0-1.1-0.4-1.7-0.9-1.7
				s-0.9,0.6-0.9,1.7c0,1.1,0.4,1.7,0.9,1.7S421.7,182.3,421.7,181.2z"/>
		</g>
		<g>
			<path fill="#455A64" d="M261.8,150.4h-3.7l-0.9,3h-2l3.6-11h2.3l3.6,11h-2.1L261.8,150.4z M261.4,148.8l-0.4-1.3
				c-0.4-1.2-0.7-2.4-1-3.6H260c-0.3,1.2-0.6,2.5-1,3.6l-0.4,1.3H261.4z"/>
			<path fill="#455A64" d="M268.9,144.9c0.9,0,1.5,0.4,2.2,0.9l-0.1-1.3v-3h1.9v11.9h-1.6l-0.1-0.9h-0.1c-0.6,0.6-1.4,1.1-2.3,1.1
				c-2.1,0-3.4-1.6-3.4-4.3C265.4,146.5,267.1,144.9,268.9,144.9z M269.3,151.9c0.6,0,1.2-0.3,1.7-0.9v-3.9
				c-0.6-0.5-1.1-0.7-1.7-0.7c-1.1,0-1.9,1-1.9,2.7C267.5,151,268.1,151.9,269.3,151.9z"/>
			<path fill="#455A64" d="M275.4,145.1h1.9v4.9c0,1.4,0.4,1.9,1.3,1.9c0.7,0,1.2-0.3,1.8-1.1v-5.7h1.9v8.3h-1.6l-0.2-1.2h-0.1
				c-0.7,0.9-1.5,1.4-2.7,1.4c-1.8,0-2.5-1.2-2.5-3.3V145.1z"/>
			<path fill="#455A64" d="M284.8,141.5h1.9v9.9c0,0.5,0.2,0.6,0.4,0.6c0.1,0,0.2,0,0.3,0l0.3,1.4c-0.2,0.1-0.6,0.2-1,0.2
				c-1.4,0-1.9-0.9-1.9-2.3V141.5z"/>
			<path fill="#455A64" d="M289.7,146.6h-1.2v-1.4l1.3-0.1l0.2-2.3h1.6v2.3h2.1v1.5h-2.1v3.9c0,1,0.4,1.4,1.2,1.4
				c0.3,0,0.6-0.1,0.9-0.2l0.3,1.4c-0.5,0.2-1,0.3-1.7,0.3c-1.9,0-2.6-1.2-2.6-3V146.6z"/>
			<path fill="#455A64" d="M295.5,151.1c0.7,0.6,1.4,0.9,2.3,0.9c0.9,0,1.3-0.4,1.3-1c0-0.7-0.9-1-1.8-1.3c-1.1-0.4-2.3-1-2.3-2.4
				c0-1.4,1.2-2.5,3-2.5c1.1,0,2.1,0.5,2.7,1l-0.9,1.2c-0.6-0.4-1.2-0.7-1.8-0.7c-0.8,0-1.2,0.4-1.2,0.9c0,0.7,0.8,0.9,1.7,1.2
				c1.1,0.4,2.4,1,2.4,2.5c0,1.4-1.1,2.6-3.2,2.6c-1.1,0-2.3-0.5-3.1-1.1L295.5,151.1z"/>
		</g>
		<g>
			<path fill="#546E7A" d="M381.8,151.1c0.6,0.7,1.5,1.3,2.7,1.3c1.3,0,2.2-0.8,2.2-2c0-1.3-0.9-2.1-3.4-2.1v-1.1c2.3,0,3-0.9,3-2
				c0-1-0.7-1.7-1.9-1.7c-0.9,0-1.6,0.5-2.3,1.1l-0.7-0.9c0.8-0.8,1.8-1.3,3.1-1.3c1.9,0,3.2,1,3.2,2.7c0,1.3-0.8,2.1-2,2.6v0.1
				c1.3,0.3,2.3,1.2,2.3,2.7c0,1.9-1.6,3.1-3.5,3.1c-1.7,0-2.8-0.7-3.5-1.5L381.8,151.1z"/>
			<path fill="#546E7A" d="M390.3,152.2h2.5v-7.9h-2v-0.9c1-0.2,1.7-0.4,2.3-0.8h1.1v9.6h2.2v1.1h-6.1V152.2z"/>
			<path fill="#546E7A" d="M399.5,151.4c0.5,0,1,0.4,1,1.1c0,0.6-0.5,1-1,1c-0.6,0-1-0.4-1-1C398.5,151.9,398.9,151.4,399.5,151.4z"
				/>
			<path fill="#546E7A" d="M402.7,151.2c0.6,0.6,1.4,1.2,2.7,1.2c1.3,0,2.4-1,2.4-2.5c0-1.5-0.9-2.4-2.3-2.4c-0.7,0-1.2,0.2-1.8,0.7
				l-0.7-0.5l0.4-5.2h5.4v1.2h-4.2l-0.3,3.2c0.5-0.3,1-0.4,1.6-0.4c1.8,0,3.3,1,3.3,3.4c0,2.3-1.8,3.6-3.6,3.6
				c-1.7,0-2.8-0.7-3.5-1.5L402.7,151.2z"/>
			<path fill="#546E7A" d="M410.5,145.6c0-2.2,1-3.5,2.5-3.5c1.5,0,2.5,1.2,2.5,3.5c0,2.2-1,3.5-2.5,3.5
				C411.5,149.1,410.5,147.8,410.5,145.6z M414.5,145.6c0-1.8-0.6-2.6-1.4-2.6c-0.9,0-1.5,0.8-1.5,2.6c0,1.8,0.6,2.6,1.5,2.6
				C413.9,148.2,414.5,147.3,414.5,145.6z M413.4,153.5l6.1-11.4h0.9l-6.1,11.4H413.4z M418.2,150c0-2.2,1-3.5,2.5-3.5
				c1.5,0,2.5,1.3,2.5,3.5c0,2.2-1,3.5-2.5,3.5C419.2,153.5,418.2,152.3,418.2,150z M422.2,150c0-1.8-0.6-2.6-1.4-2.6
				c-0.9,0-1.5,0.9-1.5,2.6s0.6,2.6,1.5,2.6C421.6,152.7,422.2,151.8,422.2,150z"/>
		</g>
		<line fill="#90A4AE" stroke="#E1E1E1" stroke-width="0.5" stroke-miterlimit="10" x1="255.3" y1="167.3" x2="426.4" y2="167.3"/>
		<g>
			<path fill="#90A4AE" d="M256.2,209.8h1.7v-5.1h-1.4v-0.9c0.8-0.1,1.3-0.3,1.8-0.6h1.1v6.7h1.5v1.2h-4.7V209.8z"/>
			<path fill="#90A4AE" d="M262.1,207c0-2.6,1-4,2.7-4s2.7,1.4,2.7,4c0,2.6-1,4.1-2.7,4.1S262.1,209.6,262.1,207z M266.1,207
				c0-2.2-0.5-2.9-1.3-2.9c-0.8,0-1.3,0.7-1.3,2.9c0,2.2,0.6,3,1.3,3C265.6,210,266.1,209.2,266.1,207z"/>
			<path fill="#90A4AE" d="M268.5,207.3h2.9v1h-2.9V207.3z"/>
			<path fill="#90A4AE" d="M272.8,209.8h1.7v-5.1h-1.4v-0.9c0.8-0.1,1.3-0.3,1.8-0.6h1.1v6.7h1.5v1.2h-4.7V209.8z"/>
			<path fill="#90A4AE" d="M282.5,204.3h-3.7v-1.2h5.3v0.9c-1.8,2.3-2.2,3.9-2.3,7h-1.4C280.4,208.1,280.9,206.4,282.5,204.3z"/>
			<path fill="#90A4AE" d="M289.4,207.9l-2.4-5.1h1.5l0.9,2.1c0.2,0.6,0.5,1.2,0.7,1.8h0c0.3-0.6,0.5-1.2,0.7-1.8l0.9-2.1h1.5
				l-2.4,5.1v3h-1.4V207.9z"/>
			<path fill="#90A4AE" d="M293.6,204.9h1.2l0.1,1.1h0c0.4-0.8,1.1-1.2,1.7-1.2c0.3,0,0.5,0,0.7,0.1l-0.2,1.2
				c-0.2-0.1-0.4-0.1-0.6-0.1c-0.5,0-1.1,0.3-1.4,1.2v3.7h-1.4V204.9z"/>
			<path fill="#90A4AE" d="M297.5,207.3h2.9v1h-2.9V207.3z"/>
			<path fill="#90A4AE" d="M304.3,204.7c1.5,0,2.9,1.2,2.9,3.2c0,2-1.4,3.2-2.9,3.2c-1.5,0-2.9-1.2-2.9-3.2
				C301.4,205.9,302.8,204.7,304.3,204.7z M304.3,209.9c0.9,0,1.4-0.8,1.4-2c0-1.2-0.5-2-1.4-2c-0.9,0-1.4,0.8-1.4,2
				C302.9,209.1,303.4,209.9,304.3,209.9z"/>
			<path fill="#90A4AE" d="M308.6,202.2h1.4v7.2c0,0.3,0.2,0.5,0.3,0.5c0.1,0,0.1,0,0.2,0l0.2,1.1c-0.2,0.1-0.4,0.1-0.8,0.1
				c-1,0-1.4-0.7-1.4-1.7V202.2z"/>
			<path fill="#90A4AE" d="M314.1,204.7c0.7,0,1.1,0.3,1.6,0.7l0-1v-2.2h1.4v8.7h-1.2l-0.1-0.7h0c-0.4,0.4-1.1,0.8-1.7,0.8
				c-1.5,0-2.5-1.2-2.5-3.2C311.5,205.9,312.8,204.7,314.1,204.7z M314.4,209.9c0.5,0,0.9-0.2,1.3-0.7v-2.8
				c-0.4-0.4-0.8-0.5-1.2-0.5c-0.8,0-1.4,0.7-1.4,2C313,209.2,313.5,209.9,314.4,209.9z"/>
			<path fill="#90A4AE" d="M318.9,209.3c0.5,0.4,1.1,0.7,1.7,0.7c0.7,0,1-0.3,1-0.7c0-0.5-0.7-0.7-1.3-1c-0.8-0.3-1.7-0.8-1.7-1.8
				c0-1.1,0.8-1.8,2.2-1.8c0.8,0,1.5,0.3,2,0.7l-0.7,0.9c-0.4-0.3-0.8-0.5-1.3-0.5c-0.6,0-0.9,0.3-0.9,0.7c0,0.5,0.6,0.7,1.3,0.9
				c0.8,0.3,1.7,0.7,1.7,1.8c0,1-0.8,1.9-2.3,1.9c-0.8,0-1.7-0.4-2.3-0.8L318.9,209.3z"/>
		</g>
		<g>
			<path fill="#546E7A" d="M395.9,209.3h1.6v-5.1h-1.3v-0.6c0.6-0.1,1.1-0.3,1.5-0.5h0.7v6.2h1.4v0.7h-3.9V209.3z"/>
			<path fill="#546E7A" d="M404.3,203.9h-3.4v-0.8h4.4v0.6c-1.6,2.1-2,3.7-2.1,6.3h-0.9C402.5,207.4,403,205.8,404.3,203.9z"/>
			<path fill="#546E7A" d="M407.1,208.8c0.3,0,0.6,0.3,0.6,0.7c0,0.4-0.3,0.7-0.6,0.7c-0.4,0-0.6-0.3-0.6-0.7
				C406.5,209.1,406.8,208.8,407.1,208.8z"/>
			<path fill="#546E7A" d="M409.3,209.3h1.6v-5.1h-1.3v-0.6c0.6-0.1,1.1-0.3,1.5-0.5h0.7v6.2h1.4v0.7h-3.9V209.3z"/>
			<path fill="#546E7A" d="M414.2,205c0-1.4,0.6-2.2,1.6-2.2c1,0,1.6,0.8,1.6,2.2s-0.6,2.2-1.6,2.2
				C414.9,207.3,414.2,206.4,414.2,205z M416.8,205c0-1.1-0.4-1.7-0.9-1.7c-0.6,0-0.9,0.5-0.9,1.7c0,1.1,0.4,1.7,0.9,1.7
				C416.4,206.7,416.8,206.1,416.8,205z M416,210.1l3.9-7.3h0.6l-3.9,7.3H416z M419.2,207.9c0-1.4,0.6-2.2,1.6-2.2
				c1,0,1.6,0.8,1.6,2.2c0,1.4-0.6,2.2-1.6,2.2C419.8,210.1,419.2,209.3,419.2,207.9z M421.7,207.9c0-1.1-0.4-1.7-0.9-1.7
				s-0.9,0.6-0.9,1.7c0,1.1,0.4,1.7,0.9,1.7S421.7,209,421.7,207.9z"/>
		</g>
		<line fill="#90A4AE" stroke="#E1E1E1" stroke-width="0.5" stroke-miterlimit="10" x1="255.3" y1="193.3" x2="426.4" y2="193.3"/>
		<g>
			<path fill="#90A4AE" d="M256.4,228.9h1.4v6.8h3.3v1.2h-4.8V228.9z"/>
			<path fill="#90A4AE" d="M264.7,230.8c1.5,0,2.9,1.2,2.9,3.2c0,2-1.4,3.2-2.9,3.2c-1.5,0-2.9-1.2-2.9-3.2
				C261.8,231.9,263.2,230.8,264.7,230.8z M264.7,236c0.9,0,1.4-0.8,1.4-2c0-1.2-0.5-2-1.4-2c-0.9,0-1.4,0.8-1.4,2
				C263.3,235.2,263.8,236,264.7,236z"/>
			<path fill="#90A4AE" d="M268.3,230.9h1.4l0.7,3.1c0.1,0.6,0.2,1.1,0.3,1.7h0c0.1-0.6,0.2-1.2,0.4-1.7l0.8-3.1h1.3l0.8,3.1
				c0.1,0.6,0.3,1.1,0.4,1.7h0c0.1-0.6,0.2-1.2,0.3-1.7l0.7-3.1h1.3l-1.5,6h-1.7l-0.7-2.8c-0.1-0.6-0.2-1.1-0.4-1.8h0
				c-0.1,0.6-0.2,1.2-0.4,1.8l-0.7,2.8h-1.6L268.3,230.9z"/>
			<path fill="#90A4AE" d="M280.8,228.9h1.4v8h-1.4V228.9z"/>
			<path fill="#90A4AE" d="M284.1,230.9h1.2l0.1,0.8h0c0.5-0.5,1.2-1,2-1c1.3,0,1.9,0.9,1.9,2.4v3.8h-1.4v-3.6c0-1-0.3-1.4-0.9-1.4
				c-0.5,0-0.9,0.3-1.4,0.8v4.2h-1.4V230.9z"/>
			<path fill="#90A4AE" d="M293.6,230.8c0.8,0,1.4,0.3,1.8,0.7l-0.7,0.9c-0.3-0.3-0.6-0.4-1-0.4c-1,0-1.6,0.8-1.6,2
				c0,1.2,0.7,2,1.6,2c0.5,0,0.9-0.2,1.2-0.5l0.6,0.9c-0.6,0.5-1.3,0.8-2,0.8c-1.6,0-2.9-1.2-2.9-3.2
				C290.6,231.9,292,230.8,293.6,230.8z"/>
			<path fill="#90A4AE" d="M298.8,230.8c1.5,0,2.9,1.2,2.9,3.2c0,2-1.4,3.2-2.9,3.2c-1.5,0-2.9-1.2-2.9-3.2
				C296,231.9,297.3,230.8,298.8,230.8z M298.8,236c0.9,0,1.4-0.8,1.4-2c0-1.2-0.5-2-1.4-2c-0.9,0-1.4,0.8-1.4,2
				C297.4,235.2,298,236,298.8,236z"/>
			<path fill="#90A4AE" d="M303.1,230.9h1.2l0.1,0.8h0c0.5-0.5,1.1-1,1.8-1c0.9,0,1.4,0.4,1.7,1.1c0.6-0.6,1.2-1.1,1.9-1.1
				c1.3,0,1.9,0.9,1.9,2.4v3.8h-1.4v-3.6c0-1-0.3-1.4-0.9-1.4c-0.4,0-0.8,0.2-1.3,0.8v4.2h-1.4v-3.6c0-1-0.3-1.4-0.9-1.4
				c-0.4,0-0.8,0.2-1.3,0.8v4.2h-1.4V230.9z"/>
			<path fill="#90A4AE" d="M315.9,230.8c1.6,0,2.5,1.2,2.5,2.9c0,0.3,0,0.5-0.1,0.7h-3.8c0.1,1.1,0.8,1.7,1.8,1.7
				c0.5,0,1-0.2,1.4-0.4l0.5,0.9c-0.6,0.4-1.3,0.7-2.1,0.7c-1.7,0-3-1.2-3-3.2C313.1,232,314.5,230.8,315.9,230.8z M317.1,233.4
				c0-1-0.4-1.5-1.2-1.5c-0.7,0-1.3,0.5-1.5,1.5H317.1z"/>
			<path fill="#90A4AE" d="M321.8,236.1c2.2-2.1,3.5-3.5,3.5-4.7c0-0.8-0.5-1.4-1.3-1.4c-0.6,0-1.1,0.4-1.5,0.9l-0.8-0.8
				c0.7-0.8,1.4-1.2,2.5-1.2c1.5,0,2.5,0.9,2.5,2.4c0,1.4-1.3,2.8-2.8,4.5c0.4,0,0.9-0.1,1.3-0.1h1.9v1.2h-5.3V236.1z"/>
			<path fill="#90A4AE" d="M328.2,233.4h2.9v1h-2.9V233.4z"/>
			<path fill="#90A4AE" d="M337.6,235h-1v2h-1.3v-2h-3.5v-1l3.1-4.8h1.7v4.7h1V235z M335.3,233.9v-1.8c0-0.5,0-1.2,0.1-1.6h0
				c-0.2,0.4-0.4,0.8-0.6,1.2l-1.4,2.2H335.3z"/>
			<path fill="#90A4AE" d="M338.9,235.4c0.5,0.4,1.1,0.7,1.7,0.7c0.7,0,1-0.3,1-0.7c0-0.5-0.7-0.7-1.3-1c-0.8-0.3-1.7-0.8-1.7-1.8
				c0-1.1,0.8-1.8,2.2-1.8c0.8,0,1.5,0.3,2,0.7l-0.7,0.9c-0.4-0.3-0.8-0.5-1.3-0.5c-0.6,0-0.9,0.3-0.9,0.7c0,0.5,0.6,0.7,1.3,0.9
				c0.8,0.3,1.7,0.7,1.7,1.8c0,1-0.8,1.9-2.3,1.9c-0.8,0-1.7-0.4-2.3-0.8L338.9,235.4z"/>
		</g>
		<g>
			<path fill="#546E7A" d="M395.9,235.3h1.6v-5.1h-1.3v-0.6c0.6-0.1,1.1-0.3,1.5-0.5h0.7v6.2h1.4v0.7h-3.9V235.3z"/>
			<path fill="#546E7A" d="M401.2,234.6c0.4,0.4,1,0.8,1.8,0.8c0.8,0,1.4-0.5,1.4-1.3c0-0.8-0.6-1.4-2.2-1.4v-0.7c1.5,0,2-0.6,2-1.3
				c0-0.7-0.5-1.1-1.2-1.1c-0.6,0-1.1,0.3-1.5,0.7l-0.5-0.6c0.5-0.5,1.2-0.9,2-0.9c1.2,0,2.1,0.6,2.1,1.8c0,0.8-0.5,1.4-1.3,1.6v0
				c0.8,0.2,1.5,0.8,1.5,1.8c0,1.2-1,2-2.3,2c-1.1,0-1.8-0.5-2.3-1L401.2,234.6z"/>
			<path fill="#546E7A" d="M407.1,234.8c0.3,0,0.6,0.3,0.6,0.7c0,0.4-0.3,0.7-0.6,0.7c-0.4,0-0.6-0.3-0.6-0.7
				C406.5,235.1,406.8,234.8,407.1,234.8z"/>
			<path fill="#546E7A" d="M412.8,230.3c-0.3-0.3-0.7-0.5-1.1-0.5c-1,0-1.8,0.7-1.8,2.9c0.4-0.5,1-0.9,1.6-0.9c1.2,0,2,0.7,2,2.1
				c0,1.3-0.9,2.2-2,2.2c-1.3,0-2.4-1.1-2.4-3.3c0-2.8,1.3-3.8,2.6-3.8c0.7,0,1.3,0.3,1.7,0.7L412.8,230.3z M412.6,234
				c0-0.9-0.4-1.5-1.3-1.5c-0.4,0-1,0.3-1.4,0.9c0.1,1.3,0.6,2.1,1.5,2.1C412.1,235.5,412.6,234.9,412.6,234z"/>
			<path fill="#546E7A" d="M414.2,231.1c0-1.4,0.6-2.2,1.6-2.2c1,0,1.6,0.8,1.6,2.2s-0.6,2.2-1.6,2.2
				C414.9,233.3,414.2,232.5,414.2,231.1z M416.8,231.1c0-1.1-0.4-1.7-0.9-1.7c-0.6,0-0.9,0.5-0.9,1.7c0,1.1,0.4,1.7,0.9,1.7
				C416.4,232.8,416.8,232.2,416.8,231.1z M416,236.2l3.9-7.3h0.6l-3.9,7.3H416z M419.2,234c0-1.4,0.6-2.2,1.6-2.2
				c1,0,1.6,0.8,1.6,2.2c0,1.4-0.6,2.2-1.6,2.2C419.8,236.2,419.2,235.4,419.2,234z M421.7,234c0-1.1-0.4-1.7-0.9-1.7
				s-0.9,0.6-0.9,1.7c0,1.1,0.4,1.7,0.9,1.7S421.7,235.1,421.7,234z"/>
		</g>
		<line fill="#90A4AE" stroke="#E1E1E1" stroke-width="0.5" stroke-miterlimit="10" x1="255.3" y1="219.2" x2="426.4" y2="219.2"/>
		<line fill="#90A4AE" stroke="#E1E1E1" stroke-width="0.5" stroke-miterlimit="10" x1="255.3" y1="245.1" x2="426.4" y2="245.1"/>
		<g>
			<path fill="#90A4AE" d="M257.5,262.8h4.4v0.8h-3.5v2.6h2.9v0.8h-2.9v3.4h-1V262.8z"/>
			<path fill="#90A4AE" d="M263,264.8h1v3.5c0,1.1,0.3,1.5,1.1,1.5c0.6,0,1-0.3,1.5-1v-4h1v5.7h-0.8l-0.1-0.9h0
				c-0.5,0.6-1.1,1-1.9,1c-1.2,0-1.7-0.8-1.7-2.2V264.8z"/>
			<path fill="#90A4AE" d="M269.4,262.2h1v7.3c0,0.3,0.1,0.4,0.3,0.4c0.1,0,0.1,0,0.2,0l0.1,0.7c-0.1,0.1-0.3,0.1-0.5,0.1
				c-0.7,0-1-0.5-1-1.3V262.2z"/>
			<path fill="#90A4AE" d="M272.4,262.2h1v7.3c0,0.3,0.1,0.4,0.3,0.4c0.1,0,0.1,0,0.2,0l0.1,0.7c-0.1,0.1-0.3,0.1-0.5,0.1
				c-0.7,0-1-0.5-1-1.3V262.2z"/>
			<path fill="#90A4AE" d="M277.6,269.2c0.5,0.4,1,0.7,1.7,0.7c0.7,0,1.1-0.4,1.1-0.9c0-0.6-0.7-0.8-1.3-1.1
				c-0.8-0.3-1.7-0.7-1.7-1.6c0-0.9,0.7-1.6,2-1.6c0.7,0,1.3,0.3,1.8,0.6l-0.5,0.6c-0.4-0.3-0.8-0.5-1.3-0.5c-0.7,0-1,0.4-1,0.8
				c0,0.5,0.6,0.7,1.3,1c0.8,0.3,1.7,0.6,1.7,1.7c0,0.9-0.7,1.7-2.1,1.7c-0.8,0-1.6-0.3-2.1-0.8L277.6,269.2z"/>
			<path fill="#90A4AE" d="M282.8,265.6H282v-0.7l0.9-0.1l0.1-1.6h0.8v1.6h1.5v0.8h-1.5v3.2c0,0.7,0.2,1.1,0.9,1.1
				c0.2,0,0.5-0.1,0.6-0.2l0.2,0.7c-0.3,0.1-0.7,0.2-1.1,0.2c-1.2,0-1.6-0.8-1.6-1.9V265.6z"/>
			<path fill="#90A4AE" d="M289.6,266.9c0-0.7-0.2-1.4-1.2-1.4c-0.7,0-1.3,0.3-1.7,0.6l-0.4-0.7c0.5-0.3,1.3-0.7,2.2-0.7
				c1.4,0,2,0.9,2,2.3v3.5h-0.8l-0.1-0.7h0c-0.6,0.4-1.2,0.8-1.9,0.8c-1,0-1.7-0.6-1.7-1.6C286.1,267.8,287.2,267.2,289.6,266.9z
				 M288,269.9c0.6,0,1-0.3,1.6-0.8v-1.6c-1.9,0.2-2.6,0.7-2.6,1.4C287.1,269.6,287.5,269.9,288,269.9z"/>
			<path fill="#90A4AE" d="M292.5,265.6h-0.8v-0.7l0.9-0.1l0.1-1.6h0.8v1.6h1.5v0.8h-1.5v3.2c0,0.7,0.2,1.1,0.9,1.1
				c0.2,0,0.5-0.1,0.6-0.2l0.2,0.7c-0.3,0.1-0.7,0.2-1.1,0.2c-1.2,0-1.6-0.8-1.6-1.9V265.6z"/>
			<path fill="#90A4AE" d="M298.3,264.7c1.5,0,2.3,1,2.3,2.7c0,0.2,0,0.4,0,0.5h-3.8c0.1,1.2,0.8,2,1.9,2c0.5,0,1-0.2,1.4-0.4
				l0.3,0.6c-0.5,0.3-1.1,0.6-1.9,0.6c-1.5,0-2.7-1.1-2.7-3C295.8,265.8,297,264.7,298.3,264.7z M299.8,267.2c0-1.2-0.5-1.8-1.4-1.8
				c-0.8,0-1.5,0.7-1.6,1.8H299.8z"/>
			<path fill="#90A4AE" d="M304.4,262.2h1v2.3l0,1c0.5-0.5,1.1-0.8,1.8-0.8c1.5,0,2.3,1.1,2.3,2.9c0,1.9-1.2,3.1-2.5,3.1
				c-0.5,0-1.1-0.3-1.6-0.7h0l-0.1,0.6h-0.8V262.2z M306.7,269.8c0.9,0,1.6-0.9,1.6-2.3c0-1.3-0.4-2.1-1.5-2.1c-0.5,0-1,0.3-1.5,0.8
				v3C305.8,269.7,306.4,269.8,306.7,269.8z"/>
			<path fill="#90A4AE" d="M310.9,264.8h0.8l0.1,1h0c0.4-0.7,1-1.2,1.6-1.2c0.2,0,0.4,0,0.6,0.1l-0.2,0.8c-0.2-0.1-0.3-0.1-0.6-0.1
				c-0.5,0-1.1,0.4-1.4,1.3v3.7h-1V264.8z"/>
			<path fill="#90A4AE" d="M314.8,263c0-0.4,0.3-0.6,0.7-0.6s0.7,0.2,0.7,0.6c0,0.4-0.3,0.6-0.7,0.6S314.8,263.4,314.8,263z
				 M314.9,264.8h1v5.7h-1V264.8z"/>
			<path fill="#90A4AE" d="M319.9,264.7c1.5,0,2.3,1,2.3,2.7c0,0.2,0,0.4,0,0.5h-3.8c0.1,1.2,0.8,2,1.9,2c0.5,0,1-0.2,1.4-0.4
				l0.3,0.6c-0.5,0.3-1.1,0.6-1.9,0.6c-1.5,0-2.7-1.1-2.7-3C317.4,265.8,318.6,264.7,319.9,264.7z M321.4,267.2
				c0-1.2-0.5-1.8-1.4-1.8c-0.8,0-1.5,0.7-1.6,1.8H321.4z"/>
			<path fill="#90A4AE" d="M326.2,262.9c-0.2-0.1-0.4-0.1-0.6-0.1c-0.5,0-0.8,0.4-0.8,1.1v0.9h1.2v0.8h-1.2v4.9h-1v-4.9H323v-0.7
				l0.8-0.1v-0.9c0-1.2,0.5-1.9,1.7-1.9c0.4,0,0.7,0.1,0.9,0.2L326.2,262.9z"/>
			<path fill="#90A4AE" d="M256.5,272v-0.6h69.6v0.6H256.5z"/>
		</g>
		<polygon fill="#BDBDBD" points="307.7,36.9 307.7,44.4 312,44.4 319.4,44.4 325.6,50.6 331.8,50.6 336.6,45.8 344.8,54
			344.8,61.3 350.6,67.1 350.6,73.3 357.1,79.8 361.6,84.3 368.6,84.3 368.6,74.3 368.6,62.8 360.8,55.1 360.8,49.5 354.2,42.9
			354.2,36.9 322.6,36.9 		"/>
	</g>
	<g>
		<rect x="470.1" fill="#FFFFFF" width="211.5" height="302"/>
		<rect x="646.6" fill="#A6273C" width="35.1" height="35.1"/>
		<g>
			<path fill="#EDEDED" d="M657,20.1c0.5,0.6,1.3,1.1,2.3,1.1c1.1,0,1.9-0.7,1.9-1.7c0-1.1-0.7-1.8-2.9-1.8v-0.9
				c2,0,2.6-0.8,2.6-1.7c0-0.9-0.6-1.5-1.6-1.5c-0.8,0-1.4,0.4-2,0.9l-0.6-0.8c0.7-0.7,1.6-1.2,2.6-1.2c1.6,0,2.8,0.8,2.8,2.3
				c0,1.1-0.7,1.8-1.7,2.2v0.1c1.1,0.3,2,1.1,2,2.3c0,1.6-1.3,2.6-3,2.6c-1.5,0-2.4-0.6-3-1.3L657,20.1z"/>
			<path fill="#EDEDED" d="M667.1,19.3l-1.3-2.3H665v2.3h-1v-5.9h2c1.2,0,2.2,0.4,2.2,1.7c0,0.9-0.5,1.4-1.2,1.7l1.4,2.5H667.1z
				 M665,16.1h0.8c0.8,0,1.2-0.3,1.2-1c0-0.7-0.4-0.9-1.2-0.9H665V16.1z"/>
			<path fill="#EDEDED" d="M669.3,13.4h1.6c1.8,0,2.9,1,2.9,2.9c0,2-1.1,3-2.8,3h-1.6V13.4z M670.8,18.4c1.2,0,1.9-0.7,1.9-2.1
				c0-1.4-0.7-2.1-1.9-2.1h-0.5v4.2H670.8z"/>
		</g>
		<g>
			<path fill="#184D5B" d="M530.2,101.7h2.1l2.7,7.4l1,2.8h0.1l1-2.8l2.6-7.4h2.1v13.8H540v-7.6c0-1.2,0.1-2.9,0.2-4.1h-0.1
				l-1.1,3.1l-2.6,7.2h-1l-2.7-7.2l-1.1-3.1h-0.1c0.1,1.2,0.2,2.9,0.2,4.1v7.6h-1.6V101.7z"/>
			<path fill="#184D5B" d="M545,102.1c0-0.7,0.5-1.1,1.2-1.1s1.2,0.4,1.2,1.1c0,0.7-0.5,1.1-1.2,1.1S545,102.7,545,102.1z
				 M545.3,105.3h1.7v10.2h-1.7V105.3z"/>
			<path fill="#184D5B" d="M550.4,105.3h1.4l0.1,1.5h0.1c1-1,2-1.7,3.4-1.7c2.1,0,3.1,1.4,3.1,4v6.5h-1.7v-6.2
				c0-1.9-0.6-2.7-1.9-2.7c-1,0-1.8,0.5-2.8,1.6v7.4h-1.7V105.3z"/>
			<path fill="#184D5B" d="M561.9,105.3h1.4l0.1,1.5h0.1c1-1,2-1.7,3.4-1.7c2.1,0,3.1,1.4,3.1,4v6.5h-1.7v-6.2
				c0-1.9-0.6-2.7-1.9-2.7c-1,0-1.8,0.5-2.8,1.6v7.4h-1.7V105.3z"/>
			<path fill="#184D5B" d="M577.2,105c2.6,0,4.1,1.9,4.1,4.8c0,0.4,0,0.7-0.1,0.9h-6.9c0.1,2.2,1.4,3.6,3.4,3.6c1,0,1.8-0.3,2.5-0.8
				l0.6,1.1c-0.9,0.6-2,1.1-3.4,1.1c-2.7,0-4.9-2-4.9-5.3C572.7,107.1,574.9,105,577.2,105z M579.8,109.6c0-2.1-0.9-3.2-2.5-3.2
				c-1.4,0-2.7,1.2-2.9,3.2H579.8z"/>
			<path fill="#184D5B" d="M583.6,113.2c0.9,0.7,1.8,1.2,3,1.2c1.3,0,2-0.7,2-1.6c0-1.1-1.2-1.5-2.3-1.9c-1.4-0.5-3-1.2-3-2.9
				c0-1.6,1.3-2.9,3.5-2.9c1.3,0,2.4,0.5,3.2,1.2l-0.8,1.1c-0.7-0.5-1.4-0.9-2.3-0.9c-1.3,0-1.9,0.7-1.9,1.5c0,1,1.1,1.3,2.3,1.8
				c1.5,0.5,3.1,1.2,3.1,3.1c0,1.7-1.3,3-3.7,3c-1.4,0-2.8-0.6-3.8-1.4L583.6,113.2z"/>
			<path fill="#184D5B" d="M596.6,105c2.5,0,4.7,2,4.7,5.4c0,3.4-2.2,5.3-4.7,5.3s-4.7-2-4.7-5.3C591.9,107,594.1,105,596.6,105z
				 M596.6,114.3c1.8,0,2.9-1.6,2.9-3.9c0-2.4-1.2-3.9-2.9-3.9c-1.7,0-2.9,1.6-2.9,3.9C593.7,112.7,594.9,114.3,596.6,114.3z"/>
			<path fill="#184D5B" d="M604.3,106.7h-1.5v-1.3l1.6-0.1l0.2-2.9h1.4v2.9h2.8v1.4h-2.8v5.7c0,1.3,0.4,2,1.6,2
				c0.4,0,0.8-0.1,1.2-0.3l0.3,1.3c-0.6,0.2-1.3,0.4-1.9,0.4c-2.2,0-2.9-1.4-2.9-3.4V106.7z"/>
			<path fill="#184D5B" d="M616.5,109c0-1.3-0.4-2.6-2.1-2.6c-1.2,0-2.2,0.5-3,1.1l-0.7-1.2c0.9-0.6,2.4-1.3,4-1.3
				c2.5,0,3.5,1.7,3.5,4.2v6.3h-1.4l-0.1-1.2h0c-1,0.8-2.1,1.5-3.4,1.5c-1.7,0-3-1.1-3-2.9C610.2,110.6,612.2,109.5,616.5,109z
				 M613.7,114.4c1,0,1.8-0.5,2.8-1.4v-2.8c-3.4,0.4-4.6,1.3-4.6,2.6C611.9,113.9,612.7,114.4,613.7,114.4z"/>
		</g>
		<g>
			<path fill="#90A4AE" d="M491.4,176.1h1.4v3.2h3.3v-3.2h1.4v8h-1.4v-3.6h-3.3v3.6h-1.4V176.1z"/>
			<path fill="#90A4AE" d="M499.3,176.3c0-0.5,0.4-0.8,0.9-0.8s0.9,0.3,0.9,0.8c0,0.5-0.4,0.8-0.9,0.8S499.3,176.7,499.3,176.3z
				 M499.4,178.1h1.4v6h-1.4V178.1z"/>
			<path fill="#90A4AE" d="M503.1,184L503.1,184c-0.3-0.2-0.5-0.6-0.5-1.1c0-0.5,0.3-0.9,0.7-1.1v0c-0.4-0.3-0.8-0.9-0.8-1.6
				c0-1.4,1.1-2.2,2.4-2.2c0.3,0,0.6,0.1,0.9,0.1h2.2v1h-1.1c0.2,0.2,0.3,0.6,0.3,1c0,1.3-1,2.1-2.3,2.1c-0.3,0-0.6,0-0.8-0.2
				c-0.2,0.2-0.3,0.3-0.3,0.6c0,0.3,0.2,0.6,1,0.6h1.1c1.5,0,2.2,0.4,2.2,1.5c0,1.2-1.3,2.1-3.2,2.1c-1.4,0-2.5-0.5-2.5-1.6
				C502.3,184.8,502.6,184.3,503.1,184z M505,185.9c1,0,1.6-0.5,1.6-1c0-0.5-0.4-0.6-1.1-0.6h-0.8c-0.3,0-0.6,0-0.8-0.1
				c-0.3,0.2-0.5,0.5-0.5,0.8C503.4,185.6,504,185.9,505,185.9z M505.9,180.2c0-0.8-0.5-1.2-1-1.2s-1.1,0.4-1.1,1.2
				c0,0.8,0.5,1.2,1.1,1.2C505.4,181.4,505.9,180.9,505.9,180.2z"/>
			<path fill="#90A4AE" d="M509.1,175.5h1.4v2.2l0,1.2c0.5-0.5,1.1-0.9,1.9-0.9c1.3,0,1.9,0.9,1.9,2.4v3.8h-1.4v-3.6
				c0-1-0.3-1.4-0.9-1.4c-0.5,0-0.9,0.3-1.4,0.8v4.2h-1.4V175.5z"/>
			<path fill="#90A4AE" d="M518.8,182.2c0.6,0.5,1.4,0.9,2.1,0.9c0.9,0,1.4-0.4,1.4-1c0-0.7-0.5-0.9-1.2-1.2l-1.1-0.5
				c-0.8-0.3-1.6-1-1.6-2.1c0-1.3,1.1-2.3,2.7-2.3c0.9,0,1.8,0.4,2.5,1l-0.7,0.9c-0.5-0.4-1.1-0.7-1.7-0.7c-0.8,0-1.3,0.4-1.3,0.9
				c0,0.6,0.6,0.9,1.3,1.1l1.1,0.5c0.9,0.4,1.6,1,1.6,2.2c0,1.3-1.1,2.4-2.9,2.4c-1.1,0-2.1-0.4-2.9-1.2L518.8,182.2z"/>
			<path fill="#90A4AE" d="M527.8,178c0.8,0,1.4,0.3,1.8,0.7l-0.7,0.9c-0.3-0.3-0.6-0.4-1-0.4c-1,0-1.6,0.8-1.6,2c0,1.2,0.7,2,1.6,2
				c0.5,0,0.9-0.2,1.2-0.5l0.6,0.9c-0.6,0.5-1.3,0.8-2,0.8c-1.6,0-2.9-1.2-2.9-3.2C524.7,179.1,526.2,178,527.8,178z"/>
			<path fill="#90A4AE" d="M530.8,175.5h1.4v2.2l0,1.2c0.5-0.5,1.1-0.9,1.9-0.9c1.3,0,1.9,0.9,1.9,2.4v3.8h-1.4v-3.6
				c0-1-0.3-1.4-0.9-1.4c-0.5,0-0.9,0.3-1.4,0.8v4.2h-1.4V175.5z"/>
			<path fill="#90A4AE" d="M540.2,178c1.5,0,2.9,1.2,2.9,3.2c0,2-1.4,3.2-2.9,3.2c-1.5,0-2.9-1.2-2.9-3.2
				C537.3,179.1,538.7,178,540.2,178z M540.2,183.2c0.9,0,1.4-0.8,1.4-2c0-1.2-0.5-2-1.4-2c-0.9,0-1.4,0.8-1.4,2
				C538.7,182.4,539.3,183.2,540.2,183.2z"/>
			<path fill="#90A4AE" d="M546.9,178c1.5,0,2.9,1.2,2.9,3.2c0,2-1.4,3.2-2.9,3.2c-1.5,0-2.9-1.2-2.9-3.2
				C544,179.1,545.4,178,546.9,178z M546.9,183.2c0.9,0,1.4-0.8,1.4-2c0-1.2-0.5-2-1.4-2c-0.9,0-1.4,0.8-1.4,2
				C545.5,182.4,546,183.2,546.9,183.2z"/>
			<path fill="#90A4AE" d="M551.2,175.5h1.4v7.2c0,0.3,0.2,0.5,0.3,0.5c0.1,0,0.1,0,0.2,0l0.2,1.1c-0.2,0.1-0.4,0.1-0.8,0.1
				c-1,0-1.4-0.7-1.4-1.7V175.5z"/>
			<path fill="#90A4AE" d="M556.9,178c1.6,0,2.5,1.2,2.5,2.9c0,0.3,0,0.5-0.1,0.7h-3.8c0.1,1.1,0.8,1.7,1.8,1.7c0.5,0,1-0.2,1.4-0.4
				l0.5,0.9c-0.6,0.4-1.3,0.7-2.1,0.7c-1.7,0-3-1.2-3-3.2C554.1,179.2,555.5,178,556.9,178z M558.2,180.6c0-1-0.4-1.5-1.2-1.5
				c-0.7,0-1.3,0.5-1.5,1.5H558.2z"/>
			<path fill="#90A4AE" d="M560.7,178.1h1.2l0.1,1.1h0c0.4-0.8,1.1-1.2,1.7-1.2c0.3,0,0.5,0,0.7,0.1l-0.2,1.2
				c-0.2-0.1-0.4-0.1-0.6-0.1c-0.5,0-1.1,0.3-1.4,1.2v3.7h-1.4V178.1z"/>
			<path fill="#90A4AE" d="M565.3,182.6c0.5,0.4,1.1,0.7,1.7,0.7c0.7,0,1-0.3,1-0.7c0-0.5-0.7-0.7-1.3-1c-0.8-0.3-1.7-0.8-1.7-1.8
				c0-1.1,0.8-1.8,2.2-1.8c0.8,0,1.5,0.3,2,0.7l-0.7,0.9c-0.4-0.3-0.8-0.5-1.3-0.5c-0.6,0-0.9,0.3-0.9,0.7c0,0.5,0.6,0.7,1.3,0.9
				c0.8,0.3,1.7,0.7,1.7,1.8c0,1-0.8,1.9-2.3,1.9c-0.8,0-1.7-0.4-2.3-0.8L565.3,182.6z"/>
		</g>
		<g>
			<path fill="#546E7A" d="M631,182.5h1.6v-5.1h-1.3v-0.6c0.6-0.1,1.1-0.3,1.5-0.5h0.7v6.2h1.4v0.7H631V182.5z"/>
			<path fill="#546E7A" d="M639.4,177.2H636v-0.8h4.4v0.6c-1.6,2.1-2,3.7-2.1,6.3h-0.9C637.5,180.7,638,179,639.4,177.2z"/>
			<path fill="#546E7A" d="M642.2,182c0.3,0,0.6,0.3,0.6,0.7c0,0.4-0.3,0.7-0.6,0.7c-0.4,0-0.6-0.3-0.6-0.7
				C641.6,182.3,641.8,182,642.2,182z"/>
			<path fill="#546E7A" d="M644.4,182.5h1.6v-5.1h-1.3v-0.6c0.6-0.1,1.1-0.3,1.5-0.5h0.7v6.2h1.4v0.7h-3.9V182.5z"/>
			<path fill="#546E7A" d="M649.3,178.3c0-1.4,0.6-2.2,1.6-2.2c1,0,1.6,0.8,1.6,2.2s-0.6,2.2-1.6,2.2
				C649.9,180.5,649.3,179.7,649.3,178.3z M651.8,178.3c0-1.1-0.4-1.7-0.9-1.7c-0.6,0-0.9,0.5-0.9,1.7c0,1.1,0.4,1.7,0.9,1.7
				C651.5,180,651.8,179.4,651.8,178.3z M651.1,183.4l3.9-7.3h0.6l-3.9,7.3H651.1z M654.2,181.2c0-1.4,0.6-2.2,1.6-2.2
				c1,0,1.6,0.8,1.6,2.2c0,1.4-0.6,2.2-1.6,2.2C654.9,183.4,654.2,182.6,654.2,181.2z M656.8,181.2c0-1.1-0.4-1.7-0.9-1.7
				s-0.9,0.6-0.9,1.7c0,1.1,0.4,1.7,0.9,1.7S656.8,182.3,656.8,181.2z"/>
		</g>
		<g>
			<path fill="#455A64" d="M496.9,150.4h-3.7l-0.9,3h-2l3.6-11h2.3l3.6,11h-2.1L496.9,150.4z M496.5,148.8l-0.4-1.3
				c-0.4-1.2-0.7-2.4-1-3.6H495c-0.3,1.2-0.6,2.5-1,3.6l-0.4,1.3H496.5z"/>
			<path fill="#455A64" d="M504,144.9c0.9,0,1.5,0.4,2.2,0.9l-0.1-1.3v-3h1.9v11.9h-1.6l-0.1-0.9h-0.1c-0.6,0.6-1.4,1.1-2.3,1.1
				c-2.1,0-3.4-1.6-3.4-4.3C500.5,146.5,502.2,144.9,504,144.9z M504.4,151.9c0.6,0,1.2-0.3,1.7-0.9v-3.9c-0.6-0.5-1.1-0.7-1.7-0.7
				c-1.1,0-1.9,1-1.9,2.7C502.5,151,503.2,151.9,504.4,151.9z"/>
			<path fill="#455A64" d="M510.4,145.1h1.9v4.9c0,1.4,0.4,1.9,1.3,1.9c0.7,0,1.2-0.3,1.8-1.1v-5.7h1.9v8.3h-1.6l-0.2-1.2h-0.1
				c-0.7,0.9-1.5,1.4-2.7,1.4c-1.8,0-2.5-1.2-2.5-3.3V145.1z"/>
			<path fill="#455A64" d="M519.9,141.5h1.9v9.9c0,0.5,0.2,0.6,0.4,0.6c0.1,0,0.2,0,0.3,0l0.3,1.4c-0.2,0.1-0.6,0.2-1,0.2
				c-1.4,0-1.9-0.9-1.9-2.3V141.5z"/>
			<path fill="#455A64" d="M524.7,146.6h-1.2v-1.4l1.3-0.1l0.2-2.3h1.6v2.3h2.1v1.5h-2.1v3.9c0,1,0.4,1.4,1.2,1.4
				c0.3,0,0.6-0.1,0.9-0.2l0.3,1.4c-0.5,0.2-1,0.3-1.7,0.3c-1.9,0-2.6-1.2-2.6-3V146.6z"/>
			<path fill="#455A64" d="M530.6,151.1c0.7,0.6,1.4,0.9,2.3,0.9c0.9,0,1.3-0.4,1.3-1c0-0.7-0.9-1-1.8-1.3c-1.1-0.4-2.3-1-2.3-2.4
				c0-1.4,1.2-2.5,3-2.5c1.1,0,2.1,0.5,2.7,1L535,147c-0.6-0.4-1.2-0.7-1.8-0.7c-0.8,0-1.2,0.4-1.2,0.9c0,0.7,0.8,0.9,1.7,1.2
				c1.1,0.4,2.4,1,2.4,2.5c0,1.4-1.1,2.6-3.2,2.6c-1.1,0-2.3-0.5-3.1-1.1L530.6,151.1z"/>
		</g>
		<g>
			<path fill="#546E7A" d="M616.9,151.1c0.6,0.7,1.5,1.3,2.7,1.3c1.3,0,2.2-0.8,2.2-2c0-1.3-0.9-2.1-3.4-2.1v-1.1c2.3,0,3-0.9,3-2
				c0-1-0.7-1.7-1.9-1.7c-0.9,0-1.6,0.5-2.3,1.1l-0.7-0.9c0.8-0.8,1.8-1.3,3.1-1.3c1.9,0,3.2,1,3.2,2.7c0,1.3-0.8,2.1-2,2.6v0.1
				c1.3,0.3,2.3,1.2,2.3,2.7c0,1.9-1.6,3.1-3.5,3.1c-1.7,0-2.8-0.7-3.5-1.5L616.9,151.1z"/>
			<path fill="#546E7A" d="M624.8,147.9c0-3.6,1.3-5.5,3.5-5.5c2.1,0,3.4,1.9,3.4,5.5s-1.3,5.6-3.4,5.6
				C626.1,153.5,624.8,151.5,624.8,147.9z M630.4,147.9c0-3.1-0.8-4.4-2.1-4.4c-1.3,0-2.1,1.3-2.1,4.4c0,3.1,0.8,4.5,2.1,4.5
				C629.5,152.4,630.4,151.1,630.4,147.9z"/>
			<path fill="#546E7A" d="M634.5,151.4c0.5,0,1,0.4,1,1.1c0,0.6-0.5,1-1,1c-0.6,0-1-0.4-1-1C633.5,151.9,634,151.4,634.5,151.4z"/>
			<path fill="#546E7A" d="M638.3,151.5c0.4,0.5,1.1,0.9,1.8,0.9c1.5,0,2.8-1.2,2.8-4.6c-0.7,0.9-1.6,1.4-2.5,1.4
				c-1.9,0-3-1.1-3-3.3c0-2.1,1.4-3.5,3.2-3.5c2.1,0,3.7,1.7,3.7,5.2c0,4.3-2,6-4.1,6c-1.1,0-2-0.5-2.6-1.1L638.3,151.5z
				 M642.8,146.7c-0.2-2.1-1-3.2-2.4-3.2c-1,0-1.9,0.9-1.9,2.4c0,1.4,0.7,2.3,2,2.3C641.3,148.1,642.1,147.7,642.8,146.7z"/>
			<path fill="#546E7A" d="M645.6,145.6c0-2.2,1-3.5,2.5-3.5c1.5,0,2.5,1.2,2.5,3.5c0,2.2-1,3.5-2.5,3.5
				C646.6,149.1,645.6,147.8,645.6,145.6z M649.5,145.6c0-1.8-0.6-2.6-1.4-2.6c-0.9,0-1.5,0.8-1.5,2.6c0,1.8,0.6,2.6,1.5,2.6
				C649,148.2,649.5,147.3,649.5,145.6z M648.4,153.5l6.1-11.4h0.9l-6.1,11.4H648.4z M653.3,150c0-2.2,1-3.5,2.5-3.5
				c1.5,0,2.5,1.3,2.5,3.5c0,2.2-1,3.5-2.5,3.5C654.3,153.5,653.3,152.3,653.3,150z M657.2,150c0-1.8-0.6-2.6-1.4-2.6
				c-0.9,0-1.5,0.9-1.5,2.6s0.6,2.6,1.5,2.6C656.7,152.7,657.2,151.8,657.2,150z"/>
		</g>
		<line fill="#90A4AE" stroke="#E1E1E1" stroke-width="0.5" stroke-miterlimit="10" x1="490.4" y1="167.3" x2="661.4" y2="167.3"/>
		<g>
			<path fill="#90A4AE" d="M491.3,209.8h1.7v-5.1h-1.4v-0.9c0.8-0.1,1.3-0.3,1.8-0.6h1.1v6.7h1.5v1.2h-4.7V209.8z"/>
			<path fill="#90A4AE" d="M497.2,207c0-2.6,1-4,2.7-4s2.7,1.4,2.7,4c0,2.6-1,4.1-2.7,4.1S497.2,209.6,497.2,207z M501.2,207
				c0-2.2-0.5-2.9-1.3-2.9c-0.8,0-1.3,0.7-1.3,2.9c0,2.2,0.6,3,1.3,3C500.6,210,501.2,209.2,501.2,207z"/>
			<path fill="#90A4AE" d="M503.5,207.3h2.9v1h-2.9V207.3z"/>
			<path fill="#90A4AE" d="M507.9,209.8h1.7v-5.1h-1.4v-0.9c0.8-0.1,1.3-0.3,1.8-0.6h1.1v6.7h1.5v1.2h-4.7V209.8z"/>
			<path fill="#90A4AE" d="M517.5,204.3h-3.7v-1.2h5.3v0.9c-1.8,2.3-2.2,3.9-2.3,7h-1.4C515.5,208.1,516,206.4,517.5,204.3z"/>
			<path fill="#90A4AE" d="M524.5,207.9l-2.4-5.1h1.5l0.9,2.1c0.2,0.6,0.5,1.2,0.7,1.8h0c0.3-0.6,0.5-1.2,0.7-1.8l0.9-2.1h1.5
				l-2.4,5.1v3h-1.4V207.9z"/>
			<path fill="#90A4AE" d="M528.7,204.9h1.2l0.1,1.1h0c0.4-0.8,1.1-1.2,1.7-1.2c0.3,0,0.5,0,0.7,0.1l-0.2,1.2
				c-0.2-0.1-0.4-0.1-0.6-0.1c-0.5,0-1.1,0.3-1.4,1.2v3.7h-1.4V204.9z"/>
			<path fill="#90A4AE" d="M532.6,207.3h2.9v1h-2.9V207.3z"/>
			<path fill="#90A4AE" d="M539.4,204.7c1.5,0,2.9,1.2,2.9,3.2c0,2-1.4,3.2-2.9,3.2c-1.5,0-2.9-1.2-2.9-3.2
				C536.5,205.9,537.9,204.7,539.4,204.7z M539.4,209.9c0.9,0,1.4-0.8,1.4-2c0-1.2-0.5-2-1.4-2s-1.4,0.8-1.4,2
				C538,209.1,538.5,209.9,539.4,209.9z"/>
			<path fill="#90A4AE" d="M543.6,202.2h1.4v7.2c0,0.3,0.2,0.5,0.3,0.5c0.1,0,0.1,0,0.2,0l0.2,1.1c-0.2,0.1-0.4,0.1-0.8,0.1
				c-1,0-1.4-0.7-1.4-1.7V202.2z"/>
			<path fill="#90A4AE" d="M549.2,204.7c0.7,0,1.1,0.3,1.6,0.7l0-1v-2.2h1.4v8.7h-1.2l-0.1-0.7h0c-0.4,0.4-1.1,0.8-1.7,0.8
				c-1.5,0-2.5-1.2-2.5-3.2C546.6,205.9,547.8,204.7,549.2,204.7z M549.4,209.9c0.5,0,0.9-0.2,1.3-0.7v-2.8
				c-0.4-0.4-0.8-0.5-1.2-0.5c-0.8,0-1.4,0.7-1.4,2C548.1,209.2,548.6,209.9,549.4,209.9z"/>
			<path fill="#90A4AE" d="M554,209.3c0.5,0.4,1.1,0.7,1.7,0.7c0.7,0,1-0.3,1-0.7c0-0.5-0.7-0.7-1.3-1c-0.8-0.3-1.7-0.8-1.7-1.8
				c0-1.1,0.8-1.8,2.2-1.8c0.8,0,1.5,0.3,2,0.7l-0.7,0.9c-0.4-0.3-0.8-0.5-1.3-0.5c-0.6,0-0.9,0.3-0.9,0.7c0,0.5,0.6,0.7,1.3,0.9
				c0.8,0.3,1.7,0.7,1.7,1.8c0,1-0.8,1.9-2.3,1.9c-0.8,0-1.7-0.4-2.3-0.8L554,209.3z"/>
		</g>
		<g>
			<path fill="#546E7A" d="M631,209.3h1.6v-5.1h-1.3v-0.6c0.6-0.1,1.1-0.3,1.5-0.5h0.7v6.2h1.4v0.7H631V209.3z"/>
			<path fill="#546E7A" d="M637.2,206.4L637.2,206.4c-0.5-0.4-1-0.9-1-1.6c0-1.1,0.8-1.8,2-1.8c1.2,0,1.9,0.8,1.9,1.8
				c0,0.7-0.5,1.3-1,1.7v0c0.6,0.4,1.2,0.8,1.2,1.8c0,1-0.9,1.8-2.2,1.8c-1.3,0-2.3-0.8-2.3-1.9
				C635.9,207.4,636.6,206.7,637.2,206.4z M638.2,209.5c0.8,0,1.4-0.5,1.4-1.2c0-0.9-0.9-1.2-1.9-1.6c-0.6,0.4-1,0.9-1,1.5
				C636.7,208.9,637.4,209.5,638.2,209.5z M639.4,204.9c0-0.7-0.4-1.2-1.2-1.2c-0.6,0-1.1,0.4-1.1,1.1c0,0.8,0.8,1.2,1.6,1.5
				C639.1,205.8,639.4,205.4,639.4,204.9z"/>
			<path fill="#546E7A" d="M642.2,208.8c0.3,0,0.6,0.3,0.6,0.7c0,0.4-0.3,0.7-0.6,0.7c-0.4,0-0.6-0.3-0.6-0.7
				C641.6,209.1,641.8,208.8,642.2,208.8z"/>
			<path fill="#546E7A" d="M644.6,208.9c0.3,0.3,0.7,0.6,1.1,0.6c1,0,1.8-0.8,1.8-3c-0.4,0.6-1,0.9-1.6,0.9c-1.2,0-2-0.7-2-2.1
				c0-1.3,0.9-2.2,2-2.2c1.4,0,2.4,1.1,2.4,3.3c0,2.8-1.3,3.8-2.6,3.8c-0.7,0-1.3-0.3-1.7-0.7L644.6,208.9z M647.5,205.7
				c-0.1-1.3-0.6-2.1-1.5-2.1c-0.7,0-1.2,0.6-1.2,1.5c0,0.9,0.4,1.5,1.3,1.5C646.5,206.7,647.1,206.4,647.5,205.7z"/>
			<path fill="#546E7A" d="M649.3,205c0-1.4,0.6-2.2,1.6-2.2c1,0,1.6,0.8,1.6,2.2s-0.6,2.2-1.6,2.2
				C649.9,207.3,649.3,206.4,649.3,205z M651.8,205c0-1.1-0.4-1.7-0.9-1.7c-0.6,0-0.9,0.5-0.9,1.7c0,1.1,0.4,1.7,0.9,1.7
				C651.5,206.7,651.8,206.1,651.8,205z M651.1,210.1l3.9-7.3h0.6l-3.9,7.3H651.1z M654.2,207.9c0-1.4,0.6-2.2,1.6-2.2
				c1,0,1.6,0.8,1.6,2.2c0,1.4-0.6,2.2-1.6,2.2C654.9,210.1,654.2,209.3,654.2,207.9z M656.8,207.9c0-1.1-0.4-1.7-0.9-1.7
				s-0.9,0.6-0.9,1.7c0,1.1,0.4,1.7,0.9,1.7S656.8,209,656.8,207.9z"/>
		</g>
		<line fill="#90A4AE" stroke="#E1E1E1" stroke-width="0.5" stroke-miterlimit="10" x1="490.4" y1="193.3" x2="661.4" y2="193.3"/>
		<g>
			<path fill="#90A4AE" d="M491.4,228.9h1.4v6.8h3.3v1.2h-4.8V228.9z"/>
			<path fill="#90A4AE" d="M499.8,230.8c1.5,0,2.9,1.2,2.9,3.2c0,2-1.4,3.2-2.9,3.2c-1.5,0-2.9-1.2-2.9-3.2
				C496.9,231.9,498.3,230.8,499.8,230.8z M499.8,236c0.9,0,1.4-0.8,1.4-2c0-1.2-0.5-2-1.4-2c-0.9,0-1.4,0.8-1.4,2
				C498.4,235.2,498.9,236,499.8,236z"/>
			<path fill="#90A4AE" d="M503.4,230.9h1.4l0.7,3.1c0.1,0.6,0.2,1.1,0.3,1.7h0c0.1-0.6,0.2-1.2,0.4-1.7l0.8-3.1h1.3l0.8,3.1
				c0.1,0.6,0.3,1.1,0.4,1.7h0c0.1-0.6,0.2-1.2,0.3-1.7l0.7-3.1h1.3l-1.5,6h-1.7l-0.7-2.8c-0.1-0.6-0.2-1.1-0.4-1.8h0
				c-0.1,0.6-0.2,1.2-0.4,1.8l-0.7,2.8H505L503.4,230.9z"/>
			<path fill="#90A4AE" d="M515.8,228.9h1.4v8h-1.4V228.9z"/>
			<path fill="#90A4AE" d="M519.2,230.9h1.2l0.1,0.8h0c0.5-0.5,1.2-1,2-1c1.3,0,1.9,0.9,1.9,2.4v3.8h-1.4v-3.6c0-1-0.3-1.4-0.9-1.4
				c-0.5,0-0.9,0.3-1.4,0.8v4.2h-1.4V230.9z"/>
			<path fill="#90A4AE" d="M528.7,230.8c0.8,0,1.4,0.3,1.8,0.7l-0.7,0.9c-0.3-0.3-0.6-0.4-1-0.4c-1,0-1.6,0.8-1.6,2
				c0,1.2,0.7,2,1.6,2c0.5,0,0.9-0.2,1.2-0.5l0.6,0.9c-0.6,0.5-1.3,0.8-2,0.8c-1.6,0-2.9-1.2-2.9-3.2
				C525.7,231.9,527.1,230.8,528.7,230.8z"/>
			<path fill="#90A4AE" d="M533.9,230.8c1.5,0,2.9,1.2,2.9,3.2c0,2-1.4,3.2-2.9,3.2c-1.5,0-2.9-1.2-2.9-3.2
				C531,231.9,532.4,230.8,533.9,230.8z M533.9,236c0.9,0,1.4-0.8,1.4-2c0-1.2-0.5-2-1.4-2c-0.9,0-1.4,0.8-1.4,2
				C532.5,235.2,533,236,533.9,236z"/>
			<path fill="#90A4AE" d="M538.2,230.9h1.2l0.1,0.8h0c0.5-0.5,1.1-1,1.8-1c0.9,0,1.4,0.4,1.7,1.1c0.6-0.6,1.2-1.1,1.9-1.1
				c1.3,0,1.9,0.9,1.9,2.4v3.8h-1.4v-3.6c0-1-0.3-1.4-0.9-1.4c-0.4,0-0.8,0.2-1.3,0.8v4.2h-1.4v-3.6c0-1-0.3-1.4-0.9-1.4
				c-0.4,0-0.8,0.2-1.3,0.8v4.2h-1.4V230.9z"/>
			<path fill="#90A4AE" d="M550.9,230.8c1.6,0,2.5,1.2,2.5,2.9c0,0.3,0,0.5-0.1,0.7h-3.8c0.1,1.1,0.8,1.7,1.8,1.7
				c0.5,0,1-0.2,1.4-0.4l0.5,0.9c-0.6,0.4-1.3,0.7-2.1,0.7c-1.7,0-3-1.2-3-3.2C548.2,232,549.5,230.8,550.9,230.8z M552.2,233.4
				c0-1-0.4-1.5-1.2-1.5c-0.7,0-1.3,0.5-1.5,1.5H552.2z"/>
			<path fill="#90A4AE" d="M556.9,236.1c2.2-2.1,3.5-3.5,3.5-4.7c0-0.8-0.5-1.4-1.3-1.4c-0.6,0-1.1,0.4-1.5,0.9l-0.8-0.8
				c0.7-0.8,1.4-1.2,2.5-1.2c1.5,0,2.5,0.9,2.5,2.4c0,1.4-1.3,2.8-2.8,4.5c0.4,0,0.9-0.1,1.3-0.1h1.9v1.2h-5.3V236.1z"/>
			<path fill="#90A4AE" d="M563.2,233.4h2.9v1h-2.9V233.4z"/>
			<path fill="#90A4AE" d="M572.7,235h-1v2h-1.3v-2h-3.5v-1l3.1-4.8h1.7v4.7h1V235z M570.3,233.9v-1.8c0-0.5,0-1.2,0.1-1.6h0
				c-0.2,0.4-0.4,0.8-0.6,1.2l-1.4,2.2H570.3z"/>
			<path fill="#90A4AE" d="M573.9,235.4c0.5,0.4,1.1,0.7,1.7,0.7c0.7,0,1-0.3,1-0.7c0-0.5-0.7-0.7-1.3-1c-0.8-0.3-1.7-0.8-1.7-1.8
				c0-1.1,0.8-1.8,2.2-1.8c0.8,0,1.5,0.3,2,0.7l-0.7,0.9c-0.4-0.3-0.8-0.5-1.3-0.5c-0.6,0-0.9,0.3-0.9,0.7c0,0.5,0.6,0.7,1.3,0.9
				c0.8,0.3,1.7,0.7,1.7,1.8c0,1-0.8,1.9-2.3,1.9c-0.8,0-1.7-0.4-2.3-0.8L573.9,235.4z"/>
		</g>
		<g>
			<path fill="#546E7A" d="M631,235.3h1.6v-5.1h-1.3v-0.6c0.6-0.1,1.1-0.3,1.5-0.5h0.7v6.2h1.4v0.7H631V235.3z"/>
			<path fill="#546E7A" d="M636.5,234.9c0.3,0.3,0.7,0.6,1.1,0.6c1,0,1.8-0.8,1.8-3c-0.4,0.6-1,0.9-1.6,0.9c-1.2,0-2-0.7-2-2.1
				c0-1.3,0.9-2.2,2-2.2c1.4,0,2.4,1.1,2.4,3.3c0,2.8-1.3,3.8-2.6,3.8c-0.7,0-1.3-0.3-1.7-0.7L636.5,234.9z M639.5,231.8
				c-0.1-1.3-0.6-2.1-1.5-2.1c-0.7,0-1.2,0.6-1.2,1.5c0,0.9,0.4,1.5,1.3,1.5C638.5,232.7,639,232.5,639.5,231.8z"/>
			<path fill="#546E7A" d="M642.2,234.8c0.3,0,0.6,0.3,0.6,0.7c0,0.4-0.3,0.7-0.6,0.7c-0.4,0-0.6-0.3-0.6-0.7
				C641.6,235.1,641.8,234.8,642.2,234.8z"/>
			<path fill="#546E7A" d="M644.3,234.6c0.4,0.4,1,0.8,1.8,0.8c0.8,0,1.4-0.5,1.4-1.3c0-0.8-0.6-1.4-2.2-1.4v-0.7c1.5,0,2-0.6,2-1.3
				c0-0.7-0.5-1.1-1.2-1.1c-0.6,0-1.1,0.3-1.5,0.7l-0.5-0.6c0.5-0.5,1.2-0.9,2-0.9c1.2,0,2.1,0.6,2.1,1.8c0,0.8-0.5,1.4-1.3,1.6v0
				c0.8,0.2,1.5,0.8,1.5,1.8c0,1.2-1,2-2.3,2c-1.1,0-1.8-0.5-2.3-1L644.3,234.6z"/>
			<path fill="#546E7A" d="M649.3,231.1c0-1.4,0.6-2.2,1.6-2.2c1,0,1.6,0.8,1.6,2.2s-0.6,2.2-1.6,2.2
				C649.9,233.3,649.3,232.5,649.3,231.1z M651.8,231.1c0-1.1-0.4-1.7-0.9-1.7c-0.6,0-0.9,0.5-0.9,1.7c0,1.1,0.4,1.7,0.9,1.7
				C651.5,232.8,651.8,232.2,651.8,231.1z M651.1,236.2l3.9-7.3h0.6l-3.9,7.3H651.1z M654.2,234c0-1.4,0.6-2.2,1.6-2.2
				c1,0,1.6,0.8,1.6,2.2c0,1.4-0.6,2.2-1.6,2.2C654.9,236.2,654.2,235.4,654.2,234z M656.8,234c0-1.1-0.4-1.7-0.9-1.7
				s-0.9,0.6-0.9,1.7c0,1.1,0.4,1.7,0.9,1.7S656.8,235.1,656.8,234z"/>
		</g>
		<line fill="#90A4AE" stroke="#E1E1E1" stroke-width="0.5" stroke-miterlimit="10" x1="490.4" y1="219.2" x2="661.4" y2="219.2"/>
		<line fill="#90A4AE" stroke="#E1E1E1" stroke-width="0.5" stroke-miterlimit="10" x1="490.4" y1="245.1" x2="661.4" y2="245.1"/>
		<g>
			<path fill="#90A4AE" d="M492.6,262.8h4.4v0.8h-3.5v2.6h2.9v0.8h-2.9v3.4h-1V262.8z"/>
			<path fill="#90A4AE" d="M498,264.8h1v3.5c0,1.1,0.3,1.5,1.1,1.5c0.6,0,1-0.3,1.5-1v-4h1v5.7h-0.8l-0.1-0.9h0
				c-0.5,0.6-1.1,1-1.9,1c-1.2,0-1.7-0.8-1.7-2.2V264.8z"/>
			<path fill="#90A4AE" d="M504.5,262.2h1v7.3c0,0.3,0.1,0.4,0.3,0.4c0.1,0,0.1,0,0.2,0l0.1,0.7c-0.1,0.1-0.3,0.1-0.6,0.1
				c-0.7,0-1-0.5-1-1.3V262.2z"/>
			<path fill="#90A4AE" d="M507.5,262.2h1v7.3c0,0.3,0.1,0.4,0.3,0.4c0.1,0,0.1,0,0.2,0l0.1,0.7c-0.1,0.1-0.3,0.1-0.5,0.1
				c-0.7,0-1-0.5-1-1.3V262.2z"/>
			<path fill="#90A4AE" d="M512.6,269.2c0.5,0.4,1,0.7,1.7,0.7c0.7,0,1.1-0.4,1.1-0.9c0-0.6-0.7-0.8-1.3-1.1
				c-0.8-0.3-1.7-0.7-1.7-1.6c0-0.9,0.7-1.6,2-1.6c0.7,0,1.3,0.3,1.8,0.6l-0.5,0.6c-0.4-0.3-0.8-0.5-1.3-0.5c-0.7,0-1,0.4-1,0.8
				c0,0.5,0.6,0.7,1.3,1c0.8,0.3,1.7,0.6,1.7,1.7c0,0.9-0.7,1.7-2.1,1.7c-0.8,0-1.6-0.3-2.1-0.8L512.6,269.2z"/>
			<path fill="#90A4AE" d="M517.9,265.6H517v-0.7l0.9-0.1l0.1-1.6h0.8v1.6h1.5v0.8h-1.5v3.2c0,0.7,0.2,1.1,0.9,1.1
				c0.2,0,0.5-0.1,0.6-0.2l0.2,0.7c-0.3,0.1-0.7,0.2-1.1,0.2c-1.2,0-1.6-0.8-1.6-1.9V265.6z"/>
			<path fill="#90A4AE" d="M524.7,266.9c0-0.7-0.2-1.4-1.2-1.4c-0.7,0-1.3,0.3-1.7,0.6l-0.4-0.7c0.5-0.3,1.3-0.7,2.2-0.7
				c1.4,0,2,0.9,2,2.3v3.5h-0.8l-0.1-0.7h0c-0.5,0.4-1.2,0.8-1.9,0.8c-1,0-1.7-0.6-1.7-1.6C521.2,267.8,522.2,267.2,524.7,266.9z
				 M523.1,269.9c0.5,0,1-0.3,1.6-0.8v-1.6c-1.9,0.2-2.6,0.7-2.6,1.4C522.1,269.6,522.5,269.9,523.1,269.9z"/>
			<path fill="#90A4AE" d="M527.6,265.6h-0.8v-0.7l0.9-0.1l0.1-1.6h0.8v1.6h1.5v0.8h-1.5v3.2c0,0.7,0.2,1.1,0.9,1.1
				c0.2,0,0.5-0.1,0.6-0.2l0.2,0.7c-0.3,0.1-0.7,0.2-1.1,0.2c-1.2,0-1.6-0.8-1.6-1.9V265.6z"/>
			<path fill="#90A4AE" d="M533.4,264.7c1.5,0,2.3,1,2.3,2.7c0,0.2,0,0.4,0,0.5h-3.8c0.1,1.2,0.8,2,1.9,2c0.5,0,1-0.2,1.4-0.4
				l0.3,0.6c-0.5,0.3-1.1,0.6-1.9,0.6c-1.5,0-2.7-1.1-2.7-3C530.9,265.8,532.1,264.7,533.4,264.7z M534.8,267.2
				c0-1.2-0.5-1.8-1.4-1.8c-0.8,0-1.5,0.7-1.6,1.8H534.8z"/>
			<path fill="#90A4AE" d="M539.4,262.2h1v2.3l0,1c0.5-0.5,1.1-0.8,1.8-0.8c1.5,0,2.3,1.1,2.3,2.9c0,1.9-1.2,3.1-2.5,3.1
				c-0.5,0-1.1-0.3-1.6-0.7h0l-0.1,0.6h-0.8V262.2z M541.8,269.8c0.9,0,1.6-0.9,1.6-2.3c0-1.3-0.4-2.1-1.5-2.1c-0.5,0-1,0.3-1.5,0.8
				v3C540.9,269.7,541.4,269.8,541.8,269.8z"/>
			<path fill="#90A4AE" d="M545.9,264.8h0.8l0.1,1h0c0.4-0.7,1-1.2,1.6-1.2c0.2,0,0.4,0,0.6,0.1l-0.2,0.8c-0.2-0.1-0.3-0.1-0.6-0.1
				c-0.5,0-1.1,0.4-1.4,1.3v3.7h-1V264.8z"/>
			<path fill="#90A4AE" d="M549.8,263c0-0.4,0.3-0.6,0.7-0.6s0.7,0.2,0.7,0.6c0,0.4-0.3,0.6-0.7,0.6S549.8,263.4,549.8,263z
				 M550,264.8h1v5.7h-1V264.8z"/>
			<path fill="#90A4AE" d="M555,264.7c1.5,0,2.3,1,2.3,2.7c0,0.2,0,0.4,0,0.5h-3.8c0.1,1.2,0.8,2,1.9,2c0.5,0,1-0.2,1.4-0.4l0.3,0.6
				c-0.5,0.3-1.1,0.6-1.9,0.6c-1.5,0-2.7-1.1-2.7-3C552.5,265.8,553.7,264.7,555,264.7z M556.4,267.2c0-1.2-0.5-1.8-1.4-1.8
				c-0.8,0-1.5,0.7-1.6,1.8H556.4z"/>
			<path fill="#90A4AE" d="M561.2,262.9c-0.2-0.1-0.4-0.1-0.6-0.1c-0.5,0-0.8,0.4-0.8,1.1v0.9h1.2v0.8h-1.2v4.9h-1v-4.9h-0.8v-0.7
				l0.8-0.1v-0.9c0-1.2,0.5-1.9,1.7-1.9c0.4,0,0.7,0.1,0.9,0.2L561.2,262.9z"/>
			<path fill="#90A4AE" d="M491.5,272v-0.6h69.6v0.6H491.5z"/>
		</g>
		<g>
			<polygon fill="#BDBDBD" points="559.5,84.8 586.4,84.8 586.4,77.1 580.7,71.5 580.7,65.4 585,61.2 584.4,61.2 584.4,55.9
				595.3,45 585,45.2 581.7,41.9 574.3,41.9 568.8,36.5 559.5,36.5 559.5,59.4 			"/>
		</g>
	</g>
</g>
</svg>
