<svg xmlns="http://www.w3.org/2000/svg" viewBox="0 0 63.51 12.6"><title>intro-tagline3</title><g id="Layer_2" data-name="Layer 2"><g id="Layer_1-2" data-name="Layer 1"><path d="M3.42,0H6L9.24,9.31h.07L12.53,0h2.63l3.42,12.6H16.17L13.61,3.38h-.07L10.41,12.6H8.16L5,3.38H4.93L2.41,12.6H0Z" style="fill:#efefef"/><path d="M22.57,2V5.38h6.37v2H22.57V10.6H29.7v2H20.29V0H29.7V2Z" style="fill:#efefef"/><path d="M43.65,6.3c0,3.78-2.81,6.3-7,6.3H31.86V0h4.75C40.84,0,43.65,2.52,43.65,6.3Zm-2.36,0c0-2.57-2-4.3-4.93-4.3H34.15V10.6h2.21C39.31,10.6,41.29,8.88,41.29,6.3Z" style="fill:#efefef"/><path d="M46,0h2.29V12.6H46Z" style="fill:#efefef"/><path d="M55.69,0h2.14l5.67,12.6H61.08L59.82,9.69h-6.1L52.45,12.6H50ZM59,7.69,56.79,2.63h-.05L54.58,7.69Z" style="fill:#efefef"/></g></g></svg>