<svg xmlns="http://www.w3.org/2000/svg" width="35.08" height="14.13" viewBox="0 0 35.08 14.13"><title>intro-tagline1</title><g id="Layer_2" data-name="Layer 2"><g id="Layer_1-2" data-name="Layer 1"><path d="M9.11,11.92v1.94H0V1.26H2.29V11.92Z" style="fill:#36cb9c"/><path d="M10.78,0h2.27V2.14H10.78Zm0,5.22H13v8.64h-2.2Z" style="fill:#36cb9c"/><path d="M14.63,5.22H17l2.75,6h0l2.79-6H24.9l-4.16,8.64H18.79Z" style="fill:#36cb9c"/><path d="M25.88,9.54A4.38,4.38,0,0,1,30.55,5c2.72,0,4.54,1.76,4.54,4.7v.77h-7a2.61,2.61,0,0,0,2.63,1.94,2.19,2.19,0,0,0,1.84-.79H34.9a4.3,4.3,0,0,1-4.23,2.56A4.44,4.44,0,0,1,25.88,9.54Zm7-.67A2.12,2.12,0,0,0,30.6,6.72,2.47,2.47,0,0,0,28,8.88Z" style="fill:#36cb9c"/></g></g></svg>