<svg xmlns="http://www.w3.org/2000/svg" width="92.76" height="18.28" viewBox="0 0 92.76 18.28"><title>intro-tagline2</title><g id="Layer_2" data-name="Layer 2"><g id="Layer_1-2" data-name="Layer 1"><path d="M0,9.87H2.27c.2,1.26,1.35,2.34,3.51,2.34,1.53,0,2.52-.67,2.5-1.69C8.23,7.38.56,10.12.47,4.81.43,2.52,2.34,1,5.26,1s5.1,1.57,5.33,3.89H8.3a2.58,2.58,0,0,0-2.86-2c-1.55,0-2.57.72-2.56,1.82.05,3.22,7.65.56,7.74,5.64,0,2.29-1.94,3.82-5,3.82C2.38,14.12.25,12.46,0,9.87Z" style="fill:#efefef"/><path d="M13.86,10.66V7H11.79V5.22h2.07V2.47h2.2V5.22H19V7h-2.9v3.62a1.52,1.52,0,0,0,1.71,1.62c.36,0,.76,0,1.19-.07V14a6.28,6.28,0,0,1-1.49.18A3.34,3.34,0,0,1,13.86,10.66Z" style="fill:#efefef"/><path d="M21.11,5.22h2.2V6.3h0A2.74,2.74,0,0,1,25.76,5a3.68,3.68,0,0,1,.88.09V7a3.39,3.39,0,0,0-.83-.11,2.4,2.4,0,0,0-2.5,2.72v4.21h-2.2Z" style="fill:#efefef"/><path d="M27.54,9.54A4.38,4.38,0,0,1,32.2,5c2.72,0,4.54,1.76,4.54,4.7v.77h-7a2.61,2.61,0,0,0,2.63,1.94,2.19,2.19,0,0,0,1.84-.79h2.34a4.3,4.3,0,0,1-4.23,2.56A4.44,4.44,0,0,1,27.54,9.54Zm7-.67a2.12,2.12,0,0,0-2.25-2.16A2.47,2.47,0,0,0,29.7,8.88Z" style="fill:#efefef"/><path d="M38.36,9.54A4.39,4.39,0,0,1,42.86,5,3.87,3.87,0,0,1,45.63,6.1h0V5.22h2.2v8.64h-2.2V13h0a3.87,3.87,0,0,1-2.77,1.15A4.39,4.39,0,0,1,38.36,9.54Zm7.31,0a2.56,2.56,0,0,0-2.52-2.79,2.59,2.59,0,0,0-2.59,2.79,2.59,2.59,0,0,0,2.59,2.79A2.56,2.56,0,0,0,45.67,9.54Z" style="fill:#efefef"/><path d="M50.38,5.22h2.2V6.1h0A3.75,3.75,0,0,1,55.31,5a3.87,3.87,0,0,1,2.75,1.17A4.54,4.54,0,0,1,61.13,5,4,4,0,0,1,65.27,9v4.83h-2.2V9.17a2.15,2.15,0,0,0-2.21-2.32A2,2,0,0,0,58.93,9v4.83h-2.2V9.17A2.09,2.09,0,1,0,52.58,9v4.83h-2.2Z" style="fill:#efefef"/><path d="M67.57,0h2.27V2.14H67.57Zm0,5.22h2.2v8.64h-2.2Z" style="fill:#efefef"/><path d="M72.32,5.22h2.2V6.1h0A3.83,3.83,0,0,1,77.26,5a3.92,3.92,0,0,1,4,4.09v4.83h-2.2V9.17A2.28,2.28,0,0,0,74.52,9v4.83h-2.2Z" style="fill:#efefef"/><path d="M92.76,5.22V14c0,2.56-1.84,4.25-4.59,4.25s-4.39-1.57-4.66-3.53h2.25a2.17,2.17,0,0,0,2.41,1.64A2.24,2.24,0,0,0,90.56,14V13h0a3.85,3.85,0,0,1-2.77,1.15,4.39,4.39,0,0,1-4.5-4.59A4.39,4.39,0,0,1,87.75,5a4,4,0,0,1,2.77,1.13h0V5.22Zm-2.2,4.32A2.56,2.56,0,0,0,88,6.75a2.59,2.59,0,0,0-2.59,2.79A2.59,2.59,0,0,0,88,12.33,2.56,2.56,0,0,0,90.56,9.54Z" style="fill:#efefef"/></g></g></svg>