<svg xmlns="http://www.w3.org/2000/svg" width="406" height="310" viewBox="0 0 406 310"><g transform="translate(149 23)" fill="none" fill-rule="evenodd"><path fill="#F6F1DF" d="M11.9 15v-3.98l-2.22 2.22H6.3V2.66L8.12.84H.72l1.82 1.82v10.52L.72 15H11.9zm12.52-5.08c0 3.14-2.76 5.34-5.88 5.34s-5.88-2.2-5.88-5.34c0-3.14 2.76-5.34 5.88-5.34s5.88 2.2 5.88 5.34zm-4.26 0c0-1.74-.02-3.88-1.62-3.88s-1.62 2.14-1.62 3.88c0 1.74.02 3.88 1.62 3.88s1.62-2.14 1.62-3.88zm14.94 3.86l-1.04-1.12c-.66.64-1.48.94-2.12.94-1.64 0-1.98-.68-1.98-3.68 0-3.04.66-3.78 1.38-3.78.48 0 1.02.42 1.48.88l2.24 2.24V5.52c-1.3-.64-2.3-.94-3.98-.94-2.64 0-5.38 2.14-5.38 5.34 0 2.94 2.52 5.34 5.38 5.34 1.82 0 2.74-.36 4.02-1.48zM47.84 15h-5.48v-1.26l-1.4.92c-.62.4-1.14.6-1.86.6-1.46 0-2.74-1.02-2.74-2.74 0-2.52 2.16-3.48 4.88-3.48h1.12V7.22c0-.66-.42-1.08-1.08-1.08-.58 0-1.16.22-1.78.84l-2.24 2.24v-3.8c1.22-.5 3.28-.84 4.38-.84 3.14 0 4.48 1 4.48 3.04v5.66L47.84 15zm-5.48-2.76V10.2h-.62c-1.36 0-1.92.46-1.92 1.92 0 .74.34 1.08.76 1.08.26 0 .52-.12.84-.34l.94-.62zm13.7-5.84h-2.9v6.94c.9.16 1.46-.14 2.12-.74l.9.9c-.82 1.16-1.94 1.7-3.12 1.7-2.28 0-3.66-1.18-3.66-3.4V7.3h-1.82l5.58-5.58v3.12h2.9V6.4zm5.88-4.38c0-1.04-.84-1.88-1.88-1.88s-1.88.84-1.88 1.88.84 1.88 1.88 1.88 1.88-.84 1.88-1.88zM63.76 15l-1.72-1.72v-8.7L56.6 6.36l1.68 1.68v5.24L56.56 15h7.2zm12.4-5.08c0 3.14-2.76 5.34-5.88 5.34s-5.88-2.2-5.88-5.34c0-3.14 2.76-5.34 5.88-5.34s5.88 2.2 5.88 5.34zm-4.26 0c0-1.74-.02-3.88-1.62-3.88s-1.62 2.14-1.62 3.88c0 1.74.02 3.88 1.62 3.88s1.62-2.14 1.62-3.88zM90.46 15l-1.72-1.72V6.94c0-1.54-1.3-2.36-2.44-2.36-1.16 0-2.12.56-3.06 1.5l-.86.86V4.58l-5.44 1.78 1.68 1.68v5.24L76.9 15h7.2l-1.72-1.72v-4.7l.94-.94c.34-.34.7-.62 1.02-.62.4 0 .64.36.64.76V15h5.48z"/><circle cx="41" cy="71" r="35" fill="#97D2CC"/></g></svg>