<svg xmlns="http://www.w3.org/2000/svg" width="358" height="356" viewBox="0 0 358 356" xmlns:xlink="http://www.w3.org/1999/xlink"><defs><circle id="a" cx="32" cy="32" r="26"/><path id="b" d="M0 12V.18h11.821V12H0z"/></defs><g transform="translate(267 145)" fill="none" fill-rule="evenodd"><image width="156" height="156" x="-46" y="-46" opacity=".25"/><circle cx="32" cy="32" r="32" fill-rule="nonzero" fill="#FFF8F1"/><use fill="#327871" xlink:href="#a"/><circle cx="32" cy="32" r="24.5" stroke="#327871" stroke-width="3"/><circle cx="32" cy="32" r="20" fill="#125CB8" transform="rotate(-180 32 32)"/><path d="M16 42.238h11.82L21.912 32zm20.178 0H48L42.09 32zM32.088 16l-5.91 10.237H38z" fill="#A4D8D3"/><g transform="translate(26 27.82)"><mask id="c" fill="#fff"><use xlink:href="#b"/></mask><path fill="#180F5C" d="M11.821 6.09a5.91 5.91 0 1 1-11.82-.001 5.91 5.91 0 0 1 11.82 0" mask="url(#c)"/></g><path fill="#FD7016" d="M26 33.91a5.912 5.912 0 0 1 11.822 0"/></g></svg>