<svg xmlns="http://www.w3.org/2000/svg" width="358" height="356" viewBox="0 0 358 356"><g fill="none" fill-rule="evenodd"><g transform="translate(221 216)"><image width="156" height="156" opacity=".25"/><circle cx="78" cy="78" r="30" fill="#FFF8F1" fill-rule="nonzero"/><circle cx="78" cy="78" r="20" fill="#317870" fill-rule="nonzero"/><circle cx="78" cy="78" r="16" fill="#FC6F15" fill-rule="nonzero"/><path fill="#527CEF" fill-rule="nonzero" d="M78 66c6.627 0 12 5.373 12 12s-5.373 12-12 12-12-5.373-12-12 5.373-12 12-12zm0-8c-11.046 0-20 8.954-20 20s8.954 20 20 20 20-8.954 20-20a20 20 0 0 0-20-20z"/><path fill="#317770" fill-rule="nonzero" stroke="#317770" d="M65.5 78c0 6.904 5.596 12.5 12.5 12.5S90.5 84.904 90.5 78"/><path fill="#170F5C" fill-rule="nonzero" d="M78 69.38l-9.68 16.78h19.36z"/></g><path fill="#317870" fill-rule="nonzero" d="M299 270a24 24 0 0 0-23.3 18.2L299 294v-24z"/><path fill="#170F5C" fill-rule="nonzero" d="M276.3 286.22a24 24 0 0 0 9.6 28L299 294l-22.7-7.78z"/><path fill="#527CEF" fill-rule="nonzero" d="M284.24 312.92a24 24 0 0 0 29.54 0L299 294l-14.76 18.92z"/><path fill="#DD3746" fill-rule="nonzero" d="M312.06 314.12a24 24 0 0 0 9.62-28L299 294l13.06 20.12z"/><path fill="#FC6F15" fill-rule="nonzero" d="M322.26 288.18A24 24 0 0 0 299 270v24l23.26-5.82z"/></g></svg>