<svg xmlns="http://www.w3.org/2000/svg" width="857" height="656" viewBox="0 0 857 656" xmlns:xlink="http://www.w3.org/1999/xlink"><defs><path id="a" d="M21.19 22.148h11.413c.66-7 1.651-7 2.973-7V.908H.238c4.695 9.149 12.034 16.6 20.951 21.24z"/><path id="c" d="M.418.01h56.68v49.78H.418V.01z"/><path id="e" d="M99.927 153.714V0H0v153.714h99.927z"/><path id="g" d="M99.414 149.832V.08H.002v149.752z"/></defs><g fill="none" fill-rule="evenodd"><path fill="#F6F1DF" d="M353.912 609.048V606.6h-3.072v-3.072h-2.448v3.072h-3.072v2.448h3.072v3.072h2.448v-3.072zm163 0V606.6h-3.072v-3.072h-2.448v3.072h-3.072v2.448h3.072v3.072h2.448v-3.072zM190.42 615l-2.184-2.184v-12.624l2.184-2.184h-6.264l-3.912 6.96-3.912-6.96h-6.792l2.184 2.184v12.624L169.54 615h6.72l-2.184-2.184V602.76l4.824 8.712 4.824-8.688v10.032L181.54 615h8.88zm15-6.096c0 3.768-3.312 6.408-7.056 6.408s-7.056-2.64-7.056-6.408c0-3.768 3.312-6.408 7.056-6.408s7.056 2.64 7.056 6.408zm-5.112 0c0-2.088-.024-4.656-1.944-4.656s-1.944 2.568-1.944 4.656c0 2.088.024 4.656 1.944 4.656s1.944-2.568 1.944-4.656zm20.736-6.096l-2.064 2.064L214.66 615h-2.784l-4.32-10.128-2.064-2.064h8.76l-2.04 2.04 2.352 5.544 2.28-5.544-2.04-2.04h6.24zm12.384 6.36h-7.32v.744c0 2.712 1.248 3.432 2.568 3.432 1.368 0 2.448-.648 3.456-1.632l1.224 1.224c-1.656 1.632-3.624 2.376-5.784 2.376-3.744 0-6.576-2.856-6.576-6.408 0-3.576 2.784-6.408 6.696-6.408 3.528 0 6.72 2.976 5.736 6.672zm-5.736-4.8c-1.032 0-1.584.936-1.584 2.928h2.736c.576-.888.264-2.928-1.152-2.928zM256.996 615l-2.064-2.064v-7.344c0-1.728-.744-3.096-2.472-3.096-1.488 0-2.64 1.008-3.456 1.824l-1.032 1.032c-.072-1.464-.72-2.856-2.472-2.856-1.056 0-2.112.48-3.456 1.824l-1.032 1.032v-2.856l-6.408 2.136 2.016 2.016v6.288L234.556 615h8.52l-2.064-2.064v-5.616l.936-.936c.264-.264.672-.624 1.056-.624.48 0 .576.36.576.792V615h6.456l-2.064-2.064v-5.616l.936-.936c.288-.288.648-.624 1.056-.624.432 0 .576.312.576.792V615h6.456zm13.104-5.832h-7.32v.744c0 2.712 1.248 3.432 2.568 3.432 1.368 0 2.448-.648 3.456-1.632l1.224 1.224c-1.656 1.632-3.624 2.376-5.784 2.376-3.744 0-6.576-2.856-6.576-6.408 0-3.576 2.784-6.408 6.696-6.408 3.528 0 6.72 2.976 5.736 6.672zm-5.736-4.8c-1.032 0-1.584.936-1.584 2.928h2.736c.576-.888.264-2.928-1.152-2.928zM287.5 615h-6.576v-8.664c0-.48-.288-.912-.768-.912-.384 0-.816.336-1.224.744l-1.128 1.128v5.64l2.064 2.064h-8.64l2.064-2.064v-6.288l-2.016-2.016 6.528-2.136v2.832l1.032-1.032c1.128-1.128 2.28-1.8 3.672-1.8 1.368 0 2.928.984 2.928 2.832v7.608L287.5 615zm9.864-10.32h-3.48v8.328c1.08.192 1.752-.168 2.544-.888l1.08 1.08c-.984 1.392-2.328 2.04-3.744 2.04-2.736 0-4.392-1.416-4.392-4.08v-5.4h-2.184l6.696-6.696v3.744h3.48v1.872zm116.476-1.896v-4.776h-13.296l2.184 2.184v12.624L400.544 615h8.88l-2.184-2.184v-5.856h2.616l2.184 2.184v-6.48l-2.184 2.184h-2.616v-4.728h3.936l2.664 2.664zm15.144 6.12c0 3.768-3.312 6.408-7.056 6.408s-7.056-2.64-7.056-6.408c0-3.768 3.312-6.408 7.056-6.408s7.056 2.64 7.056 6.408zm-5.112 0c0-2.088-.024-4.656-1.944-4.656s-1.944 2.568-1.944 4.656c0 2.088.024 4.656 1.944 4.656s1.944-2.568 1.944-4.656zm12.576-1.896l1.848-1.872 3.432 3.432v-5.976s-.96-.096-1.224-.096c-1.68 0-2.664.672-3.264 1.32l-.792.864v-2.184l-6.528 2.136 2.016 2.016v6.288L429.872 615h8.64l-2.064-2.064v-5.928zM464.672 615l-2.064-2.064v-7.344c0-1.728-.744-3.096-2.472-3.096-1.488 0-2.64 1.008-3.456 1.824l-1.032 1.032c-.072-1.464-.72-2.856-2.472-2.856-1.056 0-2.112.48-3.456 1.824l-1.032 1.032v-2.856l-6.408 2.136 2.016 2.016v6.288L442.232 615h8.52l-2.064-2.064v-5.616l.936-.936c.264-.264.672-.624 1.056-.624.48 0 .576.36.576.792V615h6.456l-2.064-2.064v-5.616l.936-.936c.288-.288.648-.624 1.056-.624.432 0 .576.312.576.792V615h6.456zm113.308-5.472c0 3.36-1.944 5.856-6.288 5.856-.696 0-1.488-.072-2.208-.192l-3.504-.624 1.944-3.84 1.728 2.16c.552.552 1.248.768 1.944.768 1.248 0 2.304-.816 2.304-2.232 0-.936-.552-1.416-1.248-1.92l-3.192-2.256c-1.56-1.104-2.712-2.664-2.712-4.56 0-2.304 1.488-5.064 5.616-5.064.792 0 1.608.096 2.328.216l3.384.624-1.944 3.624-1.632-1.992c-.408-.384-.864-.672-1.584-.672-.864 0-1.92.432-1.92 1.92 0 .648.384 1.2.936 1.584l3.528 2.448c.816.552 2.52 1.896 2.52 4.152zm15.432-6.72l-2.064 2.064-5.592 12.888 2.04 2.04h-6.984l2.688-2.064 1.176-2.712-4.656-10.152-2.064-2.064h8.76l-2.04 2.04 2.256 5.016 2.16-5.016-2.04-2.04h6.36zM615.156 615H608.7v-8.448c0-.48-.144-.792-.576-.792-.408 0-.768.336-1.056.624l-.936.936v5.616l2.064 2.064h-6.456v-8.448c0-.432-.096-.792-.576-.792-.384 0-.792.36-1.056.624l-.936.936v5.616l2.064 2.064h-8.52l2.064-2.064v-6.288l-2.016-2.016 6.408-2.136v2.856l1.032-1.032c1.344-1.344 2.4-1.824 3.456-1.824 1.752 0 2.4 1.392 2.472 2.856l1.032-1.032c.816-.816 1.968-1.824 3.456-1.824 1.728 0 2.472 1.368 2.472 3.096v7.344l2.064 2.064zm14.568-6.096c0 3.84-2.352 6.408-5.184 6.408-1.968 0-3.096-.816-3.768-1.56l-4.032 1.824v-14.784l-2.016-2.016 6.528-2.016v7.272c.624-.864 1.776-1.536 3.288-1.536 2.832 0 5.184 2.568 5.184 6.408zm-5.064 0c0-2.784-.36-4.32-1.608-4.32-.672 0-1.416.624-1.8 1.464v5.712c.384.84 1.128 1.464 1.8 1.464 1.248 0 1.608-1.536 1.608-4.32zm20.712 0c0 3.768-3.312 6.408-7.056 6.408s-7.056-2.64-7.056-6.408c0-3.768 3.312-6.408 7.056-6.408s7.056 2.64 7.056 6.408zm-5.112 0c0-2.088-.024-4.656-1.944-4.656s-1.944 2.568-1.944 4.656c0 2.088.024 4.656 1.944 4.656s1.944-2.568 1.944-4.656zM654.78 615l-2.064-2.064V596.76l-6.528 2.016 2.016 2.016v12.144L646.14 615h8.64zm6.696-15.576a2.253 2.253 0 0 0-2.256-2.256 2.253 2.253 0 0 0-2.256 2.256 2.253 2.253 0 0 0 2.256 2.256 2.253 2.253 0 0 0 2.256-2.256zM663.66 615l-2.064-2.064v-10.44l-6.528 2.136 2.016 2.016v6.288L655.02 615h8.64zm10.44-3.768c0-1.656-.816-2.712-2.208-3.48l-3.12-1.824c-.36-.216-.672-.456-.672-.816 0-.504.36-.84 1.152-.84.456 0 1.152.288 1.752.888l1.44 1.44 1.704-3-3.24-.864a8.166 8.166 0 0 0-1.872-.24c-2.232 0-4.656 1.104-4.656 3.936 0 1.392.912 2.616 2.136 3.288l3.216 1.8c.36.216.648.504.648.864 0 .624-.384 1.128-1.224 1.128-.672 0-1.296-.48-1.728-.912l-1.704-1.704-1.944 3.312 3.48.864c.552.144 1.296.24 1.92.24 3.504 0 4.92-1.92 4.92-4.08zM697.14 615l-2.064-2.064v-7.344c0-1.728-.744-3.096-2.472-3.096-1.488 0-2.64 1.008-3.456 1.824l-1.032 1.032c-.072-1.464-.72-2.856-2.472-2.856-1.056 0-2.112.48-3.456 1.824l-1.032 1.032v-2.856l-6.408 2.136 2.016 2.016v6.288L674.7 615h8.52l-2.064-2.064v-5.616l.936-.936c.264-.264.672-.624 1.056-.624.48 0 .576.36.576.792V615h6.456l-2.064-2.064v-5.616l.936-.936c.288-.288.648-.624 1.056-.624.432 0 .576.312.576.792V615h6.456z"/><g fill="#F6F1DF"><path d="M250.114 128.38l-10.59 10.506-18.813 8.354-3.753 5.065-1.314 4.844-3.49 1.055 2.43-6.629 7.803-10.084 11.67-4.356 9.45-14.891z"/><path d="M242.28 123.763l7.87-3.513 18.932-1.64 12.55-5.152 6.595 5.387-11.062 12.883-9.146.702-19.858-2.056z"/><path d="M254.023 125.978l-6.94 15.292-13.407 10.185.365 4.426 2.926 4.828-.913 2.354-1.78-3.484-2.79-4.1.912-8.047 10.668-7.77 4.565-15.292zm25.522-1.837l4.254 6.325 17.868 1.64 6.382 2.576 1.376 1.596 2.027.98-1.913-4.216-7.872-3.747-14.292-2.816-1.484-7.185z"/><path d="M280.939 124.762l1.925 5.692 13.25 3.66 3.836 3.562.566 1.886-1.384-.094-1.007-1.186-4.23-2.344-14.64-1.961-3.048-6m5.037-13.787l2.304-3.044-.345-1.944 3.57-2.578h1.613l3.915 4.607 1.844.973-1.613.802.345 2.304-.23 2.928-.922 1.147-4.03.51m-37.622.622c-4.173 2.398-25.298-.297-25.078-22.523.223-22.226 9.671-28.27 19.718-28.27 10.045 0 17.824 12.723 12.501 22.493-1.33 2.199.584 8.563 3.823.802 4.329-10.373-3.557-26.122-16.373-26.122-12.815 0-22 10.525-22 31.007s17.3 28.577 21.516 31.263"/></g><path fill="#F6F1DF" d="M763.091 118.243c.37 0 4.394.035 4.394.035l.669-3.385-2.593-2.705 1.852-2.963s-11.856-2.824-13.091.912c-1.234 3.736-3.824 16.094 3.583 27.045 2.47 3.478 6.668 3.22 5.557 9.147-1.111 5.926-1.923 12.089-1.923 12.089l-3.401.657-.973.6h7.531l5.309-20.715 4.816 2.59s-2.593 1.874-.494 6.898c2.099 5.025 3.087 5.576 3.087 10.47-1.853.259-3.528.122-3.528.122l-.247.636h8.343l-1.358-7.447s4.321-4.11 5.802-9.262"/><path fill="#F6F1DF" d="M784.601 143.987s4.287 6.6 7.99 9.049c3.704 2.447 5.168 5.334 5.168 5.334l-5.464.68-.4.626h8.182s1.26-2.415-3.455-7.973c-4.714-5.557 1.04-11.444-5.134-18.272-6.172-6.829-19.895-9.882-29.155-10.269m-4.081 9.698l-6.524 13.033a7.974 7.974 0 0 0-.764 4.614l.035.268c.15 1.114 1.37 1.677 2.259 1.041.41-.293.648-.784.631-1.302l-.05-1.546 8.684-11.8"/><path fill="#F6F1DF" d="M764.697 160.312c-1.71 0-5.904.186-7.532 0-14.222-1.62-25.405-10.543-30.934-24.476-7.331-18.467-3.226-41.673 9.718-55.18 13.572-14.16 28.866-16.314 39.294-15.619 12.508.828 24.69 6.232 32.57 14.455 7.12 7.43 11.87 17.644 13.024 28.021 1.182 10.627-1.58 20.312-7.582 26.575l-.028.03c-.126.121-12.712 11.969-24.45-.28l1.435-1.498c10.26 10.706 20.996.833 21.627.234 5.55-5.803 8.096-14.847 6.987-24.816-1.102-9.913-5.637-19.67-12.44-26.77-7.54-7.868-19.226-13.041-31.256-13.84-10.007-.662-24.678 1.403-37.714 15.005-12.389 12.926-16.278 35.163-9.248 52.874 2.726 6.868 6.941 12.577 12.31 16.507 5.999 4.392 13.415 6.619 21.53 6.619l2.689 2.16z"/><path fill="#211F1C" d="M762.589 156.308l-5.544 2.466s4.647.795 4.73.795c.08 0 .814-3.261.814-3.261"/><path fill="#F6F1DF" d="M761.231 158.744l2.62-4.948 2.412-15.188 2.995-5.382 7.486 3.254 2.204 10.069 7.029-4.21 5.49 5.773 7.819 10.024.249 2.605z"/><path fill="#7B2D3B" d="M759.472 160.535c2.925-.217 5.364-3.041 6.568-5.637.47-1.02.799-2.102 1.177-3.161.568-1.593 1.25-3.14 1.775-4.75.536-1.644.933-2.306 1.72-3.844.318-.624.696-1.182.933-1.829.088-.238.564-1.774.99-1.158.416.605.757 1.324 1.255 1.86.477.513.92.8 1.053 1.575.102.596.054 1.214.177 1.806.214 1.027.653.88 1.329 1.66 1.281 1.482 2.517 3.339 4 4.595 1.414 1.196 2.819-.448 3.543-1.657.55-.92.962-1.929 1.56-2.817.203-.302.466-.612.819-.653.341-.04.667.2.848.504.557.941.966 1.828 1.635 2.695.805 1.045 1.888 1.9 2.852 2.8l6.212 5.782c.45.42 1.04.87 1.602.641.624-.252.714-1.117.703-1.815 0 1.544.782 3.115.782 4.69l-38.337 1.467s-6.659-2.495-3.196-2.754"/><path fill="#F6F1DF" d="M794.824 92.696a7.617 7.617 0 0 0-1.064-.917c.694 2.947-.054 6.187-2.26 8.49-2.206 2.301-5.311 3.08-8.135 2.358.256.389.545.762.878 1.11 2.922 3.048 7.66 3.048 10.581 0 2.922-3.05 2.922-7.993 0-11.041"/><g transform="translate(729.17 137.722)"><mask id="b" fill="#fff"><use xlink:href="#a"/></mask><path fill="#F6F1DF" d="M-6.267 1.796c.35.047 1.738 1.188 2.165 1.575.428.385 1.05 2.55 1.926 2.668.876.118 1.319 1.82 1.871 1.675.553-.143 3.308-2.727 4.109-2.948.799-.22.574-.798 1.152-1.158.58-.36 1.107 1.135 1.925 1.245.818.11.896-1.959 1.633-2.626.736-.666.303-1.49.991-1.289.688.203 3.086 7.204 3.492 8.244.406 1.04.604 1.833 1.146.812.543-1.022 1.606-2.41 2.83-5.091 1.223-2.682 1.89-1.825 2.478-1.308.59.517 1.602 2.406 2.354 3.054.75.649 1.41 3.475 2.191 2.924.782-.552 1.325-.15 1.649.113.324.262 1.154 2.673 1.685 3.183.53.51 1.82 1.12 2.545 1.985.724.864 2.79 3.074 5.262 3.034.755-.012.46.51-.313 1.239-3.132 2.953-7.605 3.787-11.577 2.299L-4.871 10.894l-1.396-9.098z" mask="url(#b)"/></g><path d="M566.728 101.297c.557 0 6.5.925 6.5.925l1.114-5.733-3.9-3.883 2.786-4.254s-16.53-2.774-18.387 2.59c-1.857 5.362-7.057 21.822 4.086 37.54 3.714 4.994 10.03 4.624 8.358 13.13-1.672 8.508-2.786 16.46-2.786 16.46l-6.686 3.698 11.33-.185 7.985-30.143 7.244 3.513s-3.9 2.589-.743 9.802c3.157 7.212 4.643 7.952 4.643 14.98-2.786.37-4.086.554-4.086.554l-.371 3.144 11.329.554-2.043-13.5s6.5-6.102 8.73-13.5" fill="#F6F1DF"/><path fill="#F6F1DF" d="M599.084 138.25s4.345 9.718 9.917 13.232c5.572 3.514 5.274 8.053 5.274 8.053h-8.465l-.636 3.832 16.9-.428s-1.512-6.407-6.527-10.29c-5.015-3.885 3.185-19.529-6.102-29.33-9.286-9.801-30.83-15.912-44.76-16.466m.419 18.694l-13.059 16.72v7.32l3.304-1.049 1.396-4.363 13.814-11.723"/><g transform="translate(594.276 79.8)"><mask id="d" fill="#fff"><use xlink:href="#c"/></mask><path fill="#F6F1DF" d="M.418 37.658s33.132 9.27 41.21 7.634c8.077-1.636 19.303-17.177 5.476-34.898-13.828-17.722-29.299-5.317-29.846 0-.548 5.316-4.381 3.953-4.93 1.772C11.783 9.986 21.777-1.466 31.223.17c9.447 1.636 22.316 5.998 24.78 19.766 2.465 13.768 1.917 28.082-13.964 29.581-15.881 1.5-32.447-3.68-32.447-3.68" mask="url(#d)"/></g><g fill="#F6F1DF"><path d="M431.386 150.078l-4.183 10.192-5.444-9.521a.726.726 0 0 0-1.088-.227c-.753.592-2.347 1.64-5.6 3.173-.696.327-.543 1.4.21 1.507 4.625.658 5.68 2.83 5.68 2.83l4.476 5.753h12.036c.646 0 1.17-.551 1.17-1.232v-.493c0-.68-.524-1.231-1.17-1.231h-7.248l2.094-3.355s3.159.458 8.368-1.631c.773-.31.77-1.459-.004-1.768a37.478 37.478 0 0 1-7.974-4.4c-.463-.337-1.1-.141-1.323.403"/><path d="M408.074 137.68c6.805 0 27.773.101 36.35.144 2.205.011 4.149-1.513 4.776-3.74a.6.6 0 0 0-.1-.528l-1.007-1.297c-.306-.393-.01-.981.47-.937l2.888.267a.39.39 0 0 0 .045.003l11.932.033c.462 0 .714.566.42.94l-1.41 1.8a.599.599 0 0 0-.007.724l2.367 3.146a2.622 2.622 0 0 1-.08 3.23l-.426.51c-.334.4-.78.679-1.274.795l-8.295 1.952c-1.11.261-1.895 1.307-1.877 2.506 0 0 3.61 14.093 21.938 14.093h5.241c.646 0 1.17.552 1.17 1.233 0 .68-.524 1.231-1.17 1.231H468.33a22.2 22.2 0 0 1-10.216-2.5c-7.56-3.911-21.724-11.29-25.817-13.763-5.67-3.426-9.553-1.185-10.956 0-1.403 1.186-9.099 9.364-26.505 9.364h-7.864c-1.163 0-2.104.992-2.104 2.218 0 1.224.941 2.217 2.104 2.217h3.273c.646 0 1.169.552 1.169 1.233 0 .68-.523 1.231-1.17 1.231h-3.506c-2.583 0-4.676-2.206-4.676-4.928s2.093-4.928 4.676-4.928h7.949s8.983-.864 10.249-13.209c.174-1.708 1.51-3.023 3.139-3.04"/><path d="M411.854 138.1s-13.083-15.94 3.39-33.299c16.471-17.36 28.336-8.157 33.918-2.274 5.582 5.882 5.856 1.35 3.66-2.894-2.196-4.243-21.526-15.057-39.187 3.558-17.662 18.613-8.624 29.632-8.624 37.412"/></g><g fill="#F6F1DF"><path d="M87.76 98.721s12.819-19.51 18.54-24.85c5.723-5.343 8.928-12.544 14.422-13.937 5.492-1.394 18.082 8.826 15.107 15.562-2.976 6.735-8.241 21.6-13.276 25.316-5.037 3.716-19.913 9.755-22.89 10.45-2.976.698-25.865 13.473-11.903-12.54"/><path d="M121.179 61.792s1.83-4.181 1.602-6.967c0 0 2.828-8.081 6.168-10.986 3.579-1.453 10.618 1.937 11.93 5.81 1.314 3.875 1.79 14.65-.596 16.102-2.385 1.452-7.397-1.453-10.142-1.574-2.743-.12-9.424-2.3-9.424-2.3"/><path d="M126.877 48.881s-1.263-3.686-2.844-1.603c-1.58 2.085-2.211 5.932.316 6.412m-30.333 54.824s22.909 13.626 23.382 16.833c.474 3.206-.632 10.42-10.427 17.794-9.795 7.374-8.372 9.296-6.004 10.099 2.37.8 10.27 3.206 11.534 3.847 1.264.64 3.001 2.564 3.001 3.367 0 .8-5.056 1.281-6.319 1.281-1.264 0-11.216-3.205-12.637-3.366-1.424-.16-8.058-6.573-8.217-7.854 0 0 7.426-6.573 10.111-10.261 2.686-3.687 7.426-10.098.79-10.74-6.635-.641-20.695-13.144-14.85-23.244 5.845-10.099 9.636 2.244 9.636 2.244M130.2 80.766s.117 14.823 3.74 23.363c3.622 8.536 2.22 20.632-6.661 27.154-1.052-7.945 4.675-2.252 3.973-12.45-.701-10.2-2.338-15.298-8.299-24.667"/><path d="M102.56 110.035s22.322 13.074 23.307 15.822c.986 2.747-1.395 12.99-4.678 18.15-3.283 5.165-10.996 10.494-1.887 13.408 9.109 2.915 7.714 5.746 5.417 5.995-2.299.25-14.526-3.746-16.823-5.496-2.298-1.748-2.463-2.997-.246-6.244 2.215-3.248 11.57-16.987 10.01-19.152-1.558-2.166-26.259-8.41-26.833-16.155-.575-7.744 11.734-6.328 11.734-6.328m-9.436-6.033s-32.442 9.927-43.21-15.404C39.15 63.265 47.775 51.166 60.14 45.59c12.365-5.576 28.26 4.538 26.56 18.573-.545 3.233 4.973 9.389 5.105-1.211.174-14.168-17.355-27.655-33.13-20.542C42.904 49.523 36.827 66.559 47 89.789c10.175 23.232 35.49 22.811 42.011 23.519"/></g><g fill-rule="nonzero"><path fill="#DECEC2" d="M766.204 446.19l-5.082-1.336a.111.111 0 0 1-.077-.108.11.11 0 0 1 .077-.107c.106-.035.096-.265-.014-.283a8.47 8.47 0 0 1-.936-.212c-2.78-.74-4.966-2.382-5.901-4.599 0 0-1.758-4.544-1.81-4.483 0 0-3.195 3.014-3.096 3.118.038.04-.04.107 0 .151l2.865 3.558c1.026 1.273 2.51 2.272 4.26 2.849h.016l8.824 2.347c.226.06.466.01.653-.14a.843.843 0 0 0 .31-.627v-.02a.11.11 0 0 0-.09-.108z"/><path fill="#7B2D3B" d="M750.25 371.17c1.05 1.685 1.72 3.159 2.088 4.473a4.254 4.254 0 0 0 .39-1.344v-.053c.204-1.561-.01-3.733-.082-4.371l-.023-.188a8.189 8.189 0 0 0-2.949.649c.2.26.391.54.575.834z"/><path fill="#F6F1DF" d="M797.15 376.265c.33-.063 1.41 1.599 2.182 4.087.113-.191.233-.378.362-.558 4.52-6.25 17.695-24.712 20.655-37.936 2.082-6.362 2.362-11.822 1.915-15.581-.325-11.063-4.604-21.575-11.959-29.382-15.7-16.718-41.335-16.903-57.236-.41-16.352 16.956-16.492 44.844-.422 61.988.88-.938.922-2.444.098-3.437-13.085-15.723-11.909-39.758 2.016-54.99 14.423-15.78 38.306-15.745 52.915-.163 3.236 3.453 11.868 16.098 10.12 31.872-1.56 14.12-13.085 31.382-17.263 36.255-3.08 3.575-7.786 4.995-12.166 3.671l-.05-.014.289.065c.07.016-.174-.093-.76-.214-.186-.04-.41-.078-.666-.117l.305.039c-3.015-.663-9.586-2.03-15.848-2.847-4.13-.54-8.128-.84-10.89-.544l-.282.032a37.718 37.718 0 0 0-7.82 1.786c.074.65.287 2.81.083 4.37v.054a4.254 4.254 0 0 1-.39 1.344c-.368-1.316-1.037-2.79-2.089-4.473a13.81 13.81 0 0 0-.57-.842c-1.517-2.102-3.611-3.645-5.99-4.415a17.148 17.148 0 0 0-3.348-2.99c-.596-.394-1.238-.742-1.933-.84a.505.505 0 0 1 .162.5 1.17 1.17 0 0 1-.26.488c-.26.311-.541.6-.843.866-.912.848-1.865 1.71-2.95 2.273-2.004.75-3.727 1.9-4.868 3.272l.432.055c-3.021.412-5.197 2.076-6.529 4.99 5.185-2.38.867 13.147.913 14.296.055-.403 3.262.34 6.907 1.44 2.264.683 4.696 1.503 6.645 2.272a15.537 15.537 0 0 1-4.887-.208c.748 3.785 3.491 9.627 11.008 16.75a3.05 3.05 0 0 1 .92 1.947l1.546 20.57a840.224 840.224 0 0 1-4.83 9.529l-.5.974a6.9 6.9 0 0 1-.992 1.251 10.088 10.088 0 0 1-3.31 2.318c-1.64.691-13.13 2.697-11.217 4.483.218.204 2.35-1.487 5.444-1.415h5.935c1.065 0 2.891-.043 2.956-.108.697-.743 1.69-1.108 2.283-1.985 1.378-2.033 3.618-5.507 5.874-8.883 1.217-1.824 2.512-3.769 3.822-5.752 6.28-9.513 12.943-19.925 13.605-22.261h.05l.376-1.594h-.812c-.626-1.46-1.853-3.93-3.325-6.773l-.143-.278c-4.108-7.93-4.564-12.801-4.59-12.949-.222-1.52-.08-2.719.26-3.665.231.06.466.104.703.132-.132.91-.078 2.066.304 3.535 1.065 4.075 5.755 13.03 5.755 13.03l.135-.018-.139.013s2.336-.26 2.74-.487l.408-.152c2.068-.552 6.591-2.052 9.89-3.247a111.012 111.012 0 0 0-1.558 7.696 4.63 4.63 0 0 0 .256 2.447c1.622 4.126 8.413 19.23 13.853 25.848.152.419-5.984 13.985-11.64 14.824-3.23.487-5.872 1.23-5.942 1.299 0 0-2.362.626-1.26 1.356l4.995-1.095c.084-.024.17.029.193.118a.17.17 0 0 1-.111.206l-.066.025c.002.118.05.23.133.308a.377.377 0 0 0 .304.102l-.43.052v.012c.696-.088 1.418-.182 2.15-.281 7.578-.974 18.511-13.764 18.058-16.03.152-.113.137-.282-.087-.523l-7.158-13.591c.141.097.284.191.435.276 5.325 2.993 10.691 6.21 13.256 6.989.704.214 1.149.952 1.04 1.723l-1.511 10.875a14.7 14.7 0 0 1-1.42 4.556l-1.94 3.855c-.09.346.02.717.28.945l2.464-4.576.051-.087a.18.18 0 0 1 .23-.067c.082.04.126.136.105.229l-.018.06a.226.226 0 0 0 .077.25c.05.036.114.047.173.03a.212.212 0 0 0 .132-.123l5.42-18.536s1.254-1.623-.903-2.949l-6.291-6.55-8.673-7.861-4.7 7.546-.19-.36a1.87 1.87 0 0 1-.514-1.3l.176-.351 5.713-11.455.728-1.46a88.413 88.413 0 0 0 2.73-5.405c2.196-4.766 2.679-9.05 2.555-12.164a6.98 6.98 0 0 1 .022-.868l-.03-.174c-.643-3.78-1.65-6.754-1.223-6.84zm-42.379 38.143c-.029.057-1.16 2.435-2.553 5.368l.394-4.665a9.316 9.316 0 0 0-.035-4.87c-.048-.176-.096-.342-.135-.494a17.176 17.176 0 0 0-.492-1.581c.188 0 .361 0 .513-.013.85-.057-.995-2.131-1.788-2.979l-.169-.357a8.73 8.73 0 0 0 2.926-1.103l1.826 3.186c1.096 2.569.778 5.035-.487 7.52v-.012z"/><path fill="#7B2D3B" d="M745.13 388.187c.056-.239.276-.38.44-.55a1.93 1.93 0 0 0 .47-1.318 5.856 5.856 0 0 0-.221-1.424l-.358-1.488c.04.14 1.522-1.948 2.174-2.922.653-.974.696-2.683.647-3.895-.049-1.213-.467-1.84-.467-1.84s-1.689-.163-2.019-.093a6.97 6.97 0 0 0-1.766.487 4.04 4.04 0 0 1-.772.339c-.272.063-.704.055-.67.185-.293.191-.61-.237-.949-.283a1.406 1.406 0 0 0-.392.046c-.411.063-.819-.098-1.217-.21-.813-.227-3.21-.246-3.51.104-.77.9-1.28 3.084-.951 4.248.165.59.528 1.092.893 1.57.608.788 1.745 1.915 2.405 2.652a.537.537 0 0 1 .174.324.544.544 0 0 1-.084.263l-1.742 3.357a.477.477 0 0 0 .105.734l1.314 1.102.223.035a8.217 8.217 0 0 0 3.195.934 3.98 3.98 0 0 0 1.684-.174c.104-.037.206-.082.304-.133.543-.287.99-.843 1.065-1.474.01-.075.015-.151.014-.227a1.367 1.367 0 0 1 .01-.35zm-15.092-10.808c-.685-1.401-.423-2.16-.283-3.005.155.247.38.434.644.533a4.82 4.82 0 0 1 .474-.661l.44-.367.128-.107c-1.001-1.261-2.57-1.761-3.664-1.96a7.639 7.639 0 0 0-1.241-.132s-.347 2.706-.105 4.56v.054c.04.338.12.668.237.984.41 1.014.592 1.243 1.25 1.969l.031.034c.902.995 2.328.945 3.306.448l-.88-1.51a3.284 3.284 0 0 1-.337-.84z"/></g><g transform="translate(383 297)"><mask id="f" fill="#fff"><use xlink:href="#e"/></mask><path fill="#F6F1DF" d="M22.549 85.879a3.606 3.606 0 0 1-2.393 4.506l-2.12-6.896a3.612 3.612 0 0 1 4.513 2.39zm58.906 4.436c2.878-2.997 5.9-6.6 8.635-10.673 14.556-19.539 12.959-47.294-4.797-65.026-19.513-19.488-51.151-19.488-70.665 0C-.58 29.805-3.926 52.346 4.572 70.78a1.482 1.482 0 1 0 2.661-1.2C-.469 52.296 2.854 31.001 16.92 16.954c18.107-18.082 48.335-17.967 66.441.115 5.937 5.929 9.962 13.168 12.078 20.896l.01.033c.295 1.081.552 2.17.772 3.268l.03.152.034.179c4.384 24.811-19.478 47.174-27.29 45.718l.014.026c-4.94-.604-17.752-3.117-24.823-2.188-2.523.331-6.132 2.078-8.285 2.77.035.226.051.451.03.658-.141 1.31-.503 2.084-1.63 2.674a5.436 5.436 0 0 1-.462.214c-.035.014-.072.03-.108.043l-.17.067a9.272 9.272 0 0 1-.32.111s-1.36.498-2.163.763c-.058.019-.13.031-.208.04l-.04.006a2.069 2.069 0 0 1-.254.005l-.069-.003a2.826 2.826 0 0 1-.292-.031l-.08-.016a3.267 3.267 0 0 1-.273-.062l-.102-.028a3.482 3.482 0 0 1-.428-.161 3.541 3.541 0 0 1-.302-.154c-.047-.026-.092-.056-.137-.084a3.392 3.392 0 0 1-.256-.18c-.052-.04-.103-.084-.154-.128a3.41 3.41 0 0 1-.207-.2l-.085-.09a10.156 10.156 0 0 0 .632-7.556 10.168 10.168 0 0 0-1.527-3.038c.028-.01.054-.023.084-.032 1.017-.335 1.806-.596 2.368-.78l.64-3.494-4.702 1.538 1.045-2.256-8.156-1.308c-5.648 3.99-6.703 10.64-5.696 14.446 1.007 3.807 4.714 7.921 4.714 7.921l6.63.054-4.12 2.83s4.03 5.2 6.514 7.87v19.631L12.22 151.14s-6.35-1.466-9.695 2.575h10.702s14.812-17.174 17.915-22.41c1.443-2.433 3.349-8.124 4.976-13.519l2.25 6.387-2.695 17.1s-4.434 2.469-5.453 7.805c4.33-3.268 6.967-5.23 6.967-5.23s5.567-14.464 6.135-19.396c.22-1.9.237-5.73.177-9.721-2.395.008-4.47-.313-6.245-.812.294-1.024.569-1.999.818-2.896 2.967.766 6.775 1.031 11.53.092 9.616-1.9 19.176-6.966 24.355-10.045-.22.31-.462.642-.732 1.004a21.747 21.747 0 0 0-1.93 3.087c-4.452 2.583-10.87 5.863-17.675 7.873-1.834 3.277-3.516 7.209-3.653 10.784-.285 7.4 9.586 17.95 11.274 19.7-2.013.575-8.326 2.662-10.562 6.707 5.956-1.81 13.563-4.127 13.565-4.127l.024-2.66-8.264-17.991 13.219-14.032c-.805 4.78-.082 10.233 2.864 16.014 4.996 9.805 21.218 22.92 21.993 23.544-.776-.165-9.756-1.938-14.204 2.742h16.91v-2.788l-15.352-23.484.02-37.127z" mask="url(#f)"/></g><path fill="#F6F1DF" d="M274.241 444.166l.026-10.007-7.491-13.475 19.591-22.392-13.175-2.19-5.062 3.492s-10.813 18.382-10.813 21.09c0 2.709 14 15.136 14 15.136v6.235l2.924 2.111z"/><path fill="#F6F1DF" d="M264.017 447.39c6.328-1.94 10.313-3.111 10.313-3.111l-1.507-2.745h-.86s-5.588.653-7.946 5.857m-8.791-27.471c.561-4.915-.215-22.778-.215-22.778l-13.571-2.997 8.896 25.497-3.143 17.012s-4.39 4.094-3.324 8.628l5.577-7.797s5.219-12.651 5.78-17.566m7.812-16.272l3.134-5.55 6.524-3.348 10.996 1.353 2.98 1.818-12.642 2.106z"/><path fill="#F6F1DF" d="M250.966 407.898c-6.695 0-13.654-5.761-13.947-6.006l-.04-.036-5.432-5.34 4.307-3.035-6.566.062-3.245-3.633 5.179-7.752 4.163-.577c1.196-1.016 8.676-7.1 16.256-7.1h.056l30.14 5.153.057.02c5.857 2.132 9.798 7.783 9.805 14.062v.394l-.34.194c-.598.343-14.722 8.415-18.906 9.845-4.472 1.529-15.066 3.749-21.487 3.749m49.442-41.993c14.396-14.516 14.396-38.052 0-52.568-14.396-14.516-37.737-14.516-52.133 0-14.397 14.517-14.397 38.052 0 52.568l1.457-1.47c-13.358-13.469-12.585-35.29.773-48.76 13.358-13.47 34.136-13.28 47.494.19 13.359 13.469 14.859 35.35 1.5 48.82"/><path fill="#F6F1DF" d="M250.033 365.17c0 .572-.46 1.036-1.028 1.036a1.032 1.032 0 0 1-1.028-1.037c0-.572.46-1.037 1.028-1.037.568 0 1.028.465 1.028 1.037m-38.008 21.307c-.121-2.276 4.617-6.836 4.617-6.836l-1.517-3.245 2.779-1.483 8.243-5.045c6.748 2.081 6.91 6.837 10.563 12.151l-3.728 10.594-3.267.255-13.487.06-4.18-6.212-.023-.239z"/><path fill="#7B2D3B" d="M226.113 378.457c1.61 0 2.916 1.316 2.916 2.94 0 1.623-1.306 2.94-2.916 2.94v-5.88z"/><path fill="#F6F1DF" d="M212 450.987h8.929s13.22-19.822 16.517-25.439c3.298-5.616 11.42-26.007 11.42-26.007l-14.243-3.237-.634 26.39-14.101 25.53s-6.585.062-7.888 2.763m94.476-123.544c10.624 28.568-19.865 52.846-28.105 54.08l8.869 6.963c10.19-9.66 32.706-33.435 21.763-61.408"/><path fill="#F6F1DF" d="M295.482 450.987h13.335v-9.293l-17.829-18.241.027-42.057-11.198 12.817-5.15 3.558s.4 4.348 1.253 3.71c.853-.638 4.66-2.295 4.66-2.295s-2.817 2.573-3.148 6.317c-.332 3.745 2.9 19.287 6.658 23.353 3.759 4.066 21.885 14.478 21.885 14.478l.04 4.887s-6.765-1.736-10.533 2.766M72.395 375.706c-1.02-1-2.128-2.472.453-2.271a.59.59 0 0 1 .541.587v1.262c0 .518-.624.785-.994.422m69.344 29.075c-.1-.991-1.535-2.47-2.524-2.37-.989.099-1.913 1.616-1.814 2.606 2.512 25.21-9.41 40.508-34.577 43.024-33.846 3.384-54.346-13.423-57.724-47.324-3.691-37.045 14.921-62.147 48.573-65.511 19.182-1.918 36.866 11.311 38.618 28.887 1.03 10.353-7.316 19.859-18.189 21.107-.873.1-2.126.13-3.412.16h-.035c-.878-.05-1.859-.002-2.928.109-.64.043-1.2.105-1.615.197-6.921.96-16.786 3.379-26.462-1.67a.62.62 0 0 1-.188-.154l-2.224-2.706a.587.587 0 0 1 .534-.955c1.143.161 2.654.393 3.456.517a.584.584 0 0 0 .663-.469l.772-3.998a.588.588 0 0 0-.161-.526l-2.757-2.762a.588.588 0 0 1-.101-.695l.896-1.66a.586.586 0 0 0-.461-.865c-2.868-.25-11.836-.711-13.148 3.1-1.463 4.248-3.245 13.065 4.192 25.077.125.2.12.458-.018.65l-9.948 13.962a.587.587 0 0 0-.11.341v4.832c0 .485.556.761.942.467l1.398-1.066a.586.586 0 0 0 .232-.467v-2.855a.59.59 0 0 1 .228-.466l12.159-9.402a.586.586 0 0 1 .697-.014c2.241 1.597 4.05 3.146 3.158 7.714-1.22 6.251-2.156 12.72-2.383 14.329a.584.584 0 0 1-.425.481l-3.805 1.046a.593.593 0 0 0-.239.131l-.003.003a.588.588 0 0 0 .394 1.023h5.03c.26 0 .489-.172.562-.422l7.576-25.844a.587.587 0 0 1 .587-.421l10.087.421c.362.016.626.35.55.707a74.612 74.612 0 0 0-1.2 7.713c-.501 4.82.903 9.75.986 15.48a.592.592 0 0 1-.515.594c-1.84.236-4.213.494-5.138.593a.583.583 0 0 0-.5.428l-.003.008a.587.587 0 0 0 .565.743h8.116a.587.587 0 0 0 .582-.657l-.974-8.115a.583.583 0 0 1 .03-.267c.441-1.231 3.92-10.973 5.72-16.899l.355.193a.58.58 0 0 1 .307.492c.045 1.355.191 4.02.657 7.407.658 4.775 9.39 9.657 11.345 15.319a.59.59 0 0 1-.479.779 272.28 272.28 0 0 1-4.7.556.583.583 0 0 0-.518.563l-.001.022a.587.587 0 0 0 .586.607h7.916a.587.587 0 0 0 .506-.884l-4.658-7.965a.572.572 0 0 1-.056-.128c-.27-.907-3.209-10.915-3.02-16.958a.64.64 0 0 1 .02-.14c.915-3.53 2.637-7.863 2.455-11.403a.592.592 0 0 1 .476-.619c11.86-2.341 20.384-15.092 19.22-26.777-1.945-19.52-21.374-33.638-42.497-31.526-17.917 1.791-32.257 8.896-41.36 21.664-8.725 12.24-11.304 28.456-9.447 47.097 1.78 17.868 7.95 30.792 18.598 39.522 10.65 8.73 24.065 11.805 41.904 10.022 13.538-1.354 22.739-6.094 29.373-14.21 6.632-8.117 10.647-17.964 9.296-31.523"/><g transform="translate(553 299.51)"><mask id="h" fill="#fff"><use xlink:href="#g"/></mask><path fill="#F6F1DF" d="M51.003 1.057a3.773 3.773 0 0 0 3.205 1.835l8.152.082c9.484 0 17.172 7.728 17.172 17.26v.908h10.242c5.324 0 9.64 4.338 9.64 9.69v119H.003V29.924c0-5.352 4.316-9.69 9.64-9.69h10.243c0-9.532 7.688-17.26 17.172-17.26l10.033-.087a2.88 2.88 0 0 0 2.415-1.347L50.42.08l.582.977z" mask="url(#h)"/></g><path fill="#999" d="M595.26 413.119l-.113.01.001.003.113-.013m-3.005-25.533a12.863 12.863 0 0 0-.004 0h.004m8.997.419c5.179.631 10.608 1.685 13.099 2.197l-.251-.03c.211.03.396.06.55.09-3.918-.982-16.191-3.311-22.395-2.676 2.31-.231 5.609.002 8.997.42"/><path fill="#7B2D3B" d="M596.758 447.865l-4.2-1.03c-.087-.022-.09-.142-.005-.168.088-.027.079-.203-.012-.218-.357-.057-.635-.13-.774-.164-2.298-.57-4.104-1.837-4.878-3.547 0 0-1.76-4.117-1.803-4.073 0 0-2.33 2.94-2.25 3.02.032.031-.032.083-.002.117l2.368 2.743c.847.982 2.074 1.748 3.52 2.198a.104.104 0 0 0 .012.003l7.294 1.81a.64.64 0 0 0 .796-.59v-.017a.088.088 0 0 0-.066-.084m36.997-20.252l-6.749-4.759-7.792-6.679-4.122 7.714c0 .095.056.257.14.447a4.291 4.291 0 0 0 1.942 2.044c4.397 2.31 9.455 3.869 11.576 4.47.581.164.949.734.859 1.33l-.94 6.24a10.801 10.801 0 0 1-1.173 3.515l-1.602 2.973a.698.698 0 0 0 .231.73l2.037-3.53.043-.068a.154.154 0 0 1 .276.131l-.015.046a.167.167 0 0 0 .068.195.17.17 0 0 0 .252-.071l5.715-12.453s1.036-1.254-.746-2.275"/><path fill="#7B2D3B" d="M633.24 332.723c-13.168-13.11-34.518-13.11-47.686 0-13.169 13.11-13.169 34.367 0 47.477l1.333-1.327c-12.22-12.165-11.512-31.874.706-44.039 12.22-12.165 31.225-11.993 43.444.172a33.267 33.267 0 0 1 9.349 18.015c-.058.604-.066 1.363-.008 2.288-.232 16.654-11.825 28.999-20.063 37.243-1.454-.99-3.997-1.817-5.277-2.175l.238.05c.059.013-.143-.071-.625-.165a9.896 9.896 0 0 0-.55-.09l.25.03c-2.49-.512-7.92-1.566-13.098-2.197-3.413-.415-6.718-.647-9.001-.419-4.93.579-8.465 1.825-11.128 3.362l.654-3.384-.385-.188-9.294-4.532c-.52-.034-3.392 3.312-3.753 3.687a24.011 24.011 0 0 0-.634.69 19.372 19.372 0 0 0-.859 1.052 19.008 19.008 0 0 0-.501.702c.655.521 1.647 1.321 2.122 2.636l-.469.27c-.597.526-.903 1.078-1.045 1.858-.085.593-.052 1.016.044 1.424l.352 1.499c-.753.192-1.74-.103-2.19-1.166-.346-.813-.433-1.052-.544-2.016a4.735 4.735 0 0 1 .002-.898c-1.527 5.053 1.075 9.502 4.389 11.706 1.257.836 2.617 1.35 3.892 1.451 1.497.12 2.823.051 3.985-.178l.526.495-.526-.416a15.32 15.32 0 0 1-1.125.317c-.117.027-.236.052-.356.076-1.163.23-2.499.394-3.985.179-1.222-.178-1.539-.463-2.313-.793.494 2.9 2.906 8.062 9.404 13.808.437.386.707.925.76 1.504l1.288 13.21 4.52-8.49.441-1.56a6.735 6.735 0 0 0-.03-3.763 21.39 21.39 0 0 1-.111-.377c-.338-1.197-.847-2.322-1.245-3.107l-4.322-8.506a17.358 17.358 0 0 0 3.309 1.938l4.58 7.48c.913 1.982.649 3.884-.395 5.802-.063.113-6.462 12.69-6.462 12.69a584.126 584.126 0 0 1-4.287 7.901c-.135.244-.272.494-.413.746-.07.128-.35.509-.82.966a8.36 8.36 0 0 1-2.736 1.788c-1.353.533-10.85 2.081-9.27 3.457.18.158 1.942-1.147 4.5-1.092.01 0 1.646 0 4.909-.005.877 0 2.394-.033 2.443-.082.575-.574 1.397-.856 1.888-1.53 1.14-1.57 2.99-4.249 4.855-6.853a1055.14 1055.14 0 0 0 3.159-4.438c5.545-7.838 11.452-16.469 11.287-17.452-.102-.613-1.409-3.11-3.108-6.174-3.518-6.331-3.895-10.09-3.913-10.203-.568-3.62 1.74-4.898 2.846-5.296.088.047-1.612.576-.87 5.296.017.114.428 3.928 3.828 10.051.038-.002 2.274-.235 2.307-.42l.252-.063c2.317-.574 4.535-1.341 6.765-2.209 1.09-7.798 4.536-10.865 6.93-11.943a12.971 12.971 0 0 0-2.346 3.07c-1.303 2.334-2.326 5.47-3.073 8.307a79.756 79.756 0 0 0-1.354 6.19 3.395 3.395 0 0 0 .216 1.908c1.364 3.237 6.166 14.191 10.683 19.189.234.257-3.325 5.989-7.475 8.226-2.37 1.279-4.212 2.583-4.247 2.656 0 0-1.658 1.134-.608 1.344l3.57-2.233c.176.423.384.502.555.416l-.318.162c.519-.257 1.05-.532 1.591-.815 5.691-2.938 14.072-7.559 12.895-8.73l-7.552-13.39a1.391 1.391 0 0 1-.426-1.002l4.868-9.108.6-1.125a68.707 68.707 0 0 0 2.257-4.168c2.294-4.644 2.325-8.696 1.947-11.083.243-.553.427-.803.517-.606.097.214 14.872-18.051 17.813-30.314 1.722-4.907 1.953-9.119 1.584-12.021a33.382 33.382 0 0 0-9.857-22.643z"/><path fill="#F6F1DF" d="M573.316 401.017a5.517 5.517 0 0 0 1.392.711 5.25 5.25 0 0 0 1.273.273 4.798 4.798 0 0 0 1.934-.234 5.056 5.056 0 0 0 1.724-.964l.15-.135a4.726 4.726 0 0 0 .945-1.236 4.59 4.59 0 0 0 .163-.336c.158-.361.21-.606.21-.606l-.01-.046-.001-.01a9.684 9.684 0 0 0-.028-.147l-.017-.084-.004-.022-.034-.182-.026-.136-.035-.182-.016-.09-.036-.19-.037-.204-.103-.562c-.014-.079-.03-.16-.043-.242l-.068-.378a195.324 195.324 0 0 1-.243-1.42 93.86 93.86 0 0 1-.136-.862c-.014-.093-.03-.187-.042-.28l-.069-.473a25.395 25.395 0 0 1-.145-1.23l-.01-.14a6.035 6.035 0 0 1-.01-.13l-.004-.083a3.413 3.413 0 0 1-.004-.15v-.13c0-.021 0-.041.002-.06a.966.966 0 0 1 .017-.145.29.29 0 0 1 .017-.06.1.1 0 0 1 .022-.037l.699-2.482-.141-.001h-.13a13.91 13.91 0 0 0-.88.038 18.699 18.699 0 0 0-2.726.394l-.254.06a13.362 13.362 0 0 0-2.118.7 10.423 10.423 0 0 0-1.05.528 8.108 8.108 0 0 0-1.076.748 6.449 6.449 0 0 0-.746.719l-.039.045a6.212 6.212 0 0 0-.605.83 5.684 5.684 0 0 0-.41.805l1.28 3.837 1.279 3.838s.067.056.19.143m-8.703-7.505c.112.974.2 1.215.532 1.999l.017.037c.456 1.074 1.452 1.372 2.212 1.178l-.356-1.514a3.474 3.474 0 0 1-.044-1.438c.143-.788.452-1.346 1.055-1.875l.367-.212.107-.061c-.48-1.329-1.482-2.136-2.205-2.569-.48-.287-.837-.41-.837-.41s-.697 2.251-.842 3.91l-.004.05a4.77 4.77 0 0 0-.002.905"/><g fill="#5E232D"><path d="M46 210h766v6H46z"/><path d="M805.05 198.808l14.142 14.142-4.242 4.242-14.142-14.142z"/><path d="M805.05 227.192l14.142-14.142-4.242-4.242-14.142 14.142z"/></g><g fill="#5E232D"><path d="M46 502h766v6H46z"/><path d="M805.05 490.808l14.142 14.142-4.242 4.242-14.142-14.142z"/><path d="M805.05 519.192l14.142-14.142-4.242-4.242-14.142 14.142z"/></g></g></svg>