<svg xmlns="http://www.w3.org/2000/svg" width="354" height="406" viewBox="0 0 354 406"><g fill="none"><path fill="#E2D4CA" d="M167.606 307.59l-8.893-2.336c-.08-.023-.134-.1-.134-.188s.055-.166.134-.189c.187-.06.168-.463-.024-.494a14.833 14.833 0 0 1-1.637-.372c-4.867-1.294-8.69-4.163-10.328-8.04 0 0-3.076-7.946-3.166-7.838 0 0-5.592 5.27-5.419 5.452.067.07-.069.187 0 .263l5.014 6.221c1.795 2.225 4.393 3.974 7.455 4.981h.027l15.443 4.104a1.29 1.29 0 0 0 1.141-.243c.327-.26.527-.662.544-1.097v-.037a.192.192 0 0 0-.157-.187z"/><path d="M139.686 176.417c1.84 2.946 3.012 5.523 3.656 7.822.083-.19.17-.397.266-.63.206-.552.346-1.13.416-1.72v-.094c.357-2.73-.016-6.527-.144-7.642a15.2 15.2 0 0 0-.04-.33 14.34 14.34 0 0 0-5.16 1.136c.349.454.684.945 1.006 1.458z"/><path fill="#E2D4CA" d="M221.763 185.326c.575-.11 2.466 2.795 3.819 7.146.197-.335.407-.661.633-.976 7.908-10.927 30.966-43.209 36.145-66.33 3.645-11.125 4.135-20.672 3.352-27.245-.57-19.344-8.057-37.723-20.928-51.374-27.475-29.231-72.337-29.555-100.164-.718-28.615 29.649-28.86 78.412-.737 108.387 1.538-1.64 1.613-4.273.17-6.008-22.898-27.492-20.84-69.518 3.528-96.152 25.241-27.591 67.036-27.529 92.602-.284 5.663 6.036 20.768 28.147 17.71 55.727-2.73 24.69-22.9 54.873-30.21 63.393-5.392 6.251-13.626 8.734-21.29 6.42l-.089-.026.506.113c.123.029-.303-.161-1.331-.374a21.834 21.834 0 0 0-1.164-.205l.533.068c-5.275-1.157-16.774-3.55-27.734-4.977-7.226-.943-14.223-1.468-19.056-.951l-.495.057a66.054 66.054 0 0 0-13.683 3.121c.128 1.136.5 4.913.144 7.643v.094c-.07.59-.21 1.167-.416 1.72-.093.232-.18.44-.266.63-.644-2.302-1.816-4.879-3.656-7.822a24.147 24.147 0 0 0-.998-1.473c-2.655-3.674-6.32-6.373-10.483-7.72a30 30 0 0 0-5.857-5.227c-1.044-.69-2.168-1.297-3.385-1.47.25.207.361.55.285.877-.083.32-.24.612-.455.851a13.92 13.92 0 0 1-1.475 1.516c-1.598 1.481-3.264 2.988-5.163 3.973-3.506 1.311-6.523 3.323-8.52 5.722l.756.096c-5.286.721-9.094 3.629-11.425 8.724 9.074-4.16 1.518 22.988 1.597 24.997.096-.703 5.71.596 12.089 2.518 3.962 1.194 8.216 2.628 11.627 3.973a27.212 27.212 0 0 1-8.552-.363c1.31 6.618 6.11 16.832 19.264 29.285a5.324 5.324 0 0 1 1.61 3.406l2.706 35.966a1468.655 1468.655 0 0 1-8.454 16.662l-.873 1.702c-.496.8-1.08 1.534-1.736 2.189a17.653 17.653 0 0 1-5.794 4.052c-2.868 1.21-22.976 4.717-19.629 7.839.381.357 4.114-2.6 9.527-2.475h10.387c1.864 0 5.059-.074 5.173-.187 1.22-1.3 2.958-1.939 3.994-3.471 2.412-3.556 6.332-9.63 10.28-15.533 2.13-3.19 4.396-6.59 6.689-10.057 10.991-16.634 22.65-34.84 23.809-38.924h.088l.657-2.787h-1.422c-1.094-2.554-3.243-6.87-5.817-11.843l-.25-.485c-7.19-13.866-7.988-22.383-8.034-22.642-.388-2.656-.138-4.753.456-6.408a9.03 9.03 0 0 0 1.23.23c-.232 1.592-.136 3.613.532 6.181 1.864 7.126 10.07 22.784 10.07 22.784l.237-.031-.242.022s4.087-.454 4.793-.851l.716-.267c3.618-.965 11.534-3.587 17.307-5.676a193.959 193.959 0 0 0-2.727 13.455 8.088 8.088 0 0 0 .447 4.28c2.839 7.214 14.725 33.625 24.243 45.195.267.732-10.472 24.452-20.369 25.92-5.652.851-10.277 2.15-10.4 2.27 0 0-4.132 1.096-2.204 2.373l8.741-1.916a.274.274 0 0 1 .338.207.297.297 0 0 1-.194.36l-.115.043a.753.753 0 0 0 .233.54.66.66 0 0 0 .532.178l-.754.091v.02c1.22-.153 2.482-.318 3.762-.491 13.263-1.703 32.396-24.066 31.603-28.028.266-.199.24-.494-.152-.914l-12.528-23.766c.248.17.498.335.762.483 9.319 5.233 18.71 10.858 23.199 12.22 1.23.375 2.01 1.665 1.818 3.014l-2.643 19.015a25.687 25.687 0 0 1-2.485 7.966l-3.394 6.74a1.65 1.65 0 0 0 .49 1.652l4.31-8 .09-.153a.316.316 0 0 1 .404-.117c.143.07.22.238.182.4l-.031.105a.394.394 0 0 0 .135.437.343.343 0 0 0 .302.052.37.37 0 0 0 .23-.213l9.485-32.41s2.197-2.838-1.579-5.157l-11.01-11.454-15.177-13.745-8.224 13.194-.333-.63a3.267 3.267 0 0 1-.9-2.27l.309-.616 9.998-20.028 1.273-2.554a154.54 154.54 0 0 0 4.776-9.45c3.845-8.333 4.69-15.825 4.473-21.269a11.96 11.96 0 0 1 .038-1.518l-.05-.304c-1.127-6.61-2.89-11.809-2.142-11.96zM147.6 252.019c-.051.1-2.03 4.257-4.468 9.385l.69-8.156c.735-2.787.714-5.74-.062-8.514-.085-.31-.168-.599-.237-.866a29.89 29.89 0 0 0-.86-2.764c.328 0 .631 0 .897-.023 1.486-.099-1.74-3.726-3.128-5.207l-.296-.625a15.287 15.287 0 0 0 5.12-1.93l3.196 5.571c1.917 4.493 1.36 8.804-.852 13.149v-.02z"/><path fill="#000" d="M130.727 206.171c.098-.417.484-.664.772-.962a3.37 3.37 0 0 0 .82-2.305 10.23 10.23 0 0 0-.386-2.488l-.626-2.603c.07.244 2.663-3.406 3.805-5.108 1.142-1.703 1.217-4.692 1.132-6.812-.086-2.12-.818-3.218-.818-3.218s-2.955-.284-3.533-.162c-1.06.146-2.098.432-3.091.852-.43.246-.883.445-1.35.593-.477.11-1.233.096-1.174.323-.512.335-1.065-.414-1.66-.493a2.463 2.463 0 0 0-.686.08c-.72.11-1.433-.171-2.13-.367-1.422-.397-5.616-.431-6.143.182-1.347 1.572-2.24 5.392-1.664 7.427.29 1.033.924 1.91 1.563 2.744 1.065 1.38 3.054 3.349 4.21 4.637.162.144.27.346.303.568a.951.951 0 0 1-.146.46l-3.049 5.869a.833.833 0 0 0-.216.691.8.8 0 0 0 .4.592l2.3 1.927.389.062a14.389 14.389 0 0 0 5.591 1.632 6.97 6.97 0 0 0 2.948-.304 4.35 4.35 0 0 0 .532-.233c.95-.502 1.731-1.473 1.864-2.576a2.65 2.65 0 0 0 .024-.398 2.388 2.388 0 0 1 .019-.61zm-26.41-18.898c-1.199-2.45-.74-3.775-.496-5.253.272.431.667.758 1.127.93.245-.41.523-.796.83-1.155l.77-.641.223-.187c-1.752-2.205-4.497-3.08-6.411-3.429a13.379 13.379 0 0 0-2.173-.23s-.607 4.731-.183 7.975v.094c.07.59.209 1.167.415 1.72.716 1.774 1.036 2.174 2.186 3.442l.056.06c1.579 1.74 4.074 1.652 5.786.783l-1.542-2.64a5.74 5.74 0 0 1-.588-1.47z"/></g></svg>