<svg xmlns="http://www.w3.org/2000/svg" width="406" height="310" viewBox="0 0 406 310"><g fill="none" fill-rule="evenodd"><path fill="#DD3747" d="M19.645 211L55 175.645 90.355 211 55 246.355z"/><path fill="#F6F1DF" d="M29.8 282h-8l1.8-1.8-.54-1.9h-4.2l-.66 1.9L20 282h-5.5l1.84-1.84 4.4-12.32h2.72l4.5 12.32L29.8 282zm-7.26-5.46l-1.4-4.66-1.64 4.66h3.04zm16.7 4.24l-1.04-1.12c-.66.64-1.48.94-2.12.94-1.64 0-1.98-.68-1.98-3.68 0-3.04.66-3.78 1.38-3.78.48 0 1.02.42 1.48.88l2.24 2.24v-3.74c-1.3-.64-2.3-.94-3.98-.94-2.64 0-5.38 2.14-5.38 5.34 0 2.94 2.52 5.34 5.38 5.34 1.82 0 2.74-.36 4.02-1.48zm8.86-7.38v-1.56h-2.9v-3.12l-5.58 5.58h1.82v4.5c0 2.22 1.38 3.4 3.66 3.4 1.18 0 2.3-.54 3.12-1.7l-.9-.9c-.66.6-1.22.9-2.12.74v-6.94h2.9zm5.88-4.38c0-1.04-.84-1.88-1.88-1.88s-1.88.84-1.88 1.88.84 1.88 1.88 1.88 1.88-.84 1.88-1.88zM55.8 282h-7.2l1.72-1.72v-5.24l-1.68-1.68 5.44-1.78v8.7L55.8 282zm12.38-10.16l-1.72 1.72-3.6 8.44h-2.32l-3.6-8.44-1.72-1.72h7.3l-1.7 1.7 1.96 4.62 1.9-4.62-1.7-1.7h5.2zm4.9-2.82c0-1.04-.84-1.88-1.88-1.88s-1.88.84-1.88 1.88.84 1.88 1.88 1.88 1.88-.84 1.88-1.88zM74.9 282h-7.2l1.72-1.72v-5.24l-1.68-1.68 5.44-1.78v8.7L74.9 282zm8.3-8.6h-2.9v6.94c.9.16 1.46-.14 2.12-.74l.9.9c-.82 1.16-1.94 1.7-3.12 1.7-2.28 0-3.66-1.18-3.66-3.4v-4.5h-1.82l5.58-5.58v3.12h2.9v1.56zm12.58-1.56l-1.72 1.72-4.66 10.74 1.7 1.7h-5.82l2.24-1.72.98-2.26-3.88-8.46-1.72-1.72h7.3l-1.7 1.7 1.88 4.18 1.8-4.18-1.7-1.7h5.3z"/></g></svg>