<svg width="857" height="656" viewBox="0 0 857 656" xmlns="http://www.w3.org/2000/svg" xmlns:xlink="http://www.w3.org/1999/xlink"><title>section2-langurs</title><defs><path d="M21.19 22.148h14.386V.908H.238c4.695 9.15 12.034 16.6 20.95 21.24z" id="a"/><path id="c" d="M.418.01h56.68v49.78H.418V.01z"/><path id="e" d="M99.927 153.714V0H0v153.714h99.927z"/><path id="g" d="M99.414 149.832V.08H.002v149.752z"/></defs><g fill="none" fill-rule="evenodd"><path fill="#F6F1DF" d="M353.912 609.048V606.6h-3.072v-3.072h-2.448v3.072h-3.072v2.448h3.072v3.072h2.448v-3.072m166.072 0V606.6h-3.072v-3.072h-2.448v3.072h-3.072v2.448h3.072v3.072h2.448v-3.072M190.42 615l-2.184-2.184v-12.624l2.184-2.184h-6.264l-3.912 6.96-3.912-6.96h-6.792l2.184 2.184v12.624L169.54 615h6.72l-2.184-2.184V602.76l4.824 8.712 4.824-8.688v10.032L181.54 615h8.88zm15-6.096c0 3.768-3.312 6.408-7.056 6.408s-7.056-2.64-7.056-6.408c0-3.768 3.312-6.408 7.056-6.408s7.056 2.64 7.056 6.408zm-5.112 0c0-2.088-.024-4.656-1.944-4.656s-1.944 2.568-1.944 4.656c0 2.088.024 4.656 1.944 4.656s1.944-2.568 1.944-4.656zm20.736-6.096l-2.064 2.064L214.66 615h-2.784l-4.32-10.128-2.064-2.064h8.76l-2.04 2.04 2.352 5.544 2.28-5.544-2.04-2.04h6.24zm12.384 6.36h-7.32v.744c0 2.712 1.248 3.432 2.568 3.432 1.368 0 2.448-.648 3.456-1.632l1.224 1.224c-1.656 1.632-3.624 2.376-5.784 2.376-3.744 0-6.576-2.856-6.576-6.408 0-3.576 2.784-6.408 6.696-6.408 3.528 0 6.72 2.976 5.736 6.672zm-5.736-4.8c-1.032 0-1.584.936-1.584 2.928h2.736c.576-.888.264-2.928-1.152-2.928zM256.996 615l-2.064-2.064v-7.344c0-1.728-.744-3.096-2.472-3.096-1.488 0-2.64 1.008-3.456 1.824l-1.032 1.032c-.072-1.464-.72-2.856-2.472-2.856-1.056 0-2.112.48-3.456 1.824l-1.032 1.032v-2.856l-6.408 2.136 2.016 2.016v6.288L234.556 615h8.52l-2.064-2.064v-5.616l.936-.936c.264-.264.672-.624 1.056-.624.48 0 .576.36.576.792V615h6.456l-2.064-2.064v-5.616l.936-.936c.288-.288.648-.624 1.056-.624.432 0 .576.312.576.792V615h6.456zm13.104-5.832h-7.32v.744c0 2.712 1.248 3.432 2.568 3.432 1.368 0 2.448-.648 3.456-1.632l1.224 1.224c-1.656 1.632-3.624 2.376-5.784 2.376-3.744 0-6.576-2.856-6.576-6.408 0-3.576 2.784-6.408 6.696-6.408 3.528 0 6.72 2.976 5.736 6.672zm-5.736-4.8c-1.032 0-1.584.936-1.584 2.928h2.736c.576-.888.264-2.928-1.152-2.928zM287.5 615h-6.576v-8.664c0-.48-.288-.912-.768-.912-.384 0-.816.336-1.224.744l-1.128 1.128v5.64l2.064 2.064h-8.64l2.064-2.064v-6.288l-2.016-2.016 6.528-2.136v2.832l1.032-1.032c1.128-1.128 2.28-1.8 3.672-1.8 1.368 0 2.928.984 2.928 2.832v7.608L287.5 615zm9.864-10.32h-3.48v8.328c1.08.192 1.752-.168 2.544-.888l1.08 1.08c-.984 1.392-2.328 2.04-3.744 2.04-2.736 0-4.392-1.416-4.392-4.08v-5.4h-2.184l6.696-6.696v3.744h3.48v1.872zm116.476-1.896v-4.776h-13.296l2.184 2.184v12.624L400.544 615h8.88l-2.184-2.184v-5.856h2.616l2.184 2.184v-6.48l-2.184 2.184h-2.616v-4.728h3.936l2.664 2.664zm15.144 6.12c0 3.768-3.312 6.408-7.056 6.408s-7.056-2.64-7.056-6.408c0-3.768 3.312-6.408 7.056-6.408s7.056 2.64 7.056 6.408zm-5.112 0c0-2.088-.024-4.656-1.944-4.656s-1.944 2.568-1.944 4.656c0 2.088.024 4.656 1.944 4.656s1.944-2.568 1.944-4.656zm12.576-1.896l1.848-1.872 3.432 3.432v-5.976s-.96-.096-1.224-.096c-1.68 0-2.664.672-3.264 1.32l-.792.864v-2.184l-6.528 2.136 2.016 2.016v6.288L429.872 615h8.64l-2.064-2.064v-5.928zM464.672 615l-2.064-2.064v-7.344c0-1.728-.744-3.096-2.472-3.096-1.488 0-2.64 1.008-3.456 1.824l-1.032 1.032c-.072-1.464-.72-2.856-2.472-2.856-1.056 0-2.112.48-3.456 1.824l-1.032 1.032v-2.856l-6.408 2.136 2.016 2.016v6.288L442.232 615h8.52l-2.064-2.064v-5.616l.936-.936c.264-.264.672-.624 1.056-.624.48 0 .576.36.576.792V615h6.456l-2.064-2.064v-5.616l.936-.936c.288-.288.648-.624 1.056-.624.432 0 .576.312.576.792V615h6.456zm113.308-5.472c0 3.36-1.944 5.856-6.288 5.856-.696 0-1.488-.072-2.208-.192l-3.504-.624 1.944-3.84 1.728 2.16c.552.552 1.248.768 1.944.768 1.248 0 2.304-.816 2.304-2.232 0-.936-.552-1.416-1.248-1.92l-3.192-2.256c-1.56-1.104-2.712-2.664-2.712-4.56 0-2.304 1.488-5.064 5.616-5.064.792 0 1.608.096 2.328.216l3.384.624-1.944 3.624-1.632-1.992c-.408-.384-.864-.672-1.584-.672-.864 0-1.92.432-1.92 1.92 0 .648.384 1.2.936 1.584l3.528 2.448c.816.552 2.52 1.896 2.52 4.152zm15.432-6.72l-2.064 2.064-5.592 12.888 2.04 2.04h-6.984l2.688-2.064 1.176-2.712-4.656-10.152-2.064-2.064h8.76l-2.04 2.04 2.256 5.016 2.16-5.016-2.04-2.04h6.36zM615.156 615H608.7v-8.448c0-.48-.144-.792-.576-.792-.408 0-.768.336-1.056.624l-.936.936v5.616l2.064 2.064h-6.456v-8.448c0-.432-.096-.792-.576-.792-.384 0-.792.36-1.056.624l-.936.936v5.616l2.064 2.064h-8.52l2.064-2.064v-6.288l-2.016-2.016 6.408-2.136v2.856l1.032-1.032c1.344-1.344 2.4-1.824 3.456-1.824 1.752 0 2.4 1.392 2.472 2.856l1.032-1.032c.816-.816 1.968-1.824 3.456-1.824 1.728 0 2.472 1.368 2.472 3.096v7.344l2.064 2.064zm14.568-6.096c0 3.84-2.352 6.408-5.184 6.408-1.968 0-3.096-.816-3.768-1.56l-4.032 1.824v-14.784l-2.016-2.016 6.528-2.016v7.272c.624-.864 1.776-1.536 3.288-1.536 2.832 0 5.184 2.568 5.184 6.408zm-5.064 0c0-2.784-.36-4.32-1.608-4.32-.672 0-1.416.624-1.8 1.464v5.712c.384.84 1.128 1.464 1.8 1.464 1.248 0 1.608-1.536 1.608-4.32zm20.712 0c0 3.768-3.312 6.408-7.056 6.408s-7.056-2.64-7.056-6.408c0-3.768 3.312-6.408 7.056-6.408s7.056 2.64 7.056 6.408zm-5.112 0c0-2.088-.024-4.656-1.944-4.656s-1.944 2.568-1.944 4.656c0 2.088.024 4.656 1.944 4.656s1.944-2.568 1.944-4.656zM654.78 615l-2.064-2.064V596.76l-6.528 2.016 2.016 2.016v12.144L646.14 615h8.64zm6.696-15.576a2.253 2.253 0 0 0-2.256-2.256 2.253 2.253 0 0 0-2.256 2.256 2.253 2.253 0 0 0 2.256 2.256 2.253 2.253 0 0 0 2.256-2.256zM663.66 615l-2.064-2.064v-10.44l-6.528 2.136 2.016 2.016v6.288L655.02 615h8.64zm10.44-3.768c0-1.656-.816-2.712-2.208-3.48l-3.12-1.824c-.36-.216-.672-.456-.672-.816 0-.504.36-.84 1.152-.84.456 0 1.152.288 1.752.888l1.44 1.44 1.704-3-3.24-.864a8.166 8.166 0 0 0-1.872-.24c-2.232 0-4.656 1.104-4.656 3.936 0 1.392.912 2.616 2.136 3.288l3.216 1.8c.36.216.648.504.648.864 0 .624-.384 1.128-1.224 1.128-.672 0-1.296-.48-1.728-.912l-1.704-1.704-1.944 3.312 3.48.864c.552.144 1.296.24 1.92.24 3.504 0 4.92-1.92 4.92-4.08zM697.14 615l-2.064-2.064v-7.344c0-1.728-.744-3.096-2.472-3.096-1.488 0-2.64 1.008-3.456 1.824l-1.032 1.032c-.072-1.464-.72-2.856-2.472-2.856-1.056 0-2.112.48-3.456 1.824l-1.032 1.032v-2.856l-6.408 2.136 2.016 2.016v6.288L674.7 615h8.52l-2.064-2.064v-5.616l.936-.936c.264-.264.672-.624 1.056-.624.48 0 .576.36.576.792V615h6.456l-2.064-2.064v-5.616l.936-.936c.288-.288.648-.624 1.056-.624.432 0 .576.312.576.792V615h6.456z"/><g fill="#F6F1DF"><path d="M250.114 128.38l-10.59 10.506-18.813 8.354-3.752 5.065-1.314 4.844-3.49 1.054 2.43-6.63 7.803-10.083 11.67-4.355 9.45-14.89"/><path d="M242.28 123.763l7.87-3.513 18.932-1.64 12.55-5.152 6.595 5.387-11.062 12.883-9.146.702-19.86-2.056"/><path d="M254.023 125.978l-6.94 15.292-13.407 10.185.365 4.426 2.927 4.83-.913 2.353-1.78-3.484-2.79-4.1.912-8.048 10.668-7.77 4.565-15.292m31.915-.23l4.254 6.326 17.867 1.64 6.382 2.576 1.375 1.596 2.027.98-1.913-4.216-7.873-3.747-14.292-2.816-1.484-7.186"/><path d="M280.94 124.762l1.924 5.692 13.25 3.66 3.836 3.562.566 1.886-1.384-.094-1.007-1.186-4.23-2.344-14.64-1.96-3.048-6.002m5.037-13.786l2.304-3.044-.345-1.944 3.57-2.578h1.613l3.915 4.607 1.845.974-1.613.802.345 2.304-.23 2.928-.922 1.147-4.03.51m-37.623.621c-4.173 2.398-25.298-.297-25.078-22.523.223-22.226 9.67-28.27 19.718-28.27 10.045 0 17.824 12.723 12.5 22.493-1.33 2.2.585 8.563 3.824.802 4.33-10.374-3.557-26.123-16.373-26.123-12.815 0-22 10.525-22 31.007s17.3 28.577 21.516 31.263"/></g><path d="M763.09 118.243c.372 0 4.395.035 4.395.035l.67-3.385-2.594-2.705 1.853-2.963s-11.856-2.824-13.09.912c-1.235 3.736-3.825 16.094 3.582 27.045 2.47 3.478 6.668 3.22 5.557 9.147-1.11 5.925-1.923 12.088-1.923 12.088l-3.402.657-.973.6h7.53l5.31-20.715 4.816 2.59s-2.592 1.874-.493 6.898c2.1 5.025 3.087 5.576 3.087 10.47-1.853.26-3.528.122-3.528.122l-.247.636h8.342l-1.358-7.447s4.32-4.11 5.802-9.263" fill="#F6F1DF"/><path d="M784.6 143.987s4.288 6.6 7.99 9.05c3.705 2.446 5.17 5.333 5.17 5.333l-5.465.68-.4.626h8.182s1.26-2.415-3.455-7.973c-4.714-5.557 1.04-11.444-5.134-18.272-6.172-6.828-19.895-9.88-29.155-10.268m-4.081 9.697l-6.524 13.033a7.966 7.966 0 0 0-.764 4.614l.035.268c.148 1.114 1.368 1.677 2.258 1.04a1.53 1.53 0 0 0 .63-1.3l-.048-1.547 8.683-11.8" fill="#F6F1DF"/><path d="M764.697 160.312c-1.71 0-5.904.186-7.532 0-14.222-1.62-25.405-10.543-30.934-24.476-7.33-18.467-3.225-41.673 9.72-55.18 13.57-14.16 28.865-16.314 39.293-15.62 12.508.83 24.69 6.233 32.57 14.456 7.12 7.43 11.87 17.644 13.024 28.02 1.182 10.628-1.58 20.313-7.582 26.576l-.028.03c-.126.12-12.712 11.97-24.45-.28l1.435-1.498c10.26 10.706 20.996.833 21.627.234 5.55-5.803 8.095-14.847 6.986-24.816-1.102-9.913-5.637-19.67-12.44-26.77-7.54-7.868-19.226-13.04-31.256-13.84-10.007-.662-24.678 1.403-37.714 15.005-12.39 12.926-16.278 35.163-9.248 52.874 2.726 6.868 6.94 12.577 12.31 16.507 6 4.392 13.415 6.62 21.53 6.62l2.69 2.158z" fill="#F6F1DF"/><path d="M762.59 156.308l-5.545 2.466s4.647.795 4.73.795c.08 0 .814-3.262.814-3.262" fill="#211F1C"/><path fill="#F6F1DF" d="M761.23 158.744l2.62-4.948 2.413-15.188 2.995-5.382 7.486 3.254 2.204 10.07 7.03-4.21 5.49 5.772 7.818 10.024.25 2.605"/><path d="M759.472 160.535c2.925-.217 5.364-3.04 6.568-5.637.47-1.02.8-2.102 1.177-3.16.568-1.594 1.25-3.14 1.775-4.752.536-1.643.933-2.305 1.72-3.843.318-.624.696-1.182.933-1.83.088-.237.564-1.773.99-1.157.416.605.757 1.324 1.255 1.86.477.513.92.8 1.053 1.575.102.597.054 1.215.177 1.807.214 1.027.653.88 1.33 1.66 1.28 1.482 2.516 3.34 4 4.595 1.413 1.196 2.818-.448 3.542-1.657.55-.92.962-1.93 1.56-2.817.203-.302.466-.612.82-.653.34-.04.666.2.847.504.556.94.965 1.827 1.634 2.694.805 1.045 1.888 1.9 2.852 2.8 2.07 1.927 4.14 3.855 6.212 5.782.45.42 1.04.87 1.602.64.624-.25.714-1.116.703-1.814 0 1.544.782 3.115.782 4.69l-38.337 1.467s-6.66-2.496-3.196-2.755" fill="#7B2D3B"/><path d="M794.824 92.696a7.487 7.487 0 0 0-1.064-.917c.694 2.946-.054 6.186-2.26 8.49-2.206 2.3-5.31 3.08-8.135 2.357.256.39.545.762.878 1.11 2.922 3.048 7.66 3.048 10.58 0 2.923-3.05 2.923-7.993 0-11.04" fill="#F6F1DF"/><g transform="translate(729.17 137.722)"><mask id="b" fill="#fff"><use xlink:href="#a"/></mask><path d="M-6.267 1.796c.35.047 1.738 1.188 2.165 1.575.428.386 1.05 2.55 1.926 2.67.876.117 1.32 1.82 1.87 1.674.554-.143 3.31-2.727 4.11-2.948.8-.22.574-.798 1.152-1.158.58-.36 1.107 1.135 1.925 1.245.82.11.897-1.96 1.634-2.626.736-.666.303-1.49.99-1.29.69.204 3.087 7.205 3.493 8.245.406 1.04.604 1.833 1.146.812.543-1.022 1.606-2.41 2.83-5.09 1.223-2.683 1.89-1.826 2.478-1.31.59.518 1.603 2.407 2.355 3.055.75.648 1.41 3.474 2.19 2.923.783-.552 1.326-.15 1.65.113.324.262 1.154 2.673 1.685 3.183.53.51 1.82 1.12 2.545 1.984.724.864 2.79 3.074 5.262 3.034.755-.012.46.51-.313 1.24-3.132 2.952-7.605 3.786-11.577 2.298L-4.87 10.894l-1.397-9.098z" fill="#F6F1DF" mask="url(#b)"/></g><path d="M566.728 101.297c.557 0 6.5.925 6.5.925l1.114-5.733-3.9-3.884 2.786-4.254s-16.53-2.774-18.387 2.59c-1.856 5.362-7.056 21.822 4.087 37.54 3.714 4.994 10.03 4.624 8.358 13.13-1.672 8.508-2.786 16.46-2.786 16.46l-6.687 3.698 11.33-.185 7.985-30.143 7.244 3.513s-3.9 2.59-.743 9.802c3.156 7.212 4.642 7.952 4.642 14.98-2.786.37-4.086.554-4.086.554l-.37 3.145 11.328.554-2.043-13.5s6.502-6.103 8.73-13.5" fill="#F6F1DF"/><path d="M599.084 138.25s4.345 9.718 9.917 13.232c5.573 3.514 5.275 8.053 5.275 8.053h-8.465l-.636 3.832 16.9-.428s-1.512-6.408-6.527-10.292c-5.015-3.884 3.185-19.528-6.102-29.33-9.286-9.8-30.83-15.91-44.76-16.465m.418 18.695l-13.06 16.72v7.32l3.305-1.05 1.395-4.362 13.814-11.723" fill="#F6F1DF"/><g transform="translate(594.276 79.8)"><mask id="d" fill="#fff"><use xlink:href="#c"/></mask><path d="M.418 37.658s33.132 9.27 41.21 7.634c8.077-1.636 19.303-17.177 5.476-34.898-13.828-17.722-29.3-5.317-29.846 0-.548 5.316-4.38 3.953-4.93 1.772C11.783 9.986 21.777-1.466 31.223.17c9.447 1.636 22.316 5.998 24.78 19.766 2.465 13.768 1.917 28.082-13.964 29.58-15.88 1.5-32.447-3.68-32.447-3.68" fill="#F6F1DF" mask="url(#d)"/></g><g fill="#F6F1DF"><path d="M431.386 150.078l-4.183 10.192-5.444-9.52a.726.726 0 0 0-1.09-.228c-.752.592-2.346 1.64-5.6 3.173-.695.327-.542 1.4.212 1.507 4.624.658 5.678 2.83 5.678 2.83l4.477 5.753h12.036c.646 0 1.17-.55 1.17-1.232v-.493c0-.68-.524-1.23-1.17-1.23h-7.248l2.094-3.356s3.158.458 8.367-1.63c.773-.31.77-1.46-.004-1.77a37.45 37.45 0 0 1-7.974-4.398c-.464-.338-1.1-.142-1.324.402"/><path d="M408.074 137.68c6.805 0 27.773.1 36.35.144 2.205.01 4.15-1.513 4.776-3.74a.606.606 0 0 0-.1-.528l-1.007-1.297c-.306-.394-.01-.982.47-.938l2.888.267.046.002 11.932.033c.462 0 .714.566.42.94l-1.41 1.8a.602.602 0 0 0-.007.724l2.368 3.145a2.62 2.62 0 0 1-.08 3.23l-.426.51c-.334.4-.78.68-1.274.795l-8.295 1.952c-1.11.26-1.895 1.307-1.877 2.506 0 0 3.61 14.093 21.938 14.093h5.24c.647 0 1.17.553 1.17 1.234 0 .68-.523 1.23-1.17 1.23H468.33c-3.543 0-7.037-.853-10.217-2.498-7.56-3.912-21.724-11.29-25.817-13.764-5.67-3.426-9.553-1.185-10.956 0-1.403 1.186-9.1 9.364-26.505 9.364h-7.864c-1.162 0-2.103.992-2.103 2.218 0 1.224.94 2.217 2.104 2.217h3.274c.646 0 1.17.553 1.17 1.234 0 .68-.524 1.23-1.17 1.23h-3.507c-2.583 0-4.676-2.205-4.676-4.927 0-2.722 2.094-4.928 4.677-4.928h7.95s8.982-.865 10.248-13.21c.174-1.708 1.51-3.023 3.14-3.04"/><path d="M411.854 138.1s-13.083-15.94 3.39-33.3c16.47-17.36 28.336-8.156 33.918-2.273 5.582 5.882 5.856 1.35 3.66-2.894-2.196-4.243-21.526-15.057-39.187 3.558-17.662 18.614-8.624 29.633-8.624 37.413"/></g><g fill="#F6F1DF"><path d="M87.76 98.72s12.82-19.51 18.54-24.85c5.723-5.342 8.928-12.543 14.422-13.936 5.492-1.394 18.082 8.826 15.107 15.562-2.977 6.735-8.242 21.6-13.277 25.316-5.037 3.716-19.913 9.755-22.89 10.45-2.976.698-25.865 13.473-11.903-12.54"/><path d="M121.18 61.792s1.83-4.18 1.6-6.967c0 0 2.83-8.08 6.17-10.986 3.578-1.454 10.617 1.936 11.93 5.81 1.313 3.874 1.79 14.648-.597 16.1-2.385 1.453-7.397-1.452-10.142-1.573-2.742-.12-9.423-2.3-9.423-2.3"/><path d="M126.877 48.88s-1.263-3.685-2.844-1.602c-1.58 2.085-2.21 5.932.316 6.412m-30.333 54.824s22.91 13.626 23.382 16.833c.474 3.206-.632 10.42-10.427 17.794-9.794 7.375-8.37 9.297-6.003 10.1 2.37.8 10.27 3.206 11.534 3.847 1.265.64 3.002 2.564 3.002 3.367 0 .8-5.056 1.28-6.32 1.28-1.263 0-11.215-3.204-12.636-3.365-1.424-.16-8.058-6.574-8.217-7.855 0 0 7.425-6.573 10.11-10.26 2.686-3.688 7.426-10.1.79-10.74-6.635-.642-20.695-13.145-14.85-23.245 5.845-10.1 9.636 2.244 9.636 2.244M130.2 80.766s.117 14.823 3.74 23.363c3.622 8.535 2.22 20.63-6.66 27.153-1.053-7.945 4.674-2.252 3.972-12.45-.7-10.2-2.338-15.298-8.3-24.667"/><path d="M102.56 110.035s22.322 13.074 23.307 15.822c.986 2.747-1.395 12.99-4.678 18.15-3.284 5.165-10.997 10.494-1.888 13.408 9.11 2.915 7.714 5.746 5.417 5.995-2.3.25-14.527-3.746-16.824-5.496-2.298-1.748-2.463-2.997-.246-6.244 2.215-3.248 11.57-16.987 10.01-19.152-1.558-2.166-26.26-8.41-26.833-16.155-.575-7.744 11.734-6.328 11.734-6.328m-9.434-6.033s-32.442 9.927-43.21-15.404C39.15 63.265 47.775 51.166 60.14 45.59c12.365-5.576 28.26 4.538 26.56 18.573-.545 3.233 4.973 9.39 5.105-1.21.174-14.17-17.355-27.656-33.13-20.543C42.904 49.523 36.826 66.56 47 89.79c10.175 23.23 35.49 22.81 42.01 23.518"/></g><g fill-rule="nonzero"><path d="M680.204 446.19l-5.082-1.336a.11.11 0 0 1-.077-.108c0-.05.03-.094.077-.107.106-.036.096-.266-.014-.284a8.649 8.649 0 0 1-.936-.212c-2.78-.74-4.966-2.382-5.9-4.6 0 0-1.76-4.543-1.81-4.482 0 0-3.196 3.014-3.097 3.118.038.04-.04.107 0 .15l2.865 3.56c1.026 1.272 2.51 2.27 4.26 2.848h.016l8.824 2.347c.226.06.466.01.653-.14a.843.843 0 0 0 .31-.627v-.02c0-.054-.04-.1-.09-.107z" fill="#DECEC2"/><path d="M664.25 371.17c1.05 1.685 1.72 3.16 2.088 4.473a4.238 4.238 0 0 0 .39-1.343v-.054c.204-1.56-.01-3.733-.082-4.37l-.023-.19c-1.01.032-2.01.25-2.95.65.2.26.392.54.576.834z" fill="#7B2D3B"/><path d="M711.15 376.265c.33-.063 1.41 1.6 2.182 4.087a7.82 7.82 0 0 1 .362-.558c4.52-6.25 17.695-24.712 20.655-37.936 2.08-6.362 2.36-11.822 1.914-15.58-.325-11.064-4.604-21.576-11.96-29.383-15.7-16.718-41.334-16.903-57.235-.41-16.353 16.956-16.493 44.844-.423 61.988.88-.938.922-2.444.098-3.437-13.085-15.723-11.91-39.758 2.016-54.99 14.424-15.78 38.307-15.745 52.916-.163 3.236 3.453 11.868 16.098 10.12 31.872-1.56 14.12-13.085 31.382-17.263 36.255-3.08 3.575-7.786 4.995-12.166 3.67l-.05-.013.29.065c.07.016-.175-.093-.762-.214-.185-.04-.41-.078-.665-.117l.305.04c-3.015-.663-9.586-2.03-15.848-2.847-4.13-.54-8.128-.84-10.89-.544l-.282.03a37.807 37.807 0 0 0-7.82 1.787c.074.65.287 2.81.083 4.37v.054a4.205 4.205 0 0 1-.39 1.345c-.368-1.316-1.037-2.79-2.09-4.473-.18-.294-.373-.573-.57-.842-1.516-2.102-3.61-3.645-5.99-4.415a17.122 17.122 0 0 0-3.347-2.99c-.595-.394-1.237-.742-1.932-.84a.502.502 0 0 1 .162.5c-.047.184-.137.35-.26.488-.26.31-.54.6-.843.866-.912.847-1.865 1.71-2.95 2.272-2.004.75-3.727 1.9-4.868 3.272l.43.055c-3.02.41-5.196 2.075-6.528 4.99 5.185-2.38.867 13.146.913 14.295.055-.403 3.262.34 6.907 1.44 2.264.683 4.696 1.503 6.645 2.272a15.557 15.557 0 0 1-4.887-.207c.748 3.784 3.49 9.626 11.008 16.748.526.502.855 1.198.92 1.948l1.546 20.57a855.875 855.875 0 0 1-4.83 9.53l-.5.973a6.879 6.879 0 0 1-.992 1.25 10.1 10.1 0 0 1-3.31 2.318c-1.64.69-13.13 2.697-11.217 4.483.218.205 2.35-1.486 5.444-1.414h5.934c1.065 0 2.89-.043 2.956-.108.697-.743 1.69-1.108 2.283-1.985 1.378-2.033 3.618-5.507 5.874-8.883 1.217-1.824 2.512-3.77 3.822-5.752 6.28-9.513 12.942-19.925 13.604-22.26h.05l.376-1.595h-.812c-.626-1.46-1.853-3.93-3.325-6.773l-.143-.278c-4.108-7.93-4.564-12.8-4.59-12.95-.222-1.518-.08-2.718.26-3.664.23.06.466.104.703.132-.132.91-.078 2.066.304 3.535 1.065 4.075 5.755 13.03 5.755 13.03l.135-.018-.14.013s2.337-.26 2.74-.487l.41-.152c2.067-.55 6.59-2.05 9.89-3.246a111.725 111.725 0 0 0-1.56 7.696 4.638 4.638 0 0 0 .257 2.447c1.622 4.126 8.413 19.23 13.853 25.848.152.42-5.984 13.985-11.64 14.824-3.23.486-5.872 1.23-5.942 1.298 0 0-2.362.626-1.26 1.356l4.995-1.095c.084-.025.17.028.193.117.023.09-.027.182-.11.206l-.067.025c.002.118.05.23.133.308.083.08.193.116.303.102l-.43.052v.012a297.45 297.45 0 0 0 2.15-.28c7.578-.975 18.51-13.765 18.058-16.03.153-.114.138-.283-.086-.524l-7.158-13.59c.14.096.284.19.435.275 5.326 2.993 10.692 6.21 13.257 6.99.704.213 1.15.95 1.04 1.722l-1.51 10.875a14.753 14.753 0 0 1-1.42 4.556l-1.94 3.855c-.09.347.02.718.28.946l2.463-4.576.05-.087a.18.18 0 0 1 .232-.067c.08.04.125.136.104.23l-.018.06c-.03.09.002.194.077.25a.2.2 0 0 0 .173.028.212.212 0 0 0 .132-.122l5.42-18.536s1.254-1.623-.903-2.95l-6.29-6.55-8.674-7.86-4.7 7.546-.19-.36a1.87 1.87 0 0 1-.514-1.3l.175-.35 5.713-11.456.728-1.46a88.716 88.716 0 0 0 2.73-5.405c2.196-4.765 2.68-9.05 2.555-12.163a6.98 6.98 0 0 1 .023-.868l-.03-.175c-.643-3.78-1.65-6.754-1.223-6.84zm-42.38 38.143l-2.552 5.368.394-4.665a9.315 9.315 0 0 0-.035-4.868c-.048-.177-.096-.343-.135-.495a16.739 16.739 0 0 0-.492-1.58c.188 0 .36 0 .513-.014.85-.057-.995-2.13-1.788-2.98l-.17-.356a8.727 8.727 0 0 0 2.927-1.103l1.826 3.186c1.096 2.57.778 5.035-.487 7.52v-.012z" fill="#F6F1DF"/><path d="M659.13 388.187c.056-.24.276-.38.44-.55a1.93 1.93 0 0 0 .47-1.318 5.945 5.945 0 0 0-.22-1.425l-.36-1.488c.04.14 1.523-1.948 2.175-2.922.653-.974.696-2.683.647-3.895-.05-1.213-.467-1.84-.467-1.84s-1.69-.163-2.02-.093a6.91 6.91 0 0 0-1.765.487c-.246.14-.505.254-.772.34-.272.062-.704.054-.67.184-.293.19-.61-.237-.95-.283a1.393 1.393 0 0 0-.39.046c-.412.064-.82-.097-1.218-.21-.813-.226-3.21-.245-3.51.105-.77.9-1.28 3.084-.95 4.248.164.59.527 1.092.892 1.57.608.788 1.745 1.915 2.405 2.652a.537.537 0 0 1 .174.324.53.53 0 0 1-.083.262l-1.742 3.357a.474.474 0 0 0 .105.734l1.314 1.1.223.036c.998.53 2.083.846 3.195.934.566.063 1.14.004 1.684-.174.104-.037.206-.082.304-.133.543-.287.99-.843 1.065-1.474.01-.075.015-.15.014-.227a1.284 1.284 0 0 1 .01-.35zm-15.092-10.807c-.685-1.402-.423-2.16-.283-3.006.155.247.38.434.644.533.14-.235.298-.456.473-.66l.44-.368.128-.108c-1-1.26-2.57-1.76-3.663-1.96a7.619 7.619 0 0 0-1.24-.132s-.348 2.706-.106 4.56v.054c.04.338.12.668.238.984.41 1.014.592 1.243 1.25 1.97l.03.033c.903.996 2.33.946 3.307.45l-.88-1.51a3.276 3.276 0 0 1-.337-.84z" fill="#7B2D3B"/></g><g transform="translate(297 297)"><mask id="f" fill="#fff"><use xlink:href="#e"/></mask><path d="M22.55 85.88a3.608 3.608 0 0 1-2.394 4.505l-2.12-6.896a3.611 3.611 0 0 1 4.513 2.39zm58.905 4.435c2.878-2.997 5.9-6.6 8.635-10.673 14.556-19.54 12.96-47.294-4.797-65.026-19.513-19.488-51.15-19.488-70.665 0C-.58 29.806-3.926 52.346 4.572 70.78a1.482 1.482 0 0 0 2.919-.366c0-.31-.094-.597-.257-.835C-.47 52.295 2.853 31 16.92 16.953c18.107-18.082 48.335-17.967 66.44.115 5.938 5.928 9.963 13.167 12.08 20.895.003.01.005.022.01.033.294 1.08.55 2.17.77 3.268.01.05.022.102.03.152.013.06.023.12.035.18 4.384 24.81-19.478 47.173-27.29 45.717l.014.026c-4.94-.603-17.753-3.116-24.824-2.187-2.523.33-6.132 2.078-8.285 2.77.036.226.052.45.03.658-.14 1.312-.502 2.085-1.63 2.675-.07.036-.14.07-.215.106l-.04.02c-.066.03-.135.06-.206.09-.036.013-.073.03-.11.042-.055.023-.11.045-.17.067-.102.036-.207.074-.32.11 0 0-1.36.498-2.162.763-.058.02-.13.03-.208.04l-.04.006a2.331 2.331 0 0 1-.254.004l-.07-.003a2.598 2.598 0 0 1-.29-.03l-.08-.016a2.966 2.966 0 0 1-.274-.062l-.102-.028a3.455 3.455 0 0 1-.298-.107l-.13-.054a3.91 3.91 0 0 1-.302-.154c-.047-.027-.092-.057-.137-.085a3.297 3.297 0 0 1-.256-.18c-.052-.04-.103-.084-.154-.128a3.88 3.88 0 0 1-.207-.2l-.085-.09a10.151 10.151 0 0 0 .633-7.556 10.21 10.21 0 0 0-1.527-3.037c.028-.01.054-.023.084-.032l2.368-.78.64-3.493-4.702 1.538 1.045-2.256-8.155-1.31c-5.648 3.99-6.703 10.64-5.696 14.447 1.006 3.807 4.713 7.92 4.713 7.92l6.63.055-4.12 2.83s4.03 5.2 6.514 7.87v19.63L12.22 151.14s-6.35-1.467-9.695 2.574h10.702s14.812-17.174 17.915-22.41c1.443-2.433 3.35-8.124 4.976-13.52l2.25 6.388-2.695 17.1s-4.434 2.47-5.453 7.805c4.33-3.268 6.967-5.23 6.967-5.23s5.567-14.464 6.135-19.396c.22-1.9.237-5.73.177-9.72-2.396.008-4.472-.313-6.246-.812.294-1.024.57-2 .818-2.896 2.967.766 6.775 1.03 11.53.092 9.616-1.9 19.176-6.966 24.355-10.045-.22.31-.462.64-.732 1.003a21.567 21.567 0 0 0-1.93 3.087c-4.452 2.583-10.87 5.863-17.675 7.873-1.834 3.277-3.516 7.21-3.653 10.784-.285 7.4 9.586 17.95 11.274 19.7-2.012.575-8.325 2.662-10.56 6.707 5.955-1.81 13.562-4.127 13.564-4.127l.024-2.66-8.264-17.99 13.22-14.033c-.806 4.78-.083 10.233 2.863 16.014 4.996 9.805 21.218 22.92 21.993 23.544-.776-.165-9.756-1.938-14.204 2.742h16.91v-2.788l-15.352-23.484.02-37.127z" fill="#F6F1DF" mask="url(#f)"/></g><path d="M188.24 444.166l.027-10.007-7.49-13.476 19.59-22.392-13.175-2.19-5.062 3.492s-10.813 18.382-10.813 21.09c0 2.71 14 15.136 14 15.136v6.235l2.924 2.11z" fill="#F6F1DF"/><path d="M178.017 447.39c6.328-1.94 10.313-3.11 10.313-3.11l-1.507-2.746h-.86s-5.588.653-7.946 5.857m-8.791-27.471c.56-4.915-.215-22.778-.215-22.778l-13.57-2.997 8.896 25.497-3.143 17.012s-4.39 4.094-3.324 8.628l5.576-7.797s5.22-12.65 5.78-17.566m7.812-16.272l3.134-5.55 6.524-3.348 10.996 1.352 2.98 1.818-12.642 2.106" fill="#F6F1DF"/><path d="M164.966 407.898c-6.695 0-13.654-5.76-13.947-6.006l-.04-.036-5.433-5.34 4.307-3.035-6.566.063-3.245-3.633 5.18-7.752 4.162-.577c1.196-1.015 8.676-7.1 16.256-7.1h.057l30.14 5.154.057.02c5.857 2.132 9.798 7.783 9.805 14.062v.394l-.34.194c-.6.343-14.723 8.415-18.907 9.845-4.472 1.528-15.066 3.748-21.487 3.748m49.443-41.994c14.396-14.516 14.396-38.052 0-52.568-14.396-14.516-37.737-14.516-52.133 0-14.397 14.517-14.397 38.052 0 52.568l1.457-1.47c-13.358-13.47-12.585-35.29.773-48.76 13.358-13.47 34.136-13.28 47.494.19 13.358 13.47 14.858 35.35 1.5 48.82" fill="#F6F1DF"/><path d="M164.033 365.17c0 .572-.46 1.036-1.028 1.036-.568 0-1.028-.464-1.028-1.037s.46-1.038 1.028-1.038c.568 0 1.028.465 1.028 1.037m-38.008 21.308c-.12-2.276 4.617-6.836 4.617-6.836l-1.517-3.245 2.78-1.483 8.242-5.045c6.748 2.08 6.91 6.837 10.563 12.15l-3.728 10.595-3.267.255-13.487.06-4.18-6.212-.023-.24z" fill="#F6F1DF"/><path d="M140.113 378.457c1.61 0 2.916 1.316 2.916 2.94 0 1.623-1.307 2.94-2.917 2.94v-5.88z" fill="#7B2D3B"/><path d="M126 450.987h8.93s13.22-19.822 16.516-25.44c3.298-5.615 11.42-26.006 11.42-26.006l-14.243-3.236-.634 26.39-14.102 25.53s-6.585.062-7.888 2.763m94.477-123.545c10.624 28.568-19.865 52.846-28.105 54.08l8.87 6.963c10.19-9.66 32.706-33.435 21.763-61.408" fill="#F6F1DF"/><path d="M209.482 450.987h13.335v-9.293l-17.83-18.24.028-42.058-11.198 12.817-5.15 3.558s.4 4.35 1.253 3.712c.853-.64 4.66-2.296 4.66-2.296s-2.817 2.573-3.148 6.317c-.332 3.745 2.9 19.287 6.658 23.353 3.76 4.066 21.885 14.478 21.885 14.478l.04 4.887s-6.765-1.735-10.533 2.767" fill="#F6F1DF"/><g transform="translate(467 299.51)"><mask id="h" fill="#fff"><use xlink:href="#g"/></mask><path d="M51.003 1.057a3.774 3.774 0 0 0 3.205 1.835l8.152.082c9.484 0 17.172 7.728 17.172 17.26v.908h10.242c5.324 0 9.64 4.338 9.64 9.69v119H.003V29.924c0-5.352 4.316-9.69 9.64-9.69h10.243c0-9.532 7.688-17.26 17.172-17.26l10.033-.087a2.885 2.885 0 0 0 2.415-1.347L50.42.08l.583.977z" fill="#F6F1DF" mask="url(#h)"/></g><path d="M509.26 413.12a2.154 2.154 0 0 0-.113.01v.002l.114-.013m-3.005-25.533c-.08.008-.16.016-.238.026.077-.01.154-.018.234-.026h.004m8.997.419c5.18.63 10.608 1.685 13.1 2.197l-.252-.03c.212.03.397.06.55.09-3.917-.982-16.19-3.31-22.394-2.676 2.31-.23 5.61.002 8.997.42" fill="#999"/><path d="M510.758 447.865l-4.2-1.03c-.087-.022-.09-.142-.005-.168.088-.027.08-.203-.012-.218-.356-.058-.634-.13-.773-.165-2.298-.57-4.104-1.837-4.878-3.547 0 0-1.76-4.117-1.804-4.073 0 0-2.33 2.94-2.25 3.02.032.03-.032.083-.002.117l2.368 2.743c.847.982 2.074 1.748 3.52 2.198l.012.003 7.294 1.81a.639.639 0 0 0 .796-.59v-.017a.089.089 0 0 0-.066-.085m36.997-20.25l-6.75-4.76-7.79-6.678-4.123 7.714c0 .094.056.256.14.446a4.285 4.285 0 0 0 1.942 2.044c4.397 2.31 9.455 3.87 11.576 4.47.58.164.95.734.86 1.33l-.942 6.24c-.185 1.23-.58 2.42-1.172 3.515l-1.602 2.973a.7.7 0 0 0 .23.73l2.038-3.53.043-.068a.153.153 0 0 1 .274.131l-.014.047c-.024.07.002.15.065.193a.17.17 0 0 0 .256-.068l5.715-12.454s1.037-1.254-.745-2.275" fill="#7B2D3B"/><path d="M547.24 332.723c-13.168-13.11-34.518-13.11-47.686 0-13.17 13.11-13.17 34.367 0 47.477l1.333-1.327c-12.22-12.165-11.512-31.874.706-44.04 12.22-12.164 31.225-11.992 43.444.173a33.265 33.265 0 0 1 9.35 18.015c-.06.605-.067 1.364-.01 2.29-.23 16.653-11.824 28.998-20.062 37.242-1.454-.99-3.997-1.817-5.277-2.175l.238.05c.06.013-.143-.07-.625-.165-.153-.03-.338-.06-.55-.09l.252.03c-2.49-.512-7.92-1.566-13.1-2.197-3.412-.415-6.717-.647-9-.42-4.93.58-8.465 1.826-11.128 3.363l.654-3.384-.385-.188-9.294-4.532c-.52-.034-3.393 3.312-3.754 3.687-.1.106-.2.21-.296.315a19.468 19.468 0 0 0-1.197 1.429c-.09.122-.166.225-.24.328-.12.172-.193.274-.26.375.654.52 1.646 1.32 2.12 2.636l-.468.272c-.597.525-.903 1.077-1.045 1.857-.085.592-.052 1.015.044 1.423l.352 1.5c-.753.19-1.74-.104-2.19-1.167-.346-.813-.433-1.052-.544-2.016a4.722 4.722 0 0 1 .002-.898c-1.527 5.053 1.075 9.502 4.39 11.706 1.256.836 2.616 1.35 3.89 1.45 1.498.122 2.824.052 3.986-.177l.526.496-.526-.416c-.465.145-.787.238-1.125.317-.117.027-.236.052-.356.076-1.164.23-2.5.394-3.986.18-1.222-.18-1.54-.464-2.313-.794.495 2.9 2.907 8.06 9.405 13.807.437.386.707.925.76 1.504l1.288 13.21 4.52-8.49.44-1.56a6.723 6.723 0 0 0-.03-3.762c-.04-.134-.078-.26-.11-.377-.338-1.196-.847-2.32-1.245-3.106l-4.322-8.506c.29.216.586.423.89.62.77.5 1.58.94 2.42 1.318l4.58 7.48c.912 1.982.648 3.884-.396 5.802-.063.113-6.462 12.69-6.462 12.69a565.353 565.353 0 0 1-4.287 7.9c-.134.245-.27.495-.412.747-.07.128-.35.51-.82.966a8.344 8.344 0 0 1-2.736 1.79c-1.353.532-10.85 2.08-9.27 3.456.18.158 1.942-1.147 4.5-1.092.01 0 1.646 0 4.91-.005.876 0 2.393-.034 2.442-.083.575-.574 1.397-.856 1.888-1.53 1.14-1.57 2.99-4.25 4.855-6.853a1230.33 1230.33 0 0 0 3.16-4.438c5.544-7.838 11.45-16.47 11.286-17.452-.102-.613-1.41-3.11-3.108-6.174-3.518-6.33-3.895-10.09-3.913-10.203-.568-3.62 1.74-4.898 2.846-5.296.088.048-1.612.577-.87 5.297.017.114.428 3.928 3.828 10.05.038 0 2.274-.234 2.307-.42.086-.02.17-.04.252-.062 2.317-.574 4.535-1.34 6.765-2.21 1.09-7.797 4.536-10.864 6.93-11.942a13.002 13.002 0 0 0-2.346 3.07c-1.303 2.334-2.326 5.47-3.073 8.307a79.346 79.346 0 0 0-1.353 6.19 3.406 3.406 0 0 0 .216 1.908c1.364 3.237 6.166 14.19 10.683 19.19.234.256-3.325 5.988-7.475 8.225-2.37 1.28-4.21 2.583-4.246 2.656 0 0-1.658 1.133-.608 1.343l3.57-2.233c.176.423.384.502.555.416-.107.054-.213.11-.317.162a75.92 75.92 0 0 0 1.59-.815c5.692-2.938 14.073-7.56 12.896-8.73l-7.553-13.39a1.397 1.397 0 0 1-.426-1.002l4.87-9.107.6-1.125a68.433 68.433 0 0 0 2.256-4.168c2.294-4.644 2.325-8.696 1.947-11.083.243-.553.427-.803.517-.606.097.215 14.872-18.05 17.813-30.313 1.722-4.907 1.953-9.12 1.584-12.02a33.382 33.382 0 0 0-9.857-22.644z" fill="#7B2D3B"/><path d="M487.316 401.017c.188.134.51.34.933.53l.188.08c.087.035.177.07.27.1a5.158 5.158 0 0 0 1.273.273c.12.01.24.016.36.017h.187c.437-.014.903-.09 1.388-.25a5.193 5.193 0 0 0 1.724-.965c.052-.045.1-.09.15-.135.193-.18.36-.367.5-.55a4.693 4.693 0 0 0 .609-1.021c.158-.36.21-.606.21-.606l-.01-.046v-.01l-.026-.13c0-.005 0-.01-.002-.017l-.017-.084c0-.007 0-.015-.003-.022l-.034-.18c-.01-.043-.017-.09-.026-.137l-.035-.182-.016-.09-.036-.19-.037-.203-.103-.562c-.014-.08-.03-.16-.043-.242l-.068-.378c-.05-.273-.098-.556-.147-.843l-.097-.577a93.86 93.86 0 0 1-.136-.862c-.014-.093-.03-.187-.042-.28l-.07-.473a26.37 26.37 0 0 1-.144-1.23l-.01-.14-.01-.13c0-.03-.003-.056-.004-.083-.002-.053-.004-.103-.004-.15v-.13c0-.02 0-.04.002-.06.003-.058.01-.107.017-.145a.314.314 0 0 1 .017-.06.117.117 0 0 1 .022-.037l.7-2.482h-.272c-.15 0-.358.007-.61.02-.086.005-.175.01-.27.017-.14.01-.293.022-.454.037l-.163.016c-.167.016-.342.037-.525.06-.06.01-.122.017-.185.026a14.842 14.842 0 0 0-.983.166c-.137.027-.276.056-.416.088l-.254.06c-.128.03-.256.064-.385.1a12.976 12.976 0 0 0-1.734.598 10.237 10.237 0 0 0-1.049.529 8.39 8.39 0 0 0-1.076.748 6.397 6.397 0 0 0-.745.718l-.04.046a5.564 5.564 0 0 0-.605.83c-.09.146-.172.298-.25.455a5.84 5.84 0 0 0-.16.348l1.28 3.838 1.28 3.838s.066.056.188.143m-8.704-7.504c.112.974.2 1.215.532 2 .006.01.01.023.017.036.456 1.074 1.452 1.372 2.212 1.178l-.356-1.514a3.45 3.45 0 0 1-.045-1.438c.143-.788.452-1.346 1.055-1.875l.367-.213.107-.06c-.48-1.33-1.482-2.137-2.205-2.57-.48-.287-.838-.41-.838-.41s-.697 2.25-.842 3.91c0 .017-.003.034-.004.05a4.713 4.713 0 0 0-.002.905" fill="#F6F1DF"/><g fill="#5E232D"><path d="M46 210h766v6H46z"/><path d="M805.05 198.808l14.142 14.142-4.242 4.242-14.142-14.142z"/><path d="M805.05 227.192l14.142-14.142-4.242-4.242-14.142 14.142z"/></g><g fill="#5E232D"><path d="M46 502h766v6H46z"/><path d="M805.05 490.808l14.142 14.142-4.242 4.242-14.142-14.142z"/><path d="M805.05 519.192l14.142-14.142-4.242-4.242-14.142 14.142z"/></g></g></svg>