<svg xmlns="http://www.w3.org/2000/svg" width="358" height="356" viewBox="0 0 358 356" xmlns:xlink="http://www.w3.org/1999/xlink"><defs><circle id="a" cx="32" cy="32" r="26"/><path id="b" d="M10.697 12H0V1.302h10.696z"/></defs><g transform="translate(150 145)" fill="none" fill-rule="evenodd"><circle cx="32" cy="32" r="32" fill="#FFF8F1" fill-rule="nonzero"/><use fill="#327871" xlink:href="#a"/><circle cx="32" cy="32" r="24.5" stroke="#327871" stroke-width="3"/><circle cx="32" cy="32" r="20" fill="#A4D8D3"/><path fill="#180F5C" d="M32 14L16 41.714h32z"/><g transform="translate(26 36.697)"><mask id="c" fill="#fff"><use xlink:href="#b"/></mask><path fill="#327871" d="M10.697 6.65A5.348 5.348 0 1 1 0 6.65a5.348 5.348 0 1 1 10.696 0" mask="url(#c)"/></g><path fill="#FD7016" d="M35.697 30.348a4.349 4.349 0 1 1-8.698.002 4.349 4.349 0 0 1 8.698-.002"/></g></svg>