<svg xmlns="http://www.w3.org/2000/svg" width="406" height="310" viewBox="0 0 406 310"><g fill="none" fill-rule="evenodd"><path fill="#F6F1DF" d="M172.24 274.92c0 4.04-3.04 7.08-6.88 7.08h-7.2l1.82-1.82v-10.52l-1.82-1.82h7.2c3.84 0 6.88 3.04 6.88 7.08zm-4.26 0c0-2.64-.76-5.32-3.12-5.32h-1.12v10.64h1.12c2.36 0 3.12-2.68 3.12-5.32zm15.82 2.22h-6.1v.62c0 2.26 1.04 2.86 2.14 2.86 1.14 0 2.04-.54 2.88-1.36l1.02 1.02c-1.38 1.36-3.02 1.98-4.82 1.98-3.12 0-5.48-2.38-5.48-5.34 0-2.98 2.32-5.34 5.58-5.34 2.94 0 5.6 2.48 4.78 5.56zm-4.78-4c-.86 0-1.32.78-1.32 2.44h2.28c.48-.74.22-2.44-.96-2.44zm13.92.26v-1.56h-2.9v-3.12l-5.58 5.58h1.82v4.5c0 2.22 1.38 3.4 3.66 3.4 1.18 0 2.3-.54 3.12-1.7l-.9-.9c-.66.6-1.22.9-2.12.74v-6.94h2.9zm12.48 8.6h-5.48v-1.26l-1.4.92c-.62.4-1.14.6-1.86.6-1.46 0-2.74-1.02-2.74-2.74 0-2.52 2.16-3.48 4.88-3.48h1.12v-1.82c0-.66-.42-1.08-1.08-1.08-.58 0-1.16.22-1.78.84l-2.24 2.24v-3.8c1.22-.5 3.28-.84 4.38-.84 3.14 0 4.48 1 4.48 3.04v5.66l1.72 1.72zm-5.48-2.76v-2.04h-.62c-1.36 0-1.92.46-1.92 1.92 0 .74.34 1.08.76 1.08.26 0 .52-.12.84-.34l.94-.62zm10.98-10.22c0-1.04-.84-1.88-1.88-1.88s-1.88.84-1.88 1.88.84 1.88 1.88 1.88 1.88-.84 1.88-1.88zm1.82 12.98l-1.72-1.72v-8.7l-5.44 1.78 1.68 1.68v5.24l-1.72 1.72h7.2zm7.2 0l-1.72-1.72V266.8l-5.44 1.68 1.68 1.68v10.12l-1.72 1.72h7.2z"/><path fill="#F9D105" d="M154.17 211.428l34.258-34.258 34.257 34.258z"/><path fill="#527DF0" d="M222.685 211.428l-34.257 34.257-34.258-34.257z"/></g></svg>