<svg xmlns="http://www.w3.org/2000/svg" width="419" height="135" viewBox="0 0 419 135"><g opacity=".75"><path fill="#393A3A" d="M367.069 105.312H268v30h8.35c0-12 8.836-19.735 19.736-19.735 10.898 0 19.738 7.735 19.738 19.735h7.847c0-12 8.837-19.735 19.736-19.735 10.9 0 19.737 7.735 19.737 19.735h7.847c0-12 8.837-19.735 19.737-19.735 10.899 0 19.737 7.735 19.737 19.735H419v-30h-51.931zm-267.378 0H0v30h8.971c0-12 8.836-19.735 19.737-19.735 10.9 0 19.738 7.735 19.738 19.735h7.847c0-12 8.835-19.735 19.736-19.735s19.738 7.735 19.738 19.735h7.845c0-12 8.837-19.735 19.739-19.735 10.898 0 19.737 7.735 19.737 19.735H147v-30H99.691z"/><path fill="#313032" d="M156.029.156l-9.528 16.927-1.506 118.229H156V.402z"/><path fill="#393A3A" d="M165.641 17.083L156 .402v134.91h11.411z"/><path fill="#313032" d="M175.374 74.45c0-18.399 18.936-33.315 42.292-33.315 23.359 0 42.295 14.916 42.295 33.315 0 18.394-18.936 34.591-42.295 34.591-23.356 0-42.292-16.198-42.292-34.591z"/><path fill="#313032" d="M175.06 66.632h85.049v31.671H175.06z"/><path fill="#313032" d="M165.535 74.903h104.174v46.082H165.535z"/><path fill="#393A3A" d="M173.841 82.45c-1.696 0-3.067 1.575-3.067 3.523v35.012h6.139V85.973c-.001-1.948-1.373-3.523-3.072-3.523zm10.676 0c-1.696 0-3.068 1.575-3.068 3.523v35.012h6.138V85.973c-.001-1.948-1.374-3.523-3.07-3.523zm10.926 0c-1.694 0-3.068 1.575-3.068 3.523v35.012h6.142V85.973c-.001-1.948-1.377-3.523-3.074-3.523zm12.264 0c-1.693 0-3.068 1.575-3.068 3.523v35.012h6.139V85.973c0-1.948-1.374-3.523-3.071-3.523zm10.929 0c-1.695 0-3.066 1.575-3.066 3.523v35.012h6.138V85.973c-.001-1.948-1.376-3.523-3.072-3.523zm10.675 0c-1.696 0-3.07 1.575-3.07 3.523v35.012h6.139V85.973c-.001-1.948-1.373-3.523-3.069-3.523zm10.924 0c-1.695 0-3.066 1.575-3.066 3.523v35.012h6.138V85.973c0-1.948-1.374-3.523-3.072-3.523zm10.617 0c-1.7 0-3.075 1.575-3.075 3.523v35.012h6.143V85.973c-.001-1.948-1.374-3.523-3.068-3.523zm10.925 0c-1.696 0-3.069 1.575-3.069 3.523v35.012h6.139V85.973c0-1.948-1.375-3.523-3.07-3.523zm-97.668-10.013h107.114v4.619H164.109z"/><path fill="#313032" d="M164.064 120.985h107.114v4.619H164.064z"/><path fill="#393A3A" d="M161.736 125.604h111.771v4.62H161.736z"/><path fill="#313032" d="M159.657 130.224h115.93v4.62h-115.93z"/><path fill="#393A3A" d="M261.665 67.506h-87.997v-3.342l43.999-6.799 43.998 6.799z"/></g></svg>