<?xml version="1.0" encoding="utf-8"?>
<!-- Generator: Adobe Illustrator 16.0.0, SVG Export Plug-In . SVG Version: 6.00 Build 0)  -->
<!DOCTYPE svg PUBLIC "-//W3C//DTD SVG 1.1//EN" "http://www.w3.org/Graphics/SVG/1.1/DTD/svg11.dtd">
<svg version="1.1" id="Layer_1" xmlns="http://www.w3.org/2000/svg" xmlns:xlink="http://www.w3.org/1999/xlink" x="0px" y="0px"
	 width="37px" height="37px" viewBox="0 0 37 37" enable-background="new 0 0 37 37" xml:space="preserve">
<path fill="#FFFFFF" d="M18.1,0C8.104,0,0,8.104,0,18.104C0,28.1,8.104,36.202,18.1,36.202c9.994,0,18.1-8.103,18.1-18.1
	C36.2,8.105,28.094,0,18.1,0z M21.072,27.236c-0.477,0.091-0.646-0.199-0.646-0.451c0-0.307,0.011-1.318,0.011-2.572
	c0-0.877-0.301-1.449-0.638-1.74c2.091-0.229,4.287-1.024,4.287-4.63c0-1.024-0.364-1.863-0.97-2.517
	c0.1-0.238,0.423-1.193-0.09-2.485c0,0-0.793-0.25-2.58,0.963c-0.75-0.21-1.554-0.312-2.35-0.315c-0.794,0.003-1.6,0.105-2.35,0.315
	c-1.792-1.214-2.58-0.962-2.58-0.962c-0.51,1.293-0.188,2.248-0.093,2.486c-0.602,0.653-0.965,1.492-0.965,2.516
	c0,3.598,2.19,4.402,4.274,4.641c-0.268,0.233-0.512,0.647-0.594,1.254c-0.537,0.24-1.896,0.654-2.732-0.78
	c0,0-0.494-0.899-1.44-0.967c0,0-0.915-0.013-0.062,0.569c0,0,0.61,0.289,1.04,1.373c0,0,0.552,1.824,3.163,1.258
	c0,0.783,0.013,1.375,0.013,1.596c0,0.25-0.174,0.54-0.643,0.453C11.398,26,8.71,22.48,8.71,18.335c0-5.184,4.2-9.386,9.385-9.386
	c5.18,0,9.385,4.2,9.385,9.385c0.002,4.145-2.688,7.66-6.41,8.902H21.072z"/>
</svg>
