<?xml version="1.0" encoding="utf-8"?>
<!-- Generator: Adobe Illustrator 16.0.0, SVG Export Plug-In . SVG Version: 6.00 Build 0)  -->
<!DOCTYPE svg PUBLIC "-//W3C//DTD SVG 1.1//EN" "http://www.w3.org/Graphics/SVG/1.1/DTD/svg11.dtd">
<svg version="1.1" id="Layer_1" xmlns="http://www.w3.org/2000/svg" xmlns:xlink="http://www.w3.org/1999/xlink" x="0px" y="0px"
	 width="37px" height="37px" viewBox="0 0 37 37" enable-background="new 0 0 37 37" xml:space="preserve">
<g>
	<g>
		<path fill="#979797" d="M18.852,18.428c0.057-0.02,0.119-0.037,0.184-0.055l0.193-0.053l-0.082-0.184
			c-0.15-0.338-0.322-0.704-0.533-1.12l-0.064-0.128l-0.139,0.039c-3.324,0.981-6.498,1.057-7.391,1.057l-0.35-0.003l-0.01,0.167
			c-0.002,0.049-0.006,0.1-0.006,0.15c0,1.838,0.662,3.615,1.869,5.005l0.152,0.177l0.123-0.198
			C13.176,22.676,15.244,19.595,18.852,18.428z"/>
		<path fill="#979797" d="M17.779,15.773l0.217-0.047l-0.109-0.12c-1.16-2.046-2.367-3.685-2.709-4.151l-0.084-0.082l-0.129,0.105
			c-2.072,1.009-3.613,2.732-4.123,4.973l-0.047,0.064h0.25C11.816,16.516,14.59,16.604,17.779,15.773z"/>
		<path fill="#979797" d="M19.74,19.578L19.68,19.42l-0.16,0.057c-4.088,1.447-5.637,4.15-5.906,4.678l-0.066,0.129l0.115,0.088
			c1.352,1.028,2.957,1.572,4.637,1.572c1.006,0,1.986-0.193,2.91-0.577l0.129-0.053l-0.025-0.136
			C21.207,24.553,20.777,22.303,19.74,19.578z"/>
		<path fill="#979797" d="M19.236,15.324l0.074,0.133l0.139-0.054c2.434-0.933,3.566-2.275,3.855-2.665l0.1-0.129l-0.123-0.104
			c-1.389-1.192-3.156-1.85-4.982-1.85c-0.559,0-1.115,0.062-1.658,0.183l-0.258,0.059l0.158,0.213
			C16.986,11.711,18.141,13.326,19.236,15.324z"/>
		<path fill="#979797" d="M22.627,18.972c-0.504,0-1,0.034-1.471,0.104l-0.207,0.031l0.07,0.198c0.861,2.38,1.27,4.386,1.404,5.137
			l0.051,0.266l0.221-0.156c1.654-1.167,2.797-2.974,3.135-4.958l0.025-0.152l-0.146-0.043
			C25.271,19.27,24.098,18.972,22.627,18.972z"/>
		<path fill="#979797" d="M24.143,13.369l-0.135,0.171c-0.316,0.405-1.547,1.806-4.018,2.837l-0.17,0.07l0.082,0.164
			c0.16,0.338,0.314,0.675,0.457,1.007c0.045,0.106,0.09,0.212,0.131,0.317l0.049,0.123l0.133-0.016
			c0.521-0.062,1.082-0.095,1.662-0.095c1.57,0,2.9,0.229,3.398,0.326l0.211,0.042l-0.004-0.215
			c-0.045-1.652-0.635-3.273-1.66-4.562L24.143,13.369z"/>
		<path fill="#979797" d="M18.299,0C8.193,0,0,8.193,0,18.299c0,10.104,8.193,18.297,18.299,18.297s18.295-8.192,18.295-18.297
			C36.594,8.193,28.404,0,18.299,0z M18.299,27.252c-4.938,0-8.959-4.015-8.959-8.953c0-4.938,4.021-8.955,8.959-8.955
			c4.939,0,8.953,4.018,8.953,8.955C27.252,23.237,23.238,27.252,18.299,27.252z"/>
	</g>
</g>
<g>
</g>
<g>
</g>
<g>
</g>
<g>
</g>
<g>
</g>
<g>
</g>
</svg>
