<?xml version="1.0" encoding="utf-8"?>
<!-- Generator: Adobe Illustrator 16.0.0, SVG Export Plug-In . SVG Version: 6.00 Build 0)  -->
<!DOCTYPE svg PUBLIC "-//W3C//DTD SVG 1.1//EN" "http://www.w3.org/Graphics/SVG/1.1/DTD/svg11.dtd">
<svg version="1.1" id="Layer_1" xmlns="http://www.w3.org/2000/svg" xmlns:xlink="http://www.w3.org/1999/xlink" x="0px" y="0px"
	 width="37px" height="37px" viewBox="0 0 37 37" enable-background="new 0 0 37 37" xml:space="preserve">
<path fill="#FFFFFF" d="M18.295,0C8.19,0,0,8.193,0,18.3c0,10.107,8.19,18.296,18.295,18.296c10.105,0,18.297-8.189,18.297-18.297
	C36.592,8.192,28.4,0,18.295,0z M22.415,12.434h-2.542c-0.322,0-0.641,0.64-0.641,1.212v1.97h3.184V18.8h-3.182v8.486H16.05V18.8
	h-3.182v-3.183h3.182v-1.65c0-2.39,1.55-4.714,3.822-4.714h2.543V12.434L22.415,12.434z"/>
</svg>
