<?xml version="1.0" encoding="utf-8"?>
<!-- Generator: Adobe Illustrator 16.0.0, SVG Export Plug-In . SVG Version: 6.00 Build 0)  -->
<!DOCTYPE svg PUBLIC "-//W3C//DTD SVG 1.1//EN" "http://www.w3.org/Graphics/SVG/1.1/DTD/svg11.dtd">
<svg version="1.1" id="Layer_1" xmlns="http://www.w3.org/2000/svg" xmlns:xlink="http://www.w3.org/1999/xlink" x="0px" y="0px"
	 width="37px" height="37px" viewBox="0 0 37 37" enable-background="new 0 0 37 37" xml:space="preserve">
<path fill="#FFFFFF" d="M18.295,0C8.19,0,0,8.193,0,18.3c0,10.107,8.19,18.296,18.295,18.296c10.109,0,18.301-8.189,18.301-18.297
	C36.596,8.192,28.404,0,18.295,0L18.295,0z M25.738,14.99c0.008,0.155,0.012,0.31,0.012,0.468c0,4.762-3.625,10.253-10.254,10.253
	c-2.037,0-3.93-0.597-5.523-1.618c0.28,0.033,0.566,0.05,0.86,0.05c1.687,0,3.24-0.576,4.476-1.541
	c-1.58-0.028-2.91-1.07-3.37-2.502c0.22,0.039,0.445,0.063,0.676,0.063c0.334,0,0.535-0.045,0.838-0.127
	c-1.65-0.33-3.002-1.788-3.002-3.533v-0.047c1.06,0.27,1.156,0.434,1.744,0.45c-0.967-0.646-1.55-1.748-1.55-3
	c0-0.66,0.208-1.276,0.522-1.81c1.775,2.18,4.445,3.615,7.44,3.766c-0.062-0.263-0.087-0.54-0.087-0.82
	c0-1.99,1.621-3.605,3.608-3.605c1.037,0,1.976,0.44,2.634,1.14c0.819-0.163,1.594-0.463,2.291-0.876
	c-0.27,0.84-0.842,1.546-1.586,1.994c0.73-0.09,1.424-0.28,2.07-0.57c-0.482,0.726-1.096,1.358-1.799,1.867V14.99z"/>
</svg>
