<?xml version="1.0" encoding="utf-8"?>
<!-- Generator: Adobe Illustrator 16.0.0, SVG Export Plug-In . SVG Version: 6.00 Build 0)  -->
<!DOCTYPE svg PUBLIC "-//W3C//DTD SVG 1.1//EN" "http://www.w3.org/Graphics/SVG/1.1/DTD/svg11.dtd">
<svg version="1.1" id="Layer_1" xmlns="http://www.w3.org/2000/svg" xmlns:xlink="http://www.w3.org/1999/xlink" x="0px" y="0px"
	 width="37px" height="37px" viewBox="0 0 37 37" enable-background="new 0 0 37 37" xml:space="preserve">
<path fill="#434343" d="M18.099,0C8.104,0,0,8.104,0,18.104C0,28.1,8.104,36.202,18.099,36.202c9.994,0,18.1-8.103,18.1-18.099
	C36.198,8.104,28.093,0,18.099,0z M21.072,27.237c-0.477,0.091-0.645-0.2-0.645-0.452c0-0.307,0.01-1.318,0.01-2.572
	c0-0.877-0.301-1.449-0.637-1.739c2.09-0.232,4.287-1.026,4.287-4.632c0-1.023-0.365-1.862-0.968-2.516
	c0.097-0.238,0.421-1.193-0.094-2.485c0,0-0.79-0.252-2.58,0.962c-0.748-0.209-1.553-0.312-2.348-0.315
	c-0.794,0.003-1.602,0.106-2.349,0.315c-1.793-1.214-2.58-0.962-2.58-0.962c-0.512,1.292-0.189,2.247-0.094,2.485
	c-0.602,0.653-0.966,1.492-0.966,2.516c0,3.597,2.192,4.402,4.276,4.639c-0.267,0.235-0.512,0.649-0.594,1.255
	c-0.537,0.24-1.896,0.655-2.732-0.779c0,0-0.494-0.901-1.44-0.968c0,0-0.915-0.011-0.062,0.57c0,0,0.611,0.289,1.04,1.373
	c0,0,0.552,1.825,3.162,1.258c0.003,0.783,0.015,1.375,0.015,1.596c0,0.25-0.174,0.54-0.644,0.453
	c-3.728-1.24-6.418-4.758-6.418-8.904c0-5.184,4.201-9.386,9.385-9.386c5.18,0,9.386,4.202,9.386,9.386
	C27.484,22.479,24.795,25.994,21.072,27.237z"/>
<g>
</g>
<g>
</g>
<g>
</g>
<g>
</g>
<g>
</g>
<g>
</g>
</svg>
