<?xml version="1.0" encoding="utf-8"?>
<!-- Generator: Adobe Illustrator 16.0.0, SVG Export Plug-In . SVG Version: 6.00 Build 0)  -->
<!DOCTYPE svg PUBLIC "-//W3C//DTD SVG 1.1//EN" "http://www.w3.org/Graphics/SVG/1.1/DTD/svg11.dtd">
<svg version="1.1" id="Layer_1" xmlns="http://www.w3.org/2000/svg" xmlns:xlink="http://www.w3.org/1999/xlink" x="0px" y="0px"
	 width="37px" height="37px" viewBox="0 0 37 37" enable-background="new 0 0 37 37" xml:space="preserve">
<path fill="#FFFFFF" d="M18.09,0C8.098,0,0,8.098,0,18.086c0,9.99,8.098,18.087,18.09,18.087c9.99,0,18.086-8.098,18.086-18.087
	C36.176,8.098,28.08,0,18.09,0z M13.662,25.582H9.998V13.797h3.664V25.582z M11.805,12.352c-1.156,0-1.904-0.82-1.904-1.832
	c0-1.036,0.774-1.83,1.954-1.83c1.182,0,1.906,0.794,1.93,1.83c0,1.012-0.75,1.83-1.98,1.83V12.352z M27.037,25.582h-3.664V19.05
	c0-1.518-0.53-2.554-1.855-2.554c-1.014,0-1.613,0.7-1.877,1.374c-0.1,0.24-0.121,0.58-0.121,0.915v6.797h-3.663v-8.025
	c0-1.47-0.05-2.698-0.1-3.76h3.182l0.17,1.64h0.072c0.481-0.772,1.661-1.904,3.639-1.904c2.41,0,4.219,1.613,4.219,5.084v6.965
	H27.037z"/>
</svg>
