<?xml version="1.0" encoding="utf-8"?>
<!-- Generator: Adobe Illustrator 16.0.0, SVG Export Plug-In . SVG Version: 6.00 Build 0)  -->
<!DOCTYPE svg PUBLIC "-//W3C//DTD SVG 1.1//EN" "http://www.w3.org/Graphics/SVG/1.1/DTD/svg11.dtd">
<svg version="1.1" id="Layer_1" xmlns="http://www.w3.org/2000/svg" xmlns:xlink="http://www.w3.org/1999/xlink" x="0px" y="0px"
	 width="40.443px" height="8.753px" viewBox="0 0 40.443 8.753" enable-background="new 0 0 40.443 8.753" xml:space="preserve">
<g>
	<polygon fill="#676767" points="4.604,0 5.969,2.957 9.203,3.344 6.814,5.558 7.445,8.753 4.604,7.165 1.76,8.753 2.391,5.558 
		0,3.344 3.236,2.957 	"/>
	<polygon fill="#676767" points="20.223,0 21.59,2.957 24.824,3.344 22.434,5.558 23.068,8.753 20.223,7.165 17.379,8.753 
		18.012,5.558 15.621,3.344 18.854,2.957 	"/>
	<polygon fill="#676767" points="35.842,0 37.209,2.957 40.443,3.344 38.055,5.558 38.686,8.753 35.842,7.165 32.998,8.753 
		33.631,5.558 31.24,3.344 34.477,2.957 	"/>
</g>
</svg>
