<?xml version="1.0" encoding="utf-8"?>
<!-- Generator: Adobe Illustrator 16.0.0, SVG Export Plug-In . SVG Version: 6.00 Build 0)  -->
<!DOCTYPE svg PUBLIC "-//W3C//DTD SVG 1.1//EN" "http://www.w3.org/Graphics/SVG/1.1/DTD/svg11.dtd">
<svg version="1.1" id="Layer_1" xmlns="http://www.w3.org/2000/svg" xmlns:xlink="http://www.w3.org/1999/xlink" x="0px" y="0px"
	 width="37px" height="37px" viewBox="0 0 37 37" enable-background="new 0 0 37 37" xml:space="preserve">
<g>
	<path fill="#FFFFFF" d="M18.852,18.428c0.057-0.02,0.12-0.037,0.184-0.055l0.192-0.053l-0.082-0.184
		c-0.15-0.338-0.322-0.704-0.534-1.12l-0.064-0.128l-0.14,0.04c-3.323,0.98-6.497,1.056-7.39,1.056l-0.35-0.003l-0.01,0.168
		c-0.002,0.05-0.006,0.1-0.006,0.15c0,1.838,0.662,3.615,1.87,5.006l0.15,0.176l0.124-0.197c0.378-0.606,2.446-3.688,6.054-4.854
		L18.852,18.428z M17.78,15.773l0.216-0.047l-0.11-0.12c-1.16-2.046-2.366-3.685-2.708-4.15l-0.084-0.083l-0.13,0.105
		c-2.07,1.01-3.612,2.732-4.122,4.973l-0.047,0.065h0.25C11.815,16.516,14.59,16.606,17.78,15.773L17.78,15.773z M19.74,19.578
		L19.68,19.42l-0.16,0.057c-4.087,1.447-5.637,4.15-5.906,4.678l-0.066,0.131l0.115,0.087c1.352,1.028,2.957,1.571,4.637,1.571
		c1.007,0,1.986-0.192,2.91-0.576l0.13-0.053l-0.025-0.137C21.207,24.553,20.777,22.303,19.74,19.578z M19.236,15.324l0.074,0.133
		l0.14-0.054c2.433-0.933,3.565-2.275,3.854-2.665l0.1-0.13l-0.123-0.103c-1.389-1.192-3.155-1.85-4.98-1.85
		c-0.56,0-1.116,0.062-1.66,0.183l-0.257,0.06l0.158,0.212c0.446,0.6,1.6,2.216,2.696,4.214H19.236z M22.627,18.972
		c-0.504,0-1,0.034-1.47,0.104l-0.208,0.029l0.07,0.201c0.859,2.379,1.27,4.385,1.402,5.135l0.051,0.267l0.221-0.156
		c1.654-1.167,2.798-2.974,3.136-4.958l0.024-0.152l-0.146-0.043c-0.44-0.129-1.612-0.427-3.083-0.427L22.627,18.972z M24.143,13.37
		l-0.135,0.17c-0.316,0.405-1.547,1.806-4.018,2.837l-0.17,0.07l0.082,0.164c0.16,0.34,0.313,0.676,0.457,1.008
		c0.043,0.106,0.09,0.212,0.129,0.317l0.051,0.123l0.132-0.016c0.521-0.062,1.082-0.095,1.662-0.095
		c1.569,0,2.899,0.229,3.397,0.326l0.211,0.042l-0.004-0.215c-0.045-1.652-0.636-3.273-1.66-4.562l-0.137-0.17L24.143,13.37z
		 M18.3,0C8.192,0,0,8.193,0,18.3c0,10.103,8.193,18.296,18.3,18.296c10.107,0,18.293-8.191,18.293-18.296
		C36.594,8.192,28.404,0,18.3,0z M18.3,27.252c-4.94,0-8.96-4.016-8.96-8.953c0-4.94,4.02-8.956,8.96-8.956
		c4.938,0,8.952,4.018,8.952,8.955c0,4.937-4.014,8.952-8.952,8.952V27.252z"/>
</g>
</svg>
