<?xml version="1.0" encoding="utf-8"?>
<!-- Generator: Adobe Illustrator 16.0.0, SVG Export Plug-In . SVG Version: 6.00 Build 0)  -->
<!DOCTYPE svg PUBLIC "-//W3C//DTD SVG 1.1//EN" "http://www.w3.org/Graphics/SVG/1.1/DTD/svg11.dtd">
<svg version="1.1" id="Layer_1" xmlns="http://www.w3.org/2000/svg" xmlns:xlink="http://www.w3.org/1999/xlink" x="0px" y="0px"
	 width="96.7px" height="16.3px" viewBox="0 0 96.7 16.3" enable-background="new 0 0 96.7 16.3" xml:space="preserve">
<g>
	<g>
		<g>
			<g>
				<path fill="#E6E6E6" d="M88.8,4.1c0,1-0.4,1.2-1.1,1.2c-0.6,0-1-0.2-1-1.2V0h-1.5v4.1c0,2.2,1.6,2.6,2.5,2.6
					c1,0,2.5-0.3,2.5-2.6V0h-1.5V4.1z"/>
				<polygon fill="#E6E6E6" points="94.9,3.2 96.6,0 95,0 94.1,1.7 93.3,0 91.6,0 93.3,3.2 91.5,6.5 93.2,6.5 94.1,4.6 95.1,6.5 
					96.7,6.5 				"/>
			</g>
		</g>
		<path fill="#E6E6E6" d="M54.2,0.1l3.9,9.8L62,0.1h4.3l-6.9,16.1h-2.7L49.9,0.1H54.2z"/>
		<path fill="#E6E6E6" d="M81.1,3.7h-7v2.7h5.5v3.6h-5.5v2.8h7v3.6h-11V0.1h11V3.7z"/>
		<path fill="#E6E6E6" d="M45.8,16.3h4.3L43.3,0.1h-2.7l-6.9,16.1H38l1.1-2.8h5.6L45.8,16.3z M40.2,10.1l1.7-4.2l1.7,4.2H40.2z"/>
		<path fill="#E6E6E6" d="M9.7,8c1.1-0.6,2.3-1.9,2.3-3.6c0-2.4-2.2-4.3-5-4.3H0v16.1h7.5c2.7,0,5-1.9,5-4.4
			C12.5,9.7,10.9,8.6,9.7,8z M3.6,3.4h3.1c0.9,0,1.6,0.6,1.6,1.6c0,0.9-0.7,1.7-1.6,1.7H3.6V3.4z M7,13H3.6V9.7h3.2
			c0.9,0,1.9,0.7,1.9,1.6C8.7,12.2,7.9,13,7,13z"/>
		<path fill="#E6E6E6" d="M30.5,16.3l-4.2-6.1c2.1-0.8,3.2-2.6,3.2-4.8c0-2.9-2-5.2-4.9-5.2h-7.8v16.1h3.7v-5.9h1.8l3.9,5.9H30.5z
			 M20.5,3.6h3.8c1,0,1.8,0.8,1.8,1.8c0,1-0.8,1.9-1.8,1.9h-3.8V3.6z"/>
	</g>
</g>
<g>
</g>
<g>
</g>
<g>
</g>
<g>
</g>
<g>
</g>
<g>
</g>
<g>
</g>
<g>
</g>
<g>
</g>
<g>
</g>
<g>
</g>
<g>
</g>
<g>
</g>
<g>
</g>
<g>
</g>
</svg>
