<svg xmlns="http://www.w3.org/2000/svg" width="299.2" height="36.8" viewBox="0 0 299.2 36.8"><g fill="#FFF"><path d="M7.8 9.4C4 9.4 0 12.7 0 18.8c0 5.5 3.4 9.3 8.2 9.3 2.5 0 4.1-.8 5.6-1.7h.1l-.8-1.4H13c-1.5 1.1-3 1.6-4.7 1.6-3.8 0-6.4-3-6.5-7.4h12.7v-.1c.1-.4.1-.9.1-1.3 0-5.3-2.6-8.4-6.8-8.4zm5.1 8.3h-11c.3-3.9 2.8-6.7 5.9-6.7 3.2 0 5 2.4 5.1 6.7zM37.3 9.4c-1.8 0-3.7 1.1-5.9 3.5-.7-2.3-2.3-3.5-4.9-3.5-1.8 0-3.8 1.1-5.5 3.1l-.1-2.7h-1.6v17.8H21V14.3c1.9-2.1 3.6-3.2 5.2-3.2 2.6 0 3.9 1.7 3.9 5.4v11.2h1.8V14.3c2-2.2 3.6-3.2 5.2-3.2 2.6 0 3.8 1.7 3.8 5.4v11.2h1.8V16.3c-.1-4.6-1.8-6.9-5.4-6.9zM56.6 9.4c-1.8 0-3.7.8-6 2.6l-.1-2.2h-1.6v25.7h1.8V26c1.9 1.4 3.6 2.1 5.2 2.1 2.1 0 4.1-.9 5.5-2.5 1.5-1.8 2.4-4.2 2.4-7-.1-5.8-2.7-9.2-7.2-9.2zm5.2 9.1c0 4.7-2.5 8-6 8-.9 0-2.7-.3-5.1-2.2V13.9c2.2-1.9 4-2.8 5.6-2.8 2.5 0 5.5 1.3 5.5 7.4zM74.8 9.4c-2.9 0-5.4 1.4-6.6 2.3l-.1.1.8 1.4.1-.1c1-.8 3.1-2 5.5-2 1.2 0 2.1.3 2.8 1 1.1 1.1 1.3 3 1.3 4.3-8.1.9-11.4 2.9-11.4 6.7 0 3.6 2.7 4.9 5.2 4.9 1.9 0 3.9-.8 6.2-2.7l.2 2.2h1.5V16.3c.1-4.5-1.8-6.9-5.5-6.9zm3.8 8.5v5.8c-2.3 2-4 2.8-5.9 2.8-2.3 0-3.6-1.2-3.6-3.4 0-2.9 2.8-4.4 9.5-5.2zM93.8 25.9c-.6.3-1.5.5-2.2.5-2 0-2.9-1.1-2.9-3.6V11.5h5.1V9.9h-5.1V4.8h-1.6L87 9.9l-2.8.1v1.4h2.7v11.2c0 3.7 1.4 5.4 4.5 5.4.9 0 2.2-.4 2.9-.7h.1l-.5-1.5-.1.1zM105.7 9.4c-2.5 0-4.4 1.4-6 3V1.1h-1.8v26.5h1.8V14.4c2.1-2.1 3.6-3.2 5.6-3.2 2.8 0 3.9 1.6 3.9 5.4v11.2h1.8V16.3c.1-4.6-1.6-6.9-5.3-6.9zM124 21c-.1.4-.3.8-.4 1.3-.4 1.2-.8 2.5-1.2 3.6-.5-1.3-1.1-2.8-1.6-4.1L116.3 10v-.1h-2l7.3 18-.5 1.5c-.7 2.1-2 4.6-4.4 4.6-.6 0-1.2-.2-1.4-.3h-.1l-.4 1.6h.1c.5.2 1.2.4 1.8.4 2.7 0 4.7-2 6-5.9l7-19.9h-1.9L124 21zM140.6 0h1.5v36.8h-1.5zM146.6 8.3h1.3l.3-6.4v-.1h-1.8zM158.6 9.4c-3.8 0-7.8 3.3-7.8 9.4 0 5.5 3.4 9.3 8.2 9.3 2.5 0 4.1-.8 5.6-1.7h.1l-.8-1.4-.1.1c-1.5 1.1-3 1.6-4.7 1.6-3.8 0-6.4-3-6.5-7.4h12.7v-.1c.1-.4.1-.9.1-1.3 0-5.4-2.5-8.5-6.8-8.5zm5.1 8.3h-11c.4-3.9 2.8-6.6 5.9-6.6 3.2-.1 5 2.3 5.1 6.6zM188.1 9.4c-1.8 0-3.7 1.1-5.9 3.5-.7-2.3-2.3-3.5-4.9-3.5-1.8 0-3.8 1.1-5.5 3.1l-.1-2.7H170v17.8h1.8V14.3c1.9-2.1 3.6-3.2 5.2-3.2 2.6 0 3.9 1.7 3.9 5.4v11.2h1.8V14.3c2-2.2 3.6-3.2 5.2-3.2 2.6 0 3.8 1.7 3.8 5.4v11.2h1.8V16.3c0-4.6-1.8-6.9-5.4-6.9zM207.4 9.4c-1.8 0-3.7.8-6 2.6l-.1-2.2h-1.6v25.7h1.8V26c1.9 1.4 3.6 2.1 5.2 2.1 2.1 0 4.1-.9 5.5-2.5 1.5-1.8 2.4-4.2 2.4-7 0-5.8-2.6-9.2-7.2-9.2zm5.2 9.1c0 4.7-2.5 8-6 8-.9 0-2.7-.3-5.1-2.2V13.9c2.2-1.9 4-2.8 5.6-2.8 2.6 0 5.5 1.3 5.5 7.4zM224.7 9.4c-2.8 0-4.6 1-5.9 1.9l-.1.1.8 1.4.1-.1c1.7-1.2 3.2-1.7 4.9-1.7 3.5 0 5.8 2.8 5.9 7.1h-12.7v.1c-.1.4-.1.9-.1 1.3 0 5.3 2.7 8.6 7.2 8.6 4.4 0 7.4-3.8 7.4-9.4 0-5.6-2.9-9.3-7.5-9.3zm5.7 10.2c-.4 4.3-2.4 6.9-5.6 6.9-3.4 0-5.4-2.5-5.4-6.9h11zM235 5h7.7v22.7h1.9V5h7.7V3.3H235zM271.3 13.9h-12.7V3.3h-1.9v24.4h1.9V15.6h12.7v12.1h1.9V3.3h-1.9zM286.2 9.4c-3.8 0-7.8 3.3-7.8 9.4 0 5.5 3.4 9.3 8.2 9.3 2.5 0 4.1-.8 5.6-1.7h.1l-.8-1.4-.1.1c-1.5 1.1-3 1.6-4.7 1.6-3.8 0-6.4-3-6.5-7.4h12.7v-.1c.1-.4.1-.9.1-1.3 0-5.4-2.5-8.5-6.8-8.5zm5.1 8.3h-11c.4-3.9 2.8-6.6 5.9-6.6 3.2-.1 5.1 2.3 5.1 6.6zM281.9 4h8.5v1.5h-8.5zM297.7 0h1.5v36.8h-1.5z"/></g></svg>