<svg xmlns="http://www.w3.org/2000/svg" width="128.5" height="84.383" viewBox="0 0 128.5 84.383"><path fill="#42A5F5" d="M106.923 81.83H81.216V42.467l25.707-37.263z"/><g fill="none" stroke="#D0D0D0" stroke-width="3" stroke-miterlimit="10"><path d="M128.5 82.883H1.5V0"/><path d="M106.923 81.83V5.204c0-1.641-.702-1.842-1.56-.442L82.217 42.467c-.857 1.399-2.539 1.626-3.736.506l-11.195-10.48c-1.196-1.12-2.92-.919-3.825.449L47.746 56.645c-.906 1.367-2.641 1.582-3.854.478l-7.32-6.675a2.772 2.772 0 0 0-4.07.317L9.455 79.503c-1.025 1.279-.523 2.327 1.113 2.327M45.895 57.122v25.761M81.216 42.467v40.416"/></g></svg>