<svg xmlns="http://www.w3.org/2000/svg" width="96.9" height="110.8" viewBox="0 0 96.9 110.8"><path fill="#009BDE" d="M48.5 13.8V56l7.6-40.1z"/><g fill="#CFCFCE"><path d="M81.1 26.6l5.9-5.9-2.8-2.8-6.1 6.1c-7.7-6-17.2-9.7-27.6-10.1V4h7.7V0H38.8v4h7.7v9.9C20.7 15 0 36.3 0 62.3c0 26.7 21.7 48.5 48.5 48.5S96.9 89 96.9 62.3c0-14.1-6.1-26.9-15.8-35.7zm-32.6 80.2C23.9 106.8 4 86.8 4 62.3s19.9-44.5 44.5-44.5C73 17.8 93 37.7 93 62.3s-20 44.5-44.5 44.5z"/><path d="M48.5 53.3c-4.3 0-7.8 3.5-7.8 7.8s3.5 7.8 7.8 7.8 7.8-3.5 7.8-7.8c-.1-4.4-3.6-7.8-7.8-7.8zm0 11.5c-2.1 0-3.8-1.7-3.8-3.8 0-2.1 1.7-3.8 3.8-3.8 2.1 0 3.8 1.7 3.8 3.8-.1 2.1-1.8 3.8-3.8 3.8z"/></g></svg>