<svg xmlns="http://www.w3.org/2000/svg" viewBox="0 0 1359.953 594.563"><title>approach-bg_1</title><path fill="#a5a5a5" d="M1359.953 457.108l-42.18-19.345-43.3-24.4-64.7-39.2-27.3 48-37.3 43.4-46.5 30.3-25.7 30-85.5 39.4-25.3 23.3-60.7 6h458.48V457.108z"/><path d="M1084.2 500.063l-46.3-12.7-74 22.1-42.3-1.1-26.1-26.3-64.2-25-35.7-21.2-66.7 34.5-39.9 31.3-49.7 21.8-27.5 21.6-91.5 28.4-27 16.7-64.9 4.4h713.2v-61l-50.1-21.7-7.3-11.9" fill="#a5a5a5"/><path d="M0 376.263l30.7-28.5 9.8-35.8 62.5-38.2 100 66.2 57.1-3.3 35.3-78.7 86.8-75.1 48.2-63.4 90.1 103.5 53.9 93.7 67.2 65.3 37.2 64.8 123.6 85.1 36.6 50.4 87.7 12.3H0v-218.3" fill="#282829"/><path d="M130.9 316.563l-3.2-6.8 5.2-16.5-29.9-19.8v15.8l-20.4 17-8.6 20.4 29-11.4 38 33.9 42.8 38.4-84.6-25.9-29.6 6.4-17.3 30.1-26.7 27.6-25.6 11.9v70.5l36.3-59.4 28-34 22.4-31 100.8 104.9 35.2-75.2m207.7-294.3l4.3 14.4-10.1 16.5 10.1-6.4 8.4 8.5 1.7 13.6-20.3 11.5-18.1 21 19.2-13.6 23.4-4.8 22.4 42.6-12.8 13.9-5.4 16.5-8.4 20.6-34.6 19.1 4.8 4.6 28.1-4.5 14.5-10.7 13.9-23.2 12.8 3.2 19.6 41.9-5.2 11.4 9.1-5.8 9.1 15.9v18.7l-18.1 23.7-5.5 26.4-16.5 22.3-23.5 13.4-8.4 22.9 16.7-17.6 25.8-4.4-11.2 11.3-5.3 10.7 9.1-10.7 18.6-11.3 10.1-23.4 16-13.2 18.7-8.7-14.6 24.1s-4 25-6.7 29.3-29.3 30.9-29.3 30.9l-52.2 18.8-27.2 26.4-23.5 27.7 28.2 33.1 44.8-37.8 35.7-6.4 18.7-15.4 31.4-30.9 39.4-3.4 20.8-9.9 22.9 23.3 32.5 36.4-27.3 10-19 18.7-37.3 2.7 51.2 2.7 42.6-13.6 12.3 12.4-4.9 16.6 13.3 13.4h231.5l-87.7-12.6-36.6-50.3-123.6-85.1-37.2-64.8-67.2-65.4-53.9-93.7zm-32.8 103.1l-15.5 19.6-45.7 29.4 49.6-28.2 11.7-20.8m-20.8 119.3l-17 15.3-44.5 17.2 51.6-9.4 9.8-23m-11.8-11.3l-18.9 7.8-15.1 11 21.2-9.5 12.9-9.5" fill="#424242"/><path d="M30.7 347.763l26.7 1.8-24.6-9.5-2.1 7.7" fill="#424242"/><path d="M72.6 305.163h235.9a52.7 52.7 0 0 1-31-10 87.7 87.7 0 0 0-80.2-12l-27.6 9.5a51.6 51.6 0 0 0-38.9-.5l-9.2 3.6a134.3 134.3 0 0 1-49 9.4z" fill="#fff"/><path d="M0 510.363l85.6-112.4h10.3l57.6-37.7 43.3-36.5 64.7-58.6 27.3 71.8 37.3 64.8 46.5 45.2 25.7 44.9 85.5 58.9 25.3 34.8 60.7 9H0v-84.2" fill="#282829"/><path d="M113.1 404.263l-13.6-19-6.4-1.7-14.5 23.6 34.5-2.8" fill="#262628"/><path d="M230.5 346.963l-39.9 34.8 59.5-31.5-19.6-3.3m-69.1 78.5l-24.2 19.3-8.2 19.5 10.4-14.5 22-24.3" fill="#424242"/><path d="M261.5 265.163l-11.8 68.8-19.3 13 19.6 3.3-7.4 20.3 28.9 30.5 3.2 35-16.7 17.1-16 25.3-27.4 19.5-20.4 12.2-12.5 15.3 15.9-11.8 21.4-9.9 23.1-11.2 12.8-.4 12.1-10.3 17-13 31 21 8.9 22.8 12.5 30 22.1 14.6 14 25.9 14.3 11.4h183l-56.3-19.2-29.6-24.6-85.5-58.9-25.7-44.9-46.5-45.2-37.3-64.8-27.4-71.8m-63.5 157.4l-47 27.3-20.9 11.6-30.9 32 33.5-29.2 25-14.8 40.3-26.9" fill="#424242"/><path d="M225.739 594.524l75.861-42.461-5.7 22.9-39.4 19.6h-30.9m-126-209.3l-8.2 17.4 30.2-3.7-17-6.6-5-7.1m159.1-103.5l-6.7 13.6-15.1 10.6 15.4-6.8 4.1-3.9" fill="#424242"/><path d="M222.7 329.463h128.9a28.8 28.8 0 0 1-16.9-5.5 47.9 47.9 0 0 0-43.8-6.5l-15 5.2a28.2 28.2 0 0 0-21.2-.2l-5 2a73.3 73.3 0 0 1-26.8 5.1zm60.9-120.9h128.9a28.8 28.8 0 0 1-16.9-5.5 47.9 47.9 0 0 0-43.8-6.5l-15 5.2a28.2 28.2 0 0 0-21.2-.2l-5 2a73.3 73.3 0 0 1-26.8 5.1zm136.7 40h208.3a46.5 46.5 0 0 1-27.3-8.9 77.5 77.5 0 0 0-70.8-10.5l-24.3 8.4a45.5 45.5 0 0 0-34.3-.4l-8.1 3.2a118.6 118.6 0 0 1-43.4 8.2zm848.6-241.1a39.3 39.3 0 0 0-35.9-5.3l-12.3 4.3a23.1 23.1 0 0 0-17.4-.2l-4.1 1.6a60.094 60.094 0 0 1-18.756 4.1H1282.8a23.6 23.6 0 0 1-13.9-4.5zm-91.7 4.5v.1c1.083 0 2.165-.04 3.244-.1z" fill="#fff"/><path d="M401.4 164.363l-46.2 16a86.4 86.4 0 0 0-65.1-.8l-15.4 6.1a225.1 225.1 0 0 1-82.4 15.6h395.4a88.4 88.4 0 0 1-51.9-16.9 147.1 147.1 0 0 0-134.4-20zm958.553-143.509c-19.983-4.188-38.869-2.586-58.753 4.309l-36.1 12.5a67.5 67.5 0 0 0-50.9-.6l-12.1 4.7a175.9 175.9 0 0 1-64.4 12.2h222.253z" fill="#fff"/><path fill="#282829" d="M1359.953 572.717l-33.026-26.054-85.5 2.6-17.6-22.9-60.6 27.8-54.1 6.2-36.5 34.2h287.326v-21.846z"/><path fill="#424242" d="M1202.7 554.263l-47.8 19.3-17.796 20.997h68.8l17.696-34.197 17.6-11.1-17.549-22.834-20.951 27.834zm60.3 6l-5.3 12.3 9.9-7.8 57.428-17.722L1263 560.263z"/><path fill="#424242" d="M1223.6 526.363l.051.066.049-.066h-.1zm103.3 20.1l-1.872.578 1.772-.378.1-.2zm33.053 37.437v-11.183l-33.053 4.446-20.6 17.4h33.1l20.553-3.288V583.9z"/></svg>