<svg xmlns="http://www.w3.org/2000/svg" viewBox="0 0 1359.953 594.563"><title>approach-bg_1</title><polygon points="1359.953 457.108 1317.773 437.763 1274.473 413.363 1209.773 374.163 1182.473 422.163 1145.173 465.563 1098.673 495.863 1072.973 525.863 987.473 565.263 962.173 588.563 901.473 594.563 1359.953 594.563 1359.953 457.108" style="fill:#a5a5a5"/><path d="M1084.2,500.063l-46.3-12.7-74,22.1-42.3-1.1-26.1-26.3-64.2-25-35.7-21.2-66.7,34.5-39.9,31.3-49.7,21.8-27.5,21.6-91.5,28.4-27,16.7-64.9,4.4h713.2v-61l-50.1-21.7-7.3-11.9" style="fill:#a5a5a5"/><path d="M0,376.263l30.7-28.5,9.8-35.8,62.5-38.2,100,66.2,57.1-3.3,35.3-78.7,86.8-75.1,48.2-63.4,90.1,103.5,53.9,93.7,67.2,65.3,37.2,64.8,123.6,85.1,36.6,50.4,87.7,12.3H0v-218.3" style="fill:#282829"/><path d="M130.9,316.563l-3.2-6.8,5.2-16.5-29.9-19.8v15.8l-20.4,17-8.6,20.4,29-11.4,38,33.9,42.8,38.4-84.6-25.9-29.6,6.4-17.3,30.1-26.7,27.6L0,437.663v70.5l36.3-59.4,28-34,22.4-31,100.8,104.9,35.2-75.2m207.7-294.3,4.3,14.4-10.1,16.5,10.1-6.4,8.4,8.5,1.7,13.6-20.3,11.5-18.1,21,19.2-13.6,23.4-4.8,22.4,42.6-12.8,13.9-5.4,16.5-8.4,20.6-34.6,19.1,4.8,4.6,28.1-4.5,14.5-10.7,13.9-23.2,12.8,3.2,19.6,41.9-5.2,11.4,9.1-5.8,9.1,15.9v18.7l-18.1,23.7-5.5,26.4-16.5,22.3-23.5,13.4-8.4,22.9,16.7-17.6,25.8-4.4-11.2,11.3-5.3,10.7,9.1-10.7,18.6-11.3,10.1-23.4,16-13.2,18.7-8.7-14.6,24.1s-4,25-6.7,29.3-29.3,30.9-29.3,30.9l-52.2,18.8-27.2,26.4-23.5,27.7,28.2,33.1,44.8-37.8,35.7-6.4,18.7-15.4,31.4-30.9,39.4-3.4,20.8-9.9,22.9,23.3,32.5,36.4-27.3,10-19,18.7-37.3,2.7,51.2,2.7,42.6-13.6,12.3,12.4-4.9,16.6,13.3,13.4H926.7l-87.7-12.6-36.6-50.3-123.6-85.1-37.2-64.8-67.2-65.4-53.9-93.7Zm-32.8,103.1-15.5,19.6-45.7,29.4,49.6-28.2,11.7-20.8m-20.8,119.3-17,15.3-44.5,17.2,51.6-9.4,9.8-23m-11.8-11.3-18.9,7.8-15.1,11,21.2-9.5,12.9-9.5" style="fill:#424242"/><path d="M30.7,347.763l26.7,1.8-24.6-9.5-2.1,7.7" style="fill:#424242"/><path d="M72.6,305.163H308.5a52.7,52.7,0,0,1-31-10,87.7,87.7,0,0,0-80.2-12l-27.6,9.5a51.6,51.6,0,0,0-38.9-.5l-9.2,3.6A134.3,134.3,0,0,1,72.6,305.163Z" style="fill:#fff"/><path d="M0,510.363l85.6-112.4H95.9l57.6-37.7,43.3-36.5,64.7-58.6,27.3,71.8,37.3,64.8,46.5,45.2,25.7,44.9,85.5,58.9,25.3,34.8,60.7,9H0v-84.2" style="fill:#282829"/><path d="M113.1,404.263l-13.6-19-6.4-1.7-14.5,23.6,34.5-2.8" style="fill:#262628"/><path d="M230.5,346.963l-39.9,34.8,59.5-31.5-19.6-3.3m-69.1,78.5-24.2,19.3-8.2,19.5,10.4-14.5,22-24.3" style="fill:#424242"/><path d="M261.5,265.163l-11.8,68.8-19.3,13,19.6,3.3-7.4,20.3,28.9,30.5,3.2,35-16.7,17.1-16,25.3-27.4,19.5-20.4,12.2-12.5,15.3,15.9-11.8,21.4-9.9,23.1-11.2,12.8-.4,12.1-10.3,17-13,31,21,8.9,22.8,12.5,30,22.1,14.6,14,25.9,14.3,11.4h183l-56.3-19.2-29.6-24.6-85.5-58.9-25.7-44.9-46.5-45.2-37.3-64.8-27.4-71.8M198,422.563l-47,27.3-20.9,11.6-30.9,32,33.5-29.2,25-14.8,40.3-26.9" style="fill:#424242"/><path d="M225.739,594.524,301.6,552.063l-5.7,22.9-39.4,19.6H225.6m-126-209.3-8.2,17.4,30.2-3.7-17-6.6-5-7.1m159.1-103.5-6.7,13.6-15.1,10.6,15.4-6.8,4.1-3.9" style="fill:#424242"/><path d="M222.7,329.463H351.6a28.8,28.8,0,0,1-16.9-5.5,47.9,47.9,0,0,0-43.8-6.5l-15,5.2a28.2,28.2,0,0,0-21.2-.2l-5,2a73.3,73.3,0,0,1-26.8,5.1Zm60.9-120.9H412.5a28.8,28.8,0,0,1-16.9-5.5,47.9,47.9,0,0,0-43.8-6.5l-15,5.2a28.2,28.2,0,0,0-21.2-.2l-5,2a73.3,73.3,0,0,1-26.8,5.1Zm136.7,40H628.6a46.5,46.5,0,0,1-27.3-8.9,77.5,77.5,0,0,0-70.8-10.5l-24.3,8.4a45.5,45.5,0,0,0-34.3-.4l-8.1,3.2a118.6,118.6,0,0,1-43.4,8.2Z" style="fill:#fff"/><path d="M1268.9,7.463a39.3,39.3,0,0,0-35.9-5.3l-12.3,4.3a23.1,23.1,0,0,0-17.4-.2l-4.1,1.6a60.094,60.094,0,0,1-18.756,4.1H1282.8A23.6,23.6,0,0,1,1268.9,7.463Z" style="fill:#fff"/><path d="M1177.2,11.963v.1c1.083,0,2.165-.04,3.244-.1Z" style="fill:#fff"/><path d="M401.4,164.363l-46.2,16a86.4,86.4,0,0,0-65.1-.8l-15.4,6.1a225.1,225.1,0,0,1-82.4,15.6H587.7a88.4,88.4,0,0,1-51.9-16.9A147.1,147.1,0,0,0,401.4,164.363Z" style="fill:#fff"/><path d="M1359.953,20.854c-19.983-4.188-38.869-2.586-58.753,4.309l-36.1,12.5a67.5,67.5,0,0,0-50.9-.6l-12.1,4.7a175.9,175.9,0,0,1-64.4,12.2h222.253Z" style="fill:#fff"/><polygon points="1359.953 572.717 1326.927 546.663 1241.427 549.263 1223.827 526.363 1163.227 554.163 1109.127 560.363 1072.627 594.563 1359.953 594.563 1359.953 572.717" style="fill:#282829"/><polygon points="1202.7 554.263 1154.9 573.563 1137.104 594.56 1205.904 594.56 1223.6 560.363 1241.2 549.263 1223.651 526.429 1202.7 554.263" style="fill:#424242"/><polygon points="1263 560.263 1257.7 572.563 1267.6 564.763 1325.028 547.041 1263 560.263" style="fill:#424242"/><polygon points="1223.6 526.363 1223.651 526.429 1223.7 526.363 1223.6 526.363" style="fill:#424242"/><polygon points="1326.9 546.463 1325.028 547.041 1326.8 546.663 1326.9 546.463" style="fill:#424242"/><polygon points="1359.953 583.9 1359.953 572.717 1326.9 577.163 1306.3 594.563 1339.4 594.563 1359.953 591.275 1359.953 583.9" style="fill:#424242"/></svg>