<?xml version="1.0" encoding="utf-8"?>
<!-- Generator: Adobe Illustrator 16.0.0, SVG Export Plug-In . SVG Version: 6.00 Build 0)  -->
<!DOCTYPE svg PUBLIC "-//W3C//DTD SVG 1.1//EN" "http://www.w3.org/Graphics/SVG/1.1/DTD/svg11.dtd">
<svg version="1.1" id="Layer_1" xmlns="http://www.w3.org/2000/svg" xmlns:xlink="http://www.w3.org/1999/xlink" x="0px" y="0px"
	 width="569.501px" height="553.095px" viewBox="0 0 569.501 553.095" enable-background="new 0 0 569.501 553.095"
	 xml:space="preserve">
<g>
	<g>
		<polygon fill="#FBC02D" points="199.014,136.658 0.397,164.572 0,378.936 125.594,447.26 324.208,419.344 324.606,204.979 		"/>
		<g>
			<polygon fill="#F6BE1A" points="324.606,204.979 324.208,419.344 125.594,447.26 125.991,232.896 			"/>
			<g>
				<polygon fill="#424242" points="259.007,345.749 258.873,357.875 191.68,367.319 191.813,355.19 				"/>
				<g>
					<polygon fill="#424242" points="245.29,294.61 205.397,300.215 225.383,275.963 					"/>
					<polygon fill="#424242" points="235.406,291.471 235.279,335.36 215.281,338.067 215.41,294.184 					"/>
				</g>
			</g>
			<polygon fill="#F9CE1D" points="125.594,447.26 0,378.936 0.397,164.572 125.991,232.896 			"/>
			<polygon fill="#FAD53E" points="125.991,232.896 0.397,164.572 199.014,136.658 324.606,204.979 			"/>
			<g>
				<polygon fill="#F6BE1A" points="71.814,255.523 42.392,239.519 42.485,187.24 71.907,203.244 				"/>
				<polygon fill="#FBC02D" points="71.907,203.244 42.485,187.24 241.402,159.959 270.825,175.967 				"/>
			</g>
		</g>
	</g>
	<g>
		<polygon fill="#FBC02D" points="443.908,242.496 245.29,270.407 244.894,484.773 370.489,553.095 569.104,525.182 
			569.501,310.819 		"/>
		<g>
			<polygon fill="#F6BE1A" points="569.501,310.819 569.104,525.182 370.489,553.095 370.886,338.73 			"/>
			<g>
				<polygon fill="#424242" points="503.901,451.581 503.768,463.713 436.574,473.155 436.708,461.026 				"/>
				<g>
					<polygon fill="#424242" points="490.185,400.446 450.292,406.051 470.278,381.803 					"/>
					<polygon fill="#424242" points="480.302,397.312 480.173,441.199 460.176,443.908 460.304,400.021 					"/>
				</g>
			</g>
			<polygon fill="#F9CE1D" points="370.489,553.095 244.894,484.773 245.29,270.407 370.886,338.73 			"/>
			<polygon fill="#FAD53E" points="370.886,338.73 245.29,270.407 443.908,242.496 569.501,310.819 			"/>
			<g>
				<polygon fill="#F6BE1A" points="316.706,361.358 287.286,345.355 287.379,293.078 316.801,309.083 				"/>
				<polygon fill="#FBC02D" points="316.801,309.083 287.379,293.078 486.296,265.803 515.72,281.806 				"/>
			</g>
		</g>
	</g>
	<g>
		<g>
			<path fill="#2E3D5A" d="M145.993,0c-44.541,0-80.667,36.115-80.667,80.665c0,36.454,24.209,67.229,57.396,77.222l23.259,27.545
				l23.259-27.545c33.207-9.996,57.412-40.768,57.412-77.222C226.652,36.115,190.531,0,145.993,0z"/>
		</g>
		<g id="apps">
			<path fill="#232E47" d="M106.777,60.131h19.605V40.523h-19.605V60.131z M136.187,118.949h19.605V99.347h-19.605V118.949z
				 M106.777,118.949h19.605V99.347h-19.605V118.949z M106.777,89.542h19.605V69.934h-19.605V89.542z M136.187,89.542h19.605V69.934
				h-19.605V89.542z M165.594,40.523v19.607h19.607V40.523H165.594z M136.187,60.131h19.605V40.523h-19.605V60.131z M165.594,89.542
				h19.607V69.934h-19.607V89.542z M165.594,118.949h19.607V99.347h-19.607V118.949z"/>
		</g>
		<g>
			<g>
				<g>
					<path fill="#2196F3" d="M120.023,118.949h-7.249v-31.96c0-6,4.877-10.875,10.874-10.875h15.093
						c1.998,0,3.623-1.628,3.623-3.625V50.812h7.249v21.677c0,5.996-4.876,10.872-10.872,10.872h-15.093
						c-2,0-3.625,1.625-3.625,3.628V118.949z"/>
					<path fill="#2196F3" d="M121.472,120.401h-10.148V86.989c0-6.797,5.527-12.326,12.324-12.326h15.093
						c1.199,0,2.174-0.977,2.174-2.174V49.362h10.148v23.127c0,6.792-5.528,12.321-12.322,12.321h-15.093
						c-1.2,0-2.176,0.977-2.176,2.179V120.401z M114.224,117.5h4.349V86.989c0-2.8,2.276-5.079,5.075-5.079h15.093
						c5.194,0,9.423-4.225,9.423-9.421V52.262h-4.35v20.228c0,2.796-2.276,5.073-5.074,5.073h-15.093
						c-5.198,0-9.424,4.229-9.424,9.427V117.5z"/>
				</g>
			</g>
			<g>
				<g>
					<polygon fill="#039BE5" points="138.9,55.886 145.987,42.658 153.077,55.886 					"/>
					<path fill="#2196F3" d="M155.499,57.335h-19.02l9.508-17.749L155.499,57.335z M141.322,54.435h9.333l-4.667-8.71
						L141.322,54.435z"/>
				</g>
			</g>
		</g>
	</g>
	<g>
		<g>
			<path fill="#2E3D5A" d="M401.552,103.227c-44.541,0-80.666,36.117-80.666,80.666c0,36.455,24.209,67.233,57.396,77.223
				l23.259,27.545l23.259-27.545c33.207-9.996,57.412-40.768,57.412-77.223C482.212,139.344,446.092,103.227,401.552,103.227z"/>
		</g>
		<g id="apps_1_">
			<path fill="#232E47" d="M362.337,163.356h19.605v-19.604h-19.605V163.356z M391.747,222.178h19.604v-19.602h-19.604V222.178z
				 M362.337,222.178h19.605v-19.602h-19.605V222.178z M362.337,192.77h19.605v-19.608h-19.605V192.77z M391.747,192.77h19.604
				v-19.608h-19.604V192.77z M421.155,143.752v19.604h19.606v-19.604H421.155z M391.747,163.356h19.604v-19.604h-19.604V163.356z
				 M421.155,192.77h19.606v-19.608h-19.606V192.77z M421.155,222.178h19.606v-19.602h-19.606V222.178z"/>
		</g>
		<g>
			<g>
				<g>
					<path fill="#2196F3" d="M375.582,222.178h-7.249v-31.961c0-6,4.879-10.875,10.873-10.875h44.89
						c1.999,0,3.624-1.625,3.624-3.626V154.04h7.249v21.676c0,5.997-4.878,10.874-10.873,10.874h-44.89
						c-1.998,0-3.624,1.625-3.624,3.627V222.178z"/>
					<path fill="#2196F3" d="M377.032,223.628h-10.148v-33.411c0-6.799,5.527-12.325,12.322-12.325h44.89
						c1.198,0,2.175-0.977,2.175-2.176V152.59h10.148v23.126c0,6.794-5.528,12.324-12.323,12.324h-44.89
						c-1.199,0-2.174,0.976-2.174,2.177V223.628z M369.784,220.729h4.348v-30.512c0-2.801,2.275-5.078,5.074-5.078h44.89
						c5.196,0,9.423-4.228,9.423-9.423v-20.227h-4.348v20.227c0,2.798-2.277,5.072-5.075,5.072h-44.89
						c-5.196,0-9.422,4.229-9.422,9.429V220.729z"/>
				</g>
			</g>
			<g>
				<g>
					<polygon fill="#039BE5" points="424.255,159.113 431.345,145.885 438.433,159.113 					"/>
					<path fill="#2196F3" d="M440.854,160.562h-19.02l9.51-17.747L440.854,160.562z M426.677,157.664h9.333l-4.665-8.709
						L426.677,157.664z"/>
				</g>
			</g>
		</g>
	</g>
</g>
<g>
</g>
<g>
</g>
<g>
</g>
<g>
</g>
<g>
</g>
<g>
</g>
<g>
</g>
<g>
</g>
<g>
</g>
<g>
</g>
<g>
</g>
<g>
</g>
<g>
</g>
<g>
</g>
<g>
</g>
</svg>
