<?xml version="1.0" encoding="utf-8"?>
<!-- Generator: Adobe Illustrator 16.0.0, SVG Export Plug-In . SVG Version: 6.00 Build 0)  -->
<!DOCTYPE svg PUBLIC "-//W3C//DTD SVG 1.1//EN" "http://www.w3.org/Graphics/SVG/1.1/DTD/svg11.dtd">
<svg version="1.1" id="Layer_1" xmlns="http://www.w3.org/2000/svg" xmlns:xlink="http://www.w3.org/1999/xlink" x="0px" y="0px"
	 width="974.764px" height="701.083px" viewBox="0 0 974.764 701.083" enable-background="new 0 0 974.764 701.083"
	 xml:space="preserve">
<g>
	<g opacity="0.97">
		<g>
			<g opacity="0.15">
				<g>
					<g>
						<path fill="#78909C" d="M550.623,247.801c-1.852,0-3.631-1.032-4.497-2.808L450.959,49.975
							c-2.386-4.981-5.195-13.083-6.41-18.476l-6.814-30.366c-1.026-4.584-3.616-12.057-5.655-16.319l-44.124-92.167
							c-1.192-2.491-0.14-5.477,2.351-6.669c2.492-1.193,5.477-0.14,6.669,2.351L441.1-19.503
							c2.385,4.984,5.193,13.088,6.394,18.449l6.812,30.36c1.039,4.611,3.629,12.085,5.656,16.316l95.15,194.985
							c1.211,2.482,0.182,5.475-2.301,6.687C552.106,247.638,551.358,247.801,550.623,247.801z"/>
					</g>
					<g>
						<path fill="#78909C" d="M570.66,238.206c-1.852,0-3.631-1.032-4.497-2.808L471.001,40.381
							c-2.054-4.289-6.252-10.991-9.183-14.668L436.676-5.88c-1.719-2.161-1.361-5.306,0.799-7.026
							c2.161-1.719,5.307-1.361,7.026,0.799l25.139,31.59c3.427,4.3,7.98,11.569,10.364,16.545l95.145,194.983
							c1.211,2.482,0.182,5.476-2.301,6.687C572.143,238.042,571.395,238.206,570.66,238.206z"/>
					</g>
				</g>
				<g>
					<g>
						<path fill="#78909C" d="M914.272,983.797c-1.851,0-3.629-1.031-4.496-2.807L732.182,617.52
							c-2.4-5.014-5.209-13.116-6.411-18.484l-6.811-30.361c-1.04-4.608-3.631-12.084-5.657-16.317l-95.15-194.983
							c-1.211-2.482-0.18-5.476,2.301-6.687c2.484-1.209,5.477-0.181,6.688,2.301l95.166,195.017
							c2.385,4.984,5.193,13.085,6.41,18.476l6.812,30.367c1.028,4.59,3.618,12.062,5.655,16.318L918.76,976.601
							c1.213,2.481,0.184,5.476-2.297,6.687C915.756,983.633,915.008,983.797,914.272,983.797z"/>
					</g>
					<g>
						<path fill="#78909C" d="M732.681,611.974c-1.472,0-2.929-0.646-3.915-1.886l-25.143-31.59
							c-3.432-4.311-7.983-11.579-10.362-16.546l-95.146-194.984c-1.211-2.482-0.181-5.476,2.301-6.687
							c2.483-1.209,5.476-0.18,6.687,2.301L702.264,557.6c2.05,4.28,6.248,10.983,9.184,14.67l25.143,31.59
							c1.719,2.161,1.361,5.307-0.799,7.026C734.872,611.618,733.772,611.974,732.681,611.974z"/>
					</g>
				</g>
				<g>
					<path fill="#78909C" d="M583.862,368.94c-39.107,0-70.924-31.815-70.924-70.921c0-39.107,31.816-70.922,70.924-70.922
						s70.923,31.815,70.923,70.922C654.785,337.125,622.969,368.94,583.862,368.94z M583.862,240.096
						c-31.939,0-57.924,25.984-57.924,57.922c0,31.938,25.984,57.921,57.924,57.921c31.938,0,57.923-25.983,57.923-57.921
						C641.785,266.08,615.8,240.096,583.862,240.096z"/>
				</g>
				<g>
					<path fill="#78909C" d="M524.846,277.676c-0.75,0-1.514-0.155-2.242-0.481L43.21,62.772c-2.773-1.24-4.015-4.493-2.775-7.266
						c1.239-2.773,4.492-4.016,7.266-2.775l479.393,214.423c2.773,1.24,4.016,4.493,2.775,7.266
						C528.956,276.464,526.949,277.676,524.846,277.676z"/>
				</g>
				<g>
					<path fill="#78909C" d="M1105.964,536.838c-0.751,0-1.513-0.154-2.243-0.48L640.104,328.99
						c-2.773-1.24-4.016-4.493-2.775-7.266c1.241-2.773,4.494-4.016,7.267-2.775l463.618,207.368
						c2.772,1.24,4.015,4.492,2.774,7.266C1110.074,535.625,1108.067,536.838,1105.964,536.838z"/>
				</g>
				<g>
					<path fill="#78909C" d="M619.363,249.768c-1.155,0-2.319-0.362-3.312-1.112c-2.424-1.831-2.904-5.28-1.072-7.704
						l261.818-346.554c1.831-2.423,5.279-2.904,7.704-1.073c2.424,1.831,2.903,5.28,1.073,7.704l-261.82,346.554
						C622.674,249.014,621.028,249.768,619.363,249.768z"/>
				</g>
				<g>
					<path fill="#78909C" d="M113.359,953.154c-1.121,0-2.252-0.342-3.229-1.051c-2.458-1.785-3.002-5.225-1.217-7.683
						l433.612-596.833c1.785-2.457,5.225-3.001,7.683-1.217c2.458,1.786,3.002,5.225,1.217,7.683L117.813,950.887
						C116.737,952.367,115.06,953.154,113.359,953.154z"/>
				</g>
				<g>
					<path fill="#78909C" d="M455.687,951.154c-1.933,0-3.5-1.567-3.5-3.5V56.88c0-1.933,1.567-3.5,3.5-3.5s3.5,1.567,3.5,3.5
						v890.774C459.187,949.587,457.62,951.154,455.687,951.154z"/>
				</g>
				<g>
					<path fill="#78909C" d="M583.862,951.154c-1.934,0-3.5-1.567-3.5-3.5V362.44c0-1.933,1.566-3.5,3.5-3.5
						c1.933,0,3.5,1.567,3.5,3.5v585.214C587.362,949.587,585.794,951.154,583.862,951.154z"/>
				</g>
				<g>
					<path fill="#78909C" d="M583.862,237.096c-1.934,0-3.5-1.567-3.5-3.5v-342.992c0-1.933,1.566-3.5,3.5-3.5
						c1.933,0,3.5,1.567,3.5,3.5v342.992C587.362,235.529,585.794,237.096,583.862,237.096z"/>
				</g>
				<g>
					<path fill="#78909C" d="M1338.484,301.519H648.285c-1.933,0-3.5-1.567-3.5-3.5s1.567-3.5,3.5-3.5h690.199
						c1.933,0,3.5,1.567,3.5,3.5S1340.417,301.519,1338.484,301.519z"/>
				</g>
				<g>
					<path fill="#78909C" d="M729.709,951.154c-1.933,0-3.5-1.567-3.5-3.5V-102.287c0-1.933,1.567-3.5,3.5-3.5
						c1.934,0,3.5,1.567,3.5,3.5V947.654C733.209,949.587,731.643,951.154,729.709,951.154z"/>
				</g>
				<g>
					<path fill="#78909C" d="M983.911,951.154c-1.934,0-3.5-1.567-3.5-3.5V-102.287c0-1.933,1.566-3.5,3.5-3.5s3.5,1.567,3.5,3.5
						V947.654C987.411,949.587,985.844,951.154,983.911,951.154z"/>
				</g>
				<g>
					<path fill="#78909C" d="M1307.757,951.154c-1.933,0-3.5-1.567-3.5-3.5V-102.287c0-1.933,1.567-3.5,3.5-3.5s3.5,1.567,3.5,3.5
						V947.654C1311.257,949.587,1309.69,951.154,1307.757,951.154z"/>
				</g>
				<g>
					<path fill="#78909C" d="M1145.833,954.154c-3.59,0-6.5-2.91-6.5-6.5V-102.287c0-3.59,2.91-6.5,6.5-6.5s6.5,2.91,6.5,6.5
						V947.654C1152.333,951.244,1149.422,954.154,1145.833,954.154z"/>
				</g>
				<g>
					<path fill="#78909C" d="M1048.334,552.242H4.037c-1.933,0-3.5-1.567-3.5-3.5c0-1.934,1.567-3.5,3.5-3.5h1044.297
						c1.933,0,3.5,1.566,3.5,3.5C1051.834,550.675,1050.267,552.242,1048.334,552.242z"/>
				</g>
				<g>
					<path fill="#78909C" d="M330.169,301.519c-0.927,0-1.816-0.368-2.472-1.022c-0.658-0.657-1.028-1.548-1.028-2.478v-400.306
						c0-1.933,1.567-3.5,3.5-3.5s3.5,1.567,3.5,3.5v396.805h185.769c1.934,0,3.5,1.567,3.5,3.5s-1.566,3.5-3.5,3.5l-189.262,0
						C330.174,301.519,330.171,301.519,330.169,301.519z"/>
				</g>
				<g>
					<path fill="#78909C" d="M149.923,258.5H64.408c-1.933,0-3.5-1.567-3.5-3.5s1.567-3.5,3.5-3.5h82.016v-353.787
						c0-1.933,1.567-3.5,3.5-3.5s3.5,1.567,3.5,3.5V255C153.423,256.933,151.856,258.5,149.923,258.5z"/>
				</g>
				<g>
					<path fill="#78909C" d="M782.672,712.961c-1.337,0-2.613-0.77-3.195-2.068c-0.791-1.764-0.004-3.834,1.76-4.625l323.298-145.05
						c1.763-0.79,3.835-0.003,4.626,1.761s0.003,3.834-1.761,4.626l-323.298,145.05
						C783.637,712.862,783.151,712.961,782.672,712.961z"/>
				</g>
				<g>
					<path fill="#78909C" d="M392.466,443.949c-1.933,0-3.5-1.566-3.5-3.5V298.019c0-1.933,1.567-3.5,3.5-3.5s3.5,1.567,3.5,3.5
						v142.431C395.966,442.383,394.399,443.949,392.466,443.949z"/>
				</g>
				<g>
					<path fill="#78909C" d="M330.169,951.154c-1.933,0-3.5-1.567-3.5-3.5V440.443c0-0.943,0.381-1.846,1.056-2.505
						s1.574-1.017,2.53-0.994l0.239,0.006l127.592-0.001c1.933,0,3.5,1.566,3.5,3.5s-1.567,3.5-3.5,3.5H333.669v503.705
						C333.669,949.587,332.102,951.154,330.169,951.154z"/>
				</g>
				<g>
					<path fill="#78909C" d="M296.418,255.669H190.483c-1.933,0-3.5-1.567-3.5-3.5V146.729c0-1.933,1.567-3.5,3.5-3.5
						s3.5,1.567,3.5,3.5v101.941h102.436c1.933,0,3.5,1.567,3.5,3.5S298.352,255.669,296.418,255.669z"/>
				</g>
				<g>
					<path fill="#78909C" d="M149.923,951.154c-1.933,0-3.5-1.567-3.5-3.5V485.881c0-1.933,1.567-3.5,3.5-3.5h180.246
						c1.933,0,3.5,1.567,3.5,3.5c0,1.934-1.567,3.5-3.5,3.5H153.423v458.273C153.423,949.587,151.856,951.154,149.923,951.154z"/>
				</g>
				<g>
					<path fill="#78909C" d="M1338.484-5.494H76.796c-1.933,0-3.5-1.567-3.5-3.5s1.567-3.5,3.5-3.5h1261.688
						c1.933,0,3.5,1.567,3.5,3.5S1340.417-5.494,1338.484-5.494z"/>
				</g>
				<g>
					<path fill="#78909C" d="M983.915,514.131c-0.16,0-0.323-0.012-0.487-0.035l-177.592-24.754c-1.914-0.268-3.25-2.035-2.983-3.95
						s2.037-3.249,3.95-2.983l177.592,24.756c1.914,0.266,3.25,2.035,2.983,3.949C987.133,512.863,985.633,514.131,983.915,514.131z
						"/>
				</g>
				<g>
					<path fill="#78909C" d="M845.5,684.774c-1.271,0-2.498-0.694-3.117-1.903l-30.475-59.405c-0.254-0.495-0.386-1.042-0.386-1.598
						v-73.126c0-1.934,1.567-3.5,3.5-3.5s3.5,1.566,3.5,3.5v72.281l30.089,58.652c0.882,1.721,0.203,3.83-1.518,4.712
						C846.583,684.65,846.038,684.773,845.5,684.774z"/>
				</g>
				<g>
					<path fill="#78909C" d="M729.709,632.334H583.862c-1.934,0-3.5-1.567-3.5-3.5c0-1.934,1.566-3.5,3.5-3.5h145.848
						c1.934,0,3.5,1.566,3.5,3.5C733.209,630.767,731.643,632.334,729.709,632.334z"/>
				</g>
				<g>
					<path fill="#78909C" d="M583.862,480.154H458.085c-1.933,0-3.5-1.566-3.5-3.5s1.567-3.5,3.5-3.5h125.776
						c1.933,0,3.5,1.566,3.5,3.5S585.794,480.154,583.862,480.154z"/>
				</g>
				<g>
					<path fill="#78909C" d="M1338.484,148.237H149.923c-1.933,0-3.5-1.567-3.5-3.5s1.567-3.5,3.5-3.5h1188.561
						c1.933,0,3.5,1.567,3.5,3.5S1340.417,148.237,1338.484,148.237z"/>
				</g>
				<g>
					<path fill="#78909C" d="M1338.484,65.601H583.862c-1.934,0-3.5-1.567-3.5-3.5s1.566-3.5,3.5-3.5h754.622
						c1.933,0,3.5,1.567,3.5,3.5S1340.417,65.601,1338.484,65.601z"/>
				</g>
				<g>
					<path fill="#78909C" d="M251.777,760.637H-96.261c-1.933,0-3.5-1.566-3.5-3.5c0-1.933,1.567-3.5,3.5-3.5h347.057l77.554-47.166
						c0.548-0.334,1.177-0.51,1.819-0.51h1008.315c1.933,0,3.5,1.566,3.5,3.5c0,1.933-1.567,3.5-3.5,3.5H331.15l-77.554,47.166
						C253.047,760.461,252.418,760.637,251.777,760.637z"/>
				</g>
				<g>
					<path fill="#78909C" d="M583.862,815.148H458.085c-1.933,0-3.5-1.566-3.5-3.5s1.567-3.5,3.5-3.5h125.776
						c1.933,0,3.5,1.566,3.5,3.5S585.794,815.148,583.862,815.148z"/>
				</g>
				<g>
					<path fill="#78909C" d="M732.678,841.265H585.397c-1.934,0-3.5-1.567-3.5-3.5s1.566-3.5,3.5-3.5h147.281
						c1.933,0,3.5,1.567,3.5,3.5S734.611,841.265,732.678,841.265z"/>
				</g>
				<g>
					<path fill="#78909C" d="M524.849,921.359c-1.933,0-3.5-1.567-3.5-3.5V811.648c0-1.934,1.567-3.5,3.5-3.5s3.5,1.566,3.5,3.5
						v106.211C528.349,919.792,526.782,921.359,524.849,921.359z"/>
				</g>
				<g>
					<path fill="#78909C" d="M1338.484,921.359H45.456c-1.933,0-3.5-1.567-3.5-3.5c0-1.934,1.567-3.5,3.5-3.5h1293.028
						c1.933,0,3.5,1.566,3.5,3.5C1341.984,919.792,1340.417,921.359,1338.484,921.359z"/>
				</g>
				<g>
					<path fill="#78909C" d="M983.911,225.844H729.709c-1.933,0-3.5-1.567-3.5-3.5s1.567-3.5,3.5-3.5h254.201
						c1.934,0,3.5,1.567,3.5,3.5S985.844,225.844,983.911,225.844z"/>
				</g>
				<g>
					<path fill="#78909C" d="M944.318,192.611H729.709c-1.933,0-3.5-1.567-3.5-3.5s1.567-3.5,3.5-3.5h211.108v-40.874
						c0-1.933,1.567-3.5,3.5-3.5s3.5,1.567,3.5,3.5v44.374C947.818,191.044,946.25,192.611,944.318,192.611z"/>
				</g>
				<g>
					<path fill="#78909C" d="M330.169,92.591h-58.37c-1.933,0-3.5-1.567-3.5-3.5V43.158l-44.637-15.175
						c-1.83-0.623-2.81-2.61-2.188-4.44c0.623-1.83,2.612-2.809,4.44-2.188l47.011,15.982c1.419,0.482,2.374,1.815,2.374,3.314
						v44.94h54.87c1.933,0,3.5,1.567,3.5,3.5S332.102,92.591,330.169,92.591z"/>
				</g>
				<g>
					<path fill="#78909C" d="M149.922,107.977c-0.824,0-1.651-0.289-2.317-0.878c-1.448-1.281-1.584-3.493-0.304-4.94L247.31-10.94
						l43.96-92.844c0.827-1.747,2.916-2.492,4.661-1.666c1.747,0.828,2.493,2.914,1.666,4.661L253.423-7.496
						c-0.141,0.298-0.323,0.574-0.541,0.821l-100.337,113.47C151.854,107.577,150.89,107.977,149.922,107.977z"/>
				</g>
				<g>
					<path fill="#78909C" d="M294.43,701.924c-0.709,0-1.424-0.215-2.043-0.661l-84.398-60.827h-58.064c-1.933,0-3.5-1.566-3.5-3.5
						s1.567-3.5,3.5-3.5h59.194c0.734,0,1.451,0.23,2.046,0.66l85.315,61.488c1.568,1.131,1.923,3.317,0.793,4.886
						C296.588,701.419,295.517,701.924,294.43,701.924z"/>
				</g>
				<g>
					<path fill="#78909C" d="M209.114,640.436c-0.609,0-1.226-0.158-1.788-0.492c-1.661-0.99-2.205-3.139-1.216-4.799l13.059-21.928
						c0.631-1.059,1.774-1.709,3.007-1.709h42.64v-19.237c0-1.933,1.567-3.5,3.5-3.5s3.5,1.567,3.5,3.5v22.737
						c0,1.934-1.567,3.5-3.5,3.5h-44.151l-12.041,20.219C211.47,639.826,210.307,640.436,209.114,640.436z"/>
				</g>
				<g>
					<path fill="#78909C" d="M251.775,671.181c-0.792,0-1.588-0.267-2.243-0.814c-1.483-1.239-1.681-3.447-0.441-4.931
						l24.336-29.113l-8.34-19.965c-0.745-1.783,0.097-3.834,1.88-4.578c1.783-0.745,3.833,0.096,4.579,1.88l9.16,21.927
						c0.504,1.206,0.294,2.592-0.544,3.594l-25.7,30.746C253.77,670.754,252.776,671.181,251.775,671.181z"/>
				</g>
				<g>
					<path fill="#78909C" d="M1145.833,815.148H832.598c-1.934,0-3.5-1.566-3.5-3.5s1.566-3.5,3.5-3.5h313.234
						c1.934,0,3.5,1.566,3.5,3.5S1147.766,815.148,1145.833,815.148z"/>
				</g>
				<g>
					<path fill="#78909C" d="M1084.895,525.413c-1.933,0-3.5-1.567-3.5-3.5v-65.282l-34.09-21.95h-63.395
						c-1.934,0-3.5-1.567-3.5-3.5s1.566-3.5,3.5-3.5h64.424c0.672,0,1.329,0.193,1.895,0.557l36.561,23.541
						c1.002,0.645,1.605,1.753,1.605,2.943v67.19C1088.395,523.846,1086.829,525.413,1084.895,525.413z"/>
				</g>
				<g>
					<path fill="#78909C" d="M1031.999,501.754c-0.461,0-0.928-0.092-1.379-0.285c-1.775-0.762-2.599-2.818-1.837-4.596
						l26.068-60.803c0.762-1.777,2.818-2.598,4.597-1.837c1.775,0.762,2.599,2.82,1.837,4.596l-26.068,60.803
						C1034.647,500.959,1033.356,501.754,1031.999,501.754z"/>
				</g>
				<g>
					<path fill="#78909C" d="M1307.757,400.766H983.911c-1.934,0-3.5-1.567-3.5-3.5s1.566-3.5,3.5-3.5h323.847
						c1.933,0,3.5,1.567,3.5,3.5S1309.69,400.766,1307.757,400.766z"/>
				</g>
			</g>
		</g>
	</g>
	<g>
		<g>
			<path opacity="0.6" fill="#78909C" d="M428.547,197.792c-7.228,0-46.619-0.227-43.44,12.696
				c1.214,4.936,12.423,8.808,16.647,9.268l8.954,3.832l8.951-3.832c12.779-1.391,35.308-5.67,35.308-10.742
				C454.967,202.816,445.691,197.792,428.547,197.792z"/>
			<g>
				<path fill="#34B2FF" d="M408.924,95.681c-30.723,0-55.642,24.912-55.642,55.64c0,25.147,16.699,46.374,39.591,53.265l16.043,19
					l16.043-19c22.905-6.895,39.601-28.118,39.601-53.265C464.562,120.592,439.647,95.681,408.924,95.681z"/>
			</g>
		</g>
		<g>
			<path fill-rule="evenodd" clip-rule="evenodd" fill="#2E3D5A" d="M437.6,148.071l-17.178-0.157l0.076-8.495l11.001,0.101
				L437.6,148.071L437.6,148.071z M427.644,158.854c-0.81,0.796-1.318,1.9-1.328,3.127c-0.013,1.224,0.476,2.338,1.271,3.147
				c0.796,0.813,1.9,1.319,3.125,1.33c1.228,0.01,2.341-0.476,3.15-1.271c0.811-0.796,1.318-1.901,1.329-3.127
				c0.01-1.224-0.477-2.339-1.27-3.15c-0.796-0.809-1.903-1.317-3.128-1.327C429.57,157.575,428.454,158.06,427.644,158.854
				L427.644,158.854z M442.642,164.208l2.473,0.022l0.076-8.438l-2.47-0.022l0.077-8.402l-8.896-12.472l-18.01-0.163l-0.267,29.227
				l6.264,0.056c0.378,1.678,1.218,3.183,2.383,4.369c1.63,1.659,3.89,2.695,6.396,2.718c2.51,0.024,4.79-0.972,6.449-2.6
				c1.187-1.166,2.054-2.655,2.46-4.323l1.174,0.009L442.642,164.208z"/>
			<path fill-rule="evenodd" clip-rule="evenodd" fill="#2E3D5A" d="M386.101,158.474c-0.809,0.798-1.314,1.902-1.326,3.127
				c-0.009,1.226,0.475,2.34,1.271,3.15c0.796,0.812,1.898,1.317,3.126,1.328c1.225,0.011,2.339-0.476,3.148-1.271
				c0.81-0.796,1.317-1.899,1.327-3.125c0.012-1.226-0.475-2.34-1.269-3.151c-0.795-0.808-1.9-1.314-3.127-1.325
				C388.025,157.194,386.914,157.682,386.101,158.474L386.101,158.474z M412.993,163.938l-14.958-0.138
				c-0.407,1.67-1.275,3.158-2.461,4.324c-1.66,1.628-3.938,2.623-6.446,2.6c-2.509-0.024-4.77-1.06-6.399-2.718
				c-1.166-1.187-2.003-2.69-2.38-4.367l-2.876-0.027v-0.049l-2.334-0.021l0.066-7.313l2.336,0.021l0.223-24.458l35.521,0.325
				L412.993,163.938z"/>
		</g>
	</g>
	<g>
		<g>
			<path opacity="0.6" fill="#78909C" d="M750.249,524.709c-7.228,0-46.619-0.227-43.44,12.696
				c1.214,4.937,12.423,8.808,16.647,9.269l8.955,3.83l8.95-3.83c12.78-1.393,35.308-5.672,35.308-10.743
				C776.668,529.734,767.392,524.709,750.249,524.709z"/>
			<g>
				<path fill="#34B2FF" d="M730.625,422.599c-30.723,0-55.641,24.911-55.641,55.64c0,25.147,16.698,46.375,39.59,53.266l16.043,19
					l16.044-19c22.905-6.895,39.601-28.118,39.601-53.266C786.262,447.51,761.348,422.599,730.625,422.599z"/>
			</g>
		</g>
		<g>
			<path fill-rule="evenodd" clip-rule="evenodd" fill="#2E3D5A" d="M759.301,474.988l-17.178-0.156l0.076-8.494l11.001,0.101
				L759.301,474.988L759.301,474.988z M749.345,485.772c-0.81,0.796-1.317,1.901-1.328,3.128c-0.013,1.224,0.476,2.338,1.271,3.147
				c0.796,0.812,1.899,1.317,3.124,1.329c1.229,0.011,2.342-0.475,3.15-1.271c0.812-0.796,1.318-1.9,1.329-3.127
				c0.011-1.224-0.477-2.339-1.271-3.149c-0.795-0.811-1.902-1.317-3.127-1.328C751.271,484.493,750.155,484.978,749.345,485.772
				L749.345,485.772z M764.343,491.126l2.474,0.022l0.076-8.438l-2.471-0.022l0.077-8.401l-8.896-12.472l-18.01-0.163l-0.268,29.227
				l6.264,0.057c0.379,1.678,1.219,3.182,2.383,4.368c1.631,1.659,3.891,2.694,6.396,2.718c2.51,0.023,4.791-0.973,6.449-2.601
				c1.188-1.165,2.055-2.654,2.46-4.323l1.174,0.01L764.343,491.126z"/>
			<path fill-rule="evenodd" clip-rule="evenodd" fill="#2E3D5A" d="M707.801,485.393c-0.809,0.797-1.314,1.9-1.326,3.126
				c-0.009,1.227,0.476,2.341,1.271,3.15c0.796,0.812,1.898,1.317,3.126,1.328c1.225,0.011,2.339-0.476,3.148-1.271
				c0.81-0.797,1.317-1.899,1.327-3.126c0.012-1.227-0.475-2.341-1.269-3.151c-0.796-0.808-1.9-1.314-3.127-1.326
				C709.727,484.111,708.615,484.6,707.801,485.393L707.801,485.393z M734.694,490.855l-14.957-0.138
				c-0.408,1.669-1.275,3.158-2.461,4.323c-1.66,1.629-3.938,2.624-6.447,2.601c-2.508-0.023-4.77-1.06-6.398-2.718
				c-1.166-1.186-2.003-2.689-2.38-4.367l-2.876-0.026v-0.048l-2.335-0.022l0.066-7.313l2.336,0.021l0.223-24.459l35.521,0.325
				L734.694,490.855z"/>
		</g>
	</g>
</g>
</svg>
