<?xml version="1.0" encoding="utf-8"?>
<!-- Generator: Adobe Illustrator 16.0.0, SVG Export Plug-In . SVG Version: 6.00 Build 0)  -->
<!DOCTYPE svg PUBLIC "-//W3C//DTD SVG 1.1//EN" "http://www.w3.org/Graphics/SVG/1.1/DTD/svg11.dtd">
<svg version="1.1" id="Layer_1" xmlns="http://www.w3.org/2000/svg" xmlns:xlink="http://www.w3.org/1999/xlink" x="0px" y="0px"
	 width="980px" height="356px" viewBox="0 0 980 356" enable-background="new 0 0 980 356" xml:space="preserve">
<g>
	<g>
		<rect x="656.9" y="254.9" fill="#34B2FF" width="301.1" height="69.7"/>
		<g>
			<g>
				<path fill="#FFFFFF" d="M667.6,299.6h2.4c0.4,0,0.8,0,1.1,0.1c0.3,0.1,0.6,0.2,0.9,0.4c0.2,0.2,0.4,0.4,0.6,0.7
					c0.1,0.3,0.2,0.6,0.2,1c0,0.4-0.1,0.7-0.2,1s-0.3,0.5-0.6,0.7c-0.2,0.2-0.5,0.3-0.9,0.4c-0.3,0.1-0.7,0.1-1.1,0.1h-1.1v2.6h-1.3
					L667.6,299.6L667.6,299.6z M669.9,303.1c1,0,1.6-0.4,1.6-1.3c0-0.4-0.1-0.8-0.4-0.9c-0.3-0.2-0.6-0.3-1.2-0.3h-1v2.5H669.9z"/>
				<path fill="#FFFFFF" d="M677.3,306.9c-0.5,0-0.9-0.1-1.3-0.3c-0.4-0.2-0.7-0.4-1-0.7c-0.3-0.3-0.5-0.7-0.6-1.2
					c-0.2-0.5-0.2-1-0.2-1.5c0-0.6,0.1-1.1,0.2-1.5c0.2-0.5,0.4-0.8,0.6-1.1c0.3-0.3,0.6-0.5,1-0.7s0.8-0.2,1.3-0.2s0.9,0.1,1.3,0.2
					s0.7,0.4,1,0.7c0.3,0.3,0.5,0.7,0.6,1.1c0.2,0.5,0.2,1,0.2,1.5c0,0.6-0.1,1.1-0.2,1.5c-0.2,0.5-0.4,0.8-0.6,1.2
					c-0.3,0.3-0.6,0.6-1,0.7C678.2,306.8,677.8,306.9,677.3,306.9z M677.3,305.8c0.3,0,0.5-0.1,0.8-0.2c0.2-0.1,0.4-0.3,0.6-0.5
					c0.2-0.2,0.3-0.5,0.4-0.8c0.1-0.3,0.1-0.7,0.1-1.1c0-0.8-0.2-1.4-0.5-1.9s-0.8-0.7-1.3-0.7c-0.6,0-1,0.2-1.3,0.7
					s-0.5,1.1-0.5,1.9c0,0.4,0,0.8,0.1,1.1c0.1,0.3,0.2,0.6,0.4,0.8c0.2,0.2,0.3,0.4,0.6,0.5C676.8,305.7,677,305.8,677.3,305.8z"/>
				<path fill="#FFFFFF" d="M685.2,306.9c-0.5,0-0.9-0.1-1.3-0.3c-0.4-0.2-0.7-0.4-1-0.7c-0.3-0.3-0.5-0.7-0.6-1.2
					c-0.1-0.5-0.2-1-0.2-1.5c0-0.6,0.1-1.1,0.2-1.5c0.2-0.5,0.4-0.8,0.6-1.1c0.3-0.3,0.6-0.5,1-0.7s0.8-0.2,1.3-0.2s0.9,0.1,1.3,0.2
					c0.4,0.2,0.7,0.4,1,0.7c0.3,0.3,0.5,0.7,0.6,1.1c0.2,0.5,0.2,1,0.2,1.5c0,0.6-0.1,1.1-0.2,1.5c-0.2,0.5-0.4,0.8-0.6,1.2
					c-0.3,0.3-0.6,0.6-1,0.7C686,306.8,685.6,306.9,685.2,306.9z M685.2,305.8c0.3,0,0.5-0.1,0.8-0.2c0.2-0.1,0.4-0.3,0.6-0.5
					c0.2-0.2,0.3-0.5,0.4-0.8c0.1-0.3,0.1-0.7,0.1-1.1c0-0.8-0.2-1.4-0.5-1.9s-0.8-0.7-1.3-0.7c-0.6,0-1,0.2-1.3,0.7
					c-0.3,0.5-0.5,1.1-0.5,1.9c0,0.4,0,0.8,0.1,1.1c0.1,0.3,0.2,0.6,0.4,0.8c0.2,0.2,0.4,0.4,0.6,0.5S684.9,305.8,685.2,305.8z"/>
				<path fill="#FFFFFF" d="M690.3,299.6h1.3v6h2.9v1.1h-4.2V299.6L690.3,299.6z"/>
				<path fill="#FFFFFF" d="M699.2,305c0.3,0.2,0.5,0.4,0.9,0.6c0.3,0.1,0.6,0.2,1,0.2c0.4,0,0.7-0.1,0.9-0.2s0.3-0.4,0.3-0.7
					c0-0.1,0-0.3-0.1-0.4c-0.1-0.1-0.1-0.2-0.2-0.3c-0.1-0.1-0.2-0.1-0.3-0.2c-0.1-0.1-0.3-0.1-0.4-0.2l-1-0.4
					c-0.2-0.1-0.3-0.2-0.5-0.3c-0.2-0.1-0.3-0.2-0.5-0.4c-0.1-0.2-0.2-0.3-0.3-0.5c-0.1-0.2-0.1-0.4-0.1-0.7c0-0.3,0.1-0.5,0.2-0.8
					s0.3-0.5,0.5-0.6s0.5-0.3,0.8-0.4c0.3-0.1,0.6-0.2,1-0.2c0.4,0,0.8,0.1,1.2,0.2c0.4,0.2,0.7,0.4,1,0.7l-0.6,0.8
					c-0.2-0.2-0.5-0.3-0.7-0.4c-0.2-0.1-0.5-0.2-0.8-0.2c-0.3,0-0.6,0.1-0.8,0.2c-0.2,0.1-0.3,0.4-0.3,0.6c0,0.1,0,0.3,0.1,0.4
					c0.1,0.1,0.1,0.2,0.2,0.3c0.1,0.1,0.2,0.1,0.4,0.2s0.3,0.1,0.4,0.2l1,0.4c0.2,0.1,0.4,0.2,0.6,0.3c0.2,0.1,0.3,0.2,0.4,0.4
					s0.2,0.3,0.3,0.5c0.1,0.2,0.1,0.4,0.1,0.7c0,0.3-0.1,0.6-0.2,0.8c-0.1,0.3-0.3,0.5-0.5,0.7c-0.2,0.2-0.5,0.3-0.8,0.5
					c-0.3,0.1-0.7,0.2-1.1,0.2c-0.5,0-0.9-0.1-1.4-0.3c-0.4-0.2-0.8-0.4-1.2-0.8L699.2,305z"/>
				<path fill="#FFFFFF" d="M705.4,299.6h4.3v1.1h-3v1.8h2.5v1.1h-2.5v2.1h3.1v1.1h-4.4V299.6L705.4,299.6z"/>
				<path fill="#FFFFFF" d="M715.7,306.7l-1.5-2.8h-1.1v2.8h-1.3v-7.1h2.4c0.4,0,0.7,0,1,0.1c0.3,0.1,0.6,0.2,0.8,0.4
					c0.2,0.2,0.4,0.4,0.5,0.6c0.1,0.3,0.2,0.6,0.2,1c0,0.5-0.1,1-0.4,1.3c-0.3,0.3-0.6,0.6-1,0.7l1.7,3L715.7,306.7L715.7,306.7z
					 M713.1,303h1c0.5,0,0.9-0.1,1.1-0.3c0.3-0.2,0.4-0.5,0.4-0.9c0-0.4-0.1-0.7-0.4-0.9c-0.3-0.2-0.6-0.2-1.1-0.2h-1V303z"/>
				<path fill="#FFFFFF" d="M717.7,299.6h1.3l1,3.6c0.1,0.4,0.2,0.8,0.3,1.1s0.2,0.7,0.3,1.2h0c0.1-0.4,0.2-0.8,0.3-1.2
					c0.1-0.4,0.2-0.7,0.3-1.1l1-3.6h1.3l-2.2,7.1h-1.5L717.7,299.6z"/>
				<path fill="#FFFFFF" d="M725,299.6h1.3v7.1H725V299.6z"/>
				<path fill="#FFFFFF" d="M728.2,303.2c0-0.6,0.1-1.1,0.3-1.6s0.4-0.8,0.7-1.2c0.3-0.3,0.6-0.6,1-0.7s0.8-0.2,1.3-0.2
					c0.4,0,0.8,0.1,1.2,0.3c0.3,0.2,0.6,0.4,0.9,0.6l-0.7,0.8c-0.2-0.2-0.4-0.3-0.6-0.4c-0.2-0.1-0.4-0.2-0.7-0.2
					c-0.3,0-0.6,0.1-0.8,0.2c-0.2,0.1-0.5,0.3-0.6,0.5c-0.2,0.2-0.3,0.5-0.4,0.8c-0.1,0.3-0.1,0.7-0.1,1.1c0,0.8,0.2,1.4,0.5,1.9
					s0.8,0.7,1.4,0.7c0.3,0,0.6-0.1,0.8-0.2c0.2-0.1,0.5-0.3,0.7-0.5l0.7,0.8c-0.3,0.3-0.6,0.6-1,0.8c-0.4,0.2-0.8,0.3-1.2,0.3
					c-0.5,0-0.9-0.1-1.3-0.2c-0.4-0.2-0.7-0.4-1-0.7c-0.3-0.3-0.5-0.7-0.7-1.1S728.2,303.8,728.2,303.2z"/>
				<path fill="#FFFFFF" d="M735.4,299.6h4.3v1.1h-3v1.8h2.5v1.1h-2.5v2.1h3.1v1.1h-4.4V299.6z"/>
				<path fill="#FFFFFF" d="M744.8,306.3c-0.2-0.8-0.4-1.7-0.4-2.6c0-1,0.1-1.8,0.4-2.6c0.2-0.8,0.6-1.6,1.1-2.3l0.8,0.3
					c-0.4,0.7-0.7,1.4-0.9,2.2c-0.2,0.8-0.3,1.6-0.3,2.4c0,0.8,0.1,1.6,0.3,2.4c0.2,0.8,0.5,1.5,0.9,2.2l-0.8,0.3
					C745.4,307.9,745.1,307.1,744.8,306.3z"/>
				<path fill="#FFFFFF" d="M748.6,299.6h2.4c0.4,0,0.7,0,1.1,0.1c0.3,0.1,0.6,0.2,0.8,0.4s0.4,0.4,0.6,0.7c0.1,0.3,0.2,0.6,0.2,1
					c0,0.4-0.1,0.7-0.2,1c-0.1,0.3-0.3,0.5-0.6,0.7s-0.5,0.3-0.9,0.4c-0.3,0.1-0.7,0.1-1.1,0.1h-1.1v2.6h-1.3L748.6,299.6
					L748.6,299.6z M750.9,303.1c1,0,1.6-0.4,1.6-1.3c0-0.4-0.1-0.8-0.4-0.9s-0.7-0.3-1.2-0.3h-1v2.5H750.9z"/>
				<path fill="#FFFFFF" d="M755.7,305c0.3,0.2,0.5,0.4,0.9,0.6c0.3,0.1,0.7,0.2,1,0.2c0.4,0,0.7-0.1,0.9-0.2s0.3-0.4,0.3-0.7
					c0-0.1,0-0.3-0.1-0.4c-0.1-0.1-0.1-0.2-0.2-0.3c-0.1-0.1-0.2-0.1-0.3-0.2c-0.1-0.1-0.3-0.1-0.4-0.2l-1-0.4
					c-0.2-0.1-0.3-0.2-0.5-0.3c-0.2-0.1-0.3-0.2-0.5-0.4c-0.1-0.2-0.2-0.3-0.3-0.5c-0.1-0.2-0.1-0.4-0.1-0.7c0-0.3,0.1-0.5,0.2-0.8
					c0.1-0.2,0.3-0.5,0.5-0.6s0.5-0.3,0.8-0.4s0.6-0.2,1-0.2c0.4,0,0.8,0.1,1.2,0.2c0.4,0.2,0.7,0.4,1,0.7l-0.6,0.8
					c-0.2-0.2-0.5-0.3-0.7-0.4c-0.2-0.1-0.5-0.2-0.8-0.2c-0.3,0-0.6,0.1-0.8,0.2s-0.3,0.4-0.3,0.6c0,0.1,0,0.3,0.1,0.4
					c0.1,0.1,0.1,0.2,0.2,0.3c0.1,0.1,0.2,0.1,0.4,0.2c0.1,0.1,0.3,0.1,0.4,0.2l1,0.4c0.2,0.1,0.4,0.2,0.6,0.3
					c0.2,0.1,0.3,0.2,0.5,0.4s0.2,0.3,0.3,0.5c0.1,0.2,0.1,0.4,0.1,0.7c0,0.3-0.1,0.6-0.2,0.8c-0.1,0.3-0.3,0.5-0.5,0.7
					c-0.2,0.2-0.5,0.3-0.8,0.5c-0.3,0.1-0.7,0.2-1.1,0.2c-0.5,0-0.9-0.1-1.4-0.3c-0.4-0.2-0.8-0.4-1.2-0.8L755.7,305z"/>
				<path fill="#FFFFFF" d="M762.3,306.1c0.2-0.8,0.3-1.6,0.3-2.4c0-0.8-0.1-1.6-0.3-2.4c-0.2-0.8-0.5-1.5-0.9-2.2l0.8-0.3
					c0.5,0.7,0.8,1.5,1.1,2.3c0.2,0.8,0.4,1.7,0.4,2.6c0,1-0.1,1.8-0.4,2.6c-0.2,0.8-0.6,1.6-1.1,2.3l-0.8-0.3
					C761.9,307.6,762.2,306.9,762.3,306.1z"/>
			</g>
		</g>
		<g>
			<rect x="666.7" y="276" fill="none" width="192" height="20.6"/>
			<path fill="#FFFFFF" d="M671.9,285.9h-3.2l-0.8,2.6h-1.1l2.9-8.7h1.2l2.9,8.7h-1.2L671.9,285.9z M671.6,285l-0.4-1.3
				c-0.2-0.5-0.3-1-0.4-1.4c-0.1-0.5-0.3-1-0.4-1.5h-0.1c-0.1,0.5-0.3,1-0.4,1.5c-0.1,0.5-0.3,1-0.4,1.4L669,285H671.6z"/>
			<path fill="#FFFFFF" d="M675,282.1h0.9l0.1,0.9h0c0.3-0.3,0.6-0.6,0.9-0.8c0.3-0.2,0.7-0.3,1.1-0.3c0.5,0,0.9,0.1,1.2,0.3
				c0.3,0.2,0.5,0.5,0.6,0.9c0.3-0.4,0.7-0.7,1-0.9c0.3-0.2,0.7-0.3,1.1-0.3c0.7,0,1.2,0.2,1.5,0.6c0.3,0.4,0.5,1.1,0.5,1.9v4.1
				h-1.1v-3.9c0-0.6-0.1-1-0.3-1.3c-0.2-0.3-0.5-0.4-0.9-0.4c-0.5,0-1,0.3-1.6,1v4.7h-1.1v-3.9c0-0.6-0.1-1-0.3-1.3
				c-0.2-0.3-0.5-0.4-0.9-0.4c-0.5,0-1,0.3-1.6,1v4.7H675V282.1z"/>
			<path fill="#FFFFFF" d="M685.5,285.4c0-0.5,0.1-1,0.2-1.4c0.2-0.4,0.4-0.8,0.6-1.1c0.3-0.3,0.6-0.5,0.9-0.7
				c0.3-0.2,0.7-0.2,1.1-0.2c0.4,0,0.8,0.1,1.1,0.2c0.3,0.1,0.6,0.3,0.8,0.6c0.2,0.3,0.4,0.6,0.5,1c0.1,0.4,0.2,0.8,0.2,1.2
				c0,0.2,0,0.4,0,0.6h-4.3c0,0.7,0.3,1.2,0.6,1.7c0.4,0.4,0.9,0.6,1.5,0.6c0.3,0,0.6,0,0.9-0.1c0.3-0.1,0.5-0.2,0.7-0.4l0.4,0.7
				c-0.3,0.2-0.6,0.3-0.9,0.5c-0.3,0.1-0.7,0.2-1.2,0.2c-0.4,0-0.8-0.1-1.2-0.2c-0.4-0.2-0.7-0.4-1-0.7c-0.3-0.3-0.5-0.6-0.7-1.1
				C685.6,286.4,685.5,285.9,685.5,285.4z M690,284.9c0-0.7-0.1-1.2-0.4-1.5c-0.3-0.3-0.7-0.5-1.2-0.5c-0.2,0-0.4,0-0.7,0.1
				c-0.2,0.1-0.4,0.2-0.6,0.4c-0.2,0.2-0.3,0.4-0.4,0.6c-0.1,0.3-0.2,0.5-0.2,0.9H690z"/>
			<path fill="#FFFFFF" d="M692.5,282.1h0.9l0.1,1.2h0c0.2-0.4,0.5-0.7,0.8-1c0.3-0.2,0.7-0.4,1-0.4c0.3,0,0.5,0,0.7,0.1l-0.2,1
				c-0.1,0-0.2-0.1-0.3-0.1c-0.1,0-0.2,0-0.3,0c-0.3,0-0.6,0.1-0.9,0.3s-0.6,0.6-0.8,1.2v4.1h-1.1V282.1L692.5,282.1z"/>
			<path fill="#FFFFFF" d="M697.7,280.8c-0.2,0-0.4-0.1-0.5-0.2c-0.1-0.1-0.2-0.3-0.2-0.5c0-0.2,0.1-0.4,0.2-0.5
				c0.1-0.1,0.3-0.2,0.5-0.2c0.2,0,0.4,0.1,0.5,0.2c0.1,0.1,0.2,0.3,0.2,0.5c0,0.2-0.1,0.4-0.2,0.5
				C698.1,280.8,697.9,280.8,697.7,280.8z M697.1,282.1h1.1v6.4h-1.1V282.1z"/>
			<path fill="#FFFFFF" d="M699.9,285.4c0-0.5,0.1-1,0.3-1.4s0.4-0.8,0.7-1.1c0.3-0.3,0.6-0.5,1-0.7s0.8-0.2,1.2-0.2
				c0.4,0,0.8,0.1,1.1,0.2c0.3,0.2,0.6,0.3,0.8,0.5l-0.5,0.7c-0.2-0.2-0.4-0.3-0.6-0.4s-0.4-0.2-0.7-0.2c-0.3,0-0.6,0.1-0.8,0.2
				s-0.5,0.3-0.6,0.5c-0.2,0.2-0.3,0.5-0.4,0.8c-0.1,0.3-0.2,0.6-0.2,1c0,0.4,0,0.7,0.1,1c0.1,0.3,0.2,0.6,0.4,0.8
				c0.2,0.2,0.4,0.4,0.6,0.5c0.2,0.1,0.5,0.2,0.8,0.2c0.3,0,0.6-0.1,0.8-0.2c0.3-0.1,0.5-0.3,0.7-0.5l0.5,0.7
				c-0.3,0.3-0.6,0.5-1,0.6c-0.4,0.2-0.7,0.2-1.1,0.2c-0.4,0-0.8-0.1-1.2-0.2c-0.4-0.1-0.7-0.4-1-0.7c-0.3-0.3-0.5-0.6-0.6-1.1
				C700,286.4,699.9,285.9,699.9,285.4z"/>
			<path fill="#FFFFFF" d="M706,286.9c0-0.7,0.3-1.2,0.9-1.6c0.6-0.4,1.6-0.6,3-0.8c0-0.2,0-0.4-0.1-0.6c0-0.2-0.1-0.4-0.2-0.5
				c-0.1-0.1-0.2-0.3-0.4-0.4c-0.2-0.1-0.4-0.1-0.6-0.1c-0.4,0-0.7,0.1-1.1,0.2c-0.3,0.1-0.6,0.3-0.9,0.5l-0.4-0.8
				c0.3-0.2,0.7-0.4,1.1-0.6c0.4-0.2,0.9-0.3,1.4-0.3c0.8,0,1.4,0.2,1.7,0.7c0.4,0.5,0.5,1.1,0.5,1.9v3.9h-0.9l-0.1-0.8h0
				c-0.3,0.3-0.6,0.5-1,0.7c-0.4,0.2-0.7,0.3-1.1,0.3c-0.5,0-1-0.2-1.4-0.5C706.2,287.9,706,287.5,706,286.9z M707.1,286.8
				c0,0.4,0.1,0.6,0.3,0.8c0.2,0.2,0.5,0.2,0.8,0.2c0.3,0,0.6-0.1,0.9-0.2c0.3-0.1,0.6-0.4,0.9-0.6v-1.8c-0.5,0.1-1,0.2-1.4,0.3
				c-0.4,0.1-0.7,0.2-0.9,0.3c-0.2,0.1-0.4,0.3-0.5,0.5S707.1,286.6,707.1,286.8z"/>
			<path fill="#FFFFFF" d="M713.1,282.1h0.9l0.1,0.9h0c0.3-0.3,0.6-0.6,1-0.8c0.3-0.2,0.7-0.3,1.2-0.3c0.7,0,1.2,0.2,1.5,0.6
				s0.5,1.1,0.5,1.9v4.1h-1.1v-3.9c0-0.6-0.1-1-0.3-1.3c-0.2-0.3-0.5-0.4-0.9-0.4c-0.3,0-0.6,0.1-0.9,0.3c-0.3,0.2-0.5,0.4-0.9,0.7
				v4.7h-1.1V282.1L713.1,282.1z"/>
			<path fill="#FFFFFF" d="M723.1,279.9h2.7c0.5,0,0.9,0,1.3,0.1c0.4,0.1,0.7,0.2,1,0.4c0.3,0.2,0.5,0.5,0.6,0.8
				c0.2,0.3,0.2,0.7,0.2,1.2c0,0.5-0.1,0.9-0.2,1.2c-0.2,0.3-0.4,0.6-0.7,0.8c-0.3,0.2-0.6,0.4-1,0.5c-0.4,0.1-0.8,0.2-1.3,0.2h-1.6
				v3.4h-1.1V279.9z M725.6,284.2c0.8,0,1.3-0.1,1.7-0.4s0.5-0.7,0.5-1.4c0-0.6-0.2-1.1-0.6-1.3c-0.4-0.2-0.9-0.4-1.7-0.4h-1.4v3.5
				H725.6z"/>
			<path fill="#FFFFFF" d="M730.6,282.1h0.9l0.1,1.2h0c0.2-0.4,0.5-0.7,0.8-1c0.3-0.2,0.7-0.4,1-0.4c0.3,0,0.5,0,0.7,0.1l-0.2,1
				c-0.1,0-0.2-0.1-0.3-0.1c-0.1,0-0.2,0-0.3,0c-0.3,0-0.6,0.1-0.9,0.3c-0.3,0.2-0.6,0.6-0.8,1.2v4.1h-1.1V282.1z"/>
			<path fill="#FFFFFF" d="M734.6,285.4c0-0.5,0.1-1,0.2-1.4c0.2-0.4,0.4-0.8,0.7-1.1c0.3-0.3,0.6-0.5,0.9-0.7
				c0.4-0.1,0.7-0.2,1.1-0.2c0.4,0,0.8,0.1,1.1,0.2c0.4,0.1,0.7,0.4,0.9,0.7c0.3,0.3,0.5,0.6,0.7,1.1c0.2,0.4,0.2,0.9,0.2,1.4
				c0,0.5-0.1,1-0.2,1.4c-0.2,0.4-0.4,0.8-0.7,1.1c-0.3,0.3-0.6,0.5-0.9,0.7c-0.4,0.1-0.7,0.2-1.1,0.2c-0.4,0-0.8-0.1-1.1-0.2
				c-0.4-0.2-0.7-0.4-0.9-0.7s-0.5-0.6-0.7-1.1C734.7,286.4,734.6,285.9,734.6,285.4z M735.7,285.4c0,0.4,0,0.7,0.1,1
				c0.1,0.3,0.2,0.6,0.4,0.8c0.2,0.2,0.4,0.4,0.6,0.5c0.2,0.1,0.5,0.2,0.8,0.2c0.3,0,0.5-0.1,0.8-0.2c0.2-0.1,0.4-0.3,0.6-0.5
				c0.2-0.2,0.3-0.5,0.4-0.8c0.1-0.3,0.1-0.6,0.1-1c0-0.4,0-0.7-0.1-1s-0.2-0.6-0.4-0.8c-0.2-0.2-0.4-0.4-0.6-0.5
				c-0.2-0.1-0.5-0.2-0.8-0.2c-0.3,0-0.5,0.1-0.8,0.2c-0.2,0.1-0.4,0.3-0.6,0.5c-0.2,0.2-0.3,0.5-0.4,0.8
				C735.8,284.7,735.7,285,735.7,285.4z"/>
			<path fill="#FFFFFF" d="M743.4,289.1v2.2h-1.1v-9.1h0.9l0.1,0.7h0c0.3-0.2,0.6-0.5,1-0.6c0.3-0.2,0.7-0.3,1.1-0.3
				c0.4,0,0.8,0.1,1.1,0.2c0.3,0.2,0.6,0.4,0.8,0.7c0.2,0.3,0.4,0.6,0.5,1c0.1,0.4,0.2,0.9,0.2,1.4c0,0.5-0.1,1-0.2,1.5
				c-0.2,0.4-0.4,0.8-0.6,1.1c-0.3,0.3-0.6,0.5-0.9,0.7c-0.3,0.2-0.7,0.2-1.1,0.2c-0.3,0-0.6-0.1-0.9-0.2c-0.3-0.1-0.6-0.3-0.9-0.5
				L743.4,289.1z M743.4,287.1c0.3,0.2,0.6,0.4,0.8,0.5c0.3,0.1,0.5,0.2,0.7,0.2c0.3,0,0.5-0.1,0.7-0.2c0.2-0.1,0.4-0.3,0.6-0.5
				s0.3-0.5,0.4-0.8c0.1-0.3,0.1-0.7,0.1-1.1c0-0.4,0-0.7-0.1-1c-0.1-0.3-0.2-0.5-0.3-0.7c-0.1-0.2-0.3-0.4-0.5-0.5
				c-0.2-0.1-0.5-0.2-0.8-0.2c-0.3,0-0.5,0.1-0.8,0.2c-0.3,0.1-0.6,0.4-0.9,0.6V287.1L743.4,287.1z"/>
			<path fill="#FFFFFF" d="M749.1,285.4c0-0.5,0.1-1,0.2-1.4c0.2-0.4,0.4-0.8,0.6-1.1c0.3-0.3,0.6-0.5,0.9-0.7
				c0.3-0.2,0.7-0.2,1.1-0.2c0.4,0,0.8,0.1,1.1,0.2c0.3,0.1,0.6,0.3,0.8,0.6c0.2,0.3,0.4,0.6,0.5,1c0.1,0.4,0.2,0.8,0.2,1.2
				c0,0.2,0,0.4,0,0.6h-4.3c0,0.7,0.3,1.2,0.6,1.7c0.4,0.4,0.9,0.6,1.5,0.6c0.3,0,0.6,0,0.9-0.1c0.3-0.1,0.5-0.2,0.7-0.4l0.4,0.7
				c-0.3,0.2-0.6,0.3-0.9,0.5c-0.3,0.1-0.7,0.2-1.2,0.2c-0.4,0-0.8-0.1-1.2-0.2s-0.7-0.4-1-0.7c-0.3-0.3-0.5-0.6-0.7-1.1
				C749.2,286.4,749.1,285.9,749.1,285.4z M753.6,284.9c0-0.7-0.1-1.2-0.4-1.5c-0.3-0.3-0.7-0.5-1.2-0.5c-0.2,0-0.4,0-0.7,0.1
				c-0.2,0.1-0.4,0.2-0.6,0.4c-0.2,0.2-0.3,0.4-0.4,0.6s-0.2,0.5-0.2,0.9H753.6z"/>
			<path fill="#FFFFFF" d="M756.2,282.1h0.9l0.1,1.2h0c0.2-0.4,0.5-0.7,0.8-1c0.3-0.2,0.7-0.4,1-0.4c0.3,0,0.5,0,0.7,0.1l-0.2,1
				c-0.1,0-0.2-0.1-0.3-0.1c-0.1,0-0.2,0-0.3,0c-0.3,0-0.6,0.1-0.9,0.3c-0.3,0.2-0.6,0.6-0.8,1.2v4.1h-1.1V282.1z"/>
			<path fill="#FFFFFF" d="M761,283h-1v-0.8l1-0.1l0.1-1.8h0.9v1.8h1.7v0.9h-1.7v3.6c0,0.4,0.1,0.7,0.2,0.9c0.1,0.2,0.4,0.3,0.8,0.3
				c0.1,0,0.2,0,0.4-0.1c0.1,0,0.3-0.1,0.4-0.1l0.2,0.8c-0.2,0.1-0.4,0.1-0.6,0.2c-0.2,0-0.4,0.1-0.6,0.1c-0.3,0-0.6-0.1-0.9-0.2
				c-0.2-0.1-0.4-0.3-0.6-0.4c-0.1-0.2-0.2-0.4-0.3-0.7c-0.1-0.3-0.1-0.6-0.1-0.9V283L761,283z"/>
			<path fill="#FFFFFF" d="M765.1,290.4c0.1,0,0.2,0,0.3,0c0.4,0,0.7-0.1,0.9-0.4c0.2-0.3,0.4-0.6,0.6-1l0.1-0.5l-2.6-6.4h1.1
				l1.3,3.6c0.1,0.3,0.2,0.6,0.3,0.9c0.1,0.3,0.2,0.6,0.3,0.9h0.1c0.1-0.3,0.2-0.6,0.3-0.9c0.1-0.3,0.2-0.6,0.3-0.9l1.2-3.6h1.1
				l-2.4,7c-0.1,0.3-0.2,0.6-0.4,0.9c-0.1,0.3-0.3,0.5-0.5,0.7c-0.2,0.2-0.4,0.4-0.7,0.5c-0.2,0.1-0.5,0.2-0.9,0.2
				c-0.2,0-0.3,0-0.4,0c-0.1,0-0.2-0.1-0.3-0.1l0.2-0.9C764.9,290.4,765,290.4,765.1,290.4z"/>
			<path fill="#FFFFFF" d="M774.2,279.9h1.3l1.7,4.7l0.6,1.8h0.1l0.6-1.8l1.7-4.7h1.3v8.7h-1v-4.8c0-0.4,0-0.8,0-1.3
				c0-0.5,0.1-0.9,0.1-1.3h-0.1l-0.7,1.9l-1.7,4.5h-0.6l-1.7-4.5l-0.7-1.9h-0.1c0,0.4,0.1,0.8,0.1,1.3c0,0.5,0.1,0.9,0.1,1.3v4.8h-1
				L774.2,279.9L774.2,279.9z"/>
			<path fill="#FFFFFF" d="M783.4,286.9c0-0.7,0.3-1.2,0.9-1.6c0.6-0.4,1.6-0.6,3-0.8c0-0.2,0-0.4-0.1-0.6c0-0.2-0.1-0.4-0.2-0.5
				c-0.1-0.1-0.2-0.3-0.4-0.4c-0.2-0.1-0.4-0.1-0.6-0.1c-0.4,0-0.7,0.1-1.1,0.2c-0.3,0.1-0.6,0.3-0.9,0.5l-0.4-0.8
				c0.3-0.2,0.7-0.4,1.1-0.6c0.4-0.2,0.9-0.3,1.4-0.3c0.8,0,1.4,0.2,1.7,0.7c0.4,0.5,0.5,1.1,0.5,1.9v3.9h-0.9l-0.1-0.8h0
				c-0.3,0.3-0.6,0.5-1,0.7c-0.4,0.2-0.7,0.3-1.1,0.3c-0.5,0-1-0.2-1.4-0.5C783.6,287.9,783.4,287.5,783.4,286.9z M784.5,286.8
				c0,0.4,0.1,0.6,0.3,0.8c0.2,0.2,0.5,0.2,0.8,0.2c0.3,0,0.6-0.1,0.9-0.2c0.3-0.1,0.6-0.4,0.9-0.6v-1.8c-0.5,0.1-1,0.2-1.4,0.3
				c-0.4,0.1-0.7,0.2-0.9,0.3s-0.4,0.3-0.5,0.5C784.5,286.4,784.5,286.6,784.5,286.8z"/>
			<path fill="#FFFFFF" d="M790.5,282.1h0.9l0.1,0.9h0c0.3-0.3,0.6-0.6,1-0.8c0.3-0.2,0.7-0.3,1.2-0.3c0.7,0,1.2,0.2,1.5,0.6
				c0.3,0.4,0.5,1.1,0.5,1.9v4.1h-1.1v-3.9c0-0.6-0.1-1-0.3-1.3c-0.2-0.3-0.5-0.4-0.9-0.4c-0.3,0-0.6,0.1-0.9,0.3
				c-0.3,0.2-0.5,0.4-0.9,0.7v4.7h-1.1L790.5,282.1L790.5,282.1z"/>
			<path fill="#FFFFFF" d="M797.4,286.9c0-0.7,0.3-1.2,0.9-1.6c0.6-0.4,1.6-0.6,3-0.8c0-0.2,0-0.4-0.1-0.6c0-0.2-0.1-0.4-0.2-0.5
				c-0.1-0.1-0.2-0.3-0.4-0.4c-0.2-0.1-0.4-0.1-0.6-0.1c-0.4,0-0.7,0.1-1.1,0.2c-0.3,0.1-0.6,0.3-0.9,0.5l-0.4-0.8
				c0.3-0.2,0.7-0.4,1.1-0.6c0.4-0.2,0.9-0.3,1.4-0.3c0.8,0,1.4,0.2,1.7,0.7c0.4,0.5,0.5,1.1,0.5,1.9v3.9h-0.9l-0.1-0.8h0
				c-0.3,0.3-0.6,0.5-1,0.7c-0.4,0.2-0.7,0.3-1.1,0.3c-0.5,0-1-0.2-1.4-0.5C797.6,287.9,797.4,287.5,797.4,286.9z M798.5,286.8
				c0,0.4,0.1,0.6,0.3,0.8c0.2,0.2,0.5,0.2,0.8,0.2c0.3,0,0.6-0.1,0.9-0.2c0.3-0.1,0.6-0.4,0.9-0.6v-1.8c-0.5,0.1-1,0.2-1.4,0.3
				c-0.4,0.1-0.7,0.2-0.9,0.3c-0.2,0.1-0.4,0.3-0.5,0.5S798.5,286.6,798.5,286.8z"/>
			<path fill="#FFFFFF" d="M804.1,289.8c0-0.3,0.1-0.5,0.3-0.8c0.2-0.2,0.4-0.5,0.7-0.7v-0.1c-0.2-0.1-0.3-0.2-0.4-0.4
				c-0.1-0.2-0.2-0.4-0.2-0.6c0-0.3,0.1-0.5,0.2-0.7c0.1-0.2,0.3-0.4,0.5-0.5V286c-0.2-0.2-0.4-0.4-0.6-0.7c-0.2-0.3-0.3-0.6-0.3-1
				c0-0.4,0.1-0.7,0.2-1c0.1-0.3,0.3-0.5,0.5-0.7c0.2-0.2,0.5-0.4,0.8-0.5c0.3-0.1,0.6-0.2,0.9-0.2c0.2,0,0.3,0,0.5,0
				c0.2,0,0.3,0.1,0.4,0.1h2.2v0.8h-1.3c0.2,0.2,0.3,0.3,0.4,0.6c0.1,0.2,0.2,0.5,0.2,0.8c0,0.3-0.1,0.7-0.2,0.9
				c-0.1,0.3-0.3,0.5-0.5,0.7c-0.2,0.2-0.5,0.3-0.7,0.4c-0.3,0.1-0.6,0.2-0.9,0.2c-0.2,0-0.3,0-0.5-0.1c-0.2,0-0.3-0.1-0.5-0.2
				c-0.1,0.1-0.2,0.2-0.3,0.3c-0.1,0.1-0.1,0.3-0.1,0.4c0,0.2,0.1,0.4,0.2,0.5c0.2,0.1,0.5,0.2,0.9,0.2h1.2c0.8,0,1.3,0.1,1.7,0.4
				c0.4,0.2,0.6,0.6,0.6,1.2c0,0.3-0.1,0.6-0.2,0.9s-0.4,0.5-0.6,0.7s-0.6,0.4-1,0.5s-0.9,0.2-1.4,0.2c-0.4,0-0.8,0-1.1-0.1
				c-0.3-0.1-0.6-0.2-0.8-0.3c-0.2-0.1-0.4-0.3-0.5-0.5C804.1,290.3,804.1,290.1,804.1,289.8z M805,289.7c0,0.3,0.2,0.6,0.5,0.8
				c0.3,0.2,0.8,0.3,1.4,0.3c0.3,0,0.6,0,0.8-0.1c0.3-0.1,0.5-0.2,0.6-0.3c0.2-0.1,0.3-0.3,0.4-0.4c0.1-0.2,0.1-0.3,0.1-0.5
				c0-0.3-0.1-0.5-0.3-0.6c-0.2-0.1-0.5-0.2-1-0.2h-1.1c-0.1,0-0.3,0-0.4,0c-0.1,0-0.3,0-0.4-0.1c-0.2,0.2-0.4,0.3-0.5,0.5
				C805.1,289.3,805,289.5,805,289.7z M806.7,285.8c0.2,0,0.4,0,0.5-0.1c0.2-0.1,0.3-0.2,0.4-0.3c0.1-0.1,0.2-0.3,0.3-0.5
				c0.1-0.2,0.1-0.4,0.1-0.6c0-0.5-0.1-0.8-0.4-1.1c-0.3-0.3-0.6-0.4-1-0.4s-0.7,0.1-1,0.4s-0.4,0.6-0.4,1.1c0,0.2,0,0.5,0.1,0.6
				c0.1,0.2,0.2,0.4,0.3,0.5c0.1,0.1,0.3,0.2,0.4,0.3C806.4,285.8,806.5,285.8,806.7,285.8z"/>
			<path fill="#FFFFFF" d="M810.6,285.4c0-0.5,0.1-1,0.2-1.4c0.2-0.4,0.4-0.8,0.6-1.1c0.3-0.3,0.6-0.5,0.9-0.7
				c0.3-0.2,0.7-0.2,1.1-0.2c0.4,0,0.8,0.1,1.1,0.2c0.3,0.1,0.6,0.3,0.8,0.6c0.2,0.3,0.4,0.6,0.5,1c0.1,0.4,0.2,0.8,0.2,1.2
				c0,0.2,0,0.4,0,0.6h-4.3c0,0.7,0.3,1.2,0.6,1.7c0.4,0.4,0.9,0.6,1.5,0.6c0.3,0,0.6,0,0.9-0.1c0.3-0.1,0.5-0.2,0.7-0.4l0.4,0.7
				c-0.3,0.2-0.6,0.3-0.9,0.5c-0.3,0.1-0.7,0.2-1.2,0.2c-0.4,0-0.8-0.1-1.2-0.2c-0.4-0.2-0.7-0.4-1-0.7c-0.3-0.3-0.5-0.6-0.7-1.1
				C810.6,286.4,810.6,285.9,810.6,285.4z M815.1,284.9c0-0.7-0.1-1.2-0.4-1.5c-0.3-0.3-0.7-0.5-1.2-0.5c-0.2,0-0.4,0-0.7,0.1
				c-0.2,0.1-0.4,0.2-0.6,0.4c-0.2,0.2-0.3,0.4-0.4,0.6c-0.1,0.3-0.2,0.5-0.2,0.9H815.1z"/>
			<path fill="#FFFFFF" d="M817.6,282.1h0.9l0.1,0.9h0c0.3-0.3,0.6-0.6,0.9-0.8c0.3-0.2,0.7-0.3,1.1-0.3c0.5,0,0.9,0.1,1.2,0.3
				c0.3,0.2,0.5,0.5,0.6,0.9c0.3-0.4,0.7-0.7,1-0.9c0.3-0.2,0.7-0.3,1.1-0.3c0.7,0,1.2,0.2,1.5,0.6c0.3,0.4,0.5,1.1,0.5,1.9v4.1
				h-1.1v-3.9c0-0.6-0.1-1-0.3-1.3c-0.2-0.3-0.5-0.4-0.9-0.4c-0.5,0-1,0.3-1.6,1v4.7h-1.1v-3.9c0-0.6-0.1-1-0.3-1.3
				c-0.2-0.3-0.5-0.4-0.9-0.4c-0.5,0-1,0.3-1.6,1v4.7h-1.1V282.1L817.6,282.1z"/>
			<path fill="#FFFFFF" d="M828.1,285.4c0-0.5,0.1-1,0.2-1.4c0.2-0.4,0.4-0.8,0.6-1.1c0.3-0.3,0.6-0.5,0.9-0.7
				c0.3-0.2,0.7-0.2,1.1-0.2c0.4,0,0.8,0.1,1.1,0.2c0.3,0.1,0.6,0.3,0.8,0.6c0.2,0.3,0.4,0.6,0.5,1c0.1,0.4,0.2,0.8,0.2,1.2
				c0,0.2,0,0.4,0,0.6h-4.3c0,0.7,0.3,1.2,0.6,1.7c0.4,0.4,0.9,0.6,1.5,0.6c0.3,0,0.6,0,0.9-0.1c0.3-0.1,0.5-0.2,0.7-0.4l0.4,0.7
				c-0.3,0.2-0.6,0.3-0.9,0.5c-0.3,0.1-0.7,0.2-1.2,0.2c-0.4,0-0.8-0.1-1.2-0.2s-0.7-0.4-1-0.7c-0.3-0.3-0.5-0.6-0.7-1.1
				C828.2,286.4,828.1,285.9,828.1,285.4z M832.6,284.9c0-0.7-0.1-1.2-0.4-1.5c-0.3-0.3-0.7-0.5-1.2-0.5c-0.2,0-0.4,0-0.7,0.1
				c-0.2,0.1-0.4,0.2-0.6,0.4c-0.2,0.2-0.3,0.4-0.4,0.6c-0.1,0.3-0.2,0.5-0.2,0.9H832.6z"/>
			<path fill="#FFFFFF" d="M835.1,282.1h0.9l0.1,0.9h0c0.3-0.3,0.6-0.6,1-0.8c0.3-0.2,0.7-0.3,1.2-0.3c0.7,0,1.2,0.2,1.5,0.6
				s0.5,1.1,0.5,1.9v4.1h-1.1v-3.9c0-0.6-0.1-1-0.3-1.3c-0.2-0.3-0.5-0.4-0.9-0.4c-0.3,0-0.6,0.1-0.9,0.3c-0.3,0.2-0.5,0.4-0.9,0.7
				v4.7h-1.1V282.1z"/>
			<path fill="#FFFFFF" d="M842.6,283h-1v-0.8l1-0.1l0.1-1.8h0.9v1.8h1.7v0.9h-1.7v3.6c0,0.4,0.1,0.7,0.2,0.9
				c0.1,0.2,0.4,0.3,0.8,0.3c0.1,0,0.2,0,0.4-0.1c0.1,0,0.3-0.1,0.4-0.1l0.2,0.8c-0.2,0.1-0.4,0.1-0.6,0.2c-0.2,0-0.4,0.1-0.6,0.1
				c-0.3,0-0.6-0.1-0.9-0.2s-0.4-0.3-0.6-0.4c-0.1-0.2-0.2-0.4-0.3-0.7c-0.1-0.3-0.1-0.6-0.1-0.9V283L842.6,283z"/>
		</g>
		<rect x="666.7" y="266.8" fill="#2E3D5A" width="90.7" height="3.2"/>
		<rect x="757.4" y="266.8" fill="#039BE5" width="90.7" height="3.2"/>
		<g id="drive-form_3_">
			<path fill="#2E3D5A" d="M947.9,262.7H937c-0.9,0-1.6,0.7-1.6,1.6v10.9c0,0.9,0.7,1.6,1.6,1.6h10.9c0.9,0,1.6-0.7,1.6-1.6v-10.9
				C949.5,263.4,948.8,262.7,947.9,262.7z M940.1,273.7h-1.6v-1.6h1.6V273.7z M940.1,270.5h-1.6V269h1.6V270.5z M940.1,267.4h-1.6
				v-1.6h1.6V267.4z M946.4,273.7h-5.5v-1.6h5.5V273.7z M946.4,270.5h-5.5V269h5.5V270.5z M946.4,267.4h-5.5v-1.6h5.5V267.4z"/>
		</g>
	</g>
</g>
</svg>
