<?xml version="1.0" encoding="utf-8"?>
<!-- Generator: Adobe Illustrator 16.0.0, SVG Export Plug-In . SVG Version: 6.00 Build 0)  -->
<!DOCTYPE svg PUBLIC "-//W3C//DTD SVG 1.1//EN" "http://www.w3.org/Graphics/SVG/1.1/DTD/svg11.dtd">
<svg version="1.1" id="Layer_1" xmlns="http://www.w3.org/2000/svg" xmlns:xlink="http://www.w3.org/1999/xlink" x="0px" y="0px"
	 width="980px" height="356px" viewBox="0 0 980 356" enable-background="new 0 0 980 356" xml:space="preserve">
<g>
	<g opacity="0.5">
		<g opacity="0.25">
			<g>
				
					<line fill="none" stroke="#B0BEC5" stroke-width="2" stroke-miterlimit="10" x1="255.482" y1="28.073" x2="255.482" y2="356.406"/>
				
					<line fill="none" stroke="#B0BEC5" stroke-width="2" stroke-miterlimit="10" x1="355.842" y1="28.073" x2="355.842" y2="356.406"/>
				
					<line fill="none" stroke="#B0BEC5" stroke-width="2" stroke-miterlimit="10" x1="456.203" y1="28.073" x2="456.203" y2="356.406"/>
				
					<line fill="none" stroke="#B0BEC5" stroke-width="2" stroke-miterlimit="10" x1="556.558" y1="28.073" x2="556.558" y2="356.406"/>
				
					<line fill="none" stroke="#B0BEC5" stroke-width="2" stroke-miterlimit="10" x1="656.919" y1="28.073" x2="656.919" y2="356.406"/>
				
					<line fill="none" stroke="#B0BEC5" stroke-width="2" stroke-miterlimit="10" x1="757.279" y1="28.073" x2="757.279" y2="356.406"/>
				
					<line fill="none" stroke="#B0BEC5" stroke-width="2" stroke-miterlimit="10" x1="857.638" y1="28.073" x2="857.638" y2="356.406"/>
				<line fill="none" stroke="#B0BEC5" stroke-width="2" stroke-miterlimit="10" x1="958" y1="28.073" x2="958" y2="356.406"/>
			</g>
		</g>
	</g>
	<rect y="242.661" opacity="0.2" fill="#78909C" enable-background="new    " width="959.589" height="95.467"/>
	<rect y="47.487" opacity="0.2" fill="#78909C" enable-background="new    " width="959.589" height="95.465"/>
	<g>
		<path fill="#B0BEC5" d="M248.501,10.95c0.119-0.763,0.289-1.491,0.511-2.184c0.222-0.692,0.506-1.366,0.853-2.021
			c0.346-0.654,0.768-1.328,1.266-2.021h-4.887V3.149h6.932v1.137c-0.606,0.746-1.096,1.458-1.469,2.135
			c-0.373,0.676-0.668,1.369-0.885,2.078c-0.217,0.709-0.371,1.464-0.462,2.265c-0.092,0.801-0.16,1.704-0.203,2.711h-1.899
			C248.3,12.555,248.381,11.713,248.501,10.95z"/>
		<path fill="#B0BEC5" d="M265.092,10.601h-3.571l-0.828,2.874h-1.916l3.458-10.617h2.208l3.458,10.617h-1.98L265.092,10.601z
			 M264.67,9.124l-0.374-1.299c-0.173-0.562-0.338-1.143-0.495-1.737c-0.157-0.596-0.311-1.186-0.463-1.77h-0.064
			c-0.152,0.595-0.303,1.188-0.455,1.777c-0.152,0.59-0.314,1.167-0.487,1.729l-0.374,1.299L264.67,9.124L264.67,9.124z"/>
		<path fill="#B0BEC5" d="M270.028,2.857h2.078l1.916,5.228l0.698,2.013h0.065l0.682-2.013l1.883-5.228h2.078v10.617h-1.77V8.62
			c0-0.249,0.008-0.52,0.024-0.812s0.035-0.587,0.057-0.885c0.021-0.298,0.049-0.59,0.081-0.877c0.033-0.286,0.06-0.555,0.081-0.804
			h-0.065l-0.86,2.419l-1.834,4.822h-0.876l-1.834-4.822l-0.844-2.419h-0.065c0.021,0.249,0.046,0.518,0.073,0.804
			c0.027,0.287,0.054,0.579,0.081,0.877c0.027,0.298,0.049,0.593,0.065,0.885c0.017,0.292,0.024,0.562,0.024,0.812v4.854h-1.737
			L270.028,2.857L270.028,2.857z"/>
	</g>
	<g>
		<path fill="#B0BEC5" d="M341.689,10.828c0-0.324,0.051-0.619,0.154-0.885c0.103-0.265,0.241-0.506,0.414-0.723
			c0.173-0.216,0.371-0.411,0.593-0.584c0.222-0.173,0.457-0.325,0.706-0.455V8.117c-0.4-0.281-0.739-0.617-1.015-1.007
			s-0.414-0.86-0.414-1.412c0-0.422,0.078-0.801,0.235-1.137c0.157-0.335,0.374-0.622,0.649-0.86
			c0.275-0.238,0.606-0.422,0.99-0.552c0.384-0.13,0.798-0.195,1.242-0.195c0.465,0,0.885,0.068,1.258,0.203
			c0.373,0.136,0.692,0.325,0.958,0.568c0.266,0.243,0.468,0.536,0.609,0.877c0.141,0.341,0.211,0.722,0.211,1.145
			c0,0.26-0.041,0.506-0.122,0.738c-0.081,0.233-0.187,0.449-0.316,0.649c-0.129,0.2-0.279,0.385-0.447,0.552
			c-0.168,0.168-0.333,0.312-0.495,0.431v0.064c0.238,0.13,0.465,0.279,0.682,0.447c0.216,0.168,0.406,0.359,0.568,0.576
			c0.163,0.217,0.292,0.46,0.39,0.73c0.098,0.271,0.146,0.579,0.146,0.925c0,0.401-0.084,0.771-0.252,1.112
			c-0.168,0.341-0.403,0.639-0.706,0.894c-0.303,0.254-0.671,0.451-1.104,0.592s-0.909,0.211-1.429,0.211
			c-0.509,0-0.977-0.07-1.404-0.211c-0.428-0.141-0.795-0.335-1.104-0.584s-0.552-0.547-0.73-0.893
			C341.778,11.635,341.689,11.25,341.689,10.828z M343.329,10.634c0,0.52,0.184,0.934,0.552,1.241
			c0.368,0.309,0.817,0.463,1.348,0.463c0.498,0,0.906-0.135,1.226-0.405c0.319-0.271,0.479-0.649,0.479-1.137
			c0-0.281-0.065-0.522-0.195-0.723c-0.13-0.201-0.306-0.379-0.528-0.535c-0.222-0.157-0.484-0.301-0.787-0.431
			c-0.303-0.13-0.628-0.265-0.974-0.406c-0.325,0.238-0.593,0.52-0.804,0.845C343.434,9.87,343.329,10.233,343.329,10.634z
			 M345.877,7.646c0.282-0.281,0.496-0.568,0.642-0.86c0.146-0.293,0.219-0.601,0.219-0.926c0-0.454-0.133-0.83-0.398-1.128
			c-0.265-0.298-0.641-0.446-1.128-0.446c-0.4,0-0.736,0.121-1.006,0.365c-0.271,0.243-0.406,0.592-0.406,1.047
			c0,0.26,0.054,0.487,0.162,0.682c0.108,0.195,0.257,0.365,0.446,0.512c0.189,0.146,0.409,0.281,0.658,0.405
			C345.315,7.422,345.585,7.538,345.877,7.646z"/>
		<path fill="#B0BEC5" d="M360.586,10.601h-3.571l-0.828,2.874h-1.916l3.458-10.617h2.208l3.458,10.617h-1.98L360.586,10.601z
			 M360.164,9.124l-0.374-1.299c-0.173-0.562-0.338-1.143-0.495-1.737c-0.157-0.596-0.311-1.186-0.463-1.77h-0.064
			c-0.152,0.595-0.303,1.188-0.455,1.777c-0.152,0.59-0.314,1.167-0.487,1.729l-0.374,1.299L360.164,9.124L360.164,9.124z"/>
		<path fill="#B0BEC5" d="M365.521,2.857h2.078l1.916,5.228l0.698,2.013h0.065l0.682-2.013l1.883-5.228h2.078v10.617h-1.77V8.62
			c0-0.249,0.008-0.52,0.024-0.812c0.016-0.292,0.035-0.587,0.057-0.885c0.021-0.298,0.049-0.59,0.081-0.877
			c0.033-0.286,0.06-0.555,0.081-0.804h-0.065l-0.86,2.419l-1.834,4.822h-0.876l-1.834-4.822l-0.844-2.419h-0.065
			c0.021,0.249,0.046,0.518,0.073,0.804c0.027,0.287,0.054,0.579,0.081,0.877c0.027,0.298,0.049,0.593,0.065,0.885
			c0.017,0.292,0.024,0.562,0.024,0.812v4.854h-1.737L365.521,2.857L365.521,2.857z"/>
	</g>
	<g>
		<path fill="#B0BEC5" d="M438.287,11.364c0.195,0.228,0.44,0.414,0.739,0.56c0.297,0.146,0.603,0.22,0.917,0.22
			c0.324,0,0.63-0.065,0.917-0.195c0.286-0.13,0.539-0.343,0.755-0.641c0.216-0.298,0.392-0.69,0.527-1.178
			c0.136-0.486,0.214-1.088,0.235-1.802c-0.303,0.379-0.66,0.674-1.072,0.885c-0.411,0.211-0.806,0.316-1.185,0.316
			c-0.444,0-0.85-0.064-1.217-0.194c-0.368-0.13-0.686-0.327-0.95-0.593c-0.267-0.266-0.471-0.598-0.617-0.998
			c-0.146-0.4-0.219-0.871-0.219-1.413c0-0.52,0.086-0.987,0.26-1.404c0.173-0.416,0.406-0.771,0.698-1.062s0.636-0.517,1.031-0.674
			c0.395-0.156,0.813-0.235,1.258-0.235c0.498,0,0.974,0.101,1.429,0.301c0.455,0.2,0.853,0.506,1.193,0.917
			c0.34,0.411,0.61,0.934,0.812,1.566c0.2,0.634,0.3,1.383,0.3,2.249c0,1.007-0.11,1.867-0.333,2.581
			c-0.222,0.715-0.52,1.302-0.893,1.762s-0.807,0.798-1.299,1.015c-0.493,0.217-1.004,0.324-1.534,0.324
			c-0.617,0-1.153-0.113-1.607-0.341c-0.455-0.227-0.839-0.503-1.151-0.827L438.287,11.364z M440.479,8.182
			c0.293,0,0.604-0.092,0.935-0.275c0.33-0.185,0.636-0.492,0.917-0.926c-0.097-0.909-0.322-1.569-0.674-1.98
			c-0.353-0.411-0.776-0.617-1.274-0.617c-0.422,0-0.785,0.168-1.087,0.504c-0.303,0.335-0.455,0.817-0.455,1.444
			c0,0.617,0.144,1.08,0.43,1.389C439.556,8.027,439.959,8.182,440.479,8.182z"/>
		<path fill="#B0BEC5" d="M456.08,10.601h-3.571l-0.828,2.874h-1.916l3.458-10.617h2.208l3.458,10.617h-1.979L456.08,10.601z
			 M455.658,9.124l-0.374-1.299c-0.173-0.562-0.338-1.143-0.495-1.737c-0.157-0.596-0.312-1.186-0.463-1.77h-0.064
			c-0.151,0.595-0.303,1.188-0.455,1.777c-0.151,0.59-0.313,1.167-0.486,1.729l-0.374,1.299L455.658,9.124L455.658,9.124z"/>
		<path fill="#B0BEC5" d="M461.015,2.857h2.078l1.916,5.228l0.698,2.013h0.065l0.682-2.013l1.883-5.228h2.078v10.617h-1.771V8.62
			c0-0.249,0.009-0.52,0.024-0.812s0.035-0.587,0.057-0.885c0.021-0.298,0.05-0.59,0.081-0.877c0.033-0.286,0.061-0.555,0.081-0.804
			h-0.064l-0.86,2.419l-1.834,4.822h-0.876l-1.834-4.822l-0.844-2.419h-0.065c0.021,0.249,0.046,0.518,0.073,0.804
			c0.027,0.287,0.054,0.579,0.081,0.877c0.027,0.298,0.049,0.593,0.064,0.885c0.018,0.292,0.024,0.562,0.024,0.812v4.854h-1.737
			L461.015,2.857L461.015,2.857z"/>
	</g>
	<g>
		<path fill="#B0BEC5" d="M533.212,11.948h2.306V5.162h-1.898V3.993c0.52-0.097,0.966-0.213,1.34-0.349
			c0.373-0.136,0.722-0.301,1.047-0.495h1.396v8.799h2.028v1.526h-6.219V11.948L533.212,11.948z"/>
		<path fill="#B0BEC5" d="M545.308,13.669c-1.083,0-1.938-0.462-2.565-1.388c-0.627-0.926-0.941-2.265-0.941-4.018
			c0-1.754,0.314-3.077,0.941-3.97c0.629-0.894,1.482-1.34,2.565-1.34c1.082,0,1.938,0.449,2.564,1.348
			c0.627,0.898,0.94,2.219,0.94,3.962c0,1.753-0.313,3.092-0.94,4.018C547.245,13.207,546.39,13.669,545.308,13.669z
			 M545.308,12.208c0.248,0,0.479-0.067,0.689-0.203c0.211-0.135,0.393-0.359,0.544-0.673s0.271-0.72,0.356-1.218
			c0.087-0.498,0.131-1.115,0.131-1.851c0-0.726-0.044-1.334-0.131-1.827c-0.087-0.492-0.205-0.89-0.356-1.193
			c-0.151-0.303-0.333-0.517-0.544-0.641c-0.211-0.125-0.441-0.187-0.689-0.187c-0.25,0-0.479,0.062-0.689,0.187
			c-0.212,0.124-0.394,0.338-0.544,0.641c-0.152,0.304-0.271,0.701-0.357,1.193c-0.086,0.493-0.13,1.102-0.13,1.827
			c0,0.735,0.044,1.353,0.13,1.851c0.087,0.498,0.205,0.903,0.357,1.218c0.15,0.313,0.332,0.538,0.544,0.673
			C544.829,12.141,545.058,12.208,545.308,12.208z"/>
		<path fill="#B0BEC5" d="M560.714,10.601h-3.572l-0.827,2.874h-1.915l3.458-10.617h2.207l3.459,10.617h-1.98L560.714,10.601z
			 M560.292,9.124l-0.374-1.299c-0.173-0.562-0.339-1.143-0.495-1.737c-0.156-0.596-0.311-1.186-0.463-1.77h-0.064
			c-0.151,0.595-0.303,1.188-0.454,1.777c-0.151,0.59-0.314,1.167-0.486,1.729l-0.374,1.299L560.292,9.124L560.292,9.124z"/>
		<path fill="#B0BEC5" d="M565.65,2.857h2.078l1.914,5.228l0.698,2.013h0.064l0.682-2.013l1.884-5.228h2.078v10.617h-1.77V8.62
			c0-0.249,0.008-0.52,0.023-0.812c0.017-0.292,0.035-0.587,0.058-0.885c0.021-0.298,0.049-0.59,0.081-0.877
			c0.031-0.286,0.06-0.555,0.08-0.804h-0.063l-0.861,2.419l-1.834,4.822h-0.877l-1.834-4.822l-0.844-2.419h-0.065
			c0.021,0.249,0.047,0.518,0.073,0.804c0.026,0.287,0.054,0.579,0.08,0.877c0.027,0.298,0.049,0.593,0.065,0.885
			c0.016,0.292,0.023,0.562,0.023,0.812v4.854h-1.736V2.857H565.65z"/>
	</g>
	<g>
		<path fill="#B0BEC5" d="M637.846,11.948h2.307V5.162h-1.899V3.993c0.521-0.097,0.966-0.213,1.339-0.349s0.724-0.301,1.047-0.495
			h1.396v8.799h2.029v1.526h-6.219V11.948z"/>
		<path fill="#B0BEC5" d="M646.986,11.948h2.307V5.162h-1.9V3.993c0.521-0.097,0.968-0.213,1.341-0.349s0.723-0.301,1.047-0.495
			h1.396v8.799h2.029v1.526h-6.219V11.948z"/>
		<path fill="#B0BEC5" d="M665.347,10.601h-3.569l-0.828,2.874h-1.916l3.458-10.617h2.208l3.457,10.617h-1.98L665.347,10.601z
			 M664.925,9.124l-0.373-1.299c-0.174-0.562-0.338-1.143-0.495-1.737c-0.156-0.596-0.312-1.186-0.463-1.77h-0.063
			c-0.151,0.595-0.305,1.188-0.454,1.777c-0.152,0.59-0.314,1.167-0.488,1.729l-0.373,1.299L664.925,9.124L664.925,9.124z"/>
		<path fill="#B0BEC5" d="M670.283,2.857h2.078l1.916,5.228l0.697,2.013h0.065l0.682-2.013l1.884-5.228h2.077v10.617h-1.77V8.62
			c0-0.249,0.008-0.52,0.024-0.812c0.016-0.292,0.033-0.587,0.057-0.885c0.021-0.298,0.049-0.59,0.081-0.877
			c0.033-0.286,0.06-0.555,0.081-0.804h-0.065l-0.858,2.419l-1.836,4.822h-0.875l-1.836-4.822l-0.845-2.419h-0.063
			c0.021,0.249,0.046,0.518,0.071,0.804c0.027,0.287,0.056,0.579,0.082,0.877c0.027,0.298,0.05,0.593,0.064,0.885
			c0.017,0.292,0.023,0.562,0.023,0.812v4.854h-1.736L670.283,2.857L670.283,2.857z"/>
	</g>
	<g>
		<path fill="#B0BEC5" d="M742.479,11.948h2.307V5.162h-1.899V3.993c0.521-0.097,0.966-0.213,1.339-0.349s0.724-0.301,1.048-0.495
			h1.396v8.799h2.029v1.526h-6.219V11.948z"/>
		<path fill="#B0BEC5" d="M751.035,12.387c0.715-0.692,1.361-1.331,1.939-1.916c0.579-0.584,1.071-1.125,1.479-1.623
			s0.717-0.963,0.934-1.396c0.217-0.433,0.324-0.844,0.324-1.233c0-0.552-0.146-0.987-0.438-1.307
			c-0.292-0.32-0.715-0.479-1.268-0.479c-0.4,0-0.766,0.113-1.096,0.341s-0.636,0.498-0.917,0.812l-1.039-1.039
			c0.476-0.508,0.966-0.9,1.47-1.177c0.503-0.275,1.111-0.414,1.826-0.414c0.498,0,0.947,0.076,1.348,0.228
			c0.401,0.152,0.74,0.365,1.022,0.642c0.281,0.275,0.501,0.608,0.657,0.998c0.156,0.39,0.235,0.823,0.235,1.299
			c0,0.455-0.101,0.917-0.301,1.388c-0.201,0.472-0.471,0.947-0.812,1.429s-0.738,0.978-1.193,1.486
			c-0.453,0.509-0.937,1.033-1.444,1.574c0.271-0.021,0.563-0.046,0.877-0.073c0.313-0.026,0.596-0.04,0.846-0.04h2.531v1.591h-6.98
			L751.035,12.387L751.035,12.387z"/>
		<path fill="#B0BEC5" d="M765.045,2.857h3.571c0.584,0,1.123,0.054,1.614,0.162c0.492,0.108,0.919,0.292,1.275,0.552
			c0.356,0.26,0.638,0.599,0.844,1.015c0.205,0.417,0.31,0.934,0.31,1.551c0,0.584-0.104,1.093-0.31,1.525
			c-0.206,0.434-0.489,0.793-0.853,1.08c-0.363,0.287-0.79,0.498-1.282,0.633c-0.492,0.136-1.025,0.203-1.6,0.203h-1.688v3.896
			h-1.884V2.857H765.045z M768.47,8.068c1.56,0,2.338-0.644,2.338-1.932c0-0.671-0.193-1.134-0.584-1.389
			c-0.39-0.254-0.975-0.381-1.754-0.381h-1.541v3.701L768.47,8.068L768.47,8.068z"/>
		<path fill="#B0BEC5" d="M775.468,2.857h2.078l1.915,5.228l0.698,2.013h0.063l0.683-2.013l1.884-5.228h2.078v10.617h-1.771V8.62
			c0-0.249,0.009-0.52,0.024-0.812s0.035-0.587,0.057-0.885c0.022-0.298,0.049-0.59,0.081-0.877
			c0.032-0.286,0.061-0.555,0.081-0.804h-0.063l-0.861,2.419l-1.834,4.822h-0.877l-1.834-4.822l-0.844-2.419h-0.065
			c0.021,0.249,0.046,0.518,0.073,0.804c0.025,0.287,0.054,0.579,0.08,0.877c0.026,0.298,0.049,0.593,0.064,0.885
			c0.017,0.292,0.024,0.562,0.024,0.812v4.854h-1.736L775.468,2.857L775.468,2.857z"/>
	</g>
	<g>
		<path fill="#B0BEC5" d="M847.666,11.948h2.305V5.162h-1.897V3.993c0.52-0.097,0.965-0.213,1.339-0.349
			c0.373-0.136,0.722-0.301,1.047-0.495h1.396v8.799h2.028v1.526h-6.218V11.948L847.666,11.948z"/>
		<path fill="#B0BEC5" d="M861.091,2.857h3.571c0.585,0,1.123,0.054,1.616,0.162c0.491,0.108,0.916,0.292,1.272,0.552
			c0.357,0.26,0.64,0.599,0.846,1.015c0.205,0.417,0.308,0.934,0.308,1.551c0,0.584-0.103,1.093-0.308,1.525
			c-0.206,0.434-0.489,0.793-0.854,1.08c-0.364,0.287-0.79,0.498-1.282,0.633c-0.493,0.136-1.025,0.203-1.6,0.203h-1.688v3.896
			h-1.883L861.091,2.857L861.091,2.857z M864.517,8.068c1.56,0,2.339-0.644,2.339-1.932c0-0.671-0.195-1.134-0.586-1.389
			c-0.39-0.254-0.974-0.381-1.753-0.381h-1.543v3.701L864.517,8.068L864.517,8.068z"/>
		<path fill="#B0BEC5" d="M871.514,2.857h2.078l1.915,5.228l0.699,2.013h0.063l0.683-2.013l1.883-5.228h2.078v10.617h-1.771V8.62
			c0-0.249,0.009-0.52,0.025-0.812c0.016-0.292,0.034-0.587,0.057-0.885c0.021-0.298,0.05-0.59,0.08-0.877
			c0.033-0.286,0.062-0.555,0.082-0.804h-0.064l-0.86,2.419l-1.834,4.822h-0.877l-1.834-4.822l-0.845-2.419h-0.065
			c0.021,0.249,0.047,0.518,0.073,0.804c0.026,0.287,0.054,0.579,0.081,0.877c0.026,0.298,0.049,0.593,0.063,0.885
			c0.019,0.292,0.025,0.562,0.025,0.812v4.854h-1.737L871.514,2.857L871.514,2.857z"/>
	</g>
	<g>
		<path fill="#B0BEC5" d="M943.126,12.387c0.715-0.692,1.361-1.331,1.941-1.916c0.577-0.584,1.069-1.125,1.477-1.623
			s0.717-0.963,0.934-1.396c0.218-0.433,0.324-0.844,0.324-1.233c0-0.552-0.146-0.987-0.438-1.307
			c-0.293-0.319-0.716-0.479-1.268-0.479c-0.399,0-0.766,0.113-1.096,0.341c-0.331,0.228-0.636,0.498-0.917,0.812l-1.039-1.039
			c0.476-0.508,0.966-0.9,1.469-1.177c0.504-0.275,1.112-0.414,1.826-0.414c0.498,0,0.947,0.076,1.348,0.228
			c0.401,0.152,0.741,0.365,1.023,0.642c0.281,0.275,0.5,0.608,0.657,0.998c0.157,0.39,0.234,0.823,0.234,1.299
			c0,0.455-0.1,0.917-0.301,1.388c-0.2,0.472-0.471,0.947-0.812,1.429c-0.342,0.482-0.739,0.978-1.193,1.486
			c-0.454,0.508-0.938,1.033-1.444,1.574c0.271-0.021,0.562-0.046,0.877-0.073c0.312-0.026,0.596-0.04,0.845-0.04h2.533v1.591
			h-6.982L943.126,12.387L943.126,12.387z"/>
		<path fill="#B0BEC5" d="M957.138,2.857h3.57c0.585,0,1.123,0.054,1.616,0.162c0.492,0.108,0.917,0.292,1.273,0.552
			c0.357,0.26,0.64,0.599,0.845,1.015c0.206,0.417,0.309,0.934,0.309,1.551c0,0.584-0.103,1.093-0.309,1.525
			c-0.205,0.434-0.489,0.793-0.853,1.08c-0.363,0.287-0.791,0.498-1.283,0.633c-0.491,0.136-1.024,0.203-1.6,0.203h-1.688v3.896
			h-1.884V2.857H957.138z M960.562,8.068c1.56,0,2.339-0.644,2.339-1.932c0-0.671-0.194-1.134-0.585-1.389
			c-0.39-0.254-0.975-0.381-1.754-0.381h-1.541v3.701L960.562,8.068L960.562,8.068z"/>
		<path fill="#B0BEC5" d="M967.56,2.857h2.078l1.916,5.228l0.698,2.013h0.065L973,8.085l1.883-5.228h2.078v10.617h-1.77V8.62
			c0-0.249,0.008-0.52,0.023-0.812s0.034-0.587,0.057-0.885c0.021-0.298,0.05-0.59,0.081-0.877c0.033-0.286,0.061-0.555,0.081-0.804
			h-0.064l-0.859,2.419l-1.835,4.822h-0.876l-1.835-4.822l-0.845-2.419h-0.064c0.021,0.249,0.046,0.518,0.072,0.804
			c0.027,0.287,0.055,0.579,0.082,0.877c0.027,0.298,0.049,0.593,0.064,0.885c0.017,0.292,0.023,0.562,0.023,0.812v4.854h-1.737
			V2.857L967.56,2.857z"/>
	</g>
	<g>
		<g>
			<path fill="#ECEFF1" d="M18.861,70.898h1.235l2.622,7.354l0.988,2.774h0.076l0.95-2.774l2.622-7.354h1.235V83.42h-0.855v-8.227
				c0-0.52,0.013-1.08,0.038-1.682c0.025-0.602,0.051-1.169,0.076-1.701h-0.076l-0.988,2.756l-2.679,7.485h-0.779l-2.698-7.485
				L19.64,71.81h-0.076c0.025,0.532,0.051,1.1,0.076,1.701c0.025,0.601,0.038,1.162,0.038,1.682v8.227h-0.817V70.898z"/>
			<path fill="#ECEFF1" d="M32.617,72.096c-0.216,0-0.396-0.069-0.542-0.209c-0.146-0.139-0.219-0.316-0.219-0.532
				c0-0.24,0.073-0.427,0.219-0.561c0.146-0.133,0.326-0.199,0.542-0.199c0.215,0,0.396,0.066,0.542,0.199
				c0.146,0.134,0.218,0.32,0.218,0.561c0,0.216-0.073,0.394-0.218,0.532C33.013,72.026,32.833,72.096,32.617,72.096z M32.18,74.3
				h0.836v9.12H32.18V74.3z"/>
			<path fill="#ECEFF1" d="M36.018,81.14c0-1,0.475-1.767,1.425-2.299c0.95-0.532,2.438-0.912,4.465-1.14
				c0.013-0.342-0.009-0.688-0.066-1.036c-0.057-0.348-0.165-0.658-0.323-0.931c-0.158-0.273-0.38-0.494-0.665-0.665
				c-0.285-0.171-0.649-0.257-1.092-0.257c-0.621,0-1.185,0.121-1.691,0.361c-0.507,0.241-0.912,0.475-1.216,0.703l-0.38-0.627
				c0.165-0.114,0.364-0.24,0.599-0.38c0.235-0.14,0.494-0.267,0.779-0.38c0.285-0.114,0.599-0.212,0.94-0.295
				c0.342-0.082,0.697-0.123,1.064-0.123c0.544,0,1,0.092,1.368,0.275c0.367,0.184,0.665,0.434,0.893,0.75
				c0.228,0.317,0.39,0.688,0.484,1.111c0.095,0.425,0.143,0.884,0.143,1.378v5.833h-0.703l-0.095-1.178h-0.038
				c-0.469,0.367-0.972,0.693-1.511,0.979c-0.538,0.285-1.111,0.427-1.719,0.427c-0.368,0-0.709-0.051-1.026-0.151
				c-0.317-0.102-0.599-0.253-0.846-0.456c-0.247-0.202-0.44-0.462-0.58-0.779C36.087,81.944,36.018,81.57,36.018,81.14z
				 M36.892,81.102c0,0.659,0.19,1.128,0.57,1.406c0.38,0.279,0.829,0.418,1.349,0.418c0.532,0,1.039-0.126,1.52-0.38
				c0.481-0.253,1.007-0.62,1.577-1.102v-3.098c-0.938,0.114-1.726,0.254-2.366,0.418c-0.64,0.165-1.156,0.361-1.548,0.589
				c-0.393,0.229-0.674,0.488-0.845,0.779C36.977,80.425,36.892,80.747,36.892,81.102z"/>
			<path fill="#ECEFF1" d="M46.012,74.3h0.722l0.076,1.406h0.057c0.405-0.469,0.858-0.858,1.358-1.169
				c0.5-0.31,1.004-0.465,1.511-0.465c0.734,0,1.298,0.168,1.691,0.503c0.393,0.336,0.671,0.789,0.836,1.358
				c0.532-0.569,1.048-1.022,1.548-1.358c0.5-0.335,1.017-0.503,1.549-0.503c1.824,0,2.736,1.165,2.736,3.496v5.852h-0.855v-5.738
				c0-0.975-0.165-1.693-0.494-2.156c-0.33-0.462-0.842-0.693-1.539-0.693c-0.823,0-1.735,0.57-2.736,1.71v6.878h-0.836v-5.738
				c0-0.975-0.165-1.693-0.494-2.156c-0.33-0.462-0.849-0.693-1.558-0.693c-0.823,0-1.735,0.57-2.736,1.71v6.878h-0.836V74.3z"/>
			<path fill="#ECEFF1" d="M61.876,72.096c-0.216,0-0.396-0.069-0.542-0.209c-0.146-0.139-0.219-0.316-0.219-0.532
				c0-0.24,0.073-0.427,0.219-0.561c0.146-0.133,0.326-0.199,0.542-0.199c0.215,0,0.396,0.066,0.542,0.199
				c0.146,0.134,0.218,0.32,0.218,0.561c0,0.216-0.073,0.394-0.218,0.532C62.272,72.026,62.092,72.096,61.876,72.096z M61.439,74.3
				h0.836v9.12h-0.836V74.3z"/>
			<path fill="#ECEFF1" d="M68.868,77.131c0-0.988,0.13-1.881,0.39-2.679c0.259-0.798,0.624-1.479,1.092-2.043
				c0.469-0.563,1.032-0.994,1.691-1.292c0.659-0.297,1.387-0.446,2.185-0.446c0.722,0,1.362,0.152,1.919,0.456
				c0.558,0.304,1,0.652,1.33,1.045l-0.532,0.57c-0.33-0.38-0.722-0.688-1.178-0.922c-0.456-0.234-0.969-0.352-1.539-0.352
				c-0.684,0-1.301,0.133-1.853,0.399c-0.551,0.266-1.02,0.643-1.406,1.13c-0.387,0.488-0.681,1.08-0.883,1.777
				c-0.203,0.696-0.304,1.481-0.304,2.355s0.101,1.662,0.304,2.365c0.202,0.703,0.494,1.302,0.874,1.796s0.839,0.877,1.378,1.149
				c0.538,0.272,1.143,0.408,1.814,0.408c0.646,0,1.219-0.126,1.719-0.38c0.5-0.253,0.979-0.64,1.435-1.159l0.532,0.552
				c-0.482,0.558-1.02,0.994-1.615,1.311c-0.596,0.316-1.298,0.475-2.109,0.475c-0.773,0-1.482-0.151-2.128-0.455
				c-0.646-0.305-1.2-0.738-1.663-1.302c-0.463-0.564-0.82-1.248-1.074-2.052C68.995,79.034,68.868,78.132,68.868,77.131z"/>
			<path fill="#ECEFF1" d="M79.527,78.879c0-0.747,0.111-1.418,0.333-2.014c0.222-0.596,0.52-1.099,0.893-1.511
				c0.374-0.411,0.798-0.729,1.273-0.95c0.475-0.222,0.966-0.332,1.473-0.332c1.089,0,1.944,0.367,2.565,1.102
				c0.621,0.735,0.931,1.773,0.931,3.116c0,0.114,0,0.228,0,0.342c0,0.114-0.013,0.229-0.038,0.342h-6.574
				c0.013,0.57,0.102,1.1,0.266,1.587s0.396,0.905,0.694,1.254c0.297,0.349,0.655,0.621,1.073,0.817
				c0.418,0.196,0.887,0.294,1.406,0.294c0.494,0,0.94-0.072,1.339-0.219c0.399-0.146,0.77-0.345,1.111-0.598l0.342,0.646
				c-0.368,0.216-0.77,0.418-1.207,0.608c-0.437,0.189-0.991,0.284-1.663,0.284c-0.583,0-1.13-0.107-1.644-0.322
				c-0.513-0.216-0.959-0.529-1.339-0.94c-0.38-0.412-0.681-0.912-0.903-1.501C79.638,80.294,79.527,79.626,79.527,78.879z
				 M86.196,78.328c0-1.178-0.241-2.062-0.722-2.65c-0.481-0.589-1.134-0.884-1.957-0.884c-0.393,0-0.767,0.082-1.121,0.247
				s-0.674,0.398-0.959,0.703c-0.285,0.304-0.52,0.674-0.703,1.111c-0.184,0.437-0.301,0.928-0.352,1.473H86.196z"/>
			<path fill="#ECEFF1" d="M89.464,74.3h0.722l0.076,1.406h0.057c0.468-0.469,0.95-0.858,1.444-1.169
				c0.494-0.31,1.058-0.465,1.691-0.465c0.95,0,1.646,0.284,2.09,0.854c0.443,0.57,0.665,1.451,0.665,2.642v5.852h-0.836v-5.738
				c0-0.975-0.162-1.693-0.485-2.156c-0.323-0.462-0.858-0.693-1.605-0.693c-0.544,0-1.039,0.143-1.482,0.428
				c-0.443,0.284-0.944,0.712-1.501,1.282v6.878h-0.836V74.3z"/>
			<path fill="#ECEFF1" d="M99.781,75.021h-1.425v-0.646L99.8,74.3l0.114-2.641h0.722V74.3h2.641v0.722h-2.641v5.947
				c0,0.292,0.022,0.555,0.066,0.789c0.044,0.234,0.124,0.437,0.238,0.607c0.114,0.171,0.269,0.304,0.465,0.399
				c0.196,0.095,0.453,0.143,0.77,0.143c0.177,0,0.371-0.028,0.58-0.086c0.209-0.057,0.396-0.123,0.561-0.199l0.228,0.684
				c-0.266,0.102-0.532,0.184-0.798,0.247c-0.266,0.063-0.494,0.095-0.684,0.095c-0.443,0-0.811-0.066-1.102-0.199
				c-0.291-0.133-0.525-0.319-0.703-0.561c-0.178-0.24-0.301-0.532-0.371-0.874c-0.07-0.342-0.104-0.715-0.104-1.121v-5.872H99.781z
				"/>
			<path fill="#ECEFF1" d="M104.549,78.879c0-0.747,0.111-1.418,0.333-2.014c0.222-0.596,0.52-1.099,0.893-1.511
				c0.374-0.411,0.798-0.729,1.273-0.95c0.475-0.222,0.966-0.332,1.473-0.332c1.089,0,1.944,0.367,2.565,1.102
				c0.621,0.735,0.931,1.773,0.931,3.116c0,0.114,0,0.228,0,0.342c0,0.114-0.013,0.229-0.038,0.342h-6.574
				c0.013,0.57,0.102,1.1,0.266,1.587s0.396,0.905,0.694,1.254c0.297,0.349,0.655,0.621,1.073,0.817
				c0.418,0.196,0.887,0.294,1.406,0.294c0.494,0,0.94-0.072,1.339-0.219c0.399-0.146,0.77-0.345,1.111-0.598l0.342,0.646
				c-0.368,0.216-0.77,0.418-1.207,0.608c-0.437,0.189-0.991,0.284-1.663,0.284c-0.583,0-1.13-0.107-1.644-0.322
				c-0.513-0.216-0.959-0.529-1.339-0.94c-0.38-0.412-0.681-0.912-0.903-1.501C104.66,80.294,104.549,79.626,104.549,78.879z
				 M111.219,78.328c0-1.178-0.241-2.062-0.722-2.65c-0.481-0.589-1.134-0.884-1.957-0.884c-0.393,0-0.767,0.082-1.121,0.247
				s-0.674,0.398-0.959,0.703c-0.285,0.304-0.52,0.674-0.703,1.111c-0.184,0.437-0.301,0.928-0.352,1.473H111.219z"/>
			<path fill="#ECEFF1" d="M114.486,74.3h0.722l0.076,1.691h0.057c0.304-0.57,0.674-1.032,1.111-1.388
				c0.437-0.354,0.928-0.531,1.473-0.531c0.177,0,0.335,0.013,0.475,0.038c0.139,0.025,0.285,0.075,0.437,0.151l-0.19,0.76
				c-0.152-0.062-0.285-0.104-0.399-0.123c-0.114-0.019-0.26-0.028-0.437-0.028c-0.406,0-0.833,0.174-1.283,0.522
				c-0.45,0.349-0.852,0.953-1.207,1.814v6.213h-0.836L114.486,74.3L114.486,74.3z"/>
		</g>
		<g>
			<path fill="#ECEFF1" d="M21.38,119.713c-0.912,0-1.633-0.39-2.162-1.17c-0.529-0.78-0.793-1.908-0.793-3.387
				c0-1.478,0.265-2.593,0.793-3.346c0.529-0.752,1.25-1.128,2.162-1.128s1.633,0.378,2.162,1.135
				c0.529,0.758,0.793,1.87,0.793,3.339c0,1.479-0.265,2.606-0.793,3.387C23.013,119.323,22.292,119.713,21.38,119.713z
				 M21.38,118.481c0.209,0,0.404-0.057,0.582-0.171c0.178-0.114,0.331-0.303,0.458-0.568c0.127-0.264,0.228-0.606,0.301-1.025
				c0.073-0.42,0.109-0.939,0.109-1.561c0-0.61-0.037-1.124-0.109-1.539c-0.073-0.415-0.173-0.75-0.301-1.006
				c-0.128-0.255-0.281-0.436-0.458-0.54c-0.178-0.105-0.372-0.157-0.582-0.157s-0.404,0.052-0.582,0.157
				c-0.178,0.104-0.331,0.285-0.458,0.54c-0.128,0.256-0.228,0.591-0.301,1.006c-0.073,0.415-0.11,0.929-0.11,1.539
				c0,0.621,0.037,1.141,0.11,1.561c0.073,0.419,0.173,0.762,0.301,1.025c0.128,0.266,0.281,0.454,0.458,0.568
				C20.975,118.424,21.17,118.481,21.38,118.481z"/>
			<path fill="#ECEFF1" d="M26.443,113.966c0-0.31,0.098-0.565,0.294-0.766c0.196-0.201,0.44-0.302,0.732-0.302
				c0.292,0,0.534,0.101,0.725,0.302c0.192,0.2,0.288,0.456,0.288,0.766c0,0.311-0.096,0.566-0.288,0.767
				c-0.191,0.201-0.433,0.301-0.725,0.301c-0.292,0-0.536-0.1-0.732-0.301C26.541,114.532,26.443,114.276,26.443,113.966z
				 M26.443,118.646c0-0.31,0.098-0.565,0.294-0.766c0.196-0.201,0.44-0.302,0.732-0.302c0.292,0,0.534,0.101,0.725,0.302
				c0.192,0.2,0.288,0.456,0.288,0.766c0,0.311-0.096,0.566-0.288,0.767c-0.191,0.2-0.433,0.301-0.725,0.301
				c-0.292,0-0.536-0.101-0.732-0.301C26.541,119.212,26.443,118.956,26.443,118.646z"/>
			<path fill="#ECEFF1" d="M33.531,119.713c-0.912,0-1.633-0.39-2.162-1.17c-0.529-0.78-0.793-1.908-0.793-3.387
				c0-1.478,0.265-2.593,0.793-3.346c0.529-0.752,1.25-1.128,2.162-1.128c0.912,0,1.633,0.378,2.162,1.135
				c0.529,0.758,0.793,1.87,0.793,3.339c0,1.479-0.265,2.606-0.793,3.387C35.164,119.323,34.443,119.713,33.531,119.713z
				 M33.531,118.481c0.209,0,0.404-0.057,0.582-0.171c0.178-0.114,0.331-0.303,0.458-0.568c0.127-0.264,0.228-0.606,0.301-1.025
				c0.073-0.42,0.109-0.939,0.109-1.561c0-0.61-0.037-1.124-0.109-1.539c-0.073-0.415-0.173-0.75-0.301-1.006
				c-0.128-0.255-0.281-0.436-0.458-0.54c-0.178-0.105-0.372-0.157-0.582-0.157c-0.21,0-0.404,0.052-0.582,0.157
				c-0.178,0.104-0.331,0.285-0.458,0.54c-0.128,0.256-0.228,0.591-0.301,1.006c-0.073,0.415-0.11,0.929-0.11,1.539
				c0,0.621,0.037,1.141,0.11,1.561c0.073,0.419,0.173,0.762,0.301,1.025c0.128,0.266,0.281,0.454,0.458,0.568
				C33.126,118.424,33.321,118.481,33.531,118.481z"/>
			<path fill="#ECEFF1" d="M41.234,119.713c-0.912,0-1.633-0.39-2.162-1.17c-0.529-0.78-0.793-1.908-0.793-3.387
				c0-1.478,0.265-2.593,0.793-3.346c0.529-0.752,1.25-1.128,2.162-1.128s1.633,0.378,2.162,1.135
				c0.529,0.758,0.793,1.87,0.793,3.339c0,1.479-0.265,2.606-0.793,3.387C42.867,119.323,42.146,119.713,41.234,119.713z
				 M41.234,118.481c0.209,0,0.404-0.057,0.582-0.171c0.178-0.114,0.331-0.303,0.458-0.568c0.127-0.264,0.228-0.606,0.301-1.025
				c0.073-0.42,0.109-0.939,0.109-1.561c0-0.61-0.037-1.124-0.109-1.539c-0.073-0.415-0.173-0.75-0.301-1.006
				c-0.128-0.255-0.281-0.436-0.458-0.54c-0.178-0.105-0.372-0.157-0.582-0.157s-0.404,0.052-0.582,0.157
				c-0.178,0.104-0.331,0.285-0.458,0.54c-0.128,0.256-0.228,0.591-0.301,1.006c-0.073,0.415-0.11,0.929-0.11,1.539
				c0,0.621,0.037,1.141,0.11,1.561c0.073,0.419,0.173,0.762,0.301,1.025c0.128,0.266,0.281,0.454,0.458,0.568
				C40.829,118.424,41.024,118.481,41.234,118.481z"/>
		</g>
		<g>
			<path fill="#ECEFF1" d="M113.921,119.713c-0.912,0-1.633-0.39-2.162-1.17c-0.529-0.78-0.793-1.908-0.793-3.387
				c0-1.478,0.265-2.593,0.793-3.346c0.529-0.752,1.25-1.128,2.162-1.128s1.633,0.378,2.162,1.135
				c0.529,0.758,0.793,1.87,0.793,3.339c0,1.479-0.265,2.606-0.793,3.387C115.554,119.323,114.833,119.713,113.921,119.713z
				 M113.921,118.481c0.209,0,0.404-0.057,0.582-0.171c0.178-0.114,0.331-0.303,0.458-0.568c0.127-0.264,0.228-0.606,0.301-1.025
				c0.073-0.42,0.109-0.939,0.109-1.561c0-0.61-0.037-1.124-0.109-1.539c-0.073-0.415-0.173-0.75-0.301-1.006
				c-0.128-0.255-0.281-0.436-0.458-0.54c-0.178-0.105-0.372-0.157-0.582-0.157s-0.404,0.052-0.582,0.157
				c-0.178,0.104-0.331,0.285-0.458,0.54c-0.128,0.256-0.228,0.591-0.301,1.006c-0.073,0.415-0.11,0.929-0.11,1.539
				c0,0.621,0.037,1.141,0.11,1.561c0.073,0.419,0.173,0.762,0.301,1.025c0.128,0.266,0.281,0.454,0.458,0.568
				C113.516,118.424,113.711,118.481,113.921,118.481z"/>
			<path fill="#ECEFF1" d="M120.667,116.101c-0.629,0-1.143-0.248-1.539-0.746c-0.397-0.497-0.595-1.197-0.595-2.1
				c0-0.903,0.198-1.599,0.595-2.087c0.396-0.488,0.91-0.732,1.539-0.732s1.143,0.244,1.54,0.732
				c0.397,0.488,0.595,1.184,0.595,2.087c0,0.902-0.198,1.603-0.595,2.1C121.81,115.853,121.296,116.101,120.667,116.101z
				 M120.667,115.184c0.292,0,0.531-0.152,0.719-0.458c0.187-0.306,0.28-0.796,0.28-1.471c0-0.675-0.094-1.161-0.28-1.458
				c-0.188-0.296-0.427-0.444-0.719-0.444s-0.531,0.148-0.718,0.444c-0.187,0.297-0.28,0.783-0.28,1.458
				c0,0.675,0.093,1.165,0.28,1.471S120.375,115.184,120.667,115.184z M120.941,119.713l4.885-9.277h0.958l-4.872,9.277H120.941z
				 M127.084,119.713c-0.629,0-1.143-0.248-1.539-0.745c-0.397-0.498-0.595-1.198-0.595-2.101c0-0.903,0.198-1.599,0.595-2.087
				c0.396-0.488,0.91-0.732,1.539-0.732s1.143,0.244,1.54,0.732c0.396,0.488,0.595,1.184,0.595,2.087
				c0,0.902-0.199,1.603-0.595,2.101C128.227,119.465,127.714,119.713,127.084,119.713z M127.084,118.796
				c0.292,0,0.531-0.152,0.718-0.458c0.187-0.306,0.281-0.796,0.281-1.471c0-0.675-0.094-1.161-0.281-1.457
				c-0.187-0.297-0.426-0.445-0.718-0.445s-0.531,0.148-0.718,0.445c-0.187,0.296-0.281,0.782-0.281,1.457
				c0,0.675,0.094,1.165,0.281,1.471C126.553,118.644,126.792,118.796,127.084,118.796z"/>
		</g>
		<g id="schedule_12_">
			<g>
				<g>
					<g opacity="0.9">
						<path fill="#ECEFF1" d="M89.408,105.025c-5.336,0-9.699,4.364-9.699,9.699s4.363,9.699,9.699,9.699
							c5.334,0,9.697-4.364,9.697-9.699S94.742,105.025,89.408,105.025z M89.408,122.483c-4.268,0-7.76-3.491-7.76-7.759
							c0-4.269,3.492-7.761,7.76-7.761c4.266,0,7.758,3.492,7.758,7.761C97.166,118.992,93.674,122.483,89.408,122.483z"/>
					</g>
				</g>
				<g>
					<polygon opacity="0.9" fill="#ECEFF1" enable-background="new    " points="89.893,109.876 88.438,109.876 88.438,115.694 
						93.48,118.798 94.258,117.537 89.893,114.917 					"/>
				</g>
			</g>
		</g>
	</g>
	<g>
		<g>
			<path fill="#ECEFF1" d="M18.861,168.754h3.382c1.267,0,2.273,0.244,3.021,0.732c0.747,0.487,1.121,1.257,1.121,2.308
				c0,0.659-0.187,1.232-0.561,1.72c-0.374,0.488-0.928,0.827-1.663,1.017v0.076c0.924,0.14,1.653,0.459,2.185,0.959
				c0.532,0.501,0.798,1.188,0.798,2.062c0,0.608-0.111,1.142-0.333,1.597c-0.222,0.457-0.535,0.836-0.94,1.141
				c-0.406,0.304-0.893,0.531-1.463,0.685c-0.57,0.151-1.21,0.228-1.919,0.228H18.86L18.861,168.754L18.861,168.754z
				 M21.901,174.265c1.292,0,2.217-0.206,2.774-0.618c0.557-0.411,0.836-1.035,0.836-1.871c0-0.811-0.298-1.396-0.893-1.758
				c-0.596-0.36-1.47-0.541-2.622-0.541h-2.261v4.788H21.901z M22.262,180.555c1.254,0,2.239-0.234,2.955-0.703
				c0.715-0.47,1.073-1.211,1.073-2.225c0-0.898-0.349-1.567-1.045-2.004c-0.697-0.438-1.691-0.655-2.983-0.655h-2.527v5.587H22.262
				z"/>
			<path fill="#ECEFF1" d="M30.185,169.951c-0.216,0-0.396-0.069-0.542-0.209c-0.146-0.139-0.219-0.316-0.219-0.532
				c0-0.24,0.073-0.427,0.219-0.561c0.146-0.133,0.326-0.199,0.542-0.199c0.215,0,0.396,0.066,0.542,0.199
				c0.146,0.134,0.218,0.32,0.218,0.561c0,0.216-0.073,0.394-0.218,0.532C30.581,169.882,30.4,169.951,30.185,169.951z
				 M29.748,172.155h0.836v9.121h-0.836V172.155z"/>
			<path fill="#ECEFF1" d="M34.099,167.614h0.836v12.56c0,0.202,0.038,0.352,0.114,0.446c0.076,0.095,0.171,0.144,0.285,0.144
				c0.038,0,0.079,0,0.124,0s0.117-0.014,0.219-0.039l0.152,0.685c-0.089,0.024-0.178,0.048-0.266,0.065
				c-0.089,0.021-0.203,0.028-0.342,0.028c-0.748,0-1.121-0.479-1.121-1.442L34.099,167.614L34.099,167.614z"/>
			<path fill="#ECEFF1" d="M38.602,167.614h0.836v12.56c0,0.202,0.038,0.352,0.114,0.446c0.076,0.095,0.171,0.144,0.285,0.144
				c0.038,0,0.079,0,0.124,0s0.117-0.014,0.219-0.039l0.152,0.685c-0.089,0.024-0.178,0.048-0.266,0.065
				c-0.089,0.021-0.203,0.028-0.342,0.028c-0.748,0-1.121-0.479-1.121-1.442L38.602,167.614L38.602,167.614z"/>
			<path fill="#ECEFF1" d="M42.344,184.609c0.126,0.031,0.26,0.048,0.399,0.048c0.57,0,1.045-0.228,1.425-0.685
				c0.38-0.455,0.684-1.033,0.912-1.729l0.247-0.799l-3.743-9.291h0.912l2.204,5.738c0.139,0.38,0.294,0.798,0.465,1.253
				c0.171,0.457,0.345,0.888,0.522,1.293h0.076c0.139-0.405,0.282-0.836,0.427-1.293c0.145-0.455,0.282-0.874,0.409-1.253
				l1.957-5.738h0.855l-3.61,10.26c-0.126,0.38-0.282,0.751-0.465,1.112c-0.184,0.359-0.399,0.684-0.646,0.969
				s-0.532,0.513-0.855,0.684c-0.323,0.172-0.688,0.258-1.092,0.258c-0.342,0-0.653-0.063-0.931-0.19l0.19-0.74
				C42.104,184.543,42.218,184.578,42.344,184.609z"/>
			<path fill="#ECEFF1" d="M54.865,179.225c0.304,0.531,0.649,0.911,1.036,1.14c0.386,0.229,0.846,0.342,1.377,0.342
				c0.76,0,1.324-0.229,1.691-0.692c0.367-0.463,0.551-1.207,0.551-2.232v-9.025h0.874v9.12c0,0.507-0.057,0.979-0.171,1.416
				c-0.114,0.437-0.294,0.819-0.541,1.149c-0.247,0.328-0.567,0.589-0.96,0.779c-0.393,0.188-0.874,0.283-1.444,0.283
				c-0.697,0-1.305-0.158-1.824-0.475c-0.52-0.316-0.938-0.772-1.254-1.368L54.865,179.225z"/>
			<path fill="#ECEFF1" d="M63.187,176.734c0-0.76,0.111-1.44,0.333-2.043c0.222-0.601,0.52-1.104,0.893-1.51
				c0.373-0.406,0.808-0.716,1.302-0.932c0.494-0.215,1.013-0.322,1.558-0.322c0.544,0,1.067,0.107,1.567,0.322
				c0.5,0.216,0.937,0.526,1.311,0.932c0.374,0.405,0.671,0.909,0.893,1.51c0.221,0.603,0.332,1.283,0.332,2.043
				c0,0.76-0.111,1.435-0.332,2.023c-0.222,0.589-0.52,1.086-0.893,1.491c-0.374,0.406-0.811,0.716-1.311,0.932
				c-0.5,0.215-1.023,0.322-1.567,0.322c-0.545,0-1.064-0.107-1.558-0.322c-0.494-0.216-0.928-0.525-1.302-0.932
				c-0.374-0.405-0.671-0.902-0.893-1.491S63.187,177.494,63.187,176.734z M64.061,176.734c0,0.596,0.083,1.14,0.247,1.634
				c0.164,0.493,0.39,0.919,0.675,1.272c0.285,0.354,0.624,0.631,1.016,0.826c0.392,0.196,0.817,0.295,1.273,0.295
				s0.883-0.099,1.282-0.295c0.399-0.195,0.741-0.472,1.026-0.826c0.285-0.354,0.51-0.779,0.675-1.272
				c0.165-0.494,0.247-1.038,0.247-1.634c0-0.608-0.083-1.159-0.247-1.653c-0.165-0.494-0.39-0.921-0.675-1.282
				c-0.285-0.361-0.627-0.64-1.026-0.836c-0.399-0.196-0.827-0.295-1.282-0.295c-0.456,0-0.881,0.099-1.273,0.295
				c-0.392,0.196-0.731,0.475-1.016,0.836c-0.285,0.361-0.51,0.788-0.675,1.282S64.061,176.126,64.061,176.734z"/>
			<path fill="#ECEFF1" d="M74.112,172.155h0.722l0.076,1.406h0.057c0.468-0.469,0.95-0.858,1.444-1.169
				c0.494-0.31,1.058-0.465,1.691-0.465c0.95,0,1.646,0.284,2.09,0.854c0.443,0.57,0.665,1.451,0.665,2.642v5.853h-0.836v-5.738
				c0-0.975-0.162-1.693-0.485-2.156c-0.323-0.462-0.858-0.693-1.605-0.693c-0.544,0-1.039,0.143-1.482,0.428
				c-0.443,0.284-0.944,0.712-1.501,1.282v6.877h-0.836V172.155z"/>
			<path fill="#ECEFF1" d="M83.459,176.734c0-0.747,0.111-1.418,0.333-2.014c0.222-0.596,0.52-1.099,0.893-1.511
				c0.374-0.411,0.798-0.729,1.273-0.95c0.475-0.222,0.966-0.332,1.473-0.332c1.089,0,1.944,0.367,2.565,1.102
				c0.621,0.735,0.931,1.773,0.931,3.116c0,0.114,0,0.228,0,0.342c0,0.114-0.013,0.229-0.038,0.342h-6.574
				c0.013,0.57,0.102,1.1,0.266,1.587c0.164,0.486,0.396,0.904,0.694,1.254c0.297,0.35,0.655,0.621,1.073,0.816
				c0.418,0.197,0.887,0.295,1.406,0.295c0.494,0,0.94-0.072,1.339-0.219c0.399-0.146,0.77-0.346,1.111-0.599l0.342,0.646
				c-0.368,0.217-0.77,0.418-1.207,0.608c-0.437,0.189-0.991,0.284-1.663,0.284c-0.583,0-1.13-0.107-1.644-0.322
				c-0.513-0.216-0.959-0.529-1.339-0.939c-0.38-0.412-0.681-0.912-0.903-1.502C83.57,178.149,83.459,177.481,83.459,176.734z
				 M90.129,176.184c0-1.178-0.241-2.062-0.722-2.65c-0.481-0.589-1.134-0.884-1.957-0.884c-0.393,0-0.767,0.082-1.121,0.247
				s-0.674,0.398-0.959,0.703c-0.285,0.304-0.52,0.674-0.703,1.111c-0.184,0.437-0.301,0.928-0.352,1.473H90.129z"/>
			<path fill="#ECEFF1" d="M92.75,179.622c0.393,0.33,0.811,0.604,1.254,0.827c0.443,0.222,0.994,0.332,1.653,0.332
				c0.722,0,1.264-0.182,1.625-0.541c0.361-0.361,0.542-0.782,0.542-1.264c0-0.278-0.066-0.525-0.199-0.742
				c-0.133-0.215-0.307-0.399-0.522-0.551c-0.216-0.152-0.453-0.285-0.712-0.399c-0.26-0.113-0.523-0.222-0.789-0.323
				c-0.342-0.126-0.688-0.259-1.036-0.398c-0.349-0.14-0.662-0.307-0.94-0.504c-0.279-0.196-0.503-0.43-0.675-0.703
				c-0.171-0.271-0.256-0.604-0.256-0.997c0-0.329,0.063-0.643,0.19-0.94c0.127-0.297,0.316-0.558,0.57-0.779
				c0.253-0.222,0.561-0.396,0.921-0.522c0.361-0.126,0.782-0.189,1.264-0.189c0.481,0,0.953,0.089,1.415,0.266
				c0.462,0.178,0.858,0.405,1.188,0.684l-0.456,0.59c-0.304-0.229-0.627-0.421-0.969-0.58c-0.342-0.158-0.748-0.237-1.216-0.237
				c-0.355,0-0.659,0.048-0.912,0.143c-0.253,0.095-0.465,0.219-0.637,0.37c-0.171,0.152-0.297,0.33-0.38,0.532
				c-0.083,0.203-0.124,0.405-0.124,0.608c0,0.266,0.06,0.49,0.181,0.674c0.12,0.185,0.282,0.346,0.484,0.484
				c0.203,0.14,0.434,0.264,0.693,0.371c0.259,0.107,0.522,0.212,0.789,0.313c0.354,0.14,0.709,0.278,1.064,0.418
				c0.355,0.14,0.675,0.311,0.959,0.513c0.285,0.203,0.516,0.453,0.694,0.751c0.177,0.298,0.266,0.668,0.266,1.111
				c0,0.342-0.066,0.668-0.199,0.979s-0.333,0.583-0.599,0.816c-0.266,0.234-0.589,0.422-0.969,0.561
				c-0.38,0.141-0.817,0.209-1.311,0.209c-0.684,0-1.311-0.123-1.881-0.37c-0.57-0.247-1.058-0.54-1.463-0.884L92.75,179.622z"/>
		</g>
		<g>
			<path fill="#ECEFF1" d="M18.397,216.484c0.602-0.582,1.147-1.121,1.635-1.613c0.488-0.493,0.903-0.949,1.245-1.368
				c0.342-0.42,0.604-0.812,0.787-1.177s0.274-0.712,0.274-1.04c0-0.466-0.124-0.832-0.37-1.103
				c-0.247-0.27-0.602-0.402-1.067-0.402c-0.337,0-0.646,0.096-0.923,0.287c-0.279,0.19-0.536,0.42-0.773,0.684l-0.875-0.875
				c0.401-0.429,0.814-0.76,1.238-0.992c0.424-0.232,0.937-0.349,1.539-0.349c0.42,0,0.798,0.063,1.136,0.19
				c0.338,0.129,0.625,0.309,0.862,0.541c0.237,0.231,0.422,0.514,0.554,0.842c0.132,0.328,0.198,0.692,0.198,1.095
				c0,0.383-0.084,0.772-0.253,1.17c-0.169,0.396-0.397,0.798-0.684,1.204c-0.288,0.406-0.623,0.822-1.006,1.252
				c-0.383,0.429-0.789,0.871-1.218,1.327c0.228-0.019,0.474-0.039,0.739-0.062c0.265-0.022,0.501-0.034,0.711-0.034h2.135v1.342
				h-5.884V216.484z"/>
			<path fill="#ECEFF1" d="M26.443,211.818c0-0.31,0.098-0.564,0.294-0.766c0.196-0.201,0.44-0.302,0.732-0.302
				c0.292,0,0.534,0.101,0.725,0.302c0.192,0.2,0.288,0.456,0.288,0.766c0,0.312-0.096,0.566-0.288,0.768
				c-0.191,0.201-0.433,0.301-0.725,0.301c-0.292,0-0.536-0.1-0.732-0.301C26.541,212.386,26.443,212.13,26.443,211.818z
				 M26.443,216.499c0-0.31,0.098-0.565,0.294-0.767c0.196-0.2,0.44-0.301,0.732-0.301c0.292,0,0.534,0.101,0.725,0.301
				c0.192,0.201,0.288,0.457,0.288,0.767c0,0.312-0.096,0.565-0.288,0.767c-0.191,0.2-0.433,0.301-0.725,0.301
				c-0.292,0-0.536-0.101-0.732-0.301C26.541,217.064,26.443,216.811,26.443,216.499z"/>
			<path fill="#ECEFF1" d="M31.109,215.322c0.264,0.265,0.565,0.49,0.903,0.678c0.337,0.188,0.726,0.279,1.163,0.279
				c0.474,0,0.86-0.115,1.156-0.348c0.296-0.233,0.445-0.556,0.445-0.966c0-0.228-0.041-0.434-0.123-0.616
				c-0.082-0.182-0.221-0.336-0.417-0.465c-0.196-0.128-0.458-0.226-0.787-0.294c-0.329-0.067-0.739-0.103-1.231-0.103v-1.149
				c0.429,0,0.787-0.034,1.074-0.103s0.52-0.166,0.698-0.288c0.178-0.123,0.305-0.271,0.383-0.444s0.117-0.359,0.117-0.561
				c0-0.365-0.114-0.65-0.342-0.855s-0.543-0.308-0.944-0.308c-0.347,0-0.659,0.075-0.937,0.226c-0.278,0.15-0.55,0.35-0.814,0.596
				l-0.807-0.973c0.374-0.328,0.773-0.593,1.197-0.793c0.424-0.201,0.896-0.301,1.416-0.301c0.42,0,0.803,0.05,1.149,0.15
				c0.346,0.1,0.643,0.248,0.89,0.443c0.246,0.196,0.438,0.438,0.575,0.727c0.137,0.287,0.205,0.612,0.205,0.978
				c0,0.493-0.135,0.903-0.403,1.231c-0.27,0.328-0.641,0.584-1.115,0.767v0.055c0.52,0.138,0.951,0.388,1.293,0.753
				s0.513,0.836,0.513,1.409c0,0.401-0.08,0.757-0.24,1.067c-0.16,0.31-0.378,0.572-0.657,0.787
				c-0.278,0.214-0.602,0.378-0.971,0.492c-0.37,0.113-0.764,0.17-1.184,0.17c-0.712,0-1.305-0.117-1.779-0.354
				c-0.475-0.237-0.867-0.528-1.177-0.876L31.109,215.322z"/>
			<path fill="#ECEFF1" d="M41.234,217.566c-0.912,0-1.633-0.391-2.162-1.17c-0.529-0.78-0.793-1.908-0.793-3.388
				c0-1.478,0.265-2.593,0.793-3.346c0.529-0.752,1.25-1.128,2.162-1.128s1.633,0.378,2.162,1.135
				c0.529,0.758,0.793,1.87,0.793,3.339c0,1.479-0.265,2.606-0.793,3.388C42.867,217.177,42.146,217.566,41.234,217.566z
				 M41.234,216.335c0.209,0,0.404-0.058,0.582-0.171c0.178-0.114,0.331-0.303,0.458-0.568c0.127-0.264,0.228-0.605,0.301-1.025
				c0.073-0.42,0.109-0.938,0.109-1.561c0-0.609-0.037-1.123-0.109-1.539c-0.073-0.414-0.173-0.75-0.301-1.006
				c-0.128-0.255-0.281-0.436-0.458-0.54c-0.178-0.104-0.372-0.157-0.582-0.157s-0.404,0.053-0.582,0.157
				c-0.178,0.104-0.331,0.285-0.458,0.54c-0.128,0.256-0.228,0.592-0.301,1.006c-0.073,0.415-0.11,0.93-0.11,1.539
				c0,0.621,0.037,1.141,0.11,1.561c0.073,0.42,0.173,0.763,0.301,1.025c0.128,0.266,0.281,0.454,0.458,0.568
				C40.829,216.277,41.024,216.335,41.234,216.335z"/>
		</g>
		<g>
			<path fill="#ECEFF1" d="M110.938,216.484c0.602-0.582,1.147-1.121,1.635-1.613c0.488-0.493,0.903-0.949,1.245-1.368
				c0.342-0.42,0.604-0.812,0.787-1.177s0.274-0.712,0.274-1.04c0-0.466-0.124-0.832-0.37-1.103
				c-0.247-0.27-0.602-0.402-1.067-0.402c-0.337,0-0.646,0.096-0.923,0.287c-0.279,0.19-0.536,0.42-0.773,0.684l-0.875-0.875
				c0.401-0.429,0.814-0.76,1.238-0.992c0.424-0.232,0.937-0.349,1.539-0.349c0.42,0,0.798,0.063,1.136,0.19
				c0.338,0.129,0.625,0.309,0.862,0.541c0.237,0.231,0.422,0.514,0.554,0.842c0.132,0.328,0.198,0.692,0.198,1.095
				c0,0.383-0.084,0.772-0.253,1.17c-0.169,0.396-0.397,0.798-0.684,1.204c-0.288,0.406-0.623,0.822-1.006,1.252
				c-0.383,0.429-0.789,0.871-1.218,1.327c0.228-0.019,0.474-0.039,0.739-0.062c0.265-0.022,0.501-0.034,0.711-0.034h2.135v1.342
				h-5.884V216.484z"/>
			<path fill="#ECEFF1" d="M119.203,215.322c0.264,0.265,0.565,0.49,0.903,0.678c0.337,0.188,0.726,0.279,1.163,0.279
				c0.474,0,0.86-0.115,1.156-0.348c0.296-0.233,0.445-0.556,0.445-0.966c0-0.228-0.041-0.434-0.123-0.616
				c-0.082-0.182-0.221-0.336-0.417-0.465c-0.196-0.128-0.458-0.226-0.787-0.294c-0.329-0.067-0.739-0.103-1.231-0.103v-1.149
				c0.429,0,0.787-0.034,1.074-0.103c0.287-0.068,0.52-0.166,0.698-0.288c0.178-0.123,0.305-0.271,0.383-0.444
				c0.078-0.173,0.117-0.359,0.117-0.561c0-0.365-0.114-0.65-0.342-0.855s-0.543-0.308-0.944-0.308
				c-0.347,0-0.659,0.075-0.937,0.226c-0.278,0.15-0.55,0.35-0.814,0.596l-0.807-0.973c0.374-0.328,0.773-0.593,1.197-0.793
				c0.424-0.201,0.896-0.301,1.416-0.301c0.42,0,0.803,0.05,1.149,0.15c0.346,0.1,0.643,0.248,0.89,0.443
				c0.246,0.196,0.438,0.438,0.575,0.727c0.137,0.287,0.205,0.612,0.205,0.978c0,0.493-0.135,0.903-0.403,1.231
				c-0.27,0.328-0.641,0.584-1.115,0.767v0.055c0.52,0.138,0.951,0.388,1.293,0.753c0.342,0.365,0.513,0.836,0.513,1.409
				c0,0.401-0.08,0.757-0.24,1.067c-0.16,0.31-0.378,0.572-0.657,0.787c-0.278,0.214-0.602,0.378-0.971,0.492
				c-0.37,0.113-0.764,0.17-1.184,0.17c-0.712,0-1.305-0.117-1.779-0.354c-0.475-0.237-0.867-0.528-1.177-0.876L119.203,215.322z"/>
			<path fill="#ECEFF1" d="M128.37,213.954c-0.629,0-1.143-0.248-1.539-0.746c-0.397-0.497-0.595-1.197-0.595-2.101
				c0-0.902,0.198-1.599,0.595-2.086c0.396-0.488,0.91-0.732,1.539-0.732s1.143,0.244,1.54,0.732
				c0.397,0.487,0.595,1.184,0.595,2.086s-0.198,1.604-0.595,2.101C129.513,213.706,129,213.954,128.37,213.954z M128.37,213.037
				c0.292,0,0.531-0.152,0.719-0.458c0.187-0.306,0.28-0.796,0.28-1.472c0-0.674-0.094-1.16-0.28-1.457
				c-0.188-0.297-0.427-0.444-0.719-0.444s-0.531,0.147-0.718,0.444s-0.28,0.783-0.28,1.457c0,0.676,0.093,1.166,0.28,1.472
				S128.078,213.037,128.37,213.037z M128.644,217.566l4.885-9.277h0.958l-4.872,9.277H128.644L128.644,217.566z M134.788,217.566
				c-0.629,0-1.143-0.248-1.539-0.746c-0.397-0.497-0.595-1.197-0.595-2.1c0-0.904,0.198-1.6,0.595-2.088
				c0.396-0.488,0.91-0.732,1.539-0.732s1.143,0.244,1.54,0.732c0.396,0.488,0.595,1.184,0.595,2.088c0,0.901-0.199,1.603-0.595,2.1
				C135.93,217.318,135.417,217.566,134.788,217.566z M134.788,216.648c0.292,0,0.531-0.151,0.718-0.457
				c0.187-0.307,0.281-0.797,0.281-1.471c0-0.676-0.094-1.162-0.281-1.457c-0.187-0.298-0.426-0.445-0.718-0.445
				s-0.531,0.147-0.718,0.445c-0.187,0.295-0.281,0.781-0.281,1.457c0,0.674,0.094,1.164,0.281,1.471
				C134.257,216.497,134.496,216.648,134.788,216.648z"/>
		</g>
		<g id="schedule_10_">
			<g>
				<g>
					<g opacity="0.9">
						<path fill="#ECEFF1" d="M89.406,202.88c-5.334,0-9.699,4.363-9.699,9.699c0,5.335,4.365,9.698,9.699,9.698
							c5.336,0,9.699-4.363,9.699-9.698C99.105,207.243,94.742,202.88,89.406,202.88z M89.406,220.339
							c-4.268,0-7.76-3.493-7.76-7.76c0-4.269,3.492-7.761,7.76-7.761c4.268,0,7.76,3.492,7.76,7.761
							C97.166,216.846,93.674,220.339,89.406,220.339z"/>
					</g>
				</g>
				<g>
					<polygon opacity="0.9" fill="#ECEFF1" enable-background="new    " points="89.893,207.729 88.438,207.729 88.438,213.548 
						93.48,216.652 94.256,215.391 89.893,212.771 					"/>
				</g>
			</g>
		</g>
	</g>
	<g>
		<g>
			<path fill="#ECEFF1" d="M18.861,267.502h6.821v0.762h-5.947v4.978h5.035V274h-5.035v6.023h-0.874V267.502z"/>
			<path fill="#ECEFF1" d="M26.727,277.743c0-1,0.475-1.767,1.425-2.3c0.95-0.531,2.438-0.911,4.465-1.139
				c0.013-0.343-0.009-0.688-0.066-1.037c-0.057-0.348-0.165-0.658-0.323-0.931s-0.38-0.494-0.665-0.665s-0.649-0.257-1.092-0.257
				c-0.621,0-1.185,0.121-1.691,0.36c-0.507,0.242-0.912,0.476-1.216,0.703l-0.38-0.627c0.165-0.113,0.364-0.24,0.599-0.379
				c0.235-0.141,0.494-0.268,0.779-0.381s0.599-0.212,0.94-0.295c0.342-0.082,0.697-0.123,1.064-0.123c0.544,0,1,0.092,1.368,0.275
				c0.367,0.184,0.665,0.434,0.893,0.75s0.39,0.688,0.484,1.111c0.095,0.424,0.143,0.883,0.143,1.377v5.834H32.75l-0.095-1.179
				h-0.038c-0.469,0.367-0.972,0.693-1.511,0.979c-0.538,0.285-1.111,0.427-1.719,0.427c-0.368,0-0.709-0.052-1.026-0.151
				c-0.317-0.102-0.599-0.253-0.846-0.455c-0.247-0.203-0.44-0.463-0.58-0.779C26.797,278.548,26.727,278.174,26.727,277.743z
				 M27.601,277.705c0,0.658,0.19,1.128,0.57,1.406c0.38,0.279,0.829,0.418,1.349,0.418c0.532,0,1.039-0.127,1.52-0.381
				c0.481-0.252,1.007-0.619,1.577-1.102v-3.098c-0.938,0.113-1.726,0.254-2.366,0.418c-0.64,0.165-1.156,0.361-1.548,0.589
				c-0.393,0.229-0.674,0.487-0.845,0.778C27.687,277.027,27.601,277.352,27.601,277.705z"/>
			<path fill="#ECEFF1" d="M36.721,266.361h0.836v3.953l-0.038,1.785c0.469-0.393,0.969-0.729,1.501-1.007
				c0.532-0.278,1.083-0.418,1.653-0.418c1.216,0,2.128,0.421,2.736,1.263c0.608,0.844,0.912,1.975,0.912,3.393
				c0,0.773-0.108,1.463-0.323,2.07c-0.215,0.608-0.51,1.125-0.883,1.55c-0.374,0.424-0.805,0.747-1.292,0.969
				c-0.488,0.222-0.998,0.332-1.53,0.332c-0.443,0-0.902-0.099-1.377-0.294s-0.928-0.459-1.358-0.789H37.52l-0.095,0.855h-0.703
				L36.721,266.361L36.721,266.361z M37.557,278.332c0.506,0.432,0.994,0.734,1.463,0.912c0.469,0.178,0.88,0.267,1.235,0.267
				c0.456,0,0.88-0.102,1.273-0.305c0.392-0.202,0.728-0.487,1.007-0.854c0.278-0.367,0.497-0.808,0.655-1.319
				c0.159-0.515,0.238-1.08,0.238-1.701c0-0.558-0.054-1.076-0.162-1.558s-0.275-0.896-0.503-1.244s-0.526-0.621-0.893-0.817
				c-0.368-0.196-0.811-0.295-1.33-0.295c-0.456,0-0.931,0.131-1.425,0.39c-0.494,0.26-1.014,0.631-1.558,1.111V278.332z"/>
			<path fill="#ECEFF1" d="M47.494,268.699c-0.216,0-0.396-0.069-0.542-0.209c-0.146-0.139-0.219-0.316-0.219-0.532
				c0-0.24,0.073-0.427,0.219-0.562c0.146-0.133,0.326-0.199,0.542-0.199c0.215,0,0.396,0.066,0.542,0.199
				c0.146,0.135,0.218,0.32,0.218,0.562c0,0.216-0.073,0.394-0.218,0.532C47.889,268.63,47.709,268.699,47.494,268.699z
				 M47.057,270.902h0.836v9.121h-0.836V270.902z"/>
			<path fill="#ECEFF1" d="M50.647,275.482c0-0.76,0.111-1.44,0.333-2.043c0.222-0.602,0.52-1.104,0.893-1.51
				c0.373-0.406,0.808-0.717,1.302-0.933c0.494-0.215,1.013-0.322,1.558-0.322c0.544,0,1.067,0.107,1.567,0.322
				c0.5,0.216,0.937,0.526,1.311,0.933c0.374,0.404,0.671,0.908,0.893,1.51c0.221,0.603,0.332,1.283,0.332,2.043
				s-0.111,1.435-0.332,2.022c-0.222,0.589-0.52,1.086-0.893,1.491c-0.374,0.406-0.811,0.716-1.311,0.932
				c-0.5,0.215-1.023,0.322-1.567,0.322c-0.545,0-1.064-0.107-1.558-0.322c-0.494-0.216-0.928-0.525-1.302-0.932
				c-0.374-0.405-0.671-0.902-0.893-1.491S50.647,276.242,50.647,275.482z M51.521,275.482c0,0.596,0.083,1.14,0.247,1.634
				c0.164,0.493,0.39,0.919,0.675,1.272c0.285,0.354,0.624,0.631,1.016,0.826c0.392,0.196,0.817,0.295,1.273,0.295
				s0.883-0.099,1.282-0.295c0.399-0.195,0.741-0.472,1.026-0.826c0.285-0.354,0.51-0.779,0.675-1.272
				c0.165-0.494,0.247-1.038,0.247-1.634c0-0.608-0.083-1.159-0.247-1.653c-0.165-0.494-0.39-0.921-0.675-1.282
				s-0.627-0.641-1.026-0.836s-0.827-0.295-1.282-0.295c-0.456,0-0.881,0.1-1.273,0.295c-0.392,0.196-0.731,0.475-1.016,0.836
				c-0.285,0.361-0.51,0.788-0.675,1.282S51.521,274.874,51.521,275.482z"/>
			<path fill="#ECEFF1" d="M65.448,267.502h6.821v0.762h-5.947v4.978h5.035V274h-5.035v6.023h-0.874
				C65.448,280.023,65.448,267.502,65.448,267.502z"/>
			<path fill="#ECEFF1" d="M73.447,275.482c0-0.748,0.111-1.418,0.333-2.015c0.222-0.596,0.52-1.099,0.893-1.511
				c0.374-0.411,0.798-0.729,1.273-0.95c0.475-0.222,0.966-0.332,1.473-0.332c1.089,0,1.944,0.367,2.565,1.103
				c0.621,0.734,0.931,1.772,0.931,3.115c0,0.114,0,0.229,0,0.342c0,0.115-0.013,0.229-0.038,0.343h-6.574
				c0.013,0.569,0.102,1.1,0.266,1.587c0.164,0.486,0.396,0.904,0.694,1.254c0.297,0.35,0.655,0.621,1.073,0.816
				c0.418,0.197,0.887,0.295,1.406,0.295c0.494,0,0.94-0.072,1.339-0.219s0.77-0.346,1.111-0.599l0.342,0.646
				c-0.368,0.217-0.77,0.418-1.207,0.608c-0.437,0.188-0.991,0.284-1.663,0.284c-0.583,0-1.13-0.107-1.644-0.322
				c-0.513-0.216-0.959-0.529-1.339-0.939c-0.38-0.412-0.681-0.912-0.903-1.502C73.558,276.896,73.447,276.229,73.447,275.482z
				 M80.116,274.932c0-1.178-0.241-2.062-0.722-2.649c-0.481-0.589-1.134-0.884-1.957-0.884c-0.393,0-0.767,0.082-1.121,0.246
				c-0.354,0.166-0.674,0.398-0.959,0.703s-0.52,0.674-0.703,1.111c-0.184,0.438-0.301,0.928-0.352,1.473H80.116z"/>
			<path fill="#ECEFF1" d="M83.384,270.902h0.722l0.076,1.691h0.057c0.304-0.57,0.674-1.031,1.111-1.388
				c0.437-0.354,0.928-0.531,1.473-0.531c0.177,0,0.335,0.013,0.475,0.038c0.139,0.025,0.285,0.075,0.437,0.151l-0.19,0.76
				c-0.152-0.062-0.285-0.104-0.399-0.123s-0.26-0.028-0.437-0.028c-0.406,0-0.833,0.174-1.283,0.522
				c-0.45,0.349-0.852,0.953-1.207,1.813v6.213h-0.836L83.384,270.902L83.384,270.902z"/>
			<path fill="#ECEFF1" d="M89.407,270.902h0.722l0.076,1.691h0.057c0.304-0.57,0.674-1.031,1.111-1.388
				c0.437-0.354,0.928-0.531,1.473-0.531c0.177,0,0.335,0.013,0.475,0.038c0.139,0.025,0.285,0.075,0.437,0.151l-0.19,0.76
				c-0.152-0.062-0.285-0.104-0.399-0.123c-0.114-0.019-0.26-0.028-0.437-0.028c-0.406,0-0.833,0.174-1.283,0.522
				c-0.45,0.349-0.852,0.953-1.207,1.813v6.213h-0.836v-9.119H89.407z"/>
			<path fill="#ECEFF1" d="M94.479,275.482c0-0.748,0.111-1.418,0.333-2.015c0.222-0.596,0.52-1.099,0.893-1.511
				c0.374-0.411,0.798-0.729,1.273-0.95s0.966-0.332,1.473-0.332c1.089,0,1.944,0.367,2.565,1.103
				c0.621,0.734,0.931,1.772,0.931,3.115c0,0.114,0,0.229,0,0.342c0,0.115-0.013,0.229-0.038,0.343h-6.574
				c0.013,0.569,0.102,1.1,0.266,1.587c0.164,0.486,0.396,0.904,0.694,1.254c0.297,0.35,0.655,0.621,1.073,0.816
				c0.418,0.197,0.887,0.295,1.406,0.295c0.494,0,0.94-0.072,1.339-0.219c0.399-0.146,0.77-0.346,1.111-0.599l0.342,0.646
				c-0.368,0.217-0.77,0.418-1.207,0.608c-0.437,0.188-0.991,0.284-1.663,0.284c-0.583,0-1.13-0.107-1.644-0.322
				c-0.513-0.216-0.959-0.529-1.339-0.939c-0.38-0.412-0.681-0.912-0.903-1.502C94.59,276.896,94.479,276.229,94.479,275.482z
				 M101.149,274.932c0-1.178-0.241-2.062-0.722-2.649c-0.481-0.589-1.134-0.884-1.957-0.884c-0.393,0-0.767,0.082-1.121,0.246
				c-0.354,0.166-0.674,0.398-0.959,0.703c-0.285,0.305-0.52,0.674-0.703,1.111c-0.184,0.438-0.301,0.928-0.352,1.473H101.149z"/>
			<path fill="#ECEFF1" d="M104.417,270.902h0.722l0.076,1.691h0.057c0.304-0.57,0.674-1.031,1.111-1.388
				c0.437-0.354,0.928-0.531,1.473-0.531c0.177,0,0.335,0.013,0.475,0.038c0.139,0.025,0.285,0.075,0.437,0.151l-0.19,0.76
				c-0.152-0.062-0.285-0.104-0.399-0.123c-0.114-0.019-0.26-0.028-0.437-0.028c-0.406,0-0.833,0.174-1.283,0.522
				s-0.852,0.953-1.207,1.813v6.213h-0.836L104.417,270.902L104.417,270.902z"/>
			<path fill="#ECEFF1" d="M109.489,277.743c0-1,0.475-1.767,1.425-2.3c0.95-0.531,2.438-0.911,4.465-1.139
				c0.013-0.343-0.009-0.688-0.066-1.037c-0.057-0.348-0.165-0.658-0.323-0.931c-0.158-0.272-0.38-0.494-0.665-0.665
				c-0.285-0.171-0.649-0.257-1.092-0.257c-0.621,0-1.185,0.121-1.691,0.36c-0.507,0.242-0.912,0.476-1.216,0.703l-0.38-0.627
				c0.165-0.113,0.364-0.24,0.599-0.379c0.235-0.141,0.494-0.268,0.779-0.381c0.285-0.113,0.599-0.212,0.94-0.295
				c0.342-0.082,0.697-0.123,1.064-0.123c0.544,0,1,0.092,1.368,0.275c0.367,0.184,0.665,0.434,0.893,0.75s0.39,0.688,0.484,1.111
				c0.095,0.424,0.143,0.883,0.143,1.377v5.834h-0.703l-0.095-1.179h-0.038c-0.469,0.367-0.972,0.693-1.511,0.979
				c-0.538,0.285-1.111,0.427-1.719,0.427c-0.368,0-0.709-0.052-1.026-0.151c-0.317-0.102-0.599-0.253-0.846-0.455
				c-0.247-0.203-0.44-0.463-0.58-0.779C109.559,278.548,109.489,278.174,109.489,277.743z M110.363,277.705
				c0,0.658,0.19,1.128,0.57,1.406c0.38,0.279,0.829,0.418,1.349,0.418c0.532,0,1.039-0.127,1.52-0.381
				c0.481-0.252,1.007-0.619,1.577-1.102v-3.098c-0.938,0.113-1.726,0.254-2.366,0.418c-0.64,0.165-1.156,0.361-1.548,0.589
				c-0.393,0.229-0.674,0.487-0.845,0.778C110.448,277.027,110.363,277.352,110.363,277.705z"/>
		</g>
		<g>
			<path fill="#ECEFF1" d="M21.38,316.316c-0.912,0-1.633-0.391-2.162-1.17c-0.529-0.78-0.793-1.908-0.793-3.388
				c0-1.478,0.265-2.593,0.793-3.346c0.529-0.752,1.25-1.128,2.162-1.128s1.633,0.378,2.162,1.135
				c0.529,0.758,0.793,1.87,0.793,3.339c0,1.479-0.265,2.606-0.793,3.388C23.013,315.927,22.292,316.316,21.38,316.316z
				 M21.38,315.085c0.209,0,0.404-0.057,0.582-0.171c0.178-0.114,0.331-0.303,0.458-0.568c0.127-0.264,0.228-0.605,0.301-1.024
				c0.073-0.42,0.109-0.939,0.109-1.562c0-0.609-0.037-1.124-0.109-1.539c-0.073-0.415-0.173-0.75-0.301-1.006
				c-0.128-0.255-0.281-0.436-0.458-0.54c-0.178-0.104-0.372-0.157-0.582-0.157s-0.404,0.053-0.582,0.157
				c-0.178,0.104-0.331,0.285-0.458,0.54c-0.128,0.256-0.228,0.591-0.301,1.006c-0.073,0.415-0.11,0.93-0.11,1.539
				c0,0.621,0.037,1.142,0.11,1.562c0.073,0.419,0.173,0.762,0.301,1.024c0.128,0.267,0.281,0.454,0.458,0.568
				C20.975,315.028,21.17,315.085,21.38,315.085z"/>
			<path fill="#ECEFF1" d="M26.443,310.569c0-0.311,0.098-0.565,0.294-0.767c0.196-0.201,0.44-0.302,0.732-0.302
				c0.292,0,0.534,0.101,0.725,0.302c0.192,0.2,0.288,0.456,0.288,0.767s-0.096,0.565-0.288,0.767
				c-0.191,0.201-0.433,0.301-0.725,0.301c-0.292,0-0.536-0.1-0.732-0.301C26.541,311.136,26.443,310.88,26.443,310.569z
				 M26.443,315.249c0-0.31,0.098-0.565,0.294-0.766c0.196-0.201,0.44-0.303,0.732-0.303c0.292,0,0.534,0.102,0.725,0.303
				c0.192,0.199,0.288,0.456,0.288,0.766c0,0.311-0.096,0.566-0.288,0.767c-0.191,0.2-0.433,0.302-0.725,0.302
				c-0.292,0-0.536-0.102-0.732-0.302C26.541,315.815,26.443,315.56,26.443,315.249z"/>
			<path fill="#ECEFF1" d="M33.531,316.316c-0.912,0-1.633-0.391-2.162-1.17c-0.529-0.78-0.793-1.908-0.793-3.388
				c0-1.478,0.265-2.593,0.793-3.346c0.529-0.752,1.25-1.128,2.162-1.128c0.912,0,1.633,0.378,2.162,1.135
				c0.529,0.758,0.793,1.87,0.793,3.339c0,1.479-0.265,2.606-0.793,3.388C35.164,315.927,34.443,316.316,33.531,316.316z
				 M33.531,315.085c0.209,0,0.404-0.057,0.582-0.171c0.178-0.114,0.331-0.303,0.458-0.568c0.127-0.264,0.228-0.605,0.301-1.024
				c0.073-0.42,0.109-0.939,0.109-1.562c0-0.609-0.037-1.124-0.109-1.539c-0.073-0.415-0.173-0.75-0.301-1.006
				c-0.128-0.255-0.281-0.436-0.458-0.54c-0.178-0.104-0.372-0.157-0.582-0.157c-0.21,0-0.404,0.053-0.582,0.157
				c-0.178,0.104-0.331,0.285-0.458,0.54c-0.128,0.256-0.228,0.591-0.301,1.006c-0.073,0.415-0.11,0.93-0.11,1.539
				c0,0.621,0.037,1.142,0.11,1.562c0.073,0.419,0.173,0.762,0.301,1.024c0.128,0.267,0.281,0.454,0.458,0.568
				C33.126,315.028,33.321,315.085,33.531,315.085z"/>
			<path fill="#ECEFF1" d="M41.234,316.316c-0.912,0-1.633-0.391-2.162-1.17c-0.529-0.78-0.793-1.908-0.793-3.388
				c0-1.478,0.265-2.593,0.793-3.346c0.529-0.752,1.25-1.128,2.162-1.128s1.633,0.378,2.162,1.135
				c0.529,0.758,0.793,1.87,0.793,3.339c0,1.479-0.265,2.606-0.793,3.388C42.867,315.927,42.146,316.316,41.234,316.316z
				 M41.234,315.085c0.209,0,0.404-0.057,0.582-0.171c0.178-0.114,0.331-0.303,0.458-0.568c0.127-0.264,0.228-0.605,0.301-1.024
				c0.073-0.42,0.109-0.939,0.109-1.562c0-0.609-0.037-1.124-0.109-1.539c-0.073-0.415-0.173-0.75-0.301-1.006
				c-0.128-0.255-0.281-0.436-0.458-0.54c-0.178-0.104-0.372-0.157-0.582-0.157s-0.404,0.053-0.582,0.157
				c-0.178,0.104-0.331,0.285-0.458,0.54c-0.128,0.256-0.228,0.591-0.301,1.006c-0.073,0.415-0.11,0.93-0.11,1.539
				c0,0.621,0.037,1.142,0.11,1.562c0.073,0.419,0.173,0.762,0.301,1.024c0.128,0.267,0.281,0.454,0.458,0.568
				C40.829,315.028,41.024,315.085,41.234,315.085z"/>
		</g>
		<g>
			<path fill="#ECEFF1" d="M113.921,316.316c-0.912,0-1.633-0.391-2.162-1.17c-0.529-0.78-0.793-1.908-0.793-3.388
				c0-1.478,0.265-2.593,0.793-3.346c0.529-0.752,1.25-1.128,2.162-1.128s1.633,0.378,2.162,1.135
				c0.529,0.758,0.793,1.87,0.793,3.339c0,1.479-0.265,2.606-0.793,3.388C115.554,315.927,114.833,316.316,113.921,316.316z
				 M113.921,315.085c0.209,0,0.404-0.057,0.582-0.171c0.178-0.114,0.331-0.303,0.458-0.568c0.127-0.264,0.228-0.605,0.301-1.024
				c0.073-0.42,0.109-0.939,0.109-1.562c0-0.609-0.037-1.124-0.109-1.539c-0.073-0.415-0.173-0.75-0.301-1.006
				c-0.128-0.255-0.281-0.436-0.458-0.54c-0.178-0.104-0.372-0.157-0.582-0.157s-0.404,0.053-0.582,0.157
				c-0.178,0.104-0.331,0.285-0.458,0.54c-0.128,0.256-0.228,0.591-0.301,1.006c-0.073,0.415-0.11,0.93-0.11,1.539
				c0,0.621,0.037,1.142,0.11,1.562c0.073,0.419,0.173,0.762,0.301,1.024c0.128,0.267,0.281,0.454,0.458,0.568
				C113.516,315.028,113.711,315.085,113.921,315.085z"/>
			<path fill="#ECEFF1" d="M120.667,312.704c-0.629,0-1.143-0.248-1.539-0.746c-0.397-0.497-0.595-1.197-0.595-2.1
				c0-0.903,0.198-1.6,0.595-2.087c0.396-0.488,0.91-0.732,1.539-0.732s1.143,0.244,1.54,0.732c0.397,0.487,0.595,1.184,0.595,2.087
				c0,0.901-0.198,1.603-0.595,2.1C121.81,312.456,121.296,312.704,120.667,312.704z M120.667,311.787
				c0.292,0,0.531-0.152,0.719-0.458c0.187-0.306,0.28-0.796,0.28-1.471c0-0.676-0.094-1.161-0.28-1.458
				c-0.188-0.297-0.427-0.444-0.719-0.444s-0.531,0.147-0.718,0.444s-0.28,0.782-0.28,1.458c0,0.675,0.093,1.165,0.28,1.471
				S120.375,311.787,120.667,311.787z M120.941,316.316l4.885-9.277h0.958l-4.872,9.277H120.941z M127.084,316.316
				c-0.629,0-1.143-0.248-1.539-0.745c-0.397-0.498-0.595-1.198-0.595-2.102c0-0.902,0.198-1.599,0.595-2.087
				c0.396-0.488,0.91-0.731,1.539-0.731s1.143,0.243,1.54,0.731c0.396,0.488,0.595,1.185,0.595,2.087s-0.199,1.604-0.595,2.102
				C128.227,316.068,127.714,316.316,127.084,316.316z M127.084,315.399c0.292,0,0.531-0.152,0.718-0.458
				c0.187-0.307,0.281-0.797,0.281-1.472s-0.094-1.161-0.281-1.457c-0.187-0.297-0.426-0.444-0.718-0.444s-0.531,0.147-0.718,0.444
				c-0.187,0.296-0.281,0.782-0.281,1.457s0.094,1.165,0.281,1.472C126.553,315.247,126.792,315.399,127.084,315.399z"/>
		</g>
		<g id="schedule_4_">
			<g>
				<g>
					<g opacity="0.9">
						<path fill="#ECEFF1" d="M89.408,301.63c-5.334,0-9.699,4.362-9.699,9.697c0,5.336,4.365,9.699,9.699,9.699
							s9.699-4.363,9.699-9.699C99.107,305.992,94.742,301.63,89.408,301.63z M89.408,319.088c-4.268,0-7.76-3.493-7.76-7.761
							c0-4.269,3.492-7.761,7.76-7.761c4.266,0,7.76,3.492,7.76,7.761C97.168,315.595,93.674,319.088,89.408,319.088z"/>
					</g>
				</g>
				<g>
					<polygon opacity="0.9" fill="#ECEFF1" enable-background="new    " points="89.893,306.478 88.438,306.478 88.438,312.297 
						93.48,315.401 94.258,314.14 89.893,311.521 					"/>
				</g>
			</g>
		</g>
	</g>
</g>
</svg>
