<?xml version="1.0" encoding="utf-8"?>
<!-- Generator: Adobe Illustrator 16.0.0, SVG Export Plug-In . SVG Version: 6.00 Build 0)  -->
<!DOCTYPE svg PUBLIC "-//W3C//DTD SVG 1.1//EN" "http://www.w3.org/Graphics/SVG/1.1/DTD/svg11.dtd">
<svg version="1.1" id="Layer_1" xmlns="http://www.w3.org/2000/svg" xmlns:xlink="http://www.w3.org/1999/xlink" x="0px" y="0px"
	 width="980px" height="356px" viewBox="0 0 980 356" enable-background="new 0 0 980 356" xml:space="preserve">
<g>
	<g>
		<rect x="457.3" y="154.5" fill="#34B2FF" width="200.8" height="69.7"/>
		<g>
			<g>
				<path fill="#FFFFFF" d="M468.2,204.6c0.3,0.2,0.5,0.4,0.9,0.6c0.3,0.1,0.7,0.2,1,0.2c0.4,0,0.7-0.1,0.9-0.2
					c0.2-0.2,0.3-0.4,0.3-0.7c0-0.1,0-0.3-0.1-0.4s-0.1-0.2-0.2-0.3c-0.1-0.1-0.2-0.1-0.3-0.2c-0.1-0.1-0.3-0.1-0.4-0.2l-1-0.4
					c-0.2-0.1-0.3-0.2-0.5-0.3c-0.2-0.1-0.3-0.2-0.5-0.4c-0.1-0.2-0.2-0.3-0.3-0.5c-0.1-0.2-0.1-0.4-0.1-0.7c0-0.3,0.1-0.5,0.2-0.8
					c0.1-0.2,0.3-0.5,0.5-0.6c0.2-0.2,0.5-0.3,0.8-0.4c0.3-0.1,0.6-0.2,1-0.2c0.4,0,0.8,0.1,1.2,0.2c0.4,0.2,0.7,0.4,1,0.7l-0.6,0.8
					c-0.2-0.2-0.5-0.3-0.7-0.4c-0.2-0.1-0.5-0.2-0.8-0.2c-0.3,0-0.6,0.1-0.8,0.2s-0.3,0.4-0.3,0.6c0,0.1,0,0.3,0.1,0.4
					c0.1,0.1,0.1,0.2,0.2,0.3c0.1,0.1,0.2,0.1,0.4,0.2c0.1,0.1,0.3,0.1,0.4,0.2l1,0.4c0.2,0.1,0.4,0.2,0.6,0.3
					c0.2,0.1,0.3,0.2,0.5,0.4c0.1,0.2,0.2,0.3,0.3,0.5c0.1,0.2,0.1,0.4,0.1,0.7c0,0.3-0.1,0.6-0.2,0.8s-0.3,0.5-0.5,0.7
					s-0.5,0.3-0.8,0.5c-0.3,0.1-0.7,0.2-1.1,0.2c-0.5,0-0.9-0.1-1.4-0.3c-0.4-0.2-0.8-0.4-1.2-0.8L468.2,204.6z"/>
				<path fill="#FFFFFF" d="M474,202.8c0-0.6,0.1-1.1,0.3-1.6c0.2-0.5,0.4-0.8,0.7-1.2c0.3-0.3,0.6-0.6,1-0.7
					c0.4-0.2,0.8-0.2,1.3-0.2c0.4,0,0.8,0.1,1.2,0.3c0.3,0.2,0.6,0.4,0.9,0.6l-0.7,0.8c-0.2-0.2-0.4-0.3-0.6-0.4
					c-0.2-0.1-0.4-0.2-0.7-0.2c-0.3,0-0.6,0.1-0.8,0.2c-0.2,0.1-0.5,0.3-0.6,0.5c-0.2,0.2-0.3,0.5-0.4,0.8c-0.1,0.3-0.1,0.7-0.1,1.1
					c0,0.8,0.2,1.4,0.5,1.9c0.4,0.5,0.8,0.7,1.4,0.7c0.3,0,0.6-0.1,0.8-0.2c0.2-0.1,0.5-0.3,0.7-0.5l0.7,0.8c-0.3,0.3-0.6,0.6-1,0.8
					c-0.4,0.2-0.8,0.3-1.2,0.3c-0.5,0-0.9-0.1-1.3-0.2c-0.4-0.2-0.7-0.4-1-0.7s-0.5-0.7-0.7-1.1C474.1,203.9,474,203.4,474,202.8z"
					/>
				<path fill="#FFFFFF" d="M481.2,199.2h1.3v2.8h2.9v-2.8h1.3v7.1h-1.3v-3.1h-2.9v3.1h-1.3V199.2z"/>
				<path fill="#FFFFFF" d="M488.9,199.2h4.3v1.1h-3v1.8h2.5v1.1h-2.5v2.1h3.1v1.1h-4.4V199.2z"/>
				<path fill="#FFFFFF" d="M495.3,199.2h1.9c1.1,0,1.9,0.3,2.5,0.9c0.6,0.6,0.9,1.5,0.9,2.6c0,0.6-0.1,1.1-0.2,1.5
					c-0.2,0.4-0.4,0.8-0.7,1.1c-0.3,0.3-0.6,0.5-1.1,0.7c-0.4,0.2-0.9,0.2-1.4,0.2h-2V199.2z M497.1,205.3c0.7,0,1.3-0.2,1.7-0.6
					s0.6-1.1,0.6-1.9c0-0.9-0.2-1.5-0.6-1.9s-0.9-0.6-1.7-0.6h-0.6v5H497.1z"/>
				<path fill="#FFFFFF" d="M502.5,199.2h1.3v4.1c0,0.4,0,0.7,0.1,1c0.1,0.3,0.2,0.5,0.3,0.6c0.1,0.2,0.3,0.3,0.4,0.3
					c0.2,0.1,0.4,0.1,0.6,0.1c0.2,0,0.4,0,0.6-0.1c0.2-0.1,0.3-0.2,0.5-0.3c0.1-0.2,0.2-0.4,0.3-0.6c0.1-0.3,0.1-0.6,0.1-1v-4.1h1.2
					v4c0,0.6-0.1,1.1-0.2,1.5c-0.1,0.4-0.3,0.7-0.5,1c-0.2,0.3-0.5,0.4-0.8,0.6s-0.7,0.2-1.1,0.2s-0.8-0.1-1.1-0.2
					c-0.3-0.1-0.6-0.3-0.8-0.6c-0.2-0.3-0.4-0.6-0.5-1c-0.1-0.4-0.2-0.9-0.2-1.5L502.5,199.2L502.5,199.2z"/>
				<path fill="#FFFFFF" d="M510.2,199.2h1.3v6h2.9v1.1h-4.2V199.2z"/>
				<path fill="#FFFFFF" d="M516.2,199.2h4.3v1.1h-3v1.8h2.5v1.1h-2.5v2.1h3.1v1.1h-4.4V199.2z"/>
				<path fill="#FFFFFF" d="M522.6,199.2h1.9c1.1,0,1.9,0.3,2.5,0.9c0.6,0.6,0.9,1.5,0.9,2.6c0,0.6-0.1,1.1-0.2,1.5
					c-0.2,0.4-0.4,0.8-0.7,1.1c-0.3,0.3-0.6,0.5-1.1,0.7c-0.4,0.2-0.9,0.2-1.4,0.2h-2V199.2L522.6,199.2z M524.4,205.3
					c0.7,0,1.3-0.2,1.7-0.6c0.4-0.4,0.6-1.1,0.6-1.9c0-0.9-0.2-1.5-0.6-1.9c-0.4-0.4-0.9-0.6-1.7-0.6h-0.6v5H524.4z"/>
				<path fill="#FFFFFF" d="M532.9,204.6c0.3,0.2,0.5,0.4,0.9,0.6c0.3,0.1,0.7,0.2,1,0.2c0.4,0,0.7-0.1,0.9-0.2
					c0.2-0.2,0.3-0.4,0.3-0.7c0-0.1,0-0.3-0.1-0.4c-0.1-0.1-0.1-0.2-0.2-0.3c-0.1-0.1-0.2-0.1-0.3-0.2c-0.1-0.1-0.3-0.1-0.4-0.2
					l-1-0.4c-0.2-0.1-0.3-0.2-0.5-0.3c-0.2-0.1-0.3-0.2-0.5-0.4c-0.1-0.2-0.2-0.3-0.3-0.5c-0.1-0.2-0.1-0.4-0.1-0.7
					c0-0.3,0.1-0.5,0.2-0.8c0.1-0.2,0.3-0.5,0.5-0.6c0.2-0.2,0.5-0.3,0.8-0.4c0.3-0.1,0.6-0.2,1-0.2c0.4,0,0.8,0.1,1.2,0.2
					c0.4,0.2,0.7,0.4,1,0.7l-0.6,0.8c-0.2-0.2-0.5-0.3-0.7-0.4s-0.5-0.2-0.8-0.2c-0.3,0-0.6,0.1-0.8,0.2c-0.2,0.1-0.3,0.4-0.3,0.6
					c0,0.1,0,0.3,0.1,0.4s0.1,0.2,0.2,0.3c0.1,0.1,0.2,0.1,0.4,0.2c0.1,0.1,0.3,0.1,0.4,0.2l1,0.4c0.2,0.1,0.4,0.2,0.6,0.3
					c0.2,0.1,0.3,0.2,0.4,0.4c0.1,0.2,0.2,0.3,0.3,0.5c0.1,0.2,0.1,0.4,0.1,0.7c0,0.3-0.1,0.6-0.2,0.8s-0.3,0.5-0.5,0.7
					s-0.5,0.3-0.8,0.5c-0.3,0.1-0.7,0.2-1.1,0.2c-0.5,0-0.9-0.1-1.4-0.3c-0.4-0.2-0.8-0.4-1.2-0.8L532.9,204.6z"/>
				<path fill="#FFFFFF" d="M539.1,199.2h4.3v1.1h-3v1.8h2.5v1.1h-2.5v2.1h3.1v1.1h-4.4V199.2L539.1,199.2z"/>
				<path fill="#FFFFFF" d="M549.3,206.3l-1.5-2.8h-1.1v2.8h-1.3v-7.1h2.4c0.4,0,0.7,0,1,0.1c0.3,0.1,0.6,0.2,0.8,0.4
					c0.2,0.2,0.4,0.4,0.5,0.6c0.1,0.3,0.2,0.6,0.2,1c0,0.5-0.1,1-0.4,1.3c-0.3,0.3-0.6,0.6-1,0.7l1.7,3L549.3,206.3L549.3,206.3z
					 M546.7,202.6h1c0.5,0,0.9-0.1,1.1-0.3c0.3-0.2,0.4-0.5,0.4-0.9c0-0.4-0.1-0.7-0.4-0.9c-0.3-0.2-0.6-0.2-1.1-0.2h-1V202.6z"/>
				<path fill="#FFFFFF" d="M551.4,199.2h1.3l1,3.6c0.1,0.4,0.2,0.8,0.3,1.1c0.1,0.4,0.2,0.7,0.3,1.2h0c0.1-0.4,0.2-0.8,0.3-1.2
					c0.1-0.4,0.2-0.7,0.3-1.1l1-3.6h1.3l-2.2,7.1h-1.5L551.4,199.2z"/>
				<path fill="#FFFFFF" d="M558.7,199.2h1.3v7.1h-1.3V199.2z"/>
				<path fill="#FFFFFF" d="M561.9,202.8c0-0.6,0.1-1.1,0.3-1.6c0.2-0.5,0.4-0.8,0.7-1.2c0.3-0.3,0.6-0.6,1-0.7
					c0.4-0.2,0.8-0.2,1.3-0.2c0.4,0,0.8,0.1,1.2,0.3c0.3,0.2,0.6,0.4,0.9,0.6l-0.7,0.8c-0.2-0.2-0.4-0.3-0.6-0.4
					c-0.2-0.1-0.4-0.2-0.7-0.2c-0.3,0-0.6,0.1-0.8,0.2c-0.2,0.1-0.5,0.3-0.6,0.5c-0.2,0.2-0.3,0.5-0.4,0.8c-0.1,0.3-0.1,0.7-0.1,1.1
					c0,0.8,0.2,1.4,0.5,1.9c0.3,0.5,0.8,0.7,1.4,0.7c0.3,0,0.6-0.1,0.8-0.2c0.2-0.1,0.5-0.3,0.7-0.5l0.7,0.8c-0.3,0.3-0.6,0.6-1,0.8
					c-0.4,0.2-0.8,0.3-1.2,0.3c-0.5,0-0.9-0.1-1.3-0.2c-0.4-0.2-0.7-0.4-1-0.7s-0.5-0.7-0.7-1.1S561.9,203.4,561.9,202.8z"/>
				<path fill="#FFFFFF" d="M569,199.2h4.3v1.1h-3v1.8h2.5v1.1h-2.5v2.1h3.1v1.1H569V199.2L569,199.2z"/>
			</g>
		</g>
		<g>
			<rect x="467" y="175.6" fill="none" width="192" height="20.6"/>
			<path fill="#FFFFFF" d="M468.2,179.5h1.1v3.6h4v-3.6h1.1v8.7h-1.1v-4.1h-4v4.1h-1.1V179.5z"/>
			<path fill="#FFFFFF" d="M476.3,185c0-0.5,0.1-1,0.2-1.4c0.2-0.4,0.4-0.8,0.6-1.1c0.3-0.3,0.6-0.5,0.9-0.7
				c0.3-0.2,0.7-0.2,1.1-0.2c0.4,0,0.8,0.1,1.1,0.2c0.3,0.1,0.6,0.3,0.8,0.6s0.4,0.6,0.5,1c0.1,0.4,0.2,0.8,0.2,1.2
				c0,0.2,0,0.4,0,0.6h-4.3c0,0.7,0.3,1.2,0.6,1.7c0.4,0.4,0.9,0.6,1.5,0.6c0.3,0,0.6,0,0.9-0.1c0.3-0.1,0.5-0.2,0.7-0.4l0.4,0.7
				c-0.3,0.2-0.6,0.3-0.9,0.5c-0.3,0.1-0.7,0.2-1.2,0.2c-0.4,0-0.8-0.1-1.2-0.2c-0.4-0.2-0.7-0.4-1-0.7c-0.3-0.3-0.5-0.6-0.7-1.1
				C476.4,186,476.3,185.5,476.3,185z M480.8,184.5c0-0.7-0.1-1.2-0.4-1.5c-0.3-0.3-0.7-0.5-1.2-0.5c-0.2,0-0.4,0-0.7,0.1
				s-0.4,0.2-0.6,0.4c-0.2,0.2-0.3,0.4-0.4,0.6c-0.1,0.3-0.2,0.5-0.2,0.9H480.8z"/>
			<path fill="#FFFFFF" d="M483.3,181.7h0.9l0.1,0.9h0c0.3-0.3,0.6-0.6,1-0.8c0.3-0.2,0.7-0.3,1.2-0.3c0.7,0,1.2,0.2,1.5,0.6
				c0.3,0.4,0.5,1.1,0.5,1.9v4.1h-1.1v-3.9c0-0.6-0.1-1-0.3-1.3c-0.2-0.3-0.5-0.4-0.9-0.4c-0.3,0-0.6,0.1-0.9,0.3
				c-0.3,0.2-0.5,0.4-0.9,0.7v4.7h-1.1L483.3,181.7L483.3,181.7z"/>
			<path fill="#FFFFFF" d="M490.6,181.7h0.9l0.1,1.2h0c0.2-0.4,0.5-0.7,0.8-1c0.3-0.2,0.7-0.4,1-0.4c0.3,0,0.5,0,0.7,0.1l-0.2,1
				c-0.1,0-0.2-0.1-0.3-0.1c-0.1,0-0.2,0-0.3,0c-0.3,0-0.6,0.1-0.9,0.3c-0.3,0.2-0.6,0.6-0.8,1.2v4.1h-1.1V181.7z"/>
			<path fill="#FFFFFF" d="M495.2,190c0.1,0,0.2,0,0.3,0c0.4,0,0.7-0.1,0.9-0.4c0.2-0.3,0.4-0.6,0.5-1l0.1-0.5l-2.6-6.4h1.1l1.3,3.6
				c0.1,0.3,0.2,0.6,0.3,0.9c0.1,0.3,0.2,0.6,0.3,0.9h0.1c0.1-0.3,0.2-0.6,0.3-0.9c0.1-0.3,0.2-0.6,0.3-0.9l1.2-3.6h1.1l-2.4,7
				c-0.1,0.3-0.2,0.6-0.4,0.9c-0.1,0.3-0.3,0.5-0.5,0.7c-0.2,0.2-0.4,0.4-0.7,0.5c-0.2,0.1-0.5,0.2-0.9,0.2c-0.2,0-0.3,0-0.4,0
				s-0.2-0.1-0.3-0.1l0.2-0.9C495.1,190,495.1,190,495.2,190z"/>
			<path fill="#FFFFFF" d="M509.2,188.2l-2.1-3.7h-1.6v3.7h-1.1v-8.7h2.7c0.4,0,0.9,0,1.2,0.1c0.4,0.1,0.7,0.2,1,0.4
				c0.3,0.2,0.5,0.4,0.6,0.8s0.2,0.7,0.2,1.1c0,0.7-0.2,1.2-0.5,1.6c-0.4,0.4-0.8,0.7-1.4,0.8l2.2,3.8H509.2z M505.5,183.6h1.5
				c0.7,0,1.2-0.1,1.6-0.4c0.4-0.3,0.5-0.7,0.5-1.3c0-0.6-0.2-1-0.5-1.2c-0.4-0.2-0.9-0.3-1.6-0.3h-1.5V183.6z"/>
			<path fill="#FFFFFF" d="M511.4,185c0-0.5,0.1-1,0.2-1.4c0.2-0.4,0.4-0.8,0.7-1.1c0.3-0.3,0.6-0.5,0.9-0.7
				c0.4-0.2,0.7-0.2,1.1-0.2c0.4,0,0.8,0.1,1.1,0.2c0.4,0.1,0.7,0.4,0.9,0.7c0.3,0.3,0.5,0.6,0.7,1.1c0.2,0.4,0.2,0.9,0.2,1.4
				c0,0.5-0.1,1-0.2,1.4c-0.2,0.4-0.4,0.8-0.7,1.1c-0.3,0.3-0.6,0.5-0.9,0.7c-0.4,0.2-0.7,0.2-1.1,0.2c-0.4,0-0.8-0.1-1.1-0.2
				c-0.4-0.1-0.7-0.4-0.9-0.7s-0.5-0.6-0.7-1.1S511.4,185.5,511.4,185z M512.5,185c0,0.4,0,0.7,0.1,1c0.1,0.3,0.2,0.6,0.4,0.8
				c0.2,0.2,0.4,0.4,0.6,0.5c0.2,0.1,0.5,0.2,0.8,0.2c0.3,0,0.5-0.1,0.8-0.2c0.2-0.1,0.4-0.3,0.6-0.5c0.2-0.2,0.3-0.5,0.4-0.8
				c0.1-0.3,0.1-0.6,0.1-1s0-0.7-0.1-1c-0.1-0.3-0.2-0.6-0.4-0.8c-0.2-0.2-0.4-0.4-0.6-0.5c-0.2-0.1-0.5-0.2-0.8-0.2
				c-0.3,0-0.5,0.1-0.8,0.2s-0.4,0.3-0.6,0.5c-0.2,0.2-0.3,0.5-0.4,0.8C512.5,184.3,512.5,184.6,512.5,185z"/>
			<path fill="#FFFFFF" d="M519,178.8h1.1v2.6l0,1.2c0.3-0.3,0.6-0.5,1-0.6c0.3-0.2,0.7-0.3,1.1-0.3c0.4,0,0.8,0.1,1.1,0.2
				c0.3,0.2,0.6,0.4,0.8,0.7c0.2,0.3,0.4,0.6,0.5,1c0.1,0.4,0.2,0.9,0.2,1.3c0,0.5-0.1,1-0.2,1.5c-0.1,0.4-0.4,0.8-0.6,1.1
				c-0.3,0.3-0.6,0.5-0.9,0.7c-0.3,0.2-0.7,0.2-1.1,0.2c-0.3,0-0.6-0.1-0.9-0.2c-0.3-0.1-0.6-0.3-0.9-0.6h0l-0.1,0.6H519V178.8z
				 M520.1,186.7c0.3,0.2,0.6,0.4,0.8,0.5c0.3,0.1,0.5,0.2,0.7,0.2c0.3,0,0.5-0.1,0.7-0.2s0.4-0.3,0.6-0.5c0.2-0.2,0.3-0.5,0.4-0.8
				c0.1-0.3,0.1-0.7,0.1-1.1c0-0.4,0-0.7-0.1-1c-0.1-0.3-0.2-0.5-0.3-0.7c-0.1-0.2-0.3-0.4-0.5-0.5c-0.2-0.1-0.5-0.2-0.8-0.2
				c-0.5,0-1.1,0.3-1.7,0.9V186.7z"/>
			<path fill="#FFFFFF" d="M526.9,180.4c-0.2,0-0.4-0.1-0.5-0.2s-0.2-0.3-0.2-0.5c0-0.2,0.1-0.4,0.2-0.5c0.1-0.1,0.3-0.2,0.5-0.2
				s0.4,0.1,0.5,0.2s0.2,0.3,0.2,0.5c0,0.2-0.1,0.4-0.2,0.5C527.3,180.4,527.1,180.4,526.9,180.4z M526.4,181.7h1.1v6.4h-1.1V181.7z
				"/>
			<path fill="#FFFFFF" d="M529.6,181.7h0.9l0.1,0.9h0c0.3-0.3,0.6-0.6,1-0.8c0.3-0.2,0.7-0.3,1.2-0.3c0.7,0,1.2,0.2,1.5,0.6
				c0.3,0.4,0.5,1.1,0.5,1.9v4.1h-1.1v-3.9c0-0.6-0.1-1-0.3-1.3c-0.2-0.3-0.5-0.4-0.9-0.4c-0.3,0-0.6,0.1-0.9,0.3
				c-0.3,0.2-0.5,0.4-0.9,0.7v4.7h-1.1V181.7L529.6,181.7z"/>
			<path fill="#FFFFFF" d="M536.7,186.7c0.3,0.2,0.6,0.4,0.9,0.6c0.3,0.1,0.6,0.2,1,0.2c0.4,0,0.7-0.1,1-0.3
				c0.2-0.2,0.3-0.4,0.3-0.7c0-0.2,0-0.3-0.1-0.4c-0.1-0.1-0.2-0.2-0.3-0.3c-0.1-0.1-0.3-0.2-0.5-0.2c-0.2-0.1-0.4-0.1-0.5-0.2
				c-0.2-0.1-0.5-0.2-0.7-0.3c-0.2-0.1-0.4-0.2-0.6-0.4s-0.3-0.3-0.4-0.5c-0.1-0.2-0.2-0.4-0.2-0.7c0-0.3,0.1-0.5,0.2-0.7
				c0.1-0.2,0.2-0.4,0.4-0.6c0.2-0.2,0.4-0.3,0.7-0.4c0.3-0.1,0.6-0.1,0.9-0.1c0.4,0,0.8,0.1,1.1,0.2c0.3,0.1,0.6,0.3,0.9,0.5
				l-0.5,0.7c-0.2-0.2-0.5-0.3-0.7-0.4c-0.2-0.1-0.5-0.2-0.8-0.2c-0.4,0-0.7,0.1-0.9,0.3c-0.2,0.2-0.3,0.4-0.3,0.6
				c0,0.2,0,0.3,0.1,0.4s0.2,0.2,0.3,0.3s0.3,0.2,0.5,0.2c0.2,0.1,0.4,0.1,0.5,0.2c0.2,0.1,0.5,0.2,0.7,0.3c0.2,0.1,0.4,0.2,0.6,0.4
				c0.2,0.1,0.3,0.3,0.5,0.5c0.1,0.2,0.2,0.5,0.2,0.8c0,0.3-0.1,0.5-0.2,0.7c-0.1,0.2-0.3,0.4-0.5,0.6c-0.2,0.2-0.4,0.3-0.7,0.4
				c-0.3,0.1-0.6,0.2-1,0.2c-0.5,0-0.9-0.1-1.3-0.3s-0.8-0.4-1.1-0.6L536.7,186.7z"/>
			<path fill="#FFFFFF" d="M541.9,185c0-0.5,0.1-1,0.2-1.4c0.2-0.4,0.4-0.8,0.7-1.1c0.3-0.3,0.6-0.5,0.9-0.7
				c0.4-0.2,0.7-0.2,1.1-0.2c0.4,0,0.8,0.1,1.1,0.2c0.4,0.1,0.7,0.4,0.9,0.7c0.3,0.3,0.5,0.6,0.7,1.1c0.2,0.4,0.2,0.9,0.2,1.4
				c0,0.5-0.1,1-0.2,1.4c-0.2,0.4-0.4,0.8-0.7,1.1c-0.3,0.3-0.6,0.5-0.9,0.7c-0.4,0.2-0.7,0.2-1.1,0.2c-0.4,0-0.8-0.1-1.1-0.2
				c-0.4-0.1-0.7-0.4-0.9-0.7s-0.5-0.6-0.7-1.1S541.9,185.5,541.9,185z M543.1,185c0,0.4,0,0.7,0.1,1c0.1,0.3,0.2,0.6,0.4,0.8
				c0.2,0.2,0.4,0.4,0.6,0.5c0.2,0.1,0.5,0.2,0.8,0.2c0.3,0,0.5-0.1,0.8-0.2c0.2-0.1,0.4-0.3,0.6-0.5c0.2-0.2,0.3-0.5,0.4-0.8
				c0.1-0.3,0.1-0.6,0.1-1s0-0.7-0.1-1c-0.1-0.3-0.2-0.6-0.4-0.8c-0.2-0.2-0.4-0.4-0.6-0.5c-0.2-0.1-0.5-0.2-0.8-0.2
				s-0.5,0.1-0.8,0.2c-0.2,0.1-0.4,0.3-0.6,0.5c-0.2,0.2-0.3,0.5-0.4,0.8C543.1,184.3,543.1,184.6,543.1,185z"/>
			<path fill="#FFFFFF" d="M549.6,181.7h0.9l0.1,0.9h0c0.3-0.3,0.6-0.6,1-0.8c0.3-0.2,0.7-0.3,1.2-0.3c0.7,0,1.2,0.2,1.5,0.6
				c0.3,0.4,0.5,1.1,0.5,1.9v4.1h-1.1v-3.9c0-0.6-0.1-1-0.3-1.3c-0.2-0.3-0.5-0.4-0.9-0.4c-0.3,0-0.6,0.1-0.9,0.3
				c-0.3,0.2-0.5,0.4-0.9,0.7v4.7h-1.1V181.7L549.6,181.7z"/>
		</g>
		<rect x="467" y="166.4" fill="#2E3D5A" width="90.7" height="3.2"/>
		<rect x="557.7" y="166.4" fill="#039BE5" width="45.3" height="3.2"/>
		<g id="drive-form_4_">
			<path fill="#2E3D5A" d="M648,162.3h-10.9c-0.9,0-1.6,0.7-1.6,1.6v10.9c0,0.9,0.7,1.6,1.6,1.6H648c0.9,0,1.6-0.7,1.6-1.6v-10.9
				C649.6,163,648.9,162.3,648,162.3z M640.2,173.3h-1.6v-1.6h1.6V173.3z M640.2,170.1h-1.6v-1.6h1.6V170.1z M640.2,167h-1.6v-1.6
				h1.6V167z M646.5,173.3H641v-1.6h5.5V173.3z M646.5,170.1H641v-1.6h5.5V170.1z M646.5,167H641v-1.6h5.5V167z"/>
		</g>
	</g>
</g>
</svg>
