<?xml version="1.0" encoding="utf-8"?>
<!-- Generator: Adobe Illustrator 16.0.0, SVG Export Plug-In . SVG Version: 6.00 Build 0)  -->
<!DOCTYPE svg PUBLIC "-//W3C//DTD SVG 1.1//EN" "http://www.w3.org/Graphics/SVG/1.1/DTD/svg11.dtd">
<svg version="1.1" id="Layer_1" xmlns="http://www.w3.org/2000/svg" xmlns:xlink="http://www.w3.org/1999/xlink" x="0px" y="0px"
	 width="980px" height="356px" viewBox="0 0 980 356" enable-background="new 0 0 980 356" xml:space="preserve">
<g>
	<g>
		<rect x="255.5" y="60.1" fill="#34B2FF" width="301.1" height="69.7"/>
		<g>
			<g>
				<path fill="#FFFFFF" d="M265.8,108.4c0-0.6,0.1-1.1,0.3-1.6c0.2-0.5,0.4-0.8,0.7-1.2c0.3-0.3,0.6-0.6,1-0.7s0.8-0.2,1.3-0.2
					c0.4,0,0.8,0.1,1.2,0.3c0.3,0.2,0.6,0.4,0.9,0.6l-0.7,0.8c-0.2-0.2-0.4-0.3-0.6-0.4c-0.2-0.1-0.4-0.2-0.7-0.2
					c-0.3,0-0.6,0.1-0.8,0.2c-0.2,0.1-0.5,0.3-0.6,0.5c-0.2,0.2-0.3,0.5-0.4,0.8c-0.1,0.3-0.1,0.7-0.1,1.1c0,0.8,0.2,1.4,0.5,1.9
					s0.8,0.7,1.4,0.7c0.3,0,0.6-0.1,0.8-0.2s0.5-0.3,0.7-0.5l0.7,0.8c-0.3,0.3-0.6,0.6-1,0.8c-0.4,0.2-0.8,0.3-1.2,0.3
					c-0.5,0-0.9-0.1-1.3-0.2c-0.4-0.2-0.7-0.4-1-0.7c-0.3-0.3-0.5-0.7-0.7-1.1C265.9,109.5,265.8,109,265.8,108.4z"/>
				<path fill="#FFFFFF" d="M275.3,112c-0.5,0-0.9-0.1-1.3-0.3c-0.4-0.2-0.7-0.4-1-0.7c-0.3-0.3-0.5-0.7-0.6-1.2
					c-0.2-0.5-0.2-1-0.2-1.5c0-0.6,0.1-1.1,0.2-1.5s0.4-0.8,0.6-1.1c0.3-0.3,0.6-0.5,1-0.7c0.4-0.2,0.8-0.2,1.3-0.2
					c0.5,0,0.9,0.1,1.3,0.2c0.4,0.2,0.7,0.4,1,0.7c0.3,0.3,0.5,0.7,0.6,1.1c0.2,0.5,0.2,1,0.2,1.5c0,0.6-0.1,1.1-0.2,1.5
					c-0.2,0.5-0.4,0.8-0.6,1.2c-0.3,0.3-0.6,0.6-1,0.7C276.2,112,275.8,112,275.3,112z M275.3,111c0.3,0,0.5-0.1,0.8-0.2
					s0.4-0.3,0.6-0.5c0.2-0.2,0.3-0.5,0.4-0.8c0.1-0.3,0.1-0.7,0.1-1.1c0-0.8-0.2-1.4-0.5-1.9c-0.3-0.5-0.8-0.7-1.3-0.7
					s-1,0.2-1.3,0.7c-0.3,0.5-0.5,1.1-0.5,1.9c0,0.4,0,0.8,0.1,1.1c0.1,0.3,0.2,0.6,0.4,0.8c0.2,0.2,0.4,0.4,0.6,0.5
					C274.8,110.9,275.1,111,275.3,111z"/>
				<path fill="#FFFFFF" d="M280.4,104.8h1.4l1.3,3.5l0.5,1.3h0l0.5-1.3l1.3-3.5h1.4v7.1h-1.2v-3.2c0-0.2,0-0.3,0-0.5
					c0-0.2,0-0.4,0-0.6c0-0.2,0-0.4,0.1-0.6c0-0.2,0-0.4,0.1-0.5h0l-0.6,1.6l-1.2,3.2h-0.6L282,108l-0.6-1.6h0c0,0.2,0,0.3,0,0.5
					s0,0.4,0.1,0.6c0,0.2,0,0.4,0,0.6c0,0.2,0,0.4,0,0.5v3.2h-1.2V104.8L280.4,104.8z"/>
				<path fill="#FFFFFF" d="M289.1,104.8h2.4c0.4,0,0.8,0,1.1,0.1c0.3,0.1,0.6,0.2,0.9,0.4c0.2,0.2,0.4,0.4,0.6,0.7
					c0.1,0.3,0.2,0.6,0.2,1c0,0.4-0.1,0.7-0.2,1c-0.1,0.3-0.3,0.5-0.6,0.7c-0.2,0.2-0.5,0.3-0.9,0.4c-0.3,0.1-0.7,0.1-1.1,0.1h-1.1
					v2.6h-1.3V104.8L289.1,104.8z M291.3,108.3c1,0,1.6-0.4,1.6-1.3c0-0.4-0.1-0.8-0.4-0.9c-0.3-0.2-0.6-0.3-1.2-0.3h-1v2.5H291.3z"
					/>
				<path fill="#FFFFFF" d="M298.8,112c-0.5,0-0.9-0.1-1.3-0.3c-0.4-0.2-0.7-0.4-1-0.7c-0.3-0.3-0.5-0.7-0.6-1.2
					c-0.2-0.5-0.2-1-0.2-1.5c0-0.6,0.1-1.1,0.2-1.5c0.2-0.5,0.4-0.8,0.6-1.1c0.3-0.3,0.6-0.5,1-0.7c0.4-0.2,0.8-0.2,1.3-0.2
					c0.5,0,0.9,0.1,1.3,0.2c0.4,0.2,0.7,0.4,1,0.7c0.3,0.3,0.5,0.7,0.6,1.1c0.2,0.5,0.2,1,0.2,1.5c0,0.6-0.1,1.1-0.2,1.5
					c-0.2,0.5-0.4,0.8-0.6,1.2c-0.3,0.3-0.6,0.6-1,0.7C299.6,112,299.2,112,298.8,112z M298.8,111c0.3,0,0.5-0.1,0.8-0.2
					s0.4-0.3,0.6-0.5c0.2-0.2,0.3-0.5,0.4-0.8c0.1-0.3,0.1-0.7,0.1-1.1c0-0.8-0.2-1.4-0.5-1.9c-0.3-0.5-0.8-0.7-1.3-0.7
					c-0.6,0-1,0.2-1.3,0.7c-0.3,0.5-0.5,1.1-0.5,1.9c0,0.4,0,0.8,0.1,1.1c0.1,0.3,0.2,0.6,0.4,0.8c0.2,0.2,0.4,0.4,0.6,0.5
					C298.2,110.9,298.5,111,298.8,111z"/>
				<path fill="#FFFFFF" d="M303.9,104.8h1.3l2.2,4l0.7,1.5h0c0-0.4-0.1-0.8-0.1-1.2c0-0.4-0.1-0.8-0.1-1.2v-3.1h1.2v7.1h-1.3
					l-2.2-4l-0.7-1.5h0c0,0.4,0.1,0.8,0.1,1.2c0,0.4,0.1,0.8,0.1,1.2v3.1h-1.2V104.8z"/>
				<path fill="#FFFFFF" d="M311.5,104.8h4.3v1.1h-3v1.8h2.5v1.1h-2.5v2.1h3.1v1.1h-4.4V104.8z"/>
				<path fill="#FFFFFF" d="M317.9,104.8h1.3l2.2,4l0.7,1.5h0c0-0.4-0.1-0.8-0.1-1.2c0-0.4-0.1-0.8-0.1-1.2v-3.1h1.2v7.1h-1.3
					l-2.2-4l-0.7-1.5h0c0,0.4,0.1,0.8,0.1,1.2c0,0.4,0.1,0.8,0.1,1.2v3.1h-1.2V104.8z"/>
				<path fill="#FFFFFF" d="M327,105.9h-2v-1.1h5.4v1.1h-2v6H327V105.9z"/>
				<path fill="#FFFFFF" d="M334.7,104.8h4.3v1.1h-3v2h2.6v1.1H336v3h-1.3L334.7,104.8L334.7,104.8z"/>
				<path fill="#FFFFFF" d="M343.7,110h-2.4l-0.6,1.9h-1.3l2.3-7.1h1.5l2.3,7.1h-1.3L343.7,110z M343.4,109l-0.2-0.9
					c-0.1-0.4-0.2-0.8-0.3-1.2c-0.1-0.4-0.2-0.8-0.3-1.2h0c-0.1,0.4-0.2,0.8-0.3,1.2c-0.1,0.4-0.2,0.8-0.3,1.2l-0.2,0.9H343.4z"/>
				<path fill="#FFFFFF" d="M347,104.8h1.3v7.1H347V104.8z"/>
				<path fill="#FFFFFF" d="M350.6,104.8h1.3v6h2.9v1.1h-4.2V104.8L350.6,104.8z"/>
				<path fill="#FFFFFF" d="M356.2,104.8h1.3v4.1c0,0.4,0,0.7,0.1,1c0.1,0.3,0.2,0.5,0.3,0.6c0.1,0.2,0.3,0.3,0.4,0.3
					c0.2,0.1,0.4,0.1,0.6,0.1c0.2,0,0.4,0,0.6-0.1c0.2-0.1,0.3-0.2,0.5-0.3c0.1-0.2,0.2-0.4,0.3-0.6c0.1-0.3,0.1-0.6,0.1-1v-4.1h1.2
					v4c0,0.6-0.1,1.1-0.2,1.5c-0.1,0.4-0.3,0.7-0.5,1c-0.2,0.3-0.5,0.4-0.8,0.6c-0.3,0.1-0.7,0.2-1.1,0.2c-0.4,0-0.8-0.1-1.1-0.2
					c-0.3-0.1-0.6-0.3-0.8-0.6c-0.2-0.3-0.4-0.6-0.5-1c-0.1-0.4-0.2-0.9-0.2-1.5L356.2,104.8L356.2,104.8z"/>
				<path fill="#FFFFFF" d="M367.7,111.9l-1.5-2.8h-1.1v2.8h-1.3v-7.1h2.4c0.4,0,0.7,0,1,0.1c0.3,0.1,0.6,0.2,0.8,0.4
					c0.2,0.2,0.4,0.4,0.5,0.6c0.1,0.3,0.2,0.6,0.2,1c0,0.5-0.1,1-0.4,1.3c-0.3,0.3-0.6,0.6-1,0.7l1.7,3L367.7,111.9L367.7,111.9z
					 M365.1,108.1h1c0.5,0,0.9-0.1,1.1-0.3c0.3-0.2,0.4-0.5,0.4-0.9c0-0.4-0.1-0.7-0.4-0.9c-0.3-0.2-0.6-0.2-1.1-0.2h-1V108.1z"/>
				<path fill="#FFFFFF" d="M370.9,104.8h4.3v1.1h-3v1.8h2.5v1.1h-2.5v2.1h3.1v1.1h-4.4V104.8z"/>
				<path fill="#FFFFFF" d="M380.3,111.5c-0.2-0.8-0.4-1.7-0.4-2.6c0-1,0.1-1.8,0.4-2.6c0.2-0.8,0.6-1.6,1.1-2.3l0.8,0.3
					c-0.4,0.7-0.7,1.4-0.9,2.2c-0.2,0.8-0.3,1.6-0.3,2.4c0,0.8,0.1,1.6,0.3,2.4c0.2,0.8,0.5,1.5,0.9,2.2l-0.8,0.3
					C380.9,113.1,380.6,112.3,380.3,111.5z"/>
				<path fill="#FFFFFF" d="M384.1,104.8h2.4c0.4,0,0.8,0,1.1,0.1c0.3,0.1,0.6,0.2,0.9,0.4c0.2,0.2,0.4,0.4,0.6,0.7
					c0.1,0.3,0.2,0.6,0.2,1c0,0.4-0.1,0.7-0.2,1s-0.3,0.5-0.6,0.7c-0.2,0.2-0.5,0.3-0.9,0.4c-0.3,0.1-0.7,0.1-1.1,0.1h-1.1v2.6h-1.3
					V104.8L384.1,104.8z M386.3,108.3c1,0,1.6-0.4,1.6-1.3c0-0.4-0.1-0.8-0.4-0.9c-0.3-0.2-0.6-0.3-1.2-0.3h-1v2.5H386.3z"/>
				<path fill="#FFFFFF" d="M391.2,110.2c0.3,0.2,0.5,0.4,0.9,0.6c0.3,0.1,0.6,0.2,1,0.2c0.4,0,0.7-0.1,0.9-0.2
					c0.2-0.2,0.3-0.4,0.3-0.7c0-0.1,0-0.3-0.1-0.4c-0.1-0.1-0.1-0.2-0.2-0.3c-0.1-0.1-0.2-0.1-0.3-0.2c-0.1-0.1-0.3-0.1-0.4-0.2
					l-1-0.4c-0.2-0.1-0.3-0.2-0.5-0.3s-0.3-0.2-0.5-0.4c-0.1-0.2-0.2-0.3-0.3-0.5c-0.1-0.2-0.1-0.4-0.1-0.7c0-0.3,0.1-0.5,0.2-0.8
					c0.1-0.2,0.3-0.5,0.5-0.6c0.2-0.2,0.5-0.3,0.8-0.4c0.3-0.1,0.6-0.2,1-0.2c0.4,0,0.8,0.1,1.2,0.2c0.4,0.2,0.7,0.4,1,0.7l-0.6,0.8
					c-0.2-0.2-0.5-0.3-0.7-0.4c-0.2-0.1-0.5-0.2-0.8-0.2c-0.3,0-0.6,0.1-0.8,0.2c-0.2,0.1-0.3,0.4-0.3,0.6c0,0.1,0,0.3,0.1,0.4
					c0.1,0.1,0.1,0.2,0.2,0.3c0.1,0.1,0.2,0.1,0.4,0.2c0.1,0.1,0.3,0.1,0.4,0.2l1,0.4c0.2,0.1,0.4,0.2,0.6,0.3
					c0.2,0.1,0.3,0.2,0.5,0.4c0.1,0.2,0.2,0.3,0.3,0.5c0.1,0.2,0.1,0.4,0.1,0.7c0,0.3-0.1,0.6-0.2,0.8c-0.1,0.3-0.3,0.5-0.5,0.7
					c-0.2,0.2-0.5,0.3-0.8,0.5c-0.3,0.1-0.7,0.2-1.1,0.2c-0.5,0-0.9-0.1-1.4-0.3c-0.4-0.2-0.8-0.4-1.2-0.8L391.2,110.2z"/>
				<path fill="#FFFFFF" d="M397.8,111.3c0.2-0.8,0.3-1.6,0.3-2.4c0-0.8-0.1-1.6-0.3-2.4c-0.2-0.8-0.5-1.5-0.9-2.2l0.8-0.3
					c0.5,0.7,0.8,1.5,1.1,2.3c0.2,0.8,0.4,1.7,0.4,2.6c0,1-0.1,1.8-0.4,2.6c-0.2,0.8-0.6,1.6-1.1,2.3l-0.8-0.3
					C397.3,112.8,397.6,112.1,397.8,111.3z"/>
			</g>
		</g>
		<g>
			<rect x="265.3" y="81.2" fill="none" width="192" height="20.6"/>
			<path fill="#FFFFFF" d="M270.4,91.1h-3.2l-0.8,2.6h-1.1l2.9-8.7h1.2l2.9,8.7h-1.2L270.4,91.1z M270.2,90.2l-0.4-1.3
				c-0.2-0.5-0.3-1-0.5-1.4c-0.1-0.5-0.3-1-0.4-1.5h-0.1c-0.1,0.5-0.3,1-0.4,1.5c-0.1,0.5-0.3,1-0.5,1.4l-0.4,1.3H270.2z"/>
			<path fill="#FFFFFF" d="M273.6,87.3h0.9l0.1,0.9h0c0.3-0.3,0.6-0.6,0.9-0.8c0.3-0.2,0.7-0.3,1.1-0.3c0.5,0,0.9,0.1,1.2,0.3
				c0.3,0.2,0.5,0.5,0.6,0.9c0.3-0.4,0.7-0.7,1-0.9c0.3-0.2,0.7-0.3,1.1-0.3c0.7,0,1.2,0.2,1.5,0.6c0.3,0.4,0.5,1.1,0.5,1.9v4.1
				h-1.1v-3.9c0-0.6-0.1-1-0.3-1.3c-0.2-0.3-0.5-0.4-0.9-0.4c-0.5,0-1,0.3-1.6,1v4.7h-1.1v-3.9c0-0.6-0.1-1-0.3-1.3
				c-0.2-0.3-0.5-0.4-0.9-0.4c-0.5,0-1,0.3-1.6,1v4.7h-1.1V87.3L273.6,87.3z"/>
			<path fill="#FFFFFF" d="M284.1,90.6c0-0.5,0.1-1,0.2-1.4s0.4-0.8,0.6-1.1c0.3-0.3,0.6-0.5,0.9-0.7c0.3-0.2,0.7-0.2,1.1-0.2
				c0.4,0,0.8,0.1,1.1,0.2c0.3,0.1,0.6,0.3,0.8,0.6c0.2,0.3,0.4,0.6,0.5,1c0.1,0.4,0.2,0.8,0.2,1.2c0,0.2,0,0.4,0,0.6h-4.3
				c0,0.7,0.3,1.2,0.6,1.7c0.4,0.4,0.9,0.6,1.5,0.6c0.3,0,0.6,0,0.9-0.1c0.3-0.1,0.5-0.2,0.7-0.4l0.4,0.7c-0.3,0.2-0.6,0.3-0.9,0.5
				c-0.3,0.1-0.7,0.2-1.2,0.2c-0.4,0-0.8-0.1-1.2-0.2c-0.4-0.2-0.7-0.4-1-0.7c-0.3-0.3-0.5-0.6-0.7-1.1
				C284.1,91.6,284.1,91.1,284.1,90.6z M288.6,90.1c0-0.7-0.1-1.2-0.4-1.5S287.5,88,287,88c-0.2,0-0.4,0-0.7,0.1
				c-0.2,0.1-0.4,0.2-0.6,0.4c-0.2,0.2-0.3,0.4-0.4,0.6c-0.1,0.3-0.2,0.5-0.2,0.9H288.6z"/>
			<path fill="#FFFFFF" d="M291.1,87.3h0.9l0.1,1.2h0c0.2-0.4,0.5-0.7,0.8-1c0.3-0.2,0.7-0.4,1-0.4c0.3,0,0.5,0,0.7,0.1l-0.2,1
				c-0.1,0-0.2-0.1-0.3-0.1c-0.1,0-0.2,0-0.3,0c-0.3,0-0.6,0.1-0.9,0.3c-0.3,0.2-0.6,0.6-0.8,1.2v4.1h-1.1L291.1,87.3L291.1,87.3z"
				/>
			<path fill="#FFFFFF" d="M296.3,86c-0.2,0-0.4-0.1-0.5-0.2c-0.1-0.1-0.2-0.3-0.2-0.5c0-0.2,0.1-0.4,0.2-0.5s0.3-0.2,0.5-0.2
				c0.2,0,0.4,0.1,0.5,0.2c0.1,0.1,0.2,0.3,0.2,0.5c0,0.2-0.1,0.4-0.2,0.5S296.5,86,296.3,86z M295.7,87.3h1.1v6.4h-1.1V87.3z"/>
			<path fill="#FFFFFF" d="M298.5,90.6c0-0.5,0.1-1,0.3-1.4c0.2-0.4,0.4-0.8,0.7-1.1c0.3-0.3,0.6-0.5,1-0.7c0.4-0.1,0.8-0.2,1.2-0.2
				c0.4,0,0.8,0.1,1.1,0.2c0.3,0.2,0.6,0.3,0.8,0.5l-0.5,0.7c-0.2-0.2-0.4-0.3-0.6-0.4c-0.2-0.1-0.4-0.2-0.7-0.2
				c-0.3,0-0.6,0.1-0.8,0.2c-0.2,0.1-0.5,0.3-0.6,0.5c-0.2,0.2-0.3,0.5-0.4,0.8c-0.1,0.3-0.2,0.6-0.2,1c0,0.4,0,0.7,0.1,1
				c0.1,0.3,0.2,0.6,0.4,0.8c0.2,0.2,0.4,0.4,0.6,0.5c0.2,0.1,0.5,0.2,0.8,0.2c0.3,0,0.6-0.1,0.8-0.2s0.5-0.3,0.7-0.5l0.5,0.7
				c-0.3,0.3-0.6,0.5-1,0.6c-0.4,0.1-0.7,0.2-1.1,0.2c-0.4,0-0.8-0.1-1.2-0.2c-0.4-0.1-0.7-0.4-1-0.7c-0.3-0.3-0.5-0.6-0.6-1.1
				C298.6,91.6,298.5,91.1,298.5,90.6z"/>
			<path fill="#FFFFFF" d="M304.5,92.1c0-0.7,0.3-1.2,0.9-1.6c0.6-0.4,1.6-0.6,3-0.8c0-0.2,0-0.4-0.1-0.6c0-0.2-0.1-0.4-0.2-0.5
				c-0.1-0.1-0.2-0.3-0.4-0.4c-0.2-0.1-0.4-0.1-0.6-0.1c-0.4,0-0.7,0.1-1.1,0.2c-0.3,0.1-0.6,0.3-0.9,0.5l-0.4-0.8
				c0.3-0.2,0.7-0.4,1.1-0.6c0.4-0.2,0.9-0.3,1.4-0.3c0.8,0,1.4,0.2,1.7,0.7s0.5,1.1,0.5,1.9v3.9h-0.9l-0.1-0.8h0
				c-0.3,0.3-0.6,0.5-1,0.7c-0.4,0.2-0.7,0.3-1.1,0.3c-0.5,0-1-0.2-1.4-0.5C304.7,93.1,304.5,92.7,304.5,92.1z M305.6,92
				c0,0.4,0.1,0.6,0.3,0.8c0.2,0.2,0.5,0.2,0.8,0.2c0.3,0,0.6-0.1,0.9-0.2c0.3-0.1,0.6-0.4,0.9-0.6v-1.8c-0.5,0.1-1,0.2-1.4,0.3
				c-0.4,0.1-0.7,0.2-0.9,0.3s-0.4,0.3-0.5,0.5C305.7,91.6,305.6,91.8,305.6,92z"/>
			<path fill="#FFFFFF" d="M311.6,87.3h0.9l0.1,0.9h0c0.3-0.3,0.6-0.6,1-0.8c0.3-0.2,0.7-0.3,1.2-0.3c0.7,0,1.2,0.2,1.5,0.6
				c0.3,0.4,0.5,1.1,0.5,1.9v4.1h-1.1v-3.9c0-0.6-0.1-1-0.3-1.3c-0.2-0.3-0.5-0.4-0.9-0.4c-0.3,0-0.6,0.1-0.9,0.3
				c-0.3,0.2-0.5,0.4-0.9,0.7v4.7h-1.1L311.6,87.3L311.6,87.3z"/>
			<path fill="#FFFFFF" d="M321.7,85.1h2.7c0.5,0,0.9,0,1.3,0.1c0.4,0.1,0.7,0.2,1,0.4c0.3,0.2,0.5,0.5,0.6,0.8
				c0.2,0.3,0.2,0.7,0.2,1.2c0,0.5-0.1,0.9-0.2,1.2c-0.2,0.3-0.4,0.6-0.7,0.8c-0.3,0.2-0.6,0.4-1,0.5c-0.4,0.1-0.8,0.2-1.3,0.2h-1.6
				v3.4h-1.1L321.7,85.1L321.7,85.1z M324.2,89.4c0.8,0,1.3-0.1,1.7-0.4c0.4-0.3,0.5-0.7,0.5-1.4c0-0.6-0.2-1.1-0.6-1.3
				c-0.4-0.2-0.9-0.4-1.7-0.4h-1.4v3.5H324.2z"/>
			<path fill="#FFFFFF" d="M329.2,87.3h0.9l0.1,1.2h0c0.2-0.4,0.5-0.7,0.8-1c0.3-0.2,0.7-0.4,1-0.4c0.3,0,0.5,0,0.7,0.1l-0.2,1
				c-0.1,0-0.2-0.1-0.3-0.1c-0.1,0-0.2,0-0.3,0c-0.3,0-0.6,0.1-0.9,0.3c-0.3,0.2-0.6,0.6-0.8,1.2v4.1h-1.1L329.2,87.3L329.2,87.3z"
				/>
			<path fill="#FFFFFF" d="M333.2,90.6c0-0.5,0.1-1,0.2-1.4c0.2-0.4,0.4-0.8,0.7-1.1c0.3-0.3,0.6-0.5,0.9-0.7
				c0.4-0.1,0.7-0.2,1.1-0.2c0.4,0,0.8,0.1,1.1,0.2c0.4,0.1,0.7,0.4,0.9,0.7c0.3,0.3,0.5,0.6,0.7,1.1c0.2,0.4,0.2,0.9,0.2,1.4
				c0,0.5-0.1,1-0.2,1.4c-0.2,0.4-0.4,0.8-0.7,1.1c-0.3,0.3-0.6,0.5-0.9,0.7c-0.4,0.1-0.7,0.2-1.1,0.2c-0.4,0-0.8-0.1-1.1-0.2
				c-0.4-0.1-0.7-0.4-0.9-0.7c-0.3-0.3-0.5-0.6-0.7-1.1C333.3,91.6,333.2,91.1,333.2,90.6z M334.3,90.6c0,0.4,0,0.7,0.1,1
				c0.1,0.3,0.2,0.6,0.4,0.8c0.2,0.2,0.4,0.4,0.6,0.5c0.2,0.1,0.5,0.2,0.8,0.2c0.3,0,0.5-0.1,0.8-0.2c0.2-0.1,0.4-0.3,0.6-0.5
				c0.2-0.2,0.3-0.5,0.4-0.8c0.1-0.3,0.1-0.6,0.1-1c0-0.4,0-0.7-0.1-1c-0.1-0.3-0.2-0.6-0.4-0.8c-0.2-0.2-0.4-0.4-0.6-0.5
				s-0.5-0.2-0.8-0.2c-0.3,0-0.5,0.1-0.8,0.2s-0.4,0.3-0.6,0.5c-0.2,0.2-0.3,0.5-0.4,0.8C334.3,89.9,334.3,90.2,334.3,90.6z"/>
			<path fill="#FFFFFF" d="M341.9,94.3v2.2h-1.1v-9.1h0.9l0.1,0.7h0c0.3-0.2,0.6-0.5,1-0.6c0.3-0.2,0.7-0.3,1.1-0.3
				c0.4,0,0.8,0.1,1.1,0.2c0.3,0.2,0.6,0.4,0.8,0.7c0.2,0.3,0.4,0.6,0.5,1c0.1,0.4,0.2,0.9,0.2,1.4c0,0.5-0.1,1-0.2,1.5
				c-0.1,0.4-0.4,0.8-0.6,1.1c-0.3,0.3-0.6,0.5-0.9,0.7c-0.3,0.2-0.7,0.2-1.1,0.2c-0.3,0-0.6-0.1-0.9-0.2c-0.3-0.1-0.6-0.3-0.9-0.5
				L341.9,94.3z M341.9,92.3c0.3,0.2,0.6,0.4,0.8,0.5c0.3,0.1,0.5,0.2,0.7,0.2c0.3,0,0.5-0.1,0.7-0.2s0.4-0.3,0.6-0.5
				c0.2-0.2,0.3-0.5,0.4-0.8c0.1-0.3,0.1-0.7,0.1-1.1c0-0.4,0-0.7-0.1-1c-0.1-0.3-0.2-0.5-0.3-0.7c-0.1-0.2-0.3-0.4-0.5-0.5
				c-0.2-0.1-0.5-0.2-0.8-0.2c-0.3,0-0.5,0.1-0.8,0.2c-0.3,0.1-0.6,0.4-0.9,0.6L341.9,92.3L341.9,92.3z"/>
			<path fill="#FFFFFF" d="M347.7,90.6c0-0.5,0.1-1,0.2-1.4c0.2-0.4,0.4-0.8,0.6-1.1c0.3-0.3,0.6-0.5,0.9-0.7
				c0.3-0.2,0.7-0.2,1.1-0.2c0.4,0,0.8,0.1,1.1,0.2c0.3,0.1,0.6,0.3,0.8,0.6c0.2,0.3,0.4,0.6,0.5,1c0.1,0.4,0.2,0.8,0.2,1.2
				c0,0.2,0,0.4,0,0.6h-4.3c0,0.7,0.3,1.2,0.6,1.7c0.4,0.4,0.9,0.6,1.5,0.6c0.3,0,0.6,0,0.9-0.1c0.3-0.1,0.5-0.2,0.7-0.4l0.4,0.7
				c-0.3,0.2-0.6,0.3-0.9,0.5c-0.3,0.1-0.7,0.2-1.2,0.2c-0.4,0-0.8-0.1-1.2-0.2c-0.4-0.2-0.7-0.4-1-0.7c-0.3-0.3-0.5-0.6-0.7-1.1
				C347.8,91.6,347.7,91.1,347.7,90.6z M352.2,90.1c0-0.7-0.1-1.2-0.4-1.5c-0.3-0.3-0.7-0.5-1.2-0.5c-0.2,0-0.4,0-0.7,0.1
				c-0.2,0.1-0.4,0.2-0.6,0.4c-0.2,0.2-0.3,0.4-0.4,0.6c-0.1,0.3-0.2,0.5-0.2,0.9H352.2z"/>
			<path fill="#FFFFFF" d="M354.7,87.3h0.9l0.1,1.2h0c0.2-0.4,0.5-0.7,0.8-1c0.3-0.2,0.7-0.4,1-0.4c0.3,0,0.5,0,0.7,0.1l-0.2,1
				c-0.1,0-0.2-0.1-0.3-0.1s-0.2,0-0.3,0c-0.3,0-0.6,0.1-0.9,0.3c-0.3,0.2-0.6,0.6-0.8,1.2v4.1h-1.1L354.7,87.3L354.7,87.3z"/>
			<path fill="#FFFFFF" d="M359.5,88.2h-1v-0.8l1-0.1l0.1-1.8h0.9v1.8h1.7v0.9h-1.7v3.6c0,0.4,0.1,0.7,0.2,0.9
				c0.1,0.2,0.4,0.3,0.8,0.3c0.1,0,0.2,0,0.4-0.1c0.1,0,0.3-0.1,0.4-0.1l0.2,0.8c-0.2,0.1-0.4,0.1-0.6,0.2c-0.2,0-0.4,0.1-0.6,0.1
				c-0.3,0-0.6-0.1-0.9-0.2s-0.4-0.3-0.6-0.4c-0.1-0.2-0.2-0.4-0.3-0.7c-0.1-0.3-0.1-0.6-0.1-0.9L359.5,88.2L359.5,88.2z"/>
			<path fill="#FFFFFF" d="M363.6,95.6c0.1,0,0.2,0,0.3,0c0.4,0,0.7-0.1,0.9-0.4c0.2-0.3,0.4-0.6,0.6-1l0.1-0.5l-2.6-6.4h1.1
				l1.3,3.6c0.1,0.3,0.2,0.6,0.3,0.9c0.1,0.3,0.2,0.6,0.3,0.9h0.1c0.1-0.3,0.2-0.6,0.3-0.9c0.1-0.3,0.2-0.6,0.3-0.9l1.2-3.6h1.1
				l-2.4,7c-0.1,0.3-0.2,0.6-0.4,0.9c-0.1,0.3-0.3,0.5-0.5,0.7c-0.2,0.2-0.4,0.4-0.7,0.5c-0.2,0.1-0.5,0.2-0.9,0.2
				c-0.2,0-0.3,0-0.4,0s-0.2-0.1-0.3-0.1l0.2-0.9C363.5,95.6,363.5,95.6,363.6,95.6z"/>
			<path fill="#FFFFFF" d="M372.8,85.1h1.3l1.7,4.7l0.6,1.8h0.1l0.6-1.8l1.7-4.7h1.3v8.7h-1V89c0-0.4,0-0.8,0-1.3
				c0-0.5,0.1-0.9,0.1-1.3h-0.1l-0.7,1.9l-1.7,4.5h-0.6l-1.7-4.5l-0.7-1.9h-0.1c0,0.4,0.1,0.8,0.1,1.3c0,0.5,0.1,0.9,0.1,1.3v4.8h-1
				V85.1z"/>
			<path fill="#FFFFFF" d="M382,92.1c0-0.7,0.3-1.2,0.9-1.6c0.6-0.4,1.6-0.6,3-0.8c0-0.2,0-0.4-0.1-0.6c0-0.2-0.1-0.4-0.2-0.5
				c-0.1-0.1-0.2-0.3-0.4-0.4c-0.2-0.1-0.4-0.1-0.6-0.1c-0.4,0-0.7,0.1-1.1,0.2c-0.3,0.1-0.6,0.3-0.9,0.5l-0.4-0.8
				c0.3-0.2,0.7-0.4,1.1-0.6c0.4-0.2,0.9-0.3,1.4-0.3c0.8,0,1.4,0.2,1.7,0.7s0.5,1.1,0.5,1.9v3.9h-0.9L386,93h0
				c-0.3,0.3-0.6,0.5-1,0.7c-0.4,0.2-0.7,0.3-1.1,0.3c-0.5,0-1-0.2-1.4-0.5C382.2,93.1,382,92.7,382,92.1z M383.1,92
				c0,0.4,0.1,0.6,0.3,0.8c0.2,0.2,0.5,0.2,0.8,0.2c0.3,0,0.6-0.1,0.9-0.2c0.3-0.1,0.6-0.4,0.9-0.6v-1.8c-0.5,0.1-1,0.2-1.4,0.3
				c-0.4,0.1-0.7,0.2-0.9,0.3s-0.4,0.3-0.5,0.5C383.1,91.6,383.1,91.8,383.1,92z"/>
			<path fill="#FFFFFF" d="M389.1,87.3h0.9l0.1,0.9h0c0.3-0.3,0.6-0.6,1-0.8c0.3-0.2,0.7-0.3,1.2-0.3c0.7,0,1.2,0.2,1.5,0.6
				c0.3,0.4,0.5,1.1,0.5,1.9v4.1h-1.1v-3.9c0-0.6-0.1-1-0.3-1.3c-0.2-0.3-0.5-0.4-0.9-0.4c-0.3,0-0.6,0.1-0.9,0.3
				c-0.3,0.2-0.5,0.4-0.9,0.7v4.7h-1.1L389.1,87.3L389.1,87.3z"/>
			<path fill="#FFFFFF" d="M396,92.1c0-0.7,0.3-1.2,0.9-1.6c0.6-0.4,1.6-0.6,3-0.8c0-0.2,0-0.4-0.1-0.6c0-0.2-0.1-0.4-0.2-0.5
				c-0.1-0.1-0.2-0.3-0.4-0.4c-0.2-0.1-0.4-0.1-0.6-0.1c-0.4,0-0.7,0.1-1.1,0.2c-0.3,0.1-0.6,0.3-0.9,0.5l-0.4-0.8
				c0.3-0.2,0.7-0.4,1.1-0.6c0.4-0.2,0.9-0.3,1.4-0.3c0.8,0,1.4,0.2,1.7,0.7c0.4,0.5,0.5,1.1,0.5,1.9v3.9h-0.9l-0.1-0.8h0
				c-0.3,0.3-0.6,0.5-1,0.7c-0.4,0.2-0.7,0.3-1.1,0.3c-0.5,0-1-0.2-1.4-0.5C396.2,93.1,396,92.7,396,92.1z M397.1,92
				c0,0.4,0.1,0.6,0.3,0.8c0.2,0.2,0.5,0.2,0.8,0.2c0.3,0,0.6-0.1,0.9-0.2c0.3-0.1,0.6-0.4,0.9-0.6v-1.8c-0.5,0.1-1,0.2-1.4,0.3
				c-0.4,0.1-0.7,0.2-0.9,0.3s-0.4,0.3-0.5,0.5C397.1,91.6,397.1,91.8,397.1,92z"/>
			<path fill="#FFFFFF" d="M402.6,95c0-0.3,0.1-0.5,0.3-0.8c0.2-0.2,0.4-0.5,0.7-0.7v-0.1c-0.2-0.1-0.3-0.2-0.4-0.4
				c-0.1-0.2-0.2-0.4-0.2-0.6c0-0.3,0.1-0.5,0.2-0.7c0.2-0.2,0.3-0.4,0.5-0.5v-0.1c-0.2-0.2-0.4-0.4-0.6-0.7c-0.2-0.3-0.3-0.6-0.3-1
				c0-0.4,0.1-0.7,0.2-1c0.1-0.3,0.3-0.5,0.5-0.7c0.2-0.2,0.5-0.4,0.8-0.5c0.3-0.1,0.6-0.2,0.9-0.2c0.2,0,0.3,0,0.5,0
				c0.2,0,0.3,0.1,0.4,0.1h2.2v0.8h-1.3c0.1,0.1,0.3,0.3,0.4,0.6c0.1,0.2,0.2,0.5,0.2,0.8c0,0.3-0.1,0.7-0.2,0.9
				c-0.1,0.3-0.3,0.5-0.5,0.7c-0.2,0.2-0.5,0.3-0.7,0.4c-0.3,0.1-0.6,0.2-0.9,0.2c-0.2,0-0.3,0-0.5-0.1c-0.2,0-0.3-0.1-0.5-0.2
				c-0.1,0.1-0.2,0.2-0.3,0.3c-0.1,0.1-0.1,0.3-0.1,0.4c0,0.2,0.1,0.4,0.2,0.5c0.2,0.1,0.5,0.2,0.9,0.2h1.2c0.8,0,1.3,0.1,1.7,0.4
				c0.4,0.2,0.6,0.6,0.6,1.2c0,0.3-0.1,0.6-0.2,0.9c-0.1,0.3-0.4,0.5-0.6,0.7c-0.3,0.2-0.6,0.4-1,0.5c-0.4,0.1-0.9,0.2-1.4,0.2
				c-0.4,0-0.8,0-1.1-0.1c-0.3-0.1-0.6-0.2-0.8-0.3c-0.2-0.1-0.4-0.3-0.5-0.5C402.7,95.5,402.6,95.3,402.6,95z M403.6,94.9
				c0,0.3,0.2,0.6,0.5,0.8c0.3,0.2,0.8,0.3,1.4,0.3c0.3,0,0.6,0,0.8-0.1c0.3-0.1,0.5-0.2,0.6-0.3s0.3-0.3,0.4-0.4
				c0.1-0.2,0.1-0.3,0.1-0.5c0-0.3-0.1-0.5-0.3-0.6c-0.2-0.1-0.5-0.2-1-0.2h-1.1c-0.1,0-0.3,0-0.4,0c-0.1,0-0.3,0-0.4-0.1
				c-0.2,0.2-0.4,0.3-0.5,0.5C403.6,94.5,403.6,94.7,403.6,94.9z M405.3,91c0.2,0,0.4,0,0.5-0.1c0.2-0.1,0.3-0.2,0.4-0.3
				c0.1-0.1,0.2-0.3,0.3-0.5c0.1-0.2,0.1-0.4,0.1-0.6c0-0.5-0.1-0.8-0.4-1.1c-0.3-0.3-0.6-0.4-1-0.4c-0.4,0-0.7,0.1-1,0.4
				c-0.3,0.3-0.4,0.6-0.4,1.1c0,0.2,0,0.5,0.1,0.6c0.1,0.2,0.2,0.4,0.3,0.5c0.1,0.1,0.3,0.2,0.4,0.3C404.9,91,405.1,91,405.3,91z"/>
			<path fill="#FFFFFF" d="M409.1,90.6c0-0.5,0.1-1,0.2-1.4s0.4-0.8,0.6-1.1c0.3-0.3,0.6-0.5,0.9-0.7c0.3-0.2,0.7-0.2,1.1-0.2
				c0.4,0,0.8,0.1,1.1,0.2c0.3,0.1,0.6,0.3,0.8,0.6c0.2,0.3,0.4,0.6,0.5,1c0.1,0.4,0.2,0.8,0.2,1.2c0,0.2,0,0.4,0,0.6h-4.3
				c0,0.7,0.3,1.2,0.6,1.7c0.4,0.4,0.9,0.6,1.5,0.6c0.3,0,0.6,0,0.9-0.1c0.3-0.1,0.5-0.2,0.7-0.4l0.4,0.7c-0.3,0.2-0.6,0.3-0.9,0.5
				c-0.3,0.1-0.7,0.2-1.2,0.2c-0.4,0-0.8-0.1-1.2-0.2c-0.4-0.2-0.7-0.4-1-0.7c-0.3-0.3-0.5-0.6-0.7-1.1
				C409.2,91.6,409.1,91.1,409.1,90.6z M413.6,90.1c0-0.7-0.1-1.2-0.4-1.5S412.5,88,412,88c-0.2,0-0.4,0-0.7,0.1
				c-0.2,0.1-0.4,0.2-0.6,0.4c-0.2,0.2-0.3,0.4-0.4,0.6c-0.1,0.3-0.2,0.5-0.2,0.9H413.6z"/>
			<path fill="#FFFFFF" d="M416.2,87.3h0.9l0.1,0.9h0c0.3-0.3,0.6-0.6,0.9-0.8c0.3-0.2,0.7-0.3,1.1-0.3c0.5,0,0.9,0.1,1.2,0.3
				c0.3,0.2,0.5,0.5,0.6,0.9c0.3-0.4,0.7-0.7,1-0.9c0.3-0.2,0.7-0.3,1.1-0.3c0.7,0,1.2,0.2,1.5,0.6c0.3,0.4,0.5,1.1,0.5,1.9v4.1H424
				v-3.9c0-0.6-0.1-1-0.3-1.3s-0.5-0.4-0.9-0.4c-0.5,0-1,0.3-1.6,1v4.7h-1.1v-3.9c0-0.6-0.1-1-0.3-1.3c-0.2-0.3-0.5-0.4-0.9-0.4
				c-0.5,0-1,0.3-1.6,1v4.7h-1.1V87.3L416.2,87.3z"/>
			<path fill="#FFFFFF" d="M426.7,90.6c0-0.5,0.1-1,0.2-1.4s0.4-0.8,0.6-1.1c0.3-0.3,0.6-0.5,0.9-0.7c0.3-0.2,0.7-0.2,1.1-0.2
				c0.4,0,0.8,0.1,1.1,0.2c0.3,0.1,0.6,0.3,0.8,0.6c0.2,0.3,0.4,0.6,0.5,1c0.1,0.4,0.2,0.8,0.2,1.2c0,0.2,0,0.4,0,0.6h-4.3
				c0,0.7,0.3,1.2,0.6,1.7c0.4,0.4,0.9,0.6,1.5,0.6c0.3,0,0.6,0,0.9-0.1c0.3-0.1,0.5-0.2,0.7-0.4l0.4,0.7c-0.3,0.2-0.6,0.3-0.9,0.5
				c-0.3,0.1-0.7,0.2-1.2,0.2c-0.4,0-0.8-0.1-1.2-0.2c-0.4-0.2-0.7-0.4-1-0.7c-0.3-0.3-0.5-0.6-0.7-1.1
				C426.7,91.6,426.7,91.1,426.7,90.6z M431.2,90.1c0-0.7-0.1-1.2-0.4-1.5s-0.7-0.5-1.2-0.5c-0.2,0-0.4,0-0.7,0.1
				c-0.2,0.1-0.4,0.2-0.6,0.4c-0.2,0.2-0.3,0.4-0.4,0.6c-0.1,0.3-0.2,0.5-0.2,0.9H431.2z"/>
			<path fill="#FFFFFF" d="M433.7,87.3h0.9l0.1,0.9h0c0.3-0.3,0.6-0.6,1-0.8c0.3-0.2,0.7-0.3,1.2-0.3c0.7,0,1.2,0.2,1.5,0.6
				s0.5,1.1,0.5,1.9v4.1h-1.1v-3.9c0-0.6-0.1-1-0.3-1.3c-0.2-0.3-0.5-0.4-0.9-0.4c-0.3,0-0.6,0.1-0.9,0.3c-0.3,0.2-0.5,0.4-0.9,0.7
				v4.7h-1.1L433.7,87.3L433.7,87.3z"/>
			<path fill="#FFFFFF" d="M441.1,88.2h-1v-0.8l1-0.1l0.1-1.8h0.9v1.8h1.7v0.9h-1.7v3.6c0,0.4,0.1,0.7,0.2,0.9
				c0.1,0.2,0.4,0.3,0.8,0.3c0.1,0,0.2,0,0.4-0.1c0.1,0,0.3-0.1,0.4-0.1l0.2,0.8c-0.2,0.1-0.4,0.1-0.6,0.2c-0.2,0-0.4,0.1-0.6,0.1
				c-0.3,0-0.6-0.1-0.9-0.2c-0.2-0.1-0.4-0.3-0.6-0.4c-0.1-0.2-0.2-0.4-0.3-0.7c-0.1-0.3-0.1-0.6-0.1-0.9L441.1,88.2L441.1,88.2z"/>
		</g>
		<rect x="265.3" y="72" fill="#2E3D5A" width="90.7" height="3.2"/>
		<rect x="356" y="72" fill="#039BE5" width="90.7" height="3.2"/>
		<g id="drive-form_5_">
			<path fill="#2E3D5A" d="M546.5,67.9h-10.9c-0.9,0-1.6,0.7-1.6,1.6v10.9c0,0.9,0.7,1.6,1.6,1.6h10.9c0.9,0,1.6-0.7,1.6-1.6V69.5
				C548.1,68.6,547.4,67.9,546.5,67.9z M538.7,78.9h-1.6v-1.6h1.6V78.9z M538.7,75.7h-1.6v-1.6h1.6V75.7z M538.7,72.6h-1.6V71h1.6
				V72.6z M544.9,78.9h-5.5v-1.6h5.5V78.9z M544.9,75.7h-5.5v-1.6h5.5V75.7z M544.9,72.6h-5.5V71h5.5V72.6z"/>
		</g>
	</g>
</g>
</svg>
