<?xml version="1.0" encoding="utf-8"?>
<!-- Generator: Adobe Illustrator 16.0.0, SVG Export Plug-In . SVG Version: 6.00 Build 0)  -->
<!DOCTYPE svg PUBLIC "-//W3C//DTD SVG 1.1//EN" "http://www.w3.org/Graphics/SVG/1.1/DTD/svg11.dtd">
<svg version="1.1" id="Layer_1" xmlns="http://www.w3.org/2000/svg" xmlns:xlink="http://www.w3.org/1999/xlink" x="0px" y="0px"
	 width="569.501px" height="553.095px" viewBox="0 0 569.501 553.095" enable-background="new 0 0 569.501 553.095"
	 xml:space="preserve">
<polygon fill="#FBC02D" points="199.014,136.658 0.397,164.572 0,378.936 125.594,447.26 324.208,419.344 324.606,204.979 "/>
<polygon fill="#F6BE1A" points="324.606,204.979 324.208,419.344 125.594,447.26 125.991,232.896 "/>
<g>
	<polygon fill="#424242" points="259.007,345.749 258.873,357.875 191.68,367.319 191.813,355.19 	"/>
	<g>
		<polygon fill="#424242" points="245.29,294.61 205.397,300.215 225.383,275.963 		"/>
		<polygon fill="#424242" points="235.406,291.471 235.279,335.36 215.281,338.067 215.41,294.184 		"/>
	</g>
</g>
<polygon fill="#F9CE1D" points="125.594,447.26 0,378.936 0.397,164.572 125.991,232.896 "/>
<polygon fill="#FAD53E" points="125.991,232.896 0.397,164.572 199.014,136.658 324.606,204.979 "/>
<g>
	<polygon fill="#F6BE1A" points="71.814,255.523 42.392,239.519 42.485,187.24 71.907,203.244 	"/>
	<polygon fill="#FBC02D" points="71.907,203.244 42.485,187.24 241.402,159.959 270.825,175.967 	"/>
</g>
<polygon fill="#FBC02D" points="443.908,242.496 245.29,270.407 244.894,484.773 370.489,553.095 569.104,525.182 569.501,310.819 
	"/>
<polygon fill="#F6BE1A" points="569.501,310.819 569.104,525.182 370.489,553.095 370.886,338.73 "/>
<g>
	<polygon fill="#424242" points="503.901,451.581 503.768,463.713 436.574,473.155 436.708,461.026 	"/>
	<g>
		<polygon fill="#424242" points="490.185,400.446 450.292,406.051 470.278,381.803 		"/>
		<polygon fill="#424242" points="480.302,397.312 480.173,441.199 460.176,443.908 460.304,400.021 		"/>
	</g>
</g>
<polygon fill="#F9CE1D" points="370.489,553.095 244.894,484.773 245.29,270.407 370.886,338.73 "/>
<polygon fill="#FAD53E" points="370.886,338.73 245.29,270.407 443.908,242.496 569.501,310.819 "/>
<g>
	<polygon fill="#F6BE1A" points="316.706,361.358 287.286,345.355 287.379,293.078 316.801,309.083 	"/>
	<polygon fill="#FBC02D" points="316.801,309.083 287.379,293.078 486.296,265.803 515.72,281.806 	"/>
</g>
<path fill="#2E3D5A" d="M145.993,0c-44.541,0-80.667,36.115-80.667,80.665c0,36.454,24.209,67.229,57.396,77.222l23.259,27.545
	l23.259-27.545c33.207-9.996,57.412-40.768,57.412-77.222C226.652,36.115,190.531,0,145.993,0z"/>
<path fill="#2E3D5A" d="M401.552,103.227c-44.541,0-80.666,36.117-80.666,80.666c0,36.455,24.209,67.233,57.396,77.223
	l23.259,27.545l23.259-27.545c33.207-9.996,57.412-40.768,57.412-77.223C482.212,139.344,446.092,103.227,401.552,103.227z"/>
<g>
	<polygon fill="#232E47" points="414.683,140.942 373.374,140.942 373.374,221.729 432.921,221.729 432.921,159.18 	"/>
</g>
<g>
	<g>
		<line fill="none" stroke="#EEEEEE" stroke-width="7" stroke-miterlimit="10" x1="387.229" y1="204.02" x2="405.549" y2="204.02"/>
	</g>
	<g>
		<g>
			<polyline fill="none" stroke="#EEEEEE" stroke-width="7" stroke-miterlimit="10" points="413.669,141.956 413.669,160.195 
				431.907,160.195 			"/>
		</g>
		<g>
			<polygon fill="none" stroke="#EEEEEE" stroke-width="7" stroke-miterlimit="10" points="414.683,140.942 373.374,140.942 
				373.374,221.729 432.921,221.729 432.921,159.18 			"/>
		</g>
	</g>
</g>
<g id="create">
	<path fill="#039BE5" d="M403.51,201.39v6.161h6.162l17.837-18l-6.161-6.161L403.51,201.39z M432.212,184.851
		c0.648-0.649,0.648-1.623,0-2.272l-3.729-3.729c-0.649-0.648-1.622-0.648-2.271,0l-2.919,2.92l6.162,6.162L432.212,184.851z"/>
</g>
<g>
	<path fill="#EEEEEE" fill-opacity="0.9" d="M146.988,36.785c-23.521,0-42.764,19.242-42.764,42.766
		c0,23.521,19.243,42.767,42.764,42.767c23.523,0,42.767-19.246,42.767-42.767C189.755,56.027,170.511,36.785,146.988,36.785z"/>
	<path fill="#232E47" d="M146.988,113.762c-18.816,0-34.212-15.397-34.212-34.211c0-18.819,15.396-34.214,34.212-34.214
		c18.817,0,34.214,15.395,34.214,34.214C181.202,98.364,165.806,113.762,146.988,113.762z"/>
	<polygon fill="#EEEEEE" fill-opacity="0.9" points="149.129,57.059 142.713,57.059 142.713,83.826 164.95,97.512 168.374,91.953 
		149.129,80.402 	"/>
	<path fill="#039BE5" d="M149.129,80.402l17.954,10.775c1.312-2.921,2.062-6.15,2.062-9.562c0-11.779-8.697-21.499-20.017-23.162
		V80.402z"/>
</g>
<g>
</g>
<g>
</g>
<g>
</g>
<g>
</g>
<g>
</g>
<g>
</g>
<g>
</g>
<g>
</g>
<g>
</g>
<g>
</g>
<g>
</g>
<g>
</g>
<g>
</g>
<g>
</g>
<g>
</g>
</svg>
