<?xml version="1.0" encoding="utf-8"?>
<!-- Generator: Adobe Illustrator 16.0.0, SVG Export Plug-In . SVG Version: 6.00 Build 0)  -->
<!DOCTYPE svg PUBLIC "-//W3C//DTD SVG 1.1//EN" "http://www.w3.org/Graphics/SVG/1.1/DTD/svg11.dtd">
<svg version="1.1" id="Layer_1" xmlns="http://www.w3.org/2000/svg" xmlns:xlink="http://www.w3.org/1999/xlink" x="0px" y="0px"
	 width="679.259px" height="583.813px" viewBox="0 0 679.259 583.813" enable-background="new 0 0 679.259 583.813"
	 xml:space="preserve">
<rect opacity="0.75" fill="#ECEFF0" width="679.259" height="583.813"/>
<g>
	<defs>
		<rect id="SVGID_1_" y="0.008" width="677.345" height="583.805"/>
	</defs>
	<clipPath id="SVGID_2_">
		<use xlink:href="#SVGID_1_"  overflow="visible"/>
	</clipPath>
	<g opacity="0.15" clip-path="url(#SVGID_2_)">
		<g>
			<path fill="none" stroke="#78909C" stroke-width="8" stroke-linecap="round" stroke-linejoin="round" stroke-miterlimit="10" d="
				M133.354-25.169l26.581,55.525c1.326,2.767,2.96,7.48,3.63,10.473l4.104,18.291c0.675,2.994,2.305,7.705,3.63,10.473
				l57.332,117.485"/>
			<path fill="none" stroke="#78909C" stroke-width="8" stroke-linecap="round" stroke-linejoin="round" stroke-miterlimit="10" d="
				M162.345,35.387l15.146,19.03c1.912,2.4,4.559,6.627,5.884,9.394l57.328,117.487"/>
		</g>
		<g>
			<path fill="none" stroke="#78909C" stroke-width="8" stroke-linecap="round" stroke-linejoin="round" stroke-miterlimit="10" d="
				M447.71,630.474L340.721,411.502c-1.325-2.766-2.961-7.479-3.63-10.472l-4.104-18.292c-0.675-2.991-2.305-7.704-3.629-10.471
				l-57.333-117.486"/>
			<path fill="none" stroke="#78909C" stroke-width="8" stroke-linecap="round" stroke-linejoin="round" stroke-miterlimit="10" d="
				M338.312,406.473l-15.145-19.032c-1.912-2.399-4.559-6.625-5.885-9.394L259.954,260.56"/>
		</g>

			<circle fill="none" stroke="#78909C" stroke-width="10" stroke-linecap="round" stroke-linejoin="round" stroke-miterlimit="10" cx="248.659" cy="220.344" r="38.812"/>

			<line fill="none" stroke="#78909C" stroke-width="10" stroke-linecap="round" stroke-linejoin="round" stroke-miterlimit="10" x1="-75.7" y1="75.596" x2="213.108" y2="204.774"/>

			<line fill="none" stroke="#78909C" stroke-width="10" stroke-linecap="round" stroke-linejoin="round" stroke-miterlimit="10" x1="283.895" y1="235.979" x2="563.2" y2="360.906"/>

			<line fill="none" stroke="#78909C" stroke-width="10" stroke-linecap="round" stroke-linejoin="round" stroke-miterlimit="10" x1="270.05" y1="187.961" x2="427.78" y2="-20.818"/>

			<line fill="none" stroke="#78909C" stroke-width="10" stroke-linecap="round" stroke-linejoin="round" stroke-miterlimit="10" x1="-34.789" y1="611.712" x2="226.436" y2="252.155"/>

			<line fill="none" stroke="#78909C" stroke-width="7" stroke-linecap="round" stroke-linejoin="round" stroke-miterlimit="10" x1="172.888" y1="-20.818" x2="172.888" y2="611.712"/>

			<line fill="none" stroke="#78909C" stroke-width="7" stroke-linecap="round" stroke-linejoin="round" stroke-miterlimit="10" x1="248.659" y1="259.156" x2="248.659" y2="611.712"/>

			<line fill="none" stroke="#78909C" stroke-width="7" stroke-linecap="round" stroke-linejoin="round" stroke-miterlimit="10" x1="248.659" y1="-25.1" x2="248.659" y2="181.533"/>

			<line fill="none" stroke="#78909C" stroke-width="7" stroke-linecap="round" stroke-linejoin="round" stroke-miterlimit="10" x1="287.471" y1="220.344" x2="703.277" y2="220.344"/>

			<line fill="none" stroke="#78909C" stroke-width="7" stroke-linecap="round" stroke-linejoin="round" stroke-miterlimit="10" x1="-42.135" y1="220.344" x2="209.848" y2="220.344"/>

			<line fill="none" stroke="#78909C" stroke-width="7" stroke-linecap="round" stroke-linejoin="round" stroke-miterlimit="10" x1="336.524" y1="-20.818" x2="336.524" y2="611.712"/>

			<line fill="none" stroke="#78909C" stroke-width="7" stroke-linecap="round" stroke-linejoin="round" stroke-miterlimit="10" x1="489.667" y1="-20.818" x2="489.667" y2="611.712"/>

			<line fill="none" stroke="#78909C" stroke-width="7" stroke-linecap="round" stroke-linejoin="round" stroke-miterlimit="10" x1="684.766" y1="-20.818" x2="684.766" y2="611.712"/>

			<line fill="none" stroke="#78909C" stroke-width="10" stroke-linecap="round" stroke-linejoin="round" stroke-miterlimit="10" x1="587.216" y1="-20.818" x2="587.216" y2="611.712"/>

			<line fill="none" stroke="#78909C" stroke-width="7" stroke-linecap="round" stroke-linejoin="round" stroke-miterlimit="10" x1="-161.076" y1="371.391" x2="528.477" y2="371.391"/>

			<line fill="none" stroke="#78909C" stroke-width="7" stroke-linecap="round" stroke-linejoin="round" stroke-miterlimit="10" x1="95.824" y1="-20.818" x2="95.824" y2="611.712"/>

			<line fill="none" stroke="#78909C" stroke-width="7" stroke-linecap="round" stroke-linejoin="round" stroke-miterlimit="10" x1="-12.765" y1="-20.818" x2="-12.765" y2="611.712"/>

			<line fill="none" stroke="#78909C" stroke-width="7" stroke-linecap="round" stroke-linejoin="round" stroke-miterlimit="10" x1="368.431" y1="468.213" x2="563.2" y2="380.832"/>

			<line fill="none" stroke="#78909C" stroke-width="7" stroke-linecap="round" stroke-linejoin="round" stroke-miterlimit="10" x1="133.354" y1="220.344" x2="133.354" y2="286.429"/>

			<line fill="none" stroke="#78909C" stroke-width="7" stroke-linecap="round" stroke-linejoin="round" stroke-miterlimit="10" x1="-42.135" y1="286.429" x2="176.037" y2="286.429"/>

			<line fill="none" stroke="#78909C" stroke-width="7" stroke-linecap="round" stroke-linejoin="round" stroke-miterlimit="10" x1="38.632" y1="220.344" x2="38.632" y2="254.782"/>

			<line fill="none" stroke="#78909C" stroke-width="7" stroke-linecap="round" stroke-linejoin="round" stroke-miterlimit="10" x1="68.702" y1="254.784" x2="26.662" y2="254.784"/>

			<line fill="none" stroke="#78909C" stroke-width="7" stroke-linecap="round" stroke-linejoin="round" stroke-miterlimit="10" x1="95.824" y1="333.52" x2="-12.765" y2="333.52"/>

			<line fill="none" stroke="#78909C" stroke-width="7" stroke-linecap="round" stroke-linejoin="round" stroke-miterlimit="10" x1="-56.819" y1="35.387" x2="703.277" y2="35.387"/>

			<line fill="none" stroke="#78909C" stroke-width="7" stroke-linecap="round" stroke-linejoin="round" stroke-miterlimit="10" x1="489.667" y1="348.429" x2="382.677" y2="333.518"/>

			<polyline fill="none" stroke="#78909C" stroke-width="7" stroke-linecap="round" stroke-linejoin="round" stroke-miterlimit="10" points="
			387.922,371.391 387.922,415.446 406.28,451.232 		"/>

			<line fill="none" stroke="#78909C" stroke-width="7" stroke-linecap="round" stroke-linejoin="round" stroke-miterlimit="10" x1="336.524" y1="419.642" x2="248.659" y2="419.642"/>

			<line fill="none" stroke="#78909C" stroke-width="7" stroke-linecap="round" stroke-linejoin="round" stroke-miterlimit="10" x1="172.888" y1="327.962" x2="248.659" y2="327.962"/>

			<line fill="none" stroke="#78909C" stroke-width="7" stroke-linecap="round" stroke-linejoin="round" stroke-miterlimit="10" x1="-12.765" y1="128.001" x2="703.277" y2="128.001"/>

			<line fill="none" stroke="#78909C" stroke-width="7" stroke-linecap="round" stroke-linejoin="round" stroke-miterlimit="10" x1="248.659" y1="78.216" x2="703.277" y2="78.216"/>

			<polyline fill="none" stroke="#78909C" stroke-width="7" stroke-linecap="round" stroke-linejoin="round" stroke-miterlimit="10" points="
			703.277,468.213 172.888,468.213 95.824,468.213 48.597,496.938 -161.076,496.938 		"/>

			<line fill="none" stroke="#78909C" stroke-width="7" stroke-linecap="round" stroke-linejoin="round" stroke-miterlimit="10" x1="172.888" y1="529.778" x2="248.659" y2="529.778"/>

			<line fill="none" stroke="#78909C" stroke-width="7" stroke-linecap="round" stroke-linejoin="round" stroke-miterlimit="10" x1="249.584" y1="545.512" x2="338.312" y2="545.512"/>

			<line fill="none" stroke="#78909C" stroke-width="7" stroke-linecap="round" stroke-linejoin="round" stroke-miterlimit="10" x1="213.108" y1="529.778" x2="213.108" y2="593.762"/>

			<line fill="none" stroke="#78909C" stroke-width="7" stroke-linecap="round" stroke-linejoin="round" stroke-miterlimit="10" x1="-75.7" y1="593.762" x2="703.277" y2="593.762"/>

			<line fill="none" stroke="#78909C" stroke-width="7" stroke-linecap="round" stroke-linejoin="round" stroke-miterlimit="10" x1="336.524" y1="174.753" x2="489.667" y2="174.753"/>

			<polyline fill="none" stroke="#78909C" stroke-width="7" stroke-linecap="round" stroke-linejoin="round" stroke-miterlimit="10" points="
			465.814,128.001 465.814,154.733 336.524,154.733 		"/>

			<polyline fill="none" stroke="#78909C" stroke-width="7" stroke-linecap="round" stroke-linejoin="round" stroke-miterlimit="10" points="
			95.824,94.477 60.66,94.477 60.66,65.295 32.339,55.667 		"/>

			<polyline fill="none" stroke="#78909C" stroke-width="7" stroke-linecap="round" stroke-linejoin="round" stroke-miterlimit="10" points="
			-12.765,103.746 47.683,35.387 74.295,-20.818 		"/>

			<polyline fill="none" stroke="#78909C" stroke-width="7" stroke-linecap="round" stroke-linejoin="round" stroke-miterlimit="10" points="
			-12.765,424.524 22.898,424.524 74.295,461.566 		"/>

			<polyline fill="none" stroke="#78909C" stroke-width="7" stroke-linecap="round" stroke-linejoin="round" stroke-miterlimit="10" points="
			22.898,424.524 30.766,411.311 58.562,411.311 58.562,397.615 		"/>

			<polyline fill="none" stroke="#78909C" stroke-width="7" stroke-linecap="round" stroke-linejoin="round" stroke-miterlimit="10" points="
			48.597,443.043 64.081,424.524 58.562,411.311 		"/>

			<line fill="none" stroke="#78909C" stroke-width="7" stroke-linecap="round" stroke-linejoin="round" stroke-miterlimit="10" x1="398.509" y1="529.778" x2="587.216" y2="529.778"/>

			<polyline fill="none" stroke="#78909C" stroke-width="7" stroke-linecap="round" stroke-linejoin="round" stroke-miterlimit="10" points="
			489.667,300.567 528.477,300.567 550.504,314.75 550.504,355.228 		"/>

			<line fill="none" stroke="#78909C" stroke-width="7" stroke-linecap="round" stroke-linejoin="round" stroke-miterlimit="10" x1="534.342" y1="304.345" x2="518.638" y2="340.973"/>

			<line fill="none" stroke="#78909C" stroke-width="7" stroke-linecap="round" stroke-linejoin="round" stroke-miterlimit="10" x1="489.667" y1="280.135" x2="684.766" y2="280.135"/>
	</g>
</g>
<g>
	<g>
		<polygon fill="#34B2FF" points="160.725,125.679 160.725,151.963 149.832,163.998 160.725,176.033 160.725,441.442
			475.091,441.442 475.091,125.679 		"/>
		<g>
			<path fill="#FFFFFF" d="M189.68,163.542c0.424,0.449,0.925,0.81,1.501,1.083s1.174,0.41,1.792,0.41
				c0.788,0,1.401-0.179,1.838-0.537c0.437-0.357,0.655-0.828,0.655-1.41c0-0.303-0.052-0.561-0.154-0.773
				c-0.104-0.212-0.243-0.394-0.419-0.546c-0.176-0.151-0.385-0.288-0.627-0.409c-0.243-0.121-0.504-0.249-0.783-0.382l-1.71-0.746
				c-0.279-0.121-0.564-0.267-0.855-0.437c-0.292-0.17-0.552-0.376-0.783-0.619s-0.418-0.531-0.564-0.864s-0.218-0.719-0.218-1.156
				c0-0.449,0.094-0.867,0.282-1.255s0.449-0.725,0.783-1.01c0.333-0.285,0.728-0.506,1.183-0.665
				c0.455-0.157,0.956-0.236,1.501-0.236c0.715,0,1.376,0.136,1.983,0.409c0.606,0.273,1.122,0.628,1.546,1.064l-0.819,0.983
				c-0.364-0.352-0.767-0.628-1.21-0.828s-0.943-0.3-1.501-0.3c-0.667,0-1.204,0.155-1.61,0.464c-0.407,0.309-0.61,0.737-0.61,1.283
				c0,0.291,0.058,0.537,0.173,0.737s0.27,0.376,0.464,0.528c0.194,0.152,0.407,0.285,0.637,0.4c0.23,0.115,0.467,0.221,0.709,0.318
				l1.692,0.728c0.339,0.146,0.661,0.312,0.964,0.5s0.564,0.406,0.783,0.655c0.218,0.249,0.391,0.54,0.519,0.874
				c0.127,0.334,0.191,0.719,0.191,1.155c0,0.473-0.094,0.916-0.282,1.329s-0.458,0.773-0.81,1.083
				c-0.352,0.31-0.776,0.552-1.274,0.728s-1.062,0.264-1.692,0.264c-0.837,0-1.614-0.158-2.33-0.473
				c-0.716-0.315-1.334-0.746-1.856-1.292L189.68,163.542z"/>
			<path fill="#FFFFFF" d="M199.579,160.175c0-0.958,0.133-1.82,0.4-2.584c0.267-0.765,0.637-1.413,1.11-1.947
				c0.473-0.534,1.034-0.943,1.683-1.228s1.356-0.428,2.12-0.428c0.728,0,1.365,0.148,1.911,0.446s0.995,0.64,1.346,1.028
				l-0.855,0.965c-0.315-0.34-0.664-0.61-1.046-0.81s-0.828-0.3-1.337-0.3c-0.57,0-1.086,0.112-1.547,0.337
				s-0.855,0.546-1.183,0.964s-0.583,0.925-0.764,1.52c-0.182,0.594-0.273,1.262-0.273,2.001c0,0.752,0.088,1.428,0.264,2.029
				s0.421,1.113,0.737,1.538c0.315,0.425,0.701,0.752,1.156,0.983s0.967,0.346,1.538,0.346c0.582,0,1.089-0.115,1.52-0.346
				c0.43-0.23,0.84-0.558,1.228-0.983l0.855,0.928c-0.473,0.546-1.007,0.971-1.602,1.274c-0.594,0.303-1.273,0.455-2.038,0.455
				c-0.752,0-1.446-0.14-2.083-0.418c-0.637-0.279-1.189-0.682-1.656-1.21c-0.467-0.528-0.831-1.177-1.092-1.947
				C199.709,162.016,199.579,161.146,199.579,160.175z"/>
			<path fill="#FFFFFF" d="M211.57,154.207h1.51v5.004h5.55v-5.004h1.529v11.937h-1.529v-5.623h-5.55v5.623h-1.51V154.207z"/>
			<path fill="#FFFFFF" d="M224.344,154.207h6.878v1.274h-5.368v3.749h4.531v1.292h-4.531v4.331h5.55v1.292h-7.06V154.207z"/>
			<path fill="#FFFFFF" d="M234.844,154.207h2.984c1.844,0,3.245,0.51,4.203,1.528c0.958,1.019,1.438,2.481,1.438,4.386
				c0,0.946-0.121,1.792-0.364,2.538c-0.243,0.746-0.601,1.377-1.074,1.893s-1.055,0.91-1.747,1.183s-1.486,0.409-2.384,0.409
				h-3.057V154.207z M237.719,164.906c1.395,0,2.441-0.418,3.139-1.256c0.697-0.837,1.046-2.013,1.046-3.53
				s-0.349-2.675-1.046-3.476c-0.698-0.801-1.744-1.201-3.139-1.201h-1.365v9.462H237.719z"/>
			<path fill="#FFFFFF" d="M246.889,154.207h1.51v7.042c0,0.716,0.073,1.316,0.219,1.802c0.146,0.485,0.342,0.873,0.591,1.165
				c0.249,0.291,0.542,0.5,0.882,0.627c0.339,0.127,0.704,0.191,1.092,0.191c0.4,0,0.771-0.064,1.11-0.191
				c0.34-0.127,0.637-0.336,0.892-0.627c0.255-0.292,0.455-0.679,0.601-1.165s0.218-1.086,0.218-1.802v-7.042h1.456v7.006
				c0,0.958-0.109,1.765-0.328,2.42c-0.218,0.655-0.519,1.186-0.901,1.592c-0.382,0.407-0.834,0.698-1.355,0.874
				c-0.522,0.176-1.086,0.264-1.692,0.264s-1.174-0.088-1.701-0.264c-0.528-0.176-0.983-0.467-1.365-0.874
				c-0.382-0.406-0.683-0.937-0.901-1.592c-0.218-0.655-0.328-1.461-0.328-2.42V154.207z"/>
			<path fill="#FFFFFF" d="M259.59,154.207h1.51v10.645h5.223v1.292h-6.733V154.207z"/>
			<path fill="#FFFFFF" d="M269.344,154.207h6.878v1.274h-5.368v3.749h4.532v1.292h-4.532v4.331h5.549v1.292h-7.06V154.207z"/>
			<path fill="#FFFFFF" d="M279.843,154.207h2.984c1.844,0,3.245,0.51,4.203,1.528c0.959,1.019,1.438,2.481,1.438,4.386
				c0,0.946-0.121,1.792-0.363,2.538c-0.242,0.746-0.601,1.377-1.074,1.893c-0.473,0.516-1.055,0.91-1.746,1.183
				s-1.486,0.409-2.384,0.409h-3.058V154.207z M282.718,164.906c1.396,0,2.441-0.418,3.14-1.256c0.697-0.837,1.046-2.013,1.046-3.53
				s-0.349-2.675-1.046-3.476c-0.698-0.801-1.744-1.201-3.14-1.201h-1.364v9.462H282.718z"/>
			<path fill="#FFFFFF" d="M295.31,154.207h1.564l1.256,6.496c0.109,0.655,0.225,1.298,0.346,1.929s0.236,1.273,0.346,1.929h0.073
				c0.134-0.655,0.272-1.301,0.419-1.938c0.145-0.637,0.284-1.277,0.418-1.92l1.656-6.496h1.383l1.656,6.496
				c0.145,0.631,0.291,1.268,0.436,1.911c0.146,0.643,0.291,1.292,0.438,1.947h0.072c0.109-0.655,0.219-1.301,0.328-1.938
				s0.225-1.277,0.346-1.92l1.256-6.496h1.455l-2.475,11.937h-1.82l-1.801-7.188c-0.109-0.461-0.209-0.913-0.301-1.356
				c-0.09-0.442-0.185-0.895-0.281-1.355h-0.073c-0.097,0.461-0.197,0.913-0.3,1.355c-0.104,0.443-0.203,0.895-0.301,1.356
				l-1.765,7.188h-1.802L295.31,154.207z"/>
			<path fill="#FFFFFF" d="M316.036,166.362c-0.752,0-1.441-0.146-2.065-0.437c-0.625-0.291-1.161-0.707-1.61-1.247
				c-0.449-0.54-0.798-1.195-1.047-1.965c-0.248-0.77-0.373-1.634-0.373-2.593s0.125-1.817,0.373-2.575
				c0.249-0.758,0.598-1.401,1.047-1.929c0.449-0.527,0.985-0.931,1.61-1.21c0.624-0.279,1.313-0.418,2.065-0.418
				s1.439,0.143,2.064,0.428s1.165,0.691,1.62,1.219c0.455,0.527,0.807,1.17,1.056,1.929c0.248,0.758,0.373,1.61,0.373,2.557
				c0,0.958-0.125,1.823-0.373,2.593c-0.249,0.771-0.601,1.426-1.056,1.965c-0.455,0.54-0.995,0.956-1.62,1.247
				S316.788,166.362,316.036,166.362z M316.036,165.034c0.533,0,1.016-0.115,1.446-0.346s0.801-0.561,1.11-0.992
				c0.309-0.431,0.549-0.946,0.719-1.547s0.254-1.277,0.254-2.029c0-0.74-0.084-1.407-0.254-2.002
				c-0.17-0.594-0.41-1.098-0.719-1.51c-0.31-0.412-0.68-0.73-1.11-0.955s-0.913-0.337-1.446-0.337
				c-0.534,0-1.017,0.112-1.447,0.337c-0.43,0.225-0.801,0.543-1.109,0.955c-0.31,0.413-0.549,0.916-0.719,1.51
				c-0.17,0.595-0.255,1.262-0.255,2.002c0,0.752,0.085,1.428,0.255,2.029s0.409,1.116,0.719,1.547
				c0.309,0.431,0.68,0.761,1.109,0.992C315.02,164.918,315.502,165.034,316.036,165.034z"/>
			<path fill="#FFFFFF" d="M331.175,166.144l-2.875-5.041h-2.165v5.041h-1.511v-11.937h3.73c0.607,0,1.168,0.058,1.684,0.173
				c0.516,0.116,0.958,0.307,1.328,0.573c0.37,0.267,0.658,0.613,0.864,1.037c0.206,0.425,0.31,0.946,0.31,1.565
				c0,0.935-0.242,1.68-0.729,2.238c-0.484,0.558-1.134,0.94-1.946,1.146l3.021,5.204H331.175z M326.135,159.866h2.001
				c0.935,0,1.65-0.191,2.148-0.573c0.496-0.382,0.746-0.961,0.746-1.738c0-0.789-0.25-1.34-0.746-1.656
				c-0.498-0.315-1.214-0.473-2.148-0.473h-2.001V159.866z"/>
			<path fill="#FFFFFF" d="M336.106,154.207h1.51v5.987h0.055l4.969-5.987h1.71l-3.73,4.549l4.312,7.388h-1.692l-3.566-6.205
				l-2.057,2.42v3.785h-1.51V154.207z"/>
			<path fill="#FFFFFF" d="M356.541,166.362c-0.753,0-1.44-0.146-2.065-0.437s-1.162-0.707-1.61-1.247
				c-0.449-0.54-0.798-1.195-1.046-1.965c-0.25-0.77-0.373-1.634-0.373-2.593s0.123-1.817,0.373-2.575
				c0.248-0.758,0.597-1.401,1.046-1.929c0.448-0.527,0.985-0.931,1.61-1.21c0.625-0.279,1.312-0.418,2.065-0.418
				c0.752,0,1.44,0.143,2.065,0.428s1.164,0.691,1.619,1.219c0.455,0.527,0.807,1.17,1.055,1.929
				c0.249,0.758,0.373,1.61,0.373,2.557c0,0.958-0.124,1.823-0.373,2.593c-0.248,0.771-0.6,1.426-1.055,1.965
				c-0.455,0.54-0.994,0.956-1.619,1.247S357.293,166.362,356.541,166.362z M356.541,165.034c0.533,0,1.016-0.115,1.446-0.346
				s0.801-0.561,1.109-0.992c0.311-0.431,0.549-0.946,0.72-1.547c0.169-0.601,0.255-1.277,0.255-2.029
				c0-0.74-0.086-1.407-0.255-2.002c-0.171-0.594-0.409-1.098-0.72-1.51c-0.309-0.412-0.679-0.73-1.109-0.955
				s-0.913-0.337-1.446-0.337c-0.534,0-1.017,0.112-1.446,0.337c-0.432,0.225-0.801,0.543-1.11,0.955
				c-0.31,0.413-0.55,0.916-0.719,1.51c-0.171,0.595-0.255,1.262-0.255,2.002c0,0.752,0.084,1.428,0.255,2.029
				c0.169,0.601,0.409,1.116,0.719,1.547s0.679,0.761,1.11,0.992C355.524,164.918,356.007,165.034,356.541,165.034z"/>
			<path fill="#FFFFFF" d="M371.681,166.144l-2.875-5.041h-2.166v5.041h-1.51v-11.937h3.73c0.605,0,1.167,0.058,1.683,0.173
				c0.516,0.116,0.958,0.307,1.328,0.573c0.37,0.267,0.658,0.613,0.864,1.037c0.207,0.425,0.31,0.946,0.31,1.565
				c0,0.935-0.243,1.68-0.728,2.238c-0.486,0.558-1.135,0.94-1.947,1.146l3.021,5.204H371.681z M366.64,159.866h2.002
				c0.934,0,1.649-0.191,2.146-0.573c0.498-0.382,0.746-0.961,0.746-1.738c0-0.789-0.248-1.34-0.746-1.656
				c-0.497-0.315-1.213-0.473-2.146-0.473h-2.002V159.866z"/>
			<path fill="#FFFFFF" d="M376.611,154.207h2.984c1.844,0,3.245,0.51,4.203,1.528c0.958,1.019,1.438,2.481,1.438,4.386
				c0,0.946-0.121,1.792-0.364,2.538c-0.242,0.746-0.6,1.377-1.073,1.893s-1.056,0.91-1.747,1.183s-1.486,0.409-2.383,0.409h-3.058
				V154.207z M379.486,164.906c1.396,0,2.441-0.418,3.14-1.256c0.697-0.837,1.045-2.013,1.045-3.53s-0.348-2.675-1.045-3.476
				c-0.698-0.801-1.744-1.201-3.14-1.201h-1.364v9.462H379.486z"/>
			<path fill="#FFFFFF" d="M388.712,154.207h6.879v1.274h-5.369v3.749h4.531v1.292h-4.531v4.331h5.551v1.292h-7.061V154.207z"/>
			<path fill="#FFFFFF" d="M405.762,166.144l-2.875-5.041h-2.165v5.041h-1.511v-11.937h3.73c0.606,0,1.167,0.058,1.683,0.173
				c0.516,0.116,0.959,0.307,1.328,0.573c0.371,0.267,0.658,0.613,0.865,1.037c0.206,0.425,0.309,0.946,0.309,1.565
				c0,0.935-0.242,1.68-0.728,2.238s-1.134,0.94-1.946,1.146l3.02,5.204H405.762z M400.722,159.866h2.001
				c0.935,0,1.649-0.191,2.147-0.573c0.497-0.382,0.746-0.961,0.746-1.738c0-0.789-0.249-1.34-0.746-1.656
				c-0.498-0.315-1.213-0.473-2.147-0.473h-2.001V159.866z"/>
		</g>
	</g>
	<g>
		<path fill="#FFFFFF" d="M254.124,197.599h7.747v1.435h-6.045v4.549h5.123v1.435h-5.123v6.025h-1.701V197.599z"/>
		<path fill="#FFFFFF" d="M263.099,208.46c0-1.093,0.488-1.93,1.465-2.51c0.977-0.581,2.531-0.987,4.662-1.22
			c0-0.314-0.031-0.622-0.092-0.922s-0.171-0.567-0.328-0.799c-0.157-0.232-0.366-0.42-0.625-0.563
			c-0.26-0.144-0.594-0.215-1.004-0.215c-0.587,0-1.13,0.109-1.629,0.328c-0.499,0.218-0.946,0.464-1.342,0.737l-0.676-1.168
			c0.464-0.3,1.031-0.591,1.701-0.871c0.669-0.28,1.407-0.42,2.213-0.42c1.216,0,2.097,0.373,2.644,1.117
			c0.546,0.745,0.82,1.739,0.82,2.982v6.107h-1.394l-0.144-1.188h-0.041c-0.479,0.396-0.994,0.734-1.547,1.014
			s-1.137,0.42-1.752,0.42c-0.847,0-1.547-0.246-2.101-0.738C263.376,210.058,263.099,209.361,263.099,208.46z M264.759,208.337
			c0,0.574,0.167,0.984,0.502,1.229c0.334,0.246,0.748,0.369,1.24,0.369c0.478,0,0.933-0.113,1.363-0.338
			c0.431-0.226,0.884-0.557,1.363-0.994v-2.767c-0.833,0.109-1.537,0.239-2.111,0.389c-0.574,0.15-1.035,0.328-1.383,0.533
			c-0.348,0.205-0.598,0.441-0.748,0.707C264.834,207.732,264.759,208.023,264.759,208.337z"/>
		<path fill="#FFFFFF" d="M274.288,196.451h1.681v3.976l-0.041,1.803c0.45-0.396,0.942-0.728,1.476-0.994
			c0.533-0.267,1.079-0.4,1.639-0.4c0.643,0,1.21,0.12,1.701,0.359c0.492,0.239,0.905,0.581,1.24,1.024
			c0.334,0.444,0.588,0.977,0.758,1.599c0.172,0.622,0.257,1.315,0.257,2.08c0,0.847-0.116,1.605-0.349,2.274
			c-0.232,0.669-0.547,1.237-0.942,1.701c-0.396,0.464-0.854,0.816-1.373,1.055c-0.52,0.239-1.065,0.359-1.64,0.359
			c-0.465,0-0.946-0.106-1.445-0.318c-0.498-0.211-0.967-0.516-1.403-0.912h-0.062l-0.143,0.984h-1.354V196.451z M275.969,208.829
			c0.437,0.383,0.871,0.653,1.302,0.81c0.43,0.157,0.809,0.236,1.137,0.236c0.41,0,0.789-0.092,1.138-0.277s0.648-0.444,0.901-0.779
			c0.253-0.334,0.451-0.748,0.595-1.24s0.215-1.045,0.215-1.66c0-0.546-0.048-1.045-0.144-1.496
			c-0.096-0.451-0.249-0.837-0.461-1.158c-0.212-0.321-0.484-0.57-0.82-0.748c-0.334-0.178-0.734-0.267-1.198-0.267
			c-0.806,0-1.694,0.451-2.664,1.353V208.829z"/>
		<path fill="#FFFFFF" d="M286.728,199.033c-0.328,0-0.604-0.103-0.83-0.308c-0.225-0.205-0.338-0.464-0.338-0.779
			c0-0.328,0.113-0.591,0.338-0.789c0.226-0.198,0.502-0.297,0.83-0.297s0.604,0.099,0.83,0.297
			c0.226,0.198,0.338,0.461,0.338,0.789c0,0.314-0.112,0.574-0.338,0.779C287.332,198.931,287.056,199.033,286.728,199.033z
			 M285.867,201.083h1.681v9.959h-1.681V201.083z"/>
		<path fill="#FFFFFF" d="M290.375,206.083c0-0.833,0.126-1.574,0.379-2.223s0.591-1.199,1.015-1.65
			c0.423-0.451,0.912-0.792,1.465-1.024c0.554-0.232,1.138-0.349,1.752-0.349c0.615,0,1.199,0.116,1.752,0.349
			c0.554,0.232,1.042,0.574,1.466,1.024c0.423,0.451,0.761,1.001,1.015,1.65c0.252,0.649,0.379,1.39,0.379,2.223
			c0,0.82-0.127,1.554-0.379,2.203c-0.254,0.649-0.592,1.196-1.015,1.64c-0.424,0.444-0.912,0.782-1.466,1.014
			c-0.553,0.232-1.137,0.349-1.752,0.349c-0.614,0-1.198-0.116-1.752-0.349c-0.553-0.232-1.042-0.57-1.465-1.014
			c-0.424-0.444-0.762-0.991-1.015-1.64S290.375,206.902,290.375,206.083z M292.116,206.083c0,0.574,0.068,1.093,0.205,1.558
			c0.137,0.465,0.332,0.864,0.584,1.199c0.253,0.335,0.557,0.594,0.912,0.779s0.744,0.277,1.168,0.277s0.812-0.092,1.168-0.277
			s0.66-0.444,0.912-0.779c0.253-0.334,0.447-0.734,0.584-1.199c0.137-0.464,0.205-0.984,0.205-1.558s-0.068-1.096-0.205-1.567
			c-0.137-0.472-0.331-0.878-0.584-1.22c-0.252-0.341-0.557-0.604-0.912-0.789c-0.355-0.185-0.744-0.277-1.168-0.277
			s-0.812,0.092-1.168,0.277c-0.355,0.184-0.659,0.447-0.912,0.789c-0.252,0.342-0.447,0.748-0.584,1.22
			C292.185,204.986,292.116,205.509,292.116,206.083z"/>
		<path fill="#FFFFFF" d="M306.933,197.599h7.747v1.435h-6.046v4.549h5.123v1.435h-5.123v6.025h-1.701V197.599z"/>
		<path fill="#FFFFFF" d="M316.073,206.083c0-0.819,0.126-1.554,0.379-2.203c0.252-0.649,0.588-1.199,1.004-1.65
			c0.417-0.451,0.892-0.796,1.424-1.035c0.533-0.239,1.087-0.359,1.66-0.359c0.629,0,1.192,0.109,1.691,0.328
			c0.498,0.219,0.915,0.533,1.25,0.942c0.334,0.41,0.591,0.902,0.769,1.476c0.177,0.574,0.267,1.216,0.267,1.926
			c0,0.369-0.021,0.676-0.062,0.922h-6.721c0.068,1.079,0.399,1.933,0.994,2.562c0.594,0.628,1.369,0.943,2.325,0.943
			c0.478,0,0.919-0.072,1.321-0.215c0.403-0.144,0.789-0.331,1.158-0.563l0.595,1.106c-0.438,0.273-0.923,0.512-1.455,0.717
			s-1.142,0.308-1.823,0.308c-0.67,0-1.295-0.12-1.876-0.359s-1.086-0.581-1.517-1.024c-0.43-0.444-0.768-0.987-1.014-1.629
			C316.196,207.633,316.073,206.902,316.073,206.083z M323.04,205.324c0-1.024-0.215-1.806-0.645-2.346
			c-0.431-0.54-1.035-0.81-1.814-0.81c-0.355,0-0.693,0.072-1.014,0.215c-0.321,0.144-0.611,0.348-0.871,0.615
			s-0.475,0.594-0.646,0.983c-0.171,0.39-0.284,0.837-0.339,1.342H323.04z"/>
		<path fill="#FFFFFF" d="M327.181,201.083h1.393l0.144,1.803h0.062c0.342-0.628,0.755-1.127,1.24-1.496
			c0.484-0.369,1.014-0.553,1.588-0.553c0.396,0,0.751,0.068,1.065,0.205l-0.327,1.476c-0.164-0.055-0.314-0.096-0.451-0.123
			s-0.308-0.041-0.513-0.041c-0.423,0-0.864,0.171-1.321,0.512c-0.459,0.342-0.857,0.936-1.199,1.783v6.394h-1.68V201.083z"/>
		<path fill="#FFFFFF" d="M334.495,201.083h1.394l0.144,1.803h0.062c0.341-0.628,0.755-1.127,1.239-1.496
			c0.485-0.369,1.016-0.553,1.589-0.553c0.396,0,0.751,0.068,1.065,0.205l-0.328,1.476c-0.164-0.055-0.314-0.096-0.45-0.123
			c-0.137-0.027-0.308-0.041-0.513-0.041c-0.424,0-0.864,0.171-1.322,0.512c-0.457,0.342-0.857,0.936-1.198,1.783v6.394h-1.681
			V201.083z"/>
		<path fill="#FFFFFF" d="M340.868,206.083c0-0.819,0.127-1.554,0.379-2.203c0.253-0.649,0.588-1.199,1.005-1.65
			s0.892-0.796,1.424-1.035c0.533-0.239,1.087-0.359,1.66-0.359c0.628,0,1.192,0.109,1.69,0.328c0.499,0.219,0.916,0.533,1.25,0.942
			c0.335,0.41,0.592,0.902,0.77,1.476c0.177,0.574,0.266,1.216,0.266,1.926c0,0.369-0.021,0.676-0.062,0.922h-6.722
			c0.068,1.079,0.4,1.933,0.994,2.562s1.369,0.943,2.326,0.943c0.478,0,0.918-0.072,1.321-0.215s0.789-0.331,1.158-0.563
			l0.595,1.106c-0.438,0.273-0.923,0.512-1.455,0.717c-0.533,0.205-1.142,0.308-1.824,0.308c-0.67,0-1.295-0.12-1.875-0.359
			c-0.581-0.239-1.086-0.581-1.517-1.024s-0.769-0.987-1.015-1.629C340.991,207.633,340.868,206.902,340.868,206.083z
			 M347.836,205.324c0-1.024-0.215-1.806-0.646-2.346c-0.43-0.54-1.035-0.81-1.813-0.81c-0.355,0-0.693,0.072-1.015,0.215
			c-0.32,0.144-0.611,0.348-0.871,0.615s-0.475,0.594-0.645,0.983c-0.172,0.39-0.284,0.837-0.339,1.342H347.836z"/>
		<path fill="#FFFFFF" d="M351.976,201.083h1.394l0.144,1.803h0.062c0.341-0.628,0.755-1.127,1.239-1.496
			c0.485-0.369,1.016-0.553,1.589-0.553c0.396,0,0.751,0.068,1.065,0.205l-0.328,1.476c-0.164-0.055-0.314-0.096-0.45-0.123
			c-0.137-0.027-0.308-0.041-0.513-0.041c-0.424,0-0.864,0.171-1.322,0.512c-0.457,0.342-0.857,0.936-1.198,1.783v6.394h-1.681
			V201.083z"/>
		<path fill="#FFFFFF" d="M358.287,208.46c0-1.093,0.488-1.93,1.466-2.51c0.977-0.581,2.53-0.987,4.662-1.22
			c0-0.314-0.031-0.622-0.093-0.922s-0.171-0.567-0.327-0.799c-0.158-0.232-0.366-0.42-0.625-0.563
			c-0.26-0.144-0.595-0.215-1.005-0.215c-0.587,0-1.13,0.109-1.629,0.328c-0.499,0.218-0.946,0.464-1.343,0.737l-0.676-1.168
			c0.464-0.3,1.031-0.591,1.701-0.871c0.669-0.28,1.406-0.42,2.213-0.42c1.216,0,2.097,0.373,2.644,1.117
			c0.546,0.745,0.819,1.739,0.819,2.982v6.107h-1.393l-0.145-1.188h-0.041c-0.479,0.396-0.994,0.734-1.547,1.014
			s-1.137,0.42-1.752,0.42c-0.848,0-1.547-0.246-2.101-0.738C358.563,210.058,358.287,209.361,358.287,208.46z M359.947,208.337
			c0,0.574,0.167,0.984,0.502,1.229c0.335,0.246,0.748,0.369,1.239,0.369c0.479,0,0.934-0.113,1.363-0.338
			c0.431-0.226,0.885-0.557,1.363-0.994v-2.767c-0.834,0.109-1.537,0.239-2.111,0.389c-0.574,0.15-1.035,0.328-1.383,0.533
			c-0.349,0.205-0.598,0.441-0.748,0.707C360.022,207.732,359.947,208.023,359.947,208.337z"/>
	</g>
	<g>
		<path fill="#FFFFFF" d="M253.86,232.399c0.348,0.328,0.746,0.594,1.192,0.798c0.447,0.203,0.895,0.306,1.341,0.306
			c0.557,0,0.979-0.114,1.267-0.343s0.432-0.531,0.432-0.909c0-0.199-0.037-0.368-0.112-0.507c-0.074-0.14-0.179-0.261-0.313-0.365
			c-0.134-0.104-0.293-0.201-0.477-0.291c-0.184-0.089-0.385-0.179-0.604-0.268l-1.341-0.582c-0.238-0.099-0.475-0.224-0.708-0.372
			c-0.233-0.149-0.445-0.328-0.633-0.537c-0.189-0.208-0.34-0.451-0.455-0.73c-0.114-0.278-0.171-0.596-0.171-0.954
			c0-0.388,0.082-0.748,0.246-1.081c0.164-0.333,0.39-0.624,0.678-0.872c0.288-0.248,0.633-0.442,1.036-0.581
			s0.842-0.209,1.319-0.209c0.566,0,1.113,0.112,1.64,0.335c0.526,0.224,0.979,0.524,1.356,0.902l-0.879,1.103
			c-0.318-0.258-0.646-0.462-0.984-0.611s-0.715-0.224-1.133-0.224c-0.467,0-0.84,0.102-1.118,0.306
			c-0.278,0.204-0.417,0.484-0.417,0.842c0,0.188,0.042,0.35,0.127,0.484c0.084,0.134,0.199,0.253,0.343,0.357
			s0.311,0.199,0.499,0.283c0.189,0.084,0.382,0.167,0.582,0.246l1.326,0.552c0.288,0.119,0.552,0.259,0.79,0.417
			c0.238,0.159,0.445,0.343,0.619,0.552s0.311,0.45,0.41,0.723c0.099,0.273,0.149,0.589,0.149,0.946c0,0.397-0.08,0.771-0.238,1.118
			c-0.159,0.348-0.39,0.653-0.693,0.917c-0.303,0.263-0.671,0.472-1.103,0.626c-0.432,0.153-0.922,0.23-1.468,0.23
			c-0.656,0-1.289-0.124-1.9-0.372c-0.611-0.249-1.15-0.602-1.617-1.059L253.86,232.399z"/>
		<path fill="#FFFFFF" d="M261.878,229.985c0-0.795,0.117-1.508,0.35-2.139s0.554-1.165,0.961-1.602
			c0.407-0.438,0.884-0.77,1.431-0.999c0.546-0.228,1.133-0.343,1.759-0.343c0.596,0,1.13,0.125,1.602,0.373
			c0.472,0.249,0.862,0.537,1.17,0.865l-0.969,1.073c-0.249-0.249-0.514-0.445-0.797-0.589s-0.614-0.216-0.991-0.216
			c-0.407,0-0.777,0.082-1.11,0.246s-0.621,0.397-0.864,0.701c-0.244,0.303-0.432,0.673-0.566,1.11
			c-0.134,0.437-0.201,0.929-0.201,1.475c0,1.113,0.241,1.985,0.723,2.616s1.135,0.946,1.96,0.946c0.437,0,0.817-0.085,1.14-0.254
			s0.624-0.407,0.902-0.715l0.969,1.058c-0.397,0.457-0.85,0.808-1.356,1.051s-1.068,0.365-1.684,0.365
			c-0.626,0-1.207-0.109-1.744-0.328c-0.537-0.218-1.004-0.541-1.401-0.969c-0.397-0.427-0.71-0.953-0.939-1.579
			C261.992,231.506,261.878,230.79,261.878,229.985z"/>
		<path fill="#FFFFFF" d="M271.715,225.082h1.729v3.92h3.949v-3.92h1.729v9.747h-1.729v-4.322h-3.949v4.322h-1.729V225.082z"/>
		<path fill="#FFFFFF" d="M282.341,225.082h5.873v1.46h-4.144v2.489h3.503v1.461h-3.503v2.876h4.292v1.461h-6.021V225.082z"/>
		<path fill="#FFFFFF" d="M291.104,225.082h2.608c1.49,0,2.653,0.402,3.487,1.207c0.835,0.805,1.252,2.012,1.252,3.622
			c0,0.805-0.106,1.515-0.32,2.131s-0.521,1.131-0.924,1.543s-0.89,0.723-1.461,0.932c-0.571,0.208-1.22,0.312-1.945,0.312h-2.697
			V225.082z M293.594,233.428c0.993,0,1.756-0.285,2.288-0.856c0.531-0.571,0.797-1.458,0.797-2.66c0-1.192-0.268-2.062-0.805-2.608
			s-1.297-0.82-2.28-0.82h-0.761v6.945H293.594z"/>
		<path fill="#FFFFFF" d="M301.12,225.082h1.729v5.604c0,0.527,0.047,0.972,0.142,1.334c0.094,0.363,0.229,0.653,0.402,0.872
			s0.38,0.375,0.618,0.47c0.239,0.095,0.507,0.142,0.806,0.142c0.297,0,0.57-0.047,0.818-0.142c0.249-0.095,0.463-0.251,0.642-0.47
			s0.317-0.509,0.417-0.872c0.1-0.362,0.149-0.807,0.149-1.334v-5.604h1.654v5.47c0,0.805-0.085,1.488-0.253,2.049
			c-0.17,0.562-0.416,1.021-0.738,1.379s-0.711,0.618-1.162,0.782c-0.453,0.164-0.961,0.246-1.527,0.246s-1.076-0.082-1.528-0.246
			s-0.84-0.425-1.163-0.782c-0.322-0.357-0.57-0.817-0.744-1.379c-0.174-0.561-0.262-1.244-0.262-2.049V225.082z"/>
		<path fill="#FFFFFF" d="M311.672,225.082h1.729v8.286h4.054v1.461h-5.783V225.082z"/>
		<path fill="#FFFFFF" d="M319.899,225.082h5.872v1.46h-4.144v2.489h3.502v1.461h-3.502v2.876h4.293v1.461h-6.021V225.082z"/>
		<path fill="#FFFFFF" d="M328.663,225.082h2.607c1.49,0,2.653,0.402,3.488,1.207c0.834,0.805,1.252,2.012,1.252,3.622
			c0,0.805-0.107,1.515-0.32,2.131c-0.215,0.616-0.521,1.131-0.924,1.543s-0.891,0.723-1.461,0.932
			c-0.572,0.208-1.221,0.312-1.945,0.312h-2.697V225.082z M331.151,233.428c0.994,0,1.756-0.285,2.288-0.856s0.798-1.458,0.798-2.66
			c0-1.192-0.269-2.062-0.805-2.608c-0.537-0.546-1.297-0.82-2.281-0.82h-0.76v6.945H331.151z"/>
	</g>
	<g>
		<path fill-rule="evenodd" clip-rule="evenodd" fill="#2F3E5A" d="M232.532,207.344l-12.193-0.111l0.054-6.03l7.809,0.072
			L232.532,207.344L232.532,207.344z M225.466,214.998c-0.575,0.566-0.937,1.35-0.943,2.22c-0.01,0.869,0.337,1.659,0.902,2.234
			c0.565,0.576,1.349,0.937,2.218,0.943c0.873,0.007,1.662-0.337,2.236-0.902c0.577-0.563,0.936-1.349,0.943-2.219
			c0.008-0.868-0.339-1.66-0.901-2.236c-0.565-0.574-1.351-0.936-2.221-0.941C226.832,214.09,226.04,214.434,225.466,214.998
			L225.466,214.998z M236.112,218.798l1.755,0.018l0.054-5.99l-1.753-0.016l0.054-5.964l-6.314-8.853l-12.785-0.116l-0.189,20.746
			l4.447,0.041c0.269,1.19,0.864,2.259,1.691,3.1c1.158,1.179,2.761,1.913,4.541,1.93c1.782,0.017,3.4-0.689,4.578-1.845
			c0.843-0.827,1.458-1.886,1.746-3.069l0.834,0.006L236.112,218.798z"/>
		<path fill-rule="evenodd" clip-rule="evenodd" fill="#2F3E5A" d="M195.976,214.729c-0.573,0.566-0.932,1.349-0.94,2.22
			c-0.007,0.868,0.336,1.66,0.901,2.236c0.565,0.575,1.348,0.936,2.219,0.941c0.87,0.008,1.66-0.338,2.235-0.902
			c0.575-0.565,0.935-1.348,0.941-2.218c0.009-0.871-0.336-1.662-0.9-2.238c-0.564-0.573-1.349-0.934-2.22-0.94
			C197.343,213.819,196.553,214.165,195.976,214.729L195.976,214.729z M215.065,218.606l-10.617-0.098
			c-0.29,1.186-0.905,2.243-1.747,3.069c-1.178,1.156-2.794,1.863-4.576,1.846c-1.78-0.016-3.386-0.751-4.542-1.928
			c-0.827-0.843-1.422-1.91-1.689-3.101l-2.042-0.021v-0.033l-1.657-0.016l0.047-5.191l1.657,0.014l0.159-17.361l25.214,0.23
			L215.065,218.606z"/>
	</g>
	<g>
		<g id="schedule">
			<path fill="#2F3E5A" fill-opacity="0.9" d="M209.501,265.796c-10.64,0-19.344,8.704-19.344,19.345
				c0,10.64,8.705,19.345,19.344,19.345c10.64,0,19.345-8.705,19.345-19.345C228.846,274.5,220.142,265.796,209.501,265.796z
				 M209.501,300.617c-8.512,0-15.476-6.966-15.476-15.476c0-8.513,6.964-15.477,15.476-15.477s15.476,6.964,15.476,15.477
				C224.978,293.651,218.013,300.617,209.501,300.617z"/>
			<polygon fill="#2F3E5A" fill-opacity="0.9" points="210.469,275.468 207.567,275.468 207.567,287.075 217.626,293.265
				219.175,290.75 210.469,285.527 			"/>
		</g>
		<g>
			<path fill="#FAFBFB" d="M253.383,277.002h2.116v-6.229h-1.744v-1.073c0.477-0.089,0.887-0.196,1.229-0.32
				s0.663-0.275,0.961-0.454h1.282v8.077h1.863v1.401h-5.708V277.002z"/>
			<path fill="#FAFBFB" d="M261.818,276.168c0.288,0.268,0.611,0.504,0.969,0.708c0.358,0.203,0.775,0.306,1.252,0.306
				c0.537,0,0.977-0.159,1.319-0.478c0.343-0.317,0.514-0.765,0.514-1.341c0-0.566-0.159-1.004-0.477-1.312
				c-0.318-0.309-0.74-0.463-1.267-0.463c-0.308,0-0.566,0.043-0.775,0.127c-0.208,0.085-0.457,0.222-0.745,0.41l-0.82-0.521
				l0.283-4.68h5.067v1.445h-3.577l-0.194,2.295c0.199-0.099,0.395-0.176,0.588-0.23c0.194-0.055,0.415-0.082,0.664-0.082
				c0.407,0,0.792,0.06,1.155,0.179s0.678,0.301,0.947,0.544c0.268,0.243,0.481,0.552,0.641,0.924
				c0.159,0.373,0.238,0.812,0.238,1.319c0,0.517-0.092,0.979-0.275,1.386c-0.184,0.407-0.43,0.75-0.738,1.028
				c-0.308,0.278-0.663,0.489-1.066,0.634c-0.402,0.144-0.822,0.216-1.259,0.216c-0.765,0-1.408-0.132-1.93-0.395
				c-0.521-0.264-0.956-0.569-1.304-0.917L261.818,276.168z"/>
			<path fill="#FAFBFB" d="M272.877,278.582c-0.993,0-1.779-0.425-2.355-1.274s-0.864-2.079-0.864-3.688s0.288-2.824,0.864-3.644
				c0.576-0.82,1.362-1.23,2.355-1.23s1.778,0.413,2.354,1.237c0.576,0.825,0.865,2.037,0.865,3.637
				c0,1.609-0.289,2.839-0.865,3.688S273.87,278.582,272.877,278.582z M272.877,277.241c0.229,0,0.439-0.062,0.634-0.187
				c0.193-0.124,0.359-0.33,0.499-0.619c0.139-0.288,0.248-0.66,0.327-1.117c0.08-0.457,0.119-1.023,0.119-1.699
				c0-0.666-0.039-1.225-0.119-1.677c-0.079-0.452-0.188-0.817-0.327-1.096c-0.14-0.277-0.306-0.474-0.499-0.589
				c-0.194-0.113-0.405-0.171-0.634-0.171s-0.439,0.058-0.634,0.171c-0.193,0.115-0.359,0.312-0.499,0.589
				c-0.14,0.278-0.249,0.644-0.327,1.096c-0.08,0.452-0.12,1.011-0.12,1.677c0,0.676,0.04,1.242,0.12,1.699
				c0.078,0.457,0.188,0.829,0.327,1.117c0.14,0.289,0.306,0.495,0.499,0.619C272.438,277.179,272.648,277.241,272.877,277.241z"/>
			<path fill="#FAFBFB" d="M282.489,268.656h1.908l1.759,4.799l0.642,1.849h0.059l0.627-1.849l1.729-4.799h1.907v9.747h-1.624
				v-4.456c0-0.229,0.008-0.478,0.021-0.745c0.016-0.269,0.033-0.539,0.053-0.812s0.045-0.542,0.074-0.805
				c0.03-0.264,0.055-0.51,0.074-0.738h-0.059l-0.791,2.221l-1.684,4.427h-0.805l-1.684-4.427l-0.775-2.221h-0.06
				c0.02,0.229,0.042,0.475,0.067,0.738c0.024,0.263,0.049,0.531,0.074,0.805c0.024,0.273,0.045,0.544,0.06,0.812
				c0.015,0.268,0.022,0.517,0.022,0.745v4.456h-1.596V268.656z"/>
			<path fill="#FAFBFB" d="M294.339,268.656h1.729v9.747h-1.729V268.656z"/>
			<path fill="#FAFBFB" d="M299.286,268.656h1.773l3.041,5.484l0.998,2.072h0.061c-0.041-0.507-0.088-1.051-0.143-1.633
				c-0.055-0.581-0.082-1.145-0.082-1.691v-4.232h1.654v9.747h-1.773l-3.04-5.484l-0.999-2.072h-0.059
				c0.039,0.517,0.086,1.059,0.141,1.625s0.082,1.123,0.082,1.669v4.263h-1.654V268.656z"/>
			<path fill="#FAFBFB" d="M309.764,268.656h1.729v5.604c0,0.527,0.047,0.972,0.141,1.334c0.095,0.363,0.229,0.653,0.402,0.872
				s0.381,0.375,0.619,0.47s0.506,0.142,0.805,0.142c0.298,0,0.571-0.047,0.819-0.142c0.249-0.095,0.462-0.251,0.642-0.47
				c0.178-0.219,0.317-0.509,0.417-0.872c0.099-0.362,0.149-0.807,0.149-1.334v-5.604h1.654v5.47c0,0.805-0.085,1.488-0.254,2.049
				c-0.169,0.562-0.415,1.021-0.738,1.379c-0.322,0.357-0.71,0.618-1.162,0.782s-0.961,0.246-1.527,0.246s-1.076-0.082-1.527-0.246
				c-0.453-0.164-0.84-0.425-1.163-0.782s-0.571-0.817-0.745-1.379c-0.174-0.561-0.261-1.244-0.261-2.049V268.656z"/>
			<path fill="#FAFBFB" d="M322.283,270.116h-2.817v-1.46h7.363v1.46h-2.817v8.287h-1.729V270.116z"/>
			<path fill="#FAFBFB" d="M329.198,268.656h5.873v1.46h-4.145v2.489h3.503v1.461h-3.503v2.876h4.293v1.461h-6.021V268.656z"/>
			<path fill="#FAFBFB" d="M338.305,275.974c0.349,0.328,0.745,0.594,1.192,0.798c0.447,0.203,0.895,0.306,1.342,0.306
				c0.557,0,0.979-0.114,1.267-0.343s0.433-0.531,0.433-0.909c0-0.199-0.037-0.368-0.112-0.507c-0.074-0.14-0.179-0.261-0.313-0.365
				c-0.133-0.104-0.293-0.201-0.477-0.291c-0.184-0.089-0.385-0.179-0.604-0.268l-1.342-0.582c-0.238-0.099-0.475-0.224-0.707-0.372
				c-0.234-0.149-0.445-0.328-0.634-0.537c-0.188-0.208-0.341-0.451-0.454-0.729c-0.115-0.278-0.172-0.597-0.172-0.954
				c0-0.388,0.082-0.748,0.246-1.081c0.164-0.332,0.39-0.623,0.678-0.871c0.288-0.249,0.634-0.442,1.036-0.582
				c0.402-0.139,0.842-0.208,1.319-0.208c0.566,0,1.112,0.111,1.639,0.335c0.527,0.224,0.979,0.524,1.356,0.901l-0.879,1.104
				c-0.318-0.259-0.646-0.462-0.983-0.611s-0.716-0.224-1.133-0.224c-0.467,0-0.84,0.103-1.118,0.306
				c-0.278,0.204-0.417,0.484-0.417,0.842c0,0.189,0.042,0.351,0.127,0.484c0.084,0.135,0.198,0.254,0.342,0.358
				c0.145,0.104,0.311,0.198,0.5,0.283c0.188,0.084,0.382,0.166,0.581,0.245l1.326,0.552c0.288,0.119,0.552,0.259,0.79,0.417
				c0.238,0.159,0.445,0.343,0.619,0.552s0.311,0.45,0.409,0.723c0.099,0.273,0.149,0.589,0.149,0.946
				c0,0.397-0.08,0.771-0.238,1.118c-0.16,0.348-0.391,0.653-0.693,0.917c-0.303,0.263-0.671,0.472-1.104,0.626
				c-0.432,0.153-0.922,0.23-1.468,0.23c-0.655,0-1.289-0.124-1.899-0.372c-0.611-0.249-1.15-0.602-1.617-1.059L338.305,275.974z"/>
		</g>
		<g>
			<path fill="#FAFBFB" d="M253.458,300.678h2.176v-7.005h-1.729v-0.79c0.437-0.079,0.817-0.176,1.14-0.29s0.613-0.251,0.872-0.41
				h0.939v8.495h1.967v1.014h-5.366V300.678z"/>
			<path fill="#FAFBFB" d="M261.029,300.961c0.715-0.715,1.351-1.361,1.908-1.938c0.556-0.576,1.023-1.11,1.401-1.602
				c0.377-0.492,0.666-0.944,0.864-1.356s0.298-0.812,0.298-1.2c0-0.546-0.149-0.993-0.447-1.341
				c-0.298-0.348-0.75-0.522-1.356-0.522c-0.397,0-0.766,0.112-1.103,0.336c-0.338,0.224-0.646,0.494-0.924,0.812l-0.7-0.701
				c0.397-0.437,0.82-0.787,1.267-1.051c0.447-0.263,0.984-0.395,1.61-0.395c0.884,0,1.58,0.256,2.086,0.768s0.76,1.189,0.76,2.034
				c0,0.447-0.097,0.896-0.291,1.349c-0.194,0.452-0.462,0.919-0.805,1.401c-0.343,0.481-0.75,0.983-1.222,1.505
				c-0.472,0.521-0.991,1.076-1.557,1.662c0.258-0.02,0.526-0.04,0.805-0.06c0.278-0.02,0.542-0.03,0.79-0.03h2.757v1.059h-6.141
				V300.961z"/>
			<path fill="#FAFBFB" d="M272.714,291.109h0.894l-3.979,12.966h-0.895L272.714,291.109z"/>
			<path fill="#FAFBFB" d="M275.143,300.961c0.716-0.715,1.351-1.361,1.907-1.938s1.023-1.11,1.401-1.602
				c0.378-0.492,0.665-0.944,0.864-1.356s0.299-0.812,0.299-1.2c0-0.546-0.149-0.993-0.447-1.341
				c-0.299-0.348-0.75-0.522-1.356-0.522c-0.397,0-0.766,0.112-1.103,0.336c-0.338,0.224-0.646,0.494-0.925,0.812l-0.7-0.701
				c0.396-0.437,0.82-0.787,1.267-1.051c0.447-0.263,0.983-0.395,1.61-0.395c0.884,0,1.579,0.256,2.086,0.768s0.76,1.189,0.76,2.034
				c0,0.447-0.097,0.896-0.29,1.349c-0.194,0.452-0.462,0.919-0.806,1.401c-0.342,0.481-0.75,0.983-1.222,1.505
				s-0.991,1.076-1.558,1.662c0.259-0.02,0.527-0.04,0.805-0.06c0.278-0.02,0.542-0.03,0.791-0.03h2.757v1.059h-6.141V300.961z"/>
			<path fill="#FAFBFB" d="M286.409,301.87c-0.963,0-1.713-0.427-2.25-1.281s-0.805-2.082-0.805-3.682s0.268-2.816,0.805-3.651
				s1.287-1.252,2.25-1.252c0.955,0,1.699,0.417,2.236,1.252s0.805,2.052,0.805,3.651s-0.268,2.827-0.805,3.682
				S287.364,301.87,286.409,301.87z M286.409,300.887c0.279,0,0.529-0.077,0.754-0.231c0.223-0.153,0.416-0.393,0.58-0.715
				c0.164-0.323,0.291-0.735,0.381-1.237s0.134-1.101,0.134-1.796s-0.044-1.292-0.134-1.788c-0.09-0.497-0.217-0.902-0.381-1.215
				c-0.164-0.313-0.357-0.544-0.58-0.693c-0.225-0.149-0.475-0.224-0.754-0.224c-0.277,0-0.531,0.074-0.76,0.224
				s-0.424,0.38-0.588,0.693c-0.164,0.312-0.291,0.718-0.381,1.215c-0.09,0.496-0.134,1.093-0.134,1.788
				c0,1.392,0.171,2.402,0.515,3.033C285.403,300.571,285.853,300.887,286.409,300.887z"/>
			<path fill="#FAFBFB" d="M294.979,291.109h0.895l-3.979,12.966h-0.895L294.979,291.109z"/>
			<path fill="#FAFBFB" d="M297.409,300.961c0.715-0.715,1.352-1.361,1.908-1.938c0.556-0.576,1.023-1.11,1.4-1.602
				c0.377-0.492,0.666-0.944,0.864-1.356s0.298-0.812,0.298-1.2c0-0.546-0.148-0.993-0.447-1.341
				c-0.297-0.348-0.75-0.522-1.355-0.522c-0.397,0-0.766,0.112-1.104,0.336s-0.646,0.494-0.924,0.812l-0.7-0.701
				c0.397-0.437,0.819-0.787,1.267-1.051c0.447-0.263,0.984-0.395,1.609-0.395c0.885,0,1.58,0.256,2.087,0.768
				s0.761,1.189,0.761,2.034c0,0.447-0.098,0.896-0.291,1.349s-0.463,0.919-0.805,1.401c-0.344,0.481-0.75,0.983-1.223,1.505
				c-0.472,0.521-0.99,1.076-1.557,1.662c0.258-0.02,0.525-0.04,0.805-0.06c0.277-0.02,0.541-0.03,0.789-0.03h2.758v1.059h-6.141
				V300.961z"/>
			<path fill="#FAFBFB" d="M308.677,301.87c-0.965,0-1.715-0.427-2.251-1.281s-0.805-2.082-0.805-3.682s0.269-2.816,0.805-3.651
				s1.286-1.252,2.251-1.252c0.953,0,1.699,0.417,2.235,1.252s0.805,2.052,0.805,3.651s-0.269,2.827-0.805,3.682
				S309.63,301.87,308.677,301.87z M308.677,300.887c0.277,0,0.529-0.077,0.752-0.231c0.225-0.153,0.418-0.393,0.582-0.715
				c0.164-0.323,0.29-0.735,0.38-1.237c0.089-0.502,0.134-1.101,0.134-1.796s-0.045-1.292-0.134-1.788
				c-0.09-0.497-0.216-0.902-0.38-1.215c-0.164-0.313-0.357-0.544-0.582-0.693c-0.223-0.149-0.475-0.224-0.752-0.224
				c-0.279,0-0.531,0.074-0.76,0.224c-0.229,0.149-0.426,0.38-0.59,0.693c-0.164,0.312-0.29,0.718-0.379,1.215
				c-0.09,0.496-0.135,1.093-0.135,1.788c0,1.392,0.172,2.402,0.514,3.033C307.671,300.571,308.12,300.887,308.677,300.887z"/>
			<path fill="#FAFBFB" d="M314.295,300.678h2.177v-7.005h-1.729v-0.79c0.437-0.079,0.817-0.176,1.14-0.29
				c0.323-0.114,0.613-0.251,0.873-0.41h0.938v8.495h1.968v1.014h-5.366V300.678z"/>
			<path fill="#FAFBFB" d="M328.26,299.068h-1.296v2.623h-1.163v-2.623h-4.277v-0.805l4.069-6.081h1.371v5.902h1.296V299.068z
				 M325.801,298.085v-2.758c0-0.258,0.007-0.563,0.022-0.916c0.015-0.353,0.032-0.658,0.053-0.917h-0.061
				c-0.119,0.229-0.243,0.452-0.372,0.671c-0.13,0.219-0.264,0.442-0.403,0.671l-2.221,3.249H325.801z"/>
			<path fill="#FAFBFB" d="M334.355,300.678h2.177v-7.005h-1.729v-0.79c0.437-0.079,0.817-0.176,1.14-0.29
				c0.323-0.114,0.613-0.251,0.873-0.41h0.938v8.495h1.968v1.014h-5.366V300.678z"/>
			<path fill="#FAFBFB" d="M345.042,301.87c-0.965,0-1.715-0.427-2.251-1.281s-0.805-2.082-0.805-3.682s0.269-2.816,0.805-3.651
				s1.286-1.252,2.251-1.252c0.953,0,1.699,0.417,2.235,1.252s0.805,2.052,0.805,3.651s-0.269,2.827-0.805,3.682
				S345.995,301.87,345.042,301.87z M345.042,300.887c0.277,0,0.529-0.077,0.752-0.231c0.225-0.153,0.418-0.393,0.582-0.715
				c0.164-0.323,0.29-0.735,0.38-1.237c0.089-0.502,0.134-1.101,0.134-1.796s-0.045-1.292-0.134-1.788
				c-0.09-0.497-0.216-0.902-0.38-1.215c-0.164-0.313-0.357-0.544-0.582-0.693c-0.223-0.149-0.475-0.224-0.752-0.224
				c-0.279,0-0.531,0.074-0.76,0.224c-0.229,0.149-0.426,0.38-0.59,0.693c-0.164,0.312-0.29,0.718-0.379,1.215
				c-0.09,0.496-0.135,1.093-0.135,1.788c0,1.392,0.172,2.402,0.514,3.033C344.036,300.571,344.485,300.887,345.042,300.887z"/>
			<path fill="#FAFBFB" d="M350.452,295.565c0-0.288,0.086-0.519,0.26-0.692s0.386-0.261,0.634-0.261
				c0.239,0,0.444,0.087,0.618,0.261s0.262,0.404,0.262,0.692c0,0.269-0.088,0.49-0.262,0.664s-0.379,0.261-0.618,0.261
				c-0.248,0-0.46-0.087-0.634-0.261S350.452,295.834,350.452,295.565z M350.452,300.946c0-0.288,0.086-0.52,0.26-0.693
				s0.386-0.261,0.634-0.261c0.239,0,0.444,0.087,0.618,0.261s0.262,0.405,0.262,0.693c0,0.269-0.088,0.489-0.262,0.663
				s-0.379,0.261-0.618,0.261c-0.248,0-0.46-0.087-0.634-0.261S350.452,301.215,350.452,300.946z"/>
			<path fill="#FAFBFB" d="M357.649,301.87c-0.963,0-1.713-0.427-2.25-1.281s-0.805-2.082-0.805-3.682s0.268-2.816,0.805-3.651
				s1.287-1.252,2.25-1.252c0.955,0,1.699,0.417,2.236,1.252s0.805,2.052,0.805,3.651s-0.268,2.827-0.805,3.682
				S358.604,301.87,357.649,301.87z M357.649,300.887c0.279,0,0.529-0.077,0.754-0.231c0.223-0.153,0.416-0.393,0.58-0.715
				c0.164-0.323,0.291-0.735,0.381-1.237s0.134-1.101,0.134-1.796s-0.044-1.292-0.134-1.788c-0.09-0.497-0.217-0.902-0.381-1.215
				c-0.164-0.313-0.357-0.544-0.58-0.693c-0.225-0.149-0.475-0.224-0.754-0.224c-0.277,0-0.531,0.074-0.76,0.224
				s-0.424,0.38-0.588,0.693c-0.164,0.312-0.291,0.718-0.381,1.215c-0.09,0.496-0.134,1.093-0.134,1.788
				c0,1.392,0.171,2.402,0.515,3.033C356.644,300.571,357.093,300.887,357.649,300.887z"/>
			<path fill="#FAFBFB" d="M365.802,301.87c-0.963,0-1.713-0.427-2.25-1.281s-0.805-2.082-0.805-3.682s0.268-2.816,0.805-3.651
				s1.287-1.252,2.25-1.252c0.955,0,1.699,0.417,2.236,1.252s0.805,2.052,0.805,3.651s-0.268,2.827-0.805,3.682
				S366.757,301.87,365.802,301.87z M365.802,300.887c0.279,0,0.529-0.077,0.754-0.231c0.223-0.153,0.416-0.393,0.58-0.715
				c0.164-0.323,0.291-0.735,0.381-1.237s0.134-1.101,0.134-1.796s-0.044-1.292-0.134-1.788c-0.09-0.497-0.217-0.902-0.381-1.215
				c-0.164-0.313-0.357-0.544-0.58-0.693c-0.225-0.149-0.475-0.224-0.754-0.224c-0.277,0-0.531,0.074-0.76,0.224
				s-0.424,0.38-0.588,0.693c-0.164,0.312-0.291,0.718-0.381,1.215c-0.09,0.496-0.134,1.093-0.134,1.788
				c0,1.392,0.171,2.402,0.515,3.033C364.796,300.571,365.245,300.887,365.802,300.887z"/>
			<path fill="#FAFBFB" d="M379.812,298.711h-3.562l-0.938,2.98h-1.268l3.309-9.777h1.401l3.309,9.777h-1.326L379.812,298.711z
				 M379.499,297.712l-0.462-1.49c-0.179-0.546-0.349-1.091-0.507-1.632c-0.159-0.542-0.318-1.096-0.477-1.662h-0.061
				c-0.148,0.566-0.303,1.12-0.461,1.662c-0.16,0.541-0.328,1.086-0.508,1.632l-0.461,1.49H379.499z"/>
			<path fill="#FAFBFB" d="M384.194,291.914h1.46l1.894,5.246l0.715,1.998h0.06l0.686-1.998l1.878-5.246h1.461v9.777h-1.178v-5.38
				c0-0.438,0.018-0.919,0.053-1.446c0.034-0.526,0.071-1.008,0.111-1.445h-0.06l-0.79,2.176l-1.878,5.112h-0.7l-1.893-5.112
				l-0.775-2.176h-0.06c0.03,0.438,0.064,0.919,0.104,1.445c0.039,0.527,0.059,1.009,0.059,1.446v5.38h-1.146V291.914z"/>
		</g>
		<g>
			<path fill="#FAFBFB" d="M253.458,324.9h2.176v-7.006h-1.729v-0.789c0.437-0.08,0.817-0.176,1.14-0.291
				c0.323-0.113,0.613-0.25,0.872-0.41h0.939v8.496h1.967v1.014h-5.366V324.9z"/>
			<path fill="#FAFBFB" d="M261.029,325.183c0.715-0.715,1.351-1.361,1.908-1.938c0.556-0.576,1.023-1.111,1.401-1.602
				c0.377-0.492,0.666-0.945,0.864-1.357s0.298-0.812,0.298-1.199c0-0.547-0.149-0.994-0.447-1.342
				c-0.298-0.348-0.75-0.521-1.356-0.521c-0.397,0-0.766,0.111-1.103,0.336c-0.338,0.223-0.646,0.494-0.924,0.812l-0.7-0.701
				c0.397-0.438,0.82-0.787,1.267-1.051c0.447-0.264,0.984-0.395,1.61-0.395c0.884,0,1.58,0.256,2.086,0.768s0.76,1.189,0.76,2.033
				c0,0.447-0.097,0.896-0.291,1.35c-0.194,0.451-0.462,0.918-0.805,1.4s-0.75,0.984-1.222,1.506
				c-0.472,0.521-0.991,1.076-1.557,1.662c0.258-0.02,0.526-0.041,0.805-0.061c0.278-0.02,0.542-0.029,0.79-0.029h2.757v1.059
				h-6.141V325.183z"/>
			<path fill="#FAFBFB" d="M272.714,315.332h0.894l-3.979,12.967h-0.895L272.714,315.332z"/>
			<path fill="#FAFBFB" d="M275.143,325.183c0.716-0.715,1.351-1.361,1.907-1.938s1.023-1.111,1.401-1.602
				c0.378-0.492,0.665-0.945,0.864-1.357s0.299-0.812,0.299-1.199c0-0.547-0.149-0.994-0.447-1.342
				c-0.299-0.348-0.75-0.521-1.356-0.521c-0.397,0-0.766,0.111-1.103,0.336c-0.338,0.223-0.646,0.494-0.925,0.812l-0.7-0.701
				c0.396-0.438,0.82-0.787,1.267-1.051c0.447-0.264,0.983-0.395,1.61-0.395c0.884,0,1.579,0.256,2.086,0.768s0.76,1.189,0.76,2.033
				c0,0.447-0.097,0.896-0.29,1.35c-0.194,0.451-0.462,0.918-0.806,1.4c-0.342,0.482-0.75,0.984-1.222,1.506
				s-0.991,1.076-1.558,1.662c0.259-0.02,0.527-0.041,0.805-0.061c0.278-0.02,0.542-0.029,0.791-0.029h2.757v1.059h-6.141V325.183z"
				/>
			<path fill="#FAFBFB" d="M286.409,326.091c-0.963,0-1.713-0.426-2.25-1.281c-0.537-0.854-0.805-2.082-0.805-3.682
				s0.268-2.816,0.805-3.65c0.537-0.836,1.287-1.252,2.25-1.252c0.955,0,1.699,0.416,2.236,1.252
				c0.537,0.834,0.805,2.051,0.805,3.65s-0.268,2.828-0.805,3.682C288.108,325.666,287.364,326.091,286.409,326.091z
				 M286.409,325.109c0.279,0,0.529-0.078,0.754-0.232c0.223-0.152,0.416-0.393,0.58-0.715s0.291-0.734,0.381-1.236
				s0.134-1.102,0.134-1.797s-0.044-1.291-0.134-1.787c-0.09-0.498-0.217-0.902-0.381-1.215c-0.164-0.314-0.357-0.545-0.58-0.693
				c-0.225-0.15-0.475-0.225-0.754-0.225c-0.277,0-0.531,0.074-0.76,0.225c-0.229,0.148-0.424,0.379-0.588,0.693
				c-0.164,0.312-0.291,0.717-0.381,1.215c-0.09,0.496-0.134,1.092-0.134,1.787c0,1.393,0.171,2.402,0.515,3.033
				C285.403,324.792,285.853,325.109,286.409,325.109z"/>
			<path fill="#FAFBFB" d="M294.979,315.332h0.895l-3.979,12.967h-0.895L294.979,315.332z"/>
			<path fill="#FAFBFB" d="M297.409,325.183c0.715-0.715,1.352-1.361,1.908-1.938c0.556-0.576,1.023-1.111,1.4-1.602
				c0.377-0.492,0.666-0.945,0.864-1.357s0.298-0.812,0.298-1.199c0-0.547-0.148-0.994-0.447-1.342
				c-0.297-0.348-0.75-0.521-1.355-0.521c-0.397,0-0.766,0.111-1.104,0.336c-0.338,0.223-0.646,0.494-0.924,0.812l-0.7-0.701
				c0.397-0.438,0.819-0.787,1.267-1.051s0.984-0.395,1.609-0.395c0.885,0,1.58,0.256,2.087,0.768s0.761,1.189,0.761,2.033
				c0,0.447-0.098,0.896-0.291,1.35c-0.193,0.451-0.463,0.918-0.805,1.4c-0.344,0.482-0.75,0.984-1.223,1.506
				c-0.472,0.521-0.99,1.076-1.557,1.662c0.258-0.02,0.525-0.041,0.805-0.061c0.277-0.02,0.541-0.029,0.789-0.029h2.758v1.059
				h-6.141V325.183z"/>
			<path fill="#FAFBFB" d="M308.677,326.091c-0.965,0-1.715-0.426-2.251-1.281c-0.536-0.854-0.805-2.082-0.805-3.682
				s0.269-2.816,0.805-3.65c0.536-0.836,1.286-1.252,2.251-1.252c0.953,0,1.699,0.416,2.235,1.252
				c0.536,0.834,0.805,2.051,0.805,3.65s-0.269,2.828-0.805,3.682C310.376,325.666,309.63,326.091,308.677,326.091z
				 M308.677,325.109c0.277,0,0.529-0.078,0.752-0.232c0.225-0.152,0.418-0.393,0.582-0.715s0.29-0.734,0.38-1.236
				c0.089-0.502,0.134-1.102,0.134-1.797s-0.045-1.291-0.134-1.787c-0.09-0.498-0.216-0.902-0.38-1.215
				c-0.164-0.314-0.357-0.545-0.582-0.693c-0.223-0.15-0.475-0.225-0.752-0.225c-0.279,0-0.531,0.074-0.76,0.225
				c-0.229,0.148-0.426,0.379-0.59,0.693c-0.164,0.312-0.29,0.717-0.379,1.215c-0.09,0.496-0.135,1.092-0.135,1.787
				c0,1.393,0.172,2.402,0.514,3.033C307.671,324.792,308.12,325.109,308.677,325.109z"/>
			<path fill="#FAFBFB" d="M314.295,324.9h2.177v-7.006h-1.729v-0.789c0.437-0.08,0.817-0.176,1.14-0.291
				c0.323-0.113,0.613-0.25,0.873-0.41h0.938v8.496h1.968v1.014h-5.366V324.9z"/>
			<path fill="#FAFBFB" d="M328.26,323.291h-1.296v2.623h-1.163v-2.623h-4.277v-0.805l4.069-6.082h1.371v5.902h1.296V323.291z
				 M325.801,322.306v-2.758c0-0.258,0.007-0.562,0.022-0.916c0.015-0.352,0.032-0.658,0.053-0.916h-0.061
				c-0.119,0.229-0.243,0.451-0.372,0.67c-0.13,0.219-0.264,0.443-0.403,0.672l-2.221,3.248H325.801z"/>
			<path fill="#FAFBFB" d="M334.355,324.9h2.177v-7.006h-1.729v-0.789c0.437-0.08,0.817-0.176,1.14-0.291
				c0.323-0.113,0.613-0.25,0.873-0.41h0.938v8.496h1.968v1.014h-5.366V324.9z"/>
			<path fill="#FAFBFB" d="M341.927,325.183c0.715-0.715,1.352-1.361,1.908-1.938c0.556-0.576,1.023-1.111,1.4-1.602
				c0.377-0.492,0.666-0.945,0.864-1.357s0.298-0.812,0.298-1.199c0-0.547-0.148-0.994-0.447-1.342
				c-0.297-0.348-0.75-0.521-1.355-0.521c-0.397,0-0.766,0.111-1.104,0.336c-0.338,0.223-0.646,0.494-0.924,0.812l-0.7-0.701
				c0.397-0.438,0.819-0.787,1.267-1.051s0.984-0.395,1.609-0.395c0.885,0,1.58,0.256,2.087,0.768s0.761,1.189,0.761,2.033
				c0,0.447-0.098,0.896-0.291,1.35c-0.193,0.451-0.463,0.918-0.805,1.4c-0.344,0.482-0.75,0.984-1.223,1.506
				c-0.472,0.521-0.99,1.076-1.557,1.662c0.258-0.02,0.525-0.041,0.805-0.061c0.277-0.02,0.541-0.029,0.789-0.029h2.758v1.059
				h-6.141V325.183z"/>
			<path fill="#FAFBFB" d="M350.452,319.787c0-0.287,0.086-0.518,0.26-0.691s0.386-0.262,0.634-0.262
				c0.239,0,0.444,0.088,0.618,0.262s0.262,0.404,0.262,0.691c0,0.27-0.088,0.49-0.262,0.664s-0.379,0.262-0.618,0.262
				c-0.248,0-0.46-0.088-0.634-0.262S350.452,320.056,350.452,319.787z M350.452,325.167c0-0.287,0.086-0.52,0.26-0.693
				s0.386-0.26,0.634-0.26c0.239,0,0.444,0.086,0.618,0.26s0.262,0.406,0.262,0.693c0,0.27-0.088,0.49-0.262,0.664
				s-0.379,0.26-0.618,0.26c-0.248,0-0.46-0.086-0.634-0.26S350.452,325.437,350.452,325.167z"/>
			<path fill="#FAFBFB" d="M354.952,323.945c0.289,0.299,0.623,0.562,1.006,0.791s0.857,0.342,1.424,0.342
				c0.576,0,1.049-0.156,1.416-0.469s0.551-0.738,0.551-1.273c0-0.279-0.052-0.535-0.156-0.768
				c-0.104-0.234-0.275-0.436-0.514-0.604c-0.238-0.17-0.552-0.299-0.939-0.389c-0.387-0.09-0.864-0.135-1.431-0.135v-0.938
				c0.507,0,0.932-0.045,1.274-0.135s0.621-0.213,0.834-0.373c0.215-0.158,0.365-0.348,0.455-0.566s0.135-0.451,0.135-0.699
				c0-0.467-0.147-0.836-0.439-1.104c-0.294-0.268-0.693-0.402-1.201-0.402c-0.396,0-0.762,0.09-1.095,0.268
				c-0.333,0.18-0.644,0.412-0.932,0.701l-0.655-0.775c0.367-0.348,0.771-0.633,1.215-0.857c0.441-0.223,0.945-0.334,1.512-0.334
				c0.418,0,0.801,0.055,1.148,0.164s0.648,0.266,0.901,0.469s0.449,0.455,0.589,0.752c0.139,0.299,0.209,0.641,0.209,1.029
				c0,0.576-0.16,1.049-0.478,1.416s-0.735,0.65-1.252,0.85v0.059c0.288,0.07,0.557,0.172,0.805,0.307
				c0.249,0.133,0.468,0.303,0.656,0.506c0.188,0.205,0.335,0.439,0.439,0.709c0.104,0.268,0.156,0.566,0.156,0.895
				c0,0.416-0.081,0.795-0.245,1.131c-0.164,0.338-0.389,0.625-0.672,0.857c-0.283,0.234-0.613,0.412-0.99,0.537
				c-0.378,0.123-0.785,0.186-1.223,0.186c-0.377,0-0.723-0.037-1.035-0.111c-0.313-0.074-0.6-0.174-0.857-0.299
				c-0.258-0.123-0.489-0.266-0.693-0.424c-0.203-0.158-0.385-0.328-0.543-0.506L354.952,323.945z"/>
			<path fill="#FAFBFB" d="M365.802,326.091c-0.963,0-1.713-0.426-2.25-1.281c-0.537-0.854-0.805-2.082-0.805-3.682
				s0.268-2.816,0.805-3.65c0.537-0.836,1.287-1.252,2.25-1.252c0.955,0,1.699,0.416,2.236,1.252
				c0.537,0.834,0.805,2.051,0.805,3.65s-0.268,2.828-0.805,3.682C367.501,325.666,366.757,326.091,365.802,326.091z
				 M365.802,325.109c0.279,0,0.529-0.078,0.754-0.232c0.223-0.152,0.416-0.393,0.58-0.715s0.291-0.734,0.381-1.236
				s0.134-1.102,0.134-1.797s-0.044-1.291-0.134-1.787c-0.09-0.498-0.217-0.902-0.381-1.215c-0.164-0.314-0.357-0.545-0.58-0.693
				c-0.225-0.15-0.475-0.225-0.754-0.225c-0.277,0-0.531,0.074-0.76,0.225c-0.229,0.148-0.424,0.379-0.588,0.693
				c-0.164,0.312-0.291,0.717-0.381,1.215c-0.09,0.496-0.134,1.092-0.134,1.787c0,1.393,0.171,2.402,0.515,3.033
				C364.796,324.792,365.245,325.109,365.802,325.109z"/>
			<path fill="#FAFBFB" d="M375.341,316.136h2.996c0.536,0,1.027,0.049,1.475,0.148s0.828,0.262,1.141,0.484
				c0.312,0.225,0.557,0.52,0.73,0.887c0.174,0.369,0.261,0.82,0.261,1.357c0,0.516-0.087,0.963-0.261,1.34
				c-0.174,0.379-0.42,0.691-0.738,0.939s-0.697,0.436-1.14,0.559c-0.442,0.125-0.932,0.188-1.468,0.188h-1.759v3.875h-1.237
				V316.136z M378.188,321.025c0.854,0,1.487-0.162,1.9-0.484c0.412-0.322,0.618-0.832,0.618-1.527c0-0.705-0.209-1.195-0.625-1.469
				c-0.418-0.273-1.049-0.41-1.894-0.41h-1.609v3.891H378.188z"/>
			<path fill="#FAFBFB" d="M384.671,316.136h1.461l1.893,5.246l0.715,1.998h0.061l0.686-1.998l1.877-5.246h1.461v9.777h-1.178
				v-5.381c0-0.438,0.018-0.918,0.053-1.445s0.072-1.008,0.111-1.445h-0.059l-0.791,2.176l-1.877,5.111h-0.701l-1.893-5.111
				l-0.775-2.176h-0.059c0.029,0.438,0.064,0.918,0.104,1.445s0.06,1.008,0.06,1.445v5.381h-1.147V316.136z"/>
		</g>
	</g>
	<g>
		<g>
			<path fill="#FAFBFB" d="M253.383,367.306h2.116v-6.23h-1.744v-1.072c0.477-0.09,0.887-0.197,1.229-0.32
				c0.343-0.125,0.663-0.275,0.961-0.455h1.282v8.078h1.863v1.4h-5.708V367.306z"/>
			<path fill="#FAFBFB" d="M261.237,367.708c0.656-0.637,1.25-1.223,1.781-1.758c0.532-0.537,0.984-1.033,1.356-1.492
				c0.373-0.455,0.658-0.883,0.857-1.281c0.199-0.396,0.298-0.775,0.298-1.133c0-0.506-0.134-0.906-0.403-1.199
				c-0.268-0.293-0.656-0.439-1.162-0.439c-0.368,0-0.703,0.104-1.006,0.312s-0.583,0.457-0.842,0.746l-0.954-0.955
				c0.437-0.467,0.887-0.826,1.349-1.08c0.462-0.254,1.021-0.381,1.677-0.381c0.457,0,0.869,0.07,1.237,0.209
				c0.368,0.141,0.681,0.336,0.939,0.59c0.258,0.252,0.459,0.559,0.604,0.916s0.216,0.756,0.216,1.191
				c0,0.418-0.092,0.844-0.276,1.275c-0.184,0.432-0.432,0.869-0.745,1.311c-0.313,0.443-0.678,0.898-1.096,1.365
				c-0.417,0.467-0.859,0.949-1.326,1.445c0.248-0.02,0.517-0.043,0.805-0.066c0.288-0.025,0.546-0.039,0.775-0.039h2.325v1.461
				h-6.409V367.708z"/>
			<path fill="#FAFBFB" d="M272.713,358.125h1.163l-3.473,12.967h-1.163L272.713,358.125z"/>
			<path fill="#FAFBFB" d="M276.036,367.306h2.117v-6.23h-1.744v-1.072c0.477-0.09,0.887-0.197,1.229-0.32
				c0.343-0.125,0.663-0.275,0.962-0.455h1.281v8.078h1.863v1.4h-5.709V367.306z"/>
			<path fill="#FAFBFB" d="M284.502,366.441c0.288,0.289,0.616,0.535,0.983,0.738s0.791,0.307,1.268,0.307
				c0.516,0,0.936-0.127,1.26-0.381c0.322-0.254,0.484-0.604,0.484-1.051c0-0.248-0.045-0.473-0.135-0.67
				c-0.09-0.199-0.241-0.369-0.455-0.508c-0.213-0.139-0.499-0.246-0.856-0.32c-0.358-0.074-0.805-0.111-1.341-0.111v-1.252
				c0.467,0,0.856-0.037,1.17-0.111c0.312-0.076,0.566-0.18,0.76-0.314c0.193-0.133,0.332-0.295,0.417-0.484
				c0.085-0.188,0.127-0.393,0.127-0.611c0-0.396-0.124-0.707-0.372-0.93c-0.249-0.225-0.592-0.336-1.029-0.336
				c-0.377,0-0.718,0.082-1.021,0.246c-0.304,0.164-0.599,0.379-0.888,0.648l-0.879-1.059c0.408-0.357,0.842-0.646,1.305-0.865
				c0.462-0.219,0.977-0.328,1.543-0.328c0.456,0,0.873,0.055,1.251,0.164s0.7,0.271,0.97,0.484
				c0.268,0.215,0.477,0.479,0.625,0.791c0.149,0.312,0.224,0.668,0.224,1.064c0,0.537-0.146,0.984-0.439,1.342
				c-0.294,0.357-0.698,0.637-1.215,0.836v0.059c0.566,0.148,1.036,0.422,1.409,0.82c0.372,0.396,0.559,0.908,0.559,1.535
				c0,0.438-0.088,0.824-0.262,1.162s-0.412,0.623-0.715,0.857c-0.303,0.232-0.656,0.412-1.059,0.535
				c-0.402,0.125-0.832,0.188-1.289,0.188c-0.775,0-1.421-0.129-1.938-0.389c-0.517-0.258-0.943-0.576-1.281-0.953L284.502,366.441z
				"/>
			<path fill="#FAFBFB" d="M295.366,358.125h1.163l-3.473,12.967h-1.163L295.366,358.125z"/>
			<path fill="#FAFBFB" d="M298.153,367.708c0.656-0.637,1.25-1.223,1.781-1.758c0.531-0.537,0.984-1.033,1.356-1.492
				c0.372-0.455,0.658-0.883,0.856-1.281c0.199-0.396,0.299-0.775,0.299-1.133c0-0.506-0.135-0.906-0.402-1.199
				c-0.269-0.293-0.656-0.439-1.162-0.439c-0.368,0-0.703,0.104-1.007,0.312s-0.583,0.457-0.842,0.746l-0.954-0.955
				c0.438-0.467,0.887-0.826,1.35-1.08c0.461-0.254,1.02-0.381,1.676-0.381c0.457,0,0.869,0.07,1.237,0.209
				c0.368,0.141,0.681,0.336,0.938,0.59c0.259,0.252,0.46,0.559,0.604,0.916c0.145,0.357,0.217,0.756,0.217,1.191
				c0,0.418-0.092,0.844-0.275,1.275c-0.185,0.432-0.433,0.869-0.746,1.311c-0.312,0.443-0.678,0.898-1.096,1.365
				c-0.416,0.467-0.859,0.949-1.326,1.445c0.248-0.02,0.518-0.043,0.805-0.066c0.289-0.025,0.547-0.039,0.775-0.039h2.325v1.461
				h-6.409V367.708z"/>
			<path fill="#FAFBFB" d="M309.794,368.886c-0.994,0-1.779-0.426-2.355-1.275s-0.864-2.078-0.864-3.688s0.288-2.824,0.864-3.645
				s1.361-1.23,2.355-1.23c0.993,0,1.777,0.414,2.354,1.238c0.576,0.824,0.864,2.037,0.864,3.637c0,1.609-0.288,2.838-0.864,3.688
				C311.571,368.46,310.787,368.886,309.794,368.886z M309.794,367.544c0.229,0,0.439-0.062,0.633-0.186
				c0.193-0.125,0.36-0.33,0.5-0.619c0.139-0.289,0.248-0.66,0.327-1.117s0.119-1.023,0.119-1.699c0-0.666-0.04-1.225-0.119-1.678
				c-0.079-0.451-0.188-0.816-0.327-1.096c-0.14-0.277-0.307-0.473-0.5-0.588c-0.193-0.113-0.404-0.172-0.633-0.172
				s-0.439,0.059-0.634,0.172c-0.194,0.115-0.36,0.311-0.499,0.588c-0.14,0.279-0.249,0.645-0.328,1.096
				c-0.08,0.453-0.119,1.012-0.119,1.678c0,0.676,0.039,1.242,0.119,1.699c0.079,0.457,0.188,0.828,0.328,1.117
				c0.139,0.289,0.305,0.494,0.499,0.619C309.354,367.482,309.565,367.544,309.794,367.544z"/>
			<path fill="#FAFBFB" d="M315.472,367.306h2.116v-6.23h-1.743v-1.072c0.477-0.09,0.887-0.197,1.229-0.32
				c0.344-0.125,0.664-0.275,0.962-0.455h1.282v8.078h1.862v1.4h-5.708V367.306z"/>
			<path fill="#FAFBFB" d="M330.018,366.263h-1.192v2.443h-1.609v-2.443h-4.188v-1.162l3.756-5.873h2.042v5.709h1.192V366.263z
				 M327.216,364.937v-2.146c0-0.279,0.008-0.605,0.021-0.984c0.016-0.377,0.033-0.705,0.053-0.982h-0.06
				c-0.119,0.248-0.243,0.49-0.372,0.729c-0.13,0.24-0.264,0.488-0.402,0.746l-1.729,2.639H327.216z"/>
			<path fill="#FAFBFB" d="M336.054,367.306h2.116v-6.23h-1.743v-1.072c0.477-0.09,0.887-0.197,1.229-0.32
				c0.344-0.125,0.664-0.275,0.962-0.455h1.282v8.078h1.862v1.4h-5.708V367.306z"/>
			<path fill="#FAFBFB" d="M347.157,368.886c-0.994,0-1.779-0.426-2.355-1.275s-0.864-2.078-0.864-3.688s0.288-2.824,0.864-3.645
				s1.361-1.23,2.355-1.23c0.993,0,1.777,0.414,2.354,1.238c0.576,0.824,0.864,2.037,0.864,3.637c0,1.609-0.288,2.838-0.864,3.688
				C348.935,368.46,348.15,368.886,347.157,368.886z M347.157,367.544c0.229,0,0.439-0.062,0.633-0.186
				c0.193-0.125,0.36-0.33,0.5-0.619c0.139-0.289,0.248-0.66,0.327-1.117s0.119-1.023,0.119-1.699c0-0.666-0.04-1.225-0.119-1.678
				c-0.079-0.451-0.188-0.816-0.327-1.096c-0.14-0.277-0.307-0.473-0.5-0.588c-0.193-0.113-0.404-0.172-0.633-0.172
				s-0.439,0.059-0.634,0.172c-0.194,0.115-0.36,0.311-0.499,0.588c-0.14,0.279-0.249,0.645-0.328,1.096
				c-0.08,0.453-0.119,1.012-0.119,1.678c0,0.676,0.039,1.242,0.119,1.699c0.079,0.457,0.188,0.828,0.328,1.117
				c0.139,0.289,0.305,0.494,0.499,0.619C346.718,367.482,346.929,367.544,347.157,367.544z"/>
			<path fill="#FAFBFB" d="M352.671,362.626c0-0.338,0.106-0.617,0.32-0.834c0.214-0.219,0.479-0.328,0.797-0.328
				c0.318,0,0.582,0.109,0.791,0.328c0.208,0.217,0.312,0.496,0.312,0.834s-0.104,0.615-0.312,0.834
				c-0.209,0.219-0.473,0.328-0.791,0.328c-0.317,0-0.583-0.109-0.797-0.328S352.671,362.964,352.671,362.626z M352.671,367.724
				c0-0.338,0.106-0.617,0.32-0.836s0.479-0.328,0.797-0.328c0.318,0,0.582,0.109,0.791,0.328c0.208,0.219,0.312,0.498,0.312,0.836
				s-0.104,0.615-0.312,0.834c-0.209,0.219-0.473,0.328-0.791,0.328c-0.317,0-0.583-0.109-0.797-0.328
				S352.671,368.062,352.671,367.724z"/>
			<path fill="#FAFBFB" d="M360.392,368.886c-0.994,0-1.779-0.426-2.355-1.275s-0.864-2.078-0.864-3.688s0.288-2.824,0.864-3.645
				s1.361-1.23,2.355-1.23c0.993,0,1.777,0.414,2.354,1.238c0.576,0.824,0.864,2.037,0.864,3.637c0,1.609-0.288,2.838-0.864,3.688
				C362.169,368.46,361.385,368.886,360.392,368.886z M360.392,367.544c0.229,0,0.439-0.062,0.633-0.186
				c0.193-0.125,0.36-0.33,0.5-0.619c0.139-0.289,0.248-0.66,0.327-1.117s0.119-1.023,0.119-1.699c0-0.666-0.04-1.225-0.119-1.678
				c-0.079-0.451-0.188-0.816-0.327-1.096c-0.14-0.277-0.307-0.473-0.5-0.588c-0.193-0.113-0.404-0.172-0.633-0.172
				s-0.439,0.059-0.634,0.172c-0.194,0.115-0.36,0.311-0.499,0.588c-0.14,0.279-0.249,0.645-0.328,1.096
				c-0.08,0.453-0.119,1.012-0.119,1.678c0,0.676,0.039,1.242,0.119,1.699c0.079,0.457,0.188,0.828,0.328,1.117
				c0.139,0.289,0.305,0.494,0.499,0.619C359.952,367.482,360.163,367.544,360.392,367.544z"/>
			<path fill="#FAFBFB" d="M368.782,368.886c-0.994,0-1.779-0.426-2.355-1.275s-0.864-2.078-0.864-3.688s0.288-2.824,0.864-3.645
				s1.361-1.23,2.355-1.23c0.993,0,1.777,0.414,2.354,1.238c0.576,0.824,0.864,2.037,0.864,3.637c0,1.609-0.288,2.838-0.864,3.688
				C370.56,368.46,369.775,368.886,368.782,368.886z M368.782,367.544c0.229,0,0.439-0.062,0.633-0.186
				c0.193-0.125,0.36-0.33,0.5-0.619c0.139-0.289,0.248-0.66,0.327-1.117s0.119-1.023,0.119-1.699c0-0.666-0.04-1.225-0.119-1.678
				c-0.079-0.451-0.188-0.816-0.327-1.096c-0.14-0.277-0.307-0.473-0.5-0.588c-0.193-0.113-0.404-0.172-0.633-0.172
				s-0.439,0.059-0.634,0.172c-0.194,0.115-0.36,0.311-0.499,0.588c-0.14,0.279-0.249,0.645-0.328,1.096
				c-0.08,0.453-0.119,1.012-0.119,1.678c0,0.676,0.039,1.242,0.119,1.699c0.079,0.457,0.188,0.828,0.328,1.117
				c0.139,0.289,0.305,0.494,0.499,0.619C368.343,367.482,368.554,367.544,368.782,367.544z"/>
			<path fill="#FAFBFB" d="M382.925,366.07h-3.279l-0.76,2.637h-1.758l3.174-9.746h2.027l3.174,9.746h-1.818L382.925,366.07z
				 M382.538,364.712l-0.344-1.191c-0.158-0.518-0.311-1.049-0.454-1.596s-0.286-1.088-0.425-1.625h-0.06
				c-0.14,0.547-0.278,1.092-0.417,1.633c-0.14,0.541-0.289,1.07-0.447,1.588l-0.343,1.191H382.538z"/>
			<path fill="#FAFBFB" d="M387.456,358.96h1.908l1.758,4.799l0.642,1.848h0.06l0.626-1.848l1.729-4.799h1.906v9.746h-1.624v-4.455
				c0-0.229,0.008-0.479,0.022-0.746c0.016-0.268,0.032-0.539,0.053-0.812c0.02-0.273,0.045-0.541,0.074-0.805
				s0.055-0.51,0.074-0.738h-0.06l-0.79,2.221l-1.684,4.428h-0.805l-1.685-4.428l-0.774-2.221h-0.061
				c0.02,0.229,0.043,0.475,0.067,0.738s0.05,0.531,0.075,0.805c0.023,0.273,0.044,0.545,0.059,0.812
				c0.016,0.268,0.022,0.518,0.022,0.746v4.455h-1.595V358.96z"/>
		</g>
		<g>
			<path fill="#FAFBFB" d="M253.622,382.218h1.282l3.532,6.141l1.058,2.027h0.06c-0.03-0.498-0.062-1.012-0.097-1.543
				c-0.035-0.531-0.052-1.057-0.052-1.572v-5.053h1.178v9.777H259.3l-3.547-6.156l-1.058-2.012h-0.06
				c0.04,0.496,0.077,1.002,0.112,1.514c0.035,0.512,0.052,1.025,0.052,1.541v5.113h-1.177V382.218z"/>
			<path fill="#FAFBFB" d="M267.616,392.173c-0.616,0-1.18-0.119-1.692-0.357s-0.951-0.578-1.319-1.021
				c-0.368-0.441-0.653-0.979-0.857-1.609s-0.306-1.338-0.306-2.123s0.102-1.488,0.306-2.109s0.489-1.146,0.857-1.58
				c0.368-0.432,0.807-0.762,1.319-0.99s1.076-0.344,1.692-0.344c0.616,0,1.18,0.117,1.691,0.352
				c0.512,0.232,0.954,0.566,1.327,0.998s0.661,0.959,0.865,1.58c0.203,0.621,0.305,1.318,0.305,2.094
				c0,0.785-0.102,1.492-0.305,2.123c-0.204,0.631-0.492,1.168-0.865,1.609c-0.373,0.443-0.815,0.783-1.327,1.021
				S268.232,392.173,267.616,392.173z M267.616,391.085c0.437,0,0.832-0.094,1.185-0.283c0.353-0.188,0.656-0.459,0.909-0.812
				c0.253-0.352,0.45-0.773,0.589-1.266s0.208-1.047,0.208-1.662c0-0.605-0.069-1.152-0.208-1.639
				c-0.139-0.488-0.335-0.9-0.589-1.238s-0.557-0.598-0.909-0.781c-0.353-0.186-0.748-0.277-1.185-0.277
				c-0.438,0-0.833,0.092-1.185,0.277c-0.353,0.184-0.656,0.443-0.909,0.781s-0.45,0.75-0.588,1.238
				c-0.14,0.486-0.209,1.033-0.209,1.639c0,0.615,0.069,1.17,0.209,1.662c0.139,0.492,0.335,0.914,0.588,1.266
				c0.253,0.354,0.557,0.625,0.909,0.812C266.784,390.992,267.179,391.085,267.616,391.085z"/>
			<path fill="#FAFBFB" d="M276.38,383.261h-2.951v-1.043h7.154v1.043h-2.951v8.734h-1.252V383.261z"/>
			<path fill="#FAFBFB" d="M291.313,389.015h-3.562l-0.938,2.98h-1.267l3.309-9.777h1.4l3.309,9.777h-1.326L291.313,389.015z
				 M291.001,388.015l-0.463-1.49c-0.178-0.545-0.348-1.09-0.506-1.631c-0.16-0.543-0.318-1.096-0.478-1.662h-0.06
				c-0.148,0.566-0.303,1.119-0.462,1.662c-0.159,0.541-0.327,1.086-0.507,1.631l-0.462,1.49H291.001z"/>
			<path fill="#FAFBFB" d="M301.062,391.996l-2.355-4.129h-1.773v4.129h-1.237v-9.777h3.056c0.496,0,0.956,0.047,1.379,0.141
				c0.422,0.096,0.784,0.252,1.088,0.471c0.303,0.219,0.539,0.502,0.707,0.85c0.17,0.348,0.254,0.775,0.254,1.281
				c0,0.766-0.199,1.377-0.596,1.834c-0.398,0.457-0.93,0.77-1.596,0.938l2.475,4.264H301.062z M296.933,386.853h1.639
				c0.766,0,1.352-0.156,1.76-0.469c0.406-0.314,0.61-0.787,0.61-1.424c0-0.646-0.204-1.098-0.61-1.355
				c-0.408-0.26-0.994-0.389-1.76-0.389h-1.639V386.853z"/>
			<path fill="#FAFBFB" d="M310.466,391.996l-2.355-4.129h-1.773v4.129H305.1v-9.777h3.056c0.496,0,0.956,0.047,1.379,0.141
				c0.422,0.096,0.784,0.252,1.088,0.471c0.303,0.219,0.539,0.502,0.707,0.85c0.17,0.348,0.254,0.775,0.254,1.281
				c0,0.766-0.199,1.377-0.596,1.834c-0.398,0.457-0.93,0.77-1.596,0.938l2.475,4.264H310.466z M306.337,386.853h1.639
				c0.766,0,1.352-0.156,1.76-0.469c0.406-0.314,0.61-0.787,0.61-1.424c0-0.646-0.204-1.098-0.61-1.355
				c-0.408-0.26-0.994-0.389-1.76-0.389h-1.639V386.853z"/>
			<path fill="#FAFBFB" d="M314.504,382.218h1.237v9.777h-1.237V382.218z"/>
			<path fill="#FAFBFB" d="M317.827,382.218h1.326l1.565,5.275c0.179,0.586,0.335,1.129,0.47,1.625
				c0.134,0.496,0.295,1.033,0.484,1.609h0.059c0.18-0.576,0.338-1.113,0.478-1.609s0.293-1.039,0.462-1.625l1.564-5.275h1.268
				l-3.1,9.777h-1.446L317.827,382.218z"/>
			<path fill="#FAFBFB" d="M327.589,382.218h5.635v1.043h-4.396v3.07h3.711v1.059h-3.711v3.547h4.545v1.059h-5.783V382.218z"/>
			<path fill="#FAFBFB" d="M336.188,382.218h2.444c1.511,0,2.657,0.418,3.442,1.252s1.178,2.031,1.178,3.592
				c0,0.775-0.1,1.469-0.298,2.078c-0.199,0.611-0.492,1.129-0.88,1.551c-0.387,0.422-0.864,0.746-1.43,0.969
				c-0.566,0.225-1.218,0.336-1.953,0.336h-2.504V382.218z M338.544,390.982c1.143,0,1.999-0.344,2.57-1.029
				s0.857-1.648,0.857-2.891s-0.286-2.191-0.857-2.848c-0.571-0.654-1.428-0.982-2.57-0.982h-1.118v7.75H338.544z"/>
			<path fill="#FAFBFB" d="M351.436,388.21l-2.937-5.992h1.326l1.268,2.758c0.158,0.357,0.312,0.709,0.462,1.057
				c0.149,0.35,0.308,0.707,0.478,1.074h0.059c0.169-0.367,0.338-0.725,0.507-1.074c0.169-0.348,0.328-0.699,0.478-1.057
				l1.252-2.758h1.297l-2.937,5.992v3.785h-1.252V388.21z"/>
			<path fill="#FAFBFB" d="M357.694,382.218h5.635v1.043h-4.396v3.07h3.711v1.059h-3.711v3.547h4.545v1.059h-5.783V382.218z"/>
			<path fill="#FAFBFB" d="M368.321,383.261h-2.951v-1.043h7.154v1.043h-2.951v8.734h-1.252V383.261z"/>
		</g>
		<g>
			<g id="schedule_1_">
				<path fill="#2F3E5A" fill-opacity="0.9" d="M209.501,348.274c-12.002,0-21.822,9.821-21.822,21.823s9.82,21.822,21.822,21.822
					c12.003,0,21.823-9.82,21.823-21.822S221.504,348.274,209.501,348.274z"/>
			</g>
			<g>
				<path fill="#34B2FF" d="M198.383,365.636h5.796v1.441h-4.09v2.457h3.457v1.441h-3.457v2.84h4.237v1.441h-5.943V365.636z"/>
				<path fill="#34B2FF" d="M208.976,367.078h-2.781v-1.441h7.268v1.441h-2.78v8.18h-1.707V367.078z"/>
				<path fill="#34B2FF" d="M219.685,372.654h-3.236l-0.75,2.604h-1.736l3.133-9.621h2.001l3.133,9.621h-1.794L219.685,372.654z
					 M219.303,371.316l-0.338-1.178c-0.157-0.51-0.307-1.035-0.449-1.574c-0.143-0.539-0.282-1.074-0.419-1.604h-0.059
					c-0.138,0.539-0.275,1.076-0.412,1.611c-0.138,0.535-0.285,1.057-0.441,1.566l-0.338,1.178H219.303z"/>
			</g>
		</g>
	</g>
	<g>
		<polygon fill="#FFFFFF" points="447.272,165.153 443.114,160.994 438.956,165.153 436.876,163.073 441.036,158.915
			436.876,154.756 438.956,152.676 443.114,156.835 447.272,152.676 449.353,154.756 445.193,158.915 449.353,163.073 		"/>
	</g>
</g>
<g id="gps-fixed">
	<g>
		<path fill="#2F3E5A" d="M119.919,156.661c-3.58,0-6.509,2.929-6.509,6.509s2.929,6.509,6.509,6.509c3.581,0,6.51-2.929,6.51-6.509
			S123.5,156.661,119.919,156.661z M134.403,161.542c-0.814-6.835-6.184-12.205-12.856-12.856v-3.417h-3.254v3.417
			c-6.835,0.651-12.206,6.021-12.856,12.856h-3.417v3.255h3.417c0.813,6.835,6.184,12.205,12.856,12.856v3.417h3.254v-3.417
			c6.835-0.814,12.206-6.184,12.856-12.856h3.417v-3.255H134.403z M119.919,174.562c-6.347,0-11.392-5.045-11.392-11.392
			s5.045-11.392,11.392-11.392s11.392,5.045,11.392,11.392S126.266,174.562,119.919,174.562z"/>
	</g>
</g>
</svg>
