<svg xmlns="http://www.w3.org/2000/svg" viewBox="0 0 976.54 356.1"><title>schedule</title><g style="isolation:isolate"><g id="Layer_2" data-name="Layer 2"><g id="Layer_1-2" data-name="Layer 1"><g style="opacity:0.5"><g style="opacity:0.25"><line x1="255.48" y1="27.76" x2="255.48" y2="356.1" style="fill:none;stroke:#b0bec5;stroke-miterlimit:10;stroke-width:2px"/><line x1="355.84" y1="27.76" x2="355.84" y2="356.1" style="fill:none;stroke:#b0bec5;stroke-miterlimit:10;stroke-width:2px"/><line x1="456.2" y1="27.76" x2="456.2" y2="356.1" style="fill:none;stroke:#b0bec5;stroke-miterlimit:10;stroke-width:2px"/><line x1="556.56" y1="27.76" x2="556.56" y2="356.1" style="fill:none;stroke:#b0bec5;stroke-miterlimit:10;stroke-width:2px"/><line x1="656.92" y1="27.76" x2="656.92" y2="356.1" style="fill:none;stroke:#b0bec5;stroke-miterlimit:10;stroke-width:2px"/><line x1="757.28" y1="27.76" x2="757.28" y2="356.1" style="fill:none;stroke:#b0bec5;stroke-miterlimit:10;stroke-width:2px"/><line x1="857.64" y1="27.76" x2="857.64" y2="356.1" style="fill:none;stroke:#b0bec5;stroke-miterlimit:10;stroke-width:2px"/><line x1="958" y1="27.76" x2="958" y2="356.1" style="fill:none;stroke:#b0bec5;stroke-miterlimit:10;stroke-width:2px"/></g></g><rect y="242.35" width="959.59" height="95.47" style="fill:#78909c;opacity:0.2;mix-blend-mode:multiply"/><rect y="47.18" width="959.59" height="95.46" style="fill:#78909c;opacity:0.2;mix-blend-mode:multiply"/><path d="M252.93,5.67v0h-3a.06.06,0,0,0-.07.07V6.82a.11.11,0,0,1-.12.12h-.41a.11.11,0,0,1-.12-.12V5.13a.11.11,0,0,1,.12-.12h4.13a.11.11,0,0,1,.12.12v.44a.36.36,0,0,1,0,.12l-2.93,7.36c0,.08-.06.11-.16.11h-.44c-.07,0-.1,0-.06-.13Z" style="fill:#fff"/><path d="M263.69,5.13a.15.15,0,0,1,.14-.12h.43c.08,0,.12,0,.14.12L267.24,13a.08.08,0,0,1-.08.12h-.47a.14.14,0,0,1-.16-.12l-.72-2h-3.55l-.72,2c0,.1-.08.12-.16.12h-.47a.08.08,0,0,1-.08-.12Zm1.9,5.25-1.52-4.27h0l-1.54,4.27Z" style="fill:#fff"/><path d="M270.24,5.13a.11.11,0,0,1,.12-.12h.46a.18.18,0,0,1,.18.12L273.65,11h0l2.59-5.84a.18.18,0,0,1,.17-.12h.47a.11.11,0,0,1,.12.12V13a.11.11,0,0,1-.12.12h-.44a.11.11,0,0,1-.12-.12V6.66h0L274,11.83a.2.2,0,0,1-.22.13h-.24a.19.19,0,0,1-.2-.13L271,6.66h0V13a.11.11,0,0,1-.12.12h-.44a.11.11,0,0,1-.12-.12Z" style="fill:#fff"/><path d="M345.72,8.88v0A2,2,0,0,1,344.63,7,2.18,2.18,0,0,1,349,7a2,2,0,0,1-1.09,1.82v0A2.16,2.16,0,0,1,349.21,11a2.4,2.4,0,0,1-4.8,0A2.16,2.16,0,0,1,345.72,8.88Zm1.09,3.78a1.66,1.66,0,0,0,1.75-1.73,1.75,1.75,0,1,0-3.5,0A1.66,1.66,0,0,0,346.81,12.66ZM348.35,7a1.54,1.54,0,0,0-3.07,0,1.54,1.54,0,0,0,3.07,0Z" style="fill:#fff"/><path d="M359.18,5.13a.15.15,0,0,1,.14-.12h.43c.08,0,.12,0,.14.12L362.73,13a.08.08,0,0,1-.08.12h-.47A.14.14,0,0,1,362,13l-.72-2h-3.55L357,13c0,.1-.08.12-.16.12h-.47a.08.08,0,0,1-.08-.12Zm1.9,5.25-1.52-4.27h0L358,10.38Z" style="fill:#fff"/><path d="M365.74,5.13a.11.11,0,0,1,.12-.12h.46a.18.18,0,0,1,.18.12L369.14,11h0l2.59-5.84a.18.18,0,0,1,.17-.12h.47a.11.11,0,0,1,.12.12V13a.11.11,0,0,1-.12.12H372a.11.11,0,0,1-.12-.12V6.66h0l-2.35,5.17a.2.2,0,0,1-.22.13H369a.19.19,0,0,1-.2-.13l-2.35-5.17h0V13a.11.11,0,0,1-.12.12h-.44a.11.11,0,0,1-.12-.12Z" style="fill:#fff"/><path d="M443.29,9.52h0a1.73,1.73,0,0,1-1.06.29,2.25,2.25,0,0,1-2.29-2.42,2.38,2.38,0,1,1,4.76,0,4,4,0,0,1-.53,1.83l-2,3.9a.15.15,0,0,1-.16.08h-.44c-.08,0-.1-.06-.07-.11ZM444,7.34a1.74,1.74,0,1,0-3.47,0,1.74,1.74,0,1,0,3.47,0Z" style="fill:#fff"/><path d="M454.68,5.13a.15.15,0,0,1,.14-.12h.43c.08,0,.12,0,.14.12L458.23,13a.08.08,0,0,1-.08.12h-.47a.14.14,0,0,1-.16-.12l-.72-2h-3.55l-.72,2c0,.1-.08.12-.16.12h-.47a.08.08,0,0,1-.08-.12Zm1.9,5.25L455,6.11h0l-1.54,4.27Z" style="fill:#fff"/><path d="M461.23,5.13a.11.11,0,0,1,.12-.12h.46a.18.18,0,0,1,.18.12L464.64,11h0l2.59-5.84a.18.18,0,0,1,.17-.12h.47a.11.11,0,0,1,.12.12V13a.11.11,0,0,1-.12.12h-.44a.11.11,0,0,1-.12-.12V6.66h0L465,11.83a.2.2,0,0,1-.22.13h-.24a.19.19,0,0,1-.2-.13L462,6.66h0V13a.11.11,0,0,1-.12.12h-.44a.11.11,0,0,1-.12-.12Z" style="fill:#fff"/><path d="M538.32,5.88h0l-1.48,1c-.06,0-.13,0-.13-.07v-.5a.2.2,0,0,1,.08-.18l1.51-1.09a.26.26,0,0,1,.18-.07h.38a.11.11,0,0,1,.12.12V13a.11.11,0,0,1-.12.12h-.41a.11.11,0,0,1-.12-.12Z" style="fill:#fff"/><path d="M544,9.09a9.77,9.77,0,0,1,.18-2.73,2.24,2.24,0,0,1,4.2,0,9.75,9.75,0,0,1,.18,2.73,9.74,9.74,0,0,1-.18,2.73,2.24,2.24,0,0,1-4.2,0A9.76,9.76,0,0,1,544,9.09Zm2.28,3.59a1.4,1.4,0,0,0,1.46-1,9.39,9.39,0,0,0,.17-2.59,9.38,9.38,0,0,0-.17-2.59,1.57,1.57,0,0,0-2.93,0,9.38,9.38,0,0,0-.17,2.59,9.39,9.39,0,0,0,.17,2.59A1.4,1.4,0,0,0,546.31,12.67Z" style="fill:#fff"/><path d="M558.68,5.13a.15.15,0,0,1,.14-.12h.43c.08,0,.12,0,.14.12L562.23,13a.08.08,0,0,1-.08.12h-.47a.14.14,0,0,1-.16-.12l-.72-2h-3.55l-.72,2c0,.1-.08.12-.16.12h-.47a.08.08,0,0,1-.08-.12Zm1.9,5.25-1.52-4.27h0l-1.54,4.27Z" style="fill:#fff"/><path d="M565.24,5.13a.11.11,0,0,1,.12-.12h.46a.18.18,0,0,1,.18.12L568.64,11h0l2.59-5.84a.18.18,0,0,1,.17-.12h.47a.11.11,0,0,1,.12.12V13a.11.11,0,0,1-.12.12h-.44a.11.11,0,0,1-.12-.12V6.66h0L569,11.83a.2.2,0,0,1-.22.13h-.24a.19.19,0,0,1-.2-.13L566,6.66h0V13a.11.11,0,0,1-.12.12h-.44a.11.11,0,0,1-.12-.12Z" style="fill:#fff"/><path d="M643,5.88h0l-1.48,1c-.06,0-.13,0-.13-.07v-.5a.2.2,0,0,1,.08-.18l1.51-1.09A.26.26,0,0,1,643.1,5h.38a.11.11,0,0,1,.12.12V13a.11.11,0,0,1-.12.12h-.41A.11.11,0,0,1,643,13Z" style="fill:#fff"/><path d="M650.84,5.88h0l-1.48,1c-.06,0-.13,0-.13-.07v-.5a.2.2,0,0,1,.08-.18l1.51-1.09A.26.26,0,0,1,651,5h.38a.11.11,0,0,1,.12.12V13a.11.11,0,0,1-.12.12H651a.11.11,0,0,1-.12-.12Z" style="fill:#fff"/><path d="M663.32,5.13a.15.15,0,0,1,.14-.12h.43c.08,0,.12,0,.14.12L666.87,13a.08.08,0,0,1-.08.12h-.47a.14.14,0,0,1-.16-.12l-.72-2h-3.55l-.72,2c0,.1-.08.12-.16.12h-.47a.08.08,0,0,1-.08-.12Zm1.9,5.25-1.52-4.27h0l-1.54,4.27Z" style="fill:#fff"/><path d="M669.87,5.13A.11.11,0,0,1,670,5h.46a.18.18,0,0,1,.18.12L673.28,11h0l2.59-5.84a.18.18,0,0,1,.17-.12h.47a.11.11,0,0,1,.12.12V13a.11.11,0,0,1-.12.12h-.44A.11.11,0,0,1,676,13V6.66h0l-2.35,5.17a.2.2,0,0,1-.22.13h-.24a.19.19,0,0,1-.2-.13l-2.35-5.17h0V13a.11.11,0,0,1-.12.12H670a.11.11,0,0,1-.12-.12Z" style="fill:#fff"/><path d="M742.93,5.88h0l-1.48,1c-.06,0-.13,0-.13-.07v-.5a.2.2,0,0,1,.08-.18l1.51-1.09a.26.26,0,0,1,.18-.07h.38a.11.11,0,0,1,.12.12V13a.11.11,0,0,1-.12.12H743a.11.11,0,0,1-.12-.12Z" style="fill:#fff"/><path d="M748.73,12.73a.22.22,0,0,1,0-.16l3-3.95a2.66,2.66,0,0,0,.67-1.6,1.48,1.48,0,0,0-1.56-1.52,1.5,1.5,0,0,0-1.56,1.4.11.11,0,0,1-.14.1l-.37-.1a.1.1,0,0,1-.1-.13,2.11,2.11,0,0,1,2.18-1.89A2.07,2.07,0,0,1,753.1,7a3.22,3.22,0,0,1-.83,2l-2.69,3.5H753a.11.11,0,0,1,.12.12V13a.11.11,0,0,1-.12.12h-4.14a.11.11,0,0,1-.12-.12Z" style="fill:#fff"/><path d="M761.31,13.16a.11.11,0,0,1-.12-.12V5.13a.11.11,0,0,1,.12-.12H764a2.24,2.24,0,0,1,2.51,2.31A2.23,2.23,0,0,1,764,9.63h-2.09a.06.06,0,0,0-.07.07V13a.11.11,0,0,1-.12.12Zm4.55-5.84c0-1-.65-1.67-1.85-1.67h-2.06a.06.06,0,0,0-.07.07V8.91a.06.06,0,0,0,.07.07H764C765.21,9,765.86,8.37,765.86,7.32Z" style="fill:#fff"/><path d="M769.71,5.13a.11.11,0,0,1,.12-.12h.46a.18.18,0,0,1,.18.12L773.12,11h0l2.59-5.84a.18.18,0,0,1,.17-.12h.47a.11.11,0,0,1,.12.12V13a.11.11,0,0,1-.12.12h-.44a.11.11,0,0,1-.12-.12V6.66h0l-2.35,5.17a.2.2,0,0,1-.22.13H773a.2.2,0,0,1-.2-.13l-2.35-5.17h0V13a.11.11,0,0,1-.12.12h-.44a.11.11,0,0,1-.12-.12Z" style="fill:#fff"/><path d="M847.49,5.88h0l-1.48,1c-.06,0-.13,0-.13-.07v-.5a.2.2,0,0,1,.08-.18l1.51-1.09a.26.26,0,0,1,.18-.07H848a.11.11,0,0,1,.12.12V13a.11.11,0,0,1-.12.12h-.41a.11.11,0,0,1-.12-.12Z" style="fill:#fff"/><path d="M858,13.16a.11.11,0,0,1-.12-.12V5.13A.11.11,0,0,1,858,5h2.72a2.24,2.24,0,0,1,2.51,2.31,2.23,2.23,0,0,1-2.51,2.3h-2.09a.06.06,0,0,0-.07.07V13a.11.11,0,0,1-.12.12Zm4.55-5.84c0-1-.65-1.67-1.85-1.67h-2.06a.06.06,0,0,0-.07.07V8.91a.06.06,0,0,0,.07.07h2.06C861.89,9,862.53,8.37,862.53,7.32Z" style="fill:#fff"/><path d="M866.39,5.13a.11.11,0,0,1,.12-.12H867a.18.18,0,0,1,.18.12L869.79,11h0l2.59-5.84A.17.17,0,0,1,872.6,5h.47a.11.11,0,0,1,.12.12V13a.11.11,0,0,1-.12.12h-.44a.11.11,0,0,1-.12-.12V6.66h0l-2.35,5.17a.2.2,0,0,1-.22.13h-.24a.19.19,0,0,1-.2-.13l-2.35-5.17h0V13a.11.11,0,0,1-.12.12h-.44a.11.11,0,0,1-.12-.12Z" style="fill:#fff"/><path d="M946.45,12.73a.22.22,0,0,1,0-.16l3-3.95a2.66,2.66,0,0,0,.67-1.6,1.48,1.48,0,0,0-1.56-1.52,1.5,1.5,0,0,0-1.56,1.4.11.11,0,0,1-.14.1l-.37-.1a.11.11,0,0,1-.1-.13,2.11,2.11,0,0,1,2.18-1.89A2.07,2.07,0,0,1,950.82,7,3.22,3.22,0,0,1,950,9l-2.69,3.5h3.39a.11.11,0,0,1,.12.12V13a.11.11,0,0,1-.12.12h-4.14a.11.11,0,0,1-.12-.12Z" style="fill:#fff"/><path d="M959,13.16a.11.11,0,0,1-.12-.12V5.13A.11.11,0,0,1,959,5h2.72a2.24,2.24,0,0,1,2.51,2.31,2.23,2.23,0,0,1-2.51,2.3h-2.09a.06.06,0,0,0-.07.07V13a.11.11,0,0,1-.12.12Zm4.55-5.84c0-1-.65-1.67-1.85-1.67h-2.06a.06.06,0,0,0-.07.07V8.91a.06.06,0,0,0,.07.07h2.06C962.93,9,963.58,8.37,963.58,7.32Z" style="fill:#fff"/><path d="M967.43,5.13a.11.11,0,0,1,.12-.12H968a.18.18,0,0,1,.18.12L970.84,11h0l2.59-5.84a.17.17,0,0,1,.17-.12h.47a.11.11,0,0,1,.12.12V13a.11.11,0,0,1-.12.12h-.44a.11.11,0,0,1-.12-.12V6.66h0l-2.35,5.17a.2.2,0,0,1-.22.13h-.24a.19.19,0,0,1-.2-.13l-2.35-5.17h0V13a.11.11,0,0,1-.12.12h-.44a.11.11,0,0,1-.12-.12Z" style="fill:#fff"/><path d="M18.71,71a.17.17,0,0,1,.18-.18h.68a.27.27,0,0,1,.27.18l4,8.77h.07L27.79,71a.26.26,0,0,1,.25-.18h.7a.17.17,0,0,1,.18.18V82.93a.17.17,0,0,1-.18.18h-.67a.17.17,0,0,1-.18-.18V73.35h-.05l-3.53,7.76a.3.3,0,0,1-.32.2h-.36a.29.29,0,0,1-.31-.2l-3.53-7.76h-.05v9.58a.17.17,0,0,1-.18.18h-.67a.17.17,0,0,1-.18-.18Z" style="fill:#fff"/><path d="M32.35,72.24a.17.17,0,0,1-.18-.18V71a.17.17,0,0,1,.18-.18h.79a.17.17,0,0,1,.18.18v1a.17.17,0,0,1-.18.18Zm.09,10.88a.17.17,0,0,1-.18-.18V74.7a.17.17,0,0,1,.18-.18h.61a.17.17,0,0,1,.18.18v8.23a.17.17,0,0,1-.18.18Z" style="fill:#fff"/><path d="M37.23,75.89a.18.18,0,0,1-.27,0l-.31-.45a.18.18,0,0,1,.05-.25,4.14,4.14,0,0,1,2.74-.83c2.23,0,3.13.74,3.13,2.84v5.74a.17.17,0,0,1-.18.18h-.58a.17.17,0,0,1-.18-.18V82h0A2.77,2.77,0,0,1,39,83.29c-1.73,0-2.88-.86-2.88-2.54s1.17-2.54,3.26-2.54h2.18a.1.1,0,0,0,.11-.11v-.88c0-1.4-.49-2-2.23-2A3.12,3.12,0,0,0,37.23,75.89Zm4.39,4.57V79.15a.1.1,0,0,0-.11-.11H39.46C37.75,79,37,79.6,37,80.73s.76,1.66,2.12,1.66S41.63,81.63,41.63,80.46Z" style="fill:#fff"/><path d="M57.09,83.11a.17.17,0,0,1-.18-.18V77.85c0-1.71-.77-2.57-2.27-2.57a2.24,2.24,0,0,0-2.32,2.39v5.26a.17.17,0,0,1-.18.18h-.61a.17.17,0,0,1-.18-.18V77.85c0-1.71-.76-2.57-2.25-2.57a2.25,2.25,0,0,0-2.34,2.39v5.26a.17.17,0,0,1-.18.18H46a.17.17,0,0,1-.18-.18V74.7a.17.17,0,0,1,.18-.18h.61a.17.17,0,0,1,.18.18v1h0a2.7,2.7,0,0,1,2.54-1.39A2.62,2.62,0,0,1,52,75.94h0a2.93,2.93,0,0,1,2.83-1.6c1.94,0,3.06,1.19,3.06,3.28v5.31a.17.17,0,0,1-.18.18Z" style="fill:#fff"/><path d="M61.17,72.24a.17.17,0,0,1-.18-.18V71a.17.17,0,0,1,.18-.18H62a.17.17,0,0,1,.18.18v1a.17.17,0,0,1-.18.18Zm.09,10.88a.17.17,0,0,1-.18-.18V74.7a.17.17,0,0,1,.18-.18h.61a.17.17,0,0,1,.18.18v8.23a.17.17,0,0,1-.18.18Z" style="fill:#fff"/><path d="M69.31,77a11.52,11.52,0,0,1,.32-3.56,3.74,3.74,0,0,1,3.87-2.74A3.84,3.84,0,0,1,77.19,73a.17.17,0,0,1-.05.23l-.59.29a.16.16,0,0,1-.23-.07,3,3,0,0,0-2.81-1.75,2.78,2.78,0,0,0-2.88,2A11.1,11.1,0,0,0,70.35,77a11.1,11.1,0,0,0,.27,3.29,2.78,2.78,0,0,0,2.88,2,3,3,0,0,0,2.81-1.75.16.16,0,0,1,.23-.07l.59.29a.17.17,0,0,1,.05.23,3.84,3.84,0,0,1-3.69,2.27,3.74,3.74,0,0,1-3.87-2.74A11.53,11.53,0,0,1,69.31,77Z" style="fill:#fff"/><path d="M79.48,81a7.11,7.11,0,0,1-.25-2.21,7.33,7.33,0,0,1,.25-2.23,3.4,3.4,0,0,1,6.39,0,6.81,6.81,0,0,1,.25,2.29.18.18,0,0,1-.2.18h-5.6c-.07,0-.11.05-.11.13a4.66,4.66,0,0,0,.18,1.51,2.37,2.37,0,0,0,2.43,1.67,2.93,2.93,0,0,0,2.4-1.1.16.16,0,0,1,.25,0l.41.38a.16.16,0,0,1,0,.25,3.79,3.79,0,0,1-3.13,1.44A3.17,3.17,0,0,1,79.48,81ZM85,78.21a.1.1,0,0,0,.11-.11A4,4,0,0,0,85,76.86a2.44,2.44,0,0,0-4.59,0,4,4,0,0,0-.16,1.24.1.1,0,0,0,.11.11Z" style="fill:#fff"/><path d="M94.58,83.11a.17.17,0,0,1-.18-.18V77.85c0-1.71-.76-2.57-2.25-2.57a2.25,2.25,0,0,0-2.34,2.39v5.26a.17.17,0,0,1-.18.18H89a.17.17,0,0,1-.18-.18V74.7a.17.17,0,0,1,.18-.18h.61a.17.17,0,0,1,.18.18v1h0a2.7,2.7,0,0,1,2.54-1.39c1.91,0,3,1.19,3,3.28v5.31a.17.17,0,0,1-.18.18Z" style="fill:#fff"/><path d="M101,83.16c-1.62,0-2.23-.63-2.23-2.32V75.49a.1.1,0,0,0-.11-.11h-.9a.17.17,0,0,1-.18-.18v-.5a.17.17,0,0,1,.18-.18h.9a.1.1,0,0,0,.11-.11V71.95a.17.17,0,0,1,.18-.18h.61a.17.17,0,0,1,.18.18v2.47a.1.1,0,0,0,.11.11h1.62a.17.17,0,0,1,.18.18v.5a.17.17,0,0,1-.18.18H99.89a.1.1,0,0,0-.11.11v5.29c0,1.15.4,1.44,1.39,1.44h.34a.17.17,0,0,1,.18.18V83a.17.17,0,0,1-.18.18Z" style="fill:#fff"/><path d="M103.85,81a7.11,7.11,0,0,1-.25-2.21,7.32,7.32,0,0,1,.25-2.23,3.4,3.4,0,0,1,6.39,0,6.81,6.81,0,0,1,.25,2.29.18.18,0,0,1-.2.18h-5.6c-.07,0-.11.05-.11.13a4.66,4.66,0,0,0,.18,1.51,2.37,2.37,0,0,0,2.43,1.67,2.93,2.93,0,0,0,2.39-1.1.16.16,0,0,1,.25,0l.41.38a.16.16,0,0,1,0,.25,3.79,3.79,0,0,1-3.13,1.44A3.18,3.18,0,0,1,103.85,81Zm5.55-2.81a.1.1,0,0,0,.11-.11,4,4,0,0,0-.16-1.24,2.44,2.44,0,0,0-4.59,0,4,4,0,0,0-.16,1.24.1.1,0,0,0,.11.11Z" style="fill:#fff"/><path d="M113.39,83.11a.17.17,0,0,1-.18-.18V74.7a.17.17,0,0,1,.18-.18H114a.17.17,0,0,1,.18.18v1.1h0a2.3,2.3,0,0,1,2.3-1.46,2.68,2.68,0,0,1,1.73.59.14.14,0,0,1,0,.23l-.36.5a.19.19,0,0,1-.27,0,2.47,2.47,0,0,0-1.37-.43c-1.51,0-2.09,1.31-2.09,2.9v4.75a.17.17,0,0,1-.18.18Z" style="fill:#fff"/><path d="M18.68,115.16a8.91,8.91,0,0,1,.17-2.61A2.21,2.21,0,0,1,21.16,111a2.23,2.23,0,0,1,2.33,1.59,8.91,8.91,0,0,1,.17,2.61,8.91,8.91,0,0,1-.17,2.62,2.23,2.23,0,0,1-2.33,1.59,2.21,2.21,0,0,1-2.31-1.59A8.91,8.91,0,0,1,18.68,115.16Zm2.48,3a1,1,0,0,0,1-.65,9,9,0,0,0,.11-2.36,9,9,0,0,0-.11-2.36,1,1,0,0,0-1-.65,1,1,0,0,0-1,.65,9,9,0,0,0-.11,2.36,9,9,0,0,0,.11,2.36A1,1,0,0,0,21.16,118.17Z" style="fill:#aeaeae"/><path d="M27.7,114.8v-1.22a.11.11,0,0,1,.12-.12H29a.11.11,0,0,1,.12.12v1.22a.11.11,0,0,1-.12.12h-1.2A.11.11,0,0,1,27.7,114.8Zm0,3.09a.11.11,0,0,1,.12-.12H29a.11.11,0,0,1,.12.12v1.22a.11.11,0,0,1-.12.12h-1.2a.11.11,0,0,1-.12-.12Z" style="fill:#aeaeae"/><path d="M33.19,115.16a8.91,8.91,0,0,1,.17-2.61A2.21,2.21,0,0,1,35.67,111,2.23,2.23,0,0,1,38,112.55a8.91,8.91,0,0,1,.17,2.61,8.91,8.91,0,0,1-.17,2.62,2.23,2.23,0,0,1-2.33,1.59,2.21,2.21,0,0,1-2.31-1.59A8.91,8.91,0,0,1,33.19,115.16Zm2.48,3a1,1,0,0,0,1-.65,9,9,0,0,0,.11-2.36,9,9,0,0,0-.11-2.36,1,1,0,0,0-1-.65,1,1,0,0,0-1,.65,9,9,0,0,0-.11,2.36,9,9,0,0,0,.11,2.36A1,1,0,0,0,35.67,118.17Z" style="fill:#aeaeae"/><path d="M42.18,115.16a8.89,8.89,0,0,1,.17-2.61A2.21,2.21,0,0,1,44.66,111,2.23,2.23,0,0,1,47,112.55a8.91,8.91,0,0,1,.17,2.61,8.91,8.91,0,0,1-.17,2.62,2.23,2.23,0,0,1-2.33,1.59,2.21,2.21,0,0,1-2.31-1.59A8.89,8.89,0,0,1,42.18,115.16Zm2.48,3a1,1,0,0,0,1-.65,9,9,0,0,0,.11-2.36,9,9,0,0,0-.11-2.36,1,1,0,0,0-1-.65,1,1,0,0,0-1,.65,9,9,0,0,0-.11,2.36,9,9,0,0,0,.11,2.36A1,1,0,0,0,44.66,118.17Z" style="fill:#aeaeae"/><path d="M98.37,113.12a14.63,14.63,0,0,1,.27-4.1,3.36,3.36,0,0,1,6.3,0,14.63,14.63,0,0,1,.27,4.1,14.64,14.64,0,0,1-.27,4.11,3.36,3.36,0,0,1-6.3,0A14.64,14.64,0,0,1,98.37,113.12Zm3.42,5.38A2.1,2.1,0,0,0,104,117a14.08,14.08,0,0,0,.25-3.89,14.06,14.06,0,0,0-.25-3.89,2.36,2.36,0,0,0-4.39,0,14.1,14.1,0,0,0-.25,3.89A14.11,14.11,0,0,0,99.6,117,2.1,2.1,0,0,0,101.79,118.5Z" style="fill:#fff"/><path d="M108.49,112a12.48,12.48,0,0,1,0-3.78,2.1,2.1,0,0,1,3.91,0,12.48,12.48,0,0,1,0,3.78,2.1,2.1,0,0,1-3.91,0Zm3.11-.18a11.67,11.67,0,0,0,0-3.42,1.26,1.26,0,0,0-2.32,0,11.63,11.63,0,0,0,0,3.42,1.26,1.26,0,0,0,2.32,0Zm5.2-4.79c.07-.13.13-.18.25-.18h.49c.11,0,.16.07.11.18l-7.09,12.24c-.07.13-.13.18-.25.18h-.49c-.11,0-.16-.07-.11-.18Zm-1.94,9.17a5.94,5.94,0,0,1,.14-1.89,2.09,2.09,0,0,1,3.89,0,6,6,0,0,1,.14,1.89,5.77,5.77,0,0,1-.14,1.89,2.08,2.08,0,0,1-3.89,0A5.76,5.76,0,0,1,114.86,116.16Zm2.09,2.49a1.13,1.13,0,0,0,1.17-.77,5.19,5.19,0,0,0,.13-1.71,5,5,0,0,0-.13-1.69,1.27,1.27,0,0,0-2.34,0,5,5,0,0,0-.13,1.69,5.21,5.21,0,0,0,.13,1.71A1.13,1.13,0,0,0,116.95,118.65Z" style="fill:#fff"/><g id="schedule"><g style="opacity:0.9"><path d="M82,108.6a5.82,5.82,0,1,0,5.82,5.82A5.84,5.84,0,0,0,82,108.6Zm0,10.47a4.66,4.66,0,1,1,4.65-4.66A4.67,4.67,0,0,1,82,119.07Z" style="fill:#eceff1"/></g><polygon points="82.28 111.51 81.41 111.51 81.41 115 84.44 116.86 84.9 116.1 82.28 114.53 82.28 111.51" style="fill:#eceff1;opacity:0.9"/></g><path d="M18.71,168.9a.17.17,0,0,1,.18-.18H23c2.32,0,3.56,1.24,3.56,3.17a2.63,2.63,0,0,1-1.89,2.75v0a2.84,2.84,0,0,1,2.09,2.92c0,2.11-1.35,3.37-3.76,3.37H18.89a.17.17,0,0,1-.18-.18ZM23,174.25A2.24,2.24,0,0,0,25.53,172c0-1.4-.9-2.29-2.56-2.29H19.84a.1.1,0,0,0-.11.11v4.34a.1.1,0,0,0,.11.11ZM19.84,180h3.22c1.75,0,2.66-.94,2.66-2.38s-.92-2.4-2.66-2.4H19.84a.1.1,0,0,0-.11.11v4.56A.09.09,0,0,0,19.84,180Z" style="fill:#fff"/><path d="M29.58,170.09a.17.17,0,0,1-.18-.18v-1a.17.17,0,0,1,.18-.18h.79a.17.17,0,0,1,.18.18v1a.17.17,0,0,1-.18.18ZM29.67,181a.17.17,0,0,1-.18-.18v-8.23a.17.17,0,0,1,.18-.18h.61a.17.17,0,0,1,.18.18v8.23a.17.17,0,0,1-.18.18Z" style="fill:#fff"/><path d="M35.54,181c-1.3,0-1.78-.59-1.78-2V168.9a.17.17,0,0,1,.18-.18h.61a.17.17,0,0,1,.18.18V179c0,.85.27,1.12.92,1.12H36a.17.17,0,0,1,.18.18v.58A.17.17,0,0,1,36,181Z" style="fill:#fff"/><path d="M40.24,181c-1.3,0-1.78-.59-1.78-2V168.9a.17.17,0,0,1,.18-.18h.61a.17.17,0,0,1,.18.18V179c0,.85.27,1.12.92,1.12h.31a.17.17,0,0,1,.18.18v.58a.17.17,0,0,1-.18.18Z" style="fill:#fff"/><path d="M43,184.21a.17.17,0,0,1-.18-.18v-.58a.17.17,0,0,1,.18-.18h.32c.74,0,1.13-.31,1.62-1.6l.34-.88-3.17-8.23c0-.11,0-.18.13-.18h.68c.13,0,.18.05.23.18l2.61,6.9h0l2.54-6.9a.21.21,0,0,1,.22-.18h.68a.12.12,0,0,1,.13.18l-3.51,9.24c-.74,2-1.35,2.41-2.47,2.41Z" style="fill:#fff"/><path d="M55,179.89l.49-.45a.19.19,0,0,1,.27,0,3.16,3.16,0,0,0,1.93.74c1.55,0,2.54-.85,2.54-2.88V168.9a.17.17,0,0,1,.18-.18h.67a.17.17,0,0,1,.18.18v8.39c0,2.63-1.4,3.85-3.58,3.85a4,4,0,0,1-2.65-1A.17.17,0,0,1,55,179.89Z" style="fill:#fff"/><path d="M64.23,178.91a8.87,8.87,0,0,1,0-4.48,3.43,3.43,0,0,1,6.43,0,8.87,8.87,0,0,1,0,4.48,3.43,3.43,0,0,1-6.43,0Zm5.49-.31a5.84,5.84,0,0,0,.23-1.95,5.78,5.78,0,0,0-.23-1.93,2.42,2.42,0,0,0-4.56,0,5.78,5.78,0,0,0-.23,1.93,5.84,5.84,0,0,0,.23,1.95,2.42,2.42,0,0,0,4.56,0Z" style="fill:#fff"/><path d="M79.43,181a.17.17,0,0,1-.18-.18v-5.08c0-1.71-.76-2.57-2.25-2.57a2.25,2.25,0,0,0-2.34,2.39v5.26a.17.17,0,0,1-.18.18h-.61a.17.17,0,0,1-.18-.18v-8.23a.17.17,0,0,1,.18-.18h.61a.17.17,0,0,1,.18.18v1h0a2.7,2.7,0,0,1,2.54-1.39c1.91,0,3,1.19,3,3.28v5.31A.17.17,0,0,1,80,181Z" style="fill:#fff"/><path d="M83.1,178.88a7.11,7.11,0,0,1-.25-2.21,7.33,7.33,0,0,1,.25-2.23,3.4,3.4,0,0,1,6.39,0,6.81,6.81,0,0,1,.25,2.29.18.18,0,0,1-.2.18h-5.6c-.07,0-.11.05-.11.13a4.66,4.66,0,0,0,.18,1.51,2.37,2.37,0,0,0,2.43,1.67,2.93,2.93,0,0,0,2.4-1.1.16.16,0,0,1,.25,0l.41.38a.16.16,0,0,1,0,.25,3.79,3.79,0,0,1-3.13,1.44A3.17,3.17,0,0,1,83.1,178.88Zm5.55-2.81a.1.1,0,0,0,.11-.11,4,4,0,0,0-.16-1.24,2.44,2.44,0,0,0-4.59,0,4,4,0,0,0-.16,1.24.1.1,0,0,0,.11.11Z" style="fill:#fff"/><path d="M91.79,179.94a.17.17,0,0,1,0-.25l.4-.45a.19.19,0,0,1,.25,0,4.43,4.43,0,0,0,2.79,1c1.49,0,2.23-.67,2.23-1.66s-.38-1.33-2-1.51l-.86-.09c-1.6-.16-2.5-.94-2.5-2.29,0-1.57,1.13-2.5,3-2.5A5.29,5.29,0,0,1,98,173a.18.18,0,0,1,0,.25l-.32.43a.18.18,0,0,1-.25.05,5.07,5.07,0,0,0-2.38-.67c-1.31,0-2,.58-2,1.53s.52,1.3,2,1.44l.86.09c1.67.16,2.48,1,2.48,2.3,0,1.64-1.15,2.68-3.29,2.68A5.19,5.19,0,0,1,91.79,179.94Z" style="fill:#fff"/><path d="M18.74,216.07a.19.19,0,0,1,.06-.16l2.88-3.59a1.93,1.93,0,0,0,.53-1.25A1,1,0,0,0,21.13,210a1.05,1.05,0,0,0-1.1,1,.11.11,0,0,1-.13.1l-1.06-.22a.12.12,0,0,1-.1-.14,2.24,2.24,0,0,1,2.42-2,2.22,2.22,0,0,1,2.4,2.28,2.9,2.9,0,0,1-.77,1.91l-2.37,2.88v0h3a.11.11,0,0,1,.12.12v1a.11.11,0,0,1-.12.12H18.86a.11.11,0,0,1-.12-.12Z" style="fill:#aeaeae"/><path d="M27.7,212.65v-1.22a.11.11,0,0,1,.12-.12H29a.11.11,0,0,1,.12.12v1.22a.11.11,0,0,1-.12.12h-1.2A.11.11,0,0,1,27.7,212.65Zm0,3.09a.11.11,0,0,1,.12-.12H29a.11.11,0,0,1,.12.12V217a.11.11,0,0,1-.12.12h-1.2a.11.11,0,0,1-.12-.12Z" style="fill:#aeaeae"/><path d="M33.21,215.32l1-.24a.12.12,0,0,1,.14.08,1.23,1.23,0,0,0,1.23.86,1.14,1.14,0,0,0,1.2-1.21,1.24,1.24,0,0,0-1.33-1.33h-.35a.11.11,0,0,1-.12-.12v-.95a.11.11,0,0,1,.12-.12h.32a1.11,1.11,0,0,0,1.19-1.19,1,1,0,0,0-1.09-1.1,1.06,1.06,0,0,0-1.09.84.11.11,0,0,1-.14.08l-1-.24a.12.12,0,0,1-.1-.14,2.26,2.26,0,0,1,2.4-1.74,2.18,2.18,0,0,1,2.4,2.25,2,2,0,0,1-.91,1.69v0a2.13,2.13,0,0,1,1.08,2,2.41,2.41,0,0,1-2.55,2.47,2.37,2.37,0,0,1-2.52-1.75A.13.13,0,0,1,33.21,215.32Z" style="fill:#aeaeae"/><path d="M42.18,213a8.89,8.89,0,0,1,.17-2.61,2.21,2.21,0,0,1,2.31-1.59A2.23,2.23,0,0,1,47,210.4a20.44,20.44,0,0,1,0,5.23,2.23,2.23,0,0,1-2.33,1.59,2.21,2.21,0,0,1-2.31-1.59A8.89,8.89,0,0,1,42.18,213Zm2.48,3a1,1,0,0,0,1-.65,25.92,25.92,0,0,0,0-4.73,1,1,0,0,0-1-.65,1,1,0,0,0-1,.65,25.92,25.92,0,0,0,0,4.73A1,1,0,0,0,44.66,216Z" style="fill:#aeaeae"/><path d="M98.5,217.44a.33.33,0,0,1,.07-.23l4.52-5.92a4,4,0,0,0,1-2.4,2.22,2.22,0,0,0-2.34-2.29,2.25,2.25,0,0,0-2.34,2.11.17.17,0,0,1-.22.14l-.56-.14a.16.16,0,0,1-.14-.2,3.17,3.17,0,0,1,3.28-2.84,3.11,3.11,0,0,1,3.29,3.22,4.83,4.83,0,0,1-1.24,3l-4,5.26v0h5.1a.17.17,0,0,1,.18.18v.58a.17.17,0,0,1-.18.18H98.68a.17.17,0,0,1-.18-.18Z" style="fill:#fff"/><path d="M108.2,215.52l.58-.14a.17.17,0,0,1,.23.13,2.43,2.43,0,0,0,2.52,1.84,2.39,2.39,0,0,0,2.5-2.54,2.48,2.48,0,0,0-2.57-2.61h-.56a.17.17,0,0,1-.18-.18v-.58a.17.17,0,0,1,.18-.18h.54a2.23,2.23,0,0,0,2.32-2.36,2.15,2.15,0,0,0-2.3-2.29,2.19,2.19,0,0,0-2.3,1.76.16.16,0,0,1-.2.14l-.59-.16a.17.17,0,0,1-.14-.22,3.1,3.1,0,0,1,3.26-2.47,3.18,3.18,0,0,1,1.64,6v0a3.26,3.26,0,0,1,1.89,3.1,3.34,3.34,0,0,1-3.48,3.51,3.3,3.3,0,0,1-3.46-2.52A.17.17,0,0,1,108.2,215.52Z" style="fill:#fff"/><path d="M118.24,210.82a12.48,12.48,0,0,1,0-3.78,2.1,2.1,0,0,1,3.91,0,12.48,12.48,0,0,1,0,3.78,2.1,2.1,0,0,1-3.91,0Zm3.11-.18a11.67,11.67,0,0,0,0-3.42,1.26,1.26,0,0,0-2.32,0,11.63,11.63,0,0,0,0,3.42,1.26,1.26,0,0,0,2.32,0Zm5.2-4.79c.07-.13.13-.18.25-.18h.49c.11,0,.16.07.11.18l-7.09,12.24c-.07.13-.13.18-.25.18h-.49c-.11,0-.16-.07-.11-.18ZM124.62,215a5.94,5.94,0,0,1,.14-1.89,2.09,2.09,0,0,1,3.89,0,6,6,0,0,1,.14,1.89,5.77,5.77,0,0,1-.14,1.89,2.08,2.08,0,0,1-3.89,0A5.76,5.76,0,0,1,124.62,215Zm2.09,2.49a1.13,1.13,0,0,0,1.17-.77A5.19,5.19,0,0,0,128,215a5,5,0,0,0-.13-1.69,1.27,1.27,0,0,0-2.34,0,5,5,0,0,0-.13,1.69,5.21,5.21,0,0,0,.13,1.71A1.13,1.13,0,0,0,126.71,217.5Z" style="fill:#fff"/><g id="schedule-2" data-name="schedule"><path d="M82,206.45a5.82,5.82,0,1,0,5.82,5.82A5.84,5.84,0,0,0,82,206.45Zm0,10.48a4.66,4.66,0,1,1,4.66-4.66A4.67,4.67,0,0,1,82,216.92Z" style="fill:#fff"/><polygon points="82.28 209.36 81.41 209.36 81.41 212.85 84.44 214.71 84.9 213.96 82.28 212.38 82.28 209.36" style="fill:#fff"/></g><path d="M18.71,267.65a.17.17,0,0,1,.18-.18h7a.17.17,0,0,1,.18.18v.61a.17.17,0,0,1-.18.18h-6a.1.1,0,0,0-.11.11V273a.1.1,0,0,0,.11.11H25a.17.17,0,0,1,.18.18v.61a.17.17,0,0,1-.18.18h-5.2a.1.1,0,0,0-.11.11v5.31a.17.17,0,0,1-.18.18h-.67a.17.17,0,0,1-.18-.18Z" style="fill:#fff"/><path d="M28.41,272.49a.18.18,0,0,1-.27,0l-.31-.45a.18.18,0,0,1,.05-.25,4.14,4.14,0,0,1,2.74-.83c2.23,0,3.13.74,3.13,2.84v5.74a.17.17,0,0,1-.18.18H33a.17.17,0,0,1-.18-.18v-.9h0a2.77,2.77,0,0,1-2.66,1.26c-1.73,0-2.88-.86-2.88-2.54s1.17-2.54,3.26-2.54H32.7a.1.1,0,0,0,.11-.11v-.88c0-1.4-.49-2-2.23-2A3.12,3.12,0,0,0,28.41,272.49Zm4.39,4.57v-1.31a.1.1,0,0,0-.11-.11H30.65c-1.71,0-2.43.56-2.43,1.69S29,279,30.34,279,32.81,278.24,32.81,277.07Z" style="fill:#fff"/><path d="M38,278.49h0v1a.17.17,0,0,1-.18.18h-.61a.17.17,0,0,1-.18-.18V267.65a.17.17,0,0,1,.18-.18h.61a.17.17,0,0,1,.18.18v4.7h0a2.65,2.65,0,0,1,2.61-1.4A2.77,2.77,0,0,1,43.48,273a9.73,9.73,0,0,1,0,4.84,2.77,2.77,0,0,1-2.92,2.05A2.65,2.65,0,0,1,38,278.49Zm4.61-1a8.89,8.89,0,0,0,0-4.05,2.35,2.35,0,0,0-4.39,0,6.39,6.39,0,0,0-.23,2,6.26,6.26,0,0,0,.23,2,2.35,2.35,0,0,0,4.39,0Z" style="fill:#fff"/><path d="M46.61,268.84a.17.17,0,0,1-.18-.18v-1a.17.17,0,0,1,.18-.18h.79a.17.17,0,0,1,.18.18v1a.17.17,0,0,1-.18.18Zm.09,10.88a.17.17,0,0,1-.18-.18v-8.23a.17.17,0,0,1,.18-.18h.61a.17.17,0,0,1,.18.18v8.23a.17.17,0,0,1-.18.18Z" style="fill:#fff"/><path d="M50.52,277.66a8.87,8.87,0,0,1,0-4.48,3.43,3.43,0,0,1,6.43,0,8.87,8.87,0,0,1,0,4.48,3.43,3.43,0,0,1-6.43,0Zm5.49-.31a5.84,5.84,0,0,0,.23-1.95,5.78,5.78,0,0,0-.23-1.93,2.42,2.42,0,0,0-4.56,0,5.78,5.78,0,0,0-.23,1.93,5.84,5.84,0,0,0,.23,1.95,2.42,2.42,0,0,0,4.56,0Z" style="fill:#fff"/><path d="M64.43,267.65a.17.17,0,0,1,.18-.18h7a.17.17,0,0,1,.18.18v.61a.17.17,0,0,1-.18.18h-6a.1.1,0,0,0-.11.11V273a.1.1,0,0,0,.11.11h5.2a.17.17,0,0,1,.18.18v.61a.17.17,0,0,1-.18.18h-5.2a.1.1,0,0,0-.11.11v5.31a.17.17,0,0,1-.18.18h-.67a.17.17,0,0,1-.18-.18Z" style="fill:#fff"/><path d="M73.45,277.62a7.11,7.11,0,0,1-.25-2.21,7.32,7.32,0,0,1,.25-2.23,3.4,3.4,0,0,1,6.39,0,6.81,6.81,0,0,1,.25,2.29.18.18,0,0,1-.2.18h-5.6c-.07,0-.11.05-.11.13a4.66,4.66,0,0,0,.18,1.51A2.37,2.37,0,0,0,76.8,279a2.93,2.93,0,0,0,2.39-1.1.16.16,0,0,1,.25,0l.41.38a.16.16,0,0,1,0,.25,3.79,3.79,0,0,1-3.13,1.44A3.18,3.18,0,0,1,73.45,277.62ZM79,274.82a.1.1,0,0,0,.11-.11,4,4,0,0,0-.16-1.24,2.44,2.44,0,0,0-4.59,0,4,4,0,0,0-.16,1.24.1.1,0,0,0,.11.11Z" style="fill:#fff"/><path d="M83,279.71a.17.17,0,0,1-.18-.18v-8.23a.17.17,0,0,1,.18-.18h.61a.17.17,0,0,1,.18.18v1.1h0a2.3,2.3,0,0,1,2.3-1.46,2.68,2.68,0,0,1,1.73.59.14.14,0,0,1,0,.23l-.36.5a.19.19,0,0,1-.27,0,2.47,2.47,0,0,0-1.37-.43c-1.51,0-2.09,1.31-2.09,2.9v4.75a.17.17,0,0,1-.18.18Z" style="fill:#fff"/><path d="M90.12,279.71a.17.17,0,0,1-.18-.18v-8.23a.17.17,0,0,1,.18-.18h.61a.17.17,0,0,1,.18.18v1.1h0a2.3,2.3,0,0,1,2.3-1.46,2.68,2.68,0,0,1,1.73.59.14.14,0,0,1,0,.23l-.36.5a.19.19,0,0,1-.27,0,2.47,2.47,0,0,0-1.37-.43c-1.51,0-2.09,1.31-2.09,2.9v4.75a.17.17,0,0,1-.18.18Z" style="fill:#fff"/><path d="M96.42,277.62a7.11,7.11,0,0,1-.25-2.21,7.32,7.32,0,0,1,.25-2.23,3.4,3.4,0,0,1,6.39,0,6.81,6.81,0,0,1,.25,2.29.18.18,0,0,1-.2.18h-5.6c-.07,0-.11.05-.11.13a4.66,4.66,0,0,0,.18,1.51A2.37,2.37,0,0,0,99.76,279a2.93,2.93,0,0,0,2.39-1.1.16.16,0,0,1,.25,0l.41.38a.16.16,0,0,1,0,.25,3.79,3.79,0,0,1-3.13,1.44A3.18,3.18,0,0,1,96.42,277.62Zm5.55-2.81a.1.1,0,0,0,.11-.11,4,4,0,0,0-.16-1.24,2.44,2.44,0,0,0-4.59,0,4,4,0,0,0-.16,1.24.1.1,0,0,0,.11.11Z" style="fill:#fff"/><path d="M106,279.71a.17.17,0,0,1-.18-.18v-8.23a.17.17,0,0,1,.18-.18h.61a.17.17,0,0,1,.18.18v1.1h0a2.3,2.3,0,0,1,2.3-1.46,2.68,2.68,0,0,1,1.73.59.14.14,0,0,1,0,.23l-.36.5a.19.19,0,0,1-.27,0,2.47,2.47,0,0,0-1.37-.43c-1.51,0-2.09,1.31-2.09,2.9v4.75a.17.17,0,0,1-.18.18Z" style="fill:#fff"/><path d="M113.16,272.49a.18.18,0,0,1-.27,0l-.31-.45a.18.18,0,0,1,.05-.25,4.14,4.14,0,0,1,2.74-.83c2.23,0,3.13.74,3.13,2.84v5.74a.17.17,0,0,1-.18.18h-.58a.17.17,0,0,1-.18-.18v-.9h0a2.77,2.77,0,0,1-2.66,1.26c-1.73,0-2.88-.86-2.88-2.54s1.17-2.54,3.26-2.54h2.18a.1.1,0,0,0,.11-.11v-.88c0-1.4-.49-2-2.23-2A3.12,3.12,0,0,0,113.16,272.49Zm4.39,4.57v-1.31a.1.1,0,0,0-.11-.11h-2.05c-1.71,0-2.43.56-2.43,1.69s.76,1.66,2.12,1.66S117.55,278.24,117.55,277.07Z" style="fill:#fff"/><path d="M18.68,311.76a8.91,8.91,0,0,1,.17-2.61,2.21,2.21,0,0,1,2.31-1.59,2.23,2.23,0,0,1,2.33,1.59,20.44,20.44,0,0,1,0,5.23A2.23,2.23,0,0,1,21.16,316a2.21,2.21,0,0,1-2.31-1.59A8.91,8.91,0,0,1,18.68,311.76Zm2.48,3a1,1,0,0,0,1-.65,25.92,25.92,0,0,0,0-4.73,1,1,0,0,0-1-.65,1,1,0,0,0-1,.65,25.92,25.92,0,0,0,0,4.73A1,1,0,0,0,21.16,314.78Z" style="fill:#aeaeae"/><path d="M27.7,311.4v-1.22a.11.11,0,0,1,.12-.12H29a.11.11,0,0,1,.12.12v1.22a.11.11,0,0,1-.12.12h-1.2A.11.11,0,0,1,27.7,311.4Zm0,3.09a.11.11,0,0,1,.12-.12H29a.11.11,0,0,1,.12.12v1.22a.11.11,0,0,1-.12.12h-1.2a.11.11,0,0,1-.12-.12Z" style="fill:#aeaeae"/><path d="M33.19,311.76a8.91,8.91,0,0,1,.17-2.61,2.21,2.21,0,0,1,2.31-1.59A2.23,2.23,0,0,1,38,309.15a20.44,20.44,0,0,1,0,5.23A2.23,2.23,0,0,1,35.67,316a2.21,2.21,0,0,1-2.31-1.59A8.91,8.91,0,0,1,33.19,311.76Zm2.48,3a1,1,0,0,0,1-.65,25.92,25.92,0,0,0,0-4.73,1,1,0,0,0-1-.65,1,1,0,0,0-1,.65,25.92,25.92,0,0,0,0,4.73A1,1,0,0,0,35.67,314.78Z" style="fill:#aeaeae"/><path d="M42.18,311.76a8.89,8.89,0,0,1,.17-2.61,2.21,2.21,0,0,1,2.31-1.59A2.23,2.23,0,0,1,47,309.15a20.44,20.44,0,0,1,0,5.23A2.23,2.23,0,0,1,44.66,316a2.21,2.21,0,0,1-2.31-1.59A8.89,8.89,0,0,1,42.18,311.76Zm2.48,3a1,1,0,0,0,1-.65,25.92,25.92,0,0,0,0-4.73,1,1,0,0,0-1-.65,1,1,0,0,0-1,.65,25.92,25.92,0,0,0,0,4.73A1,1,0,0,0,44.66,314.78Z" style="fill:#aeaeae"/><path d="M98.37,310.72a14.63,14.63,0,0,1,.27-4.1,3.36,3.36,0,0,1,6.3,0,31.34,31.34,0,0,1,0,8.21,3.36,3.36,0,0,1-6.3,0A14.64,14.64,0,0,1,98.37,310.72Zm3.42,5.38a2.1,2.1,0,0,0,2.2-1.49,30.08,30.08,0,0,0,0-7.78,2.36,2.36,0,0,0-4.39,0,30.14,30.14,0,0,0,0,7.78A2.1,2.1,0,0,0,101.79,316.1Z" style="fill:#fff"/><path d="M108.49,309.57a12.48,12.48,0,0,1,0-3.78,2.1,2.1,0,0,1,3.91,0,12.48,12.48,0,0,1,0,3.78,2.1,2.1,0,0,1-3.91,0Zm3.11-.18a11.67,11.67,0,0,0,0-3.42,1.26,1.26,0,0,0-2.32,0,11.63,11.63,0,0,0,0,3.42,1.26,1.26,0,0,0,2.32,0Zm5.2-4.79c.07-.13.13-.18.25-.18h.49c.11,0,.16.07.11.18l-7.09,12.24c-.07.13-.13.18-.25.18h-.49c-.11,0-.16-.07-.11-.18Zm-1.94,9.17a5.94,5.94,0,0,1,.14-1.89,2.09,2.09,0,0,1,3.89,0,6,6,0,0,1,.14,1.89,5.77,5.77,0,0,1-.14,1.89,2.08,2.08,0,0,1-3.89,0A5.76,5.76,0,0,1,114.86,313.76Zm2.09,2.49a1.13,1.13,0,0,0,1.17-.77,5.19,5.19,0,0,0,.13-1.71,5,5,0,0,0-.13-1.69,1.27,1.27,0,0,0-2.34,0,5,5,0,0,0-.13,1.69,5.21,5.21,0,0,0,.13,1.71A1.13,1.13,0,0,0,116.95,316.25Z" style="fill:#fff"/><g id="schedule-3" data-name="schedule"><g style="opacity:0.9"><path d="M82,305.2A5.82,5.82,0,1,0,87.81,311,5.84,5.84,0,0,0,82,305.2Zm0,10.47A4.66,4.66,0,1,1,86.65,311,4.67,4.67,0,0,1,82,315.67Z" style="fill:#eceff1"/></g><polygon points="82.28 308.11 81.41 308.11 81.41 311.6 84.44 313.46 84.9 312.7 82.28 311.13 82.28 308.11" style="fill:#eceff1;opacity:0.9"/></g><rect width="976.54" height="356.1" style="fill:none"/></g></g></g></svg>