<svg xmlns="http://www.w3.org/2000/svg" viewBox="0 0 976.54 356.1"><title>schedule-event2</title><g id="Layer_2" data-name="Layer 2"><g id="Layer_1-2" data-name="Layer 1"><rect x="457.25" y="154.18" width="200.84" height="69.69" style="fill:#3498db"/><path d="M467.35,210.38a.09.09,0,0,1,0-.12l.5-.58a.07.07,0,0,1,.11,0,2.44,2.44,0,0,0,1.48.58c.65,0,1-.33,1-.78s-.24-.65-1-.75l-.29,0c-1-.14-1.64-.65-1.64-1.55a1.64,1.64,0,0,1,1.84-1.64,3,3,0,0,1,1.76.54.07.07,0,0,1,0,.11l-.38.59a.08.08,0,0,1-.11,0,2.3,2.3,0,0,0-1.3-.42c-.55,0-.86.3-.86.73s.26.63,1,.74l.29,0c1,.14,1.62.64,1.62,1.57s-.7,1.69-2,1.69A3.06,3.06,0,0,1,467.35,210.38Z" style="fill:#fff"/><path d="M473.78,208.3a4.21,4.21,0,0,1,.14-1.47,1.83,1.83,0,0,1,1.89-1.34,1.91,1.91,0,0,1,1.84,1.17.07.07,0,0,1,0,.1l-.68.33a.07.07,0,0,1-.1,0,1.07,1.07,0,0,0-1-.7,1,1,0,0,0-1,.72,8.07,8.07,0,0,0,0,2.48,1,1,0,0,0,1,.72,1.07,1.07,0,0,0,1-.7.07.07,0,0,1,.1,0l.68.33a.07.07,0,0,1,0,.1,1.91,1.91,0,0,1-1.84,1.17,1.83,1.83,0,0,1-1.89-1.33A4.22,4.22,0,0,1,473.78,208.3Z" style="fill:#fff"/><path d="M480.14,205.66a.08.08,0,0,1,.08-.08H481a.08.08,0,0,1,.08.08v2.14a0,0,0,0,0,0,0h2.07a0,0,0,0,0,0,0v-2.14a.08.08,0,0,1,.08-.08h.78a.08.08,0,0,1,.08.08v5.28a.08.08,0,0,1-.08.08h-.78a.08.08,0,0,1-.08-.08v-2.19a0,0,0,0,0,0,0h-2.07a0,0,0,0,0,0,0v2.19a.08.08,0,0,1-.08.08h-.78a.08.08,0,0,1-.08-.08Z" style="fill:#fff"/><path d="M487,205.66a.08.08,0,0,1,.08-.08h3.41a.08.08,0,0,1,.08.08v.69a.07.07,0,0,1-.08.08H488a0,0,0,0,0,0,0v1.33a0,0,0,0,0,0,0h2.1a.08.08,0,0,1,.08.08v.69a.08.08,0,0,1-.08.08H488a0,0,0,0,0,0,0v1.38a0,0,0,0,0,0,0h2.49a.08.08,0,0,1,.08.08v.69a.08.08,0,0,1-.08.08h-3.41a.08.08,0,0,1-.08-.08Z" style="fill:#fff"/><path d="M493.15,205.66a.08.08,0,0,1,.08-.08h1.94a1.72,1.72,0,0,1,1.81,1.21,8.48,8.48,0,0,1,0,3,1.72,1.72,0,0,1-1.81,1.21h-1.94a.08.08,0,0,1-.08-.08Zm1,4.51H495a1,1,0,0,0,1.13-.69,7.33,7.33,0,0,0,0-2.37,1,1,0,0,0-1.13-.69h-.81a0,0,0,0,0,0,0v3.65A0,0,0,0,0,494.15,210.17Z" style="fill:#fff"/><path d="M502.78,209.09v-3.43a.08.08,0,0,1,.08-.08h.78a.08.08,0,0,1,.08.08v3.45a2,2,0,0,1-4,0v-3.45a.08.08,0,0,1,.08-.08h.78a.08.08,0,0,1,.08.08v3.43a1.06,1.06,0,1,0,2.12,0Z" style="fill:#fff"/><path d="M506.5,205.66a.08.08,0,0,1,.08-.08h.78a.08.08,0,0,1,.08.08v4.46a0,0,0,0,0,0,0H510a.08.08,0,0,1,.08.08v.69a.08.08,0,0,1-.08.08h-3.41a.08.08,0,0,1-.08-.08Z" style="fill:#fff"/><path d="M512.46,205.66a.08.08,0,0,1,.08-.08h3.41a.08.08,0,0,1,.08.08v.69a.07.07,0,0,1-.08.08h-2.49a0,0,0,0,0,0,0v1.33a0,0,0,0,0,0,0h2.1a.08.08,0,0,1,.08.08v.69a.08.08,0,0,1-.08.08h-2.1a0,0,0,0,0,0,0v1.38a0,0,0,0,0,0,0h2.49a.08.08,0,0,1,.08.08v.69a.08.08,0,0,1-.08.08h-3.41a.08.08,0,0,1-.08-.08Z" style="fill:#fff"/><path d="M518.62,205.66a.08.08,0,0,1,.08-.08h1.94a1.72,1.72,0,0,1,1.81,1.21,8.48,8.48,0,0,1,0,3,1.72,1.72,0,0,1-1.81,1.21H518.7a.08.08,0,0,1-.08-.08Zm1,4.51h.81a1,1,0,0,0,1.13-.69,7.33,7.33,0,0,0,0-2.37,1,1,0,0,0-1.13-.69h-.81a0,0,0,0,0,0,0v3.65A0,0,0,0,0,519.61,210.17Z" style="fill:#fff"/><path d="M528.42,210.38a.09.09,0,0,1,0-.12l.5-.58a.07.07,0,0,1,.11,0,2.44,2.44,0,0,0,1.48.58c.65,0,1-.33,1-.78s-.24-.65-1-.75l-.29,0c-1-.14-1.64-.65-1.64-1.55a1.64,1.64,0,0,1,1.84-1.64,3,3,0,0,1,1.76.54.07.07,0,0,1,0,.11l-.38.59a.08.08,0,0,1-.11,0,2.3,2.3,0,0,0-1.3-.42c-.55,0-.86.3-.86.73s.26.63,1,.74l.29,0c1,.14,1.62.64,1.62,1.57s-.7,1.69-2,1.69A3.06,3.06,0,0,1,528.42,210.38Z" style="fill:#fff"/><path d="M535,205.66a.08.08,0,0,1,.08-.08h3.41a.08.08,0,0,1,.08.08v.69a.07.07,0,0,1-.08.08H536a0,0,0,0,0,0,0v1.33a0,0,0,0,0,0,0h2.1a.08.08,0,0,1,.08.08v.69a.08.08,0,0,1-.08.08H536a0,0,0,0,0,0,0v1.38a0,0,0,0,0,0,0h2.49a.08.08,0,0,1,.08.08v.69a.08.08,0,0,1-.08.08h-3.41a.08.08,0,0,1-.08-.08Z" style="fill:#fff"/><path d="M544.25,211a.11.11,0,0,1-.12-.08l-1-2.12h-.94a0,0,0,0,0,0,0v2.07a.08.08,0,0,1-.08.08h-.78a.08.08,0,0,1-.08-.08v-5.28a.08.08,0,0,1,.08-.08h2.1a1.62,1.62,0,0,1,1.74,1.62,1.55,1.55,0,0,1-1,1.5l1.14,2.21a.06.06,0,0,1-.06.1Zm-.1-3.81a.76.76,0,0,0-.83-.78h-1.16a0,0,0,0,0,0,0v1.45a0,0,0,0,0,0,0h1.16A.76.76,0,0,0,544.14,207.2Z" style="fill:#fff"/><path d="M548.94,211a.1.1,0,0,1-.1-.08l-1.72-5.28s0-.08.06-.08H548a.1.1,0,0,1,.1.08l1.22,3.85h0l1.17-3.85a.1.1,0,0,1,.1-.08h.78s.08,0,.06.08l-1.73,5.28a.1.1,0,0,1-.1.08Z" style="fill:#fff"/><path d="M553.73,205.66a.08.08,0,0,1,.08-.08h.78a.08.08,0,0,1,.08.08v5.28a.08.08,0,0,1-.08.08h-.78a.08.08,0,0,1-.08-.08Z" style="fill:#fff"/><path d="M557.31,208.3a4.21,4.21,0,0,1,.14-1.47,1.83,1.83,0,0,1,1.89-1.34,1.91,1.91,0,0,1,1.84,1.17.07.07,0,0,1,0,.1l-.68.33a.07.07,0,0,1-.1,0,1.07,1.07,0,0,0-1-.7,1,1,0,0,0-1,.72,8.07,8.07,0,0,0,0,2.48,1,1,0,0,0,1,.72,1.07,1.07,0,0,0,1-.7.07.07,0,0,1,.1,0l.68.33a.07.07,0,0,1,0,.1,1.91,1.91,0,0,1-1.84,1.17,1.83,1.83,0,0,1-1.89-1.33A4.22,4.22,0,0,1,557.31,208.3Z" style="fill:#fff"/><path d="M563.67,205.66a.08.08,0,0,1,.08-.08h3.41a.08.08,0,0,1,.08.08v.69a.07.07,0,0,1-.08.08h-2.49a0,0,0,0,0,0,0v1.33a0,0,0,0,0,0,0h2.1a.08.08,0,0,1,.08.08v.69a.08.08,0,0,1-.08.08h-2.1a0,0,0,0,0,0,0v1.38a0,0,0,0,0,0,0h2.49a.08.08,0,0,1,.08.08v.69a.08.08,0,0,1-.08.08h-3.41a.08.08,0,0,1-.08-.08Z" style="fill:#fff"/><path d="M468.74,180.81a.17.17,0,0,1,.18-.18h.67a.17.17,0,0,1,.18.18v5.26a.1.1,0,0,0,.11.11h6a.1.1,0,0,0,.11-.11v-5.26a.17.17,0,0,1,.18-.18h.67a.17.17,0,0,1,.18.18v11.88a.17.17,0,0,1-.18.18h-.67a.17.17,0,0,1-.18-.18v-5.44a.1.1,0,0,0-.11-.11h-6a.1.1,0,0,0-.11.11v5.44a.17.17,0,0,1-.18.18h-.67a.17.17,0,0,1-.18-.18Z" style="fill:#fff"/><path d="M480.08,190.78a7.11,7.11,0,0,1-.25-2.21,7.33,7.33,0,0,1,.25-2.23,3.4,3.4,0,0,1,6.39,0,6.81,6.81,0,0,1,.25,2.29.18.18,0,0,1-.2.18h-5.6c-.07,0-.11.05-.11.13a4.66,4.66,0,0,0,.18,1.51,2.37,2.37,0,0,0,2.43,1.67,2.93,2.93,0,0,0,2.4-1.1.16.16,0,0,1,.25,0l.41.38a.16.16,0,0,1,0,.25,3.79,3.79,0,0,1-3.13,1.44A3.17,3.17,0,0,1,480.08,190.78Zm5.55-2.81a.1.1,0,0,0,.11-.11,4,4,0,0,0-.16-1.24,2.44,2.44,0,0,0-4.59,0,4,4,0,0,0-.16,1.24.1.1,0,0,0,.11.11Z" style="fill:#fff"/><path d="M495.18,192.87a.17.17,0,0,1-.18-.18v-5.08c0-1.71-.76-2.57-2.25-2.57a2.25,2.25,0,0,0-2.34,2.39v5.26a.17.17,0,0,1-.18.18h-.61a.17.17,0,0,1-.18-.18v-8.23a.17.17,0,0,1,.18-.18h.61a.17.17,0,0,1,.18.18v1h0A2.7,2.7,0,0,1,493,184.1c1.91,0,3,1.19,3,3.28v5.31a.17.17,0,0,1-.18.18Z" style="fill:#fff"/><path d="M499.35,192.87a.17.17,0,0,1-.18-.18v-8.23a.17.17,0,0,1,.18-.18H500a.17.17,0,0,1,.18.18v1.1h0a2.3,2.3,0,0,1,2.3-1.46,2.68,2.68,0,0,1,1.73.59.14.14,0,0,1,0,.23l-.36.5a.2.2,0,0,1-.27,0,2.47,2.47,0,0,0-1.37-.43c-1.51,0-2.09,1.31-2.09,2.9v4.75a.17.17,0,0,1-.18.18Z" style="fill:#fff"/><path d="M506.12,196.11a.17.17,0,0,1-.18-.18v-.58a.17.17,0,0,1,.18-.18h.32c.74,0,1.13-.31,1.62-1.6l.34-.88-3.17-8.23c0-.11,0-.18.13-.18H506c.13,0,.18.05.23.18l2.61,6.9h0l2.54-6.9a.21.21,0,0,1,.22-.18h.68a.12.12,0,0,1,.13.18L509,193.7c-.74,2-1.35,2.41-2.47,2.41Z" style="fill:#fff"/><path d="M526.43,192.87c-.11,0-.16,0-.22-.16l-2.57-5.31H520.3a.1.1,0,0,0-.11.11v5.19a.17.17,0,0,1-.18.18h-.67a.17.17,0,0,1-.18-.18V180.81a.17.17,0,0,1,.18-.18h4.11c2.3,0,3.73,1.3,3.73,3.38a3.12,3.12,0,0,1-2.5,3.24l2.66,5.42c.07.11,0,.2-.09.2Zm-.27-8.86c0-1.53-1-2.41-2.72-2.41H520.3a.1.1,0,0,0-.11.11v4.61a.09.09,0,0,0,.11.11h3.13C525.18,186.42,526.16,185.56,526.16,184Z" style="fill:#fff"/><path d="M529.77,190.82a8.87,8.87,0,0,1,0-4.48,3.43,3.43,0,0,1,6.43,0,8.87,8.87,0,0,1,0,4.48,3.43,3.43,0,0,1-6.43,0Zm5.49-.31a5.84,5.84,0,0,0,.23-1.95,5.78,5.78,0,0,0-.23-1.93,2.42,2.42,0,0,0-4.56,0,5.78,5.78,0,0,0-.23,1.93,5.84,5.84,0,0,0,.23,1.95,2.42,2.42,0,0,0,4.56,0Z" style="fill:#fff"/><path d="M540.21,191.64h0v1a.17.17,0,0,1-.18.18h-.61a.17.17,0,0,1-.18-.18V180.81a.17.17,0,0,1,.18-.18H540a.17.17,0,0,1,.18.18v4.7h0a2.65,2.65,0,0,1,2.61-1.4,2.77,2.77,0,0,1,2.92,2.05,9.73,9.73,0,0,1,0,4.84,2.77,2.77,0,0,1-2.92,2.05A2.65,2.65,0,0,1,540.21,191.64Zm4.61-1a8.89,8.89,0,0,0,0-4.05,2.35,2.35,0,0,0-4.39,0,6.39,6.39,0,0,0-.23,2,6.26,6.26,0,0,0,.23,2,2.35,2.35,0,0,0,4.39,0Z" style="fill:#fff"/><path d="M548.87,182a.17.17,0,0,1-.18-.18v-1a.17.17,0,0,1,.18-.18h.79a.17.17,0,0,1,.18.18v1a.17.17,0,0,1-.18.18Zm.09,10.88a.17.17,0,0,1-.18-.18v-8.23a.17.17,0,0,1,.18-.18h.61a.17.17,0,0,1,.18.18v8.23a.17.17,0,0,1-.18.18Z" style="fill:#fff"/><path d="M558.81,192.87a.17.17,0,0,1-.18-.18v-5.08c0-1.71-.76-2.57-2.25-2.57a2.25,2.25,0,0,0-2.34,2.39v5.26a.17.17,0,0,1-.18.18h-.61a.17.17,0,0,1-.18-.18v-8.23a.17.17,0,0,1,.18-.18h.61a.17.17,0,0,1,.18.18v1h0a2.7,2.7,0,0,1,2.54-1.39c1.91,0,3,1.19,3,3.28v5.31a.17.17,0,0,1-.18.18Z" style="fill:#fff"/><path d="M562.14,191.84a.17.17,0,0,1,0-.25l.4-.45a.19.19,0,0,1,.25,0,4.43,4.43,0,0,0,2.79,1c1.49,0,2.23-.67,2.23-1.66s-.38-1.33-2-1.51l-.86-.09c-1.6-.16-2.5-.94-2.5-2.29,0-1.57,1.13-2.5,3-2.5a5.29,5.29,0,0,1,2.86.83.18.18,0,0,1,0,.25l-.32.43a.18.18,0,0,1-.25.05,5.07,5.07,0,0,0-2.38-.67c-1.31,0-2,.58-2,1.53s.52,1.3,2,1.44l.86.09c1.67.16,2.48,1,2.48,2.3,0,1.64-1.15,2.68-3.29,2.68A5.19,5.19,0,0,1,562.14,191.84Z" style="fill:#fff"/><path d="M571.17,190.82a8.87,8.87,0,0,1,0-4.48,3.43,3.43,0,0,1,6.43,0,8.87,8.87,0,0,1,0,4.48,3.43,3.43,0,0,1-6.43,0Zm5.49-.31a5.84,5.84,0,0,0,.23-1.95,5.78,5.78,0,0,0-.23-1.93,2.42,2.42,0,0,0-4.56,0,5.78,5.78,0,0,0-.23,1.93,5.84,5.84,0,0,0,.23,1.95,2.42,2.42,0,0,0,4.56,0Z" style="fill:#fff"/><path d="M586.37,192.87a.17.17,0,0,1-.18-.18v-5.08c0-1.71-.76-2.57-2.25-2.57a2.25,2.25,0,0,0-2.34,2.39v5.26a.17.17,0,0,1-.18.18h-.61a.17.17,0,0,1-.18-.18v-8.23a.17.17,0,0,1,.18-.18h.61a.17.17,0,0,1,.18.18v1h0a2.7,2.7,0,0,1,2.54-1.39c1.91,0,3,1.19,3,3.28v5.31a.17.17,0,0,1-.18.18Z" style="fill:#fff"/><rect x="467.04" y="166.09" width="90.69" height="3.21" style="fill:#2e3d5a"/><rect x="557.73" y="166.09" width="45.34" height="3.21" style="fill:#28aadd"/><g id="drive-form"><path d="M648,162H637.1a1.57,1.57,0,0,0-1.56,1.56v10.95a1.57,1.57,0,0,0,1.56,1.56H648a1.57,1.57,0,0,0,1.56-1.56V163.58A1.57,1.57,0,0,0,648,162ZM640.23,173h-1.56V171.4h1.56Zm0-3.13h-1.56v-1.56h1.56Zm0-3.13h-1.56v-1.56h1.56Zm6.26,6.25H641V171.4h5.47Zm0-3.13H641v-1.56h5.47Zm0-3.13H641v-1.56h5.47Z" style="fill:#2e3d5a"/></g><rect width="976.54" height="356.1" style="fill:none"/></g></g></svg>