<svg data-name="Layer 1" xmlns="http://www.w3.org/2000/svg" viewBox="0 0 677.34 583.81"><defs><clipPath id="a"><path fill="none" d="M0 .01h677.34v583.81H0z"/></clipPath></defs><path fill="#eceff1" opacity=".75" d="M0 0h679.26v583.81H0z"/><g opacity=".15" fill="none" stroke="#78909c" stroke-linecap="round" stroke-linejoin="round" clip-path="url(#a)"><path d="M133.35-25.17l26.58 55.52a59.15 59.15 0 0 1 3.63 10.47l4.1 18.29a59.62 59.62 0 0 0 3.63 10.47l57.33 117.48M162.35 35.39l15.15 19a59.4 59.4 0 0 1 5.88 9.39L240.7 181.3M447.71 630.47l-107-219a59.11 59.11 0 0 1-3.62-10.47L333 382.74a59.78 59.78 0 0 0-3.63-10.47L272 254.78M338.31 406.47l-15.15-19a59.34 59.34 0 0 1-5.88-9.39L260 260.56" stroke-width="8"/><circle cx="248.66" cy="220.34" r="38.81" stroke-width="10"/><path stroke-width="10" d="M-75.7 75.6l288.81 129.17M283.89 235.98L563.2 360.91M270.05 187.96L427.78-20.82M-34.79 611.71l261.23-359.56"/><path stroke-width="7" d="M172.89-20.82v632.53M248.66 259.16v352.55M248.66-25.1v206.63M287.47 220.34h415.81M-42.13 220.34h251.98M336.52-20.82v632.53M489.67-20.82v632.53"/><path stroke-width="10" d="M587.22-20.82v632.53"/><path stroke-width="7" d="M-161.08 371.39h689.56M95.82-20.82v632.53M368.43 468.21l194.77-87.38M133.35 220.34v66.09M-42.13 286.43h218.17M38.63 220.34v34.44M68.7 254.78H26.66M95.82 333.52H-12.76M-56.82 35.39h760.1M489.67 348.43l-106.99-14.91M387.92 371.39v44.06l18.36 35.78M336.52 419.64h-87.86M172.89 327.96h75.77M-12.76 128h716.04M248.66 78.22h454.62M703.28 468.21H95.82L48.6 496.94h-209.68M172.89 529.78h75.77M249.58 545.51h88.73M213.11 529.78v63.98M336.52 174.75h153.15M465.81 128v26.73H336.52M95.82 94.48H60.66V65.3l-28.32-9.63M-12.77 103.75l60.45-68.36L74.3-20.82M-12.77 424.52H22.9l51.4 37.05M22.9 424.52l7.87-13.21h27.79v-13.69M48.6 443.04l15.48-18.52-5.52-13.21M398.51 529.78h188.71M489.67 300.57h38.81l22.02 14.18v40.48M534.34 304.35l-15.7 36.62M489.67 280.14h195.1"/></g><path fill="#3498db" d="M189.6 123.62v21.21l-10.89 12.03 10.89 12.04v270.49h314.37V123.62H189.6"/><path fill="#2e3d5a" d="M189.6 123.62h314.37v64.7H189.6z"/><path d="M259.22 233.54a.17.17 0 0 1 .18-.18h7a.17.17 0 0 1 .18.18v.61a.17.17 0 0 1-.18.18h-6a.1.1 0 0 0-.11.11v4.48a.1.1 0 0 0 .11.11h5.2a.17.17 0 0 1 .18.18v.61a.17.17 0 0 1-.18.18h-5.2a.1.1 0 0 0-.11.11v5.31a.17.17 0 0 1-.18.18h-.67a.17.17 0 0 1-.18-.18zM268.92 238.38a.18.18 0 0 1-.27 0l-.31-.45a.18.18 0 0 1 .05-.25 4.14 4.14 0 0 1 2.74-.83c2.23 0 3.13.74 3.13 2.84v5.74a.17.17 0 0 1-.18.18h-.58a.17.17 0 0 1-.18-.18v-.9a2.77 2.77 0 0 1-2.66 1.26c-1.73 0-2.88-.86-2.88-2.54s1.17-2.54 3.26-2.54h2.18a.1.1 0 0 0 .11-.11v-.88c0-1.4-.49-2-2.23-2a3.13 3.13 0 0 0-2.18.66zm4.39 4.57v-1.31a.1.1 0 0 0-.11-.11h-2.05c-1.71 0-2.43.56-2.43 1.69s.76 1.66 2.12 1.66 2.48-.75 2.48-1.88zM278.46 244.38v1a.17.17 0 0 1-.18.18h-.61a.17.17 0 0 1-.18-.18v-11.84a.17.17 0 0 1 .18-.18h.61a.17.17 0 0 1 .18.18v4.7a2.65 2.65 0 0 1 2.61-1.4 2.77 2.77 0 0 1 2.92 2.05 9.75 9.75 0 0 1 0 4.84 2.77 2.77 0 0 1-2.92 2.05 2.65 2.65 0 0 1-2.61-1.4zm4.61-1a8.91 8.91 0 0 0 0-4.05 2.35 2.35 0 0 0-4.39 0 6.38 6.38 0 0 0-.23 2 6.26 6.26 0 0 0 .23 2 2.35 2.35 0 0 0 4.39 0zM287.12 234.73a.17.17 0 0 1-.18-.18v-1a.17.17 0 0 1 .18-.18h.79a.17.17 0 0 1 .18.18v1a.17.17 0 0 1-.18.18zm.09 10.88a.17.17 0 0 1-.18-.18v-8.23a.17.17 0 0 1 .18-.18h.61a.17.17 0 0 1 .18.18v8.23a.17.17 0 0 1-.18.18zM291 243.55a8.87 8.87 0 0 1 0-4.48 3.43 3.43 0 0 1 6.43 0 8.87 8.87 0 0 1 0 4.48 3.43 3.43 0 0 1-6.43 0zm5.49-.31a8.11 8.11 0 0 0 0-3.87 2.42 2.42 0 0 0-4.55 0 8.11 8.11 0 0 0 0 3.87 2.42 2.42 0 0 0 4.55 0zM304.94 233.54a.17.17 0 0 1 .18-.18h7a.17.17 0 0 1 .18.18v.61a.17.17 0 0 1-.18.18h-6a.1.1 0 0 0-.11.11v4.48a.1.1 0 0 0 .11.11h5.2a.17.17 0 0 1 .18.18v.61a.17.17 0 0 1-.18.18h-5.2a.1.1 0 0 0-.11.11v5.31a.17.17 0 0 1-.18.18h-.67a.17.17 0 0 1-.18-.18zM314 243.52a7.11 7.11 0 0 1-.25-2.21 7.33 7.33 0 0 1 .25-2.23 3.4 3.4 0 0 1 6.39 0 6.8 6.8 0 0 1 .25 2.29.18.18 0 0 1-.2.18h-5.6c-.07 0-.11.05-.11.13a4.66 4.66 0 0 0 .18 1.51 2.37 2.37 0 0 0 2.43 1.67 2.93 2.93 0 0 0 2.4-1.1.16.16 0 0 1 .25 0l.41.38a.16.16 0 0 1 0 .25 3.79 3.79 0 0 1-3.13 1.44 3.18 3.18 0 0 1-3.27-2.31zm5.55-2.81a.09.09 0 0 0 .11-.11 4 4 0 0 0-.16-1.24 2.44 2.44 0 0 0-4.59 0 4 4 0 0 0-.16 1.24.1.1 0 0 0 .11.11zM323.5 245.6a.17.17 0 0 1-.18-.18v-8.22a.17.17 0 0 1 .18-.18h.61a.17.17 0 0 1 .18.18v1.1a2.3 2.3 0 0 1 2.3-1.46 2.67 2.67 0 0 1 1.73.59.14.14 0 0 1 0 .23l-.36.5a.2.2 0 0 1-.27 0 2.47 2.47 0 0 0-1.37-.43c-1.51 0-2.09 1.31-2.09 2.9v4.75a.17.17 0 0 1-.18.18zM330.63 245.6a.17.17 0 0 1-.18-.18v-8.22a.17.17 0 0 1 .18-.18h.61a.17.17 0 0 1 .18.18v1.1a2.3 2.3 0 0 1 2.3-1.46 2.67 2.67 0 0 1 1.73.59.14.14 0 0 1 0 .23l-.36.5a.2.2 0 0 1-.27 0 2.47 2.47 0 0 0-1.37-.43c-1.51 0-2.09 1.31-2.09 2.9v4.75a.17.17 0 0 1-.18.18zM336.93 243.52a7.11 7.11 0 0 1-.25-2.21 7.33 7.33 0 0 1 .25-2.23 3.4 3.4 0 0 1 6.39 0 6.8 6.8 0 0 1 .25 2.29.18.18 0 0 1-.2.18h-5.6c-.07 0-.11.05-.11.13a4.66 4.66 0 0 0 .18 1.51 2.37 2.37 0 0 0 2.43 1.67 2.93 2.93 0 0 0 2.4-1.1.16.16 0 0 1 .25 0l.41.38a.16.16 0 0 1 0 .25 3.79 3.79 0 0 1-3.13 1.44 3.18 3.18 0 0 1-3.27-2.31zm5.55-2.81a.09.09 0 0 0 .11-.11 4 4 0 0 0-.16-1.24 2.44 2.44 0 0 0-4.59 0 4 4 0 0 0-.16 1.24.1.1 0 0 0 .11.11zM346.47 245.6a.17.17 0 0 1-.18-.18v-8.22a.17.17 0 0 1 .18-.18h.61a.17.17 0 0 1 .18.18v1.1a2.3 2.3 0 0 1 2.3-1.46 2.67 2.67 0 0 1 1.73.59.14.14 0 0 1 0 .23l-.36.5a.19.19 0 0 1-.27 0 2.47 2.47 0 0 0-1.37-.43c-1.51 0-2.09 1.31-2.09 2.9v4.75a.17.17 0 0 1-.18.18zM353.67 238.38a.18.18 0 0 1-.27 0l-.31-.45a.18.18 0 0 1 .05-.25 4.14 4.14 0 0 1 2.74-.83c2.23 0 3.13.74 3.13 2.84v5.74a.17.17 0 0 1-.18.18h-.58a.17.17 0 0 1-.18-.18v-.9a2.77 2.77 0 0 1-2.66 1.26c-1.73 0-2.88-.86-2.88-2.54s1.17-2.54 3.26-2.54H358a.1.1 0 0 0 .11-.11v-.88c0-1.4-.49-2-2.23-2a3.13 3.13 0 0 0-2.21.66zm4.39 4.57v-1.31a.1.1 0 0 0-.11-.11h-2.05c-1.71 0-2.43.56-2.43 1.69s.76 1.66 2.12 1.66 2.47-.75 2.47-1.88zM257.84 220.75a.09.09 0 0 1 0-.12l.5-.58a.07.07 0 0 1 .11 0 2.44 2.44 0 0 0 1.48.58c.65 0 1-.33 1-.78s-.24-.65-1-.75h-.29c-1-.14-1.64-.65-1.64-1.55a1.64 1.64 0 0 1 1.84-1.64 3 3 0 0 1 1.76.54.07.07 0 0 1 0 .11l-.38.59a.08.08 0 0 1-.11 0 2.3 2.3 0 0 0-1.3-.42c-.55 0-.86.3-.86.73s.26.63 1 .74h.29c1 .14 1.62.64 1.62 1.58s-.7 1.69-2 1.69a3.06 3.06 0 0 1-2.02-.72zM264.27 218.67a4.2 4.2 0 0 1 .14-1.47 1.83 1.83 0 0 1 1.89-1.34 1.91 1.91 0 0 1 1.84 1.17.07.07 0 0 1 0 .1l-.68.33a.07.07 0 0 1-.1 0 1.07 1.07 0 0 0-1-.7 1 1 0 0 0-1 .72 8.07 8.07 0 0 0 0 2.48 1 1 0 0 0 1 .72 1.07 1.07 0 0 0 1-.7.07.07 0 0 1 .1 0l.68.33a.07.07 0 0 1 0 .1 1.91 1.91 0 0 1-1.84 1.17 1.83 1.83 0 0 1-1.89-1.33 4.2 4.2 0 0 1-.14-1.58zM270.63 216a.08.08 0 0 1 .08-.08h.78a.07.07 0 0 1 .08.08v2.14h2.07V216a.08.08 0 0 1 .08-.08h.78a.07.07 0 0 1 .08.08v5.28a.08.08 0 0 1-.08.08h-.78a.08.08 0 0 1-.08-.08v-2.19h-2.07v2.19a.08.08 0 0 1-.08.08h-.78a.08.08 0 0 1-.08-.08zM277.48 216a.08.08 0 0 1 .08-.08H281a.07.07 0 0 1 .08.08v.69a.07.07 0 0 1-.08.08h-2.5v1.33h2.1a.08.08 0 0 1 .08.08v.82a.08.08 0 0 1-.08.08h-2.1v1.38h2.5a.08.08 0 0 1 .08.08v.69a.08.08 0 0 1-.08.08h-3.41a.08.08 0 0 1-.08-.08zM283.64 216a.08.08 0 0 1 .08-.08h1.94a1.72 1.72 0 0 1 1.81 1.21 8.48 8.48 0 0 1 0 3 1.72 1.72 0 0 1-1.81 1.21h-1.94a.08.08 0 0 1-.08-.08zm1 4.51h.81a1 1 0 0 0 1.13-.69 3.76 3.76 0 0 0 .1-1.18 3.71 3.71 0 0 0-.1-1.18 1 1 0 0 0-1.13-.69h-.81v3.65l-.01.12zM293.27 219.46V216a.08.08 0 0 1 .08-.08h.78a.08.08 0 0 1 .08.08v3.45a2 2 0 0 1-4 0V216a.08.08 0 0 1 .08-.08h.78a.08.08 0 0 1 .08.08v3.43a1.06 1.06 0 1 0 2.12 0zM297 216a.08.08 0 0 1 .08-.08h.78a.08.08 0 0 1 .08.08v4.46h2.5a.08.08 0 0 1 .08.08v.69a.08.08 0 0 1-.08.08h-3.41a.08.08 0 0 1-.08-.08zM302.95 216a.08.08 0 0 1 .08-.08h3.41a.07.07 0 0 1 .08.08v.69a.07.07 0 0 1-.08.08h-2.5v1.33H306a.08.08 0 0 1 .08.08v.82a.08.08 0 0 1-.08.08h-2.1v1.38h2.5a.08.08 0 0 1 .08.08v.69a.08.08 0 0 1-.08.08H303a.08.08 0 0 1-.08-.08zM309.11 216a.08.08 0 0 1 .08-.08h1.94a1.72 1.72 0 0 1 1.81 1.21 8.48 8.48 0 0 1 0 3 1.72 1.72 0 0 1-1.81 1.21h-1.94a.08.08 0 0 1-.08-.08zm1 4.51h.81a1 1 0 0 0 1.13-.69 3.76 3.76 0 0 0 .1-1.18 3.71 3.71 0 0 0-.1-1.18 1 1 0 0 0-1.13-.69h-.81v3.65l-.01.12z" fill="#fff"/><path d="M239.8 218.19l-6.89-.06v-3.41h4.41l2.45 3.43zm-4 4.32a1.78 1.78 0 1 0 1.26-.51 1.77 1.77 0 0 0-1.26.51zm6 2.15h1v-3.38h-1v-3.37l-3.57-5-7.22-.07-.01 11.72h2.51a3.64 3.64 0 0 0 7.09.07h1.23zM219.16 222.36a1.78 1.78 0 1 0 1.26-.51 1.78 1.78 0 0 0-1.26.51zm10.78 2.19l-6-.06a3.64 3.64 0 0 1-7.09-.06h-2.09v-2.93h.94l.09-9.8 14.24.13z" fill="#fff" fill-rule="evenodd"/><g fill="#fff" fill-opacity=".9"><path d="M228.42 275.89a11.38 11.38 0 1 0 11.38 11.38 11.42 11.42 0 0 0-11.38-11.38zm0 20.49a9.11 9.11 0 1 1 9.11-9.11 9.13 9.13 0 0 1-9.11 9.11z"/><path d="M228.99 281.58h-1.71v6.83l5.92 3.65.91-1.48-5.12-3.08v-5.92"/></g><path d="M259.51 284.33l-.83.58h-.09v-.82a.13.13 0 0 1 .06-.11l.87-.63a.21.21 0 0 1 .14 0h.68a.08.08 0 0 1 .08.08v5.28a.08.08 0 0 1-.08.08h-.74a.08.08 0 0 1-.08-.08zM264.23 287.57l.68-.17a.08.08 0 0 1 .1.06.74.74 0 0 0 .75.52.67.67 0 0 0 .67-.45 1.65 1.65 0 0 0 .07-.6 1.75 1.75 0 0 0-.07-.6.65.65 0 0 0-.68-.45.7.7 0 0 0-.66.38c0 .06 0 .08-.1.08h-.67a.08.08 0 0 1-.08-.08v-2.93a.08.08 0 0 1 .08-.08h2.89a.08.08 0 0 1 .08.08v.67a.08.08 0 0 1-.08.08h-2.1v1.22a1.31 1.31 0 0 1 .8-.24 1.36 1.36 0 0 1 1.4.92 2.94 2.94 0 0 1 .12.93 2.76 2.76 0 0 1-.11.86 1.53 1.53 0 0 1-1.54 1 1.48 1.48 0 0 1-1.59-1.12.09.09 0 0 1 .04-.08zM270 286a5.93 5.93 0 0 1 .11-1.74 1.47 1.47 0 0 1 1.54-1.06 1.49 1.49 0 0 1 1.55 1.06 13.58 13.58 0 0 1 0 3.49 1.49 1.49 0 0 1-1.55 1.06 1.47 1.47 0 0 1-1.54-1.06A5.92 5.92 0 0 1 270 286zm1.66 2a.65.65 0 0 0 .67-.43 17.2 17.2 0 0 0 0-3.15.65.65 0 0 0-.67-.43.64.64 0 0 0-.66.43 17.2 17.2 0 0 0 0 3.15.64.64 0 0 0 .7.43zM279.59 283.34a.08.08 0 0 1 .08-.08h.71a.13.13 0 0 1 .14.08l1.5 3.35 1.47-3.35a.13.13 0 0 1 .14-.08h.7a.08.08 0 0 1 .08.08v5.28a.08.08 0 0 1-.08.08h-.7a.08.08 0 0 1-.08-.08v-3.33l-1.15 2.56a.15.15 0 0 1-.15.1h-.46a.15.15 0 0 1-.15-.1l-1.15-2.56v3.33a.08.08 0 0 1-.08.08h-.7a.08.08 0 0 1-.08-.08zM287.24 283.34a.08.08 0 0 1 .08-.08h.78a.08.08 0 0 1 .08.08v5.28a.08.08 0 0 1-.08.08h-.78a.08.08 0 0 1-.08-.08zM291 283.34a.08.08 0 0 1 .08-.08h.74a.14.14 0 0 1 .14.08l2.21 3.75v-3.75a.08.08 0 0 1 .08-.08h.7a.08.08 0 0 1 .08.08v5.28a.08.08 0 0 1-.08.08h-.73a.14.14 0 0 1-.14-.08l-2.22-3.74v3.74a.08.08 0 0 1-.08.08h-.7a.08.08 0 0 1-.08-.08zM300.87 286.77v-3.43a.08.08 0 0 1 .08-.08h.78a.07.07 0 0 1 .08.08v3.45a2 2 0 0 1-4 0v-3.45a.07.07 0 0 1 .08-.08h.78a.08.08 0 0 1 .08.08v3.43a1.06 1.06 0 1 0 2.12 0zM305.79 288.7a.08.08 0 0 1-.08-.08v-4.46h-1.42a.08.08 0 0 1-.08-.08v-.69a.08.08 0 0 1 .08-.08h3.89a.08.08 0 0 1 .08.08v.61a.08.08 0 0 1-.08.08h-1.48v4.46a.08.08 0 0 1-.08.08zM310.59 283.34a.08.08 0 0 1 .08-.08h3.41a.07.07 0 0 1 .08.08v.66a.07.07 0 0 1-.08.08h-2.5v1.33h2.1a.08.08 0 0 1 .08.08v.69a.08.08 0 0 1-.08.08h-2.1v1.38h2.5a.08.08 0 0 1 .08.08v.69a.08.08 0 0 1-.08.08h-3.41a.08.08 0 0 1-.08-.08zM316.46 288.06a.09.09 0 0 1 0-.12l.5-.58a.07.07 0 0 1 .11 0 2.44 2.44 0 0 0 1.48.58c.65 0 1-.33 1-.78s-.24-.65-1-.75h-.29c-1-.14-1.64-.65-1.64-1.55a1.64 1.64 0 0 1 1.84-1.64 3 3 0 0 1 1.76.54.07.07 0 0 1 0 .11l-.38.59a.08.08 0 0 1-.11 0 2.3 2.3 0 0 0-1.3-.42c-.55 0-.86.3-.86.73s.26.63 1 .74h.29c1 .14 1.62.64 1.62 1.58s-.7 1.69-2 1.69a3.06 3.06 0 0 1-2.02-.72zM262.16 303.16l-2.21 1.57c-.09.07-.2 0-.2-.11v-.76a.3.3 0 0 1 .13-.27l2.22-1.59a.4.4 0 0 1 .27-.11h.58a.17.17 0 0 1 .18.18v11.88a.17.17 0 0 1-.18.18h-.61a.17.17 0 0 1-.18-.18zM268.78 313.44a.33.33 0 0 1 .07-.23l4.52-5.92a4 4 0 0 0 1-2.4 2.22 2.22 0 0 0-2.37-2.29 2.25 2.25 0 0 0-2.34 2.11.17.17 0 0 1-.22.14l-.56-.14a.16.16 0 0 1-.14-.2 3.17 3.17 0 0 1 3.28-2.84 3.11 3.11 0 0 1 3.29 3.22 4.83 4.83 0 0 1-1.24 3l-4 5.26h5.1a.17.17 0 0 1 .18.18v.58a.17.17 0 0 1-.18.18H269a.17.17 0 0 1-.18-.18zM278.39 312.7a.17.17 0 0 1 .18-.18h.88a.17.17 0 0 1 .18.18v1.21a.17.17 0 0 1-.18.18h-.88a.17.17 0 0 1-.18-.18zM282.66 313.44a.33.33 0 0 1 .07-.23l4.52-5.92a4 4 0 0 0 1-2.4 2.22 2.22 0 0 0-2.34-2.29 2.25 2.25 0 0 0-2.34 2.11.17.17 0 0 1-.22.14l-.56-.14a.16.16 0 0 1-.14-.2 3.17 3.17 0 0 1 3.28-2.84 3.11 3.11 0 0 1 3.29 3.22 4.83 4.83 0 0 1-1.24 3l-4 5.26h5.1a.17.17 0 0 1 .18.18v.58a.17.17 0 0 1-.18.18h-6.21a.17.17 0 0 1-.18-.18zM292.29 308a14.64 14.64 0 0 1 .27-4.1 3.36 3.36 0 0 1 6.3 0c.14.43.27 1.17.27 4.1s-.13 3.67-.27 4.11a3.36 3.36 0 0 1-6.3 0 14.65 14.65 0 0 1-.27-4.11zm3.42 5.38a2.1 2.1 0 0 0 2.2-1.49 30.14 30.14 0 0 0 0-7.78 2.36 2.36 0 0 0-4.39 0 30.14 30.14 0 0 0 0 7.78 2.1 2.1 0 0 0 2.19 1.46zM302 312.7a.17.17 0 0 1 .18-.18h.88a.17.17 0 0 1 .18.18v1.21a.17.17 0 0 1-.18.18h-.88a.17.17 0 0 1-.18-.18zM306.29 313.44a.33.33 0 0 1 .07-.23l4.52-5.92a4 4 0 0 0 1-2.4 2.22 2.22 0 0 0-2.34-2.29 2.25 2.25 0 0 0-2.34 2.11.17.17 0 0 1-.22.14l-.56-.14a.16.16 0 0 1-.14-.2 3.17 3.17 0 0 1 3.28-2.84 3.11 3.11 0 0 1 3.29 3.22 4.83 4.83 0 0 1-1.24 3l-4 5.26h5.1a.17.17 0 0 1 .18.18v.58a.17.17 0 0 1-.18.18h-6.21a.17.17 0 0 1-.18-.18zM315.92 308a14.64 14.64 0 0 1 .27-4.1 3.36 3.36 0 0 1 6.3 0c.14.43.27 1.17.27 4.1s-.13 3.67-.27 4.11a3.36 3.36 0 0 1-6.3 0 14.65 14.65 0 0 1-.27-4.11zm3.42 5.38a2.1 2.1 0 0 0 2.2-1.49 30.14 30.14 0 0 0 0-7.78 2.36 2.36 0 0 0-4.39 0 30.14 30.14 0 0 0 0 7.78 2.1 2.1 0 0 0 2.19 1.46zM328.94 303.16l-2.21 1.57c-.09.07-.2 0-.2-.11v-.76a.3.3 0 0 1 .13-.27l2.27-1.64a.4.4 0 0 1 .27-.11h.58a.17.17 0 0 1 .18.18v11.88a.17.17 0 0 1-.18.18h-.61a.17.17 0 0 1-.18-.18zM335.09 311.46v-.54a.74.74 0 0 1 0-.2l4-8.73a.22.22 0 0 1 .23-.14h.68c.13 0 .16.07.13.16l-3.94 8.68H340a.1.1 0 0 0 .11-.11v-3.35a.17.17 0 0 1 .18-.18h.61a.17.17 0 0 1 .18.18v3.35a.1.1 0 0 0 .11.11h1.35a.17.17 0 0 1 .18.18v.58a.17.17 0 0 1-.18.18h-1.35a.1.1 0 0 0-.11.11v2.16a.17.17 0 0 1-.18.18h-.61a.17.17 0 0 1-.18-.18v-2.16a.1.1 0 0 0-.11-.11h-4.7a.17.17 0 0 1-.21-.17zM353.06 303.16l-2.21 1.57c-.09.07-.2 0-.2-.11v-.76a.3.3 0 0 1 .13-.27L353 302a.4.4 0 0 1 .27-.11h.58a.17.17 0 0 1 .18.18v11.88a.17.17 0 0 1-.18.18h-.61a.17.17 0 0 1-.18-.18zM359.55 308a14.64 14.64 0 0 1 .27-4.1 3.36 3.36 0 0 1 6.3 0c.14.43.27 1.17.27 4.1s-.13 3.67-.27 4.11a3.36 3.36 0 0 1-6.3 0 14.65 14.65 0 0 1-.27-4.11zm3.42 5.38a2.1 2.1 0 0 0 2.2-1.49 30.14 30.14 0 0 0 0-7.78 2.36 2.36 0 0 0-4.39 0 30.14 30.14 0 0 0 0 7.78 2.1 2.1 0 0 0 2.22 1.46zM369.36 306.9v-1.22a.17.17 0 0 1 .18-.18h.88a.17.17 0 0 1 .18.18v1.22a.17.17 0 0 1-.18.18h-.88a.17.17 0 0 1-.18-.18zm0 5.8a.17.17 0 0 1 .18-.18h.88a.17.17 0 0 1 .18.18v1.21a.17.17 0 0 1-.18.18h-.88a.17.17 0 0 1-.18-.18zM373.57 308a14.64 14.64 0 0 1 .27-4.1 3.36 3.36 0 0 1 6.3 0c.14.43.27 1.17.27 4.1s-.13 3.67-.27 4.11a3.36 3.36 0 0 1-6.3 0 14.65 14.65 0 0 1-.27-4.11zm3.42 5.38a2.1 2.1 0 0 0 2.2-1.49 30.14 30.14 0 0 0 0-7.78 2.36 2.36 0 0 0-4.39 0 30.14 30.14 0 0 0 0 7.78 2.1 2.1 0 0 0 2.2 1.46zM383.33 308c0-2.93.13-3.67.27-4.1a3.36 3.36 0 0 1 6.3 0 31.39 31.39 0 0 1 0 8.21 3.36 3.36 0 0 1-6.3 0c-.14-.47-.27-1.21-.27-4.11zm3.42 5.38a2.1 2.1 0 0 0 2.2-1.49 30 30 0 0 0 0-7.78 2.36 2.36 0 0 0-4.39 0 30.14 30.14 0 0 0 0 7.78 2.1 2.1 0 0 0 2.19 1.46zM401.17 302a.23.23 0 0 1 .22-.18h.61c.13 0 .18.07.22.18l4.25 11.88a.12.12 0 0 1-.13.18h-.7a.2.2 0 0 1-.23-.18l-1.08-3H399l-1.08 3c-.05.14-.13.18-.23.18H397a.12.12 0 0 1-.13-.18zm2.84 7.89l-2.29-6.41h-.05l-2.3 6.41zM408.93 302a.17.17 0 0 1 .18-.18h.68a.27.27 0 0 1 .27.18l4 8.77h.07L418 302a.26.26 0 0 1 .25-.18h.7a.17.17 0 0 1 .18.18v11.88a.17.17 0 0 1-.18.18h-.67a.17.17 0 0 1-.18-.18v-9.58h-.05l-3.53 7.76a.3.3 0 0 1-.32.2h-.36a.29.29 0 0 1-.31-.2l-3.53-7.73v9.58a.17.17 0 0 1-.18.18h-.67a.17.17 0 0 1-.18-.18zM262.16 329.56l-2.21 1.57c-.09.07-.2 0-.2-.11v-.76a.3.3 0 0 1 .13-.27l2.27-1.64a.4.4 0 0 1 .27-.11h.58a.17.17 0 0 1 .18.18v11.88a.17.17 0 0 1-.18.18h-.61a.17.17 0 0 1-.18-.18zM268.78 339.84a.33.33 0 0 1 .07-.23l4.52-5.92a4 4 0 0 0 1-2.4A2.22 2.22 0 0 0 272 329a2.25 2.25 0 0 0-2.34 2.11.17.17 0 0 1-.22.14l-.56-.14a.16.16 0 0 1-.14-.2 3.17 3.17 0 0 1 3.28-2.84 3.11 3.11 0 0 1 3.29 3.22 4.83 4.83 0 0 1-1.24 3l-4 5.26h5.1a.17.17 0 0 1 .18.18v.58a.17.17 0 0 1-.18.18H269a.17.17 0 0 1-.18-.18zM278.39 339.1a.17.17 0 0 1 .18-.18h.88a.17.17 0 0 1 .18.18v1.21a.17.17 0 0 1-.18.18h-.88a.17.17 0 0 1-.18-.18zM282.66 339.84a.33.33 0 0 1 .07-.23l4.52-5.92a4 4 0 0 0 1-2.4 2.22 2.22 0 0 0-2.34-2.29 2.25 2.25 0 0 0-2.34 2.11.17.17 0 0 1-.22.14l-.56-.14a.16.16 0 0 1-.14-.2 3.17 3.17 0 0 1 3.28-2.84 3.11 3.11 0 0 1 3.29 3.22 4.83 4.83 0 0 1-1.24 3l-4 5.26h5.1a.17.17 0 0 1 .18.18v.58a.17.17 0 0 1-.18.18h-6.21a.17.17 0 0 1-.18-.18zM292.29 334.37a14.65 14.65 0 0 1 .27-4.11 3.36 3.36 0 0 1 6.3 0c.14.43.27 1.17.27 4.11s-.13 3.67-.27 4.11a3.36 3.36 0 0 1-6.3 0 14.64 14.64 0 0 1-.27-4.11zm3.42 5.38a2.1 2.1 0 0 0 2.2-1.49 30.14 30.14 0 0 0 0-7.78 2.36 2.36 0 0 0-4.39 0 30.14 30.14 0 0 0 0 7.78 2.1 2.1 0 0 0 2.19 1.49zM302 339.1a.17.17 0 0 1 .18-.18h.88a.17.17 0 0 1 .18.18v1.21a.17.17 0 0 1-.18.18h-.88a.17.17 0 0 1-.18-.18zM306.29 339.84a.33.33 0 0 1 .07-.23l4.52-5.92a4 4 0 0 0 1-2.4 2.22 2.22 0 0 0-2.34-2.29 2.25 2.25 0 0 0-2.34 2.11.17.17 0 0 1-.22.14l-.56-.14a.16.16 0 0 1-.14-.2 3.17 3.17 0 0 1 3.28-2.84 3.11 3.11 0 0 1 3.29 3.22 4.83 4.83 0 0 1-1.24 3l-4 5.26h5.1a.17.17 0 0 1 .18.18v.58a.17.17 0 0 1-.18.18h-6.21a.17.17 0 0 1-.18-.18zM315.92 334.37a14.65 14.65 0 0 1 .27-4.11 3.36 3.36 0 0 1 6.3 0c.14.43.27 1.17.27 4.11s-.13 3.67-.27 4.11a3.36 3.36 0 0 1-6.3 0 14.64 14.64 0 0 1-.27-4.11zm3.42 5.38a2.1 2.1 0 0 0 2.2-1.49 30.14 30.14 0 0 0 0-7.78 2.36 2.36 0 0 0-4.39 0 30.14 30.14 0 0 0 0 7.78 2.1 2.1 0 0 0 2.19 1.49zM328.94 329.56l-2.21 1.57c-.09.07-.2 0-.2-.11v-.76a.3.3 0 0 1 .13-.27l2.27-1.64a.4.4 0 0 1 .27-.11h.58a.17.17 0 0 1 .18.18v11.88a.17.17 0 0 1-.18.18h-.61a.17.17 0 0 1-.18-.18zM335.09 337.86v-.54a.74.74 0 0 1 0-.2l4-8.73a.22.22 0 0 1 .23-.14h.68c.13 0 .16.07.13.16l-3.94 8.68H340a.1.1 0 0 0 .11-.11v-3.35a.17.17 0 0 1 .18-.18h.61a.17.17 0 0 1 .18.18V337a.1.1 0 0 0 .11.11h1.35a.17.17 0 0 1 .18.18v.58a.17.17 0 0 1-.18.18h-1.35a.1.1 0 0 0-.11.11v2.16a.17.17 0 0 1-.18.18h-.61a.17.17 0 0 1-.18-.18v-2.16a.1.1 0 0 0-.11-.16h-4.7a.17.17 0 0 1-.21-.14zM353.06 329.56l-2.21 1.57c-.09.07-.2 0-.2-.11v-.76a.3.3 0 0 1 .13-.27l2.27-1.64a.4.4 0 0 1 .27-.11h.58a.17.17 0 0 1 .18.18v11.88a.17.17 0 0 1-.18.18h-.61a.17.17 0 0 1-.18-.18zM359.68 339.84a.33.33 0 0 1 .07-.23l4.52-5.92a4 4 0 0 0 1-2.4 2.22 2.22 0 0 0-2.34-2.29 2.25 2.25 0 0 0-2.34 2.11.17.17 0 0 1-.22.14l-.56-.14a.16.16 0 0 1-.14-.2 3.17 3.17 0 0 1 3.28-2.84 3.11 3.11 0 0 1 3.29 3.22 4.83 4.83 0 0 1-1.24 3l-4 5.26h5.1a.17.17 0 0 1 .18.18v.58a.17.17 0 0 1-.18.18h-6.21a.17.17 0 0 1-.18-.18zM369.36 333.31v-1.22a.17.17 0 0 1 .18-.18h.88a.17.17 0 0 1 .18.18v1.22a.17.17 0 0 1-.18.18h-.88a.17.17 0 0 1-.18-.18zm0 5.8a.17.17 0 0 1 .18-.18h.88a.17.17 0 0 1 .18.18v1.21a.17.17 0 0 1-.18.18h-.88a.17.17 0 0 1-.18-.18zM373.65 337.92l.58-.14a.17.17 0 0 1 .23.13 2.43 2.43 0 0 0 2.52 1.84 2.39 2.39 0 0 0 2.5-2.54 2.48 2.48 0 0 0-2.58-2.61h-.56a.17.17 0 0 1-.18-.18v-.58a.17.17 0 0 1 .18-.18h.54a2.23 2.23 0 0 0 2.32-2.36 2.15 2.15 0 0 0-2.3-2.29 2.19 2.19 0 0 0-2.3 1.76.16.16 0 0 1-.2.14l-.59-.16a.17.17 0 0 1-.14-.22 3.1 3.1 0 0 1 3.26-2.47 3.18 3.18 0 0 1 1.64 6 3.26 3.26 0 0 1 1.89 3.1 3.34 3.34 0 0 1-3.48 3.51 3.3 3.3 0 0 1-3.46-2.52.17.17 0 0 1 .13-.23zM383.33 334.37c0-2.93.13-3.67.27-4.11a3.36 3.36 0 0 1 6.3 0 31.4 31.4 0 0 1 0 8.21 3.36 3.36 0 0 1-6.3 0c-.14-.47-.27-1.17-.27-4.1zm3.42 5.38a2.1 2.1 0 0 0 2.2-1.49 30 30 0 0 0 0-7.78 2.36 2.36 0 0 0-4.39 0 30.14 30.14 0 0 0 0 7.78 2.1 2.1 0 0 0 2.19 1.49zM398.2 340.49a.17.17 0 0 1-.18-.18v-11.88a.17.17 0 0 1 .18-.18h4.09c2.34 0 3.76 1.33 3.76 3.47s-1.42 3.46-3.76 3.46h-3.13a.1.1 0 0 0-.11.11v5a.17.17 0 0 1-.18.18zm6.82-8.77c0-1.57-1-2.5-2.77-2.5h-3.1a.1.1 0 0 0-.11.11v4.77a.1.1 0 0 0 .11.11h3.1c1.8 0 2.75-.92 2.75-2.49zM408.73 328.43a.17.17 0 0 1 .18-.18h.68a.27.27 0 0 1 .27.18l4 8.77h.07l3.89-8.77a.26.26 0 0 1 .25-.18h.7a.17.17 0 0 1 .18.18v11.88a.17.17 0 0 1-.18.18h-.67a.17.17 0 0 1-.18-.18v-9.58h-.05l-3.53 7.76a.3.3 0 0 1-.32.2h-.36a.29.29 0 0 1-.31-.2l-3.53-7.76h-.05v9.58a.17.17 0 0 1-.18.18h-.67a.17.17 0 0 1-.18-.18zM262.16 389.23l-2.21 1.57c-.09.07-.2 0-.2-.11v-.76a.3.3 0 0 1 .13-.27l2.22-1.66a.4.4 0 0 1 .27-.11h.58a.17.17 0 0 1 .18.18V400a.17.17 0 0 1-.18.18h-.61a.17.17 0 0 1-.18-.18zM268.78 399.51a.33.33 0 0 1 .07-.23l4.52-5.92a4 4 0 0 0 1-2.4 2.22 2.22 0 0 0-2.34-2.29 2.25 2.25 0 0 0-2.34 2.11.17.17 0 0 1-.22.14l-.56-.14a.16.16 0 0 1-.14-.2 3.17 3.17 0 0 1 3.28-2.84 3.11 3.11 0 0 1 3.29 3.22 4.83 4.83 0 0 1-1.24 3l-4 5.26h5.1a.17.17 0 0 1 .18.18v.6a.17.17 0 0 1-.18.18H269a.17.17 0 0 1-.18-.18zM278.39 398.77a.17.17 0 0 1 .18-.18h.88a.17.17 0 0 1 .18.18V400a.17.17 0 0 1-.18.18h-.88a.17.17 0 0 1-.18-.18zM285.79 389.23l-2.21 1.57c-.09.07-.2 0-.2-.11v-.76a.3.3 0 0 1 .13-.27l2.27-1.64a.4.4 0 0 1 .27-.11h.58a.17.17 0 0 1 .18.18V400a.17.17 0 0 1-.18.18H286a.17.17 0 0 1-.18-.18zM292.36 397.58l.58-.14a.17.17 0 0 1 .23.13 2.43 2.43 0 0 0 2.52 1.84 2.39 2.39 0 0 0 2.5-2.54 2.48 2.48 0 0 0-2.58-2.61h-.56a.17.17 0 0 1-.18-.18v-.58a.17.17 0 0 1 .18-.18h.54a2.23 2.23 0 0 0 2.32-2.36 2.15 2.15 0 0 0-2.3-2.29 2.19 2.19 0 0 0-2.3 1.76.16.16 0 0 1-.2.14l-.59-.16a.17.17 0 0 1-.14-.22 3.1 3.1 0 0 1 3.26-2.47 3.18 3.18 0 0 1 1.64 6 3.26 3.26 0 0 1 1.89 3.1 3.34 3.34 0 0 1-3.48 3.51 3.3 3.3 0 0 1-3.46-2.52.17.17 0 0 1 .13-.23zM302 398.77a.17.17 0 0 1 .18-.18h.88a.17.17 0 0 1 .18.18V400a.17.17 0 0 1-.18.18h-.88a.17.17 0 0 1-.18-.18zM306.29 399.51a.33.33 0 0 1 .07-.23l4.52-5.92a4 4 0 0 0 1-2.4 2.22 2.22 0 0 0-2.34-2.29 2.25 2.25 0 0 0-2.34 2.11.17.17 0 0 1-.22.14l-.56-.14a.16.16 0 0 1-.14-.2 3.17 3.17 0 0 1 3.28-2.84 3.11 3.11 0 0 1 3.29 3.22 4.83 4.83 0 0 1-1.24 3l-4 5.26h5.1a.17.17 0 0 1 .18.18v.6a.17.17 0 0 1-.18.18h-6.21a.17.17 0 0 1-.18-.18zM315.92 394a14.64 14.64 0 0 1 .27-4.1 3.36 3.36 0 0 1 6.3 0c.14.43.27 1.17.27 4.1s-.13 3.67-.27 4.11a3.36 3.36 0 0 1-6.3 0 14.65 14.65 0 0 1-.27-4.11zm3.42 5.38a2.1 2.1 0 0 0 2.2-1.49 30.14 30.14 0 0 0 0-7.78 2.36 2.36 0 0 0-4.39 0 30.14 30.14 0 0 0 0 7.78 2.1 2.1 0 0 0 2.19 1.53zM328.94 389.23l-2.21 1.57c-.09.07-.2 0-.2-.11v-.76a.3.3 0 0 1 .13-.27l2.27-1.64a.4.4 0 0 1 .27-.11h.58a.17.17 0 0 1 .18.18V400a.17.17 0 0 1-.18.18h-.61a.17.17 0 0 1-.18-.18zM335.09 397.53V397a.74.74 0 0 1 0-.2l4-8.73a.22.22 0 0 1 .23-.14h.68c.13 0 .16.07.13.16l-3.94 8.68H340a.1.1 0 0 0 .11-.11v-3.35a.17.17 0 0 1 .18-.18h.61a.17.17 0 0 1 .18.18v3.35a.1.1 0 0 0 .11.11h1.35a.17.17 0 0 1 .18.18v.58a.17.17 0 0 1-.18.18h-1.35a.1.1 0 0 0-.11.11V400a.17.17 0 0 1-.18.18h-.61a.17.17 0 0 1-.18-.18v-2.16a.1.1 0 0 0-.11-.11h-4.7a.17.17 0 0 1-.21-.2zM353.06 389.23l-2.21 1.57c-.09.07-.2 0-.2-.11v-.76a.3.3 0 0 1 .13-.27L353 388a.4.4 0 0 1 .27-.11h.58a.17.17 0 0 1 .18.18V400a.17.17 0 0 1-.18.18h-.61a.17.17 0 0 1-.18-.18zM359.55 394a14.64 14.64 0 0 1 .27-4.1 3.36 3.36 0 0 1 6.3 0c.14.43.27 1.17.27 4.1s-.13 3.67-.27 4.11a3.36 3.36 0 0 1-6.3 0 14.65 14.65 0 0 1-.27-4.11zm3.42 5.38a2.1 2.1 0 0 0 2.2-1.49 30.14 30.14 0 0 0 0-7.78 2.36 2.36 0 0 0-4.39 0 30.14 30.14 0 0 0 0 7.78 2.1 2.1 0 0 0 2.22 1.53zM369.36 393v-1.22a.17.17 0 0 1 .18-.18h.88a.17.17 0 0 1 .18.18V393a.17.17 0 0 1-.18.18h-.88a.17.17 0 0 1-.18-.18zm0 5.8a.17.17 0 0 1 .18-.18h.88a.17.17 0 0 1 .18.18v1.2a.17.17 0 0 1-.18.18h-.88a.17.17 0 0 1-.18-.18zM373.57 394a14.64 14.64 0 0 1 .27-4.1 3.36 3.36 0 0 1 6.3 0c.14.43.27 1.17.27 4.1s-.13 3.67-.27 4.11a3.36 3.36 0 0 1-6.3 0 14.65 14.65 0 0 1-.27-4.11zm3.42 5.38a2.1 2.1 0 0 0 2.2-1.49 30.14 30.14 0 0 0 0-7.78 2.36 2.36 0 0 0-4.39 0 30.14 30.14 0 0 0 0 7.78 2.1 2.1 0 0 0 2.2 1.53zM383 397.53V397a.74.74 0 0 1 0-.2l4-8.73a.22.22 0 0 1 .23-.14h.67c.13 0 .16.07.13.16l-3.94 8.68h3.78a.1.1 0 0 0 .11-.11v-3.35a.17.17 0 0 1 .18-.18h.61a.17.17 0 0 1 .18.18v3.35a.1.1 0 0 0 .11.11h1.35a.17.17 0 0 1 .18.18v.58a.17.17 0 0 1-.18.18h-1.35a.1.1 0 0 0-.11.11V400a.17.17 0 0 1-.18.18h-.61a.17.17 0 0 1-.16-.18v-2.16a.1.1 0 0 0-.11-.11h-4.7a.17.17 0 0 1-.19-.2zM401.17 388.09a.23.23 0 0 1 .22-.18h.61c.13 0 .18.07.22.18L406.5 400a.12.12 0 0 1-.13.18h-.7a.2.2 0 0 1-.23-.18l-1.08-3H399l-1.08 3c-.05.14-.13.18-.23.18H397a.12.12 0 0 1-.13-.18zM404 396l-2.29-6.41h-.05l-2.3 6.41zM408.93 388.09a.17.17 0 0 1 .18-.18h.68a.27.27 0 0 1 .27.18l4 8.77h.07l3.89-8.77a.26.26 0 0 1 .25-.18h.7a.17.17 0 0 1 .18.18V400a.17.17 0 0 1-.18.18h-.67a.17.17 0 0 1-.18-.18v-9.6h-.05l-3.53 7.76a.3.3 0 0 1-.32.2h-.36a.29.29 0 0 1-.31-.2L410 390.4v9.6a.17.17 0 0 1-.18.18h-.67a.17.17 0 0 1-.18-.18zM259.54 371.11a.1.1 0 0 1 .1-.08h.74a.1.1 0 0 1 .1.08l1.84 5.28s0 .08-.06.08h-.78a.1.1 0 0 1-.1-.08l-.36-1.06h-2l-.36 1.06a.1.1 0 0 1-.1.08h-.78c-.06 0-.07 0-.06-.08zm1.19 3.38l-.72-2.11-.73 2.11zM267.75 376.46a.11.11 0 0 1-.12-.08l-1-2.12h-.93v2.07a.08.08 0 0 1-.08.08h-.78a.08.08 0 0 1-.08-.08v-5.28a.08.08 0 0 1 .08-.08h2.1a1.62 1.62 0 0 1 1.74 1.62 1.55 1.55 0 0 1-1 1.5l1.14 2.21a.06.06 0 0 1-.06.1zm-.1-3.81a.76.76 0 0 0-.83-.78h-1.16v1.45h1.16a.76.76 0 0 0 .83-.67zM274.3 376.46a.11.11 0 0 1-.12-.08l-1-2.12h-.93v2.07a.08.08 0 0 1-.08.08h-.78a.08.08 0 0 1-.08-.08v-5.28a.08.08 0 0 1 .08-.08h2.1a1.62 1.62 0 0 1 1.74 1.62 1.55 1.55 0 0 1-1 1.5l1.14 2.21a.06.06 0 0 1-.06.1zm-.1-3.81a.76.76 0 0 0-.83-.78h-1.16v1.45h1.16a.76.76 0 0 0 .83-.67zM277.77 371.11a.08.08 0 0 1 .08-.08h.78a.07.07 0 0 1 .08.08v5.28a.08.08 0 0 1-.08.08h-.78a.08.08 0 0 1-.08-.08zM282.84 376.46a.1.1 0 0 1-.1-.08l-1.74-5.27s0-.08.06-.08h.78a.1.1 0 0 1 .1.08l1.21 3.85 1.17-3.85a.1.1 0 0 1 .1-.08h.78s.08 0 .06.08l-1.73 5.28a.1.1 0 0 1-.1.08zM288.61 371.11a.1.1 0 0 1 .1-.08h.74a.1.1 0 0 1 .1.08l1.84 5.28s0 .08-.06.08h-.78a.1.1 0 0 1-.1-.08l-.36-1.06h-2l-.36 1.06a.1.1 0 0 1-.1.08h-.78c-.06 0-.07 0-.06-.08zm1.19 3.38l-.72-2.11-.73 2.11zM293.74 371.11a.08.08 0 0 1 .08-.08h.78a.07.07 0 0 1 .08.08v4.46h2.49a.08.08 0 0 1 .08.08v.69a.08.08 0 0 1-.08.08h-3.41a.08.08 0 0 1-.08-.08zM304.31 376.46a.08.08 0 0 1-.08-.08v-4.46h-1.42a.08.08 0 0 1-.08-.08v-.69a.08.08 0 0 1 .08-.08h3.89a.08.08 0 0 1 .08.08v.69a.08.08 0 0 1-.08.08h-1.42v4.46a.08.08 0 0 1-.08.08zM309.1 371.11a.08.08 0 0 1 .08-.08h.82a.08.08 0 0 1 .08.08v5.28a.08.08 0 0 1-.08.08h-.78a.08.08 0 0 1-.08-.08zM312.84 371.11a.08.08 0 0 1 .08-.08h.71a.13.13 0 0 1 .14.08l1.5 3.35 1.47-3.35a.13.13 0 0 1 .14-.08h.7a.07.07 0 0 1 .08.08v5.28a.08.08 0 0 1-.08.08h-.7a.08.08 0 0 1-.08-.08v-3.33l-1.15 2.56a.15.15 0 0 1-.15.1h-.5a.15.15 0 0 1-.15-.1l-1.15-2.56v3.33a.08.08 0 0 1-.08.08h-.7a.08.08 0 0 1-.08-.08zM320.49 371.11a.08.08 0 0 1 .08-.08H324a.08.08 0 0 1 .08.08v.69a.08.08 0 0 1-.08.08h-2.49v1.33h2.1a.08.08 0 0 1 .08.08v.69a.08.08 0 0 1-.08.08h-2.1v1.38H324a.08.08 0 0 1 .08.08v.69a.08.08 0 0 1-.08.08h-3.41a.08.08 0 0 1-.08-.08z" fill="#fff"/><path d="M227.89 361.7a12 12 0 1 0 12 12 12.06 12.06 0 0 0-12-12z" fill="#fff" fill-opacity=".9" data-name="schedule"/><path d="M224.53 374h-2.12v2h2.37v.59h-3.08v-5.46h2.95v.59h-2.24v1.73h2.12zM227.26 371.71h-1.66v-.6h4v.6H228v4.86h-.71zM230.94 374.86l-.57 1.72h-.73l1.86-5.46h.85l1.86 5.46h-.75l-.58-1.72zm1.79-.55l-.53-1.57c-.12-.36-.2-.68-.28-1-.08.32-.17.66-.28 1l-.53 1.58z" fill="#3498db"/><path fill="#fff" d="M471.99 158.23l4.16 4.16 1.37-1.37-4.16-4.16 4.16-4.16-1.37-1.37-4.16 4.16-4.16-4.16-1.37 1.37 4.16 4.16-4.16 4.16 1.37 1.37 4.16-4.16M218.31 162.57a.21.21 0 0 1 0-.31l.53-.66a.2.2 0 0 1 .31 0 7.24 7.24 0 0 0 4.29 1.54c2.4 0 3.87-1.21 3.87-3.06 0-1.47-.84-2.55-3.59-2.9l-.68-.09c-2.93-.37-4.31-1.78-4.31-4 0-2.6 1.85-4.2 4.71-4.2a7.54 7.54 0 0 1 4.27 1.25.2.2 0 0 1 0 .31l-.44.68a.21.21 0 0 1-.31 0 6.79 6.79 0 0 0-3.63-1.1c-2.13 0-3.39 1.19-3.39 2.93 0 1.52 1 2.51 3.52 2.84l.68.09c3 .4 4.38 1.8 4.38 4 0 2.53-1.8 4.33-5.28 4.33a8.1 8.1 0 0 1-4.93-1.65zM232.53 156.1a4.17 4.17 0 0 1 7.46-.75.19.19 0 0 1-.07.29l-.62.4a.2.2 0 0 1-.29-.09 2.74 2.74 0 0 0-2.57-1.43 2.68 2.68 0 0 0-2.75 2 7.16 7.16 0 0 0-.29 2.35 7 7 0 0 0 .29 2.33 2.68 2.68 0 0 0 2.75 2 2.74 2.74 0 0 0 2.57-1.43.2.2 0 0 1 .29-.09l.62.4a.19.19 0 0 1 .07.29 4.17 4.17 0 0 1-7.46-.75 9.22 9.22 0 0 1-.33-2.73 9.39 9.39 0 0 1 .33-2.79zM251.14 164.09a.21.21 0 0 1-.22-.22v-6.2c0-2.09-.92-3.15-2.75-3.15a2.75 2.75 0 0 0-2.86 2.93v6.42a.21.21 0 0 1-.22.22h-.75a.21.21 0 0 1-.22-.22v-14.52a.21.21 0 0 1 .22-.22h.75a.21.21 0 0 1 .22.22v5.72a3.3 3.3 0 0 1 3.1-1.69c2.33 0 3.67 1.45 3.67 4v6.49a.21.21 0 0 1-.22.22zM256.51 161.54a8.69 8.69 0 0 1-.31-2.71 9 9 0 0 1 .31-2.73 4.16 4.16 0 0 1 7.81 0 8.34 8.34 0 0 1 .31 2.79.21.21 0 0 1-.24.22h-6.84c-.09 0-.13.07-.13.15a5.68 5.68 0 0 0 .22 1.85 2.9 2.9 0 0 0 3 2 3.58 3.58 0 0 0 2.93-1.34.2.2 0 0 1 .31 0l.51.46a.2.2 0 0 1 0 .31 4.63 4.63 0 0 1-3.83 1.76 3.88 3.88 0 0 1-4.05-2.76zm6.78-3.43a.12.12 0 0 0 .13-.13 4.9 4.9 0 0 0-.2-1.52 3 3 0 0 0-5.61 0 4.88 4.88 0 0 0-.2 1.52.12.12 0 0 0 .13.13zM275.49 164.09a.21.21 0 0 1-.22-.22v-1.28a3.24 3.24 0 0 1-3.19 1.72 3.37 3.37 0 0 1-3.56-2.51 11.9 11.9 0 0 1 0-5.92 3.37 3.37 0 0 1 3.56-2.51 3.24 3.24 0 0 1 3.19 1.72v-5.74a.21.21 0 0 1 .22-.22h.75a.21.21 0 0 1 .22.22v14.52a.21.21 0 0 1-.22.22zm-.51-2.77a7.65 7.65 0 0 0 .29-2.46 7.8 7.8 0 0 0-.29-2.49 2.87 2.87 0 0 0-5.37 0 10.85 10.85 0 0 0 0 5 2.87 2.87 0 0 0 5.37 0zM288.14 164.09a.21.21 0 0 1-.22-.22v-1.23a3.26 3.26 0 0 1-3.06 1.67c-2.33 0-3.63-1.45-3.63-4v-6.51a.21.21 0 0 1 .22-.22h.75a.21.21 0 0 1 .22.22v6.2c0 2.11.88 3.15 2.71 3.15a2.73 2.73 0 0 0 2.82-2.93v-6.42a.21.21 0 0 1 .22-.22h.75a.21.21 0 0 1 .22.22v10.06a.21.21 0 0 1-.22.22zM296.19 164.16c-1.58 0-2.18-.73-2.18-2.46v-12.35a.21.21 0 0 1 .22-.22h.77a.21.21 0 0 1 .22.22v12.3c0 1 .33 1.36 1.12 1.36h.37a.21.21 0 0 1 .22.22v.7a.21.21 0 0 1-.22.22zM300.28 161.54a8.69 8.69 0 0 1-.31-2.71 9 9 0 0 1 .31-2.73 4.16 4.16 0 0 1 7.81 0 8.34 8.34 0 0 1 .31 2.79.21.21 0 0 1-.24.22h-6.84c-.09 0-.13.07-.13.15a5.68 5.68 0 0 0 .22 1.85 2.9 2.9 0 0 0 3 2 3.58 3.58 0 0 0 2.93-1.34.2.2 0 0 1 .31 0l.51.46a.2.2 0 0 1 0 .31 4.63 4.63 0 0 1-3.83 1.76 3.88 3.88 0 0 1-4.05-2.76zm6.78-3.43a.12.12 0 0 0 .13-.13 4.9 4.9 0 0 0-.2-1.52 3 3 0 0 0-5.61 0 4.88 4.88 0 0 0-.2 1.52.12.12 0 0 0 .13.13zM319.27 164.09a.21.21 0 0 1-.22-.22v-1.28a3.24 3.24 0 0 1-3.19 1.72 3.37 3.37 0 0 1-3.56-2.51 11.9 11.9 0 0 1 0-5.92 3.37 3.37 0 0 1 3.56-2.51 3.24 3.24 0 0 1 3.19 1.72v-5.74a.21.21 0 0 1 .22-.22h.73a.21.21 0 0 1 .22.22v14.52a.21.21 0 0 1-.22.22zm-.51-2.77a7.65 7.65 0 0 0 .29-2.46 7.8 7.8 0 0 0-.29-2.49 2.87 2.87 0 0 0-5.37 0 10.85 10.85 0 0 0 0 5 2.87 2.87 0 0 0 5.37 0zM341.82 164.09c-.13 0-.2-.07-.24-.22l-3.5-12.26-3.52 12.26c0 .15-.11.22-.24.22h-.7a.28.28 0 0 1-.26-.22l-3.54-14.5c0-.15 0-.24.18-.24h.79c.18 0 .26.07.29.22l2.92 12.32 3.45-12.32c0-.15.11-.22.26-.22h.66c.15 0 .22.07.26.22l3.5 12.32 2.88-12.32c0-.18.11-.22.29-.22h.79c.15 0 .22.09.18.24l-3.54 14.5a.24.24 0 0 1-.24.22zM349.06 161.58a10.83 10.83 0 0 1 0-5.48 4.19 4.19 0 0 1 7.85 0 10.83 10.83 0 0 1 0 5.48 4.19 4.19 0 0 1-7.85 0zm6.71-.37a9.92 9.92 0 0 0 0-4.73 3 3 0 0 0-5.57 0 9.92 9.92 0 0 0 0 4.73 3 3 0 0 0 5.57 0zM361.71 164.09a.21.21 0 0 1-.22-.22v-10.06a.21.21 0 0 1 .22-.22h.75a.21.21 0 0 1 .22.22v1.34a2.81 2.81 0 0 1 2.82-1.78 3.26 3.26 0 0 1 2.11.73.18.18 0 0 1 0 .29l-.44.62a.24.24 0 0 1-.33 0 3 3 0 0 0-1.67-.53c-1.85 0-2.55 1.61-2.55 3.54v5.81a.21.21 0 0 1-.22.22zM378.19 164.09c-.15 0-.22 0-.33-.22l-3.34-5.43-2.24 2.64v2.79a.21.21 0 0 1-.22.22h-.75a.21.21 0 0 1-.22-.22v-14.52a.21.21 0 0 1 .22-.22h.69a.21.21 0 0 1 .22.22v10.08l4.75-5.61c.13-.15.2-.22.37-.22h.9c.13 0 .2.13.11.22l-3.1 3.67 3.92 6.38a.14.14 0 0 1-.13.22zM389.1 160.94a13.11 13.11 0 0 1-.44-4.33 13.11 13.11 0 0 1 .44-4.33 5.15 5.15 0 0 1 9.66 0 13.11 13.11 0 0 1 .44 4.33 13.11 13.11 0 0 1-.44 4.33 5.15 5.15 0 0 1-9.66 0zm8.45-8.32a3.85 3.85 0 0 0-7.24 0 12.93 12.93 0 0 0-.37 4 12.92 12.92 0 0 0 .37 4 3.85 3.85 0 0 0 7.24 0 12.92 12.92 0 0 0 .37-4 12.93 12.93 0 0 0-.37-3.99zM403.75 164.09a.21.21 0 0 1-.22-.22v-10.06a.21.21 0 0 1 .22-.22h.75a.21.21 0 0 1 .22.22v1.34a2.81 2.81 0 0 1 2.82-1.78 3.26 3.26 0 0 1 2.11.73.17.17 0 0 1 0 .29l-.44.62a.24.24 0 0 1-.33 0 3 3 0 0 0-1.67-.53c-1.85 0-2.55 1.61-2.55 3.54v5.81a.21.21 0 0 1-.22.22zM419.39 164.09a.21.21 0 0 1-.22-.22v-1.28a3.24 3.24 0 0 1-3.19 1.72 3.38 3.38 0 0 1-3.56-2.51 11.9 11.9 0 0 1 0-5.92 3.38 3.38 0 0 1 3.56-2.51 3.24 3.24 0 0 1 3.19 1.72v-5.74a.21.21 0 0 1 .22-.22h.75a.21.21 0 0 1 .22.22v14.52a.21.21 0 0 1-.22.22zm-.51-2.77a7.65 7.65 0 0 0 .29-2.46 7.8 7.8 0 0 0-.29-2.49 2.87 2.87 0 0 0-5.37 0 10.85 10.85 0 0 0 0 5 2.87 2.87 0 0 0 5.37 0zM424.89 161.54a8.69 8.69 0 0 1-.31-2.71 9 9 0 0 1 .31-2.73 4.16 4.16 0 0 1 7.81 0 8.34 8.34 0 0 1 .31 2.79.21.21 0 0 1-.24.22h-6.84c-.09 0-.13.07-.13.15a5.68 5.68 0 0 0 .22 1.85 2.9 2.9 0 0 0 3 2 3.58 3.58 0 0 0 2.93-1.34.2.2 0 0 1 .31 0l.51.46a.2.2 0 0 1 0 .31 4.63 4.63 0 0 1-3.83 1.76 3.88 3.88 0 0 1-4.05-2.76zm6.78-3.43a.12.12 0 0 0 .13-.13 4.89 4.89 0 0 0-.2-1.52 3 3 0 0 0-5.61 0 4.87 4.87 0 0 0-.2 1.52.12.12 0 0 0 .13.13zM437.43 164.09a.21.21 0 0 1-.22-.22v-10.06a.21.21 0 0 1 .22-.22h.75a.21.21 0 0 1 .22.22v1.34a2.81 2.81 0 0 1 2.82-1.78 3.26 3.26 0 0 1 2.11.73.18.18 0 0 1 0 .29l-.33.61a.24.24 0 0 1-.33 0 3 3 0 0 0-1.67-.53c-1.85 0-2.55 1.61-2.55 3.54v5.81a.21.21 0 0 1-.22.22z"/><path fill="#2e3d5a" d="M195.5 138.31l-16.79 18.55 16.79 18.55M138.8 151.89a5 5 0 1 0 5 5 5 5 0 0 0-5-5zm16.58 3.1a16.64 16.64 0 0 0-14.72-14.72v-3.91h-3.73v3.91A16.3 16.3 0 0 0 122.22 155h-3.92v3.73h3.91a16.64 16.64 0 0 0 14.72 14.72v3.91h3.73v-3.91a16.64 16.64 0 0 0 14.72-14.72h3.91V155zm-16.58 16.12a14.25 14.25 0 1 1 14.2-14.25 14.16 14.16 0 0 1-14.2 14.25z"/></svg>