<?xml version="1.0" encoding="utf-8"?>
<!-- Generator: Adobe Illustrator 16.0.0, SVG Export Plug-In . SVG Version: 6.00 Build 0)  -->
<!DOCTYPE svg PUBLIC "-//W3C//DTD SVG 1.1//EN" "http://www.w3.org/Graphics/SVG/1.1/DTD/svg11.dtd">
<svg version="1.1" id="Layer_1" xmlns="http://www.w3.org/2000/svg" xmlns:xlink="http://www.w3.org/1999/xlink" x="0px" y="0px"
	 width="36.175px" height="36.173px" viewBox="0 0 36.175 36.173" enable-background="new 0 0 36.175 36.173" xml:space="preserve">
<g>
	<g>
		<path fill="#434343" d="M18.09,0C8.098,0,0,8.098,0,18.086c0,9.989,8.098,18.087,18.09,18.087c9.99,0,18.085-8.098,18.085-18.087
			C36.175,8.098,28.08,0,18.09,0z M13.662,25.582H9.999V13.797h3.663V25.582z M11.804,12.351c-1.155,0-1.903-0.818-1.903-1.831
			c0-1.036,0.773-1.831,1.953-1.831c1.182,0,1.905,0.795,1.93,1.831C13.783,11.532,13.035,12.351,11.804,12.351z M27.037,25.582
			h-3.663V19.05c0-1.518-0.531-2.554-1.856-2.554c-1.014,0-1.613,0.699-1.878,1.374c-0.098,0.241-0.122,0.579-0.122,0.915v6.797
			h-3.662v-8.025c0-1.471-0.049-2.698-0.101-3.76h3.183l0.17,1.64h0.072c0.482-0.772,1.662-1.904,3.639-1.904
			c2.41,0,4.219,1.613,4.219,5.084V25.582z"/>
	</g>
</g>
<g>
</g>
<g>
</g>
<g>
</g>
<g>
</g>
<g>
</g>
<g>
</g>
</svg>
