<?xml version="1.0" encoding="utf-8"?>
<!-- Generator: Adobe Illustrator 16.0.0, SVG Export Plug-In . SVG Version: 6.00 Build 0)  -->
<!DOCTYPE svg PUBLIC "-//W3C//DTD SVG 1.1//EN" "http://www.w3.org/Graphics/SVG/1.1/DTD/svg11.dtd">
<svg version="1.1" id="Layer_1" xmlns="http://www.w3.org/2000/svg" xmlns:xlink="http://www.w3.org/1999/xlink" x="0px" y="0px"
	 width="36.593px" height="36.596px" viewBox="0 0 36.593 36.596" enable-background="new 0 0 36.593 36.596" xml:space="preserve">
<path fill="#434343" d="M18.294,0C8.19,0,0,8.193,0,18.299s8.19,18.297,18.294,18.297c10.108,0,18.299-8.191,18.299-18.297
	S28.402,0,18.294,0z M25.736,14.991c0.009,0.154,0.014,0.31,0.014,0.467c0,4.762-3.625,10.253-10.255,10.253
	c-2.036,0-3.93-0.598-5.523-1.619c0.28,0.033,0.566,0.051,0.859,0.051c1.687,0,3.24-0.577,4.477-1.543
	c-1.578-0.028-2.91-1.07-3.369-2.502c0.221,0.04,0.445,0.064,0.676,0.064c0.333,0,0.535-0.045,0.837-0.127
	c-1.65-0.33-3.001-1.788-3.001-3.533c0-0.016,0-0.029,0-0.047c1.059,0.271,1.156,0.434,1.744,0.451
	c-0.967-0.646-1.549-1.749-1.549-3c0-0.66,0.206-1.277,0.522-1.811c1.774,2.18,4.444,3.615,7.438,3.766
	c-0.061-0.264-0.087-0.541-0.087-0.822c0-1.989,1.62-3.604,3.608-3.604c1.037,0,1.974,0.439,2.633,1.139
	c0.818-0.162,1.594-0.462,2.291-0.875c-0.271,0.842-0.842,1.547-1.587,1.995c0.729-0.089,1.425-0.28,2.07-0.569
	C27.052,13.85,26.44,14.482,25.736,14.991z"/>
<g>
</g>
<g>
</g>
<g>
</g>
<g>
</g>
<g>
</g>
<g>
</g>
</svg>
