<svg xmlns="http://www.w3.org/2000/svg" xmlns:xlink="http://www.w3.org/1999/xlink" viewBox="0 0 790.7 364">
  <defs>
    <symbol id="a" data-name="icon-known" viewBox="0 0 9.2 9.2">
      <path d="M1.3,1.3A4.4,4.4,0,0,1,4.6,0,4.4,4.4,0,0,1,7.8,1.3,4.4,4.4,0,0,1,9.2,4.6,4.4,4.4,0,0,1,7.8,7.8,4.4,4.4,0,0,1,4.6,9.2,4.4,4.4,0,0,1,1.3,7.8,4.4,4.4,0,0,1,0,4.6,4.4,4.4,0,0,1,1.3,1.3ZM3.7,6.9,7.8,2.8l-.6-.7L3.7,5.6,2,3.9l-.6.6Z" style="fill: #fff"/>
    </symbol>
  </defs>
  <title>abstract1</title>
  <g>
    <g>
      <rect x="0.5" y="153" width="789.7" height="88.21" style="fill: #fff;stroke: #cfd8dc;stroke-miterlimit: 10"/>
      <g>
        <path d="M18.2,199.2l-3.2,2,.9-3.7L13,195.1l3.7-.3,1.5-3.4,1.5,3.4,3.7.3-2.8,2.5.9,3.7Z" style="fill: #f44336"/>
        <g>
          <g>
            <path d="M132.6,204.9h-.8v2.2h-.7v-5.2h1.4a2.5,2.5,0,0,1,1.5.4,1.3,1.3,0,0,1,.5,1.1,1.3,1.3,0,0,1-.3.9,1.7,1.7,0,0,1-.8.5l1.4,2.3h-.8Zm-.1-.5a1.3,1.3,0,0,0,.8-.2.9.9,0,0,0,.3-.7.8.8,0,0,0-.3-.7l-.9-.2h-.6v1.9Z" style="fill: #b0bec5"/>
            <path d="M139.2,202.5h-2v1.7h1.7v.6h-1.7v1.8h2.1v.6h-2.9v-5.2h2.8Z" style="fill: #b0bec5"/>
            <path d="M145,206.9l.7.3-.5.6-.9-.5h-1.1a2.1,2.1,0,0,1-1.1-.3,2,2,0,0,1-.8-.9,3.4,3.4,0,0,1-.3-1.4,3.5,3.5,0,0,1,.3-1.4,2.1,2.1,0,0,1,.8-.9,2.1,2.1,0,0,1,1.1-.3,2.1,2.1,0,0,1,1.1.3,2.1,2.1,0,0,1,.8.9,3.5,3.5,0,0,1,.3,1.5,3,3,0,0,1-.3,1.4,2.1,2.1,0,0,1-.9.8Zm-2.8-.8a1.2,1.2,0,0,0,1,.5q1.4,0,1.4-2.1t-1.4-2.1a1.2,1.2,0,0,0-1,.5,2.7,2.7,0,0,0-.4,1.6A2.6,2.6,0,0,0,142.2,206.1Z" style="fill: #b0bec5"/>
            <path d="M148,203.5a.6.6,0,0,1,0,.9l-.4.2-.4-.2a.6.6,0,0,1,0-.9l.4-.2Zm0,2.7a.6.6,0,0,1,0,.9l-.4.2-.4-.2a.6.6,0,0,1,0-.9l.4-.2Z" style="fill: #b0bec5"/>
            <path d="M156.2,206h-.6v1.1h-1.2V206h-2.1v-.8l1.4-3.3,1,.4-1.2,2.8h.9v-1.2h1v1.2h.6Z" style="fill: #607d8b"/>
          </g>
          <g>
            <path d="M178.8,204.6h-2.2v2.4H176v-5.2h.7v2.2h2.2v-2.2h.7v5.2h-.7Z" style="fill: #b0bec5"/>
            <path d="M184.9,202.5h-1.4v4.6h-.7v-4.6h-1.5v-.6H185Z" style="fill: #b0bec5"/>
            <path d="M189.7,202.5h-1.4v4.6h-.7v-4.6h-1.5v-.6h3.7Z" style="fill: #b0bec5"/>
            <path d="M194.3,202.3a1.4,1.4,0,0,1,.5,1.2,1.5,1.5,0,0,1-.5,1.3,2.4,2.4,0,0,1-1.5.4h-.7v1.9h-.7v-5.2h1.4A2.4,2.4,0,0,1,194.3,202.3Zm-.6,2.1a1,1,0,0,0,.3-.9.9.9,0,0,0-.3-.8,1.5,1.5,0,0,0-.9-.2h-.6v2.1h.6A1.6,1.6,0,0,0,193.8,204.4Z" style="fill: #b0bec5"/>
            <path d="M197.3,203.5a.5.5,0,0,1,.1.4.5.5,0,0,1-.1.4l-.4.2-.4-.2a.5.5,0,0,1-.1-.4.5.5,0,0,1,.1-.4h.7Zm0,2.8a.5.5,0,0,1,.1.4.5.5,0,0,1-.1.4l-.4.2-.4-.2a.5.5,0,0,1-.1-.4.5.5,0,0,1,.1-.4h.7Z" style="fill: #b0bec5"/>
            <path d="M204.2,202.1l.6.5a1.3,1.3,0,0,1,.2.7,1.9,1.9,0,0,1-.2.8l-.6.8-1.2,1.2h2.1v.9h-3.3v-.8l1.3-1.4.6-.8a1.3,1.3,0,0,0,.2-.6.7.7,0,0,0-.2-.5l-.5-.2h-.5l-.4.4-.7-.6.8-.6,1-.2Z" style="fill: #607d8b"/>
            <path d="M209.8,202.6a4.2,4.2,0,0,1,0,3.9,1.8,1.8,0,0,1-2.8,0,4.2,4.2,0,0,1,0-3.9,1.8,1.8,0,0,1,2.8,0Zm-1.8.4a1.1,1.1,0,0,0-.2.5,6.1,6.1,0,0,0-.1,1.1,6.2,6.2,0,0,0,.1,1.1,1.1,1.1,0,0,0,.2.5l.4.2.4-.2a1.1,1.1,0,0,0,.2-.5,8.1,8.1,0,0,0,0-2.1,1.1,1.1,0,0,0-.2-.5l-.4-.2Z" style="fill: #607d8b"/>
            <path d="M215.1,202.6a4.2,4.2,0,0,1,0,3.9,1.8,1.8,0,0,1-2.8,0,4.2,4.2,0,0,1,0-3.9,1.8,1.8,0,0,1,2.8,0Zm-1.8.4a1.1,1.1,0,0,0-.2.5,6.1,6.1,0,0,0-.1,1.1,6.2,6.2,0,0,0,.1,1.1,1.1,1.1,0,0,0,.2.5l.4.2.4-.2a1.1,1.1,0,0,0,.2-.5,8.1,8.1,0,0,0,0-2.1,1.1,1.1,0,0,0-.2-.5l-.4-.2Z" style="fill: #607d8b"/>
          </g>
          <g>
            <path d="M234.2,207.1h-.7l-.2-2.3q-.1-1.4-.1-2.1l-1.1,3.8h-.7l-1.2-3.9q0,.9-.1,2.2l-.2,2.3h-.7l.4-5.2h1l1.1,3.8,1-3.8h1Z" style="fill: #b0bec5"/>
            <path d="M239.2,202.5h-1.4v4.6h-.7v-4.6h-1.5v-.6h3.7Z" style="fill: #b0bec5"/>
            <path d="M244,202.5a2.4,2.4,0,0,1,.7,2,2.5,2.5,0,0,1-.7,2,2.6,2.6,0,0,1-1.7.6H241v-5.2h1.1A3,3,0,0,1,244,202.5Zm-2.2,0v4h.6a1.6,1.6,0,0,0,1.2-.4,2.2,2.2,0,0,0,.4-1.6,2.7,2.7,0,0,0-.2-1.3,1.2,1.2,0,0,0-.6-.6h-1.4Z" style="fill: #b0bec5"/>
            <path d="M247.4,203.5a.5.5,0,0,1,.1.4.5.5,0,0,1-.1.4l-.4.2-.4-.2a.5.5,0,0,1-.1-.4.5.5,0,0,1,.1-.4h.7Zm0,2.8a.5.5,0,0,1,.1.4.5.5,0,0,1-.1.4l-.4.2-.4-.2a.5.5,0,0,1-.1-.4.5.5,0,0,1,.1-.4h.7Z" style="fill: #b0bec5"/>
            <path d="M256,202.4l-.6.7-.5-.3h-.5a1.1,1.1,0,0,0-.9.5,2.3,2.3,0,0,0-.3,1.4,2.8,2.8,0,0,0,.3,1.4.9.9,0,0,0,.8.4l.7-.2v-1.2h-.7v-.9h2v2.6l-.9.4h-1a2.2,2.2,0,0,1-1.8-.7,3,3,0,0,1-.6-2,3.1,3.1,0,0,1,.3-1.5,2.2,2.2,0,0,1,.9-.9,2.7,2.7,0,0,1,3,.3Z" style="fill: #607d8b"/>
            <path d="M260.8,202.8H259V204h1.6v.9H259v1.3h2v.9h-3.2v-5.2H261Z" style="fill: #607d8b"/>
            <path d="M266,202.8h-1.3v4.2h-1.2v-4.2h-1.3v-.9h4Z" style="fill: #607d8b"/>
          </g>
          <g>
            <path d="M282.8,201.9l.6.4-.4.5a1.6,1.6,0,0,0-1-.4,1.3,1.3,0,0,0-1,.5,3.4,3.4,0,0,0,0,3.2,1.2,1.2,0,0,0,1,.5h.6l.5-.3.4.5-.6.4-.9.2a2,2,0,0,1-1.9-1.2,3.5,3.5,0,0,1-.3-1.4,3.4,3.4,0,0,1,.3-1.4,2.1,2.1,0,0,1,.8-.9,2,2,0,0,1,1.1-.3Z" style="fill: #b0bec5"/>
            <path d="M288.1,202.1a2.1,2.1,0,0,1,.8.9,3.5,3.5,0,0,1,.3,1.5,3.4,3.4,0,0,1-.3,1.4,2,2,0,0,1-1.9,1.2,2.1,2.1,0,0,1-1.1-.3,2,2,0,0,1-.8-.9,3.9,3.9,0,0,1,0-2.9,2.1,2.1,0,0,1,.8-.9,2.1,2.1,0,0,1,1.1-.3A2.1,2.1,0,0,1,288.1,202.1Zm-2.2.8a2.7,2.7,0,0,0-.4,1.6,2.6,2.6,0,0,0,.4,1.6,1.2,1.2,0,0,0,1,.5q1.4,0,1.4-2.1t-1.4-2.1A1.2,1.2,0,0,0,285.9,202.9Z" style="fill: #b0bec5"/>
            <path d="M294.8,207.1h-1l-2.1-4.4v1c0,.3,0,.6,0,1.1v2.4h-.7v-5.2h.9l2.1,4.4v-.7q0-.5,0-.9v-2.8h.7Z" style="fill: #b0bec5"/>
            <path d="M300.2,202.5h-1.4v4.6h-.7v-4.6h-1.5v-.6h3.7Z" style="fill: #b0bec5"/>
            <path d="M304.7,202.5h-2v1.7h1.7v.6h-1.7v1.8h2.1v.6H302v-5.2h2.8Z" style="fill: #b0bec5"/>
            <path d="M310.5,207.1h-1l-2.1-4.4v1c0,.3,0,.6,0,1.1v2.4h-.7v-5.2h.9l2.1,4.4v-.7q0-.5,0-.9v-2.8h.7Z" style="fill: #b0bec5"/>
            <path d="M315.9,202.5h-1.4v4.6h-.7v-4.6h-1.5v-.6H316Z" style="fill: #b0bec5"/>
            <path d="M321.3,206.4h2.1v.6h-2.7v-5.2h.7Z" style="fill: #b0bec5"/>
            <path d="M327.9,202.5h-2v1.7h1.7v.6h-1.7v1.8h2.1v.6h-2.9v-5.2H328Z" style="fill: #b0bec5"/>
            <path d="M333.7,207.1h-1l-2.1-4.4v1c0,.3,0,.6,0,1.1v2.4h-.7v-5.2h.9l2.1,4.4v-.7q0-.5,0-.9v-2.8h.7Z" style="fill: #b0bec5"/>
            <path d="M338.9,202l.7.4-.4.4-.5-.3H338l-.7.2a1.5,1.5,0,0,0-.5.7,2.9,2.9,0,0,0-.2,1.2,2.8,2.8,0,0,0,.4,1.6,1.2,1.2,0,0,0,1.1.5l1-.2v-1.5H338v-.6h1.7v2.5l-.8.3h-.9a1.9,1.9,0,0,1-1.5-.7,3,3,0,0,1-.6-2,3.1,3.1,0,0,1,.3-1.4,2.2,2.2,0,0,1,.8-.9,2.1,2.1,0,0,1,1.1-.3Z" style="fill: #b0bec5"/>
            <path d="M344.7,202.5h-1.4v4.6h-.7v-4.6h-1.5v-.6h3.7Z" style="fill: #b0bec5"/>
            <path d="M349.4,204.6h-2.2v2.4h-.7v-5.2h.7v2.2h2.2v-2.2h.7v5.2h-.7Z" style="fill: #b0bec5"/>
            <path d="M353,203.5a.5.5,0,0,1,.1.4.5.5,0,0,1-.1.4l-.4.2-.4-.2a.5.5,0,0,1-.1-.4.5.5,0,0,1,.1-.4h.7Zm0,2.8a.5.5,0,0,1,.1.4.5.5,0,0,1-.1.4l-.4.2-.4-.2a.5.5,0,0,1-.1-.4.5.5,0,0,1,.1-.4h.7Z" style="fill: #b0bec5"/>
            <path d="M360,202.1l.6.5a1.4,1.4,0,0,1,.2.7,1.9,1.9,0,0,1-.2.8l-.6.9-1.3,1.3h2.2v.8h-3.1v-.7l1.4-1.4.6-.8a1.5,1.5,0,0,0,.2-.7.7.7,0,0,0-.2-.5l-.5-.2h-.5l-.5.4-.6-.5a2,2,0,0,1,1.6-.8Z" style="fill: #607d8b"/>
            <path d="M365.4,202.5a2.1,2.1,0,0,1,.5,1.4,4,4,0,0,1-.3,1.7,2.4,2.4,0,0,1-.9,1l-1.7.6-.2-.7a3.9,3.9,0,0,0,1.5-.7,1.7,1.7,0,0,0,.6-1.1,1.3,1.3,0,0,1-1.1.5l-.7-.2a1.4,1.4,0,0,1-.5-.6,1.9,1.9,0,0,1-.2-.9,1.7,1.7,0,0,1,.2-.9,1.6,1.6,0,0,1,.6-.6l.9-.2A1.6,1.6,0,0,1,365.4,202.5Zm-.5,1.6a2.3,2.3,0,0,0-.2-1.1.6.6,0,0,0-.6-.3.7.7,0,0,0-.6.3,1.4,1.4,0,0,0,0,1.5l.5.2A1,1,0,0,0,364.8,204.1Z" style="fill: #607d8b"/>
            <path d="M368.2,206.1a.6.6,0,0,1,.2.4v.7l-.5,1.1h-.6l.3-1.3a.6.6,0,0,1-.3-.5.6.6,0,0,1,.2-.4l.4-.2Z" style="fill: #607d8b"/>
            <path d="M371.3,207.1h-.9V203l-1.1.7-.4-.6,1.6-1h.8Z" style="fill: #607d8b"/>
            <path d="M375.6,202.1l.6.5a1.4,1.4,0,0,1,.2.7,1.9,1.9,0,0,1-.2.8l-.6.9-1.3,1.3h2.2v.8h-3.1v-.7l1.4-1.4.6-.8a1.5,1.5,0,0,0,.2-.7.7.7,0,0,0-.2-.5l-.5-.2h-.5l-.5.4-.6-.5a2,2,0,0,1,1.6-.8Z" style="fill: #607d8b"/>
            <path d="M380.8,202.7l-1.9,4.5-.9-.3,1.8-4.1h-2.1V202h3.1Z" style="fill: #607d8b"/>
          </g>
          <g>
            <path d="M135.1,189a2.9,2.9,0,0,1,.7,2.1,3.3,3.3,0,0,1-.3,1.5,2.3,2.3,0,0,1-.9,1,2.7,2.7,0,0,1-1.4.3,2.5,2.5,0,0,1-1.9-.7,2.9,2.9,0,0,1-.7-2.1,3.3,3.3,0,0,1,.3-1.5,2.3,2.3,0,0,1,.9-1,2.6,2.6,0,0,1,1.4-.3A2.5,2.5,0,0,1,135.1,189Zm-2.6.8a2.5,2.5,0,0,0-.2,1.3,2.6,2.6,0,0,0,.2,1.3.8.8,0,0,0,1.4,0,2.5,2.5,0,0,0,.2-1.3,2.6,2.6,0,0,0-.2-1.3.8.8,0,0,0-1.4,0Z" style="fill: #212121"/>
            <path d="M141.8,189a3.7,3.7,0,0,1,.5,2.1,4,4,0,0,1-.3,1.5,2.3,2.3,0,0,1-.7,1,1.8,1.8,0,0,1-1.1.4,1.6,1.6,0,0,1-1.3-.6v2.4l-1.6.2v-7.5h1.4v.6l.7-.6.8-.2A1.7,1.7,0,0,1,141.8,189Zm-1.1,2.1a2.8,2.8,0,0,0-.2-1.3.7.7,0,0,0-.7-.4l-.5.2-.4.5v2.2a.9.9,0,0,0,.8.5Q140.7,192.8,140.7,191.1Z" style="fill: #212121"/>
            <path d="M147.2,193.5l-.7.3h-.8q-1.7,0-1.7-1.9v-2.5h-.7v-1.1h.7v-1.1l1.6-.2v1.3h1.2l-.2,1.1h-1V192a.9.9,0,0,0,.1.5l.4.2.6-.2Z" style="fill: #212121"/>
            <path d="M149.8,185.9a.9.9,0,0,1,0,1.3.9.9,0,0,1-.7.3.9.9,0,0,1-.7-.3.9.9,0,0,1,0-1.3.9.9,0,0,1,.7-.3A.9.9,0,0,1,149.8,185.9Zm.1,7.8h-1.6v-5.3H150Z" style="fill: #212121"/>
            <path d="M158.7,188.7a1.7,1.7,0,0,1,.4,1.2v3.9h-1.6v-3.6q0-.7-.4-.7l-.4.2-.4.5v3.6h-1.6v-3.6q0-.7-.4-.7l-.4.2-.4.5v3.6h-1.6v-5.3h1.4v.6l.7-.6.9-.2.8.2a1.3,1.3,0,0,1,.5.6l.7-.6.9-.2A1.3,1.3,0,0,1,158.7,188.7Z" style="fill: #212121"/>
            <path d="M162.3,185.9a.9.9,0,0,1,0,1.3.9.9,0,0,1-.7.3.9.9,0,0,1-.7-.3.9.9,0,0,1,0-1.3.9.9,0,0,1,.7-.3A.9.9,0,0,1,162.3,185.9Zm.1,7.8h-1.6v-5.3h1.6Z" style="fill: #212121"/>
            <path d="M168,189.6l-2.4,3H168v1.2h-4.1v-1.1l2.4-3H164v-1.2h4Z" style="fill: #212121"/>
            <path d="M174,191.6h-3.3a1.4,1.4,0,0,0,.4.9,1.2,1.2,0,0,0,.8.3h.6l.6-.4.6.9a3.2,3.2,0,0,1-2.1.7,2.5,2.5,0,0,1-2-.8,2.9,2.9,0,0,1-.7-2,3.5,3.5,0,0,1,.3-1.5,2.3,2.3,0,0,1,2.2-1.4,2.3,2.3,0,0,1,1.8.7,2.9,2.9,0,0,1,.6,2A4.7,4.7,0,0,1,174,191.6Zm-1.5-1q0-1.2-.9-1.2a.7.7,0,0,0-.6.3,2,2,0,0,0-.3,1h1.8Z" style="fill: #212121"/>
            <path d="M180.3,186.3v7.4h-1.4v-.6l-.6.6-.9.2a1.7,1.7,0,0,1-1.5-.8,3.7,3.7,0,0,1-.5-2.1,3.7,3.7,0,0,1,.3-1.5,2.3,2.3,0,0,1,.8-1,1.9,1.9,0,0,1,1.2-.4h.7l.6.4v-2.6Zm-1.6,5.8v-2.3l-.4-.3h-.4a.8.8,0,0,0-.7.4,2.4,2.4,0,0,0-.3,1.3,2.7,2.7,0,0,0,.2,1.3.7.7,0,0,0,.7.4A1.1,1.1,0,0,0,178.7,192.2Z" style="fill: #212121"/>
            <path d="M182,190h3.2v1.2H182Z" style="fill: #212121"/>
            <path d="M191.3,189a3.6,3.6,0,0,1,.5,2.1,3.9,3.9,0,0,1-.3,1.5,2.3,2.3,0,0,1-.7,1,1.8,1.8,0,0,1-1.1.4l-.8-.2-.6-.5v.5h-1.4v-7.4l1.6-.2V189l.6-.5.8-.2A1.7,1.7,0,0,1,191.3,189Zm-1.1,2.1a2.7,2.7,0,0,0-.2-1.3.7.7,0,0,0-.6-.4,1.1,1.1,0,0,0-.9.6v2.2a1,1,0,0,0,.8.5Q190.1,192.8,190.1,191.1Z" style="fill: #212121"/>
            <path d="M196.2,193.8a3.1,3.1,0,0,1-1,1.6,3.5,3.5,0,0,1-1.9.6l-.2-1.1,1.1-.3a1.6,1.6,0,0,0,.6-.8h-.5l-1.6-5.3h1.7l.9,4.3,1-4.3h1.6Z" style="fill: #212121"/>
            <path d="M199.8,192.4a.9.9,0,0,1,.3.6.9.9,0,0,1-.3.6.9.9,0,0,1-.6.3.9.9,0,0,1-.9-.9.9.9,0,0,1,.3-.6.9.9,0,0,1,.6-.3A.9.9,0,0,1,199.8,192.4Z" style="fill: #212121"/>
            <path d="M204.9,188.4l-.2,1.5h-.5a.8.8,0,0,0-.7.3,2.4,2.4,0,0,0-.4,1v2.6h-1.6v-5.3h1.4v1a1.9,1.9,0,0,1,.5-.9,1.2,1.2,0,0,1,.8-.3Z" style="fill: #212121"/>
            <path d="M210.6,193.8h-1.4v-.7a1.8,1.8,0,0,1-1.6.8,1.4,1.4,0,0,1-1.1-.4,1.8,1.8,0,0,1-.4-1.2v-3.8h1.6v3.6a.9.9,0,0,0,.1.5l.4.2a1,1,0,0,0,.9-.6v-3.7h1.6Z" style="fill: #212121"/>
            <path d="M216.9,189a3.6,3.6,0,0,1,.5,2.1,3.9,3.9,0,0,1-.3,1.5,2.3,2.3,0,0,1-.7,1,1.8,1.8,0,0,1-1.1.4l-.8-.2-.6-.5v.5h-1.4v-7.4l1.6-.2V189l.6-.5.8-.2A1.7,1.7,0,0,1,216.9,189Zm-1.1,2.1a2.7,2.7,0,0,0-.2-1.3.7.7,0,0,0-.6-.4,1.1,1.1,0,0,0-.9.6v2.2a1,1,0,0,0,.8.5Q215.8,192.8,215.8,191.1Z" style="fill: #212121"/>
            <path d="M220.5,185.9a.9.9,0,0,1,0,1.3.9.9,0,0,1-.7.3.9.9,0,0,1-.7-.3.9.9,0,0,1,0-1.3.9.9,0,0,1,.7-.3A.9.9,0,0,1,220.5,185.9Zm.1,7.8H219v-5.3h1.6Z" style="fill: #212121"/>
            <path d="M225.7,188.4l.8.5-.7.9a1.7,1.7,0,0,0-1-.4.9.9,0,0,0-.8.4,2.3,2.3,0,0,0-.3,1.3,2,2,0,0,0,.3,1.2.9.9,0,0,0,.8.3h.5l.5-.3.7,1a2.8,2.8,0,0,1-1.8.6,2.7,2.7,0,0,1-1.4-.3,2.3,2.3,0,0,1-.9-1,3.2,3.2,0,0,1-.3-1.5,3.3,3.3,0,0,1,.3-1.5,2.4,2.4,0,0,1,.9-1,2.5,2.5,0,0,1,1.4-.4Z" style="fill: #212121"/>
            <path d="M231.9,189a2.9,2.9,0,0,1,.7,2.1,3.3,3.3,0,0,1-.3,1.5,2.3,2.3,0,0,1-.9,1,2.7,2.7,0,0,1-1.4.3,2.5,2.5,0,0,1-1.9-.7,2.9,2.9,0,0,1-.7-2.1,3.3,3.3,0,0,1,.3-1.5,2.3,2.3,0,0,1,.9-1,2.6,2.6,0,0,1,1.4-.3A2.5,2.5,0,0,1,231.9,189Zm-2.6.8a2.5,2.5,0,0,0-.2,1.3,2.6,2.6,0,0,0,.2,1.3.8.8,0,0,0,1.4,0,2.5,2.5,0,0,0,.2-1.3,2.6,2.6,0,0,0-.2-1.3.8.8,0,0,0-1.4,0Z" style="fill: #212121"/>
            <path d="M238.3,188.7a1.7,1.7,0,0,1,.4,1.2v3.9h-1.6v-3.6a.9.9,0,0,0-.1-.6l-.4-.2q-.5,0-.9.7v3.6h-1.6v-5.3h1.4v.6l.7-.6.9-.2A1.4,1.4,0,0,1,238.3,188.7Z" style="fill: #212121"/>
            <path d="M245,189a3.7,3.7,0,0,1,.5,2.1,4,4,0,0,1-.3,1.5,2.3,2.3,0,0,1-.7,1,1.8,1.8,0,0,1-1.1.4,1.6,1.6,0,0,1-1.3-.6v2.4l-1.6.2v-7.5h1.4v.6l.7-.6.8-.2A1.7,1.7,0,0,1,245,189Zm-1.1,2.1a2.8,2.8,0,0,0-.2-1.3.7.7,0,0,0-.7-.4l-.5.2-.4.5v2.2a.9.9,0,0,0,.8.5Q243.8,192.8,243.8,191.1Z" style="fill: #212121"/>
            <path d="M250.5,188.4l-.2,1.5h-.5a.8.8,0,0,0-.7.3,2.4,2.4,0,0,0-.4,1v2.6h-1.6v-5.3h1.4v1a1.9,1.9,0,0,1,.5-.9,1.2,1.2,0,0,1,.8-.3Z" style="fill: #212121"/>
            <path d="M255.8,189a2.9,2.9,0,0,1,.7,2.1,3.3,3.3,0,0,1-.3,1.5,2.3,2.3,0,0,1-.9,1,2.7,2.7,0,0,1-1.4.3,2.5,2.5,0,0,1-1.9-.7,2.9,2.9,0,0,1-.7-2.1,3.3,3.3,0,0,1,.3-1.5,2.3,2.3,0,0,1,.9-1,2.6,2.6,0,0,1,1.4-.3A2.5,2.5,0,0,1,255.8,189Zm-2.6.8a2.5,2.5,0,0,0-.2,1.3,2.6,2.6,0,0,0,.2,1.3.8.8,0,0,0,1.4,0,2.5,2.5,0,0,0,.2-1.3,2.6,2.6,0,0,0-.2-1.3.8.8,0,0,0-1.4,0Z" style="fill: #212121"/>
            <path d="M259.6,193.2a3.1,3.1,0,0,1-.3,1.4,2.3,2.3,0,0,1-.7.9l-1.1.6-.5-1.1.6-.3.3-.5a1.9,1.9,0,0,0,.1-.8v-4.8h1.6Zm-.1-7.2a.9.9,0,0,1,0,1.3.9.9,0,0,1-.7.3.9.9,0,0,1-.7-.3.9.9,0,0,1,0-1.3.9.9,0,0,1,.7-.3A.9.9,0,0,1,259.4,185.9Z" style="fill: #212121"/>
            <path d="M266,191.6h-3.3a1.4,1.4,0,0,0,.4.9,1.2,1.2,0,0,0,.8.3h.6l.6-.4.6.9a3.2,3.2,0,0,1-2.1.7,2.5,2.5,0,0,1-2-.8,2.9,2.9,0,0,1-.7-2,3.5,3.5,0,0,1,.3-1.5,2.3,2.3,0,0,1,2.2-1.4,2.3,2.3,0,0,1,1.8.7,2.9,2.9,0,0,1,.6,2A4.7,4.7,0,0,1,266,191.6Zm-1.5-1q0-1.2-.9-1.2a.7.7,0,0,0-.6.3,2,2,0,0,0-.3,1h1.8Z" style="fill: #212121"/>
            <path d="M270.8,188.4l.8.5-.7.9a1.7,1.7,0,0,0-1-.4.9.9,0,0,0-.8.4,2.3,2.3,0,0,0-.3,1.3,2,2,0,0,0,.3,1.2.9.9,0,0,0,.8.3h.5l.5-.3.7,1a2.8,2.8,0,0,1-1.8.6,2.7,2.7,0,0,1-1.4-.3,2.3,2.3,0,0,1-.9-1,3.2,3.2,0,0,1-.3-1.5,3.3,3.3,0,0,1,.3-1.5,2.4,2.4,0,0,1,.9-1,2.5,2.5,0,0,1,1.4-.4Z" style="fill: #212121"/>
            <path d="M276.2,193.5l-.7.3h-.8q-1.7,0-1.7-1.9v-2.5h-.7v-1.1h.7v-1.1l1.6-.2v1.3h1.2l-.2,1.1h-1V192a.9.9,0,0,0,.1.5l.4.2.6-.2Z" style="fill: #212121"/>
            <path d="M278.6,192.4a.9.9,0,0,1,.3.6.9.9,0,0,1-.3.6.9.9,0,0,1-.6.3.9.9,0,0,1-.9-.9.9.9,0,0,1,.3-.6.9.9,0,0,1,.6-.3A.9.9,0,0,1,278.6,192.4Z" style="fill: #212121"/>
            <path d="M283.5,188.4l.8.5-.7.9a1.7,1.7,0,0,0-1-.4.9.9,0,0,0-.8.4,2.3,2.3,0,0,0-.3,1.3,2,2,0,0,0,.3,1.2.9.9,0,0,0,.8.3h.5l.5-.3.7,1a2.8,2.8,0,0,1-1.8.6,2.7,2.7,0,0,1-1.4-.3,2.3,2.3,0,0,1-.9-1,3.2,3.2,0,0,1-.3-1.5,3.3,3.3,0,0,1,.3-1.5,2.4,2.4,0,0,1,.9-1,2.5,2.5,0,0,1,1.4-.4Z" style="fill: #212121"/>
            <path d="M289.7,189a2.9,2.9,0,0,1,.7,2.1,3.3,3.3,0,0,1-.3,1.5,2.3,2.3,0,0,1-.9,1,2.7,2.7,0,0,1-1.4.3,2.5,2.5,0,0,1-1.9-.7,2.9,2.9,0,0,1-.7-2.1,3.3,3.3,0,0,1,.3-1.5,2.3,2.3,0,0,1,.9-1,2.6,2.6,0,0,1,1.4-.3A2.5,2.5,0,0,1,289.7,189Zm-2.6.8a2.5,2.5,0,0,0-.2,1.3,2.6,2.6,0,0,0,.2,1.3.8.8,0,0,0,1.4,0,2.5,2.5,0,0,0,.2-1.3,2.6,2.6,0,0,0-.2-1.3.8.8,0,0,0-1.4,0Z" style="fill: #212121"/>
            <path d="M298.8,188.7a1.7,1.7,0,0,1,.4,1.2v3.9h-1.6v-3.6q0-.7-.4-.7l-.4.2-.4.5v3.6h-1.6v-3.6q0-.7-.4-.7l-.4.2-.4.5v3.6H292v-5.3h1.4v.6l.7-.6.9-.2.8.2a1.3,1.3,0,0,1,.5.6l.7-.6.9-.2A1.3,1.3,0,0,1,298.8,188.7Z" style="fill: #212121"/>
            <path d="M304.5,185.9l-2.3,8.9-.8-.2,2.3-8.9Z" style="fill: #212121"/>
            <path d="M310.4,193l.3.2-.2.6-.7-.2a1.1,1.1,0,0,1-.4-.6,1.8,1.8,0,0,1-1.6.8,1.7,1.7,0,0,1-1.2-.4,1.5,1.5,0,0,1-.4-1.1,1.5,1.5,0,0,1,.6-1.3,2.8,2.8,0,0,1,1.7-.4h.8v-.4a1,1,0,0,0-.3-.8,1.2,1.2,0,0,0-.8-.2l-1.4.3-.2-.7a5.3,5.3,0,0,1,1.8-.4,1.9,1.9,0,0,1,1.4.5,1.7,1.7,0,0,1,.5,1.3v2.4A.8.8,0,0,0,310.4,193Zm-1-.6v-1.2h-.7q-1.5,0-1.5,1.1a1,1,0,0,0,.2.7.9.9,0,0,0,.7.2A1.4,1.4,0,0,0,309.4,192.4Z" style="fill: #212121"/>
            <path d="M316,185.9l-2.3,8.9-.8-.2,2.3-8.9Z" style="fill: #212121"/>
            <path d="M320.5,193.8h-.9v-5.7l-1.6.9-.4-.6,2.1-1.3h.8Z" style="fill: #212121"/>
            <path d="M326.7,187.9a6.1,6.1,0,0,1,0,5.1,2,2,0,0,1-3.3,0,6.1,6.1,0,0,1,0-5.1,2,2,0,0,1,3.3,0Zm-2.6.5a7,7,0,0,0,0,4.2,1,1,0,0,0,1.9,0,6.9,6.9,0,0,0,0-4.2,1,1,0,0,0-1.9,0Z" style="fill: #212121"/>
            <path d="M333.4,192.1h-.9v1.6h-.9v-1.6h-2.9v-.7l2-4.5.8.3-1.8,4.1h1.9v-1.8h.8v1.8h.9Z" style="fill: #212121"/>
            <path d="M338.5,187.8h-2.6v2l1.1-.3a1.8,1.8,0,0,1,1.4.6,2.2,2.2,0,0,1,.5,1.6,2.3,2.3,0,0,1-.3,1.2,2,2,0,0,1-.8.8,2.5,2.5,0,0,1-1.2.3l-1.1-.2-.9-.6.6-.5.6.5.8.2a1.3,1.3,0,0,0,1-.4,1.6,1.6,0,0,0,.4-1.1,1.4,1.4,0,0,0-.3-1.1,1.2,1.2,0,0,0-.9-.3h-.5l-.5.2H335v-3.4h3.6Z" style="fill: #212121"/>
            <path d="M343.2,187.2a1.8,1.8,0,0,1,.7.7,1.8,1.8,0,0,1,.2.9,2.6,2.6,0,0,1-.3,1.2,5.7,5.7,0,0,1-.8,1.2l-1.7,1.8h3v.8h-3.9V193l1.9-2,.8-1.1a2.3,2.3,0,0,0,.2-1,1,1,0,0,0-1.1-1.1l-.7.2-.6.6-.6-.5a2.7,2.7,0,0,1,.9-.8l1.1-.2Z" style="fill: #212121"/>
            <path d="M349.6,185.9l-2.3,8.9-.8-.2,2.3-8.9Z" style="fill: #212121"/>
            <path d="M354.3,187.2a1.8,1.8,0,0,1,.7.7,1.8,1.8,0,0,1,.2.9,2.6,2.6,0,0,1-.3,1.2,5.7,5.7,0,0,1-.8,1.2l-1.7,1.8h3v.8h-3.9V193l1.9-2,.8-1.1a2.3,2.3,0,0,0,.2-1,1,1,0,0,0-1.1-1.1l-.7.2-.6.6-.6-.5a2.7,2.7,0,0,1,.9-.8l1.1-.2Z" style="fill: #212121"/>
            <path d="M359.8,187.2a1.8,1.8,0,0,1,.7.7,1.8,1.8,0,0,1,.2.9,2.6,2.6,0,0,1-.3,1.2,5.7,5.7,0,0,1-.8,1.2l-1.7,1.8h3v.8h-3.9V193l1.9-2,.8-1.1a2.3,2.3,0,0,0,.2-1,1,1,0,0,0-1.1-1.1l-.7.2-.6.6-.6-.5a2.7,2.7,0,0,1,.9-.8l1.1-.2Z" style="fill: #212121"/>
            <path d="M366.2,185.9l-2.3,8.9-.8-.2,2.3-8.9Z" style="fill: #212121"/>
            <path d="M372,192.1h-.9v1.6h-.9v-1.6h-2.9v-.7l2-4.5.8.3-1.8,4.1h1.9v-1.8h.8v1.8h.9Z" style="fill: #212121"/>
            <path d="M376.9,189.6a1.7,1.7,0,0,1,.7.7,2.5,2.5,0,0,1,.2,1.2,2.7,2.7,0,0,1-.3,1.3,2.1,2.1,0,0,1-.8.8,2,2,0,0,1-1.1.3,1.9,1.9,0,0,1-1.7-.9,4.5,4.5,0,0,1-.5-2.4,5.5,5.5,0,0,1,.3-1.9,2.9,2.9,0,0,1,.9-1.3,2.1,2.1,0,0,1,1.3-.5,2.4,2.4,0,0,1,1.4.4l-.4.6a1.9,1.9,0,0,0-1-.3,1.3,1.3,0,0,0-1.1.7,3.8,3.8,0,0,0-.5,1.8,1.9,1.9,0,0,1,1.6-.9Zm-.3,3.1a2,2,0,0,0,.3-1.2q0-1.4-1.1-1.4l-.8.2a2.1,2.1,0,0,0-.6.7,3.4,3.4,0,0,0,.3,1.6,1.1,1.1,0,0,0,1,.5A1,1,0,0,0,376.6,192.7Z" style="fill: #212121"/>
            <path d="M382.1,187.2a1.7,1.7,0,0,1,.7.6,1.6,1.6,0,0,1,.2.8,1.4,1.4,0,0,1-.4,1,1.8,1.8,0,0,1-.9.5,1.7,1.7,0,0,1,1.1.5,1.5,1.5,0,0,1,.4,1.1,2,2,0,0,1-.3,1,1.9,1.9,0,0,1-.8.7l-1.2.3-1.1-.2a2.5,2.5,0,0,1-.9-.7l.5-.5.7.5.8.2a1.3,1.3,0,0,0,1-.4,1.3,1.3,0,0,0,.4-1,1.1,1.1,0,0,0-.3-.9,1.6,1.6,0,0,0-1-.3h-.5v-.7h.3a1.2,1.2,0,0,0,.9-.3,1.1,1.1,0,0,0,.3-.9,1,1,0,0,0-.3-.7,1.2,1.2,0,0,0-.8-.3h-.7l-.7.5-.5-.5a2.7,2.7,0,0,1,1.9-.8Z" style="fill: #212121"/>
            <path d="M389.3,192.1h-.9v1.6h-.9v-1.6h-2.9v-.7l2-4.5.8.3-1.8,4.1h1.9v-1.8h.8v1.8h.9Z" style="fill: #212121"/>
            <path d="M394.4,187.7a3,3,0,0,1,.5,1.9,5.5,5.5,0,0,1-.4,2.2,3,3,0,0,1-1.1,1.3,7.8,7.8,0,0,1-2.1.9l-.2-.7a5.1,5.1,0,0,0,2.1-1,2.4,2.4,0,0,0,.8-1.7l-.6.6-.9.2-.9-.3a1.8,1.8,0,0,1-.7-.7,2.5,2.5,0,0,1-.2-1.1,2.3,2.3,0,0,1,.3-1.2,2,2,0,0,1,.8-.8l1.1-.3A1.9,1.9,0,0,1,394.4,187.7Zm-.4,2.1a3.1,3.1,0,0,0-.3-1.6,1,1,0,0,0-.9-.5,1.1,1.1,0,0,0-.9.4,1.7,1.7,0,0,0-.3,1.1,1.6,1.6,0,0,0,.3,1.1,1,1,0,0,0,.8.4A1.6,1.6,0,0,0,394.1,189.8Z" style="fill: #212121"/>
            <path d="M400.1,187.8l-2.5,6.1-.8-.3,2.4-5.8h-3v-.7h3.9Z" style="fill: #212121"/>
            <path d="M404.4,187.2a1.8,1.8,0,0,1,.7.7,1.8,1.8,0,0,1,.2.9,2.6,2.6,0,0,1-.3,1.2,5.7,5.7,0,0,1-.8,1.2l-1.7,1.8h3v.8h-3.9V193l1.9-2,.8-1.1a2.3,2.3,0,0,0,.2-1,1,1,0,0,0-1.1-1.1l-.7.2-.6.6-.6-.5a2.7,2.7,0,0,1,.9-.8l1.1-.2Z" style="fill: #212121"/>
            <path d="M411.6,192.1h-.9v1.6h-.9v-1.6H407v-.7l2-4.5.8.3-1.8,4.1h1.9v-1.8h.8v1.8h.9Z" style="fill: #212121"/>
            <path d="M416.7,187.7a3,3,0,0,1,.5,1.9,5.5,5.5,0,0,1-.4,2.2,3,3,0,0,1-1.1,1.3,7.8,7.8,0,0,1-2.1.9l-.2-.7a5.1,5.1,0,0,0,2.1-1,2.4,2.4,0,0,0,.8-1.7l-.6.6-.9.2-.9-.3a1.8,1.8,0,0,1-.7-.7,2.5,2.5,0,0,1-.2-1.1,2.3,2.3,0,0,1,.3-1.2,2,2,0,0,1,.8-.8l1.1-.3A1.9,1.9,0,0,1,416.7,187.7Zm-.4,2.1a3.1,3.1,0,0,0-.3-1.6,1,1,0,0,0-.9-.5,1.1,1.1,0,0,0-.9.4,1.7,1.7,0,0,0-.3,1.1,1.6,1.6,0,0,0,.3,1.1,1,1,0,0,0,.8.4A1.6,1.6,0,0,0,416.3,189.8Z" style="fill: #212121"/>
            <path d="M421.5,187.2a1.7,1.7,0,0,1,.7.6,1.6,1.6,0,0,1,.2.8,1.4,1.4,0,0,1-.4,1,1.8,1.8,0,0,1-.9.5,1.7,1.7,0,0,1,1.1.5,1.5,1.5,0,0,1,.4,1.1,2,2,0,0,1-.3,1,1.9,1.9,0,0,1-.8.7l-1.2.3-1.1-.2a2.5,2.5,0,0,1-.9-.7l.5-.5.7.5.8.2a1.3,1.3,0,0,0,1-.4,1.3,1.3,0,0,0,.4-1,1.1,1.1,0,0,0-.3-.9,1.6,1.6,0,0,0-1-.3h-.5v-.7h.3a1.2,1.2,0,0,0,.9-.3,1.1,1.1,0,0,0,.3-.9,1,1,0,0,0-.3-.7,1.2,1.2,0,0,0-.8-.3h-.7l-.7.5-.5-.5a2.7,2.7,0,0,1,1.9-.8Z" style="fill: #212121"/>
            <path d="M427.1,187.2a1.8,1.8,0,0,1,.7.7,1.8,1.8,0,0,1,.2.9,2.6,2.6,0,0,1-.3,1.2,5.7,5.7,0,0,1-.8,1.2l-1.7,1.8h3v.8h-3.9V193l1.9-2,.8-1.1a2.3,2.3,0,0,0,.2-1,1,1,0,0,0-1.1-1.1l-.7.2-.6.6-.6-.5a2.7,2.7,0,0,1,.9-.8l1.1-.2Z" style="fill: #212121"/>
            <path d="M433.4,187.8l-2.5,6.1-.8-.3,2.4-5.8h-3v-.7h3.9Z" style="fill: #212121"/>
            <path d="M439.1,192a1.7,1.7,0,0,1-.3,1,2,2,0,0,1-.8.7l-1.2.2-1.2-.2a1.9,1.9,0,0,1-.8-.7,1.7,1.7,0,0,1-.3-1,1.6,1.6,0,0,1,.3-1,2.5,2.5,0,0,1,1-.7,2,2,0,0,1-.8-.7,1.6,1.6,0,0,1-.3-.9,1.5,1.5,0,0,1,.3-.9,1.8,1.8,0,0,1,.7-.6l1-.2,1,.2a1.8,1.8,0,0,1,.8.6,1.5,1.5,0,0,1,.3.9,1.4,1.4,0,0,1-.3.9l-.9.6A1.9,1.9,0,0,1,439.1,192Zm-1.3.9a1.1,1.1,0,0,0,.4-.8,1.2,1.2,0,0,0-.1-.6l-.4-.4-.9-.4h-.2a1.8,1.8,0,0,0-.7.6,1.6,1.6,0,0,0-.2.9,1.1,1.1,0,0,0,.4.9,1.5,1.5,0,0,0,1,.3A1.4,1.4,0,0,0,437.8,192.8Zm-1.8-4.9a1,1,0,0,0-.3.8.9.9,0,0,0,.3.7l.9.5h.2l.6-.5a1.2,1.2,0,0,0,.2-.7,1,1,0,0,0-.3-.7,1.2,1.2,0,0,0-.8-.3A1.2,1.2,0,0,0,436,187.9Z" style="fill: #212121"/>
            <path d="M445.2,192.1h-.9v1.6h-.9v-1.6h-2.9v-.7l2-4.5.8.3-1.8,4.1h1.9v-1.8h.8v1.8h.9Z" style="fill: #212121"/>
            <path d="M447.8,192.7a.7.7,0,0,1,.2.5.7.7,0,0,1-.2.5l-.5.2-.5-.2a.7.7,0,0,1-.2-.5.7.7,0,0,1,.2-.5l.5-.2Z" style="fill: #212121"/>
            <path d="M450.9,193.4a3.1,3.1,0,0,1-.2,1.2,1.7,1.7,0,0,1-.5.7l-1,.6-.3-.7.6-.4a1.1,1.1,0,0,0,.3-.5,2.8,2.8,0,0,0,.1-.9v-5h.9Zm0-7.3a.6.6,0,0,1,.2.5.6.6,0,0,1-.2.4l-.5.2-.5-.2a.6.6,0,0,1-.2-.4.6.6,0,0,1,.2-.5l.5-.2Z" style="fill: #212121"/>
            <path d="M455.8,188.5l.8.4-.4.6-.7-.3h-.7l-.7.2a.6.6,0,0,0,0,1l.9.3a3.2,3.2,0,0,1,1.3.6,1.3,1.3,0,0,1,.4,1,1.3,1.3,0,0,1-.6,1.2,2.6,2.6,0,0,1-1.5.4,2.9,2.9,0,0,1-2-.7l.5-.6a2.4,2.4,0,0,0,1.5.5l.8-.2a.7.7,0,0,0,.3-.6.8.8,0,0,0-.1-.4l-.4-.3-.8-.3a2.7,2.7,0,0,1-1.2-.6,1.3,1.3,0,0,1-.4-.9,1.2,1.2,0,0,1,.2-.7l.7-.5,1-.2Z" style="fill: #212121"/>
            <path d="M461.2,187a1.5,1.5,0,0,1,.7.6,1.4,1.4,0,0,1,.2.8,1.5,1.5,0,0,1-.1.7l-.3.4-.5.4-.6.5a1,1,0,0,0-.2.7v.4h-.9V191a1.7,1.7,0,0,1,.1-.7l.3-.5.5-.4.6-.4a.7.7,0,0,0,.2-.5.8.8,0,0,0-.3-.6l-.7-.2a1.8,1.8,0,0,0-1.4.7l-.6-.5a2.6,2.6,0,0,1,2.1-1Zm-.9,5.7a.7.7,0,0,1,.2.5.7.7,0,0,1-.2.5l-.5.2-.5-.2a.7.7,0,0,1-.2-.5.7.7,0,0,1,.2-.5l.5-.2Z" style="fill: #212121"/>
            <path d="M466.6,188.5l.7.4-.4.6-.5-.3h-.6a1.1,1.1,0,0,0-1,.5,2.6,2.6,0,0,0-.4,1.5,2.5,2.5,0,0,0,.3,1.5,1.2,1.2,0,0,0,1,.5h.6l.6-.3.4.6a2.5,2.5,0,0,1-1.6.6,2.1,2.1,0,0,1-1.7-.7,3,3,0,0,1-.6-2,3.6,3.6,0,0,1,.3-1.5,2.3,2.3,0,0,1,.8-1,2.1,2.1,0,0,1,1.2-.3Z" style="fill: #212121"/>
            <path d="M473.1,189.1a3.4,3.4,0,0,1,.5,2,3.9,3.9,0,0,1-.2,1.4,2.2,2.2,0,0,1-.7,1,1.8,1.8,0,0,1-1.1.3,1.7,1.7,0,0,1-1.4-.7v.6h-.8v-7.4h.9v2.9a1.8,1.8,0,0,1,1.5-.8A1.7,1.7,0,0,1,473.1,189.1Zm-.8,3.6a2.7,2.7,0,0,0,.3-1.5,2.8,2.8,0,0,0-.3-1.5,1,1,0,0,0-.9-.5,1.5,1.5,0,0,0-1.2.8v2.5l.5.5.6.2A1.1,1.1,0,0,0,472.3,192.7Z" style="fill: #212121"/>
            <path d="M475.4,189.1h3.8v.8h-3.8Zm0,1.9h3.8v.8h-3.8Z" style="fill: #212121"/>
            <path d="M483.6,193.8h-.9v-5.7l-1.6.9-.4-.6,2.1-1.3h.8Z" style="fill: #212121"/>
            <path d="M488.7,187.2a1.8,1.8,0,0,1,.7.7,1.8,1.8,0,0,1,.2.9,2.6,2.6,0,0,1-.3,1.2,5.7,5.7,0,0,1-.8,1.2l-1.7,1.8h3v.8h-3.9V193l1.9-2,.8-1.1a2.3,2.3,0,0,0,.2-1,1,1,0,0,0-1.1-1.1l-.7.2-.6.6-.6-.5a2.7,2.7,0,0,1,.9-.8l1.1-.2Z" style="fill: #212121"/>
            <path d="M494.2,187.2a1.7,1.7,0,0,1,.7.6,1.6,1.6,0,0,1,.2.8,1.4,1.4,0,0,1-.4,1,1.8,1.8,0,0,1-.9.5,1.7,1.7,0,0,1,1.1.5,1.5,1.5,0,0,1,.4,1.1,2,2,0,0,1-.3,1,1.9,1.9,0,0,1-.8.7l-1.2.3-1.1-.2a2.5,2.5,0,0,1-.9-.7l.5-.5.7.5.8.2a1.3,1.3,0,0,0,1-.4,1.3,1.3,0,0,0,.4-1,1.1,1.1,0,0,0-.3-.9,1.6,1.6,0,0,0-1-.3h-.5v-.7h.3a1.2,1.2,0,0,0,.9-.3,1.1,1.1,0,0,0,.3-.9,1,1,0,0,0-.3-.7,1.2,1.2,0,0,0-.8-.3h-.7l-.7.5-.5-.5a2.7,2.7,0,0,1,1.9-.8Z" style="fill: #212121"/>
            <path d="M499.8,187.2a1.8,1.8,0,0,1,.7.7,1.8,1.8,0,0,1,.2.9,2.6,2.6,0,0,1-.3,1.2,5.7,5.7,0,0,1-.8,1.2l-1.7,1.8h3v.8h-3.9V193l1.9-2,.8-1.1a2.3,2.3,0,0,0,.2-1,1,1,0,0,0-1.1-1.1l-.7.2-.6.6-.6-.5a2.7,2.7,0,0,1,.9-.8l1.1-.2Z" style="fill: #212121"/>
            <path d="M506.2,187.7a3,3,0,0,1,.5,1.9,5.5,5.5,0,0,1-.4,2.2,3,3,0,0,1-1.1,1.3,7.8,7.8,0,0,1-2.1.9l-.2-.7a5.1,5.1,0,0,0,2.1-1,2.4,2.4,0,0,0,.8-1.7l-.6.6-.9.2-.9-.3a1.8,1.8,0,0,1-.7-.7,2.5,2.5,0,0,1-.2-1.1,2.3,2.3,0,0,1,.3-1.2,2,2,0,0,1,.8-.8l1.1-.3A1.9,1.9,0,0,1,506.2,187.7Zm-.4,2.1a3.1,3.1,0,0,0-.3-1.6,1,1,0,0,0-.9-.5,1.1,1.1,0,0,0-.9.4,1.7,1.7,0,0,0-.3,1.1,1.6,1.6,0,0,0,.3,1.1,1,1,0,0,0,.8.4A1.6,1.6,0,0,0,505.8,189.8Z" style="fill: #212121"/>
            <path d="M512.9,192a1.7,1.7,0,0,1-.3,1,2,2,0,0,1-.8.7l-1.2.2-1.2-.2a1.9,1.9,0,0,1-.8-.7,1.7,1.7,0,0,1-.3-1,1.6,1.6,0,0,1,.3-1,2.5,2.5,0,0,1,1-.7,2,2,0,0,1-.8-.7,1.6,1.6,0,0,1-.3-.9,1.5,1.5,0,0,1,.3-.9,1.8,1.8,0,0,1,.7-.6l1-.2,1,.2a1.8,1.8,0,0,1,.8.6,1.5,1.5,0,0,1,.3.9,1.4,1.4,0,0,1-.3.9l-.9.6A1.9,1.9,0,0,1,512.9,192Zm-1.3.9a1.1,1.1,0,0,0,.4-.8,1.2,1.2,0,0,0-.1-.6l-.4-.4-.9-.4h-.2a1.8,1.8,0,0,0-.7.6,1.6,1.6,0,0,0-.2.9,1.1,1.1,0,0,0,.4.9,1.5,1.5,0,0,0,1,.3A1.4,1.4,0,0,0,511.6,192.8Zm-1.8-4.9a1,1,0,0,0-.3.8.9.9,0,0,0,.3.7l.9.5h.2l.6-.5a1.2,1.2,0,0,0,.2-.7,1,1,0,0,0-.3-.7,1.2,1.2,0,0,0-.8-.3A1.2,1.2,0,0,0,509.8,187.9Z" style="fill: #212121"/>
            <path d="M518,187.8l-2.5,6.1-.8-.3,2.4-5.8h-3v-.7H518Z" style="fill: #212121"/>
            <path d="M522.2,187.2a1.7,1.7,0,0,1,.7.6,1.6,1.6,0,0,1,.2.8,1.4,1.4,0,0,1-.4,1,1.8,1.8,0,0,1-.9.5,1.7,1.7,0,0,1,1.1.5,1.5,1.5,0,0,1,.4,1.1,2,2,0,0,1-.3,1,1.9,1.9,0,0,1-.8.7l-1.2.3-1.1-.2a2.5,2.5,0,0,1-.9-.7l.5-.5.7.5.8.2a1.3,1.3,0,0,0,1-.4,1.3,1.3,0,0,0,.4-1,1.1,1.1,0,0,0-.3-.9,1.6,1.6,0,0,0-1-.3h-.5v-.7h.3a1.2,1.2,0,0,0,.9-.3,1.1,1.1,0,0,0,.3-.9,1,1,0,0,0-.3-.7,1.2,1.2,0,0,0-.8-.3h-.7l-.7.5-.5-.5a2.7,2.7,0,0,1,1.9-.8Z" style="fill: #212121"/>
            <path d="M527.8,187.2a1.8,1.8,0,0,1,.7.7,1.8,1.8,0,0,1,.2.9,2.6,2.6,0,0,1-.3,1.2,5.7,5.7,0,0,1-.8,1.2l-1.7,1.8h3v.8h-3.9V193l1.9-2,.8-1.1a2.3,2.3,0,0,0,.2-1,1,1,0,0,0-1.1-1.1l-.7.2-.6.6-.6-.5a2.7,2.7,0,0,1,.9-.8l1.1-.2Z" style="fill: #212121"/>
            <path d="M535,192.1h-.9v1.6h-.9v-1.6h-2.9v-.7l2-4.5.8.3-1.8,4.1h1.9v-1.8h.8v1.8h.9Z" style="fill: #212121"/>
            <path d="M539.9,187a1.5,1.5,0,0,1,.6.5,1.4,1.4,0,0,1,.2.8,1.5,1.5,0,0,1-.4,1l-1,.8,1.8,1.7a7.6,7.6,0,0,0,.6-1.7l.9.3a7.4,7.4,0,0,1-.9,2l1.1,1-.7.5-1-.9a2.9,2.9,0,0,1-1,.7l-1.2.2-1.2-.2a1.8,1.8,0,0,1-.8-.7,1.7,1.7,0,0,1-.3-1,1.8,1.8,0,0,1,.3-1.1,3.9,3.9,0,0,1,1-.9l-.7-.9a1.6,1.6,0,0,1-.2-.9,1.4,1.4,0,0,1,.5-1.1,1.9,1.9,0,0,1,1.3-.4Zm-2,4.2a1.3,1.3,0,0,0-.2.8,1,1,0,0,0,.4.9,1.6,1.6,0,0,0,1,.3l.8-.2.7-.5-2-1.9Zm.4-3.5a.8.8,0,0,0-.2.6,1.1,1.1,0,0,0,.2.6l.6.7.8-.6a1,1,0,0,0,.3-.7.9.9,0,0,0-.2-.7l-.7-.2A.9.9,0,0,0,538.3,187.7Z" style="fill: #212121"/>
            <path d="M547.9,188.4l-.2.9h-.5a1,1,0,0,0-.8.4,2.7,2.7,0,0,0-.5,1.1v3h-.9v-5.3h.8v1.1a2,2,0,0,1,.6-.9,1.3,1.3,0,0,1,.8-.3Z" style="fill: #212121"/>
            <path d="M550.7,187.2a.8.8,0,0,0-.2.6v.7h1.3v.7h-1.2v4.6h-.9v-4.6h-.9v-.7h.9v-.7a1.4,1.4,0,0,1,.4-1.1,1.7,1.7,0,0,1,1.2-.4h.6l.6.2-.3.7-.9-.2Z" style="fill: #212121"/>
            <path d="M553.2,189.1h3.8v.8h-3.8Zm0,1.9h3.8v.8h-3.8Z" style="fill: #212121"/>
            <path d="M562.7,193l.3.2-.2.6-.7-.2a1.1,1.1,0,0,1-.4-.6,1.8,1.8,0,0,1-1.6.8,1.7,1.7,0,0,1-1.2-.4,1.5,1.5,0,0,1-.4-1.1,1.5,1.5,0,0,1,.6-1.3,2.8,2.8,0,0,1,1.7-.4h.8v-.4a1,1,0,0,0-.3-.8,1.2,1.2,0,0,0-.8-.2l-1.4.3-.2-.7a5.3,5.3,0,0,1,1.8-.4,1.9,1.9,0,0,1,1.4.5,1.7,1.7,0,0,1,.5,1.3v2.4A.8.8,0,0,0,562.7,193Zm-1-.6v-1.2H561q-1.5,0-1.5,1.1a1,1,0,0,0,.2.7.9.9,0,0,0,.7.2A1.4,1.4,0,0,0,561.7,192.4Z" style="fill: #212121"/>
            <path d="M569.2,186.4v7.4h-.8V193l-.6.6-.9.2a1.7,1.7,0,0,1-1.5-.7,3.4,3.4,0,0,1-.5-2,3.9,3.9,0,0,1,.2-1.4,2.2,2.2,0,0,1,.7-1,1.8,1.8,0,0,1,1.1-.4,1.9,1.9,0,0,1,1.4.6v-2.8Zm-1.5,6.6.6-.6v-2.6l-.6-.5-.7-.2a1.1,1.1,0,0,0-.9.5,2.8,2.8,0,0,0-.3,1.5,2.9,2.9,0,0,0,.3,1.5,1,1,0,0,0,.9.5Z" style="fill: #212121"/>
            <path d="M574.1,188.5l.8.4-.4.6-.7-.3h-.7l-.7.2a.6.6,0,0,0,0,1l.9.3a3.2,3.2,0,0,1,1.3.6,1.3,1.3,0,0,1,.4,1,1.3,1.3,0,0,1-.6,1.2,2.6,2.6,0,0,1-1.5.4,2.9,2.9,0,0,1-2-.7l.5-.6a2.4,2.4,0,0,0,1.5.5l.8-.2a.7.7,0,0,0,.3-.6.8.8,0,0,0-.1-.4l-.4-.3-.8-.3a2.7,2.7,0,0,1-1.2-.6,1.3,1.3,0,0,1-.4-.9,1.2,1.2,0,0,1,.2-.7l.7-.5,1-.2Z" style="fill: #212121"/>
            <path d="M577.7,192.7a.7.7,0,0,1,.2.5.7.7,0,0,1-.2.5l-.5.2-.5-.2a.7.7,0,0,1-.2-.5.7.7,0,0,1,.2-.5l.5-.2Z" style="fill: #212121"/>
            <path d="M582.7,188.4l-.2.9h-.5a1,1,0,0,0-.8.4,2.7,2.7,0,0,0-.5,1.1v3h-.9v-5.3h.8v1.1a2,2,0,0,1,.6-.9,1.3,1.3,0,0,1,.8-.3Z" style="fill: #212121"/>
            <path d="M588.3,193.8h-.8v-.8a2,2,0,0,1-.7.7l-.9.2a1.4,1.4,0,0,1-1.1-.4,1.7,1.7,0,0,1-.4-1.2v-3.8h.9v3.7a1.2,1.2,0,0,0,.2.8.8.8,0,0,0,.6.2,1.6,1.6,0,0,0,1.3-.9v-3.8h.9Z" style="fill: #212121"/>
            <path d="M594.6,189.1a3.4,3.4,0,0,1,.5,2,3.9,3.9,0,0,1-.2,1.4,2.2,2.2,0,0,1-.7,1,1.8,1.8,0,0,1-1.1.3,1.7,1.7,0,0,1-1.4-.7v.6h-.8v-7.4h.9v2.9a1.8,1.8,0,0,1,1.5-.8A1.7,1.7,0,0,1,594.6,189.1Zm-.8,3.6a2.7,2.7,0,0,0,.3-1.5,2.8,2.8,0,0,0-.3-1.5,1,1,0,0,0-.9-.5,1.5,1.5,0,0,0-1.2.8v2.5l.5.5.6.2A1.1,1.1,0,0,0,593.8,192.7Z" style="fill: #212121"/>
            <path d="M598.2,186.1a.6.6,0,0,1,.2.5.6.6,0,0,1-.2.4l-.5.2-.5-.2a.6.6,0,0,1-.2-.4.6.6,0,0,1,.2-.5l.5-.2Zm0,7.6h-.9v-5.3h.9Z" style="fill: #212121"/>
            <path d="M603.5,188.5l.7.4-.4.6-.5-.3h-.6a1.1,1.1,0,0,0-1,.5,2.6,2.6,0,0,0-.4,1.5,2.5,2.5,0,0,0,.3,1.5,1.2,1.2,0,0,0,1,.5h.6l.6-.3.4.6a2.5,2.5,0,0,1-1.6.6,2.1,2.1,0,0,1-1.7-.7,3,3,0,0,1-.6-2,3.6,3.6,0,0,1,.3-1.5,2.3,2.3,0,0,1,.8-1,2.1,2.1,0,0,1,1.2-.3Z" style="fill: #212121"/>
            <path d="M609.7,189.1a3.1,3.1,0,0,1,.6,2,3.5,3.5,0,0,1-.3,1.4,2.2,2.2,0,0,1-.8,1,2.3,2.3,0,0,1-1.3.3,2.1,2.1,0,0,1-1.7-.7,3,3,0,0,1-.6-2,3.5,3.5,0,0,1,.3-1.4,2.2,2.2,0,0,1,.8-1,2.3,2.3,0,0,1,1.3-.3A2.1,2.1,0,0,1,609.7,189.1Zm-3.1,2q0,2,1.4,2t1.4-2q0-2-1.3-2T606.6,191.1Z" style="fill: #212121"/>
            <path d="M613.1,192.7a.7.7,0,0,1,.2.5.7.7,0,0,1-.2.5l-.5.2-.5-.2a.7.7,0,0,1-.2-.5.7.7,0,0,1,.2-.5l.5-.2Z" style="fill: #212121"/>
            <path d="M616.1,192.7a.7.7,0,0,1,.2.5.7.7,0,0,1-.2.5l-.5.2-.5-.2a.7.7,0,0,1-.2-.5.7.7,0,0,1,.2-.5l.5-.2Z" style="fill: #212121"/>
            <path d="M619.1,192.7a.7.7,0,0,1,.2.5.7.7,0,0,1-.2.5l-.5.2-.5-.2a.7.7,0,0,1-.2-.5.7.7,0,0,1,.2-.5l.5-.2Z" style="fill: #212121"/>
          </g>
        </g>
        <g>
          <path d="M50.7,191.1a2.5,2.5,0,0,1,.6,1.5v10.7a.9.9,0,0,1-.9.9H38.1a.9.9,0,0,1-.9-.9V188.4a.9.9,0,0,1,.9-.9h8.3l.8.2.7.4Zm-.6,11.9v-9.5H46.3a.9.9,0,0,1-.9-.9v-3.8H38.4v14.2Zm-3.6-14.1v3.5h3.5l-.2-.4L47,189Z" style="fill: #607d8b"/>
          <path d="M43,195.2h.3a.4.4,0,0,1,.1.3v.2H42v1.2h.8v-.6h.6v.8a.4.4,0,0,1-.1.3H41.5a.4.4,0,0,1-.1-.3v-1.7a.4.4,0,0,1,.1-.3H43Zm1,0h.6v2.5h-.6Zm3.1.6H45.9v.4h.8v.6h-.8v.8h-.6v-2.5h1.9Z" style="fill: #607d8b"/>
        </g>
        <g>
          <path d="M685.7,197.9l-2.4,2.4v-1.8h-4.2v-1.2h4.2v-1.8Z" style="fill: #f87f76;stroke: #f87f76;stroke-miterlimit: 10"/>
          <path d="M682,191.3a6.8,6.8,0,1,1-6.8,6.8,6.8,6.8,0,0,1,6.8-6.8m0-1.5a8.3,8.3,0,1,0,8.3,8.3,8.3,8.3,0,0,0-8.3-8.3Z" style="fill: #f87f76"/>
        </g>
        <path d="M746.3,193.7v8.7h8.7v1.2h-8.7a1.3,1.3,0,0,1-1.2-1.2v-8.7Zm10-2.5a1.3,1.3,0,0,1,1.2,1.2v7.5a1.2,1.2,0,0,1-.4.9,1.2,1.2,0,0,1-.9.4h-7.5a1.3,1.3,0,0,1-1.3-1.3v-7.5a1.2,1.2,0,0,1,.4-.9,1.2,1.2,0,0,1,.9-.4Zm-5,7.8,3.7-2.8-3.7-2.8Z" style="fill: #00b0ff"/>
        <g>
          <path d="M94.1,187.5l.6.2a.8.8,0,0,1,.2.6v5.1a.9.9,0,0,1-.2.6.8.8,0,0,1-.6.3H80.4a.8.8,0,0,1-.6-.3.9.9,0,0,1-.2-.6v-5.1a.8.8,0,0,1,.2-.6l.6-.2Zm0,8.5a.8.8,0,0,1,.6.3.9.9,0,0,1,.2.6v5.1a.8.8,0,0,1-.2.6l-.6.2H80.4l-.6-.2a.8.8,0,0,1-.2-.6V197a.9.9,0,0,1,.2-.6.8.8,0,0,1,.6-.3Zm-12.3-3.9a1.6,1.6,0,0,0,1.2.5,1.8,1.8,0,0,0,1.7-1.7,1.6,1.6,0,0,0-.5-1.2,1.7,1.7,0,0,0-1.2-.5,1.7,1.7,0,0,0-1.7,1.7A1.7,1.7,0,0,0,81.8,192.2Zm0,8.6a1.6,1.6,0,0,0,1.2.5,1.7,1.7,0,0,0,1.2-.5,1.6,1.6,0,0,0,.5-1.2,1.8,1.8,0,0,0-1.7-1.7,1.6,1.6,0,0,0-1.2.5,1.7,1.7,0,0,0-.5,1.2A1.6,1.6,0,0,0,81.8,200.7Z" style="fill: #607d8b"/>
          <g>
            <rect x="90.4" y="195" width="13.3" height="13.31" rx="1.7" ry="1.7" style="fill: #8bc34a"/>
            <use width="9.2" height="9.15" transform="translate(93.2 197.8) scale(0.83)" xlink:href="#a"/>
          </g>
        </g>
      </g>
    </g>
    <rect x="0.2" width="790" height="364" style="fill: none"/>
  </g>
</svg>
