<svg xmlns="http://www.w3.org/2000/svg" xmlns:xlink="http://www.w3.org/1999/xlink" viewBox="0 0 790.7 364"><defs><symbol id="a" data-name="icon-known" viewBox="0 0 9.2 9.2"><path d="M1.3 1.3A4.4 4.4 0 0 1 4.6 0a4.4 4.4 0 0 1 3.2 1.3 4.4 4.4 0 0 1 1.4 3.3 4.4 4.4 0 0 1-1.4 3.2 4.4 4.4 0 0 1-3.2 1.4 4.4 4.4 0 0 1-3.3-1.4A4.4 4.4 0 0 1 0 4.6a4.4 4.4 0 0 1 1.3-3.3zm2.4 5.6l4.1-4.1-.6-.7-3.5 3.5L2 3.9l-.6.6z" fill="#fff"/></symbol></defs><title>abstract1</title><path fill="#fff" stroke="#cfd8dc" stroke-miterlimit="10" d="M.5 153h789.7v88.21H.5z"/><path d="M18.2 199.2l-3.2 2 .9-3.7-2.9-2.4 3.7-.3 1.5-3.4 1.5 3.4 3.7.3-2.8 2.5.9 3.7z" fill="#f44336"/><path d="M132.6 204.9h-.8v2.2h-.7v-5.2h1.4a2.5 2.5 0 0 1 1.5.4 1.3 1.3 0 0 1 .5 1.1 1.3 1.3 0 0 1-.3.9 1.7 1.7 0 0 1-.8.5l1.4 2.3h-.8zm-.1-.5a1.3 1.3 0 0 0 .8-.2.9.9 0 0 0 .3-.7.8.8 0 0 0-.3-.7l-.9-.2h-.6v1.9zm6.7-1.9h-2v1.7h1.7v.6h-1.7v1.8h2.1v.6h-2.9V202h2.8zm5.8 4.4l.7.3-.5.6-.9-.5h-1.1a2.1 2.1 0 0 1-1.1-.3 2 2 0 0 1-.8-.9 3.4 3.4 0 0 1-.3-1.4 3.5 3.5 0 0 1 .3-1.4 2.1 2.1 0 0 1 .8-.9 2.1 2.1 0 0 1 1.1-.3 2.1 2.1 0 0 1 1.1.3 2.1 2.1 0 0 1 .8.9 3.5 3.5 0 0 1 .3 1.5 3 3 0 0 1-.3 1.4 2.1 2.1 0 0 1-.9.8zm-2.8-.8a1.2 1.2 0 0 0 1 .5q1.4 0 1.4-2.1t-1.4-2.1a1.2 1.2 0 0 0-1 .5 2.7 2.7 0 0 0-.4 1.6 2.6 2.6 0 0 0 .4 1.6zm5.8-2.6a.6.6 0 0 1 0 .9l-.4.2-.4-.2a.6.6 0 0 1 0-.9l.4-.2zm0 2.7a.6.6 0 0 1 0 .9l-.4.2-.4-.2a.6.6 0 0 1 0-.9l.4-.2z" fill="#b0bec5"/><path d="M156.2 206h-.6v1.1h-1.2V206h-2.1v-.8l1.4-3.3 1 .4-1.2 2.8h.9v-1.2h1v1.2h.6z" fill="#607d8b"/><path d="M178.8 204.6h-2.2v2.4h-.6v-5.2h.7v2.2h2.2v-2.2h.7v5.2h-.7zm6.1-2.1h-1.4v4.6h-.7v-4.6h-1.5v-.6h3.7zm4.8 0h-1.4v4.6h-.7v-4.6h-1.5v-.6h3.7zm4.6-.2a1.4 1.4 0 0 1 .5 1.2 1.5 1.5 0 0 1-.5 1.3 2.4 2.4 0 0 1-1.5.4h-.7v1.9h-.7v-5.2h1.4a2.4 2.4 0 0 1 1.5.4zm-.6 2.1a1 1 0 0 0 .3-.9.9.9 0 0 0-.3-.8 1.5 1.5 0 0 0-.9-.2h-.6v2.1h.6a1.6 1.6 0 0 0 1-.2zm3.6-.9a.5.5 0 0 1 .1.4.5.5 0 0 1-.1.4l-.4.2-.4-.2a.5.5 0 0 1-.1-.4.5.5 0 0 1 .1-.4h.7zm0 2.8a.5.5 0 0 1 .1.4.5.5 0 0 1-.1.4l-.4.2-.4-.2a.5.5 0 0 1-.1-.4.5.5 0 0 1 .1-.4h.7z" fill="#b0bec5"/><path d="M204.2 202.1l.6.5a1.3 1.3 0 0 1 .2.7 1.9 1.9 0 0 1-.2.8l-.6.8-1.2 1.2h2.1v.9h-3.3v-.8l1.3-1.4.6-.8a1.3 1.3 0 0 0 .2-.6.7.7 0 0 0-.2-.5l-.5-.2h-.5l-.4.4-.7-.6.8-.6 1-.2zm5.6.5a4.2 4.2 0 0 1 0 3.9 1.8 1.8 0 0 1-2.8 0 4.2 4.2 0 0 1 0-3.9 1.8 1.8 0 0 1 2.8 0zm-1.8.4a1.1 1.1 0 0 0-.2.5 6.1 6.1 0 0 0-.1 1.1 6.2 6.2 0 0 0 .1 1.1 1.1 1.1 0 0 0 .2.5l.4.2.4-.2a1.1 1.1 0 0 0 .2-.5 8.1 8.1 0 0 0 0-2.1 1.1 1.1 0 0 0-.2-.5l-.4-.2zm7.1-.4a4.2 4.2 0 0 1 0 3.9 1.8 1.8 0 0 1-2.8 0 4.2 4.2 0 0 1 0-3.9 1.8 1.8 0 0 1 2.8 0zm-1.8.4a1.1 1.1 0 0 0-.2.5 6.1 6.1 0 0 0-.1 1.1 6.2 6.2 0 0 0 .1 1.1 1.1 1.1 0 0 0 .2.5l.4.2.4-.2a1.1 1.1 0 0 0 .2-.5 8.1 8.1 0 0 0 0-2.1 1.1 1.1 0 0 0-.2-.5l-.4-.2z" fill="#607d8b"/><path d="M234.2 207.1h-.7l-.2-2.3q-.1-1.4-.1-2.1l-1.1 3.8h-.7l-1.2-3.9q0 .9-.1 2.2l-.2 2.3h-.7l.4-5.2h1l1.1 3.8 1-3.8h1zm5-4.6h-1.4v4.6h-.7v-4.6h-1.5v-.6h3.7zm4.8 0a2.4 2.4 0 0 1 .7 2 2.5 2.5 0 0 1-.7 2 2.6 2.6 0 0 1-1.7.6H241v-5.2h1.1a3 3 0 0 1 1.9.6zm-2.2 0v4h.6a1.6 1.6 0 0 0 1.2-.4 2.2 2.2 0 0 0 .4-1.6 2.7 2.7 0 0 0-.2-1.3 1.2 1.2 0 0 0-.6-.6h-1.4zm5.6 1a.5.5 0 0 1 .1.4.5.5 0 0 1-.1.4l-.4.2-.4-.2a.5.5 0 0 1-.1-.4.5.5 0 0 1 .1-.4h.7zm0 2.8a.5.5 0 0 1 .1.4.5.5 0 0 1-.1.4l-.4.2-.4-.2a.5.5 0 0 1-.1-.4.5.5 0 0 1 .1-.4h.7z" fill="#b0bec5"/><path d="M256 202.4l-.6.7-.5-.3h-.5a1.1 1.1 0 0 0-.9.5 2.3 2.3 0 0 0-.3 1.4 2.8 2.8 0 0 0 .3 1.4.9.9 0 0 0 .8.4l.7-.2v-1.2h-.7v-.9h2v2.6l-.9.4h-1a2.2 2.2 0 0 1-1.8-.7 3 3 0 0 1-.6-2 3.1 3.1 0 0 1 .3-1.5 2.2 2.2 0 0 1 .9-.9 2.7 2.7 0 0 1 3 .3zm4.8.4H259v1.2h1.6v.9H259v1.3h2v.9h-3.2v-5.2h3.2zm5.2 0h-1.3v4.2h-1.2v-4.2h-1.3v-.9h4z" fill="#607d8b"/><path d="M282.8 201.9l.6.4-.4.5a1.6 1.6 0 0 0-1-.4 1.3 1.3 0 0 0-1 .5 3.4 3.4 0 0 0 0 3.2 1.2 1.2 0 0 0 1 .5h.6l.5-.3.4.5-.6.4-.9.2a2 2 0 0 1-1.9-1.2 3.5 3.5 0 0 1-.3-1.4 3.4 3.4 0 0 1 .3-1.4 2.1 2.1 0 0 1 .8-.9 2 2 0 0 1 1.1-.3zm5.3.2a2.1 2.1 0 0 1 .8.9 3.5 3.5 0 0 1 .3 1.5 3.4 3.4 0 0 1-.3 1.4 2 2 0 0 1-1.9 1.2 2.1 2.1 0 0 1-1.1-.3 2 2 0 0 1-.8-.9 3.9 3.9 0 0 1 0-2.9 2.1 2.1 0 0 1 .8-.9 2.1 2.1 0 0 1 1.1-.3 2.1 2.1 0 0 1 1.1.3zm-2.2.8a2.7 2.7 0 0 0-.4 1.6 2.6 2.6 0 0 0 .4 1.6 1.2 1.2 0 0 0 1 .5q1.4 0 1.4-2.1t-1.4-2.1a1.2 1.2 0 0 0-1 .5zm8.9 4.2h-1l-2.1-4.4v4.5h-.7V202h.9l2.1 4.4V202h.7zm5.4-4.6h-1.4v4.6h-.7v-4.6h-1.5v-.6h3.7zm4.5 0h-2v1.7h1.7v.6h-1.7v1.8h2.1v.6H302V202h2.8zm5.8 4.6h-1l-2.1-4.4v4.5h-.7V202h.9l2.1 4.4V202h.7zm5.4-4.6h-1.4v4.6h-.7v-4.6h-1.5v-.6h3.7zm5.4 3.9h2.1v.6h-2.7v-5.2h.7zm6.6-3.9h-2v1.7h1.7v.6h-1.7v1.8h2.1v.6h-2.9V202h2.9zm5.8 4.6h-1l-2.1-4.4v4.5h-.7V202h.9l2.1 4.4V202h.7zm5.2-5.1l.7.4-.4.4-.5-.3h-.7l-.7.2a1.5 1.5 0 0 0-.5.7 2.9 2.9 0 0 0-.2 1.2 2.8 2.8 0 0 0 .4 1.6 1.2 1.2 0 0 0 1.1.5l1-.2V205H338v-.6h1.7v2.5l-.8.3h-.9a1.9 1.9 0 0 1-1.5-.7 3 3 0 0 1-.6-2 3.1 3.1 0 0 1 .3-1.4 2.2 2.2 0 0 1 .8-.9 2.1 2.1 0 0 1 1.1-.3zm5.8.5h-1.4v4.6h-.7v-4.6h-1.5v-.6h3.7zm4.7 2.1h-2.2v2.4h-.7v-5.2h.7v2.2h2.2v-2.2h.7v5.2h-.7zm3.6-1.1a.5.5 0 0 1 .1.4.5.5 0 0 1-.1.4l-.4.2-.4-.2a.5.5 0 0 1-.1-.4.5.5 0 0 1 .1-.4h.7zm0 2.8a.5.5 0 0 1 .1.4.5.5 0 0 1-.1.4l-.4.2-.4-.2a.5.5 0 0 1-.1-.4.5.5 0 0 1 .1-.4h.7z" fill="#b0bec5"/><path d="M360 202.1l.6.5a1.4 1.4 0 0 1 .2.7 1.9 1.9 0 0 1-.2.8l-.6.9-1.3 1.3h2.2v.8h-3.1v-.7l1.4-1.4.6-.8a1.5 1.5 0 0 0 .2-.7.7.7 0 0 0-.2-.5l-.5-.2h-.5l-.5.4-.6-.5a2 2 0 0 1 1.6-.8zm5.4.4a2.1 2.1 0 0 1 .5 1.4 4 4 0 0 1-.3 1.7 2.4 2.4 0 0 1-.9 1l-1.7.6-.2-.7a3.9 3.9 0 0 0 1.5-.7 1.7 1.7 0 0 0 .6-1.1 1.3 1.3 0 0 1-1.1.5l-.7-.2a1.4 1.4 0 0 1-.5-.6 1.9 1.9 0 0 1-.2-.9 1.7 1.7 0 0 1 .2-.9 1.6 1.6 0 0 1 .6-.6l.9-.2a1.6 1.6 0 0 1 1.3.7zm-.5 1.6a2.3 2.3 0 0 0-.2-1.1.6.6 0 0 0-.6-.3.7.7 0 0 0-.6.3 1.4 1.4 0 0 0 0 1.5l.5.2a1 1 0 0 0 .8-.6zm3.3 2a.6.6 0 0 1 .2.4v.7l-.5 1.1h-.6l.3-1.3a.6.6 0 0 1-.3-.5.6.6 0 0 1 .2-.4l.4-.2zm3.1 1h-.9V203l-1.1.7-.4-.6 1.6-1h.8zm4.3-5l.6.5a1.4 1.4 0 0 1 .2.7 1.9 1.9 0 0 1-.2.8l-.6.9-1.3 1.3h2.2v.8h-3.1v-.7l1.4-1.4.6-.8a1.5 1.5 0 0 0 .2-.7.7.7 0 0 0-.2-.5l-.5-.2h-.5l-.5.4-.6-.5a2 2 0 0 1 1.6-.8zm5.2.6l-1.9 4.5-.9-.3 1.8-4.1h-2.1v-.8h3.1z" fill="#607d8b"/><path d="M135.1 189a2.9 2.9 0 0 1 .7 2.1 3.3 3.3 0 0 1-.3 1.5 2.3 2.3 0 0 1-.9 1 2.7 2.7 0 0 1-1.4.3 2.5 2.5 0 0 1-1.9-.7 2.9 2.9 0 0 1-.7-2.1 3.3 3.3 0 0 1 .3-1.5 2.3 2.3 0 0 1 .9-1 2.6 2.6 0 0 1 1.4-.3 2.5 2.5 0 0 1 1.9.7zm-2.6.8a2.5 2.5 0 0 0-.2 1.3 2.6 2.6 0 0 0 .2 1.3.8.8 0 0 0 1.4 0 2.5 2.5 0 0 0 .2-1.3 2.6 2.6 0 0 0-.2-1.3.8.8 0 0 0-1.4 0zm9.3-.8a3.7 3.7 0 0 1 .5 2.1 4 4 0 0 1-.3 1.5 2.3 2.3 0 0 1-.7 1 1.8 1.8 0 0 1-1.1.4 1.6 1.6 0 0 1-1.3-.6v2.4l-1.6.2v-7.5h1.4v.6l.7-.6.8-.2a1.7 1.7 0 0 1 1.6.7zm-1.1 2.1a2.8 2.8 0 0 0-.2-1.3.7.7 0 0 0-.7-.4l-.5.2-.4.5v2.2a.9.9 0 0 0 .8.5q1 0 1-1.7zm6.5 2.4l-.7.3h-.8q-1.7 0-1.7-1.9v-2.5h-.7v-1.1h.7v-1.1l1.6-.2v1.3h1.2l-.2 1.1h-1v2.6a.9.9 0 0 0 .1.5l.4.2.6-.2zm2.6-7.6a.9.9 0 0 1 0 1.3.9.9 0 0 1-.7.3.9.9 0 0 1-.7-.3.9.9 0 0 1 0-1.3.9.9 0 0 1 .7-.3.9.9 0 0 1 .7.3zm.1 7.8h-1.6v-5.3h1.7zm8.8-5a1.7 1.7 0 0 1 .4 1.2v3.9h-1.6v-3.6q0-.7-.4-.7l-.4.2-.4.5v3.6h-1.6v-3.6q0-.7-.4-.7l-.4.2-.4.5v3.6h-1.6v-5.3h1.4v.6l.7-.6.9-.2.8.2a1.3 1.3 0 0 1 .5.6l.7-.6.9-.2a1.3 1.3 0 0 1 .9.4zm3.6-2.8a.9.9 0 0 1 0 1.3.9.9 0 0 1-.7.3.9.9 0 0 1-.7-.3.9.9 0 0 1 0-1.3.9.9 0 0 1 .7-.3.9.9 0 0 1 .7.3zm.1 7.8h-1.6v-5.3h1.6zm5.6-4.1l-2.4 3h2.4v1.2h-4.1v-1.1l2.4-3H164v-1.2h4zm6 2h-3.3a1.4 1.4 0 0 0 .4.9 1.2 1.2 0 0 0 .8.3h.6l.6-.4.6.9a3.2 3.2 0 0 1-2.1.7 2.5 2.5 0 0 1-2-.8 2.9 2.9 0 0 1-.7-2 3.5 3.5 0 0 1 .3-1.5 2.3 2.3 0 0 1 2.2-1.4 2.3 2.3 0 0 1 1.8.7 2.9 2.9 0 0 1 .6 2 4.7 4.7 0 0 1 .2.6zm-1.5-1q0-1.2-.9-1.2a.7.7 0 0 0-.6.3 2 2 0 0 0-.3 1h1.8zm7.8-4.3v7.4h-1.4v-.6l-.6.6-.9.2a1.7 1.7 0 0 1-1.5-.8 3.7 3.7 0 0 1-.5-2.1 3.7 3.7 0 0 1 .3-1.5 2.3 2.3 0 0 1 .8-1 1.9 1.9 0 0 1 1.2-.4h.7l.6.4v-2.6zm-1.6 5.8v-2.3l-.4-.3h-.4a.8.8 0 0 0-.7.4 2.4 2.4 0 0 0-.3 1.3 2.7 2.7 0 0 0 .2 1.3.7.7 0 0 0 .7.4 1.1 1.1 0 0 0 .9-.7zm3.3-2.1h3.2v1.2H182zm9.3-1a3.6 3.6 0 0 1 .5 2.1 3.9 3.9 0 0 1-.3 1.5 2.3 2.3 0 0 1-.7 1 1.8 1.8 0 0 1-1.1.4l-.8-.2-.6-.5v.5h-1.4v-7.4l1.6-.2v2.8l.6-.5.8-.2a1.7 1.7 0 0 1 1.4.7zm-1.1 2.1a2.7 2.7 0 0 0-.2-1.3.7.7 0 0 0-.6-.4 1.1 1.1 0 0 0-.9.6v2.2a1 1 0 0 0 .8.5q.8.1.8-1.6zm6 2.7a3.1 3.1 0 0 1-1 1.6 3.5 3.5 0 0 1-1.9.6l-.2-1.1 1.1-.3a1.6 1.6 0 0 0 .6-.8h-.5l-1.6-5.3h1.7l.9 4.3 1-4.3h1.6zm3.6-1.4a.9.9 0 0 1 .3.6.9.9 0 0 1-.3.6.9.9 0 0 1-.6.3.9.9 0 0 1-.9-.9.9.9 0 0 1 .3-.6.9.9 0 0 1 .6-.3.9.9 0 0 1 .6.3zm5.1-4l-.2 1.5h-.5a.8.8 0 0 0-.7.3 2.4 2.4 0 0 0-.4 1v2.6h-1.6v-5.3h1.4v1a1.9 1.9 0 0 1 .5-.9 1.2 1.2 0 0 1 .8-.3zm5.7 5.4h-1.4v-.7a1.8 1.8 0 0 1-1.6.8 1.4 1.4 0 0 1-1.1-.4 1.8 1.8 0 0 1-.4-1.2v-3.8h1.6v3.6a.9.9 0 0 0 .1.5l.4.2a1 1 0 0 0 .9-.6v-3.7h1.6zm6.3-4.8a3.6 3.6 0 0 1 .5 2.1 3.9 3.9 0 0 1-.3 1.5 2.3 2.3 0 0 1-.7 1 1.8 1.8 0 0 1-1.1.4l-.8-.2-.6-.5v.5h-1.4v-7.4l1.6-.2v2.8l.6-.5.8-.2a1.7 1.7 0 0 1 1.4.7zm-1.1 2.1a2.7 2.7 0 0 0-.2-1.3.7.7 0 0 0-.6-.4 1.1 1.1 0 0 0-.9.6v2.2a1 1 0 0 0 .8.5q.9.1.9-1.6zm4.7-5.2a.9.9 0 0 1 0 1.3.9.9 0 0 1-.7.3.9.9 0 0 1-.7-.3.9.9 0 0 1 0-1.3.9.9 0 0 1 .7-.3.9.9 0 0 1 .7.3zm.1 7.8H219v-5.3h1.6zm5.1-5.3l.8.5-.7.9a1.7 1.7 0 0 0-1-.4.9.9 0 0 0-.8.4 2.3 2.3 0 0 0-.3 1.3 2 2 0 0 0 .3 1.2.9.9 0 0 0 .8.3h.5l.5-.3.7 1a2.8 2.8 0 0 1-1.8.6 2.7 2.7 0 0 1-1.4-.3 2.3 2.3 0 0 1-.9-1 3.2 3.2 0 0 1-.3-1.5 3.3 3.3 0 0 1 .3-1.5 2.4 2.4 0 0 1 .9-1 2.5 2.5 0 0 1 1.4-.4zm6.2.6a2.9 2.9 0 0 1 .7 2.1 3.3 3.3 0 0 1-.3 1.5 2.3 2.3 0 0 1-.9 1 2.7 2.7 0 0 1-1.4.3 2.5 2.5 0 0 1-1.9-.7 2.9 2.9 0 0 1-.7-2.1 3.3 3.3 0 0 1 .3-1.5 2.3 2.3 0 0 1 .9-1 2.6 2.6 0 0 1 1.4-.3 2.5 2.5 0 0 1 1.9.7zm-2.6.8a2.5 2.5 0 0 0-.2 1.3 2.6 2.6 0 0 0 .2 1.3.8.8 0 0 0 1.4 0 2.5 2.5 0 0 0 .2-1.3 2.6 2.6 0 0 0-.2-1.3.8.8 0 0 0-1.4 0zm9-1.1a1.7 1.7 0 0 1 .4 1.2v3.9h-1.6v-3.6a.9.9 0 0 0-.1-.6l-.4-.2q-.5 0-.9.7v3.6h-1.6v-5.3h1.4v.6l.7-.6.9-.2a1.4 1.4 0 0 1 1.2.5zm6.7.3a3.7 3.7 0 0 1 .5 2.1 4 4 0 0 1-.3 1.5 2.3 2.3 0 0 1-.7 1 1.8 1.8 0 0 1-1.1.4 1.6 1.6 0 0 1-1.3-.6v2.4l-1.6.2v-7.5h1.4v.6l.7-.6.8-.2a1.7 1.7 0 0 1 1.6.7zm-1.1 2.1a2.8 2.8 0 0 0-.2-1.3.7.7 0 0 0-.7-.4l-.5.2-.4.5v2.2a.9.9 0 0 0 .8.5q.9 0 .9-1.7zm6.6-2.7l-.2 1.5h-.5a.8.8 0 0 0-.7.3 2.4 2.4 0 0 0-.4 1v2.6h-1.6v-5.3h1.4v1a1.9 1.9 0 0 1 .5-.9 1.2 1.2 0 0 1 .8-.3zm5.3.6a2.9 2.9 0 0 1 .7 2.1 3.3 3.3 0 0 1-.3 1.5 2.3 2.3 0 0 1-.9 1 2.7 2.7 0 0 1-1.4.3 2.5 2.5 0 0 1-1.9-.7 2.9 2.9 0 0 1-.7-2.1 3.3 3.3 0 0 1 .3-1.5 2.3 2.3 0 0 1 .9-1 2.6 2.6 0 0 1 1.4-.3 2.5 2.5 0 0 1 1.9.7zm-2.6.8a2.5 2.5 0 0 0-.2 1.3 2.6 2.6 0 0 0 .2 1.3.8.8 0 0 0 1.4 0 2.5 2.5 0 0 0 .2-1.3 2.6 2.6 0 0 0-.2-1.3.8.8 0 0 0-1.4 0zm6.4 3.4a3.1 3.1 0 0 1-.3 1.4 2.3 2.3 0 0 1-.7.9l-1.1.6-.5-1.1.6-.3.3-.5a1.9 1.9 0 0 0 .1-.8v-4.8h1.6zm-.1-7.2a.9.9 0 0 1 0 1.3.9.9 0 0 1-.7.3.9.9 0 0 1-.7-.3.9.9 0 0 1 0-1.3.9.9 0 0 1 .7-.3.9.9 0 0 1 .6.2zm6.5 5.6h-3.3a1.4 1.4 0 0 0 .4.9 1.2 1.2 0 0 0 .8.3h.6l.6-.4.6.9a3.2 3.2 0 0 1-2.1.7 2.5 2.5 0 0 1-2-.8 2.9 2.9 0 0 1-.7-2 3.5 3.5 0 0 1 .3-1.5 2.3 2.3 0 0 1 2.2-1.4 2.3 2.3 0 0 1 1.8.7 2.9 2.9 0 0 1 .6 2 4.7 4.7 0 0 1 .2.6zm-1.5-1q0-1.2-.9-1.2a.7.7 0 0 0-.6.3 2 2 0 0 0-.3 1h1.8zm6.3-2.2l.8.5-.7.9a1.7 1.7 0 0 0-1-.4.9.9 0 0 0-.8.4 2.3 2.3 0 0 0-.3 1.3 2 2 0 0 0 .3 1.2.9.9 0 0 0 .8.3h.5l.5-.3.7 1a2.8 2.8 0 0 1-1.8.6 2.7 2.7 0 0 1-1.4-.3 2.3 2.3 0 0 1-.9-1 3.2 3.2 0 0 1-.3-1.5 3.3 3.3 0 0 1 .3-1.5 2.4 2.4 0 0 1 .9-1 2.5 2.5 0 0 1 1.4-.4zm5.4 5.1l-.7.3h-.8q-1.7 0-1.7-1.9v-2.5h-.7v-1.1h.7v-1.1l1.6-.2v1.3h1.2l-.2 1.1h-1v2.6a.9.9 0 0 0 .1.5l.4.2.6-.2zm2.4-1.1a.9.9 0 0 1 .3.6.9.9 0 0 1-.3.6.9.9 0 0 1-.6.3.9.9 0 0 1-.9-.9.9.9 0 0 1 .3-.6.9.9 0 0 1 .6-.3.9.9 0 0 1 .6.3zm4.9-4l.8.5-.7.9a1.7 1.7 0 0 0-1-.4.9.9 0 0 0-.8.4 2.3 2.3 0 0 0-.3 1.3 2 2 0 0 0 .3 1.2.9.9 0 0 0 .8.3h.5l.5-.3.7 1a2.8 2.8 0 0 1-1.8.6 2.7 2.7 0 0 1-1.4-.3 2.3 2.3 0 0 1-.9-1 3.2 3.2 0 0 1-.3-1.5 3.3 3.3 0 0 1 .3-1.5 2.4 2.4 0 0 1 .9-1 2.5 2.5 0 0 1 1.4-.4zm6.2.6a2.9 2.9 0 0 1 .7 2.1 3.3 3.3 0 0 1-.3 1.5 2.3 2.3 0 0 1-.9 1 2.7 2.7 0 0 1-1.4.3 2.5 2.5 0 0 1-1.9-.7 2.9 2.9 0 0 1-.7-2.1 3.3 3.3 0 0 1 .3-1.5 2.3 2.3 0 0 1 .9-1 2.6 2.6 0 0 1 1.4-.3 2.5 2.5 0 0 1 1.9.7zm-2.6.8a2.5 2.5 0 0 0-.2 1.3 2.6 2.6 0 0 0 .2 1.3.8.8 0 0 0 1.4 0 2.5 2.5 0 0 0 .2-1.3 2.6 2.6 0 0 0-.2-1.3.8.8 0 0 0-1.4 0zm11.7-1.1a1.7 1.7 0 0 1 .4 1.2v3.9h-1.6v-3.6q0-.7-.4-.7l-.4.2-.4.5v3.6h-1.6v-3.6q0-.7-.4-.7l-.4.2-.4.5v3.6H292v-5.3h1.4v.6l.7-.6.9-.2.8.2a1.3 1.3 0 0 1 .5.6l.7-.6.9-.2a1.3 1.3 0 0 1 .9.4zm5.7-2.8l-2.3 8.9-.8-.2 2.3-8.9zm5.9 7.1l.3.2-.2.6-.7-.2a1.1 1.1 0 0 1-.4-.6 1.8 1.8 0 0 1-1.6.8 1.7 1.7 0 0 1-1.2-.4 1.5 1.5 0 0 1-.4-1.1 1.5 1.5 0 0 1 .6-1.3 2.8 2.8 0 0 1 1.7-.4h.8v-.4a1 1 0 0 0-.3-.8 1.2 1.2 0 0 0-.8-.2l-1.4.3-.2-.7a5.3 5.3 0 0 1 1.8-.4 1.9 1.9 0 0 1 1.4.5 1.7 1.7 0 0 1 .5 1.3v2.4a.8.8 0 0 0 .1.4zm-1-.6v-1.2h-.7q-1.5 0-1.5 1.1a1 1 0 0 0 .2.7.9.9 0 0 0 .7.2 1.4 1.4 0 0 0 1.3-.8zm6.6-6.5l-2.3 8.9-.8-.2 2.3-8.9zm4.5 7.9h-.9v-5.7l-1.6.9-.4-.6 2.1-1.3h.8zm6.2-5.9a6.1 6.1 0 0 1 0 5.1 2 2 0 0 1-3.3 0 6.1 6.1 0 0 1 0-5.1 2 2 0 0 1 3.3 0zm-2.6.5a7 7 0 0 0 0 4.2 1 1 0 0 0 1.9 0 6.9 6.9 0 0 0 0-4.2 1 1 0 0 0-1.9 0zm9.3 3.7h-.9v1.6h-.9v-1.6h-2.9v-.7l2-4.5.8.3-1.8 4.1h1.9v-1.8h.8v1.8h.9zm5.1-4.3h-2.6v2l1.1-.3a1.8 1.8 0 0 1 1.4.6 2.2 2.2 0 0 1 .5 1.6 2.3 2.3 0 0 1-.3 1.2 2 2 0 0 1-.8.8 2.5 2.5 0 0 1-1.2.3l-1.1-.2-.9-.6.6-.5.6.5.8.2a1.3 1.3 0 0 0 1-.4 1.6 1.6 0 0 0 .4-1.1 1.4 1.4 0 0 0-.3-1.1 1.2 1.2 0 0 0-.9-.3h-.5l-.5.2h-.8v-3.4h3.6zm4.7-.6a1.8 1.8 0 0 1 .7.7 1.8 1.8 0 0 1 .2.9 2.6 2.6 0 0 1-.3 1.2 5.7 5.7 0 0 1-.8 1.2l-1.7 1.8h3v.8h-3.9v-.8l1.9-2 .8-1.1a2.3 2.3 0 0 0 .2-1 1 1 0 0 0-1.1-1.1l-.7.2-.6.6-.6-.5a2.7 2.7 0 0 1 .9-.8l1.1-.2zm6.4-1.3l-2.3 8.9-.8-.2 2.3-8.9zm4.7 1.3a1.8 1.8 0 0 1 .7.7 1.8 1.8 0 0 1 .2.9 2.6 2.6 0 0 1-.3 1.2 5.7 5.7 0 0 1-.8 1.2l-1.7 1.8h3v.8h-3.9v-.8l1.9-2 .8-1.1a2.3 2.3 0 0 0 .2-1 1 1 0 0 0-1.1-1.1l-.7.2-.6.6-.6-.5a2.7 2.7 0 0 1 .9-.8l1.1-.2zm5.5 0a1.8 1.8 0 0 1 .7.7 1.8 1.8 0 0 1 .2.9 2.6 2.6 0 0 1-.3 1.2 5.7 5.7 0 0 1-.8 1.2l-1.7 1.8h3v.8H357v-.8l1.9-2 .8-1.1a2.3 2.3 0 0 0 .2-1 1 1 0 0 0-1.1-1.1l-.7.2-.6.6-.6-.5a2.7 2.7 0 0 1 .9-.8l1.1-.2zm6.4-1.3l-2.3 8.9-.8-.2 2.3-8.9zm5.8 6.2h-.9v1.6h-.9v-1.6h-2.9v-.7l2-4.5.8.3-1.8 4.1h1.9v-1.8h.8v1.8h.9zm4.9-2.5a1.7 1.7 0 0 1 .7.7 2.5 2.5 0 0 1 .2 1.2 2.7 2.7 0 0 1-.3 1.3 2.1 2.1 0 0 1-.8.8 2 2 0 0 1-1.1.3 1.9 1.9 0 0 1-1.7-.9 4.5 4.5 0 0 1-.5-2.4 5.5 5.5 0 0 1 .3-1.9 2.9 2.9 0 0 1 .9-1.3 2.1 2.1 0 0 1 1.3-.5 2.4 2.4 0 0 1 1.4.4l-.4.6a1.9 1.9 0 0 0-1-.3 1.3 1.3 0 0 0-1.1.7 3.8 3.8 0 0 0-.5 1.8 1.9 1.9 0 0 1 1.6-.9zm-.3 3.1a2 2 0 0 0 .3-1.2q0-1.4-1.1-1.4l-.8.2a2.1 2.1 0 0 0-.6.7 3.4 3.4 0 0 0 .3 1.6 1.1 1.1 0 0 0 1 .5 1 1 0 0 0 .9-.4zm5.5-5.5a1.7 1.7 0 0 1 .7.6 1.6 1.6 0 0 1 .2.8 1.4 1.4 0 0 1-.4 1 1.8 1.8 0 0 1-.9.5 1.7 1.7 0 0 1 1.1.5 1.5 1.5 0 0 1 .4 1.1 2 2 0 0 1-.3 1 1.9 1.9 0 0 1-.8.7l-1.2.3-1.1-.2a2.5 2.5 0 0 1-.9-.7l.5-.5.7.5.8.2a1.3 1.3 0 0 0 1-.4 1.3 1.3 0 0 0 .4-1 1.1 1.1 0 0 0-.3-.9 1.6 1.6 0 0 0-1-.3h-.5v-.7h.3a1.2 1.2 0 0 0 .9-.3 1.1 1.1 0 0 0 .3-.9 1 1 0 0 0-.3-.7 1.2 1.2 0 0 0-.8-.3h-.7l-.7.5-.5-.5a2.7 2.7 0 0 1 1.9-.8zm7.2 4.9h-.9v1.6h-.9v-1.6h-2.9v-.7l2-4.5.8.3-1.8 4.1h1.9v-1.8h.8v1.8h.9zm5.1-4.4a3 3 0 0 1 .5 1.9 5.5 5.5 0 0 1-.4 2.2 3 3 0 0 1-1.1 1.3 7.8 7.8 0 0 1-2.1.9l-.2-.7a5.1 5.1 0 0 0 2.1-1 2.4 2.4 0 0 0 .8-1.7l-.6.6-.9.2-.9-.3a1.8 1.8 0 0 1-.7-.7 2.5 2.5 0 0 1-.2-1.1 2.3 2.3 0 0 1 .3-1.2 2 2 0 0 1 .8-.8l1.1-.3a1.9 1.9 0 0 1 1.5.7zm-.4 2.1a3.1 3.1 0 0 0-.3-1.6 1 1 0 0 0-.9-.5 1.1 1.1 0 0 0-.9.4 1.7 1.7 0 0 0-.3 1.1 1.6 1.6 0 0 0 .3 1.1 1 1 0 0 0 .8.4 1.6 1.6 0 0 0 1.4-.9zm6.1-2l-2.5 6.1-.8-.3 2.4-5.8h-3v-.7h3.9zm4.3-.6a1.8 1.8 0 0 1 .7.7 1.8 1.8 0 0 1 .2.9 2.6 2.6 0 0 1-.3 1.2 5.7 5.7 0 0 1-.8 1.2l-1.7 1.8h3v.8h-3.9v-.8l1.9-2 .8-1.1a2.3 2.3 0 0 0 .2-1 1 1 0 0 0-1.1-1.1l-.7.2-.6.6-.6-.5a2.7 2.7 0 0 1 .9-.8l1.1-.2zm7.2 4.9h-.9v1.6h-.9v-1.6H407v-.7l2-4.5.8.3-1.8 4.1h1.9v-1.8h.8v1.8h.9zm5.1-4.4a3 3 0 0 1 .5 1.9 5.5 5.5 0 0 1-.4 2.2 3 3 0 0 1-1.1 1.3 7.8 7.8 0 0 1-2.1.9l-.2-.7a5.1 5.1 0 0 0 2.1-1 2.4 2.4 0 0 0 .8-1.7l-.6.6-.9.2-.9-.3a1.8 1.8 0 0 1-.7-.7 2.5 2.5 0 0 1-.2-1.1 2.3 2.3 0 0 1 .3-1.2 2 2 0 0 1 .8-.8l1.1-.3a1.9 1.9 0 0 1 1.5.7zm-.4 2.1a3.1 3.1 0 0 0-.3-1.6 1 1 0 0 0-.9-.5 1.1 1.1 0 0 0-.9.4 1.7 1.7 0 0 0-.3 1.1 1.6 1.6 0 0 0 .3 1.1 1 1 0 0 0 .8.4 1.6 1.6 0 0 0 1.3-.9zm5.2-2.6a1.7 1.7 0 0 1 .7.6 1.6 1.6 0 0 1 .2.8 1.4 1.4 0 0 1-.4 1 1.8 1.8 0 0 1-.9.5 1.7 1.7 0 0 1 1.1.5 1.5 1.5 0 0 1 .4 1.1 2 2 0 0 1-.3 1 1.9 1.9 0 0 1-.8.7l-1.2.3-1.1-.2a2.5 2.5 0 0 1-.9-.7l.5-.5.7.5.8.2a1.3 1.3 0 0 0 1-.4 1.3 1.3 0 0 0 .4-1 1.1 1.1 0 0 0-.3-.9 1.6 1.6 0 0 0-1-.3h-.5v-.7h.3a1.2 1.2 0 0 0 .9-.3 1.1 1.1 0 0 0 .3-.9 1 1 0 0 0-.3-.7 1.2 1.2 0 0 0-.8-.3h-.7l-.7.5-.5-.5a2.7 2.7 0 0 1 1.9-.8zm5.6 0a1.8 1.8 0 0 1 .7.7 1.8 1.8 0 0 1 .2.9 2.6 2.6 0 0 1-.3 1.2 5.7 5.7 0 0 1-.8 1.2l-1.7 1.8h3v.8h-3.9v-.8l1.9-2 .8-1.1a2.3 2.3 0 0 0 .2-1 1 1 0 0 0-1.1-1.1l-.7.2-.6.6-.6-.5a2.7 2.7 0 0 1 .9-.8l1.1-.2zm6.3.6l-2.5 6.1-.8-.3 2.4-5.8h-3v-.7h3.9zm5.7 4.2a1.7 1.7 0 0 1-.3 1 2 2 0 0 1-.8.7l-1.2.2-1.2-.2a1.9 1.9 0 0 1-.8-.7 1.7 1.7 0 0 1-.3-1 1.6 1.6 0 0 1 .3-1 2.5 2.5 0 0 1 1-.7 2 2 0 0 1-.8-.7 1.6 1.6 0 0 1-.3-.9 1.5 1.5 0 0 1 .3-.9 1.8 1.8 0 0 1 .7-.6l1-.2 1 .2a1.8 1.8 0 0 1 .8.6 1.5 1.5 0 0 1 .3.9 1.4 1.4 0 0 1-.3.9l-.9.6a1.9 1.9 0 0 1 1.5 1.8zm-1.3.9a1.1 1.1 0 0 0 .4-.8 1.2 1.2 0 0 0-.1-.6l-.4-.4-.9-.4h-.2a1.8 1.8 0 0 0-.7.6 1.6 1.6 0 0 0-.2.9 1.1 1.1 0 0 0 .4.9 1.5 1.5 0 0 0 1 .3 1.4 1.4 0 0 0 .7-.6zM436 188a1 1 0 0 0-.3.8.9.9 0 0 0 .3.7l.9.5h.2l.6-.5a1.2 1.2 0 0 0 .2-.7 1 1 0 0 0-.3-.7 1.2 1.2 0 0 0-.8-.3 1.2 1.2 0 0 0-.8.1zm9.2 4.1h-.9v1.6h-.9v-1.6h-2.9v-.7l2-4.5.8.3-1.8 4.1h1.9v-1.8h.8v1.8h.9zm2.6.6a.7.7 0 0 1 .2.5.7.7 0 0 1-.2.5l-.5.2-.5-.2a.7.7 0 0 1-.2-.5.7.7 0 0 1 .2-.5l.5-.2zm3.1.7a3.1 3.1 0 0 1-.2 1.2 1.7 1.7 0 0 1-.5.7l-1 .6-.3-.7.6-.4a1.1 1.1 0 0 0 .3-.5 2.8 2.8 0 0 0 .1-.9v-5h.9zm0-7.3a.6.6 0 0 1 .2.5.6.6 0 0 1-.2.4l-.5.2-.5-.2a.6.6 0 0 1-.2-.4.6.6 0 0 1 .2-.5l.5-.2zm4.9 2.4l.8.4-.4.6-.7-.3h-.7l-.7.2a.6.6 0 0 0 0 1l.9.3a3.2 3.2 0 0 1 1.3.6 1.3 1.3 0 0 1 .4 1 1.3 1.3 0 0 1-.6 1.2 2.6 2.6 0 0 1-1.5.4 2.9 2.9 0 0 1-2-.7l.5-.6a2.4 2.4 0 0 0 1.5.5l.8-.2a.7.7 0 0 0 .3-.6.8.8 0 0 0-.1-.4l-.4-.3-.8-.3a2.7 2.7 0 0 1-1.2-.6 1.3 1.3 0 0 1-.4-.9 1.2 1.2 0 0 1 .2-.7l.7-.5 1-.2zm5.4-1.5a1.5 1.5 0 0 1 .7.6 1.4 1.4 0 0 1 .2.8 1.5 1.5 0 0 1-.1.7l-.3.4-.5.4-.6.5a1 1 0 0 0-.2.7v.4h-.9v-.5a1.7 1.7 0 0 1 .1-.7l.3-.5.5-.4.6-.4a.7.7 0 0 0 .2-.5.8.8 0 0 0-.3-.6l-.7-.2a1.8 1.8 0 0 0-1.4.7l-.6-.5a2.6 2.6 0 0 1 2.1-1zm-.9 5.7a.7.7 0 0 1 .2.5.7.7 0 0 1-.2.5l-.5.2-.5-.2a.7.7 0 0 1-.2-.5.7.7 0 0 1 .2-.5l.5-.2zm6.3-4.2l.7.4-.4.6-.5-.3h-.6a1.1 1.1 0 0 0-1 .5 2.6 2.6 0 0 0-.4 1.5 2.5 2.5 0 0 0 .3 1.5 1.2 1.2 0 0 0 1 .5h.6l.6-.3.4.6a2.5 2.5 0 0 1-1.6.6 2.1 2.1 0 0 1-1.7-.7 3 3 0 0 1-.6-2 3.6 3.6 0 0 1 .3-1.5 2.3 2.3 0 0 1 .8-1 2.1 2.1 0 0 1 1.2-.3zm6.5.6a3.4 3.4 0 0 1 .5 2 3.9 3.9 0 0 1-.2 1.4 2.2 2.2 0 0 1-.7 1 1.8 1.8 0 0 1-1.1.3 1.7 1.7 0 0 1-1.4-.7v.6h-.8v-7.4h.9v2.9a1.8 1.8 0 0 1 1.5-.8 1.7 1.7 0 0 1 1.3.7zm-.8 3.6a2.7 2.7 0 0 0 .3-1.5 2.8 2.8 0 0 0-.3-1.5 1 1 0 0 0-.9-.5 1.5 1.5 0 0 0-1.2.8v2.5l.5.5.6.2a1.1 1.1 0 0 0 1-.5zm3.1-3.6h3.8v.8h-3.8zm0 1.9h3.8v.8h-3.8zm8.2 2.8h-.9v-5.7l-1.6.9-.4-.6 2.1-1.3h.8zm5.1-6.6a1.8 1.8 0 0 1 .7.7 1.8 1.8 0 0 1 .2.9 2.6 2.6 0 0 1-.3 1.2 5.7 5.7 0 0 1-.8 1.2l-1.7 1.8h3v.8h-3.9v-.8l1.9-2 .8-1.1a2.3 2.3 0 0 0 .2-1 1 1 0 0 0-1.1-1.1l-.7.2-.6.6-.6-.5a2.7 2.7 0 0 1 .9-.8l1.1-.2zm5.5 0a1.7 1.7 0 0 1 .7.6 1.6 1.6 0 0 1 .2.8 1.4 1.4 0 0 1-.4 1 1.8 1.8 0 0 1-.9.5 1.7 1.7 0 0 1 1.1.5 1.5 1.5 0 0 1 .4 1.1 2 2 0 0 1-.3 1 1.9 1.9 0 0 1-.8.7l-1.2.3-1.1-.2a2.5 2.5 0 0 1-.9-.7l.5-.5.7.5.8.2a1.3 1.3 0 0 0 1-.4 1.3 1.3 0 0 0 .4-1 1.1 1.1 0 0 0-.3-.9 1.6 1.6 0 0 0-1-.3h-.5v-.7h.3a1.2 1.2 0 0 0 .9-.3 1.1 1.1 0 0 0 .3-.9 1 1 0 0 0-.3-.7 1.2 1.2 0 0 0-.8-.3h-.7l-.7.5-.5-.5a2.7 2.7 0 0 1 1.9-.8zm5.6 0a1.8 1.8 0 0 1 .7.7 1.8 1.8 0 0 1 .2.9 2.6 2.6 0 0 1-.3 1.2 5.7 5.7 0 0 1-.8 1.2l-1.7 1.8h3v.8H497v-.8l1.9-2 .8-1.1a2.3 2.3 0 0 0 .2-1 1 1 0 0 0-1.1-1.1l-.7.2-.6.6-.6-.5a2.7 2.7 0 0 1 .9-.8l1.1-.2zm6.4.5a3 3 0 0 1 .5 1.9 5.5 5.5 0 0 1-.4 2.2 3 3 0 0 1-1.1 1.3 7.8 7.8 0 0 1-2.1.9l-.2-.7a5.1 5.1 0 0 0 2.1-1 2.4 2.4 0 0 0 .8-1.7l-.6.6-.9.2-.9-.3a1.8 1.8 0 0 1-.7-.7 2.5 2.5 0 0 1-.2-1.1 2.3 2.3 0 0 1 .3-1.2 2 2 0 0 1 .8-.8l1.1-.3a1.9 1.9 0 0 1 1.5.7zm-.4 2.1a3.1 3.1 0 0 0-.3-1.6 1 1 0 0 0-.9-.5 1.1 1.1 0 0 0-.9.4 1.7 1.7 0 0 0-.3 1.1 1.6 1.6 0 0 0 .3 1.1 1 1 0 0 0 .8.4 1.6 1.6 0 0 0 1.3-.9zm7.1 2.2a1.7 1.7 0 0 1-.3 1 2 2 0 0 1-.8.7l-1.2.2-1.2-.2a1.9 1.9 0 0 1-.8-.7 1.7 1.7 0 0 1-.3-1 1.6 1.6 0 0 1 .3-1 2.5 2.5 0 0 1 1-.7 2 2 0 0 1-.8-.7 1.6 1.6 0 0 1-.3-.9 1.5 1.5 0 0 1 .3-.9 1.8 1.8 0 0 1 .7-.6l1-.2 1 .2a1.8 1.8 0 0 1 .8.6 1.5 1.5 0 0 1 .3.9 1.4 1.4 0 0 1-.3.9l-.9.6a1.9 1.9 0 0 1 1.5 1.8zm-1.3.9a1.1 1.1 0 0 0 .4-.8 1.2 1.2 0 0 0-.1-.6l-.4-.4-.9-.4h-.2a1.8 1.8 0 0 0-.7.6 1.6 1.6 0 0 0-.2.9 1.1 1.1 0 0 0 .4.9 1.5 1.5 0 0 0 1 .3 1.4 1.4 0 0 0 .7-.6zm-1.8-4.9a1 1 0 0 0-.3.8.9.9 0 0 0 .3.7l.9.5h.2l.6-.5a1.2 1.2 0 0 0 .2-.7 1 1 0 0 0-.3-.7 1.2 1.2 0 0 0-.8-.3 1.2 1.2 0 0 0-.8.1zm8.2-.2l-2.5 6.1-.8-.3 2.4-5.8h-3v-.7h3.9zm4.2-.6a1.7 1.7 0 0 1 .7.6 1.6 1.6 0 0 1 .2.8 1.4 1.4 0 0 1-.4 1 1.8 1.8 0 0 1-.9.5 1.7 1.7 0 0 1 1.1.5 1.5 1.5 0 0 1 .4 1.1 2 2 0 0 1-.3 1 1.9 1.9 0 0 1-.8.7l-1.2.3-1.1-.2a2.5 2.5 0 0 1-.9-.7l.5-.5.7.5.8.2a1.3 1.3 0 0 0 1-.4 1.3 1.3 0 0 0 .4-1 1.1 1.1 0 0 0-.3-.9 1.6 1.6 0 0 0-1-.3h-.5v-.7h.3a1.2 1.2 0 0 0 .9-.3 1.1 1.1 0 0 0 .3-.9 1 1 0 0 0-.3-.7 1.2 1.2 0 0 0-.8-.3h-.7l-.7.5-.5-.5a2.7 2.7 0 0 1 1.9-.8zm5.6 0a1.8 1.8 0 0 1 .7.7 1.8 1.8 0 0 1 .2.9 2.6 2.6 0 0 1-.3 1.2 5.7 5.7 0 0 1-.8 1.2l-1.7 1.8h3v.8H525v-.8l1.9-2 .8-1.1a2.3 2.3 0 0 0 .2-1 1 1 0 0 0-1.1-1.1l-.7.2-.6.6-.6-.5a2.7 2.7 0 0 1 .9-.8l1.1-.2zm7.2 4.9h-.9v1.6h-.9v-1.6h-2.9v-.7l2-4.5.8.3-1.8 4.1h1.9v-1.8h.8v1.8h.9zm4.9-5.1a1.5 1.5 0 0 1 .6.5 1.4 1.4 0 0 1 .2.8 1.5 1.5 0 0 1-.4 1l-1 .8 1.8 1.7a7.6 7.6 0 0 0 .6-1.7l.9.3a7.4 7.4 0 0 1-.9 2l1.1 1-.7.5-1-.9a2.9 2.9 0 0 1-1 .7l-1.2.2-1.2-.2a1.8 1.8 0 0 1-.8-.7 1.7 1.7 0 0 1-.3-1 1.8 1.8 0 0 1 .3-1.1 3.9 3.9 0 0 1 1-.9l-.7-.9a1.6 1.6 0 0 1-.2-.9 1.4 1.4 0 0 1 .5-1.1 1.9 1.9 0 0 1 1.3-.4zm-2 4.2a1.3 1.3 0 0 0-.2.8 1 1 0 0 0 .4.9 1.6 1.6 0 0 0 1 .3l.8-.2.7-.5-2-1.9zm.4-3.5a.8.8 0 0 0-.2.6 1.1 1.1 0 0 0 .2.6l.6.7.8-.6a1 1 0 0 0 .3-.7.9.9 0 0 0-.2-.7l-.7-.2a.9.9 0 0 0-.8.3zm9.6.7l-.2.9h-.5a1 1 0 0 0-.8.4 2.7 2.7 0 0 0-.5 1.1v3h-.9v-5.3h.8v1.1a2 2 0 0 1 .6-.9 1.3 1.3 0 0 1 .8-.3zm2.8-1.2a.8.8 0 0 0-.2.6v.7h1.3v.7h-1.2v4.6h-.9v-4.6h-.9v-.7h.9v-.7a1.4 1.4 0 0 1 .4-1.1 1.7 1.7 0 0 1 1.2-.4h.6l.6.2-.3.7-.9-.2zm2.5 1.9h3.8v.8h-3.8zm0 1.9h3.8v.8h-3.8zm9.5 2l.3.2-.2.6-.7-.2a1.1 1.1 0 0 1-.4-.6 1.8 1.8 0 0 1-1.6.8 1.7 1.7 0 0 1-1.2-.4 1.5 1.5 0 0 1-.4-1.1 1.5 1.5 0 0 1 .6-1.3 2.8 2.8 0 0 1 1.7-.4h.8v-.4a1 1 0 0 0-.3-.8 1.2 1.2 0 0 0-.8-.2l-1.4.3-.2-.7a5.3 5.3 0 0 1 1.8-.4 1.9 1.9 0 0 1 1.4.5 1.7 1.7 0 0 1 .5 1.3v2.4a.8.8 0 0 0 .1.4zm-1-.6v-1.2h-.7q-1.5 0-1.5 1.1a1 1 0 0 0 .2.7.9.9 0 0 0 .7.2 1.4 1.4 0 0 0 1.3-.8zm7.5-6v7.4h-.8v-.8l-.6.6-.9.2a1.7 1.7 0 0 1-1.5-.7 3.4 3.4 0 0 1-.5-2 3.9 3.9 0 0 1 .2-1.4 2.2 2.2 0 0 1 .7-1 1.8 1.8 0 0 1 1.1-.4 1.9 1.9 0 0 1 1.4.6v-2.8zm-1.5 6.6l.6-.6v-2.6l-.6-.5-.7-.2a1.1 1.1 0 0 0-.9.5 2.8 2.8 0 0 0-.3 1.5 2.9 2.9 0 0 0 .3 1.5 1 1 0 0 0 .9.5zm6.4-4.5l.8.4-.4.6-.7-.3h-.7l-.7.2a.6.6 0 0 0 0 1l.9.3a3.2 3.2 0 0 1 1.3.6 1.3 1.3 0 0 1 .4 1 1.3 1.3 0 0 1-.6 1.2 2.6 2.6 0 0 1-1.5.4 2.9 2.9 0 0 1-2-.7l.5-.6a2.4 2.4 0 0 0 1.5.5l.8-.2a.7.7 0 0 0 .3-.6.8.8 0 0 0-.1-.4l-.4-.3-.8-.3a2.7 2.7 0 0 1-1.2-.6 1.3 1.3 0 0 1-.4-.9 1.2 1.2 0 0 1 .2-.7l.7-.5 1-.2zm3.6 4.2a.7.7 0 0 1 .2.5.7.7 0 0 1-.2.5l-.5.2-.5-.2a.7.7 0 0 1-.2-.5.7.7 0 0 1 .2-.5l.5-.2zm5-4.3l-.2.9h-.5a1 1 0 0 0-.8.4 2.7 2.7 0 0 0-.5 1.1v3h-.9v-5.3h.8v1.1a2 2 0 0 1 .6-.9 1.3 1.3 0 0 1 .8-.3zm5.6 5.4h-.8v-.8a2 2 0 0 1-.7.7l-.9.2a1.4 1.4 0 0 1-1.1-.4 1.7 1.7 0 0 1-.4-1.2v-3.8h.9v3.7a1.2 1.2 0 0 0 .2.8.8.8 0 0 0 .6.2 1.6 1.6 0 0 0 1.3-.9v-3.8h.9zm6.3-4.7a3.4 3.4 0 0 1 .5 2 3.9 3.9 0 0 1-.2 1.4 2.2 2.2 0 0 1-.7 1 1.8 1.8 0 0 1-1.1.3 1.7 1.7 0 0 1-1.4-.7v.6h-.8v-7.4h.9v2.9a1.8 1.8 0 0 1 1.5-.8 1.7 1.7 0 0 1 1.3.7zm-.8 3.6a2.7 2.7 0 0 0 .3-1.5 2.8 2.8 0 0 0-.3-1.5 1 1 0 0 0-.9-.5 1.5 1.5 0 0 0-1.2.8v2.5l.5.5.6.2a1.1 1.1 0 0 0 1-.5zm4.4-6.6a.6.6 0 0 1 .2.5.6.6 0 0 1-.2.4l-.5.2-.5-.2a.6.6 0 0 1-.2-.4.6.6 0 0 1 .2-.5l.5-.2zm0 7.6h-.9v-5.3h.9zm5.3-5.2l.7.4-.4.6-.5-.3h-.6a1.1 1.1 0 0 0-1 .5 2.6 2.6 0 0 0-.4 1.5 2.5 2.5 0 0 0 .3 1.5 1.2 1.2 0 0 0 1 .5h.6l.6-.3.4.6a2.5 2.5 0 0 1-1.6.6 2.1 2.1 0 0 1-1.7-.7 3 3 0 0 1-.6-2 3.6 3.6 0 0 1 .3-1.5 2.3 2.3 0 0 1 .8-1 2.1 2.1 0 0 1 1.2-.3zm6.2.6a3.1 3.1 0 0 1 .6 2 3.5 3.5 0 0 1-.3 1.4 2.2 2.2 0 0 1-.8 1 2.3 2.3 0 0 1-1.3.3 2.1 2.1 0 0 1-1.7-.7 3 3 0 0 1-.6-2 3.5 3.5 0 0 1 .3-1.4 2.2 2.2 0 0 1 .8-1 2.3 2.3 0 0 1 1.3-.3 2.1 2.1 0 0 1 1.7.7zm-3.1 2q0 2 1.4 2t1.4-2q0-2-1.3-2t-1.5 2zm6.5 1.6a.7.7 0 0 1 .2.5.7.7 0 0 1-.2.5l-.5.2-.5-.2a.7.7 0 0 1-.2-.5.7.7 0 0 1 .2-.5l.5-.2zm3 0a.7.7 0 0 1 .2.5.7.7 0 0 1-.2.5l-.5.2-.5-.2a.7.7 0 0 1-.2-.5.7.7 0 0 1 .2-.5l.5-.2zm3 0a.7.7 0 0 1 .2.5.7.7 0 0 1-.2.5l-.5.2-.5-.2a.7.7 0 0 1-.2-.5.7.7 0 0 1 .2-.5l.5-.2z" fill="#212121"/><g fill="#607d8b"><path d="M50.7 191.1a2.5 2.5 0 0 1 .6 1.5v10.7a.9.9 0 0 1-.9.9H38.1a.9.9 0 0 1-.9-.9v-14.9a.9.9 0 0 1 .9-.9h8.3l.8.2.7.4zm-.6 11.9v-9.5h-3.8a.9.9 0 0 1-.9-.9v-3.8h-7V203zm-3.6-14.1v3.5H50l-.2-.4-2.8-3z"/><path d="M43 195.2h.3a.4.4 0 0 1 .1.3v.2H42v1.2h.8v-.6h.6v.8a.4.4 0 0 1-.1.3h-1.8a.4.4 0 0 1-.1-.3v-1.7a.4.4 0 0 1 .1-.3H43zm1 0h.6v2.5H44zm3.1.6h-1.2v.4h.8v.6h-.8v.8h-.6v-2.5h1.9z"/></g><g fill="#f87f76"><path d="M685.7 197.9l-2.4 2.4v-1.8h-4.2v-1.2h4.2v-1.8z" stroke="#f87f76" stroke-miterlimit="10"/><path d="M682 191.3a6.8 6.8 0 1 1-6.8 6.8 6.8 6.8 0 0 1 6.8-6.8m0-1.5a8.3 8.3 0 1 0 8.3 8.3 8.3 8.3 0 0 0-8.3-8.3z"/></g><path d="M746.3 193.7v8.7h8.7v1.2h-8.7a1.3 1.3 0 0 1-1.2-1.2v-8.7zm10-2.5a1.3 1.3 0 0 1 1.2 1.2v7.5a1.2 1.2 0 0 1-.4.9 1.2 1.2 0 0 1-.9.4h-7.5a1.3 1.3 0 0 1-1.3-1.3v-7.5a1.2 1.2 0 0 1 .4-.9 1.2 1.2 0 0 1 .9-.4zm-5 7.8l3.7-2.8-3.7-2.8z" fill="#00b0ff"/><path d="M94.1 187.5l.6.2a.8.8 0 0 1 .2.6v5.1a.9.9 0 0 1-.2.6.8.8 0 0 1-.6.3H80.4a.8.8 0 0 1-.6-.3.9.9 0 0 1-.2-.6v-5.1a.8.8 0 0 1 .2-.6l.6-.2zm0 8.5a.8.8 0 0 1 .6.3.9.9 0 0 1 .2.6v5.1a.8.8 0 0 1-.2.6l-.6.2H80.4l-.6-.2a.8.8 0 0 1-.2-.6v-5a.9.9 0 0 1 .2-.6.8.8 0 0 1 .6-.3zm-12.3-3.9a1.6 1.6 0 0 0 1.2.5 1.8 1.8 0 0 0 1.7-1.7 1.6 1.6 0 0 0-.5-1.2 1.7 1.7 0 0 0-1.2-.5 1.7 1.7 0 0 0-1.7 1.7 1.7 1.7 0 0 0 .5 1.3zm0 8.6a1.6 1.6 0 0 0 1.2.5 1.7 1.7 0 0 0 1.2-.5 1.6 1.6 0 0 0 .5-1.2 1.8 1.8 0 0 0-1.7-1.7 1.6 1.6 0 0 0-1.2.5 1.7 1.7 0 0 0-.5 1.2 1.6 1.6 0 0 0 .5 1.2z" fill="#607d8b"/><rect x="90.4" y="195" width="13.3" height="13.31" rx="1.7" ry="1.7" fill="#8bc34a"/><use width="9.2" height="9.15" transform="matrix(.83 0 0 .83 93.2 197.8)" xlink:href="#a"/><path fill="none" d="M.2 0h790v364H.2z"/></svg>