<svg xmlns="http://www.w3.org/2000/svg" viewBox="0 0 1359.3 548.8"><title>plane</title><path fill="none" d="M0 0h1359.3v548.77H0z"/><path fill="#9364de" fill-rule="evenodd" d="M359.2 319.7l-69.5-40.2-22.8 2 51 41.8 41.3-3.6z"/><path d="M414.8 330.2a8.3 8.3 0 0 0 5.7-13.5l-12.5-7.2a16.2 16.2 0 0 0-9.4-2.1l-107.3 9.1a65 65 0 0 1-41.2-10.4l-18.6-12.2L219 295l15.9 25.3-2.5-.2a4.5 4.5 0 0 0-2.6 8.5l6.4 3.4-4.5 11.7 9.7-.8 3.8-6.1s8.5 7.1 25.7 5.7z" fill="#9364de" fill-rule="evenodd"/><path fill="#512d8c" fill-rule="evenodd" d="M420.5 316.6l-11 .3-2.4-4.3 5.6-.5 7.8 4.5zm-176-14.2l-13-8.5L219 295l5.7 9.1 19.8-1.7zm26.5 40l143.9-12.3c6.6-.6 7.9-4.2 7.5-8.3l-177.2 15s8.4 7.1 25.5 5.7"/><path d="M355.4 333.5L297 382.2l-.7.3-19.5 1.7a1.2 1.2 0 0 1-1-2l39-47a1.2 1.2 0 0 1 .8-.4l38.9-3.3a1.2 1.2 0 0 1 .9 2.2" fill="#9364de" fill-rule="evenodd"/><path d="M286.5 325.1a2.5 2.5 0 1 0-2.3 2.7 2.5 2.5 0 0 0 2.3-2.7m8.4-.7a2.5 2.5 0 1 0-2.3 2.7 2.5 2.5 0 0 0 2.3-2.7m8.3-.7a2.5 2.5 0 1 0-2.3 2.7 2.5 2.5 0 0 0 2.3-2.7m8.4-.7a2.5 2.5 0 1 0-2.3 2.7 2.5 2.5 0 0 0 2.3-2.7m8.3-.7a2.5 2.5 0 1 0-2.3 2.7 2.5 2.5 0 0 0 2.3-2.7m8.4-.7a2.5 2.5 0 1 0-2.3 2.7 2.5 2.5 0 0 0 2.3-2.7m3.3-.3a2.5 2.5 0 1 0 2.3-2.7 2.5 2.5 0 0 0-2.3 2.7" fill="#483369" fill-rule="evenodd"/><path d="M345 320.1a2.5 2.5 0 1 0-2.3 2.7 2.5 2.5 0 0 0 2.3-2.7" fill="#f7aa22" fill-rule="evenodd"/><path d="M353.3 319.4a2.5 2.5 0 1 0-2.3 2.7 2.5 2.5 0 0 0 2.3-2.7m8.4-.7a2.5 2.5 0 1 0-2.3 2.7 2.5 2.5 0 0 0 2.3-2.7m8.3-.7a2.5 2.5 0 1 0-2.3 2.7 2.5 2.5 0 0 0 2.3-2.7m8.4-.7a2.5 2.5 0 1 0-2.3 2.7 2.5 2.5 0 0 0 2.3-2.7m8.3-.7a2.5 2.5 0 1 0-2.3 2.7 2.5 2.5 0 0 0 2.3-2.7" fill="#483369" fill-rule="evenodd"/></svg>