<svg xmlns="http://www.w3.org/2000/svg" viewBox="0 0 1360.7 548.8"><title>plane-bg</title><path fill="#2d194f" d="M0 548.8h1360l.7-548.8H.7L0 548.8z"/><g fill-rule="evenodd"><path fill="#483369" d="M921.5 548.8h-53.8V496l53.8 52.8zm-95.6 0h-24.8v-27.3l24.8 27.3z"/><path fill="#513c73" d="M867.7 548.8V496l-53.1 52.8h53.1zm319.8 0h39.7l-.6-39.9-39.1 39.9z"/><path fill="#483369" d="M1227.2 548.8l-.6-39.9 40.3 39.9h-39.7z"/><path fill="#513c73" d="M801.1 548.8v-27.3l-24.8 27.3h24.8zM215 159.5a15.5 15.5 0 0 1-23-1.2 15.5 15.5 0 1 1-12-25.3h.5a15.5 15.5 0 0 1 30.8-2 15.5 15.5 0 1 1 3.6 28.4z"/><path d="M1183.7 214.2a13.5 13.5 0 0 1-20.4-.7 13.5 13.5 0 1 1-10.5-22h.5a13.5 13.5 0 0 1 26.7-2.2 13.5 13.5 0 1 1 3.7 24.8z" fill="#483369"/><path d="M1079.6 294.8a12.2 12.2 0 0 1-18.8-1.4 12.3 12.3 0 0 1-10 5.2 13 13 0 0 1 0-26h.5a12.5 12.5 0 0 1 24.9-.4 12.1 12.1 0 0 1 7.6-2.7 13 13 0 0 1 0 26 12 12 0 0 1-4.2-.7zm156.5-75a20.8 20.8 0 0 1-30.9-.1 20.7 20.7 0 0 1-15.5 6.9 20 20 0 1 1 0-40h.5a20.5 20.5 0 0 1 40.8-3 20.8 20.8 0 0 1 10.7-3 20 20 0 1 1 0 40 21 21 0 0 1-5.6-.8zM.7 548.8h99.6V451L.7 548.8zm157 0h67.7v-73.2l-67.7 73.2z" fill="#513c73"/><path fill="#483369" d="M100.3 548.8V451l99.2 97.8h-99.2zm125.1 0v-73.2l66.2 73.2h-66.2z"/></g><g fill="#c9c9c9"><path d="M1300.9 392.1a.7.7 0 1 0-.4.9.7.7 0 0 0 .4-.9m-9.4-31.2a1.4 1.4 0 1 0 1.8-.8 1.4 1.4 0 0 0-1.8.8M823.2 54.7a.7.7 0 1 0-.4.9.7.7 0 0 0 .4-.9M851 70.3a1.4 1.4 0 1 0 1.8-.8 1.4 1.4 0 0 0-1.8.8m140.4 31.2a1.4 1.4 0 1 0-1.4 1.4 1.4 1.4 0 0 0 1.4-1.4m-34.2-22.4a.7.7 0 1 0-.4.9.7.7 0 0 0 .4-.9m26.6-16.6a1.4 1.4 0 1 0 1.8-.8 1.4 1.4 0 0 0-1.8.8M516.5 94a.7.7 0 1 0-.4.9.7.7 0 0 0 .4-.9m-34 .2a1.4 1.4 0 1 0 1.8-.8 1.4 1.4 0 0 0-1.8.8M359.2 441.9a1.4 1.4 0 1 0-1.4 1.4 1.4 1.4 0 0 0 1.4-1.4m50 0a1.4 1.4 0 1 0-1.4 1.4 1.4 1.4 0 0 0 1.4-1.4m28.3 61.4a1.4 1.4 0 1 0 1.8-.8 1.4 1.4 0 0 0-1.8.8m335.4-118.5a1.4 1.4 0 1 0 1.8-.8 1.4 1.4 0 0 0-1.8.8M424.3 486.6a.7.7 0 1 0-.4.9.7.7 0 0 0 .4-.9m330-123a.7.7 0 1 0-.4.9.7.7 0 0 0 .4-.9m-364 123.1a1.4 1.4 0 1 0 1.8-.8 1.4 1.4 0 0 0-1.8.8m566.2-76.2a1.4 1.4 0 1 0-1.4 1.4 1.4 1.4 0 0 0 1.4-1.4M755 396.4a1.4 1.4 0 1 0-1.4 1.4 1.4 1.4 0 0 0 1.4-1.4M389.4 195.5a1.4 1.4 0 1 0-1.4 1.4 1.4 1.4 0 0 0 1.4-1.4m-9.5 49.1a1.4 1.4 0 1 0-1.4 1.4 1.4 1.4 0 0 0 1.4-1.4m-59.5 20a1.4 1.4 0 1 0 1.8-.8 1.4 1.4 0 0 0-1.8.8m20-11.6a.7.7 0 1 0-.4.9.7.7 0 0 0 .4-.9m5.3-31.6a1.4 1.4 0 1 0 1.8-.8 1.4 1.4 0 0 0-1.8.8M269.9 99a1.4 1.4 0 1 0 1.8-.8 1.4 1.4 0 0 0-1.8.8m-8.1 135.7a.7.7 0 1 0-.4.9.7.7 0 0 0 .4-.9m-27.7-9.6a1.4 1.4 0 1 0-1.9.5 1.4 1.4 0 0 0 1.9-.5m27-122.9a.7.7 0 1 0 .6-.8.7.7 0 0 0-.6.8m678 295.7a1.4 1.4 0 1 0-1.4 1.4 1.4 1.4 0 0 0 1.4-1.4m40.6-35.4a1.4 1.4 0 1 0-1.4 1.4 1.4 1.4 0 0 0 1.4-1.4m-3.5-60.9a1.4 1.4 0 1 0 1.8-.8 1.4 1.4 0 0 0-1.8.8m5.6 10.9a.7.7 0 1 0-.4.9.7.7 0 0 0 .4-.9m27 17.1a1.4 1.4 0 1 0 1.8-.8 1.4 1.4 0 0 0-1.8.8m-159.2-11.1a1.4 1.4 0 1 0 1.8-.8 1.4 1.4 0 0 0-1.8.8m-15.2-97.1a1.4 1.4 0 1 0 1.8-.8 1.4 1.4 0 0 0-1.8.8m305.3 83.1a1.4 1.4 0 1 0 1.8-.8 1.4 1.4 0 0 0-1.8.8m-114.9-50.4a.7.7 0 1 0-.4.9.7.7 0 0 0 .4-.9m11.7-25.3a1.4 1.4 0 1 0-1.9.5 1.4 1.4 0 0 0 1.9-.5m-193.8 62a.7.7 0 1 0 .6-.8.7.7 0 0 0-.6.8m9.7 155.6a1.4 1.4 0 1 0 1.8-.8 1.4 1.4 0 0 0-1.8.8m50 52.3a.7.7 0 1 0 .6-.8.7.7 0 0 0-.6.8m192.9-317.3a1.4 1.4 0 1 0-1.9.5 1.4 1.4 0 0 0 1.9-.5m49.3-152.9a1.4 1.4 0 1 0-1.4 1.4 1.4 1.4 0 0 0 1.4-1.4m48.3 12.9a1.4 1.4 0 1 0-1.4 1.4 1.4 1.4 0 0 0 1.4-1.4m13.8 57.6a1.4 1.4 0 1 0 1.8-.8 1.4 1.4 0 0 0-1.8.8m-8.5-19.9a.7.7 0 1 0-.4.9.7.7 0 0 0 .4-.9m-32.8-8.3a1.4 1.4 0 1 0 1.8-.8 1.4 1.4 0 0 0-1.8.8M1048 138.6a1.4 1.4 0 1 0 1.8-.8 1.4 1.4 0 0 0-1.8.8m126.5 17.7a.7.7 0 1 0-.4.9.7.7 0 0 0 .4-.9m-123.9-8.9a.7.7 0 1 0 .6-.8.7.7 0 0 0-.6.8m-971-16.9a1.4 1.4 0 1 0-1.4 1.4 1.4 1.4 0 0 0 1.4-1.4m48.3 12.9a1.4 1.4 0 1 0-1.4 1.4 1.4 1.4 0 0 0 1.4-1.4m13.8 57.6a1.4 1.4 0 1 0 1.8-.8 1.4 1.4 0 0 0-1.8.8" fill-rule="evenodd"/><circle cx="132.6" cy="181.4" r=".7" transform="rotate(-19.7 133.074 181.814)"/><path d="M100.4 172.8a1.4 1.4 0 1 0 1.8-.8 1.4 1.4 0 0 0-1.8.8m511.4 268.3a1.4 1.4 0 1 0 1.8.6 1.4 1.4 0 0 0-1.8-.6m-68.1-84.4a1.4 1.4 0 1 0 1.8.6 1.4 1.4 0 0 0-1.8-.6m137-25.5a1.4 1.4 0 1 0-1.5-1.2 1.4 1.4 0 0 0 1.5 1.2" fill-rule="evenodd"/><circle cx="646.5" cy="386.1" r=".7" transform="rotate(-45.5 647.164 386.205)"/><path d="M663.7 415.6a1.4 1.4 0 1 0-1.5-1.2 1.4 1.4 0 0 0 1.5 1.2M109.5 258.3a.7.7 0 1 0-.4.9.7.7 0 0 0 .4-.9m-2 30.3a1.4 1.4 0 1 0-1.9.5 1.4 1.4 0 0 0 1.9-.5m-77.2-5.2a1.4 1.4 0 1 0-1.9.5 1.4 1.4 0 0 0 1.9-.5M691.6 38.5a1.4 1.4 0 1 0-1.4 1.4 1.4 1.4 0 0 0 1.4-1.4m48.3 12.9a1.4 1.4 0 1 0-1.4 1.4 1.4 1.4 0 0 0 1.4-1.4m13.8 57.6a1.4 1.4 0 1 0 1.8-.8 1.4 1.4 0 0 0-1.8.8m-8.5-19.9a.7.7 0 1 0-.4.9.7.7 0 0 0 .4-.9M595 148.6a1.4 1.4 0 1 0 1.8-.8 1.4 1.4 0 0 0-1.8.8m126.5 17.7a.7.7 0 1 0-.4.9.7.7 0 0 0 .4-.9m-2 40.3a1.4 1.4 0 1 0-1.9.5 1.4 1.4 0 0 0 1.9-.5m-121.9-49.2a.7.7 0 1 0 .6-.8.7.7 0 0 0-.6.8M531.4 218a1.4 1.4 0 1 0-1.4 1.4 1.4 1.4 0 0 0 1.4-1.4m48.3-.6a1.4 1.4 0 1 0-1.4 1.4 1.4 1.4 0 0 0 1.4-1.4m48.5 83.9a1.4 1.4 0 1 0 1.8-.8 1.4 1.4 0 0 0-1.8.8m-32.2-56a.7.7 0 1 0-.4.9.7.7 0 0 0 .4-.9m-36 27.9a1.4 1.4 0 1 0 1.8-.8 1.4 1.4 0 0 0-1.8.8M631.4 518a1.4 1.4 0 1 0-1.4 1.4 1.4 1.4 0 0 0 1.4-1.4m50.9-464.6a1.4 1.4 0 1 0-1.4 1.4 1.4 1.4 0 0 0 1.4-1.4m18.5 10.9v.1-.1m59.7 40.5a1.4 1.4 0 1 0 1.8-.8 1.4 1.4 0 0 0-1.8.8M747.3 88a.7.7 0 1 0-.4.9.7.7 0 0 0 .4-.9M617.4 195.1a1.4 1.4 0 1 0 1.8-.8 1.4 1.4 0 0 0-1.8.8m126.9-26.4a.7.7 0 1 0-.4.9.7.7 0 0 0 .4-.9m-33.9.1a1.4 1.4 0 1 0 1.8-.8 1.4 1.4 0 0 0-1.8.8m-88.1 33a.7.7 0 1 0 .6-.8.7.7 0 0 0-.6.8" fill-rule="evenodd"/></g><path fill="#513c73" d="M1106.5 371.7h64.8v177.04h-64.8z"/><path fill="#8d58e4" d="M980.9 371.7h125.7v177.04H980.9z"/><path fill="#483369" d="M991.7 487.8h13.7v13.77h-13.7zm0-19.7h13.7v13.77h-13.7zm0-19.7h13.7v13.77h-13.7zm0-19.6h13.7v13.77h-13.7zm0-19.7h13.7v13.77h-13.7zm0-19.7h13.7v13.77h-13.7zm20.6 98.4h13.7v13.77h-13.7zm0-19.7h13.7v13.77h-13.7z"/><path fill="#483369" fill-rule="evenodd" d="M1020.7 448.4h5.3v13.8h-13.7v-13.8h8.4"/><path fill="#483369" d="M1012.3 428.8h13.7v13.77h-13.7zm0-19.7h13.7v13.77h-13.7zm0-19.7h13.7v13.77h-13.7zm19.6 98.4h13.7v13.77h-13.7zm19.6 0h13.7v13.77h-13.7zm-19.6-19.7h13.7v13.77h-13.7zm19.6 0h13.7v13.77h-13.7zm-19.6-19.7h13.7v13.77h-13.7zm19.6 0h13.7v13.77h-13.7zm-19.6-19.6h13.7v13.77h-13.7z"/><path fill="#ffb114" d="M1051.5 428.8h13.7v13.77h-13.7z"/><path fill="#483369" d="M1031.9 409.1h13.7v13.77h-13.7zm19.6 0h13.7v13.77h-13.7zm-19.6-19.7h13.7v13.77h-13.7zm19.6 0h13.7v13.77h-13.7zm19.7 98.4h13.7v13.77h-13.7zm0-19.7h13.7v13.77h-13.7zm0-19.7h13.7v13.77h-13.7zm0-19.6h13.7v13.77h-13.7zm0-19.7h13.7v13.77h-13.7zm0-19.7h13.7v13.77h-13.7zm51 98.4h13.7v13.77h-13.7zm0-19.7h13.7v13.77h-13.7zm0-19.7h13.7v13.77h-13.7zm0-19.6h13.7v13.77h-13.7zm0-19.7h13.7v13.77h-13.7zm0-19.7h13.7v13.77h-13.7zm19.7 98.4h13.7v13.77h-13.7zm0-19.7h13.7v13.77h-13.7zm0-19.7h13.7v13.77h-13.7zm0-19.6h13.7v13.77h-13.7zm0-19.7h13.7v13.77h-13.7zm0-19.7h13.7v13.77h-13.7zM1026 522.2h35.3v26.56H1026z"/><path fill="#8d58e4" d="M1003.7 340.9h75.1v30.85h-75.1z"/><path d="M1022.7 361h-1.3v-4.7h-5.7v4.7h-1.3v-10.4h1.3v4.5h5.7v-4.5h1.3zm12-9.2a6.9 6.9 0 0 1 0 7.9 4.9 4.9 0 0 1-7 0 6.8 6.8 0 0 1 0-7.9 4.4 4.4 0 0 1 3.5-1.5 4.4 4.4 0 0 1 3.5 1.5zm-6 .9a4.8 4.8 0 0 0-.9 3.1 4.9 4.9 0 0 0 .9 3.1 3.3 3.3 0 0 0 5 0 5.7 5.7 0 0 0 0-6.2 3 3 0 0 0-2.5-1.1 3.1 3.1 0 0 0-2.5 1.1zm15.1 8.3h-1.3v-9.2h-3.3v-1.2h8v1.2h-3.3zm13.3-1.2v1.2h-6.4v-10.4h6.4v1.2h-5.1v3.3h4.9v1.2h-4.9v3.6zm10.2 0v1.2h-6.3v-10.4h1.3v9.2z" fill="#fff"/></svg>