<svg xmlns="http://www.w3.org/2000/svg" viewBox="0 0 1360.7 548.8">
  <title>plane-bg</title>
  <g>
    <polygon points="0 548.8 1360 548.8 1360.7 0 0.7 0 0 548.8" style="fill: #2d194f"/>
    <g>
      <polygon points="921.5 548.8 867.7 548.8 867.7 496 921.5 548.8" style="fill: #483369;fill-rule: evenodd"/>
      <polygon points="825.9 548.8 801.1 548.8 801.1 521.5 825.9 548.8" style="fill: #483369;fill-rule: evenodd"/>
      <polygon points="867.7 548.8 867.7 496 814.6 548.8 867.7 548.8" style="fill: #513c73;fill-rule: evenodd"/>
      <polygon points="1187.5 548.8 1227.2 548.8 1226.6 508.9 1187.5 548.8" style="fill: #513c73;fill-rule: evenodd"/>
      <polygon points="1227.2 548.8 1226.6 508.9 1266.9 548.8 1227.2 548.8" style="fill: #483369;fill-rule: evenodd"/>
      <polygon points="801.1 548.8 801.1 521.5 776.3 548.8 801.1 548.8" style="fill: #513c73;fill-rule: evenodd"/>
      <path d="M215,159.5a15.5,15.5,0,0,1-23-1.2A15.5,15.5,0,1,1,180,133h.5a15.5,15.5,0,0,1,30.8-2,15.5,15.5,0,1,1,3.6,28.4Z" style="fill: #513c73;fill-rule: evenodd"/>
      <path d="M1183.7,214.2a13.5,13.5,0,0,1-20.4-.7,13.5,13.5,0,1,1-10.5-22h.5a13.5,13.5,0,0,1,26.7-2.2,13.5,13.5,0,1,1,3.7,24.8Z" style="fill: #483369;fill-rule: evenodd"/>
      <path d="M1079.6,294.8a12.2,12.2,0,0,1-18.8-1.4,12.3,12.3,0,0,1-10,5.2,13,13,0,0,1,0-26h.5a12.5,12.5,0,0,1,24.9-.4,12.1,12.1,0,0,1,7.6-2.7,13,13,0,0,1,0,26A12,12,0,0,1,1079.6,294.8Z" style="fill: #513c73;fill-rule: evenodd"/>
      <path d="M1236.1,219.8a20.8,20.8,0,0,1-30.9-.1,20.7,20.7,0,0,1-15.5,6.9,20,20,0,1,1,0-40h.5a20.5,20.5,0,0,1,40.8-3,20.8,20.8,0,0,1,10.7-3,20,20,0,1,1,0,40A21,21,0,0,1,1236.1,219.8Z" style="fill: #513c73;fill-rule: evenodd"/>
      <polygon points="0.7 548.8 100.3 548.8 100.3 451 0.7 548.8" style="fill: #513c73;fill-rule: evenodd"/>
      <polygon points="157.7 548.8 225.4 548.8 225.4 475.6 157.7 548.8" style="fill: #513c73;fill-rule: evenodd"/>
      <polygon points="100.3 548.8 100.3 451 199.5 548.8 100.3 548.8" style="fill: #483369;fill-rule: evenodd"/>
      <polygon points="225.4 548.8 225.4 475.6 291.6 548.8 225.4 548.8" style="fill: #483369;fill-rule: evenodd"/>
    </g>
    <g>
      <path d="M1300.9,392.1a.7.7,0,1,0-.4.9.7.7,0,0,0,.4-.9" style="fill: #c9c9c9;fill-rule: evenodd"/>
      <path d="M1291.5,360.9a1.4,1.4,0,1,0,1.8-.8,1.4,1.4,0,0,0-1.8.8" style="fill: #c9c9c9;fill-rule: evenodd"/>
      <path d="M823.2,54.7a.7.7,0,1,0-.4.9.7.7,0,0,0,.4-.9" style="fill: #c9c9c9;fill-rule: evenodd"/>
      <path d="M851,70.3a1.4,1.4,0,1,0,1.8-.8,1.4,1.4,0,0,0-1.8.8" style="fill: #c9c9c9;fill-rule: evenodd"/>
      <path d="M991.4,101.5a1.4,1.4,0,1,0-1.4,1.4,1.4,1.4,0,0,0,1.4-1.4" style="fill: #c9c9c9;fill-rule: evenodd"/>
      <path d="M957.2,79.1a.7.7,0,1,0-.4.9.7.7,0,0,0,.4-.9" style="fill: #c9c9c9;fill-rule: evenodd"/>
      <path d="M983.8,62.5a1.4,1.4,0,1,0,1.8-.8,1.4,1.4,0,0,0-1.8.8" style="fill: #c9c9c9;fill-rule: evenodd"/>
      <path d="M516.5,94a.7.7,0,1,0-.4.9.7.7,0,0,0,.4-.9" style="fill: #c9c9c9;fill-rule: evenodd"/>
      <path d="M482.5,94.2a1.4,1.4,0,1,0,1.8-.8,1.4,1.4,0,0,0-1.8.8" style="fill: #c9c9c9;fill-rule: evenodd"/>
      <path d="M359.2,441.9a1.4,1.4,0,1,0-1.4,1.4,1.4,1.4,0,0,0,1.4-1.4" style="fill: #c9c9c9;fill-rule: evenodd"/>
      <path d="M409.2,441.9a1.4,1.4,0,1,0-1.4,1.4,1.4,1.4,0,0,0,1.4-1.4" style="fill: #c9c9c9;fill-rule: evenodd"/>
      <path d="M437.5,503.3a1.4,1.4,0,1,0,1.8-.8,1.4,1.4,0,0,0-1.8.8" style="fill: #c9c9c9;fill-rule: evenodd"/>
      <path d="M772.9,384.8a1.4,1.4,0,1,0,1.8-.8,1.4,1.4,0,0,0-1.8.8" style="fill: #c9c9c9;fill-rule: evenodd"/>
      <path d="M424.3,486.6a.7.7,0,1,0-.4.9.7.7,0,0,0,.4-.9" style="fill: #c9c9c9;fill-rule: evenodd"/>
      <path d="M754.3,363.6a.7.7,0,1,0-.4.9.7.7,0,0,0,.4-.9" style="fill: #c9c9c9;fill-rule: evenodd"/>
      <path d="M390.3,486.7a1.4,1.4,0,1,0,1.8-.8,1.4,1.4,0,0,0-1.8.8" style="fill: #c9c9c9;fill-rule: evenodd"/>
      <path d="M956.5,410.5a1.4,1.4,0,1,0-1.4,1.4,1.4,1.4,0,0,0,1.4-1.4" style="fill: #c9c9c9;fill-rule: evenodd"/>
      <path d="M755,396.4a1.4,1.4,0,1,0-1.4,1.4,1.4,1.4,0,0,0,1.4-1.4" style="fill: #c9c9c9;fill-rule: evenodd"/>
      <path d="M389.4,195.5a1.4,1.4,0,1,0-1.4,1.4,1.4,1.4,0,0,0,1.4-1.4" style="fill: #c9c9c9;fill-rule: evenodd"/>
      <path d="M379.9,244.6a1.4,1.4,0,1,0-1.4,1.4,1.4,1.4,0,0,0,1.4-1.4" style="fill: #c9c9c9;fill-rule: evenodd"/>
      <path d="M320.4,264.6a1.4,1.4,0,1,0,1.8-.8,1.4,1.4,0,0,0-1.8.8" style="fill: #c9c9c9;fill-rule: evenodd"/>
      <path d="M340.4,253a.7.7,0,1,0-.4.9.7.7,0,0,0,.4-.9" style="fill: #c9c9c9;fill-rule: evenodd"/>
      <path d="M345.7,221.4a1.4,1.4,0,1,0,1.8-.8,1.4,1.4,0,0,0-1.8.8" style="fill: #c9c9c9;fill-rule: evenodd"/>
      <path d="M269.9,99a1.4,1.4,0,1,0,1.8-.8,1.4,1.4,0,0,0-1.8.8" style="fill: #c9c9c9;fill-rule: evenodd"/>
      <path d="M261.8,234.7a.7.7,0,1,0-.4.9.7.7,0,0,0,.4-.9" style="fill: #c9c9c9;fill-rule: evenodd"/>
      <path d="M234.1,225.1a1.4,1.4,0,1,0-1.9.5,1.4,1.4,0,0,0,1.9-.5" style="fill: #c9c9c9;fill-rule: evenodd"/>
      <path d="M261.1,102.2a.7.7,0,1,0,.6-.8.7.7,0,0,0-.6.8" style="fill: #c9c9c9;fill-rule: evenodd"/>
      <path d="M939.1,397.9a1.4,1.4,0,1,0-1.4,1.4,1.4,1.4,0,0,0,1.4-1.4" style="fill: #c9c9c9;fill-rule: evenodd"/>
      <path d="M979.7,362.5a1.4,1.4,0,1,0-1.4,1.4,1.4,1.4,0,0,0,1.4-1.4" style="fill: #c9c9c9;fill-rule: evenodd"/>
      <path d="M976.2,301.6a1.4,1.4,0,1,0,1.8-.8,1.4,1.4,0,0,0-1.8.8" style="fill: #c9c9c9;fill-rule: evenodd"/>
      <path d="M981.8,312.5a.7.7,0,1,0-.4.9.7.7,0,0,0,.4-.9" style="fill: #c9c9c9;fill-rule: evenodd"/>
      <path d="M1008.8,329.6a1.4,1.4,0,1,0,1.8-.8,1.4,1.4,0,0,0-1.8.8" style="fill: #c9c9c9;fill-rule: evenodd"/>
      <path d="M849.6,318.5a1.4,1.4,0,1,0,1.8-.8,1.4,1.4,0,0,0-1.8.8" style="fill: #c9c9c9;fill-rule: evenodd"/>
      <path d="M834.4,221.4a1.4,1.4,0,1,0,1.8-.8,1.4,1.4,0,0,0-1.8.8" style="fill: #c9c9c9;fill-rule: evenodd"/>
      <path d="M1139.7,304.5a1.4,1.4,0,1,0,1.8-.8,1.4,1.4,0,0,0-1.8.8" style="fill: #c9c9c9;fill-rule: evenodd"/>
      <path d="M1024.8,254.1a.7.7,0,1,0-.4.9.7.7,0,0,0,.4-.9" style="fill: #c9c9c9;fill-rule: evenodd"/>
      <path d="M1036.5,228.8a1.4,1.4,0,1,0-1.9.5,1.4,1.4,0,0,0,1.9-.5" style="fill: #c9c9c9;fill-rule: evenodd"/>
      <path d="M842.7,290.8a.7.7,0,1,0,.6-.8.7.7,0,0,0-.6.8" style="fill: #c9c9c9;fill-rule: evenodd"/>
      <path d="M852.4,446.4a1.4,1.4,0,1,0,1.8-.8,1.4,1.4,0,0,0-1.8.8" style="fill: #c9c9c9;fill-rule: evenodd"/>
      <path d="M902.4,498.7a.7.7,0,1,0,.6-.8.7.7,0,0,0-.6.8" style="fill: #c9c9c9;fill-rule: evenodd"/>
      <path d="M1095.3,181.4a1.4,1.4,0,1,0-1.9.5,1.4,1.4,0,0,0,1.9-.5" style="fill: #c9c9c9;fill-rule: evenodd"/>
      <path d="M1144.6,28.5a1.4,1.4,0,1,0-1.4,1.4,1.4,1.4,0,0,0,1.4-1.4" style="fill: #c9c9c9;fill-rule: evenodd"/>
      <path d="M1192.9,41.4a1.4,1.4,0,1,0-1.4,1.4,1.4,1.4,0,0,0,1.4-1.4" style="fill: #c9c9c9;fill-rule: evenodd"/>
      <path d="M1206.7,99a1.4,1.4,0,1,0,1.8-.8,1.4,1.4,0,0,0-1.8.8" style="fill: #c9c9c9;fill-rule: evenodd"/>
      <path d="M1198.2,79.1a.7.7,0,1,0-.4.9.7.7,0,0,0,.4-.9" style="fill: #c9c9c9;fill-rule: evenodd"/>
      <path d="M1165.4,70.8a1.4,1.4,0,1,0,1.8-.8,1.4,1.4,0,0,0-1.8.8" style="fill: #c9c9c9;fill-rule: evenodd"/>
      <path d="M1048,138.6a1.4,1.4,0,1,0,1.8-.8,1.4,1.4,0,0,0-1.8.8" style="fill: #c9c9c9;fill-rule: evenodd"/>
      <path d="M1174.5,156.3a.7.7,0,1,0-.4.9.7.7,0,0,0,.4-.9" style="fill: #c9c9c9;fill-rule: evenodd"/>
      <path d="M1050.6,147.4a.7.7,0,1,0,.6-.8.7.7,0,0,0-.6.8" style="fill: #c9c9c9;fill-rule: evenodd"/>
      <path d="M79.6,130.5a1.4,1.4,0,1,0-1.4,1.4,1.4,1.4,0,0,0,1.4-1.4" style="fill: #c9c9c9;fill-rule: evenodd"/>
      <path d="M127.9,143.4a1.4,1.4,0,1,0-1.4,1.4,1.4,1.4,0,0,0,1.4-1.4" style="fill: #c9c9c9;fill-rule: evenodd"/>
      <path d="M141.7,201a1.4,1.4,0,1,0,1.8-.8,1.4,1.4,0,0,0-1.8.8" style="fill: #c9c9c9;fill-rule: evenodd"/>
      <circle cx="132.6" cy="181.4" r="0.7" transform="translate(-53.5 55.5) rotate(-19.7)" style="fill: #c9c9c9"/>
      <path d="M100.4,172.8a1.4,1.4,0,1,0,1.8-.8,1.4,1.4,0,0,0-1.8.8" style="fill: #c9c9c9;fill-rule: evenodd"/>
      <path d="M611.8,441.1a1.4,1.4,0,1,0,1.8.6,1.4,1.4,0,0,0-1.8-.6" style="fill: #c9c9c9;fill-rule: evenodd"/>
      <path d="M543.7,356.7a1.4,1.4,0,1,0,1.8.6,1.4,1.4,0,0,0-1.8-.6" style="fill: #c9c9c9;fill-rule: evenodd"/>
      <path d="M680.7,331.2a1.4,1.4,0,1,0-1.5-1.2,1.4,1.4,0,0,0,1.5,1.2" style="fill: #c9c9c9;fill-rule: evenodd"/>
      <circle cx="646.5" cy="386.1" r="0.7" transform="translate(-81.9 577.1) rotate(-45.5)" style="fill: #c9c9c9"/>
      <path d="M663.7,415.6a1.4,1.4,0,1,0-1.5-1.2,1.4,1.4,0,0,0,1.5,1.2" style="fill: #c9c9c9;fill-rule: evenodd"/>
      <path d="M109.5,258.3a.7.7,0,1,0-.4.9.7.7,0,0,0,.4-.9" style="fill: #c9c9c9;fill-rule: evenodd"/>
      <path d="M107.5,288.6a1.4,1.4,0,1,0-1.9.5,1.4,1.4,0,0,0,1.9-.5" style="fill: #c9c9c9;fill-rule: evenodd"/>
      <path d="M30.3,283.4a1.4,1.4,0,1,0-1.9.5,1.4,1.4,0,0,0,1.9-.5" style="fill: #c9c9c9;fill-rule: evenodd"/>
      <path d="M691.6,38.5a1.4,1.4,0,1,0-1.4,1.4,1.4,1.4,0,0,0,1.4-1.4" style="fill: #c9c9c9;fill-rule: evenodd"/>
      <path d="M739.9,51.4a1.4,1.4,0,1,0-1.4,1.4,1.4,1.4,0,0,0,1.4-1.4" style="fill: #c9c9c9;fill-rule: evenodd"/>
      <path d="M753.7,109a1.4,1.4,0,1,0,1.8-.8,1.4,1.4,0,0,0-1.8.8" style="fill: #c9c9c9;fill-rule: evenodd"/>
      <path d="M745.2,89.1a.7.7,0,1,0-.4.9.7.7,0,0,0,.4-.9" style="fill: #c9c9c9;fill-rule: evenodd"/>
      <path d="M595,148.6a1.4,1.4,0,1,0,1.8-.8,1.4,1.4,0,0,0-1.8.8" style="fill: #c9c9c9;fill-rule: evenodd"/>
      <path d="M721.5,166.3a.7.7,0,1,0-.4.9.7.7,0,0,0,.4-.9" style="fill: #c9c9c9;fill-rule: evenodd"/>
      <path d="M719.5,206.6a1.4,1.4,0,1,0-1.9.5,1.4,1.4,0,0,0,1.9-.5" style="fill: #c9c9c9;fill-rule: evenodd"/>
      <path d="M597.6,157.4a.7.7,0,1,0,.6-.8.7.7,0,0,0-.6.8" style="fill: #c9c9c9;fill-rule: evenodd"/>
      <path d="M531.4,218a1.4,1.4,0,1,0-1.4,1.4,1.4,1.4,0,0,0,1.4-1.4" style="fill: #c9c9c9;fill-rule: evenodd"/>
      <path d="M579.7,217.4a1.4,1.4,0,1,0-1.4,1.4,1.4,1.4,0,0,0,1.4-1.4" style="fill: #c9c9c9;fill-rule: evenodd"/>
      <path d="M628.2,301.3a1.4,1.4,0,1,0,1.8-.8,1.4,1.4,0,0,0-1.8.8" style="fill: #c9c9c9;fill-rule: evenodd"/>
      <path d="M596,245.3a.7.7,0,1,0-.4.9.7.7,0,0,0,.4-.9" style="fill: #c9c9c9;fill-rule: evenodd"/>
      <path d="M560,273.2a1.4,1.4,0,1,0,1.8-.8,1.4,1.4,0,0,0-1.8.8" style="fill: #c9c9c9;fill-rule: evenodd"/>
      <path d="M631.4,518a1.4,1.4,0,1,0-1.4,1.4,1.4,1.4,0,0,0,1.4-1.4" style="fill: #c9c9c9;fill-rule: evenodd"/>
      <path d="M682.3,53.4a1.4,1.4,0,1,0-1.4,1.4,1.4,1.4,0,0,0,1.4-1.4" style="fill: #c9c9c9;fill-rule: evenodd"/>
      <polyline points="700.8 64.3 700.8 64.3 700.8 64.3 700.8 64.4 700.8 64.3" style="fill: #c9c9c9;fill-rule: evenodd"/>
      <path d="M760.5,104.8a1.4,1.4,0,1,0,1.8-.8,1.4,1.4,0,0,0-1.8.8" style="fill: #c9c9c9;fill-rule: evenodd"/>
      <path d="M747.3,88a.7.7,0,1,0-.4.9.7.7,0,0,0,.4-.9" style="fill: #c9c9c9;fill-rule: evenodd"/>
      <path d="M617.4,195.1a1.4,1.4,0,1,0,1.8-.8,1.4,1.4,0,0,0-1.8.8" style="fill: #c9c9c9;fill-rule: evenodd"/>
      <path d="M744.3,168.7a.7.7,0,1,0-.4.9.7.7,0,0,0,.4-.9" style="fill: #c9c9c9;fill-rule: evenodd"/>
      <path d="M710.4,168.8a1.4,1.4,0,1,0,1.8-.8,1.4,1.4,0,0,0-1.8.8" style="fill: #c9c9c9;fill-rule: evenodd"/>
      <path d="M622.3,201.8a.7.7,0,1,0,.6-.8.7.7,0,0,0-.6.8" style="fill: #c9c9c9;fill-rule: evenodd"/>
    </g>
    <g>
      <rect x="1106.5" y="371.7" width="64.8" height="177.04" style="fill: #513c73"/>
      <rect x="980.9" y="371.7" width="125.7" height="177.04" style="fill: #8d58e4"/>
      <rect x="991.7" y="487.8" width="13.7" height="13.77" style="fill: #483369"/>
      <rect x="991.7" y="468.1" width="13.7" height="13.77" style="fill: #483369"/>
      <rect x="991.7" y="448.4" width="13.7" height="13.77" style="fill: #483369"/>
      <rect x="991.7" y="428.8" width="13.7" height="13.77" style="fill: #483369"/>
      <rect x="991.7" y="409.1" width="13.7" height="13.77" style="fill: #483369"/>
      <rect x="991.7" y="389.4" width="13.7" height="13.77" style="fill: #483369"/>
      <rect x="1012.3" y="487.8" width="13.7" height="13.77" style="fill: #483369"/>
      <rect x="1012.3" y="468.1" width="13.7" height="13.77" style="fill: #483369"/>
      <polyline points="1020.7 448.4 1026 448.4 1026 462.2 1012.3 462.2 1012.3 448.4 1020.7 448.4" style="fill: #483369;fill-rule: evenodd"/>
      <rect x="1012.3" y="428.8" width="13.7" height="13.77" style="fill: #483369"/>
      <rect x="1012.3" y="409.1" width="13.7" height="13.77" style="fill: #483369"/>
      <rect x="1012.3" y="389.4" width="13.7" height="13.77" style="fill: #483369"/>
      <rect x="1031.9" y="487.8" width="13.7" height="13.77" style="fill: #483369"/>
      <rect x="1051.5" y="487.8" width="13.7" height="13.77" style="fill: #483369"/>
      <rect x="1031.9" y="468.1" width="13.7" height="13.77" style="fill: #483369"/>
      <rect x="1051.5" y="468.1" width="13.7" height="13.77" style="fill: #483369"/>
      <rect x="1031.9" y="448.4" width="13.7" height="13.77" style="fill: #483369"/>
      <rect x="1051.5" y="448.4" width="13.7" height="13.77" style="fill: #483369"/>
      <rect x="1031.9" y="428.8" width="13.7" height="13.77" style="fill: #483369"/>
      <rect x="1051.5" y="428.8" width="13.7" height="13.77" style="fill: #ffb114"/>
      <rect x="1031.9" y="409.1" width="13.7" height="13.77" style="fill: #483369"/>
      <rect x="1051.5" y="409.1" width="13.7" height="13.77" style="fill: #483369"/>
      <rect x="1031.9" y="389.4" width="13.7" height="13.77" style="fill: #483369"/>
      <rect x="1051.5" y="389.4" width="13.7" height="13.77" style="fill: #483369"/>
      <rect x="1071.2" y="487.8" width="13.7" height="13.77" style="fill: #483369"/>
      <rect x="1071.2" y="468.1" width="13.7" height="13.77" style="fill: #483369"/>
      <rect x="1071.2" y="448.4" width="13.7" height="13.77" style="fill: #483369"/>
      <rect x="1071.2" y="428.8" width="13.7" height="13.77" style="fill: #483369"/>
      <rect x="1071.2" y="409.1" width="13.7" height="13.77" style="fill: #483369"/>
      <rect x="1071.2" y="389.4" width="13.7" height="13.77" style="fill: #483369"/>
      <rect x="1122.2" y="487.8" width="13.7" height="13.77" style="fill: #483369"/>
      <rect x="1122.2" y="468.1" width="13.7" height="13.77" style="fill: #483369"/>
      <rect x="1122.2" y="448.4" width="13.7" height="13.77" style="fill: #483369"/>
      <rect x="1122.2" y="428.8" width="13.7" height="13.77" style="fill: #483369"/>
      <rect x="1122.2" y="409.1" width="13.7" height="13.77" style="fill: #483369"/>
      <rect x="1122.2" y="389.4" width="13.7" height="13.77" style="fill: #483369"/>
      <rect x="1141.9" y="487.8" width="13.7" height="13.77" style="fill: #483369"/>
      <rect x="1141.9" y="468.1" width="13.7" height="13.77" style="fill: #483369"/>
      <rect x="1141.9" y="448.4" width="13.7" height="13.77" style="fill: #483369"/>
      <rect x="1141.9" y="428.8" width="13.7" height="13.77" style="fill: #483369"/>
      <rect x="1141.9" y="409.1" width="13.7" height="13.77" style="fill: #483369"/>
      <rect x="1141.9" y="389.4" width="13.7" height="13.77" style="fill: #483369"/>
      <rect x="1026" y="522.2" width="35.3" height="26.56" style="fill: #483369"/>
      <rect x="1003.7" y="340.9" width="75.1" height="30.85" style="fill: #8d58e4"/>
      <g>
        <path d="M1022.7,361h-1.3v-4.7h-5.7V361h-1.3V350.6h1.3v4.5h5.7v-4.5h1.3Z" style="fill: #fff"/>
        <path d="M1034.7,351.8a6.9,6.9,0,0,1,0,7.9,4.9,4.9,0,0,1-7,0,6.8,6.8,0,0,1,0-7.9,4.4,4.4,0,0,1,3.5-1.5A4.4,4.4,0,0,1,1034.7,351.8Zm-6,.9a4.8,4.8,0,0,0-.9,3.1,4.9,4.9,0,0,0,.9,3.1,3.3,3.3,0,0,0,5,0,5.7,5.7,0,0,0,0-6.2,3,3,0,0,0-2.5-1.1A3.1,3.1,0,0,0,1028.7,352.7Z" style="fill: #fff"/>
        <path d="M1043.8,361h-1.3v-9.2h-3.3v-1.2h8v1.2h-3.3Z" style="fill: #fff"/>
        <path d="M1057.1,359.8V361h-6.4V350.6h6.4v1.2H1052v3.3h4.9v1.2H1052v3.6Z" style="fill: #fff"/>
        <path d="M1067.3,359.8V361H1061V350.6h1.3v9.2Z" style="fill: #fff"/>
      </g>
    </g>
  </g>
</svg>
