<svg xmlns="http://www.w3.org/2000/svg" viewBox="0 0 1359.7 750"><path fill="#372143" d="M0 0h1359.7v750H0z"/><g fill="#46394f"><path d="M790.6 656.5a.9.9 0 1 1-.5-1.2.9.9 0 0 1 .5 1.2M827 636a1.8 1.8 0 1 1 2.3 1.1 1.8 1.8 0 0 1-2.3-1.1M1011.3 595.1a1.8 1.8 0 1 1-1.8-1.8 1.8 1.8 0 0 1 1.8 1.8M966.4 624.5a.9.9 0 1 1-.5-1.2.9.9 0 0 1 .5 1.2M1001.4 646.3a1.8 1.8 0 1 1 2.3 1.1 1.8 1.8 0 0 1-2.3-1.1M388 604.9a.9.9 0 1 1-.5-1.2.9.9 0 0 1 .5 1.2M343.4 604.7a1.8 1.8 0 1 1 2.3 1.1 1.8 1.8 0 0 1-2.3-1.1M181.6 148.3a1.8 1.8 0 1 1-1.8-1.8 1.8 1.8 0 0 1 1.8 1.8M247.3 148.3a1.8 1.8 0 1 1-1.8-1.8 1.8 1.8 0 0 1 1.8 1.8M116.2 243.9a1.8 1.8 0 1 1-1.8-1.8 1.8 1.8 0 0 1 1.8 1.8M284.3 67.8a1.8 1.8 0 1 1 2.3 1.1 1.8 1.8 0 0 1-2.3-1.1M724.6 223.3a1.8 1.8 0 1 1 2.3 1.1 1.8 1.8 0 0 1-2.3-1.1M267 89.7a.9.9 0 1 1-.5-1.2.9.9 0 0 1 .5 1.2M94.8 148.1a.9.9 0 1 1-.5-1.2.9.9 0 0 1 .5 1.2M700.1 251.1a.9.9 0 1 1-.5-1.2.9.9 0 0 1 .5 1.2M222.4 89.5a1.8 1.8 0 1 1 2.3 1.1 1.8 1.8 0 0 1-2.3-1.1M132.5 75.5a1.8 1.8 0 1 1 2.3 1.1 1.8 1.8 0 0 1-2.3-1.1M965.5 189.6a1.8 1.8 0 1 1-1.8-1.8 1.8 1.8 0 0 1 1.8 1.8M701.1 208.1a1.8 1.8 0 1 1-1.8-1.8 1.8 1.8 0 0 1 1.8 1.8M221.3 471.8a1.8 1.8 0 1 1-1.8-1.8 1.8 1.8 0 0 1 1.8 1.8M208.8 407.3a1.8 1.8 0 1 1-1.8-1.8 1.8 1.8 0 0 1 1.8 1.8M130.7 381.1a1.8 1.8 0 1 1 2.3 1.1 1.8 1.8 0 0 1-2.3-1.1M156.9 396.2a.9.9 0 1 1-.5-1.2.9.9 0 0 1 .5 1.2M163.9 437.7a1.8 1.8 0 1 1 2.3 1.1 1.8 1.8 0 0 1-2.3-1.1M64.4 598.4a1.8 1.8 0 1 1 2.3 1.1 1.8 1.8 0 0 1-2.3-1.1M53.7 420.3a.9.9 0 1 1-.5-1.2.9.9 0 0 1 .5 1.2M17.4 432.9a1.8 1.8 0 1 1-2.5-.7 1.8 1.8 0 0 1 2.5.7M52.9 594.2a.9.9 0 1 1 .7 1 .9.9 0 0 1-.7-1M942.7 206.1a1.8 1.8 0 1 1-1.8-1.8 1.8 1.8 0 0 1 1.8 1.8M996 252.6a1.8 1.8 0 1 1-1.8-1.8 1.8 1.8 0 0 1 1.8 1.8M991.4 332.5a1.8 1.8 0 1 1 2.3 1.1 1.8 1.8 0 0 1-2.3-1.1M998.8 318.2a.9.9 0 1 1-.5-1.2.9.9 0 0 1 .5 1.2M1034.1 295.8a1.8 1.8 0 1 1 2.3 1.1 1.8 1.8 0 0 1-2.3-1.1M825.2 310.3a1.8 1.8 0 1 1 2.3 1.1 1.8 1.8 0 0 1-2.3-1.1M805.3 437.7a1.8 1.8 0 1 1 2.3 1.1 1.8 1.8 0 0 1-2.3-1.1M1206 328.7a1.8 1.8 0 1 1 2.3 1.1 1.8 1.8 0 0 1-2.3-1.1M1055.1 394.8a.9.9 0 1 1-.5-1.2.9.9 0 0 1 .5 1.2M1053.8 156.9a1.8 1.8 0 1 1-2.5.4 1.8 1.8 0 0 1 2.5-.4M1114.7 208.7a1.8 1.8 0 1 1 2.3-1.2 1.8 1.8 0 0 1-2.3 1.2M1107.8 194.2a.9.9 0 1 1-1.3-.3.9.9 0 0 1 1.3.3M1111.2 152.5a1.8 1.8 0 1 1 2.3-1.2 1.8 1.8 0 0 1-2.3 1.2M1202.9 195.4a.9.9 0 1 1-1.3-.3.9.9 0 0 1 1.3.3M1070.6 428.1a1.8 1.8 0 1 1-2.5-.7 1.8 1.8 0 0 1 2.5.7M816.2 346.7a.9.9 0 1 1 .7 1 .9.9 0 0 1-.7-1M828.8 142.5a1.8 1.8 0 1 1 2.3 1.1 1.8 1.8 0 0 1-2.3-1.1M894.5 73.9a.9.9 0 1 1 .7 1 .9.9 0 0 1-.7-1M1147.7 490.2a1.8 1.8 0 1 1-2.5-.7 1.8 1.8 0 0 1 2.5.7M1212.4 691a1.8 1.8 0 1 1-1.8-1.8 1.8 1.8 0 0 1 1.8 1.8M1275.8 674a1.8 1.8 0 1 1-1.8-1.8 1.8 1.8 0 0 1 1.8 1.8M1293.9 598.4a1.8 1.8 0 1 1 2.3 1.1 1.8 1.8 0 0 1-2.3-1.1M1282.8 624.5a.9.9 0 1 1-.5-1.2.9.9 0 0 1 .5 1.2M1239.7 635.4a1.8 1.8 0 1 1 2.3 1.1 1.8 1.8 0 0 1-2.3-1.1M1085.6 546.4a1.8 1.8 0 1 1 2.3 1.1 1.8 1.8 0 0 1-2.3-1.1M1251.6 523.2a.9.9 0 1 1-.5-1.2.9.9 0 0 1 .5 1.2M1089.1 534.9a.9.9 0 1 1 .7 1 .9.9 0 0 1-.7-1M513.2 149.4a1.8 1.8 0 1 1 2.4-.8 1.8 1.8 0 0 1-2.4.8M423.8 260.1a1.8 1.8 0 1 1 2.4-.8 1.8 1.8 0 0 1-2.4.8M603.6 293.6a1.8 1.8 0 1 1-2 1.6 1.8 1.8 0 0 1 2-1.6" fill-rule="evenodd"/><circle cx="558.7" cy="221.6" r=".9" transform="rotate(-44.5 558.067 221.606)"/><path d="M581.2 182.9a1.8 1.8 0 1 1-2 1.6 1.8 1.8 0 0 1 2-1.6M617.9 677.8a1.8 1.8 0 1 1-1.8-1.8 1.8 1.8 0 0 1 1.8 1.8M681.3 660.9a1.8 1.8 0 1 1-1.8-1.8 1.8 1.8 0 0 1 1.8 1.8M699.4 585.2a1.8 1.8 0 1 1 2.3 1.1 1.8 1.8 0 0 1-2.3-1.1M688.2 611.4a.9.9 0 1 1-.5-1.2.9.9 0 0 1 .5 1.2M491.1 533.3a1.8 1.8 0 1 1 2.3 1.1 1.8 1.8 0 0 1-2.3-1.1M657 510.1a.9.9 0 1 1-.5-1.2.9.9 0 0 1 .5 1.2M654.5 457.1a1.8 1.8 0 1 1-2.5-.7 1.8 1.8 0 0 1 2.5.7M494.6 521.8a.9.9 0 1 1 .7 1 .9.9 0 0 1-.7-1M407.6 442.2a1.8 1.8 0 1 1-1.8-1.8 1.8 1.8 0 0 1 1.8 1.8M471.1 443a1.8 1.8 0 1 1-1.8-1.8 1.8 1.8 0 0 1 1.8 1.8M534.6 332.9a1.8 1.8 0 1 1 2.3 1.1 1.8 1.8 0 0 1-2.3-1.1M492.5 406.4a.9.9 0 1 1-.5-1.2.9.9 0 0 1 .5 1.2M445.2 369.8a1.8 1.8 0 1 1 2.3 1.1 1.8 1.8 0 0 1-2.3-1.1M538.9 48.5a1.8 1.8 0 1 1-1.8-1.8 1.8 1.8 0 0 1 1.8 1.8M605.6 658.3a1.8 1.8 0 1 1-1.8-1.8 1.8 1.8 0 0 1 1.8 1.8M708.3 590.8a1.8 1.8 0 1 1 2.3 1.1 1.8 1.8 0 0 1-2.3-1.1M691 612.8a.9.9 0 1 1-.5-1.2.9.9 0 0 1 .5 1.2M305.3 241.5a1.8 1.8 0 1 1 1.2 2.3 1.8 1.8 0 0 1-1.2-2.3M239.8 237.8a1.8 1.8 0 1 1 1.2 2.3 1.8 1.8 0 0 1-1.2-2.3M199 304a1.8 1.8 0 1 1-1.8-1.8 1.8 1.8 0 0 1 1.8 1.8M217.7 282.7a.9.9 0 1 1 .2 1.3.9.9 0 0 1-.2-1.3M310.9 264a1.8 1.8 0 1 1 1.2 2.3 1.8 1.8 0 0 1-1.2-2.3M192.2 295.9a1.8 1.8 0 1 1-1.8-1.8 1.8 1.8 0 0 1 1.8 1.8M215.6 280.4a.9.9 0 1 1 .2 1.3.9.9 0 0 1-.2-1.3M520.5 472.3a1.8 1.8 0 1 1 2.3 1.1 1.8 1.8 0 0 1-2.3-1.1M687.1 506.9a.9.9 0 1 1-.5-1.2.9.9 0 0 1 .5 1.2M642.5 506.7a1.8 1.8 0 1 1 2.3 1.1 1.8 1.8 0 0 1-2.3-1.1M526.9 463.4a.9.9 0 1 1 .7 1 .9.9 0 0 1-.7-1" fill-rule="evenodd"/></g></svg>