<svg xmlns="http://www.w3.org/2000/svg" viewBox="0 0 1359.7 750"><path fill="#372143" d="M0 0h1359.7v750H0z"/><g fill="#46394f"><path d="M790.6 656.5a.9.9 0 1 1-.5-1.2.9.9 0 0 1 .5 1.2M827 636a1.8 1.8 0 1 1 2.3 1.1 1.8 1.8 0 0 1-2.3-1.1m184.3-40.9a1.8 1.8 0 1 1-1.8-1.8 1.8 1.8 0 0 1 1.8 1.8m-44.9 29.4a.9.9 0 1 1-.5-1.2.9.9 0 0 1 .5 1.2m35 21.8a1.8 1.8 0 1 1 2.3 1.1 1.8 1.8 0 0 1-2.3-1.1M388 604.9a.9.9 0 1 1-.5-1.2.9.9 0 0 1 .5 1.2m-44.6-.2a1.8 1.8 0 1 1 2.3 1.1 1.8 1.8 0 0 1-2.3-1.1M181.6 148.3a1.8 1.8 0 1 1-1.8-1.8 1.8 1.8 0 0 1 1.8 1.8m65.7 0a1.8 1.8 0 1 1-1.8-1.8 1.8 1.8 0 0 1 1.8 1.8m-131.1 95.6a1.8 1.8 0 1 1-1.8-1.8 1.8 1.8 0 0 1 1.8 1.8M284.3 67.8a1.8 1.8 0 1 1 2.3 1.1 1.8 1.8 0 0 1-2.3-1.1m440.3 155.5a1.8 1.8 0 1 1 2.3 1.1 1.8 1.8 0 0 1-2.3-1.1M267 89.7a.9.9 0 1 1-.5-1.2.9.9 0 0 1 .5 1.2M94.8 148.1a.9.9 0 1 1-.5-1.2.9.9 0 0 1 .5 1.2m605.3 103a.9.9 0 1 1-.5-1.2.9.9 0 0 1 .5 1.2M222.4 89.5a1.8 1.8 0 1 1 2.3 1.1 1.8 1.8 0 0 1-2.3-1.1m-89.9-14a1.8 1.8 0 1 1 2.3 1.1 1.8 1.8 0 0 1-2.3-1.1m833 114.1a1.8 1.8 0 1 1-1.8-1.8 1.8 1.8 0 0 1 1.8 1.8m-264.4 18.5a1.8 1.8 0 1 1-1.8-1.8 1.8 1.8 0 0 1 1.8 1.8M221.3 471.8a1.8 1.8 0 1 1-1.8-1.8 1.8 1.8 0 0 1 1.8 1.8m-12.5-64.5a1.8 1.8 0 1 1-1.8-1.8 1.8 1.8 0 0 1 1.8 1.8m-78.1-26.2a1.8 1.8 0 1 1 2.3 1.1 1.8 1.8 0 0 1-2.3-1.1m26.2 15.1a.9.9 0 1 1-.5-1.2.9.9 0 0 1 .5 1.2m7 41.5a1.8 1.8 0 1 1 2.3 1.1 1.8 1.8 0 0 1-2.3-1.1M64.4 598.4a1.8 1.8 0 1 1 2.3 1.1 1.8 1.8 0 0 1-2.3-1.1M53.7 420.3a.9.9 0 1 1-.5-1.2.9.9 0 0 1 .5 1.2m-36.3 12.6a1.8 1.8 0 1 1-2.5-.7 1.8 1.8 0 0 1 2.5.7m35.5 161.3a.9.9 0 1 1 .7 1 .9.9 0 0 1-.7-1m889.8-388.1a1.8 1.8 0 1 1-1.8-1.8 1.8 1.8 0 0 1 1.8 1.8m53.3 46.5a1.8 1.8 0 1 1-1.8-1.8 1.8 1.8 0 0 1 1.8 1.8m-4.6 79.9a1.8 1.8 0 1 1 2.3 1.1 1.8 1.8 0 0 1-2.3-1.1m7.4-14.3a.9.9 0 1 1-.5-1.2.9.9 0 0 1 .5 1.2m35.3-22.4a1.8 1.8 0 1 1 2.3 1.1 1.8 1.8 0 0 1-2.3-1.1m-208.9 14.5a1.8 1.8 0 1 1 2.3 1.1 1.8 1.8 0 0 1-2.3-1.1m-19.9 127.4a1.8 1.8 0 1 1 2.3 1.1 1.8 1.8 0 0 1-2.3-1.1m400.7-109a1.8 1.8 0 1 1 2.3 1.1 1.8 1.8 0 0 1-2.3-1.1m-150.9 66.1a.9.9 0 1 1-.5-1.2.9.9 0 0 1 .5 1.2m-1.3-237.9a1.8 1.8 0 1 1-2.5.4 1.8 1.8 0 0 1 2.5-.4m60.9 51.8a1.8 1.8 0 1 1 2.3-1.2 1.8 1.8 0 0 1-2.3 1.2m-6.9-14.5a.9.9 0 1 1-1.3-.3.9.9 0 0 1 1.3.3m3.4-41.7a1.8 1.8 0 1 1 2.3-1.2 1.8 1.8 0 0 1-2.3 1.2m91.7 42.9a.9.9 0 1 1-1.3-.3.9.9 0 0 1 1.3.3m-132.3 232.7a1.8 1.8 0 1 1-2.5-.7 1.8 1.8 0 0 1 2.5.7m-254.4-81.4a.9.9 0 1 1 .7 1 .9.9 0 0 1-.7-1m12.6-204.2a1.8 1.8 0 1 1 2.3 1.1 1.8 1.8 0 0 1-2.3-1.1m65.7-68.6a.9.9 0 1 1 .7 1 .9.9 0 0 1-.7-1m253.2 416.3a1.8 1.8 0 1 1-2.5-.7 1.8 1.8 0 0 1 2.5.7m64.7 200.8a1.8 1.8 0 1 1-1.8-1.8 1.8 1.8 0 0 1 1.8 1.8m63.4-17a1.8 1.8 0 1 1-1.8-1.8 1.8 1.8 0 0 1 1.8 1.8m18.1-75.6a1.8 1.8 0 1 1 2.3 1.1 1.8 1.8 0 0 1-2.3-1.1m-11.1 26.1a.9.9 0 1 1-.5-1.2.9.9 0 0 1 .5 1.2m-43.1 10.9a1.8 1.8 0 1 1 2.3 1.1 1.8 1.8 0 0 1-2.3-1.1m-154.1-89a1.8 1.8 0 1 1 2.3 1.1 1.8 1.8 0 0 1-2.3-1.1m166-23.2a.9.9 0 1 1-.5-1.2.9.9 0 0 1 .5 1.2m-162.5 11.7a.9.9 0 1 1 .7 1 .9.9 0 0 1-.7-1M513.2 149.4a1.8 1.8 0 1 1 2.4-.8 1.8 1.8 0 0 1-2.4.8m-89.4 110.7a1.8 1.8 0 1 1 2.4-.8 1.8 1.8 0 0 1-2.4.8m179.8 33.5a1.8 1.8 0 1 1-2 1.6 1.8 1.8 0 0 1 2-1.6" fill-rule="evenodd"/><circle cx="558.7" cy="221.6" r=".9" transform="rotate(-44.5 558.067 221.606)"/><path d="M581.2 182.9a1.8 1.8 0 1 1-2 1.6 1.8 1.8 0 0 1 2-1.6m36.7 494.9a1.8 1.8 0 1 1-1.8-1.8 1.8 1.8 0 0 1 1.8 1.8m63.4-16.9a1.8 1.8 0 1 1-1.8-1.8 1.8 1.8 0 0 1 1.8 1.8m18.1-75.7a1.8 1.8 0 1 1 2.3 1.1 1.8 1.8 0 0 1-2.3-1.1m-11.2 26.2a.9.9 0 1 1-.5-1.2.9.9 0 0 1 .5 1.2m-197.1-78.1a1.8 1.8 0 1 1 2.3 1.1 1.8 1.8 0 0 1-2.3-1.1M657 510.1a.9.9 0 1 1-.5-1.2.9.9 0 0 1 .5 1.2m-2.5-53a1.8 1.8 0 1 1-2.5-.7 1.8 1.8 0 0 1 2.5.7m-159.9 64.7a.9.9 0 1 1 .7 1 .9.9 0 0 1-.7-1m-87-79.6a1.8 1.8 0 1 1-1.8-1.8 1.8 1.8 0 0 1 1.8 1.8m63.5.8a1.8 1.8 0 1 1-1.8-1.8 1.8 1.8 0 0 1 1.8 1.8m63.5-110.1a1.8 1.8 0 1 1 2.3 1.1 1.8 1.8 0 0 1-2.3-1.1m-42.1 73.5a.9.9 0 1 1-.5-1.2.9.9 0 0 1 .5 1.2m-47.3-36.6a1.8 1.8 0 1 1 2.3 1.1 1.8 1.8 0 0 1-2.3-1.1m93.7-321.3a1.8 1.8 0 1 1-1.8-1.8 1.8 1.8 0 0 1 1.8 1.8m66.7 609.8a1.8 1.8 0 1 1-1.8-1.8 1.8 1.8 0 0 1 1.8 1.8m102.7-67.5a1.8 1.8 0 1 1 2.3 1.1 1.8 1.8 0 0 1-2.3-1.1m-17.3 22a.9.9 0 1 1-.5-1.2.9.9 0 0 1 .5 1.2M305.3 241.5a1.8 1.8 0 1 1 1.2 2.3 1.8 1.8 0 0 1-1.2-2.3m-65.5-3.7a1.8 1.8 0 1 1 1.2 2.3 1.8 1.8 0 0 1-1.2-2.3M199 304a1.8 1.8 0 1 1-1.8-1.8 1.8 1.8 0 0 1 1.8 1.8m18.7-21.3a.9.9 0 1 1 .2 1.3.9.9 0 0 1-.2-1.3m93.2-18.7a1.8 1.8 0 1 1 1.2 2.3 1.8 1.8 0 0 1-1.2-2.3m-118.7 31.9a1.8 1.8 0 1 1-1.8-1.8 1.8 1.8 0 0 1 1.8 1.8m23.4-15.5a.9.9 0 1 1 .2 1.3.9.9 0 0 1-.2-1.3m304.9 191.9a1.8 1.8 0 1 1 2.3 1.1 1.8 1.8 0 0 1-2.3-1.1m166.6 34.6a.9.9 0 1 1-.5-1.2.9.9 0 0 1 .5 1.2m-44.6-.2a1.8 1.8 0 1 1 2.3 1.1 1.8 1.8 0 0 1-2.3-1.1m-115.6-43.3a.9.9 0 1 1 .7 1 .9.9 0 0 1-.7-1" fill-rule="evenodd"/></g></svg>