<svg xmlns="http://www.w3.org/2000/svg" xmlns:xlink="http://www.w3.org/1999/xlink" viewBox="0 0 1359.7 750"><defs><linearGradient id="b" x1="488.34" y1="246.48" x2="962.28" y2="600.89" gradientUnits="userSpaceOnUse"><stop offset="0" stop-color="#feb205"/><stop offset="1" stop-color="#ec9c50"/></linearGradient><linearGradient id="c" data-name="New Gradient Swatch 1" x1="638.54" y1="400.69" x2="638.54" y2="320.03" gradientUnits="userSpaceOnUse"><stop offset="0" stop-color="#9364de"/><stop offset="1" stop-color="#b699e5"/></linearGradient><linearGradient id="a" x1="823.45" y1="333.54" x2="823.45" y2="388.57" gradientUnits="userSpaceOnUse"><stop offset="0" stop-color="#9364de"/><stop offset="1" stop-color="#5a4778"/></linearGradient><linearGradient id="d" x1="827.04" y1="811.19" x2="827.04" y2="31.09" gradientUnits="userSpaceOnUse"><stop offset="0" stop-color="#9f75e2"/><stop offset="1" stop-color="#695884"/></linearGradient><linearGradient id="e" x1="841.89" y1="403" x2="841.89" y2="-121.68" xlink:href="#a"/><linearGradient id="f" x1="621.17" y1="463.81" x2="609.57" y2="246.82" gradientUnits="userSpaceOnUse"><stop offset="0" stop-color="#9364de"/><stop offset="1" stop-color="#c3abea"/></linearGradient></defs><path fill="none" d="M0 0h1359.7v750H0z"/><path d="M439.5 241.8a21.3 21.3 0 0 1 21.3-21.3h446.5a21.3 21.3 0 0 1 21.3 21.3V544a21.3 21.3 0 0 1-21.3 21.3H460.9a21.3 21.3 0 0 1-21.4-21.3z" fill-rule="evenodd" fill="url(#b)"/><path fill="#a177e5" d="M607 302h267.5v263.3H607z"/><path fill="#bda4e5" d="M504.8 302h267.5v263.3H504.8z"/><path fill="url(#c)" d="M504.6 336.5h267.9v46.63H504.6z"/><path fill="url(#a)" d="M772.5 336.5h101.9v46.63H772.5z"/><path fill="#b699e5" d="M606.5 336.5h51v226.66h-51z"/><path fill="url(#d)" d="M808.8 336.5h36.5v228.83h-36.5z"/><path fill="#a177e5" d="M781.2 270.3h103v66.16h-103z"/><path fill="#bda4e5" d="M492.7 270.3h288.5v66.16H492.7z"/><path fill="url(#e)" d="M823.5 270.3h36.9v66.49h-36.9z"/><path fill="url(#f)" d="M587.1 270.3h51V337h-51z"/><path d="M764.9 289a4.7 4.7 0 0 0-4.7-4.6h-29.7a4.8 4.8 0 0 0-4.3 2.8 4.7 4.7 0 0 0 1 5l8.8 8.6 1.1 1.1a4.8 4.8 0 0 0 1.4.5 5.1 5.1 0 0 0 5.8-5.7 5.5 5.5 0 0 0-.5-1.3l-1.1-1.1-.8-.8h13.5v13.2l-.8-.8-1-1a3 3 0 0 0-1.5-.5 5.1 5.1 0 0 0-5.8 5.7 7.4 7.4 0 0 0 .5 1.3l1.1 1.1 8.8 8.6a4.8 4.8 0 0 0 3.3 1.3 3.9 3.9 0 0 0 1.8-.4 4.2 4.2 0 0 0 3.2-4.1z" fill="#a177e5" fill-rule="evenodd"/><path d="M808.7 461.2a9.8 9.8 0 1 0-5.6-12.6 9.8 9.8 0 0 0 5.6 12.6zM797.8 520l-2.7 7.2-18.2-7 18.9-49.4a23.3 23.3 0 1 1 18.7 5.7l-3.7 9.5-5.3-2-2.7 7.1 5.3 2-2.7 7-5.3-2-2.7 7.1 5.3 2-2.2 5.7-4.7-1.8-2.7 7.1z" fill="#d7d7d7" fill-rule="evenodd"/><path d="M850.9 405.7a3.8 3.8 0 1 0-2.2-4.9 3.8 3.8 0 0 0 2.2 4.9zm-7-34.5l93.1 35.7-18.3 47.6-93.1-35.8z" fill="#513c73" fill-rule="evenodd"/><path d="M812.6 454.1a102.5 102.5 0 0 1-6-18.2c-3.1-13.7-2.4-24.6 2.2-32.3s12.2-11.6 23.3-12.4l.2 2.4c-10.2.8-17.4 4.6-21.4 11.2-10.1 17.1 3.8 47.9 3.9 48.2zm20.1-10.1l-1.2-2.1c26.6-14.9 18.9-40.1 18.5-41.2l2.3-.7c.2.2 8.8 28-19.6 44z" fill="#969696"/><path fill="#969696" d="M812.17 451.636l7.628-3.27.957 2.234-7.628 3.27z"/><path d="M890.6 429.3l1.2-3-3-1.2-1.2 3zm2.2-5.4l1.2-3-3-1.2-1.2 3zm-12 2.1l1.2-3-3-1.2-1.2 3zm2.2-6.5l1.2-3-3-1.2-1.2 3zm3.3-5.4l1.2-3-3-1.2-1.2 3zm2.2-6.5l1.2-3-3-1.2-1.2 3zm-17.4 15.2l1.2-3-3-1.2-1.2 3zm2.2-6.5l1.2-3-3-1.2-1.2 3zm2.2-6.5l1.2-3-3-1.2-1.2 3zm13.8 5.2l9.8 3.8-6.1 15.4-29.3-11.2 8.3-21.6 9.8 3.8 1.2-3.2 6.6-2.8 3.1 6.6z" fill="#bfbbcf" fill-rule="evenodd" opacity=".2"/><rect x="576.8" y="305.2" width="97.6" height="279.8" rx="12.1" ry="12.1" transform="rotate(-76.9 625.306 445.164)" fill="#f2eaff"/><path d="M548.3 419a2.9 2.9 0 0 0-3-2.8l-10.6.3-10.2-15.2h-3.8l4.6 15.4-10 .3-3-3.8h-2.9l2 6.8.9 2.9h3.2l10.6-.4 8.7-.3 10.6-.3a3 3 0 0 0 2.9-2.9zm-41 9.1l35.8 8.4-.9 3.8-35.8-8.4z" fill="#483369" fill-rule="evenodd"/><path fill="#7b7190" opacity=".2" d="M677.62 492.69l15.48-66.522 59.15 13.764-15.48 66.523zm-110.97-68.166l4.42-18.992 99.288 23.105-4.42 18.992zm-6.64 28.411l4.42-18.993 99.287 23.105-4.42 18.993z"/><path d="M473.2 450.6a12.1 12.1 0 0 1 12.1-12.1h255.5a12.1 12.1 0 0 1 12.2 12.1v73.3a12.1 12.1 0 0 1-12.2 12.1H485.3a12.1 12.1 0 0 1-12.1-12.1z" fill="#f2eaff" fill-rule="evenodd"/><path d="M531.8 479.4a2.9 2.9 0 0 0-3.6-2.1l-10.3 2.8-13.4-12.5-3.7 1 8 13.9-9.6 2.6-3.8-3-2.8.8 3.5 6.1 1.5 2.6 3.1-.8L511 488l8.4-2.2 10.3-2.7a3 3 0 0 0 2.1-3.7zm-37.9 18.1h36.8v3.9h-36.8z" fill="#483369" fill-rule="evenodd"/><path fill="#7b7190" opacity=".2" d="M674.9 453.6h60.7v68.32h-60.7zm-123.7 7.6h101.9v19.52H551.2zm0 29.3h101.9v19.52H551.2z"/></svg>