<svg xmlns="http://www.w3.org/2000/svg" viewBox="0 0 1359.7 750"><defs><linearGradient id="a" x1="1092.76" y1="340.26" x2="1175.19" y2="440.3" gradientUnits="userSpaceOnUse"><stop offset="0" stop-color="#695884"/><stop offset="1" stop-color="#9364de"/></linearGradient></defs><path fill="none" d="M0 0h1359.7v750H0z"/><rect x="1076.7" y="333.5" width="121.8" height="122.34" rx="8.8" ry="8.8" fill="url(#a)"/><path d="M1158.6 362.4l20.2-10.7s-7.4 5.3 1.8 21.1 6 21.6 6 21.6l-20.2 10.7s3.4-5.4-4.3-21.2-3.5-21.5-3.5-21.5z" fill="#9364de" fill-rule="evenodd"/><path d="M1155.9 363.8l20.2-10.7s-7.3 5.6 1.9 21.4 5.9 21.3 5.9 21.3l-20.2 10.7s3.5-5-4.2-20.8-3.6-21.9-3.6-21.9z" fill="#b699e5" fill-rule="evenodd"/><ellipse cx="1168.6" cy="380.2" rx="6.4" ry="6.5" transform="rotate(-28 1168.547 380.175)" fill="#6a538f"/><path d="M1166.6 379.3c-.2-.5 0-1 .8-1.4s1.3-.2 1.6.3l1-.5a1.9 1.9 0 0 0-2.3-.8l-.5-.9-1.3.7.5.9a1.9 1.9 0 0 0-.8 2.4c.5 1 1.6 1 3 .6s1.7-.1 1.9.3.2.9-.8 1.4-1.5.3-1.8-.2l-1 .5a2.1 2.1 0 0 0 2.5.7l.5.9 1.3-.7-.5-.9a1.8 1.8 0 0 0 .8-2.3c-.6-1.2-1.9-1-3.1-.7s-1.6.1-1.8-.3z" fill="#f7aa22" fill-rule="evenodd"/><g fill="#f2eaff"><ellipse cx="1175.4" cy="310.3" rx="3.4" ry="3.4"/><ellipse cx="1154.8" cy="346.4" rx="2.6" ry="2.6"/><ellipse cx="1193.1" cy="368.4" rx="2.6" ry="2.6"/><ellipse cx="1185.6" cy="432.6" rx="3.4" ry="3.4"/><ellipse cx="1087" cy="321.5" rx="3.4" ry="3.4"/><ellipse cx="1086.1" cy="374" rx="2.6" ry="2.6"/><ellipse cx="1147" cy="404.2" rx="2.6" ry="2.6"/></g><path d="M1109.6 385.1l29.4 12s-12.3-3.2-20.9 20.6-17.8 25.6-17.8 25.6l-29.4-12s8.8-1.1 18.8-23.3 19.9-22.9 19.9-22.9z" fill="#9364de" fill-rule="evenodd"/><path d="M1105.8 383.5l29.4 12s-12.5-2.8-21.1 21-17.5 25.3-17.5 25.3l-29.4-12s8.5-.9 18.6-23 20-23.3 20-23.3z" fill="#b699e5" fill-rule="evenodd"/><ellipse cx="1099.5" cy="411.5" rx="9" ry="8.9" transform="rotate(-67.7 1100 411.364)" fill="#6a538f"/><path d="M1098.7 408.6c.3-.7 1.1-.9 2.2-.4s1.4 1.2 1.1 2l1.4.6a2.7 2.7 0 0 0-1.1-3.2l.6-1.3-1.9-.8-.5 1.3c-1.4-.3-2.7.1-3.2 1.3s.4 2.6 2 3.8 1.6 1.7 1.3 2.3-.8 1-2.2.4-1.6-1.3-1.4-2.1l-1.4-.6a2.9 2.9 0 0 0 1.4 3.3l-.5 1.3 1.9.8.5-1.3c1.4.3 2.7 0 3.2-1.3s-.6-3-1.9-4-1.7-1.5-1.5-2.1z" fill="#f7aa22" fill-rule="evenodd"/><path d="M1122.2 323.2l22.1 6s-9.1-1.2-13.2 16.6-10.5 19.8-10.5 19.8l-22.1-6s6.2-1.6 11.4-18.3 12.3-18.1 12.3-18.1z" fill="#9364de" fill-rule="evenodd"/><path d="M1119.2 322.4l22.1 6s-9.2-.9-13.3 16.9-10.3 19.5-10.3 19.5l-22.1-6s6-1.3 11.2-18 12.4-18.4 12.4-18.4z" fill="#b699e5" fill-rule="evenodd"/><ellipse cx="1117.3" cy="343" rx="6.5" ry="6.4" transform="rotate(-74.7 1117.29 343.025)" fill="#6a538f"/><path d="M1116.4 341c.1-.5.7-.7 1.6-.5s1.1.7 1 1.3l1.1.3a1.9 1.9 0 0 0-1.1-2.2l.3-1-1.5-.4-.3 1a1.9 1.9 0 0 0-2.2 1.2c-.3 1.1.5 1.9 1.8 2.5s1.3 1.1 1.2 1.5-.5.8-1.5.5-1.3-.8-1.2-1.4l-1.1-.3a2.1 2.1 0 0 0 1.3 2.3l-.3 1 1.5.4.3-1a1.8 1.8 0 0 0 2.2-1.2c.4-1.3-.7-2.1-1.7-2.7s-1.5-.9-1.4-1.3z" fill="#f7aa22" fill-rule="evenodd"/><path d="M1148.4 424.2l24.9-4.8s-9.6 3.3-4.9 23-.6 24.9-.6 24.9l-24.9 4.8s5.4-4.6 2.4-23.8 3.1-24.1 3.1-24.1z" fill="#9364de" fill-rule="evenodd"/><path d="M1145 424.8l24.9-4.8s-9.6 3.6-4.9 23.3-.6 24.5-.6 24.5l-24.9 4.8s5.3-4.2 2.3-23.4 3.2-24.4 3.2-24.4z" fill="#b699e5" fill-rule="evenodd"/><ellipse cx="1153.2" cy="446.3" rx="7.1" ry="7.2" transform="rotate(-11 1152.505 445.863)" fill="#6a538f"/><path d="M1151.4 444.7c-.1-.6.4-1.1 1.3-1.3s1.4.2 1.6.8l1.2-.2a2.2 2.2 0 0 0-2.2-1.6l-.2-1.1-1.7.3.2 1.1a2.1 2.1 0 0 0-1.6 2.3c.2 1.2 1.4 1.6 3 1.7s1.8.5 1.9.9-.1 1-1.3 1.2-1.7-.2-1.9-.8l-1.2.2a2.3 2.3 0 0 0 2.4 1.6l.2 1.1 1.7-.3-.2-1.1c1-.4 1.8-1.2 1.6-2.2s-1.7-1.7-3-1.8-1.7-.3-1.8-.8z" fill="#f7aa22" fill-rule="evenodd"/></svg>