<svg xmlns="http://www.w3.org/2000/svg" viewBox="0 0 681.3 700"><defs><style>.cls-1,.cls-13{fill:#483369}.cls-1,.cls-2{clip-rule:evenodd}.cls-2,.cls-3{fill:none}.cls-4{fill:#ffb114}.cls-5{fill:#fff}.cls-6{fill:#7b7191;opacity:.2}.cls-7{fill:#c0bcd0}.cls-13,.cls-7{fill-rule:evenodd}.cls-8{fill:#ccc9d9}.cls-9{fill:#584f86}.cls-10{fill:#81828c}.cls-11{fill:#645086}.cls-12{fill:#9b8fb6}.cls-14{clip-path:url(#clip-path)}.cls-15{clip-path:url(#clip-path-2)}.cls-16{fill:#463c73}.cls-17{fill:#b7accf}</style><clipPath id="clip-path" transform="translate(-450.41 -226.68)"><path class="cls-1" d="M573.4 410.9a1.72 1.72 0 0 0-2.12-1.22l-6.11 1.63-8-7.39-2.2.59 4.76 8.25-5.72 1.53-2.27-1.77-1.67.45 2.09 3.63.89 1.53 1.84-.48 6.11-1.64 5-1.33 6.11-1.62a1.77 1.77 0 0 0 1.29-2.16zm-22.51 10.76h21.85V424h-21.85z"/></clipPath><clipPath id="clip-path-2" transform="translate(-450.41 -226.68)"><path class="cls-2" d="M627.75 433.15l4.57 5.35-4.57 5.36v-3.75h-5.18v-3.21h5.18v-3.75z"/></clipPath></defs><title>Section5_1</title><g id="Layer_2" data-name="Layer 2"><g id="Layer_1-2" data-name="Layer 1"><path class="cls-3" d="M0 0h681.3v700H0z"/><rect class="cls-4" x="103.03" y="538.61" width="182.6" height="37.45" rx="18.73" ry="18.73"/><path class="cls-5" d="M539.54 362.5h5.24v2.2H537v-12h2.49zm14.09 1.19a4.39 4.39 0 0 1-3.17 1.19 4.46 4.46 0 0 1-3.18-1.19 4.2 4.2 0 0 1-1.24-3.13 4.15 4.15 0 0 1 1.24-3.13 4.46 4.46 0 0 1 3.18-1.19 4.4 4.4 0 0 1 3.17 1.19 4.1 4.1 0 0 1 1.25 3.13 4.15 4.15 0 0 1-1.25 3.13zm-3.17-5.45a1.88 1.88 0 0 0-1.48.63 2.81 2.81 0 0 0 0 3.37 2.09 2.09 0 0 0 3 0 2.81 2.81 0 0 0 0-3.37 1.88 1.88 0 0 0-1.51-.63zm15.08 6.46h-1.86l-1.68-4.4-1.67 4.4h-1.86l-3.18-8.31h2.57l1.62 4.76 1.7-4.76h1.64l1.72 4.76 1.62-4.76h2.57zm11.79-3.41h-5.7a1.62 1.62 0 0 0 1.74 1.69c.84 0 1.35-.31 1.53-.92l2.36.11a3 3 0 0 1-1.3 1.94 4.23 4.23 0 0 1-6.81-3.57 4.19 4.19 0 0 1 1.17-3.15 4.12 4.12 0 0 1 3.05-1.17 3.87 3.87 0 0 1 2.89 1.11 4.09 4.09 0 0 1 1.08 3zm-5.7-1.56H575a1.53 1.53 0 0 0-1.62-1.67 1.62 1.62 0 0 0-1.76 1.68zm12.11-1.15a1.94 1.94 0 0 0-2.2 1.91v4.21h-2.35v-8.31h2.27v.95a2.49 2.49 0 0 1 2.28-1zm5.26-5.9h5.21a3.84 3.84 0 0 1 2.81 1 4.34 4.34 0 0 1 0 5.69 3.83 3.83 0 0 1-2.81 1h-2.72v4.27H589zm2.47 2.19v3.36h2.41a1.68 1.68 0 0 0 0-3.36zm12.7 3.71a1.94 1.94 0 0 0-2.2 1.91v4.21h-2.35v-8.31h2.27v.95a2.49 2.49 0 0 1 2.28-1zm4.12-4.9a1.37 1.37 0 0 1-.42 1 1.45 1.45 0 0 1-2 0 1.43 1.43 0 0 1 1-2.41 1.41 1.41 0 0 1 1.42 1.41zm-.24 11h-2.35v-8.31h2.3zm8.75-7.58a3.57 3.57 0 0 1 1.32 2.35l-2.3.19a1.55 1.55 0 0 0-1.64-1.4c-1.11 0-1.88.85-1.88 2.31s.77 2.3 1.88 2.3a1.54 1.54 0 0 0 1.66-1.35l2.28.21a3.53 3.53 0 0 1-1.32 2.29 4.13 4.13 0 0 1-2.62.85 4.21 4.21 0 0 1-3.07-1.16 4.81 4.81 0 0 1 0-6.33 4.21 4.21 0 0 1 3.07-1.16 4 4 0 0 1 2.62.9zm10.84 4.19h-5.7a1.62 1.62 0 0 0 1.74 1.69c.84 0 1.35-.31 1.53-.92l2.36.11a3 3 0 0 1-1.3 1.94 4.23 4.23 0 0 1-6.81-3.57 4.19 4.19 0 0 1 1.17-3.15 4.12 4.12 0 0 1 3.05-1.17 3.87 3.87 0 0 1 2.89 1.11 4.09 4.09 0 0 1 1.08 3zm-5.7-1.56h3.34a1.53 1.53 0 0 0-1.62-1.67 1.62 1.62 0 0 0-1.73 1.68z" transform="translate(-450.41 -226.68)"/><rect class="cls-6" x="85.43" y="291.43" width="223.25" height="116.09" rx="5" ry="5"/><path class="cls-7" d="M559.79 563.63l6.53 1.74 8 2.13a2.25 2.25 0 1 0 1.17-4.35l-8-2.13-4.14-13.56-2.9-.75v12.43l-7.46-2-1.4-3.48-2.18-.59v7.76l2.4.65zM549 572.24h28.53v3H549z" transform="translate(-450.41 -226.68)"/><path class="cls-8" d="M553.76 589.88a2.14 2.14 0 0 1 .81 1.67l-1.27.07a1.34 1.34 0 0 0-1.5-1.27c-.92 0-1.46.47-1.46 1.18a.84.84 0 0 0 .38.78 5.88 5.88 0 0 0 1.36.45 5.64 5.64 0 0 1 2 .82 1.67 1.67 0 0 1 .65 1.44 2 2 0 0 1-.8 1.74 3.34 3.34 0 0 1-2 .58 3.56 3.56 0 0 1-2.17-.63 2.2 2.2 0 0 1-.88-1.75l1.27-.07a1.6 1.6 0 0 0 1.78 1.38c1 0 1.56-.37 1.56-1.15a.83.83 0 0 0-.43-.79 5.51 5.51 0 0 0-1.45-.49 5.53 5.53 0 0 1-1.79-.68 1.71 1.71 0 0 1-.77-1.56 2.12 2.12 0 0 1 .7-1.64 2.84 2.84 0 0 1 2-.66 3 3 0 0 1 2.01.58zm10.39 7.35h-1.38l-.72-1.75h-3.51l-.74 1.75h-1.36l3.32-7.85h1.06zm-5.15-2.87h2.55l-1.27-3.05zm15.72 2.87h-1.24v-5l-2.59 5h-.82l-2.6-5v5h-1.25v-7.85h1.1l3.16 6 3.15-6h1.09zm7.75-6.75h-3.69v2.16H582v1.08h-3.22v2.39h3.69v1.11h-4.93v-7.85h4.93zm10.82 0h-3.69v2.19h3v1.1h-3v3.45h-1.25v-7.85h4.93zm3.51 5.64h3.72v1.11h-5v-7.85h1.25zm7.25 1.11h-1.25v-7.85h1.25zm10.06-4.11v.41a3.86 3.86 0 0 1-1 2.78 3.56 3.56 0 0 1-2.68 1 3.83 3.83 0 0 1-2.81-1.08 4.55 4.55 0 0 1 0-5.9 4.19 4.19 0 0 1 5.18-.35 3.19 3.19 0 0 1 1.25 2l-1.29.21a2.19 2.19 0 0 0-2.33-1.84c-1.6 0-2.61 1-2.61 2.92s1 2.92 2.61 2.92a2.17 2.17 0 0 0 2.34-2h-2.32v-1.1zm8.68 4.11h-1.25v-3.5h-3.7v3.5h-1.24v-7.85h1.25v3.24h3.7v-3.24h1.25zm8.95-6.75h-2.79v6.75h-1.25v-6.75h-2.8v-1.1h6.83z" transform="translate(-450.41 -226.68)"/><rect class="cls-5" x="85.43" y="160.52" width="223.25" height="116.09" rx="5" ry="5"/><path class="cls-9" d="M556 433.86v6c0 2.19-1.24 3.47-3.29 3.47a3.07 3.07 0 0 1-3.29-3.15l1.94-.31c.06 1.11.55 1.75 1.36 1.75s1.35-.56 1.35-1.7v-6.07zm7.85 1.7h-4.06v2h3.31v1.7h-3.31v3.92h-1.94v-9.35h6zm5.73 2.13l3.59 5.52h-2.27l-2.6-4-1.15 1.39v2.59h-1.95v-9.35h1.94v3.86l3.17-3.86h2.47zm11.04 3.09h-3.95v-1.7h3.95zm6.26.72H591v1.71h-6v-9.35h1.94zm12.37-6.81a3.89 3.89 0 0 1 1.49 2.6l-2 .17a2.37 2.37 0 0 0-2.49-2 2.53 2.53 0 0 0-2 .85 3.31 3.31 0 0 0-.74 2.25 3.18 3.18 0 0 0 .76 2.29 2.62 2.62 0 0 0 2 .81 2.33 2.33 0 0 0 2.47-2l2 .17a3.94 3.94 0 0 1-1.49 2.57 4.63 4.63 0 0 1-2.95 1 4.73 4.73 0 0 1-3.44-1.3 4.88 4.88 0 0 1 6.37-7.36zm7.64 4.92v3.6H605v-3.6l-3.55-5.75h2.24l2.26 3.84 2.26-3.84h2.25z" transform="translate(-450.41 -226.68)"/><path class="cls-10" d="M550.87 465.64a7.45 7.45 0 0 1 0-6.8 2.78 2.78 0 0 1 4.59 0 7.48 7.48 0 0 1 0 6.8 2.8 2.8 0 0 1-4.61 0zm3.8-.69a5.76 5.76 0 0 0 .52-2.71 5.68 5.68 0 0 0-.52-2.7 1.64 1.64 0 0 0-3 0 5.61 5.61 0 0 0-.53 2.7 5.71 5.71 0 0 0 .52 2.71 1.66 1.66 0 0 0 3 0zm3.52-.11a6.26 6.26 0 0 1-.43-2.45 6 6 0 0 1 .88-3.52 2.89 2.89 0 0 1 2.5-1.25 3 3 0 0 1 1.9.62 2.74 2.74 0 0 1 1 1.68h-1.13a1.79 1.79 0 0 0-.65-1 1.81 1.81 0 0 0-1.12-.35 1.87 1.87 0 0 0-1.67.93 5.3 5.3 0 0 0-.64 2.69h.1a2.36 2.36 0 0 1 .94-1 2.75 2.75 0 0 1 1.4-.36 2.79 2.79 0 0 1 2.08.83 2.89 2.89 0 0 1 .82 2.12 2.93 2.93 0 0 1-.87 2.18 3 3 0 0 1-2.22.85 3 3 0 0 1-2.89-1.97zm4.29.46a2.18 2.18 0 0 0 0-2.92 1.91 1.91 0 0 0-1.43-.57 1.93 1.93 0 0 0-2 2 2 2 0 0 0 .57 1.48 2 2 0 0 0 2.84 0zm3.64-3.53a.79.79 0 1 1 .56.23.77.77 0 0 1-.56-.23zm0 4.69a.78.78 0 1 1 .56.24.77.77 0 0 1-.56-.23zm4.01-8.08a2.82 2.82 0 0 1 2-.76 2.89 2.89 0 0 1 2 .71 2.26 2.26 0 0 1 .8 1.76 2.66 2.66 0 0 1-.39 1.35 11.63 11.63 0 0 1-1.47 1.83l-2.07 2.29v.1h4.13v1h-5.7v-.76l3-3.33a9.33 9.33 0 0 0 1.13-1.41 2 2 0 0 0 .28-1 1.43 1.43 0 0 0-.5-1.11 1.76 1.76 0 0 0-1.22-.45 1.63 1.63 0 0 0-1.73 1.73h-1.06a2.55 2.55 0 0 1 .8-1.95zm8.79 8.26v-7.59h-.1l-1.12.81-1.12.81v-1.16l1.17-.84 1.17-.84H580v8.81zm8.83-5.77a4.44 4.44 0 0 1 0 5 2.46 2.46 0 0 1-2 .93 2.58 2.58 0 0 1-1.25-.29 1.9 1.9 0 0 1-.81-.81h-.1v3.19h-1.05v-8.78h1v1.1h.1a2.31 2.31 0 0 1 .88-.89 2.41 2.41 0 0 1 1.23-.32 2.46 2.46 0 0 1 2 .87zm-.84 4.29a3.46 3.46 0 0 0 0-3.61 1.69 1.69 0 0 0-1.41-.65 1.71 1.71 0 0 0-1.42.66 3.33 3.33 0 0 0 0 3.59 1.85 1.85 0 0 0 2.83 0zm3.09 1.48v-6.58h1v1h.1a1.78 1.78 0 0 1 .7-.85 2.08 2.08 0 0 1 1.14-.3 1.93 1.93 0 0 1 1.13.32 2 2 0 0 1 .69.83h.1a2 2 0 0 1 .8-.84 2.33 2.33 0 0 1 1.21-.31 2.07 2.07 0 0 1 1.55.55 2.19 2.19 0 0 1 .54 1.59v4.55h-1v-4.3a1.52 1.52 0 0 0-.34-1.09 1.38 1.38 0 0 0-1-.36 1.45 1.45 0 0 0-1.11.45 1.51 1.51 0 0 0-.42 1.07v4.23h-1v-4.47a1.21 1.21 0 0 0-.38-.93 1.52 1.52 0 0 0-2.08.14 1.71 1.71 0 0 0-.44 1.18v4.08zm16-3.04h-6.25v-1H606zm1.55 2.04a7.45 7.45 0 0 1 0-6.8 2.78 2.78 0 0 1 4.59 0 7.48 7.48 0 0 1 0 6.8 2.8 2.8 0 0 1-4.61 0zm3.8-.69a5.76 5.76 0 0 0 .52-2.71 5.68 5.68 0 0 0-.52-2.7 1.64 1.64 0 0 0-3 0 5.61 5.61 0 0 0-.53 2.7 5.71 5.71 0 0 0 .52 2.71 1.66 1.66 0 0 0 3 0zm4.02 1.18a2.39 2.39 0 0 1-.39-3.32 2.16 2.16 0 0 1 1.33-.77v-.1a1.93 1.93 0 0 1-1.07-.71 2 2 0 0 1-.4-1.25 2.1 2.1 0 0 1 .79-1.69 3.44 3.44 0 0 1 4 0 2.11 2.11 0 0 1 .79 1.69 2 2 0 0 1-.39 1.25 1.94 1.94 0 0 1-1.08.72v.1a2.16 2.16 0 0 1 1.33.77 2.4 2.4 0 0 1-.38 3.32 4 4 0 0 1-4.58 0zm3.78-.7a1.6 1.6 0 0 0 0-2.46 2.58 2.58 0 0 0-3 0 1.6 1.6 0 0 0 0 2.46 2.58 2.58 0 0 0 3 0zm-.23-4.27a1.36 1.36 0 0 0 .48-1.08 1.38 1.38 0 0 0-.48-1.1 2.11 2.11 0 0 0-2.52 0 1.38 1.38 0 0 0-.48 1.1 1.36 1.36 0 0 0 .48 1.08 2.12 2.12 0 0 0 2.51 0zm3.9.61a.79.79 0 1 1 .56.23.77.77 0 0 1-.56-.23zm0 4.69a.78.78 0 1 1 .56.24.77.77 0 0 1-.56-.23zm4.11-.31a2.55 2.55 0 0 1-.89-1.85h1.08a1.66 1.66 0 0 0 .6 1.15 2 2 0 0 0 1.3.44 1.9 1.9 0 0 0 1.43-.56 2 2 0 0 0 .54-1.46 2 2 0 0 0-.54-1.47 1.86 1.86 0 0 0-1.41-.56 2.21 2.21 0 0 0-1.07.26 1.87 1.87 0 0 0-.75.73h-1l.48-5h4.91v1h-4.05l-.25 2.83h.1a2 2 0 0 1 .79-.56 2.87 2.87 0 0 1 1.07-.19 2.72 2.72 0 0 1 2.05.82 2.94 2.94 0 0 1 .79 2.13 2.9 2.9 0 0 1-.85 2.18 3.38 3.38 0 0 1-4.29.13zm7.69.07a2.78 2.78 0 0 1-1-1.68h1.13a1.78 1.78 0 0 0 .65 1 1.82 1.82 0 0 0 1.12.35 1.88 1.88 0 0 0 1.67-.93 5.24 5.24 0 0 0 .64-2.69h-.1a2.36 2.36 0 0 1-.94 1 3 3 0 0 1-3.48-.48 2.89 2.89 0 0 1-.82-2.12 2.93 2.93 0 0 1 .87-2.18 3 3 0 0 1 2.22-.85 3 3 0 0 1 2.89 2 6.26 6.26 0 0 1 .43 2.45 6 6 0 0 1-.88 3.52 2.89 2.89 0 0 1-2.5 1.25 2.94 2.94 0 0 1-1.9-.64zm3.41-4.13a1.94 1.94 0 0 0 .56-1.43 2 2 0 0 0-.57-1.48 2 2 0 0 0-2.84 0 2 2 0 0 0-.57 1.45 2 2 0 0 0 .55 1.47 1.91 1.91 0 0 0 1.43.56 2 2 0 0 0 1.41-.57zm3.76 4.14a1.77 1.77 0 0 1-.63-1.43q0-1.81 2.4-1.95l1.9-.12v-.6q0-1.26-1.49-1.26a2 2 0 0 0-1 .21 1 1 0 0 0-.5.6h-1.06a1.76 1.76 0 0 1 .82-1.27 3.09 3.09 0 0 1 1.76-.48 2.68 2.68 0 0 1 1.85.58 2 2 0 0 1 .65 1.61v4.5h-1v-1h-.1a2.15 2.15 0 0 1-.84.81 2.46 2.46 0 0 1-1.18.28 2.39 2.39 0 0 1-1.58-.48zm3.13-.87a1.5 1.5 0 0 0 .53-1.17v-.6l-1.77.12q-1.44.1-1.44 1.07a.92.92 0 0 0 .38.78 1.55 1.55 0 0 0 1 .28 2 2 0 0 0 1.3-.48zm3.4 1.28v-6.58h1v1h.1a1.78 1.78 0 0 1 .7-.85 2.08 2.08 0 0 1 1.14-.3 1.93 1.93 0 0 1 1.13.32 2 2 0 0 1 .69.83h.1a2 2 0 0 1 .8-.84 2.33 2.33 0 0 1 1.21-.31 2.07 2.07 0 0 1 1.55.55 2.19 2.19 0 0 1 .54 1.59v4.55h-1v-4.3a1.52 1.52 0 0 0-.34-1.09 1.38 1.38 0 0 0-1-.36 1.45 1.45 0 0 0-1.11.45 1.51 1.51 0 0 0-.42 1.07v4.23h-1v-4.47a1.21 1.21 0 0 0-.38-.93 1.52 1.52 0 0 0-2.08.14 1.71 1.71 0 0 0-.44 1.18v4.08zm17.68-3.09v2.66h-.9v-2.66h-2.66v-.9h2.66V460h.9v2.66h2.66v.9zm6.56 3.09v-7.59h-.1l-1.12.81-1.12.81v-1.16l1.17-.84 1.17-.84h1.09v8.81z" transform="translate(-450.41 -226.68)"/><path class="cls-11" d="M550.36 479.3h3.5c1.66 0 2.79.89 2.79 2.49a2 2 0 0 1-1.06 2 2.25 2.25 0 0 1 1.46 2.29c0 1.69-1.16 2.59-2.86 2.59h-3.82zm1.14 1v3h2.5a1.31 1.31 0 0 0 1.45-1.5c0-1-.7-1.55-1.76-1.55zm0 4v3.29h2.5c1.09 0 1.84-.52 1.84-1.64a1.57 1.57 0 0 0-1.74-1.65zm10.33-1.06A1.73 1.73 0 0 0 560 485v3.66h-1.1v-6.37h1v1a1.9 1.9 0 0 1 1.88-1zm1.87-2.57a.7.7 0 0 1-.71-.7.71.71 0 1 1 .71.7zm.53 8h-1.08v-6.37h1.08zm5.26-.97v1a5 5 0 0 1-.86.08 1.78 1.78 0 0 1-2-2v-3.52h-1.19v-.94h1.19v-2.2h1.09v2.2h1.71v.94h-1.71v3.31q0 1.24 1.13 1.24a4.45 4.45 0 0 0 .64-.11zm1.94-7.03a.7.7 0 0 1-.71-.7.71.71 0 1 1 .71.7zm.53 8h-1.08v-6.37H572zm6.48-4.59l-1.07.06a1.11 1.11 0 0 0-1.3-1c-.79 0-1.21.34-1.21.92a.64.64 0 0 0 .32.6 2.28 2.28 0 0 0 .39.15l.24.06c.11 0 .42.09.56.13 1.51.36 2.21.79 2.21 1.84 0 1.25-.92 2-2.41 2a2.25 2.25 0 0 1-2.52-1.94l1.08-.07c.1.71.59 1.07 1.47 1.07s1.31-.34 1.31-.95a.69.69 0 0 0-.33-.65 4.6 4.6 0 0 0-1.25-.42l-.71-.17c-.16 0-.36-.12-.58-.21a1.37 1.37 0 0 1-.87-1.39c0-1.14.88-1.87 2.34-1.86a2.13 2.13 0 0 1 2.33 1.83zm3.01-5.14v4.21a2.19 2.19 0 0 1 1.94-1 2.37 2.37 0 0 1 1.78.71 2.62 2.62 0 0 1 .7 1.9v3.87h-1.09v-3.74a1.6 1.6 0 0 0-1.61-1.75 1.65 1.65 0 0 0-1.24.51 1.79 1.79 0 0 0-.47 1.25v3.72h-1.08v-9.71zm17.34 9.71h-1.25l-1-2.37h-4.34l-1 2.37H590l3.91-9.35h1zm-6.14-3.37h3.49l-1.74-4.21zm7.98-4.61a.7.7 0 0 1-.71-.7.71.71 0 1 1 .71.7zm.53 8h-1.08v-6.37h1.08zm5.11-5.43a1.73 1.73 0 0 0-1.85 1.75v3.66h-1.08v-6.37h1v1a1.9 1.9 0 0 1 1.88-1zm8 5.41h-.86l-1.71-4.56-1.7 4.56h-.86l-2.42-6.37h1.17l1.71 4.62 1.72-4.62h.76l1.74 4.62 1.72-4.62h1.16zm8.24-4.02v4h-1.09v-.75a2.35 2.35 0 0 1-1.9.88c-1.26 0-2.09-.67-2.09-1.81s.78-1.81 2.34-1.9l1.65-.1v-.3c0-1-.45-1.55-1.34-1.55a1.28 1.28 0 0 0-1.39 1.32h-1.09a2.13 2.13 0 0 1 .67-1.55 2.43 2.43 0 0 1 1.79-.67 2.22 2.22 0 0 1 2.45 2.43zm-1.08 1.19l-1.52.1q-1.39.09-1.39 1c0 .61.39.91 1.16.91a1.59 1.59 0 0 0 1.75-1.76zm4.48 6.01h-1.19l1.51-3.54-2.54-6h1.2l1.92 4.81 1.91-4.81h1.2zm9.6-7.75l-1.07.06a1.11 1.11 0 0 0-1.3-1c-.79 0-1.21.34-1.21.92a.64.64 0 0 0 .32.6 2.28 2.28 0 0 0 .39.15l.24.06c.11 0 .42.09.56.13 1.51.36 2.21.79 2.21 1.84 0 1.25-.92 2-2.41 2a2.25 2.25 0 0 1-2.52-1.94l1.08-.07c.1.71.59 1.07 1.47 1.07s1.31-.34 1.31-.95a.69.69 0 0 0-.33-.65 4.6 4.6 0 0 0-1.25-.42l-.71-.17c-.16 0-.36-.12-.58-.21a1.37 1.37 0 0 1-.87-1.39c0-1.14.88-1.87 2.34-1.86a2.13 2.13 0 0 1 2.33 1.83z" transform="translate(-450.41 -226.68)"/><path class="cls-12" d="M672.14 481.5h-4v2.58h3.5v.85h-3.5v2.85h4v.87h-5v-8h5zm5.34 2.14a2.13 2.13 0 0 1 .8 1.49l-.9.08a1.48 1.48 0 0 0-1.55-1.33c-1 0-1.75.76-1.75 2s.72 2 1.75 2a1.46 1.46 0 0 0 1.56-1.24l.9.08a2.32 2.32 0 0 1-2.46 2 2.64 2.64 0 0 1-1.94-.76 3.24 3.24 0 0 1 0-4.15 2.62 2.62 0 0 1 1.94-.76 2.48 2.48 0 0 1 1.65.59zm4.66-.55a2.71 2.71 0 0 1 2.81 2.83 2.86 2.86 0 0 1-4.82 2.06 2.79 2.79 0 0 1-.79-2.06 2.7 2.7 0 0 1 2.81-2.83zm0 .8a1.8 1.8 0 0 0-1.35.55 2 2 0 0 0-.52 1.48 2.07 2.07 0 0 0 .52 1.49 1.8 1.8 0 0 0 1.35.55 1.77 1.77 0 0 0 1.34-.55 2.08 2.08 0 0 0 .54-1.49 2 2 0 0 0-.54-1.48 1.77 1.77 0 0 0-1.34-.55zm8.42-.19a2.24 2.24 0 0 1 .6 1.63v3.32h-.93v-3.2a1.37 1.37 0 0 0-1.38-1.5 1.42 1.42 0 0 0-1.06.44 1.54 1.54 0 0 0-.41 1.07v3.19h-.92v-5.46h.88v.81a1.87 1.87 0 0 1 1.7-.91 2 2 0 0 1 1.52.61zm4.87-.61a2.71 2.71 0 0 1 2.81 2.83 2.86 2.86 0 0 1-4.82 2.06 2.79 2.79 0 0 1-.79-2.06 2.7 2.7 0 0 1 2.81-2.83zm0 .8a1.8 1.8 0 0 0-1.35.55 2 2 0 0 0-.52 1.48 2.07 2.07 0 0 0 .52 1.49 1.8 1.8 0 0 0 1.35.55 1.77 1.77 0 0 0 1.34-.55 2.08 2.08 0 0 0 .54-1.49 2 2 0 0 0-.54-1.48 1.77 1.77 0 0 0-1.34-.55zm11.95-.18a2.28 2.28 0 0 1 .57 1.61v3.33H707v-3.2a1.33 1.33 0 0 0-1.33-1.5 1.35 1.35 0 0 0-1.37 1.32v3.38h-.93v-3.2a1.34 1.34 0 0 0-2.33-1.06 1.53 1.53 0 0 0-.4 1.07v3.19h-.92v-5.46h.88v.81a1.7 1.7 0 0 1 1.66-.92 1.91 1.91 0 0 1 1.79 1.08 2 2 0 0 1 1.83-1.08 1.87 1.87 0 0 1 1.5.63zm3.47 7.67h-1l1.3-3-2.15-5.2h1l1.65 4.12 1.64-4.12h1zM724 481.33a3.18 3.18 0 0 1 1.2 2.16l-1 .1a2.41 2.41 0 0 0-.88-1.61 2.79 2.79 0 0 0-1.79-.58 2.72 2.72 0 0 0-2.1.87 3.36 3.36 0 0 0-.8 2.37 3.32 3.32 0 0 0 .81 2.39 2.8 2.8 0 0 0 2.11.85 2.48 2.48 0 0 0 2.66-2.07l1 .09A3.23 3.23 0 0 1 724 488a4.21 4.21 0 0 1-5.27-.33 4.67 4.67 0 0 1 0-6 4.18 4.18 0 0 1 5.29-.3zm3.53 7.32h-.92v-8.32h.92zm5.86-3.44v3.44h-.93V488a2 2 0 0 1-1.63.75c-1.08 0-1.79-.58-1.79-1.55s.66-1.55 2-1.63l1.41-.09v-.26c0-.89-.39-1.33-1.15-1.33a1.09 1.09 0 0 0-1.19 1.14h-.93a1.82 1.82 0 0 1 .58-1.33 2.08 2.08 0 0 1 1.53-.58 1.91 1.91 0 0 1 2.1 2.09zm-.92 1l-1.31.09q-1.19.08-1.19.87c0 .53.33.78 1 .78a1.36 1.36 0 0 0 1.5-1.51zm6.42-1.47l-.92.05a1 1 0 0 0-1.11-.9c-.67 0-1 .29-1 .79a.54.54 0 0 0 .28.51 1.92 1.92 0 0 0 .33.13l.2.05c.1 0 .36.07.48.11 1.3.31 1.9.67 1.9 1.58 0 1.07-.79 1.69-2.07 1.69a1.92 1.92 0 0 1-2.16-1.66l.92-.06c.09.61.5.92 1.26.92s1.13-.29 1.13-.81a.59.59 0 0 0-.28-.56 4 4 0 0 0-1.07-.36l-.61-.15-.49-.18a1.18 1.18 0 0 1-.75-1.19c0-1 .75-1.61 2-1.6a1.83 1.83 0 0 1 1.96 1.64zm5.35 0l-.92.05a1 1 0 0 0-1.11-.9c-.67 0-1 .29-1 .79a.54.54 0 0 0 .28.51 1.92 1.92 0 0 0 .33.13l.2.05c.1 0 .36.07.48.11 1.3.31 1.9.67 1.9 1.58 0 1.07-.79 1.69-2.07 1.69a1.92 1.92 0 0 1-2.16-1.66l.83-.09c.09.61.5.92 1.26.92s1.13-.29 1.13-.81a.59.59 0 0 0-.28-.56 4 4 0 0 0-1.07-.36l-.61-.15-.49-.18a1.18 1.18 0 0 1-.75-1.19c0-1 .75-1.61 2-1.6a1.83 1.83 0 0 1 2.05 1.67z" transform="translate(-450.41 -226.68)"/><path class="cls-13" d="M573.4 410.9a1.72 1.72 0 0 0-2.12-1.22l-6.11 1.63-8-7.39-2.2.59 4.76 8.25-5.72 1.53-2.27-1.77-1.67.45 2.09 3.63.89 1.53 1.84-.48 6.11-1.64 5-1.33 6.11-1.62a1.77 1.77 0 0 0 1.29-2.16zm-22.51 10.76h21.85V424h-21.85z" transform="translate(-450.41 -226.68)"/><path class="cls-10" d="M643.93 434.71a2.82 2.82 0 0 1 2-.76 2.89 2.89 0 0 1 2 .71 2.26 2.26 0 0 1 .8 1.76 2.66 2.66 0 0 1-.39 1.35 11.63 11.63 0 0 1-1.47 1.83l-2.12 2.28v.1h4.13v1h-5.7v-.76l3-3.33a9.33 9.33 0 0 0 1.13-1.41 2 2 0 0 0 .28-1 1.43 1.43 0 0 0-.5-1.11 1.76 1.76 0 0 0-1.22-.45 1.63 1.63 0 0 0-1.73 1.73h-1.06a2.55 2.55 0 0 1 .85-1.94zm9.81 5.96h1.11a1.56 1.56 0 0 0 .71 1.1 2.73 2.73 0 0 0 1.55.41 2.42 2.42 0 0 0 1.47-.43 1.3 1.3 0 0 0 .58-1.08 1.19 1.19 0 0 0-.43-.93 3.23 3.23 0 0 0-1.34-.6l-1.13-.29a3.62 3.62 0 0 1-1.74-.87 2.08 2.08 0 0 1-.54-1.5 2.22 2.22 0 0 1 .86-1.82 3.48 3.48 0 0 1 2.26-.69 3.33 3.33 0 0 1 2.14.68 2.34 2.34 0 0 1 .93 1.75h-1.1a1.58 1.58 0 0 0-.64-1.06 2.25 2.25 0 0 0-1.35-.38 2.29 2.29 0 0 0-1.41.4 1.28 1.28 0 0 0-.53 1.07 1 1 0 0 0 .39.84 3.46 3.46 0 0 0 1.3.55l.92.24a4.36 4.36 0 0 1 2 .92 2 2 0 0 1 .59 1.54 2.35 2.35 0 0 1-.89 1.93 3.71 3.71 0 0 1-2.4.72 3.67 3.67 0 0 1-2.29-.68 2.42 2.42 0 0 1-1.02-1.82zm8.56-5.99h1.05v1.7h1.46v.88h-1.46V441a1.26 1.26 0 0 0 .23.84 1 1 0 0 0 .75.26h.49v.9h-.62a2.11 2.11 0 0 1-1.46-.41 1.76 1.76 0 0 1-.44-1.35v-4h-1.06v-.88h1.06zm4.47 7.49a4.23 4.23 0 0 1 0-5 3.16 3.16 0 0 1 4.44 0 4.23 4.23 0 0 1 0 5 3.15 3.15 0 0 1-4.44 0zm3.66-.68a3.5 3.5 0 0 0 0-3.63 1.93 1.93 0 0 0-2.88 0 3.51 3.51 0 0 0 0 3.63 1.93 1.93 0 0 0 2.88 0zm8.33-4.29a4.44 4.44 0 0 1 0 5 2.46 2.46 0 0 1-2 .93 2.58 2.58 0 0 1-1.25-.29 1.9 1.9 0 0 1-.81-.81h-.1v3.19h-1.05v-8.78h1v1.1h.1a2.31 2.31 0 0 1 .88-.89 2.41 2.41 0 0 1 1.23-.32 2.46 2.46 0 0 1 2 .87zm-.84 4.29a3.46 3.46 0 0 0 0-3.61 1.69 1.69 0 0 0-1.41-.65 1.71 1.71 0 0 0-1.42.66 3.33 3.33 0 0 0 0 3.59 1.85 1.85 0 0 0 2.83 0zm3.67-4.67a2.76 2.76 0 0 1 1.75-.55 2.87 2.87 0 0 1 1.71.48 1.8 1.8 0 0 1 .77 1.29h-1a1.05 1.05 0 0 0-.48-.63 1.78 1.78 0 0 0-1-.24 1.73 1.73 0 0 0-1 .27.83.83 0 0 0-.4.71.68.68 0 0 0 .28.56 2.27 2.27 0 0 0 .86.36l1 .24a3.07 3.07 0 0 1 1.38.65 1.48 1.48 0 0 1 .46 1.13 1.7 1.7 0 0 1-.76 1.44 3.52 3.52 0 0 1-3.68.06 1.75 1.75 0 0 1-.79-1.31h1.08a1.21 1.21 0 0 0 .53.66 1.88 1.88 0 0 0 1 .25 1.92 1.92 0 0 0 1.09-.29.86.86 0 0 0 .43-.74.73.73 0 0 0-.26-.57 1.84 1.84 0 0 0-.79-.36l-1.13-.27a2.94 2.94 0 0 1-1.36-.65 1.5 1.5 0 0 1-.44-1.14 1.67 1.67 0 0 1 .75-1.35z" transform="translate(-450.41 -226.68)"/><g class="cls-15"><path class="cls-16" d="M167.69 202h18.69v19.65h-18.69z"/></g><path class="cls-17" d="M711.09 364.83v1.77h-1.94v-1.8c-2.25-.32-3.7-1.67-3.71-3.78l2.52-.13a2.06 2.06 0 0 0 2.3 1.83c1.27 0 1.9-.47 1.9-1.38s-.69-1.21-2.47-1.65c-.64-.16-1.16-.31-1.56-.45a6.65 6.65 0 0 1-1.22-.61 2.67 2.67 0 0 1-1.19-2.44 3.45 3.45 0 0 1 .88-2.39 4 4 0 0 1 2.55-1.24v-1.76h1.94v1.8a3.66 3.66 0 0 1 3.34 3.6l-2.54.13a1.66 1.66 0 0 0-1.86-1.67c-1.11 0-1.78.56-1.78 1.45a1 1 0 0 0 .5.95 7.48 7.48 0 0 0 1.85.61 8.83 8.83 0 0 1 3.07 1.29 2.62 2.62 0 0 1 1 2.25c0 2.12-1.45 3.36-3.58 3.62zm9.37-.13H718v-8.9l-1.53 1.08-1.09-2 3.28-2.23h1.82zm4.54-1.09a4 4 0 0 1-2.46 3.68v-1a2.36 2.36 0 0 0 1.08-1.45 1.42 1.42 0 0 1 .06-2.83c.81-.01 1.32.65 1.32 1.6zm9-10.93l-3 4.16a4.14 4.14 0 0 1 2.67 1.25 4.19 4.19 0 0 1-.16 5.67 4.26 4.26 0 0 1-3 1.11 4.37 4.37 0 0 1-3.07-1.11 3.84 3.84 0 0 1-1.19-2.92 4.45 4.45 0 0 1 .88-2.59l3.92-5.58zm-3.54 6.2a1.58 1.58 0 0 0-1.38.64 2 2 0 0 0-.34 1.24 1.74 1.74 0 1 0 3.45 0 1.69 1.69 0 0 0-1.69-1.88zm13.45-4.75a8.94 8.94 0 0 1 0 9.13 4 4 0 0 1-3.29 1.62 4 4 0 0 1-3.33-1.62 9 9 0 0 1 0-9.13 4 4 0 0 1 3.33-1.62 4 4 0 0 1 3.29 1.62zm-5.33 4.56c0 2.65.67 4 2 4s2-1.33 2-4-.67-4-2-4-2.01 1.31-2.01 4zm15.79-4.56a8.94 8.94 0 0 1 0 9.13 4 4 0 0 1-3.29 1.62 4 4 0 0 1-3.33-1.62 9 9 0 0 1 0-9.13 4 4 0 0 1 3.33-1.62 4 4 0 0 1 3.29 1.62zm-5.37 4.56c0 2.65.67 4 2 4s2-1.33 2-4-.67-4-2-4-2 1.31-2 4z" transform="translate(-450.41 -226.68)"/><path class="cls-5" d="M627 780.15a2.27 2.27 0 0 1 .85 1.8l-1.69.08a1.11 1.11 0 0 0-1.24-1.11c-.74 0-1.19.37-1.19 1a.68.68 0 0 0 .33.63 5 5 0 0 0 1.23.41 5.9 5.9 0 0 1 2 .86 1.75 1.75 0 0 1 .67 1.5 2.15 2.15 0 0 1-.84 1.83 3.38 3.38 0 0 1-2.11.62 3.71 3.71 0 0 1-2.31-.67 2.29 2.29 0 0 1-.9-1.9l1.68-.09a1.37 1.37 0 0 0 1.52 1.19c.85 0 1.26-.31 1.26-.92s-.46-.8-1.65-1.1c-.43-.11-.77-.2-1-.3a4.49 4.49 0 0 1-.81-.41 1.78 1.78 0 0 1-.79-1.63 2.3 2.3 0 0 1 .74-1.75 2.94 2.94 0 0 1 2.11-.71 3.24 3.24 0 0 1 2.14.67zm8.09.91h-3.48v1.74h3v1.42h-3v1.93h3.49v1.47H630v-8h5.14zm3.68 5.09h3.49v1.47h-5.15v-8h1.66zm10.52-5.09h-3.48v1.74h3v1.42h-3v1.93h3.49v1.47h-5.15v-8h5.14zm8.34-.75a3.34 3.34 0 0 1 1.27 2.23l-1.72.15A2 2 0 0 0 655 781a2.17 2.17 0 0 0-1.7.73 2.84 2.84 0 0 0-.63 1.93 2.73 2.73 0 0 0 .65 2 2.24 2.24 0 0 0 1.69.7 2 2 0 0 0 2.12-1.7l1.73.15a3.37 3.37 0 0 1-1.27 2.21 4 4 0 0 1-2.53.81 4.06 4.06 0 0 1-2.95-1.11 4.18 4.18 0 0 1 5.46-6.31zm9.65.75h-2.68v6.56H663v-6.56h-2.69v-1.46h7z" transform="translate(-450.41 -226.68)"/><rect class="cls-6" x="85.43" y="422.34" width="223.25" height="90.19" rx="5" ry="5"/><path class="cls-8" d="M556.44 709.69a2.14 2.14 0 0 1 .81 1.67l-1.27.07a1.34 1.34 0 0 0-1.5-1.27c-.92 0-1.46.47-1.46 1.18a.84.84 0 0 0 .38.78 5.92 5.92 0 0 0 1.36.45 5.63 5.63 0 0 1 2 .82 1.67 1.67 0 0 1 .65 1.44 2 2 0 0 1-.8 1.74 3.34 3.34 0 0 1-2 .58 3.56 3.56 0 0 1-2.17-.63 2.2 2.2 0 0 1-.88-1.75l1.27-.07a1.6 1.6 0 0 0 1.78 1.38c1 0 1.56-.37 1.56-1.15a.83.83 0 0 0-.43-.79 5.48 5.48 0 0 0-1.45-.49 5.53 5.53 0 0 1-1.79-.68 1.71 1.71 0 0 1-.77-1.56 2.12 2.12 0 0 1 .7-1.64 2.84 2.84 0 0 1 2-.66 3 3 0 0 1 2.01.58zm10.39 7.31h-1.38l-.72-1.75h-3.51l-.74 1.75h-1.36l3.32-7.85h1.06zm-5.12-2.87h2.55l-1.26-3.01zM577.4 717h-1.24v-5l-2.59 5h-.82l-2.6-5v5h-1.25v-7.85h1.1l3.16 6 3.15-6h1.09zm7.75-6.71h-3.69v2.16h3.22v1.08h-3.22v2.39h3.69V717h-4.93v-7.85h4.93zm12.08 6.71H596v-3.5h-3.7v3.5H591v-7.85h1.25v3.24H596v-3.24h1.25zm9.36-6.82a4.36 4.36 0 0 1 0 5.87 3.94 3.94 0 0 1-2.87 1.09 4 4 0 0 1-2.89-1.09 4.11 4.11 0 0 1 5.75-5.87zm-4.84.8a2.89 2.89 0 0 0-.77 2.13 2.92 2.92 0 0 0 .77 2.13 2.86 2.86 0 0 0 3.94 0 2.92 2.92 0 0 0 .77-2.13 2.89 2.89 0 0 0-.77-2.13 2.86 2.86 0 0 0-3.94 0zm14.61-.69h-2.79V717h-1.25v-6.75h-2.79v-1.1h6.83zm7.06 0h-3.69v2.16H623v1.08h-3.22v2.39h3.69V717h-4.93v-7.85h4.93zm3.64 5.63h3.72V717h-5v-7.85h1.25z" transform="translate(-450.41 -226.68)"/><path class="cls-7" d="M559.78 684.94a3.58 3.58 0 1 0-3.9-3.57 3.74 3.74 0 0 0 3.9 3.57zm5.2-7.13v8.32h-10.4v-10.7H552v17.83h2.6v-3.56H578v3.57h2.6v-10.7a5 5 0 0 0-5.2-4.76z" transform="translate(-450.41 -226.68)"/></g></g></svg>