<svg xmlns="http://www.w3.org/2000/svg" viewBox="0 0 681.3 700"><defs><style>.cls-1,.cls-11{fill:#c0bcd0}.cls-1,.cls-2{clip-rule:evenodd}.cls-16,.cls-2{fill:#463c73}.cls-3{fill:none}.cls-4{fill:#ffb114}.cls-5{fill:#faf9eb}.cls-6{fill:#b7accf}.cls-7{fill:#fff}.cls-8{fill:#7b7191;opacity:.2}.cls-9{fill:#ccc9d9}.cls-10{opacity:.7}.cls-11,.cls-16,.cls-21{fill-rule:evenodd}.cls-12{clip-path:url(#clip-path)}.cls-13{clip-path:url(#clip-path-2)}.cls-14{fill:#81828c}.cls-15{fill:#584f86}.cls-17{clip-path:url(#clip-path-3)}.cls-18{clip-path:url(#clip-path-4)}.cls-19{clip-path:url(#clip-path-5)}.cls-20{clip-path:url(#clip-path-6)}.cls-21{fill:#e2dfe4;opacity:.63}.cls-22{clip-path:url(#clip-path-7)}</style><clipPath id="clip-path" transform="translate(-833.44 -426.19)"><path class="cls-1" d="M1251.89 624.84a2.11 2.11 0 0 0-2.59-1.49l-7.47 2-9.74-9.05-2.69.72 5.83 10.09-7 1.87-2.77-2.17-2 .55 2.56 4.45 1.08 1.87 2.25-.59 7.47-2 6.12-1.63 7.47-2a2.16 2.16 0 0 0 1.48-2.62zM1224.34 638h26.74v2.82h-26.74z"/></clipPath><clipPath id="clip-path-2" transform="translate(-833.44 -426.19)"><path class="cls-1" d="M1234.19 763.14l6.53 1.74 8 2.13a2.25 2.25 0 0 0 1.17-4.35l-8-2.13-4.14-13.53-2.9-.75v12.43l-7.46-2-1.4-3.48-2.18-.59v7.76l2.4.65zm-10.78 8.6h28.53v3h-28.53z"/></clipPath><clipPath id="clip-path-3" transform="translate(-833.44 -426.19)"><path class="cls-2" d="M1360.69 907.47l-1.61 2.76-3.17.65 2.17 2.36-.34 3.16 2.95-1.3 2.96 1.3-.35-3.16 2.18-2.36-3.17-.65-1.62-2.76z"/></clipPath><clipPath id="clip-path-4" transform="translate(-833.44 -426.19)"><path class="cls-2" d="M1373.45 907.47l-1.61 2.76-3.17.65 2.17 2.36-.35 3.16 2.96-1.3 2.96 1.3-.35-3.16 2.17-2.36-3.17-.65-1.61-2.76z"/></clipPath><clipPath id="clip-path-5" transform="translate(-833.44 -426.19)"><path class="cls-2" d="M1386.85 907.47l-1.62 2.76-3.17.65 2.17 2.36-.34 3.16 2.96-1.3 2.95 1.3-.35-3.16 2.18-2.36-3.17-.65-1.61-2.76z"/></clipPath><clipPath id="clip-path-6" transform="translate(-833.44 -426.19)"><path class="cls-2" d="M1399.6 907.47l-1.61 2.76-3.17.65 2.17 2.36-.35 3.16 2.96-1.3 2.96 1.3-.35-3.16 2.18-2.36-3.18-.65-1.61-2.76z"/></clipPath><clipPath id="clip-path-7" transform="translate(-833.44 -426.19)"><path class="cls-2" d="M1231 873.07a2.51 2.51 0 1 0-2.73-2.5 2.62 2.62 0 0 0 2.73 2.5zm3.65-5v5.84h-7.29v-7.51h-1.82v12.51h1.82v-2.5h16.41v2.5h1.82v-7.51a3.5 3.5 0 0 0-3.65-3.34z"/></clipPath></defs><title>Section5_2</title><g id="Layer_2" data-name="Layer 2"><g id="Layer_1-2" data-name="Layer 1"><path class="cls-3" d="M0 0h681.3v700H0z"/><rect class="cls-4" x="397.23" y="538.61" width="182.6" height="37.45" rx="18.73" ry="18.73"/><path class="cls-5" d="M1222.28 564.21h-2.47v-5.06h-4.87v5.06h-2.49v-12h2.49v4.76h4.87v-4.76h2.47zm9.5-1.02a4.39 4.39 0 0 1-3.17 1.19 4.46 4.46 0 0 1-3.18-1.19 4.2 4.2 0 0 1-1.24-3.13 4.15 4.15 0 0 1 1.24-3.13 4.46 4.46 0 0 1 3.18-1.19 4.4 4.4 0 0 1 3.17 1.19 4.1 4.1 0 0 1 1.25 3.13 4.15 4.15 0 0 1-1.25 3.13zm-3.17-5.45a1.88 1.88 0 0 0-1.48.63 2.81 2.81 0 0 0 0 3.37 2.09 2.09 0 0 0 3 0 2.81 2.81 0 0 0 0-3.37 1.88 1.88 0 0 0-1.51-.62zm9.17.18V561a1.15 1.15 0 0 0 1.25 1.25 5.19 5.19 0 0 0 .72-.08v2.09a9.18 9.18 0 0 1-1.3.1c-1.88 0-3-.93-3-2.8v-3.65h-1.51v-2h1.53v-2.75h2.35v2.75h1.94v2zm11.36 2.88h-5.7a1.62 1.62 0 0 0 1.74 1.69c.84 0 1.35-.31 1.53-.92l2.36.11a3 3 0 0 1-1.3 1.94 4.23 4.23 0 0 1-6.81-3.57 4.19 4.19 0 0 1 1.17-3.15 4.12 4.12 0 0 1 3.05-1.17 3.87 3.87 0 0 1 2.89 1.11 4.09 4.09 0 0 1 1.08 3zm-5.7-1.56h3.34a1.53 1.53 0 0 0-1.62-1.67 1.62 1.62 0 0 0-1.72 1.67zm9.91 4.97H1251v-12.49h2.35zm16.17-12.02v7.13a5 5 0 0 1-1.37 3.73 5.94 5.94 0 0 1-7.5 0 5 5 0 0 1-1.37-3.73v-7.13h2.47v7.1c0 1.88.92 2.89 2.65 2.89s2.64-1 2.64-2.89v-7.1zm9.86 4.74a4.92 4.92 0 0 1 0 6.27 3.79 3.79 0 0 1-2.89 1.19 3 3 0 0 1-2.33-.88v4.8h-2.35V555.9h2.19v.87a2.86 2.86 0 0 1 2.46-1 3.79 3.79 0 0 1 2.92 1.16zm-5.22 2.94v.39a1.92 1.92 0 0 0 2 2.12c1.21 0 2-.85 2-2.31s-.8-2.31-2-2.31a1.92 1.92 0 0 0-2.01 2.11zm14.23-3.1v-.87h2.2v8.61a3.79 3.79 0 0 1-1.14 2.88 4.24 4.24 0 0 1-3.05 1.08c-2.51 0-4-1.22-4.27-3.2l2.33-.08c.11.82.82 1.29 1.86 1.29a1.7 1.7 0 0 0 1.94-1.78v-1.2a3 3 0 0 1-2.35.88 3.84 3.84 0 0 1-2.89-1.19 5 5 0 0 1 0-6.27 3.84 3.84 0 0 1 2.89-1.19 2.87 2.87 0 0 1 2.48 1.04zm-4.1 3.29c0 1.46.8 2.31 2 2.31a1.92 1.92 0 0 0 2-2.12v-.39a1.92 1.92 0 0 0-2-2.12c-1.19.01-1.99.86-1.99 2.32zm13.04-1.97a1.94 1.94 0 0 0-2.2 1.91v4.21h-2.35v-8.31h2.27v.95a2.49 2.49 0 0 1 2.28-1zm8.23.99v5.13h-2.27v-.67a2.83 2.83 0 0 1-2.12.85c-1.72 0-2.76-.87-2.76-2.46s1.11-2.43 3.33-2.52l1.48-.08V559c0-.85-.35-1.29-1.08-1.29a1.06 1.06 0 0 0-1.16 1.09l-2.35-.1a2.74 2.74 0 0 1 1-2.06 3.55 3.55 0 0 1 2.51-.92c2.22.02 3.42 1.18 3.42 3.36zm-2.35 1.78l-1.25.08q-1.21 0-1.21.87c0 .5.32.76 1 .76a1.33 1.33 0 0 0 1.49-1.35zm12.79 3.35h-2.2v-.85a3.13 3.13 0 0 1-2.47 1 3.84 3.84 0 0 1-2.89-1.19 5 5 0 0 1 0-6.27 3.84 3.84 0 0 1 2.89-1.19 2.94 2.94 0 0 1 2.35.88v-4.9h2.32zm-6.3-4.15c0 1.46.8 2.3 2 2.3a1.9 1.9 0 0 0 2-2.12v-.37a1.92 1.92 0 0 0-2-2.12c-1.15 0-1.96.85-1.96 2.31zm16.42.74h-5.7a1.62 1.62 0 0 0 1.74 1.69c.84 0 1.35-.31 1.53-.92l2.36.11a3 3 0 0 1-1.3 1.94 4.23 4.23 0 0 1-6.81-3.57 4.19 4.19 0 0 1 1.17-3.15 4.12 4.12 0 0 1 3.05-1.17 3.87 3.87 0 0 1 2.89 1.11 4.09 4.09 0 0 1 1.08 3zm-5.7-1.56h3.34a1.53 1.53 0 0 0-1.62-1.67 1.62 1.62 0 0 0-1.72 1.67z" transform="translate(-833.44 -426.19)"/><path class="cls-6" d="M1390.49 564.34v1.77h-1.94v-1.8c-2.25-.32-3.7-1.67-3.71-3.78l2.52-.13a2.06 2.06 0 0 0 2.3 1.83c1.27 0 1.9-.47 1.9-1.38s-.69-1.21-2.47-1.65c-.64-.16-1.16-.31-1.56-.45a6.65 6.65 0 0 1-1.22-.61 2.67 2.67 0 0 1-1.19-2.44 3.45 3.45 0 0 1 .88-2.39 4 4 0 0 1 2.55-1.24v-1.75h1.94v1.8a3.66 3.66 0 0 1 3.34 3.6l-2.54.13a1.66 1.66 0 0 0-1.86-1.67c-1.11 0-1.78.56-1.78 1.45a1 1 0 0 0 .5.95 7.48 7.48 0 0 0 1.85.61 8.83 8.83 0 0 1 3.07 1.29 2.62 2.62 0 0 1 1 2.25c0 2.11-1.44 3.35-3.58 3.61zm9.37-.13h-2.47v-8.9l-1.53 1.08-1.09-2 3.28-2.23h1.82zm4.54-1.1a4 4 0 0 1-2.46 3.68v-1a2.36 2.36 0 0 0 1.08-1.45 1.42 1.42 0 0 1 .06-2.83c.82.03 1.32.66 1.32 1.6zm8.27-5.33a3.22 3.22 0 0 1 1.46 2.86 3.43 3.43 0 0 1-1.19 2.73 5 5 0 0 1-6 0 3.41 3.41 0 0 1-1.17-2.73 3.23 3.23 0 0 1 1.45-2.84 2.8 2.8 0 0 1-1.14-2.39 3.06 3.06 0 0 1 1.08-2.47 4.72 4.72 0 0 1 5.59 0 3 3 0 0 1 1.11 2.47 2.76 2.76 0 0 1-1.19 2.37zm-1 2.75a1.72 1.72 0 0 0-3.44 0 1.61 1.61 0 0 0 1.72 1.66 1.59 1.59 0 0 0 1.71-1.66zm-3.13-4.95a1.31 1.31 0 0 0 1.41 1.32 1.28 1.28 0 0 0 1.41-1.32 1.3 1.3 0 0 0-1.41-1.37 1.32 1.32 0 0 0-1.42 1.37zm14.02 2.2a3.22 3.22 0 0 1 1.46 2.86 3.43 3.43 0 0 1-1.19 2.73 5 5 0 0 1-6 0 3.41 3.41 0 0 1-1.17-2.73 3.23 3.23 0 0 1 1.45-2.84 2.8 2.8 0 0 1-1.14-2.39 3.06 3.06 0 0 1 1.08-2.47 4.72 4.72 0 0 1 5.59 0 3 3 0 0 1 1.11 2.47 2.76 2.76 0 0 1-1.19 2.37zm-1 2.75a1.72 1.72 0 0 0-3.44 0 1.61 1.61 0 0 0 1.72 1.66 1.59 1.59 0 0 0 1.71-1.66zm-3.13-4.95a1.31 1.31 0 0 0 1.41 1.32 1.28 1.28 0 0 0 1.41-1.32 1.3 1.3 0 0 0-1.41-1.37 1.32 1.32 0 0 0-1.43 1.37zm14.5-.15a4.83 4.83 0 0 1-.56 2.35 10.72 10.72 0 0 1-1.59 2.12l-2 2.1h4.22v2.2h-7.42v-1.94l3.31-3.65a8.22 8.22 0 0 0 1.24-1.59 3.28 3.28 0 0 0 .32-1.48c0-.84-.42-1.33-1.14-1.33s-1.25.56-1.27 1.69l-2.47-.14c0-2.33 1.38-3.74 3.7-3.74s3.66 1.23 3.66 3.41z" transform="translate(-833.44 -426.19)"/><path class="cls-7" d="M1304.16 979.66a2.27 2.27 0 0 1 .85 1.8l-1.69.08a1.11 1.11 0 0 0-1.24-1.11c-.74 0-1.19.37-1.19 1a.68.68 0 0 0 .33.63 5 5 0 0 0 1.23.41 5.9 5.9 0 0 1 2 .86 1.75 1.75 0 0 1 .67 1.5 2.15 2.15 0 0 1-.84 1.83 3.38 3.38 0 0 1-2.11.62 3.71 3.71 0 0 1-2.31-.67 2.29 2.29 0 0 1-.9-1.9l1.68-.09a1.37 1.37 0 0 0 1.53 1.22c.85 0 1.26-.31 1.26-.92s-.46-.8-1.65-1.1c-.43-.11-.77-.2-1-.3a4.49 4.49 0 0 1-.81-.41 1.78 1.78 0 0 1-.79-1.63 2.3 2.3 0 0 1 .74-1.75 2.94 2.94 0 0 1 2.08-.73 3.24 3.24 0 0 1 2.16.66zm8.12.91h-3.48v1.74h3v1.42h-3v1.93h3.49v1.47h-5.15v-8h5.14zm3.72 5.09h3.49v1.47h-5.15v-8h1.66zm10.48-5.09H1323v1.74h3v1.42h-3v1.93h3.49v1.47h-5.15v-8h5.14zm8.33-.75a3.34 3.34 0 0 1 1.28 2.23l-1.72.15a2 2 0 0 0-2.13-1.74 2.17 2.17 0 0 0-1.7.73 2.84 2.84 0 0 0-.63 1.93 2.73 2.73 0 0 0 .65 2 2.24 2.24 0 0 0 1.69.7 2 2 0 0 0 2.12-1.7l1.73.15a3.37 3.37 0 0 1-1.27 2.21 4 4 0 0 1-2.53.81 4.06 4.06 0 0 1-2.95-1.11 4.18 4.18 0 0 1 5.46-6.31zm9.66.75h-2.68v6.56h-1.65v-6.56h-2.69v-1.46h7z" transform="translate(-833.44 -426.19)"/><rect class="cls-8" x="376.91" y="160.52" width="223.25" height="116.09" rx="5" ry="5"/><path class="cls-9" d="M1230.05 659.37a2.14 2.14 0 0 1 .81 1.67l-1.27.07a1.34 1.34 0 0 0-1.5-1.27c-.92 0-1.46.47-1.46 1.18a.84.84 0 0 0 .38.78 6 6 0 0 0 1.37.45 5.64 5.64 0 0 1 2 .82 1.67 1.67 0 0 1 .65 1.44 2 2 0 0 1-.8 1.74 3.34 3.34 0 0 1-2 .58 3.56 3.56 0 0 1-2.17-.63 2.2 2.2 0 0 1-.88-1.75l1.27-.07a1.6 1.6 0 0 0 1.79 1.38c1 0 1.56-.37 1.56-1.15a.83.83 0 0 0-.43-.79 5.45 5.45 0 0 0-1.45-.49 5.53 5.53 0 0 1-1.79-.68 1.71 1.71 0 0 1-.77-1.56 2.11 2.11 0 0 1 .7-1.64 2.84 2.84 0 0 1 2-.66 3 3 0 0 1 1.99.58zm10.39 7.35h-1.37l-.72-1.75h-3.51l-.73 1.75h-1.37l3.32-7.85h1.06zm-5.12-2.87h2.55l-1.27-3.05zm15.68 2.87h-1.24v-5l-2.59 5h-.82l-2.6-5v5h-1.25v-7.85h1.1l3.16 6 3.15-6h1.09zm7.77-6.72h-3.68v2.16h3.22v1.08h-3.22v2.39h3.68v1.11h-4.93v-7.85h4.93zm10.81 0h-3.69v2.19h3v1.1h-3v3.45h-1.25v-7.85h4.93zm3.51 5.6h3.72v1.11h-5v-7.85h1.25zm7.26 1.12h-1.25v-7.85h1.25zm10.06-4.12v.4a3.86 3.86 0 0 1-1 2.78 3.56 3.56 0 0 1-2.68 1 3.83 3.83 0 0 1-2.81-1.08 4.55 4.55 0 0 1 0-5.9 4.18 4.18 0 0 1 5.18-.35 3.2 3.2 0 0 1 1.25 2l-1.29.21a2.19 2.19 0 0 0-2.33-1.84c-1.6 0-2.61 1-2.61 2.92s1 2.92 2.61 2.92a2.17 2.17 0 0 0 2.34-2h-2.32v-1.1zm8.67 4.12h-1.25v-3.5h-3.7v3.5h-1.25v-7.85h1.25v3.24h3.7v-3.24h1.25zM1308 660h-2.79v6.75H1304V660h-2.79v-1.1h6.79z" transform="translate(-833.44 -426.19)"/><g class="cls-10"><path class="cls-11" d="M1251.89 624.84a2.11 2.11 0 0 0-2.59-1.49l-7.47 2-9.74-9.05-2.69.72 5.83 10.09-7 1.87-2.77-2.17-2 .55 2.56 4.45 1.08 1.87 2.25-.59 7.47-2 6.12-1.63 7.47-2a2.16 2.16 0 0 0 1.48-2.62zM1224.34 638h26.74v2.82h-26.74z" transform="translate(-833.44 -426.19)"/></g><rect class="cls-8" x="376.91" y="291.43" width="223.25" height="116.09" rx="5" ry="5"/><path class="cls-9" d="M1229.16 789.39a2.14 2.14 0 0 1 .81 1.67l-1.27.07a1.34 1.34 0 0 0-1.5-1.27c-.92 0-1.46.47-1.46 1.18a.84.84 0 0 0 .38.78 5.88 5.88 0 0 0 1.36.45 5.64 5.64 0 0 1 2 .82 1.67 1.67 0 0 1 .65 1.44 2 2 0 0 1-.8 1.74 3.34 3.34 0 0 1-2 .58 3.56 3.56 0 0 1-2.17-.63 2.2 2.2 0 0 1-.88-1.75l1.27-.07a1.6 1.6 0 0 0 1.78 1.38c1 0 1.56-.37 1.56-1.15a.83.83 0 0 0-.43-.79 5.51 5.51 0 0 0-1.45-.49 5.53 5.53 0 0 1-1.79-.68 1.71 1.71 0 0 1-.77-1.56 2.12 2.12 0 0 1 .7-1.64 2.84 2.84 0 0 1 2-.66 3 3 0 0 1 2.01.58zm10.39 7.35h-1.38l-.72-1.75h-3.51l-.74 1.75h-1.36l3.32-7.85h1.06zm-5.12-2.87h2.57l-1.27-3.05zm15.69 2.87h-1.24v-5l-2.59 5h-.82l-2.6-5v5h-1.25v-7.85h1.1l3.16 6 3.15-6h1.09zm7.75-6.74h-3.69v2.16h3.22v1.08h-3.22v2.39h3.69v1.11h-4.93v-7.85h4.93zm10.82 0H1265v2.19h3v1.1h-3v3.45h-1.25v-7.85h4.93zm3.51 5.62h3.72v1.11h-5v-7.85h1.25zm7.26 1.12h-1.25v-7.85h1.25zm10.05-4.12v.38a3.86 3.86 0 0 1-1 2.78 3.56 3.56 0 0 1-2.68 1 3.83 3.83 0 0 1-2.81-1.08 4.55 4.55 0 0 1 0-5.9 4.19 4.19 0 0 1 5.18-.35 3.19 3.19 0 0 1 1.25 2l-1.29.21a2.19 2.19 0 0 0-2.33-1.84c-1.6 0-2.61 1-2.61 2.92s1 2.92 2.61 2.92a2.17 2.17 0 0 0 2.34-2h-2.32v-1.1zm8.68 4.12h-1.25v-3.5h-3.7v3.5H1292v-7.85h1.25v3.24h3.7v-3.24h1.25zm8.95-6.74h-2.79v6.75h-1.25V790h-2.79v-1.1h6.83z" transform="translate(-833.44 -426.19)"/><g class="cls-10"><path class="cls-11" d="M1234.19 763.14l6.53 1.74 8 2.13a2.25 2.25 0 0 0 1.17-4.35l-8-2.13-4.14-13.53-2.9-.75v12.43l-7.46-2-1.4-3.48-2.18-.59v7.76l2.4.65zm-10.78 8.6h28.53v3h-28.53z" transform="translate(-833.44 -426.19)"/></g><rect class="cls-7" x="376.91" y="422.34" width="223.25" height="90.19" rx="5" ry="5"/><path class="cls-14" d="M1228.64 920h-1.1v-8.81h1.1v4.28h.1l3.86-4.28h1.4l-3.52 3.8 3.85 5h-1.42l-3.18-4.24-1.06 1.17zm6.91-8.16a.73.73 0 1 1 .52.22.7.7 0 0 1-.52-.22zm0 8.13v-6.58h1.05V920zm2.92.03v-6.58h1v1h.1a1.93 1.93 0 0 1 .74-.85 2.3 2.3 0 0 1 1.24-.3 2.23 2.23 0 0 1 1.71.63 2.53 2.53 0 0 1 .6 1.8v4.3h-1.05v-4a1.94 1.94 0 0 0-.38-1.32 1.49 1.49 0 0 0-1.17-.43 1.65 1.65 0 0 0-1.26.49 1.89 1.89 0 0 0-.47 1.36v3.9zm7.97 2a1.87 1.87 0 0 1-.85-1.31h1.11a1 1 0 0 0 .51.64 2.3 2.3 0 0 0 1.14.24 2.1 2.1 0 0 0 1.38-.41 1.4 1.4 0 0 0 .5-1.14v-1.29h-.1a2.17 2.17 0 0 1-.85.84 2.68 2.68 0 0 1-3.23-.61 4.21 4.21 0 0 1 0-4.78 2.46 2.46 0 0 1 2-.92 2.57 2.57 0 0 1 1.26.31 2.05 2.05 0 0 1 .85.84h.1v-1h1v6.7a2.16 2.16 0 0 1-.79 1.76 3.26 3.26 0 0 1-2.14.65 3.35 3.35 0 0 1-1.89-.52zm3.3-3.71a3.1 3.1 0 0 0 0-3.44 1.74 1.74 0 0 0-1.43-.64 1.67 1.67 0 0 0-1.41.64 3.23 3.23 0 0 0 0 3.44 1.67 1.67 0 0 0 1.41.64 1.74 1.74 0 0 0 1.43-.62zm10.37 1.71h-3.44v-8.81h3.33a2.86 2.86 0 0 1 1.91.59 2 2 0 0 1 .7 1.61 1.91 1.91 0 0 1-.44 1.23 1.76 1.76 0 0 1-1.08.67v.1a2.26 2.26 0 0 1 1.43.69 2.06 2.06 0 0 1 .53 1.45 2.23 2.23 0 0 1-.79 1.82 3.34 3.34 0 0 1-2.15.65zm-2.34-7.84V915h1.76a2.62 2.62 0 0 0 1.5-.35 1.2 1.2 0 0 0 .5-1.06 1.27 1.27 0 0 0-.46-1 2 2 0 0 0-1.27-.37zm0 6.87h2.17a2.43 2.43 0 0 0 1.51-.4 1.38 1.38 0 0 0 .51-1.16 1.33 1.33 0 0 0-.53-1.15 2.7 2.7 0 0 0-1.59-.39h-2.07zm11.23-.76h1a2.3 2.3 0 0 1-1 1.33 3.19 3.19 0 0 1-1.81.49 2.73 2.73 0 0 1-2.17-.92 4.24 4.24 0 0 1 0-5 2.71 2.71 0 0 1 2.16-.93 2.62 2.62 0 0 1 2.09.89 3.59 3.59 0 0 1 .76 2.42v.4h-4.73a2.41 2.41 0 0 0 .55 1.55 1.71 1.71 0 0 0 1.35.57 2.24 2.24 0 0 0 1.06-.23 1.44 1.44 0 0 0 .74-.57zm-3-3.53a2.17 2.17 0 0 0-.57 1.4h3.57a2.08 2.08 0 0 0-.5-1.4 1.62 1.62 0 0 0-1.26-.53 1.71 1.71 0 0 0-1.24.53zm6.07 4.42a4.45 4.45 0 0 1 0-5 2.46 2.46 0 0 1 2-.93 2.49 2.49 0 0 1 1.24.3 2 2 0 0 1 .83.85h.09v-3.65h1V920h-1v-1h-.1a2.2 2.2 0 0 1-.87.86 2.52 2.52 0 0 1-1.24.31 2.46 2.46 0 0 1-1.95-1.01zm.85-4.28a3.45 3.45 0 0 0 0 3.61 1.85 1.85 0 0 0 2.83 0 3.37 3.37 0 0 0 0-3.6 1.84 1.84 0 0 0-2.82 0z" transform="translate(-833.44 -426.19)"/><path class="cls-15" d="M1233.84 890a3.89 3.89 0 0 1 1.49 2.6l-2 .17a2.37 2.37 0 0 0-2.49-2 2.53 2.53 0 0 0-2 .85 3.31 3.31 0 0 0-.74 2.25 3.18 3.18 0 0 0 .76 2.29 2.62 2.62 0 0 0 2 .81 2.33 2.33 0 0 0 2.47-2l2 .17a3.94 3.94 0 0 1-1.49 2.57 4.63 4.63 0 0 1-2.95 1 4.73 4.73 0 0 1-3.44-1.3 4.88 4.88 0 0 1 6.37-7.36zm4.74 8.54h-1.83v-9.71h1.83zm7.54 0h-1.72v-.65a1.81 1.81 0 0 1-1.67.79 2.27 2.27 0 0 1-2.39-2.54v-4.06h1.83v3.67c0 .81.35 1.22 1 1.22a1.1 1.1 0 0 0 1.1-1.25v-3.65h1.82zm3.63-9.71v3.81a2.25 2.25 0 0 1 1.81-.69 3 3 0 0 1 2.25.92 3.83 3.83 0 0 1 0 4.87 3 3 0 0 1-2.25.92 2.43 2.43 0 0 1-1.91-.8v.66h-1.72v-9.71zm0 6.34v.29a1.48 1.48 0 0 0 1.52 1.65c.94 0 1.56-.65 1.56-1.79s-.62-1.8-1.56-1.8a1.49 1.49 0 0 0-1.52 1.65zm17.82 4.35l-1.47-1.46a5.32 5.32 0 0 1-2.56.63 4.84 4.84 0 0 1-3.5-1.31 4.65 4.65 0 0 1-1.36-3.5 4.6 4.6 0 0 1 1.36-3.49 5.27 5.27 0 0 1 7 0 4.6 4.6 0 0 1 1.36 3.49 4.88 4.88 0 0 1-.86 2.9l1.4 1.38zm-2.81-2.79l-1.41-1.4 1.35-1.35 1.41 1.4a3.62 3.62 0 0 0 .3-1.51 3.08 3.08 0 0 0-.8-2.26 2.69 2.69 0 0 0-2.07-.84 2.77 2.77 0 0 0-2.1.84 3.09 3.09 0 0 0-.8 2.26 3.13 3.13 0 0 0 .8 2.26 2.77 2.77 0 0 0 2.1.84 3.09 3.09 0 0 0 1.22-.24zm10.91 1.81h-1.72v-.65a1.81 1.81 0 0 1-1.67.79 2.27 2.27 0 0 1-2.39-2.54v-4.06h1.83v3.67c0 .81.35 1.22 1 1.22a1.1 1.1 0 0 0 1.1-1.25v-3.65h1.82zm7.02-3.98v4h-1.76V898a2.21 2.21 0 0 1-1.65.66c-1.34 0-2.15-.67-2.15-1.91s.86-1.89 2.59-2l1.15-.06v-.25c0-.66-.27-1-.84-1a.83.83 0 0 0-.9.85l-1.83-.08a2.13 2.13 0 0 1 .75-1.6 2.76 2.76 0 0 1 1.95-.61 2.37 2.37 0 0 1 2.69 2.56zm-1.83 1.39l-1 .06q-.94 0-.94.67c0 .39.25.59.75.59a1 1 0 0 0 1.16-1zm7.14-2.17a1.51 1.51 0 0 0-1.71 1.49v3.27h-1.83v-6.46h1.76v.74a1.93 1.93 0 0 1 1.77-.8zm3.55-.12v2.4a.89.89 0 0 0 1 1 4.05 4.05 0 0 0 .56-.06v1.62a7.19 7.19 0 0 1-1 .08c-1.46 0-2.36-.72-2.35-2.17v-2.84h-1.17v-1.57h1.19v-2.14h1.83v2.14h1.51v1.57zm8.84 2.23H1296a1.26 1.26 0 0 0 1.35 1.31c.65 0 1-.24 1.19-.71l1.84.09a2.3 2.3 0 0 1-1 1.51 3.29 3.29 0 0 1-5.3-2.77 3.26 3.26 0 0 1 .91-2.45 3.2 3.2 0 0 1 2.38-.91 3 3 0 0 1 2.25.86 3.18 3.18 0 0 1 .84 2.35zm-4.44-1.21h2.6a1.19 1.19 0 0 0-1.26-1.3 1.26 1.26 0 0 0-1.29 1.3zm9.43-.9a1.51 1.51 0 0 0-1.71 1.49v3.27h-1.83v-6.46h1.76v.74a1.93 1.93 0 0 1 1.77-.8zm6.01.22l-1.81.1a.73.73 0 0 0-.82-.79c-.49 0-.74.19-.74.55a.42.42 0 0 0 .27.41 5.65 5.65 0 0 0 1 .3c1.49.39 2.2.82 2.2 1.91 0 1.34-1 2.15-2.65 2.15s-2.61-.75-2.75-2.1l1.83-.1c0 .54.34.8.94.8s.81-.23.81-.59-.22-.5-1.17-.74a7.07 7.07 0 0 1-1.4-.45 1.55 1.55 0 0 1-.89-1.51c0-1.25 1-2 2.59-2a2.31 2.31 0 0 1 2.59 2.06z" transform="translate(-833.44 -426.19)"/><path class="cls-16" d="M527.25 481.28l-1.61 2.76-3.17.65 2.17 2.36-.35 3.16 2.96-1.3 2.96 1.3-.35-3.16 2.17-2.36-3.17-.65-1.61-2.76zm12.76 0l-1.62 2.76-3.17.65 2.18 2.36-.35 3.16 2.96-1.3 2.95 1.3-.34-3.16 2.17-2.36-3.17-.65-1.61-2.76zm13.39 0l-1.61 2.76-3.17.65 2.17 2.36-.34 3.16 2.95-1.3 2.96 1.3-.35-3.16 2.18-2.36-3.18-.65-1.61-2.76zm12.76 0l-1.61 2.76-3.17.65 2.17 2.36-.35 3.16 2.96-1.3 2.96 1.3-.35-3.16 2.17-2.36-3.17-.65-1.61-2.76z"/><path class="cls-21" d="M580.83 481.28l-1.61 2.76-3.17.65 2.17 2.36-.35 3.16 2.96-1.3 2.96 1.3-.35-3.16 2.17-2.36-3.17-.65-1.61-2.76z"/><path class="cls-16" d="M1231 873.07a2.51 2.51 0 1 0-2.73-2.5 2.62 2.62 0 0 0 2.73 2.5zm3.65-5v5.84h-7.29v-7.51h-1.82v12.51h1.82v-2.5h16.41v2.5h1.82v-7.51a3.5 3.5 0 0 0-3.65-3.34z" transform="translate(-833.44 -426.19)"/></g></g></svg>