<svg version="1.1" id="Layer_1" xmlns="http://www.w3.org/2000/svg" xmlns:xlink="http://www.w3.org/1999/xlink" x="0px" y="0px"
   viewBox="0 0 1019 235.7" enable-background="new 0 0 1019 235.7" xml:space="preserve">

<text transform="matrix(1 0 0 1 0 42.7996)"><tspan x="0" y="0" fill="#FFFFFF" font-family="'Sentinel-Light'" font-size="48.4045">cl</tspan><tspan x="35.6" y="0" fill="#FFFFFF" font-family="'Sentinel-Light'" font-size="48.4045">e</tspan><tspan x="57.9" y="0" fill="#FFFFFF" font-family="'Sentinel-Light'" font-size="48.4045">v</tspan><tspan x="80.6" y="0" fill="#FFFFFF" font-family="'Sentinel-Light'" font-size="48.4045">e</tspan><tspan x="103.1" y="0" fill="#FFFFFF" font-family="'Sentinel-Light'" font-size="48.4045" letter-spacing="-2">r</tspan><tspan x="119.8" y="0" fill="#FFFFFF" font-family="'Sentinel-Light'" font-size="48.4045">, clean, gut</tspan><tspan x="329.2" y="0" fill="#FFFFFF" font-family="'Sentinel-Light'" font-size="48.4045">s</tspan><tspan x="349.6" y="0" fill="#FFFFFF" font-family="'Sentinel-Light'" font-size="48.4045" letter-spacing="-2">y</tspan><tspan x="369.7" y="0" fill="#FFFFFF" font-family="'Sentinel-Light'" font-size="48.4045">, art-meets-</tspan><tspan x="603.8" y="0" fill="#FFFFFF" font-family="'Sentinel-Light'" font-size="48.4045">s</tspan><tspan x="624.2" y="0" fill="#FFFFFF" font-family="'Sentinel-Light'" font-size="48.4045">cience, polished,</tspan><tspan x="0" y="58.1" fill="#FFFFFF" font-family="'Sentinel-Light'" font-size="48.4045">a</tspan><tspan x="22.1" y="58.1" fill="#FFFFFF" font-family="'Sentinel-Light'" font-size="48.4045">v</tspan><tspan x="44.8" y="58.1" fill="#FFFFFF" font-family="'Sentinel-Light'" font-size="48.4045">a</tspan><tspan x="67.9" y="58.1" fill="#FFFFFF" font-family="'Sentinel-Light'" font-size="48.4045">n</tspan><tspan x="94.6" y="58.1" fill="#FFFFFF" font-family="'Sentinel-Light'" font-size="48.4045">t </tspan><tspan x="119.5" y="58.1" fill="#FFFFFF" font-family="'Sentinel-Light'" font-size="48.4045">g</tspan><tspan x="141.4" y="58.1" fill="#FFFFFF" font-family="'Sentinel-Light'" font-size="48.4045">a</tspan><tspan x="164.5" y="58.1" fill="#FFFFFF" font-family="'Sentinel-Light'" font-size="48.4045">r</tspan><tspan x="183.2" y="58.1" fill="#FFFFFF" font-family="'Sentinel-Light'" font-size="48.4045">de, original, beautiful, modern, smar</tspan><tspan x="902.1" y="58.1" fill="#FFFFFF" font-family="'Sentinel-Light'" font-size="48.4045">t</tspan><tspan x="919.1" y="58.1" fill="#FFFFFF" font-family="'Sentinel-Light'" font-size="48.4045">,</tspan><tspan x="0" y="116.2" fill="#FFFFFF" font-family="'Sentinel-Light'" font-size="48.4045">bold, simplified, defini</tspan><tspan x="441" y="116.2" fill="#FFFFFF" font-family="'Sentinel-Light'" font-size="48.4045">t</tspan><tspan x="457.2" y="116.2" fill="#FFFFFF" font-family="'Sentinel-Light'" font-size="48.4045">ely not boring, , full-bodied, </tspan><tspan x="0" y="174.3" fill="#FFFFFF" font-family="'Sentinel-Light'" font-size="48.4045">fun, delig</tspan><tspan x="184.3" y="174.3" fill="#FFFFFF" font-family="'Sentinel-Light'" font-size="48.4045">h</tspan><tspan x="210.4" y="174.3" fill="#FFFFFF" font-family="'Sentinel-Light'" font-size="48.4045">tful, ne</tspan><tspan x="349.7" y="174.3" fill="#FFFFFF" font-family="'Sentinel-Light'" font-size="48.4045">r</tspan><tspan x="368.4" y="174.3" fill="#FFFFFF" font-family="'Sentinel-Light'" font-size="48.4045">d</tspan><tspan x="393.6" y="174.3" fill="#FFFFFF" font-family="'Sentinel-Light'" font-size="48.4045" letter-spacing="-2">y</tspan><tspan x="413.8" y="174.3" fill="#FFFFFF" font-family="'Sentinel-Light'" font-size="48.4045">, s</tspan><tspan x="452.4" y="174.3" fill="#FFFFFF" font-family="'Sentinel-Light'" font-size="48.4045">t</tspan><tspan x="468.7" y="174.3" fill="#FFFFFF" font-family="'Sentinel-Light'" font-size="48.4045">ylish, </tspan><tspan x="583.8" y="174.3" fill="#FFFFFF" font-family="'Sentinel-Light'" font-size="48.4045">r</tspan><tspan x="602.5" y="174.3" fill="#FFFFFF" font-family="'Sentinel-Light'" font-size="48.4045">efined &amp; B</tspan><tspan x="808" y="174.3" fill="#FFFFFF" font-family="'Sentinel-Light'" font-size="48.4045">r</tspan><tspan x="826.4" y="174.3" fill="#FFFFFF" font-family="'Sentinel-Light'" font-size="48.4045">a</tspan><tspan x="848.6" y="174.3" fill="#FFFFFF" font-family="'Sentinel-Light'" font-size="48.4045">v</tspan><tspan x="871.3" y="174.3" fill="#FFFFFF" font-family="'Sentinel-Light'" font-size="48.4045">e.</tspan></text>
<g>
  <g>
    <g>
      <path fill="#AFBBBF" d="M576.1,180c37.6,0,75.6-0.3,112.9-5.4c14.6-2,30.1-4.3,43.5-10.9c7.6-3.7,18.7-12.1,12.4-21.6
        c-2.9-4.3-8.1-6.7-12.7-8.6c-7.1-2.9-14.6-4.8-22.1-6.4c-19-4-38.6-6-57.9-7.2c-23.3-1.5-46.7-1.7-70,0
        c-18.2,1.3-37.6,3.2-54.4,10.8c-9.7,4.4-24.8,17.6-13,28.2c6.2,5.6,16,6.9,24,7.9c13.2,1.7,26.5,1.9,39.7,1.9
        c4.6,0,4.6-7.1,0-7.1c-10.8,0-21.6-0.2-32.4-1.1c-7.7-0.7-16.5-1.5-23.5-5c-11.9-6,2.2-15.8,8.9-18.8c15.6-7,33.9-8.7,50.8-9.9
        c20.8-1.5,41.8-1.4,62.6-0.4c17.8,0.9,35.6,2.5,53.2,5.4c12.4,2.1,27.7,4.1,38.3,11.5c8.3,5.8-2.2,11.8-8,14.4
        c-12.1,5.6-26.1,7.7-39.1,9.5c-37.3,5.2-75.3,5.4-112.9,5.4C571.5,172.9,571.5,180,576.1,180L576.1,180z"/>
    </g>
  </g>
</g>
<g>
  <g>
    <g>
      <path fill="#AFBBBF" d="M767.7,225.7c15.1,3.7,32.1,0.5,47.3-0.4c27.9-1.8,55.7-2.8,83.6-2.8c3.6,0,3.6-5.6,0-5.6
        c-27.7,0-55.3,1.1-83,2.8c-7.2,0.4-14.4,1.1-21.6,1.5c-8.1,0.4-16.9,1.1-24.8-0.8C765.7,219.4,764.2,224.8,767.7,225.7
        L767.7,225.7z"/>
    </g>
  </g>
  <g>
    <g>
      <path fill="#AFBBBF" d="M785.5,234.7c13.6,2.1,28,0.3,41.7-0.2c24.3-1,48.6-1.6,72.9-1.6c3.6,0,3.6-5.6,0-5.6
        c-24.1,0-48.2,0.6-72.4,1.6c-13.3,0.5-27.5,2.5-40.7,0.4C783.4,228.7,781.9,234.1,785.5,234.7L785.5,234.7z"/>
    </g>
  </g>
</g>
<g>
  <g>
    <g>
      <path fill="#AFBBBF" d="M421.5,110c18.8,3.2,38.9,1.1,57.9,0.2c26.7-1.3,53.4-2.3,80.2-3c18.8-0.5,37.7-0.4,56.5-0.4
        c3.6,0,3.6-5.6,0-5.6c-41.3,0-82.5,1.1-123.7,2.8c-11,0.4-21.9,1.1-32.9,1.5c-12,0.4-24.5,1.2-36.4-0.8
        C419.4,103.9,417.9,109.4,421.5,110L421.5,110z"/>
    </g>
  </g>
</g>
<g>
  <g>
    <path fill="#AFBBBF" d="M351.1,0c-23,0-47,0.3-69.3,6.5c-12.8,3.6-39.2,16.7-26.9,33.9c5.4,7.6,15.6,11.3,24.1,13.9
      c11.3,3.5,23.2,5.3,35,6.2c13.2,1,26.6,0.9,39.7-1.4c10.2-1.8,21.5-5.2,28.9-12.9c6.4-6.6,10.5-18.5,3.6-26.2
      c-8.4-9.2-25-8.6-36.3-8.6c-3.6,0-3.6,5.6,0,5.6c9.4,0,23.2-0.7,31,5.7c6.9,5.7,1.7,16.2-3.7,20.9c-7.1,6.3-17.2,8.8-26.3,10.2
      c-11.6,1.9-23.6,1.9-35.3,1.1c-9.9-0.7-19.8-2.1-29.4-4.5c-8.4-2.1-18-4.9-24.5-10.9c-14.7-13.8,13.6-25.5,23.5-28
      c21.4-5.5,44.1-5.8,66-5.8C354.8,5.6,354.8,0,351.1,0L351.1,0z"/>
  </g>
</g>
</svg>
