<svg xmlns="http://www.w3.org/2000/svg" xmlns:xlink="http://www.w3.org/1999/xlink" viewBox="0 0 1040.95 597.66"><defs><symbol id="a" viewBox="0 0 33 30"><path fill="#f2385a" d="M0 0h33v30H0z"/><path fill="none" stroke="#fff" stroke-miterlimit="10" d="M12.3 18.64l7.8-7.8m0 7.8l-7.8-7.8"/></symbol><symbol id="b" viewBox="0 0 33 30"><path fill="#9e4ca6" d="M0 0h33v30H0z"/><path d="M11.76 11H10.5v5h1.95l3.36 2.82a1.43 1.43 0 0 0 2-.27 1.57 1.57 0 0 0 0-2.12l-1.37-.91c-.37-.37-.11-.53.41-.53h3.09l1.3.77a1.7 1.7 0 0 0 2.37-.26l.12-.25a1.75 1.75 0 0 0 0-2.43l-2.3-2.32a1.69 1.69 0 0 0-1.21-.5h-5.1z" fill="none" stroke="#fff" stroke-miterlimit="10"/><path fill="none" stroke="#fff" stroke-linecap="square" stroke-miterlimit="10" d="M8.5 11.48v5"/></symbol><symbol id="c" viewBox="0 0 33 30"><path fill="#3fb9e8" d="M0 0h33v30H0z"/><path d="M17.24 15.44V5.56h-4v9.88a4.23 4.23 0 0 0-1.77 3.45 4.1 4.1 0 0 0 4.12 4 4.08 4.08 0 0 0 3.83-4c-.01-1.14-.18-2.26-2.18-3.45zm-3.5-7.88h2m-2 3h2m-2 3h2" fill="none" stroke="#fff" stroke-miterlimit="10"/></symbol><symbol id="d" viewBox="0 0 33 30"><path fill="#f2385a" d="M0 0h33v30H0z"/><path fill="none" stroke="#fff" stroke-miterlimit="10" d="M10.12 8.15l13.15 14.47"/><path d="M18.79 9L23 13.41v4.17L18.59 22h-4.18L10 17.59v-4.18L14.41 9H19m0-1h-5l-5 5v5l5 5h5l5-5v-5l-5-5z" fill="#fff"/></symbol><symbol id="e" viewBox="0 0 33 30"><path fill="#47b07b" d="M0 0h33v30H0z"/><path fill="none" stroke="#fff" stroke-miterlimit="10" d="M17.32 9.99l5.38 5.37-5.38 5.38M23 15.5H9"/></symbol><symbol id="f" viewBox="0 0 33 30"><path fill="#4ad9d9" d="M0 0h33v30H0z"/><path fill="none" stroke="#fff" stroke-miterlimit="10" d="M9.7 14.44l4.2 4.2 7.8-7.8"/></symbol><symbol id="g" viewBox="0 0 33 30"><path fill="#fa9200" d="M0 0h33v30H0z"/><path fill="none" stroke="#fff" stroke-miterlimit="10" d="M18.68 19.5h4.02l-7-11.86-7 11.86h3.98"/><path fill="none" stroke="#fff" stroke-miterlimit="10" stroke-width="2" d="M15.68 13v4m0 3v-2"/></symbol><symbol id="h" viewBox="0 0 67.3 61.59"><path fill="#38a86e" d="M0 0h67.3v61.59H0z"/><circle cx="33.65" cy="31.98" r="13.46" fill="none" stroke="#fff" stroke-miterlimit="10" stroke-width="2.071"/><path fill="none" stroke="#fff" stroke-miterlimit="10" stroke-width="2" d="M32.95 34.07v-10m-4-12h7.86"/><path fill="none" stroke="#fff" stroke-miterlimit="10" stroke-width="2.071" d="M45.94 18.75l-3.87 3.87"/></symbol><symbol id="i" viewBox="0 0 67.3 61.59"><path fill="#9e4ca6" d="M0 0h67.3v61.59H0z"/><path fill="none" stroke="#fff" stroke-miterlimit="10" stroke-width="2" d="M49.18 24.07v-10h-36v28h36v-8"/><path fill="none" stroke="#fff" stroke-miterlimit="10" stroke-width="2" d="M18.18 30.07h7.23l3.26-8.24 3.81 14.04 4.14-5.8h16.56"/></symbol><symbol id="j" viewBox="0 0 67.3 61.59"><path fill="#2db0e7" d="M0 0h67.3v61.59H0z"/><path fill="none" stroke="#fff" stroke-miterlimit="10" stroke-width="2" d="M46.18 44.06h-27v-26m18 1h8v10"/><path fill="none" stroke="#fff" stroke-miterlimit="10" stroke-width="2.071" d="M44.98 20.47l-8.39 8.39-3.73-3.73-9.33 9.32"/></symbol></defs><use width="33" height="30" transform="matrix(1.52 0 0 1.52 .68 109.93)" xlink:href="#a"/><use width="33" height="30" transform="translate(.68) scale(1.52)" xlink:href="#b"/><use width="33" height="30" transform="matrix(1.52 0 0 1.52 .68 219.46)" xlink:href="#c"/><use width="33" height="30" transform="matrix(1.52 0 0 1.52 165.74 219.46)" xlink:href="#d"/><path fill="#36d4d5" d="M166.13.8h49.5v45.31h-49.5z"/><path fill="none" stroke="#fff" stroke-miterlimit="10" stroke-width="2" d="M179.95 14.57h22v17h-22zm5 9h14m-14-5h11m-11 8h7"/><path fill="#fb8700" d="M331.19.8h49.5v45.31h-49.5z"/><path d="M351 13.57h17v18h-17l-7.41-9.73zm1.95 8h10m-10 3h5" fill="none" stroke="#fff" stroke-miterlimit="10" stroke-width="2"/><path fill="#36d4d5" d="M826.39.8h49.5v45.31h-49.5z"/><path fill="none" stroke="#fff" stroke-miterlimit="10" stroke-width="2" d="M839.95 14.57h22v17h-22zm5 9h14m-14-5h11m-11 8h6"/><path fill="#fb8700" d="M991.45.8h49.5v45.31h-49.5z"/><path d="M1011.21 13.57H1029v18h-17.74l-7.41-9.73zm2.74 8h9m-9 3h3" fill="none" stroke="#fff" stroke-miterlimit="10" stroke-width="2"/><use width="33" height="30" transform="translate(495.87) scale(1.52)" xlink:href="#e"/><use width="33" height="30" transform="matrix(1.52 0 0 1.52 495.87 109.93)" xlink:href="#f"/><use width="33" height="30" transform="matrix(1.52 0 0 1.52 660.94 109.93)" xlink:href="#a"/><use width="33" height="30" transform="matrix(1.52 0 0 1.52 495.87 219.46)" xlink:href="#g"/><use width="33" height="30" transform="translate(660.94) scale(1.52)" xlink:href="#b"/><use width="33" height="30" transform="matrix(1.52 0 0 1.52 660.94 219.46)" xlink:href="#c"/><use width="33" height="30" transform="matrix(1.52 0 0 1.52 826 219.46)" xlink:href="#d"/><use width="67.3" height="61.59" transform="matrix(.74 0 0 .74 826.39 110.33)" xlink:href="#h"/><use width="67.3" height="61.59" transform="matrix(.74 0 0 .74 166.13 110.33)" xlink:href="#h"/><use width="67.3" height="61.59" transform="matrix(.74 0 0 .74 991.45 110.33)" xlink:href="#i"/><use width="67.3" height="61.59" transform="matrix(.74 0 0 .74 331.19 110.33)" xlink:href="#i"/><use width="67.3" height="61.59" transform="matrix(.74 0 0 .74 991.45 219.86)" xlink:href="#j"/><use width="67.3" height="61.59" transform="matrix(.74 0 0 .74 331.19 219.86)" xlink:href="#j"/><use width="33" height="30" transform="matrix(1.52 0 0 1.52 331.68 442.43)" xlink:href="#a"/><use width="33" height="30" transform="matrix(1.52 0 0 1.52 331.68 332.5)" xlink:href="#b"/><use width="33" height="30" transform="matrix(1.52 0 0 1.52 331.68 551.96)" xlink:href="#c"/><use width="33" height="30" transform="matrix(1.52 0 0 1.52 495.74 551.96)" xlink:href="#d"/><path fill="#36d4d5" d="M496.13 333.29h49.5v45.31h-49.5z"/><path fill="none" stroke="#fff" stroke-miterlimit="10" stroke-width="2" d="M509.95 346.57h22v18h-22zm5 9h14m-14-4h11m-11 8h7"/><path fill="#fb8700" d="M661.19 333.29h49.5v45.31h-49.5z"/><path d="M681 346.57h17v17h-17l-7.41-9.23zm1.95 6h10m-10 4h5" fill="none" stroke="#fff" stroke-miterlimit="10" stroke-width="2"/><path fill="#36d4d5" d="M.39 333.29h49.5v45.31H.39z"/><path fill="none" stroke="#fff" stroke-miterlimit="10" stroke-width="2" d="M13.95 346.57h22v18h-22zm5 9h14m-14-4h11m-11 8h6"/><path fill="#fb8700" d="M165.45 333.29h49.5v45.31h-49.5z"/><path d="M185.21 346.57H203v17h-17.79l-7.41-9.23zm2.74 6h9m-9 4h3" fill="none" stroke="#fff" stroke-miterlimit="10" stroke-width="2"/><use width="33" height="30" transform="matrix(1.52 0 0 1.52 826 332.5)" xlink:href="#e"/><use width="33" height="30" transform="matrix(1.52 0 0 1.52 826 442.43)" xlink:href="#f"/><use width="33" height="30" transform="matrix(1.52 0 0 1.52 990.35 442.43)" xlink:href="#a"/><use width="33" height="30" transform="matrix(1.52 0 0 1.52 826 551.96)" xlink:href="#g"/><use width="33" height="30" transform="matrix(1.52 0 0 1.52 990.35 332.5)" xlink:href="#b"/><use width="33" height="30" transform="matrix(1.52 0 0 1.52 990.35 551.96)" xlink:href="#c"/><use width="33" height="30" transform="matrix(1.52 0 0 1.52 0 551.96)" xlink:href="#d"/><use width="67.3" height="61.59" transform="matrix(.74 0 0 .74 .39 442.82)" xlink:href="#h"/><use width="67.3" height="61.59" transform="matrix(.74 0 0 .74 496.13 442.82)" xlink:href="#h"/><use width="67.3" height="61.59" transform="matrix(.74 0 0 .74 165.45 442.82)" xlink:href="#i"/><use width="67.3" height="61.59" transform="matrix(.74 0 0 .74 661.19 442.82)" xlink:href="#i"/><use width="67.3" height="61.59" transform="matrix(.74 0 0 .74 165.45 552.35)" xlink:href="#j"/><use width="67.3" height="61.59" transform="matrix(.74 0 0 .74 661.19 552.35)" xlink:href="#j"/></svg>