<svg xmlns="http://www.w3.org/2000/svg" viewBox="0 0 1269.44 601.22"><defs><clipPath id="a"><path fill="none" d="M0 363.33h38.03v236.68H0z"/></clipPath><clipPath id="b"><path fill="none" d="M189.41 73.84h38.03v526.17h-38.03z"/></clipPath><clipPath id="c"><path fill="none" d="M378.83 404.28h38.03v195.73h-38.03z"/></clipPath><clipPath id="d"><path fill="none" d="M568.24 260.76h38.03v339.25h-38.03z"/></clipPath><clipPath id="e"><path fill="none" d="M757.65 151.61h38.03v448.4h-38.03z"/></clipPath><clipPath id="f"><path fill="none" d="M947.06 500.75h38.03v99.26h-38.03z"/></clipPath><clipPath id="g"><path fill="#3fb9e8" d="M1136.48 373.21h38.03v226.8h-38.03z"/></clipPath><clipPath id="h"><path fill="none" d="M94.71 256.86h38.03v343.15H94.71z"/></clipPath><clipPath id="i"><path fill="none" d="M284.12 382.13h38.03v217.88h-38.03z"/></clipPath><clipPath id="j"><path fill="none" d="M473.53 480.77h38.03v119.24h-38.03z"/></clipPath><clipPath id="k"><path fill="none" d="M662.95 348.18h38.03V600h-38.03z"/></clipPath><clipPath id="l"><path fill="none" d="M852.36 422.5h38.03v177.51h-38.03z"/></clipPath><clipPath id="m"><path fill="none" d="M1041.77 147.26h38.03v452.75h-38.03z"/></clipPath><clipPath id="n"><path fill="none" d="M1231.18 486.61h38.03v113.4h-38.03z"/></clipPath></defs><g opacity=".1"><path fill="#f5f6f6" d="M0 0h38.03v600H0zM94.8 0h38.03v600H94.8zM189.61 0h38.03v600h-38.03zM284.41 0h38.03v600h-38.03zM379.21 0h38.03v600h-38.03zM474.01 0h38.03v600h-38.03zM568.82 0h38.03v600h-38.03zM663.62 0h38.03v600h-38.03zM757.74 0h38.03v600h-38.03zM852.54 0h38.03v600h-38.03zM947 1.21h38.03v600H947zM1041.46 0h38.03v600h-38.03zM1136.61 1.21h38.03v600h-38.03zM1231.41 1.21h38.03v600h-38.03z"/><g clip-path="url(#a)" opacity=".5"><path fill="#3fb9e8" d="M0 309.65h38.03v290.36H0z"/></g><g clip-path="url(#b)" opacity=".5"><path fill="#3fb9e8" d="M189.41 73.84h38.03V600h-38.03z"/></g><g clip-path="url(#c)" opacity=".5"><path fill="#3fb9e8" d="M378.83 404.28h38.03v195.73h-38.03z"/></g><g clip-path="url(#d)" opacity=".5"><path fill="#3fb9e8" d="M568.24 435.59h38.03V600h-38.03z"/></g><g clip-path="url(#e)" opacity=".5"><path fill="#3fb9e8" d="M757.65 181.68h38.03V600h-38.03z"/></g><g clip-path="url(#f)" opacity=".5"><path fill="#3fb9e8" d="M947.07 500.75h38.03V600h-38.03z"/></g><g opacity=".5"><path fill="#3fb9e8" d="M1136.48 373.21h38.03v226.8h-38.03z"/><g clip-path="url(#g)"><path fill="#3fb9e8" d="M1136.48 373.21h38.03v226.8h-38.03z"/></g></g><g clip-path="url(#h)" opacity=".5"><path fill="#3fb9e8" d="M94.71 81.38h38.03v518.63H94.71z"/></g><g clip-path="url(#i)" opacity=".5"><path fill="#3fb9e8" d="M284.12 382.13h38.03V600h-38.03z"/></g><g clip-path="url(#j)" opacity=".5"><path fill="#3fb9e8" d="M473.53 480.77h38.03v119.24h-38.03z"/></g><g clip-path="url(#k)" opacity=".5"><path fill="#3fb9e8" d="M662.95 274.81h38.03v325.2h-38.03z"/></g><g clip-path="url(#l)" opacity=".5"><path fill="#3fb9e8" d="M852.36 422.5h38.03v177.51h-38.03z"/></g><g clip-path="url(#m)" opacity=".5"><path fill="#3fb9e8" d="M1041.77 205.68h38.03v394.33h-38.03z"/></g><g clip-path="url(#n)" opacity=".5"><path fill="#3fb9e8" d="M1231.18 422.5h38.03v177.51h-38.03z"/></g></g></svg>