<svg xmlns="http://www.w3.org/2000/svg" viewBox="0 0 516.25 517.96"><defs><style>.cls-1{opacity:0.05;}.cls-2,.cls-3,.cls-4{fill:#fff;}.cls-2,.cls-4,.cls-5{stroke:#000;stroke-width:3px;}.cls-2{stroke-miterlimit:10;}.cls-5{fill:none;}</style></defs><title>menu-items</title><g id="Layer_2" data-name="Layer 2"><g id="Layer_1-2" data-name="Layer 1"><path class="cls-1" d="M.42 0h238.5v238.5H.42z"/><g id="Lori_Lane" data-name="Lori Lane"><path d="M54.1 125.14h4v11.41h7v3.66h-11zM75.43 140.51a7.69 7.69 0 0 1-3.08-.61 7.58 7.58 0 0 1-2.45-1.67 7.74 7.74 0 0 1-1.61-2.48 7.86 7.86 0 0 1-.59-3 8 8 0 0 1 .59-3A7.78 7.78 0 0 1 81 127.12a7.71 7.71 0 0 1 1.61 2.48 7.84 7.84 0 0 1 .59 3 7.92 7.92 0 0 1-.59 3 7.62 7.62 0 0 1-1.63 2.5 7.69 7.69 0 0 1-5.55 2.29zm0-3.77a3.45 3.45 0 0 0 2.66-1.19 4.11 4.11 0 0 0 .74-1.28 4.46 4.46 0 0 0 .27-1.55 4.46 4.46 0 0 0-.27-1.55 4 4 0 0 0-.76-1.29 3.76 3.76 0 0 0-1.17-.89 3.37 3.37 0 0 0-1.51-.33 3.4 3.4 0 0 0-1.49.32 3.62 3.62 0 0 0-1.16.87 3.83 3.83 0 0 0-.74 1.28 4.62 4.62 0 0 0-.26 1.55 4.49 4.49 0 0 0 .27 1.55 4.13 4.13 0 0 0 .75 1.29 3.65 3.65 0 0 0 1.17.89 3.36 3.36 0 0 0 1.53.33zM87.6 125.14h6.81a8.08 8.08 0 0 1 2.82.43 4.68 4.68 0 0 1 3.14 4.71 4.89 4.89 0 0 1-.8 2.88 5.09 5.09 0 0 1-2.16 1.84l3.43 5.25h-4.6l-2.9-4.56h-1.75v4.56h-4zm6.62 7.23a2.33 2.33 0 0 0 1.58-.48 1.64 1.64 0 0 0 .55-1.3 1.59 1.59 0 0 0-.58-1.35 2.55 2.55 0 0 0-1.58-.44h-2.6v3.62zM107.38 125.14h4v15.06h-4zM123 125.14h4v11.41h7v3.66h-11zM142.78 125h3.84l6.13 15.18h-4.28l-1-2.69h-5.55l-1 2.69h-4.19zm3.5 9.26l-1.6-4.28-1.68 4.3zM155.87 125.14h3.73l5.93 8v-8h3.93v15.06H166l-6.16-8.27v8.27h-3.93zM174.08 125.14h11.55v3.55H178V131h6.91v3.29H178v2.39h7.73v3.55h-11.65zM92 163.66c0 6.45 28.11 10.11 28.11 10.11s27.3-5.07 27.3-10.11z"/><path d="M48.75 165.81v-19.9h70.07v4.3H53.06v11.3l65.76-.05c4 0 6.4-2.1 6.4-5.62v-2.15h57.64V158h-53.54c-.92 4.73-4.91 7.77-10.5 7.77z"/><path d="M190.59 165.81l-69.78-.05v-4.3l65.47.05v-11.3h-65.47c-.69 0-6.7.16-6.7 5.62V158h-57.8v-4.3H110c1.07-5.33 6.09-7.78 10.8-7.78h69.77z"/><circle cx="119.67" cy="155.98" r="3.04"/><path d="M85.43 116.62l-4.25-.69c1.69-10.45 9.37-18.59 22.21-23.55A71.24 71.24 0 0 1 122 88.07l3.91-.28-1.87 3.45a10 10 0 0 0-.87 2.73c-.62 3.87 1.44 6.42 6.32 7.81 2.41.68 5.06 1.33 7.86 2 11.47 2.78 22.3 5.41 22.3 11.86h-4.3c0-3.06-11.9-5.95-19-7.67-2.84-.69-5.53-1.34-8-2-9.87-2.8-9.86-9.77-9.4-12.64 0-.18.06-.35.1-.52-8.52 1.24-30.79 6.28-33.62 23.81z"/><path d="M100.11 117.47a14 14 0 0 1-.71-11.11c2.38-7 9.7-13.07 21.76-17.91l1.6 4c-10.61 4.26-17.27 9.51-19.25 15.18a9.68 9.68 0 0 0 .31 7.65z"/><path d="M130.37 118.28c-10.28-4-15.94-9-16.82-15-1.18-8 6.75-14.26 7.09-14.52l2.64 3.4c-.06 0-6.29 5-5.47 10.51.64 4.29 5.51 8.3 14.1 11.6z"/><path d="M49.03 114.12H190.3v4.3H49.03z"/><circle cx="162.84" cy="102.8" r="4.44"/><circle cx="119.67" cy="76.66" r="7.31"/><circle cx="74.03" cy="102.8" r="4.44"/><path d="M183.75 116.11v-.14l4-1.1h.53zm-1.29-3.9h-.09c-.47-1.28-1-2.54-1.62-3.77v-.07l3.87-1.87v.06c.66 1.35 1.26 2.74 1.78 4.12v.07zm-3.63-7.39v-.06c-.7-1.16-1.46-2.32-2.25-3.46v-.06l3.52-2.5v.06c.88 1.25 1.69 2.51 2.44 3.76v.06zm-4.76-6.74v-.06c-.86-1-1.78-2.05-2.73-3l-.07.07v-.2l3.11-3V92c1 1 2 2.12 3 3.29l.06.06zm-5.75-6h-.06c-1-.9-2.08-1.81-3.19-2.67h-.06l2.65-3.41h.06c1.16.9 2.31 1.87 3.42 2.86zM161.78 87h-.22l.07-.06c-1.16-.79-2.32-1.52-3.46-2.2h-.06l2.2-3.7h.06c1.23.73 2.5 1.54 3.75 2.38h.07zm-7.18-4.3h-.07c-1.23-.63-2.48-1.23-3.73-1.78l-.2.17 1.94-4.13c1.32.57 2.66 1.22 4 1.88h.06zm-7.6-3.35h-.07c-1.28-.47-2.61-.93-4-1.35h-.07l1.28-4.1h.07c1.39.44 2.81.92 4.19 1.43h.07zm-8-2.5h-.07c-1.33-.34-2.71-.65-4.09-.92h-.07l.85-4.28.07.07c1.43.29 2.87.6 4.3 1h.01zM54.91 116.11l-4.51-1.25h.6l4 1.14zm1.36-3.9h-.09l-4-1.51v-.14c.52-1.36 1.11-2.73 1.75-4.06v-.06l3.87 1.87v.07c-.6 1.23-1.15 2.5-1.62 3.77zm3.54-7.39l-3.69-2.2v-.06c.75-1.25 1.56-2.51 2.44-3.76v-.06l3.49 2.51v.11h-.06c-.79 1.12-1.54 2.27-2.21 3.42zm4.78-6.74l-3.31-2.76v-.06c.93-1.12 1.94-2.24 3-3.31l.06-.06 3.06 3c-.95 1-1.88 2-2.77 3.07zm5.76-6l-2.89-3.2h.06c1.09-1 2.24-1.94 3.42-2.86L71 86l2.66 3.39h-.06c-1.12.88-2.18 1.77-3.2 2.67zM76.9 87l-2.42-3.56h.06c1.23-.83 2.5-1.64 3.76-2.38h.06l2.2 3.7h-.07c-1.19.7-2.37 1.45-3.52 2.22zm7.28-4.06l-2.07-4h.06c1.28-.66 2.63-1.31 4-1.91h.06L88 80.87h-.06c-1.29.57-2.55 1.16-3.73 1.78zm7.58-3.6h-.07l-1.48-4h.07c1.35-.5 2.76-1 4.18-1.43h.07l1.28 4.1h-.07c-1.32.4-2.63.86-3.9 1.33zm7.94-2.47l-1-4.18h.07q2.13-.54 4.26-.95h.13v.06l.8 4.15h-.07c-1.41.29-2.78.59-4.09.92zM117.63 75.33c-2.77-8.38 3.69-13.95 4-14.18l2.77 3.29-1.4-1.65 1.4 1.64c-.18.16-4.51 4-2.67 9.55z"/><path d="M113.66 68.06A9.38 9.38 0 0 0 119 70.6a9.38 9.38 0 0 0-2.16-5.54c-2.08-2.23-5.65-2.27-5.65-2.27a10.34 10.34 0 0 0 2.47 5.27z"/></g><path class="cls-1" d="M277.49 279.46h238.5v238.5h-238.5zM277.75 0h238.5v238.5h-238.5zM0 279.46h238.5v238.5H0z"/><g id="Maverick"><path d="M399.83 173.28A49.31 49.31 0 0 1 354.27 143l4-1.67a45.12 45.12 0 0 0 83 .45l3.95 1.71a49.4 49.4 0 0 1-45.39 29.79zM440.66 107.59c-.6-1.27-1.26-2.52-2-3.73l3.71-2.19c.78 1.32 1.51 2.69 2.16 4.08z"/><path d="M357.59 110.77l-1.79-1.19-2.06-.61 2 .58-1.94-.76c.56-1.43 1.19-2.84 1.88-4.2l.12-.25 1.79 1.19 2.06.6-2-.58h.06l1.81.91c-.62 1.24-1.2 2.53-1.71 3.84zm-1.83-1.22h-.06zm1.84-4l.11.05zm81.15-1.55l-.26-.53 2.09-.7zm-77.21-1l-3.61-2.35c.81-1.3 1.7-2.57 2.62-3.78l1.71 1.31-.14-.11 1.93 1.29-.09.12c-.84 1.1-1.63 2.24-2.36 3.42l-2.1-1.32 2.07 1.37zm79-.16l1.8-1.18zm-4.08-2.33l1.54-1.33-1.61 1.16c-.82-1.13-1.7-2.23-2.62-3.29l1.51-1.33-1.57 1.28 1.58-1.26 1.62-1.62.11.12c1 1.15 2 2.37 2.87 3.6l.06.08-1.8 1.2zm1.68-1.35l-.3.22zm-2.75-3.44zm-68.92.74L365 94.67l.08.06-.11-.1-1.3-1.56 1.3 1.56-1.49-1.37c1-1.12 2.13-2.21 3.27-3.24l.07-.07 1.38 1.66 1.51 1.52-1.41-1.41 1.32 1.49c-1 .94-2 1.93-3 3zm1.77-4.76l.25.27zm-3.14 3.1l-1.67-1.36zm65.88-.6l-.11-.1c-1-1-2.09-1.89-3.18-2.75l-.37-.34 1.68-1.44 1.21-1.78-1.21 1.75 1.29-1.65c1.2.94 2.37 2 3.48 3l-1.37 1.45 1.41-1.41-1.41 1.41zm1.37-1.67zM429 89.54zm-56.2 1.08l-1.17-1.75-1.72-1.37.41-.38c1.23-.92 2.52-1.78 3.82-2.58l1.11 1.83v-.09l1.26 1.89-.09.05c-1.19.72-2.36 1.51-3.48 2.35l-1.26-1.69zm-1.19-1.79zm52.82.12l.91-1.82-1.11 1.7c-1.16-.75-2.37-1.45-3.6-2.1l-.21-.12 1.26-1.89v.09l.05-.1L422.8 83l-1.12 1.68.93-1.79c1.36.71 2.69 1.49 4 2.31l-1.18 1.8zm1-1.93l-.55.85zm-45.33-.83l-1.92-3.85 1.16 2.3-1.13-2.32c1.38-.67 2.8-1.29 4.23-1.82l.38 1-.38-1 1.51 4c-1.3.49-2.59 1-3.84 1.65zm37-1.14l.51-2-.05.1-.75 1.85c-1.29-.52-2.62-1-4-1.4l.56-1.88-.62 1.86.62-1.87.57-2.27h.11c1.47.44 2.93 1 4.34 1.53l.17.06-1 1.93zm.52-2.08l-.06.16zm-4.15-1.47v-.08zm8.13 3.3l1-1.92zm-33.7-1.55l-.57-2.25.06.18-.54-2.09.35 1.4-.38-1.4c1.48-.4 3-.74 4.5-1l.35 2.13.51 2.09-.48-1.92.33 1.95c-1.37.24-2.76.55-4.1.91zm3.79-3l.36 2.08zm17.17 2.36h-.08c-1.36-.27-2.76-.49-4.15-.64l.21-2.06-.34 2 .34-2v-2.3h.24c1.52.16 3.06.4 4.55.7l-.38 1.94.48-1.92-.48 1.92zm-4-2.79zm-8.81 2v-2.17l-.34-2.12.34 2v-.09l-.16-2c1.31-.1 2.64-.15 3.94-.15h.66v4.3-2.08 2.15h-.6c-1.2 0-2.41 0-3.61.14zm0-2.24zm-8.67 1.6l-.67-2zM373.29 149c0 6.26 12.63 15.31 27.94 15.31C415.38 164.33 427 153.9 427 149M451.5 107.78l-1.62-4c5.84-2.38 10.36-8.8 11.59-16.42-2.48 3.58-6.19 6.38-12.22 7.25a15.44 15.44 0 0 1-5.44-.84l1.19-4.11a12.93 12.93 0 0 0 3.59.7c8.63-1.26 11-7.23 13-14.32l4.21.32a55.92 55.92 0 0 1-.08 11.33c-1.33 9.23-6.93 17.12-14.22 20.09zM347.63 107.84c-7.18-2.92-12.71-10.83-14.09-20.15a55.84 55.84 0 0 1-.08-11.33l4.21-.32c2 7.09 4.38 13.06 13 14.32a12.76 12.76 0 0 0 3.59-.7l1.24 4.12a15.41 15.41 0 0 1-5.44.84c-6-.88-9.74-3.67-12.22-7.25 1.24 7.71 5.69 14.16 11.41 16.48z"/><path class="cls-3" d="M468.74 142.44H329.01"/><path d="M329.01 140.29h139.73v4.3H329.01zM348.84 120.74h3.65l3 5.06 3-5.06h3.65v13.06h-3.44v-7.5l-3.18 5.11h-.07l-3.16-5.07v7.46h-3.4zM369.59 120.65h3.33l5.31 13.15h-3.71l-.91-2.33h-4.81l-.89 2.33h-3.63zm3 8l-1.36-3.65-1.41 3.71zM378.2 120.74h3.87l2.83 8.26 2.83-8.27h3.79l-5.06 13.15h-3.21zM393.7 120.74h10v3.08h-6.6v2h6v2.85h-6v2.07h6.7v3.08h-10.1zM406.93 120.74h5.9a7 7 0 0 1 2.44.37 4.06 4.06 0 0 1 2.73 4.09 4.24 4.24 0 0 1-.7 2.5 4.44 4.44 0 0 1-1.87 1.51l3 4.55h-4l-2.51-4h-1.51v4h-3.46zm5.74 6.27a2 2 0 0 0 1.37-.42 1.42 1.42 0 0 0 .48-1.13 1.37 1.37 0 0 0-.5-1.17 2.2 2.2 0 0 0-1.37-.38h-2.26V127zM421 120.74h3.48v13.06H421zM433.86 134.06a6.33 6.33 0 0 1-2.51-.5 6.16 6.16 0 0 1-2-1.41 6.82 6.82 0 0 1-1.37-2.15 7.07 7.07 0 0 1-.51-2.7 7.06 7.06 0 0 1 .5-2.66 6.82 6.82 0 0 1 1.37-2.17 6.24 6.24 0 0 1 2.08-1.44 6.52 6.52 0 0 1 2.63-.52 7.23 7.23 0 0 1 1.75.2 5.72 5.72 0 0 1 2.61 1.43 7.15 7.15 0 0 1 .93 1.1l-2.6 2.11a4.6 4.6 0 0 0-1.18-1.12 2.82 2.82 0 0 0-1.55-.41 2.68 2.68 0 0 0-1.2.27 2.88 2.88 0 0 0-.93.74 3.49 3.49 0 0 0-.62 1.1 4 4 0 0 0-.22 1.34 4.16 4.16 0 0 0 .22 1.37 3.46 3.46 0 0 0 .62 1.11 2.88 2.88 0 0 0 .93.74 2.66 2.66 0 0 0 1.2.27 3.29 3.29 0 0 0 .88-.11 2.63 2.63 0 0 0 .73-.33 4 4 0 0 0 .62-.5 7.54 7.54 0 0 0 .58-.64l2.6 1.94a9.54 9.54 0 0 1-1 1.17 5.57 5.57 0 0 1-1.19.93 6.08 6.08 0 0 1-1.5.62 7.12 7.12 0 0 1-1.87.22zM441.9 120.74h3.46V126l4.29-5.3h4.1l-4.75 5.66 4.88 7.44h-4.15l-3.11-4.8-1.27 1.47v3.38h-3.45zM400.28 86.93a39.83 39.83 0 0 0-37.15 25.47h74.32a39.83 39.83 0 0 0-37.17-25.47zM387 106.15l-2.38-1.52-2.38 1.52.71-2.73-2.18-1.8 2.82-.17 1-2.63 1 2.63 2.82.17-2.18 1.8zm15.94-4.24l-2.79-1.78-2.79 1.78.83-3.2-2.55-2.1 3.3-.2 1.21-3.07 1.21 3.07 3.3.2-2.55 2.1zm14.7 4.24l-2.38-1.52-2.38 1.52.71-2.73-2.18-1.8 2.82-.17 1-2.63 1 2.63 2.82.17-2.18 1.8z"/><path d="M451.12 107c-8.46-20.68-28.74-34-51.66-34a56 56 0 0 0-50.93 32.88L344.6 104a60.32 60.32 0 0 1 54.86-35.41c24.68 0 46.52 14.41 55.65 36.72z"/><path class="cls-3" d="M438.96 150.36h14.15"/><path d="M438.97 148.21h14.15v4.3h-14.15z"/><path class="cls-3" d="M345.69 150.36h14.15"/><path d="M345.69 148.21h14.15v4.3h-14.15z"/><path class="cls-3" d="M352.86 157.53h14.15"/><path d="M352.87 155.38h14.15v4.3h-14.15z"/><path class="cls-3" d="M433.22 157.53h14.15"/><path d="M433.23 155.38h14.15v4.3h-14.15zM313.67 110.15h167.72v4.3H313.67z"/></g><g id="Elvis"><path d="M62.23 433.48h116.99v4.3H62.23zM62.23 403.34h116.99v4.3H62.23zM87.59 412.71h11.55v3.55h-7.62v2.28h6.91v3.29h-6.91v2.39h7.73v3.55H87.59zM103.46 412.71h4v11.41h7v3.66h-11zM115 412.71h4.46l3.27 9.53 3.27-9.53h4.38l-5.84 15.18h-3.7zM133.56 412.71h4v15.07h-4zM147.81 428a10.69 10.69 0 0 1-3.67-.63 8.82 8.82 0 0 1-3.07-1.88l2.22-2.78a7.14 7.14 0 0 0 4.67 1.81 2.29 2.29 0 0 0 1.22-.27.85.85 0 0 0 .42-.76.84.84 0 0 0-.1-.42 1.08 1.08 0 0 0-.38-.35 3.91 3.91 0 0 0-.74-.33 12 12 0 0 0-1.2-.33q-1.15-.28-2.14-.61a6.44 6.44 0 0 1-1.72-.86 3.84 3.84 0 0 1-1.15-1.31 4.05 4.05 0 0 1-.42-1.94 4.8 4.8 0 0 1 .38-1.93 4.23 4.23 0 0 1 1.11-1.52 5.13 5.13 0 0 1 1.76-1 7.09 7.09 0 0 1 2.32-.35 9.93 9.93 0 0 1 3.3.51 8.2 8.2 0 0 1 2.62 1.51l-2 3a8 8 0 0 0-2-1.11 5.88 5.88 0 0 0-2-.38 1.74 1.74 0 0 0-1.08.28.84.84 0 0 0-.36.69.88.88 0 0 0 .11.45 1.05 1.05 0 0 0 .39.35 4.2 4.2 0 0 0 .76.32c.32.11.73.22 1.22.33a16.89 16.89 0 0 1 2.23.66 6.56 6.56 0 0 1 1.7.91 3.6 3.6 0 0 1 1.07 1.3 4.13 4.13 0 0 1 .37 1.82 4.81 4.81 0 0 1-.42 2.06 4.4 4.4 0 0 1-1.18 1.54 5.31 5.31 0 0 1-1.83 1 8 8 0 0 1-2.41.22z"/><path class="cls-3" d="M166.75 387.06H77.03"/><path d="M77.03 384.91h89.71v4.3H77.03zM107.41 374.01l4.81 8.34h-9.63l4.82-8.34zM93.06 374.01l4.81 8.34h-9.63l4.82-8.34zM100.23 378.18l-4.81-8.34h9.63l-4.82 8.34zM143.28 378.18l-4.81-8.34h9.62l-4.81 8.34zM136.12 374.01l4.81 8.34h-9.63l4.82-8.34zM150.47 374.01l4.81 8.34h-9.63l4.82-8.34z"/><circle cx="116.66" cy="368.63" r="4.06"/><circle cx="126.43" cy="368.63" r="4.2"/><circle cx="121.33" cy="360.14" r="4.42"/><path class="cls-3" d="M155.05 386.74v18.75"/><path d="M152.9 386.74h4.3v18.76h-4.3z"/><path class="cls-3" d="M138.18 387.06v18.08"/><path d="M136.03 387.06h4.3v18.07h-4.3z"/><path class="cls-3" d="M121.32 387.06v18.31"/><path d="M119.17 387.06h4.3v18.31h-4.3z"/><path class="cls-3" d="M104.46 387.06v18.43"/><path d="M102.3 387.06h4.3v18.43h-4.3z"/><path class="cls-3" d="M87.59 387.06v18.31"/><path d="M85.44 387.06h4.3v18.31h-4.3z"/><path class="cls-3" d="M87.59 396.16h67.46"/><path d="M87.59 394h67.45v4.3H87.59zM155.65 452.72H86.91v-16.99h4.31v12.68h60.13v-12.07h4.3v16.38z"/><path d="M95.64 435.61h51.56v8.87H95.64zM87.7 407.11c-.32-.23-31.48-22.94-16.69-48.06 3.24-5.51 7.78-8.91 13.48-10.09 13.8-2.88 29.49 8.38 30.15 8.86l-2.53 3.48c-.15-.11-14.83-10.62-26.76-8.13-4.52.94-8 3.58-10.64 8.06-12.8 21.77 15.21 42.17 15.5 42.38zM155.64 407.24l-2.53-3.48a65.3 65.3 0 0 0 13.41-13.88c7.23-10.49 7.82-20.07 1.76-28.47a18.22 18.22 0 0 0-12.17-7.8c-12-1.91-25.2 7.61-25.33 7.7l-2.54-3.47c.6-.44 14.77-10.66 28.54-8.48a22.38 22.38 0 0 1 15 9.54c17.13 23.75-15.78 48.1-16.14 48.34z"/><path d="M156.22 406.84l-2.35-3.61c.08-.05 8.45-5.65 10.34-15.09 1.19-6-.41-12.25-4.76-18.72-10.74-15.95-26.38-9.52-27-9.24l-1.7-4c.19-.09 19.54-8.17 32.31 10.79 5 7.47 6.85 14.88 5.41 22-2.32 11.28-11.84 17.6-12.25 17.87zM87.56 406.84c-.4-.26-9.92-6.59-12.2-17.8-1.45-7.14.37-14.55 5.4-22 12.8-19 32.17-10.28 32.36-10.19l-1.81 3.91c-.66-.3-16.26-7.22-27 8.69-4.37 6.48-6 12.8-4.75 18.76 1.92 9.47 10.25 15 10.33 15zM115.84 347.11h11v4.3h-11z"/><path d="M119.18 349.41h4.3v10.22h-4.3z"/><circle cx="121.33" cy="376.79" r="4.06"/><path d="M153.64 440.89h17.16v4.3h-17.16zM72.6 440.89H89v4.3H72.6z"/></g><g id="Salad"><path d="M394.56 378.94l-2.14-.77c-.25-.09-6.13-2.25-9-7.48S382 359.34 382 359.08l.51-2.21 2.14.77c.25.09 6.13 2.25 9 7.49s1.48 11.35 1.42 11.61zm-8.88-16.29a11 11 0 0 0 5.73 10.52 12.42 12.42 0 0 0-1.31-6.11 12.41 12.41 0 0 0-4.42-4.41zM398.43 378.92l-.48-2.22c-.06-.26-1.35-6.43 1.59-11.66 2.94-5.23 8.89-7.32 9.14-7.4l2.15-.74.48 2.22c.06.26 1.35 6.43-1.59 11.66s-8.89 7.32-9.14 7.4zm4.63-11.92a12.54 12.54 0 0 0-1.4 6.16 11.08 11.08 0 0 0 5.95-10.55 12.54 12.54 0 0 0-4.54 4.39zM397 364.2l-1.45-1.75c-.14-.17-3.52-4.31-3.34-9.39a16.88 16.88 0 0 1 3.32-9l1.42-1.79 1.6 1.64c.17.17 4.19 4.34 4 9.52s-3.83 9-4 9.14zm.3-15.2a11.35 11.35 0 0 0-1 4.21 9.57 9.57 0 0 0 1 4.3 9.58 9.58 0 0 0 1.28-4.23 8.33 8.33 0 0 0-1.28-4.28zM377.12 404.6l-17.83-17.83 17.83-17.83 17.83 17.83zM365 386.77l12.11 12.11 12.12-12.11-12.12-12.11zM416.26 404.6l-17.83-17.83 17.83-17.83 17.83 17.83zm-12.12-17.83l12.12 12.11 12.12-12.11-12.12-12.12z"/><path d="M416.263 379.145l7.615 7.616-7.615 7.616-7.616-7.615zM396.69 407.2l-4.5-3.15 4.5-4.51 4.5 4.51-4.5 3.15zM377.116 379.15l7.616 7.615-7.616 7.615-7.615-7.615z"/><path d="M383.41 407.45l-2.85-2.86 16.13-16.08 15.97 15.97-2.86 2.86-13.11-13.11-13.28 13.22zM364.2 427.08a10 10 0 0 1-3.44-.59 8.27 8.27 0 0 1-2.88-1.77l2.08-2.61a6.69 6.69 0 0 0 4.38 1.7 2.15 2.15 0 0 0 1.15-.25.8.8 0 0 0 .4-.72.79.79 0 0 0-.1-.39 1 1 0 0 0-.36-.33 3.59 3.59 0 0 0-.69-.31 11.28 11.28 0 0 0-1.13-.31q-1.08-.26-2-.57a6 6 0 0 1-1.61-.81 3.59 3.59 0 0 1-1.08-1.23 3.83 3.83 0 0 1-.4-1.82 4.55 4.55 0 0 1 .36-1.82 4 4 0 0 1 1-1.43 4.85 4.85 0 0 1 1.65-.94 6.67 6.67 0 0 1 2.18-.33 9.33 9.33 0 0 1 3.1.48 7.73 7.73 0 0 1 2.46 1.41l-1.87 2.78a7.46 7.46 0 0 0-1.9-1 5.51 5.51 0 0 0-1.88-.35 1.63 1.63 0 0 0-1 .26.79.79 0 0 0-.34.65.82.82 0 0 0 .11.42 1 1 0 0 0 .37.33 4 4 0 0 0 .71.3c.3.1.69.21 1.15.31a15.89 15.89 0 0 1 2.09.61 6.17 6.17 0 0 1 1.59.86 3.4 3.4 0 0 1 1 1.22 3.87 3.87 0 0 1 .35 1.7 4.53 4.53 0 0 1-.4 1.94 4.11 4.11 0 0 1-1.11 1.44 4.92 4.92 0 0 1-1.72.91 7.51 7.51 0 0 1-2.22.26zM377.45 412.59h3.61l5.75 14.24h-4l-1-2.53h-5.21l-1 2.53h-3.9zm3.28 8.69l-1.51-4-1.52 4zM389.73 412.69h3.74v10.71H400v3.43h-10.27zM408.29 412.59h3.61l5.75 14.24h-4l-1-2.53h-5.21l-1 2.53h-3.94zm3.28 8.69l-1.5-4-1.52 4zM420.58 412.69h5.21a9.44 9.44 0 0 1 3.23.51 6.76 6.76 0 0 1 2.39 1.44 6.17 6.17 0 0 1 1.49 2.21 7.55 7.55 0 0 1 .51 2.82 7.58 7.58 0 0 1-.52 2.84 6.38 6.38 0 0 1-1.51 2.25 6.9 6.9 0 0 1-2.38 1.54 9.26 9.26 0 0 1-3.25.54h-5.13zm5.27 10.67a3.88 3.88 0 0 0 2.71-.93 3.39 3.39 0 0 0 1-2.65 3.4 3.4 0 0 0-1-2.64 3.86 3.86 0 0 0-2.71-.94h-1.53v7.19zM431.758 444l3.153 3.153-3.152 3.154-3.154-3.154zM361.18 444.002l3.154 3.154-3.154 3.153-3.154-3.154zM367.92 440.76h5a6.58 6.58 0 0 1 2 .29 4.32 4.32 0 0 1 1.54.84 3.69 3.69 0 0 1 1 1.36 4.63 4.63 0 0 1 .34 1.82 4.54 4.54 0 0 1-.38 1.91 3.89 3.89 0 0 1-1 1.38 4.45 4.45 0 0 1-1.6.84 7 7 0 0 1-2 .28h-1.61V453h-3.24zm4.78 6.09a2 2 0 0 0 1.36-.43 1.48 1.48 0 0 0 .49-1.17 1.49 1.49 0 0 0-.49-1.21 2.09 2.09 0 0 0-1.38-.41h-1.52v3.26zM380.72 440.76H384V453h-3.26zM387.34 450.55l5.87-6.92h-5.67v-2.87h10.15v2.47l-5.87 6.92h5.87V453h-10.35zM400.6 450.55l5.87-6.92h-5.67v-2.87h10.15v2.47l-5.87 6.92h5.87V453H400.6zM418.29 440.67h3.13l5 12.34h-3.48l-.85-2.19h-4.52l-.84 2.19h-3.43zm2.84 7.53l-1.3-3.48-1.32 3.48z"/><path d="M469.84 450.68H437.4v-4.04h28.4v-10.37H326.57v10.37h27.39v4.04h-31.43v-18.45h147.31v18.45zM341.3 403.95h110.78v4.04H341.3z"/><path class="cls-5" d="M450.9 441.21h17.94M324.2 441.21h17.94"/></g></g></g></svg>