<svg xmlns="http://www.w3.org/2000/svg" viewBox="0 0 830 520"><defs><style>.cls-1,.cls-13,.cls-17,.cls-2,.cls-33,.cls-41,.cls-44,.cls-46,.cls-52,.cls-55,.cls-56,.cls-7{fill:#607d8b;}.cls-1{opacity:0.1;}.cls-2,.cls-45,.cls-51,.cls-53,.cls-55{font-size:6.9px;}.cls-13,.cls-17,.cls-2,.cls-26,.cls-28,.cls-33,.cls-41,.cls-44,.cls-48,.cls-52,.cls-55{font-family:Flama-Light, Flama Light;}.cls-2,.cls-53{letter-spacing:0.1em;}.cls-3{letter-spacing:0.08em;}.cls-4{letter-spacing:0.09em;}.cls-5,.cls-51,.cls-55{letter-spacing:0.1em;}.cls-28,.cls-6{fill:#fff;}.cls-17,.cls-33,.cls-44,.cls-52,.cls-56,.cls-7{font-size:10.73px;}.cls-42,.cls-45,.cls-46,.cls-51,.cls-53,.cls-56,.cls-7{font-family:Flama-Medium, Flama Medium;}.cls-57,.cls-7{letter-spacing:0.1em;}.cls-8{letter-spacing:0.08em;}.cls-9{letter-spacing:0.12em;}.cls-10{letter-spacing:0.1em;}.cls-11,.cls-23,.cls-24,.cls-25,.cls-36,.cls-37,.cls-38{fill:#ff1744;}.cls-12,.cls-39,.cls-40,.cls-54{fill:none;}.cls-13{font-size:13.8px;}.cls-14{letter-spacing:-0.07em;}.cls-15{letter-spacing:-0.01em;}.cls-16{letter-spacing:0em;}.cls-18,.cls-25,.cls-44{letter-spacing:0.02em;}.cls-19{letter-spacing:0.05em;}.cls-20,.cls-37{letter-spacing:0.01em;}.cls-21,.cls-33{letter-spacing:0.03em;}.cls-22,.cls-23,.cls-52{letter-spacing:0.03em;}.cls-24,.cls-34{letter-spacing:0.03em;}.cls-26,.cls-28{font-size:9.6px;letter-spacing:0.1em;}.cls-26,.cls-30{fill:#2c2c3e;}.cls-27{letter-spacing:0.12em;}.cls-29{letter-spacing:0.12em;}.cls-31{letter-spacing:-0.01em;}.cls-32{letter-spacing:0em;}.cls-35{letter-spacing:-0.02em;}.cls-36{letter-spacing:0.01em;}.cls-38{letter-spacing:0.01em;}.cls-39{stroke:#f0f0f0;}.cls-39,.cls-40,.cls-54{stroke-miterlimit:10;}.cls-39,.cls-54{stroke-width:0.77px;}.cls-40{stroke:#607d8b;stroke-width:1.15px;}.cls-41,.cls-48{font-size:27.59px;}.cls-42,.cls-46{font-size:36.79px;}.cls-43{letter-spacing:0em;}.cls-45{letter-spacing:0.1em;}.cls-47{letter-spacing:-0.01em;}.cls-48{letter-spacing:0em;}.cls-49{letter-spacing:0.01em;}.cls-50{letter-spacing:-0.01em;}.cls-54{stroke:#fff;}.cls-56{letter-spacing:0.06em;}.cls-58{letter-spacing:0.02em;}.cls-59{letter-spacing:0.09em;}.cls-60{fill:#b0bec5;}</style></defs><title>card-placehold</title><g id="Layer_2" data-name="Layer 2"><g id="Layer_1-2" data-name="Layer 1"><rect class="cls-1" width="830" height="520"/><text></text><g id="upcoming_meetings" data-name="upcoming meetings"><g id="_Group_" data-name="&lt;Group&gt;"><text class="cls-2" transform="translate(723.58 312.38)">SEE <tspan class="cls-3" x="14.41" y="0">A</tspan><tspan x="19.22" y="0">GEN</tspan><tspan class="cls-4" x="33.67" y="0">D</tspan><tspan class="cls-5" x="38.86" y="0">A</tspan></text></g><g id="_Group_2" data-name="&lt;Group&gt;"><rect class="cls-6" x="46.99" y="331.54" width="735.77" height="61.31" rx="1.25" ry="1.25"/></g><g id="_Group_3" data-name="&lt;Group&gt;"><text class="cls-7" transform="translate(69.22 307.02)">UP<tspan class="cls-8" x="14.8" y="0">C</tspan><tspan x="21.87" y="0">OMING ME</tspan><tspan class="cls-9" x="79.21" y="0">E</tspan><tspan class="cls-10" x="85.73" y="0">TINGS</tspan></text></g><g id="_Group_4" data-name="&lt;Group&gt;"><path id="_Compound_Path_" data-name="&lt;Compound Path&gt;" class="cls-11" d="M59.26,296.29h-.77v-1.53H57v1.53H50.83v-1.53H49.29v1.53h-.77A1.53,1.53,0,0,0,47,297.82v10.73a1.53,1.53,0,0,0,1.53,1.53H59.26a1.54,1.54,0,0,0,1.53-1.53V297.82A1.54,1.54,0,0,0,59.26,296.29Zm-5.36,2.3a2.3,2.3,0,1,1-2.3,2.3A2.3,2.3,0,0,1,53.89,298.59Zm4.6,9.2h-9.2V307c0-1.53,3.07-2.38,4.6-2.38s4.6.84,4.6,2.38Z"/><path id="_Path_" data-name="&lt;Path&gt;" class="cls-12" d="M44.7,294H63.09v18.39H44.7Z"/></g><g id="_Group_5" data-name="&lt;Group&gt;"><text class="cls-13" transform="translate(125.17 357.6)"><tspan class="cls-14">T</tspan><tspan x="5.88" y="0">od</tspan><tspan class="cls-15" x="21.23" y="0">a</tspan><tspan x="27.77" y="0">y </tspan><tspan class="cls-16" x="37.19" y="0">a</tspan><tspan x="43.79" y="0">t 12 pm</tspan></text></g><g id="_Group_6" data-name="&lt;Group&gt;"><text class="cls-17" transform="translate(125.17 372.93)">P<tspan class="cls-18" x="5.71" y="0">o</tspan><tspan class="cls-19" x="11.87" y="0">r</tspan><tspan class="cls-18" x="15.9" y="0">t</tspan><tspan class="cls-20" x="19.72" y="0">f</tspan><tspan class="cls-18" x="22.98" y="0">olio </tspan><tspan class="cls-21" x="43.42" y="0">R</tspan><tspan class="cls-22" x="49.51" y="0">eview with </tspan><tspan class="cls-23" x="103.24" y="0">Ch</tspan><tspan class="cls-24" x="115.96" y="0">r</tspan><tspan class="cls-25" x="119.78" y="0">istina C. </tspan></text></g><g id="_Group_7" data-name="&lt;Group&gt;"><rect class="cls-11" x="473.87" y="346.45" width="140.26" height="26.82" rx="1.25" ry="1.25"/></g><text class="cls-26" transform="translate(660.9 362.97)">ME<tspan class="cls-27" x="14.37" y="0">E</tspan><tspan x="20.21" y="0">TING GUIDE</tspan></text><text class="cls-28" transform="translate(491.52 362.97)">JOIN ME<tspan class="cls-29" x="39.99" y="0">E</tspan><tspan x="45.83" y="0">TING</tspan></text><g id="_Group_8" data-name="&lt;Group&gt;"><path id="_Compound_Path_2" data-name="&lt;Compound Path&gt;" class="cls-30" d="M759.77,358.33h-2v-3.07h-3.07v3.07h-2l3.58,3.58Zm-7.15,4.6v1h7.15v-1Z"/></g><g id="_Group_9" data-name="&lt;Group&gt;"><path id="_Compound_Path_3" data-name="&lt;Compound Path&gt;" class="cls-6" d="M599.59,359.13a1.28,1.28,0,1,0-1.28-1.28A1.27,1.27,0,0,0,599.59,359.13Zm-3.83-.51a1.53,1.53,0,1,0-1.53-1.53A1.53,1.53,0,0,0,595.75,358.62Zm3.83,1.53c-.94,0-2.81.47-2.81,1.41v1.15h5.62v-1.15C602.4,360.63,600.52,360.16,599.59,360.16Zm-3.83-.51c-1.19,0-3.58.6-3.58,1.79v1.28h3.58v-1.15a2,2,0,0,1,1.21-1.77A6.28,6.28,0,0,0,595.75,359.64Z"/></g><g id="_Group_10" data-name="&lt;Group&gt;"><rect class="cls-6" x="46.99" y="410.48" width="735.77" height="61.31" rx="1.25" ry="1.25"/></g><g id="_Group_11" data-name="&lt;Group&gt;"><text class="cls-13" transform="translate(125.17 436.54)"><tspan class="cls-31">T</tspan><tspan class="cls-32" x="6.76" y="0">hursd</tspan><tspan class="cls-15" x="39.77" y="0">a</tspan><tspan x="46.31" y="0">y </tspan><tspan class="cls-16" x="55.73" y="0">a</tspan><tspan x="62.33" y="0">t 4 pm</tspan></text></g><g id="_Group_12" data-name="&lt;Group&gt;"><text class="cls-33" transform="translate(125.17 451.87)">R<tspan class="cls-18" x="6.08" y="0">esume </tspan><tspan class="cls-34" x="39.83" y="0">R</tspan><tspan class="cls-22" x="45.91" y="0">eview with</tspan><tspan class="cls-35" x="97.1" y="0"> </tspan><tspan class="cls-36" x="99.21" y="0">T</tspan><tspan class="cls-23" x="104.68" y="0">imot</tspan><tspan class="cls-37" x="126.65" y="0">h</tspan><tspan class="cls-25" x="132.74" y="0">y </tspan><tspan class="cls-38" x="140.6" y="0">J</tspan><tspan class="cls-23" x="144.71" y="0">.</tspan></text></g><g id="_Group_13" data-name="&lt;Group&gt;"><path id="_Compound_Path_4" data-name="&lt;Compound Path&gt;" class="cls-6" d="M599.59,438.08a1.28,1.28,0,1,0-1.28-1.28A1.27,1.27,0,0,0,599.59,438.08Zm-3.83-.51a1.53,1.53,0,1,0-1.53-1.53A1.53,1.53,0,0,0,595.75,437.56Zm3.83,1.53c-.94,0-2.81.47-2.81,1.41v1.15h5.62V440.5C602.4,439.57,600.52,439.1,599.59,439.1Zm-3.83-.51c-1.19,0-3.58.6-3.58,1.79v1.28h3.58V440.5a2,2,0,0,1,1.21-1.77A6.28,6.28,0,0,0,595.75,438.59Z"/></g><line id="_Path_2" data-name="&lt;Path&gt;" class="cls-39" x1="635.21" y1="329.24" x2="635.21" y2="393.62"/><text class="cls-26" transform="translate(660.9 443.44)">ME<tspan class="cls-27" x="14.37" y="0">E</tspan><tspan x="20.21" y="0">TING GUIDE</tspan></text><g id="_Group_14" data-name="&lt;Group&gt;"><path id="_Compound_Path_5" data-name="&lt;Compound Path&gt;" class="cls-30" d="M759.77,438.8h-2v-3.07h-3.07v3.07h-2l3.58,3.58Zm-7.15,4.6v1h7.15v-1Z"/></g><line id="_Path_3" data-name="&lt;Path&gt;" class="cls-39" x1="635.21" y1="409.72" x2="635.21" y2="474.1"/><line id="_Path_4" data-name="&lt;Path&gt;" class="cls-39" x1="453.56" y1="329.24" x2="453.56" y2="393.62"/><g id="_Group_15" data-name="&lt;Group&gt;"><circle id="_Path_5" data-name="&lt;Path&gt;" class="cls-40" cx="777.4" cy="310.19" r="5.36"/><line id="_Path_6" data-name="&lt;Path&gt;" class="cls-40" x1="774.59" y1="310.19" x2="779.27" y2="310.19"/><polyline id="_Path_7" data-name="&lt;Path&gt;" class="cls-40" points="777.72 307.67 779.46 310.19 777.72 312.71"/></g></g><g id="coach_recommendations" data-name="coach recommendations"><rect id="_Rectangle_" data-name="&lt;Rectangle&gt;" class="cls-6" x="47.48" y="82.45" width="229.93" height="168.61"/><rect id="_Rectangle_2" data-name="&lt;Rectangle&gt;" class="cls-6" x="300.4" y="82.45" width="229.93" height="168.61"/><rect id="_Rectangle_3" data-name="&lt;Rectangle&gt;" class="cls-6" x="553.32" y="82.45" width="229.93" height="168.61"/><g id="_Group_16" data-name="&lt;Group&gt;"><text class="cls-41" transform="translate(69.38 178.26)">$<tspan class="cls-42" x="14.15" y="0">43</tspan></text></g><g id="_Group_17" data-name="&lt;Group&gt;"><text class="cls-13" transform="translate(69.38 205.08)">Ea<tspan class="cls-43" x="13.44" y="0">r</tspan><tspan x="18" y="0">ned in July</tspan></text></g><g id="_Group_18" data-name="&lt;Group&gt;"><text class="cls-44" transform="translate(69.38 224.24)">$35 <tspan class="cls-45" x="19.86" y="0">LAST MONTH</tspan></text></g><g id="_Group_19" data-name="&lt;Group&gt;"><text class="cls-46" transform="translate(322.87 178.26)">5.5</text></g><g id="_Group_20" data-name="&lt;Group&gt;"><text class="cls-13" transform="translate(322.87 205.08)">Hours <tspan class="cls-47" x="37.07" y="0">C</tspan><tspan x="44.92" y="0">oached in July</tspan></text></g><g id="_Group_21" data-name="&lt;Group&gt;"><text class="cls-46" transform="translate(575.79 178.26)">95<tspan class="cls-48" x="37.74" y="0">%</tspan></text></g><g id="_Group_22" data-name="&lt;Group&gt;"><text class="cls-13" transform="translate(575.79 205.08)"><tspan class="cls-49">S</tspan><tspan x="6.88" y="0">cheduling Su</tspan><tspan class="cls-50" x="82.19" y="0">cc</tspan><tspan x="94.39" y="0">ess</tspan></text></g><g id="_Group_23" data-name="&lt;Group&gt;"><text class="cls-44" transform="translate(322.87 224.24)">4 <tspan class="cls-51" x="8.32" y="0">LAST MONTH </tspan></text></g><g id="_Group_24" data-name="&lt;Group&gt;"><text class="cls-52" transform="translate(575.79 224.24)">89%<tspan class="cls-53" x="20.31" y="0" xml:space="preserve"> LAST MONTH</tspan></text></g><polyline id="_Path_8" data-name="&lt;Path&gt;" class="cls-54" points="475.02 96.25 475.02 99.88 477.39 102.34"/><g id="_Group_25" data-name="&lt;Group&gt;"><text class="cls-55" transform="translate(722.47 63.29)">LEARN MORE</text></g><g id="_Group_26" data-name="&lt;Group&gt;"><text class="cls-56" transform="translate(69.22 57.93)">Y<tspan class="cls-57" x="6.49" y="0">OUR S</tspan><tspan class="cls-18" x="39.53" y="0">T</tspan><tspan class="cls-58" x="45.13" y="0">A</tspan><tspan class="cls-59" x="51.94" y="0">T</tspan><tspan class="cls-57" x="58.28" y="0">S</tspan></text></g><g id="_Group_27" data-name="&lt;Group&gt;"><circle id="_Path_9" data-name="&lt;Path&gt;" class="cls-40" cx="777.4" cy="61.05" r="5.36"/><line id="_Path_10" data-name="&lt;Path&gt;" class="cls-40" x1="774.59" y1="61.05" x2="779.27" y2="61.05"/><polyline id="_Path_11" data-name="&lt;Path&gt;" class="cls-40" points="777.72 58.53 779.46 61.05 777.72 63.57"/></g><path id="_Compound_Path_6" data-name="&lt;Compound Path&gt;" class="cls-11" d="M57.71,47.2H47a1.54,1.54,0,0,0-1.53,1.53V59.46A1.54,1.54,0,0,0,47,61H57.71a1.54,1.54,0,0,0,1.53-1.53V48.73A1.54,1.54,0,0,0,57.71,47.2ZM50,57.93H48.51V52.56H50Zm3.07,0H51.57V50.26h1.53Zm3.07,0H54.64V54.86h1.53Z"/><path id="_Compound_Path_7" data-name="&lt;Compound Path&gt;" class="cls-60" d="M100.93,100.08h-28a3.48,3.48,0,0,0-3.49,3.51l0,21a3.49,3.49,0,0,0,3.51,3.51h28a3.49,3.49,0,0,0,3.51-3.51v-21A3.49,3.49,0,0,0,100.93,100.08Zm0,24.54h-28V114.1h28Zm0-17.53h-28v-3.51h28Z"/><path id="_Compound_Path_8" data-name="&lt;Compound Path&gt;" class="cls-60" d="M346.31,117.66a11.69,11.69,0,0,0-4.45-9.19l-1.41-8.4H328.73l-1.39,8.4a11.68,11.68,0,0,0,0,18.37l1.39,8.4h11.72l1.41-8.4A11.69,11.69,0,0,0,346.31,117.66Zm-20.51,0a8.79,8.79,0,1,1,8.79,8.79A8.8,8.8,0,0,1,325.8,117.66Z"/><path id="_Path_12" data-name="&lt;Path&gt;" class="cls-60" d="M586.58,121.45l-6.91-6.91-2.35,2.34,9.26,9.26,19.88-19.88-2.34-2.34Z"/></g></g></g></svg>