<?xml version="1.0" encoding="utf-8"?>
<!-- Generator: Adobe Illustrator 16.0.0, SVG Export Plug-In . SVG Version: 6.00 Build 0)  -->
<!DOCTYPE svg PUBLIC "-//W3C//DTD SVG 1.1//EN" "http://www.w3.org/Graphics/SVG/1.1/DTD/svg11.dtd">
<svg version="1.1" id="Layer_1" xmlns="http://www.w3.org/2000/svg" xmlns:xlink="http://www.w3.org/1999/xlink" x="0px" y="0px"
	 width="680px" height="306px" viewBox="0 0 680 306" enable-background="new 0 0 680 306" xml:space="preserve">
<polyline fill="#1BD4EE" points="680,0 680,306 0,306 0,0 "/>
<g>
	<g>
		<g>
			<g>
				<g>
					<path fill="#3F454A" d="M150.165,190.186c-10.555,0-20.479-4.113-27.942-11.576c-15.403-15.408-15.403-40.477,0-55.881
						c7.464-7.463,17.388-11.576,27.942-11.576s20.479,4.113,27.941,11.576c15.406,15.404,15.406,40.473,0,55.881
						C170.644,186.072,160.72,190.186,150.165,190.186z M150.165,124.189c-7.072,0-13.722,2.756-18.724,7.756
						c-10.322,10.322-10.322,27.123,0,37.447c5.002,5.004,11.651,7.756,18.724,7.756c7.073,0,13.723-2.752,18.725-7.756
						c10.322-10.324,10.322-27.125,0-37.447C163.886,126.945,157.237,124.189,150.165,124.189z"/>
				</g>
				<g>
					<path fill-rule="evenodd" clip-rule="evenodd" fill="#3F454A" d="M157.516,158.018c-4.062,4.059-10.641,4.059-14.699,0
						c-4.061-4.059-4.061-10.639,0-14.697c4.059-4.062,10.64-4.062,14.699,0C161.575,147.379,161.575,153.959,157.516,158.018z"/>
				</g>
			</g>
			<polygon fill="#3F454A" points="301.777,153.242 379.949,105.594 349.763,195.037 334.284,157.885 			"/>
			<path fill-rule="evenodd" clip-rule="evenodd" fill="#3F454A" d="M536.123,198.457l13.811-36.389
				c3.131-1.455,6.09-3.416,8.746-5.895c4.77-4.457,8.115-10.152,9.668-16.467c2.721-11.064-0.289-22.631-8.061-30.943
				c-12.629-13.516-33.895-14.236-47.41-1.609c-4.771,4.457-8.113,10.15-9.668,16.467c-2.721,11.062,0.291,22.629,8.061,30.945
				c1.883,2.014,3.955,3.738,6.17,5.182L536.123,198.457z M519.355,147.012c-5.207-5.574-7.225-13.326-5.402-20.744
				c1.039-4.229,3.281-8.041,6.48-11.029c9.055-8.459,23.307-7.975,31.77,1.076c5.205,5.572,7.225,13.33,5.398,20.746
				c-1.041,4.227-3.279,8.039-6.477,11.027C542.068,156.549,527.814,156.066,519.355,147.012z"/>
		</g>
		<g>
			<path fill="#3F454A" d="M244.321,138.387h4.298v5.449h5.479v4.178h-5.479v5.447h-4.298v-5.447h-5.479v-4.178h5.479V138.387z"/>
		</g>
		<g>
			<path fill="#3F454A" d="M441.628,138.387h4.299v5.449h5.477v4.178h-5.477v5.447h-4.299v-5.447h-5.48v-4.178h5.48V138.387z"/>
		</g>
	</g>
</g>
<g>
</g>
<g>
</g>
<g>
</g>
<g>
</g>
<g>
</g>
<g>
</g>
<g>
</g>
<g>
</g>
<g>
</g>
<g>
</g>
<g>
</g>
<g>
</g>
<g>
</g>
<g>
</g>
<g>
</g>
</svg>
