<?xml version="1.0" encoding="utf-8"?>
<!-- Generator: Adobe Illustrator 16.0.0, SVG Export Plug-In . SVG Version: 6.00 Build 0)  -->
<!DOCTYPE svg PUBLIC "-//W3C//DTD SVG 1.1//EN" "http://www.w3.org/Graphics/SVG/1.1/DTD/svg11.dtd">
<svg version="1.1" id="Layer_1" xmlns="http://www.w3.org/2000/svg" xmlns:xlink="http://www.w3.org/1999/xlink" x="0px" y="0px"
	 width="951.606px" height="399.199px" viewBox="0 0 951.606 399.199" enable-background="new 0 0 951.606 399.199"
	 xml:space="preserve">
<g>
	<g>
		<g>
			<path fill="#8795A2" d="M413.779,29.257h-8.021V5.16h8.021c7.573,0,12.806,5.198,12.806,11.979v0.068
				C426.584,23.99,421.352,29.257,413.779,29.257z M424.725,17.208c0-5.714-4.234-10.396-10.946-10.396h-6.231v20.792h6.231
				c6.712,0,10.946-4.578,10.946-10.327V17.208z"/>
			<path fill="#8795A2" d="M440.075,29.67c-5.198,0-8.984-4.2-8.984-9.122v-0.069c0-4.923,3.821-9.19,9.054-9.19
				c5.198,0,8.984,4.199,8.984,9.122v0.068C449.128,25.401,445.307,29.67,440.075,29.67z M447.304,20.479
				c0-4.233-3.167-7.607-7.229-7.607c-4.165,0-7.16,3.408-7.16,7.539v0.068c0,4.234,3.167,7.608,7.229,7.608
				c4.165,0,7.16-3.408,7.16-7.539V20.479z"/>
			<path fill="#8795A2" d="M470.501,29.566c-2.719,0-4.922-1.479-4.922-4.819V13.25h-2.547V11.7h2.547V6.09h1.687v5.61h6.162v1.55
				h-6.162v11.325c0,2.513,1.48,3.408,3.511,3.408c0.861,0,1.584-0.172,2.582-0.62v1.584
				C472.464,29.36,471.603,29.566,470.501,29.566z"/>
			<path fill="#8795A2" d="M491.773,29.257V18.826c0-3.614-2.031-5.989-5.576-5.989c-3.442,0-6.094,2.616-6.094,6.265v10.155h-1.687
				V4.128h1.687v10.843c1.171-2.065,3.133-3.683,6.334-3.683c4.441,0,7.023,3.029,7.023,7.229v10.74H491.773z"/>
			<path fill="#8795A2" d="M499.55,7.122V4.815h2.101v2.307H499.55z M499.757,29.257V11.7h1.687v17.557H499.757z"/>
			<path fill="#8795A2" d="M513.767,29.601c-2.548,0-5.336-1.032-7.195-2.547l0.998-1.343c1.928,1.48,4.062,2.307,6.3,2.307
				c2.376,0,4.234-1.308,4.234-3.339v-0.069c0-2.065-2.203-2.822-4.647-3.511c-2.857-0.826-6.023-1.688-6.023-4.819V16.21
				c0-2.822,2.375-4.854,5.783-4.854c2.1,0,4.475,0.758,6.23,1.928l-0.896,1.411c-1.618-1.067-3.546-1.755-5.404-1.755
				c-2.409,0-3.993,1.308-3.993,3.063v0.068c0,1.962,2.375,2.686,4.889,3.408c2.822,0.792,5.783,1.824,5.783,4.923v0.068
				C519.826,27.604,517.14,29.601,513.767,29.601z"/>
			<path fill="#8795A2" d="M548.875,29.257V18.826c0-3.614-2.031-5.989-5.576-5.989c-3.442,0-6.094,2.616-6.094,6.265v10.155h-1.687
				V11.7h1.687v3.271c1.171-2.065,3.133-3.683,6.334-3.683c4.441,0,7.023,3.029,7.023,7.229v10.74H548.875z"/>
			<path fill="#8795A2" d="M564.087,28.087c2.72,0,4.579-1.205,6.024-2.754l1.171,1.032c-1.79,1.928-3.891,3.305-7.264,3.305
				c-4.613,0-8.605-3.684-8.605-9.157v-0.068c0-5.095,3.58-9.156,8.33-9.156c4.923,0,8.055,3.992,8.055,9.19v0.069
				c0,0.24,0,0.344-0.034,0.619h-14.562C557.513,25.539,560.646,28.087,564.087,28.087z M569.974,19.652
				c-0.24-3.546-2.271-6.815-6.299-6.815c-3.478,0-6.162,2.926-6.473,6.815H569.974z"/>
			<path fill="#8795A2" d="M588.457,29.257l-6.196-7.814l-6.196,7.814h-2.031l7.195-8.95l-6.92-8.606h2.1l5.922,7.436l5.92-7.436
				h2.031l-6.919,8.572l7.194,8.984H588.457z"/>
			<path fill="#8795A2" d="M601.157,29.566c-2.72,0-4.923-1.479-4.923-4.819V13.25h-2.547V11.7h2.547V6.09h1.687v5.61h6.162v1.55
				h-6.162v11.325c0,2.513,1.48,3.408,3.512,3.408c0.86,0,1.583-0.172,2.581-0.62v1.584
				C603.119,29.36,602.258,29.566,601.157,29.566z"/>
			<path fill="#8795A2" d="M608.693,29.257v-2.926h2.272v2.926H608.693z"/>
			<path fill="#8795A2" d="M616.609,29.257v-2.926h2.272v2.926H616.609z"/>
			<path fill="#8795A2" d="M624.525,29.257v-2.926h2.272v2.926H624.525z"/>
		</g>
	</g>
	<g>
		<g>
			<g>
				<path fill="#25C3DB" d="M364.771,8.107c0-1.822-1.493-3.312-3.314-3.312H3.86c-1.823,0-3.314,1.49-3.314,3.312v289.246h364.226
					V8.107z"/>
			</g>
		</g>
		<path opacity="0.9" fill="#FFFFFF" d="M0.546,297.354v98.959c0,1.586,1.299,2.887,2.887,2.887H361.88
			c1.592,0,2.891-1.301,2.891-2.887v-98.959H0.546z"/>
		<g>
			<path fill="#FFFFFF" d="M47.031,157.944v13.035h-2.438v-12.988l-14.067-19.835h3.048l12.285,17.631l12.332-17.631h2.907
				L47.031,157.944z"/>
			<path fill="#FFFFFF" d="M72.395,171.542c-7.081,0-12.238-5.721-12.238-12.426v-0.094c0-6.705,5.205-12.52,12.332-12.52
				c7.081,0,12.238,5.721,12.238,12.426v0.094C84.727,165.728,79.522,171.542,72.395,171.542z M82.242,159.022
				c0-5.768-4.314-10.362-9.847-10.362c-5.674,0-9.753,4.642-9.753,10.269v0.094c0,5.768,4.314,10.362,9.847,10.362
				c5.674,0,9.753-4.642,9.753-10.269V159.022z"/>
			<path fill="#FFFFFF" d="M109.534,170.979v-4.454c-1.594,2.812-4.267,5.017-8.628,5.017c-6.049,0-9.565-4.126-9.565-9.847v-14.63
				h2.297v14.208c0,4.923,2.767,8.158,7.596,8.158c4.689,0,8.3-3.563,8.3-8.533v-13.833h2.297v23.914H109.534z"/>
			<path fill="#FFFFFF" d="M121.539,142.142h-1.266v-3.985h3.095v3.47c0,2.907-1.079,4.455-3.892,5.533l-0.562-1.172
				C120.929,144.955,121.68,143.924,121.539,142.142z"/>
			<path fill="#FFFFFF" d="M144,149.223c-5.533,0-10.363,4.173-10.363,11.957v9.8h-2.297v-23.914h2.297v6.799
				c1.876-4.267,5.861-7.361,10.598-7.174v2.532H144z"/>
			<path fill="#FFFFFF" d="M159.093,169.385c3.704,0,6.236-1.641,8.206-3.751l1.594,1.407c-2.438,2.626-5.298,4.501-9.894,4.501
				c-6.284,0-11.723-5.017-11.723-12.473v-0.094c0-6.939,4.876-12.473,11.347-12.473c6.706,0,10.973,5.439,10.973,12.52v0.094
				c0,0.328,0,0.469-0.047,0.844h-19.835C150.137,165.915,154.404,169.385,159.093,169.385z M167.111,157.897
				c-0.328-4.83-3.095-9.284-8.581-9.284c-4.736,0-8.393,3.985-8.815,9.284H167.111z"/>
			<path fill="#FFFFFF" d="M43.983,220.018c-7.081,0-12.238-5.721-12.238-12.426v-0.094c0-6.705,5.205-12.52,12.332-12.52
				c7.081,0,12.238,5.721,12.238,12.426v0.094C56.315,214.203,51.111,220.018,43.983,220.018z M53.831,207.498
				c0-5.768-4.314-10.362-9.847-10.362c-5.674,0-9.753,4.642-9.753,10.269v0.094c0,5.768,4.314,10.362,9.847,10.362
				c5.674,0,9.753-4.642,9.753-10.269V207.498z"/>
			<path fill="#FFFFFF" d="M81.591,219.455v-14.208c0-4.923-2.767-8.158-7.596-8.158c-4.689,0-8.3,3.563-8.3,8.533v13.833h-2.297
				v-23.914h2.297v4.455c1.594-2.813,4.267-5.018,8.628-5.018c6.049,0,9.566,4.126,9.566,9.847v14.63H81.591z"/>
			<path fill="#FFFFFF" d="M114.181,219.877c-3.704,0-6.705-2.017-6.705-6.564v-15.661h-3.47v-2.11h3.47v-7.644h2.297v7.644h8.394
				v2.11h-8.394v15.427c0,3.423,2.017,4.642,4.783,4.642c1.172,0,2.157-0.234,3.517-0.844v2.157
				C116.854,219.596,115.682,219.877,114.181,219.877z"/>
			<path fill="#FFFFFF" d="M137.627,197.698c-5.533,0-10.363,4.173-10.363,11.957v9.8h-2.297v-23.914h2.297v6.799
				c1.876-4.267,5.861-7.361,10.597-7.174v2.532H137.627z"/>
			<path fill="#FFFFFF" d="M158.957,219.455v-3.985c-1.641,2.297-4.595,4.548-9.144,4.548c-4.455,0-9.237-2.532-9.237-7.502v-0.094
				c0-4.971,4.267-7.784,10.457-7.784c3.329,0,5.626,0.422,7.924,1.031v-1.031c0-4.83-2.954-7.314-7.877-7.314
				c-2.907,0-5.299,0.797-7.502,1.922l-0.844-2.016c2.626-1.22,5.205-2.063,8.487-2.063c6.143,0,9.987,3.188,9.987,9.378v14.911
				H158.957z M159.003,207.779c-2.016-0.516-4.689-1.078-8.112-1.078c-5.064,0-7.877,2.251-7.877,5.58v0.094
				c0,3.47,3.282,5.485,6.94,5.485c4.876,0,9.05-3.001,9.05-7.361V207.779z"/>
			<path fill="#FFFFFF" d="M180.011,220.018c-6.893,0-12.191-5.721-12.191-12.426v-0.094c0-6.705,5.345-12.52,12.191-12.52
				c4.501,0,7.315,2.063,9.565,4.407l-1.641,1.688c-2.063-2.11-4.408-3.938-7.971-3.938c-5.439,0-9.66,4.548-9.66,10.269v0.094
				c0,5.768,4.361,10.362,9.847,10.362c3.376,0,6.002-1.734,8.018-3.985l1.594,1.407
				C187.326,218.049,184.419,220.018,180.011,220.018z"/>
			<path fill="#FFFFFF" d="M213.821,219.455l-9.472-11.676l-5.814,5.861v5.814h-2.297v-34.229h2.297v25.648l14.817-15.333h3.048
				l-10.457,10.598l10.785,13.316H213.821z"/>
			<path fill="#FFFFFF" d="M222.497,219.455v-3.985h3.095v3.985H222.497z M225.404,186.632v3.282l-0.704,20.96h-1.312l-0.704-20.96
				v-3.282H225.404z"/>
		</g>
		<g>
			<circle fill="none" stroke="#FFFFFF" stroke-width="2.7413" stroke-miterlimit="10" cx="65.754" cy="77.32" r="33.936"/>
			<polygon fill="#FFFFFF" points="79.948,69.658 77.099,66.807 59.576,84.326 53.611,78.361 50.76,81.211 59.576,90.027 			"/>
		</g>
		<g>
			<g>
				<path fill="#FFFFFF" d="M32.853,253.612c1.574,0.383,2.393,0.947,2.393,2.191c0,1.403-1.095,2.233-2.659,2.233
					c-1.138,0-2.212-0.394-3.105-1.191l0.787-0.936c0.713,0.616,1.425,0.968,2.351,0.968c0.808,0,1.319-0.372,1.319-0.946
					c0-0.543-0.298-0.83-1.681-1.149c-1.584-0.383-2.478-0.851-2.478-2.233c0-1.297,1.064-2.169,2.542-2.169
					c1.085,0,1.946,0.329,2.702,0.936l-0.702,0.989c-0.67-0.5-1.34-0.766-2.021-0.766c-0.766,0-1.212,0.394-1.212,0.894
					C31.088,253.018,31.428,253.272,32.853,253.612z"/>
				<path fill="#FFFFFF" d="M43.899,251.656h-4.212v1.936h3.733v1.17h-3.733v1.999h4.265v1.17h-5.573v-7.444h5.52V251.656z"/>
				<path fill="#FFFFFF" d="M52.616,251.656h-4.212v1.936h3.733v1.17h-3.733v1.999h4.265v1.17h-5.573v-7.444h5.52V251.656z"/>
				<path fill="#FFFFFF" d="M64.105,257.931h-1.319v-2.936l-2.957-4.509h1.542l2.084,3.297l2.106-3.297h1.5l-2.957,4.478V257.931z"
					/>
				<path fill="#FFFFFF" d="M72.715,258.059c-2.287,0-3.882-1.733-3.882-3.84c0-2.105,1.617-3.86,3.903-3.86
					s3.882,1.733,3.882,3.839C76.618,256.304,75.001,258.059,72.715,258.059z M72.715,251.561c-1.478,0-2.51,1.18-2.51,2.637
					s1.053,2.659,2.531,2.659c1.478,0,2.51-1.181,2.51-2.638S74.193,251.561,72.715,251.561z"/>
				<path fill="#FFFFFF" d="M86.046,254.708c0,2.223-1.255,3.34-3.201,3.34c-1.936,0-3.169-1.117-3.169-3.276v-4.285h1.308v4.232
					c0,1.383,0.712,2.127,1.882,2.127c1.159,0,1.872-0.702,1.872-2.074v-4.285h1.308V254.708z"/>
				<path fill="#FFFFFF" d="M94.209,257.931l-1.829-2.595h-1.638v2.595h-1.308v-7.444h3.318c1.712,0,2.765,0.903,2.765,2.36
					c0,1.234-0.734,1.979-1.776,2.266l2.01,2.818H94.209z M92.646,251.677h-1.904v2.5h1.915c0.936,0,1.532-0.489,1.532-1.255
					C94.188,252.103,93.613,251.677,92.646,251.677z"/>
				<path fill="#FFFFFF" d="M106.273,257.931h-2.776v-7.444h2.776c2.34,0,3.957,1.605,3.957,3.711
					C110.229,256.304,108.613,257.931,106.273,257.931z M106.273,251.677h-1.468v5.062h1.468c1.563,0,2.584-1.053,2.584-2.521
					S107.836,251.677,106.273,251.677z"/>
				<path fill="#FFFFFF" d="M118.924,251.656h-4.212v1.936h3.733v1.17h-3.733v1.999h4.265v1.17h-5.573v-7.444h5.52V251.656z"/>
				<path fill="#FFFFFF" d="M125.269,257.931h-1.319v-6.232h-2.361v-1.212h6.041v1.212h-2.361V257.931z"/>
				<path fill="#FFFFFF" d="M136.771,257.931h-1.383l-0.755-1.798h-3.521l-0.766,1.798h-1.34l3.276-7.498h1.212L136.771,257.931z
					 M132.868,251.996l-1.276,2.978h2.563L132.868,251.996z"/>
				<path fill="#FFFFFF" d="M141.021,250.486v7.444h-1.308v-7.444H141.021z"/>
				<path fill="#FFFFFF" d="M144.602,250.486h1.308v6.253h3.914v1.191h-5.222V250.486z"/>
				<path fill="#FFFFFF" d="M155.647,253.612c1.574,0.383,2.393,0.947,2.393,2.191c0,1.403-1.095,2.233-2.659,2.233
					c-1.138,0-2.212-0.394-3.105-1.191l0.787-0.936c0.713,0.616,1.425,0.968,2.351,0.968c0.808,0,1.319-0.372,1.319-0.946
					c0-0.543-0.298-0.83-1.68-1.149c-1.585-0.383-2.479-0.851-2.479-2.233c0-1.297,1.064-2.169,2.542-2.169
					c1.085,0,1.946,0.329,2.702,0.936l-0.702,0.989c-0.67-0.5-1.34-0.766-2.021-0.766c-0.766,0-1.212,0.394-1.212,0.894
					C153.882,253.018,154.223,253.272,155.647,253.612z"/>
				<path fill="#FFFFFF" d="M165.989,257.111v-1.223l3.797-1.691l-3.797-1.701v-1.233l5.073,2.35v1.149L165.989,257.111z"/>
			</g>
		</g>
		<g>
			<g>
				<path fill="#8795A2" d="M141.404,332.163h-1.134v-8.888h-3.331v-1.035h7.796v1.035h-3.332V332.163z"/>
				<path fill="#8795A2" d="M147.524,332.163h-1.091v-10.348h1.091v4.295c0.482-0.794,1.248-1.432,2.509-1.432
					c1.772,0,2.807,1.19,2.807,2.934v4.551h-1.092v-4.281c0-1.36-0.737-2.211-2.027-2.211c-1.262,0-2.197,0.921-2.197,2.296V332.163
					z"/>
				<path fill="#8795A2" d="M155.589,326.237l-0.326-0.893c0.808-0.368,1.602-0.609,2.665-0.609c1.999,0,3.119,1.021,3.119,2.948
					v4.479h-1.049v-1.105c-0.51,0.666-1.361,1.262-2.651,1.262c-1.36,0-2.736-0.766-2.736-2.297c0-1.56,1.276-2.381,3.133-2.381
					c0.936,0,1.602,0.127,2.254,0.312v-0.255c0-1.318-0.808-1.999-2.183-1.999C156.95,325.699,156.269,325.926,155.589,326.237z
					 M155.716,329.98c0,0.936,0.851,1.474,1.843,1.474c1.347,0,2.452-0.822,2.452-1.984v-0.709
					c-0.539-0.155-1.261-0.312-2.154-0.312C156.482,328.449,155.716,329.045,155.716,329.98z"/>
				<path fill="#8795A2" d="M164.461,332.163h-1.091v-7.329h1.091v1.276c0.482-0.794,1.248-1.432,2.509-1.432
					c1.772,0,2.807,1.19,2.807,2.934v4.551h-1.092v-4.281c0-1.36-0.737-2.211-2.027-2.211c-1.262,0-2.197,0.921-2.197,2.296V332.163
					z"/>
				<path fill="#8795A2" d="M178.606,332.163h-1.304l-2.623-3.416l-1.488,1.502v1.914H172.1v-10.348h1.091v7.144l3.955-4.125h1.361
					l-3.076,3.147L178.606,332.163z"/>
				<path fill="#8795A2" d="M182.588,332.305c-1.049,0-2.211-0.411-3.034-1.077l0.553-0.779c0.793,0.595,1.672,0.936,2.537,0.936
					c0.879,0,1.517-0.454,1.517-1.163v-0.028c0-0.736-0.865-1.021-1.829-1.29c-1.148-0.325-2.424-0.723-2.424-2.069v-0.028
					c0-1.262,1.049-2.098,2.495-2.098c0.893,0,1.885,0.312,2.636,0.808l-0.496,0.822c-0.68-0.439-1.46-0.709-2.168-0.709
					c-0.865,0-1.418,0.454-1.418,1.063v0.028c0,0.694,0.907,0.964,1.886,1.262c1.134,0.34,2.353,0.779,2.353,2.098v0.028
					C185.196,331.497,184.048,332.305,182.588,332.305z"/>
				<path fill="#8795A2" d="M195.287,324.862v0.936h-2.311v6.365h-1.091v-6.365h-1.007v-0.949h1.007v-0.638
					c0-1.603,0.808-2.452,2.211-2.452c0.511,0,0.851,0.057,1.205,0.184v0.95c-0.397-0.113-0.694-0.185-1.063-0.185
					c-0.851,0-1.276,0.511-1.276,1.56v0.595H195.287z"/>
				<path fill="#8795A2" d="M199.878,332.333c-2.197,0-3.799-1.729-3.799-3.813c0-2.083,1.616-3.841,3.827-3.841
					c2.197,0,3.813,1.729,3.813,3.812C203.72,330.575,202.089,332.333,199.878,332.333z M199.878,325.643
					c-1.587,0-2.679,1.262-2.679,2.849c0,1.588,1.163,2.864,2.708,2.864c1.588,0,2.693-1.262,2.693-2.836
					C202.6,326.918,201.423,325.643,199.878,325.643z"/>
				<path fill="#8795A2" d="M206.78,332.163h-1.091v-7.329h1.091v1.914c0.539-1.219,1.602-2.098,2.991-2.041v1.177h-0.085
					c-1.602,0-2.906,1.147-2.906,3.359V332.163z"/>
				<path fill="#8795A2" d="M219.578,332.319c-1.361,0-2.24-0.737-2.807-1.56v3.671h-1.091v-9.597h1.091v1.475
					c0.595-0.879,1.46-1.63,2.807-1.63c1.758,0,3.501,1.389,3.501,3.812C223.08,330.901,221.35,332.319,219.578,332.319z
					 M219.38,325.656c-1.361,0-2.651,1.135-2.651,2.835c0,1.716,1.29,2.85,2.651,2.85c1.417,0,2.58-1.049,2.58-2.835
					C221.96,326.763,220.769,325.656,219.38,325.656z"/>
				<path fill="#8795A2" d="M225.119,323.232v-1.205h1.248v1.205H225.119z M225.19,332.163v-7.329h1.091v7.329H225.19z"/>
				<path fill="#8795A2" d="M232.121,332.333c-2.141,0-3.756-1.743-3.756-3.813c0-2.083,1.616-3.841,3.756-3.841
					c1.389,0,2.254,0.581,2.934,1.304l-0.723,0.766c-0.581-0.609-1.233-1.105-2.226-1.105c-1.488,0-2.623,1.262-2.623,2.849
					c0,1.603,1.163,2.864,2.693,2.864c0.936,0,1.659-0.468,2.24-1.092l0.695,0.652C234.375,331.738,233.496,332.333,232.121,332.333
					z"/>
				<path fill="#8795A2" d="M243.417,332.163h-1.304l-2.623-3.416l-1.488,1.502v1.914h-1.091v-10.348h1.091v7.144l3.955-4.125h1.361
					l-3.076,3.147L243.417,332.163z"/>
				<path fill="#8795A2" d="M245.003,323.232v-1.205h1.248v1.205H245.003z M245.074,332.163v-7.329h1.091v7.329H245.074z"/>
				<path fill="#8795A2" d="M249.793,332.163h-1.091v-7.329h1.091v1.276c0.482-0.794,1.248-1.432,2.509-1.432
					c1.772,0,2.807,1.19,2.807,2.934v4.551h-1.092v-4.281c0-1.36-0.737-2.211-2.027-2.211c-1.262,0-2.197,0.921-2.197,2.296V332.163
					z"/>
				<path fill="#8795A2" d="M260.678,334.46c-1.219,0-2.353-0.341-3.331-1.021l0.496-0.851c0.836,0.61,1.771,0.937,2.821,0.937
					c1.616,0,2.665-0.894,2.665-2.608v-0.865c-0.638,0.851-1.531,1.545-2.878,1.545c-1.758,0-3.444-1.304-3.444-3.444
					c0-2.154,1.701-3.473,3.444-3.473c1.375,0,2.268,0.68,2.864,1.474v-1.318h1.091v6.054
					C264.406,333.255,262.932,334.46,260.678,334.46z M260.664,325.643c-1.389,0-2.538,0.949-2.538,2.48
					c0,1.503,1.177,2.509,2.538,2.509c1.389,0,2.693-0.992,2.693-2.494C263.357,326.62,262.053,325.643,260.664,325.643z"/>
				<path fill="#8795A2" d="M279.486,324.679c1.687,0,2.722,1.134,2.722,2.948v4.536h-1.091v-4.281c0-1.417-0.709-2.211-1.899-2.211
					c-1.106,0-2.027,0.822-2.027,2.268v4.225h-1.077v-4.31c0-1.375-0.723-2.183-1.885-2.183c-1.163,0-2.042,0.964-2.042,2.311v4.182
					h-1.091v-7.329h1.091v1.233c0.482-0.723,1.134-1.389,2.367-1.389c1.191,0,1.957,0.638,2.353,1.46
					C277.431,325.33,278.21,324.679,279.486,324.679z"/>
				<path fill="#8795A2" d="M287.804,331.384c1.006,0,1.715-0.411,2.311-1.035l0.68,0.609c-0.737,0.822-1.63,1.375-3.019,1.375
					c-2.013,0-3.657-1.545-3.657-3.827c0-2.126,1.488-3.827,3.515-3.827c2.169,0,3.417,1.729,3.417,3.884c0,0.1,0,0.213-0.014,0.34
					h-5.812C285.38,330.49,286.514,331.384,287.804,331.384z M289.945,328.095c-0.114-1.332-0.879-2.495-2.339-2.495
					c-1.275,0-2.24,1.063-2.381,2.495H289.945z"/>
				<path fill="#8795A2" d="M293.019,332.163v-1.488h1.304v1.488H293.019z M294.309,322.24v0.808l-0.34,6.309h-0.609l-0.326-6.309
					v-0.808H294.309z"/>
				<path fill="#8795A2" d="M144.948,342.487h1.092v9.923h-0.893l-6.408-8.137v8.137h-1.091v-9.923h1.049l6.251,7.952V342.487z"/>
				<path fill="#8795A2" d="M151.892,351.631c1.006,0,1.715-0.411,2.311-1.035l0.68,0.609c-0.737,0.822-1.63,1.375-3.019,1.375
					c-2.013,0-3.657-1.545-3.657-3.827c0-2.126,1.488-3.827,3.515-3.827c2.169,0,3.417,1.729,3.417,3.884c0,0.1,0,0.213-0.014,0.34
					h-5.812C149.467,350.737,150.602,351.631,151.892,351.631z M154.032,348.342c-0.114-1.332-0.879-2.495-2.339-2.495
					c-1.275,0-2.24,1.063-2.381,2.495H154.032z"/>
				<path fill="#8795A2" d="M162.989,352.41h-1.262l-2.268-2.991l-2.282,2.991h-1.219l2.878-3.729l-2.765-3.601h1.248l2.169,2.836
					l2.169-2.836h1.219l-2.778,3.572L162.989,352.41z"/>
				<path fill="#8795A2" d="M166.233,350.326c0,0.894,0.496,1.22,1.233,1.22c0.368,0,0.68-0.071,1.063-0.256v0.936
					c-0.383,0.199-0.794,0.312-1.318,0.312c-1.177,0-2.069-0.582-2.069-2.07v-4.423h-1.021v-0.964h1.021v-2.211h1.091v2.211h2.325
					v0.964h-2.325V350.326z"/>
				<path fill="#8795A2" d="M170.868,352.41h-0.511v-1.488h1.304v1.275c0,1.148-0.496,1.701-1.573,1.942l-0.17-0.496
					C170.626,353.389,170.924,353.02,170.868,352.41z"/>
				<path fill="#8795A2" d="M179.683,350.326c0,0.894,0.496,1.22,1.233,1.22c0.368,0,0.68-0.071,1.063-0.256v0.936
					c-0.383,0.199-0.794,0.312-1.318,0.312c-1.177,0-2.069-0.582-2.069-2.07v-4.423h-1.021v-0.964h1.021v-2.211h1.091v2.211h2.325
					v0.964h-2.325V350.326z"/>
				<path fill="#8795A2" d="M186.952,351.631c1.006,0,1.715-0.411,2.311-1.035l0.68,0.609c-0.737,0.822-1.63,1.375-3.019,1.375
					c-2.013,0-3.657-1.545-3.657-3.827c0-2.126,1.488-3.827,3.515-3.827c2.169,0,3.417,1.729,3.417,3.884c0,0.1,0,0.213-0.014,0.34
					h-5.812C184.527,350.737,185.662,351.631,186.952,351.631z M189.092,348.342c-0.114-1.332-0.879-2.495-2.339-2.495
					c-1.275,0-2.24,1.063-2.381,2.495H189.092z"/>
				<path fill="#8795A2" d="M192.209,352.41v-10.348h1.091v10.348H192.209z"/>
				<path fill="#8795A2" d="M195.936,352.41v-10.348h1.091v10.348H195.936z"/>
				<path fill="#8795A2" d="M212.207,344.926c1.687,0,2.722,1.134,2.722,2.948v4.536h-1.091v-4.281c0-1.417-0.709-2.211-1.899-2.211
					c-1.106,0-2.027,0.822-2.027,2.268v4.225h-1.077v-4.31c0-1.375-0.723-2.183-1.885-2.183c-1.163,0-2.042,0.964-2.042,2.311v4.182
					h-1.091v-7.329h1.091v1.233c0.482-0.723,1.134-1.389,2.367-1.389c1.191,0,1.957,0.638,2.354,1.46
					C210.152,345.577,210.931,344.926,212.207,344.926z"/>
				<path fill="#8795A2" d="M220.525,351.631c1.006,0,1.715-0.411,2.311-1.035l0.68,0.609c-0.737,0.822-1.63,1.375-3.019,1.375
					c-2.013,0-3.657-1.545-3.657-3.827c0-2.126,1.488-3.827,3.515-3.827c2.169,0,3.417,1.729,3.417,3.884c0,0.1,0,0.213-0.014,0.34
					h-5.812C218.101,350.737,219.235,351.631,220.525,351.631z M222.666,348.342c-0.114-1.332-0.879-2.495-2.339-2.495
					c-1.275,0-2.24,1.063-2.381,2.495H222.666z"/>
				<path fill="#8795A2" d="M237.264,350.964l1.928-5.883h1.134l-2.58,7.386h-0.95l-1.971-5.783l-1.984,5.783h-0.964l-2.566-7.386
					h1.163l1.928,5.883l1.97-5.911h0.907L237.264,350.964z"/>
				<path fill="#8795A2" d="M243.229,352.41h-1.091v-10.348h1.091v4.295c0.482-0.794,1.248-1.432,2.509-1.432
					c1.772,0,2.807,1.19,2.807,2.934v4.551h-1.092v-4.281c0-1.36-0.737-2.211-2.027-2.211c-1.262,0-2.197,0.921-2.197,2.296V352.41z
					"/>
				<path fill="#8795A2" d="M251.293,346.484l-0.326-0.893c0.808-0.368,1.602-0.609,2.665-0.609c1.999,0,3.119,1.021,3.119,2.948
					v4.479h-1.049v-1.105c-0.51,0.666-1.361,1.262-2.65,1.262c-1.361,0-2.736-0.766-2.736-2.297c0-1.56,1.276-2.381,3.133-2.381
					c0.936,0,1.602,0.127,2.254,0.312v-0.255c0-1.318-0.808-1.999-2.183-1.999C252.654,345.946,251.974,346.173,251.293,346.484z
					 M251.421,350.228c0,0.936,0.851,1.474,1.843,1.474c1.347,0,2.452-0.822,2.452-1.984v-0.709
					c-0.539-0.155-1.261-0.312-2.154-0.312C252.187,348.696,251.421,349.292,251.421,350.228z"/>
				<path fill="#8795A2" d="M260.476,350.326c0,0.894,0.496,1.22,1.233,1.22c0.368,0,0.68-0.071,1.063-0.256v0.936
					c-0.383,0.199-0.794,0.312-1.318,0.312c-1.177,0-2.069-0.582-2.069-2.07v-4.423h-1.021v-0.964h1.021v-2.211h1.091v2.211h2.325
					v0.964h-2.325V350.326z"/>
				<path fill="#8795A2" d="M272.551,352.651c-0.624,1.517-1.333,2.069-2.438,2.069c-0.609,0-1.063-0.128-1.559-0.368l0.369-0.865
					c0.354,0.185,0.68,0.27,1.148,0.27c0.652,0,1.063-0.34,1.502-1.375l-3.331-7.301h1.205l2.665,6.11l2.353-6.11h1.162
					L272.551,352.651z"/>
				<path fill="#8795A2" d="M280.274,352.58c-2.197,0-3.799-1.729-3.799-3.813c0-2.083,1.616-3.841,3.827-3.841
					c2.197,0,3.813,1.729,3.813,3.812C284.116,350.822,282.486,352.58,280.274,352.58z M280.274,345.89
					c-1.587,0-2.679,1.262-2.679,2.849c0,1.588,1.163,2.864,2.708,2.864c1.588,0,2.693-1.262,2.693-2.836
					C282.996,347.165,281.819,345.89,280.274,345.89z"/>
				<path fill="#8795A2" d="M291.287,345.081h1.078v7.329h-1.078v-1.275c-0.496,0.793-1.248,1.432-2.509,1.432
					c-1.772,0-2.807-1.191-2.807-2.935v-4.551h1.092v4.281c0,1.361,0.737,2.212,2.027,2.212c1.248,0,2.197-0.922,2.197-2.297
					V345.081z"/>
				<path fill="#8795A2" d="M295.269,343.976h-0.51v-1.488h1.304v1.275c0,1.148-0.496,1.701-1.573,1.942l-0.17-0.496
					C295.028,344.954,295.326,344.585,295.269,343.976z"/>
				<path fill="#8795A2" d="M299.379,352.41h-1.091v-7.329h1.091v1.914c0.539-1.219,1.602-2.098,2.991-2.041v1.177h-0.085
					c-1.602,0-2.906,1.147-2.906,3.359V352.41z"/>
				<path fill="#8795A2" d="M306.945,351.631c1.006,0,1.715-0.411,2.311-1.035l0.68,0.609c-0.737,0.822-1.63,1.375-3.019,1.375
					c-2.013,0-3.657-1.545-3.657-3.827c0-2.126,1.488-3.827,3.515-3.827c2.169,0,3.417,1.729,3.417,3.884c0,0.1,0,0.213-0.014,0.34
					h-5.812C304.521,350.737,305.655,351.631,306.945,351.631z M309.085,348.342c-0.114-1.332-0.879-2.495-2.339-2.495
					c-1.275,0-2.24,1.063-2.381,2.495H309.085z"/>
				<path fill="#8795A2" d="M137.492,363.727v-1.205h1.247v1.205H137.492z M137.562,372.657v-7.329h1.091v7.329H137.562z"/>
				<path fill="#8795A2" d="M142.282,372.657h-1.091v-7.329h1.091v1.276c0.482-0.794,1.248-1.432,2.509-1.432
					c1.772,0,2.807,1.19,2.807,2.934v4.551h-1.092v-4.281c0-1.36-0.737-2.211-2.027-2.211c-1.262,0-2.197,0.921-2.197,2.296V372.657
					z"/>
				<path fill="#8795A2" d="M151.395,370.573c0,0.894,0.496,1.22,1.233,1.22c0.368,0,0.68-0.071,1.063-0.256v0.936
					c-0.383,0.199-0.794,0.312-1.318,0.312c-1.176,0-2.069-0.581-2.069-2.07v-4.423h-1.021v-0.964h1.021v-2.211h1.091v2.211h2.325
					v0.964h-2.325V370.573z"/>
				<path fill="#8795A2" d="M158.664,371.878c1.006,0,1.715-0.411,2.311-1.035l0.68,0.609c-0.737,0.822-1.63,1.375-3.019,1.375
					c-2.013,0-3.657-1.545-3.657-3.827c0-2.126,1.488-3.827,3.515-3.827c2.169,0,3.417,1.729,3.417,3.884c0,0.1,0,0.213-0.014,0.34
					h-5.812C156.24,370.984,157.374,371.878,158.664,371.878z M160.805,368.589c-0.114-1.332-0.879-2.495-2.339-2.495
					c-1.275,0-2.24,1.063-2.381,2.495H160.805z"/>
				<path fill="#8795A2" d="M164.914,372.657h-1.091v-7.329h1.091v1.914c0.539-1.219,1.602-2.098,2.991-2.041v1.177h-0.085
					c-1.602,0-2.906,1.147-2.906,3.359V372.657z"/>
				<path fill="#8795A2" d="M172.479,371.878c1.006,0,1.715-0.411,2.311-1.035l0.68,0.609c-0.737,0.822-1.63,1.375-3.019,1.375
					c-2.013,0-3.657-1.545-3.657-3.827c0-2.126,1.488-3.827,3.515-3.827c2.169,0,3.417,1.729,3.417,3.884c0,0.1,0,0.213-0.014,0.34
					h-5.812C170.055,370.984,171.189,371.878,172.479,371.878z M174.62,368.589c-0.114-1.332-0.879-2.495-2.339-2.495
					c-1.275,0-2.24,1.063-2.381,2.495H174.62z"/>
				<path fill="#8795A2" d="M180.061,372.799c-1.049,0-2.211-0.411-3.034-1.077l0.553-0.779c0.793,0.595,1.672,0.936,2.537,0.936
					c0.879,0,1.517-0.454,1.517-1.163v-0.028c0-0.736-0.864-1.021-1.829-1.29c-1.148-0.325-2.424-0.723-2.424-2.069v-0.028
					c0-1.262,1.049-2.098,2.495-2.098c0.893,0,1.885,0.312,2.636,0.808l-0.496,0.822c-0.68-0.439-1.46-0.709-2.168-0.709
					c-0.865,0-1.418,0.454-1.418,1.063v0.028c0,0.694,0.907,0.964,1.886,1.262c1.134,0.34,2.353,0.779,2.353,2.098v0.028
					C182.669,371.991,181.521,372.799,180.061,372.799z"/>
				<path fill="#8795A2" d="M186.027,370.573c0,0.894,0.496,1.22,1.233,1.22c0.368,0,0.68-0.071,1.063-0.256v0.936
					c-0.383,0.199-0.794,0.312-1.318,0.312c-1.177,0-2.069-0.581-2.069-2.07v-4.423h-1.021v-0.964h1.021v-2.211h1.091v2.211h2.325
					v0.964h-2.325V370.573z"/>
				<path fill="#8795A2" d="M193.296,371.878c1.006,0,1.715-0.411,2.311-1.035l0.68,0.609c-0.737,0.822-1.63,1.375-3.019,1.375
					c-2.013,0-3.657-1.545-3.657-3.827c0-2.126,1.488-3.827,3.515-3.827c2.169,0,3.417,1.729,3.417,3.884c0,0.1,0,0.213-0.014,0.34
					h-5.812C190.872,370.984,192.006,371.878,193.296,371.878z M195.437,368.589c-0.114-1.332-0.879-2.495-2.339-2.495
					c-1.275,0-2.24,1.063-2.381,2.495H195.437z"/>
				<path fill="#8795A2" d="M204.337,372.657v-1.475c-0.596,0.879-1.46,1.631-2.807,1.631c-1.757,0-3.501-1.39-3.501-3.813
					c0-2.41,1.744-3.827,3.501-3.827c1.361,0,2.24,0.737,2.807,1.559v-4.422h1.091v10.348H204.337z M201.729,366.15
					c-1.417,0-2.58,1.049-2.58,2.835c0,1.744,1.191,2.85,2.58,2.85c1.361,0,2.651-1.134,2.651-2.85
					C204.38,367.285,203.09,366.15,201.729,366.15z"/>
				<path fill="#8795A2" d="M212.145,363.727v-1.205h1.247v1.205H212.145z M212.216,372.657v-7.329h1.091v7.329H212.216z"/>
				<path fill="#8795A2" d="M216.935,372.657h-1.091v-7.329h1.091v1.276c0.482-0.794,1.248-1.432,2.509-1.432
					c1.772,0,2.807,1.19,2.807,2.934v4.551h-1.092v-4.281c0-1.36-0.737-2.211-2.027-2.211c-1.262,0-2.197,0.921-2.197,2.296V372.657
					z"/>
				<path fill="#8795A2" d="M224.446,372.657v-1.488h1.304v1.488H224.446z"/>
			</g>
		</g>
		
			<linearGradient id="SVGID_1_" gradientUnits="userSpaceOnUse" x1="181.7773" y1="-500.8325" x2="181.7773" y2="-522.6499" gradientTransform="matrix(1 0 0 -0.9322 0 -189.861)">
			<stop  offset="0" style="stop-color:#000000;stop-opacity:0"/>
			<stop  offset="0.9663" style="stop-color:#000000"/>
		</linearGradient>
		<rect y="277.016" opacity="0.05" fill="url(#SVGID_1_)" width="363.553" height="20.338"/>
		<g>
			<g>
				<path fill-rule="evenodd" clip-rule="evenodd" fill="#25C3DB" d="M100.154,330.066l-25.853,0.002
					c-1.363-1.699-3.009-3.217-4.93-4.471c-3.454-2.252-7.448-3.443-11.554-3.443c-7.192,0-13.828,3.596-17.751,9.609
					c-6.378,9.779-3.613,22.928,6.165,29.303c3.452,2.256,7.447,3.443,11.553,3.443c7.191,0,13.825-3.592,17.75-9.607
					c0.95-1.457,1.695-2.992,2.247-4.566L100.154,330.066z M69.688,351.086c-2.631,4.031-7.08,6.438-11.903,6.438
					c-2.747,0-5.425-0.797-7.737-2.305c-6.55-4.275-8.405-13.084-4.131-19.637c2.631-4.035,7.082-6.441,11.901-6.441
					c2.747,0,5.421,0.801,7.734,2.309C72.107,335.723,73.961,344.531,69.688,351.086z"/>
				<g>
					<path fill-rule="evenodd" clip-rule="evenodd" fill="#25C3DB" d="M52.671,348.129l10.512-9.549
						c-0.357-0.422-0.763-0.805-1.232-1.143c-3.179-2.305-7.625-1.59-9.928,1.596C49.974,341.869,50.325,345.697,52.671,348.129z"/>
				</g>
			</g>
		</g>
	</g>
	<g>
		<g>
			<path fill="#25C3DB" d="M407.221,64.766c-0.991,0-1.801,0.811-1.801,1.803v87.936c0,0.992,0.811,1.803,1.801,1.803h98.838V64.766
				H407.221z"/>
			<path opacity="0.9" fill="#FFFFFF" d="M949.805,64.766H506.059v91.541h443.746c0.988,0,1.801-0.811,1.801-1.803V66.568
				C951.606,65.576,950.793,64.766,949.805,64.766z"/>
		</g>
		<g>
			<g>
				<path fill="#8795A2" d="M545.489,113.485h-0.064l-4.132-6.061v9.172h-1.248v-11.344h1.296l4.133,6.19l4.132-6.19h1.297v11.344
					h-1.28v-9.188L545.489,113.485z"/>
				<path fill="#8795A2" d="M557.587,115.705c1.151,0,1.961-0.47,2.642-1.183l0.778,0.697c-0.843,0.939-1.864,1.571-3.452,1.571
					c-2.301,0-4.181-1.767-4.181-4.375c0-2.431,1.701-4.376,4.019-4.376c2.479,0,3.905,1.978,3.905,4.44
					c0,0.113,0,0.243-0.016,0.389h-6.645C554.817,114.685,556.113,115.705,557.587,115.705z M560.035,111.946
					c-0.13-1.523-1.005-2.853-2.674-2.853c-1.458,0-2.561,1.216-2.723,2.853H560.035z"/>
				<path fill="#8795A2" d="M567.176,115.705c1.151,0,1.961-0.47,2.642-1.183l0.778,0.697c-0.843,0.939-1.864,1.571-3.452,1.571
					c-2.301,0-4.181-1.767-4.181-4.375c0-2.431,1.701-4.376,4.019-4.376c2.479,0,3.905,1.978,3.905,4.44
					c0,0.113,0,0.243-0.016,0.389h-6.645C564.406,114.685,565.702,115.705,567.176,115.705z M569.624,111.946
					c-0.13-1.523-1.005-2.853-2.674-2.853c-1.458,0-2.561,1.216-2.723,2.853H569.624z"/>
				<path fill="#8795A2" d="M574.756,114.215c0,1.021,0.567,1.394,1.409,1.394c0.422,0,0.778-0.081,1.216-0.292v1.069
					c-0.438,0.228-0.907,0.356-1.507,0.356c-1.346,0-2.366-0.664-2.366-2.365v-5.057h-1.167v-1.102h1.167v-2.528h1.248v2.528h2.657
					v1.102h-2.657V114.215z"/>
				<path fill="#8795A2" d="M588.557,116.872c-0.713,1.734-1.523,2.366-2.787,2.366c-0.697,0-1.216-0.146-1.783-0.422l0.422-0.988
					c0.405,0.211,0.777,0.308,1.312,0.308c0.745,0,1.215-0.389,1.718-1.571l-3.809-8.346h1.378l3.046,6.984l2.69-6.984h1.329
					L588.557,116.872z"/>
				<path fill="#8795A2" d="M597.383,116.791c-2.512,0-4.343-1.977-4.343-4.359c0-2.382,1.848-4.392,4.375-4.392
					c2.512,0,4.359,1.978,4.359,4.359C601.775,114.782,599.912,116.791,597.383,116.791z M597.383,109.143
					c-1.814,0-3.062,1.442-3.062,3.257c0,1.815,1.329,3.273,3.095,3.273c1.815,0,3.079-1.442,3.079-3.241
					C600.495,110.601,599.15,109.143,597.383,109.143z"/>
				<path fill="#8795A2" d="M609.97,108.219h1.231v8.378h-1.231v-1.458c-0.567,0.907-1.426,1.637-2.868,1.637
					c-2.025,0-3.209-1.361-3.209-3.354v-5.202h1.248v4.894c0,1.556,0.843,2.528,2.317,2.528c1.426,0,2.512-1.054,2.512-2.625
					V108.219z"/>
				<path fill="#8795A2" d="M615.249,116.597H614v-8.378h1.248v2.188c0.615-1.394,1.831-2.398,3.419-2.333v1.345h-0.098
					c-1.831,0-3.321,1.312-3.321,3.841V116.597z"/>
				<path fill="#8795A2" d="M627.105,114.215c0,1.021,0.567,1.394,1.409,1.394c0.422,0,0.778-0.081,1.216-0.292v1.069
					c-0.438,0.228-0.907,0.356-1.507,0.356c-1.345,0-2.366-0.664-2.366-2.365v-5.057h-1.167v-1.102h1.167v-2.528h1.248v2.528h2.657
					v1.102h-2.657V114.215z"/>
				<path fill="#8795A2" d="M633.211,116.597h-1.248v-8.378h1.248v2.188c0.615-1.394,1.831-2.398,3.419-2.333v1.345h-0.098
					c-1.831,0-3.321,1.312-3.321,3.841V116.597z"/>
				<path fill="#8795A2" d="M638.602,109.823l-0.373-1.021c0.924-0.421,1.831-0.696,3.047-0.696c2.285,0,3.564,1.167,3.564,3.37
					v5.121h-1.198v-1.264c-0.584,0.762-1.556,1.442-3.031,1.442c-1.555,0-3.127-0.876-3.127-2.626c0-1.782,1.458-2.722,3.581-2.722
					c1.069,0,1.831,0.146,2.577,0.356v-0.292c0-1.507-0.924-2.285-2.496-2.285C640.158,109.207,639.379,109.467,638.602,109.823z
					 M638.748,114.102c0,1.069,0.973,1.685,2.106,1.685c1.54,0,2.804-0.939,2.804-2.269v-0.81c-0.615-0.179-1.442-0.357-2.463-0.357
					C639.623,112.351,638.748,113.031,638.748,114.102z"/>
				<path fill="#8795A2" d="M647.527,106.388v-1.378h1.426v1.378H647.527z M647.608,116.597v-8.378h1.248v8.378H647.608z"/>
				<path fill="#8795A2" d="M653.002,116.597h-1.248v-8.378h1.248v1.458c0.551-0.907,1.426-1.637,2.868-1.637
					c2.025,0,3.208,1.361,3.208,3.354v5.202h-1.247v-4.894c0-1.556-0.843-2.528-2.317-2.528c-1.442,0-2.512,1.054-2.512,2.625
					V116.597z"/>
				<path fill="#8795A2" d="M665.426,115.705c1.151,0,1.961-0.47,2.642-1.183l0.778,0.697c-0.843,0.939-1.864,1.571-3.452,1.571
					c-2.301,0-4.181-1.767-4.181-4.375c0-2.431,1.701-4.376,4.019-4.376c2.479,0,3.905,1.978,3.905,4.44
					c0,0.113,0,0.243-0.016,0.389h-6.645C662.656,114.685,663.952,115.705,665.426,115.705z M667.874,111.946
					c-0.13-1.523-1.005-2.853-2.674-2.853c-1.458,0-2.561,1.216-2.723,2.853H667.874z"/>
				<path fill="#8795A2" d="M672.569,116.597h-1.248v-8.378h1.248v2.188c0.615-1.394,1.831-2.398,3.419-2.333v1.345h-0.098
					c-1.831,0-3.321,1.312-3.321,3.841V116.597z"/>
			</g>
		</g>
		<g>
			<path fill="#25C6DE" d="M711.917,115.283c-2.17,0-3.786-1.691-3.786-3.84c0-2.127,1.584-3.86,3.839-3.86
				c1.372,0,2.201,0.479,2.914,1.159l-0.84,0.968c-0.596-0.553-1.234-0.925-2.085-0.925c-1.425,0-2.457,1.169-2.457,2.637
				s1.032,2.659,2.457,2.659c0.915,0,1.5-0.372,2.138-0.968l0.841,0.851C714.161,114.772,713.309,115.283,711.917,115.283z"/>
			<path fill="#25C6DE" d="M719.91,115.283c-2.287,0-3.882-1.733-3.882-3.84c0-2.105,1.616-3.86,3.902-3.86
				c2.287,0,3.882,1.733,3.882,3.839C723.812,113.528,722.196,115.283,719.91,115.283z M719.91,108.785
				c-1.479,0-2.511,1.18-2.511,2.637s1.054,2.659,2.531,2.659c1.479,0,2.511-1.181,2.511-2.638S721.387,108.785,719.91,108.785z"/>
			<path fill="#25C6DE" d="M729.318,113.326h-0.043l-2.329-3.488v5.317h-1.287v-7.444h1.394l2.266,3.52l2.265-3.52h1.394v7.444
				h-1.309v-5.339L729.318,113.326z"/>
			<path fill="#25C6DE" d="M737.937,112.763h-1.478v2.393h-1.309v-7.444h2.936c1.733,0,2.829,0.978,2.829,2.499
				C740.916,111.891,739.576,112.763,737.937,112.763z M737.98,108.901h-1.521v2.681h1.521c0.989,0,1.606-0.543,1.606-1.34
				C739.586,109.359,738.958,108.901,737.98,108.901z"/>
			<path fill="#25C6DE" d="M742.517,107.711h1.309v6.253h3.913v1.191h-5.222V107.711z"/>
			<path fill="#25C6DE" d="M754.882,108.881h-4.211v1.936h3.732v1.17h-3.732v1.999h4.265v1.17h-5.573v-7.444h5.52V108.881z"/>
			<path fill="#25C6DE" d="M759.899,115.155h-1.319v-6.232h-2.36v-1.212h6.04v1.212h-2.36V115.155z"/>
			<path fill="#25C6DE" d="M769.424,108.881h-4.211v1.936h3.732v1.17h-3.732v1.999h4.265v1.17h-5.573v-7.444h5.52V108.881z"/>
			<path fill="#25C6DE" d="M772.697,107.711v0.372l-0.394,4.722h-0.713l-0.404-4.722v-0.372H772.697z M771.24,115.155v-1.457h1.414
				v1.457H771.24z"/>
		</g>
		<g>
			<linearGradient id="SVGID_2_" gradientUnits="userSpaceOnUse" x1="393.3726" y1="129.6641" x2="479.008" y2="44.0286">
				<stop  offset="0" style="stop-color:#E5E5E5;stop-opacity:0"/>
				<stop  offset="0.3543" style="stop-color:#E1E2E2;stop-opacity:0.3543"/>
				<stop  offset="0.6677" style="stop-color:#D7D8D8;stop-opacity:0.6677"/>
				<stop  offset="0.9646" style="stop-color:#C5C7C7;stop-opacity:0.9646"/>
				<stop  offset="1" style="stop-color:#C2C4C5"/>
			</linearGradient>
			<polygon opacity="0.5" fill="url(#SVGID_2_)" points="408.923,67.623 408.923,145.215 417.821,145.215 501.903,67.623 			"/>
		</g>
		<polygon fill="#FFFFFF" points="468.849,103.23 466,100.381 448.478,117.9 442.512,111.936 439.661,114.785 448.478,123.602 		"/>
	</g>
</g>
<g>
</g>
<g>
</g>
<g>
</g>
<g>
</g>
<g>
</g>
<g>
</g>
<g>
</g>
<g>
</g>
<g>
</g>
<g>
</g>
<g>
</g>
<g>
</g>
<g>
</g>
<g>
</g>
<g>
</g>
</svg>
