<svg xmlns="http://www.w3.org/2000/svg" width="492.1" height="330.3" viewBox="0 0 492.1 330.3"><path fill="#BDBDBD" d="M412.3 114c9.5.6 18.9 1.2 28.4 1.8 2.4-2.4 4.8-4.8 7.1-7.2-1.1-1.2-2.2-2.3-3.3-3.5-.1-3-.3-5.9-.5-8.9-1.3-1.4-2.5-2.7-3.8-4.1-12.4-1.2-24.7-2.3-37.1-3.3-1.2 1.3-2.4 2.6-3.7 3.9.3 6.9.6 13.8.8 20.7 4.1.1 8.1.4 12.1.6z"/><path fill="#A6273C" d="M439.4 86.7c2.5.3 5.1.5 7.6.8-.3-5.1-.7-10.2-1-15.3-.2-2.9-.4-5.7-.7-8.5-.7-8.5-1.4-17-2.3-25.4-2-.4-4.1-.7-6.1-1.1l-4.5 4.5c-3.2 4.1-6.5 8.3-9.8 12.5.1 1.9.3 3.9.4 5.8-2 2-3.9 4.1-5.9 6.1-4.5-.5-9.1-1-13.6-1.5-1.4 1.4-2.7 2.9-4.1 4.4.2 2.9.3 5.7.5 8.6-.4.5-.8.9-1.3 1.4 12.3 1.1 24.7 2.3 37 3.6 1.2 1.4 2.5 2.7 3.8 4.1z"/><path fill="#33393D" d="M374.4 141c5.2.1 10.3.2 15.5.4 1.6 1.7 3.2 3.5 4.7 5.2l3.3-3.6c0-2.6-.1-5.1-.1-7.7 1.9.1 3.8.1 5.6.2 1.7-1.8 3.4-3.7 5.1-5.5l-.3-11.6c-.2-6.8-.5-13.7-.8-20.5-2.6 2.8-5.3 5.6-7.9 8.4l-16.2-.9c0-1.3-.1-2.6-.1-3.9-3.3-.2-6.5-.4-9.8-.6.5 13.3.8 26.7 1 40.1z"/><path fill="#BDBDBD" d="M318.3 180.5v8.1c4.8 0 9.6-.1 14.5-.1l23-.3 18.5-.3v-8.4l5.7-6.3h7.7v-5.9h-69.4v13.2z"/><path fill="#33393D" d="M308.9 37.2c3.5 4.2 7.1 8.4 10.7 12.7.1.1.2.2.3.4v-.1c2.4-2.7 4.8-5.5 7.1-8.2 0-1.2-.1-2.5-.1-3.7 1.9-2.2 3.8-4.4 5.7-6.5 4.5.3 9 .7 13.4 1.1-2.3-2.7-4.5-5.3-6.8-8-2.2-.2-4.5-.4-6.7-.6-1.2 1.4-2.5 2.8-3.7 4.3-4.1-.3-8.2-.6-12.3-.8-1.3-1.6-2.7-3.2-4-4.8l-.3-7.2c-2.4 2.8-4.9 5.7-7.3 8.6-1.9 2.2-3.8 4.5-5.7 6.7 1.7 2 3.3 4 5 6 1.6 0 3.1 0 4.7.1z"/><path fill="#33393D" d="M358.2 84.8c-.1-1.6-.1-3.2-.2-4.8l5.1-5.7-.6-12.9c-1.6-1.8-3.2-3.7-4.8-5.5-2 2.2-4 4.4-6 6.7-.1-2.8-.2-5.6-.4-8.5 1-1.2 2.1-2.4 3.1-3.5l-.3-6.6c-1.5-1.8-3.1-3.6-4.6-5.4l-10.8-.9c-3.1 3.6-6.3 7.2-9.5 10.8l.6 17.7c2.1 2.5 4.2 5 6.4 7.4l.3 10 11.7.6c3.5.2 6.7.4 10 .6z"/><path fill="#A6273C" d="M291.5 58.9c2.6 3 5.1 6 7.7 9.1.1 3.9.1 7.9.2 11.8 3.5 4.1 7 8.2 10.6 12.3 1.5 0 3.1.1 4.6.1 4.8.2 9.7.3 14.5.5-.1-5.4-.3-10.8-.4-16.1-.1-4.7-.3-9.3-.4-14-.1-.1-.2-.2-.3-.4-3.6-4.2-7.2-8.4-10.7-12.6-1.6-.1-3.2-.2-4.7-.2-1.7-2-3.4-4-5-6l-.1.1c-3.5-.2-7.1-.3-10.6-.5-1.8 2.1-3.6 4.2-5.4 6.4-.1 3.3 0 6.4 0 9.5z"/><path fill="#33393D" d="M316.2 181.8V178c-14.8.1-29.5.1-44.3.1 0 12.7 0 25.4-.1 38.1 2.8 3.2 5.6 6.5 8.4 9.7 9.6-.1 19.2-.3 28.9-.5 0-3.5.1-7.1.1-10.6 0-3.4.1-6.7.1-10.1 3.2-3.6 6.3-7.3 9.5-10.9 1.2-1.3 2.3-2.7 3.5-4v-8h-6.1z"/><path fill="#BDBDBD" d="M357.7 146.8c4.6-5.1 9.2-10.2 13.7-15.3-.2-13.4-.6-26.8-1.1-40.2-3.9-.2-7.8-.5-11.7-.7-2.4 2.7-4.8 5.3-7.2 8.1-1.2-.1-2.4-.1-3.6-.2.4 16 .7 32.1.8 48.2 3 0 6 .1 9.1.1z"/><path fill="#33393D" d="M343.4 103.1c-2.1-2.4-4.3-4.9-6.4-7.4 0-1.3-.1-2.5-.1-3.8-6.3-.3-12.7-.5-19-.7.1 4.2.2 8.5.2 12.7l-4.5 5.1c0 2.9.1 5.7.1 8.6h.1c.1 4.5.1 9 .1 13.5l6 6.9h3c0 3 0 6 .1 9 2.8 3.2 5.7 6.5 8.5 9.7v6.5c4.8-4 9.6-7.9 14.4-11.8v-.1c-.1-16.1-.4-32.2-.7-48.3-.5.1-1.2.1-1.8.1zM125.7 114.9c.2-8.5.5-17 .8-25.5-9.4.6-18.8 1.2-28.2 1.9-1.1 24.2-1.6 48.5-1.7 72.7 14.6-.1 29.3-.1 44-.2 0-16.5.3-33.1.6-49.6-5.2.3-10.4.5-15.5.7z"/><path fill="#A6273C" d="M89.4 81.6c-11.1 1-22.1 2.1-33.2 3.3-.2 3.4-.4 6.8-.6 10.1-2.9 2.9-5.7 5.7-8.6 8.5-.3 4.9-.5 9.8-.7 14.7 6.6 6 13.3 12.2 20.1 18.6-.1 2.4-.1 4.8-.1 7.2 5.6 5.3 11.2 10.7 16.9 16.3 2.1-2.2 4.2-4.5 6.3-6.7 3.3-.1 6.6-.1 9.9-.1.2-24.3.9-48.6 2.1-72.9-4 .3-8 .7-12.1 1zM252.7 81.4c12 0 24 .2 36 .4 0-4-.1-7.9-.2-11.9-2.6-3-5.1-6-7.7-9 0-3.1-.1-6.3-.1-9.4 1.8-2.2 3.7-4.3 5.5-6.4h-.7c0-2.7-.1-5.5-.1-8.2 4.7-5.5 9.3-10.9 13.8-16.3-4.5-.1-8.9-.3-13.4-.4-1.5-1.8-2.9-3.5-4.4-5.3l-9.6-.3c-2.4-2.9-4.8-5.7-7.1-8.6-4-.1-8-.1-12.1-.1 0 11.9 0 23.9.1 35.8v39.7z"/><path fill="#33393D" d="M265.5 182.4h-43c0 10.6 0 21.2.1 31.8 3.5 4.1 7 8.1 10.5 12.2 10.8.1 21.6.1 32.4 0 0-12.7.1-25.4.1-38.1-.1-2-.1-4-.1-5.9zM460.4 68.7c-.4-4.8-.8-9.5-1.3-14.3 1-.9 1.9-1.8 2.9-2.8-.2-2.4-.5-4.9-.7-7.3l-13.2-2.4c.8 8.4 1.6 16.9 2.3 25.3 3.3.5 6.7 1 10 1.5z"/><path fill="#A6273C" d="M274.9 159.6v13c14.8 0 29.5 0 44.3-.1v3.8h6v-13.2-6.6c-2.8-3.2-5.7-6.5-8.5-9.7 0-3 0-6-.1-9h-3l-6-6.9c0-4.5-.1-9-.1-13.5-12.9-.2-25.8-.4-38.7-.5 2 2.3 4 4.7 6 7 0 12 .1 23.9.1 35.7z"/><path fill="#BDBDBD" d="M200.1 126.4c0-5.2.1-10.4.1-15.6-3.4.1-6.8.1-10.2.2-15.2.3-30.4.8-45.6 1.3-.4 16.6-.6 33.1-.6 49.7 14.7-.1 29.4-.1 44.2-.1h12c0-11.8 0-23.7.1-35.5z"/><path fill="#A6273C" d="M266.6 177.9v-35.7c-20-.1-40.1 0-60.1.1-.1 11.8-.1 23.7-.1 35.5h-12v7.1c9.7.1 19.4.1 29.1.1v.1h43c.1-2.4.1-4.8.1-7.2z"/><path fill="#BDBDBD" d="M252.8 105.1V83.3c0-13.3 0-26.5-.1-39.7-19.7-.1-39.3.3-59 1.2-.1 3.1-.2 6.2-.2 9.3-.3 13.7-.6 27.4-.8 41.1 17-.4 34-.7 51.1-.7 2.9 3.5 5.9 7.1 9 10.6z"/><path fill="#33393D" d="M214 137.9c20-.1 40-.1 60 0-2-2.3-4-4.7-6-7v-13c-1.2-1.4-2.5-2.9-3.7-4.3-3-3.5-6.1-7.1-9.1-10.6-17.1 0-34.1.1-51.2.4-.1 6.3-.1 12.7-.2 19.1 3.4 0 6.8-.1 10.2-.1.1 5 .1 10.2 0 15.5z"/><path fill="#A6273C" d="M287.8 253.7c0-3 .1-5.9.1-8.9 1.1-1.3 2.3-2.7 3.4-4 0-3.3.1-6.6.1-9.9-9.6.2-19.2.3-28.8.3V245c2.3 2.7 4.7 5.5 7 8.2 0 7.3-.1 14.5-.1 21.8 2.5 0 5-.1 7.6-.1 1.6 1.9 3.2 3.7 4.8 5.6 9.4-.2 18.8-.5 28.2-1 .1-3.4.2-6.9.2-10.3-1.6-1.8-3.1-3.6-4.7-5.4l.3-.3c.1-3.5.1-6.9.2-10.4-6.2.3-12.3.5-18.3.6zM454.4 126c-.1-3.7-.3-7.4-.4-11.1l-1.5-1.5c-9.4-.7-18.9-1.4-28.3-2 .1 1.8.1 3.6.2 5.4 4.8.3 9.7.6 14.5.9.3 0 .6 0 .9.1.6 0 1.2.1 1.8.1 2.4 2.6 4.8 5.1 7.3 7.7-.1-1.6-.1-3.3-.2-4.9.9 1 1.8 1.9 2.8 2.9.1 1.6.1 3.3.2 4.9 1.3 1.3 2.5 2.6 3.8 3.9 0 1 .1 2 .1 2.9 1.6 1.4 3.2 2.8 4.7 4.2-.1-4.4-.3-8.9-.5-13.3-2 .1-3.7 0-5.4-.2z"/><path fill="#33393D" d="M447.5 124.2c-.3 0-.6 0-.9-.1-2.4 2.5-4.9 5-7.3 7.5.1 2 .1 3.9.2 5.9-1 0-2-.1-3-.1-5.2 5.3-10.4 10.8-15.6 16.4-2.3 0-4.6-.1-6.8-.1-3.9 4.2-7.9 8.5-11.9 12.8h16.2c15.7 0 31.4.1 47.1.1 0-3 0-6-.1-9-2.8-2.2-5.6-4.5-8.3-6.8-.1-6.3-.2-12.7-.4-19-2.4-2.5-4.8-5-7.2-7.6-.8.1-1.4 0-2 0z"/><path fill="#A6273C" d="M401.6 169.7h-7.7c-1.9 2.1-3.8 4.1-5.6 6.2v8.3h2.5c8.1-.1 16.2-.2 24.3-.4 4.6-.1 9.1-.2 13.7-.2 1.3 1.4 2.6 2.7 3.9 4.1v-.2c.8 0 1.6 0 2.4-.1 4.6-4.9 9.2-9.7 13.7-14.4v-8.8c-15.7-.1-31.4-.2-47.2-.2v5.7z"/><path fill="#33393D" d="M390.6 199.4c-3.1-3.4-6.3-6.8-9.4-10.2v-4.9h-2.6c-6.2.1-12.3.2-18.5.2 0 3.1 0 6.2-.1 9.2 2 2.2 4 4.5 6 6.7-.1 6.1-.2 12.2-.3 18.4-.1 5.4-.2 10.7-.4 16.1 13.1-.7 26.2-1.4 39.3-2.3l.6-20.9c-3.8-4.1-7.7-8.2-11.6-12.4-.8 0-1.9.1-3 .1zM260.3 35.9c-.1-11.9-.1-23.9-.2-35.8-16.9-.2-33.9 0-50.8.8-.3 11.9-.6 23.7-.8 35.6 17.3-.6 34.5-.8 51.8-.6z"/><path fill="#BDBDBD" d="M421.8 187.5c-8.1.2-16.2.3-24.3.5v4.8c3.1 3.4 6.2 6.7 9.4 10 1.1 0 2.1-.1 3.2-.1 3.9 4.1 7.7 8.1 11.5 12.1 3.6-3.9 7.1-7.7 10.7-11.5 2.4-2.5 4.7-5 7.1-7.5 0-1.5 0-3 .1-4.6-1.3-1.3-2.6-2.7-3.9-4-4.7.1-9.2.2-13.8.3zM491.1 45.5c-1.7-1.8-3.5-3.7-5.2-5.6-.1-1.2-.3-2.3-.4-3.5-1.8-2-3.6-3.9-5.5-5.9-2.8-.7-5.7-1.3-8.5-1.9.3 2.6.7 5.2 1 7.9.3 2.6.6 5.2.9 7.9.6 5.7 1.2 11.3 1.8 16.9 1.4 1.4 2.7 2.9 4.1 4.3 4.4-4 8.7-7.8 12.9-11.5-.4-2.9-.7-5.8-1.1-8.6z"/><path fill="#33393D" d="M458 80.4c.4 5 .7 10 1 15h.2c2.7-1.9 5.5-3.8 8.2-5.6 2.9.3 5.7.7 8.6 1-.2-2.7-.4-5.4-.6-8.2-5.9-.7-11.7-1.5-17.4-2.2z"/><path fill="#A6273C" d="M470 43.5c-1.7 1.3-3.4 2.7-5.1 4h-.1c.2 2.4.5 4.9.7 7.3-1 .9-1.9 1.8-2.9 2.7.4 4.7.9 9.5 1.2 14.2 4.4.6 8.9 1.3 13.3 2-.2-1.8-.3-3.6-.5-5.3-1.6-1.7-3.1-3.3-4.7-5-.5-6.6-1.2-13.2-1.9-19.9z"/><path fill="#BDBDBD" d="M450.9 69.2c.3 3.4.5 6.9.8 10.3 7.1.9 14.1 1.8 21.1 2.7 1.7.2 3.4.5 5.1.7 1.5 1.6 3.1 3.2 4.6 4.8l.1-.1c1.2.2 2.3.3 3.5.5 1.5-1.4 3.1-2.8 4.6-4.2-.1-.8-.1-1.6-.2-2.3-.9-.1-1.8-.3-2.7-.4-.9.8-1.8 1.7-2.8 2.5-1.7-1.8-3.5-3.7-5.3-5.5-.1-1.6-.3-3.3-.4-5-5.4-.8-10.8-1.7-16.2-2.4-4-.5-8.1-1-12.2-1.6z"/><path fill="#A6273C" d="M477.3 86.2c.2 2 .3 4 .4 5.9.7.1 1.5.2 2.2.3 1.1-1 2.1-2 3.2-2.9-.9-1-1.8-1.9-2.8-2.9-1-.2-2-.3-3-.4z"/><path fill="#BDBDBD" d="M356.9 239.4l-.3 10.5 5.4-.3c3.1-.2 6.1-.4 9.2-.6 2.5 2.7 4.9 5.4 7.3 8 2.5-.2 5.1-.4 7.6-.6 2.1-2.3 4.1-4.7 6.2-7 3.2 3.5 6.4 6.9 9.6 10.3-.2 3.3-.3 6.5-.5 9.8 2.3 2.4 4.5 4.8 6.8 7.1-.2 2.8-.3 5.5-.5 8.3 2.5 2.6 4.9 5.1 7.3 7.6 1.7 1.7 3.3 3.4 5 5.1 2.8-.4 5.7-.9 8.5-1.3.4-4.4.7-8.8 1.1-13.1.4-5 .7-10 1.1-14.9-2.9-3-5.9-6-8.9-9.1.1-2.4.3-4.9.4-7.3l-7.8-8.1c.1-2.7.2-5.3.3-8-13.1 1-26.1 1.8-39.2 2.6-6.3.4-12.4.7-18.6 1z"/><path fill="#33393D" d="M69.6 162.7c-5.7-5.5-11.3-10.8-16.9-16 0-2.3.1-4.7.1-7-6.8-6.3-13.5-12.4-20.1-18.3.2-4.8.4-9.6.7-14.5 2.9-2.8 5.7-5.6 8.6-8.4.2-3.3.4-6.6.6-10-9.7 1.1-19.4 2.2-29.1 3.5l-2.1.3c-3.4 4.3-6.7 8.6-10 12.9-.6 9.1-1 18.2-1.4 27.3 6 7 12.1 14.2 18.3 21.7 0 2.2-.1 4.4-.1 6.6 6.3 6.2 12.6 12.6 19 19.1 0 3.8.1 7.7.1 11.5 7.4.2 14.7.5 22.1.7.7.7 1.3 1.4 2 2.1 2.7-2.5 5.4-5.1 8.1-7.7 0-8 0-15.9.1-23.8z"/><path fill="#BDBDBD" d="M46.8 89.2C57.9 88 69 86.8 80.1 85.8c.7-13.2 1.6-26.4 2.6-39.6-20.2 2.8-40.4 6-60.6 9.6C21 66.6 20 77.4 19.3 88.2c-1.2 1.5-2.4 3.1-3.5 4.6l2.1-.3c9.5-1.2 19.2-2.3 28.9-3.3z"/><path fill="#A6273C" d="M78.2 9.1c-11.4 2.1-22.7 4.5-34.2 7l-18.3 4.2c-.5 3.4-.9 6.7-1.3 10.1-2.8 3.1-5.6 6.1-8.4 9.1l-1.5 12.6c20.2-3.9 40.4-7.4 60.6-10.4.9-10.9 1.9-21.8 3.1-32.6z"/><path fill="#33393D" d="M86 78.5c4-.4 8.1-.8 12.1-1.1 9.4-.8 18.7-1.6 28.1-2.3.5-10.8 1-21.6 1.6-32.3-4.2.4-8.4.9-12.6 1.3-2.4-2.6-4.7-5.1-7.1-7.7.4-5.6.8-11.1 1.3-16.7-2.7-2.9-5.3-5.8-8-8.6.2-2.4.4-4.8.7-7.3-3.5.6-7 1.2-10.4 1.8-1.1 11-2.1 22-3 33.1-1 13.2-1.9 26.5-2.7 39.8z"/><path fill="#BDBDBD" d="M141.5 52.8c19.9-1.6 39.8-2.8 59.8-3.5.1-3.1.1-6.2.2-9.4l.9-35.6c-29.1 1.4-58.2 4.2-87.4 8.4-.2 2.5-.4 4.9-.6 7.4 2.7 2.9 5.4 5.9 8.1 8.9-.4 5.6-.7 11.3-1.1 16.9 2.4 2.6 4.8 5.3 7.2 7.9 4.2-.4 8.4-.7 12.6-1.1"/><path fill="#A6273C" d="M137.5 46.8c-.5 10.9-1 21.7-1.4 32.6-.3 8.6-.6 17.1-.8 25.7 5.1-.2 10.3-.5 15.4-.7 15.2-.6 30.4-1.1 45.6-1.4l.3-19c.2-13.7.5-27.4.8-41.1-19.9.8-39.7 2.1-59.6 3.8M362.2 243.7c.2-5.4.3-10.7.4-16.1.1-6.1.3-12.3.4-18.4-2-2.2-4-4.4-6-6.7 0-3.1.1-6.2.1-9.3-7.7.1-15.3.2-23 .4-.1 20.7-.5 41.5-1 62.2 3.4-.2 6.9-.3 10.3-.5l.3-10.6c6.2-.3 12.3-.6 18.5-1z"/><path fill="#BDBDBD" d="M315.5 201.6c-1.2 1.3-2.3 2.7-3.5 4-3.2 3.6-6.3 7.3-9.5 10.9 0 3.4-.1 6.7-.1 10.1 0 3.5-.1 7.1-.1 10.6 0 3.3-.1 6.6-.1 9.9-1.1 1.3-2.3 2.7-3.4 4 0 3-.1 5.9-.1 8.9 6.1-.2 12.1-.4 18.2-.6-.1 3.4-.1 6.9-.2 10.3 2.2-1.9 4.4-3.9 6.5-5.8l5.7-.3c.5-20.7.9-41.5 1.1-62.3l-14.5.3zM86.8 167.6h-9.9c-2.1 2.2-4.1 4.4-6.2 6.6 0 7.9.1 15.8.2 23.7-2.7 2.6-5.4 5.1-8.1 7.6 4.5 4.8 9.1 9.7 13.6 14.7l27 1.5c3.3 3.7 6.7 7.4 10 11.2 6 .3 12.1.7 18.1.9-.6-22.1-.8-44.1-.8-66.2H86.8zM267.6 255.4c0-4.6 0-9.2.1-13.8-2.8-3.2-5.6-6.5-8.3-9.7v0c-10.8 0-21.6 0-32.3-.1-3.5-4.1-7-8.2-10.5-12.2-.1-10.6-.1-26-.1-26.1-9.7 0-19.4-.1-29.1-.2.1 18.5.3 31.3.6 49.8-10.9-.3-21.8-.7-32.7-1.2l13.2 15.3c.1 5.4.3 10.7.5 16.1 3.7 4.3 7.4 8.7 11.1 13 2.2.1 4.4.2 6.5.3 2.3-2.6 4.6-5.3 6.9-8l8.1.3c3.1 3.6 6.1 7.2 9.2 10.9.1 3.7.1 4.5.2 8.1 3.4 4.1 6.8 8.1 10.2 12.2.1 3.5.1 4.8.2 8.2 4.1 4.9 8.1 6.9 12.2 11.8 2.1 0 4.3.1 6.4.1-.1-10.8-.1-16.5-.2-27.3 5.7-6.7 11.4-10.7 17.1-17.5 5.9 0 11.8-.1 17.7-.2.1-7.2.1-14.5.2-21.7-2.6-2.7-4.9-5.4-7.2-8.1z"/><path fill="#A6273C" d="M181.4 179.9v-7c-14.7 0-29.5-.1-44.2-.1 0 22.2.3 44.4.9 66.5 2.4.1 4.8.2 7.1.3 0-1.8-.1-3.7-.1-5.5.9 0 1.8.1 2.7.1.4 0 .9 0 1.3.1 10.9.4 21.8.8 32.8 1.1-.3-18.5-.4-37-.5-55.5z"/><path fill="#BDBDBD" d="M310.7 104c-.1-4.2-.1-8.5-.2-12.7h-.1c-3.5-4.1-7-8.2-10.6-12.3-12-.4-24-.6-35.9-.7 0 7.2.1 14.5.1 21.7 1.2 1.4 2.4 2.9 3.7 4.3v13c12.9.1 25.7.2 38.6.5 0-2.9-.1-5.8-.1-8.6 1.5-1.8 3-3.5 4.5-5.2z"/><path fill="#A6273C" d="M334.9 165.4c4.8-4 9.6-8 14.4-11.9 3 0 6 .1 9.1.1 4.6-5.2 9.2-10.3 13.8-15.3 5.2.1 10.3.3 15.5.4 4.2 4.6 8.3 9.2 12.5 13.7-4 4.3-8 8.7-12.1 13.2-17.7-.2-35.4-.2-53.2-.2z"/><path fill="#BDBDBD" d="M400.2 145.4c2.6 2.8 5.2 5.6 7.7 8.4 2.2 0 4.4.1 6.7.1 5.2-5.6 10.4-11.1 15.6-16.4 1 0 2.1.1 3.1.1 0-1.9-.1-3.9-.1-5.8 2.5-2.5 4.9-5.1 7.4-7.6-4.8-.3-9.7-.5-14.5-.8-.1-1.8-.1-3.6-.2-5.4-4-.2-8-.5-12-.7l.3 11.5c-1.7 1.8-3.4 3.6-5.1 5.5-1.9-.1-3.8-.1-5.6-.2.1 2.6.1 5.1.1 7.7-1.2 1.2-2.3 2.4-3.4 3.6z"/><path fill="#33393D" d="M458.1 89.4c-2.5-.3-5.1-.6-7.6-.9.2 2.9.4 5.9.5 8.8 1.1 1.2 2.2 2.3 3.3 3.5-2.3 2.3-4.7 4.7-7.1 7 1 1.1 2 2.1 3 3.2 1.9.1 3.8.3 5.7.5l2.8-2.8c-.2-4.4-.5-8.8-.7-13.2-.1-2-.2-3.9-.4-5.8.2-.1.4-.2.5-.4.2.1.1.1 0 .1z"/><path fill="#BDBDBD" d="M463.2 129.4c-.1-1.9-.2-3.8-.2-5.7-1.3-1.3-2.6-2.7-3.8-4-.5-.5-1-1.1-1.6-1.6.2 3.7.3 7.3.4 11 1.7.1 3.4.2 5.2.3z"/></svg>