<svg xmlns="http://www.w3.org/2000/svg" xmlns:xlink="http://www.w3.org/1999/xlink" width="241" height="240" viewBox="0 0 241 240"><defs><path id="a" d="M0 102h241v58H79.8L0 240V102zM0 0v60h241V0H0z"/></defs><clipPath id="b"><use xlink:href="#a" overflow="visible"/></clipPath><g clip-path="url(#b)"><path fill="none" stroke="#FF5722" stroke-width="3.143" stroke-miterlimit="10" d="M-48.1 86.1L32.4 5.7"/><path fill="none" stroke="#FF5722" stroke-width="3.062" stroke-miterlimit="10" d="M213.8 23.3c-2.1 0-3.8-1.7-3.8-3.8 0-2.1 1.7-3.8 3.8-3.8 2.1 0 3.8 1.7 3.8 3.8 0 2.1-1.7 3.8-3.8 3.8zM234.9 127.6c-2.1 0-3.8-1.7-3.8-3.8 0-2.1 1.7-3.8 3.8-3.8 2.1 0 3.8 1.7 3.8 3.8 0 2.1-1.7 3.8-3.8 3.8z"/><path fill="#FF5722" stroke="#FF5722" stroke-width="3.573" stroke-miterlimit="10" d="M4.1 229.9c-1.1 0-2-.9-2-2s.9-2 2-2 2 .9 2 2c-.1 1.1-1 2-2 2z"/><path fill="none" stroke="#FF5722" stroke-width="3.062" stroke-miterlimit="10" d="M195.5 39.2c-4.1 0-7.4-3.3-7.4-7.3 0-4.1 3.3-7.3 7.3-7.4 4.1 0 7.3 3.3 7.4 7.3.1 4.1-3.2 7.4-7.3 7.4z"/><path fill="#FF5722" stroke="#FF5722" stroke-width="3.573" stroke-miterlimit="10" d="M28.6 1.2h8.2v8.2h-8.2z"/><path fill="none" stroke="#FF5722" stroke-width="3.573" stroke-miterlimit="10" d="M154.5 222.5L235 142"/><path fill="#FF5722" stroke="#FF5722" stroke-width="3.573" stroke-miterlimit="10" d="M231.3 137.5h8.2v8.2h-8.2z"/><path fill="#FF5722" d="M81.6.5c-4 0-7.3 2.5-8.7 5.9 1.4 3.5 4.7 5.9 8.7 5.9 4 0 7.3-2.5 8.7-5.9C89 2.9 85.6.5 81.6.5zm0 9.8c-2.2 0-4-1.8-4-4s1.8-4 4-4 4 1.8 4 4c0 2.3-1.8 4-4 4zm0-6.3c-1.3 0-2.4 1.1-2.4 2.4 0 1.3 1.1 2.4 2.4 2.4C83 8.8 84 7.7 84 6.4 84 5.1 83 4 81.6 4z"/><path fill="none" stroke="#FF5722" stroke-width="3.143" stroke-miterlimit="10" d="M270.7-111.2l-160 160"/><path fill="#FF5722" d="M101.7 51.2l-1.7 1.7c-.6.6-.6 1.6 0 2.2l4.5 4.5c.6.6 1.6.6 2.2 0l1.7-1.7.6.6 3.4-3.3 1.7-5 1.7-1.7-4.5-4.5-1.7 1.7-5 1.7-3.4 3.3.5.5zm3.9 7.2l-4.5-4.5 1.7-1.7 1.1 1.1-1.1 1.1.6.6 1.1-1.1 1.1 1.1-1.1 1.1.6.6 1.1-1.1 1.1 1.1-1.7 1.7z"/><path fill="none" stroke="#FF5722" stroke-width="3.143" stroke-miterlimit="10" d="M172.5 91.2l63.7-63.8"/><path fill="#FF5722" d="M230.2 56.9h6.9l2.8 2.8V50c0-.4-.3-.7-.7-.7h-9c-.4 0-.7.3-.7.7v6.2c0 .3.3.7.7.7zM204.4 8.5V2.3c0-.4-.3-.7-.7-.7h-9c-.4 0-.7.3-.7.7V12l2.8-2.8h6.9c.4 0 .7-.3.7-.7zM11.2 108.9v-6.2c0-.4-.3-.7-.7-.7h-9c-.4 0-.7.3-.7.7v9.7l2.8-2.8h6.9c.4 0 .7-.3.7-.7z"/><path fill="none" stroke="#FF5722" stroke-width="3.143" stroke-miterlimit="10" d="M-4.7 67.6l38.8-38.8c4.1-4.1 10.6-4.1 14.7 0s4.1 10.6 0 14.7L35.7 56.6"/><path fill="none" stroke="#FF5722" stroke-width="3.143" stroke-miterlimit="10" d="M99.1 22.6L51.6 70.1c-4.1 4.1-10.6 4.1-14.7 0s-4.1-10.6 0-14.7l1.6-1.6"/><path fill="#FF5722" d="M100.6 21.2c-1-1-2.5-1-3.5 0s-1 2.5 0 3.5 2.5 1 3.5 0 1-2.6 0-3.5z"/><path fill="#FF5722" d="M104.1 17.7c-2.9-2.9-7.5-2.9-10.4 0-1.3 1.3-2 3-2.1 4.7H94c.1-1.1.6-2.1 1.4-2.9 1.9-1.9 5-1.9 6.9 0 1.9 1.9 1.9 5 0 6.9-1 1-2.2 1.4-3.5 1.4v2.5c1.9 0 3.8-.7 5.2-2.1 2.9-3 2.9-7.6.1-10.5z"/><path fill="#FF5722" d="M107.5 14.2c-4.8-4.8-12.5-4.8-17.3 0-2.3 2.3-3.4 5.2-3.6 8.1H89c.1-2.3 1.1-4.6 2.8-6.4 3.8-3.8 10-3.8 13.9 0 3.8 3.8 3.8 10 0 13.9-1.9 1.9-4.4 2.9-6.9 2.9v2.5c3.1 0 6.3-1.2 8.7-3.6 4.8-4.8 4.8-12.6 0-17.4z"/><path fill="none" stroke="#FF5722" stroke-width="3.143" stroke-miterlimit="10" d="M225.5 25.5c3.4 3.4 9.1 3.1 12.9-.6M237.8 37.7c-3.4-3.4-3.1-9.1.6-12.9"/><path fill="none" stroke="#FF5722" stroke-width="3.165" stroke-miterlimit="10" d="M164.1 63.5l26.5-26.6M56.4 142.6l20.5-21.5M138.9 74.3l26.5-26.6M171.9 45.1c0 1.9-1.5 3.4-3.4 3.4s-3.4-1.5-3.4-3.4 1.5-3.4 3.4-3.4 3.4 1.5 3.4 3.4zM58.9 76.5L6.6 128.9"/><path fill="#FFF" stroke="#FF5722" stroke-width="3.165" stroke-miterlimit="10" d="M2.1 125.1h8.3v8.3H2.1zM183.5 148.1h8.3v8.3h-8.3zM83.8 50.3h8.3v8.3h-8.3zM186 50.3h8.3v8.3H186zM133.7 104.8h8.3v8.3h-8.3z"/><path fill="none" stroke="#FF5722" stroke-width="3.165" stroke-miterlimit="10" d="M227.7 91.5l-75.8 75.8c-4.1 4.1-10.8 4.1-15 0-4.1-4.1-4.1-10.8 0-15l13.4-13.4"/><path fill="none" stroke="#FF5722" stroke-width="3.165" stroke-miterlimit="10" d="M82 177.3l52.1-52.1c4.1-4.1 10.8-4.1 15 0 4.1 4.1 4.1 10.8 0 15l-1.7 1.7M13 167l-32.8-32.8M-20.6 143.1c2.7-2.7 2.4-7.2-.5-10.1M-10.9 133.4c-2.7 2.7-7.2 2.4-10.1-.5M26.5 153.4L7.3 172.7a8.39 8.39 0 0 0 0 11.9c3.3 3.3 8.6 3.3 11.9 0 3.3-3.3 3.3-8.6 0-11.9l-5.9-5.9M14.4 165.5l53.8-53.9M126.9 94.4L5.2 216.1M16.1 218.1c-3.4-3.4-9.3-3.2-13.1.6M3.6 205.7c3.4 3.4 3.2 9.3-.6 13.1M200-131.8L57.3 10.9"/><circle fill="none" stroke="#FF5722" stroke-width="3.165" stroke-miterlimit="10" cx="54.7" cy="13.7" r="4.8"/><path fill="#FF5722" stroke="#FF5722" stroke-width="3.598" stroke-miterlimit="10" d="M6.4 2C8 2.3 9 3.8 8.8 5.4 8.5 7 7 8.1 5.4 7.8 3.8 7.6 2.7 6.1 3 4.5 3.2 2.9 4.8 1.8 6.4 2z"/><path fill="#FF5722" stroke="#FF5722" stroke-width="2.292" stroke-miterlimit="10" d="M56.3 138.1c3.2.5 5.4 3.6 4.8 6.8-.5 3.2-3.6 5.4-6.8 4.8-3.2-.5-5.4-3.6-4.8-6.8.6-3.2 3.6-5.3 6.8-4.8z"/><path fill="#FF5722" stroke="#FF5722" stroke-width="3.598" stroke-miterlimit="10" d="M18.6 140c1.6.3 2.7 1.8 2.4 3.4-.3 1.6-1.8 2.7-3.4 2.4-1.6-.3-2.7-1.8-2.4-3.4.3-1.6 1.8-2.7 3.4-2.4zM140.5 131c1.6.3 2.7 1.8 2.4 3.4-.3 1.6-1.8 2.7-3.4 2.4-1.6-.3-2.7-1.8-2.4-3.4.2-1.6 1.8-2.7 3.4-2.4z"/><path fill="none" stroke="#FF5722" stroke-width="2.292" stroke-miterlimit="10" d="M38.2 158c2.1.4 3.6 2.4 3.2 4.5-.4 2.1-2.4 3.6-4.5 3.2-2.1-.4-3.6-2.4-3.2-4.5.4-2.1 2.4-3.6 4.5-3.2z"/><path fill="#FF5722" d="M215 140.7l-5.4-5.4c-.6-.6-1.6-.6-2.2 0l-.5.5-1.1-1.1c-1.5-1.5-3.9-1.5-5.4 0-1.5 1.5-1.5 3.9 0 5.4l1.1 1.1-.5.5c-.6.6-.6 1.6 0 2.2l5.4 5.4c.6.6 1.6.6 2.2 0l3.2-3.2 3.2-3.2c.6-.7.6-1.7 0-2.2zm-12.5-.5l-1.1-1.1c-.9-.9-.9-2.4 0-3.3.9-.9 2.4-.9 3.3 0l1.1 1.1-1.7 1.7-1.6 1.6zm6.5 3.1c-.6.6-1.6.6-2.2 0-.6-.6-.6-1.6 0-2.2.6-.6 1.6-.6 2.2 0 .6.7.6 1.7 0 2.2zM74.1 35l-5.4-5.4c-.6-.6-1.6-.6-2.2 0l-.5.6-1-1.1c-1.5-1.5-3.9-1.5-5.4 0-1.5 1.5-1.5 3.9 0 5.4l1.1 1.1-.5.5c-.6.6-.6 1.6 0 2.2l5.4 5.4c.6.6 1.6.6 2.2 0l3.2-3.2 3.2-3.2c.5-.7.5-1.7-.1-2.3zm-12.4-.5l-1.1-1.1c-.9-.9-.9-2.4 0-3.3.9-.9 2.4-.9 3.3 0l1.1 1.1-1.7 1.7-1.6 1.6zm6.5 3.2c-.6.6-1.6.6-2.2 0-.6-.6-.6-1.6 0-2.2.6-.6 1.6-.6 2.2 0 .6.7.6 1.6 0 2.2z"/><path fill="none" stroke="#FF5722" stroke-width="3.165" stroke-miterlimit="10" d="M79.9 174.1l5.9 5.9"/><path fill="#FF5722" d="M142.6 47.9c0-.6-.3-1.1-.7-1.3l-7-4.1-7 4.1c-.4.3-.7.8-.7 1.3v7.8c0 .9.7 1.6 1.6 1.6H141c.9 0 1.6-.7 1.6-1.6v-7.8z"/><path fill="#FFF" d="M134.8 52.8l-6.4-4 6.4-3.8 6.4 3.8z"/><path fill="#FF5722" stroke="#FF5722" stroke-width="3.165" stroke-miterlimit="10" d="M168.3 15.7L184 0"/><circle fill="#FF5722" cx="120.3" cy="120.1" r="2.2"/><circle fill="#FF5722" cx="114.2" cy="126.2" r="2.2"/><circle fill="#FF5722" cx="108.1" cy="132.7" r="2.2"/><circle fill="#FF5722" cx="102" cy="138.5" r="2.2"/><circle fill="none" stroke="#FF5722" stroke-width="2.637" stroke-miterlimit="10" cx="166" cy="18" r="3.2"/><circle fill="#FF5722" stroke="#FF5722" stroke-width="2.637" stroke-miterlimit="10" cx="170.2" cy="28.6" r="1.7"/><circle fill="#FF5722" stroke="#FF5722" stroke-width="2.637" stroke-miterlimit="10" cx="39.5" cy="37.7" r="1.7"/><circle fill="#FF5722" stroke="#FF5722" stroke-width="2.637" stroke-miterlimit="10" cx="237.9" cy="157" r="1.7"/><circle fill="#FF5722" stroke="#FF5722" stroke-width="2.637" stroke-miterlimit="10" cx="20.1" cy="104.8" r="1.7"/><circle fill="#FF5722" stroke="#FF5722" stroke-width="2.637" stroke-miterlimit="10" cx="73.5" cy="21.3" r="1.7"/><circle fill="#FF5722" stroke="#FF5722" stroke-width="2.637" stroke-miterlimit="10" cx="212" cy="31.2" r="1.7"/><circle fill="#FF5722" stroke="#FF5722" stroke-width="2.637" stroke-miterlimit="10" cx="222" cy="54.2" r="1.7"/><circle fill="#FF5722" stroke="#FF5722" stroke-width="2.637" stroke-miterlimit="10" cx="237.9" cy="15.8" r="1.7"/><circle fill="none" stroke="#FF5722" stroke-width="2.637" stroke-miterlimit="10" cx="156.9" cy="33.4" r="6.2"/><circle fill="none" stroke="#FF5722" stroke-width="2.637" stroke-miterlimit="10" cx="123.5" cy="8.8" r="6.2"/><circle fill="none" stroke="#FF5722" stroke-width="2.637" stroke-miterlimit="10" cx="42.6" cy="107.9" r="3.2"/><circle fill="none" stroke="#FF5722" stroke-width="2.637" stroke-miterlimit="10" cx="94.6" cy="147.1" r="3.2"/><circle fill="none" stroke="#FF5722" stroke-width="2.637" stroke-miterlimit="10" cx="34.5" cy="121.4" r="6.2"/><path fill="#FF5722" stroke="#FF5722" stroke-width="3.165" stroke-miterlimit="10" d="M214.8 126.8l25.8-25.8"/><path fill="#FF5722" stroke="#FF5722" stroke-width="3.598" stroke-miterlimit="10" d="M215.8 129c-1 .5-2.2.2-2.7-.8s-.2-2.2.8-2.7 2.2-.2 2.7.8.2 2.2-.8 2.7z"/><path fill="none" stroke="#FF5722" stroke-width="2.74" stroke-miterlimit="10" d="M163.7 127.8h13.6M170.5 104v23.8M159.5 109.2h22"/><path fill="#FF5722" d="M185.2 111.8l-3.6-3.6-3.6 3.6c-1 1-1.5 2.3-1.5 3.6 0 1.4.5 2.7 1.5 3.6 1 1 2.3 1.5 3.6 1.5 1.4 0 2.7-.5 3.6-1.5 2-1.9 2-5.2 0-7.2zm-3.7-1.2l2.4 2.4c.5.5.9 1.2 1 2h-6.8c.1-.7.4-1.4 1-2l2.4-2.4zM163.1 111.8l-3.6-3.6-3.6 3.6c-1 1-1.5 2.3-1.5 3.6 0 1.4.5 2.7 1.5 3.6 1 1 2.3 1.5 3.6 1.5 1.4 0 2.7-.5 3.6-1.5 2-1.9 2-5.2 0-7.2zm-3.6-1.2l2.4 2.4c.5.5.9 1.2 1 2h-6.8c.1-.7.4-1.4 1-2l2.4-2.4z"/><g fill="#FF5722"><path d="M220.58 9.213l-1.626-1.627 6.507-6.503 1.626 1.627zM223.823 12.394l-1.626-1.627L233.019-.048l1.625 1.626zM217.262 5.899l-1.626-1.627 3.252-3.253 1.627 1.626zM227.29 15.502l-1.627-1.626L239.308.227l1.627 1.626z"/></g><g fill="#FF5722"><path d="M76.755 111.03l-1.625-1.626 6.507-6.504 1.626 1.627zM80.07 114.282l-1.626-1.627 10.821-10.815 1.626 1.626zM73.508 107.793l-1.627-1.626 3.253-3.254 1.626 1.627zM83.536 117.397l-1.627-1.627 13.645-13.649 1.627 1.627z"/></g></g></svg>