<svg xmlns="http://www.w3.org/2000/svg" width="426.3" height="330.9" viewBox="0 0 426.3 330.9"><g fill="#00BCD4" opacity=".9"><path d="M126.6 70.9c19.6 0 35.5-15.9 35.5-35.4 0-19.6-15.9-35.4-35.5-35.4S91.2 15.9 91.2 35.5c0 19.5 15.8 35.4 35.4 35.4z"/><path d="M217.8 39.4c-19.6 0-35.4 15.9-35.4 35.4 0 12.1 6.1 22.8 15.3 29.2-18.8 20.4-46.9 58.9-64 128.9v-78.6H120v79c-17.1-70.5-45.4-109.1-64.2-129.5 9.1-6.4 15-17 15-29 0-19.5-15.9-35.4-35.4-35.4C15.8 39.4 0 55.3 0 74.8c0 19.6 15.8 35.4 35.4 35.4 2.4 0 4.7-.2 6.9-.7 24.1 25 69.8 84.6 77.6 220.1v.5h.1v.8l8.9-.3 4.7.3v-.4h.1v-.9c7.8-135.3 53.4-194.9 77.5-220 2.1.4 4.3.6 6.6.6 19.5 0 35.4-15.9 35.4-35.4.1-19.5-15.8-35.4-35.4-35.4z"/><path d="M126.6 81.9c-15.9 0-28.8 12.9-28.8 28.8s12.9 28.8 28.8 28.8 28.8-12.9 28.8-28.8-12.9-28.8-28.8-28.8z"/></g><g opacity=".3" fill="#BDBDBD"><path d="M246.2 266.8c27.6.2 57.7-3.5 67.3-8.1 9.6-4.7-6.2-8.6-35.2-8.8-29-.2-59.1 3.4-67.2 8.1-8.1 4.7 7.6 8.6 35.1 8.8z"/><path d="M391.9 260.1c-28.2-.2-59.2 3.4-69.1 8.1-6.2 2.9-3.2 5.4 6.2 7-36.2 4.7-92.5 13.7-147.2 30.3l36.2-18.8-18.2-.1-35.3 18.9c8.9-16.9-12.8-26.4-30.5-31.4 15-1.5 27.4-4 32.1-6.9 7.7-4.7-8.8-8.7-37-8.9-28.2-.2-56.2 3.5-62.5 8.3-6.3 4.8 10.2 8.7 37 8.9 3.2 0 6.5 0 9.7-.1 23.2 6.2 58.4 20.7 8 53.2-.1 0-.2.1-.2.1h.1c-.1.1-.2.1-.3.2l10.3-.1 5.2.1c.1 0 .1-.1.2-.1h.1l.4-.2c72.3-32.3 161.4-46.2 207.3-52 2.7.1 5.6.2 8.6.2 26.7.1 57.7-3.5 69.1-8.1 11.6-4.5-2.1-8.4-30.2-8.6z"/><path d="M241.2 269.4c-22.2-.1-45.6 2.9-52.4 6.7-6.7 3.8 5 7 26.3 7.1 21.3.1 44.8-2.9 52.4-6.7 7.7-3.8-4.1-7-26.3-7.1z"/></g></svg>