<svg xmlns="http://www.w3.org/2000/svg" width="255" height="293.1" viewBox="0 0 255 293.1"><path opacity=".2" fill="#78909C" d="M172.5 258.4c-16.6 0-106.8-.3-99.6 17.1 2.8 6.7 28.5 11.9 38.2 12.5l20.5 5.2 20.5-5.2c29.3-1.9 80.9-7.6 80.9-14.5 0-8.4-21.2-15.1-60.5-15.1z"/><path fill="#34AEFF" d="M127.5 0C57.1 0 0 57.1 0 127.5c0 57.6 38.3 106.3 90.7 122.1l36.8 43.5 36.8-43.5c52.5-15.8 90.8-64.4 90.8-122.1C255 57.1 197.9 0 127.5 0z"/><g fill="#2E3D5A"><path d="M193.2 120.1l-39.4-.4.2-19.5 25.2.2 14 19.7zm-22.8 24.7c-1.9 1.8-3 4.4-3 7.2s1.1 5.4 2.9 7.2c1.8 1.9 4.4 3 7.2 3s5.4-1.1 7.2-2.9c1.9-1.8 3-4.4 3-7.2s-1.1-5.4-2.9-7.2c-1.8-1.9-4.4-3-7.2-3-2.8-.1-5.3 1.1-7.2 2.9zm34.4 12.2l5.7.1.2-19.3-5.7-.1.2-19.3-20.4-28.6-41.3-.4-.6 67 14.4.1c.9 3.8 2.8 7.3 5.5 10 3.7 3.8 8.9 6.2 14.7 6.2 5.8.1 11-2.2 14.8-6 2.7-2.7 4.7-6.1 5.6-9.9h2.7l4.2.2zM75.2 143.9c-1.9 1.8-3 4.4-3 7.2s1.1 5.4 2.9 7.2c1.8 1.9 4.4 3 7.2 3s5.4-1.1 7.2-2.9c1.9-1.8 3-4.4 3-7.2s-1.1-5.4-2.9-7.2c-1.8-1.9-4.4-3-7.2-3s-5.3 1.1-7.2 2.9zm61.6 12.5l-34.3-.3c-.9 3.8-2.9 7.2-5.6 9.9-3.8 3.7-9 6-14.8 6-5.7-.1-10.9-2.4-14.7-6.2-2.7-2.7-4.6-6.2-5.5-10l-6.6-.1v-.1l-5.4-.1.2-16.8h5.4l.5-56.1 81.4.7-.6 73.1z"/></g></svg>