<svg xmlns="http://www.w3.org/2000/svg" width="400" height="523" viewBox="0 0 400 523"><path fill="#FFF" d="M200.2 112c30.9 0 56-25.1 56-56s-25.1-56-56-56-56 25.1-56 56 25 56 56 56"/><path fill="#FFF" d="M344.4 62.3c-31 0-56 25.1-56 56 0 19.1 9.6 36 24.2 46.1-29.7 32.3-74.1 93.1-101.1 203.7V243.8h-21.7v125C162.7 257.4 118 196.4 88.2 164.1c14.4-10.1 23.8-26.9 23.8-45.8 0-30.9-25.1-56-56-56-31 0-56 25.1-56 56s25 56 56 56c3.8 0 7.4-.4 11-1.1 38.1 39.6 110.3 133.7 122.7 348 0 .2 0 .5-.1.7h.1c0 .4.1.8.1 1.2l14.1-.4 7.4.4v-.6h.1V521c12.3-214 84.4-308.1 122.5-347.7 3.4.6 6.8 1 10.4 1 30.9 0 56-25.1 56-56 .1-30.9-25-56-55.9-56"/><path fill="#FFF" d="M200.1 129.5c-25.1 0-45.5 20.4-45.5 45.5s20.3 45.5 45.5 45.5 45.6-20.4 45.6-45.5-20.4-45.5-45.6-45.5"/></svg>