<svg xmlns="http://www.w3.org/2000/svg" viewBox="0 0 976.54 356.1"><title>schedule-event1</title><g id="Layer_2" data-name="Layer 2"><g id="Layer_1-2" data-name="Layer 1"><rect x="255.48" y="59.78" width="301.08" height="69.69" style="fill:#3498db"/><path d="M265.71,112.82a4.23,4.23,0,0,1,.14-1.47,1.84,1.84,0,0,1,1.89-1.34,1.91,1.91,0,0,1,1.84,1.17.07.07,0,0,1,0,.1l-.68.33a.07.07,0,0,1-.1,0,1.07,1.07,0,0,0-1-.7,1,1,0,0,0-1,.72,8.07,8.07,0,0,0,0,2.48,1,1,0,0,0,1,.72,1.07,1.07,0,0,0,1-.7.07.07,0,0,1,.1,0l.68.33a.07.07,0,0,1,0,.1,1.91,1.91,0,0,1-1.84,1.17,1.83,1.83,0,0,1-1.89-1.33A4.23,4.23,0,0,1,265.71,112.82Z" style="fill:#fff"/><path d="M272.06,114.31a7.81,7.81,0,0,1,0-3,2.07,2.07,0,0,1,3.85,0,7.86,7.86,0,0,1,0,3,2.07,2.07,0,0,1-3.85,0Zm2.93-.25a8.09,8.09,0,0,0,0-2.49,1.07,1.07,0,0,0-2,0,8.17,8.17,0,0,0,0,2.49,1.07,1.07,0,0,0,2,0Z" style="fill:#fff"/><path d="M278.69,110.18a.08.08,0,0,1,.08-.08h.71a.13.13,0,0,1,.14.08l1.5,3.35h0l1.47-3.35a.13.13,0,0,1,.14-.08h.7a.07.07,0,0,1,.08.08v5.28a.08.08,0,0,1-.08.08h-.7a.08.08,0,0,1-.08-.08v-3.33h0l-1.15,2.56a.15.15,0,0,1-.15.1h-.46a.15.15,0,0,1-.15-.1l-1.15-2.56h0v3.33a.08.08,0,0,1-.08.08h-.7a.08.08,0,0,1-.08-.08Z" style="fill:#fff"/><path d="M286.42,115.54a.08.08,0,0,1-.08-.08v-5.28a.08.08,0,0,1,.08-.08h2a1.69,1.69,0,1,1,0,3.38h-1.13s0,0,0,0v1.93a.08.08,0,0,1-.08.08Zm2.89-3.75a.82.82,0,0,0-.9-.84h-1.07a0,0,0,0,0,0,0v1.58a0,0,0,0,0,0,0h1.07A.82.82,0,0,0,289.3,111.79Z" style="fill:#fff"/><path d="M292.7,114.31a7.91,7.91,0,0,1,0-3,2.07,2.07,0,0,1,3.85,0,7.86,7.86,0,0,1,0,3,2.07,2.07,0,0,1-3.85,0Zm2.94-.25a8.17,8.17,0,0,0,0-2.49,1.07,1.07,0,0,0-2,0,8.17,8.17,0,0,0,0,2.49,1.07,1.07,0,0,0,2,0Z" style="fill:#fff"/><path d="M299.34,110.18a.08.08,0,0,1,.08-.08h.74a.14.14,0,0,1,.14.08l2.21,3.75h0v-3.75a.08.08,0,0,1,.08-.08h.7a.08.08,0,0,1,.08.08v5.28a.08.08,0,0,1-.08.08h-.73a.14.14,0,0,1-.14-.08l-2.22-3.74h0v3.74a.08.08,0,0,1-.08.08h-.7a.08.08,0,0,1-.08-.08Z" style="fill:#fff"/><path d="M306.19,110.18a.08.08,0,0,1,.08-.08h3.41a.07.07,0,0,1,.08.08v.69a.07.07,0,0,1-.08.08h-2.49a0,0,0,0,0,0,0v1.33a0,0,0,0,0,0,0h2.1a.08.08,0,0,1,.08.08v.69a.08.08,0,0,1-.08.08h-2.1a0,0,0,0,0,0,0v1.38a0,0,0,0,0,0,0h2.49a.08.08,0,0,1,.08.08v.69a.08.08,0,0,1-.08.08h-3.41a.08.08,0,0,1-.08-.08Z" style="fill:#fff"/><path d="M312.35,110.18a.08.08,0,0,1,.08-.08h.74a.14.14,0,0,1,.14.08l2.21,3.75h0v-3.75a.07.07,0,0,1,.08-.08h.7a.08.08,0,0,1,.08.08v5.28a.08.08,0,0,1-.08.08h-.73a.14.14,0,0,1-.13-.08l-2.22-3.74h0v3.74a.08.08,0,0,1-.08.08h-.7a.08.08,0,0,1-.08-.08Z" style="fill:#fff"/><path d="M320.42,115.54a.08.08,0,0,1-.08-.08V111a0,0,0,0,0,0,0h-1.42a.08.08,0,0,1-.08-.08v-.69a.08.08,0,0,1,.08-.08h3.89a.08.08,0,0,1,.08.08v.69a.08.08,0,0,1-.08.08h-1.42a0,0,0,0,0,0,0v4.46a.08.08,0,0,1-.08.08Z" style="fill:#fff"/><path d="M328.61,110.18a.08.08,0,0,1,.08-.08h3.41a.07.07,0,0,1,.08.08v.69a.07.07,0,0,1-.08.08H329.6a0,0,0,0,0,0,0v1.38a0,0,0,0,0,0,0h2.1a.08.08,0,0,1,.08.08v.69a.08.08,0,0,1-.08.08h-2.1a0,0,0,0,0,0,0v2.13a.08.08,0,0,1-.08.08h-.78a.08.08,0,0,1-.08-.08Z" style="fill:#fff"/><path d="M335.58,110.18a.1.1,0,0,1,.1-.08h.74a.1.1,0,0,1,.1.08l1.84,5.28s0,.08-.06.08h-.78a.1.1,0,0,1-.1-.08l-.36-1.06h-2l-.36,1.06a.1.1,0,0,1-.1.08h-.78c-.05,0-.07,0-.05-.08Zm1.19,3.38-.72-2.11h0l-.73,2.11Z" style="fill:#fff"/><path d="M340.7,110.18a.08.08,0,0,1,.08-.08h.78a.07.07,0,0,1,.08.08v5.28a.08.08,0,0,1-.08.08h-.78a.08.08,0,0,1-.08-.08Z" style="fill:#fff"/><path d="M344.45,110.18a.08.08,0,0,1,.08-.08h.78a.07.07,0,0,1,.08.08v4.46a0,0,0,0,0,0,0h2.49a.08.08,0,0,1,.08.08v.69a.08.08,0,0,1-.08.08h-3.41a.08.08,0,0,1-.08-.08Z" style="fill:#fff"/><path d="M353.25,113.61v-3.43a.08.08,0,0,1,.08-.08h.78a.07.07,0,0,1,.08.08v3.45a2,2,0,0,1-4,0v-3.45a.08.08,0,0,1,.08-.08H351a.07.07,0,0,1,.08.08v3.43a1.06,1.06,0,1,0,2.12,0Z" style="fill:#fff"/><path d="M360,115.54a.11.11,0,0,1-.12-.08l-1-2.12H358a0,0,0,0,0,0,0v2.07a.08.08,0,0,1-.08.08H357a.08.08,0,0,1-.08-.08v-5.28a.08.08,0,0,1,.08-.08h2.1a1.62,1.62,0,0,1,1.73,1.62,1.55,1.55,0,0,1-1,1.5l1.14,2.21a.06.06,0,0,1-.06.1Zm-.1-3.81a.76.76,0,0,0-.83-.78H358a0,0,0,0,0,0,0v1.45a0,0,0,0,0,0,0h1.16A.76.76,0,0,0,359.94,111.72Z" style="fill:#fff"/><path d="M363.51,110.18a.08.08,0,0,1,.08-.08H367a.08.08,0,0,1,.08.08v.69a.08.08,0,0,1-.08.08h-2.49a0,0,0,0,0,0,0v1.33a0,0,0,0,0,0,0h2.1a.08.08,0,0,1,.08.08v.69a.08.08,0,0,1-.08.08h-2.1s0,0,0,0v1.38s0,0,0,0H367a.08.08,0,0,1,.08.08v.69a.08.08,0,0,1-.08.08h-3.41a.08.08,0,0,1-.08-.08Z" style="fill:#fff"/><path d="M373,112.91a5.58,5.58,0,0,1,1-3.21.16.16,0,0,1,.14-.08h.39s.07,0,0,.08a7.31,7.31,0,0,0,0,6.43s0,.08,0,.08h-.39a.16.16,0,0,1-.14-.08A5.56,5.56,0,0,1,373,112.91Z" style="fill:#fff"/><path d="M377.18,115.54a.08.08,0,0,1-.08-.08v-5.28a.08.08,0,0,1,.08-.08h2a1.69,1.69,0,1,1,0,3.38H378.1s0,0,0,0v1.93a.08.08,0,0,1-.08.08Zm2.89-3.75a.82.82,0,0,0-.9-.84H378.1a0,0,0,0,0,0,0v1.58a0,0,0,0,0,0,0h1.07A.82.82,0,0,0,380.07,111.79Z" style="fill:#fff"/><path d="M383.2,114.9a.09.09,0,0,1,0-.12l.5-.58a.07.07,0,0,1,.11,0,2.43,2.43,0,0,0,1.48.58c.65,0,1-.33,1-.78s-.24-.65-1-.75l-.29,0c-1-.14-1.64-.65-1.64-1.55a1.64,1.64,0,0,1,1.84-1.64,3,3,0,0,1,1.76.54.07.07,0,0,1,0,.11l-.38.59a.08.08,0,0,1-.11,0,2.3,2.3,0,0,0-1.3-.42c-.55,0-.86.3-.86.73s.26.63,1,.74l.29,0c1,.14,1.62.64,1.62,1.58s-.7,1.69-2,1.69A3.06,3.06,0,0,1,383.2,114.9Z" style="fill:#fff"/><path d="M390.26,112.91a7.39,7.39,0,0,0-.74-3.21s0-.08,0-.08H390a.16.16,0,0,1,.14.08,5.56,5.56,0,0,1,0,6.43.16.16,0,0,1-.14.08h-.39s-.07,0,0-.08A7.41,7.41,0,0,0,390.26,112.91Z" style="fill:#fff"/><path d="M270.12,85.24a.23.23,0,0,1,.22-.18H271c.13,0,.18.07.22.18l4.25,11.88a.12.12,0,0,1-.13.18h-.7a.2.2,0,0,1-.23-.18l-1.08-3H268l-1.08,3c-.05.14-.12.18-.23.18H266a.12.12,0,0,1-.13-.18ZM273,93.13l-2.29-6.41h-.05l-2.3,6.41Z" style="fill:#fff"/><path d="M289,97.31a.17.17,0,0,1-.18-.18V92c0-1.71-.77-2.57-2.27-2.57a2.24,2.24,0,0,0-2.32,2.39v5.26a.17.17,0,0,1-.18.18h-.61a.17.17,0,0,1-.18-.18V92c0-1.71-.76-2.57-2.25-2.57a2.25,2.25,0,0,0-2.34,2.39v5.26a.17.17,0,0,1-.18.18h-.61a.17.17,0,0,1-.18-.18V88.9a.17.17,0,0,1,.18-.18h.61a.17.17,0,0,1,.18.18v1h0a2.7,2.7,0,0,1,2.54-1.39,2.62,2.62,0,0,1,2.67,1.6h0a2.93,2.93,0,0,1,2.83-1.6c1.95,0,3.06,1.19,3.06,3.28v5.31a.17.17,0,0,1-.18.18Z" style="fill:#fff"/><path d="M292.63,95.22a7.11,7.11,0,0,1-.25-2.21,7.33,7.33,0,0,1,.25-2.23,3.4,3.4,0,0,1,6.39,0,6.8,6.8,0,0,1,.25,2.29.18.18,0,0,1-.2.18h-5.6c-.07,0-.11.05-.11.13a4.66,4.66,0,0,0,.18,1.51A2.37,2.37,0,0,0,296,96.55a2.94,2.94,0,0,0,2.4-1.1.16.16,0,0,1,.25,0l.41.38a.16.16,0,0,1,0,.25,3.79,3.79,0,0,1-3.13,1.44A3.18,3.18,0,0,1,292.63,95.22Zm5.54-2.81a.1.1,0,0,0,.11-.11,4,4,0,0,0-.16-1.24,2.44,2.44,0,0,0-4.59,0,4,4,0,0,0-.16,1.24.1.1,0,0,0,.11.11Z" style="fill:#fff"/><path d="M302.17,97.31a.17.17,0,0,1-.18-.18V88.9a.17.17,0,0,1,.18-.18h.61a.17.17,0,0,1,.18.18V90h0a2.3,2.3,0,0,1,2.3-1.46,2.68,2.68,0,0,1,1.73.59.14.14,0,0,1,0,.23l-.36.5a.19.19,0,0,1-.27,0,2.47,2.47,0,0,0-1.37-.43c-1.51,0-2.09,1.31-2.09,2.9v4.75a.17.17,0,0,1-.18.18Z" style="fill:#fff"/><path d="M309.21,86.43a.17.17,0,0,1-.18-.18v-1a.17.17,0,0,1,.18-.18H310a.17.17,0,0,1,.18.18v1a.17.17,0,0,1-.18.18Zm.09,10.88a.17.17,0,0,1-.18-.18V88.9a.17.17,0,0,1,.18-.18h.61a.17.17,0,0,1,.18.18v8.23a.17.17,0,0,1-.18.18Z" style="fill:#fff"/><path d="M313.1,90.77a3.41,3.41,0,0,1,6.1-.61.16.16,0,0,1-.05.23l-.5.32a.16.16,0,0,1-.23-.07,2.24,2.24,0,0,0-2.11-1.17,2.2,2.2,0,0,0-2.25,1.62,5.86,5.86,0,0,0-.23,1.93,5.73,5.73,0,0,0,.23,1.91,2.2,2.2,0,0,0,2.25,1.62,2.24,2.24,0,0,0,2.11-1.17.16.16,0,0,1,.23-.07l.5.32a.16.16,0,0,1,.05.23,3.41,3.41,0,0,1-6.1-.61,7.54,7.54,0,0,1-.27-2.23A7.68,7.68,0,0,1,313.1,90.77Z" style="fill:#fff"/><path d="M322.33,90.09a.18.18,0,0,1-.27,0l-.31-.45a.18.18,0,0,1,.05-.25,4.13,4.13,0,0,1,2.74-.83c2.23,0,3.13.74,3.13,2.84v5.74a.17.17,0,0,1-.18.18h-.58a.17.17,0,0,1-.18-.18v-.9h0a2.77,2.77,0,0,1-2.67,1.26c-1.73,0-2.88-.86-2.88-2.54s1.17-2.54,3.26-2.54h2.18a.1.1,0,0,0,.11-.11v-.88c0-1.4-.49-2-2.23-2A3.12,3.12,0,0,0,322.33,90.09Zm4.39,4.57V93.35a.1.1,0,0,0-.11-.11h-2.05c-1.71,0-2.43.56-2.43,1.69s.76,1.66,2.12,1.66S326.73,95.83,326.73,94.66Z" style="fill:#fff"/><path d="M336.63,97.31a.17.17,0,0,1-.18-.18V92c0-1.71-.76-2.57-2.25-2.57a2.25,2.25,0,0,0-2.34,2.39v5.26a.17.17,0,0,1-.18.18h-.61a.17.17,0,0,1-.18-.18V88.9a.17.17,0,0,1,.18-.18h.61a.17.17,0,0,1,.18.18v1h0a2.7,2.7,0,0,1,2.54-1.39c1.91,0,3,1.19,3,3.28v5.31a.17.17,0,0,1-.18.18Z" style="fill:#fff"/><path d="M345.26,97.31a.17.17,0,0,1-.18-.18V85.24a.17.17,0,0,1,.18-.18h4.09c2.34,0,3.76,1.33,3.76,3.48S351.69,92,349.35,92h-3.13a.1.1,0,0,0-.11.11v5a.17.17,0,0,1-.18.18Zm6.82-8.77c0-1.57-1-2.5-2.77-2.5h-3.1a.1.1,0,0,0-.11.11v4.77a.1.1,0,0,0,.11.11h3.1C351.12,91,352.09,90.11,352.09,88.54Z" style="fill:#fff"/><path d="M355.76,97.31a.17.17,0,0,1-.18-.18V88.9a.17.17,0,0,1,.18-.18h.61a.17.17,0,0,1,.18.18V90h0a2.3,2.3,0,0,1,2.3-1.46,2.68,2.68,0,0,1,1.73.59.14.14,0,0,1,0,.23l-.36.5a.19.19,0,0,1-.27,0,2.47,2.47,0,0,0-1.37-.43c-1.51,0-2.09,1.31-2.09,2.9v4.75a.17.17,0,0,1-.18.18Z" style="fill:#fff"/><path d="M362.09,95.25a8.87,8.87,0,0,1,0-4.48,3.43,3.43,0,0,1,6.43,0,8.87,8.87,0,0,1,0,4.48,3.43,3.43,0,0,1-6.43,0Zm5.49-.31a5.84,5.84,0,0,0,.23-1.95,5.78,5.78,0,0,0-.23-1.93,2.42,2.42,0,0,0-4.56,0A5.78,5.78,0,0,0,362.8,93a5.85,5.85,0,0,0,.23,1.95,2.42,2.42,0,0,0,4.56,0Z" style="fill:#fff"/><path d="M371.72,100.55a.17.17,0,0,1-.18-.18V88.9a.17.17,0,0,1,.18-.18h.61a.17.17,0,0,1,.18.18v1h0a2.65,2.65,0,0,1,2.61-1.4,2.77,2.77,0,0,1,2.92,2.05,9.71,9.71,0,0,1,0,4.84,2.77,2.77,0,0,1-2.92,2.05,2.65,2.65,0,0,1-2.61-1.4h0v4.29a.17.17,0,0,1-.18.18ZM377.14,95a8.87,8.87,0,0,0,0-4.05,2.35,2.35,0,0,0-4.39,0,6.39,6.39,0,0,0-.23,2,6.25,6.25,0,0,0,.23,2,2.35,2.35,0,0,0,4.39,0Z" style="fill:#fff"/><path d="M380.78,95.22a7.1,7.1,0,0,1-.25-2.21,7.32,7.32,0,0,1,.25-2.23,3.4,3.4,0,0,1,6.39,0,6.8,6.8,0,0,1,.25,2.29.18.18,0,0,1-.2.18h-5.6c-.07,0-.11.05-.11.13a4.63,4.63,0,0,0,.18,1.51,2.37,2.37,0,0,0,2.43,1.67,2.93,2.93,0,0,0,2.39-1.1.16.16,0,0,1,.25,0l.41.38a.16.16,0,0,1,0,.25,3.79,3.79,0,0,1-3.13,1.44A3.17,3.17,0,0,1,380.78,95.22Zm5.54-2.81a.1.1,0,0,0,.11-.11,4,4,0,0,0-.16-1.24,2.44,2.44,0,0,0-4.59,0,4,4,0,0,0-.16,1.24.1.1,0,0,0,.11.11Z" style="fill:#fff"/><path d="M390.32,97.31a.17.17,0,0,1-.18-.18V88.9a.17.17,0,0,1,.18-.18h.61a.17.17,0,0,1,.18.18V90h0a2.3,2.3,0,0,1,2.3-1.46,2.68,2.68,0,0,1,1.73.59.14.14,0,0,1,0,.23l-.36.5a.19.19,0,0,1-.27,0,2.47,2.47,0,0,0-1.37-.43c-1.51,0-2.09,1.31-2.09,2.9v4.75a.17.17,0,0,1-.18.18Z" style="fill:#fff"/><path d="M399.73,97.36c-1.62,0-2.23-.63-2.23-2.32V89.69a.1.1,0,0,0-.11-.11h-.9a.17.17,0,0,1-.18-.18v-.5a.17.17,0,0,1,.18-.18h.9a.1.1,0,0,0,.11-.11V86.14a.17.17,0,0,1,.18-.18h.61a.17.17,0,0,1,.18.18v2.47a.1.1,0,0,0,.11.11h1.62a.17.17,0,0,1,.18.18v.5a.17.17,0,0,1-.18.18h-1.62a.1.1,0,0,0-.11.11V95c0,1.15.4,1.44,1.39,1.44h.34a.17.17,0,0,1,.18.18v.58a.17.17,0,0,1-.18.18Z" style="fill:#fff"/><path d="M402.68,100.55a.17.17,0,0,1-.18-.18v-.58a.17.17,0,0,1,.18-.18H403c.74,0,1.13-.31,1.62-1.6l.34-.88L401.8,88.9c0-.11,0-.18.13-.18h.68c.13,0,.18.05.23.18l2.61,6.9h0L408,88.9a.21.21,0,0,1,.22-.18h.68a.12.12,0,0,1,.13.18l-3.51,9.24c-.74,2-1.35,2.41-2.47,2.41Z" style="fill:#fff"/><path d="M415.73,85.24a.17.17,0,0,1,.18-.18h.68a.27.27,0,0,1,.27.18l4,8.77h.07l3.89-8.77a.26.26,0,0,1,.25-.18h.7a.17.17,0,0,1,.18.18V97.13a.17.17,0,0,1-.18.18h-.67a.17.17,0,0,1-.18-.18V87.55h-.05l-3.53,7.76a.3.3,0,0,1-.32.2h-.36a.29.29,0,0,1-.31-.2l-3.53-7.76h-.05v9.58a.17.17,0,0,1-.18.18h-.67a.17.17,0,0,1-.18-.18Z" style="fill:#fff"/><path d="M430,90.09a.18.18,0,0,1-.27,0l-.31-.45a.18.18,0,0,1,.05-.25,4.14,4.14,0,0,1,2.74-.83c2.23,0,3.13.74,3.13,2.84v5.74a.17.17,0,0,1-.18.18h-.58a.17.17,0,0,1-.18-.18v-.9h0a2.77,2.77,0,0,1-2.66,1.26c-1.73,0-2.88-.86-2.88-2.54s1.17-2.54,3.26-2.54h2.18a.1.1,0,0,0,.11-.11v-.88c0-1.4-.49-2-2.23-2A3.12,3.12,0,0,0,430,90.09Zm4.39,4.57V93.35a.1.1,0,0,0-.11-.11H432.2c-1.71,0-2.43.56-2.43,1.69s.76,1.66,2.12,1.66S434.36,95.83,434.36,94.66Z" style="fill:#fff"/><path d="M444.26,97.31a.17.17,0,0,1-.18-.18V92c0-1.71-.76-2.57-2.25-2.57a2.25,2.25,0,0,0-2.34,2.39v5.26a.17.17,0,0,1-.18.18h-.61a.17.17,0,0,1-.18-.18V88.9a.17.17,0,0,1,.18-.18h.61a.17.17,0,0,1,.18.18v1h0A2.7,2.7,0,0,1,442,88.54c1.91,0,3,1.19,3,3.28v5.31a.17.17,0,0,1-.18.18Z" style="fill:#fff"/><path d="M448.94,90.09a.18.18,0,0,1-.27,0l-.31-.45a.18.18,0,0,1,.05-.25,4.13,4.13,0,0,1,2.74-.83c2.23,0,3.13.74,3.13,2.84v5.74a.17.17,0,0,1-.18.18h-.58a.17.17,0,0,1-.18-.18v-.9h0a2.77,2.77,0,0,1-2.67,1.26c-1.73,0-2.88-.86-2.88-2.54S449,92.41,451,92.41h2.18a.1.1,0,0,0,.11-.11v-.88c0-1.4-.49-2-2.23-2A3.12,3.12,0,0,0,448.94,90.09Zm4.39,4.57V93.35a.1.1,0,0,0-.11-.11h-2.05c-1.71,0-2.43.56-2.43,1.69s.76,1.66,2.12,1.66S453.34,95.83,453.34,94.66Z" style="fill:#fff"/><path d="M457.29,99.49a.18.18,0,0,1,0-.25l.45-.4a.16.16,0,0,1,.25,0,2.72,2.72,0,0,0,2.13.92c1.53,0,2.45-.76,2.45-2.61V95.94h0a2.5,2.5,0,0,1-2.54,1.4,2.81,2.81,0,0,1-2.86-2.05,9.65,9.65,0,0,1,0-4.68A2.82,2.82,0,0,1,460,88.54a2.5,2.5,0,0,1,2.54,1.4h0v-1a.17.17,0,0,1,.18-.18h.61a.17.17,0,0,1,.18.18v8.25c0,2.39-1.3,3.58-3.44,3.58A3.52,3.52,0,0,1,457.29,99.49Zm5.1-4.57a9,9,0,0,0,0-3.93,2.07,2.07,0,0,0-2.14-1.51A2.05,2.05,0,0,0,458.14,91a5.86,5.86,0,0,0-.25,2,5.75,5.75,0,0,0,.25,2,2,2,0,0,0,2.11,1.51A2.09,2.09,0,0,0,462.39,94.91Z" style="fill:#fff"/><path d="M466.56,95.22a7.11,7.11,0,0,1-.25-2.21,7.33,7.33,0,0,1,.25-2.23,3.4,3.4,0,0,1,6.39,0,6.83,6.83,0,0,1,.25,2.29.18.18,0,0,1-.2.18h-5.6c-.07,0-.11.05-.11.13a4.66,4.66,0,0,0,.18,1.51,2.37,2.37,0,0,0,2.43,1.67,2.93,2.93,0,0,0,2.39-1.1.16.16,0,0,1,.25,0l.41.38a.16.16,0,0,1,0,.25,3.79,3.79,0,0,1-3.13,1.44A3.17,3.17,0,0,1,466.56,95.22Zm5.55-2.81a.1.1,0,0,0,.11-.11,4,4,0,0,0-.16-1.24,2.44,2.44,0,0,0-4.59,0,4,4,0,0,0-.16,1.24.1.1,0,0,0,.11.11Z" style="fill:#fff"/><path d="M487.23,97.31a.17.17,0,0,1-.18-.18V92c0-1.71-.77-2.57-2.27-2.57a2.24,2.24,0,0,0-2.32,2.39v5.26a.17.17,0,0,1-.18.18h-.61a.17.17,0,0,1-.18-.18V92c0-1.71-.76-2.57-2.25-2.57a2.25,2.25,0,0,0-2.34,2.39v5.26a.17.17,0,0,1-.18.18h-.61a.17.17,0,0,1-.18-.18V88.9a.17.17,0,0,1,.18-.18h.61a.17.17,0,0,1,.18.18v1h0a2.7,2.7,0,0,1,2.54-1.39,2.62,2.62,0,0,1,2.67,1.6h0a2.93,2.93,0,0,1,2.83-1.6c1.94,0,3.06,1.19,3.06,3.28v5.31a.17.17,0,0,1-.18.18Z" style="fill:#fff"/><path d="M490.9,95.22a7.11,7.11,0,0,1-.25-2.21,7.33,7.33,0,0,1,.25-2.23,3.4,3.4,0,0,1,6.39,0,6.83,6.83,0,0,1,.25,2.29.18.18,0,0,1-.2.18h-5.6c-.07,0-.11.05-.11.13a4.69,4.69,0,0,0,.18,1.51,2.37,2.37,0,0,0,2.43,1.67,2.93,2.93,0,0,0,2.39-1.1.16.16,0,0,1,.25,0l.41.38a.16.16,0,0,1,0,.25,3.79,3.79,0,0,1-3.13,1.44A3.18,3.18,0,0,1,490.9,95.22Zm5.55-2.81a.1.1,0,0,0,.11-.11,4,4,0,0,0-.16-1.24,2.44,2.44,0,0,0-4.59,0,4,4,0,0,0-.16,1.24.1.1,0,0,0,.11.11Z" style="fill:#fff"/><path d="M506,97.31a.17.17,0,0,1-.18-.18V92c0-1.71-.76-2.57-2.25-2.57a2.25,2.25,0,0,0-2.34,2.39v5.26a.17.17,0,0,1-.18.18h-.61a.17.17,0,0,1-.18-.18V88.9a.17.17,0,0,1,.18-.18h.61a.17.17,0,0,1,.18.18v1h0a2.7,2.7,0,0,1,2.54-1.39c1.91,0,3,1.19,3,3.28v5.31a.17.17,0,0,1-.18.18Z" style="fill:#fff"/><path d="M512.46,97.36c-1.62,0-2.23-.63-2.23-2.32V89.69a.1.1,0,0,0-.11-.11h-.9a.17.17,0,0,1-.18-.18v-.5a.17.17,0,0,1,.18-.18h.9a.09.09,0,0,0,.11-.11V86.14a.17.17,0,0,1,.18-.18H511a.17.17,0,0,1,.18.18v2.47a.1.1,0,0,0,.11.11h1.62a.17.17,0,0,1,.18.18v.5a.17.17,0,0,1-.18.18h-1.62a.1.1,0,0,0-.11.11V95c0,1.15.4,1.44,1.39,1.44h.34a.17.17,0,0,1,.18.18v.58a.17.17,0,0,1-.18.18Z" style="fill:#fff"/><rect x="265.27" y="71.68" width="90.69" height="3.21" style="fill:#2e3d5a"/><rect x="355.96" y="71.68" width="90.69" height="3.21" style="fill:#28aadd"/><g id="drive-form"><path d="M546.51,67.61H535.56A1.57,1.57,0,0,0,534,69.17V80.12a1.57,1.57,0,0,0,1.56,1.56h10.95a1.57,1.57,0,0,0,1.56-1.56V69.17A1.57,1.57,0,0,0,546.51,67.61Zm-7.82,10.95h-1.56V77h1.56Zm0-3.13h-1.56V73.87h1.56Zm0-3.13h-1.56V70.74h1.56Zm6.26,6.25h-5.47V77h5.47Zm0-3.13h-5.47V73.87h5.47Zm0-3.13h-5.47V70.74h5.47Z" style="fill:#2e3d5a"/></g><rect width="976.54" height="356.1" style="fill:none"/></g></g></svg>