<svg xmlns="http://www.w3.org/2000/svg" viewBox="0 0 677.34 583.8"><title>tracking</title><polygon points="176.04 167.255 186.93 179.295 186.93 179.287 176.04 167.255" style="fill:#3498db"/><rect x="186.93" y="198.715" width="314.37" height="251.07" style="fill:#3498db"/><polygon points="186.93 155.223 176.04 167.255 186.93 155.225 186.93 155.223" style="fill:#2e3d5a"/><polygon points="186.93 134.015 186.93 155.223 186.93 155.225 176.04 167.255 186.93 179.287 186.93 179.295 186.93 198.715 501.3 198.715 501.3 134.015 186.93 134.015" style="fill:#2e3d5a"/><path d="M256.55,243.935a.17.17,0,0,1,.159-.18h7.021a.17.17,0,0,1,.18.159.166.166,0,0,1,0,.021v.61a.17.17,0,0,1-.159.18H257.73a.1.1,0,0,0-.11.089.1.1,0,0,0,0,.021v4.48a.1.1,0,0,0,.089.11h5.221a.17.17,0,0,1,.18.159.166.166,0,0,1,0,.021v.61a.17.17,0,0,1-.159.18H257.73a.1.1,0,0,0-.11.089.1.1,0,0,0,0,.021v5.31a.17.17,0,0,1-.159.18h-.691a.17.17,0,0,1-.18-.159.166.166,0,0,1,0-.021Zm9.7,4.84a.18.18,0,0,1-.254.016l-.016-.016-.31-.45a.18.18,0,0,1,.05-.25h0a4.14,4.14,0,0,1,2.74-.83c2.23,0,3.13.74,3.13,2.84v5.74a.17.17,0,0,1-.159.18h-.6a.17.17,0,0,1-.18-.159.166.166,0,0,1,0-.021v-.9a2.77,2.77,0,0,1-2.66,1.26c-1.73,0-2.88-.86-2.88-2.54s1.17-2.54,3.26-2.54h2.18a.1.1,0,0,0,.11-.089.1.1,0,0,0,0-.021v-.88c0-1.4-.49-2-2.23-2a3.13,3.13,0,0,0-2.18.66Zm4.39,4.57v-1.31a.1.1,0,0,0-.089-.11H268.48c-1.71,0-2.43.56-2.43,1.69s.76,1.66,2.12,1.66,2.48-.75,2.48-1.88Zm5.15,1.43v1a.17.17,0,0,1-.159.18H275a.17.17,0,0,1-.18-.159.166.166,0,0,1,0-.021v-11.84a.17.17,0,0,1,.159-.18h.631a.17.17,0,0,1,.18.159.166.166,0,0,1,0,.021v4.7a2.65,2.65,0,0,1,2.61-1.4,2.77,2.77,0,0,1,2.92,2.05,9.75,9.75,0,0,1,0,4.84,2.77,2.77,0,0,1-2.92,2.05,2.65,2.65,0,0,1-2.61-1.4Zm4.61-1a8.91,8.91,0,0,0,0-4.05,2.35,2.35,0,0,0-4.39,0,6.38,6.38,0,0,0-.23,2,6.259,6.259,0,0,0,.23,2,2.35,2.35,0,0,0,4.39,0Zm4.05-8.65a.17.17,0,0,1-.18-.159.166.166,0,0,1,0-.021v-1a.17.17,0,0,1,.159-.18h.811a.17.17,0,0,1,.18.159.166.166,0,0,1,0,.021v1a.17.17,0,0,1-.159.18h-.811Zm.09,10.88a.17.17,0,0,1-.18-.159.166.166,0,0,1,0-.021V247.6a.17.17,0,0,1,.159-.18h.631a.17.17,0,0,1,.18.159.166.166,0,0,1,0,.021v8.23a.17.17,0,0,1-.159.18h-.631Zm3.79-2.06a8.87,8.87,0,0,1,0-4.48,3.43,3.43,0,0,1,6.43,0,8.87,8.87,0,0,1,0,4.48,3.43,3.43,0,0,1-6.43,0Zm5.49-.31a8.11,8.11,0,0,0,0-3.87,2.42,2.42,0,0,0-4.55,0,8.11,8.11,0,0,0,0,3.87,2.42,2.42,0,0,0,4.55,0Zm8.45-9.7a.17.17,0,0,1,.159-.18h7.021a.17.17,0,0,1,.18.159.166.166,0,0,1,0,.021v.61a.17.17,0,0,1-.159.18H303.45a.1.1,0,0,0-.11.089.1.1,0,0,0,0,.021v4.48a.1.1,0,0,0,.089.11h5.221a.17.17,0,0,1,.18.159.166.166,0,0,1,0,.021v.61a.17.17,0,0,1-.159.18H303.45a.1.1,0,0,0-.11.089.1.1,0,0,0,0,.021v5.31a.17.17,0,0,1-.159.18h-.691a.17.17,0,0,1-.18-.159.166.166,0,0,1,0-.021Zm9.06,9.98a7.11,7.11,0,0,1-.25-2.21,7.33,7.33,0,0,1,.25-2.23,3.4,3.4,0,0,1,6.39,0,6.8,6.8,0,0,1,.25,2.29.18.18,0,0,1-.179.181H312.17c-.07,0-.11.05-.11.13a4.66,4.66,0,0,0,.18,1.51,2.37,2.37,0,0,0,2.43,1.67,2.93,2.93,0,0,0,2.4-1.1.16.16,0,0,1,.25,0l.41.38a.16.16,0,0,1,0,.25,3.79,3.79,0,0,1-3.13,1.44,3.18,3.18,0,0,1-3.27-2.31Zm5.55-2.81a.09.09,0,0,0,.11-.11,4,4,0,0,0-.16-1.24,2.44,2.44,0,0,0-4.59,0,4,4,0,0,0-.16,1.24.1.1,0,0,0,.089.11h4.711Zm3.95,4.89a.17.17,0,0,1-.18-.159.166.166,0,0,1,0-.021V247.6a.17.17,0,0,1,.159-.18h.631a.17.17,0,0,1,.18.159.166.166,0,0,1,0,.021v1.1a2.3,2.3,0,0,1,2.3-1.46,2.67,2.67,0,0,1,1.73.59.14.14,0,0,1,0,.23l-.36.5a.2.2,0,0,1-.27,0,2.47,2.47,0,0,0-1.37-.43c-1.51,0-2.09,1.31-2.09,2.9v4.75a.17.17,0,0,1-.159.18h-.021Zm7.13,0a.17.17,0,0,1-.18-.159.166.166,0,0,1,0-.021V247.6a.17.17,0,0,1,.159-.18h.631a.17.17,0,0,1,.18.159.166.166,0,0,1,0,.021v1.1a2.3,2.3,0,0,1,2.3-1.46,2.67,2.67,0,0,1,1.73.59.14.14,0,0,1,0,.23l-.36.5a.2.2,0,0,1-.27,0,2.47,2.47,0,0,0-1.37-.43c-1.51,0-2.09,1.31-2.09,2.9v4.75a.17.17,0,0,1-.159.18h-.021Zm6.3-2.08a7.11,7.11,0,0,1-.25-2.21,7.33,7.33,0,0,1,.25-2.23,3.4,3.4,0,0,1,6.39,0,6.8,6.8,0,0,1,.25,2.29.18.18,0,0,1-.179.181H335.1c-.07,0-.11.05-.11.13a4.66,4.66,0,0,0,.18,1.51,2.37,2.37,0,0,0,2.43,1.67,2.93,2.93,0,0,0,2.4-1.1.16.16,0,0,1,.25,0l.41.38a.16.16,0,0,1,0,.25,3.79,3.79,0,0,1-3.13,1.44,3.18,3.18,0,0,1-3.27-2.31Zm5.55-2.81a.09.09,0,0,0,.11-.11,4,4,0,0,0-.16-1.24,2.44,2.44,0,0,0-4.59,0,4,4,0,0,0-.16,1.24.1.1,0,0,0,.089.11h4.711ZM343.8,256a.17.17,0,0,1-.18-.159.166.166,0,0,1,0-.021V247.6a.17.17,0,0,1,.159-.18h.631a.17.17,0,0,1,.18.159.166.166,0,0,1,0,.021v1.1a2.3,2.3,0,0,1,2.3-1.46,2.67,2.67,0,0,1,1.73.59.14.14,0,0,1,0,.23l-.36.5a.19.19,0,0,1-.269,0h0a2.47,2.47,0,0,0-1.37-.43c-1.51,0-2.09,1.31-2.09,2.9v4.75a.17.17,0,0,1-.159.18h-.021Zm7.2-7.22a.18.18,0,0,1-.254.016l-.016-.016-.31-.45a.18.18,0,0,1,.05-.25h0a4.14,4.14,0,0,1,2.74-.83c2.23,0,3.13.74,3.13,2.84v5.74a.17.17,0,0,1-.159.18h-.6a.17.17,0,0,1-.18-.159.166.166,0,0,1,0-.021v-.9a2.77,2.77,0,0,1-2.66,1.26c-1.73,0-2.88-.86-2.88-2.54s1.17-2.54,3.26-2.54h2.21a.1.1,0,0,0,.11-.089.1.1,0,0,0,0-.021v-.88c0-1.4-.49-2-2.23-2a3.13,3.13,0,0,0-2.21.66Zm4.39,4.57v-1.31a.1.1,0,0,0-.089-.11H353.23c-1.71,0-2.43.56-2.43,1.69s.76,1.66,2.12,1.66,2.47-.75,2.47-1.88Zm-100.22-22.2a.09.09,0,0,1,0-.12l.5-.58a.07.07,0,0,1,.1-.012l.012.012a2.44,2.44,0,0,0,1.48.58c.65,0,1-.33,1-.78s-.24-.65-1-.75h-.29c-1-.14-1.64-.65-1.64-1.55a1.64,1.64,0,0,1,1.84-1.64,3,3,0,0,1,1.76.54.07.07,0,0,1,.012.1l-.012.012-.38.59a.08.08,0,0,1-.11,0,2.3,2.3,0,0,0-1.3-.42c-.55,0-.86.3-.86.73s.26.63,1,.74h.29c1,.14,1.62.64,1.62,1.58s-.7,1.69-2,1.69a3.06,3.06,0,0,1-2.02-.72Zm6.43-2.08a4.2,4.2,0,0,1,.14-1.47,1.83,1.83,0,0,1,1.89-1.34,1.91,1.91,0,0,1,1.84,1.17.07.07,0,0,1,0,.1h0l-.68.33a.07.07,0,0,1-.1,0h0a1.07,1.07,0,0,0-1-.7,1,1,0,0,0-1,.72,8.07,8.07,0,0,0,0,2.48,1,1,0,0,0,1,.72,1.07,1.07,0,0,0,1-.7.07.07,0,0,1,.1,0h0l.68.33a.07.07,0,0,1,0,.1h0a1.91,1.91,0,0,1-1.84,1.17,1.83,1.83,0,0,1-1.89-1.33,4.2,4.2,0,0,1-.14-1.58Zm6.36-2.67a.08.08,0,0,1,.08-.08h.78a.07.07,0,0,1,.08.08v2.14h2.07V226.4a.08.08,0,0,1,.08-.08h.78a.07.07,0,0,1,.08.08v5.28a.08.08,0,0,1-.08.08h-.78a.08.08,0,0,1-.08-.08v-2.19H268.9v2.19a.08.08,0,0,1-.08.08h-.78a.08.08,0,0,1-.08-.08Zm6.85,0a.08.08,0,0,1,.08-.08h3.44a.07.07,0,0,1,.08.08v.69a.07.07,0,0,1-.08.08h-2.5v1.33h2.1a.08.08,0,0,1,.08.08v.82a.08.08,0,0,1-.08.08h-2.1v1.38h2.5a.08.08,0,0,1,.08.08v.69a.08.08,0,0,1-.08.08h-3.41a.08.08,0,0,1-.08-.08Zm6.16,0a.08.08,0,0,1,.08-.08h1.94a1.72,1.72,0,0,1,1.81,1.21,8.48,8.48,0,0,1,0,3,1.72,1.72,0,0,1-1.81,1.21h-1.94a.08.08,0,0,1-.08-.08Zm1,4.51h.81a1,1,0,0,0,1.13-.69,3.76,3.76,0,0,0,.1-1.18,3.71,3.71,0,0,0-.1-1.18,1,1,0,0,0-1.13-.69h-.81v3.65l-.01.12Zm8.63-1.05V226.4a.08.08,0,0,1,.08-.08h.78a.08.08,0,0,1,.08.08v3.45a2,2,0,0,1-4,0V226.4a.08.08,0,0,1,.08-.08h.78a.08.08,0,0,1,.08.08v3.43a1.06,1.06,0,0,0,2.12,0v.026Zm3.73-3.46a.08.08,0,0,1,.08-.08h.78a.08.08,0,0,1,.08.08v4.46h2.5a.08.08,0,0,1,.08.08v.69a.08.08,0,0,1-.08.08h-3.41a.08.08,0,0,1-.08-.08Zm5.95,0a.08.08,0,0,1,.08-.08h3.41a.07.07,0,0,1,.08.08v.69a.07.07,0,0,1-.08.08h-2.5v1.33h2.06a.08.08,0,0,1,.08.08v.82a.08.08,0,0,1-.08.08h-2.1v1.38h2.5a.08.08,0,0,1,.08.08v.69a.08.08,0,0,1-.08.08h-3.4a.08.08,0,0,1-.08-.08Zm6.16,0a.08.08,0,0,1,.08-.08h1.94a1.72,1.72,0,0,1,1.81,1.21,8.48,8.48,0,0,1,0,3,1.72,1.72,0,0,1-1.81,1.21h-1.94a.08.08,0,0,1-.08-.08Zm1,4.51h.81a1,1,0,0,0,1.13-.69,3.76,3.76,0,0,0,.1-1.18,3.71,3.71,0,0,0-.1-1.18,1,1,0,0,0-1.13-.69h-.81v3.65l-.01.12Z" style="fill:#fff"/><path d="M237.13,228.585l-6.89-.06v-3.41h4.41l2.45,3.43Zm-4,4.32a1.78,1.78,0,1,0,1.26-.51A1.78,1.78,0,0,0,233.13,232.905Zm6,2.15h1v-3.38h-1v-3.37l-3.57-5-7.22-.07-.01,11.72h2.51a3.64,3.64,0,0,0,7.09.07h1.23Zm-22.64-2.3a1.78,1.78,0,1,0,1.26-.51A1.78,1.78,0,0,0,216.49,232.755Zm10.78,2.19-6-.06a3.64,3.64,0,0,1-7.09-.06h-2.09V231.9h.94l.09-9.8,14.24.13Z" style="fill:#fff"/><path d="M225.75,286.285a11.38,11.38,0,1,0,11.38,11.38A11.38,11.38,0,0,0,225.75,286.285Zm0,20.49a9.11,9.11,0,1,1,9.11-9.11h0A9.13,9.13,0,0,1,225.75,306.775Z" style="fill:#fff;fill-opacity:0.8999999761581421"/><path d="M226.32,291.975h-1.71v6.83l5.92,3.65.91-1.48-5.12-3.08v-5.92" style="fill:#fff;fill-opacity:0.8999999761581421"/><path d="M256.84,294.725l-.83.58h-.09v-.82a.13.13,0,0,1,.06-.11l.87-.63a.21.21,0,0,1,.14,0h.68a.08.08,0,0,1,.08.08v5.28a.08.08,0,0,1-.08.08h-.74a.08.08,0,0,1-.08-.08Zm4.72,3.24.68-.17a.08.08,0,0,1,.1.055v0a.74.74,0,0,0,.75.52.67.67,0,0,0,.67-.45,1.65,1.65,0,0,0,.07-.6,1.75,1.75,0,0,0-.07-.6.65.65,0,0,0-.68-.45.7.7,0,0,0-.66.38c0,.06,0,.08-.1.08h-.67a.08.08,0,0,1-.08-.08v-2.93a.08.08,0,0,1,.08-.08h2.89a.08.08,0,0,1,.08.08v.67a.08.08,0,0,1-.08.08h-2.1v1.22a1.31,1.31,0,0,1,.8-.24,1.36,1.36,0,0,1,1.4.92,2.94,2.94,0,0,1,.12.93,2.76,2.76,0,0,1-.11.86,1.53,1.53,0,0,1-1.54,1,1.48,1.48,0,0,1-1.59-1.12.09.09,0,0,1,.04-.08Zm5.77-1.57a5.93,5.93,0,0,1,.11-1.74,1.47,1.47,0,0,1,1.54-1.06,1.49,1.49,0,0,1,1.55,1.06,13.579,13.579,0,0,1,0,3.49,1.49,1.49,0,0,1-1.55,1.06,1.47,1.47,0,0,1-1.54-1.06A5.92,5.92,0,0,1,267.33,296.4Zm1.66,2a.65.65,0,0,0,.67-.43,17.2,17.2,0,0,0,0-3.15.65.65,0,0,0-.67-.43.64.64,0,0,0-.66.43,17.2,17.2,0,0,0,0,3.15.64.64,0,0,0,.7.43Zm7.93-4.66a.08.08,0,0,1,.08-.08h.71a.13.13,0,0,1,.14.08l1.5,3.35,1.47-3.35a.13.13,0,0,1,.14-.08h.7a.08.08,0,0,1,.08.08v5.28a.08.08,0,0,1-.08.08h-.7a.08.08,0,0,1-.08-.08v-3.33l-1.15,2.56a.15.15,0,0,1-.15.1h-.46a.15.15,0,0,1-.15-.1l-1.15-2.56v3.33a.08.08,0,0,1-.08.08h-.7a.08.08,0,0,1-.08-.08Zm7.65,0a.08.08,0,0,1,.08-.08h.78a.08.08,0,0,1,.08.08v5.28a.08.08,0,0,1-.08.08h-.78a.08.08,0,0,1-.08-.08Zm3.76,0a.08.08,0,0,1,.08-.08h.74a.14.14,0,0,1,.14.08l2.21,3.75v-3.75a.08.08,0,0,1,.08-.08h.7a.08.08,0,0,1,.08.08v5.28a.08.08,0,0,1-.08.08h-.73a.14.14,0,0,1-.14-.08l-2.22-3.74v3.74a.08.08,0,0,1-.08.08h-.7a.08.08,0,0,1-.08-.08Zm9.87,3.43v-3.43a.08.08,0,0,1,.08-.08h.78a.07.07,0,0,1,.08.08v3.45a2,2,0,0,1-4,0v-3.45a.07.07,0,0,1,.08-.08H296a.08.08,0,0,1,.08.08v3.43a1.06,1.06,0,1,0,2.12,0v0Zm4.92,1.93a.08.08,0,0,1-.08-.08v-4.46h-1.42a.08.08,0,0,1-.08-.08v-.69a.08.08,0,0,1,.08-.08h3.89a.08.08,0,0,1,.08.08v.61a.08.08,0,0,1-.08.08h-1.48v4.46a.08.08,0,0,1-.08.08Zm4.8-5.36a.08.08,0,0,1,.08-.08h3.41a.07.07,0,0,1,.08.08v.66a.07.07,0,0,1-.08.08h-2.5v1.33h2.1a.08.08,0,0,1,.08.08v.69a.08.08,0,0,1-.08.08h-2.1v1.38h2.5a.08.08,0,0,1,.08.08v.69a.08.08,0,0,1-.08.08H308a.08.08,0,0,1-.08-.08Zm5.87,4.72a.09.09,0,0,1,0-.12l.5-.58a.07.07,0,0,1,.1-.012l.012.012a2.44,2.44,0,0,0,1.48.58c.65,0,1-.33,1-.78s-.24-.65-1-.75h-.29c-1-.14-1.64-.65-1.64-1.55a1.64,1.64,0,0,1,1.84-1.64,3,3,0,0,1,1.76.54.07.07,0,0,1,.012.1l-.012.012-.38.59a.08.08,0,0,1-.11,0,2.3,2.3,0,0,0-1.3-.42c-.55,0-.86.3-.86.73s.26.63,1,.74h.29c1,.14,1.62.64,1.62,1.58s-.7,1.69-2,1.69a3.06,3.06,0,0,1-2.02-.72Zm-54.3,15.1-2.21,1.57a.124.124,0,0,1-.2-.11v-.76a.3.3,0,0,1,.13-.27l2.22-1.59a.4.4,0,0,1,.27-.11h.58a.17.17,0,0,1,.18.159.166.166,0,0,1,0,.021v11.88a.17.17,0,0,1-.159.18h-.631a.17.17,0,0,1-.18-.159.166.166,0,0,1,0-.021Zm6.62,10.28a.33.33,0,0,1,.07-.23l4.52-5.92a4,4,0,0,0,1-2.4,2.22,2.22,0,0,0-2.37-2.29,2.25,2.25,0,0,0-2.34,2.11.17.17,0,0,1-.191.147l-.029-.007-.56-.14a.16.16,0,0,1-.145-.174l0-.026a3.17,3.17,0,0,1,3.28-2.84,3.11,3.11,0,0,1,3.287,2.923q.009.149,0,.3a4.83,4.83,0,0,1-1.24,3l-4,5.26h5.1a.17.17,0,0,1,.18.159.166.166,0,0,1,0,.021v.58a.17.17,0,0,1-.159.18H266.33a.17.17,0,0,1-.18-.159.166.166,0,0,1,0-.021Zm9.61-.74a.17.17,0,0,1,.159-.18h.9a.17.17,0,0,1,.18.159.166.166,0,0,1,0,.021v1.21a.17.17,0,0,1-.159.18h-.9a.17.17,0,0,1-.18-.159.166.166,0,0,1,0-.021Zm4.27.74a.33.33,0,0,1,.07-.23l4.52-5.92a4,4,0,0,0,1-2.4,2.22,2.22,0,0,0-2.145-2.292q-.1,0-.195,0a2.25,2.25,0,0,0-2.34,2.11.17.17,0,0,1-.191.147l-.029-.007-.56-.14a.16.16,0,0,1-.145-.174l0-.026a3.17,3.17,0,0,1,3.28-2.84,3.11,3.11,0,0,1,3.287,2.923q.009.149,0,.3a4.83,4.83,0,0,1-1.24,3l-4,5.26h5.1a.17.17,0,0,1,.18.159.166.166,0,0,1,0,.021v.58a.17.17,0,0,1-.159.18H280.2a.17.17,0,0,1-.18-.159.166.166,0,0,1,0-.021Zm9.63-5.44a14.64,14.64,0,0,1,.27-4.1,3.36,3.36,0,0,1,6.3,0,14.789,14.789,0,0,1,.27,4.1,14.961,14.961,0,0,1-.27,4.11,3.36,3.36,0,0,1-6.3,0A14.65,14.65,0,0,1,289.62,318.4Zm3.42,5.38a2.1,2.1,0,0,0,2.2-1.49,30.139,30.139,0,0,0,0-7.78,2.36,2.36,0,0,0-4.39,0,30.139,30.139,0,0,0,0,7.78,2.1,2.1,0,0,0,2.19,1.46Zm6.29-.68a.17.17,0,0,1,.159-.18h.9a.17.17,0,0,1,.18.159.166.166,0,0,1,0,.021v1.21a.17.17,0,0,1-.159.18h-.9a.17.17,0,0,1-.18-.159.166.166,0,0,1,0-.021Zm4.29.74a.33.33,0,0,1,.07-.23l4.52-5.92a4,4,0,0,0,1-2.4,2.22,2.22,0,0,0-2.145-2.292q-.1,0-.195,0a2.25,2.25,0,0,0-2.34,2.11.17.17,0,0,1-.191.147l-.029-.007-.56-.14a.16.16,0,0,1-.145-.174l0-.026a3.17,3.17,0,0,1,3.28-2.84,3.11,3.11,0,0,1,3.287,2.923q.009.149,0,.3a4.83,4.83,0,0,1-1.24,3l-4,5.26h5.1a.17.17,0,0,1,.18.159.166.166,0,0,1,0,.021v.58a.17.17,0,0,1-.159.18H303.83a.17.17,0,0,1-.18-.159.166.166,0,0,1,0-.021Zm9.63-5.44a14.64,14.64,0,0,1,.27-4.1,3.36,3.36,0,0,1,6.3,0,14.789,14.789,0,0,1,.27,4.1,14.961,14.961,0,0,1-.27,4.11,3.36,3.36,0,0,1-6.3,0A14.65,14.65,0,0,1,313.25,318.4Zm3.42,5.38a2.1,2.1,0,0,0,2.2-1.49,30.139,30.139,0,0,0,0-7.78,2.36,2.36,0,0,0-4.39,0,30.139,30.139,0,0,0,0,7.78,2.1,2.1,0,0,0,2.19,1.46Zm9.6-10.22-2.21,1.57a.124.124,0,0,1-.2-.11v-.76a.3.3,0,0,1,.13-.27l2.27-1.64a.4.4,0,0,1,.27-.11h.58a.17.17,0,0,1,.18.159.166.166,0,0,1,0,.021V324.3a.17.17,0,0,1-.159.18H326.5a.17.17,0,0,1-.18-.159.166.166,0,0,1,0-.021Zm6.15,8.3v-.54a.739.739,0,0,1,0-.2l4-8.73a.22.22,0,0,1,.23-.14h.68c.13,0,.16.07.13.16l-3.94,8.68h3.81a.1.1,0,0,0,.11-.089.1.1,0,0,0,0-.021v-3.35a.17.17,0,0,1,.159-.18h.631a.17.17,0,0,1,.18.159.166.166,0,0,1,0,.021v3.35a.1.1,0,0,0,.089.11h1.371a.17.17,0,0,1,.18.159.166.166,0,0,1,0,.021v.58a.17.17,0,0,1-.159.18H338.52a.1.1,0,0,0-.11.089.1.1,0,0,0,0,.021v2.16a.17.17,0,0,1-.159.18h-.631a.17.17,0,0,1-.18-.159.166.166,0,0,1,0-.021v-2.16a.1.1,0,0,0-.089-.11H332.63a.17.17,0,0,1-.21-.17Zm17.97-8.3-2.21,1.57a.124.124,0,0,1-.2-.11v-.76a.3.3,0,0,1,.13-.27l2.22-1.59a.4.4,0,0,1,.27-.11h.58a.17.17,0,0,1,.18.159.166.166,0,0,1,0,.021v11.88a.17.17,0,0,1-.159.18h-.631a.17.17,0,0,1-.18-.159.166.166,0,0,1,0-.021Zm6.49,4.84a14.64,14.64,0,0,1,.27-4.1,3.36,3.36,0,0,1,6.3,0,14.789,14.789,0,0,1,.27,4.1,14.961,14.961,0,0,1-.27,4.11,3.36,3.36,0,0,1-6.3,0A14.65,14.65,0,0,1,356.88,318.4Zm3.42,5.38a2.1,2.1,0,0,0,2.2-1.49,30.139,30.139,0,0,0,0-7.78,2.36,2.36,0,0,0-4.39,0,30.139,30.139,0,0,0,0,7.78,2.1,2.1,0,0,0,2.22,1.46Zm6.39-6.48v-1.22a.17.17,0,0,1,.159-.18h.9a.17.17,0,0,1,.18.159.166.166,0,0,1,0,.021v1.22a.17.17,0,0,1-.159.18h-.9a.17.17,0,0,1-.18-.159A.166.166,0,0,1,366.69,317.3Zm0,5.8a.17.17,0,0,1,.159-.18h.9a.17.17,0,0,1,.18.159.166.166,0,0,1,0,.021v1.21a.17.17,0,0,1-.159.18h-.9a.17.17,0,0,1-.18-.159.166.166,0,0,1,0-.021Zm4.21-4.7a14.64,14.64,0,0,1,.27-4.1,3.36,3.36,0,0,1,6.3,0,14.789,14.789,0,0,1,.27,4.1,14.961,14.961,0,0,1-.27,4.11,3.36,3.36,0,0,1-6.3,0A14.65,14.65,0,0,1,370.9,318.4Zm3.42,5.38a2.1,2.1,0,0,0,2.2-1.49,30.139,30.139,0,0,0,0-7.78,2.36,2.36,0,0,0-4.39,0,30.139,30.139,0,0,0,0,7.78,2.1,2.1,0,0,0,2.2,1.46Zm6.34-5.38a14.791,14.791,0,0,1,.27-4.1,3.36,3.36,0,0,1,6.3,0,31.389,31.389,0,0,1,0,8.21,3.36,3.36,0,0,1-6.3,0A15.337,15.337,0,0,1,380.66,318.4Zm3.42,5.38a2.1,2.1,0,0,0,2.2-1.49,30,30,0,0,0,0-7.78,2.36,2.36,0,0,0-4.39,0,30.139,30.139,0,0,0,0,7.78,2.1,2.1,0,0,0,2.19,1.46ZM398.5,312.4a.23.23,0,0,1,.22-.18h.61c.13,0,.18.07.22.18l4.25,11.88a.12.12,0,0,1-.13.18h-.7a.2.2,0,0,1-.228-.167l0-.013-1.08-3h-5.33l-1.08,3a.226.226,0,0,1-.23.18h-.69a.12.12,0,0,1-.13-.18Zm2.84,7.89-2.29-6.41H399l-2.3,6.41Zm4.92-7.89a.17.17,0,0,1,.159-.18h.7a.27.27,0,0,1,.27.18l4,8.77h.07l3.87-8.77a.26.26,0,0,1,.25-.18h.7a.17.17,0,0,1,.18.159.166.166,0,0,1,0,.021v11.88a.17.17,0,0,1-.159.18h-.691a.17.17,0,0,1-.18-.159.166.166,0,0,1,0-.021V314.7h-.05l-3.53,7.76a.3.3,0,0,1-.32.2h-.36a.29.29,0,0,1-.31-.2l-3.53-7.73v9.58a.17.17,0,0,1-.159.18h-.691a.17.17,0,0,1-.18-.159.166.166,0,0,1,0-.021Zm-146.77,27.56-2.21,1.57a.124.124,0,0,1-.2-.11v-.76a.3.3,0,0,1,.13-.27l2.27-1.64a.4.4,0,0,1,.27-.11h.58a.17.17,0,0,1,.18.159.166.166,0,0,1,0,.021V350.7a.17.17,0,0,1-.159.18h-.631a.17.17,0,0,1-.18-.159.166.166,0,0,1,0-.021Zm6.62,10.28a.33.33,0,0,1,.07-.23l4.52-5.92a4,4,0,0,0,1-2.4,2.22,2.22,0,0,0-2.37-2.29,2.25,2.25,0,0,0-2.34,2.11.17.17,0,0,1-.191.147l-.029-.007-.56-.14a.16.16,0,0,1-.145-.174l0-.026a3.17,3.17,0,0,1,3.28-2.84,3.11,3.11,0,0,1,3.287,2.923q.009.149,0,.3a4.83,4.83,0,0,1-1.24,3l-4,5.26h5.1a.17.17,0,0,1,.18.159.166.166,0,0,1,0,.021v.58a.17.17,0,0,1-.159.18H266.33a.17.17,0,0,1-.18-.159.166.166,0,0,1,0-.021Zm9.61-.74a.17.17,0,0,1,.159-.18h.9a.17.17,0,0,1,.18.159.166.166,0,0,1,0,.021v1.21a.17.17,0,0,1-.159.18h-.9a.17.17,0,0,1-.18-.159.166.166,0,0,1,0-.021Zm4.27.74a.33.33,0,0,1,.07-.23l4.52-5.92a4,4,0,0,0,1-2.4,2.22,2.22,0,0,0-2.145-2.292q-.1,0-.195,0a2.25,2.25,0,0,0-2.34,2.11.17.17,0,0,1-.191.147l-.029-.007-.56-.14a.16.16,0,0,1-.145-.174l0-.026a3.17,3.17,0,0,1,3.28-2.84,3.11,3.11,0,0,1,3.287,2.923q.009.149,0,.3a4.83,4.83,0,0,1-1.24,3l-4,5.26h5.1a.17.17,0,0,1,.18.159.166.166,0,0,1,0,.021v.58a.17.17,0,0,1-.159.18H280.2a.17.17,0,0,1-.18-.159.166.166,0,0,1,0-.021Zm9.63-5.47a14.65,14.65,0,0,1,.27-4.11,3.36,3.36,0,0,1,6.3,0,31.418,31.418,0,0,1,0,8.22,3.36,3.36,0,0,1-6.3,0A14.64,14.64,0,0,1,289.62,344.765Zm3.42,5.38a2.1,2.1,0,0,0,2.2-1.49,30.139,30.139,0,0,0,0-7.78,2.36,2.36,0,0,0-4.39,0,30.139,30.139,0,0,0,0,7.78A2.1,2.1,0,0,0,293.04,350.145Zm6.29-.65a.17.17,0,0,1,.159-.18h.9a.17.17,0,0,1,.18.159.166.166,0,0,1,0,.021v1.21a.17.17,0,0,1-.159.18h-.9a.17.17,0,0,1-.18-.159.166.166,0,0,1,0-.021Zm4.29.74a.33.33,0,0,1,.07-.23l4.52-5.92a4,4,0,0,0,1-2.4,2.22,2.22,0,0,0-2.145-2.292q-.1,0-.195,0a2.25,2.25,0,0,0-2.34,2.11.17.17,0,0,1-.191.147l-.029-.007-.56-.14a.16.16,0,0,1-.145-.174l0-.026a3.17,3.17,0,0,1,3.28-2.84,3.11,3.11,0,0,1,3.287,2.923q.009.149,0,.3a4.83,4.83,0,0,1-1.24,3l-4,5.26h5.1a.17.17,0,0,1,.18.159.166.166,0,0,1,0,.021v.58a.17.17,0,0,1-.159.18H303.83a.17.17,0,0,1-.18-.159.166.166,0,0,1,0-.021Zm9.63-5.47a14.65,14.65,0,0,1,.27-4.11,3.36,3.36,0,0,1,6.3,0,31.418,31.418,0,0,1,0,8.22,3.36,3.36,0,0,1-6.3,0A14.64,14.64,0,0,1,313.25,344.765Zm3.42,5.38a2.1,2.1,0,0,0,2.2-1.49,30.139,30.139,0,0,0,0-7.78,2.36,2.36,0,0,0-4.39,0,30.139,30.139,0,0,0,0,7.78A2.1,2.1,0,0,0,316.67,350.145Zm9.6-10.19-2.21,1.57a.124.124,0,0,1-.2-.11v-.76a.3.3,0,0,1,.13-.27l2.27-1.64a.4.4,0,0,1,.27-.11h.58a.17.17,0,0,1,.18.159.166.166,0,0,1,0,.021V350.7a.17.17,0,0,1-.159.18H326.5a.17.17,0,0,1-.18-.159.166.166,0,0,1,0-.021Zm6.15,8.3v-.54a.739.739,0,0,1,0-.2l4-8.73a.22.22,0,0,1,.23-.14h.68c.13,0,.16.07.13.16l-3.94,8.68h3.81a.1.1,0,0,0,.11-.089.1.1,0,0,0,0-.021v-3.35a.17.17,0,0,1,.159-.18h.631a.17.17,0,0,1,.18.159.166.166,0,0,1,0,.021v3.37a.1.1,0,0,0,.089.11h1.371a.17.17,0,0,1,.18.159.166.166,0,0,1,0,.021v.58a.17.17,0,0,1-.159.18H338.52a.1.1,0,0,0-.11.089.1.1,0,0,0,0,.021v2.16a.17.17,0,0,1-.159.18h-.631a.17.17,0,0,1-.18-.159.166.166,0,0,1,0-.021v-2.16a.1.1,0,0,0-.11-.16h-4.7a.17.17,0,0,1-.207-.123l0-.017Zm17.97-8.3-2.21,1.57a.124.124,0,0,1-.2-.11v-.76a.3.3,0,0,1,.13-.27l2.27-1.64a.4.4,0,0,1,.27-.11h.58a.17.17,0,0,1,.18.159.166.166,0,0,1,0,.021V350.7a.17.17,0,0,1-.159.18h-.631a.17.17,0,0,1-.18-.159.166.166,0,0,1,0-.021Zm6.62,10.28a.33.33,0,0,1,.07-.23l4.52-5.92a4,4,0,0,0,1-2.4,2.22,2.22,0,0,0-2.145-2.292q-.1,0-.195,0a2.25,2.25,0,0,0-2.34,2.11.17.17,0,0,1-.191.147l-.029-.007-.56-.14a.16.16,0,0,1-.145-.174l0-.026a3.17,3.17,0,0,1,3.28-2.84,3.11,3.11,0,0,1,3.287,2.923q.009.149,0,.3a4.83,4.83,0,0,1-1.24,3l-4,5.26h5.1a.17.17,0,0,1,.18.159.166.166,0,0,1,0,.021v.58a.17.17,0,0,1-.159.18H357.22a.17.17,0,0,1-.18-.159.166.166,0,0,1,0-.021Zm9.68-6.53v-1.22a.17.17,0,0,1,.159-.18h.9a.17.17,0,0,1,.18.159.166.166,0,0,1,0,.021v1.22a.17.17,0,0,1-.159.18h-.9a.17.17,0,0,1-.18-.159A.166.166,0,0,1,366.69,343.705Zm0,5.8a.17.17,0,0,1,.159-.18h.9a.17.17,0,0,1,.18.159.166.166,0,0,1,0,.021v1.21a.17.17,0,0,1-.159.18h-.9a.17.17,0,0,1-.18-.159.166.166,0,0,1,0-.021Zm4.29-1.19.58-.14a.17.17,0,0,1,.23.13,2.43,2.43,0,0,0,2.52,1.84,2.39,2.39,0,0,0,2.5-2.54A2.48,2.48,0,0,0,374.466,345q-.118-.006-.236,0h-.56a.17.17,0,0,1-.18-.159.166.166,0,0,1,0-.021v-.58a.17.17,0,0,1,.159-.18h.561a2.23,2.23,0,0,0,2.32-2.36,2.15,2.15,0,0,0-2.3-2.29,2.19,2.19,0,0,0-2.3,1.76.16.16,0,0,1-.174.145l-.026,0-.59-.16a.17.17,0,0,1-.14-.22,3.1,3.1,0,0,1,3.26-2.47,3.18,3.18,0,0,1,1.64,6,3.26,3.26,0,0,1,1.89,3.1,3.34,3.34,0,0,1-3.162,3.509q-.159.008-.318,0a3.3,3.3,0,0,1-3.46-2.52.17.17,0,0,1,.13-.23Zm9.68-3.55a14.961,14.961,0,0,1,.27-4.11,3.36,3.36,0,0,1,6.3,0,31.4,31.4,0,0,1,0,8.21,3.36,3.36,0,0,1-6.3,0A15.038,15.038,0,0,1,380.66,344.765Zm3.42,5.38a2.1,2.1,0,0,0,2.2-1.49,30,30,0,0,0,0-7.78,2.36,2.36,0,0,0-4.39,0,30.139,30.139,0,0,0,0,7.78A2.1,2.1,0,0,0,384.08,350.145Zm11.45.74a.17.17,0,0,1-.18-.159.166.166,0,0,1,0-.021v-11.88a.17.17,0,0,1,.159-.18h4.111c2.34,0,3.76,1.33,3.76,3.47s-1.42,3.46-3.76,3.46h-3.13a.1.1,0,0,0-.11.089.1.1,0,0,0,0,.021v5a.17.17,0,0,1-.159.18H396.2Zm6.82-8.77c0-1.57-1-2.5-2.77-2.5h-3.1a.1.1,0,0,0-.11.089.1.1,0,0,0,0,.021v4.77a.1.1,0,0,0,.089.11h3.121c1.8,0,2.75-.92,2.75-2.49Zm3.71-3.29a.17.17,0,0,1,.159-.18h.7a.27.27,0,0,1,.27.18l4,8.77h.07l3.89-8.77a.26.26,0,0,1,.25-.18h.7a.17.17,0,0,1,.18.159.166.166,0,0,1,0,.021v11.88a.17.17,0,0,1-.159.18h-.691a.17.17,0,0,1-.18-.159.166.166,0,0,1,0-.021v-9.58h-.05l-3.53,7.76a.3.3,0,0,1-.32.2h-.36a.29.29,0,0,1-.31-.2l-3.53-7.76h-.05v9.58a.17.17,0,0,1-.159.18h-.691a.17.17,0,0,1-.18-.159.166.166,0,0,1,0-.021Zm-146.57,60.8-2.21,1.57a.124.124,0,0,1-.2-.11v-.76a.3.3,0,0,1,.13-.27l2.22-1.66a.4.4,0,0,1,.27-.11h.58a.17.17,0,0,1,.18.159.166.166,0,0,1,0,.021V410.4a.17.17,0,0,1-.159.18h-.631a.17.17,0,0,1-.18-.159.166.166,0,0,1,0-.021Zm6.62,10.28a.33.33,0,0,1,.07-.23l4.52-5.92a4,4,0,0,0,1-2.4,2.22,2.22,0,0,0-2.145-2.292q-.1,0-.195,0a2.25,2.25,0,0,0-2.34,2.11.17.17,0,0,1-.191.147l-.029-.007-.56-.14A.16.16,0,0,1,266.1,401l0-.026a3.17,3.17,0,0,1,3.28-2.84,3.11,3.11,0,0,1,3.287,2.923q.009.149,0,.3a4.83,4.83,0,0,1-1.24,3l-4,5.26h5.1a.17.17,0,0,1,.18.159.166.166,0,0,1,0,.021v.6a.17.17,0,0,1-.159.18H266.33a.17.17,0,0,1-.18-.159.166.166,0,0,1,0-.021Zm9.61-.74a.17.17,0,0,1,.159-.18h.9a.17.17,0,0,1,.18.159.166.166,0,0,1,0,.021v1.23a.17.17,0,0,1-.159.18h-.9a.17.17,0,0,1-.18-.159.166.166,0,0,1,0-.021Zm7.4-9.54-2.21,1.57a.124.124,0,0,1-.2-.11v-.76a.3.3,0,0,1,.13-.27l2.27-1.64a.4.4,0,0,1,.27-.11h.58a.17.17,0,0,1,.18.159.166.166,0,0,1,0,.021V410.4a.17.17,0,0,1-.159.18h-.651a.17.17,0,0,1-.18-.159.166.166,0,0,1,0-.021Zm6.57,8.35.58-.14a.17.17,0,0,1,.23.13,2.43,2.43,0,0,0,2.52,1.84,2.39,2.39,0,0,0,2.5-2.54,2.48,2.48,0,0,0-2.344-2.609q-.118-.006-.236,0h-.56a.17.17,0,0,1-.18-.159.166.166,0,0,1,0-.021v-.58a.17.17,0,0,1,.159-.18h.561a2.23,2.23,0,0,0,2.32-2.36,2.15,2.15,0,0,0-2.3-2.29,2.19,2.19,0,0,0-2.3,1.76.16.16,0,0,1-.174.145l-.026,0-.59-.16a.17.17,0,0,1-.14-.22,3.1,3.1,0,0,1,3.26-2.47,3.18,3.18,0,0,1,1.64,6,3.26,3.26,0,0,1,1.89,3.1,3.34,3.34,0,0,1-3.162,3.509q-.159.008-.318,0a3.3,3.3,0,0,1-3.46-2.52.17.17,0,0,1,.13-.23Zm9.64,1.19a.17.17,0,0,1,.159-.18h.9a.17.17,0,0,1,.18.159.166.166,0,0,1,0,.021v1.23a.17.17,0,0,1-.159.18h-.9a.17.17,0,0,1-.18-.159.166.166,0,0,1,0-.021Zm4.29.74a.33.33,0,0,1,.07-.23l4.52-5.92a4,4,0,0,0,1-2.4,2.22,2.22,0,0,0-2.145-2.292q-.1,0-.195,0a2.25,2.25,0,0,0-2.34,2.11.17.17,0,0,1-.191.147l-.029-.007-.56-.14a.16.16,0,0,1-.145-.174l0-.026a3.17,3.17,0,0,1,3.28-2.84,3.11,3.11,0,0,1,3.287,2.923q.009.149,0,.3a4.83,4.83,0,0,1-1.24,3l-4,5.26h5.1a.17.17,0,0,1,.18.159.166.166,0,0,1,0,.021v.6a.17.17,0,0,1-.159.18H303.83a.17.17,0,0,1-.18-.159.166.166,0,0,1,0-.021Zm9.63-5.51a14.64,14.64,0,0,1,.27-4.1,3.36,3.36,0,0,1,6.3,0,14.789,14.789,0,0,1,.27,4.1,14.961,14.961,0,0,1-.27,4.11,3.36,3.36,0,0,1-6.3,0A14.65,14.65,0,0,1,313.25,404.4Zm3.42,5.38a2.1,2.1,0,0,0,2.2-1.49,30.139,30.139,0,0,0,0-7.78,2.36,2.36,0,0,0-4.39,0,30.139,30.139,0,0,0,0,7.78,2.1,2.1,0,0,0,2.19,1.53Zm9.6-10.15-2.21,1.57a.124.124,0,0,1-.2-.11v-.76a.3.3,0,0,1,.13-.27l2.27-1.64a.4.4,0,0,1,.27-.11h.58a.17.17,0,0,1,.18.159.166.166,0,0,1,0,.021V410.4a.17.17,0,0,1-.159.18H326.5a.17.17,0,0,1-.18-.159.166.166,0,0,1,0-.021Zm6.15,8.3v-.53a.739.739,0,0,1,0-.2l4-8.73a.22.22,0,0,1,.23-.14h.68c.13,0,.16.07.13.16l-3.94,8.68h3.81a.1.1,0,0,0,.11-.089.1.1,0,0,0,0-.021V403.7a.17.17,0,0,1,.159-.18h.631a.17.17,0,0,1,.18.159.166.166,0,0,1,0,.021v3.35a.1.1,0,0,0,.089.11h1.371a.17.17,0,0,1,.18.159.166.166,0,0,1,0,.021v.58a.17.17,0,0,1-.159.18H338.52a.1.1,0,0,0-.11.089.1.1,0,0,0,0,.021v2.18a.17.17,0,0,1-.159.18h-.631a.17.17,0,0,1-.18-.159.166.166,0,0,1,0-.021v-2.16a.1.1,0,0,0-.089-.11H332.63a.17.17,0,0,1-.21-.2Zm17.97-8.3-2.21,1.57a.124.124,0,0,1-.2-.11v-.76a.3.3,0,0,1,.13-.27l2.22-1.66a.4.4,0,0,1,.27-.11h.58a.17.17,0,0,1,.18.159.166.166,0,0,1,0,.021V410.4a.17.17,0,0,1-.159.18h-.631a.17.17,0,0,1-.18-.159.166.166,0,0,1,0-.021Zm6.49,4.77a14.64,14.64,0,0,1,.27-4.1,3.36,3.36,0,0,1,6.3,0,14.789,14.789,0,0,1,.27,4.1,14.961,14.961,0,0,1-.27,4.11,3.36,3.36,0,0,1-6.3,0A14.65,14.65,0,0,1,356.88,404.4Zm3.42,5.38a2.1,2.1,0,0,0,2.2-1.49,30.139,30.139,0,0,0,0-7.78,2.36,2.36,0,0,0-4.39,0,30.139,30.139,0,0,0,0,7.78,2.1,2.1,0,0,0,2.22,1.53Zm6.39-6.38v-1.22a.17.17,0,0,1,.159-.18h.9a.17.17,0,0,1,.18.159.166.166,0,0,1,0,.021v1.22a.17.17,0,0,1-.159.18h-.9a.17.17,0,0,1-.18-.159A.166.166,0,0,1,366.69,403.4Zm0,5.8a.17.17,0,0,1,.159-.18h.9a.17.17,0,0,1,.18.159.166.166,0,0,1,0,.021v1.2a.17.17,0,0,1-.159.18h-.9a.17.17,0,0,1-.18-.159.166.166,0,0,1,0-.021Zm4.21-4.8a14.64,14.64,0,0,1,.27-4.1,3.36,3.36,0,0,1,6.3,0,14.789,14.789,0,0,1,.27,4.1,14.961,14.961,0,0,1-.27,4.11,3.36,3.36,0,0,1-6.3,0A14.65,14.65,0,0,1,370.9,404.4Zm3.42,5.38a2.1,2.1,0,0,0,2.2-1.49,30.139,30.139,0,0,0,0-7.78,2.36,2.36,0,0,0-4.39,0,30.139,30.139,0,0,0,0,7.78,2.1,2.1,0,0,0,2.2,1.53Zm6.01-1.85v-.53a.739.739,0,0,1,0-.2l4-8.73a.22.22,0,0,1,.23-.14h.67c.13,0,.16.07.13.16l-3.94,8.68h3.78a.1.1,0,0,0,.11-.089.1.1,0,0,0,0-.021V403.7a.17.17,0,0,1,.159-.18h.631a.17.17,0,0,1,.18.159.166.166,0,0,1,0,.021v3.35a.1.1,0,0,0,.089.11h1.371a.17.17,0,0,1,.18.159.166.166,0,0,1,0,.021v.58a.17.17,0,0,1-.159.18H386.39a.1.1,0,0,0-.11.089.1.1,0,0,0,0,.021v2.18a.17.17,0,0,1-.159.18h-.631a.17.17,0,0,1-.16-.179h0v-2.16a.1.1,0,0,0-.089-.11H380.52a.17.17,0,0,1-.19-.2Zm18.17-9.44a.23.23,0,0,1,.22-.18h.61c.13,0,.18.07.22.18l4.28,11.91a.12.12,0,0,1-.13.18H403a.2.2,0,0,1-.228-.167l0-.013-1.08-3h-5.36l-1.08,3a.226.226,0,0,1-.23.18h-.69a.12.12,0,0,1-.13-.18Zm2.83,7.91-2.29-6.41h-.05l-2.3,6.41Zm4.93-7.91a.17.17,0,0,1,.159-.18h.7a.27.27,0,0,1,.27.18l4,8.77h.07l3.89-8.77a.26.26,0,0,1,.25-.18h.7a.17.17,0,0,1,.18.159.166.166,0,0,1,0,.021V410.4a.17.17,0,0,1-.159.18h-.691a.17.17,0,0,1-.18-.159.166.166,0,0,1,0-.021v-9.6h-.05l-3.53,7.76a.3.3,0,0,1-.32.2h-.36a.29.29,0,0,1-.31-.2l-3.55-7.76v9.6a.17.17,0,0,1-.159.18h-.691a.17.17,0,0,1-.18-.159.166.166,0,0,1,0-.021Zm-149.39-16.98a.1.1,0,0,1,.1-.08h.74a.1.1,0,0,1,.1.08l1.84,5.28s0,.08-.06.08h-.78a.1.1,0,0,1-.1-.08l-.36-1.06h-2l-.36,1.06a.1.1,0,0,1-.1.08h-.78c-.06,0-.07,0-.06-.08Zm1.19,3.38-.72-2.11-.73,2.11Zm7.02,1.97a.11.11,0,0,1-.12-.08l-1-2.12h-.93v2.07a.08.08,0,0,1-.08.08h-.78a.08.08,0,0,1-.08-.08v-5.28a.08.08,0,0,1,.08-.08h2.1a1.62,1.62,0,0,1,1.736,1.5q0,.062,0,.124a1.55,1.55,0,0,1-1,1.5l1.14,2.21a.06.06,0,0,1-.06.1Zm-.1-3.81a.76.76,0,0,0-.83-.78h-1.16v1.45h1.16A.76.76,0,0,0,264.98,383.045Zm6.65,3.81a.11.11,0,0,1-.12-.08l-1-2.12h-.93v2.07a.08.08,0,0,1-.08.08h-.78a.08.08,0,0,1-.08-.08v-5.28a.08.08,0,0,1,.08-.08h2.1a1.62,1.62,0,0,1,1.736,1.5q0,.062,0,.124a1.55,1.55,0,0,1-1,1.5l1.14,2.21a.06.06,0,0,1-.06.1Zm-.1-3.81a.76.76,0,0,0-.83-.78h-1.16v1.45h1.16A.76.76,0,0,0,271.53,383.045Zm3.57-1.54a.08.08,0,0,1,.08-.08h.78a.07.07,0,0,1,.08.08v5.28a.08.08,0,0,1-.08.08h-.78a.08.08,0,0,1-.08-.08Zm5.07,5.35a.1.1,0,0,1-.1-.08l-1.74-5.27s0-.08.06-.08h.78a.1.1,0,0,1,.1.08l1.21,3.85,1.17-3.85a.1.1,0,0,1,.1-.08h.78a.059.059,0,0,1,.06.08l-1.73,5.28a.1.1,0,0,1-.1.08Zm5.77-5.35a.1.1,0,0,1,.1-.08h.74a.1.1,0,0,1,.1.08l1.84,5.28s0,.08-.06.08h-.78a.1.1,0,0,1-.1-.08l-.36-1.06h-2l-.36,1.06a.1.1,0,0,1-.1.08h-.78c-.06,0-.07,0-.06-.08Zm1.19,3.38-.72-2.11-.73,2.11Zm3.94-3.38a.08.08,0,0,1,.08-.08h.78a.07.07,0,0,1,.08.08v4.46h2.49a.08.08,0,0,1,.08.08v.69a.08.08,0,0,1-.08.08h-3.41a.08.08,0,0,1-.08-.08Zm10.57,5.35a.08.08,0,0,1-.08-.08v-4.46h-1.42a.08.08,0,0,1-.08-.08v-.69a.08.08,0,0,1,.08-.08h3.89a.08.08,0,0,1,.08.08v.69a.08.08,0,0,1-.08.08h-1.42v4.46a.08.08,0,0,1-.08.08Zm4.79-5.35a.08.08,0,0,1,.08-.08h.82a.08.08,0,0,1,.08.08v5.28a.08.08,0,0,1-.08.08h-.78a.08.08,0,0,1-.08-.08Zm3.74,0a.08.08,0,0,1,.08-.08h.71a.13.13,0,0,1,.14.08l1.5,3.35,1.47-3.35a.13.13,0,0,1,.14-.08h.7a.07.07,0,0,1,.08.08v5.28a.08.08,0,0,1-.08.08h-.7a.08.08,0,0,1-.08-.08v-3.33l-1.15,2.56a.15.15,0,0,1-.15.1h-.5a.15.15,0,0,1-.15-.1l-1.15-2.56v3.33a.08.08,0,0,1-.08.08h-.7a.08.08,0,0,1-.08-.08Zm7.65,0a.08.08,0,0,1,.08-.08h3.43a.08.08,0,0,1,.08.08v.69a.08.08,0,0,1-.08.08h-2.49v1.33h2.1a.08.08,0,0,1,.08.08v.69a.08.08,0,0,1-.08.08h-2.1v1.38h2.49a.08.08,0,0,1,.08.08v.69a.08.08,0,0,1-.08.08h-3.41a.08.08,0,0,1-.08-.08Z" style="fill:#fff"/><path d="M225.22,372.1a12,12,0,1,0,12,12A12,12,0,0,0,225.22,372.1Z" style="fill:#fff;fill-opacity:0.8999999761581421"/><path d="M221.86,384.4h-2.12v2h2.37v.59h-3.08v-5.46h2.95v.59h-2.24v1.73h2.12Zm2.73-2.29h-1.66v-.6h4v.6h-1.6v4.86h-.71Zm3.68,3.15-.57,1.72h-.73l1.86-5.46h.85l1.86,5.46h-.75l-.58-1.72Zm1.79-.55-.53-1.57c-.12-.36-.2-.68-.28-1-.08.32-.17.66-.28,1l-.53,1.58Z" style="fill:#3498db"/><path d="M469.32,168.625l4.16,4.16,1.37-1.37-4.16-4.16,4.16-4.16-1.37-1.37-4.16,4.16-4.16-4.16-1.37,1.37,4.16,4.16-4.16,4.16,1.37,1.37,4.16-4.16m-253.68,4.34a.21.21,0,0,1-.013-.3l.013-.013.53-.66a.2.2,0,0,1,.31,0,7.24,7.24,0,0,0,4.29,1.54c2.4,0,3.87-1.21,3.87-3.06,0-1.47-.84-2.55-3.59-2.9l-.68-.09c-2.93-.37-4.31-1.78-4.31-4,0-2.6,1.85-4.2,4.71-4.2a7.54,7.54,0,0,1,4.27,1.25.2.2,0,0,1,0,.31l-.44.68a.21.21,0,0,1-.3.013l-.013-.013a6.79,6.79,0,0,0-3.63-1.1c-2.13,0-3.39,1.19-3.39,2.93,0,1.52,1,2.51,3.52,2.84l.68.09c3,.4,4.38,1.8,4.38,4,0,2.53-1.8,4.33-5.28,4.33a8.1,8.1,0,0,1-4.93-1.65Zm14.22-6.47a4.17,4.17,0,0,1,7.46-.75.19.19,0,0,1-.07.29l-.62.4a.2.2,0,0,1-.29-.09,2.74,2.74,0,0,0-2.57-1.43,2.68,2.68,0,0,0-2.75,2,7.16,7.16,0,0,0-.29,2.35,7,7,0,0,0,.29,2.33,2.68,2.68,0,0,0,2.75,2,2.74,2.74,0,0,0,2.57-1.43.2.2,0,0,1,.263-.1l.027.014.62.4a.19.19,0,0,1,.07.29,4.17,4.17,0,0,1-7.46-.75,9.22,9.22,0,0,1-.33-2.73,9.39,9.39,0,0,1,.33-2.79Zm18.61,7.99a.21.21,0,0,1-.22-.2q0-.01,0-.021v-6.2c0-2.09-.92-3.15-2.75-3.15a2.75,2.75,0,0,0-2.86,2.93v6.42a.21.21,0,0,1-.2.22h-.771a.21.21,0,0,1-.22-.2q0-.01,0-.021v-14.52a.21.21,0,0,1,.2-.22h.771a.21.21,0,0,1,.22.2q0,.01,0,.021v5.72a3.3,3.3,0,0,1,3.1-1.69c2.33,0,3.67,1.45,3.67,4v6.49a.21.21,0,0,1-.2.22h-.741Zm5.37-2.55a8.69,8.69,0,0,1-.31-2.71,9,9,0,0,1,.31-2.73,4.16,4.16,0,0,1,7.81,0,8.34,8.34,0,0,1,.31,2.79.21.21,0,0,1-.24.22h-6.84c-.09,0-.13.07-.13.15a5.68,5.68,0,0,0,.22,1.85,2.9,2.9,0,0,0,3,2,3.58,3.58,0,0,0,2.93-1.34.2.2,0,0,1,.31,0l.51.46a.2.2,0,0,1,0,.31,4.63,4.63,0,0,1-3.83,1.76,3.88,3.88,0,0,1-4.05-2.76Zm6.78-3.43a.12.12,0,0,0,.13-.13,4.9,4.9,0,0,0-.2-1.52,3,3,0,0,0-5.61,0,4.88,4.88,0,0,0-.2,1.52.12.12,0,0,0,.109.13h5.771Zm12.2,5.98a.21.21,0,0,1-.22-.2q0-.01,0-.021v-1.28a3.24,3.24,0,0,1-3.19,1.72,3.37,3.37,0,0,1-3.56-2.51,11.9,11.9,0,0,1,0-5.92,3.37,3.37,0,0,1,3.56-2.51,3.24,3.24,0,0,1,3.19,1.72v-5.74a.21.21,0,0,1,.2-.22h.771a.21.21,0,0,1,.22.2q0,.01,0,.021v14.52a.21.21,0,0,1-.2.22h-.771Zm-.51-2.77a7.65,7.65,0,0,0,.29-2.46,7.8,7.8,0,0,0-.29-2.49,2.87,2.87,0,0,0-5.37,0,10.85,10.85,0,0,0,0,5,2.87,2.87,0,0,0,5.37,0Zm13.16,2.77a.21.21,0,0,1-.22-.2q0-.01,0-.021v-1.23a3.26,3.26,0,0,1-3.06,1.67c-2.33,0-3.63-1.45-3.63-4V164.2a.21.21,0,0,1,.2-.22h.771a.21.21,0,0,1,.22.2q0,.01,0,.021v6.2c0,2.11.88,3.15,2.71,3.15a2.73,2.73,0,0,0,2.82-2.93V164.2a.21.21,0,0,1,.2-.22h.771a.21.21,0,0,1,.22.2q0,.01,0,.021v10.06a.21.21,0,0,1-.2.22h-.021Zm8.05.07c-1.58,0-2.18-.73-2.18-2.46v-12.35a.21.21,0,0,1,.2-.22h.79a.21.21,0,0,1,.22.2q0,.01,0,.021v12.3c0,1,.33,1.36,1.12,1.36h.37a.21.21,0,0,1,.22.2q0,.01,0,.021v.7a.21.21,0,0,1-.2.22h-.021Zm4.09-2.62a8.69,8.69,0,0,1-.31-2.71,9,9,0,0,1,.31-2.73,4.16,4.16,0,0,1,7.81,0,8.34,8.34,0,0,1,.31,2.79.21.21,0,0,1-.24.22h-6.84c-.09,0-.13.07-.13.15a5.68,5.68,0,0,0,.22,1.85,2.9,2.9,0,0,0,3,2,3.58,3.58,0,0,0,2.93-1.34.2.2,0,0,1,.31,0l.51.46a.2.2,0,0,1,0,.31,4.63,4.63,0,0,1-3.83,1.76,3.88,3.88,0,0,1-4.05-2.76Zm6.78-3.43a.12.12,0,0,0,.13-.13,4.9,4.9,0,0,0-.2-1.52,3,3,0,0,0-5.61,0,4.88,4.88,0,0,0-.2,1.52.12.12,0,0,0,.109.13h5.771Zm12.21,5.98a.21.21,0,0,1-.22-.2q0-.01,0-.021v-1.28a3.24,3.24,0,0,1-3.19,1.72,3.37,3.37,0,0,1-3.56-2.51,11.9,11.9,0,0,1,0-5.92,3.37,3.37,0,0,1,3.56-2.51,3.24,3.24,0,0,1,3.19,1.72v-5.74a.21.21,0,0,1,.2-.22h.751a.21.21,0,0,1,.22.2q0,.01,0,.021v14.52a.21.21,0,0,1-.2.22H316.6Zm-.51-2.77a7.65,7.65,0,0,0,.29-2.46,7.8,7.8,0,0,0-.29-2.49,2.87,2.87,0,0,0-5.37,0,10.85,10.85,0,0,0,0,5,2.87,2.87,0,0,0,5.37,0Zm23.06,2.77c-.13,0-.2-.07-.24-.22l-3.5-12.26-3.52,12.26a.215.215,0,0,1-.24.22h-.7a.28.28,0,0,1-.26-.22l-3.54-14.5c0-.15,0-.24.18-.24h.79c.18,0,.26.07.29.22l2.92,12.32,3.45-12.32c0-.15.11-.22.26-.22h.66c.15,0,.22.07.26.22l3.5,12.32,2.88-12.32c0-.18.11-.22.29-.22h.79c.15,0,.22.09.18.24l-3.54,14.5a.24.24,0,0,1-.24.22Zm7.24-2.51a10.83,10.83,0,0,1,0-5.48,4.19,4.19,0,0,1,7.85,0,10.83,10.83,0,0,1,0,5.48,4.19,4.19,0,0,1-7.85,0Zm6.71-.37a9.92,9.92,0,0,0,0-4.73,3,3,0,0,0-5.57,0,9.92,9.92,0,0,0,0,4.73,3,3,0,0,0,5.57,0Zm5.94,2.88a.21.21,0,0,1-.22-.2q0-.01,0-.021v-10.06a.21.21,0,0,1,.2-.22h.771a.21.21,0,0,1,.22.2q0,.01,0,.021v1.34a2.81,2.81,0,0,1,2.82-1.78,3.26,3.26,0,0,1,2.11.73.18.18,0,0,1,0,.29l-.44.62a.24.24,0,0,1-.33,0,3,3,0,0,0-1.67-.53c-1.85,0-2.55,1.61-2.55,3.54v5.81a.21.21,0,0,1-.2.22h-.021Zm16.48,0c-.15,0-.22,0-.33-.22l-3.34-5.43-2.24,2.64v2.79a.21.21,0,0,1-.2.22h-.771a.21.21,0,0,1-.22-.2q0-.01,0-.021v-14.52a.21.21,0,0,1,.2-.22h.711a.21.21,0,0,1,.22.2q0,.01,0,.021v10.08l4.75-5.61c.13-.15.2-.22.37-.22h.9c.13,0,.2.13.11.22l-3.1,3.67,3.92,6.38a.14.14,0,0,1-.13.22Zm10.91-3.15a13.11,13.11,0,0,1-.44-4.33,13.11,13.11,0,0,1,.44-4.33,5.15,5.15,0,0,1,9.66,0,13.11,13.11,0,0,1,.44,4.33,13.11,13.11,0,0,1-.44,4.33,5.15,5.15,0,0,1-9.66,0Zm8.45-8.32a3.85,3.85,0,0,0-7.24,0,21.807,21.807,0,0,0,0,8,3.85,3.85,0,0,0,7.24,0,21.753,21.753,0,0,0,0-7.99Zm6.2,11.47a.21.21,0,0,1-.22-.2q0-.01,0-.021v-10.06a.21.21,0,0,1,.2-.22h.771a.21.21,0,0,1,.22.2q0,.01,0,.021v1.34a2.81,2.81,0,0,1,2.82-1.78,3.26,3.26,0,0,1,2.11.73.17.17,0,0,1,0,.29l-.44.62a.24.24,0,0,1-.33,0,3,3,0,0,0-1.67-.53c-1.85,0-2.55,1.61-2.55,3.54v5.81a.21.21,0,0,1-.2.22h-.021Zm15.64,0a.21.21,0,0,1-.22-.2q0-.01,0-.021v-1.28a3.24,3.24,0,0,1-3.19,1.72,3.38,3.38,0,0,1-3.56-2.51,11.9,11.9,0,0,1,0-5.92,3.38,3.38,0,0,1,3.56-2.51,3.24,3.24,0,0,1,3.19,1.72v-5.74a.21.21,0,0,1,.2-.22h.771a.21.21,0,0,1,.22.2q0,.01,0,.021v14.52a.21.21,0,0,1-.2.22h-.771Zm-.51-2.77a7.65,7.65,0,0,0,.29-2.46,7.8,7.8,0,0,0-.29-2.49,2.87,2.87,0,0,0-5.37,0,10.85,10.85,0,0,0,0,5,2.87,2.87,0,0,0,5.37,0Zm6.01.22a8.69,8.69,0,0,1-.31-2.71,9,9,0,0,1,.31-2.73,4.16,4.16,0,0,1,7.81,0,8.34,8.34,0,0,1,.31,2.79.21.21,0,0,1-.24.22h-6.84c-.09,0-.13.07-.13.15a5.68,5.68,0,0,0,.22,1.85,2.9,2.9,0,0,0,3,2,3.58,3.58,0,0,0,2.93-1.34.2.2,0,0,1,.31,0l.51.46a.2.2,0,0,1,0,.31,4.63,4.63,0,0,1-3.83,1.76,3.88,3.88,0,0,1-4.05-2.76Zm6.78-3.43a.12.12,0,0,0,.13-.13,4.89,4.89,0,0,0-.2-1.52,3,3,0,0,0-5.61,0,4.869,4.869,0,0,0-.2,1.52.12.12,0,0,0,.109.13H429Zm5.76,5.98a.21.21,0,0,1-.22-.2q0-.01,0-.021v-10.06a.21.21,0,0,1,.2-.22h.771a.21.21,0,0,1,.22.2q0,.01,0,.021v1.34a2.81,2.81,0,0,1,2.82-1.78,3.26,3.26,0,0,1,2.11.73.18.18,0,0,1,0,.29l-.33.61a.24.24,0,0,1-.33,0,3,3,0,0,0-1.67-.53c-1.85,0-2.55,1.61-2.55,3.54v5.81a.21.21,0,0,1-.2.22h-.021Z" style="fill:#fff"/><path d="M144.492,149.775v-3.91h-3.73v3.91a16.3,16.3,0,0,0-14.71,14.73h-3.92v3.73h3.91a16.64,16.64,0,0,0,14.72,14.72v3.91h3.73v-3.91a16.64,16.64,0,0,0,14.72-14.72h3.91v-3.73l-3.91-.01A16.64,16.64,0,0,0,144.492,149.775Zm-1.73,30.84h-.13a14.25,14.25,0,1,1,14.2-14.3v.05A14.16,14.16,0,0,1,142.762,180.615Z" style="fill:#2e3d5a"/><circle cx="142.632" cy="166.395" r="5" style="fill:#2e3d5a"/><rect width="677.34" height="583.8" style="fill:none"/></svg>