<?xml version="1.0" encoding="utf-8"?>
<!-- Generator: Adobe Illustrator 16.0.0, SVG Export Plug-In . SVG Version: 6.00 Build 0)  -->
<!DOCTYPE svg PUBLIC "-//W3C//DTD SVG 1.1//EN" "http://www.w3.org/Graphics/SVG/1.1/DTD/svg11.dtd">
<svg version="1.1" id="Layer_1" xmlns="http://www.w3.org/2000/svg" xmlns:xlink="http://www.w3.org/1999/xlink" x="0px" y="0px"
	 width="400.4px" height="523.1px" viewBox="0 0 400.4 523.1" enable-background="new 0 0 400.4 523.1" xml:space="preserve">
<path fill="#FFFFFF" d="M200.2,112c30.9,0,56-25.1,56-56c0-30.9-25.1-56-56-56s-56,25.1-56,56C144.2,86.9,169.2,112,200.2,112"/>
<path fill="#FFFFFF" d="M344.4,62.3c-31,0-56,25.1-56,56c0,19.1,9.6,36,24.2,46.1c-29.7,32.3-74.1,93.1-101.1,203.7V243.8h-21.7v125
	c-27.1-111.4-71.8-172.4-101.6-204.7c14.4-10.1,23.8-26.9,23.8-45.8c0-30.9-25.1-56-56-56c-31,0-56,25.1-56,56c0,30.9,25,56,56,56
	c3.8,0,7.4-0.4,11-1.1c38.1,39.6,110.3,133.7,122.7,348c0,0.2,0,0.5-0.1,0.7l0.1,0c0,0.4,0.1,0.8,0.1,1.2l14.1-0.4l7.4,0.4
	c0-0.2,0-0.4,0-0.6l0.1,0V521c12.3-214,84.4-308.1,122.5-347.7c3.4,0.6,6.8,1,10.4,1c30.9,0,56-25.1,56-56
	C400.4,87.4,375.3,62.3,344.4,62.3"/>
<path fill="#FFFFFF" d="M200.1,129.5c-25.1,0-45.5,20.4-45.5,45.5c0,25.1,20.3,45.5,45.5,45.5c25.2,0,45.6-20.4,45.6-45.5
	C245.7,149.9,225.3,129.5,200.1,129.5"/>
<g>
</g>
<g>
</g>
<g>
</g>
<g>
</g>
<g>
</g>
<g>
</g>
<g>
</g>
<g>
</g>
<g>
</g>
<g>
</g>
<g>
</g>
<g>
</g>
<g>
</g>
<g>
</g>
<g>
</g>
</svg>
