<svg xmlns="http://www.w3.org/2000/svg" xmlns:xlink="http://www.w3.org/1999/xlink" viewBox="0 0 192.242 221.99"><defs><linearGradient id="c" x1="-1574.041" y1="4839.582" x2="-1572.771" y2="4839.582" gradientTransform="matrix(0 -146.311 -146.311 0 708165.936 -230095.58)" gradientUnits="userSpaceOnUse"><stop offset="0"/><stop offset=".145" stop-color="#040404"/><stop offset=".273" stop-color="#0e0e0e"/><stop offset=".395" stop-color="#202020"/><stop offset=".513" stop-color="#3a3a3a"/><stop offset=".628" stop-color="#5b5b5b"/><stop offset=".741" stop-color="#838383"/><stop offset=".853" stop-color="#b3b3b3"/><stop offset=".961" stop-color="#e9e9e9"/><stop offset="1" stop-color="#fff"/></linearGradient><clipPath id="d"><path fill="none" d="M96.126 110.982l.01.008v-.01l-.01.002z"/></clipPath><linearGradient id="a" x1="-1538.317" y1="4790.805" x2="-1537.047" y2="4790.805" gradientTransform="matrix(62.5 0 0 -62.5 96159.426 299536.303)" gradientUnits="userSpaceOnUse"><stop offset="0" stop-color="#3d3e41"/><stop offset=".257" stop-color="#3d3e41"/><stop offset=".811" stop-color="#67686b"/><stop offset="1" stop-color="#67686b"/></linearGradient><clipPath id="e"><path fill="none" d="M0 55.489l96.126 55.493.01-.002V0L0 55.489z"/></clipPath><linearGradient id="b" x1="-1570.135" y1="4840.506" x2="-1568.865" y2="4840.506" gradientTransform="matrix(0 -174.785 -174.785 0 846096.575 -274325.386)" gradientUnits="userSpaceOnUse"><stop offset="0" stop-color="#67686b"/><stop offset=".189" stop-color="#67686b"/><stop offset=".743" stop-color="#3d3e41"/><stop offset="1" stop-color="#3d3e41"/></linearGradient><clipPath id="f"><path fill="none" d="M96.136 110.98v.01l96.106 55.49V55.489L96.136 110.98z"/></clipPath><linearGradient id="g" x1="-1545.641" y1="4822.619" x2="-1544.371" y2="4822.619" gradientTransform="matrix(151.359 0 0 -151.359 233947.322 730059.52)" gradientUnits="userSpaceOnUse"><stop offset="0" stop-color="#3d3e41"/><stop offset=".585" stop-color="#3d3e41"/><stop offset=".806" stop-color="#3f4043"/><stop offset=".886" stop-color="#46474a"/><stop offset=".944" stop-color="#515255"/><stop offset=".99" stop-color="#626366"/><stop offset="1" stop-color="#67686b"/></linearGradient><linearGradient id="h" x1="-1561.749" y1="4827.511" x2="-1560.479" y2="4827.511" gradientTransform="scale(168.822 -168.822) rotate(45 5047.68 4298.485)" xlink:href="#a"/><clipPath id="i"><path fill="none" d="M96.136 221.99l96.106-55.51-96.106-55.49v111z"/></clipPath><linearGradient id="j" x1="-1570.402" y1="4840.389" x2="-1569.132" y2="4840.389" gradientTransform="matrix(0 -174.813 -174.813 0 846304.746 -274192.971)" xlink:href="#b"/><clipPath id="k"><path fill="none" d="M0 166.48l96.126-55.498L0 55.489V166.48z"/></clipPath><linearGradient id="l" x1="-1545.642" y1="4822.623" x2="-1544.372" y2="4822.623" gradientTransform="matrix(151.387 0 0 -151.387 233989.704 730192.001)" gradientUnits="userSpaceOnUse"><stop offset="0" stop-color="#67686b"/><stop offset=".014" stop-color="#626366"/><stop offset=".076" stop-color="#515255"/><stop offset=".154" stop-color="#46474a"/><stop offset=".263" stop-color="#3f4043"/><stop offset=".562" stop-color="#3d3e41"/><stop offset="1" stop-color="#3d3e41"/></linearGradient><linearGradient id="m" x1="-1561.747" y1="4827.452" x2="-1560.477" y2="4827.452" gradientTransform="scale(168.853 -168.853) rotate(45 5047.94 4298.58)" gradientUnits="userSpaceOnUse"><stop offset="0" stop-color="#3d3e41"/><stop offset=".811" stop-color="#67686b"/><stop offset="1" stop-color="#67686b"/></linearGradient><clipPath id="n"><path fill="none" d="M15.666 64.539v92.899l80.47 46.461 80.442-46.461V64.539L96.136 18.092l-80.47 46.447z"/></clipPath><linearGradient id="o" x1="-1574.041" y1="4839.562" x2="-1572.771" y2="4839.562" gradientTransform="rotate(-90 239043.253 -469141.222) scale(146.313)" gradientUnits="userSpaceOnUse"><stop offset="0" stop-color="#3d3e41"/><stop offset=".257" stop-color="#3d3e41"/><stop offset=".96" stop-color="#636568"/><stop offset="1" stop-color="#636568"/></linearGradient><clipPath id="p"><path fill="none" d="M15.666 18.094h132.992v106.889H15.666z"/></clipPath><clipPath id="r"><path fill="none" d="M96.135 18.092L15.666 64.536v60.451l132.992-76.57-52.523-30.325z"/></clipPath><mask id="q" x="15.666" y="18.093" width="132.992" height="106.896" maskUnits="userSpaceOnUse"><path fill="url(#c)" d="M15.666 18.094h132.992v106.894H15.666z"/></mask><linearGradient id="s" x1="-1574.041" y1="4839.582" x2="-1572.771" y2="4839.582" gradientTransform="matrix(0 -146.311 -146.311 0 708166.01 -230095.604)" gradientUnits="userSpaceOnUse"><stop offset="0" stop-color="#f4f4f4"/><stop offset=".353" stop-color="#f0f1f1"/><stop offset=".668" stop-color="#e6e6e7"/><stop offset=".968" stop-color="#d3d5d6"/><stop offset="1" stop-color="#d1d3d4"/></linearGradient></defs><title>work-temp</title><g style="isolation:isolate"><g style="mix-blend-mode:multiply"><g clip-path="url(#d)"><path fill="url(#a)" d="M96.126 110.98h.01v.011h-.01z"/></g><g clip-path="url(#e)"><path fill="url(#b)" d="M0 .001h96.136v110.982H0z"/></g><g clip-path="url(#f)"><path fill="url(#g)" d="M96.136 55.489h96.106V166.48H96.136z"/></g><path fill="none" d="M96.136 110.98h.001l-.001-.001v.001zm0-110.98v.001L96.137 0h-.001z"/><path fill="url(#h)" d="M96.137 0l-.001.001v110.978l.001.001 96.105-55.491L96.137 0z"/><g clip-path="url(#i)"><path fill="url(#j)" d="M96.136 110.991h96.106V221.99H96.136z"/></g><g clip-path="url(#k)"><path fill="url(#l)" d="M0 55.489h96.126V166.48H0z"/></g><path fill="url(#m)" d="M96.136 110.99l-.01-.008L0 166.48l96.136 55.51v-111z"/><g clip-path="url(#n)"><path fill="url(#o)" d="M15.666 18.093h160.912V203.9H15.666z"/></g><g clip-path="url(#p)"><g mask="url(#q)" clip-path="url(#r)" opacity=".2"><path fill="url(#s)" d="M15.666 18.093h132.992v106.895H15.666z"/></g></g><path d="M155.786 88.831h-43.474a35.614 35.614 0 1 0 5.854 34.083zm-51.233 35.348A23.873 23.873 0 1 1 97.6 91.157a23.817 23.817 0 0 1 6.955 33.022" fill="#fff" fill-rule="evenodd"/><path d="M73.964 119.206l19.369-16.058a12.143 12.143 0 0 0-2.27-1.921 13.916 13.916 0 0 0-18.291 2.682 11.177 11.177 0 0 0 1.192 15.3" fill="#fff" fill-rule="evenodd"/></g></g></svg>