<?xml version="1.0" encoding="utf-8"?>
<!-- Generator: Adobe Illustrator 21.1.0, SVG Export Plug-In . SVG Version: 6.00 Build 0)  -->
<svg version="1.1" id="Layer_1" xmlns="http://www.w3.org/2000/svg" xmlns:xlink="http://www.w3.org/1999/xlink" x="0px" y="0px"
	 viewBox="0 0 601 112" style="enable-background:new 0 0 601 112;" xml:space="preserve">
<style type="text/css">
	.st0{fill:#F6F5F5;}
	.st1{fill:#ACB5BE;}
	.st2{fill:#07B07C;}
	.st3{fill:none;}
	.st4{filter:url(#Adobe_OpacityMaskFilter);}
	.st5{fill:#FFFFFF;}
	.st6{mask:url(#header-stats-b);}
	.st7{fill:#04B07C;}
	.st8{opacity:0.1;}
	.st9{fill:#EAEBED;}
	.st10{filter:url(#Adobe_OpacityMaskFilter_1_);}
	.st11{mask:url(#header-stats-e);}
	.st12{fill:#F04032;}
	.st13{filter:url(#Adobe_OpacityMaskFilter_2_);}
	.st14{mask:url(#header-stats-h);}
	.st15{filter:url(#Adobe_OpacityMaskFilter_3_);}
	.st16{mask:url(#header-stats-k);}
</style>
<g transform="translate(-37)">
	<g transform="translate(312)">
		<g transform="translate(32 16)">
			<path class="st0" d="M5.3,44.2l2.5-2.4c1.1,1.1,2.6,2.3,4.4,2.3c2.1,0,3.3-0.8,3.3-2.4c0-1.7-2.2-2.3-4.3-3.1
				c-2.3-0.8-4.6-2-4.6-5.1c0-3.2,2.3-5.1,5.3-5.3v-2.7h2.3v2.7c1.7,0.3,3.3,1,4.8,2.1L16.8,33c-1.1-0.9-2.4-1.7-4-1.7
				c-1.1,0-2.4,0.6-2.4,2c0,1.3,2.1,1.8,4.3,2.6c2.4,0.9,4.9,2.2,4.9,5.5c0,3.4-2.6,5.3-5.6,5.8V50h-2.3v-2.7
				C9.1,47.1,7.2,46,5.3,44.2z M28.3,47h-4V33c-0.8,0.4-1.9,0.8-2.6,1.1v-3.6c1.2-0.6,2.7-1.4,4-2.1h2.6V47z M43.3,28.4v3.3h-6.4
				c-0.1,1.4-0.1,2.6-0.3,3.8c0.7-0.3,1.4-0.4,2.2-0.4c3.2,0,5.4,2.7,5.4,5.7c0,3.8-2.9,6.5-6.6,6.5c-2.8,0-5.1-1.3-6.3-3.7l3.3-1.7
				c0.6,1.5,1.8,2,2.9,2c1.7,0,2.6-1.4,2.6-2.8c0-1.6-1-2.7-2.7-2.7c-0.9,0-1.7,0.3-2.4,1.1l-2.6-1.8c0.3-2.7,0.5-6.9,0.6-9.4H43.3z
				 M50.5,47h-4.3v-4.2h4.3V47z M65.9,43.7V47H53.4v-2.9c2.2-2.2,4.7-5.1,6.3-7.5c0.7-1,1.3-2.2,1.3-3.3c0-1.1-0.9-1.9-2-1.9
				c-1.3,0-2.1,1-2.1,2.6L53,33.4c0.3-3.2,3-5.3,6.1-5.3c3.1,0,6,1.8,6,5.2c0,1.8-0.8,3.6-1.9,5.2c-1.3,1.9-3,3.6-4.5,5.3H65.9z
				 M71.5,39.2v-3.2c0.9,0,1.7-0.1,2.2-0.2c1.2-0.3,1.9-1.1,1.9-2.2c0-1.1-0.9-2.1-2.4-2.1c-1.1,0-2,0.7-2.2,1.9l-3.4-1.5
				c0.8-2.5,3.1-3.8,5.6-3.8c3.3,0,6.3,1.9,6.3,5c0,1.6-0.9,3.2-2.3,4c1.9,0.7,3.1,2.5,3.1,4.6c0,3.6-3.1,5.7-6.7,5.7
				c-2.6,0-5.2-1.3-6.4-3.9l3.3-1.5c0.6,1.3,1.6,2.1,3.1,2.1c1.4,0,2.7-0.8,2.7-2.3c0-1.7-1.4-2.6-3.4-2.6
				C72.6,39,72,39.1,71.5,39.2z"/>
			<path class="st1" d="M9.1,12.2c-1.1,0-1.9-0.4-2.5-1.1s-0.9-1.7-0.9-3c0-1.3,0.3-2.2,0.9-3S8,4.1,9.1,4.1c0.8,0,1.5,0.2,2.1,0.7
				s0.9,1.1,1,1.8h-1c-0.1-0.5-0.4-0.9-0.8-1.2S9.6,5,9.1,5C8.4,5,7.8,5.2,7.3,5.8S6.7,7.2,6.7,8.1c0,1,0.2,1.7,0.7,2.3
				s1,0.9,1.8,0.9c0.5,0,1-0.1,1.4-0.4s0.6-0.6,0.8-1.1h1c-0.1,0.7-0.5,1.3-1,1.7S9.9,12.2,9.1,12.2z M14.7,4.2h2.9
				c0.7,0,1.3,0.2,1.8,0.7c0.5,0.5,0.7,1.1,0.7,1.8c0,0.7-0.2,1.3-0.7,1.8c-0.5,0.5-1.1,0.7-1.8,0.7h-1.9V12h-1V4.2z M15.7,5.1v3.3
				h1.7c0.6,0,1-0.1,1.3-0.4c0.3-0.3,0.5-0.7,0.5-1.2c0-0.5-0.1-0.9-0.4-1.2c-0.3-0.3-0.7-0.4-1.3-0.4H15.7z M27.1,12L27,11.7
				c-0.1-0.2-0.2-0.5-0.3-0.8s-0.2-0.5-0.3-0.8l-0.1-0.3h-3.1L22.5,12h-1l2.9-7.8h1l2.9,7.8H27.1z M24.7,5.5l-0.1,0.3
				c-0.1,0.2-0.2,0.5-0.3,0.9l-0.4,1c-0.1,0.3-0.2,0.6-0.3,0.9L23.5,9H26L24.7,5.5L24.7,5.5z"/>
			<g transform="translate(0 56)">
				<path class="st2" d="M28.8,16h-1.7v-1.9h1.7V16z M32.5,11.3V9.8c0.7,0,1.1,0,1.5-0.2c0.8-0.2,1.4-0.8,1.4-1.6
					c0-0.9-0.7-1.5-1.8-1.5c-0.8,0-1.5,0.4-1.7,1.2l-1.3-0.5c0.4-1.2,1.6-2,3.1-2c2,0,3.3,1.1,3.3,2.8c0,1-0.5,1.8-1.3,2.3
					c1.1,0.4,1.9,1.4,1.9,2.6c0,2.1-1.6,3.3-3.6,3.3c-1.3,0-2.7-0.6-3.4-1.8l1.2-0.7c0.4,0.8,1.2,1.1,2.1,1.1c1.1,0,2.1-0.6,2.1-1.8
					c0-1.1-1-1.8-2.3-1.8C33.3,11.2,33,11.2,32.5,11.3z M45,16h-1.5v-2.7h-4.8v-1.6c1.3-1.7,3.3-4.4,4.7-6.3H45V12h1.6v1.3H45V16z
					 M40.3,12h3.2V7.5C42.5,8.9,41.1,10.9,40.3,12z M50.4,4.7c1.4,0,2.5,1.1,2.5,2.6c0,1.4-1.1,2.5-2.5,2.5s-2.6-1.1-2.6-2.5
					C47.8,5.8,49,4.7,50.4,4.7z M50.4,5.8c-0.8,0-1.4,0.6-1.4,1.4c0,0.8,0.6,1.4,1.4,1.4c0.8,0,1.3-0.6,1.3-1.4
					C51.7,6.4,51.2,5.8,50.4,5.8z M57,11c1.4,0,2.5,1.1,2.5,2.6c0,1.4-1.1,2.5-2.5,2.5s-2.6-1.1-2.6-2.5C54.5,12.1,55.6,11,57,11z
					 M57.1,12.1c-0.8,0-1.4,0.6-1.4,1.4c0,0.8,0.6,1.4,1.4,1.4c0.8,0,1.3-0.6,1.3-1.4C58.4,12.7,57.8,12.1,57.1,12.1z M57.3,4.6
					l0.9,0.6l-8,10.9l-0.9-0.6L57.3,4.6z"/>
				<g>
					<rect class="st3" width="24" height="24"/>
					<defs>
						<filter id="Adobe_OpacityMaskFilter" filterUnits="userSpaceOnUse" x="0" y="0" width="24" height="24">
							<feColorMatrix  type="matrix" values="1 0 0 0 0  0 1 0 0 0  0 0 1 0 0  0 0 0 1 0"/>
						</filter>
					</defs>
					<mask maskUnits="userSpaceOnUse" x="0" y="0" width="24" height="24" id="header-stats-b">
						<g class="st4">
							<path id="header-stats-a" class="st5" d="M13,20V6.4l4.3,4.3c0.2,0.2,0.4,0.3,0.7,0.3c0.4,0,0.8-0.2,0.9-0.6
								c0.2-0.4,0.1-0.8-0.2-1.1l-6-6C12.5,3.1,12.3,3,12,3s-0.5,0.1-0.7,0.3l-6,6c-0.4,0.4-0.4,1,0,1.4c0.4,0.4,1,0.4,1.4,0L11,6.4
								V20c0,0.5,0.4,1,1,1S13,20.5,13,20z"/>
						</g>
					</mask>
					<g class="st6">
						<rect class="st7" width="24" height="24"/>
					</g>
				</g>
			</g>
		</g>
		<g class="st8">
			<g>
				<rect id="header-stats-c" class="st9" width="2" height="112"/>
			</g>
		</g>
	</g>
	<g transform="translate(143)">
		<g transform="translate(32 16)">
			<path class="st0" d="M5.3,44.2l2.5-2.4c1.1,1.1,2.6,2.3,4.4,2.3c2.1,0,3.3-0.8,3.3-2.4c0-1.7-2.2-2.3-4.3-3.1
				c-2.3-0.8-4.6-2-4.6-5.1c0-3.2,2.3-5.1,5.3-5.3v-2.7h2.3v2.7c1.7,0.3,3.3,1,4.8,2.1L16.8,33c-1.1-0.9-2.4-1.7-4-1.7
				c-1.1,0-2.4,0.6-2.4,2c0,1.3,2.1,1.8,4.3,2.6c2.4,0.9,4.9,2.2,4.9,5.5c0,3.4-2.6,5.3-5.6,5.8V50h-2.3v-2.7
				C9.1,47.1,7.2,46,5.3,44.2z M28.3,47h-4V33c-0.8,0.4-1.9,0.8-2.6,1.1v-3.6c1.2-0.6,2.7-1.4,4-2.1h2.6V47z M44.5,43.7V47H32v-2.9
				c2.2-2.2,4.7-5.1,6.3-7.5c0.7-1,1.3-2.2,1.3-3.3c0-1.1-0.9-1.9-2-1.9c-1.3,0-2.1,1-2.1,2.6l-3.9-0.6c0.3-3.2,3-5.3,6.1-5.3
				c3.1,0,6,1.8,6,5.2c0,1.8-0.8,3.6-1.9,5.2c-1.3,1.9-3,3.6-4.5,5.3H44.5z M50.8,47h-4.3v-4.2h4.3V47z M57.1,39.2v-3.2
				c0.9,0,1.7-0.1,2.2-0.2c1.2-0.3,1.9-1.1,1.9-2.2c0-1.1-0.9-2.1-2.4-2.1c-1.1,0-2,0.7-2.2,1.9l-3.4-1.5c0.8-2.5,3.1-3.8,5.6-3.8
				c3.3,0,6.3,1.9,6.3,5c0,1.6-0.9,3.2-2.3,4c1.9,0.7,3.1,2.5,3.1,4.6c0,3.6-3.1,5.7-6.7,5.7c-2.6,0-5.2-1.3-6.4-3.9l3.3-1.5
				c0.6,1.3,1.6,2.1,3.1,2.1c1.4,0,2.7-0.8,2.7-2.3c0-1.7-1.4-2.6-3.4-2.6C58.2,39,57.6,39.1,57.1,39.2z M79.5,47h-3.9v-4.6h-7.9
				v-3.3c2.4-3.1,5.4-7.3,7.8-10.7h4v10.8h2.6v3.3h-2.6V47z M71.9,39.2h3.7v-5.6C74.5,35.2,72.8,38,71.9,39.2z"/>
			<path class="st1" d="M9.1,12.2c-1.1,0-1.9-0.4-2.5-1.1s-0.9-1.7-0.9-3c0-1.3,0.3-2.2,0.9-3S8,4.1,9.1,4.1c0.8,0,1.5,0.2,2.1,0.7
				s0.9,1.1,1,1.8h-1c-0.1-0.5-0.4-0.9-0.8-1.2S9.6,5,9.1,5C8.4,5,7.8,5.2,7.3,5.8S6.7,7.2,6.7,8.1c0,1,0.2,1.7,0.7,2.3
				s1,0.9,1.8,0.9c0.5,0,1-0.1,1.4-0.4s0.6-0.6,0.8-1.1h1c-0.1,0.7-0.5,1.3-1,1.7S9.9,12.2,9.1,12.2z M14.7,4.2h2.9
				c0.7,0,1.3,0.2,1.8,0.7c0.5,0.5,0.7,1.1,0.7,1.8c0,0.7-0.2,1.3-0.7,1.8c-0.5,0.5-1.1,0.7-1.8,0.7h-1.9V12h-1V4.2z M15.7,5.1v3.3
				h1.7c0.6,0,1-0.1,1.3-0.4c0.3-0.3,0.5-0.7,0.5-1.2c0-0.5-0.1-0.9-0.4-1.2c-0.3-0.3-0.7-0.4-1.3-0.4H15.7z M23.5,5.1v3h1.9
				c0.5,0,0.9-0.1,1.2-0.4C26.8,7.4,27,7.1,27,6.6c0-0.5-0.1-0.8-0.4-1.1s-0.7-0.4-1.2-0.4H23.5z M23.5,8.9V12h-1V4.2h3
				c0.7,0,1.3,0.2,1.8,0.6c0.4,0.4,0.7,1,0.7,1.7c0,0.5-0.1,1-0.4,1.4c-0.3,0.4-0.7,0.7-1.1,0.8l1.8,3.2h-1.1l-1.7-3.1H23.5z"/>
			<g transform="translate(0 56)">
				<path class="st2" d="M28.8,16h-1.7v-1.9h1.7V16z M34.4,5.2c2.4,0,3.8,2.1,3.8,5.5s-1.4,5.5-3.8,5.5c-2.4,0-3.8-2.1-3.8-5.5
					S32,5.2,34.4,5.2z M34.4,6.6c-1.4,0-2.2,1.4-2.2,4.1s0.8,4.1,2.2,4.1c1.4,0,2.2-1.4,2.2-4.1S35.8,6.6,34.4,6.6z M44.7,4.8
					l0.6,1.3c-2,0.9-3.5,2.1-4.1,4.1c0.6-0.6,1.4-1,2.4-1c1.9,0,3.1,1.5,3.1,3.4c0,2-1.4,3.5-3.4,3.5c-2.4,0-3.9-2-3.9-4.2
					C39.4,8.6,41.8,6,44.7,4.8z M43.3,10.6c-0.9,0-1.9,0.5-2.3,1.3c0,1.5,0.6,2.9,2.2,2.9c1.2,0,2-1,2-2.2
					C45.2,11.5,44.4,10.6,43.3,10.6z M50.8,4.7c1.4,0,2.5,1.1,2.5,2.6c0,1.4-1.1,2.5-2.5,2.5s-2.6-1.1-2.6-2.5
					C48.3,5.8,49.4,4.7,50.8,4.7z M50.8,5.8c-0.8,0-1.4,0.6-1.4,1.4c0,0.8,0.6,1.4,1.4,1.4c0.8,0,1.3-0.6,1.3-1.4
					C52.2,6.4,51.6,5.8,50.8,5.8z M57.5,11c1.4,0,2.5,1.1,2.5,2.6c0,1.4-1.1,2.5-2.5,2.5s-2.6-1.1-2.6-2.5C54.9,12.1,56,11,57.5,11z
					 M57.5,12.1c-0.8,0-1.4,0.6-1.4,1.4c0,0.8,0.6,1.4,1.4,1.4c0.8,0,1.3-0.6,1.3-1.4C58.8,12.7,58.2,12.1,57.5,12.1z M57.7,4.6
					l0.9,0.6l-8,10.9l-0.9-0.6L57.7,4.6z"/>
				<g>
					<rect class="st3" width="24" height="24"/>
					<defs>
						<filter id="Adobe_OpacityMaskFilter_1_" filterUnits="userSpaceOnUse" x="0" y="0" width="24" height="24">
							<feColorMatrix  type="matrix" values="1 0 0 0 0  0 1 0 0 0  0 0 1 0 0  0 0 0 1 0"/>
						</filter>
					</defs>
					<mask maskUnits="userSpaceOnUse" x="0" y="0" width="24" height="24" id="header-stats-e">
						<g class="st10">
							<path id="header-stats-d" class="st5" d="M13,20V6.4l4.3,4.3c0.2,0.2,0.4,0.3,0.7,0.3c0.4,0,0.8-0.2,0.9-0.6
								c0.2-0.4,0.1-0.8-0.2-1.1l-6-6C12.5,3.1,12.3,3,12,3s-0.5,0.1-0.7,0.3l-6,6c-0.4,0.4-0.4,1,0,1.4c0.4,0.4,1,0.4,1.4,0L11,6.4
								V20c0,0.5,0.4,1,1,1S13,20.5,13,20z"/>
						</g>
					</mask>
					<g class="st11">
						<rect class="st7" width="24" height="24"/>
					</g>
				</g>
			</g>
		</g>
		<g class="st8">
			<g>
				<rect id="header-stats-f" class="st9" width="2" height="112"/>
			</g>
		</g>
	</g>
	<g transform="translate(481)">
		<g transform="translate(34 16)">
			<path class="st0" d="M19,43.7V47H6.5v-2.9c2.2-2.2,4.7-5.1,6.3-7.5c0.7-1,1.3-2.2,1.3-3.3c0-1.1-0.9-1.9-2-1.9
				c-1.3,0-2.1,1-2.1,2.6l-3.9-0.6c0.3-3.2,3-5.3,6.1-5.3c3.1,0,6,1.8,6,5.2c0,1.8-0.8,3.6-1.9,5.2c-1.3,1.9-3,3.6-4.5,5.3H19z
				 M24.6,39.2v-3.2c0.9,0,1.7-0.1,2.2-0.2c1.2-0.3,1.9-1.1,1.9-2.2c0-1.1-0.9-2.1-2.4-2.1c-1.1,0-2,0.7-2.2,1.9l-3.4-1.5
				c0.8-2.5,3.1-3.8,5.6-3.8c3.3,0,6.3,1.9,6.3,5c0,1.6-0.9,3.2-2.3,4c1.9,0.7,3.1,2.5,3.1,4.6c0,3.6-3.1,5.7-6.7,5.7
				c-2.6,0-5.2-1.3-6.4-3.9l3.3-1.5c0.6,1.3,1.6,2.1,3.1,2.1c1.4,0,2.7-0.8,2.7-2.3c0-1.7-1.4-2.6-3.4-2.6
				C25.7,39,25.1,39.1,24.6,39.2z M41,27.2c2.7,0,4.9,2,4.9,4.8c0,2.8-2.3,4.8-4.9,4.8c-2.7,0-5-2-5-4.8C36,29.2,38.3,27.2,41,27.2z
				 M41,30c-1.1,0-1.8,0.8-1.8,2c0,1.1,0.8,2,1.8,2c1,0,1.8-0.8,1.8-2C42.8,30.8,42,30,41,30z M52.4,37.6c2.7,0,4.9,2,4.9,4.8
				c0,2.8-2.3,4.8-4.9,4.8c-2.7,0-5-2-5-4.8C47.4,39.6,49.7,37.6,52.4,37.6z M52.4,40.4c-1.1,0-1.8,0.8-1.8,2c0,1.2,0.8,2,1.8,2
				c1,0,1.8-0.8,1.8-2C54.2,41.2,53.4,40.4,52.4,40.4z M52.7,26.9l2,1.5L40.7,47.5l-2-1.5L52.7,26.9z"/>
			<path class="st1" d="M10.8,11.1V12H6V4.2h4.8v0.9H6.9v2.5h3.6v0.9H6.9v2.7H10.8z M14.3,12h-1V4.2h0.9l4.2,6h0.1v-6h1V12h-0.9
				l-4.2-6h-0.1V12z M28.9,9c0,1-0.3,1.7-0.9,2.3c-0.6,0.6-1.4,0.9-2.4,0.9c-1.1,0-1.9-0.4-2.6-1.1c-0.6-0.7-1-1.7-1-3
				c0-1.2,0.3-2.2,1-2.9s1.5-1.1,2.6-1.1c0.9,0,1.6,0.2,2.2,0.7s0.9,1.1,1.1,1.8h-1c-0.2-0.5-0.4-0.9-0.8-1.2S26.2,5,25.6,5
				c-0.8,0-1.4,0.3-1.8,0.9s-0.7,1.3-0.7,2.3c0,1,0.2,1.8,0.7,2.3s1.1,0.9,1.8,0.9c0.7,0,1.3-0.2,1.7-0.6c0.4-0.4,0.6-0.9,0.6-1.6
				V8.9h-2.2V8.1h3.1V9z M36.3,12l-0.1-0.3c-0.1-0.2-0.2-0.5-0.3-0.8s-0.2-0.5-0.3-0.8l-0.1-0.3h-3.1L31.7,12h-1l2.9-7.8h1l2.9,7.8
				H36.3z M34,5.5l-0.1,0.3c-0.1,0.2-0.2,0.5-0.3,0.9l-0.4,1c-0.1,0.3-0.2,0.6-0.3,0.9L32.8,9h2.5L34,5.5L34,5.5z M45.7,9
				c0,1-0.3,1.7-0.9,2.3s-1.4,0.9-2.4,0.9c-1.1,0-1.9-0.4-2.6-1.1c-0.6-0.7-1-1.7-1-3c0-1.2,0.3-2.2,1-2.9s1.5-1.1,2.6-1.1
				c0.9,0,1.6,0.2,2.2,0.7s0.9,1.1,1.1,1.8h-1c-0.2-0.5-0.4-0.9-0.8-1.2S43,5,42.4,5c-0.8,0-1.4,0.3-1.8,0.9
				c-0.5,0.6-0.7,1.3-0.7,2.3c0,1,0.2,1.8,0.7,2.3s1.1,0.9,1.8,0.9c0.7,0,1.3-0.2,1.7-0.6c0.4-0.4,0.6-0.9,0.6-1.6V8.9h-2.2V8.1h3.1
				V9z M53.1,11.1V12h-4.8V4.2h4.8v0.9h-3.8v2.5h3.6v0.9h-3.6v2.7H53.1z M63.3,12h-0.9V6.1h-0.1l-2.4,5.9h-0.8l-2.4-5.9h-0.1V12
				h-0.9V4.2h1.1l2.7,6.4h0.1l2.7-6.4h1.1V12z M70.9,11.1V12h-4.8V4.2h4.8v0.9h-3.8v2.5h3.6v0.9h-3.6v2.7H70.9z M74.5,12h-1V4.2h0.9
				l4.2,6h0.1v-6h1V12h-0.9l-4.2-6h-0.1V12z M85.5,12h-1V5.1h-2.5V4.2h6v0.9h-2.5V12z M95.3,5.1v3h1.9c0.5,0,0.9-0.1,1.2-0.4
				c0.3-0.3,0.4-0.6,0.4-1.1c0-0.5-0.1-0.8-0.4-1.1c-0.3-0.3-0.7-0.4-1.2-0.4H95.3z M95.3,8.9V12h-1V4.2h3c0.7,0,1.3,0.2,1.8,0.6
				c0.4,0.4,0.7,1,0.7,1.7c0,0.5-0.1,1-0.4,1.4c-0.3,0.4-0.7,0.7-1.1,0.8L100,12h-1.1l-1.7-3.1H95.3z M107.4,12l-0.1-0.3
				c-0.1-0.2-0.2-0.5-0.3-0.8s-0.2-0.5-0.3-0.8l-0.1-0.3h-3.1l-0.8,2.2h-1l2.9-7.8h1l2.9,7.8H107.4z M105,5.5l-0.1,0.3
				c-0.1,0.2-0.2,0.5-0.3,0.9l-0.4,1c-0.1,0.3-0.2,0.6-0.3,0.9L103.8,9h2.5L105,5.5L105,5.5z M112.7,12h-1V5.1h-2.5V4.2h6v0.9h-2.5
				V12z M122.3,11.1V12h-4.8V4.2h4.8v0.9h-3.8v2.5h3.6v0.9h-3.6v2.7H122.3z"/>
			<g transform="translate(0 56)">
				<path class="st12" d="M28.4,16.1c-0.3,0-0.5-0.1-0.7-0.3s-0.3-0.4-0.3-0.7c0-0.3,0.1-0.5,0.3-0.7s0.4-0.3,0.7-0.3
					c0.3,0,0.5,0.1,0.7,0.3s0.3,0.4,0.3,0.7c0,0.3-0.1,0.5-0.3,0.7S28.6,16.1,28.4,16.1z M35.5,16.3c-1.3,0-2.3-0.5-3-1.5
					c-0.7-1-1-2.5-1-4.4c0-1.9,0.4-3.3,1.1-4.3s1.7-1.6,2.9-1.6c1.3,0,2.2,0.5,2.9,1.6s1.1,2.5,1.1,4.4s-0.3,3.3-1,4.3
					S36.7,16.3,35.5,16.3z M35.5,15c0.8,0,1.5-0.4,1.9-1.2s0.7-2,0.7-3.5c0-1.5-0.2-2.6-0.7-3.5s-1.1-1.2-1.9-1.2S34,6.1,33.6,6.9
					s-0.7,2-0.7,3.4c0,1.5,0.2,2.7,0.7,3.5S34.6,15,35.5,15z M41.4,7.9c0-1,0.3-1.8,1-2.5s1.5-1,2.6-1c1,0,1.9,0.3,2.5,0.9
					s1,1.4,1,2.3c0,0.6-0.2,1.2-0.5,1.7s-1,1.3-1.9,2.3l-2.7,2.9v0.1h5.3V16h-7.3v-1l3.9-4.3c0.7-0.8,1.2-1.4,1.4-1.8
					s0.4-0.8,0.4-1.3c0-0.6-0.2-1-0.6-1.4S45.6,5.7,45,5.7c-0.7,0-1.2,0.2-1.6,0.6s-0.6,0.9-0.6,1.6v0L41.4,7.9L41.4,7.9z M52.2,10
					c-0.7,0-1.3-0.3-1.7-0.8s-0.7-1.2-0.7-2c0-0.8,0.2-1.4,0.7-1.9s1-0.8,1.7-0.8s1.3,0.3,1.7,0.8s0.7,1.2,0.7,2s-0.2,1.4-0.7,2
					S52.9,10,52.2,10z M52.2,9c0.3,0,0.6-0.2,0.8-0.5s0.3-0.7,0.3-1.2c0-0.5-0.1-0.9-0.3-1.2s-0.5-0.5-0.8-0.5
					c-0.3,0-0.6,0.2-0.8,0.5S51,6.7,51,7.2s0.1,0.9,0.3,1.2S51.8,9,52.2,9z M53.7,16h-1.3l3.2-6.2l2.6-5.1h1.3l-2.9,5.6L53.7,16z
					 M59.5,16.2c-0.7,0-1.3-0.3-1.7-0.8s-0.7-1.2-0.7-2c0-0.8,0.2-1.4,0.7-1.9s1-0.8,1.7-0.8s1.3,0.3,1.7,0.8s0.7,1.2,0.7,2
					s-0.2,1.4-0.7,2S60.2,16.2,59.5,16.2z M59.5,15.2c0.3,0,0.6-0.2,0.8-0.5s0.3-0.7,0.3-1.2c0-0.5-0.1-0.9-0.3-1.2
					s-0.5-0.5-0.8-0.5c-0.3,0-0.6,0.2-0.8,0.5s-0.3,0.7-0.3,1.2s0.1,0.9,0.3,1.2S59.1,15.2,59.5,15.2z"/>
				<g>
					<rect class="st3" width="24" height="24"/>
					<defs>
						<filter id="Adobe_OpacityMaskFilter_2_" filterUnits="userSpaceOnUse" x="0" y="0" width="24" height="24">
							<feColorMatrix  type="matrix" values="1 0 0 0 0  0 1 0 0 0  0 0 1 0 0  0 0 0 1 0"/>
						</filter>
					</defs>
					<mask maskUnits="userSpaceOnUse" x="0" y="0" width="24" height="24" id="header-stats-h">
						<g class="st13">
							<path id="header-stats-g" class="st5" d="M11,4v13.6l-4.3-4.3C6.5,13.1,6.3,13,6,13c-0.4,0-0.8,0.2-0.9,0.6
								C4.9,14,5,14.4,5.3,14.7l6,6c0.2,0.2,0.4,0.3,0.7,0.3s0.5-0.1,0.7-0.3l6-6c0.4-0.4,0.4-1,0-1.4c-0.4-0.4-1-0.4-1.4,0L13,17.6
								V4c0-0.5-0.4-1-1-1S11,3.5,11,4z"/>
						</g>
					</mask>
					<g class="st14">
						<rect x="0" y="0" class="st12" width="24" height="24"/>
					</g>
				</g>
			</g>
		</g>
		<g class="st8">
			<g>
				<rect id="header-stats-i" class="st9" width="2" height="112"/>
			</g>
		</g>
	</g>
	<g transform="translate(32 20)">
		<path class="st0" d="M19,39.7V43H6.5v-2.9c2.2-2.2,4.7-5.1,6.3-7.5c0.7-1,1.3-2.2,1.3-3.3c0-1.1-0.9-1.9-2-1.9
			c-1.3,0-2.1,1-2.1,2.6l-3.9-0.6c0.3-3.2,3-5.3,6.1-5.3c3.1,0,6,1.8,6,5.2c0,1.8-0.8,3.6-1.9,5.2c-1.3,1.9-3,3.6-4.5,5.3H19z
			 M25.4,38.8l-2,7.7h-3.8l1.6-7.7H25.4z M31.6,35.2v-3.2c0.9,0,1.7-0.1,2.2-0.2c1.2-0.3,1.9-1.1,1.9-2.2c0-1.1-0.9-2.1-2.4-2.1
			c-1.1,0-2,0.7-2.2,1.9l-3.4-1.5c0.8-2.5,3.1-3.8,5.6-3.8c3.3,0,6.3,1.9,6.3,5c0,1.6-0.9,3.2-2.3,4c1.9,0.7,3.1,2.5,3.1,4.6
			c0,3.6-3.1,5.7-6.7,5.7c-2.6,0-5.2-1.3-6.4-3.9l3.3-1.5c0.6,1.3,1.6,2.1,3.1,2.1c1.4,0,2.7-0.8,2.7-2.3c0-1.7-1.4-2.6-3.4-2.6
			C32.7,35,32.1,35.1,31.6,35.2z M49.5,24.1c4.5,0,6.9,3.6,6.9,9.6s-2.5,9.6-6.9,9.6s-6.9-3.6-6.9-9.6S45.1,24.1,49.5,24.1z
			 M49.5,27.5c-1.8,0-2.9,2-2.9,6.2s1.1,6.2,2.9,6.2s2.9-2,2.9-6.2S51.4,27.5,49.5,27.5z M70.2,24.4v3.3h-6.4
			c-0.1,1.4-0.1,2.6-0.3,3.8c0.7-0.3,1.4-0.4,2.2-0.4c3.2,0,5.4,2.7,5.4,5.7c0,3.8-2.9,6.5-6.6,6.5c-2.8,0-5.1-1.3-6.3-3.7l3.3-1.7
			c0.6,1.5,1.8,2,2.9,2c1.7,0,2.6-1.4,2.6-2.8c0-1.6-1-2.7-2.7-2.7c-0.9,0-1.7,0.3-2.4,1.1l-2.6-1.8c0.3-2.7,0.5-6.9,0.6-9.4H70.2z"
			/>
		<path class="st1" d="M6.9,1.1v3h1.9c0.5,0,0.9-0.1,1.2-0.4s0.4-0.6,0.4-1.1c0-0.5-0.1-0.8-0.4-1.1S9.3,1.1,8.8,1.1H6.9z M6.9,4.9
			V8H6V0.2h3c0.7,0,1.3,0.2,1.8,0.6s0.7,1,0.7,1.7c0,0.5-0.1,1-0.4,1.4s-0.7,0.7-1.1,0.8L11.6,8h-1.1L8.9,4.9H6.9z M18.8,7.1V8H14
			V0.2h4.8v0.9H15v2.5h3.6v0.9H15v2.7H18.8z M22.4,8h-1V0.2h4.7v0.9h-3.7v2.7h3.4v0.9h-3.4V8z M33.4,7.1V8h-4.8V0.2h4.8v0.9h-3.8
			v2.5h3.6v0.9h-3.6v2.7H33.4z M36.9,1.1v3h1.9c0.5,0,0.9-0.1,1.2-0.4s0.4-0.6,0.4-1.1c0-0.5-0.1-0.8-0.4-1.1s-0.7-0.4-1.2-0.4H36.9
			z M36.9,4.9V8h-1V0.2h3c0.7,0,1.3,0.2,1.8,0.6s0.7,1,0.7,1.7c0,0.5-0.1,1-0.4,1.4s-0.7,0.7-1.1,0.8L41.6,8h-1.1l-1.7-3.1H36.9z
			 M45,1.1v3h1.9c0.5,0,0.9-0.1,1.2-0.4c0.3-0.3,0.4-0.6,0.4-1.1c0-0.5-0.1-0.8-0.4-1.1s-0.7-0.4-1.2-0.4H45z M45,4.9V8h-1V0.2h3
			c0.7,0,1.3,0.2,1.8,0.6c0.4,0.4,0.7,1,0.7,1.7c0,0.5-0.1,1-0.4,1.4c-0.3,0.4-0.7,0.7-1.1,0.8L49.7,8h-1.1l-1.7-3.1H45z M57.1,8
			L57,7.7c-0.1-0.2-0.2-0.5-0.3-0.8s-0.2-0.5-0.3-0.8l-0.1-0.3h-3.1L52.4,8h-1l2.9-7.8h1L58.1,8H57.1z M54.7,1.5l-0.1,0.3
			c-0.1,0.2-0.2,0.5-0.3,0.9l-0.4,1c-0.1,0.3-0.2,0.6-0.3,0.9L53.5,5H56L54.7,1.5L54.7,1.5z M65,7.1V8h-4.7V0.2h1v6.9H65z M67,6h1
			c0.1,0.4,0.3,0.7,0.6,1C69,7.2,69.5,7.3,70,7.3c0.5,0,1-0.1,1.3-0.4c0.3-0.3,0.5-0.6,0.5-1c0-0.3-0.1-0.6-0.4-0.8
			c-0.3-0.2-0.6-0.4-1.2-0.5l-1-0.3c-0.7-0.2-1.2-0.4-1.5-0.8s-0.5-0.8-0.5-1.3c0-0.7,0.3-1.2,0.8-1.6s1.2-0.6,2-0.6
			c0.7,0,1.4,0.2,1.9,0.6s0.8,0.9,0.8,1.5h-1c-0.1-0.4-0.3-0.7-0.6-0.9c-0.3-0.2-0.7-0.3-1.2-0.3c-0.5,0-0.9,0.1-1.2,0.4
			s-0.5,0.6-0.5,0.9c0,0.3,0.1,0.6,0.3,0.7s0.6,0.4,1.1,0.5l0.8,0.2c0.8,0.2,1.4,0.5,1.7,0.8s0.5,0.8,0.5,1.4c0,0.7-0.3,1.3-0.8,1.7
			c-0.5,0.4-1.2,0.6-2.1,0.6c-0.8,0-1.5-0.2-2-0.6S67.1,6.6,67,6z"/>
		<g transform="translate(0 52.5)">
			<path class="st2" d="M28.8,16h-1.7v-1.9h1.7V16z M34.4,5.2c2.4,0,3.8,2.1,3.8,5.5s-1.4,5.5-3.8,5.5c-2.4,0-3.8-2.1-3.8-5.5
				S32,5.2,34.4,5.2z M34.4,6.6c-1.4,0-2.2,1.4-2.2,4.1s0.8,4.1,2.2,4.1c1.4,0,2.2-1.4,2.2-4.1S35.8,6.6,34.4,6.6z M45.7,5.4v1.3h-4
				c0,0.9-0.1,2.1-0.2,3c0.5-0.2,1-0.3,1.6-0.3c1.8,0,3.2,1.4,3.2,3.3c0,2-1.5,3.5-3.5,3.5c-1.3,0-2.8-0.7-3.4-1.8l1.2-0.7
				c0.4,0.7,1.2,1.1,2,1.1c1.4,0,2.2-1,2.2-2.1s-0.9-2-2.1-2c-0.6,0-1.2,0.2-1.6,0.7l-1.1-0.6c0.2-1.6,0.3-3.9,0.4-5.4H45.7z
				 M50.3,4.7c1.4,0,2.5,1.1,2.5,2.6c0,1.4-1.1,2.5-2.5,2.5s-2.6-1.1-2.6-2.5C47.7,5.8,48.8,4.7,50.3,4.7z M50.3,5.8
				c-0.8,0-1.4,0.6-1.4,1.4c0,0.8,0.6,1.4,1.4,1.4c0.8,0,1.3-0.6,1.3-1.4C51.6,6.4,51,5.8,50.3,5.8z M56.9,11c1.4,0,2.5,1.1,2.5,2.6
				c0,1.4-1.1,2.5-2.5,2.5s-2.6-1.1-2.6-2.5C54.4,12.1,55.5,11,56.9,11z M56.9,12.1c-0.8,0-1.4,0.6-1.4,1.4c0,0.8,0.6,1.4,1.4,1.4
				c0.8,0,1.3-0.6,1.3-1.4C58.3,12.7,57.7,12.1,56.9,12.1z M57.2,4.6L58,5.2l-8,10.9l-0.9-0.6L57.2,4.6z"/>
			<g>
				<rect class="st3" width="24" height="24"/>
				<defs>
					<filter id="Adobe_OpacityMaskFilter_3_" filterUnits="userSpaceOnUse" x="0" y="0" width="24" height="24">
						<feColorMatrix  type="matrix" values="1 0 0 0 0  0 1 0 0 0  0 0 1 0 0  0 0 0 1 0"/>
					</filter>
				</defs>
				<mask maskUnits="userSpaceOnUse" x="0" y="0" width="24" height="24" id="header-stats-k">
					<g class="st15">
						<path id="header-stats-j" class="st5" d="M13,20V6.4l4.3,4.3c0.2,0.2,0.4,0.3,0.7,0.3c0.4,0,0.8-0.2,0.9-0.6
							c0.2-0.4,0.1-0.8-0.2-1.1l-6-6C12.5,3.1,12.3,3,12,3s-0.5,0.1-0.7,0.3l-6,6c-0.4,0.4-0.4,1,0,1.4c0.4,0.4,1,0.4,1.4,0L11,6.4
							V20c0,0.5,0.4,1,1,1S13,20.5,13,20z"/>
					</g>
				</mask>
				<g class="st16">
					<rect class="st7" width="24" height="24"/>
				</g>
			</g>
		</g>
	</g>
</g>
</svg>
