<svg id="Layer_1" data-name="Layer 1" xmlns="http://www.w3.org/2000/svg" xmlns:xlink="http://www.w3.org/1999/xlink" viewBox="0 0 1440 645"><defs><linearGradient id="linear-gradient" x1="-743.39" y1="-244.65" x2="-742.39" y2="-243.65" gradientTransform="matrix(1440, 0, 0, -647, 1070619, -157583)" gradientUnits="userSpaceOnUse"><stop offset="0" stop-color="#2199f4" stop-opacity="0.3"/><stop offset="0.53" stop-color="#7675a5"/><stop offset="1" stop-color="#af1662" stop-opacity="0.5"/></linearGradient><linearGradient id="linear-gradient-2" x1="663.1" y1="332.5" x2="759.57" y2="451.53" gradientUnits="userSpaceOnUse"><stop offset="0" stop-color="#2e5a7b"/><stop offset="1" stop-color="#108cf6"/></linearGradient></defs><title>Artboard 2</title><rect width="1440" height="645" style="fill:#202022"/><polygon points="0 645 1440 645 1440.07 0 1248 214.15 865 378.18 648 323.5 399 426.02 165 341.73 0 243.76 0 645" style="fill-opacity:0.2199999988079071;fill:url(#linear-gradient)"/><polygon points="0 645 1440 645 1440.01 344 1219 465 1021 450 860 489 642 402 399 539 167.88 465.88 0 460 0 645" style="fill:#2199f4;fill-opacity:0.20000000298023224"/><polygon points="0 645 1440 645 1440 439.19 1440 390.39 1232 390.39 860 558.35 641 501.61 393 568.56 0 516.36 0 645" style="fill:#2199f4;fill-opacity:0.10000000149011612"/><polygon points="1440 343.92 1218.67 463.47 1020.11 448.5 1019.88 448.49 860.11 486.43 642.55 400.6 641.89 400.34 398.83 536.37 168.45 463.57 168.25 463.51 0 458.5 0 461.5 167.75 466.49 398.55 539.43 399.17 539.63 642.11 403.66 859.45 489.4 859.89 489.57 1020.12 451.51 1218.89 466.5 1219.33 466.53 1440 347.32 1440 343.92" style="fill:url(#linear-gradient-2)"/></svg>