<svg xmlns="http://www.w3.org/2000/svg" width="300" height="669" viewBox="0 0 300 669">
  <g fill="none" fill-rule="evenodd" transform="translate(-992 -239)">
    <path fill="#EAEBED" d="M91.04,35.28 C126.02,35.28 145.6,63.88 145.6,110.96 C145.6,158.04 126.02,186.64 91.04,186.64 C56.06,186.64 36.48,158.04 36.48,110.96 C36.48,63.88 56.06,35.28 91.04,35.28 Z M91.04,61.9 C76.52,61.9 68.16,77.96 68.16,110.96 C68.16,143.96 76.52,160.02 91.04,160.02 C105.56,160.02 113.92,143.96 113.92,110.96 C113.92,77.96 105.56,61.9 91.04,61.9 Z M191.58,122.62 L191.58,97.1 C198.4,97.1 204.78,96.44 208.74,95.34 C217.98,93.14 223.92,86.76 223.92,77.96 C223.92,68.94 217.1,61.68 205.44,61.68 C196.64,61.68 189.6,66.96 187.84,76.42 L161.44,64.98 C167.6,45.62 185.86,35.28 205.66,35.28 C231.4,35.28 255.16,50.24 255.16,74.44 C255.16,86.98 247.9,99.52 237.12,105.68 C252.08,111.18 261.76,125.7 261.76,141.76 C261.76,170.14 237.78,186.64 208.96,186.64 C188.28,186.64 167.82,176.08 159.02,155.62 L185.2,143.52 C189.6,154.08 197.96,160.24 209.18,160.24 C220.18,160.24 230.08,153.86 230.08,141.98 C230.08,128.56 218.86,121.52 203.24,121.52 C200.6,121.52 195.76,121.74 191.58,122.62 Z" transform="translate(992 204)"/>
  </g>
</svg>
