<svg xmlns="http://www.w3.org/2000/svg" viewBox="0 0 680 750"><defs><linearGradient id="a" x1="200.16" y1="567.48" x2="275.52" y2="567.48" gradientUnits="userSpaceOnUse"><stop offset="0" stop-color="#d1dee8" stop-opacity="0"/><stop offset=".56" stop-color="#e3f2fd"/></linearGradient></defs><title>icons-blue-skies</title><path fill="none" d="M680 750H0V0h680z"/><path d="M342.48 555.61h5.64c3.3 0 4.82 2.15 4.82 5.88 0 3-1.19 5-3.14 5.45v.13c2.38.53 3.33 2.74 3.33 5.54 0 4.72-2 6.54-4.85 6.54h-5.81zM347.3 566c1.72 0 3-1.25 3-4.22 0-2.74-1.06-3.93-2.61-3.93h-2.51V566zm.43 10.89c1.75 0 2.67-1.55 2.67-4.46s-1.25-4.22-3.07-4.22h-2.14v8.68zm10.43-21.28h2.71v21.16h6.67v2.38h-9.37zm13.16 18.48v-18.48H374v18.22c0 2.24 1.35 3.23 3 3.23 2 0 2.9-1.35 2.84-3.2v-18.25h2.58v18.29c0 3.47-2.25 5.58-5.61 5.58-3.21-.01-5.49-1.72-5.49-5.39zm16.5-18.48h9.34v2.31h-6.63v7.76h5.31V568h-5.31v8.75h6.67v2.38h-9.37zm19.77 17.99l2.57-.1c.2 2.15 1 3.76 2.84 3.76s2.57-1.72 2.57-3.3a6.89 6.89 0 0 0-2-4.46l-2.77-3.13c-1.72-1.82-2.8-3.7-2.8-5.84 0-2.94 1.72-5.28 5.12-5.28 2.61 0 4.65 1.39 4.88 5.51l-2.44.07c-.26-2.28-1-3.37-2.61-3.37s-2.41 1-2.41 2.84c0 1.49 1.09 2.84 2.31 4.22l2.44 2.77a9.27 9.27 0 0 1 2.9 6.5c0 3.3-1.85 5.68-5.18 5.68s-5.19-2.11-5.42-5.87zm15.28-17.99h2.74v11.59l5.84-11.58h2.74l-4.59 9 4.65 14.55h-2.9l-3.73-12-2 3.76v8.25h-2.74zm15.8 0h2.74v23.53h-2.74zm8.22 0h9.34v2.31h-6.63v7.76h5.31V568h-5.31v8.75h6.67v2.38h-9.37zm12.97 17.99l2.57-.1c.2 2.15 1 3.76 2.84 3.76s2.57-1.72 2.57-3.3a6.89 6.89 0 0 0-2-4.46l-2.84-3.13c-1.72-1.82-2.8-3.7-2.8-5.84 0-2.94 1.72-5.28 5.12-5.28 2.61 0 4.65 1.39 4.88 5.51l-2.44.07c-.26-2.28-1-3.37-2.61-3.37s-2.41 1-2.41 2.84c0 1.49 1.09 2.84 2.31 4.22l2.44 2.77a9.27 9.27 0 0 1 2.9 6.5c0 3.3-1.85 5.68-5.18 5.68s-5.12-2.11-5.35-5.87z" fill="#1e497c"/><path fill="#1bbaff" d="M210.72 517.11h31.34v19.44h-31.34z"/><path fill="#254f73" d="M208.62 515.47h2.57v54.69h-2.57z"/><path fill="#1bbaff" d="M233.56 610.32l26.46-29.74 26.45 29.74h-52.91z"/><path fill="#254f73" d="M260.02 580.58v29.74h26.45l-26.45-29.74z"/><path fill="#1bbaff" d="M158.92 610.32l49.66-55.82 49.65 55.82h-99.31z"/><path fill="#254f73" d="M208.58 554.5v55.82h49.65l-49.65-55.82z"/><path d="M271.18 571.79h-21.31a4.34 4.34 0 0 1 .73-8.62h6.4a4.34 4.34 0 1 0 0-8.68h-52.51a4.34 4.34 0 0 0 0 8.68H224a4.34 4.34 0 0 1 .73 8.62h-6.05a4.34 4.34 0 1 0 0 8.68h52.54a4.34 4.34 0 0 0 0-8.68z" fill="url(#a)"/></svg>