<svg xmlns="http://www.w3.org/2000/svg" xmlns:xlink="http://www.w3.org/1999/xlink" viewBox="0 0 680 750"><defs><linearGradient id="a" x1="165.29" y1="415.07" x2="248.05" y2="415.07" gradientUnits="userSpaceOnUse"><stop offset="0.44" stop-color="#e3f2fd"/><stop offset="1" stop-color="#d1dee8" stop-opacity="0"/></linearGradient><linearGradient id="b" x1="169.85" y1="376.65" x2="262.31" y2="376.65" gradientUnits="userSpaceOnUse"><stop offset="0" stop-color="#254f73"/><stop offset="1" stop-color="#28568b"/></linearGradient><linearGradient id="c" x1="218.76" y1="342.39" x2="301.53" y2="342.39" gradientUnits="userSpaceOnUse"><stop offset="0" stop-color="#d1dee8" stop-opacity="0"/><stop offset="0.56" stop-color="#e3f2fd"/></linearGradient></defs><title>icons-enterprise</title><rect width="680" height="750" transform="translate(680 750) rotate(180)" style="fill:none"/><path d="M342.48,357.61h9.34v2.31h-6.63v7.76h5.31V370h-5.31v8.75h6.67v2.38h-9.37Z" style="fill:#1e497c"/><path d="M356.64,357.61h2.94l6,16.63h.07V357.61h2.38v23.53h-2.51l-6.4-18.05H359v18.05h-2.41Z" style="fill:#1e497c"/><path d="M376.87,359.92h-4.49v-2.31h11.68v2.31h-4.49v21.22h-2.71Z" style="fill:#1e497c"/><path d="M388.35,357.61h9.34v2.31h-6.63v7.76h5.31V370h-5.31v8.75h6.67v2.38h-9.37Z" style="fill:#1e497c"/><path d="M402.51,357.61h5.18c3.73,0,5.58,2.38,5.58,6.54,0,3.33-1.22,5.48-3.14,6.11l3.37,10.89h-2.77l-3.14-10.26h-2.34v10.26h-2.74Zm5.12,11.16c1.95,0,2.9-1.55,2.9-4.39,0-2.31-.69-4.46-3-4.46h-2.28v8.84Z" style="fill:#1e497c"/><path d="M418.38,357.61h5.28c3.79,0,5.31,2.77,5.31,6.83,0,4.36-1.75,7.2-5.54,7.2h-2.31v9.5h-2.74Zm4.75,11.75c2.18,0,3.17-1.72,3.17-4.88,0-2.64-.76-4.52-3-4.52h-2.18v9.41Z" style="fill:#1e497c"/><path d="M433.92,357.61h5.18c3.73,0,5.58,2.38,5.58,6.54,0,3.33-1.22,5.48-3.14,6.11l3.37,10.89h-2.77L439,370.88h-2.34v10.26h-2.74ZM439,368.77c1.95,0,2.9-1.55,2.9-4.39,0-2.31-.69-4.46-3-4.46h-2.28v8.84Z" style="fill:#1e497c"/><path d="M449.8,357.61h2.74v23.53H449.8Z" style="fill:#1e497c"/><path d="M457.25,375.6l2.57-.1c.2,2.15,1,3.76,2.84,3.76s2.57-1.72,2.57-3.3a6.89,6.89,0,0,0-2-4.46l-2.77-3.13c-1.72-1.82-2.8-3.7-2.8-5.84,0-2.94,1.72-5.28,5.12-5.28,2.61,0,4.65,1.39,4.88,5.51l-2.44.07c-.26-2.28-1-3.37-2.61-3.37s-2.41,1-2.41,2.84c0,1.49,1.09,2.84,2.31,4.22l2.44,2.77a9.27,9.27,0,0,1,2.9,6.5c0,3.3-1.85,5.68-5.18,5.68S457.49,379.36,457.25,375.6Z" style="fill:#1e497c"/><path d="M472.53,357.61h9.34v2.31h-6.63v7.76h5.31V370h-5.31v8.75h6.67v2.38h-9.37Z" style="fill:#1e497c"/><path d="M243.29,419.8H219.88a4.76,4.76,0,0,1,.8-9.46h7.07a4.76,4.76,0,1,0,0-9.53h-57.7a4.76,4.76,0,0,0,0,9.53h21.39a4.76,4.76,0,0,1,.8,9.46h-6.65a4.76,4.76,0,1,0,0,9.53h57.7a4.76,4.76,0,1,0,0-9.53Z" style="fill:url(#a)"/><path d="M216.08,330.42a46.23,46.23,0,1,0,46.23,46.23A46.25,46.25,0,0,0,216.08,330.42Z" style="fill:url(#b)"/><path d="M211.46,413.3a36.93,36.93,0,0,1-32.36-36.66,37.63,37.63,0,0,1,1-8.28l22.14,22.15v4.62a9.27,9.27,0,0,0,9.25,9.25Zm31.9-11.74a9.17,9.17,0,0,0-8.79-6.42h-4.62V381.27a4.64,4.64,0,0,0-4.62-4.62H197.59V367.4h9.24a4.64,4.64,0,0,0,4.62-4.62v-9.24h9.25a9.28,9.28,0,0,0,9.25-9.24v-1.9a36.9,36.9,0,0,1,13.41,59.17Z" style="fill:#1bbaff"/><path d="M276,406h.49a7.54,7.54,0,0,1,6.07-6.07v-.49a7.54,7.54,0,0,1-6.07-6.07H276a7.53,7.53,0,0,1-6.07,6.07v.49A7.54,7.54,0,0,1,276,406Z" style="fill:#1bbaff"/><path d="M178.91,335.07h.36a5.56,5.56,0,0,1,4.47-4.48v-.36a5.56,5.56,0,0,1-4.47-4.47h-.36a5.56,5.56,0,0,1-4.47,4.47v.36A5.55,5.55,0,0,1,178.91,335.07Z" style="fill:#1bbaff"/><path d="M223.53,347.12h23.41a4.76,4.76,0,0,0-.8-9.46h-7.07a4.76,4.76,0,0,1,0-9.53h57.7a4.76,4.76,0,0,1,0,9.53H275.37a4.76,4.76,0,0,0-.79,9.46h6.65a4.76,4.76,0,0,1,0,9.53h-57.7a4.76,4.76,0,1,1,0-9.53Z" style="fill:url(#c)"/></svg>