<svg xmlns="http://www.w3.org/2000/svg" xmlns:xlink="http://www.w3.org/1999/xlink" viewBox="0 0 680 750"><defs><linearGradient id="a" x1="246.66" y1="155.45" x2="276.9" y2="155.45" gradientUnits="userSpaceOnUse"><stop offset="0" stop-color="#d1dee8" stop-opacity="0"/><stop offset="0.56" stop-color="#e3f2fd" stop-opacity="0.25"/></linearGradient></defs><title>icons-media</title><path d="M342.48,145.61h3.3l3.56,10.17h.07L353,145.61h3.17v23.53h-2.48V150.46h-.07l-3.43,9.77h-1.85L345,150.5h-.07v18.65h-2.44Z" style="fill:#1e497c"/><path d="M361.69,145.61H371v2.31h-6.63v7.76h5.31V158h-5.31v8.75h6.67v2.38h-9.37Z" style="fill:#1e497c"/><path d="M375.84,145.61h5.58c3.1,0,5.48,1.58,5.48,5V163.8c0,3.63-2.38,5.35-5.54,5.35h-5.51Zm5.31,21.16a2.78,2.78,0,0,0,3-3V150.83a2.69,2.69,0,0,0-3-2.87h-2.61v18.81Z" style="fill:#1e497c"/><path d="M392,145.61h2.74v23.53H392Z" style="fill:#1e497c"/><path d="M404.09,145.55h3.63l4.72,23.6H409.7l-1.35-7h-5.21l-1.32,7h-2.54Zm3.79,14.32-2.08-11.19h-.1l-2.11,11.19Z" style="fill:#1e497c"/><path d="M422.67,163.1a7.54,7.54,0,0,1,3.7-6.9,12.23,12.23,0,0,1-2-5.87c0-2.51,1.32-5.15,4.75-5.15,2.94,0,4.46,2.18,4.46,4.85a7.51,7.51,0,0,1-3.93,6.73c.1.2,3.24,5.51,3.3,5.68a32,32,0,0,0,.92-4l2.15.23a26.11,26.11,0,0,1-1.78,6.14c.1.23,2.38,4,2.44,4.29h-2.9l-1.35-2.28a5.62,5.62,0,0,1-4.62,2.67C424.25,169.54,422.67,166.7,422.67,163.1Zm8.65,1.88c-.13-.26-3.76-6.54-3.89-6.83a5.35,5.35,0,0,0-2.15,4.79c0,2,.89,4.26,2.94,4.26A3.85,3.85,0,0,0,431.32,165Zm-.13-14.89c0-1.62-.79-2.9-2.18-2.9-1.55,0-2.18,1.42-2.18,2.94a11.27,11.27,0,0,0,1.78,4.85A5.37,5.37,0,0,0,431.19,150.1Z" style="fill:#1e497c"/><path d="M342.48,184.61h9.34v2.31h-6.63v7.76h5.31V197h-5.31v8.75h6.67v2.38h-9.37Z" style="fill:#1e497c"/><path d="M356.64,184.61h2.94l6,16.63h.07V184.61h2.38v23.53h-2.51l-6.4-18.05H359v18.05h-2.41Z" style="fill:#1e497c"/><path d="M376.87,186.92h-4.49v-2.31h11.68v2.31h-4.49v21.22h-2.71Z" style="fill:#1e497c"/><path d="M388.35,184.61h9.34v2.31h-6.63v7.76h5.31V197h-5.31v8.75h6.67v2.38h-9.37Z" style="fill:#1e497c"/><path d="M402.51,184.61h5.18c3.73,0,5.58,2.38,5.58,6.54,0,3.33-1.22,5.48-3.14,6.11l3.37,10.89h-2.77l-3.14-10.26h-2.34v10.26h-2.74Zm5.12,11.16c1.95,0,2.9-1.55,2.9-4.39,0-2.31-.69-4.46-3-4.46h-2.28v8.84Z" style="fill:#1e497c"/><path d="M421.19,186.92H416.7v-2.31h11.68v2.31h-4.49v21.22h-2.71Z" style="fill:#1e497c"/><path d="M435,184.55h3.63l4.72,23.6h-2.74l-1.35-7h-5.21l-1.32,7h-2.54Zm3.79,14.32-2.08-11.19h-.1l-2.11,11.19Z" style="fill:#1e497c"/><path d="M447.88,184.61h2.74v23.53h-2.74Z" style="fill:#1e497c"/><path d="M456.1,184.61H459l6,16.63h.07V184.61h2.38v23.53H465l-6.4-18.05h-.1v18.05H456.1Z" style="fill:#1e497c"/><path d="M473,184.61h3.3l3.56,10.17H480l3.63-10.17h3.17v23.53h-2.48V189.46h-.07l-3.43,9.77h-1.85l-3.4-9.74h-.07v18.65H473Z" style="fill:#1e497c"/><path d="M492.23,184.61h9.34v2.31h-6.63v7.76h5.31V197h-5.31v8.75h6.67v2.38h-9.37Z" style="fill:#1e497c"/><path d="M506.39,184.61h2.94l6,16.63h.07V184.61h2.38v23.53H515.3l-6.4-18.05h-.1v18.05h-2.41Z" style="fill:#1e497c"/><path d="M526.62,186.92h-4.49v-2.31h11.68v2.31h-4.49v21.22h-2.71Z" style="fill:#1e497c"/><rect width="680" height="750" transform="translate(680 750) rotate(180)" style="fill:none"/><path d="M277.9,169.09V157.66h-1V132.94a4.57,4.57,0,0,0-4.57-4.57H234a4.57,4.57,0,0,0-4.57,4.57V145.3H224.8a6.69,6.69,0,0,0-6.69,6.69v23.29H172V212h57.43V217A4.58,4.58,0,0,0,234,221.6h38.34A4.58,4.58,0,0,0,276.9,217V212h1V200.52h-1v-2.85h1V186.23h-1v-2.85h1V171.95h-1v-2.85Z" style="fill:#e3f2fd"/><rect x="229.41" y="128.36" width="47.49" height="93.24" rx="4.57" ry="4.57" style="fill:#1bbaff"/><polygon points="270.19 148.21 251.37 148.21 251.37 160.15 261.89 160.15 261.89 164.16 266.17 160.15 270.19 160.15 270.19 148.21" style="fill:#254f73"/><circle cx="255.85" cy="154.3" r="1.61" style="fill:#1bbaff"/><circle cx="260.53" cy="154.3" r="1.61" style="fill:#1bbaff"/><circle cx="265.2" cy="154.3" r="1.61" style="fill:#1bbaff"/><polygon points="241.03 178.41 259.86 178.41 259.86 190.35 249.34 190.35 249.34 194.36 245.05 190.35 241.03 190.35 241.03 178.41" style="fill:#254f73"/><circle cx="255.37" cy="184.49" r="1.61" style="fill:#1bbaff"/><circle cx="250.69" cy="184.49" r="1.61" style="fill:#1bbaff"/><circle cx="246.02" cy="184.49" r="1.61" style="fill:#1bbaff"/><path d="M276.9,132.94a4.57,4.57,0,0,0-4.57-4.57H246.66l30.25,54.17Z" style="fill:url(#a)"/><path d="M276.9,217a4.58,4.58,0,0,1-4.57,4.57H234a4.58,4.58,0,0,1-4.57-4.57V212H276.9Z" style="fill:#255d80"/><path d="M229.41,132.94a4.57,4.57,0,0,1,4.57-4.57h38.34a4.57,4.57,0,0,1,4.57,4.57v4.83H229.41Z" style="fill:#255d80"/><path d="M229.41,212h-11.3V152a6.69,6.69,0,0,1,6.69-6.69h4.61Z" style="fill:#e3f2fd"/><rect x="209.73" y="175.28" width="8.38" height="36.68" style="fill:#1bbaff"/><path d="M277.9,212h-9.51a5.19,5.19,0,0,1-5.19-5.19v-1.06a5.19,5.19,0,0,1,5.19-5.19h9.51Z" style="fill:#e3f2fd"/><path d="M277.9,183.38h-9.51a5.19,5.19,0,0,1-5.19-5.19v-1.05a5.19,5.19,0,0,1,5.19-5.19h9.51Z" style="fill:#e3f2fd"/><path d="M277.9,197.67h-9.51a5.18,5.18,0,0,1-5.19-5.19v-1.06a5.19,5.19,0,0,1,5.19-5.19h9.51Z" style="fill:#e3f2fd"/><path d="M277.9,169.09h-9.51a5.19,5.19,0,0,1-5.19-5.19v-1.06a5.19,5.19,0,0,1,5.19-5.19h9.51Z" style="fill:#e3f2fd"/><rect x="171.98" y="175.28" width="37.75" height="22.27" style="fill:#255d80"/><rect x="171.98" y="196.55" width="37.75" height="15.41" style="fill:#254f73"/></svg>