<svg xmlns="http://www.w3.org/2000/svg" viewBox="0 0 680 750"><defs><linearGradient id="a" x1="246.66" y1="155.45" x2="276.9" y2="155.45" gradientUnits="userSpaceOnUse"><stop offset="0" stop-color="#d1dee8" stop-opacity="0"/><stop offset=".56" stop-color="#e3f2fd" stop-opacity=".25"/></linearGradient></defs><title>icons-media</title><path d="M342.48 145.61h3.3l3.56 10.17h.07l3.59-10.17h3.17v23.53h-2.48v-18.68h-.07l-3.43 9.77h-1.85L345 150.5h-.07v18.65h-2.44zm19.21 0H371v2.31h-6.63v7.76h5.31V158h-5.31v8.75h6.67v2.38h-9.37zm14.15 0h5.58c3.1 0 5.48 1.58 5.48 5v13.19c0 3.63-2.38 5.35-5.54 5.35h-5.51zm5.31 21.16a2.78 2.78 0 0 0 3-3v-12.94a2.69 2.69 0 0 0-3-2.87h-2.61v18.81zM392 145.61h2.74v23.53H392zm12.09-.06h3.63l4.72 23.6h-2.74l-1.35-7h-5.21l-1.32 7h-2.54zm3.79 14.32l-2.08-11.19h-.1l-2.11 11.19zm14.79 3.23a7.54 7.54 0 0 1 3.7-6.9 12.23 12.23 0 0 1-2-5.87c0-2.51 1.32-5.15 4.75-5.15 2.94 0 4.46 2.18 4.46 4.85a7.51 7.51 0 0 1-3.93 6.73c.1.2 3.24 5.51 3.3 5.68a32 32 0 0 0 .92-4l2.15.23a26.11 26.11 0 0 1-1.78 6.14c.1.23 2.38 4 2.44 4.29h-2.9l-1.35-2.28a5.62 5.62 0 0 1-4.62 2.67c-3.56.05-5.14-2.79-5.14-6.39zm8.65 1.88c-.13-.26-3.76-6.54-3.89-6.83a5.35 5.35 0 0 0-2.15 4.79c0 2 .89 4.26 2.94 4.26a3.85 3.85 0 0 0 3.1-2.2zm-.13-14.89c0-1.62-.79-2.9-2.18-2.9-1.55 0-2.18 1.42-2.18 2.94a11.27 11.27 0 0 0 1.78 4.85 5.37 5.37 0 0 0 2.58-4.88zm-88.71 34.52h9.34v2.31h-6.63v7.76h5.31V197h-5.31v8.75h6.67v2.38h-9.37zm14.16 0h2.94l6 16.63h.07v-16.63h2.38v23.53h-2.51l-6.4-18.05H359v18.05h-2.41zm20.23 2.31h-4.49v-2.31h11.68v2.31h-4.49v21.22h-2.71zm11.48-2.31h9.34v2.31h-6.63v7.76h5.31V197h-5.31v8.75h6.67v2.38h-9.37zm14.16 0h5.18c3.73 0 5.58 2.38 5.58 6.54 0 3.33-1.22 5.48-3.14 6.11l3.37 10.89h-2.77l-3.14-10.26h-2.34v10.26h-2.74zm5.12 11.16c1.95 0 2.9-1.55 2.9-4.39 0-2.31-.69-4.46-3-4.46h-2.28v8.84zm13.56-8.85h-4.49v-2.31h11.68v2.31h-4.49v21.22h-2.71zm13.81-2.37h3.63l4.72 23.6h-2.74l-1.35-7h-5.21l-1.32 7h-2.54zm3.79 14.32l-2.08-11.19h-.1l-2.11 11.19zm9.09-14.26h2.74v23.53h-2.74zm8.22 0h2.9l6 16.63h.07v-16.63h2.38v23.53H465l-6.4-18.05h-.1v18.05h-2.4zm16.9 0h3.3l3.56 10.17h.14l3.63-10.17h3.17v23.53h-2.48v-18.68h-.07l-3.43 9.77h-1.85l-3.4-9.74h-.07v18.65H473zm19.23 0h9.34v2.31h-6.63v7.76h5.31V197h-5.31v8.75h6.67v2.38h-9.37zm14.16 0h2.94l6 16.63h.07v-16.63h2.38v23.53h-2.48l-6.4-18.05h-.1v18.05h-2.41zm20.23 2.31h-4.49v-2.31h11.68v2.31h-4.49v21.22h-2.71z" fill="#1e497c"/><path fill="none" d="M680 750H0V0h680z"/><path d="M277.9 169.09v-11.43h-1v-24.72a4.57 4.57 0 0 0-4.57-4.57H234a4.57 4.57 0 0 0-4.57 4.57v12.36h-4.63a6.69 6.69 0 0 0-6.69 6.69v23.29H172V212h57.43v5a4.58 4.58 0 0 0 4.57 4.6h38.34a4.58 4.58 0 0 0 4.56-4.6v-5h1v-11.48h-1v-2.85h1v-11.44h-1v-2.85h1v-11.43h-1v-2.85z" fill="#e3f2fd"/><rect x="229.41" y="128.36" width="47.49" height="93.24" rx="4.57" ry="4.57" fill="#1bbaff"/><path fill="#254f73" d="M270.19 148.21h-18.82v11.94h10.52v4.01l4.28-4.01h4.02v-11.94z"/><circle cx="255.85" cy="154.3" r="1.61" fill="#1bbaff"/><circle cx="260.53" cy="154.3" r="1.61" fill="#1bbaff"/><circle cx="265.2" cy="154.3" r="1.61" fill="#1bbaff"/><path fill="#254f73" d="M241.03 178.41h18.83v11.94h-10.52v4.01l-4.29-4.01h-4.02v-11.94z"/><circle cx="255.37" cy="184.49" r="1.61" fill="#1bbaff"/><circle cx="250.69" cy="184.49" r="1.61" fill="#1bbaff"/><circle cx="246.02" cy="184.49" r="1.61" fill="#1bbaff"/><path d="M276.9 132.94a4.57 4.57 0 0 0-4.57-4.57h-25.67l30.25 54.17z" fill="url(#a)"/><path d="M276.9 217a4.58 4.58 0 0 1-4.57 4.57H234a4.58 4.58 0 0 1-4.57-4.57v-5h47.47zm-47.49-84.06a4.57 4.57 0 0 1 4.57-4.57h38.34a4.57 4.57 0 0 1 4.57 4.57v4.83h-47.48z" fill="#255d80"/><path d="M229.41 212h-11.3v-60a6.69 6.69 0 0 1 6.69-6.69h4.61z" fill="#e3f2fd"/><path fill="#1bbaff" d="M209.73 175.28h8.38v36.68h-8.38z"/><path d="M277.9 212h-9.51a5.19 5.19 0 0 1-5.19-5.19v-1.06a5.19 5.19 0 0 1 5.19-5.19h9.51zm0-28.62h-9.51a5.19 5.19 0 0 1-5.19-5.19v-1.05a5.19 5.19 0 0 1 5.19-5.19h9.51zm0 14.29h-9.51a5.18 5.18 0 0 1-5.19-5.19v-1.06a5.19 5.19 0 0 1 5.19-5.19h9.51zm0-28.58h-9.51a5.19 5.19 0 0 1-5.19-5.19v-1.06a5.19 5.19 0 0 1 5.19-5.19h9.51z" fill="#e3f2fd"/><path fill="#255d80" d="M171.98 175.28h37.75v22.27h-37.75z"/><path fill="#254f73" d="M171.98 196.55h37.75v15.41h-37.75z"/></svg>