<svg xmlns="http://www.w3.org/2000/svg" xmlns:xlink="http://www.w3.org/1999/xlink" viewBox="0 0 680 750"><defs><linearGradient id="a" x1="200.16" y1="567.48" x2="275.52" y2="567.48" gradientUnits="userSpaceOnUse"><stop offset="0" stop-color="#d1dee8" stop-opacity="0"/><stop offset="0.56" stop-color="#e3f2fd"/></linearGradient></defs><title>icons-blue-skies</title><rect width="680" height="750" transform="translate(680 750) rotate(180)" style="fill:none"/><path d="M342.48,555.61h5.64c3.3,0,4.82,2.15,4.82,5.88,0,3-1.19,5-3.14,5.45v.13c2.38.53,3.33,2.74,3.33,5.54,0,4.72-2,6.54-4.85,6.54h-5.81ZM347.3,566c1.72,0,3-1.25,3-4.22,0-2.74-1.06-3.93-2.61-3.93h-2.51V566Zm.43,10.89c1.75,0,2.67-1.55,2.67-4.46s-1.25-4.22-3.07-4.22h-2.14v8.68Z" style="fill:#1e497c"/><path d="M358.16,555.61h2.71v21.16h6.67v2.38h-9.37Z" style="fill:#1e497c"/><path d="M371.32,574.09V555.61H374v18.22c0,2.24,1.35,3.23,3,3.23,2,0,2.9-1.35,2.84-3.2V555.61h2.58V573.9c0,3.47-2.25,5.58-5.61,5.58C373.6,579.47,371.32,577.76,371.32,574.09Z" style="fill:#1e497c"/><path d="M387.82,555.61h9.34v2.31h-6.63v7.76h5.31V568h-5.31v8.75h6.67v2.38h-9.37Z" style="fill:#1e497c"/><path d="M407.59,573.6l2.57-.1c.2,2.15,1,3.76,2.84,3.76s2.57-1.72,2.57-3.3a6.89,6.89,0,0,0-2-4.46l-2.77-3.13c-1.72-1.82-2.8-3.7-2.8-5.84,0-2.94,1.72-5.28,5.12-5.28,2.61,0,4.65,1.39,4.88,5.51l-2.44.07c-.26-2.28-1-3.37-2.61-3.37s-2.41,1-2.41,2.84c0,1.49,1.09,2.84,2.31,4.22l2.44,2.77a9.27,9.27,0,0,1,2.9,6.5c0,3.3-1.85,5.68-5.18,5.68S407.82,577.36,407.59,573.6Z" style="fill:#1e497c"/><path d="M422.87,555.61h2.74V567.2l5.84-11.58h2.74l-4.59,9,4.65,14.55h-2.9l-3.73-12-2,3.76v8.25h-2.74Z" style="fill:#1e497c"/><path d="M438.67,555.61h2.74v23.53h-2.74Z" style="fill:#1e497c"/><path d="M446.89,555.61h9.34v2.31H449.6v7.76h5.31V568H449.6v8.75h6.67v2.38h-9.37Z" style="fill:#1e497c"/><path d="M459.86,573.6l2.57-.1c.2,2.15,1,3.76,2.84,3.76s2.57-1.72,2.57-3.3a6.89,6.89,0,0,0-2-4.46L463,566.37c-1.72-1.82-2.8-3.7-2.8-5.84,0-2.94,1.72-5.28,5.12-5.28,2.61,0,4.65,1.39,4.88,5.51l-2.44.07c-.26-2.28-1-3.37-2.61-3.37s-2.41,1-2.41,2.84c0,1.49,1.09,2.84,2.31,4.22l2.44,2.77a9.27,9.27,0,0,1,2.9,6.5c0,3.3-1.85,5.68-5.18,5.68S460.09,577.36,459.86,573.6Z" style="fill:#1e497c"/><rect x="210.72" y="517.11" width="31.34" height="19.44" style="fill:#1bbaff"/><rect x="208.62" y="515.47" width="2.57" height="54.69" style="fill:#254f73"/><polygon points="233.56 610.32 260.02 580.58 286.47 610.32 233.56 610.32" style="fill:#1bbaff"/><polygon points="260.02 580.58 260.02 610.32 286.47 610.32 260.02 580.58" style="fill:#254f73"/><polygon points="158.92 610.32 208.58 554.5 258.23 610.32 158.92 610.32" style="fill:#1bbaff"/><polygon points="208.58 554.5 208.58 610.32 258.23 610.32 208.58 554.5" style="fill:#254f73"/><path d="M271.18,571.79H249.87a4.34,4.34,0,0,1,.73-8.62H257a4.34,4.34,0,1,0,0-8.68H204.49a4.34,4.34,0,0,0,0,8.68H224a4.34,4.34,0,0,1,.73,8.62h-6.05a4.34,4.34,0,1,0,0,8.68h52.54a4.34,4.34,0,0,0,0-8.68Z" style="fill:url(#a)"/></svg>