<svg xmlns="http://www.w3.org/2000/svg" viewBox="0 0 164.06 56.31"><title>andPizza-logo</title><g id="Layer_2" data-name="Layer 2"><g id="Layer_1-2" data-name="Layer 1"><polygon points="93.21 38.07 103.92 25.92 103.92 19.53 81.9 19.53 81.9 27.31 92.4 27.31 81.9 39.41 81.9 45.91 103.92 45.91 103.92 38.07 93.21 38.07"/><polygon points="119.6 38.07 130.3 25.92 130.3 19.53 108.28 19.53 108.28 27.31 118.79 27.31 108.28 39.41 108.28 45.91 130.3 45.91 130.3 38.07 119.6 38.07"/><rect x="69.07" y="19.49" width="8.19" height="26.42"/><path d="M28.48,36.85l.54-1a17,17,0,0,0,1.9-7.75H22.39L12.54,13.76c-2.38-3.59.09-6.6,2.85-6.6a3.81,3.81,0,0,1,3.86,3.75,3.61,3.61,0,0,1-.09.79c0,.16-.07.32-.11.49a4.67,4.67,0,0,1-1.61,2.26l4.12,5.89C31.1,13.39,26.77,0,15.1,0,7.69,0-.51,8.22,6.1,19L7.22,20.7,5.81,21.82C1.9,24.94,0,28.56,0,32.87a12.76,12.76,0,0,0,4.17,9.66,14,14,0,0,0,10.13,4,13.63,13.63,0,0,0,7.84-2.59l1.4-.95,1.94,2.84h9ZM13.67,38.63a5.86,5.86,0,0,1-4.18-1.8,5.6,5.6,0,0,1-1.57-4,5.73,5.73,0,0,1,2.54-4.69L12,27.09l6.65,9.18a5.83,5.83,0,0,1-4.94,2.37"/><path d="M51.32,19.09A13.81,13.81,0,0,0,37.53,32.88V56.31h8.28V45.52a13.79,13.79,0,1,0,5.51-26.43m0,19.31A5.52,5.52,0,0,1,45.81,33v-.25a5.51,5.51,0,1,1,5.51,5.64"/><path d="M154.12,45.93h6.66V32.71A13.79,13.79,0,1,0,147,46.5a14.53,14.53,0,0,0,7.13-2Zm-1.62-13.09a5.51,5.51,0,1,1,0-.25Z"/><path d="M162,19.59a2,2,0,1,1-2,2,2,2,0,0,1,2-2m0,3.71a1.7,1.7,0,1,0-1.69-1.7A1.69,1.69,0,0,0,162,23.3M162,21.71h-.37v.9h-.27v-2h.8c.45,0,.65.2.65.56a.54.54,0,0,1-.5.56l.61.9h-.33Zm-.37-.24H162c.27,0,.48,0,.48-.32s-.24-.32-.48-.32h-.44Z"/></g></g></svg>