<svg xmlns="http://www.w3.org/2000/svg" viewBox="0 0 515.57 517.96"><title>menu-item4</title><rect x="277.07" y="279.46" width="238.5" height="238.5" style="opacity:0.05000000074505806;isolation:isolate"/><path d="M394.14,378.94l-2.14-.77c-.25-.09-6.13-2.25-9-7.48s-1.42-11.35-1.42-11.61l.51-2.21,2.14.77c.25.09,6.13,2.25,9,7.49s1.48,11.35,1.42,11.61Zm-8.88-16.29a11,11,0,0,0,5.73,10.52,11.008,11.008,0,0,0-5.73-10.52Zm12.75,16.27-.48-2.22c-.06-.26-1.35-6.43,1.59-11.66s8.89-7.32,9.14-7.4l2.15-.74.48,2.22c.06.26,1.35,6.43-1.59,11.66s-8.89,7.32-9.14,7.4ZM402.64,367a12.54,12.54,0,0,0-1.4,6.16,11.08,11.08,0,0,0,5.95-10.55,12.54,12.54,0,0,0-4.54,4.39Zm-6.06-2.8-1.45-1.75c-.14-.17-3.52-4.31-3.34-9.39a16.88,16.88,0,0,1,3.32-9l1.42-1.79,1.6,1.64c.17.17,4.19,4.34,4,9.52a15.043,15.043,0,0,1-4,9.14Zm.3-15.2a11.35,11.35,0,0,0-1,4.21,9.57,9.57,0,0,0,1,4.3,9.58,9.58,0,0,0,1.28-4.23,8.33,8.33,0,0,0-1.28-4.28ZM376.7,404.6l-17.83-17.83,17.83-17.83,17.83,17.83Zm-12.12-17.83,12.11,12.11,12.12-12.11-12.12-12.11Zm51.26,17.83-17.83-17.83,17.83-17.83,17.83,17.83Zm-12.12-17.83,12.12,12.11,12.12-12.11-12.12-12.12Z"/><path d="M415.843,379.145l7.615,7.616-7.615,7.616-7.616-7.615ZM396.27,407.2l-4.5-3.15,4.5-4.51,4.5,4.51ZM376.7,379.15l7.616,7.615L376.7,394.38l-7.615-7.615Z"/><path d="M382.99,407.45l-2.85-2.86,16.13-16.08,15.97,15.97-2.86,2.86-13.11-13.11-13.28,13.22Zm-19.21,19.63a10,10,0,0,1-3.44-.59,8.27,8.27,0,0,1-2.88-1.77l2.08-2.61a6.69,6.69,0,0,0,4.38,1.7,2.15,2.15,0,0,0,1.15-.25.8.8,0,0,0,.4-.72.79.79,0,0,0-.1-.39,1,1,0,0,0-.36-.33,3.589,3.589,0,0,0-.69-.31,11.28,11.28,0,0,0-1.13-.31q-1.08-.26-2-.57a6,6,0,0,1-1.61-.81,3.59,3.59,0,0,1-1.08-1.23,3.83,3.83,0,0,1-.4-1.82,4.55,4.55,0,0,1,.36-1.82,4,4,0,0,1,1-1.43,4.85,4.85,0,0,1,1.65-.94,6.671,6.671,0,0,1,2.18-.33,9.329,9.329,0,0,1,3.1.48,7.73,7.73,0,0,1,2.46,1.41l-1.87,2.78a7.459,7.459,0,0,0-1.9-1,5.51,5.51,0,0,0-1.88-.35,1.63,1.63,0,0,0-1,.26.79.79,0,0,0-.34.65.82.82,0,0,0,.11.42,1,1,0,0,0,.37.33,4,4,0,0,0,.71.3,11.255,11.255,0,0,0,1.15.31,15.889,15.889,0,0,1,2.09.61,6.171,6.171,0,0,1,1.59.86,3.4,3.4,0,0,1,1,1.22,3.87,3.87,0,0,1,.35,1.7,4.53,4.53,0,0,1-.4,1.94,4.11,4.11,0,0,1-1.11,1.44,4.92,4.92,0,0,1-1.72.91,7.509,7.509,0,0,1-2.22.26Zm13.25-14.49h3.61l5.75,14.24h-4l-1-2.53h-5.21l-1,2.53h-3.9Zm3.28,8.69-1.51-4-1.52,4Zm9-8.59h3.74V423.4h6.53v3.43H389.31Zm18.56-.1h3.61l5.75,14.24h-4l-1-2.53h-5.21l-1,2.53h-3.94Zm3.28,8.69-1.5-4-1.52,4Zm9.01-8.59h5.21a9.44,9.44,0,0,1,3.23.51,6.76,6.76,0,0,1,2.39,1.44,6.17,6.17,0,0,1,1.49,2.21,8.033,8.033,0,0,1-.01,5.66,6.38,6.38,0,0,1-1.51,2.25,6.9,6.9,0,0,1-2.38,1.54,9.26,9.26,0,0,1-3.25.54H420.2Zm5.27,10.67a3.88,3.88,0,0,0,2.71-.93,4,4,0,0,0,0-5.29,3.86,3.86,0,0,0-2.71-.94H423.9v7.19ZM431.338,444l3.153,3.153-3.152,3.154-3.154-3.154Zm-70.578,0,3.154,3.154-3.154,3.153-3.154-3.154Zm6.74-3.242h5a6.58,6.58,0,0,1,2,.29,4.32,4.32,0,0,1,1.54.84,3.69,3.69,0,0,1,1,1.36,4.63,4.63,0,0,1,.34,1.82,4.54,4.54,0,0,1-.38,1.91,3.89,3.89,0,0,1-1,1.38,4.45,4.45,0,0,1-1.6.84,7,7,0,0,1-2,.28h-1.61V453h-3.24Zm4.78,6.09a2,2,0,0,0,1.36-.43,1.69,1.69,0,0,0,0-2.38,2.09,2.09,0,0,0-1.38-.41h-1.52v3.26Zm8.02-6.09h3.28V453h-3.26Zm6.62,9.79,5.87-6.92h-5.67v-2.87h10.15v2.47l-5.87,6.92h5.87V453H386.92Zm13.26,0,5.87-6.92h-5.67v-2.87h10.15v2.47l-5.87,6.92h5.87V453H400.18Zm17.69-9.88H421l5,12.34h-3.48l-.85-2.19h-4.52l-.84,2.19h-3.43Zm2.84,7.53-1.3-3.48-1.32,3.48Z"/><path d="M469.42,450.68H436.98v-4.04h28.4V436.27H326.15v10.37h27.39v4.04H322.11V432.23H469.42v18.45ZM340.88,403.95H451.66v4.04H340.88Z"/><path d="M450.48,441.21h17.94m-144.64,0h17.94" style="fill:none;stroke:#000;stroke-width:3px"/><rect width="515.57" height="517.96" style="fill:none"/></svg>