<?xml version="1.0" encoding="utf-8"?>
<!-- Generator: Adobe Illustrator 16.0.0, SVG Export Plug-In . SVG Version: 6.00 Build 0)  -->
<!DOCTYPE svg PUBLIC "-//W3C//DTD SVG 1.1//EN" "http://www.w3.org/Graphics/SVG/1.1/DTD/svg11.dtd">
<svg version="1.1" id="Layer_1" xmlns="http://www.w3.org/2000/svg" xmlns:xlink="http://www.w3.org/1999/xlink" x="0px" y="0px"
	 width="299.2px" height="36.8px" viewBox="0 0 299.2 36.8" enable-background="new 0 0 299.2 36.8" xml:space="preserve">
<g>
	<path fill="#FFFFFF" d="M7.8,9.4C4,9.4,0,12.7,0,18.8c0,5.5,3.4,9.3,8.2,9.3c2.5,0,4.1-0.8,5.6-1.7l0.1,0l-0.8-1.4L13,25
		c-1.5,1.1-3,1.6-4.7,1.6c-3.8,0-6.4-3-6.5-7.4h12.7l0-0.1c0.1-0.4,0.1-0.9,0.1-1.3C14.6,12.5,12,9.4,7.8,9.4z M12.9,17.7h-11
		C2.2,13.8,4.7,11,7.8,11C11,11,12.8,13.4,12.9,17.7z"/>
	<path fill="#FFFFFF" d="M37.3,9.4c-1.8,0-3.7,1.1-5.9,3.5c-0.7-2.3-2.3-3.5-4.9-3.5c-1.8,0-3.8,1.1-5.5,3.1l-0.1-2.7h-1.6v17.8H21
		V14.3c1.9-2.1,3.6-3.2,5.2-3.2c2.6,0,3.9,1.7,3.9,5.4v11.2h1.8V14.3c2-2.2,3.6-3.2,5.2-3.2c2.6,0,3.8,1.7,3.8,5.4v11.2h1.8V16.3
		C42.6,11.7,40.9,9.4,37.3,9.4z"/>
	<path fill="#FFFFFF" d="M56.6,9.4c-1.8,0-3.7,0.8-6,2.6l-0.1-2.2h-1.6v25.7h1.8V26c1.9,1.4,3.6,2.1,5.2,2.1c2.1,0,4.1-0.9,5.5-2.5
		c1.5-1.8,2.4-4.2,2.4-7C63.7,12.8,61.1,9.4,56.6,9.4z M61.8,18.5c0,4.7-2.5,8-6,8c-0.9,0-2.7-0.3-5.1-2.2V13.9
		c2.2-1.9,4-2.8,5.6-2.8C58.8,11.1,61.8,12.4,61.8,18.5z"/>
	<path fill="#FFFFFF" d="M74.8,9.4c-2.9,0-5.4,1.4-6.6,2.3l-0.1,0.1l0.8,1.4l0.1-0.1c1-0.8,3.1-2,5.5-2c1.2,0,2.1,0.3,2.8,1
		c1.1,1.1,1.3,3,1.3,4.3c-8.1,0.9-11.4,2.9-11.4,6.7c0,3.6,2.7,4.9,5.2,4.9c1.9,0,3.9-0.8,6.2-2.7l0.2,2.2h1.5V16.3
		C80.4,11.8,78.5,9.4,74.8,9.4z M78.6,17.9v5.8c-2.3,2-4,2.8-5.9,2.8c-2.3,0-3.6-1.2-3.6-3.4C69.1,20.2,71.9,18.7,78.6,17.9z"/>
	<path fill="#FFFFFF" d="M93.8,25.9c-0.6,0.3-1.5,0.5-2.2,0.5c-2,0-2.9-1.1-2.9-3.6V11.5h5.1V9.9h-5.1V4.8h-1.6L87,9.9L84.2,10v1.4
		h2.7v11.2c0,3.7,1.4,5.4,4.5,5.4c0.9,0,2.2-0.4,2.9-0.7l0.1,0l-0.5-1.5L93.8,25.9z"/>
	<path fill="#FFFFFF" d="M105.7,9.4c-2.5,0-4.4,1.4-6,3V1.1h-1.8v26.5h1.8V14.4c2.1-2.1,3.6-3.2,5.6-3.2c2.8,0,3.9,1.6,3.9,5.4v11.2
		h1.8V16.3C111.1,11.7,109.4,9.4,105.7,9.4z"/>
	<path fill="#FFFFFF" d="M124,21c-0.1,0.4-0.3,0.8-0.4,1.3c-0.4,1.2-0.8,2.5-1.2,3.6h0c-0.5-1.3-1.1-2.8-1.6-4.1L116.3,10l0-0.1h-2
		l7.3,18l-0.5,1.5c-0.7,2.1-2,4.6-4.4,4.6c-0.6,0-1.2-0.2-1.4-0.3l-0.1,0l-0.4,1.6l0.1,0c0.5,0.2,1.2,0.4,1.8,0.4c2.7,0,4.7-2,6-5.9
		l7-19.9h-1.9L124,21z"/>
	<rect x="140.6" fill="#FFFFFF" width="1.5" height="36.8"/>
	<polygon fill="#FFFFFF" points="146.6,8.3 147.9,8.3 148.2,1.9 148.2,1.8 146.4,1.8 	"/>
	<path fill="#FFFFFF" d="M158.6,9.4c-3.8,0-7.8,3.3-7.8,9.4c0,5.5,3.4,9.3,8.2,9.3c2.5,0,4.1-0.8,5.6-1.7l0.1,0l-0.8-1.4l-0.1,0.1
		c-1.5,1.1-3,1.6-4.7,1.6c-3.8,0-6.4-3-6.5-7.4h12.7l0-0.1c0.1-0.4,0.1-0.9,0.1-1.3C165.4,12.5,162.9,9.4,158.6,9.4z M163.7,17.7
		h-11c0.4-3.9,2.8-6.6,5.9-6.6C161.8,11,163.6,13.4,163.7,17.7z"/>
	<path fill="#FFFFFF" d="M188.1,9.4c-1.8,0-3.7,1.1-5.9,3.5c-0.7-2.3-2.3-3.5-4.9-3.5c-1.8,0-3.8,1.1-5.5,3.1l-0.1-2.7H170v17.8h1.8
		V14.3c1.9-2.1,3.6-3.2,5.2-3.2c2.6,0,3.9,1.7,3.9,5.4v11.2h1.8V14.3c2-2.2,3.6-3.2,5.2-3.2c2.6,0,3.8,1.7,3.8,5.4v11.2h1.8V16.3
		C193.5,11.7,191.7,9.4,188.1,9.4z"/>
	<path fill="#FFFFFF" d="M207.4,9.4c-1.8,0-3.7,0.8-6,2.6l-0.1-2.2h-1.6v25.7h1.8V26c1.9,1.4,3.6,2.1,5.2,2.1c2.1,0,4.1-0.9,5.5-2.5
		c1.5-1.8,2.4-4.2,2.4-7C214.6,12.8,212,9.4,207.4,9.4z M212.6,18.5c0,4.7-2.5,8-6,8c-0.9,0-2.7-0.3-5.1-2.2V13.9
		c2.2-1.9,4-2.8,5.6-2.8C209.7,11.1,212.6,12.4,212.6,18.5z"/>
	<path fill="#FFFFFF" d="M224.7,9.4c-2.8,0-4.6,1-5.9,1.9l-0.1,0.1l0.8,1.4l0.1-0.1c1.7-1.2,3.2-1.7,4.9-1.7c3.5,0,5.8,2.8,5.9,7.1
		h-12.7l0,0.1c-0.1,0.4-0.1,0.9-0.1,1.3c0,5.3,2.7,8.6,7.2,8.6c4.4,0,7.4-3.8,7.4-9.4C232.2,13.1,229.3,9.4,224.7,9.4z M230.4,19.6
		c-0.4,4.3-2.4,6.9-5.6,6.9c-3.4,0-5.4-2.5-5.4-6.9H230.4z"/>
	<polygon fill="#FFFFFF" points="235,5 242.7,5 242.7,27.7 244.6,27.7 244.6,5 252.3,5 252.3,3.3 235,3.3 	"/>
	<polygon fill="#FFFFFF" points="271.3,13.9 258.6,13.9 258.6,3.3 256.7,3.3 256.7,27.7 258.6,27.7 258.6,15.6 271.3,15.6 
		271.3,27.7 273.2,27.7 273.2,3.3 271.3,3.3 	"/>
	<path fill="#FFFFFF" d="M286.2,9.4c-3.8,0-7.8,3.3-7.8,9.4c0,5.5,3.4,9.3,8.2,9.3c2.5,0,4.1-0.8,5.6-1.7l0.1,0l-0.8-1.4l-0.1,0.1
		c-1.5,1.1-3,1.6-4.7,1.6c-3.8,0-6.4-3-6.5-7.4h12.7l0-0.1c0.1-0.4,0.1-0.9,0.1-1.3C293,12.5,290.5,9.4,286.2,9.4z M291.3,17.7h-11
		c0.4-3.9,2.8-6.6,5.9-6.6C289.4,11,291.3,13.4,291.3,17.7z"/>
	<rect x="281.9" y="4" fill="#FFFFFF" width="8.5" height="1.5"/>
	<rect x="297.7" fill="#FFFFFF" width="1.5" height="36.8"/>
</g>
</svg>
