<?xml version="1.0" encoding="utf-8"?>
<!-- Generator: Adobe Illustrator 16.0.0, SVG Export Plug-In . SVG Version: 6.00 Build 0)  -->
<!DOCTYPE svg PUBLIC "-//W3C//DTD SVG 1.1//EN" "http://www.w3.org/Graphics/SVG/1.1/DTD/svg11.dtd">
<svg version="1.1" id="Layer_1" xmlns="http://www.w3.org/2000/svg" xmlns:xlink="http://www.w3.org/1999/xlink" x="0px" y="0px"
	 width="96.9px" height="110.8px" viewBox="0 0 96.9 110.8" enable-background="new 0 0 96.9 110.8" xml:space="preserve">
<g>
	<polygon fill="#009BDE" points="48.5,13.8 48.5,56 56.1,15.9 	"/>
	<g>
		<path fill="#CFCFCE" d="M81.1,26.6l5.9-5.9l-2.8-2.8L78.1,24c-7.7-6-17.2-9.7-27.6-10.1V4h7.7V0H38.8v4h7.7v9.9
			C20.7,15,0,36.3,0,62.3c0,26.7,21.7,48.5,48.5,48.5S96.9,89,96.9,62.3C96.9,48.2,90.8,35.4,81.1,26.6z M48.5,106.8
			C23.9,106.8,4,86.8,4,62.3s19.9-44.5,44.5-44.5c24.5,0,44.5,19.9,44.5,44.5S73,106.8,48.5,106.8z"/>
		<path fill="#CFCFCE" d="M48.5,53.3c-4.3,0-7.8,3.5-7.8,7.8c0,4.3,3.5,7.8,7.8,7.8s7.8-3.5,7.8-7.8C56.2,56.7,52.7,53.3,48.5,53.3z
			 M48.5,64.8c-2.1,0-3.8-1.7-3.8-3.8c0-2.1,1.7-3.8,3.8-3.8c2.1,0,3.8,1.7,3.8,3.8C52.2,63.1,50.5,64.8,48.5,64.8z"/>
	</g>
</g>
</svg>
