<svg version="1.1" id="Layer_1" xmlns="http://www.w3.org/2000/svg" xmlns:xlink="http://www.w3.org/1999/xlink" x="0px" y="0px"
	 width="7px" height="7px" viewBox="0 -0.5 7 7" enable-background="new 0 -0.5 7 7" xml:space="preserve">
<g>
	<g>
		<path fill="#18202A" d="M3.033,3.951V3.525c0-0.439,0.246-0.817,0.495-1.167C3.776,2.01,4.022,1.687,4.022,1.362
			c0-0.233-0.232-0.418-0.486-0.418c-0.364,0-0.595,0.356-0.641,0.681L2.003,1.376C2.197,0.61,2.77,0.171,3.598,0.171
			c0.757,0,1.398,0.432,1.398,1.235c0,0.511-0.277,0.858-0.558,1.184C4.16,2.922,3.882,3.232,3.882,3.664v0.287H3.033z M2.938,5.83
			v-1.1h1.065v1.1H2.938z"/>
	</g>
</g>
</svg>
