<svg xmlns="http://www.w3.org/2000/svg" width="55" height="59" viewBox="0 0 55 59">
  <g fill="none" fill-rule="evenodd" transform="translate(-11 -5)">
    <circle cx="42.5" cy="29.75" r="23.375" fill="#FF7F41"/>
    <path fill="#1F1C1C" fill-rule="nonzero" d="M41.4375,48.9790016 L42.145926,48.7286089 C50.5671491,45.7521337 56.3125,37.7657904 56.3125,28.6875 C56.3125,16.9514491 46.7985509,7.4375 35.0625,7.4375 C23.3264491,7.4375 13.8125,16.9514491 13.8125,28.6875 C13.8125,37.7657904 19.5578509,45.7521337 27.979074,48.7286089 L28.6875,48.9790016 L28.6875,52.0625 L41.4375,52.0625 L41.4375,48.9790016 Z M11.6875,28.6875 C11.6875,15.777844 22.152844,5.3125 35.0625,5.3125 C47.972156,5.3125 58.4375,15.777844 58.4375,28.6875 C58.4375,38.4167172 52.4386836,47.0054563 43.5625,50.4688211 L43.5625,54.1875 L26.5625,54.1875 L26.5625,50.4688211 C17.6863164,47.0054563 11.6875,38.4167172 11.6875,28.6875 Z M27.625,57.375 L42.5,57.375 L42.5,59.5 L27.625,59.5 L27.625,57.375 Z M31.875,61.625 L38.25,61.625 L38.25,63.75 L31.875,63.75 L31.875,61.625 Z M31.3276217,29.1375013 C29.0483843,26.0049398 27.1261314,23.9719973 25.5086751,23.0176578 C23.1370528,21.6183417 21.1616842,22.4508535 20.2437381,25.1589087 C19.2609932,28.0581283 21.3987369,29.9346512 25.8411842,30.7423689 C27.0778513,30.9672175 28.5305652,31.1243815 30.200494,31.2142477 C31.0269204,31.2587213 31.9065457,31.2867127 32.8395115,31.2982689 C36.1302729,31.3390299 40.0846522,31.1753165 44.7088631,30.8091852 L44.5411369,28.6908148 C39.2130187,29.1126794 34.8051509,29.260462 31.3276217,29.1375013 C30.318342,29.1018146 29.3874274,29.0433223 28.5351245,28.9621063 C29.0634936,29.6379942 29.618938,30.3888373 30.200494,31.2142477 C30.4013932,31.4993867 30.6054084,31.7934242 30.8125,32.0963444 L30.8125,48.875 L32.9375,48.875 L32.9375,31.4428081 L32.754452,31.1728008 C32.2639584,30.4492924 31.7884922,29.7709171 31.3276217,29.1375013 Z M24.4288249,24.847835 C25.5179499,25.4904459 26.8963011,26.8657293 28.5351245,28.9621063 C27.6856901,28.8811635 26.9143392,28.7776496 26.2213158,28.6516454 C22.8720965,28.0426964 21.8223401,27.1212146 22.2562619,25.8410913 C22.7549824,24.3698036 23.2587806,24.1574798 24.4288249,24.847835 Z"/>
  </g>
</svg>
