<svg xmlns="http://www.w3.org/2000/svg" width="69" height="62" viewBox="0 0 69 62">
  <g fill="none" fill-rule="evenodd" transform="translate(-5 -12)">
    <circle cx="34.938" cy="43" r="29.563" fill="#00AFD7" transform="matrix(-1 0 0 1 69.875 0)"/>
    <path fill="#1F1C1C" fill-rule="nonzero" d="M43,73.90625 C25.9309495,73.90625 12.09375,60.0690505 12.09375,43 C12.09375,25.9309495 25.9309495,12.09375 43,12.09375 C60.0690505,12.09375 73.90625,25.9309495 73.90625,43 C73.90625,60.0690505 60.0690505,73.90625 43,73.90625 Z M43,71.21875 C58.5847853,71.21875 71.21875,58.5847853 71.21875,43 C71.21875,27.4152147 58.5847853,14.78125 43,14.78125 C27.4152147,14.78125 14.78125,27.4152147 14.78125,43 C14.78125,58.5847853 27.4152147,71.21875 43,71.21875 Z"/>
    <g fill="#1F1C1C" transform="translate(21.5 29.563)">
      <path fill-rule="nonzero" d="M21.5,28.21875 C13.1024809,28.21875 5.55752533,23.5031528 -1.09238967,14.2200272 L-1.65294867,13.4375 L-1.09238967,12.6549728 C5.55752533,3.37184722 13.1024809,-1.34375 21.5,-1.34375 C29.8975191,-1.34375 37.4424747,3.37184722 44.0923897,12.6549728 L44.6529487,13.4375 L44.0923897,14.2200272 C37.4424747,23.5031528 29.8975191,28.21875 21.5,28.21875 Z M21.5,25.53125 C28.7064628,25.53125 35.3057207,21.5449499 41.3364585,13.4375 C35.3057207,5.33005012 28.7064628,1.34375 21.5,1.34375 C14.2935372,1.34375 7.69427933,5.33005012 1.66354153,13.4375 C7.69427933,21.5449499 14.2935372,25.53125 21.5,25.53125 Z"/>
      <path fill-rule="nonzero" d="M21.5,22.84375 C16.3050716,22.84375 12.09375,18.6324284 12.09375,13.4375 C12.09375,8.24257157 16.3050716,4.03125 21.5,4.03125 C26.6949284,4.03125 30.90625,8.24257157 30.90625,13.4375 C30.90625,18.6324284 26.6949284,22.84375 21.5,22.84375 Z M21.5,20.15625 C25.2106632,20.15625 28.21875,17.1481632 28.21875,13.4375 C28.21875,9.72683684 25.2106632,6.71875 21.5,6.71875 C17.7893368,6.71875 14.78125,9.72683684 14.78125,13.4375 C14.78125,17.1481632 17.7893368,20.15625 21.5,20.15625 Z"/>
      <circle cx="21.5" cy="13.438" r="2.688"/>
    </g>
  </g>
</svg>
