<svg xmlns="http://www.w3.org/2000/svg" width="64" height="69" viewBox="0 0 64 69">
  <g fill="none" fill-rule="evenodd" transform="translate(-4 -6)">
    <circle cx="31.688" cy="34.125" r="26.813" fill="#78D64B" transform="matrix(-1 0 0 1 63.375 0)"/>
    <g fill="#1F1C1C" transform="translate(9.75 4.875)">
      <polygon fill-rule="nonzero" points="31.688 69.469 31.688 25.594 29.25 25.594 29.25 69.469"/>
      <polygon fill-rule="nonzero" points="31.502 28.678 39.419 16.039 37.353 14.745 29.436 27.384"/>
      <polygon fill-rule="nonzero" points="22.9 28.464 31.431 17.495 29.507 15.998 20.975 26.967" transform="rotate(-77 26.203 22.231)"/>
      <path fill-rule="nonzero" d="M29.25,57.28125 C13.7687681,57.28125 1.21875,44.7312319 1.21875,29.25 C1.21875,13.7687681 13.7687681,1.21875 29.25,1.21875 C44.7312319,1.21875 57.28125,13.7687681 57.28125,29.25 C57.28125,44.7312319 44.7312319,57.28125 29.25,57.28125 Z M29.25,54.84375 C43.3850378,54.84375 54.84375,43.3850378 54.84375,29.25 C54.84375,15.1149622 43.3850378,3.65625 29.25,3.65625 C15.1149622,3.65625 3.65625,15.1149622 3.65625,29.25 C3.65625,43.3850378 15.1149622,54.84375 29.25,54.84375 Z"/>
    </g>
    <polygon fill="#1F1C1C" fill-rule="nonzero" points="29.607 38.643 39.357 48.393 41.081 46.669 31.331 36.919"/>
    <polygon fill="#1F1C1C" fill-rule="nonzero" points="49.017 34.582 39.267 46.77 41.17 48.293 50.92 36.105"/>
  </g>
</svg>
