<svg xmlns="http://www.w3.org/2000/svg" width="59" height="53" viewBox="0 0 59 53">
  <g fill="none" fill-rule="evenodd" transform="translate(-8 -8)">
    <circle cx="40.969" cy="34.5" r="25.875" fill="#F1C400"/>
    <path fill="#1F1C1C" fill-rule="nonzero" d="M25.875,49.59375 C38.9745039,49.59375 49.59375,38.9745039 49.59375,25.875 C49.59375,12.7754961 38.9745039,2.15625 25.875,2.15625 C12.7754961,2.15625 2.15625,12.7754961 2.15625,25.875 C2.15625,38.9745039 12.7754961,49.59375 25.875,49.59375 Z M25.875,51.75 C11.5846321,51.75 0,40.1653679 0,25.875 C0,11.5846321 11.5846321,0 25.875,0 C40.1653679,0 51.75,11.5846321 51.75,25.875 C51.75,40.1653679 40.1653679,51.75 25.875,51.75 Z M25.875,43.125 C35.4019119,43.125 43.125,35.4019119 43.125,25.875 C43.125,16.3480881 35.4019119,8.625 25.875,8.625 C16.3480881,8.625 8.625,16.3480881 8.625,25.875 C8.625,35.4019119 16.3480881,43.125 25.875,43.125 Z M25.875,45.28125 C15.1572241,45.28125 6.46875,36.5927759 6.46875,25.875 C6.46875,15.1572241 15.1572241,6.46875 25.875,6.46875 C36.5927759,6.46875 45.28125,15.1572241 45.28125,25.875 C45.28125,36.5927759 36.5927759,45.28125 25.875,45.28125 Z M16.130393,25.5788163 C14.8313894,21.0323038 16.054261,17.9751249 19.8884022,16.0580543 L18.9240978,14.1294457 C14.133239,16.5248751 12.4811106,20.6551962 14.057107,26.1711837 L16.130393,25.5788163 Z" transform="translate(8.625 8.625)"/>
  </g>
</svg>
