<svg xmlns="http://www.w3.org/2000/svg" width="57" height="53" viewBox="0 0 57 53">
  <g fill="none" fill-rule="evenodd" transform="translate(-9 -8)">
    <circle cx="41.563" cy="32.813" r="24.063" fill="#E89CAE" transform="matrix(-1 0 0 1 83.125 0)"/>
    <g fill="#1F1C1C">
      <path fill-rule="nonzero" d="M40.6738253,60.071117 C41.2768024,58.7311902 41.6772104,57.8557615 41.9997295,57.1774619 C42.1981439,56.7601706 42.3611072,56.4305253 42.493241,56.1821013 C42.5782261,56.0223214 42.6539995,55.8890153 42.7298311,55.7701593 C42.8058324,55.6528933 42.8058324,55.6528933 42.9356677,55.4842801 C43.0988184,55.2611865 43.0988184,55.2611865 43.8811588,54.7971082 C52.5928702,51.4708629 58.467929,43.0911392 58.467929,33.6089645 C58.467929,21.0878604 48.3175686,10.9375 35.7964645,10.9375 C23.2753604,10.9375 13.125,21.0878604 13.125,33.6089645 C13.125,46.1300686 23.2753604,56.280429 35.7964645,56.280429 C36.43675,56.280429 36.8444998,56.4804171 37.2546055,56.7910754 C37.4164298,56.9136586 37.5632982,57.049548 37.7159174,57.2083037 C37.928078,57.4289947 38.1634508,57.7084053 38.4362322,58.0565635 C38.8687479,58.6085949 39.3965614,59.3354018 40.0451948,60.2619336 C40.1397834,60.3971771 40.1397834,60.3971771 40.2340406,60.5324232 C40.2734976,60.5890845 40.3213538,60.6580565 40.375489,60.7362447 C40.5661322,60.3114686 40.6995648,60.0138803 40.6738253,60.071117 Z M35.7964645,58.467929 C22.0672375,58.467929 10.9375,47.3381915 10.9375,33.6089645 C10.9375,19.8797375 22.0672375,8.75 35.7964645,8.75 C49.5256915,8.75 60.655429,19.8797375 60.655429,33.6089645 C60.655429,44.215234 54.0131353,53.2701127 44.6614343,56.8407144 C44.3685242,56.9525513 40.8987059,65.0723483 40.7682574,65.0969861 C40.6378088,65.121624 36.3614758,58.467929 35.7964645,58.467929 Z" transform="rotate(-24 35.796 36.924)"/>
      <g transform="translate(19.688 32.813)">
        <circle cx="2.188" cy="2.188" r="2.188"/>
        <circle cx="13.125" cy="2.188" r="2.188"/>
        <circle cx="24.063" cy="2.188" r="2.188"/>
      </g>
    </g>
  </g>
</svg>
