<svg xmlns="http://www.w3.org/2000/svg" width="112" height="19" viewBox="0 0 112 19"><g fill="#979797"><path d="M102.736 4.761c0 1.165-.465 1.401-1.215 1.401-.746 0-1.209-.236-1.209-1.401V0h-1.736v4.701c0 2.592 1.848 2.979 2.945 2.979 1.104 0 2.951-.387 2.951-2.979V0h-1.736v4.761zM109.875 3.699L111.799 0h-1.904l-.969 2.001L107.953 0h-1.904l1.924 3.699-2.043 3.879h1.906l1.09-2.224 1.09 2.224h1.904z"/></g><path fill="#979797" d="M62.688.145l4.504 11.336L71.719.145h4.977l-7.967 18.662h-3.172L57.711.145h4.977zM93.838 4.252h-8.131v3.119h6.354v4.109h-6.354v3.217h8.131v4.109H81.152V.145h12.686v4.107zM53.006 18.807h4.979L50.139.145h-3.17l-7.971 18.662h4.975l1.283-3.211h6.475l1.275 3.211zm-6.436-7.129l1.932-4.842 1.926 4.842H46.57zM11.258 9.312c1.252-.665 2.705-2.159 2.705-4.21 0-2.8-2.584-4.957-5.732-4.957H0v18.662h8.635c3.168 0 5.811-2.16 5.811-5.146-.001-2.454-1.776-3.762-3.188-4.349zM4.156 3.981H7.75c1.018 0 1.869.747 1.869 1.812 0 1.067-.852 1.919-1.869 1.919H4.156V3.981zM8.1 14.992H4.156v-3.813H7.83c1.043 0 2.188.802 2.188 1.868A1.934 1.934 0 0 1 8.1 14.992zM35.26 18.807l-4.807-7.037c2.422-.977 3.738-3.039 3.738-5.604 0-3.319-2.348-6.021-5.693-6.021h-9.084v18.662h4.268v-6.781h2.115l4.555 6.781h4.908zM23.682 4.131h4.455c1.143 0 2.119.945 2.119 2.12 0 1.169-.977 2.231-2.119 2.231h-4.455V4.131z"/></svg>