<svg xmlns="http://www.w3.org/2000/svg" viewBox="0 0 1019 237.7"><text transform="translate(0 42.8)" opacity=".65"><tspan x="0" y="0" fill="#FFF" font-family="'Sentinel-Light'" font-size="48.404">clever, clean, gutsy, art-meets-science, polished,</tspan><tspan x="0" y="58.1" fill="#FFF" font-family="'Sentinel-Light'" font-size="48.404">beautiful, original, avant garde, modern, smart,</tspan><tspan x="0" y="116.2" fill="#FFF" font-family="'Sentinel-Light'" font-size="48.404">bold, simplified, definitely not boring, full-bodied, </tspan><tspan x="0" y="174.3" fill="#FFF" font-family="'Sentinel-Light'" font-size="48.404">fun, delightful, nerdy, stylish, refined &amp; Brave.</tspan></text><path fill="none" stroke="#FFF" stroke-miterlimit="1" stroke-width="3" stroke-linecap="round" d="M576.1 176.5c48.8 0 135.7-1.2 160.4-19.1 29.2-21.2-43.3-32-93.1-34.3-58.6-2.7-122.6 2.1-128.9 24.8-4.2 14.9 28.2 17.5 63.9 17.5" opacity=".9"/><g opacity=".9"><path fill="none" stroke="#FFF" stroke-miterlimit="1" stroke-width="3" stroke-linecap="round" d="M768.5 223c10.7 2.8 40-.2 47.4-.6 23.1-1.2 45.5-2.9 68.6-2.8h14.2M786.2 234c9.4 1.6 35-.1 41.4-.3 20.2-.7 39.8-1.7 60-1.6H900"/></g><path fill="none" stroke="#FFF" stroke-miterlimit="1" stroke-width="3" stroke-linecap="round" d="M381.9 109.2c17.9 2.8 66.9-.2 79.3-.6 38.6-1.2 76.2-2.9 114.8-2.7h23.7M351.1 2.8c-28.1 0-78.2 1.2-92.4 19.6-16.8 21.7 25 32.8 53.7 35.1 33.8 2.7 70.6-2.2 74.3-25.4 2.4-15.3-16.2-18-36.8-18" opacity=".9"/></svg>