<?xml version="1.0" encoding="utf-8"?>
<!-- Generator: Adobe Illustrator 16.0.0, SVG Export Plug-In . SVG Version: 6.00 Build 0)  -->
<!DOCTYPE svg PUBLIC "-//W3C//DTD SVG 1.1//EN" "http://www.w3.org/Graphics/SVG/1.1/DTD/svg11.dtd">
<svg version="1.1" id="Layer_1" xmlns="http://www.w3.org/2000/svg" xmlns:xlink="http://www.w3.org/1999/xlink" x="0px" y="0px"
	 width="112px" height="19px" viewBox="0 0 112 19" enable-background="new 0 0 112 19" xml:space="preserve">
<g>
	<g>
		<g>
			<path fill="#979797" d="M102.736,4.761c0,1.165-0.465,1.401-1.215,1.401c-0.746,0-1.209-0.236-1.209-1.401V0h-1.736v4.701
				c0,2.592,1.848,2.979,2.945,2.979c1.104,0,2.951-0.387,2.951-2.979V0h-1.736V4.761z"/>
			<polygon fill="#979797" points="109.875,3.699 111.799,0 109.895,0 108.926,2.001 107.953,0 106.049,0 107.973,3.699 
				105.93,7.578 107.836,7.578 108.926,5.354 110.016,7.578 111.92,7.578 			"/>
		</g>
	</g>
	<path fill="#979797" d="M62.688,0.145l4.504,11.336l4.527-11.336h4.977l-7.967,18.662h-3.172L57.711,0.145H62.688z"/>
	<path fill="#979797" d="M93.838,4.252h-8.131v3.119h6.354v4.109h-6.354v3.217h8.131v4.109H81.152V0.145h12.686V4.252z"/>
	<path fill="#979797" d="M53.006,18.807h4.979L50.139,0.145h-3.17l-7.971,18.662h4.975l1.283-3.211h6.475L53.006,18.807z
		 M46.57,11.678l1.932-4.842l1.926,4.842H46.57z"/>
	<path fill="#979797" d="M11.258,9.312c1.252-0.665,2.705-2.159,2.705-4.21c0-2.8-2.584-4.957-5.732-4.957H0v18.662h8.635
		c3.168,0,5.811-2.16,5.811-5.146C14.445,11.207,12.67,9.899,11.258,9.312z M4.156,3.981H7.75c1.018,0,1.869,0.747,1.869,1.812
		c0,1.067-0.852,1.919-1.869,1.919H4.156V3.981z M8.1,14.992H4.156v-3.813H7.83c1.043,0,2.188,0.802,2.188,1.868
		C10.018,14.14,9.137,14.992,8.1,14.992z"/>
	<path fill="#979797" d="M35.26,18.807l-4.807-7.037c2.422-0.977,3.738-3.039,3.738-5.604c0-3.319-2.348-6.021-5.693-6.021h-9.084
		v18.662h4.268v-6.781h2.115l4.555,6.781H35.26z M23.682,4.131h4.455c1.143,0,2.119,0.945,2.119,2.12
		c0,1.169-0.977,2.231-2.119,2.231h-4.455V4.131z"/>
</g>
<g>
</g>
<g>
</g>
<g>
</g>
<g>
</g>
<g>
</g>
<g>
</g>
</svg>
