<svg xmlns="http://www.w3.org/2000/svg" viewBox="0 0 206.49 398"><g data-name="Layer 1"><path d="M4.31 139.78v234.94c0 13.58 8.87 16 18 17.38l.78.12c3.36.5 9 1.34 15.64 2 5.9.58 11.85 1 17.61 1.4h.69C73.67 396.82 89 397 96.66 397h13.16c7.66 0 23-.18 39.68-1.33h.69c5.75-.4 11.71-.81 17.61-1.4 6.64-.67 12.27-1.51 15.64-2l.78-.12c9.08-1.35 18-3.8 18-17.38V23.28c0-13.58-8.87-16-18-17.38l-.77-.12c-3.36-.5-9-1.34-15.65-2-5.91-.59-11.86-1-17.62-1.4l-.68-.05C132.81 1.17 117.48 1 109.82 1c-3.87 0-6.27 0-6.58.05S100.53 1 96.67 1C89 1 73.67 1.17 57 2.33l-.69.05c-5.75.39-11.71.81-17.61 1.4C32 4.44 26.4 5.29 23 5.79l-.77.12c-9.09 1.34-18 3.8-18 17.38v116.5zm187.77 228.55H14.42V37.18h177.66z" fill="#000000"/><rect x="83.85" y="379.08" width="37.29" height="6.55" rx="3.28" ry="3.28" fill="none" stroke="#222222" stroke-miterlimit="10" stroke-width="2"/><path d="M107.88 18.71c0 2.82-3.26 4.87-6.22 2.62-2.25-3-.18-6.2 2.63-6.2a3.58 3.58 0 0 1 3.58 3.58M13.42 369.33h179.66V36.18H13.42zm2-331.15h175.66v329.15H15.42z" fill="#222222"/><path d="M206.49 50.77h-3.31V23.28c0-14.38-9.71-17-18.8-18.36l-.86-.13c-3.36-.5-9-1.34-15.61-2-6.14-.61-12.52-1.05-17.64-1.4l-.68-.05C132.89.17 117.51 0 109.82 0c-3.74 0-6.25 0-6.54.05S100.38 0 96.67 0C89 0 73.59.17 56.91 1.33l-.68.05c-5.12.35-11.5.79-17.64 1.4-6.62.67-12.26 1.5-15.7 2l-.76.12C13 6.26 3.31 8.9 3.31 23.28v54.18H0v62.32h3.31v234.94c0 14.37 9.71 17 18.81 18.37l1.05.16c3.34.49 8.92 1.32 15.42 2 6.06.6 12.21 1 17.64 1.4h.69C73.71 397.83 89 398 96.66 398h13.16c7.64 0 23-.17 39.75-1.33h.68c5.44-.38 11.61-.8 17.64-1.4 6.51-.66 12.1-1.49 15.44-2l1-.15c9.1-1.35 18.81-4 18.81-18.37V76.43h3.31zm-5.31 324c0 12.79-8.09 15-17.1 16.39l-1 .15c-3.32.49-8.89 1.32-15.35 2-6 .59-12.15 1-17.58 1.39h-.68c-16.73 1.15-32 1.32-39.61 1.32H96.69c-7.61 0-22.88-.17-39.61-1.32h-.69c-5.41-.37-11.55-.8-17.58-1.39-6.44-.65-12-1.48-15.32-2l-1.05-.16c-9-1.34-17.1-3.6-17.1-16.39V23.28c0-12.8 8.09-15.06 17.11-16.39l.84-.13c3.35-.5 9-1.33 15.53-2 6.11-.61 12.47-1 17.58-1.4l.68-.05C73.67 2.17 89 2 96.67 2c3.93 0 6.26 0 6.62.05s2.63-.05 6.53-.05c7.66 0 23 .17 39.61 1.32l.68.05c5.11.35 11.47.79 17.58 1.4 6.57.66 12.17 1.49 15.6 2l.78.12c9 1.33 17.1 3.59 17.1 16.39v351.44z" fill="#222222"/></g></svg>
