<?xml version="1.0" encoding="utf-8"?>
<!-- Generator: Adobe Illustrator 20.1.0, SVG Export Plug-In . SVG Version: 6.00 Build 0)  -->
<svg version="1.1" id="Layer_1" xmlns="http://www.w3.org/2000/svg" xmlns:xlink="http://www.w3.org/1999/xlink" x="0px" y="0px"
	 viewBox="0 0 358.7 532" style="enable-background:new 0 0 358.7 532;" xml:space="preserve">
<style type="text/css">
	.st0{fill:#E0E0E0;}
	.st1{fill:#D1D1D1;}
</style>
<g>
	<path class="st0" d="M1.5,26.4v479.3c0,13.4,9.5,25.4,23,25.4h305.9c13.4,0,25.6-11.9,25.6-25.4V26.4c0-13.4-12.1-23.8-25.5-23.8
		h-306C11,2.6,1.5,12.9,1.5,26.4z M339.9,47.5c2.2,0,4,1.8,4,4V481c0,2.2-1.8,4-4,4H15.6c-2.2,0-4-1.8-4-4V51.5c0-2.2,1.8-4,4-4
		L339.9,47.5z"/>
	<path class="st1" d="M190.3,509v-0.3c0-6.1-4.9-11-11-11s-11,4.9-11,11v0.4c0,6.1,4.9,11,11,11s11-4.9,11-11V509z"/>
	<circle class="st1" cx="178.7" cy="24.1" r="3.3"/>
	<circle class="st1" cx="171.6" cy="24.1" r="1"/>
	<path class="st0" d="M357.7,48.5v21.3"/>
	<path class="st1" d="M10.6,51.5V481c0,2.8,2.2,5,5,5h324.4c2.8,0,5-2.2,5-5V51.5c0-2.8-2.2-5-5-5H15.6
		C12.8,46.5,10.6,48.7,10.6,51.5z M339.9,48.5c1.7,0,3,1.3,3,3V481c0,1.7-1.3,3-3,3H15.6c-1.7,0-3-1.3-3-3V51.5c0-1.7,1.3-3,3-3
		H339.9z"/>
	<path class="st0" d="M286.1,1h21.3 M1.2,58V47.4 M357.7,76.2v21.3"/>
	<path class="st1" d="M286.1,1.6H24.5c-13.7,0-24,10.7-24,24.8v21H0V58h0.5v447.6c0,14.8,10.5,26.4,24,26.4h305.9
		c14.1,0,26.6-12.3,26.6-26.4V97.6h1.7V76.2H357v-6.4h1.7V48.5H357V26.4c0-13.5-12.2-24.8-26.5-24.8h-23V0h-21.4V1.6z M330.4,3.6
		C343.7,3.6,355,14,355,26.4v479.3c0,12.8-11.7,24.4-24.5,24.4H24.5c-12.3,0-22-10.7-22-24.4V26.4c0-13.2,9.3-22.8,22-22.8H330.4z"
		/>
</g>
</svg>
