<svg xmlns="http://www.w3.org/2000/svg" viewBox="0 0 532 358.67"><g data-name="Layer 1"><path d="M505.63 1.51H26.36C12.92 1.51 1 11 1 24.5v305.94C1 343.88 12.92 356 26.36 356h479.27c13.44 0 23.82-12.11 23.82-25.55V24.5c0-13.5-10.37-22.99-23.82-22.99zm-21.08 338.44a4 4 0 0 1-4 4H51a4 4 0 0 1-4-4V15.6a4 4 0 0 1 4-4h429.55a4 4 0 0 1 4 4z" fill="#e0e0e0"/><path d="M23.05 190.26h.29a11 11 0 1 0 0-22.09h-.42a11 11 0 0 0 0 22.09h.13z" fill="#d1d1d1"/><circle cx="507.94" cy="178.75" r="3.31" fill="#d1d1d1"/><circle cx="507.94" cy="171.65" r="1.03" fill="#d1d1d1"/><path fill="#e0e0e0" d="M483.54 357.67h-21.33"/><path d="M480.55 10.6H51a5 5 0 0 0-5 5v324.35a5 5 0 0 0 5 5h429.55a5 5 0 0 0 5-5V15.6a5 5 0 0 0-5-5zm3 329.35a3 3 0 0 1-3 3H51a3 3 0 0 1-3-3V15.6a3 3 0 0 1 3-3h429.55a3 3 0 0 1 3 3z" fill="#d1d1d1"/><path fill="#e0e0e0" d="M531 286.06v21.34M473.96 1.17h10.67M455.79 357.67h-21.34"/><path d="M530.45 286.06V24.5c0-13.68-10.67-24-24.82-24h-21V0H474v.51H26.36C11.58.51 0 11 0 24.5v305.94C0 344.58 12.32 357 26.36 357h408.09v1.68h21.33V357h6.42v1.68h21.33V357h22.09c13.45 0 24.82-12.16 24.82-26.55v-23H532v-21.39zm-2 44.38c0 13.31-10.45 24.55-22.82 24.55H26.36C13.61 355 2 343.29 2 330.44V24.5c0-12.33 10.7-22 24.36-22h479.27c13.22 0 22.82 9.25 22.82 22z" fill="#d1d1d1"/></g></svg>