<svg xmlns="http://www.w3.org/2000/svg" width="300" height="669" viewBox="0 0 300 669">
  <path fill="#EAEBED" fill-rule="evenodd" d="M111.01,0.28 C145.99,0.28 165.57,28.88 165.57,75.96 C165.57,123.04 145.99,151.64 111.01,151.64 C76.03,151.64 56.45,123.04 56.45,75.96 C56.45,28.88 76.03,0.28 111.01,0.28 Z M111.01,26.9 C96.49,26.9 88.13,42.96 88.13,75.96 C88.13,108.96 96.49,125.02 111.01,125.02 C125.53,125.02 133.89,108.96 133.89,75.96 C133.89,42.96 125.53,26.9 111.01,26.9 Z M234.65,149 L203.41,149 L203.41,38.78 C196.81,41.86 188.67,45.38 182.73,47.8 L182.73,19.64 C192.19,14.8 203.63,8.86 214.19,2.92 L234.65,2.92 L234.65,149 Z"/>
</svg>
