<svg xmlns="http://www.w3.org/2000/svg" width="300" height="669" viewBox="0 0 300 669">
  <g fill="none" fill-rule="evenodd" transform="translate(-570 -239)">
    <path fill="#EAEBED" d="M96.86,0.28 C131.84,0.28 151.42,28.88 151.42,75.96 C151.42,123.04 131.84,151.64 96.86,151.64 C61.88,151.64 42.3,123.04 42.3,75.96 C42.3,28.88 61.88,0.28 96.86,0.28 Z M96.86,26.9 C82.34,26.9 73.98,42.96 73.98,75.96 C73.98,108.96 82.34,125.02 96.86,125.02 C111.38,125.02 119.74,108.96 119.74,75.96 C119.74,42.96 111.38,26.9 96.86,26.9 Z M268.68,122.82 L268.68,149 L170.56,149 L170.56,125.9 C187.5,108.3 207.3,85.64 220.28,66.94 C225.56,59.24 230.84,49.78 230.84,41.2 C230.84,32.18 224.02,26.24 214.78,26.24 C204.44,26.24 198.06,34.38 198.06,46.92 L167.04,41.86 C169.02,16.56 190.8,0.28 215.22,0.28 C239.42,0.28 262.52,14.8 262.52,40.76 C262.52,55.28 256.14,69.36 247.56,81.46 C237,96.2 224.24,110.06 212.36,122.82 L268.68,122.82 Z" transform="translate(566 239)"/>
  </g>
</svg>
