<?xml version="1.0" encoding="utf-8"?>
<!-- Generator: Adobe Illustrator 16.0.0, SVG Export Plug-In . SVG Version: 6.00 Build 0)  -->
<!DOCTYPE svg PUBLIC "-//W3C//DTD SVG 1.1//EN" "http://www.w3.org/Graphics/SVG/1.1/DTD/svg11.dtd">
<svg version="1.1" id="Layer_1" xmlns="http://www.w3.org/2000/svg" xmlns:xlink="http://www.w3.org/1999/xlink" x="0px" y="0px"
	 width="978.604px" height="701.083px" viewBox="0 0 978.604 701.083" enable-background="new 0 0 978.604 701.083"
	 xml:space="preserve">
<g>
	<g opacity="0.97">
		<g>
			<defs>
				<rect id="SVGID_1_" x="-379.591" width="1358.195" height="701.083"/>
			</defs>
			<clipPath id="SVGID_2_">
				<use xlink:href="#SVGID_1_"  overflow="visible"/>
			</clipPath>
			<g opacity="0.15" clip-path="url(#SVGID_2_)">
				<g>

						<path fill="none" stroke="#78909C" stroke-width="10" stroke-linecap="round" stroke-linejoin="round" stroke-miterlimit="10" d="
						M396.307-109.512l44.124,92.168c2.197,4.592,4.912,12.416,6.024,17.382l6.813,30.362c1.119,4.967,3.825,12.789,6.025,17.381
						L554.459,242.8"/>

						<path fill="none" stroke="#78909C" stroke-width="10" stroke-linecap="round" stroke-linejoin="round" stroke-miterlimit="10" d="
						M444.429-8.994l25.139,31.59c3.174,3.982,7.567,10.999,9.767,15.592l95.161,195.016"/>
				</g>
				<g>

						<path fill="none" stroke="#78909C" stroke-width="10" stroke-linecap="round" stroke-linejoin="round" stroke-miterlimit="10" d="
						M918.108,978.795L740.515,615.324c-2.198-4.592-4.912-12.416-6.024-17.382l-6.811-30.362c-1.12-4.967-3.828-12.79-6.026-17.383
						l-95.166-195.017"/>

						<path fill="none" stroke="#78909C" stroke-width="10" stroke-linecap="round" stroke-linejoin="round" stroke-miterlimit="10" d="
						M736.519,606.974l-25.143-31.589c-3.172-3.985-7.564-10.998-9.766-15.592l-95.16-195.018"/>
				</g>

					<circle fill="none" stroke="#78909C" stroke-width="13" stroke-linecap="round" stroke-linejoin="round" stroke-miterlimit="10" cx="587.702" cy="298.019" r="64.423"/>

					<line fill="none" stroke="#78909C" stroke-width="11" stroke-linecap="round" stroke-linejoin="round" stroke-miterlimit="10" x1="49.296" y1="57.751" x2="528.689" y2="272.175"/>

					<line fill="none" stroke="#78909C" stroke-width="11" stroke-linecap="round" stroke-linejoin="round" stroke-miterlimit="10" x1="646.19" y1="323.969" x2="1109.808" y2="531.336"/>

					<line fill="none" stroke="#78909C" stroke-width="11" stroke-linecap="round" stroke-linejoin="round" stroke-miterlimit="10" x1="623.207" y1="244.268" x2="885.026" y2="-102.287"/>

					<line fill="none" stroke="#78909C" stroke-width="11" stroke-linecap="round" stroke-linejoin="round" stroke-miterlimit="10" x1="117.204" y1="947.654" x2="550.815" y2="350.82"/>

					<line fill="none" stroke="#78909C" stroke-width="7" stroke-linecap="round" stroke-linejoin="round" stroke-miterlimit="10" x1="459.527" y1="56.88" x2="459.527" y2="947.654"/>

					<line fill="none" stroke="#78909C" stroke-width="7" stroke-linecap="round" stroke-linejoin="round" stroke-miterlimit="10" x1="587.702" y1="362.44" x2="587.702" y2="947.654"/>

					<line fill="none" stroke="#78909C" stroke-width="7" stroke-linecap="round" stroke-linejoin="round" stroke-miterlimit="10" x1="587.702" y1="-109.396" x2="587.702" y2="233.596"/>

					<line fill="none" stroke="#78909C" stroke-width="7" stroke-linecap="round" stroke-linejoin="round" stroke-miterlimit="10" x1="652.125" y1="298.019" x2="1342.324" y2="298.019"/>

					<line fill="none" stroke="#78909C" stroke-width="7" stroke-linecap="round" stroke-linejoin="round" stroke-miterlimit="10" x1="733.55" y1="-102.287" x2="733.55" y2="947.654"/>

					<line fill="none" stroke="#78909C" stroke-width="7" stroke-linecap="round" stroke-linejoin="round" stroke-miterlimit="10" x1="987.751" y1="-102.287" x2="987.751" y2="947.654"/>

					<line fill="none" stroke="#78909C" stroke-width="7" stroke-linecap="round" stroke-linejoin="round" stroke-miterlimit="10" x1="1311.598" y1="-102.287" x2="1311.598" y2="947.654"/>

					<line fill="none" stroke="#78909C" stroke-width="13" stroke-linecap="round" stroke-linejoin="round" stroke-miterlimit="10" x1="1149.673" y1="-102.287" x2="1149.673" y2="947.654"/>

					<line fill="none" stroke="#78909C" stroke-width="7" stroke-linecap="round" stroke-linejoin="round" stroke-miterlimit="10" x1="7.877" y1="548.742" x2="1052.175" y2="548.742"/>

					<polyline fill="none" stroke="#78909C" stroke-width="7" stroke-linecap="round" stroke-linejoin="round" stroke-miterlimit="10" points="
					334.009,-102.287 334.009,298.019 334.248,298.019 523.278,298.019 				"/>

					<polyline fill="none" stroke="#78909C" stroke-width="7" stroke-linecap="round" stroke-linejoin="round" stroke-miterlimit="10" points="
					153.764,-102.287 153.764,255 68.248,255 				"/>

					<line fill="none" stroke="#78909C" stroke-width="7" stroke-linecap="round" stroke-linejoin="round" stroke-miterlimit="10" x1="786.511" y1="709.461" x2="1109.808" y2="564.411"/>

					<line fill="none" stroke="#78909C" stroke-width="7" stroke-linecap="round" stroke-linejoin="round" stroke-miterlimit="10" x1="396.307" y1="298.019" x2="396.307" y2="440.449"/>

					<polyline fill="none" stroke="#78909C" stroke-width="7" stroke-linecap="round" stroke-linejoin="round" stroke-miterlimit="10" points="
					461.926,440.449 334.248,440.449 334.009,440.443 334.009,947.654 				"/>

					<polyline fill="none" stroke="#78909C" stroke-width="7" stroke-linecap="round" stroke-linejoin="round" stroke-miterlimit="10" points="
					194.323,146.729 194.323,252.169 300.259,252.169 				"/>

					<polyline fill="none" stroke="#78909C" stroke-width="7" stroke-linecap="round" stroke-linejoin="round" stroke-miterlimit="10" points="
					334.009,485.881 153.764,485.881 153.764,947.654 				"/>

					<line fill="none" stroke="#78909C" stroke-width="7" stroke-linecap="round" stroke-linejoin="round" stroke-miterlimit="10" x1="80.637" y1="-8.994" x2="1342.324" y2="-8.994"/>

					<line fill="none" stroke="#78909C" stroke-width="7" stroke-linecap="round" stroke-linejoin="round" stroke-miterlimit="10" x1="987.751" y1="510.63" x2="810.159" y2="485.875"/>

					<polyline fill="none" stroke="#78909C" stroke-width="7" stroke-linecap="round" stroke-linejoin="round" stroke-miterlimit="10" points="
					818.863,548.742 818.863,621.868 849.337,681.273 				"/>

					<line fill="none" stroke="#78909C" stroke-width="7" stroke-linecap="round" stroke-linejoin="round" stroke-miterlimit="10" x1="733.55" y1="628.834" x2="587.702" y2="628.834"/>

					<line fill="none" stroke="#78909C" stroke-width="7" stroke-linecap="round" stroke-linejoin="round" stroke-miterlimit="10" x1="461.926" y1="476.654" x2="587.702" y2="476.654"/>

					<line fill="none" stroke="#78909C" stroke-width="7" stroke-linecap="round" stroke-linejoin="round" stroke-miterlimit="10" x1="153.764" y1="144.737" x2="1342.324" y2="144.737"/>

					<line fill="none" stroke="#78909C" stroke-width="7" stroke-linecap="round" stroke-linejoin="round" stroke-miterlimit="10" x1="587.702" y1="62.101" x2="1342.324" y2="62.101"/>

					<polyline fill="none" stroke="#78909C" stroke-width="7" stroke-linecap="round" stroke-linejoin="round" stroke-miterlimit="10" points="
					1342.324,709.461 461.93,709.461 334.009,709.461 255.617,757.137 -92.42,757.137 				"/>

					<line fill="none" stroke="#78909C" stroke-width="7" stroke-linecap="round" stroke-linejoin="round" stroke-miterlimit="10" x1="461.926" y1="811.648" x2="587.702" y2="811.648"/>

					<line fill="none" stroke="#78909C" stroke-width="7" stroke-linecap="round" stroke-linejoin="round" stroke-miterlimit="10" x1="589.237" y1="837.765" x2="736.519" y2="837.765"/>

					<line fill="none" stroke="#78909C" stroke-width="7" stroke-linecap="round" stroke-linejoin="round" stroke-miterlimit="10" x1="528.689" y1="811.648" x2="528.689" y2="917.859"/>

					<line fill="none" stroke="#78909C" stroke-width="7" stroke-linecap="round" stroke-linejoin="round" stroke-miterlimit="10" x1="49.296" y1="917.859" x2="1342.324" y2="917.859"/>

					<line fill="none" stroke="#78909C" stroke-width="7" stroke-linecap="round" stroke-linejoin="round" stroke-miterlimit="10" x1="733.55" y1="222.344" x2="987.751" y2="222.344"/>

					<polyline fill="none" stroke="#78909C" stroke-width="7" stroke-linecap="round" stroke-linejoin="round" stroke-miterlimit="10" points="
					948.158,144.737 948.158,189.111 733.55,189.111 				"/>

					<polyline fill="none" stroke="#78909C" stroke-width="7" stroke-linecap="round" stroke-linejoin="round" stroke-miterlimit="10" points="
					334.009,89.091 275.64,89.091 275.64,40.651 228.629,24.669 				"/>

					<polyline fill="none" stroke="#78909C" stroke-width="7" stroke-linecap="round" stroke-linejoin="round" stroke-miterlimit="10" points="
					153.764,104.477 254.101,-8.994 298.273,-102.287 				"/>

					<polyline fill="none" stroke="#78909C" stroke-width="7" stroke-linecap="round" stroke-linejoin="round" stroke-miterlimit="10" points="
					153.764,636.936 212.958,636.936 298.273,698.424 				"/>

					<polyline fill="none" stroke="#78909C" stroke-width="7" stroke-linecap="round" stroke-linejoin="round" stroke-miterlimit="10" points="
					212.958,636.936 226.017,615.008 272.157,615.008 272.157,592.271 				"/>

					<polyline fill="none" stroke="#78909C" stroke-width="7" stroke-linecap="round" stroke-linejoin="round" stroke-miterlimit="10" points="
					255.617,667.681 281.317,636.936 272.157,615.008 				"/>

					<line fill="none" stroke="#78909C" stroke-width="7" stroke-linecap="round" stroke-linejoin="round" stroke-miterlimit="10" x1="836.438" y1="811.648" x2="1149.673" y2="811.648"/>

					<polyline fill="none" stroke="#78909C" stroke-width="7" stroke-linecap="round" stroke-linejoin="round" stroke-miterlimit="10" points="
					987.751,431.181 1052.175,431.181 1088.735,454.723 1088.735,521.913 				"/>

					<line fill="none" stroke="#78909C" stroke-width="7" stroke-linecap="round" stroke-linejoin="round" stroke-miterlimit="10" x1="1061.908" y1="437.449" x2="1035.84" y2="498.252"/>

					<line fill="none" stroke="#78909C" stroke-width="7" stroke-linecap="round" stroke-linejoin="round" stroke-miterlimit="10" x1="987.751" y1="397.266" x2="1311.598" y2="397.266"/>
			</g>
		</g>
	</g>
	<g>
		<g>
			<path opacity="0.6" fill="#78909C" d="M431.485,197.792c-7.228,0-46.619-0.227-43.44,12.696
				c1.214,4.936,12.423,8.808,16.647,9.268l8.954,3.832l8.951-3.832c12.779-1.391,35.308-5.67,35.308-10.742
				C457.905,202.816,448.629,197.792,431.485,197.792z"/>
			<g>
				<path fill="#56ACE0" d="M411.862,95.681c-30.723,0-55.642,24.912-55.642,55.64c0,25.147,16.699,46.374,39.591,53.265l16.043,19
					l16.043-19c22.905-6.895,39.601-28.118,39.601-53.265C467.5,120.592,442.585,95.681,411.862,95.681z"/>
			</g>
		</g>
		<g>
			<path fill-rule="evenodd" clip-rule="evenodd" fill="#2F3E5A" d="M440.538,148.071l-17.178-0.157l0.076-8.495l11.001,0.101
				L440.538,148.071L440.538,148.071z M430.582,158.854c-0.81,0.796-1.318,1.9-1.328,3.127c-0.013,1.224,0.476,2.338,1.271,3.147
				c0.796,0.813,1.9,1.319,3.125,1.33c1.228,0.01,2.341-0.476,3.15-1.271c0.811-0.796,1.318-1.901,1.329-3.127
				c0.01-1.224-0.477-2.339-1.27-3.15c-0.796-0.809-1.903-1.317-3.128-1.327C432.508,157.575,431.392,158.06,430.582,158.854
				L430.582,158.854z M445.58,164.208l2.473,0.022l0.076-8.438l-2.47-0.022l0.077-8.402l-8.896-12.472l-18.01-0.163l-0.267,29.227
				l6.264,0.056c0.378,1.678,1.218,3.183,2.383,4.369c1.63,1.659,3.89,2.695,6.396,2.718c2.51,0.024,4.79-0.972,6.449-2.6
				c1.187-1.166,2.054-2.655,2.46-4.323l1.174,0.009L445.58,164.208z"/>
			<path fill-rule="evenodd" clip-rule="evenodd" fill="#2F3E5A" d="M389.039,158.474c-0.809,0.798-1.314,1.902-1.326,3.127
				c-0.009,1.226,0.475,2.34,1.271,3.15c0.796,0.812,1.898,1.317,3.126,1.328c1.225,0.011,2.339-0.476,3.148-1.271
				c0.81-0.796,1.317-1.899,1.327-3.125c0.012-1.226-0.475-2.34-1.269-3.151c-0.795-0.808-1.9-1.314-3.127-1.325
				C390.963,157.194,389.852,157.682,389.039,158.474L389.039,158.474z M415.931,163.938l-14.958-0.138
				c-0.407,1.67-1.275,3.158-2.461,4.324c-1.66,1.628-3.938,2.623-6.446,2.6c-2.509-0.024-4.77-1.06-6.399-2.718
				c-1.166-1.187-2.003-2.69-2.38-4.367l-2.876-0.027v-0.049l-2.334-0.021l0.066-7.313l2.336,0.021l0.223-24.458l35.521,0.325
				L415.931,163.938z"/>
		</g>
	</g>
	<g>
		<g>
			<path opacity="0.6" fill="#78909C" d="M753.187,524.709c-7.228,0-46.619-0.227-43.44,12.696
				c1.214,4.937,12.423,8.808,16.647,9.269l8.955,3.83l8.95-3.83c12.78-1.393,35.308-5.672,35.308-10.743
				C779.606,529.734,770.33,524.709,753.187,524.709z"/>
			<g>
				<path fill="#56ACE0" d="M733.563,422.599c-30.723,0-55.641,24.911-55.641,55.64c0,25.147,16.698,46.375,39.59,53.266l16.043,19
					l16.044-19c22.905-6.895,39.601-28.118,39.601-53.266C789.2,447.51,764.286,422.599,733.563,422.599z"/>
			</g>
		</g>
		<g>
			<path fill-rule="evenodd" clip-rule="evenodd" fill="#2F3E5A" d="M762.239,474.988l-17.178-0.156l0.076-8.494l11.001,0.101
				L762.239,474.988L762.239,474.988z M752.283,485.772c-0.81,0.796-1.317,1.901-1.328,3.128c-0.013,1.224,0.476,2.338,1.271,3.147
				c0.796,0.812,1.899,1.317,3.124,1.329c1.229,0.011,2.342-0.475,3.15-1.271c0.812-0.796,1.318-1.9,1.329-3.127
				c0.011-1.224-0.477-2.339-1.271-3.149c-0.795-0.811-1.902-1.317-3.127-1.328C754.209,484.493,753.093,484.978,752.283,485.772
				L752.283,485.772z M767.281,491.126l2.474,0.022l0.076-8.438l-2.471-0.022l0.077-8.401l-8.896-12.472l-18.01-0.163l-0.268,29.227
				l6.264,0.057c0.379,1.678,1.219,3.182,2.383,4.368c1.631,1.659,3.891,2.694,6.396,2.718c2.51,0.023,4.791-0.973,6.449-2.601
				c1.188-1.165,2.055-2.654,2.46-4.323l1.174,0.01L767.281,491.126z"/>
			<path fill-rule="evenodd" clip-rule="evenodd" fill="#2F3E5A" d="M710.739,485.393c-0.809,0.797-1.314,1.9-1.326,3.126
				c-0.009,1.227,0.476,2.341,1.271,3.15c0.796,0.812,1.898,1.317,3.126,1.328c1.225,0.011,2.339-0.476,3.148-1.271
				c0.81-0.797,1.317-1.899,1.327-3.126c0.012-1.227-0.475-2.341-1.269-3.151c-0.796-0.808-1.9-1.314-3.127-1.326
				C712.665,484.111,711.553,484.6,710.739,485.393L710.739,485.393z M737.632,490.855l-14.957-0.138
				c-0.408,1.669-1.275,3.158-2.461,4.323c-1.66,1.629-3.938,2.624-6.447,2.601c-2.508-0.023-4.77-1.06-6.398-2.718
				c-1.166-1.186-2.003-2.689-2.38-4.367l-2.876-0.026v-0.048l-2.335-0.022l0.066-7.313l2.336,0.021l0.223-24.459l35.521,0.325
				L737.632,490.855z"/>
		</g>
	</g>
</g>
</svg>
