<svg xmlns="http://www.w3.org/2000/svg" xmlns:xlink="http://www.w3.org/1999/xlink" viewBox="0 0 900 900"><defs><linearGradient id="linear-gradient" x1="634.34" y1="367.32" x2="651.55" y2="353.86" gradientUnits="userSpaceOnUse"><stop offset="0" stop-color="#fff" stop-opacity="0"/><stop offset=".1" stop-color="#fff" stop-opacity=".14"/><stop offset=".28" stop-color="#fff" stop-opacity=".37"/><stop offset=".45" stop-color="#fff" stop-opacity=".56"/><stop offset=".62" stop-color="#fff" stop-opacity=".71"/><stop offset=".77" stop-color="#fff" stop-opacity=".81"/><stop offset=".9" stop-color="#fff" stop-opacity=".88"/><stop offset="1" stop-color="#fff" stop-opacity=".9"/></linearGradient><linearGradient id="linear-gradient-2" x1="619.49" y1="364.14" x2="643.64" y2="349.16" xlink:href="#linear-gradient"/><linearGradient id="linear-gradient-3" x1="581.33" y1="350.35" x2="611.03" y2="327.03" xlink:href="#linear-gradient"/><linearGradient id="linear-gradient-4" x1="540.14" y1="349.03" x2="579.17" y2="314.63" xlink:href="#linear-gradient"/><linearGradient id="linear-gradient-5" x1="203.99" y1="695" x2="347.36" y2="380.95" xlink:href="#linear-gradient"/></defs><g id="Layer_2" data-name="Layer 2"><g id="Layer_1-2" data-name="Layer 1"><path id="bg2" fill="#424242" d="M4.62 4.84h887.65v890.81H4.62z"/><path id="bg1" fill="#fff" fill-opacity=".9" stroke="#fff" stroke-miterlimit="10" stroke-opacity=".02" opacity=".03" d="M602.98 262.97l49.9 49.9 56.61 39.65 29.91 68.53 102.42 12.28-73.37 189.7-329.14-139.89-5.95-65.93-27.82-72.8 50.32-42.63 60.76-56.24 86.36 17.43z"/><path fill="none" stroke="#262628" stroke-miterlimit="10" d="M521.77 404.91l.98-39.09"/><path fill="#262628" d="M761.85 420.21L720 398.81l-45.1-20.95-11.06-5.95-12.62-8.66-7.83-5.56-14.83-4.95-4.78-3.92-19.26-7.8-12.79-5.68-69.88-1.26.15-.98 69.92 1.25 12.73 5.68 19.53 7.82 4.94 4.06 14.66 5.45 7.74 5.39 12.52 8.54 11.11 6.06 44.87 20.81 42.31 21.17-.48.88z"/><path d="M673.64 371.9l.15-.15c.4-.4.23-1.25-.05-1.74l-.93.95s.77 1.04.83.94zM660.71 369.87l-.56 1.42a1.31 1.31 0 0 1-.74-1.7l.08-.2z" fill="#545454"/><path d="M664.6 365.07a2.64 2.64 0 0 0-1.53 2.25s-.63-.08-.82-.47c-.09-.19.18-.79.52-1.26a2.76 2.76 0 0 1 1.08-.83c.29-.12.75.31.75.31z" fill="#333"/><path d="M664.25 365.85a.27.27 0 0 1-.05-.41c.13-.14.75.07.69.55l-.28-.13a1.1 1.1 0 0 1-.36-.01z" fill="#545454"/><path d="M670.43 383.1v1.19l-1.42.33-.18.12a.84.84 0 0 0-.29 1.18v.05h1.4l1.53-.29.58-.12a.42.42 0 0 0 .25-.35 1.56 1.56 0 0 0-.21-.77 1.68 1.68 0 0 1-.14-.31c-.12-.37-.39-.77-.3-1.15" fill="#262628"/><path d="M664.29 384.27a12.58 12.58 0 0 0 2.33.39 1 1 0 0 0 .71-.43c.2-.3 0-.42-.08-.56s-3.4-.11-3.4-.11a.6.6 0 0 0 .44.71zM668.78 386.07a16.94 16.94 0 0 0 2.94-.43s.78 0 .61-.62c-.09-.3-3.94.56-3.94.56s.02.42.39.49z" fill="#202022"/><path d="M666.59 382.15a2 2 0 0 1-1.16.78l-1.21.13-.11.05a.46.46 0 0 0 .13.87l2.92.31a.22.22 0 0 0 .25-.15 1.92 1.92 0 0 0 .09-.58v-.11l.05-1.07" fill="#262628"/><path d="M671.39 379.7c-.43-1.68-.92-1.19-.24-3.69l.21-1.82a4.38 4.38 0 0 0 .14-.78 2.11 2.11 0 0 0-.35-1.53l-.09-.18-3.86 1a45.37 45.37 0 0 0-1.69 4.95 28.27 28.27 0 0 0 .6 4.88l1.61.44-.34-4.28a3.91 3.91 0 0 1 .36-1.37l1.14-2.39.13.13-.16 2a3.75 3.75 0 0 0 .29 2.19 33.23 33.23 0 0 1 1.08 4.7l1.83-.54z" fill="#333"/><path d="M664.65 367.16a.32.32 0 0 0-.21.13l-.06.09a.32.32 0 0 0-.06.2v.17h.09l.3-.39v-.15z" fill="none"/><path d="M664.13 367.82v-.42l.28-.38.39-.08v-.51l-1.1-.67-.76 1.15.08.42.93.56z" fill="#545454"/><path d="M666.31 366.93l-.92-.85c-.18-.06-.68-.22-1-.29l.5.16.63.47c.21.15.17 1.49.17 1.49l-.15.11h.13a2.5 2.5 0 0 0 .52-.55.68.68 0 0 0 .12-.54zM664.45 367.68l.3-.39v-.15h-.13a.31.31 0 0 0-.21.13l-.06.09a.31.31 0 0 0-.06.2v.17h.08z" fill="#545454"/><path d="M664.94 368.42l-.43-.23a1 1 0 0 0 .06.72l.16-.43.94 2.06.59.5-1.18-2.74zM670 368.36l-.49-.49a1 1 0 0 0-.86-.24l.19.39-2.84-1.78 1.71-.84 1 .35.27.11-.21-.5a2.06 2.06 0 0 0-.75-.93 2.17 2.17 0 0 0-1.08-.39h-.22a.74.74 0 0 0-.72.46l-.62 1.5c.05.06.09.1.08.1h-.1l-.08.2.2.15a1 1 0 0 1 .15.54l.13-.27 3.49 2.07.88 1.79-3.66 1s.33.62.31.61l3.65-1 .2.41.21-.09c.11 0 .16-.17.31-.46z" fill="#333"/><circle cx="662.72" cy="366.55" r=".65" fill="#545454"/><circle cx="662.72" cy="366.55" r=".29" fill="#d2d3d4"/><path d="M659.81 360.84l.19-.19c.51-.52.3-1.61-.07-2.23l-1.2 1.22s1.01 1.28 1.08 1.2zM643.23 358.23l-.72 1.82a1.68 1.68 0 0 1-.95-2.17l.1-.26z" fill="#545454"/><path d="M648.22 352.09a3.39 3.39 0 0 0-2 2.88s-.81-.1-1-.6c-.11-.24.23-1 .67-1.62a3.54 3.54 0 0 1 1.39-1.07c.35-.15.94.41.94.41z" fill="#333"/><path d="M647.77 353.08a.35.35 0 0 1-.07-.53c.16-.18 1 .09.88.71l-.36-.17a1.41 1.41 0 0 1-.45-.01z" fill="#545454"/><path d="M655.7 375.2v1.52l-1.83.42-.23.16a1.08 1.08 0 0 0-.37 1.51v.07h1.8l2-.38.75-.16a.54.54 0 0 0 .32-.45 2 2 0 0 0-.27-1 2.15 2.15 0 0 1-.17-.4c-.16-.48-.49-1-.39-1.48" fill="#262628"/><path d="M647.83 376.71a16.14 16.14 0 0 0 3 .5 1.22 1.22 0 0 0 .91-.55c.25-.39 0-.54-.11-.72-.22-.37-4.36-.14-4.36-.14a.77.77 0 0 0 .56.91zM653.58 379a21.73 21.73 0 0 0 3.77-.56s1 0 .78-.79c-.11-.39-5 .72-5 .72s-.02.56.45.63z" fill="#202022"/><path d="M650.78 374a2.59 2.59 0 0 1-1.49 1l-1.55.16-.14.07a.59.59 0 0 0 .16 1.11l3.74.4a.29.29 0 0 0 .33-.19 2.47 2.47 0 0 0 .11-.74v-.14l.07-1.37" fill="#262628"/><path d="M656.92 370.84c-.55-2.15-1.18-1.53-.31-4.74l.27-2.34a5.55 5.55 0 0 0 .18-1 2.7 2.7 0 0 0-.45-2l-.11-.23-5 1.33a58.15 58.15 0 0 0-2.17 6.34c-.19 1.34.77 6.26.77 6.26l2.07.57-.44-5.49a5 5 0 0 1 .47-1.76l1.46-3.06.17.17-.21 2.56a4.81 4.81 0 0 0 .37 2.8 42.57 42.57 0 0 1 1.39 6l2.34-.69z" fill="#333"/><path d="M648.29 354.75a.4.4 0 0 0-.27.16l-.08.11a.4.4 0 0 0-.08.25v.22h.11l.38-.5v-.2z" fill="none"/><path d="M647.62 355.61v-.53l.36-.48.5-.11.06-.65-1.41-.86-1 1.47.11.53 1.19.72z" fill="#545454"/><path d="M650.42 354.47l-1.18-1.09c-.23-.07-.88-.28-1.35-.37l.65.21.81.6c.27.19.22 1.91.22 1.91l-.2.14h.17a3.2 3.2 0 0 0 .67-.71.88.88 0 0 0 .21-.69zM648 355.43l.38-.5v-.2h-.16a.4.4 0 0 0-.27.16l-.08.11a.4.4 0 0 0-.08.25v.22h.11z" fill="#545454"/><path d="M655.2 356.29l-.63-.62a1.24 1.24 0 0 0-1.1-.3l.25.5-3.7-2.28 2.19-1.07 1.31.44.35.15-.27-.64a2.64 2.64 0 0 0-1-1.19 2.78 2.78 0 0 0-1.39-.5H651a1 1 0 0 0-.92.59l-.8 1.93c.06.07.11.13.1.13h-.13l-.11.26.26.19a1.22 1.22 0 0 1 .19.69l.17-.34 4.48 2.65 1.13 2.3-4.69 1.28s.42.79.4.78l4.68-1.29.26.53.27-.11c.14-.06.21-.22.4-.59zM648.65 356.38l-.57-.3a1.24 1.24 0 0 0 .09.93l.21-.55 1.21 2.65.76.65-1.51-3.51z" fill="#333"/><circle cx="645.81" cy="353.97" r=".83" fill="#545454"/><circle cx="645.81" cy="353.97" r=".37" fill="#d2d3d4"/><path id="light-beam5" d="M663 366.92a.25.25 0 0 0-.15-.47l-110.72-8.95 112.55 60.23-1.68-50.8z" opacity=".3" fill="url(#linear-gradient)"/><path d="M640.39 349.74l.23-.23c.62-.63.37-2-.09-2.72l-1.46 1.49s1.23 1.55 1.32 1.46zM620.11 346.54l-.88 2.23a2.05 2.05 0 0 1-1.16-2.66l.13-.32z" fill="#545454"/><path d="M626.21 339s-1.94.62-2.4 3.53c0 0-1-.12-1.28-.74-.14-.29.29-1.24.82-2a4.32 4.32 0 0 1 1.7-1.3c.44-.15 1.16.51 1.16.51z" fill="#333"/><path d="M625.67 340.25a.43.43 0 0 1-.08-.65c.2-.22 1.17.11 1.08.86l-.44-.2a1.73 1.73 0 0 1-.56-.01z" fill="#545454"/><path d="M635.36 367.29v1.86l-2.23.52-.28.19a1.32 1.32 0 0 0-.45 1.84v.08h2.2l2.4-.46.92-.19a.66.66 0 0 0 .39-.55 2.45 2.45 0 0 0-.33-1.2 2.63 2.63 0 0 1-.21-.49c-.19-.58-.6-1.21-.47-1.8" fill="#262628"/><path d="M625.73 369.14a19.73 19.73 0 0 0 3.66.62 1.49 1.49 0 0 0 1.12-.67c.31-.47 0-.66-.13-.89-.27-.46-5.33-.17-5.33-.17a.94.94 0 0 0 .68 1.11zM632.77 372a26.57 26.57 0 0 0 4.62-.68s1.23 0 1-1c-.14-.47-6.18.88-6.18.88s-.02.66.56.8z" fill="#202022"/><path d="M629.34 365.82a3.17 3.17 0 0 1-1.82 1.22l-1.9.2-.17.08a.73.73 0 0 0 .2 1.36l4.58.49a.35.35 0 0 0 .4-.24 3 3 0 0 0 .13-.91v-.17l.09-1.68" fill="#262628"/><path d="M636.86 362c-.67-2.63-1.44-1.87-.38-5.79l.33-2.86a6.8 6.8 0 0 0 .22-1.23 3.3 3.3 0 0 0-.55-2.4l-.14-.28-6.06 1.56a71.16 71.16 0 0 0-2.66 7.76c-.24 1.64.95 7.65.95 7.65l2.53.69-.54-6.72a6.14 6.14 0 0 1 .57-2.16l1.78-3.74.21.21-.25 3.13a5.89 5.89 0 0 0 .45 3.43 52.06 52.06 0 0 1 1.7 7.37l2.87-.84z" fill="#333"/><path d="M626.29 342.29a.49.49 0 0 0-.33.2l-.1.13a.5.5 0 0 0-.09.31v.27l.13-.05h.06l.47-.61v-.24z" fill="none"/><path d="M625.48 343.33v-.65l.44-.59.61-.13.07-.79-1.72-1.05h-.06l-1.19 1.8.13.65 1.46.89z" fill="#545454"/><path d="M626 343.11l.47-.61v-.24h-.2a.49.49 0 0 0-.33.2l-.1.13a.49.49 0 0 0-.09.31v.27l.13-.05zM628.9 341.94l-1.44-1.33c-.28-.09-1.07-.34-1.65-.46l.79.25 1 .73c.33.24.27 2.33.27 2.33l-.24.17h.21a3.91 3.91 0 0 0 .82-.87 1.07 1.07 0 0 0 .24-.82z" fill="#545454"/><path d="M626.74 344.28l-.69-.37a1.52 1.52 0 0 0 .11 1.14l.26-.67 1.48 3.24.93.79-1.84-4.3zM634.75 344.17l-.77-.76a1.52 1.52 0 0 0-1.34-.37l.3.61-4.53-2.79 2.68-1.31 1.6.54.42.18-.33-.78a3.23 3.23 0 0 0-1.18-1.49 3.4 3.4 0 0 0-1.7-.61h-.34a1.16 1.16 0 0 0-1.12.72l-1 2.36c.08.09.13.15.12.16h-.16l-.13.31.31.23a1.49 1.49 0 0 1 .23.85l.21-.42 5.48 3.24 1.39 2.81-5.74 1.56s.52 1 .48 1l5.72-1.58.32.65.33-.14c.17-.07.26-.27.49-.72z" fill="#333"/><circle cx="623.27" cy="341.34" r="1.01" fill="#545454"/><circle cx="623.27" cy="341.34" r=".45" fill="#d2d3d4"/><path id="light-beam4" d="M645.65 354.45a.25.25 0 0 0-.15-.47l-88.26-2.36 74 56.39 14.41-53.55z" opacity=".3" fill="url(#linear-gradient-2)"/><path d="M615.15 336l.27-.27c.73-.74.43-2.31-.1-3.2l-1.72 1.75s1.4 1.82 1.55 1.72zM591.33 332.23l-1 2.61a2.41 2.41 0 0 1-1.36-3.12l.15-.37z" fill="#545454"/><path d="M598.49 323.41s-2.27.73-2.82 4.14c0 0-1.16-.14-1.5-.86-.16-.35.34-1.46 1-2.33a5.08 5.08 0 0 1 2-1.53c.48-.22 1.32.58 1.32.58z" fill="#333"/><path d="M597.85 324.84a.5.5 0 0 1-.09-.76c.23-.26 1.38.13 1.27 1l-.52-.24a2 2 0 0 1-.66 0z" fill="#545454"/><path d="M609.24 356.6v2.18l-2.62.61-.33.23a1.55 1.55 0 0 0-.53 2.17h.06l.06.1h2.58l2.82-.54 1.07-.23a.77.77 0 0 0 .46-.65 2.87 2.87 0 0 0-.38-1.41 3.09 3.09 0 0 1-.25-.58c-.22-.68-.71-1.42-.56-2.12" fill="#262628"/><path d="M597.93 358.77a23.18 23.18 0 0 0 4.29.72 1.76 1.76 0 0 0 1.31-.78c.36-.55 0-.77-.15-1-.31-.54-6.26-.2-6.26-.2a1.11 1.11 0 0 0 .81 1.26zM606.2 362.07c1 .17 5.42-.8 5.42-.8s1.44 0 1.12-1.14c-.16-.55-7.25 1-7.25 1s.03.87.71.94z" fill="#202022"/><path d="M602.17 354.87a3.72 3.72 0 0 1-2.17 1.43l-2.23.24-.2.1a.85.85 0 0 0 .23 1.6l5.37.57a.41.41 0 0 0 .47-.28 3.54 3.54 0 0 0 .16-1.07v-.2l.1-2" fill="#262628"/><path d="M611 350.35c-.79-3.09-1.69-2.19-.44-6.8l.39-3.36a8 8 0 0 0 .25-1.44 3.88 3.88 0 0 0-.65-2.81l-.16-.33-7.11 1.91s-2.84 7.18-3.12 9.11 1.11 9 1.11 9l3 .81-.63-7.89a7.21 7.21 0 0 1 .67-2.53l2.1-4.4.24.24-.3 3.68a6.91 6.91 0 0 0 .52 4 61.16 61.16 0 0 1 2 8.66l3.37-1z" fill="#333"/><path d="M598.59 327.24a.58.58 0 0 0-.39.24l-.11.16a.58.58 0 0 0-.11.36v.32l.16-.06.07-.05.55-.72v-.28z" fill="none"/><path d="M597.64 328.46v-.77l.51-.69.71-.15.08-.93c0-.05-2-1.23-2-1.23h-.07l-1.4 2.11.15.77 1.71 1z" fill="#545454"/><path d="M601.66 326.83l-1.66-1.57c-.33-.1-1.26-.4-1.93-.54.38.11.91.28.93.3l1.16.86c.39.28.31 2.74.31 2.74l-.28.2h.24a4.58 4.58 0 0 0 1-1 1.26 1.26 0 0 0 .23-.99zM598.22 328.21l.55-.72v-.28h-.24a.58.58 0 0 0-.39.24l-.11.16a.58.58 0 0 0-.11.36v.32l.16-.06z" fill="#545454"/><path d="M608.52 329.45l-.91-.89a1.78 1.78 0 0 0-1.58-.43l.35.71-5.31-3.28 3.14-1.54 1.88.64.5.21-.39-.92a3.79 3.79 0 0 0-1.39-1.7 4 4 0 0 0-2-.72h-.4a1.36 1.36 0 0 0-1.32.84l-1.09 2.75c.09.1.19.21.17.22a2.14 2.14 0 0 0-.22-.09l-.15.37.37.27a1.74 1.74 0 0 1 .27 1l.25-.49 6.43 3.81 1.63 3.3-6.74 1.84s.61 1.14.57 1.12l6.72-1.85.38.76.39-.16c.2-.09.3-.32.58-.84zM599.12 329.57l-.82-.43a1.79 1.79 0 0 0 .12 1.33l.3-.78 1.74 3.8 1.09.93-2.16-5z" fill="#333"/><circle cx="595.04" cy="326.12" r="1.19" fill="#545454"/><circle cx="595.04" cy="326.12" r=".53" fill="#d2d3d4"/><path id="light-beam3" d="M623 342.32a.25.25 0 0 0-.15-.47l-93.22-8.75 90.75 44.38 2.62-35.15z" opacity=".3" fill="url(#linear-gradient-3)"/><path id="light-beam2" d="M595 326.32a.25.25 0 0 0-.25-.43l-86.6 9.59L553.47 379 595 326.34z" opacity=".3" fill="url(#linear-gradient-4)"/><path id="bg3" d="M4.86 894.59h887.41l-.19-889.75H4.18zm672.55-428.32l-17.22 3.49-29.72-4.54h26.68l17.7-3h25.11zm-49.93-77.95l-15-6.58 5-.12 12.41 5.71 7.32 2.23 6.83 4.59-7.45-3.23zm140.27 45.53l-10.16-22.47-19.32-12.18-39.24-3-63.61-25.86-62.12-21.7-30.91-10.6-23.48-6h-15.33l1.23 24.54L555 387.35l13.65 20 43.91 41.55 5.13 18.73-4.75 10.19-21.16 2.06-7.4 4.12-10.85-3-6.53 2h-7.33l-17.3-3.29-3.82 1.65-4.82-5.79-17.48-1.5-29.75 21-17.33 40.6-17.82 11.77-15.65 10.29-23.7 31.62-1.75-2.78-3.72-39a.35.35 0 0 0-.7 0l-2.47 13.28-4.86 7.15-1.92 18.91-9.36 22-2.4 1.09.64-37.55c0-.36-.66-.36-.69 0l-7.65 41.25-6.89 3.3-48.38 8.14-9.68-4.24-4-17.32c0-.16-.9-.16-.94 0l-4.59 16.9-33.93 9-35.55 4.74-3.57-8.39-1.35-13.35-3.43-5.05-1.81-9.32a.25.25 0 0 0-.49 0l-2.62 27.57-3.64 5.77c-.36 1.88-.61 3.6-.8 5.18l-119.82 16-26.63-70 69.5-99.2 92.93-15.59 2.15 22c0 .2.49.21.52 0l2.62-22.84 15.36-2.58 29.53-27.3.37.6 1.82 11.75 4.34 4.41 2.27 8.24c0 .27.6.26.61 0l3-24.33 4.5-5.14c1.84-7 1.47-11.66 1.12-14l34.54-51.15 3 23.75c0 .09.28.09.29 0l1.74-31.2 20.54-30.42 4.73 19.89c0 .16.9.16.94 0l1.29-40.22 13-51.75 48.82-25.16c.18 1.11.37 2.26.6 3.46l5.15 8.18 3.72 39a.35.35 0 0 0 .7 0l2.47-13.28 4.86-7.15 1.97-18.89 11.63-27.33.21-.11-.71 41.83c0 .36.66.36.69 0l8.57-46.24 1.72-.89 3.66 29c0 .09.28.09.29 0l1.78-31.97 22.47-11.58 2.63 11.3c0 .16.9.16.94 0l4.12-15.25 30.13-15.53h15.76l3.17 48a.33.33 0 0 0 .65 0l3.69-48h48l20.92 5.9 3.91 26c0 .24.9.25.94 0l4.12-23.52 2.79.79 29.54 43.94 10 37.26 4.74 3.87.64 11.09 2.5 45.32a.06.06 0 0 0 .12 0l5.14-60.28 6.19-6.74 70.26 75.17zM579.2 398.14l-8.91-13.92-34.89-24.57 37.28 19.64z" fill="#333"/><path d="M277.33 707.16s232.72-36.69 267.79-46.8-134.7-21-134.7-33.75 135.11-29.2 135.11-29.2h42.69S475.2 623.23 506 627c65.79 8.09 75.55 6.29 128.94 15s111.84 8.35-35.21 44.26-96 46.17-23.91 53.94 140.86 66.19 140.86 66.19l-298.88-6.12z" fill="#6f7f84" opacity=".3"/><path d="M494.78 609.61s-91.3 13.88-40.17 21.07c-8.11-1.96-34.39-5.89 40.17-21.07zM458.95 690.07s-134.86 28.32-59.34 43c-11.98-4.01-50.8-12.01 59.34-43zM573.72 642.33s113.78 17.3 50.06 26.26c10.11-2.45 42.86-7.34-50.06-26.26z" fill="#95a6b4" opacity=".5"/><path d="M522.75 422.75S513 466.9 513 480.56s10.09 41.81 6 51" fill="none" stroke="#262628" stroke-miterlimit="10"/><path d="M519.46 444.93l-.16 2.41-2.92.53-.38.23a1.9 1.9 0 0 0-.68 2.53l2.94.07 3.13-.45 1.2-.19a.85.85 0 0 0 .54-.69 3.17 3.17 0 0 0-.35-1.58 3.41 3.41 0 0 1-.25-.65 4.46 4.46 0 0 1 0-2.34" fill="#262628"/><path d="M515.82 450.8a45.48 45.48 0 0 0 6-.59s1.59 0 1.29-1.19c-.15-.62-8 .31-8 .31s-.64 1.29.71 1.47zM525.45 417v-.54a2.2 2.2 0 0 1 .88-2l6.07-5.59a1.67 1.67 0 0 1 1.92-.05l.41.28a4.9 4.9 0 0 1 1.64 2 4.65 4.65 0 0 1 .38 2.67s-2 12.39-2.18 13.18-.69 1.08-1 1l-7.47-.95s-.63-9.92-.65-10z" fill="#333"/><path d="M530 411.9a5.49 5.49 0 0 0 0-1l-.07-.62-2.93-3.02-2.19 2.83.45 2 1.74 3.71 2-.35 1-.85z" fill="#545454"/><path d="M530.19 408.77a2.86 2.86 0 0 0-3.39-2.74c-3.44.4-2.85 3.24-2.23 3.6" fill="#424242"/><path d="M521.77 409.23l-3.32-.9c0-1.58 1.25-2.45 2.84-2.45h.48" fill="#545454"/><path d="M527.75 408.58a8.15 8.15 0 0 0 .84 1 13.4 13.4 0 0 1 1.39 2.27 23.85 23.85 0 0 0 .24-2.53z" fill="#424242"/><path d="M530.4 409.48s-2.28-1.31-5.47.78c0 0-.75-1.05-.41-1.87.16-.39 1.44-.81 2.61-.95a5.6 5.6 0 0 1 2.73.49c.57.27.54 1.55.54 1.55z" fill="#333"/><ellipse cx="526.13" cy="408.59" rx="1.67" ry="1.56" transform="translate(-2.29 2.96)" fill="#3a3a3c"/><path d="M528.76 410a.55.55 0 0 1 .55-.64c.39 0 .92 1.22.12 1.79l-.19-.6s-.43-.35-.48-.55z" fill="#545454"/><ellipse cx="525.77" cy="408.67" rx="1.47" ry="1.53" transform="rotate(-6.6 526.13 408.97)" fill="#fff"/><path d="M518.38 408.88l.28 5.8a3.39 3.39 0 0 0 2 2.92l5 2.29 3.37-3.81h-2.36l-3.51-1a1.43 1.43 0 0 1-1.05-1.31l-.25-5.11s-3.42.18-3.48.22z" fill="#333"/><path d="M510.52 440.29a4.75 4.75 0 0 1-2.58 2l-2.82.52-.25.14a1.09 1.09 0 0 0 .45 2l6.9.19a.53.53 0 0 0 .57-.4 4.53 4.53 0 0 0 .09-1.38v-.25l.44-2.58" fill="#262628"/><path d="M535.14 431.58l.42.06c1.13.16 2.33-1.12 2.78-2.18l-2.68-.39a13.45 13.45 0 0 0-.52 2.51z" fill="#545454"/><path d="M505.48 445.38a31 31 0 0 0 5.8.51 1.87 1.87 0 0 0 1.1-.38c.29-.22.51-.53.28-.87-.47-.68-8.33-.91-8.33-.91a1.4 1.4 0 0 0 1.15 1.65z" fill="#333"/><path d="M523.3 434a1.27 1.27 0 0 0-1.44 1.07l1.37 10-4.47.33s-1-12.36-.75-12.13 2-3.7 4.13-3.78l2.66-.1 3.28 4.4z" fill="#424242"/><path d="M514 426.83l11-1.08 7.85 3 .17.45a7.77 7.77 0 0 1-3.26 4.47 2.5 2.5 0 0 1-2.09.29l-10.11-3.11c-.57-.18-1.83-.52-1.94.06l-2.13 11.2-3.87-.74 2.38-13.91c.07-.46 1.52-.56 2-.63z" fill="#333"/><path d="M527.35 412.41a.64.64 0 0 0-.48-.14h-.21a.64.64 0 0 0-.38.18l-.25.25.17.08h.09l1-.09h.12l.15-.11z" fill="none"/><path d="M529.36 411.11s-.55-1.39-.56-1.4l-.61-.56s.54 2.53.5 2.57l-.82.63-.65-.47-.95.09-.62.57-.34-.46.54 2.49 1.74.36s2.07-1.77 2-2.29zm-2 1.58h-.12l-1 .09h-.09l-.17-.08.25-.25a.64.64 0 0 1 .38-.18h.21a.64.64 0 0 1 .48.14l.2.17zM534.2 413c-1-1.07-2.78.18-2.78.18l-5 2.8.09-.08-1.51 9.85 7.85 3 1.47-10.1c.5.07 1.54.49 1.47 1l.24 4.06-.92 5.39 3.55.41-.44-9.1a5 5 0 0 0-.72-3.37s-2.3-2.94-3.3-4.04z" fill="#424242"/><path d="M525.11 425.14l8 2.89.26-1.48-8-2.71s-.23 1.34-.26 1.3zM526.79 415.68l-1.31 7.03-.52-1.78.73-4.48 1.1-.77zM530.04 413.96l3.69 9.48.26-1.58-3.05-8.43-.9.53z" fill="#333"/><path fill="#424242" d="M523.16 433.53l-4.19-7.43 1.93-.6 4.7 8.1-2.44-.07z"/><path d="M522.2 422.89c.19-.69.8-9.71.12-11.36a14.24 14.24 0 0 1-1-6.64h1c.15 1.5-.47 3.58.73 6.49.65 1.57.6 10 .21 11.68" fill="#262628"/><path d="M588.8 597.89c-1.88-4.84-5.78-8.44-10.55-8.44a9.11 9.11 0 0 0-3.11.56 24.27 24.27 0 0 0-1.22-2.46L573 489.5l-3.5 1v40.92a11.62 11.62 0 0 1-1.1 2.8 21.41 21.41 0 0 0-1.77 15.54l1.41 5.34a12.85 12.85 0 0 0-.07 7.53l.54 1.78a32.29 32.29 0 0 1 1 4.42v13.51a9.26 9.26 0 0 0-5.46-1.87 8.68 8.68 0 0 0-4 1v-45.23a33.12 33.12 0 0 1 1.38-9.51l.54-1.78a12.85 12.85 0 0 0-.07-7.53l1.41-5.34a21.4 21.4 0 0 0-1.77-15.54 12.44 12.44 0 0 1-1.49-6l-13.86-1.89-1.84 99a21.07 21.07 0 0 0-2.38 1.45 14.72 14.72 0 0 0-2.35-.19 15.78 15.78 0 0 0-14 9.41s11.67 2.47 22 1.25c6.8.55 15.17.61 22.23-1.2 3.95.73 12.66 1.93 18.95-.48z" fill="#d2d3d4"/><path fill="#262628" d="M609.86 367.24l6.9 14.29"/><path id="light-beam1" d="M527.23 408.78a1.54 1.54 0 0 0-2.91-.78l.05-.08-508 124.51L74.51 685.7l328.86 146 123.86-422.77z" opacity=".8" fill="url(#linear-gradient-5)"/><path id="bg4" d="M0 0v900h900V0zm704 631.72l-13.6 111.92-69.17 21.46-203.47 16.64-130.22-97.18-106.32-35-58.57-6L85.46 609l4.41-47.27 49.39-23.44L178.4 472l43.21-76.26 78.21-36.12 39.53-106.23L382.08 205l92.2-46.82 22.72-3.59 122-36.33 62.33 11.83v79.31l28.83 25.06L757.31 274l1 148.39L774.95 451l22.39 83z" fill="#262628"/></g></g></svg>