<svg xmlns="http://www.w3.org/2000/svg" viewBox="0 0 1360 785.5">
  <title>hero-bg</title>
  <g>
    <path d="M0,0H1360V785.5H0Z" style="fill: #efefef"/>
    <path d="M192.2,392.1H587.7a88.4,88.4,0,0,1-51.9-16.9,147.1,147.1,0,0,0-134.4-20l-46.2,16a86.4,86.4,0,0,0-65.1-.8l-15.4,6.1a225.1,225.1,0,0,1-82.4,15.6ZM1360,211.7c-20-4.2-38.9-2.6-58.8,4.3l-36.1,12.5a67.5,67.5,0,0,0-50.9-.6l-12.1,4.7a175.9,175.9,0,0,1-64.4,12.2H1360Zm-182.8-8.9h105.6a23.6,23.6,0,0,1-13.9-4.5A39.3,39.3,0,0,0,1233,193l-12.3,4.3a23.1,23.1,0,0,0-17.4-.2l-4.1,1.6a60.1,60.1,0,0,1-22,4.2Z" style="fill: #fff"/>
    <path d="M1084.2,690.9l-46.3-12.7-74,22.1-42.3-1.1-26.1-26.3-64.2-25-35.7-21.2-66.7,34.5-39.9,31.3-49.7,21.8-27.5,21.6-91.5,28.4L493.3,781l-64.9,4.4h713.2v-61l-50.1-21.7-7.3-11.9" style="fill: #a5a5a5"/>
    <path d="M1360,648l-42.3-19.4-43.3-24.4-64.7-39.2-27.3,48-37.3,43.4-46.5,30.3-25.7,30-85.5,39.4-25.3,23.3-60.7,6.3H1360V648" style="fill: #a5a5a5"/>
    <path d="M0,567.1l30.7-28.5,9.8-35.8,62.5-38.2,100,66.2,57.1-3.3,35.3-78.7,86.8-75.1,48.2-63.4,90.1,103.5,53.9,93.7,67.2,65.3,37.2,64.8,123.6,85.1L839,773.1l87.7,12.4H0V567.1" style="fill: #262628"/>
    <path d="M130.9,507.4l-3.2-6.8,5.2-16.5-29.9-19.8v15.8l-20.4,17-8.6,20.4,29-11.4L141,540l42.8,38.4L99.2,552.5l-29.6,6.4L52.3,589,25.6,616.6,0,628.5V699l36.3-59.4,28-34,22.4-31L187.5,679.5l35.2-75.2M430.4,310l4.3,14.4-10.1,16.5,10.1-6.4,8.4,8.5,1.7,13.6-20.3,11.5-18.1,21,19.2-13.6,23.4-4.8,22.4,42.6-12.8,13.9-5.4,16.5-8.4,20.6-34.6,19.1L415,488l28.1-4.5,14.5-10.7,13.9-23.2,12.8,3.2,19.6,41.9-5.2,11.4,9.1-5.8,9.1,15.9v18.7l-18.1,23.7L493.3,585l-16.5,22.3-23.5,13.4-8.4,22.9L461.6,626l25.8-4.4-11.2,11.3-5.3,10.7,9.1-10.7,18.6-11.3,10.1-23.4L524.7,585l18.7-8.7-14.6,24.1s-4,25-6.7,29.3-29.3,30.9-29.3,30.9l-52.2,18.8-27.2,26.4-23.5,27.7,28.2,33.1,44.8-37.8,35.7-6.4L517.3,707l31.4-30.9,39.4-3.4,20.8-9.9,22.9,23.3,32.5,36.4-27.3,10-19,18.7-37.3,2.7,51.2,2.7L674.5,743l12.3,12.4L681.9,772l13.3,13.4H926.7L839,772.8l-36.6-50.3L678.8,637.4l-37.2-64.8-67.2-65.4-53.9-93.7ZM397.6,413.1l-15.5,19.6-45.7,29.4L386,433.9l11.7-20.8M376.9,532.4l-17,15.3-44.5,17.2,51.6-9.4,9.8-23m-11.8-11.3-18.9,7.8L331,540l21.2-9.5,12.9-9.5" style="fill: #424242"/>
    <path d="M30.7,538.6l26.7,1.8-24.6-9.5-2.1,7.7" style="fill: #424242"/>
    <path d="M72.6,496H308.5a52.7,52.7,0,0,1-31-10,87.7,87.7,0,0,0-80.2-12l-27.6,9.5a51.6,51.6,0,0,0-38.9-.5l-9.2,3.6A134.3,134.3,0,0,1,72.6,496Z" style="fill: #fff"/>
    <path d="M0,701.2,85.6,588.8H95.9l57.6-37.7,43.3-36.5L261.5,456l27.3,71.8,37.3,64.8,46.5,45.2,25.7,44.9,85.5,58.9,25.3,34.8,60.7,9.1H0V701.2" style="fill: #262628"/>
    <path d="M113.1,595.1l-13.6-19-6.4-1.7L78.6,598l34.5-2.8" style="fill: #262628"/>
    <path d="M230.5,537.8l-39.9,34.8,59.5-31.5-19.6-3.3m-69.1,78.5-24.2,19.3-8.2,19.5,10.4-14.5,22-24.3" style="fill: #424242"/>
    <path d="M261.5,456l-11.8,68.8-19.3,13,19.6,3.3-7.4,20.3,28.9,30.5,3.2,35L258,644l-16,25.3-27.4,19.5-20.4,12.2-12.5,15.3,15.9-11.8,21.4-9.9,23.1-11.2,12.8-.4,12.1-10.3L284,659.7l31,21,8.9,22.8,12.5,30,22.1,14.6L372.5,774l14.3,11.5h183l-56.3-19.3-29.6-24.6-85.5-58.9-25.7-44.9-46.5-45.2-37.3-64.8L261.5,456M198,613.4,151,640.7l-20.9,11.6-30.9,32,33.5-29.2,25-14.8L198,613.4" style="fill: #424242"/>
    <path d="M225.6,785.5l76-42.6-5.7,22.9-39.4,19.8H225.6M99.6,576.1l-8.2,17.4,30.2-3.7-17-6.6-5-7.1M258.7,472.6l-6.7,13.6-15.1,10.6,15.4-6.8,4.1-3.9" style="fill: #424242"/>
    <path d="M222.7,520.3H351.6a28.8,28.8,0,0,1-16.9-5.5,47.9,47.9,0,0,0-43.8-6.5l-15,5.2a28.2,28.2,0,0,0-21.2-.2l-5,2a73.3,73.3,0,0,1-26.8,5.1Zm60.9-120.9H412.5a28.8,28.8,0,0,1-16.9-5.5,47.9,47.9,0,0,0-43.8-6.5l-15,5.2a28.2,28.2,0,0,0-21.2-.2l-5,2a73.3,73.3,0,0,1-26.8,5.1Zm136.7,40H628.6a46.5,46.5,0,0,1-27.3-8.9A77.5,77.5,0,0,0,530.5,420l-24.3,8.4a45.5,45.5,0,0,0-34.3-.4l-8.1,3.2a118.6,118.6,0,0,1-43.4,8.2Z" style="fill: #fff"/>
    <path d="M1360,785.5V763.7l-33.1-26.1-85.5,2.6-17.6-22.9-60.6,27.8-54.1,6.2-36.5,34.2H1360" style="fill: #262628"/>
    <path d="M1223.7,717.2l-21,27.9-47.8,19.3L1137,785.5h68.8l17.8-34.3,17.6-11.1-17.6-22.9m103.2,20.3L1263,751.1l-5.3,12.3,9.9-7.8,59.3-18.3m33.1,26.2-33.1,4.5-20.6,17.4h33.1l20.7-3.3V763.7" style="fill: #424242"/>
  </g>
</svg>
