<svg xmlns="http://www.w3.org/2000/svg" viewBox="0 0 1360 785.48"><g data-name="Layer 1"><path fill="#efefef" d="M0 0h1360v785.48H0z"/><path d="M192.22 392.1h395.43a88.35 88.35 0 0 1-51.9-16.85 147.07 147.07 0 0 0-134.4-20l-46.18 15.95a86.41 86.41 0 0 0-65.15-.78l-15.43 6.07a225.06 225.06 0 0 1-82.36 15.61zM1360 211.72c-20-4.18-38.93-2.57-58.83 4.3l-36.08 12.46a67.53 67.53 0 0 0-50.91-.61l-12.06 4.74a175.87 175.87 0 0 1-64.36 12.2H1360zM1177.18 202.82h105.58a23.59 23.59 0 0 1-13.86-4.5A39.27 39.27 0 0 0 1233 193l-12.33 4.26a23.07 23.07 0 0 0-17.4-.21l-4.12 1.62a60.09 60.09 0 0 1-22 4.17z" fill="#fff"/><path fill="#a5a5a5" d="M1084.2 690.89l-46.28-12.73-73.97 22.09-42.27-1.12-26.12-26.26-64.21-25.05-35.69-21.15-66.71 34.52-39.89 31.25-49.69 21.81-27.53 21.62-91.46 28.38-27.07 16.79-64.9 4.44h713.19v-61l-50.14-21.66-7.26-11.93"/><path fill="#a5a5a5" d="M1360 647.96l-42.3-19.43-43.28-24.39-64.71-39.25-27.26 48.02-37.3 43.38-46.46 30.25-25.74 30.01-85.51 39.38-25.31 23.3-60.67 6.25H1360V647.96"/><path fill="#262628" d="M0 567.09l30.74-28.52 9.81-35.76 62.53-38.16 99.96 66.23 57.12-3.35 35.28-78.73 86.76-75.08 48.23-63.41 90.14 103.48 53.91 93.69 67.15 65.35 37.19 64.84 123.58 85.07 36.58 50.33 87.69 12.41H0V567.09"/><path fill="#424242" d="M130.89 507.37l-3.15-6.77 5.22-16.45-29.88-19.8v15.75l-20.44 17-8.56 20.4 29-11.37 37.93 33.92 42.85 38.36-84.69-25.94-29.63 6.42-17.21 30.12-26.74 27.58L0 628.54l.03 70.45 36.34-59.37 28.01-34.01 22.4-31L187.51 679.5l35.22-75.15M430.43 310l4.26 14.39-10.12 16.52 10.12-6.39 8.41 8.53 1.73 13.56-20.26 11.49-18.12 21.05 19.19-13.59 23.44-4.8 22.38 42.63-12.79 13.85-5.42 16.52-8.42 20.59-34.65 19.15L415 488l28.13-4.48 14.5-10.68 13.85-23.2 12.79 3.2 19.6 41.92-5.21 11.4 9.06-5.83 9.06 15.93v18.65l-18.12 23.65-5.35 26.44-16.52 22.31-23.54 13.42-8.42 22.89L461.6 626l25.84-4.43-11.19 11.29-5.33 10.72 9.08-10.72 18.65-11.29 10.13-23.4L524.65 585l18.74-8.69-14.6 24.14s-4.05 25-6.72 29.31-29.31 30.91-29.31 30.91l-52.21 18.83-27.18 26.42-23.45 27.71 28.24 33.12 44.76-37.84 35.7-6.36L517.29 707l31.44-30.91 39.43-3.43 20.78-9.89 22.91 23.35 32.5 36.43-27.32 10-19 18.65-37.34 2.66 51.15 2.66 42.63-13.48 12.26 12.42-4.8 16.57 13.32 13.42h231.42L839 772.77l-36.6-50.33-123.58-85.07-37.2-64.84-67.15-65.35-53.91-93.7zM397.65 413.08l-15.45 19.65-45.67 29.42 49.44-28.29 11.68-20.78M376.93 532.4l-16.95 15.29-44.49 17.2 51.6-9.44 9.84-23.05M365.12 521.1l-18.91 7.77-15.19 11.18 21.19-9.47 12.91-9.48"/><path fill="#424242" d="M30.74 538.57l26.68 1.78-24.57-9.47-2.11 7.69"/><path d="M72.62 496h235.92a52.71 52.71 0 0 1-31-10.05A87.75 87.75 0 0 0 197.38 474l-27.55 9.51a51.56 51.56 0 0 0-38.87-.46l-9.21 3.62A134.28 134.28 0 0 1 72.62 496z" fill="#fff"/><path fill="#262628" d="M0 701.24l85.56-112.42h10.35l57.62-37.69 43.28-36.45L261.52 456l27.26 71.79 37.3 64.83 46.46 45.22 25.74 44.86 85.51 58.86 25.31 34.82 60.67 9.1H0v-84.24"/><path fill="#262628" d="M113.12 595.11l-13.55-19.04-6.43-1.66-14.53 23.55 34.51-2.85"/><path fill="#424242" d="M230.47 537.84l-39.89 34.8 59.49-31.46-19.6-3.34M161.33 616.38l-24.19 19.31-8.23 19.48 10.45-14.49 21.97-24.3"/><path fill="#424242" d="M261.52 456l-11.77 68.85-19.28 12.99 19.6 3.34-7.44 20.27 28.88 30.46 3.21 34.96-16.76 17.12-16.03 25.33-27.4 19.54-20.43 12.21-12.48 15.34 15.89-11.77 21.36-9.88 23.06-11.17 12.82-.36 12.12-10.34 17.13-13.2 31.03 21.05 8.92 22.83 12.49 29.96 22.11 14.63L372.46 774l14.27 11.48h183.04l-56.35-19.3-29.63-24.62-85.51-58.86-25.74-44.86-46.46-45.22-37.3-64.83L261.52 456M197.97 613.42l-46.94 27.24-20.91 11.61-30.95 32.05 33.49-29.15 24.96-14.81 40.35-26.94"/><path fill="#424242" d="M225.65 785.48l76-42.62-5.72 22.87-39.38 19.75h-30.9M99.57 576.07l-8.17 17.39 30.16-3.69-16.96-6.63-5.03-7.07M258.68 472.62l-6.73 13.64-15.11 10.63 15.37-6.77 4.15-3.94"/><path d="M222.73 520.26h128.84a28.79 28.79 0 0 1-16.91-5.49 47.92 47.92 0 0 0-43.79-6.52l-15 5.2a28.16 28.16 0 0 0-21.23-.25l-5 2a73.33 73.33 0 0 1-26.84 5.09zM283.65 399.41h128.84a28.79 28.79 0 0 1-16.91-5.49 47.92 47.92 0 0 0-43.79-6.52l-15 5.2a28.16 28.16 0 0 0-21.23-.25l-5 2a73.33 73.33 0 0 1-26.84 5.09zM420.31 439.44h208.3a46.54 46.54 0 0 1-27.34-8.88 77.47 77.47 0 0 0-70.8-10.56l-24.32 8.4a45.52 45.52 0 0 0-34.32-.41l-8.13 3.2a118.55 118.55 0 0 1-43.38 8.22z" fill="#fff"/><path fill="#262628" d="M1360 785.48v-21.82l-33.14-26.06-85.54 2.62-17.64-22.91-60.57 27.76-54.08 6.22-36.53 34.19H1360"/><path fill="#424242" d="M1223.68 717.16l-20.99 27.94-47.81 19.32-17.88 21.06h68.85l17.83-34.35 17.64-11.07-17.64-22.9M1326.86 737.44l-63.9 13.69-5.31 12.35 9.86-7.78 59.35-18.26M1360 763.66l-33.14 4.46-20.63 17.36h33.07l20.7-3.31v-18.51"/></g></svg>