<svg xmlns="http://www.w3.org/2000/svg" xmlns:xlink="http://www.w3.org/1999/xlink" viewBox="0 0 901.67 900"><defs><linearGradient id="linear-gradient" x1="447.45" y1="478.12" x2="409.06" y2="483.22" gradientUnits="userSpaceOnUse"><stop offset="0" stop-color="#95a6b4" stop-opacity=".9"/><stop offset=".19" stop-color="#8c9ca9" stop-opacity=".91"/><stop offset=".5" stop-color="#74828c" stop-opacity=".94"/><stop offset=".9" stop-color="#4d585c" stop-opacity=".99"/><stop offset="1" stop-color="#414b4e"/></linearGradient><linearGradient id="linear-gradient-2" x1="451.26" y1="298.4" x2="452.42" y2="613.61" gradientUnits="userSpaceOnUse"><stop offset="0" stop-color="#fff" stop-opacity="0"/><stop offset=".08" stop-color="#fff" stop-opacity=".14"/><stop offset=".22" stop-color="#fff" stop-opacity=".37"/><stop offset=".35" stop-color="#fff" stop-opacity=".56"/><stop offset=".47" stop-color="#fff" stop-opacity=".71"/><stop offset=".59" stop-color="#fff" stop-opacity=".81"/><stop offset=".69" stop-color="#fff" stop-opacity=".88"/><stop offset=".77" stop-color="#fff" stop-opacity=".9"/><stop offset="1" stop-color="#fff" stop-opacity=".9"/></linearGradient><linearGradient id="linear-gradient-3" x1="449.55" y1="275.31" x2="450.58" y2="556.53" xlink:href="#linear-gradient-2"/><linearGradient id="linear-gradient-4" x1="432.98" y1="283.67" x2="433.49" y2="642.05" xlink:href="#linear-gradient-2"/><linearGradient id="linear-gradient-5" x1="431.44" y1="208.85" x2="439.09" y2="584.63" xlink:href="#linear-gradient-2"/><linearGradient id="linear-gradient-6" x1="307.78" y1="599.3" x2="312.78" y2="550.57" xlink:href="#linear-gradient-2"/><linearGradient id="linear-gradient-7" x1="297.22" y1="582.73" x2="298.89" y2="555.86" xlink:href="#linear-gradient-2"/><linearGradient id="linear-gradient-8" x1="639.82" y1="591.84" x2="642.13" y2="543.74" xlink:href="#linear-gradient-2"/><linearGradient id="linear-gradient-9" x1="583.18" y1="545.22" x2="633.24" y2="545.22" xlink:href="#linear-gradient-2"/><linearGradient id="linear-gradient-10" x1="292.7" y1="227.81" x2="299.6" y2="337.86" xlink:href="#linear-gradient-2"/><linearGradient id="linear-gradient-11" x1="549.99" y1="305.21" x2="579.59" y2="305.21" xlink:href="#linear-gradient-2"/></defs><g style="isolation:isolate"><g id="Layer_2" data-name="Layer 2"><g id="Layer_1-2" data-name="Layer 1"><path id="bg1" fill="#333" d="M0 0h901.67v900H0z"/><path fill="#6f7f84" opacity=".15" d="M1.67 526.78h900V900h-900z"/><path id="bg2" d="M901.54 2.15H0v437.4L162.8 438l61.38-35 2-13.56a.6.6 0 0 1 1.18-.06l1.26 5.1 2.09-37.86a.6.6 0 0 1 1.2 0l2.8 40.38 5-2.83L282 370.65l2-21.17c0-.42 1-.42 1.07 0l1.49 18.65 10.63-5.9 3.21-46.29 15.92-34.4 7.82-72.1L409 232.1l125.74-12.46-1.43 77.24 8 34.49 32 25.15 26.16 35.66 1.49-16c0-.42 1-.42 1.07 0l1.47 18.32 38.47 12.72 3.54-23.92a.78.78 0 0 1 1.53-.07l1.63 6.61 2.71-49.09a.78.78 0 0 1 1.56 0l5 71.77 14.34 4.74 44.15 63.65 36.57-44.1 148.36 9.46zm-645.9 326.24a.91.91 0 0 1-1.81 0l-3.16-57.18-1.9 7.7a.91.91 0 0 1-1.78-.09l-4.49-30.32 20-18.74zm48.08-52c-.07.72-1.78.72-1.84 0l-3.55-44.32h9.53zm308.8 42.93a.6.6 0 0 1-1.2 0l-2.09-37.86-1.26 5.1a.6.6 0 0 1-1.18-.06l-3-20.08 11.71 9.39zm23.59-9.21c0 .42-1 .42-1.07 0L633 284.33h5.55z" fill="#424242"/><g opacity=".4" fill="#6f7f84"><path d="M1.67 526.78c-3.75 5.15 0 100.08 0 100.08l311.46-3.78s155.18-.23 239.72-4.47c96.61-4.85 226.82-28.2 226.82-75.91 0-5.43-2-10.74-5.73-15.9z" opacity=".3"/><path d="M106 526.8c-3.76 2-104.32 50.85-104.32 50.85s213.26-13.92 258.49-18.23 66.55-1.75 83.51 1.23c31 5.46 62 5.33 95.1 5.33 58.85 0 93.68-1.93 125-7.29 28.95-5 93.93-8.62 123.63-5.15 61.78 7.22 50.41-32.65 134.58-41.11 2.07-.21-46.62 16.35-50.37 14.38z" opacity=".5"/></g><path d="M611.4 526.92c-5.85-12.63-18-22-32.81-22a33.62 33.62 0 0 0-12.82 2.57 11.33 11.33 0 0 0-6.35-1.95 11.62 11.62 0 0 0-7.32 2.69 44.43 44.43 0 0 0-17.27-8.36 21.77 21.77 0 0 0-9.95-7V4.31h-194V500.5h-.15a12 12 0 0 0-9.44 4.9 37.53 37.53 0 0 0-25.6 19.28q-.55 1-1 2.12s18.81 2.16 34 2.16c7.15 0 14.59-.48 20.46-1a165.94 165.94 0 0 0 17 1.15 134.49 134.49 0 0 0 16.28-1.21c-.15-.38-.32-.75-.5-1.12H489a332.31 332.31 0 0 0 35.4 1.92c9.69 0 18.61-.46 25.67-1 11 1.9 40.46 5.92 61.33-.78z" fill="#d2d3d4"/><path fill="#6f7f84" opacity=".1" d="M360.35 233.16l9.49 142.57 6.91-142.57h-16.4zM360.2 410.08l1.11 76.94 7.24-20.25-8.35-56.69zM468.52 237.11l.75 51.65 4.86-13.6-5.61-38.05zM498.71 304.44l-5.26 136.73-3.84-136.73"/><path fill="#333" opacity=".5" d="M360.35 233.18h16.4l-1.93 5.14-9.97 3.22-4.5-8.36zM498.71 304.44h-9.1l1.07 4.94 5.54 3.08 2.49-8.02z"/><path d="M563.72 558.68l-13.22-25.91-11.35-3-7.41-6.62-12.05-4.37-13 6.48-9.29-4.65s-2.9-11.07-8.93-19.47l-28.39-46.36-4.92-.3-1.09 4.26c-4.16 13.06-33.92 34.92-49.2 34.92h-8.78l-33.9 50.21-18.53 16.83c71.37 18.5 164.81 4.86 179.23 2.57 12.83.35 27.82-.47 40.83-4.59z" fill="#262628"/><path fill="#333" d="M415.6 528.6l-15.85 2.15-11.77 14.24-8.49 4.54 8.34-3.22 13.13-11.99 14.64-5.72zM453.84 491.34l14.15 9.7 9.32 33.6 8.75 15.18-9.04-12.97-11.77-31.31-11.41-14.2zM545.6 544.14s-9.17.29-9.62.15-6.36-2.77-6.36-2.77l8.13-.64zM416.76 500.3l22.74-.51 7.81-1.74-6.49 3.34-24.06-1.09z"/><path fill="#262628" d="M190.4 488.92l10.23-15.21 15.09 3.01 4.5 21.48-29.82-9.28z"/><path fill="#262628" d="M165.9 474.28l23.91 6.04 40.62 6.7 29.73 7.68 20.17 12.26-43.04 30.05-68.94-14.54-2.45-48.19zM212.27 462.29l.86.18a2.2 2.2 0 0 0-.39-2.1l-5.83-4.24a1.67 1.67 0 0 0-1.86-.5l-.47.17a4.9 4.9 0 0 0-2.07 1.58 4.65 4.65 0 0 0-1 2.51v11s.42 1.22.69 1.24l7.59.72s2.45-10.54 2.48-10.56z"/><path d="M214.16 491.21l.19 2.4 2.93.49.38.23a1.79 1.79 0 0 1 .77 2.41l-.36.05-.33.09-2.31.08-3.14-.41-1.2-.18a.85.85 0 0 1-.55-.69 3.17 3.17 0 0 1 .33-1.58 3.41 3.41 0 0 0 .24-.65 4.46 4.46 0 0 0 0-2.34" fill="#262628"/><path d="M204 458.53c1.23-.81 3.83-.33 3.83-.33l4.05 3.75.34.34-1.17 9.6-8.29 1.11 1-10.16c-.51 0-1.62.11-1.66.62l-1.19 3.89-.67 5.42-3.05-.38 1.79-8.77c.11-1.18 1.72-2.38 2.58-3.2-.05-.05 1.26-1.08 2.44-1.89zM217.51 497c-1.14 0-5.67-.47-5.67-.47s-1.2-.38-1.3-.83 8 .34 8 .34.32.96-1.03.96z" fill="#333"/><path d="M208.81 457.32a5.49 5.49 0 0 1 0-1l.08-.62 2.87-3 2.17 2.84-.46 2-1.94 4.26-1.77-.91-1-.85z" fill="#333"/><path d="M208.62 454.18a2.86 2.86 0 0 1 3.4-2.71c3.44.42 2.83 3.25 2.2 3.61" fill="#333"/><path d="M217.53 467.53l.24 2.88a2.11 2.11 0 0 0 2.46-2l.07-.4zM211.07 454a8.15 8.15 0 0 1-.85 1 13.4 13.4 0 0 0-1.41 2.27 23.85 23.85 0 0 1-.22-2.53z" fill="#424242"/><path d="M208.41 454.9s2.29-1.3 5.47.81c0 0 .75-1.05.42-1.86-.16-.39-1.43-.82-2.61-1a5.6 5.6 0 0 0-2.73.47c-.58.3-.55 1.58-.55 1.58z" fill="#333"/><ellipse cx="212.69" cy="454.03" rx="1.56" ry="1.67" transform="rotate(-89.33 212.68 454.034)" fill="#3a3a3c"/><path d="M210 455.45a.55.55 0 0 0-.55-.65c-.39 0-.93 1.21-.13 1.79l.19-.6s.49-.36.49-.54z" fill="#333"/><path d="M199.92 475.18h-.42c-1.14-.11-2-1.64-2.19-2.77l2.69.25a13.45 13.45 0 0 1-.08 2.52z" fill="#424242"/><path d="M227.82 493.66a31 31 0 0 1-5.82-.22 1.87 1.87 0 0 1-1-.51c-.26-.26-.44-.59-.17-.9.55-.62 8.37.14 8.37.14a1.4 1.4 0 0 1-1.38 1.49z" fill="#333"/><path d="M223.47 488a4.75 4.75 0 0 0 2.3 2.35l2.73.87.23.17a1.09 1.09 0 0 1-.7 1.94l-6.87-.68a.53.53 0 0 1-.51-.47 4.53 4.53 0 0 1 .08-1.38l.05-.25-.11-2.61" fill="#262628"/><path d="M221.68 474.19l-10.81-2.46-8.11 1.27-.28 1.19c.27 1.89 1.37 2.67 2.82 3.9l.61.11c.56.48.61.69 1.34.57l10.37-1c.59-.1 1.88-.29 1.92.3l.71 11.38 3.93-.25s-.74-8.88-.71-11.61-1.31-3.28-1.79-3.4z" fill="#333"/><path d="M211.44 457.84a.64.64 0 0 1 .48-.14h.21a.64.64 0 0 1 .38.18l.25.25-.17.08h-.09l-1-.09h-.12l-.15-.12z" fill="none"/><path d="M209.2 458.06c-.06.52 2 2.3 2 2.3l1.74-.35.56-2.49-.35.45-.62-.58-.95-.1-.66.46-.82-.63.51-2.57-.61.56s-.57 1.36-.57 1.4zm2-.05l.2-.17a.64.64 0 0 1 .48-.14h.21a.64.64 0 0 1 .38.18l.25.25-.17.08h-.09l-1-.09h-.12z" fill="#424242"/><path d="M211.57 480.15a1.27 1.27 0 0 1 1.29 1.25l-2.61 9.73 4.39.89s2.25-10.72 2.27-11.94-1.53-3.92-3.62-4.27l-2.63-.44s-1.27-2.43-3-3c-2.19.21-4.85.62-4.85.62l-.28 1.19a5.24 5.24 0 0 0 1 3.64 6 6 0 0 0 3.35 1.53zM211.19 471.29l-8.44.92.1-1.5 8.49-.74s-.19 1.35-.15 1.32z" fill="#333"/><path fill="#262628" d="M208.81 459.04l-5.6 8.56.13-1.6 4.95-7.47.52.51z"/><path d="M235 474.49l-.43-.2c-1.17-.54-1.5-2.49-1.28-3.76v-.05l2.76 1.28a15.12 15.12 0 0 1-1.05 2.73z" fill="#424242"/><path d="M252.77 459.08a2.51 2.51 0 0 0-.58-2.37l-7.25-2.79c-1-.36-1.45-.65-2.19-.34l-.52.22a5.58 5.58 0 0 0-2.26 1.92 5.3 5.3 0 0 0-1 2.91l-.07 12.85c.62.55.86.81 1.17.82l8.68.34s3.99-13.53 4.02-13.56z" fill="#262628"/><path d="M251.23 458.56l-4.36-2.3-4.37-.43-1.91 1.56-1.44 1.37a7.15 7.15 0 0 0-2 2.56l-4.24 9.11-.11.35 3.37 1.17 4.35-9.37c.24-.52 1.07-1.25 1.64-1.19l-1.87 10.72 9.27 1.48 2.32-14z" fill="#333"/><path fill="#262628" d="M244.57 456.07l-3.28 10.4.71-4.27 1.55-6.26 1.02.13z"/><path d="M244.85 451a3.21 3.21 0 0 1 3.71-3.19c3.88.33 3.31 3.54 2.62 4" fill="#333"/><path d="M261.24 460.18l2 2.23a2.58 2.58 0 0 0 .19-3.64l-.29-.32z" fill="#424242"/><path d="M245.19 454.5a6.17 6.17 0 0 1 0-1.09l.06-.7 2.73-2.63 2.89 2.34-.46 2.82-2.2 2.76a5.69 5.69 0 0 1-1.74.09c-.92-.1-1.18-.52-1.18-.52z" fill="#333"/><path d="M247.59 450.69a9.16 9.16 0 0 1-.92 1.1 17 17 0 0 0-1.55 3c-.09.08-.29-3.26-.29-3.26z" fill="#424242"/><path d="M244.63 451.79s2.52-1.55 6.18.69c0 0 .8-1.21.4-2.11-.19-.43-1.64-.86-3-1a6.3 6.3 0 0 0-3.05.64c-.6.34-.53 1.78-.53 1.78z" fill="#333"/><path d="M246.5 452.35a.62.62 0 0 0-.64-.71c-.43 0-1 1.4-.07 2l.21-.64a2.51 2.51 0 0 0 .5-.65zM263.45 462.25l-4.68 3.83a3.53 3.53 0 0 1-3.63.51l-4.78-2.07 1.53-4.93.51 1.75 3 2a1.49 1.49 0 0 0 1.75-.1l4.12-3.37s2.17 2.3 2.18 2.38zM245.94 504.06c-1.26.21-6.72-1-6.72-1s-1.79 0-1.39-1.41c.2-.69 9 1.29 9 1.29s-.04.97-.89 1.12z" fill="#333"/><path d="M242.18 497.27l.05 2.71 3.25.75.41.28a1.93 1.93 0 0 1 .66 2.69h-.07l-.07.12-3.08-.8-3.86-.66-.74-.09h-.34c-.35-.11-.5.12-.57-.22a3.56 3.56 0 0 1 .48-1.75 3.83 3.83 0 0 0 .31-.71c.28-.85.88-1.76.69-2.63" fill="#262628"/><path d="M255.56 501.2a28.74 28.74 0 0 1-5.4-.11 2.18 2.18 0 0 1-1.42-1.26c-.31-.76.17-.94.43-1.23.5-.58 7.67 1.2 7.67 1.2a1.37 1.37 0 0 1-1.28 1.4z" fill="#333"/><path d="M251.3 495.46a4.62 4.62 0 0 0 2.27 2.24l2.66.8.23.17a1.06 1.06 0 0 1-.65 1.9l-6.68-.54a.51.51 0 0 1-.51-.45 4.4 4.4 0 0 1 .06-1.34V498l.33-2.42" fill="#262628"/><path d="M240.54 481.07c1.55 5.72.43 4.61-.55 8.44L238.5 498l4.18 1.22a75.87 75.87 0 0 1 2.48-10.74c.71-2.27.95-2.63.65-5l-.4-5-5.47-2.83z" fill="#333"/><path d="M244.33 481.31c.75 3.54.22 4-.75 7.84l-2.28 9.7.26 1.23 1 1 2.92.63s-2.42-1.05-2.75-1.29 0-1.19 0-1.19a75.87 75.87 0 0 1 2.48-10.74c.71-2.27.95-2.63.65-5l-.4-5-1.45.59z" fill="#fff" opacity=".05"/><path fill="#333" d="M249.84 457.82l.57 10.74.57-3.36-.11-6.83-1.03-.55zM249.74 472.49l-9.27-1.3-.08.44a4.58 4.58 0 0 0-.64 3.49 7.11 7.11 0 0 0 .64 2.56c.51.78 3.82 2.52 3.82 2.52l1.52-1.54 2.6 5.45a8.94 8.94 0 0 1 .83 3.14l-.78 9.79 3.69-1s1.72-8.76 1.38-11.15-3.71-12.4-3.71-12.4z"/><path d="M248.16 455a.72.72 0 0 1 .53-.17h.24a.72.72 0 0 1 .43.19l.29.27-.19.1h-.1l-1.12-.06h-.14l-.17-.12z" fill="none"/><path d="M245.66 455.31c-.05.59 2.33 2.51 2.33 2.51l1.94-.46.57-2.51-.41.22-.72-.62-1.07-.07-.72.55-.94-.68c-.05 0 .47-2.9.47-2.9l-.67.65s-.67 1.49-.66 1.54zm2.28-.14l.22-.19a.72.72 0 0 1 .53-.17h.24a.72.72 0 0 1 .43.19l.29.27-.19.1h-.1l-1.12-.06h-.14z" fill="#424242"/><path fill="#333" d="M249.99 471.05l-9.33-.98.25-1.42 9.32.99-.24 1.41z"/><circle cx="249.97" cy="450.73" r="1.48" transform="rotate(-49.37 249.965 450.72)" fill="#545454"/><circle cx="249.97" cy="450.73" r=".66" transform="rotate(-49.37 249.965 450.72)" fill="#d2d3d4"/><g opacity=".05" fill="#fff"><path d="M251.8 462.34l3.11 1.91a2.64 2.64 0 0 0 3.11-.4l3.3-3.94-4.12 3.37a1.49 1.49 0 0 1-1.75.1l-3-2-.15-.52c.31-1 .51-1.73.52-1.73a2.51 2.51 0 0 0-.58-2.37 1.18 1.18 0 0 0-1 .51 1.51 1.51 0 0 0-.39 1.08l.48.25-1.35.14-.72 2.25-1.26 3.21-.92 4.46-.25 3.92 1.09 3.16 1.72 6.44 1.32 2.19.7 4.44-.35 3-1.1 3.68.13 2 3.13 1.57 1.68 1.36-.08.13.74.06a1.06 1.06 0 0 0 .65-1.9l-.23-.17-2.66-.8a4.61 4.61 0 0 1-1.88-1.57l.38-.1s1.72-8.76 1.38-11.15-3.49-11.74-3.69-12.36l1.22-7.34zM261.32 459.9z"/></g><path d="M250.81 452.48l-.31 2.37-.57 2.51-1.13.27.68-3.51.32-.31-.15-.54v-.51l.7-1.42v-2.08s-1.33-1.52-.26-1.1 2.5 2.11.72 4.32zM214.93 473.8s4.91.9 5.71 1.26a3.33 3.33 0 0 1 1.31 2.4l.89 11.79 1.33-.08s-.74-8.88-.71-11.61-1.3-3.24-1.78-3.37L211 472.67l-1.83.23zM211 461.1h-.81l-.29.88-.69 10.59 1.83-.23.07-6s1.07 1.18 1.09 1.19l4.48.85c.05-.05.34-.88.34-.88l-2.87-.47c-.51-.12-2.14-.77-2.28-1.25l1-2.93z" fill="#fff" opacity=".05"/><path d="M212.2 461.49l1 .64a1.8 1.8 0 0 0-.37-1.61c-.19.65-.32.89-.63.97z" fill="#fff" opacity=".1"/><circle cx="212.69" cy="454.01" r="1.48" transform="rotate(-49.37 212.68 454.006)" fill="#545454"/><circle cx="212.69" cy="454.01" r=".66" transform="rotate(-49.37 212.68 454.006)" fill="#d2d3d4"/><path d="M213.93 455.62l-.51 2.23-.49 2.16-1.07.21.76-3.08.3-.27-.11-.49v-.45l.69-1.24.09-1.86s-1.11-1.44-.18-1 2.08 2 .52 3.79zM203.72 462.79H203s-.9.07-.95.58l-1.19 3.89-.67 5.42-.74-.09 1.11-7.12c.11-1.18.38-2.3 1.13-2.64a4.14 4.14 0 0 1 2.03-.04zM214.64 492l-1.62-.32L215.9 481s.92-2 .24-2.85-4.67-2-4.67-2a21.82 21.82 0 0 1 3.91.77c1.81.78 1.84 1.12 1.68 2.44S214.64 492 214.64 492zM214.18 492.01v.95l2.07.79 1.41.59-1.57-.29-2.87-.4-.2-1.96 1.16.32zM223.83 489.23v.8l.72.5 1.94.5-2.66-.14-.45-.55-.41-1.11h.86z" fill="#fff" opacity=".05"/><path fill="#414b4e" d="M405.37 482.98h35.65v12.51h-35.65z"/><path fill="#566468" d="M448.02 491.89l-7 3.59v-12.5l7-4.36v13.27z"/><path fill="#333" d="M405.37 482.98l8.15-4.36h34.5l-7 4.36h-35.65z"/><path opacity=".5" fill="url(#linear-gradient)" d="M405.37 482.98l8.15-4.36h34.5l-7 4.36h-35.65z"/><path fill="#414b4e" d="M413.57 478.62l4.61-10.36h34.49l-4.61 10.36h-34.49z"/><path fill="#566468" d="M417.01 477.35l3.46-7.79 28.64-.01-3.47 7.78-28.63.02zM452.67 468.26s.92 10.56-4.66 10.36M409.68 492.8h26.96v.49h-26.96zM409.68 490.26h26.96v.49h-26.96zM409.68 487.71h26.96v.49h-26.96z"/><path fill="#566468" d="M415.03 482.98h1.4v9.96h-1.4zM430.38 482.98h1.4v9.96h-1.4zM436.64 482.98h1.4v10.32h-1.4zM408.28 482.98h1.4v10.32h-1.4z"/><path fill="#566468" d="M409.68 485.17h26.96v.49h-26.96z"/><circle cx="423.34" cy="487.96" r="1.35" fill="#566468"/><circle cx="423.34" cy="487.96" r=".51" fill="#414b4e"/><path id="light-ray1" d="M901.47 529.48V237.92L422 125.89 1.67 241.56v286.88L405.37 483H441zM440 481.73l-29.38.17 4.2-2.2 28.86-.17z" opacity=".05" fill="url(#linear-gradient-2)"/><path id="light-ray2" d="M609.42 194.64l-233-73.05L127 415.18 405.37 483H441l22-2.53 310.06-71.38zM440 481.73l-29.38.17 4.2-2.2 28.86-.17z" opacity=".2" fill="url(#linear-gradient-3)"/><path id="light-ray3" d="M441 483l7-4.36 203.4-240.68-230.29-105-206.73 91.13L405.37 483m34.63-1.27l-29.41.17 4.2-2.2 28.89-.17z" opacity=".3" fill="url(#linear-gradient-4)"/><path id="light-ray4" d="M440 481.73l3.68-2.2 26.52-325.92-79.55 9.39 20 318.88z" opacity=".8" fill="url(#linear-gradient-5)"/><circle cx="339.43" cy="362.95" r=".9" fill="#fff" fill-opacity=".9" opacity=".75"/><circle cx="406.85" cy="362.95" r=".9" fill="#fff" fill-opacity=".9"/><circle cx="438.26" cy="319.86" r=".9" fill="#fff" fill-opacity=".9"/><circle cx="472.72" cy="392.67" r=".9" fill="#fff" fill-opacity=".9" opacity=".75"/><circle cx="553.87" cy="395.94" r=".9" fill="#fff" fill-opacity=".9" opacity=".5"/><circle cx="438.26" cy="434.2" r=".9" fill="#fff" fill-opacity=".9"/><circle cx="520.43" cy="331.52" r=".9" fill="#fff" fill-opacity=".9" opacity=".75"/><circle cx="347.4" cy="437.07" r=".9" fill="#fff" fill-opacity=".9" opacity=".5"/><circle cx="378.02" cy="433.29" r=".9" fill="#fff" fill-opacity=".9" opacity=".75"/><path d="M438.15 604.19S240.81 595.46 242 587.42c-35.88 1.09 42.24 12.71 196.15 16.77zM426.06 595.2s-94.79-5.48-88-7.33c-15.13.46 6.65 4.81 88 7.33zM446.75 685s226.68-1.92 182-10c34.83-1.06 23.87 12.61-182 10zM629.85 648.29s-98.08-.56-89.85 3.71c-18-.62 9.68-6.1 89.85-3.71zM320.39 684.73s-50.94-1.3-47.29-5.4c-6.56 1.45 5.9 6.23 47.29 5.4z" fill="#6f7f84" opacity=".3"/><path fill="#333" d="M220.92 517.02l9.2.29-8.06 2.74-4.87-3.15 3.73.12zM231.85 523.47l-10.14 3.24 20.59 3.59 1.16-3.84-11.61-2.99z"/><path d="M317.2 589.46l-6.66-69.62c-.09-1.18-2.9-1.19-3 0l-5.9 72.42" fill="url(#linear-gradient-6)"/><path d="M300.61 574l-2.71-29.63c0-.61-1.09-.62-1.14 0l-1.87 31.84" fill="url(#linear-gradient-7)"/><path d="M644.76 581.81l-1.91-44.23c-.06-.72-1.77-.72-1.84 0l-4.83 37.13" fill="url(#linear-gradient-8)"/><path d="M583.18 604.48l15.44-25.2 11.81-27.9c.21-1.45 2.52-1.08 2.61-.06l3.41 11.57 7.55-75.66a1.34 1.34 0 0 1 2.67 0l6.61 108.89z" fill="url(#linear-gradient-9)"/><path d="M275.56 239.66l5.44 96.66a1.3 1.3 0 0 0 2.57 0l7-73.18.21 6.29a1.3 1.3 0 0 0 2.53-.12l17.6-45.19" fill="url(#linear-gradient-10)"/><path fill="#333" d="M260.16 511.75l6.03 1.88 4.59 24.2-7.84-22.39-2.78-3.69z"/><path d="M550 241.56l6.48 63.89 6.83 10.06 5.83 52.89a.51.51 0 0 0 1 0l2.86-89.14 4.83 9.38a.92.92 0 0 0 1.78 0l-.4-18.64" fill="url(#linear-gradient-11)"/><path id="bg3" d="M0 0v900h901.67V0zm658.23 692.22C492.11 712 364.32 697 319.62 695.13c-40.75-1.72-131.37-19.42-80.4-22.23s78-.55 98.5-18.82c8-7.13 4.32-12.06 4.32-12.06l-16.93-45.17-9.11-8.48-5.48-68.52c-.09-1.18-2.9-1.19-3 0l-5.2 55.73-2.77-2.58-1.66-28.64c0-.61-1.09-.62-1.14 0l-1.54 22.77L282.63 542l-2.3-35-79.7.48-30.78-32.58 9.37-32.16S197 415 205 400.67c4.46-7.9 7.73-16.22 12.14-24.21 2.87-5.21 16.15-19.77 16.15-24.92l40.83-92.1 6.88 76.88a1.3 1.3 0 0 0 2.57 0l4.48-77.3 2.7 10.41a1.3 1.3 0 0 0 2.53-.12l13.94-43.46L401 182.39c10.9-.5 32.94.62 32.94.62l71.14 12.87 47.22 48 .34.23 6.22 61.31 6.83 10.06 3.44 52.89a.51.51 0 0 0 1 0l5.21-89.13 2.45 9.38a.92.92 0 0 0 1.78 0l4.87-22.62 42.07 28.88 31.72 11.29 50.59 166.37-15.65 56.88-8.64 35.82-29.61 6.76-9.21 1.31-2.86-35.77c-.06-.72-1.77-.72-1.84 0l-3.45 36.93-3.56.53-7.34-87.83a1.34 1.34 0 0 0-2.67 0l-5.57 75.44-5.42-11.29a1.34 1.34 0 0 0-2.62.13l-10.55 29.08-17 24.06c-3.4 1.41-36 15.1-37 20.31-.54 3 5.89 12.73 39 12.73s156.15 12.62 59.85 15-112.22 14.6-43.46 14.07 223.14 5.77 57.01 25.52z" fill="#262628"/></g></g></g></svg>