<svg xmlns="http://www.w3.org/2000/svg" viewBox="0 0 900.01 957.96"><defs><linearGradient id="linear-gradient" x1="330.78" y1="747.38" x2="392.63" y2="412.06" gradientUnits="userSpaceOnUse"><stop offset="0" stop-color="#fff" stop-opacity="0"/><stop offset=".1" stop-color="#fff" stop-opacity=".14"/><stop offset=".28" stop-color="#fff" stop-opacity=".37"/><stop offset=".45" stop-color="#fff" stop-opacity=".56"/><stop offset=".62" stop-color="#fff" stop-opacity=".71"/><stop offset=".77" stop-color="#fff" stop-opacity=".81"/><stop offset=".9" stop-color="#fff" stop-opacity=".88"/><stop offset="1" stop-color="#fff" stop-opacity=".9"/></linearGradient><linearGradient id="linear-gradient-2" x1="588.23" y1="855.06" x2="390.02" y2="327.16" gradientUnits="userSpaceOnUse"><stop offset="0" stop-color="#fff" stop-opacity="0"/><stop offset=".14" stop-color="#fff" stop-opacity=".21"/><stop offset=".31" stop-color="#fff" stop-opacity=".45"/><stop offset=".47" stop-color="#fff" stop-opacity=".65"/><stop offset=".63" stop-color="#fff" stop-opacity=".8"/><stop offset=".77" stop-color="#fff" stop-opacity=".91"/><stop offset=".89" stop-color="#fff" stop-opacity=".98"/><stop offset=".98" stop-color="#fff"/><stop offset=".98" stop-color="#fff" stop-opacity=".99"/><stop offset=".99" stop-color="#fff" stop-opacity=".92"/><stop offset="1" stop-color="#fff" stop-opacity=".9"/></linearGradient></defs><g id="Layer_2" data-name="Layer 2"><g id="Layer_1-2" data-name="Layer 1"><path id="bg2" fill="#424242" d="M0 0h900.01v957.85H0z"/><path id="bg1" d="M505.8 281.53l1.58 65.59 33.93 71.46L530 465.37l-.3 43.31-43.4 28.67-61.37-5.59L390 504l-61.49-112.38s35.07 20.13 37.48 17.72-6.17-56.55-6.17-56.55l21.84-50.23 59.39-38.19z" fill="#fff" fill-opacity=".9" stroke="#fff" stroke-miterlimit="10" stroke-opacity=".02" opacity=".03"/><path id="bg3" d="M0 0v957.85h900V0zm311.49 469v-19.5l4.37-1.15zm-.65-24l-29.72-4.54h26.68l17.7-3h25.11l-22.55 4zm47.36 48l-21.6-2.25 21.45-1.93 10.35 1 3.85 1.77zm248.31 75.51L587.3 623l-32.78 9.24-5.27-27.1-15-11.53-4.31-34.11a.88.88 0 0 0-1.65-.3l-5.4 10.39L513 635.2l-4.18-8.35-5.12-2.36-7.35 17.51-22.43-10.84-6.43-15.4c-.21-.57-1.54-.59-1.79 0l-2.45 5.69-5.25-33.29c0-.37-.94-.37-1 0l-3.48 11.32-6.84 6.1-1.93 11.52-24.5-11.84-19.83-44.41 4.58-65.39 17.2-65 33.69-44.17v-37.52l6.37-17.19 3.57 92.6h1l-3.66-95 3.13-8.44-.8-.55-6.75 6-52.24 21.84-.78-1.36-.87.5 1.82 3.19-15.09 5.81-23.76 14.26-23.21 7.35-1.94 2.65 12.81.77-5.26 1-15.89-.85 1.42-.77-13.26 4.2-36.5 17.35-6 4.82h18.31l8.67.72 6.29-.48-5.18 2.33-21.09-.14-10.26-1.15-2.69-.35-16 7.66-83.43 23.68-2.54-8.22c12.29-19.48 31.27-49.56 49.37-78.16l-1.45 2.77 24.16-10 60.93-68.4 1.22 19a.06.06 0 0 0 .13 0l1.67-22.39 4-4.47 1.9 3 3 31.76a.28.28 0 0 0 .57 0l2-10.8 4-5.82 1.56-15.38 8.72-20.49 8.08-4.3-.57 33.84c0 .29.54.3.56 0l7-37.53L430 200.45l3.36 14.44c0 .16.9.16.94 0l5.31-19.56.81-.43 4.13 3 4.58 30.49c0 .24.9.25.94 0l4.12-23.51L492 232.32l13.16-.6 13.29 8.48 6.39 5.21.86 14.94 3.37 61.05a.08.08 0 0 0 .16 0l6.93-81.21 9.48-10.32 12.19-.55 44.3 67 8.54 49.7 4.92 106.52L605 519.25zM449.6 337.73l-3.41.76 12.76-11.25v.15a2.07 2.07 0 0 0 2.07 2.07 2 2 0 0 0 1.07-.31l-6.21 16.76v-3.51zm11.4-9.28a1.06 1.06 0 0 1-.45-2h.07a1.05 1.05 0 0 1 .38-.08 1.07 1.07 0 1 1 0 2.13zm2-1.7a2.06 2.06 0 0 0-1.85-1.42l3.52-3.11zm-18.79 12.19l-19.05 4.23-2.44.94-2.23 2.27 12.8 1.11 5.87-.36 5.34 2.87-9.52-.5-8.53.88-11.58-1.47-1.87-1.08-5.4 2.08-.62-1.09 49.41-20.65z" fill="#333"/><path d="M542.14 855l-57.89-412.38s-1-5.34-1.85-6.37-1.58-2.16-1.58-2.16a3.17 3.17 0 0 0-3.07-1.57c-2 .34-4 6-3.21-.16.36-3 .56-3.35.64-4.3a3.37 3.37 0 0 0-.43-1.81 3.75 3.75 0 0 0-3-1.37c-2 .06-3.21 1.25-2.75 2.95s1.17 6.61 1.17 6.61l-2.74-.75s.18-8.84-1.67-9.13-3.07 1.23-2.77 3.5c.19 1.43-.51 7.09 2.2 8.13s4.57 1.93 4.67 2.38-.14 5.47-.14 5.47l-3.58.68s-8.92.69-9.35 1.29-1.9 11.48-2.75 13.58-4.8.9-5.19 2.26 18.53 400 18.53 400z" fill="#d2d3d4" opacity=".2"/><path id="bg4" fill="#262628" d="M638.11 671.34l-29.46 45.27L585.82 730l-86.54-8.2-111.85-80.49 7.45 108.37.78 208.24 504.34-.07V669.81l-261.89 1.53z"/><path d="M464 550.36l-1-.36c2.37-5.3-.17-17.36-2.62-29-1.75-8.31-3.4-16.16-3.4-21.79 0-13.56 9.66-57.47 9.75-57.91l1 .22c-.1.44-9.73 44.25-9.73 57.7 0 5.52 1.64 13.32 3.38 21.58 2.51 11.75 5.08 23.97 2.62 29.56z" fill="#262628"/><path d="M480.91 429.8a4.9 4.9 0 0 0-1.64-2l-.41-.28a1.67 1.67 0 0 0-1.92.05l-6.07 5.59a2.19 2.19 0 0 0-.8 1.23l-2.38-.66a1.43 1.43 0 0 1-1.05-1.31l-.25-5.11s-3.42.13-3.48.17l.28 5.8a3.39 3.39 0 0 0 2 2.92l4.53 2.07-.21 1.26.52 1.77.26-1.37c.17 2.7.36 5.68.36 5.68l7.54 1.1c.27 0 .75-.26 1-1s2.18-13.18 2.18-13.18a4.65 4.65 0 0 0-.46-2.73z" fill="#333"/><path d="M464 463.52l-.16 2.41-2.92.53-.38.23a1.9 1.9 0 0 0-.68 2.53l2.94.07 3.13-.45 1.2-.19a.85.85 0 0 0 .54-.69 3.17 3.17 0 0 0-.35-1.58 3.41 3.41 0 0 1-.25-.65 4.46 4.46 0 0 1 0-2.34" fill="#262628"/><path d="M460.34 469.4a45.48 45.48 0 0 0 6-.59s1.59 0 1.29-1.19c-.15-.62-8 .31-8 .31s-.63 1.28.71 1.47z" fill="#333"/><path d="M474.5 430.5a5.49 5.49 0 0 0 0-1l-.07-.62-2.85-3.05-2.19 2.83.45 2 1.66 3.71 2-.35 1-.85z" fill="#545454"/><path d="M474.71 427.36a2.86 2.86 0 0 0-3.39-2.74c-3.44.4-2.85 3.24-2.23 3.6" fill="#424242"/><path d="M466.29 427.83l-3.32-.9c0-1.58 1.25-2.45 2.84-2.45h.48" fill="#545454"/><path d="M472.27 427.17a8.15 8.15 0 0 0 .84 1 13.4 13.4 0 0 1 1.39 2.27 23.85 23.85 0 0 0 .24-2.53z" fill="#424242"/><path d="M474.92 428.07s-2.28-1.31-5.47.78c0 0-.75-1.05-.41-1.87.16-.39 1.44-.81 2.61-.95a5.6 5.6 0 0 1 2.73.49c.62.27.54 1.55.54 1.55z" fill="#333"/><ellipse cx="470.65" cy="427.18" rx="1.67" ry="1.56" transform="translate(-2.39 2.65)" fill="#3a3a3c"/><path d="M473.28 428.62a.55.55 0 0 1 .55-.64c.39 0 .92 1.22.12 1.79l-.19-.6s-.43-.38-.48-.55z" fill="#545454"/><ellipse cx="470.29" cy="427.26" rx="1.47" ry="1.53" transform="rotate(-6.6 470.65 427.54)" fill="#fff"/><path d="M455 458.88a4.75 4.75 0 0 1-2.58 2l-2.82.52-.25.14a1.09 1.09 0 0 0 .45 2l6.9.19a.53.53 0 0 0 .57-.4 4.53 4.53 0 0 0 .09-1.38v-.25l.44-2.58" fill="#262628"/><path d="M479.66 450.18l.42.06c1.13.16 2.33-1.12 2.78-2.18l-2.68-.39a13.45 13.45 0 0 0-.52 2.51z" fill="#545454"/><path d="M450 464a31 31 0 0 0 5.8.51 1.87 1.87 0 0 0 1.1-.38c.29-.22.51-.53.28-.87-.47-.68-8.33-.91-8.33-.91A1.4 1.4 0 0 0 450 464z" fill="#333"/><path d="M467.82 452.61a1.27 1.27 0 0 0-1.44 1.07l1.37 10-4.47.33s-1-12.36-.75-12.13 2-3.7 4.13-3.78l2.66-.1 3.28 4.4z" fill="#424242"/><path d="M458.54 445.42l11-1.08 7.85 3 .17.45a7.77 7.77 0 0 1-3.26 4.47 2.5 2.5 0 0 1-2.09.29l-10.11-3.11c-.57-.18-1.83-.52-1.94.06l-2.13 11.2-3.87-.74 2.35-13.96c.08-.44 1.49-.51 2.03-.58z" fill="#333"/><path d="M471.87 431a.64.64 0 0 0-.48-.14h-.21a.64.64 0 0 0-.38.18l-.25.25.17.08h.09l1-.09h.12l.15-.11z" fill="none"/><path d="M473.88 429.7s-.55-1.39-.56-1.4l-.61-.56s.54 2.53.5 2.57l-.82.63-.65-.47-.95.09-.62.57-.34-.46.54 2.49 1.74.36s2.07-1.77 2-2.29zm-2 1.58h-.12l-1 .09h-.09l-.17-.08.25-.25a.64.64 0 0 1 .38-.18h.21a.64.64 0 0 1 .48.14l.2.17zM478.72 431.62c-1-1.07-2.78.18-2.78.18l-5 2.8.09-.08-1.43 9.82 7.85 3 1.47-10.1c.5.07 1.54.49 1.47 1l.24 4.06-.92 5.39 3.55.41-.44-9.1a5 5 0 0 0-.72-3.37s-2.38-2.94-3.38-4.01z" fill="#424242"/><path d="M469.63 443.73l8 2.89.26-1.48-8-2.71s-.23 1.34-.26 1.3zM474.56 432.55l3.69 9.49.26-1.59-3.05-8.42-.9.52z" fill="#333"/><path fill="#424242" d="M467.68 452.12l-4.06-7.19 2.16-.22 4.34 7.48-2.44-.07z"/><path d="M466.72 441.48c.19-.69.8-9.71.12-11.36a14.24 14.24 0 0 1-1-6.64h1c.15 1.5-.47 3.58.73 6.49.65 1.57.6 10 .21 11.68" fill="#262628"/><path id="light-beam-1" d="M471.75 427.38a1.54 1.54 0 0 0-2.91-.78l.05-.08-353.5 444.75 375.05 54.31-18.69-498.06z" fill="url(#linear-gradient)"/><path d="M430.08 315l-.28-.29c-.76-.77-.45-2.41.11-3.34l1.79 1.82s-1.5 1.94-1.62 1.81z" fill="#545454"/><path d="M447.4 309.51a1.87 1.87 0 0 0 .22-1.81l-2.87-6.93a1.42 1.42 0 0 0-1.38-.88h-.42a4.16 4.16 0 0 0-2.08.75 4 4 0 0 0-1.45 1.78l-4.56 10.86c.29.55.39.79.6.88l6 2.51s5.92-7.15 5.94-7.16z" fill="#333"/><path d="M447 308.4l-2.15-4.25-3.32-1.63-2 .67-1.54.66a6 6 0 0 0-2.32 1.43l-6 5.93-.19.24 2.31 1.92 6.2-6.1a1.86 1.86 0 0 1 1.65-.45l-4.27 8.65 7.73 1.88 4.13-8.35z" fill="#424242"/><path fill="#333" d="M445.35 304.94l-7.31 4.32.65-1.37 6.23-3.85.43.9z"/><path d="M448.11 301.58a2.7 2.7 0 0 1 4.07.63c1.91 2.66-.44 4.06-1.1 3.85" fill="#424242"/><path d="M454.95 311.1l1.07 2.73a2.51 2.51 0 0 0 1.42-3.26l-.15-.39zM446 303.73a5.19 5.19 0 0 1 .69-.6l.48-.35h3.16l.11 3.4-2.05 1.25-2.94.09a4.79 4.79 0 0 1-1-1.06 1.32 1.32 0 0 1-.32-1z" fill="#545454"/><path d="M449.8 303.17a7.71 7.71 0 0 1-1.21 0 14.31 14.31 0 0 0-2.79.67c-.1 0 1.92-2 1.92-2z" fill="#424242"/><path d="M447.47 301.89s2.37.76 2.95 4.32c0 0 1.21-.15 1.57-.9.17-.36-.35-1.52-1-2.43a5.3 5.3 0 0 0-2.08-1.6c-.56-.23-1.44.61-1.44.61z" fill="#333"/><path d="M448.14 303.38a.52.52 0 0 0 .1-.8c-.24-.27-1.44.13-1.33 1.06l.54-.25a2.12 2.12 0 0 0 .69-.01z" fill="#545454"/><path d="M456.11 313.78l-4.82 1.63a3 3 0 0 1-3-.67l-3.16-3 1.7-4.29.74 1.93 1.92 2.56a1.26 1.26 0 0 0 1.41.44l4.24-1.44s.99 2.77.97 2.84z" fill="#424242"/><path d="M436.26 336.54v2.28l2.74.63.35.24a1.62 1.62 0 0 1 .56 2.26h-.06l-.06.1h-2.69l-2.94-.57-1.12-.24a.81.81 0 0 1-.48-.68 3 3 0 0 1 .4-1.47 3.22 3.22 0 0 0 .26-.6c.23-.71.74-1.48.58-2.21" fill="#262628"/><path d="M448.06 338.8a24.2 24.2 0 0 1-4.48.76 1.83 1.83 0 0 1-1.37-.82c-.38-.58 0-.81.16-1.09.33-.56 6.53-.21 6.53-.21a1.16 1.16 0 0 1-.84 1.36zM439.43 342.26c-1.06.18-5.66-.83-5.66-.83s-1.5 0-1.17-1.19c.17-.58 7.57 1.08 7.57 1.08s-.03.82-.74.94z" fill="#202022"/><path d="M443.63 334.73a3.89 3.89 0 0 0 2.23 1.5l2.33.25.21.1a.89.89 0 0 1-.24 1.67l-5.61.6a.43.43 0 0 1-.49-.29 3.7 3.7 0 0 1-.16-1.12v-.21l-.11-2.06" fill="#262628"/><path d="M434.88 322.91c1.31 4.81.36 3.88-.46 7.1l-1.26 7.17 3.51 1a63.87 63.87 0 0 1 2.09-9c.6-1.91.8-2.22.55-4.2l-.31-4.18-4.61-2.39zM446.91 307.24l-2.64 6.14 1.14-.97 1.88-4.11-.38-1.06z" fill="#333"/><path d="M442.48 316.61l-7.43-2-.17.34a4 4 0 0 0-.68 2.94 6 6 0 0 0 .54 2.15c.43.66 3.22 2.12 3.22 2.12l1.28-1.29 2.19 4.59a7.53 7.53 0 0 1 .7 2.64l-.66 8.24 3.1-.85s1.45-7.37 1.16-9.38-3.25-9.5-3.25-9.5z" fill="#333"/><path d="M447.37 305.89a.61.61 0 0 1 .4.25l.12.17a.61.61 0 0 1 .11.38v.31l-.16-.06-.07-.05-.57-.75v-.29z" fill="none"/><path d="M445.78 304.47c-.4.29-.33 2.86-.33 2.86l1.36 1 1.91-1-.36-.14v-.8l-.54-.72-.74-.16-.08-1c0-.06 2.11-1.29 2.11-1.29l-.78-.07s-1.32.39-1.35.42zm1.34 1.38h.25a.61.61 0 0 1 .4.25l.12.17a.61.61 0 0 1 .11.38v.35l-.16-.06-.07-.05-.57-.75v-.11z" fill="#424242"/><path d="M443.27 315.5l-8-2.22.56-1.15 8.07 2.2s-.67 1.19-.63 1.17z" fill="#333"/><circle cx="451.08" cy="304.72" r="1.24" fill="#545454"/><circle cx="451.08" cy="304.72" r=".55" fill="#d2d3d4"/><path id="light-beam-2" d="M450.53 304.82l1-.32 339.23 522.4L542.14 855l-57.89-412.38a49.64 49.64 0 0 0-1.85-6.37 13.78 13.78 0 0 0-1.58-2.16s-2.12-2.92-3.08-2.89-1.8.61-3.25 1.41c.11-2.9.16-3.6.24-4.55a4.18 4.18 0 0 0-.24-1.75 3 3 0 0 0-2.78-1.43c-2 .06-3.21 1.25-2.75 2.95s1.17 6.61 1.17 6.61l-2.74-.75s.18-8.84-1.67-9.13-3.07 1.23-2.77 3.5c.19 1.43-.51 7.09 2.2 8.13s4.57 1.93 4.67 2.38-.14 5.47-.14 5.47l-3.58.68s-8.92.69-9.35 1.29-1.9 11.48-2.75 13.58-4.8.9-5.19 2.26 18.53 400 18.53 400l-86.18 9.3z" opacity=".3" fill="url(#linear-gradient-2)"/><path d="M380.39 631.45l-4.71-44a.36.36 0 0 0-.72 0l-.8 31.94-2-4.07a.48.48 0 0 0-.94 0l-1.4 16M355.35 628.71l-5-72.52a.43.43 0 0 0-.86 0l-4.72 72.52" fill="#d2d3d4" opacity=".4"/><path id="bg5" d="M900 0H0v957.89l558.35.07H900zM632.75 802.61l-69.65 3.89-114.26-70.15-21.63-42.14-30.41-56.58-17.85-11.4-3.31-38.75a.36.36 0 0 0-.72 0l-1.76 31.94-1-4.07a.48.48 0 0 0-.94 0l-.8 5.37L353.53 610l-3.34-53.69a.43.43 0 0 0-.86 0l-3.53 48.75-22.5-14.35-4-27.14a1 1 0 0 0-1.95-.09l-2.08 8.42-3.65-65.9a.75.75 0 0 0-1.5 0L304 577.07l-28.14-25.58-8.38-15-18.88-91.83-15.72-5.21-3.77-57.55a.21.21 0 0 0-.41 0l-11.68 40-3.57-6.06c-.3-.76-1-.78-1.29 0L207.3 431l-8.22-2.73v-17.68l99.49-164.24 51.19-24.82 41.1-55.53h41.4l44.49 21.83 60.94 17.68 61.89 40L647.77 494a27.29 27.29 0 0 1 .25 6.55c-3.35-3.57-6.39-7-6.39-7l-16.54-43.1a.59.59 0 0 0-1.17-.13L626 481.2l.52 14.76-5.38 14.93-3.14 3.67-12.49-30.1a.48.48 0 0 0-.9.05l-6.94 24.37L582.49 519l3.05 23.19 1.12 26.15 11.41 12 18.16 75.17c10.37 42.59-4.72 53.19 25.5 84.95z" fill="#262628"/></g></g></svg>