<svg xmlns="http://www.w3.org/2000/svg" viewBox="0 0 1039.49 459.18"><defs><style>.cls-1,.cls-3,.cls-5{fill:none;}.cls-2{fill:#f4f4f4;}.cls-3{stroke:#757d82;}.cls-3,.cls-5{stroke-miterlimit:10;}.cls-4{fill:#23cc7d;}.cls-5{stroke:#23cc7d;}</style></defs><title>icon-calculator</title><g id="Layer_2" data-name="Layer 2"><g id="Layer_1-2" data-name="Layer 1"><rect class="cls-1" width="1039.49" height="459.18"/><rect class="cls-2" x="285.87" width="180" height="180"/><rect class="cls-3" x="361.47" y="60.78" width="63.28" height="97.8"/><path class="cls-4" d="M411,74.19V94.73H374.71V74.19H411m1-1H373.71V95.73H412V73.19Z"/><rect class="cls-5" x="373.72" y="104.98" width="7.8" height="7.8"/><rect class="cls-5" x="389.54" y="104.98" width="7.8" height="7.8"/><rect class="cls-5" x="405.36" y="104.98" width="7.8" height="7.8"/><rect class="cls-5" x="373.72" y="120.8" width="7.8" height="7.8"/><rect class="cls-5" x="389.54" y="120.8" width="7.8" height="7.8"/><rect class="cls-5" x="405.36" y="120.8" width="7.8" height="7.8"/><rect class="cls-5" x="373.72" y="136.62" width="7.8" height="7.8"/><rect class="cls-5" x="389.54" y="136.62" width="7.8" height="7.8"/><rect class="cls-5" x="405.36" y="136.62" width="7.8" height="7.8"/><polyline class="cls-3" points="349.14 145.14 327.33 145.14 327.33 24.35 405.49 24.35 405.49 50.48"/><line class="cls-3" x1="338.5" y1="44.92" x2="392.6" y2="44.92"/></g></g></svg>