<svg xmlns="http://www.w3.org/2000/svg" viewBox="0 0 1039.49 459.18"><defs><style>.cls-1,.cls-3{fill:none;}.cls-2{fill:#f4f4f4;}.cls-3{stroke:#757d82;stroke-miterlimit:10;}.cls-4{fill:#23cc7d;}</style></defs><title>icon-sale</title><g id="Layer_2" data-name="Layer 2"><g id="Layer_1-2" data-name="Layer 1"><rect class="cls-1" width="1039.49" height="459.18"/><rect class="cls-2" width="180" height="180"/><polyline class="cls-3" points="55.01 70.16 55.01 60.91 99.44 42.07 143.88 60.91 143.88 139.88 55.01 139.88 55.01 119.78"/><rect class="cls-3" x="100.48" y="72.18" width="20.29" height="22.54"/><path class="cls-3" d="M80.46,102.47,37.64,125.15a8.4,8.4,0,0,1-11.35-3.49l-8.11-15.31A8.4,8.4,0,0,1,21.67,95L64.49,72.32a8.4,8.4,0,0,1,6.44-.59L82,75.2a9,9,0,0,1,5.9,11.14L84.57,97.48A8.4,8.4,0,0,1,80.46,102.47Z"/><circle class="cls-3" cx="73.62" cy="86.79" r="5.68" transform="translate(-32.06 44.55) rotate(-27.91)"/><path class="cls-4" d="M53.13,105.56c-2.47,1.18-4.84.83-6.45-.79l1-1.1a4.42,4.42,0,0,0,5.36.43c2-1.09,3-2.88,2.09-4.5S52.8,98,51.36,98.29c-.7.13-2.46.56-3.16.69-2.37.51-3.74-.16-4.67-1.87-1.09-2-.3-4.38,1.92-5.77L44.17,89l1.09-.59,1.29,2.38a5.08,5.08,0,0,1,5.41.4l-.89,1.13a4.15,4.15,0,0,0-4.5,0c-1.55.83-2.58,2.46-1.73,4,.59,1.09,1.43,1.56,3.57,1.09l3.07-.64c2-.45,3.79-.14,5,2s.37,4.56-2.21,6.2l1.36,2.52-1.09.59Z"/></g></g></svg>