<svg xmlns="http://www.w3.org/2000/svg" viewBox="0 0 647.92 383.62"><defs><style>.cls-1,.cls-4,.cls-7,.cls-8{fill:none;}.cls-2{fill:#fff;}.cls-3{fill:#757d80;}.cls-4{stroke:#eaebeb;stroke-width:3px;}.cls-4,.cls-7,.cls-8{stroke-miterlimit:10;}.cls-5{fill:#23ca7d;}.cls-6{fill:#244161;}.cls-7,.cls-8{stroke:#f4f5f5;}.cls-7{stroke-linecap:square;}.cls-8{stroke-width:1.38px;}</style></defs><title>progress-left</title><g id="Layer_2" data-name="Layer 2"><g id="Layer_1-2" data-name="Layer 1"><path class="cls-1" d="M0 0h647.92v383.62H0z"/><path class="cls-2" d="M0 0h301.85v383.62H0z"/><path class="cls-3" d="M50.73 132.83a1.71 1.71 0 0 1-.66 1.42 2.72 2.72 0 0 1-1.75.52 5.47 5.47 0 0 1-2-.29V134a5.07 5.07 0 0 0 2 .33 2.2 2.2 0 0 0 1.39-.4 1.28 1.28 0 0 0 .52-1.06 1.22 1.22 0 0 0-.17-.67 1.56 1.56 0 0 0-.56-.49 6.88 6.88 0 0 0-1.13-.47 3.87 3.87 0 0 1-1.51-.81 1.74 1.74 0 0 1 .21-2.47 2.49 2.49 0 0 1 1.61-.51 4.72 4.72 0 0 1 1.89.38l-.18.43a4.4 4.4 0 0 0-1.7-.37 2 2 0 0 0-1.26.37 1.2 1.2 0 0 0-.47 1 1.3 1.3 0 0 0 .14.65 1.32 1.32 0 0 0 .47.46 6.45 6.45 0 0 0 1.12.49 6 6 0 0 1 1.25.56 1.79 1.79 0 0 1 .61.62 1.68 1.68 0 0 1 .18.79zM52.35 127.89q0-.47.31-.47a.27.27 0 0 1 .24.12.6.6 0 0 1 .09.35.61.61 0 0 1-.09.35.27.27 0 0 1-.24.13q-.31 0-.31-.48zm.55 6.78h-.48v-5.31h.48zM58.68 134.68v-3.44a1.68 1.68 0 0 0-.34-1.16 1.36 1.36 0 0 0-1-.36 1.81 1.81 0 0 0-1.39.48 2.27 2.27 0 0 0-.44 1.56v2.93H55v-5.31h.41l.09.73a2 2 0 0 1 1.84-.83q1.81 0 1.81 1.94v3.47zM63.29 134.77a2.27 2.27 0 0 1-1.78-.72 2.89 2.89 0 0 1-.64-2 2.94 2.94 0 0 1 .67-2.05 2.35 2.35 0 0 1 1.83-.73 3.68 3.68 0 0 1 1.32.24l-.13.43a3.88 3.88 0 0 0-1.2-.23 1.82 1.82 0 0 0-1.48.6 2.64 2.64 0 0 0-.5 1.74 2.56 2.56 0 0 0 .5 1.68 1.72 1.72 0 0 0 1.41.61 3.45 3.45 0 0 0 1.34-.26v.45a3 3 0 0 1-1.34.24zM68.37 134.77a2.31 2.31 0 0 1-1.8-.71 2.87 2.87 0 0 1-.65-2 3.11 3.11 0 0 1 .63-2 2.06 2.06 0 0 1 1.68-.76 1.82 1.82 0 0 1 1.48.65 2.7 2.7 0 0 1 .54 1.78v.39h-3.82a2.51 2.51 0 0 0 .51 1.67 1.8 1.8 0 0 0 1.43.58 4.43 4.43 0 0 0 .8-.06A4.85 4.85 0 0 0 70 134v.44a3.88 3.88 0 0 1-.83.27 4.59 4.59 0 0 1-.8.06zm-.14-5.08a1.59 1.59 0 0 0-1.23.51 2.39 2.39 0 0 0-.54 1.46h3.28a2.31 2.31 0 0 0-.4-1.44 1.32 1.32 0 0 0-1.11-.53zM73.86 136.48a1.78 1.78 0 0 1-.74-.13v-.43a2.94 2.94 0 0 0 .73.1Q75 136 75 134.72v-7.19h.5v7.14q.03 1.81-1.64 1.81zM78.1 129.37v3.44a1.68 1.68 0 0 0 .34 1.16 1.36 1.36 0 0 0 1 .36 1.82 1.82 0 0 0 1.39-.48 2.24 2.24 0 0 0 .45-1.56v-2.93h.48v5.31h-.41l-.09-.73a2 2 0 0 1-1.84.83q-1.81 0-1.81-1.94v-3.47zM87.58 134.68v-3.44a1.68 1.68 0 0 0-.34-1.16 1.36 1.36 0 0 0-1-.36 1.81 1.81 0 0 0-1.39.48 2.27 2.27 0 0 0-.44 1.56v2.93h-.48v-5.31h.41l.09.73a2 2 0 0 1 1.84-.83q1.81 0 1.81 1.94v3.47zM92.22 134.77a2.31 2.31 0 0 1-1.8-.71 2.87 2.87 0 0 1-.65-2 3.11 3.11 0 0 1 .63-2 2.06 2.06 0 0 1 1.68-.76 1.82 1.82 0 0 1 1.48.65 2.7 2.7 0 0 1 .54 1.78v.39h-3.82a2.51 2.51 0 0 0 .51 1.67 1.8 1.8 0 0 0 1.43.58 4.43 4.43 0 0 0 .8-.06 4.85 4.85 0 0 0 .87-.27v.44a3.88 3.88 0 0 1-.83.27 4.59 4.59 0 0 1-.84.02zm-.14-5.08a1.59 1.59 0 0 0-1.23.51 2.39 2.39 0 0 0-.54 1.46h3.28a2.31 2.31 0 0 0-.4-1.44 1.32 1.32 0 0 0-1.11-.53zM102.9 134.68h-4.47v-.43l1.9-2a14 14 0 0 0 1.12-1.27 3.59 3.59 0 0 0 .47-.84 2.35 2.35 0 0 0 .15-.84 1.37 1.37 0 0 0-.42-1 1.51 1.51 0 0 0-1.09-.4 2.71 2.71 0 0 0-1.71.65l-.26-.34a3 3 0 0 1 2-.75 2.07 2.07 0 0 1 1.47.5 1.78 1.78 0 0 1 .53 1.37 2.84 2.84 0 0 1-.36 1.37 8 8 0 0 1-1.31 1.63l-1.83 1.88h3.82zM106.73 127.41a2.2 2.2 0 0 1 1.46.46 1.55 1.55 0 0 1 .55 1.25 1.48 1.48 0 0 1-.34 1 3.12 3.12 0 0 1-1.12.78 3.37 3.37 0 0 1 1.32.84 1.69 1.69 0 0 1 .38 1.11 1.76 1.76 0 0 1-.62 1.41 2.94 2.94 0 0 1-3.31 0 1.78 1.78 0 0 1-.58-1.44 1.7 1.7 0 0 1 .41-1.12 3.13 3.13 0 0 1 1.25-.83 3 3 0 0 1-1.11-.78 1.56 1.56 0 0 1-.32-1 1.59 1.59 0 0 1 .26-.9 1.67 1.67 0 0 1 .73-.6 2.5 2.5 0 0 1 1.04-.18zm-1.75 5.5a1.27 1.27 0 0 0 .46 1 2 2 0 0 0 1.28.37 2 2 0 0 0 1.29-.39 1.3 1.3 0 0 0 .49-1.07 1.32 1.32 0 0 0-.38-1 4.5 4.5 0 0 0-1.48-.79 3.31 3.31 0 0 0-1.27.77 1.52 1.52 0 0 0-.37 1.12zm1.74-5.06a1.7 1.7 0 0 0-1.11.34 1.13 1.13 0 0 0-.42.93 1.17 1.17 0 0 0 .15.6 1.59 1.59 0 0 0 .44.47 5.06 5.06 0 0 0 1 .5 3.09 3.09 0 0 0 1.14-.68 1.26 1.26 0 0 0 .35-.89 1.14 1.14 0 0 0-.41-.93 1.71 1.71 0 0 0-1.14-.34zM112.18 134.34a3.62 3.62 0 0 0 .8-.08v.39a2.56 2.56 0 0 1-.81.12 1.32 1.32 0 0 1-1-.38 1.74 1.74 0 0 1-.33-1.18v-3.43H110v-.28l.79-.22.24-1.2h.25v1.28h1.56v.42h-1.56v3.36a1.53 1.53 0 0 0 .21.9.78.78 0 0 0 .69.3zM118.13 134.68v-3.44a1.68 1.68 0 0 0-.34-1.16 1.36 1.36 0 0 0-1-.36 1.81 1.81 0 0 0-1.39.48 2.27 2.27 0 0 0-.44 1.56v2.93h-.48v-7.6h.48v3.1a1.78 1.78 0 0 1 .75-.69 2.63 2.63 0 0 1 1.13-.21q1.81 0 1.81 1.94v3.47zM121.18 133.51l.06.1a16.27 16.27 0 0 1-.85 2.35h-.32a19.7 19.7 0 0 0 .54-2.45zM125.09 129.37h.5l1.12 3q.51 1.37.65 1.85.21-.63.67-1.88l1.12-2.95h.5l-2.38 6.17a4.78 4.78 0 0 1-.48 1 1.29 1.29 0 0 1-.46.4 1.39 1.39 0 0 1-.63.13 2.18 2.18 0 0 1-.62-.1v-.42a2.28 2.28 0 0 0 .61.08.82.82 0 0 0 .44-.12 1.09 1.09 0 0 0 .34-.36 4.8 4.8 0 0 0 .36-.78l.26-.7zM135.25 132a3 3 0 0 1-.63 2 2.17 2.17 0 0 1-1.74.73 2.25 2.25 0 0 1-1.23-.34 2.16 2.16 0 0 1-.82-1 3.51 3.51 0 0 1-.28-1.46 3 3 0 0 1 .63-2 2.17 2.17 0 0 1 1.73-.73 2.13 2.13 0 0 1 1.72.73 3 3 0 0 1 .62 2.07zm-4.19 0a2.7 2.7 0 0 0 .48 1.71 1.82 1.82 0 0 0 2.72 0 2.7 2.7 0 0 0 .48-1.71 2.66 2.66 0 0 0-.49-1.7 1.65 1.65 0 0 0-1.36-.61 1.63 1.63 0 0 0-1.35.6 2.69 2.69 0 0 0-.48 1.71zM137.44 129.37v3.44a1.68 1.68 0 0 0 .34 1.16 1.36 1.36 0 0 0 1 .36 1.82 1.82 0 0 0 1.39-.48 2.24 2.24 0 0 0 .45-1.56v-2.93h.48v5.31h-.41l-.09-.73a2 2 0 0 1-1.84.83q-1.81 0-1.81-1.94v-3.47zM143.58 127.54l.06.1a16.27 16.27 0 0 1-.85 2.35h-.32q.14-.47.3-1.18t.24-1.27zM146.13 134.68l-2.05-5.31h.5L146 133a11.18 11.18 0 0 1 .41 1.21q.2-.66.41-1.22l1.37-3.6h.5l-2.05 5.31zM152 134.77a2.31 2.31 0 0 1-1.8-.71 2.87 2.87 0 0 1-.65-2 3.11 3.11 0 0 1 .63-2 2.06 2.06 0 0 1 1.68-.76 1.82 1.82 0 0 1 1.48.65 2.7 2.7 0 0 1 .54 1.78v.39h-3.82a2.51 2.51 0 0 0 .51 1.67 1.8 1.8 0 0 0 1.43.58 4.43 4.43 0 0 0 .8-.06 4.85 4.85 0 0 0 .87-.27v.44a3.88 3.88 0 0 1-.83.27 4.59 4.59 0 0 1-.84.02zm-.14-5.08a1.59 1.59 0 0 0-1.23.51 2.39 2.39 0 0 0-.54 1.46h3.28a2.31 2.31 0 0 0-.4-1.44 1.32 1.32 0 0 0-1.11-.53zM160.67 134.77a2.27 2.27 0 0 1-1.78-.72 2.89 2.89 0 0 1-.64-2 2.94 2.94 0 0 1 .67-2.05 2.35 2.35 0 0 1 1.83-.73 3.68 3.68 0 0 1 1.32.24l-.13.43a3.88 3.88 0 0 0-1.2-.23 1.82 1.82 0 0 0-1.48.6 2.64 2.64 0 0 0-.5 1.74 2.56 2.56 0 0 0 .5 1.68 1.72 1.72 0 0 0 1.41.61 3.45 3.45 0 0 0 1.34-.26v.45a3 3 0 0 1-1.34.24zM168 132a3 3 0 0 1-.63 2 2.17 2.17 0 0 1-1.74.73 2.25 2.25 0 0 1-1.23-.34 2.16 2.16 0 0 1-.82-1 3.51 3.51 0 0 1-.28-1.46 3 3 0 0 1 .63-2 2.17 2.17 0 0 1 1.73-.73 2.13 2.13 0 0 1 1.72.73A3 3 0 0 1 168 132zm-4.19 0a2.7 2.7 0 0 0 .48 1.71 1.82 1.82 0 0 0 2.72 0 2.7 2.7 0 0 0 .48-1.71 2.66 2.66 0 0 0-.49-1.7 1.65 1.65 0 0 0-1.36-.61 1.63 1.63 0 0 0-1.35.6 2.69 2.69 0 0 0-.49 1.71zM176.39 134.68v-3.48a1.73 1.73 0 0 0-.3-1.13 1.15 1.15 0 0 0-.93-.36 1.52 1.52 0 0 0-1.21.45 2.12 2.12 0 0 0-.39 1.41v3.11h-.49V131q0-1.34-1.23-1.34a1.45 1.45 0 0 0-1.22.49 2.53 2.53 0 0 0-.38 1.56v2.93h-.48v-5.31h.4l.1.73a1.52 1.52 0 0 1 .63-.61 1.86 1.86 0 0 1 .89-.22 1.53 1.53 0 0 1 1.61.94 1.8 1.8 0 0 1 .7-.7 2 2 0 0 1 1-.24 1.7 1.7 0 0 1 1.3.46 2.11 2.11 0 0 1 .43 1.47v3.47zM181.16 134.77a1.94 1.94 0 0 1-1.79-.92v3.2h-.48v-7.71h.41l.09.76a1.92 1.92 0 0 1 1.75-.86 2 2 0 0 1 1.64.71 3.23 3.23 0 0 1 .56 2.05 3.11 3.11 0 0 1-.59 2 2 2 0 0 1-1.59.77zm0-.43a1.48 1.48 0 0 0 1.26-.61 2.81 2.81 0 0 0 .45-1.69q0-2.34-1.69-2.34a1.69 1.69 0 0 0-1.36.51 2.55 2.55 0 0 0-.43 1.66v.13a2.92 2.92 0 0 0 .42 1.78 1.62 1.62 0 0 0 1.34.56zM185.62 134.68h-.48v-7.6h.48zM189.84 134.77a2.31 2.31 0 0 1-1.8-.71 2.87 2.87 0 0 1-.65-2 3.11 3.11 0 0 1 .63-2 2.06 2.06 0 0 1 1.68-.76 1.82 1.82 0 0 1 1.48.65 2.7 2.7 0 0 1 .54 1.78v.39h-3.82a2.51 2.51 0 0 0 .51 1.67 1.8 1.8 0 0 0 1.43.58 4.43 4.43 0 0 0 .8-.06 4.85 4.85 0 0 0 .87-.27v.44a3.88 3.88 0 0 1-.83.27 4.59 4.59 0 0 1-.84.02zm-.14-5.08a1.59 1.59 0 0 0-1.23.51 2.39 2.39 0 0 0-.54 1.46h3.28a2.31 2.31 0 0 0-.4-1.44 1.32 1.32 0 0 0-1.11-.53zM194.89 134.34a3.62 3.62 0 0 0 .8-.08v.39a2.56 2.56 0 0 1-.81.12 1.32 1.32 0 0 1-1-.38 1.74 1.74 0 0 1-.33-1.18v-3.43h-.79v-.28l.79-.22.24-1.2h.21v1.28h1.56v.42H194v3.36a1.53 1.53 0 0 0 .21.9.78.78 0 0 0 .68.3zM199.28 134.77a2.31 2.31 0 0 1-1.8-.71 2.87 2.87 0 0 1-.65-2 3.11 3.11 0 0 1 .63-2 2.06 2.06 0 0 1 1.68-.76 1.82 1.82 0 0 1 1.48.65 2.7 2.7 0 0 1 .54 1.78v.39h-3.82a2.51 2.51 0 0 0 .51 1.67 1.8 1.8 0 0 0 1.43.58 4.43 4.43 0 0 0 .8-.06 4.85 4.85 0 0 0 .92-.31v.44a3.88 3.88 0 0 1-.83.27 4.59 4.59 0 0 1-.89.06zm-.14-5.08a1.59 1.59 0 0 0-1.23.51 2.39 2.39 0 0 0-.54 1.46h3.28a2.31 2.31 0 0 0-.4-1.44 1.32 1.32 0 0 0-1.11-.53zM204.87 129.26a2.2 2.2 0 0 1 1 .21 2 2 0 0 1 .75.72v-3.12h.48v7.6h-.32l-.12-.81a2 2 0 0 1-1.74.91 2.08 2.08 0 0 1-1.68-.68 3 3 0 0 1-.58-2 3.33 3.33 0 0 1 .58-2.1 2 2 0 0 1 1.63-.73zm0 .44a1.5 1.5 0 0 0-1.31.61 3 3 0 0 0-.44 1.77q0 2.26 1.75 2.26a1.59 1.59 0 0 0 1.32-.52 2.77 2.77 0 0 0 .42-1.72v-.1a3 3 0 0 0-.41-1.77 1.57 1.57 0 0 0-1.33-.53zM212.82 134.68l2.94-6.67h-4v-.47h4.62v.36l-2.95 6.78zM219.82 130.38a2.71 2.71 0 0 1 1.8.55 1.88 1.88 0 0 1 .66 1.52 2.17 2.17 0 0 1-.68 1.71 2.73 2.73 0 0 1-1.88.61 4.71 4.71 0 0 1-1-.1 2.62 2.62 0 0 1-.8-.3v-.5a4.65 4.65 0 0 0 .94.37 3.52 3.52 0 0 0 .87.1 2.2 2.2 0 0 0 1.5-.5 1.69 1.69 0 0 0 .57-1.34 1.53 1.53 0 0 0-.55-1.25 2.29 2.29 0 0 0-1.5-.45 5 5 0 0 0-1.33.19l-.29-.19.28-3.27h3.44v.47h-3l-.22 2.52a7 7 0 0 1 1.19-.14zM226.56 129.67a3.14 3.14 0 0 1-.37 1.68 1.18 1.18 0 0 1-1.05.57 1.14 1.14 0 0 1-1-.59 3.14 3.14 0 0 1-.37-1.66 3.2 3.2 0 0 1 .35-1.66 1.14 1.14 0 0 1 1-.57 1.17 1.17 0 0 1 1 .59 3.07 3.07 0 0 1 .44 1.64zm-2.33 0a3.27 3.27 0 0 0 .22 1.36.72.72 0 0 0 .69.46q.94 0 .94-1.82a3 3 0 0 0-.24-1.35.76.76 0 0 0-.7-.45.72.72 0 0 0-.69.45 3.21 3.21 0 0 0-.22 1.35zm5.22-2.13l-4 7.14H225l4-7.14zm1.27 5a3.17 3.17 0 0 1-.36 1.68 1.17 1.17 0 0 1-1 .57 1.15 1.15 0 0 1-1-.59 4 4 0 0 1 0-3.32 1.22 1.22 0 0 1 2.08 0 3.07 3.07 0 0 1 .28 1.66zm-2.33 0a3.22 3.22 0 0 0 .22 1.35.72.72 0 0 0 .69.45q.94 0 .94-1.81t-.94-1.8a.72.72 0 0 0-.69.45 3.2 3.2 0 0 0-.22 1.36zM239.75 132a3 3 0 0 1-.63 2 2.17 2.17 0 0 1-1.74.73 2.25 2.25 0 0 1-1.23-.34 2.16 2.16 0 0 1-.82-1 3.51 3.51 0 0 1-.28-1.46 3 3 0 0 1 .63-2 2.17 2.17 0 0 1 1.73-.73 2.13 2.13 0 0 1 1.72.73 3 3 0 0 1 .62 2.07zm-4.19 0a2.7 2.7 0 0 0 .48 1.71 1.82 1.82 0 0 0 2.72 0 2.7 2.7 0 0 0 .48-1.71 2.66 2.66 0 0 0-.49-1.7 1.65 1.65 0 0 0-1.36-.61 1.63 1.63 0 0 0-1.35.6 2.69 2.69 0 0 0-.48 1.71zM243.49 129.79h-1.25v4.89h-.48v-4.89h-1v-.28l1-.18v-.41a2.32 2.32 0 0 1 .36-1.43 1.4 1.4 0 0 1 1.17-.46 3 3 0 0 1 .88.13l-.11.42a2.58 2.58 0 0 0-.78-.12.92.92 0 0 0-.8.33 1.92 1.92 0 0 0-.24 1.09v.49h1.25zM45.78 143.73h.5l1.12 3q.51 1.37.65 1.85.21-.63.67-1.88l1.12-2.95h.5L48 149.9a4.78 4.78 0 0 1-.48 1 1.29 1.29 0 0 1-.46.4 1.39 1.39 0 0 1-.63.13 2.18 2.18 0 0 1-.62-.1v-.42a2.28 2.28 0 0 0 .61.08.82.82 0 0 0 .44-.12 1.09 1.09 0 0 0 .34-.36 4.8 4.8 0 0 0 .36-.78l.26-.7zM55.94 146.38a3 3 0 0 1-.63 2 2.17 2.17 0 0 1-1.74.73 2.25 2.25 0 0 1-1.23-.34 2.16 2.16 0 0 1-.82-1 3.51 3.51 0 0 1-.28-1.46 3 3 0 0 1 .63-2 2.17 2.17 0 0 1 1.73-.73 2.13 2.13 0 0 1 1.72.73 3 3 0 0 1 .62 2.07zm-4.19 0a2.7 2.7 0 0 0 .48 1.71 1.82 1.82 0 0 0 2.72 0 2.7 2.7 0 0 0 .48-1.71 2.66 2.66 0 0 0-.49-1.7 1.65 1.65 0 0 0-1.36-.61 1.63 1.63 0 0 0-1.35.6 2.69 2.69 0 0 0-.47 1.71zM58.13 143.73v3.44a1.68 1.68 0 0 0 .34 1.16 1.36 1.36 0 0 0 1 .36 1.82 1.82 0 0 0 1.39-.48 2.24 2.24 0 0 0 .45-1.56v-2.93h.48V149h-.41l-.09-.73a2 2 0 0 1-1.84.83q-1.81 0-1.81-1.94v-3.47zM66 143.63a4.17 4.17 0 0 1 .72.07l-.09.46a2.83 2.83 0 0 0-.69-.08 1.34 1.34 0 0 0-1.11.58 2.35 2.35 0 0 0-.43 1.46V149h-.48v-5.31h.41v1a2.25 2.25 0 0 1 .7-.82 1.64 1.64 0 0 1 .97-.24zM73.12 149.13a2.27 2.27 0 0 1-1.78-.72 2.89 2.89 0 0 1-.64-2 2.94 2.94 0 0 1 .67-2.05 2.35 2.35 0 0 1 1.83-.73 3.68 3.68 0 0 1 1.32.24l-.13.43a3.88 3.88 0 0 0-1.2-.23 1.82 1.82 0 0 0-1.48.6 2.64 2.64 0 0 0-.5 1.74 2.56 2.56 0 0 0 .5 1.68 1.72 1.72 0 0 0 1.41.61 3.45 3.45 0 0 0 1.34-.26v.45a3 3 0 0 1-1.34.24zM80.44 146.38a3 3 0 0 1-.63 2 2.17 2.17 0 0 1-1.74.73 2.25 2.25 0 0 1-1.23-.34 2.16 2.16 0 0 1-.82-1 3.51 3.51 0 0 1-.28-1.46 3 3 0 0 1 .63-2 2.17 2.17 0 0 1 1.73-.73 2.13 2.13 0 0 1 1.72.73 3 3 0 0 1 .62 2.07zm-4.19 0a2.7 2.7 0 0 0 .48 1.71 1.82 1.82 0 0 0 2.72 0 2.7 2.7 0 0 0 .48-1.71 2.66 2.66 0 0 0-.49-1.7 1.65 1.65 0 0 0-1.36-.61 1.63 1.63 0 0 0-1.35.6 2.69 2.69 0 0 0-.48 1.71zM85.91 149v-3.44a1.68 1.68 0 0 0-.34-1.16 1.36 1.36 0 0 0-1-.36 1.81 1.81 0 0 0-1.39.48 2.27 2.27 0 0 0-.44 1.56V149h-.48v-5.31h.41l.09.73a2 2 0 0 1 1.84-.83q1.81 0 1.81 1.94V149zM89.81 148.71a3.62 3.62 0 0 0 .8-.08v.37a2.56 2.56 0 0 1-.81.12 1.32 1.32 0 0 1-1-.38 1.74 1.74 0 0 1-.33-1.18v-3.43h-.79v-.28l.79-.22.24-1.2h.25v1.28h1.56v.42h-1.6v3.36a1.53 1.53 0 0 0 .21.9.78.78 0 0 0 .68.32zM94.15 143.63a4.17 4.17 0 0 1 .72.07l-.09.46a2.83 2.83 0 0 0-.69-.08 1.34 1.34 0 0 0-1.11.58 2.35 2.35 0 0 0-.43 1.46V149h-.48v-5.31h.41v1a2.25 2.25 0 0 1 .7-.82 1.64 1.64 0 0 1 .97-.24zM99.48 149l-.12-.84a2.52 2.52 0 0 1-.82.73 2.2 2.2 0 0 1-1 .21 1.73 1.73 0 0 1-1.22-.4 1.43 1.43 0 0 1-.43-1.11 1.37 1.37 0 0 1 .65-1.21 3.51 3.51 0 0 1 1.87-.45h1v-.35a1.81 1.81 0 0 0-.31-1.14 1.19 1.19 0 0 0-1-.39 3.31 3.31 0 0 0-1.53.41l-.18-.42a4 4 0 0 1 1.73-.41 1.72 1.72 0 0 1 1.31.45 2 2 0 0 1 .43 1.42v3.5zm-2-.34a1.69 1.69 0 0 0 1.83-1.84v-.52h-.93a3.5 3.5 0 0 0-1.59.35 1 1 0 0 0-.48.92 1 1 0 0 0 .31.77 1.24 1.24 0 0 0 .9.36zM104 149.13a2.27 2.27 0 0 1-1.78-.72 2.89 2.89 0 0 1-.64-2 2.94 2.94 0 0 1 .67-2.05 2.35 2.35 0 0 1 1.83-.73 3.68 3.68 0 0 1 1.32.24l-.13.43a3.88 3.88 0 0 0-1.2-.23 1.82 1.82 0 0 0-1.48.6 2.64 2.64 0 0 0-.5 1.74 2.56 2.56 0 0 0 .5 1.68 1.72 1.72 0 0 0 1.41.61 3.45 3.45 0 0 0 1.34-.26v.45a3 3 0 0 1-1.34.24zM108.3 148.71a3.62 3.62 0 0 0 .8-.08v.37a2.56 2.56 0 0 1-.81.12 1.32 1.32 0 0 1-1-.38 1.74 1.74 0 0 1-.33-1.18v-3.43h-.79v-.28l.79-.22.24-1.2h.25v1.28H109v.42h-1.56v3.36a1.53 1.53 0 0 0 .21.9.78.78 0 0 0 .65.32zM110.45 148.66q0-.48.39-.48t.4.48q0 .48-.4.48t-.39-.48zM48.65 240.86h-.5v-6.67h-2.32v-.47H51v.47h-2.35zM54.29 235.45a4.17 4.17 0 0 1 .72.07l-.09.46a2.83 2.83 0 0 0-.69-.08 1.34 1.34 0 0 0-1.11.58 2.35 2.35 0 0 0-.43 1.46v2.93h-.49v-5.31h.41v1a2.25 2.25 0 0 1 .7-.82 1.64 1.64 0 0 1 .98-.29zM55.51 235.55H56l1.12 3q.51 1.37.65 1.85.21-.63.67-1.88l1.12-2.95h.5l-2.38 6.17a4.78 4.78 0 0 1-.48 1 1.29 1.29 0 0 1-.46.4 1.39 1.39 0 0 1-.63.13 2.18 2.18 0 0 1-.62-.1v-.42a2.28 2.28 0 0 0 .61.08.82.82 0 0 0 .44-.12 1.09 1.09 0 0 0 .34-.36 4.8 4.8 0 0 0 .36-.78l.26-.7zM65.59 240.53a3.62 3.62 0 0 0 .8-.08v.39a2.56 2.56 0 0 1-.81.12 1.32 1.32 0 0 1-1-.38 1.74 1.74 0 0 1-.33-1.18V236h-.79v-.28l.79-.22.24-1.2h.25v1.28h1.56v.42h-1.6v3.36a1.53 1.53 0 0 0 .21.9.78.78 0 0 0 .68.27zM72.22 238.2a3 3 0 0 1-.63 2 2.17 2.17 0 0 1-1.74.73 2.25 2.25 0 0 1-1.23-.34 2.16 2.16 0 0 1-.82-1 3.51 3.51 0 0 1-.28-1.46 3 3 0 0 1 .63-2 2.17 2.17 0 0 1 1.73-.73 2.13 2.13 0 0 1 1.72.73 3 3 0 0 1 .62 2.07zm-4.19 0a2.7 2.7 0 0 0 .48 1.71 1.82 1.82 0 0 0 2.72 0 2.7 2.7 0 0 0 .48-1.71 2.66 2.66 0 0 0-.49-1.7 1.65 1.65 0 0 0-1.36-.61 1.63 1.63 0 0 0-1.35.6 2.69 2.69 0 0 0-.51 1.71zM78.86 236h-1.25v4.89h-.48V236h-1v-.28l1-.18v-.41a2.32 2.32 0 0 1 .36-1.43 1.4 1.4 0 0 1 1.17-.46 3 3 0 0 1 .88.13l-.11.42a2.58 2.58 0 0 0-.78-.12.92.92 0 0 0-.8.33 1.92 1.92 0 0 0-.24 1.09v.49h1.25zm1-1.89q0-.47.31-.47a.27.27 0 0 1 .24.12.6.6 0 0 1 .09.35.61.61 0 0 1-.09.35.27.27 0 0 1-.24.13q-.35-.04-.35-.51zm.55 6.78h-.48v-5.31h.48zM86.15 240.86v-3.44a1.68 1.68 0 0 0-.34-1.16 1.36 1.36 0 0 0-1-.36 1.81 1.81 0 0 0-1.39.48 2.27 2.27 0 0 0-.44 1.56v2.93h-.48v-5.31h.41l.09.73a2 2 0 0 1 1.84-.83q1.81 0 1.81 1.94v3.47zM88.58 234.08q0-.47.31-.47a.27.27 0 0 1 .24.12.6.6 0 0 1 .09.35.61.61 0 0 1-.09.35.27.27 0 0 1-.24.13q-.31-.01-.31-.48zm.55 6.78h-.48v-5.31h.48zM94.5 239.48a1.26 1.26 0 0 1-.54 1.1 2.64 2.64 0 0 1-1.54.38 3.67 3.67 0 0 1-1.69-.33v-.52a3.73 3.73 0 0 0 1.69.4 2.23 2.23 0 0 0 1.19-.26.79.79 0 0 0 .41-.7.85.85 0 0 0-.32-.67 3.57 3.57 0 0 0-1.07-.54 6.11 6.11 0 0 1-1.12-.5 1.54 1.54 0 0 1-.49-.47 1.18 1.18 0 0 1-.16-.64 1.09 1.09 0 0 1 .5-.94 2.43 2.43 0 0 1 1.4-.35 4.19 4.19 0 0 1 1.63.32l-.18.44a3.83 3.83 0 0 0-1.45-.32 2.1 2.1 0 0 0-1 .21.66.66 0 0 0-.38.6.82.82 0 0 0 .3.66 4.12 4.12 0 0 0 1.15.56 5.69 5.69 0 0 1 1 .47 1.51 1.51 0 0 1 .49.47 1.15 1.15 0 0 1 .18.63zM99.87 240.86v-3.44a1.68 1.68 0 0 0-.34-1.16 1.36 1.36 0 0 0-1-.36 1.81 1.81 0 0 0-1.39.48 2.27 2.27 0 0 0-.44 1.56v2.93h-.48v-7.6h.48v3.1a1.78 1.78 0 0 1 .75-.69 2.63 2.63 0 0 1 1.13-.21q1.81 0 1.81 1.94v3.47zM104.37 235.55h.5l1.12 3q.51 1.37.65 1.85.21-.63.67-1.88l1.12-2.95h.5l-2.38 6.17a4.78 4.78 0 0 1-.48 1 1.29 1.29 0 0 1-.46.4 1.39 1.39 0 0 1-.63.13 2.18 2.18 0 0 1-.62-.1v-.42a2.28 2.28 0 0 0 .61.08.82.82 0 0 0 .44-.12 1.09 1.09 0 0 0 .34-.36 4.8 4.8 0 0 0 .36-.78l.26-.7zM114.54 238.2a3 3 0 0 1-.63 2 2.17 2.17 0 0 1-1.74.73 2.25 2.25 0 0 1-1.23-.34 2.16 2.16 0 0 1-.82-1 3.51 3.51 0 0 1-.28-1.46 3 3 0 0 1 .63-2 2.17 2.17 0 0 1 1.73-.73 2.13 2.13 0 0 1 1.72.73 3 3 0 0 1 .62 2.07zm-4.19 0a2.7 2.7 0 0 0 .48 1.71 1.82 1.82 0 0 0 2.72 0 2.7 2.7 0 0 0 .48-1.71 2.66 2.66 0 0 0-.49-1.7 1.65 1.65 0 0 0-1.36-.61 1.63 1.63 0 0 0-1.35.6 2.69 2.69 0 0 0-.48 1.71zM116.73 235.55V239a1.68 1.68 0 0 0 .34 1.16 1.36 1.36 0 0 0 1 .36 1.82 1.82 0 0 0 1.39-.48 2.24 2.24 0 0 0 .45-1.56v-2.93h.48v5.31H120l-.09-.73a2 2 0 0 1-1.84.83q-1.81 0-1.81-1.94v-3.47zM124.6 235.45a4.17 4.17 0 0 1 .72.07l-.09.46a2.83 2.83 0 0 0-.69-.08 1.34 1.34 0 0 0-1.11.58 2.35 2.35 0 0 0-.43 1.46v2.93h-.48v-5.31h.41v1a2.25 2.25 0 0 1 .7-.82 1.64 1.64 0 0 1 .97-.29zM131.72 241a2.27 2.27 0 0 1-1.78-.72 2.89 2.89 0 0 1-.64-2 2.94 2.94 0 0 1 .67-2.05 2.35 2.35 0 0 1 1.83-.73 3.68 3.68 0 0 1 1.32.24l-.13.43a3.88 3.88 0 0 0-1.2-.23 1.82 1.82 0 0 0-1.48.6 2.64 2.64 0 0 0-.5 1.74 2.56 2.56 0 0 0 .5 1.68 1.72 1.72 0 0 0 1.41.61 3.45 3.45 0 0 0 1.34-.26v.45a3 3 0 0 1-1.34.24zM139 238.2a3 3 0 0 1-.63 2 2.17 2.17 0 0 1-1.74.73 2.25 2.25 0 0 1-1.23-.34 2.16 2.16 0 0 1-.82-1 3.51 3.51 0 0 1-.28-1.46 3 3 0 0 1 .63-2 2.17 2.17 0 0 1 1.73-.73 2.13 2.13 0 0 1 1.72.73 3 3 0 0 1 .62 2.07zm-4.19 0a2.7 2.7 0 0 0 .48 1.71 1.82 1.82 0 0 0 2.72 0 2.7 2.7 0 0 0 .48-1.71 2.66 2.66 0 0 0-.49-1.7 1.65 1.65 0 0 0-1.36-.61 1.63 1.63 0 0 0-1.35.6 2.69 2.69 0 0 0-.44 1.71zM144.51 240.86v-3.44a1.68 1.68 0 0 0-.34-1.16 1.36 1.36 0 0 0-1-.36 1.81 1.81 0 0 0-1.39.48 2.27 2.27 0 0 0-.44 1.56v2.93h-.48v-5.31h.41l.09.73a2 2 0 0 1 1.84-.83q1.81 0 1.81 1.94v3.47zM148.41 240.53a3.62 3.62 0 0 0 .8-.08v.39a2.56 2.56 0 0 1-.81.12 1.32 1.32 0 0 1-1-.38 1.74 1.74 0 0 1-.33-1.18V236h-.79v-.28l.79-.22.24-1.2h.25v1.28h1.56v.42h-1.56v3.36a1.53 1.53 0 0 0 .21.9.78.78 0 0 0 .64.27zM152.75 235.45a4.17 4.17 0 0 1 .72.07l-.09.46a2.83 2.83 0 0 0-.69-.08 1.34 1.34 0 0 0-1.11.58 2.35 2.35 0 0 0-.43 1.46v2.93h-.48v-5.31h.41v1a2.25 2.25 0 0 1 .7-.82 1.64 1.64 0 0 1 .97-.29zM158.07 240.86L158 240a2.52 2.52 0 0 1-.82.73 2.2 2.2 0 0 1-1 .21 1.73 1.73 0 0 1-1.22-.4 1.43 1.43 0 0 1-.43-1.11 1.37 1.37 0 0 1 .65-1.21 3.51 3.51 0 0 1 1.87-.45h1v-.35a1.81 1.81 0 0 0-.31-1.14 1.19 1.19 0 0 0-1-.39 3.31 3.31 0 0 0-1.53.41l-.18-.42a4 4 0 0 1 1.73-.41 1.72 1.72 0 0 1 1.31.45 2 2 0 0 1 .43 1.42v3.53zm-2-.34a1.69 1.69 0 0 0 1.83-1.84v-.52h-.93a3.5 3.5 0 0 0-1.59.35 1 1 0 0 0-.48.92 1 1 0 0 0 .31.77 1.24 1.24 0 0 0 .91.32zM162.57 241a2.27 2.27 0 0 1-1.78-.72 2.89 2.89 0 0 1-.64-2 2.94 2.94 0 0 1 .67-2.05 2.35 2.35 0 0 1 1.83-.73 3.68 3.68 0 0 1 1.32.24l-.13.43a3.88 3.88 0 0 0-1.2-.23 1.82 1.82 0 0 0-1.48.6 2.64 2.64 0 0 0-.5 1.74 2.56 2.56 0 0 0 .5 1.68 1.72 1.72 0 0 0 1.41.61 3.45 3.45 0 0 0 1.34-.26v.45a3 3 0 0 1-1.34.24zM166.9 240.53a3.62 3.62 0 0 0 .8-.08v.39a2.56 2.56 0 0 1-.81.12 1.32 1.32 0 0 1-1-.38 1.74 1.74 0 0 1-.33-1.18V236h-.79v-.28l.79-.22.24-1.2h.2v1.28h1.56v.42H166v3.36a1.53 1.53 0 0 0 .21.9.78.78 0 0 0 .69.27zM174.29 235.45a2 2 0 0 1 1.68.7 3.21 3.21 0 0 1 .56 2 3.12 3.12 0 0 1-.59 2 2 2 0 0 1-1.67.72 2.19 2.19 0 0 1-1-.23 1.79 1.79 0 0 1-.72-.66l-.14.8H172v-7.6h.48v3.12a1.94 1.94 0 0 1 .73-.7 2.18 2.18 0 0 1 1.08-.15zm0 .44a1.58 1.58 0 0 0-1.34.54 3 3 0 0 0-.41 1.77v.08A2.76 2.76 0 0 0 173 240a1.59 1.59 0 0 0 1.32.52 1.51 1.51 0 0 0 1.31-.61 2.92 2.92 0 0 0 .44-1.73q-.07-2.29-1.79-2.29zM177.41 235.55h.5l1.12 3q.51 1.37.65 1.85.21-.63.67-1.88l1.12-2.95h.5l-2.38 6.17a4.78 4.78 0 0 1-.48 1 1.29 1.29 0 0 1-.46.4 1.39 1.39 0 0 1-.63.13 2.18 2.18 0 0 1-.62-.1v-.42a2.28 2.28 0 0 0 .61.08.82.82 0 0 0 .44-.12 1.09 1.09 0 0 0 .34-.36 4.8 4.8 0 0 0 .36-.78l.26-.7zM185 242.66a1.78 1.78 0 0 1-.74-.13v-.43a2.94 2.94 0 0 0 .73.1q1.18 0 1.18-1.29v-7.19h.5v7.14q.04 1.8-1.67 1.8zM189.28 235.55V239a1.68 1.68 0 0 0 .34 1.16 1.36 1.36 0 0 0 1 .36 1.82 1.82 0 0 0 1.39-.48 2.24 2.24 0 0 0 .45-1.56v-2.93h.54v5.31h-.41l-.09-.73a2 2 0 0 1-1.84.83q-1.81 0-1.81-1.94v-3.47zM195.54 240.86h-.48v-7.6h.48zM196.73 235.55h.5l1.12 3q.51 1.37.65 1.85.21-.63.67-1.88l1.12-2.95h.5l-2.38 6.17a4.78 4.78 0 0 1-.48 1 1.29 1.29 0 0 1-.46.4 1.39 1.39 0 0 1-.63.13 2.18 2.18 0 0 1-.62-.1v-.42a2.28 2.28 0 0 0 .61.08.82.82 0 0 0 .44-.12 1.09 1.09 0 0 0 .34-.36 4.8 4.8 0 0 0 .36-.78l.26-.7zM207.84 240.86h-.48v-5.2q0-.71.06-1.47l-.15.14-1.51 1.19-.28-.35 1.94-1.45h.42zM214.7 239.48a1.26 1.26 0 0 1-.54 1.1 2.64 2.64 0 0 1-1.54.38 3.67 3.67 0 0 1-1.69-.33v-.52a3.73 3.73 0 0 0 1.69.4 2.23 2.23 0 0 0 1.19-.26.79.79 0 0 0 .41-.7.85.85 0 0 0-.32-.67 3.57 3.57 0 0 0-1.07-.54 6.11 6.11 0 0 1-1.12-.5 1.54 1.54 0 0 1-.49-.47 1.18 1.18 0 0 1-.16-.64 1.09 1.09 0 0 1 .5-.94 2.43 2.43 0 0 1 1.4-.35 4.19 4.19 0 0 1 1.63.32l-.18.44a3.83 3.83 0 0 0-1.45-.32 2.1 2.1 0 0 0-1 .21.66.66 0 0 0-.38.6.82.82 0 0 0 .3.66 4.12 4.12 0 0 0 1.15.56 5.69 5.69 0 0 1 1 .47 1.51 1.51 0 0 1 .49.47 1.15 1.15 0 0 1 .18.63zM217.77 240.53a3.62 3.62 0 0 0 .8-.08v.39a2.56 2.56 0 0 1-.81.12 1.32 1.32 0 0 1-1-.38 1.74 1.74 0 0 1-.33-1.18V236h-.79v-.28l.79-.22.24-1.2h.25v1.28h1.56v.42h-1.56v3.36a1.53 1.53 0 0 0 .21.9.78.78 0 0 0 .64.27zM224.89 236h-1.25v4.89h-.48V236h-1v-.28l1-.18v-.41a2.32 2.32 0 0 1 .36-1.43 1.4 1.4 0 0 1 1.17-.46 3 3 0 0 1 .88.13l-.11.42a2.58 2.58 0 0 0-.78-.12.92.92 0 0 0-.8.33 1.92 1.92 0 0 0-.24 1.09v.49h1.25zM230.6 238.2a3 3 0 0 1-.63 2 2.17 2.17 0 0 1-1.74.73 2.25 2.25 0 0 1-1.23-.34 2.16 2.16 0 0 1-.82-1 3.51 3.51 0 0 1-.28-1.46 3 3 0 0 1 .63-2 2.17 2.17 0 0 1 1.73-.73 2.13 2.13 0 0 1 1.72.73 3 3 0 0 1 .62 2.07zm-4.19 0a2.7 2.7 0 0 0 .48 1.71 1.82 1.82 0 0 0 2.72 0 2.7 2.7 0 0 0 .48-1.71 2.66 2.66 0 0 0-.49-1.7 1.65 1.65 0 0 0-1.36-.61 1.63 1.63 0 0 0-1.35.6 2.69 2.69 0 0 0-.48 1.71zM234.46 235.45a4.17 4.17 0 0 1 .72.07l-.09.46a2.83 2.83 0 0 0-.69-.08 1.34 1.34 0 0 0-1.11.58 2.35 2.35 0 0 0-.43 1.46v2.93h-.48v-5.31h.41v1a2.25 2.25 0 0 1 .7-.82 1.64 1.64 0 0 1 .97-.29zM48.07 254.89a3.62 3.62 0 0 0 .8-.08v.39a2.56 2.56 0 0 1-.81.12 1.32 1.32 0 0 1-1-.38 1.74 1.74 0 0 1-.33-1.18v-3.43h-.83v-.28l.79-.22.24-1.2h.25v1.28h1.56v.42h-1.56v3.36a1.53 1.53 0 0 0 .21.9.78.78 0 0 0 .68.3zM54 255.22v-3.44a1.68 1.68 0 0 0-.34-1.16 1.36 1.36 0 0 0-1-.36 1.81 1.81 0 0 0-1.39.48 2.27 2.27 0 0 0-.44 1.56v2.93h-.48v-7.6h.48V250.68a1.78 1.78 0 0 1 .75-.69 2.63 2.63 0 0 1 1.13-.21q1.81 0 1.81 1.94v3.47zM58.66 255.32a2.31 2.31 0 0 1-1.8-.71 2.87 2.87 0 0 1-.65-2 3.11 3.11 0 0 1 .63-2 2.06 2.06 0 0 1 1.68-.76 1.82 1.82 0 0 1 1.48.65 2.7 2.7 0 0 1 .54 1.78v.39h-3.83a2.51 2.51 0 0 0 .51 1.67 1.8 1.8 0 0 0 1.43.58 4.43 4.43 0 0 0 .8-.06 4.85 4.85 0 0 0 .87-.27v.41a3.88 3.88 0 0 1-.83.27 4.59 4.59 0 0 1-.83.05zm-.14-5.08a1.59 1.59 0 0 0-1.23.51 2.39 2.39 0 0 0-.54 1.46H60a2.31 2.31 0 0 0-.4-1.44 1.32 1.32 0 0 0-1.08-.53zM67.44 249.81a2 2 0 0 1 1.68.7 3.21 3.21 0 0 1 .56 2 3.12 3.12 0 0 1-.59 2 2 2 0 0 1-1.67.72 2.19 2.19 0 0 1-1-.23 1.79 1.79 0 0 1-.72-.66l-.14.8h-.3v-7.6h.48v3.12a1.94 1.94 0 0 1 .73-.7 2.18 2.18 0 0 1 .97-.15zm0 .44a1.58 1.58 0 0 0-1.34.54 3 3 0 0 0-.41 1.77v.08a2.76 2.76 0 0 0 .42 1.72 1.59 1.59 0 0 0 1.32.52 1.51 1.51 0 0 0 1.31-.61 2.92 2.92 0 0 0 .44-1.73q-.01-2.29-1.75-2.29zM73.6 255.32a2.31 2.31 0 0 1-1.8-.71 2.87 2.87 0 0 1-.65-2 3.11 3.11 0 0 1 .63-2 2.06 2.06 0 0 1 1.68-.76 1.82 1.82 0 0 1 1.48.65 2.7 2.7 0 0 1 .54 1.78v.39h-3.83a2.51 2.51 0 0 0 .51 1.67 1.8 1.8 0 0 0 1.43.58 4.43 4.43 0 0 0 .8-.06 4.85 4.85 0 0 0 .87-.27v.41a3.88 3.88 0 0 1-.83.27 4.59 4.59 0 0 1-.83.05zm-.14-5.08a1.59 1.59 0 0 0-1.23.51 2.39 2.39 0 0 0-.54 1.46H75a2.31 2.31 0 0 0-.4-1.44 1.32 1.32 0 0 0-1.15-.53zM80.53 253.84a1.26 1.26 0 0 1-.54 1.1 2.64 2.64 0 0 1-1.54.38 3.67 3.67 0 0 1-1.69-.33v-.52a3.73 3.73 0 0 0 1.69.4 2.23 2.23 0 0 0 1.19-.26.79.79 0 0 0 .41-.7.85.85 0 0 0-.32-.67 3.57 3.57 0 0 0-1.07-.54 6.11 6.11 0 0 1-1.12-.5 1.54 1.54 0 0 1-.49-.47 1.18 1.18 0 0 1-.16-.64 1.09 1.09 0 0 1 .5-.94 2.43 2.43 0 0 1 1.4-.35 4.19 4.19 0 0 1 1.63.32l-.18.44a3.83 3.83 0 0 0-1.45-.32 2.1 2.1 0 0 0-1 .21.66.66 0 0 0-.38.6.82.82 0 0 0 .3.66 4.12 4.12 0 0 0 1.15.56 5.69 5.69 0 0 1 1 .47 1.51 1.51 0 0 1 .49.47 1.15 1.15 0 0 1 .18.63zM83.6 254.89a3.62 3.62 0 0 0 .8-.08v.39a2.56 2.56 0 0 1-.81.12 1.32 1.32 0 0 1-1-.38 1.74 1.74 0 0 1-.33-1.18v-3.43h-.79v-.28l.79-.22.24-1.2h.25v1.28h1.56v.42h-1.6v3.36a1.53 1.53 0 0 0 .21.9.78.78 0 0 0 .68.3zM92 253.84a1.26 1.26 0 0 1-.54 1.1 2.64 2.64 0 0 1-1.54.38 3.67 3.67 0 0 1-1.69-.33v-.52a3.73 3.73 0 0 0 1.69.4 2.23 2.23 0 0 0 1.19-.26.79.79 0 0 0 .41-.7.85.85 0 0 0-.32-.67 3.57 3.57 0 0 0-1.07-.54 6.11 6.11 0 0 1-1.12-.5 1.54 1.54 0 0 1-.49-.47 1.18 1.18 0 0 1-.16-.64 1.09 1.09 0 0 1 .5-.94 2.43 2.43 0 0 1 1.4-.35 4.19 4.19 0 0 1 1.63.32l-.18.44a3.83 3.83 0 0 0-1.45-.32 2.1 2.1 0 0 0-1 .21.66.66 0 0 0-.38.6.82.82 0 0 0 .3.66 4.12 4.12 0 0 0 1.15.56 5.69 5.69 0 0 1 1 .47 1.51 1.51 0 0 1 .49.47 1.15 1.15 0 0 1 .18.63zM95.85 255.32a2.31 2.31 0 0 1-1.8-.71 2.87 2.87 0 0 1-.65-2 3.11 3.11 0 0 1 .63-2 2.06 2.06 0 0 1 1.68-.76 1.82 1.82 0 0 1 1.48.65 2.7 2.7 0 0 1 .54 1.78v.39H93.9a2.51 2.51 0 0 0 .51 1.67 1.8 1.8 0 0 0 1.43.58 4.43 4.43 0 0 0 .8-.06 4.85 4.85 0 0 0 .87-.27v.41a3.88 3.88 0 0 1-.83.27 4.59 4.59 0 0 1-.83.05zm-.14-5.08a1.59 1.59 0 0 0-1.23.51 2.39 2.39 0 0 0-.54 1.46h3.28a2.31 2.31 0 0 0-.4-1.44 1.32 1.32 0 0 0-1.11-.53zM100 255.22h-.48v-7.6h.48zM104.2 255.32a2.31 2.31 0 0 1-1.8-.71 2.87 2.87 0 0 1-.65-2 3.11 3.11 0 0 1 .63-2 2.06 2.06 0 0 1 1.68-.76 1.82 1.82 0 0 1 1.48.65 2.7 2.7 0 0 1 .54 1.78v.39h-3.82a2.51 2.51 0 0 0 .51 1.67 1.8 1.8 0 0 0 1.43.58 4.43 4.43 0 0 0 .8-.06 4.85 4.85 0 0 0 .87-.27v.41a3.88 3.88 0 0 1-.83.27 4.59 4.59 0 0 1-.84.05zm-.14-5.08a1.59 1.59 0 0 0-1.23.51 2.39 2.39 0 0 0-.54 1.46h3.28a2.31 2.31 0 0 0-.4-1.44 1.32 1.32 0 0 0-1.12-.53zM110 255.32a2.27 2.27 0 0 1-1.78-.72 2.89 2.89 0 0 1-.64-2 2.94 2.94 0 0 1 .67-2.05 2.35 2.35 0 0 1 1.83-.73 3.68 3.68 0 0 1 1.32.24l-.13.43a3.88 3.88 0 0 0-1.2-.23 1.82 1.82 0 0 0-1.48.6 2.64 2.64 0 0 0-.5 1.74 2.56 2.56 0 0 0 .5 1.68 1.72 1.72 0 0 0 1.41.61 3.45 3.45 0 0 0 1.34-.26v.45a3 3 0 0 1-1.34.24zM114.29 254.89a3.62 3.62 0 0 0 .8-.08v.39a2.56 2.56 0 0 1-.81.12 1.32 1.32 0 0 1-1-.38 1.74 1.74 0 0 1-.33-1.18v-3.43h-.79v-.28l.79-.22.24-1.2h.25v1.28H115v.42h-1.6v3.36a1.53 1.53 0 0 0 .21.9.78.78 0 0 0 .68.3zM116.47 248.44q0-.47.31-.47a.27.27 0 0 1 .24.12.6.6 0 0 1 .09.35.61.61 0 0 1-.09.35.27.27 0 0 1-.24.13q-.31 0-.31-.48zm.55 6.78h-.48v-5.31h.46zM123.49 252.56a3 3 0 0 1-.63 2 2.17 2.17 0 0 1-1.74.73 2.25 2.25 0 0 1-1.23-.34 2.16 2.16 0 0 1-.82-1 3.51 3.51 0 0 1-.28-1.46 3 3 0 0 1 .63-2 2.17 2.17 0 0 1 1.73-.73 2.13 2.13 0 0 1 1.72.73 3 3 0 0 1 .62 2.07zm-4.19 0a2.7 2.7 0 0 0 .48 1.71 1.82 1.82 0 0 0 2.72 0 2.7 2.7 0 0 0 .48-1.71 2.66 2.66 0 0 0-.49-1.7 1.65 1.65 0 0 0-1.36-.61 1.63 1.63 0 0 0-1.35.6 2.69 2.69 0 0 0-.48 1.71zM129 255.22v-3.44a1.68 1.68 0 0 0-.34-1.16 1.36 1.36 0 0 0-1-.36 1.81 1.81 0 0 0-1.39.48 2.27 2.27 0 0 0-.44 1.56v2.93h-.48v-5.31h.41l.09.73a2 2 0 0 1 1.84-.83q1.81 0 1.81 1.94v3.47zM138.75 252.56a3 3 0 0 1-.63 2 2.17 2.17 0 0 1-1.74.73 2.25 2.25 0 0 1-1.23-.34 2.16 2.16 0 0 1-.82-1 3.51 3.51 0 0 1-.28-1.46 3 3 0 0 1 .63-2 2.17 2.17 0 0 1 1.73-.73 2.13 2.13 0 0 1 1.72.73 3 3 0 0 1 .62 2.07zm-4.19 0a2.7 2.7 0 0 0 .48 1.71 1.82 1.82 0 0 0 2.72 0 2.7 2.7 0 0 0 .48-1.71 2.66 2.66 0 0 0-.49-1.7 1.65 1.65 0 0 0-1.36-.61 1.63 1.63 0 0 0-1.35.6 2.69 2.69 0 0 0-.48 1.71zM142.49 250.34h-1.25v4.89h-.48v-4.89h-1v-.28l1-.18v-.41a2.32 2.32 0 0 1 .36-1.43 1.4 1.4 0 0 1 1.17-.46 3 3 0 0 1 .88.13l-.11.42a2.58 2.58 0 0 0-.78-.12.92.92 0 0 0-.8.33 1.92 1.92 0 0 0-.24 1.09v.49h1.25zM151.1 252.56a3 3 0 0 1-.63 2 2.17 2.17 0 0 1-1.74.73 2.25 2.25 0 0 1-1.23-.34 2.16 2.16 0 0 1-.82-1 3.51 3.51 0 0 1-.28-1.46 3 3 0 0 1 .63-2 2.17 2.17 0 0 1 1.73-.73 2.13 2.13 0 0 1 1.72.73 3 3 0 0 1 .62 2.07zm-4.19 0a2.7 2.7 0 0 0 .48 1.71 1.82 1.82 0 0 0 2.72 0 2.7 2.7 0 0 0 .48-1.71 2.66 2.66 0 0 0-.49-1.7 1.65 1.65 0 0 0-1.36-.61 1.63 1.63 0 0 0-1.35.6 2.69 2.69 0 0 0-.48 1.71zM154.84 250.34h-1.25v4.89h-.48v-4.89h-1v-.28l1-.18v-.41a2.32 2.32 0 0 1 .36-1.43 1.4 1.4 0 0 1 1.17-.46 3 3 0 0 1 .88.13l-.11.42a2.58 2.58 0 0 0-.78-.12.92.92 0 0 0-.8.33 1.92 1.92 0 0 0-.24 1.09v.49h1.25zm3 0h-1.25v4.89h-.48v-4.89h-1v-.28l1-.18v-.41a2.32 2.32 0 0 1 .36-1.43 1.4 1.4 0 0 1 1.17-.46 3 3 0 0 1 .88.13l-.11.42a2.58 2.58 0 0 0-.78-.12.92.92 0 0 0-.8.33 1.92 1.92 0 0 0-.24 1.09v.49h1.25zM161.32 255.32a2.31 2.31 0 0 1-1.8-.71 2.87 2.87 0 0 1-.65-2 3.11 3.11 0 0 1 .63-2 2.06 2.06 0 0 1 1.68-.76 1.82 1.82 0 0 1 1.48.65 2.7 2.7 0 0 1 .54 1.78v.39h-3.82a2.51 2.51 0 0 0 .51 1.67 1.8 1.8 0 0 0 1.43.58 4.43 4.43 0 0 0 .8-.06 4.85 4.85 0 0 0 .87-.27v.41a3.88 3.88 0 0 1-.83.27 4.59 4.59 0 0 1-.84.05zm-.14-5.08a1.59 1.59 0 0 0-1.23.51 2.39 2.39 0 0 0-.54 1.46h3.28a2.31 2.31 0 0 0-.4-1.44 1.32 1.32 0 0 0-1.11-.53zM167.05 249.81a4.17 4.17 0 0 1 .72.07l-.09.46a2.83 2.83 0 0 0-.69-.08 1.34 1.34 0 0 0-1.11.58 2.35 2.35 0 0 0-.43 1.46v2.93H165v-5.31h.41v1a2.25 2.25 0 0 1 .7-.82 1.64 1.64 0 0 1 .94-.29zM172.44 253.84a1.26 1.26 0 0 1-.54 1.1 2.64 2.64 0 0 1-1.54.38 3.67 3.67 0 0 1-1.69-.33v-.52a3.73 3.73 0 0 0 1.69.4 2.23 2.23 0 0 0 1.19-.26.79.79 0 0 0 .41-.7.85.85 0 0 0-.32-.67 3.57 3.57 0 0 0-1.07-.54 6.11 6.11 0 0 1-1.12-.5 1.54 1.54 0 0 1-.49-.47 1.18 1.18 0 0 1-.16-.64 1.09 1.09 0 0 1 .5-.94 2.43 2.43 0 0 1 1.4-.35 4.19 4.19 0 0 1 1.63.32l-.18.44a3.83 3.83 0 0 0-1.45-.32 2.1 2.1 0 0 0-1 .21.66.66 0 0 0-.38.6.82.82 0 0 0 .3.66 4.12 4.12 0 0 0 1.15.56 5.69 5.69 0 0 1 1 .47 1.51 1.51 0 0 1 .49.47 1.15 1.15 0 0 1 .18.63zM174 254.84q0-.48.39-.48t.4.48q0 .48-.4.48t-.39-.48z"/><path class="cls-4" d="M46.69 197.61h201.37"/><rect class="cls-5" x="46.69" y="296.01" width="190.39" height="36.61" rx="1.83" ry="1.83"/><path class="cls-2" d="M218.07 308.56l-.96 1.03 4.33 4.02h-9.61v1.41h9.61l-4.33 4.03.96 1.03 6.19-5.76-6.19-5.76zM71 311.06h4.1v1.08h-2.77v1.33h2.37v1.07h-2.37v2.39H71zM77.59 311.06h1.28v5.88h-1.28zM81.62 311.06h1.24l2.39 3.66v-3.66h1.21v5.88h-1.2l-2.42-3.73v3.73h-1.2zM89.22 311.06h1.28v5.88h-1.28zM92.85 315.77l1-.61a1.61 1.61 0 0 0 1.45.82c.52 0 1-.19 1-.67s-.32-.56-.73-.68l-1-.26a1.56 1.56 0 0 1-1.4-1.6 2 2 0 0 1 2.17-1.77 2.19 2.19 0 0 1 2.13 1l-.92.6a1.37 1.37 0 0 0-1.25-.6c-.45 0-.87.18-.87.64s.38.53.82.65l1 .25a1.59 1.59 0 0 1 1.38 1.63c0 1.18-1.06 1.85-2.32 1.85a2.51 2.51 0 0 1-2.46-1.25zM100.09 311.06h1.28v2.32h2.13v-2.32h1.29v5.88h-1.29v-2.44h-2.13v2.43h-1.28zM111 315v-1.83a2.18 2.18 0 0 1 2.41-2.17 2.06 2.06 0 0 1 2.32 1.94v.23h-1.23V313a1 1 0 0 0-1.1-1 1 1 0 0 0-1.14 1v1.83a1.06 1.06 0 0 0 1.17 1 1 1 0 0 0 1.06-1v-.11h1.21v.23a2 2 0 0 1-2.28 1.94A2.16 2.16 0 0 1 111 315zM118.12 314.94v-1.78a2.44 2.44 0 0 1 4.86 0v1.7a2.24 2.24 0 0 1-2.41 2.2 2.16 2.16 0 0 1-2.45-2.12zm3.58 0v-1.81a1.07 1.07 0 0 0-1.17-1 1 1 0 0 0-1.14 1.05v1.8a1.06 1.06 0 0 0 1.17 1 1 1 0 0 0 1.15-1.09zM125.58 311.06h1.24l2.39 3.66v-3.66h1.21v5.88h-1.22l-2.42-3.73v3.73h-1.2zM134.52 312.12h-1.67v-1.06h4.63v1.06h-1.67v4.81h-1.29zM139.89 311.06h2.45a1.83 1.83 0 0 1 2 1.85 1.78 1.78 0 0 1-1.14 1.71l1.41 2.31h-1.41l-1.2-2.13h-.81v2.13h-1.28zm2.28 2.73c.58 0 1-.31 1-.84s-.4-.85-1-.85h-1v1.69zM148.68 311.05H150l2.11 5.88h-1.33l-.4-1.18h-2.17l-.4 1.18h-1.24zm1.34 3.67l-.74-2.25-.75 2.25zM154 315v-1.83a2.18 2.18 0 0 1 2.41-2.17 2.06 2.06 0 0 1 2.32 1.94v.23h-1.21V313a1 1 0 0 0-1.1-1 1 1 0 0 0-1.14 1v1.83a1.06 1.06 0 0 0 1.17 1 1 1 0 0 0 1.06-1v-.11h1.21v.23a2 2 0 0 1-2.28 1.94A2.16 2.16 0 0 1 154 315zM162.57 312.12h-1.67v-1.06h4.63v1.06h-1.67v4.81h-1.29z"/><circle class="cls-5" cx="62.71" cy="93.27" r="16.02"/><path class="cls-6" d="M49.05 52.7l-2.37-4.29h1.7l1.5 2.9 1.48-2.9H53l-2.38 4.31v2.82h-1.57zM55.22 53.12V51a3 3 0 0 1 5.9 0v2a2.71 2.71 0 0 1-2.93 2.67c-1.57-.01-2.97-.83-2.97-2.55zm4.35-.06v-2.2a1.29 1.29 0 0 0-1.42-1.25 1.25 1.25 0 0 0-1.38 1.28v2.18a1.29 1.29 0 0 0 1.42 1.27 1.27 1.27 0 0 0 1.38-1.28zM64.23 53v-4.59h1.56v4.5a1.25 1.25 0 0 0 1.34 1.41c.86 0 1.32-.48 1.32-1.41v-4.5H70V53a2.61 2.61 0 0 1-2.89 2.7c-1.74-.04-2.88-.9-2.88-2.7zM73.28 48.41h3a2.22 2.22 0 0 1 2.48 2.25 2.17 2.17 0 0 1-1.38 2.08l1.71 2.8h-1.74l-1.54-2.59h-1v2.59h-1.53zM76 51.72c.71 0 1.16-.37 1.16-1s-.48-1-1.17-1h-1.16v2zM86.3 48.41h3.06a2.28 2.28 0 1 1 0 4.56h-1.51v2.57H86.3zm2.83 3.31c.71 0 1.16-.37 1.16-1s-.48-1-1.17-1h-1.27v2zM94.76 48.41h3a2.22 2.22 0 0 1 2.48 2.25 2.17 2.17 0 0 1-1.38 2.08l1.71 2.8h-1.74l-1.54-2.59h-1v2.59h-1.53zm2.77 3.31c.71 0 1.16-.37 1.16-1s-.48-1-1.17-1h-1.21v2zM103.22 53.12V51a3 3 0 0 1 5.9 0v2a2.71 2.71 0 0 1-2.93 2.67c-1.57-.01-2.97-.83-2.97-2.55zm4.35-.06v-2.2a1.29 1.29 0 0 0-1.42-1.25 1.25 1.25 0 0 0-1.38 1.28v2.18a1.29 1.29 0 0 0 1.42 1.27 1.27 1.27 0 0 0 1.38-1.28zM112.1 53.14v-2.22a2.65 2.65 0 0 1 2.9-2.63c1.37 0 2.82.66 2.82 2.28v.24h-1.47v-.11c0-.84-.72-1.11-1.32-1.11a1.27 1.27 0 0 0-1.4 1.26v2.24a1.29 1.29 0 0 0 1.42 1.26c.71 0 1.29-.33 1.29-1.16V53h-1.64v-1.25h3.12v1.56c0 1.62-1.4 2.35-2.78 2.35-1.54 0-2.94-.83-2.94-2.52zM121 48.41h3a2.22 2.22 0 0 1 2.48 2.25 2.17 2.17 0 0 1-1.48 2.08l1.71 2.8H125l-1.54-2.59h-1v2.59H121zm2.77 3.31c.71 0 1.16-.37 1.16-1s-.48-1-1.17-1h-1.21v2zM129.61 48.41h5.1v1.31h-3.55v1.55h3.07v1.31h-3.07v1.65h3.58v1.31h-5.13zM137.27 54.13l1.17-.74a2 2 0 0 0 1.76 1c.63 0 1.26-.23 1.26-.81s-.39-.68-.89-.82l-1.22-.31a1.9 1.9 0 0 1-1.7-1.94 2.36 2.36 0 0 1 2.64-2.21 2.66 2.66 0 0 1 2.58 1.27l-1.12.73a1.66 1.66 0 0 0-1.51-.74c-.55 0-1.06.22-1.06.78s.46.64 1 .79l1.18.3a1.93 1.93 0 0 1 1.67 2c0 1.43-1.29 2.25-2.81 2.25a3 3 0 0 1-2.95-1.55zM145.52 54.13l1.17-.74a2 2 0 0 0 1.76 1c.63 0 1.26-.23 1.26-.81s-.39-.68-.89-.82l-1.22-.31a1.9 1.9 0 0 1-1.7-1.94 2.36 2.36 0 0 1 2.64-2.21 2.66 2.66 0 0 1 2.58 1.27l-1.12.73a1.66 1.66 0 0 0-1.51-.74c-.55 0-1.06.22-1.06.78s.46.64 1 .79l1.18.3a1.93 1.93 0 0 1 1.67 2c0 1.43-1.29 2.25-2.81 2.25a3 3 0 0 1-2.95-1.55z"/><path class="cls-5" d="M109.72 81.63H94.9v-2.36H113v1.85c-7.62 8.08-10.57 17.26-11.16 28.16H99c.65-10.68 4.74-21.21 10.72-27.65zM118 103.44V102h2.48v1c0 3.16 3.12 4.72 6.31 4.72s6.69-1.6 6.69-7.62v-.84c0-4.59-2.9-6.53-6.31-6.53a9.44 9.44 0 0 0-6 2.32l-2.4-.34.93-15.45h14.9v2.36h-12.8l-.67 11.2a11.33 11.33 0 0 1 7-2.27 7.76 7.76 0 0 1 8.08 8.17v1.39c0 6.65-4 9.77-9.39 9.77-6.07-.04-8.82-3.33-8.82-6.44zM140.65 98.85V96a2.48 2.48 0 0 1 2.77-2.59c1.54 0 2.83.75 2.83 2.61v3a2.57 2.57 0 0 1-2.86 2.5 2.46 2.46 0 0 1-2.74-2.67zm4.68.13v-3.14a1.72 1.72 0 0 0-1.89-1.71 1.68 1.68 0 0 0-1.85 1.71V99a1.61 1.61 0 0 0 1.82 1.69 1.73 1.73 0 0 0 1.92-1.69zm7-5.45h.94l-10 15.75h-1zM149.11 107v-2.86a2.57 2.57 0 0 1 2.79-2.7c1.54 0 2.83.75 2.83 2.61v3c0 1.69-1.36 2.5-2.86 2.5s-2.76-.81-2.76-2.55zm4.7 0v-3.12a1.74 1.74 0 0 0-1.91-1.74 1.68 1.68 0 0 0-1.85 1.74V107a1.62 1.62 0 0 0 1.85 1.71 1.73 1.73 0 0 0 1.91-1.71z"/><path class="cls-7" d="M68 84.59H57.5v15h11v-6.5"/><path class="cls-8" d="M59.01 87.56h7.41M59.01 90.53h7.41M59.01 93.49h3.7"/></g></g></svg>