<svg xmlns="http://www.w3.org/2000/svg" viewBox="0 0 570.51 364.5"><defs><style>.cls-1{fill:#1c80e5}.cls-2{fill:#dd1f48}</style></defs><title>flag</title><g id="Layer_2" data-name="Layer 2"><g id="Layer_1-2" data-name="Layer 1"><path class="cls-1" d="M.14 7.38a.51.51 0 0 0 0 .71l7.24 7.24a.5.5 0 0 1 0 .71L.14 23.27a.51.51 0 0 0 0 .71l7.24 7.24a.5.5 0 0 0 .71 0L23.27 16a.51.51 0 0 0 0-.71L8.09.15a.5.5 0 0 0-.71 0zm41.7 0a.51.51 0 0 0 0 .71l7.23 7.24a.5.5 0 0 1 0 .71l-7.23 7.23a.51.51 0 0 0 0 .71l7.23 7.24a.5.5 0 0 0 .71 0L65 16a.51.51 0 0 0 0-.71L49.78.15a.51.51 0 0 0-.71 0zm41.69 0a.51.51 0 0 0 0 .71l7.24 7.24a.5.5 0 0 1 0 .71l-7.24 7.23a.51.51 0 0 0 0 .71l7.24 7.24a.5.5 0 0 0 .71 0L106.65 16a.5.5 0 0 0 0-.71L91.47.15a.5.5 0 0 0-.71 0zm41.69 0a.51.51 0 0 0 0 .71l7.24 7.24a.5.5 0 0 1 0 .71l-7.24 7.23a.51.51 0 0 0 0 .71l7.24 7.24a.5.5 0 0 0 .71 0L148.35 16a.51.51 0 0 0 0-.71L133.16.15a.5.5 0 0 0-.71 0zm41.69 0a.51.51 0 0 0 0 .71l7.24 7.24a.5.5 0 0 1 0 .71l-7.24 7.23a.51.51 0 0 0 0 .71l7.24 7.24a.5.5 0 0 0 .71 0L190 16a.51.51 0 0 0 0-.71L174.86.15a.5.5 0 0 0-.71 0zm41.69 0a.51.51 0 0 0 0 .71l7.23 7.24a.5.5 0 0 1 0 .71l-7.23 7.23a.51.51 0 0 0 0 .71l7.23 7.24a.5.5 0 0 0 .71 0L231.73 16a.51.51 0 0 0 0-.71L216.55.15a.51.51 0 0 0-.71 0z"/><path class="cls-2" d="M250.29 7.38a.51.51 0 0 0 0 .71l7.23 7.24a.5.5 0 0 1 0 .71l-7.23 7.23a.51.51 0 0 0 0 .71l7.23 7.24a.5.5 0 0 0 .71 0L273.42 16a.51.51 0 0 0 0-.71L258.24.15a.51.51 0 0 0-.71 0zm41.71 0a.51.51 0 0 0 0 .71l7.23 7.24a.5.5 0 0 1 0 .71L292 23.27a.51.51 0 0 0 0 .71l7.23 7.24a.5.5 0 0 0 .71 0L315.11 16a.51.51 0 0 0 0-.71L299.93.15a.5.5 0 0 0-.71 0zm41.68 0a.51.51 0 0 0 0 .71l7.24 7.24a.5.5 0 0 1 0 .71l-7.24 7.23a.51.51 0 0 0 0 .71l7.24 7.24a.5.5 0 0 0 .71 0L356.8 16a.5.5 0 0 0 0-.71L341.62.15a.5.5 0 0 0-.71 0zm41.69 0a.51.51 0 0 0 0 .71l7.24 7.24a.5.5 0 0 1 0 .71l-7.24 7.23a.51.51 0 0 0 0 .71l7.24 7.24a.5.5 0 0 0 .71 0L398.5 16a.5.5 0 0 0 0-.71L383.32.15a.5.5 0 0 0-.71 0zm41.69 0a.51.51 0 0 0 0 .71l7.24 7.24a.5.5 0 0 1 0 .71l-7.24 7.23a.51.51 0 0 0 0 .71l7.24 7.24a.5.5 0 0 0 .71 0L440.19 16a.51.51 0 0 0 0-.71L425 .15a.5.5 0 0 0-.71 0zm41.69 0a.51.51 0 0 0 0 .71l7.25 7.24a.5.5 0 0 1 0 .71l-7.24 7.23a.51.51 0 0 0 0 .71l7.24 7.24a.5.5 0 0 0 .71 0L481.88 16a.51.51 0 0 0 0-.71L466.7.15a.5.5 0 0 0-.71 0zm41.69 0a.51.51 0 0 0 0 .71l7.23 7.24a.5.5 0 0 1 0 .71l-7.23 7.23a.51.51 0 0 0 0 .71l7.23 7.24a.5.5 0 0 0 .71 0L523.57 16a.51.51 0 0 0 0-.71L508.39.15a.5.5 0 0 0-.71 0zm41.7 0a.51.51 0 0 0 0 .71l7.24 7.24a.5.5 0 0 1 0 .71l-7.24 7.23a.51.51 0 0 0 0 .71l7.24 7.24a.5.5 0 0 0 .71 0L565.26 16a.5.5 0 0 0 0-.71L550.08.15a.5.5 0 0 0-.71 0z"/><path class="cls-1" d="M.14 53.1a.51.51 0 0 0 0 .71L7.38 61a.5.5 0 0 1 0 .71L.14 69a.51.51 0 0 0 0 .71l7.24 7.24a.5.5 0 0 0 .71 0l15.18-15.19a.51.51 0 0 0 0-.71L8.09 45.87a.5.5 0 0 0-.71 0zm41.7 0a.51.51 0 0 0 0 .71L49.07 61a.5.5 0 0 1 0 .71L41.84 69a.51.51 0 0 0 0 .71l7.23 7.24a.51.51 0 0 0 .71 0L65 61.76a.51.51 0 0 0 0-.76L49.78 45.87a.51.51 0 0 0-.71 0zm41.69 0a.51.51 0 0 0 0 .71L90.76 61a.5.5 0 0 1 0 .71L83.53 69a.51.51 0 0 0 0 .71l7.24 7.24a.5.5 0 0 0 .71 0l15.18-15.18a.5.5 0 0 0 0-.71L91.47 45.87a.5.5 0 0 0-.71 0zm41.69 0a.51.51 0 0 0 0 .71l7.23 7.19a.5.5 0 0 1 0 .71L125.22 69a.51.51 0 0 0 0 .71l7.24 7.24a.5.5 0 0 0 .71 0l15.18-15.18a.51.51 0 0 0 0-.71l-15.19-15.19a.5.5 0 0 0-.71 0zm41.69 0a.51.51 0 0 0 0 .71l7.24 7.19a.5.5 0 0 1 0 .71L166.91 69a.51.51 0 0 0 0 .71l7.24 7.24a.5.5 0 0 0 .71 0L190 61.76a.51.51 0 0 0 0-.71l-15.14-15.18a.5.5 0 0 0-.71 0zm41.69 0a.51.51 0 0 0 0 .71l7.24 7.19a.5.5 0 0 1 0 .71L208.6 69a.51.51 0 0 0 0 .71l7.23 7.24a.51.51 0 0 0 .71 0l15.18-15.18a.51.51 0 0 0 0-.71l-15.17-15.19a.51.51 0 0 0-.71 0z"/><path class="cls-2" d="M250.29 53.1a.51.51 0 0 0 0 .71l7.24 7.19a.5.5 0 0 1 0 .71L250.29 69a.51.51 0 0 0 0 .71l7.23 7.24a.51.51 0 0 0 .71 0l15.18-15.18a.51.51 0 0 0 0-.71l-15.17-15.19a.51.51 0 0 0-.71 0zm41.71 0a.51.51 0 0 0 0 .71l7.22 7.19a.5.5 0 0 1 0 .71L292 69a.51.51 0 0 0 0 .71l7.23 7.24a.5.5 0 0 0 .71 0l15.18-15.18a.51.51 0 0 0 0-.71l-15.19-15.19a.5.5 0 0 0-.71 0zm41.68 0a.51.51 0 0 0 0 .71l7.23 7.19a.5.5 0 0 1 0 .71L333.68 69a.51.51 0 0 0 0 .71l7.24 7.24a.5.5 0 0 0 .71 0l15.17-15.19a.5.5 0 0 0 0-.71l-15.18-15.18a.5.5 0 0 0-.71 0zm41.69 0a.51.51 0 0 0 0 .71l7.24 7.19a.5.5 0 0 1 0 .71L375.37 69a.51.51 0 0 0 0 .71l7.24 7.24a.5.5 0 0 0 .71 0l15.18-15.19a.5.5 0 0 0 0-.71l-15.18-15.18a.5.5 0 0 0-.71 0zm41.69 0a.51.51 0 0 0 0 .71L424.3 61a.5.5 0 0 1 0 .71L417.06 69a.51.51 0 0 0 0 .71l7.24 7.24a.5.5 0 0 0 .71 0l15.18-15.18a.51.51 0 0 0 0-.71L425 45.87a.5.5 0 0 0-.71 0zm41.69 0a.51.51 0 0 0 0 .71L466 61a.5.5 0 0 1 0 .71L458.75 69a.51.51 0 0 0 0 .71l7.25 7.23a.5.5 0 0 0 .71 0l15.18-15.18a.51.51 0 0 0 0-.71L466.7 45.87a.5.5 0 0 0-.71 0zm41.69 0a.51.51 0 0 0 0 .71l7.24 7.19a.5.5 0 0 1 0 .71L500.44 69a.51.51 0 0 0 0 .71l7.23 7.24a.5.5 0 0 0 .71 0l15.18-15.18a.51.51 0 0 0 0-.71l-15.17-15.19a.5.5 0 0 0-.71 0zm41.7 0a.51.51 0 0 0 0 .71l7.23 7.19a.5.5 0 0 1 0 .71L542.14 69a.51.51 0 0 0 0 .71l7.24 7.24a.5.5 0 0 0 .71 0l15.18-15.18a.5.5 0 0 0 0-.71l-15.19-15.19a.5.5 0 0 0-.71 0z"/><path class="cls-1" d="M.14 98.82a.51.51 0 0 0 0 .71l7.24 7.24a.5.5 0 0 1 0 .71l-7.24 7.23a.52.52 0 0 0 0 .71l7.24 7.24a.5.5 0 0 0 .71 0l15.18-15.18a.51.51 0 0 0 0-.71L8.09 91.59a.5.5 0 0 0-.71 0zm41.7 0a.51.51 0 0 0 0 .71l7.23 7.24a.5.5 0 0 1 0 .71l-7.23 7.23a.51.51 0 0 0 0 .71l7.23 7.24a.51.51 0 0 0 .71 0L65 107.48a.51.51 0 0 0 0-.71L49.78 91.59a.51.51 0 0 0-.71 0zm41.69 0a.51.51 0 0 0 0 .71l7.24 7.24a.5.5 0 0 1 0 .71l-7.24 7.23a.51.51 0 0 0 0 .71l7.24 7.24a.5.5 0 0 0 .71 0l15.18-15.18a.5.5 0 0 0 0-.71L91.47 91.59a.5.5 0 0 0-.71 0zm41.69 0a.51.51 0 0 0 0 .71l7.24 7.24a.5.5 0 0 1 0 .71l-7.24 7.23a.51.51 0 0 0 0 .71l7.24 7.24a.5.5 0 0 0 .71 0l15.18-15.18a.51.51 0 0 0 0-.71l-15.19-15.18a.5.5 0 0 0-.71 0zm41.69 0a.51.51 0 0 0 0 .71l7.24 7.24a.5.5 0 0 1 0 .71l-7.24 7.23a.51.51 0 0 0 0 .71l7.24 7.24a.5.5 0 0 0 .71 0L190 107.48a.51.51 0 0 0 0-.71l-15.14-15.18a.5.5 0 0 0-.71 0zm41.69 0a.51.51 0 0 0 0 .71l7.23 7.24a.5.5 0 0 1 0 .71l-7.23 7.23a.51.51 0 0 0 0 .71l7.23 7.24a.51.51 0 0 0 .71 0l15.18-15.18a.51.51 0 0 0 0-.71l-15.17-15.18a.51.51 0 0 0-.71 0z"/><path class="cls-2" d="M250.29 98.82a.51.51 0 0 0 0 .71l7.23 7.24a.5.5 0 0 1 0 .71l-7.23 7.23a.51.51 0 0 0 0 .71l7.23 7.24a.51.51 0 0 0 .71 0l15.18-15.18a.51.51 0 0 0 0-.71l-15.17-15.18a.51.51 0 0 0-.71 0zm41.71 0a.51.51 0 0 0 0 .71l7.23 7.24a.5.5 0 0 1 0 .71l-7.23 7.23a.51.51 0 0 0 0 .71l7.23 7.24a.5.5 0 0 0 .71 0l15.18-15.18a.51.51 0 0 0 0-.71l-15.19-15.18a.5.5 0 0 0-.71 0zm41.68 0a.51.51 0 0 0 0 .71l7.24 7.24a.5.5 0 0 1 0 .71l-7.24 7.23a.51.51 0 0 0 0 .71l7.24 7.24a.5.5 0 0 0 .71 0l15.18-15.18a.5.5 0 0 0 0-.71l-15.19-15.18a.5.5 0 0 0-.71 0zm41.69 0a.51.51 0 0 0 0 .71l7.24 7.24a.5.5 0 0 1 0 .71l-7.24 7.23a.51.51 0 0 0 0 .71l7.24 7.24a.5.5 0 0 0 .71 0l15.18-15.18a.5.5 0 0 0 0-.71l-15.18-15.18a.5.5 0 0 0-.71 0zm41.69 0a.51.51 0 0 0 0 .71l7.24 7.24a.5.5 0 0 1 0 .71l-7.24 7.23a.52.52 0 0 0 0 .71l7.24 7.24a.5.5 0 0 0 .71 0l15.18-15.18a.51.51 0 0 0 0-.71L425 91.59a.5.5 0 0 0-.71 0zm41.69 0a.51.51 0 0 0 0 .71l7.24 7.24a.5.5 0 0 1 0 .71l-7.24 7.23a.51.51 0 0 0 0 .71l7.24 7.24a.5.5 0 0 0 .71 0l15.18-15.18a.51.51 0 0 0 0-.71L466.7 91.59a.5.5 0 0 0-.71 0zm41.69 0a.51.51 0 0 0 0 .71l7.23 7.24a.5.5 0 0 1 0 .71l-7.23 7.23a.51.51 0 0 0 0 .71l7.23 7.24a.5.5 0 0 0 .71 0l15.18-15.18a.51.51 0 0 0 0-.71l-15.17-15.18a.5.5 0 0 0-.71 0zm41.7 0a.51.51 0 0 0 0 .71l7.24 7.24a.5.5 0 0 1 0 .71l-7.24 7.23a.51.51 0 0 0 0 .71l7.24 7.24a.5.5 0 0 0 .71 0l15.18-15.18a.5.5 0 0 0 0-.71l-15.19-15.18a.5.5 0 0 0-.71 0z"/><path class="cls-1" d="M.14 144.55a.51.51 0 0 0 0 .71l7.24 7.24a.5.5 0 0 1 0 .71l-7.24 7.22a.52.52 0 0 0 0 .71l7.24 7.24a.51.51 0 0 0 .71 0l15.18-15.18a.51.51 0 0 0 0-.71L8.09 137.31a.5.5 0 0 0-.71 0zm41.7 0a.51.51 0 0 0 0 .71l7.23 7.24a.5.5 0 0 1 0 .71l-7.23 7.23a.51.51 0 0 0 0 .71l7.23 7.24a.51.51 0 0 0 .71 0L65 153.2a.51.51 0 0 0 0-.71l-15.22-15.18a.51.51 0 0 0-.71 0zm41.69 0a.51.51 0 0 0 0 .71l7.24 7.24a.5.5 0 0 1 0 .71l-7.24 7.23a.51.51 0 0 0 0 .71l7.24 7.24a.5.5 0 0 0 .71 0l15.18-15.18a.5.5 0 0 0 0-.71l-15.19-15.19a.5.5 0 0 0-.71 0zm41.69 0a.51.51 0 0 0 0 .71l7.24 7.24a.5.5 0 0 1 0 .71l-7.24 7.23a.51.51 0 0 0 0 .71l7.24 7.24a.5.5 0 0 0 .71 0l15.18-15.18a.51.51 0 0 0 0-.71l-15.18-15.18a.5.5 0 0 0-.71 0zm41.69 0a.51.51 0 0 0 0 .71l7.24 7.24a.5.5 0 0 1 0 .71l-7.24 7.23a.51.51 0 0 0 0 .71l7.24 7.24a.51.51 0 0 0 .71 0L190 153.2a.51.51 0 0 0 0-.71l-15.18-15.18a.5.5 0 0 0-.71 0zm41.69 0a.51.51 0 0 0 0 .71l7.23 7.24a.5.5 0 0 1 0 .71l-7.23 7.23a.51.51 0 0 0 0 .71l7.23 7.24a.51.51 0 0 0 .71 0l15.18-15.18a.51.51 0 0 0 0-.71l-15.18-15.18a.51.51 0 0 0-.71 0z"/><path class="cls-2" d="M250.29 144.55a.51.51 0 0 0 0 .71l7.23 7.24a.5.5 0 0 1 0 .71l-7.23 7.23a.51.51 0 0 0 0 .71l7.23 7.24a.51.51 0 0 0 .71 0l15.18-15.18a.51.51 0 0 0 0-.71l-15.18-15.18a.51.51 0 0 0-.71 0zm41.71 0a.51.51 0 0 0 0 .71l7.23 7.24a.5.5 0 0 1 0 .71l-7.23 7.22a.51.51 0 0 0 0 .71l7.23 7.24a.51.51 0 0 0 .71 0l15.18-15.18a.51.51 0 0 0 0-.71l-15.18-15.18a.5.5 0 0 0-.71 0zm41.68 0a.51.51 0 0 0 0 .71l7.24 7.24a.5.5 0 0 1 0 .71l-7.24 7.23a.51.51 0 0 0 0 .71l7.24 7.24a.5.5 0 0 0 .71 0l15.17-15.19a.5.5 0 0 0 0-.71l-15.18-15.18a.5.5 0 0 0-.71 0zm41.69 0a.51.51 0 0 0 0 .71l7.24 7.24a.5.5 0 0 1 0 .71l-7.24 7.23a.51.51 0 0 0 0 .71l7.24 7.24a.5.5 0 0 0 .71 0l15.18-15.19a.5.5 0 0 0 0-.71l-15.18-15.18a.5.5 0 0 0-.71 0zm41.69 0a.51.51 0 0 0 0 .71l7.24 7.24a.5.5 0 0 1 0 .71l-7.24 7.23a.52.52 0 0 0 0 .71l7.24 7.24a.5.5 0 0 0 .71 0l15.18-15.18a.51.51 0 0 0 0-.71L425 137.31a.5.5 0 0 0-.71 0zm41.69 0a.51.51 0 0 0 0 .71l7.24 7.24a.5.5 0 0 1 0 .71l-7.24 7.23a.51.51 0 0 0 0 .71l7.24 7.24a.51.51 0 0 0 .71 0l15.18-15.18a.51.51 0 0 0 0-.71l-15.18-15.19a.5.5 0 0 0-.71 0zm41.69 0a.51.51 0 0 0 0 .71l7.23 7.24a.5.5 0 0 1 0 .71l-7.23 7.23a.51.51 0 0 0 0 .71l7.23 7.24a.51.51 0 0 0 .71 0l15.18-15.18a.51.51 0 0 0 0-.71l-15.18-15.18a.5.5 0 0 0-.71 0zm41.7 0a.51.51 0 0 0 0 .71l7.24 7.24a.5.5 0 0 1 0 .71l-7.24 7.23a.51.51 0 0 0 0 .71l7.24 7.24a.51.51 0 0 0 .71 0l15.18-15.18a.5.5 0 0 0 0-.71l-15.18-15.18a.5.5 0 0 0-.71 0zm-542 45.72a.51.51 0 0 0 0 .71l7.24 7.24a.5.5 0 0 1 0 .71l-7.24 7.22a.52.52 0 0 0 0 .71l7.24 7.24a.51.51 0 0 0 .71 0l15.18-15.18a.51.51 0 0 0 0-.71L8.09 183a.5.5 0 0 0-.71 0zm41.7 0a.51.51 0 0 0 0 .71l7.23 7.24a.5.5 0 0 1 0 .71l-7.23 7.23a.51.51 0 0 0 0 .71l7.23 7.24a.51.51 0 0 0 .71 0L65 198.92a.51.51 0 0 0 0-.71L49.78 183a.51.51 0 0 0-.71 0zm41.69 0a.51.51 0 0 0 0 .71l7.24 7.24a.5.5 0 0 1 0 .71l-7.24 7.23a.51.51 0 0 0 0 .71l7.24 7.24a.51.51 0 0 0 .71 0l15.18-15.18a.5.5 0 0 0 0-.71L91.47 183a.5.5 0 0 0-.71 0zm41.69 0a.51.51 0 0 0 0 .71l7.24 7.24a.5.5 0 0 1 0 .71l-7.24 7.23a.51.51 0 0 0 0 .71l7.24 7.24a.51.51 0 0 0 .71 0l15.18-15.18a.51.51 0 0 0 0-.71L133.16 183a.5.5 0 0 0-.71 0zm41.69 0a.51.51 0 0 0 0 .71l7.24 7.24a.5.5 0 0 1 0 .71l-7.24 7.23a.51.51 0 0 0 0 .71l7.24 7.24a.51.51 0 0 0 .71 0L190 198.92a.51.51 0 0 0 0-.71L174.86 183a.5.5 0 0 0-.71 0zm41.69 0a.51.51 0 0 0 0 .71l7.23 7.24a.5.5 0 0 1 0 .71l-7.23 7.23a.51.51 0 0 0 0 .71l7.23 7.24a.51.51 0 0 0 .71 0l15.18-15.18a.51.51 0 0 0 0-.71L216.55 183a.51.51 0 0 0-.71 0zm41.69 0a.51.51 0 0 0 0 .71l7.23 7.24a.5.5 0 0 1 0 .71l-7.23 7.23a.51.51 0 0 0 0 .71l7.23 7.24a.51.51 0 0 0 .71 0l15.18-15.18a.51.51 0 0 0 0-.71L258.24 183a.51.51 0 0 0-.71 0zm41.71 0a.51.51 0 0 0 0 .71l7.23 7.24a.5.5 0 0 1 0 .71l-7.23 7.22a.51.51 0 0 0 0 .71l7.23 7.24a.51.51 0 0 0 .71 0l15.18-15.18a.51.51 0 0 0 0-.71L299.93 183a.5.5 0 0 0-.71 0zm41.68 0a.51.51 0 0 0 0 .71l7.24 7.24a.5.5 0 0 1 0 .71l-7.24 7.23a.51.51 0 0 0 0 .71l7.24 7.24a.51.51 0 0 0 .71 0l15.18-15.18a.5.5 0 0 0 0-.71L341.62 183a.5.5 0 0 0-.71 0zm41.69 0a.51.51 0 0 0 0 .71l7.24 7.24a.5.5 0 0 1 0 .71l-7.24 7.23a.51.51 0 0 0 0 .71l7.24 7.24a.51.51 0 0 0 .71 0l15.18-15.18a.5.5 0 0 0 0-.71L383.32 183a.5.5 0 0 0-.71 0zm41.69 0a.51.51 0 0 0 0 .71l7.24 7.24a.5.5 0 0 1 0 .71l-7.24 7.23a.52.52 0 0 0 0 .71l7.24 7.24a.51.51 0 0 0 .71 0l15.18-15.18a.51.51 0 0 0 0-.71L425 183a.5.5 0 0 0-.71 0zm41.69 0a.51.51 0 0 0 0 .71l7.24 7.24a.5.5 0 0 1 0 .71l-7.24 7.23a.51.51 0 0 0 0 .71l7.25 7.23a.51.51 0 0 0 .71 0l15.18-15.18a.51.51 0 0 0 0-.71L466.7 183a.5.5 0 0 0-.71 0zm41.69 0a.51.51 0 0 0 0 .71l7.23 7.24a.5.5 0 0 1 0 .71l-7.23 7.23a.51.51 0 0 0 0 .71l7.23 7.24a.51.51 0 0 0 .71 0l15.18-15.18a.51.51 0 0 0 0-.71L508.39 183a.5.5 0 0 0-.71 0zm41.7 0a.51.51 0 0 0 0 .71l7.24 7.24a.5.5 0 0 1 0 .71l-7.24 7.23a.51.51 0 0 0 0 .71l7.24 7.24a.51.51 0 0 0 .71 0l15.18-15.18a.5.5 0 0 0 0-.71L550.08 183a.5.5 0 0 0-.71 0zM.14 236a.51.51 0 0 0 0 .71l7.24 7.24a.5.5 0 0 1 0 .71l-7.24 7.22a.51.51 0 0 0 0 .71l7.24 7.24a.5.5 0 0 0 .71 0l15.18-15.18a.51.51 0 0 0 0-.71L8.09 228.75a.5.5 0 0 0-.71 0zm41.7 0a.51.51 0 0 0 0 .71l7.23 7.24a.5.5 0 0 1 0 .71l-7.23 7.23a.51.51 0 0 0 0 .71l7.23 7.24a.51.51 0 0 0 .71 0L65 244.64a.51.51 0 0 0 0-.71l-15.22-15.18a.51.51 0 0 0-.71 0zm41.69 0a.51.51 0 0 0 0 .71l7.24 7.24a.5.5 0 0 1 0 .71l-7.24 7.23a.51.51 0 0 0 0 .71l7.24 7.24a.5.5 0 0 0 .71 0l15.18-15.18a.5.5 0 0 0 0-.71l-15.19-15.2a.5.5 0 0 0-.71 0zm41.69 0a.51.51 0 0 0 0 .71l7.24 7.24a.5.5 0 0 1 0 .71l-7.24 7.23a.51.51 0 0 0 0 .71l7.24 7.24a.5.5 0 0 0 .71 0l15.18-15.18a.51.51 0 0 0 0-.71l-15.18-15.18a.5.5 0 0 0-.71 0zm41.69 0a.51.51 0 0 0 0 .71l7.24 7.24a.5.5 0 0 1 0 .71l-7.24 7.23a.51.51 0 0 0 0 .71l7.24 7.24a.5.5 0 0 0 .71 0l15.14-15.2a.51.51 0 0 0 0-.71l-15.18-15.18a.5.5 0 0 0-.71 0zm41.69 0a.51.51 0 0 0 0 .71l7.23 7.24a.5.5 0 0 1 0 .71l-7.23 7.23a.51.51 0 0 0 0 .71l7.23 7.24a.51.51 0 0 0 .71 0l15.18-15.18a.51.51 0 0 0 0-.71l-15.18-15.18a.51.51 0 0 0-.71 0zm41.69 0a.51.51 0 0 0 0 .71l7.23 7.24a.5.5 0 0 1 0 .71l-7.23 7.23a.51.51 0 0 0 0 .71l7.23 7.24a.51.51 0 0 0 .71 0l15.18-15.18a.51.51 0 0 0 0-.71l-15.18-15.18a.51.51 0 0 0-.71 0zm41.71 0a.51.51 0 0 0 0 .71l7.23 7.24a.5.5 0 0 1 0 .71l-7.23 7.22a.51.51 0 0 0 0 .71l7.23 7.24a.5.5 0 0 0 .71 0l15.18-15.18a.51.51 0 0 0 0-.71l-15.18-15.18a.5.5 0 0 0-.71 0zm41.68 0a.51.51 0 0 0 0 .71l7.24 7.24a.5.5 0 0 1 0 .71l-7.24 7.23a.51.51 0 0 0 0 .71l7.24 7.24a.5.5 0 0 0 .71 0l15.18-15.18a.5.5 0 0 0 0-.71l-15.18-15.18a.5.5 0 0 0-.71 0zm41.69 0a.51.51 0 0 0 0 .71l7.24 7.24a.5.5 0 0 1 0 .71l-7.24 7.23a.51.51 0 0 0 0 .71l7.24 7.24a.5.5 0 0 0 .71 0l15.18-15.18a.5.5 0 0 0 0-.71l-15.18-15.18a.5.5 0 0 0-.71 0zm41.69 0a.51.51 0 0 0 0 .71l7.24 7.24a.5.5 0 0 1 0 .71l-7.24 7.23a.51.51 0 0 0 0 .71l7.24 7.24a.5.5 0 0 0 .71 0l15.18-15.18a.51.51 0 0 0 0-.71L425 228.75a.5.5 0 0 0-.71 0zm41.69 0a.51.51 0 0 0 0 .71l7.24 7.24a.5.5 0 0 1 0 .71l-7.24 7.23a.51.51 0 0 0 0 .71l7.24 7.24a.5.5 0 0 0 .71 0l15.18-15.18a.51.51 0 0 0 0-.71l-15.18-15.2a.5.5 0 0 0-.71 0zm41.69 0a.51.51 0 0 0 0 .71l7.23 7.24a.5.5 0 0 1 0 .71l-7.23 7.23a.51.51 0 0 0 0 .71l7.23 7.24a.5.5 0 0 0 .71 0l15.18-15.18a.51.51 0 0 0 0-.71l-15.18-15.18a.5.5 0 0 0-.71 0zm41.7 0a.51.51 0 0 0 0 .71l7.24 7.24a.5.5 0 0 1 0 .71l-7.24 7.23a.51.51 0 0 0 0 .71l7.24 7.24a.5.5 0 0 0 .71 0l15.18-15.18a.5.5 0 0 0 0-.71l-15.18-15.18a.5.5 0 0 0-.71 0zm-542 45.71a.51.51 0 0 0 0 .71l7.24 7.24a.5.5 0 0 1 0 .71L.14 297.6a.52.52 0 0 0 0 .71l7.24 7.24a.5.5 0 0 0 .71 0l15.18-15.18a.51.51 0 0 0 0-.71L8.09 274.47a.5.5 0 0 0-.71 0zm41.7 0a.51.51 0 0 0 0 .71l7.23 7.24a.5.5 0 0 1 0 .71l-7.23 7.23a.51.51 0 0 0 0 .71l7.23 7.24a.51.51 0 0 0 .71 0L65 290.36a.51.51 0 0 0 0-.71l-15.22-15.18a.51.51 0 0 0-.71 0zm41.69 0a.51.51 0 0 0 0 .71l7.24 7.24a.5.5 0 0 1 0 .71l-7.24 7.23a.51.51 0 0 0 0 .71l7.24 7.24a.5.5 0 0 0 .71 0l15.18-15.18a.5.5 0 0 0 0-.71l-15.19-15.19a.5.5 0 0 0-.71 0zm41.69 0a.51.51 0 0 0 0 .71l7.24 7.24a.5.5 0 0 1 0 .71l-7.24 7.23a.51.51 0 0 0 0 .71l7.24 7.24a.5.5 0 0 0 .71 0l15.18-15.18a.51.51 0 0 0 0-.71l-15.18-15.18a.5.5 0 0 0-.71 0zm41.69 0a.51.51 0 0 0 0 .71l7.24 7.24a.5.5 0 0 1 0 .71l-7.24 7.23a.51.51 0 0 0 0 .71l7.24 7.24a.5.5 0 0 0 .71 0L190 290.36a.51.51 0 0 0 0-.71l-15.18-15.18a.5.5 0 0 0-.71 0zm41.69 0a.51.51 0 0 0 0 .71l7.23 7.24a.5.5 0 0 1 0 .71l-7.23 7.23a.51.51 0 0 0 0 .71l7.23 7.24a.51.51 0 0 0 .71 0l15.18-15.18a.51.51 0 0 0 0-.71l-15.18-15.18a.51.51 0 0 0-.71 0zm41.69 0a.51.51 0 0 0 0 .71l7.23 7.24a.5.5 0 0 1 0 .71l-7.23 7.23a.51.51 0 0 0 0 .71l7.23 7.24a.51.51 0 0 0 .71 0l15.18-15.18a.51.51 0 0 0 0-.71l-15.18-15.18a.51.51 0 0 0-.71 0zm41.71 0a.51.51 0 0 0 0 .71l7.23 7.24a.5.5 0 0 1 0 .71L292 297.6a.51.51 0 0 0 0 .71l7.23 7.24a.5.5 0 0 0 .71 0l15.18-15.18a.51.51 0 0 0 0-.71l-15.18-15.18a.5.5 0 0 0-.71 0zm41.68 0a.51.51 0 0 0 0 .71l7.24 7.24a.5.5 0 0 1 0 .71l-7.24 7.23a.51.51 0 0 0 0 .71l7.24 7.24a.5.5 0 0 0 .71 0l15.18-15.18a.5.5 0 0 0 0-.71l-15.18-15.18a.5.5 0 0 0-.71 0zm41.69 0a.51.51 0 0 0 0 .71l7.24 7.24a.5.5 0 0 1 0 .71l-7.24 7.23a.51.51 0 0 0 0 .71l7.24 7.24a.5.5 0 0 0 .71 0l15.18-15.18a.5.5 0 0 0 0-.71l-15.18-15.18a.5.5 0 0 0-.71 0zm41.69 0a.51.51 0 0 0 0 .71l7.24 7.24a.5.5 0 0 1 0 .71l-7.24 7.23a.52.52 0 0 0 0 .71l7.24 7.24a.5.5 0 0 0 .71 0l15.18-15.18a.51.51 0 0 0 0-.71L425 274.47a.5.5 0 0 0-.71 0zm41.69 0a.51.51 0 0 0 0 .71l7.24 7.24a.5.5 0 0 1 0 .71l-7.24 7.23a.51.51 0 0 0 0 .71l7.24 7.24a.5.5 0 0 0 .71 0l15.18-15.18a.51.51 0 0 0 0-.71l-15.18-15.19a.5.5 0 0 0-.71 0zm41.69 0a.51.51 0 0 0 0 .71l7.23 7.24a.5.5 0 0 1 0 .71l-7.23 7.23a.51.51 0 0 0 0 .71l7.23 7.24a.5.5 0 0 0 .71 0l15.18-15.18a.51.51 0 0 0 0-.71l-15.18-15.18a.5.5 0 0 0-.71 0zm41.7 0a.51.51 0 0 0 0 .71l7.24 7.24a.5.5 0 0 1 0 .71l-7.24 7.23a.51.51 0 0 0 0 .71l7.24 7.24a.5.5 0 0 0 .71 0l15.18-15.18a.5.5 0 0 0 0-.71l-15.18-15.18a.5.5 0 0 0-.71 0z"/><path class="cls-1" d="M427.33 345.5a.21.21 0 0 1 .22-.22h9.52a.21.21 0 0 1 .22.22v1.92a.21.21 0 0 1-.22.22h-7a.12.12 0 0 0-.13.13v3.87a.12.12 0 0 0 .13.13H436a.21.21 0 0 1 .22.22v1.92a.21.21 0 0 1-.22.22h-5.88a.12.12 0 0 0-.13.13v6a.21.21 0 0 1-.22.22h-2.19a.21.21 0 0 1-.22-.22zm11.94 11.55a21.92 21.92 0 0 1 0-8.36 5.77 5.77 0 0 1 10.75 0 21.92 21.92 0 0 1 0 8.36 5.77 5.77 0 0 1-10.75 0zm8.2-.69a22.78 22.78 0 0 0 0-7 3 3 0 0 0-5.66 0 22.78 22.78 0 0 0 0 7 3 3 0 0 0 5.66 0zm5.3-10.86a.21.21 0 0 1 .22-.22h2.19a.21.21 0 0 1 .22.22v6a.12.12 0 0 0 .13.13h5.79a.12.12 0 0 0 .13-.13v-6a.21.21 0 0 1 .22-.22h2.19a.21.21 0 0 1 .22.22v14.75a.21.21 0 0 1-.22.22h-2.19a.21.21 0 0 1-.22-.22v-6.12a.12.12 0 0 0-.13-.13h-5.79a.12.12 0 0 0-.13.13v6.13a.21.21 0 0 1-.22.22H453a.21.21 0 0 1-.22-.22zm46.54 2.08v-.07h-3.78a.12.12 0 0 0-.13.13v1.74a.21.21 0 0 1-.22.22h-1.92a.21.21 0 0 1-.22-.22v-3.88a.21.21 0 0 1 .22-.22h8.52a.21.21 0 0 1 .22.22v1.74a1 1 0 0 1-.07.4l-5 12.63c-.07.16-.11.2-.29.2h-2.12c-.13 0-.2-.09-.13-.25zm5.14 5.29c0-3.53.11-4.25.31-4.87a4.12 4.12 0 0 1 4.31-3 4.16 4.16 0 0 1 4.34 3c.2.63.31 1.34.31 4.87s-.11 4.25-.31 4.87a4.16 4.16 0 0 1-4.34 3 4.12 4.12 0 0 1-4.31-3c-.2-.62-.31-1.33-.31-4.87zm4.63 5.61a1.81 1.81 0 0 0 1.88-1.21c.16-.47.2-1 .2-4.4s0-3.93-.2-4.4a1.81 1.81 0 0 0-1.88-1.21 1.78 1.78 0 0 0-1.86 1.21c-.16.47-.2 1-.2 4.4s0 3.93.2 4.4a1.78 1.78 0 0 0 1.86 1.21zm12.31 6.02a.21.21 0 0 1-.22-.22v-1.79a.21.21 0 0 1 .22-.22h.4c.85 0 1.27-.38 1.61-1.27l.31-.92-3.93-10.15c0-.13 0-.22.18-.22h2.21a.28.28 0 0 1 .27.22l2.44 7 2.32-7a.28.28 0 0 1 .27-.22h2.12c.13 0 .22.09.18.22l-4.11 11.22c-.94 2.55-1.83 3.35-3.62 3.35zm9.52-6.77a8.35 8.35 0 0 1-.38-2.64 8.58 8.58 0 0 1 .36-2.66 4.76 4.76 0 0 1 8.83 0 9.65 9.65 0 0 1 .36 3.24.22.22 0 0 1-.25.22h-6.64a.12.12 0 0 0-.13.13 2.5 2.5 0 0 0 2.57 2.46 3.25 3.25 0 0 0 2.53-1 .23.23 0 0 1 .33 0l1.32 1.16a.2.2 0 0 1 0 .31 5.68 5.68 0 0 1-4.43 1.83 4.36 4.36 0 0 1-4.47-3.05zm6.5-4.76a2.3 2.3 0 0 0-4.22 0 2.72 2.72 0 0 0-.13.92.12.12 0 0 0 .13.13h4.22a.12.12 0 0 0 .13-.13 2.72 2.72 0 0 0-.12-.89zm11.2 7.5a.21.21 0 0 1-.22-.22v-.78a3.52 3.52 0 0 1-3 1.25c-2 0-3.62-1-3.62-3.29S543.36 354 546 354h2.19a.12.12 0 0 0 .13-.13v-.51c0-1.23-.58-1.79-2.39-1.79a3.78 3.78 0 0 0-2.46.74.2.2 0 0 1-.31 0l-.83-1.48a.21.21 0 0 1 0-.29 6.29 6.29 0 0 1 3.82-1.05c3.29 0 4.49 1.12 4.49 3.76v7a.21.21 0 0 1-.22.22zm-.27-3.62V356a.12.12 0 0 0-.13-.13h-1.79c-1.61 0-2.32.45-2.32 1.45s.65 1.34 1.86 1.34c1.54.03 2.39-.58 2.39-1.81zm5.21 3.62a.21.21 0 0 1-.22-.22v-10.33a.21.21 0 0 1 .22-.22h2.06a.21.21 0 0 1 .22.22v.92a3.09 3.09 0 0 1 2.79-1.39 3.25 3.25 0 0 1 2.26.89c.11.11.13.2 0 .31l-1.18 1.5a.2.2 0 0 1-.31 0 2.91 2.91 0 0 0-1.59-.51c-1.41 0-2 1-2 2.73v5.83a.21.21 0 0 1-.22.22zm7.82-1.47a.22.22 0 0 1 0-.31l1.27-1.34a.22.22 0 0 1 .31 0 5 5 0 0 0 3.15 1.23c1.32 0 2-.54 2-1.27s-.38-1.05-1.79-1.19l-1.16-.11c-2.19-.22-3.31-1.34-3.31-3.17 0-2.08 1.5-3.4 4.18-3.4a6.53 6.53 0 0 1 4 1.32.22.22 0 0 1 0 .31L569 352.4a.22.22 0 0 1-.31 0 5.2 5.2 0 0 0-2.82-.89c-1.07 0-1.63.47-1.63 1.12s.38 1 1.77 1.14l1.16.11c2.26.22 3.33 1.39 3.33 3.15 0 2.15-1.56 3.64-4.51 3.64a6.68 6.68 0 0 1-4.62-1.67z"/><path class="cls-2" d="M474.59 349.24a.23.23 0 0 0 0 .32l3.29 3.3a.23.23 0 0 1 0 .32l-3.29 3.3a.23.23 0 0 0 0 .32l3.29 3.3a.23.23 0 0 0 .33 0l6.92-6.92a.23.23 0 0 0 0-.32l-6.92-6.92a.23.23 0 0 0-.33 0z"/></g></g></svg>