<svg xmlns="http://www.w3.org/2000/svg" viewBox="0 0 700 700"><defs><style>.cls-1,.cls-7{fill:#fff}.cls-2{fill:#90a4ae}.cls-3,.cls-6{fill:none}.cls-3,.cls-7{stroke:#fff;stroke-width:6px}.cls-3,.cls-6,.cls-7{stroke-miterlimit:10}.cls-4{fill:#2096f3}.cls-5{fill:#546e7a}.cls-6{stroke:#eceff1;stroke-width:1.54px}</style></defs><title>stats</title><g id="Layer_2" data-name="Layer 2"><g id="Layer_1-2" data-name="Layer 1"><path class="cls-1" d="M0 0h700v350H0z"/><path class="cls-2" d="M0 350h700v350H0z"/><path class="cls-1" d="M375.18 512.3h-3.83c-2.16 0-3.91 1.4-3.91 3.12s1.75 3.14 3.91 3.14h3.83c2.16 0 3.91-1.41 3.91-3.14s-1.75-3.12-3.91-3.12zm-62.62 3.12c0-1.72-1.67-3.12-3.82-3.12h-3.92c-2.16 0-3.91 1.4-3.91 3.12s1.75 3.14 3.91 3.14h3.92c2.15 0 3.82-1.41 3.82-3.14zM340 488.06c1.73 0 3.13-1.75 3.13-3.9v-3.91c0-2.18-1.4-3.91-3.13-3.91s-3.13 1.74-3.13 3.91v3.91c0 2.15 1.4 3.9 3.13 3.9zm0 54.72c-1.73 0-3.13 1.76-3.13 3.92v3.91c0 2.17 1.4 3.91 3.13 3.91s3.13-1.74 3.13-3.91v-3.91c0-2.16-1.4-3.92-3.13-3.92zm28.79-51.72c1.52-1.52 1.77-3.76.56-5s-3.46-1-5 .58l-2.73 2.71c-1.54 1.54-1.77 3.76-.57 5s3.47 1 5-.56c.43-.42 2.32-2.3 2.74-2.73zm-54.84 46l-2.74 2.73c-1.52 1.52-1.77 3.76-.55 5s3.45 1 5-.55l2.74-2.73c1.53-1.54 1.76-3.76.56-5s-3.49-.98-5.01.55zm1.69-50.42c-1.52-1.53-3.75-1.79-5-.58s-1 3.46.55 5c.42.43 2.32 2.32 2.74 2.73 1.53 1.54 3.75 1.77 5 .56s1-3.44-.56-5zm46 54.84c.42.41 2.31 2.31 2.73 2.73 1.53 1.53 3.76 1.78 5 .55s1-3.46-.56-5l-2.74-2.73c-1.51-1.53-3.75-1.78-5-.56s-.97 3.48.57 5.02zM340 535.92a20.49 20.49 0 1 1 20.5-20.5 20.52 20.52 0 0 1-20.5 20.5zm0-35.29a14.79 14.79 0 1 0 14.8 14.79 14.82 14.82 0 0 0-14.8-14.79zm-206 10.04c-6.17 7.58-6.15 18.09 1.29 24.72s17.47 4.85 23.65-2.73z"/><path class="cls-3" d="M170.91 523.83c0-14.28-25.86-42.67-25.86-42.67s-25.86 28.39-25.86 42.67a25.86 25.86 0 1 0 51.72 0z"/><path class="cls-4" d="M124.21 124.58H124l-9 6.32c-.48.32-.88.16-.88-.48v-5.92a1.3 1.3 0 0 1 .56-1.12l9.36-6.8a1.82 1.82 0 0 1 1.28-.48h4.8a.76.76 0 0 1 .8.8v52.8a.76.76 0 0 1-.8.8H125a.76.76 0 0 1-.8-.8zm21.87 38.24a.76.76 0 0 1 .8-.8H153a.76.76 0 0 1 .8.8v6.88a.76.76 0 0 1-.8.8h-6.08a.76.76 0 0 1-.8-.8zm23.4-20.88v-.16a13.09 13.09 0 0 1-6.4-11.52c0-8.16 5.84-15 15.52-15s15.52 6.88 15.52 15a13.09 13.09 0 0 1-6.4 11.52v.16a14.86 14.86 0 0 1 7.68 13.44c0 9.52-6.88 16-16.8 16s-16.8-6.48-16.8-16a14.86 14.86 0 0 1 7.68-13.44zm9.12 23.2c6 0 9.92-4.24 9.92-10.08s-3.92-10-9.92-10-9.92 4.24-9.92 10 4 10.08 9.92 10.08zm8.64-35a8.64 8.64 0 1 0-8.64 8.72 8.36 8.36 0 0 0 8.64-8.76z"/><path class="cls-5" d="M89.29 211.12a.13.13 0 0 1 .14-.14h1.25a.22.22 0 0 1 .24.14l2.62 5.88h.06l2.58-5.87a.22.22 0 0 1 .24-.14h1.23a.13.13 0 0 1 .14.14v9.25a.13.13 0 0 1-.14.14h-1.23a.13.13 0 0 1-.14-.14v-5.83h-.06l-2 4.48a.27.27 0 0 1-.27.18h-.81a.27.27 0 0 1-.27-.18l-2-4.48h-.06v5.83a.13.13 0 0 1-.14.14h-1.23a.13.13 0 0 1-.14-.14zm12.71 0a.13.13 0 0 1 .14-.14h1.37a.13.13 0 0 1 .14.14v9.25a.13.13 0 0 1-.14.14h-1.37a.13.13 0 0 1-.14-.14zm5.83 0a.13.13 0 0 1 .17-.12h1.37a.13.13 0 0 1 .14.14v7.82a.07.07 0 0 0 .08.08h4.37a.13.13 0 0 1 .14.14v1.2a.13.13 0 0 1-.14.14h-6a.13.13 0 0 1-.14-.14zm9.73 0a.13.13 0 0 1 .14-.14h1.37a.13.13 0 0 1 .14.14v7.82a.07.07 0 0 0 .08.08h4.37a.13.13 0 0 1 .14.14v1.2a.13.13 0 0 1-.14.14h-6a.13.13 0 0 1-.14-.14zm9.73 0a.13.13 0 0 1 .14-.14h1.37a.13.13 0 0 1 .14.14v9.25a.13.13 0 0 1-.14.14h-1.37a.13.13 0 0 1-.14-.14zm5.83 7.24a13.74 13.74 0 0 1 0-5.24 3.62 3.62 0 0 1 6.74 0 13.74 13.74 0 0 1 0 5.24 3.62 3.62 0 0 1-6.74 0zm5.14-.43a14.3 14.3 0 0 0 0-4.37 1.88 1.88 0 0 0-3.54 0 14.21 14.21 0 0 0 0 4.37 1.88 1.88 0 0 0 3.54 0zm5.74-6.81a.13.13 0 0 1 .14-.14h1.29a.25.25 0 0 1 .24.14l3.88 6.57h.06v-6.57a.13.13 0 0 1 .14-.14H151a.13.13 0 0 1 .14.14v9.25a.13.13 0 0 1-.14.14h-1.27a.25.25 0 0 1-.24-.14l-3.89-6.56h-.06v6.56a.13.13 0 0 1-.14.14h-1.22a.13.13 0 0 1-.14-.14zm16.72 0a.13.13 0 0 1 .14-.14h6a.13.13 0 0 1 .14.14v1.21a.13.13 0 0 1-.14.14h-4.37a.07.07 0 0 0-.08.08V215a.07.07 0 0 0 .08.08h3.68a.13.13 0 0 1 .14.14v1.21a.13.13 0 0 1-.14.14h-3.68a.07.07 0 0 0-.08.08v3.74a.13.13 0 0 1-.14.14h-1.37a.13.13 0 0 1-.14-.14zm9.96 0a.13.13 0 0 1 .14-.14h6a.13.13 0 0 1 .14.14v1.21a.13.13 0 0 1-.14.14h-4.37a.07.07 0 0 0-.08.08v2.33a.07.07 0 0 0 .08.08h3.68a.13.13 0 0 1 .14.14v1.21a.13.13 0 0 1-.14.14h-3.68a.07.07 0 0 0-.08.08v2.41a.07.07 0 0 0 .08.08h4.37a.13.13 0 0 1 .14.14v1.2a.13.13 0 0 1-.14.14h-6a.13.13 0 0 1-.14-.14zm10.08 0a.13.13 0 0 1 .14-.14h3.4a3 3 0 0 1 3.18 2.12 14.83 14.83 0 0 1 0 5.29 3 3 0 0 1-3.18 2.12h-3.4a.13.13 0 0 1-.14-.14zm1.74 7.9h1.41a1.78 1.78 0 0 0 2-1.2 6.54 6.54 0 0 0 .17-2.07 6.47 6.47 0 0 0-.17-2.07 1.78 1.78 0 0 0-2-1.21h-1.41a.07.07 0 0 0-.08.08v6.39a.07.07 0 0 0 .07.06zm9.11-7.9a.13.13 0 0 1 .14-.14h6a.13.13 0 0 1 .14.14v1.21a.13.13 0 0 1-.14.14h-4.37a.07.07 0 0 0-.08.08v2.33a.07.07 0 0 0 .08.08H197a.13.13 0 0 1 .14.14v1.21a.13.13 0 0 1-.14.14h-3.68a.07.07 0 0 0-.08.08v2.41a.07.07 0 0 0 .08.08h4.37a.13.13 0 0 1 .14.14v1.2a.13.13 0 0 1-.14.14h-6a.13.13 0 0 1-.14-.14zm15.48 9.39a.2.2 0 0 1-.21-.14l-1.82-3.71h-1.64a.07.07 0 0 0-.08.08v3.63a.13.13 0 0 1-.14.14h-1.37a.13.13 0 0 1-.14-.14v-9.25a.13.13 0 0 1 .14-.14h3.68a2.84 2.84 0 0 1 3 2.84 2.71 2.71 0 0 1-1.81 2.62l2 3.88a.11.11 0 0 1-.1.18zm-.18-6.68a1.33 1.33 0 0 0-1.46-1.36h-2a.07.07 0 0 0-.08.08v2.54a.07.07 0 0 0 .08.08h2a1.33 1.33 0 0 0 1.46-1.34zm8.01-2.71a.18.18 0 0 1 .18-.14h1.29a.18.18 0 0 1 .18.14l3.22 9.25c0 .08 0 .14-.1.14h-1.37a.17.17 0 0 1-.18-.14l-.63-1.85h-3.59l-.63 1.85a.17.17 0 0 1-.18.14h-1.36c-.1 0-.13-.06-.1-.14zM217 217l-1.26-3.7-1.27 3.7zm6.19-5.88a.13.13 0 0 1 .14-.14h1.37a.13.13 0 0 1 .14.14v7.82a.07.07 0 0 0 .08.08h4.37a.13.13 0 0 1 .14.14v1.2a.13.13 0 0 1-.14.14h-6a.13.13 0 0 1-.14-.14zm-108.82 23a.13.13 0 0 1 .14-.14h6a.13.13 0 0 1 .14.14v1.21a.13.13 0 0 1-.14.14h-4.37a.07.07 0 0 0-.08.08v2.33a.07.07 0 0 0 .08.08h3.68a.13.13 0 0 1 .14.14v1.21a.13.13 0 0 1-.14.14h-3.68a.07.07 0 0 0-.08.08v2.41a.07.07 0 0 0 .08.08h4.37a.13.13 0 0 1 .14.14v1.2a.13.13 0 0 1-.14.14h-6a.13.13 0 0 1-.14-.14zm10.08 0a.13.13 0 0 1 .14-.14h1.25a.22.22 0 0 1 .24.14l2.62 5.87h.06l2.58-5.87a.22.22 0 0 1 .24-.14h1.23a.13.13 0 0 1 .14.14v9.25a.13.13 0 0 1-.14.14h-1.22a.13.13 0 0 1-.14-.14v-5.83h-.06l-2 4.48a.27.27 0 0 1-.27.18h-.81a.27.27 0 0 1-.31-.2l-2-4.48h-.06v5.83a.13.13 0 0 1-.14.14h-1.22a.13.13 0 0 1-.14-.14zm12.82 9.39a.13.13 0 0 1-.14-.14v-9.25a.13.13 0 0 1 .14-.14h3.57a3 3 0 1 1 0 5.92h-2a.07.07 0 0 0-.08.08v3.38a.13.13 0 0 1-.14.14zm5.06-6.57a1.44 1.44 0 0 0-1.58-1.47h-1.88a.07.07 0 0 0-.08.08v2.77a.07.07 0 0 0 .08.08h1.88a1.43 1.43 0 0 0 1.58-1.46zm5.27-2.82a.13.13 0 0 1 .14-.14h1.37a.13.13 0 0 1 .14.14v7.82a.07.07 0 0 0 .08.08h4.37a.13.13 0 0 1 .14.14v1.2a.13.13 0 0 1-.14.14h-6a.13.13 0 0 1-.14-.14zm9.4 7.24a13.74 13.74 0 0 1 0-5.24 3.62 3.62 0 0 1 6.74 0 13.74 13.74 0 0 1 0 5.24 3.62 3.62 0 0 1-6.74 0zm5.14-.43a14.3 14.3 0 0 0 0-4.37 1.88 1.88 0 0 0-3.54 0 14.21 14.21 0 0 0 0 4.37 1.88 1.88 0 0 0 3.54 0zm7.64 2.58a.13.13 0 0 1-.14-.14v-3.75l-2.76-5.49c0-.07 0-.14.11-.14h1.41a.21.21 0 0 1 .2.14l1.86 3.7 1.88-3.7a.19.19 0 0 1 .2-.14h1.36c.11 0 .14.07.11.14l-2.76 5.49v3.75a.13.13 0 0 1-.14.14zm7.59-9.39a.13.13 0 0 1 .14-.14h6a.13.13 0 0 1 .14.14v1.21a.13.13 0 0 1-.14.14h-4.37a.07.07 0 0 0-.08.08v2.33a.07.07 0 0 0 .08.08h3.68a.13.13 0 0 1 .14.14v1.21a.13.13 0 0 1-.14.14h-3.68a.07.07 0 0 0-.08.08v2.41a.07.07 0 0 0 .08.08h4.37a.13.13 0 0 1 .14.14v1.2a.13.13 0 0 1-.14.14h-6a.13.13 0 0 1-.14-.14zm10.08 0a.13.13 0 0 1 .14-.14h6a.13.13 0 0 1 .14.14v1.21a.13.13 0 0 1-.14.14h-4.37a.07.07 0 0 0-.08.08v2.33a.07.07 0 0 0 .08.08h3.68a.13.13 0 0 1 .14.14v1.21a.13.13 0 0 1-.14.14h-3.68a.07.07 0 0 0-.08.08v2.41a.07.07 0 0 0 .08.08h4.37a.13.13 0 0 1 .14.14v1.2a.13.13 0 0 1-.14.14h-6a.13.13 0 0 1-.14-.14zm9.55 8.28a.15.15 0 0 1 0-.21l.87-1a.13.13 0 0 1 .2 0 4.26 4.26 0 0 0 2.59 1c1.13 0 1.79-.57 1.79-1.37s-.42-1.13-1.74-1.32l-.5-.07c-1.83-.25-2.87-1.13-2.87-2.72s1.26-2.87 3.22-2.87a5.23 5.23 0 0 1 3.08 1 .13.13 0 0 1 0 .2l-.67 1a.14.14 0 0 1-.2 0 4 4 0 0 0-2.28-.74c-1 0-1.5.53-1.5 1.27s.46 1.11 1.75 1.29l.5.07c1.84.25 2.84 1.12 2.84 2.76s-1.22 3-3.59 3a5.37 5.37 0 0 1-3.49-1.29z"/><path class="cls-4" d="M301.74 158.9l4.88-1.2c.48-.16.8.08 1 .56 1.12 3.44 3.92 6.88 9.68 6.88s9.36-4.08 9.36-9.6c0-6.08-3.92-10.08-10-10.08h-2.4a.76.76 0 0 1-.8-.8V140a.76.76 0 0 1 .8-.8h2.32c5.44 0 9-3.6 9-9.12 0-5-3.28-8.64-8.72-8.64a8.31 8.31 0 0 0-8.64 6.64.81.81 0 0 1-1 .64l-4.8-1.2a.77.77 0 0 1-.64-1c1.12-6.08 6.56-11.36 15.28-11.36 9.6 0 15.36 6.16 15.36 14.72a13.45 13.45 0 0 1-6.72 11.68v.16c3.36 1.44 7.76 6.08 7.76 13.52 0 9.52-6.8 16.08-16.24 16.08-8.8 0-14.64-4.88-16.16-11.52a.81.81 0 0 1 .68-.9zm43.72-16.56l13.84-25.68c.24-.48.48-.56 1-.56h5.44c.56 0 .72.32.48.8l-12.12 22.56.16.16a10.78 10.78 0 0 1 5.52-1.28c8.56 0 15.44 6.24 15.44 16.16 0 10.64-7.28 16.88-16.72 16.88s-16.64-6.24-16.64-16.64a26.47 26.47 0 0 1 3.6-12.4zm13 22.8c5.92 0 9.84-4.24 9.84-10.32s-3.92-10.24-9.84-10.24-9.76 4.16-9.76 10.24 3.88 10.32 9.8 10.32zm24.99-21.84c0-12.8.56-15.68 1.2-17.76 2.16-6.64 7.36-10.32 14.88-10.32s12.72 3.68 14.88 10.32c.64 2.08 1.2 5 1.2 17.76s-.56 15.68-1.2 17.76c-2.16 6.64-7.36 10.32-14.88 10.32s-12.72-3.68-14.88-10.32c-.65-2.06-1.2-4.96-1.2-17.76zm16.08 21.84c4 0 7-1.84 8.24-5.44.56-1.68.88-4 .88-16.4s-.32-14.72-.88-16.4c-1.28-3.6-4.24-5.44-8.24-5.44s-7 1.84-8.24 5.44c-.56 1.68-.88 4-.88 16.4s.32 14.72.88 16.4c1.28 3.6 4.24 5.44 8.24 5.44z"/><path class="cls-5" d="M330 211.12a.13.13 0 0 1 .14-.14h6a.13.13 0 0 1 .14.14v1.21a.13.13 0 0 1-.14.14h-4.37a.07.07 0 0 0-.08.08V215a.07.07 0 0 0 .08.08h3.68a.13.13 0 0 1 .14.14v1.21a.13.13 0 0 1-.14.14h-3.68a.07.07 0 0 0-.08.08v3.74a.13.13 0 0 1-.14.14h-1.37a.13.13 0 0 1-.14-.14zm10 0a.13.13 0 0 1 .14-.14h6a.13.13 0 0 1 .14.14v1.21a.13.13 0 0 1-.14.14h-4.37a.07.07 0 0 0-.08.08v2.33a.07.07 0 0 0 .08.08h3.68a.13.13 0 0 1 .14.14v1.21a.13.13 0 0 1-.14.14h-3.68a.07.07 0 0 0-.08.08v2.41a.07.07 0 0 0 .08.08h4.37a.13.13 0 0 1 .14.14v1.2a.13.13 0 0 1-.14.14h-6a.13.13 0 0 1-.14-.14zm10.06 0a.13.13 0 0 1 .14-.14h3.4a3 3 0 0 1 3.18 2.12 14.83 14.83 0 0 1 0 5.29 3 3 0 0 1-3.18 2.12h-3.4a.13.13 0 0 1-.14-.14zm1.74 7.9h1.41a1.78 1.78 0 0 0 2-1.2 6.54 6.54 0 0 0 .17-2.07 6.47 6.47 0 0 0-.17-2.07 1.78 1.78 0 0 0-2-1.21h-1.41a.07.07 0 0 0-.08.08v6.39a.07.07 0 0 0 .08.06zm9.11-7.9a.13.13 0 0 1 .09-.12h6a.13.13 0 0 1 .14.14v1.21a.13.13 0 0 1-.14.14h-4.37a.07.07 0 0 0-.08.08v2.33a.07.07 0 0 0 .08.08h3.68a.13.13 0 0 1 .14.14v1.21a.13.13 0 0 1-.14.14h-3.68a.07.07 0 0 0-.08.08v2.41a.07.07 0 0 0 .08.08H367a.13.13 0 0 1 .14.14v1.2a.13.13 0 0 1-.14.14h-6a.13.13 0 0 1-.14-.14zm15.49 9.39a.2.2 0 0 1-.21-.14l-1.82-3.71h-1.64a.07.07 0 0 0-.08.08v3.63a.13.13 0 0 1-.14.14h-1.37a.13.13 0 0 1-.14-.14v-9.25a.13.13 0 0 1 .14-.14h3.68a2.84 2.84 0 0 1 3 2.84 2.71 2.71 0 0 1-1.81 2.62l2 3.88a.11.11 0 0 1-.1.18zm-.18-6.68a1.33 1.33 0 0 0-1.46-1.36h-2a.07.07 0 0 0-.08.08v2.54a.07.07 0 0 0 .08.08h2a1.33 1.33 0 0 0 1.45-1.34zm8-2.71a.18.18 0 0 1 .18-.14h1.29a.18.18 0 0 1 .18.14l3.22 9.25c0 .08 0 .14-.1.14h-1.37a.17.17 0 0 1-.18-.14l-.63-1.85h-3.59l-.63 1.85a.17.17 0 0 1-.18.14h-1.36c-.1 0-.12-.06-.1-.14zm2.09 5.93l-1.26-3.7-1.28 3.7zm6.18-5.93a.13.13 0 0 1 .14-.14H394a.13.13 0 0 1 .14.14v7.82a.07.07 0 0 0 .08.08h4.37a.13.13 0 0 1 .14.14v1.2a.13.13 0 0 1-.14.14h-6a.13.13 0 0 1-.14-.14zm-63.43 23a.18.18 0 0 1 .18-.14h1.29a.18.18 0 0 1 .18.14l3.22 9.25c0 .08 0 .14-.1.14h-1.37a.17.17 0 0 1-.18-.14l-.63-1.85h-3.59l-.63 1.85a.17.17 0 0 1-.18.14h-1.35c-.1 0-.13-.06-.1-.14zm2.09 5.93l-1.26-3.7-1.27 3.7zm5.57-1.3a7.7 7.7 0 0 1 .25-2.62 3.29 3.29 0 0 1 3.4-2.3 3.35 3.35 0 0 1 3.32 2 .15.15 0 0 1-.06.2l-1.18.52a.15.15 0 0 1-.18-.07 2 2 0 0 0-1.92-1.18 1.73 1.73 0 0 0-1.79 1.25 14.21 14.21 0 0 0 0 4.37 1.73 1.73 0 0 0 1.79 1.25 1.79 1.79 0 0 0 1.81-1.19 3.92 3.92 0 0 0 .15-1.23.07.07 0 0 0-.08-.08h-1.57a.13.13 0 0 1-.14-.14v-1.12a.13.13 0 0 1 .14-.14h3.15a.13.13 0 0 1 .14.14v.83a7.84 7.84 0 0 1-.22 2.09 3.63 3.63 0 0 1-6.77 0 7.7 7.7 0 0 1-.24-2.58zm11.16-4.63a.13.13 0 0 1 .12-.12h6a.13.13 0 0 1 .14.14v1.21a.13.13 0 0 1-.14.14h-4.37a.07.07 0 0 0-.08.08v2.33a.07.07 0 0 0 .08.08h3.68a.13.13 0 0 1 .14.14v1.21a.13.13 0 0 1-.14.14h-3.68a.07.07 0 0 0-.08.08v2.41a.07.07 0 0 0 .08.08H354a.13.13 0 0 1 .14.14v1.2a.13.13 0 0 1-.14.14h-6a.13.13 0 0 1-.14-.14zm10.12 0a.13.13 0 0 1 .14-.14h1.29a.25.25 0 0 1 .24.14l3.88 6.57h.06v-6.57a.13.13 0 0 1 .14-.14h1.22a.13.13 0 0 1 .14.14v9.25a.13.13 0 0 1-.14.14h-1.27a.25.25 0 0 1-.24-.14l-3.89-6.56h-.06v6.56a.13.13 0 0 1-.14.14h-1.27a.13.13 0 0 1-.14-.14zm11 4.63a7.36 7.36 0 0 1 .25-2.58 3.21 3.21 0 0 1 3.3-2.34 3.35 3.35 0 0 1 3.22 2 .12.12 0 0 1-.07.17l-1.19.57a.13.13 0 0 1-.18-.07 1.88 1.88 0 0 0-1.78-1.23 1.69 1.69 0 0 0-1.71 1.26 14 14 0 0 0 0 4.34 1.69 1.69 0 0 0 1.71 1.26 1.88 1.88 0 0 0 1.78-1.23.13.13 0 0 1 .18-.07l1.19.57a.12.12 0 0 1 .07.17 3.35 3.35 0 0 1-3.22 2 3.21 3.21 0 0 1-3.3-2.34 7.36 7.36 0 0 1-.25-2.48zm10.4-4.63a.13.13 0 0 1 .14-.14h1.37a.13.13 0 0 1 .14.14v9.25a.13.13 0 0 1-.14.14h-1.37a.13.13 0 0 1-.14-.14zm5.86 0a.13.13 0 0 1 .14-.14h6a.13.13 0 0 1 .14.14v1.21a.13.13 0 0 1-.14.14H387a.07.07 0 0 0-.08.08v2.33a.07.07 0 0 0 .08.08h3.68a.13.13 0 0 1 .14.14v1.21a.13.13 0 0 1-.14.14H387a.07.07 0 0 0-.08.08v2.41a.07.07 0 0 0 .08.08h4.37a.13.13 0 0 1 .14.14v1.2a.13.13 0 0 1-.14.14h-6a.13.13 0 0 1-.14-.14zm9.57 8.28a.15.15 0 0 1 0-.21l.87-1a.13.13 0 0 1 .2 0 4.26 4.26 0 0 0 2.59 1c1.13 0 1.79-.57 1.79-1.37s-.42-1.13-1.74-1.32l-.5-.07c-1.83-.25-2.87-1.13-2.87-2.72s1.26-2.87 3.22-2.87a5.23 5.23 0 0 1 3.08 1 .12.12 0 0 1 0 .2l-.67 1a.14.14 0 0 1-.2 0 4 4 0 0 0-2.28-.74c-1 0-1.5.53-1.5 1.27s.46 1.11 1.75 1.29l.5.07c1.83.25 2.84 1.12 2.84 2.76s-1.22 3-3.59 3a5.37 5.37 0 0 1-3.49-1.29z"/><path class="cls-4" d="M538.9 122.58v-.24h-16.56a.42.42 0 0 0-.48.48v6.8a.76.76 0 0 1-.8.8h-4.8a.76.76 0 0 1-.8-.8V116.9a.76.76 0 0 1 .8-.8h29a.76.76 0 0 1 .8.8v5a2.39 2.39 0 0 1-.16.8l-18.72 47.12c-.24.56-.4.72-1 .72h-5.36c-.48 0-.72-.32-.48-.88zm14.91 20.72c0-12.8.56-15.68 1.2-17.76 2.16-6.64 7.36-10.32 14.88-10.32s12.72 3.68 14.88 10.32c.64 2.08 1.2 5 1.2 17.76s-.56 15.68-1.2 17.76c-2.16 6.64-7.36 10.32-14.88 10.32s-12.72-3.68-14.89-10.32c-.63-2.06-1.19-4.96-1.19-17.76zm16.08 21.84c4 0 7-1.84 8.24-5.44.56-1.68.88-4 .88-16.4s-.32-14.72-.88-16.4c-1.28-3.6-4.24-5.44-8.24-5.44s-7 1.84-8.24 5.44c-.56 1.68-.88 4-.88 16.4s.32 14.72.88 16.4c1.28 3.6 4.24 5.44 8.24 5.44z"/><path class="cls-5" d="M520.17 220.51a.13.13 0 0 1-.14-.14v-3.75l-2.76-5.49c0-.07 0-.14.11-.14h1.41a.21.21 0 0 1 .2.14l1.86 3.7 1.88-3.7a.19.19 0 0 1 .2-.14h1.36c.11 0 .14.07.11.14l-2.76 5.49v3.75a.13.13 0 0 1-.14.14zm7.59-9.39a.13.13 0 0 1 .14-.14h6a.13.13 0 0 1 .14.14v1.21a.13.13 0 0 1-.14.14h-4.37a.07.07 0 0 0-.08.08v2.33a.07.07 0 0 0 .08.08h3.68a.13.13 0 0 1 .14.14v1.21a.13.13 0 0 1-.14.14h-3.68a.07.07 0 0 0-.08.08v2.41a.07.07 0 0 0 .08.08h4.37a.13.13 0 0 1 .14.14v1.2a.13.13 0 0 1-.14.14h-6a.13.13 0 0 1-.14-.14zm12.54 0a.18.18 0 0 1 .18-.14h1.29a.18.18 0 0 1 .18.14l3.22 9.25c0 .08 0 .14-.1.14h-1.37a.17.17 0 0 1-.18-.14l-.63-1.85h-3.59l-.63 1.85a.17.17 0 0 1-.18.14h-1.36c-.1 0-.13-.06-.1-.14zm2.09 5.93l-1.26-3.7-1.27 3.7zm11.61 3.46a.2.2 0 0 1-.21-.14l-1.82-3.71h-1.64a.07.07 0 0 0-.08.08v3.63a.13.13 0 0 1-.14.14h-1.37a.13.13 0 0 1-.14-.14v-9.25a.13.13 0 0 1 .14-.14h3.68a2.84 2.84 0 0 1 3 2.84 2.71 2.71 0 0 1-1.81 2.62l2 3.88a.11.11 0 0 1-.1.18zm-.18-6.68a1.33 1.33 0 0 0-1.46-1.36h-2a.07.07 0 0 0-.08.08v2.54a.07.07 0 0 0 .08.08h2a1.33 1.33 0 0 0 1.44-1.34zm5.01 5.57a.15.15 0 0 1 0-.21l.87-1a.13.13 0 0 1 .2 0 4.26 4.26 0 0 0 2.59 1c1.13 0 1.79-.57 1.79-1.37s-.42-1.13-1.74-1.32l-.5-.07c-1.83-.25-2.87-1.13-2.87-2.72s1.26-2.87 3.22-2.87a5.23 5.23 0 0 1 3.08 1 .13.13 0 0 1 0 .2l-.67 1a.14.14 0 0 1-.2 0 4 4 0 0 0-2.28-.74c-1 0-1.5.53-1.5 1.27s.46 1.11 1.75 1.29l.5.07c1.84.25 2.84 1.12 2.84 2.76s-1.22 3-3.59 3a5.37 5.37 0 0 1-3.49-1.29zm17.87-4.2c-.77-1-1.06-1.48-1.06-2.18a2.23 2.23 0 0 1 2.37-2.19 2.2 2.2 0 0 1 2.33 2.14c0 .87-.42 1.48-1.65 2.44l1.49 1.9 1-1.13a.13.13 0 0 1 .2 0l.77.66a.13.13 0 0 1 0 .2l-1.15 1.34.34.42a.67.67 0 0 0 .57.31h.21a.13.13 0 0 1 .14.14v1.12a.13.13 0 0 1-.14.14h-.46a1.49 1.49 0 0 1-1.39-.74l-.24-.29a3.23 3.23 0 0 1-2.48 1.19 2.4 2.4 0 0 1-2.65-2.55c-.01-1.02.45-1.87 1.8-2.92zm1 4.1c.52 0 .92-.21 1.55-.88l-1.68-2.16c-.91.7-1.18 1.25-1.18 1.76a1.21 1.21 0 0 0 1.26 1.28zm1.2-6.3a.9.9 0 0 0-1.79 0c0 .34.11.55.74 1.37.88-.71 1.05-1.01 1.05-1.37zm-67.63 25.75a7.39 7.39 0 0 1 .25-2.58 3.21 3.21 0 0 1 3.31-2.34 3.35 3.35 0 0 1 3.22 2 .12.12 0 0 1-.07.17l-1.19.57a.12.12 0 0 1-.18-.07 1.88 1.88 0 0 0-1.78-1.23 1.69 1.69 0 0 0-1.71 1.26 14.11 14.11 0 0 0 0 4.34 1.69 1.69 0 0 0 1.71 1.26 1.88 1.88 0 0 0 1.78-1.23.12.12 0 0 1 .18-.07l1.19.57a.12.12 0 0 1 .07.17 3.35 3.35 0 0 1-3.22 2 3.21 3.21 0 0 1-3.31-2.34 7.38 7.38 0 0 1-.25-2.48zm10.4 2.61a13.74 13.74 0 0 1 0-5.24 3.62 3.62 0 0 1 6.74 0 13.74 13.74 0 0 1 0 5.24 3.62 3.62 0 0 1-6.74 0zm5.14-.43a14.3 14.3 0 0 0 0-4.37 1.88 1.88 0 0 0-3.54 0 14.21 14.21 0 0 0 0 4.37 1.88 1.88 0 0 0 3.54 0zm11.08-.8v-6a.13.13 0 0 1 .11-.13h1.37a.13.13 0 0 1 .14.14v6a3.51 3.51 0 0 1-7 0v-6a.13.13 0 0 1 .14-.14H534a.13.13 0 0 1 .14.14v6a1.86 1.86 0 1 0 3.71 0zm5.79-6.01a.13.13 0 0 1 .14-.14h1.29a.25.25 0 0 1 .24.14l3.88 6.57h.06v-6.57a.13.13 0 0 1 .14-.14h1.22a.13.13 0 0 1 .14.14v9.25a.13.13 0 0 1-.14.14h-1.27a.25.25 0 0 1-.24-.14l-3.89-6.56h-.06v6.56a.13.13 0 0 1-.14.14h-1.22a.13.13 0 0 1-.14-.14zm13.41 9.39a.13.13 0 0 1-.14-.14v-7.82a.07.07 0 0 0-.08-.08h-2.49a.13.13 0 0 1-.14-.14v-1.21a.13.13 0 0 1 .14-.14h6.81a.13.13 0 0 1 .14.14v1.21a.13.13 0 0 1-.14.14h-2.49a.07.07 0 0 0-.08.08v7.82a.13.13 0 0 1-.14.14zm7.69-9.39a.13.13 0 0 1 .14-.14h1.37a.13.13 0 0 1 .14.14v9.25a.13.13 0 0 1-.14.14h-1.37a.13.13 0 0 1-.14-.14zm5.85 0a.13.13 0 0 1 .14-.14h1.29a.25.25 0 0 1 .24.14l3.88 6.57h.06v-6.57a.13.13 0 0 1 .14-.14h1.22a.13.13 0 0 1 .14.14v9.25a.13.13 0 0 1-.14.14h-1.28a.25.25 0 0 1-.24-.14l-3.89-6.56h-.06v6.56a.13.13 0 0 1-.14.14h-1.22a.13.13 0 0 1-.14-.14zm11.02 4.63a7.7 7.7 0 0 1 .25-2.62 3.29 3.29 0 0 1 3.4-2.3 3.36 3.36 0 0 1 3.32 2 .16.16 0 0 1-.06.2l-1.18.52a.15.15 0 0 1-.18-.07 2 2 0 0 0-1.92-1.18 1.73 1.73 0 0 0-1.79 1.25 14.3 14.3 0 0 0 0 4.37 1.73 1.73 0 0 0 1.79 1.25 1.79 1.79 0 0 0 1.82-1.17 3.92 3.92 0 0 0 .15-1.23.07.07 0 0 0-.08-.08h-1.57a.13.13 0 0 1-.14-.14v-1.12a.13.13 0 0 1 .14-.14h3.15a.13.13 0 0 1 .14.14v.83a7.84 7.84 0 0 1-.22 2.09 3.63 3.63 0 0 1-6.77 0 7.7 7.7 0 0 1-.25-2.6z"/><path class="cls-6" d="M260.95 240.77V114.41m201.98 126.36V114.41"/><circle class="cls-3" cx="550.79" cy="492.61" r="13.57"/><circle class="cls-3" cx="576.71" cy="538.24" r="13.57"/><circle class="cls-7" cx="523.15" cy="538.24" r="13.57"/><path class="cls-3" d="M559.21 504.05l12.55 22.19m-29-22.19l-12.55 22.19"/></g></g></svg>