<svg xmlns="http://www.w3.org/2000/svg" viewBox="0 0 380 35"><defs><style>.cls-1{fill:#fff;}.cls-2{fill:#dd1f48;}</style></defs><title>tagline</title><g id="Layer_2" data-name="Layer 2"><g id="Layer_1-2" data-name="Layer 1"><path class="cls-1" d="M0,.83A.37.37,0,0,1,.4.43H17.21a.37.37,0,0,1,.39.39V4.22a.37.37,0,0,1-.39.39H4.89a.21.21,0,0,0-.24.24v6.83a.21.21,0,0,0,.24.24H15.27a.37.37,0,0,1,.39.39V15.7a.37.37,0,0,1-.39.39H4.89a.21.21,0,0,0-.24.24V26.87a.37.37,0,0,1-.39.39H.4a.37.37,0,0,1-.4-.39Z"/><path class="cls-1" d="M21.07,21.23c-.55-1.66-.71-3.16-.71-7.38s.16-5.72.71-7.38C22.45,2.21,25.92,0,30.54,0S38.67,2.21,40,6.47c.55,1.66.71,3.16.71,7.38s-.16,5.72-.71,7.38c-1.38,4.26-4.85,6.47-9.51,6.47S22.45,25.49,21.07,21.23ZM35.55,20c.32-1,.47-2.37.47-6.16s-.16-5.17-.47-6.16a4.86,4.86,0,0,0-5-3.51,4.84,4.84,0,0,0-5,3.51c-.32,1-.47,2.33-.47,6.16s.16,5.17.47,6.16a4.84,4.84,0,0,0,5,3.51A4.86,4.86,0,0,0,35.55,20Z"/><path class="cls-1" d="M44.9.83a.37.37,0,0,1,.4-.39h3.87a.37.37,0,0,1,.39.39V11.4a.21.21,0,0,0,.24.24H60a.21.21,0,0,0,.24-.24V.83a.37.37,0,0,1,.4-.39h3.87a.37.37,0,0,1,.39.39v26a.37.37,0,0,1-.39.39H60.64a.37.37,0,0,1-.4-.39V16.06a.21.21,0,0,0-.24-.24H49.79a.21.21,0,0,0-.24.24V26.87a.37.37,0,0,1-.39.39H45.29a.37.37,0,0,1-.4-.39Z"/><path class="cls-1" d="M118.86.83a.37.37,0,0,1,.4-.39h3.51a.63.63,0,0,1,.67.39l7.38,16.53H131L138.24.83a.63.63,0,0,1,.67-.39h3.47a.37.37,0,0,1,.39.39v26a.37.37,0,0,1-.39.39h-3.43a.37.37,0,0,1-.39-.39V10.46h-.16l-5.68,12.63a.76.76,0,0,1-.75.51h-2.29a.76.76,0,0,1-.75-.51l-5.68-12.63h-.16V26.87a.37.37,0,0,1-.39.39h-3.43a.37.37,0,0,1-.4-.39Z"/><path class="cls-1" d="M147.23,22.45a14,14,0,0,1-.63-4.7,14,14,0,0,1,.63-4.7c1.07-3.31,4-5.25,7.85-5.25s6.75,1.93,7.81,5.25a14.06,14.06,0,0,1,.63,4.7,14.07,14.07,0,0,1-.63,4.7c-1.07,3.31-4,5.25-7.81,5.25S148.3,25.77,147.23,22.45Zm11.4-1.18a10.74,10.74,0,0,0,.39-3.51,10.89,10.89,0,0,0-.39-3.51,3.51,3.51,0,0,0-3.55-2.49,3.56,3.56,0,0,0-3.59,2.49,10.89,10.89,0,0,0-.39,3.51,10.74,10.74,0,0,0,.39,3.51,3.56,3.56,0,0,0,3.59,2.49A3.51,3.51,0,0,0,158.63,21.27Z"/><path class="cls-1" d="M172.4,27.27a.51.51,0,0,1-.51-.39L165.18,8.64c-.08-.24.08-.39.32-.39h3.87a.5.5,0,0,1,.47.39L174,21h.08l4.1-12.35a.5.5,0,0,1,.47-.39h3.79c.24,0,.39.16.32.39l-6.71,18.23a.51.51,0,0,1-.51.39Z"/><path class="cls-1" d="M185.86,4.66a.37.37,0,0,1-.39-.39V.83a.37.37,0,0,1,.39-.39h3.63a.37.37,0,0,1,.39.39V4.26a.37.37,0,0,1-.39.39Zm0,22.61a.37.37,0,0,1-.39-.39V8.64a.37.37,0,0,1,.39-.39h3.63a.37.37,0,0,1,.39.39V26.87a.37.37,0,0,1-.39.39Z"/><path class="cls-1" d="M206.69,27.27a.37.37,0,0,1-.39-.39v-11c0-2.45-1.22-4.14-3.59-4.14s-3.63,1.7-3.63,4.14v11a.37.37,0,0,1-.39.39H195a.37.37,0,0,1-.39-.39V8.64a.37.37,0,0,1,.39-.39h3.63a.37.37,0,0,1,.39.39V10h0a5.88,5.88,0,0,1,5-2.21c4.06,0,6.59,3,6.59,7.06v12a.37.37,0,0,1-.39.39Z"/><path class="cls-1" d="M214.89,32a.35.35,0,0,1,0-.55l2.33-2.33a.37.37,0,0,1,.59,0A5.83,5.83,0,0,0,222,30.86c2.92,0,4.26-1.58,4.26-4.54V24.54h0c-.87,1.34-2.49,2.21-4.93,2.21a6.35,6.35,0,0,1-6.47-4.62,14.48,14.48,0,0,1-.63-4.85,14.24,14.24,0,0,1,.63-4.81,6.34,6.34,0,0,1,6.47-4.66c2.45,0,4.06.87,4.93,2.25h0V8.64a.37.37,0,0,1,.39-.39h3.63a.37.37,0,0,1,.39.39V26.08c0,5.45-3,8.72-8.88,8.72A9.41,9.41,0,0,1,214.89,32ZM225.82,20.4a8.87,8.87,0,0,0,.43-3.12,9.16,9.16,0,0,0-.43-3.12,3.57,3.57,0,0,0-6.75,0,9.13,9.13,0,0,0-.43,3.12,8.84,8.84,0,0,0,.43,3.12,3.55,3.55,0,0,0,6.75,0Z"/><path class="cls-1" d="M244.76,27.27a.37.37,0,0,1-.39-.39v-15a.21.21,0,0,0-.24-.24h-1.26a.37.37,0,0,1-.39-.39V8.64a.37.37,0,0,1,.39-.39h1.26a.21.21,0,0,0,.24-.24V6.79c0-4.42,2.17-6.35,6.31-6.35h1.74a.37.37,0,0,1,.39.39V4a.37.37,0,0,1-.39.39h-1.22c-2,0-2.41.47-2.41,2.33V8a.21.21,0,0,0,.24.24h3.39a.37.37,0,0,1,.39.39v2.64a.37.37,0,0,1-.39.39H249a.21.21,0,0,0-.24.24v15a.37.37,0,0,1-.39.39Z"/><path class="cls-1" d="M255.33,22.45a14,14,0,0,1-.63-4.7,14,14,0,0,1,.63-4.7c1.07-3.31,4-5.25,7.85-5.25s6.75,1.93,7.81,5.25a14.06,14.06,0,0,1,.63,4.7,14.07,14.07,0,0,1-.63,4.7c-1.07,3.31-4,5.25-7.81,5.25S256.4,25.77,255.33,22.45Zm11.4-1.18a10.74,10.74,0,0,0,.39-3.51,10.89,10.89,0,0,0-.39-3.51,3.51,3.51,0,0,0-3.55-2.49,3.56,3.56,0,0,0-3.59,2.49,10.89,10.89,0,0,0-.39,3.51,10.74,10.74,0,0,0,.39,3.51,3.56,3.56,0,0,0,3.59,2.49A3.51,3.51,0,0,0,266.74,21.27Z"/><path class="cls-1" d="M275.77,27.27a.37.37,0,0,1-.39-.39V8.64a.37.37,0,0,1,.39-.39h3.63a.37.37,0,0,1,.39.39v1.62h0a5.45,5.45,0,0,1,4.93-2.45,5.74,5.74,0,0,1,4,1.58c.2.2.24.35.08.55l-2.09,2.64a.36.36,0,0,1-.55.08,5.14,5.14,0,0,0-2.8-.91c-2.49,0-3.59,1.78-3.59,4.81v10.3a.37.37,0,0,1-.39.39Z"/><path class="cls-1" d="M307.26,27.27a.5.5,0,0,1-.47-.39l-3.67-12.15H303l-3.71,12.15a.5.5,0,0,1-.47.39h-3.24a.5.5,0,0,1-.47-.39l-6-18.23a.27.27,0,0,1,.28-.39h3.79a.48.48,0,0,1,.51.39l3.67,12.55h.08L301.1,8.64a.55.55,0,0,1,.51-.39h2.84a.55.55,0,0,1,.51.39l3.87,12.55h.08l3.47-12.55a.48.48,0,0,1,.51-.39h3.79a.27.27,0,0,1,.28.39l-6,18.23a.5.5,0,0,1-.47.39Z"/><path class="cls-1" d="M330.89,27.27a.37.37,0,0,1-.39-.39V25.49h0c-.91,1.3-2.68,2.21-5.37,2.21-3.47,0-6.39-1.81-6.39-5.8,0-4.14,2.92-6,7.62-6h3.87a.21.21,0,0,0,.24-.24v-.91c0-2.17-1-3.16-4.22-3.16a6.67,6.67,0,0,0-4.34,1.3.35.35,0,0,1-.55-.08l-1.46-2.6a.37.37,0,0,1,.08-.51,11.1,11.1,0,0,1,6.75-1.85c5.8,0,7.93,2,7.93,6.63V26.87a.37.37,0,0,1-.39.39Zm-.47-6.39V19.41a.21.21,0,0,0-.24-.24H327c-2.84,0-4.1.79-4.1,2.56,0,1.58,1.14,2.37,3.28,2.37C328.92,24.11,330.42,23,330.42,20.87Z"/><path class="cls-1" d="M339.61,27.27a.37.37,0,0,1-.39-.39V8.64a.37.37,0,0,1,.39-.39h3.63a.37.37,0,0,1,.39.39v1.62h0a5.45,5.45,0,0,1,4.93-2.45,5.74,5.74,0,0,1,4,1.58c.2.2.24.35.08.55l-2.09,2.64a.36.36,0,0,1-.55.08,5.14,5.14,0,0,0-2.8-.91c-2.49,0-3.59,1.78-3.59,4.81v10.3a.37.37,0,0,1-.39.39Z"/><path class="cls-1" d="M366.28,27.27a.37.37,0,0,1-.39-.39V25.45h0c-.91,1.3-2.49,2.25-5.05,2.25-3.24,0-5.6-1.54-6.59-4.58a15.85,15.85,0,0,1-.67-5.37,15.85,15.85,0,0,1,.67-5.37c1-3,3.35-4.58,6.59-4.58,2.56,0,4.14.95,5.05,2.25h0V.83a.37.37,0,0,1,.39-.39h3.63a.37.37,0,0,1,.39.39v26a.37.37,0,0,1-.39.39Zm-.79-6a11.21,11.21,0,0,0,.39-3.55,11.21,11.21,0,0,0-.39-3.55,3.77,3.77,0,0,0-7.06,0,11.24,11.24,0,0,0-.39,3.55,11.24,11.24,0,0,0,.39,3.55,3.77,3.77,0,0,0,7.06,0Z"/><path class="cls-1" d="M374.8,22.85a.37.37,0,0,1,.39-.39h3.95a.37.37,0,0,1,.39.39v4a.37.37,0,0,1-.39.39H375.2a.37.37,0,0,1-.39-.39Z"/><path class="cls-2" d="M83.43,7.43a.42.42,0,0,0,0,.57l5.82,5.82a.4.4,0,0,1,0,.57l-5.82,5.82a.42.42,0,0,0,0,.57l5.82,5.82a.41.41,0,0,0,.57,0L102,14.4a.41.41,0,0,0,0-.57L89.82,1.61a.41.41,0,0,0-.57,0Z"/></g></g></svg>
