<svg xmlns="http://www.w3.org/2000/svg" viewBox="0 0 716.38 372.73" id="test"><defs><style>.cls-1{isolation:isolate}.cls-2{fill:#1c80e5}.cls-3,.cls-4{fill:#dd1f48}.cls-3{mix-blend-mode:multiply}</style></defs><title>underline-text</title><g class="cls-1"><g id="Layer_2" data-name="Layer 2"><g id="Layer_1-2" data-name="Layer 1"><path class="cls-2" d="M18.92.75a1 1 0 0 1 1-.75h6.93a1 1 0 0 1 1 .75l17.3 49.74c.15.45 0 .75-.53.75h-7.39a.91.91 0 0 1-1-.75l-3.39-9.95H13.57l-3.39 9.95a.91.91 0 0 1-1 .75H1.89c-.53 0-.68-.3-.53-.75zm11.23 31.88l-6.78-19.9h-.23l-6.86 19.9zM72 51.25a.71.71 0 0 1-.75-.75v-2.72h-.08c-1.73 2.49-4.75 4.3-9.65 4.3-6.18 0-10.7-2.94-12.59-8.74-.9-2.79-1.28-5.35-1.28-10.25s.38-7.46 1.28-10.25c1.88-5.8 6.41-8.74 12.59-8.74 4.9 0 7.91 1.81 9.65 4.3h.08V.75A.71.71 0 0 1 72 0h7a.71.71 0 0 1 .75.75v49.74a.71.71 0 0 1-.75.75zm-1.46-11.38a21.42 21.42 0 0 0 .75-6.78 21.42 21.42 0 0 0-.75-6.78c-1-3-3.32-4.67-6.78-4.67A6.5 6.5 0 0 0 57 26.3a21.43 21.43 0 0 0-.75 6.78 21.43 21.43 0 0 0 .75 6.79 6.5 6.5 0 0 0 6.71 4.67c3.51 0 5.85-1.66 6.83-4.67zm28.11 11.38a1 1 0 0 1-1-.75l-12.8-34.82c-.15-.45.15-.75.6-.75h7.39a1 1 0 0 1 .9.75l8 23.59h.15l7.84-23.59a1 1 0 0 1 .9-.75h7.24c.45 0 .75.3.6.75l-12.81 34.81a1 1 0 0 1-1 .75zm46.49 0a.71.71 0 0 1-.75-.75v-2.64h-.08c-1.73 2.49-5.12 4.22-10.25 4.22-6.63 0-12.21-3.47-12.21-11.08 0-7.91 5.58-11.53 14.54-11.53h7.39a.4.4 0 0 0 .45-.45v-1.74c0-4.14-2-6-8.06-6-4.07 0-6.56 1.13-8.29 2.49a.68.68 0 0 1-1.06-.15l-2.79-5a.7.7 0 0 1 .15-1c2.94-2.11 6.93-3.54 12.89-3.54 11.08 0 15.15 3.77 15.15 12.66v23.75a.71.71 0 0 1-.75.75zm-.9-12.25v-2.75a.4.4 0 0 0-.45-.45h-6c-5.43 0-7.84 1.51-7.84 4.9 0 3 2.19 4.52 6.25 4.52 5.17 0 8.04-2.04 8.04-6.22zM184 51.25a.71.71 0 0 1-.75-.75v-21c0-4.67-2.34-7.91-6.86-7.91-4.37 0-6.93 3.24-6.93 7.91v21a.71.71 0 0 1-.75.75h-6.93a.71.71 0 0 1-.75-.75V15.68a.71.71 0 0 1 .75-.75h6.93a.71.71 0 0 1 .75.75v2.64h.08c1.58-2.26 4.75-4.22 9.57-4.22 7.76 0 12.58 5.73 12.58 13.49v22.9a.71.71 0 0 1-.75.75zm15.62-9.2a28.54 28.54 0 0 1-1.13-9 28.54 28.54 0 0 1 1.13-9c2.11-6.48 7.69-10 15-10a15.82 15.82 0 0 1 12.59 5.65.73.73 0 0 1-.08 1.06l-4.75 4.14a.68.68 0 0 1-1.06-.15 8.22 8.22 0 0 0-6.71-3.17 6.66 6.66 0 0 0-6.78 4.75 21.37 21.37 0 0 0-.75 6.71 21.87 21.87 0 0 0 .75 6.78 6.69 6.69 0 0 0 6.78 4.67 8.22 8.22 0 0 0 6.71-3.17.68.68 0 0 1 1.06-.08l4.75 4.15c.38.3.3.68.08 1.05a16 16 0 0 1-12.59 5.58c-7.31.06-12.89-3.49-15-9.97zm35.49-33.99a.71.71 0 0 1-.75-.75V.75a.71.71 0 0 1 .75-.75H242a.71.71 0 0 1 .75.75v6.56a.71.71 0 0 1-.75.75zm0 43.18a.71.71 0 0 1-.75-.75V15.68a.71.71 0 0 1 .75-.75H242a.71.71 0 0 1 .75.75v34.81a.71.71 0 0 1-.75.75zm39.79.01a.71.71 0 0 1-.75-.75v-21c0-4.67-2.34-7.91-6.86-7.91-4.37 0-6.93 3.24-6.93 7.91v21a.71.71 0 0 1-.75.75h-6.93a.71.71 0 0 1-.75-.75V15.68a.71.71 0 0 1 .75-.75h6.93a.71.71 0 0 1 .75.75v2.64h.08c1.58-2.26 4.75-4.22 9.57-4.22 7.76 0 12.59 5.73 12.59 13.49v22.9a.71.71 0 0 1-.75.75zm15.68 8.96a.68.68 0 0 1 .08-1.05l4.45-4.45a.71.71 0 0 1 1.13 0 11.15 11.15 0 0 0 7.91 3.39c5.58 0 8.14-3 8.14-8.67V46h-.08c-1.66 2.56-4.75 4.22-9.42 4.22-6.1 0-10.48-3.09-12.36-8.82a27.68 27.68 0 0 1-1.21-9.27 27.2 27.2 0 0 1 1.2-9.13c1.88-5.8 6.26-8.89 12.36-8.89 4.67 0 7.76 1.66 9.42 4.3h.08v-2.73a.71.71 0 0 1 .75-.75H320a.71.71 0 0 1 .75.75V49c0 10.4-5.8 16.66-17 16.66-5.04-.02-10.39-2.13-13.17-5.45zm20.88-22.08a16.91 16.91 0 0 0 .83-6 17.46 17.46 0 0 0-.83-6 6.81 6.81 0 0 0-12.89 0 17.49 17.49 0 0 0-.83 6 16.93 16.93 0 0 0 .83 6 6.78 6.78 0 0 0 12.89 0zm44.9 13.57c-7.31 0-10.1-3.54-10.1-10.63V21.93a.4.4 0 0 0-.45-.45h-2.41a.71.71 0 0 1-.75-.75v-5a.71.71 0 0 1 .75-.75h2.41a.4.4 0 0 0 .45-.45V4.52a.71.71 0 0 1 .75-.75H354a.71.71 0 0 1 .75.75v9.95a.4.4 0 0 0 .45.45h4.8a.71.71 0 0 1 .75.75v5a.71.71 0 0 1-.75.75h-4.82a.4.4 0 0 0-.45.45v18.9c0 2.56 1.05 3.39 3.39 3.39H360a.71.71 0 0 1 .75.75v6a.71.71 0 0 1-.75.75zm34.64-.45a.71.71 0 0 1-.75-.75v-21c0-4.67-2.34-7.91-6.86-7.91-4.37 0-6.93 3.24-6.93 7.91v21a.71.71 0 0 1-.75.75h-6.93a.71.71 0 0 1-.75-.75V.75a.71.71 0 0 1 .75-.75h6.93a.71.71 0 0 1 .75.75v17.56h.08c1.58-2.26 4.75-4.22 9.57-4.22 7.76 0 12.59 5.73 12.59 13.49v22.91a.71.71 0 0 1-.75.75zM406.77 42a28.16 28.16 0 0 1-1.28-8.89 28.93 28.93 0 0 1 1.21-9c2-6.33 7.61-10 14.85-10 7.46 0 12.89 3.84 14.92 10 .83 2.56 1.21 5 1.21 10.93a.73.73 0 0 1-.83.75h-22.39a.4.4 0 0 0-.45.45 8 8 0 0 0 .53 2.79c1.21 3.54 4.07 5.5 8.14 5.5a11 11 0 0 0 8.52-3.47.77.77 0 0 1 1.13-.15l4.45 3.92a.68.68 0 0 1 .08 1.06c-3.09 3.62-8.21 6.18-14.92 6.18-7.7.01-13.13-3.76-15.17-10.07zm21.93-16.05c-1-2.94-3.69-4.67-7.08-4.67s-6.18 1.73-7.16 4.67A9.21 9.21 0 0 0 414 29a.4.4 0 0 0 .45.45h14.24a.4.4 0 0 0 .45-.45 9.21 9.21 0 0 0-.43-3.08zm226.97 16.86a.71.71 0 0 1 .75-.75h7.08a.71.71 0 0 1 .75.75V51a1.86 1.86 0 0 1-.53 1.58l-6.26 6.48a1.42 1.42 0 0 1-1.05.53.71.71 0 0 1-.75-.75zm-465.32 80.38a.71.71 0 0 1 .75-.75h7.08a.71.71 0 0 1 .75.75v8.21a1.86 1.86 0 0 1-.53 1.58l-6.26 6.48a1.42 1.42 0 0 1-1.05.53.71.71 0 0 1-.75-.75zm53.28 8.44a.71.71 0 0 1-.75-.75v-2.64h-.08c-1.73 2.49-5.12 4.22-10.25 4.22-6.63 0-12.21-3.47-12.21-11.08 0-7.91 5.58-11.53 14.54-11.53h7.39a.4.4 0 0 0 .45-.45v-1.73c0-4.14-2-6-8.06-6-4.07 0-6.56 1.13-8.29 2.49a.68.68 0 0 1-1.06-.15l-2.79-5a.7.7 0 0 1 .15-1c2.94-2.11 6.93-3.54 12.89-3.54 11.08 0 15.15 3.77 15.15 12.66v23.74a.71.71 0 0 1-.75.75zm-.9-12.21v-2.79a.4.4 0 0 0-.45-.45h-6c-5.43 0-7.84 1.51-7.84 4.9 0 3 2.19 4.52 6.25 4.52 5.17 0 8.04-2.04 8.04-6.18zm39.78 12.21a.71.71 0 0 1-.75-.75v-21c0-4.67-2.34-7.91-6.86-7.91-4.37 0-6.93 3.24-6.93 7.91v21a.71.71 0 0 1-.75.75h-6.93a.71.71 0 0 1-.75-.75V96.06a.71.71 0 0 1 .75-.75h6.93a.71.71 0 0 1 .75.75v2.64h.03c1.58-2.26 4.75-4.22 9.57-4.22 7.76 0 12.59 5.73 12.59 13.49v22.91a.71.71 0 0 1-.75.75zm38.81 0a.71.71 0 0 1-.75-.75v-2.71h-.08c-1.73 2.49-4.75 4.3-9.65 4.3-6.18 0-10.7-2.94-12.59-8.74-.9-2.79-1.28-5.35-1.28-10.25s.38-7.46 1.28-10.25c1.88-5.8 6.41-8.74 12.59-8.74 4.9 0 7.91 1.81 9.65 4.3h.08V81.13a.71.71 0 0 1 .75-.75h6.93a.71.71 0 0 1 .75.75v49.74a.71.71 0 0 1-.75.75zm-1.51-11.38a21.42 21.42 0 0 0 .75-6.78 21.42 21.42 0 0 0-.75-6.78c-1-3-3.32-4.67-6.78-4.67a6.5 6.5 0 0 0-6.71 4.67 21.43 21.43 0 0 0-.75 6.78 21.43 21.43 0 0 0 .75 6.78 6.5 6.5 0 0 0 6.71 4.67c3.47 0 5.8-1.66 6.78-4.67zM4.75 202.81a33.95 33.95 0 0 1 0-17.94c2-6.33 7.61-10 15-10s12.89 3.69 14.92 10a33.95 33.95 0 0 1 0 17.94c-2 6.33-7.61 10-14.92 10s-12.96-3.67-15-10zm21.78-2.26a20.49 20.49 0 0 0 .75-6.71 20.78 20.78 0 0 0-.75-6.71 6.71 6.71 0 0 0-6.78-4.75 6.8 6.8 0 0 0-6.86 4.75 20.81 20.81 0 0 0-.75 6.71 20.52 20.52 0 0 0 .75 6.71 6.8 6.8 0 0 0 6.86 4.75 6.71 6.71 0 0 0 6.78-4.75zM44.92 212a.71.71 0 0 1-.75-.75v-28.56a.4.4 0 0 0-.45-.45H41.3a.71.71 0 0 1-.75-.75v-5a.71.71 0 0 1 .75-.75h2.41a.4.4 0 0 0 .45-.45v-2.34c0-8.44 4.15-12.13 12.06-12.13h3.32a.71.71 0 0 1 .75.75v6a.71.71 0 0 1-.75.75H57.2c-3.77 0-4.6.9-4.6 4.45v2.49a.4.4 0 0 0 .45.45h6.48a.71.71 0 0 1 .75.75v5a.71.71 0 0 1-.75.75h-6.47a.4.4 0 0 0-.45.45v28.56a.71.71 0 0 1-.75.75zm38.73 0a.71.71 0 0 1-.75-.75v-28.56a.4.4 0 0 0-.45-.45H80a.71.71 0 0 1-.75-.75v-5a.71.71 0 0 1 .75-.75h2.41a.4.4 0 0 0 .45-.45v-2.34c0-8.44 4.15-12.13 12.06-12.13h3.32a.71.71 0 0 1 .75.75v6a.71.71 0 0 1-.75.75h-2.31c-3.77 0-4.6.9-4.6 4.45v2.49a.4.4 0 0 0 .45.45h6.48a.71.71 0 0 1 .75.75v5a.71.71 0 0 1-.75.75h-6.47a.4.4 0 0 0-.45.45v28.56a.71.71 0 0 1-.75.75zm20.27-9.26a28.16 28.16 0 0 1-1.28-8.89 28.93 28.93 0 0 1 1.21-9c2-6.33 7.61-10 14.85-10 7.46 0 12.89 3.84 14.92 10 .83 2.56 1.21 5 1.21 10.93a.73.73 0 0 1-.83.75h-22.39a.4.4 0 0 0-.45.45 8 8 0 0 0 .53 2.79c1.21 3.54 4.07 5.5 8.14 5.5a11 11 0 0 0 8.52-3.47.77.77 0 0 1 1.13-.15l4.45 3.92a.68.68 0 0 1 .08 1.06c-3.09 3.62-8.21 6.18-14.92 6.18-7.71.03-13.09-3.74-15.17-10.07zm21.93-16.05c-1-2.94-3.69-4.67-7.08-4.67s-6.18 1.73-7.16 4.67a9.21 9.21 0 0 0-.45 3.09.4.4 0 0 0 .45.45h14.24a.4.4 0 0 0 .45-.45 9.21 9.21 0 0 0-.45-3.09zM164.36 212a.71.71 0 0 1-.75-.75v-2.71h-.08c-1.73 2.49-4.75 4.3-9.65 4.3-6.18 0-10.7-2.94-12.59-8.74-.9-2.79-1.28-5.35-1.28-10.25s.38-7.46 1.28-10.25c1.88-5.8 6.41-8.74 12.59-8.74 4.9 0 7.91 1.81 9.65 4.3h.08v-17.65a.71.71 0 0 1 .75-.75h6.93a.71.71 0 0 1 .75.75v49.74a.71.71 0 0 1-.75.75zm-1.51-11.38a21.42 21.42 0 0 0 .75-6.78 21.42 21.42 0 0 0-.75-6.78c-1-3-3.32-4.67-6.78-4.67a6.5 6.5 0 0 0-6.71 4.67 21.43 21.43 0 0 0-.75 6.78 21.43 21.43 0 0 0 .75 6.78 6.5 6.5 0 0 0 6.71 4.67c3.46.01 5.8-1.65 6.78-4.66zm17.63 2.12a28.16 28.16 0 0 1-1.28-8.89 28.93 28.93 0 0 1 1.21-9c2-6.33 7.61-10 14.85-10 7.46 0 12.89 3.84 14.92 10 .83 2.56 1.21 5 1.21 10.93a.73.73 0 0 1-.83.75h-22.39a.4.4 0 0 0-.45.45 8 8 0 0 0 .53 2.79c1.21 3.54 4.07 5.5 8.14 5.5a11 11 0 0 0 8.52-3.47.77.77 0 0 1 1.13-.15l4.45 3.92a.68.68 0 0 1 .08 1.06c-3.09 3.62-8.21 6.18-14.92 6.18-7.71.03-13.13-3.74-15.17-10.07zm21.93-16.05c-1-2.94-3.69-4.67-7.08-4.67s-6.18 1.73-7.16 4.67a9.21 9.21 0 0 0-.45 3.09.4.4 0 0 0 .45.45h14.24a.4.4 0 0 0 .45-.45 9.21 9.21 0 0 0-.45-3.09zM219.29 212a.71.71 0 0 1-.75-.75v-34.81a.71.71 0 0 1 .75-.75h6.93a.71.71 0 0 1 .75.75v3.09h.08c1.73-2.79 4.82-4.67 9.42-4.67a11 11 0 0 1 7.61 3c.38.38.45.68.15 1.06l-4 5a.68.68 0 0 1-1.05.15 9.83 9.83 0 0 0-5.35-1.73c-4.75 0-6.86 3.39-6.86 9.19v19.67a.71.71 0 0 1-.75.75zm49.51 0a.71.71 0 0 1-.75-.75v-2.64H268c-1.73 2.49-5.12 4.22-10.25 4.22-6.63 0-12.21-3.47-12.21-11.08 0-7.91 5.58-11.53 14.54-11.53h7.39a.4.4 0 0 0 .45-.45V188c0-4.14-2-6-8.06-6-4.07 0-6.56 1.13-8.29 2.49a.68.68 0 0 1-1.06-.15l-2.79-5a.7.7 0 0 1 .15-1c2.94-2.11 6.93-3.54 12.89-3.54 11.08 0 15.15 3.77 15.15 12.66v23.74a.71.71 0 0 1-.75.75zm-.9-12.21V197a.4.4 0 0 0-.45-.45h-6c-5.43 0-7.84 1.51-7.84 4.9 0 3 2.19 4.52 6.25 4.52 5.14.03 8.04-2.03 8.04-6.17zm26.6 12.67c-7.08 0-9.95-3.39-9.95-10.4v-40.55a.71.71 0 0 1 .75-.75h6.93a.71.71 0 0 1 .75.75v40.09c0 2.49 1 3.32 3.17 3.32h1.66a.71.71 0 0 1 .75.75v6a.71.71 0 0 1-.75.75zm25.5-9.72a28.16 28.16 0 0 1-1.28-8.89 28.93 28.93 0 0 1 1.21-9c2-6.33 7.61-10 14.85-10 7.46 0 12.89 3.84 14.92 10 .83 2.56 1.21 5 1.21 10.93a.73.73 0 0 1-.83.75h-22.43a.4.4 0 0 0-.45.45 8 8 0 0 0 .53 2.79c1.21 3.54 4.07 5.5 8.14 5.5a11 11 0 0 0 8.52-3.47.77.77 0 0 1 1.13-.15l4.48 3.95a.68.68 0 0 1 .08 1.06c-3.09 3.62-8.21 6.18-14.92 6.18-7.74 0-13.16-3.77-15.16-10.1zm21.93-16.05c-1-2.94-3.69-4.67-7.08-4.67s-6.18 1.73-7.16 4.67a9.21 9.21 0 0 0-.45 3.09.4.4 0 0 0 .45.45h14.24a.4.4 0 0 0 .45-.45 9.21 9.21 0 0 0-.49-3.09zM403.24 212a.71.71 0 0 1-.75-.75v-21c0-4.67-2.34-7.91-6.86-7.91-4.37 0-6.93 3.24-6.93 7.91v21a.71.71 0 0 1-.75.75H381a.71.71 0 0 1-.75-.75v-21c0-4.67-2.34-7.91-6.86-7.91-4.37 0-6.93 3.24-6.93 7.91v21a.71.71 0 0 1-.75.75h-6.93a.71.71 0 0 1-.75-.75v-34.81a.71.71 0 0 1 .75-.75h6.93a.71.71 0 0 1 .75.75v2.64h.08c1.58-2.26 4.75-4.22 9.57-4.22a11.69 11.69 0 0 1 9.95 4.82h.08a14.84 14.84 0 0 1 11.61-4.82c8.44 0 13.19 5.73 13.19 13.49v22.91a.71.71 0 0 1-.75.75zm17.17 13.57a.71.71 0 0 1-.75-.75v-48.38a.71.71 0 0 1 .75-.75h6.93a.71.71 0 0 1 .75.75v2.71h.08c1.73-2.49 4.75-4.3 9.65-4.3 6.18 0 10.7 2.94 12.59 8.74.9 2.79 1.28 5.35 1.28 10.25s-.38 7.46-1.28 10.25c-1.88 5.8-6.41 8.74-12.59 8.74-4.9 0-7.91-1.81-9.65-4.3h-.08v16.28a.71.71 0 0 1-.75.75zm21.93-24.95a21.42 21.42 0 0 0 .75-6.78 21.42 21.42 0 0 0-.75-6.78 6.5 6.5 0 0 0-6.71-4.67c-3.47 0-5.8 1.66-6.78 4.67a21.39 21.39 0 0 0-.75 6.78 21.39 21.39 0 0 0 .75 6.78c1 3 3.32 4.67 6.78 4.67a6.5 6.5 0 0 0 6.71-4.66zm26.3 11.84c-7.08 0-9.95-3.39-9.95-10.4v-40.55a.71.71 0 0 1 .75-.75h6.93a.71.71 0 0 1 .75.75v40.09c0 2.49 1 3.32 3.17 3.32H472a.71.71 0 0 1 .75.75v6a.71.71 0 0 1-.75.75zm9.49-9.65a33.95 33.95 0 0 1 0-17.94c2-6.33 7.61-10 15-10s12.89 3.69 14.92 10a33.95 33.95 0 0 1 0 17.94c-2 6.33-7.61 10-14.92 10s-12.96-3.67-15-10zm21.78-2.26a20.49 20.49 0 0 0 .75-6.71 20.78 20.78 0 0 0-.75-6.71 6.71 6.71 0 0 0-6.78-4.75 6.8 6.8 0 0 0-6.86 4.75 20.81 20.81 0 0 0-.75 6.71 20.52 20.52 0 0 0 .75 6.71 6.8 6.8 0 0 0 6.86 4.75 6.71 6.71 0 0 0 6.78-4.75zm17.79 25.02a.71.71 0 0 1-.75-.75v-6a.71.71 0 0 1 .75-.75h1.36c2.86 0 4.29-1.28 5.43-4.3l1.05-3.09-13.26-34.21c-.15-.45.15-.75.6-.75h7.46a1 1 0 0 1 .91.75l8.21 23.74h.15l7.84-23.74a1 1 0 0 1 .9-.75h7.16c.45 0 .75.3.6.75l-13.87 37.83c-3.17 8.59-6.18 11.3-12.21 11.3zm32.1-22.83a28.16 28.16 0 0 1-1.28-8.89 28.93 28.93 0 0 1 1.21-9c2-6.33 7.61-10 14.85-10 7.46 0 12.89 3.84 14.92 10 .83 2.56 1.21 5 1.21 10.93a.73.73 0 0 1-.83.75h-22.4a.4.4 0 0 0-.45.45 8 8 0 0 0 .53 2.79c1.21 3.54 4.07 5.5 8.14 5.5a11 11 0 0 0 8.52-3.47.77.77 0 0 1 1.13-.15l4.45 3.92a.68.68 0 0 1 .08 1.06c-3.09 3.62-8.21 6.18-14.92 6.18-7.7.03-13.13-3.74-15.16-10.07zm21.93-16.05c-1-2.94-3.69-4.67-7.08-4.67s-6.18 1.73-7.16 4.67a9.21 9.21 0 0 0-.45 3.09.4.4 0 0 0 .45.45h14.24a.4.4 0 0 0 .45-.45 9.21 9.21 0 0 0-.45-3.09zm15.44 16.05a28.16 28.16 0 0 1-1.28-8.89 28.93 28.93 0 0 1 1.21-9c2-6.33 7.61-10 14.85-10 7.46 0 12.89 3.84 14.92 10 .83 2.56 1.21 5 1.21 10.93a.73.73 0 0 1-.83.75h-22.39a.4.4 0 0 0-.45.45 8 8 0 0 0 .53 2.79c1.21 3.54 4.07 5.5 8.14 5.5a11 11 0 0 0 8.52-3.47.77.77 0 0 1 1.13-.15l4.45 3.92a.68.68 0 0 1 .08 1.06c-3.09 3.62-8.21 6.18-14.92 6.18-7.71.03-13.13-3.74-15.17-10.07zm21.93-16.05c-1-2.94-3.69-4.67-7.08-4.67s-6.18 1.73-7.16 4.67a9.21 9.21 0 0 0-.45 3.09.4.4 0 0 0 .45.45h14.24a.4.4 0 0 0 .45-.45 9.21 9.21 0 0 0-.45-3.09zm13.9 20.42a.73.73 0 0 1 0-1.06l4.29-4.52a.73.73 0 0 1 1.06 0 16.81 16.81 0 0 0 10.65 4.15c4.45 0 6.71-1.81 6.71-4.3 0-2.19-1.28-3.54-6-4l-3.92-.38c-7.39-.75-11.15-4.52-11.15-10.7 0-7 5-11.46 14.09-11.46a22 22 0 0 1 13.64 4.45.75.75 0 0 1 .15 1.06l-3.69 4.45a.74.74 0 0 1-1.05.15 17.54 17.54 0 0 0-9.5-3c-3.62 0-5.5 1.58-5.5 3.77s1.28 3.39 6 3.84l3.92.38c7.61.75 11.23 4.67 11.23 10.63 0 7.23-5.28 12.28-15.22 12.28a22.52 22.52 0 0 1-15.71-5.74zm37.34-3.54a.71.71 0 0 1 .75-.75h7.54a.71.71 0 0 1 .75.75v7.69a.71.71 0 0 1-.75.75h-7.53a.71.71 0 0 1-.75-.75zM3.32 126.73a.73.73 0 0 1 0-1.06l4.29-4.52a.73.73 0 0 1 1.06 0 16.81 16.81 0 0 0 10.63 4.15c4.45 0 6.71-1.81 6.71-4.3 0-2.19-1.28-3.54-6-4l-3.92-.38c-7.39-.75-11.15-4.52-11.15-10.7 0-7 5-11.46 14.09-11.46a22 22 0 0 1 13.64 4.45.75.75 0 0 1 .15 1.06l-3.69 4.45a.74.74 0 0 1-1.05.15 17.54 17.54 0 0 0-9.5-3c-3.62 0-5.5 1.58-5.5 3.77s1.28 3.39 6 3.84l3.92.38c7.61.75 11.23 4.67 11.23 10.63 0 7.23-5.28 12.28-15.22 12.28a22.52 22.52 0 0 1-15.69-5.74zm59.46 4.9a.71.71 0 0 1-.75-.75v-2.64h-.08c-1.73 2.49-5.12 4.22-10.25 4.22-6.63 0-12.21-3.47-12.21-11.08 0-7.91 5.58-11.53 14.54-11.53h7.39a.4.4 0 0 0 .45-.45v-1.73c0-4.14-2-6-8.06-6-4.07 0-6.56 1.13-8.29 2.49a.68.68 0 0 1-1.06-.15l-2.79-5a.7.7 0 0 1 .15-1c2.94-2.11 6.93-3.54 12.89-3.54 11.08 0 15.15 3.77 15.15 12.66v23.74a.71.71 0 0 1-.75.75zm-.9-12.21v-2.79a.4.4 0 0 0-.45-.45h-6c-5.43 0-7.84 1.51-7.84 4.9 0 3 2.19 4.52 6.25 4.52 5.16 0 8.03-2.04 8.03-6.18zm18.68 12.21a.71.71 0 0 1-.75-.75v-28.57a.4.4 0 0 0-.45-.45h-2.42a.71.71 0 0 1-.75-.75v-5a.71.71 0 0 1 .75-.75h2.41a.4.4 0 0 0 .45-.45v-2.4c0-8.44 4.15-12.13 12.06-12.13h3.32a.71.71 0 0 1 .75.75v6a.71.71 0 0 1-.75.75h-2.34c-3.77 0-4.6.9-4.6 4.45v2.49a.4.4 0 0 0 .45.45h6.48a.71.71 0 0 1 .75.75v5a.71.71 0 0 1-.75.75H88.7a.4.4 0 0 0-.45.45v28.56a.71.71 0 0 1-.75.75zm20.27-9.27a28.16 28.16 0 0 1-1.28-8.89 28.93 28.93 0 0 1 1.21-9c2-6.33 7.61-10 14.85-10 7.46 0 12.89 3.84 14.92 10 .83 2.56 1.21 5 1.21 10.93a.73.73 0 0 1-.83.75h-22.39a.4.4 0 0 0-.45.45 8 8 0 0 0 .53 2.79c1.21 3.54 4.07 5.5 8.14 5.5a11 11 0 0 0 8.52-3.47.77.77 0 0 1 1.13-.15l4.45 3.92a.68.68 0 0 1 .08 1.06c-3.09 3.62-8.21 6.18-14.92 6.18-7.71.03-13.14-3.74-15.17-10.07zm21.93-16.05c-1-2.94-3.69-4.67-7.08-4.67s-6.18 1.73-7.16 4.67a9.21 9.21 0 0 0-.45 3.09.4.4 0 0 0 .45.45h14.24a.4.4 0 0 0 .45-.45 9.21 9.21 0 0 0-.45-3.09zm26.75 25.77c-7.31 0-10.1-3.54-10.1-10.63v-19.14a.4.4 0 0 0-.45-.45h-2.41a.71.71 0 0 1-.75-.75v-5a.71.71 0 0 1 .75-.75H139a.4.4 0 0 0 .45-.45V84.9a.71.71 0 0 1 .75-.75h6.93a.71.71 0 0 1 .75.75v9.95a.4.4 0 0 0 .45.45h4.82a.71.71 0 0 1 .75.75v5a.71.71 0 0 1-.75.75h-4.85a.4.4 0 0 0-.45.45v18.84c0 2.56 1.05 3.39 3.39 3.39h1.88a.71.71 0 0 1 .75.75v6a.71.71 0 0 1-.75.75zm12.96 13.11a.71.71 0 0 1-.75-.75v-6a.71.71 0 0 1 .75-.75h1.36c2.86 0 4.29-1.28 5.43-4.3l1.05-3.09L157 96.06c-.15-.45.15-.75.6-.75h7.46a1 1 0 0 1 .91.75l8.21 23.74h.15l7.84-23.74a1 1 0 0 1 .9-.75h7.16c.45 0 .75.3.6.75L177 133.89c-3.17 8.59-6.18 11.3-12.21 11.3z"/><path class="cls-3" d="M184.43 127.87H0v9.11h184.43v-9.11z"/><path class="cls-2" d="M354.78 145.19a.71.71 0 0 1-.75-.75V96.06a.71.71 0 0 1 .75-.75h6.93a.71.71 0 0 1 .75.75v2.71h.08c1.73-2.49 4.75-4.3 9.65-4.3 6.18 0 10.7 2.94 12.59 8.74.9 2.79 1.28 5.35 1.28 10.25s-.38 7.46-1.28 10.25c-1.88 5.8-6.41 8.74-12.59 8.74-4.9 0-7.91-1.81-9.65-4.3h-.08v16.28a.71.71 0 0 1-.75.75zm21.93-24.95a21.42 21.42 0 0 0 .75-6.78 21.42 21.42 0 0 0-.75-6.78A6.5 6.5 0 0 0 370 102c-3.47 0-5.8 1.66-6.78 4.67a21.39 21.39 0 0 0-.75 6.78 21.39 21.39 0 0 0 .75 6.78c1 3 3.32 4.67 6.78 4.67a6.5 6.5 0 0 0 6.71-4.65zM394 131.63a.71.71 0 0 1-.75-.75V96.06a.71.71 0 0 1 .75-.75h6.93a.71.71 0 0 1 .75.75v3.09h.08c1.73-2.79 4.82-4.67 9.42-4.67a11 11 0 0 1 7.61 3c.38.38.45.68.15 1.06l-4 5a.68.68 0 0 1-1.05.15 9.83 9.83 0 0 0-5.35-1.73c-4.75 0-6.86 3.39-6.86 9.19v19.67a.71.71 0 0 1-.75.75zm27.69-9.2a26.83 26.83 0 0 1-1.21-9 26.83 26.83 0 0 1 1.21-9c2-6.33 7.61-10 15-10s12.89 3.69 14.92 10a26.83 26.83 0 0 1 1.21 9 26.83 26.83 0 0 1-1.21 9c-2 6.33-7.61 10-14.92 10s-12.96-3.67-15-10zm21.78-2.26a20.49 20.49 0 0 0 .75-6.71 20.78 20.78 0 0 0-.75-6.71 6.71 6.71 0 0 0-6.78-4.75 6.8 6.8 0 0 0-6.86 4.75 20.81 20.81 0 0 0-.75 6.71 20.52 20.52 0 0 0 .75 6.71 6.8 6.8 0 0 0 6.86 4.75 6.71 6.71 0 0 0 6.78-4.75zm38.89 11.46a.71.71 0 0 1-.75-.75v-2.71h-.08c-1.73 2.49-4.75 4.3-9.65 4.3-6.18 0-10.7-2.94-12.59-8.74-.9-2.79-1.28-5.35-1.28-10.25s.38-7.46 1.28-10.25c1.88-5.8 6.41-8.74 12.59-8.74 4.9 0 7.91 1.81 9.65 4.3h.08V81.13a.71.71 0 0 1 .75-.75h6.93a.71.71 0 0 1 .75.75v49.74a.71.71 0 0 1-.75.75zm-1.51-11.38a21.42 21.42 0 0 0 .75-6.78 21.42 21.42 0 0 0-.75-6.78c-1-3-3.32-4.67-6.78-4.67a6.5 6.5 0 0 0-6.71 4.67 21.43 21.43 0 0 0-.75 6.78 21.43 21.43 0 0 0 .75 6.78 6.5 6.5 0 0 0 6.71 4.67c3.46 0 5.8-1.66 6.78-4.67zm40.62 11.38a.71.71 0 0 1-.75-.75v-2.64h-.08c-2 2.49-4.82 4.22-9.42 4.22-7.76 0-12.51-5.73-12.51-13.49V96.06a.71.71 0 0 1 .75-.75h6.93a.71.71 0 0 1 .75.75v21c0 4.67 2.19 7.91 6.78 7.91 4.3 0 6.78-3.24 6.78-7.84v-21a.71.71 0 0 1 .75-.75h6.93a.71.71 0 0 1 .75.75v34.82a.71.71 0 0 1-.75.75zm15.97-9.2a28.54 28.54 0 0 1-1.13-9 28.54 28.54 0 0 1 1.13-9c2.11-6.48 7.69-10 15-10a15.82 15.82 0 0 1 12.56 5.7.73.73 0 0 1-.08 1.06l-4.75 4.14a.68.68 0 0 1-1.06-.15 8.22 8.22 0 0 0-6.71-3.17 6.66 6.66 0 0 0-6.78 4.75 21.37 21.37 0 0 0-.75 6.71 21.87 21.87 0 0 0 .75 6.78 6.69 6.69 0 0 0 6.78 4.67 8.22 8.22 0 0 0 6.71-3.17.68.68 0 0 1 1.06-.08l4.75 4.15c.38.3.3.68.08 1.05a16 16 0 0 1-12.59 5.58c-7.28.01-12.86-3.53-14.97-10.02zm45.36 9.65c-7.31 0-10.1-3.54-10.1-10.63v-19.14a.4.4 0 0 0-.45-.45h-2.41a.71.71 0 0 1-.75-.75v-5a.71.71 0 0 1 .75-.75h2.41a.4.4 0 0 0 .45-.45V84.9a.71.71 0 0 1 .75-.75h6.93a.71.71 0 0 1 .75.75v9.95a.4.4 0 0 0 .45.45h4.82a.71.71 0 0 1 .75.75v5a.71.71 0 0 1-.75.75h-4.8a.4.4 0 0 0-.45.45v18.84c0 2.56 1.05 3.39 3.39 3.39h1.88a.71.71 0 0 1 .75.75v6a.71.71 0 0 1-.75.75zm12.44-43.63a.71.71 0 0 1-.75-.75v-6.57a.71.71 0 0 1 .75-.75h6.93a.71.71 0 0 1 .75.75v6.56a.71.71 0 0 1-.75.75zm0 43.18a.71.71 0 0 1-.75-.75V96.06a.71.71 0 0 1 .75-.75h6.93a.71.71 0 0 1 .75.75v34.82a.71.71 0 0 1-.75.75zm26.6 0a1 1 0 0 1-1-.75L608 96.06c-.15-.45.15-.75.6-.75h7.4a1 1 0 0 1 .9.75l8 23.59h.15l7.84-23.59a1 1 0 0 1 .9-.75h7.24c.45 0 .75.3.6.75l-12.81 34.82a1 1 0 0 1-1 .75zm25.69-43.18a.71.71 0 0 1-.75-.75v-6.57a.71.71 0 0 1 .75-.75h6.93a.71.71 0 0 1 .75.75v6.56a.71.71 0 0 1-.75.75zm0 43.18a.71.71 0 0 1-.75-.75V96.06a.71.71 0 0 1 .75-.75h6.93a.71.71 0 0 1 .75.75v34.82a.71.71 0 0 1-.75.75zm27.47.45c-7.31 0-10.1-3.54-10.1-10.63v-19.14a.4.4 0 0 0-.45-.45H662a.71.71 0 0 1-.75-.75v-5a.71.71 0 0 1 .75-.75h2.41a.4.4 0 0 0 .45-.45V84.9a.71.71 0 0 1 .75-.75h6.93a.71.71 0 0 1 .75.75v9.95a.4.4 0 0 0 .45.45h4.82a.71.71 0 0 1 .75.75v5a.71.71 0 0 1-.75.75h-4.82a.4.4 0 0 0-.45.45v18.84c0 2.56 1.05 3.39 3.39 3.39h1.88a.71.71 0 0 1 .75.75v6a.71.71 0 0 1-.75.75zm12.92 13.11a.71.71 0 0 1-.75-.75v-6a.71.71 0 0 1 .75-.75h1.36c2.86 0 4.29-1.28 5.43-4.3l1.05-3.09-13.26-34.24c-.15-.45.15-.75.6-.75h7.46a1 1 0 0 1 .91.75l8.21 23.74h.15l7.84-23.74a1 1 0 0 1 .91-.75h7.16c.45 0 .75.3.6.75l-13.87 37.83c-3.17 8.59-6.18 11.3-12.21 11.3z"/><path class="cls-3" d="M710.24 127.87H348.53v9.11h361.71v-9.11z"/><path class="cls-2" d="M483.71 51.25a.71.71 0 0 1-.75-.75v-21c0-4.67-2.34-7.91-6.86-7.91-4.37 0-6.93 3.24-6.93 7.91v21a.71.71 0 0 1-.75.75h-6.93a.71.71 0 0 1-.75-.75V.75a.71.71 0 0 1 .75-.75h6.93a.71.71 0 0 1 .75.75v17.56h.08c1.58-2.26 4.75-4.22 9.57-4.22 7.76 0 12.58 5.73 12.58 13.49v22.91a.71.71 0 0 1-.75.75zM499.46 42a28.16 28.16 0 0 1-1.28-8.89 28.93 28.93 0 0 1 1.21-9c2-6.33 7.61-10 14.85-10 7.46 0 12.89 3.84 14.92 10 .83 2.56 1.21 5 1.21 10.93a.73.73 0 0 1-.83.75h-22.39a.4.4 0 0 0-.45.45 8 8 0 0 0 .53 2.79c1.21 3.54 4.07 5.5 8.14 5.5a11 11 0 0 0 8.52-3.47.77.77 0 0 1 1.13-.15l4.45 3.92a.68.68 0 0 1 .08 1.06c-3.09 3.62-8.21 6.18-14.92 6.18-7.71.01-13.13-3.76-15.17-10.07zm21.93-16.05c-1-2.94-3.69-4.67-7.08-4.67s-6.18 1.73-7.16 4.67a9.21 9.21 0 0 0-.45 3.05.4.4 0 0 0 .45.45h14.24a.4.4 0 0 0 .45-.45 9.21 9.21 0 0 0-.45-3.08zm37.76 25.3a.71.71 0 0 1-.75-.75v-2.64h-.08c-1.73 2.49-5.12 4.22-10.25 4.22-6.63 0-12.21-3.47-12.21-11.08 0-7.91 5.58-11.53 14.54-11.53h7.39a.4.4 0 0 0 .45-.45v-1.74c0-4.14-2-6-8.06-6-4.07 0-6.56 1.13-8.29 2.49a.68.68 0 0 1-1.06-.15l-2.79-5a.7.7 0 0 1 .15-1c2.94-2.11 6.93-3.54 12.89-3.54 11.08 0 15.15 3.77 15.15 12.66v23.75a.71.71 0 0 1-.75.75zM558.24 39v-2.75a.4.4 0 0 0-.45-.45h-6c-5.43 0-7.84 1.51-7.84 4.9 0 3 2.19 4.52 6.25 4.52 5.18 0 8.04-2.04 8.04-6.22zm26.6 12.7c-7.08 0-9.95-3.39-9.95-10.4V.75a.71.71 0 0 1 .75-.75h6.93a.71.71 0 0 1 .75.75v40.1c0 2.49 1 3.32 3.17 3.32h1.66a.71.71 0 0 1 .75.75v6a.71.71 0 0 1-.75.75zm20.27 0c-7.31 0-10.1-3.54-10.1-10.63V21.93a.4.4 0 0 0-.45-.45h-2.41a.71.71 0 0 1-.75-.75v-5a.71.71 0 0 1 .75-.75h2.41a.4.4 0 0 0 .45-.45V4.52a.71.71 0 0 1 .75-.75h6.93a.71.71 0 0 1 .75.75v9.95a.4.4 0 0 0 .45.45h4.82a.71.71 0 0 1 .75.75v5a.71.71 0 0 1-.75.75h-4.81a.4.4 0 0 0-.45.45v18.9c0 2.56 1.05 3.39 3.39 3.39h1.88a.71.71 0 0 1 .75.75v6a.71.71 0 0 1-.75.75zm34.67-.45a.71.71 0 0 1-.75-.75v-21c0-4.67-2.34-7.91-6.86-7.91-4.37 0-6.93 3.24-6.93 7.91v21a.71.71 0 0 1-.75.75h-6.93a.71.71 0 0 1-.75-.75V.75a.71.71 0 0 1 .75-.75h6.93a.71.71 0 0 1 .75.75v17.56h.08c1.58-2.26 4.75-4.22 9.57-4.22 7.76 0 12.59 5.73 12.59 13.49v22.91a.71.71 0 0 1-.75.75z"/><path class="cls-3" d="M651.96 46.59H457.27v9.11h194.69v-9.11z"/><path class="cls-2" d="M4.71 346.92a.29.29 0 0 1 .3-.3H18a.29.29 0 0 1 .3.3v2.61a.29.29 0 0 1-.3.3H8.48a.16.16 0 0 0-.18.18v5.25a.16.16 0 0 0 .18.18h8a.29.29 0 0 1 .3.3v2.61a.29.29 0 0 1-.3.3h-8a.16.16 0 0 0-.18.18V367a.29.29 0 0 1-.3.3H5a.29.29 0 0 1-.3-.3zm16.22 15.7c-.42-1.28-.55-2.43-.55-5.68s.12-4.4.55-5.68c1.06-3.28 3.73-5 7.29-5s6.26 1.7 7.32 5c.42 1.28.55 2.43.55 5.68s-.12 4.4-.55 5.68c-1.06 3.28-3.74 5-7.32 5s-6.22-1.72-7.29-5zm11.14-.94a16.47 16.47 0 0 0 .36-4.74 16.3 16.3 0 0 0-.36-4.74 3.74 3.74 0 0 0-3.86-2.7 3.73 3.73 0 0 0-3.83 2.7 16.29 16.29 0 0 0-.37 4.74 16.45 16.45 0 0 0 .37 4.74 3.73 3.73 0 0 0 3.83 2.7 3.74 3.74 0 0 0 3.86-2.7zm7.2-14.76a.29.29 0 0 1 .3-.3h3a.29.29 0 0 1 .3.3v8.14a.16.16 0 0 0 .18.18h7.85a.16.16 0 0 0 .18-.18v-8.14a.29.29 0 0 1 .3-.3h3a.29.29 0 0 1 .3.3v20a.29.29 0 0 1-.3.3h-3a.29.29 0 0 1-.3-.3v-8.32a.16.16 0 0 0-.18-.18H43a.16.16 0 0 0-.18.18v8.4a.29.29 0 0 1-.3.3h-3a.29.29 0 0 1-.3-.3zm63.25 2.83v-.09h-5.13a.16.16 0 0 0-.18.18v2.37a.29.29 0 0 1-.3.3h-2.62a.29.29 0 0 1-.3-.3v-5.28a.29.29 0 0 1 .3-.3h11.57a.29.29 0 0 1 .3.3v2.37a1.37 1.37 0 0 1-.09.55L99.25 367c-.09.21-.15.27-.4.27H96c-.18 0-.27-.12-.18-.33zm6.99 7.19c0-4.8.15-5.77.43-6.62.82-2.58 2.79-4 5.86-4s5 1.46 5.89 4c.27.85.42 1.82.42 6.62s-.15 5.77-.42 6.62c-.85 2.58-2.82 4-5.89 4s-5-1.46-5.86-4c-.28-.85-.43-1.82-.43-6.62zm6.29 7.62a2.46 2.46 0 0 0 2.55-1.64c.21-.64.27-1.34.27-6s-.06-5.34-.27-6a2.46 2.46 0 0 0-2.55-1.64 2.42 2.42 0 0 0-2.52 1.64c-.21.64-.27 1.34-.27 6s.06 5.34.27 6a2.42 2.42 0 0 0 2.52 1.65zm16.73 8.17a.29.29 0 0 1-.3-.3V370a.29.29 0 0 1 .3-.3h.55c1.15 0 1.73-.52 2.19-1.73l.42-1.25-5.34-13.79c-.06-.18.06-.3.24-.3h3a.38.38 0 0 1 .36.3l3.31 9.56h.06l3.16-9.56a.38.38 0 0 1 .36-.3h2.88c.18 0 .3.12.24.3l-5.59 15.24c-1.28 3.46-2.49 4.55-4.92 4.55zm12.94-9.2a11.34 11.34 0 0 1-.52-3.58 11.66 11.66 0 0 1 .49-3.61 6.47 6.47 0 0 1 12 0 13.12 13.12 0 0 1 .49 4.4.3.3 0 0 1-.33.3h-9a.16.16 0 0 0-.18.18 3.4 3.4 0 0 0 3.49 3.34 4.41 4.41 0 0 0 3.43-1.4.31.31 0 0 1 .46-.06l1.79 1.58a.27.27 0 0 1 0 .42 7.71 7.71 0 0 1-6 2.49c-3.12.01-5.3-1.51-6.12-4.06zm8.84-6.47a3.13 3.13 0 0 0-5.74 0 3.71 3.71 0 0 0-.18 1.25.16.16 0 0 0 .18.18h5.74a.16.16 0 0 0 .18-.18 3.71 3.71 0 0 0-.19-1.24zm15.21 10.21a.29.29 0 0 1-.3-.3v-1.07c-.7 1-2.07 1.7-4.13 1.7-2.67 0-4.92-1.4-4.92-4.46s2.25-4.65 5.86-4.65h3a.16.16 0 0 0 .18-.18v-.7c0-1.67-.79-2.43-3.25-2.43a5.13 5.13 0 0 0-3.34 1 .27.27 0 0 1-.42-.06l-1.12-2a.28.28 0 0 1 .06-.39 8.54 8.54 0 0 1 5.19-1.43c4.46 0 6.1 1.52 6.1 5.1v9.6a.29.29 0 0 1-.3.3zm-.36-4.92v-1.12a.16.16 0 0 0-.16-.23h-2.43c-2.19 0-3.16.61-3.16 2 0 1.21.88 1.82 2.52 1.82 2.07.02 3.22-.82 3.22-2.47zm7.07 4.92a.29.29 0 0 1-.3-.3v-14a.29.29 0 0 1 .3-.3H179a.29.29 0 0 1 .3.3v1.25a4.19 4.19 0 0 1 3.8-1.88 4.42 4.42 0 0 1 3.07 1.21c.15.15.18.27.06.42l-1.61 2a.27.27 0 0 1-.42.06 4 4 0 0 0-2.16-.7c-1.91 0-2.76 1.37-2.76 3.71V367a.29.29 0 0 1-.3.3zm10.63-1.98a.29.29 0 0 1 0-.42l1.73-1.82a.29.29 0 0 1 .43 0 6.77 6.77 0 0 0 4.28 1.67c1.79 0 2.7-.73 2.7-1.73s-.52-1.43-2.43-1.61l-1.58-.15c-3-.3-4.49-1.82-4.49-4.31 0-2.82 2-4.62 5.68-4.62a8.87 8.87 0 0 1 5.5 1.79.3.3 0 0 1 .06.43l-1.49 1.79a.3.3 0 0 1-.42.06 7.07 7.07 0 0 0-3.83-1.21c-1.46 0-2.22.64-2.22 1.52s.52 1.37 2.4 1.55l1.58.15c3.07.3 4.52 1.88 4.52 4.28 0 2.92-2.12 4.95-6.13 4.95a9.08 9.08 0 0 1-6.29-2.32z"/><path class="cls-4" d="M68.93 352a.32.32 0 0 0 0 .44l4.48 4.48a.31.31 0 0 1 0 .44l-4.48 4.48a.32.32 0 0 0 0 .44l4.48 4.48a.31.31 0 0 0 .44 0l9.4-9.4a.31.31 0 0 0 0-.44l-9.4-9.4a.31.31 0 0 0-.44 0z"/></g></g></g></svg>