<svg xmlns="http://www.w3.org/2000/svg" viewBox="0 0 716.38 372.73" id="test">
    <defs>
        <style>
            .cls-1 {
                isolation: isolate;
            }
            .cls-2 {
                fill: #1c80e5;
            }
            .cls-3,
            .cls-4 {
                fill: #dd1f48;
            }
            .cls-3 {
                mix-blend-mode: multiply;
            }

        </style>
    </defs>
    <title>underline-text</title>
    <g class="cls-1">
        <g id="Layer_2" data-name="Layer 2">
            <g id="Layer_1-2" data-name="Layer 1"><path class="cls-2" d="M18.92.75a1,1,0,0,1,1-.75h6.93a1,1,0,0,1,1,.75L45.15,50.49c.15.45,0,.75-.53.75H37.23a.91.91,0,0,1-1-.75l-3.39-9.95H13.57l-3.39,9.95a.91.91,0,0,1-1,.75H1.89c-.53,0-.68-.3-.53-.75ZM30.15,32.63l-6.78-19.9h-.23l-6.86,19.9Z"/><path
                class="cls-2"
                d="M72,51.25a.71.71,0,0,1-.75-.75V47.78h-.08c-1.73,2.49-4.75,4.3-9.65,4.3-6.18,0-10.7-2.94-12.59-8.74-.9-2.79-1.28-5.35-1.28-10.25s.38-7.46,1.28-10.25c1.88-5.8,6.41-8.74,12.59-8.74,4.9,0,7.91,1.81,9.65,4.3h.08V.75A.71.71,0,0,1,72,0H79a.71.71,0,0,1,.75.75V50.49a.71.71,0,0,1-.75.75ZM70.54,39.87a21.42,21.42,0,0,0,.75-6.78,21.42,21.42,0,0,0-.75-6.78c-1-3-3.32-4.67-6.78-4.67A6.5,6.5,0,0,0,57,26.3a21.43,21.43,0,0,0-.75,6.78A21.43,21.43,0,0,0,57,39.87a6.5,6.5,0,0,0,6.71,4.67C67.22,44.54,69.56,42.88,70.54,39.87Z"/><path class="cls-2" d="M98.65,51.25a1,1,0,0,1-1-.75L84.85,15.68c-.15-.45.15-.75.6-.75h7.39a1,1,0,0,1,.9.75l8,23.59h.15l7.84-23.59a1,1,0,0,1,.9-.75h7.24c.45,0,.75.3.6.75L105.66,50.49a1,1,0,0,1-1,.75Z"/><path
                class="cls-2"
                d="M145.14,51.25a.71.71,0,0,1-.75-.75V47.86h-.08c-1.73,2.49-5.12,4.22-10.25,4.22-6.63,0-12.21-3.47-12.21-11.08,0-7.91,5.58-11.53,14.54-11.53h7.39a.4.4,0,0,0,.45-.45V27.28c0-4.14-2-6-8.06-6-4.07,0-6.56,1.13-8.29,2.49a.68.68,0,0,1-1.06-.15l-2.79-5a.7.7,0,0,1,.15-1c2.94-2.11,6.93-3.54,12.89-3.54,11.08,0,15.15,3.77,15.15,12.66V50.49a.71.71,0,0,1-.75.75ZM144.24,39V36.25a.4.4,0,0,0-.45-.45h-6c-5.43,0-7.84,1.51-7.84,4.9,0,3,2.19,4.52,6.25,4.52C141.37,45.22,144.24,43.18,144.24,39Z"/><path
                class="cls-2"
                d="M184,51.25a.71.71,0,0,1-.75-.75v-21c0-4.67-2.34-7.91-6.86-7.91-4.37,0-6.93,3.24-6.93,7.91v21a.71.71,0,0,1-.75.75h-6.93a.71.71,0,0,1-.75-.75V15.68a.71.71,0,0,1,.75-.75h6.93a.71.71,0,0,1,.75.75v2.64h.08c1.58-2.26,4.75-4.22,9.57-4.22,7.76,0,12.58,5.73,12.58,13.49V50.49a.71.71,0,0,1-.75.75Z"/><path
                class="cls-2"
                d="M199.62,42.05a28.54,28.54,0,0,1-1.13-9,28.54,28.54,0,0,1,1.13-9c2.11-6.48,7.69-10,15-10a15.82,15.82,0,0,1,12.59,5.65.73.73,0,0,1-.08,1.06l-4.75,4.14a.68.68,0,0,1-1.06-.15,8.22,8.22,0,0,0-6.71-3.17,6.66,6.66,0,0,0-6.78,4.75,21.37,21.37,0,0,0-.75,6.71,21.87,21.87,0,0,0,.75,6.78,6.69,6.69,0,0,0,6.78,4.67,8.22,8.22,0,0,0,6.71-3.17.68.68,0,0,1,1.06-.08l4.75,4.15c.38.3.3.68.08,1.05a16,16,0,0,1-12.59,5.58C207.31,52.08,201.73,48.53,199.62,42.05Z"/><path class="cls-2" d="M235.11,8.06a.71.71,0,0,1-.75-.75V.75a.71.71,0,0,1,.75-.75H242a.71.71,0,0,1,.75.75V7.31a.71.71,0,0,1-.75.75Zm0,43.18a.71.71,0,0,1-.75-.75V15.68a.71.71,0,0,1,.75-.75H242a.71.71,0,0,1,.75.75V50.49a.71.71,0,0,1-.75.75Z"/><path
                class="cls-2"
                d="M274.9,51.25a.71.71,0,0,1-.75-.75v-21c0-4.67-2.34-7.91-6.86-7.91-4.37,0-6.93,3.24-6.93,7.91v21a.71.71,0,0,1-.75.75h-6.93a.71.71,0,0,1-.75-.75V15.68a.71.71,0,0,1,.75-.75h6.93a.71.71,0,0,1,.75.75v2.64h.08c1.58-2.26,4.75-4.22,9.57-4.22,7.76,0,12.59,5.73,12.59,13.49V50.49a.71.71,0,0,1-.75.75Z"/><path
                class="cls-2"
                d="M290.58,60.21a.68.68,0,0,1,.08-1.05l4.45-4.45a.71.71,0,0,1,1.13,0,11.15,11.15,0,0,0,7.91,3.39c5.58,0,8.14-3,8.14-8.67V46h-.08c-1.66,2.56-4.75,4.22-9.42,4.22-6.1,0-10.48-3.09-12.36-8.82a27.68,27.68,0,0,1-1.21-9.27A27.2,27.2,0,0,1,290.42,23c1.88-5.8,6.26-8.89,12.36-8.89,4.67,0,7.76,1.66,9.42,4.3h.08V15.68a.71.71,0,0,1,.75-.75H320a.71.71,0,0,1,.75.75V49c0,10.4-5.8,16.66-17,16.66C298.71,65.64,293.36,63.53,290.58,60.21Zm20.88-22.08a16.91,16.91,0,0,0,.83-6,17.46,17.46,0,0,0-.83-6,6.81,6.81,0,0,0-12.89,0,17.49,17.49,0,0,0-.83,6,16.93,16.93,0,0,0,.83,6,6.78,6.78,0,0,0,12.89,0Z"/><path
                class="cls-2"
                d="M356.36,51.7c-7.31,0-10.1-3.54-10.1-10.63V21.93a.4.4,0,0,0-.45-.45H343.4a.71.71,0,0,1-.75-.75v-5a.71.71,0,0,1,.75-.75h2.41a.4.4,0,0,0,.45-.45V4.52a.71.71,0,0,1,.75-.75H354a.71.71,0,0,1,.75.75v9.95a.4.4,0,0,0,.45.45H360a.71.71,0,0,1,.75.75v5a.71.71,0,0,1-.75.75h-4.82a.4.4,0,0,0-.45.45V40.77c0,2.56,1.05,3.39,3.39,3.39H360a.71.71,0,0,1,.75.75v6a.71.71,0,0,1-.75.75Z"/><path
                class="cls-2"
                d="M391,51.25a.71.71,0,0,1-.75-.75v-21c0-4.67-2.34-7.91-6.86-7.91-4.37,0-6.93,3.24-6.93,7.91v21a.71.71,0,0,1-.75.75h-6.93a.71.71,0,0,1-.75-.75V.75a.71.71,0,0,1,.75-.75h6.93a.71.71,0,0,1,.75.75V18.31h.08c1.58-2.26,4.75-4.22,9.57-4.22,7.76,0,12.59,5.73,12.59,13.49V50.49a.71.71,0,0,1-.75.75Z"/><path
                class="cls-2"
                d="M406.77,42a28.16,28.16,0,0,1-1.28-8.89,28.93,28.93,0,0,1,1.21-9c2-6.33,7.61-10,14.85-10,7.46,0,12.89,3.84,14.92,10,.83,2.56,1.21,5,1.21,10.93a.73.73,0,0,1-.83.75H414.46a.4.4,0,0,0-.45.45,8,8,0,0,0,.53,2.79c1.21,3.54,4.07,5.5,8.14,5.5a11,11,0,0,0,8.52-3.47.77.77,0,0,1,1.13-.15l4.45,3.92a.68.68,0,0,1,.08,1.06c-3.09,3.62-8.21,6.18-14.92,6.18C414.24,52.08,408.81,48.31,406.77,42Zm21.93-16.05c-1-2.94-3.69-4.67-7.08-4.67s-6.18,1.73-7.16,4.67A9.21,9.21,0,0,0,414,29a.4.4,0,0,0,.45.45h14.24a.4.4,0,0,0,.45-.45A9.21,9.21,0,0,0,428.71,25.92Z"/><path class="cls-2" d="M655.67,42.81a.71.71,0,0,1,.75-.75h7.08a.71.71,0,0,1,.75.75V51a1.86,1.86,0,0,1-.53,1.58l-6.26,6.48a1.42,1.42,0,0,1-1.05.53.71.71,0,0,1-.75-.75Z"/><path class="cls-2" d="M190.35,123.19a.71.71,0,0,1,.75-.75h7.08a.71.71,0,0,1,.75.75v8.21a1.86,1.86,0,0,1-.53,1.58l-6.26,6.48a1.42,1.42,0,0,1-1.05.53.71.71,0,0,1-.75-.75Z"/><path
                class="cls-2"
                d="M243.63,131.63a.71.71,0,0,1-.75-.75v-2.64h-.08c-1.73,2.49-5.12,4.22-10.25,4.22-6.63,0-12.21-3.47-12.21-11.08,0-7.91,5.58-11.53,14.54-11.53h7.39a.4.4,0,0,0,.45-.45v-1.73c0-4.14-2-6-8.06-6-4.07,0-6.56,1.13-8.29,2.49a.68.68,0,0,1-1.06-.15l-2.79-5a.7.7,0,0,1,.15-1c2.94-2.11,6.93-3.54,12.89-3.54,11.08,0,15.15,3.77,15.15,12.66v23.74a.71.71,0,0,1-.75.75Zm-.9-12.21v-2.79a.4.4,0,0,0-.45-.45h-6c-5.43,0-7.84,1.51-7.84,4.9,0,3,2.19,4.52,6.25,4.52C239.86,125.6,242.73,123.56,242.73,119.42Z"/><path
                class="cls-2"
                d="M282.51,131.63a.71.71,0,0,1-.75-.75v-21c0-4.67-2.34-7.91-6.86-7.91-4.37,0-6.93,3.24-6.93,7.91v21a.71.71,0,0,1-.75.75h-6.93a.71.71,0,0,1-.75-.75V96.06a.71.71,0,0,1,.75-.75h6.93a.71.71,0,0,1,.75.75v2.64H268c1.58-2.26,4.75-4.22,9.57-4.22,7.76,0,12.59,5.73,12.59,13.49v22.91a.71.71,0,0,1-.75.75Z"/><path
                class="cls-2"
                d="M321.32,131.63a.71.71,0,0,1-.75-.75v-2.71h-.08c-1.73,2.49-4.75,4.3-9.65,4.3-6.18,0-10.7-2.94-12.59-8.74-.9-2.79-1.28-5.35-1.28-10.25s.38-7.46,1.28-10.25c1.88-5.8,6.41-8.74,12.59-8.74,4.9,0,7.91,1.81,9.65,4.3h.08V81.13a.71.71,0,0,1,.75-.75h6.93a.71.71,0,0,1,.75.75v49.74a.71.71,0,0,1-.75.75Zm-1.51-11.38a21.42,21.42,0,0,0,.75-6.78,21.42,21.42,0,0,0-.75-6.78c-1-3-3.32-4.67-6.78-4.67a6.5,6.5,0,0,0-6.71,4.67,21.43,21.43,0,0,0-.75,6.78,21.43,21.43,0,0,0,.75,6.78,6.5,6.5,0,0,0,6.71,4.67C316.5,124.92,318.83,123.26,319.81,120.25Z"/><path
                class="cls-2"
                d="M4.75,202.81a33.95,33.95,0,0,1,0-17.94c2-6.33,7.61-10,15-10s12.89,3.69,14.92,10a33.95,33.95,0,0,1,0,17.94c-2,6.33-7.61,10-14.92,10S6.79,209.14,4.75,202.81Zm21.78-2.26a20.49,20.49,0,0,0,.75-6.71,20.78,20.78,0,0,0-.75-6.71,6.71,6.71,0,0,0-6.78-4.75,6.8,6.8,0,0,0-6.86,4.75,20.81,20.81,0,0,0-.75,6.71,20.52,20.52,0,0,0,.75,6.71,6.8,6.8,0,0,0,6.86,4.75A6.71,6.71,0,0,0,26.53,200.55Z"/><path
                class="cls-2"
                d="M44.92,212a.71.71,0,0,1-.75-.75V182.69a.4.4,0,0,0-.45-.45H41.3a.71.71,0,0,1-.75-.75v-5a.71.71,0,0,1,.75-.75h2.41a.4.4,0,0,0,.45-.45v-2.34c0-8.44,4.15-12.13,12.06-12.13h3.32a.71.71,0,0,1,.75.75v6a.71.71,0,0,1-.75.75H57.2c-3.77,0-4.6.9-4.6,4.45v2.49a.4.4,0,0,0,.45.45h6.48a.71.71,0,0,1,.75.75v5a.71.71,0,0,1-.75.75H53.06a.4.4,0,0,0-.45.45v28.56a.71.71,0,0,1-.75.75Z"/><path
                class="cls-2"
                d="M83.65,212a.71.71,0,0,1-.75-.75V182.69a.4.4,0,0,0-.45-.45H80a.71.71,0,0,1-.75-.75v-5a.71.71,0,0,1,.75-.75h2.41a.4.4,0,0,0,.45-.45v-2.34c0-8.44,4.15-12.13,12.06-12.13h3.32a.71.71,0,0,1,.75.75v6a.71.71,0,0,1-.75.75H95.93c-3.77,0-4.6.9-4.6,4.45v2.49a.4.4,0,0,0,.45.45h6.48a.71.71,0,0,1,.75.75v5a.71.71,0,0,1-.75.75H91.79a.4.4,0,0,0-.45.45v28.56a.71.71,0,0,1-.75.75Z"/><path
                class="cls-2"
                d="M103.92,202.74a28.16,28.16,0,0,1-1.28-8.89,28.93,28.93,0,0,1,1.21-9c2-6.33,7.61-10,14.85-10,7.46,0,12.89,3.84,14.92,10,.83,2.56,1.21,5,1.21,10.93a.73.73,0,0,1-.83.75H111.61a.4.4,0,0,0-.45.45,8,8,0,0,0,.53,2.79c1.21,3.54,4.07,5.5,8.14,5.5a11,11,0,0,0,8.52-3.47.77.77,0,0,1,1.13-.15l4.45,3.92a.68.68,0,0,1,.08,1.06c-3.09,3.62-8.21,6.18-14.92,6.18C111.38,212.84,106,209.07,103.92,202.74Zm21.93-16.05c-1-2.94-3.69-4.67-7.08-4.67s-6.18,1.73-7.16,4.67a9.21,9.21,0,0,0-.45,3.09.4.4,0,0,0,.45.45h14.24a.4.4,0,0,0,.45-.45A9.21,9.21,0,0,0,125.85,186.69Z"/><path
                class="cls-2"
                d="M164.36,212a.71.71,0,0,1-.75-.75v-2.71h-.08c-1.73,2.49-4.75,4.3-9.65,4.3-6.18,0-10.7-2.94-12.59-8.74-.9-2.79-1.28-5.35-1.28-10.25s.38-7.46,1.28-10.25c1.88-5.8,6.41-8.74,12.59-8.74,4.9,0,7.91,1.81,9.65,4.3h.08V161.51a.71.71,0,0,1,.75-.75h6.93a.71.71,0,0,1,.75.75v49.74a.71.71,0,0,1-.75.75Zm-1.51-11.38a21.42,21.42,0,0,0,.75-6.78,21.42,21.42,0,0,0-.75-6.78c-1-3-3.32-4.67-6.78-4.67a6.5,6.5,0,0,0-6.71,4.67,21.43,21.43,0,0,0-.75,6.78,21.43,21.43,0,0,0,.75,6.78,6.5,6.5,0,0,0,6.71,4.67C159.53,205.3,161.87,203.64,162.85,200.63Z"/><path
                class="cls-2"
                d="M180.48,202.74a28.16,28.16,0,0,1-1.28-8.89,28.93,28.93,0,0,1,1.21-9c2-6.33,7.61-10,14.85-10,7.46,0,12.89,3.84,14.92,10,.83,2.56,1.21,5,1.21,10.93a.73.73,0,0,1-.83.75H188.17a.4.4,0,0,0-.45.45,8,8,0,0,0,.53,2.79c1.21,3.54,4.07,5.5,8.14,5.5a11,11,0,0,0,8.52-3.47.77.77,0,0,1,1.13-.15l4.45,3.92a.68.68,0,0,1,.08,1.06c-3.09,3.62-8.21,6.18-14.92,6.18C187.94,212.84,182.52,209.07,180.48,202.74Zm21.93-16.05c-1-2.94-3.69-4.67-7.08-4.67s-6.18,1.73-7.16,4.67a9.21,9.21,0,0,0-.45,3.09.4.4,0,0,0,.45.45h14.24a.4.4,0,0,0,.45-.45A9.21,9.21,0,0,0,202.41,186.69Z"/><path
                class="cls-2"
                d="M219.29,212a.71.71,0,0,1-.75-.75V176.44a.71.71,0,0,1,.75-.75h6.93a.71.71,0,0,1,.75.75v3.09h.08c1.73-2.79,4.82-4.67,9.42-4.67a11,11,0,0,1,7.61,3c.38.38.45.68.15,1.06l-4,5a.68.68,0,0,1-1.05.15,9.83,9.83,0,0,0-5.35-1.73c-4.75,0-6.86,3.39-6.86,9.19v19.67a.71.71,0,0,1-.75.75Z"/><path
                class="cls-2"
                d="M268.8,212a.71.71,0,0,1-.75-.75v-2.64H268c-1.73,2.49-5.12,4.22-10.25,4.22-6.63,0-12.21-3.47-12.21-11.08,0-7.91,5.58-11.53,14.54-11.53h7.39a.4.4,0,0,0,.45-.45V188c0-4.14-2-6-8.06-6-4.07,0-6.56,1.13-8.29,2.49a.68.68,0,0,1-1.06-.15l-2.79-5a.7.7,0,0,1,.15-1c2.94-2.11,6.93-3.54,12.89-3.54,11.08,0,15.15,3.77,15.15,12.66v23.74a.71.71,0,0,1-.75.75Zm-.9-12.21V197a.4.4,0,0,0-.45-.45h-6c-5.43,0-7.84,1.51-7.84,4.9,0,3,2.19,4.52,6.25,4.52C265,206,267.9,203.94,267.9,199.8Z"/><path class="cls-2" d="M294.5,212.46c-7.08,0-9.95-3.39-9.95-10.4V161.51a.71.71,0,0,1,.75-.75h6.93a.71.71,0,0,1,.75.75v40.09c0,2.49,1,3.32,3.17,3.32h1.66a.71.71,0,0,1,.75.75v6a.71.71,0,0,1-.75.75Z"/><path
                class="cls-2"
                d="M320,202.74a28.16,28.16,0,0,1-1.28-8.89,28.93,28.93,0,0,1,1.21-9c2-6.33,7.61-10,14.85-10,7.46,0,12.89,3.84,14.92,10,.83,2.56,1.21,5,1.21,10.93a.73.73,0,0,1-.83.75H327.65a.4.4,0,0,0-.45.45,8,8,0,0,0,.53,2.79c1.21,3.54,4.07,5.5,8.14,5.5a11,11,0,0,0,8.52-3.47.77.77,0,0,1,1.13-.15L350,205.6a.68.68,0,0,1,.08,1.06c-3.09,3.62-8.21,6.18-14.92,6.18C327.42,212.84,322,209.07,320,202.74Zm21.93-16.05c-1-2.94-3.69-4.67-7.08-4.67s-6.18,1.73-7.16,4.67a9.21,9.21,0,0,0-.45,3.09.4.4,0,0,0,.45.45h14.24a.4.4,0,0,0,.45-.45A9.21,9.21,0,0,0,341.89,186.69Z"/><path
                class="cls-2"
                d="M403.24,212a.71.71,0,0,1-.75-.75v-21c0-4.67-2.34-7.91-6.86-7.91-4.37,0-6.93,3.24-6.93,7.91v21a.71.71,0,0,1-.75.75H381a.71.71,0,0,1-.75-.75v-21c0-4.67-2.34-7.91-6.86-7.91-4.37,0-6.93,3.24-6.93,7.91v21a.71.71,0,0,1-.75.75h-6.93a.71.71,0,0,1-.75-.75V176.44a.71.71,0,0,1,.75-.75h6.93a.71.71,0,0,1,.75.75v2.64h.08c1.58-2.26,4.75-4.22,9.57-4.22a11.69,11.69,0,0,1,9.95,4.82h.08a14.84,14.84,0,0,1,11.61-4.82c8.44,0,13.19,5.73,13.19,13.49v22.91a.71.71,0,0,1-.75.75Z"/><path
                class="cls-2"
                d="M420.41,225.57a.71.71,0,0,1-.75-.75V176.44a.71.71,0,0,1,.75-.75h6.93a.71.71,0,0,1,.75.75v2.71h.08c1.73-2.49,4.75-4.3,9.65-4.3,6.18,0,10.7,2.94,12.59,8.74.9,2.79,1.28,5.35,1.28,10.25s-.38,7.46-1.28,10.25c-1.88,5.8-6.41,8.74-12.59,8.74-4.9,0-7.91-1.81-9.65-4.3h-.08v16.28a.71.71,0,0,1-.75.75Zm21.93-24.95a21.42,21.42,0,0,0,.75-6.78,21.42,21.42,0,0,0-.75-6.78,6.5,6.5,0,0,0-6.71-4.67c-3.47,0-5.8,1.66-6.78,4.67a21.39,21.39,0,0,0-.75,6.78,21.39,21.39,0,0,0,.75,6.78c1,3,3.32,4.67,6.78,4.67A6.5,6.5,0,0,0,442.34,200.63Z"/><path class="cls-2" d="M468.64,212.46c-7.08,0-9.95-3.39-9.95-10.4V161.51a.71.71,0,0,1,.75-.75h6.93a.71.71,0,0,1,.75.75v40.09c0,2.49,1,3.32,3.17,3.32H472a.71.71,0,0,1,.75.75v6a.71.71,0,0,1-.75.75Z"/><path
                class="cls-2"
                d="M478.13,202.81a33.95,33.95,0,0,1,0-17.94c2-6.33,7.61-10,15-10s12.89,3.69,14.92,10a33.95,33.95,0,0,1,0,17.94c-2,6.33-7.61,10-14.92,10S480.17,209.14,478.13,202.81Zm21.78-2.26a20.49,20.49,0,0,0,.75-6.71,20.78,20.78,0,0,0-.75-6.71,6.71,6.71,0,0,0-6.78-4.75,6.8,6.8,0,0,0-6.86,4.75,20.81,20.81,0,0,0-.75,6.71,20.52,20.52,0,0,0,.75,6.71,6.8,6.8,0,0,0,6.86,4.75A6.71,6.71,0,0,0,499.91,200.55Z"/><path
                class="cls-2"
                d="M517.7,225.57a.71.71,0,0,1-.75-.75v-6a.71.71,0,0,1,.75-.75h1.36c2.86,0,4.29-1.28,5.43-4.3l1.05-3.09-13.26-34.21c-.15-.45.15-.75.6-.75h7.46a1,1,0,0,1,.91.75l8.21,23.74h.15l7.84-23.74a1,1,0,0,1,.9-.75h7.16c.45,0,.75.3.6.75l-13.87,37.83c-3.17,8.59-6.18,11.3-12.21,11.3Z"/><path
                class="cls-2"
                d="M549.8,202.74a28.16,28.16,0,0,1-1.28-8.89,28.93,28.93,0,0,1,1.21-9c2-6.33,7.61-10,14.85-10,7.46,0,12.89,3.84,14.92,10,.83,2.56,1.21,5,1.21,10.93a.73.73,0,0,1-.83.75H557.48a.4.4,0,0,0-.45.45,8,8,0,0,0,.53,2.79c1.21,3.54,4.07,5.5,8.14,5.5a11,11,0,0,0,8.52-3.47.77.77,0,0,1,1.13-.15l4.45,3.92a.68.68,0,0,1,.08,1.06c-3.09,3.62-8.21,6.18-14.92,6.18C557.26,212.84,551.83,209.07,549.8,202.74Zm21.93-16.05c-1-2.94-3.69-4.67-7.08-4.67s-6.18,1.73-7.16,4.67a9.21,9.21,0,0,0-.45,3.09.4.4,0,0,0,.45.45h14.24a.4.4,0,0,0,.45-.45A9.21,9.21,0,0,0,571.73,186.69Z"/><path
                class="cls-2"
                d="M587.17,202.74a28.16,28.16,0,0,1-1.28-8.89,28.93,28.93,0,0,1,1.21-9c2-6.33,7.61-10,14.85-10,7.46,0,12.89,3.84,14.92,10,.83,2.56,1.21,5,1.21,10.93a.73.73,0,0,1-.83.75H594.86a.4.4,0,0,0-.45.45,8,8,0,0,0,.53,2.79c1.21,3.54,4.07,5.5,8.14,5.5a11,11,0,0,0,8.52-3.47.77.77,0,0,1,1.13-.15l4.45,3.92a.68.68,0,0,1,.08,1.06c-3.09,3.62-8.21,6.18-14.92,6.18C594.63,212.84,589.21,209.07,587.17,202.74Zm21.93-16.05c-1-2.94-3.69-4.67-7.08-4.67s-6.18,1.73-7.16,4.67a9.21,9.21,0,0,0-.45,3.09.4.4,0,0,0,.45.45H609.1a.4.4,0,0,0,.45-.45A9.21,9.21,0,0,0,609.1,186.69Z"/><path
                class="cls-2"
                d="M623,207.11a.73.73,0,0,1,0-1.06l4.29-4.52a.73.73,0,0,1,1.06,0A16.81,16.81,0,0,0,639,205.68c4.45,0,6.71-1.81,6.71-4.3,0-2.19-1.28-3.54-6-4l-3.92-.38c-7.39-.75-11.15-4.52-11.15-10.7,0-7,5-11.46,14.09-11.46a22,22,0,0,1,13.64,4.45.75.75,0,0,1,.15,1.06l-3.69,4.45a.74.74,0,0,1-1.05.15,17.54,17.54,0,0,0-9.5-3c-3.62,0-5.5,1.58-5.5,3.77s1.28,3.39,6,3.84l3.92.38c7.61.75,11.23,4.67,11.23,10.63,0,7.23-5.28,12.28-15.22,12.28A22.52,22.52,0,0,1,623,207.11Z"/><path class="cls-2" d="M660.34,203.57a.71.71,0,0,1,.75-.75h7.54a.71.71,0,0,1,.75.75v7.69a.71.71,0,0,1-.75.75H661.1a.71.71,0,0,1-.75-.75Z"/><path
                class="cls-2"
                d="M3.32,126.73a.73.73,0,0,1,0-1.06l4.29-4.52a.73.73,0,0,1,1.06,0A16.81,16.81,0,0,0,19.3,125.3c4.45,0,6.71-1.81,6.71-4.3,0-2.19-1.28-3.54-6-4l-3.92-.38c-7.39-.75-11.15-4.52-11.15-10.7,0-7,5-11.46,14.09-11.46a22,22,0,0,1,13.64,4.45.75.75,0,0,1,.15,1.06l-3.69,4.45a.74.74,0,0,1-1.05.15,17.54,17.54,0,0,0-9.5-3c-3.62,0-5.5,1.58-5.5,3.77s1.28,3.39,6,3.84l3.92.38c7.61.75,11.23,4.67,11.23,10.63,0,7.23-5.28,12.28-15.22,12.28A22.52,22.52,0,0,1,3.32,126.73Z"/><path
                class="cls-2"
                d="M62.78,131.63a.71.71,0,0,1-.75-.75v-2.64h-.08c-1.73,2.49-5.12,4.22-10.25,4.22-6.63,0-12.21-3.47-12.21-11.08,0-7.91,5.58-11.53,14.54-11.53h7.39a.4.4,0,0,0,.45-.45v-1.73c0-4.14-2-6-8.06-6-4.07,0-6.56,1.13-8.29,2.49a.68.68,0,0,1-1.06-.15l-2.79-5a.7.7,0,0,1,.15-1c2.94-2.11,6.93-3.54,12.89-3.54,11.08,0,15.15,3.77,15.15,12.66v23.74a.71.71,0,0,1-.75.75Zm-.9-12.21v-2.79a.4.4,0,0,0-.45-.45h-6c-5.43,0-7.84,1.51-7.84,4.9,0,3,2.19,4.52,6.25,4.52C59,125.6,61.87,123.56,61.87,119.42Z"/><path
                class="cls-2"
                d="M80.56,131.63a.71.71,0,0,1-.75-.75V102.31a.4.4,0,0,0-.45-.45H76.94a.71.71,0,0,1-.75-.75v-5a.71.71,0,0,1,.75-.75h2.41a.4.4,0,0,0,.45-.45V92.51c0-8.44,4.15-12.13,12.06-12.13h3.32a.71.71,0,0,1,.75.75v6a.71.71,0,0,1-.75.75H92.84c-3.77,0-4.6.9-4.6,4.45v2.49a.4.4,0,0,0,.45.45h6.48a.71.71,0,0,1,.75.75v5a.71.71,0,0,1-.75.75H88.7a.4.4,0,0,0-.45.45v28.56a.71.71,0,0,1-.75.75Z"/><path
                class="cls-2"
                d="M100.83,122.36a28.16,28.16,0,0,1-1.28-8.89,28.93,28.93,0,0,1,1.21-9c2-6.33,7.61-10,14.85-10,7.46,0,12.89,3.84,14.92,10,.83,2.56,1.21,5,1.21,10.93a.73.73,0,0,1-.83.75H108.52a.4.4,0,0,0-.45.45,8,8,0,0,0,.53,2.79c1.21,3.54,4.07,5.5,8.14,5.5a11,11,0,0,0,8.52-3.47.77.77,0,0,1,1.13-.15l4.45,3.92a.68.68,0,0,1,.08,1.06c-3.09,3.62-8.21,6.18-14.92,6.18C108.29,132.46,102.86,128.69,100.83,122.36Zm21.93-16.05c-1-2.94-3.69-4.67-7.08-4.67s-6.18,1.73-7.16,4.67a9.21,9.21,0,0,0-.45,3.09.4.4,0,0,0,.45.45h14.24a.4.4,0,0,0,.45-.45A9.21,9.21,0,0,0,122.76,106.31Z"/><path
                class="cls-2"
                d="M149.51,132.08c-7.31,0-10.1-3.54-10.1-10.63V102.31a.4.4,0,0,0-.45-.45h-2.41a.71.71,0,0,1-.75-.75v-5a.71.71,0,0,1,.75-.75H139a.4.4,0,0,0,.45-.45V84.9a.71.71,0,0,1,.75-.75h6.93a.71.71,0,0,1,.75.75v9.95a.4.4,0,0,0,.45.45h4.82a.71.71,0,0,1,.75.75v5a.71.71,0,0,1-.75.75H148.3a.4.4,0,0,0-.45.45v18.84c0,2.56,1.05,3.39,3.39,3.39h1.88a.71.71,0,0,1,.75.75v6a.71.71,0,0,1-.75.75Z"/><path
                class="cls-2"
                d="M162.47,145.19a.71.71,0,0,1-.75-.75v-6a.71.71,0,0,1,.75-.75h1.36c2.86,0,4.29-1.28,5.43-4.3l1.05-3.09L157,96.06c-.15-.45.15-.75.6-.75h7.46a1,1,0,0,1,.91.75l8.21,23.74h.15l7.84-23.74a1,1,0,0,1,.9-.75h7.16c.45,0,.75.3.6.75L177,133.89c-3.17,8.59-6.18,11.3-12.21,11.3Z"/>
                <!-- safety -->
                <polygon class="cls-3" points="184.43 127.87 0 127.87 0 136.98 30.4 136.98 184.43 136.98 184.43 127.87"/>
                <path
                class="cls-2"
                d="M354.78,145.19a.71.71,0,0,1-.75-.75V96.06a.71.71,0,0,1,.75-.75h6.93a.71.71,0,0,1,.75.75v2.71h.08c1.73-2.49,4.75-4.3,9.65-4.3,6.18,0,10.7,2.94,12.59,8.74.9,2.79,1.28,5.35,1.28,10.25s-.38,7.46-1.28,10.25c-1.88,5.8-6.41,8.74-12.59,8.74-4.9,0-7.91-1.81-9.65-4.3h-.08v16.28a.71.71,0,0,1-.75.75Zm21.93-24.95a21.42,21.42,0,0,0,.75-6.78,21.42,21.42,0,0,0-.75-6.78A6.5,6.5,0,0,0,370,102c-3.47,0-5.8,1.66-6.78,4.67a21.39,21.39,0,0,0-.75,6.78,21.39,21.39,0,0,0,.75,6.78c1,3,3.32,4.67,6.78,4.67A6.5,6.5,0,0,0,376.71,120.25Z"/><path
                class="cls-2"
                d="M394,131.63a.71.71,0,0,1-.75-.75V96.06a.71.71,0,0,1,.75-.75h6.93a.71.71,0,0,1,.75.75v3.09h.08c1.73-2.79,4.82-4.67,9.42-4.67a11,11,0,0,1,7.61,3c.38.38.45.68.15,1.06l-4,5a.68.68,0,0,1-1.05.15,9.83,9.83,0,0,0-5.35-1.73c-4.75,0-6.86,3.39-6.86,9.19v19.67a.71.71,0,0,1-.75.75Z"/><path
                class="cls-2"
                d="M421.69,122.43a26.83,26.83,0,0,1-1.21-9,26.83,26.83,0,0,1,1.21-9c2-6.33,7.61-10,15-10s12.89,3.69,14.92,10a26.83,26.83,0,0,1,1.21,9,26.83,26.83,0,0,1-1.21,9c-2,6.33-7.61,10-14.92,10S423.73,128.76,421.69,122.43Zm21.78-2.26a20.49,20.49,0,0,0,.75-6.71,20.78,20.78,0,0,0-.75-6.71,6.71,6.71,0,0,0-6.78-4.75,6.8,6.8,0,0,0-6.86,4.75,20.81,20.81,0,0,0-.75,6.71,20.52,20.52,0,0,0,.75,6.71,6.8,6.8,0,0,0,6.86,4.75A6.71,6.71,0,0,0,443.47,120.17Z"/><path
                class="cls-2"
                d="M482.36,131.63a.71.71,0,0,1-.75-.75v-2.71h-.08c-1.73,2.49-4.75,4.3-9.65,4.3-6.18,0-10.7-2.94-12.59-8.74-.9-2.79-1.28-5.35-1.28-10.25s.38-7.46,1.28-10.25c1.88-5.8,6.41-8.74,12.59-8.74,4.9,0,7.91,1.81,9.65,4.3h.08V81.13a.71.71,0,0,1,.75-.75h6.93a.71.71,0,0,1,.75.75v49.74a.71.71,0,0,1-.75.75Zm-1.51-11.38a21.42,21.42,0,0,0,.75-6.78,21.42,21.42,0,0,0-.75-6.78c-1-3-3.32-4.67-6.78-4.67a6.5,6.5,0,0,0-6.71,4.67,21.43,21.43,0,0,0-.75,6.78,21.43,21.43,0,0,0,.75,6.78,6.5,6.5,0,0,0,6.71,4.67C477.53,124.92,479.87,123.26,480.85,120.25Z"/><path
                class="cls-2"
                d="M521.47,131.63a.71.71,0,0,1-.75-.75v-2.64h-.08c-2,2.49-4.82,4.22-9.42,4.22-7.76,0-12.51-5.73-12.51-13.49V96.06a.71.71,0,0,1,.75-.75h6.93a.71.71,0,0,1,.75.75v21c0,4.67,2.19,7.91,6.78,7.91,4.3,0,6.78-3.24,6.78-7.84v-21a.71.71,0,0,1,.75-.75h6.93a.71.71,0,0,1,.75.75v34.82a.71.71,0,0,1-.75.75Z"/><path
                class="cls-2"
                d="M537.44,122.43a28.54,28.54,0,0,1-1.13-9,28.54,28.54,0,0,1,1.13-9c2.11-6.48,7.69-10,15-10A15.82,15.82,0,0,1,565,100.13a.73.73,0,0,1-.08,1.06l-4.75,4.14a.68.68,0,0,1-1.06-.15,8.22,8.22,0,0,0-6.71-3.17,6.66,6.66,0,0,0-6.78,4.75,21.37,21.37,0,0,0-.75,6.71,21.87,21.87,0,0,0,.75,6.78,6.69,6.69,0,0,0,6.78,4.67,8.22,8.22,0,0,0,6.71-3.17.68.68,0,0,1,1.06-.08l4.75,4.15c.38.3.3.68.08,1.05a16,16,0,0,1-12.59,5.58C545.13,132.46,539.55,128.92,537.44,122.43Z"/><path
                class="cls-2"
                d="M582.8,132.08c-7.31,0-10.1-3.54-10.1-10.63V102.31a.4.4,0,0,0-.45-.45h-2.41a.71.71,0,0,1-.75-.75v-5a.71.71,0,0,1,.75-.75h2.41a.4.4,0,0,0,.45-.45V84.9a.71.71,0,0,1,.75-.75h6.93a.71.71,0,0,1,.75.75v9.95a.4.4,0,0,0,.45.45h4.82a.71.71,0,0,1,.75.75v5a.71.71,0,0,1-.75.75H581.6a.4.4,0,0,0-.45.45v18.84c0,2.56,1.05,3.39,3.39,3.39h1.88a.71.71,0,0,1,.75.75v6a.71.71,0,0,1-.75.75Z"/><path class="cls-2" d="M595.24,88.45a.71.71,0,0,1-.75-.75V81.13a.71.71,0,0,1,.75-.75h6.93a.71.71,0,0,1,.75.75v6.56a.71.71,0,0,1-.75.75Zm0,43.18a.71.71,0,0,1-.75-.75V96.06a.71.71,0,0,1,.75-.75h6.93a.71.71,0,0,1,.75.75v34.82a.71.71,0,0,1-.75.75Z"/><path class="cls-2" d="M621.84,131.63a1,1,0,0,1-1-.75L608,96.06c-.15-.45.15-.75.6-.75H616a1,1,0,0,1,.9.75l8,23.59h.15l7.84-23.59a1,1,0,0,1,.9-.75h7.24c.45,0,.75.3.6.75l-12.81,34.82a1,1,0,0,1-1,.75Z"/><path class="cls-2" d="M647.53,88.45a.71.71,0,0,1-.75-.75V81.13a.71.71,0,0,1,.75-.75h6.93a.71.71,0,0,1,.75.75v6.56a.71.71,0,0,1-.75.75Zm0,43.18a.71.71,0,0,1-.75-.75V96.06a.71.71,0,0,1,.75-.75h6.93a.71.71,0,0,1,.75.75v34.82a.71.71,0,0,1-.75.75Z"/><path
                class="cls-2"
                d="M675,132.08c-7.31,0-10.1-3.54-10.1-10.63V102.31a.4.4,0,0,0-.45-.45H662a.71.71,0,0,1-.75-.75v-5a.71.71,0,0,1,.75-.75h2.41a.4.4,0,0,0,.45-.45V84.9a.71.71,0,0,1,.75-.75h6.93a.71.71,0,0,1,.75.75v9.95a.4.4,0,0,0,.45.45h4.82a.71.71,0,0,1,.75.75v5a.71.71,0,0,1-.75.75h-4.82a.4.4,0,0,0-.45.45v18.84c0,2.56,1.05,3.39,3.39,3.39h1.88a.71.71,0,0,1,.75.75v6a.71.71,0,0,1-.75.75Z"/><path
                class="cls-2"
                d="M687.92,145.19a.71.71,0,0,1-.75-.75v-6a.71.71,0,0,1,.75-.75h1.36c2.86,0,4.29-1.28,5.43-4.3l1.05-3.09L682.5,96.06c-.15-.45.15-.75.6-.75h7.46a1,1,0,0,1,.91.75l8.21,23.74h.15l7.84-23.74a1,1,0,0,1,.91-.75h7.16c.45,0,.75.3.6.75l-13.87,37.83c-3.17,8.59-6.18,11.3-12.21,11.3Z"/>
                <!-- Productivity -->
                <polygon class="cls-3" points="710.24 127.87 348.53 127.87 348.53 136.98 378.93 136.98 710.24 136.98 710.24 127.87"/><path
                class="cls-2"
                d="M483.71,51.25a.71.71,0,0,1-.75-.75v-21c0-4.67-2.34-7.91-6.86-7.91-4.37,0-6.93,3.24-6.93,7.91v21a.71.71,0,0,1-.75.75h-6.93a.71.71,0,0,1-.75-.75V.75a.71.71,0,0,1,.75-.75h6.93a.71.71,0,0,1,.75.75V18.31h.08c1.58-2.26,4.75-4.22,9.57-4.22,7.76,0,12.58,5.73,12.58,13.49V50.49a.71.71,0,0,1-.75.75Z"/><path
                class="cls-2"
                d="M499.46,42a28.16,28.16,0,0,1-1.28-8.89,28.93,28.93,0,0,1,1.21-9c2-6.33,7.61-10,14.85-10,7.46,0,12.89,3.84,14.92,10,.83,2.56,1.21,5,1.21,10.93a.73.73,0,0,1-.83.75H507.15a.4.4,0,0,0-.45.45,8,8,0,0,0,.53,2.79c1.21,3.54,4.07,5.5,8.14,5.5a11,11,0,0,0,8.52-3.47.77.77,0,0,1,1.13-.15l4.45,3.92a.68.68,0,0,1,.08,1.06c-3.09,3.62-8.21,6.18-14.92,6.18C506.92,52.08,501.5,48.31,499.46,42Zm21.93-16.05c-1-2.94-3.69-4.67-7.08-4.67s-6.18,1.73-7.16,4.67A9.21,9.21,0,0,0,506.7,29a.4.4,0,0,0,.45.45h14.24a.4.4,0,0,0,.45-.45A9.21,9.21,0,0,0,521.39,25.92Z"/><path
                class="cls-2"
                d="M559.15,51.25a.71.71,0,0,1-.75-.75V47.86h-.08c-1.73,2.49-5.12,4.22-10.25,4.22-6.63,0-12.21-3.47-12.21-11.08,0-7.91,5.58-11.53,14.54-11.53h7.39a.4.4,0,0,0,.45-.45V27.28c0-4.14-2-6-8.06-6-4.07,0-6.56,1.13-8.29,2.49a.68.68,0,0,1-1.06-.15l-2.79-5a.7.7,0,0,1,.15-1c2.94-2.11,6.93-3.54,12.89-3.54,11.08,0,15.15,3.77,15.15,12.66V50.49a.71.71,0,0,1-.75.75ZM558.24,39V36.25a.4.4,0,0,0-.45-.45h-6c-5.43,0-7.84,1.51-7.84,4.9,0,3,2.19,4.52,6.25,4.52C555.38,45.22,558.24,43.18,558.24,39Z"/><path class="cls-2" d="M584.84,51.7c-7.08,0-9.95-3.39-9.95-10.4V.75a.71.71,0,0,1,.75-.75h6.93a.71.71,0,0,1,.75.75V40.85c0,2.49,1,3.32,3.17,3.32h1.66a.71.71,0,0,1,.75.75v6a.71.71,0,0,1-.75.75Z"/><path
                class="cls-2"
                d="M605.11,51.7c-7.31,0-10.1-3.54-10.1-10.63V21.93a.4.4,0,0,0-.45-.45h-2.41a.71.71,0,0,1-.75-.75v-5a.71.71,0,0,1,.75-.75h2.41a.4.4,0,0,0,.45-.45V4.52a.71.71,0,0,1,.75-.75h6.93a.71.71,0,0,1,.75.75v9.95a.4.4,0,0,0,.45.45h4.82a.71.71,0,0,1,.75.75v5a.71.71,0,0,1-.75.75H603.9a.4.4,0,0,0-.45.45V40.77c0,2.56,1.05,3.39,3.39,3.39h1.88a.71.71,0,0,1,.75.75v6a.71.71,0,0,1-.75.75Z"/><path
                class="cls-2"
                d="M639.78,51.25a.71.71,0,0,1-.75-.75v-21c0-4.67-2.34-7.91-6.86-7.91-4.37,0-6.93,3.24-6.93,7.91v21a.71.71,0,0,1-.75.75h-6.93a.71.71,0,0,1-.75-.75V.75a.71.71,0,0,1,.75-.75h6.93a.71.71,0,0,1,.75.75V18.31h.08c1.58-2.26,4.75-4.22,9.57-4.22,7.76,0,12.59,5.73,12.59,13.49V50.49a.71.71,0,0,1-.75.75Z"/>
                <!-- health -->
                <polygon class="cls-3" points="651.96 46.59 457.27 46.59 457.27 55.7 489.35 55.7 651.96 55.7 651.96 46.59"/>
                <path
                class="cls-2"
                d="M4.71,346.92a.29.29,0,0,1,.3-.3H18a.29.29,0,0,1,.3.3v2.61a.29.29,0,0,1-.3.3H8.48a.16.16,0,0,0-.18.18v5.25a.16.16,0,0,0,.18.18h8a.29.29,0,0,1,.3.3v2.61a.29.29,0,0,1-.3.3h-8a.16.16,0,0,0-.18.18V367a.29.29,0,0,1-.3.3H5a.29.29,0,0,1-.3-.3Z"/><path
                class="cls-2"
                d="M20.93,362.62c-.42-1.28-.55-2.43-.55-5.68s.12-4.4.55-5.68c1.06-3.28,3.73-5,7.29-5s6.26,1.7,7.32,5c.42,1.28.55,2.43.55,5.68s-.12,4.4-.55,5.68c-1.06,3.28-3.74,5-7.32,5S22,365.9,20.93,362.62Zm11.14-.94a16.47,16.47,0,0,0,.36-4.74,16.3,16.3,0,0,0-.36-4.74,3.74,3.74,0,0,0-3.86-2.7,3.73,3.73,0,0,0-3.83,2.7,16.29,16.29,0,0,0-.37,4.74,16.45,16.45,0,0,0,.37,4.74,3.73,3.73,0,0,0,3.83,2.7A3.74,3.74,0,0,0,32.07,361.68Z"/><path
                class="cls-2"
                d="M39.27,346.92a.29.29,0,0,1,.3-.3h3a.29.29,0,0,1,.3.3v8.14a.16.16,0,0,0,.18.18H50.9a.16.16,0,0,0,.18-.18v-8.14a.29.29,0,0,1,.3-.3h3a.29.29,0,0,1,.3.3v20a.29.29,0,0,1-.3.3h-3a.29.29,0,0,1-.3-.3v-8.32a.16.16,0,0,0-.18-.18H43a.16.16,0,0,0-.18.18V367a.29.29,0,0,1-.3.3h-3a.29.29,0,0,1-.3-.3Z"/><path
                class="cls-2"
                d="M102.52,349.75v-.09H97.39a.16.16,0,0,0-.18.18v2.37a.29.29,0,0,1-.3.3H94.29a.29.29,0,0,1-.3-.3v-5.28a.29.29,0,0,1,.3-.3h11.57a.29.29,0,0,1,.3.3v2.37a1.37,1.37,0,0,1-.09.55L99.25,367c-.09.21-.15.27-.4.27H96c-.18,0-.27-.12-.18-.33Z"/><path
                class="cls-2"
                d="M109.51,356.94c0-4.8.15-5.77.43-6.62.82-2.58,2.79-4,5.86-4s5,1.46,5.89,4c.27.85.42,1.82.42,6.62s-.15,5.77-.42,6.62c-.85,2.58-2.82,4-5.89,4s-5-1.46-5.86-4C109.66,362.71,109.51,361.74,109.51,356.94Zm6.29,7.62a2.46,2.46,0,0,0,2.55-1.64c.21-.64.27-1.34.27-6s-.06-5.34-.27-6a2.46,2.46,0,0,0-2.55-1.64,2.42,2.42,0,0,0-2.52,1.64c-.21.64-.27,1.34-.27,6s.06,5.34.27,6A2.42,2.42,0,0,0,115.8,364.57Z"/><path
                class="cls-2"
                d="M132.53,372.73a.29.29,0,0,1-.3-.3V370a.29.29,0,0,1,.3-.3h.55c1.15,0,1.73-.52,2.19-1.73l.42-1.25-5.34-13.79c-.06-.18.06-.3.24-.3h3a.38.38,0,0,1,.36.3l3.31,9.56h.06l3.16-9.56a.38.38,0,0,1,.36-.3h2.88c.18,0,.3.12.24.3l-5.59,15.24c-1.28,3.46-2.49,4.55-4.92,4.55Z"/><path
                class="cls-2"
                d="M145.47,363.53a11.34,11.34,0,0,1-.52-3.58,11.66,11.66,0,0,1,.49-3.61,6.47,6.47,0,0,1,12,0,13.12,13.12,0,0,1,.49,4.4.3.3,0,0,1-.33.3h-9a.16.16,0,0,0-.18.18,3.4,3.4,0,0,0,3.49,3.34,4.41,4.41,0,0,0,3.43-1.4.31.31,0,0,1,.46-.06l1.79,1.58a.27.27,0,0,1,0,.42,7.71,7.71,0,0,1-6,2.49C148.47,367.6,146.29,366.08,145.47,363.53Zm8.84-6.47a3.13,3.13,0,0,0-5.74,0,3.71,3.71,0,0,0-.18,1.25.16.16,0,0,0,.18.18h5.74a.16.16,0,0,0,.18-.18A3.71,3.71,0,0,0,154.3,357.07Z"/><path
                class="cls-2"
                d="M169.52,367.27a.29.29,0,0,1-.3-.3V365.9h0c-.7,1-2.07,1.7-4.13,1.7-2.67,0-4.92-1.4-4.92-4.46s2.25-4.65,5.86-4.65h3a.16.16,0,0,0,.18-.18v-.7c0-1.67-.79-2.43-3.25-2.43a5.13,5.13,0,0,0-3.34,1,.27.27,0,0,1-.42-.06l-1.12-2a.28.28,0,0,1,.06-.39,8.54,8.54,0,0,1,5.19-1.43c4.46,0,6.1,1.52,6.1,5.1V367a.29.29,0,0,1-.3.3Zm-.36-4.92v-1.12A.16.16,0,0,0,169,361h-2.43c-2.19,0-3.16.61-3.16,2,0,1.21.88,1.82,2.52,1.82C168,364.84,169.15,364,169.15,362.35Z"/><path
                class="cls-2"
                d="M176.23,367.27a.29.29,0,0,1-.3-.3v-14a.29.29,0,0,1,.3-.3H179a.29.29,0,0,1,.3.3v1.25h0a4.19,4.19,0,0,1,3.8-1.88,4.42,4.42,0,0,1,3.07,1.21c.15.15.18.27.06.42l-1.61,2a.27.27,0,0,1-.42.06,4,4,0,0,0-2.16-.7c-1.91,0-2.76,1.37-2.76,3.71V367a.29.29,0,0,1-.3.3Z"/><path
                class="cls-2"
                d="M186.86,365.29a.29.29,0,0,1,0-.42l1.73-1.82a.29.29,0,0,1,.43,0,6.77,6.77,0,0,0,4.28,1.67c1.79,0,2.7-.73,2.7-1.73s-.52-1.43-2.43-1.61l-1.58-.15c-3-.3-4.49-1.82-4.49-4.31,0-2.82,2-4.62,5.68-4.62a8.87,8.87,0,0,1,5.5,1.79.3.3,0,0,1,.06.43l-1.49,1.79a.3.3,0,0,1-.42.06,7.07,7.07,0,0,0-3.83-1.21c-1.46,0-2.22.64-2.22,1.52s.52,1.37,2.4,1.55l1.58.15c3.07.3,4.52,1.88,4.52,4.28,0,2.92-2.12,4.95-6.13,4.95A9.08,9.08,0,0,1,186.86,365.29Z"/><path class="cls-4" d="M68.93,352a.32.32,0,0,0,0,.44l4.48,4.48a.31.31,0,0,1,0,.44l-4.48,4.48a.32.32,0,0,0,0,.44l4.48,4.48a.31.31,0,0,0,.44,0l9.4-9.4a.31.31,0,0,0,0-.44l-9.4-9.4a.31.31,0,0,0-.44,0Z"/></g>
        </g>
    </g>
</svg>
