<svg class="approach-section-icon-svg" xmlns="http://www.w3.org/2000/svg" width="542" height="454" viewBox="0 0 542 454"><g fill="none" stroke="#6F7F84" stroke-width="7.211" stroke-miterlimit="10"><path d="M96.3 206.2h139.5v177.2H96.3V206.2zm139.5 54.4H96.3m18.9 0l29.2-26.4 14.2 12.9 25-22.7 40.2 36.6m-98.6 18h81.6m-63.6 14.4h45.6"/><path d="M115.2 316H158v51.1h-42.8V316zm60.6 0h42.8v51.1h-42.8V316z"/></g><path fill="none" stroke="#6F7F84" stroke-width="7.211" stroke-miterlimit="10" d="M325.2 0v289.6c0 88.8-72 160.8-160.8 160.8-88.8 0-160.8-72-160.8-160.8 0-88.8 72-160.8 160.8-160.8 42.9 0 81.9 16.8 110.7 44.2"/><path fill="#6F7F84" d="M261.6 176.8l21.8 5.9-5.9-21.9-15.9 16z"/><path fill="none" stroke="#6F7F84" stroke-width="7.211" stroke-miterlimit="10" d="M364.7 269.9l174.4 174.4"/></svg>