<svg class="approach-section-icon-svg" xmlns="http://www.w3.org/2000/svg" width="519" height="456" viewBox="0 0 519 456"><path fill="none" stroke="#798082" stroke-width="7" stroke-miterlimit="10" d="M425.4 166.2c0-10.1 6.2-18.1 15.6-23.6-1.7-5.7-3.9-11.1-6.7-16.2-10.5 2.8-19.1-1.4-26.2-8.5-7.2-7.2-9.4-15.7-6.6-26.2-5.1-2.8-10.5-5-16.2-6.7-5.5 9.4-15.4 15.6-25.6 15.6-10.2 0-20.1-6.2-25.6-15.6-5.7 1.7-11.1 3.9-16.2 6.7 2.8 10.5.6 19.1-6.6 26.3-7.2 7.2-15.7 11.3-26.2 8.5-2.8 5.1-5 10.5-6.7 16.2 9.4 5.5 15.6 13.5 15.6 23.6 0 10.1-6.2 20.1-15.6 25.6 1.7 5.7 3.9 11.1 6.7 16.2 10.5-2.8 19.1-.6 26.2 6.6 7.2 7.2 9.4 15.7 6.6 26.3 5.1 2.8 10.5 5 16.2 6.7 5.5-9.4 15.4-15.6 25.6-15.6 10.2 0 20.1 6.2 25.6 15.6 5.7-1.7 11.1-3.9 16.2-6.7-2.8-10.5-.6-19.1 6.6-26.2 7.2-7.2 15.7-11.3 26.2-8.5 2.8-5.1 5-10.5 6.7-16.2-9.4-5.7-15.6-13.8-15.6-23.9zm-65.7 35.4c-19.5 0-35.4-15.8-35.4-35.4 0-19.5 15.8-35.4 35.4-35.4 19.5 0 35.4 15.8 35.4 35.4 0 19.5-15.9 35.4-35.4 35.4z"/><path fill="none" stroke="#798082" stroke-width="7.211" stroke-miterlimit="10" d="M2.5 39.4l238.6 238.5c62.7 62.8 164.5 62.8 227.3 0 62.8-62.7 62.7-164.5 0-227.3-62.7-62.8-164.5-62.8-227.3 0-30.3 30.4-46 69.8-47 109.6"/><path fill="#798082" d="M206.2 148.8l-11.4 19.8-11.4-19.8h22.8z"/><path fill="none" stroke="#798082" stroke-width="7.211" stroke-miterlimit="10" d="M192.8 318.1v137.7"/></svg>