<svg class="approach-section-icon-svg" xmlns="http://www.w3.org/2000/svg" width="495" height="478" viewBox="0 0 495 478"><g fill="none" stroke="#798082" stroke-width="7.148" stroke-miterlimit="10"><path d="M258.1 383H85.2V227.7"/><path d="M111 307h25.4v76H111zm46.1-33h25.4v109.1h-25.4zm46.2 46.9h25.4v62.2h-25.4zm-66.9 7.6L111 353.9m71.5-38.7L157 340.6m71.6-5.2l-25.4 25.4"/></g><path fill="none" stroke="#798082" stroke-width="7.148" stroke-miterlimit="10" d="M75.6 2.5l200 200c62.2 62.2 62.2 163.1 0 225.4s-163.1 62.2-225.4 0-62.2-163.1 0-225.4c30.1-30.1 69.2-45.6 108.6-46.6"/><path fill="#798082" d="M147.5 167.9l19.6-11.3-19.6-11.3z"/><path fill="none" stroke="#798082" stroke-width="7.148" stroke-miterlimit="10" d="M322.3 156.6h172.3"/></svg>