<svg xmlns="http://www.w3.org/2000/svg" width="320" height="245" viewBox="0 0 320 245"><g fill="#97A8B6"><path d="M235.3 163.4c0 41.1-33.4 74.5-74.4 74.5-41.1 0-74.5-33.4-74.5-74.5s33.4-74.5 74.5-74.5c17.3 0 33.9 6 47.2 16.9l-2.6 2.6 10.5 2.8-2.8-10.5-2.6 2.6c-13.9-11.6-31.4-17.9-49.6-17.9-43 0-77.9 35-77.9 77.9 0 43 34.9 77.9 77.9 77.9 42.9 0 77.9-34.9 77.9-77.9V0h-3.4l-.2 163.4zM320 215.9l-63-63-2.5 2.4 65.5 65.4z"/><path d="M126.9 209.5h69.5v-87.3h-69.5v87.3zm3.4-3.4v-54.8H193v54.8h-62.7zm11.6-58.2l9.4-8.5 6.8 6.2 11.8-10.8 14.4 13.1h-42.4zm51.1-22.3V148h-3.5L170 130.2 158.1 141l-6.8-6.2-14.5 13.1h-6.6v-22.4H193z"/><path d="M142.3 156.7H181v3.4h-38.7zM150.8 163.5h21.6v3.4h-21.6zM135.8 201.9h23.7v-27.6h-23.7v27.6zm3.4-24.3h16.9v20.8h-16.9v-20.8zM164.5 201.9h23.7v-27.6h-23.7v27.6zm3.5-24.3h16.8v20.8h-16.9l.1-20.8z"/></g></svg>