<svg xmlns="http://www.w3.org/2000/svg" width="320" height="245" viewBox="0 0 320 245"><g fill="#97A8B6"><path d="M214.5 108.2C201.3 95 184.3 87 165.9 85.3v-3.8l-9.6 5.5 9.6 5.5v-3.8c17.4 1.7 33.6 9.4 46.1 21.8 14.3 14.3 22.2 33.4 22.2 53.6 0 20.3-7.9 39.3-22.2 53.6-14.8 14.8-34.2 22.2-53.6 22.2s-38.8-7.4-53.6-22.2c-29.5-29.5-29.6-77.5-.1-107.1L216-.5h-4.9L102.3 108.2c-30.9 30.9-30.9 81.2 0 112.1 15.4 15.4 35.8 23.2 56.1 23.2 20.3 0 40.6-7.7 56.1-23.2 15-15 23.2-34.9 23.2-56.1 0-21.1-8.3-41-23.2-56z"/><path d="M155.8 116.6v16.7c-5.4.8-9.5 5.5-9.5 11.1 0 2.4.8 4.7 2.1 6.6l-18.8 54.1 3.3 1.1 12-34.6c5.2 4.1 11.6 6.4 18.4 6.4 2.4 0 4.8-.3 7.1-.9l10.1 29.1 3.3-1.1-10.1-29c3.9-1.5 7.5-3.8 10.5-6.8l-2.4-2.4c-2.6 2.6-5.8 4.7-9.2 5.9l-7.1-20.4c2-2 3.3-4.9 3.3-7.9 0-5.6-4.1-10.3-9.5-11.1v-16.7l-3.5-.1zm13.5 57.2c-1.9.4-3.9.7-6 .7-6.3 0-12.4-2.2-17.2-6.4l5-14.4c1.8 1.3 4 2 6.4 2 1.8 0 3.5-.4 5-1.2l6.8 19.3zm-4-29.3c0 4.3-3.5 7.8-7.8 7.8s-7.8-3.5-7.8-7.8 3.5-7.8 7.8-7.8 7.8 3.5 7.8 7.8zM33 85.3L0 118.4v4.9l34.5-34.5h56.3v-3.5z"/></g></svg>