<svg xmlns="http://www.w3.org/2000/svg" width="320" height="230" viewBox="0 0 320 230"><g fill="#97A8B6"><path d="M143.5 174.1l-4.1 18.6h45.3l-4.1-18.6h-8.9v-4.7c5-.6 8.8-4.8 8.8-9.9v-37.3h3v-3.3h-3.8l-1.9-7.7h-6.7v-3.7c0-2.9-2.4-5.3-5.3-5.3h-7.5c-2.9 0-5.3 2.4-5.3 5.3v3.7h-7l-1.9 7.7h-3.8v3.4h3v37.3c0 5.1 3.9 9.3 8.8 9.9v4.7l-8.6-.1zm37 15.2h-36.9l2.6-11.9h31.7l2.6 11.9zm-24-81.9c0-1 .8-1.9 1.9-1.9h7.5c1 0 1.9.8 1.9 1.9v3.7h-11.3v-3.7zm-7.6 7.1h26.4l1 4.3h-28.5l1.1-4.3zm-1.9 45.1V122.3h30.1V159.6c0 3.6-2.9 6.5-6.5 6.5H165c1.7-2 3.1-4.3 3.4-6.6.4-2.9-1-5.3-2.2-7.5-.7-1.2-1.4-2.4-1.7-3.5-.5-2 .1-4.2 1.5-5.4.7-.6.7-1.5.2-2.2-.5-.7-1.4-.9-2.1-.5-3.3 1.7-7.4 5.5-8.6 9.5-.7 2.4-.7 4.4.3 6.5.7 1.5 1.7 2.6 2.7 3.6.4.4.7.8 1.1 1.2 1.2 1.5 1.4 3 .6 4.8h-6.5c-3.8.1-6.7-2.8-6.7-6.4zm13.8-1.8c-.8-.8-1.6-1.7-2-2.6-.6-1.4-.7-2.6-.1-4.2.4-1.3 1.3-2.6 2.3-3.8 0 .7.1 1.5.2 2.3.4 1.6 1.2 3 2 4.4 1.1 1.8 2.1 3.6 1.8 5.3-.1.9-.6 2-1.4 3.2-.3-1.1-.8-2.1-1.6-3.1-.4-.7-.8-1.1-1.2-1.5zm-5 11.6h12.5v4.6h-12.5v-4.6z"/><path d="M163 72.7c-18 0-35.2 6.2-48.9 17.6l-2.6-2.6-2.8 10.3 10.3-2.8-2.6-2.6C129.5 81.9 145.8 76 162.9 76c40.5 0 73.5 32.9 73.5 73.5S203.6 223 163.1 223s-73.4-32.9-73.4-73.5V-.9h-3.5v150.4c0 42.3 34.4 76.8 76.8 76.8 42.3 0 76.8-34.4 76.8-76.8S205.3 72.7 163 72.7zM69.836 119.386l2.404 2.404-72.477 72.478-2.404-2.404z"/></g></svg>