<svg xmlns="http://www.w3.org/2000/svg" width="320" height="235" viewBox="0 0 320 235"><g fill="#97A8B6"><path d="M237.7 156.8c0-42.3-34.4-76.6-76.6-76.6-17.9 0-35 6.2-48.8 17.6l-2.6-2.6-2.7 10.3 10.3-2.7-2.6-2.6c13-10.8 29.4-16.6 46.4-16.6 40.3-.1 73.2 32.8 73.2 73.2 0 19.6-7.6 37.9-21.4 51.8-13.8 13.8-32.2 21.4-51.8 21.4-40.4 0-73.2-32.8-73.2-73.2V-.4h-3.4v157.2c0 21.1 8.6 40.3 22.5 54.1 13.9 13.9 33 22.5 54.1 22.5 20.4 0 39.6-8 54.1-22.5 14.6-14.4 22.5-33.6 22.5-54.1zM0 213.6l58.3-58.3-2.3-2.4-56 56z"/><path d="M149.3 171.9c7 7 18.5 7.1 25.6 0 7-7 7.1-18.5 0-25.6-7-7-18.5-7.1-25.6 0-7 7-7 18.5 0 25.6zm23.3-23.3c5.8 5.8 5.8 15.2 0 21-5.8 5.8-15.2 5.8-21 0-5.8-5.8-5.8-15.2 0-21 5.8-5.8 15.3-5.8 21 0z"/><path d="M127.3 139.1l-1.3-.3-.6 1.1c-1.4 2.5-2.4 5.1-3.3 7.9l-.4 1.2 1.1.7c3.9 2.3 5.7 5.3 5.7 9.4 0 4.1-1.8 7.1-5.7 9.4l-1.1.7.4 1.2c.8 2.7 1.9 5.4 3.3 7.9l.6 1.1 1.3-.3c4.4-1.2 9.1 0 12 2.9 2.9 2.9 4 7.6 2.9 12l-.3 1.3 1.1.6c2.5 1.4 5.1 2.4 7.9 3.3l1.2.4.7-1.1c2.3-3.9 5.3-5.7 9.4-5.7 4.8 0 8.1 1.6 10.1 5l.7 1.1 1.2-.4c2.7-.8 5.4-1.9 7.9-3.3l1.1-.6-.3-1.3c-.8-3.3-1.2-8 2.2-11.4 3.4-3.4 8.1-3.1 11.4-2.2l1.3.3.6-1.1c1.4-2.5 2.4-5.1 3.3-7.9l.4-1.2-1.1-.7c-3.4-2-5-5.2-5-10.1 0-4.1 1.8-7.1 5.7-9.4l1.1-.7-.4-1.2c-.8-2.7-1.9-5.4-3.3-7.9l-.6-1.1-1.3.3c-4.4 1.2-9.1 0-12-2.9-2.9-2.9-4-7.6-2.9-12l.3-1.3-1.1-.6c-2.5-1.4-5.1-2.4-7.9-3.3l-1.2-.4-.7 1.1c-2.3 3.9-5.3 5.7-9.4 5.7-4.8 0-8.1-1.6-10.1-5l-.7-1.1-1.2.4c-2.7.8-5.4 1.9-7.8 3.2l-1.1.6.3 1.3c.8 3.3 1.2 8-2.2 11.4-3 3-7.7 4.2-12.2 3zm14.4-.6c3.3-3.3 4.4-7.9 3.4-13.2 1.6-.8 3.3-1.5 5-2.1 2.7 3.7 6.7 5.5 12.1 5.5 4.9 0 8.7-2.1 11.5-6.2 1.7.6 3.4 1.3 5 2.1-.9 5.1.6 10.5 4 13.9 3.4 3.4 8.7 4.9 13.9 4 .8 1.6 1.5 3.3 2.1 5-4.1 2.7-6.2 6.7-6.2 11.5 0 5.5 1.9 9.5 5.5 12.1-.6 1.7-1.3 3.4-2.1 5-5.4-1.1-10 .1-13.2 3.4-3.3 3.3-4.4 7.9-3.4 13.2-1.6.8-3.3 1.5-5 2.1-2.7-3.7-6.7-5.5-12.1-5.5-4.9 0-8.7 2.1-11.5 6.2-1.7-.6-3.4-1.3-5-2.1.9-5.1-.6-10.5-4-13.9-3.4-3.4-8.7-4.9-13.9-4-.8-1.6-1.5-3.3-2.1-5 4.1-2.7 6.2-6.7 6.2-11.5 0-3.8-1.3-7.1-3.8-9.6-.7-.7-1.5-1.4-2.3-2 .6-1.7 1.3-3.4 2.1-5 5 1.1 10.4-.4 13.8-3.9z"/></g></svg>