<svg xmlns="http://www.w3.org/2000/svg" width="320" height="245" viewBox="0 0 320 245"><g fill="#97A8B6"><path d="M233.3 92.3H320v3.3h-86.7zM155.7 146.4v50.2h-6.3v-35h-15v35h-8.6v-69.8h-3.3v73.1h81.3v-3.3h-11.9V168h-15v28.6h-6.3v-50.2h-14.9zm-9.5 18.4v7.5l-8.4 8.4v-16h8.4v.1zm-8.5 31.7v-11.1l8.4-8.4v19.5h-8.4zm50.9-25.3v4.3l-8.4 8.4v-12.7h8.4zm-8.4 17.4l8.4-8.4v16.3h-8.4v-7.9zm-12.8-38.9v16.6l-8.4 8.4v-25h8.4zm-8.5 46.8v-17.3l8.4-8.4v25.6l-8.4.1z"/><path d="M99 0h-4.6l116.3 116.3c27.9 27.9 27.9 73.4 0 101.4-13.5 13.5-31.5 21-50.7 21s-37.1-7.5-50.7-21c-27.9-27.9-27.9-73.4 0-101.4 11.8-11.8 27.1-19 43.6-20.7v3.5l9-5.2-9-5.2v3.6c-17.3 1.6-33.5 9.2-45.9 21.6-29.2 29.2-29.2 76.8 0 106 14.6 14.6 33.8 21.9 53 21.9s38.4-7.3 53-21.9c29.2-29.2 29.2-76.8 0-106L99 0z"/></g></svg>