<svg xmlns="http://www.w3.org/2000/svg" viewBox="0 0 1051.59 571"><defs><clipPath id="a"><path d="M707.06 397h-38v-40.66l7.66-12.34h22.48l7.87 12.91zm-36-2h33v-37.4l-6.28-10.6H678.1l-7 10.06zm16.89-39.16a4 4 0 1 1 4-4 4 4 0 0 1-4 4zm0-5.49a1.49 1.49 0 1 0 1.49 1.49 1.5 1.5 0 0 0-1.49-1.49z" fill="none" clip-rule="evenodd"/></clipPath><clipPath id="b"><path d="M686.68 352.69c-1.58-1.43-2.61-5.42-2.61-10.14 0-5.35 1.4-10.53 4.07-10.53s4.07 6 4.07 11h-1.54c0-6-1.67-9.45-2.53-9.45s-2.53 3.14-2.53 9.11c0 4.66 1.06 8 2.1 8.95z" fill="none" clip-rule="evenodd"/></clipPath><clipPath id="c"><path d="M687.58 352.54c-1.58-1.44-2.58-5.42-2.58-10.15 0-5.35 1.4-10.46 4.07-10.46s4.07 6.07 4.07 11.07h-1.54c0-6-1.67-9.53-2.53-9.53s-2.53 3.1-2.53 9.07c0 4.66 1.06 8 2.1 8.93z" fill="none" clip-rule="evenodd"/></clipPath><clipPath id="d"><path d="M691.82 364.14a11.1 11.1 0 0 0-2.76-1V361h-2v2a6.3 6.3 0 0 0-4.48 1.77 5.46 5.46 0 0 0-1.8 4 5.63 5.63 0 0 0 .59 2.64 6.61 6.61 0 0 0 1.9 2.23 29.31 29.31 0 0 0 4.93 2.68 6.68 6.68 0 0 1 2.42 1.63 3 3 0 0 1-.35 4 3.18 3.18 0 0 1-2.3.93q-2.62 0-5.43-3l-2.92 3a15.62 15.62 0 0 0 3.81 2.86 7.29 7.29 0 0 0 3.63 1V390h2v-3.34a6.55 6.55 0 0 0 3.5-1.3 6.65 6.65 0 0 0 2-2.34 7.26 7.26 0 0 0 .78-3.21 7.11 7.11 0 0 0-.65-3.13 6.78 6.78 0 0 0-1.92-2.4 21.33 21.33 0 0 0-4.66-2.41 7.42 7.42 0 0 1-2.54-1.48 2 2 0 0 1-.64-1.37 1.86 1.86 0 0 1 .73-1.44 2.84 2.84 0 0 1 1.9-.62 5.75 5.75 0 0 1 4 2.09l2.85-2.89a12.59 12.59 0 0 0-2.56-2" fill="none" clip-rule="evenodd"/></clipPath><clipPath id="e"><path d="M21.63 234.76a4.57 4.57 0 0 1-4.25-2.95 8.7 8.7 0 0 1-.26-3.79c0-.32.05-.67.07-1 .15-2.92.28-5.7.41-8.42.22-4.65.43-9 .71-13.94.18-3.09.35-6-.67-8.44a13.74 13.74 0 0 0-2.1-3.3 11.34 11.34 0 0 1-1.9-3 15.64 15.64 0 0 1 1.31-13.44c1.24-2.22 2.85-4.47 6.13-4.47a5.25 5.25 0 0 1 3-.15c2.44 1 4.59 4.16 5.55 6.89a17.41 17.41 0 0 1-.15 11.73 14 14 0 0 1-2.17 3.25A10.8 10.8 0 0 0 25.7 196c-1.1 2.46-.91 5.44-.68 8.91.05.82.11 1.65.15 2.51l.18 4c.17 3.86.33 7.51.57 12 0 .63.09 1.28.14 1.94.25 3.05.52 6.42-1.12 8.22a4.35 4.35 0 0 1-3.25 1.5H22m-.28-61.5c-.2 0-.36.5-.44.5-2.11 0-3.28 1.12-4.59 3.45a14.41 14.41 0 0 0-1.18 12 9.18 9.18 0 0 0 1.6 2.35 15.09 15.09 0 0 1 2.38 3.71c1.2 2.85 1 6.12.82 9.3-.28 4.89-.49 9.26-.71 13.9-.13 2.73-.26 5.49-.41 8.41 0 .35 0 .69-.07 1a8 8 0 0 0 .13 3.07 2.63 2.63 0 0 0 2.38 1.73 2.4 2.4 0 0 0 1.79-.85c1-1.15.81-4.1.61-6.6-.06-.68-.11-1.4-.15-2.05-.24-4.45-.4-8.13-.57-12l-.18-4c0-.84-.09-1.68-.14-2.48-.23-3.58-.45-7 .85-9.87a12.68 12.68 0 0 1 1.84-2.76 12.67 12.67 0 0 0 1.9-2.86 15.81 15.81 0 0 0 .1-10.37c-1-2.75-2.87-5.06-4.42-5.7a5 5 0 0 0-1.57 0" fill="none" clip-rule="evenodd"/></clipPath><clipPath id="f"><path d="M55.91 234.55a4.31 4.31 0 0 1-4.13-2.81 15.62 15.62 0 0 1-.6-5.58c0-.66-.19-1.29-.19-1.85v-43.65c0-.68.2-1.38.18-2.07-.13-3.3-.16-7 3.14-7.54 2.85-.44 4.72 2.73 5.42 5.59 1.15 4.7 1.08 10.95 1 17v4.94c0 .53 0 1.06.06 1.59a14.5 14.5 0 0 1-.06 3 5.26 5.26 0 0 1-1 2 4.68 4.68 0 0 0-.84 1.53 14 14 0 0 0 .16 3.7c.08.7.17 1.43.23 2.17.17 2 .35 4 .54 5.82.2 2 .41 4.16.59 6.46 0 .46.1 1 .17 1.54a13.38 13.38 0 0 1 0 5 4.74 4.74 0 0 1-4.38 3.15h-.24m-1-61.53h-.19c-1.44.22-1.69 2.22-1.56 5.49 0 .72-.17 1.44-.17 2.15v43.64c0 .58.21 1.24.19 1.92a15.9 15.9 0 0 0 .34 4.76 2.42 2.42 0 0 0 2.43 1.57 2.8 2.8 0 0 0 2.58-1.73 12.55 12.55 0 0 0-.09-4.15c-.07-.58-.13-1.14-.17-1.63-.18-2.28-.38-4.39-.58-6.42-.18-1.87-.37-3.81-.54-5.86-.06-.72-.14-1.42-.22-2.09a14.76 14.76 0 0 1-.13-4.32A6.16 6.16 0 0 1 58 204a4.1 4.1 0 0 0 .69-1.21 13.22 13.22 0 0 0 0-2.59v-1.68c0-1.62 0-3.29.05-5 .09-5.92.19-12-.9-16.48-.49-2-1.6-4.1-2.92-4.1" fill="none" clip-rule="evenodd"/></clipPath><clipPath id="g"><path d="M44 172c.19 0 .36.24.49.37a1.68 1.68 0 0 1 .21.62l1.18 15.37c.11 1 .22 2 .25 2.94v.82c-.16 3.89-3.63 5.82-4 9.2-.24 2.07.23 4.6.37 7 0 .75.08 1.5.12 2.25.26 4.43.47 8.84.73 13.37.23 2.26.64 4.73.25 6.24a3.46 3.46 0 0 1-.35.84v.1c0 .05-.06.16-.1.21a3.43 3.43 0 0 1-2.9 1.62H40a3.43 3.43 0 0 1-2.9-1.62s-.07-.13-.1-.18v-.13a3.49 3.49 0 0 1-.35-.85c-.39-1.51 0-4 .25-6.24.26-4.53.46-8.94.73-13.37 0-.75.08-1.49.12-2.25.14-2.42.61-5 .37-7-.4-3.39-3.86-5.31-4-9.2v-.9c0-1 .14-1.85.25-2.86l1.1-15.35s.09-.5.21-.61a.76.76 0 0 1 .49-.3c.24 0 .44.25.56.43a2 2 0 0 1 .13.47l.14 10.4V190h-.1c0 1 .16.38.37.48s.14 0 .21 0a.61.61 0 0 0 .23-.1.52.52 0 0 0 .29-.38v-17h.05a1.93 1.93 0 0 1 .2-.61.8.8 0 0 1 .51-.3c.16 0 .3.18.42.27s.3.64.3.64H39v17h.5c0 1 .25.58.56.62s.55.38.56-.62H41v-17h-.37s.09-.5.21-.62a.8.8 0 0 1 .51-.29c.2 0 .38.2.51.33a1.55 1.55 0 0 1 .2.57H42v17c0 .16.2.29.35.37a.78.78 0 0 0 .28.08c.07 0 .16.06.22 0s.38.52.38-.48H43v-6.61l.26-10.35a2.34 2.34 0 0 1 .06-.41c.1-.25.34-.58.62-.58m0-1.33a2 2 0 0 0-1.29.47 2 2 0 0 0-2.6 0l-.12-.08a2 2 0 0 0-2.48.09 2 2 0 0 0-1.29-.48 2 2 0 0 0-1.44.61l-.06.06-.54 1.23-1.12 15.5c-.1.91-.22 2-.25 3.08v.16l-.09 1.06h.1a11 11 0 0 0 2.24 5.57 8.29 8.29 0 0 1 1.69 3.55 21.43 21.43 0 0 1-.16 4.34c-.08.8-.16 1.63-.21 2.46 0 .59-.06 1.18-.1 1.76v.49c-.15 2.5-.28 5.06-.41 7.53-.1 1.92-.2 3.85-.31 5.81 0 .4-.09.8-.13 1.2a16.52 16.52 0 0 0-.08 5.48 4.71 4.71 0 0 0 .44 1.1v.23c0 .06.07.51.11.57A5.12 5.12 0 0 0 40 235h.15a5.12 5.12 0 0 0 4-2.55c0-.06.08-.31.11-.37s.06-.19.08-.24v-.19a4.79 4.79 0 0 0 .43-1.1 16.55 16.55 0 0 0-.08-5.48c0-.4-.09-.81-.13-1.2q-.17-2.93-.31-5.81c-.13-2.47-.26-5-.41-7.54v-.48c0-.59-.06-1.17-.1-1.76 0-.82-.13-1.65-.21-2.46a21.38 21.38 0 0 1-.16-4.34 8.29 8.29 0 0 1 1.69-3.55 11 11 0 0 0 2.33-5.53h.09l-.08-1.06v-.17c0-1-.15-2.16-.25-3.07L46 172.58l-.54-1.23-.08-.08a2 2 0 0 0-1.42-.59" fill="none" clip-rule="evenodd"/></clipPath><clipPath id="h"><path d="M40.14 235H40a5.27 5.27 0 0 1-4.3-2.53c0-.05-.08-.23-.12-.29l-.09-.21s0-.11-.06-.15a5 5 0 0 1-.46-1.16A16.74 16.74 0 0 1 35 225c0-.4.09-.8.13-1.2q.16-2.91.31-5.79c.13-2.47.26-5 .41-7.53l.12-2.25c0-.83.13-1.67.21-2.47a21.22 21.22 0 0 0 .16-4.27 8.06 8.06 0 0 0-1.64-3.4 11.53 11.53 0 0 1-2.36-5.46h-.14l.12-1.45c0-1.09.16-2.22.26-3.13l1.21-15.6.6-1.33.07-.07a2.38 2.38 0 0 1 3-.31 2.37 2.37 0 0 1 2.59 0 2.41 2.41 0 0 1 2.61 0 2.41 2.41 0 0 1 2.94.3l.09.09.06.09.57 1.34 1.18 15.5c.1.9.22 2 .25 3.09l.11 1.48h-.13a11.52 11.52 0 0 1-2.36 5.46 8.07 8.07 0 0 0-1.64 3.4 21.21 21.21 0 0 0 .16 4.27c.08.81.16 1.65.21 2.47l.12 2.24c.15 2.51.28 5.07.41 7.54v.17l.3 5.63c0 .38.08.78.13 1.18a16.71 16.71 0 0 1 .07 5.6 5.07 5.07 0 0 1-.46 1.16l-.05.11-.1.17c0 .05-.07.34-.11.4a5.27 5.27 0 0 1-4.27 2.57zm-.08-1h.09a4.44 4.44 0 0 0 3.73-2.06c0-.06.08-.14.11-.2a1.32 1.32 0 0 0 .07-.13v-.09a4.7 4.7 0 0 0 .42-1 16.35 16.35 0 0 0-.09-5.36c0-.4-.09-.81-.13-1.2-.11-1.91-.21-3.79-.3-5.65v-.17c-.13-2.47-.26-5-.41-7.53l-.12-2.24c0-.81-.13-1.64-.21-2.43a21.68 21.68 0 0 1-.16-4.42 8.52 8.52 0 0 1 1.75-3.69 10.74 10.74 0 0 0 2.27-5.36v-.23h.06l-.07-.92c0-1.09-.16-2.21-.26-3.11l-1.18-15.46-.53-1.16a1.72 1.72 0 0 0-2.26-.1l-.21.18-.21-.18a1.74 1.74 0 0 0-2.18 0l-.21.17-.21-.16-.1-.07a1.69 1.69 0 0 0-2.08.07l-.22.18-.21-.18a1.7 1.7 0 0 0-2.27.11l-.49 1.12-1.18 15.45c-.1.91-.22 2-.25 3.07l-.08 1H33v.23a10.75 10.75 0 0 0 2.27 5.36 8.52 8.52 0 0 1 1.75 3.69 21.59 21.59 0 0 1-.16 4.41c-.08.8-.16 1.62-.21 2.44l-.12 2.25c-.15 2.51-.28 5.06-.41 7.53-.1 1.92-.2 3.85-.31 5.81 0 .41-.09.81-.13 1.22a16.33 16.33 0 0 0-.09 5.36 4.36 4.36 0 0 0 .41 1l.11.2c0 .07.08.18.11.24A4.45 4.45 0 0 0 40 234zm.08 0H40a4.07 4.07 0 0 1-3.18-2.1s-.07-.3-.1-.35v-.17a1.19 1.19 0 0 1 0-.12 3.85 3.85 0 0 1-.37-.93 16.35 16.35 0 0 1 .1-5.13c0-.41.09-.84.14-1.24.11-1.94.21-3.88.31-5.8.13-2.53.26-5 .41-7.56l.12-2.25c0-.8.13-1.62.21-2.42a22 22 0 0 0 .16-4.56 9.13 9.13 0 0 0-1.86-4 9.84 9.84 0 0 1-2.17-5.24v-.87c0-1.07.15-1.82.25-2.77l1.2-15.5c.05 0 .14-.58.25-.69a1.06 1.06 0 0 1 1.56.32c0 .06.08.36.11.36h.08v17c0 .12.07.14.18.2s0 0 .07 0l.24-.06c.06 0 .28-.11.28-.16V173h-.22c.05 0 .13-.58.24-.68a1 1 0 0 1 1.36.06c.17.11.3.62.38.62h.07v17c0 .14.09.17.23.21s.08-.19.08-.33l-.13-.18V173h.37c.05 0 .14-.59.25-.69a1.1 1.1 0 0 1 1.48.18c.1.1.19.52.24.52h.07l-.41-.32v17.25c0 .06.28.11.34.14a1.28 1.28 0 0 0 .2 0h.12a.34.34 0 0 0 .21-.28v.19-17H43v-.38a1.17 1.17 0 0 1 .93-.77c.28 0 .53.36.73.56s.19.6.24.6l1.18 15.36c.1.94.22 1.93.25 3v.87a9.83 9.83 0 0 1-2.17 5.24 9.12 9.12 0 0 0-1.86 4 22 22 0 0 0 .16 4.56c.08.79.16 1.61.21 2.41l.12 2.25c.15 2.51.28 5 .41 7.54.1 1.93.2 3.87.31 5.83 0 .39.09.81.14 1.23a16.23 16.23 0 0 1 .1 5.11 3.76 3.76 0 0 1-.38.92.56.56 0 0 1-.06.11c0 .06-.07.51-.11.57a4.07 4.07 0 0 1-3.06 2zm-.09-1h.09a3.24 3.24 0 0 0 2.62-1.63c0-.05.07-.21.1-.26v-.14a3.34 3.34 0 0 0 .32-.81 16.05 16.05 0 0 0-.12-4.89c0-.42-.1-.85-.14-1.26-.11-2-.21-3.92-.32-5.85-.13-2.52-.26-5-.41-7.54l-.12-2.25c0-.79-.13-1.6-.2-2.38a22.57 22.57 0 0 1-.16-4.7 9.77 9.77 0 0 1 2-4.28 9.32 9.32 0 0 0 2.05-4.89v-.88c0-1-.15-2.06-.25-3l-1.19-15.54a.32.32 0 0 0-.11-.22.34.34 0 0 0-.58.09.35.35 0 0 0 0 .14v18.31h-.13a1.11 1.11 0 0 0-.5.12c-.09 0-.2-.14-.31-.12v-.16a1 1 0 0 1-.38-.15 1 1 0 0 1-.46-.57V172.7a.33.33 0 0 0-.1-.23.38.38 0 0 0-.56 0 .31.31 0 0 0-.1.23V191h-.11c-.12 0-.42.14-.78.19v-.2.31c-.36-.05-.66-.3-.78-.3h-.06v-18.09a.62.62 0 0 0-.16-.36c-.24-.17-.39-.16-.51 0a.28.28 0 0 0-.11.2v17.38a1 1 0 0 1-.46.56 1 1 0 0 1-.39.12h-.07c-.11 0-.22.38-.31.33a1.11 1.11 0 0 0-.5-.12h-.06v-18.1a.72.72 0 0 0-.07-.28c0-.06-.13-.23-.29-.23a.34.34 0 0 0-.25.08.32.32 0 0 0-.12.22v.31l-1.16 15.21c-.1.95-.22 2-.25 3v.88a9.32 9.32 0 0 0 1.76 4.89 9.77 9.77 0 0 1 2 4.28 22.47 22.47 0 0 1-.16 4.7c-.08.79-.16 1.6-.2 2.38l-.12 2.25c-.15 2.52-.28 5-.41 7.55-.1 1.92-.2 3.86-.31 5.82 0 .43-.09.84-.14 1.26a16 16 0 0 0-.12 4.88 3.16 3.16 0 0 0 .32.76v.07c0 .07.08.34.11.39A3.25 3.25 0 0 0 40 233z" fill="none" clip-rule="evenodd"/></clipPath><clipPath id="i"><path d="M219.52 67h-37V12h37zm-34-2h32V15h-32z" fill="none" clip-rule="evenodd"/></clipPath><clipPath id="j"><path d="M218.77 15h-35.25l-.69-2.59L191.06 7h20.16l8.23 5.41zM188 12h26.34l-3.83-2h-18.7z" fill="none" clip-rule="evenodd"/></clipPath><clipPath id="k"><path d="M214.52 62h-27V43h27zm-25-2h23V46h-23zm25-24h-27V17h27zm-25-3h23V19h-23z" fill="none" clip-rule="evenodd"/></clipPath><clipPath id="l"><path d="M205.52 54h-9v-2h9zm-16.15-8.93l-.65-2.14 22.51-6.84 2.28 7.5-2.13.65-1.63-5.36zM205.52 27h-9v-2h9z" fill="none" clip-rule="evenodd"/></clipPath><clipPath id="m"><path d="M352.85 186a3.84 3.84 0 0 1 4.09-4h10.45c2.39 0 4.46 1.59 4.46 4v1h2v-1c0-3.68-2.76-6-6.46-6h-10.45c-3.7 0-6.09 2.28-6.09 6v1h2z" fill="none" clip-rule="evenodd"/></clipPath><clipPath id="n"><path d="M382.94 189h-41.55c-3.88 0-6.54 2.44-6.54 6.3v24.26c0 3.86 2.66 7.44 6.54 7.44h41.54c3.88 0 6.91-3.57 6.91-7.44V195.3c.01-3.86-3.02-6.3-6.9-6.3zm4.91 30.56c0 2.56-2.35 5.44-4.91 5.44h-41.55c-2.57 0-4.54-2.88-4.54-5.44V195.3a4.28 4.28 0 0 1 4.54-4.3h41.54c2.57 0 4.91 1.75 4.91 4.3z" fill="none" clip-rule="evenodd"/></clipPath><clipPath id="o"><path d="M362.16 196.42a11.16 11.16 0 1 0 11.21 11.16 11.18 11.18 0 0 0-11.21-11.16zm6.69 13.58h-5v5h-4v-5h-4v-3h4v-6h4v6h5z" fill="none" clip-rule="evenodd"/></clipPath><clipPath id="p"><path d="M221.29 531.34l-.6-4 5.44-.91 2.1 12.55-12.55 2.1-2.1-12.55 4.82-.81.6 3.93zm-10.39-4.68l2.87 17.14 17.14-2.87-2.91-17.15z" fill="none" clip-rule="evenodd"/></clipPath><clipPath id="q"><path d="M184.65 518.05a1.49 1.49 0 0 0-1.5 1.29V527h3v-7.66a1.49 1.49 0 0 0-1.5-1.29" fill="none" clip-rule="evenodd"/></clipPath><clipPath id="r"><path d="M170.38 553.39A6.64 6.64 0 0 0 177 560a6.52 6.52 0 0 0 6.18-4.07h14.58a6.59 6.59 0 0 0 6.18 4.15 6.67 6.67 0 0 0 0-13.33c-3.44 0-6.34 3.14-6.6 6.57v.68h-13.7v-.66A6.86 6.86 0 0 0 177 547a6.49 6.49 0 0 0-4.59 1.74l-.36.29v-11.65a4.43 4.43 0 0 1 1.41-3.58 4 4 0 0 1 3.21-.8h8l.05-.4a15.32 15.32 0 0 1 4.07 4.06 17.8 17.8 0 0 1 3.07 6c.14.59.65 1.31 1.25 1.31h10.32l-7.27-29.82a1.76 1.76 0 0 0-.59-1 23.48 23.48 0 0 0-11.52-3 28.75 28.75 0 0 0-5.77.56c-.56.15-1.16.6-1.16 1.19V527h3v-14h.17a24.12 24.12 0 0 1 3.75-.29 20.46 20.46 0 0 1 9.76 2.29h.08v.3l6.2 25.7h-6l-.05-.35a23.28 23.28 0 0 0-3.15-5.65c-3.07-4.1-5-5.13-5.32-5.29-.16-.07-.34.09-.52.09l-8.29.2h-.11a6.89 6.89 0 0 0-4.91 1.68 7.62 7.62 0 0 0-2.23 5.77V548a7.15 7.15 0 0 0 1 4v.14a6.64 6.64 0 0 0-.12 1.25m33.62-4.06a4.06 4.06 0 1 1-4.06 4.06 4.06 4.06 0 0 1 4.06-4.06m-26.94 0a4.06 4.06 0 1 1-4.06 4.06 4.06 4.06 0 0 1 4.06-4.06" fill="none" clip-rule="evenodd"/></clipPath><clipPath id="s"><path d="M210.07 544.93L204 509.52l-2.56.29 5.82 33.75a9.54 9.54 0 0 1 2.84 1.37" fill="none" clip-rule="evenodd"/></clipPath><clipPath id="t"><path d="M229.54 547.6l-.44-2.53-16.35 2.71a9.61 9.61 0 0 1 1.05 2.43z" fill="none" clip-rule="evenodd"/></clipPath><clipPath id="u"><path d="M1035.09 22h-.7A21.3 21.3 0 0 0 993 22h-.22a1.68 1.68 0 0 0-1.71 1.94v6.74A2.33 2.33 0 0 0 992.8 33h1.49c1.91 0 1.81-2.31 1.81-2.31v-6.75a1.68 1.68 0 0 0-.88-1.65 19 19 0 0 1 36.86 0 2.19 2.19 0 0 0-1 1.67v6.74a2.13 2.13 0 0 0 .18.69 44.87 44.87 0 0 1-10.6.91h-1.43a2.89 2.89 0 1 0 0 2.23c.63 0 1.27.22 1.93.22 4.87 0 10.38.27 12.52-1.73h.93c1.91 0 2.46-2.31 2.46-2.31v-6.77c0-1.9-2.46-2.19-2.46-2.19" fill="none" clip-rule="evenodd"/></clipPath><clipPath id="v"><path d="M999 41.62l-.76-.92-8.15 8.3v14h47V49l-8.09-8.3-.78.92a20.65 20.65 0 0 1-29.22 0m29.75 3.19l.54-.44 5.76 5.72V60h-43v-9.9l5.95-5.72.59.44a23.57 23.57 0 0 0 30.22 0" fill="none" clip-rule="evenodd"/></clipPath><clipPath id="w"><path d="M1021.64 36.73a12.61 12.61 0 1 1 4.38-7c1.07-.06 2-.13 2.7-.21a15.2 15.2 0 1 0-3.26 7.14c-1.15.07-2.42.1-3.82.11" fill="none" clip-rule="evenodd"/></clipPath><clipPath id="x"><path d="M51.13 516.08l-.07-.1a7.25 7.25 0 0 0-5.24-1 5.91 5.91 0 0 0-3.73 3.19 1.28 1.28 0 0 0 2.26 1.2 3.47 3.47 0 0 1 2.12-1.92 4.7 4.7 0 0 1 3.21.61l15 12.93c-5.13-1-13.43-1.83-20.62.62a20.08 20.08 0 0 1-6.53 1.14 17.93 17.93 0 0 1-6.53-1.09h-.08c-7.18-2.45-15.46-1.59-20.59-.63l15.22-12.93a4.83 4.83 0 0 1 3.24-.61 3.49 3.49 0 0 1 2.21 1.9 1.28 1.28 0 0 0 2.26-1.2 5.93 5.93 0 0 0-3.78-3.19 7 7 0 0 0-5.16 1L5 532.37v5.81h.79c.33 0 .61 0 .95 2.79a18.15 18.15 0 0 0 3.09 8.88c2.53 3.76 8.78 6.53 16.57 3.74s8.75-9.2 9.3-12.64c0-.26.08-.51.12-.73a2.46 2.46 0 0 1 .79-1.65 1 1 0 0 1 .66-.16l.24.06.24-.06a1 1 0 0 1 .64.14 2.42 2.42 0 0 1 .82 1.66c0 .23.08.47.12.73.54 3.45 1.56 9.86 9.3 12.64a18.41 18.41 0 0 0 6.23 1.14c4.83 0 8.55-2.19 10.36-4.88a18.2 18.2 0 0 0 3.11-8.84c.34-2.76.37-2.77.88-2.79H70v-5.81zM68 536.47c-1 .46-1.44 1.9-1.73 4.31a16.37 16.37 0 0 1-2.73 8c-1.78 2.64-7 5.63-14.32 3-6.68-2.4-7.53-7.87-8-11.14 0-.27-.07-.52-.11-.76a4.13 4.13 0 0 0-1.69-2.88 2.84 2.84 0 0 0-1.55-.45h-.36a2.86 2.86 0 0 0-1.92.43 4.13 4.13 0 0 0-1.66 2.94c0 .23-.08.49-.12.76-.52 3.27-1.38 8.75-8.06 11.14-7.29 2.62-12.58-.36-14.36-3a16.25 16.25 0 0 1-2.65-8c-.25-2.06-.74-3.73-1.74-4.28v-2.71c3-.77 14.26-3.49 23.45-.37a19 19 0 0 0 7.14 1.27 19.89 19.89 0 0 0 7-1.27C53.77 530.3 65 533 68 533.8z" fill="none" clip-rule="evenodd"/></clipPath><clipPath id="y"><path d="M14.14 546.91a1 1 0 0 1-.67-1.63l10.12-10.12a1 1 0 1 1 1.35 1.35l-10.13 10.12a1 1 0 0 1-.67.28" fill="none" clip-rule="evenodd"/></clipPath><clipPath id="z"><path d="M18.69 548.39a.64.64 0 0 1-.45-1.08l7.37-7.37a.64.64 0 1 1 .9.9l-7.37 7.37a.63.63 0 0 1-.45.19" fill="none" clip-rule="evenodd"/></clipPath><clipPath id="A"><path d="M50.26 548.71a1 1 0 0 1-.67-1.63L59.71 537a1 1 0 1 1 1.35 1.35l-10.12 10.08a1 1 0 0 1-.67.28" fill="none" clip-rule="evenodd"/></clipPath><clipPath id="B"><path d="M48.46 543.84a.64.64 0 0 1-.45-1.08l7.37-7.36a.64.64 0 0 1 .9.9l-7.37 7.36a.63.63 0 0 1-.45.19" fill="none" clip-rule="evenodd"/></clipPath><clipPath id="C"><path d="M552.16 209h-54v-3.95c0-11.7 12.35-21.23 27-21.23s27 9.52 27 21.23zm-51-2h48v-1.95c0-10.36-10.69-18.78-24-18.78s-24 8.43-24 18.78z" fill="none" clip-rule="evenodd"/></clipPath><clipPath id="D"><path d="M538.91 195.77a14 14 0 0 0-6.84-3.4l.46-2.27a16.31 16.31 0 0 1 8 4z" fill="none" clip-rule="evenodd"/></clipPath><clipPath id="E"><path fill="none" d="M524.16 179h2v4h-2z"/></clipPath><clipPath id="F"><path fill="none" d="M520.16 177h10v3h-10z"/></clipPath><clipPath id="G"><path fill="none" d="M522.16 182h6v4h-6z"/></clipPath><clipPath id="H"><path fill="none" d="M496.16 212h58v2h-58z"/></clipPath><clipPath id="I"><path fill="none" d="M494.16 216h62v3h-62z"/></clipPath><clipPath id="J"><path d="M553.87 35h-6.6a25.94 25.94 0 0 0-48.34 0h-.77c-2.69 0-4.71 1.6-4.71 4.29V50h8a7.14 7.14 0 0 0 14.15 0h16.3a7.14 7.14 0 0 0 14.1 0h12.59l-.06-1.14c0-.11-.12-.38-.12-.49v-9.08c.05-2.69-1.84-4.29-4.54-4.29zm-8.77 0h-20.64V19.92A23.4 23.4 0 0 1 545.1 35zm-22.64-15.08V35h-21.35a23.25 23.25 0 0 1 21.35-15.08zm-27 19.37c0-1.59 1.12-2.29 2.71-2.29h24.29v11h-6.85a7.14 7.14 0 0 0-14.15 0h-6zm13.08 14.55a5.16 5.16 0 1 1 5.15-5.16 5.16 5.16 0 0 1-5.16 5.17zm30.44 0a5.16 5.16 0 1 1 5.15-5.16 5.16 5.16 0 0 1-5.13 5.17zM556.46 48H546a7.14 7.14 0 0 0-14.15 0h-7.44V37h29.42c1.59 0 2.58.7 2.58 2.29z" fill="none" clip-rule="evenodd"/></clipPath><clipPath id="K"><path d="M859 360h-2.53c.05-1-.21-1.41-.8-1.73a2.65 2.65 0 0 0-1.14-.42 2.06 2.06 0 0 0-1 .12.58.58 0 0 0-.36.47 1.61 1.61 0 0 0 .45 1 5.31 5.31 0 0 1 1 1.75 1.42 1.42 0 0 1-.24 1.08 3.09 3.09 0 0 1-1.15 1 6.13 6.13 0 0 1-1.82.63 7.56 7.56 0 0 1-2 .12 8.51 8.51 0 0 1-2.15-.5l-1.56.82-1.37-.73 1.53-.8a3.37 3.37 0 0 1-1.12-1.12 2.81 2.81 0 0 1-.3-1.61h2.8a2 2 0 0 0 1.09 2.11 3.18 3.18 0 0 0 1.51.34 3 3 0 0 0 1.47-.31 1.07 1.07 0 0 0 .59-.62 1.43 1.43 0 0 0-.34-1 6.69 6.69 0 0 1-1-1.89 1.34 1.34 0 0 1 .2-1 2.56 2.56 0 0 1 1-.81 5.78 5.78 0 0 1 2.67-.57 6 6 0 0 1 2.73.6l1.31-.68 1.26.7-1.39.74a2.66 2.66 0 0 1 .66.84 5 5 0 0 1 .13 1.33M848 377.55v-3.65l11 5.92h1.37l21.9-13.43h.06l-.06-2.24-11-6 .22-.14-.06-2.24-14.66-8-.59-.28-2.28 1.28-11.34-6.13h-1.28l-21.89 13.43h-.05l.06 2.18v.06l11.6 6.31v3.66L819.3 362l.06 3.08L831 371.3v3.41l-11.67-6.29.06 3 11.61 6.31v2.47l15.22 8.17 1.82-1.14V387l10.96 5.94h1.37l21.7-13.43h-.13v-3l-22.55 13.73L848 384v-3.41l11 5.91h1.37L882.1 373h-.13v-2.88l-22.55 13.65zm31.2-12.25l-19.46 11.94-10.47-5.66 19.41-12zm-47-2.82l-9.87-5.33.16-.1 19.51-12h.06l9.72 5.25-19.58 12.21zm14.21 8.12l-.39 1v13.53l-12-6.5v-14.2l22.43-14.11 12.1 6.61z" fill="none" clip-rule="evenodd"/></clipPath><clipPath id="L"><path d="M683.56 62c-.59 0-1.5-.48-1.5-1.08v-5.75c0-.6.91-1.08 1.5-1.08s1.5.48 1.5 1.08v5.75c0 .6-.9 1.08-1.5 1.08" fill="none" clip-rule="evenodd"/></clipPath><clipPath id="M"><path d="M693.56 62c-.59 0-1.5-.48-1.5-1.08v-5.75c0-.6.91-1.08 1.5-1.08s1.5.48 1.5 1.08v5.75c0 .6-.9 1.08-1.5 1.08" fill="none" clip-rule="evenodd"/></clipPath><clipPath id="N"><path d="M688.6 46.9a1.08 1.08 0 0 1-1.08-1.08 1.07 1.07 0 0 1 .32-.76 1.11 1.11 0 0 1 1.52 0 1.08 1.08 0 0 1 .32.76 1.08 1.08 0 0 1-1.08 1.08" fill="none" clip-rule="evenodd"/></clipPath><clipPath id="O"><path d="M688.6 47.25a1.43 1.43 0 0 1-1.43-1.43 1.4 1.4 0 0 1 .42-1 1.51 1.51 0 0 1 2 0 1.43 1.43 0 0 1-1 2.43m0-2.14a.71.71 0 0 0-.73.72.74.74 0 0 0 .21.52.76.76 0 0 0 1 0 .74.74 0 0 0 .22-.52.71.71 0 0 0-.73-.72" fill="none" clip-rule="evenodd"/></clipPath><clipPath id="P"><path d="M698.06 63H678.9a1 1 0 1 1 0-2h19.4c.6 0 1.08.16 1.08.76a1.12 1.12 0 0 1-1.08 1.12" fill="none" clip-rule="evenodd"/></clipPath><clipPath id="Q"><path d="M662.73 13a1.49 1.49 0 0 0-1.67 1.55v33.07c0 1 .68 2.38 1.67 2.38h51c1 0 1.31-1.39 1.31-2.38V14.55c0-1-.32-1.55-1.31-1.55zm51 39h-51c-2.18 0-3.67-2.2-3.67-4.38V14.55a3.39 3.39 0 0 1 3.67-3.55h51c2.18 0 4.31 1.36 4.31 3.55v33.07a4.66 4.66 0 0 1-4.29 4.38z" fill="none" clip-rule="evenodd"/></clipPath><clipPath id="R"><path d="M715.06 43h-54.85a1 1 0 1 1 0-2h55.33c.6 0 1.08.16 1.08.76a1.12 1.12 0 0 1-1.08 1.12" fill="none" clip-rule="evenodd"/></clipPath><clipPath id="S"><path fill="none" d="M666.06 17h44v5h-44z"/></clipPath><clipPath id="T"><path fill="none" d="M701.06 24h9v14h-9z"/></clipPath><clipPath id="U"><path fill="none" d="M666.06 24h32v1h-32z"/></clipPath><clipPath id="V"><path fill="none" d="M666.06 26h32v1h-32z"/></clipPath><clipPath id="W"><path fill="none" clip-rule="evenodd" d="M698.06 32h-32 32z"/></clipPath><clipPath id="X"><path fill="none" d="M666.06 29h32v1h-32z"/></clipPath><clipPath id="Y"><path fill="none" d="M666.06 34h32v1h-32z"/></clipPath><clipPath id="Z"><path fill="none" d="M666.06 37h32v1h-32z"/></clipPath><clipPath id="aa"><path d="M37.14 372.49A16.51 16.51 0 1 1 53.64 356a16.52 16.52 0 0 1-16.5 16.51m0-30.4A13.89 13.89 0 1 0 51 356a13.9 13.9 0 0 0-13.86-13.9" fill="none" clip-rule="evenodd"/></clipPath><clipPath id="ab"><path d="M63 397H11v-19.37l9.11-7.87.9.86a22.81 22.81 0 0 0 32.23 0l.86-.93 8.91 9zm-49-3h47v-14.23l-6.62-6.39a25.51 25.51 0 0 1-17.12 6.53 25.06 25.06 0 0 1-17-6.59l-6.26 5.5z" fill="none" clip-rule="evenodd"/></clipPath><clipPath id="ac"><path fill="none" clip-rule="evenodd" d="M37.14 387.92l-4.19-9.08 2.38-1.1 1.81 3.92 1.81-3.92 2.38 1.1-4.19 9.08z"/></clipPath><clipPath id="ad"><path fill="none" clip-rule="evenodd" d="M33.81 395.15l-2.37-1.11 5.77-12.38 5.64 12.33-2.39 1.09-3.27-7.16-3.38 7.23z"/></clipPath><clipPath id="ae"><path fill="none" clip-rule="evenodd" d="M49.96 385.27L40 381.24l.99-2.44 6.83 2.77 1.02-7.3 2.6.36-1.48 10.64z"/></clipPath><clipPath id="af"><path fill="none" clip-rule="evenodd" d="M24.32 385.27l-1.48-10.64 2.6-.36 1.02 7.3 6.84-2.77.98 2.44-9.96 4.03z"/></clipPath><clipPath id="ag"><path d="M688.42 537.21a8 8 0 1 1 8-8 8 8 0 0 1-8 8m0-13.92a5.93 5.93 0 1 0 5.93 5.93 5.94 5.94 0 0 0-5.93-5.93" fill="none" clip-rule="evenodd"/></clipPath><clipPath id="ah"><path d="M700.73 555h-25v-14.87l4.71-4.54.81.72a10.09 10.09 0 0 0 14.21 0l.73-.72 4.54 4.54zm-23-2h21v-12l-2.53-2.52a12 12 0 0 1-7.77 2.83 12.52 12.52 0 0 1-8-2.83l-2.7 2.52z" fill="none" clip-rule="evenodd"/></clipPath><clipPath id="ai"><path d="M705.88 531a8.09 8.09 0 1 1 8.12-8 8.09 8.09 0 0 1-8.08 8.09m0-14.12a6 6 0 1 0 6 6 6 6 0 0 0-6-6" fill="none" clip-rule="evenodd"/></clipPath><clipPath id="aj"><path d="M717.73 548h-15v-2h13v-11.29l-2.3-2.52a11.68 11.68 0 0 1-7.66 2.83 11.85 11.85 0 0 1-8.47-3.53l1.48-1.45a10 10 0 0 0 14.16 0l.48-.72 4.3 4.54z" fill="none" clip-rule="evenodd"/></clipPath><clipPath id="ak"><path d="M670.95 530.86a7.9 7.9 0 1 1 7.9-7.9 7.91 7.91 0 0 1-7.9 7.9m0-13.75a5.85 5.85 0 1 0 5.84 5.85 5.85 5.85 0 0 0-5.84-5.85" fill="none" clip-rule="evenodd"/></clipPath><clipPath id="al"><path d="M673.73 548h-15v-14.14l4.48-4.54.7.72A10 10 0 0 0 678 530l1.45 1.45a12 12 0 0 1-16.26.69l-2.49 2.52V546h13z" fill="none" clip-rule="evenodd"/></clipPath><clipPath id="am"><path d="M38.56 16.52a5.9 5.9 0 1 1 5.91-5.9 5.91 5.91 0 0 1-5.91 5.9m0-10.16a4.25 4.25 0 1 0 4.26 4.25 4.26 4.26 0 0 0-4.26-4.25" fill="none" clip-rule="evenodd"/></clipPath><clipPath id="an"><path d="M33.35 18.87a1 1 0 0 0 .79 1.73 12 12 0 0 1 4.4-.6 8.76 8.76 0 0 1 4.3.84.95.95 0 1 0 1.05-1.58c-.18-.12-1.84-1.16-5.35-1.16a13.23 13.23 0 0 0-5.19.77zM22.87 25a1.9 1.9 0 1 0 1.9 1.9 1.9 1.9 0 0 0-1.9-1.9zm39 8c-1.23-8-8.37-15.4-17.35-17.75A6.8 6.8 0 0 1 43 16.73c9.23 2 16.32 8.79 17.32 17.44a17.29 17.29 0 0 1 .13 2v1a18.51 18.51 0 0 1-4.54 11 1 1 0 0 0-.22.74L57 59.2a.73.73 0 0 1-.14.56.7.7 0 0 1-.51.24h-8.27a1.24 1.24 0 0 1-1.13-1l-.41-3.1a1 1 0 0 0-.43-.68.93.93 0 0 0-.51-.15 1 1 0 0 0-.29 0 25.65 25.65 0 0 1-7.78 1.19 26 26 0 0 1-5.65-.62.95.95 0 0 0-1.15.8L30.4 59a1.24 1.24 0 0 1-1.13 1H21a.67.67 0 0 1-.65-.79L21.43 51a1 1 0 0 0-.31-.83A19.83 19.83 0 0 1 15.61 42a1 1 0 0 0-.84-.64h-.09L11 40.94a1.2 1.2 0 0 1-1-1.12V32.5a1.2 1.2 0 0 1 1-1.12l3.67-.46h.1a1 1 0 0 0 .84-.64 19.78 19.78 0 0 1 5.12-7.8 1 1 0 0 0 .26-1l-2.23-7.69a.74.74 0 0 1 0-.21h.21a36.27 36.27 0 0 1 9.52 3.67 1 1 0 0 0 .79.08 25.42 25.42 0 0 1 4.47-1.08 7.51 7.51 0 0 1-1.47-1.68 27 27 0 0 0-3.2.82 38 38 0 0 0-9.72-3.67 2.05 2.05 0 0 0-2.13.67 2.11 2.11 0 0 0-.27 1.9L19 21.52a21.78 21.78 0 0 0-5 7.58l-3.31.41A3.13 3.13 0 0 0 8 32.5v7.33a3.12 3.12 0 0 0 2.72 3l3.27.41a21.83 21.83 0 0 0 5.48 8l-1 7.68a2.74 2.74 0 0 0 .6 2.11A2.66 2.66 0 0 0 21 62h8.26a3.16 3.16 0 0 0 3-2.72l.2-1.52a28 28 0 0 0 12.31-.52l.26 2.06a3.15 3.15 0 0 0 3 2.71h8.26a2.64 2.64 0 0 0 2.54-3l-1.3-9.84a20.4 20.4 0 0 0 4.72-11.83v-.09h-.11v-1.31a3.83 3.83 0 0 0 1.92.51 4.89 4.89 0 0 0 1.76-.32c.79.66 1.13 1.06 3.13 1.06v-1.67a2.68 2.68 0 0 1-1.74-.43 3.73 3.73 0 0 0 .81-2.48 1.87 1.87 0 0 0-2-1.78A2.27 2.27 0 0 0 64 33h2.31c0 1-.14.88-.38 1.23-.17-.37-.27-.23-.27-1.23H64a3.25 3.25 0 0 0 .54 1.95c-.14 0-.28.14-.43.14A2.25 2.25 0 0 1 61.92 33z" fill="none" clip-rule="evenodd"/></clipPath><clipPath id="ao"><path d="M371.3 61.93h-2.39V40.85l1.11-.08c8.37-.59 14.29-3.4 17.6-8.37 4.9-7.36 2.78-17.52 2-20.59-9.15.92-15.77 4.06-19.68 9.32-5.52 7.42-3.72 16.62-3.7 16.71l-2.34.51s-1-3.17-9-3.84c-6.92-.57-14.4 4.56-17.23 6.74 3.26 2.22 13 7.37 25.36 1.26l1.84-.85V62h-3V45.48a27.13 27.13 0 0 1-10.72 2.29 26.82 26.82 0 0 1-16.31-5.55l-1-.91 1.07-.92c.42-.37 10.46-9.08 20.19-8.28 4.16.35 6.78 1.35 8.42 2.43A24.24 24.24 0 0 1 368 19.68c4.48-6 12-9.51 22.38-10.37l.94-.08.3.9a36.25 36.25 0 0 1 1.46 8.07c.43 6.12-.77 11.49-3.45 15.53-3.59 5.4-9.75 8.54-18.31 9.35z" fill="none" clip-rule="evenodd"/></clipPath><clipPath id="ap"><path d="M346.14 41.58l-.87-1.58c.35-.2 8.71-4.78 14.78-1l-.95 1.54c-5.19-3.25-12.89 1-13 1" fill="none" clip-rule="evenodd"/></clipPath><clipPath id="aq"><path d="M372.43 35.35l-1.7-.58a31.45 31.45 0 0 1 14.17-17.32l.81 1.62a30.18 30.18 0 0 0-13.27 16.28" fill="none" clip-rule="evenodd"/></clipPath><clipPath id="ar"><path fill="none" clip-rule="evenodd" d="M835.43 14l-9.35 8.88V33h.03l19.17-19h-9.85z"/></clipPath><clipPath id="as"><path fill="none" clip-rule="evenodd" d="M849.74 14l-19.17 19h9.85l19.17-19h-9.85z"/></clipPath><clipPath id="at"><path fill="none" clip-rule="evenodd" d="M876.08 15.01L858.91 33h9.85l7.32-8.08v-9.91z"/></clipPath><clipPath id="au"><path fill="none" clip-rule="evenodd" d="M864.41 14l-19.17 19h9.85l19.17-19h-9.85z"/></clipPath><clipPath id="av"><path fill="none" clip-rule="evenodd" d="M826.08 14v6.14l6.63-6.14h-6.63z"/></clipPath><clipPath id="aw"><path fill="none" clip-rule="evenodd" d="M876.08 33v-4.94L871.89 33h4.19z"/></clipPath><clipPath id="ax"><path d="M867.08 40h-32v-4h-3v22.43a1.51 1.51 0 1 0 3 0V43h32v15.43a1.51 1.51 0 1 0 3 0V36h-3z" fill="none" clip-rule="evenodd"/></clipPath><clipPath id="ay"><path d="M852 518v6.19c2-.54 3.59-1.28 6-1.32 7.71-.11 12.84 5.89 12.26 14.16-.42 6-5 12.33-8.42 16.63-1.67 2.11-3.19 4.76-5.35 5.76s-3.84.19-5.36-1.15c-1 .41-2 1.56-3.25 1.65-2.47.16-4.28-2.32-5.85-4.28-1.7-2.12-3.3-3.81-4.55-5.6-2.79-4-5.85-8.75-5.85-14.33 0-7 4.57-12.84 12-12.84 2.48 0 3.77 1 6 1.76.11-2.25-.22-4.63.16-6.63zm-10 7.67a8.14 8.14 0 0 0-5.36 3 12.36 12.36 0 0 0-2.28 8.73c.6 5.89 5.6 11.57 8.94 15.64 1.23 1.5 2.67 4.07 4.06 4.12 1.13 0 2.29-1.51 3.74-1.48 1.21 0 2.55 1.53 3.58 1.48 1.37-.06 3.09-2.68 4.23-4.12 1.42-1.8 2.7-3.26 3.74-4.78 2.6-3.77 5.33-8.21 5-13.34-.35-6.31-6.29-11.64-13.49-8.56-1.46.63-1.89 1.42-3.25 2.31-2.48-1.99-4.61-3.52-8.91-3z" fill="none" clip-rule="evenodd"/></clipPath><clipPath id="az"><path d="M866.2 509.2c-.2 3.47.45 6.71-.49 8.89-1.71 4-6.2 3.57-11.87 3.46.23-3.28-.45-6.4.32-8.56 1.53-4.29 6.2-3.95 12-3.79m-9.75 9.72c5.76.77 7.85-1.13 7-7.08-5.57-.93-7.84 1.5-7 7.08" fill="none" clip-rule="evenodd"/></clipPath><clipPath id="aA"><path d="M199.8 195.24L206 199l-1.65-7.07 5.49-4.76-7.23-.61-2.82-6.67-2.79 6.66-7.23.61 5.49 4.76-1.67 7.08zm-1 38.09a1.57 1.57 0 0 1-1-.36l-16.24-13.48a1.58 1.58 0 0 1-.57-1.21v-46.63c0-.87.71-.65 1.58-.65h34c.87 0 1.46-.22 1.46.65v46.61a1.52 1.52 0 0 1-.56 1.26L199.77 233a1.49 1.49 0 0 1-.92.32zM184 217.52l14.79 12.21L215 217.48V174h-31z" fill="none" clip-rule="evenodd"/></clipPath><clipPath id="aB"><path d="M705.32 187.65a2.29 2.29 0 0 1-3.1-.06 2.24 2.24 0 0 1-.06-3.1l6.16-4.47 1.51 1.51zm-20.6 23.81l-.13.12a1.34 1.34 0 0 1-1.85 0l-4.51-4.51a1.31 1.31 0 0 1 0-1.85l.12-.13a1.31 1.31 0 0 1 1.85 0l4.51 4.52a1.31 1.31 0 0 1 0 1.85zM670 223.71a2.77 2.77 0 0 1-3.8 0 2.71 2.71 0 0 1 0-3.8l11.52-10 2.24 2.25zm38.61-46.85l-7.92 5.74-.14.12a4.65 4.65 0 0 0-.73 5.6l-16.46 16.47-1.4-1.4a3.73 3.73 0 0 0-5.27 0l-.12.12a3.71 3.71 0 0 0-.51 4.62l-11.5 9.94-.06.06a5.13 5.13 0 1 0 7.25 7.26l10-11.58a3.71 3.71 0 0 0 4.64-.5l.12-.12a3.73 3.73 0 0 0 0-5.27l-1.4-1.4L701.49 190a4.59 4.59 0 0 0 5.6-.73l5.92-8z" fill="none" clip-rule="evenodd"/></clipPath><clipPath id="aC"><path d="M711.34 218l-18.63-17.44-1.71 1.72 18.65 17.47a2.71 2.71 0 0 1-1.92 4.63 2.67 2.67 0 0 1-1.89-.77l-17.5-18.68-1.71 1.71 17.47 18.65a5.13 5.13 0 0 0 7.25 0 5.15 5.15 0 0 0 0-7.28" fill="none" clip-rule="evenodd"/></clipPath><clipPath id="aD"><path d="M674.78 198.14a9.44 9.44 0 0 1-9.43-9.43v-.76l3.39 3.39a5.93 5.93 0 0 0 8.37 0l.26-.26a5.94 5.94 0 0 0 0-8.38l-3.37-3.39h.76a9.43 9.43 0 0 1 0 18.87zm10.11 3.31l-3-3.25a12 12 0 0 0 2.21-2.14l3.21 3 1.71-1.71-3.64-3.35a11.84 11.84 0 0 0-14.18-16.57l-1.9.6 6.39 6.4a3.51 3.51 0 0 1 0 5l-.26.26a3.51 3.51 0 0 1-5 0l-6.39-6.39-.6 1.9a11.83 11.83 0 0 0 16.23 14.35l3.46 3.7z" fill="none" clip-rule="evenodd"/></clipPath><clipPath id="aE"><path d="M863.78 196.92v-9a13 13 0 1 0-26 0V197a7.08 7.08 0 0 0-5 6.8v19.56c0 4 3.05 7.66 7 7.66h22.38c4 0 6.61-3.7 6.61-7.66v-19.58a7 7 0 0 0-4.99-6.86zm-13-19.84a11 11 0 0 1 11 10.84V197h-5v-9.08a6.5 6.5 0 0 0-13 0V197h-4v-9.08a11 11 0 0 1 11-10.83zm-5 19.91v-9.08a4.5 4.5 0 1 1 9 0V197zm21 26.34a4.6 4.6 0 0 1-4.61 4.66h-22.38a5 5 0 0 1-5-4.66v-19.55c0-2.58 2.43-3.78 5-3.78h22.38c2.58 0 4.61 1.2 4.61 3.78z" fill="none" clip-rule="evenodd"/></clipPath><clipPath id="aF"><path d="M851.59 208a4.07 4.07 0 0 0-4.09 4 4.64 4.64 0 0 0 2.28 3.65V221h4v-5.39c0-.6 2-2 2-3.65a4.18 4.18 0 0 0-4.21-3.95" fill="none" clip-rule="evenodd"/></clipPath><clipPath id="aG"><path d="M1040.84 196.89l-8.59-15.9a1 1 0 0 0 .49-.86c0-.56-.2-1-.76-1l-17 2.62v-.48c0-.56-.94-1-1.5-1s-1.5.45-1.5 1v.73l-17 2.62a.91.91 0 0 0-.89 1 1.06 1.06 0 0 0 .54.85l-8.29 15.41a1 1 0 0 0-1 1 10.34 10.34 0 0 0 20.67 0 1 1 0 0 0-1-1l-8.6-15.48 15.52-2.39V219h-6.18c-1.36 0-2.82 0-2.82 1.4v3a4.17 4.17 0 0 1 .41 1.58h-4.08a1 1 0 1 0 0 2h28.35a1 1 0 1 0 0-2h-4.08a4.14 4.14 0 0 1 .41-1.58v-3c0-1.36-1.47-1.4-2.82-1.4H1015v-35.25l15.82-2.44-8.53 15.58a1.06 1.06 0 0 0-1 1 10.31 10.31 0 1 0 20.62 0 1 1 0 0 0-1.07-1zM987.5 202l7.5-14.57V202zm8.5-14.11l7.94 14.11H996zm-.27 23.42a8.5 8.5 0 0 1-8.25-7.31H1004a8.5 8.5 0 0 1-8.3 7.31zm27.55-14.31l7.69-14.62V197zm8.69-14.15l7.72 14.15H1032zm-.49 23.46a8.5 8.5 0 0 1-8.25-7.31h16.5a8.5 8.5 0 0 1-8.25 7.31z" fill="none" clip-rule="evenodd"/></clipPath><clipPath id="aH"><path d="M524 524h-10.74l-.28.08c-.12.2-11.7 19.95-2.19 41.29l.25.63h19.27l.29-.62c.16-.2 15.41-19.71-6.28-41.36zm5.32 40H512.3c-7.87-18 .46-35 2.07-38h8.87c18.76 18 8.09 36 6.12 38z" fill="none" clip-rule="evenodd"/></clipPath><clipPath id="aI"><path d="M511.15 514.71c.63.33 1.71 1.53 1.71 5.85V522h11v-4.54l2-1.46h3v-9h-15.05l-.23-.5c-.2 0-5 1-6.54 7.93l-.54 2.28 2-1.48s1.54-1.08 2.62-.51m2.71-6.71h13v6h-2l-3 2.83V520h-7.11c-.13-3-1-5.91-2.72-6.79a4 4 0 0 0-2.56-.56c1.43-3.71 3.95-4.83 4.47-4.83" fill="none" clip-rule="evenodd"/></clipPath><clipPath id="aJ"><path d="M528.55 516.71l-3 2.34.08.22c1.94 5.6 5.15 7.36 5.28 7.43h.5c.51 0 1.32-.09 1.56-.61s0-1-.76-1.66c-1.91-1.84-3-5-3.53-7.29z" fill="none" clip-rule="evenodd"/></clipPath><clipPath id="aK"><path d="M530.86 507h-1v10h1.05a5.24 5.24 0 0 0 5.18-5.24 4.94 4.94 0 0 0-5.18-4.88m.95 8.12v-7a3.75 3.75 0 0 1 2.29 3.11 4.13 4.13 0 0 1-2.29 3.35" fill="none" clip-rule="evenodd"/></clipPath><clipPath id="aL"><path d="M538.86 512h4c.35 0 .64-.15.64-.5s-.29-.5-.64-.5h-4.46c-.35 0-.64-.1-.64.26a.62.62 0 0 0 .64.62" fill="none" clip-rule="evenodd"/></clipPath><clipPath id="aM"><path d="M538.4 508.58a.64.64 0 0 0 .35-.1l5.56-3.63a.64.64 0 1 0-.7-1.07L538 507.4a.64.64 0 0 0 .35 1.18" fill="none" clip-rule="evenodd"/></clipPath><clipPath id="aN"><path d="M544.31 517l-5.56-3.63a.64.64 0 1 0-.7 1.07l5.56 3.63a.64.64 0 1 0 .7-1.07" fill="none" clip-rule="evenodd"/></clipPath><clipPath id="aO"><path d="M200.25 398.07a2.48 2.48 0 0 1-2.5-2.34v-18.2c0-1.29 1.2-.33 2.5-.33s2.5-1 2.5.33v18.2a2.48 2.48 0 0 1-2.5 2.34" fill="none" clip-rule="evenodd"/></clipPath><clipPath id="aP"><path d="M211.75 400H187.5a3.5 3.5 0 0 1 0-7H212a3.28 3.28 0 0 1 3.36 3.26 3.6 3.6 0 0 1-3.36 3.62" fill="none" clip-rule="evenodd"/></clipPath><clipPath id="aQ"><path d="M200.75 374.85a8 8 0 0 1-8-7.85v-21.86a7.79 7.79 0 0 1 7.92-7.69c4.32 0 8.08 3.1 8.08 7.33V367a8 8 0 0 1-8 7.85zm-.58-34.72a5.21 5.21 0 0 0-5.42 5V367a5.51 5.51 0 0 0 11 0v-21.53a5.38 5.38 0 0 0-5.58-5.34zm8.25 5.87z" fill="none" clip-rule="evenodd"/></clipPath><clipPath id="aR"><path d="M210.75 356v11a10 10 0 0 1-20 0v-11h-3v11a13 13 0 0 0 26 0v-11z" fill="none" clip-rule="evenodd"/></clipPath><clipPath id="aS"><path d="M341.92 361h8v30h-8zm-2 32h13v-34h-13z" fill="none" clip-rule="evenodd"/></clipPath><clipPath id="aT"><path d="M346.23 385.28a1.59 1.59 0 1 0 1.68 1.59 1.64 1.64 0 0 0-1.68-1.59" fill="none" clip-rule="evenodd"/></clipPath><clipPath id="aU"><path d="M383.75 365.86c.71-1.13 1.78-2.39 1.24-3.66-1.32-3.13-3.23-4.54-6.59-4.68-2.81-.12-3.35-.09-6.16-.16-.8 0-1.59-.16-2.58-.26.85-1.3 1.52-2.48 2.34-3.56a9.21 9.21 0 0 0 2-6.64 10.29 10.29 0 0 0-2.71-6.43 4 4 0 0 0-2.19-1.28 3.73 3.73 0 0 0-4.53 3.43c-.44 3.94-1.87 7.36-5.33 9.88a9.92 9.92 0 0 0-3.3 4.49c-.24.59-.43 1.2-.68 1.79a15.34 15.34 0 0 1-2.4 4.32 4.41 4.41 0 0 1-.91.56v3.62c0-.4.45-.71.85-1a10.67 10.67 0 0 0 4.09-5c.45-1 .87-2 1.25-3.07a9.52 9.52 0 0 1 3.25-4.36 14.83 14.83 0 0 0 5.63-10 8.29 8.29 0 0 1 .46-1.77.91.91 0 0 1 1.39-.38 3.77 3.77 0 0 1 1.14 1.05c1.81 2.93 2.1 5.91.19 8.93-.77 1.21-1.52 2.44-2.29 3.66-1.25 2-.32 3.23 1.42 3.89a7.79 7.79 0 0 0 2.33.48c3.37.16 4.47.24 7.84.39a3.22 3.22 0 0 1 2.9 2.9c.08 1.06-.91 2-1.54 2.88s.16 1.71.83 2.56a3.92 3.92 0 0 1 .72 1.21 2 2 0 0 1-.28 2c-.36.4-1.43.84-1.77 1.26-.54.66 0 1.26.46 2.14a3 3 0 0 1-.56 3.6 4.73 4.73 0 0 0-1 1.41 3.84 3.84 0 0 0-.12 1.41c0 .2.13.41.14.62 0 1.36.41 1.6-1 2.54a5.85 5.85 0 0 1-3 1.26 27.58 27.58 0 0 1-8.49.61c-2.28-.21-4.54-.75-6.8-1.15s-4.64-.85-6.95-1.25c-.64-.11-1.06-.19-1.06-.53v3.74c0-.1.27-.22.36-.37a.8.8 0 0 1 1-.37c1.92.35 3.86.63 5.75 1.07 3.3.77 6.57 1.63 10 1.43 3.62-.21 4.93-.74 8.42-1.66a7.2 7.2 0 0 0 4.07-2.67 2.12 2.12 0 0 0 .54-2 3 3 0 0 1 .79-3.39 3.49 3.49 0 0 0 .84-3.74c-.39-1-.94-1.75-.25-2.56 1.27-1.49 2.21-3.12 1.12-4.77-.57-.86-1.33-1.6-.78-2.48" fill="none" clip-rule="evenodd"/></clipPath><clipPath id="aV"><path d="M536.53 387.27a3.43 3.43 0 0 0-.76-.19 3.57 3.57 0 0 0-2.93 1.06 5.17 5.17 0 0 0-1.49 3.25 4.8 4.8 0 0 0 2.72 5.06 3.35 3.35 0 0 0 .76.19h.4a3.62 3.62 0 0 0 2.53-1.08 5.18 5.18 0 0 0 1.49-3.24 4.81 4.81 0 0 0-2.72-5.06m1.53 4.94a4 4 0 0 1-1.12 2.48 2.39 2.39 0 0 1-2 .73 2.13 2.13 0 0 1-.49-.12 3.58 3.58 0 0 1-1.94-3.8 4 4 0 0 1 1.13-2.48 2.45 2.45 0 0 1 1.7-.74h.25a2.23 2.23 0 0 1 .5.12 3.59 3.59 0 0 1 1.94 3.8" fill="none" clip-rule="evenodd"/></clipPath><clipPath id="aW"><path d="M511 375.07c-3-1.07-6.58.4-8.5 3.48a8.32 8.32 0 0 0-1.23 5.55 6.38 6.38 0 0 0 2.84 4.59 5.77 5.77 0 0 0 1.23.6 6.06 6.06 0 0 0 2 .34 7.52 7.52 0 0 0 4.86-1.93c2.14-1.68 3.07-5.84 2.84-7.45a6.79 6.79 0 0 0-.79-2.39l9.27-5.12v-5.22l-12.2 7.7zm11.47-5.51v2.52l-9.76 5.39.35.51a5.6 5.6 0 0 1 .93 2.43c.19 1.35-.72 5.07-2.45 6.42a6 6 0 0 1-5.83 1.39 4.7 4.7 0 0 1-1-.49 5.28 5.28 0 0 1-2.34-3.8 7.19 7.19 0 0 1 1.07-4.79 6.71 6.71 0 0 1 5.52-3.3 5 5 0 0 1 1.68.29 4.85 4.85 0 0 1 .56.24l.28.14z" fill="none" clip-rule="evenodd"/></clipPath><clipPath id="aX"><path d="M543.25 399.33c-.74-.88-2.28-2.69-2-4a8.92 8.92 0 0 0 .75-2.75c.39-3.69-1.52-7.15-4.57-8.28l-6.38-15-5.05-35.18-1.27 6.88-.29 32.12 3.43.47 4.6 11a7.19 7.19 0 0 0-1.65 1.18 8.49 8.49 0 0 0-2.51 5.25c-.4 3.72 1.56 7.21 4.66 8.31a6.22 6.22 0 0 0 1.36.31 6.74 6.74 0 0 0 2.42-.28l.52-.13c1.32-.3 2.41 1 3.33 2.24a4.51 4.51 0 0 0 .59.72 1.19 1.19 0 0 0 .79.29 1.63 1.63 0 0 0 .85-.26c.55-.34 1.25-1.15 1.08-1.89a2.56 2.56 0 0 0-.66-1m-1.19 1.55l-.25-.34c-.72-1-2.13-2.9-4.14-2.9a3.29 3.29 0 0 0-.72.08l-.55.13a5.52 5.52 0 0 1-1.9.25 4.75 4.75 0 0 1-1-.23c-2.44-.86-4-3.68-3.65-6.7a7 7 0 0 1 2-4.3 5.47 5.47 0 0 1 1.86-1.18l.75-.28-5.54-13.25-3-.41.22-26 3.43 23.9 6.75 15.88.32.11h.21c2.44.86 4 3.68 3.65 6.7a7.38 7.38 0 0 1-.64 2.33v.11c-.61 2.16 1.25 4.35 2.25 5.52l.24.28a1.33 1.33 0 0 1-.28.27" fill="none" clip-rule="evenodd"/></clipPath><clipPath id="aY"><path d="M510.4 378.61a3.18 3.18 0 0 0-.65-.32 4.2 4.2 0 0 0-4.78 2 4.84 4.84 0 0 0-.72 3.22 3.45 3.45 0 0 0 1.52 2.49 3.25 3.25 0 0 0 .65.32 3.29 3.29 0 0 0 1.09.18 4.49 4.49 0 0 0 3.68-2.22 4.82 4.82 0 0 0 .73-3.22 3.44 3.44 0 0 0-1.52-2.49m-.14 5.11a3.11 3.11 0 0 1-3.48 1.58 2.15 2.15 0 0 1-.42-.21 2.35 2.35 0 0 1-1-1.7 3.7 3.7 0 0 1 .56-2.46 3.38 3.38 0 0 1 2.74-1.7 2.22 2.22 0 0 1 .74.13 2.1 2.1 0 0 1 .42.21 2.34 2.34 0 0 1 1 1.7 3.69 3.69 0 0 1-.56 2.46" fill="none" clip-rule="evenodd"/></clipPath><clipPath id="aZ"><path d="M532.46 362.18l11.17-11.06-10.69 14.43zm-1.6-.55l1.14 7.77 15.83-21.4 1.6-4.76z" fill="none" clip-rule="evenodd"/></clipPath><clipPath id="ba"><path d="M381.89 528.64a11.22 11.22 0 0 0-4.92 1.13l-.49.24-7.48-10.9c-.21-.29-.56-.11-.92-.11h-6.91a1 1 0 1 0 0 2h6.33l3.12 4h-13.53v-3h-9.79a1 1 0 1 0 0 2h7.29l-4.77 6.34-.47-.27a11.35 11.35 0 0 0-5.51-1.42 11.49 11.49 0 0 0 0 23 11.2 11.2 0 0 0 11.35-9.47l.08-.15h5.86c.36 0 .67-.54.87-.82l10.08-13.59 2.54 3.73-.4.31a11.43 11.43 0 1 0 7.66-3zm-28.95 13.72a9.15 9.15 0 0 1-9.09 7.23 9.34 9.34 0 0 1 0-18.68 9.13 9.13 0 0 1 4 .87l.68.31-5.53 7.4a1.82 1.82 0 0 0-.12 1.52c.19.38.56 1 1 1h9.24zm-6.88-2.36l4.2-6.08.5.32a10.64 10.64 0 0 1 2.17 4.65l.16 1.12zm14.52 0h-5.31l-.08-1a12 12 0 0 0-3.23-6.7l-.39-.2 3.19-4.07h14.52zm21.3 9.4a9.26 9.26 0 0 1-6.58-15.79l.53-.54 5.12 7.66a1.06 1.06 0 0 0 .92.51 1 1 0 0 0 .6-.18 1.08 1.08 0 0 0 .48-.7 1.14 1.14 0 0 0-.17-.87l-5.13-7.66.71-.28a9.27 9.27 0 1 1 3.5 17.85z" fill="none" clip-rule="evenodd"/></clipPath><clipPath id="bb"><path d="M1043.22 363h-2.62v-7.07a3.15 3.15 0 0 0-3.24-2.93h-4.76v-1.82c0-1.79-1.24-2.18-3-2.18h-5.35c-1.78 0-3.63.4-3.63 2.18V364h-15v-12.82c0-1.79-1.57-2.18-3.36-2.18h-5.35c-1.78 0-3.29.4-3.29 2.18V353h-4.48c-1.66 0-2.52 1.27-2.52 2.93V363h-3.35a2.47 2.47 0 0 0-2.65 2.76v5.54c0 1.79 1 3.7 2.65 3.7h3.35v6.13c0 1.66.85 3.87 2.52 3.87h4.48v.88a3.19 3.19 0 0 0 3.29 3.12h5.35a3.25 3.25 0 0 0 3.36-3.12V374h15v11.88c0 1.79 1.84 3.12 3.63 3.12h5.35a3 3 0 0 0 3-3.12V385h4.76c1.66 0 3.24-2.21 3.24-3.87V375h2.62c1.64 0 3.38-1.92 3.38-3.7v-5.54c-.01-1.76-1.74-2.76-3.38-2.76zm-60 10c-.41 0-.65-1.16-.65-1.7v-5.54c0-.54.24-.76.65-.76h3.35v8zm5.87 10c-.43 0-.52-1.44-.52-1.87v-25.2c0-.43.08-.93.52-.93h4.48v28zm14.48 2.88c0 .56-.79 1.12-1.36 1.12h-5.35a1.38 1.38 0 0 1-1.29-1.12v-34.7c0-.56.73-.18 1.29-.18h5.35c.56 0 1.36-.38 1.36.18zm2-19.88h15v6h-15zm25 19.88a1.12 1.12 0 0 1-1 1.12h-5.35c-.56 0-.63-.56-.63-1.12v-34.7c0-.56.06-.18.63-.18h5.35c.56 0 1-.38 1 .18v34.7zm7-4.75c0 .43.19 1.87-.24 1.87h-4.76v-28h4.76c.43 0 .24.5.24.93v25.2zm6-9.83c0 .54 0 1.7-.38 1.7h-2.62v-8h2.62c.41 0 .38.22.38.76z" fill="none" clip-rule="evenodd"/></clipPath><clipPath id="bc"><path d="M1034.57 542.56l-1.14-.18a3.67 3.67 0 0 0-.57 0l-1.86.05c-.82 0-1.6.06-2 .06a5.35 5.35 0 0 1-1.53-.2 6.69 6.69 0 0 1-2.46-2l-2.36-2.59c-2.71-3-5.27-5.78-8.11-8.74-.15-.16-.31-.34-.48-.54a6.48 6.48 0 0 0-.83-.85 3.43 3.43 0 0 0-1.14.64c-.26.19-.54.38-.82.55-1.82 1-2.88 1.64-4.63 2.62l-.39.22-.46.27a5.75 5.75 0 0 1-2.67 1.09h-.06a3.84 3.84 0 0 1-2.59-1.63 5.69 5.69 0 0 1-1.16-2.67c0-1 1.16-2.11 2.6-3.4.22-.2.42-.37.54-.49a72.36 72.36 0 0 1 6-5.21l.54-.44c.3-.24.6-.52.93-.81a10.26 10.26 0 0 1 2.73-2 2.21 2.21 0 0 1 .87-.18 4.57 4.57 0 0 1 2.25.83l.43.24c4 2.23 7.1 4.26 10.24 6.14 1.82 1.1 4.55 2.67 7.18 2.67h1.13v6.32c0 3.07 0 6.17-.1 9.15zm-21.3-17.09h.26a3.74 3.74 0 0 1 2.1 1.55c.14.17.28.32.41.46 2.86 3 5.43 5.8 8.15 8.78l2.36 2.58a6.2 6.2 0 0 0 1.53 1.41 3.29 3.29 0 0 0 .93.11c.35 0 1.15 0 1.92-.06l1.67-.05c.09-2.62.07-5.38.05-8.07v-4.7a18 18 0 0 1-7.29-2.66c-3.12-1.87-6.16-3.62-10.17-5.84l-.47-.27a3.59 3.59 0 0 0-1.2-.55h-.07a8.85 8.85 0 0 0-2.14 1.61c-.33.3-.67.61-1 .89l-.55.44a71.06 71.06 0 0 0-5.8 5.06c-.14.14-.36.34-.62.57a11.94 11.94 0 0 0-1.89 2 5.45 5.45 0 0 0 .71 1.3 2.33 2.33 0 0 0 1 .83 6 6 0 0 0 1.58-.78l.53-.31.39-.22c1.74-1 2.8-1.57 4.61-2.61.2-.11.41-.27.65-.44a4.19 4.19 0 0 1 2.35-1.04z" fill="none" clip-rule="evenodd"/></clipPath><clipPath id="bd"><path d="M1015.58 553.55h-.94a5.47 5.47 0 0 1-2.26-1 6.55 6.55 0 0 1-2.5 1h-.88c-2.24-.25-3.52-1.6-4.64-2.79l-.61-.63-1.82-1.8c-1.23-1.2-2.39-2.34-3.59-3.62a7.93 7.93 0 0 0-4.76-2.45h-.34l-1.2.17v-6.74c0-3.09 0-6.29.1-9.35v-1h1a10.62 10.62 0 0 0 5-1.52 15.82 15.82 0 0 1 1.84-1.05l.8-.42c.38-.21.76-.46 1.17-.72s.85-.55 1.29-.79a1.16 1.16 0 0 1 .57-.14 5.74 5.74 0 0 1 1.53.37l.85.26 8.7-4.89-7.8 6.74-.76.64a13.63 13.63 0 0 0-1.23 1.11c-.1.1-1.12 1.09-1.33 1.28-.51.46-1 .82-1.36 1.1-.94.71-1.11.88-1.13 1.39a1 1 0 0 0 .41 1 1.71 1.71 0 0 1 .32.3 3 3 0 0 0 .81.76h.44l.44-.23c.39-.2.87-.44 1.39-.77l1-.57 2.31-1.3c.83-.46 1.19-.7 1.61-1s.86-.57 1.78-1.1a2.69 2.69 0 0 1 1.29-.31 2.57 2.57 0 0 1 .87.14 1.65 1.65 0 0 1 .65.52l.08-.05.6.68.38.41.53.58c.11.13.57.6.79.83l.16.17c2.2 2.29 3.76 4 5.56 6l1.71 1.88.69.77c.61.69 1.25 1.4 1.83 2l.12.11.62.57c.3.28.39.54.83 2.4.06.27.11.49.14.58v.15c.32 2.1.53 4.09-.45 5.38a3.06 3.06 0 0 1-2.17 1.15h-.48a3.42 3.42 0 0 1-1.29-.25 4.09 4.09 0 0 1-3.87 2.11 5.83 5.83 0 0 1-1.52-.2 4.69 4.69 0 0 1-3.37 2.09zm-.65-1.55h.47a2.31 2.31 0 0 0 2.13-1.92l.38-1.26 1.06.46a3.64 3.64 0 0 0 1.59.32c.21 0 2.07-.06 2.12-1.46v-1.28l1.23.29a5.57 5.57 0 0 1 1 .34 1.79 1.79 0 0 0 .79.22h.24a1 1 0 0 0 .77-.34c.52-.68.23-2.64.06-3.74 0-.12-.08-.31-.15-.64s-.27-1.15-.38-1.5l-.44-.41-.2-.19c-.62-.62-1.27-1.35-1.91-2.06l-.68-.76-1.71-1.88c-1.79-2-3.33-3.68-5.51-5.94l-.16-.16c-.38-.39-.72-.75-.86-.91l-.5-.55-.22-.25a3.78 3.78 0 0 1-.76-.71l-.06-.06a1 1 0 0 0-.28 0c-.85.49-1.26.76-1.66 1s-.85.56-1.74 1.06l-2.32 1.31-.94.53c-.59.36-1.13.64-1.53.85l-.47.25a2.79 2.79 0 0 1-1.21.23 2.82 2.82 0 0 1-.64-.07 4.1 4.1 0 0 1-1.9-1.44 3 3 0 0 1-1.19-2.72c.07-1.51.94-2.17 1.95-2.94.36-.28.78-.59 1.23-1 .18-.16 1.15-1.1 1.25-1.2l.58-.56-.26-.08c-.29.17-.58.36-.89.56s-.84.54-1.29.79l-.86.45a14.28 14.28 0 0 0-1.61.91 12.68 12.68 0 0 1-5.22 1.83c-.1 2.72-.08 5.56-.06 8.3v4.52a10.4 10.4 0 0 1 5.72 3.07c1.17 1.24 2.31 2.37 3.52 3.55l1.84 1.81c.22.22.44.71.65.94 1 1.1 1.86 2.41 3.31 2.41h.42c.85 0 1.47-.79 2.25-1.32l.72-.62.6.82c.47.51 1.03 1.15 1.73 1.15z" fill="none" clip-rule="evenodd"/></clipPath><clipPath id="be"><path d="M993.59 552h-11v-32h11zm-9-2h7v-28h-7z" fill="none" clip-rule="evenodd"/></clipPath><clipPath id="bf"><path d="M1044.59 552h-11.71v-12.57c0-6.09 0-12.38.1-18.43v-1h11.59zm-9.63-2h7.63v-28H1035c-.11 6-.09 12-.07 17.71.07 3.29.07 6.29.07 10.29z" fill="none" clip-rule="evenodd"/></clipPath><clipPath id="bg"><path d="M1038.54 544.63a1.47 1.47 0 1 0 1.47 1.47 1.47 1.47 0 0 0-1.47-1.47" fill="none" clip-rule="evenodd"/></clipPath><clipPath id="bh"><path d="M988.28 544.63a1.47 1.47 0 1 0 1.47 1.47 1.47 1.47 0 0 0-1.47-1.47" fill="none" clip-rule="evenodd"/></clipPath></defs><g clip-path="url(#a)"><path fill="#fff" d="M664.06 339h48v63h-48z"/></g><g clip-path="url(#b)"><path fill="#fff" d="M679.06 327h18v31h-18z"/></g><g clip-path="url(#c)"><path fill="#fff" d="M680.06 327h18v31h-18z"/></g><g clip-path="url(#d)"><path fill="#fff" d="M675.06 356h25v39h-25z"/></g><g clip-path="url(#e)"><path fill="#fff" d="M8 167h28v73H8z"/></g><g clip-path="url(#f)"><path fill="#fff" d="M46 166h20v74H46z"/></g><g clip-path="url(#g)"><path fill="#fff" d="M28 166h25v74H28z"/></g><g clip-path="url(#h)"><path fill="#fff" d="M27 166h26v74H27z"/></g><g clip-path="url(#i)"><path fill="#fff" d="M177.52 7h47v65h-47z"/></g><g clip-path="url(#j)"><path fill="#fff" d="M177.52 2h47v18h-47z"/></g><g clip-path="url(#k)"><path fill="#fff" d="M182.52 12h37v55h-37z"/></g><g clip-path="url(#l)"><path fill="#fff" d="M183.52 20h35v39h-35z"/></g><g clip-path="url(#m)"><path fill="#fff" d="M345.85 175h33v17h-33z"/></g><g clip-path="url(#n)"><path fill="#fff" d="M329.85 184h65v48h-65z"/></g><g clip-path="url(#o)"><path fill="#fff" d="M345.85 192h33v32h-33z"/></g><g clip-path="url(#p)"><path fill="#fff" d="M206.15 519h30v30h-30z"/></g><g clip-path="url(#q)"><path fill="#fff" d="M178.15 514h13v18h-13z"/></g><g clip-path="url(#r)"><path fill="#fff" d="M164.15 506h51v60h-51z"/></g><g clip-path="url(#s)"><path fill="#fff" d="M196.15 505h19v45h-19z"/></g><g clip-path="url(#t)"><path fill="#fff" d="M208.15 541h26v15h-26z"/></g><g clip-path="url(#u)"><path fill="#fff" d="M986.09 1h56v41h-56z"/></g><g clip-path="url(#v)"><path fill="#fff" d="M985.09 36h57v32h-57z"/></g><g clip-path="url(#w)"><path fill="#fff" d="M993.09 7h41v41h-41z"/></g><g clip-path="url(#x)"><path fill="#fff" d="M0 510h75v50H0z"/></g><g clip-path="url(#y)"><path fill="#fff" d="M8 530h22v22H8z"/></g><g clip-path="url(#z)"><path fill="#fff" d="M13 535h19v19H13z"/></g><g clip-path="url(#A)"><path fill="#fff" d="M44 532h22v22H44z"/></g><g clip-path="url(#B)"><path fill="#fff" d="M43 531h18v18H43z"/></g><g clip-path="url(#C)"><path fill="#fff" d="M493.16 179h64v35h-64z"/></g><g clip-path="url(#D)"><path fill="#fff" d="M527.16 186h18v15h-18z"/></g><g clip-path="url(#E)"><path fill="#fff" d="M519.16 174h12v14h-12z"/></g><g clip-path="url(#F)"><path fill="#fff" d="M515.16 172h20v13h-20z"/></g><g clip-path="url(#G)"><path fill="#fff" d="M517.16 177h16v14h-16z"/></g><g clip-path="url(#H)"><path fill="#fff" d="M491.16 207h68v12h-68z"/></g><g clip-path="url(#I)"><path fill="#fff" d="M489.16 211h72v13h-72z"/></g><g clip-path="url(#J)"><path fill="#fff" d="M488.46 13h75v48h-75z"/></g><g clip-path="url(#K)"><path fill="#fff" d="M813.97 338h73v60h-73z"/></g><g clip-path="url(#L)"><path fill="#fff" d="M677.06 50h13v17h-13z"/></g><g clip-path="url(#M)"><path fill="#fff" d="M687.06 50h13v17h-13z"/></g><g clip-path="url(#N)"><path fill="#fff" d="M682.06 40h13v12h-13z"/></g><g clip-path="url(#O)"><path fill="#fff" d="M682.06 40h13v13h-13z"/></g><g clip-path="url(#P)"><path fill="#fff" d="M673.06 56h31v12h-31z"/></g><g clip-path="url(#Q)"><path fill="#fff" d="M654.06 6h69v51h-69z"/></g><g clip-path="url(#R)"><path fill="#fff" d="M654.06 36h68v12h-68z"/></g><g clip-path="url(#S)"><path fill="#fff" d="M661.06 12h54v15h-54z"/></g><g clip-path="url(#T)"><path fill="#fff" d="M696.06 19h19v24h-19z"/></g><g clip-path="url(#U)"><path fill="#fff" d="M661.06 19h42v11h-42z"/></g><g clip-path="url(#V)"><path fill="#fff" d="M661.06 21h42v11h-42z"/></g><g clip-path="url(#W)"><path fill="#fff" d="M661.06 27h42v10h-42z"/></g><g clip-path="url(#X)"><path fill="#fff" d="M661.06 24h42v11h-42z"/></g><g clip-path="url(#Y)"><path fill="#fff" d="M661.06 29h42v11h-42z"/></g><g clip-path="url(#Z)"><path fill="#fff" d="M661.06 32h42v11h-42z"/></g><g clip-path="url(#aa)"><path fill="#fff" d="M16 335h43v43H16z"/></g><g clip-path="url(#ab)"><path fill="#fff" d="M6 365h62v37H6z"/></g><g clip-path="url(#ac)"><path fill="#fff" d="M28 373h18v20H28z"/></g><g clip-path="url(#ad)"><path fill="#fff" d="M26 377h22v24H26z"/></g><g clip-path="url(#ae)"><path fill="#fff" d="M35 370h21v21H35z"/></g><g clip-path="url(#af)"><path fill="#fff" d="M18 370h21v21H18z"/></g><g clip-path="url(#ag)"><path fill="#fff" d="M675.73 517h26v26h-26z"/></g><g clip-path="url(#ah)"><path fill="#fff" d="M670.73 531h35v29h-35z"/></g><g clip-path="url(#ai)"><path fill="#fff" d="M692.73 510h26v27h-26z"/></g><g clip-path="url(#aj)"><path fill="#fff" d="M692.73 525h30v28h-30z"/></g><g clip-path="url(#ak)"><path fill="#fff" d="M657.73 511h26v25h-26z"/></g><g clip-path="url(#al)"><path fill="#fff" d="M653.73 525h31v28h-31z"/></g><g clip-path="url(#am)"><path fill="#fff" d="M28 0h21v22H28z"/></g><g clip-path="url(#an)"><path fill="#fff" d="M3 7h71v60H3z"/></g><g clip-path="url(#ao)"><path fill="#fff" d="M328.91 5h69v62h-69z"/></g><g clip-path="url(#ap)"><path fill="#fff" d="M339.91 33h25v14h-25z"/></g><g clip-path="url(#aq)"><path fill="#fff" d="M365.91 13h25v28h-25z"/></g><g clip-path="url(#ar)"><path fill="#fff" d="M821.08 9h29v29h-29z"/></g><g clip-path="url(#as)"><path fill="#fff" d="M825.08 9h40v29h-40z"/></g><g clip-path="url(#at)"><path fill="#fff" d="M854.08 10h27v28h-27z"/></g><g clip-path="url(#au)"><path fill="#fff" d="M840.08 9h39v29h-39z"/></g><g clip-path="url(#av)"><path fill="#fff" d="M821.08 9h17v17h-17z"/></g><g clip-path="url(#aw)"><path fill="#fff" d="M867.08 24h14v14h-14z"/></g><g clip-path="url(#ax)"><path fill="#fff" d="M827.08 31h48v35h-48z"/></g><g clip-path="url(#ay)"><path fill="#fff" d="M826.96 513h48v52h-48z"/></g><g clip-path="url(#az)"><path fill="#fff" d="M848.96 505h22v22h-22z"/></g><g clip-path="url(#aA)"><path fill="#fff" d="M176.04 166h47v73h-47z"/></g><g clip-path="url(#aB)"><path fill="#fff" d="M657.65 172h60v60h-60z"/></g><g clip-path="url(#aC)"><path fill="#fff" d="M681.65 196h36v36h-36z"/></g><g clip-path="url(#aD)"><path fill="#fff" d="M657.65 172h36v37h-36z"/></g><g clip-path="url(#aE)"><path fill="#fff" d="M827.78 170h46v66h-46z"/></g><g clip-path="url(#aF)"><path fill="#fff" d="M842.78 204h18v22h-18z"/></g><g clip-path="url(#aG)"><path fill="#fff" d="M979.97 175h67v57h-67z"/></g><g clip-path="url(#aH)"><path fill="#fff" d="M501.86 519h39v52h-39z"/></g><g clip-path="url(#aI)"><path fill="#fff" d="M501.86 501h32v26h-32z"/></g><g clip-path="url(#aJ)"><path fill="#fff" d="M520.86 512h17v20h-17z"/></g><g clip-path="url(#aK)"><path fill="#fff" d="M524.86 502h16v20h-16z"/></g><g clip-path="url(#aL)"><path fill="#fff" d="M532.86 506h16v11h-16z"/></g><g clip-path="url(#aM)"><path fill="#fff" d="M532.86 499h17v15h-17z"/></g><g clip-path="url(#aN)"><path fill="#fff" d="M532.86 509h17v15h-17z"/></g><g clip-path="url(#aO)"><path fill="#fff" d="M192.75 372h15v32h-15z"/></g><g clip-path="url(#aP)"><path fill="#fff" d="M178.75 388h42v17h-42z"/></g><g clip-path="url(#aQ)"><path fill="#fff" d="M187.75 333h26v47h-26z"/></g><g clip-path="url(#aR)"><path fill="#fff" d="M182.75 351h36v34h-36z"/></g><g clip-path="url(#aS)"><path fill="#fff" d="M334.92 354h23v44h-23z"/></g><g clip-path="url(#aT)"><path fill="#fff" d="M339.92 381h13v13h-13z"/></g><g clip-path="url(#aU)"><path fill="#fff" d="M346.92 335h43v60h-43z"/></g><g clip-path="url(#aV)"><path fill="#fff" d="M526.82 383h17v19h-17z"/></g><g clip-path="url(#aW)"><path fill="#fff" d="M495.82 363h33v32h-33z"/></g><g clip-path="url(#aX)"><path fill="#fff" d="M519.82 330h29v78h-29z"/></g><g clip-path="url(#aY)"><path fill="#fff" d="M498.82 374h18v18h-18z"/></g><g clip-path="url(#aZ)"><path fill="#fff" d="M525.82 339h29v36h-29z"/></g><g clip-path="url(#ba)"><path fill="#fff" d="M327.09 514h71v43h-71z"/></g><g clip-path="url(#bb)"><path fill="#fff" d="M975.59 344h76v50h-76z"/></g><g clip-path="url(#bc)"><path fill="#fff" d="M994.59 512h45v36h-45z"/></g><g clip-path="url(#bd)"><path fill="#fff" d="M986.59 512h47v47h-47z"/></g><g clip-path="url(#be)"><path fill="#fff" d="M977.59 515h21v42h-21z"/></g><g clip-path="url(#bf)"><path fill="#fff" d="M1027.59 515h22v42h-22z"/></g><g clip-path="url(#bg)"><path fill="#fff" d="M1031.59 540h13v13h-13z"/></g><g clip-path="url(#bh)"><path fill="#fff" d="M981.59 540h13v13h-13z"/></g></svg>