<svg xmlns="http://www.w3.org/2000/svg" xmlns:xlink="http://www.w3.org/1999/xlink" viewBox="0 0 1359.7 750"><defs><linearGradient id="a" x1="205" y1="404.38" x2="313.42" y2="404.38" gradientUnits="userSpaceOnUse"><stop offset="0" stop-color="#483369"/><stop offset="1" stop-color="#584576"/></linearGradient><linearGradient id="b" data-name="New Gradient Swatch 1" x1="303.8" y1="423.92" x2="164.63" y2="413.42" gradientUnits="userSpaceOnUse"><stop offset="0" stop-color="#9364de"/><stop offset="1" stop-color="#b699e5"/></linearGradient><linearGradient id="c" x1="161.76" y1="347.7" x2="279.62" y2="458.94" gradientUnits="userSpaceOnUse"><stop offset="0" stop-color="#f7aa22"/><stop offset="1" stop-color="#ec9c50"/></linearGradient><linearGradient id="d" x1="168.25" y1="365.99" x2="411.59" y2="466.99" xlink:href="#b"/></defs><path fill="none" d="M0 0h1359.7v750H0z"/><path d="M148.2 336.7a5 5 0 0 1 5-5h110.3a5 5 0 0 1 5 5v110a5 5 0 0 1-5 5H153.2a5 5 0 0 1-5-5z" fill-rule="evenodd" fill="url(#c)"/><g fill="#f7aa22" fill-rule="evenodd"><path d="M162.6 421.1a5 5 0 0 1 5-5h12.9a5 5 0 0 1 5 5v12.8a5 5 0 0 1-5 5h-12.9a5 5 0 0 1-5-5zM162.6 386.3a5 5 0 0 1 5-5h12.9a5 5 0 0 1 5 5v12.8a5 5 0 0 1-5 5h-12.9a5 5 0 0 1-5-5zM162.6 351.5a5 5 0 0 1 5-5h12.9a5 5 0 0 1 5 5v12.8a5 5 0 0 1-5 5h-12.9a5 5 0 0 1-5-5zM196.5 421.1a5 5 0 0 1 5-5h12.9a5 5 0 0 1 5 5v12.8a5 5 0 0 1-5 5h-12.9a5 5 0 0 1-5-5zM196.5 386.3a5 5 0 0 1 5-5h12.9a5 5 0 0 1 5 5v12.8a5 5 0 0 1-5 5h-12.9a5 5 0 0 1-5-5zM196.5 351.5a5 5 0 0 1 5-5h12.9a5 5 0 0 1 5 5v12.8a5 5 0 0 1-5 5h-12.9a5 5 0 0 1-5-5zM230.4 421.1a5 5 0 0 1 5-5h12.9a5 5 0 0 1 5 5v12.8a5 5 0 0 1-5 5h-12.9a5 5 0 0 1-5-5zM230.4 386.3a5 5 0 0 1 5-5h12.9a5 5 0 0 1 5 5v12.8a5 5 0 0 1-5 5h-12.9a5 5 0 0 1-5-5zM230.4 351.5a5 5 0 0 1 5-5h12.9a5 5 0 0 1 5 5v12.8a5 5 0 0 1-5 5h-12.9a5 5 0 0 1-5-5z"/></g><path d="M192.3 416.2h108.4v6.8H192.3zm103.3-28.4v-13.4a2.2 2.2 0 0 0-2.2-2.1H280a2.2 2.2 0 0 0-2 1.3 2.2 2.2 0 0 0 .4 2.3l4 4 .5.5.6.2a2.3 2.3 0 0 0 2.6-2.6l-.2-.6-.5-.5-.4-.4h6.1v6.1l-.4-.4-.4-.4-.7-.2a2.3 2.3 0 0 0-2.6 2.6l.2.6.5.5 4 4a2.1 2.1 0 0 0 1.5.6l.8-.2a1.9 1.9 0 0 0 1.4-1.9M205 358.7a5 5 0 0 1 5-5h98.4a5 5 0 0 1 5 5v54.2a5 5 0 0 1-5 5H210a5 5 0 0 1-5-5z" fill="#483369" fill-rule="evenodd"/><path fill="url(#a)" d="M205 401h108.4v6.76H205z"/><path d="M192.3 371.4a5 5 0 0 1 5-5h98.4a5 5 0 0 1 5 5v54.2a5 5 0 0 1-5 5h-98.4a5 5 0 0 1-5-5z" fill-rule="evenodd" fill="url(#d)"/><path fill="url(#b)" d="M192.3 416.2h108.4v6.76H192.3z"/><g fill="#fafafa"><path d="M231.1 406.8v2.3h-2.5v-2.4c-2.9-.4-4.8-2.2-4.9-4.9l3.3-.2c.1 1.4 1.3 2.4 3 2.4s2.5-.6 2.5-1.8-.9-1.6-3.2-2.2l-2-.6-1.6-.8a3.5 3.5 0 0 1-1.6-3.2 4.5 4.5 0 0 1 1.2-3.1 5.2 5.2 0 0 1 3.3-1.6v-2.3h2.5v2.4a4.8 4.8 0 0 1 4.4 4.7l-3.3.2a2.2 2.2 0 0 0-2.4-2.2c-1.4 0-2.3.7-2.3 1.9a1.3 1.3 0 0 0 .7 1.2 9.8 9.8 0 0 0 2.4.8 11.6 11.6 0 0 1 4 1.7 3.4 3.4 0 0 1 1.3 2.9c-.1 2.9-2 4.5-4.8 4.8zM244.6 406.6h-3.2V395l-2 1.4-1.4-2.6 4.3-2.9h2.4zM257.1 398a4.9 4.9 0 0 1 1.3 3.7 4.9 4.9 0 0 1-5.2 5.2c-3.1 0-5-1.8-5.1-4.6l3.2-.2a1.8 1.8 0 0 0 1.9 1.9c1.3 0 2-.9 2-2.3s-.7-2.2-1.9-2.2a2.9 2.9 0 0 0-1.7.5h-3v-9.2h9.2v2.9h-6v3.3a4.2 4.2 0 0 1 1.8-.4 4.8 4.8 0 0 1 3.5 1.4z"/></g><path d="M295.6 387.9v-13.5a2.2 2.2 0 0 0-2.2-2.2H280a2.2 2.2 0 0 0-2 1.3 2.2 2.2 0 0 0 .4 2.3l4 4 .5.5.6.2a2.4 2.4 0 0 0 2.6-2.7l-.2-.6-.5-.5-.4-.4h6.1v6.2l-.4-.4-.4-.4-.7-.2a2.4 2.4 0 0 0-2.6 2.7l.2.6.5.5 4 4a2.1 2.1 0 0 0 1.5.6l.8-.2a2 2 0 0 0 1.4-1.9" fill="#f7aa22" fill-rule="evenodd"/></svg>